<svg version="1.1" xmlns="http://www.w3.org/2000/svg" xmlns:xlink="http://www.w3.org/1999/xlink" width="732" height="285"><defs/><g><g><path fill="#C0C0C0" stroke="none" paint-order="stroke fill markers" d=" M 417 209 C 417 204.58172159999998 439.5019517132813 201 467.259521484375 201 C 495.0170912554687 201 517.51904296875 204.58172159999998 517.51904296875 209 L 517.51904296875 263 C 517.51904296875 267.4182784 495.0170912554687 271 467.259521484375 271 C 439.5019517132813 271 417 267.4182784 417 263 L 417 209 Z" fill-opacity="0.2"/></g><g><path fill="#a3e0ff" stroke="#000000" paint-order="fill stroke markers" d=" M 410 202 C 410 197.58172159999998 432.5019517132813 194 460.259521484375 194 C 488.0170912554687 194 510.51904296875 197.58172159999998 510.51904296875 202 L 510.51904296875 256 C 510.51904296875 260.4182784 488.0170912554687 264 460.259521484375 264 C 432.5019517132813 264 410 260.4182784 410 256 L 410 202 Z" stroke-miterlimit="10" stroke-dasharray=""/></g><g><path fill="none" stroke="#000000" paint-order="fill stroke markers" d=" M 410 202 C 410 206.41827840000002 432.5019517132813 210 460.259521484375 210 C 488.0170912554687 210 510.51904296875 206.41827840000002 510.51904296875 202" stroke-miterlimit="10" stroke-dasharray=""/></g><g><g><path fill="none" stroke="none"/><text fill="#000000" stroke="none" font-family="Arial" font-size="13px" font-style="normal" font-weight="bold" text-decoration="undefined" x="586.259521484375" y="414.5" text-anchor="middle" dominant-baseline="central" transform="matrix(1 0 0 1 -126 -190)">TimescaleDB</text></g></g><g><g><path fill="none" stroke="none"/><text fill="#000000" stroke="none" font-family="Arial" font-size="13px" font-style="normal" font-weight="normal" text-decoration="undefined" x="586.259521484375" y="429.5" text-anchor="middle" dominant-baseline="central" transform="matrix(1 0 0 1 -126 -190)">[Container]</text></g></g><g><g><path fill="none" stroke="none"/></g></g><g><path fill="#C0C0C0" stroke="none" paint-order="stroke fill markers" d=" M 567 193 L 723 193 Q 729 193 729 199 L 729 276 Q 729 282 723 282 L 567 282 Q 561 282 561 276 L 561 199 Q 561 193 567 193 Z" fill-opacity="0.2"/></g><g><path fill="#a3e0ff" stroke="none" paint-order="stroke fill markers" d=" M 560 186 L 716 186 Q 722 186 722 192 L 722 269 Q 722 275 716 275 L 560 275 Q 554 275 554 269 L 554 192 Q 554 186 560 186 Z"/></g><g><path fill="none" stroke="#000000" paint-order="fill stroke markers" d=" M 560 186 L 716 186 Q 722 186 722 192 L 722 269 Q 722 275 716 275 L 560 275 Q 554 275 554 269 L 554 192 Q 554 186 560 186 Z" stroke-miterlimit="10" stroke-dasharray=""/></g><g><path fill="none" stroke="#000000" paint-order="fill stroke markers" d=" M 562 197 C 562 194.23857600000002 564.238576 192 567 192 C 569.761424 192 572 194.23857600000002 572 197 C 572 199.76142399999998 569.761424 202 567 202 C 564.238576 202 562 199.76142399999998 562 197 Z" stroke-miterlimit="10" stroke-dasharray=""/></g><g><path fill="none" stroke="#000000" paint-order="fill stroke markers" d=" M 576 197 C 576 194.23857600000002 578.238576 192 581 192 C 583.761424 192 586 194.23857600000002 586 197 C 586 199.76142399999998 583.761424 202 581 202 C 578.238576 202 576 199.76142399999998 576 197 Z" stroke-miterlimit="10" stroke-dasharray=""/></g><g><path fill="none" stroke="#000000" paint-order="fill stroke markers" d=" M 595 192 L 709 192 Q 714 192 714 197 L 714 197 Q 714 202 709 202 L 595 202 Q 590 202 590 197 L 590 197 Q 590 192 595 192 Z" stroke-miterlimit="10" stroke-dasharray=""/></g><g><path fill="none" stroke="#000000" paint-order="fill stroke markers" d=" M 554 210 L 722 210" stroke-miterlimit="10" stroke-dasharray=""/></g><g><g><path fill="none" stroke="none"/><text fill="#000000" stroke="none" font-family="Arial" font-size="13px" font-style="normal" font-weight="bold" text-decoration="undefined" x="764" y="412.5" text-anchor="middle" dominant-baseline="central" transform="matrix(1 0 0 1 -126 -190)">Dashboard Angular</text></g></g><g><g><path fill="none" stroke="none"/><text fill="#000000" stroke="none" font-family="Arial" font-size="13px" font-style="normal" font-weight="normal" text-decoration="undefined" x="764" y="427.5" text-anchor="middle" dominant-baseline="central" transform="matrix(1 0 0 1 -126 -190)">[Container]</text></g></g><g><g><path fill="none" stroke="none"/></g></g><g><path fill="#C0C0C0" stroke="none" paint-order="stroke fill markers" d=" M 233 209 C 233 204.58172159999998 255.50195171328124 201 283.259521484375 201 C 311.01709125546876 201 333.51904296875 204.58172159999998 333.51904296875 209 L 333.51904296875 263 C 333.51904296875 267.4182784 311.01709125546876 271 283.259521484375 271 C 255.50195171328124 271 233 267.4182784 233 263 L 233 209 Z" fill-opacity="0.2"/></g><g><path fill="#a3e0ff" stroke="#000000" paint-order="fill stroke markers" d=" M 226 202 C 226 197.58172159999998 248.50195171328124 194 276.259521484375 194 C 304.01709125546876 194 326.51904296875 197.58172159999998 326.51904296875 202 L 326.51904296875 256 C 326.51904296875 260.4182784 304.01709125546876 264 276.259521484375 264 C 248.50195171328124 264 226 260.4182784 226 256 L 226 202 Z" stroke-miterlimit="10" stroke-dasharray=""/></g><g><path fill="none" stroke="#000000" paint-order="fill stroke markers" d=" M 226 202 C 226 206.41827840000002 248.50195171328124 210 276.259521484375 210 C 304.01709125546876 210 326.51904296875 206.41827840000002 326.51904296875 202" stroke-miterlimit="10" stroke-dasharray=""/></g><g><g><path fill="none" stroke="none"/><text fill="#000000" stroke="none" font-family="Arial" font-size="13px" font-style="normal" font-weight="bold" text-decoration="undefined" x="402.259521484375" y="414.5" text-anchor="middle" dominant-baseline="central" transform="matrix(1 0 0 1 -126 -190)">Prometheus</text></g></g><g><g><path fill="none" stroke="none"/><text fill="#000000" stroke="none" font-family="Arial" font-size="13px" font-style="normal" font-weight="normal" text-decoration="undefined" x="402.259521484375" y="429.5" text-anchor="middle" dominant-baseline="central" transform="matrix(1 0 0 1 -126 -190)">[Container]</text></g></g><g><g><path fill="none" stroke="none"/></g></g><g><path fill="#C0C0C0" stroke="none" paint-order="stroke fill markers" d=" M 31 201 L 119.51904296875 201 Q 125.51904296875 201 125.51904296875 207 L 125.51904296875 271 Q 125.51904296875 277 119.51904296875 277 L 31 277 Q 25 277 25 271 L 25 207 Q 25 201 31 201 Z" fill-opacity="0.2"/></g><g><path fill="#a3e0ff" stroke="none" paint-order="stroke fill markers" d=" M 24 194 L 112.51904296875 194 Q 118.51904296875 194 118.51904296875 200 L 118.51904296875 264 Q 118.51904296875 270 112.51904296875 270 L 24 270 Q 18 270 18 264 L 18 200 Q 18 194 24 194 Z"/></g><g><path fill="none" stroke="#000000" paint-order="fill stroke markers" d=" M 24 194 L 112.51904296875 194 Q 118.51904296875 194 118.51904296875 200 L 118.51904296875 264 Q 118.51904296875 270 112.51904296875 270 L 24 270 Q 18 270 18 264 L 18 200 Q 18 194 24 194 Z" stroke-miterlimit="10" stroke-dasharray=""/></g><g><path fill="none" stroke="#000000" paint-order="fill stroke markers" d=" M 26 205 C 26 202.23857600000002 28.238575999999995 200 31 200 C 33.761424000000005 200 36 202.23857600000002 36 205 C 36 207.76142399999998 33.761424000000005 210 31 210 C 28.238575999999995 210 26 207.76142399999998 26 205 Z" stroke-miterlimit="10" stroke-dasharray=""/></g><g><path fill="none" stroke="#000000" paint-order="fill stroke markers" d=" M 40 205 C 40 202.23857600000002 42.238575999999995 200 45 200 C 47.761424000000005 200 50 202.23857600000002 50 205 C 50 207.76142399999998 47.761424000000005 210 45 210 C 42.238575999999995 210 40 207.76142399999998 40 205 Z" stroke-miterlimit="10" stroke-dasharray=""/></g><g><path fill="none" stroke="#000000" paint-order="fill stroke markers" d=" M 59 200 L 105.51904296875 200 Q 110.51904296875 200 110.51904296875 205 L 110.51904296875 205 Q 110.51904296875 210 105.51904296875 210 L 59 210 Q 54 210 54 205 L 54 205 Q 54 200 59 200 Z" stroke-miterlimit="10" stroke-dasharray=""/></g><g><path fill="none" stroke="#000000" paint-order="fill stroke markers" d=" M 18 218 L 118.51904296875 218" stroke-miterlimit="10" stroke-dasharray=""/></g><g><g><path fill="none" stroke="none"/><text fill="#000000" stroke="none" font-family="Arial" font-size="13px" font-style="normal" font-weight="bold" text-decoration="undefined" x="194.259521484375" y="420.5" text-anchor="middle" dominant-baseline="central" transform="matrix(1 0 0 1 -126 -190)">Grafana</text></g></g><g><g><path fill="none" stroke="none"/><text fill="#000000" stroke="none" font-family="Arial" font-size="13px" font-style="normal" font-weight="normal" text-decoration="undefined" x="194.259521484375" y="435.5" text-anchor="middle" dominant-baseline="central" transform="matrix(1 0 0 1 -126 -190)">[Container]</text></g></g><g><g><path fill="none" stroke="none"/></g></g><g><path fill="#C0C0C0" stroke="none" paint-order="stroke fill markers" d=" M 23 41 L 131 41 Q 137 41 137 47 L 137 102 Q 137 108 131 108 L 23 108 Q 17 108 17 102 L 17 47 Q 17 41 23 41 Z" fill-opacity="0.2"/></g><g><path fill="#a3e0ff" stroke="none" paint-order="stroke fill markers" d=" M 16 34 L 124 34 Q 130 34 130 40 L 130 95 Q 130 101 124 101 L 16 101 Q 10 101 10 95 L 10 40 Q 10 34 16 34 Z"/></g><g><path fill="none" stroke="#000000" paint-order="fill stroke markers" d=" M 16 34 L 124 34 Q 130 34 130 40 L 130 95 Q 130 101 124 101 L 16 101 Q 10 101 10 95 L 10 40 Q 10 34 16 34 Z" stroke-miterlimit="10" stroke-dasharray=""/></g><g><g><path fill="none" stroke="none"/><text fill="#000000" stroke="none" font-family="Arial" font-size="13px" font-style="normal" font-weight="bold" text-decoration="undefined" x="196" y="238.5" text-anchor="middle" dominant-baseline="central" transform="matrix(1 0 0 1 -126 -190)">Gateway</text><text fill="#000000" stroke="none" font-family="Arial" font-size="13px" font-style="normal" font-weight="bold" text-decoration="undefined" x="196" y="251.5" text-anchor="middle" dominant-baseline="central" transform="matrix(1 0 0 1 -126 -190)">simulato</text></g></g><g><g><path fill="none" stroke="none"/><text fill="#000000" stroke="none" font-family="Arial" font-size="13px" font-style="normal" font-weight="normal" text-decoration="undefined" x="196" y="266.5" text-anchor="middle" dominant-baseline="central" transform="matrix(1 0 0 1 -126 -190)">[Container]</text></g></g><g><g><path fill="none" stroke="none"/></g></g><g><path fill="#C0C0C0" stroke="none" paint-order="stroke fill markers" d=" M 591 41 L 699 41 Q 705 41 705 47 L 705 99 Q 705 105 699 105 L 591 105 Q 585 105 585 99 L 585 47 Q 585 41 591 41 Z" fill-opacity="0.2"/></g><g><path fill="#a3e0ff" stroke="none" paint-order="stroke fill markers" d=" M 584 34 L 692 34 Q 698 34 698 40 L 698 92 Q 698 98 692 98 L 584 98 Q 578 98 578 92 L 578 40 Q 578 34 584 34 Z"/></g><g><path fill="none" stroke="#000000" paint-order="fill stroke markers" d=" M 584 34 L 692 34 Q 698 34 698 40 L 698 92 Q 698 98 692 98 L 584 98 Q 578 98 578 92 L 578 40 Q 578 34 584 34 Z" stroke-miterlimit="10" stroke-dasharray=""/></g><g><g><path fill="none" stroke="none"/><text fill="#000000" stroke="none" font-family="Arial" font-size="13px" font-style="normal" font-weight="bold" text-decoration="undefined" x="764" y="238.5" text-anchor="middle" dominant-baseline="central" transform="matrix(1 0 0 1 -126 -190)">Gin</text></g></g><g><g><path fill="none" stroke="none"/><text fill="#000000" stroke="none" font-family="Arial" font-size="13px" font-style="normal" font-weight="normal" text-decoration="undefined" x="764" y="253.5" text-anchor="middle" dominant-baseline="central" transform="matrix(1 0 0 1 -126 -190)">[Container]</text></g></g><g><g><path fill="none" stroke="none"/></g></g><g><path fill="#C0C0C0" stroke="none" paint-order="stroke fill markers" d=" M 415 41 L 519.46630859375 41 Q 525.46630859375 41 525.46630859375 47 L 525.46630859375 97 Q 525.46630859375 103 519.46630859375 103 L 415 103 Q 409 103 409 97 L 409 47 Q 409 41 415 41 Z" fill-opacity="0.2"/></g><g><path fill="#a3e0ff" stroke="none" paint-order="stroke fill markers" d=" M 408 34 L 512.46630859375 34 Q 518.46630859375 34 518.46630859375 40 L 518.46630859375 90 Q 518.46630859375 96 512.46630859375 96 L 408 96 Q 402 96 402 90 L 402 40 Q 402 34 408 34 Z"/></g><g><path fill="none" stroke="#000000" paint-order="fill stroke markers" d=" M 408 34 L 512.46630859375 34 Q 518.46630859375 34 518.46630859375 40 L 518.46630859375 90 Q 518.46630859375 96 512.46630859375 96 L 408 96 Q 402 96 402 90 L 402 40 Q 402 34 408 34 Z" stroke-miterlimit="10" stroke-dasharray=""/></g><g><g><path fill="none" stroke="none"/><text fill="#000000" stroke="none" font-family="Arial" font-size="13px" font-style="normal" font-weight="bold" text-decoration="undefined" x="586.233154296875" y="238.5" text-anchor="middle" dominant-baseline="central" transform="matrix(1 0 0 1 -126 -190)">DataConsumer</text></g></g><g><g><path fill="none" stroke="none"/><text fill="#000000" stroke="none" font-family="Arial" font-size="13px" font-style="normal" font-weight="normal" text-decoration="undefined" x="586.233154296875" y="253.5" text-anchor="middle" dominant-baseline="central" transform="matrix(1 0 0 1 -126 -190)">[Container]</text></g></g><g><g><path fill="none" stroke="none"/></g></g><g><path fill="none" stroke="#000000" paint-order="fill stroke markers" d=" M 460 97 L 460 193" stroke-miterlimit="10" stroke-dasharray="3"/></g><g><path fill="#000000" stroke="none" paint-order="stroke fill markers" d=" M 455.790482243984 182.83732514237585 L 460 193 L 464.209517756016 182.83732514237585"/></g><g><path fill="none" stroke="#000000" paint-order="fill stroke markers" d=" M 455.790482243984 182.83732514237585 L 460 193 L 464.209517756016 182.83732514237585 L 455.790482243984 182.83732514237585" stroke-miterlimit="10" stroke-dasharray=""/></g><g><path fill="none" stroke="#000000" paint-order="fill stroke markers" d=" M 499 193 L 602 99" stroke-miterlimit="10" stroke-dasharray="3"/></g><g><path fill="#000000" stroke="none" paint-order="stroke fill markers" d=" M 597.3310674351425 108.95997332851914 L 602 99 L 591.6558014414535 102.74133080351953"/></g><g><path fill="none" stroke="#000000" paint-order="fill stroke markers" d=" M 597.3310674351425 108.95997332851914 L 602 99 L 591.6558014414535 102.74133080351953 L 597.3310674351425 108.95997332851914" stroke-miterlimit="10" stroke-dasharray=""/></g><g><path fill="none" stroke="#000000" paint-order="fill stroke markers" d=" M 225 230 L 120 231" stroke-miterlimit="10" stroke-dasharray="3"/></g><g><path fill="#000000" stroke="none" paint-order="stroke fill markers" d=" M 130.12212516944197 226.6938901483881 L 120 231 L 130.20230282394044 235.1125438707225"/></g><g><path fill="none" stroke="#000000" paint-order="fill stroke markers" d=" M 130.12212516944197 226.6938901483881 L 120 231 L 130.20230282394044 235.1125438707225 L 130.12212516944197 226.6938901483881" stroke-miterlimit="10" stroke-dasharray=""/></g><g><path fill="none" stroke="#000000" paint-order="fill stroke markers" d=" M 602 99 L 499 193" stroke-miterlimit="10" stroke-dasharray="3"/></g><g><path fill="#000000" stroke="none" paint-order="stroke fill markers" d=" M 503.6689325648575 183.04002667148086 L 499 193 L 509.3441985585465 189.25866919648047"/></g><g><path fill="none" stroke="#000000" paint-order="fill stroke markers" d=" M 503.6689325648575 183.04002667148086 L 499 193 L 509.3441985585465 189.25866919648047 L 503.6689325648575 183.04002667148086" stroke-miterlimit="10" stroke-dasharray=""/></g><g><path fill="none" stroke="#000000" paint-order="fill stroke markers" d=" M 638 99 L 638 185" stroke-miterlimit="10" stroke-dasharray="3"/></g><g><path fill="#000000" stroke="none" paint-order="stroke fill markers" d=" M 633.790482243984 174.83732514237585 L 638 185 L 642.209517756016 174.83732514237585"/></g><g><path fill="none" stroke="#000000" paint-order="fill stroke markers" d=" M 633.790482243984 174.83732514237585 L 638 185 L 642.209517756016 174.83732514237585 L 633.790482243984 174.83732514237585" stroke-miterlimit="10" stroke-dasharray=""/></g><g><path fill="none" stroke="#000000" paint-order="fill stroke markers" d=" M 638 185 L 638 99" stroke-miterlimit="10" stroke-dasharray="3"/></g><g><path fill="#000000" stroke="none" paint-order="stroke fill markers" d=" M 642.209517756016 109.16267485762415 L 638 99 L 633.790482243984 109.16267485762415"/></g><g><path fill="none" stroke="#000000" paint-order="fill stroke markers" d=" M 642.209517756016 109.16267485762415 L 638 99 L 633.790482243984 109.16267485762415 L 642.209517756016 109.16267485762415" stroke-miterlimit="10" stroke-dasharray=""/></g><g><path fill="#C0C0C0" stroke="none" paint-order="stroke fill markers" d=" M 231 41 L 339 41 Q 345 41 345 47 L 345 102 Q 345 108 339 108 L 231 108 Q 225 108 225 102 L 225 47 Q 225 41 231 41 Z" fill-opacity="0.2"/></g><g><path fill="#a3e0ff" stroke="none" paint-order="stroke fill markers" d=" M 224 34 L 332 34 Q 338 34 338 40 L 338 95 Q 338 101 332 101 L 224 101 Q 218 101 218 95 L 218 40 Q 218 34 224 34 Z"/></g><g><path fill="none" stroke="#000000" paint-order="fill stroke markers" d=" M 224 34 L 332 34 Q 338 34 338 40 L 338 95 Q 338 101 332 101 L 224 101 Q 218 101 218 95 L 218 40 Q 218 34 224 34 Z" stroke-miterlimit="10" stroke-dasharray=""/></g><g><g><path fill="none" stroke="none"/><text fill="#000000" stroke="none" font-family="Arial" font-size="13px" font-style="normal" font-weight="bold" text-decoration="undefined" x="404" y="238.5" text-anchor="middle" dominant-baseline="central" transform="matrix(1 0 0 1 -126 -190)">NATS Jetstream</text></g></g><g><g><path fill="none" stroke="none"/><text fill="#000000" stroke="none" font-family="Arial" font-size="13px" font-style="normal" font-weight="normal" text-decoration="undefined" x="404" y="253.5" text-anchor="middle" dominant-baseline="central" transform="matrix(1 0 0 1 -126 -190)">[Container]</text></g></g><g><g><path fill="none" stroke="none"/></g></g><g><path fill="none" stroke="#000000" paint-order="fill stroke markers" d=" M 131 67 L 217 67" stroke-miterlimit="10" stroke-dasharray="3"/></g><g><path fill="#000000" stroke="none" paint-order="stroke fill markers" d=" M 206.83732514237585 71.209517756016 L 217 67 L 206.83732514237585 62.790482243984"/></g><g><path fill="none" stroke="#000000" paint-order="fill stroke markers" d=" M 206.83732514237585 71.209517756016 L 217 67 L 206.83732514237585 62.790482243984 L 206.83732514237585 71.209517756016" stroke-miterlimit="10" stroke-dasharray=""/></g><g><path fill="none" stroke="#000000" paint-order="fill stroke markers" d=" M 339 66 L 401 66" stroke-miterlimit="10" stroke-dasharray="3"/></g><g><path fill="#000000" stroke="none" paint-order="stroke fill markers" d=" M 390.8373251423759 70.209517756016 L 401 66 L 390.8373251423758 61.790482243984"/></g><g><path fill="none" stroke="#000000" paint-order="fill stroke markers" d=" M 390.8373251423759 70.209517756016 L 401 66 L 390.8373251423758 61.790482243984 L 390.8373251423759 70.209517756016" stroke-miterlimit="10" stroke-dasharray=""/></g><g><path fill="none" stroke="#000000" paint-order="fill stroke markers" d=" M 278 101 L 278 194" stroke-miterlimit="10" stroke-dasharray="3"/></g><g><path fill="#000000" stroke="none" paint-order="stroke fill markers" d=" M 273.790482243984 183.83732514237585 L 278 194 L 282.209517756016 183.83732514237585"/></g><g><path fill="none" stroke="#000000" paint-order="fill stroke markers" d=" M 273.790482243984 183.83732514237585 L 278 194 L 282.209517756016 183.83732514237585 L 273.790482243984 183.83732514237585" stroke-miterlimit="10" stroke-dasharray=""/></g><g><path fill="none" stroke="#000000" paint-order="fill stroke markers" d=" M 314 33 Q 338 10 458 10 Q 578 10 603 33" stroke-miterlimit="10" stroke-dasharray="3"/></g><g><path fill="#000000" stroke="none" paint-order="stroke fill markers" d=" M 592.670890921505 29.217209278250607 L 603 33 L 598.3710538981393 23.02137995582214"/></g><g><path fill="none" stroke="#000000" paint-order="fill stroke markers" d=" M 592.670890921505 29.217209278250607 L 603 33 L 598.3710538981393 23.02137995582214 L 592.670890921505 29.217209278250607" stroke-miterlimit="10" stroke-dasharray=""/></g></g></svg>