<svg version="1.1" xmlns="http://www.w3.org/2000/svg" xmlns:xlink="http://www.w3.org/1999/xlink" width="1007.2490234375" height="452"><defs/><g><g><rect fill="#C0C0C0" stroke="none" x="367" y="399" width="696" height="432" transform="matrix(1 0 0 1 -174 -382)" fill-opacity="0.2"/></g><g><rect fill="#ffffff" stroke="none" x="360" y="392" width="696" height="432" transform="matrix(1 0 0 1 -174 -382)"/></g><g><path fill="none" stroke="#000000" paint-order="fill stroke markers" d=" M 186 10 L 882 10 L 882 442 L 186 442 L 186 10 Z Z" stroke-miterlimit="10" stroke-dasharray=""/></g><g><g><path fill="none" stroke="none"/><text fill="#000000" stroke="none" font-family="Arial" font-size="13px" font-style="normal" font-weight="bold" text-decoration="undefined" x="708.5" y="405.5" text-anchor="middle" dominant-baseline="central" transform="matrix(1 0 0 1 -174 -382)">Sistema cloud</text></g></g><g><path fill="#ffffff" stroke="none" paint-order="stroke fill markers" d=" M 76.577724609375 203.85000000000002 C 76.577724609375 198.96227952000004 80.53552697737501 195 85.417724609375 195 C 90.29992224137499 195 94.25772460937497 198.96227952000004 94.25772460937497 203.85000000000002 C 94.25772460937497 208.73772048 90.29992224137499 212.70000000000005 85.417724609375 212.70000000000005 C 80.53552697737501 212.70000000000005 76.577724609375 208.73772048 76.577724609375 203.85000000000002 Z"/></g><g><path fill="none" stroke="#000000" paint-order="fill stroke markers" d=" M 76.577724609375 203.85000000000002 C 76.577724609375 198.96227952000004 80.53552697737501 195 85.417724609375 195 C 90.29992224137499 195 94.25772460937497 198.96227952000004 94.25772460937497 203.85000000000002 C 94.25772460937497 208.73772048 90.29992224137499 212.70000000000005 85.417724609375 212.70000000000005 C 80.53552697737501 212.70000000000005 76.577724609375 208.73772048 76.577724609375 203.85000000000002 Z" stroke-miterlimit="10" stroke-dasharray=""/></g><g><path fill="none" stroke="#000000" paint-order="fill stroke markers" d=" M 85.417724609375 212.70000000000005 L 85.417724609375 230.29999999999995" stroke-miterlimit="10" stroke-dasharray=""/></g><g><path fill="none" stroke="#000000" paint-order="fill stroke markers" d=" M 76.05772460937499 219.29999999999995 L 94.77772460937501 219.29999999999995" stroke-miterlimit="10" stroke-dasharray=""/></g><g><path fill="none" stroke="#000000" paint-order="fill stroke markers" d=" M 85.417724609375 230.29999999999995 L 72.417724609375 248" stroke-miterlimit="10" stroke-dasharray=""/></g><g><path fill="none" stroke="#000000" paint-order="fill stroke markers" d=" M 85.417724609375 230.29999999999995 L 98.417724609375 248" stroke-miterlimit="10" stroke-dasharray=""/></g><g><g><path fill="none" stroke="none"/><text fill="#000000" stroke="none" font-family="Arial" font-size="13px" font-style="normal" font-weight="bold" text-decoration="undefined" x="259.917724609375" y="644.5" text-anchor="middle" dominant-baseline="central" transform="matrix(1 0 0 1 -174 -382)">Utente non autenticato</text></g></g><g><path fill="#C0C0C0" stroke="none" paint-order="stroke fill markers" d=" M 272 240.5 C 272 225.86445279999998 316.9953776 214 372.5 214 C 428.0046224 214 473 225.86445279999998 473 240.5 C 473 255.13554720000002 428.0046224 267 372.5 267 C 316.9953776 267 272 255.13554720000002 272 240.5 Z" fill-opacity="0.2"/></g><g><path fill="#ffffff" stroke="none" paint-order="stroke fill markers" d=" M 265 233.5 C 265 218.86445279999998 309.9953776 207 365.5 207 C 421.0046224 207 466 218.86445279999998 466 233.5 C 466 248.13554720000002 421.0046224 260 365.5 260 C 309.9953776 260 265 248.13554720000002 265 233.5 Z"/></g><g><path fill="none" stroke="#000000" paint-order="fill stroke markers" d=" M 265 233.5 C 265 218.86445279999998 309.9953776 207 365.5 207 C 421.0046224 207 466 218.86445279999998 466 233.5 C 466 248.13554720000002 421.0046224 260 365.5 260 C 309.9953776 260 265 248.13554720000002 265 233.5 Z" stroke-miterlimit="10" stroke-dasharray=""/></g><g><g><path fill="none" stroke="none"/><text fill="#000000" stroke="none" font-family="Arial" font-size="13px" font-style="normal" font-weight="bold" text-decoration="undefined" x="539.5" y="610" text-anchor="middle" dominant-baseline="central" transform="matrix(1 0 0 1 -174 -382)">UC1 - Autenticazione</text><text fill="#000000" stroke="none" font-family="Arial" font-size="13px" font-style="normal" font-weight="bold" text-decoration="undefined" x="539.5" y="623" text-anchor="middle" dominant-baseline="central" transform="matrix(1 0 0 1 -174 -382)">utente</text></g></g><g><path fill="#C0C0C0" stroke="none" paint-order="stroke fill markers" d=" M 361 98 C 361 78.1177472 393.2354944 62 433 62 C 472.7645056 62 505 78.1177472 505 98 C 505 117.8822528 472.7645056 134 433 134 C 393.2354944 134 361 117.8822528 361 98 Z" fill-opacity="0.2"/></g><g><path fill="#ffffff" stroke="none" paint-order="stroke fill markers" d=" M 354 91 C 354 71.1177472 386.2354944 55 426 55 C 465.7645056 55 498 71.1177472 498 91 C 498 110.8822528 465.7645056 127 426 127 C 386.2354944 127 354 110.8822528 354 91 Z"/></g><g><path fill="none" stroke="#000000" paint-order="fill stroke markers" d=" M 354 91 C 354 71.1177472 386.2354944 55 426 55 C 465.7645056 55 498 71.1177472 498 91 C 498 110.8822528 465.7645056 127 426 127 C 386.2354944 127 354 110.8822528 354 91 Z" stroke-miterlimit="10" stroke-dasharray=""/></g><g><g><path fill="none" stroke="none"/><text fill="#000000" stroke="none" font-family="Arial" font-size="13px" font-style="normal" font-weight="bold" text-decoration="undefined" x="600" y="461" text-anchor="middle" dominant-baseline="central" transform="matrix(1 0 0 1 -174 -382)">UC2 -</text><text fill="#000000" stroke="none" font-family="Arial" font-size="13px" font-style="normal" font-weight="bold" text-decoration="undefined" x="600" y="474" text-anchor="middle" dominant-baseline="central" transform="matrix(1 0 0 1 -174 -382)">Autenticazione</text><text fill="#000000" stroke="none" font-family="Arial" font-size="13px" font-style="normal" font-weight="bold" text-decoration="undefined" x="600" y="487" text-anchor="middle" dominant-baseline="central" transform="matrix(1 0 0 1 -174 -382)">non riuscita</text></g></g><g><path fill="#C0C0C0" stroke="none" paint-order="stroke fill markers" d=" M 680 136.5 C 680 121.86445279999998 717.8319344 110 764.5 110 C 811.1680656 110 849 121.86445279999998 849 136.5 C 849 151.13554720000002 811.1680656 163 764.5 163 C 717.8319344 163 680 151.13554720000002 680 136.5 Z" fill-opacity="0.2"/></g><g><path fill="#ffffff" stroke="none" paint-order="stroke fill markers" d=" M 673 129.5 C 673 114.86445279999998 710.8319344 103 757.5 103 C 804.1680656 103 842 114.86445279999998 842 129.5 C 842 144.13554720000002 804.1680656 156 757.5 156 C 710.8319344 156 673 144.13554720000002 673 129.5 Z"/></g><g><path fill="none" stroke="#000000" paint-order="fill stroke markers" d=" M 673 129.5 C 673 114.86445279999998 710.8319344 103 757.5 103 C 804.1680656 103 842 114.86445279999998 842 129.5 C 842 144.13554720000002 804.1680656 156 757.5 156 C 710.8319344 156 673 144.13554720000002 673 129.5 Z" stroke-miterlimit="10" stroke-dasharray=""/></g><g><g><path fill="none" stroke="none"/><text fill="#000000" stroke="none" font-family="Arial" font-size="13px" font-style="normal" font-weight="bold" text-decoration="undefined" x="931.5" y="506" text-anchor="middle" dominant-baseline="central" transform="matrix(1 0 0 1 -174 -382)">UC3 - Account</text><text fill="#000000" stroke="none" font-family="Arial" font-size="13px" font-style="normal" font-weight="bold" text-decoration="undefined" x="931.5" y="519" text-anchor="middle" dominant-baseline="central" transform="matrix(1 0 0 1 -174 -382)">sospeso</text></g></g><g><path fill="#C0C0C0" stroke="none" paint-order="stroke fill markers" d=" M 728 240.5 C 728 225.86445279999998 762.2502128 214 804.5 214 C 846.7497872 214 881 225.86445279999998 881 240.5 C 881 255.13554720000002 846.7497872 267 804.5 267 C 762.2502128 267 728 255.13554720000002 728 240.5 Z" fill-opacity="0.2"/></g><g><path fill="#ffffff" stroke="none" paint-order="stroke fill markers" d=" M 721 233.5 C 721 218.86445279999998 755.2502128 207 797.5 207 C 839.7497872 207 874 218.86445279999998 874 233.5 C 874 248.13554720000002 839.7497872 260 797.5 260 C 755.2502128 260 721 248.13554720000002 721 233.5 Z"/></g><g><path fill="none" stroke="#000000" paint-order="fill stroke markers" d=" M 721 233.5 C 721 218.86445279999998 755.2502128 207 797.5 207 C 839.7497872 207 874 218.86445279999998 874 233.5 C 874 248.13554720000002 839.7497872 260 797.5 260 C 755.2502128 260 721 248.13554720000002 721 233.5 Z" stroke-miterlimit="10" stroke-dasharray=""/></g><g><g><path fill="none" stroke="none"/><text fill="#000000" stroke="none" font-family="Arial" font-size="13px" font-style="normal" font-weight="bold" text-decoration="undefined" x="971.5" y="610" text-anchor="middle" dominant-baseline="central" transform="matrix(1 0 0 1 -174 -382)">UC4 - Invio</text><text fill="#000000" stroke="none" font-family="Arial" font-size="13px" font-style="normal" font-weight="bold" text-decoration="undefined" x="971.5" y="623" text-anchor="middle" dominant-baseline="central" transform="matrix(1 0 0 1 -174 -382)">codice 2FA</text></g></g><g><path fill="#C0C0C0" stroke="none" paint-order="stroke fill markers" d=" M 241 395 C 241 370.14718400000004 278.3842192 350 324.5 350 C 370.61578080000004 350 408 370.14718400000004 408 395 C 408 419.85281599999996 370.61578080000004 440 324.5 440 C 278.3842192 440 241 419.85281599999996 241 395 Z" fill-opacity="0.2"/></g><g><path fill="#ffffff" stroke="none" paint-order="stroke fill markers" d=" M 234 388 C 234 363.14718400000004 271.3842192 343 317.5 343 C 363.61578080000004 343 401 363.14718400000004 401 388 C 401 412.85281599999996 363.61578080000004 433 317.5 433 C 271.3842192 433 234 412.85281599999996 234 388 Z"/></g><g><path fill="none" stroke="#000000" paint-order="fill stroke markers" d=" M 234 388 C 234 363.14718400000004 271.3842192 343 317.5 343 C 363.61578080000004 343 401 363.14718400000004 401 388 C 401 412.85281599999996 363.61578080000004 433 317.5 433 C 271.3842192 433 234 412.85281599999996 234 388 Z" stroke-miterlimit="10" stroke-dasharray=""/></g><g><g><path fill="none" stroke="none"/><text fill="#000000" stroke="none" font-family="Arial" font-size="13px" font-style="normal" font-weight="bold" text-decoration="undefined" x="491.5" y="751.5" text-anchor="middle" dominant-baseline="central" transform="matrix(1 0 0 1 -174 -382)">UC1.1 -</text><text fill="#000000" stroke="none" font-family="Arial" font-size="13px" font-style="normal" font-weight="bold" text-decoration="undefined" x="491.5" y="764.5" text-anchor="middle" dominant-baseline="central" transform="matrix(1 0 0 1 -174 -382)">Inserimento</text><text fill="#000000" stroke="none" font-family="Arial" font-size="13px" font-style="normal" font-weight="bold" text-decoration="undefined" x="491.5" y="777.5" text-anchor="middle" dominant-baseline="central" transform="matrix(1 0 0 1 -174 -382)">email</text><text fill="#000000" stroke="none" font-family="Arial" font-size="13px" font-style="normal" font-weight="bold" text-decoration="undefined" x="491.5" y="790.5" text-anchor="middle" dominant-baseline="central" transform="matrix(1 0 0 1 -174 -382)">autenticazione</text></g></g><g><path fill="#C0C0C0" stroke="none" paint-order="stroke fill markers" d=" M 432 376.5 C 432 361.8644528 482.14410239999995 350 544 350 C 605.8558976 350 656 361.8644528 656 376.5 C 656 391.1355472 605.8558976 403 544 403 C 482.14410239999995 403 432 391.1355472 432 376.5 Z" fill-opacity="0.2"/></g><g><path fill="#ffffff" stroke="none" paint-order="stroke fill markers" d=" M 425 369.5 C 425 354.8644528 475.14410239999995 343 537 343 C 598.8558976 343 649 354.8644528 649 369.5 C 649 384.1355472 598.8558976 396 537 396 C 475.14410239999995 396 425 384.1355472 425 369.5 Z"/></g><g><path fill="none" stroke="#000000" paint-order="fill stroke markers" d=" M 425 369.5 C 425 354.8644528 475.14410239999995 343 537 343 C 598.8558976 343 649 354.8644528 649 369.5 C 649 384.1355472 598.8558976 396 537 396 C 475.14410239999995 396 425 384.1355472 425 369.5 Z" stroke-miterlimit="10" stroke-dasharray=""/></g><g><g><path fill="none" stroke="none"/><text fill="#000000" stroke="none" font-family="Arial" font-size="13px" font-style="normal" font-weight="bold" text-decoration="undefined" x="711" y="746" text-anchor="middle" dominant-baseline="central" transform="matrix(1 0 0 1 -174 -382)">UC1.2 - Inserimento</text><text fill="#000000" stroke="none" font-family="Arial" font-size="13px" font-style="normal" font-weight="bold" text-decoration="undefined" x="711" y="759" text-anchor="middle" dominant-baseline="central" transform="matrix(1 0 0 1 -174 -382)">password</text></g></g><g><path fill="none" stroke="#000000" paint-order="fill stroke markers" d=" M 410 128 L 377 206" stroke-miterlimit="10" stroke-dasharray="3"/></g><g><path fill="none" stroke="#000000" paint-order="fill stroke markers" d=" M 377.0829565423187 195.00031281298936 L 377 206 L 384.8366125344834 198.28070573275136" stroke-miterlimit="10" stroke-dasharray=""/></g><g><rect fill="#ffffff" stroke="none" x="568" y="554" width="53.49169921875" height="13" transform="matrix(1 0 0 1 -174 -382)"/></g><g><g><path fill="none" stroke="none"/><text fill="#000000" stroke="none" font-family="Arial" font-size="13px" font-style="normal" font-weight="normal" text-decoration="undefined" x="594.745849609375" y="560.5" text-anchor="middle" dominant-baseline="central" transform="matrix(1 0 0 1 -174 -382)">«extend»</text></g></g><g><path fill="none" stroke="#000000" paint-order="fill stroke markers" d=" M 672 152 L 467 206" stroke-miterlimit="10" stroke-dasharray="3"/></g><g><path fill="none" stroke="#000000" paint-order="fill stroke markers" d=" M 475.7551713914587 199.34064763612992 L 467 206 L 477.8997142761542 207.48196784654772" stroke-miterlimit="10" stroke-dasharray=""/></g><g><rect fill="#ffffff" stroke="none" x="778" y="554" width="53.49169921875" height="13" transform="matrix(1 0 0 1 -174 -382)"/></g><g><g><path fill="none" stroke="none"/><text fill="#000000" stroke="none" font-family="Arial" font-size="13px" font-style="normal" font-weight="normal" text-decoration="undefined" x="804.745849609375" y="560.5" text-anchor="middle" dominant-baseline="central" transform="matrix(1 0 0 1 -174 -382)">«extend»</text></g></g><g><path fill="none" stroke="#000000" paint-order="fill stroke markers" d=" M 720 233 L 467 233" stroke-miterlimit="10" stroke-dasharray="3"/></g><g><path fill="none" stroke="#000000" paint-order="fill stroke markers" d=" M 477.1626748576241 228.790482243984 L 467 233 L 477.1626748576241 237.209517756016" stroke-miterlimit="10" stroke-dasharray=""/></g><g><rect fill="#ffffff" stroke="none" x="730" y="622" width="53.49169921875" height="13" transform="matrix(1 0 0 1 -174 -382)"/></g><g><g><path fill="none" stroke="none"/><text fill="#000000" stroke="none" font-family="Arial" font-size="13px" font-style="normal" font-weight="normal" text-decoration="undefined" x="756.745849609375" y="628.5" text-anchor="middle" dominant-baseline="central" transform="matrix(1 0 0 1 -174 -382)">«extend»</text></g></g><g><path fill="none" stroke="#000000" paint-order="fill stroke markers" d=" M 356 261 L 331 342" stroke-miterlimit="10" stroke-dasharray="3"/></g><g><path fill="none" stroke="#000000" paint-order="fill stroke markers" d=" M 329.9748285715026 331.04787584337214 L 331 342 L 338.01941559057934 333.53077307148226" stroke-miterlimit="10" stroke-dasharray=""/></g><g><rect fill="#ffffff" stroke="none" x="518" y="685" width="55.65625" height="13" transform="matrix(1 0 0 1 -174 -382)"/></g><g><g><path fill="none" stroke="none"/><text fill="#000000" stroke="none" font-family="Arial" font-size="13px" font-style="normal" font-weight="normal" text-decoration="undefined" x="545.828125" y="691.5" text-anchor="middle" dominant-baseline="central" transform="matrix(1 0 0 1 -174 -382)">«include»</text></g></g><g><path fill="none" stroke="#000000" paint-order="fill stroke markers" d=" M 400 261 L 503 342" stroke-miterlimit="10" stroke-dasharray="3"/></g><g><path fill="none" stroke="#000000" paint-order="fill stroke markers" d=" M 492.40944504909237 339.0267617263652 L 503 342 L 497.6137437230551 332.40894983231397" stroke-miterlimit="10" stroke-dasharray=""/></g><g><rect fill="#ffffff" stroke="none" x="585" y="681" width="55.65625" height="13" transform="matrix(1 0 0 1 -174 -382)"/></g><g><g><path fill="none" stroke="none"/><text fill="#000000" stroke="none" font-family="Arial" font-size="13px" font-style="normal" font-weight="normal" text-decoration="undefined" x="612.828125" y="687.5" text-anchor="middle" dominant-baseline="central" transform="matrix(1 0 0 1 -174 -382)">«include»</text></g></g><g><path fill="none" stroke="#000000" paint-order="fill stroke markers" d=" M 264 233 L 162 234" stroke-miterlimit="10" stroke-dasharray=""/></g><g><path fill="#ffffff" stroke="none" paint-order="stroke fill markers" d=" M 210 122 L 335 122 L 345 132 L 345 185 L 210 185 L 210 122"/></g><g><path fill="none" stroke="#000000" paint-order="fill stroke markers" d=" M 210 122 L 335 122 L 345 132 L 345 185 L 210 185 L 210 122 L 210 122" stroke-miterlimit="10" stroke-dasharray=""/></g><g><path fill="none" stroke="#000000" paint-order="fill stroke markers" d=" M 335 122 L 335 132 L 345 132 L 335 122" stroke-miterlimit="10" stroke-dasharray=""/></g><g><g><path fill="none" stroke="none"/><text fill="#000000" stroke="none" font-family="Arial" font-size="13px" font-style="normal" font-weight="normal" text-decoration="undefined" x="452" y="515" text-anchor="middle" dominant-baseline="text-before-edge" transform="matrix(1 0 0 1 -174 -382)">Condizione:</text></g></g><g><g><path fill="none" stroke="none"/><text fill="#000000" stroke="none" font-family="Arial" font-size="13px" font-style="normal" font-weight="normal" text-decoration="undefined" x="452" y="530" text-anchor="middle" dominant-baseline="text-before-edge" transform="matrix(1 0 0 1 -174 -382)">L'utente ha inserito</text><text fill="#000000" stroke="none" font-family="Arial" font-size="13px" font-style="normal" font-weight="normal" text-decoration="undefined" x="452" y="543" text-anchor="middle" dominant-baseline="text-before-edge" transform="matrix(1 0 0 1 -174 -382)">credenziali errate</text></g></g><g><path fill="none" stroke="#000000" paint-order="fill stroke markers" d=" M 347 162 L 393 167" stroke-miterlimit="10" stroke-dasharray="3"/></g><g><path fill="#ffffff" stroke="none" paint-order="stroke fill markers" d=" M 521 63 L 646 63 L 656 73 L 656 141 L 521 141 L 521 63"/></g><g><path fill="none" stroke="#000000" paint-order="fill stroke markers" d=" M 521 63 L 646 63 L 656 73 L 656 141 L 521 141 L 521 63 L 521 63" stroke-miterlimit="10" stroke-dasharray=""/></g><g><path fill="none" stroke="#000000" paint-order="fill stroke markers" d=" M 646 63 L 646 73 L 656 73 L 646 63" stroke-miterlimit="10" stroke-dasharray=""/></g><g><g><path fill="none" stroke="none"/><text fill="#000000" stroke="none" font-family="Arial" font-size="13px" font-style="normal" font-weight="normal" text-decoration="undefined" x="763" y="450" text-anchor="middle" dominant-baseline="text-before-edge" transform="matrix(1 0 0 1 -174 -382)">Condizione:</text></g></g><g><g><path fill="none" stroke="none"/><text fill="#000000" stroke="none" font-family="Arial" font-size="13px" font-style="normal" font-weight="normal" text-decoration="undefined" x="763" y="465" text-anchor="middle" dominant-baseline="text-before-edge" transform="matrix(1 0 0 1 -174 -382)">L'utente ha inserito</text><text fill="#000000" stroke="none" font-family="Arial" font-size="13px" font-style="normal" font-weight="normal" text-decoration="undefined" x="763" y="478" text-anchor="middle" dominant-baseline="text-before-edge" transform="matrix(1 0 0 1 -174 -382)">delle credenziali</text><text fill="#000000" stroke="none" font-family="Arial" font-size="13px" font-style="normal" font-weight="normal" text-decoration="undefined" x="763" y="491" text-anchor="middle" dominant-baseline="text-before-edge" transform="matrix(1 0 0 1 -174 -382)">valide associate ad</text><text fill="#000000" stroke="none" font-family="Arial" font-size="13px" font-style="normal" font-weight="normal" text-decoration="undefined" x="763" y="504" text-anchor="middle" dominant-baseline="text-before-edge" transform="matrix(1 0 0 1 -174 -382)">un account sospeso</text></g></g><g><path fill="none" stroke="#000000" paint-order="fill stroke markers" d=" M 578 143 L 569 179" stroke-miterlimit="10" stroke-dasharray="3"/></g><g><path fill="#ffffff" stroke="none" paint-order="stroke fill markers" d=" M 681 279 L 806 279 L 816 289 L 816 370 L 681 370 L 681 279"/></g><g><path fill="none" stroke="#000000" paint-order="fill stroke markers" d=" M 681 279 L 806 279 L 816 289 L 816 370 L 681 370 L 681 279 L 681 279" stroke-miterlimit="10" stroke-dasharray=""/></g><g><path fill="none" stroke="#000000" paint-order="fill stroke markers" d=" M 806 279 L 806 289 L 816 289 L 806 279" stroke-miterlimit="10" stroke-dasharray=""/></g><g><g><path fill="none" stroke="none"/><text fill="#000000" stroke="none" font-family="Arial" font-size="13px" font-style="normal" font-weight="normal" text-decoration="undefined" x="923" y="666" text-anchor="middle" dominant-baseline="text-before-edge" transform="matrix(1 0 0 1 -174 -382)">Condizione:</text></g></g><g><g><path fill="none" stroke="none"/><text fill="#000000" stroke="none" font-family="Arial" font-size="13px" font-style="normal" font-weight="normal" text-decoration="undefined" x="923" y="681" text-anchor="middle" dominant-baseline="text-before-edge" transform="matrix(1 0 0 1 -174 -382)">L'utente ha inserito</text><text fill="#000000" stroke="none" font-family="Arial" font-size="13px" font-style="normal" font-weight="normal" text-decoration="undefined" x="923" y="694" text-anchor="middle" dominant-baseline="text-before-edge" transform="matrix(1 0 0 1 -174 -382)">delle credenziali</text><text fill="#000000" stroke="none" font-family="Arial" font-size="13px" font-style="normal" font-weight="normal" text-decoration="undefined" x="923" y="707" text-anchor="middle" dominant-baseline="text-before-edge" transform="matrix(1 0 0 1 -174 -382)">valide associate ad</text><text fill="#000000" stroke="none" font-family="Arial" font-size="13px" font-style="normal" font-weight="normal" text-decoration="undefined" x="923" y="720" text-anchor="middle" dominant-baseline="text-before-edge" transform="matrix(1 0 0 1 -174 -382)">un account con 2FA</text><text fill="#000000" stroke="none" font-family="Arial" font-size="13px" font-style="normal" font-weight="normal" text-decoration="undefined" x="923" y="733" text-anchor="middle" dominant-baseline="text-before-edge" transform="matrix(1 0 0 1 -174 -382)">attiva</text></g></g><g><path fill="none" stroke="#000000" paint-order="fill stroke markers" d=" M 680 284 L 593 233" stroke-miterlimit="10" stroke-dasharray="3"/></g><g><path fill="#ffffff" stroke="none" paint-order="stroke fill markers" d=" M 946.2845117187501 203.85000000000002 C 946.2845117187501 198.96227952000004 950.24231408675 195 955.12451171875 195 C 960.00670935075 195 963.9645117187499 198.96227952000004 963.9645117187499 203.85000000000002 C 963.9645117187499 208.73772048 960.00670935075 212.70000000000005 955.12451171875 212.70000000000005 C 950.24231408675 212.70000000000005 946.2845117187501 208.73772048 946.2845117187501 203.85000000000002 Z"/></g><g><path fill="none" stroke="#000000" paint-order="fill stroke markers" d=" M 946.2845117187501 203.85000000000002 C 946.2845117187501 198.96227952000004 950.24231408675 195 955.12451171875 195 C 960.00670935075 195 963.9645117187499 198.96227952000004 963.9645117187499 203.85000000000002 C 963.9645117187499 208.73772048 960.00670935075 212.70000000000005 955.12451171875 212.70000000000005 C 950.24231408675 212.70000000000005 946.2845117187501 208.73772048 946.2845117187501 203.85000000000002 Z" stroke-miterlimit="10" stroke-dasharray=""/></g><g><path fill="none" stroke="#000000" paint-order="fill stroke markers" d=" M 955.12451171875 212.70000000000005 L 955.12451171875 230.29999999999995" stroke-miterlimit="10" stroke-dasharray=""/></g><g><path fill="none" stroke="#000000" paint-order="fill stroke markers" d=" M 945.7645117187501 219.29999999999995 L 964.4845117187499 219.29999999999995" stroke-miterlimit="10" stroke-dasharray=""/></g><g><path fill="none" stroke="#000000" paint-order="fill stroke markers" d=" M 955.12451171875 230.29999999999995 L 942.12451171875 248" stroke-miterlimit="10" stroke-dasharray=""/></g><g><path fill="none" stroke="#000000" paint-order="fill stroke markers" d=" M 955.12451171875 230.29999999999995 L 968.12451171875 248" stroke-miterlimit="10" stroke-dasharray=""/></g><g><g><path fill="none" stroke="none"/><text fill="#000000" stroke="none" font-family="Arial" font-size="13px" font-style="normal" font-weight="bold" text-decoration="undefined" x="1129.62451171875" y="644.5" text-anchor="middle" dominant-baseline="central" transform="matrix(1 0 0 1 -174 -382)">Email client</text></g></g><g><path fill="none" stroke="#000000" paint-order="fill stroke markers" d=" M 875 233 L 913 234" stroke-miterlimit="10" stroke-dasharray=""/></g></g></svg>