<svg version="1.1" xmlns="http://www.w3.org/2000/svg" xmlns:xlink="http://www.w3.org/1999/xlink" width="936" height="361"><defs/><g><g><path fill="#ffffff" stroke="none" paint-order="stroke fill markers" d=" M 76.57772460937503 147.85000000000002 C 76.57772460937503 142.96227952000004 80.53552697737501 139 85.417724609375 139 C 90.29992224137499 139 94.25772460937497 142.96227952000004 94.25772460937497 147.85000000000002 C 94.25772460937497 152.73772048 90.29992224137499 156.70000000000005 85.417724609375 156.70000000000005 C 80.53552697737501 156.70000000000005 76.57772460937503 152.73772048 76.57772460937503 147.85000000000002 Z"/></g><g><path fill="none" stroke="#000000" paint-order="fill stroke markers" d=" M 76.57772460937503 147.85000000000002 C 76.57772460937503 142.96227952000004 80.53552697737501 139 85.417724609375 139 C 90.29992224137499 139 94.25772460937497 142.96227952000004 94.25772460937497 147.85000000000002 C 94.25772460937497 152.73772048 90.29992224137499 156.70000000000005 85.417724609375 156.70000000000005 C 80.53552697737501 156.70000000000005 76.57772460937503 152.73772048 76.57772460937503 147.85000000000002 Z" stroke-miterlimit="10" stroke-dasharray=""/></g><g><path fill="none" stroke="#000000" paint-order="fill stroke markers" d=" M 85.417724609375 156.70000000000005 L 85.417724609375 174.29999999999995" stroke-miterlimit="10" stroke-dasharray=""/></g><g><path fill="none" stroke="#000000" paint-order="fill stroke markers" d=" M 76.05772460937499 163.29999999999995 L 94.77772460937501 163.29999999999995" stroke-miterlimit="10" stroke-dasharray=""/></g><g><path fill="none" stroke="#000000" paint-order="fill stroke markers" d=" M 85.417724609375 174.29999999999995 L 72.417724609375 192" stroke-miterlimit="10" stroke-dasharray=""/></g><g><path fill="none" stroke="#000000" paint-order="fill stroke markers" d=" M 85.417724609375 174.29999999999995 L 98.417724609375 192" stroke-miterlimit="10" stroke-dasharray=""/></g><g><g><path fill="none" stroke="none"/><text fill="#000000" stroke="none" font-family="Arial" font-size="13px" font-style="normal" font-weight="bold" text-decoration="undefined" x="266.917724609375" y="633.5" text-anchor="middle" dominant-baseline="central" transform="matrix(1 0 0 1 -181 -427)">Utente non autenticato</text></g></g><g><path fill="#C0C0C0" stroke="none" paint-order="stroke fill markers" d=" M 265 195.5 C 265 180.86445279999998 322.7552608 169 394 169 C 465.2447392 169 523 180.86445279999998 523 195.5 C 523 210.13554720000002 465.2447392 222 394 222 C 322.7552608 222 265 210.13554720000002 265 195.5 Z" fill-opacity="0.2"/></g><g><path fill="#ffffff" stroke="none" paint-order="stroke fill markers" d=" M 258 188.5 C 258 173.86445279999998 315.7552608 162 387 162 C 458.2447392 162 516 173.86445279999998 516 188.5 C 516 203.13554720000002 458.2447392 215 387 215 C 315.7552608 215 258 203.13554720000002 258 188.5 Z"/></g><g><path fill="none" stroke="#000000" paint-order="fill stroke markers" d=" M 258 188.5 C 258 173.86445279999998 315.7552608 162 387 162 C 458.2447392 162 516 173.86445279999998 516 188.5 C 516 203.13554720000002 458.2447392 215 387 215 C 315.7552608 215 258 203.13554720000002 258 188.5 Z" stroke-miterlimit="10" stroke-dasharray=""/></g><g><g><path fill="none" stroke="none"/><text fill="#000000" stroke="none" font-family="Arial" font-size="13px" font-style="normal" font-weight="bold" text-decoration="undefined" x="568" y="610" text-anchor="middle" dominant-baseline="central" transform="matrix(1 0 0 1 -181 -427)">UC1 - Autenticazione</text><text fill="#000000" stroke="none" font-family="Arial" font-size="13px" font-style="normal" font-weight="bold" text-decoration="undefined" x="568" y="623" text-anchor="middle" dominant-baseline="central" transform="matrix(1 0 0 1 -181 -427)">utente</text></g></g><g><path fill="#C0C0C0" stroke="none" paint-order="stroke fill markers" d=" M 281 43.5 C 281 28.86445279999998 329.3532416 17 389 17 C 448.64675839999995 17 497 28.86445279999998 497 43.5 C 497 58.13554720000002 448.64675839999995 70 389 70 C 329.3532416 70 281 58.13554720000002 281 43.5 Z" fill-opacity="0.2"/></g><g><path fill="#ffffff" stroke="none" paint-order="stroke fill markers" d=" M 274 36.5 C 274 21.86445279999998 322.3532416 10 382 10 C 441.64675839999995 10 490 21.86445279999998 490 36.5 C 490 51.13554720000002 441.64675839999995 63 382 63 C 322.3532416 63 274 51.13554720000002 274 36.5 Z"/></g><g><path fill="none" stroke="#000000" paint-order="fill stroke markers" d=" M 274 36.5 C 274 21.86445279999998 322.3532416 10 382 10 C 441.64675839999995 10 490 21.86445279999998 490 36.5 C 490 51.13554720000002 441.64675839999995 63 382 63 C 322.3532416 63 274 51.13554720000002 274 36.5 Z" stroke-miterlimit="10" stroke-dasharray=""/></g><g><g><path fill="none" stroke="none"/><text fill="#000000" stroke="none" font-family="Arial" font-size="13px" font-style="normal" font-weight="bold" text-decoration="undefined" x="563" y="458" text-anchor="middle" dominant-baseline="central" transform="matrix(1 0 0 1 -181 -427)">UC2 - Autenticazione</text><text fill="#000000" stroke="none" font-family="Arial" font-size="13px" font-style="normal" font-weight="bold" text-decoration="undefined" x="563" y="471" text-anchor="middle" dominant-baseline="central" transform="matrix(1 0 0 1 -181 -427)">non riuscita</text></g></g><g><path fill="#C0C0C0" stroke="none" paint-order="stroke fill markers" d=" M 673 91.5 C 673 76.86445279999998 722.2486719999999 65 783 65 C 843.7513280000001 65 893 76.86445279999998 893 91.5 C 893 106.13554720000002 843.7513280000001 118 783 118 C 722.2486719999999 118 673 106.13554720000002 673 91.5 Z" fill-opacity="0.2"/></g><g><path fill="#ffffff" stroke="none" paint-order="stroke fill markers" d=" M 666 84.5 C 666 69.86445279999998 715.2486719999999 58 776 58 C 836.7513280000001 58 886 69.86445279999998 886 84.5 C 886 99.13554720000002 836.7513280000001 111 776 111 C 715.2486719999999 111 666 99.13554720000002 666 84.5 Z"/></g><g><path fill="none" stroke="#000000" paint-order="fill stroke markers" d=" M 666 84.5 C 666 69.86445279999998 715.2486719999999 58 776 58 C 836.7513280000001 58 886 69.86445279999998 886 84.5 C 886 99.13554720000002 836.7513280000001 111 776 111 C 715.2486719999999 111 666 99.13554720000002 666 84.5 Z" stroke-miterlimit="10" stroke-dasharray=""/></g><g><g><path fill="none" stroke="none"/><text fill="#000000" stroke="none" font-family="Arial" font-size="13px" font-style="normal" font-weight="bold" text-decoration="undefined" x="957" y="506" text-anchor="middle" dominant-baseline="central" transform="matrix(1 0 0 1 -181 -427)">UC3 - Account</text><text fill="#000000" stroke="none" font-family="Arial" font-size="13px" font-style="normal" font-weight="bold" text-decoration="undefined" x="957" y="519" text-anchor="middle" dominant-baseline="central" transform="matrix(1 0 0 1 -181 -427)">sospeso</text></g></g><g><path fill="#C0C0C0" stroke="none" paint-order="stroke fill markers" d=" M 721 195.5 C 721 180.86445279999998 768.4578112 169 827 169 C 885.5421888000001 169 933 180.86445279999998 933 195.5 C 933 210.13554720000002 885.5421888000001 222 827 222 C 768.4578112 222 721 210.13554720000002 721 195.5 Z" fill-opacity="0.2"/></g><g><path fill="#ffffff" stroke="none" paint-order="stroke fill markers" d=" M 714 188.5 C 714 173.86445279999998 761.4578112 162 820 162 C 878.5421888000001 162 926 173.86445279999998 926 188.5 C 926 203.13554720000002 878.5421888000001 215 820 215 C 761.4578112 215 714 203.13554720000002 714 188.5 Z"/></g><g><path fill="none" stroke="#000000" paint-order="fill stroke markers" d=" M 714 188.5 C 714 173.86445279999998 761.4578112 162 820 162 C 878.5421888000001 162 926 173.86445279999998 926 188.5 C 926 203.13554720000002 878.5421888000001 215 820 215 C 761.4578112 215 714 203.13554720000002 714 188.5 Z" stroke-miterlimit="10" stroke-dasharray=""/></g><g><g><path fill="none" stroke="none"/><text fill="#000000" stroke="none" font-family="Arial" font-size="13px" font-style="normal" font-weight="bold" text-decoration="undefined" x="1001" y="610" text-anchor="middle" dominant-baseline="central" transform="matrix(1 0 0 1 -181 -427)">UC4 - Invio codice</text><text fill="#000000" stroke="none" font-family="Arial" font-size="13px" font-style="normal" font-weight="bold" text-decoration="undefined" x="1001" y="623" text-anchor="middle" dominant-baseline="central" transform="matrix(1 0 0 1 -181 -427)">2FA</text></g></g><g><path fill="#C0C0C0" stroke="none" paint-order="stroke fill markers" d=" M 97 331.5 C 97 316.8644528 165.05271040000002 305 249 305 C 332.9472896 305 401 316.8644528 401 331.5 C 401 346.1355472 332.9472896 358 249 358 C 165.05271040000002 358 97 346.1355472 97 331.5 Z" fill-opacity="0.2"/></g><g><path fill="#ffffff" stroke="none" paint-order="stroke fill markers" d=" M 90 324.5 C 90 309.8644528 158.05271040000002 298 242 298 C 325.9472896 298 394 309.8644528 394 324.5 C 394 339.1355472 325.9472896 351 242 351 C 158.05271040000002 351 90 339.1355472 90 324.5 Z"/></g><g><path fill="none" stroke="#000000" paint-order="fill stroke markers" d=" M 90 324.5 C 90 309.8644528 158.05271040000002 298 242 298 C 325.9472896 298 394 309.8644528 394 324.5 C 394 339.1355472 325.9472896 351 242 351 C 158.05271040000002 351 90 339.1355472 90 324.5 Z" stroke-miterlimit="10" stroke-dasharray=""/></g><g><g><path fill="none" stroke="none"/><text fill="#000000" stroke="none" font-family="Arial" font-size="13px" font-style="normal" font-weight="bold" text-decoration="undefined" x="423" y="746" text-anchor="middle" dominant-baseline="central" transform="matrix(1 0 0 1 -181 -427)">UC1.1 - Inserimento email</text><text fill="#000000" stroke="none" font-family="Arial" font-size="13px" font-style="normal" font-weight="bold" text-decoration="undefined" x="423" y="759" text-anchor="middle" dominant-baseline="central" transform="matrix(1 0 0 1 -181 -427)">autenticazione</text></g></g><g><path fill="#C0C0C0" stroke="none" paint-order="stroke fill markers" d=" M 425 331.5 C 425 316.8644528 475.14410239999995 305 537 305 C 598.8558976 305 649 316.8644528 649 331.5 C 649 346.1355472 598.8558976 358 537 358 C 475.14410239999995 358 425 346.1355472 425 331.5 Z" fill-opacity="0.2"/></g><g><path fill="#ffffff" stroke="none" paint-order="stroke fill markers" d=" M 418 324.5 C 418 309.8644528 468.14410239999995 298 530 298 C 591.8558976 298 642 309.8644528 642 324.5 C 642 339.1355472 591.8558976 351 530 351 C 468.14410239999995 351 418 339.1355472 418 324.5 Z"/></g><g><path fill="none" stroke="#000000" paint-order="fill stroke markers" d=" M 418 324.5 C 418 309.8644528 468.14410239999995 298 530 298 C 591.8558976 298 642 309.8644528 642 324.5 C 642 339.1355472 591.8558976 351 530 351 C 468.14410239999995 351 418 339.1355472 418 324.5 Z" stroke-miterlimit="10" stroke-dasharray=""/></g><g><g><path fill="none" stroke="none"/><text fill="#000000" stroke="none" font-family="Arial" font-size="13px" font-style="normal" font-weight="bold" text-decoration="undefined" x="711" y="746" text-anchor="middle" dominant-baseline="central" transform="matrix(1 0 0 1 -181 -427)">UC1.2 - Inserimento</text><text fill="#000000" stroke="none" font-family="Arial" font-size="13px" font-style="normal" font-weight="bold" text-decoration="undefined" x="711" y="759" text-anchor="middle" dominant-baseline="central" transform="matrix(1 0 0 1 -181 -427)">password</text></g></g><g><path fill="none" stroke="#000000" paint-order="fill stroke markers" d=" M 383 64 L 386 161" stroke-miterlimit="10" stroke-dasharray="3"/></g><g><path fill="none" stroke="#000000" paint-order="fill stroke markers" d=" M 381.4783347518618 150.97231116439195 L 386 161 L 389.893346616073 150.71205306549882" stroke-miterlimit="10" stroke-dasharray=""/></g><g><rect fill="#ffffff" stroke="none" x="568" y="531" width="53.49169921875" height="13" transform="matrix(1 0 0 1 -181 -427)"/></g><g><g><path fill="none" stroke="none"/><text fill="#000000" stroke="none" font-family="Arial" font-size="13px" font-style="normal" font-weight="normal" text-decoration="undefined" x="594.745849609375" y="537.5" text-anchor="middle" dominant-baseline="central" transform="matrix(1 0 0 1 -181 -427)">«extend»</text></g></g><g><path fill="none" stroke="#000000" paint-order="fill stroke markers" d=" M 671 112 L 488 161" stroke-miterlimit="10" stroke-dasharray="3"/></g><g><path fill="none" stroke="#000000" paint-order="fill stroke markers" d=" M 496.7280714311853 154.30516847918284 L 488 161 L 498.90563926294294 162.43771772840034" stroke-miterlimit="10" stroke-dasharray=""/></g><g><rect fill="#ffffff" stroke="none" x="795" y="556" width="53.49169921875" height="13" transform="matrix(1 0 0 1 -181 -427)"/></g><g><g><path fill="none" stroke="none"/><text fill="#000000" stroke="none" font-family="Arial" font-size="13px" font-style="normal" font-weight="normal" text-decoration="undefined" x="821.745849609375" y="562.5" text-anchor="middle" dominant-baseline="central" transform="matrix(1 0 0 1 -181 -427)">«extend»</text></g></g><g><path fill="none" stroke="#000000" paint-order="fill stroke markers" d=" M 713 188 L 517 188" stroke-miterlimit="10" stroke-dasharray="3"/></g><g><path fill="none" stroke="#000000" paint-order="fill stroke markers" d=" M 527.1626748576241 183.790482243984 L 517 188 L 527.1626748576241 192.209517756016" stroke-miterlimit="10" stroke-dasharray=""/></g><g><rect fill="#ffffff" stroke="none" x="759" y="622" width="53.49169921875" height="13" transform="matrix(1 0 0 1 -181 -427)"/></g><g><g><path fill="none" stroke="none"/><text fill="#000000" stroke="none" font-family="Arial" font-size="13px" font-style="normal" font-weight="normal" text-decoration="undefined" x="785.745849609375" y="628.5" text-anchor="middle" dominant-baseline="central" transform="matrix(1 0 0 1 -181 -427)">«extend»</text></g></g><g><path fill="none" stroke="#000000" paint-order="fill stroke markers" d=" M 357 216 L 271 297" stroke-miterlimit="10" stroke-dasharray="3"/></g><g><path fill="none" stroke="#000000" paint-order="fill stroke markers" d=" M 275.51176771272964 286.9678540627456 L 271 297 L 281.2840999668953 293.096503122724" stroke-miterlimit="10" stroke-dasharray=""/></g><g><rect fill="#ffffff" stroke="none" x="488" y="698" width="55.65625" height="13" transform="matrix(1 0 0 1 -181 -427)"/></g><g><g><path fill="none" stroke="none"/><text fill="#000000" stroke="none" font-family="Arial" font-size="13px" font-style="normal" font-weight="normal" text-decoration="undefined" x="515.828125" y="704.5" text-anchor="middle" dominant-baseline="central" transform="matrix(1 0 0 1 -181 -427)">«include»</text></g></g><g><path fill="none" stroke="#000000" paint-order="fill stroke markers" d=" M 416 216 L 502 297" stroke-miterlimit="10" stroke-dasharray="3"/></g><g><path fill="none" stroke="#000000" paint-order="fill stroke markers" d=" M 491.71590003310473 293.096503122724 L 502 297 L 497.4882322872704 286.9678540627456" stroke-miterlimit="10" stroke-dasharray=""/></g><g><rect fill="#ffffff" stroke="none" x="600" y="680" width="55.65625" height="13" transform="matrix(1 0 0 1 -181 -427)"/></g><g><g><path fill="none" stroke="none"/><text fill="#000000" stroke="none" font-family="Arial" font-size="13px" font-style="normal" font-weight="normal" text-decoration="undefined" x="627.828125" y="686.5" text-anchor="middle" dominant-baseline="central" transform="matrix(1 0 0 1 -181 -427)">«include»</text></g></g><g><path fill="none" stroke="#000000" paint-order="fill stroke markers" d=" M 257 184 L 162 181" stroke-miterlimit="10" stroke-dasharray=""/></g><g><path fill="#ffffff" stroke="none" paint-order="stroke fill markers" d=" M 162 82 L 287 82 L 297 92 L 297 145 L 162 145 L 162 82"/></g><g><path fill="none" stroke="#000000" paint-order="fill stroke markers" d=" M 162 82 L 287 82 L 297 92 L 297 145 L 162 145 L 162 82 L 162 82" stroke-miterlimit="10" stroke-dasharray=""/></g><g><path fill="none" stroke="#000000" paint-order="fill stroke markers" d=" M 287 82 L 287 92 L 297 92 L 287 82" stroke-miterlimit="10" stroke-dasharray=""/></g><g><g><path fill="none" stroke="none"/><text fill="#000000" stroke="none" font-family="Arial" font-size="13px" font-style="normal" font-weight="normal" text-decoration="undefined" x="411" y="520" text-anchor="middle" dominant-baseline="text-before-edge" transform="matrix(1 0 0 1 -181 -427)">Condizione:</text></g></g><g><g><path fill="none" stroke="none"/><text fill="#000000" stroke="none" font-family="Arial" font-size="13px" font-style="normal" font-weight="normal" text-decoration="undefined" x="411" y="535" text-anchor="middle" dominant-baseline="text-before-edge" transform="matrix(1 0 0 1 -181 -427)">L'utente ha inserito</text><text fill="#000000" stroke="none" font-family="Arial" font-size="13px" font-style="normal" font-weight="normal" text-decoration="undefined" x="411" y="548" text-anchor="middle" dominant-baseline="text-before-edge" transform="matrix(1 0 0 1 -181 -427)">credenziali errate</text></g></g><g><path fill="none" stroke="#000000" paint-order="fill stroke markers" d=" M 299 113 L 384 112" stroke-miterlimit="10" stroke-dasharray="3"/></g><g><path fill="#ffffff" stroke="none" paint-order="stroke fill markers" d=" M 514 18 L 639 18 L 649 28 L 649 96 L 514 96 L 514 18"/></g><g><path fill="none" stroke="#000000" paint-order="fill stroke markers" d=" M 514 18 L 639 18 L 649 28 L 649 96 L 514 96 L 514 18 L 514 18" stroke-miterlimit="10" stroke-dasharray=""/></g><g><path fill="none" stroke="#000000" paint-order="fill stroke markers" d=" M 639 18 L 639 28 L 649 28 L 639 18" stroke-miterlimit="10" stroke-dasharray=""/></g><g><g><path fill="none" stroke="none"/><text fill="#000000" stroke="none" font-family="Arial" font-size="13px" font-style="normal" font-weight="normal" text-decoration="undefined" x="763" y="450" text-anchor="middle" dominant-baseline="text-before-edge" transform="matrix(1 0 0 1 -181 -427)">Condizione:</text></g></g><g><g><path fill="none" stroke="none"/><text fill="#000000" stroke="none" font-family="Arial" font-size="13px" font-style="normal" font-weight="normal" text-decoration="undefined" x="763" y="465" text-anchor="middle" dominant-baseline="text-before-edge" transform="matrix(1 0 0 1 -181 -427)">L'utente ha inserito</text><text fill="#000000" stroke="none" font-family="Arial" font-size="13px" font-style="normal" font-weight="normal" text-decoration="undefined" x="763" y="478" text-anchor="middle" dominant-baseline="text-before-edge" transform="matrix(1 0 0 1 -181 -427)">delle credenziali</text><text fill="#000000" stroke="none" font-family="Arial" font-size="13px" font-style="normal" font-weight="normal" text-decoration="undefined" x="763" y="491" text-anchor="middle" dominant-baseline="text-before-edge" transform="matrix(1 0 0 1 -181 -427)">valide associate ad</text><text fill="#000000" stroke="none" font-family="Arial" font-size="13px" font-style="normal" font-weight="normal" text-decoration="undefined" x="763" y="504" text-anchor="middle" dominant-baseline="text-before-edge" transform="matrix(1 0 0 1 -181 -427)">un account sospeso</text></g></g><g><path fill="none" stroke="#000000" paint-order="fill stroke markers" d=" M 580 98 L 579 136" stroke-miterlimit="10" stroke-dasharray="3"/></g><g><path fill="#ffffff" stroke="none" paint-order="stroke fill markers" d=" M 674 234 L 799 234 L 809 244 L 809 325 L 674 325 L 674 234"/></g><g><path fill="none" stroke="#000000" paint-order="fill stroke markers" d=" M 674 234 L 799 234 L 809 244 L 809 325 L 674 325 L 674 234 L 674 234" stroke-miterlimit="10" stroke-dasharray=""/></g><g><path fill="none" stroke="#000000" paint-order="fill stroke markers" d=" M 799 234 L 799 244 L 809 244 L 799 234" stroke-miterlimit="10" stroke-dasharray=""/></g><g><g><path fill="none" stroke="none"/><text fill="#000000" stroke="none" font-family="Arial" font-size="13px" font-style="normal" font-weight="normal" text-decoration="undefined" x="923" y="666" text-anchor="middle" dominant-baseline="text-before-edge" transform="matrix(1 0 0 1 -181 -427)">Condizione:</text></g></g><g><g><path fill="none" stroke="none"/><text fill="#000000" stroke="none" font-family="Arial" font-size="13px" font-style="normal" font-weight="normal" text-decoration="undefined" x="923" y="681" text-anchor="middle" dominant-baseline="text-before-edge" transform="matrix(1 0 0 1 -181 -427)">L'utente ha inserito</text><text fill="#000000" stroke="none" font-family="Arial" font-size="13px" font-style="normal" font-weight="normal" text-decoration="undefined" x="923" y="694" text-anchor="middle" dominant-baseline="text-before-edge" transform="matrix(1 0 0 1 -181 -427)">delle credenziali</text><text fill="#000000" stroke="none" font-family="Arial" font-size="13px" font-style="normal" font-weight="normal" text-decoration="undefined" x="923" y="707" text-anchor="middle" dominant-baseline="text-before-edge" transform="matrix(1 0 0 1 -181 -427)">valide associate ad</text><text fill="#000000" stroke="none" font-family="Arial" font-size="13px" font-style="normal" font-weight="normal" text-decoration="undefined" x="923" y="720" text-anchor="middle" dominant-baseline="text-before-edge" transform="matrix(1 0 0 1 -181 -427)">un account con 2FA</text><text fill="#000000" stroke="none" font-family="Arial" font-size="13px" font-style="normal" font-weight="normal" text-decoration="undefined" x="923" y="733" text-anchor="middle" dominant-baseline="text-before-edge" transform="matrix(1 0 0 1 -181 -427)">attiva</text></g></g><g><path fill="none" stroke="#000000" paint-order="fill stroke markers" d=" M 677 233 L 615 188" stroke-miterlimit="10" stroke-dasharray="3"/></g></g></svg>