<svg version="1.1" xmlns="http://www.w3.org/2000/svg" xmlns:xlink="http://www.w3.org/1999/xlink" width="981" height="476"><defs/><g><g><rect fill="#C0C0C0" stroke="none" x="467" y="297" width="728" height="456" transform="matrix(1 0 0 1 -218 -280)" fill-opacity="0.2"/></g><g><rect fill="#ffffff" stroke="none" x="460" y="290" width="728" height="456" transform="matrix(1 0 0 1 -218 -280)"/></g><g><path fill="none" stroke="#000000" paint-order="fill stroke markers" d=" M 242 10 L 970 10 L 970 466 L 242 466 L 242 10 Z Z" stroke-miterlimit="10" stroke-dasharray=""/></g><g><g><path fill="none" stroke="none"/><text fill="#000000" stroke="none" font-family="Arial" font-size="13px" font-style="normal" font-weight="bold" text-decoration="undefined" x="824.5" y="303.5" text-anchor="middle" dominant-baseline="central" transform="matrix(1 0 0 1 -218 -280)">Schermata d'autenticazione - Sistema</text></g></g><g><path fill="#ffffff" stroke="none" paint-order="stroke fill markers" d=" M 76.57772460937503 227.85000000000002 C 76.57772460937503 222.96227952000004 80.53552697737501 219 85.417724609375 219 C 90.29992224137499 219 94.25772460937497 222.96227952000004 94.25772460937497 227.85000000000002 C 94.25772460937497 232.73772048 90.29992224137499 236.70000000000005 85.417724609375 236.70000000000005 C 80.53552697737501 236.70000000000005 76.57772460937503 232.73772048 76.57772460937503 227.85000000000002 Z"/></g><g><path fill="none" stroke="#000000" paint-order="fill stroke markers" d=" M 76.57772460937503 227.85000000000002 C 76.57772460937503 222.96227952000004 80.53552697737501 219 85.417724609375 219 C 90.29992224137499 219 94.25772460937497 222.96227952000004 94.25772460937497 227.85000000000002 C 94.25772460937497 232.73772048 90.29992224137499 236.70000000000005 85.417724609375 236.70000000000005 C 80.53552697737501 236.70000000000005 76.57772460937503 232.73772048 76.57772460937503 227.85000000000002 Z" stroke-miterlimit="10" stroke-dasharray=""/></g><g><path fill="none" stroke="#000000" paint-order="fill stroke markers" d=" M 85.417724609375 236.70000000000005 L 85.417724609375 254.29999999999995" stroke-miterlimit="10" stroke-dasharray=""/></g><g><path fill="none" stroke="#000000" paint-order="fill stroke markers" d=" M 76.05772460937499 243.29999999999995 L 94.77772460937501 243.29999999999995" stroke-miterlimit="10" stroke-dasharray=""/></g><g><path fill="none" stroke="#000000" paint-order="fill stroke markers" d=" M 85.417724609375 254.29999999999995 L 72.417724609375 272" stroke-miterlimit="10" stroke-dasharray=""/></g><g><path fill="none" stroke="#000000" paint-order="fill stroke markers" d=" M 85.417724609375 254.29999999999995 L 98.417724609375 272" stroke-miterlimit="10" stroke-dasharray=""/></g><g><g><path fill="none" stroke="none"/><text fill="#000000" stroke="none" font-family="Arial" font-size="13px" font-style="normal" font-weight="bold" text-decoration="undefined" x="303.917724609375" y="566.5" text-anchor="middle" dominant-baseline="central" transform="matrix(1 0 0 1 -218 -280)">Utente non autenticato</text></g></g><g><path fill="#C0C0C0" stroke="none" paint-order="stroke fill markers" d=" M 351 279 C 351 259.11774720000005 396.21923519999996 243 452 243 C 507.78076480000004 243 553 259.11774720000005 553 279 C 553 298.88225279999995 507.78076480000004 315 452 315 C 396.21923519999996 315 351 298.88225279999995 351 279 Z" fill-opacity="0.2"/></g><g><path fill="#ffffff" stroke="none" paint-order="stroke fill markers" d=" M 344 272 C 344 252.11774720000005 389.21923519999996 236 445 236 C 500.78076480000004 236 546 252.11774720000005 546 272 C 546 291.88225279999995 500.78076480000004 308 445 308 C 389.21923519999996 308 344 291.88225279999995 344 272 Z"/></g><g><path fill="none" stroke="#000000" paint-order="fill stroke markers" d=" M 344 272 C 344 252.11774720000005 389.21923519999996 236 445 236 C 500.78076480000004 236 546 252.11774720000005 546 272 C 546 291.88225279999995 500.78076480000004 308 445 308 C 389.21923519999996 308 344 291.88225279999995 344 272 Z" stroke-miterlimit="10" stroke-dasharray=""/></g><g><g><path fill="none" stroke="none"/><text fill="#000000" stroke="none" font-family="Arial" font-size="13px" font-style="normal" font-weight="bold" text-decoration="undefined" x="663" y="546.5" text-anchor="middle" dominant-baseline="central" transform="matrix(1 0 0 1 -218 -280)">UC1 - Autenticazione</text><text fill="#000000" stroke="none" font-family="Arial" font-size="13px" font-style="normal" font-weight="bold" text-decoration="undefined" x="663" y="559.5" text-anchor="middle" dominant-baseline="central" transform="matrix(1 0 0 1 -218 -280)">utente</text></g></g><g><path fill="#C0C0C0" stroke="none" paint-order="stroke fill markers" d=" M 327 125.5 C 327 110.86445279999998 377.5918176 99 440 99 C 502.4081824 99 553 110.86445279999998 553 125.5 C 553 140.13554720000002 502.4081824 152 440 152 C 377.5918176 152 327 140.13554720000002 327 125.5 Z" fill-opacity="0.2"/></g><g><path fill="#ffffff" stroke="none" paint-order="stroke fill markers" d=" M 320 118.5 C 320 103.86445279999998 370.5918176 92 433 92 C 495.4081824 92 546 103.86445279999998 546 118.5 C 546 133.13554720000002 495.4081824 145 433 145 C 370.5918176 145 320 133.13554720000002 320 118.5 Z"/></g><g><path fill="none" stroke="#000000" paint-order="fill stroke markers" d=" M 320 118.5 C 320 103.86445279999998 370.5918176 92 433 92 C 495.4081824 92 546 103.86445279999998 546 118.5 C 546 133.13554720000002 495.4081824 145 433 145 C 370.5918176 145 320 133.13554720000002 320 118.5 Z" stroke-miterlimit="10" stroke-dasharray=""/></g><g><g><path fill="none" stroke="none"/><text fill="#000000" stroke="none" font-family="Arial" font-size="13px" font-style="normal" font-weight="bold" text-decoration="undefined" x="651" y="393" text-anchor="middle" dominant-baseline="central" transform="matrix(1 0 0 1 -218 -280)">UC2 - Autenticazione</text><text fill="#000000" stroke="none" font-family="Arial" font-size="13px" font-style="normal" font-weight="bold" text-decoration="undefined" x="651" y="406" text-anchor="middle" dominant-baseline="central" transform="matrix(1 0 0 1 -218 -280)">non riuscita</text></g></g><g><path fill="#C0C0C0" stroke="none" paint-order="stroke fill markers" d=" M 671 197.5 C 671 182.86445279999998 709.055792 171 756 171 C 802.944208 171 841 182.86445279999998 841 197.5 C 841 212.13554720000002 802.944208 224 756 224 C 709.055792 224 671 212.13554720000002 671 197.5 Z" fill-opacity="0.2"/></g><g><path fill="#ffffff" stroke="none" paint-order="stroke fill markers" d=" M 664 190.5 C 664 175.86445279999998 702.055792 164 749 164 C 795.944208 164 834 175.86445279999998 834 190.5 C 834 205.13554720000002 795.944208 217 749 217 C 702.055792 217 664 205.13554720000002 664 190.5 Z"/></g><g><path fill="none" stroke="#000000" paint-order="fill stroke markers" d=" M 664 190.5 C 664 175.86445279999998 702.055792 164 749 164 C 795.944208 164 834 175.86445279999998 834 190.5 C 834 205.13554720000002 795.944208 217 749 217 C 702.055792 217 664 205.13554720000002 664 190.5 Z" stroke-miterlimit="10" stroke-dasharray=""/></g><g><g><path fill="none" stroke="none"/><text fill="#000000" stroke="none" font-family="Arial" font-size="13px" font-style="normal" font-weight="bold" text-decoration="undefined" x="967" y="465" text-anchor="middle" dominant-baseline="central" transform="matrix(1 0 0 1 -218 -280)">UC3 - Account</text><text fill="#000000" stroke="none" font-family="Arial" font-size="13px" font-style="normal" font-weight="bold" text-decoration="undefined" x="967" y="478" text-anchor="middle" dominant-baseline="central" transform="matrix(1 0 0 1 -218 -280)">sospeso</text></g></g><g><path fill="#C0C0C0" stroke="none" paint-order="stroke fill markers" d=" M 807 269.5 C 807 254.86445279999998 839.6832096 243 880 243 C 920.3167904 243 953 254.86445279999998 953 269.5 C 953 284.1355472 920.3167904 296 880 296 C 839.6832096 296 807 284.1355472 807 269.5 Z" fill-opacity="0.2"/></g><g><path fill="#ffffff" stroke="none" paint-order="stroke fill markers" d=" M 800 262.5 C 800 247.86445279999998 832.6832096 236 873 236 C 913.3167904 236 946 247.86445279999998 946 262.5 C 946 277.1355472 913.3167904 289 873 289 C 832.6832096 289 800 277.1355472 800 262.5 Z"/></g><g><path fill="none" stroke="#000000" paint-order="fill stroke markers" d=" M 800 262.5 C 800 247.86445279999998 832.6832096 236 873 236 C 913.3167904 236 946 247.86445279999998 946 262.5 C 946 277.1355472 913.3167904 289 873 289 C 832.6832096 289 800 277.1355472 800 262.5 Z" stroke-miterlimit="10" stroke-dasharray=""/></g><g><g><path fill="none" stroke="none"/><text fill="#000000" stroke="none" font-family="Arial" font-size="13px" font-style="normal" font-weight="bold" text-decoration="undefined" x="1091" y="537" text-anchor="middle" dominant-baseline="central" transform="matrix(1 0 0 1 -218 -280)">UC4 - Invio</text><text fill="#000000" stroke="none" font-family="Arial" font-size="13px" font-style="normal" font-weight="bold" text-decoration="undefined" x="1091" y="550" text-anchor="middle" dominant-baseline="central" transform="matrix(1 0 0 1 -218 -280)">codice 2FA</text></g></g><g><path fill="#C0C0C0" stroke="none" paint-order="stroke fill markers" d=" M 329 405.5 C 329 390.8644528 375.5623808 379 433 379 C 490.4376192 379 537 390.8644528 537 405.5 C 537 420.1355472 490.4376192 432 433 432 C 375.5623808 432 329 420.1355472 329 405.5 Z" fill-opacity="0.2"/></g><g><path fill="#ffffff" stroke="none" paint-order="stroke fill markers" d=" M 322 398.5 C 322 383.8644528 368.5623808 372 426 372 C 483.4376192 372 530 383.8644528 530 398.5 C 530 413.1355472 483.4376192 425 426 425 C 368.5623808 425 322 413.1355472 322 398.5 Z"/></g><g><path fill="none" stroke="#000000" paint-order="fill stroke markers" d=" M 322 398.5 C 322 383.8644528 368.5623808 372 426 372 C 483.4376192 372 530 383.8644528 530 398.5 C 530 413.1355472 483.4376192 425 426 425 C 368.5623808 425 322 413.1355472 322 398.5 Z" stroke-miterlimit="10" stroke-dasharray=""/></g><g><g><path fill="none" stroke="none"/><text fill="#000000" stroke="none" font-family="Arial" font-size="13px" font-style="normal" font-weight="bold" text-decoration="undefined" x="644" y="673" text-anchor="middle" dominant-baseline="central" transform="matrix(1 0 0 1 -218 -280)">UC1.1 - Inserimento</text><text fill="#000000" stroke="none" font-family="Arial" font-size="13px" font-style="normal" font-weight="bold" text-decoration="undefined" x="644" y="686" text-anchor="middle" dominant-baseline="central" transform="matrix(1 0 0 1 -218 -280)">email autenticazione</text></g></g><g><path fill="#C0C0C0" stroke="none" paint-order="stroke fill markers" d=" M 679 341.5 C 679 326.8644528 722.4283743999999 315 776 315 C 829.5716256000001 315 873 326.8644528 873 341.5 C 873 356.1355472 829.5716256000001 368 776 368 C 722.4283743999999 368 679 356.1355472 679 341.5 Z" fill-opacity="0.2"/></g><g><path fill="#ffffff" stroke="none" paint-order="stroke fill markers" d=" M 672 334.5 C 672 319.8644528 715.4283743999999 308 769 308 C 822.5716256000001 308 866 319.8644528 866 334.5 C 866 349.1355472 822.5716256000001 361 769 361 C 715.4283743999999 361 672 349.1355472 672 334.5 Z"/></g><g><path fill="none" stroke="#000000" paint-order="fill stroke markers" d=" M 672 334.5 C 672 319.8644528 715.4283743999999 308 769 308 C 822.5716256000001 308 866 319.8644528 866 334.5 C 866 349.1355472 822.5716256000001 361 769 361 C 715.4283743999999 361 672 349.1355472 672 334.5 Z" stroke-miterlimit="10" stroke-dasharray=""/></g><g><g><path fill="none" stroke="none"/><text fill="#000000" stroke="none" font-family="Arial" font-size="13px" font-style="normal" font-weight="bold" text-decoration="undefined" x="987" y="609" text-anchor="middle" dominant-baseline="central" transform="matrix(1 0 0 1 -218 -280)">UC1.2 - Inserimento</text><text fill="#000000" stroke="none" font-family="Arial" font-size="13px" font-style="normal" font-weight="bold" text-decoration="undefined" x="987" y="622" text-anchor="middle" dominant-baseline="central" transform="matrix(1 0 0 1 -218 -280)">password</text></g></g><g><path fill="none" stroke="#000000" paint-order="fill stroke markers" d=" M 435 146 L 442 235" stroke-miterlimit="10" stroke-dasharray="3"/></g><g><path fill="none" stroke="#000000" paint-order="fill stroke markers" d=" M 437.006591756601 225.1986799810049 L 442 235 L 445.3997070198707 224.53854731984882" stroke-miterlimit="10" stroke-dasharray=""/></g><g><rect fill="#ffffff" stroke="none" x="659" y="461" width="53.49169921875" height="13" transform="matrix(1 0 0 1 -218 -280)"/></g><g><g><path fill="none" stroke="none"/><text fill="#000000" stroke="none" font-family="Arial" font-size="13px" font-style="normal" font-weight="normal" text-decoration="undefined" x="685.745849609375" y="467.5" text-anchor="middle" dominant-baseline="central" transform="matrix(1 0 0 1 -218 -280)">«extend»</text></g></g><g><path fill="none" stroke="#000000" paint-order="fill stroke markers" d=" M 663 213 L 547 244" stroke-miterlimit="10" stroke-dasharray="3"/></g><g><path fill="none" stroke="#000000" paint-order="fill stroke markers" d=" M 555.731307898594 237.30938998446697 L 547 244 L 557.9049427359815 245.44299131146545" stroke-miterlimit="10" stroke-dasharray=""/></g><g><rect fill="#ffffff" stroke="none" x="858" y="501" width="53.49169921875" height="13" transform="matrix(1 0 0 1 -218 -280)"/></g><g><g><path fill="none" stroke="none"/><text fill="#000000" stroke="none" font-family="Arial" font-size="13px" font-style="normal" font-weight="normal" text-decoration="undefined" x="884.745849609375" y="507.5" text-anchor="middle" dominant-baseline="central" transform="matrix(1 0 0 1 -218 -280)">«extend»</text></g></g><g><path fill="none" stroke="#000000" paint-order="fill stroke markers" d=" M 799 264 L 547 270" stroke-miterlimit="10" stroke-dasharray="3"/></g><g><path fill="none" stroke="#000000" paint-order="fill stroke markers" d=" M 557.0595972885998 265.54977501791245 L 547 270 L 557.2599937214146 273.9664251961349" stroke-miterlimit="10" stroke-dasharray=""/></g><g><rect fill="#ffffff" stroke="none" x="854" y="554" width="53.49169921875" height="13" transform="matrix(1 0 0 1 -218 -280)"/></g><g><g><path fill="none" stroke="none"/><text fill="#000000" stroke="none" font-family="Arial" font-size="13px" font-style="normal" font-weight="normal" text-decoration="undefined" x="880.745849609375" y="560.5" text-anchor="middle" dominant-baseline="central" transform="matrix(1 0 0 1 -218 -280)">«extend»</text></g></g><g><path fill="none" stroke="#000000" paint-order="fill stroke markers" d=" M 439 309 L 430 371" stroke-miterlimit="10" stroke-dasharray="3"/></g><g><path fill="none" stroke="#000000" paint-order="fill stroke markers" d=" M 427.2940700230439 360.3380141174446 L 430 371 L 435.62578108234845 361.54745604540824" stroke-miterlimit="10" stroke-dasharray=""/></g><g><rect fill="#ffffff" stroke="none" x="654" y="617" width="55.65625" height="13" transform="matrix(1 0 0 1 -218 -280)"/></g><g><g><path fill="none" stroke="none"/><text fill="#000000" stroke="none" font-family="Arial" font-size="13px" font-style="normal" font-weight="normal" text-decoration="undefined" x="681.828125" y="623.5" text-anchor="middle" dominant-baseline="central" transform="matrix(1 0 0 1 -218 -280)">«include»</text></g></g><g><path fill="none" stroke="#000000" paint-order="fill stroke markers" d=" M 547 292 L 671 315" stroke-miterlimit="10" stroke-dasharray="3"/></g><g><path fill="none" stroke="#000000" paint-order="fill stroke markers" d=" M 660.2400562842062 317.28552209198415 L 671 315 L 661.7754626635829 309.0076790031702" stroke-miterlimit="10" stroke-dasharray=""/></g><g><rect fill="#ffffff" stroke="none" x="791" y="586" width="55.65625" height="13" transform="matrix(1 0 0 1 -218 -280)"/></g><g><g><path fill="none" stroke="none"/><text fill="#000000" stroke="none" font-family="Arial" font-size="13px" font-style="normal" font-weight="normal" text-decoration="undefined" x="818.828125" y="592.5" text-anchor="middle" dominant-baseline="central" transform="matrix(1 0 0 1 -218 -280)">«include»</text></g></g><g><path fill="none" stroke="#000000" paint-order="fill stroke markers" d=" M 343 268 L 162 261" stroke-miterlimit="10" stroke-dasharray=""/></g></g></svg>