<svg version="1.1" xmlns="http://www.w3.org/2000/svg" xmlns:xlink="http://www.w3.org/1999/xlink" width="1045" height="436"><defs/><g><g><rect fill="#C0C0C0" stroke="none" x="323" y="261" width="824" height="416" transform="matrix(1 0 0 1 -106 -244)" fill-opacity="0.2"/></g><g><rect fill="#ffffff" stroke="none" x="316" y="254" width="824" height="416" transform="matrix(1 0 0 1 -106 -244)"/></g><g><path fill="none" stroke="#000000" paint-order="fill stroke markers" d=" M 210 10 L 1034 10 L 1034 426 L 210 426 L 210 10 Z Z" stroke-miterlimit="10" stroke-dasharray=""/></g><g><g><path fill="none" stroke="none"/><text fill="#000000" stroke="none" font-family="Arial" font-size="13px" font-style="normal" font-weight="bold" text-decoration="undefined" x="728.5" y="267.5" text-anchor="middle" dominant-baseline="central" transform="matrix(1 0 0 1 -106 -244)">Sistema Cloud</text></g></g><g><path fill="#ffffff" stroke="none" paint-order="stroke fill markers" d=" M 76.577724609375 187.85000000000002 C 76.577724609375 182.96227952000004 80.53552697737499 179 85.417724609375 179 C 90.29992224137501 179 94.257724609375 182.96227952000004 94.257724609375 187.85000000000002 C 94.257724609375 192.73772048 90.29992224137501 196.7 85.417724609375 196.7 C 80.53552697737499 196.7 76.577724609375 192.73772048 76.577724609375 187.85000000000002 Z"/></g><g><path fill="none" stroke="#000000" paint-order="fill stroke markers" d=" M 76.577724609375 187.85000000000002 C 76.577724609375 182.96227952000004 80.53552697737499 179 85.417724609375 179 C 90.29992224137501 179 94.257724609375 182.96227952000004 94.257724609375 187.85000000000002 C 94.257724609375 192.73772048 90.29992224137501 196.7 85.417724609375 196.7 C 80.53552697737499 196.7 76.577724609375 192.73772048 76.577724609375 187.85000000000002 Z" stroke-miterlimit="10" stroke-dasharray=""/></g><g><path fill="none" stroke="#000000" paint-order="fill stroke markers" d=" M 85.417724609375 196.7 L 85.417724609375 214.3" stroke-miterlimit="10" stroke-dasharray=""/></g><g><path fill="none" stroke="#000000" paint-order="fill stroke markers" d=" M 76.05772460937499 203.3 L 94.77772460937501 203.3" stroke-miterlimit="10" stroke-dasharray=""/></g><g><path fill="none" stroke="#000000" paint-order="fill stroke markers" d=" M 85.417724609375 214.3 L 72.417724609375 232" stroke-miterlimit="10" stroke-dasharray=""/></g><g><path fill="none" stroke="#000000" paint-order="fill stroke markers" d=" M 85.417724609375 214.3 L 98.417724609375 232" stroke-miterlimit="10" stroke-dasharray=""/></g><g><g><path fill="none" stroke="none"/><text fill="#000000" stroke="none" font-family="Arial" font-size="13px" font-style="normal" font-weight="bold" text-decoration="undefined" x="191.917724609375" y="490.5" text-anchor="middle" dominant-baseline="central" transform="matrix(1 0 0 1 -106 -244)">Utente non autenticato</text></g></g><g><path fill="#C0C0C0" stroke="none" paint-order="stroke fill markers" d=" M 345 243.5 C 345 228.86445279999998 402.7552608 217 474 217 C 545.2447392 217 603 228.86445279999998 603 243.5 C 603 258.1355472 545.2447392 270 474 270 C 402.7552608 270 345 258.1355472 345 243.5 Z" fill-opacity="0.2"/></g><g><path fill="#ffffff" stroke="none" paint-order="stroke fill markers" d=" M 338 236.5 C 338 221.86445279999998 395.7552608 210 467 210 C 538.2447392 210 596 221.86445279999998 596 236.5 C 596 251.13554720000002 538.2447392 263 467 263 C 395.7552608 263 338 251.13554720000002 338 236.5 Z"/></g><g><path fill="none" stroke="#000000" paint-order="fill stroke markers" d=" M 338 236.5 C 338 221.86445279999998 395.7552608 210 467 210 C 538.2447392 210 596 221.86445279999998 596 236.5 C 596 251.13554720000002 538.2447392 263 467 263 C 395.7552608 263 338 251.13554720000002 338 236.5 Z" stroke-miterlimit="10" stroke-dasharray=""/></g><g><g><path fill="none" stroke="none"/><text fill="#000000" stroke="none" font-family="Arial" font-size="13px" font-style="normal" font-weight="bold" text-decoration="undefined" x="573" y="475" text-anchor="middle" dominant-baseline="central" transform="matrix(1 0 0 1 -106 -244)">UC1 - Autenticazione</text><text fill="#000000" stroke="none" font-family="Arial" font-size="13px" font-style="normal" font-weight="bold" text-decoration="undefined" x="573" y="488" text-anchor="middle" dominant-baseline="central" transform="matrix(1 0 0 1 -106 -244)">utente</text></g></g><g><path fill="#C0C0C0" stroke="none" paint-order="stroke fill markers" d=" M 361 91.5 C 361 76.86445279999998 409.35324160000005 65 469 65 C 528.6467584 65 577 76.86445279999998 577 91.5 C 577 106.13554720000002 528.6467584 118 469 118 C 409.35324160000005 118 361 106.13554720000002 361 91.5 Z" fill-opacity="0.2"/></g><g><path fill="#ffffff" stroke="none" paint-order="stroke fill markers" d=" M 354 84.5 C 354 69.86445279999998 402.3532416 58 462 58 C 521.6467584 58 570 69.86445279999998 570 84.5 C 570 99.13554720000002 521.6467584 111 462 111 C 402.3532416 111 354 99.13554720000002 354 84.5 Z"/></g><g><path fill="none" stroke="#000000" paint-order="fill stroke markers" d=" M 354 84.5 C 354 69.86445279999998 402.3532416 58 462 58 C 521.6467584 58 570 69.86445279999998 570 84.5 C 570 99.13554720000002 521.6467584 111 462 111 C 402.3532416 111 354 99.13554720000002 354 84.5 Z" stroke-miterlimit="10" stroke-dasharray=""/></g><g><g><path fill="none" stroke="none"/><text fill="#000000" stroke="none" font-family="Arial" font-size="13px" font-style="normal" font-weight="bold" text-decoration="undefined" x="568" y="323" text-anchor="middle" dominant-baseline="central" transform="matrix(1 0 0 1 -106 -244)">UC2 - Autenticazione</text><text fill="#000000" stroke="none" font-family="Arial" font-size="13px" font-style="normal" font-weight="bold" text-decoration="undefined" x="568" y="336" text-anchor="middle" dominant-baseline="central" transform="matrix(1 0 0 1 -106 -244)">non riuscita</text></g></g><g><path fill="#C0C0C0" stroke="none" paint-order="stroke fill markers" d=" M 753 139.5 C 753 124.86445279999998 802.2486719999999 113 863 113 C 923.7513280000001 113 973 124.86445279999998 973 139.5 C 973 154.13554720000002 923.7513280000001 166 863 166 C 802.2486719999999 166 753 154.13554720000002 753 139.5 Z" fill-opacity="0.2"/></g><g><path fill="#ffffff" stroke="none" paint-order="stroke fill markers" d=" M 746 132.5 C 746 117.86445279999998 795.2486719999999 106 856 106 C 916.7513280000001 106 966 117.86445279999998 966 132.5 C 966 147.13554720000002 916.7513280000001 159 856 159 C 795.2486719999999 159 746 147.13554720000002 746 132.5 Z"/></g><g><path fill="none" stroke="#000000" paint-order="fill stroke markers" d=" M 746 132.5 C 746 117.86445279999998 795.2486719999999 106 856 106 C 916.7513280000001 106 966 117.86445279999998 966 132.5 C 966 147.13554720000002 916.7513280000001 159 856 159 C 795.2486719999999 159 746 147.13554720000002 746 132.5 Z" stroke-miterlimit="10" stroke-dasharray=""/></g><g><g><path fill="none" stroke="none"/><text fill="#000000" stroke="none" font-family="Arial" font-size="13px" font-style="normal" font-weight="bold" text-decoration="undefined" x="962" y="371" text-anchor="middle" dominant-baseline="central" transform="matrix(1 0 0 1 -106 -244)">UC3 - Account</text><text fill="#000000" stroke="none" font-family="Arial" font-size="13px" font-style="normal" font-weight="bold" text-decoration="undefined" x="962" y="384" text-anchor="middle" dominant-baseline="central" transform="matrix(1 0 0 1 -106 -244)">sospeso</text></g></g><g><path fill="#C0C0C0" stroke="none" paint-order="stroke fill markers" d=" M 801 243.5 C 801 228.86445279999998 848.4578112 217 907 217 C 965.5421888000001 217 1013 228.86445279999998 1013 243.5 C 1013 258.1355472 965.5421888000001 270 907 270 C 848.4578112 270 801 258.1355472 801 243.5 Z" fill-opacity="0.2"/></g><g><path fill="#ffffff" stroke="none" paint-order="stroke fill markers" d=" M 794 236.5 C 794 221.86445279999998 841.4578112 210 900 210 C 958.5421888000001 210 1006 221.86445279999998 1006 236.5 C 1006 251.13554720000002 958.5421888000001 263 900 263 C 841.4578112 263 794 251.13554720000002 794 236.5 Z"/></g><g><path fill="none" stroke="#000000" paint-order="fill stroke markers" d=" M 794 236.5 C 794 221.86445279999998 841.4578112 210 900 210 C 958.5421888000001 210 1006 221.86445279999998 1006 236.5 C 1006 251.13554720000002 958.5421888000001 263 900 263 C 841.4578112 263 794 251.13554720000002 794 236.5 Z" stroke-miterlimit="10" stroke-dasharray=""/></g><g><g><path fill="none" stroke="none"/><text fill="#000000" stroke="none" font-family="Arial" font-size="13px" font-style="normal" font-weight="bold" text-decoration="undefined" x="1006" y="475" text-anchor="middle" dominant-baseline="central" transform="matrix(1 0 0 1 -106 -244)">UC4 - Invio codice</text><text fill="#000000" stroke="none" font-family="Arial" font-size="13px" font-style="normal" font-weight="bold" text-decoration="undefined" x="1006" y="488" text-anchor="middle" dominant-baseline="central" transform="matrix(1 0 0 1 -106 -244)">2FA</text></g></g><g><path fill="#C0C0C0" stroke="none" paint-order="stroke fill markers" d=" M 257 379.5 C 257 364.8644528 307.1441024 353 369 353 C 430.85589760000005 353 481 364.8644528 481 379.5 C 481 394.1355472 430.85589760000005 406 369 406 C 307.1441024 406 257 394.1355472 257 379.5 Z" fill-opacity="0.2"/></g><g><path fill="#ffffff" stroke="none" paint-order="stroke fill markers" d=" M 250 372.5 C 250 357.8644528 300.1441024 346 362 346 C 423.85589760000005 346 474 357.8644528 474 372.5 C 474 387.1355472 423.85589760000005 399 362 399 C 300.1441024 399 250 387.1355472 250 372.5 Z"/></g><g><path fill="none" stroke="#000000" paint-order="fill stroke markers" d=" M 250 372.5 C 250 357.8644528 300.1441024 346 362 346 C 423.85589760000005 346 474 357.8644528 474 372.5 C 474 387.1355472 423.85589760000005 399 362 399 C 300.1441024 399 250 387.1355472 250 372.5 Z" stroke-miterlimit="10" stroke-dasharray=""/></g><g><g><path fill="none" stroke="none"/><text fill="#000000" stroke="none" font-family="Arial" font-size="13px" font-style="normal" font-weight="bold" text-decoration="undefined" x="468" y="611" text-anchor="middle" dominant-baseline="central" transform="matrix(1 0 0 1 -106 -244)">UC1.1 - Inserimento</text><text fill="#000000" stroke="none" font-family="Arial" font-size="13px" font-style="normal" font-weight="bold" text-decoration="undefined" x="468" y="624" text-anchor="middle" dominant-baseline="central" transform="matrix(1 0 0 1 -106 -244)">email autenticazione</text></g></g><g><path fill="#C0C0C0" stroke="none" paint-order="stroke fill markers" d=" M 505 379.5 C 505 364.8644528 555.1441024 353 617 353 C 678.8558976 353 729 364.8644528 729 379.5 C 729 394.1355472 678.8558976 406 617 406 C 555.1441024 406 505 394.1355472 505 379.5 Z" fill-opacity="0.2"/></g><g><path fill="#ffffff" stroke="none" paint-order="stroke fill markers" d=" M 498 372.5 C 498 357.8644528 548.1441024 346 610 346 C 671.8558976 346 722 357.8644528 722 372.5 C 722 387.1355472 671.8558976 399 610 399 C 548.1441024 399 498 387.1355472 498 372.5 Z"/></g><g><path fill="none" stroke="#000000" paint-order="fill stroke markers" d=" M 498 372.5 C 498 357.8644528 548.1441024 346 610 346 C 671.8558976 346 722 357.8644528 722 372.5 C 722 387.1355472 671.8558976 399 610 399 C 548.1441024 399 498 387.1355472 498 372.5 Z" stroke-miterlimit="10" stroke-dasharray=""/></g><g><g><path fill="none" stroke="none"/><text fill="#000000" stroke="none" font-family="Arial" font-size="13px" font-style="normal" font-weight="bold" text-decoration="undefined" x="716" y="611" text-anchor="middle" dominant-baseline="central" transform="matrix(1 0 0 1 -106 -244)">UC1.2 - Inserimento</text><text fill="#000000" stroke="none" font-family="Arial" font-size="13px" font-style="normal" font-weight="bold" text-decoration="undefined" x="716" y="624" text-anchor="middle" dominant-baseline="central" transform="matrix(1 0 0 1 -106 -244)">password</text></g></g><g><path fill="none" stroke="#000000" paint-order="fill stroke markers" d=" M 463 112 L 466 209" stroke-miterlimit="10" stroke-dasharray="3"/></g><g><path fill="none" stroke="#000000" paint-order="fill stroke markers" d=" M 461.4783347518618 198.9723111643919 L 466 209 L 469.893346616073 198.71205306549876" stroke-miterlimit="10" stroke-dasharray=""/></g><g><rect fill="#ffffff" stroke="none" x="573" y="396" width="53.49169921875" height="13" transform="matrix(1 0 0 1 -106 -244)"/></g><g><g><path fill="none" stroke="none"/><text fill="#000000" stroke="none" font-family="Arial" font-size="13px" font-style="normal" font-weight="normal" text-decoration="undefined" x="599.745849609375" y="402.5" text-anchor="middle" dominant-baseline="central" transform="matrix(1 0 0 1 -106 -244)">«extend»</text></g></g><g><path fill="none" stroke="#000000" paint-order="fill stroke markers" d=" M 751 160 L 568 209" stroke-miterlimit="10" stroke-dasharray="3"/></g><g><path fill="none" stroke="#000000" paint-order="fill stroke markers" d=" M 576.7280714311853 202.30516847918278 L 568 209 L 578.9056392629429 210.43771772840034" stroke-miterlimit="10" stroke-dasharray=""/></g><g><rect fill="#ffffff" stroke="none" x="800" y="421" width="53.49169921875" height="13" transform="matrix(1 0 0 1 -106 -244)"/></g><g><g><path fill="none" stroke="none"/><text fill="#000000" stroke="none" font-family="Arial" font-size="13px" font-style="normal" font-weight="normal" text-decoration="undefined" x="826.745849609375" y="427.5" text-anchor="middle" dominant-baseline="central" transform="matrix(1 0 0 1 -106 -244)">«extend»</text></g></g><g><path fill="none" stroke="#000000" paint-order="fill stroke markers" d=" M 793 236 L 597 236" stroke-miterlimit="10" stroke-dasharray="3"/></g><g><path fill="none" stroke="#000000" paint-order="fill stroke markers" d=" M 607.1626748576241 231.790482243984 L 597 236 L 607.1626748576241 240.209517756016" stroke-miterlimit="10" stroke-dasharray=""/></g><g><rect fill="#ffffff" stroke="none" x="764" y="487" width="53.49169921875" height="13" transform="matrix(1 0 0 1 -106 -244)"/></g><g><g><path fill="none" stroke="none"/><text fill="#000000" stroke="none" font-family="Arial" font-size="13px" font-style="normal" font-weight="normal" text-decoration="undefined" x="790.745849609375" y="493.5" text-anchor="middle" dominant-baseline="central" transform="matrix(1 0 0 1 -106 -244)">«extend»</text></g></g><g><path fill="none" stroke="#000000" paint-order="fill stroke markers" d=" M 445 264 L 383 345" stroke-miterlimit="10" stroke-dasharray="3"/></g><g><path fill="none" stroke="#000000" paint-order="fill stroke markers" d=" M 385.8343236228039 334.37142485555023 L 383 345 L 392.5197070127531 339.4886318947706" stroke-miterlimit="10" stroke-dasharray=""/></g><g><rect fill="#ffffff" stroke="none" x="516" y="560" width="55.65625" height="13" transform="matrix(1 0 0 1 -106 -244)"/></g><g><g><path fill="none" stroke="none"/><text fill="#000000" stroke="none" font-family="Arial" font-size="13px" font-style="normal" font-weight="normal" text-decoration="undefined" x="543.828125" y="566.5" text-anchor="middle" dominant-baseline="central" transform="matrix(1 0 0 1 -106 -244)">«include»</text></g></g><g><path fill="none" stroke="#000000" paint-order="fill stroke markers" d=" M 496 264 L 582 345" stroke-miterlimit="10" stroke-dasharray="3"/></g><g><path fill="none" stroke="#000000" paint-order="fill stroke markers" d=" M 571.7159000331047 341.096503122724 L 582 345 L 577.4882322872704 334.9678540627456" stroke-miterlimit="10" stroke-dasharray=""/></g><g><rect fill="#ffffff" stroke="none" x="605" y="545" width="55.65625" height="13" transform="matrix(1 0 0 1 -106 -244)"/></g><g><g><path fill="none" stroke="none"/><text fill="#000000" stroke="none" font-family="Arial" font-size="13px" font-style="normal" font-weight="normal" text-decoration="undefined" x="632.828125" y="551.5" text-anchor="middle" dominant-baseline="central" transform="matrix(1 0 0 1 -106 -244)">«include»</text></g></g><g><path fill="none" stroke="#000000" paint-order="fill stroke markers" d=" M 337 230 L 162 222" stroke-miterlimit="10" stroke-dasharray=""/></g><g><path fill="#ffffff" stroke="none" paint-order="stroke fill markers" d=" M 242 130 L 367 130 L 377 140 L 377 193 L 242 193 L 242 130"/></g><g><path fill="none" stroke="#000000" paint-order="fill stroke markers" d=" M 242 130 L 367 130 L 377 140 L 377 193 L 242 193 L 242 130 L 242 130" stroke-miterlimit="10" stroke-dasharray=""/></g><g><path fill="none" stroke="#000000" paint-order="fill stroke markers" d=" M 367 130 L 367 140 L 377 140 L 367 130" stroke-miterlimit="10" stroke-dasharray=""/></g><g><g><path fill="none" stroke="none"/><text fill="#000000" stroke="none" font-family="Arial" font-size="13px" font-style="normal" font-weight="normal" text-decoration="undefined" x="416" y="385" text-anchor="middle" dominant-baseline="text-before-edge" transform="matrix(1 0 0 1 -106 -244)">Condizione:</text></g></g><g><g><path fill="none" stroke="none"/><text fill="#000000" stroke="none" font-family="Arial" font-size="13px" font-style="normal" font-weight="normal" text-decoration="undefined" x="416" y="400" text-anchor="middle" dominant-baseline="text-before-edge" transform="matrix(1 0 0 1 -106 -244)">L'utente ha inserito</text><text fill="#000000" stroke="none" font-family="Arial" font-size="13px" font-style="normal" font-weight="normal" text-decoration="undefined" x="416" y="413" text-anchor="middle" dominant-baseline="text-before-edge" transform="matrix(1 0 0 1 -106 -244)">credenziali errate</text></g></g><g><path fill="none" stroke="#000000" paint-order="fill stroke markers" d=" M 379 161 L 464 160" stroke-miterlimit="10" stroke-dasharray="3"/></g><g><path fill="#ffffff" stroke="none" paint-order="stroke fill markers" d=" M 594 66 L 719 66 L 729 76 L 729 144 L 594 144 L 594 66"/></g><g><path fill="none" stroke="#000000" paint-order="fill stroke markers" d=" M 594 66 L 719 66 L 729 76 L 729 144 L 594 144 L 594 66 L 594 66" stroke-miterlimit="10" stroke-dasharray=""/></g><g><path fill="none" stroke="#000000" paint-order="fill stroke markers" d=" M 719 66 L 719 76 L 729 76 L 719 66" stroke-miterlimit="10" stroke-dasharray=""/></g><g><g><path fill="none" stroke="none"/><text fill="#000000" stroke="none" font-family="Arial" font-size="13px" font-style="normal" font-weight="normal" text-decoration="undefined" x="768" y="315" text-anchor="middle" dominant-baseline="text-before-edge" transform="matrix(1 0 0 1 -106 -244)">Condizione:</text></g></g><g><g><path fill="none" stroke="none"/><text fill="#000000" stroke="none" font-family="Arial" font-size="13px" font-style="normal" font-weight="normal" text-decoration="undefined" x="768" y="330" text-anchor="middle" dominant-baseline="text-before-edge" transform="matrix(1 0 0 1 -106 -244)">L'utente ha inserito</text><text fill="#000000" stroke="none" font-family="Arial" font-size="13px" font-style="normal" font-weight="normal" text-decoration="undefined" x="768" y="343" text-anchor="middle" dominant-baseline="text-before-edge" transform="matrix(1 0 0 1 -106 -244)">delle credenziali</text><text fill="#000000" stroke="none" font-family="Arial" font-size="13px" font-style="normal" font-weight="normal" text-decoration="undefined" x="768" y="356" text-anchor="middle" dominant-baseline="text-before-edge" transform="matrix(1 0 0 1 -106 -244)">valide associate ad</text><text fill="#000000" stroke="none" font-family="Arial" font-size="13px" font-style="normal" font-weight="normal" text-decoration="undefined" x="768" y="369" text-anchor="middle" dominant-baseline="text-before-edge" transform="matrix(1 0 0 1 -106 -244)">un account sospeso</text></g></g><g><path fill="none" stroke="#000000" paint-order="fill stroke markers" d=" M 660 146 L 659 184" stroke-miterlimit="10" stroke-dasharray="3"/></g><g><path fill="#ffffff" stroke="none" paint-order="stroke fill markers" d=" M 754 282 L 879 282 L 889 292 L 889 373 L 754 373 L 754 282"/></g><g><path fill="none" stroke="#000000" paint-order="fill stroke markers" d=" M 754 282 L 879 282 L 889 292 L 889 373 L 754 373 L 754 282 L 754 282" stroke-miterlimit="10" stroke-dasharray=""/></g><g><path fill="none" stroke="#000000" paint-order="fill stroke markers" d=" M 879 282 L 879 292 L 889 292 L 879 282" stroke-miterlimit="10" stroke-dasharray=""/></g><g><g><path fill="none" stroke="none"/><text fill="#000000" stroke="none" font-family="Arial" font-size="13px" font-style="normal" font-weight="normal" text-decoration="undefined" x="928" y="531" text-anchor="middle" dominant-baseline="text-before-edge" transform="matrix(1 0 0 1 -106 -244)">Condizione:</text></g></g><g><g><path fill="none" stroke="none"/><text fill="#000000" stroke="none" font-family="Arial" font-size="13px" font-style="normal" font-weight="normal" text-decoration="undefined" x="928" y="546" text-anchor="middle" dominant-baseline="text-before-edge" transform="matrix(1 0 0 1 -106 -244)">L'utente ha inserito</text><text fill="#000000" stroke="none" font-family="Arial" font-size="13px" font-style="normal" font-weight="normal" text-decoration="undefined" x="928" y="559" text-anchor="middle" dominant-baseline="text-before-edge" transform="matrix(1 0 0 1 -106 -244)">delle credenziali</text><text fill="#000000" stroke="none" font-family="Arial" font-size="13px" font-style="normal" font-weight="normal" text-decoration="undefined" x="928" y="572" text-anchor="middle" dominant-baseline="text-before-edge" transform="matrix(1 0 0 1 -106 -244)">valide associate ad</text><text fill="#000000" stroke="none" font-family="Arial" font-size="13px" font-style="normal" font-weight="normal" text-decoration="undefined" x="928" y="585" text-anchor="middle" dominant-baseline="text-before-edge" transform="matrix(1 0 0 1 -106 -244)">un account con 2FA</text><text fill="#000000" stroke="none" font-family="Arial" font-size="13px" font-style="normal" font-weight="normal" text-decoration="undefined" x="928" y="598" text-anchor="middle" dominant-baseline="text-before-edge" transform="matrix(1 0 0 1 -106 -244)">attiva</text></g></g><g><path fill="none" stroke="#000000" paint-order="fill stroke markers" d=" M 757 281 L 695 236" stroke-miterlimit="10" stroke-dasharray="3"/></g></g></svg>