<svg version="1.1" xmlns="http://www.w3.org/2000/svg" xmlns:xlink="http://www.w3.org/1999/xlink" width="900" height="321"><defs/><g><g><path fill="#ffffff" stroke="none" paint-order="stroke fill markers" d=" M 76.57772460937503 123.85000000000002 C 76.57772460937503 118.96227952000004 80.53552697737501 115 85.417724609375 115 C 90.29992224137499 115 94.25772460937497 118.96227952000004 94.25772460937497 123.85000000000002 C 94.25772460937497 128.73772048 90.29992224137499 132.70000000000005 85.417724609375 132.70000000000005 C 80.53552697737501 132.70000000000005 76.57772460937503 128.73772048 76.57772460937503 123.85000000000002 Z"/></g><g><path fill="none" stroke="#000000" paint-order="fill stroke markers" d=" M 76.57772460937503 123.85000000000002 C 76.57772460937503 118.96227952000004 80.53552697737501 115 85.417724609375 115 C 90.29992224137499 115 94.25772460937497 118.96227952000004 94.25772460937497 123.85000000000002 C 94.25772460937497 128.73772048 90.29992224137499 132.70000000000005 85.417724609375 132.70000000000005 C 80.53552697737501 132.70000000000005 76.57772460937503 128.73772048 76.57772460937503 123.85000000000002 Z" stroke-miterlimit="10" stroke-dasharray=""/></g><g><path fill="none" stroke="#000000" paint-order="fill stroke markers" d=" M 85.417724609375 132.70000000000005 L 85.417724609375 150.29999999999995" stroke-miterlimit="10" stroke-dasharray=""/></g><g><path fill="none" stroke="#000000" paint-order="fill stroke markers" d=" M 76.05772460937499 139.29999999999995 L 94.77772460937501 139.29999999999995" stroke-miterlimit="10" stroke-dasharray=""/></g><g><path fill="none" stroke="#000000" paint-order="fill stroke markers" d=" M 85.417724609375 150.29999999999995 L 72.417724609375 168" stroke-miterlimit="10" stroke-dasharray=""/></g><g><path fill="none" stroke="#000000" paint-order="fill stroke markers" d=" M 85.417724609375 150.29999999999995 L 98.417724609375 168" stroke-miterlimit="10" stroke-dasharray=""/></g><g><g><path fill="none" stroke="none"/><text fill="#000000" stroke="none" font-family="Arial" font-size="13px" font-style="normal" font-weight="bold" text-decoration="undefined" x="284.917724609375" y="629.5" text-anchor="middle" dominant-baseline="central" transform="matrix(1 0 0 1 -199 -447)">Utente non autenticato</text></g></g><g><path fill="#C0C0C0" stroke="none" paint-order="stroke fill markers" d=" M 225 171.5 C 225 156.86445279999998 285.6654096 145 360.5 145 C 435.3345904 145 496 156.86445279999998 496 171.5 C 496 186.13554720000002 435.3345904 198 360.5 198 C 285.6654096 198 225 186.13554720000002 225 171.5 Z" fill-opacity="0.2"/></g><g><path fill="#ffffff" stroke="none" paint-order="stroke fill markers" d=" M 218 164.5 C 218 149.86445279999998 278.6654096 138 353.5 138 C 428.3345904 138 489 149.86445279999998 489 164.5 C 489 179.13554720000002 428.3345904 191 353.5 191 C 278.6654096 191 218 179.13554720000002 218 164.5 Z"/></g><g><path fill="none" stroke="#000000" paint-order="fill stroke markers" d=" M 218 164.5 C 218 149.86445279999998 278.6654096 138 353.5 138 C 428.3345904 138 489 149.86445279999998 489 164.5 C 489 179.13554720000002 428.3345904 191 353.5 191 C 278.6654096 191 218 179.13554720000002 218 164.5 Z" stroke-miterlimit="10" stroke-dasharray=""/></g><g><g><path fill="none" stroke="none"/><text fill="#000000" stroke="none" font-family="Arial" font-size="13px" font-style="normal" font-weight="bold" text-decoration="undefined" x="552.5" y="606" text-anchor="middle" dominant-baseline="central" transform="matrix(1 0 0 1 -199 -447)">UC10 - Password</text><text fill="#000000" stroke="none" font-family="Arial" font-size="13px" font-style="normal" font-weight="bold" text-decoration="undefined" x="552.5" y="619" text-anchor="middle" dominant-baseline="central" transform="matrix(1 0 0 1 -199 -447)">dimenticata</text></g></g><g><path fill="#C0C0C0" stroke="none" paint-order="stroke fill markers" d=" M 201 43.5 C 201 28.86445279999998 272.634432 17 361 17 C 449.36556799999994 17 521 28.86445279999998 521 43.5 C 521 58.13554720000002 449.36556799999994 70 361 70 C 272.634432 70 201 58.13554720000002 201 43.5 Z" fill-opacity="0.2"/></g><g><path fill="#ffffff" stroke="none" paint-order="stroke fill markers" d=" M 194 36.5 C 194 21.86445279999998 265.634432 10 354 10 C 442.36556799999994 10 514 21.86445279999998 514 36.5 C 514 51.13554720000002 442.36556799999994 63 354 63 C 265.634432 63 194 51.13554720000002 194 36.5 Z"/></g><g><path fill="none" stroke="#000000" paint-order="fill stroke markers" d=" M 194 36.5 C 194 21.86445279999998 265.634432 10 354 10 C 442.36556799999994 10 514 21.86445279999998 514 36.5 C 514 51.13554720000002 442.36556799999994 63 354 63 C 265.634432 63 194 51.13554720000002 194 36.5 Z" stroke-miterlimit="10" stroke-dasharray=""/></g><g><g><path fill="none" stroke="none"/><text fill="#000000" stroke="none" font-family="Arial" font-size="13px" font-style="normal" font-weight="bold" text-decoration="undefined" x="553" y="478" text-anchor="middle" dominant-baseline="central" transform="matrix(1 0 0 1 -199 -447)">UC11 - Indirizzo email non</text><text fill="#000000" stroke="none" font-family="Arial" font-size="13px" font-style="normal" font-weight="bold" text-decoration="undefined" x="553" y="491" text-anchor="middle" dominant-baseline="central" transform="matrix(1 0 0 1 -199 -447)">associato a nessun account</text></g></g><g><path fill="#C0C0C0" stroke="none" paint-order="stroke fill markers" d=" M 569 179.5 C 569 164.86445279999998 642.4252928 153 733 153 C 823.5747072 153 897 164.86445279999998 897 179.5 C 897 194.13554720000002 823.5747072 206 733 206 C 642.4252928 206 569 194.13554720000002 569 179.5 Z" fill-opacity="0.2"/></g><g><path fill="#ffffff" stroke="none" paint-order="stroke fill markers" d=" M 562 172.5 C 562 157.86445279999998 635.4252928 146 726 146 C 816.5747072 146 890 157.86445279999998 890 172.5 C 890 187.13554720000002 816.5747072 199 726 199 C 635.4252928 199 562 187.13554720000002 562 172.5 Z"/></g><g><path fill="none" stroke="#000000" paint-order="fill stroke markers" d=" M 562 172.5 C 562 157.86445279999998 635.4252928 146 726 146 C 816.5747072 146 890 157.86445279999998 890 172.5 C 890 187.13554720000002 816.5747072 199 726 199 C 635.4252928 199 562 187.13554720000002 562 172.5 Z" stroke-miterlimit="10" stroke-dasharray=""/></g><g><g><path fill="none" stroke="none"/><text fill="#000000" stroke="none" font-family="Arial" font-size="13px" font-style="normal" font-weight="bold" text-decoration="undefined" x="925" y="614" text-anchor="middle" dominant-baseline="central" transform="matrix(1 0 0 1 -199 -447)">UC10.1 - Inserimento indirizzo</text><text fill="#000000" stroke="none" font-family="Arial" font-size="13px" font-style="normal" font-weight="bold" text-decoration="undefined" x="925" y="627" text-anchor="middle" dominant-baseline="central" transform="matrix(1 0 0 1 -199 -447)">email</text></g></g><g><path fill="#C0C0C0" stroke="none" paint-order="stroke fill markers" d=" M 201 291.5 C 201 276.8644528 270.8435712 265 357 265 C 443.15642879999996 265 513 276.8644528 513 291.5 C 513 306.1355472 443.15642879999996 318 357 318 C 270.8435712 318 201 306.1355472 201 291.5 Z" fill-opacity="0.2"/></g><g><path fill="#ffffff" stroke="none" paint-order="stroke fill markers" d=" M 194 284.5 C 194 269.8644528 263.8435712 258 350 258 C 436.15642879999996 258 506 269.8644528 506 284.5 C 506 299.1355472 436.15642879999996 311 350 311 C 263.8435712 311 194 299.1355472 194 284.5 Z"/></g><g><path fill="none" stroke="#000000" paint-order="fill stroke markers" d=" M 194 284.5 C 194 269.8644528 263.8435712 258 350 258 C 436.15642879999996 258 506 269.8644528 506 284.5 C 506 299.1355472 436.15642879999996 311 350 311 C 263.8435712 311 194 299.1355472 194 284.5 Z" stroke-miterlimit="10" stroke-dasharray=""/></g><g><g><path fill="none" stroke="none"/><text fill="#000000" stroke="none" font-family="Arial" font-size="13px" font-style="normal" font-weight="bold" text-decoration="undefined" x="549" y="726" text-anchor="middle" dominant-baseline="central" transform="matrix(1 0 0 1 -199 -447)">UC10.2 - Invio email di</text><text fill="#000000" stroke="none" font-family="Arial" font-size="13px" font-style="normal" font-weight="bold" text-decoration="undefined" x="549" y="739" text-anchor="middle" dominant-baseline="central" transform="matrix(1 0 0 1 -199 -447)">reimpostazione password</text></g></g><g><path fill="none" stroke="#000000" paint-order="fill stroke markers" d=" M 354 64 L 353 137" stroke-miterlimit="10" stroke-dasharray="3"/></g><g><path fill="none" stroke="#000000" paint-order="fill stroke markers" d=" M 348.9300788155249 126.78061931660432 L 353 137 L 357.34832451231875 126.89593775080698" stroke-miterlimit="10" stroke-dasharray=""/></g><g><rect fill="#ffffff" stroke="none" x="555" y="540" width="53.49169921875" height="13" transform="matrix(1 0 0 1 -199 -447)"/></g><g><g><path fill="none" stroke="none"/><text fill="#000000" stroke="none" font-family="Arial" font-size="13px" font-style="normal" font-weight="normal" text-decoration="undefined" x="581.745849609375" y="546.5" text-anchor="middle" dominant-baseline="central" transform="matrix(1 0 0 1 -199 -447)">«extend»</text></g></g><g><path fill="none" stroke="#000000" paint-order="fill stroke markers" d=" M 490 167 L 561 168" stroke-miterlimit="10" stroke-dasharray="3"/></g><g><path fill="none" stroke="#000000" paint-order="fill stroke markers" d=" M 550.7790498916233 172.06597821957712 L 561 168 L 550.8976160969777 163.6477776394173" stroke-miterlimit="10" stroke-dasharray=""/></g><g><rect fill="#ffffff" stroke="none" x="689" y="593" width="55.65625" height="13" transform="matrix(1 0 0 1 -199 -447)"/></g><g><g><path fill="none" stroke="none"/><text fill="#000000" stroke="none" font-family="Arial" font-size="13px" font-style="normal" font-weight="normal" text-decoration="undefined" x="716.828125" y="599.5" text-anchor="middle" dominant-baseline="central" transform="matrix(1 0 0 1 -199 -447)">«include»</text></g></g><g><path fill="none" stroke="#000000" paint-order="fill stroke markers" d=" M 352 192 L 351 257" stroke-miterlimit="10" stroke-dasharray="3"/></g><g><path fill="none" stroke="#000000" paint-order="fill stroke markers" d=" M 346.9473106677766 246.77377346346748 L 351 257 L 355.3653500210745 246.90328176121045" stroke-miterlimit="10" stroke-dasharray=""/></g><g><rect fill="#ffffff" stroke="none" x="552" y="664" width="55.65625" height="13" transform="matrix(1 0 0 1 -199 -447)"/></g><g><g><path fill="none" stroke="none"/><text fill="#000000" stroke="none" font-family="Arial" font-size="13px" font-style="normal" font-weight="normal" text-decoration="undefined" x="579.828125" y="670.5" text-anchor="middle" dominant-baseline="central" transform="matrix(1 0 0 1 -199 -447)">«include»</text></g></g><g><path fill="none" stroke="#000000" paint-order="fill stroke markers" d=" M 217 159 L 162 157" stroke-miterlimit="10" stroke-dasharray=""/></g><g><path fill="#ffffff" stroke="none" paint-order="stroke fill markers" d=" M 554 10 L 679 10 L 689 20 L 689 127 L 554 127 L 554 10"/></g><g><path fill="none" stroke="#000000" paint-order="fill stroke markers" d=" M 554 10 L 679 10 L 689 20 L 689 127 L 554 127 L 554 10 L 554 10" stroke-miterlimit="10" stroke-dasharray=""/></g><g><path fill="none" stroke="#000000" paint-order="fill stroke markers" d=" M 679 10 L 679 20 L 689 20 L 679 10" stroke-miterlimit="10" stroke-dasharray=""/></g><g><g><path fill="none" stroke="none"/><text fill="#000000" stroke="none" font-family="Arial" font-size="13px" font-style="normal" font-weight="normal" text-decoration="undefined" x="821" y="462" text-anchor="middle" dominant-baseline="text-before-edge" transform="matrix(1 0 0 1 -199 -447)">Condizione:</text></g></g><g><g><path fill="none" stroke="none"/><text fill="#000000" stroke="none" font-family="Arial" font-size="13px" font-style="normal" font-weight="normal" text-decoration="undefined" x="821" y="477" text-anchor="middle" dominant-baseline="text-before-edge" transform="matrix(1 0 0 1 -199 -447)">L'utente ha inserito</text><text fill="#000000" stroke="none" font-family="Arial" font-size="13px" font-style="normal" font-weight="normal" text-decoration="undefined" x="821" y="490" text-anchor="middle" dominant-baseline="text-before-edge" transform="matrix(1 0 0 1 -199 -447)">un'email, per la</text><text fill="#000000" stroke="none" font-family="Arial" font-size="13px" font-style="normal" font-weight="normal" text-decoration="undefined" x="821" y="503" text-anchor="middle" dominant-baseline="text-before-edge" transform="matrix(1 0 0 1 -199 -447)">reimpostazione</text><text fill="#000000" stroke="none" font-family="Arial" font-size="13px" font-style="normal" font-weight="normal" text-decoration="undefined" x="821" y="516" text-anchor="middle" dominant-baseline="text-before-edge" transform="matrix(1 0 0 1 -199 -447)">password, che non è</text><text fill="#000000" stroke="none" font-family="Arial" font-size="13px" font-style="normal" font-weight="normal" text-decoration="undefined" x="821" y="529" text-anchor="middle" dominant-baseline="text-before-edge" transform="matrix(1 0 0 1 -199 -447)">associato a nessun</text><text fill="#000000" stroke="none" font-family="Arial" font-size="13px" font-style="normal" font-weight="normal" text-decoration="undefined" x="821" y="542" text-anchor="middle" dominant-baseline="text-before-edge" transform="matrix(1 0 0 1 -199 -447)">account nel Sistema</text></g></g><g><path fill="none" stroke="#000000" paint-order="fill stroke markers" d=" M 553 77 L 353 100" stroke-miterlimit="10" stroke-dasharray="3"/></g></g></svg>