<svg version="1.1" xmlns="http://www.w3.org/2000/svg" xmlns:xlink="http://www.w3.org/1999/xlink" width="806.4072265625" height="393"><defs/><g><g><rect fill="#C0C0C0" stroke="none" x="346" y="370" width="557" height="373" transform="matrix(1 0 0 1 -209 -353)" fill-opacity="0.2"/></g><g><rect fill="#ffffff" stroke="none" x="339" y="363" width="557" height="373" transform="matrix(1 0 0 1 -209 -353)"/></g><g><path fill="none" stroke="#000000" paint-order="fill stroke markers" d=" M 130 10 L 687 10 L 687 383 L 130 383 L 130 10 Z Z" stroke-miterlimit="10" stroke-dasharray=""/></g><g><g><path fill="none" stroke="none"/><text fill="#000000" stroke="none" font-family="Arial" font-size="13px" font-style="normal" font-weight="bold" text-decoration="undefined" x="618" y="376.5" text-anchor="middle" dominant-baseline="central" transform="matrix(1 0 0 1 -209 -353)">Sistema Cloud</text></g></g><g><path fill="#ffffff" stroke="none" paint-order="stroke fill markers" d=" M 744.36361328125 176.85000000000002 C 744.36361328125 171.96227952000004 748.32141564925 168 753.20361328125 168 C 758.08581091325 168 762.04361328125 171.96227952000004 762.04361328125 176.85000000000002 C 762.04361328125 181.73772048 758.08581091325 185.70000000000005 753.20361328125 185.70000000000005 C 748.32141564925 185.70000000000005 744.36361328125 181.73772048 744.36361328125 176.85000000000002 Z"/></g><g><path fill="none" stroke="#000000" paint-order="fill stroke markers" d=" M 744.36361328125 176.85000000000002 C 744.36361328125 171.96227952000004 748.32141564925 168 753.20361328125 168 C 758.08581091325 168 762.04361328125 171.96227952000004 762.04361328125 176.85000000000002 C 762.04361328125 181.73772048 758.08581091325 185.70000000000005 753.20361328125 185.70000000000005 C 748.32141564925 185.70000000000005 744.36361328125 181.73772048 744.36361328125 176.85000000000002 Z" stroke-miterlimit="10" stroke-dasharray=""/></g><g><path fill="none" stroke="#000000" paint-order="fill stroke markers" d=" M 753.20361328125 185.70000000000005 L 753.20361328125 203.29999999999995" stroke-miterlimit="10" stroke-dasharray=""/></g><g><path fill="none" stroke="#000000" paint-order="fill stroke markers" d=" M 743.84361328125 192.29999999999995 L 762.56361328125 192.29999999999995" stroke-miterlimit="10" stroke-dasharray=""/></g><g><path fill="none" stroke="#000000" paint-order="fill stroke markers" d=" M 753.20361328125 203.29999999999995 L 740.20361328125 221" stroke-miterlimit="10" stroke-dasharray=""/></g><g><path fill="none" stroke="#000000" paint-order="fill stroke markers" d=" M 753.20361328125 203.29999999999995 L 766.20361328125 221" stroke-miterlimit="10" stroke-dasharray=""/></g><g><g><path fill="none" stroke="none"/><text fill="#000000" stroke="none" font-family="Arial" font-size="13px" font-style="normal" font-weight="bold" text-decoration="undefined" x="962.70361328125" y="588.5" text-anchor="middle" dominant-baseline="central" transform="matrix(1 0 0 1 -209 -353)">Email Client</text></g></g><g><path fill="none" stroke="#000000" paint-order="fill stroke markers" d=" M 491 204 L 710 206" stroke-miterlimit="10" stroke-dasharray=""/></g><g><path fill="none" stroke="#000000" paint-order="fill stroke markers" d=" M 466 112 L 408 169" stroke-miterlimit="10" stroke-dasharray="3"/></g><g><path fill="none" stroke="#000000" paint-order="fill stroke markers" d=" M 412.2977263598774 158.8743124610911 L 408 169 L 418.1988937756921 164.8790091298148" stroke-miterlimit="10" stroke-dasharray=""/></g><g><rect fill="#ffffff" stroke="none" x="653" y="482" width="53.49169921875" height="13" transform="matrix(1 0 0 1 -209 -353)"/></g><g><g><path fill="none" stroke="none"/><text fill="#000000" stroke="none" font-family="Arial" font-size="13px" font-style="normal" font-weight="normal" text-decoration="undefined" x="679.745849609375" y="488.5" text-anchor="middle" dominant-baseline="central" transform="matrix(1 0 0 1 -209 -353)">«extend»</text></g></g><g><path fill="none" stroke="#000000" paint-order="fill stroke markers" d=" M 427 235 L 508 286" stroke-miterlimit="10" stroke-dasharray="3"/></g><g><path fill="none" stroke="#000000" paint-order="fill stroke markers" d=" M 497.1571238729392 284.14742414643376 L 508 286 L 501.64289771170877 277.0229598142705" stroke-miterlimit="10" stroke-dasharray=""/></g><g><rect fill="#ffffff" stroke="none" x="664" y="600" width="55.65625" height="13" transform="matrix(1 0 0 1 -209 -353)"/></g><g><g><path fill="none" stroke="none"/><text fill="#000000" stroke="none" font-family="Arial" font-size="13px" font-style="normal" font-weight="normal" text-decoration="undefined" x="691.828125" y="606.5" text-anchor="middle" dominant-baseline="central" transform="matrix(1 0 0 1 -209 -353)">«include»</text></g></g><g><path fill="none" stroke="#000000" paint-order="fill stroke markers" d=" M 356 235 L 332 278" stroke-miterlimit="10" stroke-dasharray="3"/></g><g><path fill="none" stroke="#000000" paint-order="fill stroke markers" d=" M 333.27720258206637 267.0743991668942 L 332 278 L 340.6286850443546 271.17755216910155" stroke-miterlimit="10" stroke-dasharray=""/></g><g><rect fill="#ffffff" stroke="none" x="536" y="600" width="55.65625" height="13" transform="matrix(1 0 0 1 -209 -353)"/></g><g><g><path fill="none" stroke="none"/><text fill="#000000" stroke="none" font-family="Arial" font-size="13px" font-style="normal" font-weight="normal" text-decoration="undefined" x="563.828125" y="606.5" text-anchor="middle" dominant-baseline="central" transform="matrix(1 0 0 1 -209 -353)">«include»</text></g></g><g><path fill="#C0C0C0" stroke="none" paint-order="stroke fill markers" d=" M 265 209 C 265 191.32688640000003 316.93496319999997 177 381 177 C 445.06503680000003 177 497 191.32688640000003 497 209 C 497 226.67311359999997 445.06503680000003 241 381 241 C 316.93496319999997 241 265 226.67311359999997 265 209 Z" fill-opacity="0.2"/></g><g><path fill="#ffffff" stroke="none" paint-order="stroke fill markers" d=" M 258 202 C 258 184.32688640000003 309.93496319999997 170 374 170 C 438.06503680000003 170 490 184.32688640000003 490 202 C 490 219.67311359999997 438.06503680000003 234 374 234 C 309.93496319999997 234 258 219.67311359999997 258 202 Z"/></g><g><path fill="none" stroke="#000000" paint-order="fill stroke markers" d=" M 258 202 C 258 184.32688640000003 309.93496319999997 170 374 170 C 438.06503680000003 170 490 184.32688640000003 490 202 C 490 219.67311359999997 438.06503680000003 234 374 234 C 309.93496319999997 234 258 219.67311359999997 258 202 Z" stroke-miterlimit="10" stroke-dasharray=""/></g><g><g><path fill="none" stroke="none"/><text fill="#000000" stroke="none" font-family="Arial" font-size="13px" font-style="normal" font-weight="bold" text-decoration="undefined" x="583" y="549.5" text-anchor="middle" dominant-baseline="central" transform="matrix(1 0 0 1 -209 -353)">UC109 - Creazione</text><text fill="#000000" stroke="none" font-family="Arial" font-size="13px" font-style="normal" font-weight="bold" text-decoration="undefined" x="583" y="562.5" text-anchor="middle" dominant-baseline="central" transform="matrix(1 0 0 1 -209 -353)">utente Tenant Admin</text></g></g><g><path fill="#C0C0C0" stroke="none" paint-order="stroke fill markers" d=" M 425 91.5 C 425 76.86445279999998 459.0263552 65 501 65 C 542.9736448 65 577 76.86445279999998 577 91.5 C 577 106.13554720000002 542.9736448 118 501 118 C 459.0263552 118 425 106.13554720000002 425 91.5 Z" fill-opacity="0.2"/></g><g><path fill="#ffffff" stroke="none" paint-order="stroke fill markers" d=" M 418 84.5 C 418 69.86445279999998 452.0263552 58 494 58 C 535.9736448 58 570 69.86445279999998 570 84.5 C 570 99.13554720000002 535.9736448 111 494 111 C 452.0263552 111 418 99.13554720000002 418 84.5 Z"/></g><g><path fill="none" stroke="#000000" paint-order="fill stroke markers" d=" M 418 84.5 C 418 69.86445279999998 452.0263552 58 494 58 C 535.9736448 58 570 69.86445279999998 570 84.5 C 570 99.13554720000002 535.9736448 111 494 111 C 452.0263552 111 418 99.13554720000002 418 84.5 Z" stroke-miterlimit="10" stroke-dasharray=""/></g><g><g><path fill="none" stroke="none"/><text fill="#000000" stroke="none" font-family="Arial" font-size="13px" font-style="normal" font-weight="bold" text-decoration="undefined" x="703" y="432" text-anchor="middle" dominant-baseline="central" transform="matrix(1 0 0 1 -209 -353)">UC33 - Email</text><text fill="#000000" stroke="none" font-family="Arial" font-size="13px" font-style="normal" font-weight="bold" text-decoration="undefined" x="703" y="445" text-anchor="middle" dominant-baseline="central" transform="matrix(1 0 0 1 -209 -353)">già utilizzata</text></g></g><g><path fill="#C0C0C0" stroke="none" paint-order="stroke fill markers" d=" M 470 320.5 C 470 305.8644528 509.39893759999995 294 558 294 C 606.6010624 294 646 305.8644528 646 320.5 C 646 335.1355472 606.6010624 347 558 347 C 509.39893759999995 347 470 335.1355472 470 320.5 Z" fill-opacity="0.2"/></g><g><path fill="#ffffff" stroke="none" paint-order="stroke fill markers" d=" M 463 313.5 C 463 298.8644528 502.39893759999995 287 551 287 C 599.6010624 287 639 298.8644528 639 313.5 C 639 328.1355472 599.6010624 340 551 340 C 502.39893759999995 340 463 328.1355472 463 313.5 Z"/></g><g><path fill="none" stroke="#000000" paint-order="fill stroke markers" d=" M 463 313.5 C 463 298.8644528 502.39893759999995 287 551 287 C 599.6010624 287 639 298.8644528 639 313.5 C 639 328.1355472 599.6010624 340 551 340 C 502.39893759999995 340 463 328.1355472 463 313.5 Z" stroke-miterlimit="10" stroke-dasharray=""/></g><g><g><path fill="none" stroke="none"/><text fill="#000000" stroke="none" font-family="Arial" font-size="13px" font-style="normal" font-weight="bold" text-decoration="undefined" x="760" y="661" text-anchor="middle" dominant-baseline="central" transform="matrix(1 0 0 1 -209 -353)">UC109.1 -</text><text fill="#000000" stroke="none" font-family="Arial" font-size="13px" font-style="normal" font-weight="bold" text-decoration="undefined" x="760" y="674" text-anchor="middle" dominant-baseline="central" transform="matrix(1 0 0 1 -209 -353)">Selezione tenant</text></g></g><g><path fill="#ffffff" stroke="none" paint-order="stroke fill markers" d=" M 46.607265625 168.85000000000002 C 46.607265625 163.96227952000004 50.565067993000014 160 55.447265625 160 C 60.329463256999986 160 64.28726562499997 163.96227952000004 64.28726562499997 168.85000000000002 C 64.28726562499997 173.73772048 60.329463256999986 177.70000000000005 55.447265625 177.70000000000005 C 50.565067993000014 177.70000000000005 46.607265625 173.73772048 46.607265625 168.85000000000002 Z"/></g><g><path fill="none" stroke="#000000" paint-order="fill stroke markers" d=" M 46.607265625 168.85000000000002 C 46.607265625 163.96227952000004 50.565067993000014 160 55.447265625 160 C 60.329463256999986 160 64.28726562499997 163.96227952000004 64.28726562499997 168.85000000000002 C 64.28726562499997 173.73772048 60.329463256999986 177.70000000000005 55.447265625 177.70000000000005 C 50.565067993000014 177.70000000000005 46.607265625 173.73772048 46.607265625 168.85000000000002 Z" stroke-miterlimit="10" stroke-dasharray=""/></g><g><path fill="none" stroke="#000000" paint-order="fill stroke markers" d=" M 55.447265625 177.70000000000005 L 55.447265625 195.29999999999995" stroke-miterlimit="10" stroke-dasharray=""/></g><g><path fill="none" stroke="#000000" paint-order="fill stroke markers" d=" M 46.087265624999986 184.29999999999995 L 64.80726562500001 184.29999999999995" stroke-miterlimit="10" stroke-dasharray=""/></g><g><path fill="none" stroke="#000000" paint-order="fill stroke markers" d=" M 55.447265625 195.29999999999995 L 42.447265625 213" stroke-miterlimit="10" stroke-dasharray=""/></g><g><path fill="none" stroke="#000000" paint-order="fill stroke markers" d=" M 55.447265625 195.29999999999995 L 68.447265625 213" stroke-miterlimit="10" stroke-dasharray=""/></g><g><g><path fill="none" stroke="none"/><text fill="#000000" stroke="none" font-family="Arial" font-size="13px" font-style="normal" font-weight="bold" text-decoration="undefined" x="264.947265625" y="580.5" text-anchor="middle" dominant-baseline="central" transform="matrix(1 0 0 1 -209 -353)">Super Admin</text></g></g><g><path fill="none" stroke="#000000" paint-order="fill stroke markers" d=" M 102 199 L 257 201" stroke-miterlimit="10" stroke-dasharray=""/></g><g><path fill="#ffffff" stroke="none" paint-order="stroke fill markers" d=" M 242 74 L 359.65625 74 L 369.65625 84 L 369.65625 150 L 242 150 L 242 74"/></g><g><path fill="none" stroke="#000000" paint-order="fill stroke markers" d=" M 242 74 L 359.65625 74 L 369.65625 84 L 369.65625 150 L 242 150 L 242 74 L 242 74" stroke-miterlimit="10" stroke-dasharray=""/></g><g><path fill="none" stroke="#000000" paint-order="fill stroke markers" d=" M 359.65625 74 L 359.65625 84 L 369.65625 84 L 359.65625 74" stroke-miterlimit="10" stroke-dasharray=""/></g><g><g><path fill="none" stroke="none"/><text fill="#000000" stroke="none" font-family="Arial" font-size="13px" font-style="normal" font-weight="normal" text-decoration="undefined" x="456" y="432" text-anchor="start" dominant-baseline="text-before-edge" transform="matrix(1 0 0 1 -209 -353)">Condizione: Il Super</text><text fill="#000000" stroke="none" font-family="Arial" font-size="13px" font-style="normal" font-weight="normal" text-decoration="undefined" x="456" y="445" text-anchor="start" dominant-baseline="text-before-edge" transform="matrix(1 0 0 1 -209 -353)">Admin ha inserito</text><text fill="#000000" stroke="none" font-family="Arial" font-size="13px" font-style="normal" font-weight="normal" text-decoration="undefined" x="456" y="458" text-anchor="start" dominant-baseline="text-before-edge" transform="matrix(1 0 0 1 -209 -353)">un'email già</text><text fill="#000000" stroke="none" font-family="Arial" font-size="13px" font-style="normal" font-weight="normal" text-decoration="undefined" x="456" y="471" text-anchor="start" dominant-baseline="text-before-edge" transform="matrix(1 0 0 1 -209 -353)">registrata nel</text><text fill="#000000" stroke="none" font-family="Arial" font-size="13px" font-style="normal" font-weight="normal" text-decoration="undefined" x="456" y="484" text-anchor="start" dominant-baseline="text-before-edge" transform="matrix(1 0 0 1 -209 -353)">Sistema</text></g></g><g><path fill="none" stroke="#000000" paint-order="fill stroke markers" d=" M 372 126 L 437 140" stroke-miterlimit="10" stroke-dasharray="3"/></g><g><path fill="#C0C0C0" stroke="none" paint-order="stroke fill markers" d=" M 206 322 C 206 302.11774720000005 256.1441024 286 318 286 C 379.85589760000005 286 430 302.11774720000005 430 322 C 430 341.88225279999995 379.85589760000005 358 318 358 C 256.1441024 358 206 341.88225279999995 206 322 Z" fill-opacity="0.2"/></g><g><path fill="#ffffff" stroke="none" paint-order="stroke fill markers" d=" M 199 315 C 199 295.11774720000005 249.1441024 279 311 279 C 372.85589760000005 279 423 295.11774720000005 423 315 C 423 334.88225279999995 372.85589760000005 351 311 351 C 249.1441024 351 199 334.88225279999995 199 315 Z"/></g><g><path fill="none" stroke="#000000" paint-order="fill stroke markers" d=" M 199 315 C 199 295.11774720000005 249.1441024 279 311 279 C 372.85589760000005 279 423 295.11774720000005 423 315 C 423 334.88225279999995 372.85589760000005 351 311 351 C 249.1441024 351 199 334.88225279999995 199 315 Z" stroke-miterlimit="10" stroke-dasharray=""/></g><g><g><path fill="none" stroke="none"/><text fill="#000000" stroke="none" font-family="Arial" font-size="13px" font-style="normal" font-weight="bold" text-decoration="undefined" x="520" y="656" text-anchor="middle" dominant-baseline="central" transform="matrix(1 0 0 1 -209 -353)">UC109.2 - Inserimento</text><text fill="#000000" stroke="none" font-family="Arial" font-size="13px" font-style="normal" font-weight="bold" text-decoration="undefined" x="520" y="669" text-anchor="middle" dominant-baseline="central" transform="matrix(1 0 0 1 -209 -353)">email nuovo Tenant</text><text fill="#000000" stroke="none" font-family="Arial" font-size="13px" font-style="normal" font-weight="bold" text-decoration="undefined" x="520" y="682" text-anchor="middle" dominant-baseline="central" transform="matrix(1 0 0 1 -209 -353)">Admin</text></g></g></g></svg>