<svg version="1.1" xmlns="http://www.w3.org/2000/svg" xmlns:xlink="http://www.w3.org/1999/xlink" width="929" height="364"><defs/><g><g><rect fill="#C0C0C0" stroke="none" x="586" y="397" width="716" height="344" transform="matrix(1 0 0 1 -377 -380)" fill-opacity="0.2"/></g><g><rect fill="#ffffff" stroke="none" x="579" y="390" width="716" height="344" transform="matrix(1 0 0 1 -377 -380)"/></g><g><path fill="none" stroke="#000000" paint-order="fill stroke markers" d=" M 202 10 L 918 10 L 918 354 L 202 354 L 202 10 Z Z" stroke-miterlimit="10" stroke-dasharray=""/></g><g><g><path fill="none" stroke="none"/><text fill="#000000" stroke="none" font-family="Arial" font-size="13px" font-style="normal" font-weight="bold" text-decoration="undefined" x="937.5" y="403.5" text-anchor="middle" dominant-baseline="central" transform="matrix(1 0 0 1 -377 -380)">Sistema Cloud</text></g></g><g><path fill="#ffffff" stroke="none" paint-order="stroke fill markers" d=" M 76.57772460937503 147.85000000000002 C 76.57772460937503 142.96227952000004 80.53552697737501 139 85.417724609375 139 C 90.29992224137499 139 94.25772460937497 142.96227952000004 94.25772460937497 147.85000000000002 C 94.25772460937497 152.73772048 90.29992224137499 156.70000000000005 85.417724609375 156.70000000000005 C 80.53552697737501 156.70000000000005 76.57772460937503 152.73772048 76.57772460937503 147.85000000000002 Z"/></g><g><path fill="none" stroke="#000000" paint-order="fill stroke markers" d=" M 76.57772460937503 147.85000000000002 C 76.57772460937503 142.96227952000004 80.53552697737501 139 85.417724609375 139 C 90.29992224137499 139 94.25772460937497 142.96227952000004 94.25772460937497 147.85000000000002 C 94.25772460937497 152.73772048 90.29992224137499 156.70000000000005 85.417724609375 156.70000000000005 C 80.53552697737501 156.70000000000005 76.57772460937503 152.73772048 76.57772460937503 147.85000000000002 Z" stroke-miterlimit="10" stroke-dasharray=""/></g><g><path fill="none" stroke="#000000" paint-order="fill stroke markers" d=" M 85.417724609375 156.70000000000005 L 85.417724609375 174.29999999999995" stroke-miterlimit="10" stroke-dasharray=""/></g><g><path fill="none" stroke="#000000" paint-order="fill stroke markers" d=" M 76.05772460937499 163.29999999999995 L 94.77772460937501 163.29999999999995" stroke-miterlimit="10" stroke-dasharray=""/></g><g><path fill="none" stroke="#000000" paint-order="fill stroke markers" d=" M 85.417724609375 174.29999999999995 L 72.417724609375 192" stroke-miterlimit="10" stroke-dasharray=""/></g><g><path fill="none" stroke="#000000" paint-order="fill stroke markers" d=" M 85.417724609375 174.29999999999995 L 98.417724609375 192" stroke-miterlimit="10" stroke-dasharray=""/></g><g><g><path fill="none" stroke="none"/><text fill="#000000" stroke="none" font-family="Arial" font-size="13px" font-style="normal" font-weight="bold" text-decoration="undefined" x="462.917724609375" y="586.5" text-anchor="middle" dominant-baseline="central" transform="matrix(1 0 0 1 -377 -380)">Utente non autenticato</text></g></g><g><path fill="#C0C0C0" stroke="none" paint-order="stroke fill markers" d=" M 273 195.5 C 273 180.86445279999998 333.6654096 169 408.5 169 C 483.3345904 169 544 180.86445279999998 544 195.5 C 544 210.13554720000002 483.3345904 222 408.5 222 C 333.6654096 222 273 210.13554720000002 273 195.5 Z" fill-opacity="0.2"/></g><g><path fill="#ffffff" stroke="none" paint-order="stroke fill markers" d=" M 266 188.5 C 266 173.86445279999998 326.6654096 162 401.5 162 C 476.3345904 162 537 173.86445279999998 537 188.5 C 537 203.13554720000002 476.3345904 215 401.5 215 C 326.6654096 215 266 203.13554720000002 266 188.5 Z"/></g><g><path fill="none" stroke="#000000" paint-order="fill stroke markers" d=" M 266 188.5 C 266 173.86445279999998 326.6654096 162 401.5 162 C 476.3345904 162 537 173.86445279999998 537 188.5 C 537 203.13554720000002 476.3345904 215 401.5 215 C 326.6654096 215 266 203.13554720000002 266 188.5 Z" stroke-miterlimit="10" stroke-dasharray=""/></g><g><g><path fill="none" stroke="none"/><text fill="#000000" stroke="none" font-family="Arial" font-size="13px" font-style="normal" font-weight="bold" text-decoration="undefined" x="778.5" y="563" text-anchor="middle" dominant-baseline="central" transform="matrix(1 0 0 1 -377 -380)">UC10 - Password</text><text fill="#000000" stroke="none" font-family="Arial" font-size="13px" font-style="normal" font-weight="bold" text-decoration="undefined" x="778.5" y="576" text-anchor="middle" dominant-baseline="central" transform="matrix(1 0 0 1 -377 -380)">dimenticata</text></g></g><g><path fill="#C0C0C0" stroke="none" paint-order="stroke fill markers" d=" M 249 67.5 C 249 52.86445279999998 320.63443200000006 41 409 41 C 497.36556799999994 41 569 52.86445279999998 569 67.5 C 569 82.13554720000002 497.36556799999994 94 409 94 C 320.63443200000006 94 249 82.13554720000002 249 67.5 Z" fill-opacity="0.2"/></g><g><path fill="#ffffff" stroke="none" paint-order="stroke fill markers" d=" M 242 60.5 C 242 45.86445279999998 313.63443200000006 34 402 34 C 490.36556799999994 34 562 45.86445279999998 562 60.5 C 562 75.13554720000002 490.36556799999994 87 402 87 C 313.63443200000006 87 242 75.13554720000002 242 60.5 Z"/></g><g><path fill="none" stroke="#000000" paint-order="fill stroke markers" d=" M 242 60.5 C 242 45.86445279999998 313.63443200000006 34 402 34 C 490.36556799999994 34 562 45.86445279999998 562 60.5 C 562 75.13554720000002 490.36556799999994 87 402 87 C 313.63443200000006 87 242 75.13554720000002 242 60.5 Z" stroke-miterlimit="10" stroke-dasharray=""/></g><g><g><path fill="none" stroke="none"/><text fill="#000000" stroke="none" font-family="Arial" font-size="13px" font-style="normal" font-weight="bold" text-decoration="undefined" x="779" y="435" text-anchor="middle" dominant-baseline="central" transform="matrix(1 0 0 1 -377 -380)">UC11 - Indirizzo email non</text><text fill="#000000" stroke="none" font-family="Arial" font-size="13px" font-style="normal" font-weight="bold" text-decoration="undefined" x="779" y="448" text-anchor="middle" dominant-baseline="central" transform="matrix(1 0 0 1 -377 -380)">associato a nessun account</text></g></g><g><path fill="#C0C0C0" stroke="none" paint-order="stroke fill markers" d=" M 617 203.5 C 617 188.86445279999998 676.0984063999999 177 749 177 C 821.9015936000001 177 881 188.86445279999998 881 203.5 C 881 218.13554720000002 821.9015936000001 230 749 230 C 676.0984063999999 230 617 218.13554720000002 617 203.5 Z" fill-opacity="0.2"/></g><g><path fill="#ffffff" stroke="none" paint-order="stroke fill markers" d=" M 610 196.5 C 610 181.86445279999998 669.0984063999999 170 742 170 C 814.9015936000001 170 874 181.86445279999998 874 196.5 C 874 211.13554720000002 814.9015936000001 223 742 223 C 669.0984063999999 223 610 211.13554720000002 610 196.5 Z"/></g><g><path fill="none" stroke="#000000" paint-order="fill stroke markers" d=" M 610 196.5 C 610 181.86445279999998 669.0984063999999 170 742 170 C 814.9015936000001 170 874 181.86445279999998 874 196.5 C 874 211.13554720000002 814.9015936000001 223 742 223 C 669.0984063999999 223 610 211.13554720000002 610 196.5 Z" stroke-miterlimit="10" stroke-dasharray=""/></g><g><g><path fill="none" stroke="none"/><text fill="#000000" stroke="none" font-family="Arial" font-size="13px" font-style="normal" font-weight="bold" text-decoration="undefined" x="1119" y="571" text-anchor="middle" dominant-baseline="central" transform="matrix(1 0 0 1 -377 -380)">UC10.1 - Inserimento</text><text fill="#000000" stroke="none" font-family="Arial" font-size="13px" font-style="normal" font-weight="bold" text-decoration="undefined" x="1119" y="584" text-anchor="middle" dominant-baseline="central" transform="matrix(1 0 0 1 -377 -380)">indirizzo email</text></g></g><g><path fill="#C0C0C0" stroke="none" paint-order="stroke fill markers" d=" M 249 315.5 C 249 300.8644528 318.84357120000004 289 405 289 C 491.15642879999996 289 561 300.8644528 561 315.5 C 561 330.1355472 491.15642879999996 342 405 342 C 318.84357120000004 342 249 330.1355472 249 315.5 Z" fill-opacity="0.2"/></g><g><path fill="#ffffff" stroke="none" paint-order="stroke fill markers" d=" M 242 308.5 C 242 293.8644528 311.84357120000004 282 398 282 C 484.15642879999996 282 554 293.8644528 554 308.5 C 554 323.1355472 484.15642879999996 335 398 335 C 311.84357120000004 335 242 323.1355472 242 308.5 Z"/></g><g><path fill="none" stroke="#000000" paint-order="fill stroke markers" d=" M 242 308.5 C 242 293.8644528 311.84357120000004 282 398 282 C 484.15642879999996 282 554 293.8644528 554 308.5 C 554 323.1355472 484.15642879999996 335 398 335 C 311.84357120000004 335 242 323.1355472 242 308.5 Z" stroke-miterlimit="10" stroke-dasharray=""/></g><g><g><path fill="none" stroke="none"/><text fill="#000000" stroke="none" font-family="Arial" font-size="13px" font-style="normal" font-weight="bold" text-decoration="undefined" x="775" y="683" text-anchor="middle" dominant-baseline="central" transform="matrix(1 0 0 1 -377 -380)">UC10.2 - Invio email di</text><text fill="#000000" stroke="none" font-family="Arial" font-size="13px" font-style="normal" font-weight="bold" text-decoration="undefined" x="775" y="696" text-anchor="middle" dominant-baseline="central" transform="matrix(1 0 0 1 -377 -380)">reimpostazione password</text></g></g><g><path fill="none" stroke="#000000" paint-order="fill stroke markers" d=" M 402 88 L 401 161" stroke-miterlimit="10" stroke-dasharray="3"/></g><g><path fill="none" stroke="#000000" paint-order="fill stroke markers" d=" M 396.9300788155249 150.78061931660432 L 401 161 L 405.34832451231875 150.89593775080698" stroke-miterlimit="10" stroke-dasharray=""/></g><g><rect fill="#ffffff" stroke="none" x="781" y="497" width="53.49169921875" height="13" transform="matrix(1 0 0 1 -377 -380)"/></g><g><g><path fill="none" stroke="none"/><text fill="#000000" stroke="none" font-family="Arial" font-size="13px" font-style="normal" font-weight="normal" text-decoration="undefined" x="807.745849609375" y="503.5" text-anchor="middle" dominant-baseline="central" transform="matrix(1 0 0 1 -377 -380)">«extend»</text></g></g><g><path fill="none" stroke="#000000" paint-order="fill stroke markers" d=" M 538 191 L 609 193" stroke-miterlimit="10" stroke-dasharray="3"/></g><g><path fill="none" stroke="#000000" paint-order="fill stroke markers" d=" M 598.7228238043909 196.92168961602113 L 609 193 L 598.9598856994386 188.50599234183323" stroke-miterlimit="10" stroke-dasharray=""/></g><g><rect fill="#ffffff" stroke="none" x="915" y="551" width="55.65625" height="13" transform="matrix(1 0 0 1 -377 -380)"/></g><g><g><path fill="none" stroke="none"/><text fill="#000000" stroke="none" font-family="Arial" font-size="13px" font-style="normal" font-weight="normal" text-decoration="undefined" x="942.828125" y="557.5" text-anchor="middle" dominant-baseline="central" transform="matrix(1 0 0 1 -377 -380)">«include»</text></g></g><g><path fill="none" stroke="#000000" paint-order="fill stroke markers" d=" M 400 216 L 399 281" stroke-miterlimit="10" stroke-dasharray="3"/></g><g><path fill="none" stroke="#000000" paint-order="fill stroke markers" d=" M 394.9473106677766 270.7737734634675 L 399 281 L 403.3653500210745 270.90328176121045" stroke-miterlimit="10" stroke-dasharray=""/></g><g><rect fill="#ffffff" stroke="none" x="778" y="621" width="55.65625" height="13" transform="matrix(1 0 0 1 -377 -380)"/></g><g><g><path fill="none" stroke="none"/><text fill="#000000" stroke="none" font-family="Arial" font-size="13px" font-style="normal" font-weight="normal" text-decoration="undefined" x="805.828125" y="627.5" text-anchor="middle" dominant-baseline="central" transform="matrix(1 0 0 1 -377 -380)">«include»</text></g></g><g><path fill="none" stroke="#000000" paint-order="fill stroke markers" d=" M 265 184 L 162 180" stroke-miterlimit="10" stroke-dasharray=""/></g><g><path fill="#ffffff" stroke="none" paint-order="stroke fill markers" d=" M 602 34 L 727 34 L 737 44 L 737 151 L 602 151 L 602 34"/></g><g><path fill="none" stroke="#000000" paint-order="fill stroke markers" d=" M 602 34 L 727 34 L 737 44 L 737 151 L 602 151 L 602 34 L 602 34" stroke-miterlimit="10" stroke-dasharray=""/></g><g><path fill="none" stroke="#000000" paint-order="fill stroke markers" d=" M 727 34 L 727 44 L 737 44 L 727 34" stroke-miterlimit="10" stroke-dasharray=""/></g><g><g><path fill="none" stroke="none"/><text fill="#000000" stroke="none" font-family="Arial" font-size="13px" font-style="normal" font-weight="normal" text-decoration="undefined" x="1047" y="419" text-anchor="middle" dominant-baseline="text-before-edge" transform="matrix(1 0 0 1 -377 -380)">Condizione:</text></g></g><g><g><path fill="none" stroke="none"/><text fill="#000000" stroke="none" font-family="Arial" font-size="13px" font-style="normal" font-weight="normal" text-decoration="undefined" x="1047" y="434" text-anchor="middle" dominant-baseline="text-before-edge" transform="matrix(1 0 0 1 -377 -380)">L'utente ha inserito</text><text fill="#000000" stroke="none" font-family="Arial" font-size="13px" font-style="normal" font-weight="normal" text-decoration="undefined" x="1047" y="447" text-anchor="middle" dominant-baseline="text-before-edge" transform="matrix(1 0 0 1 -377 -380)">un'email, per la</text><text fill="#000000" stroke="none" font-family="Arial" font-size="13px" font-style="normal" font-weight="normal" text-decoration="undefined" x="1047" y="460" text-anchor="middle" dominant-baseline="text-before-edge" transform="matrix(1 0 0 1 -377 -380)">reimpostazione</text><text fill="#000000" stroke="none" font-family="Arial" font-size="13px" font-style="normal" font-weight="normal" text-decoration="undefined" x="1047" y="473" text-anchor="middle" dominant-baseline="text-before-edge" transform="matrix(1 0 0 1 -377 -380)">password, che non è</text><text fill="#000000" stroke="none" font-family="Arial" font-size="13px" font-style="normal" font-weight="normal" text-decoration="undefined" x="1047" y="486" text-anchor="middle" dominant-baseline="text-before-edge" transform="matrix(1 0 0 1 -377 -380)">associato a nessun</text><text fill="#000000" stroke="none" font-family="Arial" font-size="13px" font-style="normal" font-weight="normal" text-decoration="undefined" x="1047" y="499" text-anchor="middle" dominant-baseline="text-before-edge" transform="matrix(1 0 0 1 -377 -380)">account nel Sistema</text></g></g><g><path fill="none" stroke="#000000" paint-order="fill stroke markers" d=" M 601 101 L 401 124" stroke-miterlimit="10" stroke-dasharray="3"/></g></g></svg>