<svg version="1.1" xmlns="http://www.w3.org/2000/svg" xmlns:xlink="http://www.w3.org/1999/xlink" width="917" height="452"><defs/><g><g><rect fill="#C0C0C0" stroke="none" x="477" y="320" width="696" height="432" transform="matrix(1 0 0 1 -260 -303)" fill-opacity="0.2"/></g><g><rect fill="#ffffff" stroke="none" x="470" y="313" width="696" height="432" transform="matrix(1 0 0 1 -260 -303)"/></g><g><path fill="none" stroke="#000000" paint-order="fill stroke markers" d=" M 210 10 L 906 10 L 906 442 L 210 442 L 210 10 Z Z" stroke-miterlimit="10" stroke-dasharray=""/></g><g><g><path fill="none" stroke="none"/><text fill="#000000" stroke="none" font-family="Arial" font-size="13px" font-style="normal" font-weight="bold" text-decoration="undefined" x="818.5" y="326.5" text-anchor="middle" dominant-baseline="central" transform="matrix(1 0 0 1 -260 -303)">Schermata d'autenticazione - Sistema</text></g></g><g><path fill="#ffffff" stroke="none" paint-order="stroke fill markers" d=" M 76.57772460937503 171.85000000000002 C 76.57772460937503 166.96227952000004 80.53552697737501 163 85.417724609375 163 C 90.29992224137499 163 94.25772460937497 166.96227952000004 94.25772460937497 171.85000000000002 C 94.25772460937497 176.73772048 90.29992224137499 180.7 85.417724609375 180.7 C 80.53552697737501 180.7 76.57772460937503 176.73772048 76.57772460937503 171.85000000000002 Z"/></g><g><path fill="none" stroke="#000000" paint-order="fill stroke markers" d=" M 76.57772460937503 171.85000000000002 C 76.57772460937503 166.96227952000004 80.53552697737501 163 85.417724609375 163 C 90.29992224137499 163 94.25772460937497 166.96227952000004 94.25772460937497 171.85000000000002 C 94.25772460937497 176.73772048 90.29992224137499 180.7 85.417724609375 180.7 C 80.53552697737501 180.7 76.57772460937503 176.73772048 76.57772460937503 171.85000000000002 Z" stroke-miterlimit="10" stroke-dasharray=""/></g><g><path fill="none" stroke="#000000" paint-order="fill stroke markers" d=" M 85.417724609375 180.7 L 85.417724609375 198.3" stroke-miterlimit="10" stroke-dasharray=""/></g><g><path fill="none" stroke="#000000" paint-order="fill stroke markers" d=" M 76.05772460937499 187.3 L 94.77772460937501 187.3" stroke-miterlimit="10" stroke-dasharray=""/></g><g><path fill="none" stroke="#000000" paint-order="fill stroke markers" d=" M 85.417724609375 198.3 L 72.417724609375 216" stroke-miterlimit="10" stroke-dasharray=""/></g><g><path fill="none" stroke="#000000" paint-order="fill stroke markers" d=" M 85.417724609375 198.3 L 98.417724609375 216" stroke-miterlimit="10" stroke-dasharray=""/></g><g><g><path fill="none" stroke="none"/><text fill="#000000" stroke="none" font-family="Arial" font-size="13px" font-style="normal" font-weight="bold" text-decoration="undefined" x="345.917724609375" y="533.5" text-anchor="middle" dominant-baseline="central" transform="matrix(1 0 0 1 -260 -303)">Utente non autenticato</text></g></g><g><path fill="#C0C0C0" stroke="none" paint-order="stroke fill markers" d=" M 321 224.5 C 321 209.86445279999998 371.14410239999995 198 433 198 C 494.85589760000005 198 545 209.86445279999998 545 224.5 C 545 239.13554720000002 494.85589760000005 251 433 251 C 371.14410239999995 251 321 239.13554720000002 321 224.5 Z" fill-opacity="0.2"/></g><g><path fill="#ffffff" stroke="none" paint-order="stroke fill markers" d=" M 314 217.5 C 314 202.86445279999998 364.14410239999995 191 426 191 C 487.85589760000005 191 538 202.86445279999998 538 217.5 C 538 232.13554720000002 487.85589760000005 244 426 244 C 364.14410239999995 244 314 232.13554720000002 314 217.5 Z"/></g><g><path fill="none" stroke="#000000" paint-order="fill stroke markers" d=" M 314 217.5 C 314 202.86445279999998 364.14410239999995 191 426 191 C 487.85589760000005 191 538 202.86445279999998 538 217.5 C 538 232.13554720000002 487.85589760000005 244 426 244 C 364.14410239999995 244 314 232.13554720000002 314 217.5 Z" stroke-miterlimit="10" stroke-dasharray=""/></g><g><g><path fill="none" stroke="none"/><text fill="#000000" stroke="none" font-family="Arial" font-size="13px" font-style="normal" font-weight="bold" text-decoration="undefined" x="686" y="515" text-anchor="middle" dominant-baseline="central" transform="matrix(1 0 0 1 -260 -303)">UC10 - Password</text><text fill="#000000" stroke="none" font-family="Arial" font-size="13px" font-style="normal" font-weight="bold" text-decoration="undefined" x="686" y="528" text-anchor="middle" dominant-baseline="central" transform="matrix(1 0 0 1 -260 -303)">dimenticata</text></g></g><g><path fill="#C0C0C0" stroke="none" paint-order="stroke fill markers" d=" M 273 115.5 C 273 100.86445279999998 350.0070144 89 445 89 C 539.9929856 89 617 100.86445279999998 617 115.5 C 617 130.13554720000002 539.9929856 142 445 142 C 350.0070144 142 273 130.13554720000002 273 115.5 Z" fill-opacity="0.2"/></g><g><path fill="#ffffff" stroke="none" paint-order="stroke fill markers" d=" M 266 108.5 C 266 93.86445279999998 343.0070144 82 438 82 C 532.9929856 82 610 93.86445279999998 610 108.5 C 610 123.13554720000002 532.9929856 135 438 135 C 343.0070144 135 266 123.13554720000002 266 108.5 Z"/></g><g><path fill="none" stroke="#000000" paint-order="fill stroke markers" d=" M 266 108.5 C 266 93.86445279999998 343.0070144 82 438 82 C 532.9929856 82 610 93.86445279999998 610 108.5 C 610 123.13554720000002 532.9929856 135 438 135 C 343.0070144 135 266 123.13554720000002 266 108.5 Z" stroke-miterlimit="10" stroke-dasharray=""/></g><g><g><path fill="none" stroke="none"/><text fill="#000000" stroke="none" font-family="Arial" font-size="13px" font-style="normal" font-weight="bold" text-decoration="undefined" x="698" y="406" text-anchor="middle" dominant-baseline="central" transform="matrix(1 0 0 1 -260 -303)">UC11 - Indirizzo email non associato</text><text fill="#000000" stroke="none" font-family="Arial" font-size="13px" font-style="normal" font-weight="bold" text-decoration="undefined" x="698" y="419" text-anchor="middle" dominant-baseline="central" transform="matrix(1 0 0 1 -260 -303)">a nessun account</text></g></g><g><path fill="#C0C0C0" stroke="none" paint-order="stroke fill markers" d=" M 313 347.5 C 313 332.8644528 381.0527104 321 465 321 C 548.9472896 321 617 332.8644528 617 347.5 C 617 362.1355472 548.9472896 374 465 374 C 381.0527104 374 313 362.1355472 313 347.5 Z" fill-opacity="0.2"/></g><g><path fill="#ffffff" stroke="none" paint-order="stroke fill markers" d=" M 306 340.5 C 306 325.8644528 374.0527104 314 458 314 C 541.9472896 314 610 325.8644528 610 340.5 C 610 355.1355472 541.9472896 367 458 367 C 374.0527104 367 306 355.1355472 306 340.5 Z"/></g><g><path fill="none" stroke="#000000" paint-order="fill stroke markers" d=" M 306 340.5 C 306 325.8644528 374.0527104 314 458 314 C 541.9472896 314 610 325.8644528 610 340.5 C 610 355.1355472 541.9472896 367 458 367 C 374.0527104 367 306 355.1355472 306 340.5 Z" stroke-miterlimit="10" stroke-dasharray=""/></g><g><g><path fill="none" stroke="none"/><text fill="#000000" stroke="none" font-family="Arial" font-size="13px" font-style="normal" font-weight="bold" text-decoration="undefined" x="718" y="638" text-anchor="middle" dominant-baseline="central" transform="matrix(1 0 0 1 -260 -303)">UC10.2 - Invio email di</text><text fill="#000000" stroke="none" font-family="Arial" font-size="13px" font-style="normal" font-weight="bold" text-decoration="undefined" x="718" y="651" text-anchor="middle" dominant-baseline="central" transform="matrix(1 0 0 1 -260 -303)">reimpostazione password</text></g></g><g><path fill="none" stroke="#000000" paint-order="fill stroke markers" d=" M 435 136 L 429 190" stroke-miterlimit="10" stroke-dasharray="3"/></g><g><path fill="none" stroke="#000000" paint-order="fill stroke markers" d=" M 425.93850846500584 179.4346192883948 L 429 190 L 434.30605092205394 180.36434622806684" stroke-miterlimit="10" stroke-dasharray=""/></g><g><rect fill="#ffffff" stroke="none" x="695" y="463" width="53.49169921875" height="13" transform="matrix(1 0 0 1 -260 -303)"/></g><g><g><path fill="none" stroke="none"/><text fill="#000000" stroke="none" font-family="Arial" font-size="13px" font-style="normal" font-weight="normal" text-decoration="undefined" x="721.745849609375" y="469.5" text-anchor="middle" dominant-baseline="central" transform="matrix(1 0 0 1 -260 -303)">«extend»</text></g></g><g><path fill="none" stroke="#000000" paint-order="fill stroke markers" d=" M 539 218 L 633 219" stroke-miterlimit="10" stroke-dasharray="3"/></g><g><path fill="none" stroke="#000000" paint-order="fill stroke markers" d=" M 622.7931205957768 223.10117212850741 L 633 219 L 622.8826797356397 214.68261298140135" stroke-miterlimit="10" stroke-dasharray=""/></g><g><rect fill="#ffffff" stroke="none" x="810" y="501" width="55.65625" height="13" transform="matrix(1 0 0 1 -260 -303)"/></g><g><g><path fill="none" stroke="none"/><text fill="#000000" stroke="none" font-family="Arial" font-size="13px" font-style="normal" font-weight="normal" text-decoration="undefined" x="837.828125" y="507.5" text-anchor="middle" dominant-baseline="central" transform="matrix(1 0 0 1 -260 -303)">«include»</text></g></g><g><path fill="none" stroke="#000000" paint-order="fill stroke markers" d=" M 433 245 L 451 313" stroke-miterlimit="10" stroke-dasharray="3"/></g><g><path fill="none" stroke="#000000" paint-order="fill stroke markers" d=" M 444.33008428950416 304.2528733623618 L 451 313 L 452.46880993253717 302.09850480979424" stroke-miterlimit="10" stroke-dasharray=""/></g><g><rect fill="#ffffff" stroke="none" x="704" y="568" width="55.65625" height="13" transform="matrix(1 0 0 1 -260 -303)"/></g><g><g><path fill="none" stroke="none"/><text fill="#000000" stroke="none" font-family="Arial" font-size="13px" font-style="normal" font-weight="normal" text-decoration="undefined" x="731.828125" y="574.5" text-anchor="middle" dominant-baseline="central" transform="matrix(1 0 0 1 -260 -303)">«include»</text></g></g><g><path fill="none" stroke="#000000" paint-order="fill stroke markers" d=" M 313 212 L 162 205" stroke-miterlimit="10" stroke-dasharray=""/></g><g><path fill="#C0C0C0" stroke="none" paint-order="stroke fill markers" d=" M 641 227.5 C 641 212.86445279999998 689.3532416 201 749 201 C 808.6467584 201 857 212.86445279999998 857 227.5 C 857 242.13554720000002 808.6467584 254 749 254 C 689.3532416 254 641 242.13554720000002 641 227.5 Z" fill-opacity="0.2"/></g><g><path fill="#ffffff" stroke="none" paint-order="stroke fill markers" d=" M 634 220.5 C 634 205.86445279999998 682.3532416 194 742 194 C 801.6467584 194 850 205.86445279999998 850 220.5 C 850 235.13554720000002 801.6467584 247 742 247 C 682.3532416 247 634 235.13554720000002 634 220.5 Z"/></g><g><path fill="none" stroke="#000000" paint-order="fill stroke markers" d=" M 634 220.5 C 634 205.86445279999998 682.3532416 194 742 194 C 801.6467584 194 850 205.86445279999998 850 220.5 C 850 235.13554720000002 801.6467584 247 742 247 C 682.3532416 247 634 235.13554720000002 634 220.5 Z" stroke-miterlimit="10" stroke-dasharray=""/></g><g><g><path fill="none" stroke="none"/><text fill="#000000" stroke="none" font-family="Arial" font-size="13px" font-style="normal" font-weight="bold" text-decoration="undefined" x="1002" y="518" text-anchor="middle" dominant-baseline="central" transform="matrix(1 0 0 1 -260 -303)">UC10.1 - Inserimento</text><text fill="#000000" stroke="none" font-family="Arial" font-size="13px" font-style="normal" font-weight="bold" text-decoration="undefined" x="1002" y="531" text-anchor="middle" dominant-baseline="central" transform="matrix(1 0 0 1 -260 -303)">indirizzo email</text></g></g></g></svg>