<svg version="1.1" xmlns="http://www.w3.org/2000/svg" xmlns:xlink="http://www.w3.org/1999/xlink" width="661" height="324"><defs/><g><g><rect fill="#C0C0C0" stroke="none" x="166" y="24" width="496" height="304" transform="matrix(1 0 0 1 -5 -7)" fill-opacity="0.2"/></g><g><rect fill="#ffffff" stroke="none" x="159" y="17" width="496" height="304" transform="matrix(1 0 0 1 -5 -7)"/></g><g><path fill="none" stroke="#000000" paint-order="fill stroke markers" d=" M 154 10 L 650 10 L 650 314 L 154 314 L 154 10 Z Z" stroke-miterlimit="10" stroke-dasharray=""/></g><g><g><path fill="none" stroke="none"/><text fill="#000000" stroke="none" font-family="Arial" font-size="13px" font-style="normal" font-weight="bold" text-decoration="undefined" x="407.5" y="30.5" text-anchor="middle" dominant-baseline="central" transform="matrix(1 0 0 1 -5 -7)">Sistema cloud</text></g></g><g><path fill="#ffffff" stroke="none" paint-order="stroke fill markers" d=" M 47.930751953125 59.849999999999994 C 47.930751953125 54.962279519999996 51.888554321125 51 56.770751953125 51 C 61.652949585125 51 65.610751953125 54.962279519999996 65.610751953125 59.849999999999994 C 65.610751953125 64.73772048 61.652949585125 68.7 56.770751953125 68.7 C 51.888554321125 68.7 47.930751953125 64.73772048 47.930751953125 59.849999999999994 Z"/></g><g><path fill="none" stroke="#000000" paint-order="fill stroke markers" d=" M 47.930751953125 59.849999999999994 C 47.930751953125 54.962279519999996 51.888554321125 51 56.770751953125 51 C 61.652949585125 51 65.610751953125 54.962279519999996 65.610751953125 59.849999999999994 C 65.610751953125 64.73772048 61.652949585125 68.7 56.770751953125 68.7 C 51.888554321125 68.7 47.930751953125 64.73772048 47.930751953125 59.849999999999994 Z" stroke-miterlimit="10" stroke-dasharray=""/></g><g><path fill="none" stroke="#000000" paint-order="fill stroke markers" d=" M 56.770751953125 68.7 L 56.770751953125 86.3" stroke-miterlimit="10" stroke-dasharray=""/></g><g><path fill="none" stroke="#000000" paint-order="fill stroke markers" d=" M 47.410751953125 75.3 L 66.130751953125 75.3" stroke-miterlimit="10" stroke-dasharray=""/></g><g><path fill="none" stroke="#000000" paint-order="fill stroke markers" d=" M 56.770751953125 86.3 L 43.770751953125 104" stroke-miterlimit="10" stroke-dasharray=""/></g><g><path fill="none" stroke="#000000" paint-order="fill stroke markers" d=" M 56.770751953125 86.3 L 69.770751953125 104" stroke-miterlimit="10" stroke-dasharray=""/></g><g><g><path fill="none" stroke="none"/><text fill="#000000" stroke="none" font-family="Arial" font-size="13px" font-style="normal" font-weight="bold" text-decoration="undefined" x="62.270751953125" y="125.5" text-anchor="middle" dominant-baseline="central" transform="matrix(1 0 0 1 -5 -7)">Tenant admin</text></g></g><g><path fill="#C0C0C0" stroke="none" paint-order="stroke fill markers" d=" M 209 103 C 209 73.1766208 251.9806592 49 305 49 C 358.0193408 49 401 73.1766208 401 103 C 401 132.8233792 358.0193408 157 305 157 C 251.9806592 157 209 132.8233792 209 103 Z" fill-opacity="0.2"/></g><g><path fill="#ffffff" stroke="none" paint-order="stroke fill markers" d=" M 202 96 C 202 66.1766208 244.9806592 42 298 42 C 351.0193408 42 394 66.1766208 394 96 C 394 125.8233792 351.0193408 150 298 150 C 244.9806592 150 202 125.8233792 202 96 Z"/></g><g><path fill="none" stroke="#000000" paint-order="fill stroke markers" d=" M 202 96 C 202 66.1766208 244.9806592 42 298 42 C 351.0193408 42 394 66.1766208 394 96 C 394 125.8233792 351.0193408 150 298 150 C 244.9806592 150 202 125.8233792 202 96 Z" stroke-miterlimit="10" stroke-dasharray=""/></g><g><g><path fill="none" stroke="none"/><text fill="#000000" stroke="none" font-family="Arial" font-size="13px" font-style="normal" font-weight="bold" text-decoration="undefined" x="303" y="78" text-anchor="middle" dominant-baseline="central" transform="matrix(1 0 0 1 -5 -7)">UC109 -</text><text fill="#000000" stroke="none" font-family="Arial" font-size="13px" font-style="normal" font-weight="bold" text-decoration="undefined" x="303" y="91" text-anchor="middle" dominant-baseline="central" transform="matrix(1 0 0 1 -5 -7)">Visualizzazione</text><text fill="#000000" stroke="none" font-family="Arial" font-size="13px" font-style="normal" font-weight="bold" text-decoration="undefined" x="303" y="104" text-anchor="middle" dominant-baseline="central" transform="matrix(1 0 0 1 -5 -7)">richiesta di</text><text fill="#000000" stroke="none" font-family="Arial" font-size="13px" font-style="normal" font-weight="bold" text-decoration="undefined" x="303" y="117" text-anchor="middle" dominant-baseline="central" transform="matrix(1 0 0 1 -5 -7)">commissioning</text><text fill="#000000" stroke="none" font-family="Arial" font-size="13px" font-style="normal" font-weight="bold" text-decoration="undefined" x="303" y="130" text-anchor="middle" dominant-baseline="central" transform="matrix(1 0 0 1 -5 -7)">Gateway</text></g></g><g><path fill="#C0C0C0" stroke="none" paint-order="stroke fill markers" d=" M 489 102 C 489 77.147184 522.1309248 57 563 57 C 603.8690752 57 637 77.147184 637 102 C 637 126.85281599999999 603.8690752 147 563 147 C 522.1309248 147 489 126.85281599999999 489 102 Z" fill-opacity="0.2"/></g><g><path fill="#ffffff" stroke="none" paint-order="stroke fill markers" d=" M 482 95 C 482 70.147184 515.1309248 50 556 50 C 596.8690752 50 630 70.147184 630 95 C 630 119.852816 596.8690752 140 556 140 C 515.1309248 140 482 119.852816 482 95 Z"/></g><g><path fill="none" stroke="#000000" paint-order="fill stroke markers" d=" M 482 95 C 482 70.147184 515.1309248 50 556 50 C 596.8690752 50 630 70.147184 630 95 C 630 119.852816 596.8690752 140 556 140 C 515.1309248 140 482 119.852816 482 95 Z" stroke-miterlimit="10" stroke-dasharray=""/></g><g><g><path fill="none" stroke="none"/><text fill="#000000" stroke="none" font-family="Arial" font-size="13px" font-style="normal" font-weight="bold" text-decoration="undefined" x="561" y="83.5" text-anchor="middle" dominant-baseline="central" transform="matrix(1 0 0 1 -5 -7)">UC109.1 -</text><text fill="#000000" stroke="none" font-family="Arial" font-size="13px" font-style="normal" font-weight="bold" text-decoration="undefined" x="561" y="96.5" text-anchor="middle" dominant-baseline="central" transform="matrix(1 0 0 1 -5 -7)">Visualizzazione</text><text fill="#000000" stroke="none" font-family="Arial" font-size="13px" font-style="normal" font-weight="bold" text-decoration="undefined" x="561" y="109.5" text-anchor="middle" dominant-baseline="central" transform="matrix(1 0 0 1 -5 -7)">data e ora</text><text fill="#000000" stroke="none" font-family="Arial" font-size="13px" font-style="normal" font-weight="bold" text-decoration="undefined" x="561" y="122.5" text-anchor="middle" dominant-baseline="central" transform="matrix(1 0 0 1 -5 -7)">richiesta</text></g></g><g><path fill="#C0C0C0" stroke="none" paint-order="stroke fill markers" d=" M 169 238 C 169 213.147184 206.6080768 193 253 193 C 299.3919232 193 337 213.147184 337 238 C 337 262.852816 299.3919232 283 253 283 C 206.6080768 283 169 262.852816 169 238 Z" fill-opacity="0.2"/></g><g><path fill="#ffffff" stroke="none" paint-order="stroke fill markers" d=" M 162 231 C 162 206.147184 199.6080768 186 246 186 C 292.3919232 186 330 206.147184 330 231 C 330 255.85281600000002 292.3919232 276 246 276 C 199.6080768 276 162 255.85281600000002 162 231 Z"/></g><g><path fill="none" stroke="#000000" paint-order="fill stroke markers" d=" M 162 231 C 162 206.147184 199.6080768 186 246 186 C 292.3919232 186 330 206.147184 330 231 C 330 255.85281600000002 292.3919232 276 246 276 C 199.6080768 276 162 255.85281600000002 162 231 Z" stroke-miterlimit="10" stroke-dasharray=""/></g><g><g><path fill="none" stroke="none"/><text fill="#000000" stroke="none" font-family="Arial" font-size="13px" font-style="normal" font-weight="bold" text-decoration="undefined" x="251" y="219.5" text-anchor="middle" dominant-baseline="central" transform="matrix(1 0 0 1 -5 -7)">UC109.3 -</text><text fill="#000000" stroke="none" font-family="Arial" font-size="13px" font-style="normal" font-weight="bold" text-decoration="undefined" x="251" y="232.5" text-anchor="middle" dominant-baseline="central" transform="matrix(1 0 0 1 -5 -7)">Visualizzazione</text><text fill="#000000" stroke="none" font-family="Arial" font-size="13px" font-style="normal" font-weight="bold" text-decoration="undefined" x="251" y="245.5" text-anchor="middle" dominant-baseline="central" transform="matrix(1 0 0 1 -5 -7)">numero di</text><text fill="#000000" stroke="none" font-family="Arial" font-size="13px" font-style="normal" font-weight="bold" text-decoration="undefined" x="251" y="258.5" text-anchor="middle" dominant-baseline="central" transform="matrix(1 0 0 1 -5 -7)">gateway richiesti</text></g></g><g><path fill="none" stroke="#000000" paint-order="fill stroke markers" d=" M 395 96 L 481 95" stroke-miterlimit="10" stroke-dasharray="3"/></g><g><path fill="none" stroke="#000000" paint-order="fill stroke markers" d=" M 470.8869566834476 99.3273958540367 L 481 95 L 470.7890675391646 90.90892944570038" stroke-miterlimit="10" stroke-dasharray=""/></g><g><rect fill="#ffffff" stroke="none" x="416" y="66" width="55.65625" height="13" transform="matrix(1 0 0 1 -5 -7)"/></g><g><g><path fill="none" stroke="none"/><text fill="#000000" stroke="none" font-family="Arial" font-size="13px" font-style="normal" font-weight="normal" text-decoration="undefined" x="443.828125" y="72.5" text-anchor="middle" dominant-baseline="central" transform="matrix(1 0 0 1 -5 -7)">«include»</text></g></g><g><path fill="none" stroke="#000000" paint-order="fill stroke markers" d=" M 277 151 L 264 185" stroke-miterlimit="10" stroke-dasharray="3"/></g><g><path fill="none" stroke="#000000" paint-order="fill stroke markers" d=" M 263.6975641652981 174.0041583966534 L 264 185 L 271.56137973298803 177.01091140782893" stroke-miterlimit="10" stroke-dasharray=""/></g><g><rect fill="#ffffff" stroke="none" x="276" y="178" width="55.65625" height="13" transform="matrix(1 0 0 1 -5 -7)"/></g><g><g><path fill="none" stroke="none"/><text fill="#000000" stroke="none" font-family="Arial" font-size="13px" font-style="normal" font-weight="normal" text-decoration="undefined" x="303.828125" y="184.5" text-anchor="middle" dominant-baseline="central" transform="matrix(1 0 0 1 -5 -7)">«include»</text></g></g><g><path fill="none" stroke="#000000" paint-order="fill stroke markers" d=" M 356 151 L 392 185" stroke-miterlimit="10" stroke-dasharray="3"/></g><g><path fill="none" stroke="#000000" paint-order="fill stroke markers" d=" M 381.7212477597107 181.08244305941218 L 392 185 L 387.5019556671291 174.96169351038094" stroke-miterlimit="10" stroke-dasharray=""/></g><g><rect fill="#ffffff" stroke="none" x="372" y="147" width="55.65625" height="13" transform="matrix(1 0 0 1 -5 -7)"/></g><g><g><path fill="none" stroke="none"/><text fill="#000000" stroke="none" font-family="Arial" font-size="13px" font-style="normal" font-weight="normal" text-decoration="undefined" x="399.828125" y="153.5" text-anchor="middle" dominant-baseline="central" transform="matrix(1 0 0 1 -5 -7)">«include»</text></g></g><g><path fill="none" stroke="#000000" paint-order="fill stroke markers" d=" M 105 91 L 201 94" stroke-miterlimit="10" stroke-dasharray=""/></g><g><path fill="#C0C0C0" stroke="none" paint-order="stroke fill markers" d=" M 377 247 C 377 217.1766208 412.81721600000003 193 457 193 C 501.18278399999997 193 537 217.1766208 537 247 C 537 276.8233792 501.18278399999997 301 457 301 C 412.81721600000003 301 377 276.8233792 377 247 Z" fill-opacity="0.2"/></g><g><path fill="#ffffff" stroke="none" paint-order="stroke fill markers" d=" M 370 240 C 370 210.1766208 405.81721600000003 186 450 186 C 494.18278399999997 186 530 210.1766208 530 240 C 530 269.8233792 494.18278399999997 294 450 294 C 405.81721600000003 294 370 269.8233792 370 240 Z"/></g><g><path fill="none" stroke="#000000" paint-order="fill stroke markers" d=" M 370 240 C 370 210.1766208 405.81721600000003 186 450 186 C 494.18278399999997 186 530 210.1766208 530 240 C 530 269.8233792 494.18278399999997 294 450 294 C 405.81721600000003 294 370 269.8233792 370 240 Z" stroke-miterlimit="10" stroke-dasharray=""/></g><g><g><path fill="none" stroke="none"/><text fill="#000000" stroke="none" font-family="Arial" font-size="13px" font-style="normal" font-weight="bold" text-decoration="undefined" x="455" y="222" text-anchor="middle" dominant-baseline="central" transform="matrix(1 0 0 1 -5 -7)">UC109.2 -</text><text fill="#000000" stroke="none" font-family="Arial" font-size="13px" font-style="normal" font-weight="bold" text-decoration="undefined" x="455" y="235" text-anchor="middle" dominant-baseline="central" transform="matrix(1 0 0 1 -5 -7)">Visualizzazione</text><text fill="#000000" stroke="none" font-family="Arial" font-size="13px" font-style="normal" font-weight="bold" text-decoration="undefined" x="455" y="248" text-anchor="middle" dominant-baseline="central" transform="matrix(1 0 0 1 -5 -7)">tenant</text><text fill="#000000" stroke="none" font-family="Arial" font-size="13px" font-style="normal" font-weight="bold" text-decoration="undefined" x="455" y="261" text-anchor="middle" dominant-baseline="central" transform="matrix(1 0 0 1 -5 -7)">richiedente della</text><text fill="#000000" stroke="none" font-family="Arial" font-size="13px" font-style="normal" font-weight="bold" text-decoration="undefined" x="455" y="274" text-anchor="middle" dominant-baseline="central" transform="matrix(1 0 0 1 -5 -7)">richiesta</text></g></g></g></svg>