<svg version="1.1" xmlns="http://www.w3.org/2000/svg" xmlns:xlink="http://www.w3.org/1999/xlink" width="493" height="276"><defs/><g><g><rect fill="#C0C0C0" stroke="none" x="194" y="32" width="304" height="256" transform="matrix(1 0 0 1 -9 -15)" fill-opacity="0.2"/></g><g><rect fill="#ffffff" stroke="none" x="187" y="25" width="304" height="256" transform="matrix(1 0 0 1 -9 -15)"/></g><g><path fill="none" stroke="#000000" paint-order="fill stroke markers" d=" M 178 10 L 482 10 L 482 266 L 178 266 L 178 10 Z Z" stroke-miterlimit="10" stroke-dasharray=""/></g><g><g><path fill="none" stroke="none"/><text fill="#000000" stroke="none" font-family="Arial" font-size="13px" font-style="normal" font-weight="bold" text-decoration="undefined" x="339.5" y="38.5" text-anchor="middle" dominant-baseline="central" transform="matrix(1 0 0 1 -9 -15)">Sistema cloud</text></g></g><g><path fill="#C0C0C0" stroke="none" paint-order="stroke fill markers" d=" M 217 115.5 C 217 100.8644528 272.5166848 89 341 89 C 409.4833152 89 465 100.8644528 465 115.5 C 465 130.1355472 409.4833152 142 341 142 C 272.5166848 142 217 130.1355472 217 115.5 Z" fill-opacity="0.2"/></g><g><path fill="#ffffff" stroke="none" paint-order="stroke fill markers" d=" M 210 108.5 C 210 93.8644528 265.5166848 82 334 82 C 402.4833152 82 458 93.8644528 458 108.5 C 458 123.13554719999999 402.4833152 135 334 135 C 265.5166848 135 210 123.13554719999999 210 108.5 Z"/></g><g><path fill="none" stroke="#000000" paint-order="fill stroke markers" d=" M 210 108.5 C 210 93.8644528 265.5166848 82 334 82 C 402.4833152 82 458 93.8644528 458 108.5 C 458 123.13554719999999 402.4833152 135 334 135 C 265.5166848 135 210 123.13554719999999 210 108.5 Z" stroke-miterlimit="10" stroke-dasharray=""/></g><g><g><path fill="none" stroke="none"/><text fill="#000000" stroke="none" font-family="Arial" font-size="13px" font-style="normal" font-weight="bold" text-decoration="undefined" x="343" y="118" text-anchor="middle" dominant-baseline="central" transform="matrix(1 0 0 1 -9 -15)">UC100 - Visualizzazione</text><text fill="#000000" stroke="none" font-family="Arial" font-size="13px" font-style="normal" font-weight="bold" text-decoration="undefined" x="343" y="131" text-anchor="middle" dominant-baseline="central" transform="matrix(1 0 0 1 -9 -15)">tenant</text></g></g><g><path fill="#ffffff" stroke="none" paint-order="stroke fill markers" d=" M 47.930751953125 75.85 C 47.930751953125 70.96227952 51.888554321125 67 56.770751953125 67 C 61.652949585125 67 65.610751953125 70.96227952 65.610751953125 75.85 C 65.610751953125 80.73772048 61.652949585125 84.7 56.770751953125 84.7 C 51.888554321125 84.7 47.930751953125 80.73772048 47.930751953125 75.85 Z"/></g><g><path fill="none" stroke="#000000" paint-order="fill stroke markers" d=" M 47.930751953125 75.85 C 47.930751953125 70.96227952 51.888554321125 67 56.770751953125 67 C 61.652949585125 67 65.610751953125 70.96227952 65.610751953125 75.85 C 65.610751953125 80.73772048 61.652949585125 84.7 56.770751953125 84.7 C 51.888554321125 84.7 47.930751953125 80.73772048 47.930751953125 75.85 Z" stroke-miterlimit="10" stroke-dasharray=""/></g><g><path fill="none" stroke="#000000" paint-order="fill stroke markers" d=" M 56.770751953125 84.7 L 56.770751953125 102.3" stroke-miterlimit="10" stroke-dasharray=""/></g><g><path fill="none" stroke="#000000" paint-order="fill stroke markers" d=" M 47.410751953125 91.3 L 66.130751953125 91.3" stroke-miterlimit="10" stroke-dasharray=""/></g><g><path fill="none" stroke="#000000" paint-order="fill stroke markers" d=" M 56.770751953125 102.3 L 43.770751953125 120" stroke-miterlimit="10" stroke-dasharray=""/></g><g><path fill="none" stroke="#000000" paint-order="fill stroke markers" d=" M 56.770751953125 102.3 L 69.770751953125 120" stroke-miterlimit="10" stroke-dasharray=""/></g><g><g><path fill="none" stroke="none"/><text fill="#000000" stroke="none" font-family="Arial" font-size="13px" font-style="normal" font-weight="bold" text-decoration="undefined" x="66.270751953125" y="149.5" text-anchor="middle" dominant-baseline="central" transform="matrix(1 0 0 1 -9 -15)">Tenant admin</text></g></g><g><path fill="none" stroke="#000000" paint-order="fill stroke markers" d=" M 105 106 L 209 107" stroke-miterlimit="10" stroke-dasharray=""/></g><g><path fill="#C0C0C0" stroke="none" paint-order="stroke fill markers" d=" M 217 221 C 217 201.1177472 272.5166848 185 341 185 C 409.4833152 185 465 201.1177472 465 221 C 465 240.8822528 409.4833152 257 341 257 C 272.5166848 257 217 240.8822528 217 221 Z" fill-opacity="0.2"/></g><g><path fill="#ffffff" stroke="none" paint-order="stroke fill markers" d=" M 210 214 C 210 194.1177472 265.5166848 178 334 178 C 402.4833152 178 458 194.1177472 458 214 C 458 233.8822528 402.4833152 250 334 250 C 265.5166848 250 210 233.8822528 210 214 Z"/></g><g><path fill="none" stroke="#000000" paint-order="fill stroke markers" d=" M 210 214 C 210 194.1177472 265.5166848 178 334 178 C 402.4833152 178 458 194.1177472 458 214 C 458 233.8822528 402.4833152 250 334 250 C 265.5166848 250 210 233.8822528 210 214 Z" stroke-miterlimit="10" stroke-dasharray=""/></g><g><g><path fill="none" stroke="none"/><text fill="#000000" stroke="none" font-family="Arial" font-size="13px" font-style="normal" font-weight="bold" text-decoration="undefined" x="343" y="223.5" text-anchor="middle" dominant-baseline="central" transform="matrix(1 0 0 1 -9 -15)">UC100.1 Visualizzazione</text><text fill="#000000" stroke="none" font-family="Arial" font-size="13px" font-style="normal" font-weight="bold" text-decoration="undefined" x="343" y="236.5" text-anchor="middle" dominant-baseline="central" transform="matrix(1 0 0 1 -9 -15)">identificativo del tenant</text></g></g><g><path fill="none" stroke="#000000" paint-order="fill stroke markers" d=" M 334 136 L 334 177" stroke-miterlimit="10" stroke-dasharray="3"/></g><g><path fill="none" stroke="#000000" paint-order="fill stroke markers" d=" M 329.790482243984 166.83732514237585 L 334 177 L 338.209517756016 166.83732514237585" stroke-miterlimit="10" stroke-dasharray=""/></g><g><rect fill="#ffffff" stroke="none" x="345" y="164" width="55.65625" height="13" transform="matrix(1 0 0 1 -9 -15)"/></g><g><g><path fill="none" stroke="none"/><text fill="#000000" stroke="none" font-family="Arial" font-size="13px" font-style="normal" font-weight="normal" text-decoration="undefined" x="372.828125" y="170.5" text-anchor="middle" dominant-baseline="central" transform="matrix(1 0 0 1 -9 -15)">«include»</text></g></g></g></svg>