<svg version="1.1" xmlns="http://www.w3.org/2000/svg" xmlns:xlink="http://www.w3.org/1999/xlink" width="661" height="324"><defs/><g><g><rect fill="#C0C0C0" stroke="none" x="166" y="24" width="496" height="304" transform="matrix(1 0 0 1 -5 -7)" fill-opacity="0.2"/></g><g><rect fill="#ffffff" stroke="none" x="159" y="17" width="496" height="304" transform="matrix(1 0 0 1 -5 -7)"/></g><g><path fill="none" stroke="#000000" paint-order="fill stroke markers" d=" M 154 10 L 650 10 L 650 314 L 154 314 L 154 10 Z Z" stroke-miterlimit="10" stroke-dasharray=""/></g><g><g><path fill="none" stroke="none"/><text fill="#000000" stroke="none" font-family="Arial" font-size="13px" font-style="normal" font-weight="bold" text-decoration="undefined" x="407.5" y="30.5" text-anchor="middle" dominant-baseline="central" transform="matrix(1 0 0 1 -5 -7)">Sistema cloud</text></g></g><g><path fill="#ffffff" stroke="none" paint-order="stroke fill markers" d=" M 47.930751953125 59.849999999999994 C 47.930751953125 54.962279519999996 51.888554321125 51 56.770751953125 51 C 61.652949585125 51 65.610751953125 54.962279519999996 65.610751953125 59.849999999999994 C 65.610751953125 64.73772048 61.652949585125 68.7 56.770751953125 68.7 C 51.888554321125 68.7 47.930751953125 64.73772048 47.930751953125 59.849999999999994 Z"/></g><g><path fill="none" stroke="#000000" paint-order="fill stroke markers" d=" M 47.930751953125 59.849999999999994 C 47.930751953125 54.962279519999996 51.888554321125 51 56.770751953125 51 C 61.652949585125 51 65.610751953125 54.962279519999996 65.610751953125 59.849999999999994 C 65.610751953125 64.73772048 61.652949585125 68.7 56.770751953125 68.7 C 51.888554321125 68.7 47.930751953125 64.73772048 47.930751953125 59.849999999999994 Z" stroke-miterlimit="10" stroke-dasharray=""/></g><g><path fill="none" stroke="#000000" paint-order="fill stroke markers" d=" M 56.770751953125 68.7 L 56.770751953125 86.3" stroke-miterlimit="10" stroke-dasharray=""/></g><g><path fill="none" stroke="#000000" paint-order="fill stroke markers" d=" M 47.410751953125 75.3 L 66.130751953125 75.3" stroke-miterlimit="10" stroke-dasharray=""/></g><g><path fill="none" stroke="#000000" paint-order="fill stroke markers" d=" M 56.770751953125 86.3 L 43.770751953125 104" stroke-miterlimit="10" stroke-dasharray=""/></g><g><path fill="none" stroke="#000000" paint-order="fill stroke markers" d=" M 56.770751953125 86.3 L 69.770751953125 104" stroke-miterlimit="10" stroke-dasharray=""/></g><g><g><path fill="none" stroke="none"/><text fill="#000000" stroke="none" font-family="Arial" font-size="13px" font-style="normal" font-weight="bold" text-decoration="undefined" x="62.270751953125" y="125.5" text-anchor="middle" dominant-baseline="central" transform="matrix(1 0 0 1 -5 -7)">Super Admin</text></g></g><g><path fill="#C0C0C0" stroke="none" paint-order="stroke fill markers" d=" M 209 103 C 209 73.1766208 251.9806592 49 305 49 C 358.0193408 49 401 73.1766208 401 103 C 401 132.8233792 358.0193408 157 305 157 C 251.9806592 157 209 132.8233792 209 103 Z" fill-opacity="0.2"/></g><g><path fill="#ffffff" stroke="none" paint-order="stroke fill markers" d=" M 202 96 C 202 66.1766208 244.9806592 42 298 42 C 351.0193408 42 394 66.1766208 394 96 C 394 125.8233792 351.0193408 150 298 150 C 244.9806592 150 202 125.8233792 202 96 Z"/></g><g><path fill="none" stroke="#000000" paint-order="fill stroke markers" d=" M 202 96 C 202 66.1766208 244.9806592 42 298 42 C 351.0193408 42 394 66.1766208 394 96 C 394 125.8233792 351.0193408 150 298 150 C 244.9806592 150 202 125.8233792 202 96 Z" stroke-miterlimit="10" stroke-dasharray=""/></g><g><g><path fill="none" stroke="none"/><text fill="#000000" stroke="none" font-family="Arial" font-size="13px" font-style="normal" font-weight="bold" text-decoration="undefined" x="303" y="78" text-anchor="middle" dominant-baseline="central" transform="matrix(1 0 0 1 -5 -7)">UC109 -</text><text fill="#000000" stroke="none" font-family="Arial" font-size="13px" font-style="normal" font-weight="bold" text-decoration="undefined" x="303" y="91" text-anchor="middle" dominant-baseline="central" transform="matrix(1 0 0 1 -5 -7)">Visualizzazione</text><text fill="#000000" stroke="none" font-family="Arial" font-size="13px" font-style="normal" font-weight="bold" text-decoration="undefined" x="303" y="104" text-anchor="middle" dominant-baseline="central" transform="matrix(1 0 0 1 -5 -7)">richiesta di</text><text fill="#000000" stroke="none" font-family="Arial" font-size="13px" font-style="normal" font-weight="bold" text-decoration="undefined" x="303" y="117" text-anchor="middle" dominant-baseline="central" transform="matrix(1 0 0 1 -5 -7)">commissioning</text><text fill="#000000" stroke="none" font-family="Arial" font-size="13px" font-style="normal" font-weight="bold" text-decoration="undefined" x="303" y="130" text-anchor="middle" dominant-baseline="central" transform="matrix(1 0 0 1 -5 -7)">Gateway</text></g></g><g><path fill="#C0C0C0" stroke="none" paint-order="stroke fill markers" d=" M 489 102 C 489 77.147184 522.1309248 57 563 57 C 603.8690752 57 637 77.147184 637 102 C 637 126.85281599999999 603.8690752 147 563 147 C 522.1309248 147 489 126.85281599999999 489 102 Z" fill-opacity="0.2"/></g><g><path fill="#ffffff" stroke="none" paint-order="stroke fill markers" d=" M 482 95 C 482 70.147184 515.1309248 50 556 50 C 596.8690752 50 630 70.147184 630 95 C 630 119.852816 596.8690752 140 556 140 C 515.1309248 140 482 119.852816 482 95 Z"/></g><g><path fill="none" stroke="#000000" paint-order="fill stroke markers" d=" M 482 95 C 482 70.147184 515.1309248 50 556 50 C 596.8690752 50 630 70.147184 630 95 C 630 119.852816 596.8690752 140 556 140 C 515.1309248 140 482 119.852816 482 95 Z" stroke-miterlimit="10" stroke-dasharray=""/></g><g><g><path fill="none" stroke="none"/><text fill="#000000" stroke="none" font-family="Arial" font-size="13px" font-style="normal" font-weight="bold" text-decoration="undefined" x="561" y="83.5" text-anchor="middle" dominant-baseline="central" transform="matrix(1 0 0 1 -5 -7)">UC109.1 -</text><text fill="#000000" stroke="none" font-family="Arial" font-size="13px" font-style="normal" font-weight="bold" text-decoration="undefined" x="561" y="96.5" text-anchor="middle" dominant-baseline="central" transform="matrix(1 0 0 1 -5 -7)">Visualizzazione</text><text fill="#000000" stroke="none" font-family="Arial" font-size="13px" font-style="normal" font-weight="bold" text-decoration="undefined" x="561" y="109.5" text-anchor="middle" dominant-baseline="central" transform="matrix(1 0 0 1 -5 -7)">data e ora</text><text fill="#000000" stroke="none" font-family="Arial" font-size="13px" font-style="normal" font-weight="bold" text-decoration="undefined" x="561" y="122.5" text-anchor="middle" dominant-baseline="central" transform="matrix(1 0 0 1 -5 -7)">richiesta</text></g></g><g><path fill="#C0C0C0" stroke="none" paint-order="stroke fill markers" d=" M 194 261 C 194 236.147184 235.1897984 216 286 216 C 336.8102016 216 378 236.147184 378 261 C 378 285.852816 336.8102016 306 286 306 C 235.1897984 306 194 285.852816 194 261 Z" fill-opacity="0.2"/></g><g><path fill="#ffffff" stroke="none" paint-order="stroke fill markers" d=" M 187 254 C 187 229.147184 228.1897984 209 279 209 C 329.8102016 209 371 229.147184 371 254 C 371 278.852816 329.8102016 299 279 299 C 228.1897984 299 187 278.852816 187 254 Z"/></g><g><path fill="none" stroke="#000000" paint-order="fill stroke markers" d=" M 187 254 C 187 229.147184 228.1897984 209 279 209 C 329.8102016 209 371 229.147184 371 254 C 371 278.852816 329.8102016 299 279 299 C 228.1897984 299 187 278.852816 187 254 Z" stroke-miterlimit="10" stroke-dasharray=""/></g><g><g><path fill="none" stroke="none"/><text fill="#000000" stroke="none" font-family="Arial" font-size="13px" font-style="normal" font-weight="bold" text-decoration="undefined" x="284" y="242.5" text-anchor="middle" dominant-baseline="central" transform="matrix(1 0 0 1 -5 -7)">UC109.3 -</text><text fill="#000000" stroke="none" font-family="Arial" font-size="13px" font-style="normal" font-weight="bold" text-decoration="undefined" x="284" y="255.5" text-anchor="middle" dominant-baseline="central" transform="matrix(1 0 0 1 -5 -7)">Visualizzazione</text><text fill="#000000" stroke="none" font-family="Arial" font-size="13px" font-style="normal" font-weight="bold" text-decoration="undefined" x="284" y="268.5" text-anchor="middle" dominant-baseline="central" transform="matrix(1 0 0 1 -5 -7)">numero di gateway</text><text fill="#000000" stroke="none" font-family="Arial" font-size="13px" font-style="normal" font-weight="bold" text-decoration="undefined" x="284" y="281.5" text-anchor="middle" dominant-baseline="central" transform="matrix(1 0 0 1 -5 -7)">richiesti</text></g></g><g><path fill="none" stroke="#000000" paint-order="fill stroke markers" d=" M 395 96 L 481 95" stroke-miterlimit="10" stroke-dasharray="3"/></g><g><path fill="none" stroke="#000000" paint-order="fill stroke markers" d=" M 470.8869566834476 99.3273958540367 L 481 95 L 470.7890675391646 90.90892944570038" stroke-miterlimit="10" stroke-dasharray=""/></g><g><rect fill="#ffffff" stroke="none" x="416" y="66" width="55.65625" height="13" transform="matrix(1 0 0 1 -5 -7)"/></g><g><g><path fill="none" stroke="none"/><text fill="#000000" stroke="none" font-family="Arial" font-size="13px" font-style="normal" font-weight="normal" text-decoration="undefined" x="443.828125" y="72.5" text-anchor="middle" dominant-baseline="central" transform="matrix(1 0 0 1 -5 -7)">«include»</text></g></g><g><path fill="none" stroke="#000000" paint-order="fill stroke markers" d=" M 291 151 L 285 208" stroke-miterlimit="10" stroke-dasharray="3"/></g><g><path fill="none" stroke="#000000" paint-order="fill stroke markers" d=" M 281.87748906506994 197.4524919786121 L 285 208 L 290.2502657901247 198.3338368970389" stroke-miterlimit="10" stroke-dasharray=""/></g><g><rect fill="#ffffff" stroke="none" x="295" y="183" width="55.65625" height="13" transform="matrix(1 0 0 1 -5 -7)"/></g><g><g><path fill="none" stroke="none"/><text fill="#000000" stroke="none" font-family="Arial" font-size="13px" font-style="normal" font-weight="normal" text-decoration="undefined" x="322.828125" y="189.5" text-anchor="middle" dominant-baseline="central" transform="matrix(1 0 0 1 -5 -7)">«include»</text></g></g><g><path fill="none" stroke="#000000" paint-order="fill stroke markers" d=" M 395 149 L 450 179" stroke-miterlimit="10" stroke-dasharray="3"/></g><g><path fill="none" stroke="#000000" paint-order="fill stroke markers" d=" M 439.0624961869175 177.82909849312372 L 450 179 L 443.0939692801294 170.43806448890186" stroke-miterlimit="10" stroke-dasharray=""/></g><g><rect fill="#ffffff" stroke="none" x="414" y="138" width="55.65625" height="13" transform="matrix(1 0 0 1 -5 -7)"/></g><g><g><path fill="none" stroke="none"/><text fill="#000000" stroke="none" font-family="Arial" font-size="13px" font-style="normal" font-weight="normal" text-decoration="undefined" x="441.828125" y="144.5" text-anchor="middle" dominant-baseline="central" transform="matrix(1 0 0 1 -5 -7)">«include»</text></g></g><g><path fill="none" stroke="#000000" paint-order="fill stroke markers" d=" M 105 91 L 201 94" stroke-miterlimit="10" stroke-dasharray=""/></g><g><path fill="#C0C0C0" stroke="none" paint-order="stroke fill markers" d=" M 458 230 C 458 200.1766208 493.81721600000003 176 538 176 C 582.182784 176 618 200.1766208 618 230 C 618 259.8233792 582.182784 284 538 284 C 493.81721600000003 284 458 259.8233792 458 230 Z" fill-opacity="0.2"/></g><g><path fill="#ffffff" stroke="none" paint-order="stroke fill markers" d=" M 451 223 C 451 193.1766208 486.81721600000003 169 531 169 C 575.182784 169 611 193.1766208 611 223 C 611 252.82337919999998 575.182784 277 531 277 C 486.81721600000003 277 451 252.82337919999998 451 223 Z"/></g><g><path fill="none" stroke="#000000" paint-order="fill stroke markers" d=" M 451 223 C 451 193.1766208 486.81721600000003 169 531 169 C 575.182784 169 611 193.1766208 611 223 C 611 252.82337919999998 575.182784 277 531 277 C 486.81721600000003 277 451 252.82337919999998 451 223 Z" stroke-miterlimit="10" stroke-dasharray=""/></g><g><g><path fill="none" stroke="none"/><text fill="#000000" stroke="none" font-family="Arial" font-size="13px" font-style="normal" font-weight="bold" text-decoration="undefined" x="536" y="205" text-anchor="middle" dominant-baseline="central" transform="matrix(1 0 0 1 -5 -7)">UC109.2 -</text><text fill="#000000" stroke="none" font-family="Arial" font-size="13px" font-style="normal" font-weight="bold" text-decoration="undefined" x="536" y="218" text-anchor="middle" dominant-baseline="central" transform="matrix(1 0 0 1 -5 -7)">Visualizzazione</text><text fill="#000000" stroke="none" font-family="Arial" font-size="13px" font-style="normal" font-weight="bold" text-decoration="undefined" x="536" y="231" text-anchor="middle" dominant-baseline="central" transform="matrix(1 0 0 1 -5 -7)">tenant</text><text fill="#000000" stroke="none" font-family="Arial" font-size="13px" font-style="normal" font-weight="bold" text-decoration="undefined" x="536" y="244" text-anchor="middle" dominant-baseline="central" transform="matrix(1 0 0 1 -5 -7)">richiedente della</text><text fill="#000000" stroke="none" font-family="Arial" font-size="13px" font-style="normal" font-weight="bold" text-decoration="undefined" x="536" y="257" text-anchor="middle" dominant-baseline="central" transform="matrix(1 0 0 1 -5 -7)">richiesta</text></g></g></g></svg>