<svg version="1.1" xmlns="http://www.w3.org/2000/svg" xmlns:xlink="http://www.w3.org/1999/xlink" width="901" height="348"><defs/><g><g><rect fill="#C0C0C0" stroke="none" x="166" y="20" width="736" height="328" transform="matrix(1 0 0 1 -5 -3)" fill-opacity="0.2"/></g><g><rect fill="#ffffff" stroke="none" x="159" y="13" width="736" height="328" transform="matrix(1 0 0 1 -5 -3)"/></g><g><path fill="none" stroke="#000000" paint-order="fill stroke markers" d=" M 154 10 L 890 10 L 890 338 L 154 338 L 154 10 Z Z" stroke-miterlimit="10" stroke-dasharray=""/></g><g><g><path fill="none" stroke="none"/><text fill="#000000" stroke="none" font-family="Arial" font-size="13px" font-style="normal" font-weight="bold" text-decoration="undefined" x="527.5" y="26.5" text-anchor="middle" dominant-baseline="central" transform="matrix(1 0 0 1 -5 -3)">Sistema cloud</text></g></g><g><path fill="#C0C0C0" stroke="none" paint-order="stroke fill markers" d=" M 177 141 C 177 121.1177472 232.5166848 105 301 105 C 369.4833152 105 425 121.1177472 425 141 C 425 160.8822528 369.4833152 177 301 177 C 232.5166848 177 177 160.8822528 177 141 Z" fill-opacity="0.2"/></g><g><path fill="#ffffff" stroke="none" paint-order="stroke fill markers" d=" M 170 134 C 170 114.1177472 225.5166848 98 294 98 C 362.4833152 98 418 114.1177472 418 134 C 418 153.8822528 362.4833152 170 294 170 C 225.5166848 170 170 153.8822528 170 134 Z"/></g><g><path fill="none" stroke="#000000" paint-order="fill stroke markers" d=" M 170 134 C 170 114.1177472 225.5166848 98 294 98 C 362.4833152 98 418 114.1177472 418 134 C 418 153.8822528 362.4833152 170 294 170 C 225.5166848 170 170 153.8822528 170 134 Z" stroke-miterlimit="10" stroke-dasharray=""/></g><g><g><path fill="none" stroke="none"/><text fill="#000000" stroke="none" font-family="Arial" font-size="13px" font-style="normal" font-weight="bold" text-decoration="undefined" x="299" y="125" text-anchor="middle" dominant-baseline="central" transform="matrix(1 0 0 1 -5 -3)">UC102 - Visualizzazione</text><text fill="#000000" stroke="none" font-family="Arial" font-size="13px" font-style="normal" font-weight="bold" text-decoration="undefined" x="299" y="138" text-anchor="middle" dominant-baseline="central" transform="matrix(1 0 0 1 -5 -3)">storico richieste di</text><text fill="#000000" stroke="none" font-family="Arial" font-size="13px" font-style="normal" font-weight="bold" text-decoration="undefined" x="299" y="151" text-anchor="middle" dominant-baseline="central" transform="matrix(1 0 0 1 -5 -3)">commissioning Gateway</text></g></g><g><path fill="#C0C0C0" stroke="none" paint-order="stroke fill markers" d=" M 505 120.5 C 505 85.4299152 540.817216 57 585 57 C 629.182784 57 665 85.4299152 665 120.5 C 665 155.57008480000002 629.182784 184 585 184 C 540.817216 184 505 155.57008480000002 505 120.5 Z" fill-opacity="0.2"/></g><g><path fill="#ffffff" stroke="none" paint-order="stroke fill markers" d=" M 498 113.5 C 498 78.4299152 533.817216 50 578 50 C 622.182784 50 658 78.4299152 658 113.5 C 658 148.57008480000002 622.182784 177 578 177 C 533.817216 177 498 148.57008480000002 498 113.5 Z"/></g><g><path fill="none" stroke="#000000" paint-order="fill stroke markers" d=" M 498 113.5 C 498 78.4299152 533.817216 50 578 50 C 622.182784 50 658 78.4299152 658 113.5 C 658 148.57008480000002 622.182784 177 578 177 C 533.817216 177 498 148.57008480000002 498 113.5 Z" stroke-miterlimit="10" stroke-dasharray=""/></g><g><g><path fill="none" stroke="none"/><text fill="#000000" stroke="none" font-family="Arial" font-size="13px" font-style="normal" font-weight="bold" text-decoration="undefined" x="583" y="91.5" text-anchor="middle" dominant-baseline="central" transform="matrix(1 0 0 1 -5 -3)">UC103 -</text><text fill="#000000" stroke="none" font-family="Arial" font-size="13px" font-style="normal" font-weight="bold" text-decoration="undefined" x="583" y="104.5" text-anchor="middle" dominant-baseline="central" transform="matrix(1 0 0 1 -5 -3)">Visualizzazione</text><text fill="#000000" stroke="none" font-family="Arial" font-size="13px" font-style="normal" font-weight="bold" text-decoration="undefined" x="583" y="117.5" text-anchor="middle" dominant-baseline="central" transform="matrix(1 0 0 1 -5 -3)">singola richiesta</text><text fill="#000000" stroke="none" font-family="Arial" font-size="13px" font-style="normal" font-weight="bold" text-decoration="undefined" x="583" y="130.5" text-anchor="middle" dominant-baseline="central" transform="matrix(1 0 0 1 -5 -3)">lista storico</text><text fill="#000000" stroke="none" font-family="Arial" font-size="13px" font-style="normal" font-weight="bold" text-decoration="undefined" x="583" y="143.5" text-anchor="middle" dominant-baseline="central" transform="matrix(1 0 0 1 -5 -3)">commissioning</text></g></g><g><path fill="none" stroke="#000000" paint-order="fill stroke markers" d=" M 419 125 L 497 119" stroke-miterlimit="10" stroke-dasharray="3"/></g><g><path fill="none" stroke="#000000" paint-order="fill stroke markers" d=" M 487.19011472239123 123.976560141318 L 497 119 L 486.5444041746321 115.58232302044942" stroke-miterlimit="10" stroke-dasharray=""/></g><g><rect fill="#ffffff" stroke="none" x="433" y="89" width="55.65625" height="13" transform="matrix(1 0 0 1 -5 -3)"/></g><g><g><path fill="none" stroke="none"/><text fill="#000000" stroke="none" font-family="Arial" font-size="13px" font-style="normal" font-weight="normal" text-decoration="undefined" x="460.828125" y="95.5" text-anchor="middle" dominant-baseline="central" transform="matrix(1 0 0 1 -5 -3)">«include»</text></g></g><g><path fill="#ffffff" stroke="none" paint-order="stroke fill markers" d=" M 47.930751953125 103.85 C 47.930751953125 98.96227952 51.888554321125 95 56.770751953125 95 C 61.652949585125 95 65.610751953125 98.96227952 65.610751953125 103.85 C 65.610751953125 108.73772048 61.652949585125 112.7 56.770751953125 112.7 C 51.888554321125 112.7 47.930751953125 108.73772048 47.930751953125 103.85 Z"/></g><g><path fill="none" stroke="#000000" paint-order="fill stroke markers" d=" M 47.930751953125 103.85 C 47.930751953125 98.96227952 51.888554321125 95 56.770751953125 95 C 61.652949585125 95 65.610751953125 98.96227952 65.610751953125 103.85 C 65.610751953125 108.73772048 61.652949585125 112.7 56.770751953125 112.7 C 51.888554321125 112.7 47.930751953125 108.73772048 47.930751953125 103.85 Z" stroke-miterlimit="10" stroke-dasharray=""/></g><g><path fill="none" stroke="#000000" paint-order="fill stroke markers" d=" M 56.770751953125 112.7 L 56.770751953125 130.3" stroke-miterlimit="10" stroke-dasharray=""/></g><g><path fill="none" stroke="#000000" paint-order="fill stroke markers" d=" M 47.410751953125 119.3 L 66.130751953125 119.3" stroke-miterlimit="10" stroke-dasharray=""/></g><g><path fill="none" stroke="#000000" paint-order="fill stroke markers" d=" M 56.770751953125 130.3 L 43.770751953125 148" stroke-miterlimit="10" stroke-dasharray=""/></g><g><path fill="none" stroke="#000000" paint-order="fill stroke markers" d=" M 56.770751953125 130.3 L 69.770751953125 148" stroke-miterlimit="10" stroke-dasharray=""/></g><g><g><path fill="none" stroke="none"/><text fill="#000000" stroke="none" font-family="Arial" font-size="13px" font-style="normal" font-weight="bold" text-decoration="undefined" x="62.270751953125" y="165.5" text-anchor="middle" dominant-baseline="central" transform="matrix(1 0 0 1 -5 -3)">Tenant admin</text></g></g><g><path fill="none" stroke="#000000" paint-order="fill stroke markers" d=" M 105 134 L 169 134" stroke-miterlimit="10" stroke-dasharray=""/></g><g><path fill="#C0C0C0" stroke="none" paint-order="stroke fill markers" d=" M 217 255 C 217 225.1766208 261.77152 201 317 201 C 372.22848 201 417 225.1766208 417 255 C 417 284.8233792 372.22848 309 317 309 C 261.77152 309 217 284.8233792 217 255 Z" fill-opacity="0.2"/></g><g><path fill="#ffffff" stroke="none" paint-order="stroke fill markers" d=" M 210 248 C 210 218.1766208 254.77152 194 310 194 C 365.22848 194 410 218.1766208 410 248 C 410 277.8233792 365.22848 302 310 302 C 254.77152 302 210 277.8233792 210 248 Z"/></g><g><path fill="none" stroke="#000000" paint-order="fill stroke markers" d=" M 210 248 C 210 218.1766208 254.77152 194 310 194 C 365.22848 194 410 218.1766208 410 248 C 410 277.8233792 365.22848 302 310 302 C 254.77152 302 210 277.8233792 210 248 Z" stroke-miterlimit="10" stroke-dasharray=""/></g><g><g><path fill="none" stroke="none"/><text fill="#000000" stroke="none" font-family="Arial" font-size="13px" font-style="normal" font-weight="bold" text-decoration="undefined" x="315" y="226" text-anchor="middle" dominant-baseline="central" transform="matrix(1 0 0 1 -5 -3)">UC103.1 -</text><text fill="#000000" stroke="none" font-family="Arial" font-size="13px" font-style="normal" font-weight="bold" text-decoration="undefined" x="315" y="239" text-anchor="middle" dominant-baseline="central" transform="matrix(1 0 0 1 -5 -3)">Visualizzazione stato</text><text fill="#000000" stroke="none" font-family="Arial" font-size="13px" font-style="normal" font-weight="bold" text-decoration="undefined" x="315" y="252" text-anchor="middle" dominant-baseline="central" transform="matrix(1 0 0 1 -5 -3)">richiesta dello</text><text fill="#000000" stroke="none" font-family="Arial" font-size="13px" font-style="normal" font-weight="bold" text-decoration="undefined" x="315" y="265" text-anchor="middle" dominant-baseline="central" transform="matrix(1 0 0 1 -5 -3)">storico</text><text fill="#000000" stroke="none" font-family="Arial" font-size="13px" font-style="normal" font-weight="bold" text-decoration="undefined" x="315" y="278" text-anchor="middle" dominant-baseline="central" transform="matrix(1 0 0 1 -5 -3)">commissioning</text></g></g><g><path fill="#C0C0C0" stroke="none" paint-order="stroke fill markers" d=" M 457 279 C 457 249.1766208 492.81721600000003 225 537 225 C 581.182784 225 617 249.1766208 617 279 C 617 308.8233792 581.182784 333 537 333 C 492.81721600000003 333 457 308.8233792 457 279 Z" fill-opacity="0.2"/></g><g><path fill="#ffffff" stroke="none" paint-order="stroke fill markers" d=" M 450 272 C 450 242.1766208 485.81721600000003 218 530 218 C 574.182784 218 610 242.1766208 610 272 C 610 301.8233792 574.182784 326 530 326 C 485.81721600000003 326 450 301.8233792 450 272 Z"/></g><g><path fill="none" stroke="#000000" paint-order="fill stroke markers" d=" M 450 272 C 450 242.1766208 485.81721600000003 218 530 218 C 574.182784 218 610 242.1766208 610 272 C 610 301.8233792 574.182784 326 530 326 C 485.81721600000003 326 450 301.8233792 450 272 Z" stroke-miterlimit="10" stroke-dasharray=""/></g><g><g><path fill="none" stroke="none"/><text fill="#000000" stroke="none" font-family="Arial" font-size="13px" font-style="normal" font-weight="bold" text-decoration="undefined" x="535" y="250" text-anchor="middle" dominant-baseline="central" transform="matrix(1 0 0 1 -5 -3)">UC99.1 -</text><text fill="#000000" stroke="none" font-family="Arial" font-size="13px" font-style="normal" font-weight="bold" text-decoration="undefined" x="535" y="263" text-anchor="middle" dominant-baseline="central" transform="matrix(1 0 0 1 -5 -3)">Visualizzazione</text><text fill="#000000" stroke="none" font-family="Arial" font-size="13px" font-style="normal" font-weight="bold" text-decoration="undefined" x="535" y="276" text-anchor="middle" dominant-baseline="central" transform="matrix(1 0 0 1 -5 -3)">data e ora della</text><text fill="#000000" stroke="none" font-family="Arial" font-size="13px" font-style="normal" font-weight="bold" text-decoration="undefined" x="535" y="289" text-anchor="middle" dominant-baseline="central" transform="matrix(1 0 0 1 -5 -3)">richiesta di</text><text fill="#000000" stroke="none" font-family="Arial" font-size="13px" font-style="normal" font-weight="bold" text-decoration="undefined" x="535" y="302" text-anchor="middle" dominant-baseline="central" transform="matrix(1 0 0 1 -5 -3)">commissioning</text></g></g><g><path fill="none" stroke="#000000" paint-order="fill stroke markers" d=" M 497 154 L 411 197" stroke-miterlimit="10" stroke-dasharray="3"/></g><g><path fill="none" stroke="#000000" paint-order="fill stroke markers" d=" M 418.2072191549614 188.69000649504724 L 411 197 L 421.97232629693906 196.22022077900252" stroke-miterlimit="10" stroke-dasharray=""/></g><g><rect fill="#ffffff" stroke="none" x="405" y="168" width="55.65625" height="13" transform="matrix(1 0 0 1 -5 -3)"/></g><g><g><path fill="none" stroke="none"/><text fill="#000000" stroke="none" font-family="Arial" font-size="13px" font-style="normal" font-weight="normal" text-decoration="undefined" x="432.828125" y="174.5" text-anchor="middle" dominant-baseline="central" transform="matrix(1 0 0 1 -5 -3)">«include»</text></g></g><g><path fill="none" stroke="#000000" paint-order="fill stroke markers" d=" M 558 178 L 547 217" stroke-miterlimit="10" stroke-dasharray="3"/></g><g><path fill="none" stroke="#000000" paint-order="fill stroke markers" d=" M 545.707312393577 206.07622049141415 L 547 217 L 553.8102103942502 208.36165326083477" stroke-miterlimit="10" stroke-dasharray=""/></g><g><rect fill="#ffffff" stroke="none" x="487" y="205" width="55.65625" height="13" transform="matrix(1 0 0 1 -5 -3)"/></g><g><g><path fill="none" stroke="none"/><text fill="#000000" stroke="none" font-family="Arial" font-size="13px" font-style="normal" font-weight="normal" text-decoration="undefined" x="514.828125" y="211.5" text-anchor="middle" dominant-baseline="central" transform="matrix(1 0 0 1 -5 -3)">«include»</text></g></g><g><path fill="none" stroke="#000000" paint-order="fill stroke markers" d=" M 654 178 L 680 201" stroke-miterlimit="10" stroke-dasharray="3"/></g><g><path fill="none" stroke="#000000" paint-order="fill stroke markers" d=" M 669.599074944126 197.41939139501505 L 680 201 L 675.1773079877382 191.11356273701867" stroke-miterlimit="10" stroke-dasharray=""/></g><g><rect fill="#ffffff" stroke="none" x="687" y="176" width="55.65625" height="13" transform="matrix(1 0 0 1 -5 -3)"/></g><g><g><path fill="none" stroke="none"/><text fill="#000000" stroke="none" font-family="Arial" font-size="13px" font-style="normal" font-weight="normal" text-decoration="undefined" x="714.828125" y="182.5" text-anchor="middle" dominant-baseline="central" transform="matrix(1 0 0 1 -5 -3)">«include»</text></g></g><g><path fill="none" stroke="#000000" paint-order="fill stroke markers" d=" M 659 113 L 721 113" stroke-miterlimit="10" stroke-dasharray="3"/></g><g><path fill="none" stroke="#000000" paint-order="fill stroke markers" d=" M 710.8373251423759 117.20951775601598 L 721 113 L 710.8373251423758 108.79048224398402" stroke-miterlimit="10" stroke-dasharray=""/></g><g><rect fill="#ffffff" stroke="none" x="668" y="80" width="55.65625" height="13" transform="matrix(1 0 0 1 -5 -3)"/></g><g><g><path fill="none" stroke="none"/><text fill="#000000" stroke="none" font-family="Arial" font-size="13px" font-style="normal" font-weight="normal" text-decoration="undefined" x="695.828125" y="86.5" text-anchor="middle" dominant-baseline="central" transform="matrix(1 0 0 1 -5 -3)">«include»</text></g></g><g><path fill="#C0C0C0" stroke="none" paint-order="stroke fill markers" d=" M 641 254 C 641 229.147184 685.77152 209 741 209 C 796.22848 209 841 229.147184 841 254 C 841 278.852816 796.22848 299 741 299 C 685.77152 299 641 278.852816 641 254 Z" fill-opacity="0.2"/></g><g><path fill="#ffffff" stroke="none" paint-order="stroke fill markers" d=" M 634 247 C 634 222.147184 678.77152 202 734 202 C 789.22848 202 834 222.147184 834 247 C 834 271.852816 789.22848 292 734 292 C 678.77152 292 634 271.852816 634 247 Z"/></g><g><path fill="none" stroke="#000000" paint-order="fill stroke markers" d=" M 634 247 C 634 222.147184 678.77152 202 734 202 C 789.22848 202 834 222.147184 834 247 C 834 271.852816 789.22848 292 734 292 C 678.77152 292 634 271.852816 634 247 Z" stroke-miterlimit="10" stroke-dasharray=""/></g><g><g><path fill="none" stroke="none"/><text fill="#000000" stroke="none" font-family="Arial" font-size="13px" font-style="normal" font-weight="bold" text-decoration="undefined" x="739" y="231.5" text-anchor="middle" dominant-baseline="central" transform="matrix(1 0 0 1 -5 -3)">UC99.2 -</text><text fill="#000000" stroke="none" font-family="Arial" font-size="13px" font-style="normal" font-weight="bold" text-decoration="undefined" x="739" y="244.5" text-anchor="middle" dominant-baseline="central" transform="matrix(1 0 0 1 -5 -3)">Visualizzazione</text><text fill="#000000" stroke="none" font-family="Arial" font-size="13px" font-style="normal" font-weight="bold" text-decoration="undefined" x="739" y="257.5" text-anchor="middle" dominant-baseline="central" transform="matrix(1 0 0 1 -5 -3)">tenant della richiesta</text><text fill="#000000" stroke="none" font-family="Arial" font-size="13px" font-style="normal" font-weight="bold" text-decoration="undefined" x="739" y="270.5" text-anchor="middle" dominant-baseline="central" transform="matrix(1 0 0 1 -5 -3)">di commissioning</text></g></g><g><path fill="#C0C0C0" stroke="none" paint-order="stroke fill markers" d=" M 729 120.5 C 729 85.4299152 764.817216 57 809 57 C 853.182784 57 889 85.4299152 889 120.5 C 889 155.57008480000002 853.182784 184 809 184 C 764.817216 184 729 155.57008480000002 729 120.5 Z" fill-opacity="0.2"/></g><g><path fill="#ffffff" stroke="none" paint-order="stroke fill markers" d=" M 722 113.5 C 722 78.4299152 757.817216 50 802 50 C 846.182784 50 882 78.4299152 882 113.5 C 882 148.57008480000002 846.182784 177 802 177 C 757.817216 177 722 148.57008480000002 722 113.5 Z"/></g><g><path fill="none" stroke="#000000" paint-order="fill stroke markers" d=" M 722 113.5 C 722 78.4299152 757.817216 50 802 50 C 846.182784 50 882 78.4299152 882 113.5 C 882 148.57008480000002 846.182784 177 802 177 C 757.817216 177 722 148.57008480000002 722 113.5 Z" stroke-miterlimit="10" stroke-dasharray=""/></g><g><g><path fill="none" stroke="none"/><text fill="#000000" stroke="none" font-family="Arial" font-size="13px" font-style="normal" font-weight="bold" text-decoration="undefined" x="807" y="91.5" text-anchor="middle" dominant-baseline="central" transform="matrix(1 0 0 1 -5 -3)">UC99.3 -</text><text fill="#000000" stroke="none" font-family="Arial" font-size="13px" font-style="normal" font-weight="bold" text-decoration="undefined" x="807" y="104.5" text-anchor="middle" dominant-baseline="central" transform="matrix(1 0 0 1 -5 -3)">Visualizzazione</text><text fill="#000000" stroke="none" font-family="Arial" font-size="13px" font-style="normal" font-weight="bold" text-decoration="undefined" x="807" y="117.5" text-anchor="middle" dominant-baseline="central" transform="matrix(1 0 0 1 -5 -3)">numero gateway</text><text fill="#000000" stroke="none" font-family="Arial" font-size="13px" font-style="normal" font-weight="bold" text-decoration="undefined" x="807" y="130.5" text-anchor="middle" dominant-baseline="central" transform="matrix(1 0 0 1 -5 -3)">della richiesta di</text><text fill="#000000" stroke="none" font-family="Arial" font-size="13px" font-style="normal" font-weight="bold" text-decoration="undefined" x="807" y="143.5" text-anchor="middle" dominant-baseline="central" transform="matrix(1 0 0 1 -5 -3)">commissioning</text></g></g></g></svg>