<svg version="1.1" xmlns="http://www.w3.org/2000/svg" xmlns:xlink="http://www.w3.org/1999/xlink" width="938" height="364"><defs/><g><g><rect fill="#C0C0C0" stroke="none" x="176" y="37" width="792" height="344" transform="matrix(1 0 0 1 -34 -20)" fill-opacity="0.2"/></g><g><rect fill="#ffffff" stroke="none" x="169" y="30" width="792" height="344" transform="matrix(1 0 0 1 -34 -20)"/></g><g><path fill="none" stroke="#000000" paint-order="fill stroke markers" d=" M 135 10 L 927 10 L 927 354 L 135 354 L 135 10 Z Z" stroke-miterlimit="10" stroke-dasharray=""/></g><g><g><path fill="none" stroke="none"/><text fill="#000000" stroke="none" font-family="Arial" font-size="13px" font-style="normal" font-weight="bold" text-decoration="undefined" x="565.5" y="43.5" text-anchor="middle" dominant-baseline="central" transform="matrix(1 0 0 1 -34 -20)">Sistema cloud</text></g></g><g><path fill="#ffffff" stroke="none" paint-order="stroke fill markers" d=" M 375 109 C 375 79.1766208 430.5166848 55 499 55 C 567.4833152 55 623 79.1766208 623 109 C 623 138.8233792 567.4833152 163 499 163 C 430.5166848 163 375 138.8233792 375 109 Z"/></g><g><path fill="none" stroke="#000000" paint-order="fill stroke markers" d=" M 375 109 C 375 79.1766208 430.5166848 55 499 55 C 567.4833152 55 623 79.1766208 623 109 C 623 138.8233792 567.4833152 163 499 163 C 430.5166848 163 375 138.8233792 375 109 Z" stroke-miterlimit="10" stroke-dasharray=""/></g><g><g><path fill="none" stroke="none"/><text fill="#000000" stroke="none" font-family="Arial" font-size="13px" font-style="normal" font-weight="bold" text-decoration="undefined" x="533" y="117" text-anchor="middle" dominant-baseline="central" transform="matrix(1 0 0 1 -34 -20)">UC101 - Visualizzazione</text><text fill="#000000" stroke="none" font-family="Arial" font-size="13px" font-style="normal" font-weight="bold" text-decoration="undefined" x="533" y="130" text-anchor="middle" dominant-baseline="central" transform="matrix(1 0 0 1 -34 -20)">singola richiesta di</text><text fill="#000000" stroke="none" font-family="Arial" font-size="13px" font-style="normal" font-weight="bold" text-decoration="undefined" x="533" y="143" text-anchor="middle" dominant-baseline="central" transform="matrix(1 0 0 1 -34 -20)">decommissioning in lista</text></g></g><g><path fill="#C0C0C0" stroke="none" paint-order="stroke fill markers" d=" M 678 133 C 678 113.1177472 733.5166848 97 802 97 C 870.4833152 97 926 113.1177472 926 133 C 926 152.8822528 870.4833152 169 802 169 C 733.5166848 169 678 152.8822528 678 133 Z" fill-opacity="0.2"/></g><g><path fill="#ffffff" stroke="none" paint-order="stroke fill markers" d=" M 671 126 C 671 106.1177472 726.5166848 90 795 90 C 863.4833152 90 919 106.1177472 919 126 C 919 145.8822528 863.4833152 162 795 162 C 726.5166848 162 671 145.8822528 671 126 Z"/></g><g><path fill="none" stroke="#000000" paint-order="fill stroke markers" d=" M 671 126 C 671 106.1177472 726.5166848 90 795 90 C 863.4833152 90 919 106.1177472 919 126 C 919 145.8822528 863.4833152 162 795 162 C 726.5166848 162 671 145.8822528 671 126 Z" stroke-miterlimit="10" stroke-dasharray=""/></g><g><g><path fill="none" stroke="none"/><text fill="#000000" stroke="none" font-family="Arial" font-size="13px" font-style="normal" font-weight="bold" text-decoration="undefined" x="829" y="134" text-anchor="middle" dominant-baseline="central" transform="matrix(1 0 0 1 -34 -20)">UC101.1 - Visualizzazione</text><text fill="#000000" stroke="none" font-family="Arial" font-size="13px" font-style="normal" font-weight="bold" text-decoration="undefined" x="829" y="147" text-anchor="middle" dominant-baseline="central" transform="matrix(1 0 0 1 -34 -20)">data e ora della richiesta</text><text fill="#000000" stroke="none" font-family="Arial" font-size="13px" font-style="normal" font-weight="bold" text-decoration="undefined" x="829" y="160" text-anchor="middle" dominant-baseline="central" transform="matrix(1 0 0 1 -34 -20)">di decommissioning</text></g></g><g><path fill="#C0C0C0" stroke="none" paint-order="stroke fill markers" d=" M 174 270 C 174 245.14718399999998 218.77152 225 274 225 C 329.22848 225 374 245.14718399999998 374 270 C 374 294.852816 329.22848 315 274 315 C 218.77152 315 174 294.852816 174 270 Z" fill-opacity="0.2"/></g><g><path fill="#ffffff" stroke="none" paint-order="stroke fill markers" d=" M 167 263 C 167 238.14718399999998 211.77152 218 267 218 C 322.22848 218 367 238.14718399999998 367 263 C 367 287.852816 322.22848 308 267 308 C 211.77152 308 167 287.852816 167 263 Z"/></g><g><path fill="none" stroke="#000000" paint-order="fill stroke markers" d=" M 167 263 C 167 238.14718399999998 211.77152 218 267 218 C 322.22848 218 367 238.14718399999998 367 263 C 367 287.852816 322.22848 308 267 308 C 211.77152 308 167 287.852816 167 263 Z" stroke-miterlimit="10" stroke-dasharray=""/></g><g><g><path fill="none" stroke="none"/><text fill="#000000" stroke="none" font-family="Arial" font-size="13px" font-style="normal" font-weight="bold" text-decoration="undefined" x="301" y="264.5" text-anchor="middle" dominant-baseline="central" transform="matrix(1 0 0 1 -34 -20)">UC101.2 -</text><text fill="#000000" stroke="none" font-family="Arial" font-size="13px" font-style="normal" font-weight="bold" text-decoration="undefined" x="301" y="277.5" text-anchor="middle" dominant-baseline="central" transform="matrix(1 0 0 1 -34 -20)">Visualizzazione</text><text fill="#000000" stroke="none" font-family="Arial" font-size="13px" font-style="normal" font-weight="bold" text-decoration="undefined" x="301" y="290.5" text-anchor="middle" dominant-baseline="central" transform="matrix(1 0 0 1 -34 -20)">tenant della richiesta</text><text fill="#000000" stroke="none" font-family="Arial" font-size="13px" font-style="normal" font-weight="bold" text-decoration="undefined" x="301" y="303.5" text-anchor="middle" dominant-baseline="central" transform="matrix(1 0 0 1 -34 -20)">di decommissioning</text></g></g><g><path fill="#C0C0C0" stroke="none" paint-order="stroke fill markers" d=" M 406 279 C 406 249.17662080000002 447.1897984 225 498 225 C 548.8102016 225 590 249.17662080000002 590 279 C 590 308.8233792 548.8102016 333 498 333 C 447.1897984 333 406 308.8233792 406 279 Z" fill-opacity="0.2"/></g><g><path fill="#ffffff" stroke="none" paint-order="stroke fill markers" d=" M 399 272 C 399 242.17662080000002 440.1897984 218 491 218 C 541.8102016 218 583 242.17662080000002 583 272 C 583 301.8233792 541.8102016 326 491 326 C 440.1897984 326 399 301.8233792 399 272 Z"/></g><g><path fill="none" stroke="#000000" paint-order="fill stroke markers" d=" M 399 272 C 399 242.17662080000002 440.1897984 218 491 218 C 541.8102016 218 583 242.17662080000002 583 272 C 583 301.8233792 541.8102016 326 491 326 C 440.1897984 326 399 301.8233792 399 272 Z" stroke-miterlimit="10" stroke-dasharray=""/></g><g><g><path fill="none" stroke="none"/><text fill="#000000" stroke="none" font-family="Arial" font-size="13px" font-style="normal" font-weight="bold" text-decoration="undefined" x="525" y="267" text-anchor="middle" dominant-baseline="central" transform="matrix(1 0 0 1 -34 -20)">UC101.3 -</text><text fill="#000000" stroke="none" font-family="Arial" font-size="13px" font-style="normal" font-weight="bold" text-decoration="undefined" x="525" y="280" text-anchor="middle" dominant-baseline="central" transform="matrix(1 0 0 1 -34 -20)">Visualizzazione</text><text fill="#000000" stroke="none" font-family="Arial" font-size="13px" font-style="normal" font-weight="bold" text-decoration="undefined" x="525" y="293" text-anchor="middle" dominant-baseline="central" transform="matrix(1 0 0 1 -34 -20)">numero gateway</text><text fill="#000000" stroke="none" font-family="Arial" font-size="13px" font-style="normal" font-weight="bold" text-decoration="undefined" x="525" y="306" text-anchor="middle" dominant-baseline="central" transform="matrix(1 0 0 1 -34 -20)">della richiesta di</text><text fill="#000000" stroke="none" font-family="Arial" font-size="13px" font-style="normal" font-weight="bold" text-decoration="undefined" x="525" y="319" text-anchor="middle" dominant-baseline="central" transform="matrix(1 0 0 1 -34 -20)">decommissioning</text></g></g><g><path fill="#C0C0C0" stroke="none" paint-order="stroke fill markers" d=" M 630 270 C 630 245.14718399999998 676.5623808 225 734 225 C 791.4376192 225 838 245.14718399999998 838 270 C 838 294.852816 791.4376192 315 734 315 C 676.5623808 315 630 294.852816 630 270 Z" fill-opacity="0.2"/></g><g><path fill="#ffffff" stroke="none" paint-order="stroke fill markers" d=" M 623 263 C 623 238.14718399999998 669.5623808 218 727 218 C 784.4376192 218 831 238.14718399999998 831 263 C 831 287.852816 784.4376192 308 727 308 C 669.5623808 308 623 287.852816 623 263 Z"/></g><g><path fill="none" stroke="#000000" paint-order="fill stroke markers" d=" M 623 263 C 623 238.14718399999998 669.5623808 218 727 218 C 784.4376192 218 831 238.14718399999998 831 263 C 831 287.852816 784.4376192 308 727 308 C 669.5623808 308 623 287.852816 623 263 Z" stroke-miterlimit="10" stroke-dasharray=""/></g><g><g><path fill="none" stroke="none"/><text fill="#000000" stroke="none" font-family="Arial" font-size="13px" font-style="normal" font-weight="bold" text-decoration="undefined" x="761" y="264.5" text-anchor="middle" dominant-baseline="central" transform="matrix(1 0 0 1 -34 -20)">UC101.4 -</text><text fill="#000000" stroke="none" font-family="Arial" font-size="13px" font-style="normal" font-weight="bold" text-decoration="undefined" x="761" y="277.5" text-anchor="middle" dominant-baseline="central" transform="matrix(1 0 0 1 -34 -20)">Visualizzazione stato</text><text fill="#000000" stroke="none" font-family="Arial" font-size="13px" font-style="normal" font-weight="bold" text-decoration="undefined" x="761" y="290.5" text-anchor="middle" dominant-baseline="central" transform="matrix(1 0 0 1 -34 -20)">della richiesta di</text><text fill="#000000" stroke="none" font-family="Arial" font-size="13px" font-style="normal" font-weight="bold" text-decoration="undefined" x="761" y="303.5" text-anchor="middle" dominant-baseline="central" transform="matrix(1 0 0 1 -34 -20)">decommissioning</text></g></g><g><path fill="none" stroke="#000000" paint-order="fill stroke markers" d=" M 416 164 L 336 217" stroke-miterlimit="10" stroke-dasharray="3"/></g><g><path fill="none" stroke="#000000" paint-order="fill stroke markers" d=" M 342.1472261222224 207.87796015124542 L 336 217 L 346.7970015118188 214.89648904120227" stroke-miterlimit="10" stroke-dasharray=""/></g><g><rect fill="#ffffff" stroke="none" x="399" y="228" width="55.65625" height="13" transform="matrix(1 0 0 1 -34 -20)"/></g><g><g><path fill="none" stroke="none"/><text fill="#000000" stroke="none" font-family="Arial" font-size="13px" font-style="normal" font-weight="normal" text-decoration="undefined" x="426.828125" y="234.5" text-anchor="middle" dominant-baseline="central" transform="matrix(1 0 0 1 -34 -20)">«include»</text></g></g><g><path fill="none" stroke="#000000" paint-order="fill stroke markers" d=" M 496 164 L 494 217" stroke-miterlimit="10" stroke-dasharray="3"/></g><g><path fill="none" stroke="#000000" paint-order="fill stroke markers" d=" M 490.17670061829153 206.68581647255454 L 494 217 L 498.58974819534683 207.00328996602832" stroke-miterlimit="10" stroke-dasharray=""/></g><g><rect fill="#ffffff" stroke="none" x="531" y="205" width="55.65625" height="13" transform="matrix(1 0 0 1 -34 -20)"/></g><g><g><path fill="none" stroke="none"/><text fill="#000000" stroke="none" font-family="Arial" font-size="13px" font-style="normal" font-weight="normal" text-decoration="undefined" x="558.828125" y="211.5" text-anchor="middle" dominant-baseline="central" transform="matrix(1 0 0 1 -34 -20)">«include»</text></g></g><g><path fill="none" stroke="#000000" paint-order="fill stroke markers" d=" M 580 164 L 659 217" stroke-miterlimit="10" stroke-dasharray="3"/></g><g><path fill="none" stroke="#000000" paint-order="fill stroke markers" d=" M 648.2153925382032 214.8338416736175 L 659 217 L 652.9058361730372 207.84242568961966" stroke-miterlimit="10" stroke-dasharray=""/></g><g><rect fill="#ffffff" stroke="none" x="642" y="179" width="55.65625" height="13" transform="matrix(1 0 0 1 -34 -20)"/></g><g><g><path fill="none" stroke="none"/><text fill="#000000" stroke="none" font-family="Arial" font-size="13px" font-style="normal" font-weight="normal" text-decoration="undefined" x="669.828125" y="185.5" text-anchor="middle" dominant-baseline="central" transform="matrix(1 0 0 1 -34 -20)">«include»</text></g></g><g><path fill="none" stroke="#000000" paint-order="fill stroke markers" d=" M 624 116 L 670 119" stroke-miterlimit="10" stroke-dasharray="3"/></g><g><path fill="none" stroke="#000000" paint-order="fill stroke markers" d=" M 659.5849171519753 122.53921591158027 L 670 119 L 660.1328207203803 114.13802786270381" stroke-miterlimit="10" stroke-dasharray=""/></g><g><rect fill="#ffffff" stroke="none" x="656" y="101" width="55.65625" height="13" transform="matrix(1 0 0 1 -34 -20)"/></g><g><g><path fill="none" stroke="none"/><text fill="#000000" stroke="none" font-family="Arial" font-size="13px" font-style="normal" font-weight="normal" text-decoration="undefined" x="683.828125" y="107.5" text-anchor="middle" dominant-baseline="central" transform="matrix(1 0 0 1 -34 -20)">«include»</text></g></g><g><path fill="#ffffff" stroke="none" paint-order="stroke fill markers" d=" M 47.930751953125 80.85 C 47.930751953125 75.96227952 51.888554321125 72 56.770751953125 72 C 61.652949585125 72 65.610751953125 75.96227952 65.610751953125 80.85 C 65.610751953125 85.73772048 61.652949585125 89.7 56.770751953125 89.7 C 51.888554321125 89.7 47.930751953125 85.73772048 47.930751953125 80.85 Z"/></g><g><path fill="none" stroke="#000000" paint-order="fill stroke markers" d=" M 47.930751953125 80.85 C 47.930751953125 75.96227952 51.888554321125 72 56.770751953125 72 C 61.652949585125 72 65.610751953125 75.96227952 65.610751953125 80.85 C 65.610751953125 85.73772048 61.652949585125 89.7 56.770751953125 89.7 C 51.888554321125 89.7 47.930751953125 85.73772048 47.930751953125 80.85 Z" stroke-miterlimit="10" stroke-dasharray=""/></g><g><path fill="none" stroke="#000000" paint-order="fill stroke markers" d=" M 56.770751953125 89.7 L 56.770751953125 107.3" stroke-miterlimit="10" stroke-dasharray=""/></g><g><path fill="none" stroke="#000000" paint-order="fill stroke markers" d=" M 47.410751953125 96.3 L 66.130751953125 96.3" stroke-miterlimit="10" stroke-dasharray=""/></g><g><path fill="none" stroke="#000000" paint-order="fill stroke markers" d=" M 56.770751953125 107.3 L 43.770751953125 125" stroke-miterlimit="10" stroke-dasharray=""/></g><g><path fill="none" stroke="#000000" paint-order="fill stroke markers" d=" M 56.770751953125 107.3 L 69.770751953125 125" stroke-miterlimit="10" stroke-dasharray=""/></g><g><g><path fill="none" stroke="none"/><text fill="#000000" stroke="none" font-family="Arial" font-size="13px" font-style="normal" font-weight="bold" text-decoration="undefined" x="91.270751953125" y="159.5" text-anchor="middle" dominant-baseline="central" transform="matrix(1 0 0 1 -34 -20)">Tenant admin</text></g></g><g><path fill="none" stroke="#000000" paint-order="fill stroke markers" d=" M 374 110 L 105 111" stroke-miterlimit="10" stroke-dasharray=""/></g></g></svg>