<svg version="1.1" xmlns="http://www.w3.org/2000/svg" xmlns:xlink="http://www.w3.org/1999/xlink" width="813" height="388"><defs/><g><g><rect fill="#C0C0C0" stroke="none" x="177" y="33" width="656" height="368" transform="matrix(1 0 0 1 -24 -16)" fill-opacity="0.2"/></g><g><rect fill="#ffffff" stroke="none" x="170" y="26" width="656" height="368" transform="matrix(1 0 0 1 -24 -16)"/></g><g><path fill="none" stroke="#000000" paint-order="fill stroke markers" d=" M 146 10 L 802 10 L 802 378 L 146 378 L 146 10 Z Z" stroke-miterlimit="10" stroke-dasharray=""/></g><g><g><path fill="none" stroke="none"/><text fill="#000000" stroke="none" font-family="Arial" font-size="13px" font-style="normal" font-weight="bold" text-decoration="undefined" x="498.5" y="39.5" text-anchor="middle" dominant-baseline="central" transform="matrix(1 0 0 1 -24 -16)">Sistema cloud</text></g></g><g><path fill="#C0C0C0" stroke="none" paint-order="stroke fill markers" d=" M 177 205 C 177 185.1177472 232.5166848 169 301 169 C 369.4833152 169 425 185.1177472 425 205 C 425 224.8822528 369.4833152 241 301 241 C 232.5166848 241 177 224.8822528 177 205 Z" fill-opacity="0.2"/></g><g><path fill="#ffffff" stroke="none" paint-order="stroke fill markers" d=" M 170 198 C 170 178.1177472 225.5166848 162 294 162 C 362.4833152 162 418 178.1177472 418 198 C 418 217.8822528 362.4833152 234 294 234 C 225.5166848 234 170 217.8822528 170 198 Z"/></g><g><path fill="none" stroke="#000000" paint-order="fill stroke markers" d=" M 170 198 C 170 178.1177472 225.5166848 162 294 162 C 362.4833152 162 418 178.1177472 418 198 C 418 217.8822528 362.4833152 234 294 234 C 225.5166848 234 170 217.8822528 170 198 Z" stroke-miterlimit="10" stroke-dasharray=""/></g><g><g><path fill="none" stroke="none"/><text fill="#000000" stroke="none" font-family="Arial" font-size="13px" font-style="normal" font-weight="bold" text-decoration="undefined" x="318" y="202" text-anchor="middle" dominant-baseline="central" transform="matrix(1 0 0 1 -24 -16)">UC102 - Visualizzazione</text><text fill="#000000" stroke="none" font-family="Arial" font-size="13px" font-style="normal" font-weight="bold" text-decoration="undefined" x="318" y="215" text-anchor="middle" dominant-baseline="central" transform="matrix(1 0 0 1 -24 -16)">singola richiesta di</text><text fill="#000000" stroke="none" font-family="Arial" font-size="13px" font-style="normal" font-weight="bold" text-decoration="undefined" x="318" y="228" text-anchor="middle" dominant-baseline="central" transform="matrix(1 0 0 1 -24 -16)">commissioning in lista</text></g></g><g><path fill="#C0C0C0" stroke="none" paint-order="stroke fill markers" d=" M 489 117 C 489 97.1177472 557.0527104 81 641 81 C 724.9472896 81 793 97.1177472 793 117 C 793 136.8822528 724.9472896 153 641 153 C 557.0527104 153 489 136.8822528 489 117 Z" fill-opacity="0.2"/></g><g><path fill="#ffffff" stroke="none" paint-order="stroke fill markers" d=" M 482 110 C 482 90.1177472 550.0527104 74 634 74 C 717.9472896 74 786 90.1177472 786 110 C 786 129.8822528 717.9472896 146 634 146 C 550.0527104 146 482 129.8822528 482 110 Z"/></g><g><path fill="none" stroke="#000000" paint-order="fill stroke markers" d=" M 482 110 C 482 90.1177472 550.0527104 74 634 74 C 717.9472896 74 786 90.1177472 786 110 C 786 129.8822528 717.9472896 146 634 146 C 550.0527104 146 482 129.8822528 482 110 Z" stroke-miterlimit="10" stroke-dasharray=""/></g><g><g><path fill="none" stroke="none"/><text fill="#000000" stroke="none" font-family="Arial" font-size="13px" font-style="normal" font-weight="bold" text-decoration="undefined" x="658" y="114" text-anchor="middle" dominant-baseline="central" transform="matrix(1 0 0 1 -24 -16)">UC102.1 - Visualizzazione data e</text><text fill="#000000" stroke="none" font-family="Arial" font-size="13px" font-style="normal" font-weight="bold" text-decoration="undefined" x="658" y="127" text-anchor="middle" dominant-baseline="central" transform="matrix(1 0 0 1 -24 -16)">ora della richiesta di</text><text fill="#000000" stroke="none" font-family="Arial" font-size="13px" font-style="normal" font-weight="bold" text-decoration="undefined" x="658" y="140" text-anchor="middle" dominant-baseline="central" transform="matrix(1 0 0 1 -24 -16)">commissioning</text></g></g><g><path fill="#C0C0C0" stroke="none" paint-order="stroke fill markers" d=" M 489 221 C 489 201.1177472 553.4709888 185 633 185 C 712.5290112 185 777 201.1177472 777 221 C 777 240.8822528 712.5290112 257 633 257 C 553.4709888 257 489 240.8822528 489 221 Z" fill-opacity="0.2"/></g><g><path fill="#ffffff" stroke="none" paint-order="stroke fill markers" d=" M 482 214 C 482 194.1177472 546.4709888 178 626 178 C 705.5290112 178 770 194.1177472 770 214 C 770 233.8822528 705.5290112 250 626 250 C 546.4709888 250 482 233.8822528 482 214 Z"/></g><g><path fill="none" stroke="#000000" paint-order="fill stroke markers" d=" M 482 214 C 482 194.1177472 546.4709888 178 626 178 C 705.5290112 178 770 194.1177472 770 214 C 770 233.8822528 705.5290112 250 626 250 C 546.4709888 250 482 233.8822528 482 214 Z" stroke-miterlimit="10" stroke-dasharray=""/></g><g><g><path fill="none" stroke="none"/><text fill="#000000" stroke="none" font-family="Arial" font-size="13px" font-style="normal" font-weight="bold" text-decoration="undefined" x="650" y="218" text-anchor="middle" dominant-baseline="central" transform="matrix(1 0 0 1 -24 -16)">UC102.2 - Visualizzazione</text><text fill="#000000" stroke="none" font-family="Arial" font-size="13px" font-style="normal" font-weight="bold" text-decoration="undefined" x="650" y="231" text-anchor="middle" dominant-baseline="central" transform="matrix(1 0 0 1 -24 -16)">tenant della richiesta di</text><text fill="#000000" stroke="none" font-family="Arial" font-size="13px" font-style="normal" font-weight="bold" text-decoration="undefined" x="650" y="244" text-anchor="middle" dominant-baseline="central" transform="matrix(1 0 0 1 -24 -16)">commissioning</text></g></g><g><path fill="#ffffff" stroke="none" paint-order="stroke fill markers" d=" M 482 310 C 482 290.1177472 546.4709888 274 626 274 C 705.5290112 274 770 290.1177472 770 310 C 770 329.8822528 705.5290112 346 626 346 C 546.4709888 346 482 329.8822528 482 310 Z"/></g><g><path fill="none" stroke="#000000" paint-order="fill stroke markers" d=" M 482 310 C 482 290.1177472 546.4709888 274 626 274 C 705.5290112 274 770 290.1177472 770 310 C 770 329.8822528 705.5290112 346 626 346 C 546.4709888 346 482 329.8822528 482 310 Z" stroke-miterlimit="10" stroke-dasharray=""/></g><g><g><path fill="none" stroke="none"/><text fill="#000000" stroke="none" font-family="Arial" font-size="13px" font-style="normal" font-weight="bold" text-decoration="undefined" x="650" y="314" text-anchor="middle" dominant-baseline="central" transform="matrix(1 0 0 1 -24 -16)">UC102.3 - Visualizzazione</text><text fill="#000000" stroke="none" font-family="Arial" font-size="13px" font-style="normal" font-weight="bold" text-decoration="undefined" x="650" y="327" text-anchor="middle" dominant-baseline="central" transform="matrix(1 0 0 1 -24 -16)">numero gateway della richiesta</text><text fill="#000000" stroke="none" font-family="Arial" font-size="13px" font-style="normal" font-weight="bold" text-decoration="undefined" x="650" y="340" text-anchor="middle" dominant-baseline="central" transform="matrix(1 0 0 1 -24 -16)">di commissioning</text></g></g><g><path fill="none" stroke="#000000" paint-order="fill stroke markers" d=" M 419 166 L 491 147" stroke-miterlimit="10" stroke-dasharray="3"/></g><g><path fill="none" stroke="#000000" paint-order="fill stroke markers" d=" M 482.24778243155276 153.66323402219697 L 491 147 L 480.0996296452025 145.52286556865928" stroke-miterlimit="10" stroke-dasharray=""/></g><g><rect fill="#ffffff" stroke="none" x="444" y="136" width="55.65625" height="13" transform="matrix(1 0 0 1 -24 -16)"/></g><g><g><path fill="none" stroke="none"/><text fill="#000000" stroke="none" font-family="Arial" font-size="13px" font-style="normal" font-weight="normal" text-decoration="undefined" x="471.828125" y="142.5" text-anchor="middle" dominant-baseline="central" transform="matrix(1 0 0 1 -24 -16)">«include»</text></g></g><g><path fill="none" stroke="#000000" paint-order="fill stroke markers" d=" M 419 204 L 481 207" stroke-miterlimit="10" stroke-dasharray="3"/></g><g><path fill="none" stroke="#000000" paint-order="fill stroke markers" d=" M 470.6457529696573 210.71343081726852 L 481 207 L 471.05264959840633 202.30423382312168" stroke-miterlimit="10" stroke-dasharray=""/></g><g><rect fill="#ffffff" stroke="none" x="450" y="202" width="55.65625" height="13" transform="matrix(1 0 0 1 -24 -16)"/></g><g><g><path fill="none" stroke="none"/><text fill="#000000" stroke="none" font-family="Arial" font-size="13px" font-style="normal" font-weight="normal" text-decoration="undefined" x="477.828125" y="208.5" text-anchor="middle" dominant-baseline="central" transform="matrix(1 0 0 1 -24 -16)">«include»</text></g></g><g><path fill="none" stroke="#000000" paint-order="fill stroke markers" d=" M 404 235 L 516 273" stroke-miterlimit="10" stroke-dasharray="3"/></g><g><path fill="none" stroke="#000000" paint-order="fill stroke markers" d=" M 505.0236607034352 273.7210933689104 L 516 273 L 507.72866603976945 265.7484460618198" stroke-miterlimit="10" stroke-dasharray=""/></g><g><rect fill="#ffffff" stroke="none" x="442" y="274" width="55.65625" height="13" transform="matrix(1 0 0 1 -24 -16)"/></g><g><g><path fill="none" stroke="none"/><text fill="#000000" stroke="none" font-family="Arial" font-size="13px" font-style="normal" font-weight="normal" text-decoration="undefined" x="469.828125" y="280.5" text-anchor="middle" dominant-baseline="central" transform="matrix(1 0 0 1 -24 -16)">«include»</text></g></g><g><path fill="#ffffff" stroke="none" paint-order="stroke fill markers" d=" M 47.930751953125 163.85 C 47.930751953125 158.96227952 51.888554321125 155 56.770751953125 155 C 61.652949585125 155 65.610751953125 158.96227952 65.610751953125 163.85 C 65.610751953125 168.73772047999998 61.652949585125 172.7 56.770751953125 172.7 C 51.888554321125 172.7 47.930751953125 168.73772047999998 47.930751953125 163.85 Z"/></g><g><path fill="none" stroke="#000000" paint-order="fill stroke markers" d=" M 47.930751953125 163.85 C 47.930751953125 158.96227952 51.888554321125 155 56.770751953125 155 C 61.652949585125 155 65.610751953125 158.96227952 65.610751953125 163.85 C 65.610751953125 168.73772047999998 61.652949585125 172.7 56.770751953125 172.7 C 51.888554321125 172.7 47.930751953125 168.73772047999998 47.930751953125 163.85 Z" stroke-miterlimit="10" stroke-dasharray=""/></g><g><path fill="none" stroke="#000000" paint-order="fill stroke markers" d=" M 56.770751953125 172.7 L 56.770751953125 190.3" stroke-miterlimit="10" stroke-dasharray=""/></g><g><path fill="none" stroke="#000000" paint-order="fill stroke markers" d=" M 47.410751953125 179.3 L 66.130751953125 179.3" stroke-miterlimit="10" stroke-dasharray=""/></g><g><path fill="none" stroke="#000000" paint-order="fill stroke markers" d=" M 56.770751953125 190.3 L 43.770751953125 208" stroke-miterlimit="10" stroke-dasharray=""/></g><g><path fill="none" stroke="#000000" paint-order="fill stroke markers" d=" M 56.770751953125 190.3 L 69.770751953125 208" stroke-miterlimit="10" stroke-dasharray=""/></g><g><g><path fill="none" stroke="none"/><text fill="#000000" stroke="none" font-family="Arial" font-size="13px" font-style="normal" font-weight="bold" text-decoration="undefined" x="81.270751953125" y="238.5" text-anchor="middle" dominant-baseline="central" transform="matrix(1 0 0 1 -24 -16)">Tenant admin</text></g></g><g><path fill="none" stroke="#000000" paint-order="fill stroke markers" d=" M 169 196 L 105 195" stroke-miterlimit="10" stroke-dasharray=""/></g></g></svg>