<svg version="1.1" xmlns="http://www.w3.org/2000/svg" xmlns:xlink="http://www.w3.org/1999/xlink" width="881.4072265625" height="508"><defs/><g><g><rect fill="#C0C0C0" stroke="none" x="346" y="370" width="600" height="488" transform="matrix(1 0 0 1 -209 -353)" fill-opacity="0.2"/></g><g><rect fill="#ffffff" stroke="none" x="339" y="363" width="600" height="488" transform="matrix(1 0 0 1 -209 -353)"/></g><g><path fill="none" stroke="#000000" paint-order="fill stroke markers" d=" M 130 10 L 730 10 L 730 498 L 130 498 L 130 10 Z Z" stroke-miterlimit="10" stroke-dasharray=""/></g><g><g><path fill="none" stroke="none"/><text fill="#000000" stroke="none" font-family="Arial" font-size="13px" font-style="normal" font-weight="bold" text-decoration="undefined" x="639.5" y="376.5" text-anchor="middle" dominant-baseline="central" transform="matrix(1 0 0 1 -209 -353)">Sistema Gateway</text></g></g><g><path fill="#ffffff" stroke="none" paint-order="stroke fill markers" d=" M 819.3636132812501 203.85000000000002 C 819.3636132812501 198.96227952000004 823.32141564925 195 828.20361328125 195 C 833.08581091325 195 837.0436132812499 198.96227952000004 837.0436132812499 203.85000000000002 C 837.0436132812499 208.73772048 833.08581091325 212.70000000000005 828.20361328125 212.70000000000005 C 823.32141564925 212.70000000000005 819.3636132812501 208.73772048 819.3636132812501 203.85000000000002 Z"/></g><g><path fill="none" stroke="#000000" paint-order="fill stroke markers" d=" M 819.3636132812501 203.85000000000002 C 819.3636132812501 198.96227952000004 823.32141564925 195 828.20361328125 195 C 833.08581091325 195 837.0436132812499 198.96227952000004 837.0436132812499 203.85000000000002 C 837.0436132812499 208.73772048 833.08581091325 212.70000000000005 828.20361328125 212.70000000000005 C 823.32141564925 212.70000000000005 819.3636132812501 208.73772048 819.3636132812501 203.85000000000002 Z" stroke-miterlimit="10" stroke-dasharray=""/></g><g><path fill="none" stroke="#000000" paint-order="fill stroke markers" d=" M 828.20361328125 212.70000000000005 L 828.20361328125 230.29999999999995" stroke-miterlimit="10" stroke-dasharray=""/></g><g><path fill="none" stroke="#000000" paint-order="fill stroke markers" d=" M 818.8436132812501 219.29999999999995 L 837.5636132812499 219.29999999999995" stroke-miterlimit="10" stroke-dasharray=""/></g><g><path fill="none" stroke="#000000" paint-order="fill stroke markers" d=" M 828.20361328125 230.29999999999995 L 815.20361328125 248" stroke-miterlimit="10" stroke-dasharray=""/></g><g><path fill="none" stroke="#000000" paint-order="fill stroke markers" d=" M 828.20361328125 230.29999999999995 L 841.20361328125 248" stroke-miterlimit="10" stroke-dasharray=""/></g><g><g><path fill="none" stroke="none"/><text fill="#000000" stroke="none" font-family="Arial" font-size="13px" font-style="normal" font-weight="bold" text-decoration="undefined" x="1037.70361328125" y="615.5" text-anchor="middle" dominant-baseline="central" transform="matrix(1 0 0 1 -209 -353)">Email Client</text></g></g><g><path fill="none" stroke="#000000" paint-order="fill stroke markers" d=" M 491 210 L 785 231" stroke-miterlimit="10" stroke-dasharray=""/></g><g><path fill="none" stroke="#000000" paint-order="fill stroke markers" d=" M 466 112 L 408 169" stroke-miterlimit="10" stroke-dasharray="3"/></g><g><path fill="none" stroke="#000000" paint-order="fill stroke markers" d=" M 412.2977263598774 158.8743124610911 L 408 169 L 418.1988937756921 164.8790091298148" stroke-miterlimit="10" stroke-dasharray=""/></g><g><rect fill="#ffffff" stroke="none" x="653" y="482" width="53.49169921875" height="13" transform="matrix(1 0 0 1 -209 -353)"/></g><g><g><path fill="none" stroke="none"/><text fill="#000000" stroke="none" font-family="Arial" font-size="13px" font-style="normal" font-weight="normal" text-decoration="undefined" x="679.745849609375" y="488.5" text-anchor="middle" dominant-baseline="central" transform="matrix(1 0 0 1 -209 -353)">«extend»</text></g></g><g><path fill="none" stroke="#000000" paint-order="fill stroke markers" d=" M 447 235 L 566 289" stroke-miterlimit="10" stroke-dasharray="3"/></g><g><path fill="none" stroke="#000000" paint-order="fill stroke markers" d=" M 555.0060965367709 288.6338215719105 L 566 289 L 558.4850635590667 280.9672090598141" stroke-miterlimit="10" stroke-dasharray=""/></g><g><rect fill="#ffffff" stroke="none" x="702" y="600" width="55.65625" height="13" transform="matrix(1 0 0 1 -209 -353)"/></g><g><g><path fill="none" stroke="none"/><text fill="#000000" stroke="none" font-family="Arial" font-size="13px" font-style="normal" font-weight="normal" text-decoration="undefined" x="729.828125" y="606.5" text-anchor="middle" dominant-baseline="central" transform="matrix(1 0 0 1 -209 -353)">«include»</text></g></g><g><path fill="none" stroke="#000000" paint-order="fill stroke markers" d=" M 401 235 L 531 393" stroke-miterlimit="10" stroke-dasharray="3"/></g><g><path fill="none" stroke="#000000" paint-order="fill stroke markers" d=" M 521.2923550174868 387.82683569819346 L 531 393 L 527.7936379615129 382.47767884551376" stroke-miterlimit="10" stroke-dasharray=""/></g><g><rect fill="#ffffff" stroke="none" x="667" y="643" width="55.65625" height="13" transform="matrix(1 0 0 1 -209 -353)"/></g><g><g><path fill="none" stroke="none"/><text fill="#000000" stroke="none" font-family="Arial" font-size="13px" font-style="normal" font-weight="normal" text-decoration="undefined" x="694.828125" y="649.5" text-anchor="middle" dominant-baseline="central" transform="matrix(1 0 0 1 -209 -353)">«include»</text></g></g><g><path fill="none" stroke="#000000" paint-order="fill stroke markers" d=" M 360 235 L 325 321" stroke-miterlimit="10" stroke-dasharray="3"/></g><g><path fill="none" stroke="#000000" paint-order="fill stroke markers" d=" M 324.93187989297564 310.0002109269759 L 325 321 L 332.72985725554486 313.1738063652309" stroke-miterlimit="10" stroke-dasharray=""/></g><g><rect fill="#ffffff" stroke="none" x="551" y="636" width="55.65625" height="13" transform="matrix(1 0 0 1 -209 -353)"/></g><g><g><path fill="none" stroke="none"/><text fill="#000000" stroke="none" font-family="Arial" font-size="13px" font-style="normal" font-weight="normal" text-decoration="undefined" x="578.828125" y="642.5" text-anchor="middle" dominant-baseline="central" transform="matrix(1 0 0 1 -209 -353)">«include»</text></g></g><g><path fill="#C0C0C0" stroke="none" paint-order="stroke fill markers" d=" M 265 209 C 265 191.32688640000003 316.93496319999997 177 381 177 C 445.06503680000003 177 497 191.32688640000003 497 209 C 497 226.67311359999997 445.06503680000003 241 381 241 C 316.93496319999997 241 265 226.67311359999997 265 209 Z" fill-opacity="0.2"/></g><g><path fill="#ffffff" stroke="none" paint-order="stroke fill markers" d=" M 258 202 C 258 184.32688640000003 309.93496319999997 170 374 170 C 438.06503680000003 170 490 184.32688640000003 490 202 C 490 219.67311359999997 438.06503680000003 234 374 234 C 309.93496319999997 234 258 219.67311359999997 258 202 Z"/></g><g><path fill="none" stroke="#000000" paint-order="fill stroke markers" d=" M 258 202 C 258 184.32688640000003 309.93496319999997 170 374 170 C 438.06503680000003 170 490 184.32688640000003 490 202 C 490 219.67311359999997 438.06503680000003 234 374 234 C 309.93496319999997 234 258 219.67311359999997 258 202 Z" stroke-miterlimit="10" stroke-dasharray=""/></g><g><g><path fill="none" stroke="none"/><text fill="#000000" stroke="none" font-family="Arial" font-size="13px" font-style="normal" font-weight="bold" text-decoration="undefined" x="583" y="549.5" text-anchor="middle" dominant-baseline="central" transform="matrix(1 0 0 1 -209 -353)">UC113 - Creazione</text><text fill="#000000" stroke="none" font-family="Arial" font-size="13px" font-style="normal" font-weight="bold" text-decoration="undefined" x="583" y="562.5" text-anchor="middle" dominant-baseline="central" transform="matrix(1 0 0 1 -209 -353)">utente Tenant Admin</text></g></g><g><path fill="#C0C0C0" stroke="none" paint-order="stroke fill markers" d=" M 425 91.5 C 425 76.86445279999998 459.0263552 65 501 65 C 542.9736448 65 577 76.86445279999998 577 91.5 C 577 106.13554720000002 542.9736448 118 501 118 C 459.0263552 118 425 106.13554720000002 425 91.5 Z" fill-opacity="0.2"/></g><g><path fill="#ffffff" stroke="none" paint-order="stroke fill markers" d=" M 418 84.5 C 418 69.86445279999998 452.0263552 58 494 58 C 535.9736448 58 570 69.86445279999998 570 84.5 C 570 99.13554720000002 535.9736448 111 494 111 C 452.0263552 111 418 99.13554720000002 418 84.5 Z"/></g><g><path fill="none" stroke="#000000" paint-order="fill stroke markers" d=" M 418 84.5 C 418 69.86445279999998 452.0263552 58 494 58 C 535.9736448 58 570 69.86445279999998 570 84.5 C 570 99.13554720000002 535.9736448 111 494 111 C 452.0263552 111 418 99.13554720000002 418 84.5 Z" stroke-miterlimit="10" stroke-dasharray=""/></g><g><g><path fill="none" stroke="none"/><text fill="#000000" stroke="none" font-family="Arial" font-size="13px" font-style="normal" font-weight="bold" text-decoration="undefined" x="703" y="432" text-anchor="middle" dominant-baseline="central" transform="matrix(1 0 0 1 -209 -353)">UC35 - Email</text><text fill="#000000" stroke="none" font-family="Arial" font-size="13px" font-style="normal" font-weight="bold" text-decoration="undefined" x="703" y="445" text-anchor="middle" dominant-baseline="central" transform="matrix(1 0 0 1 -209 -353)">già utilizzata</text></g></g><g><path fill="#C0C0C0" stroke="none" paint-order="stroke fill markers" d=" M 545 323.5 C 545 308.8644528 584.3989376 297 633 297 C 681.6010624 297 721 308.8644528 721 323.5 C 721 338.1355472 681.6010624 350 633 350 C 584.3989376 350 545 338.1355472 545 323.5 Z" fill-opacity="0.2"/></g><g><path fill="#ffffff" stroke="none" paint-order="stroke fill markers" d=" M 538 316.5 C 538 301.8644528 577.3989376 290 626 290 C 674.6010624 290 714 301.8644528 714 316.5 C 714 331.1355472 674.6010624 343 626 343 C 577.3989376 343 538 331.1355472 538 316.5 Z"/></g><g><path fill="none" stroke="#000000" paint-order="fill stroke markers" d=" M 538 316.5 C 538 301.8644528 577.3989376 290 626 290 C 674.6010624 290 714 301.8644528 714 316.5 C 714 331.1355472 674.6010624 343 626 343 C 577.3989376 343 538 331.1355472 538 316.5 Z" stroke-miterlimit="10" stroke-dasharray=""/></g><g><g><path fill="none" stroke="none"/><text fill="#000000" stroke="none" font-family="Arial" font-size="13px" font-style="normal" font-weight="bold" text-decoration="undefined" x="835" y="664" text-anchor="middle" dominant-baseline="central" transform="matrix(1 0 0 1 -209 -353)">UC113.1 -</text><text fill="#000000" stroke="none" font-family="Arial" font-size="13px" font-style="normal" font-weight="bold" text-decoration="undefined" x="835" y="677" text-anchor="middle" dominant-baseline="central" transform="matrix(1 0 0 1 -209 -353)">Selezione tenant</text></g></g><g><path fill="#C0C0C0" stroke="none" paint-order="stroke fill markers" d=" M 457 437 C 457 417.11774720000005 507.14410239999995 401 569 401 C 630.8558976 401 681 417.11774720000005 681 437 C 681 456.88225279999995 630.8558976 473 569 473 C 507.14410239999995 473 457 456.88225279999995 457 437 Z" fill-opacity="0.2"/></g><g><path fill="#ffffff" stroke="none" paint-order="stroke fill markers" d=" M 450 430 C 450 410.11774720000005 500.14410239999995 394 562 394 C 623.8558976 394 674 410.11774720000005 674 430 C 674 449.88225279999995 623.8558976 466 562 466 C 500.14410239999995 466 450 449.88225279999995 450 430 Z"/></g><g><path fill="none" stroke="#000000" paint-order="fill stroke markers" d=" M 450 430 C 450 410.11774720000005 500.14410239999995 394 562 394 C 623.8558976 394 674 410.11774720000005 674 430 C 674 449.88225279999995 623.8558976 466 562 466 C 500.14410239999995 466 450 449.88225279999995 450 430 Z" stroke-miterlimit="10" stroke-dasharray=""/></g><g><g><path fill="none" stroke="none"/><text fill="#000000" stroke="none" font-family="Arial" font-size="13px" font-style="normal" font-weight="bold" text-decoration="undefined" x="771" y="771" text-anchor="middle" dominant-baseline="central" transform="matrix(1 0 0 1 -209 -353)">UC113.2 - Inserimento</text><text fill="#000000" stroke="none" font-family="Arial" font-size="13px" font-style="normal" font-weight="bold" text-decoration="undefined" x="771" y="784" text-anchor="middle" dominant-baseline="central" transform="matrix(1 0 0 1 -209 -353)">email nuovo Tenant</text><text fill="#000000" stroke="none" font-family="Arial" font-size="13px" font-style="normal" font-weight="bold" text-decoration="undefined" x="771" y="797" text-anchor="middle" dominant-baseline="central" transform="matrix(1 0 0 1 -209 -353)">Admin</text></g></g><g><path fill="#C0C0C0" stroke="none" paint-order="stroke fill markers" d=" M 209 374 C 209 349.14718400000004 255.56238080000003 329 313 329 C 370.4376192 329 417 349.14718400000004 417 374 C 417 398.85281599999996 370.4376192 419 313 419 C 255.56238080000003 419 209 398.85281599999996 209 374 Z" fill-opacity="0.2"/></g><g><path fill="#ffffff" stroke="none" paint-order="stroke fill markers" d=" M 202 367 C 202 342.14718400000004 248.56238080000003 322 306 322 C 363.4376192 322 410 342.14718400000004 410 367 C 410 391.85281599999996 363.4376192 412 306 412 C 248.56238080000003 412 202 391.85281599999996 202 367 Z"/></g><g><path fill="none" stroke="#000000" paint-order="fill stroke markers" d=" M 202 367 C 202 342.14718400000004 248.56238080000003 322 306 322 C 363.4376192 322 410 342.14718400000004 410 367 C 410 391.85281599999996 363.4376192 412 306 412 C 248.56238080000003 412 202 391.85281599999996 202 367 Z" stroke-miterlimit="10" stroke-dasharray=""/></g><g><g><path fill="none" stroke="none"/><text fill="#000000" stroke="none" font-family="Arial" font-size="13px" font-style="normal" font-weight="bold" text-decoration="undefined" x="515" y="701.5" text-anchor="middle" dominant-baseline="central" transform="matrix(1 0 0 1 -209 -353)">UC113.3 - Invio email</text><text fill="#000000" stroke="none" font-family="Arial" font-size="13px" font-style="normal" font-weight="bold" text-decoration="undefined" x="515" y="714.5" text-anchor="middle" dominant-baseline="central" transform="matrix(1 0 0 1 -209 -353)">impostazione</text><text fill="#000000" stroke="none" font-family="Arial" font-size="13px" font-style="normal" font-weight="bold" text-decoration="undefined" x="515" y="727.5" text-anchor="middle" dominant-baseline="central" transform="matrix(1 0 0 1 -209 -353)">password nuovo</text><text fill="#000000" stroke="none" font-family="Arial" font-size="13px" font-style="normal" font-weight="bold" text-decoration="undefined" x="515" y="740.5" text-anchor="middle" dominant-baseline="central" transform="matrix(1 0 0 1 -209 -353)">Tenant-admin</text></g></g><g><path fill="#ffffff" stroke="none" paint-order="stroke fill markers" d=" M 46.607265625 203.85000000000002 C 46.607265625 198.96227952000004 50.565067993000014 195 55.447265625 195 C 60.329463256999986 195 64.28726562499997 198.96227952000004 64.28726562499997 203.85000000000002 C 64.28726562499997 208.73772048 60.329463256999986 212.70000000000005 55.447265625 212.70000000000005 C 50.565067993000014 212.70000000000005 46.607265625 208.73772048 46.607265625 203.85000000000002 Z"/></g><g><path fill="none" stroke="#000000" paint-order="fill stroke markers" d=" M 46.607265625 203.85000000000002 C 46.607265625 198.96227952000004 50.565067993000014 195 55.447265625 195 C 60.329463256999986 195 64.28726562499997 198.96227952000004 64.28726562499997 203.85000000000002 C 64.28726562499997 208.73772048 60.329463256999986 212.70000000000005 55.447265625 212.70000000000005 C 50.565067993000014 212.70000000000005 46.607265625 208.73772048 46.607265625 203.85000000000002 Z" stroke-miterlimit="10" stroke-dasharray=""/></g><g><path fill="none" stroke="#000000" paint-order="fill stroke markers" d=" M 55.447265625 212.70000000000005 L 55.447265625 230.29999999999995" stroke-miterlimit="10" stroke-dasharray=""/></g><g><path fill="none" stroke="#000000" paint-order="fill stroke markers" d=" M 46.087265624999986 219.29999999999995 L 64.80726562500001 219.29999999999995" stroke-miterlimit="10" stroke-dasharray=""/></g><g><path fill="none" stroke="#000000" paint-order="fill stroke markers" d=" M 55.447265625 230.29999999999995 L 42.447265625 248" stroke-miterlimit="10" stroke-dasharray=""/></g><g><path fill="none" stroke="#000000" paint-order="fill stroke markers" d=" M 55.447265625 230.29999999999995 L 68.447265625 248" stroke-miterlimit="10" stroke-dasharray=""/></g><g><g><path fill="none" stroke="none"/><text fill="#000000" stroke="none" font-family="Arial" font-size="13px" font-style="normal" font-weight="bold" text-decoration="undefined" x="264.947265625" y="615.5" text-anchor="middle" dominant-baseline="central" transform="matrix(1 0 0 1 -209 -353)">Super Admin</text></g></g><g><path fill="none" stroke="#000000" paint-order="fill stroke markers" d=" M 102 229 L 257 214" stroke-miterlimit="10" stroke-dasharray=""/></g><g><path fill="#ffffff" stroke="none" paint-order="stroke fill markers" d=" M 242 74 L 359.65625 74 L 369.65625 84 L 369.65625 150 L 242 150 L 242 74"/></g><g><path fill="none" stroke="#000000" paint-order="fill stroke markers" d=" M 242 74 L 359.65625 74 L 369.65625 84 L 369.65625 150 L 242 150 L 242 74 L 242 74" stroke-miterlimit="10" stroke-dasharray=""/></g><g><path fill="none" stroke="#000000" paint-order="fill stroke markers" d=" M 359.65625 74 L 359.65625 84 L 369.65625 84 L 359.65625 74" stroke-miterlimit="10" stroke-dasharray=""/></g><g><g><path fill="none" stroke="none"/><text fill="#000000" stroke="none" font-family="Arial" font-size="13px" font-style="normal" font-weight="normal" text-decoration="undefined" x="456" y="432" text-anchor="start" dominant-baseline="text-before-edge" transform="matrix(1 0 0 1 -209 -353)">Condizione: Il Super</text><text fill="#000000" stroke="none" font-family="Arial" font-size="13px" font-style="normal" font-weight="normal" text-decoration="undefined" x="456" y="445" text-anchor="start" dominant-baseline="text-before-edge" transform="matrix(1 0 0 1 -209 -353)">Admin ha inserito</text><text fill="#000000" stroke="none" font-family="Arial" font-size="13px" font-style="normal" font-weight="normal" text-decoration="undefined" x="456" y="458" text-anchor="start" dominant-baseline="text-before-edge" transform="matrix(1 0 0 1 -209 -353)">un'email già</text><text fill="#000000" stroke="none" font-family="Arial" font-size="13px" font-style="normal" font-weight="normal" text-decoration="undefined" x="456" y="471" text-anchor="start" dominant-baseline="text-before-edge" transform="matrix(1 0 0 1 -209 -353)">registrata nel</text><text fill="#000000" stroke="none" font-family="Arial" font-size="13px" font-style="normal" font-weight="normal" text-decoration="undefined" x="456" y="484" text-anchor="start" dominant-baseline="text-before-edge" transform="matrix(1 0 0 1 -209 -353)">Sistema</text></g></g><g><path fill="none" stroke="#000000" paint-order="fill stroke markers" d=" M 372 126 L 437 140" stroke-miterlimit="10" stroke-dasharray="3"/></g></g></svg>