<svg version="1.1" xmlns="http://www.w3.org/2000/svg" xmlns:xlink="http://www.w3.org/1999/xlink" width="741" height="412"><defs/><g><g><rect fill="#C0C0C0" stroke="none" x="333" y="222" width="592" height="392" transform="matrix(1 0 0 1 -188 -205)" fill-opacity="0.2"/></g><g><rect fill="#ffffff" stroke="none" x="326" y="215" width="592" height="392" transform="matrix(1 0 0 1 -188 -205)"/></g><g><path fill="none" stroke="#000000" paint-order="fill stroke markers" d=" M 138 10 L 730 10 L 730 402 L 138 402 L 138 10 Z Z" stroke-miterlimit="10" stroke-dasharray=""/></g><g><g><path fill="none" stroke="none"/><text fill="#000000" stroke="none" font-family="Arial" font-size="13px" font-style="normal" font-weight="bold" text-decoration="undefined" x="622.5" y="228.5" text-anchor="middle" dominant-baseline="central" transform="matrix(1 0 0 1 -188 -205)">Sistema Cloud</text></g></g><g><path fill="#ffffff" stroke="none" paint-order="stroke fill markers" d=" M 46.607265625 171.85000000000002 C 46.607265625 166.96227952000004 50.565067992999985 163 55.447265625 163 C 60.329463257000015 163 64.287265625 166.96227952000004 64.287265625 171.85000000000002 C 64.287265625 176.73772048 60.329463257000015 180.7 55.447265625 180.7 C 50.565067992999985 180.7 46.607265625 176.73772048 46.607265625 171.85000000000002 Z"/></g><g><path fill="none" stroke="#000000" paint-order="fill stroke markers" d=" M 46.607265625 171.85000000000002 C 46.607265625 166.96227952000004 50.565067992999985 163 55.447265625 163 C 60.329463257000015 163 64.287265625 166.96227952000004 64.287265625 171.85000000000002 C 64.287265625 176.73772048 60.329463257000015 180.7 55.447265625 180.7 C 50.565067992999985 180.7 46.607265625 176.73772048 46.607265625 171.85000000000002 Z" stroke-miterlimit="10" stroke-dasharray=""/></g><g><path fill="none" stroke="#000000" paint-order="fill stroke markers" d=" M 55.447265625 180.7 L 55.447265625 198.3" stroke-miterlimit="10" stroke-dasharray=""/></g><g><path fill="none" stroke="#000000" paint-order="fill stroke markers" d=" M 46.087265624999986 187.3 L 64.80726562500001 187.3" stroke-miterlimit="10" stroke-dasharray=""/></g><g><path fill="none" stroke="#000000" paint-order="fill stroke markers" d=" M 55.447265625 198.3 L 42.447265625 216" stroke-miterlimit="10" stroke-dasharray=""/></g><g><path fill="none" stroke="#000000" paint-order="fill stroke markers" d=" M 55.447265625 198.3 L 68.447265625 216" stroke-miterlimit="10" stroke-dasharray=""/></g><g><g><path fill="none" stroke="none"/><text fill="#000000" stroke="none" font-family="Arial" font-size="13px" font-style="normal" font-weight="bold" text-decoration="undefined" x="243.947265625" y="435.5" text-anchor="middle" dominant-baseline="central" transform="matrix(1 0 0 1 -188 -205)">Super Admin</text></g></g><g><path fill="#C0C0C0" stroke="none" paint-order="stroke fill markers" d=" M 185 174 C 185 149.14718399999998 231.56238080000003 129 289 129 C 346.4376192 129 393 149.14718399999998 393 174 C 393 198.85281600000002 346.4376192 219 289 219 C 231.56238080000003 219 185 198.85281600000002 185 174 Z" fill-opacity="0.2"/></g><g><path fill="#ffffff" stroke="none" paint-order="stroke fill markers" d=" M 178 167 C 178 142.14718399999998 224.56238080000003 122 282 122 C 339.4376192 122 386 142.14718399999998 386 167 C 386 191.85281600000002 339.4376192 212 282 212 C 224.56238080000003 212 178 191.85281600000002 178 167 Z"/></g><g><path fill="none" stroke="#000000" paint-order="fill stroke markers" d=" M 178 167 C 178 142.14718399999998 224.56238080000003 122 282 122 C 339.4376192 122 386 142.14718399999998 386 167 C 386 191.85281600000002 339.4376192 212 282 212 C 224.56238080000003 212 178 191.85281600000002 178 167 Z" stroke-miterlimit="10" stroke-dasharray=""/></g><g><g><path fill="none" stroke="none"/><text fill="#000000" stroke="none" font-family="Arial" font-size="13px" font-style="normal" font-weight="bold" text-decoration="undefined" x="470" y="360" text-anchor="middle" dominant-baseline="central" transform="matrix(1 0 0 1 -188 -205)">UC114 - Sospensione</text><text fill="#000000" stroke="none" font-family="Arial" font-size="13px" font-style="normal" font-weight="bold" text-decoration="undefined" x="470" y="373" text-anchor="middle" dominant-baseline="central" transform="matrix(1 0 0 1 -188 -205)">account Tenant</text><text fill="#000000" stroke="none" font-family="Arial" font-size="13px" font-style="normal" font-weight="bold" text-decoration="undefined" x="470" y="386" text-anchor="middle" dominant-baseline="central" transform="matrix(1 0 0 1 -188 -205)">Admin</text></g></g><g><path fill="none" stroke="#000000" paint-order="fill stroke markers" d=" M 102 195 L 177 183" stroke-miterlimit="10" stroke-dasharray=""/></g><g><path fill="#C0C0C0" stroke="none" paint-order="stroke fill markers" d=" M 505 173 C 505 153.1177472 551.5623808 137 609 137 C 666.4376192 137 713 153.1177472 713 173 C 713 192.8822528 666.4376192 209 609 209 C 551.5623808 209 505 192.8822528 505 173 Z" fill-opacity="0.2"/></g><g><path fill="#ffffff" stroke="none" paint-order="stroke fill markers" d=" M 498 166 C 498 146.1177472 544.5623808 130 602 130 C 659.4376192 130 706 146.1177472 706 166 C 706 185.8822528 659.4376192 202 602 202 C 544.5623808 202 498 185.8822528 498 166 Z"/></g><g><path fill="none" stroke="#000000" paint-order="fill stroke markers" d=" M 498 166 C 498 146.1177472 544.5623808 130 602 130 C 659.4376192 130 706 146.1177472 706 166 C 706 185.8822528 659.4376192 202 602 202 C 544.5623808 202 498 185.8822528 498 166 Z" stroke-miterlimit="10" stroke-dasharray=""/></g><g><g><path fill="none" stroke="none"/><text fill="#000000" stroke="none" font-family="Arial" font-size="13px" font-style="normal" font-weight="bold" text-decoration="undefined" x="790" y="359" text-anchor="middle" dominant-baseline="central" transform="matrix(1 0 0 1 -188 -205)">UC114.1 - Selezione</text><text fill="#000000" stroke="none" font-family="Arial" font-size="13px" font-style="normal" font-weight="bold" text-decoration="undefined" x="790" y="372" text-anchor="middle" dominant-baseline="central" transform="matrix(1 0 0 1 -188 -205)">Tenant Admin da</text><text fill="#000000" stroke="none" font-family="Arial" font-size="13px" font-style="normal" font-weight="bold" text-decoration="undefined" x="790" y="385" text-anchor="middle" dominant-baseline="central" transform="matrix(1 0 0 1 -188 -205)">sospendere</text></g></g><g><path fill="none" stroke="#000000" paint-order="fill stroke markers" d=" M 387 167 L 497 166" stroke-miterlimit="10" stroke-dasharray="3"/></g><g><path fill="none" stroke="#000000" paint-order="fill stroke markers" d=" M 486.8760118235881 170.3017279555861 L 497 166 L 486.799478299592 161.88304031602138" stroke-miterlimit="10" stroke-dasharray=""/></g><g><rect fill="#ffffff" stroke="none" x="603" y="335" width="55.65625" height="13" transform="matrix(1 0 0 1 -188 -205)"/></g><g><g><path fill="none" stroke="none"/><text fill="#000000" stroke="none" font-family="Arial" font-size="13px" font-style="normal" font-weight="normal" text-decoration="undefined" x="630.828125" y="341.5" text-anchor="middle" dominant-baseline="central" transform="matrix(1 0 0 1 -188 -205)">«include»</text></g></g><g><path fill="#C0C0C0" stroke="none" paint-order="stroke fill markers" d=" M 449 326 C 449 301.147184 493.77152 281 549 281 C 604.22848 281 649 301.147184 649 326 C 649 350.85281599999996 604.22848 371 549 371 C 493.77152 371 449 350.85281599999996 449 326 Z" fill-opacity="0.2"/></g><g><path fill="#ffffff" stroke="none" paint-order="stroke fill markers" d=" M 442 319 C 442 294.147184 486.77152 274 542 274 C 597.22848 274 642 294.147184 642 319 C 642 343.85281599999996 597.22848 364 542 364 C 486.77152 364 442 343.85281599999996 442 319 Z"/></g><g><path fill="none" stroke="#000000" paint-order="fill stroke markers" d=" M 442 319 C 442 294.147184 486.77152 274 542 274 C 597.22848 274 642 294.147184 642 319 C 642 343.85281599999996 597.22848 364 542 364 C 486.77152 364 442 343.85281599999996 442 319 Z" stroke-miterlimit="10" stroke-dasharray=""/></g><g><g><path fill="none" stroke="none"/><text fill="#000000" stroke="none" font-family="Arial" font-size="13px" font-style="normal" font-weight="bold" text-decoration="undefined" x="730" y="505.5" text-anchor="middle" dominant-baseline="central" transform="matrix(1 0 0 1 -188 -205)">UC114.2 - Conferma</text><text fill="#000000" stroke="none" font-family="Arial" font-size="13px" font-style="normal" font-weight="bold" text-decoration="undefined" x="730" y="518.5" text-anchor="middle" dominant-baseline="central" transform="matrix(1 0 0 1 -188 -205)">sospensione</text><text fill="#000000" stroke="none" font-family="Arial" font-size="13px" font-style="normal" font-weight="bold" text-decoration="undefined" x="730" y="531.5" text-anchor="middle" dominant-baseline="central" transform="matrix(1 0 0 1 -188 -205)">account Tenant</text><text fill="#000000" stroke="none" font-family="Arial" font-size="13px" font-style="normal" font-weight="bold" text-decoration="undefined" x="730" y="544.5" text-anchor="middle" dominant-baseline="central" transform="matrix(1 0 0 1 -188 -205)">Admin</text></g></g><g><path fill="none" stroke="#000000" paint-order="fill stroke markers" d=" M 361 213 L 463 273" stroke-miterlimit="10" stroke-dasharray="3"/></g><g><path fill="none" stroke="#000000" paint-order="fill stroke markers" d=" M 452.10613259726404 271.47564669068913 L 463 273 L 456.3747530481162 264.21899192424047" stroke-miterlimit="10" stroke-dasharray=""/></g><g><rect fill="#ffffff" stroke="none" x="588" y="416" width="55.65625" height="13" transform="matrix(1 0 0 1 -188 -205)"/></g><g><g><path fill="none" stroke="none"/><text fill="#000000" stroke="none" font-family="Arial" font-size="13px" font-style="normal" font-weight="normal" text-decoration="undefined" x="615.828125" y="422.5" text-anchor="middle" dominant-baseline="central" transform="matrix(1 0 0 1 -188 -205)">«include»</text></g></g></g></svg>