<svg version="1.1" xmlns="http://www.w3.org/2000/svg" xmlns:xlink="http://www.w3.org/1999/xlink" width="797" height="356"><defs/><g><g><rect fill="#C0C0C0" stroke="none" x="476" y="446" width="568" height="336" transform="matrix(1 0 0 1 -251 -429)" fill-opacity="0.2"/></g><g><rect fill="#ffffff" stroke="none" x="469" y="439" width="568" height="336" transform="matrix(1 0 0 1 -251 -429)"/></g><g><path fill="none" stroke="#000000" paint-order="fill stroke markers" d=" M 218 10 L 786 10 L 786 346 L 218 346 L 218 10 Z Z" stroke-miterlimit="10" stroke-dasharray=""/></g><g><g><path fill="none" stroke="none"/><text fill="#000000" stroke="none" font-family="Arial" font-size="13px" font-style="normal" font-weight="bold" text-decoration="undefined" x="753.5" y="452.5" text-anchor="middle" dominant-baseline="central" transform="matrix(1 0 0 1 -251 -429)">Sistema Cloud</text></g></g><g><path fill="#ffffff" stroke="none" paint-order="stroke fill markers" d=" M 46.607265625000025 83.85000000000002 C 46.607265625000025 78.96227952000004 50.565067993000014 75 55.447265625 75 C 60.329463256999986 75 64.28726562499997 78.96227952000004 64.28726562499997 83.85000000000002 C 64.28726562499997 88.73772048000001 60.329463256999986 92.70000000000005 55.447265625 92.70000000000005 C 50.565067993000014 92.70000000000005 46.607265625000025 88.73772048000001 46.607265625000025 83.85000000000002 Z"/></g><g><path fill="none" stroke="#000000" paint-order="fill stroke markers" d=" M 46.607265625000025 83.85000000000002 C 46.607265625000025 78.96227952000004 50.565067993000014 75 55.447265625 75 C 60.329463256999986 75 64.28726562499997 78.96227952000004 64.28726562499997 83.85000000000002 C 64.28726562499997 88.73772048000001 60.329463256999986 92.70000000000005 55.447265625 92.70000000000005 C 50.565067993000014 92.70000000000005 46.607265625000025 88.73772048000001 46.607265625000025 83.85000000000002 Z" stroke-miterlimit="10" stroke-dasharray=""/></g><g><path fill="none" stroke="#000000" paint-order="fill stroke markers" d=" M 55.447265625 92.70000000000005 L 55.447265625 110.29999999999995" stroke-miterlimit="10" stroke-dasharray=""/></g><g><path fill="none" stroke="#000000" paint-order="fill stroke markers" d=" M 46.087265624999986 99.29999999999995 L 64.80726562500001 99.29999999999995" stroke-miterlimit="10" stroke-dasharray=""/></g><g><path fill="none" stroke="#000000" paint-order="fill stroke markers" d=" M 55.447265625 110.29999999999995 L 42.447265625 128" stroke-miterlimit="10" stroke-dasharray=""/></g><g><path fill="none" stroke="#000000" paint-order="fill stroke markers" d=" M 55.447265625 110.29999999999995 L 68.447265625 128" stroke-miterlimit="10" stroke-dasharray=""/></g><g><g><path fill="none" stroke="none"/><text fill="#000000" stroke="none" font-family="Arial" font-size="13px" font-style="normal" font-weight="bold" text-decoration="undefined" x="306.947265625" y="571.5" text-anchor="middle" dominant-baseline="central" transform="matrix(1 0 0 1 -251 -429)">Super Admin</text></g></g><g><path fill="#C0C0C0" stroke="none" paint-order="stroke fill markers" d=" M 241 126 C 241 101.14718400000004 280.39893759999995 81 329 81 C 377.60106240000005 81 417 101.14718400000004 417 126 C 417 150.85281599999996 377.60106240000005 171 329 171 C 280.39893759999995 171 241 150.85281599999996 241 126 Z" fill-opacity="0.2"/></g><g><path fill="#ffffff" stroke="none" paint-order="stroke fill markers" d=" M 234 119 C 234 94.14718400000004 273.39893759999995 74 322 74 C 370.60106240000005 74 410 94.14718400000004 410 119 C 410 143.85281599999996 370.60106240000005 164 322 164 C 273.39893759999995 164 234 143.85281599999996 234 119 Z"/></g><g><path fill="none" stroke="#000000" paint-order="fill stroke markers" d=" M 234 119 C 234 94.14718400000004 273.39893759999995 74 322 74 C 370.60106240000005 74 410 94.14718400000004 410 119 C 410 143.85281599999996 370.60106240000005 164 322 164 C 273.39893759999995 164 234 143.85281599999996 234 119 Z" stroke-miterlimit="10" stroke-dasharray=""/></g><g><g><path fill="none" stroke="none"/><text fill="#000000" stroke="none" font-family="Arial" font-size="13px" font-style="normal" font-weight="bold" text-decoration="undefined" x="573" y="529.5" text-anchor="middle" dominant-baseline="central" transform="matrix(1 0 0 1 -251 -429)">UC111 -</text><text fill="#000000" stroke="none" font-family="Arial" font-size="13px" font-style="normal" font-weight="bold" text-decoration="undefined" x="573" y="542.5" text-anchor="middle" dominant-baseline="central" transform="matrix(1 0 0 1 -251 -429)">Riattivazione</text><text fill="#000000" stroke="none" font-family="Arial" font-size="13px" font-style="normal" font-weight="bold" text-decoration="undefined" x="573" y="555.5" text-anchor="middle" dominant-baseline="central" transform="matrix(1 0 0 1 -251 -429)">account Tenant</text><text fill="#000000" stroke="none" font-family="Arial" font-size="13px" font-style="normal" font-weight="bold" text-decoration="undefined" x="573" y="568.5" text-anchor="middle" dominant-baseline="central" transform="matrix(1 0 0 1 -251 -429)">Admin</text></g></g><g><path fill="none" stroke="#000000" paint-order="fill stroke markers" d=" M 102 115 L 233 117" stroke-miterlimit="10" stroke-dasharray=""/></g><g><path fill="#C0C0C0" stroke="none" paint-order="stroke fill markers" d=" M 537 118 C 537 93.14718400000004 574.6080768 73 621 73 C 667.3919232 73 705 93.14718400000004 705 118 C 705 142.85281599999996 667.3919232 163 621 163 C 574.6080768 163 537 142.85281599999996 537 118 Z" fill-opacity="0.2"/></g><g><path fill="#ffffff" stroke="none" paint-order="stroke fill markers" d=" M 530 111 C 530 86.14718400000004 567.6080768 66 614 66 C 660.3919232 66 698 86.14718400000004 698 111 C 698 135.85281599999996 660.3919232 156 614 156 C 567.6080768 156 530 135.85281599999996 530 111 Z"/></g><g><path fill="none" stroke="#000000" paint-order="fill stroke markers" d=" M 530 111 C 530 86.14718400000004 567.6080768 66 614 66 C 660.3919232 66 698 86.14718400000004 698 111 C 698 135.85281599999996 660.3919232 156 614 156 C 567.6080768 156 530 135.85281599999996 530 111 Z" stroke-miterlimit="10" stroke-dasharray=""/></g><g><g><path fill="none" stroke="none"/><text fill="#000000" stroke="none" font-family="Arial" font-size="13px" font-style="normal" font-weight="bold" text-decoration="undefined" x="865" y="521.5" text-anchor="middle" dominant-baseline="central" transform="matrix(1 0 0 1 -251 -429)">UC111.1 -</text><text fill="#000000" stroke="none" font-family="Arial" font-size="13px" font-style="normal" font-weight="bold" text-decoration="undefined" x="865" y="534.5" text-anchor="middle" dominant-baseline="central" transform="matrix(1 0 0 1 -251 -429)">Selezione Tenant</text><text fill="#000000" stroke="none" font-family="Arial" font-size="13px" font-style="normal" font-weight="bold" text-decoration="undefined" x="865" y="547.5" text-anchor="middle" dominant-baseline="central" transform="matrix(1 0 0 1 -251 -429)">Admin da</text><text fill="#000000" stroke="none" font-family="Arial" font-size="13px" font-style="normal" font-weight="bold" text-decoration="undefined" x="865" y="560.5" text-anchor="middle" dominant-baseline="central" transform="matrix(1 0 0 1 -251 -429)">riattivare</text></g></g><g><path fill="none" stroke="#000000" paint-order="fill stroke markers" d=" M 411 117 L 529 113" stroke-miterlimit="10" stroke-dasharray="3"/></g><g><path fill="none" stroke="#000000" paint-order="fill stroke markers" d=" M 518.9857726573281 117.55140096336095 L 529 113 L 518.7005454525614 109.13719842274452" stroke-miterlimit="10" stroke-dasharray=""/></g><g><rect fill="#ffffff" stroke="none" x="692" y="508" width="55.65625" height="13" transform="matrix(1 0 0 1 -251 -429)"/></g><g><g><path fill="none" stroke="none"/><text fill="#000000" stroke="none" font-family="Arial" font-size="13px" font-style="normal" font-weight="normal" text-decoration="undefined" x="719.828125" y="514.5" text-anchor="middle" dominant-baseline="central" transform="matrix(1 0 0 1 -251 -429)">«include»</text></g></g><g><path fill="#C0C0C0" stroke="none" paint-order="stroke fill markers" d=" M 481 278 C 481 253.14718400000004 523.9806592 233 577 233 C 630.0193408 233 673 253.14718400000004 673 278 C 673 302.85281599999996 630.0193408 323 577 323 C 523.9806592 323 481 302.85281599999996 481 278 Z" fill-opacity="0.2"/></g><g><path fill="#ffffff" stroke="none" paint-order="stroke fill markers" d=" M 474 271 C 474 246.14718400000004 516.9806592 226 570 226 C 623.0193408 226 666 246.14718400000004 666 271 C 666 295.85281599999996 623.0193408 316 570 316 C 516.9806592 316 474 295.85281599999996 474 271 Z"/></g><g><path fill="none" stroke="#000000" paint-order="fill stroke markers" d=" M 474 271 C 474 246.14718400000004 516.9806592 226 570 226 C 623.0193408 226 666 246.14718400000004 666 271 C 666 295.85281599999996 623.0193408 316 570 316 C 516.9806592 316 474 295.85281599999996 474 271 Z" stroke-miterlimit="10" stroke-dasharray=""/></g><g><g><path fill="none" stroke="none"/><text fill="#000000" stroke="none" font-family="Arial" font-size="13px" font-style="normal" font-weight="bold" text-decoration="undefined" x="821" y="681.5" text-anchor="middle" dominant-baseline="central" transform="matrix(1 0 0 1 -251 -429)">UC111.2 - Conferma</text><text fill="#000000" stroke="none" font-family="Arial" font-size="13px" font-style="normal" font-weight="bold" text-decoration="undefined" x="821" y="694.5" text-anchor="middle" dominant-baseline="central" transform="matrix(1 0 0 1 -251 -429)">riattivazione</text><text fill="#000000" stroke="none" font-family="Arial" font-size="13px" font-style="normal" font-weight="bold" text-decoration="undefined" x="821" y="707.5" text-anchor="middle" dominant-baseline="central" transform="matrix(1 0 0 1 -251 -429)">account Tenant</text><text fill="#000000" stroke="none" font-family="Arial" font-size="13px" font-style="normal" font-weight="bold" text-decoration="undefined" x="821" y="720.5" text-anchor="middle" dominant-baseline="central" transform="matrix(1 0 0 1 -251 -429)">Admin</text></g></g><g><path fill="none" stroke="#000000" paint-order="fill stroke markers" d=" M 397 165 L 495 225" stroke-miterlimit="10" stroke-dasharray="3"/></g><g><path fill="none" stroke="#000000" paint-order="fill stroke markers" d=" M 484.13473355125154 223.28361280659055 L 495 225 L 488.53076543829286 216.10342739108967" stroke-miterlimit="10" stroke-dasharray=""/></g><g><rect fill="#ffffff" stroke="none" x="685" y="592" width="55.65625" height="13" transform="matrix(1 0 0 1 -251 -429)"/></g><g><g><path fill="none" stroke="none"/><text fill="#000000" stroke="none" font-family="Arial" font-size="13px" font-style="normal" font-weight="normal" text-decoration="undefined" x="712.828125" y="598.5" text-anchor="middle" dominant-baseline="central" transform="matrix(1 0 0 1 -251 -429)">«include»</text></g></g></g></svg>