<svg version="1.1" xmlns="http://www.w3.org/2000/svg" xmlns:xlink="http://www.w3.org/1999/xlink" width="765" height="340"><defs/><g><g><rect fill="#C0C0C0" stroke="none" x="345" y="258" width="592" height="320" transform="matrix(1 0 0 1 -176 -241)" fill-opacity="0.2"/></g><g><rect fill="#ffffff" stroke="none" x="338" y="251" width="592" height="320" transform="matrix(1 0 0 1 -176 -241)"/></g><g><path fill="none" stroke="#000000" paint-order="fill stroke markers" d=" M 162 10 L 754 10 L 754 330 L 162 330 L 162 10 Z Z" stroke-miterlimit="10" stroke-dasharray=""/></g><g><g><path fill="none" stroke="none"/><text fill="#000000" stroke="none" font-family="Arial" font-size="13px" font-style="normal" font-weight="bold" text-decoration="undefined" x="634.5" y="264.5" text-anchor="middle" dominant-baseline="central" transform="matrix(1 0 0 1 -176 -241)">Sistema Cloud</text></g></g><g><path fill="#ffffff" stroke="none" paint-order="stroke fill markers" d=" M 46.607265625 123.85000000000002 C 46.607265625 118.96227952000004 50.565067992999985 115 55.447265625 115 C 60.329463257000015 115 64.287265625 118.96227952000004 64.287265625 123.85000000000002 C 64.287265625 128.73772048 60.329463257000015 132.7 55.447265625 132.7 C 50.565067992999985 132.7 46.607265625 128.73772048 46.607265625 123.85000000000002 Z"/></g><g><path fill="none" stroke="#000000" paint-order="fill stroke markers" d=" M 46.607265625 123.85000000000002 C 46.607265625 118.96227952000004 50.565067992999985 115 55.447265625 115 C 60.329463257000015 115 64.287265625 118.96227952000004 64.287265625 123.85000000000002 C 64.287265625 128.73772048 60.329463257000015 132.7 55.447265625 132.7 C 50.565067992999985 132.7 46.607265625 128.73772048 46.607265625 123.85000000000002 Z" stroke-miterlimit="10" stroke-dasharray=""/></g><g><path fill="none" stroke="#000000" paint-order="fill stroke markers" d=" M 55.447265625 132.7 L 55.447265625 150.3" stroke-miterlimit="10" stroke-dasharray=""/></g><g><path fill="none" stroke="#000000" paint-order="fill stroke markers" d=" M 46.087265624999986 139.3 L 64.80726562500001 139.3" stroke-miterlimit="10" stroke-dasharray=""/></g><g><path fill="none" stroke="#000000" paint-order="fill stroke markers" d=" M 55.447265625 150.3 L 42.447265625 168" stroke-miterlimit="10" stroke-dasharray=""/></g><g><path fill="none" stroke="#000000" paint-order="fill stroke markers" d=" M 55.447265625 150.3 L 68.447265625 168" stroke-miterlimit="10" stroke-dasharray=""/></g><g><g><path fill="none" stroke="none"/><text fill="#000000" stroke="none" font-family="Arial" font-size="13px" font-style="normal" font-weight="bold" text-decoration="undefined" x="231.947265625" y="423.5" text-anchor="middle" dominant-baseline="central" transform="matrix(1 0 0 1 -176 -241)">Super Admin</text></g></g><g><path fill="#C0C0C0" stroke="none" paint-order="stroke fill markers" d=" M 193 141 C 193 121.1177472 239.56238080000003 105 297 105 C 354.4376192 105 401 121.1177472 401 141 C 401 160.8822528 354.4376192 177 297 177 C 239.56238080000003 177 193 160.8822528 193 141 Z" fill-opacity="0.2"/></g><g><path fill="#ffffff" stroke="none" paint-order="stroke fill markers" d=" M 186 134 C 186 114.1177472 232.56238080000003 98 290 98 C 347.4376192 98 394 114.1177472 394 134 C 394 153.8822528 347.4376192 170 290 170 C 232.56238080000003 170 186 153.8822528 186 134 Z"/></g><g><path fill="none" stroke="#000000" paint-order="fill stroke markers" d=" M 186 134 C 186 114.1177472 232.56238080000003 98 290 98 C 347.4376192 98 394 114.1177472 394 134 C 394 153.8822528 347.4376192 170 290 170 C 232.56238080000003 170 186 153.8822528 186 134 Z" stroke-miterlimit="10" stroke-dasharray=""/></g><g><g><path fill="none" stroke="none"/><text fill="#000000" stroke="none" font-family="Arial" font-size="13px" font-style="normal" font-weight="bold" text-decoration="undefined" x="466" y="369.5" text-anchor="middle" dominant-baseline="central" transform="matrix(1 0 0 1 -176 -241)">UC119 - Eliminazione</text><text fill="#000000" stroke="none" font-family="Arial" font-size="13px" font-style="normal" font-weight="bold" text-decoration="undefined" x="466" y="382.5" text-anchor="middle" dominant-baseline="central" transform="matrix(1 0 0 1 -176 -241)">gateway simulato</text></g></g><g><path fill="#C0C0C0" stroke="none" paint-order="stroke fill markers" d=" M 529 141 C 529 121.1177472 573.77152 105 629 105 C 684.22848 105 729 121.1177472 729 141 C 729 160.8822528 684.22848 177 629 177 C 573.77152 177 529 160.8822528 529 141 Z" fill-opacity="0.2"/></g><g><path fill="#ffffff" stroke="none" paint-order="stroke fill markers" d=" M 522 134 C 522 114.1177472 566.77152 98 622 98 C 677.22848 98 722 114.1177472 722 134 C 722 153.8822528 677.22848 170 622 170 C 566.77152 170 522 153.8822528 522 134 Z"/></g><g><path fill="none" stroke="#000000" paint-order="fill stroke markers" d=" M 522 134 C 522 114.1177472 566.77152 98 622 98 C 677.22848 98 722 114.1177472 722 134 C 722 153.8822528 677.22848 170 622 170 C 566.77152 170 522 153.8822528 522 134 Z" stroke-miterlimit="10" stroke-dasharray=""/></g><g><g><path fill="none" stroke="none"/><text fill="#000000" stroke="none" font-family="Arial" font-size="13px" font-style="normal" font-weight="bold" text-decoration="undefined" x="798" y="363" text-anchor="middle" dominant-baseline="central" transform="matrix(1 0 0 1 -176 -241)">UC119.1 - Seleziona</text><text fill="#000000" stroke="none" font-family="Arial" font-size="13px" font-style="normal" font-weight="bold" text-decoration="undefined" x="798" y="376" text-anchor="middle" dominant-baseline="central" transform="matrix(1 0 0 1 -176 -241)">gateway simulato da</text><text fill="#000000" stroke="none" font-family="Arial" font-size="13px" font-style="normal" font-weight="bold" text-decoration="undefined" x="798" y="389" text-anchor="middle" dominant-baseline="central" transform="matrix(1 0 0 1 -176 -241)">eliminare</text></g></g><g><path fill="#C0C0C0" stroke="none" paint-order="stroke fill markers" d=" M 417 277 C 417 257.1177472 463.5623808 241 521 241 C 578.4376192 241 625 257.1177472 625 277 C 625 296.88225279999995 578.4376192 313 521 313 C 463.5623808 313 417 296.88225279999995 417 277 Z" fill-opacity="0.2"/></g><g><path fill="#ffffff" stroke="none" paint-order="stroke fill markers" d=" M 410 270 C 410 250.1177472 456.5623808 234 514 234 C 571.4376192 234 618 250.1177472 618 270 C 618 289.88225279999995 571.4376192 306 514 306 C 456.5623808 306 410 289.88225279999995 410 270 Z"/></g><g><path fill="none" stroke="#000000" paint-order="fill stroke markers" d=" M 410 270 C 410 250.1177472 456.5623808 234 514 234 C 571.4376192 234 618 250.1177472 618 270 C 618 289.88225279999995 571.4376192 306 514 306 C 456.5623808 306 410 289.88225279999995 410 270 Z" stroke-miterlimit="10" stroke-dasharray=""/></g><g><g><path fill="none" stroke="none"/><text fill="#000000" stroke="none" font-family="Arial" font-size="13px" font-style="normal" font-weight="bold" text-decoration="undefined" x="690" y="499" text-anchor="middle" dominant-baseline="central" transform="matrix(1 0 0 1 -176 -241)">UC119.2 - Conferma</text><text fill="#000000" stroke="none" font-family="Arial" font-size="13px" font-style="normal" font-weight="bold" text-decoration="undefined" x="690" y="512" text-anchor="middle" dominant-baseline="central" transform="matrix(1 0 0 1 -176 -241)">eliminazione gateway</text><text fill="#000000" stroke="none" font-family="Arial" font-size="13px" font-style="normal" font-weight="bold" text-decoration="undefined" x="690" y="525" text-anchor="middle" dominant-baseline="central" transform="matrix(1 0 0 1 -176 -241)">simulato</text></g></g><g><path fill="none" stroke="#000000" paint-order="fill stroke markers" d=" M 102 150 L 185 143" stroke-miterlimit="10" stroke-dasharray=""/></g><g><path fill="none" stroke="#000000" paint-order="fill stroke markers" d=" M 395 134 L 521 134" stroke-miterlimit="10" stroke-dasharray="3"/></g><g><path fill="none" stroke="#000000" paint-order="fill stroke markers" d=" M 510.8373251423759 138.209517756016 L 521 134 L 510.8373251423758 129.790482243984" stroke-miterlimit="10" stroke-dasharray=""/></g><g><rect fill="#ffffff" stroke="none" x="607" y="339" width="55.65625" height="13" transform="matrix(1 0 0 1 -176 -241)"/></g><g><g><path fill="none" stroke="none"/><text fill="#000000" stroke="none" font-family="Arial" font-size="13px" font-style="normal" font-weight="normal" text-decoration="undefined" x="634.828125" y="345.5" text-anchor="middle" dominant-baseline="central" transform="matrix(1 0 0 1 -176 -241)">«include»</text></g></g><g><path fill="none" stroke="#000000" paint-order="fill stroke markers" d=" M 351 171 L 453 233" stroke-miterlimit="10" stroke-dasharray="3"/></g><g><path fill="none" stroke="#000000" paint-order="fill stroke markers" d=" M 442.12928343146643 231.31847649834754 L 453 233 L 446.5022592687759 224.12422592728996" stroke-miterlimit="10" stroke-dasharray=""/></g><g><rect fill="#ffffff" stroke="none" x="566" y="411" width="55.65625" height="13" transform="matrix(1 0 0 1 -176 -241)"/></g><g><g><path fill="none" stroke="none"/><text fill="#000000" stroke="none" font-family="Arial" font-size="13px" font-style="normal" font-weight="normal" text-decoration="undefined" x="593.828125" y="417.5" text-anchor="middle" dominant-baseline="central" transform="matrix(1 0 0 1 -176 -241)">«include»</text></g></g></g></svg>