<svg version="1.1" xmlns="http://www.w3.org/2000/svg" xmlns:xlink="http://www.w3.org/1999/xlink" width="869" height="324"><defs/><g><g><rect fill="#C0C0C0" stroke="none" x="416" y="462" width="664" height="304" transform="matrix(1 0 0 1 -215 -445)" fill-opacity="0.2"/></g><g><rect fill="#ffffff" stroke="none" x="409" y="455" width="664" height="304" transform="matrix(1 0 0 1 -215 -445)"/></g><g><path fill="none" stroke="#000000" paint-order="fill stroke markers" d=" M 194 10 L 858 10 L 858 314 L 194 314 L 194 10 Z Z" stroke-miterlimit="10" stroke-dasharray=""/></g><g><g><path fill="none" stroke="none"/><text fill="#000000" stroke="none" font-family="Arial" font-size="13px" font-style="normal" font-weight="bold" text-decoration="undefined" x="741.5" y="468.5" text-anchor="middle" dominant-baseline="central" transform="matrix(1 0 0 1 -215 -445)">Sistema Cloud</text></g></g><g><path fill="#ffffff" stroke="none" paint-order="stroke fill markers" d=" M 46.607265625000025 75.85000000000002 C 46.607265625000025 70.96227952000004 50.565067993000014 67 55.447265625 67 C 60.329463256999986 67 64.28726562499997 70.96227952000004 64.28726562499997 75.85000000000002 C 64.28726562499997 80.73772048000001 60.329463256999986 84.70000000000005 55.447265625 84.70000000000005 C 50.565067993000014 84.70000000000005 46.607265625000025 80.73772048000001 46.607265625000025 75.85000000000002 Z"/></g><g><path fill="none" stroke="#000000" paint-order="fill stroke markers" d=" M 46.607265625000025 75.85000000000002 C 46.607265625000025 70.96227952000004 50.565067993000014 67 55.447265625 67 C 60.329463256999986 67 64.28726562499997 70.96227952000004 64.28726562499997 75.85000000000002 C 64.28726562499997 80.73772048000001 60.329463256999986 84.70000000000005 55.447265625 84.70000000000005 C 50.565067993000014 84.70000000000005 46.607265625000025 80.73772048000001 46.607265625000025 75.85000000000002 Z" stroke-miterlimit="10" stroke-dasharray=""/></g><g><path fill="none" stroke="#000000" paint-order="fill stroke markers" d=" M 55.447265625 84.70000000000005 L 55.447265625 102.29999999999995" stroke-miterlimit="10" stroke-dasharray=""/></g><g><path fill="none" stroke="#000000" paint-order="fill stroke markers" d=" M 46.087265624999986 91.29999999999995 L 64.80726562500001 91.29999999999995" stroke-miterlimit="10" stroke-dasharray=""/></g><g><path fill="none" stroke="#000000" paint-order="fill stroke markers" d=" M 55.447265625 102.29999999999995 L 42.447265625 120" stroke-miterlimit="10" stroke-dasharray=""/></g><g><path fill="none" stroke="#000000" paint-order="fill stroke markers" d=" M 55.447265625 102.29999999999995 L 68.447265625 120" stroke-miterlimit="10" stroke-dasharray=""/></g><g><g><path fill="none" stroke="none"/><text fill="#000000" stroke="none" font-family="Arial" font-size="13px" font-style="normal" font-weight="bold" text-decoration="undefined" x="270.947265625" y="579.5" text-anchor="middle" dominant-baseline="central" transform="matrix(1 0 0 1 -215 -445)">Super Admin</text></g></g><g><path fill="#C0C0C0" stroke="none" paint-order="stroke fill markers" d=" M 217 93 C 217 73.11774720000005 277.8892672 57 353 57 C 428.11073280000005 57 489 73.11774720000005 489 93 C 489 112.88225279999995 428.11073280000005 129 353 129 C 277.8892672 129 217 112.88225279999995 217 93 Z" fill-opacity="0.2"/></g><g><path fill="#ffffff" stroke="none" paint-order="stroke fill markers" d=" M 210 86 C 210 66.1177472 270.8892672 50 346 50 C 421.11073280000005 50 482 66.1177472 482 86 C 482 105.88225279999995 421.11073280000005 122 346 122 C 270.8892672 122 210 105.88225279999995 210 86 Z"/></g><g><path fill="none" stroke="#000000" paint-order="fill stroke markers" d=" M 210 86 C 210 66.1177472 270.8892672 50 346 50 C 421.11073280000005 50 482 66.1177472 482 86 C 482 105.88225279999995 421.11073280000005 122 346 122 C 270.8892672 122 210 105.88225279999995 210 86 Z" stroke-miterlimit="10" stroke-dasharray=""/></g><g><g><path fill="none" stroke="none"/><text fill="#000000" stroke="none" font-family="Arial" font-size="13px" font-style="normal" font-weight="bold" text-decoration="undefined" x="561" y="519" text-anchor="middle" dominant-baseline="central" transform="matrix(1 0 0 1 -215 -445)">UC118 - Visualizzazione</text><text fill="#000000" stroke="none" font-family="Arial" font-size="13px" font-style="normal" font-weight="bold" text-decoration="undefined" x="561" y="532" text-anchor="middle" dominant-baseline="central" transform="matrix(1 0 0 1 -215 -445)">storico dei Tenant</text><text fill="#000000" stroke="none" font-family="Arial" font-size="13px" font-style="normal" font-weight="bold" text-decoration="undefined" x="561" y="545" text-anchor="middle" dominant-baseline="central" transform="matrix(1 0 0 1 -215 -445)">possessori di sensore</text></g></g><g><path fill="none" stroke="#000000" paint-order="fill stroke markers" d=" M 102 103 L 209 95" stroke-miterlimit="10" stroke-dasharray=""/></g><g><path fill="#C0C0C0" stroke="none" paint-order="stroke fill markers" d=" M 225 253 C 225 233.11774720000005 282.3075456 217 353 217 C 423.6924544 217 481 233.11774720000005 481 253 C 481 272.88225279999995 423.6924544 289 353 289 C 282.3075456 289 225 272.88225279999995 225 253 Z" fill-opacity="0.2"/></g><g><path fill="#ffffff" stroke="none" paint-order="stroke fill markers" d=" M 218 246 C 218 226.11774720000005 275.3075456 210 346 210 C 416.6924544 210 474 226.11774720000005 474 246 C 474 265.88225279999995 416.6924544 282 346 282 C 275.3075456 282 218 265.88225279999995 218 246 Z"/></g><g><path fill="none" stroke="#000000" paint-order="fill stroke markers" d=" M 218 246 C 218 226.11774720000005 275.3075456 210 346 210 C 416.6924544 210 474 226.11774720000005 474 246 C 474 265.88225279999995 416.6924544 282 346 282 C 275.3075456 282 218 265.88225279999995 218 246 Z" stroke-miterlimit="10" stroke-dasharray=""/></g><g><g><path fill="none" stroke="none"/><text fill="#000000" stroke="none" font-family="Arial" font-size="13px" font-style="normal" font-weight="bold" text-decoration="undefined" x="561" y="679" text-anchor="middle" dominant-baseline="central" transform="matrix(1 0 0 1 -215 -445)">UC119 - Visualizzazione</text><text fill="#000000" stroke="none" font-family="Arial" font-size="13px" font-style="normal" font-weight="bold" text-decoration="undefined" x="561" y="692" text-anchor="middle" dominant-baseline="central" transform="matrix(1 0 0 1 -215 -445)">singolo Tenant possessore</text><text fill="#000000" stroke="none" font-family="Arial" font-size="13px" font-style="normal" font-weight="bold" text-decoration="undefined" x="561" y="705" text-anchor="middle" dominant-baseline="central" transform="matrix(1 0 0 1 -215 -445)">del sensore</text></g></g><g><path fill="none" stroke="#000000" paint-order="fill stroke markers" d=" M 346 123 L 346 209" stroke-miterlimit="10" stroke-dasharray="3"/></g><g><path fill="none" stroke="#000000" paint-order="fill stroke markers" d=" M 341.790482243984 198.8373251423759 L 346 209 L 350.209517756016 198.8373251423759" stroke-miterlimit="10" stroke-dasharray=""/></g><g><rect fill="#ffffff" stroke="none" x="563" y="604" width="55.65625" height="13" transform="matrix(1 0 0 1 -215 -445)"/></g><g><g><path fill="none" stroke="none"/><text fill="#000000" stroke="none" font-family="Arial" font-size="13px" font-style="normal" font-weight="normal" text-decoration="undefined" x="590.828125" y="610.5" text-anchor="middle" dominant-baseline="central" transform="matrix(1 0 0 1 -215 -445)">«include»</text></g></g><g><path fill="#C0C0C0" stroke="none" paint-order="stroke fill markers" d=" M 609 125 C 609 105.11774720000005 662.725824 89 729 89 C 795.274176 89 849 105.11774720000005 849 125 C 849 144.88225279999995 795.274176 161 729 161 C 662.725824 161 609 144.88225279999995 609 125 Z" fill-opacity="0.2"/></g><g><path fill="#ffffff" stroke="none" paint-order="stroke fill markers" d=" M 602 118 C 602 98.11774720000005 655.725824 82 722 82 C 788.274176 82 842 98.11774720000005 842 118 C 842 137.88225279999995 788.274176 154 722 154 C 655.725824 154 602 137.88225279999995 602 118 Z"/></g><g><path fill="none" stroke="#000000" paint-order="fill stroke markers" d=" M 602 118 C 602 98.11774720000005 655.725824 82 722 82 C 788.274176 82 842 98.11774720000005 842 118 C 842 137.88225279999995 788.274176 154 722 154 C 655.725824 154 602 137.88225279999995 602 118 Z" stroke-miterlimit="10" stroke-dasharray=""/></g><g><g><path fill="none" stroke="none"/><text fill="#000000" stroke="none" font-family="Arial" font-size="13px" font-style="normal" font-weight="bold" text-decoration="undefined" x="937" y="551" text-anchor="middle" dominant-baseline="central" transform="matrix(1 0 0 1 -215 -445)">UC119.1 - Visualizzazione</text><text fill="#000000" stroke="none" font-family="Arial" font-size="13px" font-style="normal" font-weight="bold" text-decoration="undefined" x="937" y="564" text-anchor="middle" dominant-baseline="central" transform="matrix(1 0 0 1 -215 -445)">Tenant possessore del</text><text fill="#000000" stroke="none" font-family="Arial" font-size="13px" font-style="normal" font-weight="bold" text-decoration="undefined" x="937" y="577" text-anchor="middle" dominant-baseline="central" transform="matrix(1 0 0 1 -215 -445)">sensore</text></g></g><g><path fill="#C0C0C0" stroke="none" paint-order="stroke fill markers" d=" M 601 253 C 601 233.11774720000005 654.725824 217 721 217 C 787.274176 217 841 233.11774720000005 841 253 C 841 272.88225279999995 787.274176 289 721 289 C 654.725824 289 601 272.88225279999995 601 253 Z" fill-opacity="0.2"/></g><g><path fill="#ffffff" stroke="none" paint-order="stroke fill markers" d=" M 594 246 C 594 226.11774720000005 647.725824 210 714 210 C 780.274176 210 834 226.11774720000005 834 246 C 834 265.88225279999995 780.274176 282 714 282 C 647.725824 282 594 265.88225279999995 594 246 Z"/></g><g><path fill="none" stroke="#000000" paint-order="fill stroke markers" d=" M 594 246 C 594 226.11774720000005 647.725824 210 714 210 C 780.274176 210 834 226.11774720000005 834 246 C 834 265.88225279999995 780.274176 282 714 282 C 647.725824 282 594 265.88225279999995 594 246 Z" stroke-miterlimit="10" stroke-dasharray=""/></g><g><g><path fill="none" stroke="none"/><text fill="#000000" stroke="none" font-family="Arial" font-size="13px" font-style="normal" font-weight="bold" text-decoration="undefined" x="929" y="679" text-anchor="middle" dominant-baseline="central" transform="matrix(1 0 0 1 -215 -445)">UC119.2 - Visualizzazione</text><text fill="#000000" stroke="none" font-family="Arial" font-size="13px" font-style="normal" font-weight="bold" text-decoration="undefined" x="929" y="692" text-anchor="middle" dominant-baseline="central" transform="matrix(1 0 0 1 -215 -445)">periodo di associazione</text><text fill="#000000" stroke="none" font-family="Arial" font-size="13px" font-style="normal" font-weight="bold" text-decoration="undefined" x="929" y="705" text-anchor="middle" dominant-baseline="central" transform="matrix(1 0 0 1 -215 -445)">sensore</text></g></g><g><path fill="none" stroke="#000000" paint-order="fill stroke markers" d=" M 475 246 L 593 246" stroke-miterlimit="10" stroke-dasharray="3"/></g><g><path fill="none" stroke="#000000" paint-order="fill stroke markers" d=" M 582.8373251423759 250.209517756016 L 593 246 L 582.8373251423758 241.790482243984" stroke-miterlimit="10" stroke-dasharray=""/></g><g><rect fill="#ffffff" stroke="none" x="722" y="671" width="55.65625" height="13" transform="matrix(1 0 0 1 -215 -445)"/></g><g><g><path fill="none" stroke="none"/><text fill="#000000" stroke="none" font-family="Arial" font-size="13px" font-style="normal" font-weight="normal" text-decoration="undefined" x="749.828125" y="677.5" text-anchor="middle" dominant-baseline="central" transform="matrix(1 0 0 1 -215 -445)">«include»</text></g></g><g><path fill="none" stroke="#000000" paint-order="fill stroke markers" d=" M 455 209 L 613 155" stroke-miterlimit="10" stroke-dasharray="3"/></g><g><path fill="none" stroke="#000000" paint-order="fill stroke markers" d=" M 604.7448435271564 162.26996503491375 L 613 155 L 602.0220813031196 154.3033644534729" stroke-miterlimit="10" stroke-dasharray=""/></g><g><rect fill="#ffffff" stroke="none" x="705" y="606" width="55.65625" height="13" transform="matrix(1 0 0 1 -215 -445)"/></g><g><g><path fill="none" stroke="none"/><text fill="#000000" stroke="none" font-family="Arial" font-size="13px" font-style="normal" font-weight="normal" text-decoration="undefined" x="732.828125" y="612.5" text-anchor="middle" dominant-baseline="central" transform="matrix(1 0 0 1 -215 -445)">«include»</text></g></g></g></svg>