<svg version="1.1" xmlns="http://www.w3.org/2000/svg" xmlns:xlink="http://www.w3.org/1999/xlink" width="789" height="412"><defs/><g><g><rect fill="#C0C0C0" stroke="none" x="357" y="222" width="592" height="392" transform="matrix(1 0 0 1 -164 -205)" fill-opacity="0.2"/></g><g><rect fill="#ffffff" stroke="none" x="350" y="215" width="592" height="392" transform="matrix(1 0 0 1 -164 -205)"/></g><g><path fill="none" stroke="#000000" paint-order="fill stroke markers" d=" M 186 10 L 778 10 L 778 402 L 186 402 L 186 10 Z Z" stroke-miterlimit="10" stroke-dasharray=""/></g><g><g><path fill="none" stroke="none"/><text fill="#000000" stroke="none" font-family="Arial" font-size="13px" font-style="normal" font-weight="bold" text-decoration="undefined" x="646.5" y="228.5" text-anchor="middle" dominant-baseline="central" transform="matrix(1 0 0 1 -164 -205)">Sistema Cloud</text></g></g><g><path fill="#ffffff" stroke="none" paint-order="stroke fill markers" d=" M 46.607265625 131.85000000000002 C 46.607265625 126.96227952000004 50.565067992999985 123 55.447265625 123 C 60.329463257000015 123 64.287265625 126.96227952000004 64.287265625 131.85000000000002 C 64.287265625 136.73772048 60.329463257000015 140.7 55.447265625 140.7 C 50.565067992999985 140.7 46.607265625 136.73772048 46.607265625 131.85000000000002 Z"/></g><g><path fill="none" stroke="#000000" paint-order="fill stroke markers" d=" M 46.607265625 131.85000000000002 C 46.607265625 126.96227952000004 50.565067992999985 123 55.447265625 123 C 60.329463257000015 123 64.287265625 126.96227952000004 64.287265625 131.85000000000002 C 64.287265625 136.73772048 60.329463257000015 140.7 55.447265625 140.7 C 50.565067992999985 140.7 46.607265625 136.73772048 46.607265625 131.85000000000002 Z" stroke-miterlimit="10" stroke-dasharray=""/></g><g><path fill="none" stroke="#000000" paint-order="fill stroke markers" d=" M 55.447265625 140.7 L 55.447265625 158.3" stroke-miterlimit="10" stroke-dasharray=""/></g><g><path fill="none" stroke="#000000" paint-order="fill stroke markers" d=" M 46.087265624999986 147.3 L 64.80726562500001 147.3" stroke-miterlimit="10" stroke-dasharray=""/></g><g><path fill="none" stroke="#000000" paint-order="fill stroke markers" d=" M 55.447265625 158.3 L 42.447265625 176" stroke-miterlimit="10" stroke-dasharray=""/></g><g><path fill="none" stroke="#000000" paint-order="fill stroke markers" d=" M 55.447265625 158.3 L 68.447265625 176" stroke-miterlimit="10" stroke-dasharray=""/></g><g><g><path fill="none" stroke="none"/><text fill="#000000" stroke="none" font-family="Arial" font-size="13px" font-style="normal" font-weight="bold" text-decoration="undefined" x="219.947265625" y="395.5" text-anchor="middle" dominant-baseline="central" transform="matrix(1 0 0 1 -164 -205)">Super Admin</text></g></g><g><path fill="#C0C0C0" stroke="none" paint-order="stroke fill markers" d=" M 217 162 C 217 139.35632320000002 267.1441024 121 329 121 C 390.85589760000005 121 441 139.35632320000002 441 162 C 441 184.64367679999998 390.85589760000005 203 329 203 C 267.1441024 203 217 184.64367679999998 217 162 Z" fill-opacity="0.2"/></g><g><path fill="#ffffff" stroke="none" paint-order="stroke fill markers" d=" M 210 155 C 210 132.35632320000002 260.1441024 114 322 114 C 383.85589760000005 114 434 132.35632320000002 434 155 C 434 177.64367679999998 383.85589760000005 196 322 196 C 260.1441024 196 210 177.64367679999998 210 155 Z"/></g><g><path fill="none" stroke="#000000" paint-order="fill stroke markers" d=" M 210 155 C 210 132.35632320000002 260.1441024 114 322 114 C 383.85589760000005 114 434 132.35632320000002 434 155 C 434 177.64367679999998 383.85589760000005 196 322 196 C 260.1441024 196 210 177.64367679999998 210 155 Z" stroke-miterlimit="10" stroke-dasharray=""/></g><g><g><path fill="none" stroke="none"/><text fill="#000000" stroke="none" font-family="Arial" font-size="13px" font-style="normal" font-weight="bold" text-decoration="undefined" x="486" y="354.5" text-anchor="middle" dominant-baseline="central" transform="matrix(1 0 0 1 -164 -205)">UC116 - Eliminazione</text><text fill="#000000" stroke="none" font-family="Arial" font-size="13px" font-style="normal" font-weight="bold" text-decoration="undefined" x="486" y="367.5" text-anchor="middle" dominant-baseline="central" transform="matrix(1 0 0 1 -164 -205)">account Tenant Admin</text></g></g><g><path fill="none" stroke="#000000" paint-order="fill stroke markers" d=" M 102 161 L 209 158" stroke-miterlimit="10" stroke-dasharray=""/></g><g><path fill="#C0C0C0" stroke="none" paint-order="stroke fill markers" d=" M 553 173 C 553 153.1177472 599.5623808 137 657 137 C 714.4376192 137 761 153.1177472 761 173 C 761 192.8822528 714.4376192 209 657 209 C 599.5623808 209 553 192.8822528 553 173 Z" fill-opacity="0.2"/></g><g><path fill="#ffffff" stroke="none" paint-order="stroke fill markers" d=" M 546 166 C 546 146.1177472 592.5623808 130 650 130 C 707.4376192 130 754 146.1177472 754 166 C 754 185.8822528 707.4376192 202 650 202 C 592.5623808 202 546 185.8822528 546 166 Z"/></g><g><path fill="none" stroke="#000000" paint-order="fill stroke markers" d=" M 546 166 C 546 146.1177472 592.5623808 130 650 130 C 707.4376192 130 754 146.1177472 754 166 C 754 185.8822528 707.4376192 202 650 202 C 592.5623808 202 546 185.8822528 546 166 Z" stroke-miterlimit="10" stroke-dasharray=""/></g><g><g><path fill="none" stroke="none"/><text fill="#000000" stroke="none" font-family="Arial" font-size="13px" font-style="normal" font-weight="bold" text-decoration="undefined" x="814" y="359" text-anchor="middle" dominant-baseline="central" transform="matrix(1 0 0 1 -164 -205)">UC116.1 - Selezione</text><text fill="#000000" stroke="none" font-family="Arial" font-size="13px" font-style="normal" font-weight="bold" text-decoration="undefined" x="814" y="372" text-anchor="middle" dominant-baseline="central" transform="matrix(1 0 0 1 -164 -205)">Tenant Admin da</text><text fill="#000000" stroke="none" font-family="Arial" font-size="13px" font-style="normal" font-weight="bold" text-decoration="undefined" x="814" y="385" text-anchor="middle" dominant-baseline="central" transform="matrix(1 0 0 1 -164 -205)">eliminare</text></g></g><g><path fill="none" stroke="#000000" paint-order="fill stroke markers" d=" M 435 159 L 545 162" stroke-miterlimit="10" stroke-dasharray="3"/></g><g><path fill="none" stroke="#000000" paint-order="fill stroke markers" d=" M 534.7263401850302 165.93089226592048 L 545 162 L 534.955864899885 157.5149860545772" stroke-miterlimit="10" stroke-dasharray=""/></g><g><rect fill="#ffffff" stroke="none" x="628" y="329" width="55.65625" height="13" transform="matrix(1 0 0 1 -164 -205)"/></g><g><g><path fill="none" stroke="none"/><text fill="#000000" stroke="none" font-family="Arial" font-size="13px" font-style="normal" font-weight="normal" text-decoration="undefined" x="655.828125" y="335.5" text-anchor="middle" dominant-baseline="central" transform="matrix(1 0 0 1 -164 -205)">«include»</text></g></g><g><path fill="#C0C0C0" stroke="none" paint-order="stroke fill markers" d=" M 513 317 C 513 297.1177472 561.3532416 281 621 281 C 680.6467584 281 729 297.1177472 729 317 C 729 336.88225279999995 680.6467584 353 621 353 C 561.3532416 353 513 336.88225279999995 513 317 Z" fill-opacity="0.2"/></g><g><path fill="#ffffff" stroke="none" paint-order="stroke fill markers" d=" M 506 310 C 506 290.1177472 554.3532416 274 614 274 C 673.6467584 274 722 290.1177472 722 310 C 722 329.88225279999995 673.6467584 346 614 346 C 554.3532416 346 506 329.88225279999995 506 310 Z"/></g><g><path fill="none" stroke="#000000" paint-order="fill stroke markers" d=" M 506 310 C 506 290.1177472 554.3532416 274 614 274 C 673.6467584 274 722 290.1177472 722 310 C 722 329.88225279999995 673.6467584 346 614 346 C 554.3532416 346 506 329.88225279999995 506 310 Z" stroke-miterlimit="10" stroke-dasharray=""/></g><g><g><path fill="none" stroke="none"/><text fill="#000000" stroke="none" font-family="Arial" font-size="13px" font-style="normal" font-weight="bold" text-decoration="undefined" x="778" y="503" text-anchor="middle" dominant-baseline="central" transform="matrix(1 0 0 1 -164 -205)">UC116.2 - Conferma</text><text fill="#000000" stroke="none" font-family="Arial" font-size="13px" font-style="normal" font-weight="bold" text-decoration="undefined" x="778" y="516" text-anchor="middle" dominant-baseline="central" transform="matrix(1 0 0 1 -164 -205)">eliminazione account</text><text fill="#000000" stroke="none" font-family="Arial" font-size="13px" font-style="normal" font-weight="bold" text-decoration="undefined" x="778" y="529" text-anchor="middle" dominant-baseline="central" transform="matrix(1 0 0 1 -164 -205)">Tenant Admin</text></g></g><g><path fill="none" stroke="#000000" paint-order="fill stroke markers" d=" M 401 197 L 544 273" stroke-miterlimit="10" stroke-dasharray="3"/></g><g><path fill="none" stroke="#000000" paint-order="fill stroke markers" d=" M 533.0504439879654 271.9477532897088 L 544 273 L 537.0015454772366 264.51344390858037" stroke-miterlimit="10" stroke-dasharray=""/></g><g><rect fill="#ffffff" stroke="none" x="623" y="407" width="55.65625" height="13" transform="matrix(1 0 0 1 -164 -205)"/></g><g><g><path fill="none" stroke="none"/><text fill="#000000" stroke="none" font-family="Arial" font-size="13px" font-style="normal" font-weight="normal" text-decoration="undefined" x="650.828125" y="413.5" text-anchor="middle" dominant-baseline="central" transform="matrix(1 0 0 1 -164 -205)">«include»</text></g></g></g></svg>