<svg version="1.1" xmlns="http://www.w3.org/2000/svg" xmlns:xlink="http://www.w3.org/1999/xlink" width="781" height="412"><defs/><g><g><rect fill="#C0C0C0" stroke="none" x="353" y="222" width="592" height="392" transform="matrix(1 0 0 1 -168 -205)" fill-opacity="0.2"/></g><g><rect fill="#ffffff" stroke="none" x="346" y="215" width="592" height="392" transform="matrix(1 0 0 1 -168 -205)"/></g><g><path fill="none" stroke="#000000" paint-order="fill stroke markers" d=" M 178 10 L 770 10 L 770 402 L 178 402 L 178 10 Z Z" stroke-miterlimit="10" stroke-dasharray=""/></g><g><g><path fill="none" stroke="none"/><text fill="#000000" stroke="none" font-family="Arial" font-size="13px" font-style="normal" font-weight="bold" text-decoration="undefined" x="642.5" y="228.5" text-anchor="middle" dominant-baseline="central" transform="matrix(1 0 0 1 -168 -205)">Sistema Cloud</text></g></g><g><path fill="#ffffff" stroke="none" paint-order="stroke fill markers" d=" M 46.607265625 115.85000000000002 C 46.607265625 110.96227952000004 50.565067992999985 107 55.447265625 107 C 60.329463257000015 107 64.287265625 110.96227952000004 64.287265625 115.85000000000002 C 64.287265625 120.73772048000001 60.329463257000015 124.69999999999999 55.447265625 124.69999999999999 C 50.565067992999985 124.69999999999999 46.607265625 120.73772048000001 46.607265625 115.85000000000002 Z"/></g><g><path fill="none" stroke="#000000" paint-order="fill stroke markers" d=" M 46.607265625 115.85000000000002 C 46.607265625 110.96227952000004 50.565067992999985 107 55.447265625 107 C 60.329463257000015 107 64.287265625 110.96227952000004 64.287265625 115.85000000000002 C 64.287265625 120.73772048000001 60.329463257000015 124.69999999999999 55.447265625 124.69999999999999 C 50.565067992999985 124.69999999999999 46.607265625 120.73772048000001 46.607265625 115.85000000000002 Z" stroke-miterlimit="10" stroke-dasharray=""/></g><g><path fill="none" stroke="#000000" paint-order="fill stroke markers" d=" M 55.447265625 124.69999999999999 L 55.447265625 142.3" stroke-miterlimit="10" stroke-dasharray=""/></g><g><path fill="none" stroke="#000000" paint-order="fill stroke markers" d=" M 46.087265624999986 131.3 L 64.80726562500001 131.3" stroke-miterlimit="10" stroke-dasharray=""/></g><g><path fill="none" stroke="#000000" paint-order="fill stroke markers" d=" M 55.447265625 142.3 L 42.447265625 160" stroke-miterlimit="10" stroke-dasharray=""/></g><g><path fill="none" stroke="#000000" paint-order="fill stroke markers" d=" M 55.447265625 142.3 L 68.447265625 160" stroke-miterlimit="10" stroke-dasharray=""/></g><g><g><path fill="none" stroke="none"/><text fill="#000000" stroke="none" font-family="Arial" font-size="13px" font-style="normal" font-weight="bold" text-decoration="undefined" x="223.947265625" y="379.5" text-anchor="middle" dominant-baseline="central" transform="matrix(1 0 0 1 -168 -205)">Super Admin</text></g></g><g><path fill="#C0C0C0" stroke="none" paint-order="stroke fill markers" d=" M 241 158 C 241 133.14718399999998 280.3989376 113 329 113 C 377.60106240000005 113 417 133.14718399999998 417 158 C 417 182.85281600000002 377.60106240000005 203 329 203 C 280.3989376 203 241 182.85281600000002 241 158 Z" fill-opacity="0.2"/></g><g><path fill="#ffffff" stroke="none" paint-order="stroke fill markers" d=" M 234 151 C 234 126.14718399999998 273.3989376 106 322 106 C 370.60106240000005 106 410 126.14718399999998 410 151 C 410 175.85281600000002 370.60106240000005 196 322 196 C 273.3989376 196 234 175.85281600000002 234 151 Z"/></g><g><path fill="none" stroke="#000000" paint-order="fill stroke markers" d=" M 234 151 C 234 126.14718399999998 273.3989376 106 322 106 C 370.60106240000005 106 410 126.14718399999998 410 151 C 410 175.85281600000002 370.60106240000005 196 322 196 C 273.3989376 196 234 175.85281600000002 234 151 Z" stroke-miterlimit="10" stroke-dasharray=""/></g><g><g><path fill="none" stroke="none"/><text fill="#000000" stroke="none" font-family="Arial" font-size="13px" font-style="normal" font-weight="bold" text-decoration="undefined" x="490" y="337.5" text-anchor="middle" dominant-baseline="central" transform="matrix(1 0 0 1 -168 -205)">UC115 -</text><text fill="#000000" stroke="none" font-family="Arial" font-size="13px" font-style="normal" font-weight="bold" text-decoration="undefined" x="490" y="350.5" text-anchor="middle" dominant-baseline="central" transform="matrix(1 0 0 1 -168 -205)">Riattivazione</text><text fill="#000000" stroke="none" font-family="Arial" font-size="13px" font-style="normal" font-weight="bold" text-decoration="undefined" x="490" y="363.5" text-anchor="middle" dominant-baseline="central" transform="matrix(1 0 0 1 -168 -205)">account Tenant</text><text fill="#000000" stroke="none" font-family="Arial" font-size="13px" font-style="normal" font-weight="bold" text-decoration="undefined" x="490" y="376.5" text-anchor="middle" dominant-baseline="central" transform="matrix(1 0 0 1 -168 -205)">Admin</text></g></g><g><path fill="none" stroke="#000000" paint-order="fill stroke markers" d=" M 102 147 L 233 149" stroke-miterlimit="10" stroke-dasharray=""/></g><g><path fill="#C0C0C0" stroke="none" paint-order="stroke fill markers" d=" M 537 150 C 537 125.14718399999998 574.6080768 105 621 105 C 667.3919232 105 705 125.14718399999998 705 150 C 705 174.85281600000002 667.3919232 195 621 195 C 574.6080768 195 537 174.85281600000002 537 150 Z" fill-opacity="0.2"/></g><g><path fill="#ffffff" stroke="none" paint-order="stroke fill markers" d=" M 530 143 C 530 118.14718399999998 567.6080768 98 614 98 C 660.3919232 98 698 118.14718399999998 698 143 C 698 167.85281600000002 660.3919232 188 614 188 C 567.6080768 188 530 167.85281600000002 530 143 Z"/></g><g><path fill="none" stroke="#000000" paint-order="fill stroke markers" d=" M 530 143 C 530 118.14718399999998 567.6080768 98 614 98 C 660.3919232 98 698 118.14718399999998 698 143 C 698 167.85281600000002 660.3919232 188 614 188 C 567.6080768 188 530 167.85281600000002 530 143 Z" stroke-miterlimit="10" stroke-dasharray=""/></g><g><g><path fill="none" stroke="none"/><text fill="#000000" stroke="none" font-family="Arial" font-size="13px" font-style="normal" font-weight="bold" text-decoration="undefined" x="782" y="329.5" text-anchor="middle" dominant-baseline="central" transform="matrix(1 0 0 1 -168 -205)">UC115.1 -</text><text fill="#000000" stroke="none" font-family="Arial" font-size="13px" font-style="normal" font-weight="bold" text-decoration="undefined" x="782" y="342.5" text-anchor="middle" dominant-baseline="central" transform="matrix(1 0 0 1 -168 -205)">Selezione Tenant</text><text fill="#000000" stroke="none" font-family="Arial" font-size="13px" font-style="normal" font-weight="bold" text-decoration="undefined" x="782" y="355.5" text-anchor="middle" dominant-baseline="central" transform="matrix(1 0 0 1 -168 -205)">Admin da</text><text fill="#000000" stroke="none" font-family="Arial" font-size="13px" font-style="normal" font-weight="bold" text-decoration="undefined" x="782" y="368.5" text-anchor="middle" dominant-baseline="central" transform="matrix(1 0 0 1 -168 -205)">riattivare</text></g></g><g><path fill="none" stroke="#000000" paint-order="fill stroke markers" d=" M 411 149 L 529 145" stroke-miterlimit="10" stroke-dasharray="3"/></g><g><path fill="none" stroke="#000000" paint-order="fill stroke markers" d=" M 518.9857726573281 149.55140096336095 L 529 145 L 518.7005454525614 141.13719842274446" stroke-miterlimit="10" stroke-dasharray=""/></g><g><rect fill="#ffffff" stroke="none" x="609" y="316" width="55.65625" height="13" transform="matrix(1 0 0 1 -168 -205)"/></g><g><g><path fill="none" stroke="none"/><text fill="#000000" stroke="none" font-family="Arial" font-size="13px" font-style="normal" font-weight="normal" text-decoration="undefined" x="636.828125" y="322.5" text-anchor="middle" dominant-baseline="central" transform="matrix(1 0 0 1 -168 -205)">«include»</text></g></g><g><path fill="#C0C0C0" stroke="none" paint-order="stroke fill markers" d=" M 481 310 C 481 285.147184 523.9806592 265 577 265 C 630.0193408 265 673 285.147184 673 310 C 673 334.85281599999996 630.0193408 355 577 355 C 523.9806592 355 481 334.85281599999996 481 310 Z" fill-opacity="0.2"/></g><g><path fill="#ffffff" stroke="none" paint-order="stroke fill markers" d=" M 474 303 C 474 278.147184 516.9806592 258 570 258 C 623.0193408 258 666 278.147184 666 303 C 666 327.85281599999996 623.0193408 348 570 348 C 516.9806592 348 474 327.85281599999996 474 303 Z"/></g><g><path fill="none" stroke="#000000" paint-order="fill stroke markers" d=" M 474 303 C 474 278.147184 516.9806592 258 570 258 C 623.0193408 258 666 278.147184 666 303 C 666 327.85281599999996 623.0193408 348 570 348 C 516.9806592 348 474 327.85281599999996 474 303 Z" stroke-miterlimit="10" stroke-dasharray=""/></g><g><g><path fill="none" stroke="none"/><text fill="#000000" stroke="none" font-family="Arial" font-size="13px" font-style="normal" font-weight="bold" text-decoration="undefined" x="738" y="489.5" text-anchor="middle" dominant-baseline="central" transform="matrix(1 0 0 1 -168 -205)">UC115.2 - Conferma</text><text fill="#000000" stroke="none" font-family="Arial" font-size="13px" font-style="normal" font-weight="bold" text-decoration="undefined" x="738" y="502.5" text-anchor="middle" dominant-baseline="central" transform="matrix(1 0 0 1 -168 -205)">riattivazione</text><text fill="#000000" stroke="none" font-family="Arial" font-size="13px" font-style="normal" font-weight="bold" text-decoration="undefined" x="738" y="515.5" text-anchor="middle" dominant-baseline="central" transform="matrix(1 0 0 1 -168 -205)">account Tenant</text><text fill="#000000" stroke="none" font-family="Arial" font-size="13px" font-style="normal" font-weight="bold" text-decoration="undefined" x="738" y="528.5" text-anchor="middle" dominant-baseline="central" transform="matrix(1 0 0 1 -168 -205)">Admin</text></g></g><g><path fill="none" stroke="#000000" paint-order="fill stroke markers" d=" M 397 197 L 495 257" stroke-miterlimit="10" stroke-dasharray="3"/></g><g><path fill="none" stroke="#000000" paint-order="fill stroke markers" d=" M 484.13473355125154 255.28361280659055 L 495 257 L 488.53076543829286 248.10342739108967" stroke-miterlimit="10" stroke-dasharray=""/></g><g><rect fill="#ffffff" stroke="none" x="602" y="400" width="55.65625" height="13" transform="matrix(1 0 0 1 -168 -205)"/></g><g><g><path fill="none" stroke="none"/><text fill="#000000" stroke="none" font-family="Arial" font-size="13px" font-style="normal" font-weight="normal" text-decoration="undefined" x="629.828125" y="406.5" text-anchor="middle" dominant-baseline="central" transform="matrix(1 0 0 1 -168 -205)">«include»</text></g></g></g></svg>