<svg version="1.1" xmlns="http://www.w3.org/2000/svg" xmlns:xlink="http://www.w3.org/1999/xlink" width="789" height="324"><defs/><g><g><rect fill="#C0C0C0" stroke="none" x="456" y="462" width="584" height="304" transform="matrix(1 0 0 1 -255 -445)" fill-opacity="0.2"/></g><g><rect fill="#ffffff" stroke="none" x="449" y="455" width="584" height="304" transform="matrix(1 0 0 1 -255 -445)"/></g><g><path fill="none" stroke="#000000" paint-order="fill stroke markers" d=" M 194 10 L 778 10 L 778 314 L 194 314 L 194 10 Z Z" stroke-miterlimit="10" stroke-dasharray=""/></g><g><g><path fill="none" stroke="none"/><text fill="#000000" stroke="none" font-family="Arial" font-size="13px" font-style="normal" font-weight="bold" text-decoration="undefined" x="741.5" y="468.5" text-anchor="middle" dominant-baseline="central" transform="matrix(1 0 0 1 -255 -445)">Sistema Cloud</text></g></g><g><path fill="#ffffff" stroke="none" paint-order="stroke fill markers" d=" M 46.607265625000025 67.85000000000002 C 46.607265625000025 62.96227952000004 50.565067993000014 59 55.447265625 59 C 60.329463256999986 59 64.28726562499997 62.96227952000004 64.28726562499997 67.85000000000002 C 64.28726562499997 72.73772048000001 60.329463256999986 76.70000000000005 55.447265625 76.70000000000005 C 50.565067993000014 76.70000000000005 46.607265625000025 72.73772048000001 46.607265625000025 67.85000000000002 Z"/></g><g><path fill="none" stroke="#000000" paint-order="fill stroke markers" d=" M 46.607265625000025 67.85000000000002 C 46.607265625000025 62.96227952000004 50.565067993000014 59 55.447265625 59 C 60.329463256999986 59 64.28726562499997 62.96227952000004 64.28726562499997 67.85000000000002 C 64.28726562499997 72.73772048000001 60.329463256999986 76.70000000000005 55.447265625 76.70000000000005 C 50.565067993000014 76.70000000000005 46.607265625000025 72.73772048000001 46.607265625000025 67.85000000000002 Z" stroke-miterlimit="10" stroke-dasharray=""/></g><g><path fill="none" stroke="#000000" paint-order="fill stroke markers" d=" M 55.447265625 76.70000000000005 L 55.447265625 94.29999999999995" stroke-miterlimit="10" stroke-dasharray=""/></g><g><path fill="none" stroke="#000000" paint-order="fill stroke markers" d=" M 46.087265624999986 83.29999999999995 L 64.80726562500001 83.29999999999995" stroke-miterlimit="10" stroke-dasharray=""/></g><g><path fill="none" stroke="#000000" paint-order="fill stroke markers" d=" M 55.447265625 94.29999999999995 L 42.447265625 112" stroke-miterlimit="10" stroke-dasharray=""/></g><g><path fill="none" stroke="#000000" paint-order="fill stroke markers" d=" M 55.447265625 94.29999999999995 L 68.447265625 112" stroke-miterlimit="10" stroke-dasharray=""/></g><g><g><path fill="none" stroke="none"/><text fill="#000000" stroke="none" font-family="Arial" font-size="13px" font-style="normal" font-weight="bold" text-decoration="undefined" x="310.947265625" y="571.5" text-anchor="middle" dominant-baseline="central" transform="matrix(1 0 0 1 -255 -445)">Super Admin</text></g></g><g><path fill="#C0C0C0" stroke="none" paint-order="stroke fill markers" d=" M 225 85 C 225 65.1177472 271.5623808 49 329 49 C 386.4376192 49 433 65.1177472 433 85 C 433 104.88225279999995 386.4376192 121 329 121 C 271.5623808 121 225 104.88225279999995 225 85 Z" fill-opacity="0.2"/></g><g><path fill="#ffffff" stroke="none" paint-order="stroke fill markers" d=" M 218 78 C 218 58.1177472 264.5623808 42 322 42 C 379.4376192 42 426 58.1177472 426 78 C 426 97.88225279999995 379.4376192 114 322 114 C 264.5623808 114 218 97.88225279999995 218 78 Z"/></g><g><path fill="none" stroke="#000000" paint-order="fill stroke markers" d=" M 218 78 C 218 58.1177472 264.5623808 42 322 42 C 379.4376192 42 426 58.1177472 426 78 C 426 97.88225279999995 379.4376192 114 322 114 C 264.5623808 114 218 97.88225279999995 218 78 Z" stroke-miterlimit="10" stroke-dasharray=""/></g><g><g><path fill="none" stroke="none"/><text fill="#000000" stroke="none" font-family="Arial" font-size="13px" font-style="normal" font-weight="bold" text-decoration="undefined" x="577" y="517.5" text-anchor="middle" dominant-baseline="central" transform="matrix(1 0 0 1 -255 -445)">UC117 - Eliminazione</text><text fill="#000000" stroke="none" font-family="Arial" font-size="13px" font-style="normal" font-weight="bold" text-decoration="undefined" x="577" y="530.5" text-anchor="middle" dominant-baseline="central" transform="matrix(1 0 0 1 -255 -445)">sensore simulato</text></g></g><g><path fill="#C0C0C0" stroke="none" paint-order="stroke fill markers" d=" M 537 97 C 537 70.4903296 587.1441024 49 649 49 C 710.8558976 49 761 70.4903296 761 97 C 761 123.5096704 710.8558976 145 649 145 C 587.1441024 145 537 123.5096704 537 97 Z" fill-opacity="0.2"/></g><g><path fill="#ffffff" stroke="none" paint-order="stroke fill markers" d=" M 530 90 C 530 63.490329599999995 580.1441024 42 642 42 C 703.8558976 42 754 63.490329599999995 754 90 C 754 116.5096704 703.8558976 138 642 138 C 580.1441024 138 530 116.5096704 530 90 Z"/></g><g><path fill="none" stroke="#000000" paint-order="fill stroke markers" d=" M 530 90 C 530 63.490329599999995 580.1441024 42 642 42 C 703.8558976 42 754 63.490329599999995 754 90 C 754 116.5096704 703.8558976 138 642 138 C 580.1441024 138 530 116.5096704 530 90 Z" stroke-miterlimit="10" stroke-dasharray=""/></g><g><g><path fill="none" stroke="none"/><text fill="#000000" stroke="none" font-family="Arial" font-size="13px" font-style="normal" font-weight="bold" text-decoration="undefined" x="897" y="523" text-anchor="middle" dominant-baseline="central" transform="matrix(1 0 0 1 -255 -445)">UC117.1 - Seleziona</text><text fill="#000000" stroke="none" font-family="Arial" font-size="13px" font-style="normal" font-weight="bold" text-decoration="undefined" x="897" y="536" text-anchor="middle" dominant-baseline="central" transform="matrix(1 0 0 1 -255 -445)">sensore simulato da</text><text fill="#000000" stroke="none" font-family="Arial" font-size="13px" font-style="normal" font-weight="bold" text-decoration="undefined" x="897" y="549" text-anchor="middle" dominant-baseline="central" transform="matrix(1 0 0 1 -255 -445)">eliminare</text></g></g><g><path fill="#C0C0C0" stroke="none" paint-order="stroke fill markers" d=" M 361 262 C 361 237.14718400000004 405.77152 217 461 217 C 516.22848 217 561 237.14718400000004 561 262 C 561 286.85281599999996 516.22848 307 461 307 C 405.77152 307 361 286.85281599999996 361 262 Z" fill-opacity="0.2"/></g><g><path fill="#ffffff" stroke="none" paint-order="stroke fill markers" d=" M 354 255 C 354 230.14718400000004 398.77152 210 454 210 C 509.22848 210 554 230.14718400000004 554 255 C 554 279.85281599999996 509.22848 300 454 300 C 398.77152 300 354 279.85281599999996 354 255 Z"/></g><g><path fill="none" stroke="#000000" paint-order="fill stroke markers" d=" M 354 255 C 354 230.14718400000004 398.77152 210 454 210 C 509.22848 210 554 230.14718400000004 554 255 C 554 279.85281599999996 509.22848 300 454 300 C 398.77152 300 354 279.85281599999996 354 255 Z" stroke-miterlimit="10" stroke-dasharray=""/></g><g><g><path fill="none" stroke="none"/><text fill="#000000" stroke="none" font-family="Arial" font-size="13px" font-style="normal" font-weight="bold" text-decoration="undefined" x="709" y="688" text-anchor="middle" dominant-baseline="central" transform="matrix(1 0 0 1 -255 -445)">UC117.2 - Conferma</text><text fill="#000000" stroke="none" font-family="Arial" font-size="13px" font-style="normal" font-weight="bold" text-decoration="undefined" x="709" y="701" text-anchor="middle" dominant-baseline="central" transform="matrix(1 0 0 1 -255 -445)">eliminazione</text><text fill="#000000" stroke="none" font-family="Arial" font-size="13px" font-style="normal" font-weight="bold" text-decoration="undefined" x="709" y="714" text-anchor="middle" dominant-baseline="central" transform="matrix(1 0 0 1 -255 -445)">sensore simulato</text></g></g><g><path fill="none" stroke="#000000" paint-order="fill stroke markers" d=" M 102 94 L 217 86" stroke-miterlimit="10" stroke-dasharray=""/></g><g><path fill="none" stroke="#000000" paint-order="fill stroke markers" d=" M 350 115 L 420 209" stroke-miterlimit="10" stroke-dasharray="3"/></g><g><path fill="none" stroke="#000000" paint-order="fill stroke markers" d=" M 410.5539636406862 203.36329909445953 L 420 209 L 417.30639306882256 198.33489420116643" stroke-miterlimit="10" stroke-dasharray=""/></g><g><rect fill="#ffffff" stroke="none" x="637" y="583" width="55.65625" height="13" transform="matrix(1 0 0 1 -255 -445)"/></g><g><g><path fill="none" stroke="none"/><text fill="#000000" stroke="none" font-family="Arial" font-size="13px" font-style="normal" font-weight="normal" text-decoration="undefined" x="664.828125" y="589.5" text-anchor="middle" dominant-baseline="central" transform="matrix(1 0 0 1 -255 -445)">«include»</text></g></g><g><path fill="none" stroke="#000000" paint-order="fill stroke markers" d=" M 427 82 L 529 86" stroke-miterlimit="10" stroke-dasharray="3"/></g><g><path fill="none" stroke="#000000" paint-order="fill stroke markers" d=" M 518.6801782385821 89.80805446554632 L 529 86 L 519.0100829161495 81.39548518758045" stroke-miterlimit="10" stroke-dasharray=""/></g><g><rect fill="#ffffff" stroke="none" x="707" y="493" width="55.65625" height="13" transform="matrix(1 0 0 1 -255 -445)"/></g><g><g><path fill="none" stroke="none"/><text fill="#000000" stroke="none" font-family="Arial" font-size="13px" font-style="normal" font-weight="normal" text-decoration="undefined" x="734.828125" y="499.5" text-anchor="middle" dominant-baseline="central" transform="matrix(1 0 0 1 -255 -445)">«include»</text></g></g></g></svg>