<svg version="1.1" xmlns="http://www.w3.org/2000/svg" xmlns:xlink="http://www.w3.org/1999/xlink" width="861" height="548"><defs/><g><g><rect fill="#C0C0C0" stroke="none" x="388" y="350" width="688" height="528" transform="matrix(1 0 0 1 -219 -333)" fill-opacity="0.2"/></g><g><rect fill="#ffffff" stroke="none" x="381" y="343" width="688" height="528" transform="matrix(1 0 0 1 -219 -333)"/></g><g><path fill="none" stroke="#000000" paint-order="fill stroke markers" d=" M 162 10 L 850 10 L 850 538 L 162 538 L 162 10 Z Z" stroke-miterlimit="10" stroke-dasharray=""/></g><g><g><path fill="none" stroke="none"/><text fill="#000000" stroke="none" font-family="Arial" font-size="13px" font-style="normal" font-weight="bold" text-decoration="undefined" x="725.5" y="356.5" text-anchor="middle" dominant-baseline="central" transform="matrix(1 0 0 1 -219 -333)">Sistema Cloud</text></g></g><g><path fill="#ffffff" stroke="none" paint-order="stroke fill markers" d=" M 46.607265625000025 235.85000000000002 C 46.607265625000025 230.96227952000004 50.565067993000014 227 55.447265625 227 C 60.329463256999986 227 64.28726562499997 230.96227952000004 64.28726562499997 235.85000000000002 C 64.28726562499997 240.73772048 60.329463256999986 244.70000000000005 55.447265625 244.70000000000005 C 50.565067993000014 244.70000000000005 46.607265625000025 240.73772048 46.607265625000025 235.85000000000002 Z"/></g><g><path fill="none" stroke="#000000" paint-order="fill stroke markers" d=" M 46.607265625000025 235.85000000000002 C 46.607265625000025 230.96227952000004 50.565067993000014 227 55.447265625 227 C 60.329463256999986 227 64.28726562499997 230.96227952000004 64.28726562499997 235.85000000000002 C 64.28726562499997 240.73772048 60.329463256999986 244.70000000000005 55.447265625 244.70000000000005 C 50.565067993000014 244.70000000000005 46.607265625000025 240.73772048 46.607265625000025 235.85000000000002 Z" stroke-miterlimit="10" stroke-dasharray=""/></g><g><path fill="none" stroke="#000000" paint-order="fill stroke markers" d=" M 55.447265625 244.70000000000005 L 55.447265625 262.29999999999995" stroke-miterlimit="10" stroke-dasharray=""/></g><g><path fill="none" stroke="#000000" paint-order="fill stroke markers" d=" M 46.087265624999986 251.29999999999995 L 64.80726562500001 251.29999999999995" stroke-miterlimit="10" stroke-dasharray=""/></g><g><path fill="none" stroke="#000000" paint-order="fill stroke markers" d=" M 55.447265625 262.29999999999995 L 42.447265625 280" stroke-miterlimit="10" stroke-dasharray=""/></g><g><path fill="none" stroke="#000000" paint-order="fill stroke markers" d=" M 55.447265625 262.29999999999995 L 68.447265625 280" stroke-miterlimit="10" stroke-dasharray=""/></g><g><g><path fill="none" stroke="none"/><text fill="#000000" stroke="none" font-family="Arial" font-size="13px" font-style="normal" font-weight="bold" text-decoration="undefined" x="274.947265625" y="627.5" text-anchor="middle" dominant-baseline="central" transform="matrix(1 0 0 1 -219 -333)">Super Admin</text></g></g><g><path fill="#C0C0C0" stroke="none" paint-order="stroke fill markers" d=" M 193 275.5 C 193 260.8644528 243.1441024 249 305 249 C 366.85589760000005 249 417 260.8644528 417 275.5 C 417 290.1355472 366.85589760000005 302 305 302 C 243.1441024 302 193 290.1355472 193 275.5 Z" fill-opacity="0.2"/></g><g><path fill="#ffffff" stroke="none" paint-order="stroke fill markers" d=" M 186 268.5 C 186 253.86445279999998 236.1441024 242 298 242 C 359.85589760000005 242 410 253.86445279999998 410 268.5 C 410 283.1355472 359.85589760000005 295 298 295 C 236.1441024 295 186 283.1355472 186 268.5 Z"/></g><g><path fill="none" stroke="#000000" paint-order="fill stroke markers" d=" M 186 268.5 C 186 253.86445279999998 236.1441024 242 298 242 C 359.85589760000005 242 410 253.86445279999998 410 268.5 C 410 283.1355472 359.85589760000005 295 298 295 C 236.1441024 295 186 283.1355472 186 268.5 Z" stroke-miterlimit="10" stroke-dasharray=""/></g><g><g><path fill="none" stroke="none"/><text fill="#000000" stroke="none" font-family="Arial" font-size="13px" font-style="normal" font-weight="bold" text-decoration="undefined" x="517" y="596" text-anchor="middle" dominant-baseline="central" transform="matrix(1 0 0 1 -219 -333)">UC118 - Monitoraggio</text><text fill="#000000" stroke="none" font-family="Arial" font-size="13px" font-style="normal" font-weight="bold" text-decoration="undefined" x="517" y="609" text-anchor="middle" dominant-baseline="central" transform="matrix(1 0 0 1 -219 -333)">metriche di sistema</text></g></g><g><path fill="#C0C0C0" stroke="none" paint-order="stroke fill markers" d=" M 249 81 C 249 63.32688639999998 308.09840640000004 49 381 49 C 453.90159359999996 49 513 63.32688639999998 513 81 C 513 98.67311360000002 453.90159359999996 113 381 113 C 308.09840640000004 113 249 98.67311360000002 249 81 Z" fill-opacity="0.2"/></g><g><path fill="#ffffff" stroke="none" paint-order="stroke fill markers" d=" M 242 74 C 242 56.32688639999998 301.09840640000004 42 374 42 C 446.90159359999996 42 506 56.32688639999998 506 74 C 506 91.67311360000002 446.90159359999996 106 374 106 C 301.09840640000004 106 242 91.67311360000002 242 74 Z"/></g><g><path fill="none" stroke="#000000" paint-order="fill stroke markers" d=" M 242 74 C 242 56.32688639999998 301.09840640000004 42 374 42 C 446.90159359999996 42 506 56.32688639999998 506 74 C 506 91.67311360000002 446.90159359999996 106 374 106 C 301.09840640000004 106 242 91.67311360000002 242 74 Z" stroke-miterlimit="10" stroke-dasharray=""/></g><g><g><path fill="none" stroke="none"/><text fill="#000000" stroke="none" font-family="Arial" font-size="13px" font-style="normal" font-weight="bold" text-decoration="undefined" x="593" y="401.5" text-anchor="middle" dominant-baseline="central" transform="matrix(1 0 0 1 -219 -333)">UC118.1 - Visualizzazione</text><text fill="#000000" stroke="none" font-family="Arial" font-size="13px" font-style="normal" font-weight="bold" text-decoration="undefined" x="593" y="414.5" text-anchor="middle" dominant-baseline="central" transform="matrix(1 0 0 1 -219 -333)">gateway offline o online</text></g></g><g><path fill="#C0C0C0" stroke="none" paint-order="stroke fill markers" d=" M 497 141 C 497 125.53602560000002 550.725824 113 617 113 C 683.274176 113 737 125.53602560000002 737 141 C 737 156.46397439999998 683.274176 169 617 169 C 550.725824 169 497 156.46397439999998 497 141 Z" fill-opacity="0.2"/></g><g><path fill="#ffffff" stroke="none" paint-order="stroke fill markers" d=" M 490 134 C 490 118.53602560000002 543.725824 106 610 106 C 676.274176 106 730 118.53602560000002 730 134 C 730 149.46397439999998 676.274176 162 610 162 C 543.725824 162 490 149.46397439999998 490 134 Z"/></g><g><path fill="none" stroke="#000000" paint-order="fill stroke markers" d=" M 490 134 C 490 118.53602560000002 543.725824 106 610 106 C 676.274176 106 730 118.53602560000002 730 134 C 730 149.46397439999998 676.274176 162 610 162 C 543.725824 162 490 149.46397439999998 490 134 Z" stroke-miterlimit="10" stroke-dasharray=""/></g><g><g><path fill="none" stroke="none"/><text fill="#000000" stroke="none" font-family="Arial" font-size="13px" font-style="normal" font-weight="bold" text-decoration="undefined" x="829" y="461.5" text-anchor="middle" dominant-baseline="central" transform="matrix(1 0 0 1 -219 -333)">UC118.2 - Visualizzazione</text><text fill="#000000" stroke="none" font-family="Arial" font-size="13px" font-style="normal" font-weight="bold" text-decoration="undefined" x="829" y="474.5" text-anchor="middle" dominant-baseline="central" transform="matrix(1 0 0 1 -219 -333)">throughput dati</text></g></g><g><path fill="#C0C0C0" stroke="none" paint-order="stroke fill markers" d=" M 593 219.5 C 593 204.86445279999998 648.5166848 193 717 193 C 785.4833152 193 841 204.86445279999998 841 219.5 C 841 234.13554720000002 785.4833152 246 717 246 C 648.5166848 246 593 234.13554720000002 593 219.5 Z" fill-opacity="0.2"/></g><g><path fill="#ffffff" stroke="none" paint-order="stroke fill markers" d=" M 586 212.5 C 586 197.86445279999998 641.5166848 186 710 186 C 778.4833152 186 834 197.86445279999998 834 212.5 C 834 227.13554720000002 778.4833152 239 710 239 C 641.5166848 239 586 227.13554720000002 586 212.5 Z"/></g><g><path fill="none" stroke="#000000" paint-order="fill stroke markers" d=" M 586 212.5 C 586 197.86445279999998 641.5166848 186 710 186 C 778.4833152 186 834 197.86445279999998 834 212.5 C 834 227.13554720000002 778.4833152 239 710 239 C 641.5166848 239 586 227.13554720000002 586 212.5 Z" stroke-miterlimit="10" stroke-dasharray=""/></g><g><g><path fill="none" stroke="none"/><text fill="#000000" stroke="none" font-family="Arial" font-size="13px" font-style="normal" font-weight="bold" text-decoration="undefined" x="929" y="540" text-anchor="middle" dominant-baseline="central" transform="matrix(1 0 0 1 -219 -333)">UC118.3 - Visualizzazione</text><text fill="#000000" stroke="none" font-family="Arial" font-size="13px" font-style="normal" font-weight="bold" text-decoration="undefined" x="929" y="553" text-anchor="middle" dominant-baseline="central" transform="matrix(1 0 0 1 -219 -333)">utilizzo risorse nodi cloud</text></g></g><g><path fill="#C0C0C0" stroke="none" paint-order="stroke fill markers" d=" M 585 317 C 585 297.11774720000005 638.725824 281 705 281 C 771.274176 281 825 297.11774720000005 825 317 C 825 336.88225279999995 771.274176 353 705 353 C 638.725824 353 585 336.88225279999995 585 317 Z" fill-opacity="0.2"/></g><g><path fill="#ffffff" stroke="none" paint-order="stroke fill markers" d=" M 578 310 C 578 290.11774720000005 631.725824 274 698 274 C 764.274176 274 818 290.11774720000005 818 310 C 818 329.88225279999995 764.274176 346 698 346 C 631.725824 346 578 329.88225279999995 578 310 Z"/></g><g><path fill="none" stroke="#000000" paint-order="fill stroke markers" d=" M 578 310 C 578 290.11774720000005 631.725824 274 698 274 C 764.274176 274 818 290.11774720000005 818 310 C 818 329.88225279999995 764.274176 346 698 346 C 631.725824 346 578 329.88225279999995 578 310 Z" stroke-miterlimit="10" stroke-dasharray=""/></g><g><g><path fill="none" stroke="none"/><text fill="#000000" stroke="none" font-family="Arial" font-size="13px" font-style="normal" font-weight="bold" text-decoration="undefined" x="917" y="631" text-anchor="middle" dominant-baseline="central" transform="matrix(1 0 0 1 -219 -333)">UC118.4 - Visualizzazione</text><text fill="#000000" stroke="none" font-family="Arial" font-size="13px" font-style="normal" font-weight="bold" text-decoration="undefined" x="917" y="644" text-anchor="middle" dominant-baseline="central" transform="matrix(1 0 0 1 -219 -333)">frequenza</text><text fill="#000000" stroke="none" font-family="Arial" font-size="13px" font-style="normal" font-weight="bold" text-decoration="undefined" x="917" y="657" text-anchor="middle" dominant-baseline="central" transform="matrix(1 0 0 1 -219 -333)">disconnessioni gateway</text></g></g><g><path fill="#C0C0C0" stroke="none" paint-order="stroke fill markers" d=" M 601 413 C 601 393.11774720000005 654.725824 377 721 377 C 787.274176 377 841 393.11774720000005 841 413 C 841 432.88225279999995 787.274176 449 721 449 C 654.725824 449 601 432.88225279999995 601 413 Z" fill-opacity="0.2"/></g><g><path fill="#ffffff" stroke="none" paint-order="stroke fill markers" d=" M 594 406 C 594 386.11774720000005 647.725824 370 714 370 C 780.274176 370 834 386.11774720000005 834 406 C 834 425.88225279999995 780.274176 442 714 442 C 647.725824 442 594 425.88225279999995 594 406 Z"/></g><g><path fill="none" stroke="#000000" paint-order="fill stroke markers" d=" M 594 406 C 594 386.11774720000005 647.725824 370 714 370 C 780.274176 370 834 386.11774720000005 834 406 C 834 425.88225279999995 780.274176 442 714 442 C 647.725824 442 594 425.88225279999995 594 406 Z" stroke-miterlimit="10" stroke-dasharray=""/></g><g><g><path fill="none" stroke="none"/><text fill="#000000" stroke="none" font-family="Arial" font-size="13px" font-style="normal" font-weight="bold" text-decoration="undefined" x="933" y="727" text-anchor="middle" dominant-baseline="central" transform="matrix(1 0 0 1 -219 -333)">UC118.5 - Visualizzazione</text><text fill="#000000" stroke="none" font-family="Arial" font-size="13px" font-style="normal" font-weight="bold" text-decoration="undefined" x="933" y="740" text-anchor="middle" dominant-baseline="central" transform="matrix(1 0 0 1 -219 -333)">dimensioni payload</text><text fill="#000000" stroke="none" font-family="Arial" font-size="13px" font-style="normal" font-weight="bold" text-decoration="undefined" x="933" y="753" text-anchor="middle" dominant-baseline="central" transform="matrix(1 0 0 1 -219 -333)">pacchetti</text></g></g><g><path fill="#C0C0C0" stroke="none" paint-order="stroke fill markers" d=" M 473 505 C 473 487.32688640000003 526.725824 473 593 473 C 659.274176 473 713 487.32688640000003 713 505 C 713 522.6731136 659.274176 537 593 537 C 526.725824 537 473 522.6731136 473 505 Z" fill-opacity="0.2"/></g><g><path fill="#ffffff" stroke="none" paint-order="stroke fill markers" d=" M 466 498 C 466 480.32688640000003 519.725824 466 586 466 C 652.274176 466 706 480.32688640000003 706 498 C 706 515.6731136 652.274176 530 586 530 C 519.725824 530 466 515.6731136 466 498 Z"/></g><g><path fill="none" stroke="#000000" paint-order="fill stroke markers" d=" M 466 498 C 466 480.32688640000003 519.725824 466 586 466 C 652.274176 466 706 480.32688640000003 706 498 C 706 515.6731136 652.274176 530 586 530 C 519.725824 530 466 515.6731136 466 498 Z" stroke-miterlimit="10" stroke-dasharray=""/></g><g><g><path fill="none" stroke="none"/><text fill="#000000" stroke="none" font-family="Arial" font-size="13px" font-style="normal" font-weight="bold" text-decoration="undefined" x="805" y="825.5" text-anchor="middle" dominant-baseline="central" transform="matrix(1 0 0 1 -219 -333)">UC118.6 - Visualizzazione</text><text fill="#000000" stroke="none" font-family="Arial" font-size="13px" font-style="normal" font-weight="bold" text-decoration="undefined" x="805" y="838.5" text-anchor="middle" dominant-baseline="central" transform="matrix(1 0 0 1 -219 -333)">data staleness</text></g></g><g><path fill="#C0C0C0" stroke="none" paint-order="stroke fill markers" d=" M 217 469 C 217 453.5360256 270.725824 441 337 441 C 403.274176 441 457 453.5360256 457 469 C 457 484.4639744 403.274176 497 337 497 C 270.725824 497 217 484.4639744 217 469 Z" fill-opacity="0.2"/></g><g><path fill="#ffffff" stroke="none" paint-order="stroke fill markers" d=" M 210 462 C 210 446.5360256 263.725824 434 330 434 C 396.274176 434 450 446.5360256 450 462 C 450 477.4639744 396.274176 490 330 490 C 263.725824 490 210 477.4639744 210 462 Z"/></g><g><path fill="none" stroke="#000000" paint-order="fill stroke markers" d=" M 210 462 C 210 446.5360256 263.725824 434 330 434 C 396.274176 434 450 446.5360256 450 462 C 450 477.4639744 396.274176 490 330 490 C 263.725824 490 210 477.4639744 210 462 Z" stroke-miterlimit="10" stroke-dasharray=""/></g><g><g><path fill="none" stroke="none"/><text fill="#000000" stroke="none" font-family="Arial" font-size="13px" font-style="normal" font-weight="bold" text-decoration="undefined" x="549" y="789.5" text-anchor="middle" dominant-baseline="central" transform="matrix(1 0 0 1 -219 -333)">UC118.7 - Visualizzazione</text><text fill="#000000" stroke="none" font-family="Arial" font-size="13px" font-style="normal" font-weight="bold" text-decoration="undefined" x="549" y="802.5" text-anchor="middle" dominant-baseline="central" transform="matrix(1 0 0 1 -219 -333)">valori out-of-range</text></g></g><g><path fill="none" stroke="#000000" paint-order="fill stroke markers" d=" M 309 241 L 361 107" stroke-miterlimit="10" stroke-dasharray="3"/></g><g><path fill="none" stroke="#000000" paint-order="fill stroke markers" d=" M 361.24778983137287 117.99720874583494 L 361 107 L 353.3990129917689 114.95141474837669" stroke-miterlimit="10" stroke-dasharray=""/></g><g><rect fill="#ffffff" stroke="none" x="499" y="490" width="55.65625" height="13" transform="matrix(1 0 0 1 -219 -333)"/></g><g><g><path fill="none" stroke="none"/><text fill="#000000" stroke="none" font-family="Arial" font-size="13px" font-style="normal" font-weight="normal" text-decoration="undefined" x="526.828125" y="496.5" text-anchor="middle" dominant-baseline="central" transform="matrix(1 0 0 1 -219 -333)">«include»</text></g></g><g><path fill="none" stroke="#000000" paint-order="fill stroke markers" d=" M 361 241 L 542 163" stroke-miterlimit="10" stroke-dasharray="3"/></g><g><path fill="none" stroke="#000000" paint-order="fill stroke markers" d=" M 534.3329878808856 170.8877706080586 L 542 163 L 531.0011076537326 163.1560998245369" stroke-miterlimit="10" stroke-dasharray=""/></g><g><rect fill="#ffffff" stroke="none" x="631" y="501" width="55.65625" height="13" transform="matrix(1 0 0 1 -219 -333)"/></g><g><g><path fill="none" stroke="none"/><text fill="#000000" stroke="none" font-family="Arial" font-size="13px" font-style="normal" font-weight="normal" text-decoration="undefined" x="658.828125" y="507.5" text-anchor="middle" dominant-baseline="central" transform="matrix(1 0 0 1 -219 -333)">«include»</text></g></g><g><path fill="none" stroke="#000000" paint-order="fill stroke markers" d=" M 411 253 L 585 229" stroke-miterlimit="10" stroke-dasharray="3"/></g><g><path fill="none" stroke="#000000" paint-order="fill stroke markers" d=" M 575.5078171057902 234.5586386735307 L 585 229 L 574.3574620070219 226.21856420746064" stroke-miterlimit="10" stroke-dasharray=""/></g><g><rect fill="#ffffff" stroke="none" x="685" y="550" width="55.65625" height="13" transform="matrix(1 0 0 1 -219 -333)"/></g><g><g><path fill="none" stroke="none"/><text fill="#000000" stroke="none" font-family="Arial" font-size="13px" font-style="normal" font-weight="normal" text-decoration="undefined" x="712.828125" y="556.5" text-anchor="middle" dominant-baseline="central" transform="matrix(1 0 0 1 -219 -333)">«include»</text></g></g><g><path fill="none" stroke="#000000" paint-order="fill stroke markers" d=" M 411 280 L 577 297" stroke-miterlimit="10" stroke-dasharray="3"/></g><g><path fill="none" stroke="#000000" paint-order="fill stroke markers" d=" M 566.4613490927919 300.152274901718 L 577 297 L 567.3190535197864 291.77704343812434" stroke-miterlimit="10" stroke-dasharray=""/></g><g><rect fill="#ffffff" stroke="none" x="693" y="599" width="55.65625" height="13" transform="matrix(1 0 0 1 -219 -333)"/></g><g><g><path fill="none" stroke="none"/><text fill="#000000" stroke="none" font-family="Arial" font-size="13px" font-style="normal" font-weight="normal" text-decoration="undefined" x="720.828125" y="605.5" text-anchor="middle" dominant-baseline="central" transform="matrix(1 0 0 1 -219 -333)">«include»</text></g></g><g><path fill="none" stroke="#000000" paint-order="fill stroke markers" d=" M 382 296 L 602 369" stroke-miterlimit="10" stroke-dasharray="3"/></g><g><path fill="none" stroke="#000000" paint-order="fill stroke markers" d=" M 591.0287477317356 369.7947475486611 L 602 369 L 593.6801817420123 361.8041245039916" stroke-miterlimit="10" stroke-dasharray=""/></g><g><rect fill="#ffffff" stroke="none" x="693" y="639" width="55.65625" height="13" transform="matrix(1 0 0 1 -219 -333)"/></g><g><g><path fill="none" stroke="none"/><text fill="#000000" stroke="none" font-family="Arial" font-size="13px" font-style="normal" font-weight="normal" text-decoration="undefined" x="720.828125" y="645.5" text-anchor="middle" dominant-baseline="central" transform="matrix(1 0 0 1 -219 -333)">«include»</text></g></g><g><path fill="none" stroke="#000000" paint-order="fill stroke markers" d=" M 333 296 L 545 465" stroke-miterlimit="10" stroke-dasharray="3"/></g><g><path fill="none" stroke="#000000" paint-order="fill stroke markers" d=" M 534.4293444763368 461.9567711554914 L 545 465 L 539.6773055502853 455.3735300449762" stroke-miterlimit="10" stroke-dasharray=""/></g><g><rect fill="#ffffff" stroke="none" x="649" y="683" width="55.65625" height="13" transform="matrix(1 0 0 1 -219 -333)"/></g><g><g><path fill="none" stroke="none"/><text fill="#000000" stroke="none" font-family="Arial" font-size="13px" font-style="normal" font-weight="normal" text-decoration="undefined" x="676.828125" y="689.5" text-anchor="middle" dominant-baseline="central" transform="matrix(1 0 0 1 -219 -333)">«include»</text></g></g><g><path fill="none" stroke="#000000" paint-order="fill stroke markers" d=" M 303 296 L 325 433" stroke-miterlimit="10" stroke-dasharray="3"/></g><g><path fill="none" stroke="#000000" paint-order="fill stroke markers" d=" M 319.23241151097625 423.633307786562 L 325 433 L 327.54495064972707 422.2984474869086" stroke-miterlimit="10" stroke-dasharray=""/></g><g><rect fill="#ffffff" stroke="none" x="535" y="686" width="55.65625" height="13" transform="matrix(1 0 0 1 -219 -333)"/></g><g><g><path fill="none" stroke="none"/><text fill="#000000" stroke="none" font-family="Arial" font-size="13px" font-style="normal" font-weight="normal" text-decoration="undefined" x="562.828125" y="692.5" text-anchor="middle" dominant-baseline="central" transform="matrix(1 0 0 1 -219 -333)">«include»</text></g></g><g><path fill="none" stroke="#000000" paint-order="fill stroke markers" d=" M 102 266 L 185 267" stroke-miterlimit="10" stroke-dasharray=""/></g></g></svg>