<svg version="1.1" xmlns="http://www.w3.org/2000/svg" xmlns:xlink="http://www.w3.org/1999/xlink" width="805" height="412"><defs/><g><g><rect fill="#C0C0C0" stroke="none" x="464" y="418" width="584" height="392" transform="matrix(1 0 0 1 -247 -401)" fill-opacity="0.2"/></g><g><rect fill="#ffffff" stroke="none" x="457" y="411" width="584" height="392" transform="matrix(1 0 0 1 -247 -401)"/></g><g><path fill="none" stroke="#000000" paint-order="fill stroke markers" d=" M 210 10 L 794 10 L 794 402 L 210 402 L 210 10 Z Z" stroke-miterlimit="10" stroke-dasharray=""/></g><g><g><path fill="none" stroke="none"/><text fill="#000000" stroke="none" font-family="Arial" font-size="13px" font-style="normal" font-weight="bold" text-decoration="undefined" x="749.5" y="424.5" text-anchor="middle" dominant-baseline="central" transform="matrix(1 0 0 1 -247 -401)">Sistema Cloud</text></g></g><g><path fill="#ffffff" stroke="none" paint-order="stroke fill markers" d=" M 46.607265625000025 59.85000000000002 C 46.607265625000025 54.96227952000004 50.565067993000014 51 55.447265625 51 C 60.329463256999986 51 64.28726562499997 54.96227952000004 64.28726562499997 59.85000000000002 C 64.28726562499997 64.73772048000001 60.329463256999986 68.69999999999999 55.447265625 68.69999999999999 C 50.565067993000014 68.69999999999999 46.607265625000025 64.73772048000001 46.607265625000025 59.85000000000002 Z"/></g><g><path fill="none" stroke="#000000" paint-order="fill stroke markers" d=" M 46.607265625000025 59.85000000000002 C 46.607265625000025 54.96227952000004 50.565067993000014 51 55.447265625 51 C 60.329463256999986 51 64.28726562499997 54.96227952000004 64.28726562499997 59.85000000000002 C 64.28726562499997 64.73772048000001 60.329463256999986 68.69999999999999 55.447265625 68.69999999999999 C 50.565067993000014 68.69999999999999 46.607265625000025 64.73772048000001 46.607265625000025 59.85000000000002 Z" stroke-miterlimit="10" stroke-dasharray=""/></g><g><path fill="none" stroke="#000000" paint-order="fill stroke markers" d=" M 55.447265625 68.69999999999999 L 55.447265625 86.30000000000001" stroke-miterlimit="10" stroke-dasharray=""/></g><g><path fill="none" stroke="#000000" paint-order="fill stroke markers" d=" M 46.087265624999986 75.30000000000001 L 64.80726562500001 75.30000000000001" stroke-miterlimit="10" stroke-dasharray=""/></g><g><path fill="none" stroke="#000000" paint-order="fill stroke markers" d=" M 55.447265625 86.30000000000001 L 42.447265625 104" stroke-miterlimit="10" stroke-dasharray=""/></g><g><path fill="none" stroke="#000000" paint-order="fill stroke markers" d=" M 55.447265625 86.30000000000001 L 68.447265625 104" stroke-miterlimit="10" stroke-dasharray=""/></g><g><g><path fill="none" stroke="none"/><text fill="#000000" stroke="none" font-family="Arial" font-size="13px" font-style="normal" font-weight="bold" text-decoration="undefined" x="302.947265625" y="519.5" text-anchor="middle" dominant-baseline="central" transform="matrix(1 0 0 1 -247 -401)">Super Admin</text></g></g><g><path fill="#C0C0C0" stroke="none" paint-order="stroke fill markers" d=" M 249 101 C 249 81.1177472 297.35324160000005 65 357 65 C 416.64675839999995 65 465 81.1177472 465 101 C 465 120.88225279999995 416.64675839999995 137 357 137 C 297.35324160000005 137 249 120.88225279999995 249 101 Z" fill-opacity="0.2"/></g><g><path fill="#ffffff" stroke="none" paint-order="stroke fill markers" d=" M 242 94 C 242 74.1177472 290.35324160000005 58 350 58 C 409.64675839999995 58 458 74.1177472 458 94 C 458 113.88225279999995 409.64675839999995 130 350 130 C 290.35324160000005 130 242 113.88225279999995 242 94 Z"/></g><g><path fill="none" stroke="#000000" paint-order="fill stroke markers" d=" M 242 94 C 242 74.1177472 290.35324160000005 58 350 58 C 409.64675839999995 58 458 74.1177472 458 94 C 458 113.88225279999995 409.64675839999995 130 350 130 C 290.35324160000005 130 242 113.88225279999995 242 94 Z" stroke-miterlimit="10" stroke-dasharray=""/></g><g><g><path fill="none" stroke="none"/><text fill="#000000" stroke="none" font-family="Arial" font-size="13px" font-style="normal" font-weight="bold" text-decoration="undefined" x="597" y="489.5" text-anchor="middle" dominant-baseline="central" transform="matrix(1 0 0 1 -247 -401)">UC114 - Creazione</text><text fill="#000000" stroke="none" font-family="Arial" font-size="13px" font-style="normal" font-weight="bold" text-decoration="undefined" x="597" y="502.5" text-anchor="middle" dominant-baseline="central" transform="matrix(1 0 0 1 -247 -401)">sensore simulato</text></g></g><g><path fill="none" stroke="#000000" paint-order="fill stroke markers" d=" M 102 91 L 241 93" stroke-miterlimit="10" stroke-dasharray=""/></g><g><path fill="#C0C0C0" stroke="none" paint-order="stroke fill markers" d=" M 553 101 C 553 76.69946879999998 595.9806592 57 649 57 C 702.0193408 57 745 76.69946879999998 745 101 C 745 125.30053120000002 702.0193408 145 649 145 C 595.9806592 145 553 125.30053120000002 553 101 Z" fill-opacity="0.2"/></g><g><path fill="#ffffff" stroke="none" paint-order="stroke fill markers" d=" M 546 94 C 546 69.69946879999998 588.9806592 50 642 50 C 695.0193408 50 738 69.69946879999998 738 94 C 738 118.30053120000002 695.0193408 138 642 138 C 588.9806592 138 546 118.30053120000002 546 94 Z"/></g><g><path fill="none" stroke="#000000" paint-order="fill stroke markers" d=" M 546 94 C 546 69.69946879999998 588.9806592 50 642 50 C 695.0193408 50 738 69.69946879999998 738 94 C 738 118.30053120000002 695.0193408 138 642 138 C 588.9806592 138 546 118.30053120000002 546 94 Z" stroke-miterlimit="10" stroke-dasharray=""/></g><g><g><path fill="none" stroke="none"/><text fill="#000000" stroke="none" font-family="Arial" font-size="13px" font-style="normal" font-weight="bold" text-decoration="undefined" x="889" y="483" text-anchor="middle" dominant-baseline="central" transform="matrix(1 0 0 1 -247 -401)">UC114.1 - Selezione</text><text fill="#000000" stroke="none" font-family="Arial" font-size="13px" font-style="normal" font-weight="bold" text-decoration="undefined" x="889" y="496" text-anchor="middle" dominant-baseline="central" transform="matrix(1 0 0 1 -247 -401)">servizi sensore</text><text fill="#000000" stroke="none" font-family="Arial" font-size="13px" font-style="normal" font-weight="bold" text-decoration="undefined" x="889" y="509" text-anchor="middle" dominant-baseline="central" transform="matrix(1 0 0 1 -247 -401)">simulato</text></g></g><g><path fill="#C0C0C0" stroke="none" paint-order="stroke fill markers" d=" M 513 238 C 513 213.14718400000004 561.3532416 193 621 193 C 680.6467584 193 729 213.14718400000004 729 238 C 729 262.85281599999996 680.6467584 283 621 283 C 561.3532416 283 513 262.85281599999996 513 238 Z" fill-opacity="0.2"/></g><g><path fill="#ffffff" stroke="none" paint-order="stroke fill markers" d=" M 506 231 C 506 206.14718400000004 554.3532416 186 614 186 C 673.6467584 186 722 206.14718400000004 722 231 C 722 255.85281599999996 673.6467584 276 614 276 C 554.3532416 276 506 255.85281599999996 506 231 Z"/></g><g><path fill="none" stroke="#000000" paint-order="fill stroke markers" d=" M 506 231 C 506 206.14718400000004 554.3532416 186 614 186 C 673.6467584 186 722 206.14718400000004 722 231 C 722 255.85281599999996 673.6467584 276 614 276 C 554.3532416 276 506 255.85281599999996 506 231 Z" stroke-miterlimit="10" stroke-dasharray=""/></g><g><g><path fill="none" stroke="none"/><text fill="#000000" stroke="none" font-family="Arial" font-size="13px" font-style="normal" font-weight="bold" text-decoration="undefined" x="861" y="620" text-anchor="middle" dominant-baseline="central" transform="matrix(1 0 0 1 -247 -401)">UC114.2 - Inserimento</text><text fill="#000000" stroke="none" font-family="Arial" font-size="13px" font-style="normal" font-weight="bold" text-decoration="undefined" x="861" y="633" text-anchor="middle" dominant-baseline="central" transform="matrix(1 0 0 1 -247 -401)">timeout alert sensore</text><text fill="#000000" stroke="none" font-family="Arial" font-size="13px" font-style="normal" font-weight="bold" text-decoration="undefined" x="861" y="646" text-anchor="middle" dominant-baseline="central" transform="matrix(1 0 0 1 -247 -401)">simulato</text></g></g><g><path fill="#C0C0C0" stroke="none" paint-order="stroke fill markers" d=" M 345 342 C 345 317.14718400000004 391.5623808 297 449 297 C 506.4376192 297 553 317.14718400000004 553 342 C 553 366.85281599999996 506.4376192 387 449 387 C 391.5623808 387 345 366.85281599999996 345 342 Z" fill-opacity="0.2"/></g><g><path fill="#ffffff" stroke="none" paint-order="stroke fill markers" d=" M 338 335 C 338 310.14718400000004 384.5623808 290 442 290 C 499.4376192 290 546 310.14718400000004 546 335 C 546 359.85281599999996 499.4376192 380 442 380 C 384.5623808 380 338 359.85281599999996 338 335 Z"/></g><g><path fill="none" stroke="#000000" paint-order="fill stroke markers" d=" M 338 335 C 338 310.14718400000004 384.5623808 290 442 290 C 499.4376192 290 546 310.14718400000004 546 335 C 546 359.85281599999996 499.4376192 380 442 380 C 384.5623808 380 338 359.85281599999996 338 335 Z" stroke-miterlimit="10" stroke-dasharray=""/></g><g><g><path fill="none" stroke="none"/><text fill="#000000" stroke="none" font-family="Arial" font-size="13px" font-style="normal" font-weight="bold" text-decoration="undefined" x="689" y="724" text-anchor="middle" dominant-baseline="central" transform="matrix(1 0 0 1 -247 -401)">UC114.3 - Inserimento</text><text fill="#000000" stroke="none" font-family="Arial" font-size="13px" font-style="normal" font-weight="bold" text-decoration="undefined" x="689" y="737" text-anchor="middle" dominant-baseline="central" transform="matrix(1 0 0 1 -247 -401)">associazione gateway</text><text fill="#000000" stroke="none" font-family="Arial" font-size="13px" font-style="normal" font-weight="bold" text-decoration="undefined" x="689" y="750" text-anchor="middle" dominant-baseline="central" transform="matrix(1 0 0 1 -247 -401)">simulato</text></g></g><g><path fill="none" stroke="#000000" paint-order="fill stroke markers" d=" M 364 131 L 424 289" stroke-miterlimit="10" stroke-dasharray="3"/></g><g><path fill="none" stroke="#000000" paint-order="fill stroke markers" d=" M 416.4568204297749 280.993724837895 L 424 289 L 424.3274580333559 278.00487511501615" stroke-miterlimit="10" stroke-dasharray=""/></g><g><rect fill="#ffffff" stroke="none" x="642" y="594" width="55.65625" height="13" transform="matrix(1 0 0 1 -247 -401)"/></g><g><g><path fill="none" stroke="none"/><text fill="#000000" stroke="none" font-family="Arial" font-size="13px" font-style="normal" font-weight="normal" text-decoration="undefined" x="669.828125" y="600.5" text-anchor="middle" dominant-baseline="central" transform="matrix(1 0 0 1 -247 -401)">«include»</text></g></g><g><path fill="none" stroke="#000000" paint-order="fill stroke markers" d=" M 421 131 L 525 185" stroke-miterlimit="10" stroke-dasharray="3"/></g><g><path fill="none" stroke="#000000" paint-order="fill stroke markers" d=" M 514.0408558700148 184.0528147286774 L 525 185 L 517.9204759980789 176.58095374129448" stroke-miterlimit="10" stroke-dasharray=""/></g><g><rect fill="#ffffff" stroke="none" x="706" y="526" width="55.65625" height="13" transform="matrix(1 0 0 1 -247 -401)"/></g><g><g><path fill="none" stroke="none"/><text fill="#000000" stroke="none" font-family="Arial" font-size="13px" font-style="normal" font-weight="normal" text-decoration="undefined" x="733.828125" y="532.5" text-anchor="middle" dominant-baseline="central" transform="matrix(1 0 0 1 -247 -401)">«include»</text></g></g><g><path fill="none" stroke="#000000" paint-order="fill stroke markers" d=" M 459 94 L 545 94" stroke-miterlimit="10" stroke-dasharray="3"/></g><g><path fill="none" stroke="#000000" paint-order="fill stroke markers" d=" M 534.8373251423759 98.209517756016 L 545 94 L 534.8373251423758 89.790482243984" stroke-miterlimit="10" stroke-dasharray=""/></g><g><rect fill="#ffffff" stroke="none" x="722" y="459" width="55.65625" height="13" transform="matrix(1 0 0 1 -247 -401)"/></g><g><g><path fill="none" stroke="none"/><text fill="#000000" stroke="none" font-family="Arial" font-size="13px" font-style="normal" font-weight="normal" text-decoration="undefined" x="749.828125" y="465.5" text-anchor="middle" dominant-baseline="central" transform="matrix(1 0 0 1 -247 -401)">«include»</text></g></g></g></svg>