<svg version="1.1" xmlns="http://www.w3.org/2000/svg" xmlns:xlink="http://www.w3.org/1999/xlink" width="797" height="412"><defs/><g><g><rect fill="#C0C0C0" stroke="none" x="361" y="222" width="592" height="392" transform="matrix(1 0 0 1 -160 -205)" fill-opacity="0.2"/></g><g><rect fill="#ffffff" stroke="none" x="354" y="215" width="592" height="392" transform="matrix(1 0 0 1 -160 -205)"/></g><g><path fill="none" stroke="#000000" paint-order="fill stroke markers" d=" M 194 10 L 786 10 L 786 402 L 194 402 L 194 10 Z Z" stroke-miterlimit="10" stroke-dasharray=""/></g><g><g><path fill="none" stroke="none"/><text fill="#000000" stroke="none" font-family="Arial" font-size="13px" font-style="normal" font-weight="bold" text-decoration="undefined" x="650.5" y="228.5" text-anchor="middle" dominant-baseline="central" transform="matrix(1 0 0 1 -160 -205)">Sistema Cloud</text></g></g><g><path fill="#ffffff" stroke="none" paint-order="stroke fill markers" d=" M 46.607265625 59.85000000000002 C 46.607265625 54.96227952000004 50.565067992999985 51 55.447265625 51 C 60.329463257000015 51 64.287265625 54.96227952000004 64.287265625 59.85000000000002 C 64.287265625 64.73772048000001 60.329463257000015 68.69999999999999 55.447265625 68.69999999999999 C 50.565067992999985 68.69999999999999 46.607265625 64.73772048000001 46.607265625 59.85000000000002 Z"/></g><g><path fill="none" stroke="#000000" paint-order="fill stroke markers" d=" M 46.607265625 59.85000000000002 C 46.607265625 54.96227952000004 50.565067992999985 51 55.447265625 51 C 60.329463257000015 51 64.287265625 54.96227952000004 64.287265625 59.85000000000002 C 64.287265625 64.73772048000001 60.329463257000015 68.69999999999999 55.447265625 68.69999999999999 C 50.565067992999985 68.69999999999999 46.607265625 64.73772048000001 46.607265625 59.85000000000002 Z" stroke-miterlimit="10" stroke-dasharray=""/></g><g><path fill="none" stroke="#000000" paint-order="fill stroke markers" d=" M 55.447265625 68.69999999999999 L 55.447265625 86.30000000000001" stroke-miterlimit="10" stroke-dasharray=""/></g><g><path fill="none" stroke="#000000" paint-order="fill stroke markers" d=" M 46.087265624999986 75.30000000000001 L 64.80726562500001 75.30000000000001" stroke-miterlimit="10" stroke-dasharray=""/></g><g><path fill="none" stroke="#000000" paint-order="fill stroke markers" d=" M 55.447265625 86.30000000000001 L 42.447265625 104" stroke-miterlimit="10" stroke-dasharray=""/></g><g><path fill="none" stroke="#000000" paint-order="fill stroke markers" d=" M 55.447265625 86.30000000000001 L 68.447265625 104" stroke-miterlimit="10" stroke-dasharray=""/></g><g><g><path fill="none" stroke="none"/><text fill="#000000" stroke="none" font-family="Arial" font-size="13px" font-style="normal" font-weight="bold" text-decoration="undefined" x="215.947265625" y="323.5" text-anchor="middle" dominant-baseline="central" transform="matrix(1 0 0 1 -160 -205)">Super Admin</text></g></g><g><path fill="#C0C0C0" stroke="none" paint-order="stroke fill markers" d=" M 249 101 C 249 81.1177472 297.3532416 65 357 65 C 416.64675839999995 65 465 81.1177472 465 101 C 465 120.8822528 416.64675839999995 137 357 137 C 297.3532416 137 249 120.8822528 249 101 Z" fill-opacity="0.2"/></g><g><path fill="#ffffff" stroke="none" paint-order="stroke fill markers" d=" M 242 94 C 242 74.1177472 290.3532416 58 350 58 C 409.64675839999995 58 458 74.1177472 458 94 C 458 113.8822528 409.64675839999995 130 350 130 C 290.3532416 130 242 113.8822528 242 94 Z"/></g><g><path fill="none" stroke="#000000" paint-order="fill stroke markers" d=" M 242 94 C 242 74.1177472 290.3532416 58 350 58 C 409.64675839999995 58 458 74.1177472 458 94 C 458 113.8822528 409.64675839999995 130 350 130 C 290.3532416 130 242 113.8822528 242 94 Z" stroke-miterlimit="10" stroke-dasharray=""/></g><g><g><path fill="none" stroke="none"/><text fill="#000000" stroke="none" font-family="Arial" font-size="13px" font-style="normal" font-weight="bold" text-decoration="undefined" x="510" y="293.5" text-anchor="middle" dominant-baseline="central" transform="matrix(1 0 0 1 -160 -205)">UC118 - Creazione</text><text fill="#000000" stroke="none" font-family="Arial" font-size="13px" font-style="normal" font-weight="bold" text-decoration="undefined" x="510" y="306.5" text-anchor="middle" dominant-baseline="central" transform="matrix(1 0 0 1 -160 -205)">sensore simulato</text></g></g><g><path fill="none" stroke="#000000" paint-order="fill stroke markers" d=" M 102 91 L 241 93" stroke-miterlimit="10" stroke-dasharray=""/></g><g><path fill="#C0C0C0" stroke="none" paint-order="stroke fill markers" d=" M 553 101 C 553 76.69946879999998 595.9806592 57 649 57 C 702.0193408 57 745 76.69946879999998 745 101 C 745 125.30053120000002 702.0193408 145 649 145 C 595.9806592 145 553 125.30053120000002 553 101 Z" fill-opacity="0.2"/></g><g><path fill="#ffffff" stroke="none" paint-order="stroke fill markers" d=" M 546 94 C 546 69.69946879999998 588.9806592 50 642 50 C 695.0193408 50 738 69.69946879999998 738 94 C 738 118.30053120000002 695.0193408 138 642 138 C 588.9806592 138 546 118.30053120000002 546 94 Z"/></g><g><path fill="none" stroke="#000000" paint-order="fill stroke markers" d=" M 546 94 C 546 69.69946879999998 588.9806592 50 642 50 C 695.0193408 50 738 69.69946879999998 738 94 C 738 118.30053120000002 695.0193408 138 642 138 C 588.9806592 138 546 118.30053120000002 546 94 Z" stroke-miterlimit="10" stroke-dasharray=""/></g><g><g><path fill="none" stroke="none"/><text fill="#000000" stroke="none" font-family="Arial" font-size="13px" font-style="normal" font-weight="bold" text-decoration="undefined" x="802" y="287" text-anchor="middle" dominant-baseline="central" transform="matrix(1 0 0 1 -160 -205)">UC118.1 - Selezione</text><text fill="#000000" stroke="none" font-family="Arial" font-size="13px" font-style="normal" font-weight="bold" text-decoration="undefined" x="802" y="300" text-anchor="middle" dominant-baseline="central" transform="matrix(1 0 0 1 -160 -205)">servizi sensore</text><text fill="#000000" stroke="none" font-family="Arial" font-size="13px" font-style="normal" font-weight="bold" text-decoration="undefined" x="802" y="313" text-anchor="middle" dominant-baseline="central" transform="matrix(1 0 0 1 -160 -205)">simulato</text></g></g><g><path fill="#C0C0C0" stroke="none" paint-order="stroke fill markers" d=" M 513 238 C 513 213.14718399999998 561.3532416 193 621 193 C 680.6467584 193 729 213.14718399999998 729 238 C 729 262.852816 680.6467584 283 621 283 C 561.3532416 283 513 262.852816 513 238 Z" fill-opacity="0.2"/></g><g><path fill="#ffffff" stroke="none" paint-order="stroke fill markers" d=" M 506 231 C 506 206.14718399999998 554.3532416 186 614 186 C 673.6467584 186 722 206.14718399999998 722 231 C 722 255.85281600000002 673.6467584 276 614 276 C 554.3532416 276 506 255.85281600000002 506 231 Z"/></g><g><path fill="none" stroke="#000000" paint-order="fill stroke markers" d=" M 506 231 C 506 206.14718399999998 554.3532416 186 614 186 C 673.6467584 186 722 206.14718399999998 722 231 C 722 255.85281600000002 673.6467584 276 614 276 C 554.3532416 276 506 255.85281600000002 506 231 Z" stroke-miterlimit="10" stroke-dasharray=""/></g><g><g><path fill="none" stroke="none"/><text fill="#000000" stroke="none" font-family="Arial" font-size="13px" font-style="normal" font-weight="bold" text-decoration="undefined" x="774" y="424" text-anchor="middle" dominant-baseline="central" transform="matrix(1 0 0 1 -160 -205)">UC118.2 - Inserimento</text><text fill="#000000" stroke="none" font-family="Arial" font-size="13px" font-style="normal" font-weight="bold" text-decoration="undefined" x="774" y="437" text-anchor="middle" dominant-baseline="central" transform="matrix(1 0 0 1 -160 -205)">timeout alert sensore</text><text fill="#000000" stroke="none" font-family="Arial" font-size="13px" font-style="normal" font-weight="bold" text-decoration="undefined" x="774" y="450" text-anchor="middle" dominant-baseline="central" transform="matrix(1 0 0 1 -160 -205)">simulato</text></g></g><g><path fill="#C0C0C0" stroke="none" paint-order="stroke fill markers" d=" M 345 342 C 345 317.14718400000004 391.5623808 297 449 297 C 506.4376192 297 553 317.14718400000004 553 342 C 553 366.85281599999996 506.4376192 387 449 387 C 391.5623808 387 345 366.85281599999996 345 342 Z" fill-opacity="0.2"/></g><g><path fill="#ffffff" stroke="none" paint-order="stroke fill markers" d=" M 338 335 C 338 310.14718400000004 384.5623808 290 442 290 C 499.4376192 290 546 310.14718400000004 546 335 C 546 359.85281599999996 499.4376192 380 442 380 C 384.5623808 380 338 359.85281599999996 338 335 Z"/></g><g><path fill="none" stroke="#000000" paint-order="fill stroke markers" d=" M 338 335 C 338 310.14718400000004 384.5623808 290 442 290 C 499.4376192 290 546 310.14718400000004 546 335 C 546 359.85281599999996 499.4376192 380 442 380 C 384.5623808 380 338 359.85281599999996 338 335 Z" stroke-miterlimit="10" stroke-dasharray=""/></g><g><g><path fill="none" stroke="none"/><text fill="#000000" stroke="none" font-family="Arial" font-size="13px" font-style="normal" font-weight="bold" text-decoration="undefined" x="602" y="528" text-anchor="middle" dominant-baseline="central" transform="matrix(1 0 0 1 -160 -205)">UC118.3 - Inserimento</text><text fill="#000000" stroke="none" font-family="Arial" font-size="13px" font-style="normal" font-weight="bold" text-decoration="undefined" x="602" y="541" text-anchor="middle" dominant-baseline="central" transform="matrix(1 0 0 1 -160 -205)">associazione gateway</text><text fill="#000000" stroke="none" font-family="Arial" font-size="13px" font-style="normal" font-weight="bold" text-decoration="undefined" x="602" y="554" text-anchor="middle" dominant-baseline="central" transform="matrix(1 0 0 1 -160 -205)">simulato</text></g></g><g><path fill="none" stroke="#000000" paint-order="fill stroke markers" d=" M 364 131 L 424 289" stroke-miterlimit="10" stroke-dasharray="3"/></g><g><path fill="none" stroke="#000000" paint-order="fill stroke markers" d=" M 416.4568204297749 280.993724837895 L 424 289 L 424.3274580333559 278.00487511501615" stroke-miterlimit="10" stroke-dasharray=""/></g><g><rect fill="#ffffff" stroke="none" x="555" y="398" width="55.65625" height="13" transform="matrix(1 0 0 1 -160 -205)"/></g><g><g><path fill="none" stroke="none"/><text fill="#000000" stroke="none" font-family="Arial" font-size="13px" font-style="normal" font-weight="normal" text-decoration="undefined" x="582.828125" y="404.5" text-anchor="middle" dominant-baseline="central" transform="matrix(1 0 0 1 -160 -205)">«include»</text></g></g><g><path fill="none" stroke="#000000" paint-order="fill stroke markers" d=" M 421 131 L 525 185" stroke-miterlimit="10" stroke-dasharray="3"/></g><g><path fill="none" stroke="#000000" paint-order="fill stroke markers" d=" M 514.0408558700148 184.05281472867733 L 525 185 L 517.9204759980789 176.58095374129442" stroke-miterlimit="10" stroke-dasharray=""/></g><g><rect fill="#ffffff" stroke="none" x="619" y="330" width="55.65625" height="13" transform="matrix(1 0 0 1 -160 -205)"/></g><g><g><path fill="none" stroke="none"/><text fill="#000000" stroke="none" font-family="Arial" font-size="13px" font-style="normal" font-weight="normal" text-decoration="undefined" x="646.828125" y="336.5" text-anchor="middle" dominant-baseline="central" transform="matrix(1 0 0 1 -160 -205)">«include»</text></g></g><g><path fill="none" stroke="#000000" paint-order="fill stroke markers" d=" M 459 94 L 545 94" stroke-miterlimit="10" stroke-dasharray="3"/></g><g><path fill="none" stroke="#000000" paint-order="fill stroke markers" d=" M 534.8373251423759 98.209517756016 L 545 94 L 534.8373251423758 89.790482243984" stroke-miterlimit="10" stroke-dasharray=""/></g><g><rect fill="#ffffff" stroke="none" x="635" y="263" width="55.65625" height="13" transform="matrix(1 0 0 1 -160 -205)"/></g><g><g><path fill="none" stroke="none"/><text fill="#000000" stroke="none" font-family="Arial" font-size="13px" font-style="normal" font-weight="normal" text-decoration="undefined" x="662.828125" y="269.5" text-anchor="middle" dominant-baseline="central" transform="matrix(1 0 0 1 -160 -205)">«include»</text></g></g></g></svg>