<svg version="1.1" xmlns="http://www.w3.org/2000/svg" xmlns:xlink="http://www.w3.org/1999/xlink" width="741" height="356"><defs/><g><g><rect fill="#C0C0C0" stroke="none" x="448" y="446" width="568" height="336" transform="matrix(1 0 0 1 -279 -429)" fill-opacity="0.2"/></g><g><rect fill="#ffffff" stroke="none" x="441" y="439" width="568" height="336" transform="matrix(1 0 0 1 -279 -429)"/></g><g><path fill="none" stroke="#000000" paint-order="fill stroke markers" d=" M 162 10 L 730 10 L 730 346 L 162 346 L 162 10 Z Z" stroke-miterlimit="10" stroke-dasharray=""/></g><g><g><path fill="none" stroke="none"/><text fill="#000000" stroke="none" font-family="Arial" font-size="13px" font-style="normal" font-weight="bold" text-decoration="undefined" x="725.5" y="452.5" text-anchor="middle" dominant-baseline="central" transform="matrix(1 0 0 1 -279 -429)">Sistema Cloud</text></g></g><g><path fill="#ffffff" stroke="none" paint-order="stroke fill markers" d=" M 46.607265625000025 115.85000000000002 C 46.607265625000025 110.96227952000004 50.565067993000014 107 55.447265625 107 C 60.329463256999986 107 64.28726562499997 110.96227952000004 64.28726562499997 115.85000000000002 C 64.28726562499997 120.73772048000001 60.329463256999986 124.70000000000005 55.447265625 124.70000000000005 C 50.565067993000014 124.70000000000005 46.607265625000025 120.73772048000001 46.607265625000025 115.85000000000002 Z"/></g><g><path fill="none" stroke="#000000" paint-order="fill stroke markers" d=" M 46.607265625000025 115.85000000000002 C 46.607265625000025 110.96227952000004 50.565067993000014 107 55.447265625 107 C 60.329463256999986 107 64.28726562499997 110.96227952000004 64.28726562499997 115.85000000000002 C 64.28726562499997 120.73772048000001 60.329463256999986 124.70000000000005 55.447265625 124.70000000000005 C 50.565067993000014 124.70000000000005 46.607265625000025 120.73772048000001 46.607265625000025 115.85000000000002 Z" stroke-miterlimit="10" stroke-dasharray=""/></g><g><path fill="none" stroke="#000000" paint-order="fill stroke markers" d=" M 55.447265625 124.70000000000005 L 55.447265625 142.29999999999995" stroke-miterlimit="10" stroke-dasharray=""/></g><g><path fill="none" stroke="#000000" paint-order="fill stroke markers" d=" M 46.087265624999986 131.29999999999995 L 64.80726562500001 131.29999999999995" stroke-miterlimit="10" stroke-dasharray=""/></g><g><path fill="none" stroke="#000000" paint-order="fill stroke markers" d=" M 55.447265625 142.29999999999995 L 42.447265625 160" stroke-miterlimit="10" stroke-dasharray=""/></g><g><path fill="none" stroke="#000000" paint-order="fill stroke markers" d=" M 55.447265625 142.29999999999995 L 68.447265625 160" stroke-miterlimit="10" stroke-dasharray=""/></g><g><g><path fill="none" stroke="none"/><text fill="#000000" stroke="none" font-family="Arial" font-size="13px" font-style="normal" font-weight="bold" text-decoration="undefined" x="334.947265625" y="603.5" text-anchor="middle" dominant-baseline="central" transform="matrix(1 0 0 1 -279 -429)">Super Admin</text></g></g><g><path fill="#C0C0C0" stroke="none" paint-order="stroke fill markers" d=" M 185 118 C 185 93.14718400000004 231.56238080000003 73 289 73 C 346.4376192 73 393 93.14718400000004 393 118 C 393 142.85281599999996 346.4376192 163 289 163 C 231.56238080000003 163 185 142.85281599999996 185 118 Z" fill-opacity="0.2"/></g><g><path fill="#ffffff" stroke="none" paint-order="stroke fill markers" d=" M 178 111 C 178 86.14718400000004 224.56238080000003 66 282 66 C 339.4376192 66 386 86.14718400000004 386 111 C 386 135.85281599999996 339.4376192 156 282 156 C 224.56238080000003 156 178 135.85281599999996 178 111 Z"/></g><g><path fill="none" stroke="#000000" paint-order="fill stroke markers" d=" M 178 111 C 178 86.14718400000004 224.56238080000003 66 282 66 C 339.4376192 66 386 86.14718400000004 386 111 C 386 135.85281599999996 339.4376192 156 282 156 C 224.56238080000003 156 178 135.85281599999996 178 111 Z" stroke-miterlimit="10" stroke-dasharray=""/></g><g><g><path fill="none" stroke="none"/><text fill="#000000" stroke="none" font-family="Arial" font-size="13px" font-style="normal" font-weight="bold" text-decoration="undefined" x="561" y="528" text-anchor="middle" dominant-baseline="central" transform="matrix(1 0 0 1 -279 -429)">UC114 - Sospensione</text><text fill="#000000" stroke="none" font-family="Arial" font-size="13px" font-style="normal" font-weight="bold" text-decoration="undefined" x="561" y="541" text-anchor="middle" dominant-baseline="central" transform="matrix(1 0 0 1 -279 -429)">account Tenant</text><text fill="#000000" stroke="none" font-family="Arial" font-size="13px" font-style="normal" font-weight="bold" text-decoration="undefined" x="561" y="554" text-anchor="middle" dominant-baseline="central" transform="matrix(1 0 0 1 -279 -429)">Admin</text></g></g><g><path fill="none" stroke="#000000" paint-order="fill stroke markers" d=" M 102 139 L 177 127" stroke-miterlimit="10" stroke-dasharray=""/></g><g><path fill="#C0C0C0" stroke="none" paint-order="stroke fill markers" d=" M 505 117 C 505 97.11774720000005 551.5623808 81 609 81 C 666.4376192 81 713 97.11774720000005 713 117 C 713 136.88225279999995 666.4376192 153 609 153 C 551.5623808 153 505 136.88225279999995 505 117 Z" fill-opacity="0.2"/></g><g><path fill="#ffffff" stroke="none" paint-order="stroke fill markers" d=" M 498 110 C 498 90.11774720000005 544.5623808 74 602 74 C 659.4376192 74 706 90.11774720000005 706 110 C 706 129.88225279999995 659.4376192 146 602 146 C 544.5623808 146 498 129.88225279999995 498 110 Z"/></g><g><path fill="none" stroke="#000000" paint-order="fill stroke markers" d=" M 498 110 C 498 90.11774720000005 544.5623808 74 602 74 C 659.4376192 74 706 90.11774720000005 706 110 C 706 129.88225279999995 659.4376192 146 602 146 C 544.5623808 146 498 129.88225279999995 498 110 Z" stroke-miterlimit="10" stroke-dasharray=""/></g><g><g><path fill="none" stroke="none"/><text fill="#000000" stroke="none" font-family="Arial" font-size="13px" font-style="normal" font-weight="bold" text-decoration="undefined" x="881" y="527" text-anchor="middle" dominant-baseline="central" transform="matrix(1 0 0 1 -279 -429)">UC114.1 - Selezione</text><text fill="#000000" stroke="none" font-family="Arial" font-size="13px" font-style="normal" font-weight="bold" text-decoration="undefined" x="881" y="540" text-anchor="middle" dominant-baseline="central" transform="matrix(1 0 0 1 -279 -429)">Tenant Admin da</text><text fill="#000000" stroke="none" font-family="Arial" font-size="13px" font-style="normal" font-weight="bold" text-decoration="undefined" x="881" y="553" text-anchor="middle" dominant-baseline="central" transform="matrix(1 0 0 1 -279 -429)">sospendere</text></g></g><g><path fill="none" stroke="#000000" paint-order="fill stroke markers" d=" M 387 111 L 497 110" stroke-miterlimit="10" stroke-dasharray="3"/></g><g><path fill="none" stroke="#000000" paint-order="fill stroke markers" d=" M 486.8760118235881 114.3017279555861 L 497 110 L 486.799478299592 105.88304031602138" stroke-miterlimit="10" stroke-dasharray=""/></g><g><rect fill="#ffffff" stroke="none" x="694" y="503" width="55.65625" height="13" transform="matrix(1 0 0 1 -279 -429)"/></g><g><g><path fill="none" stroke="none"/><text fill="#000000" stroke="none" font-family="Arial" font-size="13px" font-style="normal" font-weight="normal" text-decoration="undefined" x="721.828125" y="509.5" text-anchor="middle" dominant-baseline="central" transform="matrix(1 0 0 1 -279 -429)">«include»</text></g></g><g><path fill="#C0C0C0" stroke="none" paint-order="stroke fill markers" d=" M 449 270 C 449 245.14718400000004 493.77152 225 549 225 C 604.22848 225 649 245.14718400000004 649 270 C 649 294.85281599999996 604.22848 315 549 315 C 493.77152 315 449 294.85281599999996 449 270 Z" fill-opacity="0.2"/></g><g><path fill="#ffffff" stroke="none" paint-order="stroke fill markers" d=" M 442 263 C 442 238.14718400000004 486.77152 218 542 218 C 597.22848 218 642 238.14718400000004 642 263 C 642 287.85281599999996 597.22848 308 542 308 C 486.77152 308 442 287.85281599999996 442 263 Z"/></g><g><path fill="none" stroke="#000000" paint-order="fill stroke markers" d=" M 442 263 C 442 238.14718400000004 486.77152 218 542 218 C 597.22848 218 642 238.14718400000004 642 263 C 642 287.85281599999996 597.22848 308 542 308 C 486.77152 308 442 287.85281599999996 442 263 Z" stroke-miterlimit="10" stroke-dasharray=""/></g><g><g><path fill="none" stroke="none"/><text fill="#000000" stroke="none" font-family="Arial" font-size="13px" font-style="normal" font-weight="bold" text-decoration="undefined" x="821" y="673.5" text-anchor="middle" dominant-baseline="central" transform="matrix(1 0 0 1 -279 -429)">UC114.2 - Conferma</text><text fill="#000000" stroke="none" font-family="Arial" font-size="13px" font-style="normal" font-weight="bold" text-decoration="undefined" x="821" y="686.5" text-anchor="middle" dominant-baseline="central" transform="matrix(1 0 0 1 -279 -429)">sospensione</text><text fill="#000000" stroke="none" font-family="Arial" font-size="13px" font-style="normal" font-weight="bold" text-decoration="undefined" x="821" y="699.5" text-anchor="middle" dominant-baseline="central" transform="matrix(1 0 0 1 -279 -429)">account Tenant</text><text fill="#000000" stroke="none" font-family="Arial" font-size="13px" font-style="normal" font-weight="bold" text-decoration="undefined" x="821" y="712.5" text-anchor="middle" dominant-baseline="central" transform="matrix(1 0 0 1 -279 -429)">Admin</text></g></g><g><path fill="none" stroke="#000000" paint-order="fill stroke markers" d=" M 361 157 L 463 217" stroke-miterlimit="10" stroke-dasharray="3"/></g><g><path fill="none" stroke="#000000" paint-order="fill stroke markers" d=" M 452.10613259726404 215.47564669068913 L 463 217 L 456.3747530481162 208.2189919242404" stroke-miterlimit="10" stroke-dasharray=""/></g><g><rect fill="#ffffff" stroke="none" x="679" y="584" width="55.65625" height="13" transform="matrix(1 0 0 1 -279 -429)"/></g><g><g><path fill="none" stroke="none"/><text fill="#000000" stroke="none" font-family="Arial" font-size="13px" font-style="normal" font-weight="normal" text-decoration="undefined" x="706.828125" y="590.5" text-anchor="middle" dominant-baseline="central" transform="matrix(1 0 0 1 -279 -429)">«include»</text></g></g></g></svg>