<svg version="1.1" xmlns="http://www.w3.org/2000/svg" xmlns:xlink="http://www.w3.org/1999/xlink" width="773" height="356"><defs/><g><g><rect fill="#C0C0C0" stroke="none" x="464" y="446" width="568" height="336" transform="matrix(1 0 0 1 -263 -429)" fill-opacity="0.2"/></g><g><rect fill="#ffffff" stroke="none" x="457" y="439" width="568" height="336" transform="matrix(1 0 0 1 -263 -429)"/></g><g><path fill="none" stroke="#000000" paint-order="fill stroke markers" d=" M 194 10 L 762 10 L 762 346 L 194 346 L 194 10 Z Z" stroke-miterlimit="10" stroke-dasharray=""/></g><g><g><path fill="none" stroke="none"/><text fill="#000000" stroke="none" font-family="Arial" font-size="13px" font-style="normal" font-weight="bold" text-decoration="undefined" x="741.5" y="452.5" text-anchor="middle" dominant-baseline="central" transform="matrix(1 0 0 1 -263 -429)">Sistema Cloud</text></g></g><g><path fill="#ffffff" stroke="none" paint-order="stroke fill markers" d=" M 46.607265625000025 99.85000000000002 C 46.607265625000025 94.96227952000004 50.565067993000014 91 55.447265625 91 C 60.329463256999986 91 64.28726562499997 94.96227952000004 64.28726562499997 99.85000000000002 C 64.28726562499997 104.73772048000001 60.329463256999986 108.70000000000005 55.447265625 108.70000000000005 C 50.565067993000014 108.70000000000005 46.607265625000025 104.73772048000001 46.607265625000025 99.85000000000002 Z"/></g><g><path fill="none" stroke="#000000" paint-order="fill stroke markers" d=" M 46.607265625000025 99.85000000000002 C 46.607265625000025 94.96227952000004 50.565067993000014 91 55.447265625 91 C 60.329463256999986 91 64.28726562499997 94.96227952000004 64.28726562499997 99.85000000000002 C 64.28726562499997 104.73772048000001 60.329463256999986 108.70000000000005 55.447265625 108.70000000000005 C 50.565067993000014 108.70000000000005 46.607265625000025 104.73772048000001 46.607265625000025 99.85000000000002 Z" stroke-miterlimit="10" stroke-dasharray=""/></g><g><path fill="none" stroke="#000000" paint-order="fill stroke markers" d=" M 55.447265625 108.70000000000005 L 55.447265625 126.29999999999995" stroke-miterlimit="10" stroke-dasharray=""/></g><g><path fill="none" stroke="#000000" paint-order="fill stroke markers" d=" M 46.087265624999986 115.29999999999995 L 64.80726562500001 115.29999999999995" stroke-miterlimit="10" stroke-dasharray=""/></g><g><path fill="none" stroke="#000000" paint-order="fill stroke markers" d=" M 55.447265625 126.29999999999995 L 42.447265625 144" stroke-miterlimit="10" stroke-dasharray=""/></g><g><path fill="none" stroke="#000000" paint-order="fill stroke markers" d=" M 55.447265625 126.29999999999995 L 68.447265625 144" stroke-miterlimit="10" stroke-dasharray=""/></g><g><g><path fill="none" stroke="none"/><text fill="#000000" stroke="none" font-family="Arial" font-size="13px" font-style="normal" font-weight="bold" text-decoration="undefined" x="318.947265625" y="587.5" text-anchor="middle" dominant-baseline="central" transform="matrix(1 0 0 1 -263 -429)">Super Admin</text></g></g><g><path fill="#C0C0C0" stroke="none" paint-order="stroke fill markers" d=" M 217 130 C 217 107.35632320000002 267.14410239999995 89 329 89 C 390.85589760000005 89 441 107.35632320000002 441 130 C 441 152.64367679999998 390.85589760000005 171 329 171 C 267.14410239999995 171 217 152.64367679999998 217 130 Z" fill-opacity="0.2"/></g><g><path fill="#ffffff" stroke="none" paint-order="stroke fill markers" d=" M 210 123 C 210 100.35632320000002 260.14410239999995 82 322 82 C 383.85589760000005 82 434 100.35632320000002 434 123 C 434 145.64367679999998 383.85589760000005 164 322 164 C 260.14410239999995 164 210 145.64367679999998 210 123 Z"/></g><g><path fill="none" stroke="#000000" paint-order="fill stroke markers" d=" M 210 123 C 210 100.35632320000002 260.14410239999995 82 322 82 C 383.85589760000005 82 434 100.35632320000002 434 123 C 434 145.64367679999998 383.85589760000005 164 322 164 C 260.14410239999995 164 210 145.64367679999998 210 123 Z" stroke-miterlimit="10" stroke-dasharray=""/></g><g><g><path fill="none" stroke="none"/><text fill="#000000" stroke="none" font-family="Arial" font-size="13px" font-style="normal" font-weight="bold" text-decoration="undefined" x="585" y="546.5" text-anchor="middle" dominant-baseline="central" transform="matrix(1 0 0 1 -263 -429)">UC113 - Eliminazione</text><text fill="#000000" stroke="none" font-family="Arial" font-size="13px" font-style="normal" font-weight="bold" text-decoration="undefined" x="585" y="559.5" text-anchor="middle" dominant-baseline="central" transform="matrix(1 0 0 1 -263 -429)">account Tenant Admin</text></g></g><g><path fill="none" stroke="#000000" paint-order="fill stroke markers" d=" M 102 129 L 209 126" stroke-miterlimit="10" stroke-dasharray=""/></g><g><path fill="#C0C0C0" stroke="none" paint-order="stroke fill markers" d=" M 553 141 C 553 121.11774720000005 599.5623808 105 657 105 C 714.4376192 105 761 121.11774720000005 761 141 C 761 160.88225279999995 714.4376192 177 657 177 C 599.5623808 177 553 160.88225279999995 553 141 Z" fill-opacity="0.2"/></g><g><path fill="#ffffff" stroke="none" paint-order="stroke fill markers" d=" M 546 134 C 546 114.11774720000005 592.5623808 98 650 98 C 707.4376192 98 754 114.11774720000005 754 134 C 754 153.88225279999995 707.4376192 170 650 170 C 592.5623808 170 546 153.88225279999995 546 134 Z"/></g><g><path fill="none" stroke="#000000" paint-order="fill stroke markers" d=" M 546 134 C 546 114.11774720000005 592.5623808 98 650 98 C 707.4376192 98 754 114.11774720000005 754 134 C 754 153.88225279999995 707.4376192 170 650 170 C 592.5623808 170 546 153.88225279999995 546 134 Z" stroke-miterlimit="10" stroke-dasharray=""/></g><g><g><path fill="none" stroke="none"/><text fill="#000000" stroke="none" font-family="Arial" font-size="13px" font-style="normal" font-weight="bold" text-decoration="undefined" x="913" y="551" text-anchor="middle" dominant-baseline="central" transform="matrix(1 0 0 1 -263 -429)">UC113.1 - Selezione</text><text fill="#000000" stroke="none" font-family="Arial" font-size="13px" font-style="normal" font-weight="bold" text-decoration="undefined" x="913" y="564" text-anchor="middle" dominant-baseline="central" transform="matrix(1 0 0 1 -263 -429)">Tenant Admin da</text><text fill="#000000" stroke="none" font-family="Arial" font-size="13px" font-style="normal" font-weight="bold" text-decoration="undefined" x="913" y="577" text-anchor="middle" dominant-baseline="central" transform="matrix(1 0 0 1 -263 -429)">eliminare</text></g></g><g><path fill="none" stroke="#000000" paint-order="fill stroke markers" d=" M 435 127 L 545 130" stroke-miterlimit="10" stroke-dasharray="3"/></g><g><path fill="none" stroke="#000000" paint-order="fill stroke markers" d=" M 534.7263401850302 133.93089226592053 L 545 130 L 534.955864899885 125.51498605457721" stroke-miterlimit="10" stroke-dasharray=""/></g><g><rect fill="#ffffff" stroke="none" x="727" y="521" width="55.65625" height="13" transform="matrix(1 0 0 1 -263 -429)"/></g><g><g><path fill="none" stroke="none"/><text fill="#000000" stroke="none" font-family="Arial" font-size="13px" font-style="normal" font-weight="normal" text-decoration="undefined" x="754.828125" y="527.5" text-anchor="middle" dominant-baseline="central" transform="matrix(1 0 0 1 -263 -429)">«include»</text></g></g><g><path fill="#C0C0C0" stroke="none" paint-order="stroke fill markers" d=" M 513 285 C 513 265.11774720000005 561.3532416 249 621 249 C 680.6467584 249 729 265.11774720000005 729 285 C 729 304.88225279999995 680.6467584 321 621 321 C 561.3532416 321 513 304.88225279999995 513 285 Z" fill-opacity="0.2"/></g><g><path fill="#ffffff" stroke="none" paint-order="stroke fill markers" d=" M 506 278 C 506 258.11774720000005 554.3532416 242 614 242 C 673.6467584 242 722 258.11774720000005 722 278 C 722 297.88225279999995 673.6467584 314 614 314 C 554.3532416 314 506 297.88225279999995 506 278 Z"/></g><g><path fill="none" stroke="#000000" paint-order="fill stroke markers" d=" M 506 278 C 506 258.11774720000005 554.3532416 242 614 242 C 673.6467584 242 722 258.11774720000005 722 278 C 722 297.88225279999995 673.6467584 314 614 314 C 554.3532416 314 506 297.88225279999995 506 278 Z" stroke-miterlimit="10" stroke-dasharray=""/></g><g><g><path fill="none" stroke="none"/><text fill="#000000" stroke="none" font-family="Arial" font-size="13px" font-style="normal" font-weight="bold" text-decoration="undefined" x="877" y="695" text-anchor="middle" dominant-baseline="central" transform="matrix(1 0 0 1 -263 -429)">UC113.2 - Conferma</text><text fill="#000000" stroke="none" font-family="Arial" font-size="13px" font-style="normal" font-weight="bold" text-decoration="undefined" x="877" y="708" text-anchor="middle" dominant-baseline="central" transform="matrix(1 0 0 1 -263 -429)">eliminazione account</text><text fill="#000000" stroke="none" font-family="Arial" font-size="13px" font-style="normal" font-weight="bold" text-decoration="undefined" x="877" y="721" text-anchor="middle" dominant-baseline="central" transform="matrix(1 0 0 1 -263 -429)">Tenant Admin</text></g></g><g><path fill="none" stroke="#000000" paint-order="fill stroke markers" d=" M 401 165 L 544 241" stroke-miterlimit="10" stroke-dasharray="3"/></g><g><path fill="none" stroke="#000000" paint-order="fill stroke markers" d=" M 533.0504439879654 239.94775328970888 L 544 241 L 537.0015454772366 232.51344390858037" stroke-miterlimit="10" stroke-dasharray=""/></g><g><rect fill="#ffffff" stroke="none" x="722" y="599" width="55.65625" height="13" transform="matrix(1 0 0 1 -263 -429)"/></g><g><g><path fill="none" stroke="none"/><text fill="#000000" stroke="none" font-family="Arial" font-size="13px" font-style="normal" font-weight="normal" text-decoration="undefined" x="749.828125" y="605.5" text-anchor="middle" dominant-baseline="central" transform="matrix(1 0 0 1 -263 -429)">«include»</text></g></g></g></svg>