<svg version="1.1" xmlns="http://www.w3.org/2000/svg" xmlns:xlink="http://www.w3.org/1999/xlink" width="821" height="412"><defs/><g><g><path fill="#ffffff" stroke="none" paint-order="stroke fill markers" d=" M 46.607265625 179.85000000000002 C 46.607265625 174.96227952000004 50.565067992999985 171 55.447265625 171 C 60.329463257000015 171 64.287265625 174.96227952000004 64.287265625 179.85000000000002 C 64.287265625 184.73772048 60.329463257000015 188.7 55.447265625 188.7 C 50.565067992999985 188.7 46.607265625 184.73772048 46.607265625 179.85000000000002 Z"/></g><g><path fill="none" stroke="#000000" paint-order="fill stroke markers" d=" M 46.607265625 179.85000000000002 C 46.607265625 174.96227952000004 50.565067992999985 171 55.447265625 171 C 60.329463257000015 171 64.287265625 174.96227952000004 64.287265625 179.85000000000002 C 64.287265625 184.73772048 60.329463257000015 188.7 55.447265625 188.7 C 50.565067992999985 188.7 46.607265625 184.73772048 46.607265625 179.85000000000002 Z" stroke-miterlimit="10" stroke-dasharray=""/></g><g><path fill="none" stroke="#000000" paint-order="fill stroke markers" d=" M 55.447265625 188.7 L 55.447265625 206.3" stroke-miterlimit="10" stroke-dasharray=""/></g><g><path fill="none" stroke="#000000" paint-order="fill stroke markers" d=" M 46.087265624999986 195.3 L 64.80726562500001 195.3" stroke-miterlimit="10" stroke-dasharray=""/></g><g><path fill="none" stroke="#000000" paint-order="fill stroke markers" d=" M 55.447265625 206.3 L 42.447265625 224" stroke-miterlimit="10" stroke-dasharray=""/></g><g><path fill="none" stroke="#000000" paint-order="fill stroke markers" d=" M 55.447265625 206.3 L 68.447265625 224" stroke-miterlimit="10" stroke-dasharray=""/></g><g><g><path fill="none" stroke="none"/><text fill="#000000" stroke="none" font-family="Arial" font-size="13px" font-style="normal" font-weight="bold" text-decoration="undefined" x="147.947265625" y="402.5" text-anchor="middle" dominant-baseline="central" transform="matrix(1 0 0 1 -92 -164)">Super Admin</text></g></g><g><rect fill="#C0C0C0" stroke="none" x="285" y="181" width="624" height="392" transform="matrix(1 0 0 1 -92 -164)" fill-opacity="0.2"/></g><g><rect fill="#ffffff" stroke="none" x="278" y="174" width="624" height="392" transform="matrix(1 0 0 1 -92 -164)"/></g><g><path fill="none" stroke="#000000" paint-order="fill stroke markers" d=" M 186 10 L 810 10 L 810 402 L 186 402 L 186 10 Z Z" stroke-miterlimit="10" stroke-dasharray=""/></g><g><g><path fill="none" stroke="none"/><text fill="#000000" stroke="none" font-family="Arial" font-size="13px" font-style="normal" font-weight="bold" text-decoration="undefined" x="590.5" y="187.5" text-anchor="middle" dominant-baseline="central" transform="matrix(1 0 0 1 -92 -164)">Sistema Cloud</text></g></g><g><path fill="#C0C0C0" stroke="none" paint-order="stroke fill markers" d=" M 225 207 C 225 177.17662080000002 280.5166848 153 349 153 C 417.4833152 153 473 177.17662080000002 473 207 C 473 236.82337919999998 417.4833152 261 349 261 C 280.5166848 261 225 236.82337919999998 225 207 Z" fill-opacity="0.2"/></g><g><path fill="#ffffff" stroke="none" paint-order="stroke fill markers" d=" M 218 200 C 218 170.17662080000002 273.5166848 146 342 146 C 410.4833152 146 466 170.17662080000002 466 200 C 466 229.82337919999998 410.4833152 254 342 254 C 273.5166848 254 218 229.82337919999998 218 200 Z"/></g><g><path fill="none" stroke="#000000" paint-order="fill stroke markers" d=" M 218 200 C 218 170.17662080000002 273.5166848 146 342 146 C 410.4833152 146 466 170.17662080000002 466 200 C 466 229.82337919999998 410.4833152 254 342 254 C 273.5166848 254 218 229.82337919999998 218 200 Z" stroke-miterlimit="10" stroke-dasharray=""/></g><g><g><path fill="none" stroke="none"/><text fill="#000000" stroke="none" font-family="Arial" font-size="13px" font-style="normal" font-weight="bold" text-decoration="undefined" x="434" y="345.5" text-anchor="middle" dominant-baseline="central" transform="matrix(1 0 0 1 -92 -164)">UC110  - Visualizzazione</text><text fill="#000000" stroke="none" font-family="Arial" font-size="13px" font-style="normal" font-weight="bold" text-decoration="undefined" x="434" y="358.5" text-anchor="middle" dominant-baseline="central" transform="matrix(1 0 0 1 -92 -164)">richiesta di</text><text fill="#000000" stroke="none" font-family="Arial" font-size="13px" font-style="normal" font-weight="bold" text-decoration="undefined" x="434" y="371.5" text-anchor="middle" dominant-baseline="central" transform="matrix(1 0 0 1 -92 -164)">decommissioning</text><text fill="#000000" stroke="none" font-family="Arial" font-size="13px" font-style="normal" font-weight="bold" text-decoration="undefined" x="434" y="384.5" text-anchor="middle" dominant-baseline="central" transform="matrix(1 0 0 1 -92 -164)">Gateway</text></g></g><g><path fill="none" stroke="#000000" paint-order="fill stroke markers" d=" M 467 156 L 537 132" stroke-miterlimit="10" stroke-dasharray="3"/></g><g><path fill="none" stroke="#000000" paint-order="fill stroke markers" d=" M 528.7519079204147 139.27797891221758 L 537 132 L 526.0214099165125 131.31402640083598" stroke-miterlimit="10" stroke-dasharray=""/></g><g><rect fill="#ffffff" stroke="none" x="560" y="287" width="55.65625" height="13" transform="matrix(1 0 0 1 -92 -164)"/></g><g><g><path fill="none" stroke="none"/><text fill="#000000" stroke="none" font-family="Arial" font-size="13px" font-style="normal" font-weight="normal" text-decoration="undefined" x="587.828125" y="293.5" text-anchor="middle" dominant-baseline="central" transform="matrix(1 0 0 1 -92 -164)">«include»</text></g></g><g><path fill="none" stroke="#000000" paint-order="fill stroke markers" d=" M 467 207 L 545 212" stroke-miterlimit="10" stroke-dasharray="3"/></g><g><path fill="none" stroke="#000000" paint-order="fill stroke markers" d=" M 534.5888527557106 215.55077640210214 L 545 212 L 535.1274291112277 207.14898525603496" stroke-miterlimit="10" stroke-dasharray=""/></g><g><rect fill="#ffffff" stroke="none" x="573" y="344" width="55.65625" height="13" transform="matrix(1 0 0 1 -92 -164)"/></g><g><g><path fill="none" stroke="none"/><text fill="#000000" stroke="none" font-family="Arial" font-size="13px" font-style="normal" font-weight="normal" text-decoration="undefined" x="600.828125" y="350.5" text-anchor="middle" dominant-baseline="central" transform="matrix(1 0 0 1 -92 -164)">«include»</text></g></g><g><path fill="none" stroke="#000000" paint-order="fill stroke markers" d=" M 467 255 L 545 289" stroke-miterlimit="10" stroke-dasharray="3"/></g><g><path fill="none" stroke="#000000" paint-order="fill stroke markers" d=" M 534.0018550446737 288.79799123377825 L 545 289 L 537.3659788900707 281.0802953531616" stroke-miterlimit="10" stroke-dasharray=""/></g><g><rect fill="#ffffff" stroke="none" x="569" y="403" width="55.65625" height="13" transform="matrix(1 0 0 1 -92 -164)"/></g><g><g><path fill="none" stroke="none"/><text fill="#000000" stroke="none" font-family="Arial" font-size="13px" font-style="normal" font-weight="normal" text-decoration="undefined" x="596.828125" y="409.5" text-anchor="middle" dominant-baseline="central" transform="matrix(1 0 0 1 -92 -164)">«include»</text></g></g><g><path fill="none" stroke="#000000" paint-order="fill stroke markers" d=" M 102 208 L 217 204" stroke-miterlimit="10" stroke-dasharray=""/></g><g><path fill="#C0C0C0" stroke="none" paint-order="stroke fill markers" d=" M 553 342 C 553 317.147184 599.5623808 297 657 297 C 714.4376192 297 761 317.147184 761 342 C 761 366.85281599999996 714.4376192 387 657 387 C 599.5623808 387 553 366.85281599999996 553 342 Z" fill-opacity="0.2"/></g><g><path fill="#ffffff" stroke="none" paint-order="stroke fill markers" d=" M 546 335 C 546 310.147184 592.5623808 290 650 290 C 707.4376192 290 754 310.147184 754 335 C 754 359.85281599999996 707.4376192 380 650 380 C 592.5623808 380 546 359.85281599999996 546 335 Z"/></g><g><path fill="none" stroke="#000000" paint-order="fill stroke markers" d=" M 546 335 C 546 310.147184 592.5623808 290 650 290 C 707.4376192 290 754 310.147184 754 335 C 754 359.85281599999996 707.4376192 380 650 380 C 592.5623808 380 546 359.85281599999996 546 335 Z" stroke-miterlimit="10" stroke-dasharray=""/></g><g><g><path fill="none" stroke="none"/><text fill="#000000" stroke="none" font-family="Arial" font-size="13px" font-style="normal" font-weight="bold" text-decoration="undefined" x="742" y="480.5" text-anchor="middle" dominant-baseline="central" transform="matrix(1 0 0 1 -92 -164)">UC109.2  -</text><text fill="#000000" stroke="none" font-family="Arial" font-size="13px" font-style="normal" font-weight="bold" text-decoration="undefined" x="742" y="493.5" text-anchor="middle" dominant-baseline="central" transform="matrix(1 0 0 1 -92 -164)">Visualizzazione</text><text fill="#000000" stroke="none" font-family="Arial" font-size="13px" font-style="normal" font-weight="bold" text-decoration="undefined" x="742" y="506.5" text-anchor="middle" dominant-baseline="central" transform="matrix(1 0 0 1 -92 -164)">tenant richiedente</text><text fill="#000000" stroke="none" font-family="Arial" font-size="13px" font-style="normal" font-weight="bold" text-decoration="undefined" x="742" y="519.5" text-anchor="middle" dominant-baseline="central" transform="matrix(1 0 0 1 -92 -164)">della richiesta</text></g></g><g><path fill="#C0C0C0" stroke="none" paint-order="stroke fill markers" d=" M 553 225 C 553 198.4903296 603.1441024 177 665 177 C 726.8558976 177 777 198.4903296 777 225 C 777 251.5096704 726.8558976 273 665 273 C 603.1441024 273 553 251.5096704 553 225 Z" fill-opacity="0.2"/></g><g><path fill="#ffffff" stroke="none" paint-order="stroke fill markers" d=" M 546 218 C 546 191.4903296 596.1441024 170 658 170 C 719.8558976 170 770 191.4903296 770 218 C 770 244.5096704 719.8558976 266 658 266 C 596.1441024 266 546 244.5096704 546 218 Z"/></g><g><path fill="none" stroke="#000000" paint-order="fill stroke markers" d=" M 546 218 C 546 191.4903296 596.1441024 170 658 170 C 719.8558976 170 770 191.4903296 770 218 C 770 244.5096704 719.8558976 266 658 266 C 596.1441024 266 546 244.5096704 546 218 Z" stroke-miterlimit="10" stroke-dasharray=""/></g><g><g><path fill="none" stroke="none"/><text fill="#000000" stroke="none" font-family="Arial" font-size="13px" font-style="normal" font-weight="bold" text-decoration="undefined" x="750" y="370" text-anchor="middle" dominant-baseline="central" transform="matrix(1 0 0 1 -92 -164)">UC109.1  -</text><text fill="#000000" stroke="none" font-family="Arial" font-size="13px" font-style="normal" font-weight="bold" text-decoration="undefined" x="750" y="383" text-anchor="middle" dominant-baseline="central" transform="matrix(1 0 0 1 -92 -164)">Visualizzazione data e</text><text fill="#000000" stroke="none" font-family="Arial" font-size="13px" font-style="normal" font-weight="bold" text-decoration="undefined" x="750" y="396" text-anchor="middle" dominant-baseline="central" transform="matrix(1 0 0 1 -92 -164)">ora richiesta</text></g></g><g><path fill="#C0C0C0" stroke="none" paint-order="stroke fill markers" d=" M 545 95 C 545 69.59489919999999 600.5166848 49 669 49 C 737.4833152 49 793 69.59489919999999 793 95 C 793 120.40510080000001 737.4833152 141 669 141 C 600.5166848 141 545 120.40510080000001 545 95 Z" fill-opacity="0.2"/></g><g><path fill="#ffffff" stroke="none" paint-order="stroke fill markers" d=" M 538 88 C 538 62.594899199999986 593.5166848 42 662 42 C 730.4833152 42 786 62.594899199999986 786 88 C 786 113.40510080000001 730.4833152 134 662 134 C 593.5166848 134 538 113.40510080000001 538 88 Z"/></g><g><path fill="none" stroke="#000000" paint-order="fill stroke markers" d=" M 538 88 C 538 62.594899199999986 593.5166848 42 662 42 C 730.4833152 42 786 62.594899199999986 786 88 C 786 113.40510080000001 730.4833152 134 662 134 C 593.5166848 134 538 113.40510080000001 538 88 Z" stroke-miterlimit="10" stroke-dasharray=""/></g><g><g><path fill="none" stroke="none"/><text fill="#000000" stroke="none" font-family="Arial" font-size="13px" font-style="normal" font-weight="bold" text-decoration="undefined" x="754" y="240" text-anchor="middle" dominant-baseline="central" transform="matrix(1 0 0 1 -92 -164)">UC110.1  - Visualizzazione</text><text fill="#000000" stroke="none" font-family="Arial" font-size="13px" font-style="normal" font-weight="bold" text-decoration="undefined" x="754" y="253" text-anchor="middle" dominant-baseline="central" transform="matrix(1 0 0 1 -92 -164)">gateway su cui effettuare</text><text fill="#000000" stroke="none" font-family="Arial" font-size="13px" font-style="normal" font-weight="bold" text-decoration="undefined" x="754" y="266" text-anchor="middle" dominant-baseline="central" transform="matrix(1 0 0 1 -92 -164)">decommissioning</text></g></g></g></svg>