<svg version="1.1" xmlns="http://www.w3.org/2000/svg" xmlns:xlink="http://www.w3.org/1999/xlink" width="765" height="356"><defs/><g><g><rect fill="#C0C0C0" stroke="none" x="460" y="446" width="568" height="336" transform="matrix(1 0 0 1 -267 -429)" fill-opacity="0.2"/></g><g><rect fill="#ffffff" stroke="none" x="453" y="439" width="568" height="336" transform="matrix(1 0 0 1 -267 -429)"/></g><g><path fill="none" stroke="#000000" paint-order="fill stroke markers" d=" M 186 10 L 754 10 L 754 346 L 186 346 L 186 10 Z Z" stroke-miterlimit="10" stroke-dasharray=""/></g><g><g><path fill="none" stroke="none"/><text fill="#000000" stroke="none" font-family="Arial" font-size="13px" font-style="normal" font-weight="bold" text-decoration="undefined" x="737.5" y="452.5" text-anchor="middle" dominant-baseline="central" transform="matrix(1 0 0 1 -267 -429)">Sistema Cloud</text></g></g><g><path fill="#ffffff" stroke="none" paint-order="stroke fill markers" d=" M 46.607265625000025 59.85000000000002 C 46.607265625000025 54.96227952000004 50.565067993000014 51 55.447265625 51 C 60.329463256999986 51 64.28726562499997 54.96227952000004 64.28726562499997 59.85000000000002 C 64.28726562499997 64.73772048000001 60.329463256999986 68.69999999999999 55.447265625 68.69999999999999 C 50.565067993000014 68.69999999999999 46.607265625000025 64.73772048000001 46.607265625000025 59.85000000000002 Z"/></g><g><path fill="none" stroke="#000000" paint-order="fill stroke markers" d=" M 46.607265625000025 59.85000000000002 C 46.607265625000025 54.96227952000004 50.565067993000014 51 55.447265625 51 C 60.329463256999986 51 64.28726562499997 54.96227952000004 64.28726562499997 59.85000000000002 C 64.28726562499997 64.73772048000001 60.329463256999986 68.69999999999999 55.447265625 68.69999999999999 C 50.565067993000014 68.69999999999999 46.607265625000025 64.73772048000001 46.607265625000025 59.85000000000002 Z" stroke-miterlimit="10" stroke-dasharray=""/></g><g><path fill="none" stroke="#000000" paint-order="fill stroke markers" d=" M 55.447265625 68.69999999999999 L 55.447265625 86.29999999999995" stroke-miterlimit="10" stroke-dasharray=""/></g><g><path fill="none" stroke="#000000" paint-order="fill stroke markers" d=" M 46.087265624999986 75.30000000000001 L 64.80726562500001 75.30000000000001" stroke-miterlimit="10" stroke-dasharray=""/></g><g><path fill="none" stroke="#000000" paint-order="fill stroke markers" d=" M 55.447265625 86.29999999999995 L 42.447265625 104" stroke-miterlimit="10" stroke-dasharray=""/></g><g><path fill="none" stroke="#000000" paint-order="fill stroke markers" d=" M 55.447265625 86.29999999999995 L 68.447265625 104" stroke-miterlimit="10" stroke-dasharray=""/></g><g><g><path fill="none" stroke="none"/><text fill="#000000" stroke="none" font-family="Arial" font-size="13px" font-style="normal" font-weight="bold" text-decoration="undefined" x="322.947265625" y="547.5" text-anchor="middle" dominant-baseline="central" transform="matrix(1 0 0 1 -267 -429)">Super Admin</text></g></g><g><path fill="#C0C0C0" stroke="none" paint-order="stroke fill markers" d=" M 225 99.5 C 225 84.86445279999998 271.5623808 73 329 73 C 386.4376192 73 433 84.86445279999998 433 99.5 C 433 114.13554720000002 386.4376192 126 329 126 C 271.5623808 126 225 114.13554720000002 225 99.5 Z" fill-opacity="0.2"/></g><g><path fill="#ffffff" stroke="none" paint-order="stroke fill markers" d=" M 218 92.5 C 218 77.86445279999998 264.5623808 66 322 66 C 379.4376192 66 426 77.86445279999998 426 92.5 C 426 107.13554720000002 379.4376192 119 322 119 C 264.5623808 119 218 107.13554720000002 218 92.5 Z"/></g><g><path fill="none" stroke="#000000" paint-order="fill stroke markers" d=" M 218 92.5 C 218 77.86445279999998 264.5623808 66 322 66 C 379.4376192 66 426 77.86445279999998 426 92.5 C 426 107.13554720000002 379.4376192 119 322 119 C 264.5623808 119 218 107.13554720000002 218 92.5 Z" stroke-miterlimit="10" stroke-dasharray=""/></g><g><g><path fill="none" stroke="none"/><text fill="#000000" stroke="none" font-family="Arial" font-size="13px" font-style="normal" font-weight="bold" text-decoration="undefined" x="589" y="516" text-anchor="middle" dominant-baseline="central" transform="matrix(1 0 0 1 -267 -429)">UC117 - Creazione</text><text fill="#000000" stroke="none" font-family="Arial" font-size="13px" font-style="normal" font-weight="bold" text-decoration="undefined" x="589" y="529" text-anchor="middle" dominant-baseline="central" transform="matrix(1 0 0 1 -267 -429)">gateway simulato</text></g></g><g><path fill="none" stroke="#000000" paint-order="fill stroke markers" d=" M 102 90 L 217 91" stroke-miterlimit="10" stroke-dasharray=""/></g><g><path fill="#C0C0C0" stroke="none" paint-order="stroke fill markers" d=" M 537 109 C 537 89.11774720000005 578.1897984 73 629 73 C 679.8102016 73 721 89.11774720000005 721 109 C 721 128.88225279999995 679.8102016 145 629 145 C 578.1897984 145 537 128.88225279999995 537 109 Z" fill-opacity="0.2"/></g><g><path fill="#ffffff" stroke="none" paint-order="stroke fill markers" d=" M 530 102 C 530 82.1177472 571.1897984 66 622 66 C 672.8102016 66 714 82.1177472 714 102 C 714 121.88225279999995 672.8102016 138 622 138 C 571.1897984 138 530 121.88225279999995 530 102 Z"/></g><g><path fill="none" stroke="#000000" paint-order="fill stroke markers" d=" M 530 102 C 530 82.1177472 571.1897984 66 622 66 C 672.8102016 66 714 82.1177472 714 102 C 714 121.88225279999995 672.8102016 138 622 138 C 571.1897984 138 530 121.88225279999995 530 102 Z" stroke-miterlimit="10" stroke-dasharray=""/></g><g><g><path fill="none" stroke="none"/><text fill="#000000" stroke="none" font-family="Arial" font-size="13px" font-style="normal" font-weight="bold" text-decoration="undefined" x="889" y="519" text-anchor="middle" dominant-baseline="central" transform="matrix(1 0 0 1 -267 -429)">UC117.1 -</text><text fill="#000000" stroke="none" font-family="Arial" font-size="13px" font-style="normal" font-weight="bold" text-decoration="undefined" x="889" y="532" text-anchor="middle" dominant-baseline="central" transform="matrix(1 0 0 1 -267 -429)">Inserimento nome</text><text fill="#000000" stroke="none" font-family="Arial" font-size="13px" font-style="normal" font-weight="bold" text-decoration="undefined" x="889" y="545" text-anchor="middle" dominant-baseline="central" transform="matrix(1 0 0 1 -267 -429)">gateway simulato</text></g></g><g><path fill="none" stroke="#000000" paint-order="fill stroke markers" d=" M 427 96 L 529 99" stroke-miterlimit="10" stroke-dasharray="3"/></g><g><path fill="none" stroke="#000000" paint-order="fill stroke markers" d=" M 518.7179620834851 102.90892520820614 L 529 99 L 518.9654737429415 94.49352878668878" stroke-miterlimit="10" stroke-dasharray=""/></g><g><rect fill="#ffffff" stroke="none" x="719" y="490" width="55.65625" height="13" transform="matrix(1 0 0 1 -267 -429)"/></g><g><g><path fill="none" stroke="none"/><text fill="#000000" stroke="none" font-family="Arial" font-size="13px" font-style="normal" font-weight="normal" text-decoration="undefined" x="746.828125" y="496.5" text-anchor="middle" dominant-baseline="central" transform="matrix(1 0 0 1 -267 -429)">«include»</text></g></g><g><path fill="#C0C0C0" stroke="none" paint-order="stroke fill markers" d=" M 473 237 C 473 217.11774720000005 523.1441024 201 585 201 C 646.8558976 201 697 217.11774720000005 697 237 C 697 256.88225279999995 646.8558976 273 585 273 C 523.1441024 273 473 256.88225279999995 473 237 Z" fill-opacity="0.2"/></g><g><path fill="#ffffff" stroke="none" paint-order="stroke fill markers" d=" M 466 230 C 466 210.11774720000005 516.1441024 194 578 194 C 639.8558976 194 690 210.11774720000005 690 230 C 690 249.88225279999995 639.8558976 266 578 266 C 516.1441024 266 466 249.88225279999995 466 230 Z"/></g><g><path fill="none" stroke="#000000" paint-order="fill stroke markers" d=" M 466 230 C 466 210.11774720000005 516.1441024 194 578 194 C 639.8558976 194 690 210.11774720000005 690 230 C 690 249.88225279999995 639.8558976 266 578 266 C 516.1441024 266 466 249.88225279999995 466 230 Z" stroke-miterlimit="10" stroke-dasharray=""/></g><g><g><path fill="none" stroke="none"/><text fill="#000000" stroke="none" font-family="Arial" font-size="13px" font-style="normal" font-weight="bold" text-decoration="undefined" x="845" y="647" text-anchor="middle" dominant-baseline="central" transform="matrix(1 0 0 1 -267 -429)">UC117.2 - Inserimento</text><text fill="#000000" stroke="none" font-family="Arial" font-size="13px" font-style="normal" font-weight="bold" text-decoration="undefined" x="845" y="660" text-anchor="middle" dominant-baseline="central" transform="matrix(1 0 0 1 -267 -429)">timeout inattività</text><text fill="#000000" stroke="none" font-family="Arial" font-size="13px" font-style="normal" font-weight="bold" text-decoration="undefined" x="845" y="673" text-anchor="middle" dominant-baseline="central" transform="matrix(1 0 0 1 -267 -429)">gateway simulato</text></g></g><g><path fill="none" stroke="#000000" paint-order="fill stroke markers" d=" M 374 120 L 509 193" stroke-miterlimit="10" stroke-dasharray="3"/></g><g><path fill="none" stroke="#000000" paint-order="fill stroke markers" d=" M 498.05830642703313 191.8689200933204 L 509 193 L 502.0628485489668 184.4632600048128" stroke-miterlimit="10" stroke-dasharray=""/></g><g><rect fill="#ffffff" stroke="none" x="715" y="569" width="55.65625" height="13" transform="matrix(1 0 0 1 -267 -429)"/></g><g><g><path fill="none" stroke="none"/><text fill="#000000" stroke="none" font-family="Arial" font-size="13px" font-style="normal" font-weight="normal" text-decoration="undefined" x="742.828125" y="575.5" text-anchor="middle" dominant-baseline="central" transform="matrix(1 0 0 1 -267 -429)">«include»</text></g></g><g><path fill="#C0C0C0" stroke="none" paint-order="stroke fill markers" d=" M 249 278 C 249 253.14718400000004 293.77152 233 349 233 C 404.22848 233 449 253.14718400000004 449 278 C 449 302.85281599999996 404.22848 323 349 323 C 293.77152 323 249 302.85281599999996 249 278 Z" fill-opacity="0.2"/></g><g><path fill="#ffffff" stroke="none" paint-order="stroke fill markers" d=" M 242 271 C 242 246.14718400000004 286.77152 226 342 226 C 397.22848 226 442 246.14718400000004 442 271 C 442 295.85281599999996 397.22848 316 342 316 C 286.77152 316 242 295.85281599999996 242 271 Z"/></g><g><path fill="none" stroke="#000000" paint-order="fill stroke markers" d=" M 242 271 C 242 246.14718400000004 286.77152 226 342 226 C 397.22848 226 442 246.14718400000004 442 271 C 442 295.85281599999996 397.22848 316 342 316 C 286.77152 316 242 295.85281599999996 242 271 Z" stroke-miterlimit="10" stroke-dasharray=""/></g><g><g><path fill="none" stroke="none"/><text fill="#000000" stroke="none" font-family="Arial" font-size="13px" font-style="normal" font-weight="bold" text-decoration="undefined" x="609" y="681.5" text-anchor="middle" dominant-baseline="central" transform="matrix(1 0 0 1 -267 -429)">UC117.3 -</text><text fill="#000000" stroke="none" font-family="Arial" font-size="13px" font-style="normal" font-weight="bold" text-decoration="undefined" x="609" y="694.5" text-anchor="middle" dominant-baseline="central" transform="matrix(1 0 0 1 -267 -429)">Inserimento</text><text fill="#000000" stroke="none" font-family="Arial" font-size="13px" font-style="normal" font-weight="bold" text-decoration="undefined" x="609" y="707.5" text-anchor="middle" dominant-baseline="central" transform="matrix(1 0 0 1 -267 -429)">dimensione buffer</text><text fill="#000000" stroke="none" font-family="Arial" font-size="13px" font-style="normal" font-weight="bold" text-decoration="undefined" x="609" y="720.5" text-anchor="middle" dominant-baseline="central" transform="matrix(1 0 0 1 -267 -429)">gateway simulato</text></g></g><g><path fill="none" stroke="#000000" paint-order="fill stroke markers" d=" M 325 120 L 337 225" stroke-miterlimit="10" stroke-dasharray="3"/></g><g><path fill="none" stroke="#000000" paint-order="fill stroke markers" d=" M 331.66376948611276 215.38102687899277 L 337 225 L 340.028356339571 214.42507409574046" stroke-miterlimit="10" stroke-dasharray=""/></g><g><rect fill="#ffffff" stroke="none" x="600" y="591" width="55.65625" height="13" transform="matrix(1 0 0 1 -267 -429)"/></g><g><g><path fill="none" stroke="none"/><text fill="#000000" stroke="none" font-family="Arial" font-size="13px" font-style="normal" font-weight="normal" text-decoration="undefined" x="627.828125" y="597.5" text-anchor="middle" dominant-baseline="central" transform="matrix(1 0 0 1 -267 -429)">«include»</text></g></g></g></svg>