<svg version="1.1" xmlns="http://www.w3.org/2000/svg" xmlns:xlink="http://www.w3.org/1999/xlink" width="881.4072265625" height="516"><defs/><g><g><rect fill="#C0C0C0" stroke="none" x="271" y="170" width="608" height="496" transform="matrix(1 0 0 1 -118 -153)" fill-opacity="0.2"/></g><g><rect fill="#ffffff" stroke="none" x="264" y="163" width="608" height="496" transform="matrix(1 0 0 1 -118 -153)"/></g><g><path fill="none" stroke="#000000" paint-order="fill stroke markers" d=" M 146 10 L 754 10 L 754 506 L 146 506 L 146 10 Z Z" stroke-miterlimit="10" stroke-dasharray=""/></g><g><g><path fill="none" stroke="none"/><text fill="#000000" stroke="none" font-family="Arial" font-size="13px" font-style="normal" font-weight="bold" text-decoration="undefined" x="568.5" y="176.5" text-anchor="middle" dominant-baseline="central" transform="matrix(1 0 0 1 -118 -153)">Sistema Cloud</text></g></g><g><path fill="#ffffff" stroke="none" paint-order="stroke fill markers" d=" M 819.36361328125 195.85000000000002 C 819.36361328125 190.96227952000004 823.32141564925 187 828.20361328125 187 C 833.08581091325 187 837.04361328125 190.96227952000004 837.04361328125 195.85000000000002 C 837.04361328125 200.73772048 833.08581091325 204.7 828.20361328125 204.7 C 823.32141564925 204.7 819.36361328125 200.73772048 819.36361328125 195.85000000000002 Z"/></g><g><path fill="none" stroke="#000000" paint-order="fill stroke markers" d=" M 819.36361328125 195.85000000000002 C 819.36361328125 190.96227952000004 823.32141564925 187 828.20361328125 187 C 833.08581091325 187 837.04361328125 190.96227952000004 837.04361328125 195.85000000000002 C 837.04361328125 200.73772048 833.08581091325 204.7 828.20361328125 204.7 C 823.32141564925 204.7 819.36361328125 200.73772048 819.36361328125 195.85000000000002 Z" stroke-miterlimit="10" stroke-dasharray=""/></g><g><path fill="none" stroke="#000000" paint-order="fill stroke markers" d=" M 828.20361328125 204.7 L 828.20361328125 222.3" stroke-miterlimit="10" stroke-dasharray=""/></g><g><path fill="none" stroke="#000000" paint-order="fill stroke markers" d=" M 818.84361328125 211.3 L 837.56361328125 211.3" stroke-miterlimit="10" stroke-dasharray=""/></g><g><path fill="none" stroke="#000000" paint-order="fill stroke markers" d=" M 828.20361328125 222.3 L 815.20361328125 240" stroke-miterlimit="10" stroke-dasharray=""/></g><g><path fill="none" stroke="#000000" paint-order="fill stroke markers" d=" M 828.20361328125 222.3 L 841.20361328125 240" stroke-miterlimit="10" stroke-dasharray=""/></g><g><g><path fill="none" stroke="none"/><text fill="#000000" stroke="none" font-family="Arial" font-size="13px" font-style="normal" font-weight="bold" text-decoration="undefined" x="946.70361328125" y="407.5" text-anchor="middle" dominant-baseline="central" transform="matrix(1 0 0 1 -118 -153)">Email Client</text></g></g><g><path fill="none" stroke="#000000" paint-order="fill stroke markers" d=" M 491 202 L 785 223" stroke-miterlimit="10" stroke-dasharray=""/></g><g><path fill="none" stroke="#000000" paint-order="fill stroke markers" d=" M 466 104 L 408 161" stroke-miterlimit="10" stroke-dasharray="3"/></g><g><path fill="none" stroke="#000000" paint-order="fill stroke markers" d=" M 412.2977263598774 150.8743124610911 L 408 161 L 418.1988937756921 156.87900912981485" stroke-miterlimit="10" stroke-dasharray=""/></g><g><rect fill="#ffffff" stroke="none" x="562" y="274" width="53.49169921875" height="13" transform="matrix(1 0 0 1 -118 -153)"/></g><g><g><path fill="none" stroke="none"/><text fill="#000000" stroke="none" font-family="Arial" font-size="13px" font-style="normal" font-weight="normal" text-decoration="undefined" x="588.745849609375" y="280.5" text-anchor="middle" dominant-baseline="central" transform="matrix(1 0 0 1 -118 -153)">«extend»</text></g></g><g><path fill="none" stroke="#000000" paint-order="fill stroke markers" d=" M 447 227 L 566 281" stroke-miterlimit="10" stroke-dasharray="3"/></g><g><path fill="none" stroke="#000000" paint-order="fill stroke markers" d=" M 555.0060965367709 280.6338215719105 L 566 281 L 558.4850635590667 272.9672090598141" stroke-miterlimit="10" stroke-dasharray=""/></g><g><rect fill="#ffffff" stroke="none" x="611" y="392" width="55.65625" height="13" transform="matrix(1 0 0 1 -118 -153)"/></g><g><g><path fill="none" stroke="none"/><text fill="#000000" stroke="none" font-family="Arial" font-size="13px" font-style="normal" font-weight="normal" text-decoration="undefined" x="638.828125" y="398.5" text-anchor="middle" dominant-baseline="central" transform="matrix(1 0 0 1 -118 -153)">«include»</text></g></g><g><path fill="none" stroke="#000000" paint-order="fill stroke markers" d=" M 401 227 L 531 385" stroke-miterlimit="10" stroke-dasharray="3"/></g><g><path fill="none" stroke="#000000" paint-order="fill stroke markers" d=" M 521.2923550174868 379.82683569819346 L 531 385 L 527.7936379615129 374.47767884551376" stroke-miterlimit="10" stroke-dasharray=""/></g><g><rect fill="#ffffff" stroke="none" x="576" y="435" width="55.65625" height="13" transform="matrix(1 0 0 1 -118 -153)"/></g><g><g><path fill="none" stroke="none"/><text fill="#000000" stroke="none" font-family="Arial" font-size="13px" font-style="normal" font-weight="normal" text-decoration="undefined" x="603.828125" y="441.5" text-anchor="middle" dominant-baseline="central" transform="matrix(1 0 0 1 -118 -153)">«include»</text></g></g><g><path fill="none" stroke="#000000" paint-order="fill stroke markers" d=" M 360 227 L 325 313" stroke-miterlimit="10" stroke-dasharray="3"/></g><g><path fill="none" stroke="#000000" paint-order="fill stroke markers" d=" M 324.9318798929756 302.00021092697597 L 325 313 L 332.72985725554486 305.1738063652309" stroke-miterlimit="10" stroke-dasharray=""/></g><g><rect fill="#ffffff" stroke="none" x="460" y="428" width="55.65625" height="13" transform="matrix(1 0 0 1 -118 -153)"/></g><g><g><path fill="none" stroke="none"/><text fill="#000000" stroke="none" font-family="Arial" font-size="13px" font-style="normal" font-weight="normal" text-decoration="undefined" x="487.828125" y="434.5" text-anchor="middle" dominant-baseline="central" transform="matrix(1 0 0 1 -118 -153)">«include»</text></g></g><g><path fill="#C0C0C0" stroke="none" paint-order="stroke fill markers" d=" M 265 201 C 265 183.32688639999998 316.93496319999997 169 381 169 C 445.06503680000003 169 497 183.32688639999998 497 201 C 497 218.67311360000002 445.06503680000003 233 381 233 C 316.93496319999997 233 265 218.67311360000002 265 201 Z" fill-opacity="0.2"/></g><g><path fill="#ffffff" stroke="none" paint-order="stroke fill markers" d=" M 258 194 C 258 176.32688639999998 309.93496319999997 162 374 162 C 438.06503680000003 162 490 176.32688639999998 490 194 C 490 211.67311360000002 438.06503680000003 226 374 226 C 309.93496319999997 226 258 211.67311360000002 258 194 Z"/></g><g><path fill="none" stroke="#000000" paint-order="fill stroke markers" d=" M 258 194 C 258 176.32688639999998 309.93496319999997 162 374 162 C 438.06503680000003 162 490 176.32688639999998 490 194 C 490 211.67311360000002 438.06503680000003 226 374 226 C 309.93496319999997 226 258 211.67311360000002 258 194 Z" stroke-miterlimit="10" stroke-dasharray=""/></g><g><g><path fill="none" stroke="none"/><text fill="#000000" stroke="none" font-family="Arial" font-size="13px" font-style="normal" font-weight="bold" text-decoration="undefined" x="492" y="341.5" text-anchor="middle" dominant-baseline="central" transform="matrix(1 0 0 1 -118 -153)">UC113 - Creazione</text><text fill="#000000" stroke="none" font-family="Arial" font-size="13px" font-style="normal" font-weight="bold" text-decoration="undefined" x="492" y="354.5" text-anchor="middle" dominant-baseline="central" transform="matrix(1 0 0 1 -118 -153)">utente Tenant Admin</text></g></g><g><path fill="#C0C0C0" stroke="none" paint-order="stroke fill markers" d=" M 425 83.5 C 425 68.86445280000001 459.0263552 57 501 57 C 542.9736448 57 577 68.86445280000001 577 83.5 C 577 98.13554719999999 542.9736448 110 501 110 C 459.0263552 110 425 98.13554719999999 425 83.5 Z" fill-opacity="0.2"/></g><g><path fill="#ffffff" stroke="none" paint-order="stroke fill markers" d=" M 418 76.5 C 418 61.86445280000001 452.0263552 50 494 50 C 535.9736448 50 570 61.86445280000001 570 76.5 C 570 91.13554719999999 535.9736448 103 494 103 C 452.0263552 103 418 91.13554719999999 418 76.5 Z"/></g><g><path fill="none" stroke="#000000" paint-order="fill stroke markers" d=" M 418 76.5 C 418 61.86445280000001 452.0263552 50 494 50 C 535.9736448 50 570 61.86445280000001 570 76.5 C 570 91.13554719999999 535.9736448 103 494 103 C 452.0263552 103 418 91.13554719999999 418 76.5 Z" stroke-miterlimit="10" stroke-dasharray=""/></g><g><g><path fill="none" stroke="none"/><text fill="#000000" stroke="none" font-family="Arial" font-size="13px" font-style="normal" font-weight="bold" text-decoration="undefined" x="612" y="224" text-anchor="middle" dominant-baseline="central" transform="matrix(1 0 0 1 -118 -153)">UC35 - Email</text><text fill="#000000" stroke="none" font-family="Arial" font-size="13px" font-style="normal" font-weight="bold" text-decoration="undefined" x="612" y="237" text-anchor="middle" dominant-baseline="central" transform="matrix(1 0 0 1 -118 -153)">già utilizzata</text></g></g><g><path fill="#C0C0C0" stroke="none" paint-order="stroke fill markers" d=" M 545 315.5 C 545 300.8644528 584.3989376 289 633 289 C 681.6010624 289 721 300.8644528 721 315.5 C 721 330.1355472 681.6010624 342 633 342 C 584.3989376 342 545 330.1355472 545 315.5 Z" fill-opacity="0.2"/></g><g><path fill="#ffffff" stroke="none" paint-order="stroke fill markers" d=" M 538 308.5 C 538 293.8644528 577.3989376 282 626 282 C 674.6010624 282 714 293.8644528 714 308.5 C 714 323.1355472 674.6010624 335 626 335 C 577.3989376 335 538 323.1355472 538 308.5 Z"/></g><g><path fill="none" stroke="#000000" paint-order="fill stroke markers" d=" M 538 308.5 C 538 293.8644528 577.3989376 282 626 282 C 674.6010624 282 714 293.8644528 714 308.5 C 714 323.1355472 674.6010624 335 626 335 C 577.3989376 335 538 323.1355472 538 308.5 Z" stroke-miterlimit="10" stroke-dasharray=""/></g><g><g><path fill="none" stroke="none"/><text fill="#000000" stroke="none" font-family="Arial" font-size="13px" font-style="normal" font-weight="bold" text-decoration="undefined" x="744" y="456" text-anchor="middle" dominant-baseline="central" transform="matrix(1 0 0 1 -118 -153)">UC113.1 -</text><text fill="#000000" stroke="none" font-family="Arial" font-size="13px" font-style="normal" font-weight="bold" text-decoration="undefined" x="744" y="469" text-anchor="middle" dominant-baseline="central" transform="matrix(1 0 0 1 -118 -153)">Selezione tenant</text></g></g><g><path fill="#C0C0C0" stroke="none" paint-order="stroke fill markers" d=" M 457 429 C 457 409.11774720000005 507.14410239999995 393 569 393 C 630.8558976 393 681 409.11774720000005 681 429 C 681 448.88225279999995 630.8558976 465 569 465 C 507.14410239999995 465 457 448.88225279999995 457 429 Z" fill-opacity="0.2"/></g><g><path fill="#ffffff" stroke="none" paint-order="stroke fill markers" d=" M 450 422 C 450 402.11774720000005 500.14410239999995 386 562 386 C 623.8558976 386 674 402.11774720000005 674 422 C 674 441.88225279999995 623.8558976 458 562 458 C 500.14410239999995 458 450 441.88225279999995 450 422 Z"/></g><g><path fill="none" stroke="#000000" paint-order="fill stroke markers" d=" M 450 422 C 450 402.11774720000005 500.14410239999995 386 562 386 C 623.8558976 386 674 402.11774720000005 674 422 C 674 441.88225279999995 623.8558976 458 562 458 C 500.14410239999995 458 450 441.88225279999995 450 422 Z" stroke-miterlimit="10" stroke-dasharray=""/></g><g><g><path fill="none" stroke="none"/><text fill="#000000" stroke="none" font-family="Arial" font-size="13px" font-style="normal" font-weight="bold" text-decoration="undefined" x="680" y="563" text-anchor="middle" dominant-baseline="central" transform="matrix(1 0 0 1 -118 -153)">UC113.2 - Inserimento</text><text fill="#000000" stroke="none" font-family="Arial" font-size="13px" font-style="normal" font-weight="bold" text-decoration="undefined" x="680" y="576" text-anchor="middle" dominant-baseline="central" transform="matrix(1 0 0 1 -118 -153)">email nuovo Tenant</text><text fill="#000000" stroke="none" font-family="Arial" font-size="13px" font-style="normal" font-weight="bold" text-decoration="undefined" x="680" y="589" text-anchor="middle" dominant-baseline="central" transform="matrix(1 0 0 1 -118 -153)">Admin</text></g></g><g><path fill="#C0C0C0" stroke="none" paint-order="stroke fill markers" d=" M 209 366 C 209 341.147184 255.56238080000003 321 313 321 C 370.4376192 321 417 341.147184 417 366 C 417 390.85281599999996 370.4376192 411 313 411 C 255.56238080000003 411 209 390.85281599999996 209 366 Z" fill-opacity="0.2"/></g><g><path fill="#ffffff" stroke="none" paint-order="stroke fill markers" d=" M 202 359 C 202 334.147184 248.56238080000003 314 306 314 C 363.4376192 314 410 334.147184 410 359 C 410 383.85281599999996 363.4376192 404 306 404 C 248.56238080000003 404 202 383.85281599999996 202 359 Z"/></g><g><path fill="none" stroke="#000000" paint-order="fill stroke markers" d=" M 202 359 C 202 334.147184 248.56238080000003 314 306 314 C 363.4376192 314 410 334.147184 410 359 C 410 383.85281599999996 363.4376192 404 306 404 C 248.56238080000003 404 202 383.85281599999996 202 359 Z" stroke-miterlimit="10" stroke-dasharray=""/></g><g><g><path fill="none" stroke="none"/><text fill="#000000" stroke="none" font-family="Arial" font-size="13px" font-style="normal" font-weight="bold" text-decoration="undefined" x="424" y="493.5" text-anchor="middle" dominant-baseline="central" transform="matrix(1 0 0 1 -118 -153)">UC113.3 - Invio email</text><text fill="#000000" stroke="none" font-family="Arial" font-size="13px" font-style="normal" font-weight="bold" text-decoration="undefined" x="424" y="506.5" text-anchor="middle" dominant-baseline="central" transform="matrix(1 0 0 1 -118 -153)">impostazione</text><text fill="#000000" stroke="none" font-family="Arial" font-size="13px" font-style="normal" font-weight="bold" text-decoration="undefined" x="424" y="519.5" text-anchor="middle" dominant-baseline="central" transform="matrix(1 0 0 1 -118 -153)">password nuovo</text><text fill="#000000" stroke="none" font-family="Arial" font-size="13px" font-style="normal" font-weight="bold" text-decoration="undefined" x="424" y="532.5" text-anchor="middle" dominant-baseline="central" transform="matrix(1 0 0 1 -118 -153)">Tenant-admin</text></g></g><g><path fill="#ffffff" stroke="none" paint-order="stroke fill markers" d=" M 46.607265625 195.85000000000002 C 46.607265625 190.96227952000004 50.565067992999985 187 55.447265625 187 C 60.329463257000015 187 64.287265625 190.96227952000004 64.287265625 195.85000000000002 C 64.287265625 200.73772048 60.329463257000015 204.7 55.447265625 204.7 C 50.565067992999985 204.7 46.607265625 200.73772048 46.607265625 195.85000000000002 Z"/></g><g><path fill="none" stroke="#000000" paint-order="fill stroke markers" d=" M 46.607265625 195.85000000000002 C 46.607265625 190.96227952000004 50.565067992999985 187 55.447265625 187 C 60.329463257000015 187 64.287265625 190.96227952000004 64.287265625 195.85000000000002 C 64.287265625 200.73772048 60.329463257000015 204.7 55.447265625 204.7 C 50.565067992999985 204.7 46.607265625 200.73772048 46.607265625 195.85000000000002 Z" stroke-miterlimit="10" stroke-dasharray=""/></g><g><path fill="none" stroke="#000000" paint-order="fill stroke markers" d=" M 55.447265625 204.7 L 55.447265625 222.3" stroke-miterlimit="10" stroke-dasharray=""/></g><g><path fill="none" stroke="#000000" paint-order="fill stroke markers" d=" M 46.087265624999986 211.3 L 64.80726562500001 211.3" stroke-miterlimit="10" stroke-dasharray=""/></g><g><path fill="none" stroke="#000000" paint-order="fill stroke markers" d=" M 55.447265625 222.3 L 42.447265625 240" stroke-miterlimit="10" stroke-dasharray=""/></g><g><path fill="none" stroke="#000000" paint-order="fill stroke markers" d=" M 55.447265625 222.3 L 68.447265625 240" stroke-miterlimit="10" stroke-dasharray=""/></g><g><g><path fill="none" stroke="none"/><text fill="#000000" stroke="none" font-family="Arial" font-size="13px" font-style="normal" font-weight="bold" text-decoration="undefined" x="173.947265625" y="407.5" text-anchor="middle" dominant-baseline="central" transform="matrix(1 0 0 1 -118 -153)">Super Admin</text></g></g><g><path fill="none" stroke="#000000" paint-order="fill stroke markers" d=" M 102 221 L 257 206" stroke-miterlimit="10" stroke-dasharray=""/></g></g></svg>