<svg version="1.1" xmlns="http://www.w3.org/2000/svg" xmlns:xlink="http://www.w3.org/1999/xlink" width="789" height="412"><defs/><g><g><rect fill="#C0C0C0" stroke="none" x="357" y="222" width="592" height="392" transform="matrix(1 0 0 1 -164 -205)" fill-opacity="0.2"/></g><g><rect fill="#ffffff" stroke="none" x="350" y="215" width="592" height="392" transform="matrix(1 0 0 1 -164 -205)"/></g><g><path fill="none" stroke="#000000" paint-order="fill stroke markers" d=" M 186 10 L 778 10 L 778 402 L 186 402 L 186 10 Z Z" stroke-miterlimit="10" stroke-dasharray=""/></g><g><g><path fill="none" stroke="none"/><text fill="#000000" stroke="none" font-family="Arial" font-size="13px" font-style="normal" font-weight="bold" text-decoration="undefined" x="646.5" y="228.5" text-anchor="middle" dominant-baseline="central" transform="matrix(1 0 0 1 -164 -205)">Sistema Cloud</text></g></g><g><path fill="#ffffff" stroke="none" paint-order="stroke fill markers" d=" M 46.607265625 99.85000000000002 C 46.607265625 94.96227952000004 50.565067992999985 91 55.447265625 91 C 60.329463257000015 91 64.287265625 94.96227952000004 64.287265625 99.85000000000002 C 64.287265625 104.73772048000001 60.329463257000015 108.69999999999999 55.447265625 108.69999999999999 C 50.565067992999985 108.69999999999999 46.607265625 104.73772048000001 46.607265625 99.85000000000002 Z"/></g><g><path fill="none" stroke="#000000" paint-order="fill stroke markers" d=" M 46.607265625 99.85000000000002 C 46.607265625 94.96227952000004 50.565067992999985 91 55.447265625 91 C 60.329463257000015 91 64.287265625 94.96227952000004 64.287265625 99.85000000000002 C 64.287265625 104.73772048000001 60.329463257000015 108.69999999999999 55.447265625 108.69999999999999 C 50.565067992999985 108.69999999999999 46.607265625 104.73772048000001 46.607265625 99.85000000000002 Z" stroke-miterlimit="10" stroke-dasharray=""/></g><g><path fill="none" stroke="#000000" paint-order="fill stroke markers" d=" M 55.447265625 108.69999999999999 L 55.447265625 126.30000000000001" stroke-miterlimit="10" stroke-dasharray=""/></g><g><path fill="none" stroke="#000000" paint-order="fill stroke markers" d=" M 46.087265624999986 115.30000000000001 L 64.80726562500001 115.30000000000001" stroke-miterlimit="10" stroke-dasharray=""/></g><g><path fill="none" stroke="#000000" paint-order="fill stroke markers" d=" M 55.447265625 126.30000000000001 L 42.447265625 144" stroke-miterlimit="10" stroke-dasharray=""/></g><g><path fill="none" stroke="#000000" paint-order="fill stroke markers" d=" M 55.447265625 126.30000000000001 L 68.447265625 144" stroke-miterlimit="10" stroke-dasharray=""/></g><g><g><path fill="none" stroke="none"/><text fill="#000000" stroke="none" font-family="Arial" font-size="13px" font-style="normal" font-weight="bold" text-decoration="undefined" x="219.947265625" y="363.5" text-anchor="middle" dominant-baseline="central" transform="matrix(1 0 0 1 -164 -205)">Super Admin</text></g></g><g><path fill="#C0C0C0" stroke="none" paint-order="stroke fill markers" d=" M 225 139.5 C 225 124.86445279999998 271.5623808 113 329 113 C 386.4376192 113 433 124.86445279999998 433 139.5 C 433 154.13554720000002 386.4376192 166 329 166 C 271.5623808 166 225 154.13554720000002 225 139.5 Z" fill-opacity="0.2"/></g><g><path fill="#ffffff" stroke="none" paint-order="stroke fill markers" d=" M 218 132.5 C 218 117.86445279999998 264.5623808 106 322 106 C 379.4376192 106 426 117.86445279999998 426 132.5 C 426 147.13554720000002 379.4376192 159 322 159 C 264.5623808 159 218 147.13554720000002 218 132.5 Z"/></g><g><path fill="none" stroke="#000000" paint-order="fill stroke markers" d=" M 218 132.5 C 218 117.86445279999998 264.5623808 106 322 106 C 379.4376192 106 426 117.86445279999998 426 132.5 C 426 147.13554720000002 379.4376192 159 322 159 C 264.5623808 159 218 147.13554720000002 218 132.5 Z" stroke-miterlimit="10" stroke-dasharray=""/></g><g><g><path fill="none" stroke="none"/><text fill="#000000" stroke="none" font-family="Arial" font-size="13px" font-style="normal" font-weight="bold" text-decoration="undefined" x="486" y="332" text-anchor="middle" dominant-baseline="central" transform="matrix(1 0 0 1 -164 -205)">UC117 - Creazione</text><text fill="#000000" stroke="none" font-family="Arial" font-size="13px" font-style="normal" font-weight="bold" text-decoration="undefined" x="486" y="345" text-anchor="middle" dominant-baseline="central" transform="matrix(1 0 0 1 -164 -205)">gateway simulato</text></g></g><g><path fill="none" stroke="#000000" paint-order="fill stroke markers" d=" M 102 130 L 217 131" stroke-miterlimit="10" stroke-dasharray=""/></g><g><path fill="#C0C0C0" stroke="none" paint-order="stroke fill markers" d=" M 537 149 C 537 129.1177472 578.1897984 113 629 113 C 679.8102016 113 721 129.1177472 721 149 C 721 168.8822528 679.8102016 185 629 185 C 578.1897984 185 537 168.8822528 537 149 Z" fill-opacity="0.2"/></g><g><path fill="#ffffff" stroke="none" paint-order="stroke fill markers" d=" M 530 142 C 530 122.1177472 571.1897984 106 622 106 C 672.8102016 106 714 122.1177472 714 142 C 714 161.8822528 672.8102016 178 622 178 C 571.1897984 178 530 161.8822528 530 142 Z"/></g><g><path fill="none" stroke="#000000" paint-order="fill stroke markers" d=" M 530 142 C 530 122.1177472 571.1897984 106 622 106 C 672.8102016 106 714 122.1177472 714 142 C 714 161.8822528 672.8102016 178 622 178 C 571.1897984 178 530 161.8822528 530 142 Z" stroke-miterlimit="10" stroke-dasharray=""/></g><g><g><path fill="none" stroke="none"/><text fill="#000000" stroke="none" font-family="Arial" font-size="13px" font-style="normal" font-weight="bold" text-decoration="undefined" x="786" y="335" text-anchor="middle" dominant-baseline="central" transform="matrix(1 0 0 1 -164 -205)">UC117.1 -</text><text fill="#000000" stroke="none" font-family="Arial" font-size="13px" font-style="normal" font-weight="bold" text-decoration="undefined" x="786" y="348" text-anchor="middle" dominant-baseline="central" transform="matrix(1 0 0 1 -164 -205)">Inserimento nome</text><text fill="#000000" stroke="none" font-family="Arial" font-size="13px" font-style="normal" font-weight="bold" text-decoration="undefined" x="786" y="361" text-anchor="middle" dominant-baseline="central" transform="matrix(1 0 0 1 -164 -205)">gateway simulato</text></g></g><g><path fill="none" stroke="#000000" paint-order="fill stroke markers" d=" M 427 136 L 529 139" stroke-miterlimit="10" stroke-dasharray="3"/></g><g><path fill="none" stroke="#000000" paint-order="fill stroke markers" d=" M 518.7179620834851 142.9089252082062 L 529 139 L 518.9654737429415 134.49352878668873" stroke-miterlimit="10" stroke-dasharray=""/></g><g><rect fill="#ffffff" stroke="none" x="616" y="306" width="55.65625" height="13" transform="matrix(1 0 0 1 -164 -205)"/></g><g><g><path fill="none" stroke="none"/><text fill="#000000" stroke="none" font-family="Arial" font-size="13px" font-style="normal" font-weight="normal" text-decoration="undefined" x="643.828125" y="312.5" text-anchor="middle" dominant-baseline="central" transform="matrix(1 0 0 1 -164 -205)">«include»</text></g></g><g><path fill="#C0C0C0" stroke="none" paint-order="stroke fill markers" d=" M 473 277 C 473 257.1177472 523.1441024 241 585 241 C 646.8558976 241 697 257.1177472 697 277 C 697 296.8822528 646.8558976 313 585 313 C 523.1441024 313 473 296.8822528 473 277 Z" fill-opacity="0.2"/></g><g><path fill="#ffffff" stroke="none" paint-order="stroke fill markers" d=" M 466 270 C 466 250.1177472 516.1441024 234 578 234 C 639.8558976 234 690 250.1177472 690 270 C 690 289.8822528 639.8558976 306 578 306 C 516.1441024 306 466 289.8822528 466 270 Z"/></g><g><path fill="none" stroke="#000000" paint-order="fill stroke markers" d=" M 466 270 C 466 250.1177472 516.1441024 234 578 234 C 639.8558976 234 690 250.1177472 690 270 C 690 289.8822528 639.8558976 306 578 306 C 516.1441024 306 466 289.8822528 466 270 Z" stroke-miterlimit="10" stroke-dasharray=""/></g><g><g><path fill="none" stroke="none"/><text fill="#000000" stroke="none" font-family="Arial" font-size="13px" font-style="normal" font-weight="bold" text-decoration="undefined" x="742" y="463" text-anchor="middle" dominant-baseline="central" transform="matrix(1 0 0 1 -164 -205)">UC117.2 - Inserimento</text><text fill="#000000" stroke="none" font-family="Arial" font-size="13px" font-style="normal" font-weight="bold" text-decoration="undefined" x="742" y="476" text-anchor="middle" dominant-baseline="central" transform="matrix(1 0 0 1 -164 -205)">timeout inattività</text><text fill="#000000" stroke="none" font-family="Arial" font-size="13px" font-style="normal" font-weight="bold" text-decoration="undefined" x="742" y="489" text-anchor="middle" dominant-baseline="central" transform="matrix(1 0 0 1 -164 -205)">gateway simulato</text></g></g><g><path fill="none" stroke="#000000" paint-order="fill stroke markers" d=" M 374 160 L 509 233" stroke-miterlimit="10" stroke-dasharray="3"/></g><g><path fill="none" stroke="#000000" paint-order="fill stroke markers" d=" M 498.05830642703313 231.8689200933204 L 509 233 L 502.0628485489668 224.46326000481287" stroke-miterlimit="10" stroke-dasharray=""/></g><g><rect fill="#ffffff" stroke="none" x="612" y="385" width="55.65625" height="13" transform="matrix(1 0 0 1 -164 -205)"/></g><g><g><path fill="none" stroke="none"/><text fill="#000000" stroke="none" font-family="Arial" font-size="13px" font-style="normal" font-weight="normal" text-decoration="undefined" x="639.828125" y="391.5" text-anchor="middle" dominant-baseline="central" transform="matrix(1 0 0 1 -164 -205)">«include»</text></g></g><g><path fill="#C0C0C0" stroke="none" paint-order="stroke fill markers" d=" M 249 318 C 249 293.147184 293.77152 273 349 273 C 404.22848 273 449 293.147184 449 318 C 449 342.85281599999996 404.22848 363 349 363 C 293.77152 363 249 342.85281599999996 249 318 Z" fill-opacity="0.2"/></g><g><path fill="#ffffff" stroke="none" paint-order="stroke fill markers" d=" M 242 311 C 242 286.147184 286.77152 266 342 266 C 397.22848 266 442 286.147184 442 311 C 442 335.85281599999996 397.22848 356 342 356 C 286.77152 356 242 335.85281599999996 242 311 Z"/></g><g><path fill="none" stroke="#000000" paint-order="fill stroke markers" d=" M 242 311 C 242 286.147184 286.77152 266 342 266 C 397.22848 266 442 286.147184 442 311 C 442 335.85281599999996 397.22848 356 342 356 C 286.77152 356 242 335.85281599999996 242 311 Z" stroke-miterlimit="10" stroke-dasharray=""/></g><g><g><path fill="none" stroke="none"/><text fill="#000000" stroke="none" font-family="Arial" font-size="13px" font-style="normal" font-weight="bold" text-decoration="undefined" x="506" y="497.5" text-anchor="middle" dominant-baseline="central" transform="matrix(1 0 0 1 -164 -205)">UC117.3 -</text><text fill="#000000" stroke="none" font-family="Arial" font-size="13px" font-style="normal" font-weight="bold" text-decoration="undefined" x="506" y="510.5" text-anchor="middle" dominant-baseline="central" transform="matrix(1 0 0 1 -164 -205)">Inserimento</text><text fill="#000000" stroke="none" font-family="Arial" font-size="13px" font-style="normal" font-weight="bold" text-decoration="undefined" x="506" y="523.5" text-anchor="middle" dominant-baseline="central" transform="matrix(1 0 0 1 -164 -205)">dimensione buffer</text><text fill="#000000" stroke="none" font-family="Arial" font-size="13px" font-style="normal" font-weight="bold" text-decoration="undefined" x="506" y="536.5" text-anchor="middle" dominant-baseline="central" transform="matrix(1 0 0 1 -164 -205)">gateway simulato</text></g></g><g><path fill="none" stroke="#000000" paint-order="fill stroke markers" d=" M 325 160 L 337 265" stroke-miterlimit="10" stroke-dasharray="3"/></g><g><path fill="none" stroke="#000000" paint-order="fill stroke markers" d=" M 331.66376948611276 255.38102687899283 L 337 265 L 340.0283563395711 254.42507409574046" stroke-miterlimit="10" stroke-dasharray=""/></g><g><rect fill="#ffffff" stroke="none" x="497" y="407" width="55.65625" height="13" transform="matrix(1 0 0 1 -164 -205)"/></g><g><g><path fill="none" stroke="none"/><text fill="#000000" stroke="none" font-family="Arial" font-size="13px" font-style="normal" font-weight="normal" text-decoration="undefined" x="524.828125" y="413.5" text-anchor="middle" dominant-baseline="central" transform="matrix(1 0 0 1 -164 -205)">«include»</text></g></g></g></svg>