<svg version="1.1" xmlns="http://www.w3.org/2000/svg" xmlns:xlink="http://www.w3.org/1999/xlink" width="881.4072265625" height="508"><defs/><g><g><rect fill="#C0C0C0" stroke="none" x="340" y="151" width="600" height="488" transform="matrix(1 0 0 1 -195 -134)" fill-opacity="0.2"/></g><g><rect fill="#ffffff" stroke="none" x="333" y="144" width="600" height="488" transform="matrix(1 0 0 1 -195 -134)"/></g><g><path fill="none" stroke="#000000" paint-order="fill stroke markers" d=" M 138 10 L 738 10 L 738 498 L 138 498 L 138 10 Z Z" stroke-miterlimit="10" stroke-dasharray=""/></g><g><g><path fill="none" stroke="none"/><text fill="#000000" stroke="none" font-family="Arial" font-size="13px" font-style="normal" font-weight="bold" text-decoration="undefined" x="633.5" y="157.5" text-anchor="middle" dominant-baseline="central" transform="matrix(1 0 0 1 -195 -134)">Sistema Gateway</text></g></g><g><path fill="#ffffff" stroke="none" paint-order="stroke fill markers" d=" M 819.36361328125 195.85000000000002 C 819.36361328125 190.96227952000004 823.32141564925 187 828.20361328125 187 C 833.08581091325 187 837.0436132812499 190.96227952000004 837.0436132812499 195.85000000000002 C 837.0436132812499 200.73772048 833.08581091325 204.7 828.20361328125 204.7 C 823.32141564925 204.7 819.36361328125 200.73772048 819.36361328125 195.85000000000002 Z"/></g><g><path fill="none" stroke="#000000" paint-order="fill stroke markers" d=" M 819.36361328125 195.85000000000002 C 819.36361328125 190.96227952000004 823.32141564925 187 828.20361328125 187 C 833.08581091325 187 837.0436132812499 190.96227952000004 837.0436132812499 195.85000000000002 C 837.0436132812499 200.73772048 833.08581091325 204.7 828.20361328125 204.7 C 823.32141564925 204.7 819.36361328125 200.73772048 819.36361328125 195.85000000000002 Z" stroke-miterlimit="10" stroke-dasharray=""/></g><g><path fill="none" stroke="#000000" paint-order="fill stroke markers" d=" M 828.20361328125 204.7 L 828.20361328125 222.3" stroke-miterlimit="10" stroke-dasharray=""/></g><g><path fill="none" stroke="#000000" paint-order="fill stroke markers" d=" M 818.84361328125 211.3 L 837.5636132812499 211.3" stroke-miterlimit="10" stroke-dasharray=""/></g><g><path fill="none" stroke="#000000" paint-order="fill stroke markers" d=" M 828.20361328125 222.3 L 815.20361328125 240" stroke-miterlimit="10" stroke-dasharray=""/></g><g><path fill="none" stroke="#000000" paint-order="fill stroke markers" d=" M 828.20361328125 222.3 L 841.20361328125 240" stroke-miterlimit="10" stroke-dasharray=""/></g><g><g><path fill="none" stroke="none"/><text fill="#000000" stroke="none" font-family="Arial" font-size="13px" font-style="normal" font-weight="bold" text-decoration="undefined" x="1023.70361328125" y="388.5" text-anchor="middle" dominant-baseline="central" transform="matrix(1 0 0 1 -195 -134)">Email Client</text></g></g><g><path fill="none" stroke="#000000" paint-order="fill stroke markers" d=" M 491 202 L 785 223" stroke-miterlimit="10" stroke-dasharray=""/></g><g><path fill="none" stroke="#000000" paint-order="fill stroke markers" d=" M 466 104 L 408 161" stroke-miterlimit="10" stroke-dasharray="3"/></g><g><path fill="none" stroke="#000000" paint-order="fill stroke markers" d=" M 412.2977263598774 150.8743124610911 L 408 161 L 418.1988937756921 156.87900912981485" stroke-miterlimit="10" stroke-dasharray=""/></g><g><rect fill="#ffffff" stroke="none" x="639" y="255" width="53.49169921875" height="13" transform="matrix(1 0 0 1 -195 -134)"/></g><g><g><path fill="none" stroke="none"/><text fill="#000000" stroke="none" font-family="Arial" font-size="13px" font-style="normal" font-weight="normal" text-decoration="undefined" x="665.745849609375" y="261.5" text-anchor="middle" dominant-baseline="central" transform="matrix(1 0 0 1 -195 -134)">«extend»</text></g></g><g><path fill="none" stroke="#000000" paint-order="fill stroke markers" d=" M 447 227 L 566 281" stroke-miterlimit="10" stroke-dasharray="3"/></g><g><path fill="none" stroke="#000000" paint-order="fill stroke markers" d=" M 555.0060965367709 280.6338215719105 L 566 281 L 558.4850635590667 272.9672090598141" stroke-miterlimit="10" stroke-dasharray=""/></g><g><rect fill="#ffffff" stroke="none" x="688" y="373" width="55.65625" height="13" transform="matrix(1 0 0 1 -195 -134)"/></g><g><g><path fill="none" stroke="none"/><text fill="#000000" stroke="none" font-family="Arial" font-size="13px" font-style="normal" font-weight="normal" text-decoration="undefined" x="715.828125" y="379.5" text-anchor="middle" dominant-baseline="central" transform="matrix(1 0 0 1 -195 -134)">«include»</text></g></g><g><path fill="none" stroke="#000000" paint-order="fill stroke markers" d=" M 401 227 L 531 385" stroke-miterlimit="10" stroke-dasharray="3"/></g><g><path fill="none" stroke="#000000" paint-order="fill stroke markers" d=" M 521.2923550174868 379.82683569819346 L 531 385 L 527.7936379615129 374.47767884551376" stroke-miterlimit="10" stroke-dasharray=""/></g><g><rect fill="#ffffff" stroke="none" x="653" y="416" width="55.65625" height="13" transform="matrix(1 0 0 1 -195 -134)"/></g><g><g><path fill="none" stroke="none"/><text fill="#000000" stroke="none" font-family="Arial" font-size="13px" font-style="normal" font-weight="normal" text-decoration="undefined" x="680.828125" y="422.5" text-anchor="middle" dominant-baseline="central" transform="matrix(1 0 0 1 -195 -134)">«include»</text></g></g><g><path fill="none" stroke="#000000" paint-order="fill stroke markers" d=" M 360 227 L 325 313" stroke-miterlimit="10" stroke-dasharray="3"/></g><g><path fill="none" stroke="#000000" paint-order="fill stroke markers" d=" M 324.93187989297564 302.00021092697597 L 325 313 L 332.72985725554486 305.1738063652309" stroke-miterlimit="10" stroke-dasharray=""/></g><g><rect fill="#ffffff" stroke="none" x="537" y="409" width="55.65625" height="13" transform="matrix(1 0 0 1 -195 -134)"/></g><g><g><path fill="none" stroke="none"/><text fill="#000000" stroke="none" font-family="Arial" font-size="13px" font-style="normal" font-weight="normal" text-decoration="undefined" x="564.828125" y="415.5" text-anchor="middle" dominant-baseline="central" transform="matrix(1 0 0 1 -195 -134)">«include»</text></g></g><g><path fill="#C0C0C0" stroke="none" paint-order="stroke fill markers" d=" M 265 201 C 265 183.32688639999998 316.93496319999997 169 381 169 C 445.06503680000003 169 497 183.32688639999998 497 201 C 497 218.67311360000002 445.06503680000003 233 381 233 C 316.93496319999997 233 265 218.67311360000002 265 201 Z" fill-opacity="0.2"/></g><g><path fill="#ffffff" stroke="none" paint-order="stroke fill markers" d=" M 258 194 C 258 176.32688639999998 309.93496319999997 162 374 162 C 438.06503680000003 162 490 176.32688639999998 490 194 C 490 211.67311360000002 438.06503680000003 226 374 226 C 309.93496319999997 226 258 211.67311360000002 258 194 Z"/></g><g><path fill="none" stroke="#000000" paint-order="fill stroke markers" d=" M 258 194 C 258 176.32688639999998 309.93496319999997 162 374 162 C 438.06503680000003 162 490 176.32688639999998 490 194 C 490 211.67311360000002 438.06503680000003 226 374 226 C 309.93496319999997 226 258 211.67311360000002 258 194 Z" stroke-miterlimit="10" stroke-dasharray=""/></g><g><g><path fill="none" stroke="none"/><text fill="#000000" stroke="none" font-family="Arial" font-size="13px" font-style="normal" font-weight="bold" text-decoration="undefined" x="569" y="322.5" text-anchor="middle" dominant-baseline="central" transform="matrix(1 0 0 1 -195 -134)">UC113 - Creazione</text><text fill="#000000" stroke="none" font-family="Arial" font-size="13px" font-style="normal" font-weight="bold" text-decoration="undefined" x="569" y="335.5" text-anchor="middle" dominant-baseline="central" transform="matrix(1 0 0 1 -195 -134)">utente Tenant Admin</text></g></g><g><path fill="#C0C0C0" stroke="none" paint-order="stroke fill markers" d=" M 425 83.5 C 425 68.86445280000001 459.0263552 57 501 57 C 542.9736448 57 577 68.86445280000001 577 83.5 C 577 98.13554719999999 542.9736448 110 501 110 C 459.0263552 110 425 98.13554719999999 425 83.5 Z" fill-opacity="0.2"/></g><g><path fill="#ffffff" stroke="none" paint-order="stroke fill markers" d=" M 418 76.5 C 418 61.86445280000001 452.0263552 50 494 50 C 535.9736448 50 570 61.86445280000001 570 76.5 C 570 91.13554719999999 535.9736448 103 494 103 C 452.0263552 103 418 91.13554719999999 418 76.5 Z"/></g><g><path fill="none" stroke="#000000" paint-order="fill stroke markers" d=" M 418 76.5 C 418 61.86445280000001 452.0263552 50 494 50 C 535.9736448 50 570 61.86445280000001 570 76.5 C 570 91.13554719999999 535.9736448 103 494 103 C 452.0263552 103 418 91.13554719999999 418 76.5 Z" stroke-miterlimit="10" stroke-dasharray=""/></g><g><g><path fill="none" stroke="none"/><text fill="#000000" stroke="none" font-family="Arial" font-size="13px" font-style="normal" font-weight="bold" text-decoration="undefined" x="689" y="205" text-anchor="middle" dominant-baseline="central" transform="matrix(1 0 0 1 -195 -134)">UC35 - Email</text><text fill="#000000" stroke="none" font-family="Arial" font-size="13px" font-style="normal" font-weight="bold" text-decoration="undefined" x="689" y="218" text-anchor="middle" dominant-baseline="central" transform="matrix(1 0 0 1 -195 -134)">già utilizzata</text></g></g><g><path fill="#C0C0C0" stroke="none" paint-order="stroke fill markers" d=" M 545 315.5 C 545 300.8644528 584.3989376 289 633 289 C 681.6010624 289 721 300.8644528 721 315.5 C 721 330.1355472 681.6010624 342 633 342 C 584.3989376 342 545 330.1355472 545 315.5 Z" fill-opacity="0.2"/></g><g><path fill="#ffffff" stroke="none" paint-order="stroke fill markers" d=" M 538 308.5 C 538 293.8644528 577.3989376 282 626 282 C 674.6010624 282 714 293.8644528 714 308.5 C 714 323.1355472 674.6010624 335 626 335 C 577.3989376 335 538 323.1355472 538 308.5 Z"/></g><g><path fill="none" stroke="#000000" paint-order="fill stroke markers" d=" M 538 308.5 C 538 293.8644528 577.3989376 282 626 282 C 674.6010624 282 714 293.8644528 714 308.5 C 714 323.1355472 674.6010624 335 626 335 C 577.3989376 335 538 323.1355472 538 308.5 Z" stroke-miterlimit="10" stroke-dasharray=""/></g><g><g><path fill="none" stroke="none"/><text fill="#000000" stroke="none" font-family="Arial" font-size="13px" font-style="normal" font-weight="bold" text-decoration="undefined" x="821" y="437" text-anchor="middle" dominant-baseline="central" transform="matrix(1 0 0 1 -195 -134)">UC113.1 -</text><text fill="#000000" stroke="none" font-family="Arial" font-size="13px" font-style="normal" font-weight="bold" text-decoration="undefined" x="821" y="450" text-anchor="middle" dominant-baseline="central" transform="matrix(1 0 0 1 -195 -134)">Selezione tenant</text></g></g><g><path fill="#C0C0C0" stroke="none" paint-order="stroke fill markers" d=" M 457 429 C 457 409.11774720000005 507.14410239999995 393 569 393 C 630.8558976 393 681 409.11774720000005 681 429 C 681 448.88225279999995 630.8558976 465 569 465 C 507.14410239999995 465 457 448.88225279999995 457 429 Z" fill-opacity="0.2"/></g><g><path fill="#ffffff" stroke="none" paint-order="stroke fill markers" d=" M 450 422 C 450 402.11774720000005 500.14410239999995 386 562 386 C 623.8558976 386 674 402.11774720000005 674 422 C 674 441.88225279999995 623.8558976 458 562 458 C 500.14410239999995 458 450 441.88225279999995 450 422 Z"/></g><g><path fill="none" stroke="#000000" paint-order="fill stroke markers" d=" M 450 422 C 450 402.11774720000005 500.14410239999995 386 562 386 C 623.8558976 386 674 402.11774720000005 674 422 C 674 441.88225279999995 623.8558976 458 562 458 C 500.14410239999995 458 450 441.88225279999995 450 422 Z" stroke-miterlimit="10" stroke-dasharray=""/></g><g><g><path fill="none" stroke="none"/><text fill="#000000" stroke="none" font-family="Arial" font-size="13px" font-style="normal" font-weight="bold" text-decoration="undefined" x="757" y="544" text-anchor="middle" dominant-baseline="central" transform="matrix(1 0 0 1 -195 -134)">UC113.2 - Inserimento</text><text fill="#000000" stroke="none" font-family="Arial" font-size="13px" font-style="normal" font-weight="bold" text-decoration="undefined" x="757" y="557" text-anchor="middle" dominant-baseline="central" transform="matrix(1 0 0 1 -195 -134)">email nuovo Tenant</text><text fill="#000000" stroke="none" font-family="Arial" font-size="13px" font-style="normal" font-weight="bold" text-decoration="undefined" x="757" y="570" text-anchor="middle" dominant-baseline="central" transform="matrix(1 0 0 1 -195 -134)">Admin</text></g></g><g><path fill="#C0C0C0" stroke="none" paint-order="stroke fill markers" d=" M 209 366 C 209 341.147184 255.56238080000003 321 313 321 C 370.4376192 321 417 341.147184 417 366 C 417 390.85281599999996 370.4376192 411 313 411 C 255.56238080000003 411 209 390.85281599999996 209 366 Z" fill-opacity="0.2"/></g><g><path fill="#ffffff" stroke="none" paint-order="stroke fill markers" d=" M 202 359 C 202 334.147184 248.56238080000003 314 306 314 C 363.4376192 314 410 334.147184 410 359 C 410 383.85281599999996 363.4376192 404 306 404 C 248.56238080000003 404 202 383.85281599999996 202 359 Z"/></g><g><path fill="none" stroke="#000000" paint-order="fill stroke markers" d=" M 202 359 C 202 334.147184 248.56238080000003 314 306 314 C 363.4376192 314 410 334.147184 410 359 C 410 383.85281599999996 363.4376192 404 306 404 C 248.56238080000003 404 202 383.85281599999996 202 359 Z" stroke-miterlimit="10" stroke-dasharray=""/></g><g><g><path fill="none" stroke="none"/><text fill="#000000" stroke="none" font-family="Arial" font-size="13px" font-style="normal" font-weight="bold" text-decoration="undefined" x="501" y="474.5" text-anchor="middle" dominant-baseline="central" transform="matrix(1 0 0 1 -195 -134)">UC113.3 - Invio email</text><text fill="#000000" stroke="none" font-family="Arial" font-size="13px" font-style="normal" font-weight="bold" text-decoration="undefined" x="501" y="487.5" text-anchor="middle" dominant-baseline="central" transform="matrix(1 0 0 1 -195 -134)">impostazione</text><text fill="#000000" stroke="none" font-family="Arial" font-size="13px" font-style="normal" font-weight="bold" text-decoration="undefined" x="501" y="500.5" text-anchor="middle" dominant-baseline="central" transform="matrix(1 0 0 1 -195 -134)">password nuovo</text><text fill="#000000" stroke="none" font-family="Arial" font-size="13px" font-style="normal" font-weight="bold" text-decoration="undefined" x="501" y="513.5" text-anchor="middle" dominant-baseline="central" transform="matrix(1 0 0 1 -195 -134)">Tenant-admin</text></g></g><g><path fill="#ffffff" stroke="none" paint-order="stroke fill markers" d=" M 46.607265625 195.85000000000002 C 46.607265625 190.96227952000004 50.565067993000014 187 55.447265625 187 C 60.329463256999986 187 64.28726562499997 190.96227952000004 64.28726562499997 195.85000000000002 C 64.28726562499997 200.73772048 60.329463256999986 204.7 55.447265625 204.7 C 50.565067993000014 204.7 46.607265625 200.73772048 46.607265625 195.85000000000002 Z"/></g><g><path fill="none" stroke="#000000" paint-order="fill stroke markers" d=" M 46.607265625 195.85000000000002 C 46.607265625 190.96227952000004 50.565067993000014 187 55.447265625 187 C 60.329463256999986 187 64.28726562499997 190.96227952000004 64.28726562499997 195.85000000000002 C 64.28726562499997 200.73772048 60.329463256999986 204.7 55.447265625 204.7 C 50.565067993000014 204.7 46.607265625 200.73772048 46.607265625 195.85000000000002 Z" stroke-miterlimit="10" stroke-dasharray=""/></g><g><path fill="none" stroke="#000000" paint-order="fill stroke markers" d=" M 55.447265625 204.7 L 55.447265625 222.3" stroke-miterlimit="10" stroke-dasharray=""/></g><g><path fill="none" stroke="#000000" paint-order="fill stroke markers" d=" M 46.087265624999986 211.3 L 64.80726562500001 211.3" stroke-miterlimit="10" stroke-dasharray=""/></g><g><path fill="none" stroke="#000000" paint-order="fill stroke markers" d=" M 55.447265625 222.3 L 42.447265625 240" stroke-miterlimit="10" stroke-dasharray=""/></g><g><path fill="none" stroke="#000000" paint-order="fill stroke markers" d=" M 55.447265625 222.3 L 68.447265625 240" stroke-miterlimit="10" stroke-dasharray=""/></g><g><g><path fill="none" stroke="none"/><text fill="#000000" stroke="none" font-family="Arial" font-size="13px" font-style="normal" font-weight="bold" text-decoration="undefined" x="250.947265625" y="388.5" text-anchor="middle" dominant-baseline="central" transform="matrix(1 0 0 1 -195 -134)">Super Admin</text></g></g><g><path fill="none" stroke="#000000" paint-order="fill stroke markers" d=" M 102 221 L 257 206" stroke-miterlimit="10" stroke-dasharray=""/></g><g><path fill="#ffffff" stroke="none" paint-order="stroke fill markers" d=" M 242 66 L 359.65625 66 L 369.65625 76 L 369.65625 129 L 242 129 L 242 66"/></g><g><path fill="none" stroke="#000000" paint-order="fill stroke markers" d=" M 242 66 L 359.65625 66 L 369.65625 76 L 369.65625 129 L 242 129 L 242 66 L 242 66" stroke-miterlimit="10" stroke-dasharray=""/></g><g><path fill="none" stroke="#000000" paint-order="fill stroke markers" d=" M 359.65625 66 L 359.65625 76 L 369.65625 76 L 359.65625 66" stroke-miterlimit="10" stroke-dasharray=""/></g><g><g><path fill="none" stroke="none"/><text fill="#000000" stroke="none" font-family="Arial" font-size="13px" font-style="normal" font-weight="normal" text-decoration="undefined" x="442" y="205" text-anchor="start" dominant-baseline="text-before-edge" transform="matrix(1 0 0 1 -195 -134)">Condizione: l'email</text><text fill="#000000" stroke="none" font-family="Arial" font-size="13px" font-style="normal" font-weight="normal" text-decoration="undefined" x="442" y="218" text-anchor="start" dominant-baseline="text-before-edge" transform="matrix(1 0 0 1 -195 -134)">scelta è già</text><text fill="#000000" stroke="none" font-family="Arial" font-size="13px" font-style="normal" font-weight="normal" text-decoration="undefined" x="442" y="231" text-anchor="start" dominant-baseline="text-before-edge" transform="matrix(1 0 0 1 -195 -134)">utilizzata da un</text><text fill="#000000" stroke="none" font-family="Arial" font-size="13px" font-style="normal" font-weight="normal" text-decoration="undefined" x="442" y="244" text-anchor="start" dominant-baseline="text-before-edge" transform="matrix(1 0 0 1 -195 -134)">utente</text></g></g><g><path fill="none" stroke="#000000" paint-order="fill stroke markers" d=" M 372 115 L 437 132" stroke-miterlimit="10" stroke-dasharray="3"/></g></g></svg>