<svg version="1.1" xmlns="http://www.w3.org/2000/svg" xmlns:xlink="http://www.w3.org/1999/xlink" width="757" height="316"><defs/><g><g><rect fill="#C0C0C0" stroke="none" x="456" y="466" width="568" height="296" transform="matrix(1 0 0 1 -271 -449)" fill-opacity="0.2"/></g><g><rect fill="#ffffff" stroke="none" x="449" y="459" width="568" height="296" transform="matrix(1 0 0 1 -271 -449)"/></g><g><path fill="none" stroke="#000000" paint-order="fill stroke markers" d=" M 178 10 L 746 10 L 746 306 L 178 306 L 178 10 Z Z" stroke-miterlimit="10" stroke-dasharray=""/></g><g><g><path fill="none" stroke="none"/><text fill="#000000" stroke="none" font-family="Arial" font-size="13px" font-style="normal" font-weight="bold" text-decoration="undefined" x="733.5" y="472.5" text-anchor="middle" dominant-baseline="central" transform="matrix(1 0 0 1 -271 -449)">Sistema Cloud</text></g></g><g><path fill="#ffffff" stroke="none" paint-order="stroke fill markers" d=" M 46.607265625000025 83.85000000000002 C 46.607265625000025 78.96227952000004 50.565067993000014 75 55.447265625 75 C 60.329463256999986 75 64.28726562499997 78.96227952000004 64.28726562499997 83.85000000000002 C 64.28726562499997 88.73772048000001 60.329463256999986 92.70000000000005 55.447265625 92.70000000000005 C 50.565067993000014 92.70000000000005 46.607265625000025 88.73772048000001 46.607265625000025 83.85000000000002 Z"/></g><g><path fill="none" stroke="#000000" paint-order="fill stroke markers" d=" M 46.607265625000025 83.85000000000002 C 46.607265625000025 78.96227952000004 50.565067993000014 75 55.447265625 75 C 60.329463256999986 75 64.28726562499997 78.96227952000004 64.28726562499997 83.85000000000002 C 64.28726562499997 88.73772048000001 60.329463256999986 92.70000000000005 55.447265625 92.70000000000005 C 50.565067993000014 92.70000000000005 46.607265625000025 88.73772048000001 46.607265625000025 83.85000000000002 Z" stroke-miterlimit="10" stroke-dasharray=""/></g><g><path fill="none" stroke="#000000" paint-order="fill stroke markers" d=" M 55.447265625 92.70000000000005 L 55.447265625 110.29999999999995" stroke-miterlimit="10" stroke-dasharray=""/></g><g><path fill="none" stroke="#000000" paint-order="fill stroke markers" d=" M 46.087265624999986 99.29999999999995 L 64.80726562500001 99.29999999999995" stroke-miterlimit="10" stroke-dasharray=""/></g><g><path fill="none" stroke="#000000" paint-order="fill stroke markers" d=" M 55.447265625 110.29999999999995 L 42.447265625 128" stroke-miterlimit="10" stroke-dasharray=""/></g><g><path fill="none" stroke="#000000" paint-order="fill stroke markers" d=" M 55.447265625 110.29999999999995 L 68.447265625 128" stroke-miterlimit="10" stroke-dasharray=""/></g><g><g><path fill="none" stroke="none"/><text fill="#000000" stroke="none" font-family="Arial" font-size="13px" font-style="normal" font-weight="bold" text-decoration="undefined" x="326.947265625" y="591.5" text-anchor="middle" dominant-baseline="central" transform="matrix(1 0 0 1 -271 -449)">Super Admin</text></g></g><g><path fill="#C0C0C0" stroke="none" paint-order="stroke fill markers" d=" M 193 101 C 193 81.11774720000005 239.56238080000003 65 297 65 C 354.4376192 65 401 81.11774720000005 401 101 C 401 120.88225279999995 354.4376192 137 297 137 C 239.56238080000003 137 193 120.88225279999995 193 101 Z" fill-opacity="0.2"/></g><g><path fill="#ffffff" stroke="none" paint-order="stroke fill markers" d=" M 186 94 C 186 74.11774720000005 232.56238080000003 58 290 58 C 347.4376192 58 394 74.11774720000005 394 94 C 394 113.88225279999995 347.4376192 130 290 130 C 232.56238080000003 130 186 113.88225279999995 186 94 Z"/></g><g><path fill="none" stroke="#000000" paint-order="fill stroke markers" d=" M 186 94 C 186 74.11774720000005 232.56238080000003 58 290 58 C 347.4376192 58 394 74.11774720000005 394 94 C 394 113.88225279999995 347.4376192 130 290 130 C 232.56238080000003 130 186 113.88225279999995 186 94 Z" stroke-miterlimit="10" stroke-dasharray=""/></g><g><g><path fill="none" stroke="none"/><text fill="#000000" stroke="none" font-family="Arial" font-size="13px" font-style="normal" font-weight="bold" text-decoration="undefined" x="561" y="537.5" text-anchor="middle" dominant-baseline="central" transform="matrix(1 0 0 1 -271 -449)">UC116 - Eliminazione</text><text fill="#000000" stroke="none" font-family="Arial" font-size="13px" font-style="normal" font-weight="bold" text-decoration="undefined" x="561" y="550.5" text-anchor="middle" dominant-baseline="central" transform="matrix(1 0 0 1 -271 -449)">gateway simulato</text></g></g><g><path fill="#C0C0C0" stroke="none" paint-order="stroke fill markers" d=" M 529 101 C 529 81.11774720000005 573.77152 65 629 65 C 684.22848 65 729 81.11774720000005 729 101 C 729 120.88225279999995 684.22848 137 629 137 C 573.77152 137 529 120.88225279999995 529 101 Z" fill-opacity="0.2"/></g><g><path fill="#ffffff" stroke="none" paint-order="stroke fill markers" d=" M 522 94 C 522 74.11774720000005 566.77152 58 622 58 C 677.22848 58 722 74.11774720000005 722 94 C 722 113.88225279999995 677.22848 130 622 130 C 566.77152 130 522 113.88225279999995 522 94 Z"/></g><g><path fill="none" stroke="#000000" paint-order="fill stroke markers" d=" M 522 94 C 522 74.11774720000005 566.77152 58 622 58 C 677.22848 58 722 74.11774720000005 722 94 C 722 113.88225279999995 677.22848 130 622 130 C 566.77152 130 522 113.88225279999995 522 94 Z" stroke-miterlimit="10" stroke-dasharray=""/></g><g><g><path fill="none" stroke="none"/><text fill="#000000" stroke="none" font-family="Arial" font-size="13px" font-style="normal" font-weight="bold" text-decoration="undefined" x="893" y="531" text-anchor="middle" dominant-baseline="central" transform="matrix(1 0 0 1 -271 -449)">UC116.1 - Seleziona</text><text fill="#000000" stroke="none" font-family="Arial" font-size="13px" font-style="normal" font-weight="bold" text-decoration="undefined" x="893" y="544" text-anchor="middle" dominant-baseline="central" transform="matrix(1 0 0 1 -271 -449)">gateway simulato da</text><text fill="#000000" stroke="none" font-family="Arial" font-size="13px" font-style="normal" font-weight="bold" text-decoration="undefined" x="893" y="557" text-anchor="middle" dominant-baseline="central" transform="matrix(1 0 0 1 -271 -449)">eliminare</text></g></g><g><path fill="#C0C0C0" stroke="none" paint-order="stroke fill markers" d=" M 417 237 C 417 217.11774720000005 463.5623808 201 521 201 C 578.4376192 201 625 217.11774720000005 625 237 C 625 256.88225279999995 578.4376192 273 521 273 C 463.5623808 273 417 256.88225279999995 417 237 Z" fill-opacity="0.2"/></g><g><path fill="#ffffff" stroke="none" paint-order="stroke fill markers" d=" M 410 230 C 410 210.11774720000005 456.5623808 194 514 194 C 571.4376192 194 618 210.11774720000005 618 230 C 618 249.88225279999995 571.4376192 266 514 266 C 456.5623808 266 410 249.88225279999995 410 230 Z"/></g><g><path fill="none" stroke="#000000" paint-order="fill stroke markers" d=" M 410 230 C 410 210.11774720000005 456.5623808 194 514 194 C 571.4376192 194 618 210.11774720000005 618 230 C 618 249.88225279999995 571.4376192 266 514 266 C 456.5623808 266 410 249.88225279999995 410 230 Z" stroke-miterlimit="10" stroke-dasharray=""/></g><g><g><path fill="none" stroke="none"/><text fill="#000000" stroke="none" font-family="Arial" font-size="13px" font-style="normal" font-weight="bold" text-decoration="undefined" x="785" y="667" text-anchor="middle" dominant-baseline="central" transform="matrix(1 0 0 1 -271 -449)">UC116.2 - Conferma</text><text fill="#000000" stroke="none" font-family="Arial" font-size="13px" font-style="normal" font-weight="bold" text-decoration="undefined" x="785" y="680" text-anchor="middle" dominant-baseline="central" transform="matrix(1 0 0 1 -271 -449)">eliminazione gateway</text><text fill="#000000" stroke="none" font-family="Arial" font-size="13px" font-style="normal" font-weight="bold" text-decoration="undefined" x="785" y="693" text-anchor="middle" dominant-baseline="central" transform="matrix(1 0 0 1 -271 -449)">simulato</text></g></g><g><path fill="none" stroke="#000000" paint-order="fill stroke markers" d=" M 102 110 L 185 103" stroke-miterlimit="10" stroke-dasharray=""/></g><g><path fill="none" stroke="#000000" paint-order="fill stroke markers" d=" M 395 94 L 521 94" stroke-miterlimit="10" stroke-dasharray="3"/></g><g><path fill="none" stroke="#000000" paint-order="fill stroke markers" d=" M 510.8373251423759 98.209517756016 L 521 94 L 510.8373251423758 89.790482243984" stroke-miterlimit="10" stroke-dasharray=""/></g><g><rect fill="#ffffff" stroke="none" x="702" y="507" width="55.65625" height="13" transform="matrix(1 0 0 1 -271 -449)"/></g><g><g><path fill="none" stroke="none"/><text fill="#000000" stroke="none" font-family="Arial" font-size="13px" font-style="normal" font-weight="normal" text-decoration="undefined" x="729.828125" y="513.5" text-anchor="middle" dominant-baseline="central" transform="matrix(1 0 0 1 -271 -449)">«include»</text></g></g><g><path fill="none" stroke="#000000" paint-order="fill stroke markers" d=" M 351 131 L 453 193" stroke-miterlimit="10" stroke-dasharray="3"/></g><g><path fill="none" stroke="#000000" paint-order="fill stroke markers" d=" M 442.12928343146643 191.31847649834754 L 453 193 L 446.5022592687759 184.12422592729" stroke-miterlimit="10" stroke-dasharray=""/></g><g><rect fill="#ffffff" stroke="none" x="661" y="579" width="55.65625" height="13" transform="matrix(1 0 0 1 -271 -449)"/></g><g><g><path fill="none" stroke="none"/><text fill="#000000" stroke="none" font-family="Arial" font-size="13px" font-style="normal" font-weight="normal" text-decoration="undefined" x="688.828125" y="585.5" text-anchor="middle" dominant-baseline="central" transform="matrix(1 0 0 1 -271 -449)">«include»</text></g></g></g></svg>