<svg version="1.1" xmlns="http://www.w3.org/2000/svg" xmlns:xlink="http://www.w3.org/1999/xlink" width="925" height="428"><defs/><g><g><rect fill="#C0C0C0" stroke="none" x="481" y="332" width="696" height="408" transform="matrix(1 0 0 1 -256 -315)" fill-opacity="0.2"/></g><g><rect fill="#ffffff" stroke="none" x="474" y="325" width="696" height="408" transform="matrix(1 0 0 1 -256 -315)"/></g><g><path fill="none" stroke="#000000" paint-order="fill stroke markers" d=" M 218 10 L 914 10 L 914 418 L 218 418 L 218 10 Z Z" stroke-miterlimit="10" stroke-dasharray=""/></g><g><g><path fill="none" stroke="none"/><text fill="#000000" stroke="none" font-family="Arial" font-size="13px" font-style="normal" font-weight="bold" text-decoration="undefined" x="822.5" y="338.5" text-anchor="middle" dominant-baseline="central" transform="matrix(1 0 0 1 -256 -315)">Schermata d'autenticazione - Sistema</text></g></g><g><path fill="#ffffff" stroke="none" paint-order="stroke fill markers" d=" M 76.57772460937503 163.85000000000002 C 76.57772460937503 158.96227952000004 80.53552697737501 155 85.417724609375 155 C 90.29992224137499 155 94.25772460937497 158.96227952000004 94.25772460937497 163.85000000000002 C 94.25772460937497 168.73772048 90.29992224137499 172.7 85.417724609375 172.7 C 80.53552697737501 172.7 76.57772460937503 168.73772048 76.57772460937503 163.85000000000002 Z"/></g><g><path fill="none" stroke="#000000" paint-order="fill stroke markers" d=" M 76.57772460937503 163.85000000000002 C 76.57772460937503 158.96227952000004 80.53552697737501 155 85.417724609375 155 C 90.29992224137499 155 94.25772460937497 158.96227952000004 94.25772460937497 163.85000000000002 C 94.25772460937497 168.73772048 90.29992224137499 172.7 85.417724609375 172.7 C 80.53552697737501 172.7 76.57772460937503 168.73772048 76.57772460937503 163.85000000000002 Z" stroke-miterlimit="10" stroke-dasharray=""/></g><g><path fill="none" stroke="#000000" paint-order="fill stroke markers" d=" M 85.417724609375 172.7 L 85.417724609375 190.3" stroke-miterlimit="10" stroke-dasharray=""/></g><g><path fill="none" stroke="#000000" paint-order="fill stroke markers" d=" M 76.05772460937499 179.3 L 94.77772460937501 179.3" stroke-miterlimit="10" stroke-dasharray=""/></g><g><path fill="none" stroke="#000000" paint-order="fill stroke markers" d=" M 85.417724609375 190.3 L 72.417724609375 208" stroke-miterlimit="10" stroke-dasharray=""/></g><g><path fill="none" stroke="#000000" paint-order="fill stroke markers" d=" M 85.417724609375 190.3 L 98.417724609375 208" stroke-miterlimit="10" stroke-dasharray=""/></g><g><g><path fill="none" stroke="none"/><text fill="#000000" stroke="none" font-family="Arial" font-size="13px" font-style="normal" font-weight="bold" text-decoration="undefined" x="341.917724609375" y="537.5" text-anchor="middle" dominant-baseline="central" transform="matrix(1 0 0 1 -256 -315)">Utente non autenticato</text></g></g><g><path fill="#C0C0C0" stroke="none" paint-order="stroke fill markers" d=" M 313 211.5 C 313 196.86445279999998 370.3075456 185 441 185 C 511.6924544 185 569 196.86445279999998 569 211.5 C 569 226.13554720000002 511.6924544 238 441 238 C 370.3075456 238 313 226.13554720000002 313 211.5 Z" fill-opacity="0.2"/></g><g><path fill="#ffffff" stroke="none" paint-order="stroke fill markers" d=" M 306 204.5 C 306 189.86445279999998 363.3075456 178 434 178 C 504.6924544 178 562 189.86445279999998 562 204.5 C 562 219.13554720000002 504.6924544 231 434 231 C 363.3075456 231 306 219.13554720000002 306 204.5 Z"/></g><g><path fill="none" stroke="#000000" paint-order="fill stroke markers" d=" M 306 204.5 C 306 189.86445279999998 363.3075456 178 434 178 C 504.6924544 178 562 189.86445279999998 562 204.5 C 562 219.13554720000002 504.6924544 231 434 231 C 363.3075456 231 306 219.13554720000002 306 204.5 Z" stroke-miterlimit="10" stroke-dasharray=""/></g><g><g><path fill="none" stroke="none"/><text fill="#000000" stroke="none" font-family="Arial" font-size="13px" font-style="normal" font-weight="bold" text-decoration="undefined" x="690" y="514" text-anchor="middle" dominant-baseline="central" transform="matrix(1 0 0 1 -256 -315)">UC12 - Reimpostazione</text><text fill="#000000" stroke="none" font-family="Arial" font-size="13px" font-style="normal" font-weight="bold" text-decoration="undefined" x="690" y="527" text-anchor="middle" dominant-baseline="central" transform="matrix(1 0 0 1 -256 -315)">password dimenticata</text></g></g><g><path fill="#C0C0C0" stroke="none" paint-order="stroke fill markers" d=" M 281 91.5 C 281 76.86445279999998 345.4709888 65 425 65 C 504.5290112 65 569 76.86445279999998 569 91.5 C 569 106.13554720000002 504.5290112 118 425 118 C 345.4709888 118 281 106.13554720000002 281 91.5 Z" fill-opacity="0.2"/></g><g><path fill="#ffffff" stroke="none" paint-order="stroke fill markers" d=" M 274 84.5 C 274 69.86445279999998 338.4709888 58 418 58 C 497.5290112 58 562 69.86445279999998 562 84.5 C 562 99.13554720000002 497.5290112 111 418 111 C 338.4709888 111 274 99.13554720000002 274 84.5 Z"/></g><g><path fill="none" stroke="#000000" paint-order="fill stroke markers" d=" M 274 84.5 C 274 69.86445279999998 338.4709888 58 418 58 C 497.5290112 58 562 69.86445279999998 562 84.5 C 562 99.13554720000002 497.5290112 111 418 111 C 338.4709888 111 274 99.13554720000002 274 84.5 Z" stroke-miterlimit="10" stroke-dasharray=""/></g><g><g><path fill="none" stroke="none"/><text fill="#000000" stroke="none" font-family="Arial" font-size="13px" font-style="normal" font-weight="bold" text-decoration="undefined" x="674" y="394" text-anchor="middle" dominant-baseline="central" transform="matrix(1 0 0 1 -256 -315)">UC14 - Password non</text><text fill="#000000" stroke="none" font-family="Arial" font-size="13px" font-style="normal" font-weight="bold" text-decoration="undefined" x="674" y="407" text-anchor="middle" dominant-baseline="central" transform="matrix(1 0 0 1 -256 -315)">conforme ai criteri di sicurezza</text></g></g><g><path fill="#C0C0C0" stroke="none" paint-order="stroke fill markers" d=" M 657 139.5 C 657 124.86445279999998 707.1441024 113 769 113 C 830.8558975999999 113 881 124.86445279999998 881 139.5 C 881 154.13554720000002 830.8558975999999 166 769 166 C 707.1441024 166 657 154.13554720000002 657 139.5 Z" fill-opacity="0.2"/></g><g><path fill="#ffffff" stroke="none" paint-order="stroke fill markers" d=" M 650 132.5 C 650 117.86445279999998 700.1441024 106 762 106 C 823.8558975999999 106 874 117.86445279999998 874 132.5 C 874 147.13554720000002 823.8558975999999 159 762 159 C 700.1441024 159 650 147.13554720000002 650 132.5 Z"/></g><g><path fill="none" stroke="#000000" paint-order="fill stroke markers" d=" M 650 132.5 C 650 117.86445279999998 700.1441024 106 762 106 C 823.8558975999999 106 874 117.86445279999998 874 132.5 C 874 147.13554720000002 823.8558975999999 159 762 159 C 700.1441024 159 650 147.13554720000002 650 132.5 Z" stroke-miterlimit="10" stroke-dasharray=""/></g><g><g><path fill="none" stroke="none"/><text fill="#000000" stroke="none" font-family="Arial" font-size="13px" font-style="normal" font-weight="bold" text-decoration="undefined" x="1018" y="442" text-anchor="middle" dominant-baseline="central" transform="matrix(1 0 0 1 -256 -315)">UC13 - Password non</text><text fill="#000000" stroke="none" font-family="Arial" font-size="13px" font-style="normal" font-weight="bold" text-decoration="undefined" x="1018" y="455" text-anchor="middle" dominant-baseline="central" transform="matrix(1 0 0 1 -256 -315)">coincidenti</text></g></g><g><path fill="#C0C0C0" stroke="none" paint-order="stroke fill markers" d=" M 305 331.5 C 305 316.8644528 351.5623808 305 409 305 C 466.4376192 305 513 316.8644528 513 331.5 C 513 346.1355472 466.4376192 358 409 358 C 351.5623808 358 305 346.1355472 305 331.5 Z" fill-opacity="0.2"/></g><g><path fill="#ffffff" stroke="none" paint-order="stroke fill markers" d=" M 298 324.5 C 298 309.8644528 344.5623808 298 402 298 C 459.4376192 298 506 309.8644528 506 324.5 C 506 339.1355472 459.4376192 351 402 351 C 344.5623808 351 298 339.1355472 298 324.5 Z"/></g><g><path fill="none" stroke="#000000" paint-order="fill stroke markers" d=" M 298 324.5 C 298 309.8644528 344.5623808 298 402 298 C 459.4376192 298 506 309.8644528 506 324.5 C 506 339.1355472 459.4376192 351 402 351 C 344.5623808 351 298 339.1355472 298 324.5 Z" stroke-miterlimit="10" stroke-dasharray=""/></g><g><g><path fill="none" stroke="none"/><text fill="#000000" stroke="none" font-family="Arial" font-size="13px" font-style="normal" font-weight="bold" text-decoration="undefined" x="658" y="634" text-anchor="middle" dominant-baseline="central" transform="matrix(1 0 0 1 -256 -315)">UC12.1 - Inserimento</text><text fill="#000000" stroke="none" font-family="Arial" font-size="13px" font-style="normal" font-weight="bold" text-decoration="undefined" x="658" y="647" text-anchor="middle" dominant-baseline="central" transform="matrix(1 0 0 1 -256 -315)">nuova password</text></g></g><g><path fill="none" stroke="#000000" paint-order="fill stroke markers" d=" M 422 112 L 430 177" stroke-miterlimit="10" stroke-dasharray="3"/></g><g><path fill="none" stroke="#000000" paint-order="fill stroke markers" d=" M 424.580583683099 167.4276477925169 L 430 177 L 432.9365691300636 166.39921881442893" stroke-miterlimit="10" stroke-dasharray=""/></g><g><rect fill="#ffffff" stroke="none" x="685" y="449" width="53.49169921875" height="13" transform="matrix(1 0 0 1 -256 -315)"/></g><g><g><path fill="none" stroke="none"/><text fill="#000000" stroke="none" font-family="Arial" font-size="13px" font-style="normal" font-weight="normal" text-decoration="undefined" x="711.745849609375" y="455.5" text-anchor="middle" dominant-baseline="central" transform="matrix(1 0 0 1 -256 -315)">«extend»</text></g></g><g><path fill="none" stroke="#000000" paint-order="fill stroke markers" d=" M 649 157 L 557 177" stroke-miterlimit="10" stroke-dasharray="3"/></g><g><path fill="none" stroke="#000000" paint-order="fill stroke markers" d=" M 566.0364993053871 170.72770533985067 L 557 177 L 567.8249520248186 178.95458784923505" stroke-miterlimit="10" stroke-dasharray=""/></g><g><rect fill="#ffffff" stroke="none" x="829" y="461" width="53.49169921875" height="13" transform="matrix(1 0 0 1 -256 -315)"/></g><g><g><path fill="none" stroke="none"/><text fill="#000000" stroke="none" font-family="Arial" font-size="13px" font-style="normal" font-weight="normal" text-decoration="undefined" x="855.745849609375" y="467.5" text-anchor="middle" dominant-baseline="central" transform="matrix(1 0 0 1 -256 -315)">«extend»</text></g></g><g><path fill="none" stroke="#000000" paint-order="fill stroke markers" d=" M 427 232 L 409 297" stroke-miterlimit="10" stroke-dasharray="3"/></g><g><path fill="none" stroke="#000000" paint-order="fill stroke markers" d=" M 407.6553667075432 286.08249289861385 L 409 297 L 415.76904398573697 288.3293573756522" stroke-miterlimit="10" stroke-dasharray=""/></g><g><rect fill="#ffffff" stroke="none" x="675" y="580" width="55.65625" height="13" transform="matrix(1 0 0 1 -256 -315)"/></g><g><g><path fill="none" stroke="none"/><text fill="#000000" stroke="none" font-family="Arial" font-size="13px" font-style="normal" font-weight="normal" text-decoration="undefined" x="702.828125" y="586.5" text-anchor="middle" dominant-baseline="central" transform="matrix(1 0 0 1 -256 -315)">«include»</text></g></g><g><path fill="none" stroke="#000000" paint-order="fill stroke markers" d=" M 527 232 L 657 271" stroke-miterlimit="10" stroke-dasharray="3"/></g><g><path fill="none" stroke="#000000" paint-order="fill stroke markers" d=" M 646.0563268667663 272.1117636227807 L 657 271 L 648.4755189196567 264.0477901131462" stroke-miterlimit="10" stroke-dasharray=""/></g><g><rect fill="#ffffff" stroke="none" x="828" y="585" width="55.65625" height="13" transform="matrix(1 0 0 1 -256 -315)"/></g><g><g><path fill="none" stroke="none"/><text fill="#000000" stroke="none" font-family="Arial" font-size="13px" font-style="normal" font-weight="normal" text-decoration="undefined" x="855.828125" y="591.5" text-anchor="middle" dominant-baseline="central" transform="matrix(1 0 0 1 -256 -315)">«include»</text></g></g><g><path fill="none" stroke="#000000" paint-order="fill stroke markers" d=" M 305 200 L 162 196" stroke-miterlimit="10" stroke-dasharray=""/></g><g><path fill="#C0C0C0" stroke="none" paint-order="stroke fill markers" d=" M 665 309 C 665 289.11774720000005 709.77152 273 765 273 C 820.22848 273 865 289.11774720000005 865 309 C 865 328.88225279999995 820.22848 345 765 345 C 709.77152 345 665 328.88225279999995 665 309 Z" fill-opacity="0.2"/></g><g><path fill="#ffffff" stroke="none" paint-order="stroke fill markers" d=" M 658 302 C 658 282.11774720000005 702.77152 266 758 266 C 813.22848 266 858 282.11774720000005 858 302 C 858 321.88225279999995 813.22848 338 758 338 C 702.77152 338 658 321.88225279999995 658 302 Z"/></g><g><path fill="none" stroke="#000000" paint-order="fill stroke markers" d=" M 658 302 C 658 282.11774720000005 702.77152 266 758 266 C 813.22848 266 858 282.11774720000005 858 302 C 858 321.88225279999995 813.22848 338 758 338 C 702.77152 338 658 321.88225279999995 658 302 Z" stroke-miterlimit="10" stroke-dasharray=""/></g><g><g><path fill="none" stroke="none"/><text fill="#000000" stroke="none" font-family="Arial" font-size="13px" font-style="normal" font-weight="bold" text-decoration="undefined" x="1014" y="611.5" text-anchor="middle" dominant-baseline="central" transform="matrix(1 0 0 1 -256 -315)">UC12.2 - Conferma</text><text fill="#000000" stroke="none" font-family="Arial" font-size="13px" font-style="normal" font-weight="bold" text-decoration="undefined" x="1014" y="624.5" text-anchor="middle" dominant-baseline="central" transform="matrix(1 0 0 1 -256 -315)">password</text></g></g></g></svg>