<svg version="1.1" xmlns="http://www.w3.org/2000/svg" xmlns:xlink="http://www.w3.org/1999/xlink" width="1085" height="404"><defs/><g><g><rect fill="#C0C0C0" stroke="none" x="484" y="377" width="896" height="384" transform="matrix(1 0 0 1 -299 -360)" fill-opacity="0.2"/></g><g><rect fill="#ffffff" stroke="none" x="477" y="370" width="896" height="384" transform="matrix(1 0 0 1 -299 -360)"/></g><g><path fill="none" stroke="#000000" paint-order="fill stroke markers" d=" M 178 10 L 1074 10 L 1074 394 L 178 394 L 178 10 Z Z" stroke-miterlimit="10" stroke-dasharray=""/></g><g><g><path fill="none" stroke="none"/><text fill="#000000" stroke="none" font-family="Arial" font-size="13px" font-style="normal" font-weight="bold" text-decoration="undefined" x="925.5" y="383.5" text-anchor="middle" dominant-baseline="central" transform="matrix(1 0 0 1 -299 -360)">Sistema Cloud</text></g></g><g><path fill="#ffffff" stroke="none" paint-order="stroke fill markers" d=" M 76.57772460937503 203.85000000000002 C 76.57772460937503 198.96227952000004 80.53552697737501 195 85.417724609375 195 C 90.29992224137499 195 94.25772460937497 198.96227952000004 94.25772460937497 203.85000000000002 C 94.25772460937497 208.73772048 90.29992224137499 212.70000000000005 85.417724609375 212.70000000000005 C 80.53552697737501 212.70000000000005 76.57772460937503 208.73772048 76.57772460937503 203.85000000000002 Z"/></g><g><path fill="none" stroke="#000000" paint-order="fill stroke markers" d=" M 76.57772460937503 203.85000000000002 C 76.57772460937503 198.96227952000004 80.53552697737501 195 85.417724609375 195 C 90.29992224137499 195 94.25772460937497 198.96227952000004 94.25772460937497 203.85000000000002 C 94.25772460937497 208.73772048 90.29992224137499 212.70000000000005 85.417724609375 212.70000000000005 C 80.53552697737501 212.70000000000005 76.57772460937503 208.73772048 76.57772460937503 203.85000000000002 Z" stroke-miterlimit="10" stroke-dasharray=""/></g><g><path fill="none" stroke="#000000" paint-order="fill stroke markers" d=" M 85.417724609375 212.70000000000005 L 85.417724609375 230.29999999999995" stroke-miterlimit="10" stroke-dasharray=""/></g><g><path fill="none" stroke="#000000" paint-order="fill stroke markers" d=" M 76.05772460937499 219.29999999999995 L 94.77772460937501 219.29999999999995" stroke-miterlimit="10" stroke-dasharray=""/></g><g><path fill="none" stroke="#000000" paint-order="fill stroke markers" d=" M 85.417724609375 230.29999999999995 L 72.417724609375 248" stroke-miterlimit="10" stroke-dasharray=""/></g><g><path fill="none" stroke="#000000" paint-order="fill stroke markers" d=" M 85.417724609375 230.29999999999995 L 98.417724609375 248" stroke-miterlimit="10" stroke-dasharray=""/></g><g><g><path fill="none" stroke="none"/><text fill="#000000" stroke="none" font-family="Arial" font-size="13px" font-style="normal" font-weight="bold" text-decoration="undefined" x="384.917724609375" y="622.5" text-anchor="middle" dominant-baseline="central" transform="matrix(1 0 0 1 -299 -360)">Utente non autenticato</text></g></g><g><path fill="#C0C0C0" stroke="none" paint-order="stroke fill markers" d=" M 425 133 C 425 113.1177472 487.68012799999997 97 565 97 C 642.319872 97 705 113.1177472 705 133 C 705 152.88225279999995 642.319872 169 565 169 C 487.68012799999997 169 425 152.88225279999995 425 133 Z" fill-opacity="0.2"/></g><g><path fill="#ffffff" stroke="none" paint-order="stroke fill markers" d=" M 418 126 C 418 106.1177472 480.68012799999997 90 558 90 C 635.319872 90 698 106.1177472 698 126 C 698 145.8822528 635.319872 162 558 162 C 480.68012799999997 162 418 145.8822528 418 126 Z"/></g><g><path fill="none" stroke="#000000" paint-order="fill stroke markers" d=" M 418 126 C 418 106.1177472 480.68012799999997 90 558 90 C 635.319872 90 698 106.1177472 698 126 C 698 145.8822528 635.319872 162 558 162 C 480.68012799999997 162 418 145.8822528 418 126 Z" stroke-miterlimit="10" stroke-dasharray=""/></g><g><g><path fill="none" stroke="none"/><text fill="#000000" stroke="none" font-family="Arial" font-size="13px" font-style="normal" font-weight="bold" text-decoration="undefined" x="857" y="474" text-anchor="middle" dominant-baseline="central" transform="matrix(1 0 0 1 -299 -360)">UC14 - Password non</text><text fill="#000000" stroke="none" font-family="Arial" font-size="13px" font-style="normal" font-weight="bold" text-decoration="undefined" x="857" y="487" text-anchor="middle" dominant-baseline="central" transform="matrix(1 0 0 1 -299 -360)">conforme ai criteri di</text><text fill="#000000" stroke="none" font-family="Arial" font-size="13px" font-style="normal" font-weight="bold" text-decoration="undefined" x="857" y="500" text-anchor="middle" dominant-baseline="central" transform="matrix(1 0 0 1 -299 -360)">sicurezza</text></g></g><g><path fill="#C0C0C0" stroke="none" paint-order="stroke fill markers" d=" M 833 195.5 C 833 180.86445279999998 881.3532416 169 941 169 C 1000.6467584 169 1049 180.86445279999998 1049 195.5 C 1049 210.13554720000002 1000.6467584 222 941 222 C 881.3532416 222 833 210.13554720000002 833 195.5 Z" fill-opacity="0.2"/></g><g><path fill="#ffffff" stroke="none" paint-order="stroke fill markers" d=" M 826 188.5 C 826 173.86445279999998 874.3532416 162 934 162 C 993.6467584 162 1042 173.86445279999998 1042 188.5 C 1042 203.13554720000002 993.6467584 215 934 215 C 874.3532416 215 826 203.13554720000002 826 188.5 Z"/></g><g><path fill="none" stroke="#000000" paint-order="fill stroke markers" d=" M 826 188.5 C 826 173.86445279999998 874.3532416 162 934 162 C 993.6467584 162 1042 173.86445279999998 1042 188.5 C 1042 203.13554720000002 993.6467584 215 934 215 C 874.3532416 215 826 203.13554720000002 826 188.5 Z" stroke-miterlimit="10" stroke-dasharray=""/></g><g><g><path fill="none" stroke="none"/><text fill="#000000" stroke="none" font-family="Arial" font-size="13px" font-style="normal" font-weight="bold" text-decoration="undefined" x="1233" y="543" text-anchor="middle" dominant-baseline="central" transform="matrix(1 0 0 1 -299 -360)">UC13 - Password non</text><text fill="#000000" stroke="none" font-family="Arial" font-size="13px" font-style="normal" font-weight="bold" text-decoration="undefined" x="1233" y="556" text-anchor="middle" dominant-baseline="central" transform="matrix(1 0 0 1 -299 -360)">coincidenti</text></g></g><g><path fill="#C0C0C0" stroke="none" paint-order="stroke fill markers" d=" M 433 355.5 C 433 340.8644528 483.14410239999995 329 545 329 C 606.8558976 329 657 340.8644528 657 355.5 C 657 370.1355472 606.8558976 382 545 382 C 483.14410239999995 382 433 370.1355472 433 355.5 Z" fill-opacity="0.2"/></g><g><path fill="#ffffff" stroke="none" paint-order="stroke fill markers" d=" M 426 348.5 C 426 333.8644528 476.14410239999995 322 538 322 C 599.8558976 322 650 333.8644528 650 348.5 C 650 363.1355472 599.8558976 375 538 375 C 476.14410239999995 375 426 363.1355472 426 348.5 Z"/></g><g><path fill="none" stroke="#000000" paint-order="fill stroke markers" d=" M 426 348.5 C 426 333.8644528 476.14410239999995 322 538 322 C 599.8558976 322 650 333.8644528 650 348.5 C 650 363.1355472 599.8558976 375 538 375 C 476.14410239999995 375 426 363.1355472 426 348.5 Z" stroke-miterlimit="10" stroke-dasharray=""/></g><g><g><path fill="none" stroke="none"/><text fill="#000000" stroke="none" font-family="Arial" font-size="13px" font-style="normal" font-weight="bold" text-decoration="undefined" x="837" y="703" text-anchor="middle" dominant-baseline="central" transform="matrix(1 0 0 1 -299 -360)">UC12.1 - Inserimento</text><text fill="#000000" stroke="none" font-family="Arial" font-size="13px" font-style="normal" font-weight="bold" text-decoration="undefined" x="837" y="716" text-anchor="middle" dominant-baseline="central" transform="matrix(1 0 0 1 -299 -360)">nuova password</text></g></g><g><path fill="#C0C0C0" stroke="none" paint-order="stroke fill markers" d=" M 841 339.5 C 841 324.8644528 889.3532416 313 949 313 C 1008.6467584 313 1057 324.8644528 1057 339.5 C 1057 354.1355472 1008.6467584 366 949 366 C 889.3532416 366 841 354.1355472 841 339.5 Z" fill-opacity="0.2"/></g><g><path fill="#ffffff" stroke="none" paint-order="stroke fill markers" d=" M 834 332.5 C 834 317.8644528 882.3532416 306 942 306 C 1001.6467584 306 1050 317.8644528 1050 332.5 C 1050 347.1355472 1001.6467584 359 942 359 C 882.3532416 359 834 347.1355472 834 332.5 Z"/></g><g><path fill="none" stroke="#000000" paint-order="fill stroke markers" d=" M 834 332.5 C 834 317.8644528 882.3532416 306 942 306 C 1001.6467584 306 1050 317.8644528 1050 332.5 C 1050 347.1355472 1001.6467584 359 942 359 C 882.3532416 359 834 347.1355472 834 332.5 Z" stroke-miterlimit="10" stroke-dasharray=""/></g><g><g><path fill="none" stroke="none"/><text fill="#000000" stroke="none" font-family="Arial" font-size="13px" font-style="normal" font-weight="bold" text-decoration="undefined" x="1241" y="687" text-anchor="middle" dominant-baseline="central" transform="matrix(1 0 0 1 -299 -360)">UC12.2 - Conferma</text><text fill="#000000" stroke="none" font-family="Arial" font-size="13px" font-style="normal" font-weight="bold" text-decoration="undefined" x="1241" y="700" text-anchor="middle" dominant-baseline="central" transform="matrix(1 0 0 1 -299 -360)">password</text></g></g><g><path fill="none" stroke="#000000" paint-order="fill stroke markers" d=" M 551 163 L 543 201" stroke-miterlimit="10" stroke-dasharray="3"/></g><g><path fill="none" stroke="#000000" paint-order="fill stroke markers" d=" M 540.974394841125 190.18811192527698 L 543 201 L 549.2128402312196 191.9225214810864" stroke-miterlimit="10" stroke-dasharray=""/></g><g><rect fill="#ffffff" stroke="none" x="849" y="542" width="53.49169921875" height="13" transform="matrix(1 0 0 1 -299 -360)"/></g><g><g><path fill="none" stroke="none"/><text fill="#000000" stroke="none" font-family="Arial" font-size="13px" font-style="normal" font-weight="normal" text-decoration="undefined" x="875.745849609375" y="548.5" text-anchor="middle" dominant-baseline="central" transform="matrix(1 0 0 1 -299 -360)">«extend»</text></g></g><g><path fill="none" stroke="#000000" paint-order="fill stroke markers" d=" M 825 199 L 691 213" stroke-miterlimit="10" stroke-dasharray="3"/></g><g><path fill="none" stroke="#000000" paint-order="fill stroke markers" d=" M 700.6702396444521 207.75724640872102 L 691 213 L 701.5450786447745 216.13070541180753" stroke-miterlimit="10" stroke-dasharray=""/></g><g><rect fill="#ffffff" stroke="none" x="1029" y="544" width="53.49169921875" height="13" transform="matrix(1 0 0 1 -299 -360)"/></g><g><g><path fill="none" stroke="none"/><text fill="#000000" stroke="none" font-family="Arial" font-size="13px" font-style="normal" font-weight="normal" text-decoration="undefined" x="1055.745849609375" y="550.5" text-anchor="middle" dominant-baseline="central" transform="matrix(1 0 0 1 -299 -360)">«extend»</text></g></g><g><path fill="none" stroke="#000000" paint-order="fill stroke markers" d=" M 538 256 L 538 321" stroke-miterlimit="10" stroke-dasharray="3"/></g><g><path fill="none" stroke="#000000" paint-order="fill stroke markers" d=" M 533.790482243984 310.8373251423759 L 538 321 L 542.209517756016 310.8373251423759" stroke-miterlimit="10" stroke-dasharray=""/></g><g><rect fill="#ffffff" stroke="none" x="839" y="641" width="55.65625" height="13" transform="matrix(1 0 0 1 -299 -360)"/></g><g><g><path fill="none" stroke="none"/><text fill="#000000" stroke="none" font-family="Arial" font-size="13px" font-style="normal" font-weight="normal" text-decoration="undefined" x="866.828125" y="647.5" text-anchor="middle" dominant-baseline="central" transform="matrix(1 0 0 1 -299 -360)">«include»</text></g></g><g><path fill="none" stroke="#000000" paint-order="fill stroke markers" d=" M 647 256 L 837 305" stroke-miterlimit="10" stroke-dasharray="3"/></g><g><path fill="none" stroke="#000000" paint-order="fill stroke markers" d=" M 826.1080911631338 306.53828537319816 L 837 305 L 828.2105253825978 298.3859894201747" stroke-miterlimit="10" stroke-dasharray=""/></g><g><rect fill="#ffffff" stroke="none" x="1022" y="659" width="55.65625" height="13" transform="matrix(1 0 0 1 -299 -360)"/></g><g><g><path fill="none" stroke="none"/><text fill="#000000" stroke="none" font-family="Arial" font-size="13px" font-style="normal" font-weight="normal" text-decoration="undefined" x="1049.828125" y="665.5" text-anchor="middle" dominant-baseline="central" transform="matrix(1 0 0 1 -299 -360)">«include»</text></g></g><g><path fill="none" stroke="#000000" paint-order="fill stroke markers" d=" M 385 230 L 162 233" stroke-miterlimit="10" stroke-dasharray=""/></g><g><path fill="#ffffff" stroke="none" paint-order="stroke fill markers" d=" M 194 66 L 319 66 L 329 76 L 329 183 L 194 183 L 194 66"/></g><g><path fill="none" stroke="#000000" paint-order="fill stroke markers" d=" M 194 66 L 319 66 L 329 76 L 329 183 L 194 183 L 194 66 L 194 66" stroke-miterlimit="10" stroke-dasharray=""/></g><g><path fill="none" stroke="#000000" paint-order="fill stroke markers" d=" M 319 66 L 319 76 L 329 76 L 319 66" stroke-miterlimit="10" stroke-dasharray=""/></g><g><g><path fill="none" stroke="none"/><text fill="#000000" stroke="none" font-family="Arial" font-size="13px" font-style="normal" font-weight="normal" text-decoration="undefined" x="561" y="438" text-anchor="middle" dominant-baseline="text-before-edge" transform="matrix(1 0 0 1 -299 -360)">Condizione:</text></g></g><g><g><path fill="none" stroke="none"/><text fill="#000000" stroke="none" font-family="Arial" font-size="13px" font-style="normal" font-weight="normal" text-decoration="undefined" x="561" y="453" text-anchor="middle" dominant-baseline="text-before-edge" transform="matrix(1 0 0 1 -299 -360)">L'utente ha inserito</text><text fill="#000000" stroke="none" font-family="Arial" font-size="13px" font-style="normal" font-weight="normal" text-decoration="undefined" x="561" y="466" text-anchor="middle" dominant-baseline="text-before-edge" transform="matrix(1 0 0 1 -299 -360)">una nuova password</text><text fill="#000000" stroke="none" font-family="Arial" font-size="13px" font-style="normal" font-weight="normal" text-decoration="undefined" x="561" y="479" text-anchor="middle" dominant-baseline="text-before-edge" transform="matrix(1 0 0 1 -299 -360)">che non corrisponde</text><text fill="#000000" stroke="none" font-family="Arial" font-size="13px" font-style="normal" font-weight="normal" text-decoration="undefined" x="561" y="492" text-anchor="middle" dominant-baseline="text-before-edge" transform="matrix(1 0 0 1 -299 -360)">ai criteri di sicurezza</text><text fill="#000000" stroke="none" font-family="Arial" font-size="13px" font-style="normal" font-weight="normal" text-decoration="undefined" x="561" y="505" text-anchor="middle" dominant-baseline="text-before-edge" transform="matrix(1 0 0 1 -299 -360)">stabiliti</text></g></g><g><path fill="#ffffff" stroke="none" paint-order="stroke fill markers" d=" M 746 18 L 871 18 L 881 28 L 881 135 L 746 135 L 746 18"/></g><g><path fill="none" stroke="#000000" paint-order="fill stroke markers" d=" M 746 18 L 871 18 L 881 28 L 881 135 L 746 135 L 746 18 L 746 18" stroke-miterlimit="10" stroke-dasharray=""/></g><g><path fill="none" stroke="#000000" paint-order="fill stroke markers" d=" M 871 18 L 871 28 L 881 28 L 871 18" stroke-miterlimit="10" stroke-dasharray=""/></g><g><g><path fill="none" stroke="none"/><text fill="#000000" stroke="none" font-family="Arial" font-size="13px" font-style="normal" font-weight="normal" text-decoration="undefined" x="1113" y="383" text-anchor="middle" dominant-baseline="text-before-edge" transform="matrix(1 0 0 1 -299 -360)">Condizione:</text></g></g><g><g><path fill="none" stroke="none"/><text fill="#000000" stroke="none" font-family="Arial" font-size="13px" font-style="normal" font-weight="normal" text-decoration="undefined" x="1113" y="398" text-anchor="middle" dominant-baseline="text-before-edge" transform="matrix(1 0 0 1 -299 -360)">L'utente ha inserito</text><text fill="#000000" stroke="none" font-family="Arial" font-size="13px" font-style="normal" font-weight="normal" text-decoration="undefined" x="1113" y="411" text-anchor="middle" dominant-baseline="text-before-edge" transform="matrix(1 0 0 1 -299 -360)">una nuova password</text><text fill="#000000" stroke="none" font-family="Arial" font-size="13px" font-style="normal" font-weight="normal" text-decoration="undefined" x="1113" y="424" text-anchor="middle" dominant-baseline="text-before-edge" transform="matrix(1 0 0 1 -299 -360)">che non corrisponde</text><text fill="#000000" stroke="none" font-family="Arial" font-size="13px" font-style="normal" font-weight="normal" text-decoration="undefined" x="1113" y="437" text-anchor="middle" dominant-baseline="text-before-edge" transform="matrix(1 0 0 1 -299 -360)">al campo in cui deve</text><text fill="#000000" stroke="none" font-family="Arial" font-size="13px" font-style="normal" font-weight="normal" text-decoration="undefined" x="1113" y="450" text-anchor="middle" dominant-baseline="text-before-edge" transform="matrix(1 0 0 1 -299 -360)">confermare la stessa</text></g></g><g><path fill="none" stroke="#000000" paint-order="fill stroke markers" d=" M 331 139 L 547 182" stroke-miterlimit="10" stroke-dasharray="3"/></g><g><path fill="none" stroke="#000000" paint-order="fill stroke markers" d=" M 788 137 L 758 206" stroke-miterlimit="10" stroke-dasharray="3"/></g><g><path fill="#C0C0C0" stroke="none" paint-order="stroke fill markers" d=" M 393 235.5 C 393 220.86445279999998 461.0527104 209 545 209 C 628.9472896 209 697 220.86445279999998 697 235.5 C 697 250.13554720000002 628.9472896 262 545 262 C 461.0527104 262 393 250.13554720000002 393 235.5 Z" fill-opacity="0.2"/></g><g><path fill="#ffffff" stroke="none" paint-order="stroke fill markers" d=" M 386 228.5 C 386 213.86445279999998 454.0527104 202 538 202 C 621.9472896 202 690 213.86445279999998 690 228.5 C 690 243.13554720000002 621.9472896 255 538 255 C 454.0527104 255 386 243.13554720000002 386 228.5 Z"/></g><g><path fill="none" stroke="#000000" paint-order="fill stroke markers" d=" M 386 228.5 C 386 213.86445279999998 454.0527104 202 538 202 C 621.9472896 202 690 213.86445279999998 690 228.5 C 690 243.13554720000002 621.9472896 255 538 255 C 454.0527104 255 386 243.13554720000002 386 228.5 Z" stroke-miterlimit="10" stroke-dasharray=""/></g><g><g><path fill="none" stroke="none"/><text fill="#000000" stroke="none" font-family="Arial" font-size="13px" font-style="normal" font-weight="bold" text-decoration="undefined" x="837" y="583" text-anchor="middle" dominant-baseline="central" transform="matrix(1 0 0 1 -299 -360)">UC12 - Reimpostazione</text><text fill="#000000" stroke="none" font-family="Arial" font-size="13px" font-style="normal" font-weight="bold" text-decoration="undefined" x="837" y="596" text-anchor="middle" dominant-baseline="central" transform="matrix(1 0 0 1 -299 -360)">password dimenticata</text></g></g></g></svg>