<svg version="1.1" xmlns="http://www.w3.org/2000/svg" xmlns:xlink="http://www.w3.org/1999/xlink" width="821" height="372"><defs/><g><g><rect fill="#C0C0C0" stroke="none" x="301" y="242" width="664" height="352" transform="matrix(1 0 0 1 -148 -225)" fill-opacity="0.2"/></g><g><rect fill="#ffffff" stroke="none" x="294" y="235" width="664" height="352" transform="matrix(1 0 0 1 -148 -225)"/></g><g><path fill="none" stroke="#000000" paint-order="fill stroke markers" d=" M 146 10 L 810 10 L 810 362 L 146 362 L 146 10 Z Z" stroke-miterlimit="10" stroke-dasharray=""/></g><g><g><path fill="none" stroke="none"/><text fill="#000000" stroke="none" font-family="Arial" font-size="13px" font-style="normal" font-weight="bold" text-decoration="undefined" x="626.5" y="248.5" text-anchor="middle" dominant-baseline="central" transform="matrix(1 0 0 1 -148 -225)">Sistema Cloud</text></g></g><g><path fill="#ffffff" stroke="none" paint-order="stroke fill markers" d=" M 32.896328125 99.85000000000002 C 32.896328125 94.96227952000004 36.854130492999985 91 41.736328125 91 C 46.618525757000015 91 50.576328125 94.96227952000004 50.576328125 99.85000000000002 C 50.576328125 104.73772048000001 46.618525757000015 108.69999999999999 41.736328125 108.69999999999999 C 36.854130492999985 108.69999999999999 32.896328125 104.73772048000001 32.896328125 99.85000000000002 Z"/></g><g><path fill="none" stroke="#000000" paint-order="fill stroke markers" d=" M 32.896328125 99.85000000000002 C 32.896328125 94.96227952000004 36.854130492999985 91 41.736328125 91 C 46.618525757000015 91 50.576328125 94.96227952000004 50.576328125 99.85000000000002 C 50.576328125 104.73772048000001 46.618525757000015 108.69999999999999 41.736328125 108.69999999999999 C 36.854130492999985 108.69999999999999 32.896328125 104.73772048000001 32.896328125 99.85000000000002 Z" stroke-miterlimit="10" stroke-dasharray=""/></g><g><path fill="none" stroke="#000000" paint-order="fill stroke markers" d=" M 41.736328125 108.69999999999999 L 41.736328125 126.30000000000001" stroke-miterlimit="10" stroke-dasharray=""/></g><g><path fill="none" stroke="#000000" paint-order="fill stroke markers" d=" M 32.376328124999986 115.30000000000001 L 51.096328125000014 115.30000000000001" stroke-miterlimit="10" stroke-dasharray=""/></g><g><path fill="none" stroke="#000000" paint-order="fill stroke markers" d=" M 41.736328125 126.30000000000001 L 28.736328125 144" stroke-miterlimit="10" stroke-dasharray=""/></g><g><path fill="none" stroke="#000000" paint-order="fill stroke markers" d=" M 41.736328125 126.30000000000001 L 54.736328125 144" stroke-miterlimit="10" stroke-dasharray=""/></g><g><g><path fill="none" stroke="none"/><text fill="#000000" stroke="none" font-family="Arial" font-size="13px" font-style="normal" font-weight="bold" text-decoration="undefined" x="190.236328125" y="383.5" text-anchor="middle" dominant-baseline="central" transform="matrix(1 0 0 1 -148 -225)">Gateway</text></g></g><g><path fill="#C0C0C0" stroke="none" paint-order="stroke fill markers" d=" M 217 133 C 217 113.1177472 265.3532416 97 325 97 C 384.64675839999995 97 433 113.1177472 433 133 C 433 152.8822528 384.64675839999995 169 325 169 C 265.3532416 169 217 152.8822528 217 133 Z" fill-opacity="0.2"/></g><g><path fill="#ffffff" stroke="none" paint-order="stroke fill markers" d=" M 210 126 C 210 106.1177472 258.3532416 90 318 90 C 377.64675839999995 90 426 106.1177472 426 126 C 426 145.8822528 377.64675839999995 162 318 162 C 258.3532416 162 210 145.8822528 210 126 Z"/></g><g><path fill="none" stroke="#000000" paint-order="fill stroke markers" d=" M 210 126 C 210 106.1177472 258.3532416 90 318 90 C 377.64675839999995 90 426 106.1177472 426 126 C 426 145.8822528 377.64675839999995 162 318 162 C 258.3532416 162 210 145.8822528 210 126 Z" stroke-miterlimit="10" stroke-dasharray=""/></g><g><g><path fill="none" stroke="none"/><text fill="#000000" stroke="none" font-family="Arial" font-size="13px" font-style="normal" font-weight="bold" text-decoration="undefined" x="466" y="339" text-anchor="middle" dominant-baseline="central" transform="matrix(1 0 0 1 -148 -225)">UC126 - Conferma</text><text fill="#000000" stroke="none" font-family="Arial" font-size="13px" font-style="normal" font-weight="bold" text-decoration="undefined" x="466" y="352" text-anchor="middle" dominant-baseline="central" transform="matrix(1 0 0 1 -148 -225)">esecuzione</text><text fill="#000000" stroke="none" font-family="Arial" font-size="13px" font-style="normal" font-weight="bold" text-decoration="undefined" x="466" y="365" text-anchor="middle" dominant-baseline="central" transform="matrix(1 0 0 1 -148 -225)">commissioning</text></g></g><g><path fill="#C0C0C0" stroke="none" paint-order="stroke fill markers" d=" M 233 277 C 233 257.1177472 272.3989376 241 321 241 C 369.60106240000005 241 409 257.1177472 409 277 C 409 296.88225279999995 369.60106240000005 313 321 313 C 272.3989376 313 233 296.88225279999995 233 277 Z" fill-opacity="0.2"/></g><g><path fill="#ffffff" stroke="none" paint-order="stroke fill markers" d=" M 226 270 C 226 250.1177472 265.3989376 234 314 234 C 362.6010624 234 402 250.1177472 402 270 C 402 289.88225279999995 362.6010624 306 314 306 C 265.3989376 306 226 289.88225279999995 226 270 Z"/></g><g><path fill="none" stroke="#000000" paint-order="fill stroke markers" d=" M 226 270 C 226 250.1177472 265.3989376 234 314 234 C 362.6010624 234 402 250.1177472 402 270 C 402 289.88225279999995 362.6010624 306 314 306 C 265.3989376 306 226 289.88225279999995 226 270 Z" stroke-miterlimit="10" stroke-dasharray=""/></g><g><g><path fill="none" stroke="none"/><text fill="#000000" stroke="none" font-family="Arial" font-size="13px" font-style="normal" font-weight="bold" text-decoration="undefined" x="462" y="489.5" text-anchor="middle" dominant-baseline="central" transform="matrix(1 0 0 1 -148 -225)">UC127 - Errore nel</text><text fill="#000000" stroke="none" font-family="Arial" font-size="13px" font-style="normal" font-weight="bold" text-decoration="undefined" x="462" y="502.5" text-anchor="middle" dominant-baseline="central" transform="matrix(1 0 0 1 -148 -225)">commissioning</text></g></g><g><path fill="#C0C0C0" stroke="none" paint-order="stroke fill markers" d=" M 537 139.5 C 537 124.86445279999998 576.3989376 113 625 113 C 673.6010624 113 713 124.86445279999998 713 139.5 C 713 154.13554720000002 673.6010624 166 625 166 C 576.3989376 166 537 154.13554720000002 537 139.5 Z" fill-opacity="0.2"/></g><g><path fill="#ffffff" stroke="none" paint-order="stroke fill markers" d=" M 530 132.5 C 530 117.86445279999998 569.3989376 106 618 106 C 666.6010624 106 706 117.86445279999998 706 132.5 C 706 147.13554720000002 666.6010624 159 618 159 C 569.3989376 159 530 147.13554720000002 530 132.5 Z"/></g><g><path fill="none" stroke="#000000" paint-order="fill stroke markers" d=" M 530 132.5 C 530 117.86445279999998 569.3989376 106 618 106 C 666.6010624 106 706 117.86445279999998 706 132.5 C 706 147.13554720000002 666.6010624 159 618 159 C 569.3989376 159 530 147.13554720000002 530 132.5 Z" stroke-miterlimit="10" stroke-dasharray=""/></g><g><g><path fill="none" stroke="none"/><text fill="#000000" stroke="none" font-family="Arial" font-size="13px" font-style="normal" font-weight="bold" text-decoration="undefined" x="766" y="352" text-anchor="middle" dominant-baseline="central" transform="matrix(1 0 0 1 -148 -225)">UC141 - Invio dati</text><text fill="#000000" stroke="none" font-family="Arial" font-size="13px" font-style="normal" font-weight="bold" text-decoration="undefined" x="766" y="365" text-anchor="middle" dominant-baseline="central" transform="matrix(1 0 0 1 -148 -225)">crittografati</text></g></g><g><path fill="#C0C0C0" stroke="none" paint-order="stroke fill markers" d=" M 545 275.5 C 545 260.8644528 582.6080768 249 629 249 C 675.3919232 249 713 260.8644528 713 275.5 C 713 290.1355472 675.3919232 302 629 302 C 582.6080768 302 545 290.1355472 545 275.5 Z" fill-opacity="0.2"/></g><g><path fill="#ffffff" stroke="none" paint-order="stroke fill markers" d=" M 538 268.5 C 538 253.86445279999998 575.6080768 242 622 242 C 668.3919232 242 706 253.86445279999998 706 268.5 C 706 283.1355472 668.3919232 295 622 295 C 575.6080768 295 538 283.1355472 538 268.5 Z"/></g><g><path fill="none" stroke="#000000" paint-order="fill stroke markers" d=" M 538 268.5 C 538 253.86445279999998 575.6080768 242 622 242 C 668.3919232 242 706 253.86445279999998 706 268.5 C 706 283.1355472 668.3919232 295 622 295 C 575.6080768 295 538 283.1355472 538 268.5 Z" stroke-miterlimit="10" stroke-dasharray=""/></g><g><g><path fill="none" stroke="none"/><text fill="#000000" stroke="none" font-family="Arial" font-size="13px" font-style="normal" font-weight="bold" text-decoration="undefined" x="770" y="488" text-anchor="middle" dominant-baseline="central" transform="matrix(1 0 0 1 -148 -225)">UC142 - Invio</text><text fill="#000000" stroke="none" font-family="Arial" font-size="13px" font-style="normal" font-weight="bold" text-decoration="undefined" x="770" y="501" text-anchor="middle" dominant-baseline="central" transform="matrix(1 0 0 1 -148 -225)">dati fallito</text></g></g><g><path fill="none" stroke="#000000" paint-order="fill stroke markers" d=" M 621 241 L 619 160" stroke-miterlimit="10" stroke-dasharray="3"/></g><g><path fill="none" stroke="#000000" paint-order="fill stroke markers" d=" M 623.4590889353974 170.05567132847017 L 619 160 L 615.042618638389 170.26348540987777" stroke-miterlimit="10" stroke-dasharray=""/></g><g><rect fill="#ffffff" stroke="none" x="712" y="419" width="53.49169921875" height="13" transform="matrix(1 0 0 1 -148 -225)"/></g><g><g><path fill="none" stroke="none"/><text fill="#000000" stroke="none" font-family="Arial" font-size="13px" font-style="normal" font-weight="normal" text-decoration="undefined" x="738.745849609375" y="425.5" text-anchor="middle" dominant-baseline="central" transform="matrix(1 0 0 1 -148 -225)">«extend»</text></g></g><g><path fill="none" stroke="#000000" paint-order="fill stroke markers" d=" M 427 128 L 529 130" stroke-miterlimit="10" stroke-dasharray="3"/></g><g><path fill="none" stroke="#000000" paint-order="fill stroke markers" d=" M 518.7567544868664 134.00947893842437 L 529 130 L 518.9218018899201 125.59206138268911" stroke-miterlimit="10" stroke-dasharray=""/></g><g><rect fill="#ffffff" stroke="none" x="599" y="318" width="55.65625" height="13" transform="matrix(1 0 0 1 -148 -225)"/></g><g><g><path fill="none" stroke="none"/><text fill="#000000" stroke="none" font-family="Arial" font-size="13px" font-style="normal" font-weight="normal" text-decoration="undefined" x="626.828125" y="324.5" text-anchor="middle" dominant-baseline="central" transform="matrix(1 0 0 1 -148 -225)">«include»</text></g></g><g><path fill="none" stroke="#000000" paint-order="fill stroke markers" d=" M 315 233 L 317 163" stroke-miterlimit="10" stroke-dasharray="3"/></g><g><path fill="none" stroke="#000000" paint-order="fill stroke markers" d=" M 320.9175569405878 173.2787522402893 L 317 163 L 312.5019556671291 173.03830648961906" stroke-miterlimit="10" stroke-dasharray=""/></g><g><rect fill="#ffffff" stroke="none" x="408" y="416" width="53.49169921875" height="13" transform="matrix(1 0 0 1 -148 -225)"/></g><g><g><path fill="none" stroke="none"/><text fill="#000000" stroke="none" font-family="Arial" font-size="13px" font-style="normal" font-weight="normal" text-decoration="undefined" x="434.745849609375" y="422.5" text-anchor="middle" dominant-baseline="central" transform="matrix(1 0 0 1 -148 -225)">«extend»</text></g></g><g><path fill="none" stroke="#000000" paint-order="fill stroke markers" d=" M 74 130 L 209 128" stroke-miterlimit="10" stroke-dasharray=""/></g></g></svg>