<svg version="1.1" xmlns="http://www.w3.org/2000/svg" xmlns:xlink="http://www.w3.org/1999/xlink" width="869" height="388"><defs/><g><g><rect fill="#C0C0C0" stroke="none" x="301" y="234" width="688" height="368" transform="matrix(1 0 0 1 -124 -217)" fill-opacity="0.2"/></g><g><rect fill="#ffffff" stroke="none" x="294" y="227" width="688" height="368" transform="matrix(1 0 0 1 -124 -217)"/></g><g><path fill="none" stroke="#000000" paint-order="fill stroke markers" d=" M 170 10 L 858 10 L 858 378 L 170 378 L 170 10 Z Z" stroke-miterlimit="10" stroke-dasharray=""/></g><g><g><path fill="none" stroke="none"/><text fill="#000000" stroke="none" font-family="Arial" font-size="13px" font-style="normal" font-weight="bold" text-decoration="undefined" x="638.5" y="240.5" text-anchor="middle" dominant-baseline="central" transform="matrix(1 0 0 1 -124 -217)">Sistema Cloud</text></g></g><g><path fill="#ffffff" stroke="none" paint-order="stroke fill markers" d=" M 46.607265625 115.85000000000002 C 46.607265625 110.96227952000004 50.565067992999985 107 55.447265625 107 C 60.329463257000015 107 64.287265625 110.96227952000004 64.287265625 115.85000000000002 C 64.287265625 120.73772048000001 60.329463257000015 124.69999999999999 55.447265625 124.69999999999999 C 50.565067992999985 124.69999999999999 46.607265625 120.73772048000001 46.607265625 115.85000000000002 Z"/></g><g><path fill="none" stroke="#000000" paint-order="fill stroke markers" d=" M 46.607265625 115.85000000000002 C 46.607265625 110.96227952000004 50.565067992999985 107 55.447265625 107 C 60.329463257000015 107 64.287265625 110.96227952000004 64.287265625 115.85000000000002 C 64.287265625 120.73772048000001 60.329463257000015 124.69999999999999 55.447265625 124.69999999999999 C 50.565067992999985 124.69999999999999 46.607265625 120.73772048000001 46.607265625 115.85000000000002 Z" stroke-miterlimit="10" stroke-dasharray=""/></g><g><path fill="none" stroke="#000000" paint-order="fill stroke markers" d=" M 55.447265625 124.69999999999999 L 55.447265625 142.3" stroke-miterlimit="10" stroke-dasharray=""/></g><g><path fill="none" stroke="#000000" paint-order="fill stroke markers" d=" M 46.087265624999986 131.3 L 64.80726562500001 131.3" stroke-miterlimit="10" stroke-dasharray=""/></g><g><path fill="none" stroke="#000000" paint-order="fill stroke markers" d=" M 55.447265625 142.3 L 42.447265625 160" stroke-miterlimit="10" stroke-dasharray=""/></g><g><path fill="none" stroke="#000000" paint-order="fill stroke markers" d=" M 55.447265625 142.3 L 68.447265625 160" stroke-miterlimit="10" stroke-dasharray=""/></g><g><g><path fill="none" stroke="none"/><text fill="#000000" stroke="none" font-family="Arial" font-size="13px" font-style="normal" font-weight="bold" text-decoration="undefined" x="179.947265625" y="391.5" text-anchor="middle" dominant-baseline="central" transform="matrix(1 0 0 1 -124 -217)">Super Admin</text></g></g><g><path fill="#C0C0C0" stroke="none" paint-order="stroke fill markers" d=" M 217 129 C 217 106.90860800000002 270.725824 89 337 89 C 403.274176 89 457 106.90860800000002 457 129 C 457 151.09139199999998 403.274176 169 337 169 C 270.725824 169 217 151.09139199999998 217 129 Z" fill-opacity="0.2"/></g><g><path fill="#ffffff" stroke="none" paint-order="stroke fill markers" d=" M 210 122 C 210 99.90860800000002 263.725824 82 330 82 C 396.274176 82 450 99.90860800000002 450 122 C 450 144.09139199999998 396.274176 162 330 162 C 263.725824 162 210 144.09139199999998 210 122 Z"/></g><g><path fill="none" stroke="#000000" paint-order="fill stroke markers" d=" M 210 122 C 210 99.90860800000002 263.725824 82 330 82 C 396.274176 82 450 99.90860800000002 450 122 C 450 144.09139199999998 396.274176 162 330 162 C 263.725824 162 210 144.09139199999998 210 122 Z" stroke-miterlimit="10" stroke-dasharray=""/></g><g><g><path fill="none" stroke="none"/><text fill="#000000" stroke="none" font-family="Arial" font-size="13px" font-style="normal" font-weight="bold" text-decoration="undefined" x="454" y="327" text-anchor="middle" dominant-baseline="central" transform="matrix(1 0 0 1 -124 -217)">UC124 - Visualizzazione</text><text fill="#000000" stroke="none" font-family="Arial" font-size="13px" font-style="normal" font-weight="bold" text-decoration="undefined" x="454" y="340" text-anchor="middle" dominant-baseline="central" transform="matrix(1 0 0 1 -124 -217)">storico dei Tenant</text><text fill="#000000" stroke="none" font-family="Arial" font-size="13px" font-style="normal" font-weight="bold" text-decoration="undefined" x="454" y="353" text-anchor="middle" dominant-baseline="central" transform="matrix(1 0 0 1 -124 -217)">possessori di gateway</text></g></g><g><path fill="#C0C0C0" stroke="none" paint-order="stroke fill markers" d=" M 217 269 C 217 249.1177472 274.3075456 233 345 233 C 415.6924544 233 473 249.1177472 473 269 C 473 288.8822528 415.6924544 305 345 305 C 274.3075456 305 217 288.8822528 217 269 Z" fill-opacity="0.2"/></g><g><path fill="#ffffff" stroke="none" paint-order="stroke fill markers" d=" M 210 262 C 210 242.1177472 267.3075456 226 338 226 C 408.6924544 226 466 242.1177472 466 262 C 466 281.8822528 408.6924544 298 338 298 C 267.3075456 298 210 281.8822528 210 262 Z"/></g><g><path fill="none" stroke="#000000" paint-order="fill stroke markers" d=" M 210 262 C 210 242.1177472 267.3075456 226 338 226 C 408.6924544 226 466 242.1177472 466 262 C 466 281.8822528 408.6924544 298 338 298 C 267.3075456 298 210 281.8822528 210 262 Z" stroke-miterlimit="10" stroke-dasharray=""/></g><g><g><path fill="none" stroke="none"/><text fill="#000000" stroke="none" font-family="Arial" font-size="13px" font-style="normal" font-weight="bold" text-decoration="undefined" x="462" y="467" text-anchor="middle" dominant-baseline="central" transform="matrix(1 0 0 1 -124 -217)">UC125 - Visualizzazione</text><text fill="#000000" stroke="none" font-family="Arial" font-size="13px" font-style="normal" font-weight="bold" text-decoration="undefined" x="462" y="480" text-anchor="middle" dominant-baseline="central" transform="matrix(1 0 0 1 -124 -217)">singolo Tenant possessore</text><text fill="#000000" stroke="none" font-family="Arial" font-size="13px" font-style="normal" font-weight="bold" text-decoration="undefined" x="462" y="493" text-anchor="middle" dominant-baseline="central" transform="matrix(1 0 0 1 -124 -217)">del gateway</text></g></g><g><path fill="#C0C0C0" stroke="none" paint-order="stroke fill markers" d=" M 569 141 C 569 121.1177472 624.5166848 105 693 105 C 761.4833152 105 817 121.1177472 817 141 C 817 160.8822528 761.4833152 177 693 177 C 624.5166848 177 569 160.8822528 569 141 Z" fill-opacity="0.2"/></g><g><path fill="#ffffff" stroke="none" paint-order="stroke fill markers" d=" M 562 134 C 562 114.1177472 617.5166848 98 686 98 C 754.4833152 98 810 114.1177472 810 134 C 810 153.8822528 754.4833152 170 686 170 C 617.5166848 170 562 153.8822528 562 134 Z"/></g><g><path fill="none" stroke="#000000" paint-order="fill stroke markers" d=" M 562 134 C 562 114.1177472 617.5166848 98 686 98 C 754.4833152 98 810 114.1177472 810 134 C 810 153.8822528 754.4833152 170 686 170 C 617.5166848 170 562 153.8822528 562 134 Z" stroke-miterlimit="10" stroke-dasharray=""/></g><g><g><path fill="none" stroke="none"/><text fill="#000000" stroke="none" font-family="Arial" font-size="13px" font-style="normal" font-weight="bold" text-decoration="undefined" x="810" y="339" text-anchor="middle" dominant-baseline="central" transform="matrix(1 0 0 1 -124 -217)">UC125.1 - Visualizzazione</text><text fill="#000000" stroke="none" font-family="Arial" font-size="13px" font-style="normal" font-weight="bold" text-decoration="undefined" x="810" y="352" text-anchor="middle" dominant-baseline="central" transform="matrix(1 0 0 1 -124 -217)">Tenant possessore del</text><text fill="#000000" stroke="none" font-family="Arial" font-size="13px" font-style="normal" font-weight="bold" text-decoration="undefined" x="810" y="365" text-anchor="middle" dominant-baseline="central" transform="matrix(1 0 0 1 -124 -217)">gateway</text></g></g><g><path fill="#C0C0C0" stroke="none" paint-order="stroke fill markers" d=" M 561 293 C 561 273.1177472 618.3075456 257 689 257 C 759.6924544 257 817 273.1177472 817 293 C 817 312.88225279999995 759.6924544 329 689 329 C 618.3075456 329 561 312.88225279999995 561 293 Z" fill-opacity="0.2"/></g><g><path fill="#ffffff" stroke="none" paint-order="stroke fill markers" d=" M 554 286 C 554 266.1177472 611.3075456 250 682 250 C 752.6924544 250 810 266.1177472 810 286 C 810 305.88225279999995 752.6924544 322 682 322 C 611.3075456 322 554 305.88225279999995 554 286 Z"/></g><g><path fill="none" stroke="#000000" paint-order="fill stroke markers" d=" M 554 286 C 554 266.1177472 611.3075456 250 682 250 C 752.6924544 250 810 266.1177472 810 286 C 810 305.88225279999995 752.6924544 322 682 322 C 611.3075456 322 554 305.88225279999995 554 286 Z" stroke-miterlimit="10" stroke-dasharray=""/></g><g><g><path fill="none" stroke="none"/><text fill="#000000" stroke="none" font-family="Arial" font-size="13px" font-style="normal" font-weight="bold" text-decoration="undefined" x="806" y="491" text-anchor="middle" dominant-baseline="central" transform="matrix(1 0 0 1 -124 -217)">UC125.2 - Visualizzazione</text><text fill="#000000" stroke="none" font-family="Arial" font-size="13px" font-style="normal" font-weight="bold" text-decoration="undefined" x="806" y="504" text-anchor="middle" dominant-baseline="central" transform="matrix(1 0 0 1 -124 -217)">periodo di associazione</text><text fill="#000000" stroke="none" font-family="Arial" font-size="13px" font-style="normal" font-weight="bold" text-decoration="undefined" x="806" y="517" text-anchor="middle" dominant-baseline="central" transform="matrix(1 0 0 1 -124 -217)">gateway</text></g></g><g><path fill="none" stroke="#000000" paint-order="fill stroke markers" d=" M 102 142 L 209 133" stroke-miterlimit="10" stroke-dasharray=""/></g><g><path fill="none" stroke="#000000" paint-order="fill stroke markers" d=" M 332 163 L 336 225" stroke-miterlimit="10" stroke-dasharray="3"/></g><g><path fill="none" stroke="#000000" paint-order="fill stroke markers" d=" M 331.14491953483304 215.1294278951646 L 336 225 L 339.54648814939395 214.5873912103542" stroke-miterlimit="10" stroke-dasharray=""/></g><g><rect fill="#ffffff" stroke="none" x="460" y="403" width="55.65625" height="13" transform="matrix(1 0 0 1 -124 -217)"/></g><g><g><path fill="none" stroke="none"/><text fill="#000000" stroke="none" font-family="Arial" font-size="13px" font-style="normal" font-weight="normal" text-decoration="undefined" x="487.828125" y="409.5" text-anchor="middle" dominant-baseline="central" transform="matrix(1 0 0 1 -124 -217)">«include»</text></g></g><g><path fill="none" stroke="#000000" paint-order="fill stroke markers" d=" M 439 225 L 585 171" stroke-miterlimit="10" stroke-dasharray="3"/></g><g><path fill="none" stroke="#000000" paint-order="fill stroke markers" d=" M 576.9286544906375 178.47351200363624 L 585 171 L 574.00812583998 170.57726787408052" stroke-miterlimit="10" stroke-dasharray=""/></g><g><rect fill="#ffffff" stroke="none" x="598" y="380" width="55.65625" height="13" transform="matrix(1 0 0 1 -124 -217)"/></g><g><g><path fill="none" stroke="none"/><text fill="#000000" stroke="none" font-family="Arial" font-size="13px" font-style="normal" font-weight="normal" text-decoration="undefined" x="625.828125" y="386.5" text-anchor="middle" dominant-baseline="central" transform="matrix(1 0 0 1 -124 -217)">«include»</text></g></g><g><path fill="none" stroke="#000000" paint-order="fill stroke markers" d=" M 467 271 L 553 277" stroke-miterlimit="10" stroke-dasharray="3"/></g><g><path fill="none" stroke="#000000" paint-order="fill stroke markers" d=" M 542.5689934808889 280.49200558393926 L 553 277 L 543.1549437273908 272.09338538408025" stroke-miterlimit="10" stroke-dasharray=""/></g><g><rect fill="#ffffff" stroke="none" x="609" y="455" width="55.65625" height="13" transform="matrix(1 0 0 1 -124 -217)"/></g><g><g><path fill="none" stroke="none"/><text fill="#000000" stroke="none" font-family="Arial" font-size="13px" font-style="normal" font-weight="normal" text-decoration="undefined" x="636.828125" y="461.5" text-anchor="middle" dominant-baseline="central" transform="matrix(1 0 0 1 -124 -217)">«include»</text></g></g></g></svg>