<svg version="1.1" xmlns="http://www.w3.org/2000/svg" xmlns:xlink="http://www.w3.org/1999/xlink" width="773" height="388"><defs/><g><g><rect fill="#C0C0C0" stroke="none" x="402" y="211" width="616" height="368" transform="matrix(1 0 0 1 -249 -194)" fill-opacity="0.2"/></g><g><rect fill="#ffffff" stroke="none" x="395" y="204" width="616" height="368" transform="matrix(1 0 0 1 -249 -194)"/></g><g><path fill="none" stroke="#000000" paint-order="fill stroke markers" d=" M 146 10 L 762 10 L 762 378 L 146 378 L 146 10 Z Z" stroke-miterlimit="10" stroke-dasharray=""/></g><g><g><path fill="none" stroke="none"/><text fill="#000000" stroke="none" font-family="Arial" font-size="13px" font-style="normal" font-weight="bold" text-decoration="undefined" x="703.5" y="217.5" text-anchor="middle" dominant-baseline="central" transform="matrix(1 0 0 1 -249 -194)">Sistema Gateway</text></g></g><g><path fill="#ffffff" stroke="none" paint-order="stroke fill markers" d=" M 32.896328125000025 99.85000000000002 C 32.896328125000025 94.96227952000004 36.854130493000014 91 41.736328125 91 C 46.618525756999986 91 50.576328124999975 94.96227952000004 50.576328124999975 99.85000000000002 C 50.576328124999975 104.73772048000001 46.618525756999986 108.69999999999999 41.736328125 108.69999999999999 C 36.854130493000014 108.69999999999999 32.896328125000025 104.73772048000001 32.896328125000025 99.85000000000002 Z"/></g><g><path fill="none" stroke="#000000" paint-order="fill stroke markers" d=" M 32.896328125000025 99.85000000000002 C 32.896328125000025 94.96227952000004 36.854130493000014 91 41.736328125 91 C 46.618525756999986 91 50.576328124999975 94.96227952000004 50.576328124999975 99.85000000000002 C 50.576328124999975 104.73772048000001 46.618525756999986 108.69999999999999 41.736328125 108.69999999999999 C 36.854130493000014 108.69999999999999 32.896328125000025 104.73772048000001 32.896328125000025 99.85000000000002 Z" stroke-miterlimit="10" stroke-dasharray=""/></g><g><path fill="none" stroke="#000000" paint-order="fill stroke markers" d=" M 41.736328125 108.69999999999999 L 41.736328125 126.30000000000001" stroke-miterlimit="10" stroke-dasharray=""/></g><g><path fill="none" stroke="#000000" paint-order="fill stroke markers" d=" M 32.376328124999986 115.30000000000001 L 51.096328125000014 115.30000000000001" stroke-miterlimit="10" stroke-dasharray=""/></g><g><path fill="none" stroke="#000000" paint-order="fill stroke markers" d=" M 41.736328125 126.30000000000001 L 28.736328125 144" stroke-miterlimit="10" stroke-dasharray=""/></g><g><path fill="none" stroke="#000000" paint-order="fill stroke markers" d=" M 41.736328125 126.30000000000001 L 54.736328125 144" stroke-miterlimit="10" stroke-dasharray=""/></g><g><g><path fill="none" stroke="none"/><text fill="#000000" stroke="none" font-family="Arial" font-size="13px" font-style="normal" font-weight="bold" text-decoration="undefined" x="291.236328125" y="352.5" text-anchor="middle" dominant-baseline="central" transform="matrix(1 0 0 1 -249 -194)">Gateway</text></g></g><g><path fill="#C0C0C0" stroke="none" paint-order="stroke fill markers" d=" M 201 125 C 201 105.1177472 249.3532416 89 309 89 C 368.64675839999995 89 417 105.1177472 417 125 C 417 144.8822528 368.64675839999995 161 309 161 C 249.3532416 161 201 144.8822528 201 125 Z" fill-opacity="0.2"/></g><g><path fill="#ffffff" stroke="none" paint-order="stroke fill markers" d=" M 194 118 C 194 98.1177472 242.3532416 82 302 82 C 361.64675839999995 82 410 98.1177472 410 118 C 410 137.8822528 361.64675839999995 154 302 154 C 242.3532416 154 194 137.8822528 194 118 Z"/></g><g><path fill="none" stroke="#000000" paint-order="fill stroke markers" d=" M 194 118 C 194 98.1177472 242.3532416 82 302 82 C 361.64675839999995 82 410 98.1177472 410 118 C 410 137.8822528 361.64675839999995 154 302 154 C 242.3532416 154 194 137.8822528 194 118 Z" stroke-miterlimit="10" stroke-dasharray=""/></g><g><g><path fill="none" stroke="none"/><text fill="#000000" stroke="none" font-family="Arial" font-size="13px" font-style="normal" font-weight="bold" text-decoration="undefined" x="551" y="300" text-anchor="middle" dominant-baseline="central" transform="matrix(1 0 0 1 -249 -194)">UC126 - Conferma</text><text fill="#000000" stroke="none" font-family="Arial" font-size="13px" font-style="normal" font-weight="bold" text-decoration="undefined" x="551" y="313" text-anchor="middle" dominant-baseline="central" transform="matrix(1 0 0 1 -249 -194)">esecuzione</text><text fill="#000000" stroke="none" font-family="Arial" font-size="13px" font-style="normal" font-weight="bold" text-decoration="undefined" x="551" y="326" text-anchor="middle" dominant-baseline="central" transform="matrix(1 0 0 1 -249 -194)">commissioning</text></g></g><g><path fill="none" stroke="#000000" paint-order="fill stroke markers" d=" M 621 305 L 612 136" stroke-miterlimit="10" stroke-dasharray="3"/></g><g><path fill="none" stroke="#000000" paint-order="fill stroke markers" d=" M 616.7440029760172 145.92443629449753 L 612 136 L 608.3368804710178 146.37215287760404" stroke-miterlimit="10" stroke-dasharray=""/></g><g><rect fill="#ffffff" stroke="none" x="875" y="396" width="53.49169921875" height="13" transform="matrix(1 0 0 1 -249 -194)"/></g><g><g><path fill="none" stroke="none"/><text fill="#000000" stroke="none" font-family="Arial" font-size="13px" font-style="normal" font-weight="normal" text-decoration="undefined" x="901.745849609375" y="402.5" text-anchor="middle" dominant-baseline="central" transform="matrix(1 0 0 1 -249 -194)">«extend»</text></g></g><g><path fill="none" stroke="#000000" paint-order="fill stroke markers" d=" M 411 114 L 521 111" stroke-miterlimit="10" stroke-dasharray="3"/></g><g><path fill="none" stroke="#000000" paint-order="fill stroke markers" d=" M 510.955864899885 115.48501394542279 L 521 111 L 510.72634018503015 107.06910773407952" stroke-miterlimit="10" stroke-dasharray=""/></g><g><rect fill="#ffffff" stroke="none" x="687" y="270" width="55.65625" height="13" transform="matrix(1 0 0 1 -249 -194)"/></g><g><g><path fill="none" stroke="none"/><text fill="#000000" stroke="none" font-family="Arial" font-size="13px" font-style="normal" font-weight="normal" text-decoration="undefined" x="714.828125" y="276.5" text-anchor="middle" dominant-baseline="central" transform="matrix(1 0 0 1 -249 -194)">«include»</text></g></g><g><path fill="none" stroke="#000000" paint-order="fill stroke markers" d=" M 318 289 L 306 155" stroke-miterlimit="10" stroke-dasharray="3"/></g><g><path fill="none" stroke="#000000" paint-order="fill stroke markers" d=" M 311.0992020826303 164.74669883193786 L 306 155 L 302.7137235330222 165.49763720951472" stroke-miterlimit="10" stroke-dasharray=""/></g><g><rect fill="#ffffff" stroke="none" x="573" y="404" width="53.49169921875" height="13" transform="matrix(1 0 0 1 -249 -194)"/></g><g><g><path fill="none" stroke="none"/><text fill="#000000" stroke="none" font-family="Arial" font-size="13px" font-style="normal" font-weight="normal" text-decoration="undefined" x="599.745849609375" y="410.5" text-anchor="middle" dominant-baseline="central" transform="matrix(1 0 0 1 -249 -194)">«extend»</text></g></g><g><path fill="none" stroke="#000000" paint-order="fill stroke markers" d=" M 74 128 L 193 123" stroke-miterlimit="10" stroke-dasharray=""/></g><g><path fill="#ffffff" stroke="none" paint-order="stroke fill markers" d=" M 170 162 L 264.97265625 162 L 274.97265625 172 L 274.97265625 277 L 170 277 L 170 162"/></g><g><path fill="none" stroke="#000000" paint-order="fill stroke markers" d=" M 170 162 L 264.97265625 162 L 274.97265625 172 L 274.97265625 277 L 170 277 L 170 162 L 170 162" stroke-miterlimit="10" stroke-dasharray=""/></g><g><path fill="none" stroke="#000000" paint-order="fill stroke markers" d=" M 264.97265625 162 L 264.97265625 172 L 274.97265625 172 L 264.97265625 162" stroke-miterlimit="10" stroke-dasharray=""/></g><g><g><path fill="none" stroke="none"/><text fill="#000000" stroke="none" font-family="Arial" font-size="13px" font-style="normal" font-weight="normal" text-decoration="undefined" x="424" y="361" text-anchor="start" dominant-baseline="text-before-edge" transform="matrix(1 0 0 1 -249 -194)">Condizione: Il</text><text fill="#000000" stroke="none" font-family="Arial" font-size="13px" font-style="normal" font-weight="normal" text-decoration="undefined" x="424" y="374" text-anchor="start" dominant-baseline="text-before-edge" transform="matrix(1 0 0 1 -249 -194)">gateway</text><text fill="#000000" stroke="none" font-family="Arial" font-size="13px" font-style="normal" font-weight="normal" text-decoration="undefined" x="424" y="387" text-anchor="start" dominant-baseline="text-before-edge" transform="matrix(1 0 0 1 -249 -194)">durante</text><text fill="#000000" stroke="none" font-family="Arial" font-size="13px" font-style="normal" font-weight="normal" text-decoration="undefined" x="424" y="400" text-anchor="start" dominant-baseline="text-before-edge" transform="matrix(1 0 0 1 -249 -194)">l'esecuzione del</text><text fill="#000000" stroke="none" font-family="Arial" font-size="13px" font-style="normal" font-weight="normal" text-decoration="undefined" x="424" y="413" text-anchor="start" dominant-baseline="text-before-edge" transform="matrix(1 0 0 1 -249 -194)">commissioning</text><text fill="#000000" stroke="none" font-family="Arial" font-size="13px" font-style="normal" font-weight="normal" text-decoration="undefined" x="424" y="426" text-anchor="start" dominant-baseline="text-before-edge" transform="matrix(1 0 0 1 -249 -194)">ha riscontrato</text><text fill="#000000" stroke="none" font-family="Arial" font-size="13px" font-style="normal" font-weight="normal" text-decoration="undefined" x="424" y="439" text-anchor="start" dominant-baseline="text-before-edge" transform="matrix(1 0 0 1 -249 -194)">un errore</text></g></g><g><path fill="#ffffff" stroke="none" paint-order="stroke fill markers" d=" M 482 202 L 564.7216796875 202 L 574.7216796875 212 L 574.7216796875 278 L 482 278 L 482 202"/></g><g><path fill="none" stroke="#000000" paint-order="fill stroke markers" d=" M 482 202 L 564.7216796875 202 L 574.7216796875 212 L 574.7216796875 278 L 482 278 L 482 202 L 482 202" stroke-miterlimit="10" stroke-dasharray=""/></g><g><path fill="none" stroke="#000000" paint-order="fill stroke markers" d=" M 564.7216796875 202 L 564.7216796875 212 L 574.7216796875 212 L 564.7216796875 202" stroke-miterlimit="10" stroke-dasharray=""/></g><g><g><path fill="none" stroke="none"/><text fill="#000000" stroke="none" font-family="Arial" font-size="13px" font-style="normal" font-weight="normal" text-decoration="undefined" x="736" y="401" text-anchor="start" dominant-baseline="text-before-edge" transform="matrix(1 0 0 1 -249 -194)">Condizione: il</text><text fill="#000000" stroke="none" font-family="Arial" font-size="13px" font-style="normal" font-weight="normal" text-decoration="undefined" x="736" y="414" text-anchor="start" dominant-baseline="text-before-edge" transform="matrix(1 0 0 1 -249 -194)">Sistema</text><text fill="#000000" stroke="none" font-family="Arial" font-size="13px" font-style="normal" font-weight="normal" text-decoration="undefined" x="736" y="427" text-anchor="start" dominant-baseline="text-before-edge" transform="matrix(1 0 0 1 -249 -194)">Cloud non è</text><text fill="#000000" stroke="none" font-family="Arial" font-size="13px" font-style="normal" font-weight="normal" text-decoration="undefined" x="736" y="440" text-anchor="start" dominant-baseline="text-before-edge" transform="matrix(1 0 0 1 -249 -194)">raggiungibile</text></g></g><g><path fill="#C0C0C0" stroke="none" paint-order="stroke fill markers" d=" M 545 339.5 C 545 324.8644528 582.6080768 313 629 313 C 675.3919232 313 713 324.8644528 713 339.5 C 713 354.1355472 675.3919232 366 629 366 C 582.6080768 366 545 354.1355472 545 339.5 Z" fill-opacity="0.2"/></g><g><path fill="#ffffff" stroke="none" paint-order="stroke fill markers" d=" M 538 332.5 C 538 317.8644528 575.6080768 306 622 306 C 668.3919232 306 706 317.8644528 706 332.5 C 706 347.1355472 668.3919232 359 622 359 C 575.6080768 359 538 347.1355472 538 332.5 Z"/></g><g><path fill="none" stroke="#000000" paint-order="fill stroke markers" d=" M 538 332.5 C 538 317.8644528 575.6080768 306 622 306 C 668.3919232 306 706 317.8644528 706 332.5 C 706 347.1355472 668.3919232 359 622 359 C 575.6080768 359 538 347.1355472 538 332.5 Z" stroke-miterlimit="10" stroke-dasharray=""/></g><g><g><path fill="none" stroke="none"/><text fill="#000000" stroke="none" font-family="Arial" font-size="13px" font-style="normal" font-weight="bold" text-decoration="undefined" x="871" y="521" text-anchor="middle" dominant-baseline="central" transform="matrix(1 0 0 1 -249 -194)">UC142 - Invio</text><text fill="#000000" stroke="none" font-family="Arial" font-size="13px" font-style="normal" font-weight="bold" text-decoration="undefined" x="871" y="534" text-anchor="middle" dominant-baseline="central" transform="matrix(1 0 0 1 -249 -194)">dati fallito</text></g></g><g><path fill="none" stroke="#000000" paint-order="fill stroke markers" d=" M 277 221 L 312 222" stroke-miterlimit="10" stroke-dasharray="3"/></g><g><path fill="none" stroke="#000000" paint-order="fill stroke markers" d=" M 577 229 L 616 220" stroke-miterlimit="10" stroke-dasharray="3"/></g><g><path fill="#C0C0C0" stroke="none" paint-order="stroke fill markers" d=" M 529 115.5 C 529 100.86445279999998 568.3989376 89 617 89 C 665.6010624 89 705 100.86445279999998 705 115.5 C 705 130.13554720000002 665.6010624 142 617 142 C 568.3989376 142 529 130.13554720000002 529 115.5 Z" fill-opacity="0.2"/></g><g><path fill="#ffffff" stroke="none" paint-order="stroke fill markers" d=" M 522 108.5 C 522 93.86445279999998 561.3989376 82 610 82 C 658.6010624 82 698 93.86445279999998 698 108.5 C 698 123.13554720000002 658.6010624 135 610 135 C 561.3989376 135 522 123.13554720000002 522 108.5 Z"/></g><g><path fill="none" stroke="#000000" paint-order="fill stroke markers" d=" M 522 108.5 C 522 93.86445279999998 561.3989376 82 610 82 C 658.6010624 82 698 93.86445279999998 698 108.5 C 698 123.13554720000002 658.6010624 135 610 135 C 561.3989376 135 522 123.13554720000002 522 108.5 Z" stroke-miterlimit="10" stroke-dasharray=""/></g><g><g><path fill="none" stroke="none"/><text fill="#000000" stroke="none" font-family="Arial" font-size="13px" font-style="normal" font-weight="bold" text-decoration="undefined" x="859" y="297" text-anchor="middle" dominant-baseline="central" transform="matrix(1 0 0 1 -249 -194)">UC141 - Invio dati</text><text fill="#000000" stroke="none" font-family="Arial" font-size="13px" font-style="normal" font-weight="bold" text-decoration="undefined" x="859" y="310" text-anchor="middle" dominant-baseline="central" transform="matrix(1 0 0 1 -249 -194)">crittografati</text></g></g><g><path fill="#C0C0C0" stroke="none" paint-order="stroke fill markers" d=" M 241 333 C 241 313.1177472 280.39893759999995 297 329 297 C 377.60106240000005 297 417 313.1177472 417 333 C 417 352.88225279999995 377.60106240000005 369 329 369 C 280.39893759999995 369 241 352.88225279999995 241 333 Z" fill-opacity="0.2"/></g><g><path fill="#ffffff" stroke="none" paint-order="stroke fill markers" d=" M 234 326 C 234 306.1177472 273.39893759999995 290 322 290 C 370.60106240000005 290 410 306.1177472 410 326 C 410 345.88225279999995 370.60106240000005 362 322 362 C 273.39893759999995 362 234 345.88225279999995 234 326 Z"/></g><g><path fill="none" stroke="#000000" paint-order="fill stroke markers" d=" M 234 326 C 234 306.1177472 273.39893759999995 290 322 290 C 370.60106240000005 290 410 306.1177472 410 326 C 410 345.88225279999995 370.60106240000005 362 322 362 C 273.39893759999995 362 234 345.88225279999995 234 326 Z" stroke-miterlimit="10" stroke-dasharray=""/></g><g><g><path fill="none" stroke="none"/><text fill="#000000" stroke="none" font-family="Arial" font-size="13px" font-style="normal" font-weight="bold" text-decoration="undefined" x="571" y="514.5" text-anchor="middle" dominant-baseline="central" transform="matrix(1 0 0 1 -249 -194)">UC127 - Errore nel</text><text fill="#000000" stroke="none" font-family="Arial" font-size="13px" font-style="normal" font-weight="bold" text-decoration="undefined" x="571" y="527.5" text-anchor="middle" dominant-baseline="central" transform="matrix(1 0 0 1 -249 -194)">commissioning</text></g></g></g></svg>