<svg version="1.1" xmlns="http://www.w3.org/2000/svg" xmlns:xlink="http://www.w3.org/1999/xlink" width="861" height="324"><defs/><g><g><rect fill="#C0C0C0" stroke="none" x="412" y="462" width="664" height="304" transform="matrix(1 0 0 1 -219 -445)" fill-opacity="0.2"/></g><g><rect fill="#ffffff" stroke="none" x="405" y="455" width="664" height="304" transform="matrix(1 0 0 1 -219 -445)"/></g><g><path fill="none" stroke="#000000" paint-order="fill stroke markers" d=" M 186 10 L 850 10 L 850 314 L 186 314 L 186 10 Z Z" stroke-miterlimit="10" stroke-dasharray=""/></g><g><g><path fill="none" stroke="none"/><text fill="#000000" stroke="none" font-family="Arial" font-size="13px" font-style="normal" font-weight="bold" text-decoration="undefined" x="737.5" y="468.5" text-anchor="middle" dominant-baseline="central" transform="matrix(1 0 0 1 -219 -445)">Sistema Cloud</text></g></g><g><path fill="#ffffff" stroke="none" paint-order="stroke fill markers" d=" M 46.607265625000025 91.85000000000002 C 46.607265625000025 86.96227952000004 50.565067993000014 83 55.447265625 83 C 60.329463256999986 83 64.28726562499997 86.96227952000004 64.28726562499997 91.85000000000002 C 64.28726562499997 96.73772048000001 60.329463256999986 100.70000000000005 55.447265625 100.70000000000005 C 50.565067993000014 100.70000000000005 46.607265625000025 96.73772048000001 46.607265625000025 91.85000000000002 Z"/></g><g><path fill="none" stroke="#000000" paint-order="fill stroke markers" d=" M 46.607265625000025 91.85000000000002 C 46.607265625000025 86.96227952000004 50.565067993000014 83 55.447265625 83 C 60.329463256999986 83 64.28726562499997 86.96227952000004 64.28726562499997 91.85000000000002 C 64.28726562499997 96.73772048000001 60.329463256999986 100.70000000000005 55.447265625 100.70000000000005 C 50.565067993000014 100.70000000000005 46.607265625000025 96.73772048000001 46.607265625000025 91.85000000000002 Z" stroke-miterlimit="10" stroke-dasharray=""/></g><g><path fill="none" stroke="#000000" paint-order="fill stroke markers" d=" M 55.447265625 100.70000000000005 L 55.447265625 118.29999999999995" stroke-miterlimit="10" stroke-dasharray=""/></g><g><path fill="none" stroke="#000000" paint-order="fill stroke markers" d=" M 46.087265624999986 107.29999999999995 L 64.80726562500001 107.29999999999995" stroke-miterlimit="10" stroke-dasharray=""/></g><g><path fill="none" stroke="#000000" paint-order="fill stroke markers" d=" M 55.447265625 118.29999999999995 L 42.447265625 136" stroke-miterlimit="10" stroke-dasharray=""/></g><g><path fill="none" stroke="#000000" paint-order="fill stroke markers" d=" M 55.447265625 118.29999999999995 L 68.447265625 136" stroke-miterlimit="10" stroke-dasharray=""/></g><g><g><path fill="none" stroke="none"/><text fill="#000000" stroke="none" font-family="Arial" font-size="13px" font-style="normal" font-weight="bold" text-decoration="undefined" x="274.947265625" y="595.5" text-anchor="middle" dominant-baseline="central" transform="matrix(1 0 0 1 -219 -445)">Super Admin</text></g></g><g><path fill="#C0C0C0" stroke="none" paint-order="stroke fill markers" d=" M 217 105 C 217 82.90860799999996 270.725824 65 337 65 C 403.274176 65 457 82.90860799999996 457 105 C 457 127.09139200000004 403.274176 145 337 145 C 270.725824 145 217 127.09139200000004 217 105 Z" fill-opacity="0.2"/></g><g><path fill="#ffffff" stroke="none" paint-order="stroke fill markers" d=" M 210 98 C 210 75.90860799999996 263.725824 58 330 58 C 396.274176 58 450 75.90860799999996 450 98 C 450 120.09139200000004 396.274176 138 330 138 C 263.725824 138 210 120.09139200000004 210 98 Z"/></g><g><path fill="none" stroke="#000000" paint-order="fill stroke markers" d=" M 210 98 C 210 75.90860799999996 263.725824 58 330 58 C 396.274176 58 450 75.90860799999996 450 98 C 450 120.09139200000004 396.274176 138 330 138 C 263.725824 138 210 120.09139200000004 210 98 Z" stroke-miterlimit="10" stroke-dasharray=""/></g><g><g><path fill="none" stroke="none"/><text fill="#000000" stroke="none" font-family="Arial" font-size="13px" font-style="normal" font-weight="bold" text-decoration="undefined" x="549" y="531" text-anchor="middle" dominant-baseline="central" transform="matrix(1 0 0 1 -219 -445)">UC121 - Visualizzazione</text><text fill="#000000" stroke="none" font-family="Arial" font-size="13px" font-style="normal" font-weight="bold" text-decoration="undefined" x="549" y="544" text-anchor="middle" dominant-baseline="central" transform="matrix(1 0 0 1 -219 -445)">storico dei Tenant</text><text fill="#000000" stroke="none" font-family="Arial" font-size="13px" font-style="normal" font-weight="bold" text-decoration="undefined" x="549" y="557" text-anchor="middle" dominant-baseline="central" transform="matrix(1 0 0 1 -219 -445)">possessori di gateway</text></g></g><g><path fill="#C0C0C0" stroke="none" paint-order="stroke fill markers" d=" M 217 245 C 217 225.11774720000005 274.3075456 209 345 209 C 415.6924544 209 473 225.11774720000005 473 245 C 473 264.88225279999995 415.6924544 281 345 281 C 274.3075456 281 217 264.88225279999995 217 245 Z" fill-opacity="0.2"/></g><g><path fill="#ffffff" stroke="none" paint-order="stroke fill markers" d=" M 210 238 C 210 218.11774720000005 267.3075456 202 338 202 C 408.6924544 202 466 218.11774720000005 466 238 C 466 257.88225279999995 408.6924544 274 338 274 C 267.3075456 274 210 257.88225279999995 210 238 Z"/></g><g><path fill="none" stroke="#000000" paint-order="fill stroke markers" d=" M 210 238 C 210 218.11774720000005 267.3075456 202 338 202 C 408.6924544 202 466 218.11774720000005 466 238 C 466 257.88225279999995 408.6924544 274 338 274 C 267.3075456 274 210 257.88225279999995 210 238 Z" stroke-miterlimit="10" stroke-dasharray=""/></g><g><g><path fill="none" stroke="none"/><text fill="#000000" stroke="none" font-family="Arial" font-size="13px" font-style="normal" font-weight="bold" text-decoration="undefined" x="557" y="671" text-anchor="middle" dominant-baseline="central" transform="matrix(1 0 0 1 -219 -445)">UC122 - Visualizzazione</text><text fill="#000000" stroke="none" font-family="Arial" font-size="13px" font-style="normal" font-weight="bold" text-decoration="undefined" x="557" y="684" text-anchor="middle" dominant-baseline="central" transform="matrix(1 0 0 1 -219 -445)">singolo Tenant possessore</text><text fill="#000000" stroke="none" font-family="Arial" font-size="13px" font-style="normal" font-weight="bold" text-decoration="undefined" x="557" y="697" text-anchor="middle" dominant-baseline="central" transform="matrix(1 0 0 1 -219 -445)">del gateway</text></g></g><g><path fill="#C0C0C0" stroke="none" paint-order="stroke fill markers" d=" M 569 117 C 569 97.11774720000005 624.5166848 81 693 81 C 761.4833152 81 817 97.11774720000005 817 117 C 817 136.88225279999995 761.4833152 153 693 153 C 624.5166848 153 569 136.88225279999995 569 117 Z" fill-opacity="0.2"/></g><g><path fill="#ffffff" stroke="none" paint-order="stroke fill markers" d=" M 562 110 C 562 90.11774720000005 617.5166848 74 686 74 C 754.4833152 74 810 90.11774720000005 810 110 C 810 129.88225279999995 754.4833152 146 686 146 C 617.5166848 146 562 129.88225279999995 562 110 Z"/></g><g><path fill="none" stroke="#000000" paint-order="fill stroke markers" d=" M 562 110 C 562 90.11774720000005 617.5166848 74 686 74 C 754.4833152 74 810 90.11774720000005 810 110 C 810 129.88225279999995 754.4833152 146 686 146 C 617.5166848 146 562 129.88225279999995 562 110 Z" stroke-miterlimit="10" stroke-dasharray=""/></g><g><g><path fill="none" stroke="none"/><text fill="#000000" stroke="none" font-family="Arial" font-size="13px" font-style="normal" font-weight="bold" text-decoration="undefined" x="905" y="543" text-anchor="middle" dominant-baseline="central" transform="matrix(1 0 0 1 -219 -445)">UC122.1 - Visualizzazione</text><text fill="#000000" stroke="none" font-family="Arial" font-size="13px" font-style="normal" font-weight="bold" text-decoration="undefined" x="905" y="556" text-anchor="middle" dominant-baseline="central" transform="matrix(1 0 0 1 -219 -445)">Tenant possessore del</text><text fill="#000000" stroke="none" font-family="Arial" font-size="13px" font-style="normal" font-weight="bold" text-decoration="undefined" x="905" y="569" text-anchor="middle" dominant-baseline="central" transform="matrix(1 0 0 1 -219 -445)">gateway</text></g></g><g><path fill="#C0C0C0" stroke="none" paint-order="stroke fill markers" d=" M 561 269 C 561 249.11774720000005 618.3075456 233 689 233 C 759.6924544 233 817 249.11774720000005 817 269 C 817 288.88225279999995 759.6924544 305 689 305 C 618.3075456 305 561 288.88225279999995 561 269 Z" fill-opacity="0.2"/></g><g><path fill="#ffffff" stroke="none" paint-order="stroke fill markers" d=" M 554 262 C 554 242.11774720000005 611.3075456 226 682 226 C 752.6924544 226 810 242.11774720000005 810 262 C 810 281.88225279999995 752.6924544 298 682 298 C 611.3075456 298 554 281.88225279999995 554 262 Z"/></g><g><path fill="none" stroke="#000000" paint-order="fill stroke markers" d=" M 554 262 C 554 242.11774720000005 611.3075456 226 682 226 C 752.6924544 226 810 242.11774720000005 810 262 C 810 281.88225279999995 752.6924544 298 682 298 C 611.3075456 298 554 281.88225279999995 554 262 Z" stroke-miterlimit="10" stroke-dasharray=""/></g><g><g><path fill="none" stroke="none"/><text fill="#000000" stroke="none" font-family="Arial" font-size="13px" font-style="normal" font-weight="bold" text-decoration="undefined" x="901" y="695" text-anchor="middle" dominant-baseline="central" transform="matrix(1 0 0 1 -219 -445)">UC122.2 - Visualizzazione</text><text fill="#000000" stroke="none" font-family="Arial" font-size="13px" font-style="normal" font-weight="bold" text-decoration="undefined" x="901" y="708" text-anchor="middle" dominant-baseline="central" transform="matrix(1 0 0 1 -219 -445)">periodo di associazione</text><text fill="#000000" stroke="none" font-family="Arial" font-size="13px" font-style="normal" font-weight="bold" text-decoration="undefined" x="901" y="721" text-anchor="middle" dominant-baseline="central" transform="matrix(1 0 0 1 -219 -445)">gateway</text></g></g><g><path fill="none" stroke="#000000" paint-order="fill stroke markers" d=" M 102 118 L 209 109" stroke-miterlimit="10" stroke-dasharray=""/></g><g><path fill="none" stroke="#000000" paint-order="fill stroke markers" d=" M 332 139 L 336 201" stroke-miterlimit="10" stroke-dasharray="3"/></g><g><path fill="none" stroke="#000000" paint-order="fill stroke markers" d=" M 331.1449195348331 191.12942789516467 L 336 201 L 339.546488149394 190.5873912103542" stroke-miterlimit="10" stroke-dasharray=""/></g><g><rect fill="#ffffff" stroke="none" x="555" y="607" width="55.65625" height="13" transform="matrix(1 0 0 1 -219 -445)"/></g><g><g><path fill="none" stroke="none"/><text fill="#000000" stroke="none" font-family="Arial" font-size="13px" font-style="normal" font-weight="normal" text-decoration="undefined" x="582.828125" y="613.5" text-anchor="middle" dominant-baseline="central" transform="matrix(1 0 0 1 -219 -445)">«include»</text></g></g><g><path fill="none" stroke="#000000" paint-order="fill stroke markers" d=" M 439 201 L 585 147" stroke-miterlimit="10" stroke-dasharray="3"/></g><g><path fill="none" stroke="#000000" paint-order="fill stroke markers" d=" M 576.9286544906375 154.4735120036363 L 585 147 L 574.00812583998 146.57726787408058" stroke-miterlimit="10" stroke-dasharray=""/></g><g><rect fill="#ffffff" stroke="none" x="693" y="584" width="55.65625" height="13" transform="matrix(1 0 0 1 -219 -445)"/></g><g><g><path fill="none" stroke="none"/><text fill="#000000" stroke="none" font-family="Arial" font-size="13px" font-style="normal" font-weight="normal" text-decoration="undefined" x="720.828125" y="590.5" text-anchor="middle" dominant-baseline="central" transform="matrix(1 0 0 1 -219 -445)">«include»</text></g></g><g><path fill="none" stroke="#000000" paint-order="fill stroke markers" d=" M 467 247 L 553 253" stroke-miterlimit="10" stroke-dasharray="3"/></g><g><path fill="none" stroke="#000000" paint-order="fill stroke markers" d=" M 542.5689934808889 256.4920055839393 L 553 253 L 543.1549437273908 248.0933853840802" stroke-miterlimit="10" stroke-dasharray=""/></g><g><rect fill="#ffffff" stroke="none" x="704" y="659" width="55.65625" height="13" transform="matrix(1 0 0 1 -219 -445)"/></g><g><g><path fill="none" stroke="none"/><text fill="#000000" stroke="none" font-family="Arial" font-size="13px" font-style="normal" font-weight="normal" text-decoration="undefined" x="731.828125" y="665.5" text-anchor="middle" dominant-baseline="central" transform="matrix(1 0 0 1 -219 -445)">«include»</text></g></g></g></svg>