<svg version="1.1" xmlns="http://www.w3.org/2000/svg" xmlns:xlink="http://www.w3.org/1999/xlink" width="885" height="388"><defs/><g><g><rect fill="#C0C0C0" stroke="none" x="309" y="234" width="688" height="368" transform="matrix(1 0 0 1 -116 -217)" fill-opacity="0.2"/></g><g><rect fill="#ffffff" stroke="none" x="302" y="227" width="688" height="368" transform="matrix(1 0 0 1 -116 -217)"/></g><g><path fill="none" stroke="#000000" paint-order="fill stroke markers" d=" M 186 10 L 874 10 L 874 378 L 186 378 L 186 10 Z Z" stroke-miterlimit="10" stroke-dasharray=""/></g><g><g><path fill="none" stroke="none"/><text fill="#000000" stroke="none" font-family="Arial" font-size="13px" font-style="normal" font-weight="bold" text-decoration="undefined" x="646.5" y="240.5" text-anchor="middle" dominant-baseline="central" transform="matrix(1 0 0 1 -116 -217)">Sistema Cloud</text></g></g><g><path fill="#ffffff" stroke="none" paint-order="stroke fill markers" d=" M 46.607265625 107.85000000000002 C 46.607265625 102.96227952000004 50.565067992999985 99 55.447265625 99 C 60.329463257000015 99 64.287265625 102.96227952000004 64.287265625 107.85000000000002 C 64.287265625 112.73772048000001 60.329463257000015 116.69999999999999 55.447265625 116.69999999999999 C 50.565067992999985 116.69999999999999 46.607265625 112.73772048000001 46.607265625 107.85000000000002 Z"/></g><g><path fill="none" stroke="#000000" paint-order="fill stroke markers" d=" M 46.607265625 107.85000000000002 C 46.607265625 102.96227952000004 50.565067992999985 99 55.447265625 99 C 60.329463257000015 99 64.287265625 102.96227952000004 64.287265625 107.85000000000002 C 64.287265625 112.73772048000001 60.329463257000015 116.69999999999999 55.447265625 116.69999999999999 C 50.565067992999985 116.69999999999999 46.607265625 112.73772048000001 46.607265625 107.85000000000002 Z" stroke-miterlimit="10" stroke-dasharray=""/></g><g><path fill="none" stroke="#000000" paint-order="fill stroke markers" d=" M 55.447265625 116.69999999999999 L 55.447265625 134.3" stroke-miterlimit="10" stroke-dasharray=""/></g><g><path fill="none" stroke="#000000" paint-order="fill stroke markers" d=" M 46.087265624999986 123.30000000000001 L 64.80726562500001 123.30000000000001" stroke-miterlimit="10" stroke-dasharray=""/></g><g><path fill="none" stroke="#000000" paint-order="fill stroke markers" d=" M 55.447265625 134.3 L 42.447265625 152" stroke-miterlimit="10" stroke-dasharray=""/></g><g><path fill="none" stroke="#000000" paint-order="fill stroke markers" d=" M 55.447265625 134.3 L 68.447265625 152" stroke-miterlimit="10" stroke-dasharray=""/></g><g><g><path fill="none" stroke="none"/><text fill="#000000" stroke="none" font-family="Arial" font-size="13px" font-style="normal" font-weight="bold" text-decoration="undefined" x="171.947265625" y="383.5" text-anchor="middle" dominant-baseline="central" transform="matrix(1 0 0 1 -116 -217)">Super Admin</text></g></g><g><path fill="#C0C0C0" stroke="none" paint-order="stroke fill markers" d=" M 217 125 C 217 105.1177472 277.8892672 89 353 89 C 428.11073280000005 89 489 105.1177472 489 125 C 489 144.8822528 428.11073280000005 161 353 161 C 277.8892672 161 217 144.8822528 217 125 Z" fill-opacity="0.2"/></g><g><path fill="#ffffff" stroke="none" paint-order="stroke fill markers" d=" M 210 118 C 210 98.1177472 270.8892672 82 346 82 C 421.11073280000005 82 482 98.1177472 482 118 C 482 137.8822528 421.11073280000005 154 346 154 C 270.8892672 154 210 137.8822528 210 118 Z"/></g><g><path fill="none" stroke="#000000" paint-order="fill stroke markers" d=" M 210 118 C 210 98.1177472 270.8892672 82 346 82 C 421.11073280000005 82 482 98.1177472 482 118 C 482 137.8822528 421.11073280000005 154 346 154 C 270.8892672 154 210 137.8822528 210 118 Z" stroke-miterlimit="10" stroke-dasharray=""/></g><g><g><path fill="none" stroke="none"/><text fill="#000000" stroke="none" font-family="Arial" font-size="13px" font-style="normal" font-weight="bold" text-decoration="undefined" x="462" y="323" text-anchor="middle" dominant-baseline="central" transform="matrix(1 0 0 1 -116 -217)">UC122 - Visualizzazione</text><text fill="#000000" stroke="none" font-family="Arial" font-size="13px" font-style="normal" font-weight="bold" text-decoration="undefined" x="462" y="336" text-anchor="middle" dominant-baseline="central" transform="matrix(1 0 0 1 -116 -217)">storico dei Tenant</text><text fill="#000000" stroke="none" font-family="Arial" font-size="13px" font-style="normal" font-weight="bold" text-decoration="undefined" x="462" y="349" text-anchor="middle" dominant-baseline="central" transform="matrix(1 0 0 1 -116 -217)">possessori di sensore</text></g></g><g><path fill="none" stroke="#000000" paint-order="fill stroke markers" d=" M 102 135 L 209 127" stroke-miterlimit="10" stroke-dasharray=""/></g><g><path fill="#C0C0C0" stroke="none" paint-order="stroke fill markers" d=" M 225 285 C 225 265.1177472 282.3075456 249 353 249 C 423.6924544 249 481 265.1177472 481 285 C 481 304.88225279999995 423.6924544 321 353 321 C 282.3075456 321 225 304.88225279999995 225 285 Z" fill-opacity="0.2"/></g><g><path fill="#ffffff" stroke="none" paint-order="stroke fill markers" d=" M 218 278 C 218 258.1177472 275.3075456 242 346 242 C 416.6924544 242 474 258.1177472 474 278 C 474 297.88225279999995 416.6924544 314 346 314 C 275.3075456 314 218 297.88225279999995 218 278 Z"/></g><g><path fill="none" stroke="#000000" paint-order="fill stroke markers" d=" M 218 278 C 218 258.1177472 275.3075456 242 346 242 C 416.6924544 242 474 258.1177472 474 278 C 474 297.88225279999995 416.6924544 314 346 314 C 275.3075456 314 218 297.88225279999995 218 278 Z" stroke-miterlimit="10" stroke-dasharray=""/></g><g><g><path fill="none" stroke="none"/><text fill="#000000" stroke="none" font-family="Arial" font-size="13px" font-style="normal" font-weight="bold" text-decoration="undefined" x="462" y="483" text-anchor="middle" dominant-baseline="central" transform="matrix(1 0 0 1 -116 -217)">UC123 - Visualizzazione</text><text fill="#000000" stroke="none" font-family="Arial" font-size="13px" font-style="normal" font-weight="bold" text-decoration="undefined" x="462" y="496" text-anchor="middle" dominant-baseline="central" transform="matrix(1 0 0 1 -116 -217)">singolo Tenant possessore</text><text fill="#000000" stroke="none" font-family="Arial" font-size="13px" font-style="normal" font-weight="bold" text-decoration="undefined" x="462" y="509" text-anchor="middle" dominant-baseline="central" transform="matrix(1 0 0 1 -116 -217)">del sensore</text></g></g><g><path fill="none" stroke="#000000" paint-order="fill stroke markers" d=" M 346 155 L 346 241" stroke-miterlimit="10" stroke-dasharray="3"/></g><g><path fill="none" stroke="#000000" paint-order="fill stroke markers" d=" M 341.790482243984 230.83732514237585 L 346 241 L 350.209517756016 230.83732514237585" stroke-miterlimit="10" stroke-dasharray=""/></g><g><rect fill="#ffffff" stroke="none" x="464" y="408" width="55.65625" height="13" transform="matrix(1 0 0 1 -116 -217)"/></g><g><g><path fill="none" stroke="none"/><text fill="#000000" stroke="none" font-family="Arial" font-size="13px" font-style="normal" font-weight="normal" text-decoration="undefined" x="491.828125" y="414.5" text-anchor="middle" dominant-baseline="central" transform="matrix(1 0 0 1 -116 -217)">«include»</text></g></g><g><path fill="#C0C0C0" stroke="none" paint-order="stroke fill markers" d=" M 609 157 C 609 137.1177472 662.725824 121 729 121 C 795.274176 121 849 137.1177472 849 157 C 849 176.8822528 795.274176 193 729 193 C 662.725824 193 609 176.8822528 609 157 Z" fill-opacity="0.2"/></g><g><path fill="#ffffff" stroke="none" paint-order="stroke fill markers" d=" M 602 150 C 602 130.1177472 655.725824 114 722 114 C 788.274176 114 842 130.1177472 842 150 C 842 169.8822528 788.274176 186 722 186 C 655.725824 186 602 169.8822528 602 150 Z"/></g><g><path fill="none" stroke="#000000" paint-order="fill stroke markers" d=" M 602 150 C 602 130.1177472 655.725824 114 722 114 C 788.274176 114 842 130.1177472 842 150 C 842 169.8822528 788.274176 186 722 186 C 655.725824 186 602 169.8822528 602 150 Z" stroke-miterlimit="10" stroke-dasharray=""/></g><g><g><path fill="none" stroke="none"/><text fill="#000000" stroke="none" font-family="Arial" font-size="13px" font-style="normal" font-weight="bold" text-decoration="undefined" x="838" y="355" text-anchor="middle" dominant-baseline="central" transform="matrix(1 0 0 1 -116 -217)">UC123.1 - Visualizzazione</text><text fill="#000000" stroke="none" font-family="Arial" font-size="13px" font-style="normal" font-weight="bold" text-decoration="undefined" x="838" y="368" text-anchor="middle" dominant-baseline="central" transform="matrix(1 0 0 1 -116 -217)">Tenant possessore del</text><text fill="#000000" stroke="none" font-family="Arial" font-size="13px" font-style="normal" font-weight="bold" text-decoration="undefined" x="838" y="381" text-anchor="middle" dominant-baseline="central" transform="matrix(1 0 0 1 -116 -217)">sensore</text></g></g><g><path fill="#C0C0C0" stroke="none" paint-order="stroke fill markers" d=" M 601 285 C 601 265.1177472 654.725824 249 721 249 C 787.274176 249 841 265.1177472 841 285 C 841 304.88225279999995 787.274176 321 721 321 C 654.725824 321 601 304.88225279999995 601 285 Z" fill-opacity="0.2"/></g><g><path fill="#ffffff" stroke="none" paint-order="stroke fill markers" d=" M 594 278 C 594 258.1177472 647.725824 242 714 242 C 780.274176 242 834 258.1177472 834 278 C 834 297.88225279999995 780.274176 314 714 314 C 647.725824 314 594 297.88225279999995 594 278 Z"/></g><g><path fill="none" stroke="#000000" paint-order="fill stroke markers" d=" M 594 278 C 594 258.1177472 647.725824 242 714 242 C 780.274176 242 834 258.1177472 834 278 C 834 297.88225279999995 780.274176 314 714 314 C 647.725824 314 594 297.88225279999995 594 278 Z" stroke-miterlimit="10" stroke-dasharray=""/></g><g><g><path fill="none" stroke="none"/><text fill="#000000" stroke="none" font-family="Arial" font-size="13px" font-style="normal" font-weight="bold" text-decoration="undefined" x="830" y="483" text-anchor="middle" dominant-baseline="central" transform="matrix(1 0 0 1 -116 -217)">UC123.2 - Visualizzazione</text><text fill="#000000" stroke="none" font-family="Arial" font-size="13px" font-style="normal" font-weight="bold" text-decoration="undefined" x="830" y="496" text-anchor="middle" dominant-baseline="central" transform="matrix(1 0 0 1 -116 -217)">periodo di associazione</text><text fill="#000000" stroke="none" font-family="Arial" font-size="13px" font-style="normal" font-weight="bold" text-decoration="undefined" x="830" y="509" text-anchor="middle" dominant-baseline="central" transform="matrix(1 0 0 1 -116 -217)">sensore</text></g></g><g><path fill="none" stroke="#000000" paint-order="fill stroke markers" d=" M 475 278 L 593 278" stroke-miterlimit="10" stroke-dasharray="3"/></g><g><path fill="none" stroke="#000000" paint-order="fill stroke markers" d=" M 582.8373251423759 282.209517756016 L 593 278 L 582.8373251423758 273.790482243984" stroke-miterlimit="10" stroke-dasharray=""/></g><g><rect fill="#ffffff" stroke="none" x="623" y="475" width="55.65625" height="13" transform="matrix(1 0 0 1 -116 -217)"/></g><g><g><path fill="none" stroke="none"/><text fill="#000000" stroke="none" font-family="Arial" font-size="13px" font-style="normal" font-weight="normal" text-decoration="undefined" x="650.828125" y="481.5" text-anchor="middle" dominant-baseline="central" transform="matrix(1 0 0 1 -116 -217)">«include»</text></g></g><g><path fill="none" stroke="#000000" paint-order="fill stroke markers" d=" M 455 241 L 613 187" stroke-miterlimit="10" stroke-dasharray="3"/></g><g><path fill="none" stroke="#000000" paint-order="fill stroke markers" d=" M 604.7448435271564 194.26996503491375 L 613 187 L 602.0220813031196 186.3033644534729" stroke-miterlimit="10" stroke-dasharray=""/></g><g><rect fill="#ffffff" stroke="none" x="606" y="410" width="55.65625" height="13" transform="matrix(1 0 0 1 -116 -217)"/></g><g><g><path fill="none" stroke="none"/><text fill="#000000" stroke="none" font-family="Arial" font-size="13px" font-style="normal" font-weight="normal" text-decoration="undefined" x="633.828125" y="416.5" text-anchor="middle" dominant-baseline="central" transform="matrix(1 0 0 1 -116 -217)">«include»</text></g></g></g></svg>