<svg version="1.1" xmlns="http://www.w3.org/2000/svg" xmlns:xlink="http://www.w3.org/1999/xlink" width="956" height="385"><defs/><g><g><path fill="#ffffff" stroke="none" paint-order="stroke fill markers" d=" M 76.577724609375 195.85000000000002 C 76.577724609375 190.96227952000004 80.53552697737501 187 85.417724609375 187 C 90.29992224137499 187 94.25772460937497 190.96227952000004 94.25772460937497 195.85000000000002 C 94.25772460937497 200.73772048 90.29992224137499 204.70000000000005 85.417724609375 204.70000000000005 C 80.53552697737501 204.70000000000005 76.577724609375 200.73772048 76.577724609375 195.85000000000002 Z"/></g><g><path fill="none" stroke="#000000" paint-order="fill stroke markers" d=" M 76.577724609375 195.85000000000002 C 76.577724609375 190.96227952000004 80.53552697737501 187 85.417724609375 187 C 90.29992224137499 187 94.25772460937497 190.96227952000004 94.25772460937497 195.85000000000002 C 94.25772460937497 200.73772048 90.29992224137499 204.70000000000005 85.417724609375 204.70000000000005 C 80.53552697737501 204.70000000000005 76.577724609375 200.73772048 76.577724609375 195.85000000000002 Z" stroke-miterlimit="10" stroke-dasharray=""/></g><g><path fill="none" stroke="#000000" paint-order="fill stroke markers" d=" M 85.417724609375 204.70000000000005 L 85.417724609375 222.29999999999995" stroke-miterlimit="10" stroke-dasharray=""/></g><g><path fill="none" stroke="#000000" paint-order="fill stroke markers" d=" M 76.05772460937499 211.29999999999995 L 94.77772460937501 211.29999999999995" stroke-miterlimit="10" stroke-dasharray=""/></g><g><path fill="none" stroke="#000000" paint-order="fill stroke markers" d=" M 85.417724609375 222.29999999999995 L 72.417724609375 240" stroke-miterlimit="10" stroke-dasharray=""/></g><g><path fill="none" stroke="#000000" paint-order="fill stroke markers" d=" M 85.417724609375 222.29999999999995 L 98.417724609375 240" stroke-miterlimit="10" stroke-dasharray=""/></g><g><g><path fill="none" stroke="none"/><text fill="#000000" stroke="none" font-family="Arial" font-size="13px" font-style="normal" font-weight="bold" text-decoration="undefined" x="256.917724609375" y="669.5" text-anchor="middle" dominant-baseline="central" transform="matrix(1 0 0 1 -171 -415)">Utente non autenticato</text></g></g><g><path fill="#C0C0C0" stroke="none" paint-order="stroke fill markers" d=" M 225 243.5 C 225 228.86445279999998 318.1247616 217 433 217 C 547.8752384 217 641 228.86445279999998 641 243.5 C 641 258.1355472 547.8752384 270 433 270 C 318.1247616 270 225 258.1355472 225 243.5 Z" fill-opacity="0.2"/></g><g><path fill="#ffffff" stroke="none" paint-order="stroke fill markers" d=" M 218 236.5 C 218 221.86445279999998 311.1247616 210 426 210 C 540.8752384 210 634 221.86445279999998 634 236.5 C 634 251.13554720000002 540.8752384 263 426 263 C 311.1247616 263 218 251.13554720000002 218 236.5 Z"/></g><g><path fill="none" stroke="#000000" paint-order="fill stroke markers" d=" M 218 236.5 C 218 221.86445279999998 311.1247616 210 426 210 C 540.8752384 210 634 221.86445279999998 634 236.5 C 634 251.13554720000002 540.8752384 263 426 263 C 311.1247616 263 218 251.13554720000002 218 236.5 Z" stroke-miterlimit="10" stroke-dasharray=""/></g><g><g><path fill="none" stroke="none"/><text fill="#000000" stroke="none" font-family="Arial" font-size="13px" font-style="normal" font-weight="bold" text-decoration="undefined" x="597" y="646" text-anchor="middle" dominant-baseline="central" transform="matrix(1 0 0 1 -171 -415)">UC12 - Reimpostazione password</text><text fill="#000000" stroke="none" font-family="Arial" font-size="13px" font-style="normal" font-weight="bold" text-decoration="undefined" x="597" y="659" text-anchor="middle" dominant-baseline="central" transform="matrix(1 0 0 1 -171 -415)">dimenticata</text></g></g><g><path fill="#C0C0C0" stroke="none" paint-order="stroke fill markers" d=" M 257 123.5 C 257 108.86445279999998 337.588736 97 437 97 C 536.411264 97 617 108.86445279999998 617 123.5 C 617 138.13554720000002 536.411264 150 437 150 C 337.588736 150 257 138.13554720000002 257 123.5 Z" fill-opacity="0.2"/></g><g><path fill="#ffffff" stroke="none" paint-order="stroke fill markers" d=" M 250 116.5 C 250 101.86445279999998 330.588736 90 430 90 C 529.411264 90 610 101.86445279999998 610 116.5 C 610 131.13554720000002 529.411264 143 430 143 C 330.588736 143 250 131.13554720000002 250 116.5 Z"/></g><g><path fill="none" stroke="#000000" paint-order="fill stroke markers" d=" M 250 116.5 C 250 101.86445279999998 330.588736 90 430 90 C 529.411264 90 610 101.86445279999998 610 116.5 C 610 131.13554720000002 529.411264 143 430 143 C 330.588736 143 250 131.13554720000002 250 116.5 Z" stroke-miterlimit="10" stroke-dasharray=""/></g><g><g><path fill="none" stroke="none"/><text fill="#000000" stroke="none" font-family="Arial" font-size="13px" font-style="normal" font-weight="bold" text-decoration="undefined" x="601" y="526" text-anchor="middle" dominant-baseline="central" transform="matrix(1 0 0 1 -171 -415)">UC14 - Password non conforme ai</text><text fill="#000000" stroke="none" font-family="Arial" font-size="13px" font-style="normal" font-weight="bold" text-decoration="undefined" x="601" y="539" text-anchor="middle" dominant-baseline="central" transform="matrix(1 0 0 1 -171 -415)">criteri di sicurezza</text></g></g><g><path fill="#C0C0C0" stroke="none" paint-order="stroke fill markers" d=" M 729 187.5 C 729 172.86445279999998 777.3532416 161 837 161 C 896.6467584 161 945 172.86445279999998 945 187.5 C 945 202.13554720000002 896.6467584 214 837 214 C 777.3532416 214 729 202.13554720000002 729 187.5 Z" fill-opacity="0.2"/></g><g><path fill="#ffffff" stroke="none" paint-order="stroke fill markers" d=" M 722 180.5 C 722 165.86445279999998 770.3532416 154 830 154 C 889.6467584 154 938 165.86445279999998 938 180.5 C 938 195.13554720000002 889.6467584 207 830 207 C 770.3532416 207 722 195.13554720000002 722 180.5 Z"/></g><g><path fill="none" stroke="#000000" paint-order="fill stroke markers" d=" M 722 180.5 C 722 165.86445279999998 770.3532416 154 830 154 C 889.6467584 154 938 165.86445279999998 938 180.5 C 938 195.13554720000002 889.6467584 207 830 207 C 770.3532416 207 722 195.13554720000002 722 180.5 Z" stroke-miterlimit="10" stroke-dasharray=""/></g><g><g><path fill="none" stroke="none"/><text fill="#000000" stroke="none" font-family="Arial" font-size="13px" font-style="normal" font-weight="bold" text-decoration="undefined" x="1001" y="590" text-anchor="middle" dominant-baseline="central" transform="matrix(1 0 0 1 -171 -415)">UC13 - Password non</text><text fill="#000000" stroke="none" font-family="Arial" font-size="13px" font-style="normal" font-weight="bold" text-decoration="undefined" x="1001" y="603" text-anchor="middle" dominant-baseline="central" transform="matrix(1 0 0 1 -171 -415)">coincidenti</text></g></g><g><path fill="#C0C0C0" stroke="none" paint-order="stroke fill markers" d=" M 297 355.5 C 297 340.8644528 357.88926719999995 329 433 329 C 508.11073280000005 329 569 340.8644528 569 355.5 C 569 370.1355472 508.11073280000005 382 433 382 C 357.88926719999995 382 297 370.1355472 297 355.5 Z" fill-opacity="0.2"/></g><g><path fill="#ffffff" stroke="none" paint-order="stroke fill markers" d=" M 290 348.5 C 290 333.8644528 350.88926719999995 322 426 322 C 501.11073280000005 322 562 333.8644528 562 348.5 C 562 363.1355472 501.11073280000005 375 426 375 C 350.88926719999995 375 290 363.1355472 290 348.5 Z"/></g><g><path fill="none" stroke="#000000" paint-order="fill stroke markers" d=" M 290 348.5 C 290 333.8644528 350.88926719999995 322 426 322 C 501.11073280000005 322 562 333.8644528 562 348.5 C 562 363.1355472 501.11073280000005 375 426 375 C 350.88926719999995 375 290 363.1355472 290 348.5 Z" stroke-miterlimit="10" stroke-dasharray=""/></g><g><g><path fill="none" stroke="none"/><text fill="#000000" stroke="none" font-family="Arial" font-size="13px" font-style="normal" font-weight="bold" text-decoration="undefined" x="597" y="758" text-anchor="middle" dominant-baseline="central" transform="matrix(1 0 0 1 -171 -415)">UC12.1 - Inserimento nuova</text><text fill="#000000" stroke="none" font-family="Arial" font-size="13px" font-style="normal" font-weight="bold" text-decoration="undefined" x="597" y="771" text-anchor="middle" dominant-baseline="central" transform="matrix(1 0 0 1 -171 -415)">password</text></g></g><g><path fill="#C0C0C0" stroke="none" paint-order="stroke fill markers" d=" M 737 331.5 C 737 316.8644528 785.3532416 305 845 305 C 904.6467584 305 953 316.8644528 953 331.5 C 953 346.1355472 904.6467584 358 845 358 C 785.3532416 358 737 346.1355472 737 331.5 Z" fill-opacity="0.2"/></g><g><path fill="#ffffff" stroke="none" paint-order="stroke fill markers" d=" M 730 324.5 C 730 309.8644528 778.3532416 298 838 298 C 897.6467584 298 946 309.8644528 946 324.5 C 946 339.1355472 897.6467584 351 838 351 C 778.3532416 351 730 339.1355472 730 324.5 Z"/></g><g><path fill="none" stroke="#000000" paint-order="fill stroke markers" d=" M 730 324.5 C 730 309.8644528 778.3532416 298 838 298 C 897.6467584 298 946 309.8644528 946 324.5 C 946 339.1355472 897.6467584 351 838 351 C 778.3532416 351 730 339.1355472 730 324.5 Z" stroke-miterlimit="10" stroke-dasharray=""/></g><g><g><path fill="none" stroke="none"/><text fill="#000000" stroke="none" font-family="Arial" font-size="13px" font-style="normal" font-weight="bold" text-decoration="undefined" x="1009" y="734" text-anchor="middle" dominant-baseline="central" transform="matrix(1 0 0 1 -171 -415)">UC12.2 - Conferma</text><text fill="#000000" stroke="none" font-family="Arial" font-size="13px" font-style="normal" font-weight="bold" text-decoration="undefined" x="1009" y="747" text-anchor="middle" dominant-baseline="central" transform="matrix(1 0 0 1 -171 -415)">password</text></g></g><g><path fill="none" stroke="#000000" paint-order="fill stroke markers" d=" M 429 144 L 427 209" stroke-miterlimit="10" stroke-dasharray="3"/></g><g><path fill="none" stroke="#000000" paint-order="fill stroke markers" d=" M 423.1050232716867 198.71267010901772 L 427 209 L 431.52007626906254 198.97159481662925" stroke-miterlimit="10" stroke-dasharray=""/></g><g><rect fill="#ffffff" stroke="none" x="602" y="585" width="53.49169921875" height="13" transform="matrix(1 0 0 1 -171 -415)"/></g><g><g><path fill="none" stroke="none"/><text fill="#000000" stroke="none" font-family="Arial" font-size="13px" font-style="normal" font-weight="normal" text-decoration="undefined" x="628.745849609375" y="591.5" text-anchor="middle" dominant-baseline="central" transform="matrix(1 0 0 1 -171 -415)">«extend»</text></g></g><g><path fill="none" stroke="#000000" paint-order="fill stroke markers" d=" M 721 195 L 621 209" stroke-miterlimit="10" stroke-dasharray="3"/></g><g><path fill="none" stroke="#000000" paint-order="fill stroke markers" d=" M 630.4808806059818 203.42210586913689 L 621 209 L 631.6481617327837 211.75982820343586" stroke-miterlimit="10" stroke-dasharray=""/></g><g><rect fill="#ffffff" stroke="none" x="813" y="596" width="53.49169921875" height="13" transform="matrix(1 0 0 1 -171 -415)"/></g><g><g><path fill="none" stroke="none"/><text fill="#000000" stroke="none" font-family="Arial" font-size="13px" font-style="normal" font-weight="normal" text-decoration="undefined" x="839.745849609375" y="602.5" text-anchor="middle" dominant-baseline="central" transform="matrix(1 0 0 1 -171 -415)">«extend»</text></g></g><g><path fill="none" stroke="#000000" paint-order="fill stroke markers" d=" M 426 264 L 426 321" stroke-miterlimit="10" stroke-dasharray="3"/></g><g><path fill="none" stroke="#000000" paint-order="fill stroke markers" d=" M 421.790482243984 310.8373251423759 L 426 321 L 430.209517756016 310.8373251423759" stroke-miterlimit="10" stroke-dasharray=""/></g><g><rect fill="#ffffff" stroke="none" x="599" y="700" width="55.65625" height="13" transform="matrix(1 0 0 1 -171 -415)"/></g><g><g><path fill="none" stroke="none"/><text fill="#000000" stroke="none" font-family="Arial" font-size="13px" font-style="normal" font-weight="normal" text-decoration="undefined" x="626.828125" y="706.5" text-anchor="middle" dominant-baseline="central" transform="matrix(1 0 0 1 -171 -415)">«include»</text></g></g><g><path fill="none" stroke="#000000" paint-order="fill stroke markers" d=" M 557 264 L 729 301" stroke-miterlimit="10" stroke-dasharray="3"/></g><g><path fill="none" stroke="#000000" paint-order="fill stroke markers" d=" M 718.1793216094288 302.9781099989194 L 729 301 L 719.9498899388195 294.74735992715716" stroke-miterlimit="10" stroke-dasharray=""/></g><g><rect fill="#ffffff" stroke="none" x="796" y="716" width="55.65625" height="13" transform="matrix(1 0 0 1 -171 -415)"/></g><g><g><path fill="none" stroke="none"/><text fill="#000000" stroke="none" font-family="Arial" font-size="13px" font-style="normal" font-weight="normal" text-decoration="undefined" x="823.828125" y="722.5" text-anchor="middle" dominant-baseline="central" transform="matrix(1 0 0 1 -171 -415)">«include»</text></g></g><g><path fill="none" stroke="#000000" paint-order="fill stroke markers" d=" M 217 230 L 162 228" stroke-miterlimit="10" stroke-dasharray=""/></g><g><path fill="#ffffff" stroke="none" paint-order="stroke fill markers" d=" M 90 58 L 215 58 L 225 68 L 225 175 L 90 175 L 90 58"/></g><g><path fill="none" stroke="#000000" paint-order="fill stroke markers" d=" M 90 58 L 215 58 L 225 68 L 225 175 L 90 175 L 90 58 L 90 58" stroke-miterlimit="10" stroke-dasharray=""/></g><g><path fill="none" stroke="#000000" paint-order="fill stroke markers" d=" M 215 58 L 215 68 L 225 68 L 215 58" stroke-miterlimit="10" stroke-dasharray=""/></g><g><g><path fill="none" stroke="none"/><text fill="#000000" stroke="none" font-family="Arial" font-size="13px" font-style="normal" font-weight="normal" text-decoration="undefined" x="329" y="485" text-anchor="middle" dominant-baseline="text-before-edge" transform="matrix(1 0 0 1 -171 -415)">Condizione:</text></g></g><g><g><path fill="none" stroke="none"/><text fill="#000000" stroke="none" font-family="Arial" font-size="13px" font-style="normal" font-weight="normal" text-decoration="undefined" x="329" y="500" text-anchor="middle" dominant-baseline="text-before-edge" transform="matrix(1 0 0 1 -171 -415)">L'utente ha inserito</text><text fill="#000000" stroke="none" font-family="Arial" font-size="13px" font-style="normal" font-weight="normal" text-decoration="undefined" x="329" y="513" text-anchor="middle" dominant-baseline="text-before-edge" transform="matrix(1 0 0 1 -171 -415)">una nuova password</text><text fill="#000000" stroke="none" font-family="Arial" font-size="13px" font-style="normal" font-weight="normal" text-decoration="undefined" x="329" y="526" text-anchor="middle" dominant-baseline="text-before-edge" transform="matrix(1 0 0 1 -171 -415)">che non corrisponde</text><text fill="#000000" stroke="none" font-family="Arial" font-size="13px" font-style="normal" font-weight="normal" text-decoration="undefined" x="329" y="539" text-anchor="middle" dominant-baseline="text-before-edge" transform="matrix(1 0 0 1 -171 -415)">ai criteri di sicurezza</text><text fill="#000000" stroke="none" font-family="Arial" font-size="13px" font-style="normal" font-weight="normal" text-decoration="undefined" x="329" y="552" text-anchor="middle" dominant-baseline="text-before-edge" transform="matrix(1 0 0 1 -171 -415)">stabiliti</text></g></g><g><path fill="#ffffff" stroke="none" paint-order="stroke fill markers" d=" M 642 10 L 767 10 L 777 20 L 777 127 L 642 127 L 642 10"/></g><g><path fill="none" stroke="#000000" paint-order="fill stroke markers" d=" M 642 10 L 767 10 L 777 20 L 777 127 L 642 127 L 642 10 L 642 10" stroke-miterlimit="10" stroke-dasharray=""/></g><g><path fill="none" stroke="#000000" paint-order="fill stroke markers" d=" M 767 10 L 767 20 L 777 20 L 767 10" stroke-miterlimit="10" stroke-dasharray=""/></g><g><g><path fill="none" stroke="none"/><text fill="#000000" stroke="none" font-family="Arial" font-size="13px" font-style="normal" font-weight="normal" text-decoration="undefined" x="881" y="430" text-anchor="middle" dominant-baseline="text-before-edge" transform="matrix(1 0 0 1 -171 -415)">Condizione:</text></g></g><g><g><path fill="none" stroke="none"/><text fill="#000000" stroke="none" font-family="Arial" font-size="13px" font-style="normal" font-weight="normal" text-decoration="undefined" x="881" y="445" text-anchor="middle" dominant-baseline="text-before-edge" transform="matrix(1 0 0 1 -171 -415)">L'utente ha inserito</text><text fill="#000000" stroke="none" font-family="Arial" font-size="13px" font-style="normal" font-weight="normal" text-decoration="undefined" x="881" y="458" text-anchor="middle" dominant-baseline="text-before-edge" transform="matrix(1 0 0 1 -171 -415)">una nuova password</text><text fill="#000000" stroke="none" font-family="Arial" font-size="13px" font-style="normal" font-weight="normal" text-decoration="undefined" x="881" y="471" text-anchor="middle" dominant-baseline="text-before-edge" transform="matrix(1 0 0 1 -171 -415)">che non corrisponde</text><text fill="#000000" stroke="none" font-family="Arial" font-size="13px" font-style="normal" font-weight="normal" text-decoration="undefined" x="881" y="484" text-anchor="middle" dominant-baseline="text-before-edge" transform="matrix(1 0 0 1 -171 -415)">al campo in cui deve</text><text fill="#000000" stroke="none" font-family="Arial" font-size="13px" font-style="normal" font-weight="normal" text-decoration="undefined" x="881" y="497" text-anchor="middle" dominant-baseline="text-before-edge" transform="matrix(1 0 0 1 -171 -415)">confermare la stessa</text></g></g><g><path fill="none" stroke="#000000" paint-order="fill stroke markers" d=" M 227 132 L 428 176" stroke-miterlimit="10" stroke-dasharray="3"/></g><g><path fill="none" stroke="#000000" paint-order="fill stroke markers" d=" M 692 129 L 671 202" stroke-miterlimit="10" stroke-dasharray="3"/></g></g></svg>