<svg version="1.1" xmlns="http://www.w3.org/2000/svg" xmlns:xlink="http://www.w3.org/1999/xlink" width="797" height="340"><defs/><g><g><rect fill="#C0C0C0" stroke="none" x="361" y="258" width="592" height="320" transform="matrix(1 0 0 1 -160 -241)" fill-opacity="0.2"/></g><g><rect fill="#ffffff" stroke="none" x="354" y="251" width="592" height="320" transform="matrix(1 0 0 1 -160 -241)"/></g><g><path fill="none" stroke="#000000" paint-order="fill stroke markers" d=" M 194 10 L 786 10 L 786 330 L 194 330 L 194 10 Z Z" stroke-miterlimit="10" stroke-dasharray=""/></g><g><g><path fill="none" stroke="none"/><text fill="#000000" stroke="none" font-family="Arial" font-size="13px" font-style="normal" font-weight="bold" text-decoration="undefined" x="650.5" y="264.5" text-anchor="middle" dominant-baseline="central" transform="matrix(1 0 0 1 -160 -241)">Sistema Cloud</text></g></g><g><path fill="#ffffff" stroke="none" paint-order="stroke fill markers" d=" M 46.607265625 75.85000000000002 C 46.607265625 70.96227952000004 50.565067992999985 67 55.447265625 67 C 60.329463257000015 67 64.287265625 70.96227952000004 64.287265625 75.85000000000002 C 64.287265625 80.73772048000001 60.329463257000015 84.69999999999999 55.447265625 84.69999999999999 C 50.565067992999985 84.69999999999999 46.607265625 80.73772048000001 46.607265625 75.85000000000002 Z"/></g><g><path fill="none" stroke="#000000" paint-order="fill stroke markers" d=" M 46.607265625 75.85000000000002 C 46.607265625 70.96227952000004 50.565067992999985 67 55.447265625 67 C 60.329463257000015 67 64.287265625 70.96227952000004 64.287265625 75.85000000000002 C 64.287265625 80.73772048000001 60.329463257000015 84.69999999999999 55.447265625 84.69999999999999 C 50.565067992999985 84.69999999999999 46.607265625 80.73772048000001 46.607265625 75.85000000000002 Z" stroke-miterlimit="10" stroke-dasharray=""/></g><g><path fill="none" stroke="#000000" paint-order="fill stroke markers" d=" M 55.447265625 84.69999999999999 L 55.447265625 102.30000000000001" stroke-miterlimit="10" stroke-dasharray=""/></g><g><path fill="none" stroke="#000000" paint-order="fill stroke markers" d=" M 46.087265624999986 91.30000000000001 L 64.80726562500001 91.30000000000001" stroke-miterlimit="10" stroke-dasharray=""/></g><g><path fill="none" stroke="#000000" paint-order="fill stroke markers" d=" M 55.447265625 102.30000000000001 L 42.447265625 120" stroke-miterlimit="10" stroke-dasharray=""/></g><g><path fill="none" stroke="#000000" paint-order="fill stroke markers" d=" M 55.447265625 102.30000000000001 L 68.447265625 120" stroke-miterlimit="10" stroke-dasharray=""/></g><g><g><path fill="none" stroke="none"/><text fill="#000000" stroke="none" font-family="Arial" font-size="13px" font-style="normal" font-weight="bold" text-decoration="undefined" x="215.947265625" y="375.5" text-anchor="middle" dominant-baseline="central" transform="matrix(1 0 0 1 -160 -241)">Super Admin</text></g></g><g><path fill="#C0C0C0" stroke="none" paint-order="stroke fill markers" d=" M 225 93 C 225 73.1177472 271.5623808 57 329 57 C 386.4376192 57 433 73.1177472 433 93 C 433 112.8822528 386.4376192 129 329 129 C 271.5623808 129 225 112.8822528 225 93 Z" fill-opacity="0.2"/></g><g><path fill="#ffffff" stroke="none" paint-order="stroke fill markers" d=" M 218 86 C 218 66.1177472 264.5623808 50 322 50 C 379.4376192 50 426 66.1177472 426 86 C 426 105.8822528 379.4376192 122 322 122 C 264.5623808 122 218 105.8822528 218 86 Z"/></g><g><path fill="none" stroke="#000000" paint-order="fill stroke markers" d=" M 218 86 C 218 66.1177472 264.5623808 50 322 50 C 379.4376192 50 426 66.1177472 426 86 C 426 105.8822528 379.4376192 122 322 122 C 264.5623808 122 218 105.8822528 218 86 Z" stroke-miterlimit="10" stroke-dasharray=""/></g><g><g><path fill="none" stroke="none"/><text fill="#000000" stroke="none" font-family="Arial" font-size="13px" font-style="normal" font-weight="bold" text-decoration="undefined" x="482" y="321.5" text-anchor="middle" dominant-baseline="central" transform="matrix(1 0 0 1 -160 -241)">UC120 - Eliminazione</text><text fill="#000000" stroke="none" font-family="Arial" font-size="13px" font-style="normal" font-weight="bold" text-decoration="undefined" x="482" y="334.5" text-anchor="middle" dominant-baseline="central" transform="matrix(1 0 0 1 -160 -241)">sensore simulato</text></g></g><g><path fill="#C0C0C0" stroke="none" paint-order="stroke fill markers" d=" M 537 105 C 537 78.4903296 587.1441024 57 649 57 C 710.8558976 57 761 78.4903296 761 105 C 761 131.5096704 710.8558976 153 649 153 C 587.1441024 153 537 131.5096704 537 105 Z" fill-opacity="0.2"/></g><g><path fill="#ffffff" stroke="none" paint-order="stroke fill markers" d=" M 530 98 C 530 71.4903296 580.1441024 50 642 50 C 703.8558976 50 754 71.4903296 754 98 C 754 124.5096704 703.8558976 146 642 146 C 580.1441024 146 530 124.5096704 530 98 Z"/></g><g><path fill="none" stroke="#000000" paint-order="fill stroke markers" d=" M 530 98 C 530 71.4903296 580.1441024 50 642 50 C 703.8558976 50 754 71.4903296 754 98 C 754 124.5096704 703.8558976 146 642 146 C 580.1441024 146 530 124.5096704 530 98 Z" stroke-miterlimit="10" stroke-dasharray=""/></g><g><g><path fill="none" stroke="none"/><text fill="#000000" stroke="none" font-family="Arial" font-size="13px" font-style="normal" font-weight="bold" text-decoration="undefined" x="802" y="327" text-anchor="middle" dominant-baseline="central" transform="matrix(1 0 0 1 -160 -241)">UC120.1 - Seleziona</text><text fill="#000000" stroke="none" font-family="Arial" font-size="13px" font-style="normal" font-weight="bold" text-decoration="undefined" x="802" y="340" text-anchor="middle" dominant-baseline="central" transform="matrix(1 0 0 1 -160 -241)">sensore simulato da</text><text fill="#000000" stroke="none" font-family="Arial" font-size="13px" font-style="normal" font-weight="bold" text-decoration="undefined" x="802" y="353" text-anchor="middle" dominant-baseline="central" transform="matrix(1 0 0 1 -160 -241)">eliminare</text></g></g><g><path fill="#C0C0C0" stroke="none" paint-order="stroke fill markers" d=" M 361 270 C 361 245.14718399999998 405.77152 225 461 225 C 516.22848 225 561 245.14718399999998 561 270 C 561 294.85281599999996 516.22848 315 461 315 C 405.77152 315 361 294.85281599999996 361 270 Z" fill-opacity="0.2"/></g><g><path fill="#ffffff" stroke="none" paint-order="stroke fill markers" d=" M 354 263 C 354 238.14718399999998 398.77152 218 454 218 C 509.22848 218 554 238.14718399999998 554 263 C 554 287.85281599999996 509.22848 308 454 308 C 398.77152 308 354 287.85281599999996 354 263 Z"/></g><g><path fill="none" stroke="#000000" paint-order="fill stroke markers" d=" M 354 263 C 354 238.14718399999998 398.77152 218 454 218 C 509.22848 218 554 238.14718399999998 554 263 C 554 287.85281599999996 509.22848 308 454 308 C 398.77152 308 354 287.85281599999996 354 263 Z" stroke-miterlimit="10" stroke-dasharray=""/></g><g><g><path fill="none" stroke="none"/><text fill="#000000" stroke="none" font-family="Arial" font-size="13px" font-style="normal" font-weight="bold" text-decoration="undefined" x="614" y="492" text-anchor="middle" dominant-baseline="central" transform="matrix(1 0 0 1 -160 -241)">UC120.2 - Conferma</text><text fill="#000000" stroke="none" font-family="Arial" font-size="13px" font-style="normal" font-weight="bold" text-decoration="undefined" x="614" y="505" text-anchor="middle" dominant-baseline="central" transform="matrix(1 0 0 1 -160 -241)">eliminazione</text><text fill="#000000" stroke="none" font-family="Arial" font-size="13px" font-style="normal" font-weight="bold" text-decoration="undefined" x="614" y="518" text-anchor="middle" dominant-baseline="central" transform="matrix(1 0 0 1 -160 -241)">sensore simulato</text></g></g><g><path fill="none" stroke="#000000" paint-order="fill stroke markers" d=" M 102 102 L 217 94" stroke-miterlimit="10" stroke-dasharray=""/></g><g><path fill="none" stroke="#000000" paint-order="fill stroke markers" d=" M 350 123 L 420 217" stroke-miterlimit="10" stroke-dasharray="3"/></g><g><path fill="none" stroke="#000000" paint-order="fill stroke markers" d=" M 410.5539636406862 211.36329909445948 L 420 217 L 417.30639306882256 206.33489420116643" stroke-miterlimit="10" stroke-dasharray=""/></g><g><rect fill="#ffffff" stroke="none" x="542" y="387" width="55.65625" height="13" transform="matrix(1 0 0 1 -160 -241)"/></g><g><g><path fill="none" stroke="none"/><text fill="#000000" stroke="none" font-family="Arial" font-size="13px" font-style="normal" font-weight="normal" text-decoration="undefined" x="569.828125" y="393.5" text-anchor="middle" dominant-baseline="central" transform="matrix(1 0 0 1 -160 -241)">«include»</text></g></g><g><path fill="none" stroke="#000000" paint-order="fill stroke markers" d=" M 427 90 L 529 94" stroke-miterlimit="10" stroke-dasharray="3"/></g><g><path fill="none" stroke="#000000" paint-order="fill stroke markers" d=" M 518.6801782385821 97.80805446554626 L 529 94 L 519.0100829161495 89.39548518758045" stroke-miterlimit="10" stroke-dasharray=""/></g><g><rect fill="#ffffff" stroke="none" x="612" y="297" width="55.65625" height="13" transform="matrix(1 0 0 1 -160 -241)"/></g><g><g><path fill="none" stroke="none"/><text fill="#000000" stroke="none" font-family="Arial" font-size="13px" font-style="normal" font-weight="normal" text-decoration="undefined" x="639.828125" y="303.5" text-anchor="middle" dominant-baseline="central" transform="matrix(1 0 0 1 -160 -241)">«include»</text></g></g></g></svg>