<svg version="1.1" xmlns="http://www.w3.org/2000/svg" xmlns:xlink="http://www.w3.org/1999/xlink" width="765" height="388"><defs/><g><g><rect fill="#C0C0C0" stroke="none" x="398" y="211" width="616" height="368" transform="matrix(1 0 0 1 -253 -194)" fill-opacity="0.2"/></g><g><rect fill="#ffffff" stroke="none" x="391" y="204" width="616" height="368" transform="matrix(1 0 0 1 -253 -194)"/></g><g><path fill="none" stroke="#000000" paint-order="fill stroke markers" d=" M 138 10 L 754 10 L 754 378 L 138 378 L 138 10 Z Z" stroke-miterlimit="10" stroke-dasharray=""/></g><g><g><path fill="none" stroke="none"/><text fill="#000000" stroke="none" font-family="Arial" font-size="13px" font-style="normal" font-weight="bold" text-decoration="undefined" x="699.5" y="217.5" text-anchor="middle" dominant-baseline="central" transform="matrix(1 0 0 1 -253 -194)">Sistema Gateway</text></g></g><g><path fill="#ffffff" stroke="none" paint-order="stroke fill markers" d=" M 32.896328125000025 99.85000000000002 C 32.896328125000025 94.96227952000004 36.854130493000014 91 41.736328125 91 C 46.618525756999986 91 50.576328124999975 94.96227952000004 50.576328124999975 99.85000000000002 C 50.576328124999975 104.73772048000001 46.618525756999986 108.69999999999999 41.736328125 108.69999999999999 C 36.854130493000014 108.69999999999999 32.896328125000025 104.73772048000001 32.896328125000025 99.85000000000002 Z"/></g><g><path fill="none" stroke="#000000" paint-order="fill stroke markers" d=" M 32.896328125000025 99.85000000000002 C 32.896328125000025 94.96227952000004 36.854130493000014 91 41.736328125 91 C 46.618525756999986 91 50.576328124999975 94.96227952000004 50.576328124999975 99.85000000000002 C 50.576328124999975 104.73772048000001 46.618525756999986 108.69999999999999 41.736328125 108.69999999999999 C 36.854130493000014 108.69999999999999 32.896328125000025 104.73772048000001 32.896328125000025 99.85000000000002 Z" stroke-miterlimit="10" stroke-dasharray=""/></g><g><path fill="none" stroke="#000000" paint-order="fill stroke markers" d=" M 41.736328125 108.69999999999999 L 41.736328125 126.30000000000001" stroke-miterlimit="10" stroke-dasharray=""/></g><g><path fill="none" stroke="#000000" paint-order="fill stroke markers" d=" M 32.376328124999986 115.30000000000001 L 51.096328125000014 115.30000000000001" stroke-miterlimit="10" stroke-dasharray=""/></g><g><path fill="none" stroke="#000000" paint-order="fill stroke markers" d=" M 41.736328125 126.30000000000001 L 28.736328125 144" stroke-miterlimit="10" stroke-dasharray=""/></g><g><path fill="none" stroke="#000000" paint-order="fill stroke markers" d=" M 41.736328125 126.30000000000001 L 54.736328125 144" stroke-miterlimit="10" stroke-dasharray=""/></g><g><g><path fill="none" stroke="none"/><text fill="#000000" stroke="none" font-family="Arial" font-size="13px" font-style="normal" font-weight="bold" text-decoration="undefined" x="295.236328125" y="352.5" text-anchor="middle" dominant-baseline="central" transform="matrix(1 0 0 1 -253 -194)">Gateway</text></g></g><g><path fill="#C0C0C0" stroke="none" paint-order="stroke fill markers" d=" M 193 125 C 193 105.1177472 223.44463359999997 89 261 89 C 298.5553664 89 329 105.1177472 329 125 C 329 144.8822528 298.5553664 161 261 161 C 223.44463359999997 161 193 144.8822528 193 125 Z" fill-opacity="0.2"/></g><g><path fill="#ffffff" stroke="none" paint-order="stroke fill markers" d=" M 186 118 C 186 98.1177472 216.44463359999997 82 254 82 C 291.5553664 82 322 98.1177472 322 118 C 322 137.8822528 291.5553664 154 254 154 C 216.44463359999997 154 186 137.8822528 186 118 Z"/></g><g><path fill="none" stroke="#000000" paint-order="fill stroke markers" d=" M 186 118 C 186 98.1177472 216.44463359999997 82 254 82 C 291.5553664 82 322 98.1177472 322 118 C 322 137.8822528 291.5553664 154 254 154 C 216.44463359999997 154 186 137.8822528 186 118 Z" stroke-miterlimit="10" stroke-dasharray=""/></g><g><g><path fill="none" stroke="none"/><text fill="#000000" stroke="none" font-family="Arial" font-size="13px" font-style="normal" font-weight="bold" text-decoration="undefined" x="507" y="300" text-anchor="middle" dominant-baseline="central" transform="matrix(1 0 0 1 -253 -194)">UC138 - Invio</text><text fill="#000000" stroke="none" font-family="Arial" font-size="13px" font-style="normal" font-weight="bold" text-decoration="undefined" x="507" y="313" text-anchor="middle" dominant-baseline="central" transform="matrix(1 0 0 1 -253 -194)">comando di</text><text fill="#000000" stroke="none" font-family="Arial" font-size="13px" font-style="normal" font-weight="bold" text-decoration="undefined" x="507" y="326" text-anchor="middle" dominant-baseline="central" transform="matrix(1 0 0 1 -253 -194)">hello</text></g></g><g><path fill="#C0C0C0" stroke="none" paint-order="stroke fill markers" d=" M 497 93 C 497 77.53602560000002 547.1441024 65 609 65 C 670.8558976 65 721 77.53602560000002 721 93 C 721 108.46397439999998 670.8558976 121 609 121 C 547.1441024 121 497 108.46397439999998 497 93 Z" fill-opacity="0.2"/></g><g><path fill="#ffffff" stroke="none" paint-order="stroke fill markers" d=" M 490 86 C 490 70.53602560000002 540.1441024 58 602 58 C 663.8558976 58 714 70.53602560000002 714 86 C 714 101.46397439999998 663.8558976 114 602 114 C 540.1441024 114 490 101.46397439999998 490 86 Z"/></g><g><path fill="none" stroke="#000000" paint-order="fill stroke markers" d=" M 490 86 C 490 70.53602560000002 540.1441024 58 602 58 C 663.8558976 58 714 70.53602560000002 714 86 C 714 101.46397439999998 663.8558976 114 602 114 C 540.1441024 114 490 101.46397439999998 490 86 Z" stroke-miterlimit="10" stroke-dasharray=""/></g><g><g><path fill="none" stroke="none"/><text fill="#000000" stroke="none" font-family="Arial" font-size="13px" font-style="normal" font-weight="bold" text-decoration="undefined" x="855" y="274.5" text-anchor="middle" dominant-baseline="central" transform="matrix(1 0 0 1 -253 -194)">UC139 - Autenticazione</text><text fill="#000000" stroke="none" font-family="Arial" font-size="13px" font-style="normal" font-weight="bold" text-decoration="undefined" x="855" y="287.5" text-anchor="middle" dominant-baseline="central" transform="matrix(1 0 0 1 -253 -194)">Gateway fallita</text></g></g><g><path fill="none" stroke="#000000" paint-order="fill stroke markers" d=" M 489 96 L 323 112" stroke-miterlimit="10" stroke-dasharray="3"/></g><g><path fill="none" stroke="#000000" paint-order="fill stroke markers" d=" M 332.71192974638313 106.83488426060774 L 323 112 L 333.5196597470125 115.21508301713726" stroke-miterlimit="10" stroke-dasharray=""/></g><g><rect fill="#ffffff" stroke="none" x="632" y="275" width="53.49169921875" height="13" transform="matrix(1 0 0 1 -253 -194)"/></g><g><g><path fill="none" stroke="none"/><text fill="#000000" stroke="none" font-family="Arial" font-size="13px" font-style="normal" font-weight="normal" text-decoration="undefined" x="658.745849609375" y="281.5" text-anchor="middle" dominant-baseline="central" transform="matrix(1 0 0 1 -253 -194)">«extend»</text></g></g><g><path fill="none" stroke="#000000" paint-order="fill stroke markers" d=" M 260 273 L 256 155" stroke-miterlimit="10" stroke-dasharray="3"/></g><g><path fill="none" stroke="#000000" paint-order="fill stroke markers" d=" M 260.55140096336095 165.01422734267186 L 256 155 L 252.13719842274446 165.29945454743853" stroke-miterlimit="10" stroke-dasharray=""/></g><g><rect fill="#ffffff" stroke="none" x="459" y="394" width="53.49169921875" height="13" transform="matrix(1 0 0 1 -253 -194)"/></g><g><g><path fill="none" stroke="none"/><text fill="#000000" stroke="none" font-family="Arial" font-size="13px" font-style="normal" font-weight="normal" text-decoration="undefined" x="485.745849609375" y="400.5" text-anchor="middle" dominant-baseline="central" transform="matrix(1 0 0 1 -253 -194)">«extend»</text></g></g><g><path fill="none" stroke="#000000" paint-order="fill stroke markers" d=" M 74 128 L 185 122" stroke-miterlimit="10" stroke-dasharray=""/></g><g><path fill="#C0C0C0" stroke="none" paint-order="stroke fill markers" d=" M 161 317 C 161 297.1177472 209.3532416 281 269 281 C 328.64675839999995 281 377 297.1177472 377 317 C 377 336.88225279999995 328.64675839999995 353 269 353 C 209.3532416 353 161 336.88225279999995 161 317 Z" fill-opacity="0.2"/></g><g><path fill="#ffffff" stroke="none" paint-order="stroke fill markers" d=" M 154 310 C 154 290.1177472 202.3532416 274 262 274 C 321.64675839999995 274 370 290.1177472 370 310 C 370 329.88225279999995 321.64675839999995 346 262 346 C 202.3532416 346 154 329.88225279999995 154 310 Z"/></g><g><path fill="none" stroke="#000000" paint-order="fill stroke markers" d=" M 154 310 C 154 290.1177472 202.3532416 274 262 274 C 321.64675839999995 274 370 290.1177472 370 310 C 370 329.88225279999995 321.64675839999995 346 262 346 C 202.3532416 346 154 329.88225279999995 154 310 Z" stroke-miterlimit="10" stroke-dasharray=""/></g><g><g><path fill="none" stroke="none"/><text fill="#000000" stroke="none" font-family="Arial" font-size="13px" font-style="normal" font-weight="bold" text-decoration="undefined" x="515" y="498.5" text-anchor="middle" dominant-baseline="central" transform="matrix(1 0 0 1 -253 -194)">UC140 - Identificativo</text><text fill="#000000" stroke="none" font-family="Arial" font-size="13px" font-style="normal" font-weight="bold" text-decoration="undefined" x="515" y="511.5" text-anchor="middle" dominant-baseline="central" transform="matrix(1 0 0 1 -253 -194)">Gateway non trovato</text></g></g><g><path fill="#ffffff" stroke="none" paint-order="stroke fill markers" d=" M 314 178 L 410.0390625 178 L 420.0390625 188 L 420.0390625 254 L 314 254 L 314 178"/></g><g><path fill="none" stroke="#000000" paint-order="fill stroke markers" d=" M 314 178 L 410.0390625 178 L 420.0390625 188 L 420.0390625 254 L 314 254 L 314 178 L 314 178" stroke-miterlimit="10" stroke-dasharray=""/></g><g><path fill="none" stroke="#000000" paint-order="fill stroke markers" d=" M 410.0390625 178 L 410.0390625 188 L 420.0390625 188 L 410.0390625 178" stroke-miterlimit="10" stroke-dasharray=""/></g><g><g><path fill="none" stroke="none"/><text fill="#000000" stroke="none" font-family="Arial" font-size="13px" font-style="normal" font-weight="normal" text-decoration="undefined" x="572" y="377" text-anchor="start" dominant-baseline="text-before-edge" transform="matrix(1 0 0 1 -253 -194)">Condizione: Il</text><text fill="#000000" stroke="none" font-family="Arial" font-size="13px" font-style="normal" font-weight="normal" text-decoration="undefined" x="572" y="390" text-anchor="start" dominant-baseline="text-before-edge" transform="matrix(1 0 0 1 -253 -194)">Sistema fallisce</text><text fill="#000000" stroke="none" font-family="Arial" font-size="13px" font-style="normal" font-weight="normal" text-decoration="undefined" x="572" y="403" text-anchor="start" dominant-baseline="text-before-edge" transform="matrix(1 0 0 1 -253 -194)">nell'autenticare il</text><text fill="#000000" stroke="none" font-family="Arial" font-size="13px" font-style="normal" font-weight="normal" text-decoration="undefined" x="572" y="416" text-anchor="start" dominant-baseline="text-before-edge" transform="matrix(1 0 0 1 -253 -194)">gateway</text></g></g><g><path fill="#ffffff" stroke="none" paint-order="stroke fill markers" d=" M 490 154 L 607 154 L 617 164 L 617 233 L 490 233 L 490 154"/></g><g><path fill="none" stroke="#000000" paint-order="fill stroke markers" d=" M 490 154 L 607 154 L 617 164 L 617 233 L 490 233 L 490 154 L 490 154" stroke-miterlimit="10" stroke-dasharray=""/></g><g><path fill="none" stroke="#000000" paint-order="fill stroke markers" d=" M 607 154 L 607 164 L 617 164 L 607 154" stroke-miterlimit="10" stroke-dasharray=""/></g><g><g><path fill="none" stroke="none"/><text fill="#000000" stroke="none" font-family="Arial" font-size="13px" font-style="normal" font-weight="normal" text-decoration="undefined" x="748" y="353" text-anchor="start" dominant-baseline="text-before-edge" transform="matrix(1 0 0 1 -253 -194)">Condizione: Il</text><text fill="#000000" stroke="none" font-family="Arial" font-size="13px" font-style="normal" font-weight="normal" text-decoration="undefined" x="748" y="366" text-anchor="start" dominant-baseline="text-before-edge" transform="matrix(1 0 0 1 -253 -194)">Sistema non</text><text fill="#000000" stroke="none" font-family="Arial" font-size="13px" font-style="normal" font-weight="normal" text-decoration="undefined" x="748" y="379" text-anchor="start" dominant-baseline="text-before-edge" transform="matrix(1 0 0 1 -253 -194)">riconosce</text><text fill="#000000" stroke="none" font-family="Arial" font-size="13px" font-style="normal" font-weight="normal" text-decoration="undefined" x="748" y="392" text-anchor="start" dominant-baseline="text-before-edge" transform="matrix(1 0 0 1 -253 -194)">l'identificativo del</text><text fill="#000000" stroke="none" font-family="Arial" font-size="13px" font-style="normal" font-weight="normal" text-decoration="undefined" x="748" y="405" text-anchor="start" dominant-baseline="text-before-edge" transform="matrix(1 0 0 1 -253 -194)">gateway ricevuto</text></g></g><g><path fill="none" stroke="#000000" paint-order="fill stroke markers" d=" M 313 215 L 258 214" stroke-miterlimit="10" stroke-dasharray="3"/></g><g><path fill="none" stroke="#000000" paint-order="fill stroke markers" d=" M 489 154 L 406 104" stroke-miterlimit="10" stroke-dasharray="3"/></g></g></svg>