<svg version="1.1" xmlns="http://www.w3.org/2000/svg" xmlns:xlink="http://www.w3.org/1999/xlink" width="765" height="388"><defs/><g><g><rect fill="#C0C0C0" stroke="none" x="412" y="430" width="616" height="368" transform="matrix(1 0 0 1 -267 -413)" fill-opacity="0.2"/></g><g><rect fill="#ffffff" stroke="none" x="405" y="423" width="616" height="368" transform="matrix(1 0 0 1 -267 -413)"/></g><g><path fill="none" stroke="#000000" paint-order="fill stroke markers" d=" M 138 10 L 754 10 L 754 378 L 138 378 L 138 10 Z Z" stroke-miterlimit="10" stroke-dasharray=""/></g><g><g><path fill="none" stroke="none"/><text fill="#000000" stroke="none" font-family="Arial" font-size="13px" font-style="normal" font-weight="bold" text-decoration="undefined" x="713.5" y="436.5" text-anchor="middle" dominant-baseline="central" transform="matrix(1 0 0 1 -267 -413)">Sistema Cloud</text></g></g><g><path fill="#ffffff" stroke="none" paint-order="stroke fill markers" d=" M 32.896328125000025 99.85000000000002 C 32.896328125000025 94.96227952000004 36.854130493000014 91 41.736328125 91 C 46.618525756999986 91 50.576328124999975 94.96227952000004 50.576328124999975 99.85000000000002 C 50.576328124999975 104.73772048000001 46.618525756999986 108.70000000000005 41.736328125 108.70000000000005 C 36.854130493000014 108.70000000000005 32.896328125000025 104.73772048000001 32.896328125000025 99.85000000000002 Z"/></g><g><path fill="none" stroke="#000000" paint-order="fill stroke markers" d=" M 32.896328125000025 99.85000000000002 C 32.896328125000025 94.96227952000004 36.854130493000014 91 41.736328125 91 C 46.618525756999986 91 50.576328124999975 94.96227952000004 50.576328124999975 99.85000000000002 C 50.576328124999975 104.73772048000001 46.618525756999986 108.70000000000005 41.736328125 108.70000000000005 C 36.854130493000014 108.70000000000005 32.896328125000025 104.73772048000001 32.896328125000025 99.85000000000002 Z" stroke-miterlimit="10" stroke-dasharray=""/></g><g><path fill="none" stroke="#000000" paint-order="fill stroke markers" d=" M 41.736328125 108.70000000000005 L 41.736328125 126.29999999999995" stroke-miterlimit="10" stroke-dasharray=""/></g><g><path fill="none" stroke="#000000" paint-order="fill stroke markers" d=" M 32.376328124999986 115.29999999999995 L 51.096328125000014 115.29999999999995" stroke-miterlimit="10" stroke-dasharray=""/></g><g><path fill="none" stroke="#000000" paint-order="fill stroke markers" d=" M 41.736328125 126.29999999999995 L 28.736328125 144" stroke-miterlimit="10" stroke-dasharray=""/></g><g><path fill="none" stroke="#000000" paint-order="fill stroke markers" d=" M 41.736328125 126.29999999999995 L 54.736328125 144" stroke-miterlimit="10" stroke-dasharray=""/></g><g><g><path fill="none" stroke="none"/><text fill="#000000" stroke="none" font-family="Arial" font-size="13px" font-style="normal" font-weight="bold" text-decoration="undefined" x="309.236328125" y="571.5" text-anchor="middle" dominant-baseline="central" transform="matrix(1 0 0 1 -267 -413)">Gateway</text></g></g><g><path fill="#C0C0C0" stroke="none" paint-order="stroke fill markers" d=" M 193 125 C 193 105.11774720000005 223.44463359999997 89 261 89 C 298.5553664 89 329 105.11774720000005 329 125 C 329 144.88225279999995 298.5553664 161 261 161 C 223.44463359999997 161 193 144.88225279999995 193 125 Z" fill-opacity="0.2"/></g><g><path fill="#ffffff" stroke="none" paint-order="stroke fill markers" d=" M 186 118 C 186 98.1177472 216.44463359999997 82 254 82 C 291.5553664 82 322 98.1177472 322 118 C 322 137.88225279999995 291.5553664 154 254 154 C 216.44463359999997 154 186 137.88225279999995 186 118 Z"/></g><g><path fill="none" stroke="#000000" paint-order="fill stroke markers" d=" M 186 118 C 186 98.1177472 216.44463359999997 82 254 82 C 291.5553664 82 322 98.1177472 322 118 C 322 137.88225279999995 291.5553664 154 254 154 C 216.44463359999997 154 186 137.88225279999995 186 118 Z" stroke-miterlimit="10" stroke-dasharray=""/></g><g><g><path fill="none" stroke="none"/><text fill="#000000" stroke="none" font-family="Arial" font-size="13px" font-style="normal" font-weight="bold" text-decoration="undefined" x="521" y="519" text-anchor="middle" dominant-baseline="central" transform="matrix(1 0 0 1 -267 -413)">UC138 - Invio</text><text fill="#000000" stroke="none" font-family="Arial" font-size="13px" font-style="normal" font-weight="bold" text-decoration="undefined" x="521" y="532" text-anchor="middle" dominant-baseline="central" transform="matrix(1 0 0 1 -267 -413)">comando di</text><text fill="#000000" stroke="none" font-family="Arial" font-size="13px" font-style="normal" font-weight="bold" text-decoration="undefined" x="521" y="545" text-anchor="middle" dominant-baseline="central" transform="matrix(1 0 0 1 -267 -413)">hello</text></g></g><g><path fill="#C0C0C0" stroke="none" paint-order="stroke fill markers" d=" M 497 93 C 497 77.53602560000002 547.1441024 65 609 65 C 670.8558976 65 721 77.53602560000002 721 93 C 721 108.46397439999998 670.8558976 121 609 121 C 547.1441024 121 497 108.46397439999998 497 93 Z" fill-opacity="0.2"/></g><g><path fill="#ffffff" stroke="none" paint-order="stroke fill markers" d=" M 490 86 C 490 70.53602560000002 540.1441024 58 602 58 C 663.8558976 58 714 70.53602560000002 714 86 C 714 101.46397439999998 663.8558976 114 602 114 C 540.1441024 114 490 101.46397439999998 490 86 Z"/></g><g><path fill="none" stroke="#000000" paint-order="fill stroke markers" d=" M 490 86 C 490 70.53602560000002 540.1441024 58 602 58 C 663.8558976 58 714 70.53602560000002 714 86 C 714 101.46397439999998 663.8558976 114 602 114 C 540.1441024 114 490 101.46397439999998 490 86 Z" stroke-miterlimit="10" stroke-dasharray=""/></g><g><g><path fill="none" stroke="none"/><text fill="#000000" stroke="none" font-family="Arial" font-size="13px" font-style="normal" font-weight="bold" text-decoration="undefined" x="869" y="493.5" text-anchor="middle" dominant-baseline="central" transform="matrix(1 0 0 1 -267 -413)">UC139 - Autenticazione</text><text fill="#000000" stroke="none" font-family="Arial" font-size="13px" font-style="normal" font-weight="bold" text-decoration="undefined" x="869" y="506.5" text-anchor="middle" dominant-baseline="central" transform="matrix(1 0 0 1 -267 -413)">Gateway fallita</text></g></g><g><path fill="none" stroke="#000000" paint-order="fill stroke markers" d=" M 489 96 L 323 112" stroke-miterlimit="10" stroke-dasharray="3"/></g><g><path fill="none" stroke="#000000" paint-order="fill stroke markers" d=" M 332.71192974638313 106.83488426060774 L 323 112 L 333.5196597470125 115.2150830171372" stroke-miterlimit="10" stroke-dasharray=""/></g><g><rect fill="#ffffff" stroke="none" x="646" y="494" width="53.49169921875" height="13" transform="matrix(1 0 0 1 -267 -413)"/></g><g><g><path fill="none" stroke="none"/><text fill="#000000" stroke="none" font-family="Arial" font-size="13px" font-style="normal" font-weight="normal" text-decoration="undefined" x="672.745849609375" y="500.5" text-anchor="middle" dominant-baseline="central" transform="matrix(1 0 0 1 -267 -413)">«extend»</text></g></g><g><path fill="none" stroke="#000000" paint-order="fill stroke markers" d=" M 260 273 L 256 155" stroke-miterlimit="10" stroke-dasharray="3"/></g><g><path fill="none" stroke="#000000" paint-order="fill stroke markers" d=" M 260.55140096336095 165.01422734267192 L 256 155 L 252.13719842274452 165.2994545474386" stroke-miterlimit="10" stroke-dasharray=""/></g><g><rect fill="#ffffff" stroke="none" x="473" y="613" width="53.49169921875" height="13" transform="matrix(1 0 0 1 -267 -413)"/></g><g><g><path fill="none" stroke="none"/><text fill="#000000" stroke="none" font-family="Arial" font-size="13px" font-style="normal" font-weight="normal" text-decoration="undefined" x="499.745849609375" y="619.5" text-anchor="middle" dominant-baseline="central" transform="matrix(1 0 0 1 -267 -413)">«extend»</text></g></g><g><path fill="none" stroke="#000000" paint-order="fill stroke markers" d=" M 74 128 L 185 122" stroke-miterlimit="10" stroke-dasharray=""/></g><g><path fill="#C0C0C0" stroke="none" paint-order="stroke fill markers" d=" M 161 317 C 161 297.11774720000005 209.3532416 281 269 281 C 328.64675839999995 281 377 297.11774720000005 377 317 C 377 336.88225279999995 328.64675839999995 353 269 353 C 209.3532416 353 161 336.88225279999995 161 317 Z" fill-opacity="0.2"/></g><g><path fill="#ffffff" stroke="none" paint-order="stroke fill markers" d=" M 154 310 C 154 290.11774720000005 202.3532416 274 262 274 C 321.64675839999995 274 370 290.11774720000005 370 310 C 370 329.88225279999995 321.64675839999995 346 262 346 C 202.3532416 346 154 329.88225279999995 154 310 Z"/></g><g><path fill="none" stroke="#000000" paint-order="fill stroke markers" d=" M 154 310 C 154 290.11774720000005 202.3532416 274 262 274 C 321.64675839999995 274 370 290.11774720000005 370 310 C 370 329.88225279999995 321.64675839999995 346 262 346 C 202.3532416 346 154 329.88225279999995 154 310 Z" stroke-miterlimit="10" stroke-dasharray=""/></g><g><g><path fill="none" stroke="none"/><text fill="#000000" stroke="none" font-family="Arial" font-size="13px" font-style="normal" font-weight="bold" text-decoration="undefined" x="529" y="717.5" text-anchor="middle" dominant-baseline="central" transform="matrix(1 0 0 1 -267 -413)">UC140 - Identificativo</text><text fill="#000000" stroke="none" font-family="Arial" font-size="13px" font-style="normal" font-weight="bold" text-decoration="undefined" x="529" y="730.5" text-anchor="middle" dominant-baseline="central" transform="matrix(1 0 0 1 -267 -413)">Gateway non trovato</text></g></g><g><path fill="#ffffff" stroke="none" paint-order="stroke fill markers" d=" M 490 154 L 586.0390625 154 L 596.0390625 164 L 596.0390625 243 L 490 243 L 490 154"/></g><g><path fill="none" stroke="#000000" paint-order="fill stroke markers" d=" M 490 154 L 586.0390625 154 L 596.0390625 164 L 596.0390625 243 L 490 243 L 490 154 L 490 154" stroke-miterlimit="10" stroke-dasharray=""/></g><g><path fill="none" stroke="#000000" paint-order="fill stroke markers" d=" M 586.0390625 154 L 586.0390625 164 L 596.0390625 164 L 586.0390625 154" stroke-miterlimit="10" stroke-dasharray=""/></g><g><g><path fill="none" stroke="none"/><text fill="#000000" stroke="none" font-family="Arial" font-size="13px" font-style="normal" font-weight="normal" text-decoration="undefined" x="762" y="572" text-anchor="start" dominant-baseline="text-before-edge" transform="matrix(1 0 0 1 -267 -413)">Condizione: Il</text><text fill="#000000" stroke="none" font-family="Arial" font-size="13px" font-style="normal" font-weight="normal" text-decoration="undefined" x="762" y="585" text-anchor="start" dominant-baseline="text-before-edge" transform="matrix(1 0 0 1 -267 -413)">Gateway invia al</text><text fill="#000000" stroke="none" font-family="Arial" font-size="13px" font-style="normal" font-weight="normal" text-decoration="undefined" x="762" y="598" text-anchor="start" dominant-baseline="text-before-edge" transform="matrix(1 0 0 1 -267 -413)">Sistema delle</text><text fill="#000000" stroke="none" font-family="Arial" font-size="13px" font-style="normal" font-weight="normal" text-decoration="undefined" x="762" y="611" text-anchor="start" dominant-baseline="text-before-edge" transform="matrix(1 0 0 1 -267 -413)">credenziali non</text><text fill="#000000" stroke="none" font-family="Arial" font-size="13px" font-style="normal" font-weight="normal" text-decoration="undefined" x="762" y="624" text-anchor="start" dominant-baseline="text-before-edge" transform="matrix(1 0 0 1 -267 -413)">valide</text></g></g><g><path fill="#ffffff" stroke="none" paint-order="stroke fill markers" d=" M 314 178 L 431 178 L 441 188 L 441 257 L 314 257 L 314 178"/></g><g><path fill="none" stroke="#000000" paint-order="fill stroke markers" d=" M 314 178 L 431 178 L 441 188 L 441 257 L 314 257 L 314 178 L 314 178" stroke-miterlimit="10" stroke-dasharray=""/></g><g><path fill="none" stroke="#000000" paint-order="fill stroke markers" d=" M 431 178 L 431 188 L 441 188 L 431 178" stroke-miterlimit="10" stroke-dasharray=""/></g><g><g><path fill="none" stroke="none"/><text fill="#000000" stroke="none" font-family="Arial" font-size="13px" font-style="normal" font-weight="normal" text-decoration="undefined" x="586" y="596" text-anchor="start" dominant-baseline="text-before-edge" transform="matrix(1 0 0 1 -267 -413)">Condizione: Il</text><text fill="#000000" stroke="none" font-family="Arial" font-size="13px" font-style="normal" font-weight="normal" text-decoration="undefined" x="586" y="609" text-anchor="start" dominant-baseline="text-before-edge" transform="matrix(1 0 0 1 -267 -413)">Gateway invia un</text><text fill="#000000" stroke="none" font-family="Arial" font-size="13px" font-style="normal" font-weight="normal" text-decoration="undefined" x="586" y="622" text-anchor="start" dominant-baseline="text-before-edge" transform="matrix(1 0 0 1 -267 -413)">identificativo non</text><text fill="#000000" stroke="none" font-family="Arial" font-size="13px" font-style="normal" font-weight="normal" text-decoration="undefined" x="586" y="635" text-anchor="start" dominant-baseline="text-before-edge" transform="matrix(1 0 0 1 -267 -413)">registrato nel</text><text fill="#000000" stroke="none" font-family="Arial" font-size="13px" font-style="normal" font-weight="normal" text-decoration="undefined" x="586" y="648" text-anchor="start" dominant-baseline="text-before-edge" transform="matrix(1 0 0 1 -267 -413)">Sistema</text></g></g><g><path fill="none" stroke="#000000" paint-order="fill stroke markers" d=" M 489 162 L 406 104" stroke-miterlimit="10" stroke-dasharray="3"/></g><g><path fill="none" stroke="#000000" paint-order="fill stroke markers" d=" M 313 216 L 258 214" stroke-miterlimit="10" stroke-dasharray="3"/></g></g></svg>