<svg version="1.1" xmlns="http://www.w3.org/2000/svg" xmlns:xlink="http://www.w3.org/1999/xlink" width="727" height="292"><defs/><g><g><rect fill="#C0C0C0" stroke="none" x="433" y="478" width="576" height="272" transform="matrix(1 0 0 1 -286 -461)" fill-opacity="0.2"/></g><g><rect fill="#ffffff" stroke="none" x="426" y="471" width="576" height="272" transform="matrix(1 0 0 1 -286 -461)"/></g><g><path fill="none" stroke="#000000" paint-order="fill stroke markers" d=" M 140 10 L 716 10 L 716 282 L 140 282 L 140 10 Z Z" stroke-miterlimit="10" stroke-dasharray=""/></g><g><g><path fill="none" stroke="none"/><text fill="#000000" stroke="none" font-family="Arial" font-size="13px" font-style="normal" font-weight="bold" text-decoration="undefined" x="714.5" y="484.5" text-anchor="middle" dominant-baseline="central" transform="matrix(1 0 0 1 -286 -461)">Sistema Cloud</text></g></g><g><path fill="#ffffff" stroke="none" paint-order="stroke fill markers" d=" M 32.896328125000025 103.85000000000002 C 32.896328125000025 98.96227952000004 36.854130493000014 95 41.736328125 95 C 46.618525756999986 95 50.576328124999975 98.96227952000004 50.576328124999975 103.85000000000002 C 50.576328124999975 108.73772048000001 46.618525756999986 112.70000000000005 41.736328125 112.70000000000005 C 36.854130493000014 112.70000000000005 32.896328125000025 108.73772048000001 32.896328125000025 103.85000000000002 Z"/></g><g><path fill="none" stroke="#000000" paint-order="fill stroke markers" d=" M 32.896328125000025 103.85000000000002 C 32.896328125000025 98.96227952000004 36.854130493000014 95 41.736328125 95 C 46.618525756999986 95 50.576328124999975 98.96227952000004 50.576328124999975 103.85000000000002 C 50.576328124999975 108.73772048000001 46.618525756999986 112.70000000000005 41.736328125 112.70000000000005 C 36.854130493000014 112.70000000000005 32.896328125000025 108.73772048000001 32.896328125000025 103.85000000000002 Z" stroke-miterlimit="10" stroke-dasharray=""/></g><g><path fill="none" stroke="#000000" paint-order="fill stroke markers" d=" M 41.736328125 112.70000000000005 L 41.736328125 130.29999999999995" stroke-miterlimit="10" stroke-dasharray=""/></g><g><path fill="none" stroke="#000000" paint-order="fill stroke markers" d=" M 32.376328124999986 119.29999999999995 L 51.096328125000014 119.29999999999995" stroke-miterlimit="10" stroke-dasharray=""/></g><g><path fill="none" stroke="#000000" paint-order="fill stroke markers" d=" M 41.736328125 130.29999999999995 L 28.736328125 148" stroke-miterlimit="10" stroke-dasharray=""/></g><g><path fill="none" stroke="#000000" paint-order="fill stroke markers" d=" M 41.736328125 130.29999999999995 L 54.736328125 148" stroke-miterlimit="10" stroke-dasharray=""/></g><g><g><path fill="none" stroke="none"/><text fill="#000000" stroke="none" font-family="Arial" font-size="13px" font-style="normal" font-weight="bold" text-decoration="undefined" x="328.236328125" y="623.5" text-anchor="middle" dominant-baseline="central" transform="matrix(1 0 0 1 -286 -461)">Gateway</text></g></g><g><path fill="#C0C0C0" stroke="none" paint-order="stroke fill markers" d=" M 211 141 C 211 121.11774720000005 246.81721600000003 105 291 105 C 335.18278399999997 105 371 121.11774720000005 371 141 C 371 160.88225279999995 335.18278399999997 177 291 177 C 246.81721600000003 177 211 160.88225279999995 211 141 Z" fill-opacity="0.2"/></g><g><path fill="#ffffff" stroke="none" paint-order="stroke fill markers" d=" M 204 134 C 204 114.11774720000005 239.81721600000003 98 284 98 C 328.18278399999997 98 364 114.11774720000005 364 134 C 364 153.88225279999995 328.18278399999997 170 284 170 C 239.81721600000003 170 204 153.88225279999995 204 134 Z"/></g><g><path fill="none" stroke="#000000" paint-order="fill stroke markers" d=" M 204 134 C 204 114.11774720000005 239.81721600000003 98 284 98 C 328.18278399999997 98 364 114.11774720000005 364 134 C 364 153.88225279999995 328.18278399999997 170 284 170 C 239.81721600000003 170 204 153.88225279999995 204 134 Z" stroke-miterlimit="10" stroke-dasharray=""/></g><g><g><path fill="none" stroke="none"/><text fill="#000000" stroke="none" font-family="Arial" font-size="13px" font-style="normal" font-weight="bold" text-decoration="undefined" x="570" y="589.5" text-anchor="middle" dominant-baseline="central" transform="matrix(1 0 0 1 -286 -461)">UC139 - Invio</text><text fill="#000000" stroke="none" font-family="Arial" font-size="13px" font-style="normal" font-weight="bold" text-decoration="undefined" x="570" y="602.5" text-anchor="middle" dominant-baseline="central" transform="matrix(1 0 0 1 -286 -461)">dati crittografati</text></g></g><g><path fill="none" stroke="#000000" paint-order="fill stroke markers" d=" M 74 134 L 203 134" stroke-miterlimit="10" stroke-dasharray=""/></g><g><path fill="#C0C0C0" stroke="none" paint-order="stroke fill markers" d=" M 531 141 C 531 125.53602560000002 566.817216 113 611 113 C 655.182784 113 691 125.53602560000002 691 141 C 691 156.46397439999998 655.182784 169 611 169 C 566.817216 169 531 156.46397439999998 531 141 Z" fill-opacity="0.2"/></g><g><path fill="#ffffff" stroke="none" paint-order="stroke fill markers" d=" M 524 134 C 524 118.53602560000002 559.817216 106 604 106 C 648.182784 106 684 118.53602560000002 684 134 C 684 149.46397439999998 648.182784 162 604 162 C 559.817216 162 524 149.46397439999998 524 134 Z"/></g><g><path fill="none" stroke="#000000" paint-order="fill stroke markers" d=" M 524 134 C 524 118.53602560000002 559.817216 106 604 106 C 648.182784 106 684 118.53602560000002 684 134 C 684 149.46397439999998 648.182784 162 604 162 C 559.817216 162 524 149.46397439999998 524 134 Z" stroke-miterlimit="10" stroke-dasharray=""/></g><g><g><path fill="none" stroke="none"/><text fill="#000000" stroke="none" font-family="Arial" font-size="13px" font-style="normal" font-weight="bold" text-decoration="undefined" x="890" y="589.5" text-anchor="middle" dominant-baseline="central" transform="matrix(1 0 0 1 -286 -461)">UC140 - Invio</text><text fill="#000000" stroke="none" font-family="Arial" font-size="13px" font-style="normal" font-weight="bold" text-decoration="undefined" x="890" y="602.5" text-anchor="middle" dominant-baseline="central" transform="matrix(1 0 0 1 -286 -461)">dati fallito</text></g></g><g><path fill="none" stroke="#000000" paint-order="fill stroke markers" d=" M 523 134 L 365 134" stroke-miterlimit="10" stroke-dasharray="3"/></g><g><path fill="none" stroke="#000000" paint-order="fill stroke markers" d=" M 375.1626748576241 129.790482243984 L 365 134 L 375.1626748576241 138.209517756016" stroke-miterlimit="10" stroke-dasharray=""/></g><g><rect fill="#ffffff" stroke="none" x="706" y="575" width="53.49169921875" height="13" transform="matrix(1 0 0 1 -286 -461)"/></g><g><g><path fill="none" stroke="none"/><text fill="#000000" stroke="none" font-family="Arial" font-size="13px" font-style="normal" font-weight="normal" text-decoration="undefined" x="732.745849609375" y="581.5" text-anchor="middle" dominant-baseline="central" transform="matrix(1 0 0 1 -286 -461)">«extend»</text></g></g><g><path fill="#ffffff" stroke="none" paint-order="stroke fill markers" d=" M 380 186 L 489 186 L 499 196 L 499 262 L 380 262 L 380 186"/></g><g><path fill="none" stroke="#000000" paint-order="fill stroke markers" d=" M 380 186 L 489 186 L 499 196 L 499 262 L 380 262 L 380 186 L 380 186" stroke-miterlimit="10" stroke-dasharray=""/></g><g><path fill="none" stroke="#000000" paint-order="fill stroke markers" d=" M 489 186 L 489 196 L 499 196 L 489 186" stroke-miterlimit="10" stroke-dasharray=""/></g><g><g><path fill="none" stroke="none"/><text fill="#000000" stroke="none" font-family="Arial" font-size="13px" font-style="normal" font-weight="normal" text-decoration="undefined" x="671" y="652" text-anchor="start" dominant-baseline="text-before-edge" transform="matrix(1 0 0 1 -286 -461)">Condizione: Il</text><text fill="#000000" stroke="none" font-family="Arial" font-size="13px" font-style="normal" font-weight="normal" text-decoration="undefined" x="671" y="665" text-anchor="start" dominant-baseline="text-before-edge" transform="matrix(1 0 0 1 -286 -461)">Gateway non è</text><text fill="#000000" stroke="none" font-family="Arial" font-size="13px" font-style="normal" font-weight="normal" text-decoration="undefined" x="671" y="678" text-anchor="start" dominant-baseline="text-before-edge" transform="matrix(1 0 0 1 -286 -461)">raggiungibile o la</text><text fill="#000000" stroke="none" font-family="Arial" font-size="13px" font-style="normal" font-weight="normal" text-decoration="undefined" x="671" y="691" text-anchor="start" dominant-baseline="text-before-edge" transform="matrix(1 0 0 1 -286 -461)">crittografia è fallita</text></g></g><g><path fill="none" stroke="#000000" paint-order="fill stroke markers" d=" M 434 185 L 428 146" stroke-miterlimit="10" stroke-dasharray="3"/></g></g></svg>