<svg version="1.1" xmlns="http://www.w3.org/2000/svg" xmlns:xlink="http://www.w3.org/1999/xlink" width="757" height="372"><defs/><g><g><rect fill="#C0C0C0" stroke="none" x="333" y="242" width="600" height="352" transform="matrix(1 0 0 1 -180 -225)" fill-opacity="0.2"/></g><g><rect fill="#ffffff" stroke="none" x="326" y="235" width="600" height="352" transform="matrix(1 0 0 1 -180 -225)"/></g><g><path fill="none" stroke="#000000" paint-order="fill stroke markers" d=" M 146 10 L 746 10 L 746 362 L 146 362 L 146 10 Z Z" stroke-miterlimit="10" stroke-dasharray=""/></g><g><g><path fill="none" stroke="none"/><text fill="#000000" stroke="none" font-family="Arial" font-size="13px" font-style="normal" font-weight="bold" text-decoration="undefined" x="626.5" y="248.5" text-anchor="middle" dominant-baseline="central" transform="matrix(1 0 0 1 -180 -225)">Sistema Cloud</text></g></g><g><path fill="#ffffff" stroke="none" paint-order="stroke fill markers" d=" M 32.896328125 123.85000000000002 C 32.896328125 118.96227952000004 36.854130492999985 115 41.736328125 115 C 46.618525757000015 115 50.576328125 118.96227952000004 50.576328125 123.85000000000002 C 50.576328125 128.73772048 46.618525757000015 132.7 41.736328125 132.7 C 36.854130492999985 132.7 32.896328125 128.73772048 32.896328125 123.85000000000002 Z"/></g><g><path fill="none" stroke="#000000" paint-order="fill stroke markers" d=" M 32.896328125 123.85000000000002 C 32.896328125 118.96227952000004 36.854130492999985 115 41.736328125 115 C 46.618525757000015 115 50.576328125 118.96227952000004 50.576328125 123.85000000000002 C 50.576328125 128.73772048 46.618525757000015 132.7 41.736328125 132.7 C 36.854130492999985 132.7 32.896328125 128.73772048 32.896328125 123.85000000000002 Z" stroke-miterlimit="10" stroke-dasharray=""/></g><g><path fill="none" stroke="#000000" paint-order="fill stroke markers" d=" M 41.736328125 132.7 L 41.736328125 150.3" stroke-miterlimit="10" stroke-dasharray=""/></g><g><path fill="none" stroke="#000000" paint-order="fill stroke markers" d=" M 32.376328124999986 139.3 L 51.096328125000014 139.3" stroke-miterlimit="10" stroke-dasharray=""/></g><g><path fill="none" stroke="#000000" paint-order="fill stroke markers" d=" M 41.736328125 150.3 L 28.736328125 168" stroke-miterlimit="10" stroke-dasharray=""/></g><g><path fill="none" stroke="#000000" paint-order="fill stroke markers" d=" M 41.736328125 150.3 L 54.736328125 168" stroke-miterlimit="10" stroke-dasharray=""/></g><g><g><path fill="none" stroke="none"/><text fill="#000000" stroke="none" font-family="Arial" font-size="13px" font-style="normal" font-weight="bold" text-decoration="undefined" x="222.236328125" y="407.5" text-anchor="middle" dominant-baseline="central" transform="matrix(1 0 0 1 -180 -225)">Gateway</text></g></g><g><path fill="#C0C0C0" stroke="none" paint-order="stroke fill markers" d=" M 201 165 C 201 145.1177472 231.44463359999997 129 269 129 C 306.5553664 129 337 145.1177472 337 165 C 337 184.8822528 306.5553664 201 269 201 C 231.44463359999997 201 201 184.8822528 201 165 Z" fill-opacity="0.2"/></g><g><path fill="#ffffff" stroke="none" paint-order="stroke fill markers" d=" M 194 158 C 194 138.1177472 224.44463359999997 122 262 122 C 299.5553664 122 330 138.1177472 330 158 C 330 177.8822528 299.5553664 194 262 194 C 224.44463359999997 194 194 177.8822528 194 158 Z"/></g><g><path fill="none" stroke="#000000" paint-order="fill stroke markers" d=" M 194 158 C 194 138.1177472 224.44463359999997 122 262 122 C 299.5553664 122 330 138.1177472 330 158 C 330 177.8822528 299.5553664 194 262 194 C 224.44463359999997 194 194 177.8822528 194 158 Z" stroke-miterlimit="10" stroke-dasharray=""/></g><g><g><path fill="none" stroke="none"/><text fill="#000000" stroke="none" font-family="Arial" font-size="13px" font-style="normal" font-weight="bold" text-decoration="undefined" x="442" y="371" text-anchor="middle" dominant-baseline="central" transform="matrix(1 0 0 1 -180 -225)">UC138 - Invio</text><text fill="#000000" stroke="none" font-family="Arial" font-size="13px" font-style="normal" font-weight="bold" text-decoration="undefined" x="442" y="384" text-anchor="middle" dominant-baseline="central" transform="matrix(1 0 0 1 -180 -225)">comando di</text><text fill="#000000" stroke="none" font-family="Arial" font-size="13px" font-style="normal" font-weight="bold" text-decoration="undefined" x="442" y="397" text-anchor="middle" dominant-baseline="central" transform="matrix(1 0 0 1 -180 -225)">hello</text></g></g><g><path fill="#C0C0C0" stroke="none" paint-order="stroke fill markers" d=" M 481 165 C 481 149.53602560000002 534.725824 137 601 137 C 667.274176 137 721 149.53602560000002 721 165 C 721 180.46397439999998 667.274176 193 601 193 C 534.725824 193 481 180.46397439999998 481 165 Z" fill-opacity="0.2"/></g><g><path fill="#ffffff" stroke="none" paint-order="stroke fill markers" d=" M 474 158 C 474 142.53602560000002 527.725824 130 594 130 C 660.274176 130 714 142.53602560000002 714 158 C 714 173.46397439999998 660.274176 186 594 186 C 527.725824 186 474 173.46397439999998 474 158 Z"/></g><g><path fill="none" stroke="#000000" paint-order="fill stroke markers" d=" M 474 158 C 474 142.53602560000002 527.725824 130 594 130 C 660.274176 130 714 142.53602560000002 714 158 C 714 173.46397439999998 660.274176 186 594 186 C 527.725824 186 474 173.46397439999998 474 158 Z" stroke-miterlimit="10" stroke-dasharray=""/></g><g><g><path fill="none" stroke="none"/><text fill="#000000" stroke="none" font-family="Arial" font-size="13px" font-style="normal" font-weight="bold" text-decoration="undefined" x="774" y="377.5" text-anchor="middle" dominant-baseline="central" transform="matrix(1 0 0 1 -180 -225)">UC139 - Autenticazione</text><text fill="#000000" stroke="none" font-family="Arial" font-size="13px" font-style="normal" font-weight="bold" text-decoration="undefined" x="774" y="390.5" text-anchor="middle" dominant-baseline="central" transform="matrix(1 0 0 1 -180 -225)">Gateway fallita</text></g></g><g><path fill="#C0C0C0" stroke="none" paint-order="stroke fill markers" d=" M 353 283.5 C 353 268.8644528 403.14410239999995 257 465 257 C 526.8558976 257 577 268.8644528 577 283.5 C 577 298.1355472 526.8558976 310 465 310 C 403.14410239999995 310 353 298.1355472 353 283.5 Z" fill-opacity="0.2"/></g><g><path fill="#ffffff" stroke="none" paint-order="stroke fill markers" d=" M 346 276.5 C 346 261.8644528 396.14410239999995 250 458 250 C 519.8558976 250 570 261.8644528 570 276.5 C 570 291.1355472 519.8558976 303 458 303 C 396.14410239999995 303 346 291.1355472 346 276.5 Z"/></g><g><path fill="none" stroke="#000000" paint-order="fill stroke markers" d=" M 346 276.5 C 346 261.8644528 396.14410239999995 250 458 250 C 519.8558976 250 570 261.8644528 570 276.5 C 570 291.1355472 519.8558976 303 458 303 C 396.14410239999995 303 346 291.1355472 346 276.5 Z" stroke-miterlimit="10" stroke-dasharray=""/></g><g><g><path fill="none" stroke="none"/><text fill="#000000" stroke="none" font-family="Arial" font-size="13px" font-style="normal" font-weight="bold" text-decoration="undefined" x="638" y="496" text-anchor="middle" dominant-baseline="central" transform="matrix(1 0 0 1 -180 -225)">UC140 - Identificativo</text><text fill="#000000" stroke="none" font-family="Arial" font-size="13px" font-style="normal" font-weight="bold" text-decoration="undefined" x="638" y="509" text-anchor="middle" dominant-baseline="central" transform="matrix(1 0 0 1 -180 -225)">Gateway non trovato</text></g></g><g><path fill="none" stroke="#000000" paint-order="fill stroke markers" d=" M 473 158 L 331 158" stroke-miterlimit="10" stroke-dasharray="3"/></g><g><path fill="none" stroke="#000000" paint-order="fill stroke markers" d=" M 341.1626748576241 153.790482243984 L 331 158 L 341.1626748576241 162.209517756016" stroke-miterlimit="10" stroke-dasharray=""/></g><g><rect fill="#ffffff" stroke="none" x="556" y="360" width="53.49169921875" height="13" transform="matrix(1 0 0 1 -180 -225)"/></g><g><g><path fill="none" stroke="none"/><text fill="#000000" stroke="none" font-family="Arial" font-size="13px" font-style="normal" font-weight="normal" text-decoration="undefined" x="582.745849609375" y="366.5" text-anchor="middle" dominant-baseline="central" transform="matrix(1 0 0 1 -180 -225)">«extend»</text></g></g><g><path fill="none" stroke="#000000" paint-order="fill stroke markers" d=" M 413 249 L 323 195" stroke-miterlimit="10" stroke-dasharray="3"/></g><g><path fill="none" stroke="#000000" paint-order="fill stroke markers" d=" M 333.8802008145965 196.61902138159263 L 323 195 L 329.5486427788624 203.8382847744827" stroke-miterlimit="10" stroke-dasharray=""/></g><g><rect fill="#ffffff" stroke="none" x="502" y="459" width="53.49169921875" height="13" transform="matrix(1 0 0 1 -180 -225)"/></g><g><g><path fill="none" stroke="none"/><text fill="#000000" stroke="none" font-family="Arial" font-size="13px" font-style="normal" font-weight="normal" text-decoration="undefined" x="528.745849609375" y="465.5" text-anchor="middle" dominant-baseline="central" transform="matrix(1 0 0 1 -180 -225)">«extend»</text></g></g><g><path fill="none" stroke="#000000" paint-order="fill stroke markers" d=" M 74 155 L 193 157" stroke-miterlimit="10" stroke-dasharray=""/></g></g></svg>