<svg version="1.1" xmlns="http://www.w3.org/2000/svg" xmlns:xlink="http://www.w3.org/1999/xlink" width="781" height="548"><defs/><g><g><rect fill="#C0C0C0" stroke="none" x="398" y="131" width="624" height="528" transform="matrix(1 0 0 1 -245 -114)" fill-opacity="0.2"/></g><g><rect fill="#ffffff" stroke="none" x="391" y="124" width="624" height="528" transform="matrix(1 0 0 1 -245 -114)"/></g><g><path fill="none" stroke="#000000" paint-order="fill stroke markers" d=" M 146 10 L 770 10 L 770 538 L 146 538 L 146 10 Z Z" stroke-miterlimit="10" stroke-dasharray=""/></g><g><g><path fill="none" stroke="none"/><text fill="#000000" stroke="none" font-family="Arial" font-size="13px" font-style="normal" font-weight="bold" text-decoration="undefined" x="703.5" y="137.5" text-anchor="middle" dominant-baseline="central" transform="matrix(1 0 0 1 -245 -114)">Sistema Gateway</text></g></g><g><path fill="#ffffff" stroke="none" paint-order="stroke fill markers" d=" M 36.857265625000025 163.85000000000002 C 36.857265625000025 158.96227952000004 40.815067993000014 155 45.697265625 155 C 50.579463256999986 155 54.537265624999975 158.96227952000004 54.537265624999975 163.85000000000002 C 54.537265624999975 168.73772048 50.579463256999986 172.7 45.697265625 172.7 C 40.815067993000014 172.7 36.857265625000025 168.73772048 36.857265625000025 163.85000000000002 Z"/></g><g><path fill="none" stroke="#000000" paint-order="fill stroke markers" d=" M 36.857265625000025 163.85000000000002 C 36.857265625000025 158.96227952000004 40.815067993000014 155 45.697265625 155 C 50.579463256999986 155 54.537265624999975 158.96227952000004 54.537265624999975 163.85000000000002 C 54.537265624999975 168.73772048 50.579463256999986 172.7 45.697265625 172.7 C 40.815067993000014 172.7 36.857265625000025 168.73772048 36.857265625000025 163.85000000000002 Z" stroke-miterlimit="10" stroke-dasharray=""/></g><g><path fill="none" stroke="#000000" paint-order="fill stroke markers" d=" M 45.697265625 172.7 L 45.697265625 190.3" stroke-miterlimit="10" stroke-dasharray=""/></g><g><path fill="none" stroke="#000000" paint-order="fill stroke markers" d=" M 36.337265624999986 179.3 L 55.057265625000014 179.3" stroke-miterlimit="10" stroke-dasharray=""/></g><g><path fill="none" stroke="#000000" paint-order="fill stroke markers" d=" M 45.697265625 190.3 L 32.697265625 208" stroke-miterlimit="10" stroke-dasharray=""/></g><g><path fill="none" stroke="#000000" paint-order="fill stroke markers" d=" M 45.697265625 190.3 L 58.697265625 208" stroke-miterlimit="10" stroke-dasharray=""/></g><g><g><path fill="none" stroke="none"/><text fill="#000000" stroke="none" font-family="Arial" font-size="13px" font-style="normal" font-weight="bold" text-decoration="undefined" x="291.197265625" y="336.5" text-anchor="middle" dominant-baseline="central" transform="matrix(1 0 0 1 -245 -114)">API Client</text></g></g><g><path fill="#C0C0C0" stroke="none" paint-order="stroke fill markers" d=" M 193 213 C 193 193.1177472 237.77152 177 293 177 C 348.22848 177 393 193.1177472 393 213 C 393 232.8822528 348.22848 249 293 249 C 237.77152 249 193 232.8822528 193 213 Z" fill-opacity="0.2"/></g><g><path fill="#ffffff" stroke="none" paint-order="stroke fill markers" d=" M 186 206 C 186 186.1177472 230.77152 170 286 170 C 341.22848 170 386 186.1177472 386 206 C 386 225.8822528 341.22848 242 286 242 C 230.77152 242 186 225.8822528 186 206 Z"/></g><g><path fill="none" stroke="#000000" paint-order="fill stroke markers" d=" M 186 206 C 186 186.1177472 230.77152 170 286 170 C 341.22848 170 386 186.1177472 386 206 C 386 225.8822528 341.22848 242 286 242 C 230.77152 242 186 225.8822528 186 206 Z" stroke-miterlimit="10" stroke-dasharray=""/></g><g><g><path fill="none" stroke="none"/><text fill="#000000" stroke="none" font-family="Arial" font-size="13px" font-style="normal" font-weight="bold" text-decoration="undefined" x="531" y="308" text-anchor="middle" dominant-baseline="central" transform="matrix(1 0 0 1 -245 -114)">UC144 - Richiesta</text><text fill="#000000" stroke="none" font-family="Arial" font-size="13px" font-style="normal" font-weight="bold" text-decoration="undefined" x="531" y="321" text-anchor="middle" dominant-baseline="central" transform="matrix(1 0 0 1 -245 -114)">dati real-time</text><text fill="#000000" stroke="none" font-family="Arial" font-size="13px" font-style="normal" font-weight="bold" text-decoration="undefined" x="531" y="334" text-anchor="middle" dominant-baseline="central" transform="matrix(1 0 0 1 -245 -114)">sensore</text></g></g><g><path fill="#C0C0C0" stroke="none" paint-order="stroke fill markers" d=" M 377 99.5 C 377 84.86445280000001 423.5623808 73 481 73 C 538.4376192 73 585 84.86445280000001 585 99.5 C 585 114.13554719999999 538.4376192 126 481 126 C 423.5623808 126 377 114.13554719999999 377 99.5 Z" fill-opacity="0.2"/></g><g><path fill="#ffffff" stroke="none" paint-order="stroke fill markers" d=" M 370 92.5 C 370 77.86445280000001 416.5623808 66 474 66 C 531.4376192 66 578 77.86445280000001 578 92.5 C 578 107.13554719999999 531.4376192 119 474 119 C 416.5623808 119 370 107.13554719999999 370 92.5 Z"/></g><g><path fill="none" stroke="#000000" paint-order="fill stroke markers" d=" M 370 92.5 C 370 77.86445280000001 416.5623808 66 474 66 C 531.4376192 66 578 77.86445280000001 578 92.5 C 578 107.13554719999999 531.4376192 119 474 119 C 416.5623808 119 370 107.13554719999999 370 92.5 Z" stroke-miterlimit="10" stroke-dasharray=""/></g><g><g><path fill="none" stroke="none"/><text fill="#000000" stroke="none" font-family="Arial" font-size="13px" font-style="normal" font-weight="bold" text-decoration="undefined" x="719" y="201" text-anchor="middle" dominant-baseline="central" transform="matrix(1 0 0 1 -245 -114)">UC144.1 - Ricezione</text><text fill="#000000" stroke="none" font-family="Arial" font-size="13px" font-style="normal" font-weight="bold" text-decoration="undefined" x="719" y="214" text-anchor="middle" dominant-baseline="central" transform="matrix(1 0 0 1 -245 -114)">dati real-time sensore</text></g></g><g><path fill="none" stroke="#000000" paint-order="fill stroke markers" d=" M 347 169 L 428 120" stroke-miterlimit="10" stroke-dasharray="3"/></g><g><path fill="none" stroke="#000000" paint-order="fill stroke markers" d=" M 421.48342276508424 128.86195357364153 L 428 120 L 417.12573658058295 121.65843151354747" stroke-miterlimit="10" stroke-dasharray=""/></g><g><rect fill="#ffffff" stroke="none" x="590" y="234" width="55.65625" height="13" transform="matrix(1 0 0 1 -245 -114)"/></g><g><g><path fill="none" stroke="none"/><text fill="#000000" stroke="none" font-family="Arial" font-size="13px" font-style="normal" font-weight="normal" text-decoration="undefined" x="617.828125" y="240.5" text-anchor="middle" dominant-baseline="central" transform="matrix(1 0 0 1 -245 -114)">«include»</text></g></g><g><path fill="none" stroke="#000000" paint-order="fill stroke markers" d=" M 553 212 L 387 208" stroke-miterlimit="10" stroke-dasharray="3"/></g><g><path fill="none" stroke="#000000" paint-order="fill stroke markers" d=" M 397.2611304628931 204.03651647871646 L 387 208 L 397.0583210079724 212.45310885793089" stroke-miterlimit="10" stroke-dasharray=""/></g><g><rect fill="#ffffff" stroke="none" x="697" y="341" width="53.49169921875" height="13" transform="matrix(1 0 0 1 -245 -114)"/></g><g><g><path fill="none" stroke="none"/><text fill="#000000" stroke="none" font-family="Arial" font-size="13px" font-style="normal" font-weight="normal" text-decoration="undefined" x="723.745849609375" y="347.5" text-anchor="middle" dominant-baseline="central" transform="matrix(1 0 0 1 -245 -114)">«extend»</text></g></g><g><path fill="none" stroke="#000000" paint-order="fill stroke markers" d=" M 491 369 L 333 243" stroke-miterlimit="10" stroke-dasharray="3"/></g><g><path fill="none" stroke="#000000" paint-order="fill stroke markers" d=" M 343.5700999125214 246.04515809758948 L 333 243 L 338.32093738537264 252.6274412665539" stroke-miterlimit="10" stroke-dasharray=""/></g><g><rect fill="#ffffff" stroke="none" x="612" y="437" width="53.49169921875" height="13" transform="matrix(1 0 0 1 -245 -114)"/></g><g><g><path fill="none" stroke="none"/><text fill="#000000" stroke="none" font-family="Arial" font-size="13px" font-style="normal" font-weight="normal" text-decoration="undefined" x="638.745849609375" y="443.5" text-anchor="middle" dominant-baseline="central" transform="matrix(1 0 0 1 -245 -114)">«extend»</text></g></g><g><path fill="#C0C0C0" stroke="none" paint-order="stroke fill markers" d=" M 185 485 C 185 465.11774720000005 231.56238080000003 449 289 449 C 346.4376192 449 393 465.11774720000005 393 485 C 393 504.88225279999995 346.4376192 521 289 521 C 231.56238080000003 521 185 504.88225279999995 185 485 Z" fill-opacity="0.2"/></g><g><path fill="#ffffff" stroke="none" paint-order="stroke fill markers" d=" M 178 478 C 178 458.11774720000005 224.56238080000003 442 282 442 C 339.4376192 442 386 458.11774720000005 386 478 C 386 497.88225279999995 339.4376192 514 282 514 C 224.56238080000003 514 178 497.88225279999995 178 478 Z"/></g><g><path fill="none" stroke="#000000" paint-order="fill stroke markers" d=" M 178 478 C 178 458.11774720000005 224.56238080000003 442 282 442 C 339.4376192 442 386 458.11774720000005 386 478 C 386 497.88225279999995 339.4376192 514 282 514 C 224.56238080000003 514 178 497.88225279999995 178 478 Z" stroke-miterlimit="10" stroke-dasharray=""/></g><g><g><path fill="none" stroke="none"/><text fill="#000000" stroke="none" font-family="Arial" font-size="13px" font-style="normal" font-weight="bold" text-decoration="undefined" x="527" y="580" text-anchor="middle" dominant-baseline="central" transform="matrix(1 0 0 1 -245 -114)">UC148 - Sensore non</text><text fill="#000000" stroke="none" font-family="Arial" font-size="13px" font-style="normal" font-weight="bold" text-decoration="undefined" x="527" y="593" text-anchor="middle" dominant-baseline="central" transform="matrix(1 0 0 1 -245 -114)">associato al tenant</text><text fill="#000000" stroke="none" font-family="Arial" font-size="13px" font-style="normal" font-weight="bold" text-decoration="undefined" x="527" y="606" text-anchor="middle" dominant-baseline="central" transform="matrix(1 0 0 1 -245 -114)">del API Client</text></g></g><g><path fill="none" stroke="#000000" paint-order="fill stroke markers" d=" M 283 441 L 285 243" stroke-miterlimit="10" stroke-dasharray="3"/></g><g><path fill="none" stroke="#000000" paint-order="fill stroke markers" d=" M 289.106654978134 253.20467465873202 L 285 243 L 280.68804893204015 253.11963823402397" stroke-miterlimit="10" stroke-dasharray=""/></g><g><rect fill="#ffffff" stroke="none" x="535" y="475" width="53.49169921875" height="13" transform="matrix(1 0 0 1 -245 -114)"/></g><g><g><path fill="none" stroke="none"/><text fill="#000000" stroke="none" font-family="Arial" font-size="13px" font-style="normal" font-weight="normal" text-decoration="undefined" x="561.745849609375" y="481.5" text-anchor="middle" dominant-baseline="central" transform="matrix(1 0 0 1 -245 -114)">«extend»</text></g></g><g><path fill="none" stroke="#000000" paint-order="fill stroke markers" d=" M 82 196 L 185 201" stroke-miterlimit="10" stroke-dasharray=""/></g><g><path fill="#C0C0C0" stroke="none" paint-order="stroke fill markers" d=" M 561 221 C 561 201.1177472 602.1897984 185 653 185 C 703.8102016 185 745 201.1177472 745 221 C 745 240.8822528 703.8102016 257 653 257 C 602.1897984 257 561 240.8822528 561 221 Z" fill-opacity="0.2"/></g><g><path fill="#ffffff" stroke="none" paint-order="stroke fill markers" d=" M 554 214 C 554 194.1177472 595.1897984 178 646 178 C 696.8102016 178 738 194.1177472 738 214 C 738 233.8822528 696.8102016 250 646 250 C 595.1897984 250 554 233.8822528 554 214 Z"/></g><g><path fill="none" stroke="#000000" paint-order="fill stroke markers" d=" M 554 214 C 554 194.1177472 595.1897984 178 646 178 C 696.8102016 178 738 194.1177472 738 214 C 738 233.8822528 696.8102016 250 646 250 C 595.1897984 250 554 233.8822528 554 214 Z" stroke-miterlimit="10" stroke-dasharray=""/></g><g><g><path fill="none" stroke="none"/><text fill="#000000" stroke="none" font-family="Arial" font-size="13px" font-style="normal" font-weight="bold" text-decoration="undefined" x="891" y="322.5" text-anchor="middle" dominant-baseline="central" transform="matrix(1 0 0 1 -245 -114)">UC146 - Sensore</text><text fill="#000000" stroke="none" font-family="Arial" font-size="13px" font-style="normal" font-weight="bold" text-decoration="undefined" x="891" y="335.5" text-anchor="middle" dominant-baseline="central" transform="matrix(1 0 0 1 -245 -114)">non trovato</text></g></g><g><path fill="#ffffff" stroke="none" paint-order="stroke fill markers" d=" M 162 322 L 239.65625 322 L 249.65625 332 L 249.65625 424 L 162 424 L 162 322"/></g><g><path fill="none" stroke="#000000" paint-order="fill stroke markers" d=" M 162 322 L 239.65625 322 L 249.65625 332 L 249.65625 424 L 162 424 L 162 322 L 162 322" stroke-miterlimit="10" stroke-dasharray=""/></g><g><path fill="none" stroke="#000000" paint-order="fill stroke markers" d=" M 239.65625 322 L 239.65625 332 L 249.65625 332 L 239.65625 322" stroke-miterlimit="10" stroke-dasharray=""/></g><g><g><path fill="none" stroke="none"/><text fill="#000000" stroke="none" font-family="Arial" font-size="13px" font-style="normal" font-weight="normal" text-decoration="undefined" x="412" y="441" text-anchor="start" dominant-baseline="text-before-edge" transform="matrix(1 0 0 1 -245 -114)">Condizione:</text><text fill="#000000" stroke="none" font-family="Arial" font-size="13px" font-style="normal" font-weight="normal" text-decoration="undefined" x="412" y="454" text-anchor="start" dominant-baseline="text-before-edge" transform="matrix(1 0 0 1 -245 -114)">richiesti dati</text><text fill="#000000" stroke="none" font-family="Arial" font-size="13px" font-style="normal" font-weight="normal" text-decoration="undefined" x="412" y="467" text-anchor="start" dominant-baseline="text-before-edge" transform="matrix(1 0 0 1 -245 -114)">di un sensore</text><text fill="#000000" stroke="none" font-family="Arial" font-size="13px" font-style="normal" font-weight="normal" text-decoration="undefined" x="412" y="480" text-anchor="start" dominant-baseline="text-before-edge" transform="matrix(1 0 0 1 -245 -114)">non</text><text fill="#000000" stroke="none" font-family="Arial" font-size="13px" font-style="normal" font-weight="normal" text-decoration="undefined" x="412" y="493" text-anchor="start" dominant-baseline="text-before-edge" transform="matrix(1 0 0 1 -245 -114)">associato al</text><text fill="#000000" stroke="none" font-family="Arial" font-size="13px" font-style="normal" font-weight="normal" text-decoration="undefined" x="412" y="506" text-anchor="start" dominant-baseline="text-before-edge" transform="matrix(1 0 0 1 -245 -114)">richiedente</text></g></g><g><path fill="#ffffff" stroke="none" paint-order="stroke fill markers" d=" M 602 74 L 703 74 L 713 84 L 713 153 L 602 153 L 602 74"/></g><g><path fill="none" stroke="#000000" paint-order="fill stroke markers" d=" M 602 74 L 703 74 L 713 84 L 713 153 L 602 153 L 602 74 L 602 74" stroke-miterlimit="10" stroke-dasharray=""/></g><g><path fill="none" stroke="#000000" paint-order="fill stroke markers" d=" M 703 74 L 703 84 L 713 84 L 703 74" stroke-miterlimit="10" stroke-dasharray=""/></g><g><g><path fill="none" stroke="none"/><text fill="#000000" stroke="none" font-family="Arial" font-size="13px" font-style="normal" font-weight="normal" text-decoration="undefined" x="852" y="193" text-anchor="start" dominant-baseline="text-before-edge" transform="matrix(1 0 0 1 -245 -114)">Condizione:</text><text fill="#000000" stroke="none" font-family="Arial" font-size="13px" font-style="normal" font-weight="normal" text-decoration="undefined" x="852" y="206" text-anchor="start" dominant-baseline="text-before-edge" transform="matrix(1 0 0 1 -245 -114)">richiesti dati da</text><text fill="#000000" stroke="none" font-family="Arial" font-size="13px" font-style="normal" font-weight="normal" text-decoration="undefined" x="852" y="219" text-anchor="start" dominant-baseline="text-before-edge" transform="matrix(1 0 0 1 -245 -114)">un sensore che</text><text fill="#000000" stroke="none" font-family="Arial" font-size="13px" font-style="normal" font-weight="normal" text-decoration="undefined" x="852" y="232" text-anchor="start" dominant-baseline="text-before-edge" transform="matrix(1 0 0 1 -245 -114)">non esiste nel</text><text fill="#000000" stroke="none" font-family="Arial" font-size="13px" font-style="normal" font-weight="normal" text-decoration="undefined" x="852" y="245" text-anchor="start" dominant-baseline="text-before-edge" transform="matrix(1 0 0 1 -245 -114)">Sistema</text></g></g><g><path fill="#ffffff" stroke="none" paint-order="stroke fill markers" d=" M 522 274 L 599.65625 274 L 609.65625 284 L 609.65625 363 L 522 363 L 522 274"/></g><g><path fill="none" stroke="#000000" paint-order="fill stroke markers" d=" M 522 274 L 599.65625 274 L 609.65625 284 L 609.65625 363 L 522 363 L 522 274 L 522 274" stroke-miterlimit="10" stroke-dasharray=""/></g><g><path fill="none" stroke="#000000" paint-order="fill stroke markers" d=" M 599.65625 274 L 599.65625 284 L 609.65625 284 L 599.65625 274" stroke-miterlimit="10" stroke-dasharray=""/></g><g><g><path fill="none" stroke="none"/><text fill="#000000" stroke="none" font-family="Arial" font-size="13px" font-style="normal" font-weight="normal" text-decoration="undefined" x="772" y="393" text-anchor="start" dominant-baseline="text-before-edge" transform="matrix(1 0 0 1 -245 -114)">Condizione:</text><text fill="#000000" stroke="none" font-family="Arial" font-size="13px" font-style="normal" font-weight="normal" text-decoration="undefined" x="772" y="406" text-anchor="start" dominant-baseline="text-before-edge" transform="matrix(1 0 0 1 -245 -114)">non ci sono</text><text fill="#000000" stroke="none" font-family="Arial" font-size="13px" font-style="normal" font-weight="normal" text-decoration="undefined" x="772" y="419" text-anchor="start" dominant-baseline="text-before-edge" transform="matrix(1 0 0 1 -245 -114)">dati salvati o</text><text fill="#000000" stroke="none" font-family="Arial" font-size="13px" font-style="normal" font-weight="normal" text-decoration="undefined" x="772" y="432" text-anchor="start" dominant-baseline="text-before-edge" transform="matrix(1 0 0 1 -245 -114)">real-time di</text><text fill="#000000" stroke="none" font-family="Arial" font-size="13px" font-style="normal" font-weight="normal" text-decoration="undefined" x="772" y="445" text-anchor="start" dominant-baseline="text-before-edge" transform="matrix(1 0 0 1 -245 -114)">quel sensore</text></g></g><g><path fill="#C0C0C0" stroke="none" paint-order="stroke fill markers" d=" M 425 413 C 425 393.1177472 478.725824 377 545 377 C 611.274176 377 665 393.1177472 665 413 C 665 432.88225279999995 611.274176 449 545 449 C 478.725824 449 425 432.88225279999995 425 413 Z" fill-opacity="0.2"/></g><g><path fill="#ffffff" stroke="none" paint-order="stroke fill markers" d=" M 418 406 C 418 386.1177472 471.725824 370 538 370 C 604.274176 370 658 386.1177472 658 406 C 658 425.88225279999995 604.274176 442 538 442 C 471.725824 442 418 425.88225279999995 418 406 Z"/></g><g><path fill="none" stroke="#000000" paint-order="fill stroke markers" d=" M 418 406 C 418 386.1177472 471.725824 370 538 370 C 604.274176 370 658 386.1177472 658 406 C 658 425.88225279999995 604.274176 442 538 442 C 471.725824 442 418 425.88225279999995 418 406 Z" stroke-miterlimit="10" stroke-dasharray=""/></g><g><g><path fill="none" stroke="none"/><text fill="#000000" stroke="none" font-family="Arial" font-size="13px" font-style="normal" font-weight="bold" text-decoration="undefined" x="783" y="508" text-anchor="middle" dominant-baseline="central" transform="matrix(1 0 0 1 -245 -114)">UC147 - Nessun dato</text><text fill="#000000" stroke="none" font-family="Arial" font-size="13px" font-style="normal" font-weight="bold" text-decoration="undefined" x="783" y="521" text-anchor="middle" dominant-baseline="central" transform="matrix(1 0 0 1 -245 -114)">disponibile per il sensore</text><text fill="#000000" stroke="none" font-family="Arial" font-size="13px" font-style="normal" font-weight="bold" text-decoration="undefined" x="783" y="534" text-anchor="middle" dominant-baseline="central" transform="matrix(1 0 0 1 -245 -114)">richiesto</text></g></g><g><path fill="none" stroke="#000000" paint-order="fill stroke markers" d=" M 252 355 L 284 342" stroke-miterlimit="10" stroke-dasharray="3"/></g><g><path fill="none" stroke="#000000" paint-order="fill stroke markers" d=" M 521 315 L 412 306" stroke-miterlimit="10" stroke-dasharray="3"/></g><g><path fill="none" stroke="#000000" paint-order="fill stroke markers" d=" M 601 143 L 470 210" stroke-miterlimit="10" stroke-dasharray="3"/></g></g></svg>