<svg version="1.1" xmlns="http://www.w3.org/2000/svg" xmlns:xlink="http://www.w3.org/1999/xlink" width="781" height="412"><defs/><g><g><rect fill="#C0C0C0" stroke="none" x="388" y="418" width="648" height="392" transform="matrix(1 0 0 1 -259 -401)" fill-opacity="0.2"/></g><g><rect fill="#ffffff" stroke="none" x="381" y="411" width="648" height="392" transform="matrix(1 0 0 1 -259 -401)"/></g><g><path fill="none" stroke="#000000" paint-order="fill stroke markers" d=" M 122 10 L 770 10 L 770 402 L 122 402 L 122 10 Z Z" stroke-miterlimit="10" stroke-dasharray=""/></g><g><g><path fill="none" stroke="none"/><text fill="#000000" stroke="none" font-family="Arial" font-size="13px" font-style="normal" font-weight="bold" text-decoration="undefined" x="705.5" y="424.5" text-anchor="middle" dominant-baseline="central" transform="matrix(1 0 0 1 -259 -401)">Sistema Cloud</text></g></g><g><path fill="#ffffff" stroke="none" paint-order="stroke fill markers" d=" M 36.857265625000025 123.85000000000002 C 36.857265625000025 118.96227952000004 40.815067993000014 115 45.697265625 115 C 50.579463256999986 115 54.537265624999975 118.96227952000004 54.537265624999975 123.85000000000002 C 54.537265624999975 128.73772048 50.579463256999986 132.70000000000005 45.697265625 132.70000000000005 C 40.815067993000014 132.70000000000005 36.857265625000025 128.73772048 36.857265625000025 123.85000000000002 Z"/></g><g><path fill="none" stroke="#000000" paint-order="fill stroke markers" d=" M 36.857265625000025 123.85000000000002 C 36.857265625000025 118.96227952000004 40.815067993000014 115 45.697265625 115 C 50.579463256999986 115 54.537265624999975 118.96227952000004 54.537265624999975 123.85000000000002 C 54.537265624999975 128.73772048 50.579463256999986 132.70000000000005 45.697265625 132.70000000000005 C 40.815067993000014 132.70000000000005 36.857265625000025 128.73772048 36.857265625000025 123.85000000000002 Z" stroke-miterlimit="10" stroke-dasharray=""/></g><g><path fill="none" stroke="#000000" paint-order="fill stroke markers" d=" M 45.697265625 132.70000000000005 L 45.697265625 150.29999999999995" stroke-miterlimit="10" stroke-dasharray=""/></g><g><path fill="none" stroke="#000000" paint-order="fill stroke markers" d=" M 36.337265624999986 139.29999999999995 L 55.057265625000014 139.29999999999995" stroke-miterlimit="10" stroke-dasharray=""/></g><g><path fill="none" stroke="#000000" paint-order="fill stroke markers" d=" M 45.697265625 150.29999999999995 L 32.697265625 168" stroke-miterlimit="10" stroke-dasharray=""/></g><g><path fill="none" stroke="#000000" paint-order="fill stroke markers" d=" M 45.697265625 150.29999999999995 L 58.697265625 168" stroke-miterlimit="10" stroke-dasharray=""/></g><g><g><path fill="none" stroke="none"/><text fill="#000000" stroke="none" font-family="Arial" font-size="13px" font-style="normal" font-weight="bold" text-decoration="undefined" x="305.197265625" y="583.5" text-anchor="middle" dominant-baseline="central" transform="matrix(1 0 0 1 -259 -401)">API Client</text></g></g><g><path fill="#C0C0C0" stroke="none" paint-order="stroke fill markers" d=" M 161 155.5 C 161 140.86445279999998 214.725824 129 281 129 C 347.274176 129 401 140.86445279999998 401 155.5 C 401 170.13554720000002 347.274176 182 281 182 C 214.725824 182 161 170.13554720000002 161 155.5 Z" fill-opacity="0.2"/></g><g><path fill="#ffffff" stroke="none" paint-order="stroke fill markers" d=" M 154 148.5 C 154 133.86445279999998 207.725824 122 274 122 C 340.274176 122 394 133.86445279999998 394 148.5 C 394 163.13554720000002 340.274176 175 274 175 C 207.725824 175 154 163.13554720000002 154 148.5 Z"/></g><g><path fill="none" stroke="#000000" paint-order="fill stroke markers" d=" M 154 148.5 C 154 133.86445279999998 207.725824 122 274 122 C 340.274176 122 394 133.86445279999998 394 148.5 C 394 163.13554720000002 340.274176 175 274 175 C 207.725824 175 154 163.13554720000002 154 148.5 Z" stroke-miterlimit="10" stroke-dasharray=""/></g><g><g><path fill="none" stroke="none"/><text fill="#000000" stroke="none" font-family="Arial" font-size="13px" font-style="normal" font-weight="bold" text-decoration="undefined" x="533" y="544" text-anchor="middle" dominant-baseline="central" transform="matrix(1 0 0 1 -259 -401)">UC147 - Autenticazione</text><text fill="#000000" stroke="none" font-family="Arial" font-size="13px" font-style="normal" font-weight="bold" text-decoration="undefined" x="533" y="557" text-anchor="middle" dominant-baseline="central" transform="matrix(1 0 0 1 -259 -401)">API Client</text></g></g><g><path fill="none" stroke="#000000" paint-order="fill stroke markers" d=" M 260 321 L 272 176" stroke-miterlimit="10" stroke-dasharray="3"/></g><g><path fill="none" stroke="#000000" paint-order="fill stroke markers" d=" M 275.35699241659256 186.47523755887858 L 272 176 L 266.96664058974136 185.78086361458747" stroke-miterlimit="10" stroke-dasharray=""/></g><g><rect fill="#ffffff" stroke="none" x="469" y="640" width="53.49169921875" height="13" transform="matrix(1 0 0 1 -259 -401)"/></g><g><g><path fill="none" stroke="none"/><text fill="#000000" stroke="none" font-family="Arial" font-size="13px" font-style="normal" font-weight="normal" text-decoration="undefined" x="495.745849609375" y="646.5" text-anchor="middle" dominant-baseline="central" transform="matrix(1 0 0 1 -259 -401)">«extend»</text></g></g><g><path fill="#C0C0C0" stroke="none" paint-order="stroke fill markers" d=" M 569 149 C 569 129.11774720000005 613.77152 113 669 113 C 724.22848 113 769 129.11774720000005 769 149 C 769 168.88225279999995 724.22848 185 669 185 C 613.77152 185 569 168.88225279999995 569 149 Z" fill-opacity="0.2"/></g><g><path fill="#ffffff" stroke="none" paint-order="stroke fill markers" d=" M 562 142 C 562 122.11774720000005 606.77152 106 662 106 C 717.22848 106 762 122.11774720000005 762 142 C 762 161.88225279999995 717.22848 178 662 178 C 606.77152 178 562 161.88225279999995 562 142 Z"/></g><g><path fill="none" stroke="#000000" paint-order="fill stroke markers" d=" M 562 142 C 562 122.11774720000005 606.77152 106 662 106 C 717.22848 106 762 122.11774720000005 762 142 C 762 161.88225279999995 717.22848 178 662 178 C 606.77152 178 562 161.88225279999995 562 142 Z" stroke-miterlimit="10" stroke-dasharray=""/></g><g><g><path fill="none" stroke="none"/><text fill="#000000" stroke="none" font-family="Arial" font-size="13px" font-style="normal" font-weight="bold" text-decoration="undefined" x="921" y="537.5" text-anchor="middle" dominant-baseline="central" transform="matrix(1 0 0 1 -259 -401)">UC149 - Credenziali</text><text fill="#000000" stroke="none" font-family="Arial" font-size="13px" font-style="normal" font-weight="bold" text-decoration="undefined" x="921" y="550.5" text-anchor="middle" dominant-baseline="central" transform="matrix(1 0 0 1 -259 -401)">API Client scadute</text></g></g><g><path fill="none" stroke="#000000" paint-order="fill stroke markers" d=" M 561 144 L 395 146" stroke-miterlimit="10" stroke-dasharray="3"/></g><g><path fill="none" stroke="#000000" paint-order="fill stroke markers" d=" M 405.11122393553626 141.66835475535697 L 395 146 L 405.21265073709503 150.08677928473185" stroke-miterlimit="10" stroke-dasharray=""/></g><g><rect fill="#ffffff" stroke="none" x="709" y="520" width="53.49169921875" height="13" transform="matrix(1 0 0 1 -259 -401)"/></g><g><g><path fill="none" stroke="none"/><text fill="#000000" stroke="none" font-family="Arial" font-size="13px" font-style="normal" font-weight="normal" text-decoration="undefined" x="735.745849609375" y="526.5" text-anchor="middle" dominant-baseline="central" transform="matrix(1 0 0 1 -259 -401)">«extend»</text></g></g><g><path fill="none" stroke="#000000" paint-order="fill stroke markers" d=" M 82 153 L 153 151" stroke-miterlimit="10" stroke-dasharray=""/></g><g><path fill="#C0C0C0" stroke="none" paint-order="stroke fill markers" d=" M 169 355.5 C 169 340.8644528 211.9806592 329 265 329 C 318.0193408 329 361 340.8644528 361 355.5 C 361 370.1355472 318.0193408 382 265 382 C 211.9806592 382 169 370.1355472 169 355.5 Z" fill-opacity="0.2"/></g><g><path fill="#ffffff" stroke="none" paint-order="stroke fill markers" d=" M 162 348.5 C 162 333.8644528 204.9806592 322 258 322 C 311.0193408 322 354 333.8644528 354 348.5 C 354 363.1355472 311.0193408 375 258 375 C 204.9806592 375 162 363.1355472 162 348.5 Z"/></g><g><path fill="none" stroke="#000000" paint-order="fill stroke markers" d=" M 162 348.5 C 162 333.8644528 204.9806592 322 258 322 C 311.0193408 322 354 333.8644528 354 348.5 C 354 363.1355472 311.0193408 375 258 375 C 204.9806592 375 162 363.1355472 162 348.5 Z" stroke-miterlimit="10" stroke-dasharray=""/></g><g><g><path fill="none" stroke="none"/><text fill="#000000" stroke="none" font-family="Arial" font-size="13px" font-style="normal" font-weight="bold" text-decoration="undefined" x="517" y="744" text-anchor="middle" dominant-baseline="central" transform="matrix(1 0 0 1 -259 -401)">UC148 - Credenziali</text><text fill="#000000" stroke="none" font-family="Arial" font-size="13px" font-style="normal" font-weight="bold" text-decoration="undefined" x="517" y="757" text-anchor="middle" dominant-baseline="central" transform="matrix(1 0 0 1 -259 -401)">API Client errate</text></g></g><g><path fill="#ffffff" stroke="none" paint-order="stroke fill markers" d=" M 354 202 L 439 202 L 449 212 L 449 305 L 354 305 L 354 202"/></g><g><path fill="none" stroke="#000000" paint-order="fill stroke markers" d=" M 354 202 L 439 202 L 449 212 L 449 305 L 354 305 L 354 202 L 354 202" stroke-miterlimit="10" stroke-dasharray=""/></g><g><path fill="none" stroke="#000000" paint-order="fill stroke markers" d=" M 439 202 L 439 212 L 449 212 L 439 202" stroke-miterlimit="10" stroke-dasharray=""/></g><g><g><path fill="none" stroke="none"/><text fill="#000000" stroke="none" font-family="Arial" font-size="13px" font-style="normal" font-weight="normal" text-decoration="undefined" x="618" y="608" text-anchor="start" dominant-baseline="text-before-edge" transform="matrix(1 0 0 1 -259 -401)">Condizione:</text><text fill="#000000" stroke="none" font-family="Arial" font-size="13px" font-style="normal" font-weight="normal" text-decoration="undefined" x="618" y="621" text-anchor="start" dominant-baseline="text-before-edge" transform="matrix(1 0 0 1 -259 -401)">L'API Client ha</text><text fill="#000000" stroke="none" font-family="Arial" font-size="13px" font-style="normal" font-weight="normal" text-decoration="undefined" x="618" y="634" text-anchor="start" dominant-baseline="text-before-edge" transform="matrix(1 0 0 1 -259 -401)">fornito al</text><text fill="#000000" stroke="none" font-family="Arial" font-size="13px" font-style="normal" font-weight="normal" text-decoration="undefined" x="618" y="647" text-anchor="start" dominant-baseline="text-before-edge" transform="matrix(1 0 0 1 -259 -401)">Sistema delle</text><text fill="#000000" stroke="none" font-family="Arial" font-size="13px" font-style="normal" font-weight="normal" text-decoration="undefined" x="618" y="660" text-anchor="start" dominant-baseline="text-before-edge" transform="matrix(1 0 0 1 -259 -401)">credenziali</text><text fill="#000000" stroke="none" font-family="Arial" font-size="13px" font-style="normal" font-weight="normal" text-decoration="undefined" x="618" y="673" text-anchor="start" dominant-baseline="text-before-edge" transform="matrix(1 0 0 1 -259 -401)">errate</text></g></g><g><path fill="#ffffff" stroke="none" paint-order="stroke fill markers" d=" M 530 226 L 607.65625 226 L 617.65625 236 L 617.65625 328 L 530 328 L 530 226"/></g><g><path fill="none" stroke="#000000" paint-order="fill stroke markers" d=" M 530 226 L 607.65625 226 L 617.65625 236 L 617.65625 328 L 530 328 L 530 226 L 530 226" stroke-miterlimit="10" stroke-dasharray=""/></g><g><path fill="none" stroke="#000000" paint-order="fill stroke markers" d=" M 607.65625 226 L 607.65625 236 L 617.65625 236 L 607.65625 226" stroke-miterlimit="10" stroke-dasharray=""/></g><g><g><path fill="none" stroke="none"/><text fill="#000000" stroke="none" font-family="Arial" font-size="13px" font-style="normal" font-weight="normal" text-decoration="undefined" x="794" y="632" text-anchor="start" dominant-baseline="text-before-edge" transform="matrix(1 0 0 1 -259 -401)">Condizione:</text><text fill="#000000" stroke="none" font-family="Arial" font-size="13px" font-style="normal" font-weight="normal" text-decoration="undefined" x="794" y="645" text-anchor="start" dominant-baseline="text-before-edge" transform="matrix(1 0 0 1 -259 -401)">L'API Client</text><text fill="#000000" stroke="none" font-family="Arial" font-size="13px" font-style="normal" font-weight="normal" text-decoration="undefined" x="794" y="658" text-anchor="start" dominant-baseline="text-before-edge" transform="matrix(1 0 0 1 -259 -401)">ha inviato</text><text fill="#000000" stroke="none" font-family="Arial" font-size="13px" font-style="normal" font-weight="normal" text-decoration="undefined" x="794" y="671" text-anchor="start" dominant-baseline="text-before-edge" transform="matrix(1 0 0 1 -259 -401)">delle</text><text fill="#000000" stroke="none" font-family="Arial" font-size="13px" font-style="normal" font-weight="normal" text-decoration="undefined" x="794" y="684" text-anchor="start" dominant-baseline="text-before-edge" transform="matrix(1 0 0 1 -259 -401)">credenziali</text><text fill="#000000" stroke="none" font-family="Arial" font-size="13px" font-style="normal" font-weight="normal" text-decoration="undefined" x="794" y="697" text-anchor="start" dominant-baseline="text-before-edge" transform="matrix(1 0 0 1 -259 -401)">scadute</text></g></g><g><path fill="none" stroke="#000000" paint-order="fill stroke markers" d=" M 353 252 L 266 248" stroke-miterlimit="10" stroke-dasharray="3"/></g><g><path fill="none" stroke="#000000" paint-order="fill stroke markers" d=" M 536 225 L 478 145" stroke-miterlimit="10" stroke-dasharray="3"/></g></g></svg>