<svg version="1.1" xmlns="http://www.w3.org/2000/svg" xmlns:xlink="http://www.w3.org/1999/xlink" width="797" height="412"><defs/><g><g><rect fill="#C0C0C0" stroke="none" x="382" y="199" width="648" height="392" transform="matrix(1 0 0 1 -237 -182)" fill-opacity="0.2"/></g><g><rect fill="#ffffff" stroke="none" x="375" y="192" width="648" height="392" transform="matrix(1 0 0 1 -237 -182)"/></g><g><path fill="none" stroke="#000000" paint-order="fill stroke markers" d=" M 138 10 L 786 10 L 786 402 L 138 402 L 138 10 Z Z" stroke-miterlimit="10" stroke-dasharray=""/></g><g><g><path fill="none" stroke="none"/><text fill="#000000" stroke="none" font-family="Arial" font-size="13px" font-style="normal" font-weight="bold" text-decoration="undefined" x="699.5" y="205.5" text-anchor="middle" dominant-baseline="central" transform="matrix(1 0 0 1 -237 -182)">Sistema Gateway</text></g></g><g><path fill="#ffffff" stroke="none" paint-order="stroke fill markers" d=" M 36.857265625000025 123.85000000000002 C 36.857265625000025 118.96227952000004 40.815067993000014 115 45.697265625 115 C 50.579463256999986 115 54.537265624999975 118.96227952000004 54.537265624999975 123.85000000000002 C 54.537265624999975 128.73772048 50.579463256999986 132.7 45.697265625 132.7 C 40.815067993000014 132.7 36.857265625000025 128.73772048 36.857265625000025 123.85000000000002 Z"/></g><g><path fill="none" stroke="#000000" paint-order="fill stroke markers" d=" M 36.857265625000025 123.85000000000002 C 36.857265625000025 118.96227952000004 40.815067993000014 115 45.697265625 115 C 50.579463256999986 115 54.537265624999975 118.96227952000004 54.537265624999975 123.85000000000002 C 54.537265624999975 128.73772048 50.579463256999986 132.7 45.697265625 132.7 C 40.815067993000014 132.7 36.857265625000025 128.73772048 36.857265625000025 123.85000000000002 Z" stroke-miterlimit="10" stroke-dasharray=""/></g><g><path fill="none" stroke="#000000" paint-order="fill stroke markers" d=" M 45.697265625 132.7 L 45.697265625 150.3" stroke-miterlimit="10" stroke-dasharray=""/></g><g><path fill="none" stroke="#000000" paint-order="fill stroke markers" d=" M 36.337265624999986 139.3 L 55.057265625000014 139.3" stroke-miterlimit="10" stroke-dasharray=""/></g><g><path fill="none" stroke="#000000" paint-order="fill stroke markers" d=" M 45.697265625 150.3 L 32.697265625 168" stroke-miterlimit="10" stroke-dasharray=""/></g><g><path fill="none" stroke="#000000" paint-order="fill stroke markers" d=" M 45.697265625 150.3 L 58.697265625 168" stroke-miterlimit="10" stroke-dasharray=""/></g><g><g><path fill="none" stroke="none"/><text fill="#000000" stroke="none" font-family="Arial" font-size="13px" font-style="normal" font-weight="bold" text-decoration="undefined" x="283.197265625" y="364.5" text-anchor="middle" dominant-baseline="central" transform="matrix(1 0 0 1 -237 -182)">API Client</text></g></g><g><path fill="#C0C0C0" stroke="none" paint-order="stroke fill markers" d=" M 161 155.5 C 161 140.86445279999998 214.725824 129 281 129 C 347.274176 129 401 140.86445279999998 401 155.5 C 401 170.13554720000002 347.274176 182 281 182 C 214.725824 182 161 170.13554720000002 161 155.5 Z" fill-opacity="0.2"/></g><g><path fill="#ffffff" stroke="none" paint-order="stroke fill markers" d=" M 154 148.5 C 154 133.86445279999998 207.725824 122 274 122 C 340.274176 122 394 133.86445279999998 394 148.5 C 394 163.13554720000002 340.274176 175 274 175 C 207.725824 175 154 163.13554720000002 154 148.5 Z"/></g><g><path fill="none" stroke="#000000" paint-order="fill stroke markers" d=" M 154 148.5 C 154 133.86445279999998 207.725824 122 274 122 C 340.274176 122 394 133.86445279999998 394 148.5 C 394 163.13554720000002 340.274176 175 274 175 C 207.725824 175 154 163.13554720000002 154 148.5 Z" stroke-miterlimit="10" stroke-dasharray=""/></g><g><g><path fill="none" stroke="none"/><text fill="#000000" stroke="none" font-family="Arial" font-size="13px" font-style="normal" font-weight="bold" text-decoration="undefined" x="511" y="325" text-anchor="middle" dominant-baseline="central" transform="matrix(1 0 0 1 -237 -182)">UC149 - Autenticazione</text><text fill="#000000" stroke="none" font-family="Arial" font-size="13px" font-style="normal" font-weight="bold" text-decoration="undefined" x="511" y="338" text-anchor="middle" dominant-baseline="central" transform="matrix(1 0 0 1 -237 -182)">API Client</text></g></g><g><path fill="none" stroke="#000000" paint-order="fill stroke markers" d=" M 274 321 L 274 176" stroke-miterlimit="10" stroke-dasharray="3"/></g><g><path fill="none" stroke="#000000" paint-order="fill stroke markers" d=" M 278.209517756016 186.16267485762415 L 274 176 L 269.790482243984 186.16267485762415" stroke-miterlimit="10" stroke-dasharray=""/></g><g><rect fill="#ffffff" stroke="none" x="455" y="423" width="53.49169921875" height="13" transform="matrix(1 0 0 1 -237 -182)"/></g><g><g><path fill="none" stroke="none"/><text fill="#000000" stroke="none" font-family="Arial" font-size="13px" font-style="normal" font-weight="normal" text-decoration="undefined" x="481.745849609375" y="429.5" text-anchor="middle" dominant-baseline="central" transform="matrix(1 0 0 1 -237 -182)">«extend»</text></g></g><g><path fill="#C0C0C0" stroke="none" paint-order="stroke fill markers" d=" M 569 149 C 569 129.1177472 613.77152 113 669 113 C 724.22848 113 769 129.1177472 769 149 C 769 168.8822528 724.22848 185 669 185 C 613.77152 185 569 168.8822528 569 149 Z" fill-opacity="0.2"/></g><g><path fill="#ffffff" stroke="none" paint-order="stroke fill markers" d=" M 562 142 C 562 122.1177472 606.77152 106 662 106 C 717.22848 106 762 122.1177472 762 142 C 762 161.8822528 717.22848 178 662 178 C 606.77152 178 562 161.8822528 562 142 Z"/></g><g><path fill="none" stroke="#000000" paint-order="fill stroke markers" d=" M 562 142 C 562 122.1177472 606.77152 106 662 106 C 717.22848 106 762 122.1177472 762 142 C 762 161.8822528 717.22848 178 662 178 C 606.77152 178 562 161.8822528 562 142 Z" stroke-miterlimit="10" stroke-dasharray=""/></g><g><g><path fill="none" stroke="none"/><text fill="#000000" stroke="none" font-family="Arial" font-size="13px" font-style="normal" font-weight="bold" text-decoration="undefined" x="899" y="318.5" text-anchor="middle" dominant-baseline="central" transform="matrix(1 0 0 1 -237 -182)">UC151 - Credenziali</text><text fill="#000000" stroke="none" font-family="Arial" font-size="13px" font-style="normal" font-weight="bold" text-decoration="undefined" x="899" y="331.5" text-anchor="middle" dominant-baseline="central" transform="matrix(1 0 0 1 -237 -182)">API Client scadute</text></g></g><g><path fill="none" stroke="#000000" paint-order="fill stroke markers" d=" M 561 144 L 395 146" stroke-miterlimit="10" stroke-dasharray="3"/></g><g><path fill="none" stroke="#000000" paint-order="fill stroke markers" d=" M 405.11122393553626 141.66835475535692 L 395 146 L 405.21265073709503 150.08677928473185" stroke-miterlimit="10" stroke-dasharray=""/></g><g><rect fill="#ffffff" stroke="none" x="687" y="301" width="53.49169921875" height="13" transform="matrix(1 0 0 1 -237 -182)"/></g><g><g><path fill="none" stroke="none"/><text fill="#000000" stroke="none" font-family="Arial" font-size="13px" font-style="normal" font-weight="normal" text-decoration="undefined" x="713.745849609375" y="307.5" text-anchor="middle" dominant-baseline="central" transform="matrix(1 0 0 1 -237 -182)">«extend»</text></g></g><g><path fill="none" stroke="#000000" paint-order="fill stroke markers" d=" M 82 153 L 153 151" stroke-miterlimit="10" stroke-dasharray=""/></g><g><path fill="#C0C0C0" stroke="none" paint-order="stroke fill markers" d=" M 185 355.5 C 185 340.8644528 227.9806592 329 281 329 C 334.0193408 329 377 340.8644528 377 355.5 C 377 370.1355472 334.0193408 382 281 382 C 227.9806592 382 185 370.1355472 185 355.5 Z" fill-opacity="0.2"/></g><g><path fill="#ffffff" stroke="none" paint-order="stroke fill markers" d=" M 178 348.5 C 178 333.8644528 220.9806592 322 274 322 C 327.0193408 322 370 333.8644528 370 348.5 C 370 363.1355472 327.0193408 375 274 375 C 220.9806592 375 178 363.1355472 178 348.5 Z"/></g><g><path fill="none" stroke="#000000" paint-order="fill stroke markers" d=" M 178 348.5 C 178 333.8644528 220.9806592 322 274 322 C 327.0193408 322 370 333.8644528 370 348.5 C 370 363.1355472 327.0193408 375 274 375 C 220.9806592 375 178 363.1355472 178 348.5 Z" stroke-miterlimit="10" stroke-dasharray=""/></g><g><g><path fill="none" stroke="none"/><text fill="#000000" stroke="none" font-family="Arial" font-size="13px" font-style="normal" font-weight="bold" text-decoration="undefined" x="511" y="525" text-anchor="middle" dominant-baseline="central" transform="matrix(1 0 0 1 -237 -182)">UC150 - Credenziali</text><text fill="#000000" stroke="none" font-family="Arial" font-size="13px" font-style="normal" font-weight="bold" text-decoration="undefined" x="511" y="538" text-anchor="middle" dominant-baseline="central" transform="matrix(1 0 0 1 -237 -182)">API Client errate</text></g></g><g><path fill="#ffffff" stroke="none" paint-order="stroke fill markers" d=" M 338 210 L 415.65625 210 L 425.65625 220 L 425.65625 286 L 338 286 L 338 210"/></g><g><path fill="none" stroke="#000000" paint-order="fill stroke markers" d=" M 338 210 L 415.65625 210 L 425.65625 220 L 425.65625 286 L 338 286 L 338 210 L 338 210" stroke-miterlimit="10" stroke-dasharray=""/></g><g><path fill="none" stroke="#000000" paint-order="fill stroke markers" d=" M 415.65625 210 L 415.65625 220 L 425.65625 220 L 415.65625 210" stroke-miterlimit="10" stroke-dasharray=""/></g><g><g><path fill="none" stroke="none"/><text fill="#000000" stroke="none" font-family="Arial" font-size="13px" font-style="normal" font-weight="normal" text-decoration="undefined" x="580" y="397" text-anchor="start" dominant-baseline="text-before-edge" transform="matrix(1 0 0 1 -237 -182)">Condizione:</text><text fill="#000000" stroke="none" font-family="Arial" font-size="13px" font-style="normal" font-weight="normal" text-decoration="undefined" x="580" y="410" text-anchor="start" dominant-baseline="text-before-edge" transform="matrix(1 0 0 1 -237 -182)">le credenziali</text><text fill="#000000" stroke="none" font-family="Arial" font-size="13px" font-style="normal" font-weight="normal" text-decoration="undefined" x="580" y="423" text-anchor="start" dominant-baseline="text-before-edge" transform="matrix(1 0 0 1 -237 -182)">non sono</text><text fill="#000000" stroke="none" font-family="Arial" font-size="13px" font-style="normal" font-weight="normal" text-decoration="undefined" x="580" y="436" text-anchor="start" dominant-baseline="text-before-edge" transform="matrix(1 0 0 1 -237 -182)">valide</text></g></g><g><path fill="#ffffff" stroke="none" paint-order="stroke fill markers" d=" M 530 226 L 607.65625 226 L 617.65625 236 L 617.65625 302 L 530 302 L 530 226"/></g><g><path fill="none" stroke="#000000" paint-order="fill stroke markers" d=" M 530 226 L 607.65625 226 L 617.65625 236 L 617.65625 302 L 530 302 L 530 226 L 530 226" stroke-miterlimit="10" stroke-dasharray=""/></g><g><path fill="none" stroke="#000000" paint-order="fill stroke markers" d=" M 607.65625 226 L 607.65625 236 L 617.65625 236 L 607.65625 226" stroke-miterlimit="10" stroke-dasharray=""/></g><g><g><path fill="none" stroke="none"/><text fill="#000000" stroke="none" font-family="Arial" font-size="13px" font-style="normal" font-weight="normal" text-decoration="undefined" x="772" y="413" text-anchor="start" dominant-baseline="text-before-edge" transform="matrix(1 0 0 1 -237 -182)">Condizione:</text><text fill="#000000" stroke="none" font-family="Arial" font-size="13px" font-style="normal" font-weight="normal" text-decoration="undefined" x="772" y="426" text-anchor="start" dominant-baseline="text-before-edge" transform="matrix(1 0 0 1 -237 -182)">le credenziali</text><text fill="#000000" stroke="none" font-family="Arial" font-size="13px" font-style="normal" font-weight="normal" text-decoration="undefined" x="772" y="439" text-anchor="start" dominant-baseline="text-before-edge" transform="matrix(1 0 0 1 -237 -182)">sono scadute</text></g></g><g><path fill="none" stroke="#000000" paint-order="fill stroke markers" d=" M 337 248 L 274 248" stroke-miterlimit="10" stroke-dasharray="3"/></g><g><path fill="none" stroke="#000000" paint-order="fill stroke markers" d=" M 543 225 L 478 145" stroke-miterlimit="10" stroke-dasharray="3"/></g></g></svg>