<svg version="1.1" xmlns="http://www.w3.org/2000/svg" xmlns:xlink="http://www.w3.org/1999/xlink" width="797" height="572"><defs/><g><g><rect fill="#C0C0C0" stroke="none" x="382" y="119" width="648" height="552" transform="matrix(1 0 0 1 -237 -102)" fill-opacity="0.2"/></g><g><rect fill="#ffffff" stroke="none" x="375" y="112" width="648" height="552" transform="matrix(1 0 0 1 -237 -102)"/></g><g><path fill="none" stroke="#000000" paint-order="fill stroke markers" d=" M 138 10 L 786 10 L 786 562 L 138 562 L 138 10 Z Z" stroke-miterlimit="10" stroke-dasharray=""/></g><g><g><path fill="none" stroke="none"/><text fill="#000000" stroke="none" font-family="Arial" font-size="13px" font-style="normal" font-weight="bold" text-decoration="undefined" x="699.5" y="125.5" text-anchor="middle" dominant-baseline="central" transform="matrix(1 0 0 1 -237 -102)">Sistema Gateway</text></g></g><g><path fill="#ffffff" stroke="none" paint-order="stroke fill markers" d=" M 36.857265625000025 147.85 C 36.857265625000025 142.96227952 40.815067993000014 139 45.697265625 139 C 50.579463256999986 139 54.537265624999975 142.96227952 54.537265624999975 147.85 C 54.537265624999975 152.73772047999998 50.579463256999986 156.7 45.697265625 156.7 C 40.815067993000014 156.7 36.857265625000025 152.73772047999998 36.857265625000025 147.85 Z"/></g><g><path fill="none" stroke="#000000" paint-order="fill stroke markers" d=" M 36.857265625000025 147.85 C 36.857265625000025 142.96227952 40.815067993000014 139 45.697265625 139 C 50.579463256999986 139 54.537265624999975 142.96227952 54.537265624999975 147.85 C 54.537265624999975 152.73772047999998 50.579463256999986 156.7 45.697265625 156.7 C 40.815067993000014 156.7 36.857265625000025 152.73772047999998 36.857265625000025 147.85 Z" stroke-miterlimit="10" stroke-dasharray=""/></g><g><path fill="none" stroke="#000000" paint-order="fill stroke markers" d=" M 45.697265625 156.7 L 45.697265625 174.3" stroke-miterlimit="10" stroke-dasharray=""/></g><g><path fill="none" stroke="#000000" paint-order="fill stroke markers" d=" M 36.337265624999986 163.3 L 55.057265625000014 163.3" stroke-miterlimit="10" stroke-dasharray=""/></g><g><path fill="none" stroke="#000000" paint-order="fill stroke markers" d=" M 45.697265625 174.3 L 32.697265625 192" stroke-miterlimit="10" stroke-dasharray=""/></g><g><path fill="none" stroke="#000000" paint-order="fill stroke markers" d=" M 45.697265625 174.3 L 58.697265625 192" stroke-miterlimit="10" stroke-dasharray=""/></g><g><g><path fill="none" stroke="none"/><text fill="#000000" stroke="none" font-family="Arial" font-size="13px" font-style="normal" font-weight="bold" text-decoration="undefined" x="283.197265625" y="308.5" text-anchor="middle" dominant-baseline="central" transform="matrix(1 0 0 1 -237 -102)">API Client</text></g></g><g><path fill="#C0C0C0" stroke="none" paint-order="stroke fill markers" d=" M 193 187.5 C 193 168.44617440000002 241.3532416 153 301 153 C 360.64675839999995 153 409 168.44617440000002 409 187.5 C 409 206.55382559999998 360.64675839999995 222 301 222 C 241.3532416 222 193 206.55382559999998 193 187.5 Z" fill-opacity="0.2"/></g><g><path fill="#ffffff" stroke="none" paint-order="stroke fill markers" d=" M 186 180.5 C 186 161.44617440000002 234.3532416 146 294 146 C 353.64675839999995 146 402 161.44617440000002 402 180.5 C 402 199.55382559999998 353.64675839999995 215 294 215 C 234.3532416 215 186 199.55382559999998 186 180.5 Z"/></g><g><path fill="none" stroke="#000000" paint-order="fill stroke markers" d=" M 186 180.5 C 186 161.44617440000002 234.3532416 146 294 146 C 353.64675839999995 146 402 161.44617440000002 402 180.5 C 402 199.55382559999998 353.64675839999995 215 294 215 C 234.3532416 215 186 199.55382559999998 186 180.5 Z" stroke-miterlimit="10" stroke-dasharray=""/></g><g><g><path fill="none" stroke="none"/><text fill="#000000" stroke="none" font-family="Arial" font-size="13px" font-style="normal" font-weight="bold" text-decoration="undefined" x="531" y="277" text-anchor="middle" dominant-baseline="central" transform="matrix(1 0 0 1 -237 -102)">UC145 - Richiesta</text><text fill="#000000" stroke="none" font-family="Arial" font-size="13px" font-style="normal" font-weight="bold" text-decoration="undefined" x="531" y="290" text-anchor="middle" dominant-baseline="central" transform="matrix(1 0 0 1 -237 -102)">storico dati sensore</text></g></g><g><path fill="none" stroke="#000000" paint-order="fill stroke markers" d=" M 361 145 L 414 117" stroke-miterlimit="10" stroke-dasharray="3"/></g><g><path fill="none" stroke="#000000" paint-order="fill stroke markers" d=" M 406.98058440942066 125.4692269285178 L 414 117 L 403.04787584337214 118.02517142849737" stroke-miterlimit="10" stroke-dasharray=""/></g><g><rect fill="#ffffff" stroke="none" x="583" y="200" width="55.65625" height="13" transform="matrix(1 0 0 1 -237 -102)"/></g><g><g><path fill="none" stroke="none"/><text fill="#000000" stroke="none" font-family="Arial" font-size="13px" font-style="normal" font-weight="normal" text-decoration="undefined" x="610.828125" y="206.5" text-anchor="middle" dominant-baseline="central" transform="matrix(1 0 0 1 -237 -102)">«include»</text></g></g><g><path fill="#C0C0C0" stroke="none" paint-order="stroke fill markers" d=" M 585 269 C 585 249.1177472 626.1897984 233 677 233 C 727.8102016 233 769 249.1177472 769 269 C 769 288.8822528 727.8102016 305 677 305 C 626.1897984 305 585 288.8822528 585 269 Z" fill-opacity="0.2"/></g><g><path fill="#ffffff" stroke="none" paint-order="stroke fill markers" d=" M 578 262 C 578 242.1177472 619.1897984 226 670 226 C 720.8102016 226 762 242.1177472 762 262 C 762 281.8822528 720.8102016 298 670 298 C 619.1897984 298 578 281.8822528 578 262 Z"/></g><g><path fill="none" stroke="#000000" paint-order="fill stroke markers" d=" M 578 262 C 578 242.1177472 619.1897984 226 670 226 C 720.8102016 226 762 242.1177472 762 262 C 762 281.8822528 720.8102016 298 670 298 C 619.1897984 298 578 281.8822528 578 262 Z" stroke-miterlimit="10" stroke-dasharray=""/></g><g><g><path fill="none" stroke="none"/><text fill="#000000" stroke="none" font-family="Arial" font-size="13px" font-style="normal" font-weight="bold" text-decoration="undefined" x="907" y="358.5" text-anchor="middle" dominant-baseline="central" transform="matrix(1 0 0 1 -237 -102)">UC146 - Sensore</text><text fill="#000000" stroke="none" font-family="Arial" font-size="13px" font-style="normal" font-weight="bold" text-decoration="undefined" x="907" y="371.5" text-anchor="middle" dominant-baseline="central" transform="matrix(1 0 0 1 -237 -102)">non trovato</text></g></g><g><path fill="none" stroke="#000000" paint-order="fill stroke markers" d=" M 577 242 L 403 204" stroke-miterlimit="10" stroke-dasharray="3"/></g><g><path fill="none" stroke="#000000" paint-order="fill stroke markers" d=" M 413.82681216068363 202.05574218857845 L 403 204 L 412.0305101802835 210.28091441462124" stroke-miterlimit="10" stroke-dasharray=""/></g><g><rect fill="#ffffff" stroke="none" x="704" y="343" width="53.49169921875" height="13" transform="matrix(1 0 0 1 -237 -102)"/></g><g><g><path fill="none" stroke="none"/><text fill="#000000" stroke="none" font-family="Arial" font-size="13px" font-style="normal" font-weight="normal" text-decoration="undefined" x="730.745849609375" y="349.5" text-anchor="middle" dominant-baseline="central" transform="matrix(1 0 0 1 -237 -102)">«extend»</text></g></g><g><path fill="none" stroke="#000000" paint-order="fill stroke markers" d=" M 520 425 L 327 216" stroke-miterlimit="10" stroke-dasharray="3"/></g><g><path fill="none" stroke="#000000" paint-order="fill stroke markers" d=" M 336.9872245155858 220.61035209884028 L 327 216 L 330.8020229474557 226.3220454129509" stroke-miterlimit="10" stroke-dasharray=""/></g><g><rect fill="#ffffff" stroke="none" x="611" y="436" width="53.49169921875" height="13" transform="matrix(1 0 0 1 -237 -102)"/></g><g><g><path fill="none" stroke="none"/><text fill="#000000" stroke="none" font-family="Arial" font-size="13px" font-style="normal" font-weight="normal" text-decoration="undefined" x="637.745849609375" y="442.5" text-anchor="middle" dominant-baseline="central" transform="matrix(1 0 0 1 -237 -102)">«extend»</text></g></g><g><path fill="none" stroke="#000000" paint-order="fill stroke markers" d=" M 290 441 L 294 216" stroke-miterlimit="10" stroke-dasharray="3"/></g><g><path fill="none" stroke="#000000" paint-order="fill stroke markers" d=" M 298.0282114741823 226.23589333274168 L 294 216 L 289.6105060623639 226.08624523653157" stroke-miterlimit="10" stroke-dasharray=""/></g><g><rect fill="#ffffff" stroke="none" x="530" y="452" width="53.49169921875" height="13" transform="matrix(1 0 0 1 -237 -102)"/></g><g><g><path fill="none" stroke="none"/><text fill="#000000" stroke="none" font-family="Arial" font-size="13px" font-style="normal" font-weight="normal" text-decoration="undefined" x="556.745849609375" y="458.5" text-anchor="middle" dominant-baseline="central" transform="matrix(1 0 0 1 -237 -102)">«extend»</text></g></g><g><path fill="none" stroke="#000000" paint-order="fill stroke markers" d=" M 82 178 L 185 179" stroke-miterlimit="10" stroke-dasharray=""/></g><g><path fill="#C0C0C0" stroke="none" paint-order="stroke fill markers" d=" M 193 485 C 193 465.11774720000005 239.56238080000003 449 297 449 C 354.4376192 449 401 465.11774720000005 401 485 C 401 504.88225279999995 354.4376192 521 297 521 C 239.56238080000003 521 193 504.88225279999995 193 485 Z" fill-opacity="0.2"/></g><g><path fill="#ffffff" stroke="none" paint-order="stroke fill markers" d=" M 186 478 C 186 458.11774720000005 232.56238080000003 442 290 442 C 347.4376192 442 394 458.11774720000005 394 478 C 394 497.88225279999995 347.4376192 514 290 514 C 232.56238080000003 514 186 497.88225279999995 186 478 Z"/></g><g><path fill="none" stroke="#000000" paint-order="fill stroke markers" d=" M 186 478 C 186 458.11774720000005 232.56238080000003 442 290 442 C 347.4376192 442 394 458.11774720000005 394 478 C 394 497.88225279999995 347.4376192 514 290 514 C 232.56238080000003 514 186 497.88225279999995 186 478 Z" stroke-miterlimit="10" stroke-dasharray=""/></g><g><g><path fill="none" stroke="none"/><text fill="#000000" stroke="none" font-family="Arial" font-size="13px" font-style="normal" font-weight="bold" text-decoration="undefined" x="527" y="568" text-anchor="middle" dominant-baseline="central" transform="matrix(1 0 0 1 -237 -102)">UC148 - Sensore non</text><text fill="#000000" stroke="none" font-family="Arial" font-size="13px" font-style="normal" font-weight="bold" text-decoration="undefined" x="527" y="581" text-anchor="middle" dominant-baseline="central" transform="matrix(1 0 0 1 -237 -102)">associato al tenant</text><text fill="#000000" stroke="none" font-family="Arial" font-size="13px" font-style="normal" font-weight="bold" text-decoration="undefined" x="527" y="594" text-anchor="middle" dominant-baseline="central" transform="matrix(1 0 0 1 -237 -102)">del API Client</text></g></g><g><path fill="#ffffff" stroke="none" paint-order="stroke fill markers" d=" M 162 290 L 239.65625 290 L 249.65625 300 L 249.65625 392 L 162 392 L 162 290"/></g><g><path fill="none" stroke="#000000" paint-order="fill stroke markers" d=" M 162 290 L 239.65625 290 L 249.65625 300 L 249.65625 392 L 162 392 L 162 290 L 162 290" stroke-miterlimit="10" stroke-dasharray=""/></g><g><path fill="none" stroke="#000000" paint-order="fill stroke markers" d=" M 239.65625 290 L 239.65625 300 L 249.65625 300 L 239.65625 290" stroke-miterlimit="10" stroke-dasharray=""/></g><g><g><path fill="none" stroke="none"/><text fill="#000000" stroke="none" font-family="Arial" font-size="13px" font-style="normal" font-weight="normal" text-decoration="undefined" x="404" y="397" text-anchor="start" dominant-baseline="text-before-edge" transform="matrix(1 0 0 1 -237 -102)">Condizione:</text><text fill="#000000" stroke="none" font-family="Arial" font-size="13px" font-style="normal" font-weight="normal" text-decoration="undefined" x="404" y="410" text-anchor="start" dominant-baseline="text-before-edge" transform="matrix(1 0 0 1 -237 -102)">richiesti dati</text><text fill="#000000" stroke="none" font-family="Arial" font-size="13px" font-style="normal" font-weight="normal" text-decoration="undefined" x="404" y="423" text-anchor="start" dominant-baseline="text-before-edge" transform="matrix(1 0 0 1 -237 -102)">di un sensore</text><text fill="#000000" stroke="none" font-family="Arial" font-size="13px" font-style="normal" font-weight="normal" text-decoration="undefined" x="404" y="436" text-anchor="start" dominant-baseline="text-before-edge" transform="matrix(1 0 0 1 -237 -102)">non</text><text fill="#000000" stroke="none" font-family="Arial" font-size="13px" font-style="normal" font-weight="normal" text-decoration="undefined" x="404" y="449" text-anchor="start" dominant-baseline="text-before-edge" transform="matrix(1 0 0 1 -237 -102)">associato al</text><text fill="#000000" stroke="none" font-family="Arial" font-size="13px" font-style="normal" font-weight="normal" text-decoration="undefined" x="404" y="462" text-anchor="start" dominant-baseline="text-before-edge" transform="matrix(1 0 0 1 -237 -102)">richiedente</text></g></g><g><path fill="#C0C0C0" stroke="none" paint-order="stroke fill markers" d=" M 441 469 C 441 449.11774720000005 494.725824 433 561 433 C 627.274176 433 681 449.11774720000005 681 469 C 681 488.88225279999995 627.274176 505 561 505 C 494.725824 505 441 488.88225279999995 441 469 Z" fill-opacity="0.2"/></g><g><path fill="#ffffff" stroke="none" paint-order="stroke fill markers" d=" M 434 462 C 434 442.11774720000005 487.725824 426 554 426 C 620.274176 426 674 442.11774720000005 674 462 C 674 481.88225279999995 620.274176 498 554 498 C 487.725824 498 434 481.88225279999995 434 462 Z"/></g><g><path fill="none" stroke="#000000" paint-order="fill stroke markers" d=" M 434 462 C 434 442.11774720000005 487.725824 426 554 426 C 620.274176 426 674 442.11774720000005 674 462 C 674 481.88225279999995 620.274176 498 554 498 C 487.725824 498 434 481.88225279999995 434 462 Z" stroke-miterlimit="10" stroke-dasharray=""/></g><g><g><path fill="none" stroke="none"/><text fill="#000000" stroke="none" font-family="Arial" font-size="13px" font-style="normal" font-weight="bold" text-decoration="undefined" x="791" y="552" text-anchor="middle" dominant-baseline="central" transform="matrix(1 0 0 1 -237 -102)">UC147 - Nessun dato</text><text fill="#000000" stroke="none" font-family="Arial" font-size="13px" font-style="normal" font-weight="bold" text-decoration="undefined" x="791" y="565" text-anchor="middle" dominant-baseline="central" transform="matrix(1 0 0 1 -237 -102)">disponibile per il sensore</text><text fill="#000000" stroke="none" font-family="Arial" font-size="13px" font-style="normal" font-weight="bold" text-decoration="undefined" x="791" y="578" text-anchor="middle" dominant-baseline="central" transform="matrix(1 0 0 1 -237 -102)">richiesto</text></g></g><g><path fill="none" stroke="#000000" paint-order="fill stroke markers" d=" M 252 334 L 292 328" stroke-miterlimit="10" stroke-dasharray="3"/></g><g><path fill="#ffffff" stroke="none" paint-order="stroke fill markers" d=" M 538 322 L 615.65625 322 L 625.65625 332 L 625.65625 411 L 538 411 L 538 322"/></g><g><path fill="none" stroke="#000000" paint-order="fill stroke markers" d=" M 538 322 L 615.65625 322 L 625.65625 332 L 625.65625 411 L 538 411 L 538 322 L 538 322" stroke-miterlimit="10" stroke-dasharray=""/></g><g><path fill="none" stroke="#000000" paint-order="fill stroke markers" d=" M 615.65625 322 L 615.65625 332 L 625.65625 332 L 615.65625 322" stroke-miterlimit="10" stroke-dasharray=""/></g><g><g><path fill="none" stroke="none"/><text fill="#000000" stroke="none" font-family="Arial" font-size="13px" font-style="normal" font-weight="normal" text-decoration="undefined" x="780" y="429" text-anchor="start" dominant-baseline="text-before-edge" transform="matrix(1 0 0 1 -237 -102)">Condizione:</text><text fill="#000000" stroke="none" font-family="Arial" font-size="13px" font-style="normal" font-weight="normal" text-decoration="undefined" x="780" y="442" text-anchor="start" dominant-baseline="text-before-edge" transform="matrix(1 0 0 1 -237 -102)">non ci sono</text><text fill="#000000" stroke="none" font-family="Arial" font-size="13px" font-style="normal" font-weight="normal" text-decoration="undefined" x="780" y="455" text-anchor="start" dominant-baseline="text-before-edge" transform="matrix(1 0 0 1 -237 -102)">dati salvati o</text><text fill="#000000" stroke="none" font-family="Arial" font-size="13px" font-style="normal" font-weight="normal" text-decoration="undefined" x="780" y="468" text-anchor="start" dominant-baseline="text-before-edge" transform="matrix(1 0 0 1 -237 -102)">real-time di</text><text fill="#000000" stroke="none" font-family="Arial" font-size="13px" font-style="normal" font-weight="normal" text-decoration="undefined" x="780" y="481" text-anchor="start" dominant-baseline="text-before-edge" transform="matrix(1 0 0 1 -237 -102)">quel sensore</text></g></g><g><path fill="none" stroke="#000000" paint-order="fill stroke markers" d=" M 537 354 L 423 320" stroke-miterlimit="10" stroke-dasharray="3"/></g><g><path fill="#C0C0C0" stroke="none" paint-order="stroke fill markers" d=" M 393 82 C 393 59.35632319999999 441.35324160000005 41 501 41 C 560.6467584 41 609 59.35632319999999 609 82 C 609 104.64367680000001 560.6467584 123 501 123 C 441.35324160000005 123 393 104.64367680000001 393 82 Z" fill-opacity="0.2"/></g><g><path fill="#ffffff" stroke="none" paint-order="stroke fill markers" d=" M 386 75 C 386 52.35632319999999 434.35324160000005 34 494 34 C 553.6467584 34 602 52.35632319999999 602 75 C 602 97.64367680000001 553.6467584 116 494 116 C 434.35324160000005 116 386 97.64367680000001 386 75 Z"/></g><g><path fill="none" stroke="#000000" paint-order="fill stroke markers" d=" M 386 75 C 386 52.35632319999999 434.35324160000005 34 494 34 C 553.6467584 34 602 52.35632319999999 602 75 C 602 97.64367680000001 553.6467584 116 494 116 C 434.35324160000005 116 386 97.64367680000001 386 75 Z" stroke-miterlimit="10" stroke-dasharray=""/></g><g><g><path fill="none" stroke="none"/><text fill="#000000" stroke="none" font-family="Arial" font-size="13px" font-style="normal" font-weight="bold" text-decoration="undefined" x="731" y="171.5" text-anchor="middle" dominant-baseline="central" transform="matrix(1 0 0 1 -237 -102)">UC145.1 - Ricezione</text><text fill="#000000" stroke="none" font-family="Arial" font-size="13px" font-style="normal" font-weight="bold" text-decoration="undefined" x="731" y="184.5" text-anchor="middle" dominant-baseline="central" transform="matrix(1 0 0 1 -237 -102)">storico dati sensore</text></g></g><g><path fill="#ffffff" stroke="none" paint-order="stroke fill markers" d=" M 626 98 L 727 98 L 737 108 L 737 177 L 626 177 L 626 98"/></g><g><path fill="none" stroke="#000000" paint-order="fill stroke markers" d=" M 626 98 L 727 98 L 737 108 L 737 177 L 626 177 L 626 98 L 626 98" stroke-miterlimit="10" stroke-dasharray=""/></g><g><path fill="none" stroke="#000000" paint-order="fill stroke markers" d=" M 727 98 L 727 108 L 737 108 L 727 98" stroke-miterlimit="10" stroke-dasharray=""/></g><g><g><path fill="none" stroke="none"/><text fill="#000000" stroke="none" font-family="Arial" font-size="13px" font-style="normal" font-weight="normal" text-decoration="undefined" x="868" y="205" text-anchor="start" dominant-baseline="text-before-edge" transform="matrix(1 0 0 1 -237 -102)">Condizione:</text><text fill="#000000" stroke="none" font-family="Arial" font-size="13px" font-style="normal" font-weight="normal" text-decoration="undefined" x="868" y="218" text-anchor="start" dominant-baseline="text-before-edge" transform="matrix(1 0 0 1 -237 -102)">richiesti dati da</text><text fill="#000000" stroke="none" font-family="Arial" font-size="13px" font-style="normal" font-weight="normal" text-decoration="undefined" x="868" y="231" text-anchor="start" dominant-baseline="text-before-edge" transform="matrix(1 0 0 1 -237 -102)">un sensore che</text><text fill="#000000" stroke="none" font-family="Arial" font-size="13px" font-style="normal" font-weight="normal" text-decoration="undefined" x="868" y="244" text-anchor="start" dominant-baseline="text-before-edge" transform="matrix(1 0 0 1 -237 -102)">non esiste nel</text><text fill="#000000" stroke="none" font-family="Arial" font-size="13px" font-style="normal" font-weight="normal" text-decoration="undefined" x="868" y="257" text-anchor="start" dominant-baseline="text-before-edge" transform="matrix(1 0 0 1 -237 -102)">Sistema</text></g></g><g><path fill="none" stroke="#000000" paint-order="fill stroke markers" d=" M 625 163 L 490 223" stroke-miterlimit="10" stroke-dasharray="3"/></g></g></svg>