<svg version="1.1" xmlns="http://www.w3.org/2000/svg" xmlns:xlink="http://www.w3.org/1999/xlink" width="727" height="292"><defs/><g><g><rect fill="#C0C0C0" stroke="none" x="419" y="259" width="576" height="272" transform="matrix(1 0 0 1 -272 -242)" fill-opacity="0.2"/></g><g><rect fill="#ffffff" stroke="none" x="412" y="252" width="576" height="272" transform="matrix(1 0 0 1 -272 -242)"/></g><g><path fill="none" stroke="#000000" paint-order="fill stroke markers" d=" M 140 10 L 716 10 L 716 282 L 140 282 L 140 10 Z Z" stroke-miterlimit="10" stroke-dasharray=""/></g><g><g><path fill="none" stroke="none"/><text fill="#000000" stroke="none" font-family="Arial" font-size="13px" font-style="normal" font-weight="bold" text-decoration="undefined" x="700.5" y="265.5" text-anchor="middle" dominant-baseline="central" transform="matrix(1 0 0 1 -272 -242)">Sistema Gateway</text></g></g><g><path fill="#ffffff" stroke="none" paint-order="stroke fill markers" d=" M 32.896328125000025 103.85000000000002 C 32.896328125000025 98.96227952000004 36.854130493000014 95 41.736328125 95 C 46.618525756999986 95 50.576328124999975 98.96227952000004 50.576328124999975 103.85000000000002 C 50.576328124999975 108.73772048000001 46.618525756999986 112.69999999999999 41.736328125 112.69999999999999 C 36.854130493000014 112.69999999999999 32.896328125000025 108.73772048000001 32.896328125000025 103.85000000000002 Z"/></g><g><path fill="none" stroke="#000000" paint-order="fill stroke markers" d=" M 32.896328125000025 103.85000000000002 C 32.896328125000025 98.96227952000004 36.854130493000014 95 41.736328125 95 C 46.618525756999986 95 50.576328124999975 98.96227952000004 50.576328124999975 103.85000000000002 C 50.576328124999975 108.73772048000001 46.618525756999986 112.69999999999999 41.736328125 112.69999999999999 C 36.854130493000014 112.69999999999999 32.896328125000025 108.73772048000001 32.896328125000025 103.85000000000002 Z" stroke-miterlimit="10" stroke-dasharray=""/></g><g><path fill="none" stroke="#000000" paint-order="fill stroke markers" d=" M 41.736328125 112.69999999999999 L 41.736328125 130.3" stroke-miterlimit="10" stroke-dasharray=""/></g><g><path fill="none" stroke="#000000" paint-order="fill stroke markers" d=" M 32.376328124999986 119.30000000000001 L 51.096328125000014 119.30000000000001" stroke-miterlimit="10" stroke-dasharray=""/></g><g><path fill="none" stroke="#000000" paint-order="fill stroke markers" d=" M 41.736328125 130.3 L 28.736328125 148" stroke-miterlimit="10" stroke-dasharray=""/></g><g><path fill="none" stroke="#000000" paint-order="fill stroke markers" d=" M 41.736328125 130.3 L 54.736328125 148" stroke-miterlimit="10" stroke-dasharray=""/></g><g><g><path fill="none" stroke="none"/><text fill="#000000" stroke="none" font-family="Arial" font-size="13px" font-style="normal" font-weight="bold" text-decoration="undefined" x="314.236328125" y="404.5" text-anchor="middle" dominant-baseline="central" transform="matrix(1 0 0 1 -272 -242)">Gateway</text></g></g><g><path fill="#C0C0C0" stroke="none" paint-order="stroke fill markers" d=" M 211 141 C 211 121.1177472 246.81721600000003 105 291 105 C 335.18278399999997 105 371 121.1177472 371 141 C 371 160.8822528 335.18278399999997 177 291 177 C 246.81721600000003 177 211 160.8822528 211 141 Z" fill-opacity="0.2"/></g><g><path fill="#ffffff" stroke="none" paint-order="stroke fill markers" d=" M 204 134 C 204 114.1177472 239.81721600000003 98 284 98 C 328.18278399999997 98 364 114.1177472 364 134 C 364 153.8822528 328.18278399999997 170 284 170 C 239.81721600000003 170 204 153.8822528 204 134 Z"/></g><g><path fill="none" stroke="#000000" paint-order="fill stroke markers" d=" M 204 134 C 204 114.1177472 239.81721600000003 98 284 98 C 328.18278399999997 98 364 114.1177472 364 134 C 364 153.8822528 328.18278399999997 170 284 170 C 239.81721600000003 170 204 153.8822528 204 134 Z" stroke-miterlimit="10" stroke-dasharray=""/></g><g><g><path fill="none" stroke="none"/><text fill="#000000" stroke="none" font-family="Arial" font-size="13px" font-style="normal" font-weight="bold" text-decoration="undefined" x="556" y="370.5" text-anchor="middle" dominant-baseline="central" transform="matrix(1 0 0 1 -272 -242)">UC141 - Invio</text><text fill="#000000" stroke="none" font-family="Arial" font-size="13px" font-style="normal" font-weight="bold" text-decoration="undefined" x="556" y="383.5" text-anchor="middle" dominant-baseline="central" transform="matrix(1 0 0 1 -272 -242)">dati crittografati</text></g></g><g><path fill="none" stroke="#000000" paint-order="fill stroke markers" d=" M 74 134 L 203 134" stroke-miterlimit="10" stroke-dasharray=""/></g><g><path fill="#C0C0C0" stroke="none" paint-order="stroke fill markers" d=" M 531 141 C 531 125.53602560000002 566.817216 113 611 113 C 655.182784 113 691 125.53602560000002 691 141 C 691 156.46397439999998 655.182784 169 611 169 C 566.817216 169 531 156.46397439999998 531 141 Z" fill-opacity="0.2"/></g><g><path fill="#ffffff" stroke="none" paint-order="stroke fill markers" d=" M 524 134 C 524 118.53602560000002 559.817216 106 604 106 C 648.182784 106 684 118.53602560000002 684 134 C 684 149.46397439999998 648.182784 162 604 162 C 559.817216 162 524 149.46397439999998 524 134 Z"/></g><g><path fill="none" stroke="#000000" paint-order="fill stroke markers" d=" M 524 134 C 524 118.53602560000002 559.817216 106 604 106 C 648.182784 106 684 118.53602560000002 684 134 C 684 149.46397439999998 648.182784 162 604 162 C 559.817216 162 524 149.46397439999998 524 134 Z" stroke-miterlimit="10" stroke-dasharray=""/></g><g><g><path fill="none" stroke="none"/><text fill="#000000" stroke="none" font-family="Arial" font-size="13px" font-style="normal" font-weight="bold" text-decoration="undefined" x="876" y="370.5" text-anchor="middle" dominant-baseline="central" transform="matrix(1 0 0 1 -272 -242)">UC142 - Invio</text><text fill="#000000" stroke="none" font-family="Arial" font-size="13px" font-style="normal" font-weight="bold" text-decoration="undefined" x="876" y="383.5" text-anchor="middle" dominant-baseline="central" transform="matrix(1 0 0 1 -272 -242)">dati fallito</text></g></g><g><path fill="none" stroke="#000000" paint-order="fill stroke markers" d=" M 523 134 L 365 134" stroke-miterlimit="10" stroke-dasharray="3"/></g><g><path fill="none" stroke="#000000" paint-order="fill stroke markers" d=" M 375.1626748576241 129.790482243984 L 365 134 L 375.1626748576241 138.209517756016" stroke-miterlimit="10" stroke-dasharray=""/></g><g><rect fill="#ffffff" stroke="none" x="692" y="356" width="53.49169921875" height="13" transform="matrix(1 0 0 1 -272 -242)"/></g><g><g><path fill="none" stroke="none"/><text fill="#000000" stroke="none" font-family="Arial" font-size="13px" font-style="normal" font-weight="normal" text-decoration="undefined" x="718.745849609375" y="362.5" text-anchor="middle" dominant-baseline="central" transform="matrix(1 0 0 1 -272 -242)">«extend»</text></g></g><g><path fill="#ffffff" stroke="none" paint-order="stroke fill markers" d=" M 380 186 L 489 186 L 499 196 L 499 257 L 380 257 L 380 186"/></g><g><path fill="none" stroke="#000000" paint-order="fill stroke markers" d=" M 380 186 L 489 186 L 499 196 L 499 257 L 380 257 L 380 186 L 380 186" stroke-miterlimit="10" stroke-dasharray=""/></g><g><path fill="none" stroke="#000000" paint-order="fill stroke markers" d=" M 489 186 L 489 196 L 499 196 L 489 186" stroke-miterlimit="10" stroke-dasharray=""/></g><g><g><path fill="none" stroke="none"/><text fill="#000000" stroke="none" font-family="Arial" font-size="13px" font-style="normal" font-weight="normal" text-decoration="undefined" x="657" y="433" text-anchor="start" dominant-baseline="text-before-edge" transform="matrix(1 0 0 1 -272 -242)">Condizione: il</text><text fill="#000000" stroke="none" font-family="Arial" font-size="13px" font-style="normal" font-weight="normal" text-decoration="undefined" x="657" y="446" text-anchor="start" dominant-baseline="text-before-edge" transform="matrix(1 0 0 1 -272 -242)">Sistema Cloud non</text><text fill="#000000" stroke="none" font-family="Arial" font-size="13px" font-style="normal" font-weight="normal" text-decoration="undefined" x="657" y="459" text-anchor="start" dominant-baseline="text-before-edge" transform="matrix(1 0 0 1 -272 -242)">è raggiungibile</text></g></g><g><path fill="none" stroke="#000000" paint-order="fill stroke markers" d=" M 434 185 L 428 146" stroke-miterlimit="10" stroke-dasharray="3"/></g></g></svg>