<svg version="1.1" xmlns="http://www.w3.org/2000/svg" xmlns:xlink="http://www.w3.org/1999/xlink" width="797" height="500"><defs/><g><g><rect fill="#C0C0C0" stroke="none" x="313" y="178" width="640" height="480" transform="matrix(1 0 0 1 -160 -161)" fill-opacity="0.2"/></g><g><rect fill="#ffffff" stroke="none" x="306" y="171" width="640" height="480" transform="matrix(1 0 0 1 -160 -161)"/></g><g><path fill="none" stroke="#000000" paint-order="fill stroke markers" d=" M 146 10 L 786 10 L 786 490 L 146 490 L 146 10 Z Z" stroke-miterlimit="10" stroke-dasharray=""/></g><g><g><path fill="none" stroke="none"/><text fill="#000000" stroke="none" font-family="Arial" font-size="13px" font-style="normal" font-weight="bold" text-decoration="undefined" x="626.5" y="184.5" text-anchor="middle" dominant-baseline="central" transform="matrix(1 0 0 1 -160 -161)">Sistema Cloud</text></g></g><g><path fill="#ffffff" stroke="none" paint-order="stroke fill markers" d=" M 36.857265625 131.85000000000002 C 36.857265625 126.96227952000004 40.815067992999985 123 45.697265625 123 C 50.579463257000015 123 54.537265625 126.96227952000004 54.537265625 131.85000000000002 C 54.537265625 136.73772048 50.579463257000015 140.7 45.697265625 140.7 C 40.815067992999985 140.7 36.857265625 136.73772048 36.857265625 131.85000000000002 Z"/></g><g><path fill="none" stroke="#000000" paint-order="fill stroke markers" d=" M 36.857265625 131.85000000000002 C 36.857265625 126.96227952000004 40.815067992999985 123 45.697265625 123 C 50.579463257000015 123 54.537265625 126.96227952000004 54.537265625 131.85000000000002 C 54.537265625 136.73772048 50.579463257000015 140.7 45.697265625 140.7 C 40.815067992999985 140.7 36.857265625 136.73772048 36.857265625 131.85000000000002 Z" stroke-miterlimit="10" stroke-dasharray=""/></g><g><path fill="none" stroke="#000000" paint-order="fill stroke markers" d=" M 45.697265625 140.7 L 45.697265625 158.3" stroke-miterlimit="10" stroke-dasharray=""/></g><g><path fill="none" stroke="#000000" paint-order="fill stroke markers" d=" M 36.337265624999986 147.3 L 55.057265625000014 147.3" stroke-miterlimit="10" stroke-dasharray=""/></g><g><path fill="none" stroke="#000000" paint-order="fill stroke markers" d=" M 45.697265625 158.3 L 32.697265625 176" stroke-miterlimit="10" stroke-dasharray=""/></g><g><path fill="none" stroke="#000000" paint-order="fill stroke markers" d=" M 45.697265625 158.3 L 58.697265625 176" stroke-miterlimit="10" stroke-dasharray=""/></g><g><g><path fill="none" stroke="none"/><text fill="#000000" stroke="none" font-family="Arial" font-size="13px" font-style="normal" font-weight="bold" text-decoration="undefined" x="206.197265625" y="351.5" text-anchor="middle" dominant-baseline="central" transform="matrix(1 0 0 1 -160 -161)">API Client</text></g></g><g><path fill="#C0C0C0" stroke="none" paint-order="stroke fill markers" d=" M 193 171.5 C 193 152.44617440000002 241.3532416 137 301 137 C 360.64675839999995 137 409 152.44617440000002 409 171.5 C 409 190.55382559999998 360.64675839999995 206 301 206 C 241.3532416 206 193 190.55382559999998 193 171.5 Z" fill-opacity="0.2"/></g><g><path fill="#ffffff" stroke="none" paint-order="stroke fill markers" d=" M 186 164.5 C 186 145.44617440000002 234.3532416 130 294 130 C 353.64675839999995 130 402 145.44617440000002 402 164.5 C 402 183.55382559999998 353.64675839999995 199 294 199 C 234.3532416 199 186 183.55382559999998 186 164.5 Z"/></g><g><path fill="none" stroke="#000000" paint-order="fill stroke markers" d=" M 186 164.5 C 186 145.44617440000002 234.3532416 130 294 130 C 353.64675839999995 130 402 145.44617440000002 402 164.5 C 402 183.55382559999998 353.64675839999995 199 294 199 C 234.3532416 199 186 183.55382559999998 186 164.5 Z" stroke-miterlimit="10" stroke-dasharray=""/></g><g><g><path fill="none" stroke="none"/><text fill="#000000" stroke="none" font-family="Arial" font-size="13px" font-style="normal" font-weight="bold" text-decoration="undefined" x="454" y="320" text-anchor="middle" dominant-baseline="central" transform="matrix(1 0 0 1 -160 -161)">UC145 - Richiesta</text><text fill="#000000" stroke="none" font-family="Arial" font-size="13px" font-style="normal" font-weight="bold" text-decoration="undefined" x="454" y="333" text-anchor="middle" dominant-baseline="central" transform="matrix(1 0 0 1 -160 -161)">storico dati sensore</text></g></g><g><path fill="#C0C0C0" stroke="none" paint-order="stroke fill markers" d=" M 561 130 C 561 107.35632320000002 609.3532416 89 669 89 C 728.6467584 89 777 107.35632320000002 777 130 C 777 152.64367679999998 728.6467584 171 669 171 C 609.3532416 171 561 152.64367679999998 561 130 Z" fill-opacity="0.2"/></g><g><path fill="#ffffff" stroke="none" paint-order="stroke fill markers" d=" M 554 123 C 554 100.35632320000002 602.3532416 82 662 82 C 721.6467584 82 770 100.35632320000002 770 123 C 770 145.64367679999998 721.6467584 164 662 164 C 602.3532416 164 554 145.64367679999998 554 123 Z"/></g><g><path fill="none" stroke="#000000" paint-order="fill stroke markers" d=" M 554 123 C 554 100.35632320000002 602.3532416 82 662 82 C 721.6467584 82 770 100.35632320000002 770 123 C 770 145.64367679999998 721.6467584 164 662 164 C 602.3532416 164 554 145.64367679999998 554 123 Z" stroke-miterlimit="10" stroke-dasharray=""/></g><g><g><path fill="none" stroke="none"/><text fill="#000000" stroke="none" font-family="Arial" font-size="13px" font-style="normal" font-weight="bold" text-decoration="undefined" x="822" y="278.5" text-anchor="middle" dominant-baseline="central" transform="matrix(1 0 0 1 -160 -161)">UC145.1 - Ricezione</text><text fill="#000000" stroke="none" font-family="Arial" font-size="13px" font-style="normal" font-weight="bold" text-decoration="undefined" x="822" y="291.5" text-anchor="middle" dominant-baseline="central" transform="matrix(1 0 0 1 -160 -161)">storico dati sensore</text></g></g><g><path fill="none" stroke="#000000" paint-order="fill stroke markers" d=" M 403 152 L 553 135" stroke-miterlimit="10" stroke-dasharray="3"/></g><g><path fill="none" stroke="#000000" paint-order="fill stroke markers" d=" M 543.376013992321 140.32718437112868 L 553 135 L 542.4279260384696 131.96170242538176" stroke-miterlimit="10" stroke-dasharray=""/></g><g><rect fill="#ffffff" stroke="none" x="607" y="268" width="55.65625" height="13" transform="matrix(1 0 0 1 -160 -161)"/></g><g><g><path fill="none" stroke="none"/><text fill="#000000" stroke="none" font-family="Arial" font-size="13px" font-style="normal" font-weight="normal" text-decoration="undefined" x="634.828125" y="274.5" text-anchor="middle" dominant-baseline="central" transform="matrix(1 0 0 1 -160 -161)">«include»</text></g></g><g><path fill="#C0C0C0" stroke="none" paint-order="stroke fill markers" d=" M 561 253 C 561 233.1177472 602.1897984 217 653 217 C 703.8102016 217 745 233.1177472 745 253 C 745 272.8822528 703.8102016 289 653 289 C 602.1897984 289 561 272.8822528 561 253 Z" fill-opacity="0.2"/></g><g><path fill="#ffffff" stroke="none" paint-order="stroke fill markers" d=" M 554 246 C 554 226.1177472 595.1897984 210 646 210 C 696.8102016 210 738 226.1177472 738 246 C 738 265.8822528 696.8102016 282 646 282 C 595.1897984 282 554 265.8822528 554 246 Z"/></g><g><path fill="none" stroke="#000000" paint-order="fill stroke markers" d=" M 554 246 C 554 226.1177472 595.1897984 210 646 210 C 696.8102016 210 738 226.1177472 738 246 C 738 265.8822528 696.8102016 282 646 282 C 595.1897984 282 554 265.8822528 554 246 Z" stroke-miterlimit="10" stroke-dasharray=""/></g><g><g><path fill="none" stroke="none"/><text fill="#000000" stroke="none" font-family="Arial" font-size="13px" font-style="normal" font-weight="bold" text-decoration="undefined" x="806" y="401.5" text-anchor="middle" dominant-baseline="central" transform="matrix(1 0 0 1 -160 -161)">UC146 - Sensore</text><text fill="#000000" stroke="none" font-family="Arial" font-size="13px" font-style="normal" font-weight="bold" text-decoration="undefined" x="806" y="414.5" text-anchor="middle" dominant-baseline="central" transform="matrix(1 0 0 1 -160 -161)">non trovato</text></g></g><g><path fill="none" stroke="#000000" paint-order="fill stroke markers" d=" M 553 224 L 403 189" stroke-miterlimit="10" stroke-dasharray="3"/></g><g><path fill="none" stroke="#000000" paint-order="fill stroke markers" d=" M 413.8533586791491 187.20985883748278 L 403 189 L 411.94030447597333 195.40866256537913" stroke-miterlimit="10" stroke-dasharray=""/></g><g><rect fill="#ffffff" stroke="none" x="615" y="385" width="53.49169921875" height="13" transform="matrix(1 0 0 1 -160 -161)"/></g><g><g><path fill="none" stroke="none"/><text fill="#000000" stroke="none" font-family="Arial" font-size="13px" font-style="normal" font-weight="normal" text-decoration="undefined" x="641.745849609375" y="391.5" text-anchor="middle" dominant-baseline="central" transform="matrix(1 0 0 1 -160 -161)">«extend»</text></g></g><g><path fill="#C0C0C0" stroke="none" paint-order="stroke fill markers" d=" M 433 373 C 433 353.11774720000005 486.725824 337 553 337 C 619.274176 337 673 353.11774720000005 673 373 C 673 392.88225279999995 619.274176 409 553 409 C 486.725824 409 433 392.88225279999995 433 373 Z" fill-opacity="0.2"/></g><g><path fill="#ffffff" stroke="none" paint-order="stroke fill markers" d=" M 426 366 C 426 346.1177472 479.725824 330 546 330 C 612.274176 330 666 346.1177472 666 366 C 666 385.88225279999995 612.274176 402 546 402 C 479.725824 402 426 385.88225279999995 426 366 Z"/></g><g><path fill="none" stroke="#000000" paint-order="fill stroke markers" d=" M 426 366 C 426 346.1177472 479.725824 330 546 330 C 612.274176 330 666 346.1177472 666 366 C 666 385.88225279999995 612.274176 402 546 402 C 479.725824 402 426 385.88225279999995 426 366 Z" stroke-miterlimit="10" stroke-dasharray=""/></g><g><g><path fill="none" stroke="none"/><text fill="#000000" stroke="none" font-family="Arial" font-size="13px" font-style="normal" font-weight="bold" text-decoration="undefined" x="706" y="515" text-anchor="middle" dominant-baseline="central" transform="matrix(1 0 0 1 -160 -161)">UC147 - Nessun dato</text><text fill="#000000" stroke="none" font-family="Arial" font-size="13px" font-style="normal" font-weight="bold" text-decoration="undefined" x="706" y="528" text-anchor="middle" dominant-baseline="central" transform="matrix(1 0 0 1 -160 -161)">disponibile per il sensore</text><text fill="#000000" stroke="none" font-family="Arial" font-size="13px" font-style="normal" font-weight="bold" text-decoration="undefined" x="706" y="541" text-anchor="middle" dominant-baseline="central" transform="matrix(1 0 0 1 -160 -161)">richiesto</text></g></g><g><path fill="none" stroke="#000000" paint-order="fill stroke markers" d=" M 500 329 L 339 200" stroke-miterlimit="10" stroke-dasharray="3"/></g><g><path fill="none" stroke="#000000" paint-order="fill stroke markers" d=" M 349.56306012896727 203.06948867269807 L 339 200 L 344.2987551920339 209.6396677025141" stroke-miterlimit="10" stroke-dasharray=""/></g><g><rect fill="#ffffff" stroke="none" x="534" y="442" width="53.49169921875" height="13" transform="matrix(1 0 0 1 -160 -161)"/></g><g><g><path fill="none" stroke="none"/><text fill="#000000" stroke="none" font-family="Arial" font-size="13px" font-style="normal" font-weight="normal" text-decoration="undefined" x="560.745849609375" y="448.5" text-anchor="middle" dominant-baseline="central" transform="matrix(1 0 0 1 -160 -161)">«extend»</text></g></g><g><path fill="#C0C0C0" stroke="none" paint-order="stroke fill markers" d=" M 177 389 C 177 369.11774720000005 223.56238080000003 353 281 353 C 338.4376192 353 385 369.11774720000005 385 389 C 385 408.88225279999995 338.4376192 425 281 425 C 223.56238080000003 425 177 408.88225279999995 177 389 Z" fill-opacity="0.2"/></g><g><path fill="#ffffff" stroke="none" paint-order="stroke fill markers" d=" M 170 382 C 170 362.11774720000005 216.56238080000003 346 274 346 C 331.4376192 346 378 362.11774720000005 378 382 C 378 401.88225279999995 331.4376192 418 274 418 C 216.56238080000003 418 170 401.88225279999995 170 382 Z"/></g><g><path fill="none" stroke="#000000" paint-order="fill stroke markers" d=" M 170 382 C 170 362.11774720000005 216.56238080000003 346 274 346 C 331.4376192 346 378 362.11774720000005 378 382 C 378 401.88225279999995 331.4376192 418 274 418 C 216.56238080000003 418 170 401.88225279999995 170 382 Z" stroke-miterlimit="10" stroke-dasharray=""/></g><g><g><path fill="none" stroke="none"/><text fill="#000000" stroke="none" font-family="Arial" font-size="13px" font-style="normal" font-weight="bold" text-decoration="undefined" x="434" y="531" text-anchor="middle" dominant-baseline="central" transform="matrix(1 0 0 1 -160 -161)">UC148 - Sensore non</text><text fill="#000000" stroke="none" font-family="Arial" font-size="13px" font-style="normal" font-weight="bold" text-decoration="undefined" x="434" y="544" text-anchor="middle" dominant-baseline="central" transform="matrix(1 0 0 1 -160 -161)">associato al tenant</text><text fill="#000000" stroke="none" font-family="Arial" font-size="13px" font-style="normal" font-weight="bold" text-decoration="undefined" x="434" y="557" text-anchor="middle" dominant-baseline="central" transform="matrix(1 0 0 1 -160 -161)">del API Client</text></g></g><g><path fill="none" stroke="#000000" paint-order="fill stroke markers" d=" M 277 345 L 291 200" stroke-miterlimit="10" stroke-dasharray="3"/></g><g><path fill="none" stroke="#000000" paint-order="fill stroke markers" d=" M 294.21335091467813 210.520188966893 L 291 200 L 285.8332852642469 209.71107917995482" stroke-miterlimit="10" stroke-dasharray=""/></g><g><rect fill="#ffffff" stroke="none" x="388" y="424" width="53.49169921875" height="13" transform="matrix(1 0 0 1 -160 -161)"/></g><g><g><path fill="none" stroke="none"/><text fill="#000000" stroke="none" font-family="Arial" font-size="13px" font-style="normal" font-weight="normal" text-decoration="undefined" x="414.745849609375" y="430.5" text-anchor="middle" dominant-baseline="central" transform="matrix(1 0 0 1 -160 -161)">«extend»</text></g></g><g><path fill="none" stroke="#000000" paint-order="fill stroke markers" d=" M 82 162 L 185 163" stroke-miterlimit="10" stroke-dasharray=""/></g></g></svg>