<svg version="1.1" xmlns="http://www.w3.org/2000/svg" xmlns:xlink="http://www.w3.org/1999/xlink" width="741" height="500"><defs/><g><g><rect fill="#C0C0C0" stroke="none" x="325" y="178" width="600" height="480" transform="matrix(1 0 0 1 -188 -161)" fill-opacity="0.2"/></g><g><rect fill="#ffffff" stroke="none" x="318" y="171" width="600" height="480" transform="matrix(1 0 0 1 -188 -161)"/></g><g><path fill="none" stroke="#000000" paint-order="fill stroke markers" d=" M 130 10 L 730 10 L 730 490 L 130 490 L 130 10 Z Z" stroke-miterlimit="10" stroke-dasharray=""/></g><g><g><path fill="none" stroke="none"/><text fill="#000000" stroke="none" font-family="Arial" font-size="13px" font-style="normal" font-weight="bold" text-decoration="undefined" x="618.5" y="184.5" text-anchor="middle" dominant-baseline="central" transform="matrix(1 0 0 1 -188 -161)">Sistema Cloud</text></g></g><g><path fill="#ffffff" stroke="none" paint-order="stroke fill markers" d=" M 36.857265625 123.85000000000002 C 36.857265625 118.96227952000004 40.815067992999985 115 45.697265625 115 C 50.579463257000015 115 54.537265625 118.96227952000004 54.537265625 123.85000000000002 C 54.537265625 128.73772048 50.579463257000015 132.7 45.697265625 132.7 C 40.815067992999985 132.7 36.857265625 128.73772048 36.857265625 123.85000000000002 Z"/></g><g><path fill="none" stroke="#000000" paint-order="fill stroke markers" d=" M 36.857265625 123.85000000000002 C 36.857265625 118.96227952000004 40.815067992999985 115 45.697265625 115 C 50.579463257000015 115 54.537265625 118.96227952000004 54.537265625 123.85000000000002 C 54.537265625 128.73772048 50.579463257000015 132.7 45.697265625 132.7 C 40.815067992999985 132.7 36.857265625 128.73772048 36.857265625 123.85000000000002 Z" stroke-miterlimit="10" stroke-dasharray=""/></g><g><path fill="none" stroke="#000000" paint-order="fill stroke markers" d=" M 45.697265625 132.7 L 45.697265625 150.3" stroke-miterlimit="10" stroke-dasharray=""/></g><g><path fill="none" stroke="#000000" paint-order="fill stroke markers" d=" M 36.337265624999986 139.3 L 55.057265625000014 139.3" stroke-miterlimit="10" stroke-dasharray=""/></g><g><path fill="none" stroke="#000000" paint-order="fill stroke markers" d=" M 45.697265625 150.3 L 32.697265625 168" stroke-miterlimit="10" stroke-dasharray=""/></g><g><path fill="none" stroke="#000000" paint-order="fill stroke markers" d=" M 45.697265625 150.3 L 58.697265625 168" stroke-miterlimit="10" stroke-dasharray=""/></g><g><g><path fill="none" stroke="none"/><text fill="#000000" stroke="none" font-family="Arial" font-size="13px" font-style="normal" font-weight="bold" text-decoration="undefined" x="234.197265625" y="343.5" text-anchor="middle" dominant-baseline="central" transform="matrix(1 0 0 1 -188 -161)">API Client</text></g></g><g><path fill="#C0C0C0" stroke="none" paint-order="stroke fill markers" d=" M 193 165 C 193 145.1177472 237.77152 129 293 129 C 348.22848 129 393 145.1177472 393 165 C 393 184.8822528 348.22848 201 293 201 C 237.77152 201 193 184.8822528 193 165 Z" fill-opacity="0.2"/></g><g><path fill="#ffffff" stroke="none" paint-order="stroke fill markers" d=" M 186 158 C 186 138.1177472 230.77152 122 286 122 C 341.22848 122 386 138.1177472 386 158 C 386 177.8822528 341.22848 194 286 194 C 230.77152 194 186 177.8822528 186 158 Z"/></g><g><path fill="none" stroke="#000000" paint-order="fill stroke markers" d=" M 186 158 C 186 138.1177472 230.77152 122 286 122 C 341.22848 122 386 138.1177472 386 158 C 386 177.8822528 341.22848 194 286 194 C 230.77152 194 186 177.8822528 186 158 Z" stroke-miterlimit="10" stroke-dasharray=""/></g><g><g><path fill="none" stroke="none"/><text fill="#000000" stroke="none" font-family="Arial" font-size="13px" font-style="normal" font-weight="bold" text-decoration="undefined" x="474" y="307" text-anchor="middle" dominant-baseline="central" transform="matrix(1 0 0 1 -188 -161)">UC144 - Richiesta</text><text fill="#000000" stroke="none" font-family="Arial" font-size="13px" font-style="normal" font-weight="bold" text-decoration="undefined" x="474" y="320" text-anchor="middle" dominant-baseline="central" transform="matrix(1 0 0 1 -188 -161)">dati real-time</text><text fill="#000000" stroke="none" font-family="Arial" font-size="13px" font-style="normal" font-weight="bold" text-decoration="undefined" x="474" y="333" text-anchor="middle" dominant-baseline="central" transform="matrix(1 0 0 1 -188 -161)">sensore</text></g></g><g><path fill="#C0C0C0" stroke="none" paint-order="stroke fill markers" d=" M 497 83.5 C 497 68.86445280000001 543.5623808 57 601 57 C 658.4376192 57 705 68.86445280000001 705 83.5 C 705 98.13554720000002 658.4376192 110 601 110 C 543.5623808 110 497 98.13554720000002 497 83.5 Z" fill-opacity="0.2"/></g><g><path fill="#ffffff" stroke="none" paint-order="stroke fill markers" d=" M 490 76.5 C 490 61.86445280000001 536.5623808 50 594 50 C 651.4376192 50 698 61.86445280000001 698 76.5 C 698 91.13554719999999 651.4376192 103 594 103 C 536.5623808 103 490 91.13554719999999 490 76.5 Z"/></g><g><path fill="none" stroke="#000000" paint-order="fill stroke markers" d=" M 490 76.5 C 490 61.86445280000001 536.5623808 50 594 50 C 651.4376192 50 698 61.86445280000001 698 76.5 C 698 91.13554719999999 651.4376192 103 594 103 C 536.5623808 103 490 91.13554719999999 490 76.5 Z" stroke-miterlimit="10" stroke-dasharray=""/></g><g><g><path fill="none" stroke="none"/><text fill="#000000" stroke="none" font-family="Arial" font-size="13px" font-style="normal" font-weight="bold" text-decoration="undefined" x="782" y="232" text-anchor="middle" dominant-baseline="central" transform="matrix(1 0 0 1 -188 -161)">UC144.1 - Ricezione</text><text fill="#000000" stroke="none" font-family="Arial" font-size="13px" font-style="normal" font-weight="bold" text-decoration="undefined" x="782" y="245" text-anchor="middle" dominant-baseline="central" transform="matrix(1 0 0 1 -188 -161)">dati real-time sensore</text></g></g><g><path fill="none" stroke="#000000" paint-order="fill stroke markers" d=" M 387 131 L 489 104" stroke-miterlimit="10" stroke-dasharray="3"/></g><g><path fill="none" stroke="#000000" paint-order="fill stroke markers" d=" M 480.2528733623618 110.6699157104959 L 489 104 L 478.09850480979424 102.53119006746283" stroke-miterlimit="10" stroke-dasharray=""/></g><g><rect fill="#ffffff" stroke="none" x="590" y="250" width="55.65625" height="13" transform="matrix(1 0 0 1 -188 -161)"/></g><g><g><path fill="none" stroke="none"/><text fill="#000000" stroke="none" font-family="Arial" font-size="13px" font-style="normal" font-weight="normal" text-decoration="undefined" x="617.828125" y="256.5" text-anchor="middle" dominant-baseline="central" transform="matrix(1 0 0 1 -188 -161)">«include»</text></g></g><g><path fill="#C0C0C0" stroke="none" paint-order="stroke fill markers" d=" M 537 261 C 537 241.1177472 578.1897984 225 629 225 C 679.8102016 225 721 241.1177472 721 261 C 721 280.8822528 679.8102016 297 629 297 C 578.1897984 297 537 280.8822528 537 261 Z" fill-opacity="0.2"/></g><g><path fill="#ffffff" stroke="none" paint-order="stroke fill markers" d=" M 530 254 C 530 234.1177472 571.1897984 218 622 218 C 672.8102016 218 714 234.1177472 714 254 C 714 273.8822528 672.8102016 290 622 290 C 571.1897984 290 530 273.8822528 530 254 Z"/></g><g><path fill="none" stroke="#000000" paint-order="fill stroke markers" d=" M 530 254 C 530 234.1177472 571.1897984 218 622 218 C 672.8102016 218 714 234.1177472 714 254 C 714 273.8822528 672.8102016 290 622 290 C 571.1897984 290 530 273.8822528 530 254 Z" stroke-miterlimit="10" stroke-dasharray=""/></g><g><g><path fill="none" stroke="none"/><text fill="#000000" stroke="none" font-family="Arial" font-size="13px" font-style="normal" font-weight="bold" text-decoration="undefined" x="810" y="409.5" text-anchor="middle" dominant-baseline="central" transform="matrix(1 0 0 1 -188 -161)">UC146 - Sensore</text><text fill="#000000" stroke="none" font-family="Arial" font-size="13px" font-style="normal" font-weight="bold" text-decoration="undefined" x="810" y="422.5" text-anchor="middle" dominant-baseline="central" transform="matrix(1 0 0 1 -188 -161)">non trovato</text></g></g><g><path fill="none" stroke="#000000" paint-order="fill stroke markers" d=" M 529 227 L 387 187" stroke-miterlimit="10" stroke-dasharray="3"/></g><g><path fill="none" stroke="#000000" paint-order="fill stroke markers" d=" M 397.92334641562366 185.70365780586997 L 387 187 L 395.64062467994484 193.80731996752962" stroke-miterlimit="10" stroke-dasharray=""/></g><g><rect fill="#ffffff" stroke="none" x="622" y="386" width="53.49169921875" height="13" transform="matrix(1 0 0 1 -188 -161)"/></g><g><g><path fill="none" stroke="none"/><text fill="#000000" stroke="none" font-family="Arial" font-size="13px" font-style="normal" font-weight="normal" text-decoration="undefined" x="648.745849609375" y="392.5" text-anchor="middle" dominant-baseline="central" transform="matrix(1 0 0 1 -188 -161)">«extend»</text></g></g><g><path fill="#C0C0C0" stroke="none" paint-order="stroke fill markers" d=" M 441 389 C 441 369.11774720000005 494.725824 353 561 353 C 627.274176 353 681 369.11774720000005 681 389 C 681 408.88225279999995 627.274176 425 561 425 C 494.725824 425 441 408.88225279999995 441 389 Z" fill-opacity="0.2"/></g><g><path fill="#ffffff" stroke="none" paint-order="stroke fill markers" d=" M 434 382 C 434 362.11774720000005 487.725824 346 554 346 C 620.274176 346 674 362.11774720000005 674 382 C 674 401.88225279999995 620.274176 418 554 418 C 487.725824 418 434 401.88225279999995 434 382 Z"/></g><g><path fill="none" stroke="#000000" paint-order="fill stroke markers" d=" M 434 382 C 434 362.11774720000005 487.725824 346 554 346 C 620.274176 346 674 362.11774720000005 674 382 C 674 401.88225279999995 620.274176 418 554 418 C 487.725824 418 434 401.88225279999995 434 382 Z" stroke-miterlimit="10" stroke-dasharray=""/></g><g><g><path fill="none" stroke="none"/><text fill="#000000" stroke="none" font-family="Arial" font-size="13px" font-style="normal" font-weight="bold" text-decoration="undefined" x="742" y="531" text-anchor="middle" dominant-baseline="central" transform="matrix(1 0 0 1 -188 -161)">UC147 - Nessun dato</text><text fill="#000000" stroke="none" font-family="Arial" font-size="13px" font-style="normal" font-weight="bold" text-decoration="undefined" x="742" y="544" text-anchor="middle" dominant-baseline="central" transform="matrix(1 0 0 1 -188 -161)">disponibile per il sensore</text><text fill="#000000" stroke="none" font-family="Arial" font-size="13px" font-style="normal" font-weight="bold" text-decoration="undefined" x="742" y="557" text-anchor="middle" dominant-baseline="central" transform="matrix(1 0 0 1 -188 -161)">richiesto</text></g></g><g><path fill="none" stroke="#000000" paint-order="fill stroke markers" d=" M 510 345 L 330 195" stroke-miterlimit="10" stroke-dasharray="3"/></g><g><path fill="none" stroke="#000000" paint-order="fill stroke markers" d=" M 340.5020506807682 198.27214478569897 L 330 195 L 335.11231548574403 204.7398270197279" stroke-miterlimit="10" stroke-dasharray=""/></g><g><rect fill="#ffffff" stroke="none" x="562" y="448" width="53.49169921875" height="13" transform="matrix(1 0 0 1 -188 -161)"/></g><g><g><path fill="none" stroke="none"/><text fill="#000000" stroke="none" font-family="Arial" font-size="13px" font-style="normal" font-weight="normal" text-decoration="undefined" x="588.745849609375" y="454.5" text-anchor="middle" dominant-baseline="central" transform="matrix(1 0 0 1 -188 -161)">«extend»</text></g></g><g><path fill="#C0C0C0" stroke="none" paint-order="stroke fill markers" d=" M 193 429 C 193 409.11774720000005 239.56238080000003 393 297 393 C 354.4376192 393 401 409.11774720000005 401 429 C 401 448.88225279999995 354.4376192 465 297 465 C 239.56238080000003 465 193 448.88225279999995 193 429 Z" fill-opacity="0.2"/></g><g><path fill="#ffffff" stroke="none" paint-order="stroke fill markers" d=" M 186 422 C 186 402.11774720000005 232.56238080000003 386 290 386 C 347.4376192 386 394 402.11774720000005 394 422 C 394 441.88225279999995 347.4376192 458 290 458 C 232.56238080000003 458 186 441.88225279999995 186 422 Z"/></g><g><path fill="none" stroke="#000000" paint-order="fill stroke markers" d=" M 186 422 C 186 402.11774720000005 232.56238080000003 386 290 386 C 347.4376192 386 394 402.11774720000005 394 422 C 394 441.88225279999995 347.4376192 458 290 458 C 232.56238080000003 458 186 441.88225279999995 186 422 Z" stroke-miterlimit="10" stroke-dasharray=""/></g><g><g><path fill="none" stroke="none"/><text fill="#000000" stroke="none" font-family="Arial" font-size="13px" font-style="normal" font-weight="bold" text-decoration="undefined" x="478" y="571" text-anchor="middle" dominant-baseline="central" transform="matrix(1 0 0 1 -188 -161)">UC148 - Sensore non</text><text fill="#000000" stroke="none" font-family="Arial" font-size="13px" font-style="normal" font-weight="bold" text-decoration="undefined" x="478" y="584" text-anchor="middle" dominant-baseline="central" transform="matrix(1 0 0 1 -188 -161)">associato al tenant</text><text fill="#000000" stroke="none" font-family="Arial" font-size="13px" font-style="normal" font-weight="bold" text-decoration="undefined" x="478" y="597" text-anchor="middle" dominant-baseline="central" transform="matrix(1 0 0 1 -188 -161)">del API Client</text></g></g><g><path fill="none" stroke="#000000" paint-order="fill stroke markers" d=" M 289 385 L 287 195" stroke-miterlimit="10" stroke-dasharray="3"/></g><g><path fill="none" stroke="#000000" paint-order="fill stroke markers" d=" M 291.31625415980244 205.1178036167929 L 287 195 L 282.8976850375729 205.20642013386902" stroke-miterlimit="10" stroke-dasharray=""/></g><g><rect fill="#ffffff" stroke="none" x="420" y="445" width="53.49169921875" height="13" transform="matrix(1 0 0 1 -188 -161)"/></g><g><g><path fill="none" stroke="none"/><text fill="#000000" stroke="none" font-family="Arial" font-size="13px" font-style="normal" font-weight="normal" text-decoration="undefined" x="446.745849609375" y="451.5" text-anchor="middle" dominant-baseline="central" transform="matrix(1 0 0 1 -188 -161)">«extend»</text></g></g><g><path fill="none" stroke="#000000" paint-order="fill stroke markers" d=" M 82 155 L 185 156" stroke-miterlimit="10" stroke-dasharray=""/></g></g></svg>