<svg version="1.1" xmlns="http://www.w3.org/2000/svg" xmlns:xlink="http://www.w3.org/1999/xlink" width="789" height="348"><defs/><g><g><rect fill="#C0C0C0" stroke="none" x="309" y="254" width="640" height="328" transform="matrix(1 0 0 1 -164 -237)" fill-opacity="0.2"/></g><g><rect fill="#ffffff" stroke="none" x="302" y="247" width="640" height="328" transform="matrix(1 0 0 1 -164 -237)"/></g><g><path fill="none" stroke="#000000" paint-order="fill stroke markers" d=" M 138 10 L 778 10 L 778 338 L 138 338 L 138 10 Z Z" stroke-miterlimit="10" stroke-dasharray=""/></g><g><g><path fill="none" stroke="none"/><text fill="#000000" stroke="none" font-family="Arial" font-size="13px" font-style="normal" font-weight="bold" text-decoration="undefined" x="622.5" y="260.5" text-anchor="middle" dominant-baseline="central" transform="matrix(1 0 0 1 -164 -237)">Sistema Cloud</text></g></g><g><path fill="#ffffff" stroke="none" paint-order="stroke fill markers" d=" M 36.857265625 99.85000000000002 C 36.857265625 94.96227952000004 40.815067992999985 91 45.697265625 91 C 50.579463257000015 91 54.537265625 94.96227952000004 54.537265625 99.85000000000002 C 54.537265625 104.73772048000001 50.579463257000015 108.69999999999999 45.697265625 108.69999999999999 C 40.815067992999985 108.69999999999999 36.857265625 104.73772048000001 36.857265625 99.85000000000002 Z"/></g><g><path fill="none" stroke="#000000" paint-order="fill stroke markers" d=" M 36.857265625 99.85000000000002 C 36.857265625 94.96227952000004 40.815067992999985 91 45.697265625 91 C 50.579463257000015 91 54.537265625 94.96227952000004 54.537265625 99.85000000000002 C 54.537265625 104.73772048000001 50.579463257000015 108.69999999999999 45.697265625 108.69999999999999 C 40.815067992999985 108.69999999999999 36.857265625 104.73772048000001 36.857265625 99.85000000000002 Z" stroke-miterlimit="10" stroke-dasharray=""/></g><g><path fill="none" stroke="#000000" paint-order="fill stroke markers" d=" M 45.697265625 108.69999999999999 L 45.697265625 126.30000000000001" stroke-miterlimit="10" stroke-dasharray=""/></g><g><path fill="none" stroke="#000000" paint-order="fill stroke markers" d=" M 36.337265624999986 115.30000000000001 L 55.057265625000014 115.30000000000001" stroke-miterlimit="10" stroke-dasharray=""/></g><g><path fill="none" stroke="#000000" paint-order="fill stroke markers" d=" M 45.697265625 126.30000000000001 L 32.697265625 144" stroke-miterlimit="10" stroke-dasharray=""/></g><g><path fill="none" stroke="#000000" paint-order="fill stroke markers" d=" M 45.697265625 126.30000000000001 L 58.697265625 144" stroke-miterlimit="10" stroke-dasharray=""/></g><g><g><path fill="none" stroke="none"/><text fill="#000000" stroke="none" font-family="Arial" font-size="13px" font-style="normal" font-weight="bold" text-decoration="undefined" x="210.197265625" y="395.5" text-anchor="middle" dominant-baseline="central" transform="matrix(1 0 0 1 -164 -237)">API Client</text></g></g><g><path fill="#C0C0C0" stroke="none" paint-order="stroke fill markers" d=" M 161 131.5 C 161 116.86445279999998 214.725824 105 281 105 C 347.274176 105 401 116.86445279999998 401 131.5 C 401 146.13554720000002 347.274176 158 281 158 C 214.725824 158 161 146.13554720000002 161 131.5 Z" fill-opacity="0.2"/></g><g><path fill="#ffffff" stroke="none" paint-order="stroke fill markers" d=" M 154 124.5 C 154 109.86445279999998 207.725824 98 274 98 C 340.274176 98 394 109.86445279999998 394 124.5 C 394 139.13554720000002 340.274176 151 274 151 C 207.725824 151 154 139.13554720000002 154 124.5 Z"/></g><g><path fill="none" stroke="#000000" paint-order="fill stroke markers" d=" M 154 124.5 C 154 109.86445279999998 207.725824 98 274 98 C 340.274176 98 394 109.86445279999998 394 124.5 C 394 139.13554720000002 340.274176 151 274 151 C 207.725824 151 154 139.13554720000002 154 124.5 Z" stroke-miterlimit="10" stroke-dasharray=""/></g><g><g><path fill="none" stroke="none"/><text fill="#000000" stroke="none" font-family="Arial" font-size="13px" font-style="normal" font-weight="bold" text-decoration="undefined" x="438" y="356" text-anchor="middle" dominant-baseline="central" transform="matrix(1 0 0 1 -164 -237)">UC149 - Autenticazione</text><text fill="#000000" stroke="none" font-family="Arial" font-size="13px" font-style="normal" font-weight="bold" text-decoration="undefined" x="438" y="369" text-anchor="middle" dominant-baseline="central" transform="matrix(1 0 0 1 -164 -237)">API Client</text></g></g><g><path fill="#C0C0C0" stroke="none" paint-order="stroke fill markers" d=" M 273 259.5 C 273 244.86445279999998 315.9806592 233 369 233 C 422.0193408 233 465 244.86445279999998 465 259.5 C 465 274.1355472 422.0193408 286 369 286 C 315.9806592 286 273 274.1355472 273 259.5 Z" fill-opacity="0.2"/></g><g><path fill="#ffffff" stroke="none" paint-order="stroke fill markers" d=" M 266 252.5 C 266 237.86445279999998 308.9806592 226 362 226 C 415.0193408 226 458 237.86445279999998 458 252.5 C 458 267.1355472 415.0193408 279 362 279 C 308.9806592 279 266 267.1355472 266 252.5 Z"/></g><g><path fill="none" stroke="#000000" paint-order="fill stroke markers" d=" M 266 252.5 C 266 237.86445279999998 308.9806592 226 362 226 C 415.0193408 226 458 237.86445279999998 458 252.5 C 458 267.1355472 415.0193408 279 362 279 C 308.9806592 279 266 267.1355472 266 252.5 Z" stroke-miterlimit="10" stroke-dasharray=""/></g><g><g><path fill="none" stroke="none"/><text fill="#000000" stroke="none" font-family="Arial" font-size="13px" font-style="normal" font-weight="bold" text-decoration="undefined" x="526" y="484" text-anchor="middle" dominant-baseline="central" transform="matrix(1 0 0 1 -164 -237)">UC150 - Credenziali</text><text fill="#000000" stroke="none" font-family="Arial" font-size="13px" font-style="normal" font-weight="bold" text-decoration="undefined" x="526" y="497" text-anchor="middle" dominant-baseline="central" transform="matrix(1 0 0 1 -164 -237)">API Client errate</text></g></g><g><path fill="none" stroke="#000000" paint-order="fill stroke markers" d=" M 343 225 L 293 152" stroke-miterlimit="10" stroke-dasharray="3"/></g><g><path fill="none" stroke="#000000" paint-order="fill stroke markers" d=" M 302.2157940472941 158.00575890940178 L 293 152 L 295.26983761385077 162.76326331586978" stroke-miterlimit="10" stroke-dasharray=""/></g><g><rect fill="#ffffff" stroke="none" x="431" y="436" width="53.49169921875" height="13" transform="matrix(1 0 0 1 -164 -237)"/></g><g><g><path fill="none" stroke="none"/><text fill="#000000" stroke="none" font-family="Arial" font-size="13px" font-style="normal" font-weight="normal" text-decoration="undefined" x="457.745849609375" y="442.5" text-anchor="middle" dominant-baseline="central" transform="matrix(1 0 0 1 -164 -237)">«extend»</text></g></g><g><path fill="#C0C0C0" stroke="none" paint-order="stroke fill markers" d=" M 569 125 C 569 105.1177472 613.77152 89 669 89 C 724.22848 89 769 105.1177472 769 125 C 769 144.8822528 724.22848 161 669 161 C 613.77152 161 569 144.8822528 569 125 Z" fill-opacity="0.2"/></g><g><path fill="#ffffff" stroke="none" paint-order="stroke fill markers" d=" M 562 118 C 562 98.1177472 606.77152 82 662 82 C 717.22848 82 762 98.1177472 762 118 C 762 137.8822528 717.22848 154 662 154 C 606.77152 154 562 137.8822528 562 118 Z"/></g><g><path fill="none" stroke="#000000" paint-order="fill stroke markers" d=" M 562 118 C 562 98.1177472 606.77152 82 662 82 C 717.22848 82 762 98.1177472 762 118 C 762 137.8822528 717.22848 154 662 154 C 606.77152 154 562 137.8822528 562 118 Z" stroke-miterlimit="10" stroke-dasharray=""/></g><g><g><path fill="none" stroke="none"/><text fill="#000000" stroke="none" font-family="Arial" font-size="13px" font-style="normal" font-weight="bold" text-decoration="undefined" x="826" y="349.5" text-anchor="middle" dominant-baseline="central" transform="matrix(1 0 0 1 -164 -237)">UC151 - Credenziali</text><text fill="#000000" stroke="none" font-family="Arial" font-size="13px" font-style="normal" font-weight="bold" text-decoration="undefined" x="826" y="362.5" text-anchor="middle" dominant-baseline="central" transform="matrix(1 0 0 1 -164 -237)">API Client scadute</text></g></g><g><path fill="none" stroke="#000000" paint-order="fill stroke markers" d=" M 561 120 L 395 122" stroke-miterlimit="10" stroke-dasharray="3"/></g><g><path fill="none" stroke="#000000" paint-order="fill stroke markers" d=" M 405.11122393553626 117.66835475535692 L 395 122 L 405.21265073709503 126.08677928473185" stroke-miterlimit="10" stroke-dasharray=""/></g><g><rect fill="#ffffff" stroke="none" x="614" y="332" width="53.49169921875" height="13" transform="matrix(1 0 0 1 -164 -237)"/></g><g><g><path fill="none" stroke="none"/><text fill="#000000" stroke="none" font-family="Arial" font-size="13px" font-style="normal" font-weight="normal" text-decoration="undefined" x="640.745849609375" y="338.5" text-anchor="middle" dominant-baseline="central" transform="matrix(1 0 0 1 -164 -237)">«extend»</text></g></g><g><path fill="none" stroke="#000000" paint-order="fill stroke markers" d=" M 82 129 L 153 127" stroke-miterlimit="10" stroke-dasharray=""/></g></g></svg>