<svg version="1.1" xmlns="http://www.w3.org/2000/svg" xmlns:xlink="http://www.w3.org/1999/xlink" width="797" height="572"><defs/><g><g><rect fill="#C0C0C0" stroke="none" x="396" y="338" width="648" height="552" transform="matrix(1 0 0 1 -251 -321)" fill-opacity="0.2"/></g><g><rect fill="#ffffff" stroke="none" x="389" y="331" width="648" height="552" transform="matrix(1 0 0 1 -251 -321)"/></g><g><path fill="none" stroke="#000000" paint-order="fill stroke markers" d=" M 138 10 L 786 10 L 786 562 L 138 562 L 138 10 Z Z" stroke-miterlimit="10" stroke-dasharray=""/></g><g><g><path fill="none" stroke="none"/><text fill="#000000" stroke="none" font-family="Arial" font-size="13px" font-style="normal" font-weight="bold" text-decoration="undefined" x="713.5" y="344.5" text-anchor="middle" dominant-baseline="central" transform="matrix(1 0 0 1 -251 -321)">Sistema Cloud</text></g></g><g><path fill="#ffffff" stroke="none" paint-order="stroke fill markers" d=" M 36.857265625000025 147.85000000000002 C 36.857265625000025 142.96227952000004 40.815067993000014 139 45.697265625 139 C 50.579463256999986 139 54.537265624999975 142.96227952000004 54.537265624999975 147.85000000000002 C 54.537265624999975 152.73772048 50.579463256999986 156.7 45.697265625 156.7 C 40.815067993000014 156.7 36.857265625000025 152.73772048 36.857265625000025 147.85000000000002 Z"/></g><g><path fill="none" stroke="#000000" paint-order="fill stroke markers" d=" M 36.857265625000025 147.85000000000002 C 36.857265625000025 142.96227952000004 40.815067993000014 139 45.697265625 139 C 50.579463256999986 139 54.537265624999975 142.96227952000004 54.537265624999975 147.85000000000002 C 54.537265624999975 152.73772048 50.579463256999986 156.7 45.697265625 156.7 C 40.815067993000014 156.7 36.857265625000025 152.73772048 36.857265625000025 147.85000000000002 Z" stroke-miterlimit="10" stroke-dasharray=""/></g><g><path fill="none" stroke="#000000" paint-order="fill stroke markers" d=" M 45.697265625 156.7 L 45.697265625 174.3" stroke-miterlimit="10" stroke-dasharray=""/></g><g><path fill="none" stroke="#000000" paint-order="fill stroke markers" d=" M 36.337265624999986 163.3 L 55.057265625000014 163.3" stroke-miterlimit="10" stroke-dasharray=""/></g><g><path fill="none" stroke="#000000" paint-order="fill stroke markers" d=" M 45.697265625 174.3 L 32.697265625 192" stroke-miterlimit="10" stroke-dasharray=""/></g><g><path fill="none" stroke="#000000" paint-order="fill stroke markers" d=" M 45.697265625 174.3 L 58.697265625 192" stroke-miterlimit="10" stroke-dasharray=""/></g><g><g><path fill="none" stroke="none"/><text fill="#000000" stroke="none" font-family="Arial" font-size="13px" font-style="normal" font-weight="bold" text-decoration="undefined" x="297.197265625" y="527.5" text-anchor="middle" dominant-baseline="central" transform="matrix(1 0 0 1 -251 -321)">API Client</text></g></g><g><path fill="#C0C0C0" stroke="none" paint-order="stroke fill markers" d=" M 193 187.5 C 193 168.44617440000002 241.3532416 153 301 153 C 360.64675839999995 153 409 168.44617440000002 409 187.5 C 409 206.55382559999998 360.64675839999995 222 301 222 C 241.3532416 222 193 206.55382559999998 193 187.5 Z" fill-opacity="0.2"/></g><g><path fill="#ffffff" stroke="none" paint-order="stroke fill markers" d=" M 186 180.5 C 186 161.44617440000002 234.3532416 146 294 146 C 353.64675839999995 146 402 161.44617440000002 402 180.5 C 402 199.55382559999998 353.64675839999995 215 294 215 C 234.3532416 215 186 199.55382559999998 186 180.5 Z"/></g><g><path fill="none" stroke="#000000" paint-order="fill stroke markers" d=" M 186 180.5 C 186 161.44617440000002 234.3532416 146 294 146 C 353.64675839999995 146 402 161.44617440000002 402 180.5 C 402 199.55382559999998 353.64675839999995 215 294 215 C 234.3532416 215 186 199.55382559999998 186 180.5 Z" stroke-miterlimit="10" stroke-dasharray=""/></g><g><g><path fill="none" stroke="none"/><text fill="#000000" stroke="none" font-family="Arial" font-size="13px" font-style="normal" font-weight="bold" text-decoration="undefined" x="545" y="496" text-anchor="middle" dominant-baseline="central" transform="matrix(1 0 0 1 -251 -321)">UC141 - Richiesta</text><text fill="#000000" stroke="none" font-family="Arial" font-size="13px" font-style="normal" font-weight="bold" text-decoration="undefined" x="545" y="509" text-anchor="middle" dominant-baseline="central" transform="matrix(1 0 0 1 -251 -321)">storico dati sensore</text></g></g><g><path fill="none" stroke="#000000" paint-order="fill stroke markers" d=" M 368 145 L 426 117" stroke-miterlimit="10" stroke-dasharray="3"/></g><g><path fill="none" stroke="#000000" paint-order="fill stroke markers" d=" M 418.6780704391531 125.20910150418405 L 426 117 L 415.0179026150977 117.62732529721211" stroke-miterlimit="10" stroke-dasharray=""/></g><g><rect fill="#ffffff" stroke="none" x="607" y="442" width="55.65625" height="13" transform="matrix(1 0 0 1 -251 -321)"/></g><g><g><path fill="none" stroke="none"/><text fill="#000000" stroke="none" font-family="Arial" font-size="13px" font-style="normal" font-weight="normal" text-decoration="undefined" x="634.828125" y="448.5" text-anchor="middle" dominant-baseline="central" transform="matrix(1 0 0 1 -251 -321)">«include»</text></g></g><g><path fill="#C0C0C0" stroke="none" paint-order="stroke fill markers" d=" M 585 269 C 585 249.11774720000005 626.1897984 233 677 233 C 727.8102016 233 769 249.11774720000005 769 269 C 769 288.88225279999995 727.8102016 305 677 305 C 626.1897984 305 585 288.88225279999995 585 269 Z" fill-opacity="0.2"/></g><g><path fill="#ffffff" stroke="none" paint-order="stroke fill markers" d=" M 578 262 C 578 242.11774720000005 619.1897984 226 670 226 C 720.8102016 226 762 242.11774720000005 762 262 C 762 281.88225279999995 720.8102016 298 670 298 C 619.1897984 298 578 281.88225279999995 578 262 Z"/></g><g><path fill="none" stroke="#000000" paint-order="fill stroke markers" d=" M 578 262 C 578 242.11774720000005 619.1897984 226 670 226 C 720.8102016 226 762 242.11774720000005 762 262 C 762 281.88225279999995 720.8102016 298 670 298 C 619.1897984 298 578 281.88225279999995 578 262 Z" stroke-miterlimit="10" stroke-dasharray=""/></g><g><g><path fill="none" stroke="none"/><text fill="#000000" stroke="none" font-family="Arial" font-size="13px" font-style="normal" font-weight="bold" text-decoration="undefined" x="921" y="577.5" text-anchor="middle" dominant-baseline="central" transform="matrix(1 0 0 1 -251 -321)">UC142 - Sensore</text><text fill="#000000" stroke="none" font-family="Arial" font-size="13px" font-style="normal" font-weight="bold" text-decoration="undefined" x="921" y="590.5" text-anchor="middle" dominant-baseline="central" transform="matrix(1 0 0 1 -251 -321)">non trovato</text></g></g><g><path fill="none" stroke="#000000" paint-order="fill stroke markers" d=" M 577 242 L 403 204" stroke-miterlimit="10" stroke-dasharray="3"/></g><g><path fill="none" stroke="#000000" paint-order="fill stroke markers" d=" M 413.82681216068363 202.0557421885784 L 403 204 L 412.0305101802835 210.2809144146213" stroke-miterlimit="10" stroke-dasharray=""/></g><g><rect fill="#ffffff" stroke="none" x="718" y="562" width="53.49169921875" height="13" transform="matrix(1 0 0 1 -251 -321)"/></g><g><g><path fill="none" stroke="none"/><text fill="#000000" stroke="none" font-family="Arial" font-size="13px" font-style="normal" font-weight="normal" text-decoration="undefined" x="744.745849609375" y="568.5" text-anchor="middle" dominant-baseline="central" transform="matrix(1 0 0 1 -251 -321)">«extend»</text></g></g><g><path fill="none" stroke="#000000" paint-order="fill stroke markers" d=" M 520 425 L 327 216" stroke-miterlimit="10" stroke-dasharray="3"/></g><g><path fill="none" stroke="#000000" paint-order="fill stroke markers" d=" M 336.9872245155858 220.61035209884028 L 327 216 L 330.8020229474557 226.32204541295084" stroke-miterlimit="10" stroke-dasharray=""/></g><g><rect fill="#ffffff" stroke="none" x="625" y="655" width="53.49169921875" height="13" transform="matrix(1 0 0 1 -251 -321)"/></g><g><g><path fill="none" stroke="none"/><text fill="#000000" stroke="none" font-family="Arial" font-size="13px" font-style="normal" font-weight="normal" text-decoration="undefined" x="651.745849609375" y="661.5" text-anchor="middle" dominant-baseline="central" transform="matrix(1 0 0 1 -251 -321)">«extend»</text></g></g><g><path fill="none" stroke="#000000" paint-order="fill stroke markers" d=" M 290 441 L 294 216" stroke-miterlimit="10" stroke-dasharray="3"/></g><g><path fill="none" stroke="#000000" paint-order="fill stroke markers" d=" M 298.0282114741823 226.23589333274174 L 294 216 L 289.6105060623639 226.08624523653157" stroke-miterlimit="10" stroke-dasharray=""/></g><g><rect fill="#ffffff" stroke="none" x="544" y="671" width="53.49169921875" height="13" transform="matrix(1 0 0 1 -251 -321)"/></g><g><g><path fill="none" stroke="none"/><text fill="#000000" stroke="none" font-family="Arial" font-size="13px" font-style="normal" font-weight="normal" text-decoration="undefined" x="570.745849609375" y="677.5" text-anchor="middle" dominant-baseline="central" transform="matrix(1 0 0 1 -251 -321)">«extend»</text></g></g><g><path fill="none" stroke="#000000" paint-order="fill stroke markers" d=" M 82 178 L 185 179" stroke-miterlimit="10" stroke-dasharray=""/></g><g><path fill="#C0C0C0" stroke="none" paint-order="stroke fill markers" d=" M 193 485 C 193 465.11774720000005 239.56238080000003 449 297 449 C 354.4376192 449 401 465.11774720000005 401 485 C 401 504.88225279999995 354.4376192 521 297 521 C 239.56238080000003 521 193 504.88225279999995 193 485 Z" fill-opacity="0.2"/></g><g><path fill="#ffffff" stroke="none" paint-order="stroke fill markers" d=" M 186 478 C 186 458.11774720000005 232.56238080000003 442 290 442 C 347.4376192 442 394 458.11774720000005 394 478 C 394 497.88225279999995 347.4376192 514 290 514 C 232.56238080000003 514 186 497.88225279999995 186 478 Z"/></g><g><path fill="none" stroke="#000000" paint-order="fill stroke markers" d=" M 186 478 C 186 458.11774720000005 232.56238080000003 442 290 442 C 347.4376192 442 394 458.11774720000005 394 478 C 394 497.88225279999995 347.4376192 514 290 514 C 232.56238080000003 514 186 497.88225279999995 186 478 Z" stroke-miterlimit="10" stroke-dasharray=""/></g><g><g><path fill="none" stroke="none"/><text fill="#000000" stroke="none" font-family="Arial" font-size="13px" font-style="normal" font-weight="bold" text-decoration="undefined" x="541" y="787" text-anchor="middle" dominant-baseline="central" transform="matrix(1 0 0 1 -251 -321)">UC144 - Sensore non</text><text fill="#000000" stroke="none" font-family="Arial" font-size="13px" font-style="normal" font-weight="bold" text-decoration="undefined" x="541" y="800" text-anchor="middle" dominant-baseline="central" transform="matrix(1 0 0 1 -251 -321)">associato al tenant</text><text fill="#000000" stroke="none" font-family="Arial" font-size="13px" font-style="normal" font-weight="bold" text-decoration="undefined" x="541" y="813" text-anchor="middle" dominant-baseline="central" transform="matrix(1 0 0 1 -251 -321)">del API Client</text></g></g><g><path fill="#ffffff" stroke="none" paint-order="stroke fill markers" d=" M 162 290 L 247 290 L 257 300 L 257 409 L 162 409 L 162 290"/></g><g><path fill="none" stroke="#000000" paint-order="fill stroke markers" d=" M 162 290 L 247 290 L 257 300 L 257 409 L 162 409 L 162 290 L 162 290" stroke-miterlimit="10" stroke-dasharray=""/></g><g><path fill="none" stroke="#000000" paint-order="fill stroke markers" d=" M 247 290 L 247 300 L 257 300 L 247 290" stroke-miterlimit="10" stroke-dasharray=""/></g><g><g><path fill="none" stroke="none"/><text fill="#000000" stroke="none" font-family="Arial" font-size="13px" font-style="normal" font-weight="normal" text-decoration="undefined" x="418" y="616" text-anchor="start" dominant-baseline="text-before-edge" transform="matrix(1 0 0 1 -251 -321)">Condizione:</text><text fill="#000000" stroke="none" font-family="Arial" font-size="13px" font-style="normal" font-weight="normal" text-decoration="undefined" x="418" y="629" text-anchor="start" dominant-baseline="text-before-edge" transform="matrix(1 0 0 1 -251 -321)">L'API Client</text><text fill="#000000" stroke="none" font-family="Arial" font-size="13px" font-style="normal" font-weight="normal" text-decoration="undefined" x="418" y="642" text-anchor="start" dominant-baseline="text-before-edge" transform="matrix(1 0 0 1 -251 -321)">richiede dati</text><text fill="#000000" stroke="none" font-family="Arial" font-size="13px" font-style="normal" font-weight="normal" text-decoration="undefined" x="418" y="655" text-anchor="start" dominant-baseline="text-before-edge" transform="matrix(1 0 0 1 -251 -321)">storici di un</text><text fill="#000000" stroke="none" font-family="Arial" font-size="13px" font-style="normal" font-weight="normal" text-decoration="undefined" x="418" y="668" text-anchor="start" dominant-baseline="text-before-edge" transform="matrix(1 0 0 1 -251 -321)">sensore non</text><text fill="#000000" stroke="none" font-family="Arial" font-size="13px" font-style="normal" font-weight="normal" text-decoration="undefined" x="418" y="681" text-anchor="start" dominant-baseline="text-before-edge" transform="matrix(1 0 0 1 -251 -321)">associato al</text><text fill="#000000" stroke="none" font-family="Arial" font-size="13px" font-style="normal" font-weight="normal" text-decoration="undefined" x="418" y="694" text-anchor="start" dominant-baseline="text-before-edge" transform="matrix(1 0 0 1 -251 -321)">tenant del</text><text fill="#000000" stroke="none" font-family="Arial" font-size="13px" font-style="normal" font-weight="normal" text-decoration="undefined" x="418" y="707" text-anchor="start" dominant-baseline="text-before-edge" transform="matrix(1 0 0 1 -251 -321)">richiedente</text></g></g><g><path fill="#C0C0C0" stroke="none" paint-order="stroke fill markers" d=" M 441 469 C 441 449.11774720000005 494.725824 433 561 433 C 627.274176 433 681 449.11774720000005 681 469 C 681 488.88225279999995 627.274176 505 561 505 C 494.725824 505 441 488.88225279999995 441 469 Z" fill-opacity="0.2"/></g><g><path fill="#ffffff" stroke="none" paint-order="stroke fill markers" d=" M 434 462 C 434 442.11774720000005 487.725824 426 554 426 C 620.274176 426 674 442.11774720000005 674 462 C 674 481.88225279999995 620.274176 498 554 498 C 487.725824 498 434 481.88225279999995 434 462 Z"/></g><g><path fill="none" stroke="#000000" paint-order="fill stroke markers" d=" M 434 462 C 434 442.11774720000005 487.725824 426 554 426 C 620.274176 426 674 442.11774720000005 674 462 C 674 481.88225279999995 620.274176 498 554 498 C 487.725824 498 434 481.88225279999995 434 462 Z" stroke-miterlimit="10" stroke-dasharray=""/></g><g><g><path fill="none" stroke="none"/><text fill="#000000" stroke="none" font-family="Arial" font-size="13px" font-style="normal" font-weight="bold" text-decoration="undefined" x="805" y="771" text-anchor="middle" dominant-baseline="central" transform="matrix(1 0 0 1 -251 -321)">UC143 - Nessun dato</text><text fill="#000000" stroke="none" font-family="Arial" font-size="13px" font-style="normal" font-weight="bold" text-decoration="undefined" x="805" y="784" text-anchor="middle" dominant-baseline="central" transform="matrix(1 0 0 1 -251 -321)">disponibile per il sensore</text><text fill="#000000" stroke="none" font-family="Arial" font-size="13px" font-style="normal" font-weight="bold" text-decoration="undefined" x="805" y="797" text-anchor="middle" dominant-baseline="central" transform="matrix(1 0 0 1 -251 -321)">richiesto</text></g></g><g><path fill="none" stroke="#000000" paint-order="fill stroke markers" d=" M 259 337 L 292 328" stroke-miterlimit="10" stroke-dasharray="3"/></g><g><path fill="#ffffff" stroke="none" paint-order="stroke fill markers" d=" M 538 306 L 655 306 L 665 316 L 665 409 L 538 409 L 538 306"/></g><g><path fill="none" stroke="#000000" paint-order="fill stroke markers" d=" M 538 306 L 655 306 L 665 316 L 665 409 L 538 409 L 538 306 L 538 306" stroke-miterlimit="10" stroke-dasharray=""/></g><g><path fill="none" stroke="#000000" paint-order="fill stroke markers" d=" M 655 306 L 655 316 L 665 316 L 655 306" stroke-miterlimit="10" stroke-dasharray=""/></g><g><g><path fill="none" stroke="none"/><text fill="#000000" stroke="none" font-family="Arial" font-size="13px" font-style="normal" font-weight="normal" text-decoration="undefined" x="794" y="632" text-anchor="start" dominant-baseline="text-before-edge" transform="matrix(1 0 0 1 -251 -321)">Condizione: L'API</text><text fill="#000000" stroke="none" font-family="Arial" font-size="13px" font-style="normal" font-weight="normal" text-decoration="undefined" x="794" y="645" text-anchor="start" dominant-baseline="text-before-edge" transform="matrix(1 0 0 1 -251 -321)">Client richiede dati</text><text fill="#000000" stroke="none" font-family="Arial" font-size="13px" font-style="normal" font-weight="normal" text-decoration="undefined" x="794" y="658" text-anchor="start" dominant-baseline="text-before-edge" transform="matrix(1 0 0 1 -251 -321)">storici di un sensore</text><text fill="#000000" stroke="none" font-family="Arial" font-size="13px" font-style="normal" font-weight="normal" text-decoration="undefined" x="794" y="671" text-anchor="start" dominant-baseline="text-before-edge" transform="matrix(1 0 0 1 -251 -321)">per cui non sono</text><text fill="#000000" stroke="none" font-family="Arial" font-size="13px" font-style="normal" font-weight="normal" text-decoration="undefined" x="794" y="684" text-anchor="start" dominant-baseline="text-before-edge" transform="matrix(1 0 0 1 -251 -321)">disponibili </text></g></g><g><path fill="none" stroke="#000000" paint-order="fill stroke markers" d=" M 537 344 L 423 320" stroke-miterlimit="10" stroke-dasharray="3"/></g><g><path fill="#C0C0C0" stroke="none" paint-order="stroke fill markers" d=" M 401 90 C 401 71.77460159999998 447.5623808 57 505 57 C 562.4376192 57 609 71.77460159999998 609 90 C 609 108.22539840000002 562.4376192 123 505 123 C 447.5623808 123 401 108.22539840000002 401 90 Z" fill-opacity="0.2"/></g><g><path fill="#ffffff" stroke="none" paint-order="stroke fill markers" d=" M 394 83 C 394 64.77460159999998 440.5623808 50 498 50 C 555.4376192 50 602 64.77460159999998 602 83 C 602 101.22539840000002 555.4376192 116 498 116 C 440.5623808 116 394 101.22539840000002 394 83 Z"/></g><g><path fill="none" stroke="#000000" paint-order="fill stroke markers" d=" M 394 83 C 394 64.77460159999998 440.5623808 50 498 50 C 555.4376192 50 602 64.77460159999998 602 83 C 602 101.22539840000002 555.4376192 116 498 116 C 440.5623808 116 394 101.22539840000002 394 83 Z" stroke-miterlimit="10" stroke-dasharray=""/></g><g><g><path fill="none" stroke="none"/><text fill="#000000" stroke="none" font-family="Arial" font-size="13px" font-style="normal" font-weight="bold" text-decoration="undefined" x="749" y="398.5" text-anchor="middle" dominant-baseline="central" transform="matrix(1 0 0 1 -251 -321)">UC141.1 - Ricezione</text><text fill="#000000" stroke="none" font-family="Arial" font-size="13px" font-style="normal" font-weight="bold" text-decoration="undefined" x="749" y="411.5" text-anchor="middle" dominant-baseline="central" transform="matrix(1 0 0 1 -251 -321)">storico dati sensore</text></g></g><g><path fill="#ffffff" stroke="none" paint-order="stroke fill markers" d=" M 626 98 L 727 98 L 737 108 L 737 187 L 626 187 L 626 98"/></g><g><path fill="none" stroke="#000000" paint-order="fill stroke markers" d=" M 626 98 L 727 98 L 737 108 L 737 187 L 626 187 L 626 98 L 626 98" stroke-miterlimit="10" stroke-dasharray=""/></g><g><path fill="none" stroke="#000000" paint-order="fill stroke markers" d=" M 727 98 L 727 108 L 737 108 L 727 98" stroke-miterlimit="10" stroke-dasharray=""/></g><g><g><path fill="none" stroke="none"/><text fill="#000000" stroke="none" font-family="Arial" font-size="13px" font-style="normal" font-weight="normal" text-decoration="undefined" x="882" y="424" text-anchor="start" dominant-baseline="text-before-edge" transform="matrix(1 0 0 1 -251 -321)">Condizione:</text><text fill="#000000" stroke="none" font-family="Arial" font-size="13px" font-style="normal" font-weight="normal" text-decoration="undefined" x="882" y="437" text-anchor="start" dominant-baseline="text-before-edge" transform="matrix(1 0 0 1 -251 -321)">L'API Client</text><text fill="#000000" stroke="none" font-family="Arial" font-size="13px" font-style="normal" font-weight="normal" text-decoration="undefined" x="882" y="450" text-anchor="start" dominant-baseline="text-before-edge" transform="matrix(1 0 0 1 -251 -321)">richiede i dati</text><text fill="#000000" stroke="none" font-family="Arial" font-size="13px" font-style="normal" font-weight="normal" text-decoration="undefined" x="882" y="463" text-anchor="start" dominant-baseline="text-before-edge" transform="matrix(1 0 0 1 -251 -321)">storici di un</text><text fill="#000000" stroke="none" font-family="Arial" font-size="13px" font-style="normal" font-weight="normal" text-decoration="undefined" x="882" y="476" text-anchor="start" dominant-baseline="text-before-edge" transform="matrix(1 0 0 1 -251 -321)">sensore che non</text><text fill="#000000" stroke="none" font-family="Arial" font-size="13px" font-style="normal" font-weight="normal" text-decoration="undefined" x="882" y="489" text-anchor="start" dominant-baseline="text-before-edge" transform="matrix(1 0 0 1 -251 -321)">esiste</text></g></g><g><path fill="none" stroke="#000000" paint-order="fill stroke markers" d=" M 625 167 L 490 223" stroke-miterlimit="10" stroke-dasharray="3"/></g></g></svg>