<svg version="1.1" xmlns="http://www.w3.org/2000/svg" xmlns:xlink="http://www.w3.org/1999/xlink" width="781" height="548"><defs/><g><g><rect fill="#C0C0C0" stroke="none" x="412" y="350" width="624" height="528" transform="matrix(1 0 0 1 -259 -333)" fill-opacity="0.2"/></g><g><rect fill="#ffffff" stroke="none" x="405" y="343" width="624" height="528" transform="matrix(1 0 0 1 -259 -333)"/></g><g><path fill="none" stroke="#000000" paint-order="fill stroke markers" d=" M 146 10 L 770 10 L 770 538 L 146 538 L 146 10 Z Z" stroke-miterlimit="10" stroke-dasharray=""/></g><g><g><path fill="none" stroke="none"/><text fill="#000000" stroke="none" font-family="Arial" font-size="13px" font-style="normal" font-weight="bold" text-decoration="undefined" x="717.5" y="356.5" text-anchor="middle" dominant-baseline="central" transform="matrix(1 0 0 1 -259 -333)">Sistema Cloud</text></g></g><g><path fill="#ffffff" stroke="none" paint-order="stroke fill markers" d=" M 36.857265625000025 163.85000000000002 C 36.857265625000025 158.96227952000004 40.815067993000014 155 45.697265625 155 C 50.579463256999986 155 54.537265624999975 158.96227952000004 54.537265624999975 163.85000000000002 C 54.537265624999975 168.73772048 50.579463256999986 172.7 45.697265625 172.7 C 40.815067993000014 172.7 36.857265625000025 168.73772048 36.857265625000025 163.85000000000002 Z"/></g><g><path fill="none" stroke="#000000" paint-order="fill stroke markers" d=" M 36.857265625000025 163.85000000000002 C 36.857265625000025 158.96227952000004 40.815067993000014 155 45.697265625 155 C 50.579463256999986 155 54.537265624999975 158.96227952000004 54.537265624999975 163.85000000000002 C 54.537265624999975 168.73772048 50.579463256999986 172.7 45.697265625 172.7 C 40.815067993000014 172.7 36.857265625000025 168.73772048 36.857265625000025 163.85000000000002 Z" stroke-miterlimit="10" stroke-dasharray=""/></g><g><path fill="none" stroke="#000000" paint-order="fill stroke markers" d=" M 45.697265625 172.7 L 45.697265625 190.29999999999995" stroke-miterlimit="10" stroke-dasharray=""/></g><g><path fill="none" stroke="#000000" paint-order="fill stroke markers" d=" M 36.337265624999986 179.29999999999995 L 55.057265625000014 179.29999999999995" stroke-miterlimit="10" stroke-dasharray=""/></g><g><path fill="none" stroke="#000000" paint-order="fill stroke markers" d=" M 45.697265625 190.29999999999995 L 32.697265625 208" stroke-miterlimit="10" stroke-dasharray=""/></g><g><path fill="none" stroke="#000000" paint-order="fill stroke markers" d=" M 45.697265625 190.29999999999995 L 58.697265625 208" stroke-miterlimit="10" stroke-dasharray=""/></g><g><g><path fill="none" stroke="none"/><text fill="#000000" stroke="none" font-family="Arial" font-size="13px" font-style="normal" font-weight="bold" text-decoration="undefined" x="305.197265625" y="555.5" text-anchor="middle" dominant-baseline="central" transform="matrix(1 0 0 1 -259 -333)">API Client</text></g></g><g><path fill="#C0C0C0" stroke="none" paint-order="stroke fill markers" d=" M 193 213 C 193 193.11774720000005 237.77152 177 293 177 C 348.22848 177 393 193.11774720000005 393 213 C 393 232.88225279999995 348.22848 249 293 249 C 237.77152 249 193 232.88225279999995 193 213 Z" fill-opacity="0.2"/></g><g><path fill="#ffffff" stroke="none" paint-order="stroke fill markers" d=" M 186 206 C 186 186.11774720000005 230.77152 170 286 170 C 341.22848 170 386 186.11774720000005 386 206 C 386 225.88225279999995 341.22848 242 286 242 C 230.77152 242 186 225.88225279999995 186 206 Z"/></g><g><path fill="none" stroke="#000000" paint-order="fill stroke markers" d=" M 186 206 C 186 186.11774720000005 230.77152 170 286 170 C 341.22848 170 386 186.11774720000005 386 206 C 386 225.88225279999995 341.22848 242 286 242 C 230.77152 242 186 225.88225279999995 186 206 Z" stroke-miterlimit="10" stroke-dasharray=""/></g><g><g><path fill="none" stroke="none"/><text fill="#000000" stroke="none" font-family="Arial" font-size="13px" font-style="normal" font-weight="bold" text-decoration="undefined" x="545" y="527" text-anchor="middle" dominant-baseline="central" transform="matrix(1 0 0 1 -259 -333)">UC144 - Richiesta</text><text fill="#000000" stroke="none" font-family="Arial" font-size="13px" font-style="normal" font-weight="bold" text-decoration="undefined" x="545" y="540" text-anchor="middle" dominant-baseline="central" transform="matrix(1 0 0 1 -259 -333)">dati real-time</text><text fill="#000000" stroke="none" font-family="Arial" font-size="13px" font-style="normal" font-weight="bold" text-decoration="undefined" x="545" y="553" text-anchor="middle" dominant-baseline="central" transform="matrix(1 0 0 1 -259 -333)">sensore</text></g></g><g><path fill="#C0C0C0" stroke="none" paint-order="stroke fill markers" d=" M 377 99.5 C 377 84.86445279999998 423.5623808 73 481 73 C 538.4376192 73 585 84.86445279999998 585 99.5 C 585 114.13554720000002 538.4376192 126 481 126 C 423.5623808 126 377 114.13554720000002 377 99.5 Z" fill-opacity="0.2"/></g><g><path fill="#ffffff" stroke="none" paint-order="stroke fill markers" d=" M 370 92.5 C 370 77.86445279999998 416.5623808 66 474 66 C 531.4376192 66 578 77.86445279999998 578 92.5 C 578 107.13554720000002 531.4376192 119 474 119 C 416.5623808 119 370 107.13554720000002 370 92.5 Z"/></g><g><path fill="none" stroke="#000000" paint-order="fill stroke markers" d=" M 370 92.5 C 370 77.86445279999998 416.5623808 66 474 66 C 531.4376192 66 578 77.86445279999998 578 92.5 C 578 107.13554720000002 531.4376192 119 474 119 C 416.5623808 119 370 107.13554720000002 370 92.5 Z" stroke-miterlimit="10" stroke-dasharray=""/></g><g><g><path fill="none" stroke="none"/><text fill="#000000" stroke="none" font-family="Arial" font-size="13px" font-style="normal" font-weight="bold" text-decoration="undefined" x="733" y="420" text-anchor="middle" dominant-baseline="central" transform="matrix(1 0 0 1 -259 -333)">UC144.1 - Ricezione</text><text fill="#000000" stroke="none" font-family="Arial" font-size="13px" font-style="normal" font-weight="bold" text-decoration="undefined" x="733" y="433" text-anchor="middle" dominant-baseline="central" transform="matrix(1 0 0 1 -259 -333)">dati real-time sensore</text></g></g><g><path fill="none" stroke="#000000" paint-order="fill stroke markers" d=" M 347 169 L 428 120" stroke-miterlimit="10" stroke-dasharray="3"/></g><g><path fill="none" stroke="#000000" paint-order="fill stroke markers" d=" M 421.48342276508424 128.86195357364153 L 428 120 L 417.12573658058295 121.6584315135475" stroke-miterlimit="10" stroke-dasharray=""/></g><g><rect fill="#ffffff" stroke="none" x="604" y="453" width="55.65625" height="13" transform="matrix(1 0 0 1 -259 -333)"/></g><g><g><path fill="none" stroke="none"/><text fill="#000000" stroke="none" font-family="Arial" font-size="13px" font-style="normal" font-weight="normal" text-decoration="undefined" x="631.828125" y="459.5" text-anchor="middle" dominant-baseline="central" transform="matrix(1 0 0 1 -259 -333)">«include»</text></g></g><g><path fill="none" stroke="#000000" paint-order="fill stroke markers" d=" M 553 212 L 387 208" stroke-miterlimit="10" stroke-dasharray="3"/></g><g><path fill="none" stroke="#000000" paint-order="fill stroke markers" d=" M 397.2611304628931 204.03651647871652 L 387 208 L 397.0583210079724 212.45310885793094" stroke-miterlimit="10" stroke-dasharray=""/></g><g><rect fill="#ffffff" stroke="none" x="711" y="560" width="53.49169921875" height="13" transform="matrix(1 0 0 1 -259 -333)"/></g><g><g><path fill="none" stroke="none"/><text fill="#000000" stroke="none" font-family="Arial" font-size="13px" font-style="normal" font-weight="normal" text-decoration="undefined" x="737.745849609375" y="566.5" text-anchor="middle" dominant-baseline="central" transform="matrix(1 0 0 1 -259 -333)">«extend»</text></g></g><g><path fill="none" stroke="#000000" paint-order="fill stroke markers" d=" M 491 369 L 333 243" stroke-miterlimit="10" stroke-dasharray="3"/></g><g><path fill="none" stroke="#000000" paint-order="fill stroke markers" d=" M 343.5700999125214 246.04515809758948 L 333 243 L 338.32093738537264 252.6274412665539" stroke-miterlimit="10" stroke-dasharray=""/></g><g><rect fill="#ffffff" stroke="none" x="626" y="656" width="53.49169921875" height="13" transform="matrix(1 0 0 1 -259 -333)"/></g><g><g><path fill="none" stroke="none"/><text fill="#000000" stroke="none" font-family="Arial" font-size="13px" font-style="normal" font-weight="normal" text-decoration="undefined" x="652.745849609375" y="662.5" text-anchor="middle" dominant-baseline="central" transform="matrix(1 0 0 1 -259 -333)">«extend»</text></g></g><g><path fill="#C0C0C0" stroke="none" paint-order="stroke fill markers" d=" M 185 485 C 185 465.11774720000005 231.56238080000003 449 289 449 C 346.4376192 449 393 465.11774720000005 393 485 C 393 504.88225279999995 346.4376192 521 289 521 C 231.56238080000003 521 185 504.88225279999995 185 485 Z" fill-opacity="0.2"/></g><g><path fill="#ffffff" stroke="none" paint-order="stroke fill markers" d=" M 178 478 C 178 458.11774720000005 224.56238080000003 442 282 442 C 339.4376192 442 386 458.11774720000005 386 478 C 386 497.88225279999995 339.4376192 514 282 514 C 224.56238080000003 514 178 497.88225279999995 178 478 Z"/></g><g><path fill="none" stroke="#000000" paint-order="fill stroke markers" d=" M 178 478 C 178 458.11774720000005 224.56238080000003 442 282 442 C 339.4376192 442 386 458.11774720000005 386 478 C 386 497.88225279999995 339.4376192 514 282 514 C 224.56238080000003 514 178 497.88225279999995 178 478 Z" stroke-miterlimit="10" stroke-dasharray=""/></g><g><g><path fill="none" stroke="none"/><text fill="#000000" stroke="none" font-family="Arial" font-size="13px" font-style="normal" font-weight="bold" text-decoration="undefined" x="541" y="799" text-anchor="middle" dominant-baseline="central" transform="matrix(1 0 0 1 -259 -333)">UC148 - Sensore non</text><text fill="#000000" stroke="none" font-family="Arial" font-size="13px" font-style="normal" font-weight="bold" text-decoration="undefined" x="541" y="812" text-anchor="middle" dominant-baseline="central" transform="matrix(1 0 0 1 -259 -333)">associato al tenant</text><text fill="#000000" stroke="none" font-family="Arial" font-size="13px" font-style="normal" font-weight="bold" text-decoration="undefined" x="541" y="825" text-anchor="middle" dominant-baseline="central" transform="matrix(1 0 0 1 -259 -333)">del API Client</text></g></g><g><path fill="none" stroke="#000000" paint-order="fill stroke markers" d=" M 283 441 L 285 243" stroke-miterlimit="10" stroke-dasharray="3"/></g><g><path fill="none" stroke="#000000" paint-order="fill stroke markers" d=" M 289.106654978134 253.20467465873196 L 285 243 L 280.68804893204015 253.11963823402402" stroke-miterlimit="10" stroke-dasharray=""/></g><g><rect fill="#ffffff" stroke="none" x="549" y="694" width="53.49169921875" height="13" transform="matrix(1 0 0 1 -259 -333)"/></g><g><g><path fill="none" stroke="none"/><text fill="#000000" stroke="none" font-family="Arial" font-size="13px" font-style="normal" font-weight="normal" text-decoration="undefined" x="575.745849609375" y="700.5" text-anchor="middle" dominant-baseline="central" transform="matrix(1 0 0 1 -259 -333)">«extend»</text></g></g><g><path fill="none" stroke="#000000" paint-order="fill stroke markers" d=" M 82 196 L 185 201" stroke-miterlimit="10" stroke-dasharray=""/></g><g><path fill="#C0C0C0" stroke="none" paint-order="stroke fill markers" d=" M 561 221 C 561 201.11774720000005 602.1897984 185 653 185 C 703.8102016 185 745 201.11774720000005 745 221 C 745 240.88225279999995 703.8102016 257 653 257 C 602.1897984 257 561 240.88225279999995 561 221 Z" fill-opacity="0.2"/></g><g><path fill="#ffffff" stroke="none" paint-order="stroke fill markers" d=" M 554 214 C 554 194.11774720000005 595.1897984 178 646 178 C 696.8102016 178 738 194.11774720000005 738 214 C 738 233.88225279999995 696.8102016 250 646 250 C 595.1897984 250 554 233.88225279999995 554 214 Z"/></g><g><path fill="none" stroke="#000000" paint-order="fill stroke markers" d=" M 554 214 C 554 194.11774720000005 595.1897984 178 646 178 C 696.8102016 178 738 194.11774720000005 738 214 C 738 233.88225279999995 696.8102016 250 646 250 C 595.1897984 250 554 233.88225279999995 554 214 Z" stroke-miterlimit="10" stroke-dasharray=""/></g><g><g><path fill="none" stroke="none"/><text fill="#000000" stroke="none" font-family="Arial" font-size="13px" font-style="normal" font-weight="bold" text-decoration="undefined" x="905" y="541.5" text-anchor="middle" dominant-baseline="central" transform="matrix(1 0 0 1 -259 -333)">UC146 - Sensore</text><text fill="#000000" stroke="none" font-family="Arial" font-size="13px" font-style="normal" font-weight="bold" text-decoration="undefined" x="905" y="554.5" text-anchor="middle" dominant-baseline="central" transform="matrix(1 0 0 1 -259 -333)">non trovato</text></g></g><g><path fill="#ffffff" stroke="none" paint-order="stroke fill markers" d=" M 162 266 L 239.65625 266 L 249.65625 276 L 249.65625 407 L 162 407 L 162 266"/></g><g><path fill="none" stroke="#000000" paint-order="fill stroke markers" d=" M 162 266 L 239.65625 266 L 249.65625 276 L 249.65625 407 L 162 407 L 162 266 L 162 266" stroke-miterlimit="10" stroke-dasharray=""/></g><g><path fill="none" stroke="#000000" paint-order="fill stroke markers" d=" M 239.65625 266 L 239.65625 276 L 249.65625 276 L 239.65625 266" stroke-miterlimit="10" stroke-dasharray=""/></g><g><g><path fill="none" stroke="none"/><text fill="#000000" stroke="none" font-family="Arial" font-size="13px" font-style="normal" font-weight="normal" text-decoration="undefined" x="426" y="604" text-anchor="start" dominant-baseline="text-before-edge" transform="matrix(1 0 0 1 -259 -333)">Condizione:</text><text fill="#000000" stroke="none" font-family="Arial" font-size="13px" font-style="normal" font-weight="normal" text-decoration="undefined" x="426" y="617" text-anchor="start" dominant-baseline="text-before-edge" transform="matrix(1 0 0 1 -259 -333)">L'API Client</text><text fill="#000000" stroke="none" font-family="Arial" font-size="13px" font-style="normal" font-weight="normal" text-decoration="undefined" x="426" y="630" text-anchor="start" dominant-baseline="text-before-edge" transform="matrix(1 0 0 1 -259 -333)">richiede dati</text><text fill="#000000" stroke="none" font-family="Arial" font-size="13px" font-style="normal" font-weight="normal" text-decoration="undefined" x="426" y="643" text-anchor="start" dominant-baseline="text-before-edge" transform="matrix(1 0 0 1 -259 -333)">real-time di</text><text fill="#000000" stroke="none" font-family="Arial" font-size="13px" font-style="normal" font-weight="normal" text-decoration="undefined" x="426" y="656" text-anchor="start" dominant-baseline="text-before-edge" transform="matrix(1 0 0 1 -259 -333)">un sensore</text><text fill="#000000" stroke="none" font-family="Arial" font-size="13px" font-style="normal" font-weight="normal" text-decoration="undefined" x="426" y="669" text-anchor="start" dominant-baseline="text-before-edge" transform="matrix(1 0 0 1 -259 -333)">non</text><text fill="#000000" stroke="none" font-family="Arial" font-size="13px" font-style="normal" font-weight="normal" text-decoration="undefined" x="426" y="682" text-anchor="start" dominant-baseline="text-before-edge" transform="matrix(1 0 0 1 -259 -333)">associato al</text><text fill="#000000" stroke="none" font-family="Arial" font-size="13px" font-style="normal" font-weight="normal" text-decoration="undefined" x="426" y="695" text-anchor="start" dominant-baseline="text-before-edge" transform="matrix(1 0 0 1 -259 -333)">tenant del</text><text fill="#000000" stroke="none" font-family="Arial" font-size="13px" font-style="normal" font-weight="normal" text-decoration="undefined" x="426" y="708" text-anchor="start" dominant-baseline="text-before-edge" transform="matrix(1 0 0 1 -259 -333)">richiedente</text></g></g><g><path fill="#ffffff" stroke="none" paint-order="stroke fill markers" d=" M 602 74 L 703 74 L 713 84 L 713 163 L 602 163 L 602 74"/></g><g><path fill="none" stroke="#000000" paint-order="fill stroke markers" d=" M 602 74 L 703 74 L 713 84 L 713 163 L 602 163 L 602 74 L 602 74" stroke-miterlimit="10" stroke-dasharray=""/></g><g><path fill="none" stroke="#000000" paint-order="fill stroke markers" d=" M 703 74 L 703 84 L 713 84 L 703 74" stroke-miterlimit="10" stroke-dasharray=""/></g><g><g><path fill="none" stroke="none"/><text fill="#000000" stroke="none" font-family="Arial" font-size="13px" font-style="normal" font-weight="normal" text-decoration="undefined" x="866" y="412" text-anchor="start" dominant-baseline="text-before-edge" transform="matrix(1 0 0 1 -259 -333)">Condizione:</text><text fill="#000000" stroke="none" font-family="Arial" font-size="13px" font-style="normal" font-weight="normal" text-decoration="undefined" x="866" y="425" text-anchor="start" dominant-baseline="text-before-edge" transform="matrix(1 0 0 1 -259 -333)">L'API Client</text><text fill="#000000" stroke="none" font-family="Arial" font-size="13px" font-style="normal" font-weight="normal" text-decoration="undefined" x="866" y="438" text-anchor="start" dominant-baseline="text-before-edge" transform="matrix(1 0 0 1 -259 -333)">richiede i dati</text><text fill="#000000" stroke="none" font-family="Arial" font-size="13px" font-style="normal" font-weight="normal" text-decoration="undefined" x="866" y="451" text-anchor="start" dominant-baseline="text-before-edge" transform="matrix(1 0 0 1 -259 -333)">real-time di un</text><text fill="#000000" stroke="none" font-family="Arial" font-size="13px" font-style="normal" font-weight="normal" text-decoration="undefined" x="866" y="464" text-anchor="start" dominant-baseline="text-before-edge" transform="matrix(1 0 0 1 -259 -333)">sensore che non</text><text fill="#000000" stroke="none" font-family="Arial" font-size="13px" font-style="normal" font-weight="normal" text-decoration="undefined" x="866" y="477" text-anchor="start" dominant-baseline="text-before-edge" transform="matrix(1 0 0 1 -259 -333)">esiste</text></g></g><g><path fill="#ffffff" stroke="none" paint-order="stroke fill markers" d=" M 530 258 L 623 258 L 633 268 L 633 360 L 530 360 L 530 258"/></g><g><path fill="none" stroke="#000000" paint-order="fill stroke markers" d=" M 530 258 L 623 258 L 633 268 L 633 360 L 530 360 L 530 258 L 530 258" stroke-miterlimit="10" stroke-dasharray=""/></g><g><path fill="none" stroke="#000000" paint-order="fill stroke markers" d=" M 623 258 L 623 268 L 633 268 L 623 258" stroke-miterlimit="10" stroke-dasharray=""/></g><g><g><path fill="none" stroke="none"/><text fill="#000000" stroke="none" font-family="Arial" font-size="13px" font-style="normal" font-weight="normal" text-decoration="undefined" x="794" y="596" text-anchor="start" dominant-baseline="text-before-edge" transform="matrix(1 0 0 1 -259 -333)">Condizione:</text><text fill="#000000" stroke="none" font-family="Arial" font-size="13px" font-style="normal" font-weight="normal" text-decoration="undefined" x="794" y="609" text-anchor="start" dominant-baseline="text-before-edge" transform="matrix(1 0 0 1 -259 -333)">L'API Client</text><text fill="#000000" stroke="none" font-family="Arial" font-size="13px" font-style="normal" font-weight="normal" text-decoration="undefined" x="794" y="622" text-anchor="start" dominant-baseline="text-before-edge" transform="matrix(1 0 0 1 -259 -333)">richiede dati</text><text fill="#000000" stroke="none" font-family="Arial" font-size="13px" font-style="normal" font-weight="normal" text-decoration="undefined" x="794" y="635" text-anchor="start" dominant-baseline="text-before-edge" transform="matrix(1 0 0 1 -259 -333)">real-time di un</text><text fill="#000000" stroke="none" font-family="Arial" font-size="13px" font-style="normal" font-weight="normal" text-decoration="undefined" x="794" y="648" text-anchor="start" dominant-baseline="text-before-edge" transform="matrix(1 0 0 1 -259 -333)">sensore per cui</text><text fill="#000000" stroke="none" font-family="Arial" font-size="13px" font-style="normal" font-weight="normal" text-decoration="undefined" x="794" y="661" text-anchor="start" dominant-baseline="text-before-edge" transform="matrix(1 0 0 1 -259 -333)">non sono</text><text fill="#000000" stroke="none" font-family="Arial" font-size="13px" font-style="normal" font-weight="normal" text-decoration="undefined" x="794" y="674" text-anchor="start" dominant-baseline="text-before-edge" transform="matrix(1 0 0 1 -259 -333)">disponibili </text></g></g><g><path fill="#C0C0C0" stroke="none" paint-order="stroke fill markers" d=" M 425 413 C 425 393.11774720000005 478.725824 377 545 377 C 611.274176 377 665 393.11774720000005 665 413 C 665 432.88225279999995 611.274176 449 545 449 C 478.725824 449 425 432.88225279999995 425 413 Z" fill-opacity="0.2"/></g><g><path fill="#ffffff" stroke="none" paint-order="stroke fill markers" d=" M 418 406 C 418 386.11774720000005 471.725824 370 538 370 C 604.274176 370 658 386.11774720000005 658 406 C 658 425.88225279999995 604.274176 442 538 442 C 471.725824 442 418 425.88225279999995 418 406 Z"/></g><g><path fill="none" stroke="#000000" paint-order="fill stroke markers" d=" M 418 406 C 418 386.11774720000005 471.725824 370 538 370 C 604.274176 370 658 386.11774720000005 658 406 C 658 425.88225279999995 604.274176 442 538 442 C 471.725824 442 418 425.88225279999995 418 406 Z" stroke-miterlimit="10" stroke-dasharray=""/></g><g><g><path fill="none" stroke="none"/><text fill="#000000" stroke="none" font-family="Arial" font-size="13px" font-style="normal" font-weight="bold" text-decoration="undefined" x="797" y="727" text-anchor="middle" dominant-baseline="central" transform="matrix(1 0 0 1 -259 -333)">UC147 - Nessun dato</text><text fill="#000000" stroke="none" font-family="Arial" font-size="13px" font-style="normal" font-weight="bold" text-decoration="undefined" x="797" y="740" text-anchor="middle" dominant-baseline="central" transform="matrix(1 0 0 1 -259 -333)">disponibile per il sensore</text><text fill="#000000" stroke="none" font-family="Arial" font-size="13px" font-style="normal" font-weight="bold" text-decoration="undefined" x="797" y="753" text-anchor="middle" dominant-baseline="central" transform="matrix(1 0 0 1 -259 -333)">richiesto</text></g></g><g><path fill="none" stroke="#000000" paint-order="fill stroke markers" d=" M 252 340 L 284 342" stroke-miterlimit="10" stroke-dasharray="3"/></g><g><path fill="none" stroke="#000000" paint-order="fill stroke markers" d=" M 529 308 L 412 306" stroke-miterlimit="10" stroke-dasharray="3"/></g><g><path fill="none" stroke="#000000" paint-order="fill stroke markers" d=" M 601 147 L 470 210" stroke-miterlimit="10" stroke-dasharray="3"/></g></g></svg>