<svg version="1.1" xmlns="http://www.w3.org/2000/svg" xmlns:xlink="http://www.w3.org/1999/xlink" width="772" height="205"><defs/><g><g><rect fill="#C0C0C0" stroke="none" x="408" y="462" width="607" height="185" transform="matrix(1 0 0 1 -247 -445)" fill-opacity="0.2"/></g><g><rect fill="#ffffff" stroke="none" x="401" y="455" width="607" height="185" transform="matrix(1 0 0 1 -247 -445)"/></g><g><path fill="none" stroke="#000000" paint-order="fill stroke markers" d=" M 154 10 L 761 10 L 761 195 L 154 195 L 154 10 Z Z" stroke-miterlimit="10" stroke-dasharray=""/></g><g><g><path fill="none" stroke="none"/><text fill="#000000" stroke="none" font-family="Arial" font-size="13px" font-style="normal" font-weight="bold" text-decoration="undefined" x="705" y="468.5" text-anchor="middle" dominant-baseline="central" transform="matrix(1 0 0 1 -247 -445)">Sistema Gateway</text></g></g><g><path fill="#C0C0C0" stroke="none" paint-order="stroke fill markers" d=" M 177 101 C 177 81.11774720000005 228.93496319999997 65 293 65 C 357.06503680000003 65 409 81.11774720000005 409 101 C 409 120.88225279999995 357.06503680000003 137 293 137 C 228.93496319999997 137 177 120.88225279999995 177 101 Z" fill-opacity="0.2"/></g><g><path fill="#ffffff" stroke="none" paint-order="stroke fill markers" d=" M 170 94 C 170 74.11774720000005 221.93496319999997 58 286 58 C 350.06503680000003 58 402 74.11774720000005 402 94 C 402 113.88225279999995 350.06503680000003 130 286 130 C 221.93496319999997 130 170 113.88225279999995 170 94 Z"/></g><g><path fill="none" stroke="#000000" paint-order="fill stroke markers" d=" M 170 94 C 170 74.11774720000005 221.93496319999997 58 286 58 C 350.06503680000003 58 402 74.11774720000005 402 94 C 402 113.88225279999995 350.06503680000003 130 286 130 C 221.93496319999997 130 170 113.88225279999995 170 94 Z" stroke-miterlimit="10" stroke-dasharray=""/></g><g><g><path fill="none" stroke="none"/><text fill="#000000" stroke="none" font-family="Arial" font-size="13px" font-style="normal" font-weight="bold" text-decoration="undefined" x="533" y="533.5" text-anchor="middle" dominant-baseline="central" transform="matrix(1 0 0 1 -247 -445)">UC159 - Assegnazione</text><text fill="#000000" stroke="none" font-family="Arial" font-size="13px" font-style="normal" font-weight="bold" text-decoration="undefined" x="533" y="546.5" text-anchor="middle" dominant-baseline="central" transform="matrix(1 0 0 1 -247 -445)">tenant al Gateway</text></g></g><g><path fill="#ffffff" stroke="none" paint-order="stroke fill markers" d=" M 26.748623046875025 67.85000000000002 C 26.748623046875025 62.96227952000004 30.706425414875014 59 35.588623046875 59 C 40.470820678874986 59 44.428623046874975 62.96227952000004 44.428623046874975 67.85000000000002 C 44.428623046874975 72.73772048000001 40.470820678874986 76.70000000000005 35.588623046875 76.70000000000005 C 30.706425414875014 76.70000000000005 26.748623046875025 72.73772048000001 26.748623046875025 67.85000000000002 Z"/></g><g><path fill="none" stroke="#000000" paint-order="fill stroke markers" d=" M 26.748623046875025 67.85000000000002 C 26.748623046875025 62.96227952000004 30.706425414875014 59 35.588623046875 59 C 40.470820678874986 59 44.428623046874975 62.96227952000004 44.428623046874975 67.85000000000002 C 44.428623046874975 72.73772048000001 40.470820678874986 76.70000000000005 35.588623046875 76.70000000000005 C 30.706425414875014 76.70000000000005 26.748623046875025 72.73772048000001 26.748623046875025 67.85000000000002 Z" stroke-miterlimit="10" stroke-dasharray=""/></g><g><path fill="none" stroke="#000000" paint-order="fill stroke markers" d=" M 35.588623046875 76.70000000000005 L 35.588623046875 94.29999999999995" stroke-miterlimit="10" stroke-dasharray=""/></g><g><path fill="none" stroke="#000000" paint-order="fill stroke markers" d=" M 26.228623046874986 83.29999999999995 L 44.948623046875014 83.29999999999995" stroke-miterlimit="10" stroke-dasharray=""/></g><g><path fill="none" stroke="#000000" paint-order="fill stroke markers" d=" M 35.588623046875 94.29999999999995 L 22.588623046875 112" stroke-miterlimit="10" stroke-dasharray=""/></g><g><path fill="none" stroke="#000000" paint-order="fill stroke markers" d=" M 35.588623046875 94.29999999999995 L 48.588623046875 112" stroke-miterlimit="10" stroke-dasharray=""/></g><g><g><path fill="none" stroke="none"/><text fill="#000000" stroke="none" font-family="Arial" font-size="13px" font-style="normal" font-weight="bold" text-decoration="undefined" x="283.088623046875" y="571.5" text-anchor="middle" dominant-baseline="central" transform="matrix(1 0 0 1 -247 -445)">Cloud</text></g></g><g><path fill="#C0C0C0" stroke="none" paint-order="stroke fill markers" d=" M 513 101 C 513 81.11774720000005 564.9349632 65 629 65 C 693.0650368 65 745 81.11774720000005 745 101 C 745 120.88225279999995 693.0650368 137 629 137 C 564.9349632 137 513 120.88225279999995 513 101 Z" fill-opacity="0.2"/></g><g><path fill="#ffffff" stroke="none" paint-order="stroke fill markers" d=" M 506 94 C 506 74.11774720000005 557.9349632 58 622 58 C 686.0650368 58 738 74.11774720000005 738 94 C 738 113.88225279999995 686.0650368 130 622 130 C 557.9349632 130 506 113.88225279999995 506 94 Z"/></g><g><path fill="none" stroke="#000000" paint-order="fill stroke markers" d=" M 506 94 C 506 74.11774720000005 557.9349632 58 622 58 C 686.0650368 58 738 74.11774720000005 738 94 C 738 113.88225279999995 686.0650368 130 622 130 C 557.9349632 130 506 113.88225279999995 506 94 Z" stroke-miterlimit="10" stroke-dasharray=""/></g><g><g><path fill="none" stroke="none"/><text fill="#000000" stroke="none" font-family="Arial" font-size="13px" font-style="normal" font-weight="bold" text-decoration="undefined" x="869" y="533.5" text-anchor="middle" dominant-baseline="central" transform="matrix(1 0 0 1 -247 -445)">UC159.1 - Invio tenant</text><text fill="#000000" stroke="none" font-family="Arial" font-size="13px" font-style="normal" font-weight="bold" text-decoration="undefined" x="869" y="546.5" text-anchor="middle" dominant-baseline="central" transform="matrix(1 0 0 1 -247 -445)">associato al Gateway</text></g></g><g><path fill="none" stroke="#000000" paint-order="fill stroke markers" d=" M 62 98 L 169 96" stroke-miterlimit="10" stroke-dasharray=""/></g><g><path fill="none" stroke="#000000" paint-order="fill stroke markers" d=" M 403 94 L 505 94" stroke-miterlimit="10" stroke-dasharray="3"/></g><g><path fill="none" stroke="#000000" paint-order="fill stroke markers" d=" M 494.8373251423759 98.209517756016 L 505 94 L 494.8373251423758 89.790482243984" stroke-miterlimit="10" stroke-dasharray=""/></g><g><rect fill="#ffffff" stroke="none" x="674" y="503" width="55.65625" height="13" transform="matrix(1 0 0 1 -247 -445)"/></g><g><g><path fill="none" stroke="none"/><text fill="#000000" stroke="none" font-family="Arial" font-size="13px" font-style="normal" font-weight="normal" text-decoration="undefined" x="701.828125" y="509.5" text-anchor="middle" dominant-baseline="central" transform="matrix(1 0 0 1 -247 -445)">«include»</text></g></g></g></svg>