<svg version="1.1" xmlns="http://www.w3.org/2000/svg" xmlns:xlink="http://www.w3.org/1999/xlink" width="845" height="548"><defs/><g><g><rect fill="#C0C0C0" stroke="none" x="412" y="350" width="656" height="528" transform="matrix(1 0 0 1 -227 -333)" fill-opacity="0.2"/></g><g><rect fill="#ffffff" stroke="none" x="405" y="343" width="656" height="528" transform="matrix(1 0 0 1 -227 -333)"/></g><g><path fill="none" stroke="#000000" paint-order="fill stroke markers" d=" M 178 10 L 834 10 L 834 538 L 178 538 L 178 10 Z Z" stroke-miterlimit="10" stroke-dasharray=""/></g><g><g><path fill="none" stroke="none"/><text fill="#000000" stroke="none" font-family="Arial" font-size="13px" font-style="normal" font-weight="bold" text-decoration="undefined" x="733.5" y="356.5" text-anchor="middle" dominant-baseline="central" transform="matrix(1 0 0 1 -227 -333)">Sistema Gateway</text></g></g><g><path fill="#ffffff" stroke="none" paint-order="stroke fill markers" d=" M 60.343593750000025 203.85000000000002 C 60.343593750000025 198.96227952000004 64.30139611800001 195 69.18359375 195 C 74.06579138199999 195 78.02359374999997 198.96227952000004 78.02359374999997 203.85000000000002 C 78.02359374999997 208.73772048 74.06579138199999 212.70000000000005 69.18359375 212.70000000000005 C 64.30139611800001 212.70000000000005 60.343593750000025 208.73772048 60.343593750000025 203.85000000000002 Z"/></g><g><path fill="none" stroke="#000000" paint-order="fill stroke markers" d=" M 60.343593750000025 203.85000000000002 C 60.343593750000025 198.96227952000004 64.30139611800001 195 69.18359375 195 C 74.06579138199999 195 78.02359374999997 198.96227952000004 78.02359374999997 203.85000000000002 C 78.02359374999997 208.73772048 74.06579138199999 212.70000000000005 69.18359375 212.70000000000005 C 64.30139611800001 212.70000000000005 60.343593750000025 208.73772048 60.343593750000025 203.85000000000002 Z" stroke-miterlimit="10" stroke-dasharray=""/></g><g><path fill="none" stroke="#000000" paint-order="fill stroke markers" d=" M 69.18359375 212.70000000000005 L 69.18359375 230.29999999999995" stroke-miterlimit="10" stroke-dasharray=""/></g><g><path fill="none" stroke="#000000" paint-order="fill stroke markers" d=" M 59.823593749999986 219.29999999999995 L 78.54359375000001 219.29999999999995" stroke-miterlimit="10" stroke-dasharray=""/></g><g><path fill="none" stroke="#000000" paint-order="fill stroke markers" d=" M 69.18359375 230.29999999999995 L 56.18359375 248" stroke-miterlimit="10" stroke-dasharray=""/></g><g><path fill="none" stroke="#000000" paint-order="fill stroke markers" d=" M 69.18359375 230.29999999999995 L 82.18359375 248" stroke-miterlimit="10" stroke-dasharray=""/></g><g><g><path fill="none" stroke="none"/><text fill="#000000" stroke="none" font-family="Arial" font-size="13px" font-style="normal" font-weight="bold" text-decoration="undefined" x="296.68359375" y="595.5" text-anchor="middle" dominant-baseline="central" transform="matrix(1 0 0 1 -227 -333)">Sensore simulato</text></g></g><g><path fill="#C0C0C0" stroke="none" paint-order="stroke fill markers" d=" M 225 251.5 C 225 236.86445279999998 276.93496319999997 225 341 225 C 405.06503680000003 225 457 236.86445279999998 457 251.5 C 457 266.1355472 405.06503680000003 278 341 278 C 276.93496319999997 278 225 266.1355472 225 251.5 Z" fill-opacity="0.2"/></g><g><path fill="#ffffff" stroke="none" paint-order="stroke fill markers" d=" M 218 244.5 C 218 229.86445279999998 269.93496319999997 218 334 218 C 398.06503680000003 218 450 229.86445279999998 450 244.5 C 450 259.1355472 398.06503680000003 271 334 271 C 269.93496319999997 271 218 259.1355472 218 244.5 Z"/></g><g><path fill="none" stroke="#000000" paint-order="fill stroke markers" d=" M 218 244.5 C 218 229.86445279999998 269.93496319999997 218 334 218 C 398.06503680000003 218 450 229.86445279999998 450 244.5 C 450 259.1355472 398.06503680000003 271 334 271 C 269.93496319999997 271 218 259.1355472 218 244.5 Z" stroke-miterlimit="10" stroke-dasharray=""/></g><g><g><path fill="none" stroke="none"/><text fill="#000000" stroke="none" font-family="Arial" font-size="13px" font-style="normal" font-weight="bold" text-decoration="undefined" x="561" y="572" text-anchor="middle" dominant-baseline="central" transform="matrix(1 0 0 1 -227 -333)">UC150 - Invio nuovo</text><text fill="#000000" stroke="none" font-family="Arial" font-size="13px" font-style="normal" font-weight="bold" text-decoration="undefined" x="561" y="585" text-anchor="middle" dominant-baseline="central" transform="matrix(1 0 0 1 -227 -333)">dato al Gateway</text></g></g><g><path fill="#C0C0C0" stroke="none" paint-order="stroke fill markers" d=" M 209 75.5 C 209 60.86445279999998 257.3532416 49 317 49 C 376.64675839999995 49 425 60.86445279999998 425 75.5 C 425 90.13554720000002 376.64675839999995 102 317 102 C 257.3532416 102 209 90.13554720000002 209 75.5 Z" fill-opacity="0.2"/></g><g><path fill="#ffffff" stroke="none" paint-order="stroke fill markers" d=" M 202 68.5 C 202 53.86445279999998 250.3532416 42 310 42 C 369.64675839999995 42 418 53.86445279999998 418 68.5 C 418 83.13554720000002 369.64675839999995 95 310 95 C 250.3532416 95 202 83.13554720000002 202 68.5 Z"/></g><g><path fill="none" stroke="#000000" paint-order="fill stroke markers" d=" M 202 68.5 C 202 53.86445279999998 250.3532416 42 310 42 C 369.64675839999995 42 418 53.86445279999998 418 68.5 C 418 83.13554720000002 369.64675839999995 95 310 95 C 250.3532416 95 202 83.13554720000002 202 68.5 Z" stroke-miterlimit="10" stroke-dasharray=""/></g><g><g><path fill="none" stroke="none"/><text fill="#000000" stroke="none" font-family="Arial" font-size="13px" font-style="normal" font-weight="bold" text-decoration="undefined" x="537" y="396" text-anchor="middle" dominant-baseline="central" transform="matrix(1 0 0 1 -227 -333)">UC151 - Invio di dati</text><text fill="#000000" stroke="none" font-family="Arial" font-size="13px" font-style="normal" font-weight="bold" text-decoration="undefined" x="537" y="409" text-anchor="middle" dominant-baseline="central" transform="matrix(1 0 0 1 -227 -333)">eccessivi al Gateway</text></g></g><g><path fill="none" stroke="#000000" paint-order="fill stroke markers" d=" M 314 96 L 330 217" stroke-miterlimit="10" stroke-dasharray="3"/></g><g><path fill="none" stroke="#000000" paint-order="fill stroke markers" d=" M 324.49458042061224 207.4768516101609 L 330 217 L 332.8409632868387 206.3731976774368" stroke-miterlimit="10" stroke-dasharray=""/></g><g><rect fill="#ffffff" stroke="none" x="485" y="478" width="53.49169921875" height="13" transform="matrix(1 0 0 1 -227 -333)"/></g><g><g><path fill="none" stroke="none"/><text fill="#000000" stroke="none" font-family="Arial" font-size="13px" font-style="normal" font-weight="normal" text-decoration="undefined" x="511.745849609375" y="484.5" text-anchor="middle" dominant-baseline="central" transform="matrix(1 0 0 1 -227 -333)">«extend»</text></g></g><g><path fill="none" stroke="#000000" paint-order="fill stroke markers" d=" M 129 236 L 217 240" stroke-miterlimit="10" stroke-dasharray=""/></g><g><path fill="none" stroke="#000000" paint-order="fill stroke markers" d=" M 577 196 L 451 221" stroke-miterlimit="10" stroke-dasharray=""/></g><g><path fill="#FFFFFF" stroke="none" paint-order="stroke fill markers" d=" M 469.29820470232926 208.7862493610006 L 451 221 L 472.57521052911454 225.30235872799858"/></g><g><path fill="none" stroke="#000000" paint-order="fill stroke markers" d=" M 469.29820470232926 208.7862493610006 L 451 221 L 472.57521052911454 225.30235872799858 L 469.29820470232926 208.7862493610006" stroke-miterlimit="10" stroke-dasharray=""/></g><g><path fill="none" stroke="#000000" paint-order="fill stroke markers" d=" M 609 257 L 451 249" stroke-miterlimit="10" stroke-dasharray=""/></g><g><path fill="#FFFFFF" stroke="none" paint-order="stroke fill markers" d=" M 471.7250806407592 241.61955066178007 L 451 249 L 470.87361083697783 258.43607928645974"/></g><g><path fill="none" stroke="#000000" paint-order="fill stroke markers" d=" M 471.7250806407592 241.61955066178007 L 451 249 L 470.87361083697783 258.43607928645974 L 471.7250806407592 241.61955066178007" stroke-miterlimit="10" stroke-dasharray=""/></g><g><path fill="#C0C0C0" stroke="none" paint-order="stroke fill markers" d=" M 561 374 C 561 349.14718400000004 603.9806592 329 657 329 C 710.0193408 329 753 349.14718400000004 753 374 C 753 398.85281599999996 710.0193408 419 657 419 C 603.9806592 419 561 398.85281599999996 561 374 Z" fill-opacity="0.2"/></g><g><path fill="#ffffff" stroke="none" paint-order="stroke fill markers" d=" M 554 367 C 554 342.14718400000004 596.9806592 322 650 322 C 703.0193408 322 746 342.14718400000004 746 367 C 746 391.85281599999996 703.0193408 412 650 412 C 596.9806592 412 554 391.85281599999996 554 367 Z"/></g><g><path fill="none" stroke="#000000" paint-order="fill stroke markers" d=" M 554 367 C 554 342.14718400000004 596.9806592 322 650 322 C 703.0193408 322 746 342.14718400000004 746 367 C 746 391.85281599999996 703.0193408 412 650 412 C 596.9806592 412 554 391.85281599999996 554 367 Z" stroke-miterlimit="10" stroke-dasharray=""/></g><g><g><path fill="none" stroke="none"/><text fill="#000000" stroke="none" font-family="Arial" font-size="13px" font-style="normal" font-weight="bold" text-decoration="undefined" x="877" y="688" text-anchor="middle" dominant-baseline="central" transform="matrix(1 0 0 1 -227 -333)">UC154 - Invio di</text><text fill="#000000" stroke="none" font-family="Arial" font-size="13px" font-style="normal" font-weight="bold" text-decoration="undefined" x="877" y="701" text-anchor="middle" dominant-baseline="central" transform="matrix(1 0 0 1 -227 -333)">dato simulando</text><text fill="#000000" stroke="none" font-family="Arial" font-size="13px" font-style="normal" font-weight="bold" text-decoration="undefined" x="877" y="714" text-anchor="middle" dominant-baseline="central" transform="matrix(1 0 0 1 -227 -333)">ECG Custom Profile</text></g></g><g><path fill="none" stroke="#000000" paint-order="fill stroke markers" d=" M 553 329 L 406 272" stroke-miterlimit="10" stroke-dasharray=""/></g><g><path fill="#FFFFFF" stroke="none" paint-order="stroke fill markers" d=" M 427.9942855109257 271.4985971042345 L 406 272 L 421.906853819831 287.1977630444262"/></g><g><path fill="none" stroke="#000000" paint-order="fill stroke markers" d=" M 427.9942855109257 271.4985971042345 L 406 272 L 421.906853819831 287.1977630444262 L 427.9942855109257 271.4985971042345" stroke-miterlimit="10" stroke-dasharray=""/></g><g><path fill="#C0C0C0" stroke="none" paint-order="stroke fill markers" d=" M 457 477 C 457 457.11774720000005 508.93496319999997 441 573 441 C 637.0650368 441 689 457.11774720000005 689 477 C 689 496.88225279999995 637.0650368 513 573 513 C 508.93496319999997 513 457 496.88225279999995 457 477 Z" fill-opacity="0.2"/></g><g><path fill="#ffffff" stroke="none" paint-order="stroke fill markers" d=" M 450 470 C 450 450.11774720000005 501.93496319999997 434 566 434 C 630.0650368 434 682 450.11774720000005 682 470 C 682 489.88225279999995 630.0650368 506 566 506 C 501.93496319999997 506 450 489.88225279999995 450 470 Z"/></g><g><path fill="none" stroke="#000000" paint-order="fill stroke markers" d=" M 450 470 C 450 450.11774720000005 501.93496319999997 434 566 434 C 630.0650368 434 682 450.11774720000005 682 470 C 682 489.88225279999995 630.0650368 506 566 506 C 501.93496319999997 506 450 489.88225279999995 450 470 Z" stroke-miterlimit="10" stroke-dasharray=""/></g><g><g><path fill="none" stroke="none"/><text fill="#000000" stroke="none" font-family="Arial" font-size="13px" font-style="normal" font-weight="bold" text-decoration="undefined" x="793" y="791" text-anchor="middle" dominant-baseline="central" transform="matrix(1 0 0 1 -227 -333)">UC155 - Invio di dato</text><text fill="#000000" stroke="none" font-family="Arial" font-size="13px" font-style="normal" font-weight="bold" text-decoration="undefined" x="793" y="804" text-anchor="middle" dominant-baseline="central" transform="matrix(1 0 0 1 -227 -333)">simulando Health</text><text fill="#000000" stroke="none" font-family="Arial" font-size="13px" font-style="normal" font-weight="bold" text-decoration="undefined" x="793" y="817" text-anchor="middle" dominant-baseline="central" transform="matrix(1 0 0 1 -227 -333)">Thermometer Service</text></g></g><g><path fill="none" stroke="#000000" paint-order="fill stroke markers" d=" M 528 433 L 363 272" stroke-miterlimit="10" stroke-dasharray=""/></g><g><path fill="#FFFFFF" stroke="none" paint-order="stroke fill markers" d=" M 383.4271131571602 280.1690298117079 L 363 272 L 371.6677738579192 292.2205266090666"/></g><g><path fill="none" stroke="#000000" paint-order="fill stroke markers" d=" M 383.4271131571602 280.1690298117079 L 363 272 L 371.6677738579192 292.2205266090666 L 383.4271131571602 280.1690298117079" stroke-miterlimit="10" stroke-dasharray=""/></g><g><path fill="#C0C0C0" stroke="none" paint-order="stroke fill markers" d=" M 201 478 C 201 453.14718400000004 251.1441024 433 313 433 C 374.85589760000005 433 425 453.14718400000004 425 478 C 425 502.85281599999996 374.85589760000005 523 313 523 C 251.1441024 523 201 502.85281599999996 201 478 Z" fill-opacity="0.2"/></g><g><path fill="#ffffff" stroke="none" paint-order="stroke fill markers" d=" M 194 471 C 194 446.14718400000004 244.1441024 426 306 426 C 367.85589760000005 426 418 446.14718400000004 418 471 C 418 495.85281599999996 367.85589760000005 516 306 516 C 244.1441024 516 194 495.85281599999996 194 471 Z"/></g><g><path fill="none" stroke="#000000" paint-order="fill stroke markers" d=" M 194 471 C 194 446.14718400000004 244.1441024 426 306 426 C 367.85589760000005 426 418 446.14718400000004 418 471 C 418 495.85281599999996 367.85589760000005 516 306 516 C 244.1441024 516 194 495.85281599999996 194 471 Z" stroke-miterlimit="10" stroke-dasharray=""/></g><g><g><path fill="none" stroke="none"/><text fill="#000000" stroke="none" font-family="Arial" font-size="13px" font-style="normal" font-weight="bold" text-decoration="undefined" x="533" y="785.5" text-anchor="middle" dominant-baseline="central" transform="matrix(1 0 0 1 -227 -333)">UC156 - Invio di dati</text><text fill="#000000" stroke="none" font-family="Arial" font-size="13px" font-style="normal" font-weight="bold" text-decoration="undefined" x="533" y="798.5" text-anchor="middle" dominant-baseline="central" transform="matrix(1 0 0 1 -227 -333)">simulando</text><text fill="#000000" stroke="none" font-family="Arial" font-size="13px" font-style="normal" font-weight="bold" text-decoration="undefined" x="533" y="811.5" text-anchor="middle" dominant-baseline="central" transform="matrix(1 0 0 1 -227 -333)">Environmental Sensing</text><text fill="#000000" stroke="none" font-family="Arial" font-size="13px" font-style="normal" font-weight="bold" text-decoration="undefined" x="533" y="824.5" text-anchor="middle" dominant-baseline="central" transform="matrix(1 0 0 1 -227 -333)">Service</text></g></g><g><path fill="none" stroke="#000000" paint-order="fill stroke markers" d=" M 312 425 L 331 272" stroke-miterlimit="10" stroke-dasharray=""/></g><g><path fill="#FFFFFF" stroke="none" paint-order="stroke fill markers" d=" M 336.8500371173337 293.2079481734047 L 331 272 L 320.1403169473924 291.1328848843269"/></g><g><path fill="none" stroke="#000000" paint-order="fill stroke markers" d=" M 336.8500371173337 293.2079481734047 L 331 272 L 320.1403169473924 291.1328848843269 L 336.8500371173337 293.2079481734047" stroke-miterlimit="10" stroke-dasharray=""/></g><g><path fill="#C0C0C0" stroke="none" paint-order="stroke fill markers" d=" M 617 269 C 617 249.11774720000005 665.3532416 233 725 233 C 784.6467584 233 833 249.11774720000005 833 269 C 833 288.88225279999995 784.6467584 305 725 305 C 665.3532416 305 617 288.88225279999995 617 269 Z" fill-opacity="0.2"/></g><g><path fill="#ffffff" stroke="none" paint-order="stroke fill markers" d=" M 610 262 C 610 242.11774720000005 658.3532416 226 718 226 C 777.6467584 226 826 242.11774720000005 826 262 C 826 281.88225279999995 777.6467584 298 718 298 C 658.3532416 298 610 281.88225279999995 610 262 Z"/></g><g><path fill="none" stroke="#000000" paint-order="fill stroke markers" d=" M 610 262 C 610 242.11774720000005 658.3532416 226 718 226 C 777.6467584 226 826 242.11774720000005 826 262 C 826 281.88225279999995 777.6467584 298 718 298 C 658.3532416 298 610 281.88225279999995 610 262 Z" stroke-miterlimit="10" stroke-dasharray=""/></g><g><g><path fill="none" stroke="none"/><text fill="#000000" stroke="none" font-family="Arial" font-size="13px" font-style="normal" font-weight="bold" text-decoration="undefined" x="945" y="583" text-anchor="middle" dominant-baseline="central" transform="matrix(1 0 0 1 -227 -333)">UC153 - Invio di dato</text><text fill="#000000" stroke="none" font-family="Arial" font-size="13px" font-style="normal" font-weight="bold" text-decoration="undefined" x="945" y="596" text-anchor="middle" dominant-baseline="central" transform="matrix(1 0 0 1 -227 -333)">simulando Pulse</text><text fill="#000000" stroke="none" font-family="Arial" font-size="13px" font-style="normal" font-weight="bold" text-decoration="undefined" x="945" y="609" text-anchor="middle" dominant-baseline="central" transform="matrix(1 0 0 1 -227 -333)">Oximeter Service</text></g></g><g><path fill="#C0C0C0" stroke="none" paint-order="stroke fill markers" d=" M 585 181 C 585 161.1177472 635.1441024 145 697 145 C 758.8558976 145 809 161.1177472 809 181 C 809 200.88225279999995 758.8558976 217 697 217 C 635.1441024 217 585 200.88225279999995 585 181 Z" fill-opacity="0.2"/></g><g><path fill="#ffffff" stroke="none" paint-order="stroke fill markers" d=" M 578 174 C 578 154.1177472 628.1441024 138 690 138 C 751.8558976 138 802 154.1177472 802 174 C 802 193.88225279999995 751.8558976 210 690 210 C 628.1441024 210 578 193.88225279999995 578 174 Z"/></g><g><path fill="none" stroke="#000000" paint-order="fill stroke markers" d=" M 578 174 C 578 154.1177472 628.1441024 138 690 138 C 751.8558976 138 802 154.1177472 802 174 C 802 193.88225279999995 751.8558976 210 690 210 C 628.1441024 210 578 193.88225279999995 578 174 Z" stroke-miterlimit="10" stroke-dasharray=""/></g><g><g><path fill="none" stroke="none"/><text fill="#000000" stroke="none" font-family="Arial" font-size="13px" font-style="normal" font-weight="bold" text-decoration="undefined" x="917" y="495" text-anchor="middle" dominant-baseline="central" transform="matrix(1 0 0 1 -227 -333)">UC152 - Invio di dato</text><text fill="#000000" stroke="none" font-family="Arial" font-size="13px" font-style="normal" font-weight="bold" text-decoration="undefined" x="917" y="508" text-anchor="middle" dominant-baseline="central" transform="matrix(1 0 0 1 -227 -333)">simulando Heart Rate</text><text fill="#000000" stroke="none" font-family="Arial" font-size="13px" font-style="normal" font-weight="bold" text-decoration="undefined" x="917" y="521" text-anchor="middle" dominant-baseline="central" transform="matrix(1 0 0 1 -227 -333)">Service</text></g></g><g><path fill="#ffffff" stroke="none" paint-order="stroke fill markers" d=" M 434 58 L 567 58 L 577 68 L 577 153 L 434 153 L 434 58"/></g><g><path fill="none" stroke="#000000" paint-order="fill stroke markers" d=" M 434 58 L 567 58 L 577 68 L 577 153 L 434 153 L 434 58 L 434 58" stroke-miterlimit="10" stroke-dasharray=""/></g><g><path fill="none" stroke="#000000" paint-order="fill stroke markers" d=" M 567 58 L 567 68 L 577 68 L 567 58" stroke-miterlimit="10" stroke-dasharray=""/></g><g><g><path fill="none" stroke="none"/><text fill="#000000" stroke="none" font-family="Arial" font-size="13px" font-style="normal" font-weight="normal" text-decoration="undefined" x="666" y="396" text-anchor="start" dominant-baseline="text-before-edge" transform="matrix(1 0 0 1 -227 -333)">Condizione: Il Sensore</text><text fill="#000000" stroke="none" font-family="Arial" font-size="13px" font-style="normal" font-weight="normal" text-decoration="undefined" x="666" y="409" text-anchor="start" dominant-baseline="text-before-edge" transform="matrix(1 0 0 1 -227 -333)">simulato invia una</text><text fill="#000000" stroke="none" font-family="Arial" font-size="13px" font-style="normal" font-weight="normal" text-decoration="undefined" x="666" y="422" text-anchor="start" dominant-baseline="text-before-edge" transform="matrix(1 0 0 1 -227 -333)">quantità di dati</text><text fill="#000000" stroke="none" font-family="Arial" font-size="13px" font-style="normal" font-weight="normal" text-decoration="undefined" x="666" y="435" text-anchor="start" dominant-baseline="text-before-edge" transform="matrix(1 0 0 1 -227 -333)">superiore alla capacità</text><text fill="#000000" stroke="none" font-family="Arial" font-size="13px" font-style="normal" font-weight="normal" text-decoration="undefined" x="666" y="448" text-anchor="start" dominant-baseline="text-before-edge" transform="matrix(1 0 0 1 -227 -333)">di gestione del</text><text fill="#000000" stroke="none" font-family="Arial" font-size="13px" font-style="normal" font-weight="normal" text-decoration="undefined" x="666" y="461" text-anchor="start" dominant-baseline="text-before-edge" transform="matrix(1 0 0 1 -227 -333)">Sistema Gateway</text></g></g><g><g><path fill="none" stroke="none"/></g></g><g><path fill="none" stroke="#000000" paint-order="fill stroke markers" d=" M 433 126 L 322 156" stroke-miterlimit="10" stroke-dasharray="3"/></g></g></svg>