<svg version="1.1" xmlns="http://www.w3.org/2000/svg" xmlns:xlink="http://www.w3.org/1999/xlink" width="845" height="564"><defs/><g><g><rect fill="#C0C0C0" stroke="none" x="321" y="146" width="656" height="544" transform="matrix(1 0 0 1 -136 -129)" fill-opacity="0.2"/></g><g><rect fill="#ffffff" stroke="none" x="314" y="139" width="656" height="544" transform="matrix(1 0 0 1 -136 -129)"/></g><g><path fill="none" stroke="#000000" paint-order="fill stroke markers" d=" M 178 10 L 834 10 L 834 554 L 178 554 L 178 10 Z Z" stroke-miterlimit="10" stroke-dasharray=""/></g><g><g><path fill="none" stroke="none"/><text fill="#000000" stroke="none" font-family="Arial" font-size="13px" font-style="normal" font-weight="bold" text-decoration="undefined" x="642.5" y="152.5" text-anchor="middle" dominant-baseline="central" transform="matrix(1 0 0 1 -136 -129)">Sistema Gateway</text></g></g><g><path fill="#ffffff" stroke="none" paint-order="stroke fill markers" d=" M 60.34359375 203.85000000000002 C 60.34359375 198.96227952000004 64.30139611799999 195 69.18359375 195 C 74.06579138200001 195 78.02359375 198.96227952000004 78.02359375 203.85000000000002 C 78.02359375 208.73772048 74.06579138200001 212.7 69.18359375 212.7 C 64.30139611799999 212.7 60.34359375 208.73772048 60.34359375 203.85000000000002 Z"/></g><g><path fill="none" stroke="#000000" paint-order="fill stroke markers" d=" M 60.34359375 203.85000000000002 C 60.34359375 198.96227952000004 64.30139611799999 195 69.18359375 195 C 74.06579138200001 195 78.02359375 198.96227952000004 78.02359375 203.85000000000002 C 78.02359375 208.73772048 74.06579138200001 212.7 69.18359375 212.7 C 64.30139611799999 212.7 60.34359375 208.73772048 60.34359375 203.85000000000002 Z" stroke-miterlimit="10" stroke-dasharray=""/></g><g><path fill="none" stroke="#000000" paint-order="fill stroke markers" d=" M 69.18359375 212.7 L 69.18359375 230.3" stroke-miterlimit="10" stroke-dasharray=""/></g><g><path fill="none" stroke="#000000" paint-order="fill stroke markers" d=" M 59.823593749999986 219.3 L 78.54359375000001 219.3" stroke-miterlimit="10" stroke-dasharray=""/></g><g><path fill="none" stroke="#000000" paint-order="fill stroke markers" d=" M 69.18359375 230.3 L 56.18359375 248" stroke-miterlimit="10" stroke-dasharray=""/></g><g><path fill="none" stroke="#000000" paint-order="fill stroke markers" d=" M 69.18359375 230.3 L 82.18359375 248" stroke-miterlimit="10" stroke-dasharray=""/></g><g><g><path fill="none" stroke="none"/><text fill="#000000" stroke="none" font-family="Arial" font-size="13px" font-style="normal" font-weight="bold" text-decoration="undefined" x="205.68359375" y="391.5" text-anchor="middle" dominant-baseline="central" transform="matrix(1 0 0 1 -136 -129)">Sensore simulato</text></g></g><g><path fill="#C0C0C0" stroke="none" paint-order="stroke fill markers" d=" M 225 251.5 C 225 236.86445279999998 276.93496319999997 225 341 225 C 405.06503680000003 225 457 236.86445279999998 457 251.5 C 457 266.1355472 405.06503680000003 278 341 278 C 276.93496319999997 278 225 266.1355472 225 251.5 Z" fill-opacity="0.2"/></g><g><path fill="#ffffff" stroke="none" paint-order="stroke fill markers" d=" M 218 244.5 C 218 229.86445279999998 269.93496319999997 218 334 218 C 398.06503680000003 218 450 229.86445279999998 450 244.5 C 450 259.1355472 398.06503680000003 271 334 271 C 269.93496319999997 271 218 259.1355472 218 244.5 Z"/></g><g><path fill="none" stroke="#000000" paint-order="fill stroke markers" d=" M 218 244.5 C 218 229.86445279999998 269.93496319999997 218 334 218 C 398.06503680000003 218 450 229.86445279999998 450 244.5 C 450 259.1355472 398.06503680000003 271 334 271 C 269.93496319999997 271 218 259.1355472 218 244.5 Z" stroke-miterlimit="10" stroke-dasharray=""/></g><g><g><path fill="none" stroke="none"/><text fill="#000000" stroke="none" font-family="Arial" font-size="13px" font-style="normal" font-weight="bold" text-decoration="undefined" x="470" y="368" text-anchor="middle" dominant-baseline="central" transform="matrix(1 0 0 1 -136 -129)">UC152 - Invio nuovo</text><text fill="#000000" stroke="none" font-family="Arial" font-size="13px" font-style="normal" font-weight="bold" text-decoration="undefined" x="470" y="381" text-anchor="middle" dominant-baseline="central" transform="matrix(1 0 0 1 -136 -129)">dato al Gateway</text></g></g><g><path fill="#C0C0C0" stroke="none" paint-order="stroke fill markers" d=" M 241 83.5 C 241 68.86445280000001 289.3532416 57 349 57 C 408.64675839999995 57 457 68.86445280000001 457 83.5 C 457 98.13554719999999 408.64675839999995 110 349 110 C 289.3532416 110 241 98.13554719999999 241 83.5 Z" fill-opacity="0.2"/></g><g><path fill="#ffffff" stroke="none" paint-order="stroke fill markers" d=" M 234 76.5 C 234 61.86445280000001 282.3532416 50 342 50 C 401.64675839999995 50 450 61.86445280000001 450 76.5 C 450 91.13554719999999 401.64675839999995 103 342 103 C 282.3532416 103 234 91.13554719999999 234 76.5 Z"/></g><g><path fill="none" stroke="#000000" paint-order="fill stroke markers" d=" M 234 76.5 C 234 61.86445280000001 282.3532416 50 342 50 C 401.64675839999995 50 450 61.86445280000001 450 76.5 C 450 91.13554719999999 401.64675839999995 103 342 103 C 282.3532416 103 234 91.13554719999999 234 76.5 Z" stroke-miterlimit="10" stroke-dasharray=""/></g><g><g><path fill="none" stroke="none"/><text fill="#000000" stroke="none" font-family="Arial" font-size="13px" font-style="normal" font-weight="bold" text-decoration="undefined" x="478" y="200" text-anchor="middle" dominant-baseline="central" transform="matrix(1 0 0 1 -136 -129)">UC153 - Invio di dati</text><text fill="#000000" stroke="none" font-family="Arial" font-size="13px" font-style="normal" font-weight="bold" text-decoration="undefined" x="478" y="213" text-anchor="middle" dominant-baseline="central" transform="matrix(1 0 0 1 -136 -129)">eccessivi al Gateway</text></g></g><g><path fill="none" stroke="#000000" paint-order="fill stroke markers" d=" M 341 104 L 335 217" stroke-miterlimit="10" stroke-dasharray="3"/></g><g><path fill="none" stroke="#000000" paint-order="fill stroke markers" d=" M 331.33525572048205 206.6284210765313 L 335 217 L 339.7424482570344 207.07482068024206" stroke-miterlimit="10" stroke-dasharray=""/></g><g><rect fill="#ffffff" stroke="none" x="427" y="283" width="53.49169921875" height="13" transform="matrix(1 0 0 1 -136 -129)"/></g><g><g><path fill="none" stroke="none"/><text fill="#000000" stroke="none" font-family="Arial" font-size="13px" font-style="normal" font-weight="normal" text-decoration="undefined" x="453.745849609375" y="289.5" text-anchor="middle" dominant-baseline="central" transform="matrix(1 0 0 1 -136 -129)">«extend»</text></g></g><g><path fill="none" stroke="#000000" paint-order="fill stroke markers" d=" M 129 236 L 217 240" stroke-miterlimit="10" stroke-dasharray=""/></g><g><path fill="#C0C0C0" stroke="none" paint-order="stroke fill markers" d=" M 537 101 C 537 81.1177472 587.1441024 65 649 65 C 710.8558976 65 761 81.1177472 761 101 C 761 120.8822528 710.8558976 137 649 137 C 587.1441024 137 537 120.8822528 537 101 Z" fill-opacity="0.2"/></g><g><path fill="#ffffff" stroke="none" paint-order="stroke fill markers" d=" M 530 94 C 530 74.1177472 580.1441024 58 642 58 C 703.8558976 58 754 74.1177472 754 94 C 754 113.8822528 703.8558976 130 642 130 C 580.1441024 130 530 113.8822528 530 94 Z"/></g><g><path fill="none" stroke="#000000" paint-order="fill stroke markers" d=" M 530 94 C 530 74.1177472 580.1441024 58 642 58 C 703.8558976 58 754 74.1177472 754 94 C 754 113.8822528 703.8558976 130 642 130 C 580.1441024 130 530 113.8822528 530 94 Z" stroke-miterlimit="10" stroke-dasharray=""/></g><g><g><path fill="none" stroke="none"/><text fill="#000000" stroke="none" font-family="Arial" font-size="13px" font-style="normal" font-weight="bold" text-decoration="undefined" x="778" y="211" text-anchor="middle" dominant-baseline="central" transform="matrix(1 0 0 1 -136 -129)">UC154 - Invio di dato</text><text fill="#000000" stroke="none" font-family="Arial" font-size="13px" font-style="normal" font-weight="bold" text-decoration="undefined" x="778" y="224" text-anchor="middle" dominant-baseline="central" transform="matrix(1 0 0 1 -136 -129)">simulando Heart Rate</text><text fill="#000000" stroke="none" font-family="Arial" font-size="13px" font-style="normal" font-weight="bold" text-decoration="undefined" x="778" y="237" text-anchor="middle" dominant-baseline="central" transform="matrix(1 0 0 1 -136 -129)">Service</text></g></g><g><path fill="none" stroke="#000000" paint-order="fill stroke markers" d=" M 566 131 L 389 217" stroke-miterlimit="10" stroke-dasharray=""/></g><g><path fill="#FFFFFF" stroke="none" paint-order="stroke fill markers" d=" M 403.6023590115053 200.54487583458854 L 389 217 L 410.96095696098496 215.68989719572687"/></g><g><path fill="none" stroke="#000000" paint-order="fill stroke markers" d=" M 403.6023590115053 200.54487583458854 L 389 217 L 410.96095696098496 215.68989719572687 L 403.6023590115053 200.54487583458854" stroke-miterlimit="10" stroke-dasharray=""/></g><g><path fill="#C0C0C0" stroke="none" paint-order="stroke fill markers" d=" M 609 221 C 609 201.1177472 657.3532416 185 717 185 C 776.6467584 185 825 201.1177472 825 221 C 825 240.8822528 776.6467584 257 717 257 C 657.3532416 257 609 240.8822528 609 221 Z" fill-opacity="0.2"/></g><g><path fill="#ffffff" stroke="none" paint-order="stroke fill markers" d=" M 602 214 C 602 194.1177472 650.3532416 178 710 178 C 769.6467584 178 818 194.1177472 818 214 C 818 233.8822528 769.6467584 250 710 250 C 650.3532416 250 602 233.8822528 602 214 Z"/></g><g><path fill="none" stroke="#000000" paint-order="fill stroke markers" d=" M 602 214 C 602 194.1177472 650.3532416 178 710 178 C 769.6467584 178 818 194.1177472 818 214 C 818 233.8822528 769.6467584 250 710 250 C 650.3532416 250 602 233.8822528 602 214 Z" stroke-miterlimit="10" stroke-dasharray=""/></g><g><g><path fill="none" stroke="none"/><text fill="#000000" stroke="none" font-family="Arial" font-size="13px" font-style="normal" font-weight="bold" text-decoration="undefined" x="846" y="331" text-anchor="middle" dominant-baseline="central" transform="matrix(1 0 0 1 -136 -129)">UC155 - Invio di dato</text><text fill="#000000" stroke="none" font-family="Arial" font-size="13px" font-style="normal" font-weight="bold" text-decoration="undefined" x="846" y="344" text-anchor="middle" dominant-baseline="central" transform="matrix(1 0 0 1 -136 -129)">simulando Pulse</text><text fill="#000000" stroke="none" font-family="Arial" font-size="13px" font-style="normal" font-weight="bold" text-decoration="undefined" x="846" y="357" text-anchor="middle" dominant-baseline="central" transform="matrix(1 0 0 1 -136 -129)">Oximeter Service</text></g></g><g><path fill="none" stroke="#000000" paint-order="fill stroke markers" d=" M 601 223 L 451 235" stroke-miterlimit="10" stroke-dasharray=""/></g><g><path fill="#FFFFFF" stroke="none" paint-order="stroke fill markers" d=" M 470.5892412794349 224.98692724004837 L 451 235 L 471.93199699606396 241.7713736979117"/></g><g><path fill="none" stroke="#000000" paint-order="fill stroke markers" d=" M 470.5892412794349 224.98692724004837 L 451 235 L 471.93199699606396 241.7713736979117 L 470.5892412794349 224.98692724004837" stroke-miterlimit="10" stroke-dasharray=""/></g><g><path fill="#C0C0C0" stroke="none" paint-order="stroke fill markers" d=" M 585 342 C 585 317.147184 627.9806592 297 681 297 C 734.0193408 297 777 317.147184 777 342 C 777 366.852816 734.0193408 387 681 387 C 627.9806592 387 585 366.852816 585 342 Z" fill-opacity="0.2"/></g><g><path fill="#ffffff" stroke="none" paint-order="stroke fill markers" d=" M 578 335 C 578 310.147184 620.9806592 290 674 290 C 727.0193408 290 770 310.147184 770 335 C 770 359.852816 727.0193408 380 674 380 C 620.9806592 380 578 359.852816 578 335 Z"/></g><g><path fill="none" stroke="#000000" paint-order="fill stroke markers" d=" M 578 335 C 578 310.147184 620.9806592 290 674 290 C 727.0193408 290 770 310.147184 770 335 C 770 359.852816 727.0193408 380 674 380 C 620.9806592 380 578 359.852816 578 335 Z" stroke-miterlimit="10" stroke-dasharray=""/></g><g><g><path fill="none" stroke="none"/><text fill="#000000" stroke="none" font-family="Arial" font-size="13px" font-style="normal" font-weight="bold" text-decoration="undefined" x="810" y="452" text-anchor="middle" dominant-baseline="central" transform="matrix(1 0 0 1 -136 -129)">UC156 - Invio di</text><text fill="#000000" stroke="none" font-family="Arial" font-size="13px" font-style="normal" font-weight="bold" text-decoration="undefined" x="810" y="465" text-anchor="middle" dominant-baseline="central" transform="matrix(1 0 0 1 -136 -129)">dato simulando</text><text fill="#000000" stroke="none" font-family="Arial" font-size="13px" font-style="normal" font-weight="bold" text-decoration="undefined" x="810" y="478" text-anchor="middle" dominant-baseline="central" transform="matrix(1 0 0 1 -136 -129)">ECG Custom Profile</text></g></g><g><path fill="none" stroke="#000000" paint-order="fill stroke markers" d=" M 577 309 L 439 272" stroke-miterlimit="10" stroke-dasharray=""/></g><g><path fill="#FFFFFF" stroke="none" paint-order="stroke fill markers" d=" M 460.81223342601345 269.1318171311609 L 439 272 L 456.45168972459714 285.39546661211875"/></g><g><path fill="none" stroke="#000000" paint-order="fill stroke markers" d=" M 460.81223342601345 269.1318171311609 L 439 272 L 456.45168972459714 285.39546661211875 L 460.81223342601345 269.1318171311609" stroke-miterlimit="10" stroke-dasharray=""/></g><g><path fill="#C0C0C0" stroke="none" paint-order="stroke fill markers" d=" M 521 477 C 521 457.11774720000005 572.9349632 441 637 441 C 701.0650368 441 753 457.11774720000005 753 477 C 753 496.88225279999995 701.0650368 513 637 513 C 572.9349632 513 521 496.88225279999995 521 477 Z" fill-opacity="0.2"/></g><g><path fill="#ffffff" stroke="none" paint-order="stroke fill markers" d=" M 514 470 C 514 450.11774720000005 565.9349632 434 630 434 C 694.0650368 434 746 450.11774720000005 746 470 C 746 489.88225279999995 694.0650368 506 630 506 C 565.9349632 506 514 489.88225279999995 514 470 Z"/></g><g><path fill="none" stroke="#000000" paint-order="fill stroke markers" d=" M 514 470 C 514 450.11774720000005 565.9349632 434 630 434 C 694.0650368 434 746 450.11774720000005 746 470 C 746 489.88225279999995 694.0650368 506 630 506 C 565.9349632 506 514 489.88225279999995 514 470 Z" stroke-miterlimit="10" stroke-dasharray=""/></g><g><g><path fill="none" stroke="none"/><text fill="#000000" stroke="none" font-family="Arial" font-size="13px" font-style="normal" font-weight="bold" text-decoration="undefined" x="766" y="587" text-anchor="middle" dominant-baseline="central" transform="matrix(1 0 0 1 -136 -129)">UC157 - Invio di dato</text><text fill="#000000" stroke="none" font-family="Arial" font-size="13px" font-style="normal" font-weight="bold" text-decoration="undefined" x="766" y="600" text-anchor="middle" dominant-baseline="central" transform="matrix(1 0 0 1 -136 -129)">simulando Health</text><text fill="#000000" stroke="none" font-family="Arial" font-size="13px" font-style="normal" font-weight="bold" text-decoration="undefined" x="766" y="613" text-anchor="middle" dominant-baseline="central" transform="matrix(1 0 0 1 -136 -129)">Thermometer Service</text></g></g><g><path fill="none" stroke="#000000" paint-order="fill stroke markers" d=" M 582 433 L 371 272" stroke-miterlimit="10" stroke-dasharray=""/></g><g><path fill="#FFFFFF" stroke="none" paint-order="stroke fill markers" d=" M 392.26571063791005 277.6364484442491 L 371 272 L 382.05155728208024 291.022699115554"/></g><g><path fill="none" stroke="#000000" paint-order="fill stroke markers" d=" M 392.26571063791005 277.6364484442491 L 371 272 L 382.05155728208024 291.022699115554 L 392.26571063791005 277.6364484442491" stroke-miterlimit="10" stroke-dasharray=""/></g><g><path fill="#C0C0C0" stroke="none" paint-order="stroke fill markers" d=" M 249 478 C 249 453.14718400000004 299.1441024 433 361 433 C 422.85589760000005 433 473 453.14718400000004 473 478 C 473 502.85281599999996 422.85589760000005 523 361 523 C 299.1441024 523 249 502.85281599999996 249 478 Z" fill-opacity="0.2"/></g><g><path fill="#ffffff" stroke="none" paint-order="stroke fill markers" d=" M 242 471 C 242 446.14718400000004 292.1441024 426 354 426 C 415.85589760000005 426 466 446.14718400000004 466 471 C 466 495.85281599999996 415.85589760000005 516 354 516 C 292.1441024 516 242 495.85281599999996 242 471 Z"/></g><g><path fill="none" stroke="#000000" paint-order="fill stroke markers" d=" M 242 471 C 242 446.14718400000004 292.1441024 426 354 426 C 415.85589760000005 426 466 446.14718400000004 466 471 C 466 495.85281599999996 415.85589760000005 516 354 516 C 292.1441024 516 242 495.85281599999996 242 471 Z" stroke-miterlimit="10" stroke-dasharray=""/></g><g><g><path fill="none" stroke="none"/><text fill="#000000" stroke="none" font-family="Arial" font-size="13px" font-style="normal" font-weight="bold" text-decoration="undefined" x="490" y="581.5" text-anchor="middle" dominant-baseline="central" transform="matrix(1 0 0 1 -136 -129)">UC158 - Invio di dati</text><text fill="#000000" stroke="none" font-family="Arial" font-size="13px" font-style="normal" font-weight="bold" text-decoration="undefined" x="490" y="594.5" text-anchor="middle" dominant-baseline="central" transform="matrix(1 0 0 1 -136 -129)">simulando</text><text fill="#000000" stroke="none" font-family="Arial" font-size="13px" font-style="normal" font-weight="bold" text-decoration="undefined" x="490" y="607.5" text-anchor="middle" dominant-baseline="central" transform="matrix(1 0 0 1 -136 -129)">Environmental Sensing</text><text fill="#000000" stroke="none" font-family="Arial" font-size="13px" font-style="normal" font-weight="bold" text-decoration="undefined" x="490" y="620.5" text-anchor="middle" dominant-baseline="central" transform="matrix(1 0 0 1 -136 -129)">Service</text></g></g><g><path fill="none" stroke="#000000" paint-order="fill stroke markers" d=" M 350 425 L 336 272" stroke-miterlimit="10" stroke-dasharray=""/></g><g><path fill="#FFFFFF" stroke="none" paint-order="stroke fill markers" d=" M 346.236108071133 291.4736255370202 L 336 272 L 329.468088758542 293.00795410157104"/></g><g><path fill="none" stroke="#000000" paint-order="fill stroke markers" d=" M 346.236108071133 291.4736255370202 L 336 272 L 329.468088758542 293.00795410157104 L 346.236108071133 291.4736255370202" stroke-miterlimit="10" stroke-dasharray=""/></g></g></svg>