<svg version="1.1" xmlns="http://www.w3.org/2000/svg" xmlns:xlink="http://www.w3.org/1999/xlink" width="773" height="356"><defs/><g><g><rect fill="#C0C0C0" stroke="none" x="301" y="250" width="640" height="336" transform="matrix(1 0 0 1 -172 -233)" fill-opacity="0.2"/></g><g><rect fill="#ffffff" stroke="none" x="294" y="243" width="640" height="336" transform="matrix(1 0 0 1 -172 -233)"/></g><g><path fill="none" stroke="#000000" paint-order="fill stroke markers" d=" M 122 10 L 762 10 L 762 346 L 122 346 L 122 10 Z Z" stroke-miterlimit="10" stroke-dasharray=""/></g><g><g><path fill="none" stroke="none"/><text fill="#000000" stroke="none" font-family="Arial" font-size="13px" font-style="normal" font-weight="bold" text-decoration="undefined" x="614.5" y="256.5" text-anchor="middle" dominant-baseline="central" transform="matrix(1 0 0 1 -172 -233)">Sistema Gateway</text></g></g><g><path fill="#ffffff" stroke="none" paint-order="stroke fill markers" d=" M 26.748623046874997 99.85000000000002 C 26.748623046874997 94.96227952000004 30.706425414874985 91 35.588623046875 91 C 40.470820678875015 91 44.428623046875 94.96227952000004 44.428623046875 99.85000000000002 C 44.428623046875 104.73772048000001 40.470820678875015 108.69999999999999 35.588623046875 108.69999999999999 C 30.706425414874985 108.69999999999999 26.748623046874997 104.73772048000001 26.748623046874997 99.85000000000002 Z"/></g><g><path fill="none" stroke="#000000" paint-order="fill stroke markers" d=" M 26.748623046874997 99.85000000000002 C 26.748623046874997 94.96227952000004 30.706425414874985 91 35.588623046875 91 C 40.470820678875015 91 44.428623046875 94.96227952000004 44.428623046875 99.85000000000002 C 44.428623046875 104.73772048000001 40.470820678875015 108.69999999999999 35.588623046875 108.69999999999999 C 30.706425414874985 108.69999999999999 26.748623046874997 104.73772048000001 26.748623046874997 99.85000000000002 Z" stroke-miterlimit="10" stroke-dasharray=""/></g><g><path fill="none" stroke="#000000" paint-order="fill stroke markers" d=" M 35.588623046875 108.69999999999999 L 35.588623046875 126.30000000000001" stroke-miterlimit="10" stroke-dasharray=""/></g><g><path fill="none" stroke="#000000" paint-order="fill stroke markers" d=" M 26.228623046874986 115.30000000000001 L 44.948623046875014 115.30000000000001" stroke-miterlimit="10" stroke-dasharray=""/></g><g><path fill="none" stroke="#000000" paint-order="fill stroke markers" d=" M 35.588623046875 126.30000000000001 L 22.588623046875 144" stroke-miterlimit="10" stroke-dasharray=""/></g><g><path fill="none" stroke="#000000" paint-order="fill stroke markers" d=" M 35.588623046875 126.30000000000001 L 48.588623046875 144" stroke-miterlimit="10" stroke-dasharray=""/></g><g><g><path fill="none" stroke="none"/><text fill="#000000" stroke="none" font-family="Arial" font-size="13px" font-style="normal" font-weight="bold" text-decoration="undefined" x="208.088623046875" y="391.5" text-anchor="middle" dominant-baseline="central" transform="matrix(1 0 0 1 -172 -233)">Cloud</text></g></g><g><path fill="#C0C0C0" stroke="none" paint-order="stroke fill markers" d=" M 193 133 C 193 113.1177472 248.5166848 97 317 97 C 385.4833152 97 441 113.1177472 441 133 C 441 152.8822528 385.4833152 169 317 169 C 248.5166848 169 193 152.8822528 193 133 Z" fill-opacity="0.2"/></g><g><path fill="#ffffff" stroke="none" paint-order="stroke fill markers" d=" M 186 126 C 186 106.1177472 241.5166848 90 310 90 C 378.4833152 90 434 106.1177472 434 126 C 434 145.8822528 378.4833152 162 310 162 C 241.5166848 162 186 145.8822528 186 126 Z"/></g><g><path fill="none" stroke="#000000" paint-order="fill stroke markers" d=" M 186 126 C 186 106.1177472 241.5166848 90 310 90 C 378.4833152 90 434 106.1177472 434 126 C 434 145.8822528 378.4833152 162 310 162 C 241.5166848 162 186 145.8822528 186 126 Z" stroke-miterlimit="10" stroke-dasharray=""/></g><g><g><path fill="none" stroke="none"/><text fill="#000000" stroke="none" font-family="Arial" font-size="13px" font-style="normal" font-weight="bold" text-decoration="undefined" x="482" y="353.5" text-anchor="middle" dominant-baseline="central" transform="matrix(1 0 0 1 -172 -233)">UC168 - Decommissioning</text><text fill="#000000" stroke="none" font-family="Arial" font-size="13px" font-style="normal" font-weight="bold" text-decoration="undefined" x="482" y="366.5" text-anchor="middle" dominant-baseline="central" transform="matrix(1 0 0 1 -172 -233)">Gateway</text></g></g><g><path fill="#C0C0C0" stroke="none" paint-order="stroke fill markers" d=" M 249 291.5 C 249 276.8644528 306.3075456 265 377 265 C 447.6924544 265 505 276.8644528 505 291.5 C 505 306.1355472 447.6924544 318 377 318 C 306.3075456 318 249 306.1355472 249 291.5 Z" fill-opacity="0.2"/></g><g><path fill="#ffffff" stroke="none" paint-order="stroke fill markers" d=" M 242 284.5 C 242 269.8644528 299.3075456 258 370 258 C 440.6924544 258 498 269.8644528 498 284.5 C 498 299.1355472 440.6924544 311 370 311 C 299.3075456 311 242 299.1355472 242 284.5 Z"/></g><g><path fill="none" stroke="#000000" paint-order="fill stroke markers" d=" M 242 284.5 C 242 269.8644528 299.3075456 258 370 258 C 440.6924544 258 498 269.8644528 498 284.5 C 498 299.1355472 440.6924544 311 370 311 C 299.3075456 311 242 299.1355472 242 284.5 Z" stroke-miterlimit="10" stroke-dasharray=""/></g><g><g><path fill="none" stroke="none"/><text fill="#000000" stroke="none" font-family="Arial" font-size="13px" font-style="normal" font-weight="bold" text-decoration="undefined" x="542" y="512" text-anchor="middle" dominant-baseline="central" transform="matrix(1 0 0 1 -172 -233)">UC168.1 - Disassociazione</text><text fill="#000000" stroke="none" font-family="Arial" font-size="13px" font-style="normal" font-weight="bold" text-decoration="undefined" x="542" y="525" text-anchor="middle" dominant-baseline="central" transform="matrix(1 0 0 1 -172 -233)">tenant Gateway</text></g></g><g><path fill="#C0C0C0" stroke="none" paint-order="stroke fill markers" d=" M 577 131.5 C 577 116.86445279999998 611.0263552 105 653 105 C 694.9736448 105 729 116.86445279999998 729 131.5 C 729 146.13554720000002 694.9736448 158 653 158 C 611.0263552 158 577 146.13554720000002 577 131.5 Z" fill-opacity="0.2"/></g><g><path fill="#ffffff" stroke="none" paint-order="stroke fill markers" d=" M 570 124.5 C 570 109.86445279999998 604.0263552 98 646 98 C 687.9736448 98 722 109.86445279999998 722 124.5 C 722 139.13554720000002 687.9736448 151 646 151 C 604.0263552 151 570 139.13554720000002 570 124.5 Z"/></g><g><path fill="none" stroke="#000000" paint-order="fill stroke markers" d=" M 570 124.5 C 570 109.86445279999998 604.0263552 98 646 98 C 687.9736448 98 722 109.86445279999998 722 124.5 C 722 139.13554720000002 687.9736448 151 646 151 C 604.0263552 151 570 139.13554720000002 570 124.5 Z" stroke-miterlimit="10" stroke-dasharray=""/></g><g><g><path fill="none" stroke="none"/><text fill="#000000" stroke="none" font-family="Arial" font-size="13px" font-style="normal" font-weight="bold" text-decoration="undefined" x="818" y="352" text-anchor="middle" dominant-baseline="central" transform="matrix(1 0 0 1 -172 -233)">UC169 - Reset</text><text fill="#000000" stroke="none" font-family="Arial" font-size="13px" font-style="normal" font-weight="bold" text-decoration="undefined" x="818" y="365" text-anchor="middle" dominant-baseline="central" transform="matrix(1 0 0 1 -172 -233)">Gateway</text></g></g><g><path fill="none" stroke="#000000" paint-order="fill stroke markers" d=" M 324 163 L 360 257" stroke-miterlimit="10" stroke-dasharray="3"/></g><g><path fill="none" stroke="#000000" paint-order="fill stroke markers" d=" M 352.43426053791416 249.01503998808778 L 360 257 L 360.2964336935951 246.00399494974192" stroke-miterlimit="10" stroke-dasharray=""/></g><g><rect fill="#ffffff" stroke="none" x="515" y="426" width="55.65625" height="13" transform="matrix(1 0 0 1 -172 -233)"/></g><g><g><path fill="none" stroke="none"/><text fill="#000000" stroke="none" font-family="Arial" font-size="13px" font-style="normal" font-weight="normal" text-decoration="undefined" x="542.828125" y="432.5" text-anchor="middle" dominant-baseline="central" transform="matrix(1 0 0 1 -172 -233)">«include»</text></g></g><g><path fill="none" stroke="#000000" paint-order="fill stroke markers" d=" M 435 125 L 569 124" stroke-miterlimit="10" stroke-dasharray="3"/></g><g><path fill="none" stroke="#000000" paint-order="fill stroke markers" d=" M 558.8690215557198 128.285239288713 L 569 124 L 558.8061946819387 119.86643820205074" stroke-miterlimit="10" stroke-dasharray=""/></g><g><rect fill="#ffffff" stroke="none" x="647" y="321" width="55.65625" height="13" transform="matrix(1 0 0 1 -172 -233)"/></g><g><g><path fill="none" stroke="none"/><text fill="#000000" stroke="none" font-family="Arial" font-size="13px" font-style="normal" font-weight="normal" text-decoration="undefined" x="674.828125" y="327.5" text-anchor="middle" dominant-baseline="central" transform="matrix(1 0 0 1 -172 -233)">«include»</text></g></g><g><path fill="none" stroke="#000000" paint-order="fill stroke markers" d=" M 62 130 L 185 128" stroke-miterlimit="10" stroke-dasharray=""/></g></g></svg>