<svg version="1.1" xmlns="http://www.w3.org/2000/svg" xmlns:xlink="http://www.w3.org/1999/xlink" width="797" height="356"><defs/><g><g><rect fill="#C0C0C0" stroke="none" x="297" y="250" width="656" height="336" transform="matrix(1 0 0 1 -160 -233)" fill-opacity="0.2"/></g><g><rect fill="#ffffff" stroke="none" x="290" y="243" width="656" height="336" transform="matrix(1 0 0 1 -160 -233)"/></g><g><path fill="none" stroke="#000000" paint-order="fill stroke markers" d=" M 130 10 L 786 10 L 786 346 L 130 346 L 130 10 Z Z" stroke-miterlimit="10" stroke-dasharray=""/></g><g><g><path fill="none" stroke="none"/><text fill="#000000" stroke="none" font-family="Arial" font-size="13px" font-style="normal" font-weight="bold" text-decoration="undefined" x="618.5" y="256.5" text-anchor="middle" dominant-baseline="central" transform="matrix(1 0 0 1 -160 -233)">Sistema Gateway</text></g></g><g><path fill="#C0C0C0" stroke="none" paint-order="stroke fill markers" d=" M 177 133 C 177 113.1177472 228.93496319999997 97 293 97 C 357.06503680000003 97 409 113.1177472 409 133 C 409 152.8822528 357.06503680000003 169 293 169 C 228.93496319999997 169 177 152.8822528 177 133 Z" fill-opacity="0.2"/></g><g><path fill="#ffffff" stroke="none" paint-order="stroke fill markers" d=" M 170 126 C 170 106.1177472 221.93496319999997 90 286 90 C 350.06503680000003 90 402 106.1177472 402 126 C 402 145.8822528 350.06503680000003 162 286 162 C 221.93496319999997 162 170 145.8822528 170 126 Z"/></g><g><path fill="none" stroke="#000000" paint-order="fill stroke markers" d=" M 170 126 C 170 106.1177472 221.93496319999997 90 286 90 C 350.06503680000003 90 402 106.1177472 402 126 C 402 145.8822528 350.06503680000003 162 286 162 C 221.93496319999997 162 170 145.8822528 170 126 Z" stroke-miterlimit="10" stroke-dasharray=""/></g><g><g><path fill="none" stroke="none"/><text fill="#000000" stroke="none" font-family="Arial" font-size="13px" font-style="normal" font-weight="bold" text-decoration="undefined" x="446" y="353.5" text-anchor="middle" dominant-baseline="central" transform="matrix(1 0 0 1 -160 -233)">UC161 - Assegnazione</text><text fill="#000000" stroke="none" font-family="Arial" font-size="13px" font-style="normal" font-weight="bold" text-decoration="undefined" x="446" y="366.5" text-anchor="middle" dominant-baseline="central" transform="matrix(1 0 0 1 -160 -233)">tenant al Gateway</text></g></g><g><path fill="#ffffff" stroke="none" paint-order="stroke fill markers" d=" M 26.748623046874997 99.85000000000002 C 26.748623046874997 94.96227952000004 30.706425414874985 91 35.588623046875 91 C 40.470820678875015 91 44.428623046875 94.96227952000004 44.428623046875 99.85000000000002 C 44.428623046875 104.73772048000001 40.470820678875015 108.69999999999999 35.588623046875 108.69999999999999 C 30.706425414874985 108.69999999999999 26.748623046874997 104.73772048000001 26.748623046874997 99.85000000000002 Z"/></g><g><path fill="none" stroke="#000000" paint-order="fill stroke markers" d=" M 26.748623046874997 99.85000000000002 C 26.748623046874997 94.96227952000004 30.706425414874985 91 35.588623046875 91 C 40.470820678875015 91 44.428623046875 94.96227952000004 44.428623046875 99.85000000000002 C 44.428623046875 104.73772048000001 40.470820678875015 108.69999999999999 35.588623046875 108.69999999999999 C 30.706425414874985 108.69999999999999 26.748623046874997 104.73772048000001 26.748623046874997 99.85000000000002 Z" stroke-miterlimit="10" stroke-dasharray=""/></g><g><path fill="none" stroke="#000000" paint-order="fill stroke markers" d=" M 35.588623046875 108.69999999999999 L 35.588623046875 126.30000000000001" stroke-miterlimit="10" stroke-dasharray=""/></g><g><path fill="none" stroke="#000000" paint-order="fill stroke markers" d=" M 26.228623046874986 115.30000000000001 L 44.948623046875014 115.30000000000001" stroke-miterlimit="10" stroke-dasharray=""/></g><g><path fill="none" stroke="#000000" paint-order="fill stroke markers" d=" M 35.588623046875 126.30000000000001 L 22.588623046875 144" stroke-miterlimit="10" stroke-dasharray=""/></g><g><path fill="none" stroke="#000000" paint-order="fill stroke markers" d=" M 35.588623046875 126.30000000000001 L 48.588623046875 144" stroke-miterlimit="10" stroke-dasharray=""/></g><g><g><path fill="none" stroke="none"/><text fill="#000000" stroke="none" font-family="Arial" font-size="13px" font-style="normal" font-weight="bold" text-decoration="undefined" x="196.088623046875" y="391.5" text-anchor="middle" dominant-baseline="central" transform="matrix(1 0 0 1 -160 -233)">Cloud</text></g></g><g><path fill="#C0C0C0" stroke="none" paint-order="stroke fill markers" d=" M 513 133 C 513 113.1177472 564.9349632 97 629 97 C 693.0650368 97 745 113.1177472 745 133 C 745 152.8822528 693.0650368 169 629 169 C 564.9349632 169 513 152.8822528 513 133 Z" fill-opacity="0.2"/></g><g><path fill="#ffffff" stroke="none" paint-order="stroke fill markers" d=" M 506 126 C 506 106.1177472 557.9349632 90 622 90 C 686.0650368 90 738 106.1177472 738 126 C 738 145.8822528 686.0650368 162 622 162 C 557.9349632 162 506 145.8822528 506 126 Z"/></g><g><path fill="none" stroke="#000000" paint-order="fill stroke markers" d=" M 506 126 C 506 106.1177472 557.9349632 90 622 90 C 686.0650368 90 738 106.1177472 738 126 C 738 145.8822528 686.0650368 162 622 162 C 557.9349632 162 506 145.8822528 506 126 Z" stroke-miterlimit="10" stroke-dasharray=""/></g><g><g><path fill="none" stroke="none"/><text fill="#000000" stroke="none" font-family="Arial" font-size="13px" font-style="normal" font-weight="bold" text-decoration="undefined" x="782" y="353.5" text-anchor="middle" dominant-baseline="central" transform="matrix(1 0 0 1 -160 -233)">UC161.1 - Invio tenant</text><text fill="#000000" stroke="none" font-family="Arial" font-size="13px" font-style="normal" font-weight="bold" text-decoration="undefined" x="782" y="366.5" text-anchor="middle" dominant-baseline="central" transform="matrix(1 0 0 1 -160 -233)">associato al Gateway</text></g></g><g><path fill="#C0C0C0" stroke="none" paint-order="stroke fill markers" d=" M 377 293 C 377 273.1177472 430.725824 257 497 257 C 563.274176 257 617 273.1177472 617 293 C 617 312.88225279999995 563.274176 329 497 329 C 430.725824 329 377 312.88225279999995 377 293 Z" fill-opacity="0.2"/></g><g><path fill="#ffffff" stroke="none" paint-order="stroke fill markers" d=" M 370 286 C 370 266.1177472 423.725824 250 490 250 C 556.274176 250 610 266.1177472 610 286 C 610 305.88225279999995 556.274176 322 490 322 C 423.725824 322 370 305.88225279999995 370 286 Z"/></g><g><path fill="none" stroke="#000000" paint-order="fill stroke markers" d=" M 370 286 C 370 266.1177472 423.725824 250 490 250 C 556.274176 250 610 266.1177472 610 286 C 610 305.88225279999995 556.274176 322 490 322 C 423.725824 322 370 305.88225279999995 370 286 Z" stroke-miterlimit="10" stroke-dasharray=""/></g><g><g><path fill="none" stroke="none"/><text fill="#000000" stroke="none" font-family="Arial" font-size="13px" font-style="normal" font-weight="bold" text-decoration="undefined" x="650" y="513.5" text-anchor="middle" dominant-baseline="central" transform="matrix(1 0 0 1 -160 -233)">UC161.2 - Invio chiave</text><text fill="#000000" stroke="none" font-family="Arial" font-size="13px" font-style="normal" font-weight="bold" text-decoration="undefined" x="650" y="526.5" text-anchor="middle" dominant-baseline="central" transform="matrix(1 0 0 1 -160 -233)">per la cifratura dei dati</text></g></g><g><path fill="none" stroke="#000000" paint-order="fill stroke markers" d=" M 62 130 L 169 128" stroke-miterlimit="10" stroke-dasharray=""/></g><g><path fill="none" stroke="#000000" paint-order="fill stroke markers" d=" M 403 126 L 505 126" stroke-miterlimit="10" stroke-dasharray="3"/></g><g><path fill="none" stroke="#000000" paint-order="fill stroke markers" d=" M 494.8373251423759 130.209517756016 L 505 126 L 494.8373251423758 121.790482243984" stroke-miterlimit="10" stroke-dasharray=""/></g><g><rect fill="#ffffff" stroke="none" x="587" y="323" width="55.65625" height="13" transform="matrix(1 0 0 1 -160 -233)"/></g><g><g><path fill="none" stroke="none"/><text fill="#000000" stroke="none" font-family="Arial" font-size="13px" font-style="normal" font-weight="normal" text-decoration="undefined" x="614.828125" y="329.5" text-anchor="middle" dominant-baseline="central" transform="matrix(1 0 0 1 -160 -233)">«include»</text></g></g><g><path fill="none" stroke="#000000" paint-order="fill stroke markers" d=" M 333 163 L 443 249" stroke-miterlimit="10" stroke-dasharray="3"/></g><g><path fill="none" stroke="#000000" paint-order="fill stroke markers" d=" M 432.40103746428815 246.05687357278424 L 443 249 L 437.5865063720296 239.42429706288237" stroke-miterlimit="10" stroke-dasharray=""/></g><g><rect fill="#ffffff" stroke="none" x="539" y="409" width="55.65625" height="13" transform="matrix(1 0 0 1 -160 -233)"/></g><g><g><path fill="none" stroke="none"/><text fill="#000000" stroke="none" font-family="Arial" font-size="13px" font-style="normal" font-weight="normal" text-decoration="undefined" x="566.828125" y="415.5" text-anchor="middle" dominant-baseline="central" transform="matrix(1 0 0 1 -160 -233)">«include»</text></g></g></g></svg>