<svg version="1.1" xmlns="http://www.w3.org/2000/svg" xmlns:xlink="http://www.w3.org/1999/xlink" width="789" height="324"><defs/><g><g><rect fill="#C0C0C0" stroke="none" x="400" y="462" width="640" height="304" transform="matrix(1 0 0 1 -255 -445)" fill-opacity="0.2"/></g><g><rect fill="#ffffff" stroke="none" x="393" y="455" width="640" height="304" transform="matrix(1 0 0 1 -255 -445)"/></g><g><path fill="none" stroke="#000000" paint-order="fill stroke markers" d=" M 138 10 L 778 10 L 778 314 L 138 314 L 138 10 Z Z" stroke-miterlimit="10" stroke-dasharray=""/></g><g><g><path fill="none" stroke="none"/><text fill="#000000" stroke="none" font-family="Arial" font-size="13px" font-style="normal" font-weight="bold" text-decoration="undefined" x="713.5" y="468.5" text-anchor="middle" dominant-baseline="central" transform="matrix(1 0 0 1 -255 -445)">Sistema Gateway</text></g></g><g><path fill="#ffffff" stroke="none" paint-order="stroke fill markers" d=" M 26.748623046875025 67.85000000000002 C 26.748623046875025 62.96227952000004 30.706425414875014 59 35.588623046875 59 C 40.470820678874986 59 44.428623046874975 62.96227952000004 44.428623046874975 67.85000000000002 C 44.428623046874975 72.73772048000001 40.470820678874986 76.70000000000005 35.588623046875 76.70000000000005 C 30.706425414875014 76.70000000000005 26.748623046875025 72.73772048000001 26.748623046875025 67.85000000000002 Z"/></g><g><path fill="none" stroke="#000000" paint-order="fill stroke markers" d=" M 26.748623046875025 67.85000000000002 C 26.748623046875025 62.96227952000004 30.706425414875014 59 35.588623046875 59 C 40.470820678874986 59 44.428623046874975 62.96227952000004 44.428623046874975 67.85000000000002 C 44.428623046874975 72.73772048000001 40.470820678874986 76.70000000000005 35.588623046875 76.70000000000005 C 30.706425414875014 76.70000000000005 26.748623046875025 72.73772048000001 26.748623046875025 67.85000000000002 Z" stroke-miterlimit="10" stroke-dasharray=""/></g><g><path fill="none" stroke="#000000" paint-order="fill stroke markers" d=" M 35.588623046875 76.70000000000005 L 35.588623046875 94.29999999999995" stroke-miterlimit="10" stroke-dasharray=""/></g><g><path fill="none" stroke="#000000" paint-order="fill stroke markers" d=" M 26.228623046874986 83.29999999999995 L 44.948623046875014 83.29999999999995" stroke-miterlimit="10" stroke-dasharray=""/></g><g><path fill="none" stroke="#000000" paint-order="fill stroke markers" d=" M 35.588623046875 94.29999999999995 L 22.588623046875 112" stroke-miterlimit="10" stroke-dasharray=""/></g><g><path fill="none" stroke="#000000" paint-order="fill stroke markers" d=" M 35.588623046875 94.29999999999995 L 48.588623046875 112" stroke-miterlimit="10" stroke-dasharray=""/></g><g><g><path fill="none" stroke="none"/><text fill="#000000" stroke="none" font-family="Arial" font-size="13px" font-style="normal" font-weight="bold" text-decoration="undefined" x="291.088623046875" y="571.5" text-anchor="middle" dominant-baseline="central" transform="matrix(1 0 0 1 -255 -445)">Cloud</text></g></g><g><path fill="#C0C0C0" stroke="none" paint-order="stroke fill markers" d=" M 193 101 C 193 81.11774720000005 248.5166848 65 317 65 C 385.4833152 65 441 81.11774720000005 441 101 C 441 120.88225279999995 385.4833152 137 317 137 C 248.5166848 137 193 120.88225279999995 193 101 Z" fill-opacity="0.2"/></g><g><path fill="#ffffff" stroke="none" paint-order="stroke fill markers" d=" M 186 94 C 186 74.11774720000005 241.5166848 58 310 58 C 378.4833152 58 434 74.11774720000005 434 94 C 434 113.88225279999995 378.4833152 130 310 130 C 241.5166848 130 186 113.88225279999995 186 94 Z"/></g><g><path fill="none" stroke="#000000" paint-order="fill stroke markers" d=" M 186 94 C 186 74.11774720000005 241.5166848 58 310 58 C 378.4833152 58 434 74.11774720000005 434 94 C 434 113.88225279999995 378.4833152 130 310 130 C 241.5166848 130 186 113.88225279999995 186 94 Z" stroke-miterlimit="10" stroke-dasharray=""/></g><g><g><path fill="none" stroke="none"/><text fill="#000000" stroke="none" font-family="Arial" font-size="13px" font-style="normal" font-weight="bold" text-decoration="undefined" x="565" y="533.5" text-anchor="middle" dominant-baseline="central" transform="matrix(1 0 0 1 -255 -445)">UC164 - Decommissioning</text><text fill="#000000" stroke="none" font-family="Arial" font-size="13px" font-style="normal" font-weight="bold" text-decoration="undefined" x="565" y="546.5" text-anchor="middle" dominant-baseline="central" transform="matrix(1 0 0 1 -255 -445)">Gateway</text></g></g><g><path fill="#C0C0C0" stroke="none" paint-order="stroke fill markers" d=" M 249 259.5 C 249 244.86445279999998 306.3075456 233 377 233 C 447.6924544 233 505 244.86445279999998 505 259.5 C 505 274.1355472 447.6924544 286 377 286 C 306.3075456 286 249 274.1355472 249 259.5 Z" fill-opacity="0.2"/></g><g><path fill="#ffffff" stroke="none" paint-order="stroke fill markers" d=" M 242 252.5 C 242 237.86445279999998 299.3075456 226 370 226 C 440.6924544 226 498 237.86445279999998 498 252.5 C 498 267.1355472 440.6924544 279 370 279 C 299.3075456 279 242 267.1355472 242 252.5 Z"/></g><g><path fill="none" stroke="#000000" paint-order="fill stroke markers" d=" M 242 252.5 C 242 237.86445279999998 299.3075456 226 370 226 C 440.6924544 226 498 237.86445279999998 498 252.5 C 498 267.1355472 440.6924544 279 370 279 C 299.3075456 279 242 267.1355472 242 252.5 Z" stroke-miterlimit="10" stroke-dasharray=""/></g><g><g><path fill="none" stroke="none"/><text fill="#000000" stroke="none" font-family="Arial" font-size="13px" font-style="normal" font-weight="bold" text-decoration="undefined" x="625" y="692" text-anchor="middle" dominant-baseline="central" transform="matrix(1 0 0 1 -255 -445)">UC164.1 - Disassociazione</text><text fill="#000000" stroke="none" font-family="Arial" font-size="13px" font-style="normal" font-weight="bold" text-decoration="undefined" x="625" y="705" text-anchor="middle" dominant-baseline="central" transform="matrix(1 0 0 1 -255 -445)">tenant Gateway</text></g></g><g><path fill="#C0C0C0" stroke="none" paint-order="stroke fill markers" d=" M 577 99.5 C 577 84.86445279999998 611.0263552 73 653 73 C 694.9736448 73 729 84.86445279999998 729 99.5 C 729 114.13554720000002 694.9736448 126 653 126 C 611.0263552 126 577 114.13554720000002 577 99.5 Z" fill-opacity="0.2"/></g><g><path fill="#ffffff" stroke="none" paint-order="stroke fill markers" d=" M 570 92.5 C 570 77.86445279999998 604.0263552 66 646 66 C 687.9736448 66 722 77.86445279999998 722 92.5 C 722 107.13554720000002 687.9736448 119 646 119 C 604.0263552 119 570 107.13554720000002 570 92.5 Z"/></g><g><path fill="none" stroke="#000000" paint-order="fill stroke markers" d=" M 570 92.5 C 570 77.86445279999998 604.0263552 66 646 66 C 687.9736448 66 722 77.86445279999998 722 92.5 C 722 107.13554720000002 687.9736448 119 646 119 C 604.0263552 119 570 107.13554720000002 570 92.5 Z" stroke-miterlimit="10" stroke-dasharray=""/></g><g><g><path fill="none" stroke="none"/><text fill="#000000" stroke="none" font-family="Arial" font-size="13px" font-style="normal" font-weight="bold" text-decoration="undefined" x="901" y="532" text-anchor="middle" dominant-baseline="central" transform="matrix(1 0 0 1 -255 -445)">UC165 - Reset</text><text fill="#000000" stroke="none" font-family="Arial" font-size="13px" font-style="normal" font-weight="bold" text-decoration="undefined" x="901" y="545" text-anchor="middle" dominant-baseline="central" transform="matrix(1 0 0 1 -255 -445)">Gateway</text></g></g><g><path fill="none" stroke="#000000" paint-order="fill stroke markers" d=" M 324 131 L 360 225" stroke-miterlimit="10" stroke-dasharray="3"/></g><g><path fill="none" stroke="#000000" paint-order="fill stroke markers" d=" M 352.43426053791416 217.01503998808778 L 360 225 L 360.2964336935951 214.00399494974192" stroke-miterlimit="10" stroke-dasharray=""/></g><g><rect fill="#ffffff" stroke="none" x="598" y="606" width="55.65625" height="13" transform="matrix(1 0 0 1 -255 -445)"/></g><g><g><path fill="none" stroke="none"/><text fill="#000000" stroke="none" font-family="Arial" font-size="13px" font-style="normal" font-weight="normal" text-decoration="undefined" x="625.828125" y="612.5" text-anchor="middle" dominant-baseline="central" transform="matrix(1 0 0 1 -255 -445)">«include»</text></g></g><g><path fill="none" stroke="#000000" paint-order="fill stroke markers" d=" M 435 93 L 569 92" stroke-miterlimit="10" stroke-dasharray="3"/></g><g><path fill="none" stroke="#000000" paint-order="fill stroke markers" d=" M 558.8690215557198 96.285239288713 L 569 92 L 558.8061946819387 87.86643820205074" stroke-miterlimit="10" stroke-dasharray=""/></g><g><rect fill="#ffffff" stroke="none" x="730" y="501" width="55.65625" height="13" transform="matrix(1 0 0 1 -255 -445)"/></g><g><g><path fill="none" stroke="none"/><text fill="#000000" stroke="none" font-family="Arial" font-size="13px" font-style="normal" font-weight="normal" text-decoration="undefined" x="757.828125" y="507.5" text-anchor="middle" dominant-baseline="central" transform="matrix(1 0 0 1 -255 -445)">«include»</text></g></g><g><path fill="none" stroke="#000000" paint-order="fill stroke markers" d=" M 62 98 L 185 96" stroke-miterlimit="10" stroke-dasharray=""/></g></g></svg>