<svg version="1.1" xmlns="http://www.w3.org/2000/svg" xmlns:xlink="http://www.w3.org/1999/xlink" width="1069" height="428"><defs/><g><g><rect fill="#C0C0C0" stroke="none" x="476" y="365" width="896" height="408" transform="matrix(1 0 0 1 -307 -348)" fill-opacity="0.2"/></g><g><rect fill="#ffffff" stroke="none" x="469" y="358" width="896" height="408" transform="matrix(1 0 0 1 -307 -348)"/></g><g><path fill="none" stroke="#000000" paint-order="fill stroke markers" d=" M 162 10 L 1058 10 L 1058 418 L 162 418 L 162 10 Z Z" stroke-miterlimit="10" stroke-dasharray=""/></g><g><g><path fill="none" stroke="none"/><text fill="#000000" stroke="none" font-family="Arial" font-size="13px" font-style="normal" font-weight="bold" text-decoration="undefined" x="917.5" y="371.5" text-anchor="middle" dominant-baseline="central" transform="matrix(1 0 0 1 -307 -348)">Sistema Cloud</text></g></g><g><path fill="#ffffff" stroke="none" paint-order="stroke fill markers" d=" M 62.860439453125025 195.85000000000002 C 62.860439453125025 190.96227952000004 66.81824182112501 187 71.700439453125 187 C 76.58263708512499 187 80.54043945312497 190.96227952000004 80.54043945312497 195.85000000000002 C 80.54043945312497 200.73772048 76.58263708512499 204.70000000000005 71.700439453125 204.70000000000005 C 66.81824182112501 204.70000000000005 62.860439453125025 200.73772048 62.860439453125025 195.85000000000002 Z"/></g><g><path fill="none" stroke="#000000" paint-order="fill stroke markers" d=" M 62.860439453125025 195.85000000000002 C 62.860439453125025 190.96227952000004 66.81824182112501 187 71.700439453125 187 C 76.58263708512499 187 80.54043945312497 190.96227952000004 80.54043945312497 195.85000000000002 C 80.54043945312497 200.73772048 76.58263708512499 204.70000000000005 71.700439453125 204.70000000000005 C 66.81824182112501 204.70000000000005 62.860439453125025 200.73772048 62.860439453125025 195.85000000000002 Z" stroke-miterlimit="10" stroke-dasharray=""/></g><g><path fill="none" stroke="#000000" paint-order="fill stroke markers" d=" M 71.700439453125 204.70000000000005 L 71.700439453125 222.29999999999995" stroke-miterlimit="10" stroke-dasharray=""/></g><g><path fill="none" stroke="#000000" paint-order="fill stroke markers" d=" M 62.340439453124986 211.29999999999995 L 81.06043945312501 211.29999999999995" stroke-miterlimit="10" stroke-dasharray=""/></g><g><path fill="none" stroke="#000000" paint-order="fill stroke markers" d=" M 71.700439453125 222.29999999999995 L 58.700439453125 240" stroke-miterlimit="10" stroke-dasharray=""/></g><g><path fill="none" stroke="#000000" paint-order="fill stroke markers" d=" M 71.700439453125 222.29999999999995 L 84.700439453125 240" stroke-miterlimit="10" stroke-dasharray=""/></g><g><g><path fill="none" stroke="none"/><text fill="#000000" stroke="none" font-family="Arial" font-size="13px" font-style="normal" font-weight="bold" text-decoration="undefined" x="379.200439453125" y="602.5" text-anchor="middle" dominant-baseline="central" transform="matrix(1 0 0 1 -307 -348)">Utente autenticato</text></g></g><g><path fill="#C0C0C0" stroke="none" paint-order="stroke fill markers" d=" M 345 243.5 C 345 228.86445279999998 399.17353920000005 217 466 217 C 532.8264608 217 587 228.86445279999998 587 243.5 C 587 258.1355472 532.8264608 270 466 270 C 399.17353920000005 270 345 258.1355472 345 243.5 Z" fill-opacity="0.2"/></g><g><path fill="#ffffff" stroke="none" paint-order="stroke fill markers" d=" M 338 236.5 C 338 221.86445279999998 392.17353920000005 210 459 210 C 525.8264608 210 580 221.86445279999998 580 236.5 C 580 251.13554720000002 525.8264608 263 459 263 C 392.17353920000005 263 338 251.13554720000002 338 236.5 Z"/></g><g><path fill="none" stroke="#000000" paint-order="fill stroke markers" d=" M 338 236.5 C 338 221.86445279999998 392.17353920000005 210 459 210 C 525.8264608 210 580 221.86445279999998 580 236.5 C 580 251.13554720000002 525.8264608 263 459 263 C 392.17353920000005 263 338 251.13554720000002 338 236.5 Z" stroke-miterlimit="10" stroke-dasharray=""/></g><g><g><path fill="none" stroke="none"/><text fill="#000000" stroke="none" font-family="Arial" font-size="13px" font-style="normal" font-weight="bold" text-decoration="undefined" x="766" y="579" text-anchor="middle" dominant-baseline="central" transform="matrix(1 0 0 1 -307 -348)">UC17 - Modifica</text><text fill="#000000" stroke="none" font-family="Arial" font-size="13px" font-style="normal" font-weight="bold" text-decoration="undefined" x="766" y="592" text-anchor="middle" dominant-baseline="central" transform="matrix(1 0 0 1 -307 -348)">password</text></g></g><g><path fill="#C0C0C0" stroke="none" paint-order="stroke fill markers" d=" M 345 107.5 C 345 92.86445279999998 393.35324160000005 81 453 81 C 512.6467584 81 561 92.86445279999998 561 107.5 C 561 122.13554720000002 512.6467584 134 453 134 C 393.35324160000005 134 345 122.13554720000002 345 107.5 Z" fill-opacity="0.2"/></g><g><path fill="#ffffff" stroke="none" paint-order="stroke fill markers" d=" M 338 100.5 C 338 85.86445279999998 386.35324160000005 74 446 74 C 505.64675839999995 74 554 85.86445279999998 554 100.5 C 554 115.13554720000002 505.64675839999995 127 446 127 C 386.35324160000005 127 338 115.13554720000002 338 100.5 Z"/></g><g><path fill="none" stroke="#000000" paint-order="fill stroke markers" d=" M 338 100.5 C 338 85.86445279999998 386.35324160000005 74 446 74 C 505.64675839999995 74 554 85.86445279999998 554 100.5 C 554 115.13554720000002 505.64675839999995 127 446 127 C 386.35324160000005 127 338 115.13554720000002 338 100.5 Z" stroke-miterlimit="10" stroke-dasharray=""/></g><g><g><path fill="none" stroke="none"/><text fill="#000000" stroke="none" font-family="Arial" font-size="13px" font-style="normal" font-weight="bold" text-decoration="undefined" x="753" y="443" text-anchor="middle" dominant-baseline="central" transform="matrix(1 0 0 1 -307 -348)">UC13 - Password non</text><text fill="#000000" stroke="none" font-family="Arial" font-size="13px" font-style="normal" font-weight="bold" text-decoration="undefined" x="753" y="456" text-anchor="middle" dominant-baseline="central" transform="matrix(1 0 0 1 -307 -348)">coincidenti</text></g></g><g><path fill="#C0C0C0" stroke="none" paint-order="stroke fill markers" d=" M 785 93 C 785 73.1177472 840.5166847999999 57 909 57 C 977.4833152000001 57 1033 73.1177472 1033 93 C 1033 112.8822528 977.4833152000001 129 909 129 C 840.5166847999999 129 785 112.8822528 785 93 Z" fill-opacity="0.2"/></g><g><path fill="#ffffff" stroke="none" paint-order="stroke fill markers" d=" M 778 86 C 778 66.1177472 833.5166847999999 50 902 50 C 970.4833152000001 50 1026 66.1177472 1026 86 C 1026 105.8822528 970.4833152000001 122 902 122 C 833.5166847999999 122 778 105.8822528 778 86 Z"/></g><g><path fill="none" stroke="#000000" paint-order="fill stroke markers" d=" M 778 86 C 778 66.1177472 833.5166847999999 50 902 50 C 970.4833152000001 50 1026 66.1177472 1026 86 C 1026 105.8822528 970.4833152000001 122 902 122 C 833.5166847999999 122 778 105.8822528 778 86 Z" stroke-miterlimit="10" stroke-dasharray=""/></g><g><g><path fill="none" stroke="none"/><text fill="#000000" stroke="none" font-family="Arial" font-size="13px" font-style="normal" font-weight="bold" text-decoration="undefined" x="1209" y="422" text-anchor="middle" dominant-baseline="central" transform="matrix(1 0 0 1 -307 -348)">UC14 - Password non</text><text fill="#000000" stroke="none" font-family="Arial" font-size="13px" font-style="normal" font-weight="bold" text-decoration="undefined" x="1209" y="435" text-anchor="middle" dominant-baseline="central" transform="matrix(1 0 0 1 -307 -348)">conforme ai criteri di</text><text fill="#000000" stroke="none" font-family="Arial" font-size="13px" font-style="normal" font-weight="bold" text-decoration="undefined" x="1209" y="448" text-anchor="middle" dominant-baseline="central" transform="matrix(1 0 0 1 -307 -348)">sicurezza</text></g></g><g><path fill="#C0C0C0" stroke="none" paint-order="stroke fill markers" d=" M 801 299.5 C 801 284.8644528 851.1441024000001 273 913 273 C 974.8558975999999 273 1025 284.8644528 1025 299.5 C 1025 314.1355472 974.8558975999999 326 913 326 C 851.1441024000001 326 801 314.1355472 801 299.5 Z" fill-opacity="0.2"/></g><g><path fill="#ffffff" stroke="none" paint-order="stroke fill markers" d=" M 794 292.5 C 794 277.8644528 844.1441024000001 266 906 266 C 967.8558975999999 266 1018 277.8644528 1018 292.5 C 1018 307.1355472 967.8558975999999 319 906 319 C 844.1441024000001 319 794 307.1355472 794 292.5 Z"/></g><g><path fill="none" stroke="#000000" paint-order="fill stroke markers" d=" M 794 292.5 C 794 277.8644528 844.1441024000001 266 906 266 C 967.8558975999999 266 1018 277.8644528 1018 292.5 C 1018 307.1355472 967.8558975999999 319 906 319 C 844.1441024000001 319 794 307.1355472 794 292.5 Z" stroke-miterlimit="10" stroke-dasharray=""/></g><g><g><path fill="none" stroke="none"/><text fill="#000000" stroke="none" font-family="Arial" font-size="13px" font-style="normal" font-weight="bold" text-decoration="undefined" x="1213" y="635" text-anchor="middle" dominant-baseline="central" transform="matrix(1 0 0 1 -307 -348)">UC18 - Vecchia</text><text fill="#000000" stroke="none" font-family="Arial" font-size="13px" font-style="normal" font-weight="bold" text-decoration="undefined" x="1213" y="648" text-anchor="middle" dominant-baseline="central" transform="matrix(1 0 0 1 -307 -348)">password non corretta</text></g></g><g><path fill="#C0C0C0" stroke="none" paint-order="stroke fill markers" d=" M 201 379.5 C 201 364.8644528 263.68012799999997 353 341 353 C 418.31987200000003 353 481 364.8644528 481 379.5 C 481 394.1355472 418.31987200000003 406 341 406 C 263.68012799999997 406 201 394.1355472 201 379.5 Z" fill-opacity="0.2"/></g><g><path fill="#ffffff" stroke="none" paint-order="stroke fill markers" d=" M 194 372.5 C 194 357.8644528 256.68012799999997 346 334 346 C 411.31987200000003 346 474 357.8644528 474 372.5 C 474 387.1355472 411.31987200000003 399 334 399 C 256.68012799999997 399 194 387.1355472 194 372.5 Z"/></g><g><path fill="none" stroke="#000000" paint-order="fill stroke markers" d=" M 194 372.5 C 194 357.8644528 256.68012799999997 346 334 346 C 411.31987200000003 346 474 357.8644528 474 372.5 C 474 387.1355472 411.31987200000003 399 334 399 C 256.68012799999997 399 194 387.1355472 194 372.5 Z" stroke-miterlimit="10" stroke-dasharray=""/></g><g><g><path fill="none" stroke="none"/><text fill="#000000" stroke="none" font-family="Arial" font-size="13px" font-style="normal" font-weight="bold" text-decoration="undefined" x="641" y="715" text-anchor="middle" dominant-baseline="central" transform="matrix(1 0 0 1 -307 -348)">UC17.1 - Inserimento vecchia</text><text fill="#000000" stroke="none" font-family="Arial" font-size="13px" font-style="normal" font-weight="bold" text-decoration="undefined" x="641" y="728" text-anchor="middle" dominant-baseline="central" transform="matrix(1 0 0 1 -307 -348)">password</text></g></g><g><path fill="#C0C0C0" stroke="none" paint-order="stroke fill markers" d=" M 505 379.5 C 505 364.8644528 558.725824 353 625 353 C 691.274176 353 745 364.8644528 745 379.5 C 745 394.1355472 691.274176 406 625 406 C 558.725824 406 505 394.1355472 505 379.5 Z" fill-opacity="0.2"/></g><g><path fill="#ffffff" stroke="none" paint-order="stroke fill markers" d=" M 498 372.5 C 498 357.8644528 551.725824 346 618 346 C 684.274176 346 738 357.8644528 738 372.5 C 738 387.1355472 684.274176 399 618 399 C 551.725824 399 498 387.1355472 498 372.5 Z"/></g><g><path fill="none" stroke="#000000" paint-order="fill stroke markers" d=" M 498 372.5 C 498 357.8644528 551.725824 346 618 346 C 684.274176 346 738 357.8644528 738 372.5 C 738 387.1355472 684.274176 399 618 399 C 551.725824 399 498 387.1355472 498 372.5 Z" stroke-miterlimit="10" stroke-dasharray=""/></g><g><g><path fill="none" stroke="none"/><text fill="#000000" stroke="none" font-family="Arial" font-size="13px" font-style="normal" font-weight="bold" text-decoration="undefined" x="925" y="715" text-anchor="middle" dominant-baseline="central" transform="matrix(1 0 0 1 -307 -348)">UC12.1 - Inserimento</text><text fill="#000000" stroke="none" font-family="Arial" font-size="13px" font-style="normal" font-weight="bold" text-decoration="undefined" x="925" y="728" text-anchor="middle" dominant-baseline="central" transform="matrix(1 0 0 1 -307 -348)">nuova password</text></g></g><g><path fill="#C0C0C0" stroke="none" paint-order="stroke fill markers" d=" M 769 371.5 C 769 356.8644528 813.77152 345 869 345 C 924.22848 345 969 356.8644528 969 371.5 C 969 386.1355472 924.22848 398 869 398 C 813.77152 398 769 386.1355472 769 371.5 Z" fill-opacity="0.2"/></g><g><path fill="#ffffff" stroke="none" paint-order="stroke fill markers" d=" M 762 364.5 C 762 349.8644528 806.77152 338 862 338 C 917.22848 338 962 349.8644528 962 364.5 C 962 379.1355472 917.22848 391 862 391 C 806.77152 391 762 379.1355472 762 364.5 Z"/></g><g><path fill="none" stroke="#000000" paint-order="fill stroke markers" d=" M 762 364.5 C 762 349.8644528 806.77152 338 862 338 C 917.22848 338 962 349.8644528 962 364.5 C 962 379.1355472 917.22848 391 862 391 C 806.77152 391 762 379.1355472 762 364.5 Z" stroke-miterlimit="10" stroke-dasharray=""/></g><g><g><path fill="none" stroke="none"/><text fill="#000000" stroke="none" font-family="Arial" font-size="13px" font-style="normal" font-weight="bold" text-decoration="undefined" x="1169" y="707" text-anchor="middle" dominant-baseline="central" transform="matrix(1 0 0 1 -307 -348)">UC12.2 - Conferma</text><text fill="#000000" stroke="none" font-family="Arial" font-size="13px" font-style="normal" font-weight="bold" text-decoration="undefined" x="1169" y="720" text-anchor="middle" dominant-baseline="central" transform="matrix(1 0 0 1 -307 -348)">password</text></g></g><g><path fill="none" stroke="#000000" paint-order="fill stroke markers" d=" M 449 128 L 456 209" stroke-miterlimit="10" stroke-dasharray="3"/></g><g><path fill="none" stroke="#000000" paint-order="fill stroke markers" d=" M 450.9311193304263 199.23749782291327 L 456 209 L 459.31889159628554 198.51262861475266" stroke-miterlimit="10" stroke-dasharray=""/></g><g><rect fill="#ffffff" stroke="none" x="754" y="510" width="53.49169921875" height="13" transform="matrix(1 0 0 1 -307 -348)"/></g><g><g><path fill="none" stroke="none"/><text fill="#000000" stroke="none" font-family="Arial" font-size="13px" font-style="normal" font-weight="normal" text-decoration="undefined" x="780.745849609375" y="516.5" text-anchor="middle" dominant-baseline="central" transform="matrix(1 0 0 1 -307 -348)">«extend»</text></g></g><g><path fill="none" stroke="#000000" paint-order="fill stroke markers" d=" M 793 123 L 539 209" stroke-miterlimit="10" stroke-dasharray="3"/></g><g><path fill="none" stroke="#000000" paint-order="fill stroke markers" d=" M 547.27590511962 201.75366337719208 L 539 209 L 549.9758823952877 209.72801486579192" stroke-miterlimit="10" stroke-dasharray=""/></g><g><rect fill="#ffffff" stroke="none" x="911" y="502" width="53.49169921875" height="13" transform="matrix(1 0 0 1 -307 -348)"/></g><g><g><path fill="none" stroke="none"/><text fill="#000000" stroke="none" font-family="Arial" font-size="13px" font-style="normal" font-weight="normal" text-decoration="undefined" x="937.745849609375" y="508.5" text-anchor="middle" dominant-baseline="central" transform="matrix(1 0 0 1 -307 -348)">«extend»</text></g></g><g><path fill="none" stroke="#000000" paint-order="fill stroke markers" d=" M 793 278 L 581 251" stroke-miterlimit="10" stroke-dasharray="3"/></g><g><path fill="none" stroke="#000000" paint-order="fill stroke markers" d=" M 591.6130659652172 248.10814405304325 L 581 251 L 590.549421863493 256.45971996287744" stroke-miterlimit="10" stroke-dasharray=""/></g><g><rect fill="#ffffff" stroke="none" x="972" y="593" width="53.49169921875" height="13" transform="matrix(1 0 0 1 -307 -348)"/></g><g><g><path fill="none" stroke="none"/><text fill="#000000" stroke="none" font-family="Arial" font-size="13px" font-style="normal" font-weight="normal" text-decoration="undefined" x="998.745849609375" y="599.5" text-anchor="middle" dominant-baseline="central" transform="matrix(1 0 0 1 -307 -348)">«extend»</text></g></g><g><path fill="none" stroke="#000000" paint-order="fill stroke markers" d=" M 547 264 L 777 337" stroke-miterlimit="10" stroke-dasharray="3"/></g><g><path fill="none" stroke="#000000" paint-order="fill stroke markers" d=" M 766.040054522467 337.9378673304377 L 777 337 L 768.5869758821957 329.9133205806073" stroke-miterlimit="10" stroke-dasharray=""/></g><g><rect fill="#ffffff" stroke="none" x="944" y="656" width="55.65625" height="13" transform="matrix(1 0 0 1 -307 -348)"/></g><g><g><path fill="none" stroke="none"/><text fill="#000000" stroke="none" font-family="Arial" font-size="13px" font-style="normal" font-weight="normal" text-decoration="undefined" x="971.828125" y="662.5" text-anchor="middle" dominant-baseline="central" transform="matrix(1 0 0 1 -307 -348)">«include»</text></g></g><g><path fill="none" stroke="#000000" paint-order="fill stroke markers" d=" M 492 264 L 586 345" stroke-miterlimit="10" stroke-dasharray="3"/></g><g><path fill="none" stroke="#000000" paint-order="fill stroke markers" d=" M 575.5534025341192 341.5549163455945 L 586 345 L 581.0491821053345 335.1770980777644" stroke-miterlimit="10" stroke-dasharray=""/></g><g><rect fill="#ffffff" stroke="none" x="788" y="644" width="55.65625" height="13" transform="matrix(1 0 0 1 -307 -348)"/></g><g><g><path fill="none" stroke="none"/><text fill="#000000" stroke="none" font-family="Arial" font-size="13px" font-style="normal" font-weight="normal" text-decoration="undefined" x="815.828125" y="650.5" text-anchor="middle" dominant-baseline="central" transform="matrix(1 0 0 1 -307 -348)">«include»</text></g></g><g><path fill="none" stroke="#000000" paint-order="fill stroke markers" d=" M 433 264 L 359 345" stroke-miterlimit="10" stroke-dasharray="3"/></g><g><path fill="none" stroke="#000000" paint-order="fill stroke markers" d=" M 362.74673937608236 334.6577592346864 L 359 345 L 368.9624133979837 340.3362762423493" stroke-miterlimit="10" stroke-dasharray=""/></g><g><rect fill="#ffffff" stroke="none" x="698" y="666" width="55.65625" height="13" transform="matrix(1 0 0 1 -307 -348)"/></g><g><g><path fill="none" stroke="none"/><text fill="#000000" stroke="none" font-family="Arial" font-size="13px" font-style="normal" font-weight="normal" text-decoration="undefined" x="725.828125" y="672.5" text-anchor="middle" dominant-baseline="central" transform="matrix(1 0 0 1 -307 -348)">«include»</text></g></g><g><path fill="none" stroke="#000000" paint-order="fill stroke markers" d=" M 337 233 L 134 228" stroke-miterlimit="10" stroke-dasharray=""/></g><g><path fill="#ffffff" stroke="none" paint-order="stroke fill markers" d=" M 178 74 L 303 74 L 313 84 L 313 191 L 178 191 L 178 74"/></g><g><path fill="none" stroke="#000000" paint-order="fill stroke markers" d=" M 178 74 L 303 74 L 313 84 L 313 191 L 178 191 L 178 74 L 178 74" stroke-miterlimit="10" stroke-dasharray=""/></g><g><path fill="none" stroke="#000000" paint-order="fill stroke markers" d=" M 303 74 L 303 84 L 313 84 L 303 74" stroke-miterlimit="10" stroke-dasharray=""/></g><g><g><path fill="none" stroke="none"/><text fill="#000000" stroke="none" font-family="Arial" font-size="13px" font-style="normal" font-weight="normal" text-decoration="undefined" x="553" y="427" text-anchor="middle" dominant-baseline="text-before-edge" transform="matrix(1 0 0 1 -307 -348)">Condizione:</text></g></g><g><g><path fill="none" stroke="none"/><text fill="#000000" stroke="none" font-family="Arial" font-size="13px" font-style="normal" font-weight="normal" text-decoration="undefined" x="553" y="442" text-anchor="middle" dominant-baseline="text-before-edge" transform="matrix(1 0 0 1 -307 -348)">L'utente ha inserito</text><text fill="#000000" stroke="none" font-family="Arial" font-size="13px" font-style="normal" font-weight="normal" text-decoration="undefined" x="553" y="455" text-anchor="middle" dominant-baseline="text-before-edge" transform="matrix(1 0 0 1 -307 -348)">una nuova password</text><text fill="#000000" stroke="none" font-family="Arial" font-size="13px" font-style="normal" font-weight="normal" text-decoration="undefined" x="553" y="468" text-anchor="middle" dominant-baseline="text-before-edge" transform="matrix(1 0 0 1 -307 -348)">che non corrisponde</text><text fill="#000000" stroke="none" font-family="Arial" font-size="13px" font-style="normal" font-weight="normal" text-decoration="undefined" x="553" y="481" text-anchor="middle" dominant-baseline="text-before-edge" transform="matrix(1 0 0 1 -307 -348)">al campo in cui deve</text><text fill="#000000" stroke="none" font-family="Arial" font-size="13px" font-style="normal" font-weight="normal" text-decoration="undefined" x="553" y="494" text-anchor="middle" dominant-baseline="text-before-edge" transform="matrix(1 0 0 1 -307 -348)">confermare la stessa</text></g></g><g><path fill="none" stroke="#000000" paint-order="fill stroke markers" d=" M 315 145 L 452 168" stroke-miterlimit="10" stroke-dasharray="3"/></g><g><path fill="#ffffff" stroke="none" paint-order="stroke fill markers" d=" M 586 34 L 703 34 L 713 44 L 713 138 L 586 138 L 586 34"/></g><g><path fill="none" stroke="#000000" paint-order="fill stroke markers" d=" M 586 34 L 703 34 L 713 44 L 713 138 L 586 138 L 586 34 L 586 34" stroke-miterlimit="10" stroke-dasharray=""/></g><g><path fill="none" stroke="#000000" paint-order="fill stroke markers" d=" M 703 34 L 703 44 L 713 44 L 703 34" stroke-miterlimit="10" stroke-dasharray=""/></g><g><g><path fill="none" stroke="none"/><text fill="#000000" stroke="none" font-family="Arial" font-size="13px" font-style="normal" font-weight="normal" text-decoration="undefined" x="957" y="387" text-anchor="middle" dominant-baseline="text-before-edge" transform="matrix(1 0 0 1 -307 -348)">Condizione:</text></g></g><g><g><path fill="none" stroke="none"/><text fill="#000000" stroke="none" font-family="Arial" font-size="13px" font-style="normal" font-weight="normal" text-decoration="undefined" x="957" y="402" text-anchor="middle" dominant-baseline="text-before-edge" transform="matrix(1 0 0 1 -307 -348)">L'utente ha inserito</text><text fill="#000000" stroke="none" font-family="Arial" font-size="13px" font-style="normal" font-weight="normal" text-decoration="undefined" x="957" y="415" text-anchor="middle" dominant-baseline="text-before-edge" transform="matrix(1 0 0 1 -307 -348)">una nuova</text><text fill="#000000" stroke="none" font-family="Arial" font-size="13px" font-style="normal" font-weight="normal" text-decoration="undefined" x="957" y="428" text-anchor="middle" dominant-baseline="text-before-edge" transform="matrix(1 0 0 1 -307 -348)">password che non</text><text fill="#000000" stroke="none" font-family="Arial" font-size="13px" font-style="normal" font-weight="normal" text-decoration="undefined" x="957" y="441" text-anchor="middle" dominant-baseline="text-before-edge" transform="matrix(1 0 0 1 -307 -348)">corrisponde ai criteri</text><text fill="#000000" stroke="none" font-family="Arial" font-size="13px" font-style="normal" font-weight="normal" text-decoration="undefined" x="957" y="454" text-anchor="middle" dominant-baseline="text-before-edge" transform="matrix(1 0 0 1 -307 -348)">di sicurezza stabiliti</text></g></g><g><path fill="none" stroke="#000000" paint-order="fill stroke markers" d=" M 661 140 L 666 166" stroke-miterlimit="10" stroke-dasharray="3"/></g><g><path fill="#ffffff" stroke="none" paint-order="stroke fill markers" d=" M 842 130 L 959 130 L 969 140 L 969 247 L 842 247 L 842 130"/></g><g><path fill="none" stroke="#000000" paint-order="fill stroke markers" d=" M 842 130 L 959 130 L 969 140 L 969 247 L 842 247 L 842 130 L 842 130" stroke-miterlimit="10" stroke-dasharray=""/></g><g><path fill="none" stroke="#000000" paint-order="fill stroke markers" d=" M 959 130 L 959 140 L 969 140 L 959 130" stroke-miterlimit="10" stroke-dasharray=""/></g><g><g><path fill="none" stroke="none"/><text fill="#000000" stroke="none" font-family="Arial" font-size="13px" font-style="normal" font-weight="normal" text-decoration="undefined" x="1213" y="483" text-anchor="middle" dominant-baseline="text-before-edge" transform="matrix(1 0 0 1 -307 -348)">Condizione:</text></g></g><g><g><path fill="none" stroke="none"/><text fill="#000000" stroke="none" font-family="Arial" font-size="13px" font-style="normal" font-weight="normal" text-decoration="undefined" x="1213" y="498" text-anchor="middle" dominant-baseline="text-before-edge" transform="matrix(1 0 0 1 -307 -348)">L'utente ha inserito</text><text fill="#000000" stroke="none" font-family="Arial" font-size="13px" font-style="normal" font-weight="normal" text-decoration="undefined" x="1213" y="511" text-anchor="middle" dominant-baseline="text-before-edge" transform="matrix(1 0 0 1 -307 -348)">una password che</text><text fill="#000000" stroke="none" font-family="Arial" font-size="13px" font-style="normal" font-weight="normal" text-decoration="undefined" x="1213" y="524" text-anchor="middle" dominant-baseline="text-before-edge" transform="matrix(1 0 0 1 -307 -348)">non corrisponde a</text><text fill="#000000" stroke="none" font-family="Arial" font-size="13px" font-style="normal" font-weight="normal" text-decoration="undefined" x="1213" y="537" text-anchor="middle" dominant-baseline="text-before-edge" transform="matrix(1 0 0 1 -307 -348)">quella attuale</text><text fill="#000000" stroke="none" font-family="Arial" font-size="13px" font-style="normal" font-weight="normal" text-decoration="undefined" x="1213" y="550" text-anchor="middle" dominant-baseline="text-before-edge" transform="matrix(1 0 0 1 -307 -348)">dell'account con cui</text><text fill="#000000" stroke="none" font-family="Arial" font-size="13px" font-style="normal" font-weight="normal" text-decoration="undefined" x="1213" y="563" text-anchor="middle" dominant-baseline="text-before-edge" transform="matrix(1 0 0 1 -307 -348)">è autenticato</text></g></g><g><path fill="none" stroke="#000000" paint-order="fill stroke markers" d=" M 841 211 L 687 264" stroke-miterlimit="10" stroke-dasharray="3"/></g></g></svg>