<svg version="1.1" xmlns="http://www.w3.org/2000/svg" xmlns:xlink="http://www.w3.org/1999/xlink" width="933" height="420"><defs/><g><g><rect fill="#C0C0C0" stroke="none" x="437" y="336" width="744" height="400" transform="matrix(1 0 0 1 -252 -319)" fill-opacity="0.2"/></g><g><rect fill="#ffffff" stroke="none" x="430" y="329" width="744" height="400" transform="matrix(1 0 0 1 -252 -319)"/></g><g><path fill="none" stroke="#000000" paint-order="fill stroke markers" d=" M 178 10 L 922 10 L 922 410 L 178 410 L 178 10 Z Z" stroke-miterlimit="10" stroke-dasharray=""/></g><g><g><path fill="none" stroke="none"/><text fill="#000000" stroke="none" font-family="Arial" font-size="13px" font-style="normal" font-weight="bold" text-decoration="undefined" x="802.5" y="342.5" text-anchor="middle" dominant-baseline="central" transform="matrix(1 0 0 1 -252 -319)">Dashboard</text></g></g><g><path fill="#ffffff" stroke="none" paint-order="stroke fill markers" d=" M 62.860439453125025 195.85000000000002 C 62.860439453125025 190.96227952000004 66.81824182112501 187 71.700439453125 187 C 76.58263708512499 187 80.54043945312497 190.96227952000004 80.54043945312497 195.85000000000002 C 80.54043945312497 200.73772048 76.58263708512499 204.70000000000005 71.700439453125 204.70000000000005 C 66.81824182112501 204.70000000000005 62.860439453125025 200.73772048 62.860439453125025 195.85000000000002 Z"/></g><g><path fill="none" stroke="#000000" paint-order="fill stroke markers" d=" M 62.860439453125025 195.85000000000002 C 62.860439453125025 190.96227952000004 66.81824182112501 187 71.700439453125 187 C 76.58263708512499 187 80.54043945312497 190.96227952000004 80.54043945312497 195.85000000000002 C 80.54043945312497 200.73772048 76.58263708512499 204.70000000000005 71.700439453125 204.70000000000005 C 66.81824182112501 204.70000000000005 62.860439453125025 200.73772048 62.860439453125025 195.85000000000002 Z" stroke-miterlimit="10" stroke-dasharray=""/></g><g><path fill="none" stroke="#000000" paint-order="fill stroke markers" d=" M 71.700439453125 204.70000000000005 L 71.700439453125 222.29999999999995" stroke-miterlimit="10" stroke-dasharray=""/></g><g><path fill="none" stroke="#000000" paint-order="fill stroke markers" d=" M 62.340439453124986 211.29999999999995 L 81.06043945312501 211.29999999999995" stroke-miterlimit="10" stroke-dasharray=""/></g><g><path fill="none" stroke="#000000" paint-order="fill stroke markers" d=" M 71.700439453125 222.29999999999995 L 58.700439453125 240" stroke-miterlimit="10" stroke-dasharray=""/></g><g><path fill="none" stroke="#000000" paint-order="fill stroke markers" d=" M 71.700439453125 222.29999999999995 L 84.700439453125 240" stroke-miterlimit="10" stroke-dasharray=""/></g><g><g><path fill="none" stroke="none"/><text fill="#000000" stroke="none" font-family="Arial" font-size="13px" font-style="normal" font-weight="bold" text-decoration="undefined" x="324.200439453125" y="573.5" text-anchor="middle" dominant-baseline="central" transform="matrix(1 0 0 1 -252 -319)">Utente autenticato</text></g></g><g><path fill="#C0C0C0" stroke="none" paint-order="stroke fill markers" d=" M 281 236.5 C 281 221.86445279999998 329.35324160000005 210 389 210 C 448.64675839999995 210 497 221.86445279999998 497 236.5 C 497 251.13554720000002 448.64675839999995 263 389 263 C 329.35324160000005 263 281 251.13554720000002 281 236.5 Z" fill-opacity="0.2"/></g><g><path fill="#ffffff" stroke="none" paint-order="stroke fill markers" d=" M 274 229.5 C 274 214.86445279999998 322.35324160000005 203 382 203 C 441.64675839999995 203 490 214.86445279999998 490 229.5 C 490 244.13554720000002 441.64675839999995 256 382 256 C 322.35324160000005 256 274 244.13554720000002 274 229.5 Z"/></g><g><path fill="none" stroke="#000000" paint-order="fill stroke markers" d=" M 274 229.5 C 274 214.86445279999998 322.35324160000005 203 382 203 C 441.64675839999995 203 490 214.86445279999998 490 229.5 C 490 244.13554720000002 441.64675839999995 256 382 256 C 322.35324160000005 256 274 244.13554720000002 274 229.5 Z" stroke-miterlimit="10" stroke-dasharray=""/></g><g><g><path fill="none" stroke="none"/><text fill="#000000" stroke="none" font-family="Arial" font-size="13px" font-style="normal" font-weight="bold" text-decoration="undefined" x="634" y="543" text-anchor="middle" dominant-baseline="central" transform="matrix(1 0 0 1 -252 -319)">UC17 - Modifica</text><text fill="#000000" stroke="none" font-family="Arial" font-size="13px" font-style="normal" font-weight="bold" text-decoration="undefined" x="634" y="556" text-anchor="middle" dominant-baseline="central" transform="matrix(1 0 0 1 -252 -319)">password</text></g></g><g><path fill="#C0C0C0" stroke="none" paint-order="stroke fill markers" d=" M 265 131.5 C 265 116.86445279999998 307.9806592 105 361 105 C 414.0193408 105 457 116.86445279999998 457 131.5 C 457 146.13554720000002 414.0193408 158 361 158 C 307.9806592 158 265 146.13554720000002 265 131.5 Z" fill-opacity="0.2"/></g><g><path fill="#ffffff" stroke="none" paint-order="stroke fill markers" d=" M 258 124.5 C 258 109.86445279999998 300.9806592 98 354 98 C 407.0193408 98 450 109.86445279999998 450 124.5 C 450 139.13554720000002 407.0193408 151 354 151 C 300.9806592 151 258 139.13554720000002 258 124.5 Z"/></g><g><path fill="none" stroke="#000000" paint-order="fill stroke markers" d=" M 258 124.5 C 258 109.86445279999998 300.9806592 98 354 98 C 407.0193408 98 450 109.86445279999998 450 124.5 C 450 139.13554720000002 407.0193408 151 354 151 C 300.9806592 151 258 139.13554720000002 258 124.5 Z" stroke-miterlimit="10" stroke-dasharray=""/></g><g><g><path fill="none" stroke="none"/><text fill="#000000" stroke="none" font-family="Arial" font-size="13px" font-style="normal" font-weight="bold" text-decoration="undefined" x="606" y="438" text-anchor="middle" dominant-baseline="central" transform="matrix(1 0 0 1 -252 -319)">UC13 - Password</text><text fill="#000000" stroke="none" font-family="Arial" font-size="13px" font-style="normal" font-weight="bold" text-decoration="undefined" x="606" y="451" text-anchor="middle" dominant-baseline="central" transform="matrix(1 0 0 1 -252 -319)">non coincidenti</text></g></g><g><path fill="#C0C0C0" stroke="none" paint-order="stroke fill markers" d=" M 595 93 C 595 73.1177472 655.441552 57 730 57 C 804.558448 57 865 73.1177472 865 93 C 865 112.8822528 804.558448 129 730 129 C 655.441552 129 595 112.8822528 595 93 Z" fill-opacity="0.2"/></g><g><path fill="#ffffff" stroke="none" paint-order="stroke fill markers" d=" M 588 86 C 588 66.1177472 648.441552 50 723 50 C 797.558448 50 858 66.1177472 858 86 C 858 105.8822528 797.558448 122 723 122 C 648.441552 122 588 105.8822528 588 86 Z"/></g><g><path fill="none" stroke="#000000" paint-order="fill stroke markers" d=" M 588 86 C 588 66.1177472 648.441552 50 723 50 C 797.558448 50 858 66.1177472 858 86 C 858 105.8822528 797.558448 122 723 122 C 648.441552 122 588 105.8822528 588 86 Z" stroke-miterlimit="10" stroke-dasharray=""/></g><g><g><path fill="none" stroke="none"/><text fill="#000000" stroke="none" font-family="Arial" font-size="13px" font-style="normal" font-weight="bold" text-decoration="undefined" x="975" y="393" text-anchor="middle" dominant-baseline="central" transform="matrix(1 0 0 1 -252 -319)">UC14 - Password non</text><text fill="#000000" stroke="none" font-family="Arial" font-size="13px" font-style="normal" font-weight="bold" text-decoration="undefined" x="975" y="406" text-anchor="middle" dominant-baseline="central" transform="matrix(1 0 0 1 -252 -319)">conforme ai criteri di</text><text fill="#000000" stroke="none" font-family="Arial" font-size="13px" font-style="normal" font-weight="bold" text-decoration="undefined" x="975" y="419" text-anchor="middle" dominant-baseline="central" transform="matrix(1 0 0 1 -252 -319)">sicurezza</text></g></g><g><path fill="#C0C0C0" stroke="none" paint-order="stroke fill markers" d=" M 697 197 C 697 177.1177472 741.77152 161 797 161 C 852.22848 161 897 177.1177472 897 197 C 897 216.88225279999995 852.22848 233 797 233 C 741.77152 233 697 216.88225279999995 697 197 Z" fill-opacity="0.2"/></g><g><path fill="#ffffff" stroke="none" paint-order="stroke fill markers" d=" M 690 190 C 690 170.1177472 734.77152 154 790 154 C 845.22848 154 890 170.1177472 890 190 C 890 209.88225279999995 845.22848 226 790 226 C 734.77152 226 690 209.88225279999995 690 190 Z"/></g><g><path fill="none" stroke="#000000" paint-order="fill stroke markers" d=" M 690 190 C 690 170.1177472 734.77152 154 790 154 C 845.22848 154 890 170.1177472 890 190 C 890 209.88225279999995 845.22848 226 790 226 C 734.77152 226 690 209.88225279999995 690 190 Z" stroke-miterlimit="10" stroke-dasharray=""/></g><g><g><path fill="none" stroke="none"/><text fill="#000000" stroke="none" font-family="Arial" font-size="13px" font-style="normal" font-weight="bold" text-decoration="undefined" x="1042" y="497" text-anchor="middle" dominant-baseline="central" transform="matrix(1 0 0 1 -252 -319)">UC18 - Vecchia</text><text fill="#000000" stroke="none" font-family="Arial" font-size="13px" font-style="normal" font-weight="bold" text-decoration="undefined" x="1042" y="510" text-anchor="middle" dominant-baseline="central" transform="matrix(1 0 0 1 -252 -319)">password non</text><text fill="#000000" stroke="none" font-family="Arial" font-size="13px" font-style="normal" font-weight="bold" text-decoration="undefined" x="1042" y="523" text-anchor="middle" dominant-baseline="central" transform="matrix(1 0 0 1 -252 -319)">corretta</text></g></g><g><path fill="#C0C0C0" stroke="none" paint-order="stroke fill markers" d=" M 281 372.5 C 281 357.8644528 331.14410239999995 346 393 346 C 454.85589760000005 346 505 357.8644528 505 372.5 C 505 387.1355472 454.85589760000005 399 393 399 C 331.14410239999995 399 281 387.1355472 281 372.5 Z" fill-opacity="0.2"/></g><g><path fill="#ffffff" stroke="none" paint-order="stroke fill markers" d=" M 274 365.5 C 274 350.8644528 324.14410239999995 339 386 339 C 447.85589760000005 339 498 350.8644528 498 365.5 C 498 380.1355472 447.85589760000005 392 386 392 C 324.14410239999995 392 274 380.1355472 274 365.5 Z"/></g><g><path fill="none" stroke="#000000" paint-order="fill stroke markers" d=" M 274 365.5 C 274 350.8644528 324.14410239999995 339 386 339 C 447.85589760000005 339 498 350.8644528 498 365.5 C 498 380.1355472 447.85589760000005 392 386 392 C 324.14410239999995 392 274 380.1355472 274 365.5 Z" stroke-miterlimit="10" stroke-dasharray=""/></g><g><g><path fill="none" stroke="none"/><text fill="#000000" stroke="none" font-family="Arial" font-size="13px" font-style="normal" font-weight="bold" text-decoration="undefined" x="638" y="679" text-anchor="middle" dominant-baseline="central" transform="matrix(1 0 0 1 -252 -319)">UC17.1 - Inserimento</text><text fill="#000000" stroke="none" font-family="Arial" font-size="13px" font-style="normal" font-weight="bold" text-decoration="undefined" x="638" y="692" text-anchor="middle" dominant-baseline="central" transform="matrix(1 0 0 1 -252 -319)">vecchia password</text></g></g><g><path fill="#C0C0C0" stroke="none" paint-order="stroke fill markers" d=" M 595 371.5 C 595 356.8644528 646.487248 345 710 345 C 773.5127520000001 345 825 356.8644528 825 371.5 C 825 386.1355472 773.5127520000001 398 710 398 C 646.487248 398 595 386.1355472 595 371.5 Z" fill-opacity="0.2"/></g><g><path fill="#ffffff" stroke="none" paint-order="stroke fill markers" d=" M 588 364.5 C 588 349.8644528 639.487248 338 703 338 C 766.512752 338 818 349.8644528 818 364.5 C 818 379.1355472 766.512752 391 703 391 C 639.487248 391 588 379.1355472 588 364.5 Z"/></g><g><path fill="none" stroke="#000000" paint-order="fill stroke markers" d=" M 588 364.5 C 588 349.8644528 639.487248 338 703 338 C 766.512752 338 818 349.8644528 818 364.5 C 818 379.1355472 766.512752 391 703 391 C 639.487248 391 588 379.1355472 588 364.5 Z" stroke-miterlimit="10" stroke-dasharray=""/></g><g><g><path fill="none" stroke="none"/><text fill="#000000" stroke="none" font-family="Arial" font-size="13px" font-style="normal" font-weight="bold" text-decoration="undefined" x="955" y="678" text-anchor="middle" dominant-baseline="central" transform="matrix(1 0 0 1 -252 -319)">UC12.1 - Inserimento</text><text fill="#000000" stroke="none" font-family="Arial" font-size="13px" font-style="normal" font-weight="bold" text-decoration="undefined" x="955" y="691" text-anchor="middle" dominant-baseline="central" transform="matrix(1 0 0 1 -252 -319)">nuova password</text></g></g><g><path fill="#C0C0C0" stroke="none" paint-order="stroke fill markers" d=" M 705 291.5 C 705 276.8644528 749.3238048 265 804 265 C 858.6761951999999 265 903 276.8644528 903 291.5 C 903 306.1355472 858.6761951999999 318 804 318 C 749.3238048 318 705 306.1355472 705 291.5 Z" fill-opacity="0.2"/></g><g><path fill="#ffffff" stroke="none" paint-order="stroke fill markers" d=" M 698 284.5 C 698 269.8644528 742.3238048 258 797 258 C 851.6761951999999 258 896 269.8644528 896 284.5 C 896 299.1355472 851.6761951999999 311 797 311 C 742.3238048 311 698 299.1355472 698 284.5 Z"/></g><g><path fill="none" stroke="#000000" paint-order="fill stroke markers" d=" M 698 284.5 C 698 269.8644528 742.3238048 258 797 258 C 851.6761951999999 258 896 269.8644528 896 284.5 C 896 299.1355472 851.6761951999999 311 797 311 C 742.3238048 311 698 299.1355472 698 284.5 Z" stroke-miterlimit="10" stroke-dasharray=""/></g><g><g><path fill="none" stroke="none"/><text fill="#000000" stroke="none" font-family="Arial" font-size="13px" font-style="normal" font-weight="bold" text-decoration="undefined" x="1049" y="598" text-anchor="middle" dominant-baseline="central" transform="matrix(1 0 0 1 -252 -319)">UC12.2 - Conferma</text><text fill="#000000" stroke="none" font-family="Arial" font-size="13px" font-style="normal" font-weight="bold" text-decoration="undefined" x="1049" y="611" text-anchor="middle" dominant-baseline="central" transform="matrix(1 0 0 1 -252 -319)">password</text></g></g><g><path fill="none" stroke="#000000" paint-order="fill stroke markers" d=" M 361 152 L 375 202" stroke-miterlimit="10" stroke-dasharray="3"/></g><g><path fill="none" stroke="#000000" paint-order="fill stroke markers" d=" M 368.2062245956638 193.34872172708356 L 375 202 L 376.3134528744465 191.0786978090244" stroke-miterlimit="10" stroke-dasharray=""/></g><g><rect fill="#ffffff" stroke="none" x="614" y="486" width="53.49169921875" height="13" transform="matrix(1 0 0 1 -252 -319)"/></g><g><g><path fill="none" stroke="none"/><text fill="#000000" stroke="none" font-family="Arial" font-size="13px" font-style="normal" font-weight="normal" text-decoration="undefined" x="640.745849609375" y="492.5" text-anchor="middle" dominant-baseline="central" transform="matrix(1 0 0 1 -252 -319)">«extend»</text></g></g><g><path fill="none" stroke="#000000" paint-order="fill stroke markers" d=" M 635 123 L 446 202" stroke-miterlimit="10" stroke-dasharray="3"/></g><g><path fill="none" stroke="#000000" paint-order="fill stroke markers" d=" M 453.7530996201233 194.19683101038788 L 446 202 L 456.99994302390337 201.96459560930475" stroke-miterlimit="10" stroke-dasharray=""/></g><g><rect fill="#ffffff" stroke="none" x="730" y="471" width="53.49169921875" height="13" transform="matrix(1 0 0 1 -252 -319)"/></g><g><g><path fill="none" stroke="none"/><text fill="#000000" stroke="none" font-family="Arial" font-size="13px" font-style="normal" font-weight="normal" text-decoration="undefined" x="756.745849609375" y="477.5" text-anchor="middle" dominant-baseline="central" transform="matrix(1 0 0 1 -252 -319)">«extend»</text></g></g><g><path fill="none" stroke="#000000" paint-order="fill stroke markers" d=" M 689 200 L 491 219" stroke-miterlimit="10" stroke-dasharray="3"/></g><g><path fill="none" stroke="#000000" paint-order="fill stroke markers" d=" M 500.7141087805678 213.83898356917018 L 491 219 L 501.5183019079782 222.2195224758683" stroke-miterlimit="10" stroke-dasharray=""/></g><g><rect fill="#ffffff" stroke="none" x="817" y="508" width="53.49169921875" height="13" transform="matrix(1 0 0 1 -252 -319)"/></g><g><g><path fill="none" stroke="none"/><text fill="#000000" stroke="none" font-family="Arial" font-size="13px" font-style="normal" font-weight="normal" text-decoration="undefined" x="843.745849609375" y="514.5" text-anchor="middle" dominant-baseline="central" transform="matrix(1 0 0 1 -252 -319)">«extend»</text></g></g><g><path fill="none" stroke="#000000" paint-order="fill stroke markers" d=" M 491 243 L 697 271" stroke-miterlimit="10" stroke-dasharray="3"/></g><g><path fill="none" stroke="#000000" paint-order="fill stroke markers" d=" M 686.362966947881 273.8024146460024 L 697 271 L 687.4968753972564 265.46008819702604" stroke-miterlimit="10" stroke-dasharray=""/></g><g><rect fill="#ffffff" stroke="none" x="824" y="584" width="55.65625" height="13" transform="matrix(1 0 0 1 -252 -319)"/></g><g><g><path fill="none" stroke="none"/><text fill="#000000" stroke="none" font-family="Arial" font-size="13px" font-style="normal" font-weight="normal" text-decoration="undefined" x="851.828125" y="590.5" text-anchor="middle" dominant-baseline="central" transform="matrix(1 0 0 1 -252 -319)">«include»</text></g></g><g><path fill="none" stroke="#000000" paint-order="fill stroke markers" d=" M 449 257 L 639 337" stroke-miterlimit="10" stroke-dasharray="3"/></g><g><path fill="none" stroke="#000000" paint-order="fill stroke markers" d=" M 628.0001865130964 336.9359433584003 L 639 337 L 631.2672521772784 329.17666240596805" stroke-miterlimit="10" stroke-dasharray=""/></g><g><rect fill="#ffffff" stroke="none" x="739" y="617" width="55.65625" height="13" transform="matrix(1 0 0 1 -252 -319)"/></g><g><g><path fill="none" stroke="none"/><text fill="#000000" stroke="none" font-family="Arial" font-size="13px" font-style="normal" font-weight="normal" text-decoration="undefined" x="766.828125" y="623.5" text-anchor="middle" dominant-baseline="central" transform="matrix(1 0 0 1 -252 -319)">«include»</text></g></g><g><path fill="none" stroke="#000000" paint-order="fill stroke markers" d=" M 383 257 L 385 338" stroke-miterlimit="10" stroke-dasharray="3"/></g><g><path fill="none" stroke="#000000" paint-order="fill stroke markers" d=" M 380.5409110646026 327.9443286715299 L 385 338 L 388.95738136161106 327.7365145901223" stroke-miterlimit="10" stroke-dasharray=""/></g><g><rect fill="#ffffff" stroke="none" x="638" y="609" width="55.65625" height="13" transform="matrix(1 0 0 1 -252 -319)"/></g><g><g><path fill="none" stroke="none"/><text fill="#000000" stroke="none" font-family="Arial" font-size="13px" font-style="normal" font-weight="normal" text-decoration="undefined" x="665.828125" y="615.5" text-anchor="middle" dominant-baseline="central" transform="matrix(1 0 0 1 -252 -319)">«include»</text></g></g><g><path fill="none" stroke="#000000" paint-order="fill stroke markers" d=" M 273 228 L 134 227" stroke-miterlimit="10" stroke-dasharray=""/></g></g></svg>