<svg version="1.1" xmlns="http://www.w3.org/2000/svg" xmlns:xlink="http://www.w3.org/1999/xlink" width="900" height="100"><defs/><g><g><path fill="#ffffff" stroke="none" paint-order="stroke fill markers" d=" M 62.860439453125025 19.850000000000023 C 62.860439453125025 14.962279520000038 66.81824182112501 11 71.700439453125 11 C 76.58263708512499 11 80.54043945312497 14.962279520000038 80.54043945312497 19.850000000000023 C 80.54043945312497 24.737720480000007 76.58263708512499 28.700000000000045 71.700439453125 28.700000000000045 C 66.81824182112501 28.700000000000045 62.860439453125025 24.737720480000007 62.860439453125025 19.850000000000023 Z"/></g><g><path fill="none" stroke="#000000" paint-order="fill stroke markers" d=" M 62.860439453125025 19.850000000000023 C 62.860439453125025 14.962279520000038 66.81824182112501 11 71.700439453125 11 C 76.58263708512499 11 80.54043945312497 14.962279520000038 80.54043945312497 19.850000000000023 C 80.54043945312497 24.737720480000007 76.58263708512499 28.700000000000045 71.700439453125 28.700000000000045 C 66.81824182112501 28.700000000000045 62.860439453125025 24.737720480000007 62.860439453125025 19.850000000000023 Z" stroke-miterlimit="10" stroke-dasharray=""/></g><g><path fill="none" stroke="#000000" paint-order="fill stroke markers" d=" M 71.700439453125 28.700000000000045 L 71.700439453125 46.299999999999955" stroke-miterlimit="10" stroke-dasharray=""/></g><g><path fill="none" stroke="#000000" paint-order="fill stroke markers" d=" M 62.340439453124986 35.299999999999955 L 81.06043945312501 35.299999999999955" stroke-miterlimit="10" stroke-dasharray=""/></g><g><path fill="none" stroke="#000000" paint-order="fill stroke markers" d=" M 71.700439453125 46.299999999999955 L 58.700439453125 64" stroke-miterlimit="10" stroke-dasharray=""/></g><g><path fill="none" stroke="#000000" paint-order="fill stroke markers" d=" M 71.700439453125 46.299999999999955 L 84.700439453125 64" stroke-miterlimit="10" stroke-dasharray=""/></g><g><g><path fill="none" stroke="none"/><text fill="#000000" stroke="none" font-family="Arial" font-size="13px" font-style="normal" font-weight="bold" text-decoration="undefined" x="271.200439453125" y="635.5" text-anchor="middle" dominant-baseline="central" transform="matrix(1 0 0 1 -199 -557)">Utente autenticato</text></g></g><g><path fill="#C0C0C0" stroke="none" paint-order="stroke fill markers" d=" M 289 67.5 C 289 52.86445279999998 346.5314032 41 417.5 41 C 488.4685968 41 546 52.86445279999998 546 67.5 C 546 82.13554720000002 488.4685968 94 417.5 94 C 346.5314032 94 289 82.13554720000002 289 67.5 Z" fill-opacity="0.2"/></g><g><path fill="#ffffff" stroke="none" paint-order="stroke fill markers" d=" M 282 60.5 C 282 45.86445279999998 339.5314032 34 410.5 34 C 481.4685968 34 539 45.86445279999998 539 60.5 C 539 75.13554720000002 481.4685968 87 410.5 87 C 339.5314032 87 282 75.13554720000002 282 60.5 Z"/></g><g><path fill="none" stroke="#000000" paint-order="fill stroke markers" d=" M 282 60.5 C 282 45.86445279999998 339.5314032 34 410.5 34 C 481.4685968 34 539 45.86445279999998 539 60.5 C 539 75.13554720000002 481.4685968 87 410.5 87 C 339.5314032 87 282 75.13554720000002 282 60.5 Z" stroke-miterlimit="10" stroke-dasharray=""/></g><g><g><path fill="none" stroke="none"/><text fill="#000000" stroke="none" font-family="Arial" font-size="13px" font-style="normal" font-weight="bold" text-decoration="undefined" x="609.5" y="612" text-anchor="middle" dominant-baseline="central" transform="matrix(1 0 0 1 -199 -557)">UC19 - Visualizzazione lista</text><text fill="#000000" stroke="none" font-family="Arial" font-size="13px" font-style="normal" font-weight="bold" text-decoration="undefined" x="609.5" y="625" text-anchor="middle" dominant-baseline="central" transform="matrix(1 0 0 1 -199 -557)">alert</text></g></g><g><path fill="#C0C0C0" stroke="none" paint-order="stroke fill markers" d=" M 689 67.5 C 689 52.86445279999998 735.5623808 41 793 41 C 850.4376192 41 897 52.86445279999998 897 67.5 C 897 82.13554720000002 850.4376192 94 793 94 C 735.5623808 94 689 82.13554720000002 689 67.5 Z" fill-opacity="0.2"/></g><g><path fill="#ffffff" stroke="none" paint-order="stroke fill markers" d=" M 682 60.5 C 682 45.86445279999998 728.5623808 34 786 34 C 843.4376192 34 890 45.86445279999998 890 60.5 C 890 75.13554720000002 843.4376192 87 786 87 C 728.5623808 87 682 75.13554720000002 682 60.5 Z"/></g><g><path fill="none" stroke="#000000" paint-order="fill stroke markers" d=" M 682 60.5 C 682 45.86445279999998 728.5623808 34 786 34 C 843.4376192 34 890 45.86445279999998 890 60.5 C 890 75.13554720000002 843.4376192 87 786 87 C 728.5623808 87 682 75.13554720000002 682 60.5 Z" stroke-miterlimit="10" stroke-dasharray=""/></g><g><g><path fill="none" stroke="none"/><text fill="#000000" stroke="none" font-family="Arial" font-size="13px" font-style="normal" font-weight="bold" text-decoration="undefined" x="985" y="612" text-anchor="middle" dominant-baseline="central" transform="matrix(1 0 0 1 -199 -557)">UC20 -</text><text fill="#000000" stroke="none" font-family="Arial" font-size="13px" font-style="normal" font-weight="bold" text-decoration="undefined" x="985" y="625" text-anchor="middle" dominant-baseline="central" transform="matrix(1 0 0 1 -199 -557)">Visualizzazione alert</text></g></g><g><path fill="none" stroke="#000000" paint-order="fill stroke markers" d=" M 540 60 L 681 60" stroke-miterlimit="10" stroke-dasharray="3"/></g><g><path fill="none" stroke="#000000" paint-order="fill stroke markers" d=" M 670.8373251423759 64.209517756016 L 681 60 L 670.8373251423758 55.790482243984" stroke-miterlimit="10" stroke-dasharray=""/></g><g><rect fill="#ffffff" stroke="none" x="773" y="599" width="55.65625" height="13" transform="matrix(1 0 0 1 -199 -557)"/></g><g><g><path fill="none" stroke="none"/><text fill="#000000" stroke="none" font-family="Arial" font-size="13px" font-style="normal" font-weight="normal" text-decoration="undefined" x="800.828125" y="605.5" text-anchor="middle" dominant-baseline="central" transform="matrix(1 0 0 1 -199 -557)">«include»</text></g></g><g><path fill="none" stroke="#000000" paint-order="fill stroke markers" d=" M 281 56 L 134 52" stroke-miterlimit="10" stroke-dasharray=""/></g></g></svg>