<svg version="1.1" xmlns="http://www.w3.org/2000/svg" xmlns:xlink="http://www.w3.org/1999/xlink" width="853" height="236"><defs/><g><g><rect fill="#C0C0C0" stroke="none" x="387" y="361" width="664" height="216" transform="matrix(1 0 0 1 -202 -344)" fill-opacity="0.2"/></g><g><rect fill="#ffffff" stroke="none" x="380" y="354" width="664" height="216" transform="matrix(1 0 0 1 -202 -344)"/></g><g><path fill="none" stroke="#000000" paint-order="fill stroke markers" d=" M 178 10 L 842 10 L 842 226 L 178 226 L 178 10 Z Z" stroke-miterlimit="10" stroke-dasharray=""/></g><g><g><path fill="none" stroke="none"/><text fill="#000000" stroke="none" font-family="Arial" font-size="13px" font-style="normal" font-weight="bold" text-decoration="undefined" x="712.5" y="367.5" text-anchor="middle" dominant-baseline="central" transform="matrix(1 0 0 1 -202 -344)">Dashboard</text></g></g><g><path fill="#ffffff" stroke="none" paint-order="stroke fill markers" d=" M 62.860439453125025 91.85000000000002 C 62.860439453125025 86.96227952000004 66.81824182112501 83 71.700439453125 83 C 76.58263708512499 83 80.54043945312497 86.96227952000004 80.54043945312497 91.85000000000002 C 80.54043945312497 96.73772048000001 76.58263708512499 100.69999999999999 71.700439453125 100.69999999999999 C 66.81824182112501 100.69999999999999 62.860439453125025 96.73772048000001 62.860439453125025 91.85000000000002 Z"/></g><g><path fill="none" stroke="#000000" paint-order="fill stroke markers" d=" M 62.860439453125025 91.85000000000002 C 62.860439453125025 86.96227952000004 66.81824182112501 83 71.700439453125 83 C 76.58263708512499 83 80.54043945312497 86.96227952000004 80.54043945312497 91.85000000000002 C 80.54043945312497 96.73772048000001 76.58263708512499 100.69999999999999 71.700439453125 100.69999999999999 C 66.81824182112501 100.69999999999999 62.860439453125025 96.73772048000001 62.860439453125025 91.85000000000002 Z" stroke-miterlimit="10" stroke-dasharray=""/></g><g><path fill="none" stroke="#000000" paint-order="fill stroke markers" d=" M 71.700439453125 100.69999999999999 L 71.700439453125 118.30000000000001" stroke-miterlimit="10" stroke-dasharray=""/></g><g><path fill="none" stroke="#000000" paint-order="fill stroke markers" d=" M 62.340439453124986 107.30000000000001 L 81.06043945312501 107.30000000000001" stroke-miterlimit="10" stroke-dasharray=""/></g><g><path fill="none" stroke="#000000" paint-order="fill stroke markers" d=" M 71.700439453125 118.30000000000001 L 58.700439453125 136" stroke-miterlimit="10" stroke-dasharray=""/></g><g><path fill="none" stroke="#000000" paint-order="fill stroke markers" d=" M 71.700439453125 118.30000000000001 L 84.700439453125 136" stroke-miterlimit="10" stroke-dasharray=""/></g><g><g><path fill="none" stroke="none"/><text fill="#000000" stroke="none" font-family="Arial" font-size="13px" font-style="normal" font-weight="bold" text-decoration="undefined" x="274.200439453125" y="494.5" text-anchor="middle" dominant-baseline="central" transform="matrix(1 0 0 1 -202 -344)">Utente autenticato</text></g></g><g><path fill="#C0C0C0" stroke="none" paint-order="stroke fill markers" d=" M 233 125 C 233 105.1177472 286.725824 89 353 89 C 419.274176 89 473 105.1177472 473 125 C 473 144.8822528 419.274176 161 353 161 C 286.725824 161 233 144.8822528 233 125 Z" fill-opacity="0.2"/></g><g><path fill="#ffffff" stroke="none" paint-order="stroke fill markers" d=" M 226 118 C 226 98.1177472 279.725824 82 346 82 C 412.274176 82 466 98.1177472 466 118 C 466 137.8822528 412.274176 154 346 154 C 279.725824 154 226 137.8822528 226 118 Z"/></g><g><path fill="none" stroke="#000000" paint-order="fill stroke markers" d=" M 226 118 C 226 98.1177472 279.725824 82 346 82 C 412.274176 82 466 98.1177472 466 118 C 466 137.8822528 412.274176 154 346 154 C 279.725824 154 226 137.8822528 226 118 Z" stroke-miterlimit="10" stroke-dasharray=""/></g><g><g><path fill="none" stroke="none"/><text fill="#000000" stroke="none" font-family="Arial" font-size="13px" font-style="normal" font-weight="bold" text-decoration="undefined" x="548" y="456.5" text-anchor="middle" dominant-baseline="central" transform="matrix(1 0 0 1 -202 -344)">UC19 - Visualizzazione</text><text fill="#000000" stroke="none" font-family="Arial" font-size="13px" font-style="normal" font-weight="bold" text-decoration="undefined" x="548" y="469.5" text-anchor="middle" dominant-baseline="central" transform="matrix(1 0 0 1 -202 -344)">lista alert</text></g></g><g><path fill="#C0C0C0" stroke="none" paint-order="stroke fill markers" d=" M 577 131.5 C 577 116.86445279999998 629.606536 105 694.5 105 C 759.393464 105 812 116.86445279999998 812 131.5 C 812 146.13554720000002 759.393464 158 694.5 158 C 629.606536 158 577 146.13554720000002 577 131.5 Z" fill-opacity="0.2"/></g><g><path fill="#ffffff" stroke="none" paint-order="stroke fill markers" d=" M 570 124.5 C 570 109.86445279999998 622.606536 98 687.5 98 C 752.393464 98 805 109.86445279999998 805 124.5 C 805 139.13554720000002 752.393464 151 687.5 151 C 622.606536 151 570 139.13554720000002 570 124.5 Z"/></g><g><path fill="none" stroke="#000000" paint-order="fill stroke markers" d=" M 570 124.5 C 570 109.86445279999998 622.606536 98 687.5 98 C 752.393464 98 805 109.86445279999998 805 124.5 C 805 139.13554720000002 752.393464 151 687.5 151 C 622.606536 151 570 139.13554720000002 570 124.5 Z" stroke-miterlimit="10" stroke-dasharray=""/></g><g><g><path fill="none" stroke="none"/><text fill="#000000" stroke="none" font-family="Arial" font-size="13px" font-style="normal" font-weight="bold" text-decoration="undefined" x="889.5" y="463" text-anchor="middle" dominant-baseline="central" transform="matrix(1 0 0 1 -202 -344)">UC20 - Visualizzazione</text><text fill="#000000" stroke="none" font-family="Arial" font-size="13px" font-style="normal" font-weight="bold" text-decoration="undefined" x="889.5" y="476" text-anchor="middle" dominant-baseline="central" transform="matrix(1 0 0 1 -202 -344)">alert</text></g></g><g><path fill="none" stroke="#000000" paint-order="fill stroke markers" d=" M 467 120 L 569 122" stroke-miterlimit="10" stroke-dasharray="3"/></g><g><path fill="none" stroke="#000000" paint-order="fill stroke markers" d=" M 558.7567544868664 126.00947893842437 L 569 122 L 558.9218018899201 117.59206138268911" stroke-miterlimit="10" stroke-dasharray=""/></g><g><rect fill="#ffffff" stroke="none" x="684" y="447" width="55.65625" height="13" transform="matrix(1 0 0 1 -202 -344)"/></g><g><g><path fill="none" stroke="none"/><text fill="#000000" stroke="none" font-family="Arial" font-size="13px" font-style="normal" font-weight="normal" text-decoration="undefined" x="711.828125" y="453.5" text-anchor="middle" dominant-baseline="central" transform="matrix(1 0 0 1 -202 -344)">«include»</text></g></g><g><path fill="none" stroke="#000000" paint-order="fill stroke markers" d=" M 225 120 L 134 121" stroke-miterlimit="10" stroke-dasharray=""/></g></g></svg>