<svg version="1.1" xmlns="http://www.w3.org/2000/svg" xmlns:xlink="http://www.w3.org/1999/xlink" width="921" height="204"><defs/><g><g><rect fill="#C0C0C0" stroke="none" x="614" y="477" width="684" height="184" transform="matrix(1 0 0 1 -381 -460)" fill-opacity="0.2"/></g><g><rect fill="#ffffff" stroke="none" x="607" y="470" width="684" height="184" transform="matrix(1 0 0 1 -381 -460)"/></g><g><path fill="none" stroke="#000000" paint-order="fill stroke markers" d=" M 226 10 L 910 10 L 910 194 L 226 194 L 226 10 Z Z" stroke-miterlimit="10" stroke-dasharray=""/></g><g><g><path fill="none" stroke="none"/><text fill="#000000" stroke="none" font-family="Arial" font-size="13px" font-style="normal" font-weight="bold" text-decoration="undefined" x="949.5" y="483.5" text-anchor="middle" dominant-baseline="central" transform="matrix(1 0 0 1 -381 -460)">Sistema Cloud</text></g></g><g><path fill="#ffffff" stroke="none" paint-order="stroke fill markers" d=" M 62.860439453125025 75.85000000000002 C 62.860439453125025 70.96227952000004 66.81824182112501 67 71.700439453125 67 C 76.58263708512499 67 80.54043945312497 70.96227952000004 80.54043945312497 75.85000000000002 C 80.54043945312497 80.73772048000001 76.58263708512499 84.70000000000005 71.700439453125 84.70000000000005 C 66.81824182112501 84.70000000000005 62.860439453125025 80.73772048000001 62.860439453125025 75.85000000000002 Z"/></g><g><path fill="none" stroke="#000000" paint-order="fill stroke markers" d=" M 62.860439453125025 75.85000000000002 C 62.860439453125025 70.96227952000004 66.81824182112501 67 71.700439453125 67 C 76.58263708512499 67 80.54043945312497 70.96227952000004 80.54043945312497 75.85000000000002 C 80.54043945312497 80.73772048000001 76.58263708512499 84.70000000000005 71.700439453125 84.70000000000005 C 66.81824182112501 84.70000000000005 62.860439453125025 80.73772048000001 62.860439453125025 75.85000000000002 Z" stroke-miterlimit="10" stroke-dasharray=""/></g><g><path fill="none" stroke="#000000" paint-order="fill stroke markers" d=" M 71.700439453125 84.70000000000005 L 71.700439453125 102.29999999999995" stroke-miterlimit="10" stroke-dasharray=""/></g><g><path fill="none" stroke="#000000" paint-order="fill stroke markers" d=" M 62.340439453124986 91.29999999999995 L 81.06043945312501 91.29999999999995" stroke-miterlimit="10" stroke-dasharray=""/></g><g><path fill="none" stroke="#000000" paint-order="fill stroke markers" d=" M 71.700439453125 102.29999999999995 L 58.700439453125 120" stroke-miterlimit="10" stroke-dasharray=""/></g><g><path fill="none" stroke="#000000" paint-order="fill stroke markers" d=" M 71.700439453125 102.29999999999995 L 84.700439453125 120" stroke-miterlimit="10" stroke-dasharray=""/></g><g><g><path fill="none" stroke="none"/><text fill="#000000" stroke="none" font-family="Arial" font-size="13px" font-style="normal" font-weight="bold" text-decoration="undefined" x="453.200439453125" y="594.5" text-anchor="middle" dominant-baseline="central" transform="matrix(1 0 0 1 -381 -460)">Utente autenticato</text></g></g><g><path fill="#C0C0C0" stroke="none" paint-order="stroke fill markers" d=" M 289 123.5 C 289 108.86445279999998 346.5314032 97 417.5 97 C 488.4685968 97 546 108.86445279999998 546 123.5 C 546 138.13554720000002 488.4685968 150 417.5 150 C 346.5314032 150 289 138.13554720000002 289 123.5 Z" fill-opacity="0.2"/></g><g><path fill="#ffffff" stroke="none" paint-order="stroke fill markers" d=" M 282 116.5 C 282 101.86445279999998 339.5314032 90 410.5 90 C 481.4685968 90 539 101.86445279999998 539 116.5 C 539 131.13554720000002 481.4685968 143 410.5 143 C 339.5314032 143 282 131.13554720000002 282 116.5 Z"/></g><g><path fill="none" stroke="#000000" paint-order="fill stroke markers" d=" M 282 116.5 C 282 101.86445279999998 339.5314032 90 410.5 90 C 481.4685968 90 539 101.86445279999998 539 116.5 C 539 131.13554720000002 481.4685968 143 410.5 143 C 339.5314032 143 282 131.13554720000002 282 116.5 Z" stroke-miterlimit="10" stroke-dasharray=""/></g><g><g><path fill="none" stroke="none"/><text fill="#000000" stroke="none" font-family="Arial" font-size="13px" font-style="normal" font-weight="bold" text-decoration="undefined" x="791.5" y="571" text-anchor="middle" dominant-baseline="central" transform="matrix(1 0 0 1 -381 -460)">UC19 - Visualizzazione lista</text><text fill="#000000" stroke="none" font-family="Arial" font-size="13px" font-style="normal" font-weight="bold" text-decoration="undefined" x="791.5" y="584" text-anchor="middle" dominant-baseline="central" transform="matrix(1 0 0 1 -381 -460)">alert</text></g></g><g><path fill="#C0C0C0" stroke="none" paint-order="stroke fill markers" d=" M 689 123.5 C 689 108.86445279999998 735.5623808 97 793 97 C 850.4376192 97 897 108.86445279999998 897 123.5 C 897 138.13554720000002 850.4376192 150 793 150 C 735.5623808 150 689 138.13554720000002 689 123.5 Z" fill-opacity="0.2"/></g><g><path fill="#ffffff" stroke="none" paint-order="stroke fill markers" d=" M 682 116.5 C 682 101.86445279999998 728.5623808 90 786 90 C 843.4376192 90 890 101.86445279999998 890 116.5 C 890 131.13554720000002 843.4376192 143 786 143 C 728.5623808 143 682 131.13554720000002 682 116.5 Z"/></g><g><path fill="none" stroke="#000000" paint-order="fill stroke markers" d=" M 682 116.5 C 682 101.86445279999998 728.5623808 90 786 90 C 843.4376192 90 890 101.86445279999998 890 116.5 C 890 131.13554720000002 843.4376192 143 786 143 C 728.5623808 143 682 131.13554720000002 682 116.5 Z" stroke-miterlimit="10" stroke-dasharray=""/></g><g><g><path fill="none" stroke="none"/><text fill="#000000" stroke="none" font-family="Arial" font-size="13px" font-style="normal" font-weight="bold" text-decoration="undefined" x="1167" y="571" text-anchor="middle" dominant-baseline="central" transform="matrix(1 0 0 1 -381 -460)">UC20 -</text><text fill="#000000" stroke="none" font-family="Arial" font-size="13px" font-style="normal" font-weight="bold" text-decoration="undefined" x="1167" y="584" text-anchor="middle" dominant-baseline="central" transform="matrix(1 0 0 1 -381 -460)">Visualizzazione alert</text></g></g><g><path fill="none" stroke="#000000" paint-order="fill stroke markers" d=" M 540 116 L 681 116" stroke-miterlimit="10" stroke-dasharray="3"/></g><g><path fill="none" stroke="#000000" paint-order="fill stroke markers" d=" M 670.8373251423759 120.209517756016 L 681 116 L 670.8373251423759 111.790482243984" stroke-miterlimit="10" stroke-dasharray=""/></g><g><rect fill="#ffffff" stroke="none" x="955" y="558" width="55.65625" height="13" transform="matrix(1 0 0 1 -381 -460)"/></g><g><g><path fill="none" stroke="none"/><text fill="#000000" stroke="none" font-family="Arial" font-size="13px" font-style="normal" font-weight="normal" text-decoration="undefined" x="982.828125" y="564.5" text-anchor="middle" dominant-baseline="central" transform="matrix(1 0 0 1 -381 -460)">«include»</text></g></g><g><path fill="none" stroke="#000000" paint-order="fill stroke markers" d=" M 281 112 L 134 108" stroke-miterlimit="10" stroke-dasharray=""/></g></g></svg>