<svg version="1.1" xmlns="http://www.w3.org/2000/svg" xmlns:xlink="http://www.w3.org/1999/xlink" width="901" height="364"><defs/><g><g><rect fill="#C0C0C0" stroke="none" x="363" y="297" width="712" height="344" transform="matrix(1 0 0 1 -178 -280)" fill-opacity="0.2"/></g><g><rect fill="#ffffff" stroke="none" x="356" y="290" width="712" height="344" transform="matrix(1 0 0 1 -178 -280)"/></g><g><path fill="none" stroke="#000000" paint-order="fill stroke markers" d=" M 178 10 L 890 10 L 890 354 L 178 354 L 178 10 Z Z" stroke-miterlimit="10" stroke-dasharray=""/></g><g><g><path fill="none" stroke="none"/><text fill="#000000" stroke="none" font-family="Arial" font-size="13px" font-style="normal" font-weight="bold" text-decoration="undefined" x="712.5" y="303.5" text-anchor="middle" dominant-baseline="central" transform="matrix(1 0 0 1 -178 -280)">Dashboard</text></g></g><g><path fill="#ffffff" stroke="none" paint-order="stroke fill markers" d=" M 62.860439453125 168.85000000000002 C 62.860439453125 163.96227952000004 66.81824182112501 160 71.700439453125 160 C 76.58263708512499 160 80.54043945312497 163.96227952000004 80.54043945312497 168.85000000000002 C 80.54043945312497 173.73772048 76.58263708512499 177.7 71.700439453125 177.7 C 66.81824182112501 177.7 62.860439453125 173.73772048 62.860439453125 168.85000000000002 Z"/></g><g><path fill="none" stroke="#000000" paint-order="fill stroke markers" d=" M 62.860439453125 168.85000000000002 C 62.860439453125 163.96227952000004 66.81824182112501 160 71.700439453125 160 C 76.58263708512499 160 80.54043945312497 163.96227952000004 80.54043945312497 168.85000000000002 C 80.54043945312497 173.73772048 76.58263708512499 177.7 71.700439453125 177.7 C 66.81824182112501 177.7 62.860439453125 173.73772048 62.860439453125 168.85000000000002 Z" stroke-miterlimit="10" stroke-dasharray=""/></g><g><path fill="none" stroke="#000000" paint-order="fill stroke markers" d=" M 71.700439453125 177.7 L 71.700439453125 195.3" stroke-miterlimit="10" stroke-dasharray=""/></g><g><path fill="none" stroke="#000000" paint-order="fill stroke markers" d=" M 62.340439453124986 184.3 L 81.06043945312501 184.3" stroke-miterlimit="10" stroke-dasharray=""/></g><g><path fill="none" stroke="#000000" paint-order="fill stroke markers" d=" M 71.700439453125 195.3 L 58.700439453125 213" stroke-miterlimit="10" stroke-dasharray=""/></g><g><path fill="none" stroke="#000000" paint-order="fill stroke markers" d=" M 71.700439453125 195.3 L 84.700439453125 213" stroke-miterlimit="10" stroke-dasharray=""/></g><g><g><path fill="none" stroke="none"/><text fill="#000000" stroke="none" font-family="Arial" font-size="13px" font-style="normal" font-weight="bold" text-decoration="undefined" x="250.200439453125" y="507.5" text-anchor="middle" dominant-baseline="central" transform="matrix(1 0 0 1 -178 -280)">Utente autenticato</text></g></g><g><path fill="#C0C0C0" stroke="none" paint-order="stroke fill markers" d=" M 233 205 C 233 185.1177472 283.1441024 169 345 169 C 406.85589760000005 169 457 185.1177472 457 205 C 457 224.8822528 406.85589760000005 241 345 241 C 283.1441024 241 233 224.8822528 233 205 Z" fill-opacity="0.2"/></g><g><path fill="#ffffff" stroke="none" paint-order="stroke fill markers" d=" M 226 198 C 226 178.1177472 276.1441024 162 338 162 C 399.85589760000005 162 450 178.1177472 450 198 C 450 217.8822528 399.85589760000005 234 338 234 C 276.1441024 234 226 217.8822528 226 198 Z"/></g><g><path fill="none" stroke="#000000" paint-order="fill stroke markers" d=" M 226 198 C 226 178.1177472 276.1441024 162 338 162 C 399.85589760000005 162 450 178.1177472 450 198 C 450 217.8822528 399.85589760000005 234 338 234 C 276.1441024 234 226 217.8822528 226 198 Z" stroke-miterlimit="10" stroke-dasharray=""/></g><g><g><path fill="none" stroke="none"/><text fill="#000000" stroke="none" font-family="Arial" font-size="13px" font-style="normal" font-weight="bold" text-decoration="undefined" x="516" y="472.5" text-anchor="middle" dominant-baseline="central" transform="matrix(1 0 0 1 -178 -280)">UC20 - Visualizzazione</text><text fill="#000000" stroke="none" font-family="Arial" font-size="13px" font-style="normal" font-weight="bold" text-decoration="undefined" x="516" y="485.5" text-anchor="middle" dominant-baseline="central" transform="matrix(1 0 0 1 -178 -280)">alert</text></g></g><g><path fill="#C0C0C0" stroke="none" paint-order="stroke fill markers" d=" M 593 267.5 C 593 252.86445279999998 652.9938368 241 727 241 C 801.0061632 241 861 252.86445279999998 861 267.5 C 861 282.1355472 801.0061632 294 727 294 C 652.9938368 294 593 282.1355472 593 267.5 Z" fill-opacity="0.2"/></g><g><path fill="#ffffff" stroke="none" paint-order="stroke fill markers" d=" M 586 260.5 C 586 245.86445279999998 645.9938368 234 720 234 C 794.0061632 234 854 245.86445279999998 854 260.5 C 854 275.1355472 794.0061632 287 720 287 C 645.9938368 287 586 275.1355472 586 260.5 Z"/></g><g><path fill="none" stroke="#000000" paint-order="fill stroke markers" d=" M 586 260.5 C 586 245.86445279999998 645.9938368 234 720 234 C 794.0061632 234 854 245.86445279999998 854 260.5 C 854 275.1355472 794.0061632 287 720 287 C 645.9938368 287 586 275.1355472 586 260.5 Z" stroke-miterlimit="10" stroke-dasharray=""/></g><g><g><path fill="none" stroke="none"/><text fill="#000000" stroke="none" font-family="Arial" font-size="13px" font-style="normal" font-weight="bold" text-decoration="undefined" x="898" y="535" text-anchor="middle" dominant-baseline="central" transform="matrix(1 0 0 1 -178 -280)">UC20.2 - Visualizzazione</text><text fill="#000000" stroke="none" font-family="Arial" font-size="13px" font-style="normal" font-weight="bold" text-decoration="undefined" x="898" y="548" text-anchor="middle" dominant-baseline="central" transform="matrix(1 0 0 1 -178 -280)">descrizione alert</text></g></g><g><path fill="none" stroke="#000000" paint-order="fill stroke markers" d=" M 451 178 L 593 153" stroke-miterlimit="10" stroke-dasharray="3"/></g><g><path fill="none" stroke="#000000" paint-order="fill stroke markers" d=" M 583.7211429988447 158.90786025157257 L 593 153 L 582.2613692466334 150.61634533901224" stroke-miterlimit="10" stroke-dasharray=""/></g><g><rect fill="#ffffff" stroke="none" x="656" y="432" width="55.65625" height="13" transform="matrix(1 0 0 1 -178 -280)"/></g><g><g><path fill="none" stroke="none"/><text fill="#000000" stroke="none" font-family="Arial" font-size="13px" font-style="normal" font-weight="normal" text-decoration="undefined" x="683.828125" y="438.5" text-anchor="middle" dominant-baseline="central" transform="matrix(1 0 0 1 -178 -280)">«include»</text></g></g><g><path fill="none" stroke="#000000" paint-order="fill stroke markers" d=" M 451 216 L 585 238" stroke-miterlimit="10" stroke-dasharray="3"/></g><g><path fill="none" stroke="#000000" paint-order="fill stroke markers" d=" M 574.2895987075251 240.50744973113183 L 585 238 L 575.6535679084942 232.19963732522956" stroke-miterlimit="10" stroke-dasharray=""/></g><g><rect fill="#ffffff" stroke="none" x="640" y="511" width="55.65625" height="13" transform="matrix(1 0 0 1 -178 -280)"/></g><g><g><path fill="none" stroke="none"/><text fill="#000000" stroke="none" font-family="Arial" font-size="13px" font-style="normal" font-weight="normal" text-decoration="undefined" x="667.828125" y="517.5" text-anchor="middle" dominant-baseline="central" transform="matrix(1 0 0 1 -178 -280)">«include»</text></g></g><g><path fill="none" stroke="#000000" paint-order="fill stroke markers" d=" M 225 198 L 134 199" stroke-miterlimit="10" stroke-dasharray=""/></g><g><path fill="#C0C0C0" stroke="none" paint-order="stroke fill markers" d=" M 601 139.5 C 601 124.86445279999998 655.6212544 113 723 113 C 790.3787456 113 845 124.86445279999998 845 139.5 C 845 154.13554720000002 790.3787456 166 723 166 C 655.6212544 166 601 154.13554720000002 601 139.5 Z" fill-opacity="0.2"/></g><g><path fill="#ffffff" stroke="none" paint-order="stroke fill markers" d=" M 594 132.5 C 594 117.86445279999998 648.6212544 106 716 106 C 783.3787456 106 838 117.86445279999998 838 132.5 C 838 147.13554720000002 783.3787456 159 716 159 C 648.6212544 159 594 147.13554720000002 594 132.5 Z"/></g><g><path fill="none" stroke="#000000" paint-order="fill stroke markers" d=" M 594 132.5 C 594 117.86445279999998 648.6212544 106 716 106 C 783.3787456 106 838 117.86445279999998 838 132.5 C 838 147.13554720000002 783.3787456 159 716 159 C 648.6212544 159 594 147.13554720000002 594 132.5 Z" stroke-miterlimit="10" stroke-dasharray=""/></g><g><g><path fill="none" stroke="none"/><text fill="#000000" stroke="none" font-family="Arial" font-size="13px" font-style="normal" font-weight="bold" text-decoration="undefined" x="894" y="407" text-anchor="middle" dominant-baseline="central" transform="matrix(1 0 0 1 -178 -280)">UC20.1 - Visualizzazione</text><text fill="#000000" stroke="none" font-family="Arial" font-size="13px" font-style="normal" font-weight="bold" text-decoration="undefined" x="894" y="420" text-anchor="middle" dominant-baseline="central" transform="matrix(1 0 0 1 -178 -280)">titolo alert</text></g></g></g></svg>