<svg version="1.1" xmlns="http://www.w3.org/2000/svg" xmlns:xlink="http://www.w3.org/1999/xlink" width="933" height="153"><defs/><g><g><path fill="#ffffff" stroke="none" paint-order="stroke fill markers" d=" M 62.860439453125 35.85000000000002 C 62.860439453125 30.96227952000004 66.81824182112501 27 71.700439453125 27 C 76.58263708512499 27 80.54043945312497 30.96227952000004 80.54043945312497 35.85000000000002 C 80.54043945312497 40.73772048000001 76.58263708512499 44.700000000000045 71.700439453125 44.700000000000045 C 66.81824182112501 44.700000000000045 62.860439453125 40.73772048000001 62.860439453125 35.85000000000002 Z"/></g><g><path fill="none" stroke="#000000" paint-order="fill stroke markers" d=" M 62.860439453125 35.85000000000002 C 62.860439453125 30.96227952000004 66.81824182112501 27 71.700439453125 27 C 76.58263708512499 27 80.54043945312497 30.96227952000004 80.54043945312497 35.85000000000002 C 80.54043945312497 40.73772048000001 76.58263708512499 44.700000000000045 71.700439453125 44.700000000000045 C 66.81824182112501 44.700000000000045 62.860439453125 40.73772048000001 62.860439453125 35.85000000000002 Z" stroke-miterlimit="10" stroke-dasharray=""/></g><g><path fill="none" stroke="#000000" paint-order="fill stroke markers" d=" M 71.700439453125 44.700000000000045 L 71.700439453125 62.299999999999955" stroke-miterlimit="10" stroke-dasharray=""/></g><g><path fill="none" stroke="#000000" paint-order="fill stroke markers" d=" M 62.340439453124986 51.299999999999955 L 81.06043945312501 51.299999999999955" stroke-miterlimit="10" stroke-dasharray=""/></g><g><path fill="none" stroke="#000000" paint-order="fill stroke markers" d=" M 71.700439453125 62.299999999999955 L 58.700439453125 80" stroke-miterlimit="10" stroke-dasharray=""/></g><g><path fill="none" stroke="#000000" paint-order="fill stroke markers" d=" M 71.700439453125 62.299999999999955 L 84.700439453125 80" stroke-miterlimit="10" stroke-dasharray=""/></g><g><g><path fill="none" stroke="none"/><text fill="#000000" stroke="none" font-family="Arial" font-size="13px" font-style="normal" font-weight="bold" text-decoration="undefined" x="255.200439453125" y="625.5" text-anchor="middle" dominant-baseline="central" transform="matrix(1 0 0 1 -183 -531)">Utente autenticato</text></g></g><g><path fill="#C0C0C0" stroke="none" paint-order="stroke fill markers" d=" M 233 83.5 C 233 68.86445279999998 290.083688 57 360.5 57 C 430.91631200000006 57 488 68.86445279999998 488 83.5 C 488 98.13554720000002 430.91631200000006 110 360.5 110 C 290.083688 110 233 98.13554720000002 233 83.5 Z" fill-opacity="0.2"/></g><g><path fill="#ffffff" stroke="none" paint-order="stroke fill markers" d=" M 226 76.5 C 226 61.86445279999998 283.083688 50 353.5 50 C 423.91631200000006 50 481 61.86445279999998 481 76.5 C 481 91.13554720000002 423.91631200000006 103 353.5 103 C 283.083688 103 226 91.13554720000002 226 76.5 Z"/></g><g><path fill="none" stroke="#000000" paint-order="fill stroke markers" d=" M 226 76.5 C 226 61.86445279999998 283.083688 50 353.5 50 C 423.91631200000006 50 481 61.86445279999998 481 76.5 C 481 91.13554720000002 423.91631200000006 103 353.5 103 C 283.083688 103 226 91.13554720000002 226 76.5 Z" stroke-miterlimit="10" stroke-dasharray=""/></g><g><g><path fill="none" stroke="none"/><text fill="#000000" stroke="none" font-family="Arial" font-size="13px" font-style="normal" font-weight="bold" text-decoration="undefined" x="536.5" y="602" text-anchor="middle" dominant-baseline="central" transform="matrix(1 0 0 1 -183 -531)">UC20 - Visualizzazione</text><text fill="#000000" stroke="none" font-family="Arial" font-size="13px" font-style="normal" font-weight="bold" text-decoration="undefined" x="536.5" y="615" text-anchor="middle" dominant-baseline="central" transform="matrix(1 0 0 1 -183 -531)">alert</text></g></g><g><path fill="#C0C0C0" stroke="none" paint-order="stroke fill markers" d=" M 609 43.5 C 609 28.86445279999998 680.8582896 17 769.5 17 C 858.1417104 17 930 28.86445279999998 930 43.5 C 930 58.13554720000002 858.1417104 70 769.5 70 C 680.8582896 70 609 58.13554720000002 609 43.5 Z" fill-opacity="0.2"/></g><g><path fill="#ffffff" stroke="none" paint-order="stroke fill markers" d=" M 602 36.5 C 602 21.86445279999998 673.8582896 10 762.5 10 C 851.1417104 10 923 21.86445279999998 923 36.5 C 923 51.13554720000002 851.1417104 63 762.5 63 C 673.8582896 63 602 51.13554720000002 602 36.5 Z"/></g><g><path fill="none" stroke="#000000" paint-order="fill stroke markers" d=" M 602 36.5 C 602 21.86445279999998 673.8582896 10 762.5 10 C 851.1417104 10 923 21.86445279999998 923 36.5 C 923 51.13554720000002 851.1417104 63 762.5 63 C 673.8582896 63 602 51.13554720000002 602 36.5 Z" stroke-miterlimit="10" stroke-dasharray=""/></g><g><g><path fill="none" stroke="none"/><text fill="#000000" stroke="none" font-family="Arial" font-size="13px" font-style="normal" font-weight="bold" text-decoration="undefined" x="945.5" y="562" text-anchor="middle" dominant-baseline="central" transform="matrix(1 0 0 1 -183 -531)">UC20.1 - Visualizzazione titolo</text><text fill="#000000" stroke="none" font-family="Arial" font-size="13px" font-style="normal" font-weight="bold" text-decoration="undefined" x="945.5" y="575" text-anchor="middle" dominant-baseline="central" transform="matrix(1 0 0 1 -183 -531)">alert</text></g></g><g><path fill="#C0C0C0" stroke="none" paint-order="stroke fill markers" d=" M 617 123.5 C 617 108.86445279999998 683.2618496 97 765 97 C 846.7381504 97 913 108.86445279999998 913 123.5 C 913 138.13554720000002 846.7381504 150 765 150 C 683.2618496 150 617 138.13554720000002 617 123.5 Z" fill-opacity="0.2"/></g><g><path fill="#ffffff" stroke="none" paint-order="stroke fill markers" d=" M 610 116.5 C 610 101.86445279999998 676.2618496 90 758 90 C 839.7381504 90 906 101.86445279999998 906 116.5 C 906 131.13554720000002 839.7381504 143 758 143 C 676.2618496 143 610 131.13554720000002 610 116.5 Z"/></g><g><path fill="none" stroke="#000000" paint-order="fill stroke markers" d=" M 610 116.5 C 610 101.86445279999998 676.2618496 90 758 90 C 839.7381504 90 906 101.86445279999998 906 116.5 C 906 131.13554720000002 839.7381504 143 758 143 C 676.2618496 143 610 131.13554720000002 610 116.5 Z" stroke-miterlimit="10" stroke-dasharray=""/></g><g><g><path fill="none" stroke="none"/><text fill="#000000" stroke="none" font-family="Arial" font-size="13px" font-style="normal" font-weight="bold" text-decoration="undefined" x="941" y="642" text-anchor="middle" dominant-baseline="central" transform="matrix(1 0 0 1 -183 -531)">UC20.2 - Visualizzazione</text><text fill="#000000" stroke="none" font-family="Arial" font-size="13px" font-style="normal" font-weight="bold" text-decoration="undefined" x="941" y="655" text-anchor="middle" dominant-baseline="central" transform="matrix(1 0 0 1 -183 -531)">descrizione alert</text></g></g><g><path fill="none" stroke="#000000" paint-order="fill stroke markers" d=" M 482 63 L 601 52" stroke-miterlimit="10" stroke-dasharray="3"/></g><g><path fill="none" stroke="#000000" paint-order="fill stroke markers" d=" M 591.267930083699 57.12706691435062 L 601 52 L 590.4930035844675 48.74377114993649" stroke-miterlimit="10" stroke-dasharray=""/></g><g><rect fill="#ffffff" stroke="none" x="681" y="573" width="55.65625" height="13" transform="matrix(1 0 0 1 -183 -531)"/></g><g><g><path fill="none" stroke="none"/><text fill="#000000" stroke="none" font-family="Arial" font-size="13px" font-style="normal" font-weight="normal" text-decoration="undefined" x="708.828125" y="579.5" text-anchor="middle" dominant-baseline="central" transform="matrix(1 0 0 1 -183 -531)">«include»</text></g></g><g><path fill="none" stroke="#000000" paint-order="fill stroke markers" d=" M 482 89 L 609 101" stroke-miterlimit="10" stroke-dasharray="3"/></g><g><path fill="none" stroke="#000000" paint-order="fill stroke markers" d=" M 598.4864039307059 104.23485667251646 L 609 101 L 599.2783758354431 95.85315401404887" stroke-miterlimit="10" stroke-dasharray=""/></g><g><rect fill="#ffffff" stroke="none" x="673" y="632" width="55.65625" height="13" transform="matrix(1 0 0 1 -183 -531)"/></g><g><g><path fill="none" stroke="none"/><text fill="#000000" stroke="none" font-family="Arial" font-size="13px" font-style="normal" font-weight="normal" text-decoration="undefined" x="700.828125" y="638.5" text-anchor="middle" dominant-baseline="central" transform="matrix(1 0 0 1 -183 -531)">«include»</text></g></g><g><path fill="none" stroke="#000000" paint-order="fill stroke markers" d=" M 225 71 L 134 68" stroke-miterlimit="10" stroke-dasharray=""/></g></g></svg>