<svg version="1.1" xmlns="http://www.w3.org/2000/svg" xmlns:xlink="http://www.w3.org/1999/xlink" width="941" height="236"><defs/><g><g><rect fill="#C0C0C0" stroke="none" x="564" y="461" width="744" height="216" transform="matrix(1 0 0 1 -371 -444)" fill-opacity="0.2"/></g><g><rect fill="#ffffff" stroke="none" x="557" y="454" width="744" height="216" transform="matrix(1 0 0 1 -371 -444)"/></g><g><path fill="none" stroke="#000000" paint-order="fill stroke markers" d=" M 186 10 L 930 10 L 930 226 L 186 226 L 186 10 Z Z" stroke-miterlimit="10" stroke-dasharray=""/></g><g><g><path fill="none" stroke="none"/><text fill="#000000" stroke="none" font-family="Arial" font-size="13px" font-style="normal" font-weight="bold" text-decoration="undefined" x="929.5" y="467.5" text-anchor="middle" dominant-baseline="central" transform="matrix(1 0 0 1 -371 -444)">Sistema Cloud</text></g></g><g><path fill="#ffffff" stroke="none" paint-order="stroke fill markers" d=" M 62.860439453125025 83.85000000000002 C 62.860439453125025 78.96227952000004 66.81824182112501 75 71.700439453125 75 C 76.58263708512499 75 80.54043945312497 78.96227952000004 80.54043945312497 83.85000000000002 C 80.54043945312497 88.73772048000001 76.58263708512499 92.70000000000005 71.700439453125 92.70000000000005 C 66.81824182112501 92.70000000000005 62.860439453125025 88.73772048000001 62.860439453125025 83.85000000000002 Z"/></g><g><path fill="none" stroke="#000000" paint-order="fill stroke markers" d=" M 62.860439453125025 83.85000000000002 C 62.860439453125025 78.96227952000004 66.81824182112501 75 71.700439453125 75 C 76.58263708512499 75 80.54043945312497 78.96227952000004 80.54043945312497 83.85000000000002 C 80.54043945312497 88.73772048000001 76.58263708512499 92.70000000000005 71.700439453125 92.70000000000005 C 66.81824182112501 92.70000000000005 62.860439453125025 88.73772048000001 62.860439453125025 83.85000000000002 Z" stroke-miterlimit="10" stroke-dasharray=""/></g><g><path fill="none" stroke="#000000" paint-order="fill stroke markers" d=" M 71.700439453125 92.70000000000005 L 71.700439453125 110.29999999999995" stroke-miterlimit="10" stroke-dasharray=""/></g><g><path fill="none" stroke="#000000" paint-order="fill stroke markers" d=" M 62.340439453124986 99.29999999999995 L 81.06043945312501 99.29999999999995" stroke-miterlimit="10" stroke-dasharray=""/></g><g><path fill="none" stroke="#000000" paint-order="fill stroke markers" d=" M 71.700439453125 110.29999999999995 L 58.700439453125 128" stroke-miterlimit="10" stroke-dasharray=""/></g><g><path fill="none" stroke="#000000" paint-order="fill stroke markers" d=" M 71.700439453125 110.29999999999995 L 84.700439453125 128" stroke-miterlimit="10" stroke-dasharray=""/></g><g><g><path fill="none" stroke="none"/><text fill="#000000" stroke="none" font-family="Arial" font-size="13px" font-style="normal" font-weight="bold" text-decoration="undefined" x="443.200439453125" y="586.5" text-anchor="middle" dominant-baseline="central" transform="matrix(1 0 0 1 -371 -444)">Utente autenticato</text></g></g><g><path fill="#C0C0C0" stroke="none" paint-order="stroke fill markers" d=" M 233 131.5 C 233 116.86445279999998 290.08368799999994 105 360.5 105 C 430.91631200000006 105 488 116.86445279999998 488 131.5 C 488 146.13554720000002 430.91631200000006 158 360.5 158 C 290.08368799999994 158 233 146.13554720000002 233 131.5 Z" fill-opacity="0.2"/></g><g><path fill="#ffffff" stroke="none" paint-order="stroke fill markers" d=" M 226 124.5 C 226 109.86445279999998 283.08368799999994 98 353.5 98 C 423.91631200000006 98 481 109.86445279999998 481 124.5 C 481 139.13554720000002 423.91631200000006 151 353.5 151 C 283.08368799999994 151 226 139.13554720000002 226 124.5 Z"/></g><g><path fill="none" stroke="#000000" paint-order="fill stroke markers" d=" M 226 124.5 C 226 109.86445279999998 283.08368799999994 98 353.5 98 C 423.91631200000006 98 481 109.86445279999998 481 124.5 C 481 139.13554720000002 423.91631200000006 151 353.5 151 C 283.08368799999994 151 226 139.13554720000002 226 124.5 Z" stroke-miterlimit="10" stroke-dasharray=""/></g><g><g><path fill="none" stroke="none"/><text fill="#000000" stroke="none" font-family="Arial" font-size="13px" font-style="normal" font-weight="bold" text-decoration="undefined" x="724.5" y="563" text-anchor="middle" dominant-baseline="central" transform="matrix(1 0 0 1 -371 -444)">UC20 - Visualizzazione</text><text fill="#000000" stroke="none" font-family="Arial" font-size="13px" font-style="normal" font-weight="bold" text-decoration="undefined" x="724.5" y="576" text-anchor="middle" dominant-baseline="central" transform="matrix(1 0 0 1 -371 -444)">alert</text></g></g><g><path fill="#C0C0C0" stroke="none" paint-order="stroke fill markers" d=" M 609 91.5 C 609 76.86445279999998 669.8892672 65 745 65 C 820.1107328 65 881 76.86445279999998 881 91.5 C 881 106.13554720000002 820.1107328 118 745 118 C 669.8892672 118 609 106.13554720000002 609 91.5 Z" fill-opacity="0.2"/></g><g><path fill="#ffffff" stroke="none" paint-order="stroke fill markers" d=" M 602 84.5 C 602 69.86445279999998 662.8892672 58 738 58 C 813.1107328 58 874 69.86445279999998 874 84.5 C 874 99.13554720000002 813.1107328 111 738 111 C 662.8892672 111 602 99.13554720000002 602 84.5 Z"/></g><g><path fill="none" stroke="#000000" paint-order="fill stroke markers" d=" M 602 84.5 C 602 69.86445279999998 662.8892672 58 738 58 C 813.1107328 58 874 69.86445279999998 874 84.5 C 874 99.13554720000002 813.1107328 111 738 111 C 662.8892672 111 602 99.13554720000002 602 84.5 Z" stroke-miterlimit="10" stroke-dasharray=""/></g><g><g><path fill="none" stroke="none"/><text fill="#000000" stroke="none" font-family="Arial" font-size="13px" font-style="normal" font-weight="bold" text-decoration="undefined" x="1109" y="523" text-anchor="middle" dominant-baseline="central" transform="matrix(1 0 0 1 -371 -444)">UC20.1 - Visualizzazione</text><text fill="#000000" stroke="none" font-family="Arial" font-size="13px" font-style="normal" font-weight="bold" text-decoration="undefined" x="1109" y="536" text-anchor="middle" dominant-baseline="central" transform="matrix(1 0 0 1 -371 -444)">titolo alert</text></g></g><g><path fill="#C0C0C0" stroke="none" paint-order="stroke fill markers" d=" M 617 171.5 C 617 156.86445279999998 672.5166847999999 145 741 145 C 809.4833152000001 145 865 156.86445279999998 865 171.5 C 865 186.13554720000002 809.4833152000001 198 741 198 C 672.5166847999999 198 617 186.13554720000002 617 171.5 Z" fill-opacity="0.2"/></g><g><path fill="#ffffff" stroke="none" paint-order="stroke fill markers" d=" M 610 164.5 C 610 149.86445279999998 665.5166847999999 138 734 138 C 802.4833152000001 138 858 149.86445279999998 858 164.5 C 858 179.13554720000002 802.4833152000001 191 734 191 C 665.5166847999999 191 610 179.13554720000002 610 164.5 Z"/></g><g><path fill="none" stroke="#000000" paint-order="fill stroke markers" d=" M 610 164.5 C 610 149.86445279999998 665.5166847999999 138 734 138 C 802.4833152000001 138 858 149.86445279999998 858 164.5 C 858 179.13554720000002 802.4833152000001 191 734 191 C 665.5166847999999 191 610 179.13554720000002 610 164.5 Z" stroke-miterlimit="10" stroke-dasharray=""/></g><g><g><path fill="none" stroke="none"/><text fill="#000000" stroke="none" font-family="Arial" font-size="13px" font-style="normal" font-weight="bold" text-decoration="undefined" x="1105" y="603" text-anchor="middle" dominant-baseline="central" transform="matrix(1 0 0 1 -371 -444)">UC20.2 - Visualizzazione</text><text fill="#000000" stroke="none" font-family="Arial" font-size="13px" font-style="normal" font-weight="bold" text-decoration="undefined" x="1105" y="616" text-anchor="middle" dominant-baseline="central" transform="matrix(1 0 0 1 -371 -444)">descrizione alert</text></g></g><g><path fill="none" stroke="#000000" paint-order="fill stroke markers" d=" M 482 111 L 601 98" stroke-miterlimit="10" stroke-dasharray="3"/></g><g><path fill="none" stroke="#000000" paint-order="fill stroke markers" d=" M 591.3545728831699 103.28826396220143 L 601 98 L 590.4402857698717 94.9190203866259" stroke-miterlimit="10" stroke-dasharray=""/></g><g><rect fill="#ffffff" stroke="none" x="868" y="534" width="55.65625" height="13" transform="matrix(1 0 0 1 -371 -444)"/></g><g><g><path fill="none" stroke="none"/><text fill="#000000" stroke="none" font-family="Arial" font-size="13px" font-style="normal" font-weight="normal" text-decoration="undefined" x="895.828125" y="540.5" text-anchor="middle" dominant-baseline="central" transform="matrix(1 0 0 1 -371 -444)">«include»</text></g></g><g><path fill="none" stroke="#000000" paint-order="fill stroke markers" d=" M 482 138 L 609 151" stroke-miterlimit="10" stroke-dasharray="3"/></g><g><path fill="none" stroke="#000000" paint-order="fill stroke markers" d=" M 598.4614970776884 154.15276960091103 L 609 151 L 599.3188083557562 145.77749788440224" stroke-miterlimit="10" stroke-dasharray=""/></g><g><rect fill="#ffffff" stroke="none" x="860" y="593" width="55.65625" height="13" transform="matrix(1 0 0 1 -371 -444)"/></g><g><g><path fill="none" stroke="none"/><text fill="#000000" stroke="none" font-family="Arial" font-size="13px" font-style="normal" font-weight="normal" text-decoration="undefined" x="887.828125" y="599.5" text-anchor="middle" dominant-baseline="central" transform="matrix(1 0 0 1 -371 -444)">«include»</text></g></g><g><path fill="none" stroke="#000000" paint-order="fill stroke markers" d=" M 225 119 L 134 116" stroke-miterlimit="10" stroke-dasharray=""/></g></g></svg>