<svg version="1.1" xmlns="http://www.w3.org/2000/svg" xmlns:xlink="http://www.w3.org/1999/xlink" width="1124" height="321"><defs/><g><g><path fill="#ffffff" stroke="none" paint-order="stroke fill markers" d=" M 62.860439453125 123.85000000000002 C 62.860439453125 118.96227952000004 66.81824182112499 115 71.700439453125 115 C 76.58263708512501 115 80.540439453125 118.96227952000004 80.540439453125 123.85000000000002 C 80.540439453125 128.73772048 76.58263708512501 132.70000000000005 71.700439453125 132.70000000000005 C 66.81824182112499 132.70000000000005 62.860439453125 128.73772048 62.860439453125 123.85000000000002 Z"/></g><g><path fill="none" stroke="#000000" paint-order="fill stroke markers" d=" M 62.860439453125 123.85000000000002 C 62.860439453125 118.96227952000004 66.81824182112499 115 71.700439453125 115 C 76.58263708512501 115 80.540439453125 118.96227952000004 80.540439453125 123.85000000000002 C 80.540439453125 128.73772048 76.58263708512501 132.70000000000005 71.700439453125 132.70000000000005 C 66.81824182112499 132.70000000000005 62.860439453125 128.73772048 62.860439453125 123.85000000000002 Z" stroke-miterlimit="10" stroke-dasharray=""/></g><g><path fill="none" stroke="#000000" paint-order="fill stroke markers" d=" M 71.700439453125 132.70000000000005 L 71.700439453125 150.29999999999995" stroke-miterlimit="10" stroke-dasharray=""/></g><g><path fill="none" stroke="#000000" paint-order="fill stroke markers" d=" M 62.340439453124986 139.29999999999995 L 81.06043945312501 139.29999999999995" stroke-miterlimit="10" stroke-dasharray=""/></g><g><path fill="none" stroke="#000000" paint-order="fill stroke markers" d=" M 71.700439453125 150.29999999999995 L 58.700439453125 168" stroke-miterlimit="10" stroke-dasharray=""/></g><g><path fill="none" stroke="#000000" paint-order="fill stroke markers" d=" M 71.700439453125 150.29999999999995 L 84.700439453125 168" stroke-miterlimit="10" stroke-dasharray=""/></g><g><g><path fill="none" stroke="none"/><text fill="#000000" stroke="none" font-family="Arial" font-size="13px" font-style="normal" font-weight="bold" text-decoration="undefined" x="159.200439453125" y="629.5" text-anchor="middle" dominant-baseline="central" transform="matrix(1 0 0 1 -87 -447)">Utente autenticato</text></g></g><g><path fill="#C0C0C0" stroke="none" paint-order="stroke fill markers" d=" M 313 171.5 C 313 156.86445279999998 390.0070144 145 485 145 C 579.9929856 145 657 156.86445279999998 657 171.5 C 657 186.13554720000002 579.9929856 198 485 198 C 390.0070144 198 313 186.13554720000002 313 171.5 Z" fill-opacity="0.2"/></g><g><path fill="#ffffff" stroke="none" paint-order="stroke fill markers" d=" M 306 164.5 C 306 149.86445279999998 383.0070144 138 478 138 C 572.9929856 138 650 149.86445279999998 650 164.5 C 650 179.13554720000002 572.9929856 191 478 191 C 383.0070144 191 306 179.13554720000002 306 164.5 Z"/></g><g><path fill="none" stroke="#000000" paint-order="fill stroke markers" d=" M 306 164.5 C 306 149.86445279999998 383.0070144 138 478 138 C 572.9929856 138 650 149.86445279999998 650 164.5 C 650 179.13554720000002 572.9929856 191 478 191 C 383.0070144 191 306 179.13554720000002 306 164.5 Z" stroke-miterlimit="10" stroke-dasharray=""/></g><g><g><path fill="none" stroke="none"/><text fill="#000000" stroke="none" font-family="Arial" font-size="13px" font-style="normal" font-weight="bold" text-decoration="undefined" x="565" y="606" text-anchor="middle" dominant-baseline="central" transform="matrix(1 0 0 1 -87 -447)">UC21 - Visualizzazione alert mancata</text><text fill="#000000" stroke="none" font-family="Arial" font-size="13px" font-style="normal" font-weight="bold" text-decoration="undefined" x="565" y="619" text-anchor="middle" dominant-baseline="central" transform="matrix(1 0 0 1 -87 -447)">ricezione dati da Gateway</text></g></g><g><path fill="#C0C0C0" stroke="none" paint-order="stroke fill markers" d=" M 329 43.5 C 329 28.86445279999998 400.634432 17 489 17 C 577.3655679999999 17 649 28.86445279999998 649 43.5 C 649 58.13554720000002 577.3655679999999 70 489 70 C 400.634432 70 329 58.13554720000002 329 43.5 Z" fill-opacity="0.2"/></g><g><path fill="#ffffff" stroke="none" paint-order="stroke fill markers" d=" M 322 36.5 C 322 21.86445279999998 393.634432 10 482 10 C 570.3655679999999 10 642 21.86445279999998 642 36.5 C 642 51.13554720000002 570.3655679999999 63 482 63 C 393.634432 63 322 51.13554720000002 322 36.5 Z"/></g><g><path fill="none" stroke="#000000" paint-order="fill stroke markers" d=" M 322 36.5 C 322 21.86445279999998 393.634432 10 482 10 C 570.3655679999999 10 642 21.86445279999998 642 36.5 C 642 51.13554720000002 570.3655679999999 63 482 63 C 393.634432 63 322 51.13554720000002 322 36.5 Z" stroke-miterlimit="10" stroke-dasharray=""/></g><g><g><path fill="none" stroke="none"/><text fill="#000000" stroke="none" font-family="Arial" font-size="13px" font-style="normal" font-weight="bold" text-decoration="undefined" x="569" y="478" text-anchor="middle" dominant-baseline="central" transform="matrix(1 0 0 1 -87 -447)">UC21.1 - Visualizzazione</text><text fill="#000000" stroke="none" font-family="Arial" font-size="13px" font-style="normal" font-weight="bold" text-decoration="undefined" x="569" y="491" text-anchor="middle" dominant-baseline="central" transform="matrix(1 0 0 1 -87 -447)">identificativo gateway alert</text></g></g><g><path fill="#C0C0C0" stroke="none" paint-order="stroke fill markers" d=" M 825 173 C 825 153.11774720000005 891.2618496 137 973 137 C 1054.7381504 137 1121 153.11774720000005 1121 173 C 1121 192.88225279999995 1054.7381504 209 973 209 C 891.2618496 209 825 192.88225279999995 825 173 Z" fill-opacity="0.2"/></g><g><path fill="#ffffff" stroke="none" paint-order="stroke fill markers" d=" M 818 166 C 818 146.11774720000005 884.2618496 130 966 130 C 1047.7381504 130 1114 146.11774720000005 1114 166 C 1114 185.88225279999995 1047.7381504 202 966 202 C 884.2618496 202 818 185.88225279999995 818 166 Z"/></g><g><path fill="none" stroke="#000000" paint-order="fill stroke markers" d=" M 818 166 C 818 146.11774720000005 884.2618496 130 966 130 C 1047.7381504 130 1114 146.11774720000005 1114 166 C 1114 185.88225279999995 1047.7381504 202 966 202 C 884.2618496 202 818 185.88225279999995 818 166 Z" stroke-miterlimit="10" stroke-dasharray=""/></g><g><g><path fill="none" stroke="none"/><text fill="#000000" stroke="none" font-family="Arial" font-size="13px" font-style="normal" font-weight="bold" text-decoration="undefined" x="1053" y="601" text-anchor="middle" dominant-baseline="central" transform="matrix(1 0 0 1 -87 -447)">UC21.2 - Visualizzazione</text><text fill="#000000" stroke="none" font-family="Arial" font-size="13px" font-style="normal" font-weight="bold" text-decoration="undefined" x="1053" y="614" text-anchor="middle" dominant-baseline="central" transform="matrix(1 0 0 1 -87 -447)">timestamp ultimo dato gateway</text><text fill="#000000" stroke="none" font-family="Arial" font-size="13px" font-style="normal" font-weight="bold" text-decoration="undefined" x="1053" y="627" text-anchor="middle" dominant-baseline="central" transform="matrix(1 0 0 1 -87 -447)">alert</text></g></g><g><path fill="#C0C0C0" stroke="none" paint-order="stroke fill markers" d=" M 329 291.5 C 329 276.8644528 397.0527104 265 481 265 C 564.9472896 265 633 276.8644528 633 291.5 C 633 306.1355472 564.9472896 318 481 318 C 397.0527104 318 329 306.1355472 329 291.5 Z" fill-opacity="0.2"/></g><g><path fill="#ffffff" stroke="none" paint-order="stroke fill markers" d=" M 322 284.5 C 322 269.8644528 390.0527104 258 474 258 C 557.9472896 258 626 269.8644528 626 284.5 C 626 299.1355472 557.9472896 311 474 311 C 390.0527104 311 322 299.1355472 322 284.5 Z"/></g><g><path fill="none" stroke="#000000" paint-order="fill stroke markers" d=" M 322 284.5 C 322 269.8644528 390.0527104 258 474 258 C 557.9472896 258 626 269.8644528 626 284.5 C 626 299.1355472 557.9472896 311 474 311 C 390.0527104 311 322 299.1355472 322 284.5 Z" stroke-miterlimit="10" stroke-dasharray=""/></g><g><g><path fill="none" stroke="none"/><text fill="#000000" stroke="none" font-family="Arial" font-size="13px" font-style="normal" font-weight="bold" text-decoration="undefined" x="561" y="726" text-anchor="middle" dominant-baseline="central" transform="matrix(1 0 0 1 -87 -447)">UC21.3 - Visualizzazione tempo</text><text fill="#000000" stroke="none" font-family="Arial" font-size="13px" font-style="normal" font-weight="bold" text-decoration="undefined" x="561" y="739" text-anchor="middle" dominant-baseline="central" transform="matrix(1 0 0 1 -87 -447)">inattività gateway alert</text></g></g><g><path fill="none" stroke="#000000" paint-order="fill stroke markers" d=" M 477 192 L 475 257" stroke-miterlimit="10" stroke-dasharray="3"/></g><g><path fill="none" stroke="#000000" paint-order="fill stroke markers" d=" M 471.1050232716867 246.71267010901772 L 475 257 L 479.52007626906254 246.97159481662925" stroke-miterlimit="10" stroke-dasharray=""/></g><g><rect fill="#ffffff" stroke="none" x="565" y="665" width="55.65625" height="13" transform="matrix(1 0 0 1 -87 -447)"/></g><g><g><path fill="none" stroke="none"/><text fill="#000000" stroke="none" font-family="Arial" font-size="13px" font-style="normal" font-weight="normal" text-decoration="undefined" x="592.828125" y="671.5" text-anchor="middle" dominant-baseline="central" transform="matrix(1 0 0 1 -87 -447)">«include»</text></g></g><g><path fill="none" stroke="#000000" paint-order="fill stroke markers" d=" M 479 137 L 481 64" stroke-miterlimit="10" stroke-dasharray="3"/></g><g><path fill="none" stroke="#000000" paint-order="fill stroke markers" d=" M 484.9296137810629 74.27414889573242 L 481 64 L 476.51373619694095 74.04357690712641" stroke-miterlimit="10" stroke-dasharray=""/></g><g><rect fill="#ffffff" stroke="none" x="510" y="540" width="55.65625" height="13" transform="matrix(1 0 0 1 -87 -447)"/></g><g><g><path fill="none" stroke="none"/><text fill="#000000" stroke="none" font-family="Arial" font-size="13px" font-style="normal" font-weight="normal" text-decoration="undefined" x="537.828125" y="546.5" text-anchor="middle" dominant-baseline="central" transform="matrix(1 0 0 1 -87 -447)">«include»</text></g></g><g><path fill="none" stroke="#000000" paint-order="fill stroke markers" d=" M 651 165 L 817 165" stroke-miterlimit="10" stroke-dasharray="3"/></g><g><path fill="none" stroke="#000000" paint-order="fill stroke markers" d=" M 806.8373251423759 169.209517756016 L 817 165 L 806.8373251423758 160.790482243984" stroke-miterlimit="10" stroke-dasharray=""/></g><g><rect fill="#ffffff" stroke="none" x="783" y="598" width="55.65625" height="13" transform="matrix(1 0 0 1 -87 -447)"/></g><g><g><path fill="none" stroke="none"/><text fill="#000000" stroke="none" font-family="Arial" font-size="13px" font-style="normal" font-weight="normal" text-decoration="undefined" x="810.828125" y="604.5" text-anchor="middle" dominant-baseline="central" transform="matrix(1 0 0 1 -87 -447)">«include»</text></g></g><g><path fill="none" stroke="#000000" paint-order="fill stroke markers" d=" M 305 160 L 134 156" stroke-miterlimit="10" stroke-dasharray=""/></g><g><path fill="#ffffff" stroke="none" paint-order="stroke fill markers" d=" M 62.860439453125 123.85000000000002 C 62.860439453125 118.96227952000004 66.81824182112499 115 71.700439453125 115 C 76.58263708512501 115 80.540439453125 118.96227952000004 80.540439453125 123.85000000000002 C 80.540439453125 128.73772048 76.58263708512501 132.70000000000005 71.700439453125 132.70000000000005 C 66.81824182112499 132.70000000000005 62.860439453125 128.73772048 62.860439453125 123.85000000000002 Z"/></g><g><path fill="none" stroke="#000000" paint-order="fill stroke markers" d=" M 62.860439453125 123.85000000000002 C 62.860439453125 118.96227952000004 66.81824182112499 115 71.700439453125 115 C 76.58263708512501 115 80.540439453125 118.96227952000004 80.540439453125 123.85000000000002 C 80.540439453125 128.73772048 76.58263708512501 132.70000000000005 71.700439453125 132.70000000000005 C 66.81824182112499 132.70000000000005 62.860439453125 128.73772048 62.860439453125 123.85000000000002 Z" stroke-miterlimit="10" stroke-dasharray=""/></g><g><path fill="none" stroke="#000000" paint-order="fill stroke markers" d=" M 71.700439453125 132.70000000000005 L 71.700439453125 150.29999999999995" stroke-miterlimit="10" stroke-dasharray=""/></g><g><path fill="none" stroke="#000000" paint-order="fill stroke markers" d=" M 62.340439453124986 139.29999999999995 L 81.06043945312501 139.29999999999995" stroke-miterlimit="10" stroke-dasharray=""/></g><g><path fill="none" stroke="#000000" paint-order="fill stroke markers" d=" M 71.700439453125 150.29999999999995 L 58.700439453125 168" stroke-miterlimit="10" stroke-dasharray=""/></g><g><path fill="none" stroke="#000000" paint-order="fill stroke markers" d=" M 71.700439453125 150.29999999999995 L 84.700439453125 168" stroke-miterlimit="10" stroke-dasharray=""/></g><g><g><path fill="none" stroke="none"/><text fill="#000000" stroke="none" font-family="Arial" font-size="13px" font-style="normal" font-weight="bold" text-decoration="undefined" x="159.200439453125" y="629.5" text-anchor="middle" dominant-baseline="central" transform="matrix(1 0 0 1 -87 -447)">Utente autenticato</text></g></g><g><path fill="#C0C0C0" stroke="none" paint-order="stroke fill markers" d=" M 313 171.5 C 313 156.86445279999998 390.0070144 145 485 145 C 579.9929856 145 657 156.86445279999998 657 171.5 C 657 186.13554720000002 579.9929856 198 485 198 C 390.0070144 198 313 186.13554720000002 313 171.5 Z" fill-opacity="0.2"/></g><g><path fill="#ffffff" stroke="none" paint-order="stroke fill markers" d=" M 306 164.5 C 306 149.86445279999998 383.0070144 138 478 138 C 572.9929856 138 650 149.86445279999998 650 164.5 C 650 179.13554720000002 572.9929856 191 478 191 C 383.0070144 191 306 179.13554720000002 306 164.5 Z"/></g><g><path fill="none" stroke="#000000" paint-order="fill stroke markers" d=" M 306 164.5 C 306 149.86445279999998 383.0070144 138 478 138 C 572.9929856 138 650 149.86445279999998 650 164.5 C 650 179.13554720000002 572.9929856 191 478 191 C 383.0070144 191 306 179.13554720000002 306 164.5 Z" stroke-miterlimit="10" stroke-dasharray=""/></g><g><g><path fill="none" stroke="none"/><text fill="#000000" stroke="none" font-family="Arial" font-size="13px" font-style="normal" font-weight="bold" text-decoration="undefined" x="565" y="606" text-anchor="middle" dominant-baseline="central" transform="matrix(1 0 0 1 -87 -447)">UC21 - Visualizzazione alert mancata</text><text fill="#000000" stroke="none" font-family="Arial" font-size="13px" font-style="normal" font-weight="bold" text-decoration="undefined" x="565" y="619" text-anchor="middle" dominant-baseline="central" transform="matrix(1 0 0 1 -87 -447)">ricezione dati da Gateway</text></g></g><g><path fill="#C0C0C0" stroke="none" paint-order="stroke fill markers" d=" M 329 43.5 C 329 28.86445279999998 400.634432 17 489 17 C 577.3655679999999 17 649 28.86445279999998 649 43.5 C 649 58.13554720000002 577.3655679999999 70 489 70 C 400.634432 70 329 58.13554720000002 329 43.5 Z" fill-opacity="0.2"/></g><g><path fill="#ffffff" stroke="none" paint-order="stroke fill markers" d=" M 322 36.5 C 322 21.86445279999998 393.634432 10 482 10 C 570.3655679999999 10 642 21.86445279999998 642 36.5 C 642 51.13554720000002 570.3655679999999 63 482 63 C 393.634432 63 322 51.13554720000002 322 36.5 Z"/></g><g><path fill="none" stroke="#000000" paint-order="fill stroke markers" d=" M 322 36.5 C 322 21.86445279999998 393.634432 10 482 10 C 570.3655679999999 10 642 21.86445279999998 642 36.5 C 642 51.13554720000002 570.3655679999999 63 482 63 C 393.634432 63 322 51.13554720000002 322 36.5 Z" stroke-miterlimit="10" stroke-dasharray=""/></g><g><g><path fill="none" stroke="none"/><text fill="#000000" stroke="none" font-family="Arial" font-size="13px" font-style="normal" font-weight="bold" text-decoration="undefined" x="569" y="478" text-anchor="middle" dominant-baseline="central" transform="matrix(1 0 0 1 -87 -447)">UC21.1 - Visualizzazione</text><text fill="#000000" stroke="none" font-family="Arial" font-size="13px" font-style="normal" font-weight="bold" text-decoration="undefined" x="569" y="491" text-anchor="middle" dominant-baseline="central" transform="matrix(1 0 0 1 -87 -447)">identificativo gateway alert</text></g></g><g><path fill="#C0C0C0" stroke="none" paint-order="stroke fill markers" d=" M 825 173 C 825 153.11774720000005 891.2618496 137 973 137 C 1054.7381504 137 1121 153.11774720000005 1121 173 C 1121 192.88225279999995 1054.7381504 209 973 209 C 891.2618496 209 825 192.88225279999995 825 173 Z" fill-opacity="0.2"/></g><g><path fill="#ffffff" stroke="none" paint-order="stroke fill markers" d=" M 818 166 C 818 146.11774720000005 884.2618496 130 966 130 C 1047.7381504 130 1114 146.11774720000005 1114 166 C 1114 185.88225279999995 1047.7381504 202 966 202 C 884.2618496 202 818 185.88225279999995 818 166 Z"/></g><g><path fill="none" stroke="#000000" paint-order="fill stroke markers" d=" M 818 166 C 818 146.11774720000005 884.2618496 130 966 130 C 1047.7381504 130 1114 146.11774720000005 1114 166 C 1114 185.88225279999995 1047.7381504 202 966 202 C 884.2618496 202 818 185.88225279999995 818 166 Z" stroke-miterlimit="10" stroke-dasharray=""/></g><g><g><path fill="none" stroke="none"/><text fill="#000000" stroke="none" font-family="Arial" font-size="13px" font-style="normal" font-weight="bold" text-decoration="undefined" x="1053" y="601" text-anchor="middle" dominant-baseline="central" transform="matrix(1 0 0 1 -87 -447)">UC21.2 - Visualizzazione</text><text fill="#000000" stroke="none" font-family="Arial" font-size="13px" font-style="normal" font-weight="bold" text-decoration="undefined" x="1053" y="614" text-anchor="middle" dominant-baseline="central" transform="matrix(1 0 0 1 -87 -447)">timestamp ultimo dato gateway</text><text fill="#000000" stroke="none" font-family="Arial" font-size="13px" font-style="normal" font-weight="bold" text-decoration="undefined" x="1053" y="627" text-anchor="middle" dominant-baseline="central" transform="matrix(1 0 0 1 -87 -447)">alert</text></g></g><g><path fill="#C0C0C0" stroke="none" paint-order="stroke fill markers" d=" M 329 291.5 C 329 276.8644528 397.0527104 265 481 265 C 564.9472896 265 633 276.8644528 633 291.5 C 633 306.1355472 564.9472896 318 481 318 C 397.0527104 318 329 306.1355472 329 291.5 Z" fill-opacity="0.2"/></g><g><path fill="#ffffff" stroke="none" paint-order="stroke fill markers" d=" M 322 284.5 C 322 269.8644528 390.0527104 258 474 258 C 557.9472896 258 626 269.8644528 626 284.5 C 626 299.1355472 557.9472896 311 474 311 C 390.0527104 311 322 299.1355472 322 284.5 Z"/></g><g><path fill="none" stroke="#000000" paint-order="fill stroke markers" d=" M 322 284.5 C 322 269.8644528 390.0527104 258 474 258 C 557.9472896 258 626 269.8644528 626 284.5 C 626 299.1355472 557.9472896 311 474 311 C 390.0527104 311 322 299.1355472 322 284.5 Z" stroke-miterlimit="10" stroke-dasharray=""/></g><g><g><path fill="none" stroke="none"/><text fill="#000000" stroke="none" font-family="Arial" font-size="13px" font-style="normal" font-weight="bold" text-decoration="undefined" x="561" y="726" text-anchor="middle" dominant-baseline="central" transform="matrix(1 0 0 1 -87 -447)">UC21.3 - Visualizzazione tempo</text><text fill="#000000" stroke="none" font-family="Arial" font-size="13px" font-style="normal" font-weight="bold" text-decoration="undefined" x="561" y="739" text-anchor="middle" dominant-baseline="central" transform="matrix(1 0 0 1 -87 -447)">inattività gateway alert</text></g></g><g><path fill="none" stroke="#000000" paint-order="fill stroke markers" d=" M 477 192 L 475 257" stroke-miterlimit="10" stroke-dasharray="3"/></g><g><path fill="none" stroke="#000000" paint-order="fill stroke markers" d=" M 471.1050232716867 246.71267010901772 L 475 257 L 479.52007626906254 246.97159481662925" stroke-miterlimit="10" stroke-dasharray=""/></g><g><rect fill="#ffffff" stroke="none" x="565" y="665" width="55.65625" height="13" transform="matrix(1 0 0 1 -87 -447)"/></g><g><g><path fill="none" stroke="none"/><text fill="#000000" stroke="none" font-family="Arial" font-size="13px" font-style="normal" font-weight="normal" text-decoration="undefined" x="592.828125" y="671.5" text-anchor="middle" dominant-baseline="central" transform="matrix(1 0 0 1 -87 -447)">«include»</text></g></g><g><path fill="none" stroke="#000000" paint-order="fill stroke markers" d=" M 479 137 L 481 64" stroke-miterlimit="10" stroke-dasharray="3"/></g><g><path fill="none" stroke="#000000" paint-order="fill stroke markers" d=" M 484.9296137810629 74.27414889573242 L 481 64 L 476.51373619694095 74.04357690712641" stroke-miterlimit="10" stroke-dasharray=""/></g><g><rect fill="#ffffff" stroke="none" x="510" y="540" width="55.65625" height="13" transform="matrix(1 0 0 1 -87 -447)"/></g><g><g><path fill="none" stroke="none"/><text fill="#000000" stroke="none" font-family="Arial" font-size="13px" font-style="normal" font-weight="normal" text-decoration="undefined" x="537.828125" y="546.5" text-anchor="middle" dominant-baseline="central" transform="matrix(1 0 0 1 -87 -447)">«include»</text></g></g><g><path fill="none" stroke="#000000" paint-order="fill stroke markers" d=" M 651 165 L 817 165" stroke-miterlimit="10" stroke-dasharray="3"/></g><g><path fill="none" stroke="#000000" paint-order="fill stroke markers" d=" M 806.8373251423759 169.209517756016 L 817 165 L 806.8373251423758 160.790482243984" stroke-miterlimit="10" stroke-dasharray=""/></g><g><rect fill="#ffffff" stroke="none" x="783" y="598" width="55.65625" height="13" transform="matrix(1 0 0 1 -87 -447)"/></g><g><g><path fill="none" stroke="none"/><text fill="#000000" stroke="none" font-family="Arial" font-size="13px" font-style="normal" font-weight="normal" text-decoration="undefined" x="810.828125" y="604.5" text-anchor="middle" dominant-baseline="central" transform="matrix(1 0 0 1 -87 -447)">«include»</text></g></g><g><path fill="none" stroke="#000000" paint-order="fill stroke markers" d=" M 305 160 L 134 156" stroke-miterlimit="10" stroke-dasharray=""/></g></g></svg>