<svg version="1.1" xmlns="http://www.w3.org/2000/svg" xmlns:xlink="http://www.w3.org/1999/xlink" width="988" height="436"><defs/><g><g><rect fill="#C0C0C0" stroke="none" x="255" y="415" width="816" height="416" transform="matrix(1 0 0 1 -87 -398)" fill-opacity="0.2"/></g><g><rect fill="#ffffff" stroke="none" x="248" y="408" width="816" height="416" transform="matrix(1 0 0 1 -87 -398)"/></g><g><path fill="none" stroke="#000000" paint-order="fill stroke markers" d=" M 161 10 L 977 10 L 977 426 L 161 426 L 161 10 Z Z" stroke-miterlimit="10" stroke-dasharray=""/></g><g><g><path fill="none" stroke="none"/><text fill="#000000" stroke="none" font-family="Arial" font-size="13px" font-style="normal" font-weight="bold" text-decoration="undefined" x="656.5" y="421.5" text-anchor="middle" dominant-baseline="central" transform="matrix(1 0 0 1 -87 -398)">Sistema cloud</text></g></g><g><path fill="#ffffff" stroke="none" paint-order="stroke fill markers" d=" M 62.860439453125 172.85000000000002 C 62.860439453125 167.96227952000004 66.81824182112499 164 71.700439453125 164 C 76.58263708512501 164 80.540439453125 167.96227952000004 80.540439453125 172.85000000000002 C 80.540439453125 177.73772048 76.58263708512501 181.70000000000005 71.700439453125 181.70000000000005 C 66.81824182112499 181.70000000000005 62.860439453125 177.73772048 62.860439453125 172.85000000000002 Z"/></g><g><path fill="none" stroke="#000000" paint-order="fill stroke markers" d=" M 62.860439453125 172.85000000000002 C 62.860439453125 167.96227952000004 66.81824182112499 164 71.700439453125 164 C 76.58263708512501 164 80.540439453125 167.96227952000004 80.540439453125 172.85000000000002 C 80.540439453125 177.73772048 76.58263708512501 181.70000000000005 71.700439453125 181.70000000000005 C 66.81824182112499 181.70000000000005 62.860439453125 177.73772048 62.860439453125 172.85000000000002 Z" stroke-miterlimit="10" stroke-dasharray=""/></g><g><path fill="none" stroke="#000000" paint-order="fill stroke markers" d=" M 71.700439453125 181.70000000000005 L 71.700439453125 199.29999999999995" stroke-miterlimit="10" stroke-dasharray=""/></g><g><path fill="none" stroke="#000000" paint-order="fill stroke markers" d=" M 62.340439453124986 188.29999999999995 L 81.06043945312501 188.29999999999995" stroke-miterlimit="10" stroke-dasharray=""/></g><g><path fill="none" stroke="#000000" paint-order="fill stroke markers" d=" M 71.700439453125 199.29999999999995 L 58.700439453125 217" stroke-miterlimit="10" stroke-dasharray=""/></g><g><path fill="none" stroke="#000000" paint-order="fill stroke markers" d=" M 71.700439453125 199.29999999999995 L 84.700439453125 217" stroke-miterlimit="10" stroke-dasharray=""/></g><g><g><path fill="none" stroke="none"/><text fill="#000000" stroke="none" font-family="Arial" font-size="13px" font-style="normal" font-weight="bold" text-decoration="undefined" x="159.200439453125" y="629.5" text-anchor="middle" dominant-baseline="central" transform="matrix(1 0 0 1 -87 -398)">Utente autenticato</text></g></g><g><path fill="#C0C0C0" stroke="none" paint-order="stroke fill markers" d=" M 313 220.5 C 313 205.86445279999998 390.0070144 194 485 194 C 579.9929856 194 657 205.86445279999998 657 220.5 C 657 235.13554720000002 579.9929856 247 485 247 C 390.0070144 247 313 235.13554720000002 313 220.5 Z" fill-opacity="0.2"/></g><g><path fill="#ffffff" stroke="none" paint-order="stroke fill markers" d=" M 306 213.5 C 306 198.86445279999998 383.0070144 187 478 187 C 572.9929856 187 650 198.86445279999998 650 213.5 C 650 228.13554720000002 572.9929856 240 478 240 C 383.0070144 240 306 228.13554720000002 306 213.5 Z"/></g><g><path fill="none" stroke="#000000" paint-order="fill stroke markers" d=" M 306 213.5 C 306 198.86445279999998 383.0070144 187 478 187 C 572.9929856 187 650 198.86445279999998 650 213.5 C 650 228.13554720000002 572.9929856 240 478 240 C 383.0070144 240 306 228.13554720000002 306 213.5 Z" stroke-miterlimit="10" stroke-dasharray=""/></g><g><g><path fill="none" stroke="none"/><text fill="#000000" stroke="none" font-family="Arial" font-size="13px" font-style="normal" font-weight="bold" text-decoration="undefined" x="565" y="606" text-anchor="middle" dominant-baseline="central" transform="matrix(1 0 0 1 -87 -398)">UC21 - Visualizzazione alert mancata</text><text fill="#000000" stroke="none" font-family="Arial" font-size="13px" font-style="normal" font-weight="bold" text-decoration="undefined" x="565" y="619" text-anchor="middle" dominant-baseline="central" transform="matrix(1 0 0 1 -87 -398)">ricezione dati da Gateway</text></g></g><g><path fill="none" stroke="#000000" paint-order="fill stroke markers" d=" M 305 209 L 134 205" stroke-miterlimit="10" stroke-dasharray=""/></g><g><path fill="#ffffff" stroke="none" paint-order="stroke fill markers" d=" M 62.860439453125 172.85000000000002 C 62.860439453125 167.96227952000004 66.81824182112499 164 71.700439453125 164 C 76.58263708512501 164 80.540439453125 167.96227952000004 80.540439453125 172.85000000000002 C 80.540439453125 177.73772048 76.58263708512501 181.70000000000005 71.700439453125 181.70000000000005 C 66.81824182112499 181.70000000000005 62.860439453125 177.73772048 62.860439453125 172.85000000000002 Z"/></g><g><path fill="none" stroke="#000000" paint-order="fill stroke markers" d=" M 62.860439453125 172.85000000000002 C 62.860439453125 167.96227952000004 66.81824182112499 164 71.700439453125 164 C 76.58263708512501 164 80.540439453125 167.96227952000004 80.540439453125 172.85000000000002 C 80.540439453125 177.73772048 76.58263708512501 181.70000000000005 71.700439453125 181.70000000000005 C 66.81824182112499 181.70000000000005 62.860439453125 177.73772048 62.860439453125 172.85000000000002 Z" stroke-miterlimit="10" stroke-dasharray=""/></g><g><path fill="none" stroke="#000000" paint-order="fill stroke markers" d=" M 71.700439453125 181.70000000000005 L 71.700439453125 199.29999999999995" stroke-miterlimit="10" stroke-dasharray=""/></g><g><path fill="none" stroke="#000000" paint-order="fill stroke markers" d=" M 62.340439453124986 188.29999999999995 L 81.06043945312501 188.29999999999995" stroke-miterlimit="10" stroke-dasharray=""/></g><g><path fill="none" stroke="#000000" paint-order="fill stroke markers" d=" M 71.700439453125 199.29999999999995 L 58.700439453125 217" stroke-miterlimit="10" stroke-dasharray=""/></g><g><path fill="none" stroke="#000000" paint-order="fill stroke markers" d=" M 71.700439453125 199.29999999999995 L 84.700439453125 217" stroke-miterlimit="10" stroke-dasharray=""/></g><g><g><path fill="none" stroke="none"/><text fill="#000000" stroke="none" font-family="Arial" font-size="13px" font-style="normal" font-weight="bold" text-decoration="undefined" x="159.200439453125" y="629.5" text-anchor="middle" dominant-baseline="central" transform="matrix(1 0 0 1 -87 -398)">Utente autenticato</text></g></g><g><path fill="#C0C0C0" stroke="none" paint-order="stroke fill markers" d=" M 313 220.5 C 313 205.86445279999998 390.0070144 194 485 194 C 579.9929856 194 657 205.86445279999998 657 220.5 C 657 235.13554720000002 579.9929856 247 485 247 C 390.0070144 247 313 235.13554720000002 313 220.5 Z" fill-opacity="0.2"/></g><g><path fill="#ffffff" stroke="none" paint-order="stroke fill markers" d=" M 306 213.5 C 306 198.86445279999998 383.0070144 187 478 187 C 572.9929856 187 650 198.86445279999998 650 213.5 C 650 228.13554720000002 572.9929856 240 478 240 C 383.0070144 240 306 228.13554720000002 306 213.5 Z"/></g><g><path fill="none" stroke="#000000" paint-order="fill stroke markers" d=" M 306 213.5 C 306 198.86445279999998 383.0070144 187 478 187 C 572.9929856 187 650 198.86445279999998 650 213.5 C 650 228.13554720000002 572.9929856 240 478 240 C 383.0070144 240 306 228.13554720000002 306 213.5 Z" stroke-miterlimit="10" stroke-dasharray=""/></g><g><g><path fill="none" stroke="none"/><text fill="#000000" stroke="none" font-family="Arial" font-size="13px" font-style="normal" font-weight="bold" text-decoration="undefined" x="565" y="606" text-anchor="middle" dominant-baseline="central" transform="matrix(1 0 0 1 -87 -398)">UC21 - Visualizzazione alert mancata</text><text fill="#000000" stroke="none" font-family="Arial" font-size="13px" font-style="normal" font-weight="bold" text-decoration="undefined" x="565" y="619" text-anchor="middle" dominant-baseline="central" transform="matrix(1 0 0 1 -87 -398)">ricezione dati da Gateway</text></g></g><g><path fill="#C0C0C0" stroke="none" paint-order="stroke fill markers" d=" M 464 342 C 464 317.14718400000004 521.3075456 297 592 297 C 662.6924544 297 720 317.14718400000004 720 342 C 720 366.85281599999996 662.6924544 387 592 387 C 521.3075456 387 464 366.85281599999996 464 342 Z" fill-opacity="0.2"/></g><g><path fill="#ffffff" stroke="none" paint-order="stroke fill markers" d=" M 457 335 C 457 310.14718400000004 514.3075456 290 585 290 C 655.6924544 290 713 310.14718400000004 713 335 C 713 359.85281599999996 655.6924544 380 585 380 C 514.3075456 380 457 359.85281599999996 457 335 Z"/></g><g><path fill="none" stroke="#000000" paint-order="fill stroke markers" d=" M 457 335 C 457 310.14718400000004 514.3075456 290 585 290 C 655.6924544 290 713 310.14718400000004 713 335 C 713 359.85281599999996 655.6924544 380 585 380 C 514.3075456 380 457 359.85281599999996 457 335 Z" stroke-miterlimit="10" stroke-dasharray=""/></g><g><g><path fill="none" stroke="none"/><text fill="#000000" stroke="none" font-family="Arial" font-size="13px" font-style="normal" font-weight="bold" text-decoration="undefined" x="672" y="727.5" text-anchor="middle" dominant-baseline="central" transform="matrix(1 0 0 1 -87 -398)">UC21.1 - Visualizzazione</text><text fill="#000000" stroke="none" font-family="Arial" font-size="13px" font-style="normal" font-weight="bold" text-decoration="undefined" x="672" y="740.5" text-anchor="middle" dominant-baseline="central" transform="matrix(1 0 0 1 -87 -398)">identificativo gateway alert</text></g></g><g><path fill="#C0C0C0" stroke="none" paint-order="stroke fill markers" d=" M 744 286 C 744 261.14718400000004 793.9202448 241 855.5 241 C 917.0797552 241 967 261.14718400000004 967 286 C 967 310.85281599999996 917.0797552 331 855.5 331 C 793.9202448 331 744 310.85281599999996 744 286 Z" fill-opacity="0.2"/></g><g><path fill="#ffffff" stroke="none" paint-order="stroke fill markers" d=" M 737 279 C 737 254.14718400000004 786.9202448 234 848.5 234 C 910.0797552 234 960 254.14718400000004 960 279 C 960 303.85281599999996 910.0797552 324 848.5 324 C 786.9202448 324 737 303.85281599999996 737 279 Z"/></g><g><path fill="none" stroke="#000000" paint-order="fill stroke markers" d=" M 737 279 C 737 254.14718400000004 786.9202448 234 848.5 234 C 910.0797552 234 960 254.14718400000004 960 279 C 960 303.85281599999996 910.0797552 324 848.5 324 C 786.9202448 324 737 303.85281599999996 737 279 Z" stroke-miterlimit="10" stroke-dasharray=""/></g><g><g><path fill="none" stroke="none"/><text fill="#000000" stroke="none" font-family="Arial" font-size="13px" font-style="normal" font-weight="bold" text-decoration="undefined" x="935.5" y="658.5" text-anchor="middle" dominant-baseline="central" transform="matrix(1 0 0 1 -87 -398)">UC21.2 -</text><text fill="#000000" stroke="none" font-family="Arial" font-size="13px" font-style="normal" font-weight="bold" text-decoration="undefined" x="935.5" y="671.5" text-anchor="middle" dominant-baseline="central" transform="matrix(1 0 0 1 -87 -398)">Visualizzazione</text><text fill="#000000" stroke="none" font-family="Arial" font-size="13px" font-style="normal" font-weight="bold" text-decoration="undefined" x="935.5" y="684.5" text-anchor="middle" dominant-baseline="central" transform="matrix(1 0 0 1 -87 -398)">timestamp ultimo dato</text><text fill="#000000" stroke="none" font-family="Arial" font-size="13px" font-style="normal" font-weight="bold" text-decoration="undefined" x="935.5" y="697.5" text-anchor="middle" dominant-baseline="central" transform="matrix(1 0 0 1 -87 -398)">gateway alert</text></g></g><g><path fill="#C0C0C0" stroke="none" paint-order="stroke fill markers" d=" M 184 342 C 184 317.14718400000004 225.18979839999997 297 276 297 C 326.8102016 297 368 317.14718400000004 368 342 C 368 366.85281599999996 326.8102016 387 276 387 C 225.18979839999997 387 184 366.85281599999996 184 342 Z" fill-opacity="0.2"/></g><g><path fill="#ffffff" stroke="none" paint-order="stroke fill markers" d=" M 177 335 C 177 310.14718400000004 218.18979839999997 290 269 290 C 319.8102016 290 361 310.14718400000004 361 335 C 361 359.85281599999996 319.8102016 380 269 380 C 218.18979839999997 380 177 359.85281599999996 177 335 Z"/></g><g><path fill="none" stroke="#000000" paint-order="fill stroke markers" d=" M 177 335 C 177 310.14718400000004 218.18979839999997 290 269 290 C 319.8102016 290 361 310.14718400000004 361 335 C 361 359.85281599999996 319.8102016 380 269 380 C 218.18979839999997 380 177 359.85281599999996 177 335 Z" stroke-miterlimit="10" stroke-dasharray=""/></g><g><g><path fill="none" stroke="none"/><text fill="#000000" stroke="none" font-family="Arial" font-size="13px" font-style="normal" font-weight="bold" text-decoration="undefined" x="356" y="714.5" text-anchor="middle" dominant-baseline="central" transform="matrix(1 0 0 1 -87 -398)">UC21.3 -</text><text fill="#000000" stroke="none" font-family="Arial" font-size="13px" font-style="normal" font-weight="bold" text-decoration="undefined" x="356" y="727.5" text-anchor="middle" dominant-baseline="central" transform="matrix(1 0 0 1 -87 -398)">Visualizzazione</text><text fill="#000000" stroke="none" font-family="Arial" font-size="13px" font-style="normal" font-weight="bold" text-decoration="undefined" x="356" y="740.5" text-anchor="middle" dominant-baseline="central" transform="matrix(1 0 0 1 -87 -398)">tempo inattività</text><text fill="#000000" stroke="none" font-family="Arial" font-size="13px" font-style="normal" font-weight="bold" text-decoration="undefined" x="356" y="753.5" text-anchor="middle" dominant-baseline="central" transform="matrix(1 0 0 1 -87 -398)">gateway alert</text></g></g><g><path fill="none" stroke="#000000" paint-order="fill stroke markers" d=" M 430 241 L 348 289" stroke-miterlimit="10" stroke-dasharray="3"/></g><g><path fill="none" stroke="#000000" paint-order="fill stroke markers" d=" M 354.64397463042354 280.23315329720606 L 348 289 L 358.89709626837237 287.4989027620353" stroke-miterlimit="10" stroke-dasharray=""/></g><g><rect fill="#ffffff" stroke="none" x="479" y="664" width="55.65625" height="13" transform="matrix(1 0 0 1 -87 -398)"/></g><g><g><path fill="none" stroke="none"/><text fill="#000000" stroke="none" font-family="Arial" font-size="13px" font-style="normal" font-weight="normal" text-decoration="undefined" x="506.828125" y="670.5" text-anchor="middle" dominant-baseline="central" transform="matrix(1 0 0 1 -87 -398)">«include»</text></g></g><g><path fill="none" stroke="#000000" paint-order="fill stroke markers" d=" M 503 241 L 545 289" stroke-miterlimit="10" stroke-dasharray="3"/></g><g><path fill="none" stroke="#000000" paint-order="fill stroke markers" d=" M 535.1398468188526 284.12379458550936 L 545 289 L 541.4758167371174 278.5798209070276" stroke-miterlimit="10" stroke-dasharray=""/></g><g><rect fill="#ffffff" stroke="none" x="606" y="637" width="55.65625" height="13" transform="matrix(1 0 0 1 -87 -398)"/></g><g><g><path fill="none" stroke="none"/><text fill="#000000" stroke="none" font-family="Arial" font-size="13px" font-style="normal" font-weight="normal" text-decoration="undefined" x="633.828125" y="643.5" text-anchor="middle" dominant-baseline="central" transform="matrix(1 0 0 1 -87 -398)">«include»</text></g></g><g><path fill="none" stroke="#000000" paint-order="fill stroke markers" d=" M 635 241 L 736 259" stroke-miterlimit="10" stroke-dasharray="3"/></g><g><path fill="none" stroke="#000000" paint-order="fill stroke markers" d=" M 725.25639734952 261.3611442329085 L 736 259 L 726.7335446130227 253.07270680992087" stroke-miterlimit="10" stroke-dasharray=""/></g><g><rect fill="#ffffff" stroke="none" x="735" y="633" width="55.65625" height="13" transform="matrix(1 0 0 1 -87 -398)"/></g><g><g><path fill="none" stroke="none"/><text fill="#000000" stroke="none" font-family="Arial" font-size="13px" font-style="normal" font-weight="normal" text-decoration="undefined" x="762.828125" y="639.5" text-anchor="middle" dominant-baseline="central" transform="matrix(1 0 0 1 -87 -398)">«include»</text></g></g><g><path fill="none" stroke="#000000" paint-order="fill stroke markers" d=" M 305 209 L 134 205" stroke-miterlimit="10" stroke-dasharray=""/></g><g><path fill="#C0C0C0" stroke="none" paint-order="stroke fill markers" d=" M 356 98.5 C 356 88.835016 413.083688 81 483.5 81 C 553.9163120000001 81 611 88.835016 611 98.5 C 611 108.164984 553.9163120000001 116 483.5 116 C 413.083688 116 356 108.164984 356 98.5 Z" fill-opacity="0.2"/></g><g><path fill="#ffffff" stroke="none" paint-order="stroke fill markers" d=" M 349 91.5 C 349 81.835016 406.083688 74 476.5 74 C 546.9163120000001 74 604 81.835016 604 91.5 C 604 101.164984 546.9163120000001 109 476.5 109 C 406.083688 109 349 101.164984 349 91.5 Z"/></g><g><path fill="none" stroke="#000000" paint-order="fill stroke markers" d=" M 349 91.5 C 349 81.835016 406.083688 74 476.5 74 C 546.9163120000001 74 604 81.835016 604 91.5 C 604 101.164984 546.9163120000001 109 476.5 109 C 406.083688 109 349 101.164984 349 91.5 Z" stroke-miterlimit="10" stroke-dasharray=""/></g><g><g><path fill="none" stroke="none"/><text fill="#000000" stroke="none" font-family="Arial" font-size="13px" font-style="normal" font-weight="bold" text-decoration="undefined" x="563.5" y="490.5" text-anchor="middle" dominant-baseline="central" transform="matrix(1 0 0 1 -87 -398)">UC20 - Visualizzazione alert</text></g></g><g><path fill="none" stroke="#000000" paint-order="fill stroke markers" d=" M 478 186 L 476 110" stroke-miterlimit="10" stroke-dasharray=""/></g><g><path fill="#FFFFFF" stroke="none" paint-order="stroke fill markers" d=" M 484.9508143600648 130.09683861436065 L 476 110 L 468.1185706665176 130.53979239576984"/></g><g><path fill="none" stroke="#000000" paint-order="fill stroke markers" d=" M 484.9508143600648 130.09683861436065 L 476 110 L 468.1185706665176 130.53979239576984 L 484.9508143600648 130.09683861436065" stroke-miterlimit="10" stroke-dasharray=""/></g></g></svg>