<svg version="1.1" xmlns="http://www.w3.org/2000/svg" xmlns:xlink="http://www.w3.org/1999/xlink" width="1021" height="420"><defs/><g><g><rect fill="#C0C0C0" stroke="none" x="524" y="369" width="824" height="400" transform="matrix(1 0 0 1 -331 -352)" fill-opacity="0.2"/></g><g><rect fill="#ffffff" stroke="none" x="517" y="362" width="824" height="400" transform="matrix(1 0 0 1 -331 -352)"/></g><g><path fill="none" stroke="#000000" paint-order="fill stroke markers" d=" M 186 10 L 1010 10 L 1010 410 L 186 410 L 186 10 Z Z" stroke-miterlimit="10" stroke-dasharray=""/></g><g><g><path fill="none" stroke="none"/><text fill="#000000" stroke="none" font-family="Arial" font-size="13px" font-style="normal" font-weight="bold" text-decoration="undefined" x="929.5" y="375.5" text-anchor="middle" dominant-baseline="central" transform="matrix(1 0 0 1 -331 -352)">Sistema Cloud</text></g></g><g><path fill="#ffffff" stroke="none" paint-order="stroke fill markers" d=" M 62.860439453125025 187.85000000000002 C 62.860439453125025 182.96227952000004 66.81824182112501 179 71.700439453125 179 C 76.58263708512499 179 80.54043945312497 182.96227952000004 80.54043945312497 187.85000000000002 C 80.54043945312497 192.73772048 76.58263708512499 196.70000000000005 71.700439453125 196.70000000000005 C 66.81824182112501 196.70000000000005 62.860439453125025 192.73772048 62.860439453125025 187.85000000000002 Z"/></g><g><path fill="none" stroke="#000000" paint-order="fill stroke markers" d=" M 62.860439453125025 187.85000000000002 C 62.860439453125025 182.96227952000004 66.81824182112501 179 71.700439453125 179 C 76.58263708512499 179 80.54043945312497 182.96227952000004 80.54043945312497 187.85000000000002 C 80.54043945312497 192.73772048 76.58263708512499 196.70000000000005 71.700439453125 196.70000000000005 C 66.81824182112501 196.70000000000005 62.860439453125025 192.73772048 62.860439453125025 187.85000000000002 Z" stroke-miterlimit="10" stroke-dasharray=""/></g><g><path fill="none" stroke="#000000" paint-order="fill stroke markers" d=" M 71.700439453125 196.70000000000005 L 71.700439453125 214.29999999999995" stroke-miterlimit="10" stroke-dasharray=""/></g><g><path fill="none" stroke="#000000" paint-order="fill stroke markers" d=" M 62.340439453124986 203.29999999999995 L 81.06043945312501 203.29999999999995" stroke-miterlimit="10" stroke-dasharray=""/></g><g><path fill="none" stroke="#000000" paint-order="fill stroke markers" d=" M 71.700439453125 214.29999999999995 L 58.700439453125 232" stroke-miterlimit="10" stroke-dasharray=""/></g><g><path fill="none" stroke="#000000" paint-order="fill stroke markers" d=" M 71.700439453125 214.29999999999995 L 84.700439453125 232" stroke-miterlimit="10" stroke-dasharray=""/></g><g><g><path fill="none" stroke="none"/><text fill="#000000" stroke="none" font-family="Arial" font-size="13px" font-style="normal" font-weight="bold" text-decoration="undefined" x="403.200439453125" y="598.5" text-anchor="middle" dominant-baseline="central" transform="matrix(1 0 0 1 -331 -352)">Utente autenticato</text></g></g><g><path fill="#C0C0C0" stroke="none" paint-order="stroke fill markers" d=" M 313 245 C 313 225.11774720000005 375.68012799999997 209 453 209 C 530.319872 209 593 225.11774720000005 593 245 C 593 264.88225279999995 530.319872 281 453 281 C 375.68012799999997 281 313 264.88225279999995 313 245 Z" fill-opacity="0.2"/></g><g><path fill="#ffffff" stroke="none" paint-order="stroke fill markers" d=" M 306 238 C 306 218.11774720000005 368.68012799999997 202 446 202 C 523.319872 202 586 218.11774720000005 586 238 C 586 257.88225279999995 523.319872 274 446 274 C 368.68012799999997 274 306 257.88225279999995 306 238 Z"/></g><g><path fill="none" stroke="#000000" paint-order="fill stroke markers" d=" M 306 238 C 306 218.11774720000005 368.68012799999997 202 446 202 C 523.319872 202 586 218.11774720000005 586 238 C 586 257.88225279999995 523.319872 274 446 274 C 368.68012799999997 274 306 257.88225279999995 306 238 Z" stroke-miterlimit="10" stroke-dasharray=""/></g><g><g><path fill="none" stroke="none"/><text fill="#000000" stroke="none" font-family="Arial" font-size="13px" font-style="normal" font-weight="bold" text-decoration="undefined" x="777" y="578" text-anchor="middle" dominant-baseline="central" transform="matrix(1 0 0 1 -331 -352)">UC21 - Visualizzazione alert</text><text fill="#000000" stroke="none" font-family="Arial" font-size="13px" font-style="normal" font-weight="bold" text-decoration="undefined" x="777" y="591" text-anchor="middle" dominant-baseline="central" transform="matrix(1 0 0 1 -331 -352)">mancata ricezione dati da</text><text fill="#000000" stroke="none" font-family="Arial" font-size="13px" font-style="normal" font-weight="bold" text-decoration="undefined" x="777" y="604" text-anchor="middle" dominant-baseline="central" transform="matrix(1 0 0 1 -331 -352)">Gateway</text></g></g><g><path fill="#C0C0C0" stroke="none" paint-order="stroke fill markers" d=" M 329 107.5 C 329 92.86445279999998 386.3075456 81 457 81 C 527.6924544 81 585 92.86445279999998 585 107.5 C 585 122.13554720000002 527.6924544 134 457 134 C 386.3075456 134 329 122.13554720000002 329 107.5 Z" fill-opacity="0.2"/></g><g><path fill="#ffffff" stroke="none" paint-order="stroke fill markers" d=" M 322 100.5 C 322 85.86445279999998 379.3075456 74 450 74 C 520.6924544 74 578 85.86445279999998 578 100.5 C 578 115.13554720000002 520.6924544 127 450 127 C 379.3075456 127 322 115.13554720000002 322 100.5 Z"/></g><g><path fill="none" stroke="#000000" paint-order="fill stroke markers" d=" M 322 100.5 C 322 85.86445279999998 379.3075456 74 450 74 C 520.6924544 74 578 85.86445279999998 578 100.5 C 578 115.13554720000002 520.6924544 127 450 127 C 379.3075456 127 322 115.13554720000002 322 100.5 Z" stroke-miterlimit="10" stroke-dasharray=""/></g><g><g><path fill="none" stroke="none"/><text fill="#000000" stroke="none" font-family="Arial" font-size="13px" font-style="normal" font-weight="bold" text-decoration="undefined" x="781" y="447" text-anchor="middle" dominant-baseline="central" transform="matrix(1 0 0 1 -331 -352)">UC21.1 - Visualizzazione</text><text fill="#000000" stroke="none" font-family="Arial" font-size="13px" font-style="normal" font-weight="bold" text-decoration="undefined" x="781" y="460" text-anchor="middle" dominant-baseline="central" transform="matrix(1 0 0 1 -331 -352)">identificativo gateway alert</text></g></g><g><path fill="#C0C0C0" stroke="none" paint-order="stroke fill markers" d=" M 329 365 C 329 345.11774720000005 384.5166848 329 453 329 C 521.4833152 329 577 345.11774720000005 577 365 C 577 384.88225279999995 521.4833152 401 453 401 C 384.5166848 401 329 384.88225279999995 329 365 Z" fill-opacity="0.2"/></g><g><path fill="#ffffff" stroke="none" paint-order="stroke fill markers" d=" M 322 358 C 322 338.11774720000005 377.5166848 322 446 322 C 514.4833152 322 570 338.11774720000005 570 358 C 570 377.88225279999995 514.4833152 394 446 394 C 377.5166848 394 322 377.88225279999995 322 358 Z"/></g><g><path fill="none" stroke="#000000" paint-order="fill stroke markers" d=" M 322 358 C 322 338.11774720000005 377.5166848 322 446 322 C 514.4833152 322 570 338.11774720000005 570 358 C 570 377.88225279999995 514.4833152 394 446 394 C 377.5166848 394 322 377.88225279999995 322 358 Z" stroke-miterlimit="10" stroke-dasharray=""/></g><g><g><path fill="none" stroke="none"/><text fill="#000000" stroke="none" font-family="Arial" font-size="13px" font-style="normal" font-weight="bold" text-decoration="undefined" x="777" y="698" text-anchor="middle" dominant-baseline="central" transform="matrix(1 0 0 1 -331 -352)">UC21.3 - Visualizzazione</text><text fill="#000000" stroke="none" font-family="Arial" font-size="13px" font-style="normal" font-weight="bold" text-decoration="undefined" x="777" y="711" text-anchor="middle" dominant-baseline="central" transform="matrix(1 0 0 1 -331 -352)">tempo inattività gateway</text><text fill="#000000" stroke="none" font-family="Arial" font-size="13px" font-style="normal" font-weight="bold" text-decoration="undefined" x="777" y="724" text-anchor="middle" dominant-baseline="central" transform="matrix(1 0 0 1 -331 -352)">alert</text></g></g><g><path fill="none" stroke="#000000" paint-order="fill stroke markers" d=" M 446 275 L 446 321" stroke-miterlimit="10" stroke-dasharray="3"/></g><g><path fill="none" stroke="#000000" paint-order="fill stroke markers" d=" M 441.790482243984 310.8373251423759 L 446 321 L 450.209517756016 310.8373251423759" stroke-miterlimit="10" stroke-dasharray=""/></g><g><rect fill="#ffffff" stroke="none" x="779" y="643" width="55.65625" height="13" transform="matrix(1 0 0 1 -331 -352)"/></g><g><g><path fill="none" stroke="none"/><text fill="#000000" stroke="none" font-family="Arial" font-size="13px" font-style="normal" font-weight="normal" text-decoration="undefined" x="806.828125" y="649.5" text-anchor="middle" dominant-baseline="central" transform="matrix(1 0 0 1 -331 -352)">«include»</text></g></g><g><path fill="none" stroke="#000000" paint-order="fill stroke markers" d=" M 447 201 L 449 128" stroke-miterlimit="10" stroke-dasharray="3"/></g><g><path fill="none" stroke="#000000" paint-order="fill stroke markers" d=" M 452.9296137810629 138.27414889573248 L 449 128 L 444.51373619694095 138.0435769071264" stroke-miterlimit="10" stroke-dasharray=""/></g><g><rect fill="#ffffff" stroke="none" x="722" y="509" width="55.65625" height="13" transform="matrix(1 0 0 1 -331 -352)"/></g><g><g><path fill="none" stroke="none"/><text fill="#000000" stroke="none" font-family="Arial" font-size="13px" font-style="normal" font-weight="normal" text-decoration="undefined" x="749.828125" y="515.5" text-anchor="middle" dominant-baseline="central" transform="matrix(1 0 0 1 -331 -352)">«include»</text></g></g><g><path fill="none" stroke="#000000" paint-order="fill stroke markers" d=" M 587 238 L 729 238" stroke-miterlimit="10" stroke-dasharray="3"/></g><g><path fill="none" stroke="#000000" paint-order="fill stroke markers" d=" M 718.8373251423759 242.209517756016 L 729 238 L 718.8373251423759 233.790482243984" stroke-miterlimit="10" stroke-dasharray=""/></g><g><rect fill="#ffffff" stroke="none" x="951" y="576" width="55.65625" height="13" transform="matrix(1 0 0 1 -331 -352)"/></g><g><g><path fill="none" stroke="none"/><text fill="#000000" stroke="none" font-family="Arial" font-size="13px" font-style="normal" font-weight="normal" text-decoration="undefined" x="978.828125" y="582.5" text-anchor="middle" dominant-baseline="central" transform="matrix(1 0 0 1 -331 -352)">«include»</text></g></g><g><path fill="none" stroke="#000000" paint-order="fill stroke markers" d=" M 305 230 L 134 221" stroke-miterlimit="10" stroke-dasharray=""/></g><g><path fill="#C0C0C0" stroke="none" paint-order="stroke fill markers" d=" M 737 245 C 737 225.11774720000005 794.3075455999999 209 865 209 C 935.6924544000001 209 993 225.11774720000005 993 245 C 993 264.88225279999995 935.6924544000001 281 865 281 C 794.3075455999999 281 737 264.88225279999995 737 245 Z" fill-opacity="0.2"/></g><g><path fill="#ffffff" stroke="none" paint-order="stroke fill markers" d=" M 730 238 C 730 218.11774720000005 787.3075455999999 202 858 202 C 928.6924544000001 202 986 218.11774720000005 986 238 C 986 257.88225279999995 928.6924544000001 274 858 274 C 787.3075455999999 274 730 257.88225279999995 730 238 Z"/></g><g><path fill="none" stroke="#000000" paint-order="fill stroke markers" d=" M 730 238 C 730 218.11774720000005 787.3075455999999 202 858 202 C 928.6924544000001 202 986 218.11774720000005 986 238 C 986 257.88225279999995 928.6924544000001 274 858 274 C 787.3075455999999 274 730 257.88225279999995 730 238 Z" stroke-miterlimit="10" stroke-dasharray=""/></g><g><g><path fill="none" stroke="none"/><text fill="#000000" stroke="none" font-family="Arial" font-size="13px" font-style="normal" font-weight="bold" text-decoration="undefined" x="1189" y="578" text-anchor="middle" dominant-baseline="central" transform="matrix(1 0 0 1 -331 -352)">UC21.2 - Visualizzazione</text><text fill="#000000" stroke="none" font-family="Arial" font-size="13px" font-style="normal" font-weight="bold" text-decoration="undefined" x="1189" y="591" text-anchor="middle" dominant-baseline="central" transform="matrix(1 0 0 1 -331 -352)">timestamp ultimo dato</text><text fill="#000000" stroke="none" font-family="Arial" font-size="13px" font-style="normal" font-weight="bold" text-decoration="undefined" x="1189" y="604" text-anchor="middle" dominant-baseline="central" transform="matrix(1 0 0 1 -331 -352)">gateway alert</text></g></g></g></svg>