<svg version="1.1" xmlns="http://www.w3.org/2000/svg" xmlns:xlink="http://www.w3.org/1999/xlink" width="1053" height="444"><defs/><g><g><rect fill="#C0C0C0" stroke="none" x="319" y="257" width="832" height="424" transform="matrix(1 0 0 1 -102 -240)" fill-opacity="0.2"/></g><g><rect fill="#ffffff" stroke="none" x="312" y="250" width="832" height="424" transform="matrix(1 0 0 1 -102 -240)"/></g><g><path fill="none" stroke="#000000" paint-order="fill stroke markers" d=" M 210 10 L 1042 10 L 1042 434 L 210 434 L 210 10 Z Z" stroke-miterlimit="10" stroke-dasharray=""/></g><g><g><path fill="none" stroke="none"/><text fill="#000000" stroke="none" font-family="Arial" font-size="13px" font-style="normal" font-weight="bold" text-decoration="undefined" x="728.5" y="263.5" text-anchor="middle" dominant-baseline="central" transform="matrix(1 0 0 1 -102 -240)">Dashboard</text></g></g><g><path fill="#ffffff" stroke="none" paint-order="stroke fill markers" d=" M 62.860439453125 206.85000000000002 C 62.860439453125 201.96227952000004 66.81824182112499 198 71.700439453125 198 C 76.58263708512501 198 80.540439453125 201.96227952000004 80.540439453125 206.85000000000002 C 80.540439453125 211.73772048 76.58263708512501 215.7 71.700439453125 215.7 C 66.81824182112499 215.7 62.860439453125 211.73772048 62.860439453125 206.85000000000002 Z"/></g><g><path fill="none" stroke="#000000" paint-order="fill stroke markers" d=" M 62.860439453125 206.85000000000002 C 62.860439453125 201.96227952000004 66.81824182112499 198 71.700439453125 198 C 76.58263708512501 198 80.540439453125 201.96227952000004 80.540439453125 206.85000000000002 C 80.540439453125 211.73772048 76.58263708512501 215.7 71.700439453125 215.7 C 66.81824182112499 215.7 62.860439453125 211.73772048 62.860439453125 206.85000000000002 Z" stroke-miterlimit="10" stroke-dasharray=""/></g><g><path fill="none" stroke="#000000" paint-order="fill stroke markers" d=" M 71.700439453125 215.7 L 71.700439453125 233.3" stroke-miterlimit="10" stroke-dasharray=""/></g><g><path fill="none" stroke="#000000" paint-order="fill stroke markers" d=" M 62.340439453124986 222.3 L 81.06043945312501 222.3" stroke-miterlimit="10" stroke-dasharray=""/></g><g><path fill="none" stroke="#000000" paint-order="fill stroke markers" d=" M 71.700439453125 233.3 L 58.700439453125 251" stroke-miterlimit="10" stroke-dasharray=""/></g><g><path fill="none" stroke="#000000" paint-order="fill stroke markers" d=" M 71.700439453125 233.3 L 84.700439453125 251" stroke-miterlimit="10" stroke-dasharray=""/></g><g><g><path fill="none" stroke="none"/><text fill="#000000" stroke="none" font-family="Arial" font-size="13px" font-style="normal" font-weight="bold" text-decoration="undefined" x="174.200439453125" y="505.5" text-anchor="middle" dominant-baseline="central" transform="matrix(1 0 0 1 -102 -240)">Utente autenticato</text></g></g><g><path fill="#C0C0C0" stroke="none" paint-order="stroke fill markers" d=" M 281 245 C 281 225.1177472 347.9334224 209 430.5 209 C 513.0665776 209 580 225.1177472 580 245 C 580 264.8822528 513.0665776 281 430.5 281 C 347.9334224 281 281 264.8822528 281 245 Z" fill-opacity="0.2"/></g><g><path fill="#ffffff" stroke="none" paint-order="stroke fill markers" d=" M 274 238 C 274 218.1177472 340.9334224 202 423.5 202 C 506.06657759999996 202 573 218.1177472 573 238 C 573 257.8822528 506.06657759999996 274 423.5 274 C 340.9334224 274 274 257.8822528 274 238 Z"/></g><g><path fill="none" stroke="#000000" paint-order="fill stroke markers" d=" M 274 238 C 274 218.1177472 340.9334224 202 423.5 202 C 506.06657759999996 202 573 218.1177472 573 238 C 573 257.8822528 506.06657759999996 274 423.5 274 C 340.9334224 274 274 257.8822528 274 238 Z" stroke-miterlimit="10" stroke-dasharray=""/></g><g><g><path fill="none" stroke="none"/><text fill="#000000" stroke="none" font-family="Arial" font-size="13px" font-style="normal" font-weight="bold" text-decoration="undefined" x="525.5" y="466" text-anchor="middle" dominant-baseline="central" transform="matrix(1 0 0 1 -102 -240)">UC21 - Visualizzazione alert</text><text fill="#000000" stroke="none" font-family="Arial" font-size="13px" font-style="normal" font-weight="bold" text-decoration="undefined" x="525.5" y="479" text-anchor="middle" dominant-baseline="central" transform="matrix(1 0 0 1 -102 -240)">mancata ricezione dati da</text><text fill="#000000" stroke="none" font-family="Arial" font-size="13px" font-style="normal" font-weight="bold" text-decoration="undefined" x="525.5" y="492" text-anchor="middle" dominant-baseline="central" transform="matrix(1 0 0 1 -102 -240)">Gateway</text></g></g><g><path fill="none" stroke="#000000" paint-order="fill stroke markers" d=" M 475 275 L 567 340" stroke-miterlimit="10" stroke-dasharray="3"/></g><g><path fill="none" stroke="#000000" paint-order="fill stroke markers" d=" M 556.2708971601305 337.57381941078097 L 567 340 L 561.1289473729004 330.6978098788604" stroke-miterlimit="10" stroke-dasharray=""/></g><g><rect fill="#ffffff" stroke="none" x="613" y="516" width="55.65625" height="13" transform="matrix(1 0 0 1 -102 -240)"/></g><g><g><path fill="none" stroke="none"/><text fill="#000000" stroke="none" font-family="Arial" font-size="13px" font-style="normal" font-weight="normal" text-decoration="undefined" x="640.828125" y="522.5" text-anchor="middle" dominant-baseline="central" transform="matrix(1 0 0 1 -102 -240)">«include»</text></g></g><g><path fill="none" stroke="#000000" paint-order="fill stroke markers" d=" M 458 201 L 528 128" stroke-miterlimit="10" stroke-dasharray="3"/></g><g><path fill="none" stroke="#000000" paint-order="fill stroke markers" d=" M 524.0045643505174 138.24873133469913 L 528 128 L 517.9278529331316 132.4217477837812" stroke-miterlimit="10" stroke-dasharray=""/></g><g><rect fill="#ffffff" stroke="none" x="546" y="377" width="55.65625" height="13" transform="matrix(1 0 0 1 -102 -240)"/></g><g><g><path fill="none" stroke="none"/><text fill="#000000" stroke="none" font-family="Arial" font-size="13px" font-style="normal" font-weight="normal" text-decoration="undefined" x="573.828125" y="383.5" text-anchor="middle" dominant-baseline="central" transform="matrix(1 0 0 1 -102 -240)">«include»</text></g></g><g><path fill="none" stroke="#000000" paint-order="fill stroke markers" d=" M 574 238 L 705 238" stroke-miterlimit="10" stroke-dasharray="3"/></g><g><path fill="none" stroke="#000000" paint-order="fill stroke markers" d=" M 694.8373251423759 242.209517756016 L 705 238 L 694.8373251423758 233.790482243984" stroke-miterlimit="10" stroke-dasharray=""/></g><g><rect fill="#ffffff" stroke="none" x="703" y="464" width="55.65625" height="13" transform="matrix(1 0 0 1 -102 -240)"/></g><g><g><path fill="none" stroke="none"/><text fill="#000000" stroke="none" font-family="Arial" font-size="13px" font-style="normal" font-weight="normal" text-decoration="undefined" x="730.828125" y="470.5" text-anchor="middle" dominant-baseline="central" transform="matrix(1 0 0 1 -102 -240)">«include»</text></g></g><g><path fill="none" stroke="#000000" paint-order="fill stroke markers" d=" M 273 238 L 134 237" stroke-miterlimit="10" stroke-dasharray=""/></g><g><path fill="#C0C0C0" stroke="none" paint-order="stroke fill markers" d=" M 713 245 C 713 225.1177472 775.680128 209 853 209 C 930.319872 209 993 225.1177472 993 245 C 993 264.8822528 930.319872 281 853 281 C 775.680128 281 713 264.8822528 713 245 Z" fill-opacity="0.2"/></g><g><path fill="#ffffff" stroke="none" paint-order="stroke fill markers" d=" M 706 238 C 706 218.1177472 768.680128 202 846 202 C 923.319872 202 986 218.1177472 986 238 C 986 257.8822528 923.319872 274 846 274 C 768.680128 274 706 257.8822528 706 238 Z"/></g><g><path fill="none" stroke="#000000" paint-order="fill stroke markers" d=" M 706 238 C 706 218.1177472 768.680128 202 846 202 C 923.319872 202 986 218.1177472 986 238 C 986 257.8822528 923.319872 274 846 274 C 768.680128 274 706 257.8822528 706 238 Z" stroke-miterlimit="10" stroke-dasharray=""/></g><g><g><path fill="none" stroke="none"/><text fill="#000000" stroke="none" font-family="Arial" font-size="13px" font-style="normal" font-weight="bold" text-decoration="undefined" x="948" y="466" text-anchor="middle" dominant-baseline="central" transform="matrix(1 0 0 1 -102 -240)">UC21.2 - Visualizzazione</text><text fill="#000000" stroke="none" font-family="Arial" font-size="13px" font-style="normal" font-weight="bold" text-decoration="undefined" x="948" y="479" text-anchor="middle" dominant-baseline="central" transform="matrix(1 0 0 1 -102 -240)">timestamp ultimo dato</text><text fill="#000000" stroke="none" font-family="Arial" font-size="13px" font-style="normal" font-weight="bold" text-decoration="undefined" x="948" y="492" text-anchor="middle" dominant-baseline="central" transform="matrix(1 0 0 1 -102 -240)">gateway alert</text></g></g><g><path fill="#C0C0C0" stroke="none" paint-order="stroke fill markers" d=" M 433 107.5 C 433 92.86445279999998 490.97911840000006 81 562.5 81 C 634.0208815999999 81 692 92.86445279999998 692 107.5 C 692 122.13554720000002 634.0208815999999 134 562.5 134 C 490.97911840000006 134 433 122.13554720000002 433 107.5 Z" fill-opacity="0.2"/></g><g><path fill="#ffffff" stroke="none" paint-order="stroke fill markers" d=" M 426 100.5 C 426 85.86445279999998 483.97911840000006 74 555.5 74 C 627.0208815999999 74 685 85.86445279999998 685 100.5 C 685 115.13554720000002 627.0208815999999 127 555.5 127 C 483.97911840000006 127 426 115.13554720000002 426 100.5 Z"/></g><g><path fill="none" stroke="#000000" paint-order="fill stroke markers" d=" M 426 100.5 C 426 85.86445279999998 483.97911840000006 74 555.5 74 C 627.0208815999999 74 685 85.86445279999998 685 100.5 C 685 115.13554720000002 627.0208815999999 127 555.5 127 C 483.97911840000006 127 426 115.13554720000002 426 100.5 Z" stroke-miterlimit="10" stroke-dasharray=""/></g><g><g><path fill="none" stroke="none"/><text fill="#000000" stroke="none" font-family="Arial" font-size="13px" font-style="normal" font-weight="bold" text-decoration="undefined" x="657.5" y="335" text-anchor="middle" dominant-baseline="central" transform="matrix(1 0 0 1 -102 -240)">UC21.1 - Visualizzazione</text><text fill="#000000" stroke="none" font-family="Arial" font-size="13px" font-style="normal" font-weight="bold" text-decoration="undefined" x="657.5" y="348" text-anchor="middle" dominant-baseline="central" transform="matrix(1 0 0 1 -102 -240)">identificativo gateway alert</text></g></g><g><path fill="#C0C0C0" stroke="none" paint-order="stroke fill markers" d=" M 497 384 C 497 364.11774720000005 554.9791184000001 348 626.5 348 C 698.0208815999999 348 756 364.11774720000005 756 384 C 756 403.88225279999995 698.0208815999999 420 626.5 420 C 554.9791184000001 420 497 403.88225279999995 497 384 Z" fill-opacity="0.2"/></g><g><path fill="#ffffff" stroke="none" paint-order="stroke fill markers" d=" M 490 377 C 490 357.11774720000005 547.9791184000001 341 619.5 341 C 691.0208815999999 341 749 357.11774720000005 749 377 C 749 396.88225279999995 691.0208815999999 413 619.5 413 C 547.9791184000001 413 490 396.88225279999995 490 377 Z"/></g><g><path fill="none" stroke="#000000" paint-order="fill stroke markers" d=" M 490 377 C 490 357.11774720000005 547.9791184000001 341 619.5 341 C 691.0208815999999 341 749 357.11774720000005 749 377 C 749 396.88225279999995 691.0208815999999 413 619.5 413 C 547.9791184000001 413 490 396.88225279999995 490 377 Z" stroke-miterlimit="10" stroke-dasharray=""/></g><g><g><path fill="none" stroke="none"/><text fill="#000000" stroke="none" font-family="Arial" font-size="13px" font-style="normal" font-weight="bold" text-decoration="undefined" x="721.5" y="605" text-anchor="middle" dominant-baseline="central" transform="matrix(1 0 0 1 -102 -240)">UC21.3 - Visualizzazione</text><text fill="#000000" stroke="none" font-family="Arial" font-size="13px" font-style="normal" font-weight="bold" text-decoration="undefined" x="721.5" y="618" text-anchor="middle" dominant-baseline="central" transform="matrix(1 0 0 1 -102 -240)">tempo inattività gateway</text><text fill="#000000" stroke="none" font-family="Arial" font-size="13px" font-style="normal" font-weight="bold" text-decoration="undefined" x="721.5" y="631" text-anchor="middle" dominant-baseline="central" transform="matrix(1 0 0 1 -102 -240)">alert</text></g></g></g></svg>