<svg version="1.1" xmlns="http://www.w3.org/2000/svg" xmlns:xlink="http://www.w3.org/1999/xlink" width="997" height="420"><defs/><g><g><rect fill="#C0C0C0" stroke="none" x="512" y="369" width="824" height="400" transform="matrix(1 0 0 1 -343 -352)" fill-opacity="0.2"/></g><g><rect fill="#ffffff" stroke="none" x="505" y="362" width="824" height="400" transform="matrix(1 0 0 1 -343 -352)"/></g><g><path fill="none" stroke="#000000" paint-order="fill stroke markers" d=" M 162 10 L 986 10 L 986 410 L 162 410 L 162 10 Z Z" stroke-miterlimit="10" stroke-dasharray=""/></g><g><g><path fill="none" stroke="none"/><text fill="#000000" stroke="none" font-family="Arial" font-size="13px" font-style="normal" font-weight="bold" text-decoration="undefined" x="917.5" y="375.5" text-anchor="middle" dominant-baseline="central" transform="matrix(1 0 0 1 -343 -352)">Sistema Cloud</text></g></g><g><path fill="#ffffff" stroke="none" paint-order="stroke fill markers" d=" M 62.860439453125025 179.85000000000002 C 62.860439453125025 174.96227952000004 66.81824182112501 171 71.700439453125 171 C 76.58263708512499 171 80.54043945312497 174.96227952000004 80.54043945312497 179.85000000000002 C 80.54043945312497 184.73772048 76.58263708512499 188.70000000000005 71.700439453125 188.70000000000005 C 66.81824182112501 188.70000000000005 62.860439453125025 184.73772048 62.860439453125025 179.85000000000002 Z"/></g><g><path fill="none" stroke="#000000" paint-order="fill stroke markers" d=" M 62.860439453125025 179.85000000000002 C 62.860439453125025 174.96227952000004 66.81824182112501 171 71.700439453125 171 C 76.58263708512499 171 80.54043945312497 174.96227952000004 80.54043945312497 179.85000000000002 C 80.54043945312497 184.73772048 76.58263708512499 188.70000000000005 71.700439453125 188.70000000000005 C 66.81824182112501 188.70000000000005 62.860439453125025 184.73772048 62.860439453125025 179.85000000000002 Z" stroke-miterlimit="10" stroke-dasharray=""/></g><g><path fill="none" stroke="#000000" paint-order="fill stroke markers" d=" M 71.700439453125 188.70000000000005 L 71.700439453125 206.29999999999995" stroke-miterlimit="10" stroke-dasharray=""/></g><g><path fill="none" stroke="#000000" paint-order="fill stroke markers" d=" M 62.340439453124986 195.29999999999995 L 81.06043945312501 195.29999999999995" stroke-miterlimit="10" stroke-dasharray=""/></g><g><path fill="none" stroke="#000000" paint-order="fill stroke markers" d=" M 71.700439453125 206.29999999999995 L 58.700439453125 224" stroke-miterlimit="10" stroke-dasharray=""/></g><g><path fill="none" stroke="#000000" paint-order="fill stroke markers" d=" M 71.700439453125 206.29999999999995 L 84.700439453125 224" stroke-miterlimit="10" stroke-dasharray=""/></g><g><g><path fill="none" stroke="none"/><text fill="#000000" stroke="none" font-family="Arial" font-size="13px" font-style="normal" font-weight="bold" text-decoration="undefined" x="415.200439453125" y="590.5" text-anchor="middle" dominant-baseline="central" transform="matrix(1 0 0 1 -343 -352)">Utente autenticato</text></g></g><g><path fill="#C0C0C0" stroke="none" paint-order="stroke fill markers" d=" M 281 219.5 C 281 204.86445279999998 356.2161536 193 449 193 C 541.7838464 193 617 204.86445279999998 617 219.5 C 617 234.13554720000002 541.7838464 246 449 246 C 356.2161536 246 281 234.13554720000002 281 219.5 Z" fill-opacity="0.2"/></g><g><path fill="#ffffff" stroke="none" paint-order="stroke fill markers" d=" M 274 212.5 C 274 197.86445279999998 349.2161536 186 442 186 C 534.7838464 186 610 197.86445279999998 610 212.5 C 610 227.13554720000002 534.7838464 239 442 239 C 349.2161536 239 274 227.13554720000002 274 212.5 Z"/></g><g><path fill="none" stroke="#000000" paint-order="fill stroke markers" d=" M 274 212.5 C 274 197.86445279999998 349.2161536 186 442 186 C 534.7838464 186 610 197.86445279999998 610 212.5 C 610 227.13554720000002 534.7838464 239 442 239 C 349.2161536 239 274 227.13554720000002 274 212.5 Z" stroke-miterlimit="10" stroke-dasharray=""/></g><g><g><path fill="none" stroke="none"/><text fill="#000000" stroke="none" font-family="Arial" font-size="13px" font-style="normal" font-weight="bold" text-decoration="undefined" x="785" y="559" text-anchor="middle" dominant-baseline="central" transform="matrix(1 0 0 1 -343 -352)">UC22 - Visualizzazione alert</text><text fill="#000000" stroke="none" font-family="Arial" font-size="13px" font-style="normal" font-weight="bold" text-decoration="undefined" x="785" y="572" text-anchor="middle" dominant-baseline="central" transform="matrix(1 0 0 1 -343 -352)">mancata ricezione dati da sensore</text></g></g><g><path fill="#C0C0C0" stroke="none" paint-order="stroke fill markers" d=" M 297 91.5 C 297 76.86445279999998 366.84357120000004 65 453 65 C 539.1564288 65 609 76.86445279999998 609 91.5 C 609 106.13554720000002 539.1564288 118 453 118 C 366.84357120000004 118 297 106.13554720000002 297 91.5 Z" fill-opacity="0.2"/></g><g><path fill="#ffffff" stroke="none" paint-order="stroke fill markers" d=" M 290 84.5 C 290 69.86445279999998 359.84357120000004 58 446 58 C 532.1564288 58 602 69.86445279999998 602 84.5 C 602 99.13554720000002 532.1564288 111 446 111 C 359.84357120000004 111 290 99.13554720000002 290 84.5 Z"/></g><g><path fill="none" stroke="#000000" paint-order="fill stroke markers" d=" M 290 84.5 C 290 69.86445279999998 359.84357120000004 58 446 58 C 532.1564288 58 602 69.86445279999998 602 84.5 C 602 99.13554720000002 532.1564288 111 446 111 C 359.84357120000004 111 290 99.13554720000002 290 84.5 Z" stroke-miterlimit="10" stroke-dasharray=""/></g><g><g><path fill="none" stroke="none"/><text fill="#000000" stroke="none" font-family="Arial" font-size="13px" font-style="normal" font-weight="bold" text-decoration="undefined" x="789" y="431" text-anchor="middle" dominant-baseline="central" transform="matrix(1 0 0 1 -343 -352)">UC22.1 - Visualizzazione</text><text fill="#000000" stroke="none" font-family="Arial" font-size="13px" font-style="normal" font-weight="bold" text-decoration="undefined" x="789" y="444" text-anchor="middle" dominant-baseline="central" transform="matrix(1 0 0 1 -343 -352)">identificativo sensore alert</text></g></g><g><path fill="#C0C0C0" stroke="none" paint-order="stroke fill markers" d=" M 737 221 C 737 201.11774720000005 790.7258240000001 185 857 185 C 923.2741759999999 185 977 201.11774720000005 977 221 C 977 240.88225279999995 923.2741759999999 257 857 257 C 790.7258240000001 257 737 240.88225279999995 737 221 Z" fill-opacity="0.2"/></g><g><path fill="#ffffff" stroke="none" paint-order="stroke fill markers" d=" M 730 214 C 730 194.11774720000005 783.7258240000001 178 850 178 C 916.2741759999999 178 970 194.11774720000005 970 214 C 970 233.88225279999995 916.2741759999999 250 850 250 C 783.7258240000001 250 730 233.88225279999995 730 214 Z"/></g><g><path fill="none" stroke="#000000" paint-order="fill stroke markers" d=" M 730 214 C 730 194.11774720000005 783.7258240000001 178 850 178 C 916.2741759999999 178 970 194.11774720000005 970 214 C 970 233.88225279999995 916.2741759999999 250 850 250 C 783.7258240000001 250 730 233.88225279999995 730 214 Z" stroke-miterlimit="10" stroke-dasharray=""/></g><g><g><path fill="none" stroke="none"/><text fill="#000000" stroke="none" font-family="Arial" font-size="13px" font-style="normal" font-weight="bold" text-decoration="undefined" x="1193" y="554" text-anchor="middle" dominant-baseline="central" transform="matrix(1 0 0 1 -343 -352)">UC22.2 - Visualizzazione</text><text fill="#000000" stroke="none" font-family="Arial" font-size="13px" font-style="normal" font-weight="bold" text-decoration="undefined" x="1193" y="567" text-anchor="middle" dominant-baseline="central" transform="matrix(1 0 0 1 -343 -352)">timestamp ultimo dato</text><text fill="#000000" stroke="none" font-family="Arial" font-size="13px" font-style="normal" font-weight="bold" text-decoration="undefined" x="1193" y="580" text-anchor="middle" dominant-baseline="central" transform="matrix(1 0 0 1 -343 -352)">sensore alert</text></g></g><g><path fill="#C0C0C0" stroke="none" paint-order="stroke fill markers" d=" M 305 363.5 C 305 348.8644528 367.68012799999997 337 445 337 C 522.319872 337 585 348.8644528 585 363.5 C 585 378.1355472 522.319872 390 445 390 C 367.68012799999997 390 305 378.1355472 305 363.5 Z" fill-opacity="0.2"/></g><g><path fill="#ffffff" stroke="none" paint-order="stroke fill markers" d=" M 298 356.5 C 298 341.8644528 360.68012799999997 330 438 330 C 515.319872 330 578 341.8644528 578 356.5 C 578 371.1355472 515.319872 383 438 383 C 360.68012799999997 383 298 371.1355472 298 356.5 Z"/></g><g><path fill="none" stroke="#000000" paint-order="fill stroke markers" d=" M 298 356.5 C 298 341.8644528 360.68012799999997 330 438 330 C 515.319872 330 578 341.8644528 578 356.5 C 578 371.1355472 515.319872 383 438 383 C 360.68012799999997 383 298 371.1355472 298 356.5 Z" stroke-miterlimit="10" stroke-dasharray=""/></g><g><g><path fill="none" stroke="none"/><text fill="#000000" stroke="none" font-family="Arial" font-size="13px" font-style="normal" font-weight="bold" text-decoration="undefined" x="781" y="703" text-anchor="middle" dominant-baseline="central" transform="matrix(1 0 0 1 -343 -352)">UC22.3 - Visualizzazione</text><text fill="#000000" stroke="none" font-family="Arial" font-size="13px" font-style="normal" font-weight="bold" text-decoration="undefined" x="781" y="716" text-anchor="middle" dominant-baseline="central" transform="matrix(1 0 0 1 -343 -352)">tempo inattività sensore alert</text></g></g><g><path fill="none" stroke="#000000" paint-order="fill stroke markers" d=" M 443 185 L 445 112" stroke-miterlimit="10" stroke-dasharray="3"/></g><g><path fill="none" stroke="#000000" paint-order="fill stroke markers" d=" M 448.9296137810629 122.27414889573248 L 445 112 L 440.51373619694095 122.04357690712641" stroke-miterlimit="10" stroke-dasharray=""/></g><g><rect fill="#ffffff" stroke="none" x="730" y="493" width="55.65625" height="13" transform="matrix(1 0 0 1 -343 -352)"/></g><g><g><path fill="none" stroke="none"/><text fill="#000000" stroke="none" font-family="Arial" font-size="13px" font-style="normal" font-weight="normal" text-decoration="undefined" x="757.828125" y="499.5" text-anchor="middle" dominant-baseline="central" transform="matrix(1 0 0 1 -343 -352)">«include»</text></g></g><g><path fill="none" stroke="#000000" paint-order="fill stroke markers" d=" M 611 213 L 729 213" stroke-miterlimit="10" stroke-dasharray="3"/></g><g><path fill="none" stroke="#000000" paint-order="fill stroke markers" d=" M 718.8373251423759 217.209517756016 L 729 213 L 718.8373251423759 208.790482243984" stroke-miterlimit="10" stroke-dasharray=""/></g><g><rect fill="#ffffff" stroke="none" x="986" y="548" width="55.65625" height="13" transform="matrix(1 0 0 1 -343 -352)"/></g><g><g><path fill="none" stroke="none"/><text fill="#000000" stroke="none" font-family="Arial" font-size="13px" font-style="normal" font-weight="normal" text-decoration="undefined" x="1013.828125" y="554.5" text-anchor="middle" dominant-baseline="central" transform="matrix(1 0 0 1 -343 -352)">«include»</text></g></g><g><path fill="none" stroke="#000000" paint-order="fill stroke markers" d=" M 441 240 L 439 329" stroke-miterlimit="10" stroke-dasharray="3"/></g><g><path fill="none" stroke="#000000" paint-order="fill stroke markers" d=" M 435.01986179156245 318.7453181501455 L 439 329 L 443.4367723576969 318.9344622078114" stroke-miterlimit="10" stroke-dasharray=""/></g><g><rect fill="#ffffff" stroke="none" x="785" y="630" width="55.65625" height="13" transform="matrix(1 0 0 1 -343 -352)"/></g><g><g><path fill="none" stroke="none"/><text fill="#000000" stroke="none" font-family="Arial" font-size="13px" font-style="normal" font-weight="normal" text-decoration="undefined" x="812.828125" y="636.5" text-anchor="middle" dominant-baseline="central" transform="matrix(1 0 0 1 -343 -352)">«include»</text></g></g><g><path fill="none" stroke="#000000" paint-order="fill stroke markers" d=" M 273 211 L 134 210" stroke-miterlimit="10" stroke-dasharray=""/></g></g></svg>