<svg version="1.1" xmlns="http://www.w3.org/2000/svg" xmlns:xlink="http://www.w3.org/1999/xlink" width="983" height="444"><defs/><g><g><rect fill="#C0C0C0" stroke="none" x="324" y="257" width="792" height="424" transform="matrix(1 0 0 1 -137 -240)" fill-opacity="0.2"/></g><g><rect fill="#ffffff" stroke="none" x="317" y="250" width="792" height="424" transform="matrix(1 0 0 1 -137 -240)"/></g><g><path fill="none" stroke="#000000" paint-order="fill stroke markers" d=" M 180 10 L 972 10 L 972 434 L 180 434 L 180 10 Z Z" stroke-miterlimit="10" stroke-dasharray=""/></g><g><g><path fill="none" stroke="none"/><text fill="#000000" stroke="none" font-family="Arial" font-size="13px" font-style="normal" font-weight="bold" text-decoration="undefined" x="713.5" y="263.5" text-anchor="middle" dominant-baseline="central" transform="matrix(1 0 0 1 -137 -240)">Dashboard</text></g></g><g><path fill="#ffffff" stroke="none" paint-order="stroke fill markers" d=" M 62.860439453125 206.85000000000002 C 62.860439453125 201.96227952000004 66.81824182112499 198 71.700439453125 198 C 76.58263708512501 198 80.540439453125 201.96227952000004 80.540439453125 206.85000000000002 C 80.540439453125 211.73772048 76.58263708512501 215.7 71.700439453125 215.7 C 66.81824182112499 215.7 62.860439453125 211.73772048 62.860439453125 206.85000000000002 Z"/></g><g><path fill="none" stroke="#000000" paint-order="fill stroke markers" d=" M 62.860439453125 206.85000000000002 C 62.860439453125 201.96227952000004 66.81824182112499 198 71.700439453125 198 C 76.58263708512501 198 80.540439453125 201.96227952000004 80.540439453125 206.85000000000002 C 80.540439453125 211.73772048 76.58263708512501 215.7 71.700439453125 215.7 C 66.81824182112499 215.7 62.860439453125 211.73772048 62.860439453125 206.85000000000002 Z" stroke-miterlimit="10" stroke-dasharray=""/></g><g><path fill="none" stroke="#000000" paint-order="fill stroke markers" d=" M 71.700439453125 215.7 L 71.700439453125 233.3" stroke-miterlimit="10" stroke-dasharray=""/></g><g><path fill="none" stroke="#000000" paint-order="fill stroke markers" d=" M 62.340439453124986 222.3 L 81.06043945312501 222.3" stroke-miterlimit="10" stroke-dasharray=""/></g><g><path fill="none" stroke="#000000" paint-order="fill stroke markers" d=" M 71.700439453125 233.3 L 58.700439453125 251" stroke-miterlimit="10" stroke-dasharray=""/></g><g><path fill="none" stroke="#000000" paint-order="fill stroke markers" d=" M 71.700439453125 233.3 L 84.700439453125 251" stroke-miterlimit="10" stroke-dasharray=""/></g><g><g><path fill="none" stroke="none"/><text fill="#000000" stroke="none" font-family="Arial" font-size="13px" font-style="normal" font-weight="bold" text-decoration="undefined" x="209.200439453125" y="505.5" text-anchor="middle" dominant-baseline="central" transform="matrix(1 0 0 1 -137 -240)">Utente autenticato</text></g></g><g><path fill="#C0C0C0" stroke="none" paint-order="stroke fill markers" d=" M 241 264 C 241 244.1177472 309.50042559999997 228 394 228 C 478.49957440000003 228 547 244.1177472 547 264 C 547 283.88225279999995 478.49957440000003 300 394 300 C 309.50042559999997 300 241 283.88225279999995 241 264 Z" fill-opacity="0.2"/></g><g><path fill="#ffffff" stroke="none" paint-order="stroke fill markers" d=" M 234 257 C 234 237.1177472 302.50042559999997 221 387 221 C 471.49957440000003 221 540 237.1177472 540 257 C 540 276.88225279999995 471.49957440000003 293 387 293 C 302.50042559999997 293 234 276.88225279999995 234 257 Z"/></g><g><path fill="none" stroke="#000000" paint-order="fill stroke markers" d=" M 234 257 C 234 237.1177472 302.50042559999997 221 387 221 C 471.49957440000003 221 540 237.1177472 540 257 C 540 276.88225279999995 471.49957440000003 293 387 293 C 302.50042559999997 293 234 276.88225279999995 234 257 Z" stroke-miterlimit="10" stroke-dasharray=""/></g><g><g><path fill="none" stroke="none"/><text fill="#000000" stroke="none" font-family="Arial" font-size="13px" font-style="normal" font-weight="bold" text-decoration="undefined" x="524" y="485" text-anchor="middle" dominant-baseline="central" transform="matrix(1 0 0 1 -137 -240)">UC22 - Visualizzazione alert</text><text fill="#000000" stroke="none" font-family="Arial" font-size="13px" font-style="normal" font-weight="bold" text-decoration="undefined" x="524" y="498" text-anchor="middle" dominant-baseline="central" transform="matrix(1 0 0 1 -137 -240)">mancata ricezione dati da</text><text fill="#000000" stroke="none" font-family="Arial" font-size="13px" font-style="normal" font-weight="bold" text-decoration="undefined" x="524" y="511" text-anchor="middle" dominant-baseline="central" transform="matrix(1 0 0 1 -137 -240)">sensore</text></g></g><g><path fill="#C0C0C0" stroke="none" paint-order="stroke fill markers" d=" M 683 269 C 683 249.1177472 740.3075456 233 811 233 C 881.6924544 233 939 249.1177472 939 269 C 939 288.88225279999995 881.6924544 305 811 305 C 740.3075456 305 683 288.88225279999995 683 269 Z" fill-opacity="0.2"/></g><g><path fill="#ffffff" stroke="none" paint-order="stroke fill markers" d=" M 676 262 C 676 242.1177472 733.3075456 226 804 226 C 874.6924544 226 932 242.1177472 932 262 C 932 281.88225279999995 874.6924544 298 804 298 C 733.3075456 298 676 281.88225279999995 676 262 Z"/></g><g><path fill="none" stroke="#000000" paint-order="fill stroke markers" d=" M 676 262 C 676 242.1177472 733.3075456 226 804 226 C 874.6924544 226 932 242.1177472 932 262 C 932 281.88225279999995 874.6924544 298 804 298 C 733.3075456 298 676 281.88225279999995 676 262 Z" stroke-miterlimit="10" stroke-dasharray=""/></g><g><g><path fill="none" stroke="none"/><text fill="#000000" stroke="none" font-family="Arial" font-size="13px" font-style="normal" font-weight="bold" text-decoration="undefined" x="941" y="490" text-anchor="middle" dominant-baseline="central" transform="matrix(1 0 0 1 -137 -240)">UC22.2 - Visualizzazione</text><text fill="#000000" stroke="none" font-family="Arial" font-size="13px" font-style="normal" font-weight="bold" text-decoration="undefined" x="941" y="503" text-anchor="middle" dominant-baseline="central" transform="matrix(1 0 0 1 -137 -240)">timestamp ultimo dato</text><text fill="#000000" stroke="none" font-family="Arial" font-size="13px" font-style="normal" font-weight="bold" text-decoration="undefined" x="941" y="516" text-anchor="middle" dominant-baseline="central" transform="matrix(1 0 0 1 -137 -240)">sensore alert</text></g></g><g><path fill="none" stroke="#000000" paint-order="fill stroke markers" d=" M 421 220 L 487 147" stroke-miterlimit="10" stroke-dasharray="3"/></g><g><path fill="none" stroke="#000000" paint-order="fill stroke markers" d=" M 483.30695163106225 157.3615343335187 L 487 147 L 477.0619092643459 151.7153316458025" stroke-miterlimit="10" stroke-dasharray=""/></g><g><rect fill="#ffffff" stroke="none" x="541" y="396" width="55.65625" height="13" transform="matrix(1 0 0 1 -137 -240)"/></g><g><g><path fill="none" stroke="none"/><text fill="#000000" stroke="none" font-family="Arial" font-size="13px" font-style="normal" font-weight="normal" text-decoration="undefined" x="568.828125" y="402.5" text-anchor="middle" dominant-baseline="central" transform="matrix(1 0 0 1 -137 -240)">«include»</text></g></g><g><path fill="none" stroke="#000000" paint-order="fill stroke markers" d=" M 541 259 L 675 260" stroke-miterlimit="10" stroke-dasharray="3"/></g><g><path fill="none" stroke="#000000" paint-order="fill stroke markers" d=" M 664.8061946819387 264.13356179794926 L 675 260 L 664.8690215557198 255.714760711287" stroke-miterlimit="10" stroke-dasharray=""/></g><g><rect fill="#ffffff" stroke="none" x="718" y="482" width="55.65625" height="13" transform="matrix(1 0 0 1 -137 -240)"/></g><g><g><path fill="none" stroke="none"/><text fill="#000000" stroke="none" font-family="Arial" font-size="13px" font-style="normal" font-weight="normal" text-decoration="undefined" x="745.828125" y="488.5" text-anchor="middle" dominant-baseline="central" transform="matrix(1 0 0 1 -137 -240)">«include»</text></g></g><g><path fill="none" stroke="#000000" paint-order="fill stroke markers" d=" M 441 294 L 491 329" stroke-miterlimit="10" stroke-dasharray="3"/></g><g><path fill="none" stroke="#000000" paint-order="fill stroke markers" d=" M 480.260412437774 326.62065996686454 L 491 329 L 485.088412279782 319.7235173354246" stroke-miterlimit="10" stroke-dasharray=""/></g><g><rect fill="#ffffff" stroke="none" x="593" y="520" width="55.65625" height="13" transform="matrix(1 0 0 1 -137 -240)"/></g><g><g><path fill="none" stroke="none"/><text fill="#000000" stroke="none" font-family="Arial" font-size="13px" font-style="normal" font-weight="normal" text-decoration="undefined" x="620.828125" y="526.5" text-anchor="middle" dominant-baseline="central" transform="matrix(1 0 0 1 -137 -240)">«include»</text></g></g><g><path fill="none" stroke="#000000" paint-order="fill stroke markers" d=" M 233 247 L 134 241" stroke-miterlimit="10" stroke-dasharray=""/></g><g><path fill="#C0C0C0" stroke="none" paint-order="stroke fill markers" d=" M 435 373 C 435 353.11774720000005 487.38267840000003 337 552 337 C 616.6173216 337 669 353.11774720000005 669 373 C 669 392.88225279999995 616.6173216 409 552 409 C 487.38267840000003 409 435 392.88225279999995 435 373 Z" fill-opacity="0.2"/></g><g><path fill="#ffffff" stroke="none" paint-order="stroke fill markers" d=" M 428 366 C 428 346.11774720000005 480.38267840000003 330 545 330 C 609.6173216 330 662 346.11774720000005 662 366 C 662 385.88225279999995 609.6173216 402 545 402 C 480.38267840000003 402 428 385.88225279999995 428 366 Z"/></g><g><path fill="none" stroke="#000000" paint-order="fill stroke markers" d=" M 428 366 C 428 346.11774720000005 480.38267840000003 330 545 330 C 609.6173216 330 662 346.11774720000005 662 366 C 662 385.88225279999995 609.6173216 402 545 402 C 480.38267840000003 402 428 385.88225279999995 428 366 Z" stroke-miterlimit="10" stroke-dasharray=""/></g><g><g><path fill="none" stroke="none"/><text fill="#000000" stroke="none" font-family="Arial" font-size="13px" font-style="normal" font-weight="bold" text-decoration="undefined" x="682" y="594" text-anchor="middle" dominant-baseline="central" transform="matrix(1 0 0 1 -137 -240)">UC22.3 - Visualizzazione</text><text fill="#000000" stroke="none" font-family="Arial" font-size="13px" font-style="normal" font-weight="bold" text-decoration="undefined" x="682" y="607" text-anchor="middle" dominant-baseline="central" transform="matrix(1 0 0 1 -137 -240)">tempo inattività sensore</text><text fill="#000000" stroke="none" font-family="Arial" font-size="13px" font-style="normal" font-weight="bold" text-decoration="undefined" x="682" y="620" text-anchor="middle" dominant-baseline="central" transform="matrix(1 0 0 1 -137 -240)">alert</text></g></g><g><path fill="#C0C0C0" stroke="none" paint-order="stroke fill markers" d=" M 387 126.5 C 387 111.86445279999998 446.09840640000004 100 519 100 C 591.9015936 100 651 111.86445279999998 651 126.5 C 651 141.13554720000002 591.9015936 153 519 153 C 446.09840640000004 153 387 141.13554720000002 387 126.5 Z" fill-opacity="0.2"/></g><g><path fill="#ffffff" stroke="none" paint-order="stroke fill markers" d=" M 380 119.5 C 380 104.86445279999998 439.09840640000004 93 512 93 C 584.9015936 93 644 104.86445279999998 644 119.5 C 644 134.13554720000002 584.9015936 146 512 146 C 439.09840640000004 146 380 134.13554720000002 380 119.5 Z"/></g><g><path fill="none" stroke="#000000" paint-order="fill stroke markers" d=" M 380 119.5 C 380 104.86445279999998 439.09840640000004 93 512 93 C 584.9015936 93 644 104.86445279999998 644 119.5 C 644 134.13554720000002 584.9015936 146 512 146 C 439.09840640000004 146 380 134.13554720000002 380 119.5 Z" stroke-miterlimit="10" stroke-dasharray=""/></g><g><g><path fill="none" stroke="none"/><text fill="#000000" stroke="none" font-family="Arial" font-size="13px" font-style="normal" font-weight="bold" text-decoration="undefined" x="649" y="354" text-anchor="middle" dominant-baseline="central" transform="matrix(1 0 0 1 -137 -240)">UC22.1 - Visualizzazione</text><text fill="#000000" stroke="none" font-family="Arial" font-size="13px" font-style="normal" font-weight="bold" text-decoration="undefined" x="649" y="367" text-anchor="middle" dominant-baseline="central" transform="matrix(1 0 0 1 -137 -240)">identificativo sensore alert</text></g></g></g></svg>