<svg version="1.1" xmlns="http://www.w3.org/2000/svg" xmlns:xlink="http://www.w3.org/1999/xlink" width="677" height="364"><defs/><g><g><rect fill="#C0C0C0" stroke="none" x="375" y="431" width="512" height="344" transform="matrix(1 0 0 1 -214 -414)" fill-opacity="0.2"/></g><g><rect fill="#ffffff" stroke="none" x="368" y="424" width="512" height="344" transform="matrix(1 0 0 1 -214 -414)"/></g><g><path fill="none" stroke="#000000" paint-order="fill stroke markers" d=" M 154 10 L 666 10 L 666 354 L 154 354 L 154 10 Z Z" stroke-miterlimit="10" stroke-dasharray=""/></g><g><g><path fill="none" stroke="none"/><text fill="#000000" stroke="none" font-family="Arial" font-size="13px" font-style="normal" font-weight="bold" text-decoration="undefined" x="624.5" y="437.5" text-anchor="middle" dominant-baseline="central" transform="matrix(1 0 0 1 -214 -414)">Sistema Cloud</text></g></g><g><path fill="#ffffff" stroke="none" paint-order="stroke fill markers" d=" M 62.860439453125025 163.85000000000002 C 62.860439453125025 158.96227952000004 66.81824182112501 155 71.700439453125 155 C 76.58263708512499 155 80.54043945312497 158.96227952000004 80.54043945312497 163.85000000000002 C 80.54043945312497 168.73772048 76.58263708512499 172.70000000000005 71.700439453125 172.70000000000005 C 66.81824182112501 172.70000000000005 62.860439453125025 168.73772048 62.860439453125025 163.85000000000002 Z"/></g><g><path fill="none" stroke="#000000" paint-order="fill stroke markers" d=" M 62.860439453125025 163.85000000000002 C 62.860439453125025 158.96227952000004 66.81824182112501 155 71.700439453125 155 C 76.58263708512499 155 80.54043945312497 158.96227952000004 80.54043945312497 163.85000000000002 C 80.54043945312497 168.73772048 76.58263708512499 172.70000000000005 71.700439453125 172.70000000000005 C 66.81824182112501 172.70000000000005 62.860439453125025 168.73772048 62.860439453125025 163.85000000000002 Z" stroke-miterlimit="10" stroke-dasharray=""/></g><g><path fill="none" stroke="#000000" paint-order="fill stroke markers" d=" M 71.700439453125 172.70000000000005 L 71.700439453125 190.29999999999995" stroke-miterlimit="10" stroke-dasharray=""/></g><g><path fill="none" stroke="#000000" paint-order="fill stroke markers" d=" M 62.340439453124986 179.29999999999995 L 81.06043945312501 179.29999999999995" stroke-miterlimit="10" stroke-dasharray=""/></g><g><path fill="none" stroke="#000000" paint-order="fill stroke markers" d=" M 71.700439453125 190.29999999999995 L 58.700439453125 208" stroke-miterlimit="10" stroke-dasharray=""/></g><g><path fill="none" stroke="#000000" paint-order="fill stroke markers" d=" M 71.700439453125 190.29999999999995 L 84.700439453125 208" stroke-miterlimit="10" stroke-dasharray=""/></g><g><g><path fill="none" stroke="none"/><text fill="#000000" stroke="none" font-family="Arial" font-size="13px" font-style="normal" font-weight="bold" text-decoration="undefined" x="286.200439453125" y="636.5" text-anchor="middle" dominant-baseline="central" transform="matrix(1 0 0 1 -214 -414)">Utente autenticato</text></g></g><g><path fill="#C0C0C0" stroke="none" paint-order="stroke fill markers" d=" M 290 202 C 290 182.11774720000005 361.63443200000006 166 450 166 C 538.3655679999999 166 610 182.11774720000005 610 202 C 610 221.88225279999995 538.3655679999999 238 450 238 C 361.63443200000006 238 290 221.88225279999995 290 202 Z" fill-opacity="0.2"/></g><g><path fill="#ffffff" stroke="none" paint-order="stroke fill markers" d=" M 283 195 C 283 175.11774720000005 354.63443200000006 159 443 159 C 531.3655679999999 159 603 175.11774720000005 603 195 C 603 214.88225279999995 531.3655679999999 231 443 231 C 354.63443200000006 231 283 214.88225279999995 283 195 Z"/></g><g><path fill="none" stroke="#000000" paint-order="fill stroke markers" d=" M 283 195 C 283 175.11774720000005 354.63443200000006 159 443 159 C 531.3655679999999 159 603 175.11774720000005 603 195 C 603 214.88225279999995 531.3655679999999 231 443 231 C 354.63443200000006 231 283 214.88225279999995 283 195 Z" stroke-miterlimit="10" stroke-dasharray=""/></g><g><g><path fill="none" stroke="none"/><text fill="#000000" stroke="none" font-family="Arial" font-size="13px" font-style="normal" font-weight="bold" text-decoration="undefined" x="657" y="603.5" text-anchor="middle" dominant-baseline="central" transform="matrix(1 0 0 1 -214 -414)">UC22 - Visualizzazione in tempo</text><text fill="#000000" stroke="none" font-family="Arial" font-size="13px" font-style="normal" font-weight="bold" text-decoration="undefined" x="657" y="616.5" text-anchor="middle" dominant-baseline="central" transform="matrix(1 0 0 1 -214 -414)">reale dei dati del sensore</text></g></g><g><path fill="#C0C0C0" stroke="none" paint-order="stroke fill markers" d=" M 306 88.5 C 306 73.86445279999998 370.4709888 62 450 62 C 529.5290112 62 594 73.86445279999998 594 88.5 C 594 103.13554720000002 529.5290112 115 450 115 C 370.4709888 115 306 103.13554720000002 306 88.5 Z" fill-opacity="0.2"/></g><g><path fill="#ffffff" stroke="none" paint-order="stroke fill markers" d=" M 299 81.5 C 299 66.86445279999998 363.4709888 55 443 55 C 522.5290112 55 587 66.86445279999998 587 81.5 C 587 96.13554720000002 522.5290112 108 443 108 C 363.4709888 108 299 96.13554720000002 299 81.5 Z"/></g><g><path fill="none" stroke="#000000" paint-order="fill stroke markers" d=" M 299 81.5 C 299 66.86445279999998 363.4709888 55 443 55 C 522.5290112 55 587 66.86445279999998 587 81.5 C 587 96.13554720000002 522.5290112 108 443 108 C 363.4709888 108 299 96.13554720000002 299 81.5 Z" stroke-miterlimit="10" stroke-dasharray=""/></g><g><g><path fill="none" stroke="none"/><text fill="#000000" stroke="none" font-family="Arial" font-size="13px" font-style="normal" font-weight="bold" text-decoration="undefined" x="657" y="490" text-anchor="middle" dominant-baseline="central" transform="matrix(1 0 0 1 -214 -414)">UC28 - Dati non disponibili per</text><text fill="#000000" stroke="none" font-family="Arial" font-size="13px" font-style="normal" font-weight="bold" text-decoration="undefined" x="657" y="503" text-anchor="middle" dominant-baseline="central" transform="matrix(1 0 0 1 -214 -414)">il sensore selezionato</text></g></g><g><path fill="#C0C0C0" stroke="none" paint-order="stroke fill markers" d=" M 274 312.5 C 274 297.8644528 356.37959679999994 286 458 286 C 559.6204032 286 642 297.8644528 642 312.5 C 642 327.1355472 559.6204032 339 458 339 C 356.37959679999994 339 274 327.1355472 274 312.5 Z" fill-opacity="0.2"/></g><g><path fill="#ffffff" stroke="none" paint-order="stroke fill markers" d=" M 267 305.5 C 267 290.8644528 349.37959679999994 279 451 279 C 552.6204032 279 635 290.8644528 635 305.5 C 635 320.1355472 552.6204032 332 451 332 C 349.37959679999994 332 267 320.1355472 267 305.5 Z"/></g><g><path fill="none" stroke="#000000" paint-order="fill stroke markers" d=" M 267 305.5 C 267 290.8644528 349.37959679999994 279 451 279 C 552.6204032 279 635 290.8644528 635 305.5 C 635 320.1355472 552.6204032 332 451 332 C 349.37959679999994 332 267 320.1355472 267 305.5 Z" stroke-miterlimit="10" stroke-dasharray=""/></g><g><g><path fill="none" stroke="none"/><text fill="#000000" stroke="none" font-family="Arial" font-size="13px" font-style="normal" font-weight="bold" text-decoration="undefined" x="665" y="714" text-anchor="middle" dominant-baseline="central" transform="matrix(1 0 0 1 -214 -414)">UC22.1 - Visualizzazione grafico dei dati</text><text fill="#000000" stroke="none" font-family="Arial" font-size="13px" font-style="normal" font-weight="bold" text-decoration="undefined" x="665" y="727" text-anchor="middle" dominant-baseline="central" transform="matrix(1 0 0 1 -214 -414)">real-time del sensore</text></g></g><g><path fill="none" stroke="#000000" paint-order="fill stroke markers" d=" M 443 109 L 443 158" stroke-miterlimit="10" stroke-dasharray="3"/></g><g><path fill="none" stroke="#000000" paint-order="fill stroke markers" d=" M 438.790482243984 147.8373251423759 L 443 158 L 447.209517756016 147.8373251423759" stroke-miterlimit="10" stroke-dasharray=""/></g><g><rect fill="#ffffff" stroke="none" x="660" y="540" width="53.49169921875" height="13" transform="matrix(1 0 0 1 -214 -414)"/></g><g><g><path fill="none" stroke="none"/><text fill="#000000" stroke="none" font-family="Arial" font-size="13px" font-style="normal" font-weight="normal" text-decoration="undefined" x="686.745849609375" y="546.5" text-anchor="middle" dominant-baseline="central" transform="matrix(1 0 0 1 -214 -414)">«extend»</text></g></g><g><path fill="none" stroke="#000000" paint-order="fill stroke markers" d=" M 446 232 L 449 278" stroke-miterlimit="10" stroke-dasharray="3"/></g><g><path fill="none" stroke="#000000" paint-order="fill stroke markers" d=" M 444.1380278627038 268.1328207203803 L 449 278 L 452.5392159115803 267.58491715197533" stroke-miterlimit="10" stroke-dasharray=""/></g><g><rect fill="#ffffff" stroke="none" x="663" y="660" width="55.65625" height="13" transform="matrix(1 0 0 1 -214 -414)"/></g><g><g><path fill="none" stroke="none"/><text fill="#000000" stroke="none" font-family="Arial" font-size="13px" font-style="normal" font-weight="normal" text-decoration="undefined" x="690.828125" y="666.5" text-anchor="middle" dominant-baseline="central" transform="matrix(1 0 0 1 -214 -414)">«include»</text></g></g><g><path fill="none" stroke="#000000" paint-order="fill stroke markers" d=" M 282 195 L 134 194" stroke-miterlimit="10" stroke-dasharray=""/></g><g><path fill="#ffffff" stroke="none" paint-order="stroke fill markers" d=" M 170 55 L 279 55 L 289 65 L 289 159 L 170 159 L 170 55"/></g><g><path fill="none" stroke="#000000" paint-order="fill stroke markers" d=" M 170 55 L 279 55 L 289 65 L 289 159 L 170 159 L 170 55 L 170 55" stroke-miterlimit="10" stroke-dasharray=""/></g><g><path fill="none" stroke="#000000" paint-order="fill stroke markers" d=" M 279 55 L 279 65 L 289 65 L 279 55" stroke-miterlimit="10" stroke-dasharray=""/></g><g><g><path fill="none" stroke="none"/><text fill="#000000" stroke="none" font-family="Arial" font-size="13px" font-style="normal" font-weight="normal" text-decoration="undefined" x="444" y="474" text-anchor="middle" dominant-baseline="text-before-edge" transform="matrix(1 0 0 1 -214 -414)">Condizione:</text></g></g><g><g><path fill="none" stroke="none"/><text fill="#000000" stroke="none" font-family="Arial" font-size="13px" font-style="normal" font-weight="normal" text-decoration="undefined" x="444" y="489" text-anchor="middle" dominant-baseline="text-before-edge" transform="matrix(1 0 0 1 -214 -414)">L'utente ha</text><text fill="#000000" stroke="none" font-family="Arial" font-size="13px" font-style="normal" font-weight="normal" text-decoration="undefined" x="444" y="502" text-anchor="middle" dominant-baseline="text-before-edge" transform="matrix(1 0 0 1 -214 -414)">selezionato un</text><text fill="#000000" stroke="none" font-family="Arial" font-size="13px" font-style="normal" font-weight="normal" text-decoration="undefined" x="444" y="515" text-anchor="middle" dominant-baseline="text-before-edge" transform="matrix(1 0 0 1 -214 -414)">sensore per cui</text><text fill="#000000" stroke="none" font-family="Arial" font-size="13px" font-style="normal" font-weight="normal" text-decoration="undefined" x="444" y="528" text-anchor="middle" dominant-baseline="text-before-edge" transform="matrix(1 0 0 1 -214 -414)">non sono</text><text fill="#000000" stroke="none" font-family="Arial" font-size="13px" font-style="normal" font-weight="normal" text-decoration="undefined" x="444" y="541" text-anchor="middle" dominant-baseline="text-before-edge" transform="matrix(1 0 0 1 -214 -414)">disponibili dati in</text><text fill="#000000" stroke="none" font-family="Arial" font-size="13px" font-style="normal" font-weight="normal" text-decoration="undefined" x="444" y="554" text-anchor="middle" dominant-baseline="text-before-edge" transform="matrix(1 0 0 1 -214 -414)">tempo reale</text></g></g><g><path fill="none" stroke="#000000" paint-order="fill stroke markers" d=" M 291 114 L 443 133" stroke-miterlimit="10" stroke-dasharray="3"/></g></g></svg>