<svg version="1.1" xmlns="http://www.w3.org/2000/svg" xmlns:xlink="http://www.w3.org/1999/xlink" width="1060" height="345"><defs/><g><g><path fill="#ffffff" stroke="none" paint-order="stroke fill markers" d=" M 62.860439453125 123.85000000000002 C 62.860439453125 118.96227952000004 66.81824182112499 115 71.700439453125 115 C 76.58263708512501 115 80.540439453125 118.96227952000004 80.540439453125 123.85000000000002 C 80.540439453125 128.73772048 76.58263708512501 132.70000000000005 71.700439453125 132.70000000000005 C 66.81824182112499 132.70000000000005 62.860439453125 128.73772048 62.860439453125 123.85000000000002 Z"/></g><g><path fill="none" stroke="#000000" paint-order="fill stroke markers" d=" M 62.860439453125 123.85000000000002 C 62.860439453125 118.96227952000004 66.81824182112499 115 71.700439453125 115 C 76.58263708512501 115 80.540439453125 118.96227952000004 80.540439453125 123.85000000000002 C 80.540439453125 128.73772048 76.58263708512501 132.70000000000005 71.700439453125 132.70000000000005 C 66.81824182112499 132.70000000000005 62.860439453125 128.73772048 62.860439453125 123.85000000000002 Z" stroke-miterlimit="10" stroke-dasharray=""/></g><g><path fill="none" stroke="#000000" paint-order="fill stroke markers" d=" M 71.700439453125 132.70000000000005 L 71.700439453125 150.29999999999995" stroke-miterlimit="10" stroke-dasharray=""/></g><g><path fill="none" stroke="#000000" paint-order="fill stroke markers" d=" M 62.340439453124986 139.29999999999995 L 81.06043945312501 139.29999999999995" stroke-miterlimit="10" stroke-dasharray=""/></g><g><path fill="none" stroke="#000000" paint-order="fill stroke markers" d=" M 71.700439453125 150.29999999999995 L 58.700439453125 168" stroke-miterlimit="10" stroke-dasharray=""/></g><g><path fill="none" stroke="#000000" paint-order="fill stroke markers" d=" M 71.700439453125 150.29999999999995 L 84.700439453125 168" stroke-miterlimit="10" stroke-dasharray=""/></g><g><g><path fill="none" stroke="none"/><text fill="#000000" stroke="none" font-family="Arial" font-size="13px" font-style="normal" font-weight="bold" text-decoration="undefined" x="191.200439453125" y="617.5" text-anchor="middle" dominant-baseline="central" transform="matrix(1 0 0 1 -119 -435)">Utente autenticato</text></g></g><g><path fill="#C0C0C0" stroke="none" paint-order="stroke fill markers" d=" M 361 171.5 C 361 156.86445279999998 436.2161536 145 529 145 C 621.7838464 145 697 156.86445279999998 697 171.5 C 697 186.13554720000002 621.7838464 198 529 198 C 436.2161536 198 361 186.13554720000002 361 171.5 Z" fill-opacity="0.2"/></g><g><path fill="#ffffff" stroke="none" paint-order="stroke fill markers" d=" M 354 164.5 C 354 149.86445279999998 429.2161536 138 522 138 C 614.7838464 138 690 149.86445279999998 690 164.5 C 690 179.13554720000002 614.7838464 191 522 191 C 429.2161536 191 354 179.13554720000002 354 164.5 Z"/></g><g><path fill="none" stroke="#000000" paint-order="fill stroke markers" d=" M 354 164.5 C 354 149.86445279999998 429.2161536 138 522 138 C 614.7838464 138 690 149.86445279999998 690 164.5 C 690 179.13554720000002 614.7838464 191 522 191 C 429.2161536 191 354 179.13554720000002 354 164.5 Z" stroke-miterlimit="10" stroke-dasharray=""/></g><g><g><path fill="none" stroke="none"/><text fill="#000000" stroke="none" font-family="Arial" font-size="13px" font-style="normal" font-weight="bold" text-decoration="undefined" x="641" y="594" text-anchor="middle" dominant-baseline="central" transform="matrix(1 0 0 1 -119 -435)">UC22 - Visualizzazione alert</text><text fill="#000000" stroke="none" font-family="Arial" font-size="13px" font-style="normal" font-weight="bold" text-decoration="undefined" x="641" y="607" text-anchor="middle" dominant-baseline="central" transform="matrix(1 0 0 1 -119 -435)">mancata ricezione dati da sensore</text></g></g><g><path fill="#C0C0C0" stroke="none" paint-order="stroke fill markers" d=" M 377 43.5 C 377 28.86445279999998 446.84357120000004 17 533 17 C 619.1564288 17 689 28.86445279999998 689 43.5 C 689 58.13554720000002 619.1564288 70 533 70 C 446.84357120000004 70 377 58.13554720000002 377 43.5 Z" fill-opacity="0.2"/></g><g><path fill="#ffffff" stroke="none" paint-order="stroke fill markers" d=" M 370 36.5 C 370 21.86445279999998 439.84357120000004 10 526 10 C 612.1564288 10 682 21.86445279999998 682 36.5 C 682 51.13554720000002 612.1564288 63 526 63 C 439.84357120000004 63 370 51.13554720000002 370 36.5 Z"/></g><g><path fill="none" stroke="#000000" paint-order="fill stroke markers" d=" M 370 36.5 C 370 21.86445279999998 439.84357120000004 10 526 10 C 612.1564288 10 682 21.86445279999998 682 36.5 C 682 51.13554720000002 612.1564288 63 526 63 C 439.84357120000004 63 370 51.13554720000002 370 36.5 Z" stroke-miterlimit="10" stroke-dasharray=""/></g><g><g><path fill="none" stroke="none"/><text fill="#000000" stroke="none" font-family="Arial" font-size="13px" font-style="normal" font-weight="bold" text-decoration="undefined" x="645" y="466" text-anchor="middle" dominant-baseline="central" transform="matrix(1 0 0 1 -119 -435)">UC22.1 - Visualizzazione</text><text fill="#000000" stroke="none" font-family="Arial" font-size="13px" font-style="normal" font-weight="bold" text-decoration="undefined" x="645" y="479" text-anchor="middle" dominant-baseline="central" transform="matrix(1 0 0 1 -119 -435)">identificativo sensore alert</text></g></g><g><path fill="#C0C0C0" stroke="none" paint-order="stroke fill markers" d=" M 817 173 C 817 153.11774720000005 870.725824 137 937 137 C 1003.2741759999999 137 1057 153.11774720000005 1057 173 C 1057 192.88225279999995 1003.2741759999999 209 937 209 C 870.725824 209 817 192.88225279999995 817 173 Z" fill-opacity="0.2"/></g><g><path fill="#ffffff" stroke="none" paint-order="stroke fill markers" d=" M 810 166 C 810 146.11774720000005 863.725824 130 930 130 C 996.2741759999999 130 1050 146.11774720000005 1050 166 C 1050 185.88225279999995 996.2741759999999 202 930 202 C 863.725824 202 810 185.88225279999995 810 166 Z"/></g><g><path fill="none" stroke="#000000" paint-order="fill stroke markers" d=" M 810 166 C 810 146.11774720000005 863.725824 130 930 130 C 996.2741759999999 130 1050 146.11774720000005 1050 166 C 1050 185.88225279999995 996.2741759999999 202 930 202 C 863.725824 202 810 185.88225279999995 810 166 Z" stroke-miterlimit="10" stroke-dasharray=""/></g><g><g><path fill="none" stroke="none"/><text fill="#000000" stroke="none" font-family="Arial" font-size="13px" font-style="normal" font-weight="bold" text-decoration="undefined" x="1049" y="589" text-anchor="middle" dominant-baseline="central" transform="matrix(1 0 0 1 -119 -435)">UC22.2 - Visualizzazione</text><text fill="#000000" stroke="none" font-family="Arial" font-size="13px" font-style="normal" font-weight="bold" text-decoration="undefined" x="1049" y="602" text-anchor="middle" dominant-baseline="central" transform="matrix(1 0 0 1 -119 -435)">timestamp ultimo dato</text><text fill="#000000" stroke="none" font-family="Arial" font-size="13px" font-style="normal" font-weight="bold" text-decoration="undefined" x="1049" y="615" text-anchor="middle" dominant-baseline="central" transform="matrix(1 0 0 1 -119 -435)">sensore alert</text></g></g><g><path fill="#C0C0C0" stroke="none" paint-order="stroke fill markers" d=" M 385 315.5 C 385 300.8644528 447.68012799999997 289 525 289 C 602.319872 289 665 300.8644528 665 315.5 C 665 330.1355472 602.319872 342 525 342 C 447.68012799999997 342 385 330.1355472 385 315.5 Z" fill-opacity="0.2"/></g><g><path fill="#ffffff" stroke="none" paint-order="stroke fill markers" d=" M 378 308.5 C 378 293.8644528 440.68012799999997 282 518 282 C 595.319872 282 658 293.8644528 658 308.5 C 658 323.1355472 595.319872 335 518 335 C 440.68012799999997 335 378 323.1355472 378 308.5 Z"/></g><g><path fill="none" stroke="#000000" paint-order="fill stroke markers" d=" M 378 308.5 C 378 293.8644528 440.68012799999997 282 518 282 C 595.319872 282 658 293.8644528 658 308.5 C 658 323.1355472 595.319872 335 518 335 C 440.68012799999997 335 378 323.1355472 378 308.5 Z" stroke-miterlimit="10" stroke-dasharray=""/></g><g><g><path fill="none" stroke="none"/><text fill="#000000" stroke="none" font-family="Arial" font-size="13px" font-style="normal" font-weight="bold" text-decoration="undefined" x="637" y="738" text-anchor="middle" dominant-baseline="central" transform="matrix(1 0 0 1 -119 -435)">UC22.3 - Visualizzazione</text><text fill="#000000" stroke="none" font-family="Arial" font-size="13px" font-style="normal" font-weight="bold" text-decoration="undefined" x="637" y="751" text-anchor="middle" dominant-baseline="central" transform="matrix(1 0 0 1 -119 -435)">tempo inattività sensore alert</text></g></g><g><path fill="none" stroke="#000000" paint-order="fill stroke markers" d=" M 523 137 L 525 64" stroke-miterlimit="10" stroke-dasharray="3"/></g><g><path fill="none" stroke="#000000" paint-order="fill stroke markers" d=" M 528.9296137810629 74.27414889573248 L 525 64 L 520.513736196941 74.04357690712641" stroke-miterlimit="10" stroke-dasharray=""/></g><g><rect fill="#ffffff" stroke="none" x="586" y="528" width="55.65625" height="13" transform="matrix(1 0 0 1 -119 -435)"/></g><g><g><path fill="none" stroke="none"/><text fill="#000000" stroke="none" font-family="Arial" font-size="13px" font-style="normal" font-weight="normal" text-decoration="undefined" x="613.828125" y="534.5" text-anchor="middle" dominant-baseline="central" transform="matrix(1 0 0 1 -119 -435)">«include»</text></g></g><g><path fill="none" stroke="#000000" paint-order="fill stroke markers" d=" M 691 165 L 809 165" stroke-miterlimit="10" stroke-dasharray="3"/></g><g><path fill="none" stroke="#000000" paint-order="fill stroke markers" d=" M 798.8373251423759 169.209517756016 L 809 165 L 798.8373251423758 160.790482243984" stroke-miterlimit="10" stroke-dasharray=""/></g><g><rect fill="#ffffff" stroke="none" x="842" y="583" width="55.65625" height="13" transform="matrix(1 0 0 1 -119 -435)"/></g><g><g><path fill="none" stroke="none"/><text fill="#000000" stroke="none" font-family="Arial" font-size="13px" font-style="normal" font-weight="normal" text-decoration="undefined" x="869.828125" y="589.5" text-anchor="middle" dominant-baseline="central" transform="matrix(1 0 0 1 -119 -435)">«include»</text></g></g><g><path fill="none" stroke="#000000" paint-order="fill stroke markers" d=" M 521 192 L 519 281" stroke-miterlimit="10" stroke-dasharray="3"/></g><g><path fill="none" stroke="#000000" paint-order="fill stroke markers" d=" M 515.0198617915624 270.7453181501455 L 519 281 L 523.4367723576969 270.9344622078114" stroke-miterlimit="10" stroke-dasharray=""/></g><g><rect fill="#ffffff" stroke="none" x="641" y="665" width="55.65625" height="13" transform="matrix(1 0 0 1 -119 -435)"/></g><g><g><path fill="none" stroke="none"/><text fill="#000000" stroke="none" font-family="Arial" font-size="13px" font-style="normal" font-weight="normal" text-decoration="undefined" x="668.828125" y="671.5" text-anchor="middle" dominant-baseline="central" transform="matrix(1 0 0 1 -119 -435)">«include»</text></g></g><g><path fill="none" stroke="#000000" paint-order="fill stroke markers" d=" M 353 160 L 134 155" stroke-miterlimit="10" stroke-dasharray=""/></g></g></svg>