<svg version="1.1" xmlns="http://www.w3.org/2000/svg" xmlns:xlink="http://www.w3.org/1999/xlink" width="997" height="356"><defs/><g><g><rect fill="#C0C0C0" stroke="none" x="375" y="439" width="824" height="336" transform="matrix(1 0 0 1 -206 -422)" fill-opacity="0.2"/></g><g><rect fill="#ffffff" stroke="none" x="368" y="432" width="824" height="336" transform="matrix(1 0 0 1 -206 -422)"/></g><g><path fill="none" stroke="#000000" paint-order="fill stroke markers" d=" M 162 10 L 986 10 L 986 346 L 162 346 L 162 10 Z Z" stroke-miterlimit="10" stroke-dasharray=""/></g><g><g><path fill="none" stroke="none"/><text fill="#000000" stroke="none" font-family="Arial" font-size="13px" font-style="normal" font-weight="bold" text-decoration="undefined" x="780.5" y="445.5" text-anchor="middle" dominant-baseline="central" transform="matrix(1 0 0 1 -206 -422)">Sistema cloud</text></g></g><g><path fill="#ffffff" stroke="none" paint-order="stroke fill markers" d=" M 62.860439453125025 147.85000000000002 C 62.860439453125025 142.96227952000004 66.81824182112501 139 71.700439453125 139 C 76.58263708512499 139 80.54043945312497 142.96227952000004 80.54043945312497 147.85000000000002 C 80.54043945312497 152.73772048 76.58263708512499 156.70000000000005 71.700439453125 156.70000000000005 C 66.81824182112501 156.70000000000005 62.860439453125025 152.73772048 62.860439453125025 147.85000000000002 Z"/></g><g><path fill="none" stroke="#000000" paint-order="fill stroke markers" d=" M 62.860439453125025 147.85000000000002 C 62.860439453125025 142.96227952000004 66.81824182112501 139 71.700439453125 139 C 76.58263708512499 139 80.54043945312497 142.96227952000004 80.54043945312497 147.85000000000002 C 80.54043945312497 152.73772048 76.58263708512499 156.70000000000005 71.700439453125 156.70000000000005 C 66.81824182112501 156.70000000000005 62.860439453125025 152.73772048 62.860439453125025 147.85000000000002 Z" stroke-miterlimit="10" stroke-dasharray=""/></g><g><path fill="none" stroke="#000000" paint-order="fill stroke markers" d=" M 71.700439453125 156.70000000000005 L 71.700439453125 174.29999999999995" stroke-miterlimit="10" stroke-dasharray=""/></g><g><path fill="none" stroke="#000000" paint-order="fill stroke markers" d=" M 62.340439453124986 163.29999999999995 L 81.06043945312501 163.29999999999995" stroke-miterlimit="10" stroke-dasharray=""/></g><g><path fill="none" stroke="#000000" paint-order="fill stroke markers" d=" M 71.700439453125 174.29999999999995 L 58.700439453125 192" stroke-miterlimit="10" stroke-dasharray=""/></g><g><path fill="none" stroke="#000000" paint-order="fill stroke markers" d=" M 71.700439453125 174.29999999999995 L 84.700439453125 192" stroke-miterlimit="10" stroke-dasharray=""/></g><g><g><path fill="none" stroke="none"/><text fill="#000000" stroke="none" font-family="Arial" font-size="13px" font-style="normal" font-weight="bold" text-decoration="undefined" x="278.200439453125" y="628.5" text-anchor="middle" dominant-baseline="central" transform="matrix(1 0 0 1 -206 -422)">Utente autenticato</text></g></g><g><path fill="#C0C0C0" stroke="none" paint-order="stroke fill markers" d=" M 274 184.5 C 274 169.86445279999998 349.2161536 158 442 158 C 534.7838464 158 610 169.86445279999998 610 184.5 C 610 199.13554720000002 534.7838464 211 442 211 C 349.2161536 211 274 199.13554720000002 274 184.5 Z" fill-opacity="0.2"/></g><g><path fill="#ffffff" stroke="none" paint-order="stroke fill markers" d=" M 267 177.5 C 267 162.86445279999998 342.2161536 151 435 151 C 527.7838464 151 603 162.86445279999998 603 177.5 C 603 192.13554720000002 527.7838464 204 435 204 C 342.2161536 204 267 192.13554720000002 267 177.5 Z"/></g><g><path fill="none" stroke="#000000" paint-order="fill stroke markers" d=" M 267 177.5 C 267 162.86445279999998 342.2161536 151 435 151 C 527.7838464 151 603 162.86445279999998 603 177.5 C 603 192.13554720000002 527.7838464 204 435 204 C 342.2161536 204 267 192.13554720000002 267 177.5 Z" stroke-miterlimit="10" stroke-dasharray=""/></g><g><g><path fill="none" stroke="none"/><text fill="#000000" stroke="none" font-family="Arial" font-size="13px" font-style="normal" font-weight="bold" text-decoration="undefined" x="641" y="594" text-anchor="middle" dominant-baseline="central" transform="matrix(1 0 0 1 -206 -422)">UC22 - Visualizzazione alert</text><text fill="#000000" stroke="none" font-family="Arial" font-size="13px" font-style="normal" font-weight="bold" text-decoration="undefined" x="641" y="607" text-anchor="middle" dominant-baseline="central" transform="matrix(1 0 0 1 -206 -422)">mancata ricezione dati da sensore</text></g></g><g><path fill="#C0C0C0" stroke="none" paint-order="stroke fill markers" d=" M 513 75.5 C 513 60.86445279999998 582.8435712 49 669 49 C 755.1564288 49 825 60.86445279999998 825 75.5 C 825 90.13554720000002 755.1564288 102 669 102 C 582.8435712 102 513 90.13554720000002 513 75.5 Z" fill-opacity="0.2"/></g><g><path fill="#ffffff" stroke="none" paint-order="stroke fill markers" d=" M 506 68.5 C 506 53.86445279999998 575.8435712 42 662 42 C 748.1564288 42 818 53.86445279999998 818 68.5 C 818 83.13554720000002 748.1564288 95 662 95 C 575.8435712 95 506 83.13554720000002 506 68.5 Z"/></g><g><path fill="none" stroke="#000000" paint-order="fill stroke markers" d=" M 506 68.5 C 506 53.86445279999998 575.8435712 42 662 42 C 748.1564288 42 818 53.86445279999998 818 68.5 C 818 83.13554720000002 748.1564288 95 662 95 C 575.8435712 95 506 83.13554720000002 506 68.5 Z" stroke-miterlimit="10" stroke-dasharray=""/></g><g><g><path fill="none" stroke="none"/><text fill="#000000" stroke="none" font-family="Arial" font-size="13px" font-style="normal" font-weight="bold" text-decoration="undefined" x="868" y="491.5" text-anchor="middle" dominant-baseline="central" transform="matrix(1 0 0 1 -206 -422)">UC20 - Visualizzazione alert</text></g></g><g><path fill="#C0C0C0" stroke="none" paint-order="stroke fill markers" d=" M 730 186 C 730 166.11774720000005 783.725824 150 850 150 C 916.2741759999999 150 970 166.11774720000005 970 186 C 970 205.88225279999995 916.2741759999999 222 850 222 C 783.725824 222 730 205.88225279999995 730 186 Z" fill-opacity="0.2"/></g><g><path fill="#ffffff" stroke="none" paint-order="stroke fill markers" d=" M 723 179 C 723 159.11774720000005 776.725824 143 843 143 C 909.2741759999999 143 963 159.11774720000005 963 179 C 963 198.88225279999995 909.2741759999999 215 843 215 C 776.725824 215 723 198.88225279999995 723 179 Z"/></g><g><path fill="none" stroke="#000000" paint-order="fill stroke markers" d=" M 723 179 C 723 159.11774720000005 776.725824 143 843 143 C 909.2741759999999 143 963 159.11774720000005 963 179 C 963 198.88225279999995 909.2741759999999 215 843 215 C 776.725824 215 723 198.88225279999995 723 179 Z" stroke-miterlimit="10" stroke-dasharray=""/></g><g><g><path fill="none" stroke="none"/><text fill="#000000" stroke="none" font-family="Arial" font-size="13px" font-style="normal" font-weight="bold" text-decoration="undefined" x="1049" y="589" text-anchor="middle" dominant-baseline="central" transform="matrix(1 0 0 1 -206 -422)">UC22.2 - Visualizzazione</text><text fill="#000000" stroke="none" font-family="Arial" font-size="13px" font-style="normal" font-weight="bold" text-decoration="undefined" x="1049" y="602" text-anchor="middle" dominant-baseline="central" transform="matrix(1 0 0 1 -206 -422)">timestamp ultimo dato</text><text fill="#000000" stroke="none" font-family="Arial" font-size="13px" font-style="normal" font-weight="bold" text-decoration="undefined" x="1049" y="615" text-anchor="middle" dominant-baseline="central" transform="matrix(1 0 0 1 -206 -422)">sensore alert</text></g></g><g><path fill="#C0C0C0" stroke="none" paint-order="stroke fill markers" d=" M 529 291.5 C 529 276.8644528 591.680128 265 669 265 C 746.319872 265 809 276.8644528 809 291.5 C 809 306.1355472 746.319872 318 669 318 C 591.680128 318 529 306.1355472 529 291.5 Z" fill-opacity="0.2"/></g><g><path fill="#ffffff" stroke="none" paint-order="stroke fill markers" d=" M 522 284.5 C 522 269.8644528 584.680128 258 662 258 C 739.319872 258 802 269.8644528 802 284.5 C 802 299.1355472 739.319872 311 662 311 C 584.680128 311 522 299.1355472 522 284.5 Z"/></g><g><path fill="none" stroke="#000000" paint-order="fill stroke markers" d=" M 522 284.5 C 522 269.8644528 584.680128 258 662 258 C 739.319872 258 802 269.8644528 802 284.5 C 802 299.1355472 739.319872 311 662 311 C 584.680128 311 522 299.1355472 522 284.5 Z" stroke-miterlimit="10" stroke-dasharray=""/></g><g><g><path fill="none" stroke="none"/><text fill="#000000" stroke="none" font-family="Arial" font-size="13px" font-style="normal" font-weight="bold" text-decoration="undefined" x="868" y="701" text-anchor="middle" dominant-baseline="central" transform="matrix(1 0 0 1 -206 -422)">UC22.3 - Visualizzazione</text><text fill="#000000" stroke="none" font-family="Arial" font-size="13px" font-style="normal" font-weight="bold" text-decoration="undefined" x="868" y="714" text-anchor="middle" dominant-baseline="central" transform="matrix(1 0 0 1 -206 -422)">tempo inattività sensore alert</text></g></g><g><path fill="none" stroke="#000000" paint-order="fill stroke markers" d=" M 491 150 L 604 96" stroke-miterlimit="10" stroke-dasharray="3"/></g><g><path fill="none" stroke="#000000" paint-order="fill stroke markers" d=" M 596.6455605932296 104.17998905941465 L 604 96 L 593.0155002897033 96.5837517575909" stroke-miterlimit="10" stroke-dasharray=""/></g><g><rect fill="#ffffff" stroke="none" x="713" y="544" width="55.65625" height="13" transform="matrix(1 0 0 1 -206 -422)"/></g><g><g><path fill="none" stroke="none"/><text fill="#000000" stroke="none" font-family="Arial" font-size="13px" font-style="normal" font-weight="normal" text-decoration="undefined" x="740.828125" y="550.5" text-anchor="middle" dominant-baseline="central" transform="matrix(1 0 0 1 -206 -422)">«include»</text></g></g><g><path fill="none" stroke="#000000" paint-order="fill stroke markers" d=" M 604 178 L 722 178" stroke-miterlimit="10" stroke-dasharray="3"/></g><g><path fill="none" stroke="#000000" paint-order="fill stroke markers" d=" M 711.8373251423759 182.209517756016 L 722 178 L 711.8373251423758 173.790482243984" stroke-miterlimit="10" stroke-dasharray=""/></g><g><rect fill="#ffffff" stroke="none" x="842" y="583" width="55.65625" height="13" transform="matrix(1 0 0 1 -206 -422)"/></g><g><g><path fill="none" stroke="none"/><text fill="#000000" stroke="none" font-family="Arial" font-size="13px" font-style="normal" font-weight="normal" text-decoration="undefined" x="869.828125" y="589.5" text-anchor="middle" dominant-baseline="central" transform="matrix(1 0 0 1 -206 -422)">«include»</text></g></g><g><path fill="none" stroke="#000000" paint-order="fill stroke markers" d=" M 494 205 L 605 257" stroke-miterlimit="10" stroke-dasharray="3"/></g><g><path fill="none" stroke="#000000" paint-order="fill stroke markers" d=" M 594.0113377470325 256.500698597833 L 605 257 L 597.5829018120862 248.8767829974298" stroke-miterlimit="10" stroke-dasharray=""/></g><g><rect fill="#ffffff" stroke="none" x="720" y="639" width="55.65625" height="13" transform="matrix(1 0 0 1 -206 -422)"/></g><g><g><path fill="none" stroke="none"/><text fill="#000000" stroke="none" font-family="Arial" font-size="13px" font-style="normal" font-weight="normal" text-decoration="undefined" x="747.828125" y="645.5" text-anchor="middle" dominant-baseline="central" transform="matrix(1 0 0 1 -206 -422)">«include»</text></g></g><g><path fill="none" stroke="#000000" paint-order="fill stroke markers" d=" M 266 177 L 134 178" stroke-miterlimit="10" stroke-dasharray=""/></g><g><path fill="#C0C0C0" stroke="none" paint-order="stroke fill markers" d=" M 209 75.5 C 209 60.86445279999998 268.0984064 49 341 49 C 413.90159359999996 49 473 60.86445279999998 473 75.5 C 473 90.13554720000002 413.90159359999996 102 341 102 C 268.0984064 102 209 90.13554720000002 209 75.5 Z" fill-opacity="0.2"/></g><g><path fill="#ffffff" stroke="none" paint-order="stroke fill markers" d=" M 202 68.5 C 202 53.86445279999998 261.0984064 42 334 42 C 406.90159359999996 42 466 53.86445279999998 466 68.5 C 466 83.13554720000002 406.90159359999996 95 334 95 C 261.0984064 95 202 83.13554720000002 202 68.5 Z"/></g><g><path fill="none" stroke="#000000" paint-order="fill stroke markers" d=" M 202 68.5 C 202 53.86445279999998 261.0984064 42 334 42 C 406.90159359999996 42 466 53.86445279999998 466 68.5 C 466 83.13554720000002 406.90159359999996 95 334 95 C 261.0984064 95 202 83.13554720000002 202 68.5 Z" stroke-miterlimit="10" stroke-dasharray=""/></g><g><g><path fill="none" stroke="none"/><text fill="#000000" stroke="none" font-family="Arial" font-size="13px" font-style="normal" font-weight="bold" text-decoration="undefined" x="540" y="491.5" text-anchor="middle" dominant-baseline="central" transform="matrix(1 0 0 1 -206 -422)">UC20 - Visualizzazione alert</text></g></g><g><path fill="none" stroke="#000000" paint-order="fill stroke markers" d=" M 410 150 L 360 96" stroke-miterlimit="10" stroke-dasharray=""/></g><g><path fill="#FFFFFF" stroke="none" paint-order="stroke fill markers" d=" M 379.9867630114429 105.1939819623716 L 360 96 L 367.63164866766 116.63390265105954"/></g><g><path fill="none" stroke="#000000" paint-order="fill stroke markers" d=" M 379.9867630114429 105.1939819623716 L 360 96 L 367.63164866766 116.63390265105954 L 379.9867630114429 105.1939819623716" stroke-miterlimit="10" stroke-dasharray=""/></g></g></svg>