<svg version="1.1" xmlns="http://www.w3.org/2000/svg" xmlns:xlink="http://www.w3.org/1999/xlink" width="965" height="404"><defs/><g><g><rect fill="#C0C0C0" stroke="none" x="339" y="277" width="768" height="384" transform="matrix(1 0 0 1 -146 -260)" fill-opacity="0.2"/></g><g><rect fill="#ffffff" stroke="none" x="332" y="270" width="768" height="384" transform="matrix(1 0 0 1 -146 -260)"/></g><g><path fill="none" stroke="#000000" paint-order="fill stroke markers" d=" M 186 10 L 954 10 L 954 394 L 186 394 L 186 10 Z Z" stroke-miterlimit="10" stroke-dasharray=""/></g><g><g><path fill="none" stroke="none"/><text fill="#000000" stroke="none" font-family="Arial" font-size="13px" font-style="normal" font-weight="bold" text-decoration="undefined" x="716.5" y="283.5" text-anchor="middle" dominant-baseline="central" transform="matrix(1 0 0 1 -146 -260)">Dashboard</text></g></g><g><path fill="#ffffff" stroke="none" paint-order="stroke fill markers" d=" M 62.860439453125 163.85000000000002 C 62.860439453125 158.96227952000004 66.81824182112499 155 71.700439453125 155 C 76.58263708512501 155 80.540439453125 158.96227952000004 80.540439453125 163.85000000000002 C 80.540439453125 168.73772048 76.58263708512501 172.7 71.700439453125 172.7 C 66.81824182112499 172.7 62.860439453125 168.73772048 62.860439453125 163.85000000000002 Z"/></g><g><path fill="none" stroke="#000000" paint-order="fill stroke markers" d=" M 62.860439453125 163.85000000000002 C 62.860439453125 158.96227952000004 66.81824182112499 155 71.700439453125 155 C 76.58263708512501 155 80.540439453125 158.96227952000004 80.540439453125 163.85000000000002 C 80.540439453125 168.73772048 76.58263708512501 172.7 71.700439453125 172.7 C 66.81824182112499 172.7 62.860439453125 168.73772048 62.860439453125 163.85000000000002 Z" stroke-miterlimit="10" stroke-dasharray=""/></g><g><path fill="none" stroke="#000000" paint-order="fill stroke markers" d=" M 71.700439453125 172.7 L 71.700439453125 190.3" stroke-miterlimit="10" stroke-dasharray=""/></g><g><path fill="none" stroke="#000000" paint-order="fill stroke markers" d=" M 62.340439453124986 179.3 L 81.06043945312501 179.3" stroke-miterlimit="10" stroke-dasharray=""/></g><g><path fill="none" stroke="#000000" paint-order="fill stroke markers" d=" M 71.700439453125 190.3 L 58.700439453125 208" stroke-miterlimit="10" stroke-dasharray=""/></g><g><path fill="none" stroke="#000000" paint-order="fill stroke markers" d=" M 71.700439453125 190.3 L 84.700439453125 208" stroke-miterlimit="10" stroke-dasharray=""/></g><g><g><path fill="none" stroke="none"/><text fill="#000000" stroke="none" font-family="Arial" font-size="13px" font-style="normal" font-weight="bold" text-decoration="undefined" x="218.200439453125" y="482.5" text-anchor="middle" dominant-baseline="central" transform="matrix(1 0 0 1 -146 -260)">Utente autenticato</text></g></g><g><path fill="#C0C0C0" stroke="none" paint-order="stroke fill markers" d=" M 281 214.5 C 281 199.86445279999998 347.2618496 188 429 188 C 510.7381504 188 577 199.86445279999998 577 214.5 C 577 229.13554720000002 510.7381504 241 429 241 C 347.2618496 241 281 229.13554720000002 281 214.5 Z" fill-opacity="0.2"/></g><g><path fill="#ffffff" stroke="none" paint-order="stroke fill markers" d=" M 274 207.5 C 274 192.86445279999998 340.2618496 181 422 181 C 503.7381504 181 570 192.86445279999998 570 207.5 C 570 222.13554720000002 503.7381504 234 422 234 C 340.2618496 234 274 222.13554720000002 274 207.5 Z"/></g><g><path fill="none" stroke="#000000" paint-order="fill stroke markers" d=" M 274 207.5 C 274 192.86445279999998 340.2618496 181 422 181 C 503.7381504 181 570 192.86445279999998 570 207.5 C 570 222.13554720000002 503.7381504 234 422 234 C 340.2618496 234 274 222.13554720000002 274 207.5 Z" stroke-miterlimit="10" stroke-dasharray=""/></g><g><g><path fill="none" stroke="none"/><text fill="#000000" stroke="none" font-family="Arial" font-size="13px" font-style="normal" font-weight="bold" text-decoration="undefined" x="568" y="462" text-anchor="middle" dominant-baseline="central" transform="matrix(1 0 0 1 -146 -260)">UC24 - Visualizzazione in tempo</text><text fill="#000000" stroke="none" font-family="Arial" font-size="13px" font-style="normal" font-weight="bold" text-decoration="undefined" x="568" y="475" text-anchor="middle" dominant-baseline="central" transform="matrix(1 0 0 1 -146 -260)">reale dei dati del sensore</text></g></g><g><path fill="#C0C0C0" stroke="none" paint-order="stroke fill markers" d=" M 289 91.5 C 289 76.86445279999998 348.0984064 65 421 65 C 493.90159359999996 65 553 76.86445279999998 553 91.5 C 553 106.13554720000002 493.90159359999996 118 421 118 C 348.0984064 118 289 106.13554720000002 289 91.5 Z" fill-opacity="0.2"/></g><g><path fill="#ffffff" stroke="none" paint-order="stroke fill markers" d=" M 282 84.5 C 282 69.86445279999998 341.0984064 58 414 58 C 486.90159359999996 58 546 69.86445279999998 546 84.5 C 546 99.13554720000002 486.90159359999996 111 414 111 C 341.0984064 111 282 99.13554720000002 282 84.5 Z"/></g><g><path fill="none" stroke="#000000" paint-order="fill stroke markers" d=" M 282 84.5 C 282 69.86445279999998 341.0984064 58 414 58 C 486.90159359999996 58 546 69.86445279999998 546 84.5 C 546 99.13554720000002 486.90159359999996 111 414 111 C 341.0984064 111 282 99.13554720000002 282 84.5 Z" stroke-miterlimit="10" stroke-dasharray=""/></g><g><g><path fill="none" stroke="none"/><text fill="#000000" stroke="none" font-family="Arial" font-size="13px" font-style="normal" font-weight="bold" text-decoration="undefined" x="560" y="339" text-anchor="middle" dominant-baseline="central" transform="matrix(1 0 0 1 -146 -260)">UC30 - Dati non disponibili</text><text fill="#000000" stroke="none" font-family="Arial" font-size="13px" font-style="normal" font-weight="bold" text-decoration="undefined" x="560" y="352" text-anchor="middle" dominant-baseline="central" transform="matrix(1 0 0 1 -146 -260)">per il sensore selezionato</text></g></g><g><path fill="#C0C0C0" stroke="none" paint-order="stroke fill markers" d=" M 281 347.5 C 281 332.8644528 354.42529279999997 321 445 321 C 535.5747072 321 609 332.8644528 609 347.5 C 609 362.1355472 535.5747072 374 445 374 C 354.42529279999997 374 281 362.1355472 281 347.5 Z" fill-opacity="0.2"/></g><g><path fill="#ffffff" stroke="none" paint-order="stroke fill markers" d=" M 274 340.5 C 274 325.8644528 347.42529279999997 314 438 314 C 528.5747072 314 602 325.8644528 602 340.5 C 602 355.1355472 528.5747072 367 438 367 C 347.42529279999997 367 274 355.1355472 274 340.5 Z"/></g><g><path fill="none" stroke="#000000" paint-order="fill stroke markers" d=" M 274 340.5 C 274 325.8644528 347.42529279999997 314 438 314 C 528.5747072 314 602 325.8644528 602 340.5 C 602 355.1355472 528.5747072 367 438 367 C 347.42529279999997 367 274 355.1355472 274 340.5 Z" stroke-miterlimit="10" stroke-dasharray=""/></g><g><g><path fill="none" stroke="none"/><text fill="#000000" stroke="none" font-family="Arial" font-size="13px" font-style="normal" font-weight="bold" text-decoration="undefined" x="584" y="595" text-anchor="middle" dominant-baseline="central" transform="matrix(1 0 0 1 -146 -260)">UC24.1 - Visualizzazione grafico dei</text><text fill="#000000" stroke="none" font-family="Arial" font-size="13px" font-style="normal" font-weight="bold" text-decoration="undefined" x="584" y="608" text-anchor="middle" dominant-baseline="central" transform="matrix(1 0 0 1 -146 -260)">dati real-time del sensore</text></g></g><g><path fill="none" stroke="#000000" paint-order="fill stroke markers" d=" M 416 112 L 420 180" stroke-miterlimit="10" stroke-dasharray="3"/></g><g><path fill="none" stroke="#000000" paint-order="fill stroke markers" d=" M 415.200973484669 170.10205352079782 L 420 180 L 423.6054808831808 169.6076707326501" stroke-miterlimit="10" stroke-dasharray=""/></g><g><rect fill="#ffffff" stroke="none" x="567" y="398" width="53.49169921875" height="13" transform="matrix(1 0 0 1 -146 -260)"/></g><g><g><path fill="none" stroke="none"/><text fill="#000000" stroke="none" font-family="Arial" font-size="13px" font-style="normal" font-weight="normal" text-decoration="undefined" x="593.745849609375" y="404.5" text-anchor="middle" dominant-baseline="central" transform="matrix(1 0 0 1 -146 -260)">«extend»</text></g></g><g><path fill="none" stroke="#000000" paint-order="fill stroke markers" d=" M 571 210 L 737 213" stroke-miterlimit="10" stroke-dasharray="3"/></g><g><path fill="none" stroke="#000000" paint-order="fill stroke markers" d=" M 726.7629211378596 217.0251976808995 L 737 213 L 726.9150475412587 208.6075366928195" stroke-miterlimit="10" stroke-dasharray=""/></g><g><rect fill="#ffffff" stroke="none" x="777" y="449" width="55.65625" height="13" transform="matrix(1 0 0 1 -146 -260)"/></g><g><g><path fill="none" stroke="none"/><text fill="#000000" stroke="none" font-family="Arial" font-size="13px" font-style="normal" font-weight="normal" text-decoration="undefined" x="804.828125" y="455.5" text-anchor="middle" dominant-baseline="central" transform="matrix(1 0 0 1 -146 -260)">«include»</text></g></g><g><path fill="none" stroke="#000000" paint-order="fill stroke markers" d=" M 425 235 L 435 313" stroke-miterlimit="10" stroke-dasharray="3"/></g><g><path fill="none" stroke="#000000" paint-order="fill stroke markers" d=" M 429.53232692378674 303.4551295906307 L 435 313 L 437.88301388251034 302.38452869848663" stroke-miterlimit="10" stroke-dasharray=""/></g><g><rect fill="#ffffff" stroke="none" x="578" y="524" width="55.65625" height="13" transform="matrix(1 0 0 1 -146 -260)"/></g><g><g><path fill="none" stroke="none"/><text fill="#000000" stroke="none" font-family="Arial" font-size="13px" font-style="normal" font-weight="normal" text-decoration="undefined" x="605.828125" y="530.5" text-anchor="middle" dominant-baseline="central" transform="matrix(1 0 0 1 -146 -260)">«include»</text></g></g><g><path fill="none" stroke="#000000" paint-order="fill stroke markers" d=" M 273 201 L 134 196" stroke-miterlimit="10" stroke-dasharray=""/></g><g><path fill="#C0C0C0" stroke="none" paint-order="stroke fill markers" d=" M 745 222.5 C 745 207.86445279999998 787.9806592 196 841 196 C 894.0193408 196 937 207.86445279999998 937 222.5 C 937 237.13554720000002 894.0193408 249 841 249 C 787.9806592 249 745 237.13554720000002 745 222.5 Z" fill-opacity="0.2"/></g><g><path fill="#ffffff" stroke="none" paint-order="stroke fill markers" d=" M 738 215.5 C 738 200.86445279999998 780.9806592 189 834 189 C 887.0193408 189 930 200.86445279999998 930 215.5 C 930 230.13554720000002 887.0193408 242 834 242 C 780.9806592 242 738 230.13554720000002 738 215.5 Z"/></g><g><path fill="none" stroke="#000000" paint-order="fill stroke markers" d=" M 738 215.5 C 738 200.86445279999998 780.9806592 189 834 189 C 887.0193408 189 930 200.86445279999998 930 215.5 C 930 230.13554720000002 887.0193408 242 834 242 C 780.9806592 242 738 230.13554720000002 738 215.5 Z" stroke-miterlimit="10" stroke-dasharray=""/></g><g><g><path fill="none" stroke="none"/><text fill="#000000" stroke="none" font-family="Arial" font-size="13px" font-style="normal" font-weight="bold" text-decoration="undefined" x="980" y="470" text-anchor="middle" dominant-baseline="central" transform="matrix(1 0 0 1 -146 -260)">UC23 - Selezione</text><text fill="#000000" stroke="none" font-family="Arial" font-size="13px" font-style="normal" font-weight="bold" text-decoration="undefined" x="980" y="483" text-anchor="middle" dominant-baseline="central" transform="matrix(1 0 0 1 -146 -260)">sensore</text></g></g></g></svg>