<svg version="1.1" xmlns="http://www.w3.org/2000/svg" xmlns:xlink="http://www.w3.org/1999/xlink" width="845" height="420"><defs/><g><g><rect fill="#C0C0C0" stroke="none" x="588" y="369" width="672" height="400" transform="matrix(1 0 0 1 -419 -352)" fill-opacity="0.2"/></g><g><rect fill="#ffffff" stroke="none" x="581" y="362" width="672" height="400" transform="matrix(1 0 0 1 -419 -352)"/></g><g><path fill="none" stroke="#000000" paint-order="fill stroke markers" d=" M 162 10 L 834 10 L 834 410 L 162 410 L 162 10 Z Z" stroke-miterlimit="10" stroke-dasharray=""/></g><g><g><path fill="none" stroke="none"/><text fill="#000000" stroke="none" font-family="Arial" font-size="13px" font-style="normal" font-weight="bold" text-decoration="undefined" x="917.5" y="375.5" text-anchor="middle" dominant-baseline="central" transform="matrix(1 0 0 1 -419 -352)">Sistema Cloud</text></g></g><g><path fill="#ffffff" stroke="none" paint-order="stroke fill markers" d=" M 62.860439453125025 179.85000000000002 C 62.860439453125025 174.96227952000004 66.81824182112501 171 71.700439453125 171 C 76.58263708512499 171 80.54043945312497 174.96227952000004 80.54043945312497 179.85000000000002 C 80.54043945312497 184.73772048 76.58263708512499 188.70000000000005 71.700439453125 188.70000000000005 C 66.81824182112501 188.70000000000005 62.860439453125025 184.73772048 62.860439453125025 179.85000000000002 Z"/></g><g><path fill="none" stroke="#000000" paint-order="fill stroke markers" d=" M 62.860439453125025 179.85000000000002 C 62.860439453125025 174.96227952000004 66.81824182112501 171 71.700439453125 171 C 76.58263708512499 171 80.54043945312497 174.96227952000004 80.54043945312497 179.85000000000002 C 80.54043945312497 184.73772048 76.58263708512499 188.70000000000005 71.700439453125 188.70000000000005 C 66.81824182112501 188.70000000000005 62.860439453125025 184.73772048 62.860439453125025 179.85000000000002 Z" stroke-miterlimit="10" stroke-dasharray=""/></g><g><path fill="none" stroke="#000000" paint-order="fill stroke markers" d=" M 71.700439453125 188.70000000000005 L 71.700439453125 206.29999999999995" stroke-miterlimit="10" stroke-dasharray=""/></g><g><path fill="none" stroke="#000000" paint-order="fill stroke markers" d=" M 62.340439453124986 195.29999999999995 L 81.06043945312501 195.29999999999995" stroke-miterlimit="10" stroke-dasharray=""/></g><g><path fill="none" stroke="#000000" paint-order="fill stroke markers" d=" M 71.700439453125 206.29999999999995 L 58.700439453125 224" stroke-miterlimit="10" stroke-dasharray=""/></g><g><path fill="none" stroke="#000000" paint-order="fill stroke markers" d=" M 71.700439453125 206.29999999999995 L 84.700439453125 224" stroke-miterlimit="10" stroke-dasharray=""/></g><g><g><path fill="none" stroke="none"/><text fill="#000000" stroke="none" font-family="Arial" font-size="13px" font-style="normal" font-weight="bold" text-decoration="undefined" x="491.200439453125" y="590.5" text-anchor="middle" dominant-baseline="central" transform="matrix(1 0 0 1 -419 -352)">Utente autenticato</text></g></g><g><path fill="#C0C0C0" stroke="none" paint-order="stroke fill markers" d=" M 305 229 C 305 209.11774720000005 364.09840640000004 193 437 193 C 509.90159359999996 193 569 209.11774720000005 569 229 C 569 248.88225279999995 509.90159359999996 265 437 265 C 364.09840640000004 265 305 248.88225279999995 305 229 Z" fill-opacity="0.2"/></g><g><path fill="#ffffff" stroke="none" paint-order="stroke fill markers" d=" M 298 222 C 298 202.11774720000005 357.09840640000004 186 430 186 C 502.90159359999996 186 562 202.11774720000005 562 222 C 562 241.88225279999995 502.90159359999996 258 430 258 C 357.09840640000004 258 298 241.88225279999995 298 222 Z"/></g><g><path fill="none" stroke="#000000" paint-order="fill stroke markers" d=" M 298 222 C 298 202.11774720000005 357.09840640000004 186 430 186 C 502.90159359999996 186 562 202.11774720000005 562 222 C 562 241.88225279999995 502.90159359999996 258 430 258 C 357.09840640000004 258 298 241.88225279999995 298 222 Z" stroke-miterlimit="10" stroke-dasharray=""/></g><g><g><path fill="none" stroke="none"/><text fill="#000000" stroke="none" font-family="Arial" font-size="13px" font-style="normal" font-weight="bold" text-decoration="undefined" x="849" y="562" text-anchor="middle" dominant-baseline="central" transform="matrix(1 0 0 1 -419 -352)">UC24 - Visualizzazione in</text><text fill="#000000" stroke="none" font-family="Arial" font-size="13px" font-style="normal" font-weight="bold" text-decoration="undefined" x="849" y="575" text-anchor="middle" dominant-baseline="central" transform="matrix(1 0 0 1 -419 -352)">tempo reale dei dati del</text><text fill="#000000" stroke="none" font-family="Arial" font-size="13px" font-style="normal" font-weight="bold" text-decoration="undefined" x="849" y="588" text-anchor="middle" dominant-baseline="central" transform="matrix(1 0 0 1 -419 -352)">sensore</text></g></g><g><path fill="#C0C0C0" stroke="none" paint-order="stroke fill markers" d=" M 361 109 C 361 89.1177472 411.14410239999995 73 473 73 C 534.8558976 73 585 89.1177472 585 109 C 585 128.8822528 534.8558976 145 473 145 C 411.14410239999995 145 361 128.8822528 361 109 Z" fill-opacity="0.2"/></g><g><path fill="#ffffff" stroke="none" paint-order="stroke fill markers" d=" M 354 102 C 354 82.1177472 404.14410239999995 66 466 66 C 527.8558976 66 578 82.1177472 578 102 C 578 121.8822528 527.8558976 138 466 138 C 404.14410239999995 138 354 121.8822528 354 102 Z"/></g><g><path fill="none" stroke="#000000" paint-order="fill stroke markers" d=" M 354 102 C 354 82.1177472 404.14410239999995 66 466 66 C 527.8558976 66 578 82.1177472 578 102 C 578 121.8822528 527.8558976 138 466 138 C 404.14410239999995 138 354 121.8822528 354 102 Z" stroke-miterlimit="10" stroke-dasharray=""/></g><g><g><path fill="none" stroke="none"/><text fill="#000000" stroke="none" font-family="Arial" font-size="13px" font-style="normal" font-weight="bold" text-decoration="undefined" x="885" y="442" text-anchor="middle" dominant-baseline="central" transform="matrix(1 0 0 1 -419 -352)">UC30 - Dati non</text><text fill="#000000" stroke="none" font-family="Arial" font-size="13px" font-style="normal" font-weight="bold" text-decoration="undefined" x="885" y="455" text-anchor="middle" dominant-baseline="central" transform="matrix(1 0 0 1 -419 -352)">disponibili per il</text><text fill="#000000" stroke="none" font-family="Arial" font-size="13px" font-style="normal" font-weight="bold" text-decoration="undefined" x="885" y="468" text-anchor="middle" dominant-baseline="central" transform="matrix(1 0 0 1 -419 -352)">sensore selezionato</text></g></g><g><path fill="#C0C0C0" stroke="none" paint-order="stroke fill markers" d=" M 689 229 C 689 209.11774720000005 717.6537728000001 193 753 193 C 788.3462271999999 193 817 209.11774720000005 817 229 C 817 248.88225279999995 788.3462271999999 265 753 265 C 717.6537728000001 265 689 248.88225279999995 689 229 Z" fill-opacity="0.2"/></g><g><path fill="#ffffff" stroke="none" paint-order="stroke fill markers" d=" M 682 222 C 682 202.11774720000005 710.6537728000001 186 746 186 C 781.3462271999999 186 810 202.11774720000005 810 222 C 810 241.88225279999995 781.3462271999999 258 746 258 C 710.6537728000001 258 682 241.88225279999995 682 222 Z"/></g><g><path fill="none" stroke="#000000" paint-order="fill stroke markers" d=" M 682 222 C 682 202.11774720000005 710.6537728000001 186 746 186 C 781.3462271999999 186 810 202.11774720000005 810 222 C 810 241.88225279999995 781.3462271999999 258 746 258 C 710.6537728000001 258 682 241.88225279999995 682 222 Z" stroke-miterlimit="10" stroke-dasharray=""/></g><g><g><path fill="none" stroke="none"/><text fill="#000000" stroke="none" font-family="Arial" font-size="13px" font-style="normal" font-weight="bold" text-decoration="undefined" x="1165" y="562" text-anchor="middle" dominant-baseline="central" transform="matrix(1 0 0 1 -419 -352)">UC23 -</text><text fill="#000000" stroke="none" font-family="Arial" font-size="13px" font-style="normal" font-weight="bold" text-decoration="undefined" x="1165" y="575" text-anchor="middle" dominant-baseline="central" transform="matrix(1 0 0 1 -419 -352)">Selezione</text><text fill="#000000" stroke="none" font-family="Arial" font-size="13px" font-style="normal" font-weight="bold" text-decoration="undefined" x="1165" y="588" text-anchor="middle" dominant-baseline="central" transform="matrix(1 0 0 1 -419 -352)">sensore</text></g></g><g><path fill="#C0C0C0" stroke="none" paint-order="stroke fill markers" d=" M 289 339.5 C 289 324.8644528 357.0527104 313 441 313 C 524.9472896 313 593 324.8644528 593 339.5 C 593 354.1355472 524.9472896 366 441 366 C 357.0527104 366 289 354.1355472 289 339.5 Z" fill-opacity="0.2"/></g><g><path fill="#ffffff" stroke="none" paint-order="stroke fill markers" d=" M 282 332.5 C 282 317.8644528 350.0527104 306 434 306 C 517.9472896 306 586 317.8644528 586 332.5 C 586 347.1355472 517.9472896 359 434 359 C 350.0527104 359 282 347.1355472 282 332.5 Z"/></g><g><path fill="none" stroke="#000000" paint-order="fill stroke markers" d=" M 282 332.5 C 282 317.8644528 350.0527104 306 434 306 C 517.9472896 306 586 317.8644528 586 332.5 C 586 347.1355472 517.9472896 359 434 359 C 350.0527104 359 282 347.1355472 282 332.5 Z" stroke-miterlimit="10" stroke-dasharray=""/></g><g><g><path fill="none" stroke="none"/><text fill="#000000" stroke="none" font-family="Arial" font-size="13px" font-style="normal" font-weight="bold" text-decoration="undefined" x="853" y="679" text-anchor="middle" dominant-baseline="central" transform="matrix(1 0 0 1 -419 -352)">UC24.1 - Visualizzazione grafico</text><text fill="#000000" stroke="none" font-family="Arial" font-size="13px" font-style="normal" font-weight="bold" text-decoration="undefined" x="853" y="692" text-anchor="middle" dominant-baseline="central" transform="matrix(1 0 0 1 -419 -352)">dei dati real-time del sensore</text></g></g><g><path fill="none" stroke="#000000" paint-order="fill stroke markers" d=" M 455 139 L 441 185" stroke-miterlimit="10" stroke-dasharray="3"/></g><g><path fill="none" stroke="#000000" paint-order="fill stroke markers" d=" M 439.931845145838 174.05198441691232 L 441 185 L 447.986116518602 176.50328439992745" stroke-miterlimit="10" stroke-dasharray=""/></g><g><rect fill="#ffffff" stroke="none" x="869" y="516" width="53.49169921875" height="13" transform="matrix(1 0 0 1 -419 -352)"/></g><g><g><path fill="none" stroke="none"/><text fill="#000000" stroke="none" font-family="Arial" font-size="13px" font-style="normal" font-weight="normal" text-decoration="undefined" x="895.745849609375" y="522.5" text-anchor="middle" dominant-baseline="central" transform="matrix(1 0 0 1 -419 -352)">«extend»</text></g></g><g><path fill="none" stroke="#000000" paint-order="fill stroke markers" d=" M 563 222 L 681 222" stroke-miterlimit="10" stroke-dasharray="3"/></g><g><path fill="none" stroke="#000000" paint-order="fill stroke markers" d=" M 670.8373251423759 226.209517756016 L 681 222 L 670.8373251423759 217.790482243984" stroke-miterlimit="10" stroke-dasharray=""/></g><g><rect fill="#ffffff" stroke="none" x="1017" y="551" width="55.65625" height="13" transform="matrix(1 0 0 1 -419 -352)"/></g><g><g><path fill="none" stroke="none"/><text fill="#000000" stroke="none" font-family="Arial" font-size="13px" font-style="normal" font-weight="normal" text-decoration="undefined" x="1044.828125" y="557.5" text-anchor="middle" dominant-baseline="central" transform="matrix(1 0 0 1 -419 -352)">«include»</text></g></g><g><path fill="none" stroke="#000000" paint-order="fill stroke markers" d=" M 431 259 L 433 305" stroke-miterlimit="10" stroke-dasharray="3"/></g><g><path fill="none" stroke="#000000" paint-order="fill stroke markers" d=" M 428.3530169751094 295.0297668649936 L 433 305 L 436.76410625081496 294.66406733126735" stroke-miterlimit="10" stroke-dasharray=""/></g><g><rect fill="#ffffff" stroke="none" x="853" y="626" width="55.65625" height="13" transform="matrix(1 0 0 1 -419 -352)"/></g><g><g><path fill="none" stroke="none"/><text fill="#000000" stroke="none" font-family="Arial" font-size="13px" font-style="normal" font-weight="normal" text-decoration="undefined" x="880.828125" y="632.5" text-anchor="middle" dominant-baseline="central" transform="matrix(1 0 0 1 -419 -352)">«include»</text></g></g><g><path fill="none" stroke="#000000" paint-order="fill stroke markers" d=" M 297 218 L 134 212" stroke-miterlimit="10" stroke-dasharray=""/></g><g><path fill="#ffffff" stroke="none" paint-order="stroke fill markers" d=" M 178 82 L 287 82 L 297 92 L 297 186 L 178 186 L 178 82"/></g><g><path fill="none" stroke="#000000" paint-order="fill stroke markers" d=" M 178 82 L 287 82 L 297 92 L 297 186 L 178 186 L 178 82 L 178 82" stroke-miterlimit="10" stroke-dasharray=""/></g><g><path fill="none" stroke="#000000" paint-order="fill stroke markers" d=" M 287 82 L 287 92 L 297 92 L 287 82" stroke-miterlimit="10" stroke-dasharray=""/></g><g><g><path fill="none" stroke="none"/><text fill="#000000" stroke="none" font-family="Arial" font-size="13px" font-style="normal" font-weight="normal" text-decoration="undefined" x="657" y="439" text-anchor="middle" dominant-baseline="text-before-edge" transform="matrix(1 0 0 1 -419 -352)">Condizione:</text></g></g><g><g><path fill="none" stroke="none"/><text fill="#000000" stroke="none" font-family="Arial" font-size="13px" font-style="normal" font-weight="normal" text-decoration="undefined" x="657" y="454" text-anchor="middle" dominant-baseline="text-before-edge" transform="matrix(1 0 0 1 -419 -352)">L'utente ha</text><text fill="#000000" stroke="none" font-family="Arial" font-size="13px" font-style="normal" font-weight="normal" text-decoration="undefined" x="657" y="467" text-anchor="middle" dominant-baseline="text-before-edge" transform="matrix(1 0 0 1 -419 -352)">selezionato un</text><text fill="#000000" stroke="none" font-family="Arial" font-size="13px" font-style="normal" font-weight="normal" text-decoration="undefined" x="657" y="480" text-anchor="middle" dominant-baseline="text-before-edge" transform="matrix(1 0 0 1 -419 -352)">sensore per cui</text><text fill="#000000" stroke="none" font-family="Arial" font-size="13px" font-style="normal" font-weight="normal" text-decoration="undefined" x="657" y="493" text-anchor="middle" dominant-baseline="text-before-edge" transform="matrix(1 0 0 1 -419 -352)">non sono</text><text fill="#000000" stroke="none" font-family="Arial" font-size="13px" font-style="normal" font-weight="normal" text-decoration="undefined" x="657" y="506" text-anchor="middle" dominant-baseline="text-before-edge" transform="matrix(1 0 0 1 -419 -352)">disponibili dati in</text><text fill="#000000" stroke="none" font-family="Arial" font-size="13px" font-style="normal" font-weight="normal" text-decoration="undefined" x="657" y="519" text-anchor="middle" dominant-baseline="text-before-edge" transform="matrix(1 0 0 1 -419 -352)">tempo reale</text></g></g><g><path fill="none" stroke="#000000" paint-order="fill stroke markers" d=" M 299 142 L 448 162" stroke-miterlimit="10" stroke-dasharray="3"/></g></g></svg>