<svg version="1.1" xmlns="http://www.w3.org/2000/svg" xmlns:xlink="http://www.w3.org/1999/xlink" width="900" height="297"><defs/><g><g><path fill="#ffffff" stroke="none" paint-order="stroke fill markers" d=" M 62.860439453125025 107.85000000000002 C 62.860439453125025 102.96227952000004 66.81824182112501 99 71.700439453125 99 C 76.58263708512499 99 80.54043945312497 102.96227952000004 80.54043945312497 107.85000000000002 C 80.54043945312497 112.73772048000001 76.58263708512499 116.70000000000005 71.700439453125 116.70000000000005 C 66.81824182112501 116.70000000000005 62.860439453125025 112.73772048000001 62.860439453125025 107.85000000000002 Z"/></g><g><path fill="none" stroke="#000000" paint-order="fill stroke markers" d=" M 62.860439453125025 107.85000000000002 C 62.860439453125025 102.96227952000004 66.81824182112501 99 71.700439453125 99 C 76.58263708512499 99 80.54043945312497 102.96227952000004 80.54043945312497 107.85000000000002 C 80.54043945312497 112.73772048000001 76.58263708512499 116.70000000000005 71.700439453125 116.70000000000005 C 66.81824182112501 116.70000000000005 62.860439453125025 112.73772048000001 62.860439453125025 107.85000000000002 Z" stroke-miterlimit="10" stroke-dasharray=""/></g><g><path fill="none" stroke="#000000" paint-order="fill stroke markers" d=" M 71.700439453125 116.70000000000005 L 71.700439453125 134.29999999999995" stroke-miterlimit="10" stroke-dasharray=""/></g><g><path fill="none" stroke="#000000" paint-order="fill stroke markers" d=" M 62.340439453124986 123.29999999999995 L 81.06043945312501 123.29999999999995" stroke-miterlimit="10" stroke-dasharray=""/></g><g><path fill="none" stroke="#000000" paint-order="fill stroke markers" d=" M 71.700439453125 134.29999999999995 L 58.700439453125 152" stroke-miterlimit="10" stroke-dasharray=""/></g><g><path fill="none" stroke="#000000" paint-order="fill stroke markers" d=" M 71.700439453125 134.29999999999995 L 84.700439453125 152" stroke-miterlimit="10" stroke-dasharray=""/></g><g><g><path fill="none" stroke="none"/><text fill="#000000" stroke="none" font-family="Arial" font-size="13px" font-style="normal" font-weight="bold" text-decoration="undefined" x="271.200439453125" y="625.5" text-anchor="middle" dominant-baseline="central" transform="matrix(1 0 0 1 -199 -459)">Utente autenticato</text></g></g><g><path fill="#C0C0C0" stroke="none" paint-order="stroke fill markers" d=" M 305 157 C 305 137.11774720000005 376.63443200000006 121 465 121 C 553.3655679999999 121 625 137.11774720000005 625 157 C 625 176.88225279999995 553.3655679999999 193 465 193 C 376.63443200000006 193 305 176.88225279999995 305 157 Z" fill-opacity="0.2"/></g><g><path fill="#ffffff" stroke="none" paint-order="stroke fill markers" d=" M 298 150 C 298 130.11774720000005 369.63443200000006 114 458 114 C 546.3655679999999 114 618 130.11774720000005 618 150 C 618 169.88225279999995 546.3655679999999 186 458 186 C 369.63443200000006 186 298 169.88225279999995 298 150 Z"/></g><g><path fill="none" stroke="#000000" paint-order="fill stroke markers" d=" M 298 150 C 298 130.11774720000005 369.63443200000006 114 458 114 C 546.3655679999999 114 618 130.11774720000005 618 150 C 618 169.88225279999995 546.3655679999999 186 458 186 C 369.63443200000006 186 298 169.88225279999995 298 150 Z" stroke-miterlimit="10" stroke-dasharray=""/></g><g><g><path fill="none" stroke="none"/><text fill="#000000" stroke="none" font-family="Arial" font-size="13px" font-style="normal" font-weight="bold" text-decoration="undefined" x="657" y="603.5" text-anchor="middle" dominant-baseline="central" transform="matrix(1 0 0 1 -199 -459)">UC24 - Visualizzazione in tempo</text><text fill="#000000" stroke="none" font-family="Arial" font-size="13px" font-style="normal" font-weight="bold" text-decoration="undefined" x="657" y="616.5" text-anchor="middle" dominant-baseline="central" transform="matrix(1 0 0 1 -199 -459)">reale dei dati del sensore</text></g></g><g><path fill="#C0C0C0" stroke="none" paint-order="stroke fill markers" d=" M 321 43.5 C 321 28.86445279999998 385.4709888 17 465 17 C 544.5290112 17 609 28.86445279999998 609 43.5 C 609 58.13554720000002 544.5290112 70 465 70 C 385.4709888 70 321 58.13554720000002 321 43.5 Z" fill-opacity="0.2"/></g><g><path fill="#ffffff" stroke="none" paint-order="stroke fill markers" d=" M 314 36.5 C 314 21.86445279999998 378.4709888 10 458 10 C 537.5290112 10 602 21.86445279999998 602 36.5 C 602 51.13554720000002 537.5290112 63 458 63 C 378.4709888 63 314 51.13554720000002 314 36.5 Z"/></g><g><path fill="none" stroke="#000000" paint-order="fill stroke markers" d=" M 314 36.5 C 314 21.86445279999998 378.4709888 10 458 10 C 537.5290112 10 602 21.86445279999998 602 36.5 C 602 51.13554720000002 537.5290112 63 458 63 C 378.4709888 63 314 51.13554720000002 314 36.5 Z" stroke-miterlimit="10" stroke-dasharray=""/></g><g><g><path fill="none" stroke="none"/><text fill="#000000" stroke="none" font-family="Arial" font-size="13px" font-style="normal" font-weight="bold" text-decoration="undefined" x="657" y="490" text-anchor="middle" dominant-baseline="central" transform="matrix(1 0 0 1 -199 -459)">UC30 - Dati non disponibili per</text><text fill="#000000" stroke="none" font-family="Arial" font-size="13px" font-style="normal" font-weight="bold" text-decoration="undefined" x="657" y="503" text-anchor="middle" dominant-baseline="central" transform="matrix(1 0 0 1 -199 -459)">il sensore selezionato</text></g></g><g><path fill="#C0C0C0" stroke="none" paint-order="stroke fill markers" d=" M 769 165 C 769 145.11774720000005 797.6537728 129 833 129 C 868.3462271999999 129 897 145.11774720000005 897 165 C 897 184.88225279999995 868.3462271999999 201 833 201 C 797.6537728 201 769 184.88225279999995 769 165 Z" fill-opacity="0.2"/></g><g><path fill="#ffffff" stroke="none" paint-order="stroke fill markers" d=" M 762 158 C 762 138.11774720000005 790.6537728 122 826 122 C 861.3462271999999 122 890 138.11774720000005 890 158 C 890 177.88225279999995 861.3462271999999 194 826 194 C 790.6537728 194 762 177.88225279999995 762 158 Z"/></g><g><path fill="none" stroke="#000000" paint-order="fill stroke markers" d=" M 762 158 C 762 138.11774720000005 790.6537728 122 826 122 C 861.3462271999999 122 890 138.11774720000005 890 158 C 890 177.88225279999995 861.3462271999999 194 826 194 C 790.6537728 194 762 177.88225279999995 762 158 Z" stroke-miterlimit="10" stroke-dasharray=""/></g><g><g><path fill="none" stroke="none"/><text fill="#000000" stroke="none" font-family="Arial" font-size="13px" font-style="normal" font-weight="bold" text-decoration="undefined" x="1025" y="605" text-anchor="middle" dominant-baseline="central" transform="matrix(1 0 0 1 -199 -459)">UC23 -</text><text fill="#000000" stroke="none" font-family="Arial" font-size="13px" font-style="normal" font-weight="bold" text-decoration="undefined" x="1025" y="618" text-anchor="middle" dominant-baseline="central" transform="matrix(1 0 0 1 -199 -459)">Selezione</text><text fill="#000000" stroke="none" font-family="Arial" font-size="13px" font-style="normal" font-weight="bold" text-decoration="undefined" x="1025" y="631" text-anchor="middle" dominant-baseline="central" transform="matrix(1 0 0 1 -199 -459)">sensore</text></g></g><g><path fill="#C0C0C0" stroke="none" paint-order="stroke fill markers" d=" M 289 267.5 C 289 252.86445279999998 371.37959679999994 241 473 241 C 574.6204032 241 657 252.86445279999998 657 267.5 C 657 282.1355472 574.6204032 294 473 294 C 371.37959679999994 294 289 282.1355472 289 267.5 Z" fill-opacity="0.2"/></g><g><path fill="#ffffff" stroke="none" paint-order="stroke fill markers" d=" M 282 260.5 C 282 245.86445279999998 364.37959679999994 234 466 234 C 567.6204032 234 650 245.86445279999998 650 260.5 C 650 275.1355472 567.6204032 287 466 287 C 364.37959679999994 287 282 275.1355472 282 260.5 Z"/></g><g><path fill="none" stroke="#000000" paint-order="fill stroke markers" d=" M 282 260.5 C 282 245.86445279999998 364.37959679999994 234 466 234 C 567.6204032 234 650 245.86445279999998 650 260.5 C 650 275.1355472 567.6204032 287 466 287 C 364.37959679999994 287 282 275.1355472 282 260.5 Z" stroke-miterlimit="10" stroke-dasharray=""/></g><g><g><path fill="none" stroke="none"/><text fill="#000000" stroke="none" font-family="Arial" font-size="13px" font-style="normal" font-weight="bold" text-decoration="undefined" x="665" y="714" text-anchor="middle" dominant-baseline="central" transform="matrix(1 0 0 1 -199 -459)">UC24.1 - Visualizzazione grafico dei dati</text><text fill="#000000" stroke="none" font-family="Arial" font-size="13px" font-style="normal" font-weight="bold" text-decoration="undefined" x="665" y="727" text-anchor="middle" dominant-baseline="central" transform="matrix(1 0 0 1 -199 -459)">real-time del sensore</text></g></g><g><path fill="none" stroke="#000000" paint-order="fill stroke markers" d=" M 458 64 L 458 113" stroke-miterlimit="10" stroke-dasharray="3"/></g><g><path fill="none" stroke="#000000" paint-order="fill stroke markers" d=" M 453.790482243984 102.8373251423759 L 458 113 L 462.209517756016 102.8373251423759" stroke-miterlimit="10" stroke-dasharray=""/></g><g><rect fill="#ffffff" stroke="none" x="660" y="540" width="53.49169921875" height="13" transform="matrix(1 0 0 1 -199 -459)"/></g><g><g><path fill="none" stroke="none"/><text fill="#000000" stroke="none" font-family="Arial" font-size="13px" font-style="normal" font-weight="normal" text-decoration="undefined" x="686.745849609375" y="546.5" text-anchor="middle" dominant-baseline="central" transform="matrix(1 0 0 1 -199 -459)">«extend»</text></g></g><g><path fill="none" stroke="#000000" paint-order="fill stroke markers" d=" M 619 154 L 761 157" stroke-miterlimit="10" stroke-dasharray="3"/></g><g><path fill="none" stroke="#000000" paint-order="fill stroke markers" d=" M 750.7506787545645 160.99392213342537 L 761 157 L 750.9285060207171 152.5767648688693" stroke-miterlimit="10" stroke-dasharray=""/></g><g><rect fill="#ffffff" stroke="none" x="866" y="592" width="55.65625" height="13" transform="matrix(1 0 0 1 -199 -459)"/></g><g><g><path fill="none" stroke="none"/><text fill="#000000" stroke="none" font-family="Arial" font-size="13px" font-style="normal" font-weight="normal" text-decoration="undefined" x="893.828125" y="598.5" text-anchor="middle" dominant-baseline="central" transform="matrix(1 0 0 1 -199 -459)">«include»</text></g></g><g><path fill="none" stroke="#000000" paint-order="fill stroke markers" d=" M 461 187 L 464 233" stroke-miterlimit="10" stroke-dasharray="3"/></g><g><path fill="none" stroke="#000000" paint-order="fill stroke markers" d=" M 459.1380278627038 223.13282072038032 L 464 233 L 467.5392159115803 222.58491715197533" stroke-miterlimit="10" stroke-dasharray=""/></g><g><rect fill="#ffffff" stroke="none" x="663" y="660" width="55.65625" height="13" transform="matrix(1 0 0 1 -199 -459)"/></g><g><g><path fill="none" stroke="none"/><text fill="#000000" stroke="none" font-family="Arial" font-size="13px" font-style="normal" font-weight="normal" text-decoration="undefined" x="690.828125" y="666.5" text-anchor="middle" dominant-baseline="central" transform="matrix(1 0 0 1 -199 -459)">«include»</text></g></g><g><path fill="none" stroke="#000000" paint-order="fill stroke markers" d=" M 297 145 L 134 140" stroke-miterlimit="10" stroke-dasharray=""/></g><g><path fill="#ffffff" stroke="none" paint-order="stroke fill markers" d=" M 178 10 L 287 10 L 297 20 L 297 114 L 178 114 L 178 10"/></g><g><path fill="none" stroke="#000000" paint-order="fill stroke markers" d=" M 178 10 L 287 10 L 297 20 L 297 114 L 178 114 L 178 10 L 178 10" stroke-miterlimit="10" stroke-dasharray=""/></g><g><path fill="none" stroke="#000000" paint-order="fill stroke markers" d=" M 287 10 L 287 20 L 297 20 L 287 10" stroke-miterlimit="10" stroke-dasharray=""/></g><g><g><path fill="none" stroke="none"/><text fill="#000000" stroke="none" font-family="Arial" font-size="13px" font-style="normal" font-weight="normal" text-decoration="undefined" x="437" y="474" text-anchor="middle" dominant-baseline="text-before-edge" transform="matrix(1 0 0 1 -199 -459)">Condizione:</text></g></g><g><g><path fill="none" stroke="none"/><text fill="#000000" stroke="none" font-family="Arial" font-size="13px" font-style="normal" font-weight="normal" text-decoration="undefined" x="437" y="489" text-anchor="middle" dominant-baseline="text-before-edge" transform="matrix(1 0 0 1 -199 -459)">L'utente ha</text><text fill="#000000" stroke="none" font-family="Arial" font-size="13px" font-style="normal" font-weight="normal" text-decoration="undefined" x="437" y="502" text-anchor="middle" dominant-baseline="text-before-edge" transform="matrix(1 0 0 1 -199 -459)">selezionato un</text><text fill="#000000" stroke="none" font-family="Arial" font-size="13px" font-style="normal" font-weight="normal" text-decoration="undefined" x="437" y="515" text-anchor="middle" dominant-baseline="text-before-edge" transform="matrix(1 0 0 1 -199 -459)">sensore per cui</text><text fill="#000000" stroke="none" font-family="Arial" font-size="13px" font-style="normal" font-weight="normal" text-decoration="undefined" x="437" y="528" text-anchor="middle" dominant-baseline="text-before-edge" transform="matrix(1 0 0 1 -199 -459)">non sono</text><text fill="#000000" stroke="none" font-family="Arial" font-size="13px" font-style="normal" font-weight="normal" text-decoration="undefined" x="437" y="541" text-anchor="middle" dominant-baseline="text-before-edge" transform="matrix(1 0 0 1 -199 -459)">disponibili dati in</text><text fill="#000000" stroke="none" font-family="Arial" font-size="13px" font-style="normal" font-weight="normal" text-decoration="undefined" x="437" y="554" text-anchor="middle" dominant-baseline="text-before-edge" transform="matrix(1 0 0 1 -199 -459)">tempo reale</text></g></g><g><path fill="none" stroke="#000000" paint-order="fill stroke markers" d=" M 299 69 L 458 88" stroke-miterlimit="10" stroke-dasharray="3"/></g></g></svg>