<svg version="1.1" xmlns="http://www.w3.org/2000/svg" xmlns:xlink="http://www.w3.org/1999/xlink" width="965" height="388"><defs/><g><g><rect fill="#C0C0C0" stroke="none" x="576" y="385" width="744" height="368" transform="matrix(1 0 0 1 -359 -368)" fill-opacity="0.2"/></g><g><rect fill="#ffffff" stroke="none" x="569" y="378" width="744" height="368" transform="matrix(1 0 0 1 -359 -368)"/></g><g><path fill="none" stroke="#000000" paint-order="fill stroke markers" d=" M 210 10 L 954 10 L 954 378 L 210 378 L 210 10 Z Z" stroke-miterlimit="10" stroke-dasharray=""/></g><g><g><path fill="none" stroke="none"/><text fill="#000000" stroke="none" font-family="Arial" font-size="13px" font-style="normal" font-weight="bold" text-decoration="undefined" x="941.5" y="391.5" text-anchor="middle" dominant-baseline="central" transform="matrix(1 0 0 1 -359 -368)">Sistema Cloud</text></g></g><g><path fill="#ffffff" stroke="none" paint-order="stroke fill markers" d=" M 62.860439453125025 171.85000000000002 C 62.860439453125025 166.96227952000004 66.81824182112501 163 71.700439453125 163 C 76.58263708512499 163 80.54043945312497 166.96227952000004 80.54043945312497 171.85000000000002 C 80.54043945312497 176.73772048 76.58263708512499 180.70000000000005 71.700439453125 180.70000000000005 C 66.81824182112501 180.70000000000005 62.860439453125025 176.73772048 62.860439453125025 171.85000000000002 Z"/></g><g><path fill="none" stroke="#000000" paint-order="fill stroke markers" d=" M 62.860439453125025 171.85000000000002 C 62.860439453125025 166.96227952000004 66.81824182112501 163 71.700439453125 163 C 76.58263708512499 163 80.54043945312497 166.96227952000004 80.54043945312497 171.85000000000002 C 80.54043945312497 176.73772048 76.58263708512499 180.70000000000005 71.700439453125 180.70000000000005 C 66.81824182112501 180.70000000000005 62.860439453125025 176.73772048 62.860439453125025 171.85000000000002 Z" stroke-miterlimit="10" stroke-dasharray=""/></g><g><path fill="none" stroke="#000000" paint-order="fill stroke markers" d=" M 71.700439453125 180.70000000000005 L 71.700439453125 198.29999999999995" stroke-miterlimit="10" stroke-dasharray=""/></g><g><path fill="none" stroke="#000000" paint-order="fill stroke markers" d=" M 62.340439453124986 187.29999999999995 L 81.06043945312501 187.29999999999995" stroke-miterlimit="10" stroke-dasharray=""/></g><g><path fill="none" stroke="#000000" paint-order="fill stroke markers" d=" M 71.700439453125 198.29999999999995 L 58.700439453125 216" stroke-miterlimit="10" stroke-dasharray=""/></g><g><path fill="none" stroke="#000000" paint-order="fill stroke markers" d=" M 71.700439453125 198.29999999999995 L 84.700439453125 216" stroke-miterlimit="10" stroke-dasharray=""/></g><g><g><path fill="none" stroke="none"/><text fill="#000000" stroke="none" font-family="Arial" font-size="13px" font-style="normal" font-weight="bold" text-decoration="undefined" x="431.200439453125" y="598.5" text-anchor="middle" dominant-baseline="central" transform="matrix(1 0 0 1 -359 -368)">Utente autenticato</text></g></g><g><path fill="#C0C0C0" stroke="none" paint-order="stroke fill markers" d=" M 377 219.5 C 377 204.86445279999998 443.2618496 193 525 193 C 606.7381504 193 673 204.86445279999998 673 219.5 C 673 234.13554720000002 606.7381504 246 525 246 C 443.2618496 246 377 234.13554720000002 377 219.5 Z" fill-opacity="0.2"/></g><g><path fill="#ffffff" stroke="none" paint-order="stroke fill markers" d=" M 370 212.5 C 370 197.86445279999998 436.2618496 186 518 186 C 599.7381504 186 666 197.86445279999998 666 212.5 C 666 227.13554720000002 599.7381504 239 518 239 C 436.2618496 239 370 227.13554720000002 370 212.5 Z"/></g><g><path fill="none" stroke="#000000" paint-order="fill stroke markers" d=" M 370 212.5 C 370 197.86445279999998 436.2618496 186 518 186 C 599.7381504 186 666 197.86445279999998 666 212.5 C 666 227.13554720000002 599.7381504 239 518 239 C 436.2618496 239 370 227.13554720000002 370 212.5 Z" stroke-miterlimit="10" stroke-dasharray=""/></g><g><g><path fill="none" stroke="none"/><text fill="#000000" stroke="none" font-family="Arial" font-size="13px" font-style="normal" font-weight="bold" text-decoration="undefined" x="877" y="575" text-anchor="middle" dominant-baseline="central" transform="matrix(1 0 0 1 -359 -368)">UC25 - Visualizzazione dello</text><text fill="#000000" stroke="none" font-family="Arial" font-size="13px" font-style="normal" font-weight="bold" text-decoration="undefined" x="877" y="588" text-anchor="middle" dominant-baseline="central" transform="matrix(1 0 0 1 -359 -368)">storico dei dati del sensore</text></g></g><g><path fill="#C0C0C0" stroke="none" paint-order="stroke fill markers" d=" M 377 99.5 C 377 84.86445279999998 441.4709888 73 521 73 C 600.5290112 73 665 84.86445279999998 665 99.5 C 665 114.13554720000002 600.5290112 126 521 126 C 441.4709888 126 377 114.13554720000002 377 99.5 Z" fill-opacity="0.2"/></g><g><path fill="#ffffff" stroke="none" paint-order="stroke fill markers" d=" M 370 92.5 C 370 77.86445279999998 434.4709888 66 514 66 C 593.5290112 66 658 77.86445279999998 658 92.5 C 658 107.13554720000002 593.5290112 119 514 119 C 434.4709888 119 370 107.13554720000002 370 92.5 Z"/></g><g><path fill="none" stroke="#000000" paint-order="fill stroke markers" d=" M 370 92.5 C 370 77.86445279999998 434.4709888 66 514 66 C 593.5290112 66 658 77.86445279999998 658 92.5 C 658 107.13554720000002 593.5290112 119 514 119 C 434.4709888 119 370 107.13554720000002 370 92.5 Z" stroke-miterlimit="10" stroke-dasharray=""/></g><g><g><path fill="none" stroke="none"/><text fill="#000000" stroke="none" font-family="Arial" font-size="13px" font-style="normal" font-weight="bold" text-decoration="undefined" x="873" y="455" text-anchor="middle" dominant-baseline="central" transform="matrix(1 0 0 1 -359 -368)">UC30 - Dati non disponibili per</text><text fill="#000000" stroke="none" font-family="Arial" font-size="13px" font-style="normal" font-weight="bold" text-decoration="undefined" x="873" y="468" text-anchor="middle" dominant-baseline="central" transform="matrix(1 0 0 1 -359 -368)">il sensore selezionato</text></g></g><g><path fill="#C0C0C0" stroke="none" paint-order="stroke fill markers" d=" M 753 219.5 C 753 204.86445279999998 795.9806592 193 849 193 C 902.0193408 193 945 204.86445279999998 945 219.5 C 945 234.13554720000002 902.0193408 246 849 246 C 795.9806592 246 753 234.13554720000002 753 219.5 Z" fill-opacity="0.2"/></g><g><path fill="#ffffff" stroke="none" paint-order="stroke fill markers" d=" M 746 212.5 C 746 197.86445279999998 788.9806592 186 842 186 C 895.0193408 186 938 197.86445279999998 938 212.5 C 938 227.13554720000002 895.0193408 239 842 239 C 788.9806592 239 746 227.13554720000002 746 212.5 Z"/></g><g><path fill="none" stroke="#000000" paint-order="fill stroke markers" d=" M 746 212.5 C 746 197.86445279999998 788.9806592 186 842 186 C 895.0193408 186 938 197.86445279999998 938 212.5 C 938 227.13554720000002 895.0193408 239 842 239 C 788.9806592 239 746 227.13554720000002 746 212.5 Z" stroke-miterlimit="10" stroke-dasharray=""/></g><g><g><path fill="none" stroke="none"/><text fill="#000000" stroke="none" font-family="Arial" font-size="13px" font-style="normal" font-weight="bold" text-decoration="undefined" x="1201" y="575" text-anchor="middle" dominant-baseline="central" transform="matrix(1 0 0 1 -359 -368)">UC23 - Selezione</text><text fill="#000000" stroke="none" font-family="Arial" font-size="13px" font-style="normal" font-weight="bold" text-decoration="undefined" x="1201" y="588" text-anchor="middle" dominant-baseline="central" transform="matrix(1 0 0 1 -359 -368)">sensore</text></g></g><g><path fill="#C0C0C0" stroke="none" paint-order="stroke fill markers" d=" M 393 325 C 393 305.11774720000005 453.88926719999995 289 529 289 C 604.1107328 289 665 305.11774720000005 665 325 C 665 344.88225279999995 604.1107328 361 529 361 C 453.88926719999995 361 393 344.88225279999995 393 325 Z" fill-opacity="0.2"/></g><g><path fill="#ffffff" stroke="none" paint-order="stroke fill markers" d=" M 386 318 C 386 298.11774720000005 446.88926719999995 282 522 282 C 597.1107328 282 658 298.11774720000005 658 318 C 658 337.88225279999995 597.1107328 354 522 354 C 446.88926719999995 354 386 337.88225279999995 386 318 Z"/></g><g><path fill="none" stroke="#000000" paint-order="fill stroke markers" d=" M 386 318 C 386 298.11774720000005 446.88926719999995 282 522 282 C 597.1107328 282 658 298.11774720000005 658 318 C 658 337.88225279999995 597.1107328 354 522 354 C 446.88926719999995 354 386 337.88225279999995 386 318 Z" stroke-miterlimit="10" stroke-dasharray=""/></g><g><g><path fill="none" stroke="none"/><text fill="#000000" stroke="none" font-family="Arial" font-size="13px" font-style="normal" font-weight="bold" text-decoration="undefined" x="881" y="674" text-anchor="middle" dominant-baseline="central" transform="matrix(1 0 0 1 -359 -368)">UC25.1 - Visualizzazione</text><text fill="#000000" stroke="none" font-family="Arial" font-size="13px" font-style="normal" font-weight="bold" text-decoration="undefined" x="881" y="687" text-anchor="middle" dominant-baseline="central" transform="matrix(1 0 0 1 -359 -368)">grafico storico dei dati del</text><text fill="#000000" stroke="none" font-family="Arial" font-size="13px" font-style="normal" font-weight="bold" text-decoration="undefined" x="881" y="700" text-anchor="middle" dominant-baseline="central" transform="matrix(1 0 0 1 -359 -368)">sensore</text></g></g><g><path fill="none" stroke="#000000" paint-order="fill stroke markers" d=" M 515 120 L 517 185" stroke-miterlimit="10" stroke-dasharray="3"/></g><g><path fill="none" stroke="#000000" paint-order="fill stroke markers" d=" M 512.4799237309375 174.97159481662925 L 517 185 L 520.8949767283133 174.71267010901772" stroke-miterlimit="10" stroke-dasharray=""/></g><g><rect fill="#ffffff" stroke="none" x="878" y="513" width="53.49169921875" height="13" transform="matrix(1 0 0 1 -359 -368)"/></g><g><g><path fill="none" stroke="none"/><text fill="#000000" stroke="none" font-family="Arial" font-size="13px" font-style="normal" font-weight="normal" text-decoration="undefined" x="904.745849609375" y="519.5" text-anchor="middle" dominant-baseline="central" transform="matrix(1 0 0 1 -359 -368)">«extend»</text></g></g><g><path fill="none" stroke="#000000" paint-order="fill stroke markers" d=" M 667 212 L 745 212" stroke-miterlimit="10" stroke-dasharray="3"/></g><g><path fill="none" stroke="#000000" paint-order="fill stroke markers" d=" M 734.8373251423759 216.209517756016 L 745 212 L 734.8373251423759 207.790482243984" stroke-miterlimit="10" stroke-dasharray=""/></g><g><rect fill="#ffffff" stroke="none" x="1057" y="552" width="55.65625" height="13" transform="matrix(1 0 0 1 -359 -368)"/></g><g><g><path fill="none" stroke="none"/><text fill="#000000" stroke="none" font-family="Arial" font-size="13px" font-style="normal" font-weight="normal" text-decoration="undefined" x="1084.828125" y="558.5" text-anchor="middle" dominant-baseline="central" transform="matrix(1 0 0 1 -359 -368)">«include»</text></g></g><g><path fill="none" stroke="#000000" paint-order="fill stroke markers" d=" M 519 240 L 521 281" stroke-miterlimit="10" stroke-dasharray="3"/></g><g><path fill="none" stroke="#000000" paint-order="fill stroke markers" d=" M 516.3003302013892 271.05449328671364 L 521 281 L 524.7093668553658 270.64429637676346" stroke-miterlimit="10" stroke-dasharray=""/></g><g><rect fill="#ffffff" stroke="none" x="881" y="620" width="55.65625" height="13" transform="matrix(1 0 0 1 -359 -368)"/></g><g><g><path fill="none" stroke="none"/><text fill="#000000" stroke="none" font-family="Arial" font-size="13px" font-style="normal" font-weight="normal" text-decoration="undefined" x="908.828125" y="626.5" text-anchor="middle" dominant-baseline="central" transform="matrix(1 0 0 1 -359 -368)">«include»</text></g></g><g><path fill="none" stroke="#000000" paint-order="fill stroke markers" d=" M 369 209 L 134 203" stroke-miterlimit="10" stroke-dasharray=""/></g><g><path fill="#ffffff" stroke="none" paint-order="stroke fill markers" d=" M 234 74 L 343 74 L 353 84 L 353 178 L 234 178 L 234 74"/></g><g><path fill="none" stroke="#000000" paint-order="fill stroke markers" d=" M 234 74 L 343 74 L 353 84 L 353 178 L 234 178 L 234 74 L 234 74" stroke-miterlimit="10" stroke-dasharray=""/></g><g><path fill="none" stroke="#000000" paint-order="fill stroke markers" d=" M 343 74 L 343 84 L 353 84 L 343 74" stroke-miterlimit="10" stroke-dasharray=""/></g><g><g><path fill="none" stroke="none"/><text fill="#000000" stroke="none" font-family="Arial" font-size="13px" font-style="normal" font-weight="normal" text-decoration="undefined" x="653" y="447" text-anchor="middle" dominant-baseline="text-before-edge" transform="matrix(1 0 0 1 -359 -368)">Condizione:</text></g></g><g><g><path fill="none" stroke="none"/><text fill="#000000" stroke="none" font-family="Arial" font-size="13px" font-style="normal" font-weight="normal" text-decoration="undefined" x="653" y="462" text-anchor="middle" dominant-baseline="text-before-edge" transform="matrix(1 0 0 1 -359 -368)">L'utente ha</text><text fill="#000000" stroke="none" font-family="Arial" font-size="13px" font-style="normal" font-weight="normal" text-decoration="undefined" x="653" y="475" text-anchor="middle" dominant-baseline="text-before-edge" transform="matrix(1 0 0 1 -359 -368)">selezionato un</text><text fill="#000000" stroke="none" font-family="Arial" font-size="13px" font-style="normal" font-weight="normal" text-decoration="undefined" x="653" y="488" text-anchor="middle" dominant-baseline="text-before-edge" transform="matrix(1 0 0 1 -359 -368)">sensore per cui</text><text fill="#000000" stroke="none" font-family="Arial" font-size="13px" font-style="normal" font-weight="normal" text-decoration="undefined" x="653" y="501" text-anchor="middle" dominant-baseline="text-before-edge" transform="matrix(1 0 0 1 -359 -368)">non sono</text><text fill="#000000" stroke="none" font-family="Arial" font-size="13px" font-style="normal" font-weight="normal" text-decoration="undefined" x="653" y="514" text-anchor="middle" dominant-baseline="text-before-edge" transform="matrix(1 0 0 1 -359 -368)">disponibili dati</text><text fill="#000000" stroke="none" font-family="Arial" font-size="13px" font-style="normal" font-weight="normal" text-decoration="undefined" x="653" y="527" text-anchor="middle" dominant-baseline="text-before-edge" transform="matrix(1 0 0 1 -359 -368)">storici</text></g></g><g><path fill="none" stroke="#000000" paint-order="fill stroke markers" d=" M 355 133 L 516 152" stroke-miterlimit="10" stroke-dasharray="3"/></g></g></svg>