<svg version="1.1" xmlns="http://www.w3.org/2000/svg" xmlns:xlink="http://www.w3.org/1999/xlink" width="948" height="308"><defs/><g><g><path fill="#ffffff" stroke="none" paint-order="stroke fill markers" d=" M 62.860439453125 115.85000000000002 C 62.860439453125 110.96227952000004 66.81824182112499 107 71.700439453125 107 C 76.58263708512501 107 80.540439453125 110.96227952000004 80.540439453125 115.85000000000002 C 80.540439453125 120.73772048000001 76.58263708512501 124.70000000000005 71.700439453125 124.70000000000005 C 66.81824182112499 124.70000000000005 62.860439453125 120.73772048000001 62.860439453125 115.85000000000002 Z"/></g><g><path fill="none" stroke="#000000" paint-order="fill stroke markers" d=" M 62.860439453125 115.85000000000002 C 62.860439453125 110.96227952000004 66.81824182112499 107 71.700439453125 107 C 76.58263708512501 107 80.540439453125 110.96227952000004 80.540439453125 115.85000000000002 C 80.540439453125 120.73772048000001 76.58263708512501 124.70000000000005 71.700439453125 124.70000000000005 C 66.81824182112499 124.70000000000005 62.860439453125 120.73772048000001 62.860439453125 115.85000000000002 Z" stroke-miterlimit="10" stroke-dasharray=""/></g><g><path fill="none" stroke="#000000" paint-order="fill stroke markers" d=" M 71.700439453125 124.70000000000005 L 71.700439453125 142.29999999999995" stroke-miterlimit="10" stroke-dasharray=""/></g><g><path fill="none" stroke="#000000" paint-order="fill stroke markers" d=" M 62.340439453124986 131.29999999999995 L 81.06043945312501 131.29999999999995" stroke-miterlimit="10" stroke-dasharray=""/></g><g><path fill="none" stroke="#000000" paint-order="fill stroke markers" d=" M 71.700439453125 142.29999999999995 L 58.700439453125 160" stroke-miterlimit="10" stroke-dasharray=""/></g><g><path fill="none" stroke="#000000" paint-order="fill stroke markers" d=" M 71.700439453125 142.29999999999995 L 84.700439453125 160" stroke-miterlimit="10" stroke-dasharray=""/></g><g><g><path fill="none" stroke="none"/><text fill="#000000" stroke="none" font-family="Arial" font-size="13px" font-style="normal" font-weight="bold" text-decoration="undefined" x="247.200439453125" y="627.5" text-anchor="middle" dominant-baseline="central" transform="matrix(1 0 0 1 -175 -453)">Utente autenticato</text></g></g><g><path fill="#C0C0C0" stroke="none" paint-order="stroke fill markers" d=" M 377 163.5 C 377 148.86445279999998 443.2618496 137 525 137 C 606.7381504 137 673 148.86445279999998 673 163.5 C 673 178.13554720000002 606.7381504 190 525 190 C 443.2618496 190 377 178.13554720000002 377 163.5 Z" fill-opacity="0.2"/></g><g><path fill="#ffffff" stroke="none" paint-order="stroke fill markers" d=" M 370 156.5 C 370 141.86445279999998 436.2618496 130 518 130 C 599.7381504 130 666 141.86445279999998 666 156.5 C 666 171.13554720000002 599.7381504 183 518 183 C 436.2618496 183 370 171.13554720000002 370 156.5 Z"/></g><g><path fill="none" stroke="#000000" paint-order="fill stroke markers" d=" M 370 156.5 C 370 141.86445279999998 436.2618496 130 518 130 C 599.7381504 130 666 141.86445279999998 666 156.5 C 666 171.13554720000002 599.7381504 183 518 183 C 436.2618496 183 370 171.13554720000002 370 156.5 Z" stroke-miterlimit="10" stroke-dasharray=""/></g><g><g><path fill="none" stroke="none"/><text fill="#000000" stroke="none" font-family="Arial" font-size="13px" font-style="normal" font-weight="bold" text-decoration="undefined" x="693" y="604" text-anchor="middle" dominant-baseline="central" transform="matrix(1 0 0 1 -175 -453)">UC25 - Visualizzazione dello</text><text fill="#000000" stroke="none" font-family="Arial" font-size="13px" font-style="normal" font-weight="bold" text-decoration="undefined" x="693" y="617" text-anchor="middle" dominant-baseline="central" transform="matrix(1 0 0 1 -175 -453)">storico dei dati del sensore</text></g></g><g><path fill="#C0C0C0" stroke="none" paint-order="stroke fill markers" d=" M 377 43.5 C 377 28.86445279999998 441.4709888 17 521 17 C 600.5290112 17 665 28.86445279999998 665 43.5 C 665 58.13554720000002 600.5290112 70 521 70 C 441.4709888 70 377 58.13554720000002 377 43.5 Z" fill-opacity="0.2"/></g><g><path fill="#ffffff" stroke="none" paint-order="stroke fill markers" d=" M 370 36.5 C 370 21.86445279999998 434.4709888 10 514 10 C 593.5290112 10 658 21.86445279999998 658 36.5 C 658 51.13554720000002 593.5290112 63 514 63 C 434.4709888 63 370 51.13554720000002 370 36.5 Z"/></g><g><path fill="none" stroke="#000000" paint-order="fill stroke markers" d=" M 370 36.5 C 370 21.86445279999998 434.4709888 10 514 10 C 593.5290112 10 658 21.86445279999998 658 36.5 C 658 51.13554720000002 593.5290112 63 514 63 C 434.4709888 63 370 51.13554720000002 370 36.5 Z" stroke-miterlimit="10" stroke-dasharray=""/></g><g><g><path fill="none" stroke="none"/><text fill="#000000" stroke="none" font-family="Arial" font-size="13px" font-style="normal" font-weight="bold" text-decoration="undefined" x="689" y="484" text-anchor="middle" dominant-baseline="central" transform="matrix(1 0 0 1 -175 -453)">UC30 - Dati non disponibili per</text><text fill="#000000" stroke="none" font-family="Arial" font-size="13px" font-style="normal" font-weight="bold" text-decoration="undefined" x="689" y="497" text-anchor="middle" dominant-baseline="central" transform="matrix(1 0 0 1 -175 -453)">il sensore selezionato</text></g></g><g><path fill="#C0C0C0" stroke="none" paint-order="stroke fill markers" d=" M 753 163.5 C 753 148.86445279999998 795.9806592 137 849 137 C 902.0193408 137 945 148.86445279999998 945 163.5 C 945 178.13554720000002 902.0193408 190 849 190 C 795.9806592 190 753 178.13554720000002 753 163.5 Z" fill-opacity="0.2"/></g><g><path fill="#ffffff" stroke="none" paint-order="stroke fill markers" d=" M 746 156.5 C 746 141.86445279999998 788.9806592 130 842 130 C 895.0193408 130 938 141.86445279999998 938 156.5 C 938 171.13554720000002 895.0193408 183 842 183 C 788.9806592 183 746 171.13554720000002 746 156.5 Z"/></g><g><path fill="none" stroke="#000000" paint-order="fill stroke markers" d=" M 746 156.5 C 746 141.86445279999998 788.9806592 130 842 130 C 895.0193408 130 938 141.86445279999998 938 156.5 C 938 171.13554720000002 895.0193408 183 842 183 C 788.9806592 183 746 171.13554720000002 746 156.5 Z" stroke-miterlimit="10" stroke-dasharray=""/></g><g><g><path fill="none" stroke="none"/><text fill="#000000" stroke="none" font-family="Arial" font-size="13px" font-style="normal" font-weight="bold" text-decoration="undefined" x="1017" y="604" text-anchor="middle" dominant-baseline="central" transform="matrix(1 0 0 1 -175 -453)">UC23 - Selezione</text><text fill="#000000" stroke="none" font-family="Arial" font-size="13px" font-style="normal" font-weight="bold" text-decoration="undefined" x="1017" y="617" text-anchor="middle" dominant-baseline="central" transform="matrix(1 0 0 1 -175 -453)">sensore</text></g></g><g><path fill="#C0C0C0" stroke="none" paint-order="stroke fill markers" d=" M 393 269 C 393 249.11774720000005 453.88926719999995 233 529 233 C 604.1107328 233 665 249.11774720000005 665 269 C 665 288.88225279999995 604.1107328 305 529 305 C 453.88926719999995 305 393 288.88225279999995 393 269 Z" fill-opacity="0.2"/></g><g><path fill="#ffffff" stroke="none" paint-order="stroke fill markers" d=" M 386 262 C 386 242.11774720000005 446.88926719999995 226 522 226 C 597.1107328 226 658 242.11774720000005 658 262 C 658 281.88225279999995 597.1107328 298 522 298 C 446.88926719999995 298 386 281.88225279999995 386 262 Z"/></g><g><path fill="none" stroke="#000000" paint-order="fill stroke markers" d=" M 386 262 C 386 242.11774720000005 446.88926719999995 226 522 226 C 597.1107328 226 658 242.11774720000005 658 262 C 658 281.88225279999995 597.1107328 298 522 298 C 446.88926719999995 298 386 281.88225279999995 386 262 Z" stroke-miterlimit="10" stroke-dasharray=""/></g><g><g><path fill="none" stroke="none"/><text fill="#000000" stroke="none" font-family="Arial" font-size="13px" font-style="normal" font-weight="bold" text-decoration="undefined" x="697" y="703" text-anchor="middle" dominant-baseline="central" transform="matrix(1 0 0 1 -175 -453)">UC25.1 - Visualizzazione</text><text fill="#000000" stroke="none" font-family="Arial" font-size="13px" font-style="normal" font-weight="bold" text-decoration="undefined" x="697" y="716" text-anchor="middle" dominant-baseline="central" transform="matrix(1 0 0 1 -175 -453)">grafico storico dei dati del</text><text fill="#000000" stroke="none" font-family="Arial" font-size="13px" font-style="normal" font-weight="bold" text-decoration="undefined" x="697" y="729" text-anchor="middle" dominant-baseline="central" transform="matrix(1 0 0 1 -175 -453)">sensore</text></g></g><g><path fill="none" stroke="#000000" paint-order="fill stroke markers" d=" M 515 64 L 517 129" stroke-miterlimit="10" stroke-dasharray="3"/></g><g><path fill="none" stroke="#000000" paint-order="fill stroke markers" d=" M 512.4799237309375 118.97159481662925 L 517 129 L 520.8949767283133 118.71267010901772" stroke-miterlimit="10" stroke-dasharray=""/></g><g><rect fill="#ffffff" stroke="none" x="694" y="542" width="53.49169921875" height="13" transform="matrix(1 0 0 1 -175 -453)"/></g><g><g><path fill="none" stroke="none"/><text fill="#000000" stroke="none" font-family="Arial" font-size="13px" font-style="normal" font-weight="normal" text-decoration="undefined" x="720.745849609375" y="548.5" text-anchor="middle" dominant-baseline="central" transform="matrix(1 0 0 1 -175 -453)">«extend»</text></g></g><g><path fill="none" stroke="#000000" paint-order="fill stroke markers" d=" M 667 156 L 745 156" stroke-miterlimit="10" stroke-dasharray="3"/></g><g><path fill="none" stroke="#000000" paint-order="fill stroke markers" d=" M 734.8373251423759 160.209517756016 L 745 156 L 734.8373251423758 151.790482243984" stroke-miterlimit="10" stroke-dasharray=""/></g><g><rect fill="#ffffff" stroke="none" x="873" y="581" width="55.65625" height="13" transform="matrix(1 0 0 1 -175 -453)"/></g><g><g><path fill="none" stroke="none"/><text fill="#000000" stroke="none" font-family="Arial" font-size="13px" font-style="normal" font-weight="normal" text-decoration="undefined" x="900.828125" y="587.5" text-anchor="middle" dominant-baseline="central" transform="matrix(1 0 0 1 -175 -453)">«include»</text></g></g><g><path fill="none" stroke="#000000" paint-order="fill stroke markers" d=" M 519 184 L 521 225" stroke-miterlimit="10" stroke-dasharray="3"/></g><g><path fill="none" stroke="#000000" paint-order="fill stroke markers" d=" M 516.3003302013892 215.05449328671364 L 521 225 L 524.7093668553658 214.64429637676346" stroke-miterlimit="10" stroke-dasharray=""/></g><g><rect fill="#ffffff" stroke="none" x="697" y="649" width="55.65625" height="13" transform="matrix(1 0 0 1 -175 -453)"/></g><g><g><path fill="none" stroke="none"/><text fill="#000000" stroke="none" font-family="Arial" font-size="13px" font-style="normal" font-weight="normal" text-decoration="undefined" x="724.828125" y="655.5" text-anchor="middle" dominant-baseline="central" transform="matrix(1 0 0 1 -175 -453)">«include»</text></g></g><g><path fill="none" stroke="#000000" paint-order="fill stroke markers" d=" M 369 153 L 134 147" stroke-miterlimit="10" stroke-dasharray=""/></g><g><path fill="#ffffff" stroke="none" paint-order="stroke fill markers" d=" M 234 18 L 343 18 L 353 28 L 353 122 L 234 122 L 234 18"/></g><g><path fill="none" stroke="#000000" paint-order="fill stroke markers" d=" M 234 18 L 343 18 L 353 28 L 353 122 L 234 122 L 234 18 L 234 18" stroke-miterlimit="10" stroke-dasharray=""/></g><g><path fill="none" stroke="#000000" paint-order="fill stroke markers" d=" M 343 18 L 343 28 L 353 28 L 343 18" stroke-miterlimit="10" stroke-dasharray=""/></g><g><g><path fill="none" stroke="none"/><text fill="#000000" stroke="none" font-family="Arial" font-size="13px" font-style="normal" font-weight="normal" text-decoration="undefined" x="469" y="476" text-anchor="middle" dominant-baseline="text-before-edge" transform="matrix(1 0 0 1 -175 -453)">Condizione:</text></g></g><g><g><path fill="none" stroke="none"/><text fill="#000000" stroke="none" font-family="Arial" font-size="13px" font-style="normal" font-weight="normal" text-decoration="undefined" x="469" y="491" text-anchor="middle" dominant-baseline="text-before-edge" transform="matrix(1 0 0 1 -175 -453)">L'utente ha</text><text fill="#000000" stroke="none" font-family="Arial" font-size="13px" font-style="normal" font-weight="normal" text-decoration="undefined" x="469" y="504" text-anchor="middle" dominant-baseline="text-before-edge" transform="matrix(1 0 0 1 -175 -453)">selezionato un</text><text fill="#000000" stroke="none" font-family="Arial" font-size="13px" font-style="normal" font-weight="normal" text-decoration="undefined" x="469" y="517" text-anchor="middle" dominant-baseline="text-before-edge" transform="matrix(1 0 0 1 -175 -453)">sensore per cui</text><text fill="#000000" stroke="none" font-family="Arial" font-size="13px" font-style="normal" font-weight="normal" text-decoration="undefined" x="469" y="530" text-anchor="middle" dominant-baseline="text-before-edge" transform="matrix(1 0 0 1 -175 -453)">non sono</text><text fill="#000000" stroke="none" font-family="Arial" font-size="13px" font-style="normal" font-weight="normal" text-decoration="undefined" x="469" y="543" text-anchor="middle" dominant-baseline="text-before-edge" transform="matrix(1 0 0 1 -175 -453)">disponibili dati</text><text fill="#000000" stroke="none" font-family="Arial" font-size="13px" font-style="normal" font-weight="normal" text-decoration="undefined" x="469" y="556" text-anchor="middle" dominant-baseline="text-before-edge" transform="matrix(1 0 0 1 -175 -453)">storici</text></g></g><g><path fill="none" stroke="#000000" paint-order="fill stroke markers" d=" M 355 77 L 516 96" stroke-miterlimit="10" stroke-dasharray="3"/></g></g></svg>