<svg version="1.1" xmlns="http://www.w3.org/2000/svg" xmlns:xlink="http://www.w3.org/1999/xlink" width="893" height="404"><defs/><g><g><rect fill="#C0C0C0" stroke="none" x="399" y="277" width="672" height="384" transform="matrix(1 0 0 1 -182 -260)" fill-opacity="0.2"/></g><g><rect fill="#ffffff" stroke="none" x="392" y="270" width="672" height="384" transform="matrix(1 0 0 1 -182 -260)"/></g><g><path fill="none" stroke="#000000" paint-order="fill stroke markers" d=" M 210 10 L 882 10 L 882 394 L 210 394 L 210 10 Z Z" stroke-miterlimit="10" stroke-dasharray=""/></g><g><g><path fill="none" stroke="none"/><text fill="#000000" stroke="none" font-family="Arial" font-size="13px" font-style="normal" font-weight="bold" text-decoration="undefined" x="728.5" y="283.5" text-anchor="middle" dominant-baseline="central" transform="matrix(1 0 0 1 -182 -260)">Dashboard</text></g></g><g><path fill="#ffffff" stroke="none" paint-order="stroke fill markers" d=" M 62.860439453125 187.85000000000002 C 62.860439453125 182.96227952000004 66.81824182112501 179 71.700439453125 179 C 76.58263708512499 179 80.54043945312497 182.96227952000004 80.54043945312497 187.85000000000002 C 80.54043945312497 192.73772048 76.58263708512499 196.7 71.700439453125 196.7 C 66.81824182112501 196.7 62.860439453125 192.73772048 62.860439453125 187.85000000000002 Z"/></g><g><path fill="none" stroke="#000000" paint-order="fill stroke markers" d=" M 62.860439453125 187.85000000000002 C 62.860439453125 182.96227952000004 66.81824182112501 179 71.700439453125 179 C 76.58263708512499 179 80.54043945312497 182.96227952000004 80.54043945312497 187.85000000000002 C 80.54043945312497 192.73772048 76.58263708512499 196.7 71.700439453125 196.7 C 66.81824182112501 196.7 62.860439453125 192.73772048 62.860439453125 187.85000000000002 Z" stroke-miterlimit="10" stroke-dasharray=""/></g><g><path fill="none" stroke="#000000" paint-order="fill stroke markers" d=" M 71.700439453125 196.7 L 71.700439453125 214.3" stroke-miterlimit="10" stroke-dasharray=""/></g><g><path fill="none" stroke="#000000" paint-order="fill stroke markers" d=" M 62.340439453124986 203.3 L 81.06043945312501 203.3" stroke-miterlimit="10" stroke-dasharray=""/></g><g><path fill="none" stroke="#000000" paint-order="fill stroke markers" d=" M 71.700439453125 214.3 L 58.700439453125 232" stroke-miterlimit="10" stroke-dasharray=""/></g><g><path fill="none" stroke="#000000" paint-order="fill stroke markers" d=" M 71.700439453125 214.3 L 84.700439453125 232" stroke-miterlimit="10" stroke-dasharray=""/></g><g><g><path fill="none" stroke="none"/><text fill="#000000" stroke="none" font-family="Arial" font-size="13px" font-style="normal" font-weight="bold" text-decoration="undefined" x="254.200439453125" y="506.5" text-anchor="middle" dominant-baseline="central" transform="matrix(1 0 0 1 -182 -260)">Utente autenticato</text></g></g><g><path fill="#C0C0C0" stroke="none" paint-order="stroke fill markers" d=" M 281 211.5 C 281 196.86445279999998 340.09840640000004 185 413 185 C 485.90159359999996 185 545 196.86445279999998 545 211.5 C 545 226.13554720000002 485.90159359999996 238 413 238 C 340.09840640000004 238 281 226.13554720000002 281 211.5 Z" fill-opacity="0.2"/></g><g><path fill="#ffffff" stroke="none" paint-order="stroke fill markers" d=" M 274 204.5 C 274 189.86445279999998 333.09840640000004 178 406 178 C 478.90159359999996 178 538 189.86445279999998 538 204.5 C 538 219.13554720000002 478.90159359999996 231 406 231 C 333.09840640000004 231 274 219.13554720000002 274 204.5 Z"/></g><g><path fill="none" stroke="#000000" paint-order="fill stroke markers" d=" M 274 204.5 C 274 189.86445279999998 333.09840640000004 178 406 178 C 478.90159359999996 178 538 189.86445279999998 538 204.5 C 538 219.13554720000002 478.90159359999996 231 406 231 C 333.09840640000004 231 274 219.13554720000002 274 204.5 Z" stroke-miterlimit="10" stroke-dasharray=""/></g><g><g><path fill="none" stroke="none"/><text fill="#000000" stroke="none" font-family="Arial" font-size="13px" font-style="normal" font-weight="bold" text-decoration="undefined" x="588" y="459" text-anchor="middle" dominant-baseline="central" transform="matrix(1 0 0 1 -182 -260)">UC25 - Visualizzazione dello</text><text fill="#000000" stroke="none" font-family="Arial" font-size="13px" font-style="normal" font-weight="bold" text-decoration="undefined" x="588" y="472" text-anchor="middle" dominant-baseline="central" transform="matrix(1 0 0 1 -182 -260)">storico dei dati del sensore</text></g></g><g><path fill="#C0C0C0" stroke="none" paint-order="stroke fill markers" d=" M 297 91.5 C 297 76.86445279999998 354.3075456 65 425 65 C 495.6924544 65 553 76.86445279999998 553 91.5 C 553 106.13554720000002 495.6924544 118 425 118 C 354.3075456 118 297 106.13554720000002 297 91.5 Z" fill-opacity="0.2"/></g><g><path fill="#ffffff" stroke="none" paint-order="stroke fill markers" d=" M 290 84.5 C 290 69.86445279999998 347.3075456 58 418 58 C 488.6924544 58 546 69.86445279999998 546 84.5 C 546 99.13554720000002 488.6924544 111 418 111 C 347.3075456 111 290 99.13554720000002 290 84.5 Z"/></g><g><path fill="none" stroke="#000000" paint-order="fill stroke markers" d=" M 290 84.5 C 290 69.86445279999998 347.3075456 58 418 58 C 488.6924544 58 546 69.86445279999998 546 84.5 C 546 99.13554720000002 488.6924544 111 418 111 C 347.3075456 111 290 99.13554720000002 290 84.5 Z" stroke-miterlimit="10" stroke-dasharray=""/></g><g><g><path fill="none" stroke="none"/><text fill="#000000" stroke="none" font-family="Arial" font-size="13px" font-style="normal" font-weight="bold" text-decoration="undefined" x="600" y="339" text-anchor="middle" dominant-baseline="central" transform="matrix(1 0 0 1 -182 -260)">UC30 - Dati non disponibili</text><text fill="#000000" stroke="none" font-family="Arial" font-size="13px" font-style="normal" font-weight="bold" text-decoration="undefined" x="600" y="352" text-anchor="middle" dominant-baseline="central" transform="matrix(1 0 0 1 -182 -260)">per il sensore selezionato</text></g></g><g><path fill="#C0C0C0" stroke="none" paint-order="stroke fill markers" d=" M 681 219.5 C 681 204.86445279999998 718.6080768 193 765 193 C 811.3919232 193 849 204.86445279999998 849 219.5 C 849 234.13554720000002 811.3919232 246 765 246 C 718.6080768 246 681 234.13554720000002 681 219.5 Z" fill-opacity="0.2"/></g><g><path fill="#ffffff" stroke="none" paint-order="stroke fill markers" d=" M 674 212.5 C 674 197.86445279999998 711.6080768 186 758 186 C 804.3919232 186 842 197.86445279999998 842 212.5 C 842 227.13554720000002 804.3919232 239 758 239 C 711.6080768 239 674 227.13554720000002 674 212.5 Z"/></g><g><path fill="none" stroke="#000000" paint-order="fill stroke markers" d=" M 674 212.5 C 674 197.86445279999998 711.6080768 186 758 186 C 804.3919232 186 842 197.86445279999998 842 212.5 C 842 227.13554720000002 804.3919232 239 758 239 C 711.6080768 239 674 227.13554720000002 674 212.5 Z" stroke-miterlimit="10" stroke-dasharray=""/></g><g><g><path fill="none" stroke="none"/><text fill="#000000" stroke="none" font-family="Arial" font-size="13px" font-style="normal" font-weight="bold" text-decoration="undefined" x="940" y="467" text-anchor="middle" dominant-baseline="central" transform="matrix(1 0 0 1 -182 -260)">UC23 - Selezione</text><text fill="#000000" stroke="none" font-family="Arial" font-size="13px" font-style="normal" font-weight="bold" text-decoration="undefined" x="940" y="480" text-anchor="middle" dominant-baseline="central" transform="matrix(1 0 0 1 -182 -260)">sensore</text></g></g><g><path fill="#C0C0C0" stroke="none" paint-order="stroke fill markers" d=" M 289 341 C 289 321.11774720000005 351.68012799999997 305 429 305 C 506.31987200000003 305 569 321.11774720000005 569 341 C 569 360.88225279999995 506.31987200000003 377 429 377 C 351.68012799999997 377 289 360.88225279999995 289 341 Z" fill-opacity="0.2"/></g><g><path fill="#ffffff" stroke="none" paint-order="stroke fill markers" d=" M 282 334 C 282 314.11774720000005 344.68012799999997 298 422 298 C 499.31987200000003 298 562 314.11774720000005 562 334 C 562 353.88225279999995 499.31987200000003 370 422 370 C 344.68012799999997 370 282 353.88225279999995 282 334 Z"/></g><g><path fill="none" stroke="#000000" paint-order="fill stroke markers" d=" M 282 334 C 282 314.11774720000005 344.68012799999997 298 422 298 C 499.31987200000003 298 562 314.11774720000005 562 334 C 562 353.88225279999995 499.31987200000003 370 422 370 C 344.68012799999997 370 282 353.88225279999995 282 334 Z" stroke-miterlimit="10" stroke-dasharray=""/></g><g><g><path fill="none" stroke="none"/><text fill="#000000" stroke="none" font-family="Arial" font-size="13px" font-style="normal" font-weight="bold" text-decoration="undefined" x="604" y="582" text-anchor="middle" dominant-baseline="central" transform="matrix(1 0 0 1 -182 -260)">UC25.1 - Visualizzazione</text><text fill="#000000" stroke="none" font-family="Arial" font-size="13px" font-style="normal" font-weight="bold" text-decoration="undefined" x="604" y="595" text-anchor="middle" dominant-baseline="central" transform="matrix(1 0 0 1 -182 -260)">grafico storico dei dati del</text><text fill="#000000" stroke="none" font-family="Arial" font-size="13px" font-style="normal" font-weight="bold" text-decoration="undefined" x="604" y="608" text-anchor="middle" dominant-baseline="central" transform="matrix(1 0 0 1 -182 -260)">sensore</text></g></g><g><path fill="none" stroke="#000000" paint-order="fill stroke markers" d=" M 415 112 L 409 177" stroke-miterlimit="10" stroke-dasharray="3"/></g><g><path fill="none" stroke="#000000" paint-order="fill stroke markers" d=" M 405.7424242985554 166.49342108251415 L 409 177 L 414.12581933090587 167.2672729316542" stroke-miterlimit="10" stroke-dasharray=""/></g><g><rect fill="#ffffff" stroke="none" x="597" y="400" width="53.49169921875" height="13" transform="matrix(1 0 0 1 -182 -260)"/></g><g><g><path fill="none" stroke="none"/><text fill="#000000" stroke="none" font-family="Arial" font-size="13px" font-style="normal" font-weight="normal" text-decoration="undefined" x="623.745849609375" y="406.5" text-anchor="middle" dominant-baseline="central" transform="matrix(1 0 0 1 -182 -260)">«extend»</text></g></g><g><path fill="none" stroke="#000000" paint-order="fill stroke markers" d=" M 539 207 L 673 210" stroke-miterlimit="10" stroke-dasharray="3"/></g><g><path fill="none" stroke="#000000" paint-order="fill stroke markers" d=" M 662.7456517545628 213.9809976213632 L 673 210 L 662.9340904050496 205.56407123295645" stroke-miterlimit="10" stroke-dasharray=""/></g><g><rect fill="#ffffff" stroke="none" x="780" y="440" width="55.65625" height="13" transform="matrix(1 0 0 1 -182 -260)"/></g><g><g><path fill="none" stroke="none"/><text fill="#000000" stroke="none" font-family="Arial" font-size="13px" font-style="normal" font-weight="normal" text-decoration="undefined" x="807.828125" y="446.5" text-anchor="middle" dominant-baseline="central" transform="matrix(1 0 0 1 -182 -260)">«include»</text></g></g><g><path fill="none" stroke="#000000" paint-order="fill stroke markers" d=" M 409 232 L 417 297" stroke-miterlimit="10" stroke-dasharray="3"/></g><g><path fill="none" stroke="#000000" paint-order="fill stroke markers" d=" M 411.580583683099 287.42764779251684 L 417 297 L 419.9365691300636 286.3992188144289" stroke-miterlimit="10" stroke-dasharray=""/></g><g><rect fill="#ffffff" stroke="none" x="597" y="514" width="55.65625" height="13" transform="matrix(1 0 0 1 -182 -260)"/></g><g><g><path fill="none" stroke="none"/><text fill="#000000" stroke="none" font-family="Arial" font-size="13px" font-style="normal" font-weight="normal" text-decoration="undefined" x="624.828125" y="520.5" text-anchor="middle" dominant-baseline="central" transform="matrix(1 0 0 1 -182 -260)">«include»</text></g></g><g><path fill="none" stroke="#000000" paint-order="fill stroke markers" d=" M 273 210 L 134 215" stroke-miterlimit="10" stroke-dasharray=""/></g></g></svg>