<svg version="1.1" xmlns="http://www.w3.org/2000/svg" xmlns:xlink="http://www.w3.org/1999/xlink" width="716" height="372"><defs/><g><g><rect fill="#C0C0C0" stroke="none" x="391" y="431" width="496" height="352" transform="matrix(1 0 0 1 -175 -414)" fill-opacity="0.2"/></g><g><rect fill="#ffffff" stroke="none" x="384" y="424" width="496" height="352" transform="matrix(1 0 0 1 -175 -414)"/></g><g><path fill="none" stroke="#000000" paint-order="fill stroke markers" d=" M 209 10 L 705 10 L 705 362 L 209 362 L 209 10 Z Z" stroke-miterlimit="10" stroke-dasharray=""/></g><g><g><path fill="none" stroke="none"/><text fill="#000000" stroke="none" font-family="Arial" font-size="13px" font-style="normal" font-weight="bold" text-decoration="undefined" x="632.5" y="437.5" text-anchor="middle" dominant-baseline="central" transform="matrix(1 0 0 1 -175 -414)">Sistema Cloud</text></g></g><g><path fill="#ffffff" stroke="none" paint-order="stroke fill markers" d=" M 62.860439453125 154.85000000000002 C 62.860439453125 149.96227952000004 66.81824182112499 146 71.700439453125 146 C 76.58263708512501 146 80.540439453125 149.96227952000004 80.540439453125 154.85000000000002 C 80.540439453125 159.73772048 76.58263708512501 163.70000000000005 71.700439453125 163.70000000000005 C 66.81824182112499 163.70000000000005 62.860439453125 159.73772048 62.860439453125 154.85000000000002 Z"/></g><g><path fill="none" stroke="#000000" paint-order="fill stroke markers" d=" M 62.860439453125 154.85000000000002 C 62.860439453125 149.96227952000004 66.81824182112499 146 71.700439453125 146 C 76.58263708512501 146 80.540439453125 149.96227952000004 80.540439453125 154.85000000000002 C 80.540439453125 159.73772048 76.58263708512501 163.70000000000005 71.700439453125 163.70000000000005 C 66.81824182112499 163.70000000000005 62.860439453125 159.73772048 62.860439453125 154.85000000000002 Z" stroke-miterlimit="10" stroke-dasharray=""/></g><g><path fill="none" stroke="#000000" paint-order="fill stroke markers" d=" M 71.700439453125 163.70000000000005 L 71.700439453125 181.29999999999995" stroke-miterlimit="10" stroke-dasharray=""/></g><g><path fill="none" stroke="#000000" paint-order="fill stroke markers" d=" M 62.340439453124986 170.29999999999995 L 81.06043945312501 170.29999999999995" stroke-miterlimit="10" stroke-dasharray=""/></g><g><path fill="none" stroke="#000000" paint-order="fill stroke markers" d=" M 71.700439453125 181.29999999999995 L 58.700439453125 199" stroke-miterlimit="10" stroke-dasharray=""/></g><g><path fill="none" stroke="#000000" paint-order="fill stroke markers" d=" M 71.700439453125 181.29999999999995 L 84.700439453125 199" stroke-miterlimit="10" stroke-dasharray=""/></g><g><g><path fill="none" stroke="none"/><text fill="#000000" stroke="none" font-family="Arial" font-size="13px" font-style="normal" font-weight="bold" text-decoration="undefined" x="247.200439453125" y="627.5" text-anchor="middle" dominant-baseline="central" transform="matrix(1 0 0 1 -175 -414)">Utente autenticato</text></g></g><g><path fill="#C0C0C0" stroke="none" paint-order="stroke fill markers" d=" M 377 202.5 C 377 187.86445279999998 443.2618496 176 525 176 C 606.7381504 176 673 187.86445279999998 673 202.5 C 673 217.13554720000002 606.7381504 229 525 229 C 443.2618496 229 377 217.13554720000002 377 202.5 Z" fill-opacity="0.2"/></g><g><path fill="#ffffff" stroke="none" paint-order="stroke fill markers" d=" M 370 195.5 C 370 180.86445279999998 436.2618496 169 518 169 C 599.7381504 169 666 180.86445279999998 666 195.5 C 666 210.13554720000002 599.7381504 222 518 222 C 436.2618496 222 370 210.13554720000002 370 195.5 Z"/></g><g><path fill="none" stroke="#000000" paint-order="fill stroke markers" d=" M 370 195.5 C 370 180.86445279999998 436.2618496 169 518 169 C 599.7381504 169 666 180.86445279999998 666 195.5 C 666 210.13554720000002 599.7381504 222 518 222 C 436.2618496 222 370 210.13554720000002 370 195.5 Z" stroke-miterlimit="10" stroke-dasharray=""/></g><g><g><path fill="none" stroke="none"/><text fill="#000000" stroke="none" font-family="Arial" font-size="13px" font-style="normal" font-weight="bold" text-decoration="undefined" x="693" y="604" text-anchor="middle" dominant-baseline="central" transform="matrix(1 0 0 1 -175 -414)">UC25 - Visualizzazione dello</text><text fill="#000000" stroke="none" font-family="Arial" font-size="13px" font-style="normal" font-weight="bold" text-decoration="undefined" x="693" y="617" text-anchor="middle" dominant-baseline="central" transform="matrix(1 0 0 1 -175 -414)">storico dei dati del sensore</text></g></g><g><path fill="#C0C0C0" stroke="none" paint-order="stroke fill markers" d=" M 377 82.5 C 377 67.86445279999998 441.4709888 56 521 56 C 600.5290112 56 665 67.86445279999998 665 82.5 C 665 97.13554720000002 600.5290112 109 521 109 C 441.4709888 109 377 97.13554720000002 377 82.5 Z" fill-opacity="0.2"/></g><g><path fill="#ffffff" stroke="none" paint-order="stroke fill markers" d=" M 370 75.5 C 370 60.86445279999998 434.4709888 49 514 49 C 593.5290112 49 658 60.86445279999998 658 75.5 C 658 90.13554720000002 593.5290112 102 514 102 C 434.4709888 102 370 90.13554720000002 370 75.5 Z"/></g><g><path fill="none" stroke="#000000" paint-order="fill stroke markers" d=" M 370 75.5 C 370 60.86445279999998 434.4709888 49 514 49 C 593.5290112 49 658 60.86445279999998 658 75.5 C 658 90.13554720000002 593.5290112 102 514 102 C 434.4709888 102 370 90.13554720000002 370 75.5 Z" stroke-miterlimit="10" stroke-dasharray=""/></g><g><g><path fill="none" stroke="none"/><text fill="#000000" stroke="none" font-family="Arial" font-size="13px" font-style="normal" font-weight="bold" text-decoration="undefined" x="689" y="484" text-anchor="middle" dominant-baseline="central" transform="matrix(1 0 0 1 -175 -414)">UC30 - Dati non disponibili per</text><text fill="#000000" stroke="none" font-family="Arial" font-size="13px" font-style="normal" font-weight="bold" text-decoration="undefined" x="689" y="497" text-anchor="middle" dominant-baseline="central" transform="matrix(1 0 0 1 -175 -414)">il sensore selezionato</text></g></g><g><path fill="#C0C0C0" stroke="none" paint-order="stroke fill markers" d=" M 393 308 C 393 288.11774720000005 453.88926719999995 272 529 272 C 604.1107328 272 665 288.11774720000005 665 308 C 665 327.88225279999995 604.1107328 344 529 344 C 453.88926719999995 344 393 327.88225279999995 393 308 Z" fill-opacity="0.2"/></g><g><path fill="#ffffff" stroke="none" paint-order="stroke fill markers" d=" M 386 301 C 386 281.11774720000005 446.88926719999995 265 522 265 C 597.1107328 265 658 281.11774720000005 658 301 C 658 320.88225279999995 597.1107328 337 522 337 C 446.88926719999995 337 386 320.88225279999995 386 301 Z"/></g><g><path fill="none" stroke="#000000" paint-order="fill stroke markers" d=" M 386 301 C 386 281.11774720000005 446.88926719999995 265 522 265 C 597.1107328 265 658 281.11774720000005 658 301 C 658 320.88225279999995 597.1107328 337 522 337 C 446.88926719999995 337 386 320.88225279999995 386 301 Z" stroke-miterlimit="10" stroke-dasharray=""/></g><g><g><path fill="none" stroke="none"/><text fill="#000000" stroke="none" font-family="Arial" font-size="13px" font-style="normal" font-weight="bold" text-decoration="undefined" x="697" y="703" text-anchor="middle" dominant-baseline="central" transform="matrix(1 0 0 1 -175 -414)">UC25.1 - Visualizzazione</text><text fill="#000000" stroke="none" font-family="Arial" font-size="13px" font-style="normal" font-weight="bold" text-decoration="undefined" x="697" y="716" text-anchor="middle" dominant-baseline="central" transform="matrix(1 0 0 1 -175 -414)">grafico storico dei dati del</text><text fill="#000000" stroke="none" font-family="Arial" font-size="13px" font-style="normal" font-weight="bold" text-decoration="undefined" x="697" y="729" text-anchor="middle" dominant-baseline="central" transform="matrix(1 0 0 1 -175 -414)">sensore</text></g></g><g><path fill="none" stroke="#000000" paint-order="fill stroke markers" d=" M 515 103 L 517 168" stroke-miterlimit="10" stroke-dasharray="3"/></g><g><path fill="none" stroke="#000000" paint-order="fill stroke markers" d=" M 512.4799237309375 157.97159481662925 L 517 168 L 520.8949767283133 157.71267010901772" stroke-miterlimit="10" stroke-dasharray=""/></g><g><rect fill="#ffffff" stroke="none" x="694" y="542" width="53.49169921875" height="13" transform="matrix(1 0 0 1 -175 -414)"/></g><g><g><path fill="none" stroke="none"/><text fill="#000000" stroke="none" font-family="Arial" font-size="13px" font-style="normal" font-weight="normal" text-decoration="undefined" x="720.745849609375" y="548.5" text-anchor="middle" dominant-baseline="central" transform="matrix(1 0 0 1 -175 -414)">«extend»</text></g></g><g><path fill="none" stroke="#000000" paint-order="fill stroke markers" d=" M 519 223 L 521 264" stroke-miterlimit="10" stroke-dasharray="3"/></g><g><path fill="none" stroke="#000000" paint-order="fill stroke markers" d=" M 516.3003302013892 254.05449328671364 L 521 264 L 524.7093668553658 253.64429637676346" stroke-miterlimit="10" stroke-dasharray=""/></g><g><rect fill="#ffffff" stroke="none" x="697" y="649" width="55.65625" height="13" transform="matrix(1 0 0 1 -175 -414)"/></g><g><g><path fill="none" stroke="none"/><text fill="#000000" stroke="none" font-family="Arial" font-size="13px" font-style="normal" font-weight="normal" text-decoration="undefined" x="724.828125" y="655.5" text-anchor="middle" dominant-baseline="central" transform="matrix(1 0 0 1 -175 -414)">«include»</text></g></g><g><path fill="none" stroke="#000000" paint-order="fill stroke markers" d=" M 369 192 L 134 186" stroke-miterlimit="10" stroke-dasharray=""/></g><g><path fill="#ffffff" stroke="none" paint-order="stroke fill markers" d=" M 234 57 L 343 57 L 353 67 L 353 161 L 234 161 L 234 57"/></g><g><path fill="none" stroke="#000000" paint-order="fill stroke markers" d=" M 234 57 L 343 57 L 353 67 L 353 161 L 234 161 L 234 57 L 234 57" stroke-miterlimit="10" stroke-dasharray=""/></g><g><path fill="none" stroke="#000000" paint-order="fill stroke markers" d=" M 343 57 L 343 67 L 353 67 L 343 57" stroke-miterlimit="10" stroke-dasharray=""/></g><g><g><path fill="none" stroke="none"/><text fill="#000000" stroke="none" font-family="Arial" font-size="13px" font-style="normal" font-weight="normal" text-decoration="undefined" x="469" y="476" text-anchor="middle" dominant-baseline="text-before-edge" transform="matrix(1 0 0 1 -175 -414)">Condizione:</text></g></g><g><g><path fill="none" stroke="none"/><text fill="#000000" stroke="none" font-family="Arial" font-size="13px" font-style="normal" font-weight="normal" text-decoration="undefined" x="469" y="491" text-anchor="middle" dominant-baseline="text-before-edge" transform="matrix(1 0 0 1 -175 -414)">L'utente ha</text><text fill="#000000" stroke="none" font-family="Arial" font-size="13px" font-style="normal" font-weight="normal" text-decoration="undefined" x="469" y="504" text-anchor="middle" dominant-baseline="text-before-edge" transform="matrix(1 0 0 1 -175 -414)">selezionato un</text><text fill="#000000" stroke="none" font-family="Arial" font-size="13px" font-style="normal" font-weight="normal" text-decoration="undefined" x="469" y="517" text-anchor="middle" dominant-baseline="text-before-edge" transform="matrix(1 0 0 1 -175 -414)">sensore per cui</text><text fill="#000000" stroke="none" font-family="Arial" font-size="13px" font-style="normal" font-weight="normal" text-decoration="undefined" x="469" y="530" text-anchor="middle" dominant-baseline="text-before-edge" transform="matrix(1 0 0 1 -175 -414)">non sono</text><text fill="#000000" stroke="none" font-family="Arial" font-size="13px" font-style="normal" font-weight="normal" text-decoration="undefined" x="469" y="543" text-anchor="middle" dominant-baseline="text-before-edge" transform="matrix(1 0 0 1 -175 -414)">disponibili dati</text><text fill="#000000" stroke="none" font-family="Arial" font-size="13px" font-style="normal" font-weight="normal" text-decoration="undefined" x="469" y="556" text-anchor="middle" dominant-baseline="text-before-edge" transform="matrix(1 0 0 1 -175 -414)">storici</text></g></g><g><path fill="none" stroke="#000000" paint-order="fill stroke markers" d=" M 355 116 L 516 135" stroke-miterlimit="10" stroke-dasharray="3"/></g></g></svg>