<svg version="1.1" xmlns="http://www.w3.org/2000/svg" xmlns:xlink="http://www.w3.org/1999/xlink" width="985" height="484"><defs/><g><g><rect fill="#C0C0C0" stroke="none" x="349" y="237" width="768" height="464" transform="matrix(1 0 0 1 -136 -220)" fill-opacity="0.2"/></g><g><rect fill="#ffffff" stroke="none" x="342" y="230" width="768" height="464" transform="matrix(1 0 0 1 -136 -220)"/></g><g><path fill="none" stroke="#000000" paint-order="fill stroke markers" d=" M 206 10 L 974 10 L 974 474 L 206 474 L 206 10 Z Z" stroke-miterlimit="10" stroke-dasharray=""/></g><g><g><path fill="none" stroke="none"/><text fill="#000000" stroke="none" font-family="Arial" font-size="13px" font-style="normal" font-weight="bold" text-decoration="undefined" x="726.5" y="243.5" text-anchor="middle" dominant-baseline="central" transform="matrix(1 0 0 1 -136 -220)">Dashboard</text></g></g><g><path fill="#ffffff" stroke="none" paint-order="stroke fill markers" d=" M 62.860439453125 222.85000000000002 C 62.860439453125 217.96227952000004 66.81824182112499 214 71.700439453125 214 C 76.58263708512501 214 80.540439453125 217.96227952000004 80.540439453125 222.85000000000002 C 80.540439453125 227.73772048 76.58263708512501 231.7 71.700439453125 231.7 C 66.81824182112499 231.7 62.860439453125 227.73772048 62.860439453125 222.85000000000002 Z"/></g><g><path fill="none" stroke="#000000" paint-order="fill stroke markers" d=" M 62.860439453125 222.85000000000002 C 62.860439453125 217.96227952000004 66.81824182112499 214 71.700439453125 214 C 76.58263708512501 214 80.540439453125 217.96227952000004 80.540439453125 222.85000000000002 C 80.540439453125 227.73772048 76.58263708512501 231.7 71.700439453125 231.7 C 66.81824182112499 231.7 62.860439453125 227.73772048 62.860439453125 222.85000000000002 Z" stroke-miterlimit="10" stroke-dasharray=""/></g><g><path fill="none" stroke="#000000" paint-order="fill stroke markers" d=" M 71.700439453125 231.7 L 71.700439453125 249.3" stroke-miterlimit="10" stroke-dasharray=""/></g><g><path fill="none" stroke="#000000" paint-order="fill stroke markers" d=" M 62.340439453124986 238.3 L 81.06043945312501 238.3" stroke-miterlimit="10" stroke-dasharray=""/></g><g><path fill="none" stroke="#000000" paint-order="fill stroke markers" d=" M 71.700439453125 249.3 L 58.700439453125 267" stroke-miterlimit="10" stroke-dasharray=""/></g><g><path fill="none" stroke="#000000" paint-order="fill stroke markers" d=" M 71.700439453125 249.3 L 84.700439453125 267" stroke-miterlimit="10" stroke-dasharray=""/></g><g><g><path fill="none" stroke="none"/><text fill="#000000" stroke="none" font-family="Arial" font-size="13px" font-style="normal" font-weight="bold" text-decoration="undefined" x="208.200439453125" y="501.5" text-anchor="middle" dominant-baseline="central" transform="matrix(1 0 0 1 -136 -220)">Utente autenticato</text></g></g><g><path fill="#C0C0C0" stroke="none" paint-order="stroke fill markers" d=" M 257 270.5 C 257 255.86445279999998 322.3664192 244 403 244 C 483.6335808 244 549 255.86445279999998 549 270.5 C 549 285.1355472 483.6335808 297 403 297 C 322.3664192 297 257 285.1355472 257 270.5 Z" fill-opacity="0.2"/></g><g><path fill="#ffffff" stroke="none" paint-order="stroke fill markers" d=" M 250 263.5 C 250 248.86445279999998 315.3664192 237 396 237 C 476.6335808 237 542 248.86445279999998 542 263.5 C 542 278.1355472 476.6335808 290 396 290 C 315.3664192 290 250 278.1355472 250 263.5 Z"/></g><g><path fill="none" stroke="#000000" paint-order="fill stroke markers" d=" M 250 263.5 C 250 248.86445279999998 315.3664192 237 396 237 C 476.6335808 237 542 248.86445279999998 542 263.5 C 542 278.1355472 476.6335808 290 396 290 C 315.3664192 290 250 278.1355472 250 263.5 Z" stroke-miterlimit="10" stroke-dasharray=""/></g><g><g><path fill="none" stroke="none"/><text fill="#000000" stroke="none" font-family="Arial" font-size="13px" font-style="normal" font-weight="bold" text-decoration="undefined" x="532" y="478" text-anchor="middle" dominant-baseline="central" transform="matrix(1 0 0 1 -136 -220)">UC26 - Filtraggio per intervallo</text><text fill="#000000" stroke="none" font-family="Arial" font-size="13px" font-style="normal" font-weight="bold" text-decoration="undefined" x="532" y="491" text-anchor="middle" dominant-baseline="central" transform="matrix(1 0 0 1 -136 -220)">temporale dati storico sensore</text></g></g><g><path fill="#C0C0C0" stroke="none" paint-order="stroke fill markers" d=" M 297 144 C 297 124.1177472 349.8303936 108 415 108 C 480.1696064 108 533 124.1177472 533 144 C 533 163.8822528 480.1696064 180 415 180 C 349.8303936 180 297 163.8822528 297 144 Z" fill-opacity="0.2"/></g><g><path fill="#ffffff" stroke="none" paint-order="stroke fill markers" d=" M 290 137 C 290 117.1177472 342.8303936 101 408 101 C 473.1696064 101 526 117.1177472 526 137 C 526 156.8822528 473.1696064 173 408 173 C 342.8303936 173 290 156.8822528 290 137 Z"/></g><g><path fill="none" stroke="#000000" paint-order="fill stroke markers" d=" M 290 137 C 290 117.1177472 342.8303936 101 408 101 C 473.1696064 101 526 117.1177472 526 137 C 526 156.8822528 473.1696064 173 408 173 C 342.8303936 173 290 156.8822528 290 137 Z" stroke-miterlimit="10" stroke-dasharray=""/></g><g><g><path fill="none" stroke="none"/><text fill="#000000" stroke="none" font-family="Arial" font-size="13px" font-style="normal" font-weight="bold" text-decoration="undefined" x="544" y="345" text-anchor="middle" dominant-baseline="central" transform="matrix(1 0 0 1 -136 -220)">UC30 - Dati non</text><text fill="#000000" stroke="none" font-family="Arial" font-size="13px" font-style="normal" font-weight="bold" text-decoration="undefined" x="544" y="358" text-anchor="middle" dominant-baseline="central" transform="matrix(1 0 0 1 -136 -220)">disponibili per il sensore</text><text fill="#000000" stroke="none" font-family="Arial" font-size="13px" font-style="normal" font-weight="bold" text-decoration="undefined" x="544" y="371" text-anchor="middle" dominant-baseline="central" transform="matrix(1 0 0 1 -136 -220)">selezionato</text></g></g><g><path fill="#C0C0C0" stroke="none" paint-order="stroke fill markers" d=" M 409 406.5 C 409 391.8644528 447.50350720000006 380 495 380 C 542.4964927999999 380 581 391.8644528 581 406.5 C 581 421.1355472 542.4964927999999 433 495 433 C 447.50350720000006 433 409 421.1355472 409 406.5 Z" fill-opacity="0.2"/></g><g><path fill="#ffffff" stroke="none" paint-order="stroke fill markers" d=" M 402 399.5 C 402 384.8644528 440.50350720000006 373 488 373 C 535.4964927999999 373 574 384.8644528 574 399.5 C 574 414.1355472 535.4964927999999 426 488 426 C 440.50350720000006 426 402 414.1355472 402 399.5 Z"/></g><g><path fill="none" stroke="#000000" paint-order="fill stroke markers" d=" M 402 399.5 C 402 384.8644528 440.50350720000006 373 488 373 C 535.4964927999999 373 574 384.8644528 574 399.5 C 574 414.1355472 535.4964927999999 426 488 426 C 440.50350720000006 426 402 414.1355472 402 399.5 Z" stroke-miterlimit="10" stroke-dasharray=""/></g><g><g><path fill="none" stroke="none"/><text fill="#000000" stroke="none" font-family="Arial" font-size="13px" font-style="normal" font-weight="bold" text-decoration="undefined" x="624" y="614" text-anchor="middle" dominant-baseline="central" transform="matrix(1 0 0 1 -136 -220)">UC23 - Selezione</text><text fill="#000000" stroke="none" font-family="Arial" font-size="13px" font-style="normal" font-weight="bold" text-decoration="undefined" x="624" y="627" text-anchor="middle" dominant-baseline="central" transform="matrix(1 0 0 1 -136 -220)">sensore</text></g></g><g><path fill="none" stroke="#000000" paint-order="fill stroke markers" d=" M 404 174 L 399 236" stroke-miterlimit="10" stroke-dasharray="3"/></g><g><path fill="none" stroke="#000000" paint-order="fill stroke markers" d=" M 395.62102281867453 225.5318333406426 L 399 236 L 404.0128139530327 226.20859069018763" stroke-miterlimit="10" stroke-dasharray=""/></g><g><rect fill="#ffffff" stroke="none" x="540" y="420" width="53.49169921875" height="13" transform="matrix(1 0 0 1 -136 -220)"/></g><g><g><path fill="none" stroke="none"/><text fill="#000000" stroke="none" font-family="Arial" font-size="13px" font-style="normal" font-weight="normal" text-decoration="undefined" x="566.745849609375" y="426.5" text-anchor="middle" dominant-baseline="central" transform="matrix(1 0 0 1 -136 -220)">«extend»</text></g></g><g><path fill="none" stroke="#000000" paint-order="fill stroke markers" d=" M 637 189 L 484 236" stroke-miterlimit="10" stroke-dasharray="3"/></g><g><path fill="none" stroke="#000000" paint-order="fill stroke markers" d=" M 492.4785317817169 228.99182628451484 L 484 236 L 494.95075447531053 237.0397001594048" stroke-miterlimit="10" stroke-dasharray=""/></g><g><rect fill="#ffffff" stroke="none" x="680" y="408" width="53.49169921875" height="13" transform="matrix(1 0 0 1 -136 -220)"/></g><g><g><path fill="none" stroke="none"/><text fill="#000000" stroke="none" font-family="Arial" font-size="13px" font-style="normal" font-weight="normal" text-decoration="undefined" x="706.745849609375" y="414.5" text-anchor="middle" dominant-baseline="central" transform="matrix(1 0 0 1 -136 -220)">«extend»</text></g></g><g><path fill="none" stroke="#000000" paint-order="fill stroke markers" d=" M 415 291 L 470 372" stroke-miterlimit="10" stroke-dasharray="3"/></g><g><path fill="none" stroke="#000000" paint-order="fill stroke markers" d=" M 460.80854526039457 365.95705702742566 L 470 372 L 467.7736659788867 361.22765407042493" stroke-miterlimit="10" stroke-dasharray=""/></g><g><rect fill="#ffffff" stroke="none" x="575" y="528" width="55.65625" height="13" transform="matrix(1 0 0 1 -136 -220)"/></g><g><g><path fill="none" stroke="none"/><text fill="#000000" stroke="none" font-family="Arial" font-size="13px" font-style="normal" font-weight="normal" text-decoration="undefined" x="602.828125" y="534.5" text-anchor="middle" dominant-baseline="central" transform="matrix(1 0 0 1 -136 -220)">«include»</text></g></g><g><path fill="none" stroke="#000000" paint-order="fill stroke markers" d=" M 543 287 L 645 303" stroke-miterlimit="10" stroke-dasharray="3"/></g><g><path fill="none" stroke="#000000" paint-order="fill stroke markers" d=" M 634.3077554932543 305.58377773966083 L 645 303 L 635.6124346423825 297.26644816396856" stroke-miterlimit="10" stroke-dasharray=""/></g><g><rect fill="#ffffff" stroke="none" x="697" y="490" width="55.65625" height="13" transform="matrix(1 0 0 1 -136 -220)"/></g><g><g><path fill="none" stroke="none"/><text fill="#000000" stroke="none" font-family="Arial" font-size="13px" font-style="normal" font-weight="normal" text-decoration="undefined" x="724.828125" y="496.5" text-anchor="middle" dominant-baseline="central" transform="matrix(1 0 0 1 -136 -220)">«include»</text></g></g><g><path fill="none" stroke="#000000" paint-order="fill stroke markers" d=" M 249 258 L 134 255" stroke-miterlimit="10" stroke-dasharray=""/></g><g><path fill="#C0C0C0" stroke="none" paint-order="stroke fill markers" d=" M 645 165 C 645 145.1177472 689.77152 129 745 129 C 800.22848 129 845 145.1177472 845 165 C 845 184.8822528 800.22848 201 745 201 C 689.77152 201 645 184.8822528 645 165 Z" fill-opacity="0.2"/></g><g><path fill="#ffffff" stroke="none" paint-order="stroke fill markers" d=" M 638 158 C 638 138.1177472 682.77152 122 738 122 C 793.22848 122 838 138.1177472 838 158 C 838 177.8822528 793.22848 194 738 194 C 682.77152 194 638 177.8822528 638 158 Z"/></g><g><path fill="none" stroke="#000000" paint-order="fill stroke markers" d=" M 638 158 C 638 138.1177472 682.77152 122 738 122 C 793.22848 122 838 138.1177472 838 158 C 838 177.8822528 793.22848 194 738 194 C 682.77152 194 638 177.8822528 638 158 Z" stroke-miterlimit="10" stroke-dasharray=""/></g><g><g><path fill="none" stroke="none"/><text fill="#000000" stroke="none" font-family="Arial" font-size="13px" font-style="normal" font-weight="bold" text-decoration="undefined" x="874" y="372.5" text-anchor="middle" dominant-baseline="central" transform="matrix(1 0 0 1 -136 -220)">UC27 - Intervallo</text><text fill="#000000" stroke="none" font-family="Arial" font-size="13px" font-style="normal" font-weight="bold" text-decoration="undefined" x="874" y="385.5" text-anchor="middle" dominant-baseline="central" transform="matrix(1 0 0 1 -136 -220)">temporale non valido</text></g></g><g><path fill="#C0C0C0" stroke="none" paint-order="stroke fill markers" d=" M 653 333 C 653 313.11774720000005 715.680128 297 793 297 C 870.319872 297 933 313.11774720000005 933 333 C 933 352.88225279999995 870.319872 369 793 369 C 715.680128 369 653 352.88225279999995 653 333 Z" fill-opacity="0.2"/></g><g><path fill="#ffffff" stroke="none" paint-order="stroke fill markers" d=" M 646 326 C 646 306.11774720000005 708.680128 290 786 290 C 863.319872 290 926 306.11774720000005 926 326 C 926 345.88225279999995 863.319872 362 786 362 C 708.680128 362 646 345.88225279999995 646 326 Z"/></g><g><path fill="none" stroke="#000000" paint-order="fill stroke markers" d=" M 646 326 C 646 306.11774720000005 708.680128 290 786 290 C 863.319872 290 926 306.11774720000005 926 326 C 926 345.88225279999995 863.319872 362 786 362 C 708.680128 362 646 345.88225279999995 646 326 Z" stroke-miterlimit="10" stroke-dasharray=""/></g><g><g><path fill="none" stroke="none"/><text fill="#000000" stroke="none" font-family="Arial" font-size="13px" font-style="normal" font-weight="bold" text-decoration="undefined" x="922" y="534" text-anchor="middle" dominant-baseline="central" transform="matrix(1 0 0 1 -136 -220)">UC26.1 - Visualizzazione</text><text fill="#000000" stroke="none" font-family="Arial" font-size="13px" font-style="normal" font-weight="bold" text-decoration="undefined" x="922" y="547" text-anchor="middle" dominant-baseline="central" transform="matrix(1 0 0 1 -136 -220)">grafico dati sensore filtrato</text><text fill="#000000" stroke="none" font-family="Arial" font-size="13px" font-style="normal" font-weight="bold" text-decoration="undefined" x="922" y="560" text-anchor="middle" dominant-baseline="central" transform="matrix(1 0 0 1 -136 -220)">per intervallo temporale</text></g></g></g></svg>