<svg version="1.1" xmlns="http://www.w3.org/2000/svg" xmlns:xlink="http://www.w3.org/1999/xlink" width="1037" height="404"><defs/><g><g><rect fill="#C0C0C0" stroke="none" x="540" y="377" width="816" height="384" transform="matrix(1 0 0 1 -323 -360)" fill-opacity="0.2"/></g><g><rect fill="#ffffff" stroke="none" x="533" y="370" width="816" height="384" transform="matrix(1 0 0 1 -323 -360)"/></g><g><path fill="none" stroke="#000000" paint-order="fill stroke markers" d=" M 210 10 L 1026 10 L 1026 394 L 210 394 L 210 10 Z Z" stroke-miterlimit="10" stroke-dasharray=""/></g><g><g><path fill="none" stroke="none"/><text fill="#000000" stroke="none" font-family="Arial" font-size="13px" font-style="normal" font-weight="bold" text-decoration="undefined" x="941.5" y="383.5" text-anchor="middle" dominant-baseline="central" transform="matrix(1 0 0 1 -323 -360)">Sistema Cloud</text></g></g><g><path fill="#ffffff" stroke="none" paint-order="stroke fill markers" d=" M 62.860439453125025 179.85000000000002 C 62.860439453125025 174.96227952000004 66.81824182112501 171 71.700439453125 171 C 76.58263708512499 171 80.54043945312497 174.96227952000004 80.54043945312497 179.85000000000002 C 80.54043945312497 184.73772048 76.58263708512499 188.70000000000005 71.700439453125 188.70000000000005 C 66.81824182112501 188.70000000000005 62.860439453125025 184.73772048 62.860439453125025 179.85000000000002 Z"/></g><g><path fill="none" stroke="#000000" paint-order="fill stroke markers" d=" M 62.860439453125025 179.85000000000002 C 62.860439453125025 174.96227952000004 66.81824182112501 171 71.700439453125 171 C 76.58263708512499 171 80.54043945312497 174.96227952000004 80.54043945312497 179.85000000000002 C 80.54043945312497 184.73772048 76.58263708512499 188.70000000000005 71.700439453125 188.70000000000005 C 66.81824182112501 188.70000000000005 62.860439453125025 184.73772048 62.860439453125025 179.85000000000002 Z" stroke-miterlimit="10" stroke-dasharray=""/></g><g><path fill="none" stroke="#000000" paint-order="fill stroke markers" d=" M 71.700439453125 188.70000000000005 L 71.700439453125 206.29999999999995" stroke-miterlimit="10" stroke-dasharray=""/></g><g><path fill="none" stroke="#000000" paint-order="fill stroke markers" d=" M 62.340439453124986 195.29999999999995 L 81.06043945312501 195.29999999999995" stroke-miterlimit="10" stroke-dasharray=""/></g><g><path fill="none" stroke="#000000" paint-order="fill stroke markers" d=" M 71.700439453125 206.29999999999995 L 58.700439453125 224" stroke-miterlimit="10" stroke-dasharray=""/></g><g><path fill="none" stroke="#000000" paint-order="fill stroke markers" d=" M 71.700439453125 206.29999999999995 L 84.700439453125 224" stroke-miterlimit="10" stroke-dasharray=""/></g><g><g><path fill="none" stroke="none"/><text fill="#000000" stroke="none" font-family="Arial" font-size="13px" font-style="normal" font-weight="bold" text-decoration="undefined" x="395.200439453125" y="598.5" text-anchor="middle" dominant-baseline="central" transform="matrix(1 0 0 1 -323 -360)">Utente autenticato</text></g></g><g><path fill="#C0C0C0" stroke="none" paint-order="stroke fill markers" d=" M 377 227.5 C 377 212.86445279999998 445.0527104 201 529 201 C 612.9472896 201 681 212.86445279999998 681 227.5 C 681 242.13554720000002 612.9472896 254 529 254 C 445.0527104 254 377 242.13554720000002 377 227.5 Z" fill-opacity="0.2"/></g><g><path fill="#ffffff" stroke="none" paint-order="stroke fill markers" d=" M 370 220.5 C 370 205.86445279999998 438.0527104 194 522 194 C 605.9472896 194 674 205.86445279999998 674 220.5 C 674 235.13554720000002 605.9472896 247 522 247 C 438.0527104 247 370 235.13554720000002 370 220.5 Z"/></g><g><path fill="none" stroke="#000000" paint-order="fill stroke markers" d=" M 370 220.5 C 370 205.86445279999998 438.0527104 194 522 194 C 605.9472896 194 674 205.86445279999998 674 220.5 C 674 235.13554720000002 605.9472896 247 522 247 C 438.0527104 247 370 235.13554720000002 370 220.5 Z" stroke-miterlimit="10" stroke-dasharray=""/></g><g><g><path fill="none" stroke="none"/><text fill="#000000" stroke="none" font-family="Arial" font-size="13px" font-style="normal" font-weight="bold" text-decoration="undefined" x="845" y="575" text-anchor="middle" dominant-baseline="central" transform="matrix(1 0 0 1 -323 -360)">UC26 - Filtraggio per intervallo</text><text fill="#000000" stroke="none" font-family="Arial" font-size="13px" font-style="normal" font-weight="bold" text-decoration="undefined" x="845" y="588" text-anchor="middle" dominant-baseline="central" transform="matrix(1 0 0 1 -323 -360)">temporale dati storico sensore</text></g></g><g><path fill="#C0C0C0" stroke="none" paint-order="stroke fill markers" d=" M 385 83.5 C 385 68.86445279999998 447.68012799999997 57 525 57 C 602.319872 57 665 68.86445279999998 665 83.5 C 665 98.13554720000002 602.319872 110 525 110 C 447.68012799999997 110 385 98.13554720000002 385 83.5 Z" fill-opacity="0.2"/></g><g><path fill="#ffffff" stroke="none" paint-order="stroke fill markers" d=" M 378 76.5 C 378 61.86445279999998 440.68012799999997 50 518 50 C 595.319872 50 658 61.86445279999998 658 76.5 C 658 91.13554720000002 595.319872 103 518 103 C 440.68012799999997 103 378 91.13554720000002 378 76.5 Z"/></g><g><path fill="none" stroke="#000000" paint-order="fill stroke markers" d=" M 378 76.5 C 378 61.86445279999998 440.68012799999997 50 518 50 C 595.319872 50 658 61.86445279999998 658 76.5 C 658 91.13554720000002 595.319872 103 518 103 C 440.68012799999997 103 378 91.13554720000002 378 76.5 Z" stroke-miterlimit="10" stroke-dasharray=""/></g><g><g><path fill="none" stroke="none"/><text fill="#000000" stroke="none" font-family="Arial" font-size="13px" font-style="normal" font-weight="bold" text-decoration="undefined" x="841" y="431" text-anchor="middle" dominant-baseline="central" transform="matrix(1 0 0 1 -323 -360)">UC30 - Dati non disponibili</text><text fill="#000000" stroke="none" font-family="Arial" font-size="13px" font-style="normal" font-weight="bold" text-decoration="undefined" x="841" y="444" text-anchor="middle" dominant-baseline="central" transform="matrix(1 0 0 1 -323 -360)">per il sensore selezionato</text></g></g><g><path fill="#C0C0C0" stroke="none" paint-order="stroke fill markers" d=" M 817 213 C 817 193.11774720000005 861.77152 177 917 177 C 972.22848 177 1017 193.11774720000005 1017 213 C 1017 232.88225279999995 972.22848 249 917 249 C 861.77152 249 817 232.88225279999995 817 213 Z" fill-opacity="0.2"/></g><g><path fill="#ffffff" stroke="none" paint-order="stroke fill markers" d=" M 810 206 C 810 186.11774720000005 854.77152 170 910 170 C 965.22848 170 1010 186.11774720000005 1010 206 C 1010 225.88225279999995 965.22848 242 910 242 C 854.77152 242 810 225.88225279999995 810 206 Z"/></g><g><path fill="none" stroke="#000000" paint-order="fill stroke markers" d=" M 810 206 C 810 186.11774720000005 854.77152 170 910 170 C 965.22848 170 1010 186.11774720000005 1010 206 C 1010 225.88225279999995 965.22848 242 910 242 C 854.77152 242 810 225.88225279999995 810 206 Z" stroke-miterlimit="10" stroke-dasharray=""/></g><g><g><path fill="none" stroke="none"/><text fill="#000000" stroke="none" font-family="Arial" font-size="13px" font-style="normal" font-weight="bold" text-decoration="undefined" x="1233" y="560.5" text-anchor="middle" dominant-baseline="central" transform="matrix(1 0 0 1 -323 -360)">UC27 - Intervallo</text><text fill="#000000" stroke="none" font-family="Arial" font-size="13px" font-style="normal" font-weight="bold" text-decoration="undefined" x="1233" y="573.5" text-anchor="middle" dominant-baseline="central" transform="matrix(1 0 0 1 -323 -360)">temporale non valido</text></g></g><g><path fill="#C0C0C0" stroke="none" paint-order="stroke fill markers" d=" M 409 363.5 C 409 348.8644528 462.05425119999995 337 527.5 337 C 592.9457488 337 646 348.8644528 646 363.5 C 646 378.1355472 592.9457488 390 527.5 390 C 462.05425119999995 390 409 378.1355472 409 363.5 Z" fill-opacity="0.2"/></g><g><path fill="#ffffff" stroke="none" paint-order="stroke fill markers" d=" M 402 356.5 C 402 341.8644528 455.05425119999995 330 520.5 330 C 585.9457488 330 639 341.8644528 639 356.5 C 639 371.1355472 585.9457488 383 520.5 383 C 455.05425119999995 383 402 371.1355472 402 356.5 Z"/></g><g><path fill="none" stroke="#000000" paint-order="fill stroke markers" d=" M 402 356.5 C 402 341.8644528 455.05425119999995 330 520.5 330 C 585.9457488 330 639 341.8644528 639 356.5 C 639 371.1355472 585.9457488 383 520.5 383 C 455.05425119999995 383 402 371.1355472 402 356.5 Z" stroke-miterlimit="10" stroke-dasharray=""/></g><g><g><path fill="none" stroke="none"/><text fill="#000000" stroke="none" font-family="Arial" font-size="13px" font-style="normal" font-weight="bold" text-decoration="undefined" x="843.5" y="711" text-anchor="middle" dominant-baseline="central" transform="matrix(1 0 0 1 -323 -360)">UC23 - Selezione</text><text fill="#000000" stroke="none" font-family="Arial" font-size="13px" font-style="normal" font-weight="bold" text-decoration="undefined" x="843.5" y="724" text-anchor="middle" dominant-baseline="central" transform="matrix(1 0 0 1 -323 -360)">sensore</text></g></g><g><path fill="#C0C0C0" stroke="none" paint-order="stroke fill markers" d=" M 697 325 C 697 305.11774720000005 765.0527104 289 849 289 C 932.9472896 289 1001 305.11774720000005 1001 325 C 1001 344.88225279999995 932.9472896 361 849 361 C 765.0527104 361 697 344.88225279999995 697 325 Z" fill-opacity="0.2"/></g><g><path fill="#ffffff" stroke="none" paint-order="stroke fill markers" d=" M 690 318 C 690 298.11774720000005 758.0527104 282 842 282 C 925.9472896 282 994 298.11774720000005 994 318 C 994 337.88225279999995 925.9472896 354 842 354 C 758.0527104 354 690 337.88225279999995 690 318 Z"/></g><g><path fill="none" stroke="#000000" paint-order="fill stroke markers" d=" M 690 318 C 690 298.11774720000005 758.0527104 282 842 282 C 925.9472896 282 994 298.11774720000005 994 318 C 994 337.88225279999995 925.9472896 354 842 354 C 758.0527104 354 690 337.88225279999995 690 318 Z" stroke-miterlimit="10" stroke-dasharray=""/></g><g><g><path fill="none" stroke="none"/><text fill="#000000" stroke="none" font-family="Arial" font-size="13px" font-style="normal" font-weight="bold" text-decoration="undefined" x="1165" y="666" text-anchor="middle" dominant-baseline="central" transform="matrix(1 0 0 1 -323 -360)">UC26.1 - Visualizzazione grafico</text><text fill="#000000" stroke="none" font-family="Arial" font-size="13px" font-style="normal" font-weight="bold" text-decoration="undefined" x="1165" y="679" text-anchor="middle" dominant-baseline="central" transform="matrix(1 0 0 1 -323 -360)">dati sensore filtrato per</text><text fill="#000000" stroke="none" font-family="Arial" font-size="13px" font-style="normal" font-weight="bold" text-decoration="undefined" x="1165" y="692" text-anchor="middle" dominant-baseline="central" transform="matrix(1 0 0 1 -323 -360)">intervallo temporale</text></g></g><g><path fill="none" stroke="#000000" paint-order="fill stroke markers" d=" M 519 104 L 521 193" stroke-miterlimit="10" stroke-dasharray="3"/></g><g><path fill="none" stroke="#000000" paint-order="fill stroke markers" d=" M 516.5632276423031 182.9344622078114 L 521 193 L 524.9801382084376 182.74531815014552" stroke-miterlimit="10" stroke-dasharray=""/></g><g><rect fill="#ffffff" stroke="none" x="846" y="501" width="53.49169921875" height="13" transform="matrix(1 0 0 1 -323 -360)"/></g><g><g><path fill="none" stroke="none"/><text fill="#000000" stroke="none" font-family="Arial" font-size="13px" font-style="normal" font-weight="normal" text-decoration="undefined" x="872.745849609375" y="507.5" text-anchor="middle" dominant-baseline="central" transform="matrix(1 0 0 1 -323 -360)">«extend»</text></g></g><g><path fill="none" stroke="#000000" paint-order="fill stroke markers" d=" M 809 210 L 675 214" stroke-miterlimit="10" stroke-dasharray="3"/></g><g><path fill="none" stroke="#000000" paint-order="fill stroke markers" d=" M 685.0325487696315 209.4891281125524 L 675 214 L 685.2837513682691 217.90441516691328" stroke-miterlimit="10" stroke-dasharray=""/></g><g><rect fill="#ffffff" stroke="none" x="1053" y="552" width="53.49169921875" height="13" transform="matrix(1 0 0 1 -323 -360)"/></g><g><g><path fill="none" stroke="none"/><text fill="#000000" stroke="none" font-family="Arial" font-size="13px" font-style="normal" font-weight="normal" text-decoration="undefined" x="1079.745849609375" y="558.5" text-anchor="middle" dominant-baseline="central" transform="matrix(1 0 0 1 -323 -360)">«extend»</text></g></g><g><path fill="none" stroke="#000000" paint-order="fill stroke markers" d=" M 522 248 L 520 329" stroke-miterlimit="10" stroke-dasharray="3"/></g><g><path fill="none" stroke="#000000" paint-order="fill stroke markers" d=" M 516.042618638389 318.7365145901223 L 520 329 L 524.4590889353974 318.9443286715299" stroke-miterlimit="10" stroke-dasharray=""/></g><g><rect fill="#ffffff" stroke="none" x="846" y="642" width="55.65625" height="13" transform="matrix(1 0 0 1 -323 -360)"/></g><g><g><path fill="none" stroke="none"/><text fill="#000000" stroke="none" font-family="Arial" font-size="13px" font-style="normal" font-weight="normal" text-decoration="undefined" x="873.828125" y="648.5" text-anchor="middle" dominant-baseline="central" transform="matrix(1 0 0 1 -323 -360)">«include»</text></g></g><g><path fill="none" stroke="#000000" paint-order="fill stroke markers" d=" M 613 248 L 721 281" stroke-miterlimit="10" stroke-dasharray="3"/></g><g><path fill="none" stroke="#000000" paint-order="fill stroke markers" d=" M 710.0508108195861 282.05605695467045 L 721 281 L 712.5110090480682 274.00449911600174" stroke-miterlimit="10" stroke-dasharray=""/></g><g><rect fill="#ffffff" stroke="none" x="960" y="598" width="55.65625" height="13" transform="matrix(1 0 0 1 -323 -360)"/></g><g><g><path fill="none" stroke="none"/><text fill="#000000" stroke="none" font-family="Arial" font-size="13px" font-style="normal" font-weight="normal" text-decoration="undefined" x="987.828125" y="604.5" text-anchor="middle" dominant-baseline="central" transform="matrix(1 0 0 1 -323 -360)">«include»</text></g></g><g><path fill="none" stroke="#000000" paint-order="fill stroke markers" d=" M 369 217 L 134 211" stroke-miterlimit="10" stroke-dasharray=""/></g><g><path fill="#ffffff" stroke="none" paint-order="stroke fill markers" d=" M 226 74 L 335 74 L 345 84 L 345 204 L 226 204 L 226 74"/></g><g><path fill="none" stroke="#000000" paint-order="fill stroke markers" d=" M 226 74 L 335 74 L 345 84 L 345 204 L 226 204 L 226 74 L 226 74" stroke-miterlimit="10" stroke-dasharray=""/></g><g><path fill="none" stroke="#000000" paint-order="fill stroke markers" d=" M 335 74 L 335 84 L 345 84 L 335 74" stroke-miterlimit="10" stroke-dasharray=""/></g><g><g><path fill="none" stroke="none"/><text fill="#000000" stroke="none" font-family="Arial" font-size="13px" font-style="normal" font-weight="normal" text-decoration="undefined" x="609" y="439" text-anchor="middle" dominant-baseline="text-before-edge" transform="matrix(1 0 0 1 -323 -360)">Condizione:</text></g></g><g><g><path fill="none" stroke="none"/><text fill="#000000" stroke="none" font-family="Arial" font-size="13px" font-style="normal" font-weight="normal" text-decoration="undefined" x="609" y="454" text-anchor="middle" dominant-baseline="text-before-edge" transform="matrix(1 0 0 1 -323 -360)">L'utente ha</text><text fill="#000000" stroke="none" font-family="Arial" font-size="13px" font-style="normal" font-weight="normal" text-decoration="undefined" x="609" y="467" text-anchor="middle" dominant-baseline="text-before-edge" transform="matrix(1 0 0 1 -323 -360)">selezionato un</text><text fill="#000000" stroke="none" font-family="Arial" font-size="13px" font-style="normal" font-weight="normal" text-decoration="undefined" x="609" y="480" text-anchor="middle" dominant-baseline="text-before-edge" transform="matrix(1 0 0 1 -323 -360)">sensore e un</text><text fill="#000000" stroke="none" font-family="Arial" font-size="13px" font-style="normal" font-weight="normal" text-decoration="undefined" x="609" y="493" text-anchor="middle" dominant-baseline="text-before-edge" transform="matrix(1 0 0 1 -323 -360)">intervallo</text><text fill="#000000" stroke="none" font-family="Arial" font-size="13px" font-style="normal" font-weight="normal" text-decoration="undefined" x="609" y="506" text-anchor="middle" dominant-baseline="text-before-edge" transform="matrix(1 0 0 1 -323 -360)">temporale per cui</text><text fill="#000000" stroke="none" font-family="Arial" font-size="13px" font-style="normal" font-weight="normal" text-decoration="undefined" x="609" y="519" text-anchor="middle" dominant-baseline="text-before-edge" transform="matrix(1 0 0 1 -323 -360)">non sono</text><text fill="#000000" stroke="none" font-family="Arial" font-size="13px" font-style="normal" font-weight="normal" text-decoration="undefined" x="609" y="532" text-anchor="middle" dominant-baseline="text-before-edge" transform="matrix(1 0 0 1 -323 -360)">disponibili dati</text><text fill="#000000" stroke="none" font-family="Arial" font-size="13px" font-style="normal" font-weight="normal" text-decoration="undefined" x="609" y="545" text-anchor="middle" dominant-baseline="text-before-edge" transform="matrix(1 0 0 1 -323 -360)">storici</text></g></g><g><path fill="none" stroke="#000000" paint-order="fill stroke markers" d=" M 347 141 L 520 148" stroke-miterlimit="10" stroke-dasharray="3"/></g><g><path fill="#ffffff" stroke="none" paint-order="stroke fill markers" d=" M 706 26 L 815 26 L 825 36 L 825 143 L 706 143 L 706 26"/></g><g><path fill="none" stroke="#000000" paint-order="fill stroke markers" d=" M 706 26 L 815 26 L 825 36 L 825 143 L 706 143 L 706 26 L 706 26" stroke-miterlimit="10" stroke-dasharray=""/></g><g><path fill="none" stroke="#000000" paint-order="fill stroke markers" d=" M 815 26 L 815 36 L 825 36 L 815 26" stroke-miterlimit="10" stroke-dasharray=""/></g><g><g><path fill="none" stroke="none"/><text fill="#000000" stroke="none" font-family="Arial" font-size="13px" font-style="normal" font-weight="normal" text-decoration="undefined" x="1089" y="398" text-anchor="middle" dominant-baseline="text-before-edge" transform="matrix(1 0 0 1 -323 -360)">Condizione:</text></g></g><g><g><path fill="none" stroke="none"/><text fill="#000000" stroke="none" font-family="Arial" font-size="13px" font-style="normal" font-weight="normal" text-decoration="undefined" x="1089" y="413" text-anchor="middle" dominant-baseline="text-before-edge" transform="matrix(1 0 0 1 -323 -360)">L'utente ha</text><text fill="#000000" stroke="none" font-family="Arial" font-size="13px" font-style="normal" font-weight="normal" text-decoration="undefined" x="1089" y="426" text-anchor="middle" dominant-baseline="text-before-edge" transform="matrix(1 0 0 1 -323 -360)">selezionato un</text><text fill="#000000" stroke="none" font-family="Arial" font-size="13px" font-style="normal" font-weight="normal" text-decoration="undefined" x="1089" y="439" text-anchor="middle" dominant-baseline="text-before-edge" transform="matrix(1 0 0 1 -323 -360)">intervallo</text><text fill="#000000" stroke="none" font-family="Arial" font-size="13px" font-style="normal" font-weight="normal" text-decoration="undefined" x="1089" y="452" text-anchor="middle" dominant-baseline="text-before-edge" transform="matrix(1 0 0 1 -323 -360)">temporale con</text><text fill="#000000" stroke="none" font-family="Arial" font-size="13px" font-style="normal" font-weight="normal" text-decoration="undefined" x="1089" y="465" text-anchor="middle" dominant-baseline="text-before-edge" transform="matrix(1 0 0 1 -323 -360)">date future o nullo</text></g></g><g><path fill="none" stroke="#000000" paint-order="fill stroke markers" d=" M 755 145 L 742 212" stroke-miterlimit="10" stroke-dasharray="3"/></g></g></svg>