<svg version="1.1" xmlns="http://www.w3.org/2000/svg" xmlns:xlink="http://www.w3.org/1999/xlink" width="1068" height="377"><defs/><g><g><path fill="#ffffff" stroke="none" paint-order="stroke fill markers" d=" M 62.860439453125 163.85000000000002 C 62.860439453125 158.96227952000004 66.81824182112499 155 71.700439453125 155 C 76.58263708512501 155 80.540439453125 158.96227952000004 80.540439453125 163.85000000000002 C 80.540439453125 168.73772048 76.58263708512501 172.70000000000005 71.700439453125 172.70000000000005 C 66.81824182112499 172.70000000000005 62.860439453125 168.73772048 62.860439453125 163.85000000000002 Z"/></g><g><path fill="none" stroke="#000000" paint-order="fill stroke markers" d=" M 62.860439453125 163.85000000000002 C 62.860439453125 158.96227952000004 66.81824182112499 155 71.700439453125 155 C 76.58263708512501 155 80.540439453125 158.96227952000004 80.540439453125 163.85000000000002 C 80.540439453125 168.73772048 76.58263708512501 172.70000000000005 71.700439453125 172.70000000000005 C 66.81824182112499 172.70000000000005 62.860439453125 168.73772048 62.860439453125 163.85000000000002 Z" stroke-miterlimit="10" stroke-dasharray=""/></g><g><path fill="none" stroke="#000000" paint-order="fill stroke markers" d=" M 71.700439453125 172.70000000000005 L 71.700439453125 190.29999999999995" stroke-miterlimit="10" stroke-dasharray=""/></g><g><path fill="none" stroke="#000000" paint-order="fill stroke markers" d=" M 62.340439453124986 179.29999999999995 L 81.06043945312501 179.29999999999995" stroke-miterlimit="10" stroke-dasharray=""/></g><g><path fill="none" stroke="#000000" paint-order="fill stroke markers" d=" M 71.700439453125 190.29999999999995 L 58.700439453125 208" stroke-miterlimit="10" stroke-dasharray=""/></g><g><path fill="none" stroke="#000000" paint-order="fill stroke markers" d=" M 71.700439453125 190.29999999999995 L 84.700439453125 208" stroke-miterlimit="10" stroke-dasharray=""/></g><g><g><path fill="none" stroke="none"/><text fill="#000000" stroke="none" font-family="Arial" font-size="13px" font-style="normal" font-weight="bold" text-decoration="undefined" x="187.200439453125" y="641.5" text-anchor="middle" dominant-baseline="central" transform="matrix(1 0 0 1 -115 -419)">Utente autenticato</text></g></g><g><path fill="#C0C0C0" stroke="none" paint-order="stroke fill markers" d=" M 377 211.5 C 377 196.86445279999998 445.0527104 185 529 185 C 612.9472896 185 681 196.86445279999998 681 211.5 C 681 226.13554720000002 612.9472896 238 529 238 C 445.0527104 238 377 226.13554720000002 377 211.5 Z" fill-opacity="0.2"/></g><g><path fill="#ffffff" stroke="none" paint-order="stroke fill markers" d=" M 370 204.5 C 370 189.86445279999998 438.0527104 178 522 178 C 605.9472896 178 674 189.86445279999998 674 204.5 C 674 219.13554720000002 605.9472896 231 522 231 C 438.0527104 231 370 219.13554720000002 370 204.5 Z"/></g><g><path fill="none" stroke="#000000" paint-order="fill stroke markers" d=" M 370 204.5 C 370 189.86445279999998 438.0527104 178 522 178 C 605.9472896 178 674 189.86445279999998 674 204.5 C 674 219.13554720000002 605.9472896 231 522 231 C 438.0527104 231 370 219.13554720000002 370 204.5 Z" stroke-miterlimit="10" stroke-dasharray=""/></g><g><g><path fill="none" stroke="none"/><text fill="#000000" stroke="none" font-family="Arial" font-size="13px" font-style="normal" font-weight="bold" text-decoration="undefined" x="637" y="618" text-anchor="middle" dominant-baseline="central" transform="matrix(1 0 0 1 -115 -419)">UC26 - Filtraggio per intervallo</text><text fill="#000000" stroke="none" font-family="Arial" font-size="13px" font-style="normal" font-weight="bold" text-decoration="undefined" x="637" y="631" text-anchor="middle" dominant-baseline="central" transform="matrix(1 0 0 1 -115 -419)">temporale dati storico sensore</text></g></g><g><path fill="#C0C0C0" stroke="none" paint-order="stroke fill markers" d=" M 385 67.5 C 385 52.86445279999998 447.68012799999997 41 525 41 C 602.319872 41 665 52.86445279999998 665 67.5 C 665 82.13554720000002 602.319872 94 525 94 C 447.68012799999997 94 385 82.13554720000002 385 67.5 Z" fill-opacity="0.2"/></g><g><path fill="#ffffff" stroke="none" paint-order="stroke fill markers" d=" M 378 60.5 C 378 45.86445279999998 440.68012799999997 34 518 34 C 595.319872 34 658 45.86445279999998 658 60.5 C 658 75.13554720000002 595.319872 87 518 87 C 440.68012799999997 87 378 75.13554720000002 378 60.5 Z"/></g><g><path fill="none" stroke="#000000" paint-order="fill stroke markers" d=" M 378 60.5 C 378 45.86445279999998 440.68012799999997 34 518 34 C 595.319872 34 658 45.86445279999998 658 60.5 C 658 75.13554720000002 595.319872 87 518 87 C 440.68012799999997 87 378 75.13554720000002 378 60.5 Z" stroke-miterlimit="10" stroke-dasharray=""/></g><g><g><path fill="none" stroke="none"/><text fill="#000000" stroke="none" font-family="Arial" font-size="13px" font-style="normal" font-weight="bold" text-decoration="undefined" x="633" y="474" text-anchor="middle" dominant-baseline="central" transform="matrix(1 0 0 1 -115 -419)">UC30 - Dati non disponibili</text><text fill="#000000" stroke="none" font-family="Arial" font-size="13px" font-style="normal" font-weight="bold" text-decoration="undefined" x="633" y="487" text-anchor="middle" dominant-baseline="central" transform="matrix(1 0 0 1 -115 -419)">per il sensore selezionato</text></g></g><g><path fill="#C0C0C0" stroke="none" paint-order="stroke fill markers" d=" M 849 173 C 849 153.11774720000005 897.3532416 137 957 137 C 1016.6467584 137 1065 153.11774720000005 1065 173 C 1065 192.88225279999995 1016.6467584 209 957 209 C 897.3532416 209 849 192.88225279999995 849 173 Z" fill-opacity="0.2"/></g><g><path fill="#ffffff" stroke="none" paint-order="stroke fill markers" d=" M 842 166 C 842 146.11774720000005 890.3532416 130 950 130 C 1009.6467584 130 1058 146.11774720000005 1058 166 C 1058 185.88225279999995 1009.6467584 202 950 202 C 890.3532416 202 842 185.88225279999995 842 166 Z"/></g><g><path fill="none" stroke="#000000" paint-order="fill stroke markers" d=" M 842 166 C 842 146.11774720000005 890.3532416 130 950 130 C 1009.6467584 130 1058 146.11774720000005 1058 166 C 1058 185.88225279999995 1009.6467584 202 950 202 C 890.3532416 202 842 185.88225279999995 842 166 Z" stroke-miterlimit="10" stroke-dasharray=""/></g><g><g><path fill="none" stroke="none"/><text fill="#000000" stroke="none" font-family="Arial" font-size="13px" font-style="normal" font-weight="bold" text-decoration="undefined" x="1065" y="579.5" text-anchor="middle" dominant-baseline="central" transform="matrix(1 0 0 1 -115 -419)">UC27 - Intervallo</text><text fill="#000000" stroke="none" font-family="Arial" font-size="13px" font-style="normal" font-weight="bold" text-decoration="undefined" x="1065" y="592.5" text-anchor="middle" dominant-baseline="central" transform="matrix(1 0 0 1 -115 -419)">temporale non valido</text></g></g><g><path fill="#C0C0C0" stroke="none" paint-order="stroke fill markers" d=" M 409 347.5 C 409 332.8644528 462.05425119999995 321 527.5 321 C 592.9457488 321 646 332.8644528 646 347.5 C 646 362.1355472 592.9457488 374 527.5 374 C 462.05425119999995 374 409 362.1355472 409 347.5 Z" fill-opacity="0.2"/></g><g><path fill="#ffffff" stroke="none" paint-order="stroke fill markers" d=" M 402 340.5 C 402 325.8644528 455.05425119999995 314 520.5 314 C 585.9457488 314 639 325.8644528 639 340.5 C 639 355.1355472 585.9457488 367 520.5 367 C 455.05425119999995 367 402 355.1355472 402 340.5 Z"/></g><g><path fill="none" stroke="#000000" paint-order="fill stroke markers" d=" M 402 340.5 C 402 325.8644528 455.05425119999995 314 520.5 314 C 585.9457488 314 639 325.8644528 639 340.5 C 639 355.1355472 585.9457488 367 520.5 367 C 455.05425119999995 367 402 355.1355472 402 340.5 Z" stroke-miterlimit="10" stroke-dasharray=""/></g><g><g><path fill="none" stroke="none"/><text fill="#000000" stroke="none" font-family="Arial" font-size="13px" font-style="normal" font-weight="bold" text-decoration="undefined" x="635.5" y="754" text-anchor="middle" dominant-baseline="central" transform="matrix(1 0 0 1 -115 -419)">UC23 - Selezione</text><text fill="#000000" stroke="none" font-family="Arial" font-size="13px" font-style="normal" font-weight="bold" text-decoration="undefined" x="635.5" y="767" text-anchor="middle" dominant-baseline="central" transform="matrix(1 0 0 1 -115 -419)">sensore</text></g></g><g><path fill="#C0C0C0" stroke="none" paint-order="stroke fill markers" d=" M 697 309 C 697 289.11774720000005 777.588736 273 877 273 C 976.4112640000001 273 1057 289.11774720000005 1057 309 C 1057 328.88225279999995 976.4112640000001 345 877 345 C 777.588736 345 697 328.88225279999995 697 309 Z" fill-opacity="0.2"/></g><g><path fill="#ffffff" stroke="none" paint-order="stroke fill markers" d=" M 690 302 C 690 282.11774720000005 770.588736 266 870 266 C 969.4112640000001 266 1050 282.11774720000005 1050 302 C 1050 321.88225279999995 969.4112640000001 338 870 338 C 770.588736 338 690 321.88225279999995 690 302 Z"/></g><g><path fill="none" stroke="#000000" paint-order="fill stroke markers" d=" M 690 302 C 690 282.11774720000005 770.588736 266 870 266 C 969.4112640000001 266 1050 282.11774720000005 1050 302 C 1050 321.88225279999995 969.4112640000001 338 870 338 C 770.588736 338 690 321.88225279999995 690 302 Z" stroke-miterlimit="10" stroke-dasharray=""/></g><g><g><path fill="none" stroke="none"/><text fill="#000000" stroke="none" font-family="Arial" font-size="13px" font-style="normal" font-weight="bold" text-decoration="undefined" x="985" y="709" text-anchor="middle" dominant-baseline="central" transform="matrix(1 0 0 1 -115 -419)">UC26.1 - Visualizzazione grafico dati</text><text fill="#000000" stroke="none" font-family="Arial" font-size="13px" font-style="normal" font-weight="bold" text-decoration="undefined" x="985" y="722" text-anchor="middle" dominant-baseline="central" transform="matrix(1 0 0 1 -115 -419)">sensore filtrato per intervallo</text><text fill="#000000" stroke="none" font-family="Arial" font-size="13px" font-style="normal" font-weight="bold" text-decoration="undefined" x="985" y="735" text-anchor="middle" dominant-baseline="central" transform="matrix(1 0 0 1 -115 -419)">temporale</text></g></g><g><path fill="none" stroke="#000000" paint-order="fill stroke markers" d=" M 519 88 L 521 177" stroke-miterlimit="10" stroke-dasharray="3"/></g><g><path fill="none" stroke="#000000" paint-order="fill stroke markers" d=" M 516.5632276423031 166.9344622078114 L 521 177 L 524.9801382084376 166.74531815014552" stroke-miterlimit="10" stroke-dasharray=""/></g><g><rect fill="#ffffff" stroke="none" x="638" y="544" width="53.49169921875" height="13" transform="matrix(1 0 0 1 -115 -419)"/></g><g><g><path fill="none" stroke="none"/><text fill="#000000" stroke="none" font-family="Arial" font-size="13px" font-style="normal" font-weight="normal" text-decoration="undefined" x="664.745849609375" y="550.5" text-anchor="middle" dominant-baseline="central" transform="matrix(1 0 0 1 -115 -419)">«extend»</text></g></g><g><path fill="none" stroke="#000000" paint-order="fill stroke markers" d=" M 841 176 L 675 190" stroke-miterlimit="10" stroke-dasharray="3"/></g><g><path fill="none" stroke="#000000" paint-order="fill stroke markers" d=" M 684.7729603728294 184.9513124922306 L 675 190 L 685.4804877247307 193.3405653790595" stroke-miterlimit="10" stroke-dasharray=""/></g><g><rect fill="#ffffff" stroke="none" x="860" y="581" width="53.49169921875" height="13" transform="matrix(1 0 0 1 -115 -419)"/></g><g><g><path fill="none" stroke="none"/><text fill="#000000" stroke="none" font-family="Arial" font-size="13px" font-style="normal" font-weight="normal" text-decoration="undefined" x="886.745849609375" y="587.5" text-anchor="middle" dominant-baseline="central" transform="matrix(1 0 0 1 -115 -419)">«extend»</text></g></g><g><path fill="none" stroke="#000000" paint-order="fill stroke markers" d=" M 522 232 L 520 313" stroke-miterlimit="10" stroke-dasharray="3"/></g><g><path fill="none" stroke="#000000" paint-order="fill stroke markers" d=" M 516.042618638389 302.7365145901223 L 520 313 L 524.4590889353974 302.9443286715299" stroke-miterlimit="10" stroke-dasharray=""/></g><g><rect fill="#ffffff" stroke="none" x="638" y="685" width="55.65625" height="13" transform="matrix(1 0 0 1 -115 -419)"/></g><g><g><path fill="none" stroke="none"/><text fill="#000000" stroke="none" font-family="Arial" font-size="13px" font-style="normal" font-weight="normal" text-decoration="undefined" x="665.828125" y="691.5" text-anchor="middle" dominant-baseline="central" transform="matrix(1 0 0 1 -115 -419)">«include»</text></g></g><g><path fill="none" stroke="#000000" paint-order="fill stroke markers" d=" M 621 232 L 739 265" stroke-miterlimit="10" stroke-dasharray="3"/></g><g><path fill="none" stroke="#000000" paint-order="fill stroke markers" d=" M 728.0791112543106 266.3168861014816 L 739 265 L 730.3465864189312 258.2089446037471" stroke-miterlimit="10" stroke-dasharray=""/></g><g><rect fill="#ffffff" stroke="none" x="765" y="641" width="55.65625" height="13" transform="matrix(1 0 0 1 -115 -419)"/></g><g><g><path fill="none" stroke="none"/><text fill="#000000" stroke="none" font-family="Arial" font-size="13px" font-style="normal" font-weight="normal" text-decoration="undefined" x="792.828125" y="647.5" text-anchor="middle" dominant-baseline="central" transform="matrix(1 0 0 1 -115 -419)">«include»</text></g></g><g><path fill="none" stroke="#000000" paint-order="fill stroke markers" d=" M 369 201 L 134 195" stroke-miterlimit="10" stroke-dasharray=""/></g><g><path fill="#ffffff" stroke="none" paint-order="stroke fill markers" d=" M 226 58 L 335 58 L 345 68 L 345 188 L 226 188 L 226 58"/></g><g><path fill="none" stroke="#000000" paint-order="fill stroke markers" d=" M 226 58 L 335 58 L 345 68 L 345 188 L 226 188 L 226 58 L 226 58" stroke-miterlimit="10" stroke-dasharray=""/></g><g><path fill="none" stroke="#000000" paint-order="fill stroke markers" d=" M 335 58 L 335 68 L 345 68 L 335 58" stroke-miterlimit="10" stroke-dasharray=""/></g><g><g><path fill="none" stroke="none"/><text fill="#000000" stroke="none" font-family="Arial" font-size="13px" font-style="normal" font-weight="normal" text-decoration="undefined" x="401" y="482" text-anchor="middle" dominant-baseline="text-before-edge" transform="matrix(1 0 0 1 -115 -419)">Condizione:</text></g></g><g><g><path fill="none" stroke="none"/><text fill="#000000" stroke="none" font-family="Arial" font-size="13px" font-style="normal" font-weight="normal" text-decoration="undefined" x="401" y="497" text-anchor="middle" dominant-baseline="text-before-edge" transform="matrix(1 0 0 1 -115 -419)">L'utente ha</text><text fill="#000000" stroke="none" font-family="Arial" font-size="13px" font-style="normal" font-weight="normal" text-decoration="undefined" x="401" y="510" text-anchor="middle" dominant-baseline="text-before-edge" transform="matrix(1 0 0 1 -115 -419)">selezionato un</text><text fill="#000000" stroke="none" font-family="Arial" font-size="13px" font-style="normal" font-weight="normal" text-decoration="undefined" x="401" y="523" text-anchor="middle" dominant-baseline="text-before-edge" transform="matrix(1 0 0 1 -115 -419)">sensore e un</text><text fill="#000000" stroke="none" font-family="Arial" font-size="13px" font-style="normal" font-weight="normal" text-decoration="undefined" x="401" y="536" text-anchor="middle" dominant-baseline="text-before-edge" transform="matrix(1 0 0 1 -115 -419)">intervallo</text><text fill="#000000" stroke="none" font-family="Arial" font-size="13px" font-style="normal" font-weight="normal" text-decoration="undefined" x="401" y="549" text-anchor="middle" dominant-baseline="text-before-edge" transform="matrix(1 0 0 1 -115 -419)">temporale per cui</text><text fill="#000000" stroke="none" font-family="Arial" font-size="13px" font-style="normal" font-weight="normal" text-decoration="undefined" x="401" y="562" text-anchor="middle" dominant-baseline="text-before-edge" transform="matrix(1 0 0 1 -115 -419)">non sono</text><text fill="#000000" stroke="none" font-family="Arial" font-size="13px" font-style="normal" font-weight="normal" text-decoration="undefined" x="401" y="575" text-anchor="middle" dominant-baseline="text-before-edge" transform="matrix(1 0 0 1 -115 -419)">disponibili dati</text><text fill="#000000" stroke="none" font-family="Arial" font-size="13px" font-style="normal" font-weight="normal" text-decoration="undefined" x="401" y="588" text-anchor="middle" dominant-baseline="text-before-edge" transform="matrix(1 0 0 1 -115 -419)">storici</text></g></g><g><path fill="none" stroke="#000000" paint-order="fill stroke markers" d=" M 347 125 L 520 132" stroke-miterlimit="10" stroke-dasharray="3"/></g><g><path fill="#ffffff" stroke="none" paint-order="stroke fill markers" d=" M 706 10 L 815 10 L 825 20 L 825 127 L 706 127 L 706 10"/></g><g><path fill="none" stroke="#000000" paint-order="fill stroke markers" d=" M 706 10 L 815 10 L 825 20 L 825 127 L 706 127 L 706 10 L 706 10" stroke-miterlimit="10" stroke-dasharray=""/></g><g><path fill="none" stroke="#000000" paint-order="fill stroke markers" d=" M 815 10 L 815 20 L 825 20 L 815 10" stroke-miterlimit="10" stroke-dasharray=""/></g><g><g><path fill="none" stroke="none"/><text fill="#000000" stroke="none" font-family="Arial" font-size="13px" font-style="normal" font-weight="normal" text-decoration="undefined" x="881" y="441" text-anchor="middle" dominant-baseline="text-before-edge" transform="matrix(1 0 0 1 -115 -419)">Condizione:</text></g></g><g><g><path fill="none" stroke="none"/><text fill="#000000" stroke="none" font-family="Arial" font-size="13px" font-style="normal" font-weight="normal" text-decoration="undefined" x="881" y="456" text-anchor="middle" dominant-baseline="text-before-edge" transform="matrix(1 0 0 1 -115 -419)">L'utente ha</text><text fill="#000000" stroke="none" font-family="Arial" font-size="13px" font-style="normal" font-weight="normal" text-decoration="undefined" x="881" y="469" text-anchor="middle" dominant-baseline="text-before-edge" transform="matrix(1 0 0 1 -115 -419)">selezionato un</text><text fill="#000000" stroke="none" font-family="Arial" font-size="13px" font-style="normal" font-weight="normal" text-decoration="undefined" x="881" y="482" text-anchor="middle" dominant-baseline="text-before-edge" transform="matrix(1 0 0 1 -115 -419)">intervallo</text><text fill="#000000" stroke="none" font-family="Arial" font-size="13px" font-style="normal" font-weight="normal" text-decoration="undefined" x="881" y="495" text-anchor="middle" dominant-baseline="text-before-edge" transform="matrix(1 0 0 1 -115 -419)">temporale con</text><text fill="#000000" stroke="none" font-family="Arial" font-size="13px" font-style="normal" font-weight="normal" text-decoration="undefined" x="881" y="508" text-anchor="middle" dominant-baseline="text-before-edge" transform="matrix(1 0 0 1 -115 -419)">date future o nullo</text></g></g><g><path fill="none" stroke="#000000" paint-order="fill stroke markers" d=" M 762 129 L 758 183" stroke-miterlimit="10" stroke-dasharray="3"/></g></g></svg>