<svg version="1.1" xmlns="http://www.w3.org/2000/svg" xmlns:xlink="http://www.w3.org/1999/xlink" width="1096" height="420"><defs/><g><g><rect fill="#C0C0C0" stroke="none" x="319" y="391" width="888" height="400" transform="matrix(1 0 0 1 -115 -374)" fill-opacity="0.2"/></g><g><rect fill="#ffffff" stroke="none" x="312" y="384" width="888" height="400" transform="matrix(1 0 0 1 -115 -374)"/></g><g><path fill="none" stroke="#000000" paint-order="fill stroke markers" d=" M 197 10 L 1085 10 L 1085 410 L 197 410 L 197 10 Z Z" stroke-miterlimit="10" stroke-dasharray=""/></g><g><g><path fill="none" stroke="none"/><text fill="#000000" stroke="none" font-family="Arial" font-size="13px" font-style="normal" font-weight="bold" text-decoration="undefined" x="756.5" y="397.5" text-anchor="middle" dominant-baseline="central" transform="matrix(1 0 0 1 -115 -374)">Sistema Cloud</text></g></g><g><path fill="#ffffff" stroke="none" paint-order="stroke fill markers" d=" M 62.860439453125 208.85000000000002 C 62.860439453125 203.96227952000004 66.81824182112499 200 71.700439453125 200 C 76.58263708512501 200 80.540439453125 203.96227952000004 80.540439453125 208.85000000000002 C 80.540439453125 213.73772048 76.58263708512501 217.70000000000005 71.700439453125 217.70000000000005 C 66.81824182112499 217.70000000000005 62.860439453125 213.73772048 62.860439453125 208.85000000000002 Z"/></g><g><path fill="none" stroke="#000000" paint-order="fill stroke markers" d=" M 62.860439453125 208.85000000000002 C 62.860439453125 203.96227952000004 66.81824182112499 200 71.700439453125 200 C 76.58263708512501 200 80.540439453125 203.96227952000004 80.540439453125 208.85000000000002 C 80.540439453125 213.73772048 76.58263708512501 217.70000000000005 71.700439453125 217.70000000000005 C 66.81824182112499 217.70000000000005 62.860439453125 213.73772048 62.860439453125 208.85000000000002 Z" stroke-miterlimit="10" stroke-dasharray=""/></g><g><path fill="none" stroke="#000000" paint-order="fill stroke markers" d=" M 71.700439453125 217.70000000000005 L 71.700439453125 235.29999999999995" stroke-miterlimit="10" stroke-dasharray=""/></g><g><path fill="none" stroke="#000000" paint-order="fill stroke markers" d=" M 62.340439453124986 224.29999999999995 L 81.06043945312501 224.29999999999995" stroke-miterlimit="10" stroke-dasharray=""/></g><g><path fill="none" stroke="#000000" paint-order="fill stroke markers" d=" M 71.700439453125 235.29999999999995 L 58.700439453125 253" stroke-miterlimit="10" stroke-dasharray=""/></g><g><path fill="none" stroke="#000000" paint-order="fill stroke markers" d=" M 71.700439453125 235.29999999999995 L 84.700439453125 253" stroke-miterlimit="10" stroke-dasharray=""/></g><g><g><path fill="none" stroke="none"/><text fill="#000000" stroke="none" font-family="Arial" font-size="13px" font-style="normal" font-weight="bold" text-decoration="undefined" x="187.200439453125" y="641.5" text-anchor="middle" dominant-baseline="central" transform="matrix(1 0 0 1 -115 -374)">Utente autenticato</text></g></g><g><path fill="#C0C0C0" stroke="none" paint-order="stroke fill markers" d=" M 377 256.5 C 377 241.86445279999998 445.0527104 230 529 230 C 612.9472896 230 681 241.86445279999998 681 256.5 C 681 271.1355472 612.9472896 283 529 283 C 445.0527104 283 377 271.1355472 377 256.5 Z" fill-opacity="0.2"/></g><g><path fill="#ffffff" stroke="none" paint-order="stroke fill markers" d=" M 370 249.5 C 370 234.86445279999998 438.0527104 223 522 223 C 605.9472896 223 674 234.86445279999998 674 249.5 C 674 264.1355472 605.9472896 276 522 276 C 438.0527104 276 370 264.1355472 370 249.5 Z"/></g><g><path fill="none" stroke="#000000" paint-order="fill stroke markers" d=" M 370 249.5 C 370 234.86445279999998 438.0527104 223 522 223 C 605.9472896 223 674 234.86445279999998 674 249.5 C 674 264.1355472 605.9472896 276 522 276 C 438.0527104 276 370 264.1355472 370 249.5 Z" stroke-miterlimit="10" stroke-dasharray=""/></g><g><g><path fill="none" stroke="none"/><text fill="#000000" stroke="none" font-family="Arial" font-size="13px" font-style="normal" font-weight="bold" text-decoration="undefined" x="637" y="618" text-anchor="middle" dominant-baseline="central" transform="matrix(1 0 0 1 -115 -374)">UC26 - Filtraggio per intervallo</text><text fill="#000000" stroke="none" font-family="Arial" font-size="13px" font-style="normal" font-weight="bold" text-decoration="undefined" x="637" y="631" text-anchor="middle" dominant-baseline="central" transform="matrix(1 0 0 1 -115 -374)">temporale dati storico sensore</text></g></g><g><path fill="#C0C0C0" stroke="none" paint-order="stroke fill markers" d=" M 385 112.5 C 385 97.86445279999998 447.68012799999997 86 525 86 C 602.319872 86 665 97.86445279999998 665 112.5 C 665 127.13554720000002 602.319872 139 525 139 C 447.68012799999997 139 385 127.13554720000002 385 112.5 Z" fill-opacity="0.2"/></g><g><path fill="#ffffff" stroke="none" paint-order="stroke fill markers" d=" M 378 105.5 C 378 90.86445279999998 440.68012799999997 79 518 79 C 595.319872 79 658 90.86445279999998 658 105.5 C 658 120.13554720000002 595.319872 132 518 132 C 440.68012799999997 132 378 120.13554720000002 378 105.5 Z"/></g><g><path fill="none" stroke="#000000" paint-order="fill stroke markers" d=" M 378 105.5 C 378 90.86445279999998 440.68012799999997 79 518 79 C 595.319872 79 658 90.86445279999998 658 105.5 C 658 120.13554720000002 595.319872 132 518 132 C 440.68012799999997 132 378 120.13554720000002 378 105.5 Z" stroke-miterlimit="10" stroke-dasharray=""/></g><g><g><path fill="none" stroke="none"/><text fill="#000000" stroke="none" font-family="Arial" font-size="13px" font-style="normal" font-weight="bold" text-decoration="undefined" x="633" y="474" text-anchor="middle" dominant-baseline="central" transform="matrix(1 0 0 1 -115 -374)">UC30 - Dati non disponibili</text><text fill="#000000" stroke="none" font-family="Arial" font-size="13px" font-style="normal" font-weight="bold" text-decoration="undefined" x="633" y="487" text-anchor="middle" dominant-baseline="central" transform="matrix(1 0 0 1 -115 -374)">per il sensore selezionato</text></g></g><g><path fill="#C0C0C0" stroke="none" paint-order="stroke fill markers" d=" M 849 218 C 849 198.11774720000005 897.3532416 182 957 182 C 1016.6467584 182 1065 198.11774720000005 1065 218 C 1065 237.88225279999995 1016.6467584 254 957 254 C 897.3532416 254 849 237.88225279999995 849 218 Z" fill-opacity="0.2"/></g><g><path fill="#ffffff" stroke="none" paint-order="stroke fill markers" d=" M 842 211 C 842 191.11774720000005 890.3532416 175 950 175 C 1009.6467584 175 1058 191.11774720000005 1058 211 C 1058 230.88225279999995 1009.6467584 247 950 247 C 890.3532416 247 842 230.88225279999995 842 211 Z"/></g><g><path fill="none" stroke="#000000" paint-order="fill stroke markers" d=" M 842 211 C 842 191.11774720000005 890.3532416 175 950 175 C 1009.6467584 175 1058 191.11774720000005 1058 211 C 1058 230.88225279999995 1009.6467584 247 950 247 C 890.3532416 247 842 230.88225279999995 842 211 Z" stroke-miterlimit="10" stroke-dasharray=""/></g><g><g><path fill="none" stroke="none"/><text fill="#000000" stroke="none" font-family="Arial" font-size="13px" font-style="normal" font-weight="bold" text-decoration="undefined" x="1065" y="579.5" text-anchor="middle" dominant-baseline="central" transform="matrix(1 0 0 1 -115 -374)">UC27 - Intervallo</text><text fill="#000000" stroke="none" font-family="Arial" font-size="13px" font-style="normal" font-weight="bold" text-decoration="undefined" x="1065" y="592.5" text-anchor="middle" dominant-baseline="central" transform="matrix(1 0 0 1 -115 -374)">temporale non valido</text></g></g><g><path fill="#C0C0C0" stroke="none" paint-order="stroke fill markers" d=" M 697 354 C 697 334.11774720000005 777.588736 318 877 318 C 976.4112640000001 318 1057 334.11774720000005 1057 354 C 1057 373.88225279999995 976.4112640000001 390 877 390 C 777.588736 390 697 373.88225279999995 697 354 Z" fill-opacity="0.2"/></g><g><path fill="#ffffff" stroke="none" paint-order="stroke fill markers" d=" M 690 347 C 690 327.11774720000005 770.588736 311 870 311 C 969.4112640000001 311 1050 327.11774720000005 1050 347 C 1050 366.88225279999995 969.4112640000001 383 870 383 C 770.588736 383 690 366.88225279999995 690 347 Z"/></g><g><path fill="none" stroke="#000000" paint-order="fill stroke markers" d=" M 690 347 C 690 327.11774720000005 770.588736 311 870 311 C 969.4112640000001 311 1050 327.11774720000005 1050 347 C 1050 366.88225279999995 969.4112640000001 383 870 383 C 770.588736 383 690 366.88225279999995 690 347 Z" stroke-miterlimit="10" stroke-dasharray=""/></g><g><g><path fill="none" stroke="none"/><text fill="#000000" stroke="none" font-family="Arial" font-size="13px" font-style="normal" font-weight="bold" text-decoration="undefined" x="985" y="709" text-anchor="middle" dominant-baseline="central" transform="matrix(1 0 0 1 -115 -374)">UC26.1 - Visualizzazione grafico dati</text><text fill="#000000" stroke="none" font-family="Arial" font-size="13px" font-style="normal" font-weight="bold" text-decoration="undefined" x="985" y="722" text-anchor="middle" dominant-baseline="central" transform="matrix(1 0 0 1 -115 -374)">sensore filtrato per intervallo</text><text fill="#000000" stroke="none" font-family="Arial" font-size="13px" font-style="normal" font-weight="bold" text-decoration="undefined" x="985" y="735" text-anchor="middle" dominant-baseline="central" transform="matrix(1 0 0 1 -115 -374)">temporale</text></g></g><g><path fill="none" stroke="#000000" paint-order="fill stroke markers" d=" M 519 133 L 521 222" stroke-miterlimit="10" stroke-dasharray="3"/></g><g><path fill="none" stroke="#000000" paint-order="fill stroke markers" d=" M 516.5632276423031 211.9344622078114 L 521 222 L 524.9801382084376 211.74531815014552" stroke-miterlimit="10" stroke-dasharray=""/></g><g><rect fill="#ffffff" stroke="none" x="638" y="544" width="53.49169921875" height="13" transform="matrix(1 0 0 1 -115 -374)"/></g><g><g><path fill="none" stroke="none"/><text fill="#000000" stroke="none" font-family="Arial" font-size="13px" font-style="normal" font-weight="normal" text-decoration="undefined" x="664.745849609375" y="550.5" text-anchor="middle" dominant-baseline="central" transform="matrix(1 0 0 1 -115 -374)">«extend»</text></g></g><g><path fill="none" stroke="#000000" paint-order="fill stroke markers" d=" M 841 221 L 675 235" stroke-miterlimit="10" stroke-dasharray="3"/></g><g><path fill="none" stroke="#000000" paint-order="fill stroke markers" d=" M 684.7729603728294 229.9513124922306 L 675 235 L 685.4804877247307 238.3405653790595" stroke-miterlimit="10" stroke-dasharray=""/></g><g><rect fill="#ffffff" stroke="none" x="860" y="581" width="53.49169921875" height="13" transform="matrix(1 0 0 1 -115 -374)"/></g><g><g><path fill="none" stroke="none"/><text fill="#000000" stroke="none" font-family="Arial" font-size="13px" font-style="normal" font-weight="normal" text-decoration="undefined" x="886.745849609375" y="587.5" text-anchor="middle" dominant-baseline="central" transform="matrix(1 0 0 1 -115 -374)">«extend»</text></g></g><g><path fill="none" stroke="#000000" paint-order="fill stroke markers" d=" M 621 277 L 739 310" stroke-miterlimit="10" stroke-dasharray="3"/></g><g><path fill="none" stroke="#000000" paint-order="fill stroke markers" d=" M 728.0791112543106 311.3168861014816 L 739 310 L 730.3465864189312 303.2089446037471" stroke-miterlimit="10" stroke-dasharray=""/></g><g><rect fill="#ffffff" stroke="none" x="765" y="641" width="55.65625" height="13" transform="matrix(1 0 0 1 -115 -374)"/></g><g><g><path fill="none" stroke="none"/><text fill="#000000" stroke="none" font-family="Arial" font-size="13px" font-style="normal" font-weight="normal" text-decoration="undefined" x="792.828125" y="647.5" text-anchor="middle" dominant-baseline="central" transform="matrix(1 0 0 1 -115 -374)">«include»</text></g></g><g><path fill="none" stroke="#000000" paint-order="fill stroke markers" d=" M 369 246 L 134 240" stroke-miterlimit="10" stroke-dasharray=""/></g><g><path fill="#ffffff" stroke="none" paint-order="stroke fill markers" d=" M 226 103 L 335 103 L 345 113 L 345 233 L 226 233 L 226 103"/></g><g><path fill="none" stroke="#000000" paint-order="fill stroke markers" d=" M 226 103 L 335 103 L 345 113 L 345 233 L 226 233 L 226 103 L 226 103" stroke-miterlimit="10" stroke-dasharray=""/></g><g><path fill="none" stroke="#000000" paint-order="fill stroke markers" d=" M 335 103 L 335 113 L 345 113 L 335 103" stroke-miterlimit="10" stroke-dasharray=""/></g><g><g><path fill="none" stroke="none"/><text fill="#000000" stroke="none" font-family="Arial" font-size="13px" font-style="normal" font-weight="normal" text-decoration="undefined" x="401" y="482" text-anchor="middle" dominant-baseline="text-before-edge" transform="matrix(1 0 0 1 -115 -374)">Condizione:</text></g></g><g><g><path fill="none" stroke="none"/><text fill="#000000" stroke="none" font-family="Arial" font-size="13px" font-style="normal" font-weight="normal" text-decoration="undefined" x="401" y="497" text-anchor="middle" dominant-baseline="text-before-edge" transform="matrix(1 0 0 1 -115 -374)">L'utente ha</text><text fill="#000000" stroke="none" font-family="Arial" font-size="13px" font-style="normal" font-weight="normal" text-decoration="undefined" x="401" y="510" text-anchor="middle" dominant-baseline="text-before-edge" transform="matrix(1 0 0 1 -115 -374)">selezionato un</text><text fill="#000000" stroke="none" font-family="Arial" font-size="13px" font-style="normal" font-weight="normal" text-decoration="undefined" x="401" y="523" text-anchor="middle" dominant-baseline="text-before-edge" transform="matrix(1 0 0 1 -115 -374)">sensore e un</text><text fill="#000000" stroke="none" font-family="Arial" font-size="13px" font-style="normal" font-weight="normal" text-decoration="undefined" x="401" y="536" text-anchor="middle" dominant-baseline="text-before-edge" transform="matrix(1 0 0 1 -115 -374)">intervallo</text><text fill="#000000" stroke="none" font-family="Arial" font-size="13px" font-style="normal" font-weight="normal" text-decoration="undefined" x="401" y="549" text-anchor="middle" dominant-baseline="text-before-edge" transform="matrix(1 0 0 1 -115 -374)">temporale per cui</text><text fill="#000000" stroke="none" font-family="Arial" font-size="13px" font-style="normal" font-weight="normal" text-decoration="undefined" x="401" y="562" text-anchor="middle" dominant-baseline="text-before-edge" transform="matrix(1 0 0 1 -115 -374)">non sono</text><text fill="#000000" stroke="none" font-family="Arial" font-size="13px" font-style="normal" font-weight="normal" text-decoration="undefined" x="401" y="575" text-anchor="middle" dominant-baseline="text-before-edge" transform="matrix(1 0 0 1 -115 -374)">disponibili dati</text><text fill="#000000" stroke="none" font-family="Arial" font-size="13px" font-style="normal" font-weight="normal" text-decoration="undefined" x="401" y="588" text-anchor="middle" dominant-baseline="text-before-edge" transform="matrix(1 0 0 1 -115 -374)">storici</text></g></g><g><path fill="none" stroke="#000000" paint-order="fill stroke markers" d=" M 347 170 L 520 177" stroke-miterlimit="10" stroke-dasharray="3"/></g><g><path fill="#ffffff" stroke="none" paint-order="stroke fill markers" d=" M 706 55 L 815 55 L 825 65 L 825 172 L 706 172 L 706 55"/></g><g><path fill="none" stroke="#000000" paint-order="fill stroke markers" d=" M 706 55 L 815 55 L 825 65 L 825 172 L 706 172 L 706 55 L 706 55" stroke-miterlimit="10" stroke-dasharray=""/></g><g><path fill="none" stroke="#000000" paint-order="fill stroke markers" d=" M 815 55 L 815 65 L 825 65 L 815 55" stroke-miterlimit="10" stroke-dasharray=""/></g><g><g><path fill="none" stroke="none"/><text fill="#000000" stroke="none" font-family="Arial" font-size="13px" font-style="normal" font-weight="normal" text-decoration="undefined" x="881" y="441" text-anchor="middle" dominant-baseline="text-before-edge" transform="matrix(1 0 0 1 -115 -374)">Condizione:</text></g></g><g><g><path fill="none" stroke="none"/><text fill="#000000" stroke="none" font-family="Arial" font-size="13px" font-style="normal" font-weight="normal" text-decoration="undefined" x="881" y="456" text-anchor="middle" dominant-baseline="text-before-edge" transform="matrix(1 0 0 1 -115 -374)">L'utente ha</text><text fill="#000000" stroke="none" font-family="Arial" font-size="13px" font-style="normal" font-weight="normal" text-decoration="undefined" x="881" y="469" text-anchor="middle" dominant-baseline="text-before-edge" transform="matrix(1 0 0 1 -115 -374)">selezionato un</text><text fill="#000000" stroke="none" font-family="Arial" font-size="13px" font-style="normal" font-weight="normal" text-decoration="undefined" x="881" y="482" text-anchor="middle" dominant-baseline="text-before-edge" transform="matrix(1 0 0 1 -115 -374)">intervallo</text><text fill="#000000" stroke="none" font-family="Arial" font-size="13px" font-style="normal" font-weight="normal" text-decoration="undefined" x="881" y="495" text-anchor="middle" dominant-baseline="text-before-edge" transform="matrix(1 0 0 1 -115 -374)">temporale con</text><text fill="#000000" stroke="none" font-family="Arial" font-size="13px" font-style="normal" font-weight="normal" text-decoration="undefined" x="881" y="508" text-anchor="middle" dominant-baseline="text-before-edge" transform="matrix(1 0 0 1 -115 -374)">date future o nullo</text></g></g><g><path fill="none" stroke="#000000" paint-order="fill stroke markers" d=" M 762 174 L 758 228" stroke-miterlimit="10" stroke-dasharray="3"/></g></g></svg>