<svg version="1.1" xmlns="http://www.w3.org/2000/svg" xmlns:xlink="http://www.w3.org/1999/xlink" width="1132" height="324"><defs/><g><g><path fill="#ffffff" stroke="none" paint-order="stroke fill markers" d=" M 62.860439453125 123.85000000000002 C 62.860439453125 118.96227952000004 66.81824182112499 115 71.700439453125 115 C 76.58263708512501 115 80.540439453125 118.96227952000004 80.540439453125 123.85000000000002 C 80.540439453125 128.73772048 76.58263708512501 132.70000000000005 71.700439453125 132.70000000000005 C 66.81824182112499 132.70000000000005 62.860439453125 128.73772048 62.860439453125 123.85000000000002 Z"/></g><g><path fill="none" stroke="#000000" paint-order="fill stroke markers" d=" M 62.860439453125 123.85000000000002 C 62.860439453125 118.96227952000004 66.81824182112499 115 71.700439453125 115 C 76.58263708512501 115 80.540439453125 118.96227952000004 80.540439453125 123.85000000000002 C 80.540439453125 128.73772048 76.58263708512501 132.70000000000005 71.700439453125 132.70000000000005 C 66.81824182112499 132.70000000000005 62.860439453125 128.73772048 62.860439453125 123.85000000000002 Z" stroke-miterlimit="10" stroke-dasharray=""/></g><g><path fill="none" stroke="#000000" paint-order="fill stroke markers" d=" M 71.700439453125 132.70000000000005 L 71.700439453125 150.29999999999995" stroke-miterlimit="10" stroke-dasharray=""/></g><g><path fill="none" stroke="#000000" paint-order="fill stroke markers" d=" M 62.340439453124986 139.29999999999995 L 81.06043945312501 139.29999999999995" stroke-miterlimit="10" stroke-dasharray=""/></g><g><path fill="none" stroke="#000000" paint-order="fill stroke markers" d=" M 71.700439453125 150.29999999999995 L 58.700439453125 168" stroke-miterlimit="10" stroke-dasharray=""/></g><g><path fill="none" stroke="#000000" paint-order="fill stroke markers" d=" M 71.700439453125 150.29999999999995 L 84.700439453125 168" stroke-miterlimit="10" stroke-dasharray=""/></g><g><g><path fill="none" stroke="none"/><text fill="#000000" stroke="none" font-family="Arial" font-size="13px" font-style="normal" font-weight="bold" text-decoration="undefined" x="155.200439453125" y="627.5" text-anchor="middle" dominant-baseline="central" transform="matrix(1 0 0 1 -83 -445)">Utente autenticato</text></g></g><g><path fill="#C0C0C0" stroke="none" paint-order="stroke fill markers" d=" M 393 171.5 C 393 156.86445279999998 461.0527104 145 545 145 C 628.9472896 145 697 156.86445279999998 697 171.5 C 697 186.13554720000002 628.9472896 198 545 198 C 461.0527104 198 393 186.13554720000002 393 171.5 Z" fill-opacity="0.2"/></g><g><path fill="#ffffff" stroke="none" paint-order="stroke fill markers" d=" M 386 164.5 C 386 149.86445279999998 454.0527104 138 538 138 C 621.9472896 138 690 149.86445279999998 690 164.5 C 690 179.13554720000002 621.9472896 191 538 191 C 454.0527104 191 386 179.13554720000002 386 164.5 Z"/></g><g><path fill="none" stroke="#000000" paint-order="fill stroke markers" d=" M 386 164.5 C 386 149.86445279999998 454.0527104 138 538 138 C 621.9472896 138 690 149.86445279999998 690 164.5 C 690 179.13554720000002 621.9472896 191 538 191 C 454.0527104 191 386 179.13554720000002 386 164.5 Z" stroke-miterlimit="10" stroke-dasharray=""/></g><g><g><path fill="none" stroke="none"/><text fill="#000000" stroke="none" font-family="Arial" font-size="13px" font-style="normal" font-weight="bold" text-decoration="undefined" x="621" y="604" text-anchor="middle" dominant-baseline="central" transform="matrix(1 0 0 1 -83 -445)">UC28 - Filtraggio dati del</text><text fill="#000000" stroke="none" font-family="Arial" font-size="13px" font-style="normal" font-weight="bold" text-decoration="undefined" x="621" y="617" text-anchor="middle" dominant-baseline="central" transform="matrix(1 0 0 1 -83 -445)">sensore per intervallo di valori</text></g></g><g><path fill="#C0C0C0" stroke="none" paint-order="stroke fill markers" d=" M 385 67.5 C 385 52.86445279999998 454.84357120000004 41 541 41 C 627.1564288 41 697 52.86445279999998 697 67.5 C 697 82.13554720000002 627.1564288 94 541 94 C 454.84357120000004 94 385 82.13554720000002 385 67.5 Z" fill-opacity="0.2"/></g><g><path fill="#ffffff" stroke="none" paint-order="stroke fill markers" d=" M 378 60.5 C 378 45.86445279999998 447.84357120000004 34 534 34 C 620.1564288 34 690 45.86445279999998 690 60.5 C 690 75.13554720000002 620.1564288 87 534 87 C 447.84357120000004 87 378 75.13554720000002 378 60.5 Z"/></g><g><path fill="none" stroke="#000000" paint-order="fill stroke markers" d=" M 378 60.5 C 378 45.86445279999998 447.84357120000004 34 534 34 C 620.1564288 34 690 45.86445279999998 690 60.5 C 690 75.13554720000002 620.1564288 87 534 87 C 447.84357120000004 87 378 75.13554720000002 378 60.5 Z" stroke-miterlimit="10" stroke-dasharray=""/></g><g><g><path fill="none" stroke="none"/><text fill="#000000" stroke="none" font-family="Arial" font-size="13px" font-style="normal" font-weight="bold" text-decoration="undefined" x="617" y="500" text-anchor="middle" dominant-baseline="central" transform="matrix(1 0 0 1 -83 -445)">UC30 - Dati non disponibili per il</text><text fill="#000000" stroke="none" font-family="Arial" font-size="13px" font-style="normal" font-weight="bold" text-decoration="undefined" x="617" y="513" text-anchor="middle" dominant-baseline="central" transform="matrix(1 0 0 1 -83 -445)">sensore selezionato</text></g></g><g><path fill="#C0C0C0" stroke="none" paint-order="stroke fill markers" d=" M 873 91.5 C 873 76.86445279999998 930.3075456 65 1001 65 C 1071.6924544 65 1129 76.86445279999998 1129 91.5 C 1129 106.13554720000002 1071.6924544 118 1001 118 C 930.3075456 118 873 106.13554720000002 873 91.5 Z" fill-opacity="0.2"/></g><g><path fill="#ffffff" stroke="none" paint-order="stroke fill markers" d=" M 866 84.5 C 866 69.86445279999998 923.3075456 58 994 58 C 1064.6924544 58 1122 69.86445279999998 1122 84.5 C 1122 99.13554720000002 1064.6924544 111 994 111 C 923.3075456 111 866 99.13554720000002 866 84.5 Z"/></g><g><path fill="none" stroke="#000000" paint-order="fill stroke markers" d=" M 866 84.5 C 866 69.86445279999998 923.3075456 58 994 58 C 1064.6924544 58 1122 69.86445279999998 1122 84.5 C 1122 99.13554720000002 1064.6924544 111 994 111 C 923.3075456 111 866 99.13554720000002 866 84.5 Z" stroke-miterlimit="10" stroke-dasharray=""/></g><g><g><path fill="none" stroke="none"/><text fill="#000000" stroke="none" font-family="Arial" font-size="13px" font-style="normal" font-weight="bold" text-decoration="undefined" x="1077" y="524" text-anchor="middle" dominant-baseline="central" transform="matrix(1 0 0 1 -83 -445)">UC29 - Intervallo di valori</text><text fill="#000000" stroke="none" font-family="Arial" font-size="13px" font-style="normal" font-weight="bold" text-decoration="undefined" x="1077" y="537" text-anchor="middle" dominant-baseline="central" transform="matrix(1 0 0 1 -83 -445)">non valido</text></g></g><g><path fill="#C0C0C0" stroke="none" paint-order="stroke fill markers" d=" M 433 283.5 C 433 268.8644528 486.05425119999995 257 551.5 257 C 616.9457488 257 670 268.8644528 670 283.5 C 670 298.1355472 616.9457488 310 551.5 310 C 486.05425119999995 310 433 298.1355472 433 283.5 Z" fill-opacity="0.2"/></g><g><path fill="#ffffff" stroke="none" paint-order="stroke fill markers" d=" M 426 276.5 C 426 261.8644528 479.05425119999995 250 544.5 250 C 609.9457488 250 663 261.8644528 663 276.5 C 663 291.1355472 609.9457488 303 544.5 303 C 479.05425119999995 303 426 291.1355472 426 276.5 Z"/></g><g><path fill="none" stroke="#000000" paint-order="fill stroke markers" d=" M 426 276.5 C 426 261.8644528 479.05425119999995 250 544.5 250 C 609.9457488 250 663 261.8644528 663 276.5 C 663 291.1355472 609.9457488 303 544.5 303 C 479.05425119999995 303 426 291.1355472 426 276.5 Z" stroke-miterlimit="10" stroke-dasharray=""/></g><g><g><path fill="none" stroke="none"/><text fill="#000000" stroke="none" font-family="Arial" font-size="13px" font-style="normal" font-weight="bold" text-decoration="undefined" x="627.5" y="716" text-anchor="middle" dominant-baseline="central" transform="matrix(1 0 0 1 -83 -445)">UC23 - Selezione</text><text fill="#000000" stroke="none" font-family="Arial" font-size="13px" font-style="normal" font-weight="bold" text-decoration="undefined" x="627.5" y="729" text-anchor="middle" dominant-baseline="central" transform="matrix(1 0 0 1 -83 -445)">sensore</text></g></g><g><path fill="#C0C0C0" stroke="none" paint-order="stroke fill markers" d=" M 713 285 C 713 265.11774720000005 791.7978752 249 889 249 C 986.2021248000001 249 1065 265.11774720000005 1065 285 C 1065 304.88225279999995 986.2021248000001 321 889 321 C 791.7978752 321 713 304.88225279999995 713 285 Z" fill-opacity="0.2"/></g><g><path fill="#ffffff" stroke="none" paint-order="stroke fill markers" d=" M 706 278 C 706 258.11774720000005 784.7978752 242 882 242 C 979.2021248000001 242 1058 258.11774720000005 1058 278 C 1058 297.88225279999995 979.2021248000001 314 882 314 C 784.7978752 314 706 297.88225279999995 706 278 Z"/></g><g><path fill="none" stroke="#000000" paint-order="fill stroke markers" d=" M 706 278 C 706 258.11774720000005 784.7978752 242 882 242 C 979.2021248000001 242 1058 258.11774720000005 1058 278 C 1058 297.88225279999995 979.2021248000001 314 882 314 C 784.7978752 314 706 297.88225279999995 706 278 Z" stroke-miterlimit="10" stroke-dasharray=""/></g><g><g><path fill="none" stroke="none"/><text fill="#000000" stroke="none" font-family="Arial" font-size="13px" font-style="normal" font-weight="bold" text-decoration="undefined" x="965" y="717.5" text-anchor="middle" dominant-baseline="central" transform="matrix(1 0 0 1 -83 -445)">UC28.1 - Visualizzazione grafico dati</text><text fill="#000000" stroke="none" font-family="Arial" font-size="13px" font-style="normal" font-weight="bold" text-decoration="undefined" x="965" y="730.5" text-anchor="middle" dominant-baseline="central" transform="matrix(1 0 0 1 -83 -445)">sensore filtrato per intervallo di valori</text></g></g><g><path fill="none" stroke="#000000" paint-order="fill stroke markers" d=" M 535 88 L 537 137" stroke-miterlimit="10" stroke-dasharray="3"/></g><g><path fill="none" stroke="#000000" paint-order="fill stroke markers" d=" M 532.3795263779318 127.0174540568164 L 537 137 L 540.7915576994734 126.67410583961055" stroke-miterlimit="10" stroke-dasharray=""/></g><g><rect fill="#ffffff" stroke="none" x="622" y="549" width="53.49169921875" height="13" transform="matrix(1 0 0 1 -83 -445)"/></g><g><g><path fill="none" stroke="none"/><text fill="#000000" stroke="none" font-family="Arial" font-size="13px" font-style="normal" font-weight="normal" text-decoration="undefined" x="648.745849609375" y="555.5" text-anchor="middle" dominant-baseline="central" transform="matrix(1 0 0 1 -83 -445)">«extend»</text></g></g><g><path fill="none" stroke="#000000" paint-order="fill stroke markers" d=" M 865 107 L 691 137" stroke-miterlimit="10" stroke-dasharray="3"/></g><g><path fill="none" stroke="#000000" paint-order="fill stroke markers" d=" M 700.2996845595576 131.1249793963999 L 691 137 L 701.7301369233753 139.42160310654265" stroke-miterlimit="10" stroke-dasharray=""/></g><g><rect fill="#ffffff" stroke="none" x="837" y="546" width="53.49169921875" height="13" transform="matrix(1 0 0 1 -83 -445)"/></g><g><g><path fill="none" stroke="none"/><text fill="#000000" stroke="none" font-family="Arial" font-size="13px" font-style="normal" font-weight="normal" text-decoration="undefined" x="863.745849609375" y="552.5" text-anchor="middle" dominant-baseline="central" transform="matrix(1 0 0 1 -83 -445)">«extend»</text></g></g><g><path fill="none" stroke="#000000" paint-order="fill stroke markers" d=" M 540 192 L 543 249" stroke-miterlimit="10" stroke-dasharray="3"/></g><g><path fill="none" stroke="#000000" paint-order="fill stroke markers" d=" M 538.2621621840279 239.07261903473307 L 543 249 L 546.6695611521266 238.6301243522015" stroke-miterlimit="10" stroke-dasharray=""/></g><g><rect fill="#ffffff" stroke="none" x="626" y="656" width="55.65625" height="13" transform="matrix(1 0 0 1 -83 -445)"/></g><g><g><path fill="none" stroke="none"/><text fill="#000000" stroke="none" font-family="Arial" font-size="13px" font-style="normal" font-weight="normal" text-decoration="undefined" x="653.828125" y="662.5" text-anchor="middle" dominant-baseline="central" transform="matrix(1 0 0 1 -83 -445)">«include»</text></g></g><g><path fill="none" stroke="#000000" paint-order="fill stroke markers" d=" M 622 192 L 770 241" stroke-miterlimit="10" stroke-dasharray="3"/></g><g><path fill="none" stroke="#000000" paint-order="fill stroke markers" d=" M 759.0292779742628 241.80203381100978 L 770 241 L 761.6754045145826 233.80965160759445" stroke-miterlimit="10" stroke-dasharray=""/></g><g><rect fill="#ffffff" stroke="none" x="770" y="647" width="55.65625" height="13" transform="matrix(1 0 0 1 -83 -445)"/></g><g><g><path fill="none" stroke="none"/><text fill="#000000" stroke="none" font-family="Arial" font-size="13px" font-style="normal" font-weight="normal" text-decoration="undefined" x="797.828125" y="653.5" text-anchor="middle" dominant-baseline="central" transform="matrix(1 0 0 1 -83 -445)">«include»</text></g></g><g><path fill="none" stroke="#000000" paint-order="fill stroke markers" d=" M 385 161 L 134 155" stroke-miterlimit="10" stroke-dasharray=""/></g><g><path fill="#ffffff" stroke="none" paint-order="stroke fill markers" d=" M 850 114 L 959 114 L 969 124 L 969 231 L 850 231 L 850 114"/></g><g><path fill="none" stroke="#000000" paint-order="fill stroke markers" d=" M 850 114 L 959 114 L 969 124 L 969 231 L 850 231 L 850 114 L 850 114" stroke-miterlimit="10" stroke-dasharray=""/></g><g><path fill="none" stroke="#000000" paint-order="fill stroke markers" d=" M 959 114 L 959 124 L 969 124 L 959 114" stroke-miterlimit="10" stroke-dasharray=""/></g><g><g><path fill="none" stroke="none"/><text fill="#000000" stroke="none" font-family="Arial" font-size="13px" font-style="normal" font-weight="normal" text-decoration="undefined" x="993" y="571" text-anchor="middle" dominant-baseline="text-before-edge" transform="matrix(1 0 0 1 -83 -445)">Condizione:</text></g></g><g><g><path fill="none" stroke="none"/><text fill="#000000" stroke="none" font-family="Arial" font-size="13px" font-style="normal" font-weight="normal" text-decoration="undefined" x="993" y="586" text-anchor="middle" dominant-baseline="text-before-edge" transform="matrix(1 0 0 1 -83 -445)">L'utente ha</text><text fill="#000000" stroke="none" font-family="Arial" font-size="13px" font-style="normal" font-weight="normal" text-decoration="undefined" x="993" y="599" text-anchor="middle" dominant-baseline="text-before-edge" transform="matrix(1 0 0 1 -83 -445)">selezionato un</text><text fill="#000000" stroke="none" font-family="Arial" font-size="13px" font-style="normal" font-weight="normal" text-decoration="undefined" x="993" y="612" text-anchor="middle" dominant-baseline="text-before-edge" transform="matrix(1 0 0 1 -83 -445)">intervallo di valori</text><text fill="#000000" stroke="none" font-family="Arial" font-size="13px" font-style="normal" font-weight="normal" text-decoration="undefined" x="993" y="625" text-anchor="middle" dominant-baseline="text-before-edge" transform="matrix(1 0 0 1 -83 -445)">con upper bound</text><text fill="#000000" stroke="none" font-family="Arial" font-size="13px" font-style="normal" font-weight="normal" text-decoration="undefined" x="993" y="638" text-anchor="middle" dominant-baseline="text-before-edge" transform="matrix(1 0 0 1 -83 -445)">minore del lower</text><text fill="#000000" stroke="none" font-family="Arial" font-size="13px" font-style="normal" font-weight="normal" text-decoration="undefined" x="993" y="651" text-anchor="middle" dominant-baseline="text-before-edge" transform="matrix(1 0 0 1 -83 -445)">bound</text></g></g><g><path fill="#ffffff" stroke="none" paint-order="stroke fill markers" d=" M 250 10 L 359 10 L 369 20 L 369 140 L 250 140 L 250 10"/></g><g><path fill="none" stroke="#000000" paint-order="fill stroke markers" d=" M 250 10 L 359 10 L 369 20 L 369 140 L 250 140 L 250 10 L 250 10" stroke-miterlimit="10" stroke-dasharray=""/></g><g><path fill="none" stroke="#000000" paint-order="fill stroke markers" d=" M 359 10 L 359 20 L 369 20 L 359 10" stroke-miterlimit="10" stroke-dasharray=""/></g><g><g><path fill="none" stroke="none"/><text fill="#000000" stroke="none" font-family="Arial" font-size="13px" font-style="normal" font-weight="normal" text-decoration="undefined" x="393" y="467" text-anchor="middle" dominant-baseline="text-before-edge" transform="matrix(1 0 0 1 -83 -445)">Condizione:</text></g></g><g><g><path fill="none" stroke="none"/><text fill="#000000" stroke="none" font-family="Arial" font-size="13px" font-style="normal" font-weight="normal" text-decoration="undefined" x="393" y="482" text-anchor="middle" dominant-baseline="text-before-edge" transform="matrix(1 0 0 1 -83 -445)">L'utente ha</text><text fill="#000000" stroke="none" font-family="Arial" font-size="13px" font-style="normal" font-weight="normal" text-decoration="undefined" x="393" y="495" text-anchor="middle" dominant-baseline="text-before-edge" transform="matrix(1 0 0 1 -83 -445)">selezionato un</text><text fill="#000000" stroke="none" font-family="Arial" font-size="13px" font-style="normal" font-weight="normal" text-decoration="undefined" x="393" y="508" text-anchor="middle" dominant-baseline="text-before-edge" transform="matrix(1 0 0 1 -83 -445)">sensore e un</text><text fill="#000000" stroke="none" font-family="Arial" font-size="13px" font-style="normal" font-weight="normal" text-decoration="undefined" x="393" y="521" text-anchor="middle" dominant-baseline="text-before-edge" transform="matrix(1 0 0 1 -83 -445)">intervallo di valori</text><text fill="#000000" stroke="none" font-family="Arial" font-size="13px" font-style="normal" font-weight="normal" text-decoration="undefined" x="393" y="534" text-anchor="middle" dominant-baseline="text-before-edge" transform="matrix(1 0 0 1 -83 -445)">per cui non sono</text><text fill="#000000" stroke="none" font-family="Arial" font-size="13px" font-style="normal" font-weight="normal" text-decoration="undefined" x="393" y="547" text-anchor="middle" dominant-baseline="text-before-edge" transform="matrix(1 0 0 1 -83 -445)">disponibili dati</text><text fill="#000000" stroke="none" font-family="Arial" font-size="13px" font-style="normal" font-weight="normal" text-decoration="undefined" x="393" y="560" text-anchor="middle" dominant-baseline="text-before-edge" transform="matrix(1 0 0 1 -83 -445)">storici</text></g></g><g><path fill="none" stroke="#000000" paint-order="fill stroke markers" d=" M 849 149 L 778 122" stroke-miterlimit="10" stroke-dasharray="3"/></g><g><path fill="none" stroke="#000000" paint-order="fill stroke markers" d=" M 371 85 L 536 112" stroke-miterlimit="10" stroke-dasharray="3"/></g></g></svg>