<svg version="1.1" xmlns="http://www.w3.org/2000/svg" xmlns:xlink="http://www.w3.org/1999/xlink" width="929" height="484"><defs/><g><g><rect fill="#C0C0C0" stroke="none" x="731" y="515" width="735" height="464" transform="matrix(1 0 0 1 -541 -498)" fill-opacity="0.2"/></g><g><rect fill="#ffffff" stroke="none" x="724" y="508" width="735" height="464" transform="matrix(1 0 0 1 -541 -498)"/></g><g><path fill="none" stroke="#000000" paint-order="fill stroke markers" d=" M 183 10 L 918 10 L 918 474 L 183 474 L 183 10 Z Z" stroke-miterlimit="10" stroke-dasharray=""/></g><g><g><path fill="none" stroke="none"/><text fill="#000000" stroke="none" font-family="Arial" font-size="13px" font-style="normal" font-weight="bold" text-decoration="undefined" x="1092" y="521.5" text-anchor="middle" dominant-baseline="central" transform="matrix(1 0 0 1 -541 -498)">Dashboard</text></g></g><g><path fill="#ffffff" stroke="none" paint-order="stroke fill markers" d=" M 62.86043945312497 211.85000000000002 C 62.86043945312497 206.96227952000004 66.81824182112496 203 71.700439453125 203 C 76.58263708512504 203 80.54043945312503 206.96227952000004 80.54043945312503 211.85000000000002 C 80.54043945312503 216.73772048 76.58263708512504 220.70000000000005 71.700439453125 220.70000000000005 C 66.81824182112496 220.70000000000005 62.86043945312497 216.73772048 62.86043945312497 211.85000000000002 Z"/></g><g><path fill="none" stroke="#000000" paint-order="fill stroke markers" d=" M 62.86043945312497 211.85000000000002 C 62.86043945312497 206.96227952000004 66.81824182112496 203 71.700439453125 203 C 76.58263708512504 203 80.54043945312503 206.96227952000004 80.54043945312503 211.85000000000002 C 80.54043945312503 216.73772048 76.58263708512504 220.70000000000005 71.700439453125 220.70000000000005 C 66.81824182112496 220.70000000000005 62.86043945312497 216.73772048 62.86043945312497 211.85000000000002 Z" stroke-miterlimit="10" stroke-dasharray=""/></g><g><path fill="none" stroke="#000000" paint-order="fill stroke markers" d=" M 71.700439453125 220.70000000000005 L 71.700439453125 238.29999999999995" stroke-miterlimit="10" stroke-dasharray=""/></g><g><path fill="none" stroke="#000000" paint-order="fill stroke markers" d=" M 62.340439453124986 227.29999999999995 L 81.06043945312501 227.29999999999995" stroke-miterlimit="10" stroke-dasharray=""/></g><g><path fill="none" stroke="#000000" paint-order="fill stroke markers" d=" M 71.700439453125 238.29999999999995 L 58.700439453125 256" stroke-miterlimit="10" stroke-dasharray=""/></g><g><path fill="none" stroke="#000000" paint-order="fill stroke markers" d=" M 71.700439453125 238.29999999999995 L 84.700439453125 256" stroke-miterlimit="10" stroke-dasharray=""/></g><g><g><path fill="none" stroke="none"/><text fill="#000000" stroke="none" font-family="Arial" font-size="13px" font-style="normal" font-weight="bold" text-decoration="undefined" x="613.200439453125" y="768.5" text-anchor="middle" dominant-baseline="central" transform="matrix(1 0 0 1 -541 -498)">Utente autenticato</text></g></g><g><path fill="#C0C0C0" stroke="none" paint-order="stroke fill markers" d=" M 253 257 C 253 237.11774720000005 309.4121152 221 379 221 C 448.5878848 221 505 237.11774720000005 505 257 C 505 276.88225279999995 448.5878848 293 379 293 C 309.4121152 293 253 276.88225279999995 253 257 Z" fill-opacity="0.2"/></g><g><path fill="#ffffff" stroke="none" paint-order="stroke fill markers" d=" M 246 250 C 246 230.11774720000005 302.4121152 214 372 214 C 441.5878848 214 498 230.11774720000005 498 250 C 498 269.88225279999995 441.5878848 286 372 286 C 302.4121152 286 246 269.88225279999995 246 250 Z"/></g><g><path fill="none" stroke="#000000" paint-order="fill stroke markers" d=" M 246 250 C 246 230.11774720000005 302.4121152 214 372 214 C 441.5878848 214 498 230.11774720000005 498 250 C 498 269.88225279999995 441.5878848 286 372 286 C 302.4121152 286 246 269.88225279999995 246 250 Z" stroke-miterlimit="10" stroke-dasharray=""/></g><g><g><path fill="none" stroke="none"/><text fill="#000000" stroke="none" font-family="Arial" font-size="13px" font-style="normal" font-weight="bold" text-decoration="undefined" x="913" y="736" text-anchor="middle" dominant-baseline="central" transform="matrix(1 0 0 1 -541 -498)">UC28 - Filtraggio dati del</text><text fill="#000000" stroke="none" font-family="Arial" font-size="13px" font-style="normal" font-weight="bold" text-decoration="undefined" x="913" y="749" text-anchor="middle" dominant-baseline="central" transform="matrix(1 0 0 1 -541 -498)">sensore per intervallo di</text><text fill="#000000" stroke="none" font-family="Arial" font-size="13px" font-style="normal" font-weight="bold" text-decoration="undefined" x="913" y="762" text-anchor="middle" dominant-baseline="central" transform="matrix(1 0 0 1 -541 -498)">valori</text></g></g><g><path fill="none" stroke="#000000" paint-order="fill stroke markers" d=" M 382 124 L 375 213" stroke-miterlimit="10" stroke-dasharray="3"/></g><g><path fill="none" stroke="#000000" paint-order="fill stroke markers" d=" M 371.6002929801293 202.53854731984882 L 375 213 L 379.993408243399 203.19867998100483" stroke-miterlimit="10" stroke-dasharray=""/></g><g><rect fill="#ffffff" stroke="none" x="922" y="661" width="53.49169921875" height="13" transform="matrix(1 0 0 1 -541 -498)"/></g><g><g><path fill="none" stroke="none"/><text fill="#000000" stroke="none" font-family="Arial" font-size="13px" font-style="normal" font-weight="normal" text-decoration="undefined" x="948.745849609375" y="667.5" text-anchor="middle" dominant-baseline="central" transform="matrix(1 0 0 1 -541 -498)">«extend»</text></g></g><g><path fill="none" stroke="#000000" paint-order="fill stroke markers" d=" M 605 195 L 499 220" stroke-miterlimit="10" stroke-dasharray="3"/></g><g><path fill="none" stroke="#000000" paint-order="fill stroke markers" d=" M 507.92499764227546 213.57003755179107 L 499 220 L 509.85759640483025 221.76425630502354" stroke-miterlimit="10" stroke-dasharray=""/></g><g><rect fill="#ffffff" stroke="none" x="1068" y="684" width="53.49169921875" height="13" transform="matrix(1 0 0 1 -541 -498)"/></g><g><g><path fill="none" stroke="none"/><text fill="#000000" stroke="none" font-family="Arial" font-size="13px" font-style="normal" font-weight="normal" text-decoration="undefined" x="1094.745849609375" y="690.5" text-anchor="middle" dominant-baseline="central" transform="matrix(1 0 0 1 -541 -498)">«extend»</text></g></g><g><path fill="none" stroke="#000000" paint-order="fill stroke markers" d=" M 373 287 L 377 373" stroke-miterlimit="10" stroke-dasharray="3"/></g><g><path fill="none" stroke="#000000" paint-order="fill stroke markers" d=" M 372.322856065764 363.0438800419822 L 377 373 L 380.7327997441373 362.6527198708951" stroke-miterlimit="10" stroke-dasharray=""/></g><g><rect fill="#ffffff" stroke="none" x="918" y="820" width="55.65625" height="13" transform="matrix(1 0 0 1 -541 -498)"/></g><g><g><path fill="none" stroke="none"/><text fill="#000000" stroke="none" font-family="Arial" font-size="13px" font-style="normal" font-weight="normal" text-decoration="undefined" x="945.828125" y="826.5" text-anchor="middle" dominant-baseline="central" transform="matrix(1 0 0 1 -541 -498)">«include»</text></g></g><g><path fill="none" stroke="#000000" paint-order="fill stroke markers" d=" M 499 284 L 594 309" stroke-miterlimit="10" stroke-dasharray="3"/></g><g><path fill="none" stroke="#000000" paint-order="fill stroke markers" d=" M 583.1006418526076 310.48458478197495 L 594 309 L 585.2432299768172 302.3427499099789" stroke-miterlimit="10" stroke-dasharray=""/></g><g><rect fill="#ffffff" stroke="none" x="1078" y="778" width="55.65625" height="13" transform="matrix(1 0 0 1 -541 -498)"/></g><g><g><path fill="none" stroke="none"/><text fill="#000000" stroke="none" font-family="Arial" font-size="13px" font-style="normal" font-weight="normal" text-decoration="undefined" x="1105.828125" y="784.5" text-anchor="middle" dominant-baseline="central" transform="matrix(1 0 0 1 -541 -498)">«include»</text></g></g><g><path fill="none" stroke="#000000" paint-order="fill stroke markers" d=" M 245 247 L 134 244" stroke-miterlimit="10" stroke-dasharray=""/></g><g><path fill="#C0C0C0" stroke="none" paint-order="stroke fill markers" d=" M 261 103.5 C 261 88.86445279999998 319.20297600000004 77 391 77 C 462.79702399999996 77 521 88.86445279999998 521 103.5 C 521 118.13554720000002 462.79702399999996 130 391 130 C 319.20297600000004 130 261 118.13554720000002 261 103.5 Z" fill-opacity="0.2"/></g><g><path fill="#ffffff" stroke="none" paint-order="stroke fill markers" d=" M 254 96.5 C 254 81.86445279999998 312.20297600000004 70 384 70 C 455.79702399999996 70 514 81.86445279999998 514 96.5 C 514 111.13554720000002 455.79702399999996 123 384 123 C 312.20297600000004 123 254 111.13554720000002 254 96.5 Z"/></g><g><path fill="none" stroke="#000000" paint-order="fill stroke markers" d=" M 254 96.5 C 254 81.86445279999998 312.20297600000004 70 384 70 C 455.79702399999996 70 514 81.86445279999998 514 96.5 C 514 111.13554720000002 455.79702399999996 123 384 123 C 312.20297600000004 123 254 111.13554720000002 254 96.5 Z" stroke-miterlimit="10" stroke-dasharray=""/></g><g><g><path fill="none" stroke="none"/><text fill="#000000" stroke="none" font-family="Arial" font-size="13px" font-style="normal" font-weight="bold" text-decoration="undefined" x="925" y="589" text-anchor="middle" dominant-baseline="central" transform="matrix(1 0 0 1 -541 -498)">UC30 - Dati non disponibili</text><text fill="#000000" stroke="none" font-family="Arial" font-size="13px" font-style="normal" font-weight="bold" text-decoration="undefined" x="925" y="602" text-anchor="middle" dominant-baseline="central" transform="matrix(1 0 0 1 -541 -498)">per il sensore selezionato</text></g></g><g><path fill="#C0C0C0" stroke="none" paint-order="stroke fill markers" d=" M 301 407.5 C 301 392.8644528 338.60807680000005 381 385 381 C 431.39192319999995 381 469 392.8644528 469 407.5 C 469 422.1355472 431.39192319999995 434 385 434 C 338.60807680000005 434 301 422.1355472 301 407.5 Z" fill-opacity="0.2"/></g><g><path fill="#ffffff" stroke="none" paint-order="stroke fill markers" d=" M 294 400.5 C 294 385.8644528 331.60807680000005 374 378 374 C 424.39192319999995 374 462 385.8644528 462 400.5 C 462 415.1355472 424.39192319999995 427 378 427 C 331.60807680000005 427 294 415.1355472 294 400.5 Z"/></g><g><path fill="none" stroke="#000000" paint-order="fill stroke markers" d=" M 294 400.5 C 294 385.8644528 331.60807680000005 374 378 374 C 424.39192319999995 374 462 385.8644528 462 400.5 C 462 415.1355472 424.39192319999995 427 378 427 C 331.60807680000005 427 294 415.1355472 294 400.5 Z" stroke-miterlimit="10" stroke-dasharray=""/></g><g><g><path fill="none" stroke="none"/><text fill="#000000" stroke="none" font-family="Arial" font-size="13px" font-style="normal" font-weight="bold" text-decoration="undefined" x="919" y="893" text-anchor="middle" dominant-baseline="central" transform="matrix(1 0 0 1 -541 -498)">UC23 - Selezione</text><text fill="#000000" stroke="none" font-family="Arial" font-size="13px" font-style="normal" font-weight="bold" text-decoration="undefined" x="919" y="906" text-anchor="middle" dominant-baseline="central" transform="matrix(1 0 0 1 -541 -498)">sensore</text></g></g><g><path fill="#C0C0C0" stroke="none" paint-order="stroke fill markers" d=" M 613 175.5 C 613 160.86445279999998 663.1441024000001 149 725 149 C 786.8558975999999 149 837 160.86445279999998 837 175.5 C 837 190.13554720000002 786.8558975999999 202 725 202 C 663.1441024000001 202 613 190.13554720000002 613 175.5 Z" fill-opacity="0.2"/></g><g><path fill="#ffffff" stroke="none" paint-order="stroke fill markers" d=" M 606 168.5 C 606 153.86445279999998 656.1441024000001 142 718 142 C 779.8558975999999 142 830 153.86445279999998 830 168.5 C 830 183.13554720000002 779.8558975999999 195 718 195 C 656.1441024000001 195 606 183.13554720000002 606 168.5 Z"/></g><g><path fill="none" stroke="#000000" paint-order="fill stroke markers" d=" M 606 168.5 C 606 153.86445279999998 656.1441024000001 142 718 142 C 779.8558975999999 142 830 153.86445279999998 830 168.5 C 830 183.13554720000002 779.8558975999999 195 718 195 C 656.1441024000001 195 606 183.13554720000002 606 168.5 Z" stroke-miterlimit="10" stroke-dasharray=""/></g><g><g><path fill="none" stroke="none"/><text fill="#000000" stroke="none" font-family="Arial" font-size="13px" font-style="normal" font-weight="bold" text-decoration="undefined" x="1259" y="661" text-anchor="middle" dominant-baseline="central" transform="matrix(1 0 0 1 -541 -498)">UC29 - Intervallo di</text><text fill="#000000" stroke="none" font-family="Arial" font-size="13px" font-style="normal" font-weight="bold" text-decoration="undefined" x="1259" y="674" text-anchor="middle" dominant-baseline="central" transform="matrix(1 0 0 1 -541 -498)">valori non valido</text></g></g><g><path fill="#C0C0C0" stroke="none" paint-order="stroke fill markers" d=" M 597 353 C 597 333.11774720000005 661.4709888 317 741 317 C 820.5290112 317 885 333.11774720000005 885 353 C 885 372.88225279999995 820.5290112 389 741 389 C 661.4709888 389 597 372.88225279999995 597 353 Z" fill-opacity="0.2"/></g><g><path fill="#ffffff" stroke="none" paint-order="stroke fill markers" d=" M 590 346 C 590 326.11774720000005 654.4709888 310 734 310 C 813.5290112 310 878 326.11774720000005 878 346 C 878 365.88225279999995 813.5290112 382 734 382 C 654.4709888 382 590 365.88225279999995 590 346 Z"/></g><g><path fill="none" stroke="#000000" paint-order="fill stroke markers" d=" M 590 346 C 590 326.11774720000005 654.4709888 310 734 310 C 813.5290112 310 878 326.11774720000005 878 346 C 878 365.88225279999995 813.5290112 382 734 382 C 654.4709888 382 590 365.88225279999995 590 346 Z" stroke-miterlimit="10" stroke-dasharray=""/></g><g><g><path fill="none" stroke="none"/><text fill="#000000" stroke="none" font-family="Arial" font-size="13px" font-style="normal" font-weight="bold" text-decoration="undefined" x="1275" y="832" text-anchor="middle" dominant-baseline="central" transform="matrix(1 0 0 1 -541 -498)">UC28.1 - Visualizzazione</text><text fill="#000000" stroke="none" font-family="Arial" font-size="13px" font-style="normal" font-weight="bold" text-decoration="undefined" x="1275" y="845" text-anchor="middle" dominant-baseline="central" transform="matrix(1 0 0 1 -541 -498)">grafico dati sensore filtrato per</text><text fill="#000000" stroke="none" font-family="Arial" font-size="13px" font-style="normal" font-weight="bold" text-decoration="undefined" x="1275" y="858" text-anchor="middle" dominant-baseline="central" transform="matrix(1 0 0 1 -541 -498)">intervallo di valori</text></g></g></g></svg>