<svg version="1.1" xmlns="http://www.w3.org/2000/svg" xmlns:xlink="http://www.w3.org/1999/xlink" width="1061" height="404"><defs/><g><g><rect fill="#C0C0C0" stroke="none" x="552" y="377" width="816" height="384" transform="matrix(1 0 0 1 -311 -360)" fill-opacity="0.2"/></g><g><rect fill="#ffffff" stroke="none" x="545" y="370" width="816" height="384" transform="matrix(1 0 0 1 -311 -360)"/></g><g><path fill="none" stroke="#000000" paint-order="fill stroke markers" d=" M 234 10 L 1050 10 L 1050 394 L 234 394 L 234 10 Z Z" stroke-miterlimit="10" stroke-dasharray=""/></g><g><g><path fill="none" stroke="none"/><text fill="#000000" stroke="none" font-family="Arial" font-size="13px" font-style="normal" font-weight="bold" text-decoration="undefined" x="953.5" y="383.5" text-anchor="middle" dominant-baseline="central" transform="matrix(1 0 0 1 -311 -360)">Sistema Cloud</text></g></g><g><path fill="#ffffff" stroke="none" paint-order="stroke fill markers" d=" M 62.860439453125025 139.85000000000002 C 62.860439453125025 134.96227952000004 66.81824182112501 131 71.700439453125 131 C 76.58263708512499 131 80.54043945312497 134.96227952000004 80.54043945312497 139.85000000000002 C 80.54043945312497 144.73772048 76.58263708512499 148.7 71.700439453125 148.7 C 66.81824182112501 148.7 62.860439453125025 144.73772048 62.860439453125025 139.85000000000002 Z"/></g><g><path fill="none" stroke="#000000" paint-order="fill stroke markers" d=" M 62.860439453125025 139.85000000000002 C 62.860439453125025 134.96227952000004 66.81824182112501 131 71.700439453125 131 C 76.58263708512499 131 80.54043945312497 134.96227952000004 80.54043945312497 139.85000000000002 C 80.54043945312497 144.73772048 76.58263708512499 148.7 71.700439453125 148.7 C 66.81824182112501 148.7 62.860439453125025 144.73772048 62.860439453125025 139.85000000000002 Z" stroke-miterlimit="10" stroke-dasharray=""/></g><g><path fill="none" stroke="#000000" paint-order="fill stroke markers" d=" M 71.700439453125 148.7 L 71.700439453125 166.29999999999995" stroke-miterlimit="10" stroke-dasharray=""/></g><g><path fill="none" stroke="#000000" paint-order="fill stroke markers" d=" M 62.340439453124986 155.29999999999995 L 81.06043945312501 155.29999999999995" stroke-miterlimit="10" stroke-dasharray=""/></g><g><path fill="none" stroke="#000000" paint-order="fill stroke markers" d=" M 71.700439453125 166.29999999999995 L 58.700439453125 184" stroke-miterlimit="10" stroke-dasharray=""/></g><g><path fill="none" stroke="#000000" paint-order="fill stroke markers" d=" M 71.700439453125 166.29999999999995 L 84.700439453125 184" stroke-miterlimit="10" stroke-dasharray=""/></g><g><g><path fill="none" stroke="none"/><text fill="#000000" stroke="none" font-family="Arial" font-size="13px" font-style="normal" font-weight="bold" text-decoration="undefined" x="383.200439453125" y="558.5" text-anchor="middle" dominant-baseline="central" transform="matrix(1 0 0 1 -311 -360)">Utente autenticato</text></g></g><g><path fill="#C0C0C0" stroke="none" paint-order="stroke fill markers" d=" M 393 187.5 C 393 172.86445279999998 461.0527104 161 545 161 C 628.9472896 161 697 172.86445279999998 697 187.5 C 697 202.13554720000002 628.9472896 214 545 214 C 461.0527104 214 393 202.13554720000002 393 187.5 Z" fill-opacity="0.2"/></g><g><path fill="#ffffff" stroke="none" paint-order="stroke fill markers" d=" M 386 180.5 C 386 165.86445279999998 454.0527104 154 538 154 C 621.9472896 154 690 165.86445279999998 690 180.5 C 690 195.13554720000002 621.9472896 207 538 207 C 454.0527104 207 386 195.13554720000002 386 180.5 Z"/></g><g><path fill="none" stroke="#000000" paint-order="fill stroke markers" d=" M 386 180.5 C 386 165.86445279999998 454.0527104 154 538 154 C 621.9472896 154 690 165.86445279999998 690 180.5 C 690 195.13554720000002 621.9472896 207 538 207 C 454.0527104 207 386 195.13554720000002 386 180.5 Z" stroke-miterlimit="10" stroke-dasharray=""/></g><g><g><path fill="none" stroke="none"/><text fill="#000000" stroke="none" font-family="Arial" font-size="13px" font-style="normal" font-weight="bold" text-decoration="undefined" x="849" y="535" text-anchor="middle" dominant-baseline="central" transform="matrix(1 0 0 1 -311 -360)">UC28 - Filtraggio dati del</text><text fill="#000000" stroke="none" font-family="Arial" font-size="13px" font-style="normal" font-weight="bold" text-decoration="undefined" x="849" y="548" text-anchor="middle" dominant-baseline="central" transform="matrix(1 0 0 1 -311 -360)">sensore per intervallo di valori</text></g></g><g><path fill="#C0C0C0" stroke="none" paint-order="stroke fill markers" d=" M 385 83.5 C 385 68.86445279999998 454.84357120000004 57 541 57 C 627.1564288 57 697 68.86445279999998 697 83.5 C 697 98.13554720000002 627.1564288 110 541 110 C 454.84357120000004 110 385 98.13554720000002 385 83.5 Z" fill-opacity="0.2"/></g><g><path fill="#ffffff" stroke="none" paint-order="stroke fill markers" d=" M 378 76.5 C 378 61.86445279999998 447.84357120000004 50 534 50 C 620.1564288 50 690 61.86445279999998 690 76.5 C 690 91.13554720000002 620.1564288 103 534 103 C 447.84357120000004 103 378 91.13554720000002 378 76.5 Z"/></g><g><path fill="none" stroke="#000000" paint-order="fill stroke markers" d=" M 378 76.5 C 378 61.86445279999998 447.84357120000004 50 534 50 C 620.1564288 50 690 61.86445279999998 690 76.5 C 690 91.13554720000002 620.1564288 103 534 103 C 447.84357120000004 103 378 91.13554720000002 378 76.5 Z" stroke-miterlimit="10" stroke-dasharray=""/></g><g><g><path fill="none" stroke="none"/><text fill="#000000" stroke="none" font-family="Arial" font-size="13px" font-style="normal" font-weight="bold" text-decoration="undefined" x="845" y="431" text-anchor="middle" dominant-baseline="central" transform="matrix(1 0 0 1 -311 -360)">UC30 - Dati non disponibili per il</text><text fill="#000000" stroke="none" font-family="Arial" font-size="13px" font-style="normal" font-weight="bold" text-decoration="undefined" x="845" y="444" text-anchor="middle" dominant-baseline="central" transform="matrix(1 0 0 1 -311 -360)">sensore selezionato</text></g></g><g><path fill="#C0C0C0" stroke="none" paint-order="stroke fill markers" d=" M 801 91.5 C 801 76.86445279999998 849.3532416 65 909 65 C 968.6467584 65 1017 76.86445279999998 1017 91.5 C 1017 106.13554720000002 968.6467584 118 909 118 C 849.3532416 118 801 106.13554720000002 801 91.5 Z" fill-opacity="0.2"/></g><g><path fill="#ffffff" stroke="none" paint-order="stroke fill markers" d=" M 794 84.5 C 794 69.86445279999998 842.3532416 58 902 58 C 961.6467584 58 1010 69.86445279999998 1010 84.5 C 1010 99.13554720000002 961.6467584 111 902 111 C 842.3532416 111 794 99.13554720000002 794 84.5 Z"/></g><g><path fill="none" stroke="#000000" paint-order="fill stroke markers" d=" M 794 84.5 C 794 69.86445279999998 842.3532416 58 902 58 C 961.6467584 58 1010 69.86445279999998 1010 84.5 C 1010 99.13554720000002 961.6467584 111 902 111 C 842.3532416 111 794 99.13554720000002 794 84.5 Z" stroke-miterlimit="10" stroke-dasharray=""/></g><g><g><path fill="none" stroke="none"/><text fill="#000000" stroke="none" font-family="Arial" font-size="13px" font-style="normal" font-weight="bold" text-decoration="undefined" x="1213" y="439" text-anchor="middle" dominant-baseline="central" transform="matrix(1 0 0 1 -311 -360)">UC29 - Intervallo di</text><text fill="#000000" stroke="none" font-family="Arial" font-size="13px" font-style="normal" font-weight="bold" text-decoration="undefined" x="1213" y="452" text-anchor="middle" dominant-baseline="central" transform="matrix(1 0 0 1 -311 -360)">valori non valido</text></g></g><g><path fill="#C0C0C0" stroke="none" paint-order="stroke fill markers" d=" M 433 299.5 C 433 284.8644528 486.05425119999995 273 551.5 273 C 616.9457488 273 670 284.8644528 670 299.5 C 670 314.1355472 616.9457488 326 551.5 326 C 486.05425119999995 326 433 314.1355472 433 299.5 Z" fill-opacity="0.2"/></g><g><path fill="#ffffff" stroke="none" paint-order="stroke fill markers" d=" M 426 292.5 C 426 277.8644528 479.05425119999995 266 544.5 266 C 609.9457488 266 663 277.8644528 663 292.5 C 663 307.1355472 609.9457488 319 544.5 319 C 479.05425119999995 319 426 307.1355472 426 292.5 Z"/></g><g><path fill="none" stroke="#000000" paint-order="fill stroke markers" d=" M 426 292.5 C 426 277.8644528 479.05425119999995 266 544.5 266 C 609.9457488 266 663 277.8644528 663 292.5 C 663 307.1355472 609.9457488 319 544.5 319 C 479.05425119999995 319 426 307.1355472 426 292.5 Z" stroke-miterlimit="10" stroke-dasharray=""/></g><g><g><path fill="none" stroke="none"/><text fill="#000000" stroke="none" font-family="Arial" font-size="13px" font-style="normal" font-weight="bold" text-decoration="undefined" x="855.5" y="647" text-anchor="middle" dominant-baseline="central" transform="matrix(1 0 0 1 -311 -360)">UC23 - Selezione</text><text fill="#000000" stroke="none" font-family="Arial" font-size="13px" font-style="normal" font-weight="bold" text-decoration="undefined" x="855.5" y="660" text-anchor="middle" dominant-baseline="central" transform="matrix(1 0 0 1 -311 -360)">sensore</text></g></g><g><path fill="#C0C0C0" stroke="none" paint-order="stroke fill markers" d=" M 705 317 C 705 297.11774720000005 773.0527104 281 857 281 C 940.9472896 281 1009 297.11774720000005 1009 317 C 1009 336.88225279999995 940.9472896 353 857 353 C 773.0527104 353 705 336.88225279999995 705 317 Z" fill-opacity="0.2"/></g><g><path fill="#ffffff" stroke="none" paint-order="stroke fill markers" d=" M 698 310 C 698 290.11774720000005 766.0527104 274 850 274 C 933.9472896 274 1002 290.11774720000005 1002 310 C 1002 329.88225279999995 933.9472896 346 850 346 C 766.0527104 346 698 329.88225279999995 698 310 Z"/></g><g><path fill="none" stroke="#000000" paint-order="fill stroke markers" d=" M 698 310 C 698 290.11774720000005 766.0527104 274 850 274 C 933.9472896 274 1002 290.11774720000005 1002 310 C 1002 329.88225279999995 933.9472896 346 850 346 C 766.0527104 346 698 329.88225279999995 698 310 Z" stroke-miterlimit="10" stroke-dasharray=""/></g><g><g><path fill="none" stroke="none"/><text fill="#000000" stroke="none" font-family="Arial" font-size="13px" font-style="normal" font-weight="bold" text-decoration="undefined" x="1161" y="658" text-anchor="middle" dominant-baseline="central" transform="matrix(1 0 0 1 -311 -360)">UC28.1 - Visualizzazione grafico</text><text fill="#000000" stroke="none" font-family="Arial" font-size="13px" font-style="normal" font-weight="bold" text-decoration="undefined" x="1161" y="671" text-anchor="middle" dominant-baseline="central" transform="matrix(1 0 0 1 -311 -360)">dati sensore filtrato per</text><text fill="#000000" stroke="none" font-family="Arial" font-size="13px" font-style="normal" font-weight="bold" text-decoration="undefined" x="1161" y="684" text-anchor="middle" dominant-baseline="central" transform="matrix(1 0 0 1 -311 -360)">intervallo di valori</text></g></g><g><path fill="none" stroke="#000000" paint-order="fill stroke markers" d=" M 535 104 L 537 153" stroke-miterlimit="10" stroke-dasharray="3"/></g><g><path fill="none" stroke="#000000" paint-order="fill stroke markers" d=" M 532.3795263779318 143.01745405681635 L 537 153 L 540.7915576994734 142.6741058396106" stroke-miterlimit="10" stroke-dasharray=""/></g><g><rect fill="#ffffff" stroke="none" x="850" y="480" width="53.49169921875" height="13" transform="matrix(1 0 0 1 -311 -360)"/></g><g><g><path fill="none" stroke="none"/><text fill="#000000" stroke="none" font-family="Arial" font-size="13px" font-style="normal" font-weight="normal" text-decoration="undefined" x="876.745849609375" y="486.5" text-anchor="middle" dominant-baseline="central" transform="matrix(1 0 0 1 -311 -360)">«extend»</text></g></g><g><path fill="none" stroke="#000000" paint-order="fill stroke markers" d=" M 796 112 L 640 153" stroke-miterlimit="10" stroke-dasharray="3"/></g><g><path fill="none" stroke="#000000" paint-order="fill stroke markers" d=" M 648.7588703286826 146.34551350100378 L 640 153 L 650.8988891336996 154.48802407619064" stroke-miterlimit="10" stroke-dasharray=""/></g><g><rect fill="#ffffff" stroke="none" x="1003" y="471" width="53.49169921875" height="13" transform="matrix(1 0 0 1 -311 -360)"/></g><g><g><path fill="none" stroke="none"/><text fill="#000000" stroke="none" font-family="Arial" font-size="13px" font-style="normal" font-weight="normal" text-decoration="undefined" x="1029.745849609375" y="477.5" text-anchor="middle" dominant-baseline="central" transform="matrix(1 0 0 1 -311 -360)">«extend»</text></g></g><g><path fill="none" stroke="#000000" paint-order="fill stroke markers" d=" M 540 208 L 543 265" stroke-miterlimit="10" stroke-dasharray="3"/></g><g><path fill="none" stroke="#000000" paint-order="fill stroke markers" d=" M 538.2621621840279 255.07261903473307 L 543 265 L 546.6695611521266 254.6301243522015" stroke-miterlimit="10" stroke-dasharray=""/></g><g><rect fill="#ffffff" stroke="none" x="854" y="587" width="55.65625" height="13" transform="matrix(1 0 0 1 -311 -360)"/></g><g><g><path fill="none" stroke="none"/><text fill="#000000" stroke="none" font-family="Arial" font-size="13px" font-style="normal" font-weight="normal" text-decoration="undefined" x="881.828125" y="593.5" text-anchor="middle" dominant-baseline="central" transform="matrix(1 0 0 1 -311 -360)">«include»</text></g></g><g><path fill="none" stroke="#000000" paint-order="fill stroke markers" d=" M 605 208 L 761 273" stroke-miterlimit="10" stroke-dasharray="3"/></g><g><path fill="none" stroke="#000000" paint-order="fill stroke markers" d=" M 750.0000240714178 272.9769875987747 L 761 273 L 753.2381146529685 265.20557020305284" stroke-miterlimit="10" stroke-dasharray=""/></g><g><rect fill="#ffffff" stroke="none" x="986" y="587" width="55.65625" height="13" transform="matrix(1 0 0 1 -311 -360)"/></g><g><g><path fill="none" stroke="none"/><text fill="#000000" stroke="none" font-family="Arial" font-size="13px" font-style="normal" font-weight="normal" text-decoration="undefined" x="1013.828125" y="593.5" text-anchor="middle" dominant-baseline="central" transform="matrix(1 0 0 1 -311 -360)">«include»</text></g></g><g><path fill="none" stroke="#000000" paint-order="fill stroke markers" d=" M 385 177 L 134 171" stroke-miterlimit="10" stroke-dasharray=""/></g><g><path fill="#ffffff" stroke="none" paint-order="stroke fill markers" d=" M 850 130 L 959 130 L 969 140 L 969 247 L 850 247 L 850 130"/></g><g><path fill="none" stroke="#000000" paint-order="fill stroke markers" d=" M 850 130 L 959 130 L 969 140 L 969 247 L 850 247 L 850 130 L 850 130" stroke-miterlimit="10" stroke-dasharray=""/></g><g><path fill="none" stroke="#000000" paint-order="fill stroke markers" d=" M 959 130 L 959 140 L 969 140 L 959 130" stroke-miterlimit="10" stroke-dasharray=""/></g><g><g><path fill="none" stroke="none"/><text fill="#000000" stroke="none" font-family="Arial" font-size="13px" font-style="normal" font-weight="normal" text-decoration="undefined" x="1221" y="502" text-anchor="middle" dominant-baseline="text-before-edge" transform="matrix(1 0 0 1 -311 -360)">Condizione:</text></g></g><g><g><path fill="none" stroke="none"/><text fill="#000000" stroke="none" font-family="Arial" font-size="13px" font-style="normal" font-weight="normal" text-decoration="undefined" x="1221" y="517" text-anchor="middle" dominant-baseline="text-before-edge" transform="matrix(1 0 0 1 -311 -360)">L'utente ha</text><text fill="#000000" stroke="none" font-family="Arial" font-size="13px" font-style="normal" font-weight="normal" text-decoration="undefined" x="1221" y="530" text-anchor="middle" dominant-baseline="text-before-edge" transform="matrix(1 0 0 1 -311 -360)">selezionato un</text><text fill="#000000" stroke="none" font-family="Arial" font-size="13px" font-style="normal" font-weight="normal" text-decoration="undefined" x="1221" y="543" text-anchor="middle" dominant-baseline="text-before-edge" transform="matrix(1 0 0 1 -311 -360)">intervallo di valori</text><text fill="#000000" stroke="none" font-family="Arial" font-size="13px" font-style="normal" font-weight="normal" text-decoration="undefined" x="1221" y="556" text-anchor="middle" dominant-baseline="text-before-edge" transform="matrix(1 0 0 1 -311 -360)">con upper bound</text><text fill="#000000" stroke="none" font-family="Arial" font-size="13px" font-style="normal" font-weight="normal" text-decoration="undefined" x="1221" y="569" text-anchor="middle" dominant-baseline="text-before-edge" transform="matrix(1 0 0 1 -311 -360)">minore del lower</text><text fill="#000000" stroke="none" font-family="Arial" font-size="13px" font-style="normal" font-weight="normal" text-decoration="undefined" x="1221" y="582" text-anchor="middle" dominant-baseline="text-before-edge" transform="matrix(1 0 0 1 -311 -360)">bound</text></g></g><g><path fill="#ffffff" stroke="none" paint-order="stroke fill markers" d=" M 250 26 L 359 26 L 369 36 L 369 156 L 250 156 L 250 26"/></g><g><path fill="none" stroke="#000000" paint-order="fill stroke markers" d=" M 250 26 L 359 26 L 369 36 L 369 156 L 250 156 L 250 26 L 250 26" stroke-miterlimit="10" stroke-dasharray=""/></g><g><path fill="none" stroke="#000000" paint-order="fill stroke markers" d=" M 359 26 L 359 36 L 369 36 L 359 26" stroke-miterlimit="10" stroke-dasharray=""/></g><g><g><path fill="none" stroke="none"/><text fill="#000000" stroke="none" font-family="Arial" font-size="13px" font-style="normal" font-weight="normal" text-decoration="undefined" x="621" y="398" text-anchor="middle" dominant-baseline="text-before-edge" transform="matrix(1 0 0 1 -311 -360)">Condizione:</text></g></g><g><g><path fill="none" stroke="none"/><text fill="#000000" stroke="none" font-family="Arial" font-size="13px" font-style="normal" font-weight="normal" text-decoration="undefined" x="621" y="413" text-anchor="middle" dominant-baseline="text-before-edge" transform="matrix(1 0 0 1 -311 -360)">L'utente ha</text><text fill="#000000" stroke="none" font-family="Arial" font-size="13px" font-style="normal" font-weight="normal" text-decoration="undefined" x="621" y="426" text-anchor="middle" dominant-baseline="text-before-edge" transform="matrix(1 0 0 1 -311 -360)">selezionato un</text><text fill="#000000" stroke="none" font-family="Arial" font-size="13px" font-style="normal" font-weight="normal" text-decoration="undefined" x="621" y="439" text-anchor="middle" dominant-baseline="text-before-edge" transform="matrix(1 0 0 1 -311 -360)">sensore e un</text><text fill="#000000" stroke="none" font-family="Arial" font-size="13px" font-style="normal" font-weight="normal" text-decoration="undefined" x="621" y="452" text-anchor="middle" dominant-baseline="text-before-edge" transform="matrix(1 0 0 1 -311 -360)">intervallo di valori</text><text fill="#000000" stroke="none" font-family="Arial" font-size="13px" font-style="normal" font-weight="normal" text-decoration="undefined" x="621" y="465" text-anchor="middle" dominant-baseline="text-before-edge" transform="matrix(1 0 0 1 -311 -360)">per cui non sono</text><text fill="#000000" stroke="none" font-family="Arial" font-size="13px" font-style="normal" font-weight="normal" text-decoration="undefined" x="621" y="478" text-anchor="middle" dominant-baseline="text-before-edge" transform="matrix(1 0 0 1 -311 -360)">disponibili dati</text><text fill="#000000" stroke="none" font-family="Arial" font-size="13px" font-style="normal" font-weight="normal" text-decoration="undefined" x="621" y="491" text-anchor="middle" dominant-baseline="text-before-edge" transform="matrix(1 0 0 1 -311 -360)">storici</text></g></g><g><path fill="none" stroke="#000000" paint-order="fill stroke markers" d=" M 849 171 L 718 132" stroke-miterlimit="10" stroke-dasharray="3"/></g><g><path fill="none" stroke="#000000" paint-order="fill stroke markers" d=" M 371 101 L 536 128" stroke-miterlimit="10" stroke-dasharray="3"/></g></g></svg>