<svg version="1.1" xmlns="http://www.w3.org/2000/svg" xmlns:xlink="http://www.w3.org/1999/xlink" width="1152" height="396"><defs/><g><g><rect fill="#C0C0C0" stroke="none" x="303" y="415" width="928" height="376" transform="matrix(1 0 0 1 -83 -398)" fill-opacity="0.2"/></g><g><rect fill="#ffffff" stroke="none" x="296" y="408" width="928" height="376" transform="matrix(1 0 0 1 -83 -398)"/></g><g><path fill="none" stroke="#000000" paint-order="fill stroke markers" d=" M 213 10 L 1141 10 L 1141 386 L 213 386 L 213 10 Z Z" stroke-miterlimit="10" stroke-dasharray=""/></g><g><g><path fill="none" stroke="none"/><text fill="#000000" stroke="none" font-family="Arial" font-size="13px" font-style="normal" font-weight="bold" text-decoration="undefined" x="760.5" y="421.5" text-anchor="middle" dominant-baseline="central" transform="matrix(1 0 0 1 -83 -398)">Sistema Cloud</text></g></g><g><path fill="#ffffff" stroke="none" paint-order="stroke fill markers" d=" M 62.860439453125 170.85000000000002 C 62.860439453125 165.96227952000004 66.81824182112499 162 71.700439453125 162 C 76.58263708512501 162 80.540439453125 165.96227952000004 80.540439453125 170.85000000000002 C 80.540439453125 175.73772048 76.58263708512501 179.70000000000005 71.700439453125 179.70000000000005 C 66.81824182112499 179.70000000000005 62.860439453125 175.73772048 62.860439453125 170.85000000000002 Z"/></g><g><path fill="none" stroke="#000000" paint-order="fill stroke markers" d=" M 62.860439453125 170.85000000000002 C 62.860439453125 165.96227952000004 66.81824182112499 162 71.700439453125 162 C 76.58263708512501 162 80.540439453125 165.96227952000004 80.540439453125 170.85000000000002 C 80.540439453125 175.73772048 76.58263708512501 179.70000000000005 71.700439453125 179.70000000000005 C 66.81824182112499 179.70000000000005 62.860439453125 175.73772048 62.860439453125 170.85000000000002 Z" stroke-miterlimit="10" stroke-dasharray=""/></g><g><path fill="none" stroke="#000000" paint-order="fill stroke markers" d=" M 71.700439453125 179.70000000000005 L 71.700439453125 197.29999999999995" stroke-miterlimit="10" stroke-dasharray=""/></g><g><path fill="none" stroke="#000000" paint-order="fill stroke markers" d=" M 62.340439453124986 186.29999999999995 L 81.06043945312501 186.29999999999995" stroke-miterlimit="10" stroke-dasharray=""/></g><g><path fill="none" stroke="#000000" paint-order="fill stroke markers" d=" M 71.700439453125 197.29999999999995 L 58.700439453125 215" stroke-miterlimit="10" stroke-dasharray=""/></g><g><path fill="none" stroke="#000000" paint-order="fill stroke markers" d=" M 71.700439453125 197.29999999999995 L 84.700439453125 215" stroke-miterlimit="10" stroke-dasharray=""/></g><g><g><path fill="none" stroke="none"/><text fill="#000000" stroke="none" font-family="Arial" font-size="13px" font-style="normal" font-weight="bold" text-decoration="undefined" x="155.200439453125" y="627.5" text-anchor="middle" dominant-baseline="central" transform="matrix(1 0 0 1 -83 -398)">Utente autenticato</text></g></g><g><path fill="#C0C0C0" stroke="none" paint-order="stroke fill markers" d=" M 393 218.5 C 393 203.86445279999998 461.0527104 192 545 192 C 628.9472896 192 697 203.86445279999998 697 218.5 C 697 233.13554720000002 628.9472896 245 545 245 C 461.0527104 245 393 233.13554720000002 393 218.5 Z" fill-opacity="0.2"/></g><g><path fill="#ffffff" stroke="none" paint-order="stroke fill markers" d=" M 386 211.5 C 386 196.86445279999998 454.0527104 185 538 185 C 621.9472896 185 690 196.86445279999998 690 211.5 C 690 226.13554720000002 621.9472896 238 538 238 C 454.0527104 238 386 226.13554720000002 386 211.5 Z"/></g><g><path fill="none" stroke="#000000" paint-order="fill stroke markers" d=" M 386 211.5 C 386 196.86445279999998 454.0527104 185 538 185 C 621.9472896 185 690 196.86445279999998 690 211.5 C 690 226.13554720000002 621.9472896 238 538 238 C 454.0527104 238 386 226.13554720000002 386 211.5 Z" stroke-miterlimit="10" stroke-dasharray=""/></g><g><g><path fill="none" stroke="none"/><text fill="#000000" stroke="none" font-family="Arial" font-size="13px" font-style="normal" font-weight="bold" text-decoration="undefined" x="621" y="604" text-anchor="middle" dominant-baseline="central" transform="matrix(1 0 0 1 -83 -398)">UC28 - Filtraggio dati del</text><text fill="#000000" stroke="none" font-family="Arial" font-size="13px" font-style="normal" font-weight="bold" text-decoration="undefined" x="621" y="617" text-anchor="middle" dominant-baseline="central" transform="matrix(1 0 0 1 -83 -398)">sensore per intervallo di valori</text></g></g><g><path fill="#C0C0C0" stroke="none" paint-order="stroke fill markers" d=" M 385 114.5 C 385 99.86445279999998 454.84357120000004 88 541 88 C 627.1564288 88 697 99.86445279999998 697 114.5 C 697 129.13554720000002 627.1564288 141 541 141 C 454.84357120000004 141 385 129.13554720000002 385 114.5 Z" fill-opacity="0.2"/></g><g><path fill="#ffffff" stroke="none" paint-order="stroke fill markers" d=" M 378 107.5 C 378 92.86445279999998 447.84357120000004 81 534 81 C 620.1564288 81 690 92.86445279999998 690 107.5 C 690 122.13554720000002 620.1564288 134 534 134 C 447.84357120000004 134 378 122.13554720000002 378 107.5 Z"/></g><g><path fill="none" stroke="#000000" paint-order="fill stroke markers" d=" M 378 107.5 C 378 92.86445279999998 447.84357120000004 81 534 81 C 620.1564288 81 690 92.86445279999998 690 107.5 C 690 122.13554720000002 620.1564288 134 534 134 C 447.84357120000004 134 378 122.13554720000002 378 107.5 Z" stroke-miterlimit="10" stroke-dasharray=""/></g><g><g><path fill="none" stroke="none"/><text fill="#000000" stroke="none" font-family="Arial" font-size="13px" font-style="normal" font-weight="bold" text-decoration="undefined" x="617" y="500" text-anchor="middle" dominant-baseline="central" transform="matrix(1 0 0 1 -83 -398)">UC30 - Dati non disponibili per il</text><text fill="#000000" stroke="none" font-family="Arial" font-size="13px" font-style="normal" font-weight="bold" text-decoration="undefined" x="617" y="513" text-anchor="middle" dominant-baseline="central" transform="matrix(1 0 0 1 -83 -398)">sensore selezionato</text></g></g><g><path fill="#C0C0C0" stroke="none" paint-order="stroke fill markers" d=" M 873 138.5 C 873 123.86445279999998 930.3075456 112 1001 112 C 1071.6924544 112 1129 123.86445279999998 1129 138.5 C 1129 153.13554720000002 1071.6924544 165 1001 165 C 930.3075456 165 873 153.13554720000002 873 138.5 Z" fill-opacity="0.2"/></g><g><path fill="#ffffff" stroke="none" paint-order="stroke fill markers" d=" M 866 131.5 C 866 116.86445279999998 923.3075456 105 994 105 C 1064.6924544 105 1122 116.86445279999998 1122 131.5 C 1122 146.13554720000002 1064.6924544 158 994 158 C 923.3075456 158 866 146.13554720000002 866 131.5 Z"/></g><g><path fill="none" stroke="#000000" paint-order="fill stroke markers" d=" M 866 131.5 C 866 116.86445279999998 923.3075456 105 994 105 C 1064.6924544 105 1122 116.86445279999998 1122 131.5 C 1122 146.13554720000002 1064.6924544 158 994 158 C 923.3075456 158 866 146.13554720000002 866 131.5 Z" stroke-miterlimit="10" stroke-dasharray=""/></g><g><g><path fill="none" stroke="none"/><text fill="#000000" stroke="none" font-family="Arial" font-size="13px" font-style="normal" font-weight="bold" text-decoration="undefined" x="1077" y="524" text-anchor="middle" dominant-baseline="central" transform="matrix(1 0 0 1 -83 -398)">UC29 - Intervallo di valori</text><text fill="#000000" stroke="none" font-family="Arial" font-size="13px" font-style="normal" font-weight="bold" text-decoration="undefined" x="1077" y="537" text-anchor="middle" dominant-baseline="central" transform="matrix(1 0 0 1 -83 -398)">non valido</text></g></g><g><path fill="#C0C0C0" stroke="none" paint-order="stroke fill markers" d=" M 713 332 C 713 312.11774720000005 791.7978752 296 889 296 C 986.2021248000001 296 1065 312.11774720000005 1065 332 C 1065 351.88225279999995 986.2021248000001 368 889 368 C 791.7978752 368 713 351.88225279999995 713 332 Z" fill-opacity="0.2"/></g><g><path fill="#ffffff" stroke="none" paint-order="stroke fill markers" d=" M 706 325 C 706 305.11774720000005 784.7978752 289 882 289 C 979.2021248000001 289 1058 305.11774720000005 1058 325 C 1058 344.88225279999995 979.2021248000001 361 882 361 C 784.7978752 361 706 344.88225279999995 706 325 Z"/></g><g><path fill="none" stroke="#000000" paint-order="fill stroke markers" d=" M 706 325 C 706 305.11774720000005 784.7978752 289 882 289 C 979.2021248000001 289 1058 305.11774720000005 1058 325 C 1058 344.88225279999995 979.2021248000001 361 882 361 C 784.7978752 361 706 344.88225279999995 706 325 Z" stroke-miterlimit="10" stroke-dasharray=""/></g><g><g><path fill="none" stroke="none"/><text fill="#000000" stroke="none" font-family="Arial" font-size="13px" font-style="normal" font-weight="bold" text-decoration="undefined" x="965" y="717.5" text-anchor="middle" dominant-baseline="central" transform="matrix(1 0 0 1 -83 -398)">UC28.1 - Visualizzazione grafico dati</text><text fill="#000000" stroke="none" font-family="Arial" font-size="13px" font-style="normal" font-weight="bold" text-decoration="undefined" x="965" y="730.5" text-anchor="middle" dominant-baseline="central" transform="matrix(1 0 0 1 -83 -398)">sensore filtrato per intervallo di valori</text></g></g><g><path fill="none" stroke="#000000" paint-order="fill stroke markers" d=" M 535 135 L 537 184" stroke-miterlimit="10" stroke-dasharray="3"/></g><g><path fill="none" stroke="#000000" paint-order="fill stroke markers" d=" M 532.3795263779318 174.0174540568164 L 537 184 L 540.7915576994734 173.67410583961055" stroke-miterlimit="10" stroke-dasharray=""/></g><g><rect fill="#ffffff" stroke="none" x="622" y="549" width="53.49169921875" height="13" transform="matrix(1 0 0 1 -83 -398)"/></g><g><g><path fill="none" stroke="none"/><text fill="#000000" stroke="none" font-family="Arial" font-size="13px" font-style="normal" font-weight="normal" text-decoration="undefined" x="648.745849609375" y="555.5" text-anchor="middle" dominant-baseline="central" transform="matrix(1 0 0 1 -83 -398)">«extend»</text></g></g><g><path fill="none" stroke="#000000" paint-order="fill stroke markers" d=" M 865 154 L 691 184" stroke-miterlimit="10" stroke-dasharray="3"/></g><g><path fill="none" stroke="#000000" paint-order="fill stroke markers" d=" M 700.2996845595576 178.1249793963999 L 691 184 L 701.7301369233753 186.42160310654265" stroke-miterlimit="10" stroke-dasharray=""/></g><g><rect fill="#ffffff" stroke="none" x="837" y="546" width="53.49169921875" height="13" transform="matrix(1 0 0 1 -83 -398)"/></g><g><g><path fill="none" stroke="none"/><text fill="#000000" stroke="none" font-family="Arial" font-size="13px" font-style="normal" font-weight="normal" text-decoration="undefined" x="863.745849609375" y="552.5" text-anchor="middle" dominant-baseline="central" transform="matrix(1 0 0 1 -83 -398)">«extend»</text></g></g><g><path fill="none" stroke="#000000" paint-order="fill stroke markers" d=" M 622 239 L 770 288" stroke-miterlimit="10" stroke-dasharray="3"/></g><g><path fill="none" stroke="#000000" paint-order="fill stroke markers" d=" M 759.0292779742628 288.8020338110098 L 770 288 L 761.6754045145826 280.80965160759445" stroke-miterlimit="10" stroke-dasharray=""/></g><g><rect fill="#ffffff" stroke="none" x="770" y="647" width="55.65625" height="13" transform="matrix(1 0 0 1 -83 -398)"/></g><g><g><path fill="none" stroke="none"/><text fill="#000000" stroke="none" font-family="Arial" font-size="13px" font-style="normal" font-weight="normal" text-decoration="undefined" x="797.828125" y="653.5" text-anchor="middle" dominant-baseline="central" transform="matrix(1 0 0 1 -83 -398)">«include»</text></g></g><g><path fill="none" stroke="#000000" paint-order="fill stroke markers" d=" M 385 208 L 134 202" stroke-miterlimit="10" stroke-dasharray=""/></g><g><path fill="#ffffff" stroke="none" paint-order="stroke fill markers" d=" M 850 161 L 959 161 L 969 171 L 969 278 L 850 278 L 850 161"/></g><g><path fill="none" stroke="#000000" paint-order="fill stroke markers" d=" M 850 161 L 959 161 L 969 171 L 969 278 L 850 278 L 850 161 L 850 161" stroke-miterlimit="10" stroke-dasharray=""/></g><g><path fill="none" stroke="#000000" paint-order="fill stroke markers" d=" M 959 161 L 959 171 L 969 171 L 959 161" stroke-miterlimit="10" stroke-dasharray=""/></g><g><g><path fill="none" stroke="none"/><text fill="#000000" stroke="none" font-family="Arial" font-size="13px" font-style="normal" font-weight="normal" text-decoration="undefined" x="993" y="571" text-anchor="middle" dominant-baseline="text-before-edge" transform="matrix(1 0 0 1 -83 -398)">Condizione:</text></g></g><g><g><path fill="none" stroke="none"/><text fill="#000000" stroke="none" font-family="Arial" font-size="13px" font-style="normal" font-weight="normal" text-decoration="undefined" x="993" y="586" text-anchor="middle" dominant-baseline="text-before-edge" transform="matrix(1 0 0 1 -83 -398)">L'utente ha</text><text fill="#000000" stroke="none" font-family="Arial" font-size="13px" font-style="normal" font-weight="normal" text-decoration="undefined" x="993" y="599" text-anchor="middle" dominant-baseline="text-before-edge" transform="matrix(1 0 0 1 -83 -398)">selezionato un</text><text fill="#000000" stroke="none" font-family="Arial" font-size="13px" font-style="normal" font-weight="normal" text-decoration="undefined" x="993" y="612" text-anchor="middle" dominant-baseline="text-before-edge" transform="matrix(1 0 0 1 -83 -398)">intervallo di valori</text><text fill="#000000" stroke="none" font-family="Arial" font-size="13px" font-style="normal" font-weight="normal" text-decoration="undefined" x="993" y="625" text-anchor="middle" dominant-baseline="text-before-edge" transform="matrix(1 0 0 1 -83 -398)">con upper bound</text><text fill="#000000" stroke="none" font-family="Arial" font-size="13px" font-style="normal" font-weight="normal" text-decoration="undefined" x="993" y="638" text-anchor="middle" dominant-baseline="text-before-edge" transform="matrix(1 0 0 1 -83 -398)">minore del lower</text><text fill="#000000" stroke="none" font-family="Arial" font-size="13px" font-style="normal" font-weight="normal" text-decoration="undefined" x="993" y="651" text-anchor="middle" dominant-baseline="text-before-edge" transform="matrix(1 0 0 1 -83 -398)">bound</text></g></g><g><path fill="#ffffff" stroke="none" paint-order="stroke fill markers" d=" M 250 57 L 359 57 L 369 67 L 369 187 L 250 187 L 250 57"/></g><g><path fill="none" stroke="#000000" paint-order="fill stroke markers" d=" M 250 57 L 359 57 L 369 67 L 369 187 L 250 187 L 250 57 L 250 57" stroke-miterlimit="10" stroke-dasharray=""/></g><g><path fill="none" stroke="#000000" paint-order="fill stroke markers" d=" M 359 57 L 359 67 L 369 67 L 359 57" stroke-miterlimit="10" stroke-dasharray=""/></g><g><g><path fill="none" stroke="none"/><text fill="#000000" stroke="none" font-family="Arial" font-size="13px" font-style="normal" font-weight="normal" text-decoration="undefined" x="393" y="467" text-anchor="middle" dominant-baseline="text-before-edge" transform="matrix(1 0 0 1 -83 -398)">Condizione:</text></g></g><g><g><path fill="none" stroke="none"/><text fill="#000000" stroke="none" font-family="Arial" font-size="13px" font-style="normal" font-weight="normal" text-decoration="undefined" x="393" y="482" text-anchor="middle" dominant-baseline="text-before-edge" transform="matrix(1 0 0 1 -83 -398)">L'utente ha</text><text fill="#000000" stroke="none" font-family="Arial" font-size="13px" font-style="normal" font-weight="normal" text-decoration="undefined" x="393" y="495" text-anchor="middle" dominant-baseline="text-before-edge" transform="matrix(1 0 0 1 -83 -398)">selezionato un</text><text fill="#000000" stroke="none" font-family="Arial" font-size="13px" font-style="normal" font-weight="normal" text-decoration="undefined" x="393" y="508" text-anchor="middle" dominant-baseline="text-before-edge" transform="matrix(1 0 0 1 -83 -398)">sensore e un</text><text fill="#000000" stroke="none" font-family="Arial" font-size="13px" font-style="normal" font-weight="normal" text-decoration="undefined" x="393" y="521" text-anchor="middle" dominant-baseline="text-before-edge" transform="matrix(1 0 0 1 -83 -398)">intervallo di valori</text><text fill="#000000" stroke="none" font-family="Arial" font-size="13px" font-style="normal" font-weight="normal" text-decoration="undefined" x="393" y="534" text-anchor="middle" dominant-baseline="text-before-edge" transform="matrix(1 0 0 1 -83 -398)">per cui non sono</text><text fill="#000000" stroke="none" font-family="Arial" font-size="13px" font-style="normal" font-weight="normal" text-decoration="undefined" x="393" y="547" text-anchor="middle" dominant-baseline="text-before-edge" transform="matrix(1 0 0 1 -83 -398)">disponibili dati</text><text fill="#000000" stroke="none" font-family="Arial" font-size="13px" font-style="normal" font-weight="normal" text-decoration="undefined" x="393" y="560" text-anchor="middle" dominant-baseline="text-before-edge" transform="matrix(1 0 0 1 -83 -398)">storici</text></g></g><g><path fill="none" stroke="#000000" paint-order="fill stroke markers" d=" M 849 196 L 778 169" stroke-miterlimit="10" stroke-dasharray="3"/></g><g><path fill="none" stroke="#000000" paint-order="fill stroke markers" d=" M 371 132 L 536 159" stroke-miterlimit="10" stroke-dasharray="3"/></g></g></svg>