<svg version="1.1" xmlns="http://www.w3.org/2000/svg" xmlns:xlink="http://www.w3.org/1999/xlink" width="781" height="220"><defs/><g><g><rect fill="#C0C0C0" stroke="none" x="239" y="399" width="624" height="200" transform="matrix(1 0 0 1 -86 -382)" fill-opacity="0.2"/></g><g><rect fill="#ffffff" stroke="none" x="232" y="392" width="624" height="200" transform="matrix(1 0 0 1 -86 -382)"/></g><g><path fill="none" stroke="#000000" paint-order="fill stroke markers" d=" M 146 10 L 770 10 L 770 210 L 146 210 L 146 10 Z Z" stroke-miterlimit="10" stroke-dasharray=""/></g><g><g><path fill="none" stroke="none"/><text fill="#000000" stroke="none" font-family="Arial" font-size="13px" font-style="normal" font-weight="bold" text-decoration="undefined" x="544.5" y="405.5" text-anchor="middle" dominant-baseline="central" transform="matrix(1 0 0 1 -86 -382)">Sistema cloud</text></g></g><g><path fill="#ffffff" stroke="none" paint-order="stroke fill markers" d=" M 55.2781640625 59.85000000000002 C 55.2781640625 54.96227952000004 59.235966430499985 51 64.1181640625 51 C 69.00036169450001 51 72.9581640625 54.96227952000004 72.9581640625 59.85000000000002 C 72.9581640625 64.73772048000001 69.00036169450001 68.69999999999999 64.1181640625 68.69999999999999 C 59.235966430499985 68.69999999999999 55.2781640625 64.73772048000001 55.2781640625 59.85000000000002 Z"/></g><g><path fill="none" stroke="#000000" paint-order="fill stroke markers" d=" M 55.2781640625 59.85000000000002 C 55.2781640625 54.96227952000004 59.235966430499985 51 64.1181640625 51 C 69.00036169450001 51 72.9581640625 54.96227952000004 72.9581640625 59.85000000000002 C 72.9581640625 64.73772048000001 69.00036169450001 68.69999999999999 64.1181640625 68.69999999999999 C 59.235966430499985 68.69999999999999 55.2781640625 64.73772048000001 55.2781640625 59.85000000000002 Z" stroke-miterlimit="10" stroke-dasharray=""/></g><g><path fill="none" stroke="#000000" paint-order="fill stroke markers" d=" M 64.1181640625 68.69999999999999 L 64.1181640625 86.30000000000001" stroke-miterlimit="10" stroke-dasharray=""/></g><g><path fill="none" stroke="#000000" paint-order="fill stroke markers" d=" M 54.758164062499986 75.30000000000001 L 73.47816406250001 75.30000000000001" stroke-miterlimit="10" stroke-dasharray=""/></g><g><path fill="none" stroke="#000000" paint-order="fill stroke markers" d=" M 64.1181640625 86.30000000000001 L 51.1181640625 104" stroke-miterlimit="10" stroke-dasharray=""/></g><g><path fill="none" stroke="#000000" paint-order="fill stroke markers" d=" M 64.1181640625 86.30000000000001 L 77.1181640625 104" stroke-miterlimit="10" stroke-dasharray=""/></g><g><g><path fill="none" stroke="none"/><text fill="#000000" stroke="none" font-family="Arial" font-size="13px" font-style="normal" font-weight="bold" text-decoration="undefined" x="150.6181640625" y="500.5" text-anchor="middle" dominant-baseline="central" transform="matrix(1 0 0 1 -86 -382)">Admin generico</text></g></g><g><path fill="#C0C0C0" stroke="none" paint-order="stroke fill markers" d=" M 177 101 C 177 81.1177472 232.5166848 65 301 65 C 369.4833152 65 425 81.1177472 425 101 C 425 120.8822528 369.4833152 137 301 137 C 232.5166848 137 177 120.8822528 177 101 Z" fill-opacity="0.2"/></g><g><path fill="#ffffff" stroke="none" paint-order="stroke fill markers" d=" M 170 94 C 170 74.1177472 225.5166848 58 294 58 C 362.4833152 58 418 74.1177472 418 94 C 418 113.8822528 362.4833152 130 294 130 C 225.5166848 130 170 113.8822528 170 94 Z"/></g><g><path fill="none" stroke="#000000" paint-order="fill stroke markers" d=" M 170 94 C 170 74.1177472 225.5166848 58 294 58 C 362.4833152 58 418 74.1177472 418 94 C 418 113.8822528 362.4833152 130 294 130 C 225.5166848 130 170 113.8822528 170 94 Z" stroke-miterlimit="10" stroke-dasharray=""/></g><g><g><path fill="none" stroke="none"/><text fill="#000000" stroke="none" font-family="Arial" font-size="13px" font-style="normal" font-weight="bold" text-decoration="undefined" x="380" y="464" text-anchor="middle" dominant-baseline="central" transform="matrix(1 0 0 1 -86 -382)">UC29 - Visualizzazione</text><text fill="#000000" stroke="none" font-family="Arial" font-size="13px" font-style="normal" font-weight="bold" text-decoration="undefined" x="380" y="477" text-anchor="middle" dominant-baseline="central" transform="matrix(1 0 0 1 -86 -382)">lista sensori associati al</text><text fill="#000000" stroke="none" font-family="Arial" font-size="13px" font-style="normal" font-weight="bold" text-decoration="undefined" x="380" y="490" text-anchor="middle" dominant-baseline="central" transform="matrix(1 0 0 1 -86 -382)">tenant</text></g></g><g><path fill="none" stroke="#000000" paint-order="fill stroke markers" d=" M 119 91 L 169 92" stroke-miterlimit="10" stroke-dasharray=""/></g><g><path fill="#C0C0C0" stroke="none" paint-order="stroke fill markers" d=" M 489 101 C 489 81.1177472 546.3075456 65 617 65 C 687.6924544 65 745 81.1177472 745 101 C 745 120.8822528 687.6924544 137 617 137 C 546.3075456 137 489 120.8822528 489 101 Z" fill-opacity="0.2"/></g><g><path fill="#ffffff" stroke="none" paint-order="stroke fill markers" d=" M 482 94 C 482 74.1177472 539.3075456 58 610 58 C 680.6924544 58 738 74.1177472 738 94 C 738 113.8822528 680.6924544 130 610 130 C 539.3075456 130 482 113.8822528 482 94 Z"/></g><g><path fill="none" stroke="#000000" paint-order="fill stroke markers" d=" M 482 94 C 482 74.1177472 539.3075456 58 610 58 C 680.6924544 58 738 74.1177472 738 94 C 738 113.8822528 680.6924544 130 610 130 C 539.3075456 130 482 113.8822528 482 94 Z" stroke-miterlimit="10" stroke-dasharray=""/></g><g><g><path fill="none" stroke="none"/><text fill="#000000" stroke="none" font-family="Arial" font-size="13px" font-style="normal" font-weight="bold" text-decoration="undefined" x="696" y="464" text-anchor="middle" dominant-baseline="central" transform="matrix(1 0 0 1 -86 -382)">UC30 - Visualizzazione</text><text fill="#000000" stroke="none" font-family="Arial" font-size="13px" font-style="normal" font-weight="bold" text-decoration="undefined" x="696" y="477" text-anchor="middle" dominant-baseline="central" transform="matrix(1 0 0 1 -86 -382)">singolo sensore associato</text><text fill="#000000" stroke="none" font-family="Arial" font-size="13px" font-style="normal" font-weight="bold" text-decoration="undefined" x="696" y="490" text-anchor="middle" dominant-baseline="central" transform="matrix(1 0 0 1 -86 -382)">al tenant in lista</text></g></g><g><path fill="none" stroke="#000000" paint-order="fill stroke markers" d=" M 419 94 L 481 94" stroke-miterlimit="10" stroke-dasharray="3"/></g><g><path fill="none" stroke="#000000" paint-order="fill stroke markers" d=" M 470.8373251423759 98.209517756016 L 481 94 L 470.8373251423758 89.790482243984" stroke-miterlimit="10" stroke-dasharray=""/></g><g><rect fill="#ffffff" stroke="none" x="509" y="440" width="55.65625" height="13" transform="matrix(1 0 0 1 -86 -382)"/></g><g><g><path fill="none" stroke="none"/><text fill="#000000" stroke="none" font-family="Arial" font-size="13px" font-style="normal" font-weight="normal" text-decoration="undefined" x="536.828125" y="446.5" text-anchor="middle" dominant-baseline="central" transform="matrix(1 0 0 1 -86 -382)">«include»</text></g></g></g></svg>