<svg version="1.1" xmlns="http://www.w3.org/2000/svg" xmlns:xlink="http://www.w3.org/1999/xlink" width="901" height="196"><defs/><g><g><rect fill="#C0C0C0" stroke="none" x="608" y="481" width="680" height="176" transform="matrix(1 0 0 1 -391 -464)" fill-opacity="0.2"/></g><g><rect fill="#ffffff" stroke="none" x="601" y="474" width="680" height="176" transform="matrix(1 0 0 1 -391 -464)"/></g><g><path fill="none" stroke="#000000" paint-order="fill stroke markers" d=" M 210 10 L 890 10 L 890 186 L 210 186 L 210 10 Z Z" stroke-miterlimit="10" stroke-dasharray=""/></g><g><g><path fill="none" stroke="none"/><text fill="#000000" stroke="none" font-family="Arial" font-size="13px" font-style="normal" font-weight="bold" text-decoration="undefined" x="941.5" y="487.5" text-anchor="middle" dominant-baseline="central" transform="matrix(1 0 0 1 -391 -464)">Sistema Cloud</text></g></g><g><path fill="#ffffff" stroke="none" paint-order="stroke fill markers" d=" M 62.860439453125025 67.85000000000002 C 62.860439453125025 62.96227952000004 66.81824182112501 59 71.700439453125 59 C 76.58263708512499 59 80.54043945312497 62.96227952000004 80.54043945312497 67.85000000000002 C 80.54043945312497 72.73772048000001 76.58263708512499 76.70000000000005 71.700439453125 76.70000000000005 C 66.81824182112501 76.70000000000005 62.860439453125025 72.73772048000001 62.860439453125025 67.85000000000002 Z"/></g><g><path fill="none" stroke="#000000" paint-order="fill stroke markers" d=" M 62.860439453125025 67.85000000000002 C 62.860439453125025 62.96227952000004 66.81824182112501 59 71.700439453125 59 C 76.58263708512499 59 80.54043945312497 62.96227952000004 80.54043945312497 67.85000000000002 C 80.54043945312497 72.73772048000001 76.58263708512499 76.70000000000005 71.700439453125 76.70000000000005 C 66.81824182112501 76.70000000000005 62.860439453125025 72.73772048000001 62.860439453125025 67.85000000000002 Z" stroke-miterlimit="10" stroke-dasharray=""/></g><g><path fill="none" stroke="#000000" paint-order="fill stroke markers" d=" M 71.700439453125 76.70000000000005 L 71.700439453125 94.29999999999995" stroke-miterlimit="10" stroke-dasharray=""/></g><g><path fill="none" stroke="#000000" paint-order="fill stroke markers" d=" M 62.340439453124986 83.29999999999995 L 81.06043945312501 83.29999999999995" stroke-miterlimit="10" stroke-dasharray=""/></g><g><path fill="none" stroke="#000000" paint-order="fill stroke markers" d=" M 71.700439453125 94.29999999999995 L 58.700439453125 112" stroke-miterlimit="10" stroke-dasharray=""/></g><g><path fill="none" stroke="#000000" paint-order="fill stroke markers" d=" M 71.700439453125 94.29999999999995 L 84.700439453125 112" stroke-miterlimit="10" stroke-dasharray=""/></g><g><g><path fill="none" stroke="none"/><text fill="#000000" stroke="none" font-family="Arial" font-size="13px" font-style="normal" font-weight="bold" text-decoration="undefined" x="463.200439453125" y="590.5" text-anchor="middle" dominant-baseline="central" transform="matrix(1 0 0 1 -391 -464)">Utente autenticato</text></g></g><g><path fill="#C0C0C0" stroke="none" paint-order="stroke fill markers" d=" M 249 93 C 249 73.11774720000005 311.68012799999997 57 389 57 C 466.31987200000003 57 529 73.11774720000005 529 93 C 529 112.88225279999995 466.31987200000003 129 389 129 C 311.68012799999997 129 249 112.88225279999995 249 93 Z" fill-opacity="0.2"/></g><g><path fill="#ffffff" stroke="none" paint-order="stroke fill markers" d=" M 242 86 C 242 66.11774720000005 304.68012799999997 50 382 50 C 459.31987200000003 50 522 66.11774720000005 522 86 C 522 105.88225279999995 459.31987200000003 122 382 122 C 304.68012799999997 122 242 105.88225279999995 242 86 Z"/></g><g><path fill="none" stroke="#000000" paint-order="fill stroke markers" d=" M 242 86 C 242 66.11774720000005 304.68012799999997 50 382 50 C 459.31987200000003 50 522 66.11774720000005 522 86 C 522 105.88225279999995 459.31987200000003 122 382 122 C 304.68012799999997 122 242 105.88225279999995 242 86 Z" stroke-miterlimit="10" stroke-dasharray=""/></g><g><g><path fill="none" stroke="none"/><text fill="#000000" stroke="none" font-family="Arial" font-size="13px" font-style="normal" font-weight="bold" text-decoration="undefined" x="773" y="538" text-anchor="middle" dominant-baseline="central" transform="matrix(1 0 0 1 -391 -464)">UC30 - Visualizzazione</text><text fill="#000000" stroke="none" font-family="Arial" font-size="13px" font-style="normal" font-weight="bold" text-decoration="undefined" x="773" y="551" text-anchor="middle" dominant-baseline="central" transform="matrix(1 0 0 1 -391 -464)">singolo sensore associato al</text><text fill="#000000" stroke="none" font-family="Arial" font-size="13px" font-style="normal" font-weight="bold" text-decoration="undefined" x="773" y="564" text-anchor="middle" dominant-baseline="central" transform="matrix(1 0 0 1 -391 -464)">tenant in lista</text></g></g><g><path fill="#C0C0C0" stroke="none" paint-order="stroke fill markers" d=" M 649 93 C 649 73.11774720000005 700.9349632000001 57 765 57 C 829.0650367999999 57 881 73.11774720000005 881 93 C 881 112.88225279999995 829.0650367999999 129 765 129 C 700.9349632000001 129 649 112.88225279999995 649 93 Z" fill-opacity="0.2"/></g><g><path fill="#ffffff" stroke="none" paint-order="stroke fill markers" d=" M 642 86 C 642 66.11774720000005 693.9349632000001 50 758 50 C 822.0650367999999 50 874 66.11774720000005 874 86 C 874 105.88225279999995 822.0650367999999 122 758 122 C 693.9349632000001 122 642 105.88225279999995 642 86 Z"/></g><g><path fill="none" stroke="#000000" paint-order="fill stroke markers" d=" M 642 86 C 642 66.11774720000005 693.9349632000001 50 758 50 C 822.0650367999999 50 874 66.11774720000005 874 86 C 874 105.88225279999995 822.0650367999999 122 758 122 C 693.9349632000001 122 642 105.88225279999995 642 86 Z" stroke-miterlimit="10" stroke-dasharray=""/></g><g><g><path fill="none" stroke="none"/><text fill="#000000" stroke="none" font-family="Arial" font-size="13px" font-style="normal" font-weight="bold" text-decoration="undefined" x="1149" y="538" text-anchor="middle" dominant-baseline="central" transform="matrix(1 0 0 1 -391 -464)">UC30.1 - Visualizzazione</text><text fill="#000000" stroke="none" font-family="Arial" font-size="13px" font-style="normal" font-weight="bold" text-decoration="undefined" x="1149" y="551" text-anchor="middle" dominant-baseline="central" transform="matrix(1 0 0 1 -391 -464)">identificativo sensore in</text><text fill="#000000" stroke="none" font-family="Arial" font-size="13px" font-style="normal" font-weight="bold" text-decoration="undefined" x="1149" y="564" text-anchor="middle" dominant-baseline="central" transform="matrix(1 0 0 1 -391 -464)">lista</text></g></g><g><path fill="none" stroke="#000000" paint-order="fill stroke markers" d=" M 523 86 L 641 86" stroke-miterlimit="10" stroke-dasharray="3"/></g><g><path fill="none" stroke="#000000" paint-order="fill stroke markers" d=" M 630.8373251423759 90.209517756016 L 641 86 L 630.8373251423758 81.790482243984" stroke-miterlimit="10" stroke-dasharray=""/></g><g><rect fill="#ffffff" stroke="none" x="946" y="525" width="55.65625" height="13" transform="matrix(1 0 0 1 -391 -464)"/></g><g><g><path fill="none" stroke="none"/><text fill="#000000" stroke="none" font-family="Arial" font-size="13px" font-style="normal" font-weight="normal" text-decoration="undefined" x="973.828125" y="531.5" text-anchor="middle" dominant-baseline="central" transform="matrix(1 0 0 1 -391 -464)">«include»</text></g></g><g><path fill="none" stroke="#000000" paint-order="fill stroke markers" d=" M 241 91 L 134 96" stroke-miterlimit="10" stroke-dasharray=""/></g></g></svg>