<svg version="1.1" xmlns="http://www.w3.org/2000/svg" xmlns:xlink="http://www.w3.org/1999/xlink" width="901" height="316"><defs/><g><g><rect fill="#C0C0C0" stroke="none" x="568" y="421" width="720" height="296" transform="matrix(1 0 0 1 -391 -404)" fill-opacity="0.2"/></g><g><rect fill="#ffffff" stroke="none" x="561" y="414" width="720" height="296" transform="matrix(1 0 0 1 -391 -404)"/></g><g><path fill="none" stroke="#000000" paint-order="fill stroke markers" d=" M 170 10 L 890 10 L 890 306 L 170 306 L 170 10 Z Z" stroke-miterlimit="10" stroke-dasharray=""/></g><g><g><path fill="none" stroke="none"/><text fill="#000000" stroke="none" font-family="Arial" font-size="13px" font-style="normal" font-weight="bold" text-decoration="undefined" x="921.5" y="427.5" text-anchor="middle" dominant-baseline="central" transform="matrix(1 0 0 1 -391 -404)">Sistema Cloud</text></g></g><g><path fill="#ffffff" stroke="none" paint-order="stroke fill markers" d=" M 62.860439453125025 123.85000000000002 C 62.860439453125025 118.96227952000004 66.81824182112501 115 71.700439453125 115 C 76.58263708512499 115 80.54043945312497 118.96227952000004 80.54043945312497 123.85000000000002 C 80.54043945312497 128.73772048 76.58263708512499 132.70000000000005 71.700439453125 132.70000000000005 C 66.81824182112501 132.70000000000005 62.860439453125025 128.73772048 62.860439453125025 123.85000000000002 Z"/></g><g><path fill="none" stroke="#000000" paint-order="fill stroke markers" d=" M 62.860439453125025 123.85000000000002 C 62.860439453125025 118.96227952000004 66.81824182112501 115 71.700439453125 115 C 76.58263708512499 115 80.54043945312497 118.96227952000004 80.54043945312497 123.85000000000002 C 80.54043945312497 128.73772048 76.58263708512499 132.70000000000005 71.700439453125 132.70000000000005 C 66.81824182112501 132.70000000000005 62.860439453125025 128.73772048 62.860439453125025 123.85000000000002 Z" stroke-miterlimit="10" stroke-dasharray=""/></g><g><path fill="none" stroke="#000000" paint-order="fill stroke markers" d=" M 71.700439453125 132.70000000000005 L 71.700439453125 150.29999999999995" stroke-miterlimit="10" stroke-dasharray=""/></g><g><path fill="none" stroke="#000000" paint-order="fill stroke markers" d=" M 62.340439453124986 139.29999999999995 L 81.06043945312501 139.29999999999995" stroke-miterlimit="10" stroke-dasharray=""/></g><g><path fill="none" stroke="#000000" paint-order="fill stroke markers" d=" M 71.700439453125 150.29999999999995 L 58.700439453125 168" stroke-miterlimit="10" stroke-dasharray=""/></g><g><path fill="none" stroke="#000000" paint-order="fill stroke markers" d=" M 71.700439453125 150.29999999999995 L 84.700439453125 168" stroke-miterlimit="10" stroke-dasharray=""/></g><g><g><path fill="none" stroke="none"/><text fill="#000000" stroke="none" font-family="Arial" font-size="13px" font-style="normal" font-weight="bold" text-decoration="undefined" x="463.200439453125" y="586.5" text-anchor="middle" dominant-baseline="central" transform="matrix(1 0 0 1 -391 -404)">Utente autenticato</text></g></g><g><path fill="#C0C0C0" stroke="none" paint-order="stroke fill markers" d=" M 249 171.5 C 249 156.86445279999998 302.725824 145 369 145 C 435.274176 145 489 156.86445279999998 489 171.5 C 489 186.13554720000002 435.274176 198 369 198 C 302.725824 198 249 186.13554720000002 249 171.5 Z" fill-opacity="0.2"/></g><g><path fill="#ffffff" stroke="none" paint-order="stroke fill markers" d=" M 242 164.5 C 242 149.86445279999998 295.725824 138 362 138 C 428.274176 138 482 149.86445279999998 482 164.5 C 482 179.13554720000002 428.274176 191 362 191 C 295.725824 191 242 179.13554720000002 242 164.5 Z"/></g><g><path fill="none" stroke="#000000" paint-order="fill stroke markers" d=" M 242 164.5 C 242 149.86445279999998 295.725824 138 362 138 C 428.274176 138 482 149.86445279999998 482 164.5 C 482 179.13554720000002 428.274176 191 362 191 C 295.725824 191 242 179.13554720000002 242 164.5 Z" stroke-miterlimit="10" stroke-dasharray=""/></g><g><g><path fill="none" stroke="none"/><text fill="#000000" stroke="none" font-family="Arial" font-size="13px" font-style="normal" font-weight="bold" text-decoration="undefined" x="753" y="563" text-anchor="middle" dominant-baseline="central" transform="matrix(1 0 0 1 -391 -404)">UC31 - Visualizzazione</text><text fill="#000000" stroke="none" font-family="Arial" font-size="13px" font-style="normal" font-weight="bold" text-decoration="undefined" x="753" y="576" text-anchor="middle" dominant-baseline="central" transform="matrix(1 0 0 1 -391 -404)">dashboard generica</text></g></g><g><path fill="#C0C0C0" stroke="none" paint-order="stroke fill markers" d=" M 481 77 C 481 57.1177472 532.9349632 41 597 41 C 661.0650367999999 41 713 57.1177472 713 77 C 713 96.8822528 661.0650367999999 113 597 113 C 532.9349632 113 481 96.8822528 481 77 Z" fill-opacity="0.2"/></g><g><path fill="#ffffff" stroke="none" paint-order="stroke fill markers" d=" M 474 70 C 474 50.1177472 525.9349632 34 590 34 C 654.0650367999999 34 706 50.1177472 706 70 C 706 89.8822528 654.0650367999999 106 590 106 C 525.9349632 106 474 89.8822528 474 70 Z"/></g><g><path fill="none" stroke="#000000" paint-order="fill stroke markers" d=" M 474 70 C 474 50.1177472 525.9349632 34 590 34 C 654.0650367999999 34 706 50.1177472 706 70 C 706 89.8822528 654.0650367999999 106 590 106 C 525.9349632 106 474 89.8822528 474 70 Z" stroke-miterlimit="10" stroke-dasharray=""/></g><g><g><path fill="none" stroke="none"/><text fill="#000000" stroke="none" font-family="Arial" font-size="13px" font-style="normal" font-weight="bold" text-decoration="undefined" x="981" y="462" text-anchor="middle" dominant-baseline="central" transform="matrix(1 0 0 1 -391 -404)">UC31.1 - Visualizzazione</text><text fill="#000000" stroke="none" font-family="Arial" font-size="13px" font-style="normal" font-weight="bold" text-decoration="undefined" x="981" y="475" text-anchor="middle" dominant-baseline="central" transform="matrix(1 0 0 1 -391 -404)">numero di sensori attivi</text><text fill="#000000" stroke="none" font-family="Arial" font-size="13px" font-style="normal" font-weight="bold" text-decoration="undefined" x="981" y="488" text-anchor="middle" dominant-baseline="central" transform="matrix(1 0 0 1 -391 -404)">e non attivi</text></g></g><g><path fill="#C0C0C0" stroke="none" paint-order="stroke fill markers" d=" M 505 269 C 505 249.11774720000005 565.8892672 233 641 233 C 716.1107328 233 777 249.11774720000005 777 269 C 777 288.88225279999995 716.1107328 305 641 305 C 565.8892672 305 505 288.88225279999995 505 269 Z" fill-opacity="0.2"/></g><g><path fill="#ffffff" stroke="none" paint-order="stroke fill markers" d=" M 498 262 C 498 242.11774720000005 558.8892672 226 634 226 C 709.1107328 226 770 242.11774720000005 770 262 C 770 281.88225279999995 709.1107328 298 634 298 C 558.8892672 298 498 281.88225279999995 498 262 Z"/></g><g><path fill="none" stroke="#000000" paint-order="fill stroke markers" d=" M 498 262 C 498 242.11774720000005 558.8892672 226 634 226 C 709.1107328 226 770 242.11774720000005 770 262 C 770 281.88225279999995 709.1107328 298 634 298 C 558.8892672 298 498 281.88225279999995 498 262 Z" stroke-miterlimit="10" stroke-dasharray=""/></g><g><g><path fill="none" stroke="none"/><text fill="#000000" stroke="none" font-family="Arial" font-size="13px" font-style="normal" font-weight="bold" text-decoration="undefined" x="1025" y="654" text-anchor="middle" dominant-baseline="central" transform="matrix(1 0 0 1 -391 -404)">UC31.2 - Visualizzazione</text><text fill="#000000" stroke="none" font-family="Arial" font-size="13px" font-style="normal" font-weight="bold" text-decoration="undefined" x="1025" y="667" text-anchor="middle" dominant-baseline="central" transform="matrix(1 0 0 1 -391 -404)">numero di gateway attivi e</text><text fill="#000000" stroke="none" font-family="Arial" font-size="13px" font-style="normal" font-weight="bold" text-decoration="undefined" x="1025" y="680" text-anchor="middle" dominant-baseline="central" transform="matrix(1 0 0 1 -391 -404)">non attivi</text></g></g><g><path fill="#C0C0C0" stroke="none" paint-order="stroke fill markers" d=" M 649 163.5 C 649 148.86445279999998 702.7258240000001 137 769 137 C 835.2741759999999 137 889 148.86445279999998 889 163.5 C 889 178.13554720000002 835.2741759999999 190 769 190 C 702.7258240000001 190 649 178.13554720000002 649 163.5 Z" fill-opacity="0.2"/></g><g><path fill="#ffffff" stroke="none" paint-order="stroke fill markers" d=" M 642 156.5 C 642 141.86445279999998 695.7258240000001 130 762 130 C 828.2741759999999 130 882 141.86445279999998 882 156.5 C 882 171.13554720000002 828.2741759999999 183 762 183 C 695.7258240000001 183 642 171.13554720000002 642 156.5 Z"/></g><g><path fill="none" stroke="#000000" paint-order="fill stroke markers" d=" M 642 156.5 C 642 141.86445279999998 695.7258240000001 130 762 130 C 828.2741759999999 130 882 141.86445279999998 882 156.5 C 882 171.13554720000002 828.2741759999999 183 762 183 C 695.7258240000001 183 642 171.13554720000002 642 156.5 Z" stroke-miterlimit="10" stroke-dasharray=""/></g><g><g><path fill="none" stroke="none"/><text fill="#000000" stroke="none" font-family="Arial" font-size="13px" font-style="normal" font-weight="bold" text-decoration="undefined" x="1153" y="555" text-anchor="middle" dominant-baseline="central" transform="matrix(1 0 0 1 -391 -404)">UC18 - Visualizzazione</text><text fill="#000000" stroke="none" font-family="Arial" font-size="13px" font-style="normal" font-weight="bold" text-decoration="undefined" x="1153" y="568" text-anchor="middle" dominant-baseline="central" transform="matrix(1 0 0 1 -391 -404)">lista alert</text></g></g><g><path fill="none" stroke="#000000" paint-order="fill stroke markers" d=" M 427 137 L 500 107" stroke-miterlimit="10" stroke-dasharray="3"/></g><g><path fill="none" stroke="#000000" paint-order="fill stroke markers" d=" M 492.20022272019787 114.75651174082032 L 500 107 L 489.00004254342 106.96940664399426" stroke-miterlimit="10" stroke-dasharray=""/></g><g><rect fill="#ffffff" stroke="none" x="816" y="513" width="55.65625" height="13" transform="matrix(1 0 0 1 -391 -404)"/></g><g><g><path fill="none" stroke="none"/><text fill="#000000" stroke="none" font-family="Arial" font-size="13px" font-style="normal" font-weight="normal" text-decoration="undefined" x="843.828125" y="519.5" text-anchor="middle" dominant-baseline="central" transform="matrix(1 0 0 1 -391 -404)">«include»</text></g></g><g><path fill="none" stroke="#000000" paint-order="fill stroke markers" d=" M 483 162 L 641 158" stroke-miterlimit="10" stroke-dasharray="3"/></g><g><path fill="none" stroke="#000000" paint-order="fill stroke markers" d=" M 630.9471162579671 162.46536991403502 L 641 158 L 630.7340443888079 154.04903108224914" stroke-miterlimit="10" stroke-dasharray=""/></g><g><rect fill="#ffffff" stroke="none" x="924" y="559" width="55.65625" height="13" transform="matrix(1 0 0 1 -391 -404)"/></g><g><g><path fill="none" stroke="none"/><text fill="#000000" stroke="none" font-family="Arial" font-size="13px" font-style="normal" font-weight="normal" text-decoration="undefined" x="951.828125" y="565.5" text-anchor="middle" dominant-baseline="central" transform="matrix(1 0 0 1 -391 -404)">«include»</text></g></g><g><path fill="none" stroke="#000000" paint-order="fill stroke markers" d=" M 440 192 L 531 225" stroke-miterlimit="10" stroke-dasharray="3"/></g><g><path fill="none" stroke="#000000" paint-order="fill stroke markers" d=" M 520.011042140965 225.4927526482454 L 531 225 L 522.8812046406812 217.57806211872514" stroke-miterlimit="10" stroke-dasharray=""/></g><g><rect fill="#ffffff" stroke="none" x="852" y="602" width="55.65625" height="13" transform="matrix(1 0 0 1 -391 -404)"/></g><g><g><path fill="none" stroke="none"/><text fill="#000000" stroke="none" font-family="Arial" font-size="13px" font-style="normal" font-weight="normal" text-decoration="undefined" x="879.828125" y="608.5" text-anchor="middle" dominant-baseline="central" transform="matrix(1 0 0 1 -391 -404)">«include»</text></g></g><g><path fill="none" stroke="#000000" paint-order="fill stroke markers" d=" M 241 160 L 134 156" stroke-miterlimit="10" stroke-dasharray=""/></g></g></svg>