<svg version="1.1" xmlns="http://www.w3.org/2000/svg" xmlns:xlink="http://www.w3.org/1999/xlink" width="940" height="100"><defs/><g><g><path fill="#ffffff" stroke="none" paint-order="stroke fill markers" d=" M 62.860439453125 19.850000000000023 C 62.860439453125 14.962279520000038 66.81824182112501 11 71.700439453125 11 C 76.58263708512499 11 80.54043945312497 14.962279520000038 80.54043945312497 19.850000000000023 C 80.54043945312497 24.737720480000007 76.58263708512499 28.700000000000045 71.700439453125 28.700000000000045 C 66.81824182112501 28.700000000000045 62.860439453125 24.737720480000007 62.860439453125 19.850000000000023 Z"/></g><g><path fill="none" stroke="#000000" paint-order="fill stroke markers" d=" M 62.860439453125 19.850000000000023 C 62.860439453125 14.962279520000038 66.81824182112501 11 71.700439453125 11 C 76.58263708512499 11 80.54043945312497 14.962279520000038 80.54043945312497 19.850000000000023 C 80.54043945312497 24.737720480000007 76.58263708512499 28.700000000000045 71.700439453125 28.700000000000045 C 66.81824182112501 28.700000000000045 62.860439453125 24.737720480000007 62.860439453125 19.850000000000023 Z" stroke-miterlimit="10" stroke-dasharray=""/></g><g><path fill="none" stroke="#000000" paint-order="fill stroke markers" d=" M 71.700439453125 28.700000000000045 L 71.700439453125 46.299999999999955" stroke-miterlimit="10" stroke-dasharray=""/></g><g><path fill="none" stroke="#000000" paint-order="fill stroke markers" d=" M 62.340439453124986 35.299999999999955 L 81.06043945312501 35.299999999999955" stroke-miterlimit="10" stroke-dasharray=""/></g><g><path fill="none" stroke="#000000" paint-order="fill stroke markers" d=" M 71.700439453125 46.299999999999955 L 58.700439453125 64" stroke-miterlimit="10" stroke-dasharray=""/></g><g><path fill="none" stroke="#000000" paint-order="fill stroke markers" d=" M 71.700439453125 46.299999999999955 L 84.700439453125 64" stroke-miterlimit="10" stroke-dasharray=""/></g><g><g><path fill="none" stroke="none"/><text fill="#000000" stroke="none" font-family="Arial" font-size="13px" font-style="normal" font-weight="bold" text-decoration="undefined" x="251.200439453125" y="635.5" text-anchor="middle" dominant-baseline="central" transform="matrix(1 0 0 1 -179 -557)">Utente autenticato</text></g></g><g><path fill="#C0C0C0" stroke="none" paint-order="stroke fill markers" d=" M 305 53 C 305 33.11774720000005 367.68012799999997 17 445 17 C 522.319872 17 585 33.11774720000005 585 53 C 585 72.88225279999995 522.319872 89 445 89 C 367.68012799999997 89 305 72.88225279999995 305 53 Z" fill-opacity="0.2"/></g><g><path fill="#ffffff" stroke="none" paint-order="stroke fill markers" d=" M 298 46 C 298 26.117747200000053 360.68012799999997 10 438 10 C 515.319872 10 578 26.117747200000053 578 46 C 578 65.88225279999995 515.319872 82 438 82 C 360.68012799999997 82 298 65.88225279999995 298 46 Z"/></g><g><path fill="none" stroke="#000000" paint-order="fill stroke markers" d=" M 298 46 C 298 26.117747200000053 360.68012799999997 10 438 10 C 515.319872 10 578 26.117747200000053 578 46 C 578 65.88225279999995 515.319872 82 438 82 C 360.68012799999997 82 298 65.88225279999995 298 46 Z" stroke-miterlimit="10" stroke-dasharray=""/></g><g><g><path fill="none" stroke="none"/><text fill="#000000" stroke="none" font-family="Arial" font-size="13px" font-style="normal" font-weight="bold" text-decoration="undefined" x="617" y="591" text-anchor="middle" dominant-baseline="central" transform="matrix(1 0 0 1 -179 -557)">UC32 - Visualizzazione</text><text fill="#000000" stroke="none" font-family="Arial" font-size="13px" font-style="normal" font-weight="bold" text-decoration="undefined" x="617" y="604" text-anchor="middle" dominant-baseline="central" transform="matrix(1 0 0 1 -179 -557)">singolo sensore associato al</text><text fill="#000000" stroke="none" font-family="Arial" font-size="13px" font-style="normal" font-weight="bold" text-decoration="undefined" x="617" y="617" text-anchor="middle" dominant-baseline="central" transform="matrix(1 0 0 1 -179 -557)">tenant in lista</text></g></g><g><path fill="#C0C0C0" stroke="none" paint-order="stroke fill markers" d=" M 705 53 C 705 33.11774720000005 756.9349632 17 821 17 C 885.0650367999999 17 937 33.11774720000005 937 53 C 937 72.88225279999995 885.0650367999999 89 821 89 C 756.9349632 89 705 72.88225279999995 705 53 Z" fill-opacity="0.2"/></g><g><path fill="#ffffff" stroke="none" paint-order="stroke fill markers" d=" M 698 46 C 698 26.117747200000053 749.9349632 10 814 10 C 878.0650367999999 10 930 26.117747200000053 930 46 C 930 65.88225279999995 878.0650367999999 82 814 82 C 749.9349632 82 698 65.88225279999995 698 46 Z"/></g><g><path fill="none" stroke="#000000" paint-order="fill stroke markers" d=" M 698 46 C 698 26.117747200000053 749.9349632 10 814 10 C 878.0650367999999 10 930 26.117747200000053 930 46 C 930 65.88225279999995 878.0650367999999 82 814 82 C 749.9349632 82 698 65.88225279999995 698 46 Z" stroke-miterlimit="10" stroke-dasharray=""/></g><g><g><path fill="none" stroke="none"/><text fill="#000000" stroke="none" font-family="Arial" font-size="13px" font-style="normal" font-weight="bold" text-decoration="undefined" x="993" y="591" text-anchor="middle" dominant-baseline="central" transform="matrix(1 0 0 1 -179 -557)">UC32.1 - Visualizzazione</text><text fill="#000000" stroke="none" font-family="Arial" font-size="13px" font-style="normal" font-weight="bold" text-decoration="undefined" x="993" y="604" text-anchor="middle" dominant-baseline="central" transform="matrix(1 0 0 1 -179 -557)">identificativo sensore in</text><text fill="#000000" stroke="none" font-family="Arial" font-size="13px" font-style="normal" font-weight="bold" text-decoration="undefined" x="993" y="617" text-anchor="middle" dominant-baseline="central" transform="matrix(1 0 0 1 -179 -557)">lista</text></g></g><g><path fill="none" stroke="#000000" paint-order="fill stroke markers" d=" M 579 46 L 697 46" stroke-miterlimit="10" stroke-dasharray="3"/></g><g><path fill="none" stroke="#000000" paint-order="fill stroke markers" d=" M 686.8373251423759 50.209517756016 L 697 46 L 686.8373251423758 41.790482243984" stroke-miterlimit="10" stroke-dasharray=""/></g><g><rect fill="#ffffff" stroke="none" x="790" y="578" width="55.65625" height="13" transform="matrix(1 0 0 1 -179 -557)"/></g><g><g><path fill="none" stroke="none"/><text fill="#000000" stroke="none" font-family="Arial" font-size="13px" font-style="normal" font-weight="normal" text-decoration="undefined" x="817.828125" y="584.5" text-anchor="middle" dominant-baseline="central" transform="matrix(1 0 0 1 -179 -557)">«include»</text></g></g><g><path fill="none" stroke="#000000" paint-order="fill stroke markers" d=" M 297 48 L 134 49" stroke-miterlimit="10" stroke-dasharray=""/></g></g></svg>