<svg version="1.1" xmlns="http://www.w3.org/2000/svg" xmlns:xlink="http://www.w3.org/1999/xlink" width="907" height="236"><defs/><g><g><rect fill="#C0C0C0" stroke="none" x="744" y="566" width="688" height="216" transform="matrix(1 0 0 1 -529 -549)" fill-opacity="0.2"/></g><g><rect fill="#ffffff" stroke="none" x="737" y="559" width="688" height="216" transform="matrix(1 0 0 1 -529 -549)"/></g><g><path fill="none" stroke="#000000" paint-order="fill stroke markers" d=" M 208 10 L 896 10 L 896 226 L 208 226 L 208 10 Z Z" stroke-miterlimit="10" stroke-dasharray=""/></g><g><g><path fill="none" stroke="none"/><text fill="#000000" stroke="none" font-family="Arial" font-size="13px" font-style="normal" font-weight="bold" text-decoration="undefined" x="1081.5" y="572.5" text-anchor="middle" dominant-baseline="central" transform="matrix(1 0 0 1 -529 -549)">Dashboard</text></g></g><g><path fill="#ffffff" stroke="none" paint-order="stroke fill markers" d=" M 62.86043945312497 76.85000000000002 C 62.86043945312497 71.96227952000004 66.81824182112496 68 71.700439453125 68 C 76.58263708512504 68 80.54043945312503 71.96227952000004 80.54043945312503 76.85000000000002 C 80.54043945312503 81.73772048000001 76.58263708512504 85.70000000000005 71.700439453125 85.70000000000005 C 66.81824182112496 85.70000000000005 62.86043945312497 81.73772048000001 62.86043945312497 76.85000000000002 Z"/></g><g><path fill="none" stroke="#000000" paint-order="fill stroke markers" d=" M 62.86043945312497 76.85000000000002 C 62.86043945312497 71.96227952000004 66.81824182112496 68 71.700439453125 68 C 76.58263708512504 68 80.54043945312503 71.96227952000004 80.54043945312503 76.85000000000002 C 80.54043945312503 81.73772048000001 76.58263708512504 85.70000000000005 71.700439453125 85.70000000000005 C 66.81824182112496 85.70000000000005 62.86043945312497 81.73772048000001 62.86043945312497 76.85000000000002 Z" stroke-miterlimit="10" stroke-dasharray=""/></g><g><path fill="none" stroke="#000000" paint-order="fill stroke markers" d=" M 71.700439453125 85.70000000000005 L 71.700439453125 103.29999999999995" stroke-miterlimit="10" stroke-dasharray=""/></g><g><path fill="none" stroke="#000000" paint-order="fill stroke markers" d=" M 62.340439453124986 92.29999999999995 L 81.06043945312501 92.29999999999995" stroke-miterlimit="10" stroke-dasharray=""/></g><g><path fill="none" stroke="#000000" paint-order="fill stroke markers" d=" M 71.700439453125 103.29999999999995 L 58.700439453125 121" stroke-miterlimit="10" stroke-dasharray=""/></g><g><path fill="none" stroke="#000000" paint-order="fill stroke markers" d=" M 71.700439453125 103.29999999999995 L 84.700439453125 121" stroke-miterlimit="10" stroke-dasharray=""/></g><g><g><path fill="none" stroke="none"/><text fill="#000000" stroke="none" font-family="Arial" font-size="13px" font-style="normal" font-weight="bold" text-decoration="undefined" x="601.200439453125" y="684.5" text-anchor="middle" dominant-baseline="central" transform="matrix(1 0 0 1 -529 -549)">Utente autenticato</text></g></g><g><path fill="#C0C0C0" stroke="none" paint-order="stroke fill markers" d=" M 313 134 C 313 114.11774720000005 368.06896959999995 98 436 98 C 503.93103040000005 98 559 114.11774720000005 559 134 C 559 153.88225279999995 503.93103040000005 170 436 170 C 368.06896959999995 170 313 153.88225279999995 313 134 Z" fill-opacity="0.2"/></g><g><path fill="#ffffff" stroke="none" paint-order="stroke fill markers" d=" M 306 127 C 306 107.11774720000005 361.06896959999995 91 429 91 C 496.93103040000005 91 552 107.11774720000005 552 127 C 552 146.88225279999995 496.93103040000005 163 429 163 C 361.06896959999995 163 306 146.88225279999995 306 127 Z"/></g><g><path fill="none" stroke="#000000" paint-order="fill stroke markers" d=" M 306 127 C 306 107.11774720000005 361.06896959999995 91 429 91 C 496.93103040000005 91 552 107.11774720000005 552 127 C 552 146.88225279999995 496.93103040000005 163 429 163 C 361.06896959999995 163 306 146.88225279999995 306 127 Z" stroke-miterlimit="10" stroke-dasharray=""/></g><g><g><path fill="none" stroke="none"/><text fill="#000000" stroke="none" font-family="Arial" font-size="13px" font-style="normal" font-weight="bold" text-decoration="undefined" x="958" y="664" text-anchor="middle" dominant-baseline="central" transform="matrix(1 0 0 1 -529 -549)">UC32 - Visualizzazione</text><text fill="#000000" stroke="none" font-family="Arial" font-size="13px" font-style="normal" font-weight="bold" text-decoration="undefined" x="958" y="677" text-anchor="middle" dominant-baseline="central" transform="matrix(1 0 0 1 -529 -549)">singolo sensore</text><text fill="#000000" stroke="none" font-family="Arial" font-size="13px" font-style="normal" font-weight="bold" text-decoration="undefined" x="958" y="690" text-anchor="middle" dominant-baseline="central" transform="matrix(1 0 0 1 -529 -549)">associato al tenant in lista</text></g></g><g><path fill="#C0C0C0" stroke="none" paint-order="stroke fill markers" d=" M 655 143 C 655 118.14718400000004 703.3532416 98 763 98 C 822.6467584 98 871 118.14718400000004 871 143 C 871 167.85281599999996 822.6467584 188 763 188 C 703.3532416 188 655 167.85281599999996 655 143 Z" fill-opacity="0.2"/></g><g><path fill="#ffffff" stroke="none" paint-order="stroke fill markers" d=" M 648 136 C 648 111.14718400000004 696.3532416 91 756 91 C 815.6467584 91 864 111.14718400000004 864 136 C 864 160.85281599999996 815.6467584 181 756 181 C 696.3532416 181 648 160.85281599999996 648 136 Z"/></g><g><path fill="none" stroke="#000000" paint-order="fill stroke markers" d=" M 648 136 C 648 111.14718400000004 696.3532416 91 756 91 C 815.6467584 91 864 111.14718400000004 864 136 C 864 160.85281599999996 815.6467584 181 756 181 C 696.3532416 181 648 160.85281599999996 648 136 Z" stroke-miterlimit="10" stroke-dasharray=""/></g><g><g><path fill="none" stroke="none"/><text fill="#000000" stroke="none" font-family="Arial" font-size="13px" font-style="normal" font-weight="bold" text-decoration="undefined" x="1285" y="666.5" text-anchor="middle" dominant-baseline="central" transform="matrix(1 0 0 1 -529 -549)">UC32.1 -</text><text fill="#000000" stroke="none" font-family="Arial" font-size="13px" font-style="normal" font-weight="bold" text-decoration="undefined" x="1285" y="679.5" text-anchor="middle" dominant-baseline="central" transform="matrix(1 0 0 1 -529 -549)">Visualizzazione</text><text fill="#000000" stroke="none" font-family="Arial" font-size="13px" font-style="normal" font-weight="bold" text-decoration="undefined" x="1285" y="692.5" text-anchor="middle" dominant-baseline="central" transform="matrix(1 0 0 1 -529 -549)">identificativo sensore</text><text fill="#000000" stroke="none" font-family="Arial" font-size="13px" font-style="normal" font-weight="bold" text-decoration="undefined" x="1285" y="705.5" text-anchor="middle" dominant-baseline="central" transform="matrix(1 0 0 1 -529 -549)">in lista</text></g></g><g><path fill="none" stroke="#000000" paint-order="fill stroke markers" d=" M 553 130 L 647 133" stroke-miterlimit="10" stroke-dasharray="3"/></g><g><path fill="none" stroke="#000000" paint-order="fill stroke markers" d=" M 636.7082188975382 136.88319993549294 L 647 133 L 636.9767747848716 128.468448799052" stroke-miterlimit="10" stroke-dasharray=""/></g><g><rect fill="#ffffff" stroke="none" x="1102" y="655" width="55.65625" height="13" transform="matrix(1 0 0 1 -529 -549)"/></g><g><g><path fill="none" stroke="none"/><text fill="#000000" stroke="none" font-family="Arial" font-size="13px" font-style="normal" font-weight="normal" text-decoration="undefined" x="1129.828125" y="661.5" text-anchor="middle" dominant-baseline="central" transform="matrix(1 0 0 1 -529 -549)">«include»</text></g></g><g><path fill="none" stroke="#000000" paint-order="fill stroke markers" d=" M 305 120 L 134 111" stroke-miterlimit="10" stroke-dasharray=""/></g></g></svg>