<svg version="1.1" xmlns="http://www.w3.org/2000/svg" xmlns:xlink="http://www.w3.org/1999/xlink" width="909" height="460"><defs/><g><g><rect fill="#C0C0C0" stroke="none" x="713" y="454" width="720" height="440" transform="matrix(1 0 0 1 -528 -437)" fill-opacity="0.2"/></g><g><rect fill="#ffffff" stroke="none" x="706" y="447" width="720" height="440" transform="matrix(1 0 0 1 -528 -437)"/></g><g><path fill="none" stroke="#000000" paint-order="fill stroke markers" d=" M 178 10 L 898 10 L 898 450 L 178 450 L 178 10 Z Z" stroke-miterlimit="10" stroke-dasharray=""/></g><g><g><path fill="none" stroke="none"/><text fill="#000000" stroke="none" font-family="Arial" font-size="13px" font-style="normal" font-weight="bold" text-decoration="undefined" x="1066.5" y="460.5" text-anchor="middle" dominant-baseline="central" transform="matrix(1 0 0 1 -528 -437)">Dashboard</text></g></g><g><path fill="#ffffff" stroke="none" paint-order="stroke fill markers" d=" M 62.86043945312497 195.85000000000002 C 62.86043945312497 190.96227952000004 66.81824182112496 187 71.700439453125 187 C 76.58263708512504 187 80.54043945312503 190.96227952000004 80.54043945312503 195.85000000000002 C 80.54043945312503 200.73772048 76.58263708512504 204.70000000000005 71.700439453125 204.70000000000005 C 66.81824182112496 204.70000000000005 62.86043945312497 200.73772048 62.86043945312497 195.85000000000002 Z"/></g><g><path fill="none" stroke="#000000" paint-order="fill stroke markers" d=" M 62.86043945312497 195.85000000000002 C 62.86043945312497 190.96227952000004 66.81824182112496 187 71.700439453125 187 C 76.58263708512504 187 80.54043945312503 190.96227952000004 80.54043945312503 195.85000000000002 C 80.54043945312503 200.73772048 76.58263708512504 204.70000000000005 71.700439453125 204.70000000000005 C 66.81824182112496 204.70000000000005 62.86043945312497 200.73772048 62.86043945312497 195.85000000000002 Z" stroke-miterlimit="10" stroke-dasharray=""/></g><g><path fill="none" stroke="#000000" paint-order="fill stroke markers" d=" M 71.700439453125 204.70000000000005 L 71.700439453125 222.29999999999995" stroke-miterlimit="10" stroke-dasharray=""/></g><g><path fill="none" stroke="#000000" paint-order="fill stroke markers" d=" M 62.340439453124986 211.29999999999995 L 81.06043945312501 211.29999999999995" stroke-miterlimit="10" stroke-dasharray=""/></g><g><path fill="none" stroke="#000000" paint-order="fill stroke markers" d=" M 71.700439453125 222.29999999999995 L 58.700439453125 240" stroke-miterlimit="10" stroke-dasharray=""/></g><g><path fill="none" stroke="#000000" paint-order="fill stroke markers" d=" M 71.700439453125 222.29999999999995 L 84.700439453125 240" stroke-miterlimit="10" stroke-dasharray=""/></g><g><g><path fill="none" stroke="none"/><text fill="#000000" stroke="none" font-family="Arial" font-size="13px" font-style="normal" font-weight="bold" text-decoration="undefined" x="600.200439453125" y="691.5" text-anchor="middle" dominant-baseline="central" transform="matrix(1 0 0 1 -528 -437)">Utente autenticato</text></g></g><g><path fill="#C0C0C0" stroke="none" paint-order="stroke fill markers" d=" M 281 259.5 C 281 244.86445279999998 333.606536 233 398.5 233 C 463.393464 233 516 244.86445279999998 516 259.5 C 516 274.1355472 463.393464 286 398.5 286 C 333.606536 286 281 274.1355472 281 259.5 Z" fill-opacity="0.2"/></g><g><path fill="#ffffff" stroke="none" paint-order="stroke fill markers" d=" M 274 252.5 C 274 237.86445279999998 326.606536 226 391.5 226 C 456.393464 226 509 237.86445279999998 509 252.5 C 509 267.1355472 456.393464 279 391.5 279 C 326.606536 279 274 267.1355472 274 252.5 Z"/></g><g><path fill="none" stroke="#000000" paint-order="fill stroke markers" d=" M 274 252.5 C 274 237.86445279999998 326.606536 226 391.5 226 C 456.393464 226 509 237.86445279999998 509 252.5 C 509 267.1355472 456.393464 279 391.5 279 C 326.606536 279 274 267.1355472 274 252.5 Z" stroke-miterlimit="10" stroke-dasharray=""/></g><g><g><path fill="none" stroke="none"/><text fill="#000000" stroke="none" font-family="Arial" font-size="13px" font-style="normal" font-weight="bold" text-decoration="undefined" x="919.5" y="684" text-anchor="middle" dominant-baseline="central" transform="matrix(1 0 0 1 -528 -437)">UC33 - Visualizzazione</text><text fill="#000000" stroke="none" font-family="Arial" font-size="13px" font-style="normal" font-weight="bold" text-decoration="undefined" x="919.5" y="697" text-anchor="middle" dominant-baseline="central" transform="matrix(1 0 0 1 -528 -437)">dashboard generica</text></g></g><g><path fill="#C0C0C0" stroke="none" paint-order="stroke fill markers" d=" M 289 124 C 289 104.11774720000005 343.3973968 88 410.5 88 C 477.6026032 88 532 104.11774720000005 532 124 C 532 143.88225279999995 477.6026032 160 410.5 160 C 343.3973968 160 289 143.88225279999995 289 124 Z" fill-opacity="0.2"/></g><g><path fill="#ffffff" stroke="none" paint-order="stroke fill markers" d=" M 282 117 C 282 97.11774720000005 336.3973968 81 403.5 81 C 470.6026032 81 525 97.11774720000005 525 117 C 525 136.88225279999995 470.6026032 153 403.5 153 C 336.3973968 153 282 136.88225279999995 282 117 Z"/></g><g><path fill="none" stroke="#000000" paint-order="fill stroke markers" d=" M 282 117 C 282 97.11774720000005 336.3973968 81 403.5 81 C 470.6026032 81 525 97.11774720000005 525 117 C 525 136.88225279999995 470.6026032 153 403.5 153 C 336.3973968 153 282 136.88225279999995 282 117 Z" stroke-miterlimit="10" stroke-dasharray=""/></g><g><g><path fill="none" stroke="none"/><text fill="#000000" stroke="none" font-family="Arial" font-size="13px" font-style="normal" font-weight="bold" text-decoration="undefined" x="931.5" y="542" text-anchor="middle" dominant-baseline="central" transform="matrix(1 0 0 1 -528 -437)">UC33.1 - Visualizzazione</text><text fill="#000000" stroke="none" font-family="Arial" font-size="13px" font-style="normal" font-weight="bold" text-decoration="undefined" x="931.5" y="555" text-anchor="middle" dominant-baseline="central" transform="matrix(1 0 0 1 -528 -437)">numero di sensori attivi e</text><text fill="#000000" stroke="none" font-family="Arial" font-size="13px" font-style="normal" font-weight="bold" text-decoration="undefined" x="931.5" y="568" text-anchor="middle" dominant-baseline="central" transform="matrix(1 0 0 1 -528 -437)">non attivi</text></g></g><g><path fill="#C0C0C0" stroke="none" paint-order="stroke fill markers" d=" M 273 397 C 273 377.11774720000005 333.88926719999995 361 409 361 C 484.11073280000005 361 545 377.11774720000005 545 397 C 545 416.88225279999995 484.11073280000005 433 409 433 C 333.88926719999995 433 273 416.88225279999995 273 397 Z" fill-opacity="0.2"/></g><g><path fill="#ffffff" stroke="none" paint-order="stroke fill markers" d=" M 266 390 C 266 370.11774720000005 326.88926719999995 354 402 354 C 477.11073280000005 354 538 370.11774720000005 538 390 C 538 409.88225279999995 477.11073280000005 426 402 426 C 326.88926719999995 426 266 409.88225279999995 266 390 Z"/></g><g><path fill="none" stroke="#000000" paint-order="fill stroke markers" d=" M 266 390 C 266 370.11774720000005 326.88926719999995 354 402 354 C 477.11073280000005 354 538 370.11774720000005 538 390 C 538 409.88225279999995 477.11073280000005 426 402 426 C 326.88926719999995 426 266 409.88225279999995 266 390 Z" stroke-miterlimit="10" stroke-dasharray=""/></g><g><g><path fill="none" stroke="none"/><text fill="#000000" stroke="none" font-family="Arial" font-size="13px" font-style="normal" font-weight="bold" text-decoration="undefined" x="930" y="815" text-anchor="middle" dominant-baseline="central" transform="matrix(1 0 0 1 -528 -437)">UC33.2 - Visualizzazione</text><text fill="#000000" stroke="none" font-family="Arial" font-size="13px" font-style="normal" font-weight="bold" text-decoration="undefined" x="930" y="828" text-anchor="middle" dominant-baseline="central" transform="matrix(1 0 0 1 -528 -437)">numero di gateway attivi e</text><text fill="#000000" stroke="none" font-family="Arial" font-size="13px" font-style="normal" font-weight="bold" text-decoration="undefined" x="930" y="841" text-anchor="middle" dominant-baseline="central" transform="matrix(1 0 0 1 -528 -437)">non attivi</text></g></g><g><path fill="none" stroke="#000000" paint-order="fill stroke markers" d=" M 393 225 L 400 154" stroke-miterlimit="10" stroke-dasharray="3"/></g><g><path fill="none" stroke="#000000" paint-order="fill stroke markers" d=" M 403.19208740152396 164.52666034509673 L 400 154 L 394.81367373449234 163.70061956102313" stroke-miterlimit="10" stroke-dasharray=""/></g><g><rect fill="#ffffff" stroke="none" x="867" y="616" width="55.65625" height="13" transform="matrix(1 0 0 1 -528 -437)"/></g><g><g><path fill="none" stroke="none"/><text fill="#000000" stroke="none" font-family="Arial" font-size="13px" font-style="normal" font-weight="normal" text-decoration="undefined" x="894.828125" y="622.5" text-anchor="middle" dominant-baseline="central" transform="matrix(1 0 0 1 -528 -437)">«include»</text></g></g><g><path fill="none" stroke="#000000" paint-order="fill stroke markers" d=" M 510 258 L 641 264" stroke-miterlimit="10" stroke-dasharray="3"/></g><g><path fill="none" stroke="#000000" paint-order="fill stroke markers" d=" M 630.6553674987456 267.740130801722 L 641 264 L 631.040568357058 259.3299120619025" stroke-miterlimit="10" stroke-dasharray=""/></g><g><rect fill="#ffffff" stroke="none" x="1076" y="669" width="55.65625" height="13" transform="matrix(1 0 0 1 -528 -437)"/></g><g><g><path fill="none" stroke="none"/><text fill="#000000" stroke="none" font-family="Arial" font-size="13px" font-style="normal" font-weight="normal" text-decoration="undefined" x="1103.828125" y="675.5" text-anchor="middle" dominant-baseline="central" transform="matrix(1 0 0 1 -528 -437)">«include»</text></g></g><g><path fill="none" stroke="#000000" paint-order="fill stroke markers" d=" M 393 280 L 399 353" stroke-miterlimit="10" stroke-dasharray="3"/></g><g><path fill="none" stroke="#000000" paint-order="fill stroke markers" d=" M 393.9721481128606 343.2163041032037 L 399 353 L 402.36288954949396 342.5266541221105" stroke-miterlimit="10" stroke-dasharray=""/></g><g><rect fill="#ffffff" stroke="none" x="926" y="744" width="55.65625" height="13" transform="matrix(1 0 0 1 -528 -437)"/></g><g><g><path fill="none" stroke="none"/><text fill="#000000" stroke="none" font-family="Arial" font-size="13px" font-style="normal" font-weight="normal" text-decoration="undefined" x="953.828125" y="750.5" text-anchor="middle" dominant-baseline="central" transform="matrix(1 0 0 1 -528 -437)">«include»</text></g></g><g><path fill="none" stroke="#000000" paint-order="fill stroke markers" d=" M 273 242 L 134 231" stroke-miterlimit="10" stroke-dasharray=""/></g><g><path fill="#C0C0C0" stroke="none" paint-order="stroke fill markers" d=" M 649 277 C 649 257.11774720000005 699.1441024000001 241 761 241 C 822.8558975999999 241 873 257.11774720000005 873 277 C 873 296.88225279999995 822.8558975999999 313 761 313 C 699.1441024000001 313 649 296.88225279999995 649 277 Z" fill-opacity="0.2"/></g><g><path fill="#ffffff" stroke="none" paint-order="stroke fill markers" d=" M 642 270 C 642 250.11774720000005 692.1441024000001 234 754 234 C 815.8558975999999 234 866 250.11774720000005 866 270 C 866 289.88225279999995 815.8558975999999 306 754 306 C 692.1441024000001 306 642 289.88225279999995 642 270 Z"/></g><g><path fill="none" stroke="#000000" paint-order="fill stroke markers" d=" M 642 270 C 642 250.11774720000005 692.1441024000001 234 754 234 C 815.8558975999999 234 866 250.11774720000005 866 270 C 866 289.88225279999995 815.8558975999999 306 754 306 C 692.1441024000001 306 642 289.88225279999995 642 270 Z" stroke-miterlimit="10" stroke-dasharray=""/></g><g><g><path fill="none" stroke="none"/><text fill="#000000" stroke="none" font-family="Arial" font-size="13px" font-style="normal" font-weight="bold" text-decoration="undefined" x="1282" y="701.5" text-anchor="middle" dominant-baseline="central" transform="matrix(1 0 0 1 -528 -437)">UC19 - Visualizzazione</text><text fill="#000000" stroke="none" font-family="Arial" font-size="13px" font-style="normal" font-weight="bold" text-decoration="undefined" x="1282" y="714.5" text-anchor="middle" dominant-baseline="central" transform="matrix(1 0 0 1 -528 -437)">lista alert</text></g></g></g></svg>