<svg version="1.1" xmlns="http://www.w3.org/2000/svg" xmlns:xlink="http://www.w3.org/1999/xlink" width="892" height="265"><defs/><g><g><path fill="#ffffff" stroke="none" paint-order="stroke fill markers" d=" M 62.860439453125025 99.85000000000002 C 62.860439453125025 94.96227952000004 66.81824182112501 91 71.700439453125 91 C 76.58263708512499 91 80.54043945312497 94.96227952000004 80.54043945312497 99.85000000000002 C 80.54043945312497 104.73772048000001 76.58263708512499 108.70000000000005 71.700439453125 108.70000000000005 C 66.81824182112501 108.70000000000005 62.860439453125025 104.73772048000001 62.860439453125025 99.85000000000002 Z"/></g><g><path fill="none" stroke="#000000" paint-order="fill stroke markers" d=" M 62.860439453125025 99.85000000000002 C 62.860439453125025 94.96227952000004 66.81824182112501 91 71.700439453125 91 C 76.58263708512499 91 80.54043945312497 94.96227952000004 80.54043945312497 99.85000000000002 C 80.54043945312497 104.73772048000001 76.58263708512499 108.70000000000005 71.700439453125 108.70000000000005 C 66.81824182112501 108.70000000000005 62.860439453125025 104.73772048000001 62.860439453125025 99.85000000000002 Z" stroke-miterlimit="10" stroke-dasharray=""/></g><g><path fill="none" stroke="#000000" paint-order="fill stroke markers" d=" M 71.700439453125 108.70000000000005 L 71.700439453125 126.29999999999995" stroke-miterlimit="10" stroke-dasharray=""/></g><g><path fill="none" stroke="#000000" paint-order="fill stroke markers" d=" M 62.340439453124986 115.29999999999995 L 81.06043945312501 115.29999999999995" stroke-miterlimit="10" stroke-dasharray=""/></g><g><path fill="none" stroke="#000000" paint-order="fill stroke markers" d=" M 71.700439453125 126.29999999999995 L 58.700439453125 144" stroke-miterlimit="10" stroke-dasharray=""/></g><g><path fill="none" stroke="#000000" paint-order="fill stroke markers" d=" M 71.700439453125 126.29999999999995 L 84.700439453125 144" stroke-miterlimit="10" stroke-dasharray=""/></g><g><g><path fill="none" stroke="none"/><text fill="#000000" stroke="none" font-family="Arial" font-size="13px" font-style="normal" font-weight="bold" text-decoration="undefined" x="275.200439453125" y="633.5" text-anchor="middle" dominant-baseline="central" transform="matrix(1 0 0 1 -203 -475)">Utente autenticato</text></g></g><g><path fill="#C0C0C0" stroke="none" paint-order="stroke fill markers" d=" M 249 147.5 C 249 132.86445279999998 311.68012799999997 121 389 121 C 466.31987200000003 121 529 132.86445279999998 529 147.5 C 529 162.13554720000002 466.31987200000003 174 389 174 C 311.68012799999997 174 249 162.13554720000002 249 147.5 Z" fill-opacity="0.2"/></g><g><path fill="#ffffff" stroke="none" paint-order="stroke fill markers" d=" M 242 140.5 C 242 125.86445279999998 304.68012799999997 114 382 114 C 459.31987200000003 114 522 125.86445279999998 522 140.5 C 522 155.13554720000002 459.31987200000003 167 382 167 C 304.68012799999997 167 242 155.13554720000002 242 140.5 Z"/></g><g><path fill="none" stroke="#000000" paint-order="fill stroke markers" d=" M 242 140.5 C 242 125.86445279999998 304.68012799999997 114 382 114 C 459.31987200000003 114 522 125.86445279999998 522 140.5 C 522 155.13554720000002 459.31987200000003 167 382 167 C 304.68012799999997 167 242 155.13554720000002 242 140.5 Z" stroke-miterlimit="10" stroke-dasharray=""/></g><g><g><path fill="none" stroke="none"/><text fill="#000000" stroke="none" font-family="Arial" font-size="13px" font-style="normal" font-weight="bold" text-decoration="undefined" x="585" y="610" text-anchor="middle" dominant-baseline="central" transform="matrix(1 0 0 1 -203 -475)">UC33 - Visualizzazione</text><text fill="#000000" stroke="none" font-family="Arial" font-size="13px" font-style="normal" font-weight="bold" text-decoration="undefined" x="585" y="623" text-anchor="middle" dominant-baseline="central" transform="matrix(1 0 0 1 -203 -475)">dashboard generica</text></g></g><g><path fill="#C0C0C0" stroke="none" paint-order="stroke fill markers" d=" M 481 43.5 C 481 28.86445279999998 550.8435712 17 637 17 C 723.1564288 17 793 28.86445279999998 793 43.5 C 793 58.13554720000002 723.1564288 70 637 70 C 550.8435712 70 481 58.13554720000002 481 43.5 Z" fill-opacity="0.2"/></g><g><path fill="#ffffff" stroke="none" paint-order="stroke fill markers" d=" M 474 36.5 C 474 21.86445279999998 543.8435712 10 630 10 C 716.1564288 10 786 21.86445279999998 786 36.5 C 786 51.13554720000002 716.1564288 63 630 63 C 543.8435712 63 474 51.13554720000002 474 36.5 Z"/></g><g><path fill="none" stroke="#000000" paint-order="fill stroke markers" d=" M 474 36.5 C 474 21.86445279999998 543.8435712 10 630 10 C 716.1564288 10 786 21.86445279999998 786 36.5 C 786 51.13554720000002 716.1564288 63 630 63 C 543.8435712 63 474 51.13554720000002 474 36.5 Z" stroke-miterlimit="10" stroke-dasharray=""/></g><g><g><path fill="none" stroke="none"/><text fill="#000000" stroke="none" font-family="Arial" font-size="13px" font-style="normal" font-weight="bold" text-decoration="undefined" x="833" y="506" text-anchor="middle" dominant-baseline="central" transform="matrix(1 0 0 1 -203 -475)">UC33.1 - Visualizzazione numero</text><text fill="#000000" stroke="none" font-family="Arial" font-size="13px" font-style="normal" font-weight="bold" text-decoration="undefined" x="833" y="519" text-anchor="middle" dominant-baseline="central" transform="matrix(1 0 0 1 -203 -475)">di sensori attivi e non attivi</text></g></g><g><path fill="#C0C0C0" stroke="none" paint-order="stroke fill markers" d=" M 505 235.5 C 505 220.86445279999998 577.75372 209 667.5 209 C 757.24628 209 830 220.86445279999998 830 235.5 C 830 250.13554720000002 757.24628 262 667.5 262 C 577.75372 262 505 250.13554720000002 505 235.5 Z" fill-opacity="0.2"/></g><g><path fill="#ffffff" stroke="none" paint-order="stroke fill markers" d=" M 498 228.5 C 498 213.86445279999998 570.75372 202 660.5 202 C 750.24628 202 823 213.86445279999998 823 228.5 C 823 243.13554720000002 750.24628 255 660.5 255 C 570.75372 255 498 243.13554720000002 498 228.5 Z"/></g><g><path fill="none" stroke="#000000" paint-order="fill stroke markers" d=" M 498 228.5 C 498 213.86445279999998 570.75372 202 660.5 202 C 750.24628 202 823 213.86445279999998 823 228.5 C 823 243.13554720000002 750.24628 255 660.5 255 C 570.75372 255 498 243.13554720000002 498 228.5 Z" stroke-miterlimit="10" stroke-dasharray=""/></g><g><g><path fill="none" stroke="none"/><text fill="#000000" stroke="none" font-family="Arial" font-size="13px" font-style="normal" font-weight="bold" text-decoration="undefined" x="863.5" y="698" text-anchor="middle" dominant-baseline="central" transform="matrix(1 0 0 1 -203 -475)">UC33.2 - Visualizzazione numero di</text><text fill="#000000" stroke="none" font-family="Arial" font-size="13px" font-style="normal" font-weight="bold" text-decoration="undefined" x="863.5" y="711" text-anchor="middle" dominant-baseline="central" transform="matrix(1 0 0 1 -203 -475)">gateway attivi e non attivi</text></g></g><g><path fill="#C0C0C0" stroke="none" paint-order="stroke fill markers" d=" M 649 139.5 C 649 124.86445279999998 702.725824 113 769 113 C 835.2741759999999 113 889 124.86445279999998 889 139.5 C 889 154.13554720000002 835.2741759999999 166 769 166 C 702.725824 166 649 154.13554720000002 649 139.5 Z" fill-opacity="0.2"/></g><g><path fill="#ffffff" stroke="none" paint-order="stroke fill markers" d=" M 642 132.5 C 642 117.86445279999998 695.725824 106 762 106 C 828.2741759999999 106 882 117.86445279999998 882 132.5 C 882 147.13554720000002 828.2741759999999 159 762 159 C 695.725824 159 642 147.13554720000002 642 132.5 Z"/></g><g><path fill="none" stroke="#000000" paint-order="fill stroke markers" d=" M 642 132.5 C 642 117.86445279999998 695.725824 106 762 106 C 828.2741759999999 106 882 117.86445279999998 882 132.5 C 882 147.13554720000002 828.2741759999999 159 762 159 C 695.725824 159 642 147.13554720000002 642 132.5 Z" stroke-miterlimit="10" stroke-dasharray=""/></g><g><g><path fill="none" stroke="none"/><text fill="#000000" stroke="none" font-family="Arial" font-size="13px" font-style="normal" font-weight="bold" text-decoration="undefined" x="965" y="602" text-anchor="middle" dominant-baseline="central" transform="matrix(1 0 0 1 -203 -475)">UC19 - Visualizzazione</text><text fill="#000000" stroke="none" font-family="Arial" font-size="13px" font-style="normal" font-weight="bold" text-decoration="undefined" x="965" y="615" text-anchor="middle" dominant-baseline="central" transform="matrix(1 0 0 1 -203 -475)">lista alert</text></g></g><g><path fill="none" stroke="#000000" paint-order="fill stroke markers" d=" M 446 113 L 563 64" stroke-miterlimit="10" stroke-dasharray="3"/></g><g><path fill="none" stroke="#000000" paint-order="fill stroke markers" d=" M 555.2523077592492 71.80853795166615 L 563 64 L 552.0000841412431 64.04302441479433" stroke-miterlimit="10" stroke-dasharray=""/></g><g><rect fill="#ffffff" stroke="none" x="669" y="550" width="55.65625" height="13" transform="matrix(1 0 0 1 -203 -475)"/></g><g><g><path fill="none" stroke="none"/><text fill="#000000" stroke="none" font-family="Arial" font-size="13px" font-style="normal" font-weight="normal" text-decoration="undefined" x="696.828125" y="556.5" text-anchor="middle" dominant-baseline="central" transform="matrix(1 0 0 1 -203 -475)">«include»</text></g></g><g><path fill="none" stroke="#000000" paint-order="fill stroke markers" d=" M 523 137 L 641 135" stroke-miterlimit="10" stroke-dasharray="3"/></g><g><path fill="none" stroke="#000000" paint-order="fill stroke markers" d=" M 630.910122075527 139.38113723469542 L 641 135 L 630.7674470502988 130.96331074622276" stroke-miterlimit="10" stroke-dasharray=""/></g><g><rect fill="#ffffff" stroke="none" x="756" y="606" width="55.65625" height="13" transform="matrix(1 0 0 1 -203 -475)"/></g><g><g><path fill="none" stroke="none"/><text fill="#000000" stroke="none" font-family="Arial" font-size="13px" font-style="normal" font-weight="normal" text-decoration="undefined" x="783.828125" y="612.5" text-anchor="middle" dominant-baseline="central" transform="matrix(1 0 0 1 -203 -475)">«include»</text></g></g><g><path fill="none" stroke="#000000" paint-order="fill stroke markers" d=" M 470 168 L 575 201" stroke-miterlimit="10" stroke-dasharray="3"/></g><g><path fill="none" stroke="#000000" paint-order="fill stroke markers" d=" M 564.0427466562116 201.9688132740829 L 575 201 L 566.5669974216207 193.93710629323584" stroke-miterlimit="10" stroke-dasharray=""/></g><g><rect fill="#ffffff" stroke="none" x="701" y="649" width="55.65625" height="13" transform="matrix(1 0 0 1 -203 -475)"/></g><g><g><path fill="none" stroke="none"/><text fill="#000000" stroke="none" font-family="Arial" font-size="13px" font-style="normal" font-weight="normal" text-decoration="undefined" x="728.828125" y="655.5" text-anchor="middle" dominant-baseline="central" transform="matrix(1 0 0 1 -203 -475)">«include»</text></g></g><g><path fill="none" stroke="#000000" paint-order="fill stroke markers" d=" M 241 135 L 134 132" stroke-miterlimit="10" stroke-dasharray=""/></g></g></svg>