<svg version="1.1" xmlns="http://www.w3.org/2000/svg" xmlns:xlink="http://www.w3.org/1999/xlink" width="773" height="204"><defs/><g><g><rect fill="#C0C0C0" stroke="none" x="656" y="477" width="568" height="184" transform="matrix(1 0 0 1 -455 -460)" fill-opacity="0.2"/></g><g><rect fill="#ffffff" stroke="none" x="649" y="470" width="568" height="184" transform="matrix(1 0 0 1 -455 -460)"/></g><g><path fill="none" stroke="#000000" paint-order="fill stroke markers" d=" M 194 10 L 762 10 L 762 194 L 194 194 L 194 10 Z Z" stroke-miterlimit="10" stroke-dasharray=""/></g><g><g><path fill="none" stroke="none"/><text fill="#000000" stroke="none" font-family="Arial" font-size="13px" font-style="normal" font-weight="bold" text-decoration="undefined" x="933.5" y="483.5" text-anchor="middle" dominant-baseline="central" transform="matrix(1 0 0 1 -455 -460)">Sistema Cloud</text></g></g><g><path fill="#ffffff" stroke="none" paint-order="stroke fill markers" d=" M 55.278164062500025 75.85000000000002 C 55.278164062500025 70.96227952000004 59.23596643049996 67 64.1181640625 67 C 69.00036169450004 67 72.95816406250003 70.96227952000004 72.95816406250003 75.85000000000002 C 72.95816406250003 80.73772048000001 69.00036169450004 84.70000000000005 64.1181640625 84.70000000000005 C 59.23596643049996 84.70000000000005 55.278164062500025 80.73772048000001 55.278164062500025 75.85000000000002 Z"/></g><g><path fill="none" stroke="#000000" paint-order="fill stroke markers" d=" M 55.278164062500025 75.85000000000002 C 55.278164062500025 70.96227952000004 59.23596643049996 67 64.1181640625 67 C 69.00036169450004 67 72.95816406250003 70.96227952000004 72.95816406250003 75.85000000000002 C 72.95816406250003 80.73772048000001 69.00036169450004 84.70000000000005 64.1181640625 84.70000000000005 C 59.23596643049996 84.70000000000005 55.278164062500025 80.73772048000001 55.278164062500025 75.85000000000002 Z" stroke-miterlimit="10" stroke-dasharray=""/></g><g><path fill="none" stroke="#000000" paint-order="fill stroke markers" d=" M 64.1181640625 84.70000000000005 L 64.1181640625 102.29999999999995" stroke-miterlimit="10" stroke-dasharray=""/></g><g><path fill="none" stroke="#000000" paint-order="fill stroke markers" d=" M 54.758164062499986 91.29999999999995 L 73.47816406250001 91.29999999999995" stroke-miterlimit="10" stroke-dasharray=""/></g><g><path fill="none" stroke="#000000" paint-order="fill stroke markers" d=" M 64.1181640625 102.29999999999995 L 51.1181640625 120" stroke-miterlimit="10" stroke-dasharray=""/></g><g><path fill="none" stroke="#000000" paint-order="fill stroke markers" d=" M 64.1181640625 102.29999999999995 L 77.1181640625 120" stroke-miterlimit="10" stroke-dasharray=""/></g><g><g><path fill="none" stroke="none"/><text fill="#000000" stroke="none" font-family="Arial" font-size="13px" font-style="normal" font-weight="bold" text-decoration="undefined" x="519.6181640625" y="594.5" text-anchor="middle" dominant-baseline="central" transform="matrix(1 0 0 1 -455 -460)">Admin generico</text></g></g><g><path fill="#C0C0C0" stroke="none" paint-order="stroke fill markers" d=" M 241 123.5 C 241 108.86445279999998 285.77152 97 341 97 C 396.22848 97 441 108.86445279999998 441 123.5 C 441 138.13554720000002 396.22848 150 341 150 C 285.77152 150 241 138.13554720000002 241 123.5 Z" fill-opacity="0.2"/></g><g><path fill="#ffffff" stroke="none" paint-order="stroke fill markers" d=" M 234 116.5 C 234 101.86445279999998 278.77152 90 334 90 C 389.22848 90 434 101.86445279999998 434 116.5 C 434 131.13554720000002 389.22848 143 334 143 C 278.77152 143 234 131.13554720000002 234 116.5 Z"/></g><g><path fill="none" stroke="#000000" paint-order="fill stroke markers" d=" M 234 116.5 C 234 101.86445279999998 278.77152 90 334 90 C 389.22848 90 434 101.86445279999998 434 116.5 C 434 131.13554720000002 389.22848 143 334 143 C 278.77152 143 234 131.13554720000002 234 116.5 Z" stroke-miterlimit="10" stroke-dasharray=""/></g><g><g><path fill="none" stroke="none"/><text fill="#000000" stroke="none" font-family="Arial" font-size="13px" font-style="normal" font-weight="bold" text-decoration="undefined" x="789" y="571" text-anchor="middle" dominant-baseline="central" transform="matrix(1 0 0 1 -455 -460)">UC35 - Sospensione</text><text fill="#000000" stroke="none" font-family="Arial" font-size="13px" font-style="normal" font-weight="bold" text-decoration="undefined" x="789" y="584" text-anchor="middle" dominant-baseline="central" transform="matrix(1 0 0 1 -455 -460)">Tenant User</text></g></g><g><path fill="#C0C0C0" stroke="none" paint-order="stroke fill markers" d=" M 529 125 C 529 105.11774720000005 573.77152 89 629 89 C 684.22848 89 729 105.11774720000005 729 125 C 729 144.88225279999995 684.22848 161 629 161 C 573.77152 161 529 144.88225279999995 529 125 Z" fill-opacity="0.2"/></g><g><path fill="#ffffff" stroke="none" paint-order="stroke fill markers" d=" M 522 118 C 522 98.11774720000005 566.77152 82 622 82 C 677.22848 82 722 98.11774720000005 722 118 C 722 137.88225279999995 677.22848 154 622 154 C 566.77152 154 522 137.88225279999995 522 118 Z"/></g><g><path fill="none" stroke="#000000" paint-order="fill stroke markers" d=" M 522 118 C 522 98.11774720000005 566.77152 82 622 82 C 677.22848 82 722 98.11774720000005 722 118 C 722 137.88225279999995 677.22848 154 622 154 C 566.77152 154 522 137.88225279999995 522 118 Z" stroke-miterlimit="10" stroke-dasharray=""/></g><g><g><path fill="none" stroke="none"/><text fill="#000000" stroke="none" font-family="Arial" font-size="13px" font-style="normal" font-weight="bold" text-decoration="undefined" x="1077" y="566" text-anchor="middle" dominant-baseline="central" transform="matrix(1 0 0 1 -455 -460)">UC35.1 - Conferma</text><text fill="#000000" stroke="none" font-family="Arial" font-size="13px" font-style="normal" font-weight="bold" text-decoration="undefined" x="1077" y="579" text-anchor="middle" dominant-baseline="central" transform="matrix(1 0 0 1 -455 -460)">sospensione Tenant</text><text fill="#000000" stroke="none" font-family="Arial" font-size="13px" font-style="normal" font-weight="bold" text-decoration="undefined" x="1077" y="592" text-anchor="middle" dominant-baseline="central" transform="matrix(1 0 0 1 -455 -460)">User</text></g></g><g><path fill="none" stroke="#000000" paint-order="fill stroke markers" d=" M 435 117 L 521 117" stroke-miterlimit="10" stroke-dasharray="3"/></g><g><path fill="none" stroke="#000000" paint-order="fill stroke markers" d=" M 510.8373251423759 121.209517756016 L 521 117 L 510.8373251423758 112.790482243984" stroke-miterlimit="10" stroke-dasharray=""/></g><g><rect fill="#ffffff" stroke="none" x="905" y="559" width="55.65625" height="13" transform="matrix(1 0 0 1 -455 -460)"/></g><g><g><path fill="none" stroke="none"/><text fill="#000000" stroke="none" font-family="Arial" font-size="13px" font-style="normal" font-weight="normal" text-decoration="undefined" x="932.828125" y="565.5" text-anchor="middle" dominant-baseline="central" transform="matrix(1 0 0 1 -455 -460)">«include»</text></g></g><g><path fill="none" stroke="#000000" paint-order="fill stroke markers" d=" M 233 112 L 119 108" stroke-miterlimit="10" stroke-dasharray=""/></g></g></svg>