<svg version="1.1" xmlns="http://www.w3.org/2000/svg" xmlns:xlink="http://www.w3.org/1999/xlink" width="824" height="364"><defs/><g><g><rect fill="#C0C0C0" stroke="none" x="775" y="502" width="616" height="344" transform="matrix(1 0 0 1 -571 -485)" fill-opacity="0.2"/></g><g><rect fill="#ffffff" stroke="none" x="768" y="495" width="616" height="344" transform="matrix(1 0 0 1 -571 -485)"/></g><g><path fill="none" stroke="#000000" paint-order="fill stroke markers" d=" M 197 10 L 813 10 L 813 354 L 197 354 L 197 10 Z Z" stroke-miterlimit="10" stroke-dasharray=""/></g><g><g><path fill="none" stroke="none"/><text fill="#000000" stroke="none" font-family="Arial" font-size="13px" font-style="normal" font-weight="bold" text-decoration="undefined" x="1076.5" y="508.5" text-anchor="middle" dominant-baseline="central" transform="matrix(1 0 0 1 -571 -485)">Dashboard admin</text></g></g><g><path fill="#ffffff" stroke="none" paint-order="stroke fill markers" d=" M 55.27816406249997 163.85000000000002 C 55.27816406249997 158.96227952000004 59.23596643049996 155 64.1181640625 155 C 69.00036169450004 155 72.95816406250003 158.96227952000004 72.95816406250003 163.85000000000002 C 72.95816406250003 168.73772048 69.00036169450004 172.70000000000005 64.1181640625 172.70000000000005 C 59.23596643049996 172.70000000000005 55.27816406249997 168.73772048 55.27816406249997 163.85000000000002 Z"/></g><g><path fill="none" stroke="#000000" paint-order="fill stroke markers" d=" M 55.27816406249997 163.85000000000002 C 55.27816406249997 158.96227952000004 59.23596643049996 155 64.1181640625 155 C 69.00036169450004 155 72.95816406250003 158.96227952000004 72.95816406250003 163.85000000000002 C 72.95816406250003 168.73772048 69.00036169450004 172.70000000000005 64.1181640625 172.70000000000005 C 59.23596643049996 172.70000000000005 55.27816406249997 168.73772048 55.27816406249997 163.85000000000002 Z" stroke-miterlimit="10" stroke-dasharray=""/></g><g><path fill="none" stroke="#000000" paint-order="fill stroke markers" d=" M 64.1181640625 172.70000000000005 L 64.1181640625 190.29999999999995" stroke-miterlimit="10" stroke-dasharray=""/></g><g><path fill="none" stroke="#000000" paint-order="fill stroke markers" d=" M 54.758164062499986 179.29999999999995 L 73.47816406250001 179.29999999999995" stroke-miterlimit="10" stroke-dasharray=""/></g><g><path fill="none" stroke="#000000" paint-order="fill stroke markers" d=" M 64.1181640625 190.29999999999995 L 51.1181640625 208" stroke-miterlimit="10" stroke-dasharray=""/></g><g><path fill="none" stroke="#000000" paint-order="fill stroke markers" d=" M 64.1181640625 190.29999999999995 L 77.1181640625 208" stroke-miterlimit="10" stroke-dasharray=""/></g><g><g><path fill="none" stroke="none"/><text fill="#000000" stroke="none" font-family="Arial" font-size="13px" font-style="normal" font-weight="bold" text-decoration="undefined" x="635.6181640625" y="707.5" text-anchor="middle" dominant-baseline="central" transform="matrix(1 0 0 1 -571 -485)">Admin generico</text></g></g><g><path fill="#C0C0C0" stroke="none" paint-order="stroke fill markers" d=" M 276 293 C 276 273.11774720000005 325.02481439999997 257 385.5 257 C 445.97518560000003 257 495 273.11774720000005 495 293 C 495 312.88225279999995 445.97518560000003 329 385.5 329 C 325.02481439999997 329 276 312.88225279999995 276 293 Z" fill-opacity="0.2"/></g><g><path fill="#ffffff" stroke="none" paint-order="stroke fill markers" d=" M 269 286 C 269 266.11774720000005 318.02481439999997 250 378.5 250 C 438.97518560000003 250 488 266.11774720000005 488 286 C 488 305.88225279999995 438.97518560000003 322 378.5 322 C 318.02481439999997 322 269 305.88225279999995 269 286 Z"/></g><g><path fill="none" stroke="#000000" paint-order="fill stroke markers" d=" M 269 286 C 269 266.11774720000005 318.02481439999997 250 378.5 250 C 438.97518560000003 250 488 266.11774720000005 488 286 C 488 305.88225279999995 438.97518560000003 322 378.5 322 C 318.02481439999997 322 269 305.88225279999995 269 286 Z" stroke-miterlimit="10" stroke-dasharray=""/></g><g><g><path fill="none" stroke="none"/><text fill="#000000" stroke="none" font-family="Arial" font-size="13px" font-style="normal" font-weight="bold" text-decoration="undefined" x="949.5" y="765.5" text-anchor="middle" dominant-baseline="central" transform="matrix(1 0 0 1 -571 -485)">UC36.1 - Inserimento</text><text fill="#000000" stroke="none" font-family="Arial" font-size="13px" font-style="normal" font-weight="bold" text-decoration="undefined" x="949.5" y="778.5" text-anchor="middle" dominant-baseline="central" transform="matrix(1 0 0 1 -571 -485)">email</text></g></g><g><path fill="none" stroke="#000000" paint-order="fill stroke markers" d=" M 364 88 L 355 145" stroke-miterlimit="10" stroke-dasharray="3"/></g><g><path fill="none" stroke="#000000" paint-order="fill stroke markers" d=" M 352.4269911828768 134.3051589246494 L 355 145 L 360.7430026654522 135.61821336926653" stroke-miterlimit="10" stroke-dasharray=""/></g><g><rect fill="#ffffff" stroke="none" x="933" y="599" width="53.49169921875" height="13" transform="matrix(1 0 0 1 -571 -485)"/></g><g><g><path fill="none" stroke="none"/><text fill="#000000" stroke="none" font-family="Arial" font-size="13px" font-style="normal" font-weight="normal" text-decoration="undefined" x="959.745849609375" y="605.5" text-anchor="middle" dominant-baseline="central" transform="matrix(1 0 0 1 -571 -485)">«extend»</text></g></g><g><path fill="none" stroke="#000000" paint-order="fill stroke markers" d=" M 446 184 L 548 187" stroke-miterlimit="10" stroke-dasharray="3"/></g><g><path fill="none" stroke="#000000" paint-order="fill stroke markers" d=" M 537.7179620834852 190.90892520820614 L 548 187 L 537.9654737429414 182.49352878668878" stroke-miterlimit="10" stroke-dasharray=""/></g><g><rect fill="#ffffff" stroke="none" x="1032" y="648" width="55.65625" height="13" transform="matrix(1 0 0 1 -571 -485)"/></g><g><g><path fill="none" stroke="none"/><text fill="#000000" stroke="none" font-family="Arial" font-size="13px" font-style="normal" font-weight="normal" text-decoration="undefined" x="1059.828125" y="654.5" text-anchor="middle" dominant-baseline="central" transform="matrix(1 0 0 1 -571 -485)">«include»</text></g></g><g><path fill="none" stroke="#000000" paint-order="fill stroke markers" d=" M 359 219 L 368 249" stroke-miterlimit="10" stroke-dasharray="3"/></g><g><path fill="none" stroke="#000000" paint-order="fill stroke markers" d=" M 361.0477901131462 240.47551891965668 L 368 249 L 369.1117636227807 238.0563268667663" stroke-miterlimit="10" stroke-dasharray=""/></g><g><rect fill="#ffffff" stroke="none" x="935" y="703" width="55.65625" height="13" transform="matrix(1 0 0 1 -571 -485)"/></g><g><g><path fill="none" stroke="none"/><text fill="#000000" stroke="none" font-family="Arial" font-size="13px" font-style="normal" font-weight="normal" text-decoration="undefined" x="962.828125" y="709.5" text-anchor="middle" dominant-baseline="central" transform="matrix(1 0 0 1 -571 -485)">«include»</text></g></g><g><path fill="none" stroke="#000000" paint-order="fill stroke markers" d=" M 252 186 L 119 192" stroke-miterlimit="10" stroke-dasharray=""/></g><g><path fill="#C0C0C0" stroke="none" paint-order="stroke fill markers" d=" M 284 67.5 C 284 52.86445279999998 325.1897984 41 376 41 C 426.8102016 41 468 52.86445279999998 468 67.5 C 468 82.13554720000002 426.8102016 94 376 94 C 325.1897984 94 284 82.13554720000002 284 67.5 Z" fill-opacity="0.2"/></g><g><path fill="#ffffff" stroke="none" paint-order="stroke fill markers" d=" M 277 60.5 C 277 45.86445279999998 318.1897984 34 369 34 C 419.8102016 34 461 45.86445279999998 461 60.5 C 461 75.13554720000002 419.8102016 87 369 87 C 318.1897984 87 277 75.13554720000002 277 60.5 Z"/></g><g><path fill="none" stroke="#000000" paint-order="fill stroke markers" d=" M 277 60.5 C 277 45.86445279999998 318.1897984 34 369 34 C 419.8102016 34 461 45.86445279999998 461 60.5 C 461 75.13554720000002 419.8102016 87 369 87 C 318.1897984 87 277 75.13554720000002 277 60.5 Z" stroke-miterlimit="10" stroke-dasharray=""/></g><g><g><path fill="none" stroke="none"/><text fill="#000000" stroke="none" font-family="Arial" font-size="13px" font-style="normal" font-weight="bold" text-decoration="undefined" x="940" y="540" text-anchor="middle" dominant-baseline="central" transform="matrix(1 0 0 1 -571 -485)">UC35 - Email già</text><text fill="#000000" stroke="none" font-family="Arial" font-size="13px" font-style="normal" font-weight="bold" text-decoration="undefined" x="940" y="553" text-anchor="middle" dominant-baseline="central" transform="matrix(1 0 0 1 -571 -485)">utilizzata</text></g></g><g><path fill="#C0C0C0" stroke="none" paint-order="stroke fill markers" d=" M 260 189 C 260 169.11774720000005 302.9806592 153 356 153 C 409.0193408 153 452 169.11774720000005 452 189 C 452 208.88225279999995 409.0193408 225 356 225 C 302.9806592 225 260 208.88225279999995 260 189 Z" fill-opacity="0.2"/></g><g><path fill="#ffffff" stroke="none" paint-order="stroke fill markers" d=" M 253 182 C 253 162.11774720000005 295.9806592 146 349 146 C 402.0193408 146 445 162.11774720000005 445 182 C 445 201.88225279999995 402.0193408 218 349 218 C 295.9806592 218 253 201.88225279999995 253 182 Z"/></g><g><path fill="none" stroke="#000000" paint-order="fill stroke markers" d=" M 253 182 C 253 162.11774720000005 295.9806592 146 349 146 C 402.0193408 146 445 162.11774720000005 445 182 C 445 201.88225279999995 402.0193408 218 349 218 C 295.9806592 218 253 201.88225279999995 253 182 Z" stroke-miterlimit="10" stroke-dasharray=""/></g><g><g><path fill="none" stroke="none"/><text fill="#000000" stroke="none" font-family="Arial" font-size="13px" font-style="normal" font-weight="bold" text-decoration="undefined" x="920" y="655" text-anchor="middle" dominant-baseline="central" transform="matrix(1 0 0 1 -571 -485)">UC36 -</text><text fill="#000000" stroke="none" font-family="Arial" font-size="13px" font-style="normal" font-weight="bold" text-decoration="undefined" x="920" y="668" text-anchor="middle" dominant-baseline="central" transform="matrix(1 0 0 1 -571 -485)">Registrazione</text><text fill="#000000" stroke="none" font-family="Arial" font-size="13px" font-style="normal" font-weight="bold" text-decoration="undefined" x="920" y="681" text-anchor="middle" dominant-baseline="central" transform="matrix(1 0 0 1 -571 -485)">nuovo Tenant User</text></g></g><g><path fill="#C0C0C0" stroke="none" paint-order="stroke fill markers" d=" M 556 197 C 556 177.11774720000005 610.3973968 161 677.5 161 C 744.6026032 161 799 177.11774720000005 799 197 C 799 216.88225279999995 744.6026032 233 677.5 233 C 610.3973968 233 556 216.88225279999995 556 197 Z" fill-opacity="0.2"/></g><g><path fill="#ffffff" stroke="none" paint-order="stroke fill markers" d=" M 549 190 C 549 170.11774720000005 603.3973968 154 670.5 154 C 737.6026032 154 792 170.11774720000005 792 190 C 792 209.88225279999995 737.6026032 226 670.5 226 C 603.3973968 226 549 209.88225279999995 549 190 Z"/></g><g><path fill="none" stroke="#000000" paint-order="fill stroke markers" d=" M 549 190 C 549 170.11774720000005 603.3973968 154 670.5 154 C 737.6026032 154 792 170.11774720000005 792 190 C 792 209.88225279999995 737.6026032 226 670.5 226 C 603.3973968 226 549 209.88225279999995 549 190 Z" stroke-miterlimit="10" stroke-dasharray=""/></g><g><g><path fill="none" stroke="none"/><text fill="#000000" stroke="none" font-family="Arial" font-size="13px" font-style="normal" font-weight="bold" text-decoration="undefined" x="1241.5" y="663" text-anchor="middle" dominant-baseline="central" transform="matrix(1 0 0 1 -571 -485)">UC36.2 - Invio email</text><text fill="#000000" stroke="none" font-family="Arial" font-size="13px" font-style="normal" font-weight="bold" text-decoration="undefined" x="1241.5" y="676" text-anchor="middle" dominant-baseline="central" transform="matrix(1 0 0 1 -571 -485)">impostazione password</text><text fill="#000000" stroke="none" font-family="Arial" font-size="13px" font-style="normal" font-weight="bold" text-decoration="undefined" x="1241.5" y="689" text-anchor="middle" dominant-baseline="central" transform="matrix(1 0 0 1 -571 -485)">al nuovo Tenant User</text></g></g></g></svg>