<svg version="1.1" xmlns="http://www.w3.org/2000/svg" xmlns:xlink="http://www.w3.org/1999/xlink" width="1090.2490234375" height="340"><defs/><g><g><rect fill="#C0C0C0" stroke="none" x="343" y="447" width="816" height="320" transform="matrix(1 0 0 1 -195 -430)" fill-opacity="0.2"/></g><g><rect fill="#ffffff" stroke="none" x="336" y="440" width="816" height="320" transform="matrix(1 0 0 1 -195 -430)"/></g><g><path fill="none" stroke="#000000" paint-order="fill stroke markers" d=" M 141 10 L 957 10 L 957 330 L 141 330 L 141 10 Z Z" stroke-miterlimit="10" stroke-dasharray=""/></g><g><g><path fill="none" stroke="none"/><text fill="#000000" stroke="none" font-family="Arial" font-size="13px" font-style="normal" font-weight="bold" text-decoration="undefined" x="744.5" y="453.5" text-anchor="middle" dominant-baseline="central" transform="matrix(1 0 0 1 -195 -430)">Sistema cloud</text></g></g><g><path fill="#ffffff" stroke="none" paint-order="stroke fill markers" d=" M 55.2781640625 164.85000000000002 C 55.2781640625 159.96227952000004 59.235966430500014 156 64.1181640625 156 C 69.00036169449999 156 72.95816406249997 159.96227952000004 72.95816406249997 164.85000000000002 C 72.95816406249997 169.73772048 69.00036169449999 173.70000000000005 64.1181640625 173.70000000000005 C 59.235966430500014 173.70000000000005 55.2781640625 169.73772048 55.2781640625 164.85000000000002 Z"/></g><g><path fill="none" stroke="#000000" paint-order="fill stroke markers" d=" M 55.2781640625 164.85000000000002 C 55.2781640625 159.96227952000004 59.235966430500014 156 64.1181640625 156 C 69.00036169449999 156 72.95816406249997 159.96227952000004 72.95816406249997 164.85000000000002 C 72.95816406249997 169.73772048 69.00036169449999 173.70000000000005 64.1181640625 173.70000000000005 C 59.235966430500014 173.70000000000005 55.2781640625 169.73772048 55.2781640625 164.85000000000002 Z" stroke-miterlimit="10" stroke-dasharray=""/></g><g><path fill="none" stroke="#000000" paint-order="fill stroke markers" d=" M 64.1181640625 173.70000000000005 L 64.1181640625 191.29999999999995" stroke-miterlimit="10" stroke-dasharray=""/></g><g><path fill="none" stroke="#000000" paint-order="fill stroke markers" d=" M 54.758164062499986 180.29999999999995 L 73.47816406250001 180.29999999999995" stroke-miterlimit="10" stroke-dasharray=""/></g><g><path fill="none" stroke="#000000" paint-order="fill stroke markers" d=" M 64.1181640625 191.29999999999995 L 51.1181640625 209" stroke-miterlimit="10" stroke-dasharray=""/></g><g><path fill="none" stroke="#000000" paint-order="fill stroke markers" d=" M 64.1181640625 191.29999999999995 L 77.1181640625 209" stroke-miterlimit="10" stroke-dasharray=""/></g><g><g><path fill="none" stroke="none"/><text fill="#000000" stroke="none" font-family="Arial" font-size="13px" font-style="normal" font-weight="bold" text-decoration="undefined" x="259.6181640625" y="653.5" text-anchor="middle" dominant-baseline="central" transform="matrix(1 0 0 1 -195 -430)">Admin generico</text></g></g><g><path fill="#C0C0C0" stroke="none" paint-order="stroke fill markers" d=" M 305 204.5 C 305 189.86445279999998 360.5166848 178 429 178 C 497.4833152 178 553 189.86445279999998 553 204.5 C 553 219.13554720000002 497.4833152 231 429 231 C 360.5166848 231 305 219.13554720000002 305 204.5 Z" fill-opacity="0.2"/></g><g><path fill="#ffffff" stroke="none" paint-order="stroke fill markers" d=" M 298 197.5 C 298 182.86445279999998 353.5166848 171 422 171 C 490.4833152 171 546 182.86445279999998 546 197.5 C 546 212.13554720000002 490.4833152 224 422 224 C 353.5166848 224 298 212.13554720000002 298 197.5 Z"/></g><g><path fill="none" stroke="#000000" paint-order="fill stroke markers" d=" M 298 197.5 C 298 182.86445279999998 353.5166848 171 422 171 C 490.4833152 171 546 182.86445279999998 546 197.5 C 546 212.13554720000002 490.4833152 224 422 224 C 353.5166848 224 298 212.13554720000002 298 197.5 Z" stroke-miterlimit="10" stroke-dasharray=""/></g><g><g><path fill="none" stroke="none"/><text fill="#000000" stroke="none" font-family="Arial" font-size="13px" font-style="normal" font-weight="bold" text-decoration="undefined" x="617" y="622" text-anchor="middle" dominant-baseline="central" transform="matrix(1 0 0 1 -195 -430)">UC36 - Registrazione</text><text fill="#000000" stroke="none" font-family="Arial" font-size="13px" font-style="normal" font-weight="bold" text-decoration="undefined" x="617" y="635" text-anchor="middle" dominant-baseline="central" transform="matrix(1 0 0 1 -195 -430)">nuovo Tenant User</text></g></g><g><path fill="#C0C0C0" stroke="none" paint-order="stroke fill markers" d=" M 321 100.5 C 321 85.86445279999998 367.5623808 74 425 74 C 482.4376192 74 529 85.86445279999998 529 100.5 C 529 115.13554720000002 482.4376192 127 425 127 C 367.5623808 127 321 115.13554720000002 321 100.5 Z" fill-opacity="0.2"/></g><g><path fill="#ffffff" stroke="none" paint-order="stroke fill markers" d=" M 314 93.5 C 314 78.86445279999998 360.5623808 67 418 67 C 475.4376192 67 522 78.86445279999998 522 93.5 C 522 108.13554720000002 475.4376192 120 418 120 C 360.5623808 120 314 108.13554720000002 314 93.5 Z"/></g><g><path fill="none" stroke="#000000" paint-order="fill stroke markers" d=" M 314 93.5 C 314 78.86445279999998 360.5623808 67 418 67 C 475.4376192 67 522 78.86445279999998 522 93.5 C 522 108.13554720000002 475.4376192 120 418 120 C 360.5623808 120 314 108.13554720000002 314 93.5 Z" stroke-miterlimit="10" stroke-dasharray=""/></g><g><g><path fill="none" stroke="none"/><text fill="#000000" stroke="none" font-family="Arial" font-size="13px" font-style="normal" font-weight="bold" text-decoration="undefined" x="613" y="518" text-anchor="middle" dominant-baseline="central" transform="matrix(1 0 0 1 -195 -430)">UC35 - Email già</text><text fill="#000000" stroke="none" font-family="Arial" font-size="13px" font-style="normal" font-weight="bold" text-decoration="undefined" x="613" y="531" text-anchor="middle" dominant-baseline="central" transform="matrix(1 0 0 1 -195 -430)">utilizzata</text></g></g><g><path fill="#C0C0C0" stroke="none" paint-order="stroke fill markers" d=" M 305 292.5 C 305 277.8644528 360.7405424 266 429.5 266 C 498.2594576 266 554 277.8644528 554 292.5 C 554 307.1355472 498.2594576 319 429.5 319 C 360.7405424 319 305 307.1355472 305 292.5 Z" fill-opacity="0.2"/></g><g><path fill="#ffffff" stroke="none" paint-order="stroke fill markers" d=" M 298 285.5 C 298 270.8644528 353.7405424 259 422.5 259 C 491.2594576 259 547 270.8644528 547 285.5 C 547 300.1355472 491.2594576 312 422.5 312 C 353.7405424 312 298 300.1355472 298 285.5 Z"/></g><g><path fill="none" stroke="#000000" paint-order="fill stroke markers" d=" M 298 285.5 C 298 270.8644528 353.7405424 259 422.5 259 C 491.2594576 259 547 270.8644528 547 285.5 C 547 300.1355472 491.2594576 312 422.5 312 C 353.7405424 312 298 300.1355472 298 285.5 Z" stroke-miterlimit="10" stroke-dasharray=""/></g><g><g><path fill="none" stroke="none"/><text fill="#000000" stroke="none" font-family="Arial" font-size="13px" font-style="normal" font-weight="bold" text-decoration="undefined" x="617.5" y="710" text-anchor="middle" dominant-baseline="central" transform="matrix(1 0 0 1 -195 -430)">UC36.1 - Inserimento</text><text fill="#000000" stroke="none" font-family="Arial" font-size="13px" font-style="normal" font-weight="bold" text-decoration="undefined" x="617.5" y="723" text-anchor="middle" dominant-baseline="central" transform="matrix(1 0 0 1 -195 -430)">email</text></g></g><g><path fill="#C0C0C0" stroke="none" paint-order="stroke fill markers" d=" M 649 206 C 649 186.11774720000005 706.3075456 170 777 170 C 847.6924544000001 170 905 186.11774720000005 905 206 C 905 225.88225279999995 847.6924544000001 242 777 242 C 706.3075456 242 649 225.88225279999995 649 206 Z" fill-opacity="0.2"/></g><g><path fill="#ffffff" stroke="none" paint-order="stroke fill markers" d=" M 642 199 C 642 179.11774720000005 699.3075456 163 770 163 C 840.6924544000001 163 898 179.11774720000005 898 199 C 898 218.88225279999995 840.6924544000001 235 770 235 C 699.3075456 235 642 218.88225279999995 642 199 Z"/></g><g><path fill="none" stroke="#000000" paint-order="fill stroke markers" d=" M 642 199 C 642 179.11774720000005 699.3075456 163 770 163 C 840.6924544000001 163 898 179.11774720000005 898 199 C 898 218.88225279999995 840.6924544000001 235 770 235 C 699.3075456 235 642 218.88225279999995 642 199 Z" stroke-miterlimit="10" stroke-dasharray=""/></g><g><g><path fill="none" stroke="none"/><text fill="#000000" stroke="none" font-family="Arial" font-size="13px" font-style="normal" font-weight="bold" text-decoration="undefined" x="965" y="617" text-anchor="middle" dominant-baseline="central" transform="matrix(1 0 0 1 -195 -430)">UC36.2 - Invio email</text><text fill="#000000" stroke="none" font-family="Arial" font-size="13px" font-style="normal" font-weight="bold" text-decoration="undefined" x="965" y="630" text-anchor="middle" dominant-baseline="central" transform="matrix(1 0 0 1 -195 -430)">impostazione password al</text><text fill="#000000" stroke="none" font-family="Arial" font-size="13px" font-style="normal" font-weight="bold" text-decoration="undefined" x="965" y="643" text-anchor="middle" dominant-baseline="central" transform="matrix(1 0 0 1 -195 -430)">nuovo Tenant User</text></g></g><g><path fill="none" stroke="#000000" paint-order="fill stroke markers" d=" M 419 121 L 421 170" stroke-miterlimit="10" stroke-dasharray="3"/></g><g><path fill="none" stroke="#000000" paint-order="fill stroke markers" d=" M 416.3795263779318 160.0174540568164 L 421 170 L 424.7915576994734 159.67410583961055" stroke-miterlimit="10" stroke-dasharray=""/></g><g><rect fill="#ffffff" stroke="none" x="618" y="567" width="53.49169921875" height="13" transform="matrix(1 0 0 1 -195 -430)"/></g><g><g><path fill="none" stroke="none"/><text fill="#000000" stroke="none" font-family="Arial" font-size="13px" font-style="normal" font-weight="normal" text-decoration="undefined" x="644.745849609375" y="573.5" text-anchor="middle" dominant-baseline="central" transform="matrix(1 0 0 1 -195 -430)">«extend»</text></g></g><g><path fill="none" stroke="#000000" paint-order="fill stroke markers" d=" M 547 198 L 641 198" stroke-miterlimit="10" stroke-dasharray="3"/></g><g><path fill="none" stroke="#000000" paint-order="fill stroke markers" d=" M 630.8373251423759 202.209517756016 L 641 198 L 630.8373251423758 193.790482243984" stroke-miterlimit="10" stroke-dasharray=""/></g><g><rect fill="#ffffff" stroke="none" x="753" y="606" width="55.65625" height="13" transform="matrix(1 0 0 1 -195 -430)"/></g><g><g><path fill="none" stroke="none"/><text fill="#000000" stroke="none" font-family="Arial" font-size="13px" font-style="normal" font-weight="normal" text-decoration="undefined" x="780.828125" y="612.5" text-anchor="middle" dominant-baseline="central" transform="matrix(1 0 0 1 -195 -430)">«include»</text></g></g><g><path fill="none" stroke="#000000" paint-order="fill stroke markers" d=" M 422 225 L 422 258" stroke-miterlimit="10" stroke-dasharray="3"/></g><g><path fill="none" stroke="#000000" paint-order="fill stroke markers" d=" M 417.790482243984 247.8373251423759 L 422 258 L 426.209517756016 247.8373251423759" stroke-miterlimit="10" stroke-dasharray=""/></g><g><rect fill="#ffffff" stroke="none" x="619" y="664" width="55.65625" height="13" transform="matrix(1 0 0 1 -195 -430)"/></g><g><g><path fill="none" stroke="none"/><text fill="#000000" stroke="none" font-family="Arial" font-size="13px" font-style="normal" font-weight="normal" text-decoration="undefined" x="646.828125" y="670.5" text-anchor="middle" dominant-baseline="central" transform="matrix(1 0 0 1 -195 -430)">«include»</text></g></g><g><path fill="none" stroke="#000000" paint-order="fill stroke markers" d=" M 297 196 L 119 195" stroke-miterlimit="10" stroke-dasharray=""/></g><g><path fill="#ffffff" stroke="none" paint-order="stroke fill markers" d=" M 170 43 L 279 43 L 289 53 L 289 173 L 170 173 L 170 43"/></g><g><path fill="none" stroke="#000000" paint-order="fill stroke markers" d=" M 170 43 L 279 43 L 289 53 L 289 173 L 170 173 L 170 43 L 170 43" stroke-miterlimit="10" stroke-dasharray=""/></g><g><path fill="none" stroke="#000000" paint-order="fill stroke markers" d=" M 279 43 L 279 53 L 289 53 L 279 43" stroke-miterlimit="10" stroke-dasharray=""/></g><g><g><path fill="none" stroke="none"/><text fill="#000000" stroke="none" font-family="Arial" font-size="13px" font-style="normal" font-weight="normal" text-decoration="undefined" x="425" y="498" text-anchor="middle" dominant-baseline="text-before-edge" transform="matrix(1 0 0 1 -195 -430)">Condizione:</text></g></g><g><g><path fill="none" stroke="none"/><text fill="#000000" stroke="none" font-family="Arial" font-size="13px" font-style="normal" font-weight="normal" text-decoration="undefined" x="425" y="513" text-anchor="middle" dominant-baseline="text-before-edge" transform="matrix(1 0 0 1 -195 -430)">L'utente ha inserito</text><text fill="#000000" stroke="none" font-family="Arial" font-size="13px" font-style="normal" font-weight="normal" text-decoration="undefined" x="425" y="526" text-anchor="middle" dominant-baseline="text-before-edge" transform="matrix(1 0 0 1 -195 -430)">un'email già</text><text fill="#000000" stroke="none" font-family="Arial" font-size="13px" font-style="normal" font-weight="normal" text-decoration="undefined" x="425" y="539" text-anchor="middle" dominant-baseline="text-before-edge" transform="matrix(1 0 0 1 -195 -430)">associata ad un</text><text fill="#000000" stroke="none" font-family="Arial" font-size="13px" font-style="normal" font-weight="normal" text-decoration="undefined" x="425" y="552" text-anchor="middle" dominant-baseline="text-before-edge" transform="matrix(1 0 0 1 -195 -430)">altro account nel</text><text fill="#000000" stroke="none" font-family="Arial" font-size="13px" font-style="normal" font-weight="normal" text-decoration="undefined" x="425" y="565" text-anchor="middle" dominant-baseline="text-before-edge" transform="matrix(1 0 0 1 -195 -430)">Sistema</text></g></g><g><path fill="none" stroke="#000000" paint-order="fill stroke markers" d=" M 291 120 L 420 145" stroke-miterlimit="10" stroke-dasharray="3"/></g><g><path fill="#ffffff" stroke="none" paint-order="stroke fill markers" d=" M 1029.28451171875 163.85000000000002 C 1029.28451171875 158.96227952000004 1033.24231408675 155 1038.12451171875 155 C 1043.00670935075 155 1046.96451171875 158.96227952000004 1046.96451171875 163.85000000000002 C 1046.96451171875 168.73772048 1043.00670935075 172.70000000000005 1038.12451171875 172.70000000000005 C 1033.24231408675 172.70000000000005 1029.28451171875 168.73772048 1029.28451171875 163.85000000000002 Z"/></g><g><path fill="none" stroke="#000000" paint-order="fill stroke markers" d=" M 1029.28451171875 163.85000000000002 C 1029.28451171875 158.96227952000004 1033.24231408675 155 1038.12451171875 155 C 1043.00670935075 155 1046.96451171875 158.96227952000004 1046.96451171875 163.85000000000002 C 1046.96451171875 168.73772048 1043.00670935075 172.70000000000005 1038.12451171875 172.70000000000005 C 1033.24231408675 172.70000000000005 1029.28451171875 168.73772048 1029.28451171875 163.85000000000002 Z" stroke-miterlimit="10" stroke-dasharray=""/></g><g><path fill="none" stroke="#000000" paint-order="fill stroke markers" d=" M 1038.12451171875 172.70000000000005 L 1038.12451171875 190.29999999999995" stroke-miterlimit="10" stroke-dasharray=""/></g><g><path fill="none" stroke="#000000" paint-order="fill stroke markers" d=" M 1028.76451171875 179.29999999999995 L 1047.48451171875 179.29999999999995" stroke-miterlimit="10" stroke-dasharray=""/></g><g><path fill="none" stroke="#000000" paint-order="fill stroke markers" d=" M 1038.12451171875 190.29999999999995 L 1025.12451171875 208" stroke-miterlimit="10" stroke-dasharray=""/></g><g><path fill="none" stroke="#000000" paint-order="fill stroke markers" d=" M 1038.12451171875 190.29999999999995 L 1051.12451171875 208" stroke-miterlimit="10" stroke-dasharray=""/></g><g><g><path fill="none" stroke="none"/><text fill="#000000" stroke="none" font-family="Arial" font-size="13px" font-style="normal" font-weight="bold" text-decoration="undefined" x="1233.62451171875" y="652.5" text-anchor="middle" dominant-baseline="central" transform="matrix(1 0 0 1 -195 -430)">Email client</text></g></g><g><path fill="none" stroke="#000000" paint-order="fill stroke markers" d=" M 899 197 L 996 195" stroke-miterlimit="10" stroke-dasharray=""/></g></g></svg>