<svg version="1.1" xmlns="http://www.w3.org/2000/svg" xmlns:xlink="http://www.w3.org/1999/xlink" width="917" height="340"><defs/><g><g><rect fill="#C0C0C0" stroke="none" x="538" y="409" width="758" height="320" transform="matrix(1 0 0 1 -383 -392)" fill-opacity="0.2"/></g><g><rect fill="#ffffff" stroke="none" x="531" y="402" width="758" height="320" transform="matrix(1 0 0 1 -383 -392)"/></g><g><path fill="none" stroke="#000000" paint-order="fill stroke markers" d=" M 148 10 L 906 10 L 906 330 L 148 330 L 148 10 Z Z" stroke-miterlimit="10" stroke-dasharray=""/></g><g><g><path fill="none" stroke="none"/><text fill="#000000" stroke="none" font-family="Arial" font-size="13px" font-style="normal" font-weight="bold" text-decoration="undefined" x="910.5" y="415.5" text-anchor="middle" dominant-baseline="central" transform="matrix(1 0 0 1 -383 -392)">Sistema Cloud</text></g></g><g><path fill="#ffffff" stroke="none" paint-order="stroke fill markers" d=" M 55.278164062500025 139.85000000000002 C 55.278164062500025 134.96227952000004 59.235966430500014 131 64.1181640625 131 C 69.00036169449999 131 72.95816406249997 134.96227952000004 72.95816406249997 139.85000000000002 C 72.95816406249997 144.73772048 69.00036169449999 148.70000000000005 64.1181640625 148.70000000000005 C 59.235966430500014 148.70000000000005 55.278164062500025 144.73772048 55.278164062500025 139.85000000000002 Z"/></g><g><path fill="none" stroke="#000000" paint-order="fill stroke markers" d=" M 55.278164062500025 139.85000000000002 C 55.278164062500025 134.96227952000004 59.235966430500014 131 64.1181640625 131 C 69.00036169449999 131 72.95816406249997 134.96227952000004 72.95816406249997 139.85000000000002 C 72.95816406249997 144.73772048 69.00036169449999 148.70000000000005 64.1181640625 148.70000000000005 C 59.235966430500014 148.70000000000005 55.278164062500025 144.73772048 55.278164062500025 139.85000000000002 Z" stroke-miterlimit="10" stroke-dasharray=""/></g><g><path fill="none" stroke="#000000" paint-order="fill stroke markers" d=" M 64.1181640625 148.70000000000005 L 64.1181640625 166.29999999999995" stroke-miterlimit="10" stroke-dasharray=""/></g><g><path fill="none" stroke="#000000" paint-order="fill stroke markers" d=" M 54.758164062499986 155.29999999999995 L 73.47816406250001 155.29999999999995" stroke-miterlimit="10" stroke-dasharray=""/></g><g><path fill="none" stroke="#000000" paint-order="fill stroke markers" d=" M 64.1181640625 166.29999999999995 L 51.1181640625 184" stroke-miterlimit="10" stroke-dasharray=""/></g><g><path fill="none" stroke="#000000" paint-order="fill stroke markers" d=" M 64.1181640625 166.29999999999995 L 77.1181640625 184" stroke-miterlimit="10" stroke-dasharray=""/></g><g><g><path fill="none" stroke="none"/><text fill="#000000" stroke="none" font-family="Arial" font-size="13px" font-style="normal" font-weight="bold" text-decoration="undefined" x="447.6181640625" y="590.5" text-anchor="middle" dominant-baseline="central" transform="matrix(1 0 0 1 -383 -392)">Admin generico</text></g></g><g><path fill="#C0C0C0" stroke="none" paint-order="stroke fill markers" d=" M 305 179.5 C 305 164.86445279999998 360.5166848 153 429 153 C 497.4833152 153 553 164.86445279999998 553 179.5 C 553 194.13554720000002 497.4833152 206 429 206 C 360.5166848 206 305 194.13554720000002 305 179.5 Z" fill-opacity="0.2"/></g><g><path fill="#ffffff" stroke="none" paint-order="stroke fill markers" d=" M 298 172.5 C 298 157.86445279999998 353.5166848 146 422 146 C 490.4833152 146 546 157.86445279999998 546 172.5 C 546 187.13554720000002 490.4833152 199 422 199 C 353.5166848 199 298 187.13554720000002 298 172.5 Z"/></g><g><path fill="none" stroke="#000000" paint-order="fill stroke markers" d=" M 298 172.5 C 298 157.86445279999998 353.5166848 146 422 146 C 490.4833152 146 546 157.86445279999998 546 172.5 C 546 187.13554720000002 490.4833152 199 422 199 C 353.5166848 199 298 187.13554720000002 298 172.5 Z" stroke-miterlimit="10" stroke-dasharray=""/></g><g><g><path fill="none" stroke="none"/><text fill="#000000" stroke="none" font-family="Arial" font-size="13px" font-style="normal" font-weight="bold" text-decoration="undefined" x="805" y="559" text-anchor="middle" dominant-baseline="central" transform="matrix(1 0 0 1 -383 -392)">UC36 - Registrazione</text><text fill="#000000" stroke="none" font-family="Arial" font-size="13px" font-style="normal" font-weight="bold" text-decoration="undefined" x="805" y="572" text-anchor="middle" dominant-baseline="central" transform="matrix(1 0 0 1 -383 -392)">nuovo Tenant User</text></g></g><g><path fill="#C0C0C0" stroke="none" paint-order="stroke fill markers" d=" M 321 75.5 C 321 60.86445279999998 367.5623808 49 425 49 C 482.4376192 49 529 60.86445279999998 529 75.5 C 529 90.13554720000002 482.4376192 102 425 102 C 367.5623808 102 321 90.13554720000002 321 75.5 Z" fill-opacity="0.2"/></g><g><path fill="#ffffff" stroke="none" paint-order="stroke fill markers" d=" M 314 68.5 C 314 53.86445279999998 360.5623808 42 418 42 C 475.4376192 42 522 53.86445279999998 522 68.5 C 522 83.13554720000002 475.4376192 95 418 95 C 360.5623808 95 314 83.13554720000002 314 68.5 Z"/></g><g><path fill="none" stroke="#000000" paint-order="fill stroke markers" d=" M 314 68.5 C 314 53.86445279999998 360.5623808 42 418 42 C 475.4376192 42 522 53.86445279999998 522 68.5 C 522 83.13554720000002 475.4376192 95 418 95 C 360.5623808 95 314 83.13554720000002 314 68.5 Z" stroke-miterlimit="10" stroke-dasharray=""/></g><g><g><path fill="none" stroke="none"/><text fill="#000000" stroke="none" font-family="Arial" font-size="13px" font-style="normal" font-weight="bold" text-decoration="undefined" x="801" y="455" text-anchor="middle" dominant-baseline="central" transform="matrix(1 0 0 1 -383 -392)">UC35 - Email già</text><text fill="#000000" stroke="none" font-family="Arial" font-size="13px" font-style="normal" font-weight="bold" text-decoration="undefined" x="801" y="468" text-anchor="middle" dominant-baseline="central" transform="matrix(1 0 0 1 -383 -392)">utilizzata</text></g></g><g><path fill="#C0C0C0" stroke="none" paint-order="stroke fill markers" d=" M 305 267.5 C 305 252.86445279999998 360.7405424 241 429.5 241 C 498.2594576 241 554 252.86445279999998 554 267.5 C 554 282.1355472 498.2594576 294 429.5 294 C 360.7405424 294 305 282.1355472 305 267.5 Z" fill-opacity="0.2"/></g><g><path fill="#ffffff" stroke="none" paint-order="stroke fill markers" d=" M 298 260.5 C 298 245.86445279999998 353.7405424 234 422.5 234 C 491.2594576 234 547 245.86445279999998 547 260.5 C 547 275.1355472 491.2594576 287 422.5 287 C 353.7405424 287 298 275.1355472 298 260.5 Z"/></g><g><path fill="none" stroke="#000000" paint-order="fill stroke markers" d=" M 298 260.5 C 298 245.86445279999998 353.7405424 234 422.5 234 C 491.2594576 234 547 245.86445279999998 547 260.5 C 547 275.1355472 491.2594576 287 422.5 287 C 353.7405424 287 298 275.1355472 298 260.5 Z" stroke-miterlimit="10" stroke-dasharray=""/></g><g><g><path fill="none" stroke="none"/><text fill="#000000" stroke="none" font-family="Arial" font-size="13px" font-style="normal" font-weight="bold" text-decoration="undefined" x="805.5" y="647" text-anchor="middle" dominant-baseline="central" transform="matrix(1 0 0 1 -383 -392)">UC36.1 - Inserimento</text><text fill="#000000" stroke="none" font-family="Arial" font-size="13px" font-style="normal" font-weight="bold" text-decoration="undefined" x="805.5" y="660" text-anchor="middle" dominant-baseline="central" transform="matrix(1 0 0 1 -383 -392)">email</text></g></g><g><path fill="#C0C0C0" stroke="none" paint-order="stroke fill markers" d=" M 649 181 C 649 161.11774720000005 706.3075455999999 145 777 145 C 847.6924544000001 145 905 161.11774720000005 905 181 C 905 200.88225279999995 847.6924544000001 217 777 217 C 706.3075455999999 217 649 200.88225279999995 649 181 Z" fill-opacity="0.2"/></g><g><path fill="#ffffff" stroke="none" paint-order="stroke fill markers" d=" M 642 174 C 642 154.11774720000005 699.3075455999999 138 770 138 C 840.6924544000001 138 898 154.11774720000005 898 174 C 898 193.88225279999995 840.6924544000001 210 770 210 C 699.3075455999999 210 642 193.88225279999995 642 174 Z"/></g><g><path fill="none" stroke="#000000" paint-order="fill stroke markers" d=" M 642 174 C 642 154.11774720000005 699.3075455999999 138 770 138 C 840.6924544000001 138 898 154.11774720000005 898 174 C 898 193.88225279999995 840.6924544000001 210 770 210 C 699.3075455999999 210 642 193.88225279999995 642 174 Z" stroke-miterlimit="10" stroke-dasharray=""/></g><g><g><path fill="none" stroke="none"/><text fill="#000000" stroke="none" font-family="Arial" font-size="13px" font-style="normal" font-weight="bold" text-decoration="undefined" x="1153" y="554" text-anchor="middle" dominant-baseline="central" transform="matrix(1 0 0 1 -383 -392)">UC36.2 - Invio email</text><text fill="#000000" stroke="none" font-family="Arial" font-size="13px" font-style="normal" font-weight="bold" text-decoration="undefined" x="1153" y="567" text-anchor="middle" dominant-baseline="central" transform="matrix(1 0 0 1 -383 -392)">impostazione password al</text><text fill="#000000" stroke="none" font-family="Arial" font-size="13px" font-style="normal" font-weight="bold" text-decoration="undefined" x="1153" y="580" text-anchor="middle" dominant-baseline="central" transform="matrix(1 0 0 1 -383 -392)">nuovo Tenant User</text></g></g><g><path fill="none" stroke="#000000" paint-order="fill stroke markers" d=" M 419 96 L 421 145" stroke-miterlimit="10" stroke-dasharray="3"/></g><g><path fill="none" stroke="#000000" paint-order="fill stroke markers" d=" M 416.3795263779318 135.0174540568164 L 421 145 L 424.7915576994734 134.67410583961055" stroke-miterlimit="10" stroke-dasharray=""/></g><g><rect fill="#ffffff" stroke="none" x="806" y="504" width="53.49169921875" height="13" transform="matrix(1 0 0 1 -383 -392)"/></g><g><g><path fill="none" stroke="none"/><text fill="#000000" stroke="none" font-family="Arial" font-size="13px" font-style="normal" font-weight="normal" text-decoration="undefined" x="832.745849609375" y="510.5" text-anchor="middle" dominant-baseline="central" transform="matrix(1 0 0 1 -383 -392)">«extend»</text></g></g><g><path fill="none" stroke="#000000" paint-order="fill stroke markers" d=" M 547 173 L 641 173" stroke-miterlimit="10" stroke-dasharray="3"/></g><g><path fill="none" stroke="#000000" paint-order="fill stroke markers" d=" M 630.8373251423759 177.209517756016 L 641 173 L 630.8373251423758 168.790482243984" stroke-miterlimit="10" stroke-dasharray=""/></g><g><rect fill="#ffffff" stroke="none" x="941" y="543" width="55.65625" height="13" transform="matrix(1 0 0 1 -383 -392)"/></g><g><g><path fill="none" stroke="none"/><text fill="#000000" stroke="none" font-family="Arial" font-size="13px" font-style="normal" font-weight="normal" text-decoration="undefined" x="968.828125" y="549.5" text-anchor="middle" dominant-baseline="central" transform="matrix(1 0 0 1 -383 -392)">«include»</text></g></g><g><path fill="none" stroke="#000000" paint-order="fill stroke markers" d=" M 422 200 L 422 233" stroke-miterlimit="10" stroke-dasharray="3"/></g><g><path fill="none" stroke="#000000" paint-order="fill stroke markers" d=" M 417.790482243984 222.8373251423759 L 422 233 L 426.209517756016 222.8373251423759" stroke-miterlimit="10" stroke-dasharray=""/></g><g><rect fill="#ffffff" stroke="none" x="807" y="601" width="55.65625" height="13" transform="matrix(1 0 0 1 -383 -392)"/></g><g><g><path fill="none" stroke="none"/><text fill="#000000" stroke="none" font-family="Arial" font-size="13px" font-style="normal" font-weight="normal" text-decoration="undefined" x="834.828125" y="607.5" text-anchor="middle" dominant-baseline="central" transform="matrix(1 0 0 1 -383 -392)">«include»</text></g></g><g><path fill="none" stroke="#000000" paint-order="fill stroke markers" d=" M 297 171 L 119 170" stroke-miterlimit="10" stroke-dasharray=""/></g><g><path fill="#ffffff" stroke="none" paint-order="stroke fill markers" d=" M 170 18 L 279 18 L 289 28 L 289 148 L 170 148 L 170 18"/></g><g><path fill="none" stroke="#000000" paint-order="fill stroke markers" d=" M 170 18 L 279 18 L 289 28 L 289 148 L 170 148 L 170 18 L 170 18" stroke-miterlimit="10" stroke-dasharray=""/></g><g><path fill="none" stroke="#000000" paint-order="fill stroke markers" d=" M 279 18 L 279 28 L 289 28 L 279 18" stroke-miterlimit="10" stroke-dasharray=""/></g><g><g><path fill="none" stroke="none"/><text fill="#000000" stroke="none" font-family="Arial" font-size="13px" font-style="normal" font-weight="normal" text-decoration="undefined" x="613" y="435" text-anchor="middle" dominant-baseline="text-before-edge" transform="matrix(1 0 0 1 -383 -392)">Condizione:</text></g></g><g><g><path fill="none" stroke="none"/><text fill="#000000" stroke="none" font-family="Arial" font-size="13px" font-style="normal" font-weight="normal" text-decoration="undefined" x="613" y="450" text-anchor="middle" dominant-baseline="text-before-edge" transform="matrix(1 0 0 1 -383 -392)">L'utente ha inserito</text><text fill="#000000" stroke="none" font-family="Arial" font-size="13px" font-style="normal" font-weight="normal" text-decoration="undefined" x="613" y="463" text-anchor="middle" dominant-baseline="text-before-edge" transform="matrix(1 0 0 1 -383 -392)">un'email già</text><text fill="#000000" stroke="none" font-family="Arial" font-size="13px" font-style="normal" font-weight="normal" text-decoration="undefined" x="613" y="476" text-anchor="middle" dominant-baseline="text-before-edge" transform="matrix(1 0 0 1 -383 -392)">associata ad un</text><text fill="#000000" stroke="none" font-family="Arial" font-size="13px" font-style="normal" font-weight="normal" text-decoration="undefined" x="613" y="489" text-anchor="middle" dominant-baseline="text-before-edge" transform="matrix(1 0 0 1 -383 -392)">altro account nel</text><text fill="#000000" stroke="none" font-family="Arial" font-size="13px" font-style="normal" font-weight="normal" text-decoration="undefined" x="613" y="502" text-anchor="middle" dominant-baseline="text-before-edge" transform="matrix(1 0 0 1 -383 -392)">Sistema</text></g></g><g><path fill="none" stroke="#000000" paint-order="fill stroke markers" d=" M 291 95 L 420 120" stroke-miterlimit="10" stroke-dasharray="3"/></g></g></svg>