<svg version="1.1" xmlns="http://www.w3.org/2000/svg" xmlns:xlink="http://www.w3.org/1999/xlink" width="584" height="356"><defs/><g><g><rect fill="#C0C0C0" stroke="none" x="343" y="439" width="432" height="336" transform="matrix(1 0 0 1 -195 -422)" fill-opacity="0.2"/></g><g><rect fill="#ffffff" stroke="none" x="336" y="432" width="432" height="336" transform="matrix(1 0 0 1 -195 -422)"/></g><g><path fill="none" stroke="#000000" paint-order="fill stroke markers" d=" M 141 10 L 573 10 L 573 346 L 141 346 L 141 10 Z Z" stroke-miterlimit="10" stroke-dasharray=""/></g><g><g><path fill="none" stroke="none"/><text fill="#000000" stroke="none" font-family="Arial" font-size="13px" font-style="normal" font-weight="bold" text-decoration="undefined" x="552.5" y="445.5" text-anchor="middle" dominant-baseline="central" transform="matrix(1 0 0 1 -195 -422)">Sistema Cloud</text></g></g><g><path fill="#ffffff" stroke="none" paint-order="stroke fill markers" d=" M 55.2781640625 172.85000000000002 C 55.2781640625 167.96227952000004 59.235966430500014 164 64.1181640625 164 C 69.00036169449999 164 72.95816406249997 167.96227952000004 72.95816406249997 172.85000000000002 C 72.95816406249997 177.73772048 69.00036169449999 181.70000000000005 64.1181640625 181.70000000000005 C 59.235966430500014 181.70000000000005 55.2781640625 177.73772048 55.2781640625 172.85000000000002 Z"/></g><g><path fill="none" stroke="#000000" paint-order="fill stroke markers" d=" M 55.2781640625 172.85000000000002 C 55.2781640625 167.96227952000004 59.235966430500014 164 64.1181640625 164 C 69.00036169449999 164 72.95816406249997 167.96227952000004 72.95816406249997 172.85000000000002 C 72.95816406249997 177.73772048 69.00036169449999 181.70000000000005 64.1181640625 181.70000000000005 C 59.235966430500014 181.70000000000005 55.2781640625 177.73772048 55.2781640625 172.85000000000002 Z" stroke-miterlimit="10" stroke-dasharray=""/></g><g><path fill="none" stroke="#000000" paint-order="fill stroke markers" d=" M 64.1181640625 181.70000000000005 L 64.1181640625 199.29999999999995" stroke-miterlimit="10" stroke-dasharray=""/></g><g><path fill="none" stroke="#000000" paint-order="fill stroke markers" d=" M 54.758164062499986 188.29999999999995 L 73.47816406250001 188.29999999999995" stroke-miterlimit="10" stroke-dasharray=""/></g><g><path fill="none" stroke="#000000" paint-order="fill stroke markers" d=" M 64.1181640625 199.29999999999995 L 51.1181640625 217" stroke-miterlimit="10" stroke-dasharray=""/></g><g><path fill="none" stroke="#000000" paint-order="fill stroke markers" d=" M 64.1181640625 199.29999999999995 L 77.1181640625 217" stroke-miterlimit="10" stroke-dasharray=""/></g><g><g><path fill="none" stroke="none"/><text fill="#000000" stroke="none" font-family="Arial" font-size="13px" font-style="normal" font-weight="bold" text-decoration="undefined" x="259.6181640625" y="653.5" text-anchor="middle" dominant-baseline="central" transform="matrix(1 0 0 1 -195 -422)">Admin generico</text></g></g><g><path fill="#C0C0C0" stroke="none" paint-order="stroke fill markers" d=" M 305 212.5 C 305 197.86445279999998 360.5166848 186 429 186 C 497.4833152 186 553 197.86445279999998 553 212.5 C 553 227.13554720000002 497.4833152 239 429 239 C 360.5166848 239 305 227.13554720000002 305 212.5 Z" fill-opacity="0.2"/></g><g><path fill="#ffffff" stroke="none" paint-order="stroke fill markers" d=" M 298 205.5 C 298 190.86445279999998 353.5166848 179 422 179 C 490.4833152 179 546 190.86445279999998 546 205.5 C 546 220.13554720000002 490.4833152 232 422 232 C 353.5166848 232 298 220.13554720000002 298 205.5 Z"/></g><g><path fill="none" stroke="#000000" paint-order="fill stroke markers" d=" M 298 205.5 C 298 190.86445279999998 353.5166848 179 422 179 C 490.4833152 179 546 190.86445279999998 546 205.5 C 546 220.13554720000002 490.4833152 232 422 232 C 353.5166848 232 298 220.13554720000002 298 205.5 Z" stroke-miterlimit="10" stroke-dasharray=""/></g><g><g><path fill="none" stroke="none"/><text fill="#000000" stroke="none" font-family="Arial" font-size="13px" font-style="normal" font-weight="bold" text-decoration="undefined" x="617" y="622" text-anchor="middle" dominant-baseline="central" transform="matrix(1 0 0 1 -195 -422)">UC36 - Registrazione</text><text fill="#000000" stroke="none" font-family="Arial" font-size="13px" font-style="normal" font-weight="bold" text-decoration="undefined" x="617" y="635" text-anchor="middle" dominant-baseline="central" transform="matrix(1 0 0 1 -195 -422)">nuovo Tenant User</text></g></g><g><path fill="#C0C0C0" stroke="none" paint-order="stroke fill markers" d=" M 321 108.5 C 321 93.86445279999998 367.5623808 82 425 82 C 482.4376192 82 529 93.86445279999998 529 108.5 C 529 123.13554720000002 482.4376192 135 425 135 C 367.5623808 135 321 123.13554720000002 321 108.5 Z" fill-opacity="0.2"/></g><g><path fill="#ffffff" stroke="none" paint-order="stroke fill markers" d=" M 314 101.5 C 314 86.86445279999998 360.5623808 75 418 75 C 475.4376192 75 522 86.86445279999998 522 101.5 C 522 116.13554720000002 475.4376192 128 418 128 C 360.5623808 128 314 116.13554720000002 314 101.5 Z"/></g><g><path fill="none" stroke="#000000" paint-order="fill stroke markers" d=" M 314 101.5 C 314 86.86445279999998 360.5623808 75 418 75 C 475.4376192 75 522 86.86445279999998 522 101.5 C 522 116.13554720000002 475.4376192 128 418 128 C 360.5623808 128 314 116.13554720000002 314 101.5 Z" stroke-miterlimit="10" stroke-dasharray=""/></g><g><g><path fill="none" stroke="none"/><text fill="#000000" stroke="none" font-family="Arial" font-size="13px" font-style="normal" font-weight="bold" text-decoration="undefined" x="613" y="518" text-anchor="middle" dominant-baseline="central" transform="matrix(1 0 0 1 -195 -422)">UC35 - Email già</text><text fill="#000000" stroke="none" font-family="Arial" font-size="13px" font-style="normal" font-weight="bold" text-decoration="undefined" x="613" y="531" text-anchor="middle" dominant-baseline="central" transform="matrix(1 0 0 1 -195 -422)">utilizzata</text></g></g><g><path fill="#C0C0C0" stroke="none" paint-order="stroke fill markers" d=" M 305 300.5 C 305 285.8644528 360.7405424 274 429.5 274 C 498.2594576 274 554 285.8644528 554 300.5 C 554 315.1355472 498.2594576 327 429.5 327 C 360.7405424 327 305 315.1355472 305 300.5 Z" fill-opacity="0.2"/></g><g><path fill="#ffffff" stroke="none" paint-order="stroke fill markers" d=" M 298 293.5 C 298 278.8644528 353.7405424 267 422.5 267 C 491.2594576 267 547 278.8644528 547 293.5 C 547 308.1355472 491.2594576 320 422.5 320 C 353.7405424 320 298 308.1355472 298 293.5 Z"/></g><g><path fill="none" stroke="#000000" paint-order="fill stroke markers" d=" M 298 293.5 C 298 278.8644528 353.7405424 267 422.5 267 C 491.2594576 267 547 278.8644528 547 293.5 C 547 308.1355472 491.2594576 320 422.5 320 C 353.7405424 320 298 308.1355472 298 293.5 Z" stroke-miterlimit="10" stroke-dasharray=""/></g><g><g><path fill="none" stroke="none"/><text fill="#000000" stroke="none" font-family="Arial" font-size="13px" font-style="normal" font-weight="bold" text-decoration="undefined" x="617.5" y="710" text-anchor="middle" dominant-baseline="central" transform="matrix(1 0 0 1 -195 -422)">UC36.1 - Inserimento</text><text fill="#000000" stroke="none" font-family="Arial" font-size="13px" font-style="normal" font-weight="bold" text-decoration="undefined" x="617.5" y="723" text-anchor="middle" dominant-baseline="central" transform="matrix(1 0 0 1 -195 -422)">email</text></g></g><g><path fill="none" stroke="#000000" paint-order="fill stroke markers" d=" M 419 129 L 421 178" stroke-miterlimit="10" stroke-dasharray="3"/></g><g><path fill="none" stroke="#000000" paint-order="fill stroke markers" d=" M 416.3795263779318 168.0174540568164 L 421 178 L 424.7915576994734 167.67410583961055" stroke-miterlimit="10" stroke-dasharray=""/></g><g><rect fill="#ffffff" stroke="none" x="618" y="567" width="53.49169921875" height="13" transform="matrix(1 0 0 1 -195 -422)"/></g><g><g><path fill="none" stroke="none"/><text fill="#000000" stroke="none" font-family="Arial" font-size="13px" font-style="normal" font-weight="normal" text-decoration="undefined" x="644.745849609375" y="573.5" text-anchor="middle" dominant-baseline="central" transform="matrix(1 0 0 1 -195 -422)">«extend»</text></g></g><g><path fill="none" stroke="#000000" paint-order="fill stroke markers" d=" M 422 233 L 422 266" stroke-miterlimit="10" stroke-dasharray="3"/></g><g><path fill="none" stroke="#000000" paint-order="fill stroke markers" d=" M 417.790482243984 255.8373251423759 L 422 266 L 426.209517756016 255.8373251423759" stroke-miterlimit="10" stroke-dasharray=""/></g><g><rect fill="#ffffff" stroke="none" x="619" y="664" width="55.65625" height="13" transform="matrix(1 0 0 1 -195 -422)"/></g><g><g><path fill="none" stroke="none"/><text fill="#000000" stroke="none" font-family="Arial" font-size="13px" font-style="normal" font-weight="normal" text-decoration="undefined" x="646.828125" y="670.5" text-anchor="middle" dominant-baseline="central" transform="matrix(1 0 0 1 -195 -422)">«include»</text></g></g><g><path fill="none" stroke="#000000" paint-order="fill stroke markers" d=" M 297 204 L 119 203" stroke-miterlimit="10" stroke-dasharray=""/></g><g><path fill="#ffffff" stroke="none" paint-order="stroke fill markers" d=" M 170 51 L 279 51 L 289 61 L 289 181 L 170 181 L 170 51"/></g><g><path fill="none" stroke="#000000" paint-order="fill stroke markers" d=" M 170 51 L 279 51 L 289 61 L 289 181 L 170 181 L 170 51 L 170 51" stroke-miterlimit="10" stroke-dasharray=""/></g><g><path fill="none" stroke="#000000" paint-order="fill stroke markers" d=" M 279 51 L 279 61 L 289 61 L 279 51" stroke-miterlimit="10" stroke-dasharray=""/></g><g><g><path fill="none" stroke="none"/><text fill="#000000" stroke="none" font-family="Arial" font-size="13px" font-style="normal" font-weight="normal" text-decoration="undefined" x="425" y="498" text-anchor="middle" dominant-baseline="text-before-edge" transform="matrix(1 0 0 1 -195 -422)">Condizione:</text></g></g><g><g><path fill="none" stroke="none"/><text fill="#000000" stroke="none" font-family="Arial" font-size="13px" font-style="normal" font-weight="normal" text-decoration="undefined" x="425" y="513" text-anchor="middle" dominant-baseline="text-before-edge" transform="matrix(1 0 0 1 -195 -422)">L'utente ha inserito</text><text fill="#000000" stroke="none" font-family="Arial" font-size="13px" font-style="normal" font-weight="normal" text-decoration="undefined" x="425" y="526" text-anchor="middle" dominant-baseline="text-before-edge" transform="matrix(1 0 0 1 -195 -422)">un'email già</text><text fill="#000000" stroke="none" font-family="Arial" font-size="13px" font-style="normal" font-weight="normal" text-decoration="undefined" x="425" y="539" text-anchor="middle" dominant-baseline="text-before-edge" transform="matrix(1 0 0 1 -195 -422)">associata ad un</text><text fill="#000000" stroke="none" font-family="Arial" font-size="13px" font-style="normal" font-weight="normal" text-decoration="undefined" x="425" y="552" text-anchor="middle" dominant-baseline="text-before-edge" transform="matrix(1 0 0 1 -195 -422)">altro account nel</text><text fill="#000000" stroke="none" font-family="Arial" font-size="13px" font-style="normal" font-weight="normal" text-decoration="undefined" x="425" y="565" text-anchor="middle" dominant-baseline="text-before-edge" transform="matrix(1 0 0 1 -195 -422)">Sistema</text></g></g><g><path fill="none" stroke="#000000" paint-order="fill stroke markers" d=" M 291 128 L 420 153" stroke-miterlimit="10" stroke-dasharray="3"/></g></g></svg>