<svg version="1.1" xmlns="http://www.w3.org/2000/svg" xmlns:xlink="http://www.w3.org/1999/xlink" width="908" height="289"><defs/><g><g><path fill="#ffffff" stroke="none" paint-order="stroke fill markers" d=" M 55.2781640625 131.85000000000002 C 55.2781640625 126.96227952000004 59.235966430500014 123 64.1181640625 123 C 69.00036169449999 123 72.95816406249997 126.96227952000004 72.95816406249997 131.85000000000002 C 72.95816406249997 136.73772048 69.00036169449999 140.70000000000005 64.1181640625 140.70000000000005 C 59.235966430500014 140.70000000000005 55.2781640625 136.73772048 55.2781640625 131.85000000000002 Z"/></g><g><path fill="none" stroke="#000000" paint-order="fill stroke markers" d=" M 55.2781640625 131.85000000000002 C 55.2781640625 126.96227952000004 59.235966430500014 123 64.1181640625 123 C 69.00036169449999 123 72.95816406249997 126.96227952000004 72.95816406249997 131.85000000000002 C 72.95816406249997 136.73772048 69.00036169449999 140.70000000000005 64.1181640625 140.70000000000005 C 59.235966430500014 140.70000000000005 55.2781640625 136.73772048 55.2781640625 131.85000000000002 Z" stroke-miterlimit="10" stroke-dasharray=""/></g><g><path fill="none" stroke="#000000" paint-order="fill stroke markers" d=" M 64.1181640625 140.70000000000005 L 64.1181640625 158.29999999999995" stroke-miterlimit="10" stroke-dasharray=""/></g><g><path fill="none" stroke="#000000" paint-order="fill stroke markers" d=" M 54.758164062499986 147.29999999999995 L 73.47816406250001 147.29999999999995" stroke-miterlimit="10" stroke-dasharray=""/></g><g><path fill="none" stroke="#000000" paint-order="fill stroke markers" d=" M 64.1181640625 158.29999999999995 L 51.1181640625 176" stroke-miterlimit="10" stroke-dasharray=""/></g><g><path fill="none" stroke="#000000" paint-order="fill stroke markers" d=" M 64.1181640625 158.29999999999995 L 77.1181640625 176" stroke-miterlimit="10" stroke-dasharray=""/></g><g><g><path fill="none" stroke="none"/><text fill="#000000" stroke="none" font-family="Arial" font-size="13px" font-style="normal" font-weight="bold" text-decoration="undefined" x="259.6181640625" y="653.5" text-anchor="middle" dominant-baseline="central" transform="matrix(1 0 0 1 -195 -463)">Admin generico</text></g></g><g><path fill="#C0C0C0" stroke="none" paint-order="stroke fill markers" d=" M 305 171.5 C 305 156.86445279999998 360.5166848 145 429 145 C 497.4833152 145 553 156.86445279999998 553 171.5 C 553 186.13554720000002 497.4833152 198 429 198 C 360.5166848 198 305 186.13554720000002 305 171.5 Z" fill-opacity="0.2"/></g><g><path fill="#ffffff" stroke="none" paint-order="stroke fill markers" d=" M 298 164.5 C 298 149.86445279999998 353.5166848 138 422 138 C 490.4833152 138 546 149.86445279999998 546 164.5 C 546 179.13554720000002 490.4833152 191 422 191 C 353.5166848 191 298 179.13554720000002 298 164.5 Z"/></g><g><path fill="none" stroke="#000000" paint-order="fill stroke markers" d=" M 298 164.5 C 298 149.86445279999998 353.5166848 138 422 138 C 490.4833152 138 546 149.86445279999998 546 164.5 C 546 179.13554720000002 490.4833152 191 422 191 C 353.5166848 191 298 179.13554720000002 298 164.5 Z" stroke-miterlimit="10" stroke-dasharray=""/></g><g><g><path fill="none" stroke="none"/><text fill="#000000" stroke="none" font-family="Arial" font-size="13px" font-style="normal" font-weight="bold" text-decoration="undefined" x="617" y="622" text-anchor="middle" dominant-baseline="central" transform="matrix(1 0 0 1 -195 -463)">UC36 - Registrazione</text><text fill="#000000" stroke="none" font-family="Arial" font-size="13px" font-style="normal" font-weight="bold" text-decoration="undefined" x="617" y="635" text-anchor="middle" dominant-baseline="central" transform="matrix(1 0 0 1 -195 -463)">nuovo Tenant User</text></g></g><g><path fill="#C0C0C0" stroke="none" paint-order="stroke fill markers" d=" M 321 67.5 C 321 52.86445279999998 367.5623808 41 425 41 C 482.4376192 41 529 52.86445279999998 529 67.5 C 529 82.13554720000002 482.4376192 94 425 94 C 367.5623808 94 321 82.13554720000002 321 67.5 Z" fill-opacity="0.2"/></g><g><path fill="#ffffff" stroke="none" paint-order="stroke fill markers" d=" M 314 60.5 C 314 45.86445279999998 360.5623808 34 418 34 C 475.4376192 34 522 45.86445279999998 522 60.5 C 522 75.13554720000002 475.4376192 87 418 87 C 360.5623808 87 314 75.13554720000002 314 60.5 Z"/></g><g><path fill="none" stroke="#000000" paint-order="fill stroke markers" d=" M 314 60.5 C 314 45.86445279999998 360.5623808 34 418 34 C 475.4376192 34 522 45.86445279999998 522 60.5 C 522 75.13554720000002 475.4376192 87 418 87 C 360.5623808 87 314 75.13554720000002 314 60.5 Z" stroke-miterlimit="10" stroke-dasharray=""/></g><g><g><path fill="none" stroke="none"/><text fill="#000000" stroke="none" font-family="Arial" font-size="13px" font-style="normal" font-weight="bold" text-decoration="undefined" x="613" y="518" text-anchor="middle" dominant-baseline="central" transform="matrix(1 0 0 1 -195 -463)">UC35 - Email già</text><text fill="#000000" stroke="none" font-family="Arial" font-size="13px" font-style="normal" font-weight="bold" text-decoration="undefined" x="613" y="531" text-anchor="middle" dominant-baseline="central" transform="matrix(1 0 0 1 -195 -463)">utilizzata</text></g></g><g><path fill="#C0C0C0" stroke="none" paint-order="stroke fill markers" d=" M 305 259.5 C 305 244.86445279999998 360.7405424 233 429.5 233 C 498.2594576 233 554 244.86445279999998 554 259.5 C 554 274.1355472 498.2594576 286 429.5 286 C 360.7405424 286 305 274.1355472 305 259.5 Z" fill-opacity="0.2"/></g><g><path fill="#ffffff" stroke="none" paint-order="stroke fill markers" d=" M 298 252.5 C 298 237.86445279999998 353.7405424 226 422.5 226 C 491.2594576 226 547 237.86445279999998 547 252.5 C 547 267.1355472 491.2594576 279 422.5 279 C 353.7405424 279 298 267.1355472 298 252.5 Z"/></g><g><path fill="none" stroke="#000000" paint-order="fill stroke markers" d=" M 298 252.5 C 298 237.86445279999998 353.7405424 226 422.5 226 C 491.2594576 226 547 237.86445279999998 547 252.5 C 547 267.1355472 491.2594576 279 422.5 279 C 353.7405424 279 298 267.1355472 298 252.5 Z" stroke-miterlimit="10" stroke-dasharray=""/></g><g><g><path fill="none" stroke="none"/><text fill="#000000" stroke="none" font-family="Arial" font-size="13px" font-style="normal" font-weight="bold" text-decoration="undefined" x="617.5" y="710" text-anchor="middle" dominant-baseline="central" transform="matrix(1 0 0 1 -195 -463)">UC36.1 - Inserimento</text><text fill="#000000" stroke="none" font-family="Arial" font-size="13px" font-style="normal" font-weight="bold" text-decoration="undefined" x="617.5" y="723" text-anchor="middle" dominant-baseline="central" transform="matrix(1 0 0 1 -195 -463)">email</text></g></g><g><path fill="#C0C0C0" stroke="none" paint-order="stroke fill markers" d=" M 649 173 C 649 153.11774720000005 706.3075456 137 777 137 C 847.6924544000001 137 905 153.11774720000005 905 173 C 905 192.88225279999995 847.6924544000001 209 777 209 C 706.3075456 209 649 192.88225279999995 649 173 Z" fill-opacity="0.2"/></g><g><path fill="#ffffff" stroke="none" paint-order="stroke fill markers" d=" M 642 166 C 642 146.11774720000005 699.3075456 130 770 130 C 840.6924544000001 130 898 146.11774720000005 898 166 C 898 185.88225279999995 840.6924544000001 202 770 202 C 699.3075456 202 642 185.88225279999995 642 166 Z"/></g><g><path fill="none" stroke="#000000" paint-order="fill stroke markers" d=" M 642 166 C 642 146.11774720000005 699.3075456 130 770 130 C 840.6924544000001 130 898 146.11774720000005 898 166 C 898 185.88225279999995 840.6924544000001 202 770 202 C 699.3075456 202 642 185.88225279999995 642 166 Z" stroke-miterlimit="10" stroke-dasharray=""/></g><g><g><path fill="none" stroke="none"/><text fill="#000000" stroke="none" font-family="Arial" font-size="13px" font-style="normal" font-weight="bold" text-decoration="undefined" x="965" y="617" text-anchor="middle" dominant-baseline="central" transform="matrix(1 0 0 1 -195 -463)">UC36.2 - Invio email</text><text fill="#000000" stroke="none" font-family="Arial" font-size="13px" font-style="normal" font-weight="bold" text-decoration="undefined" x="965" y="630" text-anchor="middle" dominant-baseline="central" transform="matrix(1 0 0 1 -195 -463)">impostazione password al</text><text fill="#000000" stroke="none" font-family="Arial" font-size="13px" font-style="normal" font-weight="bold" text-decoration="undefined" x="965" y="643" text-anchor="middle" dominant-baseline="central" transform="matrix(1 0 0 1 -195 -463)">nuovo Tenant User</text></g></g><g><path fill="none" stroke="#000000" paint-order="fill stroke markers" d=" M 419 88 L 421 137" stroke-miterlimit="10" stroke-dasharray="3"/></g><g><path fill="none" stroke="#000000" paint-order="fill stroke markers" d=" M 416.3795263779318 127.0174540568164 L 421 137 L 424.7915576994734 126.67410583961055" stroke-miterlimit="10" stroke-dasharray=""/></g><g><rect fill="#ffffff" stroke="none" x="618" y="567" width="53.49169921875" height="13" transform="matrix(1 0 0 1 -195 -463)"/></g><g><g><path fill="none" stroke="none"/><text fill="#000000" stroke="none" font-family="Arial" font-size="13px" font-style="normal" font-weight="normal" text-decoration="undefined" x="644.745849609375" y="573.5" text-anchor="middle" dominant-baseline="central" transform="matrix(1 0 0 1 -195 -463)">«extend»</text></g></g><g><path fill="none" stroke="#000000" paint-order="fill stroke markers" d=" M 547 165 L 641 165" stroke-miterlimit="10" stroke-dasharray="3"/></g><g><path fill="none" stroke="#000000" paint-order="fill stroke markers" d=" M 630.8373251423759 169.209517756016 L 641 165 L 630.8373251423758 160.790482243984" stroke-miterlimit="10" stroke-dasharray=""/></g><g><rect fill="#ffffff" stroke="none" x="753" y="606" width="55.65625" height="13" transform="matrix(1 0 0 1 -195 -463)"/></g><g><g><path fill="none" stroke="none"/><text fill="#000000" stroke="none" font-family="Arial" font-size="13px" font-style="normal" font-weight="normal" text-decoration="undefined" x="780.828125" y="612.5" text-anchor="middle" dominant-baseline="central" transform="matrix(1 0 0 1 -195 -463)">«include»</text></g></g><g><path fill="none" stroke="#000000" paint-order="fill stroke markers" d=" M 422 192 L 422 225" stroke-miterlimit="10" stroke-dasharray="3"/></g><g><path fill="none" stroke="#000000" paint-order="fill stroke markers" d=" M 417.790482243984 214.8373251423759 L 422 225 L 426.209517756016 214.8373251423759" stroke-miterlimit="10" stroke-dasharray=""/></g><g><rect fill="#ffffff" stroke="none" x="619" y="664" width="55.65625" height="13" transform="matrix(1 0 0 1 -195 -463)"/></g><g><g><path fill="none" stroke="none"/><text fill="#000000" stroke="none" font-family="Arial" font-size="13px" font-style="normal" font-weight="normal" text-decoration="undefined" x="646.828125" y="670.5" text-anchor="middle" dominant-baseline="central" transform="matrix(1 0 0 1 -195 -463)">«include»</text></g></g><g><path fill="none" stroke="#000000" paint-order="fill stroke markers" d=" M 297 163 L 119 162" stroke-miterlimit="10" stroke-dasharray=""/></g><g><path fill="#ffffff" stroke="none" paint-order="stroke fill markers" d=" M 170 10 L 279 10 L 289 20 L 289 140 L 170 140 L 170 10"/></g><g><path fill="none" stroke="#000000" paint-order="fill stroke markers" d=" M 170 10 L 279 10 L 289 20 L 289 140 L 170 140 L 170 10 L 170 10" stroke-miterlimit="10" stroke-dasharray=""/></g><g><path fill="none" stroke="#000000" paint-order="fill stroke markers" d=" M 279 10 L 279 20 L 289 20 L 279 10" stroke-miterlimit="10" stroke-dasharray=""/></g><g><g><path fill="none" stroke="none"/><text fill="#000000" stroke="none" font-family="Arial" font-size="13px" font-style="normal" font-weight="normal" text-decoration="undefined" x="425" y="498" text-anchor="middle" dominant-baseline="text-before-edge" transform="matrix(1 0 0 1 -195 -463)">Condizione:</text></g></g><g><g><path fill="none" stroke="none"/><text fill="#000000" stroke="none" font-family="Arial" font-size="13px" font-style="normal" font-weight="normal" text-decoration="undefined" x="425" y="513" text-anchor="middle" dominant-baseline="text-before-edge" transform="matrix(1 0 0 1 -195 -463)">L'utente ha inserito</text><text fill="#000000" stroke="none" font-family="Arial" font-size="13px" font-style="normal" font-weight="normal" text-decoration="undefined" x="425" y="526" text-anchor="middle" dominant-baseline="text-before-edge" transform="matrix(1 0 0 1 -195 -463)">un'email già</text><text fill="#000000" stroke="none" font-family="Arial" font-size="13px" font-style="normal" font-weight="normal" text-decoration="undefined" x="425" y="539" text-anchor="middle" dominant-baseline="text-before-edge" transform="matrix(1 0 0 1 -195 -463)">associata ad un</text><text fill="#000000" stroke="none" font-family="Arial" font-size="13px" font-style="normal" font-weight="normal" text-decoration="undefined" x="425" y="552" text-anchor="middle" dominant-baseline="text-before-edge" transform="matrix(1 0 0 1 -195 -463)">altro account nel</text><text fill="#000000" stroke="none" font-family="Arial" font-size="13px" font-style="normal" font-weight="normal" text-decoration="undefined" x="425" y="565" text-anchor="middle" dominant-baseline="text-before-edge" transform="matrix(1 0 0 1 -195 -463)">Sistema</text></g></g><g><path fill="none" stroke="#000000" paint-order="fill stroke markers" d=" M 291 87 L 420 112" stroke-miterlimit="10" stroke-dasharray="3"/></g></g></svg>