<svg version="1.1" xmlns="http://www.w3.org/2000/svg" xmlns:xlink="http://www.w3.org/1999/xlink" width="869" height="204"><defs/><g><g><rect fill="#C0C0C0" stroke="none" x="616" y="477" width="656" height="184" transform="matrix(1 0 0 1 -407 -460)" fill-opacity="0.2"/></g><g><rect fill="#ffffff" stroke="none" x="609" y="470" width="656" height="184" transform="matrix(1 0 0 1 -407 -460)"/></g><g><path fill="none" stroke="#000000" paint-order="fill stroke markers" d=" M 202 10 L 858 10 L 858 194 L 202 194 L 202 10 Z Z" stroke-miterlimit="10" stroke-dasharray=""/></g><g><g><path fill="none" stroke="none"/><text fill="#000000" stroke="none" font-family="Arial" font-size="13px" font-style="normal" font-weight="bold" text-decoration="undefined" x="937.5" y="483.5" text-anchor="middle" dominant-baseline="central" transform="matrix(1 0 0 1 -407 -460)">Sistema Cloud</text></g></g><g><path fill="#ffffff" stroke="none" paint-order="stroke fill markers" d=" M 55.278164062500025 83.85000000000002 C 55.278164062500025 78.96227952000004 59.235966430500014 75 64.1181640625 75 C 69.00036169449999 75 72.95816406249997 78.96227952000004 72.95816406249997 83.85000000000002 C 72.95816406249997 88.73772048000001 69.00036169449999 92.70000000000005 64.1181640625 92.70000000000005 C 59.235966430500014 92.70000000000005 55.278164062500025 88.73772048000001 55.278164062500025 83.85000000000002 Z"/></g><g><path fill="none" stroke="#000000" paint-order="fill stroke markers" d=" M 55.278164062500025 83.85000000000002 C 55.278164062500025 78.96227952000004 59.235966430500014 75 64.1181640625 75 C 69.00036169449999 75 72.95816406249997 78.96227952000004 72.95816406249997 83.85000000000002 C 72.95816406249997 88.73772048000001 69.00036169449999 92.70000000000005 64.1181640625 92.70000000000005 C 59.235966430500014 92.70000000000005 55.278164062500025 88.73772048000001 55.278164062500025 83.85000000000002 Z" stroke-miterlimit="10" stroke-dasharray=""/></g><g><path fill="none" stroke="#000000" paint-order="fill stroke markers" d=" M 64.1181640625 92.70000000000005 L 64.1181640625 110.29999999999995" stroke-miterlimit="10" stroke-dasharray=""/></g><g><path fill="none" stroke="#000000" paint-order="fill stroke markers" d=" M 54.758164062499986 99.29999999999995 L 73.47816406250001 99.29999999999995" stroke-miterlimit="10" stroke-dasharray=""/></g><g><path fill="none" stroke="#000000" paint-order="fill stroke markers" d=" M 64.1181640625 110.29999999999995 L 51.1181640625 128" stroke-miterlimit="10" stroke-dasharray=""/></g><g><path fill="none" stroke="#000000" paint-order="fill stroke markers" d=" M 64.1181640625 110.29999999999995 L 77.1181640625 128" stroke-miterlimit="10" stroke-dasharray=""/></g><g><g><path fill="none" stroke="none"/><text fill="#000000" stroke="none" font-family="Arial" font-size="13px" font-style="normal" font-weight="bold" text-decoration="undefined" x="471.6181640625" y="602.5" text-anchor="middle" dominant-baseline="central" transform="matrix(1 0 0 1 -407 -460)">Admin generico</text></g></g><g><path fill="#C0C0C0" stroke="none" paint-order="stroke fill markers" d=" M 273 123.5 C 273 108.86445279999998 326.725824 97 393 97 C 459.274176 97 513 108.86445279999998 513 123.5 C 513 138.13554720000002 459.274176 150 393 150 C 326.725824 150 273 138.13554720000002 273 123.5 Z" fill-opacity="0.2"/></g><g><path fill="#ffffff" stroke="none" paint-order="stroke fill markers" d=" M 266 116.5 C 266 101.86445279999998 319.725824 90 386 90 C 452.274176 90 506 101.86445279999998 506 116.5 C 506 131.13554720000002 452.274176 143 386 143 C 319.725824 143 266 131.13554720000002 266 116.5 Z"/></g><g><path fill="none" stroke="#000000" paint-order="fill stroke markers" d=" M 266 116.5 C 266 101.86445279999998 319.725824 90 386 90 C 452.274176 90 506 101.86445279999998 506 116.5 C 506 131.13554720000002 452.274176 143 386 143 C 319.725824 143 266 131.13554720000002 266 116.5 Z" stroke-miterlimit="10" stroke-dasharray=""/></g><g><g><path fill="none" stroke="none"/><text fill="#000000" stroke="none" font-family="Arial" font-size="13px" font-style="normal" font-weight="bold" text-decoration="undefined" x="793" y="571" text-anchor="middle" dominant-baseline="central" transform="matrix(1 0 0 1 -407 -460)">UC36 - Riattivazione</text><text fill="#000000" stroke="none" font-family="Arial" font-size="13px" font-style="normal" font-weight="bold" text-decoration="undefined" x="793" y="584" text-anchor="middle" dominant-baseline="central" transform="matrix(1 0 0 1 -407 -460)">Tenant User</text></g></g><g><path fill="#C0C0C0" stroke="none" paint-order="stroke fill markers" d=" M 609 123.5 C 609 108.86445279999998 662.7258240000001 97 729 97 C 795.2741759999999 97 849 108.86445279999998 849 123.5 C 849 138.13554720000002 795.2741759999999 150 729 150 C 662.7258240000001 150 609 138.13554720000002 609 123.5 Z" fill-opacity="0.2"/></g><g><path fill="#ffffff" stroke="none" paint-order="stroke fill markers" d=" M 602 116.5 C 602 101.86445279999998 655.7258240000001 90 722 90 C 788.2741759999999 90 842 101.86445279999998 842 116.5 C 842 131.13554720000002 788.2741759999999 143 722 143 C 655.7258240000001 143 602 131.13554720000002 602 116.5 Z"/></g><g><path fill="none" stroke="#000000" paint-order="fill stroke markers" d=" M 602 116.5 C 602 101.86445279999998 655.7258240000001 90 722 90 C 788.2741759999999 90 842 101.86445279999998 842 116.5 C 842 131.13554720000002 788.2741759999999 143 722 143 C 655.7258240000001 143 602 131.13554720000002 602 116.5 Z" stroke-miterlimit="10" stroke-dasharray=""/></g><g><g><path fill="none" stroke="none"/><text fill="#000000" stroke="none" font-family="Arial" font-size="13px" font-style="normal" font-weight="bold" text-decoration="undefined" x="1129" y="571" text-anchor="middle" dominant-baseline="central" transform="matrix(1 0 0 1 -407 -460)">UC36.1 - Conferma</text><text fill="#000000" stroke="none" font-family="Arial" font-size="13px" font-style="normal" font-weight="bold" text-decoration="undefined" x="1129" y="584" text-anchor="middle" dominant-baseline="central" transform="matrix(1 0 0 1 -407 -460)">riattivazione Tenant User</text></g></g><g><path fill="none" stroke="#000000" paint-order="fill stroke markers" d=" M 507 116 L 601 116" stroke-miterlimit="10" stroke-dasharray="3"/></g><g><path fill="none" stroke="#000000" paint-order="fill stroke markers" d=" M 590.8373251423759 120.209517756016 L 601 116 L 590.8373251423758 111.790482243984" stroke-miterlimit="10" stroke-dasharray=""/></g><g><rect fill="#ffffff" stroke="none" x="929" y="557" width="55.65625" height="13" transform="matrix(1 0 0 1 -407 -460)"/></g><g><g><path fill="none" stroke="none"/><text fill="#000000" stroke="none" font-family="Arial" font-size="13px" font-style="normal" font-weight="normal" text-decoration="undefined" x="956.828125" y="563.5" text-anchor="middle" dominant-baseline="central" transform="matrix(1 0 0 1 -407 -460)">«include»</text></g></g><g><path fill="none" stroke="#000000" paint-order="fill stroke markers" d=" M 265 115 L 119 114" stroke-miterlimit="10" stroke-dasharray=""/></g></g></svg>