<svg version="1.1" xmlns="http://www.w3.org/2000/svg" xmlns:xlink="http://www.w3.org/1999/xlink" width="831" height="172"><defs/><g><g><rect fill="#C0C0C0" stroke="none" x="754" y="598" width="640" height="152" transform="matrix(1 0 0 1 -567 -581)" fill-opacity="0.2"/></g><g><rect fill="#ffffff" stroke="none" x="747" y="591" width="640" height="152" transform="matrix(1 0 0 1 -567 -581)"/></g><g><path fill="none" stroke="#000000" paint-order="fill stroke markers" d=" M 180 10 L 820 10 L 820 162 L 180 162 L 180 10 Z Z" stroke-miterlimit="10" stroke-dasharray=""/></g><g><g><path fill="none" stroke="none"/><text fill="#000000" stroke="none" font-family="Arial" font-size="13px" font-style="normal" font-weight="bold" text-decoration="undefined" x="1067.5" y="604.5" text-anchor="middle" dominant-baseline="central" transform="matrix(1 0 0 1 -567 -581)">Dashboard admin</text></g></g><g><path fill="#ffffff" stroke="none" paint-order="stroke fill markers" d=" M 55.27816406249997 52.85000000000002 C 55.27816406249997 47.96227952000004 59.23596643049996 44 64.1181640625 44 C 69.00036169450004 44 72.95816406250003 47.96227952000004 72.95816406250003 52.85000000000002 C 72.95816406250003 57.73772048000001 69.00036169450004 61.700000000000045 64.1181640625 61.700000000000045 C 59.23596643049996 61.700000000000045 55.27816406249997 57.73772048000001 55.27816406249997 52.85000000000002 Z"/></g><g><path fill="none" stroke="#000000" paint-order="fill stroke markers" d=" M 55.27816406249997 52.85000000000002 C 55.27816406249997 47.96227952000004 59.23596643049996 44 64.1181640625 44 C 69.00036169450004 44 72.95816406250003 47.96227952000004 72.95816406250003 52.85000000000002 C 72.95816406250003 57.73772048000001 69.00036169450004 61.700000000000045 64.1181640625 61.700000000000045 C 59.23596643049996 61.700000000000045 55.27816406249997 57.73772048000001 55.27816406249997 52.85000000000002 Z" stroke-miterlimit="10" stroke-dasharray=""/></g><g><path fill="none" stroke="#000000" paint-order="fill stroke markers" d=" M 64.1181640625 61.700000000000045 L 64.1181640625 79.29999999999995" stroke-miterlimit="10" stroke-dasharray=""/></g><g><path fill="none" stroke="#000000" paint-order="fill stroke markers" d=" M 54.758164062499986 68.29999999999995 L 73.47816406250001 68.29999999999995" stroke-miterlimit="10" stroke-dasharray=""/></g><g><path fill="none" stroke="#000000" paint-order="fill stroke markers" d=" M 64.1181640625 79.29999999999995 L 51.1181640625 97" stroke-miterlimit="10" stroke-dasharray=""/></g><g><path fill="none" stroke="#000000" paint-order="fill stroke markers" d=" M 64.1181640625 79.29999999999995 L 77.1181640625 97" stroke-miterlimit="10" stroke-dasharray=""/></g><g><g><path fill="none" stroke="none"/><text fill="#000000" stroke="none" font-family="Arial" font-size="13px" font-style="normal" font-weight="bold" text-decoration="undefined" x="631.6181640625" y="692.5" text-anchor="middle" dominant-baseline="central" transform="matrix(1 0 0 1 -567 -581)">Admin generico</text></g></g><g><path fill="#C0C0C0" stroke="none" paint-order="stroke fill markers" d=" M 273 100.5 C 273 85.86445279999998 318.21923519999996 74 374 74 C 429.78076480000004 74 475 85.86445279999998 475 100.5 C 475 115.13554720000002 429.78076480000004 127 374 127 C 318.21923519999996 127 273 115.13554720000002 273 100.5 Z" fill-opacity="0.2"/></g><g><path fill="#ffffff" stroke="none" paint-order="stroke fill markers" d=" M 266 93.5 C 266 78.86445279999998 311.21923519999996 67 367 67 C 422.78076480000004 67 468 78.86445279999998 468 93.5 C 468 108.13554720000002 422.78076480000004 120 367 120 C 311.21923519999996 120 266 108.13554720000002 266 93.5 Z"/></g><g><path fill="none" stroke="#000000" paint-order="fill stroke markers" d=" M 266 93.5 C 266 78.86445279999998 311.21923519999996 67 367 67 C 422.78076480000004 67 468 78.86445279999998 468 93.5 C 468 108.13554720000002 422.78076480000004 120 367 120 C 311.21923519999996 120 266 108.13554720000002 266 93.5 Z" stroke-miterlimit="10" stroke-dasharray=""/></g><g><g><path fill="none" stroke="none"/><text fill="#000000" stroke="none" font-family="Arial" font-size="13px" font-style="normal" font-weight="bold" text-decoration="undefined" x="934" y="669" text-anchor="middle" dominant-baseline="central" transform="matrix(1 0 0 1 -567 -581)">UC37 - Sospensione</text><text fill="#000000" stroke="none" font-family="Arial" font-size="13px" font-style="normal" font-weight="bold" text-decoration="undefined" x="934" y="682" text-anchor="middle" dominant-baseline="central" transform="matrix(1 0 0 1 -567 -581)">Tenant User</text></g></g><g><path fill="#C0C0C0" stroke="none" paint-order="stroke fill markers" d=" M 587 101 C 587 81.11774720000005 637.5918176 65 700 65 C 762.4081824 65 813 81.11774720000005 813 101 C 813 120.88225279999995 762.4081824 137 700 137 C 637.5918176 137 587 120.88225279999995 587 101 Z" fill-opacity="0.2"/></g><g><path fill="#ffffff" stroke="none" paint-order="stroke fill markers" d=" M 580 94 C 580 74.11774720000005 630.5918176 58 693 58 C 755.4081824 58 806 74.11774720000005 806 94 C 806 113.88225279999995 755.4081824 130 693 130 C 630.5918176 130 580 113.88225279999995 580 94 Z"/></g><g><path fill="none" stroke="#000000" paint-order="fill stroke markers" d=" M 580 94 C 580 74.11774720000005 630.5918176 58 693 58 C 755.4081824 58 806 74.11774720000005 806 94 C 806 113.88225279999995 755.4081824 130 693 130 C 630.5918176 130 580 113.88225279999995 580 94 Z" stroke-miterlimit="10" stroke-dasharray=""/></g><g><g><path fill="none" stroke="none"/><text fill="#000000" stroke="none" font-family="Arial" font-size="13px" font-style="normal" font-weight="bold" text-decoration="undefined" x="1260" y="663" text-anchor="middle" dominant-baseline="central" transform="matrix(1 0 0 1 -567 -581)">UC37.1 - Conferma</text><text fill="#000000" stroke="none" font-family="Arial" font-size="13px" font-style="normal" font-weight="bold" text-decoration="undefined" x="1260" y="676" text-anchor="middle" dominant-baseline="central" transform="matrix(1 0 0 1 -567 -581)">sospensione Tenant</text><text fill="#000000" stroke="none" font-family="Arial" font-size="13px" font-style="normal" font-weight="bold" text-decoration="undefined" x="1260" y="689" text-anchor="middle" dominant-baseline="central" transform="matrix(1 0 0 1 -567 -581)">User</text></g></g><g><path fill="none" stroke="#000000" paint-order="fill stroke markers" d=" M 469 93 L 579 94" stroke-miterlimit="10" stroke-dasharray="3"/></g><g><path fill="none" stroke="#000000" paint-order="fill stroke markers" d=" M 568.799478299592 98.11695968397862 L 579 94 L 568.876011823588 89.6982720444139" stroke-miterlimit="10" stroke-dasharray=""/></g><g><rect fill="#ffffff" stroke="none" x="1073" y="657" width="55.65625" height="13" transform="matrix(1 0 0 1 -567 -581)"/></g><g><g><path fill="none" stroke="none"/><text fill="#000000" stroke="none" font-family="Arial" font-size="13px" font-style="normal" font-weight="normal" text-decoration="undefined" x="1100.828125" y="663.5" text-anchor="middle" dominant-baseline="central" transform="matrix(1 0 0 1 -567 -581)">«include»</text></g></g><g><path fill="none" stroke="#000000" paint-order="fill stroke markers" d=" M 265 90 L 119 85" stroke-miterlimit="10" stroke-dasharray=""/></g></g></svg>