<svg version="1.1" xmlns="http://www.w3.org/2000/svg" xmlns:xlink="http://www.w3.org/1999/xlink" width="732" height="108"><defs/><g><g><path fill="#ffffff" stroke="none" paint-order="stroke fill markers" d=" M 55.278164062500025 19.850000000000023 C 55.278164062500025 14.962279520000038 59.235966430500014 11 64.1181640625 11 C 69.00036169449999 11 72.95816406249997 14.962279520000038 72.95816406249997 19.850000000000023 C 72.95816406249997 24.737720480000007 69.00036169449999 28.700000000000045 64.1181640625 28.700000000000045 C 59.235966430500014 28.700000000000045 55.278164062500025 24.737720480000007 55.278164062500025 19.850000000000023 Z"/></g><g><path fill="none" stroke="#000000" paint-order="fill stroke markers" d=" M 55.278164062500025 19.850000000000023 C 55.278164062500025 14.962279520000038 59.235966430500014 11 64.1181640625 11 C 69.00036169449999 11 72.95816406249997 14.962279520000038 72.95816406249997 19.850000000000023 C 72.95816406249997 24.737720480000007 69.00036169449999 28.700000000000045 64.1181640625 28.700000000000045 C 59.235966430500014 28.700000000000045 55.278164062500025 24.737720480000007 55.278164062500025 19.850000000000023 Z" stroke-miterlimit="10" stroke-dasharray=""/></g><g><path fill="none" stroke="#000000" paint-order="fill stroke markers" d=" M 64.1181640625 28.700000000000045 L 64.1181640625 46.299999999999955" stroke-miterlimit="10" stroke-dasharray=""/></g><g><path fill="none" stroke="#000000" paint-order="fill stroke markers" d=" M 54.758164062499986 35.299999999999955 L 73.47816406250001 35.299999999999955" stroke-miterlimit="10" stroke-dasharray=""/></g><g><path fill="none" stroke="#000000" paint-order="fill stroke markers" d=" M 64.1181640625 46.299999999999955 L 51.1181640625 64" stroke-miterlimit="10" stroke-dasharray=""/></g><g><path fill="none" stroke="#000000" paint-order="fill stroke markers" d=" M 64.1181640625 46.299999999999955 L 77.1181640625 64" stroke-miterlimit="10" stroke-dasharray=""/></g><g><g><path fill="none" stroke="none"/><text fill="#000000" stroke="none" font-family="Arial" font-size="13px" font-style="normal" font-weight="bold" text-decoration="undefined" x="347.6181640625" y="631.5" text-anchor="middle" dominant-baseline="central" transform="matrix(1 0 0 1 -283 -553)">Admin generico</text></g></g><g><path fill="#C0C0C0" stroke="none" paint-order="stroke fill markers" d=" M 241 67.5 C 241 52.86445279999998 285.77152 41 341 41 C 396.22848 41 441 52.86445279999998 441 67.5 C 441 82.13554720000002 396.22848 94 341 94 C 285.77152 94 241 82.13554720000002 241 67.5 Z" fill-opacity="0.2"/></g><g><path fill="#ffffff" stroke="none" paint-order="stroke fill markers" d=" M 234 60.5 C 234 45.86445279999998 278.77152 34 334 34 C 389.22848 34 434 45.86445279999998 434 60.5 C 434 75.13554720000002 389.22848 87 334 87 C 278.77152 87 234 75.13554720000002 234 60.5 Z"/></g><g><path fill="none" stroke="#000000" paint-order="fill stroke markers" d=" M 234 60.5 C 234 45.86445279999998 278.77152 34 334 34 C 389.22848 34 434 45.86445279999998 434 60.5 C 434 75.13554720000002 389.22848 87 334 87 C 278.77152 87 234 75.13554720000002 234 60.5 Z" stroke-miterlimit="10" stroke-dasharray=""/></g><g><g><path fill="none" stroke="none"/><text fill="#000000" stroke="none" font-family="Arial" font-size="13px" font-style="normal" font-weight="bold" text-decoration="undefined" x="617" y="608" text-anchor="middle" dominant-baseline="central" transform="matrix(1 0 0 1 -283 -553)">UC37 - Sospensione</text><text fill="#000000" stroke="none" font-family="Arial" font-size="13px" font-style="normal" font-weight="bold" text-decoration="undefined" x="617" y="621" text-anchor="middle" dominant-baseline="central" transform="matrix(1 0 0 1 -283 -553)">Tenant User</text></g></g><g><path fill="#C0C0C0" stroke="none" paint-order="stroke fill markers" d=" M 529 69 C 529 49.11774720000005 573.77152 33 629 33 C 684.22848 33 729 49.11774720000005 729 69 C 729 88.88225279999995 684.22848 105 629 105 C 573.77152 105 529 88.88225279999995 529 69 Z" fill-opacity="0.2"/></g><g><path fill="#ffffff" stroke="none" paint-order="stroke fill markers" d=" M 522 62 C 522 42.11774720000005 566.77152 26 622 26 C 677.22848 26 722 42.11774720000005 722 62 C 722 81.88225279999995 677.22848 98 622 98 C 566.77152 98 522 81.88225279999995 522 62 Z"/></g><g><path fill="none" stroke="#000000" paint-order="fill stroke markers" d=" M 522 62 C 522 42.11774720000005 566.77152 26 622 26 C 677.22848 26 722 42.11774720000005 722 62 C 722 81.88225279999995 677.22848 98 622 98 C 566.77152 98 522 81.88225279999995 522 62 Z" stroke-miterlimit="10" stroke-dasharray=""/></g><g><g><path fill="none" stroke="none"/><text fill="#000000" stroke="none" font-family="Arial" font-size="13px" font-style="normal" font-weight="bold" text-decoration="undefined" x="905" y="603" text-anchor="middle" dominant-baseline="central" transform="matrix(1 0 0 1 -283 -553)">UC37.1 - Conferma</text><text fill="#000000" stroke="none" font-family="Arial" font-size="13px" font-style="normal" font-weight="bold" text-decoration="undefined" x="905" y="616" text-anchor="middle" dominant-baseline="central" transform="matrix(1 0 0 1 -283 -553)">sospensione Tenant</text><text fill="#000000" stroke="none" font-family="Arial" font-size="13px" font-style="normal" font-weight="bold" text-decoration="undefined" x="905" y="629" text-anchor="middle" dominant-baseline="central" transform="matrix(1 0 0 1 -283 -553)">User</text></g></g><g><path fill="none" stroke="#000000" paint-order="fill stroke markers" d=" M 435 61 L 521 61" stroke-miterlimit="10" stroke-dasharray="3"/></g><g><path fill="none" stroke="#000000" paint-order="fill stroke markers" d=" M 510.8373251423759 65.209517756016 L 521 61 L 510.8373251423758 56.790482243984" stroke-miterlimit="10" stroke-dasharray=""/></g><g><rect fill="#ffffff" stroke="none" x="733" y="596" width="55.65625" height="13" transform="matrix(1 0 0 1 -283 -553)"/></g><g><g><path fill="none" stroke="none"/><text fill="#000000" stroke="none" font-family="Arial" font-size="13px" font-style="normal" font-weight="normal" text-decoration="undefined" x="760.828125" y="602.5" text-anchor="middle" dominant-baseline="central" transform="matrix(1 0 0 1 -283 -553)">«include»</text></g></g><g><path fill="none" stroke="#000000" paint-order="fill stroke markers" d=" M 233 56 L 119 52" stroke-miterlimit="10" stroke-dasharray=""/></g></g></svg>