<svg version="1.1" xmlns="http://www.w3.org/2000/svg" xmlns:xlink="http://www.w3.org/1999/xlink" width="852" height="100"><defs/><g><g><path fill="#ffffff" stroke="none" paint-order="stroke fill markers" d=" M 55.278164062500025 19.850000000000023 C 55.278164062500025 14.962279520000038 59.235966430500014 11 64.1181640625 11 C 69.00036169449999 11 72.95816406249997 14.962279520000038 72.95816406249997 19.850000000000023 C 72.95816406249997 24.737720480000007 69.00036169449999 28.700000000000045 64.1181640625 28.700000000000045 C 59.235966430500014 28.700000000000045 55.278164062500025 24.737720480000007 55.278164062500025 19.850000000000023 Z"/></g><g><path fill="none" stroke="#000000" paint-order="fill stroke markers" d=" M 55.278164062500025 19.850000000000023 C 55.278164062500025 14.962279520000038 59.235966430500014 11 64.1181640625 11 C 69.00036169449999 11 72.95816406249997 14.962279520000038 72.95816406249997 19.850000000000023 C 72.95816406249997 24.737720480000007 69.00036169449999 28.700000000000045 64.1181640625 28.700000000000045 C 59.235966430500014 28.700000000000045 55.278164062500025 24.737720480000007 55.278164062500025 19.850000000000023 Z" stroke-miterlimit="10" stroke-dasharray=""/></g><g><path fill="none" stroke="#000000" paint-order="fill stroke markers" d=" M 64.1181640625 28.700000000000045 L 64.1181640625 46.299999999999955" stroke-miterlimit="10" stroke-dasharray=""/></g><g><path fill="none" stroke="#000000" paint-order="fill stroke markers" d=" M 54.758164062499986 35.299999999999955 L 73.47816406250001 35.299999999999955" stroke-miterlimit="10" stroke-dasharray=""/></g><g><path fill="none" stroke="#000000" paint-order="fill stroke markers" d=" M 64.1181640625 46.299999999999955 L 51.1181640625 64" stroke-miterlimit="10" stroke-dasharray=""/></g><g><path fill="none" stroke="#000000" paint-order="fill stroke markers" d=" M 64.1181640625 46.299999999999955 L 77.1181640625 64" stroke-miterlimit="10" stroke-dasharray=""/></g><g><g><path fill="none" stroke="none"/><text fill="#000000" stroke="none" font-family="Arial" font-size="13px" font-style="normal" font-weight="bold" text-decoration="undefined" x="287.6181640625" y="635.5" text-anchor="middle" dominant-baseline="central" transform="matrix(1 0 0 1 -223 -557)">Admin generico</text></g></g><g><path fill="#C0C0C0" stroke="none" paint-order="stroke fill markers" d=" M 273 59.5 C 273 44.86445279999998 326.725824 33 393 33 C 459.274176 33 513 44.86445279999998 513 59.5 C 513 74.13554720000002 459.274176 86 393 86 C 326.725824 86 273 74.13554720000002 273 59.5 Z" fill-opacity="0.2"/></g><g><path fill="#ffffff" stroke="none" paint-order="stroke fill markers" d=" M 266 52.5 C 266 37.86445279999998 319.725824 26 386 26 C 452.274176 26 506 37.86445279999998 506 52.5 C 506 67.13554720000002 452.274176 79 386 79 C 319.725824 79 266 67.13554720000002 266 52.5 Z"/></g><g><path fill="none" stroke="#000000" paint-order="fill stroke markers" d=" M 266 52.5 C 266 37.86445279999998 319.725824 26 386 26 C 452.274176 26 506 37.86445279999998 506 52.5 C 506 67.13554720000002 452.274176 79 386 79 C 319.725824 79 266 67.13554720000002 266 52.5 Z" stroke-miterlimit="10" stroke-dasharray=""/></g><g><g><path fill="none" stroke="none"/><text fill="#000000" stroke="none" font-family="Arial" font-size="13px" font-style="normal" font-weight="bold" text-decoration="undefined" x="609" y="604" text-anchor="middle" dominant-baseline="central" transform="matrix(1 0 0 1 -223 -557)">UC38 - Riattivazione</text><text fill="#000000" stroke="none" font-family="Arial" font-size="13px" font-style="normal" font-weight="bold" text-decoration="undefined" x="609" y="617" text-anchor="middle" dominant-baseline="central" transform="matrix(1 0 0 1 -223 -557)">Tenant User</text></g></g><g><path fill="#C0C0C0" stroke="none" paint-order="stroke fill markers" d=" M 609 59.5 C 609 44.86445279999998 662.725824 33 729 33 C 795.274176 33 849 44.86445279999998 849 59.5 C 849 74.13554720000002 795.274176 86 729 86 C 662.725824 86 609 74.13554720000002 609 59.5 Z" fill-opacity="0.2"/></g><g><path fill="#ffffff" stroke="none" paint-order="stroke fill markers" d=" M 602 52.5 C 602 37.86445279999998 655.725824 26 722 26 C 788.274176 26 842 37.86445279999998 842 52.5 C 842 67.13554720000002 788.274176 79 722 79 C 655.725824 79 602 67.13554720000002 602 52.5 Z"/></g><g><path fill="none" stroke="#000000" paint-order="fill stroke markers" d=" M 602 52.5 C 602 37.86445279999998 655.725824 26 722 26 C 788.274176 26 842 37.86445279999998 842 52.5 C 842 67.13554720000002 788.274176 79 722 79 C 655.725824 79 602 67.13554720000002 602 52.5 Z" stroke-miterlimit="10" stroke-dasharray=""/></g><g><g><path fill="none" stroke="none"/><text fill="#000000" stroke="none" font-family="Arial" font-size="13px" font-style="normal" font-weight="bold" text-decoration="undefined" x="945" y="604" text-anchor="middle" dominant-baseline="central" transform="matrix(1 0 0 1 -223 -557)">UC38.1 - Conferma</text><text fill="#000000" stroke="none" font-family="Arial" font-size="13px" font-style="normal" font-weight="bold" text-decoration="undefined" x="945" y="617" text-anchor="middle" dominant-baseline="central" transform="matrix(1 0 0 1 -223 -557)">riattivazione Tenant User</text></g></g><g><path fill="none" stroke="#000000" paint-order="fill stroke markers" d=" M 507 52 L 601 52" stroke-miterlimit="10" stroke-dasharray="3"/></g><g><path fill="none" stroke="#000000" paint-order="fill stroke markers" d=" M 590.8373251423759 56.209517756016 L 601 52 L 590.8373251423758 47.790482243984" stroke-miterlimit="10" stroke-dasharray=""/></g><g><rect fill="#ffffff" stroke="none" x="745" y="590" width="55.65625" height="13" transform="matrix(1 0 0 1 -223 -557)"/></g><g><g><path fill="none" stroke="none"/><text fill="#000000" stroke="none" font-family="Arial" font-size="13px" font-style="normal" font-weight="normal" text-decoration="undefined" x="772.828125" y="596.5" text-anchor="middle" dominant-baseline="central" transform="matrix(1 0 0 1 -223 -557)">«include»</text></g></g><g><path fill="none" stroke="#000000" paint-order="fill stroke markers" d=" M 265 51 L 119 50" stroke-miterlimit="10" stroke-dasharray=""/></g></g></svg>