<svg version="1.1" xmlns="http://www.w3.org/2000/svg" xmlns:xlink="http://www.w3.org/1999/xlink" width="897" height="148"><defs/><g><g><rect fill="#C0C0C0" stroke="none" x="755" y="610" width="672" height="128" transform="matrix(1 0 0 1 -534 -593)" fill-opacity="0.2"/></g><g><rect fill="#ffffff" stroke="none" x="748" y="603" width="672" height="128" transform="matrix(1 0 0 1 -534 -593)"/></g><g><path fill="none" stroke="#000000" paint-order="fill stroke markers" d=" M 214 10 L 886 10 L 886 138 L 214 138 L 214 10 Z Z" stroke-miterlimit="10" stroke-dasharray=""/></g><g><g><path fill="none" stroke="none"/><text fill="#000000" stroke="none" font-family="Arial" font-size="13px" font-style="normal" font-weight="bold" text-decoration="undefined" x="1084.5" y="616.5" text-anchor="middle" dominant-baseline="central" transform="matrix(1 0 0 1 -534 -593)">Dashboard admin</text></g></g><g><path fill="#ffffff" stroke="none" paint-order="stroke fill markers" d=" M 55.27816406249997 45.85000000000002 C 55.27816406249997 40.96227952000004 59.23596643049996 37 64.1181640625 37 C 69.00036169450004 37 72.95816406250003 40.96227952000004 72.95816406250003 45.85000000000002 C 72.95816406250003 50.73772048000001 69.00036169450004 54.700000000000045 64.1181640625 54.700000000000045 C 59.23596643049996 54.700000000000045 55.27816406249997 50.73772048000001 55.27816406249997 45.85000000000002 Z"/></g><g><path fill="none" stroke="#000000" paint-order="fill stroke markers" d=" M 55.27816406249997 45.85000000000002 C 55.27816406249997 40.96227952000004 59.23596643049996 37 64.1181640625 37 C 69.00036169450004 37 72.95816406250003 40.96227952000004 72.95816406250003 45.85000000000002 C 72.95816406250003 50.73772048000001 69.00036169450004 54.700000000000045 64.1181640625 54.700000000000045 C 59.23596643049996 54.700000000000045 55.27816406249997 50.73772048000001 55.27816406249997 45.85000000000002 Z" stroke-miterlimit="10" stroke-dasharray=""/></g><g><path fill="none" stroke="#000000" paint-order="fill stroke markers" d=" M 64.1181640625 54.700000000000045 L 64.1181640625 72.29999999999995" stroke-miterlimit="10" stroke-dasharray=""/></g><g><path fill="none" stroke="#000000" paint-order="fill stroke markers" d=" M 54.758164062499986 61.299999999999955 L 73.47816406250001 61.299999999999955" stroke-miterlimit="10" stroke-dasharray=""/></g><g><path fill="none" stroke="#000000" paint-order="fill stroke markers" d=" M 64.1181640625 72.29999999999995 L 51.1181640625 90" stroke-miterlimit="10" stroke-dasharray=""/></g><g><path fill="none" stroke="#000000" paint-order="fill stroke markers" d=" M 64.1181640625 72.29999999999995 L 77.1181640625 90" stroke-miterlimit="10" stroke-dasharray=""/></g><g><g><path fill="none" stroke="none"/><text fill="#000000" stroke="none" font-family="Arial" font-size="13px" font-style="normal" font-weight="bold" text-decoration="undefined" x="598.6181640625" y="697.5" text-anchor="middle" dominant-baseline="central" transform="matrix(1 0 0 1 -534 -593)">Admin generico</text></g></g><g><path fill="#C0C0C0" stroke="none" paint-order="stroke fill markers" d=" M 273 93.5 C 273 78.86445279999998 320.45781120000004 67 379 67 C 437.54218879999996 67 485 78.86445279999998 485 93.5 C 485 108.13554720000002 437.54218879999996 120 379 120 C 320.45781120000004 120 273 108.13554720000002 273 93.5 Z" fill-opacity="0.2"/></g><g><path fill="#ffffff" stroke="none" paint-order="stroke fill markers" d=" M 266 86.5 C 266 71.86445279999998 313.45781120000004 60 372 60 C 430.54218879999996 60 478 71.86445279999998 478 86.5 C 478 101.13554720000002 430.54218879999996 113 372 113 C 313.45781120000004 113 266 101.13554720000002 266 86.5 Z"/></g><g><path fill="none" stroke="#000000" paint-order="fill stroke markers" d=" M 266 86.5 C 266 71.86445279999998 313.45781120000004 60 372 60 C 430.54218879999996 60 478 71.86445279999998 478 86.5 C 478 101.13554720000002 430.54218879999996 113 372 113 C 313.45781120000004 113 266 101.13554720000002 266 86.5 Z" stroke-miterlimit="10" stroke-dasharray=""/></g><g><g><path fill="none" stroke="none"/><text fill="#000000" stroke="none" font-family="Arial" font-size="13px" font-style="normal" font-weight="bold" text-decoration="undefined" x="906" y="674" text-anchor="middle" dominant-baseline="central" transform="matrix(1 0 0 1 -534 -593)">UC38 - Riattivazione</text><text fill="#000000" stroke="none" font-family="Arial" font-size="13px" font-style="normal" font-weight="bold" text-decoration="undefined" x="906" y="687" text-anchor="middle" dominant-baseline="central" transform="matrix(1 0 0 1 -534 -593)">Tenant User</text></g></g><g><path fill="#C0C0C0" stroke="none" paint-order="stroke fill markers" d=" M 637 93.5 C 637 78.86445279999998 689.8303936 67 755 67 C 820.1696064 67 873 78.86445279999998 873 93.5 C 873 108.13554720000002 820.1696064 120 755 120 C 689.8303936 120 637 108.13554720000002 637 93.5 Z" fill-opacity="0.2"/></g><g><path fill="#ffffff" stroke="none" paint-order="stroke fill markers" d=" M 630 86.5 C 630 71.86445279999998 682.8303936 60 748 60 C 813.1696064 60 866 71.86445279999998 866 86.5 C 866 101.13554720000002 813.1696064 113 748 113 C 682.8303936 113 630 101.13554720000002 630 86.5 Z"/></g><g><path fill="none" stroke="#000000" paint-order="fill stroke markers" d=" M 630 86.5 C 630 71.86445279999998 682.8303936 60 748 60 C 813.1696064 60 866 71.86445279999998 866 86.5 C 866 101.13554720000002 813.1696064 113 748 113 C 682.8303936 113 630 101.13554720000002 630 86.5 Z" stroke-miterlimit="10" stroke-dasharray=""/></g><g><g><path fill="none" stroke="none"/><text fill="#000000" stroke="none" font-family="Arial" font-size="13px" font-style="normal" font-weight="bold" text-decoration="undefined" x="1282" y="674" text-anchor="middle" dominant-baseline="central" transform="matrix(1 0 0 1 -534 -593)">UC38.1 - Conferma</text><text fill="#000000" stroke="none" font-family="Arial" font-size="13px" font-style="normal" font-weight="bold" text-decoration="undefined" x="1282" y="687" text-anchor="middle" dominant-baseline="central" transform="matrix(1 0 0 1 -534 -593)">riattivazione Tenant User</text></g></g><g><path fill="none" stroke="#000000" paint-order="fill stroke markers" d=" M 479 86 L 629 86" stroke-miterlimit="10" stroke-dasharray="3"/></g><g><path fill="none" stroke="#000000" paint-order="fill stroke markers" d=" M 618.8373251423759 90.209517756016 L 629 86 L 618.8373251423759 81.790482243984" stroke-miterlimit="10" stroke-dasharray=""/></g><g><rect fill="#ffffff" stroke="none" x="1046" y="661" width="55.65625" height="13" transform="matrix(1 0 0 1 -534 -593)"/></g><g><g><path fill="none" stroke="none"/><text fill="#000000" stroke="none" font-family="Arial" font-size="13px" font-style="normal" font-weight="normal" text-decoration="undefined" x="1073.828125" y="667.5" text-anchor="middle" dominant-baseline="central" transform="matrix(1 0 0 1 -534 -593)">«include»</text></g></g><g><path fill="none" stroke="#000000" paint-order="fill stroke markers" d=" M 265 83 L 119 78" stroke-miterlimit="10" stroke-dasharray=""/></g></g></svg>