<svg version="1.1" xmlns="http://www.w3.org/2000/svg" xmlns:xlink="http://www.w3.org/1999/xlink" width="1053" height="308"><defs/><g><g><rect fill="#C0C0C0" stroke="none" x="295" y="325" width="856" height="288" transform="matrix(1 0 0 1 -102 -308)" fill-opacity="0.2"/></g><g><rect fill="#ffffff" stroke="none" x="288" y="318" width="856" height="288" transform="matrix(1 0 0 1 -102 -308)"/></g><g><path fill="none" stroke="#000000" paint-order="fill stroke markers" d=" M 186 10 L 1042 10 L 1042 298 L 186 298 L 186 10 Z Z" stroke-miterlimit="10" stroke-dasharray=""/></g><g><g><path fill="none" stroke="none"/><text fill="#000000" stroke="none" font-family="Arial" font-size="13px" font-style="normal" font-weight="bold" text-decoration="undefined" x="716.5" y="331.5" text-anchor="middle" dominant-baseline="central" transform="matrix(1 0 0 1 -102 -308)">Sistema Cloud</text></g></g><g><path fill="#ffffff" stroke="none" paint-order="stroke fill markers" d=" M 55.2781640625 59.85000000000002 C 55.2781640625 54.96227952000004 59.235966430499985 51 64.1181640625 51 C 69.00036169450001 51 72.9581640625 54.96227952000004 72.9581640625 59.85000000000002 C 72.9581640625 64.73772048000001 69.00036169450001 68.69999999999999 64.1181640625 68.69999999999999 C 59.235966430499985 68.69999999999999 55.2781640625 64.73772048000001 55.2781640625 59.85000000000002 Z"/></g><g><path fill="none" stroke="#000000" paint-order="fill stroke markers" d=" M 55.2781640625 59.85000000000002 C 55.2781640625 54.96227952000004 59.235966430499985 51 64.1181640625 51 C 69.00036169450001 51 72.9581640625 54.96227952000004 72.9581640625 59.85000000000002 C 72.9581640625 64.73772048000001 69.00036169450001 68.69999999999999 64.1181640625 68.69999999999999 C 59.235966430499985 68.69999999999999 55.2781640625 64.73772048000001 55.2781640625 59.85000000000002 Z" stroke-miterlimit="10" stroke-dasharray=""/></g><g><path fill="none" stroke="#000000" paint-order="fill stroke markers" d=" M 64.1181640625 68.69999999999999 L 64.1181640625 86.30000000000001" stroke-miterlimit="10" stroke-dasharray=""/></g><g><path fill="none" stroke="#000000" paint-order="fill stroke markers" d=" M 54.758164062499986 75.30000000000001 L 73.47816406250001 75.30000000000001" stroke-miterlimit="10" stroke-dasharray=""/></g><g><path fill="none" stroke="#000000" paint-order="fill stroke markers" d=" M 64.1181640625 86.30000000000001 L 51.1181640625 104" stroke-miterlimit="10" stroke-dasharray=""/></g><g><path fill="none" stroke="#000000" paint-order="fill stroke markers" d=" M 64.1181640625 86.30000000000001 L 77.1181640625 104" stroke-miterlimit="10" stroke-dasharray=""/></g><g><g><path fill="none" stroke="none"/><text fill="#000000" stroke="none" font-family="Arial" font-size="13px" font-style="normal" font-weight="bold" text-decoration="undefined" x="166.6181640625" y="426.5" text-anchor="middle" dominant-baseline="central" transform="matrix(1 0 0 1 -102 -308)">Admin generico</text></g></g><g><path fill="#C0C0C0" stroke="none" paint-order="stroke fill markers" d=" M 233 101 C 233 81.1177472 315.3795968 65 417 65 C 518.6204032 65 601 81.1177472 601 101 C 601 120.8822528 518.6204032 137 417 137 C 315.3795968 137 233 120.8822528 233 101 Z" fill-opacity="0.2"/></g><g><path fill="#ffffff" stroke="none" paint-order="stroke fill markers" d=" M 226 94 C 226 74.1177472 308.3795968 58 410 58 C 511.62040320000006 58 594 74.1177472 594 94 C 594 113.8822528 511.62040320000006 130 410 130 C 308.3795968 130 226 113.8822528 226 94 Z"/></g><g><path fill="none" stroke="#000000" paint-order="fill stroke markers" d=" M 226 94 C 226 74.1177472 308.3795968 58 410 58 C 511.62040320000006 58 594 74.1177472 594 94 C 594 113.8822528 511.62040320000006 130 410 130 C 308.3795968 130 226 113.8822528 226 94 Z" stroke-miterlimit="10" stroke-dasharray=""/></g><g><g><path fill="none" stroke="none"/><text fill="#000000" stroke="none" font-family="Arial" font-size="13px" font-style="normal" font-weight="bold" text-decoration="undefined" x="512" y="390" text-anchor="middle" dominant-baseline="central" transform="matrix(1 0 0 1 -102 -308)">UC38 - Visualizzazione lista delle</text><text fill="#000000" stroke="none" font-family="Arial" font-size="13px" font-style="normal" font-weight="bold" text-decoration="undefined" x="512" y="403" text-anchor="middle" dominant-baseline="central" transform="matrix(1 0 0 1 -102 -308)">richieste di commissioning e</text><text fill="#000000" stroke="none" font-family="Arial" font-size="13px" font-style="normal" font-weight="bold" text-decoration="undefined" x="512" y="416" text-anchor="middle" dominant-baseline="central" transform="matrix(1 0 0 1 -102 -308)">decommissioning di gateway del tenant</text></g></g><g><path fill="#C0C0C0" stroke="none" paint-order="stroke fill markers" d=" M 241 229 C 241 209.11774720000005 318.0070144 193 413 193 C 507.9929856 193 585 209.11774720000005 585 229 C 585 248.88225279999995 507.9929856 265 413 265 C 318.0070144 265 241 248.88225279999995 241 229 Z" fill-opacity="0.2"/></g><g><path fill="#ffffff" stroke="none" paint-order="stroke fill markers" d=" M 234 222 C 234 202.1177472 311.0070144 186 406 186 C 500.9929856 186 578 202.1177472 578 222 C 578 241.88225279999995 500.9929856 258 406 258 C 311.0070144 258 234 241.88225279999995 234 222 Z"/></g><g><path fill="none" stroke="#000000" paint-order="fill stroke markers" d=" M 234 222 C 234 202.1177472 311.0070144 186 406 186 C 500.9929856 186 578 202.1177472 578 222 C 578 241.88225279999995 500.9929856 258 406 258 C 311.0070144 258 234 241.88225279999995 234 222 Z" stroke-miterlimit="10" stroke-dasharray=""/></g><g><g><path fill="none" stroke="none"/><text fill="#000000" stroke="none" font-family="Arial" font-size="13px" font-style="normal" font-weight="bold" text-decoration="undefined" x="508" y="518" text-anchor="middle" dominant-baseline="central" transform="matrix(1 0 0 1 -102 -308)">UC39 - Visualizzazione richiesta di</text><text fill="#000000" stroke="none" font-family="Arial" font-size="13px" font-style="normal" font-weight="bold" text-decoration="undefined" x="508" y="531" text-anchor="middle" dominant-baseline="central" transform="matrix(1 0 0 1 -102 -308)">commissioning e decomissioning di</text><text fill="#000000" stroke="none" font-family="Arial" font-size="13px" font-style="normal" font-weight="bold" text-decoration="undefined" x="508" y="544" text-anchor="middle" dominant-baseline="central" transform="matrix(1 0 0 1 -102 -308)">gateway del tenant</text></g></g><g><path fill="none" stroke="#000000" paint-order="fill stroke markers" d=" M 409 131 L 407 185" stroke-miterlimit="10" stroke-dasharray="3"/></g><g><path fill="none" stroke="#000000" paint-order="fill stroke markers" d=" M 403.1695039351113 174.68848702193162 L 407 185 L 411.582771008294 175.00008950612357" stroke-miterlimit="10" stroke-dasharray=""/></g><g><rect fill="#ffffff" stroke="none" x="480" y="458" width="55.65625" height="13" transform="matrix(1 0 0 1 -102 -308)"/></g><g><g><path fill="none" stroke="none"/><text fill="#000000" stroke="none" font-family="Arial" font-size="13px" font-style="normal" font-weight="normal" text-decoration="undefined" x="507.828125" y="464.5" text-anchor="middle" dominant-baseline="central" transform="matrix(1 0 0 1 -102 -308)">«include»</text></g></g><g><path fill="none" stroke="#000000" paint-order="fill stroke markers" d=" M 225 92 L 119 91" stroke-miterlimit="10" stroke-dasharray=""/></g><g><path fill="#C0C0C0" stroke="none" paint-order="stroke fill markers" d=" M 689 229 C 689 209.11774720000005 764.2161536 193 857 193 C 949.7838463999999 193 1025 209.11774720000005 1025 229 C 1025 248.88225279999995 949.7838463999999 265 857 265 C 764.2161536 265 689 248.88225279999995 689 229 Z" fill-opacity="0.2"/></g><g><path fill="#ffffff" stroke="none" paint-order="stroke fill markers" d=" M 682 222 C 682 202.1177472 757.2161536 186 850 186 C 942.7838463999999 186 1018 202.1177472 1018 222 C 1018 241.88225279999995 942.7838463999999 258 850 258 C 757.2161536 258 682 241.88225279999995 682 222 Z"/></g><g><path fill="none" stroke="#000000" paint-order="fill stroke markers" d=" M 682 222 C 682 202.1177472 757.2161536 186 850 186 C 942.7838463999999 186 1018 202.1177472 1018 222 C 1018 241.88225279999995 942.7838463999999 258 850 258 C 757.2161536 258 682 241.88225279999995 682 222 Z" stroke-miterlimit="10" stroke-dasharray=""/></g><g><g><path fill="none" stroke="none"/><text fill="#000000" stroke="none" font-family="Arial" font-size="13px" font-style="normal" font-weight="bold" text-decoration="undefined" x="952" y="518" text-anchor="middle" dominant-baseline="central" transform="matrix(1 0 0 1 -102 -308)">UC39.1 - Visualizzazione stato</text><text fill="#000000" stroke="none" font-family="Arial" font-size="13px" font-style="normal" font-weight="bold" text-decoration="undefined" x="952" y="531" text-anchor="middle" dominant-baseline="central" transform="matrix(1 0 0 1 -102 -308)">richiesta di commissioning e</text><text fill="#000000" stroke="none" font-family="Arial" font-size="13px" font-style="normal" font-weight="bold" text-decoration="undefined" x="952" y="544" text-anchor="middle" dominant-baseline="central" transform="matrix(1 0 0 1 -102 -308)">decommissioning di gateway</text></g></g><g><path fill="none" stroke="#000000" paint-order="fill stroke markers" d=" M 579 222 L 681 222" stroke-miterlimit="10" stroke-dasharray="3"/></g><g><path fill="none" stroke="#000000" paint-order="fill stroke markers" d=" M 670.8373251423759 226.209517756016 L 681 222 L 670.8373251423758 217.790482243984" stroke-miterlimit="10" stroke-dasharray=""/></g><g><rect fill="#ffffff" stroke="none" x="700" y="526" width="55.65625" height="13" transform="matrix(1 0 0 1 -102 -308)"/></g><g><g><path fill="none" stroke="none"/><text fill="#000000" stroke="none" font-family="Arial" font-size="13px" font-style="normal" font-weight="normal" text-decoration="undefined" x="727.828125" y="532.5" text-anchor="middle" dominant-baseline="central" transform="matrix(1 0 0 1 -102 -308)">«include»</text></g></g></g></svg>