<svg version="1.1" xmlns="http://www.w3.org/2000/svg" xmlns:xlink="http://www.w3.org/1999/xlink" width="901" height="236"><defs/><g><g><rect fill="#C0C0C0" stroke="none" x="379" y="361" width="696" height="216" transform="matrix(1 0 0 1 -178 -344)" fill-opacity="0.2"/></g><g><rect fill="#ffffff" stroke="none" x="372" y="354" width="696" height="216" transform="matrix(1 0 0 1 -178 -344)"/></g><g><path fill="none" stroke="#000000" paint-order="fill stroke markers" d=" M 194 10 L 890 10 L 890 226 L 194 226 L 194 10 Z Z" stroke-miterlimit="10" stroke-dasharray=""/></g><g><g><path fill="none" stroke="none"/><text fill="#000000" stroke="none" font-family="Arial" font-size="13px" font-style="normal" font-weight="bold" text-decoration="undefined" x="720.5" y="367.5" text-anchor="middle" dominant-baseline="central" transform="matrix(1 0 0 1 -178 -344)">Sistema Cloud</text></g></g><g><path fill="#ffffff" stroke="none" paint-order="stroke fill markers" d=" M 55.2781640625 83.85000000000002 C 55.2781640625 78.96227952000004 59.235966430499985 75 64.1181640625 75 C 69.00036169450001 75 72.9581640625 78.96227952000004 72.9581640625 83.85000000000002 C 72.9581640625 88.73772048000001 69.00036169450001 92.69999999999999 64.1181640625 92.69999999999999 C 59.235966430499985 92.69999999999999 55.2781640625 88.73772048000001 55.2781640625 83.85000000000002 Z"/></g><g><path fill="none" stroke="#000000" paint-order="fill stroke markers" d=" M 55.2781640625 83.85000000000002 C 55.2781640625 78.96227952000004 59.235966430499985 75 64.1181640625 75 C 69.00036169450001 75 72.9581640625 78.96227952000004 72.9581640625 83.85000000000002 C 72.9581640625 88.73772048000001 69.00036169450001 92.69999999999999 64.1181640625 92.69999999999999 C 59.235966430499985 92.69999999999999 55.2781640625 88.73772048000001 55.2781640625 83.85000000000002 Z" stroke-miterlimit="10" stroke-dasharray=""/></g><g><path fill="none" stroke="#000000" paint-order="fill stroke markers" d=" M 64.1181640625 92.69999999999999 L 64.1181640625 110.30000000000001" stroke-miterlimit="10" stroke-dasharray=""/></g><g><path fill="none" stroke="#000000" paint-order="fill stroke markers" d=" M 54.758164062499986 99.30000000000001 L 73.47816406250001 99.30000000000001" stroke-miterlimit="10" stroke-dasharray=""/></g><g><path fill="none" stroke="#000000" paint-order="fill stroke markers" d=" M 64.1181640625 110.30000000000001 L 51.1181640625 128" stroke-miterlimit="10" stroke-dasharray=""/></g><g><path fill="none" stroke="#000000" paint-order="fill stroke markers" d=" M 64.1181640625 110.30000000000001 L 77.1181640625 128" stroke-miterlimit="10" stroke-dasharray=""/></g><g><g><path fill="none" stroke="none"/><text fill="#000000" stroke="none" font-family="Arial" font-size="13px" font-style="normal" font-weight="bold" text-decoration="undefined" x="242.6181640625" y="486.5" text-anchor="middle" dominant-baseline="central" transform="matrix(1 0 0 1 -178 -344)">Admin generico</text></g></g><g><path fill="#C0C0C0" stroke="none" paint-order="stroke fill markers" d=" M 273 131.5 C 273 116.86445279999998 323.1441024 105 385 105 C 446.85589760000005 105 497 116.86445279999998 497 131.5 C 497 146.13554720000002 446.85589760000005 158 385 158 C 323.1441024 158 273 146.13554720000002 273 131.5 Z" fill-opacity="0.2"/></g><g><path fill="#ffffff" stroke="none" paint-order="stroke fill markers" d=" M 266 124.5 C 266 109.86445279999998 316.1441024 98 378 98 C 439.85589760000005 98 490 109.86445279999998 490 124.5 C 490 139.13554720000002 439.85589760000005 151 378 151 C 316.1441024 151 266 139.13554720000002 266 124.5 Z"/></g><g><path fill="none" stroke="#000000" paint-order="fill stroke markers" d=" M 266 124.5 C 266 109.86445279999998 316.1441024 98 378 98 C 439.85589760000005 98 490 109.86445279999998 490 124.5 C 490 139.13554720000002 439.85589760000005 151 378 151 C 316.1441024 151 266 139.13554720000002 266 124.5 Z" stroke-miterlimit="10" stroke-dasharray=""/></g><g><g><path fill="none" stroke="none"/><text fill="#000000" stroke="none" font-family="Arial" font-size="13px" font-style="normal" font-weight="bold" text-decoration="undefined" x="556" y="463" text-anchor="middle" dominant-baseline="central" transform="matrix(1 0 0 1 -178 -344)">UC39 - Eliminazione</text><text fill="#000000" stroke="none" font-family="Arial" font-size="13px" font-style="normal" font-weight="bold" text-decoration="undefined" x="556" y="476" text-anchor="middle" dominant-baseline="central" transform="matrix(1 0 0 1 -178 -344)">Tenant User</text></g></g><g><path fill="#C0C0C0" stroke="none" paint-order="stroke fill markers" d=" M 609 131.5 C 609 116.86445279999998 664.5166848 105 733 105 C 801.4833152 105 857 116.86445279999998 857 131.5 C 857 146.13554720000002 801.4833152 158 733 158 C 664.5166848 158 609 146.13554720000002 609 131.5 Z" fill-opacity="0.2"/></g><g><path fill="#ffffff" stroke="none" paint-order="stroke fill markers" d=" M 602 124.5 C 602 109.86445279999998 657.5166848 98 726 98 C 794.4833152 98 850 109.86445279999998 850 124.5 C 850 139.13554720000002 794.4833152 151 726 151 C 657.5166848 151 602 139.13554720000002 602 124.5 Z"/></g><g><path fill="none" stroke="#000000" paint-order="fill stroke markers" d=" M 602 124.5 C 602 109.86445279999998 657.5166848 98 726 98 C 794.4833152 98 850 109.86445279999998 850 124.5 C 850 139.13554720000002 794.4833152 151 726 151 C 657.5166848 151 602 139.13554720000002 602 124.5 Z" stroke-miterlimit="10" stroke-dasharray=""/></g><g><g><path fill="none" stroke="none"/><text fill="#000000" stroke="none" font-family="Arial" font-size="13px" font-style="normal" font-weight="bold" text-decoration="undefined" x="904" y="463" text-anchor="middle" dominant-baseline="central" transform="matrix(1 0 0 1 -178 -344)">UC39.1 - Conferma </text><text fill="#000000" stroke="none" font-family="Arial" font-size="13px" font-style="normal" font-weight="bold" text-decoration="undefined" x="904" y="476" text-anchor="middle" dominant-baseline="central" transform="matrix(1 0 0 1 -178 -344)">eliminazione Tenant User</text></g></g><g><path fill="none" stroke="#000000" paint-order="fill stroke markers" d=" M 119 116 L 265 120" stroke-miterlimit="10" stroke-dasharray=""/></g><g><path fill="none" stroke="#000000" paint-order="fill stroke markers" d=" M 491 124 L 601 124" stroke-miterlimit="10" stroke-dasharray="3"/></g><g><path fill="none" stroke="#000000" paint-order="fill stroke markers" d=" M 590.8373251423759 128.209517756016 L 601 124 L 590.8373251423758 119.790482243984" stroke-miterlimit="10" stroke-dasharray=""/></g><g><rect fill="#ffffff" stroke="none" x="691" y="450" width="55.65625" height="13" transform="matrix(1 0 0 1 -178 -344)"/></g><g><g><path fill="none" stroke="none"/><text fill="#000000" stroke="none" font-family="Arial" font-size="13px" font-style="normal" font-weight="normal" text-decoration="undefined" x="718.828125" y="456.5" text-anchor="middle" dominant-baseline="central" transform="matrix(1 0 0 1 -178 -344)">«include»</text></g></g></g></svg>