<svg version="1.1" xmlns="http://www.w3.org/2000/svg" xmlns:xlink="http://www.w3.org/1999/xlink" width="807" height="156"><defs/><g><g><rect fill="#C0C0C0" stroke="none" x="782" y="606" width="600" height="136" transform="matrix(1 0 0 1 -579 -589)" fill-opacity="0.2"/></g><g><rect fill="#ffffff" stroke="none" x="775" y="599" width="600" height="136" transform="matrix(1 0 0 1 -579 -589)"/></g><g><path fill="none" stroke="#000000" paint-order="fill stroke markers" d=" M 196 10 L 796 10 L 796 146 L 196 146 L 196 10 Z Z" stroke-miterlimit="10" stroke-dasharray=""/></g><g><g><path fill="none" stroke="none"/><text fill="#000000" stroke="none" font-family="Arial" font-size="13px" font-style="normal" font-weight="bold" text-decoration="undefined" x="1075.5" y="612.5" text-anchor="middle" dominant-baseline="central" transform="matrix(1 0 0 1 -579 -589)">Dashboard admin</text></g></g><g><path fill="#ffffff" stroke="none" paint-order="stroke fill markers" d=" M 55.27816406249997 38.85000000000002 C 55.27816406249997 33.96227952000004 59.23596643049996 30 64.1181640625 30 C 69.00036169450004 30 72.95816406250003 33.96227952000004 72.95816406250003 38.85000000000002 C 72.95816406250003 43.73772048000001 69.00036169450004 47.700000000000045 64.1181640625 47.700000000000045 C 59.23596643049996 47.700000000000045 55.27816406249997 43.73772048000001 55.27816406249997 38.85000000000002 Z"/></g><g><path fill="none" stroke="#000000" paint-order="fill stroke markers" d=" M 55.27816406249997 38.85000000000002 C 55.27816406249997 33.96227952000004 59.23596643049996 30 64.1181640625 30 C 69.00036169450004 30 72.95816406250003 33.96227952000004 72.95816406250003 38.85000000000002 C 72.95816406250003 43.73772048000001 69.00036169450004 47.700000000000045 64.1181640625 47.700000000000045 C 59.23596643049996 47.700000000000045 55.27816406249997 43.73772048000001 55.27816406249997 38.85000000000002 Z" stroke-miterlimit="10" stroke-dasharray=""/></g><g><path fill="none" stroke="#000000" paint-order="fill stroke markers" d=" M 64.1181640625 47.700000000000045 L 64.1181640625 65.29999999999995" stroke-miterlimit="10" stroke-dasharray=""/></g><g><path fill="none" stroke="#000000" paint-order="fill stroke markers" d=" M 54.758164062499986 54.299999999999955 L 73.47816406250001 54.299999999999955" stroke-miterlimit="10" stroke-dasharray=""/></g><g><path fill="none" stroke="#000000" paint-order="fill stroke markers" d=" M 64.1181640625 65.29999999999995 L 51.1181640625 83" stroke-miterlimit="10" stroke-dasharray=""/></g><g><path fill="none" stroke="#000000" paint-order="fill stroke markers" d=" M 64.1181640625 65.29999999999995 L 77.1181640625 83" stroke-miterlimit="10" stroke-dasharray=""/></g><g><g><path fill="none" stroke="none"/><text fill="#000000" stroke="none" font-family="Arial" font-size="13px" font-style="normal" font-weight="bold" text-decoration="undefined" x="643.6181640625" y="686.5" text-anchor="middle" dominant-baseline="central" transform="matrix(1 0 0 1 -579 -589)">Admin generico</text></g></g><g><path fill="#C0C0C0" stroke="none" paint-order="stroke fill markers" d=" M 243 77 C 243 57.11774720000005 285.9806592 41 339 41 C 392.0193408 41 435 57.11774720000005 435 77 C 435 96.88225279999995 392.0193408 113 339 113 C 285.9806592 113 243 96.88225279999995 243 77 Z" fill-opacity="0.2"/></g><g><path fill="#ffffff" stroke="none" paint-order="stroke fill markers" d=" M 236 70 C 236 50.11774720000005 278.9806592 34 332 34 C 385.0193408 34 428 50.11774720000005 428 70 C 428 89.88225279999995 385.0193408 106 332 106 C 278.9806592 106 236 89.88225279999995 236 70 Z"/></g><g><path fill="none" stroke="#000000" paint-order="fill stroke markers" d=" M 236 70 C 236 50.11774720000005 278.9806592 34 332 34 C 385.0193408 34 428 50.11774720000005 428 70 C 428 89.88225279999995 385.0193408 106 332 106 C 278.9806592 106 236 89.88225279999995 236 70 Z" stroke-miterlimit="10" stroke-dasharray=""/></g><g><g><path fill="none" stroke="none"/><text fill="#000000" stroke="none" font-family="Arial" font-size="13px" font-style="normal" font-weight="bold" text-decoration="undefined" x="911" y="653.5" text-anchor="middle" dominant-baseline="central" transform="matrix(1 0 0 1 -579 -589)">UC39 - Eliminazione</text><text fill="#000000" stroke="none" font-family="Arial" font-size="13px" font-style="normal" font-weight="bold" text-decoration="undefined" x="911" y="666.5" text-anchor="middle" dominant-baseline="central" transform="matrix(1 0 0 1 -579 -589)">Tenant User</text></g></g><g><path fill="#C0C0C0" stroke="none" paint-order="stroke fill markers" d=" M 539 93 C 539 73.11774720000005 590.9349632000001 57 655 57 C 719.0650367999999 57 771 73.11774720000005 771 93 C 771 112.88225279999995 719.0650367999999 129 655 129 C 590.9349632000001 129 539 112.88225279999995 539 93 Z" fill-opacity="0.2"/></g><g><path fill="#ffffff" stroke="none" paint-order="stroke fill markers" d=" M 532 86 C 532 66.11774720000005 583.9349632000001 50 648 50 C 712.0650367999999 50 764 66.11774720000005 764 86 C 764 105.88225279999995 712.0650367999999 122 648 122 C 583.9349632000001 122 532 105.88225279999995 532 86 Z"/></g><g><path fill="none" stroke="#000000" paint-order="fill stroke markers" d=" M 532 86 C 532 66.11774720000005 583.9349632000001 50 648 50 C 712.0650367999999 50 764 66.11774720000005 764 86 C 764 105.88225279999995 712.0650367999999 122 648 122 C 583.9349632000001 122 532 105.88225279999995 532 86 Z" stroke-miterlimit="10" stroke-dasharray=""/></g><g><g><path fill="none" stroke="none"/><text fill="#000000" stroke="none" font-family="Arial" font-size="13px" font-style="normal" font-weight="bold" text-decoration="undefined" x="1227" y="663" text-anchor="middle" dominant-baseline="central" transform="matrix(1 0 0 1 -579 -589)">UC39.1 - Conferma </text><text fill="#000000" stroke="none" font-family="Arial" font-size="13px" font-style="normal" font-weight="bold" text-decoration="undefined" x="1227" y="676" text-anchor="middle" dominant-baseline="central" transform="matrix(1 0 0 1 -579 -589)">eliminazione Tenant</text><text fill="#000000" stroke="none" font-family="Arial" font-size="13px" font-style="normal" font-weight="bold" text-decoration="undefined" x="1227" y="689" text-anchor="middle" dominant-baseline="central" transform="matrix(1 0 0 1 -579 -589)">User</text></g></g><g><path fill="none" stroke="#000000" paint-order="fill stroke markers" d=" M 119 69 L 235 70" stroke-miterlimit="10" stroke-dasharray=""/></g><g><path fill="none" stroke="#000000" paint-order="fill stroke markers" d=" M 429 75 L 531 80" stroke-miterlimit="10" stroke-dasharray="3"/></g><g><path fill="none" stroke="#000000" paint-order="fill stroke markers" d=" M 520.6434118033915 83.70689640074693 L 531 80 L 521.0556146740976 75.29795783834572" stroke-miterlimit="10" stroke-dasharray=""/></g><g><rect fill="#ffffff" stroke="none" x="1026" y="648" width="55.65625" height="13" transform="matrix(1 0 0 1 -579 -589)"/></g><g><g><path fill="none" stroke="none"/><text fill="#000000" stroke="none" font-family="Arial" font-size="13px" font-style="normal" font-weight="normal" text-decoration="undefined" x="1053.828125" y="654.5" text-anchor="middle" dominant-baseline="central" transform="matrix(1 0 0 1 -579 -589)">«include»</text></g></g></g></svg>