<svg version="1.1" xmlns="http://www.w3.org/2000/svg" xmlns:xlink="http://www.w3.org/1999/xlink" width="893" height="204"><defs/><g><g><rect fill="#C0C0C0" stroke="none" x="628" y="477" width="656" height="184" transform="matrix(1 0 0 1 -395 -460)" fill-opacity="0.2"/></g><g><rect fill="#ffffff" stroke="none" x="621" y="470" width="656" height="184" transform="matrix(1 0 0 1 -395 -460)"/></g><g><path fill="none" stroke="#000000" paint-order="fill stroke markers" d=" M 226 10 L 882 10 L 882 194 L 226 194 L 226 10 Z Z" stroke-miterlimit="10" stroke-dasharray=""/></g><g><g><path fill="none" stroke="none"/><text fill="#000000" stroke="none" font-family="Arial" font-size="13px" font-style="normal" font-weight="bold" text-decoration="undefined" x="949.5" y="483.5" text-anchor="middle" dominant-baseline="central" transform="matrix(1 0 0 1 -395 -460)">Sistema Cloud</text></g></g><g><path fill="#ffffff" stroke="none" paint-order="stroke fill markers" d=" M 55.278164062500025 59.85000000000002 C 55.278164062500025 54.96227952000004 59.235966430500014 51 64.1181640625 51 C 69.00036169449999 51 72.95816406249997 54.96227952000004 72.95816406249997 59.85000000000002 C 72.95816406249997 64.73772048000001 69.00036169449999 68.70000000000005 64.1181640625 68.70000000000005 C 59.235966430500014 68.70000000000005 55.278164062500025 64.73772048000001 55.278164062500025 59.85000000000002 Z"/></g><g><path fill="none" stroke="#000000" paint-order="fill stroke markers" d=" M 55.278164062500025 59.85000000000002 C 55.278164062500025 54.96227952000004 59.235966430500014 51 64.1181640625 51 C 69.00036169449999 51 72.95816406249997 54.96227952000004 72.95816406249997 59.85000000000002 C 72.95816406249997 64.73772048000001 69.00036169449999 68.70000000000005 64.1181640625 68.70000000000005 C 59.235966430500014 68.70000000000005 55.278164062500025 64.73772048000001 55.278164062500025 59.85000000000002 Z" stroke-miterlimit="10" stroke-dasharray=""/></g><g><path fill="none" stroke="#000000" paint-order="fill stroke markers" d=" M 64.1181640625 68.70000000000005 L 64.1181640625 86.29999999999995" stroke-miterlimit="10" stroke-dasharray=""/></g><g><path fill="none" stroke="#000000" paint-order="fill stroke markers" d=" M 54.758164062499986 75.29999999999995 L 73.47816406250001 75.29999999999995" stroke-miterlimit="10" stroke-dasharray=""/></g><g><path fill="none" stroke="#000000" paint-order="fill stroke markers" d=" M 64.1181640625 86.29999999999995 L 51.1181640625 104" stroke-miterlimit="10" stroke-dasharray=""/></g><g><path fill="none" stroke="#000000" paint-order="fill stroke markers" d=" M 64.1181640625 86.29999999999995 L 77.1181640625 104" stroke-miterlimit="10" stroke-dasharray=""/></g><g><g><path fill="none" stroke="none"/><text fill="#000000" stroke="none" font-family="Arial" font-size="13px" font-style="normal" font-weight="bold" text-decoration="undefined" x="459.6181640625" y="578.5" text-anchor="middle" dominant-baseline="central" transform="matrix(1 0 0 1 -395 -460)">Admin generico</text></g></g><g><path fill="#C0C0C0" stroke="none" paint-order="stroke fill markers" d=" M 273 107.5 C 273 92.86445279999998 323.14410239999995 81 385 81 C 446.85589760000005 81 497 92.86445279999998 497 107.5 C 497 122.13554720000002 446.85589760000005 134 385 134 C 323.14410239999995 134 273 122.13554720000002 273 107.5 Z" fill-opacity="0.2"/></g><g><path fill="#ffffff" stroke="none" paint-order="stroke fill markers" d=" M 266 100.5 C 266 85.86445279999998 316.14410239999995 74 378 74 C 439.85589760000005 74 490 85.86445279999998 490 100.5 C 490 115.13554720000002 439.85589760000005 127 378 127 C 316.14410239999995 127 266 115.13554720000002 266 100.5 Z"/></g><g><path fill="none" stroke="#000000" paint-order="fill stroke markers" d=" M 266 100.5 C 266 85.86445279999998 316.14410239999995 74 378 74 C 439.85589760000005 74 490 85.86445279999998 490 100.5 C 490 115.13554720000002 439.85589760000005 127 378 127 C 316.14410239999995 127 266 115.13554720000002 266 100.5 Z" stroke-miterlimit="10" stroke-dasharray=""/></g><g><g><path fill="none" stroke="none"/><text fill="#000000" stroke="none" font-family="Arial" font-size="13px" font-style="normal" font-weight="bold" text-decoration="undefined" x="773" y="555" text-anchor="middle" dominant-baseline="central" transform="matrix(1 0 0 1 -395 -460)">UC39 - Eliminazione</text><text fill="#000000" stroke="none" font-family="Arial" font-size="13px" font-style="normal" font-weight="bold" text-decoration="undefined" x="773" y="568" text-anchor="middle" dominant-baseline="central" transform="matrix(1 0 0 1 -395 -460)">Tenant User</text></g></g><g><path fill="#C0C0C0" stroke="none" paint-order="stroke fill markers" d=" M 609 107.5 C 609 92.86445279999998 664.5166847999999 81 733 81 C 801.4833152000001 81 857 92.86445279999998 857 107.5 C 857 122.13554720000002 801.4833152000001 134 733 134 C 664.5166847999999 134 609 122.13554720000002 609 107.5 Z" fill-opacity="0.2"/></g><g><path fill="#ffffff" stroke="none" paint-order="stroke fill markers" d=" M 602 100.5 C 602 85.86445279999998 657.5166847999999 74 726 74 C 794.4833152000001 74 850 85.86445279999998 850 100.5 C 850 115.13554720000002 794.4833152000001 127 726 127 C 657.5166847999999 127 602 115.13554720000002 602 100.5 Z"/></g><g><path fill="none" stroke="#000000" paint-order="fill stroke markers" d=" M 602 100.5 C 602 85.86445279999998 657.5166847999999 74 726 74 C 794.4833152000001 74 850 85.86445279999998 850 100.5 C 850 115.13554720000002 794.4833152000001 127 726 127 C 657.5166847999999 127 602 115.13554720000002 602 100.5 Z" stroke-miterlimit="10" stroke-dasharray=""/></g><g><g><path fill="none" stroke="none"/><text fill="#000000" stroke="none" font-family="Arial" font-size="13px" font-style="normal" font-weight="bold" text-decoration="undefined" x="1121" y="555" text-anchor="middle" dominant-baseline="central" transform="matrix(1 0 0 1 -395 -460)">UC39.1 - Conferma </text><text fill="#000000" stroke="none" font-family="Arial" font-size="13px" font-style="normal" font-weight="bold" text-decoration="undefined" x="1121" y="568" text-anchor="middle" dominant-baseline="central" transform="matrix(1 0 0 1 -395 -460)">eliminazione Tenant User</text></g></g><g><path fill="none" stroke="#000000" paint-order="fill stroke markers" d=" M 119 92 L 265 96" stroke-miterlimit="10" stroke-dasharray=""/></g><g><path fill="none" stroke="#000000" paint-order="fill stroke markers" d=" M 491 100 L 601 100" stroke-miterlimit="10" stroke-dasharray="3"/></g><g><path fill="none" stroke="#000000" paint-order="fill stroke markers" d=" M 590.8373251423759 104.209517756016 L 601 100 L 590.8373251423758 95.790482243984" stroke-miterlimit="10" stroke-dasharray=""/></g><g><rect fill="#ffffff" stroke="none" x="908" y="542" width="55.65625" height="13" transform="matrix(1 0 0 1 -395 -460)"/></g><g><g><path fill="none" stroke="none"/><text fill="#000000" stroke="none" font-family="Arial" font-size="13px" font-style="normal" font-weight="normal" text-decoration="undefined" x="935.828125" y="548.5" text-anchor="middle" dominant-baseline="central" transform="matrix(1 0 0 1 -395 -460)">«include»</text></g></g></g></svg>