<svg version="1.1" xmlns="http://www.w3.org/2000/svg" xmlns:xlink="http://www.w3.org/1999/xlink" width="860" height="100"><defs/><g><g><path fill="#ffffff" stroke="none" paint-order="stroke fill markers" d=" M 55.278164062500025 19.850000000000023 C 55.278164062500025 14.962279520000038 59.235966430500014 11 64.1181640625 11 C 69.00036169449999 11 72.95816406249997 14.962279520000038 72.95816406249997 19.850000000000023 C 72.95816406249997 24.737720480000007 69.00036169449999 28.700000000000045 64.1181640625 28.700000000000045 C 59.235966430500014 28.700000000000045 55.278164062500025 24.737720480000007 55.278164062500025 19.850000000000023 Z"/></g><g><path fill="none" stroke="#000000" paint-order="fill stroke markers" d=" M 55.278164062500025 19.850000000000023 C 55.278164062500025 14.962279520000038 59.235966430500014 11 64.1181640625 11 C 69.00036169449999 11 72.95816406249997 14.962279520000038 72.95816406249997 19.850000000000023 C 72.95816406249997 24.737720480000007 69.00036169449999 28.700000000000045 64.1181640625 28.700000000000045 C 59.235966430500014 28.700000000000045 55.278164062500025 24.737720480000007 55.278164062500025 19.850000000000023 Z" stroke-miterlimit="10" stroke-dasharray=""/></g><g><path fill="none" stroke="#000000" paint-order="fill stroke markers" d=" M 64.1181640625 28.700000000000045 L 64.1181640625 46.299999999999955" stroke-miterlimit="10" stroke-dasharray=""/></g><g><path fill="none" stroke="#000000" paint-order="fill stroke markers" d=" M 54.758164062499986 35.299999999999955 L 73.47816406250001 35.299999999999955" stroke-miterlimit="10" stroke-dasharray=""/></g><g><path fill="none" stroke="#000000" paint-order="fill stroke markers" d=" M 64.1181640625 46.299999999999955 L 51.1181640625 64" stroke-miterlimit="10" stroke-dasharray=""/></g><g><path fill="none" stroke="#000000" paint-order="fill stroke markers" d=" M 64.1181640625 46.299999999999955 L 77.1181640625 64" stroke-miterlimit="10" stroke-dasharray=""/></g><g><g><path fill="none" stroke="none"/><text fill="#000000" stroke="none" font-family="Arial" font-size="13px" font-style="normal" font-weight="bold" text-decoration="undefined" x="283.6181640625" y="635.5" text-anchor="middle" dominant-baseline="central" transform="matrix(1 0 0 1 -219 -557)">Admin generico</text></g></g><g><path fill="#C0C0C0" stroke="none" paint-order="stroke fill markers" d=" M 273 67.5 C 273 52.86445279999998 323.14410239999995 41 385 41 C 446.85589760000005 41 497 52.86445279999998 497 67.5 C 497 82.13554720000002 446.85589760000005 94 385 94 C 323.14410239999995 94 273 82.13554720000002 273 67.5 Z" fill-opacity="0.2"/></g><g><path fill="#ffffff" stroke="none" paint-order="stroke fill markers" d=" M 266 60.5 C 266 45.86445279999998 316.14410239999995 34 378 34 C 439.85589760000005 34 490 45.86445279999998 490 60.5 C 490 75.13554720000002 439.85589760000005 87 378 87 C 316.14410239999995 87 266 75.13554720000002 266 60.5 Z"/></g><g><path fill="none" stroke="#000000" paint-order="fill stroke markers" d=" M 266 60.5 C 266 45.86445279999998 316.14410239999995 34 378 34 C 439.85589760000005 34 490 45.86445279999998 490 60.5 C 490 75.13554720000002 439.85589760000005 87 378 87 C 316.14410239999995 87 266 75.13554720000002 266 60.5 Z" stroke-miterlimit="10" stroke-dasharray=""/></g><g><g><path fill="none" stroke="none"/><text fill="#000000" stroke="none" font-family="Arial" font-size="13px" font-style="normal" font-weight="bold" text-decoration="undefined" x="597" y="612" text-anchor="middle" dominant-baseline="central" transform="matrix(1 0 0 1 -219 -557)">UC39 - Eliminazione</text><text fill="#000000" stroke="none" font-family="Arial" font-size="13px" font-style="normal" font-weight="bold" text-decoration="undefined" x="597" y="625" text-anchor="middle" dominant-baseline="central" transform="matrix(1 0 0 1 -219 -557)">Tenant User</text></g></g><g><path fill="#C0C0C0" stroke="none" paint-order="stroke fill markers" d=" M 609 67.5 C 609 52.86445279999998 664.5166848 41 733 41 C 801.4833152 41 857 52.86445279999998 857 67.5 C 857 82.13554720000002 801.4833152 94 733 94 C 664.5166848 94 609 82.13554720000002 609 67.5 Z" fill-opacity="0.2"/></g><g><path fill="#ffffff" stroke="none" paint-order="stroke fill markers" d=" M 602 60.5 C 602 45.86445279999998 657.5166848 34 726 34 C 794.4833152 34 850 45.86445279999998 850 60.5 C 850 75.13554720000002 794.4833152 87 726 87 C 657.5166848 87 602 75.13554720000002 602 60.5 Z"/></g><g><path fill="none" stroke="#000000" paint-order="fill stroke markers" d=" M 602 60.5 C 602 45.86445279999998 657.5166848 34 726 34 C 794.4833152 34 850 45.86445279999998 850 60.5 C 850 75.13554720000002 794.4833152 87 726 87 C 657.5166848 87 602 75.13554720000002 602 60.5 Z" stroke-miterlimit="10" stroke-dasharray=""/></g><g><g><path fill="none" stroke="none"/><text fill="#000000" stroke="none" font-family="Arial" font-size="13px" font-style="normal" font-weight="bold" text-decoration="undefined" x="945" y="612" text-anchor="middle" dominant-baseline="central" transform="matrix(1 0 0 1 -219 -557)">UC39.1 - Conferma </text><text fill="#000000" stroke="none" font-family="Arial" font-size="13px" font-style="normal" font-weight="bold" text-decoration="undefined" x="945" y="625" text-anchor="middle" dominant-baseline="central" transform="matrix(1 0 0 1 -219 -557)">eliminazione Tenant User</text></g></g><g><path fill="none" stroke="#000000" paint-order="fill stroke markers" d=" M 119 52 L 265 56" stroke-miterlimit="10" stroke-dasharray=""/></g><g><path fill="none" stroke="#000000" paint-order="fill stroke markers" d=" M 491 60 L 601 60" stroke-miterlimit="10" stroke-dasharray="3"/></g><g><path fill="none" stroke="#000000" paint-order="fill stroke markers" d=" M 590.8373251423759 64.209517756016 L 601 60 L 590.8373251423758 55.790482243984" stroke-miterlimit="10" stroke-dasharray=""/></g><g><rect fill="#ffffff" stroke="none" x="732" y="599" width="55.65625" height="13" transform="matrix(1 0 0 1 -219 -557)"/></g><g><g><path fill="none" stroke="none"/><text fill="#000000" stroke="none" font-family="Arial" font-size="13px" font-style="normal" font-weight="normal" text-decoration="undefined" x="759.828125" y="605.5" text-anchor="middle" dominant-baseline="central" transform="matrix(1 0 0 1 -219 -557)">«include»</text></g></g></g></svg>