<svg version="1.1" xmlns="http://www.w3.org/2000/svg" xmlns:xlink="http://www.w3.org/1999/xlink" width="1028" height="228"><defs/><g><g><path fill="#ffffff" stroke="none" paint-order="stroke fill markers" d=" M 55.2781640625 19.850000000000023 C 55.2781640625 14.962279520000038 59.235966430499985 11 64.1181640625 11 C 69.00036169450001 11 72.9581640625 14.962279520000038 72.9581640625 19.850000000000023 C 72.9581640625 24.737720480000007 69.00036169450001 28.700000000000045 64.1181640625 28.700000000000045 C 59.235966430499985 28.700000000000045 55.2781640625 24.737720480000007 55.2781640625 19.850000000000023 Z"/></g><g><path fill="none" stroke="#000000" paint-order="fill stroke markers" d=" M 55.2781640625 19.850000000000023 C 55.2781640625 14.962279520000038 59.235966430499985 11 64.1181640625 11 C 69.00036169450001 11 72.9581640625 14.962279520000038 72.9581640625 19.850000000000023 C 72.9581640625 24.737720480000007 69.00036169450001 28.700000000000045 64.1181640625 28.700000000000045 C 59.235966430499985 28.700000000000045 55.2781640625 24.737720480000007 55.2781640625 19.850000000000023 Z" stroke-miterlimit="10" stroke-dasharray=""/></g><g><path fill="none" stroke="#000000" paint-order="fill stroke markers" d=" M 64.1181640625 28.700000000000045 L 64.1181640625 46.299999999999955" stroke-miterlimit="10" stroke-dasharray=""/></g><g><path fill="none" stroke="#000000" paint-order="fill stroke markers" d=" M 54.758164062499986 35.299999999999955 L 73.47816406250001 35.299999999999955" stroke-miterlimit="10" stroke-dasharray=""/></g><g><path fill="none" stroke="#000000" paint-order="fill stroke markers" d=" M 64.1181640625 46.299999999999955 L 51.1181640625 64" stroke-miterlimit="10" stroke-dasharray=""/></g><g><path fill="none" stroke="#000000" paint-order="fill stroke markers" d=" M 64.1181640625 46.299999999999955 L 77.1181640625 64" stroke-miterlimit="10" stroke-dasharray=""/></g><g><g><path fill="none" stroke="none"/><text fill="#000000" stroke="none" font-family="Arial" font-size="13px" font-style="normal" font-weight="bold" text-decoration="undefined" x="199.6181640625" y="571.5" text-anchor="middle" dominant-baseline="central" transform="matrix(1 0 0 1 -135 -493)">Admin generico</text></g></g><g><path fill="#C0C0C0" stroke="none" paint-order="stroke fill markers" d=" M 233 61 C 233 41.11774720000005 315.3795968 25 417 25 C 518.6204032 25 601 41.11774720000005 601 61 C 601 80.88225279999995 518.6204032 97 417 97 C 315.3795968 97 233 80.88225279999995 233 61 Z" fill-opacity="0.2"/></g><g><path fill="#ffffff" stroke="none" paint-order="stroke fill markers" d=" M 226 54 C 226 34.11774720000005 308.3795968 18 410 18 C 511.62040320000006 18 594 34.11774720000005 594 54 C 594 73.88225279999995 511.62040320000006 90 410 90 C 308.3795968 90 226 73.88225279999995 226 54 Z"/></g><g><path fill="none" stroke="#000000" paint-order="fill stroke markers" d=" M 226 54 C 226 34.11774720000005 308.3795968 18 410 18 C 511.62040320000006 18 594 34.11774720000005 594 54 C 594 73.88225279999995 511.62040320000006 90 410 90 C 308.3795968 90 226 73.88225279999995 226 54 Z" stroke-miterlimit="10" stroke-dasharray=""/></g><g><g><path fill="none" stroke="none"/><text fill="#000000" stroke="none" font-family="Arial" font-size="13px" font-style="normal" font-weight="bold" text-decoration="undefined" x="545" y="535" text-anchor="middle" dominant-baseline="central" transform="matrix(1 0 0 1 -135 -493)">UC40 - Visualizzazione lista delle</text><text fill="#000000" stroke="none" font-family="Arial" font-size="13px" font-style="normal" font-weight="bold" text-decoration="undefined" x="545" y="548" text-anchor="middle" dominant-baseline="central" transform="matrix(1 0 0 1 -135 -493)">richieste di commissioning e</text><text fill="#000000" stroke="none" font-family="Arial" font-size="13px" font-style="normal" font-weight="bold" text-decoration="undefined" x="545" y="561" text-anchor="middle" dominant-baseline="central" transform="matrix(1 0 0 1 -135 -493)">decommissioning di gateway del tenant</text></g></g><g><path fill="#C0C0C0" stroke="none" paint-order="stroke fill markers" d=" M 241 189 C 241 169.11774720000005 318.0070144 153 413 153 C 507.9929856 153 585 169.11774720000005 585 189 C 585 208.88225279999995 507.9929856 225 413 225 C 318.0070144 225 241 208.88225279999995 241 189 Z" fill-opacity="0.2"/></g><g><path fill="#ffffff" stroke="none" paint-order="stroke fill markers" d=" M 234 182 C 234 162.11774720000005 311.0070144 146 406 146 C 500.9929856 146 578 162.11774720000005 578 182 C 578 201.88225279999995 500.9929856 218 406 218 C 311.0070144 218 234 201.88225279999995 234 182 Z"/></g><g><path fill="none" stroke="#000000" paint-order="fill stroke markers" d=" M 234 182 C 234 162.11774720000005 311.0070144 146 406 146 C 500.9929856 146 578 162.11774720000005 578 182 C 578 201.88225279999995 500.9929856 218 406 218 C 311.0070144 218 234 201.88225279999995 234 182 Z" stroke-miterlimit="10" stroke-dasharray=""/></g><g><g><path fill="none" stroke="none"/><text fill="#000000" stroke="none" font-family="Arial" font-size="13px" font-style="normal" font-weight="bold" text-decoration="undefined" x="541" y="663" text-anchor="middle" dominant-baseline="central" transform="matrix(1 0 0 1 -135 -493)">UC41 - Visualizzazione richiesta di</text><text fill="#000000" stroke="none" font-family="Arial" font-size="13px" font-style="normal" font-weight="bold" text-decoration="undefined" x="541" y="676" text-anchor="middle" dominant-baseline="central" transform="matrix(1 0 0 1 -135 -493)">commissioning e decomissioning di</text><text fill="#000000" stroke="none" font-family="Arial" font-size="13px" font-style="normal" font-weight="bold" text-decoration="undefined" x="541" y="689" text-anchor="middle" dominant-baseline="central" transform="matrix(1 0 0 1 -135 -493)">gateway del tenant</text></g></g><g><path fill="none" stroke="#000000" paint-order="fill stroke markers" d=" M 409 91 L 407 145" stroke-miterlimit="10" stroke-dasharray="3"/></g><g><path fill="none" stroke="#000000" paint-order="fill stroke markers" d=" M 403.16950393511127 134.68848702193168 L 407 145 L 411.582771008294 135.00008950612357" stroke-miterlimit="10" stroke-dasharray=""/></g><g><rect fill="#ffffff" stroke="none" x="513" y="603" width="55.65625" height="13" transform="matrix(1 0 0 1 -135 -493)"/></g><g><g><path fill="none" stroke="none"/><text fill="#000000" stroke="none" font-family="Arial" font-size="13px" font-style="normal" font-weight="normal" text-decoration="undefined" x="540.828125" y="609.5" text-anchor="middle" dominant-baseline="central" transform="matrix(1 0 0 1 -135 -493)">«include»</text></g></g><g><path fill="none" stroke="#000000" paint-order="fill stroke markers" d=" M 225 52 L 119 51" stroke-miterlimit="10" stroke-dasharray=""/></g><g><path fill="#C0C0C0" stroke="none" paint-order="stroke fill markers" d=" M 689 189 C 689 169.11774720000005 764.2161536 153 857 153 C 949.7838463999999 153 1025 169.11774720000005 1025 189 C 1025 208.88225279999995 949.7838463999999 225 857 225 C 764.2161536 225 689 208.88225279999995 689 189 Z" fill-opacity="0.2"/></g><g><path fill="#ffffff" stroke="none" paint-order="stroke fill markers" d=" M 682 182 C 682 162.11774720000005 757.2161536 146 850 146 C 942.7838463999999 146 1018 162.11774720000005 1018 182 C 1018 201.88225279999995 942.7838463999999 218 850 218 C 757.2161536 218 682 201.88225279999995 682 182 Z"/></g><g><path fill="none" stroke="#000000" paint-order="fill stroke markers" d=" M 682 182 C 682 162.11774720000005 757.2161536 146 850 146 C 942.7838463999999 146 1018 162.11774720000005 1018 182 C 1018 201.88225279999995 942.7838463999999 218 850 218 C 757.2161536 218 682 201.88225279999995 682 182 Z" stroke-miterlimit="10" stroke-dasharray=""/></g><g><g><path fill="none" stroke="none"/><text fill="#000000" stroke="none" font-family="Arial" font-size="13px" font-style="normal" font-weight="bold" text-decoration="undefined" x="985" y="663" text-anchor="middle" dominant-baseline="central" transform="matrix(1 0 0 1 -135 -493)">UC41.1 - Visualizzazione stato</text><text fill="#000000" stroke="none" font-family="Arial" font-size="13px" font-style="normal" font-weight="bold" text-decoration="undefined" x="985" y="676" text-anchor="middle" dominant-baseline="central" transform="matrix(1 0 0 1 -135 -493)">richiesta di commissioning e</text><text fill="#000000" stroke="none" font-family="Arial" font-size="13px" font-style="normal" font-weight="bold" text-decoration="undefined" x="985" y="689" text-anchor="middle" dominant-baseline="central" transform="matrix(1 0 0 1 -135 -493)">decommissioning di gateway</text></g></g><g><path fill="none" stroke="#000000" paint-order="fill stroke markers" d=" M 579 182 L 681 182" stroke-miterlimit="10" stroke-dasharray="3"/></g><g><path fill="none" stroke="#000000" paint-order="fill stroke markers" d=" M 670.8373251423759 186.209517756016 L 681 182 L 670.8373251423758 177.790482243984" stroke-miterlimit="10" stroke-dasharray=""/></g><g><rect fill="#ffffff" stroke="none" x="733" y="671" width="55.65625" height="13" transform="matrix(1 0 0 1 -135 -493)"/></g><g><g><path fill="none" stroke="none"/><text fill="#000000" stroke="none" font-family="Arial" font-size="13px" font-style="normal" font-weight="normal" text-decoration="undefined" x="760.828125" y="677.5" text-anchor="middle" dominant-baseline="central" transform="matrix(1 0 0 1 -135 -493)">«include»</text></g></g></g></svg>