<svg version="1.1" xmlns="http://www.w3.org/2000/svg" xmlns:xlink="http://www.w3.org/1999/xlink" width="653" height="452"><defs/><g><g><rect fill="#C0C0C0" stroke="none" x="857" y="458" width="448" height="432" transform="matrix(1 0 0 1 -656 -441)" fill-opacity="0.2"/></g><g><rect fill="#ffffff" stroke="none" x="850" y="451" width="448" height="432" transform="matrix(1 0 0 1 -656 -441)"/></g><g><path fill="none" stroke="#000000" paint-order="fill stroke markers" d=" M 194 10 L 642 10 L 642 442 L 194 442 L 194 10 Z Z" stroke-miterlimit="10" stroke-dasharray=""/></g><g><g><path fill="none" stroke="none"/><text fill="#000000" stroke="none" font-family="Arial" font-size="13px" font-style="normal" font-weight="bold" text-decoration="undefined" x="1074.5" y="464.5" text-anchor="middle" dominant-baseline="central" transform="matrix(1 0 0 1 -656 -441)">Dashboard admin</text></g></g><g><path fill="#ffffff" stroke="none" paint-order="stroke fill markers" d=" M 55.27816406249997 67.85000000000002 C 55.27816406249997 62.96227952000004 59.23596643049996 59 64.1181640625 59 C 69.00036169450004 59 72.95816406250003 62.96227952000004 72.95816406250003 67.85000000000002 C 72.95816406250003 72.73772048000001 69.00036169450004 76.70000000000005 64.1181640625 76.70000000000005 C 59.23596643049996 76.70000000000005 55.27816406249997 72.73772048000001 55.27816406249997 67.85000000000002 Z"/></g><g><path fill="none" stroke="#000000" paint-order="fill stroke markers" d=" M 55.27816406249997 67.85000000000002 C 55.27816406249997 62.96227952000004 59.23596643049996 59 64.1181640625 59 C 69.00036169450004 59 72.95816406250003 62.96227952000004 72.95816406250003 67.85000000000002 C 72.95816406250003 72.73772048000001 69.00036169450004 76.70000000000005 64.1181640625 76.70000000000005 C 59.23596643049996 76.70000000000005 55.27816406249997 72.73772048000001 55.27816406249997 67.85000000000002 Z" stroke-miterlimit="10" stroke-dasharray=""/></g><g><path fill="none" stroke="#000000" paint-order="fill stroke markers" d=" M 64.1181640625 76.70000000000005 L 64.1181640625 94.29999999999995" stroke-miterlimit="10" stroke-dasharray=""/></g><g><path fill="none" stroke="#000000" paint-order="fill stroke markers" d=" M 54.758164062499986 83.29999999999995 L 73.47816406250001 83.29999999999995" stroke-miterlimit="10" stroke-dasharray=""/></g><g><path fill="none" stroke="#000000" paint-order="fill stroke markers" d=" M 64.1181640625 94.29999999999995 L 51.1181640625 112" stroke-miterlimit="10" stroke-dasharray=""/></g><g><path fill="none" stroke="#000000" paint-order="fill stroke markers" d=" M 64.1181640625 94.29999999999995 L 77.1181640625 112" stroke-miterlimit="10" stroke-dasharray=""/></g><g><g><path fill="none" stroke="none"/><text fill="#000000" stroke="none" font-family="Arial" font-size="13px" font-style="normal" font-weight="bold" text-decoration="undefined" x="720.6181640625" y="567.5" text-anchor="middle" dominant-baseline="central" transform="matrix(1 0 0 1 -656 -441)">Admin generico</text></g></g><g><path fill="#C0C0C0" stroke="none" paint-order="stroke fill markers" d=" M 216 102 C 216 82.11774720000005 303.9760368 66 412.5 66 C 521.0239632 66 609 82.11774720000005 609 102 C 609 121.88225279999995 521.0239632 138 412.5 138 C 303.9760368 138 216 121.88225279999995 216 102 Z" fill-opacity="0.2"/></g><g><path fill="#ffffff" stroke="none" paint-order="stroke fill markers" d=" M 209 95 C 209 75.11774720000005 296.9760368 59 405.5 59 C 514.0239632 59 602 75.11774720000005 602 95 C 602 114.88225279999995 514.0239632 131 405.5 131 C 296.9760368 131 209 114.88225279999995 209 95 Z"/></g><g><path fill="none" stroke="#000000" paint-order="fill stroke markers" d=" M 209 95 C 209 75.11774720000005 296.9760368 59 405.5 59 C 514.0239632 59 602 75.11774720000005 602 95 C 602 114.88225279999995 514.0239632 131 405.5 131 C 296.9760368 131 209 114.88225279999995 209 95 Z" stroke-miterlimit="10" stroke-dasharray=""/></g><g><g><path fill="none" stroke="none"/><text fill="#000000" stroke="none" font-family="Arial" font-size="13px" font-style="normal" font-weight="bold" text-decoration="undefined" x="1061.5" y="524" text-anchor="middle" dominant-baseline="central" transform="matrix(1 0 0 1 -656 -441)">UC40 - Visualizzazione lista delle richieste</text><text fill="#000000" stroke="none" font-family="Arial" font-size="13px" font-style="normal" font-weight="bold" text-decoration="undefined" x="1061.5" y="537" text-anchor="middle" dominant-baseline="central" transform="matrix(1 0 0 1 -656 -441)">di commissioning e decommissioning di</text><text fill="#000000" stroke="none" font-family="Arial" font-size="13px" font-style="normal" font-weight="bold" text-decoration="undefined" x="1061.5" y="550" text-anchor="middle" dominant-baseline="central" transform="matrix(1 0 0 1 -656 -441)">gateway del tenant</text></g></g><g><path fill="#C0C0C0" stroke="none" paint-order="stroke fill markers" d=" M 272 214 C 272 194.11774720000005 349.230872 178 444.5 178 C 539.7691279999999 178 617 194.11774720000005 617 214 C 617 233.88225279999995 539.7691279999999 250 444.5 250 C 349.230872 250 272 233.88225279999995 272 214 Z" fill-opacity="0.2"/></g><g><path fill="#ffffff" stroke="none" paint-order="stroke fill markers" d=" M 265 207 C 265 187.11774720000005 342.230872 171 437.5 171 C 532.7691279999999 171 610 187.11774720000005 610 207 C 610 226.88225279999995 532.7691279999999 243 437.5 243 C 342.230872 243 265 226.88225279999995 265 207 Z"/></g><g><path fill="none" stroke="#000000" paint-order="fill stroke markers" d=" M 265 207 C 265 187.11774720000005 342.230872 171 437.5 171 C 532.7691279999999 171 610 187.11774720000005 610 207 C 610 226.88225279999995 532.7691279999999 243 437.5 243 C 342.230872 243 265 226.88225279999995 265 207 Z" stroke-miterlimit="10" stroke-dasharray=""/></g><g><g><path fill="none" stroke="none"/><text fill="#000000" stroke="none" font-family="Arial" font-size="13px" font-style="normal" font-weight="bold" text-decoration="undefined" x="1093.5" y="636" text-anchor="middle" dominant-baseline="central" transform="matrix(1 0 0 1 -656 -441)">UC41 - Visualizzazione richiesta di</text><text fill="#000000" stroke="none" font-family="Arial" font-size="13px" font-style="normal" font-weight="bold" text-decoration="undefined" x="1093.5" y="649" text-anchor="middle" dominant-baseline="central" transform="matrix(1 0 0 1 -656 -441)">commissioning e decomissioning di</text><text fill="#000000" stroke="none" font-family="Arial" font-size="13px" font-style="normal" font-weight="bold" text-decoration="undefined" x="1093.5" y="662" text-anchor="middle" dominant-baseline="central" transform="matrix(1 0 0 1 -656 -441)">gateway del tenant</text></g></g><g><path fill="none" stroke="#000000" paint-order="fill stroke markers" d=" M 416 132 L 426 170" stroke-miterlimit="10" stroke-dasharray="3"/></g><g><path fill="none" stroke="#000000" paint-order="fill stroke markers" d=" M 419.3427499099789 161.24322997681713 L 426 170 L 427.48458478197495 159.10064185260762" stroke-miterlimit="10" stroke-dasharray=""/></g><g><rect fill="#ffffff" stroke="none" x="1079" y="578" width="55.65625" height="13" transform="matrix(1 0 0 1 -656 -441)"/></g><g><g><path fill="none" stroke="none"/><text fill="#000000" stroke="none" font-family="Arial" font-size="13px" font-style="normal" font-weight="normal" text-decoration="undefined" x="1106.828125" y="584.5" text-anchor="middle" dominant-baseline="central" transform="matrix(1 0 0 1 -656 -441)">«include»</text></g></g><g><path fill="none" stroke="#000000" paint-order="fill stroke markers" d=" M 208 97 L 119 98" stroke-miterlimit="10" stroke-dasharray=""/></g><g><path fill="#C0C0C0" stroke="none" paint-order="stroke fill markers" d=" M 281 349 C 281 329.11774720000005 349.0527104 313 433 313 C 516.9472896 313 585 329.11774720000005 585 349 C 585 368.88225279999995 516.9472896 385 433 385 C 349.0527104 385 281 368.88225279999995 281 349 Z" fill-opacity="0.2"/></g><g><path fill="#ffffff" stroke="none" paint-order="stroke fill markers" d=" M 274 342 C 274 322.11774720000005 342.0527104 306 426 306 C 509.9472896 306 578 322.11774720000005 578 342 C 578 361.88225279999995 509.9472896 378 426 378 C 342.0527104 378 274 361.88225279999995 274 342 Z"/></g><g><path fill="none" stroke="#000000" paint-order="fill stroke markers" d=" M 274 342 C 274 322.11774720000005 342.0527104 306 426 306 C 509.9472896 306 578 322.11774720000005 578 342 C 578 361.88225279999995 509.9472896 378 426 378 C 342.0527104 378 274 361.88225279999995 274 342 Z" stroke-miterlimit="10" stroke-dasharray=""/></g><g><g><path fill="none" stroke="none"/><text fill="#000000" stroke="none" font-family="Arial" font-size="13px" font-style="normal" font-weight="bold" text-decoration="undefined" x="1082" y="771" text-anchor="middle" dominant-baseline="central" transform="matrix(1 0 0 1 -656 -441)">UC41.1 - Visualizzazione stato</text><text fill="#000000" stroke="none" font-family="Arial" font-size="13px" font-style="normal" font-weight="bold" text-decoration="undefined" x="1082" y="784" text-anchor="middle" dominant-baseline="central" transform="matrix(1 0 0 1 -656 -441)">richiesta di commissioning e</text><text fill="#000000" stroke="none" font-family="Arial" font-size="13px" font-style="normal" font-weight="bold" text-decoration="undefined" x="1082" y="797" text-anchor="middle" dominant-baseline="central" transform="matrix(1 0 0 1 -656 -441)">decommissioning di gateway</text></g></g><g><path fill="none" stroke="#000000" paint-order="fill stroke markers" d=" M 434 244 L 429 305" stroke-miterlimit="10" stroke-dasharray="3"/></g><g><path fill="none" stroke="#000000" paint-order="fill stroke markers" d=" M 425.6347742982541 294.52740452531907 L 429 305 L 434.02566936284256 295.2151828093017" stroke-miterlimit="10" stroke-dasharray=""/></g><g><rect fill="#ffffff" stroke="none" x="1089" y="710" width="55.65625" height="13" transform="matrix(1 0 0 1 -656 -441)"/></g><g><g><path fill="none" stroke="none"/><text fill="#000000" stroke="none" font-family="Arial" font-size="13px" font-style="normal" font-weight="normal" text-decoration="undefined" x="1116.828125" y="716.5" text-anchor="middle" dominant-baseline="central" transform="matrix(1 0 0 1 -656 -441)">«include»</text></g></g></g></svg>