<svg version="1.1" xmlns="http://www.w3.org/2000/svg" xmlns:xlink="http://www.w3.org/1999/xlink" width="1037" height="276"><defs/><g><g><rect fill="#C0C0C0" stroke="none" x="516" y="441" width="840" height="256" transform="matrix(1 0 0 1 -323 -424)" fill-opacity="0.2"/></g><g><rect fill="#ffffff" stroke="none" x="509" y="434" width="840" height="256" transform="matrix(1 0 0 1 -323 -424)"/></g><g><path fill="none" stroke="#000000" paint-order="fill stroke markers" d=" M 186 10 L 1026 10 L 1026 266 L 186 266 L 186 10 Z Z" stroke-miterlimit="10" stroke-dasharray=""/></g><g><g><path fill="none" stroke="none"/><text fill="#000000" stroke="none" font-family="Arial" font-size="13px" font-style="normal" font-weight="bold" text-decoration="undefined" x="929.5" y="447.5" text-anchor="middle" dominant-baseline="central" transform="matrix(1 0 0 1 -323 -424)">Sistema Cloud</text></g></g><g><path fill="#ffffff" stroke="none" paint-order="stroke fill markers" d=" M 55.278164062500025 43.85000000000002 C 55.278164062500025 38.96227952000004 59.235966430500014 35 64.1181640625 35 C 69.00036169449999 35 72.95816406249997 38.96227952000004 72.95816406249997 43.85000000000002 C 72.95816406249997 48.73772048000001 69.00036169449999 52.69999999999999 64.1181640625 52.69999999999999 C 59.235966430500014 52.69999999999999 55.278164062500025 48.73772048000001 55.278164062500025 43.85000000000002 Z"/></g><g><path fill="none" stroke="#000000" paint-order="fill stroke markers" d=" M 55.278164062500025 43.85000000000002 C 55.278164062500025 38.96227952000004 59.235966430500014 35 64.1181640625 35 C 69.00036169449999 35 72.95816406249997 38.96227952000004 72.95816406249997 43.85000000000002 C 72.95816406249997 48.73772048000001 69.00036169449999 52.69999999999999 64.1181640625 52.69999999999999 C 59.235966430500014 52.69999999999999 55.278164062500025 48.73772048000001 55.278164062500025 43.85000000000002 Z" stroke-miterlimit="10" stroke-dasharray=""/></g><g><path fill="none" stroke="#000000" paint-order="fill stroke markers" d=" M 64.1181640625 52.69999999999999 L 64.1181640625 70.30000000000001" stroke-miterlimit="10" stroke-dasharray=""/></g><g><path fill="none" stroke="#000000" paint-order="fill stroke markers" d=" M 54.758164062499986 59.30000000000001 L 73.47816406250001 59.30000000000001" stroke-miterlimit="10" stroke-dasharray=""/></g><g><path fill="none" stroke="#000000" paint-order="fill stroke markers" d=" M 64.1181640625 70.30000000000001 L 51.1181640625 88" stroke-miterlimit="10" stroke-dasharray=""/></g><g><path fill="none" stroke="#000000" paint-order="fill stroke markers" d=" M 64.1181640625 70.30000000000001 L 77.1181640625 88" stroke-miterlimit="10" stroke-dasharray=""/></g><g><g><path fill="none" stroke="none"/><text fill="#000000" stroke="none" font-family="Arial" font-size="13px" font-style="normal" font-weight="bold" text-decoration="undefined" x="387.6181640625" y="526.5" text-anchor="middle" dominant-baseline="central" transform="matrix(1 0 0 1 -323 -424)">Admin generico</text></g></g><g><path fill="#C0C0C0" stroke="none" paint-order="stroke fill markers" d=" M 233 85 C 233 65.1177472 315.37959679999994 49 417 49 C 518.6204032 49 601 65.1177472 601 85 C 601 104.88225279999995 518.6204032 121 417 121 C 315.37959679999994 121 233 104.88225279999995 233 85 Z" fill-opacity="0.2"/></g><g><path fill="#ffffff" stroke="none" paint-order="stroke fill markers" d=" M 226 78 C 226 58.1177472 308.37959679999994 42 410 42 C 511.62040320000006 42 594 58.1177472 594 78 C 594 97.88225279999995 511.62040320000006 114 410 114 C 308.37959679999994 114 226 97.88225279999995 226 78 Z"/></g><g><path fill="none" stroke="#000000" paint-order="fill stroke markers" d=" M 226 78 C 226 58.1177472 308.37959679999994 42 410 42 C 511.62040320000006 42 594 58.1177472 594 78 C 594 97.88225279999995 511.62040320000006 114 410 114 C 308.37959679999994 114 226 97.88225279999995 226 78 Z" stroke-miterlimit="10" stroke-dasharray=""/></g><g><g><path fill="none" stroke="none"/><text fill="#000000" stroke="none" font-family="Arial" font-size="13px" font-style="normal" font-weight="bold" text-decoration="undefined" x="733" y="490" text-anchor="middle" dominant-baseline="central" transform="matrix(1 0 0 1 -323 -424)">UC40 - Visualizzazione lista delle</text><text fill="#000000" stroke="none" font-family="Arial" font-size="13px" font-style="normal" font-weight="bold" text-decoration="undefined" x="733" y="503" text-anchor="middle" dominant-baseline="central" transform="matrix(1 0 0 1 -323 -424)">richieste di commissioning e</text><text fill="#000000" stroke="none" font-family="Arial" font-size="13px" font-style="normal" font-weight="bold" text-decoration="undefined" x="733" y="516" text-anchor="middle" dominant-baseline="central" transform="matrix(1 0 0 1 -323 -424)">decommissioning di gateway del tenant</text></g></g><g><path fill="#C0C0C0" stroke="none" paint-order="stroke fill markers" d=" M 241 213 C 241 193.11774720000005 318.0070144 177 413 177 C 507.9929856 177 585 193.11774720000005 585 213 C 585 232.88225279999995 507.9929856 249 413 249 C 318.0070144 249 241 232.88225279999995 241 213 Z" fill-opacity="0.2"/></g><g><path fill="#ffffff" stroke="none" paint-order="stroke fill markers" d=" M 234 206 C 234 186.11774720000005 311.0070144 170 406 170 C 500.9929856 170 578 186.11774720000005 578 206 C 578 225.88225279999995 500.9929856 242 406 242 C 311.0070144 242 234 225.88225279999995 234 206 Z"/></g><g><path fill="none" stroke="#000000" paint-order="fill stroke markers" d=" M 234 206 C 234 186.11774720000005 311.0070144 170 406 170 C 500.9929856 170 578 186.11774720000005 578 206 C 578 225.88225279999995 500.9929856 242 406 242 C 311.0070144 242 234 225.88225279999995 234 206 Z" stroke-miterlimit="10" stroke-dasharray=""/></g><g><g><path fill="none" stroke="none"/><text fill="#000000" stroke="none" font-family="Arial" font-size="13px" font-style="normal" font-weight="bold" text-decoration="undefined" x="729" y="618" text-anchor="middle" dominant-baseline="central" transform="matrix(1 0 0 1 -323 -424)">UC41 - Visualizzazione richiesta di</text><text fill="#000000" stroke="none" font-family="Arial" font-size="13px" font-style="normal" font-weight="bold" text-decoration="undefined" x="729" y="631" text-anchor="middle" dominant-baseline="central" transform="matrix(1 0 0 1 -323 -424)">commissioning e decomissioning di</text><text fill="#000000" stroke="none" font-family="Arial" font-size="13px" font-style="normal" font-weight="bold" text-decoration="undefined" x="729" y="644" text-anchor="middle" dominant-baseline="central" transform="matrix(1 0 0 1 -323 -424)">gateway del tenant</text></g></g><g><path fill="none" stroke="#000000" paint-order="fill stroke markers" d=" M 409 115 L 407 169" stroke-miterlimit="10" stroke-dasharray="3"/></g><g><path fill="none" stroke="#000000" paint-order="fill stroke markers" d=" M 403.16950393511127 158.68848702193168 L 407 169 L 411.582771008294 159.00008950612357" stroke-miterlimit="10" stroke-dasharray=""/></g><g><rect fill="#ffffff" stroke="none" x="701" y="558" width="55.65625" height="13" transform="matrix(1 0 0 1 -323 -424)"/></g><g><g><path fill="none" stroke="none"/><text fill="#000000" stroke="none" font-family="Arial" font-size="13px" font-style="normal" font-weight="normal" text-decoration="undefined" x="728.828125" y="564.5" text-anchor="middle" dominant-baseline="central" transform="matrix(1 0 0 1 -323 -424)">«include»</text></g></g><g><path fill="none" stroke="#000000" paint-order="fill stroke markers" d=" M 225 76 L 119 75" stroke-miterlimit="10" stroke-dasharray=""/></g><g><path fill="#C0C0C0" stroke="none" paint-order="stroke fill markers" d=" M 689 213 C 689 193.11774720000005 764.2161536000001 177 857 177 C 949.7838463999999 177 1025 193.11774720000005 1025 213 C 1025 232.88225279999995 949.7838463999999 249 857 249 C 764.2161536000001 249 689 232.88225279999995 689 213 Z" fill-opacity="0.2"/></g><g><path fill="#ffffff" stroke="none" paint-order="stroke fill markers" d=" M 682 206 C 682 186.11774720000005 757.2161536000001 170 850 170 C 942.7838463999999 170 1018 186.11774720000005 1018 206 C 1018 225.88225279999995 942.7838463999999 242 850 242 C 757.2161536000001 242 682 225.88225279999995 682 206 Z"/></g><g><path fill="none" stroke="#000000" paint-order="fill stroke markers" d=" M 682 206 C 682 186.11774720000005 757.2161536000001 170 850 170 C 942.7838463999999 170 1018 186.11774720000005 1018 206 C 1018 225.88225279999995 942.7838463999999 242 850 242 C 757.2161536000001 242 682 225.88225279999995 682 206 Z" stroke-miterlimit="10" stroke-dasharray=""/></g><g><g><path fill="none" stroke="none"/><text fill="#000000" stroke="none" font-family="Arial" font-size="13px" font-style="normal" font-weight="bold" text-decoration="undefined" x="1173" y="618" text-anchor="middle" dominant-baseline="central" transform="matrix(1 0 0 1 -323 -424)">UC41.1 - Visualizzazione stato</text><text fill="#000000" stroke="none" font-family="Arial" font-size="13px" font-style="normal" font-weight="bold" text-decoration="undefined" x="1173" y="631" text-anchor="middle" dominant-baseline="central" transform="matrix(1 0 0 1 -323 -424)">richiesta di commissioning e</text><text fill="#000000" stroke="none" font-family="Arial" font-size="13px" font-style="normal" font-weight="bold" text-decoration="undefined" x="1173" y="644" text-anchor="middle" dominant-baseline="central" transform="matrix(1 0 0 1 -323 -424)">decommissioning di gateway</text></g></g><g><path fill="none" stroke="#000000" paint-order="fill stroke markers" d=" M 579 206 L 681 206" stroke-miterlimit="10" stroke-dasharray="3"/></g><g><path fill="none" stroke="#000000" paint-order="fill stroke markers" d=" M 670.8373251423759 210.209517756016 L 681 206 L 670.8373251423758 201.790482243984" stroke-miterlimit="10" stroke-dasharray=""/></g><g><rect fill="#ffffff" stroke="none" x="921" y="626" width="55.65625" height="13" transform="matrix(1 0 0 1 -323 -424)"/></g><g><g><path fill="none" stroke="none"/><text fill="#000000" stroke="none" font-family="Arial" font-size="13px" font-style="normal" font-weight="normal" text-decoration="undefined" x="948.828125" y="632.5" text-anchor="middle" dominant-baseline="central" transform="matrix(1 0 0 1 -323 -424)">«include»</text></g></g></g></svg>