<svg version="1.1" xmlns="http://www.w3.org/2000/svg" xmlns:xlink="http://www.w3.org/1999/xlink" width="872" height="252"><defs/><g><g><rect fill="#C0C0C0" stroke="none" x="415" y="511" width="672" height="232" transform="matrix(1 0 0 1 -219 -494)" fill-opacity="0.2"/></g><g><rect fill="#ffffff" stroke="none" x="408" y="504" width="672" height="232" transform="matrix(1 0 0 1 -219 -494)"/></g><g><path fill="none" stroke="#000000" paint-order="fill stroke markers" d=" M 189 10 L 861 10 L 861 242 L 189 242 L 189 10 Z Z" stroke-miterlimit="10" stroke-dasharray=""/></g><g><g><path fill="none" stroke="none"/><text fill="#000000" stroke="none" font-family="Arial" font-size="13px" font-style="normal" font-weight="bold" text-decoration="undefined" x="744.5" y="517.5" text-anchor="middle" dominant-baseline="central" transform="matrix(1 0 0 1 -219 -494)">Sistema Cloud</text></g></g><g><path fill="#ffffff" stroke="none" paint-order="stroke fill markers" d=" M 55.278164062500025 82.85000000000002 C 55.278164062500025 77.96227952000004 59.235966430500014 74 64.1181640625 74 C 69.00036169449999 74 72.95816406249997 77.96227952000004 72.95816406249997 82.85000000000002 C 72.95816406249997 87.73772048000001 69.00036169449999 91.70000000000005 64.1181640625 91.70000000000005 C 59.235966430500014 91.70000000000005 55.278164062500025 87.73772048000001 55.278164062500025 82.85000000000002 Z"/></g><g><path fill="none" stroke="#000000" paint-order="fill stroke markers" d=" M 55.278164062500025 82.85000000000002 C 55.278164062500025 77.96227952000004 59.235966430500014 74 64.1181640625 74 C 69.00036169449999 74 72.95816406249997 77.96227952000004 72.95816406249997 82.85000000000002 C 72.95816406249997 87.73772048000001 69.00036169449999 91.70000000000005 64.1181640625 91.70000000000005 C 59.235966430500014 91.70000000000005 55.278164062500025 87.73772048000001 55.278164062500025 82.85000000000002 Z" stroke-miterlimit="10" stroke-dasharray=""/></g><g><path fill="none" stroke="#000000" paint-order="fill stroke markers" d=" M 64.1181640625 91.70000000000005 L 64.1181640625 109.29999999999995" stroke-miterlimit="10" stroke-dasharray=""/></g><g><path fill="none" stroke="#000000" paint-order="fill stroke markers" d=" M 54.758164062499986 98.29999999999995 L 73.47816406250001 98.29999999999995" stroke-miterlimit="10" stroke-dasharray=""/></g><g><path fill="none" stroke="#000000" paint-order="fill stroke markers" d=" M 64.1181640625 109.29999999999995 L 51.1181640625 127" stroke-miterlimit="10" stroke-dasharray=""/></g><g><path fill="none" stroke="#000000" paint-order="fill stroke markers" d=" M 64.1181640625 109.29999999999995 L 77.1181640625 127" stroke-miterlimit="10" stroke-dasharray=""/></g><g><g><path fill="none" stroke="none"/><text fill="#000000" stroke="none" font-family="Arial" font-size="13px" font-style="normal" font-weight="bold" text-decoration="undefined" x="283.6181640625" y="635.5" text-anchor="middle" dominant-baseline="central" transform="matrix(1 0 0 1 -219 -494)">Admin generico</text></g></g><g><path fill="#C0C0C0" stroke="none" paint-order="stroke fill markers" d=" M 217 130.5 C 217 115.86445279999998 277.8892672 104 353 104 C 428.11073280000005 104 489 115.86445279999998 489 130.5 C 489 145.13554720000002 428.11073280000005 157 353 157 C 277.8892672 157 217 145.13554720000002 217 130.5 Z" fill-opacity="0.2"/></g><g><path fill="#ffffff" stroke="none" paint-order="stroke fill markers" d=" M 210 123.5 C 210 108.86445279999998 270.8892672 97 346 97 C 421.11073280000005 97 482 108.86445279999998 482 123.5 C 482 138.13554720000002 421.11073280000005 150 346 150 C 270.8892672 150 210 138.13554720000002 210 123.5 Z"/></g><g><path fill="none" stroke="#000000" paint-order="fill stroke markers" d=" M 210 123.5 C 210 108.86445279999998 270.8892672 97 346 97 C 421.11073280000005 97 482 108.86445279999998 482 123.5 C 482 138.13554720000002 421.11073280000005 150 346 150 C 270.8892672 150 210 138.13554720000002 210 123.5 Z" stroke-miterlimit="10" stroke-dasharray=""/></g><g><g><path fill="none" stroke="none"/><text fill="#000000" stroke="none" font-family="Arial" font-size="13px" font-style="normal" font-weight="bold" text-decoration="undefined" x="565" y="612" text-anchor="middle" dominant-baseline="central" transform="matrix(1 0 0 1 -219 -494)">UC42 - Visualizzazione lista</text><text fill="#000000" stroke="none" font-family="Arial" font-size="13px" font-style="normal" font-weight="bold" text-decoration="undefined" x="565" y="625" text-anchor="middle" dominant-baseline="central" transform="matrix(1 0 0 1 -219 -494)">di gateway associati a tenant</text></g></g><g><path fill="#C0C0C0" stroke="none" paint-order="stroke fill markers" d=" M 609 122.5 C 609 107.86445279999998 664.5166848 96 733 96 C 801.4833152 96 857 107.86445279999998 857 122.5 C 857 137.13554720000002 801.4833152 149 733 149 C 664.5166848 149 609 137.13554720000002 609 122.5 Z" fill-opacity="0.2"/></g><g><path fill="#ffffff" stroke="none" paint-order="stroke fill markers" d=" M 602 115.5 C 602 100.86445279999998 657.5166848 89 726 89 C 794.4833152 89 850 100.86445279999998 850 115.5 C 850 130.13554720000002 794.4833152 142 726 142 C 657.5166848 142 602 130.13554720000002 602 115.5 Z"/></g><g><path fill="none" stroke="#000000" paint-order="fill stroke markers" d=" M 602 115.5 C 602 100.86445279999998 657.5166848 89 726 89 C 794.4833152 89 850 100.86445279999998 850 115.5 C 850 130.13554720000002 794.4833152 142 726 142 C 657.5166848 142 602 130.13554720000002 602 115.5 Z" stroke-miterlimit="10" stroke-dasharray=""/></g><g><g><path fill="none" stroke="none"/><text fill="#000000" stroke="none" font-family="Arial" font-size="13px" font-style="normal" font-weight="bold" text-decoration="undefined" x="945" y="604" text-anchor="middle" dominant-baseline="central" transform="matrix(1 0 0 1 -219 -494)">UC43 - Visualizzazione</text><text fill="#000000" stroke="none" font-family="Arial" font-size="13px" font-style="normal" font-weight="bold" text-decoration="undefined" x="945" y="617" text-anchor="middle" dominant-baseline="central" transform="matrix(1 0 0 1 -219 -494)">singolo gateway in lista</text></g></g><g><path fill="none" stroke="#000000" paint-order="fill stroke markers" d=" M 483 120 L 601 118" stroke-miterlimit="10" stroke-dasharray="3"/></g><g><path fill="none" stroke="#000000" paint-order="fill stroke markers" d=" M 590.910122075527 122.38113723469542 L 601 118 L 590.7674470502988 113.96331074622276" stroke-miterlimit="10" stroke-dasharray=""/></g><g><rect fill="#ffffff" stroke="none" x="724" y="603" width="55.65625" height="13" transform="matrix(1 0 0 1 -219 -494)"/></g><g><g><path fill="none" stroke="none"/><text fill="#000000" stroke="none" font-family="Arial" font-size="13px" font-style="normal" font-weight="normal" text-decoration="undefined" x="751.828125" y="609.5" text-anchor="middle" dominant-baseline="central" transform="matrix(1 0 0 1 -219 -494)">«include»</text></g></g><g><path fill="none" stroke="#000000" paint-order="fill stroke markers" d=" M 209 118 L 119 115" stroke-miterlimit="10" stroke-dasharray=""/></g></g></svg>