<svg version="1.1" xmlns="http://www.w3.org/2000/svg" xmlns:xlink="http://www.w3.org/1999/xlink" width="821" height="188"><defs/><g><g><rect fill="#C0C0C0" stroke="none" x="287" y="367" width="664" height="168" transform="matrix(1 0 0 1 -134 -350)" fill-opacity="0.2"/></g><g><rect fill="#ffffff" stroke="none" x="280" y="360" width="664" height="168" transform="matrix(1 0 0 1 -134 -350)"/></g><g><path fill="none" stroke="#000000" paint-order="fill stroke markers" d=" M 146 10 L 810 10 L 810 178 L 146 178 L 146 10 Z Z" stroke-miterlimit="10" stroke-dasharray=""/></g><g><g><path fill="none" stroke="none"/><text fill="#000000" stroke="none" font-family="Arial" font-size="13px" font-style="normal" font-weight="bold" text-decoration="undefined" x="612.5" y="373.5" text-anchor="middle" dominant-baseline="central" transform="matrix(1 0 0 1 -134 -350)">Sistema cloud</text></g></g><g><path fill="#ffffff" stroke="none" paint-order="stroke fill markers" d=" M 55.2781640625 67.85000000000002 C 55.2781640625 62.96227952000004 59.235966430499985 59 64.1181640625 59 C 69.00036169450001 59 72.9581640625 62.96227952000004 72.9581640625 67.85000000000002 C 72.9581640625 72.73772048000001 69.00036169450001 76.69999999999999 64.1181640625 76.69999999999999 C 59.235966430499985 76.69999999999999 55.2781640625 72.73772048000001 55.2781640625 67.85000000000002 Z"/></g><g><path fill="none" stroke="#000000" paint-order="fill stroke markers" d=" M 55.2781640625 67.85000000000002 C 55.2781640625 62.96227952000004 59.235966430499985 59 64.1181640625 59 C 69.00036169450001 59 72.9581640625 62.96227952000004 72.9581640625 67.85000000000002 C 72.9581640625 72.73772048000001 69.00036169450001 76.69999999999999 64.1181640625 76.69999999999999 C 59.235966430499985 76.69999999999999 55.2781640625 72.73772048000001 55.2781640625 67.85000000000002 Z" stroke-miterlimit="10" stroke-dasharray=""/></g><g><path fill="none" stroke="#000000" paint-order="fill stroke markers" d=" M 64.1181640625 76.69999999999999 L 64.1181640625 94.30000000000001" stroke-miterlimit="10" stroke-dasharray=""/></g><g><path fill="none" stroke="#000000" paint-order="fill stroke markers" d=" M 54.758164062499986 83.30000000000001 L 73.47816406250001 83.30000000000001" stroke-miterlimit="10" stroke-dasharray=""/></g><g><path fill="none" stroke="#000000" paint-order="fill stroke markers" d=" M 64.1181640625 94.30000000000001 L 51.1181640625 112" stroke-miterlimit="10" stroke-dasharray=""/></g><g><path fill="none" stroke="#000000" paint-order="fill stroke markers" d=" M 64.1181640625 94.30000000000001 L 77.1181640625 112" stroke-miterlimit="10" stroke-dasharray=""/></g><g><g><path fill="none" stroke="none"/><text fill="#000000" stroke="none" font-family="Arial" font-size="13px" font-style="normal" font-weight="bold" text-decoration="undefined" x="198.6181640625" y="476.5" text-anchor="middle" dominant-baseline="central" transform="matrix(1 0 0 1 -134 -350)">Admin generico</text></g></g><g><path fill="#C0C0C0" stroke="none" paint-order="stroke fill markers" d=" M 193 107.5 C 193 92.86445279999998 244.93496319999997 81 309 81 C 373.06503680000003 81 425 92.86445279999998 425 107.5 C 425 122.13554720000002 373.06503680000003 134 309 134 C 244.93496319999997 134 193 122.13554720000002 193 107.5 Z" fill-opacity="0.2"/></g><g><path fill="#ffffff" stroke="none" paint-order="stroke fill markers" d=" M 186 100.5 C 186 85.86445279999998 237.93496319999997 74 302 74 C 366.06503680000003 74 418 85.86445279999998 418 100.5 C 418 115.13554720000002 366.06503680000003 127 302 127 C 237.93496319999997 127 186 115.13554720000002 186 100.5 Z"/></g><g><path fill="none" stroke="#000000" paint-order="fill stroke markers" d=" M 186 100.5 C 186 85.86445279999998 237.93496319999997 74 302 74 C 366.06503680000003 74 418 85.86445279999998 418 100.5 C 418 115.13554720000002 366.06503680000003 127 302 127 C 237.93496319999997 127 186 115.13554720000002 186 100.5 Z" stroke-miterlimit="10" stroke-dasharray=""/></g><g><g><path fill="none" stroke="none"/><text fill="#000000" stroke="none" font-family="Arial" font-size="13px" font-style="normal" font-weight="bold" text-decoration="undefined" x="436" y="445" text-anchor="middle" dominant-baseline="central" transform="matrix(1 0 0 1 -134 -350)">UC42 - Visualizzazione</text><text fill="#000000" stroke="none" font-family="Arial" font-size="13px" font-style="normal" font-weight="bold" text-decoration="undefined" x="436" y="458" text-anchor="middle" dominant-baseline="central" transform="matrix(1 0 0 1 -134 -350)">lista utenti tenant</text></g></g><g><path fill="#C0C0C0" stroke="none" paint-order="stroke fill markers" d=" M 489 107.5 C 489 92.86445279999998 551.680128 81 629 81 C 706.319872 81 769 92.86445279999998 769 107.5 C 769 122.13554720000002 706.319872 134 629 134 C 551.680128 134 489 122.13554720000002 489 107.5 Z" fill-opacity="0.2"/></g><g><path fill="#ffffff" stroke="none" paint-order="stroke fill markers" d=" M 482 100.5 C 482 85.86445279999998 544.680128 74 622 74 C 699.319872 74 762 85.86445279999998 762 100.5 C 762 115.13554720000002 699.319872 127 622 127 C 544.680128 127 482 115.13554720000002 482 100.5 Z"/></g><g><path fill="none" stroke="#000000" paint-order="fill stroke markers" d=" M 482 100.5 C 482 85.86445279999998 544.680128 74 622 74 C 699.319872 74 762 85.86445279999998 762 100.5 C 762 115.13554720000002 699.319872 127 622 127 C 544.680128 127 482 115.13554720000002 482 100.5 Z" stroke-miterlimit="10" stroke-dasharray=""/></g><g><g><path fill="none" stroke="none"/><text fill="#000000" stroke="none" font-family="Arial" font-size="13px" font-style="normal" font-weight="bold" text-decoration="undefined" x="756" y="445" text-anchor="middle" dominant-baseline="central" transform="matrix(1 0 0 1 -134 -350)">UC43 - Visualizzazione</text><text fill="#000000" stroke="none" font-family="Arial" font-size="13px" font-style="normal" font-weight="bold" text-decoration="undefined" x="756" y="458" text-anchor="middle" dominant-baseline="central" transform="matrix(1 0 0 1 -134 -350)">singolo utente in lista</text></g></g><g><path fill="none" stroke="#000000" paint-order="fill stroke markers" d=" M 419 100 L 481 100" stroke-miterlimit="10" stroke-dasharray="3"/></g><g><path fill="none" stroke="#000000" paint-order="fill stroke markers" d=" M 470.8373251423759 104.209517756016 L 481 100 L 470.8373251423758 95.790482243984" stroke-miterlimit="10" stroke-dasharray=""/></g><g><rect fill="#ffffff" stroke="none" x="557" y="414" width="55.65625" height="13" transform="matrix(1 0 0 1 -134 -350)"/></g><g><g><path fill="none" stroke="none"/><text fill="#000000" stroke="none" font-family="Arial" font-size="13px" font-style="normal" font-weight="normal" text-decoration="undefined" x="584.828125" y="420.5" text-anchor="middle" dominant-baseline="central" transform="matrix(1 0 0 1 -134 -350)">«include»</text></g></g><g><path fill="none" stroke="#000000" paint-order="fill stroke markers" d=" M 119 98 L 185 99" stroke-miterlimit="10" stroke-dasharray=""/></g></g></svg>