<svg version="1.1" xmlns="http://www.w3.org/2000/svg" xmlns:xlink="http://www.w3.org/1999/xlink" width="941" height="308"><defs/><g><g><rect fill="#C0C0C0" stroke="none" x="391" y="325" width="704" height="288" transform="matrix(1 0 0 1 -158 -308)" fill-opacity="0.2"/></g><g><rect fill="#ffffff" stroke="none" x="384" y="318" width="704" height="288" transform="matrix(1 0 0 1 -158 -308)"/></g><g><path fill="none" stroke="#000000" paint-order="fill stroke markers" d=" M 226 10 L 930 10 L 930 298 L 226 298 L 226 10 Z Z" stroke-miterlimit="10" stroke-dasharray=""/></g><g><g><path fill="none" stroke="none"/><text fill="#000000" stroke="none" font-family="Arial" font-size="13px" font-style="normal" font-weight="bold" text-decoration="undefined" x="736.5" y="331.5" text-anchor="middle" dominant-baseline="central" transform="matrix(1 0 0 1 -158 -308)">Sistema Cloud</text></g></g><g><path fill="#ffffff" stroke="none" paint-order="stroke fill markers" d=" M 55.2781640625 131.85000000000002 C 55.2781640625 126.96227952000004 59.235966430499985 123 64.1181640625 123 C 69.00036169450001 123 72.9581640625 126.96227952000004 72.9581640625 131.85000000000002 C 72.9581640625 136.73772048 69.00036169450001 140.7 64.1181640625 140.7 C 59.235966430499985 140.7 55.2781640625 136.73772048 55.2781640625 131.85000000000002 Z"/></g><g><path fill="none" stroke="#000000" paint-order="fill stroke markers" d=" M 55.2781640625 131.85000000000002 C 55.2781640625 126.96227952000004 59.235966430499985 123 64.1181640625 123 C 69.00036169450001 123 72.9581640625 126.96227952000004 72.9581640625 131.85000000000002 C 72.9581640625 136.73772048 69.00036169450001 140.7 64.1181640625 140.7 C 59.235966430499985 140.7 55.2781640625 136.73772048 55.2781640625 131.85000000000002 Z" stroke-miterlimit="10" stroke-dasharray=""/></g><g><path fill="none" stroke="#000000" paint-order="fill stroke markers" d=" M 64.1181640625 140.7 L 64.1181640625 158.3" stroke-miterlimit="10" stroke-dasharray=""/></g><g><path fill="none" stroke="#000000" paint-order="fill stroke markers" d=" M 54.758164062499986 147.3 L 73.47816406250001 147.3" stroke-miterlimit="10" stroke-dasharray=""/></g><g><path fill="none" stroke="#000000" paint-order="fill stroke markers" d=" M 64.1181640625 158.3 L 51.1181640625 176" stroke-miterlimit="10" stroke-dasharray=""/></g><g><path fill="none" stroke="#000000" paint-order="fill stroke markers" d=" M 64.1181640625 158.3 L 77.1181640625 176" stroke-miterlimit="10" stroke-dasharray=""/></g><g><g><path fill="none" stroke="none"/><text fill="#000000" stroke="none" font-family="Arial" font-size="13px" font-style="normal" font-weight="bold" text-decoration="undefined" x="222.6181640625" y="498.5" text-anchor="middle" dominant-baseline="central" transform="matrix(1 0 0 1 -158 -308)">Admin generico</text></g></g><g><path fill="#C0C0C0" stroke="none" paint-order="stroke fill markers" d=" M 257 179.5 C 257 164.86445279999998 319.68012799999997 153 397 153 C 474.31987200000003 153 537 164.86445279999998 537 179.5 C 537 194.13554720000002 474.31987200000003 206 397 206 C 319.68012799999997 206 257 194.13554720000002 257 179.5 Z" fill-opacity="0.2"/></g><g><path fill="#ffffff" stroke="none" paint-order="stroke fill markers" d=" M 250 172.5 C 250 157.86445279999998 312.68012799999997 146 390 146 C 467.31987200000003 146 530 157.86445279999998 530 172.5 C 530 187.13554720000002 467.31987200000003 199 390 199 C 312.68012799999997 199 250 187.13554720000002 250 172.5 Z"/></g><g><path fill="none" stroke="#000000" paint-order="fill stroke markers" d=" M 250 172.5 C 250 157.86445279999998 312.68012799999997 146 390 146 C 467.31987200000003 146 530 157.86445279999998 530 172.5 C 530 187.13554720000002 467.31987200000003 199 390 199 C 312.68012799999997 199 250 187.13554720000002 250 172.5 Z" stroke-miterlimit="10" stroke-dasharray=""/></g><g><g><path fill="none" stroke="none"/><text fill="#000000" stroke="none" font-family="Arial" font-size="13px" font-style="normal" font-weight="bold" text-decoration="undefined" x="548" y="475" text-anchor="middle" dominant-baseline="central" transform="matrix(1 0 0 1 -158 -308)">UC43 - Visualizzazione</text><text fill="#000000" stroke="none" font-family="Arial" font-size="13px" font-style="normal" font-weight="bold" text-decoration="undefined" x="548" y="488" text-anchor="middle" dominant-baseline="central" transform="matrix(1 0 0 1 -158 -308)">singolo utente in lista</text></g></g><g><path fill="#C0C0C0" stroke="none" paint-order="stroke fill markers" d=" M 665 125 C 665 105.1177472 720.5166848 89 789 89 C 857.4833152 89 913 105.1177472 913 125 C 913 144.8822528 857.4833152 161 789 161 C 720.5166848 161 665 144.8822528 665 125 Z" fill-opacity="0.2"/></g><g><path fill="#ffffff" stroke="none" paint-order="stroke fill markers" d=" M 658 118 C 658 98.1177472 713.5166848 82 782 82 C 850.4833152 82 906 98.1177472 906 118 C 906 137.8822528 850.4833152 154 782 154 C 713.5166848 154 658 137.8822528 658 118 Z"/></g><g><path fill="none" stroke="#000000" paint-order="fill stroke markers" d=" M 658 118 C 658 98.1177472 713.5166848 82 782 82 C 850.4833152 82 906 98.1177472 906 118 C 906 137.8822528 850.4833152 154 782 154 C 713.5166848 154 658 137.8822528 658 118 Z" stroke-miterlimit="10" stroke-dasharray=""/></g><g><g><path fill="none" stroke="none"/><text fill="#000000" stroke="none" font-family="Arial" font-size="13px" font-style="normal" font-weight="bold" text-decoration="undefined" x="940" y="414" text-anchor="middle" dominant-baseline="central" transform="matrix(1 0 0 1 -158 -308)">UC43.1 - Visualizzazione</text><text fill="#000000" stroke="none" font-family="Arial" font-size="13px" font-style="normal" font-weight="bold" text-decoration="undefined" x="940" y="427" text-anchor="middle" dominant-baseline="central" transform="matrix(1 0 0 1 -158 -308)">email singolo utente in</text><text fill="#000000" stroke="none" font-family="Arial" font-size="13px" font-style="normal" font-weight="bold" text-decoration="undefined" x="940" y="440" text-anchor="middle" dominant-baseline="central" transform="matrix(1 0 0 1 -158 -308)">lista</text></g></g><g><path fill="#C0C0C0" stroke="none" paint-order="stroke fill markers" d=" M 673 229 C 673 209.11774720000005 726.725824 193 793 193 C 859.274176 193 913 209.11774720000005 913 229 C 913 248.88225279999995 859.274176 265 793 265 C 726.725824 265 673 248.88225279999995 673 229 Z" fill-opacity="0.2"/></g><g><path fill="#ffffff" stroke="none" paint-order="stroke fill markers" d=" M 666 222 C 666 202.1177472 719.725824 186 786 186 C 852.274176 186 906 202.1177472 906 222 C 906 241.88225279999995 852.274176 258 786 258 C 719.725824 258 666 241.88225279999995 666 222 Z"/></g><g><path fill="none" stroke="#000000" paint-order="fill stroke markers" d=" M 666 222 C 666 202.1177472 719.725824 186 786 186 C 852.274176 186 906 202.1177472 906 222 C 906 241.88225279999995 852.274176 258 786 258 C 719.725824 258 666 241.88225279999995 666 222 Z" stroke-miterlimit="10" stroke-dasharray=""/></g><g><g><path fill="none" stroke="none"/><text fill="#000000" stroke="none" font-family="Arial" font-size="13px" font-style="normal" font-weight="bold" text-decoration="undefined" x="944" y="518" text-anchor="middle" dominant-baseline="central" transform="matrix(1 0 0 1 -158 -308)">UC43.2 - Visualizzazione</text><text fill="#000000" stroke="none" font-family="Arial" font-size="13px" font-style="normal" font-weight="bold" text-decoration="undefined" x="944" y="531" text-anchor="middle" dominant-baseline="central" transform="matrix(1 0 0 1 -158 -308)">stato singolo utente in</text><text fill="#000000" stroke="none" font-family="Arial" font-size="13px" font-style="normal" font-weight="bold" text-decoration="undefined" x="944" y="544" text-anchor="middle" dominant-baseline="central" transform="matrix(1 0 0 1 -158 -308)">lista</text></g></g><g><path fill="none" stroke="#000000" paint-order="fill stroke markers" d=" M 531 153 L 657 135" stroke-miterlimit="10" stroke-dasharray="3"/></g><g><path fill="none" stroke="#000000" paint-order="fill stroke markers" d=" M 647.5347808806127 140.60442923248974 L 657 135 L 646.3441494602911 132.2700092902383" stroke-miterlimit="10" stroke-dasharray=""/></g><g><rect fill="#ffffff" stroke="none" x="696" y="435" width="55.65625" height="13" transform="matrix(1 0 0 1 -158 -308)"/></g><g><g><path fill="none" stroke="none"/><text fill="#000000" stroke="none" font-family="Arial" font-size="13px" font-style="normal" font-weight="normal" text-decoration="undefined" x="723.828125" y="441.5" text-anchor="middle" dominant-baseline="central" transform="matrix(1 0 0 1 -158 -308)">«include»</text></g></g><g><path fill="none" stroke="#000000" paint-order="fill stroke markers" d=" M 531 190 L 665 207" stroke-miterlimit="10" stroke-dasharray="3"/></g><g><path fill="none" stroke="#000000" paint-order="fill stroke markers" d=" M 654.3883377833046 209.89700276126155 L 665 207 L 655.4479313893094 201.5449119845178" stroke-miterlimit="10" stroke-dasharray=""/></g><g><rect fill="#ffffff" stroke="none" x="728" y="509" width="55.65625" height="13" transform="matrix(1 0 0 1 -158 -308)"/></g><g><g><path fill="none" stroke="none"/><text fill="#000000" stroke="none" font-family="Arial" font-size="13px" font-style="normal" font-weight="normal" text-decoration="undefined" x="755.828125" y="515.5" text-anchor="middle" dominant-baseline="central" transform="matrix(1 0 0 1 -158 -308)">«include»</text></g></g><g><path fill="none" stroke="#000000" paint-order="fill stroke markers" d=" M 249 168 L 119 164" stroke-miterlimit="10" stroke-dasharray=""/></g></g></svg>