<svg version="1.1" xmlns="http://www.w3.org/2000/svg" xmlns:xlink="http://www.w3.org/1999/xlink" width="949" height="276"><defs/><g><g><rect fill="#C0C0C0" stroke="none" x="568" y="441" width="744" height="256" transform="matrix(1 0 0 1 -367 -424)" fill-opacity="0.2"/></g><g><rect fill="#ffffff" stroke="none" x="561" y="434" width="744" height="256" transform="matrix(1 0 0 1 -367 -424)"/></g><g><path fill="none" stroke="#000000" paint-order="fill stroke markers" d=" M 194 10 L 938 10 L 938 266 L 194 266 L 194 10 Z Z" stroke-miterlimit="10" stroke-dasharray=""/></g><g><g><path fill="none" stroke="none"/><text fill="#000000" stroke="none" font-family="Arial" font-size="13px" font-style="normal" font-weight="bold" text-decoration="undefined" x="933.5" y="447.5" text-anchor="middle" dominant-baseline="central" transform="matrix(1 0 0 1 -367 -424)">Sistema Cloud</text></g></g><g><path fill="#ffffff" stroke="none" paint-order="stroke fill markers" d=" M 55.278164062500025 107.85000000000002 C 55.278164062500025 102.96227952000004 59.235966430500014 99 64.1181640625 99 C 69.00036169449999 99 72.95816406249997 102.96227952000004 72.95816406249997 107.85000000000002 C 72.95816406249997 112.73772048000001 69.00036169449999 116.70000000000005 64.1181640625 116.70000000000005 C 59.235966430500014 116.70000000000005 55.278164062500025 112.73772048000001 55.278164062500025 107.85000000000002 Z"/></g><g><path fill="none" stroke="#000000" paint-order="fill stroke markers" d=" M 55.278164062500025 107.85000000000002 C 55.278164062500025 102.96227952000004 59.235966430500014 99 64.1181640625 99 C 69.00036169449999 99 72.95816406249997 102.96227952000004 72.95816406249997 107.85000000000002 C 72.95816406249997 112.73772048000001 69.00036169449999 116.70000000000005 64.1181640625 116.70000000000005 C 59.235966430500014 116.70000000000005 55.278164062500025 112.73772048000001 55.278164062500025 107.85000000000002 Z" stroke-miterlimit="10" stroke-dasharray=""/></g><g><path fill="none" stroke="#000000" paint-order="fill stroke markers" d=" M 64.1181640625 116.70000000000005 L 64.1181640625 134.29999999999995" stroke-miterlimit="10" stroke-dasharray=""/></g><g><path fill="none" stroke="#000000" paint-order="fill stroke markers" d=" M 54.758164062499986 123.29999999999995 L 73.47816406250001 123.29999999999995" stroke-miterlimit="10" stroke-dasharray=""/></g><g><path fill="none" stroke="#000000" paint-order="fill stroke markers" d=" M 64.1181640625 134.29999999999995 L 51.1181640625 152" stroke-miterlimit="10" stroke-dasharray=""/></g><g><path fill="none" stroke="#000000" paint-order="fill stroke markers" d=" M 64.1181640625 134.29999999999995 L 77.1181640625 152" stroke-miterlimit="10" stroke-dasharray=""/></g><g><g><path fill="none" stroke="none"/><text fill="#000000" stroke="none" font-family="Arial" font-size="13px" font-style="normal" font-weight="bold" text-decoration="undefined" x="431.6181640625" y="590.5" text-anchor="middle" dominant-baseline="central" transform="matrix(1 0 0 1 -367 -424)">Admin generico</text></g></g><g><path fill="#C0C0C0" stroke="none" paint-order="stroke fill markers" d=" M 257 155.5 C 257 140.86445279999998 319.68012799999997 129 397 129 C 474.31987200000003 129 537 140.86445279999998 537 155.5 C 537 170.13554720000002 474.31987200000003 182 397 182 C 319.68012799999997 182 257 170.13554720000002 257 155.5 Z" fill-opacity="0.2"/></g><g><path fill="#ffffff" stroke="none" paint-order="stroke fill markers" d=" M 250 148.5 C 250 133.86445279999998 312.68012799999997 122 390 122 C 467.31987200000003 122 530 133.86445279999998 530 148.5 C 530 163.13554720000002 467.31987200000003 175 390 175 C 312.68012799999997 175 250 163.13554720000002 250 148.5 Z"/></g><g><path fill="none" stroke="#000000" paint-order="fill stroke markers" d=" M 250 148.5 C 250 133.86445279999998 312.68012799999997 122 390 122 C 467.31987200000003 122 530 133.86445279999998 530 148.5 C 530 163.13554720000002 467.31987200000003 175 390 175 C 312.68012799999997 175 250 163.13554720000002 250 148.5 Z" stroke-miterlimit="10" stroke-dasharray=""/></g><g><g><path fill="none" stroke="none"/><text fill="#000000" stroke="none" font-family="Arial" font-size="13px" font-style="normal" font-weight="bold" text-decoration="undefined" x="757" y="567" text-anchor="middle" dominant-baseline="central" transform="matrix(1 0 0 1 -367 -424)">UC43 - Visualizzazione</text><text fill="#000000" stroke="none" font-family="Arial" font-size="13px" font-style="normal" font-weight="bold" text-decoration="undefined" x="757" y="580" text-anchor="middle" dominant-baseline="central" transform="matrix(1 0 0 1 -367 -424)">singolo utente in lista</text></g></g><g><path fill="#C0C0C0" stroke="none" paint-order="stroke fill markers" d=" M 665 101 C 665 81.1177472 720.5166847999999 65 789 65 C 857.4833152000001 65 913 81.1177472 913 101 C 913 120.88225279999995 857.4833152000001 137 789 137 C 720.5166847999999 137 665 120.88225279999995 665 101 Z" fill-opacity="0.2"/></g><g><path fill="#ffffff" stroke="none" paint-order="stroke fill markers" d=" M 658 94 C 658 74.1177472 713.5166847999999 58 782 58 C 850.4833152000001 58 906 74.1177472 906 94 C 906 113.88225279999995 850.4833152000001 130 782 130 C 713.5166847999999 130 658 113.88225279999995 658 94 Z"/></g><g><path fill="none" stroke="#000000" paint-order="fill stroke markers" d=" M 658 94 C 658 74.1177472 713.5166847999999 58 782 58 C 850.4833152000001 58 906 74.1177472 906 94 C 906 113.88225279999995 850.4833152000001 130 782 130 C 713.5166847999999 130 658 113.88225279999995 658 94 Z" stroke-miterlimit="10" stroke-dasharray=""/></g><g><g><path fill="none" stroke="none"/><text fill="#000000" stroke="none" font-family="Arial" font-size="13px" font-style="normal" font-weight="bold" text-decoration="undefined" x="1149" y="506" text-anchor="middle" dominant-baseline="central" transform="matrix(1 0 0 1 -367 -424)">UC43.1 - Visualizzazione</text><text fill="#000000" stroke="none" font-family="Arial" font-size="13px" font-style="normal" font-weight="bold" text-decoration="undefined" x="1149" y="519" text-anchor="middle" dominant-baseline="central" transform="matrix(1 0 0 1 -367 -424)">email singolo utente in</text><text fill="#000000" stroke="none" font-family="Arial" font-size="13px" font-style="normal" font-weight="bold" text-decoration="undefined" x="1149" y="532" text-anchor="middle" dominant-baseline="central" transform="matrix(1 0 0 1 -367 -424)">lista</text></g></g><g><path fill="#C0C0C0" stroke="none" paint-order="stroke fill markers" d=" M 673 205 C 673 185.11774720000005 726.7258240000001 169 793 169 C 859.2741759999999 169 913 185.11774720000005 913 205 C 913 224.88225279999995 859.2741759999999 241 793 241 C 726.7258240000001 241 673 224.88225279999995 673 205 Z" fill-opacity="0.2"/></g><g><path fill="#ffffff" stroke="none" paint-order="stroke fill markers" d=" M 666 198 C 666 178.11774720000005 719.7258240000001 162 786 162 C 852.2741759999999 162 906 178.11774720000005 906 198 C 906 217.88225279999995 852.2741759999999 234 786 234 C 719.7258240000001 234 666 217.88225279999995 666 198 Z"/></g><g><path fill="none" stroke="#000000" paint-order="fill stroke markers" d=" M 666 198 C 666 178.11774720000005 719.7258240000001 162 786 162 C 852.2741759999999 162 906 178.11774720000005 906 198 C 906 217.88225279999995 852.2741759999999 234 786 234 C 719.7258240000001 234 666 217.88225279999995 666 198 Z" stroke-miterlimit="10" stroke-dasharray=""/></g><g><g><path fill="none" stroke="none"/><text fill="#000000" stroke="none" font-family="Arial" font-size="13px" font-style="normal" font-weight="bold" text-decoration="undefined" x="1153" y="610" text-anchor="middle" dominant-baseline="central" transform="matrix(1 0 0 1 -367 -424)">UC43.2 - Visualizzazione</text><text fill="#000000" stroke="none" font-family="Arial" font-size="13px" font-style="normal" font-weight="bold" text-decoration="undefined" x="1153" y="623" text-anchor="middle" dominant-baseline="central" transform="matrix(1 0 0 1 -367 -424)">stato singolo utente in</text><text fill="#000000" stroke="none" font-family="Arial" font-size="13px" font-style="normal" font-weight="bold" text-decoration="undefined" x="1153" y="636" text-anchor="middle" dominant-baseline="central" transform="matrix(1 0 0 1 -367 -424)">lista</text></g></g><g><path fill="none" stroke="#000000" paint-order="fill stroke markers" d=" M 531 129 L 657 111" stroke-miterlimit="10" stroke-dasharray="3"/></g><g><path fill="none" stroke="#000000" paint-order="fill stroke markers" d=" M 647.5347808806127 116.60442923248968 L 657 111 L 646.3441494602911 108.27000929023825" stroke-miterlimit="10" stroke-dasharray=""/></g><g><rect fill="#ffffff" stroke="none" x="905" y="527" width="55.65625" height="13" transform="matrix(1 0 0 1 -367 -424)"/></g><g><g><path fill="none" stroke="none"/><text fill="#000000" stroke="none" font-family="Arial" font-size="13px" font-style="normal" font-weight="normal" text-decoration="undefined" x="932.828125" y="533.5" text-anchor="middle" dominant-baseline="central" transform="matrix(1 0 0 1 -367 -424)">«include»</text></g></g><g><path fill="none" stroke="#000000" paint-order="fill stroke markers" d=" M 531 166 L 665 183" stroke-miterlimit="10" stroke-dasharray="3"/></g><g><path fill="none" stroke="#000000" paint-order="fill stroke markers" d=" M 654.3883377833046 185.89700276126155 L 665 183 L 655.4479313893094 177.54491198451774" stroke-miterlimit="10" stroke-dasharray=""/></g><g><rect fill="#ffffff" stroke="none" x="937" y="601" width="55.65625" height="13" transform="matrix(1 0 0 1 -367 -424)"/></g><g><g><path fill="none" stroke="none"/><text fill="#000000" stroke="none" font-family="Arial" font-size="13px" font-style="normal" font-weight="normal" text-decoration="undefined" x="964.828125" y="607.5" text-anchor="middle" dominant-baseline="central" transform="matrix(1 0 0 1 -367 -424)">«include»</text></g></g><g><path fill="none" stroke="#000000" paint-order="fill stroke markers" d=" M 249 144 L 119 140" stroke-miterlimit="10" stroke-dasharray=""/></g></g></svg>