<svg version="1.1" xmlns="http://www.w3.org/2000/svg" xmlns:xlink="http://www.w3.org/1999/xlink" width="929" height="308"><defs/><g><g><rect fill="#C0C0C0" stroke="none" x="763" y="530" width="680" height="288" transform="matrix(1 0 0 1 -518 -513)" fill-opacity="0.2"/></g><g><rect fill="#ffffff" stroke="none" x="756" y="523" width="680" height="288" transform="matrix(1 0 0 1 -518 -513)"/></g><g><path fill="none" stroke="#000000" paint-order="fill stroke markers" d=" M 238 10 L 918 10 L 918 298 L 238 298 L 238 10 Z Z" stroke-miterlimit="10" stroke-dasharray=""/></g><g><g><path fill="none" stroke="none"/><text fill="#000000" stroke="none" font-family="Arial" font-size="13px" font-style="normal" font-weight="bold" text-decoration="undefined" x="1096.5" y="536.5" text-anchor="middle" dominant-baseline="central" transform="matrix(1 0 0 1 -518 -513)">Dashboard admin</text></g></g><g><path fill="#ffffff" stroke="none" paint-order="stroke fill markers" d=" M 55.27816406249997 119.85000000000002 C 55.27816406249997 114.96227952000004 59.23596643049996 111 64.1181640625 111 C 69.00036169450004 111 72.95816406250003 114.96227952000004 72.95816406250003 119.85000000000002 C 72.95816406250003 124.73772048000001 69.00036169450004 128.70000000000005 64.1181640625 128.70000000000005 C 59.23596643049996 128.70000000000005 55.27816406249997 124.73772048000001 55.27816406249997 119.85000000000002 Z"/></g><g><path fill="none" stroke="#000000" paint-order="fill stroke markers" d=" M 55.27816406249997 119.85000000000002 C 55.27816406249997 114.96227952000004 59.23596643049996 111 64.1181640625 111 C 69.00036169450004 111 72.95816406250003 114.96227952000004 72.95816406250003 119.85000000000002 C 72.95816406250003 124.73772048000001 69.00036169450004 128.70000000000005 64.1181640625 128.70000000000005 C 59.23596643049996 128.70000000000005 55.27816406249997 124.73772048000001 55.27816406249997 119.85000000000002 Z" stroke-miterlimit="10" stroke-dasharray=""/></g><g><path fill="none" stroke="#000000" paint-order="fill stroke markers" d=" M 64.1181640625 128.70000000000005 L 64.1181640625 146.29999999999995" stroke-miterlimit="10" stroke-dasharray=""/></g><g><path fill="none" stroke="#000000" paint-order="fill stroke markers" d=" M 54.758164062499986 135.29999999999995 L 73.47816406250001 135.29999999999995" stroke-miterlimit="10" stroke-dasharray=""/></g><g><path fill="none" stroke="#000000" paint-order="fill stroke markers" d=" M 64.1181640625 146.29999999999995 L 51.1181640625 164" stroke-miterlimit="10" stroke-dasharray=""/></g><g><path fill="none" stroke="#000000" paint-order="fill stroke markers" d=" M 64.1181640625 146.29999999999995 L 77.1181640625 164" stroke-miterlimit="10" stroke-dasharray=""/></g><g><g><path fill="none" stroke="none"/><text fill="#000000" stroke="none" font-family="Arial" font-size="13px" font-style="normal" font-weight="bold" text-decoration="undefined" x="582.6181640625" y="691.5" text-anchor="middle" dominant-baseline="central" transform="matrix(1 0 0 1 -518 -513)">Admin generico</text></g></g><g><path fill="#C0C0C0" stroke="none" paint-order="stroke fill markers" d=" M 257 167.5 C 257 152.86445279999998 313.4121152 141 383 141 C 452.5878848 141 509 152.86445279999998 509 167.5 C 509 182.13554720000002 452.5878848 194 383 194 C 313.4121152 194 257 182.13554720000002 257 167.5 Z" fill-opacity="0.2"/></g><g><path fill="#ffffff" stroke="none" paint-order="stroke fill markers" d=" M 250 160.5 C 250 145.86445279999998 306.4121152 134 376 134 C 445.5878848 134 502 145.86445279999998 502 160.5 C 502 175.13554720000002 445.5878848 187 376 187 C 306.4121152 187 250 175.13554720000002 250 160.5 Z"/></g><g><path fill="none" stroke="#000000" paint-order="fill stroke markers" d=" M 250 160.5 C 250 145.86445279999998 306.4121152 134 376 134 C 445.5878848 134 502 145.86445279999998 502 160.5 C 502 175.13554720000002 445.5878848 187 376 187 C 306.4121152 187 250 175.13554720000002 250 160.5 Z" stroke-miterlimit="10" stroke-dasharray=""/></g><g><g><path fill="none" stroke="none"/><text fill="#000000" stroke="none" font-family="Arial" font-size="13px" font-style="normal" font-weight="bold" text-decoration="undefined" x="894" y="668" text-anchor="middle" dominant-baseline="central" transform="matrix(1 0 0 1 -518 -513)">UC43 - Visualizzazione</text><text fill="#000000" stroke="none" font-family="Arial" font-size="13px" font-style="normal" font-weight="bold" text-decoration="undefined" x="894" y="681" text-anchor="middle" dominant-baseline="central" transform="matrix(1 0 0 1 -518 -513)">singolo utente in lista</text></g></g><g><path fill="#C0C0C0" stroke="none" paint-order="stroke fill markers" d=" M 629 103.5 C 629 88.86445279999998 688.0984063999999 77 761 77 C 833.9015936000001 77 893 88.86445279999998 893 103.5 C 893 118.13554720000002 833.9015936000001 130 761 130 C 688.0984063999999 130 629 118.13554720000002 629 103.5 Z" fill-opacity="0.2"/></g><g><path fill="#ffffff" stroke="none" paint-order="stroke fill markers" d=" M 622 96.5 C 622 81.86445279999998 681.0984063999999 70 754 70 C 826.9015936000001 70 886 81.86445279999998 886 96.5 C 886 111.13554720000002 826.9015936000001 123 754 123 C 681.0984063999999 123 622 111.13554720000002 622 96.5 Z"/></g><g><path fill="none" stroke="#000000" paint-order="fill stroke markers" d=" M 622 96.5 C 622 81.86445279999998 681.0984063999999 70 754 70 C 826.9015936000001 70 886 81.86445279999998 886 96.5 C 886 111.13554720000002 826.9015936000001 123 754 123 C 681.0984063999999 123 622 111.13554720000002 622 96.5 Z" stroke-miterlimit="10" stroke-dasharray=""/></g><g><g><path fill="none" stroke="none"/><text fill="#000000" stroke="none" font-family="Arial" font-size="13px" font-style="normal" font-weight="bold" text-decoration="undefined" x="1272" y="604" text-anchor="middle" dominant-baseline="central" transform="matrix(1 0 0 1 -518 -513)">UC43.1 - Visualizzazione</text><text fill="#000000" stroke="none" font-family="Arial" font-size="13px" font-style="normal" font-weight="bold" text-decoration="undefined" x="1272" y="617" text-anchor="middle" dominant-baseline="central" transform="matrix(1 0 0 1 -518 -513)">email singolo utente in lista</text></g></g><g><path fill="none" stroke="#000000" paint-order="fill stroke markers" d=" M 503 138 L 621 119" stroke-miterlimit="10" stroke-dasharray="3"/></g><g><path fill="none" stroke="#000000" paint-order="fill stroke markers" d=" M 611.6357430828414 124.77154159557449 L 621 119 L 610.2973742329732 116.459566633235" stroke-miterlimit="10" stroke-dasharray=""/></g><g><rect fill="#ffffff" stroke="none" x="1024" y="625" width="55.65625" height="13" transform="matrix(1 0 0 1 -518 -513)"/></g><g><g><path fill="none" stroke="none"/><text fill="#000000" stroke="none" font-family="Arial" font-size="13px" font-style="normal" font-weight="normal" text-decoration="undefined" x="1051.828125" y="631.5" text-anchor="middle" dominant-baseline="central" transform="matrix(1 0 0 1 -518 -513)">«include»</text></g></g><g><path fill="none" stroke="#000000" paint-order="fill stroke markers" d=" M 503 178 L 645 197" stroke-miterlimit="10" stroke-dasharray="3"/></g><g><path fill="none" stroke="#000000" paint-order="fill stroke markers" d=" M 634.3688236411008 199.82455115478206 L 645 197 L 635.4853638292775 191.47988237998686" stroke-miterlimit="10" stroke-dasharray=""/></g><g><rect fill="#ffffff" stroke="none" x="1064" y="703" width="55.65625" height="13" transform="matrix(1 0 0 1 -518 -513)"/></g><g><g><path fill="none" stroke="none"/><text fill="#000000" stroke="none" font-family="Arial" font-size="13px" font-style="normal" font-weight="normal" text-decoration="undefined" x="1091.828125" y="709.5" text-anchor="middle" dominant-baseline="central" transform="matrix(1 0 0 1 -518 -513)">«include»</text></g></g><g><path fill="none" stroke="#000000" paint-order="fill stroke markers" d=" M 249 156 L 119 152" stroke-miterlimit="10" stroke-dasharray=""/></g><g><path fill="#C0C0C0" stroke="none" paint-order="stroke fill markers" d=" M 653 221 C 653 201.11774720000005 706.7258240000001 185 773 185 C 839.2741759999999 185 893 201.11774720000005 893 221 C 893 240.88225279999995 839.2741759999999 257 773 257 C 706.7258240000001 257 653 240.88225279999995 653 221 Z" fill-opacity="0.2"/></g><g><path fill="#ffffff" stroke="none" paint-order="stroke fill markers" d=" M 646 214 C 646 194.11774720000005 699.7258240000001 178 766 178 C 832.2741759999999 178 886 194.11774720000005 886 214 C 886 233.88225279999995 832.2741759999999 250 766 250 C 699.7258240000001 250 646 233.88225279999995 646 214 Z"/></g><g><path fill="none" stroke="#000000" paint-order="fill stroke markers" d=" M 646 214 C 646 194.11774720000005 699.7258240000001 178 766 178 C 832.2741759999999 178 886 194.11774720000005 886 214 C 886 233.88225279999995 832.2741759999999 250 766 250 C 699.7258240000001 250 646 233.88225279999995 646 214 Z" stroke-miterlimit="10" stroke-dasharray=""/></g><g><g><path fill="none" stroke="none"/><text fill="#000000" stroke="none" font-family="Arial" font-size="13px" font-style="normal" font-weight="bold" text-decoration="undefined" x="1284" y="715" text-anchor="middle" dominant-baseline="central" transform="matrix(1 0 0 1 -518 -513)">UC43.2 - Visualizzazione</text><text fill="#000000" stroke="none" font-family="Arial" font-size="13px" font-style="normal" font-weight="bold" text-decoration="undefined" x="1284" y="728" text-anchor="middle" dominant-baseline="central" transform="matrix(1 0 0 1 -518 -513)">stato singolo utente in</text><text fill="#000000" stroke="none" font-family="Arial" font-size="13px" font-style="normal" font-weight="bold" text-decoration="undefined" x="1284" y="741" text-anchor="middle" dominant-baseline="central" transform="matrix(1 0 0 1 -518 -513)">lista</text></g></g></g></svg>
