<svg version="1.1" xmlns="http://www.w3.org/2000/svg" xmlns:xlink="http://www.w3.org/1999/xlink" width="916" height="196"><defs/><g><g><path fill="#ffffff" stroke="none" paint-order="stroke fill markers" d=" M 55.2781640625 59.85000000000002 C 55.2781640625 54.96227952000004 59.235966430500014 51 64.1181640625 51 C 69.00036169449999 51 72.95816406249997 54.96227952000004 72.95816406249997 59.85000000000002 C 72.95816406249997 64.73772048000001 69.00036169449999 68.70000000000005 64.1181640625 68.70000000000005 C 59.235966430500014 68.70000000000005 55.2781640625 64.73772048000001 55.2781640625 59.85000000000002 Z"/></g><g><path fill="none" stroke="#000000" paint-order="fill stroke markers" d=" M 55.2781640625 59.85000000000002 C 55.2781640625 54.96227952000004 59.235966430500014 51 64.1181640625 51 C 69.00036169449999 51 72.95816406249997 54.96227952000004 72.95816406249997 59.85000000000002 C 72.95816406249997 64.73772048000001 69.00036169449999 68.70000000000005 64.1181640625 68.70000000000005 C 59.235966430500014 68.70000000000005 55.2781640625 64.73772048000001 55.2781640625 59.85000000000002 Z" stroke-miterlimit="10" stroke-dasharray=""/></g><g><path fill="none" stroke="#000000" paint-order="fill stroke markers" d=" M 64.1181640625 68.70000000000005 L 64.1181640625 86.29999999999995" stroke-miterlimit="10" stroke-dasharray=""/></g><g><path fill="none" stroke="#000000" paint-order="fill stroke markers" d=" M 54.758164062499986 75.29999999999995 L 73.47816406250001 75.29999999999995" stroke-miterlimit="10" stroke-dasharray=""/></g><g><path fill="none" stroke="#000000" paint-order="fill stroke markers" d=" M 64.1181640625 86.29999999999995 L 51.1181640625 104" stroke-miterlimit="10" stroke-dasharray=""/></g><g><path fill="none" stroke="#000000" paint-order="fill stroke markers" d=" M 64.1181640625 86.29999999999995 L 77.1181640625 104" stroke-miterlimit="10" stroke-dasharray=""/></g><g><g><path fill="none" stroke="none"/><text fill="#000000" stroke="none" font-family="Arial" font-size="13px" font-style="normal" font-weight="bold" text-decoration="undefined" x="255.6181640625" y="627.5" text-anchor="middle" dominant-baseline="central" transform="matrix(1 0 0 1 -191 -509)">Admin generico</text></g></g><g><path fill="#C0C0C0" stroke="none" paint-order="stroke fill markers" d=" M 257 107.5 C 257 92.86445279999998 319.68012799999997 81 397 81 C 474.31987200000003 81 537 92.86445279999998 537 107.5 C 537 122.13554720000002 474.31987200000003 134 397 134 C 319.68012799999997 134 257 122.13554720000002 257 107.5 Z" fill-opacity="0.2"/></g><g><path fill="#ffffff" stroke="none" paint-order="stroke fill markers" d=" M 250 100.5 C 250 85.86445279999998 312.68012799999997 74 390 74 C 467.31987200000003 74 530 85.86445279999998 530 100.5 C 530 115.13554720000002 467.31987200000003 127 390 127 C 312.68012799999997 127 250 115.13554720000002 250 100.5 Z"/></g><g><path fill="none" stroke="#000000" paint-order="fill stroke markers" d=" M 250 100.5 C 250 85.86445279999998 312.68012799999997 74 390 74 C 467.31987200000003 74 530 85.86445279999998 530 100.5 C 530 115.13554720000002 467.31987200000003 127 390 127 C 312.68012799999997 127 250 115.13554720000002 250 100.5 Z" stroke-miterlimit="10" stroke-dasharray=""/></g><g><g><path fill="none" stroke="none"/><text fill="#000000" stroke="none" font-family="Arial" font-size="13px" font-style="normal" font-weight="bold" text-decoration="undefined" x="581" y="604" text-anchor="middle" dominant-baseline="central" transform="matrix(1 0 0 1 -191 -509)">UC43 - Visualizzazione</text><text fill="#000000" stroke="none" font-family="Arial" font-size="13px" font-style="normal" font-weight="bold" text-decoration="undefined" x="581" y="617" text-anchor="middle" dominant-baseline="central" transform="matrix(1 0 0 1 -191 -509)">singolo utente in lista</text></g></g><g><path fill="#C0C0C0" stroke="none" paint-order="stroke fill markers" d=" M 665 53 C 665 33.11774720000005 720.5166848 17 789 17 C 857.4833152000001 17 913 33.11774720000005 913 53 C 913 72.88225279999995 857.4833152000001 89 789 89 C 720.5166848 89 665 72.88225279999995 665 53 Z" fill-opacity="0.2"/></g><g><path fill="#ffffff" stroke="none" paint-order="stroke fill markers" d=" M 658 46 C 658 26.117747200000053 713.5166848 10 782 10 C 850.4833152000001 10 906 26.117747200000053 906 46 C 906 65.88225279999995 850.4833152000001 82 782 82 C 713.5166848 82 658 65.88225279999995 658 46 Z"/></g><g><path fill="none" stroke="#000000" paint-order="fill stroke markers" d=" M 658 46 C 658 26.117747200000053 713.5166848 10 782 10 C 850.4833152000001 10 906 26.117747200000053 906 46 C 906 65.88225279999995 850.4833152000001 82 782 82 C 713.5166848 82 658 65.88225279999995 658 46 Z" stroke-miterlimit="10" stroke-dasharray=""/></g><g><g><path fill="none" stroke="none"/><text fill="#000000" stroke="none" font-family="Arial" font-size="13px" font-style="normal" font-weight="bold" text-decoration="undefined" x="973" y="543" text-anchor="middle" dominant-baseline="central" transform="matrix(1 0 0 1 -191 -509)">UC43.1 - Visualizzazione</text><text fill="#000000" stroke="none" font-family="Arial" font-size="13px" font-style="normal" font-weight="bold" text-decoration="undefined" x="973" y="556" text-anchor="middle" dominant-baseline="central" transform="matrix(1 0 0 1 -191 -509)">email singolo utente in</text><text fill="#000000" stroke="none" font-family="Arial" font-size="13px" font-style="normal" font-weight="bold" text-decoration="undefined" x="973" y="569" text-anchor="middle" dominant-baseline="central" transform="matrix(1 0 0 1 -191 -509)">lista</text></g></g><g><path fill="#C0C0C0" stroke="none" paint-order="stroke fill markers" d=" M 673 157 C 673 137.11774720000005 726.725824 121 793 121 C 859.2741759999999 121 913 137.11774720000005 913 157 C 913 176.88225279999995 859.2741759999999 193 793 193 C 726.725824 193 673 176.88225279999995 673 157 Z" fill-opacity="0.2"/></g><g><path fill="#ffffff" stroke="none" paint-order="stroke fill markers" d=" M 666 150 C 666 130.11774720000005 719.725824 114 786 114 C 852.2741759999999 114 906 130.11774720000005 906 150 C 906 169.88225279999995 852.2741759999999 186 786 186 C 719.725824 186 666 169.88225279999995 666 150 Z"/></g><g><path fill="none" stroke="#000000" paint-order="fill stroke markers" d=" M 666 150 C 666 130.11774720000005 719.725824 114 786 114 C 852.2741759999999 114 906 130.11774720000005 906 150 C 906 169.88225279999995 852.2741759999999 186 786 186 C 719.725824 186 666 169.88225279999995 666 150 Z" stroke-miterlimit="10" stroke-dasharray=""/></g><g><g><path fill="none" stroke="none"/><text fill="#000000" stroke="none" font-family="Arial" font-size="13px" font-style="normal" font-weight="bold" text-decoration="undefined" x="977" y="647" text-anchor="middle" dominant-baseline="central" transform="matrix(1 0 0 1 -191 -509)">UC43.2 - Visualizzazione</text><text fill="#000000" stroke="none" font-family="Arial" font-size="13px" font-style="normal" font-weight="bold" text-decoration="undefined" x="977" y="660" text-anchor="middle" dominant-baseline="central" transform="matrix(1 0 0 1 -191 -509)">stato singolo utente in</text><text fill="#000000" stroke="none" font-family="Arial" font-size="13px" font-style="normal" font-weight="bold" text-decoration="undefined" x="977" y="673" text-anchor="middle" dominant-baseline="central" transform="matrix(1 0 0 1 -191 -509)">lista</text></g></g><g><path fill="none" stroke="#000000" paint-order="fill stroke markers" d=" M 531 81 L 657 63" stroke-miterlimit="10" stroke-dasharray="3"/></g><g><path fill="none" stroke="#000000" paint-order="fill stroke markers" d=" M 647.5347808806127 68.60442923248968 L 657 63 L 646.3441494602911 60.27000929023825" stroke-miterlimit="10" stroke-dasharray=""/></g><g><rect fill="#ffffff" stroke="none" x="729" y="564" width="55.65625" height="13" transform="matrix(1 0 0 1 -191 -509)"/></g><g><g><path fill="none" stroke="none"/><text fill="#000000" stroke="none" font-family="Arial" font-size="13px" font-style="normal" font-weight="normal" text-decoration="undefined" x="756.828125" y="570.5" text-anchor="middle" dominant-baseline="central" transform="matrix(1 0 0 1 -191 -509)">«include»</text></g></g><g><path fill="none" stroke="#000000" paint-order="fill stroke markers" d=" M 531 118 L 665 135" stroke-miterlimit="10" stroke-dasharray="3"/></g><g><path fill="none" stroke="#000000" paint-order="fill stroke markers" d=" M 654.3883377833046 137.89700276126155 L 665 135 L 655.4479313893094 129.54491198451774" stroke-miterlimit="10" stroke-dasharray=""/></g><g><rect fill="#ffffff" stroke="none" x="761" y="638" width="55.65625" height="13" transform="matrix(1 0 0 1 -191 -509)"/></g><g><g><path fill="none" stroke="none"/><text fill="#000000" stroke="none" font-family="Arial" font-size="13px" font-style="normal" font-weight="normal" text-decoration="undefined" x="788.828125" y="644.5" text-anchor="middle" dominant-baseline="central" transform="matrix(1 0 0 1 -191 -509)">«include»</text></g></g><g><path fill="none" stroke="#000000" paint-order="fill stroke markers" d=" M 249 96 L 119 92" stroke-miterlimit="10" stroke-dasharray=""/></g></g></svg>