<svg version="1.1" xmlns="http://www.w3.org/2000/svg" xmlns:xlink="http://www.w3.org/1999/xlink" width="1124" height="364"><defs/><g><g><rect fill="#C0C0C0" stroke="none" x="597" y="502" width="944" height="344" transform="matrix(1 0 0 1 -421 -485)" fill-opacity="0.2"/></g><g><rect fill="#ffffff" stroke="none" x="590" y="495" width="944" height="344" transform="matrix(1 0 0 1 -421 -485)"/></g><g><path fill="none" stroke="#000000" paint-order="fill stroke markers" d=" M 169 10 L 1113 10 L 1113 354 L 169 354 L 169 10 Z Z" stroke-miterlimit="10" stroke-dasharray=""/></g><g><g><path fill="none" stroke="none"/><text fill="#000000" stroke="none" font-family="Arial" font-size="13px" font-style="normal" font-weight="bold" text-decoration="undefined" x="1062.5" y="508.5" text-anchor="middle" dominant-baseline="central" transform="matrix(1 0 0 1 -421 -485)">Dashboard admin</text></g></g><g><path fill="#ffffff" stroke="none" paint-order="stroke fill markers" d=" M 55.278164062500025 88.85000000000002 C 55.278164062500025 83.96227952000004 59.235966430500014 80 64.1181640625 80 C 69.00036169449999 80 72.95816406249997 83.96227952000004 72.95816406249997 88.85000000000002 C 72.95816406249997 93.73772048000001 69.00036169449999 97.70000000000005 64.1181640625 97.70000000000005 C 59.235966430500014 97.70000000000005 55.278164062500025 93.73772048000001 55.278164062500025 88.85000000000002 Z"/></g><g><path fill="none" stroke="#000000" paint-order="fill stroke markers" d=" M 55.278164062500025 88.85000000000002 C 55.278164062500025 83.96227952000004 59.235966430500014 80 64.1181640625 80 C 69.00036169449999 80 72.95816406249997 83.96227952000004 72.95816406249997 88.85000000000002 C 72.95816406249997 93.73772048000001 69.00036169449999 97.70000000000005 64.1181640625 97.70000000000005 C 59.235966430500014 97.70000000000005 55.278164062500025 93.73772048000001 55.278164062500025 88.85000000000002 Z" stroke-miterlimit="10" stroke-dasharray=""/></g><g><path fill="none" stroke="#000000" paint-order="fill stroke markers" d=" M 64.1181640625 97.70000000000005 L 64.1181640625 115.29999999999995" stroke-miterlimit="10" stroke-dasharray=""/></g><g><path fill="none" stroke="#000000" paint-order="fill stroke markers" d=" M 54.758164062499986 104.29999999999995 L 73.47816406250001 104.29999999999995" stroke-miterlimit="10" stroke-dasharray=""/></g><g><path fill="none" stroke="#000000" paint-order="fill stroke markers" d=" M 64.1181640625 115.29999999999995 L 51.1181640625 133" stroke-miterlimit="10" stroke-dasharray=""/></g><g><path fill="none" stroke="#000000" paint-order="fill stroke markers" d=" M 64.1181640625 115.29999999999995 L 77.1181640625 133" stroke-miterlimit="10" stroke-dasharray=""/></g><g><g><path fill="none" stroke="none"/><text fill="#000000" stroke="none" font-family="Arial" font-size="13px" font-style="normal" font-weight="bold" text-decoration="undefined" x="485.6181640625" y="632.5" text-anchor="middle" dominant-baseline="central" transform="matrix(1 0 0 1 -421 -485)">Admin generico</text></g></g><g><path fill="#C0C0C0" stroke="none" paint-order="stroke fill markers" d=" M 224 146 C 224 126.11774720000005 274.14410239999995 110 336 110 C 397.85589760000005 110 448 126.11774720000005 448 146 C 448 165.88225279999995 397.85589760000005 182 336 182 C 274.14410239999995 182 224 165.88225279999995 224 146 Z" fill-opacity="0.2"/></g><g><path fill="#ffffff" stroke="none" paint-order="stroke fill markers" d=" M 217 139 C 217 119.11774720000005 267.14410239999995 103 329 103 C 390.85589760000005 103 441 119.11774720000005 441 139 C 441 158.88225279999995 390.85589760000005 175 329 175 C 267.14410239999995 175 217 158.88225279999995 217 139 Z"/></g><g><path fill="none" stroke="#000000" paint-order="fill stroke markers" d=" M 217 139 C 217 119.11774720000005 267.14410239999995 103 329 103 C 390.85589760000005 103 441 119.11774720000005 441 139 C 441 158.88225279999995 390.85589760000005 175 329 175 C 267.14410239999995 175 217 158.88225279999995 217 139 Z" stroke-miterlimit="10" stroke-dasharray=""/></g><g><g><path fill="none" stroke="none"/><text fill="#000000" stroke="none" font-family="Arial" font-size="13px" font-style="normal" font-weight="bold" text-decoration="undefined" x="750" y="612" text-anchor="middle" dominant-baseline="central" transform="matrix(1 0 0 1 -421 -485)">UC44 - Visualizzazione</text><text fill="#000000" stroke="none" font-family="Arial" font-size="13px" font-style="normal" font-weight="bold" text-decoration="undefined" x="750" y="625" text-anchor="middle" dominant-baseline="central" transform="matrix(1 0 0 1 -421 -485)">lista di gateway</text><text fill="#000000" stroke="none" font-family="Arial" font-size="13px" font-style="normal" font-weight="bold" text-decoration="undefined" x="750" y="638" text-anchor="middle" dominant-baseline="central" transform="matrix(1 0 0 1 -421 -485)">associati a tenant</text></g></g><g><path fill="none" stroke="#000000" paint-order="fill stroke markers" d=" M 442 129 L 552 120" stroke-miterlimit="10" stroke-dasharray="3"/></g><g><path fill="none" stroke="#000000" paint-order="fill stroke markers" d=" M 542.2144389240252 125.02422077822678 L 552 120 L 541.5279028230005 116.63322398792559" stroke-miterlimit="10" stroke-dasharray=""/></g><g><rect fill="#ffffff" stroke="none" x="879" y="587" width="55.65625" height="13" transform="matrix(1 0 0 1 -421 -485)"/></g><g><g><path fill="none" stroke="none"/><text fill="#000000" stroke="none" font-family="Arial" font-size="13px" font-style="normal" font-weight="normal" text-decoration="undefined" x="906.828125" y="593.5" text-anchor="middle" dominant-baseline="central" transform="matrix(1 0 0 1 -421 -485)">«include»</text></g></g><g><path fill="none" stroke="#000000" paint-order="fill stroke markers" d=" M 216 130 L 119 123" stroke-miterlimit="10" stroke-dasharray=""/></g><g><path fill="#C0C0C0" stroke="none" paint-order="stroke fill markers" d=" M 560 115.5 C 560 100.86445279999998 620.8892672 89 696 89 C 771.1107328 89 832 100.86445279999998 832 115.5 C 832 130.13554720000002 771.1107328 142 696 142 C 620.8892672 142 560 130.13554720000002 560 115.5 Z" fill-opacity="0.2"/></g><g><path fill="#ffffff" stroke="none" paint-order="stroke fill markers" d=" M 553 108.5 C 553 93.86445279999998 613.8892672 82 689 82 C 764.1107328 82 825 93.86445279999998 825 108.5 C 825 123.13554720000002 764.1107328 135 689 135 C 613.8892672 135 553 123.13554720000002 553 108.5 Z"/></g><g><path fill="none" stroke="#000000" paint-order="fill stroke markers" d=" M 553 108.5 C 553 93.86445279999998 613.8892672 82 689 82 C 764.1107328 82 825 93.86445279999998 825 108.5 C 825 123.13554720000002 764.1107328 135 689 135 C 613.8892672 135 553 123.13554720000002 553 108.5 Z" stroke-miterlimit="10" stroke-dasharray=""/></g><g><g><path fill="none" stroke="none"/><text fill="#000000" stroke="none" font-family="Arial" font-size="13px" font-style="normal" font-weight="bold" text-decoration="undefined" x="1110" y="588" text-anchor="middle" dominant-baseline="central" transform="matrix(1 0 0 1 -421 -485)">UC45 - Visualizzazione</text><text fill="#000000" stroke="none" font-family="Arial" font-size="13px" font-style="normal" font-weight="bold" text-decoration="undefined" x="1110" y="601" text-anchor="middle" dominant-baseline="central" transform="matrix(1 0 0 1 -421 -485)">singolo gateway in lista</text></g></g><g><path fill="#C0C0C0" stroke="none" paint-order="stroke fill markers" d=" M 832 277 C 832 257.11774720000005 891.0984063999999 241 964 241 C 1036.9015936 241 1096 257.11774720000005 1096 277 C 1096 296.88225279999995 1036.9015936 313 964 313 C 891.0984063999999 313 832 296.88225279999995 832 277 Z" fill-opacity="0.2"/></g><g><path fill="#ffffff" stroke="none" paint-order="stroke fill markers" d=" M 825 270 C 825 250.11774720000005 884.0984063999999 234 957 234 C 1029.9015936 234 1089 250.11774720000005 1089 270 C 1089 289.88225279999995 1029.9015936 306 957 306 C 884.0984063999999 306 825 289.88225279999995 825 270 Z"/></g><g><path fill="none" stroke="#000000" paint-order="fill stroke markers" d=" M 825 270 C 825 250.11774720000005 884.0984063999999 234 957 234 C 1029.9015936 234 1089 250.11774720000005 1089 270 C 1089 289.88225279999995 1029.9015936 306 957 306 C 884.0984063999999 306 825 289.88225279999995 825 270 Z" stroke-miterlimit="10" stroke-dasharray=""/></g><g><g><path fill="none" stroke="none"/><text fill="#000000" stroke="none" font-family="Arial" font-size="13px" font-style="normal" font-weight="bold" text-decoration="undefined" x="1378" y="743" text-anchor="middle" dominant-baseline="central" transform="matrix(1 0 0 1 -421 -485)">UC45.1 - Visualizzazione</text><text fill="#000000" stroke="none" font-family="Arial" font-size="13px" font-style="normal" font-weight="bold" text-decoration="undefined" x="1378" y="756" text-anchor="middle" dominant-baseline="central" transform="matrix(1 0 0 1 -421 -485)">nome singolo gateway in</text><text fill="#000000" stroke="none" font-family="Arial" font-size="13px" font-style="normal" font-weight="bold" text-decoration="undefined" x="1378" y="769" text-anchor="middle" dominant-baseline="central" transform="matrix(1 0 0 1 -421 -485)">lista</text></g></g><g><path fill="#C0C0C0" stroke="none" paint-order="stroke fill markers" d=" M 488 277 C 488 257.11774720000005 545.3075456 241 616 241 C 686.6924544000001 241 744 257.11774720000005 744 277 C 744 296.88225279999995 686.6924544000001 313 616 313 C 545.3075456 313 488 296.88225279999995 488 277 Z" fill-opacity="0.2"/></g><g><path fill="#ffffff" stroke="none" paint-order="stroke fill markers" d=" M 481 270 C 481 250.11774720000005 538.3075456 234 609 234 C 679.6924544000001 234 737 250.11774720000005 737 270 C 737 289.88225279999995 679.6924544000001 306 609 306 C 538.3075456 306 481 289.88225279999995 481 270 Z"/></g><g><path fill="none" stroke="#000000" paint-order="fill stroke markers" d=" M 481 270 C 481 250.11774720000005 538.3075456 234 609 234 C 679.6924544000001 234 737 250.11774720000005 737 270 C 737 289.88225279999995 679.6924544000001 306 609 306 C 538.3075456 306 481 289.88225279999995 481 270 Z" stroke-miterlimit="10" stroke-dasharray=""/></g><g><g><path fill="none" stroke="none"/><text fill="#000000" stroke="none" font-family="Arial" font-size="13px" font-style="normal" font-weight="bold" text-decoration="undefined" x="1030" y="743" text-anchor="middle" dominant-baseline="central" transform="matrix(1 0 0 1 -421 -485)">UC45.2 - Visualizzazione</text><text fill="#000000" stroke="none" font-family="Arial" font-size="13px" font-style="normal" font-weight="bold" text-decoration="undefined" x="1030" y="756" text-anchor="middle" dominant-baseline="central" transform="matrix(1 0 0 1 -421 -485)">stato singolo gateway in</text><text fill="#000000" stroke="none" font-family="Arial" font-size="13px" font-style="normal" font-weight="bold" text-decoration="undefined" x="1030" y="769" text-anchor="middle" dominant-baseline="central" transform="matrix(1 0 0 1 -421 -485)">lista</text></g></g><g><path fill="none" stroke="#000000" paint-order="fill stroke markers" d=" M 675 136 L 627 233" stroke-miterlimit="10" stroke-dasharray="3"/></g><g><path fill="none" stroke="#000000" paint-order="fill stroke markers" d=" M 627.7344327593714 222.0245451792665 L 627 233 L 635.2801409148242 225.7585038541298" stroke-miterlimit="10" stroke-dasharray=""/></g><g><rect fill="#ffffff" stroke="none" x="1071" y="676" width="55.65625" height="13" transform="matrix(1 0 0 1 -421 -485)"/></g><g><g><path fill="none" stroke="none"/><text fill="#000000" stroke="none" font-family="Arial" font-size="13px" font-style="normal" font-weight="normal" text-decoration="undefined" x="1098.828125" y="682.5" text-anchor="middle" dominant-baseline="central" transform="matrix(1 0 0 1 -421 -485)">«include»</text></g></g><g><path fill="none" stroke="#000000" paint-order="fill stroke markers" d=" M 735 136 L 896 233" stroke-miterlimit="10" stroke-dasharray="3"/></g><g><path fill="none" stroke="#000000" paint-order="fill stroke markers" d=" M 885.1227717143299 231.36112696604653 L 896 233 L 889.4674963545008 224.14977988287637" stroke-miterlimit="10" stroke-dasharray=""/></g><g><rect fill="#ffffff" stroke="none" x="1224" y="637" width="55.65625" height="13" transform="matrix(1 0 0 1 -421 -485)"/></g><g><g><path fill="none" stroke="none"/><text fill="#000000" stroke="none" font-family="Arial" font-size="13px" font-style="normal" font-weight="normal" text-decoration="undefined" x="1251.828125" y="643.5" text-anchor="middle" dominant-baseline="central" transform="matrix(1 0 0 1 -421 -485)">«include»</text></g></g></g></svg>