<svg version="1.1" xmlns="http://www.w3.org/2000/svg" xmlns:xlink="http://www.w3.org/1999/xlink" width="860" height="100"><defs/><g><g><path fill="#ffffff" stroke="none" paint-order="stroke fill markers" d=" M 55.278164062500025 19.850000000000023 C 55.278164062500025 14.962279520000038 59.235966430500014 11 64.1181640625 11 C 69.00036169449999 11 72.95816406249997 14.962279520000038 72.95816406249997 19.850000000000023 C 72.95816406249997 24.737720480000007 69.00036169449999 28.700000000000045 64.1181640625 28.700000000000045 C 59.235966430500014 28.700000000000045 55.278164062500025 24.737720480000007 55.278164062500025 19.850000000000023 Z"/></g><g><path fill="none" stroke="#000000" paint-order="fill stroke markers" d=" M 55.278164062500025 19.850000000000023 C 55.278164062500025 14.962279520000038 59.235966430500014 11 64.1181640625 11 C 69.00036169449999 11 72.95816406249997 14.962279520000038 72.95816406249997 19.850000000000023 C 72.95816406249997 24.737720480000007 69.00036169449999 28.700000000000045 64.1181640625 28.700000000000045 C 59.235966430500014 28.700000000000045 55.278164062500025 24.737720480000007 55.278164062500025 19.850000000000023 Z" stroke-miterlimit="10" stroke-dasharray=""/></g><g><path fill="none" stroke="#000000" paint-order="fill stroke markers" d=" M 64.1181640625 28.700000000000045 L 64.1181640625 46.299999999999955" stroke-miterlimit="10" stroke-dasharray=""/></g><g><path fill="none" stroke="#000000" paint-order="fill stroke markers" d=" M 54.758164062499986 35.299999999999955 L 73.47816406250001 35.299999999999955" stroke-miterlimit="10" stroke-dasharray=""/></g><g><path fill="none" stroke="#000000" paint-order="fill stroke markers" d=" M 64.1181640625 46.299999999999955 L 51.1181640625 64" stroke-miterlimit="10" stroke-dasharray=""/></g><g><path fill="none" stroke="#000000" paint-order="fill stroke markers" d=" M 64.1181640625 46.299999999999955 L 77.1181640625 64" stroke-miterlimit="10" stroke-dasharray=""/></g><g><g><path fill="none" stroke="none"/><text fill="#000000" stroke="none" font-family="Arial" font-size="13px" font-style="normal" font-weight="bold" text-decoration="undefined" x="283.6181640625" y="635.5" text-anchor="middle" dominant-baseline="central" transform="matrix(1 0 0 1 -219 -557)">Admin generico</text></g></g><g><path fill="#C0C0C0" stroke="none" paint-order="stroke fill markers" d=" M 217 67.5 C 217 52.86445279999998 277.8892672 41 353 41 C 428.11073280000005 41 489 52.86445279999998 489 67.5 C 489 82.13554720000002 428.11073280000005 94 353 94 C 277.8892672 94 217 82.13554720000002 217 67.5 Z" fill-opacity="0.2"/></g><g><path fill="#ffffff" stroke="none" paint-order="stroke fill markers" d=" M 210 60.5 C 210 45.86445279999998 270.8892672 34 346 34 C 421.11073280000005 34 482 45.86445279999998 482 60.5 C 482 75.13554720000002 421.11073280000005 87 346 87 C 270.8892672 87 210 75.13554720000002 210 60.5 Z"/></g><g><path fill="none" stroke="#000000" paint-order="fill stroke markers" d=" M 210 60.5 C 210 45.86445279999998 270.8892672 34 346 34 C 421.11073280000005 34 482 45.86445279999998 482 60.5 C 482 75.13554720000002 421.11073280000005 87 346 87 C 270.8892672 87 210 75.13554720000002 210 60.5 Z" stroke-miterlimit="10" stroke-dasharray=""/></g><g><g><path fill="none" stroke="none"/><text fill="#000000" stroke="none" font-family="Arial" font-size="13px" font-style="normal" font-weight="bold" text-decoration="undefined" x="565" y="612" text-anchor="middle" dominant-baseline="central" transform="matrix(1 0 0 1 -219 -557)">UC44 - Visualizzazione lista</text><text fill="#000000" stroke="none" font-family="Arial" font-size="13px" font-style="normal" font-weight="bold" text-decoration="undefined" x="565" y="625" text-anchor="middle" dominant-baseline="central" transform="matrix(1 0 0 1 -219 -557)">di gateway associati a tenant</text></g></g><g><path fill="#C0C0C0" stroke="none" paint-order="stroke fill markers" d=" M 609 59.5 C 609 44.86445279999998 664.5166848 33 733 33 C 801.4833152 33 857 44.86445279999998 857 59.5 C 857 74.13554720000002 801.4833152 86 733 86 C 664.5166848 86 609 74.13554720000002 609 59.5 Z" fill-opacity="0.2"/></g><g><path fill="#ffffff" stroke="none" paint-order="stroke fill markers" d=" M 602 52.5 C 602 37.86445279999998 657.5166848 26 726 26 C 794.4833152 26 850 37.86445279999998 850 52.5 C 850 67.13554720000002 794.4833152 79 726 79 C 657.5166848 79 602 67.13554720000002 602 52.5 Z"/></g><g><path fill="none" stroke="#000000" paint-order="fill stroke markers" d=" M 602 52.5 C 602 37.86445279999998 657.5166848 26 726 26 C 794.4833152 26 850 37.86445279999998 850 52.5 C 850 67.13554720000002 794.4833152 79 726 79 C 657.5166848 79 602 67.13554720000002 602 52.5 Z" stroke-miterlimit="10" stroke-dasharray=""/></g><g><g><path fill="none" stroke="none"/><text fill="#000000" stroke="none" font-family="Arial" font-size="13px" font-style="normal" font-weight="bold" text-decoration="undefined" x="945" y="604" text-anchor="middle" dominant-baseline="central" transform="matrix(1 0 0 1 -219 -557)">UC45 - Visualizzazione</text><text fill="#000000" stroke="none" font-family="Arial" font-size="13px" font-style="normal" font-weight="bold" text-decoration="undefined" x="945" y="617" text-anchor="middle" dominant-baseline="central" transform="matrix(1 0 0 1 -219 -557)">singolo gateway in lista</text></g></g><g><path fill="none" stroke="#000000" paint-order="fill stroke markers" d=" M 483 57 L 601 55" stroke-miterlimit="10" stroke-dasharray="3"/></g><g><path fill="none" stroke="#000000" paint-order="fill stroke markers" d=" M 590.910122075527 59.381137234695416 L 601 55 L 590.7674470502988 50.96331074622276" stroke-miterlimit="10" stroke-dasharray=""/></g><g><rect fill="#ffffff" stroke="none" x="724" y="603" width="55.65625" height="13" transform="matrix(1 0 0 1 -219 -557)"/></g><g><g><path fill="none" stroke="none"/><text fill="#000000" stroke="none" font-family="Arial" font-size="13px" font-style="normal" font-weight="normal" text-decoration="undefined" x="751.828125" y="609.5" text-anchor="middle" dominant-baseline="central" transform="matrix(1 0 0 1 -219 -557)">«include»</text></g></g><g><path fill="none" stroke="#000000" paint-order="fill stroke markers" d=" M 209 55 L 119 52" stroke-miterlimit="10" stroke-dasharray=""/></g></g></svg>