<svg version="1.1" xmlns="http://www.w3.org/2000/svg" xmlns:xlink="http://www.w3.org/1999/xlink" width="893" height="244"><defs/><g><g><rect fill="#C0C0C0" stroke="none" x="375" y="357" width="696" height="224" transform="matrix(1 0 0 1 -182 -340)" fill-opacity="0.2"/></g><g><rect fill="#ffffff" stroke="none" x="368" y="350" width="696" height="224" transform="matrix(1 0 0 1 -182 -340)"/></g><g><path fill="none" stroke="#000000" paint-order="fill stroke markers" d=" M 186 10 L 882 10 L 882 234 L 186 234 L 186 10 Z Z" stroke-miterlimit="10" stroke-dasharray=""/></g><g><g><path fill="none" stroke="none"/><text fill="#000000" stroke="none" font-family="Arial" font-size="13px" font-style="normal" font-weight="bold" text-decoration="undefined" x="716.5" y="363.5" text-anchor="middle" dominant-baseline="central" transform="matrix(1 0 0 1 -182 -340)">Sistema Cloud</text></g></g><g><path fill="#ffffff" stroke="none" paint-order="stroke fill markers" d=" M 55.2781640625 91.85000000000002 C 55.2781640625 86.96227952000004 59.235966430499985 83 64.1181640625 83 C 69.00036169450001 83 72.9581640625 86.96227952000004 72.9581640625 91.85000000000002 C 72.9581640625 96.73772048000001 69.00036169450001 100.69999999999999 64.1181640625 100.69999999999999 C 59.235966430499985 100.69999999999999 55.2781640625 96.73772048000001 55.2781640625 91.85000000000002 Z"/></g><g><path fill="none" stroke="#000000" paint-order="fill stroke markers" d=" M 55.2781640625 91.85000000000002 C 55.2781640625 86.96227952000004 59.235966430499985 83 64.1181640625 83 C 69.00036169450001 83 72.9581640625 86.96227952000004 72.9581640625 91.85000000000002 C 72.9581640625 96.73772048000001 69.00036169450001 100.69999999999999 64.1181640625 100.69999999999999 C 59.235966430499985 100.69999999999999 55.2781640625 96.73772048000001 55.2781640625 91.85000000000002 Z" stroke-miterlimit="10" stroke-dasharray=""/></g><g><path fill="none" stroke="#000000" paint-order="fill stroke markers" d=" M 64.1181640625 100.69999999999999 L 64.1181640625 118.30000000000001" stroke-miterlimit="10" stroke-dasharray=""/></g><g><path fill="none" stroke="#000000" paint-order="fill stroke markers" d=" M 54.758164062499986 107.30000000000001 L 73.47816406250001 107.30000000000001" stroke-miterlimit="10" stroke-dasharray=""/></g><g><path fill="none" stroke="#000000" paint-order="fill stroke markers" d=" M 64.1181640625 118.30000000000001 L 51.1181640625 136" stroke-miterlimit="10" stroke-dasharray=""/></g><g><path fill="none" stroke="#000000" paint-order="fill stroke markers" d=" M 64.1181640625 118.30000000000001 L 77.1181640625 136" stroke-miterlimit="10" stroke-dasharray=""/></g><g><g><path fill="none" stroke="none"/><text fill="#000000" stroke="none" font-family="Arial" font-size="13px" font-style="normal" font-weight="bold" text-decoration="undefined" x="246.6181640625" y="490.5" text-anchor="middle" dominant-baseline="central" transform="matrix(1 0 0 1 -182 -340)">Admin generico</text></g></g><g><path fill="#C0C0C0" stroke="none" paint-order="stroke fill markers" d=" M 217 139.5 C 217 124.86445279999998 277.8892672 113 353 113 C 428.11073280000005 113 489 124.86445279999998 489 139.5 C 489 154.13554720000002 428.11073280000005 166 353 166 C 277.8892672 166 217 154.13554720000002 217 139.5 Z" fill-opacity="0.2"/></g><g><path fill="#ffffff" stroke="none" paint-order="stroke fill markers" d=" M 210 132.5 C 210 117.86445279999998 270.8892672 106 346 106 C 421.11073280000005 106 482 117.86445279999998 482 132.5 C 482 147.13554720000002 421.11073280000005 159 346 159 C 270.8892672 159 210 147.13554720000002 210 132.5 Z"/></g><g><path fill="none" stroke="#000000" paint-order="fill stroke markers" d=" M 210 132.5 C 210 117.86445279999998 270.8892672 106 346 106 C 421.11073280000005 106 482 117.86445279999998 482 132.5 C 482 147.13554720000002 421.11073280000005 159 346 159 C 270.8892672 159 210 147.13554720000002 210 132.5 Z" stroke-miterlimit="10" stroke-dasharray=""/></g><g><g><path fill="none" stroke="none"/><text fill="#000000" stroke="none" font-family="Arial" font-size="13px" font-style="normal" font-weight="bold" text-decoration="undefined" x="528" y="467" text-anchor="middle" dominant-baseline="central" transform="matrix(1 0 0 1 -182 -340)">UC44 - Visualizzazione lista</text><text fill="#000000" stroke="none" font-family="Arial" font-size="13px" font-style="normal" font-weight="bold" text-decoration="undefined" x="528" y="480" text-anchor="middle" dominant-baseline="central" transform="matrix(1 0 0 1 -182 -340)">di gateway associati a tenant</text></g></g><g><path fill="#C0C0C0" stroke="none" paint-order="stroke fill markers" d=" M 609 131.5 C 609 116.86445279999998 664.5166848 105 733 105 C 801.4833152 105 857 116.86445279999998 857 131.5 C 857 146.13554720000002 801.4833152 158 733 158 C 664.5166848 158 609 146.13554720000002 609 131.5 Z" fill-opacity="0.2"/></g><g><path fill="#ffffff" stroke="none" paint-order="stroke fill markers" d=" M 602 124.5 C 602 109.86445279999998 657.5166848 98 726 98 C 794.4833152 98 850 109.86445279999998 850 124.5 C 850 139.13554720000002 794.4833152 151 726 151 C 657.5166848 151 602 139.13554720000002 602 124.5 Z"/></g><g><path fill="none" stroke="#000000" paint-order="fill stroke markers" d=" M 602 124.5 C 602 109.86445279999998 657.5166848 98 726 98 C 794.4833152 98 850 109.86445279999998 850 124.5 C 850 139.13554720000002 794.4833152 151 726 151 C 657.5166848 151 602 139.13554720000002 602 124.5 Z" stroke-miterlimit="10" stroke-dasharray=""/></g><g><g><path fill="none" stroke="none"/><text fill="#000000" stroke="none" font-family="Arial" font-size="13px" font-style="normal" font-weight="bold" text-decoration="undefined" x="908" y="459" text-anchor="middle" dominant-baseline="central" transform="matrix(1 0 0 1 -182 -340)">UC45 - Visualizzazione</text><text fill="#000000" stroke="none" font-family="Arial" font-size="13px" font-style="normal" font-weight="bold" text-decoration="undefined" x="908" y="472" text-anchor="middle" dominant-baseline="central" transform="matrix(1 0 0 1 -182 -340)">singolo gateway in lista</text></g></g><g><path fill="none" stroke="#000000" paint-order="fill stroke markers" d=" M 483 129 L 601 127" stroke-miterlimit="10" stroke-dasharray="3"/></g><g><path fill="none" stroke="#000000" paint-order="fill stroke markers" d=" M 590.910122075527 131.38113723469542 L 601 127 L 590.7674470502988 122.96331074622276" stroke-miterlimit="10" stroke-dasharray=""/></g><g><rect fill="#ffffff" stroke="none" x="687" y="458" width="55.65625" height="13" transform="matrix(1 0 0 1 -182 -340)"/></g><g><g><path fill="none" stroke="none"/><text fill="#000000" stroke="none" font-family="Arial" font-size="13px" font-style="normal" font-weight="normal" text-decoration="undefined" x="714.828125" y="464.5" text-anchor="middle" dominant-baseline="central" transform="matrix(1 0 0 1 -182 -340)">«include»</text></g></g><g><path fill="none" stroke="#000000" paint-order="fill stroke markers" d=" M 209 127 L 119 124" stroke-miterlimit="10" stroke-dasharray=""/></g></g></svg>