<svg version="1.1" xmlns="http://www.w3.org/2000/svg" xmlns:xlink="http://www.w3.org/1999/xlink" width="1120" height="228"><defs/><g><g><rect fill="#C0C0C0" stroke="none" x="319" y="511" width="904" height="208" transform="matrix(1 0 0 1 -107 -494)" fill-opacity="0.2"/></g><g><rect fill="#ffffff" stroke="none" x="312" y="504" width="904" height="208" transform="matrix(1 0 0 1 -107 -494)"/></g><g><path fill="none" stroke="#000000" paint-order="fill stroke markers" d=" M 205 10 L 1109 10 L 1109 218 L 205 218 L 205 10 Z Z" stroke-miterlimit="10" stroke-dasharray=""/></g><g><g><path fill="none" stroke="none"/><text fill="#000000" stroke="none" font-family="Arial" font-size="13px" font-style="normal" font-weight="bold" text-decoration="undefined" x="764.5" y="517.5" text-anchor="middle" dominant-baseline="central" transform="matrix(1 0 0 1 -107 -494)">Sistema Cloud</text></g></g><g><path fill="#ffffff" stroke="none" paint-order="stroke fill markers" d=" M 55.2781640625 78.85000000000002 C 55.2781640625 73.96227952000004 59.235966430499985 70 64.1181640625 70 C 69.00036169450001 70 72.9581640625 73.96227952000004 72.9581640625 78.85000000000002 C 72.9581640625 83.73772048000001 69.00036169450001 87.70000000000005 64.1181640625 87.70000000000005 C 59.235966430499985 87.70000000000005 55.2781640625 83.73772048000001 55.2781640625 78.85000000000002 Z"/></g><g><path fill="none" stroke="#000000" paint-order="fill stroke markers" d=" M 55.2781640625 78.85000000000002 C 55.2781640625 73.96227952000004 59.235966430499985 70 64.1181640625 70 C 69.00036169450001 70 72.9581640625 73.96227952000004 72.9581640625 78.85000000000002 C 72.9581640625 83.73772048000001 69.00036169450001 87.70000000000005 64.1181640625 87.70000000000005 C 59.235966430499985 87.70000000000005 55.2781640625 83.73772048000001 55.2781640625 78.85000000000002 Z" stroke-miterlimit="10" stroke-dasharray=""/></g><g><path fill="none" stroke="#000000" paint-order="fill stroke markers" d=" M 64.1181640625 87.70000000000005 L 64.1181640625 105.29999999999995" stroke-miterlimit="10" stroke-dasharray=""/></g><g><path fill="none" stroke="#000000" paint-order="fill stroke markers" d=" M 54.758164062499986 94.29999999999995 L 73.47816406250001 94.29999999999995" stroke-miterlimit="10" stroke-dasharray=""/></g><g><path fill="none" stroke="#000000" paint-order="fill stroke markers" d=" M 64.1181640625 105.29999999999995 L 51.1181640625 123" stroke-miterlimit="10" stroke-dasharray=""/></g><g><path fill="none" stroke="#000000" paint-order="fill stroke markers" d=" M 64.1181640625 105.29999999999995 L 77.1181640625 123" stroke-miterlimit="10" stroke-dasharray=""/></g><g><g><path fill="none" stroke="none"/><text fill="#000000" stroke="none" font-family="Arial" font-size="13px" font-style="normal" font-weight="bold" text-decoration="undefined" x="171.6181640625" y="631.5" text-anchor="middle" dominant-baseline="central" transform="matrix(1 0 0 1 -107 -494)">Admin generico</text></g></g><g><path fill="#C0C0C0" stroke="none" paint-order="stroke fill markers" d=" M 257 128 C 257 108.11774720000005 335.7978752 92 433 92 C 530.2021248 92 609 108.11774720000005 609 128 C 609 147.88225279999995 530.2021248 164 433 164 C 335.7978752 164 257 147.88225279999995 257 128 Z" fill-opacity="0.2"/></g><g><path fill="#ffffff" stroke="none" paint-order="stroke fill markers" d=" M 250 121 C 250 101.11774720000005 328.7978752 85 426 85 C 523.2021248 85 602 101.11774720000005 602 121 C 602 140.88225279999995 523.2021248 157 426 157 C 328.7978752 157 250 140.88225279999995 250 121 Z"/></g><g><path fill="none" stroke="#000000" paint-order="fill stroke markers" d=" M 250 121 C 250 101.11774720000005 328.7978752 85 426 85 C 523.2021248 85 602 101.11774720000005 602 121 C 602 140.88225279999995 523.2021248 157 426 157 C 328.7978752 157 250 140.88225279999995 250 121 Z" stroke-miterlimit="10" stroke-dasharray=""/></g><g><g><path fill="none" stroke="none"/><text fill="#000000" stroke="none" font-family="Arial" font-size="13px" font-style="normal" font-weight="bold" text-decoration="undefined" x="533" y="603" text-anchor="middle" dominant-baseline="central" transform="matrix(1 0 0 1 -107 -494)">UC45 - Visualizza singolo sensore</text><text fill="#000000" stroke="none" font-family="Arial" font-size="13px" font-style="normal" font-weight="bold" text-decoration="undefined" x="533" y="616" text-anchor="middle" dominant-baseline="central" transform="matrix(1 0 0 1 -107 -494)">collegato al gateway associato al</text><text fill="#000000" stroke="none" font-family="Arial" font-size="13px" font-style="normal" font-weight="bold" text-decoration="undefined" x="533" y="629" text-anchor="middle" dominant-baseline="central" transform="matrix(1 0 0 1 -107 -494)">tenant in lista</text></g></g><g><path fill="#C0C0C0" stroke="none" paint-order="stroke fill markers" d=" M 721 120 C 721 100.11774720000005 801.588736 84 901 84 C 1000.4112640000001 84 1081 100.11774720000005 1081 120 C 1081 139.88225279999995 1000.4112640000001 156 901 156 C 801.588736 156 721 139.88225279999995 721 120 Z" fill-opacity="0.2"/></g><g><path fill="#ffffff" stroke="none" paint-order="stroke fill markers" d=" M 714 113 C 714 93.11774720000005 794.588736 77 894 77 C 993.4112640000001 77 1074 93.11774720000005 1074 113 C 1074 132.88225279999995 993.4112640000001 149 894 149 C 794.588736 149 714 132.88225279999995 714 113 Z"/></g><g><path fill="none" stroke="#000000" paint-order="fill stroke markers" d=" M 714 113 C 714 93.11774720000005 794.588736 77 894 77 C 993.4112640000001 77 1074 93.11774720000005 1074 113 C 1074 132.88225279999995 993.4112640000001 149 894 149 C 794.588736 149 714 132.88225279999995 714 113 Z" stroke-miterlimit="10" stroke-dasharray=""/></g><g><g><path fill="none" stroke="none"/><text fill="#000000" stroke="none" font-family="Arial" font-size="13px" font-style="normal" font-weight="bold" text-decoration="undefined" x="1001" y="595" text-anchor="middle" dominant-baseline="central" transform="matrix(1 0 0 1 -107 -494)">UC45.1 - Visualizzazione identificativo</text><text fill="#000000" stroke="none" font-family="Arial" font-size="13px" font-style="normal" font-weight="bold" text-decoration="undefined" x="1001" y="608" text-anchor="middle" dominant-baseline="central" transform="matrix(1 0 0 1 -107 -494)">sensore collegato al gateway associato</text><text fill="#000000" stroke="none" font-family="Arial" font-size="13px" font-style="normal" font-weight="bold" text-decoration="undefined" x="1001" y="621" text-anchor="middle" dominant-baseline="central" transform="matrix(1 0 0 1 -107 -494)">a tenant in lista</text></g></g><g><path fill="none" stroke="#000000" paint-order="fill stroke markers" d=" M 603 118 L 713 116" stroke-miterlimit="10" stroke-dasharray="3"/></g><g><path fill="none" stroke="#000000" paint-order="fill stroke markers" d=" M 702.9155285459009 120.39356751301932 L 713 116 L 702.7624804680675 111.97592323218123" stroke-miterlimit="10" stroke-dasharray=""/></g><g><rect fill="#ffffff" stroke="none" x="732" y="594" width="55.65625" height="13" transform="matrix(1 0 0 1 -107 -494)"/></g><g><g><path fill="none" stroke="none"/><text fill="#000000" stroke="none" font-family="Arial" font-size="13px" font-style="normal" font-weight="normal" text-decoration="undefined" x="759.828125" y="600.5" text-anchor="middle" dominant-baseline="central" transform="matrix(1 0 0 1 -107 -494)">«include»</text></g></g><g><path fill="none" stroke="#000000" paint-order="fill stroke markers" d=" M 249 115 L 119 111" stroke-miterlimit="10" stroke-dasharray=""/></g></g></svg>