<svg version="1.1" xmlns="http://www.w3.org/2000/svg" xmlns:xlink="http://www.w3.org/1999/xlink" width="892" height="193"><defs/><g><g><path fill="#ffffff" stroke="none" paint-order="stroke fill markers" d=" M 55.278164062500025 67.85000000000002 C 55.278164062500025 62.96227952000004 59.235966430500014 59 64.1181640625 59 C 69.00036169449999 59 72.95816406249997 62.96227952000004 72.95816406249997 67.85000000000002 C 72.95816406249997 72.73772048000001 69.00036169449999 76.70000000000005 64.1181640625 76.70000000000005 C 59.235966430500014 76.70000000000005 55.278164062500025 72.73772048000001 55.278164062500025 67.85000000000002 Z"/></g><g><path fill="none" stroke="#000000" paint-order="fill stroke markers" d=" M 55.278164062500025 67.85000000000002 C 55.278164062500025 62.96227952000004 59.235966430500014 59 64.1181640625 59 C 69.00036169449999 59 72.95816406249997 62.96227952000004 72.95816406249997 67.85000000000002 C 72.95816406249997 72.73772048000001 69.00036169449999 76.70000000000005 64.1181640625 76.70000000000005 C 59.235966430500014 76.70000000000005 55.278164062500025 72.73772048000001 55.278164062500025 67.85000000000002 Z" stroke-miterlimit="10" stroke-dasharray=""/></g><g><path fill="none" stroke="#000000" paint-order="fill stroke markers" d=" M 64.1181640625 76.70000000000005 L 64.1181640625 94.29999999999995" stroke-miterlimit="10" stroke-dasharray=""/></g><g><path fill="none" stroke="#000000" paint-order="fill stroke markers" d=" M 54.758164062499986 83.29999999999995 L 73.47816406250001 83.29999999999995" stroke-miterlimit="10" stroke-dasharray=""/></g><g><path fill="none" stroke="#000000" paint-order="fill stroke markers" d=" M 64.1181640625 94.29999999999995 L 51.1181640625 112" stroke-miterlimit="10" stroke-dasharray=""/></g><g><path fill="none" stroke="#000000" paint-order="fill stroke markers" d=" M 64.1181640625 94.29999999999995 L 77.1181640625 112" stroke-miterlimit="10" stroke-dasharray=""/></g><g><g><path fill="none" stroke="none"/><text fill="#000000" stroke="none" font-family="Arial" font-size="13px" font-style="normal" font-weight="bold" text-decoration="undefined" x="267.6181640625" y="637.5" text-anchor="middle" dominant-baseline="central" transform="matrix(1 0 0 1 -203 -511)">Admin generico</text></g></g><g><path fill="#C0C0C0" stroke="none" paint-order="stroke fill markers" d=" M 233 118 C 233 93.14718400000004 283.1441024 73 345 73 C 406.85589760000005 73 457 93.14718400000004 457 118 C 457 142.85281599999996 406.85589760000005 163 345 163 C 283.1441024 163 233 142.85281599999996 233 118 Z" fill-opacity="0.2"/></g><g><path fill="#ffffff" stroke="none" paint-order="stroke fill markers" d=" M 226 111 C 226 86.14718400000004 276.1441024 66 338 66 C 399.85589760000005 66 450 86.14718400000004 450 111 C 450 135.85281599999996 399.85589760000005 156 338 156 C 276.1441024 156 226 135.85281599999996 226 111 Z"/></g><g><path fill="none" stroke="#000000" paint-order="fill stroke markers" d=" M 226 111 C 226 86.14718400000004 276.1441024 66 338 66 C 399.85589760000005 66 450 86.14718400000004 450 111 C 450 135.85281599999996 399.85589760000005 156 338 156 C 276.1441024 156 226 135.85281599999996 226 111 Z" stroke-miterlimit="10" stroke-dasharray=""/></g><g><g><path fill="none" stroke="none"/><text fill="#000000" stroke="none" font-family="Arial" font-size="13px" font-style="normal" font-weight="bold" text-decoration="undefined" x="541" y="616.5" text-anchor="middle" dominant-baseline="central" transform="matrix(1 0 0 1 -203 -511)">UC45 - Visualizzazione</text><text fill="#000000" stroke="none" font-family="Arial" font-size="13px" font-style="normal" font-weight="bold" text-decoration="undefined" x="541" y="629.5" text-anchor="middle" dominant-baseline="central" transform="matrix(1 0 0 1 -203 -511)">singolo gateway in lista</text></g></g><g><path fill="#C0C0C0" stroke="none" paint-order="stroke fill markers" d=" M 609 53 C 609 33.11774720000005 671.680128 17 749 17 C 826.319872 17 889 33.11774720000005 889 53 C 889 72.88225279999995 826.319872 89 749 89 C 671.680128 89 609 72.88225279999995 609 53 Z" fill-opacity="0.2"/></g><g><path fill="#ffffff" stroke="none" paint-order="stroke fill markers" d=" M 602 46 C 602 26.117747200000053 664.680128 10 742 10 C 819.319872 10 882 26.117747200000053 882 46 C 882 65.88225279999995 819.319872 82 742 82 C 664.680128 82 602 65.88225279999995 602 46 Z"/></g><g><path fill="none" stroke="#000000" paint-order="fill stroke markers" d=" M 602 46 C 602 26.117747200000053 664.680128 10 742 10 C 819.319872 10 882 26.117747200000053 882 46 C 882 65.88225279999995 819.319872 82 742 82 C 664.680128 82 602 65.88225279999995 602 46 Z" stroke-miterlimit="10" stroke-dasharray=""/></g><g><g><path fill="none" stroke="none"/><text fill="#000000" stroke="none" font-family="Arial" font-size="13px" font-style="normal" font-weight="bold" text-decoration="undefined" x="945" y="551.5" text-anchor="middle" dominant-baseline="central" transform="matrix(1 0 0 1 -203 -511)">UC45.1 - Visualizzazione</text><text fill="#000000" stroke="none" font-family="Arial" font-size="13px" font-style="normal" font-weight="bold" text-decoration="undefined" x="945" y="564.5" text-anchor="middle" dominant-baseline="central" transform="matrix(1 0 0 1 -203 -511)">nome singolo gateway in lista</text></g></g><g><path fill="#C0C0C0" stroke="none" paint-order="stroke fill markers" d=" M 593 163.5 C 593 148.86445279999998 659.2618496 137 741 137 C 822.7381504 137 889 148.86445279999998 889 163.5 C 889 178.13554720000002 822.7381504 190 741 190 C 659.2618496 190 593 178.13554720000002 593 163.5 Z" fill-opacity="0.2"/></g><g><path fill="#ffffff" stroke="none" paint-order="stroke fill markers" d=" M 586 156.5 C 586 141.86445279999998 652.2618496 130 734 130 C 815.7381504 130 882 141.86445279999998 882 156.5 C 882 171.13554720000002 815.7381504 183 734 183 C 652.2618496 183 586 171.13554720000002 586 156.5 Z"/></g><g><path fill="none" stroke="#000000" paint-order="fill stroke markers" d=" M 586 156.5 C 586 141.86445279999998 652.2618496 130 734 130 C 815.7381504 130 882 141.86445279999998 882 156.5 C 882 171.13554720000002 815.7381504 183 734 183 C 652.2618496 183 586 171.13554720000002 586 156.5 Z" stroke-miterlimit="10" stroke-dasharray=""/></g><g><g><path fill="none" stroke="none"/><text fill="#000000" stroke="none" font-family="Arial" font-size="13px" font-style="normal" font-weight="bold" text-decoration="undefined" x="937" y="662" text-anchor="middle" dominant-baseline="central" transform="matrix(1 0 0 1 -203 -511)">UC45.2 - Visualizzazione stato</text><text fill="#000000" stroke="none" font-family="Arial" font-size="13px" font-style="normal" font-weight="bold" text-decoration="undefined" x="937" y="675" text-anchor="middle" dominant-baseline="central" transform="matrix(1 0 0 1 -203 -511)">singolo gateway in lista</text></g></g><g><path fill="none" stroke="#000000" paint-order="fill stroke markers" d=" M 451 93 L 601 69" stroke-miterlimit="10" stroke-dasharray="3"/></g><g><path fill="none" stroke="#000000" paint-order="fill stroke markers" d=" M 591.630025736314 74.7622549664053 L 601 69 L 590.2998980969331 66.44895722027525" stroke-miterlimit="10" stroke-dasharray=""/></g><g><rect fill="#ffffff" stroke="none" x="671" y="582" width="55.65625" height="13" transform="matrix(1 0 0 1 -203 -511)"/></g><g><g><path fill="none" stroke="none"/><text fill="#000000" stroke="none" font-family="Arial" font-size="13px" font-style="normal" font-weight="normal" text-decoration="undefined" x="698.828125" y="588.5" text-anchor="middle" dominant-baseline="central" transform="matrix(1 0 0 1 -203 -511)">«include»</text></g></g><g><path fill="none" stroke="#000000" paint-order="fill stroke markers" d=" M 451 124 L 585 139" stroke-miterlimit="10" stroke-dasharray="3"/></g><g><path fill="none" stroke="#000000" paint-order="fill stroke markers" d=" M 574.4321154685891 142.0528374556743 L 585 139 L 575.3686951182755 133.68605925181055" stroke-miterlimit="10" stroke-dasharray=""/></g><g><rect fill="#ffffff" stroke="none" x="681" y="633" width="55.65625" height="13" transform="matrix(1 0 0 1 -203 -511)"/></g><g><g><path fill="none" stroke="none"/><text fill="#000000" stroke="none" font-family="Arial" font-size="13px" font-style="normal" font-weight="normal" text-decoration="undefined" x="708.828125" y="639.5" text-anchor="middle" dominant-baseline="central" transform="matrix(1 0 0 1 -203 -511)">«include»</text></g></g><g><path fill="none" stroke="#000000" paint-order="fill stroke markers" d=" M 225 106 L 119 101" stroke-miterlimit="10" stroke-dasharray=""/></g></g></svg>