<svg version="1.1" xmlns="http://www.w3.org/2000/svg" xmlns:xlink="http://www.w3.org/1999/xlink" width="909" height="284"><defs/><g><g><rect fill="#C0C0C0" stroke="none" x="383" y="337" width="696" height="264" transform="matrix(1 0 0 1 -174 -320)" fill-opacity="0.2"/></g><g><rect fill="#ffffff" stroke="none" x="376" y="330" width="696" height="264" transform="matrix(1 0 0 1 -174 -320)"/></g><g><path fill="none" stroke="#000000" paint-order="fill stroke markers" d=" M 202 10 L 898 10 L 898 274 L 202 274 L 202 10 Z Z" stroke-miterlimit="10" stroke-dasharray=""/></g><g><g><path fill="none" stroke="none"/><text fill="#000000" stroke="none" font-family="Arial" font-size="13px" font-style="normal" font-weight="bold" text-decoration="undefined" x="724.5" y="343.5" text-anchor="middle" dominant-baseline="central" transform="matrix(1 0 0 1 -174 -320)">Sistema Cloud</text></g></g><g><path fill="#ffffff" stroke="none" paint-order="stroke fill markers" d=" M 55.2781640625 107.85000000000002 C 55.2781640625 102.96227952000004 59.235966430499985 99 64.1181640625 99 C 69.00036169450001 99 72.9581640625 102.96227952000004 72.9581640625 107.85000000000002 C 72.9581640625 112.73772048000001 69.00036169450001 116.69999999999999 64.1181640625 116.69999999999999 C 59.235966430499985 116.69999999999999 55.2781640625 112.73772048000001 55.2781640625 107.85000000000002 Z"/></g><g><path fill="none" stroke="#000000" paint-order="fill stroke markers" d=" M 55.2781640625 107.85000000000002 C 55.2781640625 102.96227952000004 59.235966430499985 99 64.1181640625 99 C 69.00036169450001 99 72.9581640625 102.96227952000004 72.9581640625 107.85000000000002 C 72.9581640625 112.73772048000001 69.00036169450001 116.69999999999999 64.1181640625 116.69999999999999 C 59.235966430499985 116.69999999999999 55.2781640625 112.73772048000001 55.2781640625 107.85000000000002 Z" stroke-miterlimit="10" stroke-dasharray=""/></g><g><path fill="none" stroke="#000000" paint-order="fill stroke markers" d=" M 64.1181640625 116.69999999999999 L 64.1181640625 134.3" stroke-miterlimit="10" stroke-dasharray=""/></g><g><path fill="none" stroke="#000000" paint-order="fill stroke markers" d=" M 54.758164062499986 123.30000000000001 L 73.47816406250001 123.30000000000001" stroke-miterlimit="10" stroke-dasharray=""/></g><g><path fill="none" stroke="#000000" paint-order="fill stroke markers" d=" M 64.1181640625 134.3 L 51.1181640625 152" stroke-miterlimit="10" stroke-dasharray=""/></g><g><path fill="none" stroke="#000000" paint-order="fill stroke markers" d=" M 64.1181640625 134.3 L 77.1181640625 152" stroke-miterlimit="10" stroke-dasharray=""/></g><g><g><path fill="none" stroke="none"/><text fill="#000000" stroke="none" font-family="Arial" font-size="13px" font-style="normal" font-weight="bold" text-decoration="undefined" x="238.6181640625" y="486.5" text-anchor="middle" dominant-baseline="central" transform="matrix(1 0 0 1 -174 -320)">Admin generico</text></g></g><g><path fill="#C0C0C0" stroke="none" paint-order="stroke fill markers" d=" M 233 158 C 233 133.14718399999998 283.1441024 113 345 113 C 406.85589760000005 113 457 133.14718399999998 457 158 C 457 182.85281600000002 406.85589760000005 203 345 203 C 283.1441024 203 233 182.85281600000002 233 158 Z" fill-opacity="0.2"/></g><g><path fill="#ffffff" stroke="none" paint-order="stroke fill markers" d=" M 226 151 C 226 126.14718399999998 276.1441024 106 338 106 C 399.85589760000005 106 450 126.14718399999998 450 151 C 450 175.85281600000002 399.85589760000005 196 338 196 C 276.1441024 196 226 175.85281600000002 226 151 Z"/></g><g><path fill="none" stroke="#000000" paint-order="fill stroke markers" d=" M 226 151 C 226 126.14718399999998 276.1441024 106 338 106 C 399.85589760000005 106 450 126.14718399999998 450 151 C 450 175.85281600000002 399.85589760000005 196 338 196 C 276.1441024 196 226 175.85281600000002 226 151 Z" stroke-miterlimit="10" stroke-dasharray=""/></g><g><g><path fill="none" stroke="none"/><text fill="#000000" stroke="none" font-family="Arial" font-size="13px" font-style="normal" font-weight="bold" text-decoration="undefined" x="512" y="465.5" text-anchor="middle" dominant-baseline="central" transform="matrix(1 0 0 1 -174 -320)">UC45 - Visualizzazione</text><text fill="#000000" stroke="none" font-family="Arial" font-size="13px" font-style="normal" font-weight="bold" text-decoration="undefined" x="512" y="478.5" text-anchor="middle" dominant-baseline="central" transform="matrix(1 0 0 1 -174 -320)">singolo gateway in lista</text></g></g><g><path fill="#C0C0C0" stroke="none" paint-order="stroke fill markers" d=" M 609 93 C 609 73.1177472 671.680128 57 749 57 C 826.319872 57 889 73.1177472 889 93 C 889 112.8822528 826.319872 129 749 129 C 671.680128 129 609 112.8822528 609 93 Z" fill-opacity="0.2"/></g><g><path fill="#ffffff" stroke="none" paint-order="stroke fill markers" d=" M 602 86 C 602 66.1177472 664.680128 50 742 50 C 819.319872 50 882 66.1177472 882 86 C 882 105.8822528 819.319872 122 742 122 C 664.680128 122 602 105.8822528 602 86 Z"/></g><g><path fill="none" stroke="#000000" paint-order="fill stroke markers" d=" M 602 86 C 602 66.1177472 664.680128 50 742 50 C 819.319872 50 882 66.1177472 882 86 C 882 105.8822528 819.319872 122 742 122 C 664.680128 122 602 105.8822528 602 86 Z" stroke-miterlimit="10" stroke-dasharray=""/></g><g><g><path fill="none" stroke="none"/><text fill="#000000" stroke="none" font-family="Arial" font-size="13px" font-style="normal" font-weight="bold" text-decoration="undefined" x="916" y="400.5" text-anchor="middle" dominant-baseline="central" transform="matrix(1 0 0 1 -174 -320)">UC45.1 - Visualizzazione</text><text fill="#000000" stroke="none" font-family="Arial" font-size="13px" font-style="normal" font-weight="bold" text-decoration="undefined" x="916" y="413.5" text-anchor="middle" dominant-baseline="central" transform="matrix(1 0 0 1 -174 -320)">nome singolo gateway in lista</text></g></g><g><path fill="#C0C0C0" stroke="none" paint-order="stroke fill markers" d=" M 593 203.5 C 593 188.86445279999998 659.2618496 177 741 177 C 822.7381504 177 889 188.86445279999998 889 203.5 C 889 218.13554720000002 822.7381504 230 741 230 C 659.2618496 230 593 218.13554720000002 593 203.5 Z" fill-opacity="0.2"/></g><g><path fill="#ffffff" stroke="none" paint-order="stroke fill markers" d=" M 586 196.5 C 586 181.86445279999998 652.2618496 170 734 170 C 815.7381504 170 882 181.86445279999998 882 196.5 C 882 211.13554720000002 815.7381504 223 734 223 C 652.2618496 223 586 211.13554720000002 586 196.5 Z"/></g><g><path fill="none" stroke="#000000" paint-order="fill stroke markers" d=" M 586 196.5 C 586 181.86445279999998 652.2618496 170 734 170 C 815.7381504 170 882 181.86445279999998 882 196.5 C 882 211.13554720000002 815.7381504 223 734 223 C 652.2618496 223 586 211.13554720000002 586 196.5 Z" stroke-miterlimit="10" stroke-dasharray=""/></g><g><g><path fill="none" stroke="none"/><text fill="#000000" stroke="none" font-family="Arial" font-size="13px" font-style="normal" font-weight="bold" text-decoration="undefined" x="908" y="511" text-anchor="middle" dominant-baseline="central" transform="matrix(1 0 0 1 -174 -320)">UC45.2 - Visualizzazione stato</text><text fill="#000000" stroke="none" font-family="Arial" font-size="13px" font-style="normal" font-weight="bold" text-decoration="undefined" x="908" y="524" text-anchor="middle" dominant-baseline="central" transform="matrix(1 0 0 1 -174 -320)">singolo gateway in lista</text></g></g><g><path fill="none" stroke="#000000" paint-order="fill stroke markers" d=" M 451 133 L 601 109" stroke-miterlimit="10" stroke-dasharray="3"/></g><g><path fill="none" stroke="#000000" paint-order="fill stroke markers" d=" M 591.630025736314 114.76225496640524 L 601 109 L 590.2998980969331 106.44895722027519" stroke-miterlimit="10" stroke-dasharray=""/></g><g><rect fill="#ffffff" stroke="none" x="642" y="431" width="55.65625" height="13" transform="matrix(1 0 0 1 -174 -320)"/></g><g><g><path fill="none" stroke="none"/><text fill="#000000" stroke="none" font-family="Arial" font-size="13px" font-style="normal" font-weight="normal" text-decoration="undefined" x="669.828125" y="437.5" text-anchor="middle" dominant-baseline="central" transform="matrix(1 0 0 1 -174 -320)">«include»</text></g></g><g><path fill="none" stroke="#000000" paint-order="fill stroke markers" d=" M 451 164 L 585 179" stroke-miterlimit="10" stroke-dasharray="3"/></g><g><path fill="none" stroke="#000000" paint-order="fill stroke markers" d=" M 574.4321154685891 182.0528374556743 L 585 179 L 575.3686951182755 173.68605925181055" stroke-miterlimit="10" stroke-dasharray=""/></g><g><rect fill="#ffffff" stroke="none" x="652" y="482" width="55.65625" height="13" transform="matrix(1 0 0 1 -174 -320)"/></g><g><g><path fill="none" stroke="none"/><text fill="#000000" stroke="none" font-family="Arial" font-size="13px" font-style="normal" font-weight="normal" text-decoration="undefined" x="679.828125" y="488.5" text-anchor="middle" dominant-baseline="central" transform="matrix(1 0 0 1 -174 -320)">«include»</text></g></g><g><path fill="none" stroke="#000000" paint-order="fill stroke markers" d=" M 225 146 L 119 141" stroke-miterlimit="10" stroke-dasharray=""/></g></g></svg>