<svg version="1.1" xmlns="http://www.w3.org/2000/svg" xmlns:xlink="http://www.w3.org/1999/xlink" width="924" height="265"><defs/><g><g><path fill="#ffffff" stroke="none" paint-order="stroke fill markers" d=" M 55.2781640625 75.85000000000002 C 55.2781640625 70.96227952000004 59.235966430500014 67 64.1181640625 67 C 69.00036169449999 67 72.95816406249997 70.96227952000004 72.95816406249997 75.85000000000002 C 72.95816406249997 80.73772048000001 69.00036169449999 84.70000000000005 64.1181640625 84.70000000000005 C 59.235966430500014 84.70000000000005 55.2781640625 80.73772048000001 55.2781640625 75.85000000000002 Z"/></g><g><path fill="none" stroke="#000000" paint-order="fill stroke markers" d=" M 55.2781640625 75.85000000000002 C 55.2781640625 70.96227952000004 59.235966430500014 67 64.1181640625 67 C 69.00036169449999 67 72.95816406249997 70.96227952000004 72.95816406249997 75.85000000000002 C 72.95816406249997 80.73772048000001 69.00036169449999 84.70000000000005 64.1181640625 84.70000000000005 C 59.235966430500014 84.70000000000005 55.2781640625 80.73772048000001 55.2781640625 75.85000000000002 Z" stroke-miterlimit="10" stroke-dasharray=""/></g><g><path fill="none" stroke="#000000" paint-order="fill stroke markers" d=" M 64.1181640625 84.70000000000005 L 64.1181640625 102.29999999999995" stroke-miterlimit="10" stroke-dasharray=""/></g><g><path fill="none" stroke="#000000" paint-order="fill stroke markers" d=" M 54.758164062499986 91.29999999999995 L 73.47816406250001 91.29999999999995" stroke-miterlimit="10" stroke-dasharray=""/></g><g><path fill="none" stroke="#000000" paint-order="fill stroke markers" d=" M 64.1181640625 102.29999999999995 L 51.1181640625 120" stroke-miterlimit="10" stroke-dasharray=""/></g><g><path fill="none" stroke="#000000" paint-order="fill stroke markers" d=" M 64.1181640625 102.29999999999995 L 77.1181640625 120" stroke-miterlimit="10" stroke-dasharray=""/></g><g><g><path fill="none" stroke="none"/><text fill="#000000" stroke="none" font-family="Arial" font-size="13px" font-style="normal" font-weight="bold" text-decoration="undefined" x="251.6181640625" y="609.5" text-anchor="middle" dominant-baseline="central" transform="matrix(1 0 0 1 -187 -475)">Admin generico</text></g></g><g><path fill="#C0C0C0" stroke="none" paint-order="stroke fill markers" d=" M 209 123.5 C 209 108.86445279999998 269.8892672 97 345 97 C 420.11073280000005 97 481 108.86445279999998 481 123.5 C 481 138.13554720000002 420.11073280000005 150 345 150 C 269.8892672 150 209 138.13554720000002 209 123.5 Z" fill-opacity="0.2"/></g><g><path fill="#ffffff" stroke="none" paint-order="stroke fill markers" d=" M 202 116.5 C 202 101.86445279999998 262.8892672 90 338 90 C 413.11073280000005 90 474 101.86445279999998 474 116.5 C 474 131.13554720000002 413.11073280000005 143 338 143 C 262.8892672 143 202 131.13554720000002 202 116.5 Z"/></g><g><path fill="none" stroke="#000000" paint-order="fill stroke markers" d=" M 202 116.5 C 202 101.86445279999998 262.8892672 90 338 90 C 413.11073280000005 90 474 101.86445279999998 474 116.5 C 474 131.13554720000002 413.11073280000005 143 338 143 C 262.8892672 143 202 131.13554720000002 202 116.5 Z" stroke-miterlimit="10" stroke-dasharray=""/></g><g><g><path fill="none" stroke="none"/><text fill="#000000" stroke="none" font-family="Arial" font-size="13px" font-style="normal" font-weight="bold" text-decoration="undefined" x="525" y="586" text-anchor="middle" dominant-baseline="central" transform="matrix(1 0 0 1 -187 -475)">UC46 - Visualizzazione</text><text fill="#000000" stroke="none" font-family="Arial" font-size="13px" font-style="normal" font-weight="bold" text-decoration="undefined" x="525" y="599" text-anchor="middle" dominant-baseline="central" transform="matrix(1 0 0 1 -187 -475)">gateway associato a tenant</text></g></g><g><path fill="#C0C0C0" stroke="none" paint-order="stroke fill markers" d=" M 601 43.5 C 601 28.86445279999998 669.0527104 17 753 17 C 836.9472896 17 905 28.86445279999998 905 43.5 C 905 58.13554720000002 836.9472896 70 753 70 C 669.0527104 70 601 58.13554720000002 601 43.5 Z" fill-opacity="0.2"/></g><g><path fill="#ffffff" stroke="none" paint-order="stroke fill markers" d=" M 594 36.5 C 594 21.86445279999998 662.0527104 10 746 10 C 829.9472896 10 898 21.86445279999998 898 36.5 C 898 51.13554720000002 829.9472896 63 746 63 C 662.0527104 63 594 51.13554720000002 594 36.5 Z"/></g><g><path fill="none" stroke="#000000" paint-order="fill stroke markers" d=" M 594 36.5 C 594 21.86445279999998 662.0527104 10 746 10 C 829.9472896 10 898 21.86445279999998 898 36.5 C 898 51.13554720000002 829.9472896 63 746 63 C 662.0527104 63 594 51.13554720000002 594 36.5 Z" stroke-miterlimit="10" stroke-dasharray=""/></g><g><g><path fill="none" stroke="none"/><text fill="#000000" stroke="none" font-family="Arial" font-size="13px" font-style="normal" font-weight="bold" text-decoration="undefined" x="933" y="506" text-anchor="middle" dominant-baseline="central" transform="matrix(1 0 0 1 -187 -475)">UC46.1 - Visualizzazione nome</text><text fill="#000000" stroke="none" font-family="Arial" font-size="13px" font-style="normal" font-weight="bold" text-decoration="undefined" x="933" y="519" text-anchor="middle" dominant-baseline="central" transform="matrix(1 0 0 1 -187 -475)">gateway associato a tenant</text></g></g><g><path fill="#C0C0C0" stroke="none" paint-order="stroke fill markers" d=" M 585 235.5 C 585 220.86445279999998 660.2161536 209 753 209 C 845.7838463999999 209 921 220.86445279999998 921 235.5 C 921 250.13554720000002 845.7838463999999 262 753 262 C 660.2161536 262 585 250.13554720000002 585 235.5 Z" fill-opacity="0.2"/></g><g><path fill="#ffffff" stroke="none" paint-order="stroke fill markers" d=" M 578 228.5 C 578 213.86445279999998 653.2161536 202 746 202 C 838.7838463999999 202 914 213.86445279999998 914 228.5 C 914 243.13554720000002 838.7838463999999 255 746 255 C 653.2161536 255 578 243.13554720000002 578 228.5 Z"/></g><g><path fill="none" stroke="#000000" paint-order="fill stroke markers" d=" M 578 228.5 C 578 213.86445279999998 653.2161536 202 746 202 C 838.7838463999999 202 914 213.86445279999998 914 228.5 C 914 243.13554720000002 838.7838463999999 255 746 255 C 653.2161536 255 578 243.13554720000002 578 228.5 Z" stroke-miterlimit="10" stroke-dasharray=""/></g><g><g><path fill="none" stroke="none"/><text fill="#000000" stroke="none" font-family="Arial" font-size="13px" font-style="normal" font-weight="bold" text-decoration="undefined" x="933" y="698" text-anchor="middle" dominant-baseline="central" transform="matrix(1 0 0 1 -187 -475)">UC46.2 - Visualizzazione stato</text><text fill="#000000" stroke="none" font-family="Arial" font-size="13px" font-style="normal" font-weight="bold" text-decoration="undefined" x="933" y="711" text-anchor="middle" dominant-baseline="central" transform="matrix(1 0 0 1 -187 -475)">gateway associato al tenant</text></g></g><g><path fill="#C0C0C0" stroke="none" paint-order="stroke fill markers" d=" M 617 141 C 617 121.11774720000005 685.0527104 105 769 105 C 852.9472896 105 921 121.11774720000005 921 141 C 921 160.88225279999995 852.9472896 177 769 177 C 685.0527104 177 617 160.88225279999995 617 141 Z" fill-opacity="0.2"/></g><g><path fill="#ffffff" stroke="none" paint-order="stroke fill markers" d=" M 610 134 C 610 114.11774720000005 678.0527104 98 762 98 C 845.9472896 98 914 114.11774720000005 914 134 C 914 153.88225279999995 845.9472896 170 762 170 C 678.0527104 170 610 153.88225279999995 610 134 Z"/></g><g><path fill="none" stroke="#000000" paint-order="fill stroke markers" d=" M 610 134 C 610 114.11774720000005 678.0527104 98 762 98 C 845.9472896 98 914 114.11774720000005 914 134 C 914 153.88225279999995 845.9472896 170 762 170 C 678.0527104 170 610 153.88225279999995 610 134 Z" stroke-miterlimit="10" stroke-dasharray=""/></g><g><g><path fill="none" stroke="none"/><text fill="#000000" stroke="none" font-family="Arial" font-size="13px" font-style="normal" font-weight="bold" text-decoration="undefined" x="949" y="597" text-anchor="middle" dominant-baseline="central" transform="matrix(1 0 0 1 -187 -475)">UC46.3 - Visualizzazione sensori</text><text fill="#000000" stroke="none" font-family="Arial" font-size="13px" font-style="normal" font-weight="bold" text-decoration="undefined" x="949" y="610" text-anchor="middle" dominant-baseline="central" transform="matrix(1 0 0 1 -187 -475)">collegati al gateway associato al</text><text fill="#000000" stroke="none" font-family="Arial" font-size="13px" font-style="normal" font-weight="bold" text-decoration="undefined" x="949" y="623" text-anchor="middle" dominant-baseline="central" transform="matrix(1 0 0 1 -187 -475)">tenant</text></g></g><g><path fill="none" stroke="#000000" paint-order="fill stroke markers" d=" M 475 89 L 603 64" stroke-miterlimit="10" stroke-dasharray="3"/></g><g><path fill="none" stroke="#000000" paint-order="fill stroke markers" d=" M 593.8327122632892 70.07954238017567 L 603 64 L 592.2188630327503 61.81663431981667" stroke-miterlimit="10" stroke-dasharray=""/></g><g><rect fill="#ffffff" stroke="none" x="685" y="540" width="55.65625" height="13" transform="matrix(1 0 0 1 -187 -475)"/></g><g><g><path fill="none" stroke="none"/><text fill="#000000" stroke="none" font-family="Arial" font-size="13px" font-style="normal" font-weight="normal" text-decoration="undefined" x="712.828125" y="546.5" text-anchor="middle" dominant-baseline="central" transform="matrix(1 0 0 1 -187 -475)">«include»</text></g></g><g><path fill="none" stroke="#000000" paint-order="fill stroke markers" d=" M 475 122 L 609 128" stroke-miterlimit="10" stroke-dasharray="3"/></g><g><path fill="none" stroke="#000000" paint-order="fill stroke markers" d=" M 598.6592002213652 131.7507145903395 L 609 128 L 599.0357946325106 123.34010607475943" stroke-miterlimit="10" stroke-dasharray=""/></g><g><rect fill="#ffffff" stroke="none" x="700" y="594" width="55.65625" height="13" transform="matrix(1 0 0 1 -187 -475)"/></g><g><g><path fill="none" stroke="none"/><text fill="#000000" stroke="none" font-family="Arial" font-size="13px" font-style="normal" font-weight="normal" text-decoration="undefined" x="727.828125" y="600.5" text-anchor="middle" dominant-baseline="central" transform="matrix(1 0 0 1 -187 -475)">«include»</text></g></g><g><path fill="none" stroke="#000000" paint-order="fill stroke markers" d=" M 440 144 L 648 201" stroke-miterlimit="10" stroke-dasharray="3"/></g><g><path fill="none" stroke="#000000" paint-order="fill stroke markers" d=" M 637.0861372888568 202.37389982251898 L 648 201 L 639.3112397868375 194.25422754918577" stroke-miterlimit="10" stroke-dasharray=""/></g><g><rect fill="#ffffff" stroke="none" x="685" y="636" width="55.65625" height="13" transform="matrix(1 0 0 1 -187 -475)"/></g><g><g><path fill="none" stroke="none"/><text fill="#000000" stroke="none" font-family="Arial" font-size="13px" font-style="normal" font-weight="normal" text-decoration="undefined" x="712.828125" y="642.5" text-anchor="middle" dominant-baseline="central" transform="matrix(1 0 0 1 -187 -475)">«include»</text></g></g><g><path fill="none" stroke="#000000" paint-order="fill stroke markers" d=" M 201 111 L 119 108" stroke-miterlimit="10" stroke-dasharray=""/></g></g></svg>