<svg version="1.1" xmlns="http://www.w3.org/2000/svg" xmlns:xlink="http://www.w3.org/1999/xlink" width="1036" height="412"><defs/><g><g><rect fill="#C0C0C0" stroke="none" x="681" y="478" width="816" height="392" transform="matrix(1 0 0 1 -465 -461)" fill-opacity="0.2"/></g><g><rect fill="#ffffff" stroke="none" x="674" y="471" width="816" height="392" transform="matrix(1 0 0 1 -465 -461)"/></g><g><path fill="none" stroke="#000000" paint-order="fill stroke markers" d=" M 209 10 L 1025 10 L 1025 402 L 209 402 L 209 10 Z Z" stroke-miterlimit="10" stroke-dasharray=""/></g><g><g><path fill="none" stroke="none"/><text fill="#000000" stroke="none" font-family="Arial" font-size="13px" font-style="normal" font-weight="bold" text-decoration="undefined" x="1082.5" y="484.5" text-anchor="middle" dominant-baseline="central" transform="matrix(1 0 0 1 -465 -461)">Dashboard admin</text></g></g><g><path fill="#ffffff" stroke="none" paint-order="stroke fill markers" d=" M 55.27816406249997 147.85000000000002 C 55.27816406249997 142.96227952000004 59.23596643049996 139 64.1181640625 139 C 69.00036169450004 139 72.95816406250003 142.96227952000004 72.95816406250003 147.85000000000002 C 72.95816406250003 152.73772048 69.00036169450004 156.70000000000005 64.1181640625 156.70000000000005 C 59.23596643049996 156.70000000000005 55.27816406249997 152.73772048 55.27816406249997 147.85000000000002 Z"/></g><g><path fill="none" stroke="#000000" paint-order="fill stroke markers" d=" M 55.27816406249997 147.85000000000002 C 55.27816406249997 142.96227952000004 59.23596643049996 139 64.1181640625 139 C 69.00036169450004 139 72.95816406250003 142.96227952000004 72.95816406250003 147.85000000000002 C 72.95816406250003 152.73772048 69.00036169450004 156.70000000000005 64.1181640625 156.70000000000005 C 59.23596643049996 156.70000000000005 55.27816406249997 152.73772048 55.27816406249997 147.85000000000002 Z" stroke-miterlimit="10" stroke-dasharray=""/></g><g><path fill="none" stroke="#000000" paint-order="fill stroke markers" d=" M 64.1181640625 156.70000000000005 L 64.1181640625 174.29999999999995" stroke-miterlimit="10" stroke-dasharray=""/></g><g><path fill="none" stroke="#000000" paint-order="fill stroke markers" d=" M 54.758164062499986 163.29999999999995 L 73.47816406250001 163.29999999999995" stroke-miterlimit="10" stroke-dasharray=""/></g><g><path fill="none" stroke="#000000" paint-order="fill stroke markers" d=" M 64.1181640625 174.29999999999995 L 51.1181640625 192" stroke-miterlimit="10" stroke-dasharray=""/></g><g><path fill="none" stroke="#000000" paint-order="fill stroke markers" d=" M 64.1181640625 174.29999999999995 L 77.1181640625 192" stroke-miterlimit="10" stroke-dasharray=""/></g><g><g><path fill="none" stroke="none"/><text fill="#000000" stroke="none" font-family="Arial" font-size="13px" font-style="normal" font-weight="bold" text-decoration="undefined" x="529.6181640625" y="667.5" text-anchor="middle" dominant-baseline="central" transform="matrix(1 0 0 1 -465 -461)">Admin generico</text></g></g><g><path fill="#C0C0C0" stroke="none" paint-order="stroke fill markers" d=" M 264 205 C 264 185.11774720000005 319.5166848 169 388 169 C 456.4833152 169 512 185.11774720000005 512 205 C 512 224.88225279999995 456.4833152 241 388 241 C 319.5166848 241 264 224.88225279999995 264 205 Z" fill-opacity="0.2"/></g><g><path fill="#ffffff" stroke="none" paint-order="stroke fill markers" d=" M 257 198 C 257 178.11774720000005 312.5166848 162 381 162 C 449.4833152 162 505 178.11774720000005 505 198 C 505 217.88225279999995 449.4833152 234 381 234 C 312.5166848 234 257 217.88225279999995 257 198 Z"/></g><g><path fill="none" stroke="#000000" paint-order="fill stroke markers" d=" M 257 198 C 257 178.11774720000005 312.5166848 162 381 162 C 449.4833152 162 505 178.11774720000005 505 198 C 505 217.88225279999995 449.4833152 234 381 234 C 312.5166848 234 257 217.88225279999995 257 198 Z" stroke-miterlimit="10" stroke-dasharray=""/></g><g><g><path fill="none" stroke="none"/><text fill="#000000" stroke="none" font-family="Arial" font-size="13px" font-style="normal" font-weight="bold" text-decoration="undefined" x="846" y="647" text-anchor="middle" dominant-baseline="central" transform="matrix(1 0 0 1 -465 -461)">UC46 - Visualizzazione</text><text fill="#000000" stroke="none" font-family="Arial" font-size="13px" font-style="normal" font-weight="bold" text-decoration="undefined" x="846" y="660" text-anchor="middle" dominant-baseline="central" transform="matrix(1 0 0 1 -465 -461)">gateway associato a</text><text fill="#000000" stroke="none" font-family="Arial" font-size="13px" font-style="normal" font-weight="bold" text-decoration="undefined" x="846" y="673" text-anchor="middle" dominant-baseline="central" transform="matrix(1 0 0 1 -465 -461)">tenant</text></g></g><g><path fill="#C0C0C0" stroke="none" paint-order="stroke fill markers" d=" M 664 93 C 664 73.11774720000005 717.5019663999999 57 783.5 57 C 849.4980336000001 57 903 73.11774720000005 903 93 C 903 112.88225279999995 849.4980336000001 129 783.5 129 C 717.5019663999999 129 664 112.88225279999995 664 93 Z" fill-opacity="0.2"/></g><g><path fill="#ffffff" stroke="none" paint-order="stroke fill markers" d=" M 657 86 C 657 66.11774720000005 710.5019663999999 50 776.5 50 C 842.4980336000001 50 896 66.11774720000005 896 86 C 896 105.88225279999995 842.4980336000001 122 776.5 122 C 710.5019663999999 122 657 105.88225279999995 657 86 Z"/></g><g><path fill="none" stroke="#000000" paint-order="fill stroke markers" d=" M 657 86 C 657 66.11774720000005 710.5019663999999 50 776.5 50 C 842.4980336000001 50 896 66.11774720000005 896 86 C 896 105.88225279999995 842.4980336000001 122 776.5 122 C 710.5019663999999 122 657 105.88225279999995 657 86 Z" stroke-miterlimit="10" stroke-dasharray=""/></g><g><g><path fill="none" stroke="none"/><text fill="#000000" stroke="none" font-family="Arial" font-size="13px" font-style="normal" font-weight="bold" text-decoration="undefined" x="1241.5" y="535" text-anchor="middle" dominant-baseline="central" transform="matrix(1 0 0 1 -465 -461)">UC46.1 - Visualizzazione</text><text fill="#000000" stroke="none" font-family="Arial" font-size="13px" font-style="normal" font-weight="bold" text-decoration="undefined" x="1241.5" y="548" text-anchor="middle" dominant-baseline="central" transform="matrix(1 0 0 1 -465 -461)">nome gateway associato</text><text fill="#000000" stroke="none" font-family="Arial" font-size="13px" font-style="normal" font-weight="bold" text-decoration="undefined" x="1241.5" y="561" text-anchor="middle" dominant-baseline="central" transform="matrix(1 0 0 1 -465 -461)">a tenant</text></g></g><g><path fill="#C0C0C0" stroke="none" paint-order="stroke fill markers" d=" M 592 349 C 592 329.11774720000005 649.3075455999999 313 720 313 C 790.6924544000001 313 848 329.11774720000005 848 349 C 848 368.88225279999995 790.6924544000001 385 720 385 C 649.3075455999999 385 592 368.88225279999995 592 349 Z" fill-opacity="0.2"/></g><g><path fill="#ffffff" stroke="none" paint-order="stroke fill markers" d=" M 585 342 C 585 322.11774720000005 642.3075455999999 306 713 306 C 783.6924544000001 306 841 322.11774720000005 841 342 C 841 361.88225279999995 783.6924544000001 378 713 378 C 642.3075455999999 378 585 361.88225279999995 585 342 Z"/></g><g><path fill="none" stroke="#000000" paint-order="fill stroke markers" d=" M 585 342 C 585 322.11774720000005 642.3075455999999 306 713 306 C 783.6924544000001 306 841 322.11774720000005 841 342 C 841 361.88225279999995 783.6924544000001 378 713 378 C 642.3075455999999 378 585 361.88225279999995 585 342 Z" stroke-miterlimit="10" stroke-dasharray=""/></g><g><g><path fill="none" stroke="none"/><text fill="#000000" stroke="none" font-family="Arial" font-size="13px" font-style="normal" font-weight="bold" text-decoration="undefined" x="1178" y="791" text-anchor="middle" dominant-baseline="central" transform="matrix(1 0 0 1 -465 -461)">UC46.2 - Visualizzazione</text><text fill="#000000" stroke="none" font-family="Arial" font-size="13px" font-style="normal" font-weight="bold" text-decoration="undefined" x="1178" y="804" text-anchor="middle" dominant-baseline="central" transform="matrix(1 0 0 1 -465 -461)">stato gateway associato al</text><text fill="#000000" stroke="none" font-family="Arial" font-size="13px" font-style="normal" font-weight="bold" text-decoration="undefined" x="1178" y="817" text-anchor="middle" dominant-baseline="central" transform="matrix(1 0 0 1 -465 -461)">tenant</text></g></g><g><path fill="#C0C0C0" stroke="none" paint-order="stroke fill markers" d=" M 720 213 C 720 193.11774720000005 786.037992 177 867.5 177 C 948.962008 177 1015 193.11774720000005 1015 213 C 1015 232.88225279999995 948.962008 249 867.5 249 C 786.037992 249 720 232.88225279999995 720 213 Z" fill-opacity="0.2"/></g><g><path fill="#ffffff" stroke="none" paint-order="stroke fill markers" d=" M 713 206 C 713 186.11774720000005 779.037992 170 860.5 170 C 941.962008 170 1008 186.11774720000005 1008 206 C 1008 225.88225279999995 941.962008 242 860.5 242 C 779.037992 242 713 225.88225279999995 713 206 Z"/></g><g><path fill="none" stroke="#000000" paint-order="fill stroke markers" d=" M 713 206 C 713 186.11774720000005 779.037992 170 860.5 170 C 941.962008 170 1008 186.11774720000005 1008 206 C 1008 225.88225279999995 941.962008 242 860.5 242 C 779.037992 242 713 225.88225279999995 713 206 Z" stroke-miterlimit="10" stroke-dasharray=""/></g><g><g><path fill="none" stroke="none"/><text fill="#000000" stroke="none" font-family="Arial" font-size="13px" font-style="normal" font-weight="bold" text-decoration="undefined" x="1325.5" y="655" text-anchor="middle" dominant-baseline="central" transform="matrix(1 0 0 1 -465 -461)">UC46.3 - Visualizzazione</text><text fill="#000000" stroke="none" font-family="Arial" font-size="13px" font-style="normal" font-weight="bold" text-decoration="undefined" x="1325.5" y="668" text-anchor="middle" dominant-baseline="central" transform="matrix(1 0 0 1 -465 -461)">sensori collegati al gateway</text><text fill="#000000" stroke="none" font-family="Arial" font-size="13px" font-style="normal" font-weight="bold" text-decoration="undefined" x="1325.5" y="681" text-anchor="middle" dominant-baseline="central" transform="matrix(1 0 0 1 -465 -461)">associato al tenant</text></g></g><g><path fill="none" stroke="#000000" paint-order="fill stroke markers" d=" M 506 163 L 656 120" stroke-miterlimit="10" stroke-dasharray="3"/></g><g><path fill="none" stroke="#000000" paint-order="fill stroke markers" d=" M 647.390812199556 126.84703479008886 L 656 120 L 645.0708001947055 118.75396965688958" stroke-miterlimit="10" stroke-dasharray=""/></g><g><rect fill="#ffffff" stroke="none" x="1003" y="586" width="55.65625" height="13" transform="matrix(1 0 0 1 -465 -461)"/></g><g><g><path fill="none" stroke="none"/><text fill="#000000" stroke="none" font-family="Arial" font-size="13px" font-style="normal" font-weight="normal" text-decoration="undefined" x="1030.828125" y="592.5" text-anchor="middle" dominant-baseline="central" transform="matrix(1 0 0 1 -465 -461)">«include»</text></g></g><g><path fill="none" stroke="#000000" paint-order="fill stroke markers" d=" M 506 200 L 712 204" stroke-miterlimit="10" stroke-dasharray="3"/></g><g><path fill="none" stroke="#000000" paint-order="fill stroke markers" d=" M 701.7575176559405 208.0114281037595 L 712 204 L 701.9209632639215 199.5939792927427" stroke-miterlimit="10" stroke-dasharray=""/></g><g><rect fill="#ffffff" stroke="none" x="1047" y="643" width="55.65625" height="13" transform="matrix(1 0 0 1 -465 -461)"/></g><g><g><path fill="none" stroke="none"/><text fill="#000000" stroke="none" font-family="Arial" font-size="13px" font-style="normal" font-weight="normal" text-decoration="undefined" x="1074.828125" y="649.5" text-anchor="middle" dominant-baseline="central" transform="matrix(1 0 0 1 -465 -461)">«include»</text></g></g><g><path fill="none" stroke="#000000" paint-order="fill stroke markers" d=" M 466 235 L 628 305" stroke-miterlimit="10" stroke-dasharray="3"/></g><g><path fill="none" stroke="#000000" paint-order="fill stroke markers" d=" M 617.0012654988438 304.8331486497581 L 628 305 L 620.3407019709682 297.1047385285558" stroke-miterlimit="10" stroke-dasharray=""/></g><g><rect fill="#ffffff" stroke="none" x="933" y="723" width="55.65625" height="13" transform="matrix(1 0 0 1 -465 -461)"/></g><g><g><path fill="none" stroke="none"/><text fill="#000000" stroke="none" font-family="Arial" font-size="13px" font-style="normal" font-weight="normal" text-decoration="undefined" x="960.828125" y="729.5" text-anchor="middle" dominant-baseline="central" transform="matrix(1 0 0 1 -465 -461)">«include»</text></g></g><g><path fill="none" stroke="#000000" paint-order="fill stroke markers" d=" M 256 190 L 119 181" stroke-miterlimit="10" stroke-dasharray=""/></g></g></svg>
