<svg version="1.1" xmlns="http://www.w3.org/2000/svg" xmlns:xlink="http://www.w3.org/1999/xlink" width="941" height="316"><defs/><g><g><rect fill="#C0C0C0" stroke="none" x="335" y="321" width="760" height="296" transform="matrix(1 0 0 1 -158 -304)" fill-opacity="0.2"/></g><g><rect fill="#ffffff" stroke="none" x="328" y="314" width="760" height="296" transform="matrix(1 0 0 1 -158 -304)"/></g><g><path fill="none" stroke="#000000" paint-order="fill stroke markers" d=" M 170 10 L 930 10 L 930 306 L 170 306 L 170 10 Z Z" stroke-miterlimit="10" stroke-dasharray=""/></g><g><g><path fill="none" stroke="none"/><text fill="#000000" stroke="none" font-family="Arial" font-size="13px" font-style="normal" font-weight="bold" text-decoration="undefined" x="708.5" y="327.5" text-anchor="middle" dominant-baseline="central" transform="matrix(1 0 0 1 -158 -304)">Sistema Cloud</text></g></g><g><path fill="#ffffff" stroke="none" paint-order="stroke fill markers" d=" M 55.2781640625 115.85000000000002 C 55.2781640625 110.96227952000004 59.235966430499985 107 64.1181640625 107 C 69.00036169450001 107 72.9581640625 110.96227952000004 72.9581640625 115.85000000000002 C 72.9581640625 120.73772048000001 69.00036169450001 124.69999999999999 64.1181640625 124.69999999999999 C 59.235966430499985 124.69999999999999 55.2781640625 120.73772048000001 55.2781640625 115.85000000000002 Z"/></g><g><path fill="none" stroke="#000000" paint-order="fill stroke markers" d=" M 55.2781640625 115.85000000000002 C 55.2781640625 110.96227952000004 59.235966430499985 107 64.1181640625 107 C 69.00036169450001 107 72.9581640625 110.96227952000004 72.9581640625 115.85000000000002 C 72.9581640625 120.73772048000001 69.00036169450001 124.69999999999999 64.1181640625 124.69999999999999 C 59.235966430499985 124.69999999999999 55.2781640625 120.73772048000001 55.2781640625 115.85000000000002 Z" stroke-miterlimit="10" stroke-dasharray=""/></g><g><path fill="none" stroke="#000000" paint-order="fill stroke markers" d=" M 64.1181640625 124.69999999999999 L 64.1181640625 142.3" stroke-miterlimit="10" stroke-dasharray=""/></g><g><path fill="none" stroke="#000000" paint-order="fill stroke markers" d=" M 54.758164062499986 131.3 L 73.47816406250001 131.3" stroke-miterlimit="10" stroke-dasharray=""/></g><g><path fill="none" stroke="#000000" paint-order="fill stroke markers" d=" M 64.1181640625 142.3 L 51.1181640625 160" stroke-miterlimit="10" stroke-dasharray=""/></g><g><path fill="none" stroke="#000000" paint-order="fill stroke markers" d=" M 64.1181640625 142.3 L 77.1181640625 160" stroke-miterlimit="10" stroke-dasharray=""/></g><g><g><path fill="none" stroke="none"/><text fill="#000000" stroke="none" font-family="Arial" font-size="13px" font-style="normal" font-weight="bold" text-decoration="undefined" x="222.6181640625" y="478.5" text-anchor="middle" dominant-baseline="central" transform="matrix(1 0 0 1 -158 -304)">Admin generico</text></g></g><g><path fill="#C0C0C0" stroke="none" paint-order="stroke fill markers" d=" M 209 163.5 C 209 148.86445279999998 269.8892672 137 345 137 C 420.11073280000005 137 481 148.86445279999998 481 163.5 C 481 178.13554720000002 420.11073280000005 190 345 190 C 269.8892672 190 209 178.13554720000002 209 163.5 Z" fill-opacity="0.2"/></g><g><path fill="#ffffff" stroke="none" paint-order="stroke fill markers" d=" M 202 156.5 C 202 141.86445279999998 262.8892672 130 338 130 C 413.11073280000005 130 474 141.86445279999998 474 156.5 C 474 171.13554720000002 413.11073280000005 183 338 183 C 262.8892672 183 202 171.13554720000002 202 156.5 Z"/></g><g><path fill="none" stroke="#000000" paint-order="fill stroke markers" d=" M 202 156.5 C 202 141.86445279999998 262.8892672 130 338 130 C 413.11073280000005 130 474 141.86445279999998 474 156.5 C 474 171.13554720000002 413.11073280000005 183 338 183 C 262.8892672 183 202 171.13554720000002 202 156.5 Z" stroke-miterlimit="10" stroke-dasharray=""/></g><g><g><path fill="none" stroke="none"/><text fill="#000000" stroke="none" font-family="Arial" font-size="13px" font-style="normal" font-weight="bold" text-decoration="undefined" x="496" y="455" text-anchor="middle" dominant-baseline="central" transform="matrix(1 0 0 1 -158 -304)">UC46 - Visualizzazione</text><text fill="#000000" stroke="none" font-family="Arial" font-size="13px" font-style="normal" font-weight="bold" text-decoration="undefined" x="496" y="468" text-anchor="middle" dominant-baseline="central" transform="matrix(1 0 0 1 -158 -304)">gateway associato a tenant</text></g></g><g><path fill="#C0C0C0" stroke="none" paint-order="stroke fill markers" d=" M 601 83.5 C 601 68.86445279999998 669.0527104 57 753 57 C 836.9472896 57 905 68.86445279999998 905 83.5 C 905 98.13554720000002 836.9472896 110 753 110 C 669.0527104 110 601 98.13554720000002 601 83.5 Z" fill-opacity="0.2"/></g><g><path fill="#ffffff" stroke="none" paint-order="stroke fill markers" d=" M 594 76.5 C 594 61.86445279999998 662.0527104 50 746 50 C 829.9472896 50 898 61.86445279999998 898 76.5 C 898 91.13554720000002 829.9472896 103 746 103 C 662.0527104 103 594 91.13554720000002 594 76.5 Z"/></g><g><path fill="none" stroke="#000000" paint-order="fill stroke markers" d=" M 594 76.5 C 594 61.86445279999998 662.0527104 50 746 50 C 829.9472896 50 898 61.86445279999998 898 76.5 C 898 91.13554720000002 829.9472896 103 746 103 C 662.0527104 103 594 91.13554720000002 594 76.5 Z" stroke-miterlimit="10" stroke-dasharray=""/></g><g><g><path fill="none" stroke="none"/><text fill="#000000" stroke="none" font-family="Arial" font-size="13px" font-style="normal" font-weight="bold" text-decoration="undefined" x="904" y="375" text-anchor="middle" dominant-baseline="central" transform="matrix(1 0 0 1 -158 -304)">UC46.1 - Visualizzazione nome</text><text fill="#000000" stroke="none" font-family="Arial" font-size="13px" font-style="normal" font-weight="bold" text-decoration="undefined" x="904" y="388" text-anchor="middle" dominant-baseline="central" transform="matrix(1 0 0 1 -158 -304)">gateway associato a tenant</text></g></g><g><path fill="#C0C0C0" stroke="none" paint-order="stroke fill markers" d=" M 585 275.5 C 585 260.8644528 660.2161536 249 753 249 C 845.7838464 249 921 260.8644528 921 275.5 C 921 290.1355472 845.7838464 302 753 302 C 660.2161536 302 585 290.1355472 585 275.5 Z" fill-opacity="0.2"/></g><g><path fill="#ffffff" stroke="none" paint-order="stroke fill markers" d=" M 578 268.5 C 578 253.86445279999998 653.2161536 242 746 242 C 838.7838464 242 914 253.86445279999998 914 268.5 C 914 283.1355472 838.7838464 295 746 295 C 653.2161536 295 578 283.1355472 578 268.5 Z"/></g><g><path fill="none" stroke="#000000" paint-order="fill stroke markers" d=" M 578 268.5 C 578 253.86445279999998 653.2161536 242 746 242 C 838.7838464 242 914 253.86445279999998 914 268.5 C 914 283.1355472 838.7838464 295 746 295 C 653.2161536 295 578 283.1355472 578 268.5 Z" stroke-miterlimit="10" stroke-dasharray=""/></g><g><g><path fill="none" stroke="none"/><text fill="#000000" stroke="none" font-family="Arial" font-size="13px" font-style="normal" font-weight="bold" text-decoration="undefined" x="904" y="567" text-anchor="middle" dominant-baseline="central" transform="matrix(1 0 0 1 -158 -304)">UC46.2 - Visualizzazione stato</text><text fill="#000000" stroke="none" font-family="Arial" font-size="13px" font-style="normal" font-weight="bold" text-decoration="undefined" x="904" y="580" text-anchor="middle" dominant-baseline="central" transform="matrix(1 0 0 1 -158 -304)">gateway associato al tenant</text></g></g><g><path fill="#C0C0C0" stroke="none" paint-order="stroke fill markers" d=" M 617 181 C 617 161.1177472 685.0527104 145 769 145 C 852.9472896 145 921 161.1177472 921 181 C 921 200.8822528 852.9472896 217 769 217 C 685.0527104 217 617 200.8822528 617 181 Z" fill-opacity="0.2"/></g><g><path fill="#ffffff" stroke="none" paint-order="stroke fill markers" d=" M 610 174 C 610 154.1177472 678.0527104 138 762 138 C 845.9472896 138 914 154.1177472 914 174 C 914 193.8822528 845.9472896 210 762 210 C 678.0527104 210 610 193.8822528 610 174 Z"/></g><g><path fill="none" stroke="#000000" paint-order="fill stroke markers" d=" M 610 174 C 610 154.1177472 678.0527104 138 762 138 C 845.9472896 138 914 154.1177472 914 174 C 914 193.8822528 845.9472896 210 762 210 C 678.0527104 210 610 193.8822528 610 174 Z" stroke-miterlimit="10" stroke-dasharray=""/></g><g><g><path fill="none" stroke="none"/><text fill="#000000" stroke="none" font-family="Arial" font-size="13px" font-style="normal" font-weight="bold" text-decoration="undefined" x="920" y="466" text-anchor="middle" dominant-baseline="central" transform="matrix(1 0 0 1 -158 -304)">UC46.3 - Visualizzazione sensori</text><text fill="#000000" stroke="none" font-family="Arial" font-size="13px" font-style="normal" font-weight="bold" text-decoration="undefined" x="920" y="479" text-anchor="middle" dominant-baseline="central" transform="matrix(1 0 0 1 -158 -304)">collegati al gateway associato al</text><text fill="#000000" stroke="none" font-family="Arial" font-size="13px" font-style="normal" font-weight="bold" text-decoration="undefined" x="920" y="492" text-anchor="middle" dominant-baseline="central" transform="matrix(1 0 0 1 -158 -304)">tenant</text></g></g><g><path fill="none" stroke="#000000" paint-order="fill stroke markers" d=" M 475 129 L 603 104" stroke-miterlimit="10" stroke-dasharray="3"/></g><g><path fill="none" stroke="#000000" paint-order="fill stroke markers" d=" M 593.8327122632892 110.07954238017561 L 603 104 L 592.2188630327503 101.81663431981667" stroke-miterlimit="10" stroke-dasharray=""/></g><g><rect fill="#ffffff" stroke="none" x="656" y="409" width="55.65625" height="13" transform="matrix(1 0 0 1 -158 -304)"/></g><g><g><path fill="none" stroke="none"/><text fill="#000000" stroke="none" font-family="Arial" font-size="13px" font-style="normal" font-weight="normal" text-decoration="undefined" x="683.828125" y="415.5" text-anchor="middle" dominant-baseline="central" transform="matrix(1 0 0 1 -158 -304)">«include»</text></g></g><g><path fill="none" stroke="#000000" paint-order="fill stroke markers" d=" M 475 162 L 609 168" stroke-miterlimit="10" stroke-dasharray="3"/></g><g><path fill="none" stroke="#000000" paint-order="fill stroke markers" d=" M 598.6592002213652 171.75071459033956 L 609 168 L 599.0357946325106 163.34010607475938" stroke-miterlimit="10" stroke-dasharray=""/></g><g><rect fill="#ffffff" stroke="none" x="671" y="463" width="55.65625" height="13" transform="matrix(1 0 0 1 -158 -304)"/></g><g><g><path fill="none" stroke="none"/><text fill="#000000" stroke="none" font-family="Arial" font-size="13px" font-style="normal" font-weight="normal" text-decoration="undefined" x="698.828125" y="469.5" text-anchor="middle" dominant-baseline="central" transform="matrix(1 0 0 1 -158 -304)">«include»</text></g></g><g><path fill="none" stroke="#000000" paint-order="fill stroke markers" d=" M 440 184 L 648 241" stroke-miterlimit="10" stroke-dasharray="3"/></g><g><path fill="none" stroke="#000000" paint-order="fill stroke markers" d=" M 637.0861372888568 242.37389982251898 L 648 241 L 639.3112397868375 234.25422754918577" stroke-miterlimit="10" stroke-dasharray=""/></g><g><rect fill="#ffffff" stroke="none" x="656" y="505" width="55.65625" height="13" transform="matrix(1 0 0 1 -158 -304)"/></g><g><g><path fill="none" stroke="none"/><text fill="#000000" stroke="none" font-family="Arial" font-size="13px" font-style="normal" font-weight="normal" text-decoration="undefined" x="683.828125" y="511.5" text-anchor="middle" dominant-baseline="central" transform="matrix(1 0 0 1 -158 -304)">«include»</text></g></g><g><path fill="none" stroke="#000000" paint-order="fill stroke markers" d=" M 201 151 L 119 148" stroke-miterlimit="10" stroke-dasharray=""/></g></g></svg>