<svg version="1.1" xmlns="http://www.w3.org/2000/svg" xmlns:xlink="http://www.w3.org/1999/xlink" width="941" height="364"><defs/><g><g><rect fill="#C0C0C0" stroke="none" x="548" y="397" width="760" height="344" transform="matrix(1 0 0 1 -371 -380)" fill-opacity="0.2"/></g><g><rect fill="#ffffff" stroke="none" x="541" y="390" width="760" height="344" transform="matrix(1 0 0 1 -371 -380)"/></g><g><path fill="none" stroke="#000000" paint-order="fill stroke markers" d=" M 170 10 L 930 10 L 930 354 L 170 354 L 170 10 Z Z" stroke-miterlimit="10" stroke-dasharray=""/></g><g><g><path fill="none" stroke="none"/><text fill="#000000" stroke="none" font-family="Arial" font-size="13px" font-style="normal" font-weight="bold" text-decoration="undefined" x="921.5" y="403.5" text-anchor="middle" dominant-baseline="central" transform="matrix(1 0 0 1 -371 -380)">Sistema Cloud</text></g></g><g><path fill="#ffffff" stroke="none" paint-order="stroke fill markers" d=" M 55.278164062500025 139.85000000000002 C 55.278164062500025 134.96227952000004 59.235966430500014 131 64.1181640625 131 C 69.00036169449999 131 72.95816406249997 134.96227952000004 72.95816406249997 139.85000000000002 C 72.95816406249997 144.73772048 69.00036169449999 148.70000000000005 64.1181640625 148.70000000000005 C 59.235966430500014 148.70000000000005 55.278164062500025 144.73772048 55.278164062500025 139.85000000000002 Z"/></g><g><path fill="none" stroke="#000000" paint-order="fill stroke markers" d=" M 55.278164062500025 139.85000000000002 C 55.278164062500025 134.96227952000004 59.235966430500014 131 64.1181640625 131 C 69.00036169449999 131 72.95816406249997 134.96227952000004 72.95816406249997 139.85000000000002 C 72.95816406249997 144.73772048 69.00036169449999 148.70000000000005 64.1181640625 148.70000000000005 C 59.235966430500014 148.70000000000005 55.278164062500025 144.73772048 55.278164062500025 139.85000000000002 Z" stroke-miterlimit="10" stroke-dasharray=""/></g><g><path fill="none" stroke="#000000" paint-order="fill stroke markers" d=" M 64.1181640625 148.70000000000005 L 64.1181640625 166.29999999999995" stroke-miterlimit="10" stroke-dasharray=""/></g><g><path fill="none" stroke="#000000" paint-order="fill stroke markers" d=" M 54.758164062499986 155.29999999999995 L 73.47816406250001 155.29999999999995" stroke-miterlimit="10" stroke-dasharray=""/></g><g><path fill="none" stroke="#000000" paint-order="fill stroke markers" d=" M 64.1181640625 166.29999999999995 L 51.1181640625 184" stroke-miterlimit="10" stroke-dasharray=""/></g><g><path fill="none" stroke="#000000" paint-order="fill stroke markers" d=" M 64.1181640625 166.29999999999995 L 77.1181640625 184" stroke-miterlimit="10" stroke-dasharray=""/></g><g><g><path fill="none" stroke="none"/><text fill="#000000" stroke="none" font-family="Arial" font-size="13px" font-style="normal" font-weight="bold" text-decoration="undefined" x="435.6181640625" y="578.5" text-anchor="middle" dominant-baseline="central" transform="matrix(1 0 0 1 -371 -380)">Admin generico</text></g></g><g><path fill="#C0C0C0" stroke="none" paint-order="stroke fill markers" d=" M 209 187.5 C 209 172.86445279999998 269.88926719999995 161 345 161 C 420.11073280000005 161 481 172.86445279999998 481 187.5 C 481 202.13554720000002 420.11073280000005 214 345 214 C 269.88926719999995 214 209 202.13554720000002 209 187.5 Z" fill-opacity="0.2"/></g><g><path fill="#ffffff" stroke="none" paint-order="stroke fill markers" d=" M 202 180.5 C 202 165.86445279999998 262.88926719999995 154 338 154 C 413.11073280000005 154 474 165.86445279999998 474 180.5 C 474 195.13554720000002 413.11073280000005 207 338 207 C 262.88926719999995 207 202 195.13554720000002 202 180.5 Z"/></g><g><path fill="none" stroke="#000000" paint-order="fill stroke markers" d=" M 202 180.5 C 202 165.86445279999998 262.88926719999995 154 338 154 C 413.11073280000005 154 474 165.86445279999998 474 180.5 C 474 195.13554720000002 413.11073280000005 207 338 207 C 262.88926719999995 207 202 195.13554720000002 202 180.5 Z" stroke-miterlimit="10" stroke-dasharray=""/></g><g><g><path fill="none" stroke="none"/><text fill="#000000" stroke="none" font-family="Arial" font-size="13px" font-style="normal" font-weight="bold" text-decoration="undefined" x="709" y="555" text-anchor="middle" dominant-baseline="central" transform="matrix(1 0 0 1 -371 -380)">UC46 - Visualizzazione</text><text fill="#000000" stroke="none" font-family="Arial" font-size="13px" font-style="normal" font-weight="bold" text-decoration="undefined" x="709" y="568" text-anchor="middle" dominant-baseline="central" transform="matrix(1 0 0 1 -371 -380)">gateway associato a tenant</text></g></g><g><path fill="#C0C0C0" stroke="none" paint-order="stroke fill markers" d=" M 601 107.5 C 601 92.86445279999998 669.0527104 81 753 81 C 836.9472896 81 905 92.86445279999998 905 107.5 C 905 122.13554720000002 836.9472896 134 753 134 C 669.0527104 134 601 122.13554720000002 601 107.5 Z" fill-opacity="0.2"/></g><g><path fill="#ffffff" stroke="none" paint-order="stroke fill markers" d=" M 594 100.5 C 594 85.86445279999998 662.0527104 74 746 74 C 829.9472896 74 898 85.86445279999998 898 100.5 C 898 115.13554720000002 829.9472896 127 746 127 C 662.0527104 127 594 115.13554720000002 594 100.5 Z"/></g><g><path fill="none" stroke="#000000" paint-order="fill stroke markers" d=" M 594 100.5 C 594 85.86445279999998 662.0527104 74 746 74 C 829.9472896 74 898 85.86445279999998 898 100.5 C 898 115.13554720000002 829.9472896 127 746 127 C 662.0527104 127 594 115.13554720000002 594 100.5 Z" stroke-miterlimit="10" stroke-dasharray=""/></g><g><g><path fill="none" stroke="none"/><text fill="#000000" stroke="none" font-family="Arial" font-size="13px" font-style="normal" font-weight="bold" text-decoration="undefined" x="1117" y="475" text-anchor="middle" dominant-baseline="central" transform="matrix(1 0 0 1 -371 -380)">UC46.1 - Visualizzazione nome</text><text fill="#000000" stroke="none" font-family="Arial" font-size="13px" font-style="normal" font-weight="bold" text-decoration="undefined" x="1117" y="488" text-anchor="middle" dominant-baseline="central" transform="matrix(1 0 0 1 -371 -380)">gateway associato a tenant</text></g></g><g><path fill="#C0C0C0" stroke="none" paint-order="stroke fill markers" d=" M 585 299.5 C 585 284.8644528 660.2161536000001 273 753 273 C 845.7838463999999 273 921 284.8644528 921 299.5 C 921 314.1355472 845.7838463999999 326 753 326 C 660.2161536000001 326 585 314.1355472 585 299.5 Z" fill-opacity="0.2"/></g><g><path fill="#ffffff" stroke="none" paint-order="stroke fill markers" d=" M 578 292.5 C 578 277.8644528 653.2161536000001 266 746 266 C 838.7838463999999 266 914 277.8644528 914 292.5 C 914 307.1355472 838.7838463999999 319 746 319 C 653.2161536000001 319 578 307.1355472 578 292.5 Z"/></g><g><path fill="none" stroke="#000000" paint-order="fill stroke markers" d=" M 578 292.5 C 578 277.8644528 653.2161536000001 266 746 266 C 838.7838463999999 266 914 277.8644528 914 292.5 C 914 307.1355472 838.7838463999999 319 746 319 C 653.2161536000001 319 578 307.1355472 578 292.5 Z" stroke-miterlimit="10" stroke-dasharray=""/></g><g><g><path fill="none" stroke="none"/><text fill="#000000" stroke="none" font-family="Arial" font-size="13px" font-style="normal" font-weight="bold" text-decoration="undefined" x="1117" y="667" text-anchor="middle" dominant-baseline="central" transform="matrix(1 0 0 1 -371 -380)">UC46.2 - Visualizzazione stato</text><text fill="#000000" stroke="none" font-family="Arial" font-size="13px" font-style="normal" font-weight="bold" text-decoration="undefined" x="1117" y="680" text-anchor="middle" dominant-baseline="central" transform="matrix(1 0 0 1 -371 -380)">gateway associato al tenant</text></g></g><g><path fill="#C0C0C0" stroke="none" paint-order="stroke fill markers" d=" M 617 205 C 617 185.11774720000005 685.0527104 169 769 169 C 852.9472896 169 921 185.11774720000005 921 205 C 921 224.88225279999995 852.9472896 241 769 241 C 685.0527104 241 617 224.88225279999995 617 205 Z" fill-opacity="0.2"/></g><g><path fill="#ffffff" stroke="none" paint-order="stroke fill markers" d=" M 610 198 C 610 178.11774720000005 678.0527104 162 762 162 C 845.9472896 162 914 178.11774720000005 914 198 C 914 217.88225279999995 845.9472896 234 762 234 C 678.0527104 234 610 217.88225279999995 610 198 Z"/></g><g><path fill="none" stroke="#000000" paint-order="fill stroke markers" d=" M 610 198 C 610 178.11774720000005 678.0527104 162 762 162 C 845.9472896 162 914 178.11774720000005 914 198 C 914 217.88225279999995 845.9472896 234 762 234 C 678.0527104 234 610 217.88225279999995 610 198 Z" stroke-miterlimit="10" stroke-dasharray=""/></g><g><g><path fill="none" stroke="none"/><text fill="#000000" stroke="none" font-family="Arial" font-size="13px" font-style="normal" font-weight="bold" text-decoration="undefined" x="1133" y="566" text-anchor="middle" dominant-baseline="central" transform="matrix(1 0 0 1 -371 -380)">UC46.3 - Visualizzazione sensori</text><text fill="#000000" stroke="none" font-family="Arial" font-size="13px" font-style="normal" font-weight="bold" text-decoration="undefined" x="1133" y="579" text-anchor="middle" dominant-baseline="central" transform="matrix(1 0 0 1 -371 -380)">collegati al gateway associato al</text><text fill="#000000" stroke="none" font-family="Arial" font-size="13px" font-style="normal" font-weight="bold" text-decoration="undefined" x="1133" y="592" text-anchor="middle" dominant-baseline="central" transform="matrix(1 0 0 1 -371 -380)">tenant</text></g></g><g><path fill="none" stroke="#000000" paint-order="fill stroke markers" d=" M 475 153 L 603 128" stroke-miterlimit="10" stroke-dasharray="3"/></g><g><path fill="none" stroke="#000000" paint-order="fill stroke markers" d=" M 593.8327122632892 134.07954238017567 L 603 128 L 592.2188630327503 125.81663431981667" stroke-miterlimit="10" stroke-dasharray=""/></g><g><rect fill="#ffffff" stroke="none" x="869" y="509" width="55.65625" height="13" transform="matrix(1 0 0 1 -371 -380)"/></g><g><g><path fill="none" stroke="none"/><text fill="#000000" stroke="none" font-family="Arial" font-size="13px" font-style="normal" font-weight="normal" text-decoration="undefined" x="896.828125" y="515.5" text-anchor="middle" dominant-baseline="central" transform="matrix(1 0 0 1 -371 -380)">«include»</text></g></g><g><path fill="none" stroke="#000000" paint-order="fill stroke markers" d=" M 475 186 L 609 192" stroke-miterlimit="10" stroke-dasharray="3"/></g><g><path fill="none" stroke="#000000" paint-order="fill stroke markers" d=" M 598.6592002213652 195.7507145903395 L 609 192 L 599.0357946325106 187.34010607475943" stroke-miterlimit="10" stroke-dasharray=""/></g><g><rect fill="#ffffff" stroke="none" x="884" y="563" width="55.65625" height="13" transform="matrix(1 0 0 1 -371 -380)"/></g><g><g><path fill="none" stroke="none"/><text fill="#000000" stroke="none" font-family="Arial" font-size="13px" font-style="normal" font-weight="normal" text-decoration="undefined" x="911.828125" y="569.5" text-anchor="middle" dominant-baseline="central" transform="matrix(1 0 0 1 -371 -380)">«include»</text></g></g><g><path fill="none" stroke="#000000" paint-order="fill stroke markers" d=" M 440 208 L 648 265" stroke-miterlimit="10" stroke-dasharray="3"/></g><g><path fill="none" stroke="#000000" paint-order="fill stroke markers" d=" M 637.0861372888568 266.373899822519 L 648 265 L 639.3112397868375 258.25422754918577" stroke-miterlimit="10" stroke-dasharray=""/></g><g><rect fill="#ffffff" stroke="none" x="869" y="605" width="55.65625" height="13" transform="matrix(1 0 0 1 -371 -380)"/></g><g><g><path fill="none" stroke="none"/><text fill="#000000" stroke="none" font-family="Arial" font-size="13px" font-style="normal" font-weight="normal" text-decoration="undefined" x="896.828125" y="611.5" text-anchor="middle" dominant-baseline="central" transform="matrix(1 0 0 1 -371 -380)">«include»</text></g></g><g><path fill="none" stroke="#000000" paint-order="fill stroke markers" d=" M 201 175 L 119 172" stroke-miterlimit="10" stroke-dasharray=""/></g></g></svg>