<svg version="1.1" xmlns="http://www.w3.org/2000/svg" xmlns:xlink="http://www.w3.org/1999/xlink" width="957" height="404"><defs/><g><g><rect fill="#C0C0C0" stroke="none" x="327" y="277" width="776" height="384" transform="matrix(1 0 0 1 -150 -260)" fill-opacity="0.2"/></g><g><rect fill="#ffffff" stroke="none" x="320" y="270" width="776" height="384" transform="matrix(1 0 0 1 -150 -260)"/></g><g><path fill="none" stroke="#000000" paint-order="fill stroke markers" d=" M 170 10 L 946 10 L 946 394 L 170 394 L 170 10 Z Z" stroke-miterlimit="10" stroke-dasharray=""/></g><g><g><path fill="none" stroke="none"/><text fill="#000000" stroke="none" font-family="Arial" font-size="13px" font-style="normal" font-weight="bold" text-decoration="undefined" x="708.5" y="283.5" text-anchor="middle" dominant-baseline="central" transform="matrix(1 0 0 1 -150 -260)">Sistema Cloud</text></g></g><g><path fill="#ffffff" stroke="none" paint-order="stroke fill markers" d=" M 55.2781640625 123.85000000000002 C 55.2781640625 118.96227952000004 59.235966430499985 115 64.1181640625 115 C 69.00036169450001 115 72.9581640625 118.96227952000004 72.9581640625 123.85000000000002 C 72.9581640625 128.73772048 69.00036169450001 132.7 64.1181640625 132.7 C 59.235966430499985 132.7 55.2781640625 128.73772048 55.2781640625 123.85000000000002 Z"/></g><g><path fill="none" stroke="#000000" paint-order="fill stroke markers" d=" M 55.2781640625 123.85000000000002 C 55.2781640625 118.96227952000004 59.235966430499985 115 64.1181640625 115 C 69.00036169450001 115 72.9581640625 118.96227952000004 72.9581640625 123.85000000000002 C 72.9581640625 128.73772048 69.00036169450001 132.7 64.1181640625 132.7 C 59.235966430499985 132.7 55.2781640625 128.73772048 55.2781640625 123.85000000000002 Z" stroke-miterlimit="10" stroke-dasharray=""/></g><g><path fill="none" stroke="#000000" paint-order="fill stroke markers" d=" M 64.1181640625 132.7 L 64.1181640625 150.3" stroke-miterlimit="10" stroke-dasharray=""/></g><g><path fill="none" stroke="#000000" paint-order="fill stroke markers" d=" M 54.758164062499986 139.3 L 73.47816406250001 139.3" stroke-miterlimit="10" stroke-dasharray=""/></g><g><path fill="none" stroke="#000000" paint-order="fill stroke markers" d=" M 64.1181640625 150.3 L 51.1181640625 168" stroke-miterlimit="10" stroke-dasharray=""/></g><g><path fill="none" stroke="#000000" paint-order="fill stroke markers" d=" M 64.1181640625 150.3 L 77.1181640625 168" stroke-miterlimit="10" stroke-dasharray=""/></g><g><g><path fill="none" stroke="none"/><text fill="#000000" stroke="none" font-family="Arial" font-size="13px" font-style="normal" font-weight="bold" text-decoration="undefined" x="214.6181640625" y="442.5" text-anchor="middle" dominant-baseline="central" transform="matrix(1 0 0 1 -150 -260)">Admin generico</text></g></g><g><path fill="#C0C0C0" stroke="none" paint-order="stroke fill markers" d=" M 313 171.5 C 313 156.86445279999998 386.42529279999997 145 477 145 C 567.5747072 145 641 156.86445279999998 641 171.5 C 641 186.13554720000002 567.5747072 198 477 198 C 386.42529279999997 198 313 186.13554720000002 313 171.5 Z" fill-opacity="0.2"/></g><g><path fill="#ffffff" stroke="none" paint-order="stroke fill markers" d=" M 306 164.5 C 306 149.86445279999998 379.42529279999997 138 470 138 C 560.5747072 138 634 149.86445279999998 634 164.5 C 634 179.13554720000002 560.5747072 191 470 191 C 379.42529279999997 191 306 179.13554720000002 306 164.5 Z"/></g><g><path fill="none" stroke="#000000" paint-order="fill stroke markers" d=" M 306 164.5 C 306 149.86445279999998 379.42529279999997 138 470 138 C 560.5747072 138 634 149.86445279999998 634 164.5 C 634 179.13554720000002 560.5747072 191 470 191 C 379.42529279999997 191 306 179.13554720000002 306 164.5 Z" stroke-miterlimit="10" stroke-dasharray=""/></g><g><g><path fill="none" stroke="none"/><text fill="#000000" stroke="none" font-family="Arial" font-size="13px" font-style="normal" font-weight="bold" text-decoration="undefined" x="620" y="419" text-anchor="middle" dominant-baseline="central" transform="matrix(1 0 0 1 -150 -260)">UC46 - Registrazione nuova API</text><text fill="#000000" stroke="none" font-family="Arial" font-size="13px" font-style="normal" font-weight="bold" text-decoration="undefined" x="620" y="432" text-anchor="middle" dominant-baseline="central" transform="matrix(1 0 0 1 -150 -260)">key</text></g></g><g><path fill="#C0C0C0" stroke="none" paint-order="stroke fill markers" d=" M 409 67.5 C 409 52.86445279999998 466.3075456 41 537 41 C 607.6924544 41 665 52.86445279999998 665 67.5 C 665 82.13554720000002 607.6924544 94 537 94 C 466.3075456 94 409 82.13554720000002 409 67.5 Z" fill-opacity="0.2"/></g><g><path fill="#ffffff" stroke="none" paint-order="stroke fill markers" d=" M 402 60.5 C 402 45.86445279999998 459.3075456 34 530 34 C 600.6924544 34 658 45.86445279999998 658 60.5 C 658 75.13554720000002 600.6924544 87 530 87 C 459.3075456 87 402 75.13554720000002 402 60.5 Z"/></g><g><path fill="none" stroke="#000000" paint-order="fill stroke markers" d=" M 402 60.5 C 402 45.86445279999998 459.3075456 34 530 34 C 600.6924544 34 658 45.86445279999998 658 60.5 C 658 75.13554720000002 600.6924544 87 530 87 C 459.3075456 87 402 75.13554720000002 402 60.5 Z" stroke-miterlimit="10" stroke-dasharray=""/></g><g><g><path fill="none" stroke="none"/><text fill="#000000" stroke="none" font-family="Arial" font-size="13px" font-style="normal" font-weight="bold" text-decoration="undefined" x="680" y="315" text-anchor="middle" dominant-baseline="central" transform="matrix(1 0 0 1 -150 -260)">UC46.1 - Inserimento nome</text><text fill="#000000" stroke="none" font-family="Arial" font-size="13px" font-style="normal" font-weight="bold" text-decoration="undefined" x="680" y="328" text-anchor="middle" dominant-baseline="central" transform="matrix(1 0 0 1 -150 -260)">API key</text></g></g><g><path fill="#C0C0C0" stroke="none" paint-order="stroke fill markers" d=" M 729 115.5 C 729 100.86445279999998 773.77152 89 829 89 C 884.22848 89 929 100.86445279999998 929 115.5 C 929 130.13554720000002 884.22848 142 829 142 C 773.77152 142 729 130.13554720000002 729 115.5 Z" fill-opacity="0.2"/></g><g><path fill="#ffffff" stroke="none" paint-order="stroke fill markers" d=" M 722 108.5 C 722 93.86445279999998 766.77152 82 822 82 C 877.22848 82 922 93.86445279999998 922 108.5 C 922 123.13554720000002 877.22848 135 822 135 C 766.77152 135 722 123.13554720000002 722 108.5 Z"/></g><g><path fill="none" stroke="#000000" paint-order="fill stroke markers" d=" M 722 108.5 C 722 93.86445279999998 766.77152 82 822 82 C 877.22848 82 922 93.86445279999998 922 108.5 C 922 123.13554720000002 877.22848 135 822 135 C 766.77152 135 722 123.13554720000002 722 108.5 Z" stroke-miterlimit="10" stroke-dasharray=""/></g><g><g><path fill="none" stroke="none"/><text fill="#000000" stroke="none" font-family="Arial" font-size="13px" font-style="normal" font-weight="bold" text-decoration="undefined" x="972" y="363" text-anchor="middle" dominant-baseline="central" transform="matrix(1 0 0 1 -150 -260)">UC46.2 - Inserimento</text><text fill="#000000" stroke="none" font-family="Arial" font-size="13px" font-style="normal" font-weight="bold" text-decoration="undefined" x="972" y="376" text-anchor="middle" dominant-baseline="central" transform="matrix(1 0 0 1 -150 -260)">scadenza API key</text></g></g><g><path fill="#C0C0C0" stroke="none" paint-order="stroke fill markers" d=" M 369 299.5 C 369 284.8644528 417.35324160000005 273 477 273 C 536.6467584 273 585 284.8644528 585 299.5 C 585 314.1355472 536.6467584 326 477 326 C 417.35324160000005 326 369 314.1355472 369 299.5 Z" fill-opacity="0.2"/></g><g><path fill="#ffffff" stroke="none" paint-order="stroke fill markers" d=" M 362 292.5 C 362 277.8644528 410.35324160000005 266 470 266 C 529.6467584 266 578 277.8644528 578 292.5 C 578 307.1355472 529.6467584 319 470 319 C 410.35324160000005 319 362 307.1355472 362 292.5 Z"/></g><g><path fill="none" stroke="#000000" paint-order="fill stroke markers" d=" M 362 292.5 C 362 277.8644528 410.35324160000005 266 470 266 C 529.6467584 266 578 277.8644528 578 292.5 C 578 307.1355472 529.6467584 319 470 319 C 410.35324160000005 319 362 307.1355472 362 292.5 Z" stroke-miterlimit="10" stroke-dasharray=""/></g><g><g><path fill="none" stroke="none"/><text fill="#000000" stroke="none" font-family="Arial" font-size="13px" font-style="normal" font-weight="bold" text-decoration="undefined" x="620" y="547" text-anchor="middle" dominant-baseline="central" transform="matrix(1 0 0 1 -150 -260)">UC47 - Nome API key</text><text fill="#000000" stroke="none" font-family="Arial" font-size="13px" font-style="normal" font-weight="bold" text-decoration="undefined" x="620" y="560" text-anchor="middle" dominant-baseline="central" transform="matrix(1 0 0 1 -150 -260)">già utilizzato</text></g></g><g><path fill="#C0C0C0" stroke="none" paint-order="stroke fill markers" d=" M 721 203.5 C 721 188.86445279999998 769.3532416 177 829 177 C 888.6467584 177 937 188.86445279999998 937 203.5 C 937 218.13554720000002 888.6467584 230 829 230 C 769.3532416 230 721 218.13554720000002 721 203.5 Z" fill-opacity="0.2"/></g><g><path fill="#ffffff" stroke="none" paint-order="stroke fill markers" d=" M 714 196.5 C 714 181.86445279999998 762.3532416 170 822 170 C 881.6467584 170 930 181.86445279999998 930 196.5 C 930 211.13554720000002 881.6467584 223 822 223 C 762.3532416 223 714 211.13554720000002 714 196.5 Z"/></g><g><path fill="none" stroke="#000000" paint-order="fill stroke markers" d=" M 714 196.5 C 714 181.86445279999998 762.3532416 170 822 170 C 881.6467584 170 930 181.86445279999998 930 196.5 C 930 211.13554720000002 881.6467584 223 822 223 C 762.3532416 223 714 211.13554720000002 714 196.5 Z" stroke-miterlimit="10" stroke-dasharray=""/></g><g><g><path fill="none" stroke="none"/><text fill="#000000" stroke="none" font-family="Arial" font-size="13px" font-style="normal" font-weight="bold" text-decoration="undefined" x="972" y="451" text-anchor="middle" dominant-baseline="central" transform="matrix(1 0 0 1 -150 -260)">UC48 - Scadenza API</text><text fill="#000000" stroke="none" font-family="Arial" font-size="13px" font-style="normal" font-weight="bold" text-decoration="undefined" x="972" y="464" text-anchor="middle" dominant-baseline="central" transform="matrix(1 0 0 1 -150 -260)">key in data passata</text></g></g><g><path fill="none" stroke="#000000" paint-order="fill stroke markers" d=" M 486 137 L 514 88" stroke-miterlimit="10" stroke-dasharray="3"/></g><g><path fill="none" stroke="#000000" paint-order="fill stroke markers" d=" M 512.6127862085847 98.91217842123683 L 514 88 L 505.30301636196066 94.73516708030883" stroke-miterlimit="10" stroke-dasharray=""/></g><g><rect fill="#ffffff" stroke="none" x="608" y="366" width="55.65625" height="13" transform="matrix(1 0 0 1 -150 -260)"/></g><g><g><path fill="none" stroke="none"/><text fill="#000000" stroke="none" font-family="Arial" font-size="13px" font-style="normal" font-weight="normal" text-decoration="undefined" x="635.828125" y="372.5" text-anchor="middle" dominant-baseline="central" transform="matrix(1 0 0 1 -150 -260)">«include»</text></g></g><g><path fill="none" stroke="#000000" paint-order="fill stroke markers" d=" M 635 138 L 721 124" stroke-miterlimit="10" stroke-dasharray="3"/></g><g><path fill="none" stroke="#000000" paint-order="fill stroke markers" d=" M 711.6457328335065 129.78771852959875 L 721 124 L 710.2929992336634 121.47806927342009" stroke-miterlimit="10" stroke-dasharray=""/></g><g><rect fill="#ffffff" stroke="none" x="775" y="382" width="55.65625" height="13" transform="matrix(1 0 0 1 -150 -260)"/></g><g><g><path fill="none" stroke="none"/><text fill="#000000" stroke="none" font-family="Arial" font-size="13px" font-style="normal" font-weight="normal" text-decoration="undefined" x="802.828125" y="388.5" text-anchor="middle" dominant-baseline="central" transform="matrix(1 0 0 1 -150 -260)">«include»</text></g></g><g><path fill="none" stroke="#000000" paint-order="fill stroke markers" d=" M 713 186 L 635 179" stroke-miterlimit="10" stroke-dasharray="3"/></g><g><path fill="none" stroke="#000000" paint-order="fill stroke markers" d=" M 645.4982608389848 175.71571630996402 L 635 179 L 644.7457306984762 184.10105216134656" stroke-miterlimit="10" stroke-dasharray=""/></g><g><rect fill="#ffffff" stroke="none" x="782" y="446" width="53.49169921875" height="13" transform="matrix(1 0 0 1 -150 -260)"/></g><g><g><path fill="none" stroke="none"/><text fill="#000000" stroke="none" font-family="Arial" font-size="13px" font-style="normal" font-weight="normal" text-decoration="undefined" x="808.745849609375" y="452.5" text-anchor="middle" dominant-baseline="central" transform="matrix(1 0 0 1 -150 -260)">«extend»</text></g></g><g><path fill="none" stroke="#000000" paint-order="fill stroke markers" d=" M 470 265 L 470 192" stroke-miterlimit="10" stroke-dasharray="3"/></g><g><path fill="none" stroke="#000000" paint-order="fill stroke markers" d=" M 474.209517756016 202.16267485762415 L 470 192 L 465.790482243984 202.16267485762415" stroke-miterlimit="10" stroke-dasharray=""/></g><g><rect fill="#ffffff" stroke="none" x="564" y="481" width="53.49169921875" height="13" transform="matrix(1 0 0 1 -150 -260)"/></g><g><g><path fill="none" stroke="none"/><text fill="#000000" stroke="none" font-family="Arial" font-size="13px" font-style="normal" font-weight="normal" text-decoration="undefined" x="590.745849609375" y="487.5" text-anchor="middle" dominant-baseline="central" transform="matrix(1 0 0 1 -150 -260)">«extend»</text></g></g><g><path fill="none" stroke="#000000" paint-order="fill stroke markers" d=" M 305 160 L 119 155" stroke-miterlimit="10" stroke-dasharray=""/></g><g><path fill="#ffffff" stroke="none" paint-order="stroke fill markers" d=" M 186 178 L 295 178 L 305 188 L 305 308 L 186 308 L 186 178"/></g><g><path fill="none" stroke="#000000" paint-order="fill stroke markers" d=" M 186 178 L 295 178 L 305 188 L 305 308 L 186 308 L 186 178 L 186 178" stroke-miterlimit="10" stroke-dasharray=""/></g><g><path fill="none" stroke="#000000" paint-order="fill stroke markers" d=" M 295 178 L 295 188 L 305 188 L 295 178" stroke-miterlimit="10" stroke-dasharray=""/></g><g><g><path fill="none" stroke="none"/><text fill="#000000" stroke="none" font-family="Arial" font-size="13px" font-style="normal" font-weight="normal" text-decoration="undefined" x="396" y="450" text-anchor="middle" dominant-baseline="text-before-edge" transform="matrix(1 0 0 1 -150 -260)">Condizione:</text></g></g><g><g><path fill="none" stroke="none"/><text fill="#000000" stroke="none" font-family="Arial" font-size="13px" font-style="normal" font-weight="normal" text-decoration="undefined" x="396" y="465" text-anchor="middle" dominant-baseline="text-before-edge" transform="matrix(1 0 0 1 -150 -260)">L'utente ha inserito</text><text fill="#000000" stroke="none" font-family="Arial" font-size="13px" font-style="normal" font-weight="normal" text-decoration="undefined" x="396" y="478" text-anchor="middle" dominant-baseline="text-before-edge" transform="matrix(1 0 0 1 -150 -260)">un nome per l'API</text><text fill="#000000" stroke="none" font-family="Arial" font-size="13px" font-style="normal" font-weight="normal" text-decoration="undefined" x="396" y="491" text-anchor="middle" dominant-baseline="text-before-edge" transform="matrix(1 0 0 1 -150 -260)">key già associato</text><text fill="#000000" stroke="none" font-family="Arial" font-size="13px" font-style="normal" font-weight="normal" text-decoration="undefined" x="396" y="504" text-anchor="middle" dominant-baseline="text-before-edge" transform="matrix(1 0 0 1 -150 -260)">ad un'altra API key</text><text fill="#000000" stroke="none" font-family="Arial" font-size="13px" font-style="normal" font-weight="normal" text-decoration="undefined" x="396" y="517" text-anchor="middle" dominant-baseline="text-before-edge" transform="matrix(1 0 0 1 -150 -260)">all'interno del</text><text fill="#000000" stroke="none" font-family="Arial" font-size="13px" font-style="normal" font-weight="normal" text-decoration="undefined" x="396" y="530" text-anchor="middle" dominant-baseline="text-before-edge" transform="matrix(1 0 0 1 -150 -260)">tenant</text></g></g><g><path fill="none" stroke="#000000" paint-order="fill stroke markers" d=" M 307 239 L 470 228" stroke-miterlimit="10" stroke-dasharray="3"/></g><g><path fill="#ffffff" stroke="none" paint-order="stroke fill markers" d=" M 626 242 L 735 242 L 745 252 L 745 372 L 626 372 L 626 242"/></g><g><path fill="none" stroke="#000000" paint-order="fill stroke markers" d=" M 626 242 L 735 242 L 745 252 L 745 372 L 626 372 L 626 242 L 626 242" stroke-miterlimit="10" stroke-dasharray=""/></g><g><path fill="none" stroke="#000000" paint-order="fill stroke markers" d=" M 735 242 L 735 252 L 745 252 L 735 242" stroke-miterlimit="10" stroke-dasharray=""/></g><g><g><path fill="none" stroke="none"/><text fill="#000000" stroke="none" font-family="Arial" font-size="13px" font-style="normal" font-weight="normal" text-decoration="undefined" x="836" y="527" text-anchor="middle" dominant-baseline="text-before-edge" transform="matrix(1 0 0 1 -150 -260)">Condizione:</text></g></g><g><g><path fill="none" stroke="none"/><text fill="#000000" stroke="none" font-family="Arial" font-size="13px" font-style="normal" font-weight="normal" text-decoration="undefined" x="836" y="542" text-anchor="middle" dominant-baseline="text-before-edge" transform="matrix(1 0 0 1 -150 -260)">L'utente ha inserito</text><text fill="#000000" stroke="none" font-family="Arial" font-size="13px" font-style="normal" font-weight="normal" text-decoration="undefined" x="836" y="555" text-anchor="middle" dominant-baseline="text-before-edge" transform="matrix(1 0 0 1 -150 -260)">una data di</text><text fill="#000000" stroke="none" font-family="Arial" font-size="13px" font-style="normal" font-weight="normal" text-decoration="undefined" x="836" y="568" text-anchor="middle" dominant-baseline="text-before-edge" transform="matrix(1 0 0 1 -150 -260)">scadenza passata</text><text fill="#000000" stroke="none" font-family="Arial" font-size="13px" font-style="normal" font-weight="normal" text-decoration="undefined" x="836" y="581" text-anchor="middle" dominant-baseline="text-before-edge" transform="matrix(1 0 0 1 -150 -260)">per l'API key </text></g></g><g><path fill="none" stroke="#000000" paint-order="fill stroke markers" d=" M 680 241 L 674 182" stroke-miterlimit="10" stroke-dasharray="3"/></g></g></svg>