<svg version="1.1" xmlns="http://www.w3.org/2000/svg" xmlns:xlink="http://www.w3.org/1999/xlink" width="1084" height="316"><defs/><g><g><rect fill="#C0C0C0" stroke="none" x="319" y="321" width="843" height="296" transform="matrix(1 0 0 1 -86 -304)" fill-opacity="0.2"/></g><g><rect fill="#ffffff" stroke="none" x="312" y="314" width="843" height="296" transform="matrix(1 0 0 1 -86 -304)"/></g><g><path fill="none" stroke="#000000" paint-order="fill stroke markers" d=" M 226 10 L 1069 10 L 1069 306 L 226 306 L 226 10 Z Z" stroke-miterlimit="10" stroke-dasharray=""/></g><g><g><path fill="none" stroke="none"/><text fill="#000000" stroke="none" font-family="Arial" font-size="13px" font-style="normal" font-weight="bold" text-decoration="undefined" x="734" y="327.5" text-anchor="middle" dominant-baseline="central" transform="matrix(1 0 0 1 -86 -304)">Sistema Cloud</text></g></g><g><path fill="#ffffff" stroke="none" paint-order="stroke fill markers" d=" M 55.2781640625 126.85000000000002 C 55.2781640625 121.96227952000004 59.235966430499985 118 64.1181640625 118 C 69.00036169450001 118 72.9581640625 121.96227952000004 72.9581640625 126.85000000000002 C 72.9581640625 131.73772048 69.00036169450001 135.7 64.1181640625 135.7 C 59.235966430499985 135.7 55.2781640625 131.73772048 55.2781640625 126.85000000000002 Z"/></g><g><path fill="none" stroke="#000000" paint-order="fill stroke markers" d=" M 55.2781640625 126.85000000000002 C 55.2781640625 121.96227952000004 59.235966430499985 118 64.1181640625 118 C 69.00036169450001 118 72.9581640625 121.96227952000004 72.9581640625 126.85000000000002 C 72.9581640625 131.73772048 69.00036169450001 135.7 64.1181640625 135.7 C 59.235966430499985 135.7 55.2781640625 131.73772048 55.2781640625 126.85000000000002 Z" stroke-miterlimit="10" stroke-dasharray=""/></g><g><path fill="none" stroke="#000000" paint-order="fill stroke markers" d=" M 64.1181640625 135.7 L 64.1181640625 153.3" stroke-miterlimit="10" stroke-dasharray=""/></g><g><path fill="none" stroke="#000000" paint-order="fill stroke markers" d=" M 54.758164062499986 142.3 L 73.47816406250001 142.3" stroke-miterlimit="10" stroke-dasharray=""/></g><g><path fill="none" stroke="#000000" paint-order="fill stroke markers" d=" M 64.1181640625 153.3 L 51.1181640625 171" stroke-miterlimit="10" stroke-dasharray=""/></g><g><path fill="none" stroke="#000000" paint-order="fill stroke markers" d=" M 64.1181640625 153.3 L 77.1181640625 171" stroke-miterlimit="10" stroke-dasharray=""/></g><g><g><path fill="none" stroke="none"/><text fill="#000000" stroke="none" font-family="Arial" font-size="13px" font-style="normal" font-weight="bold" text-decoration="undefined" x="150.6181640625" y="489.5" text-anchor="middle" dominant-baseline="central" transform="matrix(1 0 0 1 -86 -304)">Admin generico</text></g></g><g><path fill="#C0C0C0" stroke="none" paint-order="stroke fill markers" d=" M 257 176 C 257 156.1177472 335.7978752 140 433 140 C 530.2021248 140 609 156.1177472 609 176 C 609 195.8822528 530.2021248 212 433 212 C 335.7978752 212 257 195.8822528 257 176 Z" fill-opacity="0.2"/></g><g><path fill="#ffffff" stroke="none" paint-order="stroke fill markers" d=" M 250 169 C 250 149.1177472 328.7978752 133 426 133 C 523.2021248 133 602 149.1177472 602 169 C 602 188.8822528 523.2021248 205 426 205 C 328.7978752 205 250 188.8822528 250 169 Z"/></g><g><path fill="none" stroke="#000000" paint-order="fill stroke markers" d=" M 250 169 C 250 149.1177472 328.7978752 133 426 133 C 523.2021248 133 602 149.1177472 602 169 C 602 188.8822528 523.2021248 205 426 205 C 328.7978752 205 250 188.8822528 250 169 Z" stroke-miterlimit="10" stroke-dasharray=""/></g><g><g><path fill="none" stroke="none"/><text fill="#000000" stroke="none" font-family="Arial" font-size="13px" font-style="normal" font-weight="bold" text-decoration="undefined" x="512" y="461" text-anchor="middle" dominant-baseline="central" transform="matrix(1 0 0 1 -86 -304)">UC47 - Visualizza singolo sensore</text><text fill="#000000" stroke="none" font-family="Arial" font-size="13px" font-style="normal" font-weight="bold" text-decoration="undefined" x="512" y="474" text-anchor="middle" dominant-baseline="central" transform="matrix(1 0 0 1 -86 -304)">collegato al gateway associato al</text><text fill="#000000" stroke="none" font-family="Arial" font-size="13px" font-style="normal" font-weight="bold" text-decoration="undefined" x="512" y="487" text-anchor="middle" dominant-baseline="central" transform="matrix(1 0 0 1 -86 -304)">tenant in lista</text></g></g><g><path fill="#C0C0C0" stroke="none" paint-order="stroke fill markers" d=" M 721 168 C 721 148.1177472 801.588736 132 901 132 C 1000.4112640000001 132 1081 148.1177472 1081 168 C 1081 187.8822528 1000.4112640000001 204 901 204 C 801.588736 204 721 187.8822528 721 168 Z" fill-opacity="0.2"/></g><g><path fill="#ffffff" stroke="none" paint-order="stroke fill markers" d=" M 714 161 C 714 141.1177472 794.588736 125 894 125 C 993.4112640000001 125 1074 141.1177472 1074 161 C 1074 180.8822528 993.4112640000001 197 894 197 C 794.588736 197 714 180.8822528 714 161 Z"/></g><g><path fill="none" stroke="#000000" paint-order="fill stroke markers" d=" M 714 161 C 714 141.1177472 794.588736 125 894 125 C 993.4112640000001 125 1074 141.1177472 1074 161 C 1074 180.8822528 993.4112640000001 197 894 197 C 794.588736 197 714 180.8822528 714 161 Z" stroke-miterlimit="10" stroke-dasharray=""/></g><g><g><path fill="none" stroke="none"/><text fill="#000000" stroke="none" font-family="Arial" font-size="13px" font-style="normal" font-weight="bold" text-decoration="undefined" x="980" y="453" text-anchor="middle" dominant-baseline="central" transform="matrix(1 0 0 1 -86 -304)">UC47.1 - Visualizzazione identificativo</text><text fill="#000000" stroke="none" font-family="Arial" font-size="13px" font-style="normal" font-weight="bold" text-decoration="undefined" x="980" y="466" text-anchor="middle" dominant-baseline="central" transform="matrix(1 0 0 1 -86 -304)">sensore collegato al gateway associato</text><text fill="#000000" stroke="none" font-family="Arial" font-size="13px" font-style="normal" font-weight="bold" text-decoration="undefined" x="980" y="479" text-anchor="middle" dominant-baseline="central" transform="matrix(1 0 0 1 -86 -304)">a tenant in lista</text></g></g><g><path fill="none" stroke="#000000" paint-order="fill stroke markers" d=" M 603 166 L 713 164" stroke-miterlimit="10" stroke-dasharray="3"/></g><g><path fill="none" stroke="#000000" paint-order="fill stroke markers" d=" M 702.9155285459009 168.39356751301938 L 713 164 L 702.7624804680675 159.97592323218123" stroke-miterlimit="10" stroke-dasharray=""/></g><g><rect fill="#ffffff" stroke="none" x="711" y="452" width="55.65625" height="13" transform="matrix(1 0 0 1 -86 -304)"/></g><g><g><path fill="none" stroke="none"/><text fill="#000000" stroke="none" font-family="Arial" font-size="13px" font-style="normal" font-weight="normal" text-decoration="undefined" x="738.828125" y="458.5" text-anchor="middle" dominant-baseline="central" transform="matrix(1 0 0 1 -86 -304)">«include»</text></g></g><g><path fill="none" stroke="#000000" paint-order="fill stroke markers" d=" M 249 163 L 119 159" stroke-miterlimit="10" stroke-dasharray=""/></g></g></svg>