<svg version="1.1" xmlns="http://www.w3.org/2000/svg" xmlns:xlink="http://www.w3.org/1999/xlink" width="941" height="220"><defs/><g><g><rect fill="#C0C0C0" stroke="none" x="697" y="574" width="752" height="200" transform="matrix(1 0 0 1 -512 -557)" fill-opacity="0.2"/></g><g><rect fill="#ffffff" stroke="none" x="690" y="567" width="752" height="200" transform="matrix(1 0 0 1 -512 -557)"/></g><g><path fill="none" stroke="#000000" paint-order="fill stroke markers" d=" M 178 10 L 930 10 L 930 210 L 178 210 L 178 10 Z Z" stroke-miterlimit="10" stroke-dasharray=""/></g><g><g><path fill="none" stroke="none"/><text fill="#000000" stroke="none" font-family="Arial" font-size="13px" font-style="normal" font-weight="bold" text-decoration="undefined" x="1066.5" y="580.5" text-anchor="middle" dominant-baseline="central" transform="matrix(1 0 0 1 -512 -557)">Dashboard admin</text></g></g><g><path fill="#ffffff" stroke="none" paint-order="stroke fill markers" d=" M 55.27816406249997 83.85000000000002 C 55.27816406249997 78.96227952000004 59.23596643049996 75 64.1181640625 75 C 69.00036169450004 75 72.95816406250003 78.96227952000004 72.95816406250003 83.85000000000002 C 72.95816406250003 88.73772048000001 69.00036169450004 92.70000000000005 64.1181640625 92.70000000000005 C 59.23596643049996 92.70000000000005 55.27816406249997 88.73772048000001 55.27816406249997 83.85000000000002 Z"/></g><g><path fill="none" stroke="#000000" paint-order="fill stroke markers" d=" M 55.27816406249997 83.85000000000002 C 55.27816406249997 78.96227952000004 59.23596643049996 75 64.1181640625 75 C 69.00036169450004 75 72.95816406250003 78.96227952000004 72.95816406250003 83.85000000000002 C 72.95816406250003 88.73772048000001 69.00036169450004 92.70000000000005 64.1181640625 92.70000000000005 C 59.23596643049996 92.70000000000005 55.27816406249997 88.73772048000001 55.27816406249997 83.85000000000002 Z" stroke-miterlimit="10" stroke-dasharray=""/></g><g><path fill="none" stroke="#000000" paint-order="fill stroke markers" d=" M 64.1181640625 92.70000000000005 L 64.1181640625 110.29999999999995" stroke-miterlimit="10" stroke-dasharray=""/></g><g><path fill="none" stroke="#000000" paint-order="fill stroke markers" d=" M 54.758164062499986 99.29999999999995 L 73.47816406250001 99.29999999999995" stroke-miterlimit="10" stroke-dasharray=""/></g><g><path fill="none" stroke="#000000" paint-order="fill stroke markers" d=" M 64.1181640625 110.29999999999995 L 51.1181640625 128" stroke-miterlimit="10" stroke-dasharray=""/></g><g><path fill="none" stroke="#000000" paint-order="fill stroke markers" d=" M 64.1181640625 110.29999999999995 L 77.1181640625 128" stroke-miterlimit="10" stroke-dasharray=""/></g><g><g><path fill="none" stroke="none"/><text fill="#000000" stroke="none" font-family="Arial" font-size="13px" font-style="normal" font-weight="bold" text-decoration="undefined" x="576.6181640625" y="699.5" text-anchor="middle" dominant-baseline="central" transform="matrix(1 0 0 1 -512 -557)">Admin generico</text></g></g><g><path fill="#C0C0C0" stroke="none" paint-order="stroke fill markers" d=" M 217 117 C 217 97.11774720000005 283.03799200000003 81 364.5 81 C 445.96200799999997 81 512 97.11774720000005 512 117 C 512 136.88225279999995 445.96200799999997 153 364.5 153 C 283.03799200000003 153 217 136.88225279999995 217 117 Z" fill-opacity="0.2"/></g><g><path fill="#ffffff" stroke="none" paint-order="stroke fill markers" d=" M 210 110 C 210 90.11774720000005 276.03799200000003 74 357.5 74 C 438.96200799999997 74 505 90.11774720000005 505 110 C 505 129.88225279999995 438.96200799999997 146 357.5 146 C 276.03799200000003 146 210 129.88225279999995 210 110 Z"/></g><g><path fill="none" stroke="#000000" paint-order="fill stroke markers" d=" M 210 110 C 210 90.11774720000005 276.03799200000003 74 357.5 74 C 438.96200799999997 74 505 90.11774720000005 505 110 C 505 129.88225279999995 438.96200799999997 146 357.5 146 C 276.03799200000003 146 210 129.88225279999995 210 110 Z" stroke-miterlimit="10" stroke-dasharray=""/></g><g><g><path fill="none" stroke="none"/><text fill="#000000" stroke="none" font-family="Arial" font-size="13px" font-style="normal" font-weight="bold" text-decoration="undefined" x="869.5" y="655" text-anchor="middle" dominant-baseline="central" transform="matrix(1 0 0 1 -512 -557)">UC47 - Visualizza singolo</text><text fill="#000000" stroke="none" font-family="Arial" font-size="13px" font-style="normal" font-weight="bold" text-decoration="undefined" x="869.5" y="668" text-anchor="middle" dominant-baseline="central" transform="matrix(1 0 0 1 -512 -557)">sensore collegato al gateway</text><text fill="#000000" stroke="none" font-family="Arial" font-size="13px" font-style="normal" font-weight="bold" text-decoration="undefined" x="869.5" y="681" text-anchor="middle" dominant-baseline="central" transform="matrix(1 0 0 1 -512 -557)">associato al tenant in lista</text></g></g><g><path fill="none" stroke="#000000" paint-order="fill stroke markers" d=" M 506 110 L 585 111" stroke-miterlimit="10" stroke-dasharray="3"/></g><g><path fill="none" stroke="#000000" paint-order="fill stroke markers" d=" M 574.7848584645135 115.08054940050715 L 585 111 L 574.8914199974117 106.66218830154253" stroke-miterlimit="10" stroke-dasharray=""/></g><g><rect fill="#ffffff" stroke="none" x="1030" y="631" width="55.65625" height="13" transform="matrix(1 0 0 1 -512 -557)"/></g><g><g><path fill="none" stroke="none"/><text fill="#000000" stroke="none" font-family="Arial" font-size="13px" font-style="normal" font-weight="normal" text-decoration="undefined" x="1057.828125" y="637.5" text-anchor="middle" dominant-baseline="central" transform="matrix(1 0 0 1 -512 -557)">«include»</text></g></g><g><path fill="none" stroke="#000000" paint-order="fill stroke markers" d=" M 209 112 L 119 113" stroke-miterlimit="10" stroke-dasharray=""/></g><g><path fill="#C0C0C0" stroke="none" paint-order="stroke fill markers" d=" M 593 118 C 593 93.14718400000004 662.8435712 73 749 73 C 835.1564288 73 905 93.14718400000004 905 118 C 905 142.85281599999996 835.1564288 163 749 163 C 662.8435712 163 593 142.85281599999996 593 118 Z" fill-opacity="0.2"/></g><g><path fill="#ffffff" stroke="none" paint-order="stroke fill markers" d=" M 586 111 C 586 86.14718400000004 655.8435712 66 742 66 C 828.1564288 66 898 86.14718400000004 898 111 C 898 135.85281599999996 828.1564288 156 742 156 C 655.8435712 156 586 135.85281599999996 586 111 Z"/></g><g><path fill="none" stroke="#000000" paint-order="fill stroke markers" d=" M 586 111 C 586 86.14718400000004 655.8435712 66 742 66 C 828.1564288 66 898 86.14718400000004 898 111 C 898 135.85281599999996 828.1564288 156 742 156 C 655.8435712 156 586 135.85281599999996 586 111 Z" stroke-miterlimit="10" stroke-dasharray=""/></g><g><g><path fill="none" stroke="none"/><text fill="#000000" stroke="none" font-family="Arial" font-size="13px" font-style="normal" font-weight="bold" text-decoration="undefined" x="1254" y="649.5" text-anchor="middle" dominant-baseline="central" transform="matrix(1 0 0 1 -512 -557)">UC47.1 - Visualizzazione</text><text fill="#000000" stroke="none" font-family="Arial" font-size="13px" font-style="normal" font-weight="bold" text-decoration="undefined" x="1254" y="662.5" text-anchor="middle" dominant-baseline="central" transform="matrix(1 0 0 1 -512 -557)">identificativo sensore collegato al</text><text fill="#000000" stroke="none" font-family="Arial" font-size="13px" font-style="normal" font-weight="bold" text-decoration="undefined" x="1254" y="675.5" text-anchor="middle" dominant-baseline="central" transform="matrix(1 0 0 1 -512 -557)">gateway associato a tenant in</text><text fill="#000000" stroke="none" font-family="Arial" font-size="13px" font-style="normal" font-weight="bold" text-decoration="undefined" x="1254" y="688.5" text-anchor="middle" dominant-baseline="central" transform="matrix(1 0 0 1 -512 -557)">lista</text></g></g></g></svg>