<svg version="1.1" xmlns="http://www.w3.org/2000/svg" xmlns:xlink="http://www.w3.org/1999/xlink" width="1084" height="108"><defs/><g><g><path fill="#ffffff" stroke="none" paint-order="stroke fill markers" d=" M 55.2781640625 19.850000000000023 C 55.2781640625 14.962279520000038 59.235966430499985 11 64.1181640625 11 C 69.00036169450001 11 72.9581640625 14.962279520000038 72.9581640625 19.850000000000023 C 72.9581640625 24.737720480000007 69.00036169450001 28.700000000000045 64.1181640625 28.700000000000045 C 59.235966430499985 28.700000000000045 55.2781640625 24.737720480000007 55.2781640625 19.850000000000023 Z"/></g><g><path fill="none" stroke="#000000" paint-order="fill stroke markers" d=" M 55.2781640625 19.850000000000023 C 55.2781640625 14.962279520000038 59.235966430499985 11 64.1181640625 11 C 69.00036169450001 11 72.9581640625 14.962279520000038 72.9581640625 19.850000000000023 C 72.9581640625 24.737720480000007 69.00036169450001 28.700000000000045 64.1181640625 28.700000000000045 C 59.235966430499985 28.700000000000045 55.2781640625 24.737720480000007 55.2781640625 19.850000000000023 Z" stroke-miterlimit="10" stroke-dasharray=""/></g><g><path fill="none" stroke="#000000" paint-order="fill stroke markers" d=" M 64.1181640625 28.700000000000045 L 64.1181640625 46.299999999999955" stroke-miterlimit="10" stroke-dasharray=""/></g><g><path fill="none" stroke="#000000" paint-order="fill stroke markers" d=" M 54.758164062499986 35.299999999999955 L 73.47816406250001 35.299999999999955" stroke-miterlimit="10" stroke-dasharray=""/></g><g><path fill="none" stroke="#000000" paint-order="fill stroke markers" d=" M 64.1181640625 46.299999999999955 L 51.1181640625 64" stroke-miterlimit="10" stroke-dasharray=""/></g><g><path fill="none" stroke="#000000" paint-order="fill stroke markers" d=" M 64.1181640625 46.299999999999955 L 77.1181640625 64" stroke-miterlimit="10" stroke-dasharray=""/></g><g><g><path fill="none" stroke="none"/><text fill="#000000" stroke="none" font-family="Arial" font-size="13px" font-style="normal" font-weight="bold" text-decoration="undefined" x="171.6181640625" y="631.5" text-anchor="middle" dominant-baseline="central" transform="matrix(1 0 0 1 -107 -553)">Admin generico</text></g></g><g><path fill="#C0C0C0" stroke="none" paint-order="stroke fill markers" d=" M 257 69 C 257 49.11774720000005 335.7978752 33 433 33 C 530.2021248 33 609 49.11774720000005 609 69 C 609 88.88225279999995 530.2021248 105 433 105 C 335.7978752 105 257 88.88225279999995 257 69 Z" fill-opacity="0.2"/></g><g><path fill="#ffffff" stroke="none" paint-order="stroke fill markers" d=" M 250 62 C 250 42.11774720000005 328.7978752 26 426 26 C 523.2021248 26 602 42.11774720000005 602 62 C 602 81.88225279999995 523.2021248 98 426 98 C 328.7978752 98 250 81.88225279999995 250 62 Z"/></g><g><path fill="none" stroke="#000000" paint-order="fill stroke markers" d=" M 250 62 C 250 42.11774720000005 328.7978752 26 426 26 C 523.2021248 26 602 42.11774720000005 602 62 C 602 81.88225279999995 523.2021248 98 426 98 C 328.7978752 98 250 81.88225279999995 250 62 Z" stroke-miterlimit="10" stroke-dasharray=""/></g><g><g><path fill="none" stroke="none"/><text fill="#000000" stroke="none" font-family="Arial" font-size="13px" font-style="normal" font-weight="bold" text-decoration="undefined" x="533" y="603" text-anchor="middle" dominant-baseline="central" transform="matrix(1 0 0 1 -107 -553)">UC47 - Visualizza singolo sensore</text><text fill="#000000" stroke="none" font-family="Arial" font-size="13px" font-style="normal" font-weight="bold" text-decoration="undefined" x="533" y="616" text-anchor="middle" dominant-baseline="central" transform="matrix(1 0 0 1 -107 -553)">collegato al gateway associato al</text><text fill="#000000" stroke="none" font-family="Arial" font-size="13px" font-style="normal" font-weight="bold" text-decoration="undefined" x="533" y="629" text-anchor="middle" dominant-baseline="central" transform="matrix(1 0 0 1 -107 -553)">tenant in lista</text></g></g><g><path fill="#C0C0C0" stroke="none" paint-order="stroke fill markers" d=" M 721 61 C 721 41.11774720000005 801.588736 25 901 25 C 1000.4112640000001 25 1081 41.11774720000005 1081 61 C 1081 80.88225279999995 1000.4112640000001 97 901 97 C 801.588736 97 721 80.88225279999995 721 61 Z" fill-opacity="0.2"/></g><g><path fill="#ffffff" stroke="none" paint-order="stroke fill markers" d=" M 714 54 C 714 34.11774720000005 794.588736 18 894 18 C 993.4112640000001 18 1074 34.11774720000005 1074 54 C 1074 73.88225279999995 993.4112640000001 90 894 90 C 794.588736 90 714 73.88225279999995 714 54 Z"/></g><g><path fill="none" stroke="#000000" paint-order="fill stroke markers" d=" M 714 54 C 714 34.11774720000005 794.588736 18 894 18 C 993.4112640000001 18 1074 34.11774720000005 1074 54 C 1074 73.88225279999995 993.4112640000001 90 894 90 C 794.588736 90 714 73.88225279999995 714 54 Z" stroke-miterlimit="10" stroke-dasharray=""/></g><g><g><path fill="none" stroke="none"/><text fill="#000000" stroke="none" font-family="Arial" font-size="13px" font-style="normal" font-weight="bold" text-decoration="undefined" x="1001" y="595" text-anchor="middle" dominant-baseline="central" transform="matrix(1 0 0 1 -107 -553)">UC47.1 - Visualizzazione identificativo</text><text fill="#000000" stroke="none" font-family="Arial" font-size="13px" font-style="normal" font-weight="bold" text-decoration="undefined" x="1001" y="608" text-anchor="middle" dominant-baseline="central" transform="matrix(1 0 0 1 -107 -553)">sensore collegato al gateway associato</text><text fill="#000000" stroke="none" font-family="Arial" font-size="13px" font-style="normal" font-weight="bold" text-decoration="undefined" x="1001" y="621" text-anchor="middle" dominant-baseline="central" transform="matrix(1 0 0 1 -107 -553)">a tenant in lista</text></g></g><g><path fill="none" stroke="#000000" paint-order="fill stroke markers" d=" M 603 59 L 713 57" stroke-miterlimit="10" stroke-dasharray="3"/></g><g><path fill="none" stroke="#000000" paint-order="fill stroke markers" d=" M 702.9155285459009 61.39356751301932 L 713 57 L 702.7624804680675 52.97592323218123" stroke-miterlimit="10" stroke-dasharray=""/></g><g><rect fill="#ffffff" stroke="none" x="732" y="594" width="55.65625" height="13" transform="matrix(1 0 0 1 -107 -553)"/></g><g><g><path fill="none" stroke="none"/><text fill="#000000" stroke="none" font-family="Arial" font-size="13px" font-style="normal" font-weight="normal" text-decoration="undefined" x="759.828125" y="600.5" text-anchor="middle" dominant-baseline="central" transform="matrix(1 0 0 1 -107 -553)">«include»</text></g></g><g><path fill="none" stroke="#000000" paint-order="fill stroke markers" d=" M 249 56 L 119 52" stroke-miterlimit="10" stroke-dasharray=""/></g></g></svg>