<svg version="1.1" xmlns="http://www.w3.org/2000/svg" xmlns:xlink="http://www.w3.org/1999/xlink" width="1080" height="316"><defs/><g><g><rect fill="#C0C0C0" stroke="none" x="314" y="312" width="843" height="296" transform="matrix(1 0 0 1 -81 -295)" fill-opacity="0.2"/></g><g><rect fill="#ffffff" stroke="none" x="307" y="305" width="843" height="296" transform="matrix(1 0 0 1 -81 -295)"/></g><g><path fill="none" stroke="#000000" paint-order="fill stroke markers" d=" M 226 10 L 1069 10 L 1069 306 L 226 306 L 226 10 Z Z" stroke-miterlimit="10" stroke-dasharray=""/></g><g><g><path fill="none" stroke="none"/><text fill="#000000" stroke="none" font-family="Arial" font-size="13px" font-style="normal" font-weight="bold" text-decoration="undefined" x="729" y="318.5" text-anchor="middle" dominant-baseline="central" transform="matrix(1 0 0 1 -81 -295)">sistema cloud</text></g></g><g><path fill="#ffffff" stroke="none" paint-order="stroke fill markers" d=" M 55.2781640625 126.85000000000002 C 55.2781640625 121.96227952000004 59.235966430499985 118 64.1181640625 118 C 69.00036169450001 118 72.9581640625 121.96227952000004 72.9581640625 126.85000000000002 C 72.9581640625 131.73772048 69.00036169450001 135.7 64.1181640625 135.7 C 59.235966430499985 135.7 55.2781640625 131.73772048 55.2781640625 126.85000000000002 Z"/></g><g><path fill="none" stroke="#000000" paint-order="fill stroke markers" d=" M 55.2781640625 126.85000000000002 C 55.2781640625 121.96227952000004 59.235966430499985 118 64.1181640625 118 C 69.00036169450001 118 72.9581640625 121.96227952000004 72.9581640625 126.85000000000002 C 72.9581640625 131.73772048 69.00036169450001 135.7 64.1181640625 135.7 C 59.235966430499985 135.7 55.2781640625 131.73772048 55.2781640625 126.85000000000002 Z" stroke-miterlimit="10" stroke-dasharray=""/></g><g><path fill="none" stroke="#000000" paint-order="fill stroke markers" d=" M 64.1181640625 135.7 L 64.1181640625 153.3" stroke-miterlimit="10" stroke-dasharray=""/></g><g><path fill="none" stroke="#000000" paint-order="fill stroke markers" d=" M 54.758164062499986 142.3 L 73.47816406250001 142.3" stroke-miterlimit="10" stroke-dasharray=""/></g><g><path fill="none" stroke="#000000" paint-order="fill stroke markers" d=" M 64.1181640625 153.3 L 51.1181640625 171" stroke-miterlimit="10" stroke-dasharray=""/></g><g><path fill="none" stroke="#000000" paint-order="fill stroke markers" d=" M 64.1181640625 153.3 L 77.1181640625 171" stroke-miterlimit="10" stroke-dasharray=""/></g><g><g><path fill="none" stroke="none"/><text fill="#000000" stroke="none" font-family="Arial" font-size="13px" font-style="normal" font-weight="bold" text-decoration="undefined" x="145.6181640625" y="480.5" text-anchor="middle" dominant-baseline="central" transform="matrix(1 0 0 1 -81 -295)">Admin generico</text></g></g><g><path fill="#C0C0C0" stroke="none" paint-order="stroke fill markers" d=" M 257 176 C 257 156.1177472 335.7978752 140 433 140 C 530.2021248 140 609 156.1177472 609 176 C 609 195.8822528 530.2021248 212 433 212 C 335.7978752 212 257 195.8822528 257 176 Z" fill-opacity="0.2"/></g><g><path fill="#ffffff" stroke="none" paint-order="stroke fill markers" d=" M 250 169 C 250 149.1177472 328.7978752 133 426 133 C 523.2021248 133 602 149.1177472 602 169 C 602 188.8822528 523.2021248 205 426 205 C 328.7978752 205 250 188.8822528 250 169 Z"/></g><g><path fill="none" stroke="#000000" paint-order="fill stroke markers" d=" M 250 169 C 250 149.1177472 328.7978752 133 426 133 C 523.2021248 133 602 149.1177472 602 169 C 602 188.8822528 523.2021248 205 426 205 C 328.7978752 205 250 188.8822528 250 169 Z" stroke-miterlimit="10" stroke-dasharray=""/></g><g><g><path fill="none" stroke="none"/><text fill="#000000" stroke="none" font-family="Arial" font-size="13px" font-style="normal" font-weight="bold" text-decoration="undefined" x="507" y="452" text-anchor="middle" dominant-baseline="central" transform="matrix(1 0 0 1 -81 -295)">UC47 - Visualizza singolo sensore</text><text fill="#000000" stroke="none" font-family="Arial" font-size="13px" font-style="normal" font-weight="bold" text-decoration="undefined" x="507" y="465" text-anchor="middle" dominant-baseline="central" transform="matrix(1 0 0 1 -81 -295)">collegato al gateway associato al</text><text fill="#000000" stroke="none" font-family="Arial" font-size="13px" font-style="normal" font-weight="bold" text-decoration="undefined" x="507" y="478" text-anchor="middle" dominant-baseline="central" transform="matrix(1 0 0 1 -81 -295)">tenant in lista</text></g></g><g><path fill="#C0C0C0" stroke="none" paint-order="stroke fill markers" d=" M 721 168 C 721 148.1177472 792.6344320000001 132 881 132 C 969.3655679999999 132 1041 148.1177472 1041 168 C 1041 187.8822528 969.3655679999999 204 881 204 C 792.6344320000001 204 721 187.8822528 721 168 Z" fill-opacity="0.2"/></g><g><path fill="#ffffff" stroke="none" paint-order="stroke fill markers" d=" M 714 161 C 714 141.1177472 785.6344320000001 125 874 125 C 962.3655679999999 125 1034 141.1177472 1034 161 C 1034 180.8822528 962.3655679999999 197 874 197 C 785.6344320000001 197 714 180.8822528 714 161 Z"/></g><g><path fill="none" stroke="#000000" paint-order="fill stroke markers" d=" M 714 161 C 714 141.1177472 785.6344320000001 125 874 125 C 962.3655679999999 125 1034 141.1177472 1034 161 C 1034 180.8822528 962.3655679999999 197 874 197 C 785.6344320000001 197 714 180.8822528 714 161 Z" stroke-miterlimit="10" stroke-dasharray=""/></g><g><g><path fill="none" stroke="none"/><text fill="#000000" stroke="none" font-family="Arial" font-size="13px" font-style="normal" font-weight="bold" text-decoration="undefined" x="955" y="444" text-anchor="middle" dominant-baseline="central" transform="matrix(1 0 0 1 -81 -295)">UC47.1 - Visualizzazione</text><text fill="#000000" stroke="none" font-family="Arial" font-size="13px" font-style="normal" font-weight="bold" text-decoration="undefined" x="955" y="457" text-anchor="middle" dominant-baseline="central" transform="matrix(1 0 0 1 -81 -295)">identificativo sensore collegato al</text><text fill="#000000" stroke="none" font-family="Arial" font-size="13px" font-style="normal" font-weight="bold" text-decoration="undefined" x="955" y="470" text-anchor="middle" dominant-baseline="central" transform="matrix(1 0 0 1 -81 -295)">gateway associato a tenant in lista</text></g></g><g><path fill="none" stroke="#000000" paint-order="fill stroke markers" d=" M 603 166 L 713 164" stroke-miterlimit="10" stroke-dasharray="3"/></g><g><path fill="none" stroke="#000000" paint-order="fill stroke markers" d=" M 702.9155285459009 168.39356751301938 L 713 164 L 702.7624804680675 159.97592323218123" stroke-miterlimit="10" stroke-dasharray=""/></g><g><rect fill="#ffffff" stroke="none" x="706" y="443" width="55.65625" height="13" transform="matrix(1 0 0 1 -81 -295)"/></g><g><g><path fill="none" stroke="none"/><text fill="#000000" stroke="none" font-family="Arial" font-size="13px" font-style="normal" font-weight="normal" text-decoration="undefined" x="733.828125" y="449.5" text-anchor="middle" dominant-baseline="central" transform="matrix(1 0 0 1 -81 -295)">«include»</text></g></g><g><path fill="none" stroke="#000000" paint-order="fill stroke markers" d=" M 249 163 L 119 159" stroke-miterlimit="10" stroke-dasharray=""/></g></g></svg>