<svg version="1.1" xmlns="http://www.w3.org/2000/svg" xmlns:xlink="http://www.w3.org/1999/xlink" width="902" height="436"><defs/><g><g><rect fill="#C0C0C0" stroke="none" x="718" y="466" width="712" height="416" transform="matrix(1 0 0 1 -532 -449)" fill-opacity="0.2"/></g><g><rect fill="#ffffff" stroke="none" x="711" y="459" width="712" height="416" transform="matrix(1 0 0 1 -532 -449)"/></g><g><path fill="none" stroke="#000000" paint-order="fill stroke markers" d=" M 179 10 L 891 10 L 891 426 L 179 426 L 179 10 Z Z" stroke-miterlimit="10" stroke-dasharray=""/></g><g><g><path fill="none" stroke="none"/><text fill="#000000" stroke="none" font-family="Arial" font-size="13px" font-style="normal" font-weight="bold" text-decoration="undefined" x="1067.5" y="472.5" text-anchor="middle" dominant-baseline="central" transform="matrix(1 0 0 1 -532 -449)">Dashboard admin</text></g></g><g><path fill="#ffffff" stroke="none" paint-order="stroke fill markers" d=" M 55.27816406249997 186.85000000000002 C 55.27816406249997 181.96227952000004 59.23596643049996 178 64.1181640625 178 C 69.00036169450004 178 72.95816406250003 181.96227952000004 72.95816406250003 186.85000000000002 C 72.95816406250003 191.73772048 69.00036169450004 195.70000000000005 64.1181640625 195.70000000000005 C 59.23596643049996 195.70000000000005 55.27816406249997 191.73772048 55.27816406249997 186.85000000000002 Z"/></g><g><path fill="none" stroke="#000000" paint-order="fill stroke markers" d=" M 55.27816406249997 186.85000000000002 C 55.27816406249997 181.96227952000004 59.23596643049996 178 64.1181640625 178 C 69.00036169450004 178 72.95816406250003 181.96227952000004 72.95816406250003 186.85000000000002 C 72.95816406250003 191.73772048 69.00036169450004 195.70000000000005 64.1181640625 195.70000000000005 C 59.23596643049996 195.70000000000005 55.27816406249997 191.73772048 55.27816406249997 186.85000000000002 Z" stroke-miterlimit="10" stroke-dasharray=""/></g><g><path fill="none" stroke="#000000" paint-order="fill stroke markers" d=" M 64.1181640625 195.70000000000005 L 64.1181640625 213.29999999999995" stroke-miterlimit="10" stroke-dasharray=""/></g><g><path fill="none" stroke="#000000" paint-order="fill stroke markers" d=" M 54.758164062499986 202.29999999999995 L 73.47816406250001 202.29999999999995" stroke-miterlimit="10" stroke-dasharray=""/></g><g><path fill="none" stroke="#000000" paint-order="fill stroke markers" d=" M 64.1181640625 213.29999999999995 L 51.1181640625 231" stroke-miterlimit="10" stroke-dasharray=""/></g><g><path fill="none" stroke="#000000" paint-order="fill stroke markers" d=" M 64.1181640625 213.29999999999995 L 77.1181640625 231" stroke-miterlimit="10" stroke-dasharray=""/></g><g><g><path fill="none" stroke="none"/><text fill="#000000" stroke="none" font-family="Arial" font-size="13px" font-style="normal" font-weight="bold" text-decoration="undefined" x="596.6181640625" y="694.5" text-anchor="middle" dominant-baseline="central" transform="matrix(1 0 0 1 -532 -449)">Admin generico</text></g></g><g><path fill="#C0C0C0" stroke="none" paint-order="stroke fill markers" d=" M 273 234.5 C 273 219.86445279999998 323.36796000000004 208 385.5 208 C 447.63203999999996 208 498 219.86445279999998 498 234.5 C 498 249.13554720000002 447.63203999999996 261 385.5 261 C 323.36796000000004 261 273 249.13554720000002 273 234.5 Z" fill-opacity="0.2"/></g><g><path fill="#ffffff" stroke="none" paint-order="stroke fill markers" d=" M 266 227.5 C 266 212.86445279999998 316.36796000000004 201 378.5 201 C 440.63203999999996 201 491 212.86445279999998 491 227.5 C 491 242.13554720000002 440.63203999999996 254 378.5 254 C 316.36796000000004 254 266 242.13554720000002 266 227.5 Z"/></g><g><path fill="none" stroke="#000000" paint-order="fill stroke markers" d=" M 266 227.5 C 266 212.86445279999998 316.36796000000004 201 378.5 201 C 440.63203999999996 201 491 212.86445279999998 491 227.5 C 491 242.13554720000002 440.63203999999996 254 378.5 254 C 316.36796000000004 254 266 242.13554720000002 266 227.5 Z" stroke-miterlimit="10" stroke-dasharray=""/></g><g><g><path fill="none" stroke="none"/><text fill="#000000" stroke="none" font-family="Arial" font-size="13px" font-style="normal" font-weight="bold" text-decoration="undefined" x="910.5" y="671" text-anchor="middle" dominant-baseline="central" transform="matrix(1 0 0 1 -532 -449)">UC48 - Registrazione</text><text fill="#000000" stroke="none" font-family="Arial" font-size="13px" font-style="normal" font-weight="bold" text-decoration="undefined" x="910.5" y="684" text-anchor="middle" dominant-baseline="central" transform="matrix(1 0 0 1 -532 -449)">nuova API key</text></g></g><g><path fill="#C0C0C0" stroke="none" paint-order="stroke fill markers" d=" M 321 106.5 C 321 91.86445279999998 369.5770992 80 429.5 80 C 489.4229008 80 538 91.86445279999998 538 106.5 C 538 121.13554720000002 489.4229008 133 429.5 133 C 369.5770992 133 321 121.13554720000002 321 106.5 Z" fill-opacity="0.2"/></g><g><path fill="#ffffff" stroke="none" paint-order="stroke fill markers" d=" M 314 99.5 C 314 84.86445279999998 362.5770992 73 422.5 73 C 482.4229008 73 531 84.86445279999998 531 99.5 C 531 114.13554720000002 482.4229008 126 422.5 126 C 362.5770992 126 314 114.13554720000002 314 99.5 Z"/></g><g><path fill="none" stroke="#000000" paint-order="fill stroke markers" d=" M 314 99.5 C 314 84.86445279999998 362.5770992 73 422.5 73 C 482.4229008 73 531 84.86445279999998 531 99.5 C 531 114.13554720000002 482.4229008 126 422.5 126 C 362.5770992 126 314 114.13554720000002 314 99.5 Z" stroke-miterlimit="10" stroke-dasharray=""/></g><g><g><path fill="none" stroke="none"/><text fill="#000000" stroke="none" font-family="Arial" font-size="13px" font-style="normal" font-weight="bold" text-decoration="undefined" x="954.5" y="543" text-anchor="middle" dominant-baseline="central" transform="matrix(1 0 0 1 -532 -449)">UC48.1 - Inserimento</text><text fill="#000000" stroke="none" font-family="Arial" font-size="13px" font-style="normal" font-weight="bold" text-decoration="undefined" x="954.5" y="556" text-anchor="middle" dominant-baseline="central" transform="matrix(1 0 0 1 -532 -449)">nome API key</text></g></g><g><path fill="#C0C0C0" stroke="none" paint-order="stroke fill markers" d=" M 642 185.5 C 642 163.13246560000005 694.1588208000001 145 758.5 145 C 822.8411791999999 145 875 163.13246560000005 875 185.5 C 875 207.86753439999995 822.8411791999999 226 758.5 226 C 694.1588208000001 226 642 207.86753439999995 642 185.5 Z" fill-opacity="0.2"/></g><g><path fill="#ffffff" stroke="none" paint-order="stroke fill markers" d=" M 635 178.5 C 635 156.13246560000005 687.1588208000001 138 751.5 138 C 815.8411791999999 138 868 156.13246560000005 868 178.5 C 868 200.86753439999995 815.8411791999999 219 751.5 219 C 687.1588208000001 219 635 200.86753439999995 635 178.5 Z"/></g><g><path fill="none" stroke="#000000" paint-order="fill stroke markers" d=" M 635 178.5 C 635 156.13246560000005 687.1588208000001 138 751.5 138 C 815.8411791999999 138 868 156.13246560000005 868 178.5 C 868 200.86753439999995 815.8411791999999 219 751.5 219 C 687.1588208000001 219 635 200.86753439999995 635 178.5 Z" stroke-miterlimit="10" stroke-dasharray=""/></g><g><g><path fill="none" stroke="none"/><text fill="#000000" stroke="none" font-family="Arial" font-size="13px" font-style="normal" font-weight="bold" text-decoration="undefined" x="1283.5" y="622" text-anchor="middle" dominant-baseline="central" transform="matrix(1 0 0 1 -532 -449)">UC48.2 - Inserimento</text><text fill="#000000" stroke="none" font-family="Arial" font-size="13px" font-style="normal" font-weight="bold" text-decoration="undefined" x="1283.5" y="635" text-anchor="middle" dominant-baseline="central" transform="matrix(1 0 0 1 -532 -449)">scadenza API key</text></g></g><g><path fill="#C0C0C0" stroke="none" paint-order="stroke fill markers" d=" M 313 362.5 C 313 347.8644528 357.9953776 336 413.5 336 C 469.0046224 336 514 347.8644528 514 362.5 C 514 377.1355472 469.0046224 389 413.5 389 C 357.9953776 389 313 377.1355472 313 362.5 Z" fill-opacity="0.2"/></g><g><path fill="#ffffff" stroke="none" paint-order="stroke fill markers" d=" M 306 355.5 C 306 340.8644528 350.9953776 329 406.5 329 C 462.0046224 329 507 340.8644528 507 355.5 C 507 370.1355472 462.0046224 382 406.5 382 C 350.9953776 382 306 370.1355472 306 355.5 Z"/></g><g><path fill="none" stroke="#000000" paint-order="fill stroke markers" d=" M 306 355.5 C 306 340.8644528 350.9953776 329 406.5 329 C 462.0046224 329 507 340.8644528 507 355.5 C 507 370.1355472 462.0046224 382 406.5 382 C 350.9953776 382 306 370.1355472 306 355.5 Z" stroke-miterlimit="10" stroke-dasharray=""/></g><g><g><path fill="none" stroke="none"/><text fill="#000000" stroke="none" font-family="Arial" font-size="13px" font-style="normal" font-weight="bold" text-decoration="undefined" x="938.5" y="799" text-anchor="middle" dominant-baseline="central" transform="matrix(1 0 0 1 -532 -449)">UC49 - Nome API key</text><text fill="#000000" stroke="none" font-family="Arial" font-size="13px" font-style="normal" font-weight="bold" text-decoration="undefined" x="938.5" y="812" text-anchor="middle" dominant-baseline="central" transform="matrix(1 0 0 1 -532 -449)">già utilizzato</text></g></g><g><path fill="#C0C0C0" stroke="none" paint-order="stroke fill markers" d=" M 618 307.5 C 618 292.8644528 666.5770992 281 726.5 281 C 786.4229008 281 835 292.8644528 835 307.5 C 835 322.1355472 786.4229008 334 726.5 334 C 666.5770992 334 618 322.1355472 618 307.5 Z" fill-opacity="0.2"/></g><g><path fill="#ffffff" stroke="none" paint-order="stroke fill markers" d=" M 611 300.5 C 611 285.8644528 659.5770992 274 719.5 274 C 779.4229008 274 828 285.8644528 828 300.5 C 828 315.1355472 779.4229008 327 719.5 327 C 659.5770992 327 611 315.1355472 611 300.5 Z"/></g><g><path fill="none" stroke="#000000" paint-order="fill stroke markers" d=" M 611 300.5 C 611 285.8644528 659.5770992 274 719.5 274 C 779.4229008 274 828 285.8644528 828 300.5 C 828 315.1355472 779.4229008 327 719.5 327 C 659.5770992 327 611 315.1355472 611 300.5 Z" stroke-miterlimit="10" stroke-dasharray=""/></g><g><g><path fill="none" stroke="none"/><text fill="#000000" stroke="none" font-family="Arial" font-size="13px" font-style="normal" font-weight="bold" text-decoration="undefined" x="1251.5" y="744" text-anchor="middle" dominant-baseline="central" transform="matrix(1 0 0 1 -532 -449)">UC50 - Scadenza API</text><text fill="#000000" stroke="none" font-family="Arial" font-size="13px" font-style="normal" font-weight="bold" text-decoration="undefined" x="1251.5" y="757" text-anchor="middle" dominant-baseline="central" transform="matrix(1 0 0 1 -532 -449)">key in data passata</text></g></g><g><path fill="none" stroke="#000000" paint-order="fill stroke markers" d=" M 387 200 L 412 127" stroke-miterlimit="10" stroke-dasharray="3"/></g><g><path fill="none" stroke="#000000" paint-order="fill stroke markers" d=" M 412.6898189474214 137.97834913909094 L 412 127 L 404.7249105330279 135.25064077799732" stroke-miterlimit="10" stroke-dasharray=""/></g><g><rect fill="#ffffff" stroke="none" x="875" y="595" width="55.65625" height="13" transform="matrix(1 0 0 1 -532 -449)"/></g><g><g><path fill="none" stroke="none"/><text fill="#000000" stroke="none" font-family="Arial" font-size="13px" font-style="normal" font-weight="normal" text-decoration="undefined" x="902.828125" y="601.5" text-anchor="middle" dominant-baseline="central" transform="matrix(1 0 0 1 -532 -449)">«include»</text></g></g><g><path fill="none" stroke="#000000" paint-order="fill stroke markers" d=" M 492 212 L 634 193" stroke-miterlimit="10" stroke-dasharray="3"/></g><g><path fill="none" stroke="#000000" paint-order="fill stroke markers" d=" M 624.4853638292775 198.52011762001314 L 634 193 L 623.3688236411008 190.17544884521794" stroke-miterlimit="10" stroke-dasharray=""/></g><g><rect fill="#ffffff" stroke="none" x="1043" y="630" width="55.65625" height="13" transform="matrix(1 0 0 1 -532 -449)"/></g><g><g><path fill="none" stroke="none"/><text fill="#000000" stroke="none" font-family="Arial" font-size="13px" font-style="normal" font-weight="normal" text-decoration="undefined" x="1070.828125" y="636.5" text-anchor="middle" dominant-baseline="central" transform="matrix(1 0 0 1 -532 -449)">«include»</text></g></g><g><path fill="none" stroke="#000000" paint-order="fill stroke markers" d=" M 610 277 L 492 251" stroke-miterlimit="10" stroke-dasharray="3"/></g><g><path fill="none" stroke="#000000" paint-order="fill stroke markers" d=" M 502.830407313817 249.07586969858653 L 492 251 L 501.0188200386285 257.2976888705964" stroke-miterlimit="10" stroke-dasharray=""/></g><g><rect fill="#ffffff" stroke="none" x="1040" y="714" width="53.49169921875" height="13" transform="matrix(1 0 0 1 -532 -449)"/></g><g><g><path fill="none" stroke="none"/><text fill="#000000" stroke="none" font-family="Arial" font-size="13px" font-style="normal" font-weight="normal" text-decoration="undefined" x="1066.745849609375" y="720.5" text-anchor="middle" dominant-baseline="central" transform="matrix(1 0 0 1 -532 -449)">«extend»</text></g></g><g><path fill="none" stroke="#000000" paint-order="fill stroke markers" d=" M 400 328 L 384 255" stroke-miterlimit="10" stroke-dasharray="3"/></g><g><path fill="none" stroke="#000000" paint-order="fill stroke markers" d=" M 390.28769739595896 264.02578868890964 L 384 255 L 382.0638770792467 265.8282698542165" stroke-miterlimit="10" stroke-dasharray=""/></g><g><rect fill="#ffffff" stroke="none" x="868" y="740" width="53.49169921875" height="13" transform="matrix(1 0 0 1 -532 -449)"/></g><g><g><path fill="none" stroke="none"/><text fill="#000000" stroke="none" font-family="Arial" font-size="13px" font-style="normal" font-weight="normal" text-decoration="undefined" x="894.745849609375" y="746.5" text-anchor="middle" dominant-baseline="central" transform="matrix(1 0 0 1 -532 -449)">«extend»</text></g></g><g><path fill="none" stroke="#000000" paint-order="fill stroke markers" d=" M 265 223 L 119 219" stroke-miterlimit="10" stroke-dasharray=""/></g></g></svg>