<svg version="1.1" xmlns="http://www.w3.org/2000/svg" xmlns:xlink="http://www.w3.org/1999/xlink" width="981" height="468"><defs/><g><g><rect fill="#C0C0C0" stroke="none" x="695" y="463" width="792" height="448" transform="matrix(1 0 0 1 -510 -446)" fill-opacity="0.2"/></g><g><rect fill="#ffffff" stroke="none" x="688" y="456" width="792" height="448" transform="matrix(1 0 0 1 -510 -446)"/></g><g><path fill="none" stroke="#000000" paint-order="fill stroke markers" d=" M 178 10 L 970 10 L 970 458 L 178 458 L 178 10 Z Z" stroke-miterlimit="10" stroke-dasharray=""/></g><g><g><path fill="none" stroke="none"/><text fill="#000000" stroke="none" font-family="Arial" font-size="13px" font-style="normal" font-weight="bold" text-decoration="undefined" x="1084.5" y="469.5" text-anchor="middle" dominant-baseline="central" transform="matrix(1 0 0 1 -510 -446)">Sistema Cloud</text></g></g><g><path fill="#ffffff" stroke="none" paint-order="stroke fill markers" d=" M 55.27816406249997 171.85000000000002 C 55.27816406249997 166.96227952000004 59.23596643049996 163 64.1181640625 163 C 69.00036169450004 163 72.95816406250003 166.96227952000004 72.95816406250003 171.85000000000002 C 72.95816406250003 176.73772048 69.00036169450004 180.70000000000005 64.1181640625 180.70000000000005 C 59.23596643049996 180.70000000000005 55.27816406249997 176.73772048 55.27816406249997 171.85000000000002 Z"/></g><g><path fill="none" stroke="#000000" paint-order="fill stroke markers" d=" M 55.27816406249997 171.85000000000002 C 55.27816406249997 166.96227952000004 59.23596643049996 163 64.1181640625 163 C 69.00036169450004 163 72.95816406250003 166.96227952000004 72.95816406250003 171.85000000000002 C 72.95816406250003 176.73772048 69.00036169450004 180.70000000000005 64.1181640625 180.70000000000005 C 59.23596643049996 180.70000000000005 55.27816406249997 176.73772048 55.27816406249997 171.85000000000002 Z" stroke-miterlimit="10" stroke-dasharray=""/></g><g><path fill="none" stroke="#000000" paint-order="fill stroke markers" d=" M 64.1181640625 180.70000000000005 L 64.1181640625 198.29999999999995" stroke-miterlimit="10" stroke-dasharray=""/></g><g><path fill="none" stroke="#000000" paint-order="fill stroke markers" d=" M 54.758164062499986 187.29999999999995 L 73.47816406250001 187.29999999999995" stroke-miterlimit="10" stroke-dasharray=""/></g><g><path fill="none" stroke="#000000" paint-order="fill stroke markers" d=" M 64.1181640625 198.29999999999995 L 51.1181640625 216" stroke-miterlimit="10" stroke-dasharray=""/></g><g><path fill="none" stroke="#000000" paint-order="fill stroke markers" d=" M 64.1181640625 198.29999999999995 L 77.1181640625 216" stroke-miterlimit="10" stroke-dasharray=""/></g><g><g><path fill="none" stroke="none"/><text fill="#000000" stroke="none" font-family="Arial" font-size="13px" font-style="normal" font-weight="bold" text-decoration="undefined" x="574.6181640625" y="676.5" text-anchor="middle" dominant-baseline="central" transform="matrix(1 0 0 1 -510 -446)">Admin generico</text></g></g><g><path fill="#C0C0C0" stroke="none" paint-order="stroke fill markers" d=" M 329 219.5 C 329 204.86445279999998 402.42529279999997 193 493 193 C 583.5747071999999 193 657 204.86445279999998 657 219.5 C 657 234.13554720000002 583.5747071999999 246 493 246 C 402.42529279999997 246 329 234.13554720000002 329 219.5 Z" fill-opacity="0.2"/></g><g><path fill="#ffffff" stroke="none" paint-order="stroke fill markers" d=" M 322 212.5 C 322 197.86445279999998 395.42529279999997 186 486 186 C 576.5747071999999 186 650 197.86445279999998 650 212.5 C 650 227.13554720000002 576.5747071999999 239 486 239 C 395.42529279999997 239 322 227.13554720000002 322 212.5 Z"/></g><g><path fill="none" stroke="#000000" paint-order="fill stroke markers" d=" M 322 212.5 C 322 197.86445279999998 395.42529279999997 186 486 186 C 576.5747071999999 186 650 197.86445279999998 650 212.5 C 650 227.13554720000002 576.5747071999999 239 486 239 C 395.42529279999997 239 322 227.13554720000002 322 212.5 Z" stroke-miterlimit="10" stroke-dasharray=""/></g><g><g><path fill="none" stroke="none"/><text fill="#000000" stroke="none" font-family="Arial" font-size="13px" font-style="normal" font-weight="bold" text-decoration="undefined" x="996" y="653" text-anchor="middle" dominant-baseline="central" transform="matrix(1 0 0 1 -510 -446)">UC48 - Registrazione nuova API</text><text fill="#000000" stroke="none" font-family="Arial" font-size="13px" font-style="normal" font-weight="bold" text-decoration="undefined" x="996" y="666" text-anchor="middle" dominant-baseline="central" transform="matrix(1 0 0 1 -510 -446)">key</text></g></g><g><path fill="#C0C0C0" stroke="none" paint-order="stroke fill markers" d=" M 425 115.5 C 425 100.86445279999998 482.3075456 89 553 89 C 623.6924544000001 89 681 100.86445279999998 681 115.5 C 681 130.13554720000002 623.6924544000001 142 553 142 C 482.3075456 142 425 130.13554720000002 425 115.5 Z" fill-opacity="0.2"/></g><g><path fill="#ffffff" stroke="none" paint-order="stroke fill markers" d=" M 418 108.5 C 418 93.86445279999998 475.3075456 82 546 82 C 616.6924544000001 82 674 93.86445279999998 674 108.5 C 674 123.13554720000002 616.6924544000001 135 546 135 C 475.3075456 135 418 123.13554720000002 418 108.5 Z"/></g><g><path fill="none" stroke="#000000" paint-order="fill stroke markers" d=" M 418 108.5 C 418 93.86445279999998 475.3075456 82 546 82 C 616.6924544000001 82 674 93.86445279999998 674 108.5 C 674 123.13554720000002 616.6924544000001 135 546 135 C 475.3075456 135 418 123.13554720000002 418 108.5 Z" stroke-miterlimit="10" stroke-dasharray=""/></g><g><g><path fill="none" stroke="none"/><text fill="#000000" stroke="none" font-family="Arial" font-size="13px" font-style="normal" font-weight="bold" text-decoration="undefined" x="1056" y="549" text-anchor="middle" dominant-baseline="central" transform="matrix(1 0 0 1 -510 -446)">UC48.1 - Inserimento nome</text><text fill="#000000" stroke="none" font-family="Arial" font-size="13px" font-style="normal" font-weight="bold" text-decoration="undefined" x="1056" y="562" text-anchor="middle" dominant-baseline="central" transform="matrix(1 0 0 1 -510 -446)">API key</text></g></g><g><path fill="#C0C0C0" stroke="none" paint-order="stroke fill markers" d=" M 745 163.5 C 745 148.86445279999998 789.77152 137 845 137 C 900.22848 137 945 148.86445279999998 945 163.5 C 945 178.13554720000002 900.22848 190 845 190 C 789.77152 190 745 178.13554720000002 745 163.5 Z" fill-opacity="0.2"/></g><g><path fill="#ffffff" stroke="none" paint-order="stroke fill markers" d=" M 738 156.5 C 738 141.86445279999998 782.77152 130 838 130 C 893.22848 130 938 141.86445279999998 938 156.5 C 938 171.13554720000002 893.22848 183 838 183 C 782.77152 183 738 171.13554720000002 738 156.5 Z"/></g><g><path fill="none" stroke="#000000" paint-order="fill stroke markers" d=" M 738 156.5 C 738 141.86445279999998 782.77152 130 838 130 C 893.22848 130 938 141.86445279999998 938 156.5 C 938 171.13554720000002 893.22848 183 838 183 C 782.77152 183 738 171.13554720000002 738 156.5 Z" stroke-miterlimit="10" stroke-dasharray=""/></g><g><g><path fill="none" stroke="none"/><text fill="#000000" stroke="none" font-family="Arial" font-size="13px" font-style="normal" font-weight="bold" text-decoration="undefined" x="1348" y="597" text-anchor="middle" dominant-baseline="central" transform="matrix(1 0 0 1 -510 -446)">UC48.2 - Inserimento</text><text fill="#000000" stroke="none" font-family="Arial" font-size="13px" font-style="normal" font-weight="bold" text-decoration="undefined" x="1348" y="610" text-anchor="middle" dominant-baseline="central" transform="matrix(1 0 0 1 -510 -446)">scadenza API key</text></g></g><g><path fill="#C0C0C0" stroke="none" paint-order="stroke fill markers" d=" M 385 347.5 C 385 332.8644528 433.35324160000005 321 493 321 C 552.6467584 321 601 332.8644528 601 347.5 C 601 362.1355472 552.6467584 374 493 374 C 433.35324160000005 374 385 362.1355472 385 347.5 Z" fill-opacity="0.2"/></g><g><path fill="#ffffff" stroke="none" paint-order="stroke fill markers" d=" M 378 340.5 C 378 325.8644528 426.35324160000005 314 486 314 C 545.6467584 314 594 325.8644528 594 340.5 C 594 355.1355472 545.6467584 367 486 367 C 426.35324160000005 367 378 355.1355472 378 340.5 Z"/></g><g><path fill="none" stroke="#000000" paint-order="fill stroke markers" d=" M 378 340.5 C 378 325.8644528 426.35324160000005 314 486 314 C 545.6467584 314 594 325.8644528 594 340.5 C 594 355.1355472 545.6467584 367 486 367 C 426.35324160000005 367 378 355.1355472 378 340.5 Z" stroke-miterlimit="10" stroke-dasharray=""/></g><g><g><path fill="none" stroke="none"/><text fill="#000000" stroke="none" font-family="Arial" font-size="13px" font-style="normal" font-weight="bold" text-decoration="undefined" x="996" y="781" text-anchor="middle" dominant-baseline="central" transform="matrix(1 0 0 1 -510 -446)">UC49 - Nome API key</text><text fill="#000000" stroke="none" font-family="Arial" font-size="13px" font-style="normal" font-weight="bold" text-decoration="undefined" x="996" y="794" text-anchor="middle" dominant-baseline="central" transform="matrix(1 0 0 1 -510 -446)">già utilizzato</text></g></g><g><path fill="#C0C0C0" stroke="none" paint-order="stroke fill markers" d=" M 737 251.5 C 737 236.86445279999998 785.3532416 225 845 225 C 904.6467584 225 953 236.86445279999998 953 251.5 C 953 266.1355472 904.6467584 278 845 278 C 785.3532416 278 737 266.1355472 737 251.5 Z" fill-opacity="0.2"/></g><g><path fill="#ffffff" stroke="none" paint-order="stroke fill markers" d=" M 730 244.5 C 730 229.86445279999998 778.3532416 218 838 218 C 897.6467584 218 946 229.86445279999998 946 244.5 C 946 259.1355472 897.6467584 271 838 271 C 778.3532416 271 730 259.1355472 730 244.5 Z"/></g><g><path fill="none" stroke="#000000" paint-order="fill stroke markers" d=" M 730 244.5 C 730 229.86445279999998 778.3532416 218 838 218 C 897.6467584 218 946 229.86445279999998 946 244.5 C 946 259.1355472 897.6467584 271 838 271 C 778.3532416 271 730 259.1355472 730 244.5 Z" stroke-miterlimit="10" stroke-dasharray=""/></g><g><g><path fill="none" stroke="none"/><text fill="#000000" stroke="none" font-family="Arial" font-size="13px" font-style="normal" font-weight="bold" text-decoration="undefined" x="1348" y="685" text-anchor="middle" dominant-baseline="central" transform="matrix(1 0 0 1 -510 -446)">UC50 - Scadenza API</text><text fill="#000000" stroke="none" font-family="Arial" font-size="13px" font-style="normal" font-weight="bold" text-decoration="undefined" x="1348" y="698" text-anchor="middle" dominant-baseline="central" transform="matrix(1 0 0 1 -510 -446)">key in data passata</text></g></g><g><path fill="none" stroke="#000000" paint-order="fill stroke markers" d=" M 502 185 L 530 136" stroke-miterlimit="10" stroke-dasharray="3"/></g><g><path fill="none" stroke="#000000" paint-order="fill stroke markers" d=" M 528.6127862085848 146.91217842123683 L 530 136 L 521.3030163619605 142.73516708030888" stroke-miterlimit="10" stroke-dasharray=""/></g><g><rect fill="#ffffff" stroke="none" x="984" y="600" width="55.65625" height="13" transform="matrix(1 0 0 1 -510 -446)"/></g><g><g><path fill="none" stroke="none"/><text fill="#000000" stroke="none" font-family="Arial" font-size="13px" font-style="normal" font-weight="normal" text-decoration="undefined" x="1011.828125" y="606.5" text-anchor="middle" dominant-baseline="central" transform="matrix(1 0 0 1 -510 -446)">«include»</text></g></g><g><path fill="none" stroke="#000000" paint-order="fill stroke markers" d=" M 651 186 L 737 172" stroke-miterlimit="10" stroke-dasharray="3"/></g><g><path fill="none" stroke="#000000" paint-order="fill stroke markers" d=" M 727.6457328335064 177.7877185295988 L 737 172 L 726.2929992336635 169.47806927342003" stroke-miterlimit="10" stroke-dasharray=""/></g><g><rect fill="#ffffff" stroke="none" x="1151" y="616" width="55.65625" height="13" transform="matrix(1 0 0 1 -510 -446)"/></g><g><g><path fill="none" stroke="none"/><text fill="#000000" stroke="none" font-family="Arial" font-size="13px" font-style="normal" font-weight="normal" text-decoration="undefined" x="1178.828125" y="622.5" text-anchor="middle" dominant-baseline="central" transform="matrix(1 0 0 1 -510 -446)">«include»</text></g></g><g><path fill="none" stroke="#000000" paint-order="fill stroke markers" d=" M 729 234 L 651 227" stroke-miterlimit="10" stroke-dasharray="3"/></g><g><path fill="none" stroke="#000000" paint-order="fill stroke markers" d=" M 661.4982608389848 223.71571630996402 L 651 227 L 660.7457306984761 232.10105216134662" stroke-miterlimit="10" stroke-dasharray=""/></g><g><rect fill="#ffffff" stroke="none" x="1158" y="680" width="53.49169921875" height="13" transform="matrix(1 0 0 1 -510 -446)"/></g><g><g><path fill="none" stroke="none"/><text fill="#000000" stroke="none" font-family="Arial" font-size="13px" font-style="normal" font-weight="normal" text-decoration="undefined" x="1184.745849609375" y="686.5" text-anchor="middle" dominant-baseline="central" transform="matrix(1 0 0 1 -510 -446)">«extend»</text></g></g><g><path fill="none" stroke="#000000" paint-order="fill stroke markers" d=" M 486 313 L 486 240" stroke-miterlimit="10" stroke-dasharray="3"/></g><g><path fill="none" stroke="#000000" paint-order="fill stroke markers" d=" M 490.209517756016 250.1626748576241 L 486 240 L 481.790482243984 250.1626748576241" stroke-miterlimit="10" stroke-dasharray=""/></g><g><rect fill="#ffffff" stroke="none" x="940" y="715" width="53.49169921875" height="13" transform="matrix(1 0 0 1 -510 -446)"/></g><g><g><path fill="none" stroke="none"/><text fill="#000000" stroke="none" font-family="Arial" font-size="13px" font-style="normal" font-weight="normal" text-decoration="undefined" x="966.745849609375" y="721.5" text-anchor="middle" dominant-baseline="central" transform="matrix(1 0 0 1 -510 -446)">«extend»</text></g></g><g><path fill="none" stroke="#000000" paint-order="fill stroke markers" d=" M 321 208 L 119 203" stroke-miterlimit="10" stroke-dasharray=""/></g><g><path fill="#ffffff" stroke="none" paint-order="stroke fill markers" d=" M 202 226 L 311 226 L 321 236 L 321 356 L 202 356 L 202 226"/></g><g><path fill="none" stroke="#000000" paint-order="fill stroke markers" d=" M 202 226 L 311 226 L 321 236 L 321 356 L 202 356 L 202 226 L 202 226" stroke-miterlimit="10" stroke-dasharray=""/></g><g><path fill="none" stroke="#000000" paint-order="fill stroke markers" d=" M 311 226 L 311 236 L 321 236 L 311 226" stroke-miterlimit="10" stroke-dasharray=""/></g><g><g><path fill="none" stroke="none"/><text fill="#000000" stroke="none" font-family="Arial" font-size="13px" font-style="normal" font-weight="normal" text-decoration="undefined" x="772" y="684" text-anchor="middle" dominant-baseline="text-before-edge" transform="matrix(1 0 0 1 -510 -446)">Condizione:</text></g></g><g><g><path fill="none" stroke="none"/><text fill="#000000" stroke="none" font-family="Arial" font-size="13px" font-style="normal" font-weight="normal" text-decoration="undefined" x="772" y="699" text-anchor="middle" dominant-baseline="text-before-edge" transform="matrix(1 0 0 1 -510 -446)">L'utente ha inserito</text><text fill="#000000" stroke="none" font-family="Arial" font-size="13px" font-style="normal" font-weight="normal" text-decoration="undefined" x="772" y="712" text-anchor="middle" dominant-baseline="text-before-edge" transform="matrix(1 0 0 1 -510 -446)">un nome per l'API</text><text fill="#000000" stroke="none" font-family="Arial" font-size="13px" font-style="normal" font-weight="normal" text-decoration="undefined" x="772" y="725" text-anchor="middle" dominant-baseline="text-before-edge" transform="matrix(1 0 0 1 -510 -446)">key già associato</text><text fill="#000000" stroke="none" font-family="Arial" font-size="13px" font-style="normal" font-weight="normal" text-decoration="undefined" x="772" y="738" text-anchor="middle" dominant-baseline="text-before-edge" transform="matrix(1 0 0 1 -510 -446)">ad un'altra API key</text><text fill="#000000" stroke="none" font-family="Arial" font-size="13px" font-style="normal" font-weight="normal" text-decoration="undefined" x="772" y="751" text-anchor="middle" dominant-baseline="text-before-edge" transform="matrix(1 0 0 1 -510 -446)">all'interno del</text><text fill="#000000" stroke="none" font-family="Arial" font-size="13px" font-style="normal" font-weight="normal" text-decoration="undefined" x="772" y="764" text-anchor="middle" dominant-baseline="text-before-edge" transform="matrix(1 0 0 1 -510 -446)">tenant</text></g></g><g><path fill="none" stroke="#000000" paint-order="fill stroke markers" d=" M 323 287 L 486 276" stroke-miterlimit="10" stroke-dasharray="3"/></g><g><path fill="#ffffff" stroke="none" paint-order="stroke fill markers" d=" M 642 290 L 751 290 L 761 300 L 761 420 L 642 420 L 642 290"/></g><g><path fill="none" stroke="#000000" paint-order="fill stroke markers" d=" M 642 290 L 751 290 L 761 300 L 761 420 L 642 420 L 642 290 L 642 290" stroke-miterlimit="10" stroke-dasharray=""/></g><g><path fill="none" stroke="#000000" paint-order="fill stroke markers" d=" M 751 290 L 751 300 L 761 300 L 751 290" stroke-miterlimit="10" stroke-dasharray=""/></g><g><g><path fill="none" stroke="none"/><text fill="#000000" stroke="none" font-family="Arial" font-size="13px" font-style="normal" font-weight="normal" text-decoration="undefined" x="1212" y="761" text-anchor="middle" dominant-baseline="text-before-edge" transform="matrix(1 0 0 1 -510 -446)">Condizione:</text></g></g><g><g><path fill="none" stroke="none"/><text fill="#000000" stroke="none" font-family="Arial" font-size="13px" font-style="normal" font-weight="normal" text-decoration="undefined" x="1212" y="776" text-anchor="middle" dominant-baseline="text-before-edge" transform="matrix(1 0 0 1 -510 -446)">L'utente ha inserito</text><text fill="#000000" stroke="none" font-family="Arial" font-size="13px" font-style="normal" font-weight="normal" text-decoration="undefined" x="1212" y="789" text-anchor="middle" dominant-baseline="text-before-edge" transform="matrix(1 0 0 1 -510 -446)">una data di</text><text fill="#000000" stroke="none" font-family="Arial" font-size="13px" font-style="normal" font-weight="normal" text-decoration="undefined" x="1212" y="802" text-anchor="middle" dominant-baseline="text-before-edge" transform="matrix(1 0 0 1 -510 -446)">scadenza passata</text><text fill="#000000" stroke="none" font-family="Arial" font-size="13px" font-style="normal" font-weight="normal" text-decoration="undefined" x="1212" y="815" text-anchor="middle" dominant-baseline="text-before-edge" transform="matrix(1 0 0 1 -510 -446)">per l'API key </text></g></g><g><path fill="none" stroke="#000000" paint-order="fill stroke markers" d=" M 696 289 L 690 230" stroke-miterlimit="10" stroke-dasharray="3"/></g></g></svg>