<svg version="1.1" xmlns="http://www.w3.org/2000/svg" xmlns:xlink="http://www.w3.org/1999/xlink" width="900" height="359"><defs/><g><g><path fill="#ffffff" stroke="none" paint-order="stroke fill markers" d=" M 55.2781640625 99.85000000000002 C 55.2781640625 94.96227952000004 59.235966430500014 91 64.1181640625 91 C 69.00036169449999 91 72.95816406249997 94.96227952000004 72.95816406249997 99.85000000000002 C 72.95816406249997 104.73772048000001 69.00036169449999 108.70000000000005 64.1181640625 108.70000000000005 C 59.235966430500014 108.70000000000005 55.2781640625 104.73772048000001 55.2781640625 99.85000000000002 Z"/></g><g><path fill="none" stroke="#000000" paint-order="fill stroke markers" d=" M 55.2781640625 99.85000000000002 C 55.2781640625 94.96227952000004 59.235966430500014 91 64.1181640625 91 C 69.00036169449999 91 72.95816406249997 94.96227952000004 72.95816406249997 99.85000000000002 C 72.95816406249997 104.73772048000001 69.00036169449999 108.70000000000005 64.1181640625 108.70000000000005 C 59.235966430500014 108.70000000000005 55.2781640625 104.73772048000001 55.2781640625 99.85000000000002 Z" stroke-miterlimit="10" stroke-dasharray=""/></g><g><path fill="none" stroke="#000000" paint-order="fill stroke markers" d=" M 64.1181640625 108.70000000000005 L 64.1181640625 126.29999999999995" stroke-miterlimit="10" stroke-dasharray=""/></g><g><path fill="none" stroke="#000000" paint-order="fill stroke markers" d=" M 54.758164062499986 115.29999999999995 L 73.47816406250001 115.29999999999995" stroke-miterlimit="10" stroke-dasharray=""/></g><g><path fill="none" stroke="#000000" paint-order="fill stroke markers" d=" M 64.1181640625 126.29999999999995 L 51.1181640625 144" stroke-miterlimit="10" stroke-dasharray=""/></g><g><path fill="none" stroke="#000000" paint-order="fill stroke markers" d=" M 64.1181640625 126.29999999999995 L 77.1181640625 144" stroke-miterlimit="10" stroke-dasharray=""/></g><g><g><path fill="none" stroke="none"/><text fill="#000000" stroke="none" font-family="Arial" font-size="13px" font-style="normal" font-weight="bold" text-decoration="undefined" x="263.6181640625" y="586.5" text-anchor="middle" dominant-baseline="central" transform="matrix(1 0 0 1 -199 -428)">Admin generico</text></g></g><g><path fill="#C0C0C0" stroke="none" paint-order="stroke fill markers" d=" M 273 147.5 C 273 132.86445279999998 346.42529279999997 121 437 121 C 527.5747072 121 601 132.86445279999998 601 147.5 C 601 162.13554720000002 527.5747072 174 437 174 C 346.42529279999997 174 273 162.13554720000002 273 147.5 Z" fill-opacity="0.2"/></g><g><path fill="#ffffff" stroke="none" paint-order="stroke fill markers" d=" M 266 140.5 C 266 125.86445279999998 339.42529279999997 114 430 114 C 520.5747072 114 594 125.86445279999998 594 140.5 C 594 155.13554720000002 520.5747072 167 430 167 C 339.42529279999997 167 266 155.13554720000002 266 140.5 Z"/></g><g><path fill="none" stroke="#000000" paint-order="fill stroke markers" d=" M 266 140.5 C 266 125.86445279999998 339.42529279999997 114 430 114 C 520.5747072 114 594 125.86445279999998 594 140.5 C 594 155.13554720000002 520.5747072 167 430 167 C 339.42529279999997 167 266 155.13554720000002 266 140.5 Z" stroke-miterlimit="10" stroke-dasharray=""/></g><g><g><path fill="none" stroke="none"/><text fill="#000000" stroke="none" font-family="Arial" font-size="13px" font-style="normal" font-weight="bold" text-decoration="undefined" x="629" y="563" text-anchor="middle" dominant-baseline="central" transform="matrix(1 0 0 1 -199 -428)">UC48 - Registrazione nuova API</text><text fill="#000000" stroke="none" font-family="Arial" font-size="13px" font-style="normal" font-weight="bold" text-decoration="undefined" x="629" y="576" text-anchor="middle" dominant-baseline="central" transform="matrix(1 0 0 1 -199 -428)">key</text></g></g><g><path fill="#C0C0C0" stroke="none" paint-order="stroke fill markers" d=" M 369 43.5 C 369 28.86445279999998 426.3075456 17 497 17 C 567.6924544 17 625 28.86445279999998 625 43.5 C 625 58.13554720000002 567.6924544 70 497 70 C 426.3075456 70 369 58.13554720000002 369 43.5 Z" fill-opacity="0.2"/></g><g><path fill="#ffffff" stroke="none" paint-order="stroke fill markers" d=" M 362 36.5 C 362 21.86445279999998 419.3075456 10 490 10 C 560.6924544 10 618 21.86445279999998 618 36.5 C 618 51.13554720000002 560.6924544 63 490 63 C 419.3075456 63 362 51.13554720000002 362 36.5 Z"/></g><g><path fill="none" stroke="#000000" paint-order="fill stroke markers" d=" M 362 36.5 C 362 21.86445279999998 419.3075456 10 490 10 C 560.6924544 10 618 21.86445279999998 618 36.5 C 618 51.13554720000002 560.6924544 63 490 63 C 419.3075456 63 362 51.13554720000002 362 36.5 Z" stroke-miterlimit="10" stroke-dasharray=""/></g><g><g><path fill="none" stroke="none"/><text fill="#000000" stroke="none" font-family="Arial" font-size="13px" font-style="normal" font-weight="bold" text-decoration="undefined" x="689" y="459" text-anchor="middle" dominant-baseline="central" transform="matrix(1 0 0 1 -199 -428)">UC48.1 - Inserimento nome</text><text fill="#000000" stroke="none" font-family="Arial" font-size="13px" font-style="normal" font-weight="bold" text-decoration="undefined" x="689" y="472" text-anchor="middle" dominant-baseline="central" transform="matrix(1 0 0 1 -199 -428)">API key</text></g></g><g><path fill="#C0C0C0" stroke="none" paint-order="stroke fill markers" d=" M 689 91.5 C 689 76.86445279999998 733.77152 65 789 65 C 844.22848 65 889 76.86445279999998 889 91.5 C 889 106.13554720000002 844.22848 118 789 118 C 733.77152 118 689 106.13554720000002 689 91.5 Z" fill-opacity="0.2"/></g><g><path fill="#ffffff" stroke="none" paint-order="stroke fill markers" d=" M 682 84.5 C 682 69.86445279999998 726.77152 58 782 58 C 837.22848 58 882 69.86445279999998 882 84.5 C 882 99.13554720000002 837.22848 111 782 111 C 726.77152 111 682 99.13554720000002 682 84.5 Z"/></g><g><path fill="none" stroke="#000000" paint-order="fill stroke markers" d=" M 682 84.5 C 682 69.86445279999998 726.77152 58 782 58 C 837.22848 58 882 69.86445279999998 882 84.5 C 882 99.13554720000002 837.22848 111 782 111 C 726.77152 111 682 99.13554720000002 682 84.5 Z" stroke-miterlimit="10" stroke-dasharray=""/></g><g><g><path fill="none" stroke="none"/><text fill="#000000" stroke="none" font-family="Arial" font-size="13px" font-style="normal" font-weight="bold" text-decoration="undefined" x="981" y="507" text-anchor="middle" dominant-baseline="central" transform="matrix(1 0 0 1 -199 -428)">UC48.2 - Inserimento</text><text fill="#000000" stroke="none" font-family="Arial" font-size="13px" font-style="normal" font-weight="bold" text-decoration="undefined" x="981" y="520" text-anchor="middle" dominant-baseline="central" transform="matrix(1 0 0 1 -199 -428)">scadenza API key</text></g></g><g><path fill="#C0C0C0" stroke="none" paint-order="stroke fill markers" d=" M 329 275.5 C 329 260.8644528 377.35324160000005 249 437 249 C 496.64675839999995 249 545 260.8644528 545 275.5 C 545 290.1355472 496.64675839999995 302 437 302 C 377.35324160000005 302 329 290.1355472 329 275.5 Z" fill-opacity="0.2"/></g><g><path fill="#ffffff" stroke="none" paint-order="stroke fill markers" d=" M 322 268.5 C 322 253.86445279999998 370.35324160000005 242 430 242 C 489.64675839999995 242 538 253.86445279999998 538 268.5 C 538 283.1355472 489.64675839999995 295 430 295 C 370.35324160000005 295 322 283.1355472 322 268.5 Z"/></g><g><path fill="none" stroke="#000000" paint-order="fill stroke markers" d=" M 322 268.5 C 322 253.86445279999998 370.35324160000005 242 430 242 C 489.64675839999995 242 538 253.86445279999998 538 268.5 C 538 283.1355472 489.64675839999995 295 430 295 C 370.35324160000005 295 322 283.1355472 322 268.5 Z" stroke-miterlimit="10" stroke-dasharray=""/></g><g><g><path fill="none" stroke="none"/><text fill="#000000" stroke="none" font-family="Arial" font-size="13px" font-style="normal" font-weight="bold" text-decoration="undefined" x="629" y="691" text-anchor="middle" dominant-baseline="central" transform="matrix(1 0 0 1 -199 -428)">UC49 - Nome API key</text><text fill="#000000" stroke="none" font-family="Arial" font-size="13px" font-style="normal" font-weight="bold" text-decoration="undefined" x="629" y="704" text-anchor="middle" dominant-baseline="central" transform="matrix(1 0 0 1 -199 -428)">già utilizzato</text></g></g><g><path fill="#C0C0C0" stroke="none" paint-order="stroke fill markers" d=" M 681 179.5 C 681 164.86445279999998 729.3532416 153 789 153 C 848.6467584 153 897 164.86445279999998 897 179.5 C 897 194.13554720000002 848.6467584 206 789 206 C 729.3532416 206 681 194.13554720000002 681 179.5 Z" fill-opacity="0.2"/></g><g><path fill="#ffffff" stroke="none" paint-order="stroke fill markers" d=" M 674 172.5 C 674 157.86445279999998 722.3532416 146 782 146 C 841.6467584 146 890 157.86445279999998 890 172.5 C 890 187.13554720000002 841.6467584 199 782 199 C 722.3532416 199 674 187.13554720000002 674 172.5 Z"/></g><g><path fill="none" stroke="#000000" paint-order="fill stroke markers" d=" M 674 172.5 C 674 157.86445279999998 722.3532416 146 782 146 C 841.6467584 146 890 157.86445279999998 890 172.5 C 890 187.13554720000002 841.6467584 199 782 199 C 722.3532416 199 674 187.13554720000002 674 172.5 Z" stroke-miterlimit="10" stroke-dasharray=""/></g><g><g><path fill="none" stroke="none"/><text fill="#000000" stroke="none" font-family="Arial" font-size="13px" font-style="normal" font-weight="bold" text-decoration="undefined" x="981" y="595" text-anchor="middle" dominant-baseline="central" transform="matrix(1 0 0 1 -199 -428)">UC50 - Scadenza API</text><text fill="#000000" stroke="none" font-family="Arial" font-size="13px" font-style="normal" font-weight="bold" text-decoration="undefined" x="981" y="608" text-anchor="middle" dominant-baseline="central" transform="matrix(1 0 0 1 -199 -428)">key in data passata</text></g></g><g><path fill="none" stroke="#000000" paint-order="fill stroke markers" d=" M 446 113 L 474 64" stroke-miterlimit="10" stroke-dasharray="3"/></g><g><path fill="none" stroke="#000000" paint-order="fill stroke markers" d=" M 472.6127862085847 74.91217842123683 L 474 64 L 465.30301636196066 70.73516708030883" stroke-miterlimit="10" stroke-dasharray=""/></g><g><rect fill="#ffffff" stroke="none" x="617" y="510" width="55.65625" height="13" transform="matrix(1 0 0 1 -199 -428)"/></g><g><g><path fill="none" stroke="none"/><text fill="#000000" stroke="none" font-family="Arial" font-size="13px" font-style="normal" font-weight="normal" text-decoration="undefined" x="644.828125" y="516.5" text-anchor="middle" dominant-baseline="central" transform="matrix(1 0 0 1 -199 -428)">«include»</text></g></g><g><path fill="none" stroke="#000000" paint-order="fill stroke markers" d=" M 595 114 L 681 100" stroke-miterlimit="10" stroke-dasharray="3"/></g><g><path fill="none" stroke="#000000" paint-order="fill stroke markers" d=" M 671.6457328335065 105.7877185295988 L 681 100 L 670.2929992336634 97.47806927342003" stroke-miterlimit="10" stroke-dasharray=""/></g><g><rect fill="#ffffff" stroke="none" x="784" y="526" width="55.65625" height="13" transform="matrix(1 0 0 1 -199 -428)"/></g><g><g><path fill="none" stroke="none"/><text fill="#000000" stroke="none" font-family="Arial" font-size="13px" font-style="normal" font-weight="normal" text-decoration="undefined" x="811.828125" y="532.5" text-anchor="middle" dominant-baseline="central" transform="matrix(1 0 0 1 -199 -428)">«include»</text></g></g><g><path fill="none" stroke="#000000" paint-order="fill stroke markers" d=" M 673 162 L 595 155" stroke-miterlimit="10" stroke-dasharray="3"/></g><g><path fill="none" stroke="#000000" paint-order="fill stroke markers" d=" M 605.4982608389848 151.71571630996402 L 595 155 L 604.7457306984762 160.10105216134662" stroke-miterlimit="10" stroke-dasharray=""/></g><g><rect fill="#ffffff" stroke="none" x="791" y="590" width="53.49169921875" height="13" transform="matrix(1 0 0 1 -199 -428)"/></g><g><g><path fill="none" stroke="none"/><text fill="#000000" stroke="none" font-family="Arial" font-size="13px" font-style="normal" font-weight="normal" text-decoration="undefined" x="817.745849609375" y="596.5" text-anchor="middle" dominant-baseline="central" transform="matrix(1 0 0 1 -199 -428)">«extend»</text></g></g><g><path fill="none" stroke="#000000" paint-order="fill stroke markers" d=" M 430 241 L 430 168" stroke-miterlimit="10" stroke-dasharray="3"/></g><g><path fill="none" stroke="#000000" paint-order="fill stroke markers" d=" M 434.209517756016 178.1626748576241 L 430 168 L 425.790482243984 178.1626748576241" stroke-miterlimit="10" stroke-dasharray=""/></g><g><rect fill="#ffffff" stroke="none" x="573" y="625" width="53.49169921875" height="13" transform="matrix(1 0 0 1 -199 -428)"/></g><g><g><path fill="none" stroke="none"/><text fill="#000000" stroke="none" font-family="Arial" font-size="13px" font-style="normal" font-weight="normal" text-decoration="undefined" x="599.745849609375" y="631.5" text-anchor="middle" dominant-baseline="central" transform="matrix(1 0 0 1 -199 -428)">«extend»</text></g></g><g><path fill="none" stroke="#000000" paint-order="fill stroke markers" d=" M 265 135 L 119 132" stroke-miterlimit="10" stroke-dasharray=""/></g><g><path fill="#ffffff" stroke="none" paint-order="stroke fill markers" d=" M 146 154 L 255 154 L 265 164 L 265 284 L 146 284 L 146 154"/></g><g><path fill="none" stroke="#000000" paint-order="fill stroke markers" d=" M 146 154 L 255 154 L 265 164 L 265 284 L 146 284 L 146 154 L 146 154" stroke-miterlimit="10" stroke-dasharray=""/></g><g><path fill="none" stroke="#000000" paint-order="fill stroke markers" d=" M 255 154 L 255 164 L 265 164 L 255 154" stroke-miterlimit="10" stroke-dasharray=""/></g><g><g><path fill="none" stroke="none"/><text fill="#000000" stroke="none" font-family="Arial" font-size="13px" font-style="normal" font-weight="normal" text-decoration="undefined" x="405" y="594" text-anchor="middle" dominant-baseline="text-before-edge" transform="matrix(1 0 0 1 -199 -428)">Condizione:</text></g></g><g><g><path fill="none" stroke="none"/><text fill="#000000" stroke="none" font-family="Arial" font-size="13px" font-style="normal" font-weight="normal" text-decoration="undefined" x="405" y="609" text-anchor="middle" dominant-baseline="text-before-edge" transform="matrix(1 0 0 1 -199 -428)">L'utente ha inserito</text><text fill="#000000" stroke="none" font-family="Arial" font-size="13px" font-style="normal" font-weight="normal" text-decoration="undefined" x="405" y="622" text-anchor="middle" dominant-baseline="text-before-edge" transform="matrix(1 0 0 1 -199 -428)">un nome per l'API</text><text fill="#000000" stroke="none" font-family="Arial" font-size="13px" font-style="normal" font-weight="normal" text-decoration="undefined" x="405" y="635" text-anchor="middle" dominant-baseline="text-before-edge" transform="matrix(1 0 0 1 -199 -428)">key già associato</text><text fill="#000000" stroke="none" font-family="Arial" font-size="13px" font-style="normal" font-weight="normal" text-decoration="undefined" x="405" y="648" text-anchor="middle" dominant-baseline="text-before-edge" transform="matrix(1 0 0 1 -199 -428)">ad un'altra API key</text><text fill="#000000" stroke="none" font-family="Arial" font-size="13px" font-style="normal" font-weight="normal" text-decoration="undefined" x="405" y="661" text-anchor="middle" dominant-baseline="text-before-edge" transform="matrix(1 0 0 1 -199 -428)">all'interno del</text><text fill="#000000" stroke="none" font-family="Arial" font-size="13px" font-style="normal" font-weight="normal" text-decoration="undefined" x="405" y="674" text-anchor="middle" dominant-baseline="text-before-edge" transform="matrix(1 0 0 1 -199 -428)">tenant</text></g></g><g><path fill="none" stroke="#000000" paint-order="fill stroke markers" d=" M 267 215 L 430 204" stroke-miterlimit="10" stroke-dasharray="3"/></g><g><path fill="#ffffff" stroke="none" paint-order="stroke fill markers" d=" M 586 218 L 695 218 L 705 228 L 705 348 L 586 348 L 586 218"/></g><g><path fill="none" stroke="#000000" paint-order="fill stroke markers" d=" M 586 218 L 695 218 L 705 228 L 705 348 L 586 348 L 586 218 L 586 218" stroke-miterlimit="10" stroke-dasharray=""/></g><g><path fill="none" stroke="#000000" paint-order="fill stroke markers" d=" M 695 218 L 695 228 L 705 228 L 695 218" stroke-miterlimit="10" stroke-dasharray=""/></g><g><g><path fill="none" stroke="none"/><text fill="#000000" stroke="none" font-family="Arial" font-size="13px" font-style="normal" font-weight="normal" text-decoration="undefined" x="845" y="671" text-anchor="middle" dominant-baseline="text-before-edge" transform="matrix(1 0 0 1 -199 -428)">Condizione:</text></g></g><g><g><path fill="none" stroke="none"/><text fill="#000000" stroke="none" font-family="Arial" font-size="13px" font-style="normal" font-weight="normal" text-decoration="undefined" x="845" y="686" text-anchor="middle" dominant-baseline="text-before-edge" transform="matrix(1 0 0 1 -199 -428)">L'utente ha inserito</text><text fill="#000000" stroke="none" font-family="Arial" font-size="13px" font-style="normal" font-weight="normal" text-decoration="undefined" x="845" y="699" text-anchor="middle" dominant-baseline="text-before-edge" transform="matrix(1 0 0 1 -199 -428)">una data di</text><text fill="#000000" stroke="none" font-family="Arial" font-size="13px" font-style="normal" font-weight="normal" text-decoration="undefined" x="845" y="712" text-anchor="middle" dominant-baseline="text-before-edge" transform="matrix(1 0 0 1 -199 -428)">scadenza passata</text><text fill="#000000" stroke="none" font-family="Arial" font-size="13px" font-style="normal" font-weight="normal" text-decoration="undefined" x="845" y="725" text-anchor="middle" dominant-baseline="text-before-edge" transform="matrix(1 0 0 1 -199 -428)">per l'API key </text></g></g><g><path fill="none" stroke="#000000" paint-order="fill stroke markers" d=" M 640 217 L 634 158" stroke-miterlimit="10" stroke-dasharray="3"/></g></g></svg>