<svg version="1.1" xmlns="http://www.w3.org/2000/svg" xmlns:xlink="http://www.w3.org/1999/xlink" width="817" height="196"><defs/><g><g><rect fill="#C0C0C0" stroke="none" x="739" y="586" width="648" height="176" transform="matrix(1 0 0 1 -574 -569)" fill-opacity="0.2"/></g><g><rect fill="#ffffff" stroke="none" x="732" y="579" width="648" height="176" transform="matrix(1 0 0 1 -574 -569)"/></g><g><path fill="none" stroke="#000000" paint-order="fill stroke markers" d=" M 158 10 L 806 10 L 806 186 L 158 186 L 158 10 Z Z" stroke-miterlimit="10" stroke-dasharray=""/></g><g><g><path fill="none" stroke="none"/><text fill="#000000" stroke="none" font-family="Arial" font-size="13px" font-style="normal" font-weight="bold" text-decoration="undefined" x="1056.5" y="592.5" text-anchor="middle" dominant-baseline="central" transform="matrix(1 0 0 1 -574 -569)">Dashboard admin</text></g></g><g><path fill="#ffffff" stroke="none" paint-order="stroke fill markers" d=" M 55.27816406249997 51.85000000000002 C 55.27816406249997 46.96227952000004 59.23596643049996 43 64.1181640625 43 C 69.00036169450004 43 72.95816406250003 46.96227952000004 72.95816406250003 51.85000000000002 C 72.95816406250003 56.73772048000001 69.00036169450004 60.700000000000045 64.1181640625 60.700000000000045 C 59.23596643049996 60.700000000000045 55.27816406249997 56.73772048000001 55.27816406249997 51.85000000000002 Z"/></g><g><path fill="none" stroke="#000000" paint-order="fill stroke markers" d=" M 55.27816406249997 51.85000000000002 C 55.27816406249997 46.96227952000004 59.23596643049996 43 64.1181640625 43 C 69.00036169450004 43 72.95816406250003 46.96227952000004 72.95816406250003 51.85000000000002 C 72.95816406250003 56.73772048000001 69.00036169450004 60.700000000000045 64.1181640625 60.700000000000045 C 59.23596643049996 60.700000000000045 55.27816406249997 56.73772048000001 55.27816406249997 51.85000000000002 Z" stroke-miterlimit="10" stroke-dasharray=""/></g><g><path fill="none" stroke="#000000" paint-order="fill stroke markers" d=" M 64.1181640625 60.700000000000045 L 64.1181640625 78.29999999999995" stroke-miterlimit="10" stroke-dasharray=""/></g><g><path fill="none" stroke="#000000" paint-order="fill stroke markers" d=" M 54.758164062499986 67.29999999999995 L 73.47816406250001 67.29999999999995" stroke-miterlimit="10" stroke-dasharray=""/></g><g><path fill="none" stroke="#000000" paint-order="fill stroke markers" d=" M 64.1181640625 78.29999999999995 L 51.1181640625 96" stroke-miterlimit="10" stroke-dasharray=""/></g><g><path fill="none" stroke="#000000" paint-order="fill stroke markers" d=" M 64.1181640625 78.29999999999995 L 77.1181640625 96" stroke-miterlimit="10" stroke-dasharray=""/></g><g><g><path fill="none" stroke="none"/><text fill="#000000" stroke="none" font-family="Arial" font-size="13px" font-style="normal" font-weight="bold" text-decoration="undefined" x="638.6181640625" y="679.5" text-anchor="middle" dominant-baseline="central" transform="matrix(1 0 0 1 -574 -569)">Admin generico</text></g></g><g><path fill="#C0C0C0" stroke="none" paint-order="stroke fill markers" d=" M 233 109 C 233 89.11774720000005 282.24867199999994 73 343 73 C 403.75132800000006 73 453 89.11774720000005 453 109 C 453 128.88225279999995 403.75132800000006 145 343 145 C 282.24867199999994 145 233 128.88225279999995 233 109 Z" fill-opacity="0.2"/></g><g><path fill="#ffffff" stroke="none" paint-order="stroke fill markers" d=" M 226 102 C 226 82.11774720000005 275.24867199999994 66 336 66 C 396.75132800000006 66 446 82.11774720000005 446 102 C 446 121.88225279999995 396.75132800000006 138 336 138 C 275.24867199999994 138 226 121.88225279999995 226 102 Z"/></g><g><path fill="none" stroke="#000000" paint-order="fill stroke markers" d=" M 226 102 C 226 82.11774720000005 275.24867199999994 66 336 66 C 396.75132800000006 66 446 82.11774720000005 446 102 C 446 121.88225279999995 396.75132800000006 138 336 138 C 275.24867199999994 138 226 121.88225279999995 226 102 Z" stroke-miterlimit="10" stroke-dasharray=""/></g><g><g><path fill="none" stroke="none"/><text fill="#000000" stroke="none" font-family="Arial" font-size="13px" font-style="normal" font-weight="bold" text-decoration="undefined" x="910" y="665.5" text-anchor="middle" dominant-baseline="central" transform="matrix(1 0 0 1 -574 -569)">UC51 - Visualizzazione</text><text fill="#000000" stroke="none" font-family="Arial" font-size="13px" font-style="normal" font-weight="bold" text-decoration="undefined" x="910" y="678.5" text-anchor="middle" dominant-baseline="central" transform="matrix(1 0 0 1 -574 -569)">lista API key</text></g></g><g><path fill="#C0C0C0" stroke="none" paint-order="stroke fill markers" d=" M 565 110 C 565 85.14718400000004 616.0395328 65 679 65 C 741.9604672 65 793 85.14718400000004 793 110 C 793 134.85281599999996 741.9604672 155 679 155 C 616.0395328 155 565 134.85281599999996 565 110 Z" fill-opacity="0.2"/></g><g><path fill="#ffffff" stroke="none" paint-order="stroke fill markers" d=" M 558 103 C 558 78.14718400000004 609.0395328 58 672 58 C 734.9604672 58 786 78.14718400000004 786 103 C 786 127.85281599999996 734.9604672 148 672 148 C 609.0395328 148 558 127.85281599999996 558 103 Z"/></g><g><path fill="none" stroke="#000000" paint-order="fill stroke markers" d=" M 558 103 C 558 78.14718400000004 609.0395328 58 672 58 C 734.9604672 58 786 78.14718400000004 786 103 C 786 127.85281599999996 734.9604672 148 672 148 C 609.0395328 148 558 127.85281599999996 558 103 Z" stroke-miterlimit="10" stroke-dasharray=""/></g><g><g><path fill="none" stroke="none"/><text fill="#000000" stroke="none" font-family="Arial" font-size="13px" font-style="normal" font-weight="bold" text-decoration="undefined" x="1246" y="666.5" text-anchor="middle" dominant-baseline="central" transform="matrix(1 0 0 1 -574 -569)">UC52 - Visualizzazione</text><text fill="#000000" stroke="none" font-family="Arial" font-size="13px" font-style="normal" font-weight="bold" text-decoration="undefined" x="1246" y="679.5" text-anchor="middle" dominant-baseline="central" transform="matrix(1 0 0 1 -574 -569)">singola API key in lista</text></g></g><g><path fill="none" stroke="#000000" paint-order="fill stroke markers" d=" M 447 102 L 557 103" stroke-miterlimit="10" stroke-dasharray="3"/></g><g><path fill="none" stroke="#000000" paint-order="fill stroke markers" d=" M 546.799478299592 107.11695968397862 L 557 103 L 546.876011823588 98.6982720444139" stroke-miterlimit="10" stroke-dasharray=""/></g><g><rect fill="#ffffff" stroke="none" x="1050" y="654" width="55.65625" height="13" transform="matrix(1 0 0 1 -574 -569)"/></g><g><g><path fill="none" stroke="none"/><text fill="#000000" stroke="none" font-family="Arial" font-size="13px" font-style="normal" font-weight="normal" text-decoration="undefined" x="1077.828125" y="660.5" text-anchor="middle" dominant-baseline="central" transform="matrix(1 0 0 1 -574 -569)">«include»</text></g></g><g><path fill="none" stroke="#000000" paint-order="fill stroke markers" d=" M 225 94 L 119 86" stroke-miterlimit="10" stroke-dasharray=""/></g></g></svg>