<svg version="1.1" xmlns="http://www.w3.org/2000/svg" xmlns:xlink="http://www.w3.org/1999/xlink" width="804" height="100"><defs/><g><g><path fill="#ffffff" stroke="none" paint-order="stroke fill markers" d=" M 55.278164062500025 19.850000000000023 C 55.278164062500025 14.962279520000038 59.235966430500014 11 64.1181640625 11 C 69.00036169449999 11 72.95816406249997 14.962279520000038 72.95816406249997 19.850000000000023 C 72.95816406249997 24.737720480000007 69.00036169449999 28.700000000000045 64.1181640625 28.700000000000045 C 59.235966430500014 28.700000000000045 55.278164062500025 24.737720480000007 55.278164062500025 19.850000000000023 Z"/></g><g><path fill="none" stroke="#000000" paint-order="fill stroke markers" d=" M 55.278164062500025 19.850000000000023 C 55.278164062500025 14.962279520000038 59.235966430500014 11 64.1181640625 11 C 69.00036169449999 11 72.95816406249997 14.962279520000038 72.95816406249997 19.850000000000023 C 72.95816406249997 24.737720480000007 69.00036169449999 28.700000000000045 64.1181640625 28.700000000000045 C 59.235966430500014 28.700000000000045 55.278164062500025 24.737720480000007 55.278164062500025 19.850000000000023 Z" stroke-miterlimit="10" stroke-dasharray=""/></g><g><path fill="none" stroke="#000000" paint-order="fill stroke markers" d=" M 64.1181640625 28.700000000000045 L 64.1181640625 46.299999999999955" stroke-miterlimit="10" stroke-dasharray=""/></g><g><path fill="none" stroke="#000000" paint-order="fill stroke markers" d=" M 54.758164062499986 35.299999999999955 L 73.47816406250001 35.299999999999955" stroke-miterlimit="10" stroke-dasharray=""/></g><g><path fill="none" stroke="#000000" paint-order="fill stroke markers" d=" M 64.1181640625 46.299999999999955 L 51.1181640625 64" stroke-miterlimit="10" stroke-dasharray=""/></g><g><path fill="none" stroke="#000000" paint-order="fill stroke markers" d=" M 64.1181640625 46.299999999999955 L 77.1181640625 64" stroke-miterlimit="10" stroke-dasharray=""/></g><g><g><path fill="none" stroke="none"/><text fill="#000000" stroke="none" font-family="Arial" font-size="13px" font-style="normal" font-weight="bold" text-decoration="undefined" x="311.6181640625" y="635.5" text-anchor="middle" dominant-baseline="central" transform="matrix(1 0 0 1 -247 -557)">Admin generico</text></g></g><g><path fill="#C0C0C0" stroke="none" paint-order="stroke fill markers" d=" M 233 59.5 C 233 44.86445279999998 281.35324160000005 33 341 33 C 400.64675839999995 33 449 44.86445279999998 449 59.5 C 449 74.13554720000002 400.64675839999995 86 341 86 C 281.35324160000005 86 233 74.13554720000002 233 59.5 Z" fill-opacity="0.2"/></g><g><path fill="#ffffff" stroke="none" paint-order="stroke fill markers" d=" M 226 52.5 C 226 37.86445279999998 274.35324160000005 26 334 26 C 393.64675839999995 26 442 37.86445279999998 442 52.5 C 442 67.13554720000002 393.64675839999995 79 334 79 C 274.35324160000005 79 226 67.13554720000002 226 52.5 Z"/></g><g><path fill="none" stroke="#000000" paint-order="fill stroke markers" d=" M 226 52.5 C 226 37.86445279999998 274.35324160000005 26 334 26 C 393.64675839999995 26 442 37.86445279999998 442 52.5 C 442 67.13554720000002 393.64675839999995 79 334 79 C 274.35324160000005 79 226 67.13554720000002 226 52.5 Z" stroke-miterlimit="10" stroke-dasharray=""/></g><g><g><path fill="none" stroke="none"/><text fill="#000000" stroke="none" font-family="Arial" font-size="13px" font-style="normal" font-weight="bold" text-decoration="undefined" x="581" y="604" text-anchor="middle" dominant-baseline="central" transform="matrix(1 0 0 1 -247 -557)">UC51 - Visualizzazione</text><text fill="#000000" stroke="none" font-family="Arial" font-size="13px" font-style="normal" font-weight="bold" text-decoration="undefined" x="581" y="617" text-anchor="middle" dominant-baseline="central" transform="matrix(1 0 0 1 -247 -557)">lista API key</text></g></g><g><path fill="#C0C0C0" stroke="none" paint-order="stroke fill markers" d=" M 545 59.5 C 545 44.86445279999998 602.3075456 33 673 33 C 743.6924544 33 801 44.86445279999998 801 59.5 C 801 74.13554720000002 743.6924544 86 673 86 C 602.3075456 86 545 74.13554720000002 545 59.5 Z" fill-opacity="0.2"/></g><g><path fill="#ffffff" stroke="none" paint-order="stroke fill markers" d=" M 538 52.5 C 538 37.86445279999998 595.3075456 26 666 26 C 736.6924544 26 794 37.86445279999998 794 52.5 C 794 67.13554720000002 736.6924544 79 666 79 C 595.3075456 79 538 67.13554720000002 538 52.5 Z"/></g><g><path fill="none" stroke="#000000" paint-order="fill stroke markers" d=" M 538 52.5 C 538 37.86445279999998 595.3075456 26 666 26 C 736.6924544 26 794 37.86445279999998 794 52.5 C 794 67.13554720000002 736.6924544 79 666 79 C 595.3075456 79 538 67.13554720000002 538 52.5 Z" stroke-miterlimit="10" stroke-dasharray=""/></g><g><g><path fill="none" stroke="none"/><text fill="#000000" stroke="none" font-family="Arial" font-size="13px" font-style="normal" font-weight="bold" text-decoration="undefined" x="913" y="604" text-anchor="middle" dominant-baseline="central" transform="matrix(1 0 0 1 -247 -557)">UC52 - Visualizzazione</text><text fill="#000000" stroke="none" font-family="Arial" font-size="13px" font-style="normal" font-weight="bold" text-decoration="undefined" x="913" y="617" text-anchor="middle" dominant-baseline="central" transform="matrix(1 0 0 1 -247 -557)">singola API key in lista</text></g></g><g><path fill="none" stroke="#000000" paint-order="fill stroke markers" d=" M 443 52 L 537 52" stroke-miterlimit="10" stroke-dasharray="3"/></g><g><path fill="none" stroke="#000000" paint-order="fill stroke markers" d=" M 526.8373251423759 56.209517756016 L 537 52 L 526.8373251423758 47.790482243984" stroke-miterlimit="10" stroke-dasharray=""/></g><g><rect fill="#ffffff" stroke="none" x="711" y="592" width="55.65625" height="13" transform="matrix(1 0 0 1 -247 -557)"/></g><g><g><path fill="none" stroke="none"/><text fill="#000000" stroke="none" font-family="Arial" font-size="13px" font-style="normal" font-weight="normal" text-decoration="undefined" x="738.828125" y="598.5" text-anchor="middle" dominant-baseline="central" transform="matrix(1 0 0 1 -247 -557)">«include»</text></g></g><g><path fill="none" stroke="#000000" paint-order="fill stroke markers" d=" M 225 51 L 119 50" stroke-miterlimit="10" stroke-dasharray=""/></g></g></svg>