<svg version="1.1" xmlns="http://www.w3.org/2000/svg" xmlns:xlink="http://www.w3.org/1999/xlink" width="845" height="180"><defs/><g><g><rect fill="#C0C0C0" stroke="none" x="391" y="389" width="656" height="160" transform="matrix(1 0 0 1 -206 -372)" fill-opacity="0.2"/></g><g><rect fill="#ffffff" stroke="none" x="384" y="382" width="656" height="160" transform="matrix(1 0 0 1 -206 -372)"/></g><g><path fill="none" stroke="#000000" paint-order="fill stroke markers" d=" M 178 10 L 834 10 L 834 170 L 178 170 L 178 10 Z Z" stroke-miterlimit="10" stroke-dasharray=""/></g><g><g><path fill="none" stroke="none"/><text fill="#000000" stroke="none" font-family="Arial" font-size="13px" font-style="normal" font-weight="bold" text-decoration="undefined" x="712.5" y="395.5" text-anchor="middle" dominant-baseline="central" transform="matrix(1 0 0 1 -206 -372)">Sistema Cloud</text></g></g><g><path fill="#ffffff" stroke="none" paint-order="stroke fill markers" d=" M 55.278164062500025 75.85000000000002 C 55.278164062500025 70.96227952000004 59.235966430500014 67 64.1181640625 67 C 69.00036169449999 67 72.95816406249997 70.96227952000004 72.95816406249997 75.85000000000002 C 72.95816406249997 80.73772048000001 69.00036169449999 84.69999999999999 64.1181640625 84.69999999999999 C 59.235966430500014 84.69999999999999 55.278164062500025 80.73772048000001 55.278164062500025 75.85000000000002 Z"/></g><g><path fill="none" stroke="#000000" paint-order="fill stroke markers" d=" M 55.278164062500025 75.85000000000002 C 55.278164062500025 70.96227952000004 59.235966430500014 67 64.1181640625 67 C 69.00036169449999 67 72.95816406249997 70.96227952000004 72.95816406249997 75.85000000000002 C 72.95816406249997 80.73772048000001 69.00036169449999 84.69999999999999 64.1181640625 84.69999999999999 C 59.235966430500014 84.69999999999999 55.278164062500025 80.73772048000001 55.278164062500025 75.85000000000002 Z" stroke-miterlimit="10" stroke-dasharray=""/></g><g><path fill="none" stroke="#000000" paint-order="fill stroke markers" d=" M 64.1181640625 84.69999999999999 L 64.1181640625 102.30000000000001" stroke-miterlimit="10" stroke-dasharray=""/></g><g><path fill="none" stroke="#000000" paint-order="fill stroke markers" d=" M 54.758164062499986 91.30000000000001 L 73.47816406250001 91.30000000000001" stroke-miterlimit="10" stroke-dasharray=""/></g><g><path fill="none" stroke="#000000" paint-order="fill stroke markers" d=" M 64.1181640625 102.30000000000001 L 51.1181640625 120" stroke-miterlimit="10" stroke-dasharray=""/></g><g><path fill="none" stroke="#000000" paint-order="fill stroke markers" d=" M 64.1181640625 102.30000000000001 L 77.1181640625 120" stroke-miterlimit="10" stroke-dasharray=""/></g><g><g><path fill="none" stroke="none"/><text fill="#000000" stroke="none" font-family="Arial" font-size="13px" font-style="normal" font-weight="bold" text-decoration="undefined" x="270.6181640625" y="506.5" text-anchor="middle" dominant-baseline="central" transform="matrix(1 0 0 1 -206 -372)">Admin generico</text></g></g><g><path fill="#C0C0C0" stroke="none" paint-order="stroke fill markers" d=" M 233 115.5 C 233 100.86445279999998 281.3532416 89 341 89 C 400.64675839999995 89 449 100.86445279999998 449 115.5 C 449 130.13554720000002 400.64675839999995 142 341 142 C 281.3532416 142 233 130.13554720000002 233 115.5 Z" fill-opacity="0.2"/></g><g><path fill="#ffffff" stroke="none" paint-order="stroke fill markers" d=" M 226 108.5 C 226 93.86445279999998 274.3532416 82 334 82 C 393.64675839999995 82 442 93.86445279999998 442 108.5 C 442 123.13554720000002 393.64675839999995 135 334 135 C 274.3532416 135 226 123.13554720000002 226 108.5 Z"/></g><g><path fill="none" stroke="#000000" paint-order="fill stroke markers" d=" M 226 108.5 C 226 93.86445279999998 274.3532416 82 334 82 C 393.64675839999995 82 442 93.86445279999998 442 108.5 C 442 123.13554720000002 393.64675839999995 135 334 135 C 274.3532416 135 226 123.13554720000002 226 108.5 Z" stroke-miterlimit="10" stroke-dasharray=""/></g><g><g><path fill="none" stroke="none"/><text fill="#000000" stroke="none" font-family="Arial" font-size="13px" font-style="normal" font-weight="bold" text-decoration="undefined" x="540" y="475" text-anchor="middle" dominant-baseline="central" transform="matrix(1 0 0 1 -206 -372)">UC51 - Visualizzazione</text><text fill="#000000" stroke="none" font-family="Arial" font-size="13px" font-style="normal" font-weight="bold" text-decoration="undefined" x="540" y="488" text-anchor="middle" dominant-baseline="central" transform="matrix(1 0 0 1 -206 -372)">lista API key</text></g></g><g><path fill="#C0C0C0" stroke="none" paint-order="stroke fill markers" d=" M 545 115.5 C 545 100.86445279999998 602.3075456 89 673 89 C 743.6924544 89 801 100.86445279999998 801 115.5 C 801 130.13554720000002 743.6924544 142 673 142 C 602.3075456 142 545 130.13554720000002 545 115.5 Z" fill-opacity="0.2"/></g><g><path fill="#ffffff" stroke="none" paint-order="stroke fill markers" d=" M 538 108.5 C 538 93.86445279999998 595.3075456 82 666 82 C 736.6924544 82 794 93.86445279999998 794 108.5 C 794 123.13554720000002 736.6924544 135 666 135 C 595.3075456 135 538 123.13554720000002 538 108.5 Z"/></g><g><path fill="none" stroke="#000000" paint-order="fill stroke markers" d=" M 538 108.5 C 538 93.86445279999998 595.3075456 82 666 82 C 736.6924544 82 794 93.86445279999998 794 108.5 C 794 123.13554720000002 736.6924544 135 666 135 C 595.3075456 135 538 123.13554720000002 538 108.5 Z" stroke-miterlimit="10" stroke-dasharray=""/></g><g><g><path fill="none" stroke="none"/><text fill="#000000" stroke="none" font-family="Arial" font-size="13px" font-style="normal" font-weight="bold" text-decoration="undefined" x="872" y="475" text-anchor="middle" dominant-baseline="central" transform="matrix(1 0 0 1 -206 -372)">UC52 - Visualizzazione</text><text fill="#000000" stroke="none" font-family="Arial" font-size="13px" font-style="normal" font-weight="bold" text-decoration="undefined" x="872" y="488" text-anchor="middle" dominant-baseline="central" transform="matrix(1 0 0 1 -206 -372)">singola API key in lista</text></g></g><g><path fill="none" stroke="#000000" paint-order="fill stroke markers" d=" M 443 108 L 537 108" stroke-miterlimit="10" stroke-dasharray="3"/></g><g><path fill="none" stroke="#000000" paint-order="fill stroke markers" d=" M 526.8373251423759 112.209517756016 L 537 108 L 526.8373251423758 103.790482243984" stroke-miterlimit="10" stroke-dasharray=""/></g><g><rect fill="#ffffff" stroke="none" x="670" y="463" width="55.65625" height="13" transform="matrix(1 0 0 1 -206 -372)"/></g><g><g><path fill="none" stroke="none"/><text fill="#000000" stroke="none" font-family="Arial" font-size="13px" font-style="normal" font-weight="normal" text-decoration="undefined" x="697.828125" y="469.5" text-anchor="middle" dominant-baseline="central" transform="matrix(1 0 0 1 -206 -372)">«include»</text></g></g><g><path fill="none" stroke="#000000" paint-order="fill stroke markers" d=" M 225 107 L 119 106" stroke-miterlimit="10" stroke-dasharray=""/></g></g></svg>