<svg version="1.1" xmlns="http://www.w3.org/2000/svg" xmlns:xlink="http://www.w3.org/1999/xlink" width="1132" height="316"><defs/><g><g><rect fill="#C0C0C0" stroke="none" x="455" y="511" width="920" height="296" transform="matrix(1 0 0 1 -247 -494)" fill-opacity="0.2"/></g><g><rect fill="#ffffff" stroke="none" x="448" y="504" width="920" height="296" transform="matrix(1 0 0 1 -247 -494)"/></g><g><path fill="none" stroke="#000000" paint-order="fill stroke markers" d=" M 201 10 L 1121 10 L 1121 306 L 201 306 L 201 10 Z Z" stroke-miterlimit="10" stroke-dasharray=""/></g><g><g><path fill="none" stroke="none"/><text fill="#000000" stroke="none" font-family="Arial" font-size="13px" font-style="normal" font-weight="bold" text-decoration="undefined" x="908.5" y="517.5" text-anchor="middle" dominant-baseline="central" transform="matrix(1 0 0 1 -247 -494)">Sistema Cloud</text></g></g><g><path fill="#ffffff" stroke="none" paint-order="stroke fill markers" d=" M 55.278164062500025 82.85000000000002 C 55.278164062500025 77.96227952000004 59.235966430500014 74 64.1181640625 74 C 69.00036169449999 74 72.95816406249997 77.96227952000004 72.95816406249997 82.85000000000002 C 72.95816406249997 87.73772048000001 69.00036169449999 91.70000000000005 64.1181640625 91.70000000000005 C 59.235966430500014 91.70000000000005 55.278164062500025 87.73772048000001 55.278164062500025 82.85000000000002 Z"/></g><g><path fill="none" stroke="#000000" paint-order="fill stroke markers" d=" M 55.278164062500025 82.85000000000002 C 55.278164062500025 77.96227952000004 59.235966430500014 74 64.1181640625 74 C 69.00036169449999 74 72.95816406249997 77.96227952000004 72.95816406249997 82.85000000000002 C 72.95816406249997 87.73772048000001 69.00036169449999 91.70000000000005 64.1181640625 91.70000000000005 C 59.235966430500014 91.70000000000005 55.278164062500025 87.73772048000001 55.278164062500025 82.85000000000002 Z" stroke-miterlimit="10" stroke-dasharray=""/></g><g><path fill="none" stroke="#000000" paint-order="fill stroke markers" d=" M 64.1181640625 91.70000000000005 L 64.1181640625 109.29999999999995" stroke-miterlimit="10" stroke-dasharray=""/></g><g><path fill="none" stroke="#000000" paint-order="fill stroke markers" d=" M 54.758164062499986 98.29999999999995 L 73.47816406250001 98.29999999999995" stroke-miterlimit="10" stroke-dasharray=""/></g><g><path fill="none" stroke="#000000" paint-order="fill stroke markers" d=" M 64.1181640625 109.29999999999995 L 51.1181640625 127" stroke-miterlimit="10" stroke-dasharray=""/></g><g><path fill="none" stroke="#000000" paint-order="fill stroke markers" d=" M 64.1181640625 109.29999999999995 L 77.1181640625 127" stroke-miterlimit="10" stroke-dasharray=""/></g><g><g><path fill="none" stroke="none"/><text fill="#000000" stroke="none" font-family="Arial" font-size="13px" font-style="normal" font-weight="bold" text-decoration="undefined" x="311.6181640625" y="635.5" text-anchor="middle" dominant-baseline="central" transform="matrix(1 0 0 1 -247 -494)">Admin generico</text></g></g><g><path fill="#C0C0C0" stroke="none" paint-order="stroke fill markers" d=" M 233 122.5 C 233 107.86445279999998 281.35324160000005 96 341 96 C 400.64675839999995 96 449 107.86445279999998 449 122.5 C 449 137.13554720000002 400.64675839999995 149 341 149 C 281.35324160000005 149 233 137.13554720000002 233 122.5 Z" fill-opacity="0.2"/></g><g><path fill="#ffffff" stroke="none" paint-order="stroke fill markers" d=" M 226 115.5 C 226 100.86445279999998 274.35324160000005 89 334 89 C 393.64675839999995 89 442 100.86445279999998 442 115.5 C 442 130.13554720000002 393.64675839999995 142 334 142 C 274.35324160000005 142 226 130.13554720000002 226 115.5 Z"/></g><g><path fill="none" stroke="#000000" paint-order="fill stroke markers" d=" M 226 115.5 C 226 100.86445279999998 274.35324160000005 89 334 89 C 393.64675839999995 89 442 100.86445279999998 442 115.5 C 442 130.13554720000002 393.64675839999995 142 334 142 C 274.35324160000005 142 226 130.13554720000002 226 115.5 Z" stroke-miterlimit="10" stroke-dasharray=""/></g><g><g><path fill="none" stroke="none"/><text fill="#000000" stroke="none" font-family="Arial" font-size="13px" font-style="normal" font-weight="bold" text-decoration="undefined" x="581" y="604" text-anchor="middle" dominant-baseline="central" transform="matrix(1 0 0 1 -247 -494)">UC51 - Visualizzazione</text><text fill="#000000" stroke="none" font-family="Arial" font-size="13px" font-style="normal" font-weight="bold" text-decoration="undefined" x="581" y="617" text-anchor="middle" dominant-baseline="central" transform="matrix(1 0 0 1 -247 -494)">lista API key</text></g></g><g><path fill="#C0C0C0" stroke="none" paint-order="stroke fill markers" d=" M 545 122.5 C 545 107.86445279999998 602.3075456 96 673 96 C 743.6924544 96 801 107.86445279999998 801 122.5 C 801 137.13554720000002 743.6924544 149 673 149 C 602.3075456 149 545 137.13554720000002 545 122.5 Z" fill-opacity="0.2"/></g><g><path fill="#ffffff" stroke="none" paint-order="stroke fill markers" d=" M 538 115.5 C 538 100.86445279999998 595.3075456 89 666 89 C 736.6924544 89 794 100.86445279999998 794 115.5 C 794 130.13554720000002 736.6924544 142 666 142 C 595.3075456 142 538 130.13554720000002 538 115.5 Z"/></g><g><path fill="none" stroke="#000000" paint-order="fill stroke markers" d=" M 538 115.5 C 538 100.86445279999998 595.3075456 89 666 89 C 736.6924544 89 794 100.86445279999998 794 115.5 C 794 130.13554720000002 736.6924544 142 666 142 C 595.3075456 142 538 130.13554720000002 538 115.5 Z" stroke-miterlimit="10" stroke-dasharray=""/></g><g><g><path fill="none" stroke="none"/><text fill="#000000" stroke="none" font-family="Arial" font-size="13px" font-style="normal" font-weight="bold" text-decoration="undefined" x="913" y="604" text-anchor="middle" dominant-baseline="central" transform="matrix(1 0 0 1 -247 -494)">UC52 - Visualizzazione</text><text fill="#000000" stroke="none" font-family="Arial" font-size="13px" font-style="normal" font-weight="bold" text-decoration="undefined" x="913" y="617" text-anchor="middle" dominant-baseline="central" transform="matrix(1 0 0 1 -247 -494)">singola API key in lista</text></g></g><g><path fill="none" stroke="#000000" paint-order="fill stroke markers" d=" M 443 115 L 537 115" stroke-miterlimit="10" stroke-dasharray="3"/></g><g><path fill="none" stroke="#000000" paint-order="fill stroke markers" d=" M 526.8373251423759 119.209517756016 L 537 115 L 526.8373251423758 110.790482243984" stroke-miterlimit="10" stroke-dasharray=""/></g><g><rect fill="#ffffff" stroke="none" x="711" y="592" width="55.65625" height="13" transform="matrix(1 0 0 1 -247 -494)"/></g><g><g><path fill="none" stroke="none"/><text fill="#000000" stroke="none" font-family="Arial" font-size="13px" font-style="normal" font-weight="normal" text-decoration="undefined" x="738.828125" y="598.5" text-anchor="middle" dominant-baseline="central" transform="matrix(1 0 0 1 -247 -494)">«include»</text></g></g><g><path fill="none" stroke="#000000" paint-order="fill stroke markers" d=" M 225 114 L 119 113" stroke-miterlimit="10" stroke-dasharray=""/></g><g><path fill="#C0C0C0" stroke="none" paint-order="stroke fill markers" d=" M 904 126 C 904 101.14718400000004 950.5623808 81 1008 81 C 1065.4376192 81 1112 101.14718400000004 1112 126 C 1112 150.85281599999996 1065.4376192 171 1008 171 C 950.5623808 171 904 150.85281599999996 904 126 Z" fill-opacity="0.2"/></g><g><path fill="#ffffff" stroke="none" paint-order="stroke fill markers" d=" M 897 119 C 897 94.14718400000004 943.5623808 74 1001 74 C 1058.4376192 74 1105 94.14718400000004 1105 119 C 1105 143.85281599999996 1058.4376192 164 1001 164 C 943.5623808 164 897 143.85281599999996 897 119 Z"/></g><g><path fill="none" stroke="#000000" paint-order="fill stroke markers" d=" M 897 119 C 897 94.14718400000004 943.5623808 74 1001 74 C 1058.4376192 74 1105 94.14718400000004 1105 119 C 1105 143.85281599999996 1058.4376192 164 1001 164 C 943.5623808 164 897 143.85281599999996 897 119 Z" stroke-miterlimit="10" stroke-dasharray=""/></g><g><g><path fill="none" stroke="none"/><text fill="#000000" stroke="none" font-family="Arial" font-size="13px" font-style="normal" font-weight="bold" text-decoration="undefined" x="1248" y="594.5" text-anchor="middle" dominant-baseline="central" transform="matrix(1 0 0 1 -247 -494)">UC52.1 -</text><text fill="#000000" stroke="none" font-family="Arial" font-size="13px" font-style="normal" font-weight="bold" text-decoration="undefined" x="1248" y="607.5" text-anchor="middle" dominant-baseline="central" transform="matrix(1 0 0 1 -247 -494)">Visualizzazione nome</text><text fill="#000000" stroke="none" font-family="Arial" font-size="13px" font-style="normal" font-weight="bold" text-decoration="undefined" x="1248" y="620.5" text-anchor="middle" dominant-baseline="central" transform="matrix(1 0 0 1 -247 -494)">singola API key in</text><text fill="#000000" stroke="none" font-family="Arial" font-size="13px" font-style="normal" font-weight="bold" text-decoration="undefined" x="1248" y="633.5" text-anchor="middle" dominant-baseline="central" transform="matrix(1 0 0 1 -247 -494)">lista</text></g></g><g><path fill="#C0C0C0" stroke="none" paint-order="stroke fill markers" d=" M 720 221 C 720 201.11774720000005 775.5166848 185 844 185 C 912.4833152000001 185 968 201.11774720000005 968 221 C 968 240.88225279999995 912.4833152000001 257 844 257 C 775.5166848 257 720 240.88225279999995 720 221 Z" fill-opacity="0.2"/></g><g><path fill="#ffffff" stroke="none" paint-order="stroke fill markers" d=" M 713 214 C 713 194.11774720000005 768.5166848 178 837 178 C 905.4833152000001 178 961 194.11774720000005 961 214 C 961 233.88225279999995 905.4833152000001 250 837 250 C 768.5166848 250 713 233.88225279999995 713 214 Z"/></g><g><path fill="none" stroke="#000000" paint-order="fill stroke markers" d=" M 713 214 C 713 194.11774720000005 768.5166848 178 837 178 C 905.4833152000001 178 961 194.11774720000005 961 214 C 961 233.88225279999995 905.4833152000001 250 837 250 C 768.5166848 250 713 233.88225279999995 713 214 Z" stroke-miterlimit="10" stroke-dasharray=""/></g><g><g><path fill="none" stroke="none"/><text fill="#000000" stroke="none" font-family="Arial" font-size="13px" font-style="normal" font-weight="bold" text-decoration="undefined" x="1084" y="696" text-anchor="middle" dominant-baseline="central" transform="matrix(1 0 0 1 -247 -494)">UC52.2 - Visualizzazione</text><text fill="#000000" stroke="none" font-family="Arial" font-size="13px" font-style="normal" font-weight="bold" text-decoration="undefined" x="1084" y="709" text-anchor="middle" dominant-baseline="central" transform="matrix(1 0 0 1 -247 -494)">data di creazione singola</text><text fill="#000000" stroke="none" font-family="Arial" font-size="13px" font-style="normal" font-weight="bold" text-decoration="undefined" x="1084" y="722" text-anchor="middle" dominant-baseline="central" transform="matrix(1 0 0 1 -247 -494)">API key in lista</text></g></g><g><path fill="#C0C0C0" stroke="none" paint-order="stroke fill markers" d=" M 408 229 C 408 209.11774720000005 465.3075456 193 536 193 C 606.6924544 193 664 209.11774720000005 664 229 C 664 248.88225279999995 606.6924544 265 536 265 C 465.3075456 265 408 248.88225279999995 408 229 Z" fill-opacity="0.2"/></g><g><path fill="#ffffff" stroke="none" paint-order="stroke fill markers" d=" M 401 222 C 401 202.11774720000005 458.3075456 186 529 186 C 599.6924544 186 657 202.11774720000005 657 222 C 657 241.88225279999995 599.6924544 258 529 258 C 458.3075456 258 401 241.88225279999995 401 222 Z"/></g><g><path fill="none" stroke="#000000" paint-order="fill stroke markers" d=" M 401 222 C 401 202.11774720000005 458.3075456 186 529 186 C 599.6924544 186 657 202.11774720000005 657 222 C 657 241.88225279999995 599.6924544 258 529 258 C 458.3075456 258 401 241.88225279999995 401 222 Z" stroke-miterlimit="10" stroke-dasharray=""/></g><g><g><path fill="none" stroke="none"/><text fill="#000000" stroke="none" font-family="Arial" font-size="13px" font-style="normal" font-weight="bold" text-decoration="undefined" x="776" y="704" text-anchor="middle" dominant-baseline="central" transform="matrix(1 0 0 1 -247 -494)">UC52.3 - Visualizzazione</text><text fill="#000000" stroke="none" font-family="Arial" font-size="13px" font-style="normal" font-weight="bold" text-decoration="undefined" x="776" y="717" text-anchor="middle" dominant-baseline="central" transform="matrix(1 0 0 1 -247 -494)">data di scadenza singola</text><text fill="#000000" stroke="none" font-family="Arial" font-size="13px" font-style="normal" font-weight="bold" text-decoration="undefined" x="776" y="730" text-anchor="middle" dominant-baseline="central" transform="matrix(1 0 0 1 -247 -494)">API key in lista</text></g></g><g><path fill="none" stroke="#000000" paint-order="fill stroke markers" d=" M 795 117 L 896 118" stroke-miterlimit="10" stroke-dasharray="3"/></g><g><path fill="none" stroke="#000000" paint-order="fill stroke markers" d=" M 885.7961468763408 122.10869583089186 L 896 118 L 885.8794995781725 113.6900729458855" stroke-miterlimit="10" stroke-dasharray=""/></g><g><rect fill="#ffffff" stroke="none" x="1056" y="595" width="55.65625" height="13" transform="matrix(1 0 0 1 -247 -494)"/></g><g><g><path fill="none" stroke="none"/><text fill="#000000" stroke="none" font-family="Arial" font-size="13px" font-style="normal" font-weight="normal" text-decoration="undefined" x="1083.828125" y="601.5" text-anchor="middle" dominant-baseline="central" transform="matrix(1 0 0 1 -247 -494)">«include»</text></g></g><g><path fill="none" stroke="#000000" paint-order="fill stroke markers" d=" M 714 143 L 773 177" stroke-miterlimit="10" stroke-dasharray="3"/></g><g><path fill="none" stroke="#000000" paint-order="fill stroke markers" d=" M 762.0929475563661 175.57304275052888 L 773 177 L 766.2965604019134 168.2785381067847" stroke-miterlimit="10" stroke-dasharray=""/></g><g><rect fill="#ffffff" stroke="none" x="967" y="648" width="55.65625" height="13" transform="matrix(1 0 0 1 -247 -494)"/></g><g><g><path fill="none" stroke="none"/><text fill="#000000" stroke="none" font-family="Arial" font-size="13px" font-style="normal" font-weight="normal" text-decoration="undefined" x="994.828125" y="654.5" text-anchor="middle" dominant-baseline="central" transform="matrix(1 0 0 1 -247 -494)">«include»</text></g></g><g><path fill="none" stroke="#000000" paint-order="fill stroke markers" d=" M 630 143 L 576 185" stroke-miterlimit="10" stroke-dasharray="3"/></g><g><path fill="none" stroke="#000000" paint-order="fill stroke markers" d=" M 581.4375360196099 175.4379289881614 L 576 185 L 586.6063238470707 182.08351333775386" stroke-miterlimit="10" stroke-dasharray=""/></g><g><rect fill="#ffffff" stroke="none" x="824" y="651" width="55.65625" height="13" transform="matrix(1 0 0 1 -247 -494)"/></g><g><g><path fill="none" stroke="none"/><text fill="#000000" stroke="none" font-family="Arial" font-size="13px" font-style="normal" font-weight="normal" text-decoration="undefined" x="851.828125" y="657.5" text-anchor="middle" dominant-baseline="central" transform="matrix(1 0 0 1 -247 -494)">«include»</text></g></g></g></svg>