<svg version="1.1" xmlns="http://www.w3.org/2000/svg" xmlns:xlink="http://www.w3.org/1999/xlink" width="941" height="340"><defs/><g><g><rect fill="#C0C0C0" stroke="none" x="343" y="309" width="752" height="320" transform="matrix(1 0 0 1 -158 -292)" fill-opacity="0.2"/></g><g><rect fill="#ffffff" stroke="none" x="336" y="302" width="752" height="320" transform="matrix(1 0 0 1 -158 -292)"/></g><g><path fill="none" stroke="#000000" paint-order="fill stroke markers" d=" M 178 10 L 930 10 L 930 330 L 178 330 L 178 10 Z Z" stroke-miterlimit="10" stroke-dasharray=""/></g><g><g><path fill="none" stroke="none"/><text fill="#000000" stroke="none" font-family="Arial" font-size="13px" font-style="normal" font-weight="bold" text-decoration="undefined" x="712.5" y="315.5" text-anchor="middle" dominant-baseline="central" transform="matrix(1 0 0 1 -158 -292)">sistema cloud</text></g></g><g><path fill="#ffffff" stroke="none" paint-order="stroke fill markers" d=" M 55.2781640625 139.85000000000002 C 55.2781640625 134.96227952000004 59.235966430499985 131 64.1181640625 131 C 69.00036169450001 131 72.9581640625 134.96227952000004 72.9581640625 139.85000000000002 C 72.9581640625 144.73772048 69.00036169450001 148.7 64.1181640625 148.7 C 59.235966430499985 148.7 55.2781640625 144.73772048 55.2781640625 139.85000000000002 Z"/></g><g><path fill="none" stroke="#000000" paint-order="fill stroke markers" d=" M 55.2781640625 139.85000000000002 C 55.2781640625 134.96227952000004 59.235966430499985 131 64.1181640625 131 C 69.00036169450001 131 72.9581640625 134.96227952000004 72.9581640625 139.85000000000002 C 72.9581640625 144.73772048 69.00036169450001 148.7 64.1181640625 148.7 C 59.235966430499985 148.7 55.2781640625 144.73772048 55.2781640625 139.85000000000002 Z" stroke-miterlimit="10" stroke-dasharray=""/></g><g><path fill="none" stroke="#000000" paint-order="fill stroke markers" d=" M 64.1181640625 148.7 L 64.1181640625 166.3" stroke-miterlimit="10" stroke-dasharray=""/></g><g><path fill="none" stroke="#000000" paint-order="fill stroke markers" d=" M 54.758164062499986 155.3 L 73.47816406250001 155.3" stroke-miterlimit="10" stroke-dasharray=""/></g><g><path fill="none" stroke="#000000" paint-order="fill stroke markers" d=" M 64.1181640625 166.3 L 51.1181640625 184" stroke-miterlimit="10" stroke-dasharray=""/></g><g><path fill="none" stroke="#000000" paint-order="fill stroke markers" d=" M 64.1181640625 166.3 L 77.1181640625 184" stroke-miterlimit="10" stroke-dasharray=""/></g><g><g><path fill="none" stroke="none"/><text fill="#000000" stroke="none" font-family="Arial" font-size="13px" font-style="normal" font-weight="bold" text-decoration="undefined" x="222.6181640625" y="490.5" text-anchor="middle" dominant-baseline="central" transform="matrix(1 0 0 1 -158 -292)">Admin generico</text></g></g><g><path fill="#C0C0C0" stroke="none" paint-order="stroke fill markers" d=" M 233 187.5 C 233 172.86445279999998 288.5166848 161 357 161 C 425.4833152 161 481 172.86445279999998 481 187.5 C 481 202.13554720000002 425.4833152 214 357 214 C 288.5166848 214 233 202.13554720000002 233 187.5 Z" fill-opacity="0.2"/></g><g><path fill="#ffffff" stroke="none" paint-order="stroke fill markers" d=" M 226 180.5 C 226 165.86445279999998 281.5166848 154 350 154 C 418.4833152 154 474 165.86445279999998 474 180.5 C 474 195.13554720000002 418.4833152 207 350 207 C 281.5166848 207 226 195.13554720000002 226 180.5 Z"/></g><g><path fill="none" stroke="#000000" paint-order="fill stroke markers" d=" M 226 180.5 C 226 165.86445279999998 281.5166848 154 350 154 C 418.4833152 154 474 165.86445279999998 474 180.5 C 474 195.13554720000002 418.4833152 207 350 207 C 281.5166848 207 226 195.13554720000002 226 180.5 Z" stroke-miterlimit="10" stroke-dasharray=""/></g><g><g><path fill="none" stroke="none"/><text fill="#000000" stroke="none" font-family="Arial" font-size="13px" font-style="normal" font-weight="bold" text-decoration="undefined" x="508" y="467" text-anchor="middle" dominant-baseline="central" transform="matrix(1 0 0 1 -158 -292)">UC52 - Visualizzazione</text><text fill="#000000" stroke="none" font-family="Arial" font-size="13px" font-style="normal" font-weight="bold" text-decoration="undefined" x="508" y="480" text-anchor="middle" dominant-baseline="central" transform="matrix(1 0 0 1 -158 -292)">singola API key in lista</text></g></g><g><path fill="#C0C0C0" stroke="none" paint-order="stroke fill markers" d=" M 593 109 C 593 89.1177472 650.3075456 73 721 73 C 791.6924544 73 849 89.1177472 849 109 C 849 128.8822528 791.6924544 145 721 145 C 650.3075456 145 593 128.8822528 593 109 Z" fill-opacity="0.2"/></g><g><path fill="#ffffff" stroke="none" paint-order="stroke fill markers" d=" M 586 102 C 586 82.1177472 643.3075456 66 714 66 C 784.6924544 66 842 82.1177472 842 102 C 842 121.8822528 784.6924544 138 714 138 C 643.3075456 138 586 121.8822528 586 102 Z"/></g><g><path fill="none" stroke="#000000" paint-order="fill stroke markers" d=" M 586 102 C 586 82.1177472 643.3075456 66 714 66 C 784.6924544 66 842 82.1177472 842 102 C 842 121.8822528 784.6924544 138 714 138 C 643.3075456 138 586 121.8822528 586 102 Z" stroke-miterlimit="10" stroke-dasharray=""/></g><g><g><path fill="none" stroke="none"/><text fill="#000000" stroke="none" font-family="Arial" font-size="13px" font-style="normal" font-weight="bold" text-decoration="undefined" x="872" y="382" text-anchor="middle" dominant-baseline="central" transform="matrix(1 0 0 1 -158 -292)">UC52.1 - Visualizzazione</text><text fill="#000000" stroke="none" font-family="Arial" font-size="13px" font-style="normal" font-weight="bold" text-decoration="undefined" x="872" y="395" text-anchor="middle" dominant-baseline="central" transform="matrix(1 0 0 1 -158 -292)">nome singola API key in</text><text fill="#000000" stroke="none" font-family="Arial" font-size="13px" font-style="normal" font-weight="bold" text-decoration="undefined" x="872" y="408" text-anchor="middle" dominant-baseline="central" transform="matrix(1 0 0 1 -158 -292)">lista</text></g></g><g><path fill="#C0C0C0" stroke="none" paint-order="stroke fill markers" d=" M 601 197 C 601 177.1177472 670.8435712 161 757 161 C 843.1564288 161 913 177.1177472 913 197 C 913 216.8822528 843.1564288 233 757 233 C 670.8435712 233 601 216.8822528 601 197 Z" fill-opacity="0.2"/></g><g><path fill="#ffffff" stroke="none" paint-order="stroke fill markers" d=" M 594 190 C 594 170.1177472 663.8435712 154 750 154 C 836.1564288 154 906 170.1177472 906 190 C 906 209.8822528 836.1564288 226 750 226 C 663.8435712 226 594 209.8822528 594 190 Z"/></g><g><path fill="none" stroke="#000000" paint-order="fill stroke markers" d=" M 594 190 C 594 170.1177472 663.8435712 154 750 154 C 836.1564288 154 906 170.1177472 906 190 C 906 209.8822528 836.1564288 226 750 226 C 663.8435712 226 594 209.8822528 594 190 Z" stroke-miterlimit="10" stroke-dasharray=""/></g><g><g><path fill="none" stroke="none"/><text fill="#000000" stroke="none" font-family="Arial" font-size="13px" font-style="normal" font-weight="bold" text-decoration="undefined" x="908" y="476.5" text-anchor="middle" dominant-baseline="central" transform="matrix(1 0 0 1 -158 -292)">UC52.2 - Visualizzazione data di</text><text fill="#000000" stroke="none" font-family="Arial" font-size="13px" font-style="normal" font-weight="bold" text-decoration="undefined" x="908" y="489.5" text-anchor="middle" dominant-baseline="central" transform="matrix(1 0 0 1 -158 -292)">creazione singola API key in lista</text></g></g><g><path fill="#C0C0C0" stroke="none" paint-order="stroke fill markers" d=" M 585 283.5 C 585 268.8644528 658.4252928 257 749 257 C 839.5747072 257 913 268.8644528 913 283.5 C 913 298.1355472 839.5747072 310 749 310 C 658.4252928 310 585 298.1355472 585 283.5 Z" fill-opacity="0.2"/></g><g><path fill="#ffffff" stroke="none" paint-order="stroke fill markers" d=" M 578 276.5 C 578 261.8644528 651.4252928 250 742 250 C 832.5747072 250 906 261.8644528 906 276.5 C 906 291.1355472 832.5747072 303 742 303 C 651.4252928 303 578 291.1355472 578 276.5 Z"/></g><g><path fill="none" stroke="#000000" paint-order="fill stroke markers" d=" M 578 276.5 C 578 261.8644528 651.4252928 250 742 250 C 832.5747072 250 906 261.8644528 906 276.5 C 906 291.1355472 832.5747072 303 742 303 C 651.4252928 303 578 291.1355472 578 276.5 Z" stroke-miterlimit="10" stroke-dasharray=""/></g><g><g><path fill="none" stroke="none"/><text fill="#000000" stroke="none" font-family="Arial" font-size="13px" font-style="normal" font-weight="bold" text-decoration="undefined" x="900" y="563" text-anchor="middle" dominant-baseline="central" transform="matrix(1 0 0 1 -158 -292)">UC52.3 - Visualizzazione data di</text><text fill="#000000" stroke="none" font-family="Arial" font-size="13px" font-style="normal" font-weight="bold" text-decoration="undefined" x="900" y="576" text-anchor="middle" dominant-baseline="central" transform="matrix(1 0 0 1 -158 -292)">scadenza singola API key in lista</text></g></g><g><path fill="none" stroke="#000000" paint-order="fill stroke markers" d=" M 475 153 L 585 130" stroke-miterlimit="10" stroke-dasharray="3"/></g><g><path fill="none" stroke="#000000" paint-order="fill stroke markers" d=" M 575.9139881252822 136.2003538780047 L 585 130 L 574.1909071165521 127.95953166233903" stroke-miterlimit="10" stroke-dasharray=""/></g><g><rect fill="#ffffff" stroke="none" x="638" y="423" width="55.65625" height="13" transform="matrix(1 0 0 1 -158 -292)"/></g><g><g><path fill="none" stroke="none"/><text fill="#000000" stroke="none" font-family="Arial" font-size="13px" font-style="normal" font-weight="normal" text-decoration="undefined" x="665.828125" y="429.5" text-anchor="middle" dominant-baseline="central" transform="matrix(1 0 0 1 -158 -292)">«include»</text></g></g><g><path fill="none" stroke="#000000" paint-order="fill stroke markers" d=" M 475 183 L 593 186" stroke-miterlimit="10" stroke-dasharray="3"/></g><g><path fill="none" stroke="#000000" paint-order="fill stroke markers" d=" M 582.7336208876695 189.94986834235078 L 593 186 L 582.9475950217688 181.5335524011095" stroke-miterlimit="10" stroke-dasharray=""/></g><g><rect fill="#ffffff" stroke="none" x="665" y="460" width="55.65625" height="13" transform="matrix(1 0 0 1 -158 -292)"/></g><g><g><path fill="none" stroke="none"/><text fill="#000000" stroke="none" font-family="Arial" font-size="13px" font-style="normal" font-weight="normal" text-decoration="undefined" x="692.828125" y="466.5" text-anchor="middle" dominant-baseline="central" transform="matrix(1 0 0 1 -158 -292)">«include»</text></g></g><g><path fill="none" stroke="#000000" paint-order="fill stroke markers" d=" M 464 208 L 632 249" stroke-miterlimit="10" stroke-dasharray="3"/></g><g><path fill="none" stroke="#000000" paint-order="fill stroke markers" d=" M 621.1290531247095 250.6800339385295 L 632 249 L 623.1251163560056 242.5010431371212" stroke-miterlimit="10" stroke-dasharray=""/></g><g><rect fill="#ffffff" stroke="none" x="649" y="510" width="55.65625" height="13" transform="matrix(1 0 0 1 -158 -292)"/></g><g><g><path fill="none" stroke="none"/><text fill="#000000" stroke="none" font-family="Arial" font-size="13px" font-style="normal" font-weight="normal" text-decoration="undefined" x="676.828125" y="516.5" text-anchor="middle" dominant-baseline="central" transform="matrix(1 0 0 1 -158 -292)">«include»</text></g></g><g><path fill="none" stroke="#000000" paint-order="fill stroke markers" d=" M 225 176 L 119 172" stroke-miterlimit="10" stroke-dasharray=""/></g></g></svg>