<svg version="1.1" xmlns="http://www.w3.org/2000/svg" xmlns:xlink="http://www.w3.org/1999/xlink" width="981" height="412"><defs/><g><g><rect fill="#C0C0C0" stroke="none" x="669" y="478" width="800" height="392" transform="matrix(1 0 0 1 -492 -461)" fill-opacity="0.2"/></g><g><rect fill="#ffffff" stroke="none" x="662" y="471" width="800" height="392" transform="matrix(1 0 0 1 -492 -461)"/></g><g><path fill="none" stroke="#000000" paint-order="fill stroke markers" d=" M 170 10 L 970 10 L 970 402 L 170 402 L 170 10 Z Z" stroke-miterlimit="10" stroke-dasharray=""/></g><g><g><path fill="none" stroke="none"/><text fill="#000000" stroke="none" font-family="Arial" font-size="13px" font-style="normal" font-weight="bold" text-decoration="undefined" x="1062.5" y="484.5" text-anchor="middle" dominant-baseline="central" transform="matrix(1 0 0 1 -492 -461)">Dashboard admin</text></g></g><g><path fill="#ffffff" stroke="none" paint-order="stroke fill markers" d=" M 55.27816406249997 150.85000000000002 C 55.27816406249997 145.96227952000004 59.23596643049996 142 64.1181640625 142 C 69.00036169450004 142 72.95816406250003 145.96227952000004 72.95816406250003 150.85000000000002 C 72.95816406250003 155.73772048 69.00036169450004 159.70000000000005 64.1181640625 159.70000000000005 C 59.23596643049996 159.70000000000005 55.27816406249997 155.73772048 55.27816406249997 150.85000000000002 Z"/></g><g><path fill="none" stroke="#000000" paint-order="fill stroke markers" d=" M 55.27816406249997 150.85000000000002 C 55.27816406249997 145.96227952000004 59.23596643049996 142 64.1181640625 142 C 69.00036169450004 142 72.95816406250003 145.96227952000004 72.95816406250003 150.85000000000002 C 72.95816406250003 155.73772048 69.00036169450004 159.70000000000005 64.1181640625 159.70000000000005 C 59.23596643049996 159.70000000000005 55.27816406249997 155.73772048 55.27816406249997 150.85000000000002 Z" stroke-miterlimit="10" stroke-dasharray=""/></g><g><path fill="none" stroke="#000000" paint-order="fill stroke markers" d=" M 64.1181640625 159.70000000000005 L 64.1181640625 177.29999999999995" stroke-miterlimit="10" stroke-dasharray=""/></g><g><path fill="none" stroke="#000000" paint-order="fill stroke markers" d=" M 54.758164062499986 166.29999999999995 L 73.47816406250001 166.29999999999995" stroke-miterlimit="10" stroke-dasharray=""/></g><g><path fill="none" stroke="#000000" paint-order="fill stroke markers" d=" M 64.1181640625 177.29999999999995 L 51.1181640625 195" stroke-miterlimit="10" stroke-dasharray=""/></g><g><path fill="none" stroke="#000000" paint-order="fill stroke markers" d=" M 64.1181640625 177.29999999999995 L 77.1181640625 195" stroke-miterlimit="10" stroke-dasharray=""/></g><g><g><path fill="none" stroke="none"/><text fill="#000000" stroke="none" font-family="Arial" font-size="13px" font-style="normal" font-weight="bold" text-decoration="undefined" x="556.6181640625" y="670.5" text-anchor="middle" dominant-baseline="central" transform="matrix(1 0 0 1 -492 -461)">Admin generico</text></g></g><g><path fill="#C0C0C0" stroke="none" paint-order="stroke fill markers" d=" M 233 198.5 C 233 183.86445279999998 288.5166848 172 357 172 C 425.4833152 172 481 183.86445279999998 481 198.5 C 481 213.13554720000002 425.4833152 225 357 225 C 288.5166848 225 233 213.13554720000002 233 198.5 Z" fill-opacity="0.2"/></g><g><path fill="#ffffff" stroke="none" paint-order="stroke fill markers" d=" M 226 191.5 C 226 176.86445279999998 281.5166848 165 350 165 C 418.4833152 165 474 176.86445279999998 474 191.5 C 474 206.13554720000002 418.4833152 218 350 218 C 281.5166848 218 226 206.13554720000002 226 191.5 Z"/></g><g><path fill="none" stroke="#000000" paint-order="fill stroke markers" d=" M 226 191.5 C 226 176.86445279999998 281.5166848 165 350 165 C 418.4833152 165 474 176.86445279999998 474 191.5 C 474 206.13554720000002 418.4833152 218 350 218 C 281.5166848 218 226 206.13554720000002 226 191.5 Z" stroke-miterlimit="10" stroke-dasharray=""/></g><g><g><path fill="none" stroke="none"/><text fill="#000000" stroke="none" font-family="Arial" font-size="13px" font-style="normal" font-weight="bold" text-decoration="undefined" x="842" y="647" text-anchor="middle" dominant-baseline="central" transform="matrix(1 0 0 1 -492 -461)">UC52 - Visualizzazione</text><text fill="#000000" stroke="none" font-family="Arial" font-size="13px" font-style="normal" font-weight="bold" text-decoration="undefined" x="842" y="660" text-anchor="middle" dominant-baseline="central" transform="matrix(1 0 0 1 -492 -461)">singola API key in lista</text></g></g><g><path fill="#C0C0C0" stroke="none" paint-order="stroke fill markers" d=" M 561 109 C 561 89.11774720000005 616.5166847999999 73 685 73 C 753.4833152000001 73 809 89.11774720000005 809 109 C 809 128.88225279999995 753.4833152000001 145 685 145 C 616.5166847999999 145 561 128.88225279999995 561 109 Z" fill-opacity="0.2"/></g><g><path fill="#ffffff" stroke="none" paint-order="stroke fill markers" d=" M 554 102 C 554 82.11774720000005 609.5166847999999 66 678 66 C 746.4833152000001 66 802 82.11774720000005 802 102 C 802 121.88225279999995 746.4833152000001 138 678 138 C 609.5166847999999 138 554 121.88225279999995 554 102 Z"/></g><g><path fill="none" stroke="#000000" paint-order="fill stroke markers" d=" M 554 102 C 554 82.11774720000005 609.5166847999999 66 678 66 C 746.4833152000001 66 802 82.11774720000005 802 102 C 802 121.88225279999995 746.4833152000001 138 678 138 C 609.5166847999999 138 554 121.88225279999995 554 102 Z" stroke-miterlimit="10" stroke-dasharray=""/></g><g><g><path fill="none" stroke="none"/><text fill="#000000" stroke="none" font-family="Arial" font-size="13px" font-style="normal" font-weight="bold" text-decoration="undefined" x="1170" y="551" text-anchor="middle" dominant-baseline="central" transform="matrix(1 0 0 1 -492 -461)">UC52.1 - Visualizzazione</text><text fill="#000000" stroke="none" font-family="Arial" font-size="13px" font-style="normal" font-weight="bold" text-decoration="undefined" x="1170" y="564" text-anchor="middle" dominant-baseline="central" transform="matrix(1 0 0 1 -492 -461)">nome singola API key in</text><text fill="#000000" stroke="none" font-family="Arial" font-size="13px" font-style="normal" font-weight="bold" text-decoration="undefined" x="1170" y="577" text-anchor="middle" dominant-baseline="central" transform="matrix(1 0 0 1 -492 -461)">lista</text></g></g><g><path fill="#C0C0C0" stroke="none" paint-order="stroke fill markers" d=" M 521 328 C 521 308.11774720000005 585.4709888 292 665 292 C 744.5290112 292 809 308.11774720000005 809 328 C 809 347.88225279999995 744.5290112 364 665 364 C 585.4709888 364 521 347.88225279999995 521 328 Z" fill-opacity="0.2"/></g><g><path fill="#ffffff" stroke="none" paint-order="stroke fill markers" d=" M 514 321 C 514 301.11774720000005 578.4709888 285 658 285 C 737.5290112 285 802 301.11774720000005 802 321 C 802 340.88225279999995 737.5290112 357 658 357 C 578.4709888 357 514 340.88225279999995 514 321 Z"/></g><g><path fill="none" stroke="#000000" paint-order="fill stroke markers" d=" M 514 321 C 514 301.11774720000005 578.4709888 285 658 285 C 737.5290112 285 802 301.11774720000005 802 321 C 802 340.88225279999995 737.5290112 357 658 357 C 578.4709888 357 514 340.88225279999995 514 321 Z" stroke-miterlimit="10" stroke-dasharray=""/></g><g><g><path fill="none" stroke="none"/><text fill="#000000" stroke="none" font-family="Arial" font-size="13px" font-style="normal" font-weight="bold" text-decoration="undefined" x="1150" y="770" text-anchor="middle" dominant-baseline="central" transform="matrix(1 0 0 1 -492 -461)">UC52.3 - Visualizzazione data</text><text fill="#000000" stroke="none" font-family="Arial" font-size="13px" font-style="normal" font-weight="bold" text-decoration="undefined" x="1150" y="783" text-anchor="middle" dominant-baseline="central" transform="matrix(1 0 0 1 -492 -461)">di scadenza singola API key in</text><text fill="#000000" stroke="none" font-family="Arial" font-size="13px" font-style="normal" font-weight="bold" text-decoration="undefined" x="1150" y="796" text-anchor="middle" dominant-baseline="central" transform="matrix(1 0 0 1 -492 -461)">lista</text></g></g><g><path fill="none" stroke="#000000" paint-order="fill stroke markers" d=" M 450 164 L 553 136" stroke-miterlimit="10" stroke-dasharray="3"/></g><g><path fill="none" stroke="#000000" paint-order="fill stroke markers" d=" M 544.297485062302 142.72801856114745 L 553 136 L 542.0889651256402 134.6038202227129" stroke-miterlimit="10" stroke-dasharray=""/></g><g><rect fill="#ffffff" stroke="none" x="942" y="603" width="55.65625" height="13" transform="matrix(1 0 0 1 -492 -461)"/></g><g><g><path fill="none" stroke="none"/><text fill="#000000" stroke="none" font-family="Arial" font-size="13px" font-style="normal" font-weight="normal" text-decoration="undefined" x="969.828125" y="609.5" text-anchor="middle" dominant-baseline="central" transform="matrix(1 0 0 1 -492 -461)">«include»</text></g></g><g><path fill="none" stroke="#000000" paint-order="fill stroke markers" d=" M 475 196 L 617 201" stroke-miterlimit="10" stroke-dasharray="3"/></g><g><path fill="none" stroke="#000000" paint-order="fill stroke markers" d=" M 606.6954886459102 204.84929159111618 L 617 201 L 606.9917499578669 196.4354703315521" stroke-miterlimit="10" stroke-dasharray=""/></g><g><rect fill="#ffffff" stroke="none" x="1011" y="643" width="55.65625" height="13" transform="matrix(1 0 0 1 -492 -461)"/></g><g><g><path fill="none" stroke="none"/><text fill="#000000" stroke="none" font-family="Arial" font-size="13px" font-style="normal" font-weight="normal" text-decoration="undefined" x="1038.828125" y="649.5" text-anchor="middle" dominant-baseline="central" transform="matrix(1 0 0 1 -492 -461)">«include»</text></g></g><g><path fill="none" stroke="#000000" paint-order="fill stroke markers" d=" M 416 219 L 570 284" stroke-miterlimit="10" stroke-dasharray="3"/></g><g><path fill="none" stroke="#000000" paint-order="fill stroke markers" d=" M 559.0002464475365 283.9263672283056 L 570 284 L 562.274065903855 276.16993343948957" stroke-miterlimit="10" stroke-dasharray=""/></g><g><rect fill="#ffffff" stroke="none" x="889" y="703" width="55.65625" height="13" transform="matrix(1 0 0 1 -492 -461)"/></g><g><g><path fill="none" stroke="none"/><text fill="#000000" stroke="none" font-family="Arial" font-size="13px" font-style="normal" font-weight="normal" text-decoration="undefined" x="916.828125" y="709.5" text-anchor="middle" dominant-baseline="central" transform="matrix(1 0 0 1 -492 -461)">«include»</text></g></g><g><path fill="none" stroke="#000000" paint-order="fill stroke markers" d=" M 225 187 L 119 183" stroke-miterlimit="10" stroke-dasharray=""/></g><g><path fill="#C0C0C0" stroke="none" paint-order="stroke fill markers" d=" M 625 214.5 C 625 199.86445279999998 695.0674288 188 781.5 188 C 867.9325712 188 938 199.86445279999998 938 214.5 C 938 229.13554720000002 867.9325712 241 781.5 241 C 695.0674288 241 625 229.13554720000002 625 214.5 Z" fill-opacity="0.2"/></g><g><path fill="#ffffff" stroke="none" paint-order="stroke fill markers" d=" M 618 207.5 C 618 192.86445279999998 688.0674288 181 774.5 181 C 860.9325712 181 931 192.86445279999998 931 207.5 C 931 222.13554720000002 860.9325712 234 774.5 234 C 688.0674288 234 618 222.13554720000002 618 207.5 Z"/></g><g><path fill="none" stroke="#000000" paint-order="fill stroke markers" d=" M 618 207.5 C 618 192.86445279999998 688.0674288 181 774.5 181 C 860.9325712 181 931 192.86445279999998 931 207.5 C 931 222.13554720000002 860.9325712 234 774.5 234 C 688.0674288 234 618 222.13554720000002 618 207.5 Z" stroke-miterlimit="10" stroke-dasharray=""/></g><g><g><path fill="none" stroke="none"/><text fill="#000000" stroke="none" font-family="Arial" font-size="13px" font-style="normal" font-weight="bold" text-decoration="undefined" x="1266.5" y="663" text-anchor="middle" dominant-baseline="central" transform="matrix(1 0 0 1 -492 -461)">UC52.2 - Visualizzazione data di</text><text fill="#000000" stroke="none" font-family="Arial" font-size="13px" font-style="normal" font-weight="bold" text-decoration="undefined" x="1266.5" y="676" text-anchor="middle" dominant-baseline="central" transform="matrix(1 0 0 1 -492 -461)">creazione singola API key in lista</text></g></g></g></svg>