<svg version="1.1" xmlns="http://www.w3.org/2000/svg" xmlns:xlink="http://www.w3.org/1999/xlink" width="916" height="257"><defs/><g><g><path fill="#ffffff" stroke="none" paint-order="stroke fill markers" d=" M 55.2781640625 83.85000000000002 C 55.2781640625 78.96227952000004 59.235966430500014 75 64.1181640625 75 C 69.00036169449999 75 72.95816406249997 78.96227952000004 72.95816406249997 83.85000000000002 C 72.95816406249997 88.73772048000001 69.00036169449999 92.70000000000005 64.1181640625 92.70000000000005 C 59.235966430500014 92.70000000000005 55.2781640625 88.73772048000001 55.2781640625 83.85000000000002 Z"/></g><g><path fill="none" stroke="#000000" paint-order="fill stroke markers" d=" M 55.2781640625 83.85000000000002 C 55.2781640625 78.96227952000004 59.235966430500014 75 64.1181640625 75 C 69.00036169449999 75 72.95816406249997 78.96227952000004 72.95816406249997 83.85000000000002 C 72.95816406249997 88.73772048000001 69.00036169449999 92.70000000000005 64.1181640625 92.70000000000005 C 59.235966430500014 92.70000000000005 55.2781640625 88.73772048000001 55.2781640625 83.85000000000002 Z" stroke-miterlimit="10" stroke-dasharray=""/></g><g><path fill="none" stroke="#000000" paint-order="fill stroke markers" d=" M 64.1181640625 92.70000000000005 L 64.1181640625 110.29999999999995" stroke-miterlimit="10" stroke-dasharray=""/></g><g><path fill="none" stroke="#000000" paint-order="fill stroke markers" d=" M 54.758164062499986 99.29999999999995 L 73.47816406250001 99.29999999999995" stroke-miterlimit="10" stroke-dasharray=""/></g><g><path fill="none" stroke="#000000" paint-order="fill stroke markers" d=" M 64.1181640625 110.29999999999995 L 51.1181640625 128" stroke-miterlimit="10" stroke-dasharray=""/></g><g><path fill="none" stroke="#000000" paint-order="fill stroke markers" d=" M 64.1181640625 110.29999999999995 L 77.1181640625 128" stroke-miterlimit="10" stroke-dasharray=""/></g><g><g><path fill="none" stroke="none"/><text fill="#000000" stroke="none" font-family="Arial" font-size="13px" font-style="normal" font-weight="bold" text-decoration="undefined" x="255.6181640625" y="621.5" text-anchor="middle" dominant-baseline="central" transform="matrix(1 0 0 1 -191 -479)">Admin generico</text></g></g><g><path fill="#C0C0C0" stroke="none" paint-order="stroke fill markers" d=" M 233 131.5 C 233 116.86445279999998 288.5166848 105 357 105 C 425.4833152 105 481 116.86445279999998 481 131.5 C 481 146.13554720000002 425.4833152 158 357 158 C 288.5166848 158 233 146.13554720000002 233 131.5 Z" fill-opacity="0.2"/></g><g><path fill="#ffffff" stroke="none" paint-order="stroke fill markers" d=" M 226 124.5 C 226 109.86445279999998 281.5166848 98 350 98 C 418.4833152 98 474 109.86445279999998 474 124.5 C 474 139.13554720000002 418.4833152 151 350 151 C 281.5166848 151 226 139.13554720000002 226 124.5 Z"/></g><g><path fill="none" stroke="#000000" paint-order="fill stroke markers" d=" M 226 124.5 C 226 109.86445279999998 281.5166848 98 350 98 C 418.4833152 98 474 109.86445279999998 474 124.5 C 474 139.13554720000002 418.4833152 151 350 151 C 281.5166848 151 226 139.13554720000002 226 124.5 Z" stroke-miterlimit="10" stroke-dasharray=""/></g><g><g><path fill="none" stroke="none"/><text fill="#000000" stroke="none" font-family="Arial" font-size="13px" font-style="normal" font-weight="bold" text-decoration="undefined" x="541" y="598" text-anchor="middle" dominant-baseline="central" transform="matrix(1 0 0 1 -191 -479)">UC52 - Visualizzazione</text><text fill="#000000" stroke="none" font-family="Arial" font-size="13px" font-style="normal" font-weight="bold" text-decoration="undefined" x="541" y="611" text-anchor="middle" dominant-baseline="central" transform="matrix(1 0 0 1 -191 -479)">singola API key in lista</text></g></g><g><path fill="#C0C0C0" stroke="none" paint-order="stroke fill markers" d=" M 593 53 C 593 33.11774720000005 650.3075456 17 721 17 C 791.6924544 17 849 33.11774720000005 849 53 C 849 72.88225279999995 791.6924544 89 721 89 C 650.3075456 89 593 72.88225279999995 593 53 Z" fill-opacity="0.2"/></g><g><path fill="#ffffff" stroke="none" paint-order="stroke fill markers" d=" M 586 46 C 586 26.117747199999997 643.3075456 10 714 10 C 784.6924544 10 842 26.117747199999997 842 46 C 842 65.88225279999995 784.6924544 82 714 82 C 643.3075456 82 586 65.88225279999995 586 46 Z"/></g><g><path fill="none" stroke="#000000" paint-order="fill stroke markers" d=" M 586 46 C 586 26.117747199999997 643.3075456 10 714 10 C 784.6924544 10 842 26.117747199999997 842 46 C 842 65.88225279999995 784.6924544 82 714 82 C 643.3075456 82 586 65.88225279999995 586 46 Z" stroke-miterlimit="10" stroke-dasharray=""/></g><g><g><path fill="none" stroke="none"/><text fill="#000000" stroke="none" font-family="Arial" font-size="13px" font-style="normal" font-weight="bold" text-decoration="undefined" x="905" y="513" text-anchor="middle" dominant-baseline="central" transform="matrix(1 0 0 1 -191 -479)">UC52.1 - Visualizzazione</text><text fill="#000000" stroke="none" font-family="Arial" font-size="13px" font-style="normal" font-weight="bold" text-decoration="undefined" x="905" y="526" text-anchor="middle" dominant-baseline="central" transform="matrix(1 0 0 1 -191 -479)">nome singola API key in</text><text fill="#000000" stroke="none" font-family="Arial" font-size="13px" font-style="normal" font-weight="bold" text-decoration="undefined" x="905" y="539" text-anchor="middle" dominant-baseline="central" transform="matrix(1 0 0 1 -191 -479)">lista</text></g></g><g><path fill="#C0C0C0" stroke="none" paint-order="stroke fill markers" d=" M 601 141 C 601 121.11774720000005 670.8435712 105 757 105 C 843.1564288 105 913 121.11774720000005 913 141 C 913 160.88225279999995 843.1564288 177 757 177 C 670.8435712 177 601 160.88225279999995 601 141 Z" fill-opacity="0.2"/></g><g><path fill="#ffffff" stroke="none" paint-order="stroke fill markers" d=" M 594 134 C 594 114.11774720000005 663.8435712 98 750 98 C 836.1564288 98 906 114.11774720000005 906 134 C 906 153.88225279999995 836.1564288 170 750 170 C 663.8435712 170 594 153.88225279999995 594 134 Z"/></g><g><path fill="none" stroke="#000000" paint-order="fill stroke markers" d=" M 594 134 C 594 114.11774720000005 663.8435712 98 750 98 C 836.1564288 98 906 114.11774720000005 906 134 C 906 153.88225279999995 836.1564288 170 750 170 C 663.8435712 170 594 153.88225279999995 594 134 Z" stroke-miterlimit="10" stroke-dasharray=""/></g><g><g><path fill="none" stroke="none"/><text fill="#000000" stroke="none" font-family="Arial" font-size="13px" font-style="normal" font-weight="bold" text-decoration="undefined" x="941" y="607.5" text-anchor="middle" dominant-baseline="central" transform="matrix(1 0 0 1 -191 -479)">UC52.2 - Visualizzazione data di</text><text fill="#000000" stroke="none" font-family="Arial" font-size="13px" font-style="normal" font-weight="bold" text-decoration="undefined" x="941" y="620.5" text-anchor="middle" dominant-baseline="central" transform="matrix(1 0 0 1 -191 -479)">creazione singola API key in lista</text></g></g><g><path fill="#C0C0C0" stroke="none" paint-order="stroke fill markers" d=" M 585 227.5 C 585 212.86445279999998 658.4252928 201 749 201 C 839.5747071999999 201 913 212.86445279999998 913 227.5 C 913 242.13554720000002 839.5747071999999 254 749 254 C 658.4252928 254 585 242.13554720000002 585 227.5 Z" fill-opacity="0.2"/></g><g><path fill="#ffffff" stroke="none" paint-order="stroke fill markers" d=" M 578 220.5 C 578 205.86445279999998 651.4252928 194 742 194 C 832.5747072 194 906 205.86445279999998 906 220.5 C 906 235.13554720000002 832.5747072 247 742 247 C 651.4252928 247 578 235.13554720000002 578 220.5 Z"/></g><g><path fill="none" stroke="#000000" paint-order="fill stroke markers" d=" M 578 220.5 C 578 205.86445279999998 651.4252928 194 742 194 C 832.5747072 194 906 205.86445279999998 906 220.5 C 906 235.13554720000002 832.5747072 247 742 247 C 651.4252928 247 578 235.13554720000002 578 220.5 Z" stroke-miterlimit="10" stroke-dasharray=""/></g><g><g><path fill="none" stroke="none"/><text fill="#000000" stroke="none" font-family="Arial" font-size="13px" font-style="normal" font-weight="bold" text-decoration="undefined" x="933" y="694" text-anchor="middle" dominant-baseline="central" transform="matrix(1 0 0 1 -191 -479)">UC52.3 - Visualizzazione data di</text><text fill="#000000" stroke="none" font-family="Arial" font-size="13px" font-style="normal" font-weight="bold" text-decoration="undefined" x="933" y="707" text-anchor="middle" dominant-baseline="central" transform="matrix(1 0 0 1 -191 -479)">scadenza singola API key in lista</text></g></g><g><path fill="none" stroke="#000000" paint-order="fill stroke markers" d=" M 475 97 L 585 74" stroke-miterlimit="10" stroke-dasharray="3"/></g><g><path fill="none" stroke="#000000" paint-order="fill stroke markers" d=" M 575.9139881252822 80.20035387800476 L 585 74 L 574.1909071165521 71.95953166233903" stroke-miterlimit="10" stroke-dasharray=""/></g><g><rect fill="#ffffff" stroke="none" x="671" y="554" width="55.65625" height="13" transform="matrix(1 0 0 1 -191 -479)"/></g><g><g><path fill="none" stroke="none"/><text fill="#000000" stroke="none" font-family="Arial" font-size="13px" font-style="normal" font-weight="normal" text-decoration="undefined" x="698.828125" y="560.5" text-anchor="middle" dominant-baseline="central" transform="matrix(1 0 0 1 -191 -479)">«include»</text></g></g><g><path fill="none" stroke="#000000" paint-order="fill stroke markers" d=" M 475 127 L 593 130" stroke-miterlimit="10" stroke-dasharray="3"/></g><g><path fill="none" stroke="#000000" paint-order="fill stroke markers" d=" M 582.7336208876695 133.94986834235078 L 593 130 L 582.9475950217688 125.53355240110955" stroke-miterlimit="10" stroke-dasharray=""/></g><g><rect fill="#ffffff" stroke="none" x="698" y="591" width="55.65625" height="13" transform="matrix(1 0 0 1 -191 -479)"/></g><g><g><path fill="none" stroke="none"/><text fill="#000000" stroke="none" font-family="Arial" font-size="13px" font-style="normal" font-weight="normal" text-decoration="undefined" x="725.828125" y="597.5" text-anchor="middle" dominant-baseline="central" transform="matrix(1 0 0 1 -191 -479)">«include»</text></g></g><g><path fill="none" stroke="#000000" paint-order="fill stroke markers" d=" M 464 152 L 632 193" stroke-miterlimit="10" stroke-dasharray="3"/></g><g><path fill="none" stroke="#000000" paint-order="fill stroke markers" d=" M 621.1290531247095 194.6800339385295 L 632 193 L 623.1251163560056 186.5010431371212" stroke-miterlimit="10" stroke-dasharray=""/></g><g><rect fill="#ffffff" stroke="none" x="682" y="641" width="55.65625" height="13" transform="matrix(1 0 0 1 -191 -479)"/></g><g><g><path fill="none" stroke="none"/><text fill="#000000" stroke="none" font-family="Arial" font-size="13px" font-style="normal" font-weight="normal" text-decoration="undefined" x="709.828125" y="647.5" text-anchor="middle" dominant-baseline="central" transform="matrix(1 0 0 1 -191 -479)">«include»</text></g></g><g><path fill="none" stroke="#000000" paint-order="fill stroke markers" d=" M 225 120 L 119 116" stroke-miterlimit="10" stroke-dasharray=""/></g></g></svg>