<svg version="1.1" xmlns="http://www.w3.org/2000/svg" xmlns:xlink="http://www.w3.org/1999/xlink" width="909" height="412"><defs/><g><g><rect fill="#C0C0C0" stroke="none" x="729" y="478" width="704" height="392" transform="matrix(1 0 0 1 -528 -461)" fill-opacity="0.2"/></g><g><rect fill="#ffffff" stroke="none" x="722" y="471" width="704" height="392" transform="matrix(1 0 0 1 -528 -461)"/></g><g><path fill="none" stroke="#000000" paint-order="fill stroke markers" d=" M 194 10 L 898 10 L 898 402 L 194 402 L 194 10 Z Z" stroke-miterlimit="10" stroke-dasharray=""/></g><g><g><path fill="none" stroke="none"/><text fill="#000000" stroke="none" font-family="Arial" font-size="13px" font-style="normal" font-weight="bold" text-decoration="undefined" x="1074.5" y="484.5" text-anchor="middle" dominant-baseline="central" transform="matrix(1 0 0 1 -528 -461)">Dashboard admin</text></g></g><g><path fill="#ffffff" stroke="none" paint-order="stroke fill markers" d=" M 55.27816406249997 179.85000000000002 C 55.27816406249997 174.96227952000004 59.23596643049996 171 64.1181640625 171 C 69.00036169450004 171 72.95816406250003 174.96227952000004 72.95816406250003 179.85000000000002 C 72.95816406250003 184.73772048 69.00036169450004 188.70000000000005 64.1181640625 188.70000000000005 C 59.23596643049996 188.70000000000005 55.27816406249997 184.73772048 55.27816406249997 179.85000000000002 Z"/></g><g><path fill="none" stroke="#000000" paint-order="fill stroke markers" d=" M 55.27816406249997 179.85000000000002 C 55.27816406249997 174.96227952000004 59.23596643049996 171 64.1181640625 171 C 69.00036169450004 171 72.95816406250003 174.96227952000004 72.95816406250003 179.85000000000002 C 72.95816406250003 184.73772048 69.00036169450004 188.70000000000005 64.1181640625 188.70000000000005 C 59.23596643049996 188.70000000000005 55.27816406249997 184.73772048 55.27816406249997 179.85000000000002 Z" stroke-miterlimit="10" stroke-dasharray=""/></g><g><path fill="none" stroke="#000000" paint-order="fill stroke markers" d=" M 64.1181640625 188.70000000000005 L 64.1181640625 206.29999999999995" stroke-miterlimit="10" stroke-dasharray=""/></g><g><path fill="none" stroke="#000000" paint-order="fill stroke markers" d=" M 54.758164062499986 195.29999999999995 L 73.47816406250001 195.29999999999995" stroke-miterlimit="10" stroke-dasharray=""/></g><g><path fill="none" stroke="#000000" paint-order="fill stroke markers" d=" M 64.1181640625 206.29999999999995 L 51.1181640625 224" stroke-miterlimit="10" stroke-dasharray=""/></g><g><path fill="none" stroke="#000000" paint-order="fill stroke markers" d=" M 64.1181640625 206.29999999999995 L 77.1181640625 224" stroke-miterlimit="10" stroke-dasharray=""/></g><g><g><path fill="none" stroke="none"/><text fill="#000000" stroke="none" font-family="Arial" font-size="13px" font-style="normal" font-weight="bold" text-decoration="undefined" x="592.6181640625" y="699.5" text-anchor="middle" dominant-baseline="central" transform="matrix(1 0 0 1 -528 -461)">Admin generico</text></g></g><g><path fill="#C0C0C0" stroke="none" paint-order="stroke fill markers" d=" M 249 237 C 249 217.11774720000005 304.5166848 201 373 201 C 441.4833152 201 497 217.11774720000005 497 237 C 497 256.88225279999995 441.4833152 273 373 273 C 304.5166848 273 249 256.88225279999995 249 237 Z" fill-opacity="0.2"/></g><g><path fill="#ffffff" stroke="none" paint-order="stroke fill markers" d=" M 242 230 C 242 210.11774720000005 297.5166848 194 366 194 C 434.4833152 194 490 210.11774720000005 490 230 C 490 249.88225279999995 434.4833152 266 366 266 C 297.5166848 266 242 249.88225279999995 242 230 Z"/></g><g><path fill="none" stroke="#000000" paint-order="fill stroke markers" d=" M 242 230 C 242 210.11774720000005 297.5166848 194 366 194 C 434.4833152 194 490 210.11774720000005 490 230 C 490 249.88225279999995 434.4833152 266 366 266 C 297.5166848 266 242 249.88225279999995 242 230 Z" stroke-miterlimit="10" stroke-dasharray=""/></g><g><g><path fill="none" stroke="none"/><text fill="#000000" stroke="none" font-family="Arial" font-size="13px" font-style="normal" font-weight="bold" text-decoration="undefined" x="894" y="685.5" text-anchor="middle" dominant-baseline="central" transform="matrix(1 0 0 1 -528 -461)">UC53 - Visualizzazione</text><text fill="#000000" stroke="none" font-family="Arial" font-size="13px" font-style="normal" font-weight="bold" text-decoration="undefined" x="894" y="698.5" text-anchor="middle" dominant-baseline="central" transform="matrix(1 0 0 1 -528 -461)">dettagli APi key</text></g></g><g><path fill="none" stroke="#000000" paint-order="fill stroke markers" d=" M 241 222 L 119 214" stroke-miterlimit="10" stroke-dasharray=""/></g><g><path fill="#C0C0C0" stroke="none" paint-order="stroke fill markers" d=" M 345 120 C 345 100.11774720000005 400.5166848 84 469 84 C 537.4833152000001 84 593 100.11774720000005 593 120 C 593 139.88225279999995 537.4833152000001 156 469 156 C 400.5166848 156 345 139.88225279999995 345 120 Z" fill-opacity="0.2"/></g><g><path fill="#ffffff" stroke="none" paint-order="stroke fill markers" d=" M 338 113 C 338 93.11774720000005 393.5166848 77 462 77 C 530.4833152000001 77 586 93.11774720000005 586 113 C 586 132.88225279999995 530.4833152000001 149 462 149 C 393.5166848 149 338 132.88225279999995 338 113 Z"/></g><g><path fill="none" stroke="#000000" paint-order="fill stroke markers" d=" M 338 113 C 338 93.11774720000005 393.5166848 77 462 77 C 530.4833152000001 77 586 93.11774720000005 586 113 C 586 132.88225279999995 530.4833152000001 149 462 149 C 393.5166848 149 338 132.88225279999995 338 113 Z" stroke-miterlimit="10" stroke-dasharray=""/></g><g><g><path fill="none" stroke="none"/><text fill="#000000" stroke="none" font-family="Arial" font-size="13px" font-style="normal" font-weight="bold" text-decoration="undefined" x="990" y="568.5" text-anchor="middle" dominant-baseline="central" transform="matrix(1 0 0 1 -528 -461)">UC53.1 - Visualizzazione</text><text fill="#000000" stroke="none" font-family="Arial" font-size="13px" font-style="normal" font-weight="bold" text-decoration="undefined" x="990" y="581.5" text-anchor="middle" dominant-baseline="central" transform="matrix(1 0 0 1 -528 -461)">nome API key</text></g></g><g><path fill="#C0C0C0" stroke="none" paint-order="stroke fill markers" d=" M 417 358.5 C 417 343.8644528 459.9806592 332 513 332 C 566.0193408 332 609 343.8644528 609 358.5 C 609 373.1355472 566.0193408 385 513 385 C 459.9806592 385 417 373.1355472 417 358.5 Z" fill-opacity="0.2"/></g><g><path fill="#ffffff" stroke="none" paint-order="stroke fill markers" d=" M 410 351.5 C 410 336.8644528 452.9806592 325 506 325 C 559.0193408 325 602 336.8644528 602 351.5 C 602 366.1355472 559.0193408 378 506 378 C 452.9806592 378 410 366.1355472 410 351.5 Z"/></g><g><path fill="none" stroke="#000000" paint-order="fill stroke markers" d=" M 410 351.5 C 410 336.8644528 452.9806592 325 506 325 C 559.0193408 325 602 336.8644528 602 351.5 C 602 366.1355472 559.0193408 378 506 378 C 452.9806592 378 410 366.1355472 410 351.5 Z" stroke-miterlimit="10" stroke-dasharray=""/></g><g><g><path fill="none" stroke="none"/><text fill="#000000" stroke="none" font-family="Arial" font-size="13px" font-style="normal" font-weight="bold" text-decoration="undefined" x="1034" y="807" text-anchor="middle" dominant-baseline="central" transform="matrix(1 0 0 1 -528 -461)">UC53.4 - Grafico</text><text fill="#000000" stroke="none" font-family="Arial" font-size="13px" font-style="normal" font-weight="bold" text-decoration="undefined" x="1034" y="820" text-anchor="middle" dominant-baseline="central" transform="matrix(1 0 0 1 -528 -461)">utilizzo API key</text></g></g><g><path fill="none" stroke="#000000" paint-order="fill stroke markers" d=" M 396 193 L 432 150" stroke-miterlimit="10" stroke-dasharray="3"/></g><g><path fill="none" stroke="#000000" paint-order="fill stroke markers" d=" M 428.7038865202393 160.49455267882058 L 432 150 L 422.2485264421873 155.09006517161424" stroke-miterlimit="10" stroke-dasharray=""/></g><g><rect fill="#ffffff" stroke="none" x="892" y="606" width="55.65625" height="13" transform="matrix(1 0 0 1 -528 -461)"/></g><g><g><path fill="none" stroke="none"/><text fill="#000000" stroke="none" font-family="Arial" font-size="13px" font-style="normal" font-weight="normal" text-decoration="undefined" x="919.828125" y="612.5" text-anchor="middle" dominant-baseline="central" transform="matrix(1 0 0 1 -528 -461)">«include»</text></g></g><g><path fill="none" stroke="#000000" paint-order="fill stroke markers" d=" M 491 212 L 609 195" stroke-miterlimit="10" stroke-dasharray="3"/></g><g><path fill="none" stroke="#000000" paint-order="fill stroke markers" d=" M 599.5414357314933 200.61565329935252 L 609 195 L 598.3409185366854 192.28265159421494" stroke-miterlimit="10" stroke-dasharray=""/></g><g><rect fill="#ffffff" stroke="none" x="1029" y="643" width="55.65625" height="13" transform="matrix(1 0 0 1 -528 -461)"/></g><g><g><path fill="none" stroke="none"/><text fill="#000000" stroke="none" font-family="Arial" font-size="13px" font-style="normal" font-weight="normal" text-decoration="undefined" x="1056.828125" y="649.5" text-anchor="middle" dominant-baseline="central" transform="matrix(1 0 0 1 -528 -461)">«include»</text></g></g><g><path fill="none" stroke="#000000" paint-order="fill stroke markers" d=" M 491 249 L 617 267" stroke-miterlimit="10" stroke-dasharray="3"/></g><g><path fill="none" stroke="#000000" paint-order="fill stroke markers" d=" M 606.3441494602912 269.72999070976175 L 617 267 L 607.5347808806127 261.3955707675103" stroke-miterlimit="10" stroke-dasharray=""/></g><g><rect fill="#ffffff" stroke="none" x="1065" y="698" width="55.65625" height="13" transform="matrix(1 0 0 1 -528 -461)"/></g><g><g><path fill="none" stroke="none"/><text fill="#000000" stroke="none" font-family="Arial" font-size="13px" font-style="normal" font-weight="normal" text-decoration="undefined" x="1092.828125" y="704.5" text-anchor="middle" dominant-baseline="central" transform="matrix(1 0 0 1 -528 -461)">«include»</text></g></g><g><path fill="none" stroke="#000000" paint-order="fill stroke markers" d=" M 409 267 L 475 324" stroke-miterlimit="10" stroke-dasharray="3"/></g><g><path fill="none" stroke="#000000" paint-order="fill stroke markers" d=" M 464.5572293973661 320.5433336665559 L 475 324 L 470.06007829717964 314.1716138878245" stroke-miterlimit="10" stroke-dasharray=""/></g><g><rect fill="#ffffff" stroke="none" x="974" y="743" width="55.65625" height="13" transform="matrix(1 0 0 1 -528 -461)"/></g><g><g><path fill="none" stroke="none"/><text fill="#000000" stroke="none" font-family="Arial" font-size="13px" font-style="normal" font-weight="normal" text-decoration="undefined" x="1001.828125" y="749.5" text-anchor="middle" dominant-baseline="central" transform="matrix(1 0 0 1 -528 -461)">«include»</text></g></g><g><path fill="#C0C0C0" stroke="none" paint-order="stroke fill markers" d=" M 617 184 C 617 164.11774720000005 670.7258240000001 148 737 148 C 803.2741759999999 148 857 164.11774720000005 857 184 C 857 203.88225279999995 803.2741759999999 220 737 220 C 670.7258240000001 220 617 203.88225279999995 617 184 Z" fill-opacity="0.2"/></g><g><path fill="#ffffff" stroke="none" paint-order="stroke fill markers" d=" M 610 177 C 610 157.11774720000005 663.7258240000001 141 730 141 C 796.2741759999999 141 850 157.11774720000005 850 177 C 850 196.88225279999995 796.2741759999999 213 730 213 C 663.7258240000001 213 610 196.88225279999995 610 177 Z"/></g><g><path fill="none" stroke="#000000" paint-order="fill stroke markers" d=" M 610 177 C 610 157.11774720000005 663.7258240000001 141 730 141 C 796.2741759999999 141 850 157.11774720000005 850 177 C 850 196.88225279999995 796.2741759999999 213 730 213 C 663.7258240000001 213 610 196.88225279999995 610 177 Z" stroke-miterlimit="10" stroke-dasharray=""/></g><g><g><path fill="none" stroke="none"/><text fill="#000000" stroke="none" font-family="Arial" font-size="13px" font-style="normal" font-weight="bold" text-decoration="undefined" x="1258" y="632.5" text-anchor="middle" dominant-baseline="central" transform="matrix(1 0 0 1 -528 -461)">UC53.2 - Visualizzazione</text><text fill="#000000" stroke="none" font-family="Arial" font-size="13px" font-style="normal" font-weight="bold" text-decoration="undefined" x="1258" y="645.5" text-anchor="middle" dominant-baseline="central" transform="matrix(1 0 0 1 -528 -461)">data di creazione API key</text></g></g><g><path fill="#C0C0C0" stroke="none" paint-order="stroke fill markers" d=" M 625 293 C 625 273.11774720000005 680.5166847999999 257 749 257 C 817.4833152000001 257 873 273.11774720000005 873 293 C 873 312.88225279999995 817.4833152000001 329 749 329 C 680.5166847999999 329 625 312.88225279999995 625 293 Z" fill-opacity="0.2"/></g><g><path fill="#ffffff" stroke="none" paint-order="stroke fill markers" d=" M 618 286 C 618 266.11774720000005 673.5166847999999 250 742 250 C 810.4833152000001 250 866 266.11774720000005 866 286 C 866 305.88225279999995 810.4833152000001 322 742 322 C 673.5166847999999 322 618 305.88225279999995 618 286 Z"/></g><g><path fill="none" stroke="#000000" paint-order="fill stroke markers" d=" M 618 286 C 618 266.11774720000005 673.5166847999999 250 742 250 C 810.4833152000001 250 866 266.11774720000005 866 286 C 866 305.88225279999995 810.4833152000001 322 742 322 C 673.5166847999999 322 618 305.88225279999995 618 286 Z" stroke-miterlimit="10" stroke-dasharray=""/></g><g><g><path fill="none" stroke="none"/><text fill="#000000" stroke="none" font-family="Arial" font-size="13px" font-style="normal" font-weight="bold" text-decoration="undefined" x="1270" y="741.5" text-anchor="middle" dominant-baseline="central" transform="matrix(1 0 0 1 -528 -461)">UC53.3 - Visualizzazione</text><text fill="#000000" stroke="none" font-family="Arial" font-size="13px" font-style="normal" font-weight="bold" text-decoration="undefined" x="1270" y="754.5" text-anchor="middle" dominant-baseline="central" transform="matrix(1 0 0 1 -528 -461)">data di scadenza API key</text></g></g></g></svg>
