<svg version="1.1" xmlns="http://www.w3.org/2000/svg" xmlns:xlink="http://www.w3.org/1999/xlink" width="1061" height="364"><defs/><g><g><rect fill="#C0C0C0" stroke="none" x="283" y="297" width="872" height="344" transform="matrix(1 0 0 1 -98 -280)" fill-opacity="0.2"/></g><g><rect fill="#ffffff" stroke="none" x="276" y="290" width="872" height="344" transform="matrix(1 0 0 1 -98 -280)"/></g><g><path fill="none" stroke="#000000" paint-order="fill stroke markers" d=" M 178 10 L 1050 10 L 1050 354 L 178 354 L 178 10 Z Z" stroke-miterlimit="10" stroke-dasharray=""/></g><g><g><path fill="none" stroke="none"/><text fill="#000000" stroke="none" font-family="Arial" font-size="13px" font-style="normal" font-weight="bold" text-decoration="undefined" x="712.5" y="303.5" text-anchor="middle" dominant-baseline="central" transform="matrix(1 0 0 1 -98 -280)">sistema cloud</text></g></g><g><path fill="#ffffff" stroke="none" paint-order="stroke fill markers" d=" M 55.2781640625 147.85000000000002 C 55.2781640625 142.96227952000004 59.235966430499985 139 64.1181640625 139 C 69.00036169450001 139 72.9581640625 142.96227952000004 72.9581640625 147.85000000000002 C 72.9581640625 152.73772048 69.00036169450001 156.7 64.1181640625 156.7 C 59.235966430499985 156.7 55.2781640625 152.73772048 55.2781640625 147.85000000000002 Z"/></g><g><path fill="none" stroke="#000000" paint-order="fill stroke markers" d=" M 55.2781640625 147.85000000000002 C 55.2781640625 142.96227952000004 59.235966430499985 139 64.1181640625 139 C 69.00036169450001 139 72.9581640625 142.96227952000004 72.9581640625 147.85000000000002 C 72.9581640625 152.73772048 69.00036169450001 156.7 64.1181640625 156.7 C 59.235966430499985 156.7 55.2781640625 152.73772048 55.2781640625 147.85000000000002 Z" stroke-miterlimit="10" stroke-dasharray=""/></g><g><path fill="none" stroke="#000000" paint-order="fill stroke markers" d=" M 64.1181640625 156.7 L 64.1181640625 174.3" stroke-miterlimit="10" stroke-dasharray=""/></g><g><path fill="none" stroke="#000000" paint-order="fill stroke markers" d=" M 54.758164062499986 163.3 L 73.47816406250001 163.3" stroke-miterlimit="10" stroke-dasharray=""/></g><g><path fill="none" stroke="#000000" paint-order="fill stroke markers" d=" M 64.1181640625 174.3 L 51.1181640625 192" stroke-miterlimit="10" stroke-dasharray=""/></g><g><path fill="none" stroke="#000000" paint-order="fill stroke markers" d=" M 64.1181640625 174.3 L 77.1181640625 192" stroke-miterlimit="10" stroke-dasharray=""/></g><g><g><path fill="none" stroke="none"/><text fill="#000000" stroke="none" font-family="Arial" font-size="13px" font-style="normal" font-weight="bold" text-decoration="undefined" x="162.6181640625" y="486.5" text-anchor="middle" dominant-baseline="central" transform="matrix(1 0 0 1 -98 -280)">Admin generico</text></g></g><g><path fill="#C0C0C0" stroke="none" paint-order="stroke fill markers" d=" M 225 195.5 C 225 180.86445279999998 304.24559039999997 169 402 169 C 499.75440960000003 169 579 180.86445279999998 579 195.5 C 579 210.13554720000002 499.75440960000003 222 402 222 C 304.24559039999997 222 225 210.13554720000002 225 195.5 Z" fill-opacity="0.2"/></g><g><path fill="#ffffff" stroke="none" paint-order="stroke fill markers" d=" M 218 188.5 C 218 173.86445279999998 297.24559039999997 162 395 162 C 492.75440960000003 162 572 173.86445279999998 572 188.5 C 572 203.13554720000002 492.75440960000003 215 395 215 C 297.24559039999997 215 218 203.13554720000002 218 188.5 Z"/></g><g><path fill="none" stroke="#000000" paint-order="fill stroke markers" d=" M 218 188.5 C 218 173.86445279999998 297.24559039999997 162 395 162 C 492.75440960000003 162 572 173.86445279999998 572 188.5 C 572 203.13554720000002 492.75440960000003 215 395 215 C 297.24559039999997 215 218 203.13554720000002 218 188.5 Z" stroke-miterlimit="10" stroke-dasharray=""/></g><g><g><path fill="none" stroke="none"/><text fill="#000000" stroke="none" font-family="Arial" font-size="13px" font-style="normal" font-weight="bold" text-decoration="undefined" x="493" y="463" text-anchor="middle" dominant-baseline="central" transform="matrix(1 0 0 1 -98 -280)">UC53 - Visualizzazione dettagli APi</text><text fill="#000000" stroke="none" font-family="Arial" font-size="13px" font-style="normal" font-weight="bold" text-decoration="undefined" x="493" y="476" text-anchor="middle" dominant-baseline="central" transform="matrix(1 0 0 1 -98 -280)">key</text></g></g><g><path fill="none" stroke="#000000" paint-order="fill stroke markers" d=" M 217 183 L 119 180" stroke-miterlimit="10" stroke-dasharray=""/></g><g><path fill="#C0C0C0" stroke="none" paint-order="stroke fill markers" d=" M 337 83.5 C 337 68.86445279999998 394.3075456 57 465 57 C 535.6924544 57 593 68.86445279999998 593 83.5 C 593 98.13554720000002 535.6924544 110 465 110 C 394.3075456 110 337 98.13554720000002 337 83.5 Z" fill-opacity="0.2"/></g><g><path fill="#ffffff" stroke="none" paint-order="stroke fill markers" d=" M 330 76.5 C 330 61.86445279999998 387.3075456 50 458 50 C 528.6924544 50 586 61.86445279999998 586 76.5 C 586 91.13554720000002 528.6924544 103 458 103 C 387.3075456 103 330 91.13554720000002 330 76.5 Z"/></g><g><path fill="none" stroke="#000000" paint-order="fill stroke markers" d=" M 330 76.5 C 330 61.86445279999998 387.3075456 50 458 50 C 528.6924544 50 586 61.86445279999998 586 76.5 C 586 91.13554720000002 528.6924544 103 458 103 C 387.3075456 103 330 91.13554720000002 330 76.5 Z" stroke-miterlimit="10" stroke-dasharray=""/></g><g><g><path fill="none" stroke="none"/><text fill="#000000" stroke="none" font-family="Arial" font-size="13px" font-style="normal" font-weight="bold" text-decoration="undefined" x="556" y="351" text-anchor="middle" dominant-baseline="central" transform="matrix(1 0 0 1 -98 -280)">UC53.1 - Visualizzazione</text><text fill="#000000" stroke="none" font-family="Arial" font-size="13px" font-style="normal" font-weight="bold" text-decoration="undefined" x="556" y="364" text-anchor="middle" dominant-baseline="central" transform="matrix(1 0 0 1 -98 -280)">nome API key</text></g></g><g><path fill="#C0C0C0" stroke="none" paint-order="stroke fill markers" d=" M 697 139.5 C 697 124.86445279999998 772.2161536 113 865 113 C 957.7838463999999 113 1033 124.86445279999998 1033 139.5 C 1033 154.13554720000002 957.7838463999999 166 865 166 C 772.2161536 166 697 154.13554720000002 697 139.5 Z" fill-opacity="0.2"/></g><g><path fill="#ffffff" stroke="none" paint-order="stroke fill markers" d=" M 690 132.5 C 690 117.86445279999998 765.2161536 106 858 106 C 950.7838463999999 106 1026 117.86445279999998 1026 132.5 C 1026 147.13554720000002 950.7838463999999 159 858 159 C 765.2161536 159 690 147.13554720000002 690 132.5 Z"/></g><g><path fill="none" stroke="#000000" paint-order="fill stroke markers" d=" M 690 132.5 C 690 117.86445279999998 765.2161536 106 858 106 C 950.7838463999999 106 1026 117.86445279999998 1026 132.5 C 1026 147.13554720000002 950.7838463999999 159 858 159 C 765.2161536 159 690 147.13554720000002 690 132.5 Z" stroke-miterlimit="10" stroke-dasharray=""/></g><g><g><path fill="none" stroke="none"/><text fill="#000000" stroke="none" font-family="Arial" font-size="13px" font-style="normal" font-weight="bold" text-decoration="undefined" x="956" y="407" text-anchor="middle" dominant-baseline="central" transform="matrix(1 0 0 1 -98 -280)">UC53.2 - Visualizzazione data di</text><text fill="#000000" stroke="none" font-family="Arial" font-size="13px" font-style="normal" font-weight="bold" text-decoration="undefined" x="956" y="420" text-anchor="middle" dominant-baseline="central" transform="matrix(1 0 0 1 -98 -280)">creazione API key</text></g></g><g><path fill="#C0C0C0" stroke="none" paint-order="stroke fill markers" d=" M 697 227.5 C 697 212.86445279999998 766.8435712 201 853 201 C 939.1564288 201 1009 212.86445279999998 1009 227.5 C 1009 242.13554720000002 939.1564288 254 853 254 C 766.8435712 254 697 242.13554720000002 697 227.5 Z" fill-opacity="0.2"/></g><g><path fill="#ffffff" stroke="none" paint-order="stroke fill markers" d=" M 690 220.5 C 690 205.86445279999998 759.8435712 194 846 194 C 932.1564288 194 1002 205.86445279999998 1002 220.5 C 1002 235.13554720000002 932.1564288 247 846 247 C 759.8435712 247 690 235.13554720000002 690 220.5 Z"/></g><g><path fill="none" stroke="#000000" paint-order="fill stroke markers" d=" M 690 220.5 C 690 205.86445279999998 759.8435712 194 846 194 C 932.1564288 194 1002 205.86445279999998 1002 220.5 C 1002 235.13554720000002 932.1564288 247 846 247 C 759.8435712 247 690 235.13554720000002 690 220.5 Z" stroke-miterlimit="10" stroke-dasharray=""/></g><g><g><path fill="none" stroke="none"/><text fill="#000000" stroke="none" font-family="Arial" font-size="13px" font-style="normal" font-weight="bold" text-decoration="undefined" x="944" y="495" text-anchor="middle" dominant-baseline="central" transform="matrix(1 0 0 1 -98 -280)">UC53.3 - Visualizzazione data di</text><text fill="#000000" stroke="none" font-family="Arial" font-size="13px" font-style="normal" font-weight="bold" text-decoration="undefined" x="944" y="508" text-anchor="middle" dominant-baseline="central" transform="matrix(1 0 0 1 -98 -280)">scadenza API key</text></g></g><g><path fill="#C0C0C0" stroke="none" paint-order="stroke fill markers" d=" M 369 291.5 C 369 276.8644528 428.09840640000004 265 501 265 C 573.9015936 265 633 276.8644528 633 291.5 C 633 306.1355472 573.9015936 318 501 318 C 428.09840640000004 318 369 306.1355472 369 291.5 Z" fill-opacity="0.2"/></g><g><path fill="#ffffff" stroke="none" paint-order="stroke fill markers" d=" M 362 284.5 C 362 269.8644528 421.09840640000004 258 494 258 C 566.9015936 258 626 269.8644528 626 284.5 C 626 299.1355472 566.9015936 311 494 311 C 421.09840640000004 311 362 299.1355472 362 284.5 Z"/></g><g><path fill="none" stroke="#000000" paint-order="fill stroke markers" d=" M 362 284.5 C 362 269.8644528 421.09840640000004 258 494 258 C 566.9015936 258 626 269.8644528 626 284.5 C 626 299.1355472 566.9015936 311 494 311 C 421.09840640000004 311 362 299.1355472 362 284.5 Z" stroke-miterlimit="10" stroke-dasharray=""/></g><g><g><path fill="none" stroke="none"/><text fill="#000000" stroke="none" font-family="Arial" font-size="13px" font-style="normal" font-weight="bold" text-decoration="undefined" x="592" y="559" text-anchor="middle" dominant-baseline="central" transform="matrix(1 0 0 1 -98 -280)">UC53.4 - Grafico utilizzo API</text><text fill="#000000" stroke="none" font-family="Arial" font-size="13px" font-style="normal" font-weight="bold" text-decoration="undefined" x="592" y="572" text-anchor="middle" dominant-baseline="central" transform="matrix(1 0 0 1 -98 -280)">key</text></g></g><g><path fill="none" stroke="#000000" paint-order="fill stroke markers" d=" M 410 161 L 442 104" stroke-miterlimit="10" stroke-dasharray="3"/></g><g><path fill="none" stroke="#000000" paint-order="fill stroke markers" d=" M 440.69564866361236 114.92239294254074 L 442 104 L 433.35438620853586 110.80098244144517" stroke-miterlimit="10" stroke-dasharray=""/></g><g><rect fill="#ffffff" stroke="none" x="484" y="410" width="55.65625" height="13" transform="matrix(1 0 0 1 -98 -280)"/></g><g><g><path fill="none" stroke="none"/><text fill="#000000" stroke="none" font-family="Arial" font-size="13px" font-style="normal" font-weight="normal" text-decoration="undefined" x="511.828125" y="416.5" text-anchor="middle" dominant-baseline="central" transform="matrix(1 0 0 1 -98 -280)">«include»</text></g></g><g><path fill="none" stroke="#000000" paint-order="fill stroke markers" d=" M 573 166 L 689 152" stroke-miterlimit="10" stroke-dasharray="3"/></g><g><path fill="none" stroke="#000000" paint-order="fill stroke markers" d=" M 679.4149260767562 157.39688409046835 L 689 152 L 678.406155893052 149.0385025683479" stroke-miterlimit="10" stroke-dasharray=""/></g><g><rect fill="#ffffff" stroke="none" x="680" y="434" width="55.65625" height="13" transform="matrix(1 0 0 1 -98 -280)"/></g><g><g><path fill="none" stroke="none"/><text fill="#000000" stroke="none" font-family="Arial" font-size="13px" font-style="normal" font-weight="normal" text-decoration="undefined" x="707.828125" y="440.5" text-anchor="middle" dominant-baseline="central" transform="matrix(1 0 0 1 -98 -280)">«include»</text></g></g><g><path fill="none" stroke="#000000" paint-order="fill stroke markers" d=" M 573 201 L 689 209" stroke-miterlimit="10" stroke-dasharray="3"/></g><g><path fill="none" stroke="#000000" paint-order="fill stroke markers" d=" M 678.5717837178264 212.50032929482506 L 689 209 L 679.1510309704383 204.10124413195183" stroke-miterlimit="10" stroke-dasharray=""/></g><g><rect fill="#ffffff" stroke="none" x="700" y="473" width="55.65625" height="13" transform="matrix(1 0 0 1 -98 -280)"/></g><g><g><path fill="none" stroke="none"/><text fill="#000000" stroke="none" font-family="Arial" font-size="13px" font-style="normal" font-weight="normal" text-decoration="undefined" x="727.828125" y="479.5" text-anchor="middle" dominant-baseline="central" transform="matrix(1 0 0 1 -98 -280)">«include»</text></g></g><g><path fill="none" stroke="#000000" paint-order="fill stroke markers" d=" M 424 216 L 466 257" stroke-miterlimit="10" stroke-dasharray="3"/></g><g><path fill="none" stroke="#000000" paint-order="fill stroke markers" d=" M 455.78734926290497 252.91322071526815 L 466 257 L 461.668354755357 246.88877606446374" stroke-miterlimit="10" stroke-dasharray=""/></g><g><rect fill="#ffffff" stroke="none" x="499" y="506" width="55.65625" height="13" transform="matrix(1 0 0 1 -98 -280)"/></g><g><g><path fill="none" stroke="none"/><text fill="#000000" stroke="none" font-family="Arial" font-size="13px" font-style="normal" font-weight="normal" text-decoration="undefined" x="526.828125" y="512.5" text-anchor="middle" dominant-baseline="central" transform="matrix(1 0 0 1 -98 -280)">«include»</text></g></g></g></svg>