<svg version="1.1" xmlns="http://www.w3.org/2000/svg" xmlns:xlink="http://www.w3.org/1999/xlink" width="1036" height="281"><defs/><g><g><path fill="#ffffff" stroke="none" paint-order="stroke fill markers" d=" M 55.2781640625 107.85000000000002 C 55.2781640625 102.96227952000004 59.235966430499985 99 64.1181640625 99 C 69.00036169450001 99 72.9581640625 102.96227952000004 72.9581640625 107.85000000000002 C 72.9581640625 112.73772048000001 69.00036169450001 116.70000000000005 64.1181640625 116.70000000000005 C 59.235966430499985 116.70000000000005 55.2781640625 112.73772048000001 55.2781640625 107.85000000000002 Z"/></g><g><path fill="none" stroke="#000000" paint-order="fill stroke markers" d=" M 55.2781640625 107.85000000000002 C 55.2781640625 102.96227952000004 59.235966430499985 99 64.1181640625 99 C 69.00036169450001 99 72.9581640625 102.96227952000004 72.9581640625 107.85000000000002 C 72.9581640625 112.73772048000001 69.00036169450001 116.70000000000005 64.1181640625 116.70000000000005 C 59.235966430499985 116.70000000000005 55.2781640625 112.73772048000001 55.2781640625 107.85000000000002 Z" stroke-miterlimit="10" stroke-dasharray=""/></g><g><path fill="none" stroke="#000000" paint-order="fill stroke markers" d=" M 64.1181640625 116.70000000000005 L 64.1181640625 134.29999999999995" stroke-miterlimit="10" stroke-dasharray=""/></g><g><path fill="none" stroke="#000000" paint-order="fill stroke markers" d=" M 54.758164062499986 123.29999999999995 L 73.47816406250001 123.29999999999995" stroke-miterlimit="10" stroke-dasharray=""/></g><g><path fill="none" stroke="#000000" paint-order="fill stroke markers" d=" M 64.1181640625 134.29999999999995 L 51.1181640625 152" stroke-miterlimit="10" stroke-dasharray=""/></g><g><path fill="none" stroke="#000000" paint-order="fill stroke markers" d=" M 64.1181640625 134.29999999999995 L 77.1181640625 152" stroke-miterlimit="10" stroke-dasharray=""/></g><g><g><path fill="none" stroke="none"/><text fill="#000000" stroke="none" font-family="Arial" font-size="13px" font-style="normal" font-weight="bold" text-decoration="undefined" x="195.6181640625" y="633.5" text-anchor="middle" dominant-baseline="central" transform="matrix(1 0 0 1 -131 -467)">Admin generico</text></g></g><g><path fill="#C0C0C0" stroke="none" paint-order="stroke fill markers" d=" M 225 155.5 C 225 140.86445279999998 304.24559039999997 129 402 129 C 499.75440960000003 129 579 140.86445279999998 579 155.5 C 579 170.13554720000002 499.75440960000003 182 402 182 C 304.24559039999997 182 225 170.13554720000002 225 155.5 Z" fill-opacity="0.2"/></g><g><path fill="#ffffff" stroke="none" paint-order="stroke fill markers" d=" M 218 148.5 C 218 133.86445279999998 297.24559039999997 122 395 122 C 492.75440960000003 122 572 133.86445279999998 572 148.5 C 572 163.13554720000002 492.75440960000003 175 395 175 C 297.24559039999997 175 218 163.13554720000002 218 148.5 Z"/></g><g><path fill="none" stroke="#000000" paint-order="fill stroke markers" d=" M 218 148.5 C 218 133.86445279999998 297.24559039999997 122 395 122 C 492.75440960000003 122 572 133.86445279999998 572 148.5 C 572 163.13554720000002 492.75440960000003 175 395 175 C 297.24559039999997 175 218 163.13554720000002 218 148.5 Z" stroke-miterlimit="10" stroke-dasharray=""/></g><g><g><path fill="none" stroke="none"/><text fill="#000000" stroke="none" font-family="Arial" font-size="13px" font-style="normal" font-weight="bold" text-decoration="undefined" x="526" y="610" text-anchor="middle" dominant-baseline="central" transform="matrix(1 0 0 1 -131 -467)">UC53 - Visualizzazione dettagli APi</text><text fill="#000000" stroke="none" font-family="Arial" font-size="13px" font-style="normal" font-weight="bold" text-decoration="undefined" x="526" y="623" text-anchor="middle" dominant-baseline="central" transform="matrix(1 0 0 1 -131 -467)">key</text></g></g><g><path fill="none" stroke="#000000" paint-order="fill stroke markers" d=" M 217 143 L 119 140" stroke-miterlimit="10" stroke-dasharray=""/></g><g><path fill="#C0C0C0" stroke="none" paint-order="stroke fill markers" d=" M 337 43.5 C 337 28.86445279999998 394.3075456 17 465 17 C 535.6924544 17 593 28.86445279999998 593 43.5 C 593 58.13554720000002 535.6924544 70 465 70 C 394.3075456 70 337 58.13554720000002 337 43.5 Z" fill-opacity="0.2"/></g><g><path fill="#ffffff" stroke="none" paint-order="stroke fill markers" d=" M 330 36.5 C 330 21.86445279999998 387.3075456 10 458 10 C 528.6924544 10 586 21.86445279999998 586 36.5 C 586 51.13554720000002 528.6924544 63 458 63 C 387.3075456 63 330 51.13554720000002 330 36.5 Z"/></g><g><path fill="none" stroke="#000000" paint-order="fill stroke markers" d=" M 330 36.5 C 330 21.86445279999998 387.3075456 10 458 10 C 528.6924544 10 586 21.86445279999998 586 36.5 C 586 51.13554720000002 528.6924544 63 458 63 C 387.3075456 63 330 51.13554720000002 330 36.5 Z" stroke-miterlimit="10" stroke-dasharray=""/></g><g><g><path fill="none" stroke="none"/><text fill="#000000" stroke="none" font-family="Arial" font-size="13px" font-style="normal" font-weight="bold" text-decoration="undefined" x="589" y="498" text-anchor="middle" dominant-baseline="central" transform="matrix(1 0 0 1 -131 -467)">UC53.1 - Visualizzazione</text><text fill="#000000" stroke="none" font-family="Arial" font-size="13px" font-style="normal" font-weight="bold" text-decoration="undefined" x="589" y="511" text-anchor="middle" dominant-baseline="central" transform="matrix(1 0 0 1 -131 -467)">nome API key</text></g></g><g><path fill="#C0C0C0" stroke="none" paint-order="stroke fill markers" d=" M 697 99.5 C 697 84.86445279999998 772.2161536 73 865 73 C 957.7838463999999 73 1033 84.86445279999998 1033 99.5 C 1033 114.13554720000002 957.7838463999999 126 865 126 C 772.2161536 126 697 114.13554720000002 697 99.5 Z" fill-opacity="0.2"/></g><g><path fill="#ffffff" stroke="none" paint-order="stroke fill markers" d=" M 690 92.5 C 690 77.86445279999998 765.2161536 66 858 66 C 950.7838463999999 66 1026 77.86445279999998 1026 92.5 C 1026 107.13554720000002 950.7838463999999 119 858 119 C 765.2161536 119 690 107.13554720000002 690 92.5 Z"/></g><g><path fill="none" stroke="#000000" paint-order="fill stroke markers" d=" M 690 92.5 C 690 77.86445279999998 765.2161536 66 858 66 C 950.7838463999999 66 1026 77.86445279999998 1026 92.5 C 1026 107.13554720000002 950.7838463999999 119 858 119 C 765.2161536 119 690 107.13554720000002 690 92.5 Z" stroke-miterlimit="10" stroke-dasharray=""/></g><g><g><path fill="none" stroke="none"/><text fill="#000000" stroke="none" font-family="Arial" font-size="13px" font-style="normal" font-weight="bold" text-decoration="undefined" x="989" y="554" text-anchor="middle" dominant-baseline="central" transform="matrix(1 0 0 1 -131 -467)">UC53.2 - Visualizzazione data di</text><text fill="#000000" stroke="none" font-family="Arial" font-size="13px" font-style="normal" font-weight="bold" text-decoration="undefined" x="989" y="567" text-anchor="middle" dominant-baseline="central" transform="matrix(1 0 0 1 -131 -467)">creazione API key</text></g></g><g><path fill="#C0C0C0" stroke="none" paint-order="stroke fill markers" d=" M 697 187.5 C 697 172.86445279999998 766.8435712 161 853 161 C 939.1564288 161 1009 172.86445279999998 1009 187.5 C 1009 202.13554720000002 939.1564288 214 853 214 C 766.8435712 214 697 202.13554720000002 697 187.5 Z" fill-opacity="0.2"/></g><g><path fill="#ffffff" stroke="none" paint-order="stroke fill markers" d=" M 690 180.5 C 690 165.86445279999998 759.8435712 154 846 154 C 932.1564288 154 1002 165.86445279999998 1002 180.5 C 1002 195.13554720000002 932.1564288 207 846 207 C 759.8435712 207 690 195.13554720000002 690 180.5 Z"/></g><g><path fill="none" stroke="#000000" paint-order="fill stroke markers" d=" M 690 180.5 C 690 165.86445279999998 759.8435712 154 846 154 C 932.1564288 154 1002 165.86445279999998 1002 180.5 C 1002 195.13554720000002 932.1564288 207 846 207 C 759.8435712 207 690 195.13554720000002 690 180.5 Z" stroke-miterlimit="10" stroke-dasharray=""/></g><g><g><path fill="none" stroke="none"/><text fill="#000000" stroke="none" font-family="Arial" font-size="13px" font-style="normal" font-weight="bold" text-decoration="undefined" x="977" y="642" text-anchor="middle" dominant-baseline="central" transform="matrix(1 0 0 1 -131 -467)">UC53.3 - Visualizzazione data di</text><text fill="#000000" stroke="none" font-family="Arial" font-size="13px" font-style="normal" font-weight="bold" text-decoration="undefined" x="977" y="655" text-anchor="middle" dominant-baseline="central" transform="matrix(1 0 0 1 -131 -467)">scadenza API key</text></g></g><g><path fill="#C0C0C0" stroke="none" paint-order="stroke fill markers" d=" M 369 251.5 C 369 236.86445279999998 428.09840640000004 225 501 225 C 573.9015936 225 633 236.86445279999998 633 251.5 C 633 266.1355472 573.9015936 278 501 278 C 428.09840640000004 278 369 266.1355472 369 251.5 Z" fill-opacity="0.2"/></g><g><path fill="#ffffff" stroke="none" paint-order="stroke fill markers" d=" M 362 244.5 C 362 229.86445279999998 421.09840640000004 218 494 218 C 566.9015936 218 626 229.86445279999998 626 244.5 C 626 259.1355472 566.9015936 271 494 271 C 421.09840640000004 271 362 259.1355472 362 244.5 Z"/></g><g><path fill="none" stroke="#000000" paint-order="fill stroke markers" d=" M 362 244.5 C 362 229.86445279999998 421.09840640000004 218 494 218 C 566.9015936 218 626 229.86445279999998 626 244.5 C 626 259.1355472 566.9015936 271 494 271 C 421.09840640000004 271 362 259.1355472 362 244.5 Z" stroke-miterlimit="10" stroke-dasharray=""/></g><g><g><path fill="none" stroke="none"/><text fill="#000000" stroke="none" font-family="Arial" font-size="13px" font-style="normal" font-weight="bold" text-decoration="undefined" x="625" y="706" text-anchor="middle" dominant-baseline="central" transform="matrix(1 0 0 1 -131 -467)">UC53.4 - Grafico utilizzo API</text><text fill="#000000" stroke="none" font-family="Arial" font-size="13px" font-style="normal" font-weight="bold" text-decoration="undefined" x="625" y="719" text-anchor="middle" dominant-baseline="central" transform="matrix(1 0 0 1 -131 -467)">key</text></g></g><g><path fill="none" stroke="#000000" paint-order="fill stroke markers" d=" M 410 121 L 442 64" stroke-miterlimit="10" stroke-dasharray="3"/></g><g><path fill="none" stroke="#000000" paint-order="fill stroke markers" d=" M 440.69564866361236 74.92239294254068 L 442 64 L 433.35438620853586 70.80098244144517" stroke-miterlimit="10" stroke-dasharray=""/></g><g><rect fill="#ffffff" stroke="none" x="517" y="557" width="55.65625" height="13" transform="matrix(1 0 0 1 -131 -467)"/></g><g><g><path fill="none" stroke="none"/><text fill="#000000" stroke="none" font-family="Arial" font-size="13px" font-style="normal" font-weight="normal" text-decoration="undefined" x="544.828125" y="563.5" text-anchor="middle" dominant-baseline="central" transform="matrix(1 0 0 1 -131 -467)">«include»</text></g></g><g><path fill="none" stroke="#000000" paint-order="fill stroke markers" d=" M 573 126 L 689 112" stroke-miterlimit="10" stroke-dasharray="3"/></g><g><path fill="none" stroke="#000000" paint-order="fill stroke markers" d=" M 679.4149260767562 117.39688409046835 L 689 112 L 678.406155893052 109.0385025683479" stroke-miterlimit="10" stroke-dasharray=""/></g><g><rect fill="#ffffff" stroke="none" x="713" y="581" width="55.65625" height="13" transform="matrix(1 0 0 1 -131 -467)"/></g><g><g><path fill="none" stroke="none"/><text fill="#000000" stroke="none" font-family="Arial" font-size="13px" font-style="normal" font-weight="normal" text-decoration="undefined" x="740.828125" y="587.5" text-anchor="middle" dominant-baseline="central" transform="matrix(1 0 0 1 -131 -467)">«include»</text></g></g><g><path fill="none" stroke="#000000" paint-order="fill stroke markers" d=" M 573 161 L 689 169" stroke-miterlimit="10" stroke-dasharray="3"/></g><g><path fill="none" stroke="#000000" paint-order="fill stroke markers" d=" M 678.5717837178264 172.50032929482506 L 689 169 L 679.1510309704383 164.10124413195183" stroke-miterlimit="10" stroke-dasharray=""/></g><g><rect fill="#ffffff" stroke="none" x="733" y="620" width="55.65625" height="13" transform="matrix(1 0 0 1 -131 -467)"/></g><g><g><path fill="none" stroke="none"/><text fill="#000000" stroke="none" font-family="Arial" font-size="13px" font-style="normal" font-weight="normal" text-decoration="undefined" x="760.828125" y="626.5" text-anchor="middle" dominant-baseline="central" transform="matrix(1 0 0 1 -131 -467)">«include»</text></g></g><g><path fill="none" stroke="#000000" paint-order="fill stroke markers" d=" M 424 176 L 466 217" stroke-miterlimit="10" stroke-dasharray="3"/></g><g><path fill="none" stroke="#000000" paint-order="fill stroke markers" d=" M 455.78734926290497 212.91322071526815 L 466 217 L 461.668354755357 206.88877606446374" stroke-miterlimit="10" stroke-dasharray=""/></g><g><rect fill="#ffffff" stroke="none" x="532" y="653" width="55.65625" height="13" transform="matrix(1 0 0 1 -131 -467)"/></g><g><g><path fill="none" stroke="none"/><text fill="#000000" stroke="none" font-family="Arial" font-size="13px" font-style="normal" font-weight="normal" text-decoration="undefined" x="559.828125" y="659.5" text-anchor="middle" dominant-baseline="central" transform="matrix(1 0 0 1 -131 -467)">«include»</text></g></g></g></svg>