<svg version="1.1" xmlns="http://www.w3.org/2000/svg" xmlns:xlink="http://www.w3.org/1999/xlink" width="1056" height="372"><defs/><g><g><rect fill="#C0C0C0" stroke="none" x="303" y="431" width="880" height="352" transform="matrix(1 0 0 1 -131 -414)" fill-opacity="0.2"/></g><g><rect fill="#ffffff" stroke="none" x="296" y="424" width="880" height="352" transform="matrix(1 0 0 1 -131 -414)"/></g><g><path fill="none" stroke="#000000" paint-order="fill stroke markers" d=" M 165 10 L 1045 10 L 1045 362 L 165 362 L 165 10 Z Z" stroke-miterlimit="10" stroke-dasharray=""/></g><g><g><path fill="none" stroke="none"/><text fill="#000000" stroke="none" font-family="Arial" font-size="13px" font-style="normal" font-weight="bold" text-decoration="undefined" x="736.5" y="437.5" text-anchor="middle" dominant-baseline="central" transform="matrix(1 0 0 1 -131 -414)">Sistema Cloud</text></g></g><g><path fill="#ffffff" stroke="none" paint-order="stroke fill markers" d=" M 55.2781640625 160.85000000000002 C 55.2781640625 155.96227952000004 59.235966430499985 152 64.1181640625 152 C 69.00036169450001 152 72.9581640625 155.96227952000004 72.9581640625 160.85000000000002 C 72.9581640625 165.73772048 69.00036169450001 169.70000000000005 64.1181640625 169.70000000000005 C 59.235966430499985 169.70000000000005 55.2781640625 165.73772048 55.2781640625 160.85000000000002 Z"/></g><g><path fill="none" stroke="#000000" paint-order="fill stroke markers" d=" M 55.2781640625 160.85000000000002 C 55.2781640625 155.96227952000004 59.235966430499985 152 64.1181640625 152 C 69.00036169450001 152 72.9581640625 155.96227952000004 72.9581640625 160.85000000000002 C 72.9581640625 165.73772048 69.00036169450001 169.70000000000005 64.1181640625 169.70000000000005 C 59.235966430499985 169.70000000000005 55.2781640625 165.73772048 55.2781640625 160.85000000000002 Z" stroke-miterlimit="10" stroke-dasharray=""/></g><g><path fill="none" stroke="#000000" paint-order="fill stroke markers" d=" M 64.1181640625 169.70000000000005 L 64.1181640625 187.29999999999995" stroke-miterlimit="10" stroke-dasharray=""/></g><g><path fill="none" stroke="#000000" paint-order="fill stroke markers" d=" M 54.758164062499986 176.29999999999995 L 73.47816406250001 176.29999999999995" stroke-miterlimit="10" stroke-dasharray=""/></g><g><path fill="none" stroke="#000000" paint-order="fill stroke markers" d=" M 64.1181640625 187.29999999999995 L 51.1181640625 205" stroke-miterlimit="10" stroke-dasharray=""/></g><g><path fill="none" stroke="#000000" paint-order="fill stroke markers" d=" M 64.1181640625 187.29999999999995 L 77.1181640625 205" stroke-miterlimit="10" stroke-dasharray=""/></g><g><g><path fill="none" stroke="none"/><text fill="#000000" stroke="none" font-family="Arial" font-size="13px" font-style="normal" font-weight="bold" text-decoration="undefined" x="195.6181640625" y="633.5" text-anchor="middle" dominant-baseline="central" transform="matrix(1 0 0 1 -131 -414)">Admin generico</text></g></g><g><path fill="#C0C0C0" stroke="none" paint-order="stroke fill markers" d=" M 225 208.5 C 225 193.86445279999998 304.24559039999997 182 402 182 C 499.75440960000003 182 579 193.86445279999998 579 208.5 C 579 223.13554720000002 499.75440960000003 235 402 235 C 304.24559039999997 235 225 223.13554720000002 225 208.5 Z" fill-opacity="0.2"/></g><g><path fill="#ffffff" stroke="none" paint-order="stroke fill markers" d=" M 218 201.5 C 218 186.86445279999998 297.24559039999997 175 395 175 C 492.75440960000003 175 572 186.86445279999998 572 201.5 C 572 216.13554720000002 492.75440960000003 228 395 228 C 297.24559039999997 228 218 216.13554720000002 218 201.5 Z"/></g><g><path fill="none" stroke="#000000" paint-order="fill stroke markers" d=" M 218 201.5 C 218 186.86445279999998 297.24559039999997 175 395 175 C 492.75440960000003 175 572 186.86445279999998 572 201.5 C 572 216.13554720000002 492.75440960000003 228 395 228 C 297.24559039999997 228 218 216.13554720000002 218 201.5 Z" stroke-miterlimit="10" stroke-dasharray=""/></g><g><g><path fill="none" stroke="none"/><text fill="#000000" stroke="none" font-family="Arial" font-size="13px" font-style="normal" font-weight="bold" text-decoration="undefined" x="526" y="610" text-anchor="middle" dominant-baseline="central" transform="matrix(1 0 0 1 -131 -414)">UC53 - Visualizzazione dettagli API</text><text fill="#000000" stroke="none" font-family="Arial" font-size="13px" font-style="normal" font-weight="bold" text-decoration="undefined" x="526" y="623" text-anchor="middle" dominant-baseline="central" transform="matrix(1 0 0 1 -131 -414)">key</text></g></g><g><path fill="none" stroke="#000000" paint-order="fill stroke markers" d=" M 217 196 L 119 193" stroke-miterlimit="10" stroke-dasharray=""/></g><g><path fill="#C0C0C0" stroke="none" paint-order="stroke fill markers" d=" M 337 96.5 C 337 81.86445279999998 394.3075456 70 465 70 C 535.6924544 70 593 81.86445279999998 593 96.5 C 593 111.13554720000002 535.6924544 123 465 123 C 394.3075456 123 337 111.13554720000002 337 96.5 Z" fill-opacity="0.2"/></g><g><path fill="#ffffff" stroke="none" paint-order="stroke fill markers" d=" M 330 89.5 C 330 74.86445279999998 387.3075456 63 458 63 C 528.6924544 63 586 74.86445279999998 586 89.5 C 586 104.13554720000002 528.6924544 116 458 116 C 387.3075456 116 330 104.13554720000002 330 89.5 Z"/></g><g><path fill="none" stroke="#000000" paint-order="fill stroke markers" d=" M 330 89.5 C 330 74.86445279999998 387.3075456 63 458 63 C 528.6924544 63 586 74.86445279999998 586 89.5 C 586 104.13554720000002 528.6924544 116 458 116 C 387.3075456 116 330 104.13554720000002 330 89.5 Z" stroke-miterlimit="10" stroke-dasharray=""/></g><g><g><path fill="none" stroke="none"/><text fill="#000000" stroke="none" font-family="Arial" font-size="13px" font-style="normal" font-weight="bold" text-decoration="undefined" x="589" y="498" text-anchor="middle" dominant-baseline="central" transform="matrix(1 0 0 1 -131 -414)">UC53.1 - Visualizzazione</text><text fill="#000000" stroke="none" font-family="Arial" font-size="13px" font-style="normal" font-weight="bold" text-decoration="undefined" x="589" y="511" text-anchor="middle" dominant-baseline="central" transform="matrix(1 0 0 1 -131 -414)">nome API key</text></g></g><g><path fill="#C0C0C0" stroke="none" paint-order="stroke fill markers" d=" M 697 152.5 C 697 137.86445279999998 772.2161536 126 865 126 C 957.7838463999999 126 1033 137.86445279999998 1033 152.5 C 1033 167.13554720000002 957.7838463999999 179 865 179 C 772.2161536 179 697 167.13554720000002 697 152.5 Z" fill-opacity="0.2"/></g><g><path fill="#ffffff" stroke="none" paint-order="stroke fill markers" d=" M 690 145.5 C 690 130.86445279999998 765.2161536 119 858 119 C 950.7838463999999 119 1026 130.86445279999998 1026 145.5 C 1026 160.13554720000002 950.7838463999999 172 858 172 C 765.2161536 172 690 160.13554720000002 690 145.5 Z"/></g><g><path fill="none" stroke="#000000" paint-order="fill stroke markers" d=" M 690 145.5 C 690 130.86445279999998 765.2161536 119 858 119 C 950.7838463999999 119 1026 130.86445279999998 1026 145.5 C 1026 160.13554720000002 950.7838463999999 172 858 172 C 765.2161536 172 690 160.13554720000002 690 145.5 Z" stroke-miterlimit="10" stroke-dasharray=""/></g><g><g><path fill="none" stroke="none"/><text fill="#000000" stroke="none" font-family="Arial" font-size="13px" font-style="normal" font-weight="bold" text-decoration="undefined" x="989" y="554" text-anchor="middle" dominant-baseline="central" transform="matrix(1 0 0 1 -131 -414)">UC53.2 - Visualizzazione data di</text><text fill="#000000" stroke="none" font-family="Arial" font-size="13px" font-style="normal" font-weight="bold" text-decoration="undefined" x="989" y="567" text-anchor="middle" dominant-baseline="central" transform="matrix(1 0 0 1 -131 -414)">creazione API key</text></g></g><g><path fill="#C0C0C0" stroke="none" paint-order="stroke fill markers" d=" M 697 240.5 C 697 225.86445279999998 766.8435712 214 853 214 C 939.1564288 214 1009 225.86445279999998 1009 240.5 C 1009 255.13554720000002 939.1564288 267 853 267 C 766.8435712 267 697 255.13554720000002 697 240.5 Z" fill-opacity="0.2"/></g><g><path fill="#ffffff" stroke="none" paint-order="stroke fill markers" d=" M 690 233.5 C 690 218.86445279999998 759.8435712 207 846 207 C 932.1564288 207 1002 218.86445279999998 1002 233.5 C 1002 248.13554720000002 932.1564288 260 846 260 C 759.8435712 260 690 248.13554720000002 690 233.5 Z"/></g><g><path fill="none" stroke="#000000" paint-order="fill stroke markers" d=" M 690 233.5 C 690 218.86445279999998 759.8435712 207 846 207 C 932.1564288 207 1002 218.86445279999998 1002 233.5 C 1002 248.13554720000002 932.1564288 260 846 260 C 759.8435712 260 690 248.13554720000002 690 233.5 Z" stroke-miterlimit="10" stroke-dasharray=""/></g><g><g><path fill="none" stroke="none"/><text fill="#000000" stroke="none" font-family="Arial" font-size="13px" font-style="normal" font-weight="bold" text-decoration="undefined" x="977" y="642" text-anchor="middle" dominant-baseline="central" transform="matrix(1 0 0 1 -131 -414)">UC53.3 - Visualizzazione data di</text><text fill="#000000" stroke="none" font-family="Arial" font-size="13px" font-style="normal" font-weight="bold" text-decoration="undefined" x="977" y="655" text-anchor="middle" dominant-baseline="central" transform="matrix(1 0 0 1 -131 -414)">scadenza API key</text></g></g><g><path fill="#C0C0C0" stroke="none" paint-order="stroke fill markers" d=" M 369 304.5 C 369 289.8644528 428.09840640000004 278 501 278 C 573.9015936 278 633 289.8644528 633 304.5 C 633 319.1355472 573.9015936 331 501 331 C 428.09840640000004 331 369 319.1355472 369 304.5 Z" fill-opacity="0.2"/></g><g><path fill="#ffffff" stroke="none" paint-order="stroke fill markers" d=" M 362 297.5 C 362 282.8644528 421.09840640000004 271 494 271 C 566.9015936 271 626 282.8644528 626 297.5 C 626 312.1355472 566.9015936 324 494 324 C 421.09840640000004 324 362 312.1355472 362 297.5 Z"/></g><g><path fill="none" stroke="#000000" paint-order="fill stroke markers" d=" M 362 297.5 C 362 282.8644528 421.09840640000004 271 494 271 C 566.9015936 271 626 282.8644528 626 297.5 C 626 312.1355472 566.9015936 324 494 324 C 421.09840640000004 324 362 312.1355472 362 297.5 Z" stroke-miterlimit="10" stroke-dasharray=""/></g><g><g><path fill="none" stroke="none"/><text fill="#000000" stroke="none" font-family="Arial" font-size="13px" font-style="normal" font-weight="bold" text-decoration="undefined" x="625" y="706" text-anchor="middle" dominant-baseline="central" transform="matrix(1 0 0 1 -131 -414)">UC53.4 - Grafico utilizzo API</text><text fill="#000000" stroke="none" font-family="Arial" font-size="13px" font-style="normal" font-weight="bold" text-decoration="undefined" x="625" y="719" text-anchor="middle" dominant-baseline="central" transform="matrix(1 0 0 1 -131 -414)">key</text></g></g><g><path fill="none" stroke="#000000" paint-order="fill stroke markers" d=" M 410 174 L 442 117" stroke-miterlimit="10" stroke-dasharray="3"/></g><g><path fill="none" stroke="#000000" paint-order="fill stroke markers" d=" M 440.69564866361236 127.92239294254068 L 442 117 L 433.35438620853586 123.80098244144517" stroke-miterlimit="10" stroke-dasharray=""/></g><g><rect fill="#ffffff" stroke="none" x="517" y="557" width="55.65625" height="13" transform="matrix(1 0 0 1 -131 -414)"/></g><g><g><path fill="none" stroke="none"/><text fill="#000000" stroke="none" font-family="Arial" font-size="13px" font-style="normal" font-weight="normal" text-decoration="undefined" x="544.828125" y="563.5" text-anchor="middle" dominant-baseline="central" transform="matrix(1 0 0 1 -131 -414)">«include»</text></g></g><g><path fill="none" stroke="#000000" paint-order="fill stroke markers" d=" M 573 179 L 689 165" stroke-miterlimit="10" stroke-dasharray="3"/></g><g><path fill="none" stroke="#000000" paint-order="fill stroke markers" d=" M 679.4149260767562 170.39688409046835 L 689 165 L 678.406155893052 162.0385025683479" stroke-miterlimit="10" stroke-dasharray=""/></g><g><rect fill="#ffffff" stroke="none" x="713" y="581" width="55.65625" height="13" transform="matrix(1 0 0 1 -131 -414)"/></g><g><g><path fill="none" stroke="none"/><text fill="#000000" stroke="none" font-family="Arial" font-size="13px" font-style="normal" font-weight="normal" text-decoration="undefined" x="740.828125" y="587.5" text-anchor="middle" dominant-baseline="central" transform="matrix(1 0 0 1 -131 -414)">«include»</text></g></g><g><path fill="none" stroke="#000000" paint-order="fill stroke markers" d=" M 573 214 L 689 222" stroke-miterlimit="10" stroke-dasharray="3"/></g><g><path fill="none" stroke="#000000" paint-order="fill stroke markers" d=" M 678.5717837178264 225.50032929482506 L 689 222 L 679.1510309704383 217.10124413195183" stroke-miterlimit="10" stroke-dasharray=""/></g><g><rect fill="#ffffff" stroke="none" x="733" y="620" width="55.65625" height="13" transform="matrix(1 0 0 1 -131 -414)"/></g><g><g><path fill="none" stroke="none"/><text fill="#000000" stroke="none" font-family="Arial" font-size="13px" font-style="normal" font-weight="normal" text-decoration="undefined" x="760.828125" y="626.5" text-anchor="middle" dominant-baseline="central" transform="matrix(1 0 0 1 -131 -414)">«include»</text></g></g><g><path fill="none" stroke="#000000" paint-order="fill stroke markers" d=" M 424 229 L 466 270" stroke-miterlimit="10" stroke-dasharray="3"/></g><g><path fill="none" stroke="#000000" paint-order="fill stroke markers" d=" M 455.78734926290497 265.91322071526815 L 466 270 L 461.668354755357 259.88877606446374" stroke-miterlimit="10" stroke-dasharray=""/></g><g><rect fill="#ffffff" stroke="none" x="532" y="653" width="55.65625" height="13" transform="matrix(1 0 0 1 -131 -414)"/></g><g><g><path fill="none" stroke="none"/><text fill="#000000" stroke="none" font-family="Arial" font-size="13px" font-style="normal" font-weight="normal" text-decoration="undefined" x="559.828125" y="659.5" text-anchor="middle" dominant-baseline="central" transform="matrix(1 0 0 1 -131 -414)">«include»</text></g></g></g></svg>