<svg version="1.1" xmlns="http://www.w3.org/2000/svg" xmlns:xlink="http://www.w3.org/1999/xlink" width="1004" height="396"><defs/><g><g><rect fill="#C0C0C0" stroke="none" x="439" y="511" width="760" height="376" transform="matrix(1 0 0 1 -199 -494)" fill-opacity="0.2"/></g><g><rect fill="#ffffff" stroke="none" x="432" y="504" width="760" height="376" transform="matrix(1 0 0 1 -199 -494)"/></g><g><path fill="none" stroke="#000000" paint-order="fill stroke markers" d=" M 233 10 L 993 10 L 993 386 L 233 386 L 233 10 Z Z" stroke-miterlimit="10" stroke-dasharray=""/></g><g><g><path fill="none" stroke="none"/><text fill="#000000" stroke="none" font-family="Arial" font-size="13px" font-style="normal" font-weight="bold" text-decoration="undefined" x="812.5" y="517.5" text-anchor="middle" dominant-baseline="central" transform="matrix(1 0 0 1 -199 -494)">Sistema Cloud</text></g></g><g><path fill="#ffffff" stroke="none" paint-order="stroke fill markers" d=" M 55.2781640625 82.85000000000002 C 55.2781640625 77.96227952000004 59.235966430500014 74 64.1181640625 74 C 69.00036169449999 74 72.95816406249997 77.96227952000004 72.95816406249997 82.85000000000002 C 72.95816406249997 87.73772048000001 69.00036169449999 91.70000000000005 64.1181640625 91.70000000000005 C 59.235966430500014 91.70000000000005 55.2781640625 87.73772048000001 55.2781640625 82.85000000000002 Z"/></g><g><path fill="none" stroke="#000000" paint-order="fill stroke markers" d=" M 55.2781640625 82.85000000000002 C 55.2781640625 77.96227952000004 59.235966430500014 74 64.1181640625 74 C 69.00036169449999 74 72.95816406249997 77.96227952000004 72.95816406249997 82.85000000000002 C 72.95816406249997 87.73772048000001 69.00036169449999 91.70000000000005 64.1181640625 91.70000000000005 C 59.235966430500014 91.70000000000005 55.2781640625 87.73772048000001 55.2781640625 82.85000000000002 Z" stroke-miterlimit="10" stroke-dasharray=""/></g><g><path fill="none" stroke="#000000" paint-order="fill stroke markers" d=" M 64.1181640625 91.70000000000005 L 64.1181640625 109.29999999999995" stroke-miterlimit="10" stroke-dasharray=""/></g><g><path fill="none" stroke="#000000" paint-order="fill stroke markers" d=" M 54.758164062499986 98.29999999999995 L 73.47816406250001 98.29999999999995" stroke-miterlimit="10" stroke-dasharray=""/></g><g><path fill="none" stroke="#000000" paint-order="fill stroke markers" d=" M 64.1181640625 109.29999999999995 L 51.1181640625 127" stroke-miterlimit="10" stroke-dasharray=""/></g><g><path fill="none" stroke="#000000" paint-order="fill stroke markers" d=" M 64.1181640625 109.29999999999995 L 77.1181640625 127" stroke-miterlimit="10" stroke-dasharray=""/></g><g><g><path fill="none" stroke="none"/><text fill="#000000" stroke="none" font-family="Arial" font-size="13px" font-style="normal" font-weight="bold" text-decoration="undefined" x="263.6181640625" y="635.5" text-anchor="middle" dominant-baseline="central" transform="matrix(1 0 0 1 -199 -494)">Admin generico</text></g></g><g><path fill="#C0C0C0" stroke="none" paint-order="stroke fill markers" d=" M 289 130.5 C 289 115.86445279999998 344.5166848 104 413 104 C 481.4833152 104 537 115.86445279999998 537 130.5 C 537 145.13554720000002 481.4833152 157 413 157 C 344.5166848 157 289 145.13554720000002 289 130.5 Z" fill-opacity="0.2"/></g><g><path fill="#ffffff" stroke="none" paint-order="stroke fill markers" d=" M 282 123.5 C 282 108.86445279999998 337.5166848 97 406 97 C 474.4833152 97 530 108.86445279999998 530 123.5 C 530 138.13554720000002 474.4833152 150 406 150 C 337.5166848 150 282 138.13554720000002 282 123.5 Z"/></g><g><path fill="none" stroke="#000000" paint-order="fill stroke markers" d=" M 282 123.5 C 282 108.86445279999998 337.5166848 97 406 97 C 474.4833152 97 530 108.86445279999998 530 123.5 C 530 138.13554720000002 474.4833152 150 406 150 C 337.5166848 150 282 138.13554720000002 282 123.5 Z" stroke-miterlimit="10" stroke-dasharray=""/></g><g><g><path fill="none" stroke="none"/><text fill="#000000" stroke="none" font-family="Arial" font-size="13px" font-style="normal" font-weight="bold" text-decoration="undefined" x="605" y="612" text-anchor="middle" dominant-baseline="central" transform="matrix(1 0 0 1 -199 -494)">UC53 - Visualizzazione</text><text fill="#000000" stroke="none" font-family="Arial" font-size="13px" font-style="normal" font-weight="bold" text-decoration="undefined" x="605" y="625" text-anchor="middle" dominant-baseline="central" transform="matrix(1 0 0 1 -199 -494)">lista audit log del tenant</text></g></g><g><path fill="#C0C0C0" stroke="none" paint-order="stroke fill markers" d=" M 657 133 C 657 113.11774720000005 710.725824 97 777 97 C 843.2741759999999 97 897 113.11774720000005 897 133 C 897 152.88225279999995 843.2741759999999 169 777 169 C 710.725824 169 657 152.88225279999995 657 133 Z" fill-opacity="0.2"/></g><g><path fill="#ffffff" stroke="none" paint-order="stroke fill markers" d=" M 650 126 C 650 106.11774720000005 703.725824 90 770 90 C 836.2741759999999 90 890 106.11774720000005 890 126 C 890 145.88225279999995 836.2741759999999 162 770 162 C 703.725824 162 650 145.88225279999995 650 126 Z"/></g><g><path fill="none" stroke="#000000" paint-order="fill stroke markers" d=" M 650 126 C 650 106.11774720000005 703.725824 90 770 90 C 836.2741759999999 90 890 106.11774720000005 890 126 C 890 145.88225279999995 836.2741759999999 162 770 162 C 703.725824 162 650 145.88225279999995 650 126 Z" stroke-miterlimit="10" stroke-dasharray=""/></g><g><g><path fill="none" stroke="none"/><text fill="#000000" stroke="none" font-family="Arial" font-size="13px" font-style="normal" font-weight="bold" text-decoration="undefined" x="969" y="614.5" text-anchor="middle" dominant-baseline="central" transform="matrix(1 0 0 1 -199 -494)">UC54 - Visualizzazione</text><text fill="#000000" stroke="none" font-family="Arial" font-size="13px" font-style="normal" font-weight="bold" text-decoration="undefined" x="969" y="627.5" text-anchor="middle" dominant-baseline="central" transform="matrix(1 0 0 1 -199 -494)">singolo audit log</text></g></g><g><path fill="none" stroke="#000000" paint-order="fill stroke markers" d=" M 531 124 L 649 125" stroke-miterlimit="10" stroke-dasharray="3"/></g><g><path fill="none" stroke="#000000" paint-order="fill stroke markers" d=" M 638.8020174581267 129.12324533294418 L 649 125 L 638.8733626547987 120.7045121256399" stroke-miterlimit="10" stroke-dasharray=""/></g><g><rect fill="#ffffff" stroke="none" x="761" y="597" width="55.65625" height="13" transform="matrix(1 0 0 1 -199 -494)"/></g><g><g><path fill="none" stroke="none"/><text fill="#000000" stroke="none" font-family="Arial" font-size="13px" font-style="normal" font-weight="normal" text-decoration="undefined" x="788.828125" y="603.5" text-anchor="middle" dominant-baseline="central" transform="matrix(1 0 0 1 -199 -494)">«include»</text></g></g><g><path fill="none" stroke="#000000" paint-order="fill stroke markers" d=" M 281 119 L 119 115" stroke-miterlimit="10" stroke-dasharray=""/></g><g><path fill="#C0C0C0" stroke="none" paint-order="stroke fill markers" d=" M 480 318.5 C 480 302.20759840000005 540.8892672 289 616 289 C 691.1107328 289 752 302.20759840000005 752 318.5 C 752 334.79240159999995 691.1107328 348 616 348 C 540.8892672 348 480 334.79240159999995 480 318.5 Z" fill-opacity="0.2"/></g><g><path fill="#ffffff" stroke="none" paint-order="stroke fill markers" d=" M 473 311.5 C 473 295.20759840000005 533.8892672 282 609 282 C 684.1107328 282 745 295.20759840000005 745 311.5 C 745 327.79240159999995 684.1107328 341 609 341 C 533.8892672 341 473 327.79240159999995 473 311.5 Z"/></g><g><path fill="none" stroke="#000000" paint-order="fill stroke markers" d=" M 473 311.5 C 473 295.20759840000005 533.8892672 282 609 282 C 684.1107328 282 745 295.20759840000005 745 311.5 C 745 327.79240159999995 684.1107328 341 609 341 C 533.8892672 341 473 327.79240159999995 473 311.5 Z" stroke-miterlimit="10" stroke-dasharray=""/></g><g><g><path fill="none" stroke="none"/><text fill="#000000" stroke="none" font-family="Arial" font-size="13px" font-style="normal" font-weight="bold" text-decoration="undefined" x="808" y="800" text-anchor="middle" dominant-baseline="central" transform="matrix(1 0 0 1 -199 -494)">UC54.2 - Visualizzazione tipo</text><text fill="#000000" stroke="none" font-family="Arial" font-size="13px" font-style="normal" font-weight="bold" text-decoration="undefined" x="808" y="813" text-anchor="middle" dominant-baseline="central" transform="matrix(1 0 0 1 -199 -494)">azione audit log</text></g></g><g><path fill="none" stroke="#000000" paint-order="fill stroke markers" d=" M 738 163 L 635 281" stroke-miterlimit="10" stroke-dasharray="3"/></g><g><path fill="none" stroke="#000000" paint-order="fill stroke markers" d=" M 638.5116639977779 270.57559517446145 L 635 281 L 644.8542887680494 276.11195408410526" stroke-miterlimit="10" stroke-dasharray=""/></g><g><rect fill="#ffffff" stroke="none" x="865" y="698" width="55.65625" height="13" transform="matrix(1 0 0 1 -199 -494)"/></g><g><g><path fill="none" stroke="none"/><text fill="#000000" stroke="none" font-family="Arial" font-size="13px" font-style="normal" font-weight="normal" text-decoration="undefined" x="892.828125" y="704.5" text-anchor="middle" dominant-baseline="central" transform="matrix(1 0 0 1 -199 -494)">«include»</text></g></g><g><path fill="#C0C0C0" stroke="none" paint-order="stroke fill markers" d=" M 248 251.5 C 248 236.86445279999998 312.4709888 225 392 225 C 471.5290112 225 536 236.86445279999998 536 251.5 C 536 266.1355472 471.5290112 278 392 278 C 312.4709888 278 248 266.1355472 248 251.5 Z" fill-opacity="0.2"/></g><g><path fill="#ffffff" stroke="none" paint-order="stroke fill markers" d=" M 241 244.5 C 241 229.86445279999998 305.4709888 218 385 218 C 464.5290112 218 529 229.86445279999998 529 244.5 C 529 259.1355472 464.5290112 271 385 271 C 305.4709888 271 241 259.1355472 241 244.5 Z"/></g><g><path fill="none" stroke="#000000" paint-order="fill stroke markers" d=" M 241 244.5 C 241 229.86445279999998 305.4709888 218 385 218 C 464.5290112 218 529 229.86445279999998 529 244.5 C 529 259.1355472 464.5290112 271 385 271 C 305.4709888 271 241 259.1355472 241 244.5 Z" stroke-miterlimit="10" stroke-dasharray=""/></g><g><g><path fill="none" stroke="none"/><text fill="#000000" stroke="none" font-family="Arial" font-size="13px" font-style="normal" font-weight="bold" text-decoration="undefined" x="584" y="733" text-anchor="middle" dominant-baseline="central" transform="matrix(1 0 0 1 -199 -494)">UC54.1 - Visualizzazione nome</text><text fill="#000000" stroke="none" font-family="Arial" font-size="13px" font-style="normal" font-weight="bold" text-decoration="undefined" x="584" y="746" text-anchor="middle" dominant-baseline="central" transform="matrix(1 0 0 1 -199 -494)">utente audit log</text></g></g><g><path fill="none" stroke="#000000" paint-order="fill stroke markers" d=" M 649 163 L 473 217" stroke-miterlimit="10" stroke-dasharray="3"/></g><g><path fill="none" stroke="#000000" paint-order="fill stroke markers" d=" M 481.48090968662916 209.99470408282139 L 473 217 L 483.9504009973016 218.0434165027907" stroke-miterlimit="10" stroke-dasharray=""/></g><g><rect fill="#ffffff" stroke="none" x="725" y="679" width="55.65625" height="13" transform="matrix(1 0 0 1 -199 -494)"/></g><g><g><path fill="none" stroke="none"/><text fill="#000000" stroke="none" font-family="Arial" font-size="13px" font-style="normal" font-weight="normal" text-decoration="undefined" x="752.828125" y="685.5" text-anchor="middle" dominant-baseline="central" transform="matrix(1 0 0 1 -199 -494)">«include»</text></g></g><g><path fill="#C0C0C0" stroke="none" paint-order="stroke fill markers" d=" M 728 270 C 728 245.14718400000004 787.0984064 225 860 225 C 932.9015936000001 225 992 245.14718400000004 992 270 C 992 294.85281599999996 932.9015936000001 315 860 315 C 787.0984064 315 728 294.85281599999996 728 270 Z" fill-opacity="0.2"/></g><g><path fill="#ffffff" stroke="none" paint-order="stroke fill markers" d=" M 721 263 C 721 238.14718400000004 780.0984064 218 853 218 C 925.9015936000001 218 985 238.14718400000004 985 263 C 985 287.85281599999996 925.9015936000001 308 853 308 C 780.0984064 308 721 287.85281599999996 721 263 Z"/></g><g><path fill="none" stroke="#000000" paint-order="fill stroke markers" d=" M 721 263 C 721 238.14718400000004 780.0984064 218 853 218 C 925.9015936000001 218 985 238.14718400000004 985 263 C 985 287.85281599999996 925.9015936000001 308 853 308 C 780.0984064 308 721 287.85281599999996 721 263 Z" stroke-miterlimit="10" stroke-dasharray=""/></g><g><g><path fill="none" stroke="none"/><text fill="#000000" stroke="none" font-family="Arial" font-size="13px" font-style="normal" font-weight="bold" text-decoration="undefined" x="1052" y="751.5" text-anchor="middle" dominant-baseline="central" transform="matrix(1 0 0 1 -199 -494)">UC54.3 - Visualizzazione</text><text fill="#000000" stroke="none" font-family="Arial" font-size="13px" font-style="normal" font-weight="bold" text-decoration="undefined" x="1052" y="764.5" text-anchor="middle" dominant-baseline="central" transform="matrix(1 0 0 1 -199 -494)">timestamp azione audit log</text></g></g><g><path fill="none" stroke="#000000" paint-order="fill stroke markers" d=" M 792 163 L 825 217" stroke-miterlimit="10" stroke-dasharray="3"/></g><g><path fill="none" stroke="#000000" paint-order="fill stroke markers" d=" M 816.1087680697705 210.523427236349 L 825 217 L 823.292578129058 206.13332108900659" stroke-miterlimit="10" stroke-dasharray=""/></g><g><rect fill="#ffffff" stroke="none" x="1005" y="662" width="55.65625" height="13" transform="matrix(1 0 0 1 -199 -494)"/></g><g><g><path fill="none" stroke="none"/><text fill="#000000" stroke="none" font-family="Arial" font-size="13px" font-style="normal" font-weight="normal" text-decoration="undefined" x="1032.828125" y="668.5" text-anchor="middle" dominant-baseline="central" transform="matrix(1 0 0 1 -199 -494)">«include»</text></g></g></g></svg>