<svg version="1.1" xmlns="http://www.w3.org/2000/svg" xmlns:xlink="http://www.w3.org/1999/xlink" width="807" height="196"><defs/><g><g><rect fill="#C0C0C0" stroke="none" x="774" y="586" width="608" height="176" transform="matrix(1 0 0 1 -579 -569)" fill-opacity="0.2"/></g><g><rect fill="#ffffff" stroke="none" x="767" y="579" width="608" height="176" transform="matrix(1 0 0 1 -579 -569)"/></g><g><path fill="none" stroke="#000000" paint-order="fill stroke markers" d=" M 188 10 L 796 10 L 796 186 L 188 186 L 188 10 Z Z" stroke-miterlimit="10" stroke-dasharray=""/></g><g><g><path fill="none" stroke="none"/><text fill="#000000" stroke="none" font-family="Arial" font-size="13px" font-style="normal" font-weight="bold" text-decoration="undefined" x="1071.5" y="592.5" text-anchor="middle" dominant-baseline="central" transform="matrix(1 0 0 1 -579 -569)">Dashboard admin</text></g></g><g><path fill="#ffffff" stroke="none" paint-order="stroke fill markers" d=" M 55.27816406249997 67.85000000000002 C 55.27816406249997 62.96227952000004 59.23596643049996 59 64.1181640625 59 C 69.00036169450004 59 72.95816406250003 62.96227952000004 72.95816406250003 67.85000000000002 C 72.95816406250003 72.73772048000001 69.00036169450004 76.70000000000005 64.1181640625 76.70000000000005 C 59.23596643049996 76.70000000000005 55.27816406249997 72.73772048000001 55.27816406249997 67.85000000000002 Z"/></g><g><path fill="none" stroke="#000000" paint-order="fill stroke markers" d=" M 55.27816406249997 67.85000000000002 C 55.27816406249997 62.96227952000004 59.23596643049996 59 64.1181640625 59 C 69.00036169450004 59 72.95816406250003 62.96227952000004 72.95816406250003 67.85000000000002 C 72.95816406250003 72.73772048000001 69.00036169450004 76.70000000000005 64.1181640625 76.70000000000005 C 59.23596643049996 76.70000000000005 55.27816406249997 72.73772048000001 55.27816406249997 67.85000000000002 Z" stroke-miterlimit="10" stroke-dasharray=""/></g><g><path fill="none" stroke="#000000" paint-order="fill stroke markers" d=" M 64.1181640625 76.70000000000005 L 64.1181640625 94.29999999999995" stroke-miterlimit="10" stroke-dasharray=""/></g><g><path fill="none" stroke="#000000" paint-order="fill stroke markers" d=" M 54.758164062499986 83.29999999999995 L 73.47816406250001 83.29999999999995" stroke-miterlimit="10" stroke-dasharray=""/></g><g><path fill="none" stroke="#000000" paint-order="fill stroke markers" d=" M 64.1181640625 94.29999999999995 L 51.1181640625 112" stroke-miterlimit="10" stroke-dasharray=""/></g><g><path fill="none" stroke="#000000" paint-order="fill stroke markers" d=" M 64.1181640625 94.29999999999995 L 77.1181640625 112" stroke-miterlimit="10" stroke-dasharray=""/></g><g><g><path fill="none" stroke="none"/><text fill="#000000" stroke="none" font-family="Arial" font-size="13px" font-style="normal" font-weight="bold" text-decoration="undefined" x="643.6181640625" y="695.5" text-anchor="middle" dominant-baseline="central" transform="matrix(1 0 0 1 -579 -569)">Admin generico</text></g></g><g><path fill="#C0C0C0" stroke="none" paint-order="stroke fill markers" d=" M 251 125 C 251 105.11774720000005 297.5623808 89 355 89 C 412.4376192 89 459 105.11774720000005 459 125 C 459 144.88225279999995 412.4376192 161 355 161 C 297.5623808 161 251 144.88225279999995 251 125 Z" fill-opacity="0.2"/></g><g><path fill="#ffffff" stroke="none" paint-order="stroke fill markers" d=" M 244 118 C 244 98.11774720000005 290.5623808 82 348 82 C 405.4376192 82 452 98.11774720000005 452 118 C 452 137.88225279999995 405.4376192 154 348 154 C 290.5623808 154 244 137.88225279999995 244 118 Z"/></g><g><path fill="none" stroke="#000000" paint-order="fill stroke markers" d=" M 244 118 C 244 98.11774720000005 290.5623808 82 348 82 C 405.4376192 82 452 98.11774720000005 452 118 C 452 137.88225279999995 405.4376192 154 348 154 C 290.5623808 154 244 137.88225279999995 244 118 Z" stroke-miterlimit="10" stroke-dasharray=""/></g><g><g><path fill="none" stroke="none"/><text fill="#000000" stroke="none" font-family="Arial" font-size="13px" font-style="normal" font-weight="bold" text-decoration="undefined" x="927" y="681.5" text-anchor="middle" dominant-baseline="central" transform="matrix(1 0 0 1 -579 -569)">UC54 - Eliminazione</text><text fill="#000000" stroke="none" font-family="Arial" font-size="13px" font-style="normal" font-weight="bold" text-decoration="undefined" x="927" y="694.5" text-anchor="middle" dominant-baseline="central" transform="matrix(1 0 0 1 -579 -569)">API key</text></g></g><g><path fill="none" stroke="#000000" paint-order="fill stroke markers" d=" M 453 115 L 555 111" stroke-miterlimit="10" stroke-dasharray="3"/></g><g><path fill="none" stroke="#000000" paint-order="fill stroke markers" d=" M 545.0100829161495 115.60451481241955 L 555 111 L 544.6801782385821 107.19194553445368" stroke-miterlimit="10" stroke-dasharray=""/></g><g><rect fill="#ffffff" stroke="none" x="1055" y="665" width="55.65625" height="13" transform="matrix(1 0 0 1 -579 -569)"/></g><g><g><path fill="none" stroke="none"/><text fill="#000000" stroke="none" font-family="Arial" font-size="13px" font-style="normal" font-weight="normal" text-decoration="undefined" x="1082.828125" y="671.5" text-anchor="middle" dominant-baseline="central" transform="matrix(1 0 0 1 -579 -569)">«include»</text></g></g><g><path fill="none" stroke="#000000" paint-order="fill stroke markers" d=" M 243 111 L 119 102" stroke-miterlimit="10" stroke-dasharray=""/></g><g><path fill="#C0C0C0" stroke="none" paint-order="stroke fill markers" d=" M 563 115.5 C 563 100.86445279999998 609.5623808 89 667 89 C 724.4376192 89 771 100.86445279999998 771 115.5 C 771 130.13554720000002 724.4376192 142 667 142 C 609.5623808 142 563 130.13554720000002 563 115.5 Z" fill-opacity="0.2"/></g><g><path fill="#ffffff" stroke="none" paint-order="stroke fill markers" d=" M 556 108.5 C 556 93.86445279999998 602.5623808 82 660 82 C 717.4376192 82 764 93.86445279999998 764 108.5 C 764 123.13554720000002 717.4376192 135 660 135 C 602.5623808 135 556 123.13554720000002 556 108.5 Z"/></g><g><path fill="none" stroke="#000000" paint-order="fill stroke markers" d=" M 556 108.5 C 556 93.86445279999998 602.5623808 82 660 82 C 717.4376192 82 764 93.86445279999998 764 108.5 C 764 123.13554720000002 717.4376192 135 660 135 C 602.5623808 135 556 123.13554720000002 556 108.5 Z" stroke-miterlimit="10" stroke-dasharray=""/></g><g><g><path fill="none" stroke="none"/><text fill="#000000" stroke="none" font-family="Arial" font-size="13px" font-style="normal" font-weight="bold" text-decoration="undefined" x="1239" y="672" text-anchor="middle" dominant-baseline="central" transform="matrix(1 0 0 1 -579 -569)">UC54.1 - Conferma</text><text fill="#000000" stroke="none" font-family="Arial" font-size="13px" font-style="normal" font-weight="bold" text-decoration="undefined" x="1239" y="685" text-anchor="middle" dominant-baseline="central" transform="matrix(1 0 0 1 -579 -569)">eliminazione API key</text></g></g></g></svg>