<svg version="1.1" xmlns="http://www.w3.org/2000/svg" xmlns:xlink="http://www.w3.org/1999/xlink" width="909" height="436"><defs/><g><g><rect fill="#C0C0C0" stroke="none" x="188" y="42" width="744" height="416" transform="matrix(1 0 0 1 -27 -25)" fill-opacity="0.2"/></g><g><rect fill="#ffffff" stroke="none" x="181" y="35" width="744" height="416" transform="matrix(1 0 0 1 -27 -25)"/></g><g><path fill="none" stroke="#000000" paint-order="fill stroke markers" d=" M 154 10 L 898 10 L 898 426 L 154 426 L 154 10 Z Z" stroke-miterlimit="10" stroke-dasharray=""/></g><g><g><path fill="none" stroke="none"/><text fill="#000000" stroke="none" font-family="Arial" font-size="13px" font-style="normal" font-weight="bold" text-decoration="undefined" x="553.5" y="48.5" text-anchor="middle" dominant-baseline="central" transform="matrix(1 0 0 1 -27 -25)">Sistema cloud</text></g></g><g><path fill="#ffffff" stroke="none" paint-order="stroke fill markers" d=" M 56.36361328125 107.85 C 56.36361328125 102.96227952 60.32141564925 99 65.20361328125 99 C 70.08581091325 99 74.04361328125 102.96227952 74.04361328125 107.85 C 74.04361328125 112.73772047999998 70.08581091325 116.69999999999999 65.20361328125 116.69999999999999 C 60.32141564925 116.69999999999999 56.36361328125 112.73772047999998 56.36361328125 107.85 Z"/></g><g><path fill="none" stroke="#000000" paint-order="fill stroke markers" d=" M 56.36361328125 107.85 C 56.36361328125 102.96227952 60.32141564925 99 65.20361328125 99 C 70.08581091325 99 74.04361328125 102.96227952 74.04361328125 107.85 C 74.04361328125 112.73772047999998 70.08581091325 116.69999999999999 65.20361328125 116.69999999999999 C 60.32141564925 116.69999999999999 56.36361328125 112.73772047999998 56.36361328125 107.85 Z" stroke-miterlimit="10" stroke-dasharray=""/></g><g><path fill="none" stroke="#000000" paint-order="fill stroke markers" d=" M 65.20361328125 116.69999999999999 L 65.20361328125 134.3" stroke-miterlimit="10" stroke-dasharray=""/></g><g><path fill="none" stroke="#000000" paint-order="fill stroke markers" d=" M 55.84361328125 123.30000000000001 L 74.56361328125 123.30000000000001" stroke-miterlimit="10" stroke-dasharray=""/></g><g><path fill="none" stroke="#000000" paint-order="fill stroke markers" d=" M 65.20361328125 134.3 L 52.20361328125 152" stroke-miterlimit="10" stroke-dasharray=""/></g><g><path fill="none" stroke="#000000" paint-order="fill stroke markers" d=" M 65.20361328125 134.3 L 78.20361328125 152" stroke-miterlimit="10" stroke-dasharray=""/></g><g><g><path fill="none" stroke="none"/><text fill="#000000" stroke="none" font-family="Arial" font-size="13px" font-style="normal" font-weight="bold" text-decoration="undefined" x="92.70361328125" y="191.5" text-anchor="middle" dominant-baseline="central" transform="matrix(1 0 0 1 -27 -25)">Admin generico</text></g></g><g><path fill="#C0C0C0" stroke="none" paint-order="stroke fill markers" d=" M 233 141 C 233 121.1177472 283.1441024 105 345 105 C 406.8558976 105 457 121.1177472 457 141 C 457 160.8822528 406.8558976 177 345 177 C 283.1441024 177 233 160.8822528 233 141 Z" fill-opacity="0.2"/></g><g><path fill="#ffffff" stroke="none" paint-order="stroke fill markers" d=" M 226 134 C 226 114.1177472 276.1441024 98 338 98 C 399.8558976 98 450 114.1177472 450 134 C 450 153.8822528 399.8558976 170 338 170 C 276.1441024 170 226 153.8822528 226 134 Z"/></g><g><path fill="none" stroke="#000000" paint-order="fill stroke markers" d=" M 226 134 C 226 114.1177472 276.1441024 98 338 98 C 399.8558976 98 450 114.1177472 450 134 C 450 153.8822528 399.8558976 170 338 170 C 276.1441024 170 226 153.8822528 226 134 Z" stroke-miterlimit="10" stroke-dasharray=""/></g><g><g><path fill="none" stroke="none"/><text fill="#000000" stroke="none" font-family="Arial" font-size="13px" font-style="normal" font-weight="bold" text-decoration="undefined" x="365" y="147" text-anchor="middle" dominant-baseline="central" transform="matrix(1 0 0 1 -27 -25)">UC53 - Visualizzazione</text><text fill="#000000" stroke="none" font-family="Arial" font-size="13px" font-style="normal" font-weight="bold" text-decoration="undefined" x="365" y="160" text-anchor="middle" dominant-baseline="central" transform="matrix(1 0 0 1 -27 -25)">lista audit log del</text><text fill="#000000" stroke="none" font-family="Arial" font-size="13px" font-style="normal" font-weight="bold" text-decoration="undefined" x="365" y="173" text-anchor="middle" dominant-baseline="central" transform="matrix(1 0 0 1 -27 -25)">tenant</text></g></g><g><path fill="#ffffff" stroke="none" paint-order="stroke fill markers" d=" M 218 239 C 218 214.147184 264.5623808 194 322 194 C 379.4376192 194 426 214.147184 426 239 C 426 263.852816 379.4376192 284 322 284 C 264.5623808 284 218 263.852816 218 239 Z"/></g><g><path fill="none" stroke="#000000" paint-order="fill stroke markers" d=" M 218 239 C 218 214.147184 264.5623808 194 322 194 C 379.4376192 194 426 214.147184 426 239 C 426 263.852816 379.4376192 284 322 284 C 264.5623808 284 218 263.852816 218 239 Z" stroke-miterlimit="10" stroke-dasharray=""/></g><g><g><path fill="none" stroke="none"/><text fill="#000000" stroke="none" font-family="Arial" font-size="13px" font-style="normal" font-weight="bold" text-decoration="undefined" x="349" y="245.5" text-anchor="middle" dominant-baseline="central" transform="matrix(1 0 0 1 -27 -25)">UC54 -</text><text fill="#000000" stroke="none" font-family="Arial" font-size="13px" font-style="normal" font-weight="bold" text-decoration="undefined" x="349" y="258.5" text-anchor="middle" dominant-baseline="central" transform="matrix(1 0 0 1 -27 -25)">Visualizzazione</text><text fill="#000000" stroke="none" font-family="Arial" font-size="13px" font-style="normal" font-weight="bold" text-decoration="undefined" x="349" y="271.5" text-anchor="middle" dominant-baseline="central" transform="matrix(1 0 0 1 -27 -25)">singolo audit log in</text><text fill="#000000" stroke="none" font-family="Arial" font-size="13px" font-style="normal" font-weight="bold" text-decoration="undefined" x="349" y="284.5" text-anchor="middle" dominant-baseline="central" transform="matrix(1 0 0 1 -27 -25)">lista</text></g></g><g><path fill="none" stroke="#000000" paint-order="fill stroke markers" d=" M 332 171 L 329 193" stroke-miterlimit="10" stroke-dasharray="3"/></g><g><path fill="none" stroke="#000000" paint-order="fill stroke markers" d=" M 326.2021943830975 182.36175372864358 L 329 193 L 334.54402875425507 183.49927659743778" stroke-miterlimit="10" stroke-dasharray=""/></g><g><rect fill="#ffffff" stroke="none" x="359" y="203" width="55.65625" height="13" transform="matrix(1 0 0 1 -27 -25)"/></g><g><g><path fill="none" stroke="none"/><text fill="#000000" stroke="none" font-family="Arial" font-size="13px" font-style="normal" font-weight="normal" text-decoration="undefined" x="386.828125" y="209.5" text-anchor="middle" dominant-baseline="central" transform="matrix(1 0 0 1 -27 -25)">«include»</text></g></g><g><path fill="#C0C0C0" stroke="none" paint-order="stroke fill markers" d=" M 577 110 C 577 85.147184 618.1897984 65 669 65 C 719.8102016 65 761 85.147184 761 110 C 761 134.852816 719.8102016 155 669 155 C 618.1897984 155 577 134.852816 577 110 Z" fill-opacity="0.2"/></g><g><path fill="#ffffff" stroke="none" paint-order="stroke fill markers" d=" M 570 103 C 570 78.147184 611.1897984 58 662 58 C 712.8102016 58 754 78.147184 754 103 C 754 127.85281599999999 712.8102016 148 662 148 C 611.1897984 148 570 127.85281599999999 570 103 Z"/></g><g><path fill="none" stroke="#000000" paint-order="fill stroke markers" d=" M 570 103 C 570 78.147184 611.1897984 58 662 58 C 712.8102016 58 754 78.147184 754 103 C 754 127.85281599999999 712.8102016 148 662 148 C 611.1897984 148 570 127.85281599999999 570 103 Z" stroke-miterlimit="10" stroke-dasharray=""/></g><g><g><path fill="none" stroke="none"/><text fill="#000000" stroke="none" font-family="Arial" font-size="13px" font-style="normal" font-weight="bold" text-decoration="undefined" x="689" y="109.5" text-anchor="middle" dominant-baseline="central" transform="matrix(1 0 0 1 -27 -25)">UC54.1 -</text><text fill="#000000" stroke="none" font-family="Arial" font-size="13px" font-style="normal" font-weight="bold" text-decoration="undefined" x="689" y="122.5" text-anchor="middle" dominant-baseline="central" transform="matrix(1 0 0 1 -27 -25)">Visualizzazione</text><text fill="#000000" stroke="none" font-family="Arial" font-size="13px" font-style="normal" font-weight="bold" text-decoration="undefined" x="689" y="135.5" text-anchor="middle" dominant-baseline="central" transform="matrix(1 0 0 1 -27 -25)">tipo azione audit</text><text fill="#000000" stroke="none" font-family="Arial" font-size="13px" font-style="normal" font-weight="bold" text-decoration="undefined" x="689" y="148.5" text-anchor="middle" dominant-baseline="central" transform="matrix(1 0 0 1 -27 -25)">log</text></g></g><g><path fill="#C0C0C0" stroke="none" paint-order="stroke fill markers" d=" M 625 221 C 625 201.1177472 667.9806592 185 721 185 C 774.0193408 185 817 201.1177472 817 221 C 817 240.8822528 774.0193408 257 721 257 C 667.9806592 257 625 240.8822528 625 221 Z" fill-opacity="0.2"/></g><g><path fill="#ffffff" stroke="none" paint-order="stroke fill markers" d=" M 618 214 C 618 194.1177472 660.9806592 178 714 178 C 767.0193408 178 810 194.1177472 810 214 C 810 233.8822528 767.0193408 250 714 250 C 660.9806592 250 618 233.8822528 618 214 Z"/></g><g><path fill="none" stroke="#000000" paint-order="fill stroke markers" d=" M 618 214 C 618 194.1177472 660.9806592 178 714 178 C 767.0193408 178 810 194.1177472 810 214 C 810 233.8822528 767.0193408 250 714 250 C 660.9806592 250 618 233.8822528 618 214 Z" stroke-miterlimit="10" stroke-dasharray=""/></g><g><g><path fill="none" stroke="none"/><text fill="#000000" stroke="none" font-family="Arial" font-size="13px" font-style="normal" font-weight="bold" text-decoration="undefined" x="741" y="227" text-anchor="middle" dominant-baseline="central" transform="matrix(1 0 0 1 -27 -25)">UC54.2 -</text><text fill="#000000" stroke="none" font-family="Arial" font-size="13px" font-style="normal" font-weight="bold" text-decoration="undefined" x="741" y="240" text-anchor="middle" dominant-baseline="central" transform="matrix(1 0 0 1 -27 -25)">Visualizzazione tipo</text><text fill="#000000" stroke="none" font-family="Arial" font-size="13px" font-style="normal" font-weight="bold" text-decoration="undefined" x="741" y="253" text-anchor="middle" dominant-baseline="central" transform="matrix(1 0 0 1 -27 -25)">azione audit log</text></g></g><g><path fill="#C0C0C0" stroke="none" paint-order="stroke fill markers" d=" M 617 326 C 617 301.147184 661.77152 281 717 281 C 772.22848 281 817 301.147184 817 326 C 817 350.852816 772.22848 371 717 371 C 661.77152 371 617 350.852816 617 326 Z" fill-opacity="0.2"/></g><g><path fill="#ffffff" stroke="none" paint-order="stroke fill markers" d=" M 610 319 C 610 294.147184 654.77152 274 710 274 C 765.22848 274 810 294.147184 810 319 C 810 343.852816 765.22848 364 710 364 C 654.77152 364 610 343.852816 610 319 Z"/></g><g><path fill="none" stroke="#000000" paint-order="fill stroke markers" d=" M 610 319 C 610 294.147184 654.77152 274 710 274 C 765.22848 274 810 294.147184 810 319 C 810 343.852816 765.22848 364 710 364 C 654.77152 364 610 343.852816 610 319 Z" stroke-miterlimit="10" stroke-dasharray=""/></g><g><g><path fill="none" stroke="none"/><text fill="#000000" stroke="none" font-family="Arial" font-size="13px" font-style="normal" font-weight="bold" text-decoration="undefined" x="737" y="325.5" text-anchor="middle" dominant-baseline="central" transform="matrix(1 0 0 1 -27 -25)">UC54.3 -</text><text fill="#000000" stroke="none" font-family="Arial" font-size="13px" font-style="normal" font-weight="bold" text-decoration="undefined" x="737" y="338.5" text-anchor="middle" dominant-baseline="central" transform="matrix(1 0 0 1 -27 -25)">Visualizzazione</text><text fill="#000000" stroke="none" font-family="Arial" font-size="13px" font-style="normal" font-weight="bold" text-decoration="undefined" x="737" y="351.5" text-anchor="middle" dominant-baseline="central" transform="matrix(1 0 0 1 -27 -25)">timestamp azione</text><text fill="#000000" stroke="none" font-family="Arial" font-size="13px" font-style="normal" font-weight="bold" text-decoration="undefined" x="737" y="364.5" text-anchor="middle" dominant-baseline="central" transform="matrix(1 0 0 1 -27 -25)">audit log</text></g></g><g><path fill="none" stroke="#000000" paint-order="fill stroke markers" d=" M 427 261 L 609 298" stroke-miterlimit="10" stroke-dasharray="3"/></g><g><path fill="none" stroke="#000000" paint-order="fill stroke markers" d=" M 598.202414711901 300.1005123056598 L 609 298 L 599.8796677270473 291.8502407176429" stroke-miterlimit="10" stroke-dasharray=""/></g><g><rect fill="#ffffff" stroke="none" x="510" y="310" width="55.65625" height="13" transform="matrix(1 0 0 1 -27 -25)"/></g><g><g><path fill="none" stroke="none"/><text fill="#000000" stroke="none" font-family="Arial" font-size="13px" font-style="normal" font-weight="normal" text-decoration="undefined" x="537.828125" y="316.5" text-anchor="middle" dominant-baseline="central" transform="matrix(1 0 0 1 -27 -25)">«include»</text></g></g><g><path fill="none" stroke="#000000" paint-order="fill stroke markers" d=" M 427 232 L 617 220" stroke-miterlimit="10" stroke-dasharray="3"/></g><g><path fill="none" stroke="#000000" paint-order="fill stroke markers" d=" M 607.1228693561582 224.84172389180557 L 617 220 L 606.5921981465453 216.43942973960264" stroke-miterlimit="10" stroke-dasharray=""/></g><g><rect fill="#ffffff" stroke="none" x="521" y="234" width="55.65625" height="13" transform="matrix(1 0 0 1 -27 -25)"/></g><g><g><path fill="none" stroke="none"/><text fill="#000000" stroke="none" font-family="Arial" font-size="13px" font-style="normal" font-weight="normal" text-decoration="undefined" x="548.828125" y="240.5" text-anchor="middle" dominant-baseline="central" transform="matrix(1 0 0 1 -27 -25)">«include»</text></g></g><g><path fill="none" stroke="#000000" paint-order="fill stroke markers" d=" M 427 197 L 569 140" stroke-miterlimit="10" stroke-dasharray="3"/></g><g><path fill="none" stroke="#000000" paint-order="fill stroke markers" d=" M 561.1368984546465 147.69231006183833 L 569 140 L 558.0006629684067 139.8792321838375" stroke-miterlimit="10" stroke-dasharray=""/></g><g><rect fill="#ffffff" stroke="none" x="498" y="167" width="55.65625" height="13" transform="matrix(1 0 0 1 -27 -25)"/></g><g><g><path fill="none" stroke="none"/><text fill="#000000" stroke="none" font-family="Arial" font-size="13px" font-style="normal" font-weight="normal" text-decoration="undefined" x="525.828125" y="173.5" text-anchor="middle" dominant-baseline="central" transform="matrix(1 0 0 1 -27 -25)">«include»</text></g></g><g><path fill="none" stroke="#000000" paint-order="fill stroke markers" d=" M 121 137 L 225 136" stroke-miterlimit="10" stroke-dasharray=""/></g></g></svg>