<svg version="1.1" xmlns="http://www.w3.org/2000/svg" xmlns:xlink="http://www.w3.org/1999/xlink" width="884" height="164"><defs/><g><g><rect fill="#C0C0C0" stroke="none" x="471" y="535" width="640" height="144" transform="matrix(1 0 0 1 -231 -518)" fill-opacity="0.2"/></g><g><rect fill="#ffffff" stroke="none" x="464" y="528" width="640" height="144" transform="matrix(1 0 0 1 -231 -518)"/></g><g><path fill="none" stroke="#000000" paint-order="fill stroke markers" d=" M 233 10 L 873 10 L 873 154 L 233 154 L 233 10 Z Z" stroke-miterlimit="10" stroke-dasharray=""/></g><g><g><path fill="none" stroke="none"/><text fill="#000000" stroke="none" font-family="Arial" font-size="13px" font-style="normal" font-weight="bold" text-decoration="undefined" x="784.5" y="541.5" text-anchor="middle" dominant-baseline="central" transform="matrix(1 0 0 1 -231 -518)">Sistema Cloud</text></g></g><g><path fill="#ffffff" stroke="none" paint-order="stroke fill markers" d=" M 55.278164062500025 58.85000000000002 C 55.278164062500025 53.96227952000004 59.235966430500014 50 64.1181640625 50 C 69.00036169449999 50 72.95816406249997 53.96227952000004 72.95816406249997 58.85000000000002 C 72.95816406249997 63.73772048000001 69.00036169449999 67.70000000000005 64.1181640625 67.70000000000005 C 59.235966430500014 67.70000000000005 55.278164062500025 63.73772048000001 55.278164062500025 58.85000000000002 Z"/></g><g><path fill="none" stroke="#000000" paint-order="fill stroke markers" d=" M 55.278164062500025 58.85000000000002 C 55.278164062500025 53.96227952000004 59.235966430500014 50 64.1181640625 50 C 69.00036169449999 50 72.95816406249997 53.96227952000004 72.95816406249997 58.85000000000002 C 72.95816406249997 63.73772048000001 69.00036169449999 67.70000000000005 64.1181640625 67.70000000000005 C 59.235966430500014 67.70000000000005 55.278164062500025 63.73772048000001 55.278164062500025 58.85000000000002 Z" stroke-miterlimit="10" stroke-dasharray=""/></g><g><path fill="none" stroke="#000000" paint-order="fill stroke markers" d=" M 64.1181640625 67.70000000000005 L 64.1181640625 85.29999999999995" stroke-miterlimit="10" stroke-dasharray=""/></g><g><path fill="none" stroke="#000000" paint-order="fill stroke markers" d=" M 54.758164062499986 74.29999999999995 L 73.47816406250001 74.29999999999995" stroke-miterlimit="10" stroke-dasharray=""/></g><g><path fill="none" stroke="#000000" paint-order="fill stroke markers" d=" M 64.1181640625 85.29999999999995 L 51.1181640625 103" stroke-miterlimit="10" stroke-dasharray=""/></g><g><path fill="none" stroke="#000000" paint-order="fill stroke markers" d=" M 64.1181640625 85.29999999999995 L 77.1181640625 103" stroke-miterlimit="10" stroke-dasharray=""/></g><g><g><path fill="none" stroke="none"/><text fill="#000000" stroke="none" font-family="Arial" font-size="13px" font-style="normal" font-weight="bold" text-decoration="undefined" x="295.6181640625" y="635.5" text-anchor="middle" dominant-baseline="central" transform="matrix(1 0 0 1 -231 -518)">Admin generico</text></g></g><g><path fill="#C0C0C0" stroke="none" paint-order="stroke fill markers" d=" M 281 106.5 C 281 91.86445279999998 329.35324160000005 80 389 80 C 448.64675839999995 80 497 91.86445279999998 497 106.5 C 497 121.13554720000002 448.64675839999995 133 389 133 C 329.35324160000005 133 281 121.13554720000002 281 106.5 Z" fill-opacity="0.2"/></g><g><path fill="#ffffff" stroke="none" paint-order="stroke fill markers" d=" M 274 99.5 C 274 84.86445279999998 322.35324160000005 73 382 73 C 441.64675839999995 73 490 84.86445279999998 490 99.5 C 490 114.13554720000002 441.64675839999995 126 382 126 C 322.35324160000005 126 274 114.13554720000002 274 99.5 Z"/></g><g><path fill="none" stroke="#000000" paint-order="fill stroke markers" d=" M 274 99.5 C 274 84.86445279999998 322.35324160000005 73 382 73 C 441.64675839999995 73 490 84.86445279999998 490 99.5 C 490 114.13554720000002 441.64675839999995 126 382 126 C 322.35324160000005 126 274 114.13554720000002 274 99.5 Z" stroke-miterlimit="10" stroke-dasharray=""/></g><g><g><path fill="none" stroke="none"/><text fill="#000000" stroke="none" font-family="Arial" font-size="13px" font-style="normal" font-weight="bold" text-decoration="undefined" x="613" y="612" text-anchor="middle" dominant-baseline="central" transform="matrix(1 0 0 1 -231 -518)">UC54 - Eliminazione</text><text fill="#000000" stroke="none" font-family="Arial" font-size="13px" font-style="normal" font-weight="bold" text-decoration="undefined" x="613" y="625" text-anchor="middle" dominant-baseline="central" transform="matrix(1 0 0 1 -231 -518)">API key</text></g></g><g><path fill="#C0C0C0" stroke="none" paint-order="stroke fill markers" d=" M 601 106.5 C 601 91.86445279999998 652.9349632 80 717 80 C 781.0650368 80 833 91.86445279999998 833 106.5 C 833 121.13554720000002 781.0650368 133 717 133 C 652.9349632 133 601 121.13554720000002 601 106.5 Z" fill-opacity="0.2"/></g><g><path fill="#ffffff" stroke="none" paint-order="stroke fill markers" d=" M 594 99.5 C 594 84.86445279999998 645.9349632 73 710 73 C 774.0650368 73 826 84.86445279999998 826 99.5 C 826 114.13554720000002 774.0650368 126 710 126 C 645.9349632 126 594 114.13554720000002 594 99.5 Z"/></g><g><path fill="none" stroke="#000000" paint-order="fill stroke markers" d=" M 594 99.5 C 594 84.86445279999998 645.9349632 73 710 73 C 774.0650368 73 826 84.86445279999998 826 99.5 C 826 114.13554720000002 774.0650368 126 710 126 C 645.9349632 126 594 114.13554720000002 594 99.5 Z" stroke-miterlimit="10" stroke-dasharray=""/></g><g><g><path fill="none" stroke="none"/><text fill="#000000" stroke="none" font-family="Arial" font-size="13px" font-style="normal" font-weight="bold" text-decoration="undefined" x="941" y="612" text-anchor="middle" dominant-baseline="central" transform="matrix(1 0 0 1 -231 -518)">UC54.1 - Conferma</text><text fill="#000000" stroke="none" font-family="Arial" font-size="13px" font-style="normal" font-weight="bold" text-decoration="undefined" x="941" y="625" text-anchor="middle" dominant-baseline="central" transform="matrix(1 0 0 1 -231 -518)">eliminazione API key</text></g></g><g><path fill="none" stroke="#000000" paint-order="fill stroke markers" d=" M 491 99 L 593 99" stroke-miterlimit="10" stroke-dasharray="3"/></g><g><path fill="none" stroke="#000000" paint-order="fill stroke markers" d=" M 582.8373251423759 103.209517756016 L 593 99 L 582.8373251423758 94.790482243984" stroke-miterlimit="10" stroke-dasharray=""/></g><g><rect fill="#ffffff" stroke="none" x="746" y="600" width="55.65625" height="13" transform="matrix(1 0 0 1 -231 -518)"/></g><g><g><path fill="none" stroke="none"/><text fill="#000000" stroke="none" font-family="Arial" font-size="13px" font-style="normal" font-weight="normal" text-decoration="undefined" x="773.828125" y="606.5" text-anchor="middle" dominant-baseline="central" transform="matrix(1 0 0 1 -231 -518)">«include»</text></g></g><g><path fill="none" stroke="#000000" paint-order="fill stroke markers" d=" M 273 96 L 119 91" stroke-miterlimit="10" stroke-dasharray=""/></g></g></svg>