<svg version="1.1" xmlns="http://www.w3.org/2000/svg" xmlns:xlink="http://www.w3.org/1999/xlink" width="836" height="100"><defs/><g><g><path fill="#ffffff" stroke="none" paint-order="stroke fill markers" d=" M 55.278164062500025 19.850000000000023 C 55.278164062500025 14.962279520000038 59.235966430500014 11 64.1181640625 11 C 69.00036169449999 11 72.95816406249997 14.962279520000038 72.95816406249997 19.850000000000023 C 72.95816406249997 24.737720480000007 69.00036169449999 28.700000000000045 64.1181640625 28.700000000000045 C 59.235966430500014 28.700000000000045 55.278164062500025 24.737720480000007 55.278164062500025 19.850000000000023 Z"/></g><g><path fill="none" stroke="#000000" paint-order="fill stroke markers" d=" M 55.278164062500025 19.850000000000023 C 55.278164062500025 14.962279520000038 59.235966430500014 11 64.1181640625 11 C 69.00036169449999 11 72.95816406249997 14.962279520000038 72.95816406249997 19.850000000000023 C 72.95816406249997 24.737720480000007 69.00036169449999 28.700000000000045 64.1181640625 28.700000000000045 C 59.235966430500014 28.700000000000045 55.278164062500025 24.737720480000007 55.278164062500025 19.850000000000023 Z" stroke-miterlimit="10" stroke-dasharray=""/></g><g><path fill="none" stroke="#000000" paint-order="fill stroke markers" d=" M 64.1181640625 28.700000000000045 L 64.1181640625 46.299999999999955" stroke-miterlimit="10" stroke-dasharray=""/></g><g><path fill="none" stroke="#000000" paint-order="fill stroke markers" d=" M 54.758164062499986 35.299999999999955 L 73.47816406250001 35.299999999999955" stroke-miterlimit="10" stroke-dasharray=""/></g><g><path fill="none" stroke="#000000" paint-order="fill stroke markers" d=" M 64.1181640625 46.299999999999955 L 51.1181640625 64" stroke-miterlimit="10" stroke-dasharray=""/></g><g><path fill="none" stroke="#000000" paint-order="fill stroke markers" d=" M 64.1181640625 46.299999999999955 L 77.1181640625 64" stroke-miterlimit="10" stroke-dasharray=""/></g><g><g><path fill="none" stroke="none"/><text fill="#000000" stroke="none" font-family="Arial" font-size="13px" font-style="normal" font-weight="bold" text-decoration="undefined" x="295.6181640625" y="635.5" text-anchor="middle" dominant-baseline="central" transform="matrix(1 0 0 1 -231 -557)">Admin generico</text></g></g><g><path fill="#C0C0C0" stroke="none" paint-order="stroke fill markers" d=" M 281 67.5 C 281 52.86445279999998 329.35324160000005 41 389 41 C 448.64675839999995 41 497 52.86445279999998 497 67.5 C 497 82.13554720000002 448.64675839999995 94 389 94 C 329.35324160000005 94 281 82.13554720000002 281 67.5 Z" fill-opacity="0.2"/></g><g><path fill="#ffffff" stroke="none" paint-order="stroke fill markers" d=" M 274 60.5 C 274 45.86445279999998 322.35324160000005 34 382 34 C 441.64675839999995 34 490 45.86445279999998 490 60.5 C 490 75.13554720000002 441.64675839999995 87 382 87 C 322.35324160000005 87 274 75.13554720000002 274 60.5 Z"/></g><g><path fill="none" stroke="#000000" paint-order="fill stroke markers" d=" M 274 60.5 C 274 45.86445279999998 322.35324160000005 34 382 34 C 441.64675839999995 34 490 45.86445279999998 490 60.5 C 490 75.13554720000002 441.64675839999995 87 382 87 C 322.35324160000005 87 274 75.13554720000002 274 60.5 Z" stroke-miterlimit="10" stroke-dasharray=""/></g><g><g><path fill="none" stroke="none"/><text fill="#000000" stroke="none" font-family="Arial" font-size="13px" font-style="normal" font-weight="bold" text-decoration="undefined" x="613" y="612" text-anchor="middle" dominant-baseline="central" transform="matrix(1 0 0 1 -231 -557)">UC54 - Eliminazione</text><text fill="#000000" stroke="none" font-family="Arial" font-size="13px" font-style="normal" font-weight="bold" text-decoration="undefined" x="613" y="625" text-anchor="middle" dominant-baseline="central" transform="matrix(1 0 0 1 -231 -557)">API key</text></g></g><g><path fill="#C0C0C0" stroke="none" paint-order="stroke fill markers" d=" M 601 67.5 C 601 52.86445279999998 652.9349632 41 717 41 C 781.0650368 41 833 52.86445279999998 833 67.5 C 833 82.13554720000002 781.0650368 94 717 94 C 652.9349632 94 601 82.13554720000002 601 67.5 Z" fill-opacity="0.2"/></g><g><path fill="#ffffff" stroke="none" paint-order="stroke fill markers" d=" M 594 60.5 C 594 45.86445279999998 645.9349632 34 710 34 C 774.0650368 34 826 45.86445279999998 826 60.5 C 826 75.13554720000002 774.0650368 87 710 87 C 645.9349632 87 594 75.13554720000002 594 60.5 Z"/></g><g><path fill="none" stroke="#000000" paint-order="fill stroke markers" d=" M 594 60.5 C 594 45.86445279999998 645.9349632 34 710 34 C 774.0650368 34 826 45.86445279999998 826 60.5 C 826 75.13554720000002 774.0650368 87 710 87 C 645.9349632 87 594 75.13554720000002 594 60.5 Z" stroke-miterlimit="10" stroke-dasharray=""/></g><g><g><path fill="none" stroke="none"/><text fill="#000000" stroke="none" font-family="Arial" font-size="13px" font-style="normal" font-weight="bold" text-decoration="undefined" x="941" y="612" text-anchor="middle" dominant-baseline="central" transform="matrix(1 0 0 1 -231 -557)">UC54.1 - Conferma</text><text fill="#000000" stroke="none" font-family="Arial" font-size="13px" font-style="normal" font-weight="bold" text-decoration="undefined" x="941" y="625" text-anchor="middle" dominant-baseline="central" transform="matrix(1 0 0 1 -231 -557)">eliminazione API key</text></g></g><g><path fill="none" stroke="#000000" paint-order="fill stroke markers" d=" M 491 60 L 593 60" stroke-miterlimit="10" stroke-dasharray="3"/></g><g><path fill="none" stroke="#000000" paint-order="fill stroke markers" d=" M 582.8373251423759 64.209517756016 L 593 60 L 582.8373251423758 55.790482243984" stroke-miterlimit="10" stroke-dasharray=""/></g><g><rect fill="#ffffff" stroke="none" x="746" y="600" width="55.65625" height="13" transform="matrix(1 0 0 1 -231 -557)"/></g><g><g><path fill="none" stroke="none"/><text fill="#000000" stroke="none" font-family="Arial" font-size="13px" font-style="normal" font-weight="normal" text-decoration="undefined" x="773.828125" y="606.5" text-anchor="middle" dominant-baseline="central" transform="matrix(1 0 0 1 -231 -557)">«include»</text></g></g><g><path fill="none" stroke="#000000" paint-order="fill stroke markers" d=" M 273 57 L 119 52" stroke-miterlimit="10" stroke-dasharray=""/></g></g></svg>