<svg version="1.1" xmlns="http://www.w3.org/2000/svg" xmlns:xlink="http://www.w3.org/1999/xlink" width="855" height="205"><defs/><g><g><rect fill="#C0C0C0" stroke="none" x="418" y="377" width="634" height="185" transform="matrix(1 0 0 1 -201 -360)" fill-opacity="0.2"/></g><g><rect fill="#ffffff" stroke="none" x="411" y="370" width="634" height="185" transform="matrix(1 0 0 1 -201 -360)"/></g><g><path fill="none" stroke="#000000" paint-order="fill stroke markers" d=" M 210 10 L 844 10 L 844 195 L 210 195 L 210 10 Z Z" stroke-miterlimit="10" stroke-dasharray=""/></g><g><g><path fill="none" stroke="none"/><text fill="#000000" stroke="none" font-family="Arial" font-size="13px" font-style="normal" font-weight="bold" text-decoration="undefined" x="728.5" y="383.5" text-anchor="middle" dominant-baseline="central" transform="matrix(1 0 0 1 -201 -360)">sistema cloud</text></g></g><g><path fill="#ffffff" stroke="none" paint-order="stroke fill markers" d=" M 55.278164062500025 75.85000000000002 C 55.278164062500025 70.96227952000004 59.235966430500014 67 64.1181640625 67 C 69.00036169449999 67 72.95816406249997 70.96227952000004 72.95816406249997 75.85000000000002 C 72.95816406249997 80.73772048000001 69.00036169449999 84.69999999999999 64.1181640625 84.69999999999999 C 59.235966430500014 84.69999999999999 55.278164062500025 80.73772048000001 55.278164062500025 75.85000000000002 Z"/></g><g><path fill="none" stroke="#000000" paint-order="fill stroke markers" d=" M 55.278164062500025 75.85000000000002 C 55.278164062500025 70.96227952000004 59.235966430500014 67 64.1181640625 67 C 69.00036169449999 67 72.95816406249997 70.96227952000004 72.95816406249997 75.85000000000002 C 72.95816406249997 80.73772048000001 69.00036169449999 84.69999999999999 64.1181640625 84.69999999999999 C 59.235966430500014 84.69999999999999 55.278164062500025 80.73772048000001 55.278164062500025 75.85000000000002 Z" stroke-miterlimit="10" stroke-dasharray=""/></g><g><path fill="none" stroke="#000000" paint-order="fill stroke markers" d=" M 64.1181640625 84.69999999999999 L 64.1181640625 102.30000000000001" stroke-miterlimit="10" stroke-dasharray=""/></g><g><path fill="none" stroke="#000000" paint-order="fill stroke markers" d=" M 54.758164062499986 91.30000000000001 L 73.47816406250001 91.30000000000001" stroke-miterlimit="10" stroke-dasharray=""/></g><g><path fill="none" stroke="#000000" paint-order="fill stroke markers" d=" M 64.1181640625 102.30000000000001 L 51.1181640625 120" stroke-miterlimit="10" stroke-dasharray=""/></g><g><path fill="none" stroke="#000000" paint-order="fill stroke markers" d=" M 64.1181640625 102.30000000000001 L 77.1181640625 120" stroke-miterlimit="10" stroke-dasharray=""/></g><g><g><path fill="none" stroke="none"/><text fill="#000000" stroke="none" font-family="Arial" font-size="13px" font-style="normal" font-weight="bold" text-decoration="undefined" x="265.6181640625" y="494.5" text-anchor="middle" dominant-baseline="central" transform="matrix(1 0 0 1 -201 -360)">Admin generico</text></g></g><g><path fill="#C0C0C0" stroke="none" paint-order="stroke fill markers" d=" M 281 123.5 C 281 108.86445279999998 329.35324160000005 97 389 97 C 448.64675839999995 97 497 108.86445279999998 497 123.5 C 497 138.13554720000002 448.64675839999995 150 389 150 C 329.35324160000005 150 281 138.13554720000002 281 123.5 Z" fill-opacity="0.2"/></g><g><path fill="#ffffff" stroke="none" paint-order="stroke fill markers" d=" M 274 116.5 C 274 101.86445279999998 322.35324160000005 90 382 90 C 441.64675839999995 90 490 101.86445279999998 490 116.5 C 490 131.13554720000002 441.64675839999995 143 382 143 C 322.35324160000005 143 274 131.13554720000002 274 116.5 Z"/></g><g><path fill="none" stroke="#000000" paint-order="fill stroke markers" d=" M 274 116.5 C 274 101.86445279999998 322.35324160000005 90 382 90 C 441.64675839999995 90 490 101.86445279999998 490 116.5 C 490 131.13554720000002 441.64675839999995 143 382 143 C 322.35324160000005 143 274 131.13554720000002 274 116.5 Z" stroke-miterlimit="10" stroke-dasharray=""/></g><g><g><path fill="none" stroke="none"/><text fill="#000000" stroke="none" font-family="Arial" font-size="13px" font-style="normal" font-weight="bold" text-decoration="undefined" x="583" y="471" text-anchor="middle" dominant-baseline="central" transform="matrix(1 0 0 1 -201 -360)">UC54 - Eliminazione</text><text fill="#000000" stroke="none" font-family="Arial" font-size="13px" font-style="normal" font-weight="bold" text-decoration="undefined" x="583" y="484" text-anchor="middle" dominant-baseline="central" transform="matrix(1 0 0 1 -201 -360)">API key</text></g></g><g><path fill="#C0C0C0" stroke="none" paint-order="stroke fill markers" d=" M 601 123.5 C 601 108.86445279999998 652.9349632 97 717 97 C 781.0650368 97 833 108.86445279999998 833 123.5 C 833 138.13554720000002 781.0650368 150 717 150 C 652.9349632 150 601 138.13554720000002 601 123.5 Z" fill-opacity="0.2"/></g><g><path fill="#ffffff" stroke="none" paint-order="stroke fill markers" d=" M 594 116.5 C 594 101.86445279999998 645.9349632 90 710 90 C 774.0650368 90 826 101.86445279999998 826 116.5 C 826 131.13554720000002 774.0650368 143 710 143 C 645.9349632 143 594 131.13554720000002 594 116.5 Z"/></g><g><path fill="none" stroke="#000000" paint-order="fill stroke markers" d=" M 594 116.5 C 594 101.86445279999998 645.9349632 90 710 90 C 774.0650368 90 826 101.86445279999998 826 116.5 C 826 131.13554720000002 774.0650368 143 710 143 C 645.9349632 143 594 131.13554720000002 594 116.5 Z" stroke-miterlimit="10" stroke-dasharray=""/></g><g><g><path fill="none" stroke="none"/><text fill="#000000" stroke="none" font-family="Arial" font-size="13px" font-style="normal" font-weight="bold" text-decoration="undefined" x="911" y="471" text-anchor="middle" dominant-baseline="central" transform="matrix(1 0 0 1 -201 -360)">UC54.1 - Conferma</text><text fill="#000000" stroke="none" font-family="Arial" font-size="13px" font-style="normal" font-weight="bold" text-decoration="undefined" x="911" y="484" text-anchor="middle" dominant-baseline="central" transform="matrix(1 0 0 1 -201 -360)">eliminazione API key</text></g></g><g><path fill="none" stroke="#000000" paint-order="fill stroke markers" d=" M 491 116 L 593 116" stroke-miterlimit="10" stroke-dasharray="3"/></g><g><path fill="none" stroke="#000000" paint-order="fill stroke markers" d=" M 582.8373251423759 120.209517756016 L 593 116 L 582.8373251423758 111.790482243984" stroke-miterlimit="10" stroke-dasharray=""/></g><g><rect fill="#ffffff" stroke="none" x="716" y="459" width="55.65625" height="13" transform="matrix(1 0 0 1 -201 -360)"/></g><g><g><path fill="none" stroke="none"/><text fill="#000000" stroke="none" font-family="Arial" font-size="13px" font-style="normal" font-weight="normal" text-decoration="undefined" x="743.828125" y="465.5" text-anchor="middle" dominant-baseline="central" transform="matrix(1 0 0 1 -201 -360)">«include»</text></g></g><g><path fill="none" stroke="#000000" paint-order="fill stroke markers" d=" M 273 113 L 119 108" stroke-miterlimit="10" stroke-dasharray=""/></g></g></svg>