<svg version="1.1" xmlns="http://www.w3.org/2000/svg" xmlns:xlink="http://www.w3.org/1999/xlink" width="1010" height="188"><defs/><g><g><rect fill="#C0C0C0" stroke="none" x="758" y="603" width="744" height="168" transform="matrix(1 0 0 1 -496 -586)" fill-opacity="0.2"/></g><g><rect fill="#ffffff" stroke="none" x="751" y="596" width="744" height="168" transform="matrix(1 0 0 1 -496 -586)"/></g><g><path fill="none" stroke="#000000" paint-order="fill stroke markers" d=" M 255 10 L 999 10 L 999 178 L 255 178 L 255 10 Z Z" stroke-miterlimit="10" stroke-dasharray=""/></g><g><g><path fill="none" stroke="none"/><text fill="#000000" stroke="none" font-family="Arial" font-size="13px" font-style="normal" font-weight="bold" text-decoration="undefined" x="1123.5" y="609.5" text-anchor="middle" dominant-baseline="central" transform="matrix(1 0 0 1 -496 -586)">Sistema Cloud</text></g></g><g><path fill="#ffffff" stroke="none" paint-order="stroke fill markers" d=" M 55.27816406249997 67.85000000000002 C 55.27816406249997 62.96227952000004 59.23596643049996 59 64.1181640625 59 C 69.00036169450004 59 72.95816406250003 62.96227952000004 72.95816406250003 67.85000000000002 C 72.95816406250003 72.73772048000001 69.00036169450004 76.70000000000005 64.1181640625 76.70000000000005 C 59.23596643049996 76.70000000000005 55.27816406249997 72.73772048000001 55.27816406249997 67.85000000000002 Z"/></g><g><path fill="none" stroke="#000000" paint-order="fill stroke markers" d=" M 55.27816406249997 67.85000000000002 C 55.27816406249997 62.96227952000004 59.23596643049996 59 64.1181640625 59 C 69.00036169450004 59 72.95816406250003 62.96227952000004 72.95816406250003 67.85000000000002 C 72.95816406250003 72.73772048000001 69.00036169450004 76.70000000000005 64.1181640625 76.70000000000005 C 59.23596643049996 76.70000000000005 55.27816406249997 72.73772048000001 55.27816406249997 67.85000000000002 Z" stroke-miterlimit="10" stroke-dasharray=""/></g><g><path fill="none" stroke="#000000" paint-order="fill stroke markers" d=" M 64.1181640625 76.70000000000005 L 64.1181640625 94.29999999999995" stroke-miterlimit="10" stroke-dasharray=""/></g><g><path fill="none" stroke="#000000" paint-order="fill stroke markers" d=" M 54.758164062499986 83.29999999999995 L 73.47816406250001 83.29999999999995" stroke-miterlimit="10" stroke-dasharray=""/></g><g><path fill="none" stroke="#000000" paint-order="fill stroke markers" d=" M 64.1181640625 94.29999999999995 L 51.1181640625 112" stroke-miterlimit="10" stroke-dasharray=""/></g><g><path fill="none" stroke="#000000" paint-order="fill stroke markers" d=" M 64.1181640625 94.29999999999995 L 77.1181640625 112" stroke-miterlimit="10" stroke-dasharray=""/></g><g><g><path fill="none" stroke="none"/><text fill="#000000" stroke="none" font-family="Arial" font-size="13px" font-style="normal" font-weight="bold" text-decoration="undefined" x="560.6181640625" y="712.5" text-anchor="middle" dominant-baseline="central" transform="matrix(1 0 0 1 -496 -586)">Admin generico</text></g></g><g><path fill="#C0C0C0" stroke="none" paint-order="stroke fill markers" d=" M 289 115.5 C 289 100.86445279999998 351.00855520000005 89 427.5 89 C 503.99144479999995 89 566 100.86445279999998 566 115.5 C 566 130.13554720000002 503.99144479999995 142 427.5 142 C 351.00855520000005 142 289 130.13554720000002 289 115.5 Z" fill-opacity="0.2"/></g><g><path fill="#ffffff" stroke="none" paint-order="stroke fill markers" d=" M 282 108.5 C 282 93.86445279999998 344.00855520000005 82 420.5 82 C 496.99144479999995 82 559 93.86445279999998 559 108.5 C 559 123.13554720000002 496.99144479999995 135 420.5 135 C 344.00855520000005 135 282 123.13554720000002 282 108.5 Z"/></g><g><path fill="none" stroke="#000000" paint-order="fill stroke markers" d=" M 282 108.5 C 282 93.86445279999998 344.00855520000005 82 420.5 82 C 496.99144479999995 82 559 93.86445279999998 559 108.5 C 559 123.13554720000002 496.99144479999995 135 420.5 135 C 344.00855520000005 135 282 123.13554720000002 282 108.5 Z" stroke-miterlimit="10" stroke-dasharray=""/></g><g><g><path fill="none" stroke="none"/><text fill="#000000" stroke="none" font-family="Arial" font-size="13px" font-style="normal" font-weight="bold" text-decoration="undefined" x="916.5" y="689" text-anchor="middle" dominant-baseline="central" transform="matrix(1 0 0 1 -496 -586)">UC55 - Visualizzazione lista</text><text fill="#000000" stroke="none" font-family="Arial" font-size="13px" font-style="normal" font-weight="bold" text-decoration="undefined" x="916.5" y="702" text-anchor="middle" dominant-baseline="central" transform="matrix(1 0 0 1 -496 -586)">audit log del tenant</text></g></g><g><path fill="#C0C0C0" stroke="none" paint-order="stroke fill markers" d=" M 670 115.5 C 670 100.86445279999998 723.7258240000001 89 790 89 C 856.2741759999999 89 910 100.86445279999998 910 115.5 C 910 130.13554720000002 856.2741759999999 142 790 142 C 723.7258240000001 142 670 130.13554720000002 670 115.5 Z" fill-opacity="0.2"/></g><g><path fill="#ffffff" stroke="none" paint-order="stroke fill markers" d=" M 663 108.5 C 663 93.86445279999998 716.7258240000001 82 783 82 C 849.2741759999999 82 903 93.86445279999998 903 108.5 C 903 123.13554720000002 849.2741759999999 135 783 135 C 716.7258240000001 135 663 123.13554720000002 663 108.5 Z"/></g><g><path fill="none" stroke="#000000" paint-order="fill stroke markers" d=" M 663 108.5 C 663 93.86445279999998 716.7258240000001 82 783 82 C 849.2741759999999 82 903 93.86445279999998 903 108.5 C 903 123.13554720000002 849.2741759999999 135 783 135 C 716.7258240000001 135 663 123.13554720000002 663 108.5 Z" stroke-miterlimit="10" stroke-dasharray=""/></g><g><g><path fill="none" stroke="none"/><text fill="#000000" stroke="none" font-family="Arial" font-size="13px" font-style="normal" font-weight="bold" text-decoration="undefined" x="1279" y="689" text-anchor="middle" dominant-baseline="central" transform="matrix(1 0 0 1 -496 -586)">UC56 - Visualizzazione</text><text fill="#000000" stroke="none" font-family="Arial" font-size="13px" font-style="normal" font-weight="bold" text-decoration="undefined" x="1279" y="702" text-anchor="middle" dominant-baseline="central" transform="matrix(1 0 0 1 -496 -586)">singolo audit log in lista</text></g></g><g><path fill="none" stroke="#000000" paint-order="fill stroke markers" d=" M 560 108 L 662 108" stroke-miterlimit="10" stroke-dasharray="3"/></g><g><path fill="none" stroke="#000000" paint-order="fill stroke markers" d=" M 651.8373251423759 112.209517756016 L 662 108 L 651.8373251423759 103.790482243984" stroke-miterlimit="10" stroke-dasharray=""/></g><g><rect fill="#ffffff" stroke="none" x="1079" y="673" width="55.65625" height="13" transform="matrix(1 0 0 1 -496 -586)"/></g><g><g><path fill="none" stroke="none"/><text fill="#000000" stroke="none" font-family="Arial" font-size="13px" font-style="normal" font-weight="normal" text-decoration="undefined" x="1106.828125" y="679.5" text-anchor="middle" dominant-baseline="central" transform="matrix(1 0 0 1 -496 -586)">«include»</text></g></g><g><path fill="none" stroke="#000000" paint-order="fill stroke markers" d=" M 281 104 L 119 100" stroke-miterlimit="10" stroke-dasharray=""/></g></g></svg>