<svg version="1.1" xmlns="http://www.w3.org/2000/svg" xmlns:xlink="http://www.w3.org/1999/xlink" width="917" height="205"><defs/><g><g><rect fill="#C0C0C0" stroke="none" x="427" y="377" width="656" height="185" transform="matrix(1 0 0 1 -170 -360)" fill-opacity="0.2"/></g><g><rect fill="#ffffff" stroke="none" x="420" y="370" width="656" height="185" transform="matrix(1 0 0 1 -170 -360)"/></g><g><path fill="none" stroke="#000000" paint-order="fill stroke markers" d=" M 250 10 L 906 10 L 906 195 L 250 195 L 250 10 Z Z" stroke-miterlimit="10" stroke-dasharray=""/></g><g><g><path fill="none" stroke="none"/><text fill="#000000" stroke="none" font-family="Arial" font-size="13px" font-style="normal" font-weight="bold" text-decoration="undefined" x="748.5" y="383.5" text-anchor="middle" dominant-baseline="central" transform="matrix(1 0 0 1 -170 -360)">sistema cloud</text></g></g><g><path fill="#ffffff" stroke="none" paint-order="stroke fill markers" d=" M 55.2781640625 75.85000000000002 C 55.2781640625 70.96227952000004 59.235966430499985 67 64.1181640625 67 C 69.00036169450001 67 72.9581640625 70.96227952000004 72.9581640625 75.85000000000002 C 72.9581640625 80.73772048000001 69.00036169450001 84.69999999999999 64.1181640625 84.69999999999999 C 59.235966430499985 84.69999999999999 55.2781640625 80.73772048000001 55.2781640625 75.85000000000002 Z"/></g><g><path fill="none" stroke="#000000" paint-order="fill stroke markers" d=" M 55.2781640625 75.85000000000002 C 55.2781640625 70.96227952000004 59.235966430499985 67 64.1181640625 67 C 69.00036169450001 67 72.9581640625 70.96227952000004 72.9581640625 75.85000000000002 C 72.9581640625 80.73772048000001 69.00036169450001 84.69999999999999 64.1181640625 84.69999999999999 C 59.235966430499985 84.69999999999999 55.2781640625 80.73772048000001 55.2781640625 75.85000000000002 Z" stroke-miterlimit="10" stroke-dasharray=""/></g><g><path fill="none" stroke="#000000" paint-order="fill stroke markers" d=" M 64.1181640625 84.69999999999999 L 64.1181640625 102.30000000000001" stroke-miterlimit="10" stroke-dasharray=""/></g><g><path fill="none" stroke="#000000" paint-order="fill stroke markers" d=" M 54.758164062499986 91.30000000000001 L 73.47816406250001 91.30000000000001" stroke-miterlimit="10" stroke-dasharray=""/></g><g><path fill="none" stroke="#000000" paint-order="fill stroke markers" d=" M 64.1181640625 102.30000000000001 L 51.1181640625 120" stroke-miterlimit="10" stroke-dasharray=""/></g><g><path fill="none" stroke="#000000" paint-order="fill stroke markers" d=" M 64.1181640625 102.30000000000001 L 77.1181640625 120" stroke-miterlimit="10" stroke-dasharray=""/></g><g><g><path fill="none" stroke="none"/><text fill="#000000" stroke="none" font-family="Arial" font-size="13px" font-style="normal" font-weight="bold" text-decoration="undefined" x="234.6181640625" y="494.5" text-anchor="middle" dominant-baseline="central" transform="matrix(1 0 0 1 -170 -360)">Admin generico</text></g></g><g><path fill="#C0C0C0" stroke="none" paint-order="stroke fill markers" d=" M 289 123.5 C 289 108.86445279999998 344.5166848 97 413 97 C 481.4833152 97 537 108.86445279999998 537 123.5 C 537 138.13554720000002 481.4833152 150 413 150 C 344.5166848 150 289 138.13554720000002 289 123.5 Z" fill-opacity="0.2"/></g><g><path fill="#ffffff" stroke="none" paint-order="stroke fill markers" d=" M 282 116.5 C 282 101.86445279999998 337.5166848 90 406 90 C 474.4833152 90 530 101.86445279999998 530 116.5 C 530 131.13554720000002 474.4833152 143 406 143 C 337.5166848 143 282 131.13554720000002 282 116.5 Z"/></g><g><path fill="none" stroke="#000000" paint-order="fill stroke markers" d=" M 282 116.5 C 282 101.86445279999998 337.5166848 90 406 90 C 474.4833152 90 530 101.86445279999998 530 116.5 C 530 131.13554720000002 474.4833152 143 406 143 C 337.5166848 143 282 131.13554720000002 282 116.5 Z" stroke-miterlimit="10" stroke-dasharray=""/></g><g><g><path fill="none" stroke="none"/><text fill="#000000" stroke="none" font-family="Arial" font-size="13px" font-style="normal" font-weight="bold" text-decoration="undefined" x="576" y="471" text-anchor="middle" dominant-baseline="central" transform="matrix(1 0 0 1 -170 -360)">UC55 - Visualizzazione</text><text fill="#000000" stroke="none" font-family="Arial" font-size="13px" font-style="normal" font-weight="bold" text-decoration="undefined" x="576" y="484" text-anchor="middle" dominant-baseline="central" transform="matrix(1 0 0 1 -170 -360)">lista audit log del tenant</text></g></g><g><path fill="#C0C0C0" stroke="none" paint-order="stroke fill markers" d=" M 657 123.5 C 657 108.86445279999998 710.725824 97 777 97 C 843.274176 97 897 108.86445279999998 897 123.5 C 897 138.13554720000002 843.274176 150 777 150 C 710.725824 150 657 138.13554720000002 657 123.5 Z" fill-opacity="0.2"/></g><g><path fill="#ffffff" stroke="none" paint-order="stroke fill markers" d=" M 650 116.5 C 650 101.86445279999998 703.725824 90 770 90 C 836.274176 90 890 101.86445279999998 890 116.5 C 890 131.13554720000002 836.274176 143 770 143 C 703.725824 143 650 131.13554720000002 650 116.5 Z"/></g><g><path fill="none" stroke="#000000" paint-order="fill stroke markers" d=" M 650 116.5 C 650 101.86445279999998 703.725824 90 770 90 C 836.274176 90 890 101.86445279999998 890 116.5 C 890 131.13554720000002 836.274176 143 770 143 C 703.725824 143 650 131.13554720000002 650 116.5 Z" stroke-miterlimit="10" stroke-dasharray=""/></g><g><g><path fill="none" stroke="none"/><text fill="#000000" stroke="none" font-family="Arial" font-size="13px" font-style="normal" font-weight="bold" text-decoration="undefined" x="940" y="471" text-anchor="middle" dominant-baseline="central" transform="matrix(1 0 0 1 -170 -360)">UC56 - Visualizzazione</text><text fill="#000000" stroke="none" font-family="Arial" font-size="13px" font-style="normal" font-weight="bold" text-decoration="undefined" x="940" y="484" text-anchor="middle" dominant-baseline="central" transform="matrix(1 0 0 1 -170 -360)">singolo audit log in lista</text></g></g><g><path fill="none" stroke="#000000" paint-order="fill stroke markers" d=" M 531 116 L 649 116" stroke-miterlimit="10" stroke-dasharray="3"/></g><g><path fill="none" stroke="#000000" paint-order="fill stroke markers" d=" M 638.8373251423759 120.209517756016 L 649 116 L 638.8373251423758 111.790482243984" stroke-miterlimit="10" stroke-dasharray=""/></g><g><rect fill="#ffffff" stroke="none" x="732" y="455" width="55.65625" height="13" transform="matrix(1 0 0 1 -170 -360)"/></g><g><g><path fill="none" stroke="none"/><text fill="#000000" stroke="none" font-family="Arial" font-size="13px" font-style="normal" font-weight="normal" text-decoration="undefined" x="759.828125" y="461.5" text-anchor="middle" dominant-baseline="central" transform="matrix(1 0 0 1 -170 -360)">«include»</text></g></g><g><path fill="none" stroke="#000000" paint-order="fill stroke markers" d=" M 281 112 L 119 108" stroke-miterlimit="10" stroke-dasharray=""/></g></g></svg>