<svg version="1.1" xmlns="http://www.w3.org/2000/svg" xmlns:xlink="http://www.w3.org/1999/xlink" width="900" height="100"><defs/><g><g><path fill="#ffffff" stroke="none" paint-order="stroke fill markers" d=" M 55.2781640625 19.850000000000023 C 55.2781640625 14.962279520000038 59.235966430500014 11 64.1181640625 11 C 69.00036169449999 11 72.95816406249997 14.962279520000038 72.95816406249997 19.850000000000023 C 72.95816406249997 24.737720480000007 69.00036169449999 28.700000000000045 64.1181640625 28.700000000000045 C 59.235966430500014 28.700000000000045 55.2781640625 24.737720480000007 55.2781640625 19.850000000000023 Z"/></g><g><path fill="none" stroke="#000000" paint-order="fill stroke markers" d=" M 55.2781640625 19.850000000000023 C 55.2781640625 14.962279520000038 59.235966430500014 11 64.1181640625 11 C 69.00036169449999 11 72.95816406249997 14.962279520000038 72.95816406249997 19.850000000000023 C 72.95816406249997 24.737720480000007 69.00036169449999 28.700000000000045 64.1181640625 28.700000000000045 C 59.235966430500014 28.700000000000045 55.2781640625 24.737720480000007 55.2781640625 19.850000000000023 Z" stroke-miterlimit="10" stroke-dasharray=""/></g><g><path fill="none" stroke="#000000" paint-order="fill stroke markers" d=" M 64.1181640625 28.700000000000045 L 64.1181640625 46.299999999999955" stroke-miterlimit="10" stroke-dasharray=""/></g><g><path fill="none" stroke="#000000" paint-order="fill stroke markers" d=" M 54.758164062499986 35.299999999999955 L 73.47816406250001 35.299999999999955" stroke-miterlimit="10" stroke-dasharray=""/></g><g><path fill="none" stroke="#000000" paint-order="fill stroke markers" d=" M 64.1181640625 46.299999999999955 L 51.1181640625 64" stroke-miterlimit="10" stroke-dasharray=""/></g><g><path fill="none" stroke="#000000" paint-order="fill stroke markers" d=" M 64.1181640625 46.299999999999955 L 77.1181640625 64" stroke-miterlimit="10" stroke-dasharray=""/></g><g><g><path fill="none" stroke="none"/><text fill="#000000" stroke="none" font-family="Arial" font-size="13px" font-style="normal" font-weight="bold" text-decoration="undefined" x="263.6181640625" y="635.5" text-anchor="middle" dominant-baseline="central" transform="matrix(1 0 0 1 -199 -557)">Admin generico</text></g></g><g><path fill="#C0C0C0" stroke="none" paint-order="stroke fill markers" d=" M 289 67.5 C 289 52.86445279999998 344.5166848 41 413 41 C 481.4833152 41 537 52.86445279999998 537 67.5 C 537 82.13554720000002 481.4833152 94 413 94 C 344.5166848 94 289 82.13554720000002 289 67.5 Z" fill-opacity="0.2"/></g><g><path fill="#ffffff" stroke="none" paint-order="stroke fill markers" d=" M 282 60.5 C 282 45.86445279999998 337.5166848 34 406 34 C 474.4833152 34 530 45.86445279999998 530 60.5 C 530 75.13554720000002 474.4833152 87 406 87 C 337.5166848 87 282 75.13554720000002 282 60.5 Z"/></g><g><path fill="none" stroke="#000000" paint-order="fill stroke markers" d=" M 282 60.5 C 282 45.86445279999998 337.5166848 34 406 34 C 474.4833152 34 530 45.86445279999998 530 60.5 C 530 75.13554720000002 474.4833152 87 406 87 C 337.5166848 87 282 75.13554720000002 282 60.5 Z" stroke-miterlimit="10" stroke-dasharray=""/></g><g><g><path fill="none" stroke="none"/><text fill="#000000" stroke="none" font-family="Arial" font-size="13px" font-style="normal" font-weight="bold" text-decoration="undefined" x="605" y="612" text-anchor="middle" dominant-baseline="central" transform="matrix(1 0 0 1 -199 -557)">UC55 - Visualizzazione</text><text fill="#000000" stroke="none" font-family="Arial" font-size="13px" font-style="normal" font-weight="bold" text-decoration="undefined" x="605" y="625" text-anchor="middle" dominant-baseline="central" transform="matrix(1 0 0 1 -199 -557)">lista audit log del tenant</text></g></g><g><path fill="#C0C0C0" stroke="none" paint-order="stroke fill markers" d=" M 657 67.5 C 657 52.86445279999998 710.725824 41 777 41 C 843.2741759999999 41 897 52.86445279999998 897 67.5 C 897 82.13554720000002 843.2741759999999 94 777 94 C 710.725824 94 657 82.13554720000002 657 67.5 Z" fill-opacity="0.2"/></g><g><path fill="#ffffff" stroke="none" paint-order="stroke fill markers" d=" M 650 60.5 C 650 45.86445279999998 703.725824 34 770 34 C 836.2741759999999 34 890 45.86445279999998 890 60.5 C 890 75.13554720000002 836.2741759999999 87 770 87 C 703.725824 87 650 75.13554720000002 650 60.5 Z"/></g><g><path fill="none" stroke="#000000" paint-order="fill stroke markers" d=" M 650 60.5 C 650 45.86445279999998 703.725824 34 770 34 C 836.2741759999999 34 890 45.86445279999998 890 60.5 C 890 75.13554720000002 836.2741759999999 87 770 87 C 703.725824 87 650 75.13554720000002 650 60.5 Z" stroke-miterlimit="10" stroke-dasharray=""/></g><g><g><path fill="none" stroke="none"/><text fill="#000000" stroke="none" font-family="Arial" font-size="13px" font-style="normal" font-weight="bold" text-decoration="undefined" x="969" y="612" text-anchor="middle" dominant-baseline="central" transform="matrix(1 0 0 1 -199 -557)">UC56 - Visualizzazione</text><text fill="#000000" stroke="none" font-family="Arial" font-size="13px" font-style="normal" font-weight="bold" text-decoration="undefined" x="969" y="625" text-anchor="middle" dominant-baseline="central" transform="matrix(1 0 0 1 -199 -557)">singolo audit log in lista</text></g></g><g><path fill="none" stroke="#000000" paint-order="fill stroke markers" d=" M 531 60 L 649 60" stroke-miterlimit="10" stroke-dasharray="3"/></g><g><path fill="none" stroke="#000000" paint-order="fill stroke markers" d=" M 638.8373251423759 64.209517756016 L 649 60 L 638.8373251423758 55.790482243984" stroke-miterlimit="10" stroke-dasharray=""/></g><g><rect fill="#ffffff" stroke="none" x="761" y="596" width="55.65625" height="13" transform="matrix(1 0 0 1 -199 -557)"/></g><g><g><path fill="none" stroke="none"/><text fill="#000000" stroke="none" font-family="Arial" font-size="13px" font-style="normal" font-weight="normal" text-decoration="undefined" x="788.828125" y="602.5" text-anchor="middle" dominant-baseline="central" transform="matrix(1 0 0 1 -199 -557)">«include»</text></g></g><g><path fill="none" stroke="#000000" paint-order="fill stroke markers" d=" M 281 56 L 119 52" stroke-miterlimit="10" stroke-dasharray=""/></g></g></svg>