<svg version="1.1" xmlns="http://www.w3.org/2000/svg" xmlns:xlink="http://www.w3.org/1999/xlink" width="909" height="436"><defs/><g><g><rect fill="#C0C0C0" stroke="none" x="209" y="169" width="744" height="416" transform="matrix(1 0 0 1 -48 -152)" fill-opacity="0.2"/></g><g><rect fill="#ffffff" stroke="none" x="202" y="162" width="744" height="416" transform="matrix(1 0 0 1 -48 -152)"/></g><g><path fill="none" stroke="#000000" paint-order="fill stroke markers" d=" M 154 10 L 898 10 L 898 426 L 154 426 L 154 10 Z Z" stroke-miterlimit="10" stroke-dasharray=""/></g><g><g><path fill="none" stroke="none"/><text fill="#000000" stroke="none" font-family="Arial" font-size="13px" font-style="normal" font-weight="bold" text-decoration="undefined" x="574.5" y="175.5" text-anchor="middle" dominant-baseline="central" transform="matrix(1 0 0 1 -48 -152)">Sistema cloud</text></g></g><g><path fill="#ffffff" stroke="none" paint-order="stroke fill markers" d=" M 56.36361328125 107.85000000000002 C 56.36361328125 102.96227952000004 60.32141564925 99 65.20361328125 99 C 70.08581091325 99 74.04361328125 102.96227952000004 74.04361328125 107.85000000000002 C 74.04361328125 112.73772048000001 70.08581091325 116.69999999999999 65.20361328125 116.69999999999999 C 60.32141564925 116.69999999999999 56.36361328125 112.73772048000001 56.36361328125 107.85000000000002 Z"/></g><g><path fill="none" stroke="#000000" paint-order="fill stroke markers" d=" M 56.36361328125 107.85000000000002 C 56.36361328125 102.96227952000004 60.32141564925 99 65.20361328125 99 C 70.08581091325 99 74.04361328125 102.96227952000004 74.04361328125 107.85000000000002 C 74.04361328125 112.73772048000001 70.08581091325 116.69999999999999 65.20361328125 116.69999999999999 C 60.32141564925 116.69999999999999 56.36361328125 112.73772048000001 56.36361328125 107.85000000000002 Z" stroke-miterlimit="10" stroke-dasharray=""/></g><g><path fill="none" stroke="#000000" paint-order="fill stroke markers" d=" M 65.20361328125 116.69999999999999 L 65.20361328125 134.3" stroke-miterlimit="10" stroke-dasharray=""/></g><g><path fill="none" stroke="#000000" paint-order="fill stroke markers" d=" M 55.84361328125 123.30000000000001 L 74.56361328125 123.30000000000001" stroke-miterlimit="10" stroke-dasharray=""/></g><g><path fill="none" stroke="#000000" paint-order="fill stroke markers" d=" M 65.20361328125 134.3 L 52.20361328125 152" stroke-miterlimit="10" stroke-dasharray=""/></g><g><path fill="none" stroke="#000000" paint-order="fill stroke markers" d=" M 65.20361328125 134.3 L 78.20361328125 152" stroke-miterlimit="10" stroke-dasharray=""/></g><g><g><path fill="none" stroke="none"/><text fill="#000000" stroke="none" font-family="Arial" font-size="13px" font-style="normal" font-weight="bold" text-decoration="undefined" x="113.70361328125" y="318.5" text-anchor="middle" dominant-baseline="central" transform="matrix(1 0 0 1 -48 -152)">Admin generico</text></g></g><g><path fill="#C0C0C0" stroke="none" paint-order="stroke fill markers" d=" M 233 141 C 233 121.1177472 283.1441024 105 345 105 C 406.8558976 105 457 121.1177472 457 141 C 457 160.8822528 406.8558976 177 345 177 C 283.1441024 177 233 160.8822528 233 141 Z" fill-opacity="0.2"/></g><g><path fill="#ffffff" stroke="none" paint-order="stroke fill markers" d=" M 226 134 C 226 114.1177472 276.1441024 98 338 98 C 399.8558976 98 450 114.1177472 450 134 C 450 153.8822528 399.8558976 170 338 170 C 276.1441024 170 226 153.8822528 226 134 Z"/></g><g><path fill="none" stroke="#000000" paint-order="fill stroke markers" d=" M 226 134 C 226 114.1177472 276.1441024 98 338 98 C 399.8558976 98 450 114.1177472 450 134 C 450 153.8822528 399.8558976 170 338 170 C 276.1441024 170 226 153.8822528 226 134 Z" stroke-miterlimit="10" stroke-dasharray=""/></g><g><g><path fill="none" stroke="none"/><text fill="#000000" stroke="none" font-family="Arial" font-size="13px" font-style="normal" font-weight="bold" text-decoration="undefined" x="386" y="274" text-anchor="middle" dominant-baseline="central" transform="matrix(1 0 0 1 -48 -152)">UC55 - Visualizzazione</text><text fill="#000000" stroke="none" font-family="Arial" font-size="13px" font-style="normal" font-weight="bold" text-decoration="undefined" x="386" y="287" text-anchor="middle" dominant-baseline="central" transform="matrix(1 0 0 1 -48 -152)">lista audit log del</text><text fill="#000000" stroke="none" font-family="Arial" font-size="13px" font-style="normal" font-weight="bold" text-decoration="undefined" x="386" y="300" text-anchor="middle" dominant-baseline="central" transform="matrix(1 0 0 1 -48 -152)">tenant</text></g></g><g><path fill="#ffffff" stroke="none" paint-order="stroke fill markers" d=" M 218 239 C 218 214.14718399999998 264.5623808 194 322 194 C 379.4376192 194 426 214.14718399999998 426 239 C 426 263.852816 379.4376192 284 322 284 C 264.5623808 284 218 263.852816 218 239 Z"/></g><g><path fill="none" stroke="#000000" paint-order="fill stroke markers" d=" M 218 239 C 218 214.14718399999998 264.5623808 194 322 194 C 379.4376192 194 426 214.14718399999998 426 239 C 426 263.852816 379.4376192 284 322 284 C 264.5623808 284 218 263.852816 218 239 Z" stroke-miterlimit="10" stroke-dasharray=""/></g><g><g><path fill="none" stroke="none"/><text fill="#000000" stroke="none" font-family="Arial" font-size="13px" font-style="normal" font-weight="bold" text-decoration="undefined" x="370" y="372.5" text-anchor="middle" dominant-baseline="central" transform="matrix(1 0 0 1 -48 -152)">UC56 -</text><text fill="#000000" stroke="none" font-family="Arial" font-size="13px" font-style="normal" font-weight="bold" text-decoration="undefined" x="370" y="385.5" text-anchor="middle" dominant-baseline="central" transform="matrix(1 0 0 1 -48 -152)">Visualizzazione</text><text fill="#000000" stroke="none" font-family="Arial" font-size="13px" font-style="normal" font-weight="bold" text-decoration="undefined" x="370" y="398.5" text-anchor="middle" dominant-baseline="central" transform="matrix(1 0 0 1 -48 -152)">singolo audit log in</text><text fill="#000000" stroke="none" font-family="Arial" font-size="13px" font-style="normal" font-weight="bold" text-decoration="undefined" x="370" y="411.5" text-anchor="middle" dominant-baseline="central" transform="matrix(1 0 0 1 -48 -152)">lista</text></g></g><g><path fill="none" stroke="#000000" paint-order="fill stroke markers" d=" M 332 171 L 329 193" stroke-miterlimit="10" stroke-dasharray="3"/></g><g><path fill="none" stroke="#000000" paint-order="fill stroke markers" d=" M 326.2021943830975 182.36175372864358 L 329 193 L 334.54402875425507 183.4992765974378" stroke-miterlimit="10" stroke-dasharray=""/></g><g><rect fill="#ffffff" stroke="none" x="380" y="330" width="55.65625" height="13" transform="matrix(1 0 0 1 -48 -152)"/></g><g><g><path fill="none" stroke="none"/><text fill="#000000" stroke="none" font-family="Arial" font-size="13px" font-style="normal" font-weight="normal" text-decoration="undefined" x="407.828125" y="336.5" text-anchor="middle" dominant-baseline="central" transform="matrix(1 0 0 1 -48 -152)">«include»</text></g></g><g><path fill="#C0C0C0" stroke="none" paint-order="stroke fill markers" d=" M 577 110 C 577 85.14718400000001 618.1897984 65 669 65 C 719.8102016 65 761 85.14718400000001 761 110 C 761 134.85281600000002 719.8102016 155 669 155 C 618.1897984 155 577 134.85281600000002 577 110 Z" fill-opacity="0.2"/></g><g><path fill="#ffffff" stroke="none" paint-order="stroke fill markers" d=" M 570 103 C 570 78.14718400000001 611.1897984 58 662 58 C 712.8102016 58 754 78.14718400000001 754 103 C 754 127.85281600000002 712.8102016 148 662 148 C 611.1897984 148 570 127.85281600000002 570 103 Z"/></g><g><path fill="none" stroke="#000000" paint-order="fill stroke markers" d=" M 570 103 C 570 78.14718400000001 611.1897984 58 662 58 C 712.8102016 58 754 78.14718400000001 754 103 C 754 127.85281600000002 712.8102016 148 662 148 C 611.1897984 148 570 127.85281600000002 570 103 Z" stroke-miterlimit="10" stroke-dasharray=""/></g><g><g><path fill="none" stroke="none"/><text fill="#000000" stroke="none" font-family="Arial" font-size="13px" font-style="normal" font-weight="bold" text-decoration="undefined" x="710" y="236.5" text-anchor="middle" dominant-baseline="central" transform="matrix(1 0 0 1 -48 -152)">UC56.1 -</text><text fill="#000000" stroke="none" font-family="Arial" font-size="13px" font-style="normal" font-weight="bold" text-decoration="undefined" x="710" y="249.5" text-anchor="middle" dominant-baseline="central" transform="matrix(1 0 0 1 -48 -152)">Visualizzazione</text><text fill="#000000" stroke="none" font-family="Arial" font-size="13px" font-style="normal" font-weight="bold" text-decoration="undefined" x="710" y="262.5" text-anchor="middle" dominant-baseline="central" transform="matrix(1 0 0 1 -48 -152)">tipo azione audit</text><text fill="#000000" stroke="none" font-family="Arial" font-size="13px" font-style="normal" font-weight="bold" text-decoration="undefined" x="710" y="275.5" text-anchor="middle" dominant-baseline="central" transform="matrix(1 0 0 1 -48 -152)">log</text></g></g><g><path fill="#C0C0C0" stroke="none" paint-order="stroke fill markers" d=" M 625 221 C 625 201.1177472 667.9806592 185 721 185 C 774.0193408 185 817 201.1177472 817 221 C 817 240.8822528 774.0193408 257 721 257 C 667.9806592 257 625 240.8822528 625 221 Z" fill-opacity="0.2"/></g><g><path fill="#ffffff" stroke="none" paint-order="stroke fill markers" d=" M 618 214 C 618 194.1177472 660.9806592 178 714 178 C 767.0193408 178 810 194.1177472 810 214 C 810 233.8822528 767.0193408 250 714 250 C 660.9806592 250 618 233.8822528 618 214 Z"/></g><g><path fill="none" stroke="#000000" paint-order="fill stroke markers" d=" M 618 214 C 618 194.1177472 660.9806592 178 714 178 C 767.0193408 178 810 194.1177472 810 214 C 810 233.8822528 767.0193408 250 714 250 C 660.9806592 250 618 233.8822528 618 214 Z" stroke-miterlimit="10" stroke-dasharray=""/></g><g><g><path fill="none" stroke="none"/><text fill="#000000" stroke="none" font-family="Arial" font-size="13px" font-style="normal" font-weight="bold" text-decoration="undefined" x="762" y="354" text-anchor="middle" dominant-baseline="central" transform="matrix(1 0 0 1 -48 -152)">UC56.2 -</text><text fill="#000000" stroke="none" font-family="Arial" font-size="13px" font-style="normal" font-weight="bold" text-decoration="undefined" x="762" y="367" text-anchor="middle" dominant-baseline="central" transform="matrix(1 0 0 1 -48 -152)">Visualizzazione tipo</text><text fill="#000000" stroke="none" font-family="Arial" font-size="13px" font-style="normal" font-weight="bold" text-decoration="undefined" x="762" y="380" text-anchor="middle" dominant-baseline="central" transform="matrix(1 0 0 1 -48 -152)">azione audit log</text></g></g><g><path fill="#C0C0C0" stroke="none" paint-order="stroke fill markers" d=" M 617 326 C 617 301.147184 661.77152 281 717 281 C 772.22848 281 817 301.147184 817 326 C 817 350.852816 772.22848 371 717 371 C 661.77152 371 617 350.852816 617 326 Z" fill-opacity="0.2"/></g><g><path fill="#ffffff" stroke="none" paint-order="stroke fill markers" d=" M 610 319 C 610 294.147184 654.77152 274 710 274 C 765.22848 274 810 294.147184 810 319 C 810 343.852816 765.22848 364 710 364 C 654.77152 364 610 343.852816 610 319 Z"/></g><g><path fill="none" stroke="#000000" paint-order="fill stroke markers" d=" M 610 319 C 610 294.147184 654.77152 274 710 274 C 765.22848 274 810 294.147184 810 319 C 810 343.852816 765.22848 364 710 364 C 654.77152 364 610 343.852816 610 319 Z" stroke-miterlimit="10" stroke-dasharray=""/></g><g><g><path fill="none" stroke="none"/><text fill="#000000" stroke="none" font-family="Arial" font-size="13px" font-style="normal" font-weight="bold" text-decoration="undefined" x="758" y="452.5" text-anchor="middle" dominant-baseline="central" transform="matrix(1 0 0 1 -48 -152)">UC56.3 -</text><text fill="#000000" stroke="none" font-family="Arial" font-size="13px" font-style="normal" font-weight="bold" text-decoration="undefined" x="758" y="465.5" text-anchor="middle" dominant-baseline="central" transform="matrix(1 0 0 1 -48 -152)">Visualizzazione</text><text fill="#000000" stroke="none" font-family="Arial" font-size="13px" font-style="normal" font-weight="bold" text-decoration="undefined" x="758" y="478.5" text-anchor="middle" dominant-baseline="central" transform="matrix(1 0 0 1 -48 -152)">timestamp azione</text><text fill="#000000" stroke="none" font-family="Arial" font-size="13px" font-style="normal" font-weight="bold" text-decoration="undefined" x="758" y="491.5" text-anchor="middle" dominant-baseline="central" transform="matrix(1 0 0 1 -48 -152)">audit log</text></g></g><g><path fill="none" stroke="#000000" paint-order="fill stroke markers" d=" M 427 261 L 609 298" stroke-miterlimit="10" stroke-dasharray="3"/></g><g><path fill="none" stroke="#000000" paint-order="fill stroke markers" d=" M 598.202414711901 300.1005123056598 L 609 298 L 599.8796677270473 291.8502407176429" stroke-miterlimit="10" stroke-dasharray=""/></g><g><rect fill="#ffffff" stroke="none" x="531" y="437" width="55.65625" height="13" transform="matrix(1 0 0 1 -48 -152)"/></g><g><g><path fill="none" stroke="none"/><text fill="#000000" stroke="none" font-family="Arial" font-size="13px" font-style="normal" font-weight="normal" text-decoration="undefined" x="558.828125" y="443.5" text-anchor="middle" dominant-baseline="central" transform="matrix(1 0 0 1 -48 -152)">«include»</text></g></g><g><path fill="none" stroke="#000000" paint-order="fill stroke markers" d=" M 427 232 L 617 220" stroke-miterlimit="10" stroke-dasharray="3"/></g><g><path fill="none" stroke="#000000" paint-order="fill stroke markers" d=" M 607.1228693561582 224.84172389180554 L 617 220 L 606.5921981465453 216.43942973960264" stroke-miterlimit="10" stroke-dasharray=""/></g><g><rect fill="#ffffff" stroke="none" x="542" y="361" width="55.65625" height="13" transform="matrix(1 0 0 1 -48 -152)"/></g><g><g><path fill="none" stroke="none"/><text fill="#000000" stroke="none" font-family="Arial" font-size="13px" font-style="normal" font-weight="normal" text-decoration="undefined" x="569.828125" y="367.5" text-anchor="middle" dominant-baseline="central" transform="matrix(1 0 0 1 -48 -152)">«include»</text></g></g><g><path fill="none" stroke="#000000" paint-order="fill stroke markers" d=" M 427 197 L 569 140" stroke-miterlimit="10" stroke-dasharray="3"/></g><g><path fill="none" stroke="#000000" paint-order="fill stroke markers" d=" M 561.1368984546465 147.69231006183833 L 569 140 L 558.0006629684067 139.87923218383747" stroke-miterlimit="10" stroke-dasharray=""/></g><g><rect fill="#ffffff" stroke="none" x="519" y="294" width="55.65625" height="13" transform="matrix(1 0 0 1 -48 -152)"/></g><g><g><path fill="none" stroke="none"/><text fill="#000000" stroke="none" font-family="Arial" font-size="13px" font-style="normal" font-weight="normal" text-decoration="undefined" x="546.828125" y="300.5" text-anchor="middle" dominant-baseline="central" transform="matrix(1 0 0 1 -48 -152)">«include»</text></g></g><g><path fill="none" stroke="#000000" paint-order="fill stroke markers" d=" M 121 137 L 225 136" stroke-miterlimit="10" stroke-dasharray=""/></g></g></svg>