<svg version="1.1" xmlns="http://www.w3.org/2000/svg" xmlns:xlink="http://www.w3.org/1999/xlink" width="852" height="316"><defs/><g><g><rect fill="#C0C0C0" stroke="none" x="644" y="476" width="616" height="296" transform="matrix(1 0 0 1 -412 -459)" fill-opacity="0.2"/></g><g><rect fill="#ffffff" stroke="none" x="637" y="469" width="616" height="296" transform="matrix(1 0 0 1 -412 -459)"/></g><g><path fill="none" stroke="#000000" paint-order="fill stroke markers" d=" M 225 10 L 841 10 L 841 306 L 225 306 L 225 10 Z Z" stroke-miterlimit="10" stroke-dasharray=""/></g><g><g><path fill="none" stroke="none"/><text fill="#000000" stroke="none" font-family="Arial" font-size="13px" font-style="normal" font-weight="bold" text-decoration="undefined" x="945.5" y="482.5" text-anchor="middle" dominant-baseline="central" transform="matrix(1 0 0 1 -412 -459)">Sistema Cloud</text></g></g><g><path fill="#ffffff" stroke="none" paint-order="stroke fill markers" d=" M 76.57772460937503 115.85000000000002 C 76.57772460937503 110.96227952000004 80.53552697737501 107 85.417724609375 107 C 90.29992224137499 107 94.25772460937497 110.96227952000004 94.25772460937497 115.85000000000002 C 94.25772460937497 120.73772048000001 90.29992224137499 124.70000000000005 85.417724609375 124.70000000000005 C 80.53552697737501 124.70000000000005 76.57772460937503 120.73772048000001 76.57772460937503 115.85000000000002 Z"/></g><g><path fill="none" stroke="#000000" paint-order="fill stroke markers" d=" M 76.57772460937503 115.85000000000002 C 76.57772460937503 110.96227952000004 80.53552697737501 107 85.417724609375 107 C 90.29992224137499 107 94.25772460937497 110.96227952000004 94.25772460937497 115.85000000000002 C 94.25772460937497 120.73772048000001 90.29992224137499 124.70000000000005 85.417724609375 124.70000000000005 C 80.53552697737501 124.70000000000005 76.57772460937503 120.73772048000001 76.57772460937503 115.85000000000002 Z" stroke-miterlimit="10" stroke-dasharray=""/></g><g><path fill="none" stroke="#000000" paint-order="fill stroke markers" d=" M 85.417724609375 124.70000000000005 L 85.417724609375 142.29999999999995" stroke-miterlimit="10" stroke-dasharray=""/></g><g><path fill="none" stroke="#000000" paint-order="fill stroke markers" d=" M 76.05772460937499 131.29999999999995 L 94.77772460937501 131.29999999999995" stroke-miterlimit="10" stroke-dasharray=""/></g><g><path fill="none" stroke="#000000" paint-order="fill stroke markers" d=" M 85.417724609375 142.29999999999995 L 72.417724609375 160" stroke-miterlimit="10" stroke-dasharray=""/></g><g><path fill="none" stroke="#000000" paint-order="fill stroke markers" d=" M 85.417724609375 142.29999999999995 L 98.417724609375 160" stroke-miterlimit="10" stroke-dasharray=""/></g><g><g><path fill="none" stroke="none"/><text fill="#000000" stroke="none" font-family="Arial" font-size="13px" font-style="normal" font-weight="bold" text-decoration="undefined" x="497.917724609375" y="633.5" text-anchor="middle" dominant-baseline="central" transform="matrix(1 0 0 1 -412 -459)">Utente non autenticato</text></g></g><g><path fill="#C0C0C0" stroke="none" paint-order="stroke fill markers" d=" M 280 163.5 C 280 148.86445279999998 332.8303936 137 398 137 C 463.1696064 137 516 148.86445279999998 516 163.5 C 516 178.13554720000002 463.1696064 190 398 190 C 332.8303936 190 280 178.13554720000002 280 163.5 Z" fill-opacity="0.2"/></g><g><path fill="#ffffff" stroke="none" paint-order="stroke fill markers" d=" M 273 156.5 C 273 141.86445279999998 325.8303936 130 391 130 C 456.1696064 130 509 141.86445279999998 509 156.5 C 509 171.13554720000002 456.1696064 183 391 183 C 325.8303936 183 273 171.13554720000002 273 156.5 Z"/></g><g><path fill="none" stroke="#000000" paint-order="fill stroke markers" d=" M 273 156.5 C 273 141.86445279999998 325.8303936 130 391 130 C 456.1696064 130 509 141.86445279999998 509 156.5 C 509 171.13554720000002 456.1696064 183 391 183 C 325.8303936 183 273 171.13554720000002 273 156.5 Z" stroke-miterlimit="10" stroke-dasharray=""/></g><g><g><path fill="none" stroke="none"/><text fill="#000000" stroke="none" font-family="Arial" font-size="13px" font-style="normal" font-weight="bold" text-decoration="undefined" x="803" y="610" text-anchor="middle" dominant-baseline="central" transform="matrix(1 0 0 1 -412 -459)">UC6 - Autenticazione</text><text fill="#000000" stroke="none" font-family="Arial" font-size="13px" font-style="normal" font-weight="bold" text-decoration="undefined" x="803" y="623" text-anchor="middle" dominant-baseline="central" transform="matrix(1 0 0 1 -412 -459)">2FA</text></g></g><g><path fill="#C0C0C0" stroke="none" paint-order="stroke fill markers" d=" M 288 67.5 C 288 52.86445279999998 338.14410239999995 41 400 41 C 461.85589760000005 41 512 52.86445279999998 512 67.5 C 512 82.13554720000002 461.85589760000005 94 400 94 C 338.14410239999995 94 288 82.13554720000002 288 67.5 Z" fill-opacity="0.2"/></g><g><path fill="#ffffff" stroke="none" paint-order="stroke fill markers" d=" M 281 60.5 C 281 45.86445279999998 331.14410239999995 34 393 34 C 454.85589760000005 34 505 45.86445279999998 505 60.5 C 505 75.13554720000002 454.85589760000005 87 393 87 C 331.14410239999995 87 281 75.13554720000002 281 60.5 Z"/></g><g><path fill="none" stroke="#000000" paint-order="fill stroke markers" d=" M 281 60.5 C 281 45.86445279999998 331.14410239999995 34 393 34 C 454.85589760000005 34 505 45.86445279999998 505 60.5 C 505 75.13554720000002 454.85589760000005 87 393 87 C 331.14410239999995 87 281 75.13554720000002 281 60.5 Z" stroke-miterlimit="10" stroke-dasharray=""/></g><g><g><path fill="none" stroke="none"/><text fill="#000000" stroke="none" font-family="Arial" font-size="13px" font-style="normal" font-weight="bold" text-decoration="undefined" x="805" y="514" text-anchor="middle" dominant-baseline="central" transform="matrix(1 0 0 1 -412 -459)">UC7 - Codice 2FA</text><text fill="#000000" stroke="none" font-family="Arial" font-size="13px" font-style="normal" font-weight="bold" text-decoration="undefined" x="805" y="527" text-anchor="middle" dominant-baseline="central" transform="matrix(1 0 0 1 -412 -459)">errato</text></g></g><g><path fill="#C0C0C0" stroke="none" paint-order="stroke fill markers" d=" M 624 163.5 C 624 148.86445279999998 668.77152 137 724 137 C 779.22848 137 824 148.86445279999998 824 163.5 C 824 178.13554720000002 779.22848 190 724 190 C 668.77152 190 624 178.13554720000002 624 163.5 Z" fill-opacity="0.2"/></g><g><path fill="#ffffff" stroke="none" paint-order="stroke fill markers" d=" M 617 156.5 C 617 141.86445279999998 661.77152 130 717 130 C 772.22848 130 817 141.86445279999998 817 156.5 C 817 171.13554720000002 772.22848 183 717 183 C 661.77152 183 617 171.13554720000002 617 156.5 Z"/></g><g><path fill="none" stroke="#000000" paint-order="fill stroke markers" d=" M 617 156.5 C 617 141.86445279999998 661.77152 130 717 130 C 772.22848 130 817 141.86445279999998 817 156.5 C 817 171.13554720000002 772.22848 183 717 183 C 661.77152 183 617 171.13554720000002 617 156.5 Z" stroke-miterlimit="10" stroke-dasharray=""/></g><g><g><path fill="none" stroke="none"/><text fill="#000000" stroke="none" font-family="Arial" font-size="13px" font-style="normal" font-weight="bold" text-decoration="undefined" x="1129" y="610" text-anchor="middle" dominant-baseline="central" transform="matrix(1 0 0 1 -412 -459)">UC8 - Codice 2FA</text><text fill="#000000" stroke="none" font-family="Arial" font-size="13px" font-style="normal" font-weight="bold" text-decoration="undefined" x="1129" y="623" text-anchor="middle" dominant-baseline="central" transform="matrix(1 0 0 1 -412 -459)">scaduto</text></g></g><g><path fill="#C0C0C0" stroke="none" paint-order="stroke fill markers" d=" M 256 259.5 C 256 244.86445279999998 320.4709888 233 400 233 C 479.5290112 233 544 244.86445279999998 544 259.5 C 544 274.1355472 479.5290112 286 400 286 C 320.4709888 286 256 274.1355472 256 259.5 Z" fill-opacity="0.2"/></g><g><path fill="#ffffff" stroke="none" paint-order="stroke fill markers" d=" M 249 252.5 C 249 237.86445279999998 313.4709888 226 393 226 C 472.5290112 226 537 237.86445279999998 537 252.5 C 537 267.1355472 472.5290112 279 393 279 C 313.4709888 279 249 267.1355472 249 252.5 Z"/></g><g><path fill="none" stroke="#000000" paint-order="fill stroke markers" d=" M 249 252.5 C 249 237.86445279999998 313.4709888 226 393 226 C 472.5290112 226 537 237.86445279999998 537 252.5 C 537 267.1355472 472.5290112 279 393 279 C 313.4709888 279 249 267.1355472 249 252.5 Z" stroke-miterlimit="10" stroke-dasharray=""/></g><g><g><path fill="none" stroke="none"/><text fill="#000000" stroke="none" font-family="Arial" font-size="13px" font-style="normal" font-weight="bold" text-decoration="undefined" x="805" y="706" text-anchor="middle" dominant-baseline="central" transform="matrix(1 0 0 1 -412 -459)">UC6.1 - Inserimento codice</text><text fill="#000000" stroke="none" font-family="Arial" font-size="13px" font-style="normal" font-weight="bold" text-decoration="undefined" x="805" y="719" text-anchor="middle" dominant-baseline="central" transform="matrix(1 0 0 1 -412 -459)">2FA</text></g></g><g><path fill="none" stroke="#000000" paint-order="fill stroke markers" d=" M 392 88 L 392 129" stroke-miterlimit="10" stroke-dasharray="3"/></g><g><path fill="none" stroke="#000000" paint-order="fill stroke markers" d=" M 387.790482243984 118.8373251423759 L 392 129 L 396.209517756016 118.8373251423759" stroke-miterlimit="10" stroke-dasharray=""/></g><g><rect fill="#ffffff" stroke="none" x="807" y="560" width="53.49169921875" height="13" transform="matrix(1 0 0 1 -412 -459)"/></g><g><g><path fill="none" stroke="none"/><text fill="#000000" stroke="none" font-family="Arial" font-size="13px" font-style="normal" font-weight="normal" text-decoration="undefined" x="833.745849609375" y="566.5" text-anchor="middle" dominant-baseline="central" transform="matrix(1 0 0 1 -412 -459)">«extend»</text></g></g><g><path fill="none" stroke="#000000" paint-order="fill stroke markers" d=" M 616 156 L 510 156" stroke-miterlimit="10" stroke-dasharray="3"/></g><g><path fill="none" stroke="#000000" paint-order="fill stroke markers" d=" M 520.1626748576241 151.790482243984 L 510 156 L 520.1626748576241 160.209517756016" stroke-miterlimit="10" stroke-dasharray=""/></g><g><rect fill="#ffffff" stroke="none" x="949" y="625" width="53.49169921875" height="13" transform="matrix(1 0 0 1 -412 -459)"/></g><g><g><path fill="none" stroke="none"/><text fill="#000000" stroke="none" font-family="Arial" font-size="13px" font-style="normal" font-weight="normal" text-decoration="undefined" x="975.745849609375" y="631.5" text-anchor="middle" dominant-baseline="central" transform="matrix(1 0 0 1 -412 -459)">«extend»</text></g></g><g><path fill="none" stroke="#000000" paint-order="fill stroke markers" d=" M 392 184 L 392 225" stroke-miterlimit="10" stroke-dasharray="3"/></g><g><path fill="none" stroke="#000000" paint-order="fill stroke markers" d=" M 387.790482243984 214.8373251423759 L 392 225 L 396.209517756016 214.8373251423759" stroke-miterlimit="10" stroke-dasharray=""/></g><g><rect fill="#ffffff" stroke="none" x="806" y="656" width="55.65625" height="13" transform="matrix(1 0 0 1 -412 -459)"/></g><g><g><path fill="none" stroke="none"/><text fill="#000000" stroke="none" font-family="Arial" font-size="13px" font-style="normal" font-weight="normal" text-decoration="undefined" x="833.828125" y="662.5" text-anchor="middle" dominant-baseline="central" transform="matrix(1 0 0 1 -412 -459)">«include»</text></g></g><g><path fill="none" stroke="#000000" paint-order="fill stroke markers" d=" M 272 152 L 162 149" stroke-miterlimit="10" stroke-dasharray=""/></g><g><path fill="#ffffff" stroke="none" paint-order="stroke fill markers" d=" M 585 202 L 710 202 L 720 212 L 720 293 L 585 293 L 585 202"/></g><g><path fill="none" stroke="#000000" paint-order="fill stroke markers" d=" M 585 202 L 710 202 L 720 212 L 720 293 L 585 293 L 585 202 L 585 202" stroke-miterlimit="10" stroke-dasharray=""/></g><g><path fill="none" stroke="#000000" paint-order="fill stroke markers" d=" M 710 202 L 710 212 L 720 212 L 710 202" stroke-miterlimit="10" stroke-dasharray=""/></g><g><g><path fill="none" stroke="none"/><text fill="#000000" stroke="none" font-family="Arial" font-size="13px" font-style="normal" font-weight="normal" text-decoration="undefined" x="1065" y="679" text-anchor="middle" dominant-baseline="text-before-edge" transform="matrix(1 0 0 1 -412 -459)">Condizione:</text></g></g><g><g><path fill="none" stroke="none"/><text fill="#000000" stroke="none" font-family="Arial" font-size="13px" font-style="normal" font-weight="normal" text-decoration="undefined" x="1065" y="694" text-anchor="middle" dominant-baseline="text-before-edge" transform="matrix(1 0 0 1 -412 -459)">L'utente ha inserito</text><text fill="#000000" stroke="none" font-family="Arial" font-size="13px" font-style="normal" font-weight="normal" text-decoration="undefined" x="1065" y="707" text-anchor="middle" dominant-baseline="text-before-edge" transform="matrix(1 0 0 1 -412 -459)">un codice 2FA valido</text><text fill="#000000" stroke="none" font-family="Arial" font-size="13px" font-style="normal" font-weight="normal" text-decoration="undefined" x="1065" y="720" text-anchor="middle" dominant-baseline="text-before-edge" transform="matrix(1 0 0 1 -412 -459)">ma scaduto</text></g></g><g><path fill="none" stroke="#000000" paint-order="fill stroke markers" d=" M 607 201 L 563 156" stroke-miterlimit="10" stroke-dasharray="3"/></g><g><path fill="#ffffff" stroke="none" paint-order="stroke fill markers" d=" M 545 34 L 670 34 L 680 44 L 680 125 L 545 125 L 545 34"/></g><g><path fill="none" stroke="#000000" paint-order="fill stroke markers" d=" M 545 34 L 670 34 L 680 44 L 680 125 L 545 125 L 545 34 L 545 34" stroke-miterlimit="10" stroke-dasharray=""/></g><g><path fill="none" stroke="#000000" paint-order="fill stroke markers" d=" M 670 34 L 670 44 L 680 44 L 670 34" stroke-miterlimit="10" stroke-dasharray=""/></g><g><g><path fill="none" stroke="none"/><text fill="#000000" stroke="none" font-family="Arial" font-size="13px" font-style="normal" font-weight="normal" text-decoration="undefined" x="1025" y="498" text-anchor="middle" dominant-baseline="text-before-edge" transform="matrix(1 0 0 1 -412 -459)">Condizione:</text></g></g><g><g><path fill="none" stroke="none"/><text fill="#000000" stroke="none" font-family="Arial" font-size="13px" font-style="normal" font-weight="normal" text-decoration="undefined" x="1025" y="513" text-anchor="middle" dominant-baseline="text-before-edge" transform="matrix(1 0 0 1 -412 -459)">L'utente ha inserito</text><text fill="#000000" stroke="none" font-family="Arial" font-size="13px" font-style="normal" font-weight="normal" text-decoration="undefined" x="1025" y="526" text-anchor="middle" dominant-baseline="text-before-edge" transform="matrix(1 0 0 1 -412 -459)">un codice 2FA che</text><text fill="#000000" stroke="none" font-family="Arial" font-size="13px" font-style="normal" font-weight="normal" text-decoration="undefined" x="1025" y="539" text-anchor="middle" dominant-baseline="text-before-edge" transform="matrix(1 0 0 1 -412 -459)">non corrisponde a</text><text fill="#000000" stroke="none" font-family="Arial" font-size="13px" font-style="normal" font-weight="normal" text-decoration="undefined" x="1025" y="552" text-anchor="middle" dominant-baseline="text-before-edge" transform="matrix(1 0 0 1 -412 -459)">quello generato dal</text><text fill="#000000" stroke="none" font-family="Arial" font-size="13px" font-style="normal" font-weight="normal" text-decoration="undefined" x="1025" y="565" text-anchor="middle" dominant-baseline="text-before-edge" transform="matrix(1 0 0 1 -412 -459)">sistema</text></g></g><g><path fill="none" stroke="#000000" paint-order="fill stroke markers" d=" M 607 201 L 563 156" stroke-miterlimit="10" stroke-dasharray="3"/></g><g><path fill="none" stroke="#000000" paint-order="fill stroke markers" d=" M 544 89 L 392 108" stroke-miterlimit="10" stroke-dasharray="3"/></g></g></svg>