<svg version="1.1" xmlns="http://www.w3.org/2000/svg" xmlns:xlink="http://www.w3.org/1999/xlink" width="821" height="404"><defs/><g><g><rect fill="#C0C0C0" stroke="none" x="525" y="344" width="600" height="384" transform="matrix(1 0 0 1 -308 -327)" fill-opacity="0.2"/></g><g><rect fill="#ffffff" stroke="none" x="518" y="337" width="600" height="384" transform="matrix(1 0 0 1 -308 -327)"/></g><g><path fill="none" stroke="#000000" paint-order="fill stroke markers" d=" M 210 10 L 810 10 L 810 394 L 210 394 L 210 10 Z Z" stroke-miterlimit="10" stroke-dasharray=""/></g><g><g><path fill="none" stroke="none"/><text fill="#000000" stroke="none" font-family="Arial" font-size="13px" font-style="normal" font-weight="bold" text-decoration="undefined" x="818.5" y="350.5" text-anchor="middle" dominant-baseline="central" transform="matrix(1 0 0 1 -308 -327)">Schermata d'autenticazione - Sistema</text></g></g><g><path fill="#ffffff" stroke="none" paint-order="stroke fill markers" d=" M 76.57772460937503 143.85000000000002 C 76.57772460937503 138.96227952000004 80.53552697737501 135 85.417724609375 135 C 90.29992224137499 135 94.25772460937497 138.96227952000004 94.25772460937497 143.85000000000002 C 94.25772460937497 148.73772048 90.29992224137499 152.7 85.417724609375 152.7 C 80.53552697737501 152.7 76.57772460937503 148.73772048 76.57772460937503 143.85000000000002 Z"/></g><g><path fill="none" stroke="#000000" paint-order="fill stroke markers" d=" M 76.57772460937503 143.85000000000002 C 76.57772460937503 138.96227952000004 80.53552697737501 135 85.417724609375 135 C 90.29992224137499 135 94.25772460937497 138.96227952000004 94.25772460937497 143.85000000000002 C 94.25772460937497 148.73772048 90.29992224137499 152.7 85.417724609375 152.7 C 80.53552697737501 152.7 76.57772460937503 148.73772048 76.57772460937503 143.85000000000002 Z" stroke-miterlimit="10" stroke-dasharray=""/></g><g><path fill="none" stroke="#000000" paint-order="fill stroke markers" d=" M 85.417724609375 152.7 L 85.417724609375 170.3" stroke-miterlimit="10" stroke-dasharray=""/></g><g><path fill="none" stroke="#000000" paint-order="fill stroke markers" d=" M 76.05772460937499 159.3 L 94.77772460937501 159.3" stroke-miterlimit="10" stroke-dasharray=""/></g><g><path fill="none" stroke="#000000" paint-order="fill stroke markers" d=" M 85.417724609375 170.3 L 72.417724609375 188" stroke-miterlimit="10" stroke-dasharray=""/></g><g><path fill="none" stroke="#000000" paint-order="fill stroke markers" d=" M 85.417724609375 170.3 L 98.417724609375 188" stroke-miterlimit="10" stroke-dasharray=""/></g><g><g><path fill="none" stroke="none"/><text fill="#000000" stroke="none" font-family="Arial" font-size="13px" font-style="normal" font-weight="bold" text-decoration="undefined" x="393.917724609375" y="529.5" text-anchor="middle" dominant-baseline="central" transform="matrix(1 0 0 1 -308 -327)">Utente non autenticato</text></g></g><g><path fill="#C0C0C0" stroke="none" paint-order="stroke fill markers" d=" M 297 197 C 297 177.1177472 341.77152 161 397 161 C 452.22848 161 497 177.1177472 497 197 C 497 216.88225279999995 452.22848 233 397 233 C 341.77152 233 297 216.88225279999995 297 197 Z" fill-opacity="0.2"/></g><g><path fill="#ffffff" stroke="none" paint-order="stroke fill markers" d=" M 290 190 C 290 170.1177472 334.77152 154 390 154 C 445.22848 154 490 170.1177472 490 190 C 490 209.88225279999995 445.22848 226 390 226 C 334.77152 226 290 209.88225279999995 290 190 Z"/></g><g><path fill="none" stroke="#000000" paint-order="fill stroke markers" d=" M 290 190 C 290 170.1177472 334.77152 154 390 154 C 445.22848 154 490 170.1177472 490 190 C 490 209.88225279999995 445.22848 226 390 226 C 334.77152 226 290 209.88225279999995 290 190 Z" stroke-miterlimit="10" stroke-dasharray=""/></g><g><g><path fill="none" stroke="none"/><text fill="#000000" stroke="none" font-family="Arial" font-size="13px" font-style="normal" font-weight="bold" text-decoration="undefined" x="698" y="511.5" text-anchor="middle" dominant-baseline="central" transform="matrix(1 0 0 1 -308 -327)">UC6 - Autenticazione</text><text fill="#000000" stroke="none" font-family="Arial" font-size="13px" font-style="normal" font-weight="bold" text-decoration="undefined" x="698" y="524.5" text-anchor="middle" dominant-baseline="central" transform="matrix(1 0 0 1 -308 -327)">2FA</text></g></g><g><path fill="#C0C0C0" stroke="none" paint-order="stroke fill markers" d=" M 337 95.5 C 337 80.86445279999998 370.3547824 69 411.5 69 C 452.6452176 69 486 80.86445279999998 486 95.5 C 486 110.13554720000002 452.6452176 122 411.5 122 C 370.3547824 122 337 110.13554720000002 337 95.5 Z" fill-opacity="0.2"/></g><g><path fill="#ffffff" stroke="none" paint-order="stroke fill markers" d=" M 330 88.5 C 330 73.86445279999998 363.3547824 62 404.5 62 C 445.6452176 62 479 73.86445279999998 479 88.5 C 479 103.13554720000002 445.6452176 115 404.5 115 C 363.3547824 115 330 103.13554720000002 330 88.5 Z"/></g><g><path fill="none" stroke="#000000" paint-order="fill stroke markers" d=" M 330 88.5 C 330 73.86445279999998 363.3547824 62 404.5 62 C 445.6452176 62 479 73.86445279999998 479 88.5 C 479 103.13554720000002 445.6452176 115 404.5 115 C 363.3547824 115 330 103.13554720000002 330 88.5 Z" stroke-miterlimit="10" stroke-dasharray=""/></g><g><g><path fill="none" stroke="none"/><text fill="#000000" stroke="none" font-family="Arial" font-size="13px" font-style="normal" font-weight="bold" text-decoration="undefined" x="712.5" y="410" text-anchor="middle" dominant-baseline="central" transform="matrix(1 0 0 1 -308 -327)">UC7 - Codice</text><text fill="#000000" stroke="none" font-family="Arial" font-size="13px" font-style="normal" font-weight="bold" text-decoration="undefined" x="712.5" y="423" text-anchor="middle" dominant-baseline="central" transform="matrix(1 0 0 1 -308 -327)">2FA errato</text></g></g><g><path fill="#C0C0C0" stroke="none" paint-order="stroke fill markers" d=" M 593 195.5 C 593 180.86445279999998 632.3989376 169 681 169 C 729.6010624 169 769 180.86445279999998 769 195.5 C 769 210.13554720000002 729.6010624 222 681 222 C 632.3989376 222 593 210.13554720000002 593 195.5 Z" fill-opacity="0.2"/></g><g><path fill="#ffffff" stroke="none" paint-order="stroke fill markers" d=" M 586 188.5 C 586 173.86445279999998 625.3989376 162 674 162 C 722.6010624 162 762 173.86445279999998 762 188.5 C 762 203.13554720000002 722.6010624 215 674 215 C 625.3989376 215 586 203.13554720000002 586 188.5 Z"/></g><g><path fill="none" stroke="#000000" paint-order="fill stroke markers" d=" M 586 188.5 C 586 173.86445279999998 625.3989376 162 674 162 C 722.6010624 162 762 173.86445279999998 762 188.5 C 762 203.13554720000002 722.6010624 215 674 215 C 625.3989376 215 586 203.13554720000002 586 188.5 Z" stroke-miterlimit="10" stroke-dasharray=""/></g><g><g><path fill="none" stroke="none"/><text fill="#000000" stroke="none" font-family="Arial" font-size="13px" font-style="normal" font-weight="bold" text-decoration="undefined" x="982" y="510" text-anchor="middle" dominant-baseline="central" transform="matrix(1 0 0 1 -308 -327)">UC8 - Codice 2FA</text><text fill="#000000" stroke="none" font-family="Arial" font-size="13px" font-style="normal" font-weight="bold" text-decoration="undefined" x="982" y="523" text-anchor="middle" dominant-baseline="central" transform="matrix(1 0 0 1 -308 -327)">scaduto</text></g></g><g><path fill="#C0C0C0" stroke="none" paint-order="stroke fill markers" d=" M 313 315.5 C 313 300.8644528 362.47252960000003 289 423.5 289 C 484.52747039999997 289 534 300.8644528 534 315.5 C 534 330.1355472 484.52747039999997 342 423.5 342 C 362.47252960000003 342 313 330.1355472 313 315.5 Z" fill-opacity="0.2"/></g><g><path fill="#ffffff" stroke="none" paint-order="stroke fill markers" d=" M 306 308.5 C 306 293.8644528 355.47252960000003 282 416.5 282 C 477.52747039999997 282 527 293.8644528 527 308.5 C 527 323.1355472 477.52747039999997 335 416.5 335 C 355.47252960000003 335 306 323.1355472 306 308.5 Z"/></g><g><path fill="none" stroke="#000000" paint-order="fill stroke markers" d=" M 306 308.5 C 306 293.8644528 355.47252960000003 282 416.5 282 C 477.52747039999997 282 527 293.8644528 527 308.5 C 527 323.1355472 477.52747039999997 335 416.5 335 C 355.47252960000003 335 306 323.1355472 306 308.5 Z" stroke-miterlimit="10" stroke-dasharray=""/></g><g><g><path fill="none" stroke="none"/><text fill="#000000" stroke="none" font-family="Arial" font-size="13px" font-style="normal" font-weight="bold" text-decoration="undefined" x="724.5" y="630" text-anchor="middle" dominant-baseline="central" transform="matrix(1 0 0 1 -308 -327)">UC6.1 - Inserimento</text><text fill="#000000" stroke="none" font-family="Arial" font-size="13px" font-style="normal" font-weight="bold" text-decoration="undefined" x="724.5" y="643" text-anchor="middle" dominant-baseline="central" transform="matrix(1 0 0 1 -308 -327)">codice 2FA</text></g></g><g><path fill="none" stroke="#000000" paint-order="fill stroke markers" d=" M 400 116 L 395 153" stroke-miterlimit="10" stroke-dasharray="3"/></g><g><path fill="none" stroke="#000000" paint-order="fill stroke markers" d=" M 392.18936380278956 142.36513638230696 L 395 153 L 400.532564266569 143.49259590443933" stroke-miterlimit="10" stroke-dasharray=""/></g><g><rect fill="#ffffff" stroke="none" x="708" y="458" width="53.49169921875" height="13" transform="matrix(1 0 0 1 -308 -327)"/></g><g><g><path fill="none" stroke="none"/><text fill="#000000" stroke="none" font-family="Arial" font-size="13px" font-style="normal" font-weight="normal" text-decoration="undefined" x="734.745849609375" y="464.5" text-anchor="middle" dominant-baseline="central" transform="matrix(1 0 0 1 -308 -327)">«extend»</text></g></g><g><path fill="none" stroke="#000000" paint-order="fill stroke markers" d=" M 585 189 L 491 189" stroke-miterlimit="10" stroke-dasharray="3"/></g><g><path fill="none" stroke="#000000" paint-order="fill stroke markers" d=" M 501.1626748576241 184.790482243984 L 491 189 L 501.1626748576241 193.209517756016" stroke-miterlimit="10" stroke-dasharray=""/></g><g><rect fill="#ffffff" stroke="none" x="820" y="526" width="53.49169921875" height="13" transform="matrix(1 0 0 1 -308 -327)"/></g><g><g><path fill="none" stroke="none"/><text fill="#000000" stroke="none" font-family="Arial" font-size="13px" font-style="normal" font-weight="normal" text-decoration="undefined" x="846.745849609375" y="532.5" text-anchor="middle" dominant-baseline="central" transform="matrix(1 0 0 1 -308 -327)">«extend»</text></g></g><g><path fill="none" stroke="#000000" paint-order="fill stroke markers" d=" M 398 227 L 410 281" stroke-miterlimit="10" stroke-dasharray="3"/></g><g><path fill="none" stroke="#000000" paint-order="fill stroke markers" d=" M 403.68612952743604 271.9925009211388 L 410 281 L 411.9046830535109 270.16615569312216" stroke-miterlimit="10" stroke-dasharray=""/></g><g><rect fill="#ffffff" stroke="none" x="714" y="568" width="55.65625" height="13" transform="matrix(1 0 0 1 -308 -327)"/></g><g><g><path fill="none" stroke="none"/><text fill="#000000" stroke="none" font-family="Arial" font-size="13px" font-style="normal" font-weight="normal" text-decoration="undefined" x="741.828125" y="574.5" text-anchor="middle" dominant-baseline="central" transform="matrix(1 0 0 1 -308 -327)">«include»</text></g></g><g><path fill="none" stroke="#000000" paint-order="fill stroke markers" d=" M 289 185 L 162 178" stroke-miterlimit="10" stroke-dasharray=""/></g></g></svg>