<svg version="1.1" xmlns="http://www.w3.org/2000/svg" xmlns:xlink="http://www.w3.org/1999/xlink" width="869" height="280"><defs/><g><g><path fill="#ffffff" stroke="none" paint-order="stroke fill markers" d=" M 76.57772460937503 91.85000000000002 C 76.57772460937503 86.96227952000004 80.53552697737501 83 85.417724609375 83 C 90.29992224137499 83 94.25772460937497 86.96227952000004 94.25772460937497 91.85000000000002 C 94.25772460937497 96.73772048000001 90.29992224137499 100.70000000000005 85.417724609375 100.70000000000005 C 80.53552697737501 100.70000000000005 76.57772460937503 96.73772048000001 76.57772460937503 91.85000000000002 Z"/></g><g><path fill="none" stroke="#000000" paint-order="fill stroke markers" d=" M 76.57772460937503 91.85000000000002 C 76.57772460937503 86.96227952000004 80.53552697737501 83 85.417724609375 83 C 90.29992224137499 83 94.25772460937497 86.96227952000004 94.25772460937497 91.85000000000002 C 94.25772460937497 96.73772048000001 90.29992224137499 100.70000000000005 85.417724609375 100.70000000000005 C 80.53552697737501 100.70000000000005 76.57772460937503 96.73772048000001 76.57772460937503 91.85000000000002 Z" stroke-miterlimit="10" stroke-dasharray=""/></g><g><path fill="none" stroke="#000000" paint-order="fill stroke markers" d=" M 85.417724609375 100.70000000000005 L 85.417724609375 118.29999999999995" stroke-miterlimit="10" stroke-dasharray=""/></g><g><path fill="none" stroke="#000000" paint-order="fill stroke markers" d=" M 76.05772460937499 107.29999999999995 L 94.77772460937501 107.29999999999995" stroke-miterlimit="10" stroke-dasharray=""/></g><g><path fill="none" stroke="#000000" paint-order="fill stroke markers" d=" M 85.417724609375 118.29999999999995 L 72.417724609375 136" stroke-miterlimit="10" stroke-dasharray=""/></g><g><path fill="none" stroke="#000000" paint-order="fill stroke markers" d=" M 85.417724609375 118.29999999999995 L 98.417724609375 136" stroke-miterlimit="10" stroke-dasharray=""/></g><g><g><path fill="none" stroke="none"/><text fill="#000000" stroke="none" font-family="Arial" font-size="13px" font-style="normal" font-weight="bold" text-decoration="undefined" x="300.917724609375" y="617.5" text-anchor="middle" dominant-baseline="central" transform="matrix(1 0 0 1 -215 -467)">Utente non autenticato</text></g></g><g><path fill="#C0C0C0" stroke="none" paint-order="stroke fill markers" d=" M 280 139.5 C 280 124.86445279999998 332.8303936 113 398 113 C 463.1696064 113 516 124.86445279999998 516 139.5 C 516 154.13554720000002 463.1696064 166 398 166 C 332.8303936 166 280 154.13554720000002 280 139.5 Z" fill-opacity="0.2"/></g><g><path fill="#ffffff" stroke="none" paint-order="stroke fill markers" d=" M 273 132.5 C 273 117.86445279999998 325.8303936 106 391 106 C 456.1696064 106 509 117.86445279999998 509 132.5 C 509 147.13554720000002 456.1696064 159 391 159 C 325.8303936 159 273 147.13554720000002 273 132.5 Z"/></g><g><path fill="none" stroke="#000000" paint-order="fill stroke markers" d=" M 273 132.5 C 273 117.86445279999998 325.8303936 106 391 106 C 456.1696064 106 509 117.86445279999998 509 132.5 C 509 147.13554720000002 456.1696064 159 391 159 C 325.8303936 159 273 147.13554720000002 273 132.5 Z" stroke-miterlimit="10" stroke-dasharray=""/></g><g><g><path fill="none" stroke="none"/><text fill="#000000" stroke="none" font-family="Arial" font-size="13px" font-style="normal" font-weight="bold" text-decoration="undefined" x="606" y="594" text-anchor="middle" dominant-baseline="central" transform="matrix(1 0 0 1 -215 -467)">UC6 - Autenticazione</text><text fill="#000000" stroke="none" font-family="Arial" font-size="13px" font-style="normal" font-weight="bold" text-decoration="undefined" x="606" y="607" text-anchor="middle" dominant-baseline="central" transform="matrix(1 0 0 1 -215 -467)">2FA</text></g></g><g><path fill="#C0C0C0" stroke="none" paint-order="stroke fill markers" d=" M 288 43.5 C 288 28.86445279999998 338.14410239999995 17 400 17 C 461.85589760000005 17 512 28.86445279999998 512 43.5 C 512 58.13554720000002 461.85589760000005 70 400 70 C 338.14410239999995 70 288 58.13554720000002 288 43.5 Z" fill-opacity="0.2"/></g><g><path fill="#ffffff" stroke="none" paint-order="stroke fill markers" d=" M 281 36.5 C 281 21.86445279999998 331.14410239999995 10 393 10 C 454.85589760000005 10 505 21.86445279999998 505 36.5 C 505 51.13554720000002 454.85589760000005 63 393 63 C 331.14410239999995 63 281 51.13554720000002 281 36.5 Z"/></g><g><path fill="none" stroke="#000000" paint-order="fill stroke markers" d=" M 281 36.5 C 281 21.86445279999998 331.14410239999995 10 393 10 C 454.85589760000005 10 505 21.86445279999998 505 36.5 C 505 51.13554720000002 454.85589760000005 63 393 63 C 331.14410239999995 63 281 51.13554720000002 281 36.5 Z" stroke-miterlimit="10" stroke-dasharray=""/></g><g><g><path fill="none" stroke="none"/><text fill="#000000" stroke="none" font-family="Arial" font-size="13px" font-style="normal" font-weight="bold" text-decoration="undefined" x="608" y="498" text-anchor="middle" dominant-baseline="central" transform="matrix(1 0 0 1 -215 -467)">UC7 - Codice 2FA</text><text fill="#000000" stroke="none" font-family="Arial" font-size="13px" font-style="normal" font-weight="bold" text-decoration="undefined" x="608" y="511" text-anchor="middle" dominant-baseline="central" transform="matrix(1 0 0 1 -215 -467)">errato</text></g></g><g><path fill="#C0C0C0" stroke="none" paint-order="stroke fill markers" d=" M 624 139.5 C 624 124.86445279999998 678.1735392 113 745 113 C 811.8264608 113 866 124.86445279999998 866 139.5 C 866 154.13554720000002 811.8264608 166 745 166 C 678.1735392 166 624 154.13554720000002 624 139.5 Z" fill-opacity="0.2"/></g><g><path fill="#ffffff" stroke="none" paint-order="stroke fill markers" d=" M 617 132.5 C 617 117.86445279999998 671.1735392 106 738 106 C 804.8264608 106 859 117.86445279999998 859 132.5 C 859 147.13554720000002 804.8264608 159 738 159 C 671.1735392 159 617 147.13554720000002 617 132.5 Z"/></g><g><path fill="none" stroke="#000000" paint-order="fill stroke markers" d=" M 617 132.5 C 617 117.86445279999998 671.1735392 106 738 106 C 804.8264608 106 859 117.86445279999998 859 132.5 C 859 147.13554720000002 804.8264608 159 738 159 C 671.1735392 159 617 147.13554720000002 617 132.5 Z" stroke-miterlimit="10" stroke-dasharray=""/></g><g><g><path fill="none" stroke="none"/><text fill="#000000" stroke="none" font-family="Arial" font-size="13px" font-style="normal" font-weight="bold" text-decoration="undefined" x="953" y="594" text-anchor="middle" dominant-baseline="central" transform="matrix(1 0 0 1 -215 -467)">UC8 - Codice 2FA</text><text fill="#000000" stroke="none" font-family="Arial" font-size="13px" font-style="normal" font-weight="bold" text-decoration="undefined" x="953" y="607" text-anchor="middle" dominant-baseline="central" transform="matrix(1 0 0 1 -215 -467)">scaduto</text></g></g><g><path fill="#C0C0C0" stroke="none" paint-order="stroke fill markers" d=" M 256 235.5 C 256 220.86445279999998 320.4709888 209 400 209 C 479.5290112 209 544 220.86445279999998 544 235.5 C 544 250.13554720000002 479.5290112 262 400 262 C 320.4709888 262 256 250.13554720000002 256 235.5 Z" fill-opacity="0.2"/></g><g><path fill="#ffffff" stroke="none" paint-order="stroke fill markers" d=" M 249 228.5 C 249 213.86445279999998 313.4709888 202 393 202 C 472.5290112 202 537 213.86445279999998 537 228.5 C 537 243.13554720000002 472.5290112 255 393 255 C 313.4709888 255 249 243.13554720000002 249 228.5 Z"/></g><g><path fill="none" stroke="#000000" paint-order="fill stroke markers" d=" M 249 228.5 C 249 213.86445279999998 313.4709888 202 393 202 C 472.5290112 202 537 213.86445279999998 537 228.5 C 537 243.13554720000002 472.5290112 255 393 255 C 313.4709888 255 249 243.13554720000002 249 228.5 Z" stroke-miterlimit="10" stroke-dasharray=""/></g><g><g><path fill="none" stroke="none"/><text fill="#000000" stroke="none" font-family="Arial" font-size="13px" font-style="normal" font-weight="bold" text-decoration="undefined" x="608" y="690" text-anchor="middle" dominant-baseline="central" transform="matrix(1 0 0 1 -215 -467)">UC6.1 - Inserimento codice</text><text fill="#000000" stroke="none" font-family="Arial" font-size="13px" font-style="normal" font-weight="bold" text-decoration="undefined" x="608" y="703" text-anchor="middle" dominant-baseline="central" transform="matrix(1 0 0 1 -215 -467)">2FA</text></g></g><g><path fill="none" stroke="#000000" paint-order="fill stroke markers" d=" M 392 64 L 392 105" stroke-miterlimit="10" stroke-dasharray="3"/></g><g><path fill="none" stroke="#000000" paint-order="fill stroke markers" d=" M 387.790482243984 94.8373251423759 L 392 105 L 396.209517756016 94.8373251423759" stroke-miterlimit="10" stroke-dasharray=""/></g><g><rect fill="#ffffff" stroke="none" x="610" y="544" width="53.49169921875" height="13" transform="matrix(1 0 0 1 -215 -467)"/></g><g><g><path fill="none" stroke="none"/><text fill="#000000" stroke="none" font-family="Arial" font-size="13px" font-style="normal" font-weight="normal" text-decoration="undefined" x="636.745849609375" y="550.5" text-anchor="middle" dominant-baseline="central" transform="matrix(1 0 0 1 -215 -467)">«extend»</text></g></g><g><path fill="none" stroke="#000000" paint-order="fill stroke markers" d=" M 616 132 L 510 132" stroke-miterlimit="10" stroke-dasharray="3"/></g><g><path fill="none" stroke="#000000" paint-order="fill stroke markers" d=" M 520.1626748576241 127.790482243984 L 510 132 L 520.1626748576241 136.209517756016" stroke-miterlimit="10" stroke-dasharray=""/></g><g><rect fill="#ffffff" stroke="none" x="752" y="609" width="53.49169921875" height="13" transform="matrix(1 0 0 1 -215 -467)"/></g><g><g><path fill="none" stroke="none"/><text fill="#000000" stroke="none" font-family="Arial" font-size="13px" font-style="normal" font-weight="normal" text-decoration="undefined" x="778.745849609375" y="615.5" text-anchor="middle" dominant-baseline="central" transform="matrix(1 0 0 1 -215 -467)">«extend»</text></g></g><g><path fill="none" stroke="#000000" paint-order="fill stroke markers" d=" M 392 160 L 392 201" stroke-miterlimit="10" stroke-dasharray="3"/></g><g><path fill="none" stroke="#000000" paint-order="fill stroke markers" d=" M 387.790482243984 190.8373251423759 L 392 201 L 396.209517756016 190.8373251423759" stroke-miterlimit="10" stroke-dasharray=""/></g><g><rect fill="#ffffff" stroke="none" x="609" y="640" width="55.65625" height="13" transform="matrix(1 0 0 1 -215 -467)"/></g><g><g><path fill="none" stroke="none"/><text fill="#000000" stroke="none" font-family="Arial" font-size="13px" font-style="normal" font-weight="normal" text-decoration="undefined" x="636.828125" y="646.5" text-anchor="middle" dominant-baseline="central" transform="matrix(1 0 0 1 -215 -467)">«include»</text></g></g><g><path fill="none" stroke="#000000" paint-order="fill stroke markers" d=" M 272 128 L 162 125" stroke-miterlimit="10" stroke-dasharray=""/></g><g><path fill="#ffffff" stroke="none" paint-order="stroke fill markers" d=" M 585 178 L 710 178 L 720 188 L 720 269 L 585 269 L 585 178"/></g><g><path fill="none" stroke="#000000" paint-order="fill stroke markers" d=" M 585 178 L 710 178 L 720 188 L 720 269 L 585 269 L 585 178 L 585 178" stroke-miterlimit="10" stroke-dasharray=""/></g><g><path fill="none" stroke="#000000" paint-order="fill stroke markers" d=" M 710 178 L 710 188 L 720 188 L 710 178" stroke-miterlimit="10" stroke-dasharray=""/></g><g><g><path fill="none" stroke="none"/><text fill="#000000" stroke="none" font-family="Arial" font-size="13px" font-style="normal" font-weight="normal" text-decoration="undefined" x="868" y="663" text-anchor="middle" dominant-baseline="text-before-edge" transform="matrix(1 0 0 1 -215 -467)">Condizione:</text></g></g><g><g><path fill="none" stroke="none"/><text fill="#000000" stroke="none" font-family="Arial" font-size="13px" font-style="normal" font-weight="normal" text-decoration="undefined" x="868" y="678" text-anchor="middle" dominant-baseline="text-before-edge" transform="matrix(1 0 0 1 -215 -467)">L'utente ha inserito</text><text fill="#000000" stroke="none" font-family="Arial" font-size="13px" font-style="normal" font-weight="normal" text-decoration="undefined" x="868" y="691" text-anchor="middle" dominant-baseline="text-before-edge" transform="matrix(1 0 0 1 -215 -467)">un codice 2FA valido</text><text fill="#000000" stroke="none" font-family="Arial" font-size="13px" font-style="normal" font-weight="normal" text-decoration="undefined" x="868" y="704" text-anchor="middle" dominant-baseline="text-before-edge" transform="matrix(1 0 0 1 -215 -467)">ma scaduto</text></g></g><g><path fill="none" stroke="#000000" paint-order="fill stroke markers" d=" M 607 177 L 563 132" stroke-miterlimit="10" stroke-dasharray="3"/></g><g><path fill="#ffffff" stroke="none" paint-order="stroke fill markers" d=" M 545 10 L 670 10 L 680 20 L 680 101 L 545 101 L 545 10"/></g><g><path fill="none" stroke="#000000" paint-order="fill stroke markers" d=" M 545 10 L 670 10 L 680 20 L 680 101 L 545 101 L 545 10 L 545 10" stroke-miterlimit="10" stroke-dasharray=""/></g><g><path fill="none" stroke="#000000" paint-order="fill stroke markers" d=" M 670 10 L 670 20 L 680 20 L 670 10" stroke-miterlimit="10" stroke-dasharray=""/></g><g><g><path fill="none" stroke="none"/><text fill="#000000" stroke="none" font-family="Arial" font-size="13px" font-style="normal" font-weight="normal" text-decoration="undefined" x="828" y="482" text-anchor="middle" dominant-baseline="text-before-edge" transform="matrix(1 0 0 1 -215 -467)">Condizione:</text></g></g><g><g><path fill="none" stroke="none"/><text fill="#000000" stroke="none" font-family="Arial" font-size="13px" font-style="normal" font-weight="normal" text-decoration="undefined" x="828" y="497" text-anchor="middle" dominant-baseline="text-before-edge" transform="matrix(1 0 0 1 -215 -467)">L'utente ha inserito</text><text fill="#000000" stroke="none" font-family="Arial" font-size="13px" font-style="normal" font-weight="normal" text-decoration="undefined" x="828" y="510" text-anchor="middle" dominant-baseline="text-before-edge" transform="matrix(1 0 0 1 -215 -467)">un codice 2FA che</text><text fill="#000000" stroke="none" font-family="Arial" font-size="13px" font-style="normal" font-weight="normal" text-decoration="undefined" x="828" y="523" text-anchor="middle" dominant-baseline="text-before-edge" transform="matrix(1 0 0 1 -215 -467)">non corrisponde a</text><text fill="#000000" stroke="none" font-family="Arial" font-size="13px" font-style="normal" font-weight="normal" text-decoration="undefined" x="828" y="536" text-anchor="middle" dominant-baseline="text-before-edge" transform="matrix(1 0 0 1 -215 -467)">quello generato dal</text><text fill="#000000" stroke="none" font-family="Arial" font-size="13px" font-style="normal" font-weight="normal" text-decoration="undefined" x="828" y="549" text-anchor="middle" dominant-baseline="text-before-edge" transform="matrix(1 0 0 1 -215 -467)">sistema</text></g></g><g><path fill="none" stroke="#000000" paint-order="fill stroke markers" d=" M 607 177 L 563 132" stroke-miterlimit="10" stroke-dasharray="3"/></g><g><path fill="none" stroke="#000000" paint-order="fill stroke markers" d=" M 544 65 L 392 84" stroke-miterlimit="10" stroke-dasharray="3"/></g></g></svg>