<svg version="1.1" xmlns="http://www.w3.org/2000/svg" xmlns:xlink="http://www.w3.org/1999/xlink" width="941" height="604"><defs/><g><g><rect fill="#C0C0C0" stroke="none" x="177" y="37" width="800" height="584" transform="matrix(1 0 0 1 -40 -20)" fill-opacity="0.2"/></g><g><rect fill="#ffffff" stroke="none" x="170" y="30" width="800" height="584" transform="matrix(1 0 0 1 -40 -20)"/></g><g><path fill="none" stroke="#000000" paint-order="fill stroke markers" d=" M 130 10 L 930 10 L 930 594 L 130 594 L 130 10 Z Z" stroke-miterlimit="10" stroke-dasharray=""/></g><g><g><path fill="none" stroke="none"/><text fill="#000000" stroke="none" font-family="Arial" font-size="13px" font-style="normal" font-weight="bold" text-decoration="undefined" x="570.5" y="43.5" text-anchor="middle" dominant-baseline="central" transform="matrix(1 0 0 1 -40 -20)">Sistema cloud</text></g></g><g><path fill="#ffffff" stroke="none" paint-order="stroke fill markers" d=" M 47.930751953125 243.85000000000002 C 47.930751953125 238.96227952000004 51.888554321125 235 56.770751953125 235 C 61.652949585125 235 65.610751953125 238.96227952000004 65.610751953125 243.85000000000002 C 65.610751953125 248.73772048 61.652949585125 252.7 56.770751953125 252.7 C 51.888554321125 252.7 47.930751953125 248.73772048 47.930751953125 243.85000000000002 Z"/></g><g><path fill="none" stroke="#000000" paint-order="fill stroke markers" d=" M 47.930751953125 243.85000000000002 C 47.930751953125 238.96227952000004 51.888554321125 235 56.770751953125 235 C 61.652949585125 235 65.610751953125 238.96227952000004 65.610751953125 243.85000000000002 C 65.610751953125 248.73772048 61.652949585125 252.7 56.770751953125 252.7 C 51.888554321125 252.7 47.930751953125 248.73772048 47.930751953125 243.85000000000002 Z" stroke-miterlimit="10" stroke-dasharray=""/></g><g><path fill="none" stroke="#000000" paint-order="fill stroke markers" d=" M 56.770751953125 252.7 L 56.770751953125 270.3" stroke-miterlimit="10" stroke-dasharray=""/></g><g><path fill="none" stroke="#000000" paint-order="fill stroke markers" d=" M 47.410751953125 259.3 L 66.130751953125 259.3" stroke-miterlimit="10" stroke-dasharray=""/></g><g><path fill="none" stroke="#000000" paint-order="fill stroke markers" d=" M 56.770751953125 270.3 L 43.770751953125 288" stroke-miterlimit="10" stroke-dasharray=""/></g><g><path fill="none" stroke="#000000" paint-order="fill stroke markers" d=" M 56.770751953125 270.3 L 69.770751953125 288" stroke-miterlimit="10" stroke-dasharray=""/></g><g><g><path fill="none" stroke="none"/><text fill="#000000" stroke="none" font-family="Arial" font-size="13px" font-style="normal" font-weight="bold" text-decoration="undefined" x="97.270751953125" y="322.5" text-anchor="middle" dominant-baseline="central" transform="matrix(1 0 0 1 -40 -20)">Tenant admin</text></g></g><g><path fill="#C0C0C0" stroke="none" paint-order="stroke fill markers" d=" M 225 286 C 225 261.147184 269.77152 241 325 241 C 380.22848 241 425 261.147184 425 286 C 425 310.852816 380.22848 331 325 331 C 269.77152 331 225 310.852816 225 286 Z" fill-opacity="0.2"/></g><g><path fill="#ffffff" stroke="none" paint-order="stroke fill markers" d=" M 218 279 C 218 254.14718399999998 262.77152 234 318 234 C 373.22848 234 418 254.14718399999998 418 279 C 418 303.852816 373.22848 324 318 324 C 262.77152 324 218 303.852816 218 279 Z"/></g><g><path fill="none" stroke="#000000" paint-order="fill stroke markers" d=" M 218 279 C 218 254.14718399999998 262.77152 234 318 234 C 373.22848 234 418 254.14718399999998 418 279 C 418 303.852816 373.22848 324 318 324 C 262.77152 324 218 303.852816 218 279 Z" stroke-miterlimit="10" stroke-dasharray=""/></g><g><g><path fill="none" stroke="none"/><text fill="#000000" stroke="none" font-family="Arial" font-size="13px" font-style="normal" font-weight="bold" text-decoration="undefined" x="358" y="280.5" text-anchor="middle" dominant-baseline="central" transform="matrix(1 0 0 1 -40 -20)">UC61 -</text><text fill="#000000" stroke="none" font-family="Arial" font-size="13px" font-style="normal" font-weight="bold" text-decoration="undefined" x="358" y="293.5" text-anchor="middle" dominant-baseline="central" transform="matrix(1 0 0 1 -40 -20)">Visualizzazione</text><text fill="#000000" stroke="none" font-family="Arial" font-size="13px" font-style="normal" font-weight="bold" text-decoration="undefined" x="358" y="306.5" text-anchor="middle" dominant-baseline="central" transform="matrix(1 0 0 1 -40 -20)">dashboard Tenant</text><text fill="#000000" stroke="none" font-family="Arial" font-size="13px" font-style="normal" font-weight="bold" text-decoration="undefined" x="358" y="319.5" text-anchor="middle" dominant-baseline="central" transform="matrix(1 0 0 1 -40 -20)">Admin</text></g></g><g><path fill="#C0C0C0" stroke="none" paint-order="stroke fill markers" d=" M 561 94 C 561 69.147184 603.9806592 49 657 49 C 710.0193408 49 753 69.147184 753 94 C 753 118.85281599999999 710.0193408 139 657 139 C 603.9806592 139 561 118.85281599999999 561 94 Z" fill-opacity="0.2"/></g><g><path fill="#ffffff" stroke="none" paint-order="stroke fill markers" d=" M 554 87 C 554 62.147183999999996 596.9806592 42 650 42 C 703.0193408 42 746 62.147183999999996 746 87 C 746 111.85281599999999 703.0193408 132 650 132 C 596.9806592 132 554 111.85281599999999 554 87 Z"/></g><g><path fill="none" stroke="#000000" paint-order="fill stroke markers" d=" M 554 87 C 554 62.147183999999996 596.9806592 42 650 42 C 703.0193408 42 746 62.147183999999996 746 87 C 746 111.85281599999999 703.0193408 132 650 132 C 596.9806592 132 554 111.85281599999999 554 87 Z" stroke-miterlimit="10" stroke-dasharray=""/></g><g><g><path fill="none" stroke="none"/><text fill="#000000" stroke="none" font-family="Arial" font-size="13px" font-style="normal" font-weight="bold" text-decoration="undefined" x="690" y="88.5" text-anchor="middle" dominant-baseline="central" transform="matrix(1 0 0 1 -40 -20)">UC61.1 -</text><text fill="#000000" stroke="none" font-family="Arial" font-size="13px" font-style="normal" font-weight="bold" text-decoration="undefined" x="690" y="101.5" text-anchor="middle" dominant-baseline="central" transform="matrix(1 0 0 1 -40 -20)">Visualizzazione</text><text fill="#000000" stroke="none" font-family="Arial" font-size="13px" font-style="normal" font-weight="bold" text-decoration="undefined" x="690" y="114.5" text-anchor="middle" dominant-baseline="central" transform="matrix(1 0 0 1 -40 -20)">numero di API key</text><text fill="#000000" stroke="none" font-family="Arial" font-size="13px" font-style="normal" font-weight="bold" text-decoration="undefined" x="690" y="127.5" text-anchor="middle" dominant-baseline="central" transform="matrix(1 0 0 1 -40 -20)">valide e scadute</text></g></g><g><path fill="#C0C0C0" stroke="none" paint-order="stroke fill markers" d=" M 657 191 C 657 161.1766208 707.1441024 137 769 137 C 830.8558976 137 881 161.1766208 881 191 C 881 220.8233792 830.8558976 245 769 245 C 707.1441024 245 657 220.8233792 657 191 Z" fill-opacity="0.2"/></g><g><path fill="#ffffff" stroke="none" paint-order="stroke fill markers" d=" M 650 184 C 650 154.1766208 700.1441024 130 762 130 C 823.8558976 130 874 154.1766208 874 184 C 874 213.8233792 823.8558976 238 762 238 C 700.1441024 238 650 213.8233792 650 184 Z"/></g><g><path fill="none" stroke="#000000" paint-order="fill stroke markers" d=" M 650 184 C 650 154.1766208 700.1441024 130 762 130 C 823.8558976 130 874 154.1766208 874 184 C 874 213.8233792 823.8558976 238 762 238 C 700.1441024 238 650 213.8233792 650 184 Z" stroke-miterlimit="10" stroke-dasharray=""/></g><g><g><path fill="none" stroke="none"/><text fill="#000000" stroke="none" font-family="Arial" font-size="13px" font-style="normal" font-weight="bold" text-decoration="undefined" x="802" y="179" text-anchor="middle" dominant-baseline="central" transform="matrix(1 0 0 1 -40 -20)">UC61.2 -</text><text fill="#000000" stroke="none" font-family="Arial" font-size="13px" font-style="normal" font-weight="bold" text-decoration="undefined" x="802" y="192" text-anchor="middle" dominant-baseline="central" transform="matrix(1 0 0 1 -40 -20)">Visualizzazione stato</text><text fill="#000000" stroke="none" font-family="Arial" font-size="13px" font-style="normal" font-weight="bold" text-decoration="undefined" x="802" y="205" text-anchor="middle" dominant-baseline="central" transform="matrix(1 0 0 1 -40 -20)">richieste</text><text fill="#000000" stroke="none" font-family="Arial" font-size="13px" font-style="normal" font-weight="bold" text-decoration="undefined" x="802" y="218" text-anchor="middle" dominant-baseline="central" transform="matrix(1 0 0 1 -40 -20)">commissioning</text><text fill="#000000" stroke="none" font-family="Arial" font-size="13px" font-style="normal" font-weight="bold" text-decoration="undefined" x="802" y="231" text-anchor="middle" dominant-baseline="central" transform="matrix(1 0 0 1 -40 -20)">gateway</text></g></g><g><path fill="#C0C0C0" stroke="none" paint-order="stroke fill markers" d=" M 657 294 C 657 269.147184 708.9349632 249 773 249 C 837.0650368 249 889 269.147184 889 294 C 889 318.852816 837.0650368 339 773 339 C 708.9349632 339 657 318.852816 657 294 Z" fill-opacity="0.2"/></g><g><path fill="#ffffff" stroke="none" paint-order="stroke fill markers" d=" M 650 287 C 650 262.147184 701.9349632 242 766 242 C 830.0650368 242 882 262.147184 882 287 C 882 311.852816 830.0650368 332 766 332 C 701.9349632 332 650 311.852816 650 287 Z"/></g><g><path fill="none" stroke="#000000" paint-order="fill stroke markers" d=" M 650 287 C 650 262.147184 701.9349632 242 766 242 C 830.0650368 242 882 262.147184 882 287 C 882 311.852816 830.0650368 332 766 332 C 701.9349632 332 650 311.852816 650 287 Z" stroke-miterlimit="10" stroke-dasharray=""/></g><g><g><path fill="none" stroke="none"/><text fill="#000000" stroke="none" font-family="Arial" font-size="13px" font-style="normal" font-weight="bold" text-decoration="undefined" x="806" y="288.5" text-anchor="middle" dominant-baseline="central" transform="matrix(1 0 0 1 -40 -20)">UC61.3 - Visualizzazione</text><text fill="#000000" stroke="none" font-family="Arial" font-size="13px" font-style="normal" font-weight="bold" text-decoration="undefined" x="806" y="301.5" text-anchor="middle" dominant-baseline="central" transform="matrix(1 0 0 1 -40 -20)">stato richieste</text><text fill="#000000" stroke="none" font-family="Arial" font-size="13px" font-style="normal" font-weight="bold" text-decoration="undefined" x="806" y="314.5" text-anchor="middle" dominant-baseline="central" transform="matrix(1 0 0 1 -40 -20)">decommissioning</text><text fill="#000000" stroke="none" font-family="Arial" font-size="13px" font-style="normal" font-weight="bold" text-decoration="undefined" x="806" y="327.5" text-anchor="middle" dominant-baseline="central" transform="matrix(1 0 0 1 -40 -20)">gateway</text></g></g><g><path fill="#C0C0C0" stroke="none" paint-order="stroke fill markers" d=" M 561 390 C 561 365.147184 602.1897984 345 653 345 C 703.8102016 345 745 365.147184 745 390 C 745 414.852816 703.8102016 435 653 435 C 602.1897984 435 561 414.852816 561 390 Z" fill-opacity="0.2"/></g><g><path fill="#ffffff" stroke="none" paint-order="stroke fill markers" d=" M 554 383 C 554 358.147184 595.1897984 338 646 338 C 696.8102016 338 738 358.147184 738 383 C 738 407.852816 696.8102016 428 646 428 C 595.1897984 428 554 407.852816 554 383 Z"/></g><g><path fill="none" stroke="#000000" paint-order="fill stroke markers" d=" M 554 383 C 554 358.147184 595.1897984 338 646 338 C 696.8102016 338 738 358.147184 738 383 C 738 407.852816 696.8102016 428 646 428 C 595.1897984 428 554 407.852816 554 383 Z" stroke-miterlimit="10" stroke-dasharray=""/></g><g><g><path fill="none" stroke="none"/><text fill="#000000" stroke="none" font-family="Arial" font-size="13px" font-style="normal" font-weight="bold" text-decoration="undefined" x="686" y="384.5" text-anchor="middle" dominant-baseline="central" transform="matrix(1 0 0 1 -40 -20)">UC33.1 -</text><text fill="#000000" stroke="none" font-family="Arial" font-size="13px" font-style="normal" font-weight="bold" text-decoration="undefined" x="686" y="397.5" text-anchor="middle" dominant-baseline="central" transform="matrix(1 0 0 1 -40 -20)">Visualizzazione</text><text fill="#000000" stroke="none" font-family="Arial" font-size="13px" font-style="normal" font-weight="bold" text-decoration="undefined" x="686" y="410.5" text-anchor="middle" dominant-baseline="central" transform="matrix(1 0 0 1 -40 -20)">numero di sensori</text><text fill="#000000" stroke="none" font-family="Arial" font-size="13px" font-style="normal" font-weight="bold" text-decoration="undefined" x="686" y="423.5" text-anchor="middle" dominant-baseline="central" transform="matrix(1 0 0 1 -40 -20)">attivi e non attivi</text></g></g><g><path fill="#C0C0C0" stroke="none" paint-order="stroke fill markers" d=" M 337 478 C 337 453.147184 383.5623808 433 441 433 C 498.4376192 433 545 453.147184 545 478 C 545 502.85281599999996 498.4376192 523 441 523 C 383.5623808 523 337 502.85281599999996 337 478 Z" fill-opacity="0.2"/></g><g><path fill="#ffffff" stroke="none" paint-order="stroke fill markers" d=" M 330 471 C 330 446.147184 376.5623808 426 434 426 C 491.4376192 426 538 446.147184 538 471 C 538 495.85281599999996 491.4376192 516 434 516 C 376.5623808 516 330 495.85281599999996 330 471 Z"/></g><g><path fill="none" stroke="#000000" paint-order="fill stroke markers" d=" M 330 471 C 330 446.147184 376.5623808 426 434 426 C 491.4376192 426 538 446.147184 538 471 C 538 495.85281599999996 491.4376192 516 434 516 C 376.5623808 516 330 495.85281599999996 330 471 Z" stroke-miterlimit="10" stroke-dasharray=""/></g><g><g><path fill="none" stroke="none"/><text fill="#000000" stroke="none" font-family="Arial" font-size="13px" font-style="normal" font-weight="bold" text-decoration="undefined" x="474" y="472.5" text-anchor="middle" dominant-baseline="central" transform="matrix(1 0 0 1 -40 -20)">UC33.2 -</text><text fill="#000000" stroke="none" font-family="Arial" font-size="13px" font-style="normal" font-weight="bold" text-decoration="undefined" x="474" y="485.5" text-anchor="middle" dominant-baseline="central" transform="matrix(1 0 0 1 -40 -20)">Visualizzazione</text><text fill="#000000" stroke="none" font-family="Arial" font-size="13px" font-style="normal" font-weight="bold" text-decoration="undefined" x="474" y="498.5" text-anchor="middle" dominant-baseline="central" transform="matrix(1 0 0 1 -40 -20)">numero di gateway</text><text fill="#000000" stroke="none" font-family="Arial" font-size="13px" font-style="normal" font-weight="bold" text-decoration="undefined" x="474" y="511.5" text-anchor="middle" dominant-baseline="central" transform="matrix(1 0 0 1 -40 -20)">attivi e non attivi</text></g></g><g><path fill="#C0C0C0" stroke="none" paint-order="stroke fill markers" d=" M 145 477 C 145 457.1177472 178.1309248 441 219 441 C 259.8690752 441 293 457.1177472 293 477 C 293 496.88225279999995 259.8690752 513 219 513 C 178.1309248 513 145 496.88225279999995 145 477 Z" fill-opacity="0.2"/></g><g><path fill="#ffffff" stroke="none" paint-order="stroke fill markers" d=" M 138 470 C 138 450.1177472 171.1309248 434 212 434 C 252.8690752 434 286 450.1177472 286 470 C 286 489.8822528 252.8690752 506 212 506 C 171.1309248 506 138 489.8822528 138 470 Z"/></g><g><path fill="none" stroke="#000000" paint-order="fill stroke markers" d=" M 138 470 C 138 450.1177472 171.1309248 434 212 434 C 252.8690752 434 286 450.1177472 286 470 C 286 489.8822528 252.8690752 506 212 506 C 171.1309248 506 138 489.8822528 138 470 Z" stroke-miterlimit="10" stroke-dasharray=""/></g><g><g><path fill="none" stroke="none"/><text fill="#000000" stroke="none" font-family="Arial" font-size="13px" font-style="normal" font-weight="bold" text-decoration="undefined" x="252" y="478" text-anchor="middle" dominant-baseline="central" transform="matrix(1 0 0 1 -40 -20)">UC19 -</text><text fill="#000000" stroke="none" font-family="Arial" font-size="13px" font-style="normal" font-weight="bold" text-decoration="undefined" x="252" y="491" text-anchor="middle" dominant-baseline="central" transform="matrix(1 0 0 1 -40 -20)">Visualizzazione</text><text fill="#000000" stroke="none" font-family="Arial" font-size="13px" font-style="normal" font-weight="bold" text-decoration="undefined" x="252" y="504" text-anchor="middle" dominant-baseline="central" transform="matrix(1 0 0 1 -40 -20)">lista alert</text></g></g><g><path fill="none" stroke="#000000" paint-order="fill stroke markers" d=" M 398 233 L 570 133" stroke-miterlimit="10" stroke-dasharray="3"/></g><g><path fill="none" stroke="#000000" paint-order="fill stroke markers" d=" M 563.3300842895042 141.74712663763825 L 570 133 L 559.0985048097942 134.46880993253717" stroke-miterlimit="10" stroke-dasharray=""/></g><g><rect fill="#ffffff" stroke="none" x="454" y="228" width="55.65625" height="13" transform="matrix(1 0 0 1 -40 -20)"/></g><g><g><path fill="none" stroke="none"/><text fill="#000000" stroke="none" font-family="Arial" font-size="13px" font-style="normal" font-weight="normal" text-decoration="undefined" x="481.828125" y="234.5" text-anchor="middle" dominant-baseline="central" transform="matrix(1 0 0 1 -40 -20)">«include»</text></g></g><g><path fill="none" stroke="#000000" paint-order="fill stroke markers" d=" M 419 257 L 649 208" stroke-miterlimit="10" stroke-dasharray="3"/></g><g><path fill="none" stroke="#000000" paint-order="fill stroke markers" d=" M 639.9375152001588 214.23469079046015 L 649 208 L 638.1832634070967 206.00044768016804" stroke-miterlimit="10" stroke-dasharray=""/></g><g><rect fill="#ffffff" stroke="none" x="508" y="243" width="55.65625" height="13" transform="matrix(1 0 0 1 -40 -20)"/></g><g><g><path fill="none" stroke="none"/><text fill="#000000" stroke="none" font-family="Arial" font-size="13px" font-style="normal" font-weight="normal" text-decoration="undefined" x="535.828125" y="249.5" text-anchor="middle" dominant-baseline="central" transform="matrix(1 0 0 1 -40 -20)">«include»</text></g></g><g><path fill="none" stroke="#000000" paint-order="fill stroke markers" d=" M 419 281 L 649 285" stroke-miterlimit="10" stroke-dasharray="3"/></g><g><path fill="none" stroke="#000000" paint-order="fill stroke markers" d=" M 638.7656637466201 289.0321658513454 L 649 285 L 638.9120596179367 280.61440325064694" stroke-miterlimit="10" stroke-dasharray=""/></g><g><rect fill="#ffffff" stroke="none" x="494" y="286" width="55.65625" height="13" transform="matrix(1 0 0 1 -40 -20)"/></g><g><g><path fill="none" stroke="none"/><text fill="#000000" stroke="none" font-family="Arial" font-size="13px" font-style="normal" font-weight="normal" text-decoration="undefined" x="521.828125" y="292.5" text-anchor="middle" dominant-baseline="central" transform="matrix(1 0 0 1 -40 -20)">«include»</text></g></g><g><path fill="none" stroke="#000000" paint-order="fill stroke markers" d=" M 419 311 L 553 354" stroke-miterlimit="10" stroke-dasharray="3"/></g><g><path fill="none" stroke="#000000" paint-order="fill stroke markers" d=" M 542.0371272586785 354.9030067871234 L 553 354 L 544.609556120694 346.8866005659589" stroke-miterlimit="10" stroke-dasharray=""/></g><g><rect fill="#ffffff" stroke="none" x="477" y="319" width="55.65625" height="13" transform="matrix(1 0 0 1 -40 -20)"/></g><g><g><path fill="none" stroke="none"/><text fill="#000000" stroke="none" font-family="Arial" font-size="13px" font-style="normal" font-weight="normal" text-decoration="undefined" x="504.828125" y="325.5" text-anchor="middle" dominant-baseline="central" transform="matrix(1 0 0 1 -40 -20)">«include»</text></g></g><g><path fill="none" stroke="#000000" paint-order="fill stroke markers" d=" M 346 325 L 406 425" stroke-miterlimit="10" stroke-dasharray="3"/></g><g><path fill="none" stroke="#000000" paint-order="fill stroke markers" d=" M 397.1617152255173 418.4513572211376 L 406 425 L 404.38097861840737 414.1197991854035" stroke-miterlimit="10" stroke-dasharray=""/></g><g><rect fill="#ffffff" stroke="none" x="418" y="382" width="55.65625" height="13" transform="matrix(1 0 0 1 -40 -20)"/></g><g><g><path fill="none" stroke="none"/><text fill="#000000" stroke="none" font-family="Arial" font-size="13px" font-style="normal" font-weight="normal" text-decoration="undefined" x="445.828125" y="388.5" text-anchor="middle" dominant-baseline="central" transform="matrix(1 0 0 1 -40 -20)">«include»</text></g></g><g><path fill="none" stroke="#000000" paint-order="fill stroke markers" d=" M 105 275 L 217 277" stroke-miterlimit="10" stroke-dasharray=""/></g><g><path fill="none" stroke="#000000" paint-order="fill stroke markers" d=" M 292 325 L 233 433" stroke-miterlimit="10" stroke-dasharray="3"/></g><g><path fill="none" stroke="#000000" paint-order="fill stroke markers" d=" M 234.1779943225984 422.0632578262114 L 233 433 L 241.56641232888342 426.09952321853376" stroke-miterlimit="10" stroke-dasharray=""/></g><g><rect fill="#ffffff" stroke="none" x="301" y="407" width="55.65625" height="13" transform="matrix(1 0 0 1 -40 -20)"/></g><g><g><path fill="none" stroke="none"/><text fill="#000000" stroke="none" font-family="Arial" font-size="13px" font-style="normal" font-weight="normal" text-decoration="undefined" x="328.828125" y="413.5" text-anchor="middle" dominant-baseline="central" transform="matrix(1 0 0 1 -40 -20)">«include»</text></g></g><g><path fill="#C0C0C0" stroke="none" paint-order="stroke fill markers" d=" M 241 78 C 241 53.147183999999996 280.3989376 33 329 33 C 377.6010624 33 417 53.147183999999996 417 78 C 417 102.852816 377.6010624 123 329 123 C 280.3989376 123 241 102.852816 241 78 Z" fill-opacity="0.2"/></g><g><path fill="#ffffff" stroke="none" paint-order="stroke fill markers" d=" M 234 71 C 234 46.147183999999996 273.3989376 26 322 26 C 370.6010624 26 410 46.147183999999996 410 71 C 410 95.852816 370.6010624 116 322 116 C 273.3989376 116 234 95.852816 234 71 Z"/></g><g><path fill="none" stroke="#000000" paint-order="fill stroke markers" d=" M 234 71 C 234 46.147183999999996 273.3989376 26 322 26 C 370.6010624 26 410 46.147183999999996 410 71 C 410 95.852816 370.6010624 116 322 116 C 273.3989376 116 234 95.852816 234 71 Z" stroke-miterlimit="10" stroke-dasharray=""/></g><g><g><path fill="none" stroke="none"/><text fill="#000000" stroke="none" font-family="Arial" font-size="13px" font-style="normal" font-weight="bold" text-decoration="undefined" x="362" y="72.5" text-anchor="middle" dominant-baseline="central" transform="matrix(1 0 0 1 -40 -20)">UC33</text><text fill="#000000" stroke="none" font-family="Arial" font-size="13px" font-style="normal" font-weight="bold" text-decoration="undefined" x="362" y="85.5" text-anchor="middle" dominant-baseline="central" transform="matrix(1 0 0 1 -40 -20)">Visualizzazione</text><text fill="#000000" stroke="none" font-family="Arial" font-size="13px" font-style="normal" font-weight="bold" text-decoration="undefined" x="362" y="98.5" text-anchor="middle" dominant-baseline="central" transform="matrix(1 0 0 1 -40 -20)">dashboard</text><text fill="#000000" stroke="none" font-family="Arial" font-size="13px" font-style="normal" font-weight="bold" text-decoration="undefined" x="362" y="111.5" text-anchor="middle" dominant-baseline="central" transform="matrix(1 0 0 1 -40 -20)">generica</text></g></g><g><path fill="none" stroke="#000000" paint-order="fill stroke markers" d=" M 319 233 L 321 117" stroke-miterlimit="10" stroke-dasharray=""/></g><g><path fill="#FFFFFF" stroke="none" paint-order="stroke fill markers" d=" M 329.0673994586762 137.4674635940595 L 321 117 L 312.2318305627224 137.1771951648189"/></g><g><path fill="none" stroke="#000000" paint-order="fill stroke markers" d=" M 329.0673994586762 137.4674635940595 L 321 117 L 312.2318305627224 137.1771951648189 L 329.0673994586762 137.4674635940595" stroke-miterlimit="10" stroke-dasharray=""/></g></g></svg>