<svg version="1.1" xmlns="http://www.w3.org/2000/svg" xmlns:xlink="http://www.w3.org/1999/xlink" width="637" height="292"><defs/><g><g><rect fill="#C0C0C0" stroke="none" x="177" y="33" width="488" height="272" transform="matrix(1 0 0 1 -32 -16)" fill-opacity="0.2"/></g><g><rect fill="#ffffff" stroke="none" x="170" y="26" width="488" height="272" transform="matrix(1 0 0 1 -32 -16)"/></g><g><path fill="none" stroke="#000000" paint-order="fill stroke markers" d=" M 138 10 L 626 10 L 626 282 L 138 282 L 138 10 Z Z" stroke-miterlimit="10" stroke-dasharray=""/></g><g><g><path fill="none" stroke="none"/><text fill="#000000" stroke="none" font-family="Arial" font-size="13px" font-style="normal" font-weight="bold" text-decoration="undefined" x="414.5" y="39.5" text-anchor="middle" dominant-baseline="central" transform="matrix(1 0 0 1 -32 -16)">Sistema cloud</text></g></g><g><path fill="#ffffff" stroke="none" paint-order="stroke fill markers" d=" M 47.930751953125 59.849999999999994 C 47.930751953125 54.962279519999996 51.888554321125 51 56.770751953125 51 C 61.652949585125 51 65.610751953125 54.962279519999996 65.610751953125 59.849999999999994 C 65.610751953125 64.73772048 61.652949585125 68.7 56.770751953125 68.7 C 51.888554321125 68.7 47.930751953125 64.73772048 47.930751953125 59.849999999999994 Z"/></g><g><path fill="none" stroke="#000000" paint-order="fill stroke markers" d=" M 47.930751953125 59.849999999999994 C 47.930751953125 54.962279519999996 51.888554321125 51 56.770751953125 51 C 61.652949585125 51 65.610751953125 54.962279519999996 65.610751953125 59.849999999999994 C 65.610751953125 64.73772048 61.652949585125 68.7 56.770751953125 68.7 C 51.888554321125 68.7 47.930751953125 64.73772048 47.930751953125 59.849999999999994 Z" stroke-miterlimit="10" stroke-dasharray=""/></g><g><path fill="none" stroke="#000000" paint-order="fill stroke markers" d=" M 56.770751953125 68.7 L 56.770751953125 86.3" stroke-miterlimit="10" stroke-dasharray=""/></g><g><path fill="none" stroke="#000000" paint-order="fill stroke markers" d=" M 47.410751953125 75.3 L 66.130751953125 75.3" stroke-miterlimit="10" stroke-dasharray=""/></g><g><path fill="none" stroke="#000000" paint-order="fill stroke markers" d=" M 56.770751953125 86.3 L 43.770751953125 104" stroke-miterlimit="10" stroke-dasharray=""/></g><g><path fill="none" stroke="#000000" paint-order="fill stroke markers" d=" M 56.770751953125 86.3 L 69.770751953125 104" stroke-miterlimit="10" stroke-dasharray=""/></g><g><g><path fill="none" stroke="none"/><text fill="#000000" stroke="none" font-family="Arial" font-size="13px" font-style="normal" font-weight="bold" text-decoration="undefined" x="89.270751953125" y="134.5" text-anchor="middle" dominant-baseline="central" transform="matrix(1 0 0 1 -32 -16)">Tenant admin</text></g></g><g><path fill="#C0C0C0" stroke="none" paint-order="stroke fill markers" d=" M 241 109 C 241 89.1177472 312.634432 73 401 73 C 489.36556799999994 73 561 89.1177472 561 109 C 561 128.8822528 489.36556799999994 145 401 145 C 312.634432 145 241 128.8822528 241 109 Z" fill-opacity="0.2"/></g><g><path fill="#ffffff" stroke="none" paint-order="stroke fill markers" d=" M 234 102 C 234 82.1177472 305.634432 66 394 66 C 482.36556799999994 66 554 82.1177472 554 102 C 554 121.8822528 482.36556799999994 138 394 138 C 305.634432 138 234 121.8822528 234 102 Z"/></g><g><path fill="none" stroke="#000000" paint-order="fill stroke markers" d=" M 234 102 C 234 82.1177472 305.634432 66 394 66 C 482.36556799999994 66 554 82.1177472 554 102 C 554 121.8822528 482.36556799999994 138 394 138 C 305.634432 138 234 121.8822528 234 102 Z" stroke-miterlimit="10" stroke-dasharray=""/></g><g><g><path fill="none" stroke="none"/><text fill="#000000" stroke="none" font-family="Arial" font-size="13px" font-style="normal" font-weight="bold" text-decoration="undefined" x="426" y="106" text-anchor="middle" dominant-baseline="central" transform="matrix(1 0 0 1 -32 -16)">UC62 - Eliminazione richiesta di</text><text fill="#000000" stroke="none" font-family="Arial" font-size="13px" font-style="normal" font-weight="bold" text-decoration="undefined" x="426" y="119" text-anchor="middle" dominant-baseline="central" transform="matrix(1 0 0 1 -32 -16)">commissioning e o</text><text fill="#000000" stroke="none" font-family="Arial" font-size="13px" font-style="normal" font-weight="bold" text-decoration="undefined" x="426" y="132" text-anchor="middle" dominant-baseline="central" transform="matrix(1 0 0 1 -32 -16)">decommissioning gateway</text></g></g><g><path fill="#C0C0C0" stroke="none" paint-order="stroke fill markers" d=" M 289 214.5 C 289 199.8644528 337.129384 188 396.5 188 C 455.870616 188 504 199.8644528 504 214.5 C 504 229.1355472 455.870616 241 396.5 241 C 337.129384 241 289 229.1355472 289 214.5 Z" fill-opacity="0.2"/></g><g><path fill="#ffffff" stroke="none" paint-order="stroke fill markers" d=" M 282 207.5 C 282 192.8644528 330.129384 181 389.5 181 C 448.870616 181 497 192.8644528 497 207.5 C 497 222.1355472 448.870616 234 389.5 234 C 330.129384 234 282 222.1355472 282 207.5 Z"/></g><g><path fill="none" stroke="#000000" paint-order="fill stroke markers" d=" M 282 207.5 C 282 192.8644528 330.129384 181 389.5 181 C 448.870616 181 497 192.8644528 497 207.5 C 497 222.1355472 448.870616 234 389.5 234 C 330.129384 234 282 222.1355472 282 207.5 Z" stroke-miterlimit="10" stroke-dasharray=""/></g><g><g><path fill="none" stroke="none"/><text fill="#000000" stroke="none" font-family="Arial" font-size="13px" font-style="normal" font-weight="bold" text-decoration="undefined" x="421.5" y="218" text-anchor="middle" dominant-baseline="central" transform="matrix(1 0 0 1 -32 -16)">UC62.1 - Conferma</text><text fill="#000000" stroke="none" font-family="Arial" font-size="13px" font-style="normal" font-weight="bold" text-decoration="undefined" x="421.5" y="231" text-anchor="middle" dominant-baseline="central" transform="matrix(1 0 0 1 -32 -16)">eliminazione richiesta</text></g></g><g><path fill="none" stroke="#000000" paint-order="fill stroke markers" d=" M 392 139 L 390 180" stroke-miterlimit="10" stroke-dasharray="3"/></g><g><path fill="none" stroke="#000000" paint-order="fill stroke markers" d=" M 386.29063314463417 169.6442963767635 L 390 180 L 394.69966979861084 170.05449328671358" stroke-miterlimit="10" stroke-dasharray=""/></g><g><rect fill="#ffffff" stroke="none" x="430" y="169" width="55.65625" height="13" transform="matrix(1 0 0 1 -32 -16)"/></g><g><g><path fill="none" stroke="none"/><text fill="#000000" stroke="none" font-family="Arial" font-size="13px" font-style="normal" font-weight="normal" text-decoration="undefined" x="457.828125" y="175.5" text-anchor="middle" dominant-baseline="central" transform="matrix(1 0 0 1 -32 -16)">«include»</text></g></g><g><path fill="none" stroke="#000000" paint-order="fill stroke markers" d=" M 105 92 L 233 96" stroke-miterlimit="10" stroke-dasharray=""/></g></g></svg>