<svg version="1.1" xmlns="http://www.w3.org/2000/svg" xmlns:xlink="http://www.w3.org/1999/xlink" width="637" height="348"><defs/><g><g><rect fill="#C0C0C0" stroke="none" x="161" y="37" width="496" height="328" transform="matrix(1 0 0 1 -24 -20)" fill-opacity="0.2"/></g><g><rect fill="#ffffff" stroke="none" x="154" y="30" width="496" height="328" transform="matrix(1 0 0 1 -24 -20)"/></g><g><path fill="none" stroke="#000000" paint-order="fill stroke markers" d=" M 130 10 L 626 10 L 626 338 L 130 338 L 130 10 Z Z" stroke-miterlimit="10" stroke-dasharray=""/></g><g><g><path fill="none" stroke="none"/><text fill="#000000" stroke="none" font-family="Arial" font-size="13px" font-style="normal" font-weight="bold" text-decoration="undefined" x="402.5" y="43.5" text-anchor="middle" dominant-baseline="central" transform="matrix(1 0 0 1 -24 -20)">Sistema cloud</text></g></g><g><path fill="#ffffff" stroke="none" paint-order="stroke fill markers" d=" M 43.96029296875 93.85 C 43.96029296875 88.96227952 47.91809533675 85 52.80029296875 85 C 57.68249060075 85 61.64029296875 88.96227952 61.64029296875 93.85 C 61.64029296875 98.73772048 57.68249060075 102.7 52.80029296875 102.7 C 47.91809533675 102.7 43.96029296875 98.73772048 43.96029296875 93.85 Z"/></g><g><path fill="none" stroke="#000000" paint-order="fill stroke markers" d=" M 43.96029296875 93.85 C 43.96029296875 88.96227952 47.91809533675 85 52.80029296875 85 C 57.68249060075 85 61.64029296875 88.96227952 61.64029296875 93.85 C 61.64029296875 98.73772048 57.68249060075 102.7 52.80029296875 102.7 C 47.91809533675 102.7 43.96029296875 98.73772048 43.96029296875 93.85 Z" stroke-miterlimit="10" stroke-dasharray=""/></g><g><path fill="none" stroke="#000000" paint-order="fill stroke markers" d=" M 52.80029296875 102.7 L 52.80029296875 120.30000000000001" stroke-miterlimit="10" stroke-dasharray=""/></g><g><path fill="none" stroke="#000000" paint-order="fill stroke markers" d=" M 43.44029296875 109.30000000000001 L 62.16029296875 109.30000000000001" stroke-miterlimit="10" stroke-dasharray=""/></g><g><path fill="none" stroke="#000000" paint-order="fill stroke markers" d=" M 52.80029296875 120.30000000000001 L 39.80029296875 138" stroke-miterlimit="10" stroke-dasharray=""/></g><g><path fill="none" stroke="#000000" paint-order="fill stroke markers" d=" M 52.80029296875 120.30000000000001 L 65.80029296875 138" stroke-miterlimit="10" stroke-dasharray=""/></g><g><g><path fill="none" stroke="none"/><text fill="#000000" stroke="none" font-family="Arial" font-size="13px" font-style="normal" font-weight="bold" text-decoration="undefined" x="77.30029296875" y="172.5" text-anchor="middle" dominant-baseline="central" transform="matrix(1 0 0 1 -24 -20)">Tenat admin</text></g></g><g><path fill="#C0C0C0" stroke="none" paint-order="stroke fill markers" d=" M 225 123.5 C 225 108.86445280000001 291.2618496 97 373 97 C 454.7381504 97 521 108.86445280000001 521 123.5 C 521 138.1355472 454.7381504 150 373 150 C 291.2618496 150 225 138.1355472 225 123.5 Z" fill-opacity="0.2"/></g><g><path fill="#ffffff" stroke="none" paint-order="stroke fill markers" d=" M 218 116.5 C 218 101.8644528 284.2618496 90 366 90 C 447.7381504 90 514 101.8644528 514 116.5 C 514 131.1355472 447.7381504 143 366 143 C 284.2618496 143 218 131.1355472 218 116.5 Z"/></g><g><path fill="none" stroke="#000000" paint-order="fill stroke markers" d=" M 218 116.5 C 218 101.8644528 284.2618496 90 366 90 C 447.7381504 90 514 101.8644528 514 116.5 C 514 131.1355472 447.7381504 143 366 143 C 284.2618496 143 218 131.1355472 218 116.5 Z" stroke-miterlimit="10" stroke-dasharray=""/></g><g><g><path fill="none" stroke="none"/><text fill="#000000" stroke="none" font-family="Arial" font-size="13px" font-style="normal" font-weight="bold" text-decoration="undefined" x="390" y="131" text-anchor="middle" dominant-baseline="central" transform="matrix(1 0 0 1 -24 -20)">UC63 - Creazione richiesta di</text><text fill="#000000" stroke="none" font-family="Arial" font-size="13px" font-style="normal" font-weight="bold" text-decoration="undefined" x="390" y="144" text-anchor="middle" dominant-baseline="central" transform="matrix(1 0 0 1 -24 -20)">decommissioning gateway</text></g></g><g><path fill="#C0C0C0" stroke="none" paint-order="stroke fill markers" d=" M 257 221 C 257 201.1177472 305.3532416 185 365 185 C 424.6467584 185 473 201.1177472 473 221 C 473 240.8822528 424.6467584 257 365 257 C 305.3532416 257 257 240.8822528 257 221 Z" fill-opacity="0.2"/></g><g><path fill="#ffffff" stroke="none" paint-order="stroke fill markers" d=" M 250 214 C 250 194.1177472 298.3532416 178 358 178 C 417.6467584 178 466 194.1177472 466 214 C 466 233.8822528 417.6467584 250 358 250 C 298.3532416 250 250 233.8822528 250 214 Z"/></g><g><path fill="none" stroke="#000000" paint-order="fill stroke markers" d=" M 250 214 C 250 194.1177472 298.3532416 178 358 178 C 417.6467584 178 466 194.1177472 466 214 C 466 233.8822528 417.6467584 250 358 250 C 298.3532416 250 250 233.8822528 250 214 Z" stroke-miterlimit="10" stroke-dasharray=""/></g><g><g><path fill="none" stroke="none"/><text fill="#000000" stroke="none" font-family="Arial" font-size="13px" font-style="normal" font-weight="bold" text-decoration="undefined" x="382" y="222" text-anchor="middle" dominant-baseline="central" transform="matrix(1 0 0 1 -24 -20)">UC63.1 - Selezione</text><text fill="#000000" stroke="none" font-family="Arial" font-size="13px" font-style="normal" font-weight="bold" text-decoration="undefined" x="382" y="235" text-anchor="middle" dominant-baseline="central" transform="matrix(1 0 0 1 -24 -20)">Gateway per</text><text fill="#000000" stroke="none" font-family="Arial" font-size="13px" font-style="normal" font-weight="bold" text-decoration="undefined" x="382" y="248" text-anchor="middle" dominant-baseline="central" transform="matrix(1 0 0 1 -24 -20)">decommissioning</text></g></g><g><path fill="none" stroke="#000000" paint-order="fill stroke markers" d=" M 364 144 L 361 177" stroke-miterlimit="10" stroke-dasharray="3"/></g><g><path fill="none" stroke="#000000" paint-order="fill stroke markers" d=" M 357.72785521430103 166.49794931923182 L 361 177 L 366.11231548574403 167.2601729802721" stroke-miterlimit="10" stroke-dasharray=""/></g><g><rect fill="#ffffff" stroke="none" x="392" y="172" width="55.65625" height="13" transform="matrix(1 0 0 1 -24 -20)"/></g><g><g><path fill="none" stroke="none"/><text fill="#000000" stroke="none" font-family="Arial" font-size="13px" font-style="normal" font-weight="normal" text-decoration="undefined" x="419.828125" y="178.5" text-anchor="middle" dominant-baseline="central" transform="matrix(1 0 0 1 -24 -20)">«include»</text></g></g><g><path fill="none" stroke="#000000" paint-order="fill stroke markers" d=" M 97 123 L 217 120" stroke-miterlimit="10" stroke-dasharray=""/></g></g></svg>