<svg version="1.1" xmlns="http://www.w3.org/2000/svg" xmlns:xlink="http://www.w3.org/1999/xlink" width="757" height="308"><defs/><g><g><rect fill="#C0C0C0" stroke="none" x="157" y="33" width="624" height="288" transform="matrix(1 0 0 1 -28 -16)" fill-opacity="0.2"/></g><g><rect fill="#ffffff" stroke="none" x="150" y="26" width="624" height="288" transform="matrix(1 0 0 1 -28 -16)"/></g><g><path fill="none" stroke="#000000" paint-order="fill stroke markers" d=" M 122 10 L 746 10 L 746 298 L 122 298 L 122 10 Z Z" stroke-miterlimit="10" stroke-dasharray=""/></g><g><g><path fill="none" stroke="none"/><text fill="#000000" stroke="none" font-family="Arial" font-size="13px" font-style="normal" font-weight="bold" text-decoration="undefined" x="462.5" y="39.5" text-anchor="middle" dominant-baseline="central" transform="matrix(1 0 0 1 -28 -16)">Sistema cloud</text></g></g><g><path fill="#ffffff" stroke="none" paint-order="stroke fill markers" d=" M 47.930751953125 67.85 C 47.930751953125 62.962279519999996 51.888554321125 59 56.770751953125 59 C 61.652949585125 59 65.610751953125 62.962279519999996 65.610751953125 67.85 C 65.610751953125 72.73772048 61.652949585125 76.7 56.770751953125 76.7 C 51.888554321125 76.7 47.930751953125 72.73772048 47.930751953125 67.85 Z"/></g><g><path fill="none" stroke="#000000" paint-order="fill stroke markers" d=" M 47.930751953125 67.85 C 47.930751953125 62.962279519999996 51.888554321125 59 56.770751953125 59 C 61.652949585125 59 65.610751953125 62.962279519999996 65.610751953125 67.85 C 65.610751953125 72.73772048 61.652949585125 76.7 56.770751953125 76.7 C 51.888554321125 76.7 47.930751953125 72.73772048 47.930751953125 67.85 Z" stroke-miterlimit="10" stroke-dasharray=""/></g><g><path fill="none" stroke="#000000" paint-order="fill stroke markers" d=" M 56.770751953125 76.7 L 56.770751953125 94.3" stroke-miterlimit="10" stroke-dasharray=""/></g><g><path fill="none" stroke="#000000" paint-order="fill stroke markers" d=" M 47.410751953125 83.3 L 66.130751953125 83.3" stroke-miterlimit="10" stroke-dasharray=""/></g><g><path fill="none" stroke="#000000" paint-order="fill stroke markers" d=" M 56.770751953125 94.3 L 43.770751953125 112" stroke-miterlimit="10" stroke-dasharray=""/></g><g><path fill="none" stroke="#000000" paint-order="fill stroke markers" d=" M 56.770751953125 94.3 L 69.770751953125 112" stroke-miterlimit="10" stroke-dasharray=""/></g><g><g><path fill="none" stroke="none"/><text fill="#000000" stroke="none" font-family="Arial" font-size="13px" font-style="normal" font-weight="bold" text-decoration="undefined" x="85.270751953125" y="142.5" text-anchor="middle" dominant-baseline="central" transform="matrix(1 0 0 1 -28 -16)">Tenant admin</text></g></g><g><path fill="#C0C0C0" stroke="none" paint-order="stroke fill markers" d=" M 241 109 C 241 89.1177472 283.9806592 73 337 73 C 390.0193408 73 433 89.1177472 433 109 C 433 128.8822528 390.0193408 145 337 145 C 283.9806592 145 241 128.8822528 241 109 Z" fill-opacity="0.2"/></g><g><path fill="#ffffff" stroke="none" paint-order="stroke fill markers" d=" M 234 102 C 234 82.1177472 276.9806592 66 330 66 C 383.0193408 66 426 82.1177472 426 102 C 426 121.8822528 383.0193408 138 330 138 C 276.9806592 138 234 121.8822528 234 102 Z"/></g><g><path fill="none" stroke="#000000" paint-order="fill stroke markers" d=" M 234 102 C 234 82.1177472 276.9806592 66 330 66 C 383.0193408 66 426 82.1177472 426 102 C 426 121.8822528 383.0193408 138 330 138 C 276.9806592 138 234 121.8822528 234 102 Z" stroke-miterlimit="10" stroke-dasharray=""/></g><g><g><path fill="none" stroke="none"/><text fill="#000000" stroke="none" font-family="Arial" font-size="13px" font-style="normal" font-weight="bold" text-decoration="undefined" x="358" y="106" text-anchor="middle" dominant-baseline="central" transform="matrix(1 0 0 1 -28 -16)">UC65 -</text><text fill="#000000" stroke="none" font-family="Arial" font-size="13px" font-style="normal" font-weight="bold" text-decoration="undefined" x="358" y="119" text-anchor="middle" dominant-baseline="central" transform="matrix(1 0 0 1 -28 -16)">Sospensione</text><text fill="#000000" stroke="none" font-family="Arial" font-size="13px" font-style="normal" font-weight="bold" text-decoration="undefined" x="358" y="132" text-anchor="middle" dominant-baseline="central" transform="matrix(1 0 0 1 -28 -16)">sensore del tenant</text></g></g><g><path fill="#C0C0C0" stroke="none" paint-order="stroke fill markers" d=" M 245 219.5 C 245 204.8644528 286.1897984 193 337 193 C 387.8102016 193 429 204.8644528 429 219.5 C 429 234.1355472 387.8102016 246 337 246 C 286.1897984 246 245 234.1355472 245 219.5 Z" fill-opacity="0.2"/></g><g><path fill="#ffffff" stroke="none" paint-order="stroke fill markers" d=" M 238 212.5 C 238 197.8644528 279.1897984 186 330 186 C 380.8102016 186 422 197.8644528 422 212.5 C 422 227.1355472 380.8102016 239 330 239 C 279.1897984 239 238 227.1355472 238 212.5 Z"/></g><g><path fill="none" stroke="#000000" paint-order="fill stroke markers" d=" M 238 212.5 C 238 197.8644528 279.1897984 186 330 186 C 380.8102016 186 422 197.8644528 422 212.5 C 422 227.1355472 380.8102016 239 330 239 C 279.1897984 239 238 227.1355472 238 212.5 Z" stroke-miterlimit="10" stroke-dasharray=""/></g><g><g><path fill="none" stroke="none"/><text fill="#000000" stroke="none" font-family="Arial" font-size="13px" font-style="normal" font-weight="bold" text-decoration="undefined" x="358" y="223" text-anchor="middle" dominant-baseline="central" transform="matrix(1 0 0 1 -28 -16)">UC-23 Selezione</text><text fill="#000000" stroke="none" font-family="Arial" font-size="13px" font-style="normal" font-weight="bold" text-decoration="undefined" x="358" y="236" text-anchor="middle" dominant-baseline="central" transform="matrix(1 0 0 1 -28 -16)">sensore</text></g></g><g><path fill="#C0C0C0" stroke="none" paint-order="stroke fill markers" d=" M 507 105.5 C 507 90.8644528 550.8760896 79 605 79 C 659.1239104 79 703 90.8644528 703 105.5 C 703 120.13554719999999 659.1239104 132 605 132 C 550.8760896 132 507 120.13554719999999 507 105.5 Z" fill-opacity="0.2"/></g><g><path fill="#ffffff" stroke="none" paint-order="stroke fill markers" d=" M 500 98.5 C 500 83.8644528 543.8760896 72 598 72 C 652.1239104 72 696 83.8644528 696 98.5 C 696 113.13554719999999 652.1239104 125 598 125 C 543.8760896 125 500 113.13554719999999 500 98.5 Z"/></g><g><path fill="none" stroke="#000000" paint-order="fill stroke markers" d=" M 500 98.5 C 500 83.8644528 543.8760896 72 598 72 C 652.1239104 72 696 83.8644528 696 98.5 C 696 113.13554719999999 652.1239104 125 598 125 C 543.8760896 125 500 113.13554719999999 500 98.5 Z" stroke-miterlimit="10" stroke-dasharray=""/></g><g><g><path fill="none" stroke="none"/><text fill="#000000" stroke="none" font-family="Arial" font-size="13px" font-style="normal" font-weight="bold" text-decoration="undefined" x="626" y="109" text-anchor="middle" dominant-baseline="central" transform="matrix(1 0 0 1 -28 -16)">UC34 - Gateway non</text><text fill="#000000" stroke="none" font-family="Arial" font-size="13px" font-style="normal" font-weight="bold" text-decoration="undefined" x="626" y="122" text-anchor="middle" dominant-baseline="central" transform="matrix(1 0 0 1 -28 -16)">raggiungibile</text></g></g><g><path fill="none" stroke="#000000" paint-order="fill stroke markers" d=" M 330 139 L 330 185" stroke-miterlimit="10" stroke-dasharray="3"/></g><g><path fill="none" stroke="#000000" paint-order="fill stroke markers" d=" M 325.790482243984 174.83732514237585 L 330 185 L 334.209517756016 174.83732514237585" stroke-miterlimit="10" stroke-dasharray=""/></g><g><rect fill="#ffffff" stroke="none" x="360" y="171" width="55.65625" height="13" transform="matrix(1 0 0 1 -28 -16)"/></g><g><g><path fill="none" stroke="none"/><text fill="#000000" stroke="none" font-family="Arial" font-size="13px" font-style="normal" font-weight="normal" text-decoration="undefined" x="387.828125" y="177.5" text-anchor="middle" dominant-baseline="central" transform="matrix(1 0 0 1 -28 -16)">«include»</text></g></g><g><path fill="none" stroke="#000000" paint-order="fill stroke markers" d=" M 105 99 L 233 101" stroke-miterlimit="10" stroke-dasharray=""/></g><g><path fill="none" stroke="#000000" paint-order="fill stroke markers" d=" M 499 99 L 427 101" stroke-miterlimit="10" stroke-dasharray="3"/></g><g><path fill="none" stroke="#000000" paint-order="fill stroke markers" d=" M 437.0418703775052 96.50991767097925 L 427 101 L 437.27564230266665 104.92570697679375" stroke-miterlimit="10" stroke-dasharray=""/></g><g><rect fill="#ffffff" stroke="none" x="464" y="96" width="53.49169921875" height="13" transform="matrix(1 0 0 1 -28 -16)"/></g><g><g><path fill="none" stroke="none"/><text fill="#000000" stroke="none" font-family="Arial" font-size="13px" font-style="normal" font-weight="normal" text-decoration="undefined" x="490.745849609375" y="102.5" text-anchor="middle" dominant-baseline="central" transform="matrix(1 0 0 1 -28 -16)">«extend»</text></g></g><g><path fill="#ffffff" stroke="none" paint-order="stroke fill markers" d=" M 540 184 L 657 184 L 667 194 L 667 247 L 540 247 L 540 184"/></g><g><path fill="none" stroke="#000000" paint-order="fill stroke markers" d=" M 540 184 L 657 184 L 667 194 L 667 247 L 540 247 L 540 184 L 540 184" stroke-miterlimit="10" stroke-dasharray=""/></g><g><path fill="none" stroke="#000000" paint-order="fill stroke markers" d=" M 657 184 L 657 194 L 667 194 L 657 184" stroke-miterlimit="10" stroke-dasharray=""/></g><g><g><path fill="none" stroke="none"/><text fill="#000000" stroke="none" font-family="Arial" font-size="13px" font-style="normal" font-weight="normal" text-decoration="undefined" x="573" y="205" text-anchor="start" dominant-baseline="text-before-edge" transform="matrix(1 0 0 1 -28 -16)">Condizione: il</text><text fill="#000000" stroke="none" font-family="Arial" font-size="13px" font-style="normal" font-weight="normal" text-decoration="undefined" x="573" y="218" text-anchor="start" dominant-baseline="text-before-edge" transform="matrix(1 0 0 1 -28 -16)">gateway non è</text><text fill="#000000" stroke="none" font-family="Arial" font-size="13px" font-style="normal" font-weight="normal" text-decoration="undefined" x="573" y="231" text-anchor="start" dominant-baseline="text-before-edge" transform="matrix(1 0 0 1 -28 -16)">raggiungibile dal</text><text fill="#000000" stroke="none" font-family="Arial" font-size="13px" font-style="normal" font-weight="normal" text-decoration="undefined" x="573" y="244" text-anchor="start" dominant-baseline="text-before-edge" transform="matrix(1 0 0 1 -28 -16)">sistema</text></g></g><g><path fill="none" stroke="#000000" paint-order="fill stroke markers" d=" M 564 183 L 463 100" stroke-miterlimit="10" stroke-dasharray="3"/></g></g></svg>