<svg version="1.1" xmlns="http://www.w3.org/2000/svg" xmlns:xlink="http://www.w3.org/1999/xlink" width="725" height="276"><defs/><g><g><rect fill="#C0C0C0" stroke="none" x="181" y="33" width="568" height="256" transform="matrix(1 0 0 1 -28 -16)" fill-opacity="0.2"/></g><g><rect fill="#ffffff" stroke="none" x="174" y="26" width="568" height="256" transform="matrix(1 0 0 1 -28 -16)"/></g><g><path fill="none" stroke="#000000" paint-order="fill stroke markers" d=" M 146 10 L 714 10 L 714 266 L 146 266 L 146 10 Z Z" stroke-miterlimit="10" stroke-dasharray=""/></g><g><g><path fill="none" stroke="none"/><text fill="#000000" stroke="none" font-family="Arial" font-size="13px" font-style="normal" font-weight="bold" text-decoration="undefined" x="458.5" y="39.5" text-anchor="middle" dominant-baseline="central" transform="matrix(1 0 0 1 -28 -16)">Sistema cloud</text></g></g><g><path fill="#ffffff" stroke="none" paint-order="stroke fill markers" d=" M 47.930751953125 45.85 C 47.930751953125 40.96227952 51.888554321125 37 56.770751953125 37 C 61.652949585125 37 65.610751953125 40.96227952 65.610751953125 45.85 C 65.610751953125 50.73772048000001 61.652949585125 54.7 56.770751953125 54.7 C 51.888554321125 54.7 47.930751953125 50.73772048000001 47.930751953125 45.85 Z"/></g><g><path fill="none" stroke="#000000" paint-order="fill stroke markers" d=" M 47.930751953125 45.85 C 47.930751953125 40.96227952 51.888554321125 37 56.770751953125 37 C 61.652949585125 37 65.610751953125 40.96227952 65.610751953125 45.85 C 65.610751953125 50.73772048000001 61.652949585125 54.7 56.770751953125 54.7 C 51.888554321125 54.7 47.930751953125 50.73772048000001 47.930751953125 45.85 Z" stroke-miterlimit="10" stroke-dasharray=""/></g><g><path fill="none" stroke="#000000" paint-order="fill stroke markers" d=" M 56.770751953125 54.7 L 56.770751953125 72.3" stroke-miterlimit="10" stroke-dasharray=""/></g><g><path fill="none" stroke="#000000" paint-order="fill stroke markers" d=" M 47.410751953125 61.3 L 66.130751953125 61.3" stroke-miterlimit="10" stroke-dasharray=""/></g><g><path fill="none" stroke="#000000" paint-order="fill stroke markers" d=" M 56.770751953125 72.3 L 43.770751953125 90" stroke-miterlimit="10" stroke-dasharray=""/></g><g><path fill="none" stroke="#000000" paint-order="fill stroke markers" d=" M 56.770751953125 72.3 L 69.770751953125 90" stroke-miterlimit="10" stroke-dasharray=""/></g><g><g><path fill="none" stroke="none"/><text fill="#000000" stroke="none" font-family="Arial" font-size="13px" font-style="normal" font-weight="bold" text-decoration="undefined" x="85.270751953125" y="120.5" text-anchor="middle" dominant-baseline="central" transform="matrix(1 0 0 1 -28 -16)">Tenant admin</text></g></g><g><path fill="#C0C0C0" stroke="none" paint-order="stroke fill markers" d=" M 233 86 C 233 61.147183999999996 272.3989376 41 321 41 C 369.6010624 41 409 61.147183999999996 409 86 C 409 110.852816 369.6010624 131 321 131 C 272.3989376 131 233 110.852816 233 86 Z" fill-opacity="0.2"/></g><g><path fill="#ffffff" stroke="none" paint-order="stroke fill markers" d=" M 226 79 C 226 54.147183999999996 265.3989376 34 314 34 C 362.6010624 34 402 54.147183999999996 402 79 C 402 103.852816 362.6010624 124 314 124 C 265.3989376 124 226 103.852816 226 79 Z"/></g><g><path fill="none" stroke="#000000" paint-order="fill stroke markers" d=" M 226 79 C 226 54.147183999999996 265.3989376 34 314 34 C 362.6010624 34 402 54.147183999999996 402 79 C 402 103.852816 362.6010624 124 314 124 C 265.3989376 124 226 103.852816 226 79 Z" stroke-miterlimit="10" stroke-dasharray=""/></g><g><g><path fill="none" stroke="none"/><text fill="#000000" stroke="none" font-family="Arial" font-size="13px" font-style="normal" font-weight="bold" text-decoration="undefined" x="342" y="76.5" text-anchor="middle" dominant-baseline="central" transform="matrix(1 0 0 1 -28 -16)">UC66 -</text><text fill="#000000" stroke="none" font-family="Arial" font-size="13px" font-style="normal" font-weight="bold" text-decoration="undefined" x="342" y="89.5" text-anchor="middle" dominant-baseline="central" transform="matrix(1 0 0 1 -28 -16)">Riattivazione</text><text fill="#000000" stroke="none" font-family="Arial" font-size="13px" font-style="normal" font-weight="bold" text-decoration="undefined" x="342" y="102.5" text-anchor="middle" dominant-baseline="central" transform="matrix(1 0 0 1 -28 -16)">sensore del</text><text fill="#000000" stroke="none" font-family="Arial" font-size="13px" font-style="normal" font-weight="bold" text-decoration="undefined" x="342" y="115.5" text-anchor="middle" dominant-baseline="central" transform="matrix(1 0 0 1 -28 -16)">tenant</text></g></g><g><path fill="none" stroke="#000000" paint-order="fill stroke markers" d=" M 105 77 L 225 78" stroke-miterlimit="10" stroke-dasharray=""/></g><g><path fill="#C0C0C0" stroke="none" paint-order="stroke fill markers" d=" M 513 85 C 513 65.1177472 548.817216 49 593 49 C 637.182784 49 673 65.1177472 673 85 C 673 104.8822528 637.182784 121 593 121 C 548.817216 121 513 104.8822528 513 85 Z" fill-opacity="0.2"/></g><g><path fill="#ffffff" stroke="none" paint-order="stroke fill markers" d=" M 506 78 C 506 58.1177472 541.817216 42 586 42 C 630.182784 42 666 58.1177472 666 78 C 666 97.8822528 630.182784 114 586 114 C 541.817216 114 506 97.8822528 506 78 Z"/></g><g><path fill="none" stroke="#000000" paint-order="fill stroke markers" d=" M 506 78 C 506 58.1177472 541.817216 42 586 42 C 630.182784 42 666 58.1177472 666 78 C 666 97.8822528 630.182784 114 586 114 C 541.817216 114 506 97.8822528 506 78 Z" stroke-miterlimit="10" stroke-dasharray=""/></g><g><g><path fill="none" stroke="none"/><text fill="#000000" stroke="none" font-family="Arial" font-size="13px" font-style="normal" font-weight="bold" text-decoration="undefined" x="614" y="82" text-anchor="middle" dominant-baseline="central" transform="matrix(1 0 0 1 -28 -16)">UC34 - Gateway</text><text fill="#000000" stroke="none" font-family="Arial" font-size="13px" font-style="normal" font-weight="bold" text-decoration="undefined" x="614" y="95" text-anchor="middle" dominant-baseline="central" transform="matrix(1 0 0 1 -28 -16)">non</text><text fill="#000000" stroke="none" font-family="Arial" font-size="13px" font-style="normal" font-weight="bold" text-decoration="undefined" x="614" y="108" text-anchor="middle" dominant-baseline="central" transform="matrix(1 0 0 1 -28 -16)">raggiungibile</text></g></g><g><path fill="#C0C0C0" stroke="none" paint-order="stroke fill markers" d=" M 257 205 C 257 185.1177472 288.340064 169 327 169 C 365.659936 169 397 185.1177472 397 205 C 397 224.8822528 365.659936 241 327 241 C 288.340064 241 257 224.8822528 257 205 Z" fill-opacity="0.2"/></g><g><path fill="#ffffff" stroke="none" paint-order="stroke fill markers" d=" M 250 198 C 250 178.1177472 281.340064 162 320 162 C 358.659936 162 390 178.1177472 390 198 C 390 217.8822528 358.659936 234 320 234 C 281.340064 234 250 217.8822528 250 198 Z"/></g><g><path fill="none" stroke="#000000" paint-order="fill stroke markers" d=" M 250 198 C 250 178.1177472 281.340064 162 320 162 C 358.659936 162 390 178.1177472 390 198 C 390 217.8822528 358.659936 234 320 234 C 281.340064 234 250 217.8822528 250 198 Z" stroke-miterlimit="10" stroke-dasharray=""/></g><g><g><path fill="none" stroke="none"/><text fill="#000000" stroke="none" font-family="Arial" font-size="13px" font-style="normal" font-weight="bold" text-decoration="undefined" x="348" y="202" text-anchor="middle" dominant-baseline="central" transform="matrix(1 0 0 1 -28 -16)">UC23 -</text><text fill="#000000" stroke="none" font-family="Arial" font-size="13px" font-style="normal" font-weight="bold" text-decoration="undefined" x="348" y="215" text-anchor="middle" dominant-baseline="central" transform="matrix(1 0 0 1 -28 -16)">Selezione</text><text fill="#000000" stroke="none" font-family="Arial" font-size="13px" font-style="normal" font-weight="bold" text-decoration="undefined" x="348" y="228" text-anchor="middle" dominant-baseline="central" transform="matrix(1 0 0 1 -28 -16)">sensore</text></g></g><g><path fill="none" stroke="#000000" paint-order="fill stroke markers" d=" M 316 125 L 318 161" stroke-miterlimit="10" stroke-dasharray="3"/></g><g><path fill="none" stroke="#000000" paint-order="fill stroke markers" d=" M 313.2332396407341 151.0864741046724 L 318 161 L 321.6393128117264 150.61947003961725" stroke-miterlimit="10" stroke-dasharray=""/></g><g><rect fill="#ffffff" stroke="none" x="347" y="151" width="55.65625" height="13" transform="matrix(1 0 0 1 -28 -16)"/></g><g><g><path fill="none" stroke="none"/><text fill="#000000" stroke="none" font-family="Arial" font-size="13px" font-style="normal" font-weight="normal" text-decoration="undefined" x="374.828125" y="157.5" text-anchor="middle" dominant-baseline="central" transform="matrix(1 0 0 1 -28 -16)">«include»</text></g></g><g><path fill="none" stroke="#000000" paint-order="fill stroke markers" d=" M 505 78 L 403 79" stroke-miterlimit="10" stroke-dasharray="3"/></g><g><path fill="none" stroke="#000000" paint-order="fill stroke markers" d=" M 413.12091869183536 74.69105525293519 L 403 79 L 413.20345428924213 83.10968618842679" stroke-miterlimit="10" stroke-dasharray=""/></g><g><rect fill="#ffffff" stroke="none" x="456" y="72" width="53.49169921875" height="13" transform="matrix(1 0 0 1 -28 -16)"/></g><g><g><path fill="none" stroke="none"/><text fill="#000000" stroke="none" font-family="Arial" font-size="13px" font-style="normal" font-weight="normal" text-decoration="undefined" x="482.745849609375" y="78.5" text-anchor="middle" dominant-baseline="central" transform="matrix(1 0 0 1 -28 -16)">«extend»</text></g></g><g><path fill="#ffffff" stroke="none" paint-order="stroke fill markers" d=" M 500 160 L 617 160 L 627 170 L 627 223 L 500 223 L 500 160"/></g><g><path fill="none" stroke="#000000" paint-order="fill stroke markers" d=" M 500 160 L 617 160 L 627 170 L 627 223 L 500 223 L 500 160 L 500 160" stroke-miterlimit="10" stroke-dasharray=""/></g><g><path fill="none" stroke="#000000" paint-order="fill stroke markers" d=" M 617 160 L 617 170 L 627 170 L 617 160" stroke-miterlimit="10" stroke-dasharray=""/></g><g><g><path fill="none" stroke="none"/><text fill="#000000" stroke="none" font-family="Arial" font-size="13px" font-style="normal" font-weight="normal" text-decoration="undefined" x="533" y="181" text-anchor="start" dominant-baseline="text-before-edge" transform="matrix(1 0 0 1 -28 -16)">Condizione: il</text><text fill="#000000" stroke="none" font-family="Arial" font-size="13px" font-style="normal" font-weight="normal" text-decoration="undefined" x="533" y="194" text-anchor="start" dominant-baseline="text-before-edge" transform="matrix(1 0 0 1 -28 -16)">gateway non è</text><text fill="#000000" stroke="none" font-family="Arial" font-size="13px" font-style="normal" font-weight="normal" text-decoration="undefined" x="533" y="207" text-anchor="start" dominant-baseline="text-before-edge" transform="matrix(1 0 0 1 -28 -16)">raggiungibile dal</text><text fill="#000000" stroke="none" font-family="Arial" font-size="13px" font-style="normal" font-weight="normal" text-decoration="undefined" x="533" y="220" text-anchor="start" dominant-baseline="text-before-edge" transform="matrix(1 0 0 1 -28 -16)">sistema</text></g></g><g><path fill="none" stroke="#000000" paint-order="fill stroke markers" d=" M 532 159 L 454 78" stroke-miterlimit="10" stroke-dasharray="3"/></g></g></svg>