<svg version="1.1" xmlns="http://www.w3.org/2000/svg" xmlns:xlink="http://www.w3.org/1999/xlink" width="765" height="316"><defs/><g><g><rect fill="#C0C0C0" stroke="none" x="185" y="29" width="592" height="296" transform="matrix(1 0 0 1 -16 -12)" fill-opacity="0.2"/></g><g><rect fill="#ffffff" stroke="none" x="178" y="22" width="592" height="296" transform="matrix(1 0 0 1 -16 -12)"/></g><g><path fill="none" stroke="#000000" paint-order="fill stroke markers" d=" M 162 10 L 754 10 L 754 306 L 162 306 L 162 10 Z Z" stroke-miterlimit="10" stroke-dasharray=""/></g><g><g><path fill="none" stroke="none"/><text fill="#000000" stroke="none" font-family="Arial" font-size="13px" font-style="normal" font-weight="bold" text-decoration="undefined" x="474.5" y="35.5" text-anchor="middle" dominant-baseline="central" transform="matrix(1 0 0 1 -16 -12)">Sistema cloud</text></g></g><g><path fill="#ffffff" stroke="none" paint-order="stroke fill markers" d=" M 47.930751953125 48.85 C 47.930751953125 43.96227952 51.888554321125 40 56.770751953125 40 C 61.652949585125 40 65.610751953125 43.96227952 65.610751953125 48.85 C 65.610751953125 53.73772048000001 61.652949585125 57.7 56.770751953125 57.7 C 51.888554321125 57.7 47.930751953125 53.73772048000001 47.930751953125 48.85 Z"/></g><g><path fill="none" stroke="#000000" paint-order="fill stroke markers" d=" M 47.930751953125 48.85 C 47.930751953125 43.96227952 51.888554321125 40 56.770751953125 40 C 61.652949585125 40 65.610751953125 43.96227952 65.610751953125 48.85 C 65.610751953125 53.73772048000001 61.652949585125 57.7 56.770751953125 57.7 C 51.888554321125 57.7 47.930751953125 53.73772048000001 47.930751953125 48.85 Z" stroke-miterlimit="10" stroke-dasharray=""/></g><g><path fill="none" stroke="#000000" paint-order="fill stroke markers" d=" M 56.770751953125 57.7 L 56.770751953125 75.3" stroke-miterlimit="10" stroke-dasharray=""/></g><g><path fill="none" stroke="#000000" paint-order="fill stroke markers" d=" M 47.410751953125 64.3 L 66.130751953125 64.3" stroke-miterlimit="10" stroke-dasharray=""/></g><g><path fill="none" stroke="#000000" paint-order="fill stroke markers" d=" M 56.770751953125 75.3 L 43.770751953125 93" stroke-miterlimit="10" stroke-dasharray=""/></g><g><path fill="none" stroke="#000000" paint-order="fill stroke markers" d=" M 56.770751953125 75.3 L 69.770751953125 93" stroke-miterlimit="10" stroke-dasharray=""/></g><g><g><path fill="none" stroke="none"/><text fill="#000000" stroke="none" font-family="Arial" font-size="13px" font-style="normal" font-weight="bold" text-decoration="undefined" x="73.270751953125" y="119.5" text-anchor="middle" dominant-baseline="central" transform="matrix(1 0 0 1 -16 -12)">Tenant admin</text></g></g><g><path fill="#C0C0C0" stroke="none" paint-order="stroke fill markers" d=" M 257 85 C 257 65.1177472 298.1897984 49 349 49 C 399.8102016 49 441 65.1177472 441 85 C 441 104.8822528 399.8102016 121 349 121 C 298.1897984 121 257 104.8822528 257 85 Z" fill-opacity="0.2"/></g><g><path fill="#ffffff" stroke="none" paint-order="stroke fill markers" d=" M 250 78 C 250 58.1177472 291.1897984 42 342 42 C 392.8102016 42 434 58.1177472 434 78 C 434 97.8822528 392.8102016 114 342 114 C 291.1897984 114 250 97.8822528 250 78 Z"/></g><g><path fill="none" stroke="#000000" paint-order="fill stroke markers" d=" M 250 78 C 250 58.1177472 291.1897984 42 342 42 C 392.8102016 42 434 58.1177472 434 78 C 434 97.8822528 392.8102016 114 342 114 C 291.1897984 114 250 97.8822528 250 78 Z" stroke-miterlimit="10" stroke-dasharray=""/></g><g><g><path fill="none" stroke="none"/><text fill="#000000" stroke="none" font-family="Arial" font-size="13px" font-style="normal" font-weight="bold" text-decoration="undefined" x="358" y="78" text-anchor="middle" dominant-baseline="central" transform="matrix(1 0 0 1 -16 -12)">UC67 - Riavvio</text><text fill="#000000" stroke="none" font-family="Arial" font-size="13px" font-style="normal" font-weight="bold" text-decoration="undefined" x="358" y="91" text-anchor="middle" dominant-baseline="central" transform="matrix(1 0 0 1 -16 -12)">gateway associato</text><text fill="#000000" stroke="none" font-family="Arial" font-size="13px" font-style="normal" font-weight="bold" text-decoration="undefined" x="358" y="104" text-anchor="middle" dominant-baseline="central" transform="matrix(1 0 0 1 -16 -12)">a tenan</text></g></g><g><path fill="#C0C0C0" stroke="none" paint-order="stroke fill markers" d=" M 241 214 C 241 189.147184 288.6816688 169 347.5 169 C 406.3183312 169 454 189.147184 454 214 C 454 238.852816 406.3183312 259 347.5 259 C 288.6816688 259 241 238.852816 241 214 Z" fill-opacity="0.2"/></g><g><path fill="#ffffff" stroke="none" paint-order="stroke fill markers" d=" M 234 207 C 234 182.147184 281.6816688 162 340.5 162 C 399.3183312 162 447 182.147184 447 207 C 447 231.852816 399.3183312 252 340.5 252 C 281.6816688 252 234 231.852816 234 207 Z"/></g><g><path fill="none" stroke="#000000" paint-order="fill stroke markers" d=" M 234 207 C 234 182.147184 281.6816688 162 340.5 162 C 399.3183312 162 447 182.147184 447 207 C 447 231.852816 399.3183312 252 340.5 252 C 281.6816688 252 234 231.852816 234 207 Z" stroke-miterlimit="10" stroke-dasharray=""/></g><g><g><path fill="none" stroke="none"/><text fill="#000000" stroke="none" font-family="Arial" font-size="13px" font-style="normal" font-weight="bold" text-decoration="undefined" x="356.5" y="200.5" text-anchor="middle" dominant-baseline="central" transform="matrix(1 0 0 1 -16 -12)">UC69 - Seleziona</text><text fill="#000000" stroke="none" font-family="Arial" font-size="13px" font-style="normal" font-weight="bold" text-decoration="undefined" x="356.5" y="213.5" text-anchor="middle" dominant-baseline="central" transform="matrix(1 0 0 1 -16 -12)">Gateway per invio</text><text fill="#000000" stroke="none" font-family="Arial" font-size="13px" font-style="normal" font-weight="bold" text-decoration="undefined" x="356.5" y="226.5" text-anchor="middle" dominant-baseline="central" transform="matrix(1 0 0 1 -16 -12)">comando da Tenant</text><text fill="#000000" stroke="none" font-family="Arial" font-size="13px" font-style="normal" font-weight="bold" text-decoration="undefined" x="356.5" y="239.5" text-anchor="middle" dominant-baseline="central" transform="matrix(1 0 0 1 -16 -12)">Admin</text></g></g><g><path fill="#C0C0C0" stroke="none" paint-order="stroke fill markers" d=" M 545 85 C 545 65.1177472 576.5639216 49 615.5 49 C 654.4360784 49 686 65.1177472 686 85 C 686 104.8822528 654.4360784 121 615.5 121 C 576.5639216 121 545 104.8822528 545 85 Z" fill-opacity="0.2"/></g><g><path fill="#ffffff" stroke="none" paint-order="stroke fill markers" d=" M 538 78 C 538 58.1177472 569.5639216 42 608.5 42 C 647.4360784 42 679 58.1177472 679 78 C 679 97.8822528 647.4360784 114 608.5 114 C 569.5639216 114 538 97.8822528 538 78 Z"/></g><g><path fill="none" stroke="#000000" paint-order="fill stroke markers" d=" M 538 78 C 538 58.1177472 569.5639216 42 608.5 42 C 647.4360784 42 679 58.1177472 679 78 C 679 97.8822528 647.4360784 114 608.5 114 C 569.5639216 114 538 97.8822528 538 78 Z" stroke-miterlimit="10" stroke-dasharray=""/></g><g><g><path fill="none" stroke="none"/><text fill="#000000" stroke="none" font-family="Arial" font-size="13px" font-style="normal" font-weight="bold" text-decoration="undefined" x="624.5" y="78" text-anchor="middle" dominant-baseline="central" transform="matrix(1 0 0 1 -16 -12)">UC32 -</text><text fill="#000000" stroke="none" font-family="Arial" font-size="13px" font-style="normal" font-weight="bold" text-decoration="undefined" x="624.5" y="91" text-anchor="middle" dominant-baseline="central" transform="matrix(1 0 0 1 -16 -12)">Gateway non</text><text fill="#000000" stroke="none" font-family="Arial" font-size="13px" font-style="normal" font-weight="bold" text-decoration="undefined" x="624.5" y="104" text-anchor="middle" dominant-baseline="central" transform="matrix(1 0 0 1 -16 -12)">raggiungibile</text></g></g><g><path fill="none" stroke="#000000" paint-order="fill stroke markers" d=" M 341 115 L 341 161" stroke-miterlimit="10" stroke-dasharray="3"/></g><g><path fill="none" stroke="#000000" paint-order="fill stroke markers" d=" M 336.790482243984 150.83732514237585 L 341 161 L 345.209517756016 150.83732514237585" stroke-miterlimit="10" stroke-dasharray=""/></g><g><rect fill="#ffffff" stroke="none" x="359" y="143" width="55.65625" height="13" transform="matrix(1 0 0 1 -16 -12)"/></g><g><g><path fill="none" stroke="none"/><text fill="#000000" stroke="none" font-family="Arial" font-size="13px" font-style="normal" font-weight="normal" text-decoration="undefined" x="386.828125" y="149.5" text-anchor="middle" dominant-baseline="central" transform="matrix(1 0 0 1 -16 -12)">«include»</text></g></g><g><path fill="none" stroke="#000000" paint-order="fill stroke markers" d=" M 105 79 L 249 78" stroke-miterlimit="10" stroke-dasharray=""/></g><g><path fill="none" stroke="#000000" paint-order="fill stroke markers" d=" M 537 78 L 435 78" stroke-miterlimit="10" stroke-dasharray="3"/></g><g><path fill="none" stroke="#000000" paint-order="fill stroke markers" d=" M 445.16267485762415 73.79048224398402 L 435 78 L 445.16267485762415 82.20951775601598" stroke-miterlimit="10" stroke-dasharray=""/></g><g><rect fill="#ffffff" stroke="none" x="480" y="72" width="53.49169921875" height="13" transform="matrix(1 0 0 1 -16 -12)"/></g><g><g><path fill="none" stroke="none"/><text fill="#000000" stroke="none" font-family="Arial" font-size="13px" font-style="normal" font-weight="normal" text-decoration="undefined" x="506.745849609375" y="78.5" text-anchor="middle" dominant-baseline="central" transform="matrix(1 0 0 1 -16 -12)">«extend»</text></g></g><g><path fill="#ffffff" stroke="none" paint-order="stroke fill markers" d=" M 536 156 L 653 156 L 663 166 L 663 219 L 536 219 L 536 156"/></g><g><path fill="none" stroke="#000000" paint-order="fill stroke markers" d=" M 536 156 L 653 156 L 663 166 L 663 219 L 536 219 L 536 156 L 536 156" stroke-miterlimit="10" stroke-dasharray=""/></g><g><path fill="none" stroke="#000000" paint-order="fill stroke markers" d=" M 653 156 L 653 166 L 663 166 L 653 156" stroke-miterlimit="10" stroke-dasharray=""/></g><g><g><path fill="none" stroke="none"/><text fill="#000000" stroke="none" font-family="Arial" font-size="13px" font-style="normal" font-weight="normal" text-decoration="undefined" x="557" y="173" text-anchor="start" dominant-baseline="text-before-edge" transform="matrix(1 0 0 1 -16 -12)">Condizione: il</text><text fill="#000000" stroke="none" font-family="Arial" font-size="13px" font-style="normal" font-weight="normal" text-decoration="undefined" x="557" y="186" text-anchor="start" dominant-baseline="text-before-edge" transform="matrix(1 0 0 1 -16 -12)">gateway non è</text><text fill="#000000" stroke="none" font-family="Arial" font-size="13px" font-style="normal" font-weight="normal" text-decoration="undefined" x="557" y="199" text-anchor="start" dominant-baseline="text-before-edge" transform="matrix(1 0 0 1 -16 -12)">raggiungibile dal</text><text fill="#000000" stroke="none" font-family="Arial" font-size="13px" font-style="normal" font-weight="normal" text-decoration="undefined" x="557" y="212" text-anchor="start" dominant-baseline="text-before-edge" transform="matrix(1 0 0 1 -16 -12)">sistema</text></g></g><g><path fill="none" stroke="#000000" paint-order="fill stroke markers" d=" M 566 155 L 486 78" stroke-miterlimit="10" stroke-dasharray="3"/></g></g></svg>