<svg version="1.1" xmlns="http://www.w3.org/2000/svg" xmlns:xlink="http://www.w3.org/1999/xlink" width="725" height="308"><defs/><g><g><rect fill="#C0C0C0" stroke="none" x="173" y="25" width="568" height="288" transform="matrix(1 0 0 1 -20 -8)" fill-opacity="0.2"/></g><g><rect fill="#ffffff" stroke="none" x="166" y="18" width="568" height="288" transform="matrix(1 0 0 1 -20 -8)"/></g><g><path fill="none" stroke="#000000" paint-order="fill stroke markers" d=" M 146 10 L 714 10 L 714 298 L 146 298 L 146 10 Z Z" stroke-miterlimit="10" stroke-dasharray=""/></g><g><g><path fill="none" stroke="none"/><text fill="#000000" stroke="none" font-family="Arial" font-size="13px" font-style="normal" font-weight="bold" text-decoration="undefined" x="450.5" y="31.5" text-anchor="middle" dominant-baseline="central" transform="matrix(1 0 0 1 -20 -8)">Sistema cloud</text></g></g><g><path fill="#ffffff" stroke="none" paint-order="stroke fill markers" d=" M 47.930751953125 43.85 C 47.930751953125 38.96227952 51.888554321125 35 56.770751953125 35 C 61.652949585125 35 65.610751953125 38.96227952 65.610751953125 43.85 C 65.610751953125 48.73772048 61.652949585125 52.7 56.770751953125 52.7 C 51.888554321125 52.7 47.930751953125 48.73772048 47.930751953125 43.85 Z"/></g><g><path fill="none" stroke="#000000" paint-order="fill stroke markers" d=" M 47.930751953125 43.85 C 47.930751953125 38.96227952 51.888554321125 35 56.770751953125 35 C 61.652949585125 35 65.610751953125 38.96227952 65.610751953125 43.85 C 65.610751953125 48.73772048 61.652949585125 52.7 56.770751953125 52.7 C 51.888554321125 52.7 47.930751953125 48.73772048 47.930751953125 43.85 Z" stroke-miterlimit="10" stroke-dasharray=""/></g><g><path fill="none" stroke="#000000" paint-order="fill stroke markers" d=" M 56.770751953125 52.7 L 56.770751953125 70.3" stroke-miterlimit="10" stroke-dasharray=""/></g><g><path fill="none" stroke="#000000" paint-order="fill stroke markers" d=" M 47.410751953125 59.3 L 66.130751953125 59.3" stroke-miterlimit="10" stroke-dasharray=""/></g><g><path fill="none" stroke="#000000" paint-order="fill stroke markers" d=" M 56.770751953125 70.3 L 43.770751953125 88" stroke-miterlimit="10" stroke-dasharray=""/></g><g><path fill="none" stroke="#000000" paint-order="fill stroke markers" d=" M 56.770751953125 70.3 L 69.770751953125 88" stroke-miterlimit="10" stroke-dasharray=""/></g><g><g><path fill="none" stroke="none"/><text fill="#000000" stroke="none" font-family="Arial" font-size="13px" font-style="normal" font-weight="bold" text-decoration="undefined" x="77.270751953125" y="110.5" text-anchor="middle" dominant-baseline="central" transform="matrix(1 0 0 1 -20 -8)">Tenant admin</text></g></g><g><path fill="#C0C0C0" stroke="none" paint-order="stroke fill markers" d=" M 241 85 C 241 65.1177472 287.5623808 49 345 49 C 402.4376192 49 449 65.1177472 449 85 C 449 104.8822528 402.4376192 121 345 121 C 287.5623808 121 241 104.8822528 241 85 Z" fill-opacity="0.2"/></g><g><path fill="#ffffff" stroke="none" paint-order="stroke fill markers" d=" M 234 78 C 234 58.1177472 280.5623808 42 338 42 C 395.4376192 42 442 58.1177472 442 78 C 442 97.8822528 395.4376192 114 338 114 C 280.5623808 114 234 97.8822528 234 78 Z"/></g><g><path fill="none" stroke="#000000" paint-order="fill stroke markers" d=" M 234 78 C 234 58.1177472 280.5623808 42 338 42 C 395.4376192 42 442 58.1177472 442 78 C 442 97.8822528 395.4376192 114 338 114 C 280.5623808 114 234 97.8822528 234 78 Z" stroke-miterlimit="10" stroke-dasharray=""/></g><g><g><path fill="none" stroke="none"/><text fill="#000000" stroke="none" font-family="Arial" font-size="13px" font-style="normal" font-weight="bold" text-decoration="undefined" x="358" y="74" text-anchor="middle" dominant-baseline="central" transform="matrix(1 0 0 1 -20 -8)">UC67 - Sospensione</text><text fill="#000000" stroke="none" font-family="Arial" font-size="13px" font-style="normal" font-weight="bold" text-decoration="undefined" x="358" y="87" text-anchor="middle" dominant-baseline="central" transform="matrix(1 0 0 1 -20 -8)">gateway associato a</text><text fill="#000000" stroke="none" font-family="Arial" font-size="13px" font-style="normal" font-weight="bold" text-decoration="undefined" x="358" y="100" text-anchor="middle" dominant-baseline="central" transform="matrix(1 0 0 1 -20 -8)">tenant</text></g></g><g><path fill="none" stroke="#000000" paint-order="fill stroke markers" d=" M 105 75 L 233 77" stroke-miterlimit="10" stroke-dasharray=""/></g><g><path fill="#C0C0C0" stroke="none" paint-order="stroke fill markers" d=" M 545 83 C 545 63.1177472 580.817216 47 625 47 C 669.182784 47 705 63.1177472 705 83 C 705 102.8822528 669.182784 119 625 119 C 580.817216 119 545 102.8822528 545 83 Z" fill-opacity="0.2"/></g><g><path fill="#ffffff" stroke="none" paint-order="stroke fill markers" d=" M 538 76 C 538 56.1177472 573.817216 40 618 40 C 662.182784 40 698 56.1177472 698 76 C 698 95.8822528 662.182784 112 618 112 C 573.817216 112 538 95.8822528 538 76 Z"/></g><g><path fill="none" stroke="#000000" paint-order="fill stroke markers" d=" M 538 76 C 538 56.1177472 573.817216 40 618 40 C 662.182784 40 698 56.1177472 698 76 C 698 95.8822528 662.182784 112 618 112 C 573.817216 112 538 95.8822528 538 76 Z" stroke-miterlimit="10" stroke-dasharray=""/></g><g><g><path fill="none" stroke="none"/><text fill="#000000" stroke="none" font-family="Arial" font-size="13px" font-style="normal" font-weight="bold" text-decoration="undefined" x="638" y="72" text-anchor="middle" dominant-baseline="central" transform="matrix(1 0 0 1 -20 -8)">UC34 - Gateway</text><text fill="#000000" stroke="none" font-family="Arial" font-size="13px" font-style="normal" font-weight="bold" text-decoration="undefined" x="638" y="85" text-anchor="middle" dominant-baseline="central" transform="matrix(1 0 0 1 -20 -8)">non</text><text fill="#000000" stroke="none" font-family="Arial" font-size="13px" font-style="normal" font-weight="bold" text-decoration="undefined" x="638" y="98" text-anchor="middle" dominant-baseline="central" transform="matrix(1 0 0 1 -20 -8)">raggiungibile</text></g></g><g><path fill="#C0C0C0" stroke="none" paint-order="stroke fill markers" d=" M 249 202 C 249 177.147184 295.5623808 157 353 157 C 410.4376192 157 457 177.147184 457 202 C 457 226.852816 410.4376192 247 353 247 C 295.5623808 247 249 226.852816 249 202 Z" fill-opacity="0.2"/></g><g><path fill="#ffffff" stroke="none" paint-order="stroke fill markers" d=" M 242 195 C 242 170.147184 288.5623808 150 346 150 C 403.4376192 150 450 170.147184 450 195 C 450 219.852816 403.4376192 240 346 240 C 288.5623808 240 242 219.852816 242 195 Z"/></g><g><path fill="none" stroke="#000000" paint-order="fill stroke markers" d=" M 242 195 C 242 170.147184 288.5623808 150 346 150 C 403.4376192 150 450 170.147184 450 195 C 450 219.852816 403.4376192 240 346 240 C 288.5623808 240 242 219.852816 242 195 Z" stroke-miterlimit="10" stroke-dasharray=""/></g><g><g><path fill="none" stroke="none"/><text fill="#000000" stroke="none" font-family="Arial" font-size="13px" font-style="normal" font-weight="bold" text-decoration="undefined" x="366" y="184.5" text-anchor="middle" dominant-baseline="central" transform="matrix(1 0 0 1 -20 -8)">UC71 - Seleziona</text><text fill="#000000" stroke="none" font-family="Arial" font-size="13px" font-style="normal" font-weight="bold" text-decoration="undefined" x="366" y="197.5" text-anchor="middle" dominant-baseline="central" transform="matrix(1 0 0 1 -20 -8)">Gateway per invio</text><text fill="#000000" stroke="none" font-family="Arial" font-size="13px" font-style="normal" font-weight="bold" text-decoration="undefined" x="366" y="210.5" text-anchor="middle" dominant-baseline="central" transform="matrix(1 0 0 1 -20 -8)">comando da Tenant</text><text fill="#000000" stroke="none" font-family="Arial" font-size="13px" font-style="normal" font-weight="bold" text-decoration="undefined" x="366" y="223.5" text-anchor="middle" dominant-baseline="central" transform="matrix(1 0 0 1 -20 -8)">Admin</text></g></g><g><path fill="none" stroke="#000000" paint-order="fill stroke markers" d=" M 341 115 L 343 149" stroke-miterlimit="10" stroke-dasharray="3"/></g><g><path fill="none" stroke="#000000" paint-order="fill stroke markers" d=" M 338.2009734846691 139.10205352079782 L 343 149 L 346.6054808831808 138.6076707326501" stroke-miterlimit="10" stroke-dasharray=""/></g><g><rect fill="#ffffff" stroke="none" x="364" y="132" width="55.65625" height="13" transform="matrix(1 0 0 1 -20 -8)"/></g><g><g><path fill="none" stroke="none"/><text fill="#000000" stroke="none" font-family="Arial" font-size="13px" font-style="normal" font-weight="normal" text-decoration="undefined" x="391.828125" y="138.5" text-anchor="middle" dominant-baseline="central" transform="matrix(1 0 0 1 -20 -8)">«include»</text></g></g><g><path fill="none" stroke="#000000" paint-order="fill stroke markers" d=" M 537 77 L 443 77" stroke-miterlimit="10" stroke-dasharray="3"/></g><g><path fill="none" stroke="#000000" paint-order="fill stroke markers" d=" M 453.16267485762415 72.79048224398402 L 443 77 L 453.16267485762415 81.20951775601598" stroke-miterlimit="10" stroke-dasharray=""/></g><g><rect fill="#ffffff" stroke="none" x="488" y="56" width="53.49169921875" height="13" transform="matrix(1 0 0 1 -20 -8)"/></g><g><g><path fill="none" stroke="none"/><text fill="#000000" stroke="none" font-family="Arial" font-size="13px" font-style="normal" font-weight="normal" text-decoration="undefined" x="514.745849609375" y="62.5" text-anchor="middle" dominant-baseline="central" transform="matrix(1 0 0 1 -20 -8)">«extend»</text></g></g><g><path fill="#ffffff" stroke="none" paint-order="stroke fill markers" d=" M 516 152 L 633 152 L 643 162 L 643 215 L 516 215 L 516 152"/></g><g><path fill="none" stroke="#000000" paint-order="fill stroke markers" d=" M 516 152 L 633 152 L 643 162 L 643 215 L 516 215 L 516 152 L 516 152" stroke-miterlimit="10" stroke-dasharray=""/></g><g><path fill="none" stroke="#000000" paint-order="fill stroke markers" d=" M 633 152 L 633 162 L 643 162 L 633 152" stroke-miterlimit="10" stroke-dasharray=""/></g><g><g><path fill="none" stroke="none"/><text fill="#000000" stroke="none" font-family="Arial" font-size="13px" font-style="normal" font-weight="normal" text-decoration="undefined" x="541" y="165" text-anchor="start" dominant-baseline="text-before-edge" transform="matrix(1 0 0 1 -20 -8)">Condizione: il</text><text fill="#000000" stroke="none" font-family="Arial" font-size="13px" font-style="normal" font-weight="normal" text-decoration="undefined" x="541" y="178" text-anchor="start" dominant-baseline="text-before-edge" transform="matrix(1 0 0 1 -20 -8)">gateway non è</text><text fill="#000000" stroke="none" font-family="Arial" font-size="13px" font-style="normal" font-weight="normal" text-decoration="undefined" x="541" y="191" text-anchor="start" dominant-baseline="text-before-edge" transform="matrix(1 0 0 1 -20 -8)">raggiungibile dal</text><text fill="#000000" stroke="none" font-family="Arial" font-size="13px" font-style="normal" font-weight="normal" text-decoration="undefined" x="541" y="204" text-anchor="start" dominant-baseline="text-before-edge" transform="matrix(1 0 0 1 -20 -8)">sistema</text></g></g><g><path fill="none" stroke="#000000" paint-order="fill stroke markers" d=" M 552 151 L 490 77" stroke-miterlimit="10" stroke-dasharray="3"/></g></g></svg>