<svg version="1.1" xmlns="http://www.w3.org/2000/svg" xmlns:xlink="http://www.w3.org/1999/xlink" width="754" height="300"><defs/><g><g><rect fill="#C0C0C0" stroke="none" x="156" y="37" width="608" height="280" transform="matrix(1 0 0 1 -14 -20)" fill-opacity="0.2"/></g><g><rect fill="#ffffff" stroke="none" x="149" y="30" width="608" height="280" transform="matrix(1 0 0 1 -14 -20)"/></g><g><path fill="none" stroke="#000000" paint-order="fill stroke markers" d=" M 135 10 L 743 10 L 743 290 L 135 290 L 135 10 Z Z" stroke-miterlimit="10" stroke-dasharray=""/></g><g><g><path fill="none" stroke="none"/><text fill="#000000" stroke="none" font-family="Arial" font-size="13px" font-style="normal" font-weight="bold" text-decoration="undefined" x="453.5" y="43.5" text-anchor="middle" dominant-baseline="central" transform="matrix(1 0 0 1 -14 -20)">Sistema cloud</text></g></g><g><path fill="#ffffff" stroke="none" paint-order="stroke fill markers" d=" M 47.930751953125 36.85 C 47.930751953125 31.962279520000003 51.888554321125 28 56.770751953125 28 C 61.652949585125 28 65.610751953125 31.962279520000003 65.610751953125 36.85 C 65.610751953125 41.73772048 61.652949585125 45.7 56.770751953125 45.7 C 51.888554321125 45.7 47.930751953125 41.73772048 47.930751953125 36.85 Z"/></g><g><path fill="none" stroke="#000000" paint-order="fill stroke markers" d=" M 47.930751953125 36.85 C 47.930751953125 31.962279520000003 51.888554321125 28 56.770751953125 28 C 61.652949585125 28 65.610751953125 31.962279520000003 65.610751953125 36.85 C 65.610751953125 41.73772048 61.652949585125 45.7 56.770751953125 45.7 C 51.888554321125 45.7 47.930751953125 41.73772048 47.930751953125 36.85 Z" stroke-miterlimit="10" stroke-dasharray=""/></g><g><path fill="none" stroke="#000000" paint-order="fill stroke markers" d=" M 56.770751953125 45.7 L 56.770751953125 63.3" stroke-miterlimit="10" stroke-dasharray=""/></g><g><path fill="none" stroke="#000000" paint-order="fill stroke markers" d=" M 47.410751953125 52.3 L 66.130751953125 52.3" stroke-miterlimit="10" stroke-dasharray=""/></g><g><path fill="none" stroke="#000000" paint-order="fill stroke markers" d=" M 56.770751953125 63.3 L 43.770751953125 81" stroke-miterlimit="10" stroke-dasharray=""/></g><g><path fill="none" stroke="#000000" paint-order="fill stroke markers" d=" M 56.770751953125 63.3 L 69.770751953125 81" stroke-miterlimit="10" stroke-dasharray=""/></g><g><g><path fill="none" stroke="none"/><text fill="#000000" stroke="none" font-family="Arial" font-size="13px" font-style="normal" font-weight="bold" text-decoration="undefined" x="71.270751953125" y="115.5" text-anchor="middle" dominant-baseline="central" transform="matrix(1 0 0 1 -14 -20)">Tenant admin</text></g></g><g><path fill="#C0C0C0" stroke="none" paint-order="stroke fill markers" d=" M 542 78 C 542 58.1177472 573.5639216 42 612.5 42 C 651.4360784 42 683 58.1177472 683 78 C 683 97.8822528 651.4360784 114 612.5 114 C 573.5639216 114 542 97.8822528 542 78 Z" fill-opacity="0.2"/></g><g><path fill="#ffffff" stroke="none" paint-order="stroke fill markers" d=" M 535 71 C 535 51.1177472 566.5639216 35 605.5 35 C 644.4360784 35 676 51.1177472 676 71 C 676 90.8822528 644.4360784 107 605.5 107 C 566.5639216 107 535 90.8822528 535 71 Z"/></g><g><path fill="none" stroke="#000000" paint-order="fill stroke markers" d=" M 535 71 C 535 51.1177472 566.5639216 35 605.5 35 C 644.4360784 35 676 51.1177472 676 71 C 676 90.8822528 644.4360784 107 605.5 107 C 566.5639216 107 535 90.8822528 535 71 Z" stroke-miterlimit="10" stroke-dasharray=""/></g><g><g><path fill="none" stroke="none"/><text fill="#000000" stroke="none" font-family="Arial" font-size="13px" font-style="normal" font-weight="bold" text-decoration="undefined" x="619.5" y="79" text-anchor="middle" dominant-baseline="central" transform="matrix(1 0 0 1 -14 -20)">UC34 -</text><text fill="#000000" stroke="none" font-family="Arial" font-size="13px" font-style="normal" font-weight="bold" text-decoration="undefined" x="619.5" y="92" text-anchor="middle" dominant-baseline="central" transform="matrix(1 0 0 1 -14 -20)">Gateway non</text><text fill="#000000" stroke="none" font-family="Arial" font-size="13px" font-style="normal" font-weight="bold" text-decoration="undefined" x="619.5" y="105" text-anchor="middle" dominant-baseline="central" transform="matrix(1 0 0 1 -14 -20)">raggiungibile</text></g></g><g><path fill="#C0C0C0" stroke="none" paint-order="stroke fill markers" d=" M 240 197 C 240 172.147184 287.6816688 152 346.5 152 C 405.3183312 152 453 172.147184 453 197 C 453 221.852816 405.3183312 242 346.5 242 C 287.6816688 242 240 221.852816 240 197 Z" fill-opacity="0.2"/></g><g><path fill="#ffffff" stroke="none" paint-order="stroke fill markers" d=" M 233 190 C 233 165.147184 280.6816688 145 339.5 145 C 398.3183312 145 446 165.147184 446 190 C 446 214.852816 398.3183312 235 339.5 235 C 280.6816688 235 233 214.852816 233 190 Z"/></g><g><path fill="none" stroke="#000000" paint-order="fill stroke markers" d=" M 233 190 C 233 165.147184 280.6816688 145 339.5 145 C 398.3183312 145 446 165.147184 446 190 C 446 214.852816 398.3183312 235 339.5 235 C 280.6816688 235 233 214.852816 233 190 Z" stroke-miterlimit="10" stroke-dasharray=""/></g><g><g><path fill="none" stroke="none"/><text fill="#000000" stroke="none" font-family="Arial" font-size="13px" font-style="normal" font-weight="bold" text-decoration="undefined" x="353.5" y="191.5" text-anchor="middle" dominant-baseline="central" transform="matrix(1 0 0 1 -14 -20)">UC71 - Seleziona</text><text fill="#000000" stroke="none" font-family="Arial" font-size="13px" font-style="normal" font-weight="bold" text-decoration="undefined" x="353.5" y="204.5" text-anchor="middle" dominant-baseline="central" transform="matrix(1 0 0 1 -14 -20)">Gateway per invio</text><text fill="#000000" stroke="none" font-family="Arial" font-size="13px" font-style="normal" font-weight="bold" text-decoration="undefined" x="353.5" y="217.5" text-anchor="middle" dominant-baseline="central" transform="matrix(1 0 0 1 -14 -20)">comando da Tenant</text><text fill="#000000" stroke="none" font-family="Arial" font-size="13px" font-style="normal" font-weight="bold" text-decoration="undefined" x="353.5" y="230.5" text-anchor="middle" dominant-baseline="central" transform="matrix(1 0 0 1 -14 -20)">Admin</text></g></g><g><path fill="#C0C0C0" stroke="none" paint-order="stroke fill markers" d=" M 238 77 C 238 57.1177472 286.3532416 41 346 41 C 405.6467584 41 454 57.1177472 454 77 C 454 96.8822528 405.6467584 113 346 113 C 286.3532416 113 238 96.8822528 238 77 Z" fill-opacity="0.2"/></g><g><path fill="#ffffff" stroke="none" paint-order="stroke fill markers" d=" M 231 70 C 231 50.1177472 279.3532416 34 339 34 C 398.6467584 34 447 50.1177472 447 70 C 447 89.8822528 398.6467584 106 339 106 C 279.3532416 106 231 89.8822528 231 70 Z"/></g><g><path fill="none" stroke="#000000" paint-order="fill stroke markers" d=" M 231 70 C 231 50.1177472 279.3532416 34 339 34 C 398.6467584 34 447 50.1177472 447 70 C 447 89.8822528 398.6467584 106 339 106 C 279.3532416 106 231 89.8822528 231 70 Z" stroke-miterlimit="10" stroke-dasharray=""/></g><g><g><path fill="none" stroke="none"/><text fill="#000000" stroke="none" font-family="Arial" font-size="13px" font-style="normal" font-weight="bold" text-decoration="undefined" x="353" y="78" text-anchor="middle" dominant-baseline="central" transform="matrix(1 0 0 1 -14 -20)">UC68 - Riattivazione</text><text fill="#000000" stroke="none" font-family="Arial" font-size="13px" font-style="normal" font-weight="bold" text-decoration="undefined" x="353" y="91" text-anchor="middle" dominant-baseline="central" transform="matrix(1 0 0 1 -14 -20)">gateway associato a</text><text fill="#000000" stroke="none" font-family="Arial" font-size="13px" font-style="normal" font-weight="bold" text-decoration="undefined" x="353" y="104" text-anchor="middle" dominant-baseline="central" transform="matrix(1 0 0 1 -14 -20)">tenant</text></g></g><g><path fill="none" stroke="#000000" paint-order="fill stroke markers" d=" M 339 107 L 339 144" stroke-miterlimit="10" stroke-dasharray="3"/></g><g><path fill="none" stroke="#000000" paint-order="fill stroke markers" d=" M 334.790482243984 133.83732514237585 L 339 144 L 343.209517756016 133.83732514237585" stroke-miterlimit="10" stroke-dasharray=""/></g><g><rect fill="#ffffff" stroke="none" x="355" y="138" width="55.65625" height="13" transform="matrix(1 0 0 1 -14 -20)"/></g><g><g><path fill="none" stroke="none"/><text fill="#000000" stroke="none" font-family="Arial" font-size="13px" font-style="normal" font-weight="normal" text-decoration="undefined" x="382.828125" y="144.5" text-anchor="middle" dominant-baseline="central" transform="matrix(1 0 0 1 -14 -20)">«include»</text></g></g><g><path fill="none" stroke="#000000" paint-order="fill stroke markers" d=" M 105 68 L 230 69" stroke-miterlimit="10" stroke-dasharray=""/></g><g><path fill="#ffffff" stroke="none" paint-order="stroke fill markers" d=" M 530 164 L 647 164 L 657 174 L 657 227 L 530 227 L 530 164"/></g><g><path fill="none" stroke="#000000" paint-order="fill stroke markers" d=" M 530 164 L 647 164 L 657 174 L 657 227 L 530 227 L 530 164 L 530 164" stroke-miterlimit="10" stroke-dasharray=""/></g><g><path fill="none" stroke="#000000" paint-order="fill stroke markers" d=" M 647 164 L 647 174 L 657 174 L 647 164" stroke-miterlimit="10" stroke-dasharray=""/></g><g><g><path fill="none" stroke="none"/><text fill="#000000" stroke="none" font-family="Arial" font-size="13px" font-style="normal" font-weight="normal" text-decoration="undefined" x="549" y="189" text-anchor="start" dominant-baseline="text-before-edge" transform="matrix(1 0 0 1 -14 -20)">Condizione: il</text><text fill="#000000" stroke="none" font-family="Arial" font-size="13px" font-style="normal" font-weight="normal" text-decoration="undefined" x="549" y="202" text-anchor="start" dominant-baseline="text-before-edge" transform="matrix(1 0 0 1 -14 -20)">gateway non è</text><text fill="#000000" stroke="none" font-family="Arial" font-size="13px" font-style="normal" font-weight="normal" text-decoration="undefined" x="549" y="215" text-anchor="start" dominant-baseline="text-before-edge" transform="matrix(1 0 0 1 -14 -20)">raggiungibile dal</text><text fill="#000000" stroke="none" font-family="Arial" font-size="13px" font-style="normal" font-weight="normal" text-decoration="undefined" x="549" y="228" text-anchor="start" dominant-baseline="text-before-edge" transform="matrix(1 0 0 1 -14 -20)">sistema</text></g></g><g><path fill="none" stroke="#000000" paint-order="fill stroke markers" d=" M 534 71 L 448 70" stroke-miterlimit="10" stroke-dasharray="3"/></g><g><path fill="none" stroke="#000000" paint-order="fill stroke markers" d=" M 458.2109324608354 65.90892944570038 L 448 70 L 458.1130433165524 74.3273958540367" stroke-miterlimit="10" stroke-dasharray=""/></g><g><rect fill="#ffffff" stroke="none" x="480" y="64" width="53.49169921875" height="13" transform="matrix(1 0 0 1 -14 -20)"/></g><g><g><path fill="none" stroke="none"/><text fill="#000000" stroke="none" font-family="Arial" font-size="13px" font-style="normal" font-weight="normal" text-decoration="undefined" x="506.745849609375" y="70.5" text-anchor="middle" dominant-baseline="central" transform="matrix(1 0 0 1 -14 -20)">«extend»</text></g></g><g><path fill="none" stroke="#000000" paint-order="fill stroke markers" d=" M 567 163 L 491 70" stroke-miterlimit="10" stroke-dasharray="3"/></g></g></svg>