<svg version="1.1" xmlns="http://www.w3.org/2000/svg" xmlns:xlink="http://www.w3.org/1999/xlink" width="757" height="324"><defs/><g><g><rect fill="#C0C0C0" stroke="none" x="165" y="33" width="608" height="304" transform="matrix(1 0 0 1 -20 -16)" fill-opacity="0.2"/></g><g><rect fill="#ffffff" stroke="none" x="158" y="26" width="608" height="304" transform="matrix(1 0 0 1 -20 -16)"/></g><g><path fill="none" stroke="#000000" paint-order="fill stroke markers" d=" M 138 10 L 746 10 L 746 314 L 138 314 L 138 10 Z Z" stroke-miterlimit="10" stroke-dasharray=""/></g><g><g><path fill="none" stroke="none"/><text fill="#000000" stroke="none" font-family="Arial" font-size="13px" font-style="normal" font-weight="bold" text-decoration="undefined" x="462.5" y="39.5" text-anchor="middle" dominant-baseline="central" transform="matrix(1 0 0 1 -20 -16)">Sistema cloud</text></g></g><g><path fill="#ffffff" stroke="none" paint-order="stroke fill markers" d=" M 47.930751953125 48.849999999999994 C 47.930751953125 43.962279519999996 51.888554321125 40 56.770751953125 40 C 61.652949585125 40 65.610751953125 43.962279519999996 65.610751953125 48.849999999999994 C 65.610751953125 53.73772047999999 61.652949585125 57.7 56.770751953125 57.7 C 51.888554321125 57.7 47.930751953125 53.73772047999999 47.930751953125 48.849999999999994 Z"/></g><g><path fill="none" stroke="#000000" paint-order="fill stroke markers" d=" M 47.930751953125 48.849999999999994 C 47.930751953125 43.962279519999996 51.888554321125 40 56.770751953125 40 C 61.652949585125 40 65.610751953125 43.962279519999996 65.610751953125 48.849999999999994 C 65.610751953125 53.73772047999999 61.652949585125 57.7 56.770751953125 57.7 C 51.888554321125 57.7 47.930751953125 53.73772047999999 47.930751953125 48.849999999999994 Z" stroke-miterlimit="10" stroke-dasharray=""/></g><g><path fill="none" stroke="#000000" paint-order="fill stroke markers" d=" M 56.770751953125 57.7 L 56.770751953125 75.3" stroke-miterlimit="10" stroke-dasharray=""/></g><g><path fill="none" stroke="#000000" paint-order="fill stroke markers" d=" M 47.410751953125 64.3 L 66.130751953125 64.3" stroke-miterlimit="10" stroke-dasharray=""/></g><g><path fill="none" stroke="#000000" paint-order="fill stroke markers" d=" M 56.770751953125 75.3 L 43.770751953125 93" stroke-miterlimit="10" stroke-dasharray=""/></g><g><path fill="none" stroke="#000000" paint-order="fill stroke markers" d=" M 56.770751953125 75.3 L 69.770751953125 93" stroke-miterlimit="10" stroke-dasharray=""/></g><g><g><path fill="none" stroke="none"/><text fill="#000000" stroke="none" font-family="Arial" font-size="13px" font-style="normal" font-weight="bold" text-decoration="undefined" x="77.270751953125" y="123.5" text-anchor="middle" dominant-baseline="central" transform="matrix(1 0 0 1 -20 -16)">Tenant admin</text></g></g><g><path fill="#C0C0C0" stroke="none" paint-order="stroke fill markers" d=" M 233 235 C 233 210.147184 280.6816688 190 339.5 190 C 398.3183312 190 446 210.147184 446 235 C 446 259.852816 398.3183312 280 339.5 280 C 280.6816688 280 233 259.852816 233 235 Z" fill-opacity="0.2"/></g><g><path fill="#ffffff" stroke="none" paint-order="stroke fill markers" d=" M 226 228 C 226 203.147184 273.6816688 183 332.5 183 C 391.3183312 183 439 203.147184 439 228 C 439 252.85281600000002 391.3183312 273 332.5 273 C 273.6816688 273 226 252.85281600000002 226 228 Z"/></g><g><path fill="none" stroke="#000000" paint-order="fill stroke markers" d=" M 226 228 C 226 203.147184 273.6816688 183 332.5 183 C 391.3183312 183 439 203.147184 439 228 C 439 252.85281600000002 391.3183312 273 332.5 273 C 273.6816688 273 226 252.85281600000002 226 228 Z" stroke-miterlimit="10" stroke-dasharray=""/></g><g><g><path fill="none" stroke="none"/><text fill="#000000" stroke="none" font-family="Arial" font-size="13px" font-style="normal" font-weight="bold" text-decoration="undefined" x="352.5" y="225.5" text-anchor="middle" dominant-baseline="central" transform="matrix(1 0 0 1 -20 -16)">UC69 - Seleziona</text><text fill="#000000" stroke="none" font-family="Arial" font-size="13px" font-style="normal" font-weight="bold" text-decoration="undefined" x="352.5" y="238.5" text-anchor="middle" dominant-baseline="central" transform="matrix(1 0 0 1 -20 -16)">Gateway per invio</text><text fill="#000000" stroke="none" font-family="Arial" font-size="13px" font-style="normal" font-weight="bold" text-decoration="undefined" x="352.5" y="251.5" text-anchor="middle" dominant-baseline="central" transform="matrix(1 0 0 1 -20 -16)">comando da Tenant</text><text fill="#000000" stroke="none" font-family="Arial" font-size="13px" font-style="normal" font-weight="bold" text-decoration="undefined" x="352.5" y="264.5" text-anchor="middle" dominant-baseline="central" transform="matrix(1 0 0 1 -20 -16)">Admin</text></g></g><g><path fill="#C0C0C0" stroke="none" paint-order="stroke fill markers" d=" M 520 87 C 520 67.1177472 551.5639216 51 590.5 51 C 629.4360784 51 661 67.1177472 661 87 C 661 106.8822528 629.4360784 123 590.5 123 C 551.5639216 123 520 106.8822528 520 87 Z" fill-opacity="0.2"/></g><g><path fill="#ffffff" stroke="none" paint-order="stroke fill markers" d=" M 513 80 C 513 60.1177472 544.5639216 44 583.5 44 C 622.4360784 44 654 60.1177472 654 80 C 654 99.8822528 622.4360784 116 583.5 116 C 544.5639216 116 513 99.8822528 513 80 Z"/></g><g><path fill="none" stroke="#000000" paint-order="fill stroke markers" d=" M 513 80 C 513 60.1177472 544.5639216 44 583.5 44 C 622.4360784 44 654 60.1177472 654 80 C 654 99.8822528 622.4360784 116 583.5 116 C 544.5639216 116 513 99.8822528 513 80 Z" stroke-miterlimit="10" stroke-dasharray=""/></g><g><g><path fill="none" stroke="none"/><text fill="#000000" stroke="none" font-family="Arial" font-size="13px" font-style="normal" font-weight="bold" text-decoration="undefined" x="603.5" y="84" text-anchor="middle" dominant-baseline="central" transform="matrix(1 0 0 1 -20 -16)">UC32 -</text><text fill="#000000" stroke="none" font-family="Arial" font-size="13px" font-style="normal" font-weight="bold" text-decoration="undefined" x="603.5" y="97" text-anchor="middle" dominant-baseline="central" transform="matrix(1 0 0 1 -20 -16)">Gateway non</text><text fill="#000000" stroke="none" font-family="Arial" font-size="13px" font-style="normal" font-weight="bold" text-decoration="undefined" x="603.5" y="110" text-anchor="middle" dominant-baseline="central" transform="matrix(1 0 0 1 -20 -16)">raggiungibile</text></g></g><g><path fill="#C0C0C0" stroke="none" paint-order="stroke fill markers" d=" M 233 86 C 233 61.147183999999996 279.5623808 41 337 41 C 394.4376192 41 441 61.147183999999996 441 86 C 441 110.852816 394.4376192 131 337 131 C 279.5623808 131 233 110.852816 233 86 Z" fill-opacity="0.2"/></g><g><path fill="#ffffff" stroke="none" paint-order="stroke fill markers" d=" M 226 79 C 226 54.147183999999996 272.5623808 34 330 34 C 387.4376192 34 434 54.147183999999996 434 79 C 434 103.852816 387.4376192 124 330 124 C 272.5623808 124 226 103.852816 226 79 Z"/></g><g><path fill="none" stroke="#000000" paint-order="fill stroke markers" d=" M 226 79 C 226 54.147183999999996 272.5623808 34 330 34 C 387.4376192 34 434 54.147183999999996 434 79 C 434 103.852816 387.4376192 124 330 124 C 272.5623808 124 226 103.852816 226 79 Z" stroke-miterlimit="10" stroke-dasharray=""/></g><g><g><path fill="none" stroke="none"/><text fill="#000000" stroke="none" font-family="Arial" font-size="13px" font-style="normal" font-weight="bold" text-decoration="undefined" x="350" y="76.5" text-anchor="middle" dominant-baseline="central" transform="matrix(1 0 0 1 -20 -16)">UC68 - Modifica</text><text fill="#000000" stroke="none" font-family="Arial" font-size="13px" font-style="normal" font-weight="bold" text-decoration="undefined" x="350" y="89.5" text-anchor="middle" dominant-baseline="central" transform="matrix(1 0 0 1 -20 -16)">parametro rolling</text><text fill="#000000" stroke="none" font-family="Arial" font-size="13px" font-style="normal" font-weight="bold" text-decoration="undefined" x="350" y="102.5" text-anchor="middle" dominant-baseline="central" transform="matrix(1 0 0 1 -20 -16)">average di gateway</text><text fill="#000000" stroke="none" font-family="Arial" font-size="13px" font-style="normal" font-weight="bold" text-decoration="undefined" x="350" y="115.5" text-anchor="middle" dominant-baseline="central" transform="matrix(1 0 0 1 -20 -16)">associato a tenant</text></g></g><g><path fill="none" stroke="#000000" paint-order="fill stroke markers" d=" M 331 125 L 331 182" stroke-miterlimit="10" stroke-dasharray="3"/></g><g><path fill="none" stroke="#000000" paint-order="fill stroke markers" d=" M 326.790482243984 171.83732514237585 L 331 182 L 335.209517756016 171.83732514237585" stroke-miterlimit="10" stroke-dasharray=""/></g><g><rect fill="#ffffff" stroke="none" x="353" y="162" width="55.65625" height="13" transform="matrix(1 0 0 1 -20 -16)"/></g><g><g><path fill="none" stroke="none"/><text fill="#000000" stroke="none" font-family="Arial" font-size="13px" font-style="normal" font-weight="normal" text-decoration="undefined" x="380.828125" y="168.5" text-anchor="middle" dominant-baseline="central" transform="matrix(1 0 0 1 -20 -16)">«include»</text></g></g><g><path fill="none" stroke="#000000" paint-order="fill stroke markers" d=" M 105 79 L 225 79" stroke-miterlimit="10" stroke-dasharray=""/></g><g><path fill="none" stroke="#000000" paint-order="fill stroke markers" d=" M 512 80 L 435 79" stroke-miterlimit="10" stroke-dasharray="3"/></g><g><path fill="none" stroke="#000000" paint-order="fill stroke markers" d=" M 445.21648238695354 74.92280885448467 L 435 79 L 445.1071534828754 83.34113446850012" stroke-miterlimit="10" stroke-dasharray=""/></g><g><rect fill="#ffffff" stroke="none" x="472" y="72" width="53.49169921875" height="13" transform="matrix(1 0 0 1 -20 -16)"/></g><g><g><path fill="none" stroke="none"/><text fill="#000000" stroke="none" font-family="Arial" font-size="13px" font-style="normal" font-weight="normal" text-decoration="undefined" x="498.745849609375" y="78.5" text-anchor="middle" dominant-baseline="central" transform="matrix(1 0 0 1 -20 -16)">«extend»</text></g></g><g><path fill="#ffffff" stroke="none" paint-order="stroke fill markers" d=" M 524 168 L 641 168 L 651 178 L 651 231 L 524 231 L 524 168"/></g><g><path fill="none" stroke="#000000" paint-order="fill stroke markers" d=" M 524 168 L 641 168 L 651 178 L 651 231 L 524 231 L 524 168 L 524 168" stroke-miterlimit="10" stroke-dasharray=""/></g><g><path fill="none" stroke="#000000" paint-order="fill stroke markers" d=" M 641 168 L 641 178 L 651 178 L 641 168" stroke-miterlimit="10" stroke-dasharray=""/></g><g><g><path fill="none" stroke="none"/><text fill="#000000" stroke="none" font-family="Arial" font-size="13px" font-style="normal" font-weight="normal" text-decoration="undefined" x="549" y="189" text-anchor="start" dominant-baseline="text-before-edge" transform="matrix(1 0 0 1 -20 -16)">Condizione: il</text><text fill="#000000" stroke="none" font-family="Arial" font-size="13px" font-style="normal" font-weight="normal" text-decoration="undefined" x="549" y="202" text-anchor="start" dominant-baseline="text-before-edge" transform="matrix(1 0 0 1 -20 -16)">gateway non è</text><text fill="#000000" stroke="none" font-family="Arial" font-size="13px" font-style="normal" font-weight="normal" text-decoration="undefined" x="549" y="215" text-anchor="start" dominant-baseline="text-before-edge" transform="matrix(1 0 0 1 -20 -16)">raggiungibile dal</text><text fill="#000000" stroke="none" font-family="Arial" font-size="13px" font-style="normal" font-weight="normal" text-decoration="undefined" x="549" y="228" text-anchor="start" dominant-baseline="text-before-edge" transform="matrix(1 0 0 1 -20 -16)">sistema</text></g></g><g><path fill="none" stroke="#000000" paint-order="fill stroke markers" d=" M 557 167 L 473 79" stroke-miterlimit="10" stroke-dasharray="3"/></g></g></svg>