<svg version="1.1" xmlns="http://www.w3.org/2000/svg" xmlns:xlink="http://www.w3.org/1999/xlink" width="765" height="268"><defs/><g><g><rect fill="#C0C0C0" stroke="none" x="921" y="751" width="616" height="248" transform="matrix(1 0 0 1 -776 -734)" fill-opacity="0.2"/></g><g><rect fill="#ffffff" stroke="none" x="914" y="744" width="616" height="248" transform="matrix(1 0 0 1 -776 -734)"/></g><g><path fill="none" stroke="#000000" paint-order="fill stroke markers" d=" M 138 10 L 754 10 L 754 258 L 138 258 L 138 10 Z Z" stroke-miterlimit="10" stroke-dasharray=""/></g><g><g><path fill="none" stroke="none"/><text fill="#000000" stroke="none" font-family="Arial" font-size="13px" font-style="normal" font-weight="bold" text-decoration="undefined" x="1222.5" y="757.5" text-anchor="middle" dominant-baseline="central" transform="matrix(1 0 0 1 -776 -734)">Sistema cloud</text></g></g><g><path fill="#ffffff" stroke="none" paint-order="stroke fill markers" d=" M 47.93075195312497 58.85000000000002 C 47.93075195312497 53.96227952000004 51.88855432112496 50 56.770751953125 50 C 61.65294958512504 50 65.61075195312503 53.96227952000004 65.61075195312503 58.85000000000002 C 65.61075195312503 63.73772048000001 61.65294958512504 67.70000000000005 56.770751953125 67.70000000000005 C 51.88855432112496 67.70000000000005 47.93075195312497 63.73772048000001 47.93075195312497 58.85000000000002 Z"/></g><g><path fill="none" stroke="#000000" paint-order="fill stroke markers" d=" M 47.93075195312497 58.85000000000002 C 47.93075195312497 53.96227952000004 51.88855432112496 50 56.770751953125 50 C 61.65294958512504 50 65.61075195312503 53.96227952000004 65.61075195312503 58.85000000000002 C 65.61075195312503 63.73772048000001 61.65294958512504 67.70000000000005 56.770751953125 67.70000000000005 C 51.88855432112496 67.70000000000005 47.93075195312497 63.73772048000001 47.93075195312497 58.85000000000002 Z" stroke-miterlimit="10" stroke-dasharray=""/></g><g><path fill="none" stroke="#000000" paint-order="fill stroke markers" d=" M 56.770751953125 67.70000000000005 L 56.770751953125 85.29999999999995" stroke-miterlimit="10" stroke-dasharray=""/></g><g><path fill="none" stroke="#000000" paint-order="fill stroke markers" d=" M 47.410751953124986 74.29999999999995 L 66.13075195312501 74.29999999999995" stroke-miterlimit="10" stroke-dasharray=""/></g><g><path fill="none" stroke="#000000" paint-order="fill stroke markers" d=" M 56.770751953125 85.29999999999995 L 43.770751953125 103" stroke-miterlimit="10" stroke-dasharray=""/></g><g><path fill="none" stroke="#000000" paint-order="fill stroke markers" d=" M 56.770751953125 85.29999999999995 L 69.770751953125 103" stroke-miterlimit="10" stroke-dasharray=""/></g><g><g><path fill="none" stroke="none"/><text fill="#000000" stroke="none" font-family="Arial" font-size="13px" font-style="normal" font-weight="bold" text-decoration="undefined" x="833.270751953125" y="851.5" text-anchor="middle" dominant-baseline="central" transform="matrix(1 0 0 1 -776 -734)">Super admin</text></g></g><g><path fill="#C0C0C0" stroke="none" paint-order="stroke fill markers" d=" M 241 100 C 241 80.11774720000005 276.8172159999999 64 321 64 C 365.1827840000001 64 401 80.11774720000005 401 100 C 401 119.88225279999995 365.1827840000001 136 321 136 C 276.8172159999999 136 241 119.88225279999995 241 100 Z" fill-opacity="0.2"/></g><g><path fill="#ffffff" stroke="none" paint-order="stroke fill markers" d=" M 234 93 C 234 73.11774720000005 269.8172159999999 57 314 57 C 358.1827840000001 57 394 73.11774720000005 394 93 C 394 112.88225279999995 358.1827840000001 129 314 129 C 269.8172159999999 129 234 112.88225279999995 234 93 Z"/></g><g><path fill="none" stroke="#000000" paint-order="fill stroke markers" d=" M 234 93 C 234 73.11774720000005 269.8172159999999 57 314 57 C 358.1827840000001 57 394 73.11774720000005 394 93 C 394 112.88225279999995 358.1827840000001 129 314 129 C 269.8172159999999 129 234 112.88225279999995 234 93 Z" stroke-miterlimit="10" stroke-dasharray=""/></g><g><g><path fill="none" stroke="none"/><text fill="#000000" stroke="none" font-family="Arial" font-size="13px" font-style="normal" font-weight="bold" text-decoration="undefined" x="1090" y="815" text-anchor="middle" dominant-baseline="central" transform="matrix(1 0 0 1 -776 -734)">UC70 -</text><text fill="#000000" stroke="none" font-family="Arial" font-size="13px" font-style="normal" font-weight="bold" text-decoration="undefined" x="1090" y="828" text-anchor="middle" dominant-baseline="central" transform="matrix(1 0 0 1 -776 -734)">Creazione</text><text fill="#000000" stroke="none" font-family="Arial" font-size="13px" font-style="normal" font-weight="bold" text-decoration="undefined" x="1090" y="841" text-anchor="middle" dominant-baseline="central" transform="matrix(1 0 0 1 -776 -734)">Tenant</text></g></g><g><path fill="#C0C0C0" stroke="none" paint-order="stroke fill markers" d=" M 543 99.5 C 543 84.86445279999998 587.77152 73 643 73 C 698.22848 73 743 84.86445279999998 743 99.5 C 743 114.13554720000002 698.22848 126 643 126 C 587.77152 126 543 114.13554720000002 543 99.5 Z" fill-opacity="0.2"/></g><g><path fill="#ffffff" stroke="none" paint-order="stroke fill markers" d=" M 536 92.5 C 536 77.86445279999998 580.77152 66 636 66 C 691.22848 66 736 77.86445279999998 736 92.5 C 736 107.13554720000002 691.22848 119 636 119 C 580.77152 119 536 107.13554720000002 536 92.5 Z"/></g><g><path fill="none" stroke="#000000" paint-order="fill stroke markers" d=" M 536 92.5 C 536 77.86445279999998 580.77152 66 636 66 C 691.22848 66 736 77.86445279999998 736 92.5 C 736 107.13554720000002 691.22848 119 636 119 C 580.77152 119 536 107.13554720000002 536 92.5 Z" stroke-miterlimit="10" stroke-dasharray=""/></g><g><g><path fill="none" stroke="none"/><text fill="#000000" stroke="none" font-family="Arial" font-size="13px" font-style="normal" font-weight="bold" text-decoration="undefined" x="1412" y="821" text-anchor="middle" dominant-baseline="central" transform="matrix(1 0 0 1 -776 -734)">UC71 - Nome del</text><text fill="#000000" stroke="none" font-family="Arial" font-size="13px" font-style="normal" font-weight="bold" text-decoration="undefined" x="1412" y="834" text-anchor="middle" dominant-baseline="central" transform="matrix(1 0 0 1 -776 -734)">tenant già utilizzato</text></g></g><g><path fill="none" stroke="#000000" paint-order="fill stroke markers" d=" M 395 93 L 535 92" stroke-miterlimit="10" stroke-dasharray="3"/></g><g><path fill="none" stroke="#000000" paint-order="fill stroke markers" d=" M 524.8676516013261 96.28199905743668 L 535 92 L 524.807517167405 87.86317830850089" stroke-miterlimit="10" stroke-dasharray=""/></g><g><rect fill="#ffffff" stroke="none" x="1215" y="790" width="53.49169921875" height="13" transform="matrix(1 0 0 1 -776 -734)"/></g><g><g><path fill="none" stroke="none"/><text fill="#000000" stroke="none" font-family="Arial" font-size="13px" font-style="normal" font-weight="normal" text-decoration="undefined" x="1241.745849609375" y="796.5" text-anchor="middle" dominant-baseline="central" transform="matrix(1 0 0 1 -776 -734)">«extend»</text></g></g><g><path fill="none" stroke="#000000" paint-order="fill stroke markers" d=" M 367 130 L 413 162" stroke-miterlimit="10" stroke-dasharray="3"/></g><g><path fill="none" stroke="#000000" paint-order="fill stroke markers" d=" M 402.2535012424196 159.65207230662395 L 413 162 L 407.0613134482239 152.74084226078014" stroke-miterlimit="10" stroke-dasharray=""/></g><g><rect fill="#ffffff" stroke="none" x="1160" y="864" width="55.65625" height="13" transform="matrix(1 0 0 1 -776 -734)"/></g><g><g><path fill="none" stroke="none"/><text fill="#000000" stroke="none" font-family="Arial" font-size="13px" font-style="normal" font-weight="normal" text-decoration="undefined" x="1187.828125" y="870.5" text-anchor="middle" dominant-baseline="central" transform="matrix(1 0 0 1 -776 -734)">«include»</text></g></g><g><path fill="none" stroke="#000000" paint-order="fill stroke markers" d=" M 105 90 L 233 92" stroke-miterlimit="10" stroke-dasharray=""/></g><g><path fill="#C0C0C0" stroke="none" paint-order="stroke fill markers" d=" M 383 206 C 383 186.11774720000005 423.2943680000001 170 473 170 C 522.7056319999999 170 563 186.11774720000005 563 206 C 563 225.88225279999995 522.7056319999999 242 473 242 C 423.2943680000001 242 383 225.88225279999995 383 206 Z" fill-opacity="0.2"/></g><g><path fill="#ffffff" stroke="none" paint-order="stroke fill markers" d=" M 376 199 C 376 179.11774720000005 416.2943680000001 163 466 163 C 515.7056319999999 163 556 179.11774720000005 556 199 C 556 218.88225279999995 515.7056319999999 235 466 235 C 416.2943680000001 235 376 218.88225279999995 376 199 Z"/></g><g><path fill="none" stroke="#000000" paint-order="fill stroke markers" d=" M 376 199 C 376 179.11774720000005 416.2943680000001 163 466 163 C 515.7056319999999 163 556 179.11774720000005 556 199 C 556 218.88225279999995 515.7056319999999 235 466 235 C 416.2943680000001 235 376 218.88225279999995 376 199 Z" stroke-miterlimit="10" stroke-dasharray=""/></g><g><g><path fill="none" stroke="none"/><text fill="#000000" stroke="none" font-family="Arial" font-size="13px" font-style="normal" font-weight="bold" text-decoration="undefined" x="1242" y="921" text-anchor="middle" dominant-baseline="central" transform="matrix(1 0 0 1 -776 -734)">UC70.2 -</text><text fill="#000000" stroke="none" font-family="Arial" font-size="13px" font-style="normal" font-weight="bold" text-decoration="undefined" x="1242" y="934" text-anchor="middle" dominant-baseline="central" transform="matrix(1 0 0 1 -776 -734)">Inserimento nome</text><text fill="#000000" stroke="none" font-family="Arial" font-size="13px" font-style="normal" font-weight="bold" text-decoration="undefined" x="1242" y="947" text-anchor="middle" dominant-baseline="central" transform="matrix(1 0 0 1 -776 -734)">nuovo tenant</text></g></g><g><path fill="none" stroke="#000000" paint-order="fill stroke markers" d=" M 290 130 L 270 161" stroke-miterlimit="10" stroke-dasharray="3"/></g><g><path fill="none" stroke="#000000" paint-order="fill stroke markers" d=" M 271.9722154485628 150.17824569561617 L 270 161 L 279.04670277060404 154.7424310646751" stroke-miterlimit="10" stroke-dasharray=""/></g><g><rect fill="#ffffff" stroke="none" x="1000" y="863" width="55.65625" height="13" transform="matrix(1 0 0 1 -776 -734)"/></g><g><g><path fill="none" stroke="none"/><text fill="#000000" stroke="none" font-family="Arial" font-size="13px" font-style="normal" font-weight="normal" text-decoration="undefined" x="1027.828125" y="869.5" text-anchor="middle" dominant-baseline="central" transform="matrix(1 0 0 1 -776 -734)">«include»</text></g></g><g><path fill="#C0C0C0" stroke="none" paint-order="stroke fill markers" d=" M 167 200.5 C 167 183.10302879999995 207.29436799999996 169 257 169 C 306.7056319999999 169 347 183.10302879999995 347 200.5 C 347 217.89697120000005 306.7056319999999 232 257 232 C 207.29436799999996 232 167 217.89697120000005 167 200.5 Z" fill-opacity="0.2"/></g><g><path fill="#ffffff" stroke="none" paint-order="stroke fill markers" d=" M 160 193.5 C 160 176.10302879999995 200.29436799999996 162 250 162 C 299.7056319999999 162 340 176.10302879999995 340 193.5 C 340 210.89697120000005 299.7056319999999 225 250 225 C 200.29436799999996 225 160 210.89697120000005 160 193.5 Z"/></g><g><path fill="none" stroke="#000000" paint-order="fill stroke markers" d=" M 160 193.5 C 160 176.10302879999995 200.29436799999996 162 250 162 C 299.7056319999999 162 340 176.10302879999995 340 193.5 C 340 210.89697120000005 299.7056319999999 225 250 225 C 200.29436799999996 225 160 210.89697120000005 160 193.5 Z" stroke-miterlimit="10" stroke-dasharray=""/></g><g><g><path fill="none" stroke="none"/><text fill="#000000" stroke="none" font-family="Arial" font-size="13px" font-style="normal" font-weight="bold" text-decoration="undefined" x="1026" y="922" text-anchor="middle" dominant-baseline="central" transform="matrix(1 0 0 1 -776 -734)">UC70.1 Clausola</text><text fill="#000000" stroke="none" font-family="Arial" font-size="13px" font-style="normal" font-weight="bold" text-decoration="undefined" x="1026" y="935" text-anchor="middle" dominant-baseline="central" transform="matrix(1 0 0 1 -776 -734)">impersonificazione</text></g></g><g><path fill="#ffffff" stroke="none" paint-order="stroke fill markers" d=" M 592 138 L 701 138 L 711 148 L 711 227 L 592 227 L 592 138"/></g><g><path fill="none" stroke="#000000" paint-order="fill stroke markers" d=" M 592 138 L 701 138 L 711 148 L 711 227 L 592 227 L 592 138 L 592 138" stroke-miterlimit="10" stroke-dasharray=""/></g><g><path fill="none" stroke="#000000" paint-order="fill stroke markers" d=" M 701 138 L 701 148 L 711 148 L 701 138" stroke-miterlimit="10" stroke-dasharray=""/></g><g><g><path fill="none" stroke="none"/><text fill="#000000" stroke="none" font-family="Arial" font-size="13px" font-style="normal" font-weight="normal" text-decoration="undefined" x="1373" y="877" text-anchor="start" dominant-baseline="text-before-edge" transform="matrix(1 0 0 1 -776 -734)">Condizione: è</text><text fill="#000000" stroke="none" font-family="Arial" font-size="13px" font-style="normal" font-weight="normal" text-decoration="undefined" x="1373" y="890" text-anchor="start" dominant-baseline="text-before-edge" transform="matrix(1 0 0 1 -776 -734)">stato inserito un</text><text fill="#000000" stroke="none" font-family="Arial" font-size="13px" font-style="normal" font-weight="normal" text-decoration="undefined" x="1373" y="903" text-anchor="start" dominant-baseline="text-before-edge" transform="matrix(1 0 0 1 -776 -734)">nome di un tenant</text><text fill="#000000" stroke="none" font-family="Arial" font-size="13px" font-style="normal" font-weight="normal" text-decoration="undefined" x="1373" y="916" text-anchor="start" dominant-baseline="text-before-edge" transform="matrix(1 0 0 1 -776 -734)">già presente nel</text><text fill="#000000" stroke="none" font-family="Arial" font-size="13px" font-style="normal" font-weight="normal" text-decoration="undefined" x="1373" y="929" text-anchor="start" dominant-baseline="text-before-edge" transform="matrix(1 0 0 1 -776 -734)">Sistema</text></g></g><g><path fill="none" stroke="#000000" paint-order="fill stroke markers" d=" M 465 92 L 591 153" stroke-miterlimit="10" stroke-dasharray="3"/></g></g></svg>