<svg version="1.1" xmlns="http://www.w3.org/2000/svg" xmlns:xlink="http://www.w3.org/1999/xlink" width="727" height="284"><defs/><g><g><rect fill="#C0C0C0" stroke="none" x="223" y="159" width="576" height="264" transform="matrix(1 0 0 1 -76 -142)" fill-opacity="0.2"/></g><g><rect fill="#ffffff" stroke="none" x="216" y="152" width="576" height="264" transform="matrix(1 0 0 1 -76 -142)"/></g><g><path fill="none" stroke="#000000" paint-order="fill stroke markers" d=" M 140 10 L 716 10 L 716 274 L 140 274 L 140 10 Z Z" stroke-miterlimit="10" stroke-dasharray=""/></g><g><g><path fill="none" stroke="none"/><text fill="#000000" stroke="none" font-family="Arial" font-size="13px" font-style="normal" font-weight="bold" text-decoration="undefined" x="504.5" y="165.5" text-anchor="middle" dominant-baseline="central" transform="matrix(1 0 0 1 -76 -142)">Sistema cloud</text></g></g><g><path fill="#ffffff" stroke="none" paint-order="stroke fill markers" d=" M 47.930751953125 54.849999999999994 C 47.930751953125 49.96227952000001 51.888554321125 46 56.770751953125 46 C 61.652949585125015 46 65.610751953125 49.96227952000001 65.610751953125 54.849999999999994 C 65.610751953125 59.73772047999998 61.652949585125015 63.69999999999999 56.770751953125 63.69999999999999 C 51.888554321125 63.69999999999999 47.930751953125 59.73772047999998 47.930751953125 54.849999999999994 Z"/></g><g><path fill="none" stroke="#000000" paint-order="fill stroke markers" d=" M 47.930751953125 54.849999999999994 C 47.930751953125 49.96227952000001 51.888554321125 46 56.770751953125 46 C 61.652949585125015 46 65.610751953125 49.96227952000001 65.610751953125 54.849999999999994 C 65.610751953125 59.73772047999998 61.652949585125015 63.69999999999999 56.770751953125 63.69999999999999 C 51.888554321125 63.69999999999999 47.930751953125 59.73772047999998 47.930751953125 54.849999999999994 Z" stroke-miterlimit="10" stroke-dasharray=""/></g><g><path fill="none" stroke="#000000" paint-order="fill stroke markers" d=" M 56.770751953125 63.69999999999999 L 56.770751953125 81.30000000000001" stroke-miterlimit="10" stroke-dasharray=""/></g><g><path fill="none" stroke="#000000" paint-order="fill stroke markers" d=" M 47.410751953125 70.30000000000001 L 66.13075195312501 70.30000000000001" stroke-miterlimit="10" stroke-dasharray=""/></g><g><path fill="none" stroke="#000000" paint-order="fill stroke markers" d=" M 56.770751953125 81.30000000000001 L 43.770751953125 99" stroke-miterlimit="10" stroke-dasharray=""/></g><g><path fill="none" stroke="#000000" paint-order="fill stroke markers" d=" M 56.770751953125 81.30000000000001 L 69.770751953125 99" stroke-miterlimit="10" stroke-dasharray=""/></g><g><g><path fill="none" stroke="none"/><text fill="#000000" stroke="none" font-family="Arial" font-size="13px" font-style="normal" font-weight="bold" text-decoration="undefined" x="133.270751953125" y="255.5" text-anchor="middle" dominant-baseline="central" transform="matrix(1 0 0 1 -76 -142)">Super Admin</text></g></g><g><path fill="#C0C0C0" stroke="none" paint-order="stroke fill markers" d=" M 205 91 C 205 71.1177472 247.9806592 55 301 55 C 354.0193408 55 397 71.1177472 397 91 C 397 110.8822528 354.0193408 127 301 127 C 247.9806592 127 205 110.8822528 205 91 Z" fill-opacity="0.2"/></g><g><path fill="#ffffff" stroke="none" paint-order="stroke fill markers" d=" M 198 84 C 198 64.1177472 240.9806592 48 294 48 C 347.0193408 48 390 64.1177472 390 84 C 390 103.8822528 347.0193408 120 294 120 C 240.9806592 120 198 103.8822528 198 84 Z"/></g><g><path fill="none" stroke="#000000" paint-order="fill stroke markers" d=" M 198 84 C 198 64.1177472 240.9806592 48 294 48 C 347.0193408 48 390 64.1177472 390 84 C 390 103.8822528 347.0193408 120 294 120 C 240.9806592 120 198 103.8822528 198 84 Z" stroke-miterlimit="10" stroke-dasharray=""/></g><g><g><path fill="none" stroke="none"/><text fill="#000000" stroke="none" font-family="Arial" font-size="13px" font-style="normal" font-weight="bold" text-decoration="undefined" x="370" y="220.5" text-anchor="middle" dominant-baseline="central" transform="matrix(1 0 0 1 -76 -142)">UC72 - Eliminazione</text><text fill="#000000" stroke="none" font-family="Arial" font-size="13px" font-style="normal" font-weight="bold" text-decoration="undefined" x="370" y="233.5" text-anchor="middle" dominant-baseline="central" transform="matrix(1 0 0 1 -76 -142)">Tenant</text></g></g><g><path fill="#C0C0C0" stroke="none" paint-order="stroke fill markers" d=" M 203 213 C 203 193.1177472 245.9806592 177 299 177 C 352.0193408 177 395 193.1177472 395 213 C 395 232.8822528 352.0193408 249 299 249 C 245.9806592 249 203 232.8822528 203 213 Z" fill-opacity="0.2"/></g><g><path fill="#ffffff" stroke="none" paint-order="stroke fill markers" d=" M 196 206 C 196 186.1177472 238.9806592 170 292 170 C 345.0193408 170 388 186.1177472 388 206 C 388 225.8822528 345.0193408 242 292 242 C 238.9806592 242 196 225.8822528 196 206 Z"/></g><g><path fill="none" stroke="#000000" paint-order="fill stroke markers" d=" M 196 206 C 196 186.1177472 238.9806592 170 292 170 C 345.0193408 170 388 186.1177472 388 206 C 388 225.8822528 345.0193408 242 292 242 C 238.9806592 242 196 225.8822528 196 206 Z" stroke-miterlimit="10" stroke-dasharray=""/></g><g><g><path fill="none" stroke="none"/><text fill="#000000" stroke="none" font-family="Arial" font-size="13px" font-style="normal" font-weight="bold" text-decoration="undefined" x="368" y="336" text-anchor="middle" dominant-baseline="central" transform="matrix(1 0 0 1 -76 -142)">UC73 -</text><text fill="#000000" stroke="none" font-family="Arial" font-size="13px" font-style="normal" font-weight="bold" text-decoration="undefined" x="368" y="349" text-anchor="middle" dominant-baseline="central" transform="matrix(1 0 0 1 -76 -142)">Decommissioning</text><text fill="#000000" stroke="none" font-family="Arial" font-size="13px" font-style="normal" font-weight="bold" text-decoration="undefined" x="368" y="362" text-anchor="middle" dominant-baseline="central" transform="matrix(1 0 0 1 -76 -142)">Gateway fallito</text></g></g><g><path fill="none" stroke="#000000" paint-order="fill stroke markers" d=" M 391 85 L 467 85" stroke-miterlimit="10" stroke-dasharray="3"/></g><g><path fill="none" stroke="#000000" paint-order="fill stroke markers" d=" M 456.8373251423759 89.209517756016 L 467 85 L 456.8373251423758 80.790482243984" stroke-miterlimit="10" stroke-dasharray=""/></g><g><rect fill="#ffffff" stroke="none" x="478" y="191" width="55.65625" height="13" transform="matrix(1 0 0 1 -76 -142)"/></g><g><g><path fill="none" stroke="none"/><text fill="#000000" stroke="none" font-family="Arial" font-size="13px" font-style="normal" font-weight="normal" text-decoration="undefined" x="505.828125" y="197.5" text-anchor="middle" dominant-baseline="central" transform="matrix(1 0 0 1 -76 -142)">«include»</text></g></g><g><path fill="none" stroke="#000000" paint-order="fill stroke markers" d=" M 105 85 L 197 84" stroke-miterlimit="10" stroke-dasharray=""/></g><g><path fill="none" stroke="#000000" paint-order="fill stroke markers" d=" M 293 169 L 293 121" stroke-miterlimit="10" stroke-dasharray="3"/></g><g><path fill="none" stroke="#000000" paint-order="fill stroke markers" d=" M 297.209517756016 131.16267485762415 L 293 121 L 288.790482243984 131.16267485762415" stroke-miterlimit="10" stroke-dasharray=""/></g><g><rect fill="#ffffff" stroke="none" x="313" y="280" width="53.49169921875" height="13" transform="matrix(1 0 0 1 -76 -142)"/></g><g><g><path fill="none" stroke="none"/><text fill="#000000" stroke="none" font-family="Arial" font-size="13px" font-style="normal" font-weight="normal" text-decoration="undefined" x="339.745849609375" y="286.5" text-anchor="middle" dominant-baseline="central" transform="matrix(1 0 0 1 -76 -142)">«extend»</text></g></g><g><path fill="#ffffff" stroke="none" paint-order="stroke fill markers" d=" M 412 146 L 521.4326171875 146 L 531.4326171875 156 L 531.4326171875 233 L 412 233 L 412 146"/></g><g><path fill="none" stroke="#000000" paint-order="fill stroke markers" d=" M 412 146 L 521.4326171875 146 L 531.4326171875 156 L 531.4326171875 233 L 412 233 L 412 146 L 412 146" stroke-miterlimit="10" stroke-dasharray=""/></g><g><path fill="none" stroke="#000000" paint-order="fill stroke markers" d=" M 521.4326171875 146 L 521.4326171875 156 L 531.4326171875 156 L 521.4326171875 146" stroke-miterlimit="10" stroke-dasharray=""/></g><g><g><path fill="none" stroke="none"/><text fill="#000000" stroke="none" font-family="Arial" font-size="13px" font-style="normal" font-weight="normal" text-decoration="undefined" x="493" y="293" text-anchor="start" dominant-baseline="text-before-edge" transform="matrix(1 0 0 1 -76 -142)">Condizione: è</text><text fill="#000000" stroke="none" font-family="Arial" font-size="13px" font-style="normal" font-weight="normal" text-decoration="undefined" x="493" y="306" text-anchor="start" dominant-baseline="text-before-edge" transform="matrix(1 0 0 1 -76 -142)">impossibile</text><text fill="#000000" stroke="none" font-family="Arial" font-size="13px" font-style="normal" font-weight="normal" text-decoration="undefined" x="493" y="319" text-anchor="start" dominant-baseline="text-before-edge" transform="matrix(1 0 0 1 -76 -142)">eseguire il</text><text fill="#000000" stroke="none" font-family="Arial" font-size="13px" font-style="normal" font-weight="normal" text-decoration="undefined" x="493" y="332" text-anchor="start" dominant-baseline="text-before-edge" transform="matrix(1 0 0 1 -76 -142)">decommissioning</text><text fill="#000000" stroke="none" font-family="Arial" font-size="13px" font-style="normal" font-weight="normal" text-decoration="undefined" x="493" y="345" text-anchor="start" dominant-baseline="text-before-edge" transform="matrix(1 0 0 1 -76 -142)">del gateway</text></g></g><g><path fill="none" stroke="#000000" paint-order="fill stroke markers" d=" M 411 175 L 293 145" stroke-miterlimit="10" stroke-dasharray="3"/></g><g><path fill="#C0C0C0" stroke="none" paint-order="stroke fill markers" d=" M 475 93 C 475 73.1177472 525.1441024 57 587 57 C 648.8558976 57 699 73.1177472 699 93 C 699 112.8822528 648.8558976 129 587 129 C 525.1441024 129 475 112.8822528 475 93 Z" fill-opacity="0.2"/></g><g><path fill="#ffffff" stroke="none" paint-order="stroke fill markers" d=" M 468 86 C 468 66.1177472 518.1441024 50 580 50 C 641.8558976 50 692 66.1177472 692 86 C 692 105.8822528 641.8558976 122 580 122 C 518.1441024 122 468 105.8822528 468 86 Z"/></g><g><path fill="none" stroke="#000000" paint-order="fill stroke markers" d=" M 468 86 C 468 66.1177472 518.1441024 50 580 50 C 641.8558976 50 692 66.1177472 692 86 C 692 105.8822528 641.8558976 122 580 122 C 518.1441024 122 468 105.8822528 468 86 Z" stroke-miterlimit="10" stroke-dasharray=""/></g><g><g><path fill="none" stroke="none"/><text fill="#000000" stroke="none" font-family="Arial" font-size="13px" font-style="normal" font-weight="bold" text-decoration="undefined" x="656" y="216" text-anchor="middle" dominant-baseline="central" transform="matrix(1 0 0 1 -76 -142)">UC72.1 - Selezione e</text><text fill="#000000" stroke="none" font-family="Arial" font-size="13px" font-style="normal" font-weight="bold" text-decoration="undefined" x="656" y="229" text-anchor="middle" dominant-baseline="central" transform="matrix(1 0 0 1 -76 -142)">conferma tenant da</text><text fill="#000000" stroke="none" font-family="Arial" font-size="13px" font-style="normal" font-weight="bold" text-decoration="undefined" x="656" y="242" text-anchor="middle" dominant-baseline="central" transform="matrix(1 0 0 1 -76 -142)">eliminare</text></g></g></g></svg>