<svg version="1.1" xmlns="http://www.w3.org/2000/svg" xmlns:xlink="http://www.w3.org/1999/xlink" width="765" height="268"><defs/><g><g><rect fill="#C0C0C0" stroke="none" x="161" y="29" width="616" height="248" transform="matrix(1 0 0 1 -16 -12)" fill-opacity="0.2"/></g><g><rect fill="#ffffff" stroke="none" x="154" y="22" width="616" height="248" transform="matrix(1 0 0 1 -16 -12)"/></g><g><path fill="none" stroke="#000000" paint-order="fill stroke markers" d=" M 138 10 L 754 10 L 754 258 L 138 258 L 138 10 Z Z" stroke-miterlimit="10" stroke-dasharray=""/></g><g><g><path fill="none" stroke="none"/><text fill="#000000" stroke="none" font-family="Arial" font-size="13px" font-style="normal" font-weight="bold" text-decoration="undefined" x="462.5" y="35.5" text-anchor="middle" dominant-baseline="central" transform="matrix(1 0 0 1 -16 -12)">Sistema cloud</text></g></g><g><path fill="#ffffff" stroke="none" paint-order="stroke fill markers" d=" M 47.930751953125 67.85 C 47.930751953125 62.962279519999996 51.888554321125 59 56.770751953125 59 C 61.652949585125 59 65.610751953125 62.962279519999996 65.610751953125 67.85 C 65.610751953125 72.73772048 61.652949585125 76.7 56.770751953125 76.7 C 51.888554321125 76.7 47.930751953125 72.73772048 47.930751953125 67.85 Z"/></g><g><path fill="none" stroke="#000000" paint-order="fill stroke markers" d=" M 47.930751953125 67.85 C 47.930751953125 62.962279519999996 51.888554321125 59 56.770751953125 59 C 61.652949585125 59 65.610751953125 62.962279519999996 65.610751953125 67.85 C 65.610751953125 72.73772048 61.652949585125 76.7 56.770751953125 76.7 C 51.888554321125 76.7 47.930751953125 72.73772048 47.930751953125 67.85 Z" stroke-miterlimit="10" stroke-dasharray=""/></g><g><path fill="none" stroke="#000000" paint-order="fill stroke markers" d=" M 56.770751953125 76.7 L 56.770751953125 94.3" stroke-miterlimit="10" stroke-dasharray=""/></g><g><path fill="none" stroke="#000000" paint-order="fill stroke markers" d=" M 47.410751953125 83.3 L 66.130751953125 83.3" stroke-miterlimit="10" stroke-dasharray=""/></g><g><path fill="none" stroke="#000000" paint-order="fill stroke markers" d=" M 56.770751953125 94.3 L 43.770751953125 112" stroke-miterlimit="10" stroke-dasharray=""/></g><g><path fill="none" stroke="#000000" paint-order="fill stroke markers" d=" M 56.770751953125 94.3 L 69.770751953125 112" stroke-miterlimit="10" stroke-dasharray=""/></g><g><g><path fill="none" stroke="none"/><text fill="#000000" stroke="none" font-family="Arial" font-size="13px" font-style="normal" font-weight="bold" text-decoration="undefined" x="73.270751953125" y="138.5" text-anchor="middle" dominant-baseline="central" transform="matrix(1 0 0 1 -16 -12)">Tenant admin</text></g></g><g><path fill="#C0C0C0" stroke="none" paint-order="stroke fill markers" d=" M 241 109 C 241 89.1177472 276.81721600000003 73 321 73 C 365.18278399999997 73 401 89.1177472 401 109 C 401 128.8822528 365.18278399999997 145 321 145 C 276.81721600000003 145 241 128.8822528 241 109 Z" fill-opacity="0.2"/></g><g><path fill="#ffffff" stroke="none" paint-order="stroke fill markers" d=" M 234 102 C 234 82.1177472 269.81721600000003 66 314 66 C 358.18278399999997 66 394 82.1177472 394 102 C 394 121.8822528 358.18278399999997 138 314 138 C 269.81721600000003 138 234 121.8822528 234 102 Z"/></g><g><path fill="none" stroke="#000000" paint-order="fill stroke markers" d=" M 234 102 C 234 82.1177472 269.81721600000003 66 314 66 C 358.18278399999997 66 394 82.1177472 394 102 C 394 121.8822528 358.18278399999997 138 314 138 C 269.81721600000003 138 234 121.8822528 234 102 Z" stroke-miterlimit="10" stroke-dasharray=""/></g><g><g><path fill="none" stroke="none"/><text fill="#000000" stroke="none" font-family="Arial" font-size="13px" font-style="normal" font-weight="bold" text-decoration="undefined" x="330" y="102" text-anchor="middle" dominant-baseline="central" transform="matrix(1 0 0 1 -16 -12)">UC72 -</text><text fill="#000000" stroke="none" font-family="Arial" font-size="13px" font-style="normal" font-weight="bold" text-decoration="undefined" x="330" y="115" text-anchor="middle" dominant-baseline="central" transform="matrix(1 0 0 1 -16 -12)">Creazione</text><text fill="#000000" stroke="none" font-family="Arial" font-size="13px" font-style="normal" font-weight="bold" text-decoration="undefined" x="330" y="128" text-anchor="middle" dominant-baseline="central" transform="matrix(1 0 0 1 -16 -12)">Tenant</text></g></g><g><path fill="#C0C0C0" stroke="none" paint-order="stroke fill markers" d=" M 230 219.5 C 230 204.8644528 270.294368 193 320 193 C 369.705632 193 410 204.8644528 410 219.5 C 410 234.1355472 369.705632 246 320 246 C 270.294368 246 230 234.1355472 230 219.5 Z" fill-opacity="0.2"/></g><g><path fill="#ffffff" stroke="none" paint-order="stroke fill markers" d=" M 223 212.5 C 223 197.8644528 263.294368 186 313 186 C 362.705632 186 403 197.8644528 403 212.5 C 403 227.1355472 362.705632 239 313 239 C 263.294368 239 223 227.1355472 223 212.5 Z"/></g><g><path fill="none" stroke="#000000" paint-order="fill stroke markers" d=" M 223 212.5 C 223 197.8644528 263.294368 186 313 186 C 362.705632 186 403 197.8644528 403 212.5 C 403 227.1355472 362.705632 239 313 239 C 263.294368 239 223 227.1355472 223 212.5 Z" stroke-miterlimit="10" stroke-dasharray=""/></g><g><g><path fill="none" stroke="none"/><text fill="#000000" stroke="none" font-family="Arial" font-size="13px" font-style="normal" font-weight="bold" text-decoration="undefined" x="329" y="219" text-anchor="middle" dominant-baseline="central" transform="matrix(1 0 0 1 -16 -12)">UC72.1 - Clausola</text><text fill="#000000" stroke="none" font-family="Arial" font-size="13px" font-style="normal" font-weight="bold" text-decoration="undefined" x="329" y="232" text-anchor="middle" dominant-baseline="central" transform="matrix(1 0 0 1 -16 -12)">impersonificazione</text></g></g><g><path fill="#C0C0C0" stroke="none" paint-order="stroke fill markers" d=" M 497 110.5 C 497 95.8644528 541.77152 84 597 84 C 652.22848 84 697 95.8644528 697 110.5 C 697 125.13554719999999 652.22848 137 597 137 C 541.77152 137 497 125.13554719999999 497 110.5 Z" fill-opacity="0.2"/></g><g><path fill="#ffffff" stroke="none" paint-order="stroke fill markers" d=" M 490 103.5 C 490 88.8644528 534.77152 77 590 77 C 645.22848 77 690 88.8644528 690 103.5 C 690 118.13554719999999 645.22848 130 590 130 C 534.77152 130 490 118.13554719999999 490 103.5 Z"/></g><g><path fill="none" stroke="#000000" paint-order="fill stroke markers" d=" M 490 103.5 C 490 88.8644528 534.77152 77 590 77 C 645.22848 77 690 88.8644528 690 103.5 C 690 118.13554719999999 645.22848 130 590 130 C 534.77152 130 490 118.13554719999999 490 103.5 Z" stroke-miterlimit="10" stroke-dasharray=""/></g><g><g><path fill="none" stroke="none"/><text fill="#000000" stroke="none" font-family="Arial" font-size="13px" font-style="normal" font-weight="bold" text-decoration="undefined" x="606" y="110" text-anchor="middle" dominant-baseline="central" transform="matrix(1 0 0 1 -16 -12)">UC73 - Nome del</text><text fill="#000000" stroke="none" font-family="Arial" font-size="13px" font-style="normal" font-weight="bold" text-decoration="undefined" x="606" y="123" text-anchor="middle" dominant-baseline="central" transform="matrix(1 0 0 1 -16 -12)">tenant già utilizzato</text></g></g><g><path fill="none" stroke="#000000" paint-order="fill stroke markers" d=" M 395 102 L 489 103" stroke-miterlimit="10" stroke-dasharray="3"/></g><g><path fill="none" stroke="#000000" paint-order="fill stroke markers" d=" M 478.7931205957769 107.10117212850736 L 489 103 L 478.88267973563967 98.68261298140133" stroke-miterlimit="10" stroke-dasharray=""/></g><g><rect fill="#ffffff" stroke="none" x="432" y="78" width="53.49169921875" height="13" transform="matrix(1 0 0 1 -16 -12)"/></g><g><g><path fill="none" stroke="none"/><text fill="#000000" stroke="none" font-family="Arial" font-size="13px" font-style="normal" font-weight="normal" text-decoration="undefined" x="458.745849609375" y="84.5" text-anchor="middle" dominant-baseline="central" transform="matrix(1 0 0 1 -16 -12)">«extend»</text></g></g><g><path fill="none" stroke="#000000" paint-order="fill stroke markers" d=" M 314 139 L 313 185" stroke-miterlimit="10" stroke-dasharray="3"/></g><g><path fill="none" stroke="#000000" paint-order="fill stroke markers" d=" M 309.0123521078249 174.74823604017186 L 313 185 L 317.42939894957703 174.9312153193404" stroke-miterlimit="10" stroke-dasharray=""/></g><g><rect fill="#ffffff" stroke="none" x="331" y="167" width="55.65625" height="13" transform="matrix(1 0 0 1 -16 -12)"/></g><g><g><path fill="none" stroke="none"/><text fill="#000000" stroke="none" font-family="Arial" font-size="13px" font-style="normal" font-weight="normal" text-decoration="undefined" x="358.828125" y="173.5" text-anchor="middle" dominant-baseline="central" transform="matrix(1 0 0 1 -16 -12)">«include»</text></g></g><g><path fill="none" stroke="#000000" paint-order="fill stroke markers" d=" M 105 99 L 233 101" stroke-miterlimit="10" stroke-dasharray=""/></g></g></svg>