<svg version="1.1" xmlns="http://www.w3.org/2000/svg" xmlns:xlink="http://www.w3.org/1999/xlink" width="844" height="460"><defs/><g><g><rect fill="#C0C0C0" stroke="none" x="177" y="29" width="688" height="440" transform="matrix(1 0 0 1 -25 -12)" fill-opacity="0.2"/></g><g><rect fill="#ffffff" stroke="none" x="170" y="22" width="688" height="440" transform="matrix(1 0 0 1 -25 -12)"/></g><g><path fill="none" stroke="#000000" paint-order="fill stroke markers" d=" M 145 10 L 833 10 L 833 450 L 145 450 L 145 10 Z Z" stroke-miterlimit="10" stroke-dasharray=""/></g><g><g><path fill="none" stroke="none"/><text fill="#000000" stroke="none" font-family="Arial" font-size="13px" font-style="normal" font-weight="bold" text-decoration="undefined" x="514.5" y="35.5" text-anchor="middle" dominant-baseline="central" transform="matrix(1 0 0 1 -25 -12)">Sistema cloud</text></g></g><g><path fill="#ffffff" stroke="none" paint-order="stroke fill markers" d=" M 47.930751953125 191.85 C 47.930751953125 186.96227952 51.888554321125 183 56.770751953125 183 C 61.652949585125 183 65.610751953125 186.96227952 65.610751953125 191.85 C 65.610751953125 196.73772047999998 61.652949585125 200.7 56.770751953125 200.7 C 51.888554321125 200.7 47.930751953125 196.73772047999998 47.930751953125 191.85 Z"/></g><g><path fill="none" stroke="#000000" paint-order="fill stroke markers" d=" M 47.930751953125 191.85 C 47.930751953125 186.96227952 51.888554321125 183 56.770751953125 183 C 61.652949585125 183 65.610751953125 186.96227952 65.610751953125 191.85 C 65.610751953125 196.73772047999998 61.652949585125 200.7 56.770751953125 200.7 C 51.888554321125 200.7 47.930751953125 196.73772047999998 47.930751953125 191.85 Z" stroke-miterlimit="10" stroke-dasharray=""/></g><g><path fill="none" stroke="#000000" paint-order="fill stroke markers" d=" M 56.770751953125 200.7 L 56.770751953125 218.3" stroke-miterlimit="10" stroke-dasharray=""/></g><g><path fill="none" stroke="#000000" paint-order="fill stroke markers" d=" M 47.410751953125 207.3 L 66.130751953125 207.3" stroke-miterlimit="10" stroke-dasharray=""/></g><g><path fill="none" stroke="#000000" paint-order="fill stroke markers" d=" M 56.770751953125 218.3 L 43.770751953125 236" stroke-miterlimit="10" stroke-dasharray=""/></g><g><path fill="none" stroke="#000000" paint-order="fill stroke markers" d=" M 56.770751953125 218.3 L 69.770751953125 236" stroke-miterlimit="10" stroke-dasharray=""/></g><g><g><path fill="none" stroke="none"/><text fill="#000000" stroke="none" font-family="Arial" font-size="13px" font-style="normal" font-weight="bold" text-decoration="undefined" x="82.270751953125" y="262.5" text-anchor="middle" dominant-baseline="central" transform="matrix(1 0 0 1 -25 -12)">Super Admin</text></g></g><g><path fill="#C0C0C0" stroke="none" paint-order="stroke fill markers" d=" M 264 229 C 264 209.1177472 312.3532416 193 372 193 C 431.6467584 193 480 209.1177472 480 229 C 480 248.8822528 431.6467584 265 372 265 C 312.3532416 265 264 248.8822528 264 229 Z" fill-opacity="0.2"/></g><g><path fill="#ffffff" stroke="none" paint-order="stroke fill markers" d=" M 257 222 C 257 202.1177472 305.3532416 186 365 186 C 424.6467584 186 473 202.1177472 473 222 C 473 241.8822528 424.6467584 258 365 258 C 305.3532416 258 257 241.8822528 257 222 Z"/></g><g><path fill="none" stroke="#000000" paint-order="fill stroke markers" d=" M 257 222 C 257 202.1177472 305.3532416 186 365 186 C 424.6467584 186 473 202.1177472 473 222 C 473 241.8822528 424.6467584 258 365 258 C 305.3532416 258 257 241.8822528 257 222 Z" stroke-miterlimit="10" stroke-dasharray=""/></g><g><g><path fill="none" stroke="none"/><text fill="#000000" stroke="none" font-family="Arial" font-size="13px" font-style="normal" font-weight="bold" text-decoration="undefined" x="390" y="222" text-anchor="middle" dominant-baseline="central" transform="matrix(1 0 0 1 -25 -12)">UC74 - Visualizzazione</text><text fill="#000000" stroke="none" font-family="Arial" font-size="13px" font-style="normal" font-weight="bold" text-decoration="undefined" x="390" y="235" text-anchor="middle" dominant-baseline="central" transform="matrix(1 0 0 1 -25 -12)">dashboard Super</text><text fill="#000000" stroke="none" font-family="Arial" font-size="13px" font-style="normal" font-weight="bold" text-decoration="undefined" x="390" y="248" text-anchor="middle" dominant-baseline="central" transform="matrix(1 0 0 1 -25 -12)">Admin</text></g></g><g><path fill="#C0C0C0" stroke="none" paint-order="stroke fill markers" d=" M 251 97.5 C 251 82.8644528 306.5166848 71 375 71 C 443.4833152 71 499 82.8644528 499 97.5 C 499 112.1355472 443.4833152 124 375 124 C 306.5166848 124 251 112.1355472 251 97.5 Z" fill-opacity="0.2"/></g><g><path fill="#ffffff" stroke="none" paint-order="stroke fill markers" d=" M 244 90.5 C 244 75.8644528 299.5166848 64 368 64 C 436.4833152 64 492 75.8644528 492 90.5 C 492 105.1355472 436.4833152 117 368 117 C 299.5166848 117 244 105.1355472 244 90.5 Z"/></g><g><path fill="none" stroke="#000000" paint-order="fill stroke markers" d=" M 244 90.5 C 244 75.8644528 299.5166848 64 368 64 C 436.4833152 64 492 75.8644528 492 90.5 C 492 105.1355472 436.4833152 117 368 117 C 299.5166848 117 244 105.1355472 244 90.5 Z" stroke-miterlimit="10" stroke-dasharray=""/></g><g><g><path fill="none" stroke="none"/><text fill="#000000" stroke="none" font-family="Arial" font-size="13px" font-style="normal" font-weight="bold" text-decoration="undefined" x="393" y="97" text-anchor="middle" dominant-baseline="central" transform="matrix(1 0 0 1 -25 -12)">UC74.1 - Visualizzazione</text><text fill="#000000" stroke="none" font-family="Arial" font-size="13px" font-style="normal" font-weight="bold" text-decoration="undefined" x="393" y="110" text-anchor="middle" dominant-baseline="central" transform="matrix(1 0 0 1 -25 -12)">stato globale dei gateway</text></g></g><g><path fill="#C0C0C0" stroke="none" paint-order="stroke fill markers" d=" M 566 162 C 566 142.1177472 623.7552608 126 695 126 C 766.2447392 126 824 142.1177472 824 162 C 824 181.8822528 766.2447392 198 695 198 C 623.7552608 198 566 181.8822528 566 162 Z" fill-opacity="0.2"/></g><g><path fill="#ffffff" stroke="none" paint-order="stroke fill markers" d=" M 559 155 C 559 135.1177472 616.7552608 119 688 119 C 759.2447392 119 817 135.1177472 817 155 C 817 174.8822528 759.2447392 191 688 191 C 616.7552608 191 559 174.8822528 559 155 Z"/></g><g><path fill="none" stroke="#000000" paint-order="fill stroke markers" d=" M 559 155 C 559 135.1177472 616.7552608 119 688 119 C 759.2447392 119 817 135.1177472 817 155 C 817 174.8822528 759.2447392 191 688 191 C 616.7552608 191 559 174.8822528 559 155 Z" stroke-miterlimit="10" stroke-dasharray=""/></g><g><g><path fill="none" stroke="none"/><text fill="#000000" stroke="none" font-family="Arial" font-size="13px" font-style="normal" font-weight="bold" text-decoration="undefined" x="713" y="161.5" text-anchor="middle" dominant-baseline="central" transform="matrix(1 0 0 1 -25 -12)">UC74.2 - Visualizzazione</text><text fill="#000000" stroke="none" font-family="Arial" font-size="13px" font-style="normal" font-weight="bold" text-decoration="undefined" x="713" y="174.5" text-anchor="middle" dominant-baseline="central" transform="matrix(1 0 0 1 -25 -12)">numero di tenant</text></g></g><g><path fill="#C0C0C0" stroke="none" paint-order="stroke fill markers" d=" M 570 286 C 570 266.1177472 627.3075456 250 698 250 C 768.6924544 250 826 266.1177472 826 286 C 826 305.8822528 768.6924544 322 698 322 C 627.3075456 322 570 305.8822528 570 286 Z" fill-opacity="0.2"/></g><g><path fill="#ffffff" stroke="none" paint-order="stroke fill markers" d=" M 563 279 C 563 259.1177472 620.3075456 243 691 243 C 761.6924544 243 819 259.1177472 819 279 C 819 298.8822528 761.6924544 315 691 315 C 620.3075456 315 563 298.8822528 563 279 Z"/></g><g><path fill="none" stroke="#000000" paint-order="fill stroke markers" d=" M 563 279 C 563 259.1177472 620.3075456 243 691 243 C 761.6924544 243 819 259.1177472 819 279 C 819 298.8822528 761.6924544 315 691 315 C 620.3075456 315 563 298.8822528 563 279 Z" stroke-miterlimit="10" stroke-dasharray=""/></g><g><g><path fill="none" stroke="none"/><text fill="#000000" stroke="none" font-family="Arial" font-size="13px" font-style="normal" font-weight="bold" text-decoration="undefined" x="716" y="279" text-anchor="middle" dominant-baseline="central" transform="matrix(1 0 0 1 -25 -12)">UC98 - Visualizzazione</text><text fill="#000000" stroke="none" font-family="Arial" font-size="13px" font-style="normal" font-weight="bold" text-decoration="undefined" x="716" y="292" text-anchor="middle" dominant-baseline="central" transform="matrix(1 0 0 1 -25 -12)">lista richieste in corso di</text><text fill="#000000" stroke="none" font-family="Arial" font-size="13px" font-style="normal" font-weight="bold" text-decoration="undefined" x="716" y="305" text-anchor="middle" dominant-baseline="central" transform="matrix(1 0 0 1 -25 -12)">commissioning Gateway</text></g></g><g><path fill="#C0C0C0" stroke="none" paint-order="stroke fill markers" d=" M 252 390 C 252 365.147184 305.725824 345 372 345 C 438.274176 345 492 365.147184 492 390 C 492 414.852816 438.274176 435 372 435 C 305.725824 435 252 414.852816 252 390 Z" fill-opacity="0.2"/></g><g><path fill="#ffffff" stroke="none" paint-order="stroke fill markers" d=" M 245 383 C 245 358.147184 298.725824 338 365 338 C 431.274176 338 485 358.147184 485 383 C 485 407.852816 431.274176 428 365 428 C 298.725824 428 245 407.852816 245 383 Z"/></g><g><path fill="none" stroke="#000000" paint-order="fill stroke markers" d=" M 245 383 C 245 358.147184 298.725824 338 365 338 C 431.274176 338 485 358.147184 485 383 C 485 407.852816 431.274176 428 365 428 C 298.725824 428 245 407.852816 245 383 Z" stroke-miterlimit="10" stroke-dasharray=""/></g><g><g><path fill="none" stroke="none"/><text fill="#000000" stroke="none" font-family="Arial" font-size="13px" font-style="normal" font-weight="bold" text-decoration="undefined" x="390" y="376.5" text-anchor="middle" dominant-baseline="central" transform="matrix(1 0 0 1 -25 -12)">UC100 - Visualizzazione</text><text fill="#000000" stroke="none" font-family="Arial" font-size="13px" font-style="normal" font-weight="bold" text-decoration="undefined" x="390" y="389.5" text-anchor="middle" dominant-baseline="central" transform="matrix(1 0 0 1 -25 -12)">lista richieste in corso di</text><text fill="#000000" stroke="none" font-family="Arial" font-size="13px" font-style="normal" font-weight="bold" text-decoration="undefined" x="390" y="402.5" text-anchor="middle" dominant-baseline="central" transform="matrix(1 0 0 1 -25 -12)">decommissioning</text><text fill="#000000" stroke="none" font-family="Arial" font-size="13px" font-style="normal" font-weight="bold" text-decoration="undefined" x="390" y="415.5" text-anchor="middle" dominant-baseline="central" transform="matrix(1 0 0 1 -25 -12)">Gateway</text></g></g><g><path fill="none" stroke="#000000" paint-order="fill stroke markers" d=" M 366 185 L 367 118" stroke-miterlimit="10" stroke-dasharray="3"/></g><g><path fill="none" stroke="#000000" paint-order="fill stroke markers" d=" M 371.0573841417226 128.22436471994706 L 367 118 L 362.6392862136918 128.09872146728986" stroke-miterlimit="10" stroke-dasharray=""/></g><g><rect fill="#ffffff" stroke="none" x="334" y="156" width="55.65625" height="13" transform="matrix(1 0 0 1 -25 -12)"/></g><g><g><path fill="none" stroke="none"/><text fill="#000000" stroke="none" font-family="Arial" font-size="13px" font-style="normal" font-weight="normal" text-decoration="undefined" x="361.828125" y="162.5" text-anchor="middle" dominant-baseline="central" transform="matrix(1 0 0 1 -25 -12)">«include»</text></g></g><g><path fill="none" stroke="#000000" paint-order="fill stroke markers" d=" M 474 199 L 558 182" stroke-miterlimit="10" stroke-dasharray="3"/></g><g><path fill="none" stroke="#000000" paint-order="fill stroke markers" d=" M 548.8742621579481 188.14173500227275 L 558 182 L 547.2042664201966 179.88999135691225" stroke-miterlimit="10" stroke-dasharray=""/></g><g><rect fill="#ffffff" stroke="none" x="508" y="166" width="55.65625" height="13" transform="matrix(1 0 0 1 -25 -12)"/></g><g><g><path fill="none" stroke="none"/><text fill="#000000" stroke="none" font-family="Arial" font-size="13px" font-style="normal" font-weight="normal" text-decoration="undefined" x="535.828125" y="172.5" text-anchor="middle" dominant-baseline="central" transform="matrix(1 0 0 1 -25 -12)">«include»</text></g></g><g><path fill="none" stroke="#000000" paint-order="fill stroke markers" d=" M 474 241 L 562 256" stroke-miterlimit="10" stroke-dasharray="3"/></g><g><path fill="none" stroke="#000000" paint-order="fill stroke markers" d=" M 551.2744915693739 258.4420214791376 L 562 256 L 552.6891503093294 250.14269020473228" stroke-miterlimit="10" stroke-dasharray=""/></g><g><rect fill="#ffffff" stroke="none" x="521" y="224" width="55.65625" height="13" transform="matrix(1 0 0 1 -25 -12)"/></g><g><g><path fill="none" stroke="none"/><text fill="#000000" stroke="none" font-family="Arial" font-size="13px" font-style="normal" font-weight="normal" text-decoration="undefined" x="548.828125" y="230.5" text-anchor="middle" dominant-baseline="central" transform="matrix(1 0 0 1 -25 -12)">«include»</text></g></g><g><path fill="none" stroke="#000000" paint-order="fill stroke markers" d=" M 365 259 L 365 337" stroke-miterlimit="10" stroke-dasharray="3"/></g><g><path fill="none" stroke="#000000" paint-order="fill stroke markers" d=" M 360.790482243984 326.83732514237585 L 365 337 L 369.209517756016 326.83732514237585" stroke-miterlimit="10" stroke-dasharray=""/></g><g><rect fill="#ffffff" stroke="none" x="392" y="303" width="55.65625" height="13" transform="matrix(1 0 0 1 -25 -12)"/></g><g><g><path fill="none" stroke="none"/><text fill="#000000" stroke="none" font-family="Arial" font-size="13px" font-style="normal" font-weight="normal" text-decoration="undefined" x="419.828125" y="309.5" text-anchor="middle" dominant-baseline="central" transform="matrix(1 0 0 1 -25 -12)">«include»</text></g></g><g><path fill="none" stroke="#000000" paint-order="fill stroke markers" d=" M 105 222 L 256 222" stroke-miterlimit="10" stroke-dasharray=""/></g></g></svg>