<svg version="1.1" xmlns="http://www.w3.org/2000/svg" xmlns:xlink="http://www.w3.org/1999/xlink" width="795" height="372"><defs/><g><g><rect fill="#C0C0C0" stroke="none" x="433" y="391" width="654" height="352" transform="matrix(1 0 0 1 -296 -374)" fill-opacity="0.2"/></g><g><rect fill="#ffffff" stroke="none" x="426" y="384" width="654" height="352" transform="matrix(1 0 0 1 -296 -374)"/></g><g><path fill="none" stroke="#000000" paint-order="fill stroke markers" d=" M 130 10 L 784 10 L 784 362 L 130 362 L 130 10 Z Z" stroke-miterlimit="10" stroke-dasharray=""/></g><g><g><path fill="none" stroke="none"/><text fill="#000000" stroke="none" font-family="Arial" font-size="13px" font-style="normal" font-weight="bold" text-decoration="undefined" x="753.5" y="397.5" text-anchor="middle" dominant-baseline="central" transform="matrix(1 0 0 1 -296 -374)">Sistema cloud</text></g></g><g><path fill="#ffffff" stroke="none" paint-order="stroke fill markers" d=" M 47.930751953125025 104.85000000000002 C 47.930751953125025 99.96227952000004 51.888554321125014 96 56.770751953125 96 C 61.652949585124986 96 65.61075195312497 99.96227952000004 65.61075195312497 104.85000000000002 C 65.61075195312497 109.73772048000001 61.652949585124986 113.69999999999999 56.770751953125 113.69999999999999 C 51.888554321125014 113.69999999999999 47.930751953125025 109.73772048000001 47.930751953125025 104.85000000000002 Z"/></g><g><path fill="none" stroke="#000000" paint-order="fill stroke markers" d=" M 47.930751953125025 104.85000000000002 C 47.930751953125025 99.96227952000004 51.888554321125014 96 56.770751953125 96 C 61.652949585124986 96 65.61075195312497 99.96227952000004 65.61075195312497 104.85000000000002 C 65.61075195312497 109.73772048000001 61.652949585124986 113.69999999999999 56.770751953125 113.69999999999999 C 51.888554321125014 113.69999999999999 47.930751953125025 109.73772048000001 47.930751953125025 104.85000000000002 Z" stroke-miterlimit="10" stroke-dasharray=""/></g><g><path fill="none" stroke="#000000" paint-order="fill stroke markers" d=" M 56.770751953125 113.69999999999999 L 56.770751953125 131.3" stroke-miterlimit="10" stroke-dasharray=""/></g><g><path fill="none" stroke="#000000" paint-order="fill stroke markers" d=" M 47.410751953124986 120.30000000000001 L 66.13075195312501 120.30000000000001" stroke-miterlimit="10" stroke-dasharray=""/></g><g><path fill="none" stroke="#000000" paint-order="fill stroke markers" d=" M 56.770751953125 131.3 L 43.770751953125 149" stroke-miterlimit="10" stroke-dasharray=""/></g><g><path fill="none" stroke="#000000" paint-order="fill stroke markers" d=" M 56.770751953125 131.3 L 69.770751953125 149" stroke-miterlimit="10" stroke-dasharray=""/></g><g><g><path fill="none" stroke="none"/><text fill="#000000" stroke="none" font-family="Arial" font-size="13px" font-style="normal" font-weight="bold" text-decoration="undefined" x="353.270751953125" y="537.5" text-anchor="middle" dominant-baseline="central" transform="matrix(1 0 0 1 -296 -374)">Super Admin</text></g></g><g><path fill="#C0C0C0" stroke="none" paint-order="stroke fill markers" d=" M 257 141 C 257 121.1177472 299.9806592 105 353 105 C 406.0193408 105 449 121.1177472 449 141 C 449 160.88225279999995 406.0193408 177 353 177 C 299.9806592 177 257 160.88225279999995 257 141 Z" fill-opacity="0.2"/></g><g><path fill="#ffffff" stroke="none" paint-order="stroke fill markers" d=" M 250 134 C 250 114.1177472 292.9806592 98 346 98 C 399.0193408 98 442 114.1177472 442 134 C 442 153.88225279999995 399.0193408 170 346 170 C 292.9806592 170 250 153.88225279999995 250 134 Z"/></g><g><path fill="none" stroke="#000000" paint-order="fill stroke markers" d=" M 250 134 C 250 114.1177472 292.9806592 98 346 98 C 399.0193408 98 442 114.1177472 442 134 C 442 153.88225279999995 399.0193408 170 346 170 C 292.9806592 170 250 153.88225279999995 250 134 Z" stroke-miterlimit="10" stroke-dasharray=""/></g><g><g><path fill="none" stroke="none"/><text fill="#000000" stroke="none" font-family="Arial" font-size="13px" font-style="normal" font-weight="bold" text-decoration="undefined" x="642" y="502.5" text-anchor="middle" dominant-baseline="central" transform="matrix(1 0 0 1 -296 -374)">UC74 - Eliminazione</text><text fill="#000000" stroke="none" font-family="Arial" font-size="13px" font-style="normal" font-weight="bold" text-decoration="undefined" x="642" y="515.5" text-anchor="middle" dominant-baseline="central" transform="matrix(1 0 0 1 -296 -374)">Tenant</text></g></g><g><path fill="none" stroke="#000000" paint-order="fill stroke markers" d=" M 406 171 L 494 225" stroke-miterlimit="10" stroke-dasharray="3"/></g><g><path fill="none" stroke="#000000" paint-order="fill stroke markers" d=" M 483.13647517082677 223.27262387247697 L 494 225 L 487.5397672991344 216.09688855227193" stroke-miterlimit="10" stroke-dasharray=""/></g><g><rect fill="#ffffff" stroke="none" x="735" y="540" width="53.49169921875" height="13" transform="matrix(1 0 0 1 -296 -374)"/></g><g><g><path fill="none" stroke="none"/><text fill="#000000" stroke="none" font-family="Arial" font-size="13px" font-style="normal" font-weight="normal" text-decoration="undefined" x="761.745849609375" y="546.5" text-anchor="middle" dominant-baseline="central" transform="matrix(1 0 0 1 -296 -374)">«extend»</text></g></g><g><path fill="none" stroke="#000000" paint-order="fill stroke markers" d=" M 443 128 L 505 125" stroke-miterlimit="10" stroke-dasharray="3"/></g><g><path fill="none" stroke="#000000" paint-order="fill stroke markers" d=" M 495.05264959840633 129.69576617687835 L 505 125 L 494.64575296965734 121.28656918273151" stroke-miterlimit="10" stroke-dasharray=""/></g><g><rect fill="#ffffff" stroke="none" x="742" y="464" width="55.65625" height="13" transform="matrix(1 0 0 1 -296 -374)"/></g><g><g><path fill="none" stroke="none"/><text fill="#000000" stroke="none" font-family="Arial" font-size="13px" font-style="normal" font-weight="normal" text-decoration="undefined" x="769.828125" y="470.5" text-anchor="middle" dominant-baseline="central" transform="matrix(1 0 0 1 -296 -374)">«include»</text></g></g><g><path fill="none" stroke="#000000" paint-order="fill stroke markers" d=" M 105 135 L 249 134" stroke-miterlimit="10" stroke-dasharray=""/></g><g><path fill="#C0C0C0" stroke="none" paint-order="stroke fill markers" d=" M 447 269 C 447 249.11774720000005 498.26339040000005 233 561.5 233 C 624.7366096 233 676 249.11774720000005 676 269 C 676 288.88225279999995 624.7366096 305 561.5 305 C 498.26339040000005 305 447 288.88225279999995 447 269 Z" fill-opacity="0.2"/></g><g><path fill="#ffffff" stroke="none" paint-order="stroke fill markers" d=" M 440 262 C 440 242.11774720000005 491.26339040000005 226 554.5 226 C 617.7366096 226 669 242.11774720000005 669 262 C 669 281.88225279999995 617.7366096 298 554.5 298 C 491.26339040000005 298 440 281.88225279999995 440 262 Z"/></g><g><path fill="none" stroke="#000000" paint-order="fill stroke markers" d=" M 440 262 C 440 242.11774720000005 491.26339040000005 226 554.5 226 C 617.7366096 226 669 242.11774720000005 669 262 C 669 281.88225279999995 617.7366096 298 554.5 298 C 491.26339040000005 298 440 281.88225279999995 440 262 Z" stroke-miterlimit="10" stroke-dasharray=""/></g><g><g><path fill="none" stroke="none"/><text fill="#000000" stroke="none" font-family="Arial" font-size="13px" font-style="normal" font-weight="bold" text-decoration="undefined" x="850.5" y="624" text-anchor="middle" dominant-baseline="central" transform="matrix(1 0 0 1 -296 -374)">UC75 -</text><text fill="#000000" stroke="none" font-family="Arial" font-size="13px" font-style="normal" font-weight="bold" text-decoration="undefined" x="850.5" y="637" text-anchor="middle" dominant-baseline="central" transform="matrix(1 0 0 1 -296 -374)">Decommissioning</text><text fill="#000000" stroke="none" font-family="Arial" font-size="13px" font-style="normal" font-weight="bold" text-decoration="undefined" x="850.5" y="650" text-anchor="middle" dominant-baseline="central" transform="matrix(1 0 0 1 -296 -374)">Gateway fallito</text></g></g><g><path fill="#C0C0C0" stroke="none" paint-order="stroke fill markers" d=" M 513 125 C 513 105.1177472 563.1441024 89 625 89 C 686.8558976 89 737 105.1177472 737 125 C 737 144.88225279999995 686.8558976 161 625 161 C 563.1441024 161 513 144.88225279999995 513 125 Z" fill-opacity="0.2"/></g><g><path fill="#ffffff" stroke="none" paint-order="stroke fill markers" d=" M 506 118 C 506 98.1177472 556.1441024 82 618 82 C 679.8558976 82 730 98.1177472 730 118 C 730 137.8822528 679.8558976 154 618 154 C 556.1441024 154 506 137.8822528 506 118 Z"/></g><g><path fill="none" stroke="#000000" paint-order="fill stroke markers" d=" M 506 118 C 506 98.1177472 556.1441024 82 618 82 C 679.8558976 82 730 98.1177472 730 118 C 730 137.8822528 679.8558976 154 618 154 C 556.1441024 154 506 137.8822528 506 118 Z" stroke-miterlimit="10" stroke-dasharray=""/></g><g><g><path fill="none" stroke="none"/><text fill="#000000" stroke="none" font-family="Arial" font-size="13px" font-style="normal" font-weight="bold" text-decoration="undefined" x="914" y="480" text-anchor="middle" dominant-baseline="central" transform="matrix(1 0 0 1 -296 -374)">UC74.1 - Selezione e</text><text fill="#000000" stroke="none" font-family="Arial" font-size="13px" font-style="normal" font-weight="bold" text-decoration="undefined" x="914" y="493" text-anchor="middle" dominant-baseline="central" transform="matrix(1 0 0 1 -296 -374)">conferma tenant da</text><text fill="#000000" stroke="none" font-family="Arial" font-size="13px" font-style="normal" font-weight="bold" text-decoration="undefined" x="914" y="506" text-anchor="middle" dominant-baseline="central" transform="matrix(1 0 0 1 -296 -374)">eliminare</text></g></g><g><path fill="#ffffff" stroke="none" paint-order="stroke fill markers" d=" M 232 210 L 373 210 L 383 220 L 383 281 L 232 281 L 232 210"/></g><g><path fill="none" stroke="#000000" paint-order="fill stroke markers" d=" M 232 210 L 373 210 L 383 220 L 383 281 L 232 281 L 232 210 L 232 210" stroke-miterlimit="10" stroke-dasharray=""/></g><g><path fill="none" stroke="#000000" paint-order="fill stroke markers" d=" M 373 210 L 373 220 L 383 220 L 373 210" stroke-miterlimit="10" stroke-dasharray=""/></g><g><g><path fill="none" stroke="none"/><text fill="#000000" stroke="none" font-family="Arial" font-size="13px" font-style="normal" font-weight="normal" text-decoration="undefined" x="533" y="589" text-anchor="start" dominant-baseline="text-before-edge" transform="matrix(1 0 0 1 -296 -374)">Condizione: è</text><text fill="#000000" stroke="none" font-family="Arial" font-size="13px" font-style="normal" font-weight="normal" text-decoration="undefined" x="533" y="602" text-anchor="start" dominant-baseline="text-before-edge" transform="matrix(1 0 0 1 -296 -374)">impossibile eseguire il</text><text fill="#000000" stroke="none" font-family="Arial" font-size="13px" font-style="normal" font-weight="normal" text-decoration="undefined" x="533" y="615" text-anchor="start" dominant-baseline="text-before-edge" transform="matrix(1 0 0 1 -296 -374)">decommissioning del</text><text fill="#000000" stroke="none" font-family="Arial" font-size="13px" font-style="normal" font-weight="normal" text-decoration="undefined" x="533" y="628" text-anchor="start" dominant-baseline="text-before-edge" transform="matrix(1 0 0 1 -296 -374)">gateway</text></g></g><g><path fill="none" stroke="#000000" paint-order="fill stroke markers" d=" M 385 220 L 450 198" stroke-miterlimit="10" stroke-dasharray="3"/></g></g></svg>