<svg version="1.1" xmlns="http://www.w3.org/2000/svg" xmlns:xlink="http://www.w3.org/1999/xlink" width="877" height="540"><defs/><g><g><rect fill="#C0C0C0" stroke="none" x="161" y="37" width="736" height="520" transform="matrix(1 0 0 1 -24 -20)" fill-opacity="0.2"/></g><g><rect fill="#ffffff" stroke="none" x="154" y="30" width="736" height="520" transform="matrix(1 0 0 1 -24 -20)"/></g><g><path fill="none" stroke="#000000" paint-order="fill stroke markers" d=" M 130 10 L 866 10 L 866 530 L 130 530 L 130 10 Z Z" stroke-miterlimit="10" stroke-dasharray=""/></g><g><g><path fill="none" stroke="none"/><text fill="#000000" stroke="none" font-family="Arial" font-size="13px" font-style="normal" font-weight="bold" text-decoration="undefined" x="522.5" y="43.5" text-anchor="middle" dominant-baseline="central" transform="matrix(1 0 0 1 -24 -20)">Sistema cloud</text></g></g><g><path fill="#ffffff" stroke="none" paint-order="stroke fill markers" d=" M 47.930751953125 176.85 C 47.930751953125 171.96227952 51.888554321125 168 56.770751953125 168 C 61.652949585125 168 65.610751953125 171.96227952 65.610751953125 176.85 C 65.610751953125 181.73772047999998 61.652949585125 185.7 56.770751953125 185.7 C 51.888554321125 185.7 47.930751953125 181.73772047999998 47.930751953125 176.85 Z"/></g><g><path fill="none" stroke="#000000" paint-order="fill stroke markers" d=" M 47.930751953125 176.85 C 47.930751953125 171.96227952 51.888554321125 168 56.770751953125 168 C 61.652949585125 168 65.610751953125 171.96227952 65.610751953125 176.85 C 65.610751953125 181.73772047999998 61.652949585125 185.7 56.770751953125 185.7 C 51.888554321125 185.7 47.930751953125 181.73772047999998 47.930751953125 176.85 Z" stroke-miterlimit="10" stroke-dasharray=""/></g><g><path fill="none" stroke="#000000" paint-order="fill stroke markers" d=" M 56.770751953125 185.7 L 56.770751953125 203.3" stroke-miterlimit="10" stroke-dasharray=""/></g><g><path fill="none" stroke="#000000" paint-order="fill stroke markers" d=" M 47.410751953125 192.3 L 66.130751953125 192.3" stroke-miterlimit="10" stroke-dasharray=""/></g><g><path fill="none" stroke="#000000" paint-order="fill stroke markers" d=" M 56.770751953125 203.3 L 43.770751953125 221" stroke-miterlimit="10" stroke-dasharray=""/></g><g><path fill="none" stroke="#000000" paint-order="fill stroke markers" d=" M 56.770751953125 203.3 L 69.770751953125 221" stroke-miterlimit="10" stroke-dasharray=""/></g><g><g><path fill="none" stroke="none"/><text fill="#000000" stroke="none" font-family="Arial" font-size="13px" font-style="normal" font-weight="bold" text-decoration="undefined" x="81.270751953125" y="255.5" text-anchor="middle" dominant-baseline="central" transform="matrix(1 0 0 1 -24 -20)">Super Admin</text></g></g><g><path fill="#C0C0C0" stroke="none" paint-order="stroke fill markers" d=" M 257 213 C 257 193.1177472 299.9806592 177 353 177 C 406.0193408 177 449 193.1177472 449 213 C 449 232.8822528 406.0193408 249 353 249 C 299.9806592 249 257 232.8822528 257 213 Z" fill-opacity="0.2"/></g><g><path fill="#ffffff" stroke="none" paint-order="stroke fill markers" d=" M 250 206 C 250 186.1177472 292.9806592 170 346 170 C 399.0193408 170 442 186.1177472 442 206 C 442 225.8822528 399.0193408 242 346 242 C 292.9806592 242 250 225.8822528 250 206 Z"/></g><g><path fill="none" stroke="#000000" paint-order="fill stroke markers" d=" M 250 206 C 250 186.1177472 292.9806592 170 346 170 C 399.0193408 170 442 186.1177472 442 206 C 442 225.8822528 399.0193408 242 346 242 C 292.9806592 242 250 225.8822528 250 206 Z" stroke-miterlimit="10" stroke-dasharray=""/></g><g><g><path fill="none" stroke="none"/><text fill="#000000" stroke="none" font-family="Arial" font-size="13px" font-style="normal" font-weight="bold" text-decoration="undefined" x="370" y="220.5" text-anchor="middle" dominant-baseline="central" transform="matrix(1 0 0 1 -24 -20)">UC74 - Eliminazione</text><text fill="#000000" stroke="none" font-family="Arial" font-size="13px" font-style="normal" font-weight="bold" text-decoration="undefined" x="370" y="233.5" text-anchor="middle" dominant-baseline="central" transform="matrix(1 0 0 1 -24 -20)">Tenant</text></g></g><g><path fill="#C0C0C0" stroke="none" paint-order="stroke fill markers" d=" M 167 335 C 167 315.1177472 209.9806592 299 263 299 C 316.0193408 299 359 315.1177472 359 335 C 359 354.8822528 316.0193408 371 263 371 C 209.9806592 371 167 354.8822528 167 335 Z" fill-opacity="0.2"/></g><g><path fill="#ffffff" stroke="none" paint-order="stroke fill markers" d=" M 160 328 C 160 308.1177472 202.9806592 292 256 292 C 309.0193408 292 352 308.1177472 352 328 C 352 347.8822528 309.0193408 364 256 364 C 202.9806592 364 160 347.8822528 160 328 Z"/></g><g><path fill="none" stroke="#000000" paint-order="fill stroke markers" d=" M 160 328 C 160 308.1177472 202.9806592 292 256 292 C 309.0193408 292 352 308.1177472 352 328 C 352 347.8822528 309.0193408 364 256 364 C 202.9806592 364 160 347.8822528 160 328 Z" stroke-miterlimit="10" stroke-dasharray=""/></g><g><g><path fill="none" stroke="none"/><text fill="#000000" stroke="none" font-family="Arial" font-size="13px" font-style="normal" font-weight="bold" text-decoration="undefined" x="280" y="336" text-anchor="middle" dominant-baseline="central" transform="matrix(1 0 0 1 -24 -20)">UC75 -</text><text fill="#000000" stroke="none" font-family="Arial" font-size="13px" font-style="normal" font-weight="bold" text-decoration="undefined" x="280" y="349" text-anchor="middle" dominant-baseline="central" transform="matrix(1 0 0 1 -24 -20)">Decommissioning</text><text fill="#000000" stroke="none" font-family="Arial" font-size="13px" font-style="normal" font-weight="bold" text-decoration="undefined" x="280" y="362" text-anchor="middle" dominant-baseline="central" transform="matrix(1 0 0 1 -24 -20)">Gateway fallito</text></g></g><g><path fill="#C0C0C0" stroke="none" paint-order="stroke fill markers" d=" M 513 77 C 513 57.1177472 563.1441024 41 625 41 C 686.8558976 41 737 57.1177472 737 77 C 737 96.8822528 686.8558976 113 625 113 C 563.1441024 113 513 96.8822528 513 77 Z" fill-opacity="0.2"/></g><g><path fill="#ffffff" stroke="none" paint-order="stroke fill markers" d=" M 506 70 C 506 50.1177472 556.1441024 34 618 34 C 679.8558976 34 730 50.1177472 730 70 C 730 89.8822528 679.8558976 106 618 106 C 556.1441024 106 506 89.8822528 506 70 Z"/></g><g><path fill="none" stroke="#000000" paint-order="fill stroke markers" d=" M 506 70 C 506 50.1177472 556.1441024 34 618 34 C 679.8558976 34 730 50.1177472 730 70 C 730 89.8822528 679.8558976 106 618 106 C 556.1441024 106 506 89.8822528 506 70 Z" stroke-miterlimit="10" stroke-dasharray=""/></g><g><g><path fill="none" stroke="none"/><text fill="#000000" stroke="none" font-family="Arial" font-size="13px" font-style="normal" font-weight="bold" text-decoration="undefined" x="642" y="78" text-anchor="middle" dominant-baseline="central" transform="matrix(1 0 0 1 -24 -20)">UC74.1 - Selezione e</text><text fill="#000000" stroke="none" font-family="Arial" font-size="13px" font-style="normal" font-weight="bold" text-decoration="undefined" x="642" y="91" text-anchor="middle" dominant-baseline="central" transform="matrix(1 0 0 1 -24 -20)">conferma tenant da</text><text fill="#000000" stroke="none" font-family="Arial" font-size="13px" font-style="normal" font-weight="bold" text-decoration="undefined" x="642" y="104" text-anchor="middle" dominant-baseline="central" transform="matrix(1 0 0 1 -24 -20)">eliminare</text></g></g><g><path fill="#C0C0C0" stroke="none" paint-order="stroke fill markers" d=" M 543 352 C 543 327.147184 593.1441024 307 655 307 C 716.8558976 307 767 327.147184 767 352 C 767 376.852816 716.8558976 397 655 397 C 593.1441024 397 543 376.852816 543 352 Z" fill-opacity="0.2"/></g><g><path fill="#ffffff" stroke="none" paint-order="stroke fill markers" d=" M 536 345 C 536 320.147184 586.1441024 300 648 300 C 709.8558976 300 760 320.147184 760 345 C 760 369.852816 709.8558976 390 648 390 C 586.1441024 390 536 369.852816 536 345 Z"/></g><g><path fill="none" stroke="#000000" paint-order="fill stroke markers" d=" M 536 345 C 536 320.147184 586.1441024 300 648 300 C 709.8558976 300 760 320.147184 760 345 C 760 369.852816 709.8558976 390 648 390 C 586.1441024 390 536 369.852816 536 345 Z" stroke-miterlimit="10" stroke-dasharray=""/></g><g><g><path fill="none" stroke="none"/><text fill="#000000" stroke="none" font-family="Arial" font-size="13px" font-style="normal" font-weight="bold" text-decoration="undefined" x="672" y="346.5" text-anchor="middle" dominant-baseline="central" transform="matrix(1 0 0 1 -24 -20)">UC74.2 Esecuzione</text><text fill="#000000" stroke="none" font-family="Arial" font-size="13px" font-style="normal" font-weight="bold" text-decoration="undefined" x="672" y="359.5" text-anchor="middle" dominant-baseline="central" transform="matrix(1 0 0 1 -24 -20)">decommissioning</text><text fill="#000000" stroke="none" font-family="Arial" font-size="13px" font-style="normal" font-weight="bold" text-decoration="undefined" x="672" y="372.5" text-anchor="middle" dominant-baseline="central" transform="matrix(1 0 0 1 -24 -20)">Gateway associati al</text><text fill="#000000" stroke="none" font-family="Arial" font-size="13px" font-style="normal" font-weight="bold" text-decoration="undefined" x="672" y="385.5" text-anchor="middle" dominant-baseline="central" transform="matrix(1 0 0 1 -24 -20)">tenant</text></g></g><g><path fill="#C0C0C0" stroke="none" paint-order="stroke fill markers" d=" M 601 165 C 601 145.1177472 647.5623808 129 705 129 C 762.4376192 129 809 145.1177472 809 165 C 809 184.8822528 762.4376192 201 705 201 C 647.5623808 201 601 184.8822528 601 165 Z" fill-opacity="0.2"/></g><g><path fill="#ffffff" stroke="none" paint-order="stroke fill markers" d=" M 594 158 C 594 138.1177472 640.5623808 122 698 122 C 755.4376192 122 802 138.1177472 802 158 C 802 177.8822528 755.4376192 194 698 194 C 640.5623808 194 594 177.8822528 594 158 Z"/></g><g><path fill="none" stroke="#000000" paint-order="fill stroke markers" d=" M 594 158 C 594 138.1177472 640.5623808 122 698 122 C 755.4376192 122 802 138.1177472 802 158 C 802 177.8822528 755.4376192 194 698 194 C 640.5623808 194 594 177.8822528 594 158 Z" stroke-miterlimit="10" stroke-dasharray=""/></g><g><g><path fill="none" stroke="none"/><text fill="#000000" stroke="none" font-family="Arial" font-size="13px" font-style="normal" font-weight="bold" text-decoration="undefined" x="722" y="166" text-anchor="middle" dominant-baseline="central" transform="matrix(1 0 0 1 -24 -20)">UC74.3 - Eliminazione</text><text fill="#000000" stroke="none" font-family="Arial" font-size="13px" font-style="normal" font-weight="bold" text-decoration="undefined" x="722" y="179" text-anchor="middle" dominant-baseline="central" transform="matrix(1 0 0 1 -24 -20)">dati e utenti associati</text><text fill="#000000" stroke="none" font-family="Arial" font-size="13px" font-style="normal" font-weight="bold" text-decoration="undefined" x="722" y="192" text-anchor="middle" dominant-baseline="central" transform="matrix(1 0 0 1 -24 -20)">al tenant</text></g></g><g><path fill="#C0C0C0" stroke="none" paint-order="stroke fill markers" d=" M 609 261 C 609 241.1177472 651.9806592 225 705 225 C 758.0193408 225 801 241.1177472 801 261 C 801 280.8822528 758.0193408 297 705 297 C 651.9806592 297 609 280.8822528 609 261 Z" fill-opacity="0.2"/></g><g><path fill="#ffffff" stroke="none" paint-order="stroke fill markers" d=" M 602 254 C 602 234.1177472 644.9806592 218 698 218 C 751.0193408 218 794 234.1177472 794 254 C 794 273.8822528 751.0193408 290 698 290 C 644.9806592 290 602 273.8822528 602 254 Z"/></g><g><path fill="none" stroke="#000000" paint-order="fill stroke markers" d=" M 602 254 C 602 234.1177472 644.9806592 218 698 218 C 751.0193408 218 794 234.1177472 794 254 C 794 273.8822528 751.0193408 290 698 290 C 644.9806592 290 602 273.8822528 602 254 Z" stroke-miterlimit="10" stroke-dasharray=""/></g><g><g><path fill="none" stroke="none"/><text fill="#000000" stroke="none" font-family="Arial" font-size="13px" font-style="normal" font-weight="bold" text-decoration="undefined" x="722" y="268.5" text-anchor="middle" dominant-baseline="central" transform="matrix(1 0 0 1 -24 -20)">UC74.4</text><text fill="#000000" stroke="none" font-family="Arial" font-size="13px" font-style="normal" font-weight="bold" text-decoration="undefined" x="722" y="281.5" text-anchor="middle" dominant-baseline="central" transform="matrix(1 0 0 1 -24 -20)">Eliminazione tenant</text></g></g><g><path fill="#C0C0C0" stroke="none" paint-order="stroke fill markers" d=" M 583 485.5 C 583 470.8644528 624.1897984 459 675 459 C 725.8102016 459 767 470.8644528 767 485.5 C 767 500.1355472 725.8102016 512 675 512 C 624.1897984 512 583 500.1355472 583 485.5 Z" fill-opacity="0.2"/></g><g><path fill="#ffffff" stroke="none" paint-order="stroke fill markers" d=" M 576 478.5 C 576 463.8644528 617.1897984 452 668 452 C 718.8102016 452 760 463.8644528 760 478.5 C 760 493.1355472 718.8102016 505 668 505 C 617.1897984 505 576 493.1355472 576 478.5 Z"/></g><g><path fill="none" stroke="#000000" paint-order="fill stroke markers" d=" M 576 478.5 C 576 463.8644528 617.1897984 452 668 452 C 718.8102016 452 760 463.8644528 760 478.5 C 760 493.1355472 718.8102016 505 668 505 C 617.1897984 505 576 493.1355472 576 478.5 Z" stroke-miterlimit="10" stroke-dasharray=""/></g><g><g><path fill="none" stroke="none"/><text fill="#000000" stroke="none" font-family="Arial" font-size="13px" font-style="normal" font-weight="bold" text-decoration="undefined" x="692" y="493" text-anchor="middle" dominant-baseline="central" transform="matrix(1 0 0 1 -24 -20)">UC34 - Gateway</text><text fill="#000000" stroke="none" font-family="Arial" font-size="13px" font-style="normal" font-weight="bold" text-decoration="undefined" x="692" y="506" text-anchor="middle" dominant-baseline="central" transform="matrix(1 0 0 1 -24 -20)">non raggiungibile</text></g></g><g><path fill="none" stroke="#000000" paint-order="fill stroke markers" d=" M 420 169 L 544 107" stroke-miterlimit="10" stroke-dasharray="3"/></g><g><path fill="none" stroke="#000000" paint-order="fill stroke markers" d=" M 536.7927808450386 115.30999350495279 L 544 107 L 533.0276737030609 107.77977922099747" stroke-miterlimit="10" stroke-dasharray=""/></g><g><rect fill="#ffffff" stroke="none" x="465" y="125" width="55.65625" height="13" transform="matrix(1 0 0 1 -24 -20)"/></g><g><g><path fill="none" stroke="none"/><text fill="#000000" stroke="none" font-family="Arial" font-size="13px" font-style="normal" font-weight="normal" text-decoration="undefined" x="492.828125" y="131.5" text-anchor="middle" dominant-baseline="central" transform="matrix(1 0 0 1 -24 -20)">«include»</text></g></g><g><path fill="none" stroke="#000000" paint-order="fill stroke markers" d=" M 443 193 L 593 172" stroke-miterlimit="10" stroke-dasharray="3"/></g><g><path fill="none" stroke="#000000" paint-order="fill stroke markers" d=" M 583.5191193940182 177.57789413086306 L 593 172 L 582.3518382672163 169.2401717965641" stroke-miterlimit="10" stroke-dasharray=""/></g><g><rect fill="#ffffff" stroke="none" x="511" y="166" width="55.65625" height="13" transform="matrix(1 0 0 1 -24 -20)"/></g><g><g><path fill="none" stroke="none"/><text fill="#000000" stroke="none" font-family="Arial" font-size="13px" font-style="normal" font-weight="normal" text-decoration="undefined" x="538.828125" y="172.5" text-anchor="middle" dominant-baseline="central" transform="matrix(1 0 0 1 -24 -20)">«include»</text></g></g><g><path fill="none" stroke="#000000" paint-order="fill stroke markers" d=" M 443 219 L 601 241" stroke-miterlimit="10" stroke-dasharray="3"/></g><g><path fill="none" stroke="#000000" paint-order="fill stroke markers" d=" M 590.3538972146144 243.7677600118157 L 601 241 L 591.514966654193 235.42917040029673" stroke-miterlimit="10" stroke-dasharray=""/></g><g><rect fill="#ffffff" stroke="none" x="523" y="214" width="55.65625" height="13" transform="matrix(1 0 0 1 -24 -20)"/></g><g><g><path fill="none" stroke="none"/><text fill="#000000" stroke="none" font-family="Arial" font-size="13px" font-style="normal" font-weight="normal" text-decoration="undefined" x="550.828125" y="220.5" text-anchor="middle" dominant-baseline="central" transform="matrix(1 0 0 1 -24 -20)">«include»</text></g></g><g><path fill="none" stroke="#000000" paint-order="fill stroke markers" d=" M 426 243 L 548 299" stroke-miterlimit="10" stroke-dasharray="3"/></g><g><path fill="none" stroke="#000000" paint-order="fill stroke markers" d=" M 537.0077861524443 298.58619481684553 L 548 299 L 540.5199354992394 290.9347265970421" stroke-miterlimit="10" stroke-dasharray=""/></g><g><rect fill="#ffffff" stroke="none" x="496" y="257" width="55.65625" height="13" transform="matrix(1 0 0 1 -24 -20)"/></g><g><g><path fill="none" stroke="none"/><text fill="#000000" stroke="none" font-family="Arial" font-size="13px" font-style="normal" font-weight="normal" text-decoration="undefined" x="523.828125" y="263.5" text-anchor="middle" dominant-baseline="central" transform="matrix(1 0 0 1 -24 -20)">«include»</text></g></g><g><path fill="none" stroke="#000000" paint-order="fill stroke markers" d=" M 105 207 L 249 206" stroke-miterlimit="10" stroke-dasharray=""/></g><g><path fill="none" stroke="#000000" paint-order="fill stroke markers" d=" M 283 291 L 319 243" stroke-miterlimit="10" stroke-dasharray="3"/></g><g><path fill="none" stroke="#000000" paint-order="fill stroke markers" d=" M 316.2700092902383 253.65585053970892 L 319 243 L 309.53478088061274 248.60442923248974" stroke-miterlimit="10" stroke-dasharray=""/></g><g><rect fill="#ffffff" stroke="none" x="275" y="262" width="53.49169921875" height="13" transform="matrix(1 0 0 1 -24 -20)"/></g><g><g><path fill="none" stroke="none"/><text fill="#000000" stroke="none" font-family="Arial" font-size="13px" font-style="normal" font-weight="normal" text-decoration="undefined" x="301.745849609375" y="268.5" text-anchor="middle" dominant-baseline="central" transform="matrix(1 0 0 1 -24 -20)">«extend»</text></g></g><g><path fill="none" stroke="#000000" paint-order="fill stroke markers" d=" M 664 451 L 655 391" stroke-miterlimit="10" stroke-dasharray="3"/></g><g><path fill="none" stroke="#000000" paint-order="fill stroke markers" d=" M 660.6704809283316 400.42579683853984 L 655 391 L 652.344590654394 401.6746803796305" stroke-miterlimit="10" stroke-dasharray=""/></g><g><rect fill="#ffffff" stroke="none" x="695" y="423" width="53.49169921875" height="13" transform="matrix(1 0 0 1 -24 -20)"/></g><g><g><path fill="none" stroke="none"/><text fill="#000000" stroke="none" font-family="Arial" font-size="13px" font-style="normal" font-weight="normal" text-decoration="undefined" x="721.745849609375" y="429.5" text-anchor="middle" dominant-baseline="central" transform="matrix(1 0 0 1 -24 -20)">«extend»</text></g></g><g><path fill="#ffffff" stroke="none" paint-order="stroke fill markers" d=" M 384 308 L 493.4326171875 308 L 503.4326171875 318 L 503.4326171875 395 L 384 395 L 384 308"/></g><g><path fill="none" stroke="#000000" paint-order="fill stroke markers" d=" M 384 308 L 493.4326171875 308 L 503.4326171875 318 L 503.4326171875 395 L 384 395 L 384 308 L 384 308" stroke-miterlimit="10" stroke-dasharray=""/></g><g><path fill="none" stroke="#000000" paint-order="fill stroke markers" d=" M 493.4326171875 308 L 493.4326171875 318 L 503.4326171875 318 L 493.4326171875 308" stroke-miterlimit="10" stroke-dasharray=""/></g><g><g><path fill="none" stroke="none"/><text fill="#000000" stroke="none" font-family="Arial" font-size="13px" font-style="normal" font-weight="normal" text-decoration="undefined" x="413" y="333" text-anchor="start" dominant-baseline="text-before-edge" transform="matrix(1 0 0 1 -24 -20)">Condizione: è</text><text fill="#000000" stroke="none" font-family="Arial" font-size="13px" font-style="normal" font-weight="normal" text-decoration="undefined" x="413" y="346" text-anchor="start" dominant-baseline="text-before-edge" transform="matrix(1 0 0 1 -24 -20)">impossibile</text><text fill="#000000" stroke="none" font-family="Arial" font-size="13px" font-style="normal" font-weight="normal" text-decoration="undefined" x="413" y="359" text-anchor="start" dominant-baseline="text-before-edge" transform="matrix(1 0 0 1 -24 -20)">eseguire il</text><text fill="#000000" stroke="none" font-family="Arial" font-size="13px" font-style="normal" font-weight="normal" text-decoration="undefined" x="413" y="372" text-anchor="start" dominant-baseline="text-before-edge" transform="matrix(1 0 0 1 -24 -20)">decommissioning</text><text fill="#000000" stroke="none" font-family="Arial" font-size="13px" font-style="normal" font-weight="normal" text-decoration="undefined" x="413" y="385" text-anchor="start" dominant-baseline="text-before-edge" transform="matrix(1 0 0 1 -24 -20)">del gateway</text></g></g><g><path fill="none" stroke="#000000" paint-order="fill stroke markers" d=" M 383 316 L 301 267" stroke-miterlimit="10" stroke-dasharray="3"/></g><g><path fill="#ffffff" stroke="none" paint-order="stroke fill markers" d=" M 360 436 L 517 436 L 527 446 L 527 486 L 360 486 L 360 436"/></g><g><path fill="none" stroke="#000000" paint-order="fill stroke markers" d=" M 360 436 L 517 436 L 527 446 L 527 486 L 360 486 L 360 436 L 360 436" stroke-miterlimit="10" stroke-dasharray=""/></g><g><path fill="none" stroke="#000000" paint-order="fill stroke markers" d=" M 517 436 L 517 446 L 527 446 L 517 436" stroke-miterlimit="10" stroke-dasharray=""/></g><g><g><path fill="none" stroke="none"/><text fill="#000000" stroke="none" font-family="Arial" font-size="13px" font-style="normal" font-weight="normal" text-decoration="undefined" x="389" y="461" text-anchor="start" dominant-baseline="text-before-edge" transform="matrix(1 0 0 1 -24 -20)">Condizione: il gateway non</text><text fill="#000000" stroke="none" font-family="Arial" font-size="13px" font-style="normal" font-weight="normal" text-decoration="undefined" x="389" y="474" text-anchor="start" dominant-baseline="text-before-edge" transform="matrix(1 0 0 1 -24 -20)">è raggiungibile dal sistema</text></g></g><g><path fill="none" stroke="#000000" paint-order="fill stroke markers" d=" M 529 445 L 659 421" stroke-miterlimit="10" stroke-dasharray="3"/></g></g></svg>