<svg version="1.1" xmlns="http://www.w3.org/2000/svg" xmlns:xlink="http://www.w3.org/1999/xlink" width="877" height="540"><defs/><g><g><rect fill="#C0C0C0" stroke="none" x="161" y="37" width="736" height="520" transform="matrix(1 0 0 1 -24 -20)" fill-opacity="0.2"/></g><g><rect fill="#ffffff" stroke="none" x="154" y="30" width="736" height="520" transform="matrix(1 0 0 1 -24 -20)"/></g><g><path fill="none" stroke="#000000" paint-order="fill stroke markers" d=" M 130 10 L 866 10 L 866 530 L 130 530 L 130 10 Z Z" stroke-miterlimit="10" stroke-dasharray=""/></g><g><g><path fill="none" stroke="none"/><text fill="#000000" stroke="none" font-family="Arial" font-size="13px" font-style="normal" font-weight="bold" text-decoration="undefined" x="522.5" y="43.5" text-anchor="middle" dominant-baseline="central" transform="matrix(1 0 0 1 -24 -20)">Sistema cloud</text></g></g><g><path fill="#ffffff" stroke="none" paint-order="stroke fill markers" d=" M 47.930751953125 176.85 C 47.930751953125 171.96227952 51.888554321125 168 56.770751953125 168 C 61.652949585125 168 65.610751953125 171.96227952 65.610751953125 176.85 C 65.610751953125 181.73772047999998 61.652949585125 185.7 56.770751953125 185.7 C 51.888554321125 185.7 47.930751953125 181.73772047999998 47.930751953125 176.85 Z"/></g><g><path fill="none" stroke="#000000" paint-order="fill stroke markers" d=" M 47.930751953125 176.85 C 47.930751953125 171.96227952 51.888554321125 168 56.770751953125 168 C 61.652949585125 168 65.610751953125 171.96227952 65.610751953125 176.85 C 65.610751953125 181.73772047999998 61.652949585125 185.7 56.770751953125 185.7 C 51.888554321125 185.7 47.930751953125 181.73772047999998 47.930751953125 176.85 Z" stroke-miterlimit="10" stroke-dasharray=""/></g><g><path fill="none" stroke="#000000" paint-order="fill stroke markers" d=" M 56.770751953125 185.7 L 56.770751953125 203.3" stroke-miterlimit="10" stroke-dasharray=""/></g><g><path fill="none" stroke="#000000" paint-order="fill stroke markers" d=" M 47.410751953125 192.3 L 66.130751953125 192.3" stroke-miterlimit="10" stroke-dasharray=""/></g><g><path fill="none" stroke="#000000" paint-order="fill stroke markers" d=" M 56.770751953125 203.3 L 43.770751953125 221" stroke-miterlimit="10" stroke-dasharray=""/></g><g><path fill="none" stroke="#000000" paint-order="fill stroke markers" d=" M 56.770751953125 203.3 L 69.770751953125 221" stroke-miterlimit="10" stroke-dasharray=""/></g><g><g><path fill="none" stroke="none"/><text fill="#000000" stroke="none" font-family="Arial" font-size="13px" font-style="normal" font-weight="bold" text-decoration="undefined" x="81.270751953125" y="255.5" text-anchor="middle" dominant-baseline="central" transform="matrix(1 0 0 1 -24 -20)">Tenant admin</text></g></g><g><path fill="#C0C0C0" stroke="none" paint-order="stroke fill markers" d=" M 257 213 C 257 193.1177472 299.9806592 177 353 177 C 406.0193408 177 449 193.1177472 449 213 C 449 232.8822528 406.0193408 249 353 249 C 299.9806592 249 257 232.8822528 257 213 Z" fill-opacity="0.2"/></g><g><path fill="#ffffff" stroke="none" paint-order="stroke fill markers" d=" M 250 206 C 250 186.1177472 292.9806592 170 346 170 C 399.0193408 170 442 186.1177472 442 206 C 442 225.8822528 399.0193408 242 346 242 C 292.9806592 242 250 225.8822528 250 206 Z"/></g><g><path fill="none" stroke="#000000" paint-order="fill stroke markers" d=" M 250 206 C 250 186.1177472 292.9806592 170 346 170 C 399.0193408 170 442 186.1177472 442 206 C 442 225.8822528 399.0193408 242 346 242 C 292.9806592 242 250 225.8822528 250 206 Z" stroke-miterlimit="10" stroke-dasharray=""/></g><g><g><path fill="none" stroke="none"/><text fill="#000000" stroke="none" font-family="Arial" font-size="13px" font-style="normal" font-weight="bold" text-decoration="undefined" x="370" y="220.5" text-anchor="middle" dominant-baseline="central" transform="matrix(1 0 0 1 -24 -20)">UC74 - Eliminazione</text><text fill="#000000" stroke="none" font-family="Arial" font-size="13px" font-style="normal" font-weight="bold" text-decoration="undefined" x="370" y="233.5" text-anchor="middle" dominant-baseline="central" transform="matrix(1 0 0 1 -24 -20)">Tenant</text></g></g><g><path fill="#C0C0C0" stroke="none" paint-order="stroke fill markers" d=" M 234 325 C 234 305.1177472 285.2633904 289 348.5 289 C 411.7366096 289 463 305.1177472 463 325 C 463 344.8822528 411.7366096 361 348.5 361 C 285.2633904 361 234 344.8822528 234 325 Z" fill-opacity="0.2"/></g><g><path fill="#ffffff" stroke="none" paint-order="stroke fill markers" d=" M 227 318 C 227 298.1177472 278.2633904 282 341.5 282 C 404.7366096 282 456 298.1177472 456 318 C 456 337.8822528 404.7366096 354 341.5 354 C 278.2633904 354 227 337.8822528 227 318 Z"/></g><g><path fill="none" stroke="#000000" paint-order="fill stroke markers" d=" M 227 318 C 227 298.1177472 278.2633904 282 341.5 282 C 404.7366096 282 456 298.1177472 456 318 C 456 337.8822528 404.7366096 354 341.5 354 C 278.2633904 354 227 337.8822528 227 318 Z" stroke-miterlimit="10" stroke-dasharray=""/></g><g><g><path fill="none" stroke="none"/><text fill="#000000" stroke="none" font-family="Arial" font-size="13px" font-style="normal" font-weight="bold" text-decoration="undefined" x="365.5" y="326" text-anchor="middle" dominant-baseline="central" transform="matrix(1 0 0 1 -24 -20)">UC75 -</text><text fill="#000000" stroke="none" font-family="Arial" font-size="13px" font-style="normal" font-weight="bold" text-decoration="undefined" x="365.5" y="339" text-anchor="middle" dominant-baseline="central" transform="matrix(1 0 0 1 -24 -20)">Decommissioning</text><text fill="#000000" stroke="none" font-family="Arial" font-size="13px" font-style="normal" font-weight="bold" text-decoration="undefined" x="365.5" y="352" text-anchor="middle" dominant-baseline="central" transform="matrix(1 0 0 1 -24 -20)">Gateway fallito</text></g></g><g><path fill="none" stroke="#000000" paint-order="fill stroke markers" d=" M 344 243 L 343 281" stroke-miterlimit="10" stroke-dasharray="3"/></g><g><path fill="none" stroke="#000000" paint-order="fill stroke markers" d=" M 339.0592853332588 270.7301038021151 L 343 281 L 347.4754071800324 270.9515806928197" stroke-miterlimit="10" stroke-dasharray=""/></g><g><rect fill="#ffffff" stroke="none" x="370" y="275" width="53.49169921875" height="13" transform="matrix(1 0 0 1 -24 -20)"/></g><g><g><path fill="none" stroke="none"/><text fill="#000000" stroke="none" font-family="Arial" font-size="13px" font-style="normal" font-weight="normal" text-decoration="undefined" x="396.745849609375" y="281.5" text-anchor="middle" dominant-baseline="central" transform="matrix(1 0 0 1 -24 -20)">«extend»</text></g></g><g><path fill="#C0C0C0" stroke="none" paint-order="stroke fill markers" d=" M 513 77 C 513 57.1177472 563.1441024 41 625 41 C 686.8558976 41 737 57.1177472 737 77 C 737 96.8822528 686.8558976 113 625 113 C 563.1441024 113 513 96.8822528 513 77 Z" fill-opacity="0.2"/></g><g><path fill="#ffffff" stroke="none" paint-order="stroke fill markers" d=" M 506 70 C 506 50.1177472 556.1441024 34 618 34 C 679.8558976 34 730 50.1177472 730 70 C 730 89.8822528 679.8558976 106 618 106 C 556.1441024 106 506 89.8822528 506 70 Z"/></g><g><path fill="none" stroke="#000000" paint-order="fill stroke markers" d=" M 506 70 C 506 50.1177472 556.1441024 34 618 34 C 679.8558976 34 730 50.1177472 730 70 C 730 89.8822528 679.8558976 106 618 106 C 556.1441024 106 506 89.8822528 506 70 Z" stroke-miterlimit="10" stroke-dasharray=""/></g><g><g><path fill="none" stroke="none"/><text fill="#000000" stroke="none" font-family="Arial" font-size="13px" font-style="normal" font-weight="bold" text-decoration="undefined" x="642" y="78" text-anchor="middle" dominant-baseline="central" transform="matrix(1 0 0 1 -24 -20)">UC74.1 - Selezione e</text><text fill="#000000" stroke="none" font-family="Arial" font-size="13px" font-style="normal" font-weight="bold" text-decoration="undefined" x="642" y="91" text-anchor="middle" dominant-baseline="central" transform="matrix(1 0 0 1 -24 -20)">conferma tenant da</text><text fill="#000000" stroke="none" font-family="Arial" font-size="13px" font-style="normal" font-weight="bold" text-decoration="undefined" x="642" y="104" text-anchor="middle" dominant-baseline="central" transform="matrix(1 0 0 1 -24 -20)">eliminare</text></g></g><g><path fill="#C0C0C0" stroke="none" paint-order="stroke fill markers" d=" M 513 382 C 513 357.147184 563.1441024 337 625 337 C 686.8558976 337 737 357.147184 737 382 C 737 406.852816 686.8558976 427 625 427 C 563.1441024 427 513 406.852816 513 382 Z" fill-opacity="0.2"/></g><g><path fill="#ffffff" stroke="none" paint-order="stroke fill markers" d=" M 506 375 C 506 350.147184 556.1441024 330 618 330 C 679.8558976 330 730 350.147184 730 375 C 730 399.852816 679.8558976 420 618 420 C 556.1441024 420 506 399.852816 506 375 Z"/></g><g><path fill="none" stroke="#000000" paint-order="fill stroke markers" d=" M 506 375 C 506 350.147184 556.1441024 330 618 330 C 679.8558976 330 730 350.147184 730 375 C 730 399.852816 679.8558976 420 618 420 C 556.1441024 420 506 399.852816 506 375 Z" stroke-miterlimit="10" stroke-dasharray=""/></g><g><g><path fill="none" stroke="none"/><text fill="#000000" stroke="none" font-family="Arial" font-size="13px" font-style="normal" font-weight="bold" text-decoration="undefined" x="642" y="376.5" text-anchor="middle" dominant-baseline="central" transform="matrix(1 0 0 1 -24 -20)">UC74.2 Esecuzione</text><text fill="#000000" stroke="none" font-family="Arial" font-size="13px" font-style="normal" font-weight="bold" text-decoration="undefined" x="642" y="389.5" text-anchor="middle" dominant-baseline="central" transform="matrix(1 0 0 1 -24 -20)">decommissioning</text><text fill="#000000" stroke="none" font-family="Arial" font-size="13px" font-style="normal" font-weight="bold" text-decoration="undefined" x="642" y="402.5" text-anchor="middle" dominant-baseline="central" transform="matrix(1 0 0 1 -24 -20)">Gateway associati al</text><text fill="#000000" stroke="none" font-family="Arial" font-size="13px" font-style="normal" font-weight="bold" text-decoration="undefined" x="642" y="415.5" text-anchor="middle" dominant-baseline="central" transform="matrix(1 0 0 1 -24 -20)">tenant</text></g></g><g><path fill="#C0C0C0" stroke="none" paint-order="stroke fill markers" d=" M 601 165 C 601 145.1177472 647.5623808 129 705 129 C 762.4376192 129 809 145.1177472 809 165 C 809 184.8822528 762.4376192 201 705 201 C 647.5623808 201 601 184.8822528 601 165 Z" fill-opacity="0.2"/></g><g><path fill="#ffffff" stroke="none" paint-order="stroke fill markers" d=" M 594 158 C 594 138.1177472 640.5623808 122 698 122 C 755.4376192 122 802 138.1177472 802 158 C 802 177.8822528 755.4376192 194 698 194 C 640.5623808 194 594 177.8822528 594 158 Z"/></g><g><path fill="none" stroke="#000000" paint-order="fill stroke markers" d=" M 594 158 C 594 138.1177472 640.5623808 122 698 122 C 755.4376192 122 802 138.1177472 802 158 C 802 177.8822528 755.4376192 194 698 194 C 640.5623808 194 594 177.8822528 594 158 Z" stroke-miterlimit="10" stroke-dasharray=""/></g><g><g><path fill="none" stroke="none"/><text fill="#000000" stroke="none" font-family="Arial" font-size="13px" font-style="normal" font-weight="bold" text-decoration="undefined" x="722" y="166" text-anchor="middle" dominant-baseline="central" transform="matrix(1 0 0 1 -24 -20)">UC74.3 - Eliminazione</text><text fill="#000000" stroke="none" font-family="Arial" font-size="13px" font-style="normal" font-weight="bold" text-decoration="undefined" x="722" y="179" text-anchor="middle" dominant-baseline="central" transform="matrix(1 0 0 1 -24 -20)">dati e utenti associati</text><text fill="#000000" stroke="none" font-family="Arial" font-size="13px" font-style="normal" font-weight="bold" text-decoration="undefined" x="722" y="192" text-anchor="middle" dominant-baseline="central" transform="matrix(1 0 0 1 -24 -20)">al tenant</text></g></g><g><path fill="#C0C0C0" stroke="none" paint-order="stroke fill markers" d=" M 609 261 C 609 241.1177472 651.9806592 225 705 225 C 758.0193408 225 801 241.1177472 801 261 C 801 280.8822528 758.0193408 297 705 297 C 651.9806592 297 609 280.8822528 609 261 Z" fill-opacity="0.2"/></g><g><path fill="#ffffff" stroke="none" paint-order="stroke fill markers" d=" M 602 254 C 602 234.1177472 644.9806592 218 698 218 C 751.0193408 218 794 234.1177472 794 254 C 794 273.8822528 751.0193408 290 698 290 C 644.9806592 290 602 273.8822528 602 254 Z"/></g><g><path fill="none" stroke="#000000" paint-order="fill stroke markers" d=" M 602 254 C 602 234.1177472 644.9806592 218 698 218 C 751.0193408 218 794 234.1177472 794 254 C 794 273.8822528 751.0193408 290 698 290 C 644.9806592 290 602 273.8822528 602 254 Z" stroke-miterlimit="10" stroke-dasharray=""/></g><g><g><path fill="none" stroke="none"/><text fill="#000000" stroke="none" font-family="Arial" font-size="13px" font-style="normal" font-weight="bold" text-decoration="undefined" x="722" y="268.5" text-anchor="middle" dominant-baseline="central" transform="matrix(1 0 0 1 -24 -20)">UC74.4</text><text fill="#000000" stroke="none" font-family="Arial" font-size="13px" font-style="normal" font-weight="bold" text-decoration="undefined" x="722" y="281.5" text-anchor="middle" dominant-baseline="central" transform="matrix(1 0 0 1 -24 -20)">Eliminazione tenant</text></g></g><g><path fill="#C0C0C0" stroke="none" paint-order="stroke fill markers" d=" M 540 491.5 C 540 476.8644528 581.1897984 465 632 465 C 682.8102016 465 724 476.8644528 724 491.5 C 724 506.1355472 682.8102016 518 632 518 C 581.1897984 518 540 506.1355472 540 491.5 Z" fill-opacity="0.2"/></g><g><path fill="#ffffff" stroke="none" paint-order="stroke fill markers" d=" M 533 484.5 C 533 469.8644528 574.1897984 458 625 458 C 675.8102016 458 717 469.8644528 717 484.5 C 717 499.1355472 675.8102016 511 625 511 C 574.1897984 511 533 499.1355472 533 484.5 Z"/></g><g><path fill="none" stroke="#000000" paint-order="fill stroke markers" d=" M 533 484.5 C 533 469.8644528 574.1897984 458 625 458 C 675.8102016 458 717 469.8644528 717 484.5 C 717 499.1355472 675.8102016 511 625 511 C 574.1897984 511 533 499.1355472 533 484.5 Z" stroke-miterlimit="10" stroke-dasharray=""/></g><g><g><path fill="none" stroke="none"/><text fill="#000000" stroke="none" font-family="Arial" font-size="13px" font-style="normal" font-weight="bold" text-decoration="undefined" x="649" y="499" text-anchor="middle" dominant-baseline="central" transform="matrix(1 0 0 1 -24 -20)">UC34 - Gateway</text><text fill="#000000" stroke="none" font-family="Arial" font-size="13px" font-style="normal" font-weight="bold" text-decoration="undefined" x="649" y="512" text-anchor="middle" dominant-baseline="central" transform="matrix(1 0 0 1 -24 -20)">non raggiungibile</text></g></g><g><path fill="none" stroke="#000000" paint-order="fill stroke markers" d=" M 621 421 L 623 457" stroke-miterlimit="10" stroke-dasharray="3"/></g><g><path fill="none" stroke="#000000" paint-order="fill stroke markers" d=" M 618.233239640734 447.0864741046724 L 623 457 L 626.6393128117264 446.6194700396173" stroke-miterlimit="10" stroke-dasharray=""/></g><g><rect fill="#ffffff" stroke="none" x="649" y="451" width="53.49169921875" height="13" transform="matrix(1 0 0 1 -24 -20)"/></g><g><g><path fill="none" stroke="none"/><text fill="#000000" stroke="none" font-family="Arial" font-size="13px" font-style="normal" font-weight="normal" text-decoration="undefined" x="675.745849609375" y="457.5" text-anchor="middle" dominant-baseline="central" transform="matrix(1 0 0 1 -24 -20)">«extend»</text></g></g><g><path fill="none" stroke="#000000" paint-order="fill stroke markers" d=" M 420 169 L 544 107" stroke-miterlimit="10" stroke-dasharray="3"/></g><g><path fill="none" stroke="#000000" paint-order="fill stroke markers" d=" M 536.7927808450386 115.30999350495279 L 544 107 L 533.0276737030609 107.77977922099747" stroke-miterlimit="10" stroke-dasharray=""/></g><g><rect fill="#ffffff" stroke="none" x="465" y="125" width="55.65625" height="13" transform="matrix(1 0 0 1 -24 -20)"/></g><g><g><path fill="none" stroke="none"/><text fill="#000000" stroke="none" font-family="Arial" font-size="13px" font-style="normal" font-weight="normal" text-decoration="undefined" x="492.828125" y="131.5" text-anchor="middle" dominant-baseline="central" transform="matrix(1 0 0 1 -24 -20)">«include»</text></g></g><g><path fill="none" stroke="#000000" paint-order="fill stroke markers" d=" M 443 193 L 593 172" stroke-miterlimit="10" stroke-dasharray="3"/></g><g><path fill="none" stroke="#000000" paint-order="fill stroke markers" d=" M 583.5191193940182 177.57789413086306 L 593 172 L 582.3518382672163 169.2401717965641" stroke-miterlimit="10" stroke-dasharray=""/></g><g><rect fill="#ffffff" stroke="none" x="511" y="166" width="55.65625" height="13" transform="matrix(1 0 0 1 -24 -20)"/></g><g><g><path fill="none" stroke="none"/><text fill="#000000" stroke="none" font-family="Arial" font-size="13px" font-style="normal" font-weight="normal" text-decoration="undefined" x="538.828125" y="172.5" text-anchor="middle" dominant-baseline="central" transform="matrix(1 0 0 1 -24 -20)">«include»</text></g></g><g><path fill="none" stroke="#000000" paint-order="fill stroke markers" d=" M 443 219 L 601 241" stroke-miterlimit="10" stroke-dasharray="3"/></g><g><path fill="none" stroke="#000000" paint-order="fill stroke markers" d=" M 590.3538972146144 243.7677600118157 L 601 241 L 591.514966654193 235.42917040029673" stroke-miterlimit="10" stroke-dasharray=""/></g><g><rect fill="#ffffff" stroke="none" x="523" y="214" width="55.65625" height="13" transform="matrix(1 0 0 1 -24 -20)"/></g><g><g><path fill="none" stroke="none"/><text fill="#000000" stroke="none" font-family="Arial" font-size="13px" font-style="normal" font-weight="normal" text-decoration="undefined" x="550.828125" y="220.5" text-anchor="middle" dominant-baseline="central" transform="matrix(1 0 0 1 -24 -20)">«include»</text></g></g><g><path fill="none" stroke="#000000" paint-order="fill stroke markers" d=" M 406 243 L 544 329" stroke-miterlimit="10" stroke-dasharray="3"/></g><g><path fill="none" stroke="#000000" paint-order="fill stroke markers" d=" M 533.1486698565865 327.19760322940687 L 544 329 L 537.6014378495734 320.05246389182315" stroke-miterlimit="10" stroke-dasharray=""/></g><g><rect fill="#ffffff" stroke="none" x="487" y="274" width="55.65625" height="13" transform="matrix(1 0 0 1 -24 -20)"/></g><g><g><path fill="none" stroke="none"/><text fill="#000000" stroke="none" font-family="Arial" font-size="13px" font-style="normal" font-weight="normal" text-decoration="undefined" x="514.828125" y="280.5" text-anchor="middle" dominant-baseline="central" transform="matrix(1 0 0 1 -24 -20)">«include»</text></g></g><g><path fill="none" stroke="#000000" paint-order="fill stroke markers" d=" M 105 207 L 249 206" stroke-miterlimit="10" stroke-dasharray=""/></g></g></svg>