<svg version="1.1" xmlns="http://www.w3.org/2000/svg" xmlns:xlink="http://www.w3.org/1999/xlink" width="741" height="212"><defs/><g><g><rect fill="#C0C0C0" stroke="none" x="197" y="33" width="560" height="192" transform="matrix(1 0 0 1 -20 -16)" fill-opacity="0.2"/></g><g><rect fill="#ffffff" stroke="none" x="190" y="26" width="560" height="192" transform="matrix(1 0 0 1 -20 -16)"/></g><g><path fill="none" stroke="#000000" paint-order="fill stroke markers" d=" M 170 10 L 730 10 L 730 202 L 170 202 L 170 10 Z Z" stroke-miterlimit="10" stroke-dasharray=""/></g><g><g><path fill="none" stroke="none"/><text fill="#000000" stroke="none" font-family="Arial" font-size="13px" font-style="normal" font-weight="bold" text-decoration="undefined" x="470.5" y="39.5" text-anchor="middle" dominant-baseline="central" transform="matrix(1 0 0 1 -20 -16)">Sistema cloud</text></g></g><g><path fill="#ffffff" stroke="none" paint-order="stroke fill markers" d=" M 47.930751953125 79.85 C 47.930751953125 74.96227952 51.888554321125 71 56.770751953125 71 C 61.652949585125 71 65.610751953125 74.96227952 65.610751953125 79.85 C 65.610751953125 84.73772048 61.652949585125 88.7 56.770751953125 88.7 C 51.888554321125 88.7 47.930751953125 84.73772048 47.930751953125 79.85 Z"/></g><g><path fill="none" stroke="#000000" paint-order="fill stroke markers" d=" M 47.930751953125 79.85 C 47.930751953125 74.96227952 51.888554321125 71 56.770751953125 71 C 61.652949585125 71 65.610751953125 74.96227952 65.610751953125 79.85 C 65.610751953125 84.73772048 61.652949585125 88.7 56.770751953125 88.7 C 51.888554321125 88.7 47.930751953125 84.73772048 47.930751953125 79.85 Z" stroke-miterlimit="10" stroke-dasharray=""/></g><g><path fill="none" stroke="#000000" paint-order="fill stroke markers" d=" M 56.770751953125 88.7 L 56.770751953125 106.3" stroke-miterlimit="10" stroke-dasharray=""/></g><g><path fill="none" stroke="#000000" paint-order="fill stroke markers" d=" M 47.410751953125 95.3 L 66.130751953125 95.3" stroke-miterlimit="10" stroke-dasharray=""/></g><g><path fill="none" stroke="#000000" paint-order="fill stroke markers" d=" M 56.770751953125 106.3 L 43.770751953125 124" stroke-miterlimit="10" stroke-dasharray=""/></g><g><path fill="none" stroke="#000000" paint-order="fill stroke markers" d=" M 56.770751953125 106.3 L 69.770751953125 124" stroke-miterlimit="10" stroke-dasharray=""/></g><g><g><path fill="none" stroke="none"/><text fill="#000000" stroke="none" font-family="Arial" font-size="13px" font-style="normal" font-weight="bold" text-decoration="undefined" x="77.270751953125" y="154.5" text-anchor="middle" dominant-baseline="central" transform="matrix(1 0 0 1 -20 -16)">Super Admin</text></g></g><g><path fill="#C0C0C0" stroke="none" paint-order="stroke fill markers" d=" M 233 117 C 233 97.1177472 274.1897984 81 325 81 C 375.8102016 81 417 97.1177472 417 117 C 417 136.8822528 375.8102016 153 325 153 C 274.1897984 153 233 136.8822528 233 117 Z" fill-opacity="0.2"/></g><g><path fill="#ffffff" stroke="none" paint-order="stroke fill markers" d=" M 226 110 C 226 90.1177472 267.1897984 74 318 74 C 368.8102016 74 410 90.1177472 410 110 C 410 129.8822528 368.8102016 146 318 146 C 267.1897984 146 226 129.8822528 226 110 Z"/></g><g><path fill="none" stroke="#000000" paint-order="fill stroke markers" d=" M 226 110 C 226 90.1177472 267.1897984 74 318 74 C 368.8102016 74 410 90.1177472 410 110 C 410 129.8822528 368.8102016 146 318 146 C 267.1897984 146 226 129.8822528 226 110 Z" stroke-miterlimit="10" stroke-dasharray=""/></g><g><g><path fill="none" stroke="none"/><text fill="#000000" stroke="none" font-family="Arial" font-size="13px" font-style="normal" font-weight="bold" text-decoration="undefined" x="338" y="114" text-anchor="middle" dominant-baseline="central" transform="matrix(1 0 0 1 -20 -16)">UC75 -</text><text fill="#000000" stroke="none" font-family="Arial" font-size="13px" font-style="normal" font-weight="bold" text-decoration="undefined" x="338" y="127" text-anchor="middle" dominant-baseline="central" transform="matrix(1 0 0 1 -20 -16)">Visualizzazione</text><text fill="#000000" stroke="none" font-family="Arial" font-size="13px" font-style="normal" font-weight="bold" text-decoration="undefined" x="338" y="140" text-anchor="middle" dominant-baseline="central" transform="matrix(1 0 0 1 -20 -16)">lista Gateway</text></g></g><g><path fill="#C0C0C0" stroke="none" paint-order="stroke fill markers" d=" M 521 120 C 521 95.147184 565.77152 75 621 75 C 676.22848 75 721 95.147184 721 120 C 721 144.852816 676.22848 165 621 165 C 565.77152 165 521 144.852816 521 120 Z" fill-opacity="0.2"/></g><g><path fill="#ffffff" stroke="none" paint-order="stroke fill markers" d=" M 514 113 C 514 88.147184 558.77152 68 614 68 C 669.22848 68 714 88.147184 714 113 C 714 137.852816 669.22848 158 614 158 C 558.77152 158 514 137.852816 514 113 Z"/></g><g><path fill="none" stroke="#000000" paint-order="fill stroke markers" d=" M 514 113 C 514 88.147184 558.77152 68 614 68 C 669.22848 68 714 88.147184 714 113 C 714 137.852816 669.22848 158 614 158 C 558.77152 158 514 137.852816 514 113 Z" stroke-miterlimit="10" stroke-dasharray=""/></g><g><g><path fill="none" stroke="none"/><text fill="#000000" stroke="none" font-family="Arial" font-size="13px" font-style="normal" font-weight="bold" text-decoration="undefined" x="634" y="110.5" text-anchor="middle" dominant-baseline="central" transform="matrix(1 0 0 1 -20 -16)">UC43 -</text><text fill="#000000" stroke="none" font-family="Arial" font-size="13px" font-style="normal" font-weight="bold" text-decoration="undefined" x="634" y="123.5" text-anchor="middle" dominant-baseline="central" transform="matrix(1 0 0 1 -20 -16)">Visualizzazione</text><text fill="#000000" stroke="none" font-family="Arial" font-size="13px" font-style="normal" font-weight="bold" text-decoration="undefined" x="634" y="136.5" text-anchor="middle" dominant-baseline="central" transform="matrix(1 0 0 1 -20 -16)">singolo gateway in</text><text fill="#000000" stroke="none" font-family="Arial" font-size="13px" font-style="normal" font-weight="bold" text-decoration="undefined" x="634" y="149.5" text-anchor="middle" dominant-baseline="central" transform="matrix(1 0 0 1 -20 -16)">lista</text></g></g><g><path fill="none" stroke="#000000" paint-order="fill stroke markers" d=" M 411 111 L 513 112" stroke-miterlimit="10" stroke-dasharray="3"/></g><g><path fill="none" stroke="#000000" paint-order="fill stroke markers" d=" M 502.79654571075787 116.10968618842679 L 513 112 L 502.8790813081646 107.6910552529352" stroke-miterlimit="10" stroke-dasharray=""/></g><g><rect fill="#ffffff" stroke="none" x="455" y="91" width="55.65625" height="13" transform="matrix(1 0 0 1 -20 -16)"/></g><g><g><path fill="none" stroke="none"/><text fill="#000000" stroke="none" font-family="Arial" font-size="13px" font-style="normal" font-weight="normal" text-decoration="undefined" x="482.828125" y="97.5" text-anchor="middle" dominant-baseline="central" transform="matrix(1 0 0 1 -20 -16)">«include»</text></g></g><g><path fill="none" stroke="#000000" paint-order="fill stroke markers" d=" M 105 110 L 225 110" stroke-miterlimit="10" stroke-dasharray=""/></g></g></svg>