<svg version="1.1" xmlns="http://www.w3.org/2000/svg" xmlns:xlink="http://www.w3.org/1999/xlink" width="861" height="516"><defs/><g><g><rect fill="#C0C0C0" stroke="none" x="233" y="33" width="648" height="496" transform="matrix(1 0 0 1 -24 -16)" fill-opacity="0.2"/></g><g><rect fill="#ffffff" stroke="none" x="226" y="26" width="648" height="496" transform="matrix(1 0 0 1 -24 -16)"/></g><g><path fill="none" stroke="#000000" paint-order="fill stroke markers" d=" M 202 10 L 850 10 L 850 506 L 202 506 L 202 10 Z Z" stroke-miterlimit="10" stroke-dasharray=""/></g><g><g><path fill="none" stroke="none"/><text fill="#000000" stroke="none" font-family="Arial" font-size="13px" font-style="normal" font-weight="bold" text-decoration="undefined" x="550.5" y="39.5" text-anchor="middle" dominant-baseline="central" transform="matrix(1 0 0 1 -24 -16)">Sistema cloud</text></g></g><g><path fill="#ffffff" stroke="none" paint-order="stroke fill markers" d=" M 47.930751953125 247.85000000000002 C 47.930751953125 242.96227952000004 51.888554321125 239 56.770751953125 239 C 61.652949585125 239 65.610751953125 242.96227952000004 65.610751953125 247.85000000000002 C 65.610751953125 252.73772048 61.652949585125 256.7 56.770751953125 256.7 C 51.888554321125 256.7 47.930751953125 252.73772048 47.930751953125 247.85000000000002 Z"/></g><g><path fill="none" stroke="#000000" paint-order="fill stroke markers" d=" M 47.930751953125 247.85000000000002 C 47.930751953125 242.96227952000004 51.888554321125 239 56.770751953125 239 C 61.652949585125 239 65.610751953125 242.96227952000004 65.610751953125 247.85000000000002 C 65.610751953125 252.73772048 61.652949585125 256.7 56.770751953125 256.7 C 51.888554321125 256.7 47.930751953125 252.73772048 47.930751953125 247.85000000000002 Z" stroke-miterlimit="10" stroke-dasharray=""/></g><g><path fill="none" stroke="#000000" paint-order="fill stroke markers" d=" M 56.770751953125 256.7 L 56.770751953125 274.3" stroke-miterlimit="10" stroke-dasharray=""/></g><g><path fill="none" stroke="#000000" paint-order="fill stroke markers" d=" M 47.410751953125 263.3 L 66.130751953125 263.3" stroke-miterlimit="10" stroke-dasharray=""/></g><g><path fill="none" stroke="#000000" paint-order="fill stroke markers" d=" M 56.770751953125 274.3 L 43.770751953125 292" stroke-miterlimit="10" stroke-dasharray=""/></g><g><path fill="none" stroke="#000000" paint-order="fill stroke markers" d=" M 56.770751953125 274.3 L 69.770751953125 292" stroke-miterlimit="10" stroke-dasharray=""/></g><g><g><path fill="none" stroke="none"/><text fill="#000000" stroke="none" font-family="Arial" font-size="13px" font-style="normal" font-weight="bold" text-decoration="undefined" x="81.270751953125" y="322.5" text-anchor="middle" dominant-baseline="central" transform="matrix(1 0 0 1 -24 -16)">Super Admin</text></g></g><g><path fill="#C0C0C0" stroke="none" paint-order="stroke fill markers" d=" M 225 286 C 225 261.147184 269.77152 241 325 241 C 380.22848 241 425 261.147184 425 286 C 425 310.852816 380.22848 331 325 331 C 269.77152 331 225 310.852816 225 286 Z" fill-opacity="0.2"/></g><g><path fill="#ffffff" stroke="none" paint-order="stroke fill markers" d=" M 218 279 C 218 254.14718399999998 262.77152 234 318 234 C 373.22848 234 418 254.14718399999998 418 279 C 418 303.852816 373.22848 324 318 324 C 262.77152 324 218 303.852816 218 279 Z"/></g><g><path fill="none" stroke="#000000" paint-order="fill stroke markers" d=" M 218 279 C 218 254.14718399999998 262.77152 234 318 234 C 373.22848 234 418 254.14718399999998 418 279 C 418 303.852816 373.22848 324 318 324 C 262.77152 324 218 303.852816 218 279 Z" stroke-miterlimit="10" stroke-dasharray=""/></g><g><g><path fill="none" stroke="none"/><text fill="#000000" stroke="none" font-family="Arial" font-size="13px" font-style="normal" font-weight="bold" text-decoration="undefined" x="342" y="276.5" text-anchor="middle" dominant-baseline="central" transform="matrix(1 0 0 1 -24 -16)">UC78 -</text><text fill="#000000" stroke="none" font-family="Arial" font-size="13px" font-style="normal" font-weight="bold" text-decoration="undefined" x="342" y="289.5" text-anchor="middle" dominant-baseline="central" transform="matrix(1 0 0 1 -24 -16)">Visualizzazione</text><text fill="#000000" stroke="none" font-family="Arial" font-size="13px" font-style="normal" font-weight="bold" text-decoration="undefined" x="342" y="302.5" text-anchor="middle" dominant-baseline="central" transform="matrix(1 0 0 1 -24 -16)">singolo gateway in</text><text fill="#000000" stroke="none" font-family="Arial" font-size="13px" font-style="normal" font-weight="bold" text-decoration="undefined" x="342" y="315.5" text-anchor="middle" dominant-baseline="central" transform="matrix(1 0 0 1 -24 -16)">lista</text></g></g><g><path fill="#C0C0C0" stroke="none" paint-order="stroke fill markers" d=" M 497 101 C 497 81.1177472 559.680128 65 637 65 C 714.319872 65 777 81.1177472 777 101 C 777 120.8822528 714.319872 137 637 137 C 559.680128 137 497 120.8822528 497 101 Z" fill-opacity="0.2"/></g><g><path fill="#ffffff" stroke="none" paint-order="stroke fill markers" d=" M 490 94 C 490 74.1177472 552.680128 58 630 58 C 707.319872 58 770 74.1177472 770 94 C 770 113.8822528 707.319872 130 630 130 C 552.680128 130 490 113.8822528 490 94 Z"/></g><g><path fill="none" stroke="#000000" paint-order="fill stroke markers" d=" M 490 94 C 490 74.1177472 552.680128 58 630 58 C 707.319872 58 770 74.1177472 770 94 C 770 113.8822528 707.319872 130 630 130 C 552.680128 130 490 113.8822528 490 94 Z" stroke-miterlimit="10" stroke-dasharray=""/></g><g><g><path fill="none" stroke="none"/><text fill="#000000" stroke="none" font-family="Arial" font-size="13px" font-style="normal" font-weight="bold" text-decoration="undefined" x="654" y="98" text-anchor="middle" dominant-baseline="central" transform="matrix(1 0 0 1 -24 -16)">UC78.1 - Visualizzazione</text><text fill="#000000" stroke="none" font-family="Arial" font-size="13px" font-style="normal" font-weight="bold" text-decoration="undefined" x="654" y="111" text-anchor="middle" dominant-baseline="central" transform="matrix(1 0 0 1 -24 -16)">identificativo univoco del</text><text fill="#000000" stroke="none" font-family="Arial" font-size="13px" font-style="normal" font-weight="bold" text-decoration="undefined" x="654" y="124" text-anchor="middle" dominant-baseline="central" transform="matrix(1 0 0 1 -24 -16)">gateway</text></g></g><g><path fill="#C0C0C0" stroke="none" paint-order="stroke fill markers" d=" M 537 222 C 537 197.147184 601.4709888 177 681 177 C 760.5290112 177 825 197.147184 825 222 C 825 246.85281600000002 760.5290112 267 681 267 C 601.4709888 267 537 246.85281600000002 537 222 Z" fill-opacity="0.2"/></g><g><path fill="#ffffff" stroke="none" paint-order="stroke fill markers" d=" M 530 215 C 530 190.147184 594.4709888 170 674 170 C 753.5290112 170 818 190.147184 818 215 C 818 239.852816 753.5290112 260 674 260 C 594.4709888 260 530 239.852816 530 215 Z"/></g><g><path fill="none" stroke="#000000" paint-order="fill stroke markers" d=" M 530 215 C 530 190.147184 594.4709888 170 674 170 C 753.5290112 170 818 190.147184 818 215 C 818 239.852816 753.5290112 260 674 260 C 594.4709888 260 530 239.852816 530 215 Z" stroke-miterlimit="10" stroke-dasharray=""/></g><g><g><path fill="none" stroke="none"/><text fill="#000000" stroke="none" font-family="Arial" font-size="13px" font-style="normal" font-weight="bold" text-decoration="undefined" x="698" y="225.5" text-anchor="middle" dominant-baseline="central" transform="matrix(1 0 0 1 -24 -16)">UC78.2 - Visualizzazione stato</text><text fill="#000000" stroke="none" font-family="Arial" font-size="13px" font-style="normal" font-weight="bold" text-decoration="undefined" x="698" y="238.5" text-anchor="middle" dominant-baseline="central" transform="matrix(1 0 0 1 -24 -16)">di autenticazione del gateway</text></g></g><g><path fill="#C0C0C0" stroke="none" paint-order="stroke fill markers" d=" M 545 341 C 545 321.1177472 609.4709888 305 689 305 C 768.5290112 305 833 321.1177472 833 341 C 833 360.8822528 768.5290112 377 689 377 C 609.4709888 377 545 360.8822528 545 341 Z" fill-opacity="0.2"/></g><g><path fill="#ffffff" stroke="none" paint-order="stroke fill markers" d=" M 538 334 C 538 314.1177472 602.4709888 298 682 298 C 761.5290112 298 826 314.1177472 826 334 C 826 353.8822528 761.5290112 370 682 370 C 602.4709888 370 538 353.8822528 538 334 Z"/></g><g><path fill="none" stroke="#000000" paint-order="fill stroke markers" d=" M 538 334 C 538 314.1177472 602.4709888 298 682 298 C 761.5290112 298 826 314.1177472 826 334 C 826 353.8822528 761.5290112 370 682 370 C 602.4709888 370 538 353.8822528 538 334 Z" stroke-miterlimit="10" stroke-dasharray=""/></g><g><g><path fill="none" stroke="none"/><text fill="#000000" stroke="none" font-family="Arial" font-size="13px" font-style="normal" font-weight="bold" text-decoration="undefined" x="706" y="344.5" text-anchor="middle" dominant-baseline="central" transform="matrix(1 0 0 1 -24 -16)">UC78.3 - Visualizzazione stato</text><text fill="#000000" stroke="none" font-family="Arial" font-size="13px" font-style="normal" font-weight="bold" text-decoration="undefined" x="706" y="357.5" text-anchor="middle" dominant-baseline="central" transform="matrix(1 0 0 1 -24 -16)">operativo del gateway</text></g></g><g><path fill="#C0C0C0" stroke="none" paint-order="stroke fill markers" d=" M 513 454 C 513 429.147184 577.4709888 409 657 409 C 736.5290112 409 801 429.147184 801 454 C 801 478.852816 736.5290112 499 657 499 C 577.4709888 499 513 478.852816 513 454 Z" fill-opacity="0.2"/></g><g><path fill="#ffffff" stroke="none" paint-order="stroke fill markers" d=" M 506 447 C 506 422.147184 570.4709888 402 650 402 C 729.5290112 402 794 422.147184 794 447 C 794 471.852816 729.5290112 492 650 492 C 570.4709888 492 506 471.852816 506 447 Z"/></g><g><path fill="none" stroke="#000000" paint-order="fill stroke markers" d=" M 506 447 C 506 422.147184 570.4709888 402 650 402 C 729.5290112 402 794 422.147184 794 447 C 794 471.852816 729.5290112 492 650 492 C 570.4709888 492 506 471.852816 506 447 Z" stroke-miterlimit="10" stroke-dasharray=""/></g><g><g><path fill="none" stroke="none"/><text fill="#000000" stroke="none" font-family="Arial" font-size="13px" font-style="normal" font-weight="bold" text-decoration="undefined" x="674" y="457.5" text-anchor="middle" dominant-baseline="central" transform="matrix(1 0 0 1 -24 -16)">UC78.4 - Visualizzazione</text><text fill="#000000" stroke="none" font-family="Arial" font-size="13px" font-style="normal" font-weight="bold" text-decoration="undefined" x="674" y="470.5" text-anchor="middle" dominant-baseline="central" transform="matrix(1 0 0 1 -24 -16)">tenant associato al gateway</text></g></g><g><path fill="none" stroke="#000000" paint-order="fill stroke markers" d=" M 396 233 L 568 131" stroke-miterlimit="10" stroke-dasharray="3"/></g><g><path fill="none" stroke="#000000" paint-order="fill stroke markers" d=" M 561.4059644984922 139.8044702171598 L 568 131 L 557.1116121861903 132.56301337680762" stroke-miterlimit="10" stroke-dasharray=""/></g><g><rect fill="#ffffff" stroke="none" x="463" y="166" width="55.65625" height="13" transform="matrix(1 0 0 1 -24 -16)"/></g><g><g><path fill="none" stroke="none"/><text fill="#000000" stroke="none" font-family="Arial" font-size="13px" font-style="normal" font-weight="normal" text-decoration="undefined" x="490.828125" y="172.5" text-anchor="middle" dominant-baseline="central" transform="matrix(1 0 0 1 -24 -16)">«include»</text></g></g><g><path fill="none" stroke="#000000" paint-order="fill stroke markers" d=" M 419 261 L 529 241" stroke-miterlimit="10" stroke-dasharray="3"/></g><g><path fill="none" stroke="#000000" paint-order="fill stroke markers" d=" M 519.7542714298503 246.95957240136545 L 529 241 L 518.2482285730592 238.67633668901465" stroke-miterlimit="10" stroke-dasharray=""/></g><g><rect fill="#ffffff" stroke="none" x="470" y="244" width="55.65625" height="13" transform="matrix(1 0 0 1 -24 -16)"/></g><g><g><path fill="none" stroke="none"/><text fill="#000000" stroke="none" font-family="Arial" font-size="13px" font-style="normal" font-weight="normal" text-decoration="undefined" x="497.828125" y="250.5" text-anchor="middle" dominant-baseline="central" transform="matrix(1 0 0 1 -24 -16)">«include»</text></g></g><g><path fill="none" stroke="#000000" paint-order="fill stroke markers" d=" M 419 294 L 537 312" stroke-miterlimit="10" stroke-dasharray="3"/></g><g><path fill="none" stroke="#000000" paint-order="fill stroke markers" d=" M 526.3187525899489 314.6288692940645 L 537 312 L 527.5883262201355 306.30610882950765" stroke-miterlimit="10" stroke-dasharray=""/></g><g><rect fill="#ffffff" stroke="none" x="481" y="296" width="55.65625" height="13" transform="matrix(1 0 0 1 -24 -16)"/></g><g><g><path fill="none" stroke="none"/><text fill="#000000" stroke="none" font-family="Arial" font-size="13px" font-style="normal" font-weight="normal" text-decoration="undefined" x="508.828125" y="302.5" text-anchor="middle" dominant-baseline="central" transform="matrix(1 0 0 1 -24 -16)">«include»</text></g></g><g><path fill="none" stroke="#000000" paint-order="fill stroke markers" d=" M 409 325 L 559 401" stroke-miterlimit="10" stroke-dasharray="3"/></g><g><path fill="none" stroke="#000000" paint-order="fill stroke markers" d=" M 548.0319766248141 400.16186919793114 L 559 401 L 551.8370842688578 392.6517883215293" stroke-miterlimit="10" stroke-dasharray=""/></g><g><rect fill="#ffffff" stroke="none" x="487" y="397" width="55.65625" height="13" transform="matrix(1 0 0 1 -24 -16)"/></g><g><g><path fill="none" stroke="none"/><text fill="#000000" stroke="none" font-family="Arial" font-size="13px" font-style="normal" font-weight="normal" text-decoration="undefined" x="514.828125" y="403.5" text-anchor="middle" dominant-baseline="central" transform="matrix(1 0 0 1 -24 -16)">«include»</text></g></g><g><path fill="none" stroke="#000000" paint-order="fill stroke markers" d=" M 105 278 L 217 279" stroke-miterlimit="10" stroke-dasharray=""/></g></g></svg>