<svg version="1.1" xmlns="http://www.w3.org/2000/svg" xmlns:xlink="http://www.w3.org/1999/xlink" width="1157" height="468"><defs/><g><g><rect fill="#C0C0C0" stroke="none" x="472" y="345" width="944" height="448" transform="matrix(1 0 0 1 -263 -328)" fill-opacity="0.2"/></g><g><rect fill="#ffffff" stroke="none" x="465" y="338" width="944" height="448" transform="matrix(1 0 0 1 -263 -328)"/></g><g><path fill="none" stroke="#000000" paint-order="fill stroke markers" d=" M 202 10 L 1146 10 L 1146 458 L 202 458 L 202 10 Z Z" stroke-miterlimit="10" stroke-dasharray=""/></g><g><g><path fill="none" stroke="none"/><text fill="#000000" stroke="none" font-family="Arial" font-size="13px" font-style="normal" font-weight="bold" text-decoration="undefined" x="937.5" y="351.5" text-anchor="middle" dominant-baseline="central" transform="matrix(1 0 0 1 -263 -328)">Sistema Cloud</text></g></g><g><path fill="#ffffff" stroke="none" paint-order="stroke fill markers" d=" M 76.57772460937503 203.85000000000002 C 76.57772460937503 198.96227952000004 80.53552697737501 195 85.417724609375 195 C 90.29992224137499 195 94.25772460937497 198.96227952000004 94.25772460937497 203.85000000000002 C 94.25772460937497 208.73772048 90.29992224137499 212.70000000000005 85.417724609375 212.70000000000005 C 80.53552697737501 212.70000000000005 76.57772460937503 208.73772048 76.57772460937503 203.85000000000002 Z"/></g><g><path fill="none" stroke="#000000" paint-order="fill stroke markers" d=" M 76.57772460937503 203.85000000000002 C 76.57772460937503 198.96227952000004 80.53552697737501 195 85.417724609375 195 C 90.29992224137499 195 94.25772460937497 198.96227952000004 94.25772460937497 203.85000000000002 C 94.25772460937497 208.73772048 90.29992224137499 212.70000000000005 85.417724609375 212.70000000000005 C 80.53552697737501 212.70000000000005 76.57772460937503 208.73772048 76.57772460937503 203.85000000000002 Z" stroke-miterlimit="10" stroke-dasharray=""/></g><g><path fill="none" stroke="#000000" paint-order="fill stroke markers" d=" M 85.417724609375 212.70000000000005 L 85.417724609375 230.29999999999995" stroke-miterlimit="10" stroke-dasharray=""/></g><g><path fill="none" stroke="#000000" paint-order="fill stroke markers" d=" M 76.05772460937499 219.29999999999995 L 94.77772460937501 219.29999999999995" stroke-miterlimit="10" stroke-dasharray=""/></g><g><path fill="none" stroke="#000000" paint-order="fill stroke markers" d=" M 85.417724609375 230.29999999999995 L 72.417724609375 248" stroke-miterlimit="10" stroke-dasharray=""/></g><g><path fill="none" stroke="#000000" paint-order="fill stroke markers" d=" M 85.417724609375 230.29999999999995 L 98.417724609375 248" stroke-miterlimit="10" stroke-dasharray=""/></g><g><g><path fill="none" stroke="none"/><text fill="#000000" stroke="none" font-family="Arial" font-size="13px" font-style="normal" font-weight="bold" text-decoration="undefined" x="348.917724609375" y="590.5" text-anchor="middle" dominant-baseline="central" transform="matrix(1 0 0 1 -263 -328)">Utente non autenticato</text></g></g><g><path fill="#C0C0C0" stroke="none" paint-order="stroke fill markers" d=" M 345 251.5 C 345 236.86445279999998 406.56084 225 482.5 225 C 558.43916 225 620 236.86445279999998 620 251.5 C 620 266.1355472 558.43916 278 482.5 278 C 406.56084 278 345 266.1355472 345 251.5 Z" fill-opacity="0.2"/></g><g><path fill="#ffffff" stroke="none" paint-order="stroke fill markers" d=" M 338 244.5 C 338 229.86445279999998 399.56084 218 475.5 218 C 551.43916 218 613 229.86445279999998 613 244.5 C 613 259.1355472 551.43916 271 475.5 271 C 399.56084 271 338 259.1355472 338 244.5 Z"/></g><g><path fill="none" stroke="#000000" paint-order="fill stroke markers" d=" M 338 244.5 C 338 229.86445279999998 399.56084 218 475.5 218 C 551.43916 218 613 229.86445279999998 613 244.5 C 613 259.1355472 551.43916 271 475.5 271 C 399.56084 271 338 259.1355472 338 244.5 Z" stroke-miterlimit="10" stroke-dasharray=""/></g><g><g><path fill="none" stroke="none"/><text fill="#000000" stroke="none" font-family="Arial" font-size="13px" font-style="normal" font-weight="bold" text-decoration="undefined" x="738.5" y="567" text-anchor="middle" dominant-baseline="central" transform="matrix(1 0 0 1 -263 -328)">UC8 - Impostazione</text><text fill="#000000" stroke="none" font-family="Arial" font-size="13px" font-style="normal" font-weight="bold" text-decoration="undefined" x="738.5" y="580" text-anchor="middle" dominant-baseline="central" transform="matrix(1 0 0 1 -263 -328)">password</text></g></g><g><path fill="#C0C0C0" stroke="none" paint-order="stroke fill markers" d=" M 297 91.5 C 297 76.86445279999998 381.17045759999996 65 485 65 C 588.8295424 65 673 76.86445279999998 673 91.5 C 673 106.13554720000002 588.8295424 118 485 118 C 381.17045759999996 118 297 106.13554720000002 297 91.5 Z" fill-opacity="0.2"/></g><g><path fill="#ffffff" stroke="none" paint-order="stroke fill markers" d=" M 290 84.5 C 290 69.86445279999998 374.17045759999996 58 478 58 C 581.8295424 58 666 69.86445279999998 666 84.5 C 666 99.13554720000002 581.8295424 111 478 111 C 374.17045759999996 111 290 99.13554720000002 290 84.5 Z"/></g><g><path fill="none" stroke="#000000" paint-order="fill stroke markers" d=" M 290 84.5 C 290 69.86445279999998 374.17045759999996 58 478 58 C 581.8295424 58 666 69.86445279999998 666 84.5 C 666 99.13554720000002 581.8295424 111 478 111 C 374.17045759999996 111 290 99.13554720000002 290 84.5 Z" stroke-miterlimit="10" stroke-dasharray=""/></g><g><g><path fill="none" stroke="none"/><text fill="#000000" stroke="none" font-family="Arial" font-size="13px" font-style="normal" font-weight="bold" text-decoration="undefined" x="741" y="407" text-anchor="middle" dominant-baseline="central" transform="matrix(1 0 0 1 -263 -328)">UC13 - Password non conforme ai criteri</text><text fill="#000000" stroke="none" font-family="Arial" font-size="13px" font-style="normal" font-weight="bold" text-decoration="undefined" x="741" y="420" text-anchor="middle" dominant-baseline="central" transform="matrix(1 0 0 1 -263 -328)">di sicurezza</text></g></g><g><path fill="#C0C0C0" stroke="none" paint-order="stroke fill markers" d=" M 929 187.5 C 929 172.86445279999998 973.77152 161 1029 161 C 1084.22848 161 1129 172.86445279999998 1129 187.5 C 1129 202.13554720000002 1084.22848 214 1029 214 C 973.77152 214 929 202.13554720000002 929 187.5 Z" fill-opacity="0.2"/></g><g><path fill="#ffffff" stroke="none" paint-order="stroke fill markers" d=" M 922 180.5 C 922 165.86445279999998 966.77152 154 1022 154 C 1077.22848 154 1122 165.86445279999998 1122 180.5 C 1122 195.13554720000002 1077.22848 207 1022 207 C 966.77152 207 922 195.13554720000002 922 180.5 Z"/></g><g><path fill="none" stroke="#000000" paint-order="fill stroke markers" d=" M 922 180.5 C 922 165.86445279999998 966.77152 154 1022 154 C 1077.22848 154 1122 165.86445279999998 1122 180.5 C 1122 195.13554720000002 1077.22848 207 1022 207 C 966.77152 207 922 195.13554720000002 922 180.5 Z" stroke-miterlimit="10" stroke-dasharray=""/></g><g><g><path fill="none" stroke="none"/><text fill="#000000" stroke="none" font-family="Arial" font-size="13px" font-style="normal" font-weight="bold" text-decoration="undefined" x="1285" y="503" text-anchor="middle" dominant-baseline="central" transform="matrix(1 0 0 1 -263 -328)">UC12 - Password</text><text fill="#000000" stroke="none" font-family="Arial" font-size="13px" font-style="normal" font-weight="bold" text-decoration="undefined" x="1285" y="516" text-anchor="middle" dominant-baseline="central" transform="matrix(1 0 0 1 -263 -328)">non coincidenti</text></g></g><g><path fill="#C0C0C0" stroke="none" paint-order="stroke fill markers" d=" M 913 285 C 913 265.11774720000005 964.9349632000001 249 1029 249 C 1093.0650368 249 1145 265.11774720000005 1145 285 C 1145 304.88225279999995 1093.0650368 321 1029 321 C 964.9349632000001 321 913 304.88225279999995 913 285 Z" fill-opacity="0.2"/></g><g><path fill="#ffffff" stroke="none" paint-order="stroke fill markers" d=" M 906 278 C 906 258.11774720000005 957.9349632000001 242 1022 242 C 1086.0650368 242 1138 258.11774720000005 1138 278 C 1138 297.88225279999995 1086.0650368 314 1022 314 C 957.9349632000001 314 906 297.88225279999995 906 278 Z"/></g><g><path fill="none" stroke="#000000" paint-order="fill stroke markers" d=" M 906 278 C 906 258.11774720000005 957.9349632000001 242 1022 242 C 1086.0650368 242 1138 258.11774720000005 1138 278 C 1138 297.88225279999995 1086.0650368 314 1022 314 C 957.9349632000001 314 906 297.88225279999995 906 278 Z" stroke-miterlimit="10" stroke-dasharray=""/></g><g><g><path fill="none" stroke="none"/><text fill="#000000" stroke="none" font-family="Arial" font-size="13px" font-style="normal" font-weight="bold" text-decoration="undefined" x="1285" y="594" text-anchor="middle" dominant-baseline="central" transform="matrix(1 0 0 1 -263 -328)">UC14 - Link di</text><text fill="#000000" stroke="none" font-family="Arial" font-size="13px" font-style="normal" font-weight="bold" text-decoration="undefined" x="1285" y="607" text-anchor="middle" dominant-baseline="central" transform="matrix(1 0 0 1 -263 -328)">impostazione password</text><text fill="#000000" stroke="none" font-family="Arial" font-size="13px" font-style="normal" font-weight="bold" text-decoration="undefined" x="1285" y="620" text-anchor="middle" dominant-baseline="central" transform="matrix(1 0 0 1 -263 -328)">scaduto</text></g></g><g><path fill="#C0C0C0" stroke="none" paint-order="stroke fill markers" d=" M 553 379.5 C 553 364.8644528 606.725824 353 673 353 C 739.274176 353 793 364.8644528 793 379.5 C 793 394.1355472 739.274176 406 673 406 C 606.725824 406 553 394.1355472 553 379.5 Z" fill-opacity="0.2"/></g><g><path fill="#ffffff" stroke="none" paint-order="stroke fill markers" d=" M 546 372.5 C 546 357.8644528 599.725824 346 666 346 C 732.274176 346 786 357.8644528 786 372.5 C 786 387.1355472 732.274176 399 666 399 C 599.725824 399 546 387.1355472 546 372.5 Z"/></g><g><path fill="none" stroke="#000000" paint-order="fill stroke markers" d=" M 546 372.5 C 546 357.8644528 599.725824 346 666 346 C 732.274176 346 786 357.8644528 786 372.5 C 786 387.1355472 732.274176 399 666 399 C 599.725824 399 546 387.1355472 546 372.5 Z" stroke-miterlimit="10" stroke-dasharray=""/></g><g><g><path fill="none" stroke="none"/><text fill="#000000" stroke="none" font-family="Arial" font-size="13px" font-style="normal" font-weight="bold" text-decoration="undefined" x="929" y="695" text-anchor="middle" dominant-baseline="central" transform="matrix(1 0 0 1 -263 -328)">UC11.1 - Inserimento</text><text fill="#000000" stroke="none" font-family="Arial" font-size="13px" font-style="normal" font-weight="bold" text-decoration="undefined" x="929" y="708" text-anchor="middle" dominant-baseline="central" transform="matrix(1 0 0 1 -263 -328)">nuova password</text></g></g><g><path fill="#C0C0C0" stroke="none" paint-order="stroke fill markers" d=" M 289 379.5 C 289 364.8644528 344.5166848 353 413 353 C 481.4833152 353 537 364.8644528 537 379.5 C 537 394.1355472 481.4833152 406 413 406 C 344.5166848 406 289 394.1355472 289 379.5 Z" fill-opacity="0.2"/></g><g><path fill="#ffffff" stroke="none" paint-order="stroke fill markers" d=" M 282 372.5 C 282 357.8644528 337.5166848 346 406 346 C 474.4833152 346 530 357.8644528 530 372.5 C 530 387.1355472 474.4833152 399 406 399 C 337.5166848 399 282 387.1355472 282 372.5 Z"/></g><g><path fill="none" stroke="#000000" paint-order="fill stroke markers" d=" M 282 372.5 C 282 357.8644528 337.5166848 346 406 346 C 474.4833152 346 530 357.8644528 530 372.5 C 530 387.1355472 474.4833152 399 406 399 C 337.5166848 399 282 387.1355472 282 372.5 Z" stroke-miterlimit="10" stroke-dasharray=""/></g><g><g><path fill="none" stroke="none"/><text fill="#000000" stroke="none" font-family="Arial" font-size="13px" font-style="normal" font-weight="bold" text-decoration="undefined" x="669" y="695" text-anchor="middle" dominant-baseline="central" transform="matrix(1 0 0 1 -263 -328)">UC11.2 - Conferma nuova</text><text fill="#000000" stroke="none" font-family="Arial" font-size="13px" font-style="normal" font-weight="bold" text-decoration="undefined" x="669" y="708" text-anchor="middle" dominant-baseline="central" transform="matrix(1 0 0 1 -263 -328)">password</text></g></g><g><path fill="none" stroke="#000000" paint-order="fill stroke markers" d=" M 477 112 L 476 217" stroke-miterlimit="10" stroke-dasharray="3"/></g><g><path fill="none" stroke="#000000" paint-order="fill stroke markers" d=" M 471.88745612927744 206.79769717605961 L 476 217 L 480.30610985161184 206.87787483055797" stroke-miterlimit="10" stroke-dasharray=""/></g><g><rect fill="#ffffff" stroke="none" x="742" y="485" width="53.49169921875" height="13" transform="matrix(1 0 0 1 -263 -328)"/></g><g><g><path fill="none" stroke="none"/><text fill="#000000" stroke="none" font-family="Arial" font-size="13px" font-style="normal" font-weight="normal" text-decoration="undefined" x="768.745849609375" y="491.5" text-anchor="middle" dominant-baseline="central" transform="matrix(1 0 0 1 -263 -328)">«extend»</text></g></g><g><path fill="none" stroke="#000000" paint-order="fill stroke markers" d=" M 921 192 L 614 228" stroke-miterlimit="10" stroke-dasharray="3"/></g><g><path fill="none" stroke="#000000" paint-order="fill stroke markers" d=" M 623.6032498296499 222.63552493627492 L 614 228 L 624.5837797710402 230.99726638090794" stroke-miterlimit="10" stroke-dasharray=""/></g><g><rect fill="#ffffff" stroke="none" x="996" y="516" width="53.49169921875" height="13" transform="matrix(1 0 0 1 -263 -328)"/></g><g><g><path fill="none" stroke="none"/><text fill="#000000" stroke="none" font-family="Arial" font-size="13px" font-style="normal" font-weight="normal" text-decoration="undefined" x="1022.745849609375" y="522.5" text-anchor="middle" dominant-baseline="central" transform="matrix(1 0 0 1 -263 -328)">«extend»</text></g></g><g><path fill="none" stroke="#000000" paint-order="fill stroke markers" d=" M 905 271 L 614 253" stroke-miterlimit="10" stroke-dasharray="3"/></g><g><path fill="none" stroke="#000000" paint-order="fill stroke markers" d=" M 624.4031744823166 249.4259321927981 L 614 253 L 623.883402805206 257.82890763941987" stroke-miterlimit="10" stroke-dasharray=""/></g><g><rect fill="#ffffff" stroke="none" x="1004" y="597" width="53.49169921875" height="13" transform="matrix(1 0 0 1 -263 -328)"/></g><g><g><path fill="none" stroke="none"/><text fill="#000000" stroke="none" font-family="Arial" font-size="13px" font-style="normal" font-weight="normal" text-decoration="undefined" x="1030.745849609375" y="603.5" text-anchor="middle" dominant-baseline="central" transform="matrix(1 0 0 1 -263 -328)">«extend»</text></g></g><g><path fill="none" stroke="#000000" paint-order="fill stroke markers" d=" M 460 272 L 421 345" stroke-miterlimit="10" stroke-dasharray="3"/></g><g><path fill="none" stroke="#000000" paint-order="fill stroke markers" d=" M 422.07593568801565 334.0527463537536 L 421 345 L 429.50167870974644 338.0199241324865" stroke-miterlimit="10" stroke-dasharray=""/></g><g><rect fill="#ffffff" stroke="none" x="702" y="643" width="55.65625" height="13" transform="matrix(1 0 0 1 -263 -328)"/></g><g><g><path fill="none" stroke="none"/><text fill="#000000" stroke="none" font-family="Arial" font-size="13px" font-style="normal" font-weight="normal" text-decoration="undefined" x="729.828125" y="649.5" text-anchor="middle" dominant-baseline="central" transform="matrix(1 0 0 1 -263 -328)">«include»</text></g></g><g><path fill="none" stroke="#000000" paint-order="fill stroke markers" d=" M 517 272 L 626 345" stroke-miterlimit="10" stroke-dasharray="3"/></g><g><path fill="none" stroke="#000000" paint-order="fill stroke markers" d=" M 615.2136602971159 342.84248387862647 L 626 345 L 619.8985003318516 335.8473117719665" stroke-miterlimit="10" stroke-dasharray=""/></g><g><rect fill="#ffffff" stroke="none" x="789" y="632" width="55.65625" height="13" transform="matrix(1 0 0 1 -263 -328)"/></g><g><g><path fill="none" stroke="none"/><text fill="#000000" stroke="none" font-family="Arial" font-size="13px" font-style="normal" font-weight="normal" text-decoration="undefined" x="816.828125" y="638.5" text-anchor="middle" dominant-baseline="central" transform="matrix(1 0 0 1 -263 -328)">«include»</text></g></g><g><path fill="none" stroke="#000000" paint-order="fill stroke markers" d=" M 337 240 L 162 236" stroke-miterlimit="10" stroke-dasharray=""/></g><g><path fill="#ffffff" stroke="none" paint-order="stroke fill markers" d=" M 233 112 L 358 112 L 368 122 L 368 216 L 233 216 L 233 112"/></g><g><path fill="none" stroke="#000000" paint-order="fill stroke markers" d=" M 233 112 L 358 112 L 368 122 L 368 216 L 233 216 L 233 112 L 233 112" stroke-miterlimit="10" stroke-dasharray=""/></g><g><path fill="none" stroke="#000000" paint-order="fill stroke markers" d=" M 358 112 L 358 122 L 368 122 L 358 112" stroke-miterlimit="10" stroke-dasharray=""/></g><g><g><path fill="none" stroke="none"/><text fill="#000000" stroke="none" font-family="Arial" font-size="13px" font-style="normal" font-weight="normal" text-decoration="undefined" x="564" y="445" text-anchor="middle" dominant-baseline="text-before-edge" transform="matrix(1 0 0 1 -263 -328)">Condizione:</text></g></g><g><g><path fill="none" stroke="none"/><text fill="#000000" stroke="none" font-family="Arial" font-size="13px" font-style="normal" font-weight="normal" text-decoration="undefined" x="564" y="460" text-anchor="middle" dominant-baseline="text-before-edge" transform="matrix(1 0 0 1 -263 -328)">L'utente ha inserito</text><text fill="#000000" stroke="none" font-family="Arial" font-size="13px" font-style="normal" font-weight="normal" text-decoration="undefined" x="564" y="473" text-anchor="middle" dominant-baseline="text-before-edge" transform="matrix(1 0 0 1 -263 -328)">una nuova password</text><text fill="#000000" stroke="none" font-family="Arial" font-size="13px" font-style="normal" font-weight="normal" text-decoration="undefined" x="564" y="486" text-anchor="middle" dominant-baseline="text-before-edge" transform="matrix(1 0 0 1 -263 -328)">che non corrisponde</text><text fill="#000000" stroke="none" font-family="Arial" font-size="13px" font-style="normal" font-weight="normal" text-decoration="undefined" x="564" y="499" text-anchor="middle" dominant-baseline="text-before-edge" transform="matrix(1 0 0 1 -263 -328)">ai criteri di sicurezza</text><text fill="#000000" stroke="none" font-family="Arial" font-size="13px" font-style="normal" font-weight="normal" text-decoration="undefined" x="564" y="512" text-anchor="middle" dominant-baseline="text-before-edge" transform="matrix(1 0 0 1 -263 -328)">stabiliti</text></g></g><g><path fill="none" stroke="#000000" paint-order="fill stroke markers" d=" M 370 164 L 476 164" stroke-miterlimit="10" stroke-dasharray="3"/></g><g><path fill="#ffffff" stroke="none" paint-order="stroke fill markers" d=" M 714 50 L 839 50 L 849 60 L 849 167 L 714 167 L 714 50"/></g><g><path fill="none" stroke="#000000" paint-order="fill stroke markers" d=" M 714 50 L 839 50 L 849 60 L 849 167 L 714 167 L 714 50 L 714 50" stroke-miterlimit="10" stroke-dasharray=""/></g><g><path fill="none" stroke="#000000" paint-order="fill stroke markers" d=" M 839 50 L 839 60 L 849 60 L 839 50" stroke-miterlimit="10" stroke-dasharray=""/></g><g><g><path fill="none" stroke="none"/><text fill="#000000" stroke="none" font-family="Arial" font-size="13px" font-style="normal" font-weight="normal" text-decoration="undefined" x="1045" y="383" text-anchor="middle" dominant-baseline="text-before-edge" transform="matrix(1 0 0 1 -263 -328)">Condizione:</text></g></g><g><g><path fill="none" stroke="none"/><text fill="#000000" stroke="none" font-family="Arial" font-size="13px" font-style="normal" font-weight="normal" text-decoration="undefined" x="1045" y="398" text-anchor="middle" dominant-baseline="text-before-edge" transform="matrix(1 0 0 1 -263 -328)">L'utente ha inserito</text><text fill="#000000" stroke="none" font-family="Arial" font-size="13px" font-style="normal" font-weight="normal" text-decoration="undefined" x="1045" y="411" text-anchor="middle" dominant-baseline="text-before-edge" transform="matrix(1 0 0 1 -263 -328)">una nuova password</text><text fill="#000000" stroke="none" font-family="Arial" font-size="13px" font-style="normal" font-weight="normal" text-decoration="undefined" x="1045" y="424" text-anchor="middle" dominant-baseline="text-before-edge" transform="matrix(1 0 0 1 -263 -328)">che non corrisponde</text><text fill="#000000" stroke="none" font-family="Arial" font-size="13px" font-style="normal" font-weight="normal" text-decoration="undefined" x="1045" y="437" text-anchor="middle" dominant-baseline="text-before-edge" transform="matrix(1 0 0 1 -263 -328)">al campo in cui deve</text><text fill="#000000" stroke="none" font-family="Arial" font-size="13px" font-style="normal" font-weight="normal" text-decoration="undefined" x="1045" y="450" text-anchor="middle" dominant-baseline="text-before-edge" transform="matrix(1 0 0 1 -263 -328)">confermare la stessa</text></g></g><g><path fill="none" stroke="#000000" paint-order="fill stroke markers" d=" M 773 169 L 767 210" stroke-miterlimit="10" stroke-dasharray="3"/></g><g><path fill="#ffffff" stroke="none" paint-order="stroke fill markers" d=" M 818 314 L 943 314 L 953 324 L 953 431 L 818 431 L 818 314"/></g><g><path fill="none" stroke="#000000" paint-order="fill stroke markers" d=" M 818 314 L 943 314 L 953 324 L 953 431 L 818 431 L 818 314 L 818 314" stroke-miterlimit="10" stroke-dasharray=""/></g><g><path fill="none" stroke="#000000" paint-order="fill stroke markers" d=" M 943 314 L 943 324 L 953 324 L 943 314" stroke-miterlimit="10" stroke-dasharray=""/></g><g><g><path fill="none" stroke="none"/><text fill="#000000" stroke="none" font-family="Arial" font-size="13px" font-style="normal" font-weight="normal" text-decoration="undefined" x="1149" y="667" text-anchor="middle" dominant-baseline="text-before-edge" transform="matrix(1 0 0 1 -263 -328)">Condizione:</text></g></g><g><g><path fill="none" stroke="none"/><text fill="#000000" stroke="none" font-family="Arial" font-size="13px" font-style="normal" font-weight="normal" text-decoration="undefined" x="1149" y="682" text-anchor="middle" dominant-baseline="text-before-edge" transform="matrix(1 0 0 1 -263 -328)">L'utente è acceduto</text><text fill="#000000" stroke="none" font-family="Arial" font-size="13px" font-style="normal" font-weight="normal" text-decoration="undefined" x="1149" y="695" text-anchor="middle" dominant-baseline="text-before-edge" transform="matrix(1 0 0 1 -263 -328)">tramite un link di</text><text fill="#000000" stroke="none" font-family="Arial" font-size="13px" font-style="normal" font-weight="normal" text-decoration="undefined" x="1149" y="708" text-anchor="middle" dominant-baseline="text-before-edge" transform="matrix(1 0 0 1 -263 -328)">impostazione</text><text fill="#000000" stroke="none" font-family="Arial" font-size="13px" font-style="normal" font-weight="normal" text-decoration="undefined" x="1149" y="721" text-anchor="middle" dominant-baseline="text-before-edge" transform="matrix(1 0 0 1 -263 -328)">password scaduto</text></g></g><g><path fill="none" stroke="#000000" paint-order="fill stroke markers" d=" M 817 313 L 759 262" stroke-miterlimit="10" stroke-dasharray="3"/></g></g></svg>