<svg version="1.1" xmlns="http://www.w3.org/2000/svg" xmlns:xlink="http://www.w3.org/1999/xlink" width="815" height="370"><defs/><g><g><rect fill="#C0C0C0" stroke="none" x="207" y="33" width="626" height="350" transform="matrix(1 0 0 1 -22 -16)" fill-opacity="0.2"/></g><g><rect fill="#ffffff" stroke="none" x="200" y="26" width="626" height="350" transform="matrix(1 0 0 1 -22 -16)"/></g><g><path fill="none" stroke="#000000" paint-order="fill stroke markers" d=" M 178 10 L 804 10 L 804 360 L 178 360 L 178 10 Z Z" stroke-miterlimit="10" stroke-dasharray=""/></g><g><g><path fill="none" stroke="none"/><text fill="#000000" stroke="none" font-family="Arial" font-size="13px" font-style="normal" font-weight="bold" text-decoration="undefined" x="513.5" y="39.5" text-anchor="middle" dominant-baseline="central" transform="matrix(1 0 0 1 -22 -16)">Sistema cloud</text></g></g><g><path fill="#ffffff" stroke="none" paint-order="stroke fill markers" d=" M 47.930751953125 175.85 C 47.930751953125 170.96227952 51.888554321125 167 56.770751953125 167 C 61.652949585125 167 65.610751953125 170.96227952 65.610751953125 175.85 C 65.610751953125 180.73772047999998 61.652949585125 184.7 56.770751953125 184.7 C 51.888554321125 184.7 47.930751953125 180.73772047999998 47.930751953125 175.85 Z"/></g><g><path fill="none" stroke="#000000" paint-order="fill stroke markers" d=" M 47.930751953125 175.85 C 47.930751953125 170.96227952 51.888554321125 167 56.770751953125 167 C 61.652949585125 167 65.610751953125 170.96227952 65.610751953125 175.85 C 65.610751953125 180.73772047999998 61.652949585125 184.7 56.770751953125 184.7 C 51.888554321125 184.7 47.930751953125 180.73772047999998 47.930751953125 175.85 Z" stroke-miterlimit="10" stroke-dasharray=""/></g><g><path fill="none" stroke="#000000" paint-order="fill stroke markers" d=" M 56.770751953125 184.7 L 56.770751953125 202.3" stroke-miterlimit="10" stroke-dasharray=""/></g><g><path fill="none" stroke="#000000" paint-order="fill stroke markers" d=" M 47.410751953125 191.3 L 66.130751953125 191.3" stroke-miterlimit="10" stroke-dasharray=""/></g><g><path fill="none" stroke="#000000" paint-order="fill stroke markers" d=" M 56.770751953125 202.3 L 43.770751953125 220" stroke-miterlimit="10" stroke-dasharray=""/></g><g><path fill="none" stroke="#000000" paint-order="fill stroke markers" d=" M 56.770751953125 202.3 L 69.770751953125 220" stroke-miterlimit="10" stroke-dasharray=""/></g><g><g><path fill="none" stroke="none"/><text fill="#000000" stroke="none" font-family="Arial" font-size="13px" font-style="normal" font-weight="bold" text-decoration="undefined" x="79.270751953125" y="250.5" text-anchor="middle" dominant-baseline="central" transform="matrix(1 0 0 1 -22 -16)">Super Admin</text></g></g><g><path fill="#C0C0C0" stroke="none" paint-order="stroke fill markers" d=" M 209 187 C 209 167.1177472 251.9806592 151 305 151 C 358.0193408 151 401 167.1177472 401 187 C 401 206.8822528 358.0193408 223 305 223 C 251.9806592 223 209 206.8822528 209 187 Z" fill-opacity="0.2"/></g><g><path fill="#ffffff" stroke="none" paint-order="stroke fill markers" d=" M 202 180 C 202 160.1177472 244.9806592 144 298 144 C 351.0193408 144 394 160.1177472 394 180 C 394 199.8822528 351.0193408 216 298 216 C 244.9806592 216 202 199.8822528 202 180 Z"/></g><g><path fill="none" stroke="#000000" paint-order="fill stroke markers" d=" M 202 180 C 202 160.1177472 244.9806592 144 298 144 C 351.0193408 144 394 160.1177472 394 180 C 394 199.8822528 351.0193408 216 298 216 C 244.9806592 216 202 199.8822528 202 180 Z" stroke-miterlimit="10" stroke-dasharray=""/></g><g><g><path fill="none" stroke="none"/><text fill="#000000" stroke="none" font-family="Arial" font-size="13px" font-style="normal" font-weight="bold" text-decoration="undefined" x="320" y="184" text-anchor="middle" dominant-baseline="central" transform="matrix(1 0 0 1 -22 -16)">UC80 -</text><text fill="#000000" stroke="none" font-family="Arial" font-size="13px" font-style="normal" font-weight="bold" text-decoration="undefined" x="320" y="197" text-anchor="middle" dominant-baseline="central" transform="matrix(1 0 0 1 -22 -16)">Autenticazione</text><text fill="#000000" stroke="none" font-family="Arial" font-size="13px" font-style="normal" font-weight="bold" text-decoration="undefined" x="320" y="210" text-anchor="middle" dominant-baseline="central" transform="matrix(1 0 0 1 -22 -16)">Gateway</text></g></g><g><path fill="#C0C0C0" stroke="none" paint-order="stroke fill markers" d=" M 569 201.5 C 569 186.8644528 615.5623808 175 673 175 C 730.4376192 175 777 186.8644528 777 201.5 C 777 216.1355472 730.4376192 228 673 228 C 615.5623808 228 569 216.1355472 569 201.5 Z" fill-opacity="0.2"/></g><g><path fill="#ffffff" stroke="none" paint-order="stroke fill markers" d=" M 562 194.5 C 562 179.8644528 608.5623808 168 666 168 C 723.4376192 168 770 179.8644528 770 194.5 C 770 209.1355472 723.4376192 221 666 221 C 608.5623808 221 562 209.1355472 562 194.5 Z"/></g><g><path fill="none" stroke="#000000" paint-order="fill stroke markers" d=" M 562 194.5 C 562 179.8644528 608.5623808 168 666 168 C 723.4376192 168 770 179.8644528 770 194.5 C 770 209.1355472 723.4376192 221 666 221 C 608.5623808 221 562 209.1355472 562 194.5 Z" stroke-miterlimit="10" stroke-dasharray=""/></g><g><g><path fill="none" stroke="none"/><text fill="#000000" stroke="none" font-family="Arial" font-size="13px" font-style="normal" font-weight="bold" text-decoration="undefined" x="688" y="205" text-anchor="middle" dominant-baseline="central" transform="matrix(1 0 0 1 -22 -16)">UC82 - Identificativo</text><text fill="#000000" stroke="none" font-family="Arial" font-size="13px" font-style="normal" font-weight="bold" text-decoration="undefined" x="688" y="218" text-anchor="middle" dominant-baseline="central" transform="matrix(1 0 0 1 -22 -16)">Gateway già utilizzato</text></g></g><g><path fill="none" stroke="#000000" paint-order="fill stroke markers" d=" M 105 201 L 201 190" stroke-miterlimit="10" stroke-dasharray=""/></g><g><path fill="none" stroke="#000000" paint-order="fill stroke markers" d=" M 465 94 L 370 143" stroke-miterlimit="10" stroke-dasharray="3"/></g><g><path fill="none" stroke="#000000" paint-order="fill stroke markers" d=" M 377.102350111007 134.60020102022204 L 370 143 L 380.96167474505893 142.08256510664924" stroke-miterlimit="10" stroke-dasharray=""/></g><g><rect fill="#ffffff" stroke="none" x="464" y="128" width="53.49169921875" height="13" transform="matrix(1 0 0 1 -22 -16)"/></g><g><g><path fill="none" stroke="none"/><text fill="#000000" stroke="none" font-family="Arial" font-size="13px" font-style="normal" font-weight="normal" text-decoration="undefined" x="490.745849609375" y="134.5" text-anchor="middle" dominant-baseline="central" transform="matrix(1 0 0 1 -22 -16)">«extend»</text></g></g><g><path fill="#C0C0C0" stroke="none" paint-order="stroke fill markers" d=" M 427 73.5 C 427 58.864452799999995 471.77152 47 527 47 C 582.22848 47 627 58.864452799999995 627 73.5 C 627 88.1355472 582.22848 100 527 100 C 471.77152 100 427 88.1355472 427 73.5 Z" fill-opacity="0.2"/></g><g><path fill="#ffffff" stroke="none" paint-order="stroke fill markers" d=" M 420 66.5 C 420 51.864452799999995 464.77152 40 520 40 C 575.22848 40 620 51.864452799999995 620 66.5 C 620 81.1355472 575.22848 93 520 93 C 464.77152 93 420 81.1355472 420 66.5 Z"/></g><g><path fill="none" stroke="#000000" paint-order="fill stroke markers" d=" M 420 66.5 C 420 51.864452799999995 464.77152 40 520 40 C 575.22848 40 620 51.864452799999995 620 66.5 C 620 81.1355472 575.22848 93 520 93 C 464.77152 93 420 81.1355472 420 66.5 Z" stroke-miterlimit="10" stroke-dasharray=""/></g><g><g><path fill="none" stroke="none"/><text fill="#000000" stroke="none" font-family="Arial" font-size="13px" font-style="normal" font-weight="bold" text-decoration="undefined" x="542" y="77" text-anchor="middle" dominant-baseline="central" transform="matrix(1 0 0 1 -22 -16)">UC81 - Certificato</text><text fill="#000000" stroke="none" font-family="Arial" font-size="13px" font-style="normal" font-weight="bold" text-decoration="undefined" x="542" y="90" text-anchor="middle" dominant-baseline="central" transform="matrix(1 0 0 1 -22 -16)">non valido</text></g></g><g><path fill="none" stroke="#000000" paint-order="fill stroke markers" d=" M 561 190 L 395 184" stroke-miterlimit="10" stroke-dasharray="3"/></g><g><path fill="none" stroke="#000000" paint-order="fill stroke markers" d=" M 405.30809489456647 180.16031516337432 L 395 184 L 405.0039909866596 188.5738566154652" stroke-miterlimit="10" stroke-dasharray=""/></g><g><rect fill="#ffffff" stroke="none" x="482" y="182" width="53.49169921875" height="13" transform="matrix(1 0 0 1 -22 -16)"/></g><g><g><path fill="none" stroke="none"/><text fill="#000000" stroke="none" font-family="Arial" font-size="13px" font-style="normal" font-weight="normal" text-decoration="undefined" x="508.745849609375" y="188.5" text-anchor="middle" dominant-baseline="central" transform="matrix(1 0 0 1 -22 -16)">«extend»</text></g></g><g><path fill="#C0C0C0" stroke="none" paint-order="stroke fill markers" d=" M 377 321.5 C 377 306.8644528 423.5623808 295 481 295 C 538.4376192 295 585 306.8644528 585 321.5 C 585 336.1355472 538.4376192 348 481 348 C 423.5623808 348 377 336.1355472 377 321.5 Z" fill-opacity="0.2"/></g><g><path fill="#ffffff" stroke="none" paint-order="stroke fill markers" d=" M 370 314.5 C 370 299.8644528 416.5623808 288 474 288 C 531.4376192 288 578 299.8644528 578 314.5 C 578 329.1355472 531.4376192 341 474 341 C 416.5623808 341 370 329.1355472 370 314.5 Z"/></g><g><path fill="none" stroke="#000000" paint-order="fill stroke markers" d=" M 370 314.5 C 370 299.8644528 416.5623808 288 474 288 C 531.4376192 288 578 299.8644528 578 314.5 C 578 329.1355472 531.4376192 341 474 341 C 416.5623808 341 370 329.1355472 370 314.5 Z" stroke-miterlimit="10" stroke-dasharray=""/></g><g><g><path fill="none" stroke="none"/><text fill="#000000" stroke="none" font-family="Arial" font-size="13px" font-style="normal" font-weight="bold" text-decoration="undefined" x="496" y="325" text-anchor="middle" dominant-baseline="central" transform="matrix(1 0 0 1 -22 -16)">UC34 - Gateway non</text><text fill="#000000" stroke="none" font-family="Arial" font-size="13px" font-style="normal" font-weight="bold" text-decoration="undefined" x="496" y="338" text-anchor="middle" dominant-baseline="central" transform="matrix(1 0 0 1 -22 -16)">raggiungibile</text></g></g><g><path fill="none" stroke="#000000" paint-order="fill stroke markers" d=" M 439 287 L 347 217" stroke-miterlimit="10" stroke-dasharray="3"/></g><g><path fill="none" stroke="#000000" paint-order="fill stroke markers" d=" M 357.63670316621153 219.80366648407139 L 347 217 L 352.5387933552243 226.50377652136893" stroke-miterlimit="10" stroke-dasharray=""/></g><g><rect fill="#ffffff" stroke="none" x="370" y="285" width="53.49169921875" height="13" transform="matrix(1 0 0 1 -22 -16)"/></g><g><g><path fill="none" stroke="none"/><text fill="#000000" stroke="none" font-family="Arial" font-size="13px" font-style="normal" font-weight="normal" text-decoration="undefined" x="396.745849609375" y="291.5" text-anchor="middle" dominant-baseline="central" transform="matrix(1 0 0 1 -22 -16)">«extend»</text></g></g><g><path fill="#ffffff" stroke="none" paint-order="stroke fill markers" d=" M 202 32 L 335 32 L 345 42 L 345 95 L 202 95 L 202 32"/></g><g><path fill="none" stroke="#000000" paint-order="fill stroke markers" d=" M 202 32 L 335 32 L 345 42 L 345 95 L 202 95 L 202 32 L 202 32" stroke-miterlimit="10" stroke-dasharray=""/></g><g><path fill="none" stroke="#000000" paint-order="fill stroke markers" d=" M 335 32 L 335 42 L 345 42 L 335 32" stroke-miterlimit="10" stroke-dasharray=""/></g><g><g><path fill="none" stroke="none"/><text fill="#000000" stroke="none" font-family="Arial" font-size="13px" font-style="normal" font-weight="normal" text-decoration="undefined" x="229" y="53" text-anchor="start" dominant-baseline="text-before-edge" transform="matrix(1 0 0 1 -22 -16)">Condizione: il</text><text fill="#000000" stroke="none" font-family="Arial" font-size="13px" font-style="normal" font-weight="normal" text-decoration="undefined" x="229" y="66" text-anchor="start" dominant-baseline="text-before-edge" transform="matrix(1 0 0 1 -22 -16)">certificato di</text><text fill="#000000" stroke="none" font-family="Arial" font-size="13px" font-style="normal" font-weight="normal" text-decoration="undefined" x="229" y="79" text-anchor="start" dominant-baseline="text-before-edge" transform="matrix(1 0 0 1 -22 -16)">autenticazione inserito</text><text fill="#000000" stroke="none" font-family="Arial" font-size="13px" font-style="normal" font-weight="normal" text-decoration="undefined" x="229" y="92" text-anchor="start" dominant-baseline="text-before-edge" transform="matrix(1 0 0 1 -22 -16)">non è valido</text></g></g><g><path fill="none" stroke="#000000" paint-order="fill stroke markers" d=" M 347 92 L 417 118" stroke-miterlimit="10" stroke-dasharray="3"/></g><g><path fill="#ffffff" stroke="none" paint-order="stroke fill markers" d=" M 618 88 L 767 88 L 777 98 L 777 151 L 618 151 L 618 88"/></g><g><path fill="none" stroke="#000000" paint-order="fill stroke markers" d=" M 618 88 L 767 88 L 777 98 L 777 151 L 618 151 L 618 88 L 618 88" stroke-miterlimit="10" stroke-dasharray=""/></g><g><path fill="none" stroke="#000000" paint-order="fill stroke markers" d=" M 767 88 L 767 98 L 777 98 L 767 88" stroke-miterlimit="10" stroke-dasharray=""/></g><g><g><path fill="none" stroke="none"/><text fill="#000000" stroke="none" font-family="Arial" font-size="13px" font-style="normal" font-weight="normal" text-decoration="undefined" x="645" y="109" text-anchor="start" dominant-baseline="text-before-edge" transform="matrix(1 0 0 1 -22 -16)">Condizione; l'identificativo</text><text fill="#000000" stroke="none" font-family="Arial" font-size="13px" font-style="normal" font-weight="normal" text-decoration="undefined" x="645" y="122" text-anchor="start" dominant-baseline="text-before-edge" transform="matrix(1 0 0 1 -22 -16)">del gateway inserito è già</text><text fill="#000000" stroke="none" font-family="Arial" font-size="13px" font-style="normal" font-weight="normal" text-decoration="undefined" x="645" y="135" text-anchor="start" dominant-baseline="text-before-edge" transform="matrix(1 0 0 1 -22 -16)">stato utilizzato</text></g></g><g><path fill="none" stroke="#000000" paint-order="fill stroke markers" d=" M 617 145 L 478 187" stroke-miterlimit="10" stroke-dasharray="3"/></g><g><path fill="#ffffff" stroke="none" paint-order="stroke fill markers" d=" M 586 240 L 735 240 L 745 250 L 745 290 L 586 290 L 586 240"/></g><g><path fill="none" stroke="#000000" paint-order="fill stroke markers" d=" M 586 240 L 735 240 L 745 250 L 745 290 L 586 290 L 586 240 L 586 240" stroke-miterlimit="10" stroke-dasharray=""/></g><g><path fill="none" stroke="#000000" paint-order="fill stroke markers" d=" M 735 240 L 735 250 L 745 250 L 735 240" stroke-miterlimit="10" stroke-dasharray=""/></g><g><g><path fill="none" stroke="none"/><text fill="#000000" stroke="none" font-family="Arial" font-size="13px" font-style="normal" font-weight="normal" text-decoration="undefined" x="613" y="261" text-anchor="start" dominant-baseline="text-before-edge" transform="matrix(1 0 0 1 -22 -16)">Condizione: il gateway</text><text fill="#000000" stroke="none" font-family="Arial" font-size="13px" font-style="normal" font-weight="normal" text-decoration="undefined" x="613" y="274" text-anchor="start" dominant-baseline="text-before-edge" transform="matrix(1 0 0 1 -22 -16)">non è raggiungibile dal</text><text fill="#000000" stroke="none" font-family="Arial" font-size="13px" font-style="normal" font-weight="normal" text-decoration="undefined" x="613" y="287" text-anchor="start" dominant-baseline="text-before-edge" transform="matrix(1 0 0 1 -22 -16)">sistema</text></g></g><g><path fill="none" stroke="#000000" paint-order="fill stroke markers" d=" M 585 261 L 393 252" stroke-miterlimit="10" stroke-dasharray="3"/></g></g></svg>