<svg version="1.1" xmlns="http://www.w3.org/2000/svg" xmlns:xlink="http://www.w3.org/1999/xlink" width="725" height="356"><defs/><g><g><rect fill="#C0C0C0" stroke="none" x="205" y="33" width="544" height="336" transform="matrix(1 0 0 1 -28 -16)" fill-opacity="0.2"/></g><g><rect fill="#ffffff" stroke="none" x="198" y="26" width="544" height="336" transform="matrix(1 0 0 1 -28 -16)"/></g><g><path fill="none" stroke="#000000" paint-order="fill stroke markers" d=" M 170 10 L 714 10 L 714 346 L 170 346 L 170 10 Z Z" stroke-miterlimit="10" stroke-dasharray=""/></g><g><g><path fill="none" stroke="none"/><text fill="#000000" stroke="none" font-family="Arial" font-size="13px" font-style="normal" font-weight="bold" text-decoration="undefined" x="470.5" y="39.5" text-anchor="middle" dominant-baseline="central" transform="matrix(1 0 0 1 -28 -16)">Sistema cloud</text></g></g><g><path fill="#ffffff" stroke="none" paint-order="stroke fill markers" d=" M 47.930751953125 175.85 C 47.930751953125 170.96227952 51.888554321125 167 56.770751953125 167 C 61.652949585125 167 65.610751953125 170.96227952 65.610751953125 175.85 C 65.610751953125 180.73772047999998 61.652949585125 184.7 56.770751953125 184.7 C 51.888554321125 184.7 47.930751953125 180.73772047999998 47.930751953125 175.85 Z"/></g><g><path fill="none" stroke="#000000" paint-order="fill stroke markers" d=" M 47.930751953125 175.85 C 47.930751953125 170.96227952 51.888554321125 167 56.770751953125 167 C 61.652949585125 167 65.610751953125 170.96227952 65.610751953125 175.85 C 65.610751953125 180.73772047999998 61.652949585125 184.7 56.770751953125 184.7 C 51.888554321125 184.7 47.930751953125 180.73772047999998 47.930751953125 175.85 Z" stroke-miterlimit="10" stroke-dasharray=""/></g><g><path fill="none" stroke="#000000" paint-order="fill stroke markers" d=" M 56.770751953125 184.7 L 56.770751953125 202.3" stroke-miterlimit="10" stroke-dasharray=""/></g><g><path fill="none" stroke="#000000" paint-order="fill stroke markers" d=" M 47.410751953125 191.3 L 66.130751953125 191.3" stroke-miterlimit="10" stroke-dasharray=""/></g><g><path fill="none" stroke="#000000" paint-order="fill stroke markers" d=" M 56.770751953125 202.3 L 43.770751953125 220" stroke-miterlimit="10" stroke-dasharray=""/></g><g><path fill="none" stroke="#000000" paint-order="fill stroke markers" d=" M 56.770751953125 202.3 L 69.770751953125 220" stroke-miterlimit="10" stroke-dasharray=""/></g><g><g><path fill="none" stroke="none"/><text fill="#000000" stroke="none" font-family="Arial" font-size="13px" font-style="normal" font-weight="bold" text-decoration="undefined" x="85.270751953125" y="250.5" text-anchor="middle" dominant-baseline="central" transform="matrix(1 0 0 1 -28 -16)">Tenant admin</text></g></g><g><path fill="#C0C0C0" stroke="none" paint-order="stroke fill markers" d=" M 220 213 C 220 193.1177472 262.9806592 177 316 177 C 369.0193408 177 412 193.1177472 412 213 C 412 232.8822528 369.0193408 249 316 249 C 262.9806592 249 220 232.8822528 220 213 Z" fill-opacity="0.2"/></g><g><path fill="#ffffff" stroke="none" paint-order="stroke fill markers" d=" M 213 206 C 213 186.1177472 255.9806592 170 309 170 C 362.0193408 170 405 186.1177472 405 206 C 405 225.8822528 362.0193408 242 309 242 C 255.9806592 242 213 225.8822528 213 206 Z"/></g><g><path fill="none" stroke="#000000" paint-order="fill stroke markers" d=" M 213 206 C 213 186.1177472 255.9806592 170 309 170 C 362.0193408 170 405 186.1177472 405 206 C 405 225.8822528 362.0193408 242 309 242 C 255.9806592 242 213 225.8822528 213 206 Z" stroke-miterlimit="10" stroke-dasharray=""/></g><g><g><path fill="none" stroke="none"/><text fill="#000000" stroke="none" font-family="Arial" font-size="13px" font-style="normal" font-weight="bold" text-decoration="undefined" x="337" y="210" text-anchor="middle" dominant-baseline="central" transform="matrix(1 0 0 1 -28 -16)">UC80 -</text><text fill="#000000" stroke="none" font-family="Arial" font-size="13px" font-style="normal" font-weight="bold" text-decoration="undefined" x="337" y="223" text-anchor="middle" dominant-baseline="central" transform="matrix(1 0 0 1 -28 -16)">Autenticazione</text><text fill="#000000" stroke="none" font-family="Arial" font-size="13px" font-style="normal" font-weight="bold" text-decoration="undefined" x="337" y="236" text-anchor="middle" dominant-baseline="central" transform="matrix(1 0 0 1 -28 -16)">Gateway</text></g></g><g><path fill="#C0C0C0" stroke="none" paint-order="stroke fill markers" d=" M 489 114.5 C 489 99.8644528 533.77152 88 589 88 C 644.22848 88 689 99.8644528 689 114.5 C 689 129.1355472 644.22848 141 589 141 C 533.77152 141 489 129.1355472 489 114.5 Z" fill-opacity="0.2"/></g><g><path fill="#ffffff" stroke="none" paint-order="stroke fill markers" d=" M 482 107.5 C 482 92.8644528 526.77152 81 582 81 C 637.22848 81 682 92.8644528 682 107.5 C 682 122.13554719999999 637.22848 134 582 134 C 526.77152 134 482 122.13554719999999 482 107.5 Z"/></g><g><path fill="none" stroke="#000000" paint-order="fill stroke markers" d=" M 482 107.5 C 482 92.8644528 526.77152 81 582 81 C 637.22848 81 682 92.8644528 682 107.5 C 682 122.13554719999999 637.22848 134 582 134 C 526.77152 134 482 122.13554719999999 482 107.5 Z" stroke-miterlimit="10" stroke-dasharray=""/></g><g><g><path fill="none" stroke="none"/><text fill="#000000" stroke="none" font-family="Arial" font-size="13px" font-style="normal" font-weight="bold" text-decoration="undefined" x="610" y="118" text-anchor="middle" dominant-baseline="central" transform="matrix(1 0 0 1 -28 -16)">UC81 - Certificato</text><text fill="#000000" stroke="none" font-family="Arial" font-size="13px" font-style="normal" font-weight="bold" text-decoration="undefined" x="610" y="131" text-anchor="middle" dominant-baseline="central" transform="matrix(1 0 0 1 -28 -16)">non valido</text></g></g><g><path fill="#C0C0C0" stroke="none" paint-order="stroke fill markers" d=" M 489 213 C 489 188.147184 535.5623808 168 593 168 C 650.4376192 168 697 188.147184 697 213 C 697 237.852816 650.4376192 258 593 258 C 535.5623808 258 489 237.852816 489 213 Z" fill-opacity="0.2"/></g><g><path fill="#ffffff" stroke="none" paint-order="stroke fill markers" d=" M 482 206 C 482 181.147184 528.5623808 161 586 161 C 643.4376192 161 690 181.147184 690 206 C 690 230.852816 643.4376192 251 586 251 C 528.5623808 251 482 230.852816 482 206 Z"/></g><g><path fill="none" stroke="#000000" paint-order="fill stroke markers" d=" M 482 206 C 482 181.147184 528.5623808 161 586 161 C 643.4376192 161 690 181.147184 690 206 C 690 230.852816 643.4376192 251 586 251 C 528.5623808 251 482 230.852816 482 206 Z" stroke-miterlimit="10" stroke-dasharray=""/></g><g><g><path fill="none" stroke="none"/><text fill="#000000" stroke="none" font-family="Arial" font-size="13px" font-style="normal" font-weight="bold" text-decoration="undefined" x="614" y="216.5" text-anchor="middle" dominant-baseline="central" transform="matrix(1 0 0 1 -28 -16)">UC82 - Identificativo</text><text fill="#000000" stroke="none" font-family="Arial" font-size="13px" font-style="normal" font-weight="bold" text-decoration="undefined" x="614" y="229.5" text-anchor="middle" dominant-baseline="central" transform="matrix(1 0 0 1 -28 -16)">Gateway già utilizzato</text></g></g><g><path fill="#C0C0C0" stroke="none" paint-order="stroke fill markers" d=" M 489 306.5 C 489 291.8644528 535.5623808 280 593 280 C 650.4376192 280 697 291.8644528 697 306.5 C 697 321.1355472 650.4376192 333 593 333 C 535.5623808 333 489 321.1355472 489 306.5 Z" fill-opacity="0.2"/></g><g><path fill="#ffffff" stroke="none" paint-order="stroke fill markers" d=" M 482 299.5 C 482 284.8644528 528.5623808 273 586 273 C 643.4376192 273 690 284.8644528 690 299.5 C 690 314.1355472 643.4376192 326 586 326 C 528.5623808 326 482 314.1355472 482 299.5 Z"/></g><g><path fill="none" stroke="#000000" paint-order="fill stroke markers" d=" M 482 299.5 C 482 284.8644528 528.5623808 273 586 273 C 643.4376192 273 690 284.8644528 690 299.5 C 690 314.1355472 643.4376192 326 586 326 C 528.5623808 326 482 314.1355472 482 299.5 Z" stroke-miterlimit="10" stroke-dasharray=""/></g><g><g><path fill="none" stroke="none"/><text fill="#000000" stroke="none" font-family="Arial" font-size="13px" font-style="normal" font-weight="bold" text-decoration="undefined" x="614" y="310" text-anchor="middle" dominant-baseline="central" transform="matrix(1 0 0 1 -28 -16)">UC34 - Gateway non</text><text fill="#000000" stroke="none" font-family="Arial" font-size="13px" font-style="normal" font-weight="bold" text-decoration="undefined" x="614" y="323" text-anchor="middle" dominant-baseline="central" transform="matrix(1 0 0 1 -28 -16)">raggiungibile</text></g></g><g><path fill="none" stroke="#000000" paint-order="fill stroke markers" d=" M 406 171 L 505 135" stroke-miterlimit="10" stroke-dasharray="3"/></g><g><path fill="none" stroke="#000000" paint-order="fill stroke markers" d=" M 496.88775849581225 142.42910073816034 L 505 135 L 494.0106115116947 134.51694653183708" stroke-miterlimit="10" stroke-dasharray=""/></g><g><rect fill="#ffffff" stroke="none" x="446" y="134" width="53.49169921875" height="13" transform="matrix(1 0 0 1 -28 -16)"/></g><g><g><path fill="none" stroke="none"/><text fill="#000000" stroke="none" font-family="Arial" font-size="13px" font-style="normal" font-weight="normal" text-decoration="undefined" x="472.745849609375" y="140.5" text-anchor="middle" dominant-baseline="central" transform="matrix(1 0 0 1 -28 -16)">«extend»</text></g></g><g><path fill="none" stroke="#000000" paint-order="fill stroke markers" d=" M 406 206 L 481 206" stroke-miterlimit="10" stroke-dasharray="3"/></g><g><path fill="none" stroke="#000000" paint-order="fill stroke markers" d=" M 470.83732514237585 210.209517756016 L 481 206 L 470.83732514237585 201.790482243984" stroke-miterlimit="10" stroke-dasharray=""/></g><g><rect fill="#ffffff" stroke="none" x="445" y="186" width="53.49169921875" height="13" transform="matrix(1 0 0 1 -28 -16)"/></g><g><g><path fill="none" stroke="none"/><text fill="#000000" stroke="none" font-family="Arial" font-size="13px" font-style="normal" font-weight="normal" text-decoration="undefined" x="471.745849609375" y="192.5" text-anchor="middle" dominant-baseline="central" transform="matrix(1 0 0 1 -28 -16)">«extend»</text></g></g><g><path fill="none" stroke="#000000" paint-order="fill stroke markers" d=" M 406 239 L 506 272" stroke-miterlimit="10" stroke-dasharray="3"/></g><g><path fill="none" stroke="#000000" paint-order="fill stroke markers" d=" M 495.03006484587763 272.81272548523515 L 506 272 L 497.6684007614905 264.8177681651963" stroke-miterlimit="10" stroke-dasharray=""/></g><g><rect fill="#ffffff" stroke="none" x="467" y="236" width="53.49169921875" height="13" transform="matrix(1 0 0 1 -28 -16)"/></g><g><g><path fill="none" stroke="none"/><text fill="#000000" stroke="none" font-family="Arial" font-size="13px" font-style="normal" font-weight="normal" text-decoration="undefined" x="493.745849609375" y="242.5" text-anchor="middle" dominant-baseline="central" transform="matrix(1 0 0 1 -28 -16)">«extend»</text></g></g><g><path fill="none" stroke="#000000" paint-order="fill stroke markers" d=" M 105 206 L 212 206" stroke-miterlimit="10" stroke-dasharray=""/></g></g></svg>