<svg version="1.1" xmlns="http://www.w3.org/2000/svg" xmlns:xlink="http://www.w3.org/1999/xlink" width="828.47265625" height="316"><defs/><g><g><rect fill="#C0C0C0" stroke="none" x="276" y="271" width="608" height="296" transform="matrix(1 0 0 1 -155 -254)" fill-opacity="0.2"/></g><g><rect fill="#ffffff" stroke="none" x="269" y="264" width="608" height="296" transform="matrix(1 0 0 1 -155 -254)"/></g><g><path fill="none" stroke="#000000" paint-order="fill stroke markers" d=" M 114 10 L 722 10 L 722 306 L 114 306 L 114 10 Z Z" stroke-miterlimit="10" stroke-dasharray=""/></g><g><g><path fill="none" stroke="none"/><text fill="#000000" stroke="none" font-family="Arial" font-size="13px" font-style="normal" font-weight="bold" text-decoration="undefined" x="573.5" y="277.5" text-anchor="middle" dominant-baseline="central" transform="matrix(1 0 0 1 -155 -254)">Sistema cloud</text></g></g><g><path fill="#ffffff" stroke="none" paint-order="stroke fill markers" d=" M 47.930751953125 64.85000000000002 C 47.930751953125 59.96227952000004 51.888554321124985 56 56.770751953125 56 C 61.652949585125015 56 65.610751953125 59.96227952000004 65.610751953125 64.85000000000002 C 65.610751953125 69.73772048000001 61.652949585125015 73.69999999999999 56.770751953125 73.69999999999999 C 51.888554321124985 73.69999999999999 47.930751953125 69.73772048000001 47.930751953125 64.85000000000002 Z"/></g><g><path fill="none" stroke="#000000" paint-order="fill stroke markers" d=" M 47.930751953125 64.85000000000002 C 47.930751953125 59.96227952000004 51.888554321124985 56 56.770751953125 56 C 61.652949585125015 56 65.610751953125 59.96227952000004 65.610751953125 64.85000000000002 C 65.610751953125 69.73772048000001 61.652949585125015 73.69999999999999 56.770751953125 73.69999999999999 C 51.888554321124985 73.69999999999999 47.930751953125 69.73772048000001 47.930751953125 64.85000000000002 Z" stroke-miterlimit="10" stroke-dasharray=""/></g><g><path fill="none" stroke="#000000" paint-order="fill stroke markers" d=" M 56.770751953125 73.69999999999999 L 56.770751953125 91.30000000000001" stroke-miterlimit="10" stroke-dasharray=""/></g><g><path fill="none" stroke="#000000" paint-order="fill stroke markers" d=" M 47.410751953124986 80.30000000000001 L 66.13075195312501 80.30000000000001" stroke-miterlimit="10" stroke-dasharray=""/></g><g><path fill="none" stroke="#000000" paint-order="fill stroke markers" d=" M 56.770751953125 91.30000000000001 L 43.770751953125 109" stroke-miterlimit="10" stroke-dasharray=""/></g><g><path fill="none" stroke="#000000" paint-order="fill stroke markers" d=" M 56.770751953125 91.30000000000001 L 69.770751953125 109" stroke-miterlimit="10" stroke-dasharray=""/></g><g><g><path fill="none" stroke="none"/><text fill="#000000" stroke="none" font-family="Arial" font-size="13px" font-style="normal" font-weight="bold" text-decoration="undefined" x="212.270751953125" y="377.5" text-anchor="middle" dominant-baseline="central" transform="matrix(1 0 0 1 -155 -254)">Super Admin</text></g></g><g><path fill="#C0C0C0" stroke="none" paint-order="stroke fill markers" d=" M 353 101 C 353 76.14718399999998 387.0263552 56 429 56 C 470.9736448 56 505 76.14718399999998 505 101 C 505 125.85281600000002 470.9736448 146 429 146 C 387.0263552 146 353 125.85281600000002 353 101 Z" fill-opacity="0.2"/></g><g><path fill="#ffffff" stroke="none" paint-order="stroke fill markers" d=" M 346 94 C 346 69.14718399999998 380.0263552 49 422 49 C 463.9736448 49 498 69.14718399999998 498 94 C 498 118.85281600000002 463.9736448 139 422 139 C 380.0263552 139 346 118.85281600000002 346 94 Z"/></g><g><path fill="none" stroke="#000000" paint-order="fill stroke markers" d=" M 346 94 C 346 69.14718399999998 380.0263552 49 422 49 C 463.9736448 49 498 69.14718399999998 498 94 C 498 118.85281600000002 463.9736448 139 422 139 C 380.0263552 139 346 118.85281600000002 346 94 Z" stroke-miterlimit="10" stroke-dasharray=""/></g><g><g><path fill="none" stroke="none"/><text fill="#000000" stroke="none" font-family="Arial" font-size="13px" font-style="normal" font-weight="bold" text-decoration="undefined" x="577" y="329.5" text-anchor="middle" dominant-baseline="central" transform="matrix(1 0 0 1 -155 -254)">UC81 -</text><text fill="#000000" stroke="none" font-family="Arial" font-size="13px" font-style="normal" font-weight="bold" text-decoration="undefined" x="577" y="342.5" text-anchor="middle" dominant-baseline="central" transform="matrix(1 0 0 1 -155 -254)">Associazione</text><text fill="#000000" stroke="none" font-family="Arial" font-size="13px" font-style="normal" font-weight="bold" text-decoration="undefined" x="577" y="355.5" text-anchor="middle" dominant-baseline="central" transform="matrix(1 0 0 1 -155 -254)">Gateway –</text><text fill="#000000" stroke="none" font-family="Arial" font-size="13px" font-style="normal" font-weight="bold" text-decoration="undefined" x="577" y="368.5" text-anchor="middle" dominant-baseline="central" transform="matrix(1 0 0 1 -155 -254)">Tenant</text></g></g><g><path fill="#C0C0C0" stroke="none" paint-order="stroke fill markers" d=" M 588 205 C 588 185.1177472 614.862912 169 648 169 C 681.137088 169 708 185.1177472 708 205 C 708 224.8822528 681.137088 241 648 241 C 614.862912 241 588 224.8822528 588 205 Z" fill-opacity="0.2"/></g><g><path fill="#ffffff" stroke="none" paint-order="stroke fill markers" d=" M 581 198 C 581 178.1177472 607.862912 162 641 162 C 674.137088 162 701 178.1177472 701 198 C 701 217.8822528 674.137088 234 641 234 C 607.862912 234 581 217.8822528 581 198 Z"/></g><g><path fill="none" stroke="#000000" paint-order="fill stroke markers" d=" M 581 198 C 581 178.1177472 607.862912 162 641 162 C 674.137088 162 701 178.1177472 701 198 C 701 217.8822528 674.137088 234 641 234 C 607.862912 234 581 217.8822528 581 198 Z" stroke-miterlimit="10" stroke-dasharray=""/></g><g><g><path fill="none" stroke="none"/><text fill="#000000" stroke="none" font-family="Arial" font-size="13px" font-style="normal" font-weight="bold" text-decoration="undefined" x="796" y="440" text-anchor="middle" dominant-baseline="central" transform="matrix(1 0 0 1 -155 -254)">UC81.1 -</text><text fill="#000000" stroke="none" font-family="Arial" font-size="13px" font-style="normal" font-weight="bold" text-decoration="undefined" x="796" y="453" text-anchor="middle" dominant-baseline="central" transform="matrix(1 0 0 1 -155 -254)">Selezione</text><text fill="#000000" stroke="none" font-family="Arial" font-size="13px" font-style="normal" font-weight="bold" text-decoration="undefined" x="796" y="466" text-anchor="middle" dominant-baseline="central" transform="matrix(1 0 0 1 -155 -254)">Gateway</text></g></g><g><path fill="#C0C0C0" stroke="none" paint-order="stroke fill markers" d=" M 396 227.5 C 396 212.86445279999998 437.1897984 201 488 201 C 538.8102016 201 580 212.86445279999998 580 227.5 C 580 242.13554720000002 538.8102016 254 488 254 C 437.1897984 254 396 242.13554720000002 396 227.5 Z" fill-opacity="0.2"/></g><g><path fill="#ffffff" stroke="none" paint-order="stroke fill markers" d=" M 389 220.5 C 389 205.86445279999998 430.1897984 194 481 194 C 531.8102016 194 573 205.86445279999998 573 220.5 C 573 235.13554720000002 531.8102016 247 481 247 C 430.1897984 247 389 235.13554720000002 389 220.5 Z"/></g><g><path fill="none" stroke="#000000" paint-order="fill stroke markers" d=" M 389 220.5 C 389 205.86445279999998 430.1897984 194 481 194 C 531.8102016 194 573 205.86445279999998 573 220.5 C 573 235.13554720000002 531.8102016 247 481 247 C 430.1897984 247 389 235.13554720000002 389 220.5 Z" stroke-miterlimit="10" stroke-dasharray=""/></g><g><g><path fill="none" stroke="none"/><text fill="#000000" stroke="none" font-family="Arial" font-size="13px" font-style="normal" font-weight="bold" text-decoration="undefined" x="636" y="469" text-anchor="middle" dominant-baseline="central" transform="matrix(1 0 0 1 -155 -254)">UC82 - Selezione</text><text fill="#000000" stroke="none" font-family="Arial" font-size="13px" font-style="normal" font-weight="bold" text-decoration="undefined" x="636" y="482" text-anchor="middle" dominant-baseline="central" transform="matrix(1 0 0 1 -155 -254)">tenant</text></g></g><g><path fill="#ffffff" stroke="none" paint-order="stroke fill markers" d=" M 776.896328125 63.85000000000002 C 776.896328125 58.96227952000004 780.854130493 55 785.736328125 55 C 790.618525757 55 794.576328125 58.96227952000004 794.576328125 63.85000000000002 C 794.576328125 68.73772048000001 790.618525757 72.69999999999999 785.736328125 72.69999999999999 C 780.854130493 72.69999999999999 776.896328125 68.73772048000001 776.896328125 63.85000000000002 Z"/></g><g><path fill="none" stroke="#000000" paint-order="fill stroke markers" d=" M 776.896328125 63.85000000000002 C 776.896328125 58.96227952000004 780.854130493 55 785.736328125 55 C 790.618525757 55 794.576328125 58.96227952000004 794.576328125 63.85000000000002 C 794.576328125 68.73772048000001 790.618525757 72.69999999999999 785.736328125 72.69999999999999 C 780.854130493 72.69999999999999 776.896328125 68.73772048000001 776.896328125 63.85000000000002 Z" stroke-miterlimit="10" stroke-dasharray=""/></g><g><path fill="none" stroke="#000000" paint-order="fill stroke markers" d=" M 785.736328125 72.69999999999999 L 785.736328125 90.30000000000001" stroke-miterlimit="10" stroke-dasharray=""/></g><g><path fill="none" stroke="#000000" paint-order="fill stroke markers" d=" M 776.376328125 79.30000000000001 L 795.096328125 79.30000000000001" stroke-miterlimit="10" stroke-dasharray=""/></g><g><path fill="none" stroke="#000000" paint-order="fill stroke markers" d=" M 785.736328125 90.30000000000001 L 772.736328125 108" stroke-miterlimit="10" stroke-dasharray=""/></g><g><path fill="none" stroke="#000000" paint-order="fill stroke markers" d=" M 785.736328125 90.30000000000001 L 798.736328125 108" stroke-miterlimit="10" stroke-dasharray=""/></g><g><g><path fill="none" stroke="none"/><text fill="#000000" stroke="none" font-family="Arial" font-size="13px" font-style="normal" font-weight="bold" text-decoration="undefined" x="941.236328125" y="376.5" text-anchor="middle" dominant-baseline="central" transform="matrix(1 0 0 1 -155 -254)">Gateway</text></g></g><g><path fill="none" stroke="#000000" paint-order="fill stroke markers" d=" M 105 95 L 345 94" stroke-miterlimit="10" stroke-dasharray=""/></g><g><path fill="none" stroke="#000000" paint-order="fill stroke markers" d=" M 753 94 L 499 94" stroke-miterlimit="10" stroke-dasharray=""/></g><g><path fill="none" stroke="#000000" paint-order="fill stroke markers" d=" M 444 140 L 468 193" stroke-miterlimit="10" stroke-dasharray="3"/></g><g><path fill="none" stroke="#000000" paint-order="fill stroke markers" d=" M 459.9731420628551 185.47872672635185 L 468 193 L 467.64249765597754 182.00581098607006" stroke-miterlimit="10" stroke-dasharray=""/></g><g><rect fill="#ffffff" stroke="none" x="615" y="412" width="55.65625" height="13" transform="matrix(1 0 0 1 -155 -254)"/></g><g><g><path fill="none" stroke="none"/><text fill="#000000" stroke="none" font-family="Arial" font-size="13px" font-style="normal" font-weight="normal" text-decoration="undefined" x="642.828125" y="418.5" text-anchor="middle" dominant-baseline="central" transform="matrix(1 0 0 1 -155 -254)">«include»</text></g></g><g><path fill="none" stroke="#000000" paint-order="fill stroke markers" d=" M 499 131 L 580 169" stroke-miterlimit="10" stroke-dasharray="3"/></g><g><path fill="none" stroke="#000000" paint-order="fill stroke markers" d=" M 569.0116125572371 168.4946868221283 L 580 169 L 572.5873470996132 160.87272635022123" stroke-miterlimit="10" stroke-dasharray=""/></g><g><rect fill="#ffffff" stroke="none" x="676" y="385" width="55.65625" height="13" transform="matrix(1 0 0 1 -155 -254)"/></g><g><g><path fill="none" stroke="none"/><text fill="#000000" stroke="none" font-family="Arial" font-size="13px" font-style="normal" font-weight="normal" text-decoration="undefined" x="703.828125" y="391.5" text-anchor="middle" dominant-baseline="central" transform="matrix(1 0 0 1 -155 -254)">«include»</text></g></g><g><path fill="none" stroke="#000000" paint-order="fill stroke markers" d=" M 345 124 L 263 157" stroke-miterlimit="10" stroke-dasharray="3"/></g><g><path fill="none" stroke="#000000" paint-order="fill stroke markers" d=" M 270.8562734829942 149.30071646447527 L 263 157 L 273.99943985292873 157.1110086564338" stroke-miterlimit="10" stroke-dasharray=""/></g><g><rect fill="#ffffff" stroke="none" x="432" y="375" width="53.49169921875" height="13" transform="matrix(1 0 0 1 -155 -254)"/></g><g><g><path fill="none" stroke="none"/><text fill="#000000" stroke="none" font-family="Arial" font-size="13px" font-style="normal" font-weight="normal" text-decoration="undefined" x="458.745849609375" y="381.5" text-anchor="middle" dominant-baseline="central" transform="matrix(1 0 0 1 -155 -254)">«extend»</text></g></g><g><path fill="#C0C0C0" stroke="none" paint-order="stroke fill markers" d=" M 140 190 C 140 165.14718399999998 168.8776304 145 204.5 145 C 240.1223696 145 269 165.14718399999998 269 190 C 269 214.85281600000002 240.1223696 235 204.5 235 C 168.8776304 235 140 214.85281600000002 140 190 Z" fill-opacity="0.2"/></g><g><path fill="#ffffff" stroke="none" paint-order="stroke fill markers" d=" M 133 183 C 133 158.14718399999998 161.8776304 138 197.5 138 C 233.1223696 138 262 158.14718399999998 262 183 C 262 207.85281600000002 233.1223696 228 197.5 228 C 161.8776304 228 133 207.85281600000002 133 183 Z"/></g><g><path fill="none" stroke="#000000" paint-order="fill stroke markers" d=" M 133 183 C 133 158.14718399999998 161.8776304 138 197.5 138 C 233.1223696 138 262 158.14718399999998 262 183 C 262 207.85281600000002 233.1223696 228 197.5 228 C 161.8776304 228 133 207.85281600000002 133 183 Z" stroke-miterlimit="10" stroke-dasharray=""/></g><g><g><path fill="none" stroke="none"/><text fill="#000000" stroke="none" font-family="Arial" font-size="13px" font-style="normal" font-weight="bold" text-decoration="undefined" x="352.5" y="425" text-anchor="middle" dominant-baseline="central" transform="matrix(1 0 0 1 -155 -254)">UC32 -</text><text fill="#000000" stroke="none" font-family="Arial" font-size="13px" font-style="normal" font-weight="bold" text-decoration="undefined" x="352.5" y="438" text-anchor="middle" dominant-baseline="central" transform="matrix(1 0 0 1 -155 -254)">Gateway non</text><text fill="#000000" stroke="none" font-family="Arial" font-size="13px" font-style="normal" font-weight="bold" text-decoration="undefined" x="352.5" y="451" text-anchor="middle" dominant-baseline="central" transform="matrix(1 0 0 1 -155 -254)">raggiungibile</text></g></g><g><path fill="#ffffff" stroke="none" paint-order="stroke fill markers" d=" M 269 194 L 362 194 L 372 204 L 372 272 L 269 272 L 269 194"/></g><g><path fill="none" stroke="#000000" paint-order="fill stroke markers" d=" M 269 194 L 362 194 L 372 204 L 372 272 L 269 272 L 269 194 L 269 194" stroke-miterlimit="10" stroke-dasharray=""/></g><g><path fill="none" stroke="#000000" paint-order="fill stroke markers" d=" M 362 194 L 362 204 L 372 204 L 362 194" stroke-miterlimit="10" stroke-dasharray=""/></g><g><g><path fill="none" stroke="none"/><text fill="#000000" stroke="none" font-family="Arial" font-size="13px" font-style="normal" font-weight="normal" text-decoration="undefined" x="429" y="453" text-anchor="start" dominant-baseline="text-before-edge" transform="matrix(1 0 0 1 -155 -254)">Condizione:</text></g></g><g><g><path fill="none" stroke="none"/><text fill="#000000" stroke="none" font-family="Arial" font-size="13px" font-style="normal" font-weight="normal" text-decoration="undefined" x="429" y="468" text-anchor="start" dominant-baseline="text-before-edge" transform="matrix(1 0 0 1 -155 -254)">Il gateway non</text><text fill="#000000" stroke="none" font-family="Arial" font-size="13px" font-style="normal" font-weight="normal" text-decoration="undefined" x="429" y="481" text-anchor="start" dominant-baseline="text-before-edge" transform="matrix(1 0 0 1 -155 -254)">è raggiungibile</text><text fill="#000000" stroke="none" font-family="Arial" font-size="13px" font-style="normal" font-weight="normal" text-decoration="undefined" x="429" y="494" text-anchor="start" dominant-baseline="text-before-edge" transform="matrix(1 0 0 1 -155 -254)">dal sistema</text></g></g><g><path fill="none" stroke="#000000" paint-order="fill stroke markers" d=" M 314 193 L 304 140" stroke-miterlimit="10" stroke-dasharray="3"/></g></g></svg>