<svg version="1.1" xmlns="http://www.w3.org/2000/svg" xmlns:xlink="http://www.w3.org/1999/xlink" width="860.47265625" height="396"><defs/><g><g><rect fill="#C0C0C0" stroke="none" x="199" y="31" width="584" height="376" transform="matrix(1 0 0 1 -30 -14)" fill-opacity="0.2"/></g><g><rect fill="#ffffff" stroke="none" x="192" y="24" width="584" height="376" transform="matrix(1 0 0 1 -30 -14)"/></g><g><path fill="none" stroke="#000000" paint-order="fill stroke markers" d=" M 162 10 L 746 10 L 746 386 L 162 386 L 162 10 Z Z" stroke-miterlimit="10" stroke-dasharray=""/></g><g><g><path fill="none" stroke="none"/><text fill="#000000" stroke="none" font-family="Arial" font-size="13px" font-style="normal" font-weight="bold" text-decoration="undefined" x="484.5" y="37.5" text-anchor="middle" dominant-baseline="central" transform="matrix(1 0 0 1 -30 -14)">Sistema cloud</text></g></g><g><path fill="#ffffff" stroke="none" paint-order="stroke fill markers" d=" M 47.930751953125 59.849999999999994 C 47.930751953125 54.962279519999996 51.888554321125 51 56.770751953125 51 C 61.652949585125 51 65.610751953125 54.962279519999996 65.610751953125 59.849999999999994 C 65.610751953125 64.73772048 61.652949585125 68.7 56.770751953125 68.7 C 51.888554321125 68.7 47.930751953125 64.73772048 47.930751953125 59.849999999999994 Z"/></g><g><path fill="none" stroke="#000000" paint-order="fill stroke markers" d=" M 47.930751953125 59.849999999999994 C 47.930751953125 54.962279519999996 51.888554321125 51 56.770751953125 51 C 61.652949585125 51 65.610751953125 54.962279519999996 65.610751953125 59.849999999999994 C 65.610751953125 64.73772048 61.652949585125 68.7 56.770751953125 68.7 C 51.888554321125 68.7 47.930751953125 64.73772048 47.930751953125 59.849999999999994 Z" stroke-miterlimit="10" stroke-dasharray=""/></g><g><path fill="none" stroke="#000000" paint-order="fill stroke markers" d=" M 56.770751953125 68.7 L 56.770751953125 86.3" stroke-miterlimit="10" stroke-dasharray=""/></g><g><path fill="none" stroke="#000000" paint-order="fill stroke markers" d=" M 47.410751953125 75.3 L 66.130751953125 75.3" stroke-miterlimit="10" stroke-dasharray=""/></g><g><path fill="none" stroke="#000000" paint-order="fill stroke markers" d=" M 56.770751953125 86.3 L 43.770751953125 104" stroke-miterlimit="10" stroke-dasharray=""/></g><g><path fill="none" stroke="#000000" paint-order="fill stroke markers" d=" M 56.770751953125 86.3 L 69.770751953125 104" stroke-miterlimit="10" stroke-dasharray=""/></g><g><g><path fill="none" stroke="none"/><text fill="#000000" stroke="none" font-family="Arial" font-size="13px" font-style="normal" font-weight="bold" text-decoration="undefined" x="87.270751953125" y="132.5" text-anchor="middle" dominant-baseline="central" transform="matrix(1 0 0 1 -30 -14)">Super Admin</text></g></g><g><path fill="#C0C0C0" stroke="none" paint-order="stroke fill markers" d=" M 372 102 C 372 77.147184 406.0263552 57 448 57 C 489.9736448 57 524 77.147184 524 102 C 524 126.85281599999999 489.9736448 147 448 147 C 406.0263552 147 372 126.85281599999999 372 102 Z" fill-opacity="0.2"/></g><g><path fill="#ffffff" stroke="none" paint-order="stroke fill markers" d=" M 365 95 C 365 70.147184 399.0263552 50 441 50 C 482.9736448 50 517 70.147184 517 95 C 517 119.85281599999999 482.9736448 140 441 140 C 399.0263552 140 365 119.85281599999999 365 95 Z"/></g><g><path fill="none" stroke="#000000" paint-order="fill stroke markers" d=" M 365 95 C 365 70.147184 399.0263552 50 441 50 C 482.9736448 50 517 70.147184 517 95 C 517 119.85281599999999 482.9736448 140 441 140 C 399.0263552 140 365 119.85281599999999 365 95 Z" stroke-miterlimit="10" stroke-dasharray=""/></g><g><g><path fill="none" stroke="none"/><text fill="#000000" stroke="none" font-family="Arial" font-size="13px" font-style="normal" font-weight="bold" text-decoration="undefined" x="471" y="90.5" text-anchor="middle" dominant-baseline="central" transform="matrix(1 0 0 1 -30 -14)">UC81 -</text><text fill="#000000" stroke="none" font-family="Arial" font-size="13px" font-style="normal" font-weight="bold" text-decoration="undefined" x="471" y="103.5" text-anchor="middle" dominant-baseline="central" transform="matrix(1 0 0 1 -30 -14)">Associazione</text><text fill="#000000" stroke="none" font-family="Arial" font-size="13px" font-style="normal" font-weight="bold" text-decoration="undefined" x="471" y="116.5" text-anchor="middle" dominant-baseline="central" transform="matrix(1 0 0 1 -30 -14)">Gateway –</text><text fill="#000000" stroke="none" font-family="Arial" font-size="13px" font-style="normal" font-weight="bold" text-decoration="undefined" x="471" y="129.5" text-anchor="middle" dominant-baseline="central" transform="matrix(1 0 0 1 -30 -14)">Tenant</text></g></g><g><path fill="#C0C0C0" stroke="none" paint-order="stroke fill markers" d=" M 625 157 C 625 137.1177472 651.862912 121 685 121 C 718.137088 121 745 137.1177472 745 157 C 745 176.8822528 718.137088 193 685 193 C 651.862912 193 625 176.8822528 625 157 Z" fill-opacity="0.2"/></g><g><path fill="#ffffff" stroke="none" paint-order="stroke fill markers" d=" M 618 150 C 618 130.1177472 644.862912 114 678 114 C 711.137088 114 738 130.1177472 738 150 C 738 169.8822528 711.137088 186 678 186 C 644.862912 186 618 169.8822528 618 150 Z"/></g><g><path fill="none" stroke="#000000" paint-order="fill stroke markers" d=" M 618 150 C 618 130.1177472 644.862912 114 678 114 C 711.137088 114 738 130.1177472 738 150 C 738 169.8822528 711.137088 186 678 186 C 644.862912 186 618 169.8822528 618 150 Z" stroke-miterlimit="10" stroke-dasharray=""/></g><g><g><path fill="none" stroke="none"/><text fill="#000000" stroke="none" font-family="Arial" font-size="13px" font-style="normal" font-weight="bold" text-decoration="undefined" x="708" y="152" text-anchor="middle" dominant-baseline="central" transform="matrix(1 0 0 1 -30 -14)">UC81.1 -</text><text fill="#000000" stroke="none" font-family="Arial" font-size="13px" font-style="normal" font-weight="bold" text-decoration="undefined" x="708" y="165" text-anchor="middle" dominant-baseline="central" transform="matrix(1 0 0 1 -30 -14)">Selezione</text><text fill="#000000" stroke="none" font-family="Arial" font-size="13px" font-style="normal" font-weight="bold" text-decoration="undefined" x="708" y="178" text-anchor="middle" dominant-baseline="central" transform="matrix(1 0 0 1 -30 -14)">Gateway</text></g></g><g><path fill="#C0C0C0" stroke="none" paint-order="stroke fill markers" d=" M 185 309 C 185 289.1177472 217.2354944 273 257 273 C 296.7645056 273 329 289.1177472 329 309 C 329 328.8822528 296.7645056 345 257 345 C 217.2354944 345 185 328.8822528 185 309 Z" fill-opacity="0.2"/></g><g><path fill="#ffffff" stroke="none" paint-order="stroke fill markers" d=" M 178 302 C 178 282.1177472 210.2354944 266 250 266 C 289.7645056 266 322 282.1177472 322 302 C 322 321.8822528 289.7645056 338 250 338 C 210.2354944 338 178 321.8822528 178 302 Z"/></g><g><path fill="none" stroke="#000000" paint-order="fill stroke markers" d=" M 178 302 C 178 282.1177472 210.2354944 266 250 266 C 289.7645056 266 322 282.1177472 322 302 C 322 321.8822528 289.7645056 338 250 338 C 210.2354944 338 178 321.8822528 178 302 Z" stroke-miterlimit="10" stroke-dasharray=""/></g><g><g><path fill="none" stroke="none"/><text fill="#000000" stroke="none" font-family="Arial" font-size="13px" font-style="normal" font-weight="bold" text-decoration="undefined" x="280" y="304" text-anchor="middle" dominant-baseline="central" transform="matrix(1 0 0 1 -30 -14)">UC32 -</text><text fill="#000000" stroke="none" font-family="Arial" font-size="13px" font-style="normal" font-weight="bold" text-decoration="undefined" x="280" y="317" text-anchor="middle" dominant-baseline="central" transform="matrix(1 0 0 1 -30 -14)">Gateway non</text><text fill="#000000" stroke="none" font-family="Arial" font-size="13px" font-style="normal" font-weight="bold" text-decoration="undefined" x="280" y="330" text-anchor="middle" dominant-baseline="central" transform="matrix(1 0 0 1 -30 -14)">raggiungibile</text></g></g><g><path fill="#ffffff" stroke="none" paint-order="stroke fill markers" d=" M 808.896328125 59.849999999999994 C 808.896328125 54.962279519999996 812.854130493 51 817.736328125 51 C 822.618525757 51 826.576328125 54.962279519999996 826.576328125 59.849999999999994 C 826.576328125 64.73772048 822.618525757 68.7 817.736328125 68.7 C 812.854130493 68.7 808.896328125 64.73772048 808.896328125 59.849999999999994 Z"/></g><g><path fill="none" stroke="#000000" paint-order="fill stroke markers" d=" M 808.896328125 59.849999999999994 C 808.896328125 54.962279519999996 812.854130493 51 817.736328125 51 C 822.618525757 51 826.576328125 54.962279519999996 826.576328125 59.849999999999994 C 826.576328125 64.73772048 822.618525757 68.7 817.736328125 68.7 C 812.854130493 68.7 808.896328125 64.73772048 808.896328125 59.849999999999994 Z" stroke-miterlimit="10" stroke-dasharray=""/></g><g><path fill="none" stroke="#000000" paint-order="fill stroke markers" d=" M 817.736328125 68.7 L 817.736328125 86.3" stroke-miterlimit="10" stroke-dasharray=""/></g><g><path fill="none" stroke="#000000" paint-order="fill stroke markers" d=" M 808.376328125 75.3 L 827.096328125 75.3" stroke-miterlimit="10" stroke-dasharray=""/></g><g><path fill="none" stroke="#000000" paint-order="fill stroke markers" d=" M 817.736328125 86.3 L 804.736328125 104" stroke-miterlimit="10" stroke-dasharray=""/></g><g><path fill="none" stroke="#000000" paint-order="fill stroke markers" d=" M 817.736328125 86.3 L 830.736328125 104" stroke-miterlimit="10" stroke-dasharray=""/></g><g><g><path fill="none" stroke="none"/><text fill="#000000" stroke="none" font-family="Arial" font-size="13px" font-style="normal" font-weight="bold" text-decoration="undefined" x="848.236328125" y="132.5" text-anchor="middle" dominant-baseline="central" transform="matrix(1 0 0 1 -30 -14)">Gateway</text></g></g><g><path fill="none" stroke="#000000" paint-order="fill stroke markers" d=" M 105 91 L 364 94" stroke-miterlimit="10" stroke-dasharray=""/></g><g><path fill="none" stroke="#000000" paint-order="fill stroke markers" d=" M 785 90 L 518 94" stroke-miterlimit="10" stroke-dasharray=""/></g><g><path fill="none" stroke="#000000" paint-order="fill stroke markers" d=" M 432 141 L 426 169" stroke-miterlimit="10" stroke-dasharray="3"/></g><g><path fill="none" stroke="#000000" paint-order="fill stroke markers" d=" M 424.013299378052 158.18089557131685 L 426 169 L 432.2454526259203 159.94492841014576" stroke-miterlimit="10" stroke-dasharray=""/></g><g><rect fill="#ffffff" stroke="none" x="384" y="159" width="55.65625" height="13" transform="matrix(1 0 0 1 -30 -14)"/></g><g><g><path fill="none" stroke="none"/><text fill="#000000" stroke="none" font-family="Arial" font-size="13px" font-style="normal" font-weight="normal" text-decoration="undefined" x="411.828125" y="165.5" text-anchor="middle" dominant-baseline="central" transform="matrix(1 0 0 1 -30 -14)">«include»</text></g></g><g><path fill="none" stroke="#000000" paint-order="fill stroke markers" d=" M 518 113 L 617 136" stroke-miterlimit="10" stroke-dasharray="3"/></g><g><path fill="none" stroke="#000000" paint-order="fill stroke markers" d=" M 606.1483615443891 137.8005395937627 L 617 136 L 608.0535591045084 129.59990661759733" stroke-miterlimit="10" stroke-dasharray=""/></g><g><rect fill="#ffffff" stroke="none" x="584" y="120" width="55.65625" height="13" transform="matrix(1 0 0 1 -30 -14)"/></g><g><g><path fill="none" stroke="none"/><text fill="#000000" stroke="none" font-family="Arial" font-size="13px" font-style="normal" font-weight="normal" text-decoration="undefined" x="611.828125" y="126.5" text-anchor="middle" dominant-baseline="central" transform="matrix(1 0 0 1 -30 -14)">«include»</text></g></g><g><path fill="#C0C0C0" stroke="none" paint-order="stroke fill markers" d=" M 553 227.5 C 553 212.8644528 590.6080768 201 637 201 C 683.3919232 201 721 212.8644528 721 227.5 C 721 242.13554720000002 683.3919232 254 637 254 C 590.6080768 254 553 242.13554720000002 553 227.5 Z" fill-opacity="0.2"/></g><g><path fill="#ffffff" stroke="none" paint-order="stroke fill markers" d=" M 546 220.5 C 546 205.8644528 583.6080768 194 630 194 C 676.3919232 194 714 205.8644528 714 220.5 C 714 235.1355472 676.3919232 247 630 247 C 583.6080768 247 546 235.1355472 546 220.5 Z"/></g><g><path fill="none" stroke="#000000" paint-order="fill stroke markers" d=" M 546 220.5 C 546 205.8644528 583.6080768 194 630 194 C 676.3919232 194 714 205.8644528 714 220.5 C 714 235.1355472 676.3919232 247 630 247 C 583.6080768 247 546 235.1355472 546 220.5 Z" stroke-miterlimit="10" stroke-dasharray=""/></g><g><g><path fill="none" stroke="none"/><text fill="#000000" stroke="none" font-family="Arial" font-size="13px" font-style="normal" font-weight="bold" text-decoration="undefined" x="660" y="229" text-anchor="middle" dominant-baseline="central" transform="matrix(1 0 0 1 -30 -14)">UC82 - Selezione</text><text fill="#000000" stroke="none" font-family="Arial" font-size="13px" font-style="normal" font-weight="bold" text-decoration="undefined" x="660" y="242" text-anchor="middle" dominant-baseline="central" transform="matrix(1 0 0 1 -30 -14)">tenant</text></g></g><g><path fill="none" stroke="#000000" paint-order="fill stroke markers" d=" M 511 141 L 589 193" stroke-miterlimit="10" stroke-dasharray="3"/></g><g><path fill="none" stroke="#000000" paint-order="fill stroke markers" d=" M 578.2091230681783 190.86529275021616 L 589 193 L 582.8791637187296 183.8602317743892" stroke-miterlimit="10" stroke-dasharray=""/></g><g><rect fill="#ffffff" stroke="none" x="573" y="156" width="55.65625" height="13" transform="matrix(1 0 0 1 -30 -14)"/></g><g><g><path fill="none" stroke="none"/><text fill="#000000" stroke="none" font-family="Arial" font-size="13px" font-style="normal" font-weight="normal" text-decoration="undefined" x="600.828125" y="162.5" text-anchor="middle" dominant-baseline="central" transform="matrix(1 0 0 1 -30 -14)">«include»</text></g></g><g><path fill="#C0C0C0" stroke="none" paint-order="stroke fill markers" d=" M 353 213 C 353 193.1177472 385.90706720000003 177 426.5 177 C 467.09293279999997 177 500 193.1177472 500 213 C 500 232.8822528 467.09293279999997 249 426.5 249 C 385.90706720000003 249 353 232.8822528 353 213 Z" fill-opacity="0.2"/></g><g><path fill="#ffffff" stroke="none" paint-order="stroke fill markers" d=" M 346 206 C 346 186.1177472 378.90706720000003 170 419.5 170 C 460.09293279999997 170 493 186.1177472 493 206 C 493 225.8822528 460.09293279999997 242 419.5 242 C 378.90706720000003 242 346 225.8822528 346 206 Z"/></g><g><path fill="none" stroke="#000000" paint-order="fill stroke markers" d=" M 346 206 C 346 186.1177472 378.90706720000003 170 419.5 170 C 460.09293279999997 170 493 186.1177472 493 206 C 493 225.8822528 460.09293279999997 242 419.5 242 C 378.90706720000003 242 346 225.8822528 346 206 Z" stroke-miterlimit="10" stroke-dasharray=""/></g><g><g><path fill="none" stroke="none"/><text fill="#000000" stroke="none" font-family="Arial" font-size="13px" font-style="normal" font-weight="bold" text-decoration="undefined" x="449.5" y="208" text-anchor="middle" dominant-baseline="central" transform="matrix(1 0 0 1 -30 -14)">UC83 -</text><text fill="#000000" stroke="none" font-family="Arial" font-size="13px" font-style="normal" font-weight="bold" text-decoration="undefined" x="449.5" y="221" text-anchor="middle" dominant-baseline="central" transform="matrix(1 0 0 1 -30 -14)">Configurazione</text><text fill="#000000" stroke="none" font-family="Arial" font-size="13px" font-style="normal" font-weight="bold" text-decoration="undefined" x="449.5" y="234" text-anchor="middle" dominant-baseline="central" transform="matrix(1 0 0 1 -30 -14)">Gateway</text></g></g><g><path fill="#C0C0C0" stroke="none" paint-order="stroke fill markers" d=" M 537 325 C 537 305.1177472 583.5623808 289 641 289 C 698.4376192 289 745 305.1177472 745 325 C 745 344.8822528 698.4376192 361 641 361 C 583.5623808 361 537 344.8822528 537 325 Z" fill-opacity="0.2"/></g><g><path fill="#ffffff" stroke="none" paint-order="stroke fill markers" d=" M 530 318 C 530 298.1177472 576.5623808 282 634 282 C 691.4376192 282 738 298.1177472 738 318 C 738 337.8822528 691.4376192 354 634 354 C 576.5623808 354 530 337.8822528 530 318 Z"/></g><g><path fill="none" stroke="#000000" paint-order="fill stroke markers" d=" M 530 318 C 530 298.1177472 576.5623808 282 634 282 C 691.4376192 282 738 298.1177472 738 318 C 738 337.8822528 691.4376192 354 634 354 C 576.5623808 354 530 337.8822528 530 318 Z" stroke-miterlimit="10" stroke-dasharray=""/></g><g><g><path fill="none" stroke="none"/><text fill="#000000" stroke="none" font-family="Arial" font-size="13px" font-style="normal" font-weight="bold" text-decoration="undefined" x="664" y="320" text-anchor="middle" dominant-baseline="central" transform="matrix(1 0 0 1 -30 -14)">UC84 -</text><text fill="#000000" stroke="none" font-family="Arial" font-size="13px" font-style="normal" font-weight="bold" text-decoration="undefined" x="664" y="333" text-anchor="middle" dominant-baseline="central" transform="matrix(1 0 0 1 -30 -14)">Configurazione</text><text fill="#000000" stroke="none" font-family="Arial" font-size="13px" font-style="normal" font-weight="bold" text-decoration="undefined" x="664" y="346" text-anchor="middle" dominant-baseline="central" transform="matrix(1 0 0 1 -30 -14)">Gateway non valida</text></g></g><g><path fill="#ffffff" stroke="none" paint-order="stroke fill markers" d=" M 178 146 L 295 146 L 305 156 L 305 209 L 178 209 L 178 146"/></g><g><path fill="none" stroke="#000000" paint-order="fill stroke markers" d=" M 178 146 L 295 146 L 305 156 L 305 209 L 178 209 L 178 146 L 178 146" stroke-miterlimit="10" stroke-dasharray=""/></g><g><path fill="none" stroke="#000000" paint-order="fill stroke markers" d=" M 295 146 L 295 156 L 305 156 L 295 146" stroke-miterlimit="10" stroke-dasharray=""/></g><g><g><path fill="none" stroke="none"/><text fill="#000000" stroke="none" font-family="Arial" font-size="13px" font-style="normal" font-weight="normal" text-decoration="undefined" x="213" y="165" text-anchor="start" dominant-baseline="text-before-edge" transform="matrix(1 0 0 1 -30 -14)">Condizione: il</text><text fill="#000000" stroke="none" font-family="Arial" font-size="13px" font-style="normal" font-weight="normal" text-decoration="undefined" x="213" y="178" text-anchor="start" dominant-baseline="text-before-edge" transform="matrix(1 0 0 1 -30 -14)">gateway non è</text><text fill="#000000" stroke="none" font-family="Arial" font-size="13px" font-style="normal" font-weight="normal" text-decoration="undefined" x="213" y="191" text-anchor="start" dominant-baseline="text-before-edge" transform="matrix(1 0 0 1 -30 -14)">raggiungibile dal</text><text fill="#000000" stroke="none" font-family="Arial" font-size="13px" font-style="normal" font-weight="normal" text-decoration="undefined" x="213" y="204" text-anchor="start" dominant-baseline="text-before-edge" transform="matrix(1 0 0 1 -30 -14)">sistema</text></g></g><g><path fill="#ffffff" stroke="none" paint-order="stroke fill markers" d=" M 338 290 L 487 290 L 497 300 L 497 366 L 338 366 L 338 290"/></g><g><path fill="none" stroke="#000000" paint-order="fill stroke markers" d=" M 338 290 L 487 290 L 497 300 L 497 366 L 338 366 L 338 290 L 338 290" stroke-miterlimit="10" stroke-dasharray=""/></g><g><path fill="none" stroke="#000000" paint-order="fill stroke markers" d=" M 487 290 L 487 300 L 497 300 L 487 290" stroke-miterlimit="10" stroke-dasharray=""/></g><g><g><path fill="none" stroke="none"/><text fill="#000000" stroke="none" font-family="Arial" font-size="13px" font-style="normal" font-weight="normal" text-decoration="undefined" x="373" y="309" text-anchor="start" dominant-baseline="text-before-edge" transform="matrix(1 0 0 1 -30 -14)">Condizione: è stata</text><text fill="#000000" stroke="none" font-family="Arial" font-size="13px" font-style="normal" font-weight="normal" text-decoration="undefined" x="373" y="322" text-anchor="start" dominant-baseline="text-before-edge" transform="matrix(1 0 0 1 -30 -14)">inserita una</text><text fill="#000000" stroke="none" font-family="Arial" font-size="13px" font-style="normal" font-weight="normal" text-decoration="undefined" x="373" y="335" text-anchor="start" dominant-baseline="text-before-edge" transform="matrix(1 0 0 1 -30 -14)">configurazione del</text><text fill="#000000" stroke="none" font-family="Arial" font-size="13px" font-style="normal" font-weight="normal" text-decoration="undefined" x="373" y="348" text-anchor="start" dominant-baseline="text-before-edge" transform="matrix(1 0 0 1 -30 -14)">gateway che presenta</text><text fill="#000000" stroke="none" font-family="Arial" font-size="13px" font-style="normal" font-weight="normal" text-decoration="undefined" x="373" y="361" text-anchor="start" dominant-baseline="text-before-edge" transform="matrix(1 0 0 1 -30 -14)">valori invalidi</text></g></g><g><path fill="none" stroke="#000000" paint-order="fill stroke markers" d=" M 315 265 L 354 243" stroke-miterlimit="10" stroke-dasharray="3"/></g><g><path fill="none" stroke="#000000" paint-order="fill stroke markers" d=" M 347.2167542846336 251.65953679852242 L 354 243 L 343.0803037640402 244.3267381483795" stroke-miterlimit="10" stroke-dasharray=""/></g><g><rect fill="#ffffff" stroke="none" x="360" y="271" width="53.49169921875" height="13" transform="matrix(1 0 0 1 -30 -14)"/></g><g><g><path fill="none" stroke="none"/><text fill="#000000" stroke="none" font-family="Arial" font-size="13px" font-style="normal" font-weight="normal" text-decoration="undefined" x="386.745849609375" y="277.5" text-anchor="middle" dominant-baseline="central" transform="matrix(1 0 0 1 -30 -14)">«extend»</text></g></g><g><path fill="none" stroke="#000000" paint-order="fill stroke markers" d=" M 563 281 L 490 243" stroke-miterlimit="10" stroke-dasharray="3"/></g><g><path fill="none" stroke="#000000" paint-order="fill stroke markers" d=" M 500.9581560891273 243.95854844756064 L 490 243 L 497.07079037255664 251.42638258728857" stroke-miterlimit="10" stroke-dasharray=""/></g><g><rect fill="#ffffff" stroke="none" x="584" y="271" width="53.49169921875" height="13" transform="matrix(1 0 0 1 -30 -14)"/></g><g><g><path fill="none" stroke="none"/><text fill="#000000" stroke="none" font-family="Arial" font-size="13px" font-style="normal" font-weight="normal" text-decoration="undefined" x="610.745849609375" y="277.5" text-anchor="middle" dominant-baseline="central" transform="matrix(1 0 0 1 -30 -14)">«extend»</text></g></g><g><path fill="none" stroke="#000000" paint-order="fill stroke markers" d=" M 482 289 L 526 262" stroke-miterlimit="10" stroke-dasharray="3"/></g><g><path fill="none" stroke="#000000" paint-order="fill stroke markers" d=" M 282 211 L 334 254" stroke-miterlimit="10" stroke-dasharray="3"/></g></g></svg>