<svg version="1.1" xmlns="http://www.w3.org/2000/svg" xmlns:xlink="http://www.w3.org/1999/xlink" width="860.47265625" height="332"><defs/><g><g><rect fill="#C0C0C0" stroke="none" x="199" y="31" width="584" height="312" transform="matrix(1 0 0 1 -30 -14)" fill-opacity="0.2"/></g><g><rect fill="#ffffff" stroke="none" x="192" y="24" width="584" height="312" transform="matrix(1 0 0 1 -30 -14)"/></g><g><path fill="none" stroke="#000000" paint-order="fill stroke markers" d=" M 162 10 L 746 10 L 746 322 L 162 322 L 162 10 Z Z" stroke-miterlimit="10" stroke-dasharray=""/></g><g><g><path fill="none" stroke="none"/><text fill="#000000" stroke="none" font-family="Arial" font-size="13px" font-style="normal" font-weight="bold" text-decoration="undefined" x="484.5" y="37.5" text-anchor="middle" dominant-baseline="central" transform="matrix(1 0 0 1 -30 -14)">Sistema cloud</text></g></g><g><path fill="#ffffff" stroke="none" paint-order="stroke fill markers" d=" M 47.930751953125 59.849999999999994 C 47.930751953125 54.962279519999996 51.888554321125 51 56.770751953125 51 C 61.652949585125 51 65.610751953125 54.962279519999996 65.610751953125 59.849999999999994 C 65.610751953125 64.73772048 61.652949585125 68.7 56.770751953125 68.7 C 51.888554321125 68.7 47.930751953125 64.73772048 47.930751953125 59.849999999999994 Z"/></g><g><path fill="none" stroke="#000000" paint-order="fill stroke markers" d=" M 47.930751953125 59.849999999999994 C 47.930751953125 54.962279519999996 51.888554321125 51 56.770751953125 51 C 61.652949585125 51 65.610751953125 54.962279519999996 65.610751953125 59.849999999999994 C 65.610751953125 64.73772048 61.652949585125 68.7 56.770751953125 68.7 C 51.888554321125 68.7 47.930751953125 64.73772048 47.930751953125 59.849999999999994 Z" stroke-miterlimit="10" stroke-dasharray=""/></g><g><path fill="none" stroke="#000000" paint-order="fill stroke markers" d=" M 56.770751953125 68.7 L 56.770751953125 86.3" stroke-miterlimit="10" stroke-dasharray=""/></g><g><path fill="none" stroke="#000000" paint-order="fill stroke markers" d=" M 47.410751953125 75.3 L 66.130751953125 75.3" stroke-miterlimit="10" stroke-dasharray=""/></g><g><path fill="none" stroke="#000000" paint-order="fill stroke markers" d=" M 56.770751953125 86.3 L 43.770751953125 104" stroke-miterlimit="10" stroke-dasharray=""/></g><g><path fill="none" stroke="#000000" paint-order="fill stroke markers" d=" M 56.770751953125 86.3 L 69.770751953125 104" stroke-miterlimit="10" stroke-dasharray=""/></g><g><g><path fill="none" stroke="none"/><text fill="#000000" stroke="none" font-family="Arial" font-size="13px" font-style="normal" font-weight="bold" text-decoration="undefined" x="87.270751953125" y="132.5" text-anchor="middle" dominant-baseline="central" transform="matrix(1 0 0 1 -30 -14)">Super Admin</text></g></g><g><path fill="#C0C0C0" stroke="none" paint-order="stroke fill markers" d=" M 372 102 C 372 77.147184 406.0263552 57 448 57 C 489.9736448 57 524 77.147184 524 102 C 524 126.85281599999999 489.9736448 147 448 147 C 406.0263552 147 372 126.85281599999999 372 102 Z" fill-opacity="0.2"/></g><g><path fill="#ffffff" stroke="none" paint-order="stroke fill markers" d=" M 365 95 C 365 70.147184 399.0263552 50 441 50 C 482.9736448 50 517 70.147184 517 95 C 517 119.85281599999999 482.9736448 140 441 140 C 399.0263552 140 365 119.85281599999999 365 95 Z"/></g><g><path fill="none" stroke="#000000" paint-order="fill stroke markers" d=" M 365 95 C 365 70.147184 399.0263552 50 441 50 C 482.9736448 50 517 70.147184 517 95 C 517 119.85281599999999 482.9736448 140 441 140 C 399.0263552 140 365 119.85281599999999 365 95 Z" stroke-miterlimit="10" stroke-dasharray=""/></g><g><g><path fill="none" stroke="none"/><text fill="#000000" stroke="none" font-family="Arial" font-size="13px" font-style="normal" font-weight="bold" text-decoration="undefined" x="471" y="90.5" text-anchor="middle" dominant-baseline="central" transform="matrix(1 0 0 1 -30 -14)">UC81 -</text><text fill="#000000" stroke="none" font-family="Arial" font-size="13px" font-style="normal" font-weight="bold" text-decoration="undefined" x="471" y="103.5" text-anchor="middle" dominant-baseline="central" transform="matrix(1 0 0 1 -30 -14)">Associazione</text><text fill="#000000" stroke="none" font-family="Arial" font-size="13px" font-style="normal" font-weight="bold" text-decoration="undefined" x="471" y="116.5" text-anchor="middle" dominant-baseline="central" transform="matrix(1 0 0 1 -30 -14)">Gateway –</text><text fill="#000000" stroke="none" font-family="Arial" font-size="13px" font-style="normal" font-weight="bold" text-decoration="undefined" x="471" y="129.5" text-anchor="middle" dominant-baseline="central" transform="matrix(1 0 0 1 -30 -14)">Tenant</text></g></g><g><path fill="#C0C0C0" stroke="none" paint-order="stroke fill markers" d=" M 601 173 C 601 153.1177472 627.862912 137 661 137 C 694.137088 137 721 153.1177472 721 173 C 721 192.8822528 694.137088 209 661 209 C 627.862912 209 601 192.8822528 601 173 Z" fill-opacity="0.2"/></g><g><path fill="#ffffff" stroke="none" paint-order="stroke fill markers" d=" M 594 166 C 594 146.1177472 620.862912 130 654 130 C 687.137088 130 714 146.1177472 714 166 C 714 185.8822528 687.137088 202 654 202 C 620.862912 202 594 185.8822528 594 166 Z"/></g><g><path fill="none" stroke="#000000" paint-order="fill stroke markers" d=" M 594 166 C 594 146.1177472 620.862912 130 654 130 C 687.137088 130 714 146.1177472 714 166 C 714 185.8822528 687.137088 202 654 202 C 620.862912 202 594 185.8822528 594 166 Z" stroke-miterlimit="10" stroke-dasharray=""/></g><g><g><path fill="none" stroke="none"/><text fill="#000000" stroke="none" font-family="Arial" font-size="13px" font-style="normal" font-weight="bold" text-decoration="undefined" x="684" y="168" text-anchor="middle" dominant-baseline="central" transform="matrix(1 0 0 1 -30 -14)">UC81.1 -</text><text fill="#000000" stroke="none" font-family="Arial" font-size="13px" font-style="normal" font-weight="bold" text-decoration="undefined" x="684" y="181" text-anchor="middle" dominant-baseline="central" transform="matrix(1 0 0 1 -30 -14)">Selezione</text><text fill="#000000" stroke="none" font-family="Arial" font-size="13px" font-style="normal" font-weight="bold" text-decoration="undefined" x="684" y="194" text-anchor="middle" dominant-baseline="central" transform="matrix(1 0 0 1 -30 -14)">Gateway</text></g></g><g><path fill="#ffffff" stroke="none" paint-order="stroke fill markers" d=" M 808.896328125 59.849999999999994 C 808.896328125 54.962279519999996 812.854130493 51 817.736328125 51 C 822.618525757 51 826.576328125 54.962279519999996 826.576328125 59.849999999999994 C 826.576328125 64.73772048 822.618525757 68.7 817.736328125 68.7 C 812.854130493 68.7 808.896328125 64.73772048 808.896328125 59.849999999999994 Z"/></g><g><path fill="none" stroke="#000000" paint-order="fill stroke markers" d=" M 808.896328125 59.849999999999994 C 808.896328125 54.962279519999996 812.854130493 51 817.736328125 51 C 822.618525757 51 826.576328125 54.962279519999996 826.576328125 59.849999999999994 C 826.576328125 64.73772048 822.618525757 68.7 817.736328125 68.7 C 812.854130493 68.7 808.896328125 64.73772048 808.896328125 59.849999999999994 Z" stroke-miterlimit="10" stroke-dasharray=""/></g><g><path fill="none" stroke="#000000" paint-order="fill stroke markers" d=" M 817.736328125 68.7 L 817.736328125 86.3" stroke-miterlimit="10" stroke-dasharray=""/></g><g><path fill="none" stroke="#000000" paint-order="fill stroke markers" d=" M 808.376328125 75.3 L 827.096328125 75.3" stroke-miterlimit="10" stroke-dasharray=""/></g><g><path fill="none" stroke="#000000" paint-order="fill stroke markers" d=" M 817.736328125 86.3 L 804.736328125 104" stroke-miterlimit="10" stroke-dasharray=""/></g><g><path fill="none" stroke="#000000" paint-order="fill stroke markers" d=" M 817.736328125 86.3 L 830.736328125 104" stroke-miterlimit="10" stroke-dasharray=""/></g><g><g><path fill="none" stroke="none"/><text fill="#000000" stroke="none" font-family="Arial" font-size="13px" font-style="normal" font-weight="bold" text-decoration="undefined" x="848.236328125" y="132.5" text-anchor="middle" dominant-baseline="central" transform="matrix(1 0 0 1 -30 -14)">Gateway</text></g></g><g><path fill="none" stroke="#000000" paint-order="fill stroke markers" d=" M 105 91 L 364 94" stroke-miterlimit="10" stroke-dasharray=""/></g><g><path fill="none" stroke="#000000" paint-order="fill stroke markers" d=" M 785 90 L 518 94" stroke-miterlimit="10" stroke-dasharray=""/></g><g><path fill="none" stroke="#000000" paint-order="fill stroke markers" d=" M 518 121 L 593 146" stroke-miterlimit="10" stroke-dasharray="3"/></g><g><path fill="none" stroke="#000000" paint-order="fill stroke markers" d=" M 582.0276737030609 146.77977922099748 L 593 146 L 584.6900064950472 138.79278084503858" stroke-miterlimit="10" stroke-dasharray=""/></g><g><rect fill="#ffffff" stroke="none" x="573" y="130" width="55.65625" height="13" transform="matrix(1 0 0 1 -30 -14)"/></g><g><g><path fill="none" stroke="none"/><text fill="#000000" stroke="none" font-family="Arial" font-size="13px" font-style="normal" font-weight="normal" text-decoration="undefined" x="600.828125" y="136.5" text-anchor="middle" dominant-baseline="central" transform="matrix(1 0 0 1 -30 -14)">«include»</text></g></g><g><path fill="#C0C0C0" stroke="none" paint-order="stroke fill markers" d=" M 529 259.5 C 529 244.86445279999998 566.6080768 233 613 233 C 659.3919232 233 697 244.86445279999998 697 259.5 C 697 274.1355472 659.3919232 286 613 286 C 566.6080768 286 529 274.1355472 529 259.5 Z" fill-opacity="0.2"/></g><g><path fill="#ffffff" stroke="none" paint-order="stroke fill markers" d=" M 522 252.5 C 522 237.8644528 559.6080768 226 606 226 C 652.3919232 226 690 237.8644528 690 252.5 C 690 267.1355472 652.3919232 279 606 279 C 559.6080768 279 522 267.1355472 522 252.5 Z"/></g><g><path fill="none" stroke="#000000" paint-order="fill stroke markers" d=" M 522 252.5 C 522 237.8644528 559.6080768 226 606 226 C 652.3919232 226 690 237.8644528 690 252.5 C 690 267.1355472 652.3919232 279 606 279 C 559.6080768 279 522 267.1355472 522 252.5 Z" stroke-miterlimit="10" stroke-dasharray=""/></g><g><g><path fill="none" stroke="none"/><text fill="#000000" stroke="none" font-family="Arial" font-size="13px" font-style="normal" font-weight="bold" text-decoration="undefined" x="636" y="261" text-anchor="middle" dominant-baseline="central" transform="matrix(1 0 0 1 -30 -14)">UC82 - Selezione</text><text fill="#000000" stroke="none" font-family="Arial" font-size="13px" font-style="normal" font-weight="bold" text-decoration="undefined" x="636" y="274" text-anchor="middle" dominant-baseline="central" transform="matrix(1 0 0 1 -30 -14)">tenant</text></g></g><g><path fill="none" stroke="#000000" paint-order="fill stroke markers" d=" M 489 141 L 578 225" stroke-miterlimit="10" stroke-dasharray="3"/></g><g><path fill="none" stroke="#000000" paint-order="fill stroke markers" d=" M 567.7199553964883 221.08583560005312 L 578 225 L 573.4986429398382 214.96317856007533" stroke-miterlimit="10" stroke-dasharray=""/></g><g><rect fill="#ffffff" stroke="none" x="558" y="175" width="55.65625" height="13" transform="matrix(1 0 0 1 -30 -14)"/></g><g><g><path fill="none" stroke="none"/><text fill="#000000" stroke="none" font-family="Arial" font-size="13px" font-style="normal" font-weight="normal" text-decoration="undefined" x="585.828125" y="181.5" text-anchor="middle" dominant-baseline="central" transform="matrix(1 0 0 1 -30 -14)">«include»</text></g></g><g><path fill="#ffffff" stroke="none" paint-order="stroke fill markers" d=" M 226 154 L 343 154 L 353 164 L 353 217 L 226 217 L 226 154"/></g><g><path fill="none" stroke="#000000" paint-order="fill stroke markers" d=" M 226 154 L 343 154 L 353 164 L 353 217 L 226 217 L 226 154 L 226 154" stroke-miterlimit="10" stroke-dasharray=""/></g><g><path fill="none" stroke="#000000" paint-order="fill stroke markers" d=" M 343 154 L 343 164 L 353 164 L 343 154" stroke-miterlimit="10" stroke-dasharray=""/></g><g><g><path fill="none" stroke="none"/><text fill="#000000" stroke="none" font-family="Arial" font-size="13px" font-style="normal" font-weight="normal" text-decoration="undefined" x="261" y="173" text-anchor="start" dominant-baseline="text-before-edge" transform="matrix(1 0 0 1 -30 -14)">Condizione: il</text><text fill="#000000" stroke="none" font-family="Arial" font-size="13px" font-style="normal" font-weight="normal" text-decoration="undefined" x="261" y="186" text-anchor="start" dominant-baseline="text-before-edge" transform="matrix(1 0 0 1 -30 -14)">gateway non è</text><text fill="#000000" stroke="none" font-family="Arial" font-size="13px" font-style="normal" font-weight="normal" text-decoration="undefined" x="261" y="199" text-anchor="start" dominant-baseline="text-before-edge" transform="matrix(1 0 0 1 -30 -14)">raggiungibile dal</text><text fill="#000000" stroke="none" font-family="Arial" font-size="13px" font-style="normal" font-weight="normal" text-decoration="undefined" x="261" y="212" text-anchor="start" dominant-baseline="text-before-edge" transform="matrix(1 0 0 1 -30 -14)">sistema</text></g></g><g><path fill="none" stroke="#000000" paint-order="fill stroke markers" d=" M 435 233 L 439 141" stroke-miterlimit="10" stroke-dasharray="3"/></g><g><path fill="none" stroke="#000000" paint-order="fill stroke markers" d=" M 442.76410625081496 151.3359326687327 L 439 141 L 434.3530169751094 150.97023313500637" stroke-miterlimit="10" stroke-dasharray=""/></g><g><rect fill="#ffffff" stroke="none" x="460" y="181" width="53.49169921875" height="13" transform="matrix(1 0 0 1 -30 -14)"/></g><g><g><path fill="none" stroke="none"/><text fill="#000000" stroke="none" font-family="Arial" font-size="13px" font-style="normal" font-weight="normal" text-decoration="undefined" x="486.745849609375" y="187.5" text-anchor="middle" dominant-baseline="central" transform="matrix(1 0 0 1 -30 -14)">«extend»</text></g></g><g><path fill="none" stroke="#000000" paint-order="fill stroke markers" d=" M 355 186 L 437 187" stroke-miterlimit="10" stroke-dasharray="3"/></g><g><path fill="#C0C0C0" stroke="none" paint-order="stroke fill markers" d=" M 369 277 C 369 257.1177472 401.2354944 241 441 241 C 480.7645056 241 513 257.1177472 513 277 C 513 296.8822528 480.7645056 313 441 313 C 401.2354944 313 369 296.8822528 369 277 Z" fill-opacity="0.2"/></g><g><path fill="#ffffff" stroke="none" paint-order="stroke fill markers" d=" M 362 270 C 362 250.1177472 394.2354944 234 434 234 C 473.7645056 234 506 250.1177472 506 270 C 506 289.8822528 473.7645056 306 434 306 C 394.2354944 306 362 289.8822528 362 270 Z"/></g><g><path fill="none" stroke="#000000" paint-order="fill stroke markers" d=" M 362 270 C 362 250.1177472 394.2354944 234 434 234 C 473.7645056 234 506 250.1177472 506 270 C 506 289.8822528 473.7645056 306 434 306 C 394.2354944 306 362 289.8822528 362 270 Z" stroke-miterlimit="10" stroke-dasharray=""/></g><g><g><path fill="none" stroke="none"/><text fill="#000000" stroke="none" font-family="Arial" font-size="13px" font-style="normal" font-weight="bold" text-decoration="undefined" x="464" y="272" text-anchor="middle" dominant-baseline="central" transform="matrix(1 0 0 1 -30 -14)">UC32 -</text><text fill="#000000" stroke="none" font-family="Arial" font-size="13px" font-style="normal" font-weight="bold" text-decoration="undefined" x="464" y="285" text-anchor="middle" dominant-baseline="central" transform="matrix(1 0 0 1 -30 -14)">Gateway non</text><text fill="#000000" stroke="none" font-family="Arial" font-size="13px" font-style="normal" font-weight="bold" text-decoration="undefined" x="464" y="298" text-anchor="middle" dominant-baseline="central" transform="matrix(1 0 0 1 -30 -14)">raggiungibile</text></g></g></g></svg>