<svg version="1.1" xmlns="http://www.w3.org/2000/svg" xmlns:xlink="http://www.w3.org/1999/xlink" width="860.47265625" height="396"><defs/><g><g><rect fill="#C0C0C0" stroke="none" x="199" y="31" width="579" height="376" transform="matrix(1 0 0 1 -30 -14)" fill-opacity="0.2"/></g><g><rect fill="#ffffff" stroke="none" x="192" y="24" width="579" height="376" transform="matrix(1 0 0 1 -30 -14)"/></g><g><path fill="none" stroke="#000000" paint-order="fill stroke markers" d=" M 162 10 L 741 10 L 741 386 L 162 386 L 162 10 Z Z" stroke-miterlimit="10" stroke-dasharray=""/></g><g><g><path fill="none" stroke="none"/><text fill="#000000" stroke="none" font-family="Arial" font-size="13px" font-style="normal" font-weight="bold" text-decoration="undefined" x="482" y="37.5" text-anchor="middle" dominant-baseline="central" transform="matrix(1 0 0 1 -30 -14)">Sistema cloud</text></g></g><g><path fill="#ffffff" stroke="none" paint-order="stroke fill markers" d=" M 47.930751953125 91.85 C 47.930751953125 86.96227952 51.888554321125 83 56.770751953125 83 C 61.652949585125 83 65.610751953125 86.96227952 65.610751953125 91.85 C 65.610751953125 96.73772048 61.652949585125 100.7 56.770751953125 100.7 C 51.888554321125 100.7 47.930751953125 96.73772048 47.930751953125 91.85 Z"/></g><g><path fill="none" stroke="#000000" paint-order="fill stroke markers" d=" M 47.930751953125 91.85 C 47.930751953125 86.96227952 51.888554321125 83 56.770751953125 83 C 61.652949585125 83 65.610751953125 86.96227952 65.610751953125 91.85 C 65.610751953125 96.73772048 61.652949585125 100.7 56.770751953125 100.7 C 51.888554321125 100.7 47.930751953125 96.73772048 47.930751953125 91.85 Z" stroke-miterlimit="10" stroke-dasharray=""/></g><g><path fill="none" stroke="#000000" paint-order="fill stroke markers" d=" M 56.770751953125 100.7 L 56.770751953125 118.30000000000001" stroke-miterlimit="10" stroke-dasharray=""/></g><g><path fill="none" stroke="#000000" paint-order="fill stroke markers" d=" M 47.410751953125 107.3 L 66.130751953125 107.3" stroke-miterlimit="10" stroke-dasharray=""/></g><g><path fill="none" stroke="#000000" paint-order="fill stroke markers" d=" M 56.770751953125 118.30000000000001 L 43.770751953125 136" stroke-miterlimit="10" stroke-dasharray=""/></g><g><path fill="none" stroke="#000000" paint-order="fill stroke markers" d=" M 56.770751953125 118.30000000000001 L 69.770751953125 136" stroke-miterlimit="10" stroke-dasharray=""/></g><g><g><path fill="none" stroke="none"/><text fill="#000000" stroke="none" font-family="Arial" font-size="13px" font-style="normal" font-weight="bold" text-decoration="undefined" x="87.270751953125" y="164.5" text-anchor="middle" dominant-baseline="central" transform="matrix(1 0 0 1 -30 -14)">Tenant admin</text></g></g><g><path fill="#C0C0C0" stroke="none" paint-order="stroke fill markers" d=" M 372 132 C 372 107.147184 406.0263552 87 448 87 C 489.9736448 87 524 107.147184 524 132 C 524 156.852816 489.9736448 177 448 177 C 406.0263552 177 372 156.852816 372 132 Z" fill-opacity="0.2"/></g><g><path fill="#ffffff" stroke="none" paint-order="stroke fill markers" d=" M 365 125 C 365 100.147184 399.0263552 80 441 80 C 482.9736448 80 517 100.147184 517 125 C 517 149.852816 482.9736448 170 441 170 C 399.0263552 170 365 149.852816 365 125 Z"/></g><g><path fill="none" stroke="#000000" paint-order="fill stroke markers" d=" M 365 125 C 365 100.147184 399.0263552 80 441 80 C 482.9736448 80 517 100.147184 517 125 C 517 149.852816 482.9736448 170 441 170 C 399.0263552 170 365 149.852816 365 125 Z" stroke-miterlimit="10" stroke-dasharray=""/></g><g><g><path fill="none" stroke="none"/><text fill="#000000" stroke="none" font-family="Arial" font-size="13px" font-style="normal" font-weight="bold" text-decoration="undefined" x="471" y="120.5" text-anchor="middle" dominant-baseline="central" transform="matrix(1 0 0 1 -30 -14)">UC83 -</text><text fill="#000000" stroke="none" font-family="Arial" font-size="13px" font-style="normal" font-weight="bold" text-decoration="undefined" x="471" y="133.5" text-anchor="middle" dominant-baseline="central" transform="matrix(1 0 0 1 -30 -14)">Associazione</text><text fill="#000000" stroke="none" font-family="Arial" font-size="13px" font-style="normal" font-weight="bold" text-decoration="undefined" x="471" y="146.5" text-anchor="middle" dominant-baseline="central" transform="matrix(1 0 0 1 -30 -14)">Gateway –</text><text fill="#000000" stroke="none" font-family="Arial" font-size="13px" font-style="normal" font-weight="bold" text-decoration="undefined" x="471" y="159.5" text-anchor="middle" dominant-baseline="central" transform="matrix(1 0 0 1 -30 -14)">Tenant</text></g></g><g><path fill="#C0C0C0" stroke="none" paint-order="stroke fill markers" d=" M 604 187 C 604 167.1177472 630.862912 151 664 151 C 697.137088 151 724 167.1177472 724 187 C 724 206.8822528 697.137088 223 664 223 C 630.862912 223 604 206.8822528 604 187 Z" fill-opacity="0.2"/></g><g><path fill="#ffffff" stroke="none" paint-order="stroke fill markers" d=" M 597 180 C 597 160.1177472 623.862912 144 657 144 C 690.137088 144 717 160.1177472 717 180 C 717 199.8822528 690.137088 216 657 216 C 623.862912 216 597 199.8822528 597 180 Z"/></g><g><path fill="none" stroke="#000000" paint-order="fill stroke markers" d=" M 597 180 C 597 160.1177472 623.862912 144 657 144 C 690.137088 144 717 160.1177472 717 180 C 717 199.8822528 690.137088 216 657 216 C 623.862912 216 597 199.8822528 597 180 Z" stroke-miterlimit="10" stroke-dasharray=""/></g><g><g><path fill="none" stroke="none"/><text fill="#000000" stroke="none" font-family="Arial" font-size="13px" font-style="normal" font-weight="bold" text-decoration="undefined" x="687" y="182" text-anchor="middle" dominant-baseline="central" transform="matrix(1 0 0 1 -30 -14)">UC83.1 -</text><text fill="#000000" stroke="none" font-family="Arial" font-size="13px" font-style="normal" font-weight="bold" text-decoration="undefined" x="687" y="195" text-anchor="middle" dominant-baseline="central" transform="matrix(1 0 0 1 -30 -14)">Selezione</text><text fill="#000000" stroke="none" font-family="Arial" font-size="13px" font-style="normal" font-weight="bold" text-decoration="undefined" x="687" y="208" text-anchor="middle" dominant-baseline="central" transform="matrix(1 0 0 1 -30 -14)">Gateway</text></g></g><g><path fill="#C0C0C0" stroke="none" paint-order="stroke fill markers" d=" M 500 264.5 C 500 254.835016 549.6963872 247 611 247 C 672.3036128 247 722 254.835016 722 264.5 C 722 274.164984 672.3036128 282 611 282 C 549.6963872 282 500 274.164984 500 264.5 Z" fill-opacity="0.2"/></g><g><path fill="#ffffff" stroke="none" paint-order="stroke fill markers" d=" M 493 257.5 C 493 247.835016 542.6963872 240 604 240 C 665.3036128 240 715 247.835016 715 257.5 C 715 267.164984 665.3036128 275 604 275 C 542.6963872 275 493 267.164984 493 257.5 Z"/></g><g><path fill="none" stroke="#000000" paint-order="fill stroke markers" d=" M 493 257.5 C 493 247.835016 542.6963872 240 604 240 C 665.3036128 240 715 247.835016 715 257.5 C 715 267.164984 665.3036128 275 604 275 C 542.6963872 275 493 267.164984 493 257.5 Z" stroke-miterlimit="10" stroke-dasharray=""/></g><g><g><path fill="none" stroke="none"/><text fill="#000000" stroke="none" font-family="Arial" font-size="13px" font-style="normal" font-weight="bold" text-decoration="undefined" x="634" y="272.5" text-anchor="middle" dominant-baseline="central" transform="matrix(1 0 0 1 -30 -14)">UC84 - Selezione tenant</text></g></g><g><path fill="#C0C0C0" stroke="none" paint-order="stroke fill markers" d=" M 204 203 C 204 183.1177472 236.90706720000003 167 277.5 167 C 318.09293279999997 167 351 183.1177472 351 203 C 351 222.8822528 318.09293279999997 239 277.5 239 C 236.90706720000003 239 204 222.8822528 204 203 Z" fill-opacity="0.2"/></g><g><path fill="#ffffff" stroke="none" paint-order="stroke fill markers" d=" M 197 196 C 197 176.1177472 229.90706720000003 160 270.5 160 C 311.09293279999997 160 344 176.1177472 344 196 C 344 215.8822528 311.09293279999997 232 270.5 232 C 229.90706720000003 232 197 215.8822528 197 196 Z"/></g><g><path fill="none" stroke="#000000" paint-order="fill stroke markers" d=" M 197 196 C 197 176.1177472 229.90706720000003 160 270.5 160 C 311.09293279999997 160 344 176.1177472 344 196 C 344 215.8822528 311.09293279999997 232 270.5 232 C 229.90706720000003 232 197 215.8822528 197 196 Z" stroke-miterlimit="10" stroke-dasharray=""/></g><g><g><path fill="none" stroke="none"/><text fill="#000000" stroke="none" font-family="Arial" font-size="13px" font-style="normal" font-weight="bold" text-decoration="undefined" x="300.5" y="198" text-anchor="middle" dominant-baseline="central" transform="matrix(1 0 0 1 -30 -14)">UC85 -</text><text fill="#000000" stroke="none" font-family="Arial" font-size="13px" font-style="normal" font-weight="bold" text-decoration="undefined" x="300.5" y="211" text-anchor="middle" dominant-baseline="central" transform="matrix(1 0 0 1 -30 -14)">Configurazione</text><text fill="#000000" stroke="none" font-family="Arial" font-size="13px" font-style="normal" font-weight="bold" text-decoration="undefined" x="300.5" y="224" text-anchor="middle" dominant-baseline="central" transform="matrix(1 0 0 1 -30 -14)">Gateway</text></g></g><g><path fill="none" stroke="#000000" paint-order="fill stroke markers" d=" M 518 145 L 596 164" stroke-miterlimit="10" stroke-dasharray="3"/></g><g><path fill="none" stroke="#000000" paint-order="fill stroke markers" d=" M 585.1297802224125 165.6847320222948 L 596 164 L 587.1223084448329 157.50487931972654" stroke-miterlimit="10" stroke-dasharray=""/></g><g><rect fill="#ffffff" stroke="none" x="604" y="156" width="53.49169921875" height="13" transform="matrix(1 0 0 1 -30 -14)"/></g><g><g><path fill="none" stroke="none"/><text fill="#000000" stroke="none" font-family="Arial" font-size="13px" font-style="normal" font-weight="normal" text-decoration="undefined" x="630.745849609375" y="162.5" text-anchor="middle" dominant-baseline="central" transform="matrix(1 0 0 1 -30 -14)">«extend»</text></g></g><g><path fill="none" stroke="#000000" paint-order="fill stroke markers" d=" M 498 171 L 582 239" stroke-miterlimit="10" stroke-dasharray="3"/></g><g><path fill="none" stroke="#000000" paint-order="fill stroke markers" d=" M 571.4524919786121 235.87748906506994 L 582 239 L 576.7497342098753 229.3338368970389" stroke-miterlimit="10" stroke-dasharray=""/></g><g><rect fill="#ffffff" stroke="none" x="562" y="189" width="53.49169921875" height="13" transform="matrix(1 0 0 1 -30 -14)"/></g><g><g><path fill="none" stroke="none"/><text fill="#000000" stroke="none" font-family="Arial" font-size="13px" font-style="normal" font-weight="normal" text-decoration="undefined" x="588.745849609375" y="195.5" text-anchor="middle" dominant-baseline="central" transform="matrix(1 0 0 1 -30 -14)">«extend»</text></g></g><g><path fill="none" stroke="#000000" paint-order="fill stroke markers" d=" M 364 157 L 345 165" stroke-miterlimit="10" stroke-dasharray="3"/></g><g><path fill="none" stroke="#000000" paint-order="fill stroke markers" d=" M 352.7327478227216 157.17666240596802 L 345 165 L 355.99981348690363 164.9359433584003" stroke-miterlimit="10" stroke-dasharray=""/></g><g><rect fill="#ffffff" stroke="none" x="385" y="181" width="53.49169921875" height="13" transform="matrix(1 0 0 1 -30 -14)"/></g><g><g><path fill="none" stroke="none"/><text fill="#000000" stroke="none" font-family="Arial" font-size="13px" font-style="normal" font-weight="normal" text-decoration="undefined" x="411.745849609375" y="187.5" text-anchor="middle" dominant-baseline="central" transform="matrix(1 0 0 1 -30 -14)">«extend»</text></g></g><g><path fill="#C0C0C0" stroke="none" paint-order="stroke fill markers" d=" M 380 332 C 380 307.147184 414.0263552 287 456 287 C 497.9736448 287 532 307.147184 532 332 C 532 356.852816 497.9736448 377 456 377 C 414.0263552 377 380 356.852816 380 332 Z" fill-opacity="0.2"/></g><g><path fill="#ffffff" stroke="none" paint-order="stroke fill markers" d=" M 373 325 C 373 300.147184 407.0263552 280 449 280 C 490.9736448 280 525 300.147184 525 325 C 525 349.852816 490.9736448 370 449 370 C 407.0263552 370 373 349.852816 373 325 Z"/></g><g><path fill="none" stroke="#000000" paint-order="fill stroke markers" d=" M 373 325 C 373 300.147184 407.0263552 280 449 280 C 490.9736448 280 525 300.147184 525 325 C 525 349.852816 490.9736448 370 449 370 C 407.0263552 370 373 349.852816 373 325 Z" stroke-miterlimit="10" stroke-dasharray=""/></g><g><g><path fill="none" stroke="none"/><text fill="#000000" stroke="none" font-family="Arial" font-size="13px" font-style="normal" font-weight="bold" text-decoration="undefined" x="479" y="320.5" text-anchor="middle" dominant-baseline="central" transform="matrix(1 0 0 1 -30 -14)">UC86 -</text><text fill="#000000" stroke="none" font-family="Arial" font-size="13px" font-style="normal" font-weight="bold" text-decoration="undefined" x="479" y="333.5" text-anchor="middle" dominant-baseline="central" transform="matrix(1 0 0 1 -30 -14)">Configurazione</text><text fill="#000000" stroke="none" font-family="Arial" font-size="13px" font-style="normal" font-weight="bold" text-decoration="undefined" x="479" y="346.5" text-anchor="middle" dominant-baseline="central" transform="matrix(1 0 0 1 -30 -14)">Gateway non</text><text fill="#000000" stroke="none" font-family="Arial" font-size="13px" font-style="normal" font-weight="bold" text-decoration="undefined" x="479" y="359.5" text-anchor="middle" dominant-baseline="central" transform="matrix(1 0 0 1 -30 -14)">valida</text></g></g><g><path fill="#C0C0C0" stroke="none" paint-order="stroke fill markers" d=" M 204 332 C 204 307.147184 232.8776304 287 268.5 287 C 304.1223696 287 333 307.147184 333 332 C 333 356.852816 304.1223696 377 268.5 377 C 232.8776304 377 204 356.852816 204 332 Z" fill-opacity="0.2"/></g><g><path fill="#ffffff" stroke="none" paint-order="stroke fill markers" d=" M 197 325 C 197 300.147184 225.8776304 280 261.5 280 C 297.1223696 280 326 300.147184 326 325 C 326 349.852816 297.1223696 370 261.5 370 C 225.8776304 370 197 349.852816 197 325 Z"/></g><g><path fill="none" stroke="#000000" paint-order="fill stroke markers" d=" M 197 325 C 197 300.147184 225.8776304 280 261.5 280 C 297.1223696 280 326 300.147184 326 325 C 326 349.852816 297.1223696 370 261.5 370 C 225.8776304 370 197 349.852816 197 325 Z" stroke-miterlimit="10" stroke-dasharray=""/></g><g><g><path fill="none" stroke="none"/><text fill="#000000" stroke="none" font-family="Arial" font-size="13px" font-style="normal" font-weight="bold" text-decoration="undefined" x="291.5" y="327" text-anchor="middle" dominant-baseline="central" transform="matrix(1 0 0 1 -30 -14)">UC34 -</text><text fill="#000000" stroke="none" font-family="Arial" font-size="13px" font-style="normal" font-weight="bold" text-decoration="undefined" x="291.5" y="340" text-anchor="middle" dominant-baseline="central" transform="matrix(1 0 0 1 -30 -14)">Gateway non</text><text fill="#000000" stroke="none" font-family="Arial" font-size="13px" font-style="normal" font-weight="bold" text-decoration="undefined" x="291.5" y="353" text-anchor="middle" dominant-baseline="central" transform="matrix(1 0 0 1 -30 -14)">raggiungibile</text></g></g><g><path fill="none" stroke="#000000" paint-order="fill stroke markers" d=" M 321 233 L 385 279" stroke-miterlimit="10" stroke-dasharray="3"/></g><g><path fill="none" stroke="#000000" paint-order="fill stroke markers" d=" M 374.2909254939018 276.4868897312618 L 385 279 L 379.20457810940036 269.65050348361166" stroke-miterlimit="10" stroke-dasharray=""/></g><g><rect fill="#ffffff" stroke="none" x="374" y="239" width="53.49169921875" height="13" transform="matrix(1 0 0 1 -30 -14)"/></g><g><g><path fill="none" stroke="none"/><text fill="#000000" stroke="none" font-family="Arial" font-size="13px" font-style="normal" font-weight="normal" text-decoration="undefined" x="400.745849609375" y="245.5" text-anchor="middle" dominant-baseline="central" transform="matrix(1 0 0 1 -30 -14)">«extend»</text></g></g><g><path fill="none" stroke="#000000" paint-order="fill stroke markers" d=" M 267 233 L 264 279" stroke-miterlimit="10" stroke-dasharray="3"/></g><g><path fill="none" stroke="#000000" paint-order="fill stroke markers" d=" M 260.46078408841976 268.58491715197533 L 264 279 L 268.8619721372962 269.1328207203803" stroke-miterlimit="10" stroke-dasharray=""/></g><g><rect fill="#ffffff" stroke="none" x="298" y="265" width="53.49169921875" height="13" transform="matrix(1 0 0 1 -30 -14)"/></g><g><g><path fill="none" stroke="none"/><text fill="#000000" stroke="none" font-family="Arial" font-size="13px" font-style="normal" font-weight="normal" text-decoration="undefined" x="324.745849609375" y="271.5" text-anchor="middle" dominant-baseline="central" transform="matrix(1 0 0 1 -30 -14)">«extend»</text></g></g><g><path fill="#ffffff" stroke="none" paint-order="stroke fill markers" d=" M 808.896328125 91.85 C 808.896328125 86.96227952 812.854130493 83 817.736328125 83 C 822.618525757 83 826.576328125 86.96227952 826.576328125 91.85 C 826.576328125 96.73772048 822.618525757 100.7 817.736328125 100.7 C 812.854130493 100.7 808.896328125 96.73772048 808.896328125 91.85 Z"/></g><g><path fill="none" stroke="#000000" paint-order="fill stroke markers" d=" M 808.896328125 91.85 C 808.896328125 86.96227952 812.854130493 83 817.736328125 83 C 822.618525757 83 826.576328125 86.96227952 826.576328125 91.85 C 826.576328125 96.73772048 822.618525757 100.7 817.736328125 100.7 C 812.854130493 100.7 808.896328125 96.73772048 808.896328125 91.85 Z" stroke-miterlimit="10" stroke-dasharray=""/></g><g><path fill="none" stroke="#000000" paint-order="fill stroke markers" d=" M 817.736328125 100.7 L 817.736328125 118.30000000000001" stroke-miterlimit="10" stroke-dasharray=""/></g><g><path fill="none" stroke="#000000" paint-order="fill stroke markers" d=" M 808.376328125 107.3 L 827.096328125 107.3" stroke-miterlimit="10" stroke-dasharray=""/></g><g><path fill="none" stroke="#000000" paint-order="fill stroke markers" d=" M 817.736328125 118.30000000000001 L 804.736328125 136" stroke-miterlimit="10" stroke-dasharray=""/></g><g><path fill="none" stroke="#000000" paint-order="fill stroke markers" d=" M 817.736328125 118.30000000000001 L 830.736328125 136" stroke-miterlimit="10" stroke-dasharray=""/></g><g><g><path fill="none" stroke="none"/><text fill="#000000" stroke="none" font-family="Arial" font-size="13px" font-style="normal" font-weight="bold" text-decoration="undefined" x="848.236328125" y="164.5" text-anchor="middle" dominant-baseline="central" transform="matrix(1 0 0 1 -30 -14)">Gateway</text></g></g><g><path fill="none" stroke="#000000" paint-order="fill stroke markers" d=" M 105 122 L 364 124" stroke-miterlimit="10" stroke-dasharray=""/></g><g><path fill="none" stroke="#000000" paint-order="fill stroke markers" d=" M 785 122 L 518 124" stroke-miterlimit="10" stroke-dasharray=""/></g></g></svg>