<svg version="1.1" xmlns="http://www.w3.org/2000/svg" xmlns:xlink="http://www.w3.org/1999/xlink" width="804.47265625" height="299"><defs/><g><g><rect fill="#C0C0C0" stroke="none" x="239" y="32" width="544" height="279" transform="matrix(1 0 0 1 -78 -15)" fill-opacity="0.2"/></g><g><rect fill="#ffffff" stroke="none" x="232" y="25" width="544" height="279" transform="matrix(1 0 0 1 -78 -15)"/></g><g><path fill="none" stroke="#000000" paint-order="fill stroke markers" d=" M 154 10 L 698 10 L 698 289 L 154 289 L 154 10 Z Z" stroke-miterlimit="10" stroke-dasharray=""/></g><g><g><path fill="none" stroke="none"/><text fill="#000000" stroke="none" font-family="Arial" font-size="13px" font-style="normal" font-weight="bold" text-decoration="undefined" x="504.5" y="38.5" text-anchor="middle" dominant-baseline="central" transform="matrix(1 0 0 1 -78 -15)">Sistema cloud</text></g></g><g><path fill="#C0C0C0" stroke="none" paint-order="stroke fill markers" d=" M 321 81 C 321 61.1177472 359.5035072 45 407 45 C 454.49649279999994 45 493 61.1177472 493 81 C 493 100.8822528 454.49649279999994 117 407 117 C 359.5035072 117 321 100.8822528 321 81 Z" fill-opacity="0.2"/></g><g><path fill="#ffffff" stroke="none" paint-order="stroke fill markers" d=" M 314 74 C 314 54.1177472 352.5035072 38 400 38 C 447.49649279999994 38 486 54.1177472 486 74 C 486 93.8822528 447.49649279999994 110 400 110 C 352.5035072 110 314 93.8822528 314 74 Z"/></g><g><path fill="none" stroke="#000000" paint-order="fill stroke markers" d=" M 314 74 C 314 54.1177472 352.5035072 38 400 38 C 447.49649279999994 38 486 54.1177472 486 74 C 486 93.8822528 447.49649279999994 110 400 110 C 352.5035072 110 314 93.8822528 314 74 Z" stroke-miterlimit="10" stroke-dasharray=""/></g><g><g><path fill="none" stroke="none"/><text fill="#000000" stroke="none" font-family="Arial" font-size="13px" font-style="normal" font-weight="bold" text-decoration="undefined" x="478" y="77" text-anchor="middle" dominant-baseline="central" transform="matrix(1 0 0 1 -78 -15)">UC83 -</text><text fill="#000000" stroke="none" font-family="Arial" font-size="13px" font-style="normal" font-weight="bold" text-decoration="undefined" x="478" y="90" text-anchor="middle" dominant-baseline="central" transform="matrix(1 0 0 1 -78 -15)">Decommissioning</text><text fill="#000000" stroke="none" font-family="Arial" font-size="13px" font-style="normal" font-weight="bold" text-decoration="undefined" x="478" y="103" text-anchor="middle" dominant-baseline="central" transform="matrix(1 0 0 1 -78 -15)">Gateway</text></g></g><g><path fill="#ffffff" stroke="none" paint-order="stroke fill markers" d=" M 47.930751953125 42.85 C 47.930751953125 37.96227952 51.888554321124985 34 56.770751953125 34 C 61.652949585125015 34 65.610751953125 37.96227952 65.610751953125 42.85 C 65.610751953125 47.73772048 61.652949585125015 51.7 56.770751953125 51.7 C 51.888554321124985 51.7 47.930751953125 47.73772048 47.930751953125 42.85 Z"/></g><g><path fill="none" stroke="#000000" paint-order="fill stroke markers" d=" M 47.930751953125 42.85 C 47.930751953125 37.96227952 51.888554321124985 34 56.770751953125 34 C 61.652949585125015 34 65.610751953125 37.96227952 65.610751953125 42.85 C 65.610751953125 47.73772048 61.652949585125015 51.7 56.770751953125 51.7 C 51.888554321124985 51.7 47.930751953125 47.73772048 47.930751953125 42.85 Z" stroke-miterlimit="10" stroke-dasharray=""/></g><g><path fill="none" stroke="#000000" paint-order="fill stroke markers" d=" M 56.770751953125 51.7 L 56.770751953125 69.3" stroke-miterlimit="10" stroke-dasharray=""/></g><g><path fill="none" stroke="#000000" paint-order="fill stroke markers" d=" M 47.410751953125 58.3 L 66.13075195312501 58.3" stroke-miterlimit="10" stroke-dasharray=""/></g><g><path fill="none" stroke="#000000" paint-order="fill stroke markers" d=" M 56.770751953125 69.3 L 43.770751953125 87" stroke-miterlimit="10" stroke-dasharray=""/></g><g><path fill="none" stroke="#000000" paint-order="fill stroke markers" d=" M 56.770751953125 69.3 L 69.770751953125 87" stroke-miterlimit="10" stroke-dasharray=""/></g><g><g><path fill="none" stroke="none"/><text fill="#000000" stroke="none" font-family="Arial" font-size="13px" font-style="normal" font-weight="bold" text-decoration="undefined" x="135.270751953125" y="116.5" text-anchor="middle" dominant-baseline="central" transform="matrix(1 0 0 1 -78 -15)">Super Admin</text></g></g><g><path fill="none" stroke="#000000" paint-order="fill stroke markers" d=" M 105 73 L 313 74" stroke-miterlimit="10" stroke-dasharray=""/></g><g><path fill="#C0C0C0" stroke="none" paint-order="stroke fill markers" d=" M 505 197 C 505 172.147184 546.1897984 152 597 152 C 647.8102016 152 689 172.147184 689 197 C 689 221.852816 647.8102016 242 597 242 C 546.1897984 242 505 221.852816 505 197 Z" fill-opacity="0.2"/></g><g><path fill="#ffffff" stroke="none" paint-order="stroke fill markers" d=" M 498 190 C 498 165.147184 539.1897984 145 590 145 C 640.8102016 145 682 165.147184 682 190 C 682 214.852816 640.8102016 235 590 235 C 539.1897984 235 498 214.852816 498 190 Z"/></g><g><path fill="none" stroke="#000000" paint-order="fill stroke markers" d=" M 498 190 C 498 165.147184 539.1897984 145 590 145 C 640.8102016 145 682 165.147184 682 190 C 682 214.852816 640.8102016 235 590 235 C 539.1897984 235 498 214.852816 498 190 Z" stroke-miterlimit="10" stroke-dasharray=""/></g><g><g><path fill="none" stroke="none"/><text fill="#000000" stroke="none" font-family="Arial" font-size="13px" font-style="normal" font-weight="bold" text-decoration="undefined" x="668" y="186.5" text-anchor="middle" dominant-baseline="central" transform="matrix(1 0 0 1 -78 -15)">UC91 - Selezione</text><text fill="#000000" stroke="none" font-family="Arial" font-size="13px" font-style="normal" font-weight="bold" text-decoration="undefined" x="668" y="199.5" text-anchor="middle" dominant-baseline="central" transform="matrix(1 0 0 1 -78 -15)">Gateway per invio</text><text fill="#000000" stroke="none" font-family="Arial" font-size="13px" font-style="normal" font-weight="bold" text-decoration="undefined" x="668" y="212.5" text-anchor="middle" dominant-baseline="central" transform="matrix(1 0 0 1 -78 -15)">comando da Super</text><text fill="#000000" stroke="none" font-family="Arial" font-size="13px" font-style="normal" font-weight="bold" text-decoration="undefined" x="668" y="225.5" text-anchor="middle" dominant-baseline="central" transform="matrix(1 0 0 1 -78 -15)">Admin</text></g></g><g><path fill="none" stroke="#000000" paint-order="fill stroke markers" d=" M 461 111 L 515 144" stroke-miterlimit="10" stroke-dasharray="3"/></g><g><path fill="none" stroke="#000000" paint-order="fill stroke markers" d=" M 504.1333210890066 142.29257812905803 L 515 144 L 508.523427236349 135.1087680697704" stroke-miterlimit="10" stroke-dasharray=""/></g><g><rect fill="#ffffff" stroke="none" x="566" y="127" width="55.65625" height="13" transform="matrix(1 0 0 1 -78 -15)"/></g><g><g><path fill="none" stroke="none"/><text fill="#000000" stroke="none" font-family="Arial" font-size="13px" font-style="normal" font-weight="normal" text-decoration="undefined" x="593.828125" y="133.5" text-anchor="middle" dominant-baseline="central" transform="matrix(1 0 0 1 -78 -15)">«include»</text></g></g><g><path fill="#ffffff" stroke="none" paint-order="stroke fill markers" d=" M 752.896328125 42.85 C 752.896328125 37.96227952 756.854130493 34 761.736328125 34 C 766.618525757 34 770.576328125 37.96227952 770.576328125 42.85 C 770.576328125 47.73772048 766.618525757 51.7 761.736328125 51.7 C 756.854130493 51.7 752.896328125 47.73772048 752.896328125 42.85 Z"/></g><g><path fill="none" stroke="#000000" paint-order="fill stroke markers" d=" M 752.896328125 42.85 C 752.896328125 37.96227952 756.854130493 34 761.736328125 34 C 766.618525757 34 770.576328125 37.96227952 770.576328125 42.85 C 770.576328125 47.73772048 766.618525757 51.7 761.736328125 51.7 C 756.854130493 51.7 752.896328125 47.73772048 752.896328125 42.85 Z" stroke-miterlimit="10" stroke-dasharray=""/></g><g><path fill="none" stroke="#000000" paint-order="fill stroke markers" d=" M 761.736328125 51.7 L 761.736328125 69.3" stroke-miterlimit="10" stroke-dasharray=""/></g><g><path fill="none" stroke="#000000" paint-order="fill stroke markers" d=" M 752.376328125 58.3 L 771.096328125 58.3" stroke-miterlimit="10" stroke-dasharray=""/></g><g><path fill="none" stroke="#000000" paint-order="fill stroke markers" d=" M 761.736328125 69.3 L 748.736328125 87" stroke-miterlimit="10" stroke-dasharray=""/></g><g><path fill="none" stroke="#000000" paint-order="fill stroke markers" d=" M 761.736328125 69.3 L 774.736328125 87" stroke-miterlimit="10" stroke-dasharray=""/></g><g><g><path fill="none" stroke="none"/><text fill="#000000" stroke="none" font-family="Arial" font-size="13px" font-style="normal" font-weight="bold" text-decoration="undefined" x="840.236328125" y="116.5" text-anchor="middle" dominant-baseline="central" transform="matrix(1 0 0 1 -78 -15)">Gateway</text></g></g><g><path fill="none" stroke="#000000" paint-order="fill stroke markers" d=" M 729 73 L 487 74" stroke-miterlimit="10" stroke-dasharray=""/></g><g><path fill="none" stroke="#000000" paint-order="fill stroke markers" d=" M 395 200 L 399 111" stroke-miterlimit="10" stroke-dasharray="3"/></g><g><path fill="none" stroke="#000000" paint-order="fill stroke markers" d=" M 402.74898386004645 121.34142736845891 L 399 111 L 394.3384384906123 120.96342532938323" stroke-miterlimit="10" stroke-dasharray=""/></g><g><rect fill="#ffffff" stroke="none" x="483" y="163" width="53.49169921875" height="13" transform="matrix(1 0 0 1 -78 -15)"/></g><g><g><path fill="none" stroke="none"/><text fill="#000000" stroke="none" font-family="Arial" font-size="13px" font-style="normal" font-weight="normal" text-decoration="undefined" x="509.745849609375" y="169.5" text-anchor="middle" dominant-baseline="central" transform="matrix(1 0 0 1 -78 -15)">«extend»</text></g></g><g><path fill="#C0C0C0" stroke="none" paint-order="stroke fill markers" d=" M 329 244 C 329 224.1177472 361.2354944 208 401 208 C 440.7645056 208 473 224.1177472 473 244 C 473 263.8822528 440.7645056 280 401 280 C 361.2354944 280 329 263.8822528 329 244 Z" fill-opacity="0.2"/></g><g><path fill="#ffffff" stroke="none" paint-order="stroke fill markers" d=" M 322 237 C 322 217.1177472 354.2354944 201 394 201 C 433.7645056 201 466 217.1177472 466 237 C 466 256.8822528 433.7645056 273 394 273 C 354.2354944 273 322 256.8822528 322 237 Z"/></g><g><path fill="none" stroke="#000000" paint-order="fill stroke markers" d=" M 322 237 C 322 217.1177472 354.2354944 201 394 201 C 433.7645056 201 466 217.1177472 466 237 C 466 256.8822528 433.7645056 273 394 273 C 354.2354944 273 322 256.8822528 322 237 Z" stroke-miterlimit="10" stroke-dasharray=""/></g><g><g><path fill="none" stroke="none"/><text fill="#000000" stroke="none" font-family="Arial" font-size="13px" font-style="normal" font-weight="bold" text-decoration="undefined" x="472" y="240" text-anchor="middle" dominant-baseline="central" transform="matrix(1 0 0 1 -78 -15)">UC32 -</text><text fill="#000000" stroke="none" font-family="Arial" font-size="13px" font-style="normal" font-weight="bold" text-decoration="undefined" x="472" y="253" text-anchor="middle" dominant-baseline="central" transform="matrix(1 0 0 1 -78 -15)">Gateway non</text><text fill="#000000" stroke="none" font-family="Arial" font-size="13px" font-style="normal" font-weight="bold" text-decoration="undefined" x="472" y="266" text-anchor="middle" dominant-baseline="central" transform="matrix(1 0 0 1 -78 -15)">raggiungibile</text></g></g><g><path fill="#ffffff" stroke="none" paint-order="stroke fill markers" d=" M 202 121 L 343 121 L 353 131 L 353 171 L 202 171 L 202 121"/></g><g><path fill="none" stroke="#000000" paint-order="fill stroke markers" d=" M 202 121 L 343 121 L 353 131 L 353 171 L 202 171 L 202 121 L 202 121" stroke-miterlimit="10" stroke-dasharray=""/></g><g><path fill="none" stroke="#000000" paint-order="fill stroke markers" d=" M 343 121 L 343 131 L 353 131 L 343 121" stroke-miterlimit="10" stroke-dasharray=""/></g><g><g><path fill="none" stroke="none"/><text fill="#000000" stroke="none" font-family="Arial" font-size="13px" font-style="normal" font-weight="normal" text-decoration="undefined" x="285" y="141" text-anchor="start" dominant-baseline="text-before-edge" transform="matrix(1 0 0 1 -78 -15)">Condizione: il gateway</text><text fill="#000000" stroke="none" font-family="Arial" font-size="13px" font-style="normal" font-weight="normal" text-decoration="undefined" x="285" y="154" text-anchor="start" dominant-baseline="text-before-edge" transform="matrix(1 0 0 1 -78 -15)">non è raggiungibile dal</text><text fill="#000000" stroke="none" font-family="Arial" font-size="13px" font-style="normal" font-weight="normal" text-decoration="undefined" x="285" y="167" text-anchor="start" dominant-baseline="text-before-edge" transform="matrix(1 0 0 1 -78 -15)">sistema</text></g></g><g><path fill="none" stroke="#000000" paint-order="fill stroke markers" d=" M 355 152 L 397 155" stroke-miterlimit="10" stroke-dasharray="3"/></g></g></svg>