<svg version="1.1" xmlns="http://www.w3.org/2000/svg" xmlns:xlink="http://www.w3.org/1999/xlink" width="751.47265625" height="347"><defs/><g><g><rect fill="#C0C0C0" stroke="none" x="177" y="40" width="512" height="327" transform="matrix(1 0 0 1 -24 -23)" fill-opacity="0.2"/></g><g><rect fill="#ffffff" stroke="none" x="170" y="33" width="512" height="327" transform="matrix(1 0 0 1 -24 -23)"/></g><g><path fill="none" stroke="#000000" paint-order="fill stroke markers" d=" M 146 10 L 658 10 L 658 337 L 146 337 L 146 10 Z Z" stroke-miterlimit="10" stroke-dasharray=""/></g><g><g><path fill="none" stroke="none"/><text fill="#000000" stroke="none" font-family="Arial" font-size="13px" font-style="normal" font-weight="bold" text-decoration="undefined" x="426.5" y="46.5" text-anchor="middle" dominant-baseline="central" transform="matrix(1 0 0 1 -24 -23)">Sistema cloud</text></g></g><g><path fill="#ffffff" stroke="none" paint-order="stroke fill markers" d=" M 47.930751953125 67.85 C 47.930751953125 62.962279519999996 51.888554321125 59 56.770751953125 59 C 61.652949585125 59 65.610751953125 62.962279519999996 65.610751953125 67.85 C 65.610751953125 72.73772048 61.652949585125 76.7 56.770751953125 76.7 C 51.888554321125 76.7 47.930751953125 72.73772048 47.930751953125 67.85 Z"/></g><g><path fill="none" stroke="#000000" paint-order="fill stroke markers" d=" M 47.930751953125 67.85 C 47.930751953125 62.962279519999996 51.888554321125 59 56.770751953125 59 C 61.652949585125 59 65.610751953125 62.962279519999996 65.610751953125 67.85 C 65.610751953125 72.73772048 61.652949585125 76.7 56.770751953125 76.7 C 51.888554321125 76.7 47.930751953125 72.73772048 47.930751953125 67.85 Z" stroke-miterlimit="10" stroke-dasharray=""/></g><g><path fill="none" stroke="#000000" paint-order="fill stroke markers" d=" M 56.770751953125 76.7 L 56.770751953125 94.3" stroke-miterlimit="10" stroke-dasharray=""/></g><g><path fill="none" stroke="#000000" paint-order="fill stroke markers" d=" M 47.410751953125 83.3 L 66.130751953125 83.3" stroke-miterlimit="10" stroke-dasharray=""/></g><g><path fill="none" stroke="#000000" paint-order="fill stroke markers" d=" M 56.770751953125 94.3 L 43.770751953125 112" stroke-miterlimit="10" stroke-dasharray=""/></g><g><path fill="none" stroke="#000000" paint-order="fill stroke markers" d=" M 56.770751953125 94.3 L 69.770751953125 112" stroke-miterlimit="10" stroke-dasharray=""/></g><g><g><path fill="none" stroke="none"/><text fill="#000000" stroke="none" font-family="Arial" font-size="13px" font-style="normal" font-weight="bold" text-decoration="undefined" x="81.270751953125" y="149.5" text-anchor="middle" dominant-baseline="central" transform="matrix(1 0 0 1 -24 -23)">Super Admin</text></g></g><g><path fill="#C0C0C0" stroke="none" paint-order="stroke fill markers" d=" M 249 107.5 C 249 92.8644528 304.5166848 81 373 81 C 441.4833152 81 497 92.8644528 497 107.5 C 497 122.13554719999999 441.4833152 134 373 134 C 304.5166848 134 249 122.13554719999999 249 107.5 Z" fill-opacity="0.2"/></g><g><path fill="#ffffff" stroke="none" paint-order="stroke fill markers" d=" M 242 100.5 C 242 85.8644528 297.5166848 74 366 74 C 434.4833152 74 490 85.8644528 490 100.5 C 490 115.13554719999999 434.4833152 127 366 127 C 297.5166848 127 242 115.13554719999999 242 100.5 Z"/></g><g><path fill="none" stroke="#000000" paint-order="fill stroke markers" d=" M 242 100.5 C 242 85.8644528 297.5166848 74 366 74 C 434.4833152 74 490 85.8644528 490 100.5 C 490 115.13554719999999 434.4833152 127 366 127 C 297.5166848 127 242 115.13554719999999 242 100.5 Z" stroke-miterlimit="10" stroke-dasharray=""/></g><g><g><path fill="none" stroke="none"/><text fill="#000000" stroke="none" font-family="Arial" font-size="13px" font-style="normal" font-weight="bold" text-decoration="undefined" x="390" y="118" text-anchor="middle" dominant-baseline="central" transform="matrix(1 0 0 1 -24 -23)">UC85 - Riavvio Gateway</text><text fill="#000000" stroke="none" font-family="Arial" font-size="13px" font-style="normal" font-weight="bold" text-decoration="undefined" x="390" y="131" text-anchor="middle" dominant-baseline="central" transform="matrix(1 0 0 1 -24 -23)">da Super Admin</text></g></g><g><path fill="none" stroke="#000000" paint-order="fill stroke markers" d=" M 396 128 L 501 224" stroke-miterlimit="10" stroke-dasharray="3"/></g><g><path fill="none" stroke="#000000" paint-order="fill stroke markers" d=" M 490.65920022136515 220.24928540966047 L 501 224 L 496.3401060747593 214.03579463251054" stroke-miterlimit="10" stroke-dasharray=""/></g><g><rect fill="#ffffff" stroke="none" x="464" y="168" width="55.65625" height="13" transform="matrix(1 0 0 1 -24 -23)"/></g><g><g><path fill="none" stroke="none"/><text fill="#000000" stroke="none" font-family="Arial" font-size="13px" font-style="normal" font-weight="normal" text-decoration="undefined" x="491.828125" y="174.5" text-anchor="middle" dominant-baseline="central" transform="matrix(1 0 0 1 -24 -23)">«include»</text></g></g><g><path fill="none" stroke="#000000" paint-order="fill stroke markers" d=" M 105 98 L 241 99" stroke-miterlimit="10" stroke-dasharray=""/></g><g><path fill="#ffffff" stroke="none" paint-order="stroke fill markers" d=" M 699.896328125 68.85 C 699.896328125 63.962279519999996 703.854130493 60 708.736328125 60 C 713.618525757 60 717.576328125 63.962279519999996 717.576328125 68.85 C 717.576328125 73.73772048 713.618525757 77.7 708.736328125 77.7 C 703.854130493 77.7 699.896328125 73.73772048 699.896328125 68.85 Z"/></g><g><path fill="none" stroke="#000000" paint-order="fill stroke markers" d=" M 699.896328125 68.85 C 699.896328125 63.962279519999996 703.854130493 60 708.736328125 60 C 713.618525757 60 717.576328125 63.962279519999996 717.576328125 68.85 C 717.576328125 73.73772048 713.618525757 77.7 708.736328125 77.7 C 703.854130493 77.7 699.896328125 73.73772048 699.896328125 68.85 Z" stroke-miterlimit="10" stroke-dasharray=""/></g><g><path fill="none" stroke="#000000" paint-order="fill stroke markers" d=" M 708.736328125 77.7 L 708.736328125 95.3" stroke-miterlimit="10" stroke-dasharray=""/></g><g><path fill="none" stroke="#000000" paint-order="fill stroke markers" d=" M 699.376328125 84.3 L 718.096328125 84.3" stroke-miterlimit="10" stroke-dasharray=""/></g><g><path fill="none" stroke="#000000" paint-order="fill stroke markers" d=" M 708.736328125 95.3 L 695.736328125 113" stroke-miterlimit="10" stroke-dasharray=""/></g><g><path fill="none" stroke="#000000" paint-order="fill stroke markers" d=" M 708.736328125 95.3 L 721.736328125 113" stroke-miterlimit="10" stroke-dasharray=""/></g><g><g><path fill="none" stroke="none"/><text fill="#000000" stroke="none" font-family="Arial" font-size="13px" font-style="normal" font-weight="bold" text-decoration="undefined" x="733.236328125" y="150.5" text-anchor="middle" dominant-baseline="central" transform="matrix(1 0 0 1 -24 -23)">Gateway</text></g></g><g><path fill="none" stroke="#000000" paint-order="fill stroke markers" d=" M 676 99 L 491 100" stroke-miterlimit="10" stroke-dasharray=""/></g><g><path fill="#C0C0C0" stroke="none" paint-order="stroke fill markers" d=" M 463 277 C 463 252.14718399999998 505.53294400000004 232 558 232 C 610.467056 232 653 252.14718399999998 653 277 C 653 301.852816 610.467056 322 558 322 C 505.53294400000004 322 463 301.852816 463 277 Z" fill-opacity="0.2"/></g><g><path fill="#ffffff" stroke="none" paint-order="stroke fill markers" d=" M 456 270 C 456 245.14718399999998 498.53294400000004 225 551 225 C 603.467056 225 646 245.14718399999998 646 270 C 646 294.852816 603.467056 315 551 315 C 498.53294400000004 315 456 294.852816 456 270 Z"/></g><g><path fill="none" stroke="#000000" paint-order="fill stroke markers" d=" M 456 270 C 456 245.14718399999998 498.53294400000004 225 551 225 C 603.467056 225 646 245.14718399999998 646 270 C 646 294.852816 603.467056 315 551 315 C 498.53294400000004 315 456 294.852816 456 270 Z" stroke-miterlimit="10" stroke-dasharray=""/></g><g><g><path fill="none" stroke="none"/><text fill="#000000" stroke="none" font-family="Arial" font-size="13px" font-style="normal" font-weight="bold" text-decoration="undefined" x="575" y="274.5" text-anchor="middle" dominant-baseline="central" transform="matrix(1 0 0 1 -24 -23)">UC91 - Selezione</text><text fill="#000000" stroke="none" font-family="Arial" font-size="13px" font-style="normal" font-weight="bold" text-decoration="undefined" x="575" y="287.5" text-anchor="middle" dominant-baseline="central" transform="matrix(1 0 0 1 -24 -23)">Gateway per invio</text><text fill="#000000" stroke="none" font-family="Arial" font-size="13px" font-style="normal" font-weight="bold" text-decoration="undefined" x="575" y="300.5" text-anchor="middle" dominant-baseline="central" transform="matrix(1 0 0 1 -24 -23)">comando da Super</text><text fill="#000000" stroke="none" font-family="Arial" font-size="13px" font-style="normal" font-weight="bold" text-decoration="undefined" x="575" y="313.5" text-anchor="middle" dominant-baseline="central" transform="matrix(1 0 0 1 -24 -23)">Admin</text></g></g><g><path fill="#C0C0C0" stroke="none" paint-order="stroke fill markers" d=" M 279 284 C 279 264.1177472 314.81721600000003 248 359 248 C 403.18278399999997 248 439 264.1177472 439 284 C 439 303.8822528 403.18278399999997 320 359 320 C 314.81721600000003 320 279 303.8822528 279 284 Z" fill-opacity="0.2"/></g><g><path fill="#ffffff" stroke="none" paint-order="stroke fill markers" d=" M 272 277 C 272 257.1177472 307.81721600000003 241 352 241 C 396.18278399999997 241 432 257.1177472 432 277 C 432 296.8822528 396.18278399999997 313 352 313 C 307.81721600000003 313 272 296.8822528 272 277 Z"/></g><g><path fill="none" stroke="#000000" paint-order="fill stroke markers" d=" M 272 277 C 272 257.1177472 307.81721600000003 241 352 241 C 396.18278399999997 241 432 257.1177472 432 277 C 432 296.8822528 396.18278399999997 313 352 313 C 307.81721600000003 313 272 296.8822528 272 277 Z" stroke-miterlimit="10" stroke-dasharray=""/></g><g><g><path fill="none" stroke="none"/><text fill="#000000" stroke="none" font-family="Arial" font-size="13px" font-style="normal" font-weight="bold" text-decoration="undefined" x="376" y="288" text-anchor="middle" dominant-baseline="central" transform="matrix(1 0 0 1 -24 -23)">UC32 - Gateway</text><text fill="#000000" stroke="none" font-family="Arial" font-size="13px" font-style="normal" font-weight="bold" text-decoration="undefined" x="376" y="301" text-anchor="middle" dominant-baseline="central" transform="matrix(1 0 0 1 -24 -23)">non</text><text fill="#000000" stroke="none" font-family="Arial" font-size="13px" font-style="normal" font-weight="bold" text-decoration="undefined" x="376" y="314" text-anchor="middle" dominant-baseline="central" transform="matrix(1 0 0 1 -24 -23)">raggiungibile</text></g></g><g><path fill="none" stroke="#000000" paint-order="fill stroke markers" d=" M 355 240 L 364 128" stroke-miterlimit="10" stroke-dasharray="3"/></g><g><path fill="none" stroke="#000000" paint-order="fill stroke markers" d=" M 367.3819726550012 138.46719928924753 L 364 128 L 358.9899882006809 137.79284339559678" stroke-miterlimit="10" stroke-dasharray=""/></g><g><rect fill="#ffffff" stroke="none" x="327" y="198" width="53.49169921875" height="13" transform="matrix(1 0 0 1 -24 -23)"/></g><g><g><path fill="none" stroke="none"/><text fill="#000000" stroke="none" font-family="Arial" font-size="13px" font-style="normal" font-weight="normal" text-decoration="undefined" x="353.745849609375" y="204.5" text-anchor="middle" dominant-baseline="central" transform="matrix(1 0 0 1 -24 -23)">«extend»</text></g></g><g><path fill="#ffffff" stroke="none" paint-order="stroke fill markers" d=" M 168 169 L 261 169 L 271 179 L 271 232 L 168 232 L 168 169"/></g><g><path fill="none" stroke="#000000" paint-order="fill stroke markers" d=" M 168 169 L 261 169 L 271 179 L 271 232 L 168 232 L 168 169 L 168 169" stroke-miterlimit="10" stroke-dasharray=""/></g><g><path fill="none" stroke="#000000" paint-order="fill stroke markers" d=" M 261 169 L 261 179 L 271 179 L 261 169" stroke-miterlimit="10" stroke-dasharray=""/></g><g><g><path fill="none" stroke="none"/><text fill="#000000" stroke="none" font-family="Arial" font-size="13px" font-style="normal" font-weight="normal" text-decoration="undefined" x="197" y="197" text-anchor="start" dominant-baseline="text-before-edge" transform="matrix(1 0 0 1 -24 -23)">Condizione: il</text><text fill="#000000" stroke="none" font-family="Arial" font-size="13px" font-style="normal" font-weight="normal" text-decoration="undefined" x="197" y="210" text-anchor="start" dominant-baseline="text-before-edge" transform="matrix(1 0 0 1 -24 -23)">gateway non è</text><text fill="#000000" stroke="none" font-family="Arial" font-size="13px" font-style="normal" font-weight="normal" text-decoration="undefined" x="197" y="223" text-anchor="start" dominant-baseline="text-before-edge" transform="matrix(1 0 0 1 -24 -23)">raggiungibile</text></g></g><g><path fill="none" stroke="#000000" paint-order="fill stroke markers" d=" M 273 195 L 359 184" stroke-miterlimit="10" stroke-dasharray="3"/></g></g></svg>