<svg version="1.1" xmlns="http://www.w3.org/2000/svg" xmlns:xlink="http://www.w3.org/1999/xlink" width="772.47265625" height="300"><defs/><g><g><rect fill="#C0C0C0" stroke="none" x="615" y="415" width="528" height="280" transform="matrix(1 0 0 1 -454 -398)" fill-opacity="0.2"/></g><g><rect fill="#ffffff" stroke="none" x="608" y="408" width="528" height="280" transform="matrix(1 0 0 1 -454 -398)"/></g><g><path fill="none" stroke="#000000" paint-order="fill stroke markers" d=" M 154 10 L 682 10 L 682 290 L 154 290 L 154 10 Z Z" stroke-miterlimit="10" stroke-dasharray=""/></g><g><g><path fill="none" stroke="none"/><text fill="#000000" stroke="none" font-family="Arial" font-size="13px" font-style="normal" font-weight="bold" text-decoration="undefined" x="872.5" y="421.5" text-anchor="middle" dominant-baseline="central" transform="matrix(1 0 0 1 -454 -398)">Sistema cloud</text></g></g><g><path fill="#C0C0C0" stroke="none" paint-order="stroke fill markers" d=" M 268 93 C 268 73.1177472 306.50350720000006 57 354 57 C 401.49649279999994 57 440 73.1177472 440 93 C 440 112.8822528 401.49649279999994 129 354 129 C 306.50350720000006 129 268 112.8822528 268 93 Z" fill-opacity="0.2"/></g><g><path fill="#ffffff" stroke="none" paint-order="stroke fill markers" d=" M 261 86 C 261 66.1177472 299.50350720000006 50 347 50 C 394.49649279999994 50 433 66.1177472 433 86 C 433 105.8822528 394.49649279999994 122 347 122 C 299.50350720000006 122 261 105.8822528 261 86 Z"/></g><g><path fill="none" stroke="#000000" paint-order="fill stroke markers" d=" M 261 86 C 261 66.1177472 299.50350720000006 50 347 50 C 394.49649279999994 50 433 66.1177472 433 86 C 433 105.8822528 394.49649279999994 122 347 122 C 299.50350720000006 122 261 105.8822528 261 86 Z" stroke-miterlimit="10" stroke-dasharray=""/></g><g><g><path fill="none" stroke="none"/><text fill="#000000" stroke="none" font-family="Arial" font-size="13px" font-style="normal" font-weight="bold" text-decoration="undefined" x="801" y="472" text-anchor="middle" dominant-baseline="central" transform="matrix(1 0 0 1 -454 -398)">UC85 -</text><text fill="#000000" stroke="none" font-family="Arial" font-size="13px" font-style="normal" font-weight="bold" text-decoration="undefined" x="801" y="485" text-anchor="middle" dominant-baseline="central" transform="matrix(1 0 0 1 -454 -398)">Decommissioning</text><text fill="#000000" stroke="none" font-family="Arial" font-size="13px" font-style="normal" font-weight="bold" text-decoration="undefined" x="801" y="498" text-anchor="middle" dominant-baseline="central" transform="matrix(1 0 0 1 -454 -398)">Gateway</text></g></g><g><path fill="#ffffff" stroke="none" paint-order="stroke fill markers" d=" M 47.930751953125025 59.85000000000002 C 47.930751953125025 54.96227952000004 51.888554321125014 51 56.770751953125 51 C 61.65294958512504 51 65.61075195312503 54.96227952000004 65.61075195312503 59.85000000000002 C 65.61075195312503 64.73772048000001 61.65294958512504 68.69999999999999 56.770751953125 68.69999999999999 C 51.888554321125014 68.69999999999999 47.930751953125025 64.73772048000001 47.930751953125025 59.85000000000002 Z"/></g><g><path fill="none" stroke="#000000" paint-order="fill stroke markers" d=" M 47.930751953125025 59.85000000000002 C 47.930751953125025 54.96227952000004 51.888554321125014 51 56.770751953125 51 C 61.65294958512504 51 65.61075195312503 54.96227952000004 65.61075195312503 59.85000000000002 C 65.61075195312503 64.73772048000001 61.65294958512504 68.69999999999999 56.770751953125 68.69999999999999 C 51.888554321125014 68.69999999999999 47.930751953125025 64.73772048000001 47.930751953125025 59.85000000000002 Z" stroke-miterlimit="10" stroke-dasharray=""/></g><g><path fill="none" stroke="#000000" paint-order="fill stroke markers" d=" M 56.770751953125 68.69999999999999 L 56.770751953125 86.30000000000001" stroke-miterlimit="10" stroke-dasharray=""/></g><g><path fill="none" stroke="#000000" paint-order="fill stroke markers" d=" M 47.410751953124986 75.30000000000001 L 66.13075195312501 75.30000000000001" stroke-miterlimit="10" stroke-dasharray=""/></g><g><path fill="none" stroke="#000000" paint-order="fill stroke markers" d=" M 56.770751953125 86.30000000000001 L 43.770751953125 104" stroke-miterlimit="10" stroke-dasharray=""/></g><g><path fill="none" stroke="#000000" paint-order="fill stroke markers" d=" M 56.770751953125 86.30000000000001 L 69.770751953125 104" stroke-miterlimit="10" stroke-dasharray=""/></g><g><g><path fill="none" stroke="none"/><text fill="#000000" stroke="none" font-family="Arial" font-size="13px" font-style="normal" font-weight="bold" text-decoration="undefined" x="511.270751953125" y="516.5" text-anchor="middle" dominant-baseline="central" transform="matrix(1 0 0 1 -454 -398)">Super Admin</text></g></g><g><path fill="none" stroke="#000000" paint-order="fill stroke markers" d=" M 105 89 L 260 87" stroke-miterlimit="10" stroke-dasharray=""/></g><g><path fill="#C0C0C0" stroke="none" paint-order="stroke fill markers" d=" M 489 198 C 489 173.14718400000004 530.1897984 153 581 153 C 631.8102016 153 673 173.14718400000004 673 198 C 673 222.85281599999996 631.8102016 243 581 243 C 530.1897984 243 489 222.85281599999996 489 198 Z" fill-opacity="0.2"/></g><g><path fill="#ffffff" stroke="none" paint-order="stroke fill markers" d=" M 482 191 C 482 166.14718400000004 523.1897984 146 574 146 C 624.8102016 146 666 166.14718400000004 666 191 C 666 215.85281599999996 624.8102016 236 574 236 C 523.1897984 236 482 215.85281599999996 482 191 Z"/></g><g><path fill="none" stroke="#000000" paint-order="fill stroke markers" d=" M 482 191 C 482 166.14718400000004 523.1897984 146 574 146 C 624.8102016 146 666 166.14718400000004 666 191 C 666 215.85281599999996 624.8102016 236 574 236 C 523.1897984 236 482 215.85281599999996 482 191 Z" stroke-miterlimit="10" stroke-dasharray=""/></g><g><g><path fill="none" stroke="none"/><text fill="#000000" stroke="none" font-family="Arial" font-size="13px" font-style="normal" font-weight="bold" text-decoration="undefined" x="1028" y="570.5" text-anchor="middle" dominant-baseline="central" transform="matrix(1 0 0 1 -454 -398)">UC93 - Selezione</text><text fill="#000000" stroke="none" font-family="Arial" font-size="13px" font-style="normal" font-weight="bold" text-decoration="undefined" x="1028" y="583.5" text-anchor="middle" dominant-baseline="central" transform="matrix(1 0 0 1 -454 -398)">Gateway per invio</text><text fill="#000000" stroke="none" font-family="Arial" font-size="13px" font-style="normal" font-weight="bold" text-decoration="undefined" x="1028" y="596.5" text-anchor="middle" dominant-baseline="central" transform="matrix(1 0 0 1 -454 -398)">comando da Super</text><text fill="#000000" stroke="none" font-family="Arial" font-size="13px" font-style="normal" font-weight="bold" text-decoration="undefined" x="1028" y="609.5" text-anchor="middle" dominant-baseline="central" transform="matrix(1 0 0 1 -454 -398)">Admin</text></g></g><g><path fill="none" stroke="#000000" paint-order="fill stroke markers" d=" M 427 123 L 481 148" stroke-miterlimit="10" stroke-dasharray="3"/></g><g><path fill="none" stroke="#000000" paint-order="fill stroke markers" d=" M 470.009191259203 147.55041883578053 L 481 148 L 473.5462264985714 139.9104227187447" stroke-miterlimit="10" stroke-dasharray=""/></g><g><rect fill="#ffffff" stroke="none" x="917" y="511" width="55.65625" height="13" transform="matrix(1 0 0 1 -454 -398)"/></g><g><g><path fill="none" stroke="none"/><text fill="#000000" stroke="none" font-family="Arial" font-size="13px" font-style="normal" font-weight="normal" text-decoration="undefined" x="944.828125" y="517.5" text-anchor="middle" dominant-baseline="central" transform="matrix(1 0 0 1 -454 -398)">«include»</text></g></g><g><path fill="none" stroke="#000000" paint-order="fill stroke markers" d=" M 359 123 L 374 169" stroke-miterlimit="10" stroke-dasharray="3"/></g><g><path fill="none" stroke="#000000" paint-order="fill stroke markers" d=" M 366.84724730428127 160.64307898362745 L 374 169 L 374.8514755852243 158.03300454418957" stroke-miterlimit="10" stroke-dasharray=""/></g><g><rect fill="#ffffff" stroke="none" x="800" y="528" width="53.49169921875" height="13" transform="matrix(1 0 0 1 -454 -398)"/></g><g><g><path fill="none" stroke="none"/><text fill="#000000" stroke="none" font-family="Arial" font-size="13px" font-style="normal" font-weight="normal" text-decoration="undefined" x="826.745849609375" y="534.5" text-anchor="middle" dominant-baseline="central" transform="matrix(1 0 0 1 -454 -398)">«extend»</text></g></g><g><path fill="#ffffff" stroke="none" paint-order="stroke fill markers" d=" M 720.8963281250001 59.85000000000002 C 720.8963281250001 54.96227952000004 724.854130493 51 729.736328125 51 C 734.618525757 51 738.5763281249999 54.96227952000004 738.5763281249999 59.85000000000002 C 738.5763281249999 64.73772048000001 734.618525757 68.69999999999999 729.736328125 68.69999999999999 C 724.854130493 68.69999999999999 720.8963281250001 64.73772048000001 720.8963281250001 59.85000000000002 Z"/></g><g><path fill="none" stroke="#000000" paint-order="fill stroke markers" d=" M 720.8963281250001 59.85000000000002 C 720.8963281250001 54.96227952000004 724.854130493 51 729.736328125 51 C 734.618525757 51 738.5763281249999 54.96227952000004 738.5763281249999 59.85000000000002 C 738.5763281249999 64.73772048000001 734.618525757 68.69999999999999 729.736328125 68.69999999999999 C 724.854130493 68.69999999999999 720.8963281250001 64.73772048000001 720.8963281250001 59.85000000000002 Z" stroke-miterlimit="10" stroke-dasharray=""/></g><g><path fill="none" stroke="#000000" paint-order="fill stroke markers" d=" M 729.736328125 68.69999999999999 L 729.736328125 86.30000000000001" stroke-miterlimit="10" stroke-dasharray=""/></g><g><path fill="none" stroke="#000000" paint-order="fill stroke markers" d=" M 720.3763281250001 75.30000000000001 L 739.0963281249999 75.30000000000001" stroke-miterlimit="10" stroke-dasharray=""/></g><g><path fill="none" stroke="#000000" paint-order="fill stroke markers" d=" M 729.736328125 86.30000000000001 L 716.736328125 104" stroke-miterlimit="10" stroke-dasharray=""/></g><g><path fill="none" stroke="#000000" paint-order="fill stroke markers" d=" M 729.736328125 86.30000000000001 L 742.736328125 104" stroke-miterlimit="10" stroke-dasharray=""/></g><g><g><path fill="none" stroke="none"/><text fill="#000000" stroke="none" font-family="Arial" font-size="13px" font-style="normal" font-weight="bold" text-decoration="undefined" x="1184.236328125" y="516.5" text-anchor="middle" dominant-baseline="central" transform="matrix(1 0 0 1 -454 -398)">Gateway</text></g></g><g><path fill="none" stroke="#000000" paint-order="fill stroke markers" d=" M 697 90 L 434 87" stroke-miterlimit="10" stroke-dasharray=""/></g><g><path fill="#C0C0C0" stroke="none" paint-order="stroke fill markers" d=" M 321 213 C 321 193.11774720000005 353.2354944 177 393 177 C 432.7645056 177 465 193.11774720000005 465 213 C 465 232.88225279999995 432.7645056 249 393 249 C 353.2354944 249 321 232.88225279999995 321 213 Z" fill-opacity="0.2"/></g><g><path fill="#ffffff" stroke="none" paint-order="stroke fill markers" d=" M 314 206 C 314 186.11774720000005 346.2354944 170 386 170 C 425.7645056 170 458 186.11774720000005 458 206 C 458 225.88225279999995 425.7645056 242 386 242 C 346.2354944 242 314 225.88225279999995 314 206 Z"/></g><g><path fill="none" stroke="#000000" paint-order="fill stroke markers" d=" M 314 206 C 314 186.11774720000005 346.2354944 170 386 170 C 425.7645056 170 458 186.11774720000005 458 206 C 458 225.88225279999995 425.7645056 242 386 242 C 346.2354944 242 314 225.88225279999995 314 206 Z" stroke-miterlimit="10" stroke-dasharray=""/></g><g><g><path fill="none" stroke="none"/><text fill="#000000" stroke="none" font-family="Arial" font-size="13px" font-style="normal" font-weight="bold" text-decoration="undefined" x="840" y="592" text-anchor="middle" dominant-baseline="central" transform="matrix(1 0 0 1 -454 -398)">UC32 -</text><text fill="#000000" stroke="none" font-family="Arial" font-size="13px" font-style="normal" font-weight="bold" text-decoration="undefined" x="840" y="605" text-anchor="middle" dominant-baseline="central" transform="matrix(1 0 0 1 -454 -398)">Gateway non</text><text fill="#000000" stroke="none" font-family="Arial" font-size="13px" font-style="normal" font-weight="bold" text-decoration="undefined" x="840" y="618" text-anchor="middle" dominant-baseline="central" transform="matrix(1 0 0 1 -454 -398)">raggiungibile</text></g></g><g><path fill="#ffffff" stroke="none" paint-order="stroke fill markers" d=" M 178 162 L 287 162 L 297 172 L 297 240 L 178 240 L 178 162"/></g><g><path fill="none" stroke="#000000" paint-order="fill stroke markers" d=" M 178 162 L 287 162 L 297 172 L 297 240 L 178 240 L 178 162 L 178 162" stroke-miterlimit="10" stroke-dasharray=""/></g><g><path fill="none" stroke="#000000" paint-order="fill stroke markers" d=" M 287 162 L 287 172 L 297 172 L 287 162" stroke-miterlimit="10" stroke-dasharray=""/></g><g><g><path fill="none" stroke="none"/><text fill="#000000" stroke="none" font-family="Arial" font-size="13px" font-style="normal" font-weight="normal" text-decoration="undefined" x="637" y="565" text-anchor="start" dominant-baseline="text-before-edge" transform="matrix(1 0 0 1 -454 -398)">Condizione:</text></g></g><g><g><path fill="none" stroke="none"/><text fill="#000000" stroke="none" font-family="Arial" font-size="13px" font-style="normal" font-weight="normal" text-decoration="undefined" x="637" y="580" text-anchor="start" dominant-baseline="text-before-edge" transform="matrix(1 0 0 1 -454 -398)">Il Gateway non è</text><text fill="#000000" stroke="none" font-family="Arial" font-size="13px" font-style="normal" font-weight="normal" text-decoration="undefined" x="637" y="593" text-anchor="start" dominant-baseline="text-before-edge" transform="matrix(1 0 0 1 -454 -398)">raggiungibile dal</text><text fill="#000000" stroke="none" font-family="Arial" font-size="13px" font-style="normal" font-weight="normal" text-decoration="undefined" x="637" y="606" text-anchor="start" dominant-baseline="text-before-edge" transform="matrix(1 0 0 1 -454 -398)">Sistema</text></g></g><g><path fill="none" stroke="#000000" paint-order="fill stroke markers" d=" M 299 175 L 366 146" stroke-miterlimit="10" stroke-dasharray="3"/></g></g></svg>