<svg version="1.1" xmlns="http://www.w3.org/2000/svg" xmlns:xlink="http://www.w3.org/1999/xlink" width="724.47265625" height="332"><defs/><g><g><rect fill="#C0C0C0" stroke="none" x="207" y="36" width="432" height="312" transform="matrix(1 0 0 1 -22 -19)" fill-opacity="0.2"/></g><g><rect fill="#ffffff" stroke="none" x="200" y="29" width="432" height="312" transform="matrix(1 0 0 1 -22 -19)"/></g><g><path fill="none" stroke="#000000" paint-order="fill stroke markers" d=" M 178 10 L 610 10 L 610 322 L 178 322 L 178 10 Z Z" stroke-miterlimit="10" stroke-dasharray=""/></g><g><g><path fill="none" stroke="none"/><text fill="#000000" stroke="none" font-family="Arial" font-size="13px" font-style="normal" font-weight="bold" text-decoration="undefined" x="416.5" y="42.5" text-anchor="middle" dominant-baseline="central" transform="matrix(1 0 0 1 -22 -19)">Sistema cloud</text></g></g><g><path fill="#C0C0C0" stroke="none" paint-order="stroke fill markers" d=" M 273 109.5 C 273 94.8644528 328.5166848 83 397 83 C 465.4833152 83 521 94.8644528 521 109.5 C 521 124.13554719999999 465.4833152 136 397 136 C 328.5166848 136 273 124.13554719999999 273 109.5 Z" fill-opacity="0.2"/></g><g><path fill="#ffffff" stroke="none" paint-order="stroke fill markers" d=" M 266 102.5 C 266 87.8644528 321.5166848 76 390 76 C 458.4833152 76 514 87.8644528 514 102.5 C 514 117.13554719999999 458.4833152 129 390 129 C 321.5166848 129 266 117.13554719999999 266 102.5 Z"/></g><g><path fill="none" stroke="#000000" paint-order="fill stroke markers" d=" M 266 102.5 C 266 87.8644528 321.5166848 76 390 76 C 458.4833152 76 514 87.8644528 514 102.5 C 514 117.13554719999999 458.4833152 129 390 129 C 321.5166848 129 266 117.13554719999999 266 102.5 Z" stroke-miterlimit="10" stroke-dasharray=""/></g><g><g><path fill="none" stroke="none"/><text fill="#000000" stroke="none" font-family="Arial" font-size="13px" font-style="normal" font-weight="bold" text-decoration="undefined" x="412" y="116" text-anchor="middle" dominant-baseline="central" transform="matrix(1 0 0 1 -22 -19)">UC86 - Sospensione</text><text fill="#000000" stroke="none" font-family="Arial" font-size="13px" font-style="normal" font-weight="bold" text-decoration="undefined" x="412" y="129" text-anchor="middle" dominant-baseline="central" transform="matrix(1 0 0 1 -22 -19)">Gateway</text></g></g><g><path fill="#C0C0C0" stroke="none" paint-order="stroke fill markers" d=" M 409 265 C 409 240.14718399999998 451.9806592 220 505 220 C 558.0193408 220 601 240.14718399999998 601 265 C 601 289.852816 558.0193408 310 505 310 C 451.9806592 310 409 289.852816 409 265 Z" fill-opacity="0.2"/></g><g><path fill="#ffffff" stroke="none" paint-order="stroke fill markers" d=" M 402 258 C 402 233.147184 444.9806592 213 498 213 C 551.0193408 213 594 233.147184 594 258 C 594 282.852816 551.0193408 303 498 303 C 444.9806592 303 402 282.852816 402 258 Z"/></g><g><path fill="none" stroke="#000000" paint-order="fill stroke markers" d=" M 402 258 C 402 233.147184 444.9806592 213 498 213 C 551.0193408 213 594 233.147184 594 258 C 594 282.852816 551.0193408 303 498 303 C 444.9806592 303 402 282.852816 402 258 Z" stroke-miterlimit="10" stroke-dasharray=""/></g><g><g><path fill="none" stroke="none"/><text fill="#000000" stroke="none" font-family="Arial" font-size="13px" font-style="normal" font-weight="bold" text-decoration="undefined" x="520" y="258.5" text-anchor="middle" dominant-baseline="central" transform="matrix(1 0 0 1 -22 -19)">UC91 - Selezione</text><text fill="#000000" stroke="none" font-family="Arial" font-size="13px" font-style="normal" font-weight="bold" text-decoration="undefined" x="520" y="271.5" text-anchor="middle" dominant-baseline="central" transform="matrix(1 0 0 1 -22 -19)">Gateway per invio</text><text fill="#000000" stroke="none" font-family="Arial" font-size="13px" font-style="normal" font-weight="bold" text-decoration="undefined" x="520" y="284.5" text-anchor="middle" dominant-baseline="central" transform="matrix(1 0 0 1 -22 -19)">comando da Super</text><text fill="#000000" stroke="none" font-family="Arial" font-size="13px" font-style="normal" font-weight="bold" text-decoration="undefined" x="520" y="297.5" text-anchor="middle" dominant-baseline="central" transform="matrix(1 0 0 1 -22 -19)">Admin</text></g></g><g><path fill="#ffffff" stroke="none" paint-order="stroke fill markers" d=" M 47.930751953125 67.85 C 47.930751953125 62.962279519999996 51.888554321125 59 56.770751953125 59 C 61.652949585125 59 65.610751953125 62.962279519999996 65.610751953125 67.85 C 65.610751953125 72.73772048 61.652949585125 76.7 56.770751953125 76.7 C 51.888554321125 76.7 47.930751953125 72.73772048 47.930751953125 67.85 Z"/></g><g><path fill="none" stroke="#000000" paint-order="fill stroke markers" d=" M 47.930751953125 67.85 C 47.930751953125 62.962279519999996 51.888554321125 59 56.770751953125 59 C 61.652949585125 59 65.610751953125 62.962279519999996 65.610751953125 67.85 C 65.610751953125 72.73772048 61.652949585125 76.7 56.770751953125 76.7 C 51.888554321125 76.7 47.930751953125 72.73772048 47.930751953125 67.85 Z" stroke-miterlimit="10" stroke-dasharray=""/></g><g><path fill="none" stroke="#000000" paint-order="fill stroke markers" d=" M 56.770751953125 76.7 L 56.770751953125 94.3" stroke-miterlimit="10" stroke-dasharray=""/></g><g><path fill="none" stroke="#000000" paint-order="fill stroke markers" d=" M 47.410751953125 83.3 L 66.130751953125 83.3" stroke-miterlimit="10" stroke-dasharray=""/></g><g><path fill="none" stroke="#000000" paint-order="fill stroke markers" d=" M 56.770751953125 94.3 L 43.770751953125 112" stroke-miterlimit="10" stroke-dasharray=""/></g><g><path fill="none" stroke="#000000" paint-order="fill stroke markers" d=" M 56.770751953125 94.3 L 69.770751953125 112" stroke-miterlimit="10" stroke-dasharray=""/></g><g><g><path fill="none" stroke="none"/><text fill="#000000" stroke="none" font-family="Arial" font-size="13px" font-style="normal" font-weight="bold" text-decoration="undefined" x="79.270751953125" y="145.5" text-anchor="middle" dominant-baseline="central" transform="matrix(1 0 0 1 -22 -19)">Super Admin</text></g></g><g><path fill="#ffffff" stroke="none" paint-order="stroke fill markers" d=" M 672.896328125 75.85 C 672.896328125 70.96227952 676.854130493 67 681.736328125 67 C 686.618525757 67 690.576328125 70.96227952 690.576328125 75.85 C 690.576328125 80.73772048 686.618525757 84.7 681.736328125 84.7 C 676.854130493 84.7 672.896328125 80.73772048 672.896328125 75.85 Z"/></g><g><path fill="none" stroke="#000000" paint-order="fill stroke markers" d=" M 672.896328125 75.85 C 672.896328125 70.96227952 676.854130493 67 681.736328125 67 C 686.618525757 67 690.576328125 70.96227952 690.576328125 75.85 C 690.576328125 80.73772048 686.618525757 84.7 681.736328125 84.7 C 676.854130493 84.7 672.896328125 80.73772048 672.896328125 75.85 Z" stroke-miterlimit="10" stroke-dasharray=""/></g><g><path fill="none" stroke="#000000" paint-order="fill stroke markers" d=" M 681.736328125 84.7 L 681.736328125 102.3" stroke-miterlimit="10" stroke-dasharray=""/></g><g><path fill="none" stroke="#000000" paint-order="fill stroke markers" d=" M 672.376328125 91.3 L 691.096328125 91.3" stroke-miterlimit="10" stroke-dasharray=""/></g><g><path fill="none" stroke="#000000" paint-order="fill stroke markers" d=" M 681.736328125 102.3 L 668.736328125 120" stroke-miterlimit="10" stroke-dasharray=""/></g><g><path fill="none" stroke="#000000" paint-order="fill stroke markers" d=" M 681.736328125 102.3 L 694.736328125 120" stroke-miterlimit="10" stroke-dasharray=""/></g><g><g><path fill="none" stroke="none"/><text fill="#000000" stroke="none" font-family="Arial" font-size="13px" font-style="normal" font-weight="bold" text-decoration="undefined" x="704.236328125" y="153.5" text-anchor="middle" dominant-baseline="central" transform="matrix(1 0 0 1 -22 -19)">Gateway</text></g></g><g><path fill="none" stroke="#000000" paint-order="fill stroke markers" d=" M 105 99 L 265 101" stroke-miterlimit="10" stroke-dasharray=""/></g><g><path fill="none" stroke="#000000" paint-order="fill stroke markers" d=" M 649 106 L 515 104" stroke-miterlimit="10" stroke-dasharray=""/></g><g><path fill="none" stroke="#000000" paint-order="fill stroke markers" d=" M 409 130 L 466 212" stroke-miterlimit="10" stroke-dasharray="3"/></g><g><path fill="none" stroke="#000000" paint-order="fill stroke markers" d=" M 456.7429653275333 206.05800462195154 L 466 212 L 463.655913235017 201.25266278382261" stroke-miterlimit="10" stroke-dasharray=""/></g><g><rect fill="#ffffff" stroke="none" x="478" y="193" width="55.65625" height="13" transform="matrix(1 0 0 1 -22 -19)"/></g><g><g><path fill="none" stroke="none"/><text fill="#000000" stroke="none" font-family="Arial" font-size="13px" font-style="normal" font-weight="normal" text-decoration="undefined" x="505.828125" y="199.5" text-anchor="middle" dominant-baseline="central" transform="matrix(1 0 0 1 -22 -19)">«include»</text></g></g><g><path fill="#C0C0C0" stroke="none" paint-order="stroke fill markers" d=" M 241 264 C 241 244.1177472 271.4446336 228 309 228 C 346.5553664 228 377 244.1177472 377 264 C 377 283.8822528 346.5553664 300 309 300 C 271.4446336 300 241 283.8822528 241 264 Z" fill-opacity="0.2"/></g><g><path fill="#ffffff" stroke="none" paint-order="stroke fill markers" d=" M 234 257 C 234 237.1177472 264.4446336 221 302 221 C 339.5553664 221 370 237.1177472 370 257 C 370 276.8822528 339.5553664 293 302 293 C 264.4446336 293 234 276.8822528 234 257 Z"/></g><g><path fill="none" stroke="#000000" paint-order="fill stroke markers" d=" M 234 257 C 234 237.1177472 264.4446336 221 302 221 C 339.5553664 221 370 237.1177472 370 257 C 370 276.8822528 339.5553664 293 302 293 C 264.4446336 293 234 276.8822528 234 257 Z" stroke-miterlimit="10" stroke-dasharray=""/></g><g><g><path fill="none" stroke="none"/><text fill="#000000" stroke="none" font-family="Arial" font-size="13px" font-style="normal" font-weight="bold" text-decoration="undefined" x="324" y="264" text-anchor="middle" dominant-baseline="central" transform="matrix(1 0 0 1 -22 -19)">UC32 -</text><text fill="#000000" stroke="none" font-family="Arial" font-size="13px" font-style="normal" font-weight="bold" text-decoration="undefined" x="324" y="277" text-anchor="middle" dominant-baseline="central" transform="matrix(1 0 0 1 -22 -19)">Gateway non</text><text fill="#000000" stroke="none" font-family="Arial" font-size="13px" font-style="normal" font-weight="bold" text-decoration="undefined" x="324" y="290" text-anchor="middle" dominant-baseline="central" transform="matrix(1 0 0 1 -22 -19)">raggiungibile</text></g></g><g><path fill="none" stroke="#000000" paint-order="fill stroke markers" d=" M 323 220 L 374 130" stroke-miterlimit="10" stroke-dasharray="3"/></g><g><path fill="none" stroke="#000000" paint-order="fill stroke markers" d=" M 372.65204736969486 140.91709776939152 L 374 130 L 365.32729969077974 136.76640741800628" stroke-miterlimit="10" stroke-dasharray=""/></g><g><rect fill="#ffffff" stroke="none" x="360" y="223" width="53.49169921875" height="13" transform="matrix(1 0 0 1 -22 -19)"/></g><g><g><path fill="none" stroke="none"/><text fill="#000000" stroke="none" font-family="Arial" font-size="13px" font-style="normal" font-weight="normal" text-decoration="undefined" x="386.745849609375" y="229.5" text-anchor="middle" dominant-baseline="central" transform="matrix(1 0 0 1 -22 -19)">«extend»</text></g></g><g><path fill="#ffffff" stroke="none" paint-order="stroke fill markers" d=" M 194 133 L 295 133 L 305 143 L 305 196 L 194 196 L 194 133"/></g><g><path fill="none" stroke="#000000" paint-order="fill stroke markers" d=" M 194 133 L 295 133 L 305 143 L 305 196 L 194 196 L 194 133 L 194 133" stroke-miterlimit="10" stroke-dasharray=""/></g><g><path fill="none" stroke="#000000" paint-order="fill stroke markers" d=" M 295 133 L 295 143 L 305 143 L 295 133" stroke-miterlimit="10" stroke-dasharray=""/></g><g><g><path fill="none" stroke="none"/><text fill="#000000" stroke="none" font-family="Arial" font-size="13px" font-style="normal" font-weight="normal" text-decoration="undefined" x="221" y="157" text-anchor="start" dominant-baseline="text-before-edge" transform="matrix(1 0 0 1 -22 -19)">Condizione: il</text><text fill="#000000" stroke="none" font-family="Arial" font-size="13px" font-style="normal" font-weight="normal" text-decoration="undefined" x="221" y="170" text-anchor="start" dominant-baseline="text-before-edge" transform="matrix(1 0 0 1 -22 -19)">gateway non è</text><text fill="#000000" stroke="none" font-family="Arial" font-size="13px" font-style="normal" font-weight="normal" text-decoration="undefined" x="221" y="183" text-anchor="start" dominant-baseline="text-before-edge" transform="matrix(1 0 0 1 -22 -19)">raggiungibile dal</text><text fill="#000000" stroke="none" font-family="Arial" font-size="13px" font-style="normal" font-weight="normal" text-decoration="undefined" x="221" y="196" text-anchor="start" dominant-baseline="text-before-edge" transform="matrix(1 0 0 1 -22 -19)">sistema</text></g></g><g><path fill="none" stroke="#000000" paint-order="fill stroke markers" d=" M 307 171 L 348 175" stroke-miterlimit="10" stroke-dasharray="3"/></g></g></svg>