<svg version="1.1" xmlns="http://www.w3.org/2000/svg" xmlns:xlink="http://www.w3.org/1999/xlink" width="908.47265625" height="396"><defs/><g><g><rect fill="#C0C0C0" stroke="none" x="153" y="32" width="680" height="376" transform="matrix(1 0 0 1 -16 -15)" fill-opacity="0.2"/></g><g><rect fill="#ffffff" stroke="none" x="146" y="25" width="680" height="376" transform="matrix(1 0 0 1 -16 -15)"/></g><g><path fill="none" stroke="#000000" paint-order="fill stroke markers" d=" M 130 10 L 810 10 L 810 386 L 130 386 L 130 10 Z Z" stroke-miterlimit="10" stroke-dasharray=""/></g><g><g><path fill="none" stroke="none"/><text fill="#000000" stroke="none" font-family="Arial" font-size="13px" font-style="normal" font-weight="bold" text-decoration="undefined" x="486.5" y="38.5" text-anchor="middle" dominant-baseline="central" transform="matrix(1 0 0 1 -16 -15)">Sistema cloud</text></g></g><g><path fill="#C0C0C0" stroke="none" paint-order="stroke fill markers" d=" M 417 77 C 417 57.1177472 455.5035072 41 503 41 C 550.4964927999999 41 589 57.1177472 589 77 C 589 96.8822528 550.4964927999999 113 503 113 C 455.5035072 113 417 96.8822528 417 77 Z" fill-opacity="0.2"/></g><g><path fill="#ffffff" stroke="none" paint-order="stroke fill markers" d=" M 410 70 C 410 50.1177472 448.5035072 34 496 34 C 543.4964927999999 34 582 50.1177472 582 70 C 582 89.8822528 543.4964927999999 106 496 106 C 448.5035072 106 410 89.8822528 410 70 Z"/></g><g><path fill="none" stroke="#000000" paint-order="fill stroke markers" d=" M 410 70 C 410 50.1177472 448.5035072 34 496 34 C 543.4964927999999 34 582 50.1177472 582 70 C 582 89.8822528 543.4964927999999 106 496 106 C 448.5035072 106 410 89.8822528 410 70 Z" stroke-miterlimit="10" stroke-dasharray=""/></g><g><g><path fill="none" stroke="none"/><text fill="#000000" stroke="none" font-family="Arial" font-size="13px" font-style="normal" font-weight="bold" text-decoration="undefined" x="512" y="73" text-anchor="middle" dominant-baseline="central" transform="matrix(1 0 0 1 -16 -15)">UC87 -</text><text fill="#000000" stroke="none" font-family="Arial" font-size="13px" font-style="normal" font-weight="bold" text-decoration="undefined" x="512" y="86" text-anchor="middle" dominant-baseline="central" transform="matrix(1 0 0 1 -16 -15)">Decommissioning</text><text fill="#000000" stroke="none" font-family="Arial" font-size="13px" font-style="normal" font-weight="bold" text-decoration="undefined" x="512" y="99" text-anchor="middle" dominant-baseline="central" transform="matrix(1 0 0 1 -16 -15)">Gateway</text></g></g><g><path fill="#ffffff" stroke="none" paint-order="stroke fill markers" d=" M 47.930751953125 35.85 C 47.930751953125 30.962279520000003 51.888554321125 27 56.770751953125 27 C 61.652949585125 27 65.610751953125 30.962279520000003 65.610751953125 35.85 C 65.610751953125 40.73772048 61.652949585125 44.7 56.770751953125 44.7 C 51.888554321125 44.7 47.930751953125 40.73772048 47.930751953125 35.85 Z"/></g><g><path fill="none" stroke="#000000" paint-order="fill stroke markers" d=" M 47.930751953125 35.85 C 47.930751953125 30.962279520000003 51.888554321125 27 56.770751953125 27 C 61.652949585125 27 65.610751953125 30.962279520000003 65.610751953125 35.85 C 65.610751953125 40.73772048 61.652949585125 44.7 56.770751953125 44.7 C 51.888554321125 44.7 47.930751953125 40.73772048 47.930751953125 35.85 Z" stroke-miterlimit="10" stroke-dasharray=""/></g><g><path fill="none" stroke="#000000" paint-order="fill stroke markers" d=" M 56.770751953125 44.7 L 56.770751953125 62.3" stroke-miterlimit="10" stroke-dasharray=""/></g><g><path fill="none" stroke="#000000" paint-order="fill stroke markers" d=" M 47.410751953125 51.3 L 66.130751953125 51.3" stroke-miterlimit="10" stroke-dasharray=""/></g><g><path fill="none" stroke="#000000" paint-order="fill stroke markers" d=" M 56.770751953125 62.3 L 43.770751953125 80" stroke-miterlimit="10" stroke-dasharray=""/></g><g><path fill="none" stroke="#000000" paint-order="fill stroke markers" d=" M 56.770751953125 62.3 L 69.770751953125 80" stroke-miterlimit="10" stroke-dasharray=""/></g><g><g><path fill="none" stroke="none"/><text fill="#000000" stroke="none" font-family="Arial" font-size="13px" font-style="normal" font-weight="bold" text-decoration="undefined" x="73.270751953125" y="109.5" text-anchor="middle" dominant-baseline="central" transform="matrix(1 0 0 1 -16 -15)">Tenant admin</text></g></g><g><path fill="none" stroke="#000000" paint-order="fill stroke markers" d=" M 105 66 L 409 69" stroke-miterlimit="10" stroke-dasharray=""/></g><g><path fill="#C0C0C0" stroke="none" paint-order="stroke fill markers" d=" M 249 141 C 249 121.1177472 275.862912 105 309 105 C 342.137088 105 369 121.1177472 369 141 C 369 160.8822528 342.137088 177 309 177 C 275.862912 177 249 160.8822528 249 141 Z" fill-opacity="0.2"/></g><g><path fill="#ffffff" stroke="none" paint-order="stroke fill markers" d=" M 242 134 C 242 114.1177472 268.862912 98 302 98 C 335.137088 98 362 114.1177472 362 134 C 362 153.8822528 335.137088 170 302 170 C 268.862912 170 242 153.8822528 242 134 Z"/></g><g><path fill="none" stroke="#000000" paint-order="fill stroke markers" d=" M 242 134 C 242 114.1177472 268.862912 98 302 98 C 335.137088 98 362 114.1177472 362 134 C 362 153.8822528 335.137088 170 302 170 C 268.862912 170 242 153.8822528 242 134 Z" stroke-miterlimit="10" stroke-dasharray=""/></g><g><g><path fill="none" stroke="none"/><text fill="#000000" stroke="none" font-family="Arial" font-size="13px" font-style="normal" font-weight="bold" text-decoration="undefined" x="318" y="137" text-anchor="middle" dominant-baseline="central" transform="matrix(1 0 0 1 -16 -15)">UC88 -</text><text fill="#000000" stroke="none" font-family="Arial" font-size="13px" font-style="normal" font-weight="bold" text-decoration="undefined" x="318" y="150" text-anchor="middle" dominant-baseline="central" transform="matrix(1 0 0 1 -16 -15)">Reset</text><text fill="#000000" stroke="none" font-family="Arial" font-size="13px" font-style="normal" font-weight="bold" text-decoration="undefined" x="318" y="163" text-anchor="middle" dominant-baseline="central" transform="matrix(1 0 0 1 -16 -15)">Gateway</text></g></g><g><path fill="#C0C0C0" stroke="none" paint-order="stroke fill markers" d=" M 361 277 C 361 257.1177472 393.2354944 241 433 241 C 472.7645056 241 505 257.1177472 505 277 C 505 296.8822528 472.7645056 313 433 313 C 393.2354944 313 361 296.8822528 361 277 Z" fill-opacity="0.2"/></g><g><path fill="#ffffff" stroke="none" paint-order="stroke fill markers" d=" M 354 270 C 354 250.1177472 386.2354944 234 426 234 C 465.7645056 234 498 250.1177472 498 270 C 498 289.8822528 465.7645056 306 426 306 C 386.2354944 306 354 289.8822528 354 270 Z"/></g><g><path fill="none" stroke="#000000" paint-order="fill stroke markers" d=" M 354 270 C 354 250.1177472 386.2354944 234 426 234 C 465.7645056 234 498 250.1177472 498 270 C 498 289.8822528 465.7645056 306 426 306 C 386.2354944 306 354 289.8822528 354 270 Z" stroke-miterlimit="10" stroke-dasharray=""/></g><g><g><path fill="none" stroke="none"/><text fill="#000000" stroke="none" font-family="Arial" font-size="13px" font-style="normal" font-weight="bold" text-decoration="undefined" x="442" y="273" text-anchor="middle" dominant-baseline="central" transform="matrix(1 0 0 1 -16 -15)">UC34 -</text><text fill="#000000" stroke="none" font-family="Arial" font-size="13px" font-style="normal" font-weight="bold" text-decoration="undefined" x="442" y="286" text-anchor="middle" dominant-baseline="central" transform="matrix(1 0 0 1 -16 -15)">Gateway non</text><text fill="#000000" stroke="none" font-family="Arial" font-size="13px" font-style="normal" font-weight="bold" text-decoration="undefined" x="442" y="299" text-anchor="middle" dominant-baseline="central" transform="matrix(1 0 0 1 -16 -15)">raggiungibile</text></g></g><g><path fill="none" stroke="#000000" paint-order="fill stroke markers" d=" M 336 171 L 392 233" stroke-miterlimit="10" stroke-dasharray="3"/></g><g><path fill="none" stroke="#000000" paint-order="fill stroke markers" d=" M 382.0642044472825 228.27983403526963 L 392 233 L 388.3119929501771 222.63667022620353" stroke-miterlimit="10" stroke-dasharray=""/></g><g><rect fill="#ffffff" stroke="none" x="343" y="241" width="53.49169921875" height="13" transform="matrix(1 0 0 1 -16 -15)"/></g><g><g><path fill="none" stroke="none"/><text fill="#000000" stroke="none" font-family="Arial" font-size="13px" font-style="normal" font-weight="normal" text-decoration="undefined" x="369.745849609375" y="247.5" text-anchor="middle" dominant-baseline="central" transform="matrix(1 0 0 1 -16 -15)">«extend»</text></g></g><g><path fill="none" stroke="#000000" paint-order="fill stroke markers" d=" M 281 171 L 255 217" stroke-miterlimit="10" stroke-dasharray="3"/></g><g><path fill="none" stroke="#000000" paint-order="fill stroke markers" d=" M 256.3359681835303 206.08142916803692 L 255 217 L 263.66526763817046 210.22407668587704" stroke-miterlimit="10" stroke-dasharray=""/></g><g><rect fill="#ffffff" stroke="none" x="215" y="195" width="55.65625" height="13" transform="matrix(1 0 0 1 -16 -15)"/></g><g><g><path fill="none" stroke="none"/><text fill="#000000" stroke="none" font-family="Arial" font-size="13px" font-style="normal" font-weight="normal" text-decoration="undefined" x="242.828125" y="201.5" text-anchor="middle" dominant-baseline="central" transform="matrix(1 0 0 1 -16 -15)">«include»</text></g></g><g><path fill="#C0C0C0" stroke="none" paint-order="stroke fill markers" d=" M 633 174 C 633 149.147184 674.1897984 129 725 129 C 775.8102016 129 817 149.147184 817 174 C 817 198.852816 775.8102016 219 725 219 C 674.1897984 219 633 198.852816 633 174 Z" fill-opacity="0.2"/></g><g><path fill="#ffffff" stroke="none" paint-order="stroke fill markers" d=" M 626 167 C 626 142.147184 667.1897984 122 718 122 C 768.8102016 122 810 142.147184 810 167 C 810 191.852816 768.8102016 212 718 212 C 667.1897984 212 626 191.852816 626 167 Z"/></g><g><path fill="none" stroke="#000000" paint-order="fill stroke markers" d=" M 626 167 C 626 142.147184 667.1897984 122 718 122 C 768.8102016 122 810 142.147184 810 167 C 810 191.852816 768.8102016 212 718 212 C 667.1897984 212 626 191.852816 626 167 Z" stroke-miterlimit="10" stroke-dasharray=""/></g><g><g><path fill="none" stroke="none"/><text fill="#000000" stroke="none" font-family="Arial" font-size="13px" font-style="normal" font-weight="bold" text-decoration="undefined" x="734" y="163.5" text-anchor="middle" dominant-baseline="central" transform="matrix(1 0 0 1 -16 -15)">UC95 - Selezione</text><text fill="#000000" stroke="none" font-family="Arial" font-size="13px" font-style="normal" font-weight="bold" text-decoration="undefined" x="734" y="176.5" text-anchor="middle" dominant-baseline="central" transform="matrix(1 0 0 1 -16 -15)">Gateway per invio</text><text fill="#000000" stroke="none" font-family="Arial" font-size="13px" font-style="normal" font-weight="bold" text-decoration="undefined" x="734" y="189.5" text-anchor="middle" dominant-baseline="central" transform="matrix(1 0 0 1 -16 -15)">comando da Super</text><text fill="#000000" stroke="none" font-family="Arial" font-size="13px" font-style="normal" font-weight="bold" text-decoration="undefined" x="734" y="202.5" text-anchor="middle" dominant-baseline="central" transform="matrix(1 0 0 1 -16 -15)">Admin</text></g></g><g><path fill="none" stroke="#000000" paint-order="fill stroke markers" d=" M 515 107 L 584 241" stroke-miterlimit="10" stroke-dasharray="3"/></g><g><path fill="none" stroke="#000000" paint-order="fill stroke markers" d=" M 575.6050522011489 233.89191647104767 L 584 241 L 583.0900495482879 230.03770141916263" stroke-miterlimit="10" stroke-dasharray=""/></g><g><rect fill="#ffffff" stroke="none" x="515" y="227" width="55.65625" height="13" transform="matrix(1 0 0 1 -16 -15)"/></g><g><g><path fill="none" stroke="none"/><text fill="#000000" stroke="none" font-family="Arial" font-size="13px" font-style="normal" font-weight="normal" text-decoration="undefined" x="542.828125" y="233.5" text-anchor="middle" dominant-baseline="central" transform="matrix(1 0 0 1 -16 -15)">«include»</text></g></g><g><path fill="none" stroke="#000000" paint-order="fill stroke markers" d=" M 581 107 L 625 126" stroke-miterlimit="10" stroke-dasharray="3"/></g><g><path fill="none" stroke="#000000" paint-order="fill stroke markers" d=" M 614.0012263522486 125.83574944283458 L 625 126 L 617.3388352517244 118.10654988615374" stroke-miterlimit="10" stroke-dasharray=""/></g><g><rect fill="#ffffff" stroke="none" x="618" y="113" width="55.65625" height="13" transform="matrix(1 0 0 1 -16 -15)"/></g><g><g><path fill="none" stroke="none"/><text fill="#000000" stroke="none" font-family="Arial" font-size="13px" font-style="normal" font-weight="normal" text-decoration="undefined" x="645.828125" y="119.5" text-anchor="middle" dominant-baseline="central" transform="matrix(1 0 0 1 -16 -15)">«include»</text></g></g><g><path fill="none" stroke="#000000" paint-order="fill stroke markers" d=" M 483 107 L 439 233" stroke-miterlimit="10" stroke-dasharray="3"/></g><g><path fill="none" stroke="#000000" paint-order="fill stroke markers" d=" M 438.3762884573133 222.0176967847578 L 439 233 L 446.3246304152065 224.7933082621173" stroke-miterlimit="10" stroke-dasharray=""/></g><g><rect fill="#ffffff" stroke="none" x="409" y="192" width="53.49169921875" height="13" transform="matrix(1 0 0 1 -16 -15)"/></g><g><g><path fill="none" stroke="none"/><text fill="#000000" stroke="none" font-family="Arial" font-size="13px" font-style="normal" font-weight="normal" text-decoration="undefined" x="435.745849609375" y="198.5" text-anchor="middle" dominant-baseline="central" transform="matrix(1 0 0 1 -16 -15)">«extend»</text></g></g><g><path fill="none" stroke="#000000" paint-order="fill stroke markers" d=" M 409 99 L 363 114" stroke-miterlimit="10" stroke-dasharray="3"/></g><g><path fill="none" stroke="#000000" paint-order="fill stroke markers" d=" M 371.3569210163725 106.84724730428127 L 363 114 L 373.96699545581043 114.8514755852243" stroke-miterlimit="10" stroke-dasharray=""/></g><g><rect fill="#ffffff" stroke="none" x="384" y="143" width="55.65625" height="13" transform="matrix(1 0 0 1 -16 -15)"/></g><g><g><path fill="none" stroke="none"/><text fill="#000000" stroke="none" font-family="Arial" font-size="13px" font-style="normal" font-weight="normal" text-decoration="undefined" x="411.828125" y="149.5" text-anchor="middle" dominant-baseline="central" transform="matrix(1 0 0 1 -16 -15)">«include»</text></g></g><g><path fill="#ffffff" stroke="none" paint-order="stroke fill markers" d=" M 856.896328125 27.85 C 856.896328125 22.962279520000003 860.854130493 19 865.736328125 19 C 870.618525757 19 874.576328125 22.962279520000003 874.576328125 27.85 C 874.576328125 32.73772048 870.618525757 36.7 865.736328125 36.7 C 860.854130493 36.7 856.896328125 32.73772048 856.896328125 27.85 Z"/></g><g><path fill="none" stroke="#000000" paint-order="fill stroke markers" d=" M 856.896328125 27.85 C 856.896328125 22.962279520000003 860.854130493 19 865.736328125 19 C 870.618525757 19 874.576328125 22.962279520000003 874.576328125 27.85 C 874.576328125 32.73772048 870.618525757 36.7 865.736328125 36.7 C 860.854130493 36.7 856.896328125 32.73772048 856.896328125 27.85 Z" stroke-miterlimit="10" stroke-dasharray=""/></g><g><path fill="none" stroke="#000000" paint-order="fill stroke markers" d=" M 865.736328125 36.7 L 865.736328125 54.3" stroke-miterlimit="10" stroke-dasharray=""/></g><g><path fill="none" stroke="#000000" paint-order="fill stroke markers" d=" M 856.376328125 43.3 L 875.096328125 43.3" stroke-miterlimit="10" stroke-dasharray=""/></g><g><path fill="none" stroke="#000000" paint-order="fill stroke markers" d=" M 865.736328125 54.3 L 852.736328125 72" stroke-miterlimit="10" stroke-dasharray=""/></g><g><path fill="none" stroke="#000000" paint-order="fill stroke markers" d=" M 865.736328125 54.3 L 878.736328125 72" stroke-miterlimit="10" stroke-dasharray=""/></g><g><g><path fill="none" stroke="none"/><text fill="#000000" stroke="none" font-family="Arial" font-size="13px" font-style="normal" font-weight="bold" text-decoration="undefined" x="882.236328125" y="101.5" text-anchor="middle" dominant-baseline="central" transform="matrix(1 0 0 1 -16 -15)">Gateway</text></g></g><g><path fill="none" stroke="#000000" paint-order="fill stroke markers" d=" M 833 59 L 583 67" stroke-miterlimit="10" stroke-dasharray=""/></g><g><path fill="#C0C0C0" stroke="none" paint-order="stroke fill markers" d=" M 537 294 C 537 269.147184 572.1456432 249 615.5 249 C 658.8543568 249 694 269.147184 694 294 C 694 318.852816 658.8543568 339 615.5 339 C 572.1456432 339 537 318.852816 537 294 Z" fill-opacity="0.2"/></g><g><path fill="#ffffff" stroke="none" paint-order="stroke fill markers" d=" M 530 287 C 530 262.147184 565.1456432 242 608.5 242 C 651.8543568 242 687 262.147184 687 287 C 687 311.852816 651.8543568 332 608.5 332 C 565.1456432 332 530 311.852816 530 287 Z"/></g><g><path fill="none" stroke="#000000" paint-order="fill stroke markers" d=" M 530 287 C 530 262.147184 565.1456432 242 608.5 242 C 651.8543568 242 687 262.147184 687 287 C 687 311.852816 651.8543568 332 608.5 332 C 565.1456432 332 530 311.852816 530 287 Z" stroke-miterlimit="10" stroke-dasharray=""/></g><g><g><path fill="none" stroke="none"/><text fill="#000000" stroke="none" font-family="Arial" font-size="13px" font-style="normal" font-weight="bold" text-decoration="undefined" x="624.5" y="283.5" text-anchor="middle" dominant-baseline="central" transform="matrix(1 0 0 1 -16 -15)">UC87.1 -</text><text fill="#000000" stroke="none" font-family="Arial" font-size="13px" font-style="normal" font-weight="bold" text-decoration="undefined" x="624.5" y="296.5" text-anchor="middle" dominant-baseline="central" transform="matrix(1 0 0 1 -16 -15)">Disassociazione</text><text fill="#000000" stroke="none" font-family="Arial" font-size="13px" font-style="normal" font-weight="bold" text-decoration="undefined" x="624.5" y="309.5" text-anchor="middle" dominant-baseline="central" transform="matrix(1 0 0 1 -16 -15)">Gateway dal</text><text fill="#000000" stroke="none" font-family="Arial" font-size="13px" font-style="normal" font-weight="bold" text-decoration="undefined" x="624.5" y="322.5" text-anchor="middle" dominant-baseline="central" transform="matrix(1 0 0 1 -16 -15)">tenant</text></g></g><g><path fill="#C0C0C0" stroke="none" paint-order="stroke fill markers" d=" M 153 288.5 C 153 253.42991519999998 185.2354944 225 225 225 C 264.7645056 225 297 253.42991519999998 297 288.5 C 297 323.5700848 264.7645056 352 225 352 C 185.2354944 352 153 323.5700848 153 288.5 Z" fill-opacity="0.2"/></g><g><path fill="#ffffff" stroke="none" paint-order="stroke fill markers" d=" M 146 281.5 C 146 246.42991519999998 178.2354944 218 218 218 C 257.7645056 218 290 246.42991519999998 290 281.5 C 290 316.5700848 257.7645056 345 218 345 C 178.2354944 345 146 316.5700848 146 281.5 Z"/></g><g><path fill="none" stroke="#000000" paint-order="fill stroke markers" d=" M 146 281.5 C 146 246.42991519999998 178.2354944 218 218 218 C 257.7645056 218 290 246.42991519999998 290 281.5 C 290 316.5700848 257.7645056 345 218 345 C 178.2354944 345 146 316.5700848 146 281.5 Z" stroke-miterlimit="10" stroke-dasharray=""/></g><g><g><path fill="none" stroke="none"/><text fill="#000000" stroke="none" font-family="Arial" font-size="13px" font-style="normal" font-weight="bold" text-decoration="undefined" x="234" y="265" text-anchor="middle" dominant-baseline="central" transform="matrix(1 0 0 1 -16 -15)">UC95 -</text><text fill="#000000" stroke="none" font-family="Arial" font-size="13px" font-style="normal" font-weight="bold" text-decoration="undefined" x="234" y="278" text-anchor="middle" dominant-baseline="central" transform="matrix(1 0 0 1 -16 -15)">Selezione</text><text fill="#000000" stroke="none" font-family="Arial" font-size="13px" font-style="normal" font-weight="bold" text-decoration="undefined" x="234" y="291" text-anchor="middle" dominant-baseline="central" transform="matrix(1 0 0 1 -16 -15)">Gateway per</text><text fill="#000000" stroke="none" font-family="Arial" font-size="13px" font-style="normal" font-weight="bold" text-decoration="undefined" x="234" y="304" text-anchor="middle" dominant-baseline="central" transform="matrix(1 0 0 1 -16 -15)">invio</text><text fill="#000000" stroke="none" font-family="Arial" font-size="13px" font-style="normal" font-weight="bold" text-decoration="undefined" x="234" y="317" text-anchor="middle" dominant-baseline="central" transform="matrix(1 0 0 1 -16 -15)">comando da</text><text fill="#000000" stroke="none" font-family="Arial" font-size="13px" font-style="normal" font-weight="bold" text-decoration="undefined" x="234" y="330" text-anchor="middle" dominant-baseline="central" transform="matrix(1 0 0 1 -16 -15)">Super Admin</text></g></g></g></svg>