<svg version="1.1" xmlns="http://www.w3.org/2000/svg" xmlns:xlink="http://www.w3.org/1999/xlink" width="908.47265625" height="396"><defs/><g><g><rect fill="#C0C0C0" stroke="none" x="153" y="32" width="680" height="376" transform="matrix(1 0 0 1 -16 -15)" fill-opacity="0.2"/></g><g><rect fill="#ffffff" stroke="none" x="146" y="25" width="680" height="376" transform="matrix(1 0 0 1 -16 -15)"/></g><g><path fill="none" stroke="#000000" paint-order="fill stroke markers" d=" M 130 10 L 810 10 L 810 386 L 130 386 L 130 10 Z Z" stroke-miterlimit="10" stroke-dasharray=""/></g><g><g><path fill="none" stroke="none"/><text fill="#000000" stroke="none" font-family="Arial" font-size="13px" font-style="normal" font-weight="bold" text-decoration="undefined" x="486.5" y="38.5" text-anchor="middle" dominant-baseline="central" transform="matrix(1 0 0 1 -16 -15)">Sistema cloud</text></g></g><g><path fill="#C0C0C0" stroke="none" paint-order="stroke fill markers" d=" M 417 77 C 417 57.1177472 455.5035072 41 503 41 C 550.4964927999999 41 589 57.1177472 589 77 C 589 96.8822528 550.4964927999999 113 503 113 C 455.5035072 113 417 96.8822528 417 77 Z" fill-opacity="0.2"/></g><g><path fill="#ffffff" stroke="none" paint-order="stroke fill markers" d=" M 410 70 C 410 50.1177472 448.5035072 34 496 34 C 543.4964927999999 34 582 50.1177472 582 70 C 582 89.8822528 543.4964927999999 106 496 106 C 448.5035072 106 410 89.8822528 410 70 Z"/></g><g><path fill="none" stroke="#000000" paint-order="fill stroke markers" d=" M 410 70 C 410 50.1177472 448.5035072 34 496 34 C 543.4964927999999 34 582 50.1177472 582 70 C 582 89.8822528 543.4964927999999 106 496 106 C 448.5035072 106 410 89.8822528 410 70 Z" stroke-miterlimit="10" stroke-dasharray=""/></g><g><g><path fill="none" stroke="none"/><text fill="#000000" stroke="none" font-family="Arial" font-size="13px" font-style="normal" font-weight="bold" text-decoration="undefined" x="512" y="73" text-anchor="middle" dominant-baseline="central" transform="matrix(1 0 0 1 -16 -15)">UC87 -</text><text fill="#000000" stroke="none" font-family="Arial" font-size="13px" font-style="normal" font-weight="bold" text-decoration="undefined" x="512" y="86" text-anchor="middle" dominant-baseline="central" transform="matrix(1 0 0 1 -16 -15)">Decommissioning</text><text fill="#000000" stroke="none" font-family="Arial" font-size="13px" font-style="normal" font-weight="bold" text-decoration="undefined" x="512" y="99" text-anchor="middle" dominant-baseline="central" transform="matrix(1 0 0 1 -16 -15)">Gateway</text></g></g><g><path fill="#ffffff" stroke="none" paint-order="stroke fill markers" d=" M 47.930751953125 35.85 C 47.930751953125 30.962279520000003 51.888554321125 27 56.770751953125 27 C 61.652949585125 27 65.610751953125 30.962279520000003 65.610751953125 35.85 C 65.610751953125 40.73772048 61.652949585125 44.7 56.770751953125 44.7 C 51.888554321125 44.7 47.930751953125 40.73772048 47.930751953125 35.85 Z"/></g><g><path fill="none" stroke="#000000" paint-order="fill stroke markers" d=" M 47.930751953125 35.85 C 47.930751953125 30.962279520000003 51.888554321125 27 56.770751953125 27 C 61.652949585125 27 65.610751953125 30.962279520000003 65.610751953125 35.85 C 65.610751953125 40.73772048 61.652949585125 44.7 56.770751953125 44.7 C 51.888554321125 44.7 47.930751953125 40.73772048 47.930751953125 35.85 Z" stroke-miterlimit="10" stroke-dasharray=""/></g><g><path fill="none" stroke="#000000" paint-order="fill stroke markers" d=" M 56.770751953125 44.7 L 56.770751953125 62.3" stroke-miterlimit="10" stroke-dasharray=""/></g><g><path fill="none" stroke="#000000" paint-order="fill stroke markers" d=" M 47.410751953125 51.3 L 66.130751953125 51.3" stroke-miterlimit="10" stroke-dasharray=""/></g><g><path fill="none" stroke="#000000" paint-order="fill stroke markers" d=" M 56.770751953125 62.3 L 43.770751953125 80" stroke-miterlimit="10" stroke-dasharray=""/></g><g><path fill="none" stroke="#000000" paint-order="fill stroke markers" d=" M 56.770751953125 62.3 L 69.770751953125 80" stroke-miterlimit="10" stroke-dasharray=""/></g><g><g><path fill="none" stroke="none"/><text fill="#000000" stroke="none" font-family="Arial" font-size="13px" font-style="normal" font-weight="bold" text-decoration="undefined" x="73.270751953125" y="109.5" text-anchor="middle" dominant-baseline="central" transform="matrix(1 0 0 1 -16 -15)">Super Admin</text></g></g><g><path fill="none" stroke="#000000" paint-order="fill stroke markers" d=" M 105 66 L 409 69" stroke-miterlimit="10" stroke-dasharray=""/></g><g><path fill="none" stroke="#000000" paint-order="fill stroke markers" d=" M 229 146 L 232 272" stroke-miterlimit="10" stroke-dasharray="3"/></g><g><path fill="none" stroke="#000000" paint-order="fill stroke markers" d=" M 227.54977501791245 261.9404027114002 L 232 272 L 235.96642519613482 261.7400062785854" stroke-miterlimit="10" stroke-dasharray=""/></g><g><rect fill="#ffffff" stroke="none" x="179" y="233" width="55.65625" height="13" transform="matrix(1 0 0 1 -16 -15)"/></g><g><g><path fill="none" stroke="none"/><text fill="#000000" stroke="none" font-family="Arial" font-size="13px" font-style="normal" font-weight="normal" text-decoration="undefined" x="206.828125" y="239.5" text-anchor="middle" dominant-baseline="central" transform="matrix(1 0 0 1 -16 -15)">«include»</text></g></g><g><path fill="#C0C0C0" stroke="none" paint-order="stroke fill markers" d=" M 623 157 C 623 132.147184 664.1897984 112 715 112 C 765.8102016 112 807 132.147184 807 157 C 807 181.852816 765.8102016 202 715 202 C 664.1897984 202 623 181.852816 623 157 Z" fill-opacity="0.2"/></g><g><path fill="#ffffff" stroke="none" paint-order="stroke fill markers" d=" M 616 150 C 616 125.14718400000001 657.1897984 105 708 105 C 758.8102016 105 800 125.14718400000001 800 150 C 800 174.852816 758.8102016 195 708 195 C 657.1897984 195 616 174.852816 616 150 Z"/></g><g><path fill="none" stroke="#000000" paint-order="fill stroke markers" d=" M 616 150 C 616 125.14718400000001 657.1897984 105 708 105 C 758.8102016 105 800 125.14718400000001 800 150 C 800 174.852816 758.8102016 195 708 195 C 657.1897984 195 616 174.852816 616 150 Z" stroke-miterlimit="10" stroke-dasharray=""/></g><g><g><path fill="none" stroke="none"/><text fill="#000000" stroke="none" font-family="Arial" font-size="13px" font-style="normal" font-weight="bold" text-decoration="undefined" x="724" y="146.5" text-anchor="middle" dominant-baseline="central" transform="matrix(1 0 0 1 -16 -15)">UC95 - Selezione</text><text fill="#000000" stroke="none" font-family="Arial" font-size="13px" font-style="normal" font-weight="bold" text-decoration="undefined" x="724" y="159.5" text-anchor="middle" dominant-baseline="central" transform="matrix(1 0 0 1 -16 -15)">Gateway per invio</text><text fill="#000000" stroke="none" font-family="Arial" font-size="13px" font-style="normal" font-weight="bold" text-decoration="undefined" x="724" y="172.5" text-anchor="middle" dominant-baseline="central" transform="matrix(1 0 0 1 -16 -15)">comando da Super</text><text fill="#000000" stroke="none" font-family="Arial" font-size="13px" font-style="normal" font-weight="bold" text-decoration="undefined" x="724" y="185.5" text-anchor="middle" dominant-baseline="central" transform="matrix(1 0 0 1 -16 -15)">Admin</text></g></g><g><path fill="none" stroke="#000000" paint-order="fill stroke markers" d=" M 536 107 L 653 216" stroke-miterlimit="10" stroke-dasharray="3"/></g><g><path fill="none" stroke="#000000" paint-order="fill stroke markers" d=" M 642.6947700483544 212.152632634683 L 653 216 L 648.4336015732362 205.9926024657732" stroke-miterlimit="10" stroke-dasharray=""/></g><g><rect fill="#ffffff" stroke="none" x="576" y="219" width="55.65625" height="13" transform="matrix(1 0 0 1 -16 -15)"/></g><g><g><path fill="none" stroke="none"/><text fill="#000000" stroke="none" font-family="Arial" font-size="13px" font-style="normal" font-weight="normal" text-decoration="undefined" x="603.828125" y="225.5" text-anchor="middle" dominant-baseline="central" transform="matrix(1 0 0 1 -16 -15)">«include»</text></g></g><g><path fill="none" stroke="#000000" paint-order="fill stroke markers" d=" M 583 103 L 615 115" stroke-miterlimit="10" stroke-dasharray="3"/></g><g><path fill="none" stroke="#000000" paint-order="fill stroke markers" d=" M 604.0063306467393 115.37314092669993 L 615 115 L 606.962451370579 107.49015232979445" stroke-miterlimit="10" stroke-dasharray=""/></g><g><rect fill="#ffffff" stroke="none" x="613" y="104" width="55.65625" height="13" transform="matrix(1 0 0 1 -16 -15)"/></g><g><g><path fill="none" stroke="none"/><text fill="#000000" stroke="none" font-family="Arial" font-size="13px" font-style="normal" font-weight="normal" text-decoration="undefined" x="640.828125" y="110.5" text-anchor="middle" dominant-baseline="central" transform="matrix(1 0 0 1 -16 -15)">«include»</text></g></g><g><path fill="none" stroke="#000000" paint-order="fill stroke markers" d=" M 409 83 L 289 100" stroke-miterlimit="10" stroke-dasharray="3"/></g><g><path fill="none" stroke="#000000" paint-order="fill stroke markers" d=" M 298.47175226188966 94.40661917178991 L 289 100 L 299.65265776748737 102.74242274071501" stroke-miterlimit="10" stroke-dasharray=""/></g><g><rect fill="#ffffff" stroke="none" x="360" y="117" width="55.65625" height="13" transform="matrix(1 0 0 1 -16 -15)"/></g><g><g><path fill="none" stroke="none"/><text fill="#000000" stroke="none" font-family="Arial" font-size="13px" font-style="normal" font-weight="normal" text-decoration="undefined" x="387.828125" y="123.5" text-anchor="middle" dominant-baseline="central" transform="matrix(1 0 0 1 -16 -15)">«include»</text></g></g><g><path fill="#ffffff" stroke="none" paint-order="stroke fill markers" d=" M 856.896328125 27.85 C 856.896328125 22.962279520000003 860.854130493 19 865.736328125 19 C 870.618525757 19 874.576328125 22.962279520000003 874.576328125 27.85 C 874.576328125 32.73772048 870.618525757 36.7 865.736328125 36.7 C 860.854130493 36.7 856.896328125 32.73772048 856.896328125 27.85 Z"/></g><g><path fill="none" stroke="#000000" paint-order="fill stroke markers" d=" M 856.896328125 27.85 C 856.896328125 22.962279520000003 860.854130493 19 865.736328125 19 C 870.618525757 19 874.576328125 22.962279520000003 874.576328125 27.85 C 874.576328125 32.73772048 870.618525757 36.7 865.736328125 36.7 C 860.854130493 36.7 856.896328125 32.73772048 856.896328125 27.85 Z" stroke-miterlimit="10" stroke-dasharray=""/></g><g><path fill="none" stroke="#000000" paint-order="fill stroke markers" d=" M 865.736328125 36.7 L 865.736328125 54.3" stroke-miterlimit="10" stroke-dasharray=""/></g><g><path fill="none" stroke="#000000" paint-order="fill stroke markers" d=" M 856.376328125 43.3 L 875.096328125 43.3" stroke-miterlimit="10" stroke-dasharray=""/></g><g><path fill="none" stroke="#000000" paint-order="fill stroke markers" d=" M 865.736328125 54.3 L 852.736328125 72" stroke-miterlimit="10" stroke-dasharray=""/></g><g><path fill="none" stroke="#000000" paint-order="fill stroke markers" d=" M 865.736328125 54.3 L 878.736328125 72" stroke-miterlimit="10" stroke-dasharray=""/></g><g><g><path fill="none" stroke="none"/><text fill="#000000" stroke="none" font-family="Arial" font-size="13px" font-style="normal" font-weight="bold" text-decoration="undefined" x="882.236328125" y="101.5" text-anchor="middle" dominant-baseline="central" transform="matrix(1 0 0 1 -16 -15)">Gateway</text></g></g><g><path fill="none" stroke="#000000" paint-order="fill stroke markers" d=" M 833 59 L 583 67" stroke-miterlimit="10" stroke-dasharray=""/></g><g><path fill="#C0C0C0" stroke="none" paint-order="stroke fill markers" d=" M 631 269 C 631 244.14718399999998 666.1456432 224 709.5 224 C 752.8543568 224 788 244.14718399999998 788 269 C 788 293.852816 752.8543568 314 709.5 314 C 666.1456432 314 631 293.852816 631 269 Z" fill-opacity="0.2"/></g><g><path fill="#ffffff" stroke="none" paint-order="stroke fill markers" d=" M 624 262 C 624 237.147184 659.1456432 217 702.5 217 C 745.8543568 217 781 237.147184 781 262 C 781 286.852816 745.8543568 307 702.5 307 C 659.1456432 307 624 286.852816 624 262 Z"/></g><g><path fill="none" stroke="#000000" paint-order="fill stroke markers" d=" M 624 262 C 624 237.147184 659.1456432 217 702.5 217 C 745.8543568 217 781 237.147184 781 262 C 781 286.852816 745.8543568 307 702.5 307 C 659.1456432 307 624 286.852816 624 262 Z" stroke-miterlimit="10" stroke-dasharray=""/></g><g><g><path fill="none" stroke="none"/><text fill="#000000" stroke="none" font-family="Arial" font-size="13px" font-style="normal" font-weight="bold" text-decoration="undefined" x="718.5" y="258.5" text-anchor="middle" dominant-baseline="central" transform="matrix(1 0 0 1 -16 -15)">UC87.1 -</text><text fill="#000000" stroke="none" font-family="Arial" font-size="13px" font-style="normal" font-weight="bold" text-decoration="undefined" x="718.5" y="271.5" text-anchor="middle" dominant-baseline="central" transform="matrix(1 0 0 1 -16 -15)">Disassociazione</text><text fill="#000000" stroke="none" font-family="Arial" font-size="13px" font-style="normal" font-weight="bold" text-decoration="undefined" x="718.5" y="284.5" text-anchor="middle" dominant-baseline="central" transform="matrix(1 0 0 1 -16 -15)">Gateway dal</text><text fill="#000000" stroke="none" font-family="Arial" font-size="13px" font-style="normal" font-weight="bold" text-decoration="undefined" x="718.5" y="297.5" text-anchor="middle" dominant-baseline="central" transform="matrix(1 0 0 1 -16 -15)">tenant</text></g></g><g><path fill="#C0C0C0" stroke="none" paint-order="stroke fill markers" d=" M 153 325 C 153 300.147184 191.9512224 280 240 280 C 288.0487776 280 327 300.147184 327 325 C 327 349.852816 288.0487776 370 240 370 C 191.9512224 370 153 349.852816 153 325 Z" fill-opacity="0.2"/></g><g><path fill="#ffffff" stroke="none" paint-order="stroke fill markers" d=" M 146 318 C 146 293.147184 184.9512224 273 233 273 C 281.0487776 273 320 293.147184 320 318 C 320 342.852816 281.0487776 363 233 363 C 184.9512224 363 146 342.852816 146 318 Z"/></g><g><path fill="none" stroke="#000000" paint-order="fill stroke markers" d=" M 146 318 C 146 293.147184 184.9512224 273 233 273 C 281.0487776 273 320 293.147184 320 318 C 320 342.852816 281.0487776 363 233 363 C 184.9512224 363 146 342.852816 146 318 Z" stroke-miterlimit="10" stroke-dasharray=""/></g><g><g><path fill="none" stroke="none"/><text fill="#000000" stroke="none" font-family="Arial" font-size="13px" font-style="normal" font-weight="bold" text-decoration="undefined" x="249" y="314.5" text-anchor="middle" dominant-baseline="central" transform="matrix(1 0 0 1 -16 -15)">UC95 - Selezione</text><text fill="#000000" stroke="none" font-family="Arial" font-size="13px" font-style="normal" font-weight="bold" text-decoration="undefined" x="249" y="327.5" text-anchor="middle" dominant-baseline="central" transform="matrix(1 0 0 1 -16 -15)">Gateway per invio</text><text fill="#000000" stroke="none" font-family="Arial" font-size="13px" font-style="normal" font-weight="bold" text-decoration="undefined" x="249" y="340.5" text-anchor="middle" dominant-baseline="central" transform="matrix(1 0 0 1 -16 -15)">comando da</text><text fill="#000000" stroke="none" font-family="Arial" font-size="13px" font-style="normal" font-weight="bold" text-decoration="undefined" x="249" y="353.5" text-anchor="middle" dominant-baseline="central" transform="matrix(1 0 0 1 -16 -15)">Super Admin</text></g></g><g><path fill="none" stroke="#000000" paint-order="fill stroke markers" d=" M 384 288 L 260 146" stroke-miterlimit="10" stroke-dasharray="3"/></g><g><path fill="none" stroke="#000000" paint-order="fill stroke markers" d=" M 269.85528180068985 150.88604345344902 L 260 146 L 263.5137821326662 156.42369105087806" stroke-miterlimit="10" stroke-dasharray=""/></g><g><rect fill="#ffffff" stroke="none" x="280" y="232" width="53.49169921875" height="13" transform="matrix(1 0 0 1 -16 -15)"/></g><g><g><path fill="none" stroke="none"/><text fill="#000000" stroke="none" font-family="Arial" font-size="13px" font-style="normal" font-weight="normal" text-decoration="undefined" x="306.745849609375" y="238.5" text-anchor="middle" dominant-baseline="central" transform="matrix(1 0 0 1 -16 -15)">«extend»</text></g></g><g><path fill="none" stroke="#000000" paint-order="fill stroke markers" d=" M 488 321 L 520 321 L 520 106" stroke-miterlimit="10" stroke-dasharray="3"/></g><g><path fill="none" stroke="#000000" paint-order="fill stroke markers" d=" M 524.209517756016 116.16267485762415 L 520 106 L 515.790482243984 116.16267485762415" stroke-miterlimit="10" stroke-dasharray=""/></g><g><rect fill="#ffffff" stroke="none" x="543" y="327" width="53.49169921875" height="13" transform="matrix(1 0 0 1 -16 -15)"/></g><g><g><path fill="none" stroke="none"/><text fill="#000000" stroke="none" font-family="Arial" font-size="13px" font-style="normal" font-weight="normal" text-decoration="undefined" x="569.745849609375" y="333.5" text-anchor="middle" dominant-baseline="central" transform="matrix(1 0 0 1 -16 -15)">«extend»</text></g></g><g><path fill="#C0C0C0" stroke="none" paint-order="stroke fill markers" d=" M 351 332 C 351 312.1177472 383.2354944 296 423 296 C 462.7645056 296 495 312.1177472 495 332 C 495 351.8822528 462.7645056 368 423 368 C 383.2354944 368 351 351.8822528 351 332 Z" fill-opacity="0.2"/></g><g><path fill="#ffffff" stroke="none" paint-order="stroke fill markers" d=" M 344 325 C 344 305.1177472 376.2354944 289 416 289 C 455.7645056 289 488 305.1177472 488 325 C 488 344.8822528 455.7645056 361 416 361 C 376.2354944 361 344 344.8822528 344 325 Z"/></g><g><path fill="none" stroke="#000000" paint-order="fill stroke markers" d=" M 344 325 C 344 305.1177472 376.2354944 289 416 289 C 455.7645056 289 488 305.1177472 488 325 C 488 344.8822528 455.7645056 361 416 361 C 376.2354944 361 344 344.8822528 344 325 Z" stroke-miterlimit="10" stroke-dasharray=""/></g><g><g><path fill="none" stroke="none"/><text fill="#000000" stroke="none" font-family="Arial" font-size="13px" font-style="normal" font-weight="bold" text-decoration="undefined" x="432" y="328" text-anchor="middle" dominant-baseline="central" transform="matrix(1 0 0 1 -16 -15)">UC34 -</text><text fill="#000000" stroke="none" font-family="Arial" font-size="13px" font-style="normal" font-weight="bold" text-decoration="undefined" x="432" y="341" text-anchor="middle" dominant-baseline="central" transform="matrix(1 0 0 1 -16 -15)">Gateway non</text><text fill="#000000" stroke="none" font-family="Arial" font-size="13px" font-style="normal" font-weight="bold" text-decoration="undefined" x="432" y="354" text-anchor="middle" dominant-baseline="central" transform="matrix(1 0 0 1 -16 -15)">raggiungibile</text></g></g><g><path fill="#ffffff" stroke="none" paint-order="stroke fill markers" d=" M 352 145 L 485 145 L 495 155 L 495 208 L 352 208 L 352 145"/></g><g><path fill="none" stroke="#000000" paint-order="fill stroke markers" d=" M 352 145 L 485 145 L 495 155 L 495 208 L 352 208 L 352 145 L 352 145" stroke-miterlimit="10" stroke-dasharray=""/></g><g><path fill="none" stroke="#000000" paint-order="fill stroke markers" d=" M 485 145 L 485 155 L 495 155 L 485 145" stroke-miterlimit="10" stroke-dasharray=""/></g><g><g><path fill="none" stroke="none"/><text fill="#000000" stroke="none" font-family="Arial" font-size="13px" font-style="normal" font-weight="normal" text-decoration="undefined" x="373" y="165" text-anchor="start" dominant-baseline="text-before-edge" transform="matrix(1 0 0 1 -16 -15)">Condizione: il gateway</text><text fill="#000000" stroke="none" font-family="Arial" font-size="13px" font-style="normal" font-weight="normal" text-decoration="undefined" x="373" y="178" text-anchor="start" dominant-baseline="text-before-edge" transform="matrix(1 0 0 1 -16 -15)">non è raggiungibile dal</text><text fill="#000000" stroke="none" font-family="Arial" font-size="13px" font-style="normal" font-weight="normal" text-decoration="undefined" x="373" y="191" text-anchor="start" dominant-baseline="text-before-edge" transform="matrix(1 0 0 1 -16 -15)">sistema</text></g></g><g><path fill="#C0C0C0" stroke="none" paint-order="stroke fill markers" d=" M 175 116 C 175 96.1177472 201.862912 80 235 80 C 268.137088 80 295 96.1177472 295 116 C 295 135.8822528 268.137088 152 235 152 C 201.862912 152 175 135.8822528 175 116 Z" fill-opacity="0.2"/></g><g><path fill="#ffffff" stroke="none" paint-order="stroke fill markers" d=" M 168 109 C 168 89.1177472 194.862912 73 228 73 C 261.137088 73 288 89.1177472 288 109 C 288 128.8822528 261.137088 145 228 145 C 194.862912 145 168 128.8822528 168 109 Z"/></g><g><path fill="none" stroke="#000000" paint-order="fill stroke markers" d=" M 168 109 C 168 89.1177472 194.862912 73 228 73 C 261.137088 73 288 89.1177472 288 109 C 288 128.8822528 261.137088 145 228 145 C 194.862912 145 168 128.8822528 168 109 Z" stroke-miterlimit="10" stroke-dasharray=""/></g><g><g><path fill="none" stroke="none"/><text fill="#000000" stroke="none" font-family="Arial" font-size="13px" font-style="normal" font-weight="bold" text-decoration="undefined" x="244" y="112" text-anchor="middle" dominant-baseline="central" transform="matrix(1 0 0 1 -16 -15)">UC88 -</text><text fill="#000000" stroke="none" font-family="Arial" font-size="13px" font-style="normal" font-weight="bold" text-decoration="undefined" x="244" y="125" text-anchor="middle" dominant-baseline="central" transform="matrix(1 0 0 1 -16 -15)">Reset</text><text fill="#000000" stroke="none" font-family="Arial" font-size="13px" font-style="normal" font-weight="bold" text-decoration="undefined" x="244" y="138" text-anchor="middle" dominant-baseline="central" transform="matrix(1 0 0 1 -16 -15)">Gateway</text></g></g><g><path fill="none" stroke="#000000" paint-order="fill stroke markers" d=" M 351 206 L 322 217" stroke-miterlimit="10" stroke-dasharray="3"/></g><g><path fill="none" stroke="#000000" paint-order="fill stroke markers" d=" M 497 204 L 520 213" stroke-miterlimit="10" stroke-dasharray="3"/></g></g></svg>