<svg version="1.1" xmlns="http://www.w3.org/2000/svg" xmlns:xlink="http://www.w3.org/1999/xlink" width="764.47265625" height="260"><defs/><g><g><rect fill="#C0C0C0" stroke="none" x="139" y="32" width="552" height="240" transform="matrix(1 0 0 1 -18 -15)" fill-opacity="0.2"/></g><g><rect fill="#ffffff" stroke="none" x="132" y="25" width="552" height="240" transform="matrix(1 0 0 1 -18 -15)"/></g><g><path fill="none" stroke="#000000" paint-order="fill stroke markers" d=" M 114 10 L 666 10 L 666 250 L 114 250 L 114 10 Z Z" stroke-miterlimit="10" stroke-dasharray=""/></g><g><g><path fill="none" stroke="none"/><text fill="#000000" stroke="none" font-family="Arial" font-size="13px" font-style="normal" font-weight="bold" text-decoration="undefined" x="408.5" y="38.5" text-anchor="middle" dominant-baseline="central" transform="matrix(1 0 0 1 -18 -15)">Sistema cloud</text></g></g><g><path fill="#ffffff" stroke="none" paint-order="stroke fill markers" d=" M 47.930751953125 46.85 C 47.930751953125 41.96227952 51.888554321125 38 56.770751953125 38 C 61.652949585125 38 65.610751953125 41.96227952 65.610751953125 46.85 C 65.610751953125 51.73772048000001 61.652949585125 55.7 56.770751953125 55.7 C 51.888554321125 55.7 47.930751953125 51.73772048000001 47.930751953125 46.85 Z"/></g><g><path fill="none" stroke="#000000" paint-order="fill stroke markers" d=" M 47.930751953125 46.85 C 47.930751953125 41.96227952 51.888554321125 38 56.770751953125 38 C 61.652949585125 38 65.610751953125 41.96227952 65.610751953125 46.85 C 65.610751953125 51.73772048000001 61.652949585125 55.7 56.770751953125 55.7 C 51.888554321125 55.7 47.930751953125 51.73772048000001 47.930751953125 46.85 Z" stroke-miterlimit="10" stroke-dasharray=""/></g><g><path fill="none" stroke="#000000" paint-order="fill stroke markers" d=" M 56.770751953125 55.7 L 56.770751953125 73.3" stroke-miterlimit="10" stroke-dasharray=""/></g><g><path fill="none" stroke="#000000" paint-order="fill stroke markers" d=" M 47.410751953125 62.3 L 66.130751953125 62.3" stroke-miterlimit="10" stroke-dasharray=""/></g><g><path fill="none" stroke="#000000" paint-order="fill stroke markers" d=" M 56.770751953125 73.3 L 43.770751953125 91" stroke-miterlimit="10" stroke-dasharray=""/></g><g><path fill="none" stroke="#000000" paint-order="fill stroke markers" d=" M 56.770751953125 73.3 L 69.770751953125 91" stroke-miterlimit="10" stroke-dasharray=""/></g><g><g><path fill="none" stroke="none"/><text fill="#000000" stroke="none" font-family="Arial" font-size="13px" font-style="normal" font-weight="bold" text-decoration="undefined" x="75.270751953125" y="120.5" text-anchor="middle" dominant-baseline="central" transform="matrix(1 0 0 1 -18 -15)">Super Admin</text></g></g><g><path fill="#C0C0C0" stroke="none" paint-order="stroke fill markers" d=" M 265 83.5 C 265 68.8644528 320.5166848 57 389 57 C 457.4833152 57 513 68.8644528 513 83.5 C 513 98.1355472 457.4833152 110 389 110 C 320.5166848 110 265 98.1355472 265 83.5 Z" fill-opacity="0.2"/></g><g><path fill="#ffffff" stroke="none" paint-order="stroke fill markers" d=" M 258 76.5 C 258 61.864452799999995 313.5166848 50 382 50 C 450.4833152 50 506 61.864452799999995 506 76.5 C 506 91.1355472 450.4833152 103 382 103 C 313.5166848 103 258 91.1355472 258 76.5 Z"/></g><g><path fill="none" stroke="#000000" paint-order="fill stroke markers" d=" M 258 76.5 C 258 61.864452799999995 313.5166848 50 382 50 C 450.4833152 50 506 61.864452799999995 506 76.5 C 506 91.1355472 450.4833152 103 382 103 C 313.5166848 103 258 91.1355472 258 76.5 Z" stroke-miterlimit="10" stroke-dasharray=""/></g><g><g><path fill="none" stroke="none"/><text fill="#000000" stroke="none" font-family="Arial" font-size="13px" font-style="normal" font-weight="bold" text-decoration="undefined" x="400" y="86" text-anchor="middle" dominant-baseline="central" transform="matrix(1 0 0 1 -18 -15)">UC88 - Riattivazione</text><text fill="#000000" stroke="none" font-family="Arial" font-size="13px" font-style="normal" font-weight="bold" text-decoration="undefined" x="400" y="99" text-anchor="middle" dominant-baseline="central" transform="matrix(1 0 0 1 -18 -15)">Gateway</text></g></g><g><path fill="#ffffff" stroke="none" paint-order="stroke fill markers" d=" M 712.896328125 43.85 C 712.896328125 38.96227952 716.854130493 35 721.736328125 35 C 726.618525757 35 730.576328125 38.96227952 730.576328125 43.85 C 730.576328125 48.73772048 726.618525757 52.7 721.736328125 52.7 C 716.854130493 52.7 712.896328125 48.73772048 712.896328125 43.85 Z"/></g><g><path fill="none" stroke="#000000" paint-order="fill stroke markers" d=" M 712.896328125 43.85 C 712.896328125 38.96227952 716.854130493 35 721.736328125 35 C 726.618525757 35 730.576328125 38.96227952 730.576328125 43.85 C 730.576328125 48.73772048 726.618525757 52.7 721.736328125 52.7 C 716.854130493 52.7 712.896328125 48.73772048 712.896328125 43.85 Z" stroke-miterlimit="10" stroke-dasharray=""/></g><g><path fill="none" stroke="#000000" paint-order="fill stroke markers" d=" M 721.736328125 52.7 L 721.736328125 70.3" stroke-miterlimit="10" stroke-dasharray=""/></g><g><path fill="none" stroke="#000000" paint-order="fill stroke markers" d=" M 712.376328125 59.3 L 731.096328125 59.3" stroke-miterlimit="10" stroke-dasharray=""/></g><g><path fill="none" stroke="#000000" paint-order="fill stroke markers" d=" M 721.736328125 70.3 L 708.736328125 88" stroke-miterlimit="10" stroke-dasharray=""/></g><g><path fill="none" stroke="#000000" paint-order="fill stroke markers" d=" M 721.736328125 70.3 L 734.736328125 88" stroke-miterlimit="10" stroke-dasharray=""/></g><g><g><path fill="none" stroke="none"/><text fill="#000000" stroke="none" font-family="Arial" font-size="13px" font-style="normal" font-weight="bold" text-decoration="undefined" x="740.236328125" y="117.5" text-anchor="middle" dominant-baseline="central" transform="matrix(1 0 0 1 -18 -15)">Gateway</text></g></g><g><path fill="#C0C0C0" stroke="none" paint-order="stroke fill markers" d=" M 477 190 C 477 165.147184 518.1897984 145 569 145 C 619.8102016 145 661 165.147184 661 190 C 661 214.852816 619.8102016 235 569 235 C 518.1897984 235 477 214.852816 477 190 Z" fill-opacity="0.2"/></g><g><path fill="#ffffff" stroke="none" paint-order="stroke fill markers" d=" M 470 183 C 470 158.147184 511.1897984 138 562 138 C 612.8102016 138 654 158.147184 654 183 C 654 207.852816 612.8102016 228 562 228 C 511.1897984 228 470 207.852816 470 183 Z"/></g><g><path fill="none" stroke="#000000" paint-order="fill stroke markers" d=" M 470 183 C 470 158.147184 511.1897984 138 562 138 C 612.8102016 138 654 158.147184 654 183 C 654 207.852816 612.8102016 228 562 228 C 511.1897984 228 470 207.852816 470 183 Z" stroke-miterlimit="10" stroke-dasharray=""/></g><g><g><path fill="none" stroke="none"/><text fill="#000000" stroke="none" font-family="Arial" font-size="13px" font-style="normal" font-weight="bold" text-decoration="undefined" x="580" y="179.5" text-anchor="middle" dominant-baseline="central" transform="matrix(1 0 0 1 -18 -15)">UC92 - Selezione</text><text fill="#000000" stroke="none" font-family="Arial" font-size="13px" font-style="normal" font-weight="bold" text-decoration="undefined" x="580" y="192.5" text-anchor="middle" dominant-baseline="central" transform="matrix(1 0 0 1 -18 -15)">Gateway per invio</text><text fill="#000000" stroke="none" font-family="Arial" font-size="13px" font-style="normal" font-weight="bold" text-decoration="undefined" x="580" y="205.5" text-anchor="middle" dominant-baseline="central" transform="matrix(1 0 0 1 -18 -15)">comando da Super</text><text fill="#000000" stroke="none" font-family="Arial" font-size="13px" font-style="normal" font-weight="bold" text-decoration="undefined" x="580" y="218.5" text-anchor="middle" dominant-baseline="central" transform="matrix(1 0 0 1 -18 -15)">Admin</text></g></g><g><path fill="none" stroke="#000000" paint-order="fill stroke markers" d=" M 429 104 L 485 137" stroke-miterlimit="10" stroke-dasharray="3"/></g><g><path fill="none" stroke="#000000" paint-order="fill stroke markers" d=" M 474.1073249542234 135.46714960054305 L 485 137 L 478.3816045218704 128.21382669786937" stroke-miterlimit="10" stroke-dasharray=""/></g><g><rect fill="#ffffff" stroke="none" x="487" y="118" width="55.65625" height="13" transform="matrix(1 0 0 1 -18 -15)"/></g><g><g><path fill="none" stroke="none"/><text fill="#000000" stroke="none" font-family="Arial" font-size="13px" font-style="normal" font-weight="normal" text-decoration="undefined" x="514.828125" y="124.5" text-anchor="middle" dominant-baseline="central" transform="matrix(1 0 0 1 -18 -15)">«include»</text></g></g><g><path fill="none" stroke="#000000" paint-order="fill stroke markers" d=" M 105 77 L 257 76" stroke-miterlimit="10" stroke-dasharray=""/></g><g><path fill="none" stroke="#000000" paint-order="fill stroke markers" d=" M 689 74 L 507 75" stroke-miterlimit="10" stroke-dasharray=""/></g><g><path fill="none" stroke="#000000" paint-order="fill stroke markers" d=" M 322 176 L 365 104" stroke-miterlimit="10" stroke-dasharray="3"/></g><g><path fill="none" stroke="#000000" paint-order="fill stroke markers" d=" M 363.40323185664903 114.88348893950737 L 365 104 L 356.1751255857594 110.56670324994832" stroke-miterlimit="10" stroke-dasharray=""/></g><g><rect fill="#ffffff" stroke="none" x="352" y="167" width="53.49169921875" height="13" transform="matrix(1 0 0 1 -18 -15)"/></g><g><g><path fill="none" stroke="none"/><text fill="#000000" stroke="none" font-family="Arial" font-size="13px" font-style="normal" font-weight="normal" text-decoration="undefined" x="378.745849609375" y="173.5" text-anchor="middle" dominant-baseline="central" transform="matrix(1 0 0 1 -18 -15)">«extend»</text></g></g><g><path fill="#C0C0C0" stroke="none" paint-order="stroke fill markers" d=" M 213 210.5 C 213 195.8644528 257.77152 184 313 184 C 368.22848 184 413 195.8644528 413 210.5 C 413 225.1355472 368.22848 237 313 237 C 257.77152 237 213 225.1355472 213 210.5 Z" fill-opacity="0.2"/></g><g><path fill="#ffffff" stroke="none" paint-order="stroke fill markers" d=" M 206 203.5 C 206 188.8644528 250.77152 177 306 177 C 361.22848 177 406 188.8644528 406 203.5 C 406 218.1355472 361.22848 230 306 230 C 250.77152 230 206 218.1355472 206 203.5 Z"/></g><g><path fill="none" stroke="#000000" paint-order="fill stroke markers" d=" M 206 203.5 C 206 188.8644528 250.77152 177 306 177 C 361.22848 177 406 188.8644528 406 203.5 C 406 218.1355472 361.22848 230 306 230 C 250.77152 230 206 218.1355472 206 203.5 Z" stroke-miterlimit="10" stroke-dasharray=""/></g><g><g><path fill="none" stroke="none"/><text fill="#000000" stroke="none" font-family="Arial" font-size="13px" font-style="normal" font-weight="bold" text-decoration="undefined" x="324" y="213" text-anchor="middle" dominant-baseline="central" transform="matrix(1 0 0 1 -18 -15)">UC32 - Gateway non</text><text fill="#000000" stroke="none" font-family="Arial" font-size="13px" font-style="normal" font-weight="bold" text-decoration="undefined" x="324" y="226" text-anchor="middle" dominant-baseline="central" transform="matrix(1 0 0 1 -18 -15)">raggiungibile</text></g></g><g><path fill="#ffffff" stroke="none" paint-order="stroke fill markers" d=" M 134 97 L 251 97 L 261 107 L 261 160 L 134 160 L 134 97"/></g><g><path fill="none" stroke="#000000" paint-order="fill stroke markers" d=" M 134 97 L 251 97 L 261 107 L 261 160 L 134 160 L 134 97 L 134 97" stroke-miterlimit="10" stroke-dasharray=""/></g><g><path fill="none" stroke="#000000" paint-order="fill stroke markers" d=" M 251 97 L 251 107 L 261 107 L 251 97" stroke-miterlimit="10" stroke-dasharray=""/></g><g><g><path fill="none" stroke="none"/><text fill="#000000" stroke="none" font-family="Arial" font-size="13px" font-style="normal" font-weight="normal" text-decoration="undefined" x="157" y="117" text-anchor="start" dominant-baseline="text-before-edge" transform="matrix(1 0 0 1 -18 -15)">Condizione: il</text><text fill="#000000" stroke="none" font-family="Arial" font-size="13px" font-style="normal" font-weight="normal" text-decoration="undefined" x="157" y="130" text-anchor="start" dominant-baseline="text-before-edge" transform="matrix(1 0 0 1 -18 -15)">gateway non è</text><text fill="#000000" stroke="none" font-family="Arial" font-size="13px" font-style="normal" font-weight="normal" text-decoration="undefined" x="157" y="143" text-anchor="start" dominant-baseline="text-before-edge" transform="matrix(1 0 0 1 -18 -15)">raggiungibile dal</text><text fill="#000000" stroke="none" font-family="Arial" font-size="13px" font-style="normal" font-weight="normal" text-decoration="undefined" x="157" y="156" text-anchor="start" dominant-baseline="text-before-edge" transform="matrix(1 0 0 1 -18 -15)">sistema</text></g></g><g><path fill="none" stroke="#000000" paint-order="fill stroke markers" d=" M 246 162 L 267 176" stroke-miterlimit="10" stroke-dasharray="3"/></g></g></svg>