<svg version="1.1" xmlns="http://www.w3.org/2000/svg" xmlns:xlink="http://www.w3.org/1999/xlink" width="751.47265625" height="276"><defs/><g><g><rect fill="#C0C0C0" stroke="none" x="177" y="40" width="512" height="256" transform="matrix(1 0 0 1 -24 -23)" fill-opacity="0.2"/></g><g><rect fill="#ffffff" stroke="none" x="170" y="33" width="512" height="256" transform="matrix(1 0 0 1 -24 -23)"/></g><g><path fill="none" stroke="#000000" paint-order="fill stroke markers" d=" M 146 10 L 658 10 L 658 266 L 146 266 L 146 10 Z Z" stroke-miterlimit="10" stroke-dasharray=""/></g><g><g><path fill="none" stroke="none"/><text fill="#000000" stroke="none" font-family="Arial" font-size="13px" font-style="normal" font-weight="bold" text-decoration="undefined" x="426.5" y="46.5" text-anchor="middle" dominant-baseline="central" transform="matrix(1 0 0 1 -24 -23)">Sistema cloud</text></g></g><g><path fill="#ffffff" stroke="none" paint-order="stroke fill markers" d=" M 47.930751953125 67.85 C 47.930751953125 62.962279519999996 51.888554321125 59 56.770751953125 59 C 61.652949585125 59 65.610751953125 62.962279519999996 65.610751953125 67.85 C 65.610751953125 72.73772048 61.652949585125 76.7 56.770751953125 76.7 C 51.888554321125 76.7 47.930751953125 72.73772048 47.930751953125 67.85 Z"/></g><g><path fill="none" stroke="#000000" paint-order="fill stroke markers" d=" M 47.930751953125 67.85 C 47.930751953125 62.962279519999996 51.888554321125 59 56.770751953125 59 C 61.652949585125 59 65.610751953125 62.962279519999996 65.610751953125 67.85 C 65.610751953125 72.73772048 61.652949585125 76.7 56.770751953125 76.7 C 51.888554321125 76.7 47.930751953125 72.73772048 47.930751953125 67.85 Z" stroke-miterlimit="10" stroke-dasharray=""/></g><g><path fill="none" stroke="#000000" paint-order="fill stroke markers" d=" M 56.770751953125 76.7 L 56.770751953125 94.3" stroke-miterlimit="10" stroke-dasharray=""/></g><g><path fill="none" stroke="#000000" paint-order="fill stroke markers" d=" M 47.410751953125 83.3 L 66.130751953125 83.3" stroke-miterlimit="10" stroke-dasharray=""/></g><g><path fill="none" stroke="#000000" paint-order="fill stroke markers" d=" M 56.770751953125 94.3 L 43.770751953125 112" stroke-miterlimit="10" stroke-dasharray=""/></g><g><path fill="none" stroke="#000000" paint-order="fill stroke markers" d=" M 56.770751953125 94.3 L 69.770751953125 112" stroke-miterlimit="10" stroke-dasharray=""/></g><g><g><path fill="none" stroke="none"/><text fill="#000000" stroke="none" font-family="Arial" font-size="13px" font-style="normal" font-weight="bold" text-decoration="undefined" x="81.270751953125" y="149.5" text-anchor="middle" dominant-baseline="central" transform="matrix(1 0 0 1 -24 -23)">Tenant admin</text></g></g><g><path fill="#C0C0C0" stroke="none" paint-order="stroke fill markers" d=" M 249 107.5 C 249 92.8644528 304.5166848 81 373 81 C 441.4833152 81 497 92.8644528 497 107.5 C 497 122.13554719999999 441.4833152 134 373 134 C 304.5166848 134 249 122.13554719999999 249 107.5 Z" fill-opacity="0.2"/></g><g><path fill="#ffffff" stroke="none" paint-order="stroke fill markers" d=" M 242 100.5 C 242 85.8644528 297.5166848 74 366 74 C 434.4833152 74 490 85.8644528 490 100.5 C 490 115.13554719999999 434.4833152 127 366 127 C 297.5166848 127 242 115.13554719999999 242 100.5 Z"/></g><g><path fill="none" stroke="#000000" paint-order="fill stroke markers" d=" M 242 100.5 C 242 85.8644528 297.5166848 74 366 74 C 434.4833152 74 490 85.8644528 490 100.5 C 490 115.13554719999999 434.4833152 127 366 127 C 297.5166848 127 242 115.13554719999999 242 100.5 Z" stroke-miterlimit="10" stroke-dasharray=""/></g><g><g><path fill="none" stroke="none"/><text fill="#000000" stroke="none" font-family="Arial" font-size="13px" font-style="normal" font-weight="bold" text-decoration="undefined" x="390" y="118" text-anchor="middle" dominant-baseline="central" transform="matrix(1 0 0 1 -24 -23)">UC89 - Riavvio Gateway</text><text fill="#000000" stroke="none" font-family="Arial" font-size="13px" font-style="normal" font-weight="bold" text-decoration="undefined" x="390" y="131" text-anchor="middle" dominant-baseline="central" transform="matrix(1 0 0 1 -24 -23)">da Super Admin</text></g></g><g><path fill="#C0C0C0" stroke="none" paint-order="stroke fill markers" d=" M 481 207 C 481 177.1766208 516.817216 153 561 153 C 605.182784 153 641 177.1766208 641 207 C 641 236.82337919999998 605.182784 261 561 261 C 516.817216 261 481 236.82337919999998 481 207 Z" fill-opacity="0.2"/></g><g><path fill="#ffffff" stroke="none" paint-order="stroke fill markers" d=" M 474 200 C 474 170.1766208 509.81721600000003 146 554 146 C 598.182784 146 634 170.1766208 634 200 C 634 229.8233792 598.182784 254 554 254 C 509.81721600000003 254 474 229.8233792 474 200 Z"/></g><g><path fill="none" stroke="#000000" paint-order="fill stroke markers" d=" M 474 200 C 474 170.1766208 509.81721600000003 146 554 146 C 598.182784 146 634 170.1766208 634 200 C 634 229.8233792 598.182784 254 554 254 C 509.81721600000003 254 474 229.8233792 474 200 Z" stroke-miterlimit="10" stroke-dasharray=""/></g><g><g><path fill="none" stroke="none"/><text fill="#000000" stroke="none" font-family="Arial" font-size="13px" font-style="normal" font-weight="bold" text-decoration="undefined" x="578" y="198" text-anchor="middle" dominant-baseline="central" transform="matrix(1 0 0 1 -24 -23)">UC95 -</text><text fill="#000000" stroke="none" font-family="Arial" font-size="13px" font-style="normal" font-weight="bold" text-decoration="undefined" x="578" y="211" text-anchor="middle" dominant-baseline="central" transform="matrix(1 0 0 1 -24 -23)">Selezione</text><text fill="#000000" stroke="none" font-family="Arial" font-size="13px" font-style="normal" font-weight="bold" text-decoration="undefined" x="578" y="224" text-anchor="middle" dominant-baseline="central" transform="matrix(1 0 0 1 -24 -23)">Gateway per</text><text fill="#000000" stroke="none" font-family="Arial" font-size="13px" font-style="normal" font-weight="bold" text-decoration="undefined" x="578" y="237" text-anchor="middle" dominant-baseline="central" transform="matrix(1 0 0 1 -24 -23)">invio comando</text><text fill="#000000" stroke="none" font-family="Arial" font-size="13px" font-style="normal" font-weight="bold" text-decoration="undefined" x="578" y="250" text-anchor="middle" dominant-baseline="central" transform="matrix(1 0 0 1 -24 -23)">da Super Admin</text></g></g><g><path fill="#C0C0C0" stroke="none" paint-order="stroke fill markers" d=" M 201 205 C 201 185.1177472 236.81721600000003 169 281 169 C 325.18278399999997 169 361 185.1177472 361 205 C 361 224.8822528 325.18278399999997 241 281 241 C 236.81721600000003 241 201 224.8822528 201 205 Z" fill-opacity="0.2"/></g><g><path fill="#ffffff" stroke="none" paint-order="stroke fill markers" d=" M 194 198 C 194 178.1177472 229.817216 162 274 162 C 318.18278399999997 162 354 178.1177472 354 198 C 354 217.8822528 318.18278399999997 234 274 234 C 229.817216 234 194 217.8822528 194 198 Z"/></g><g><path fill="none" stroke="#000000" paint-order="fill stroke markers" d=" M 194 198 C 194 178.1177472 229.817216 162 274 162 C 318.18278399999997 162 354 178.1177472 354 198 C 354 217.8822528 318.18278399999997 234 274 234 C 229.817216 234 194 217.8822528 194 198 Z" stroke-miterlimit="10" stroke-dasharray=""/></g><g><g><path fill="none" stroke="none"/><text fill="#000000" stroke="none" font-family="Arial" font-size="13px" font-style="normal" font-weight="bold" text-decoration="undefined" x="298" y="209" text-anchor="middle" dominant-baseline="central" transform="matrix(1 0 0 1 -24 -23)">UC34 - Gateway</text><text fill="#000000" stroke="none" font-family="Arial" font-size="13px" font-style="normal" font-weight="bold" text-decoration="undefined" x="298" y="222" text-anchor="middle" dominant-baseline="central" transform="matrix(1 0 0 1 -24 -23)">non</text><text fill="#000000" stroke="none" font-family="Arial" font-size="13px" font-style="normal" font-weight="bold" text-decoration="undefined" x="298" y="235" text-anchor="middle" dominant-baseline="central" transform="matrix(1 0 0 1 -24 -23)">raggiungibile</text></g></g><g><path fill="none" stroke="#000000" paint-order="fill stroke markers" d=" M 340 128 L 309 161" stroke-miterlimit="10" stroke-dasharray="3"/></g><g><path fill="none" stroke="#000000" paint-order="fill stroke markers" d=" M 312.8900351989678 150.71080050971935 L 309 161 L 319.0262330008031 156.47510753568585" stroke-miterlimit="10" stroke-dasharray=""/></g><g><rect fill="#ffffff" stroke="none" x="355" y="161" width="53.49169921875" height="13" transform="matrix(1 0 0 1 -24 -23)"/></g><g><g><path fill="none" stroke="none"/><text fill="#000000" stroke="none" font-family="Arial" font-size="13px" font-style="normal" font-weight="normal" text-decoration="undefined" x="381.745849609375" y="167.5" text-anchor="middle" dominant-baseline="central" transform="matrix(1 0 0 1 -24 -23)">«extend»</text></g></g><g><path fill="none" stroke="#000000" paint-order="fill stroke markers" d=" M 419 128 L 473 157" stroke-miterlimit="10" stroke-dasharray="3"/></g><g><path fill="none" stroke="#000000" paint-order="fill stroke markers" d=" M 462.0551050803338 155.90032950504892 L 473 157 L 466.03837504698055 148.4832061188792" stroke-miterlimit="10" stroke-dasharray=""/></g><g><rect fill="#ffffff" stroke="none" x="417" y="168" width="55.65625" height="13" transform="matrix(1 0 0 1 -24 -23)"/></g><g><g><path fill="none" stroke="none"/><text fill="#000000" stroke="none" font-family="Arial" font-size="13px" font-style="normal" font-weight="normal" text-decoration="undefined" x="444.828125" y="174.5" text-anchor="middle" dominant-baseline="central" transform="matrix(1 0 0 1 -24 -23)">«include»</text></g></g><g><path fill="none" stroke="#000000" paint-order="fill stroke markers" d=" M 105 98 L 241 99" stroke-miterlimit="10" stroke-dasharray=""/></g><g><path fill="#ffffff" stroke="none" paint-order="stroke fill markers" d=" M 699.896328125 68.85 C 699.896328125 63.962279519999996 703.854130493 60 708.736328125 60 C 713.618525757 60 717.576328125 63.962279519999996 717.576328125 68.85 C 717.576328125 73.73772048 713.618525757 77.7 708.736328125 77.7 C 703.854130493 77.7 699.896328125 73.73772048 699.896328125 68.85 Z"/></g><g><path fill="none" stroke="#000000" paint-order="fill stroke markers" d=" M 699.896328125 68.85 C 699.896328125 63.962279519999996 703.854130493 60 708.736328125 60 C 713.618525757 60 717.576328125 63.962279519999996 717.576328125 68.85 C 717.576328125 73.73772048 713.618525757 77.7 708.736328125 77.7 C 703.854130493 77.7 699.896328125 73.73772048 699.896328125 68.85 Z" stroke-miterlimit="10" stroke-dasharray=""/></g><g><path fill="none" stroke="#000000" paint-order="fill stroke markers" d=" M 708.736328125 77.7 L 708.736328125 95.3" stroke-miterlimit="10" stroke-dasharray=""/></g><g><path fill="none" stroke="#000000" paint-order="fill stroke markers" d=" M 699.376328125 84.3 L 718.096328125 84.3" stroke-miterlimit="10" stroke-dasharray=""/></g><g><path fill="none" stroke="#000000" paint-order="fill stroke markers" d=" M 708.736328125 95.3 L 695.736328125 113" stroke-miterlimit="10" stroke-dasharray=""/></g><g><path fill="none" stroke="#000000" paint-order="fill stroke markers" d=" M 708.736328125 95.3 L 721.736328125 113" stroke-miterlimit="10" stroke-dasharray=""/></g><g><g><path fill="none" stroke="none"/><text fill="#000000" stroke="none" font-family="Arial" font-size="13px" font-style="normal" font-weight="bold" text-decoration="undefined" x="733.236328125" y="150.5" text-anchor="middle" dominant-baseline="central" transform="matrix(1 0 0 1 -24 -23)">Gateway</text></g></g><g><path fill="none" stroke="#000000" paint-order="fill stroke markers" d=" M 676 99 L 491 100" stroke-miterlimit="10" stroke-dasharray=""/></g></g></svg>