<svg version="1.1" xmlns="http://www.w3.org/2000/svg" xmlns:xlink="http://www.w3.org/1999/xlink" width="981" height="436"><defs/><g><g><rect fill="#C0C0C0" stroke="none" x="429" y="328" width="776" height="416" transform="matrix(1 0 0 1 -228 -311)" fill-opacity="0.2"/></g><g><rect fill="#ffffff" stroke="none" x="422" y="321" width="776" height="416" transform="matrix(1 0 0 1 -228 -311)"/></g><g><path fill="none" stroke="#000000" paint-order="fill stroke markers" d=" M 194 10 L 970 10 L 970 426 L 194 426 L 194 10 Z Z" stroke-miterlimit="10" stroke-dasharray=""/></g><g><g><path fill="none" stroke="none"/><text fill="#000000" stroke="none" font-family="Arial" font-size="13px" font-style="normal" font-weight="bold" text-decoration="undefined" x="810.5" y="334.5" text-anchor="middle" dominant-baseline="central" transform="matrix(1 0 0 1 -228 -311)">Schermata d'autenticazione - Sistema</text></g></g><g><path fill="#ffffff" stroke="none" paint-order="stroke fill markers" d=" M 76.57772460937503 189.85000000000002 C 76.57772460937503 184.96227952000004 80.53552697737501 181 85.417724609375 181 C 90.29992224137499 181 94.25772460937497 184.96227952000004 94.25772460937497 189.85000000000002 C 94.25772460937497 194.73772048 90.29992224137499 198.7 85.417724609375 198.7 C 80.53552697737501 198.7 76.57772460937503 194.73772048 76.57772460937503 189.85000000000002 Z"/></g><g><path fill="none" stroke="#000000" paint-order="fill stroke markers" d=" M 76.57772460937503 189.85000000000002 C 76.57772460937503 184.96227952000004 80.53552697737501 181 85.417724609375 181 C 90.29992224137499 181 94.25772460937497 184.96227952000004 94.25772460937497 189.85000000000002 C 94.25772460937497 194.73772048 90.29992224137499 198.7 85.417724609375 198.7 C 80.53552697737501 198.7 76.57772460937503 194.73772048 76.57772460937503 189.85000000000002 Z" stroke-miterlimit="10" stroke-dasharray=""/></g><g><path fill="none" stroke="#000000" paint-order="fill stroke markers" d=" M 85.417724609375 198.7 L 85.417724609375 216.29999999999995" stroke-miterlimit="10" stroke-dasharray=""/></g><g><path fill="none" stroke="#000000" paint-order="fill stroke markers" d=" M 76.05772460937499 205.29999999999995 L 94.77772460937501 205.29999999999995" stroke-miterlimit="10" stroke-dasharray=""/></g><g><path fill="none" stroke="#000000" paint-order="fill stroke markers" d=" M 85.417724609375 216.29999999999995 L 72.417724609375 234" stroke-miterlimit="10" stroke-dasharray=""/></g><g><path fill="none" stroke="#000000" paint-order="fill stroke markers" d=" M 85.417724609375 216.29999999999995 L 98.417724609375 234" stroke-miterlimit="10" stroke-dasharray=""/></g><g><g><path fill="none" stroke="none"/><text fill="#000000" stroke="none" font-family="Arial" font-size="13px" font-style="normal" font-weight="bold" text-decoration="undefined" x="313.917724609375" y="559.5" text-anchor="middle" dominant-baseline="central" transform="matrix(1 0 0 1 -228 -311)">Utente non autenticato</text></g></g><g><path fill="#C0C0C0" stroke="none" paint-order="stroke fill markers" d=" M 273 219.5 C 273 204.86445279999998 321.35324160000005 193 381 193 C 440.64675839999995 193 489 204.86445279999998 489 219.5 C 489 234.13554720000002 440.64675839999995 246 381 246 C 321.35324160000005 246 273 234.13554720000002 273 219.5 Z" fill-opacity="0.2"/></g><g><path fill="#ffffff" stroke="none" paint-order="stroke fill markers" d=" M 266 212.5 C 266 197.86445279999998 314.35324160000005 186 374 186 C 433.64675839999995 186 482 197.86445279999998 482 212.5 C 482 227.13554720000002 433.64675839999995 239 374 239 C 314.35324160000005 239 266 227.13554720000002 266 212.5 Z"/></g><g><path fill="none" stroke="#000000" paint-order="fill stroke markers" d=" M 266 212.5 C 266 197.86445279999998 314.35324160000005 186 374 186 C 433.64675839999995 186 482 197.86445279999998 482 212.5 C 482 227.13554720000002 433.64675839999995 239 374 239 C 314.35324160000005 239 266 227.13554720000002 266 212.5 Z" stroke-miterlimit="10" stroke-dasharray=""/></g><g><g><path fill="none" stroke="none"/><text fill="#000000" stroke="none" font-family="Arial" font-size="13px" font-style="normal" font-weight="bold" text-decoration="undefined" x="602" y="518" text-anchor="middle" dominant-baseline="central" transform="matrix(1 0 0 1 -228 -311)">UC9 - Impostazione</text><text fill="#000000" stroke="none" font-family="Arial" font-size="13px" font-style="normal" font-weight="bold" text-decoration="undefined" x="602" y="531" text-anchor="middle" dominant-baseline="central" transform="matrix(1 0 0 1 -228 -311)">password</text></g></g><g><path fill="#C0C0C0" stroke="none" paint-order="stroke fill markers" d=" M 253 93.5 C 253 78.86445279999998 318.3664192 67 399 67 C 479.6335808 67 545 78.86445279999998 545 93.5 C 545 108.13554720000002 479.6335808 120 399 120 C 318.3664192 120 253 108.13554720000002 253 93.5 Z" fill-opacity="0.2"/></g><g><path fill="#ffffff" stroke="none" paint-order="stroke fill markers" d=" M 246 86.5 C 246 71.86445279999998 311.3664192 60 392 60 C 472.6335808 60 538 71.86445279999998 538 86.5 C 538 101.13554720000002 472.6335808 113 392 113 C 311.3664192 113 246 101.13554720000002 246 86.5 Z"/></g><g><path fill="none" stroke="#000000" paint-order="fill stroke markers" d=" M 246 86.5 C 246 71.86445279999998 311.3664192 60 392 60 C 472.6335808 60 538 71.86445279999998 538 86.5 C 538 101.13554720000002 472.6335808 113 392 113 C 311.3664192 113 246 101.13554720000002 246 86.5 Z" stroke-miterlimit="10" stroke-dasharray=""/></g><g><g><path fill="none" stroke="none"/><text fill="#000000" stroke="none" font-family="Arial" font-size="13px" font-style="normal" font-weight="bold" text-decoration="undefined" x="620" y="392" text-anchor="middle" dominant-baseline="central" transform="matrix(1 0 0 1 -228 -311)">UC14 - Password non</text><text fill="#000000" stroke="none" font-family="Arial" font-size="13px" font-style="normal" font-weight="bold" text-decoration="undefined" x="620" y="405" text-anchor="middle" dominant-baseline="central" transform="matrix(1 0 0 1 -228 -311)">conforme ai criteri di sicurezza</text></g></g><g><path fill="#C0C0C0" stroke="none" paint-order="stroke fill markers" d=" M 657 155.5 C 657 140.86445279999998 710.725824 129 777 129 C 843.2741759999999 129 897 140.86445279999998 897 155.5 C 897 170.13554720000002 843.2741759999999 182 777 182 C 710.725824 182 657 170.13554720000002 657 155.5 Z" fill-opacity="0.2"/></g><g><path fill="#ffffff" stroke="none" paint-order="stroke fill markers" d=" M 650 148.5 C 650 133.86445279999998 703.725824 122 770 122 C 836.2741759999999 122 890 133.86445279999998 890 148.5 C 890 163.13554720000002 836.2741759999999 175 770 175 C 703.725824 175 650 163.13554720000002 650 148.5 Z"/></g><g><path fill="none" stroke="#000000" paint-order="fill stroke markers" d=" M 650 148.5 C 650 133.86445279999998 703.725824 122 770 122 C 836.2741759999999 122 890 133.86445279999998 890 148.5 C 890 163.13554720000002 836.2741759999999 175 770 175 C 703.725824 175 650 163.13554720000002 650 148.5 Z" stroke-miterlimit="10" stroke-dasharray=""/></g><g><g><path fill="none" stroke="none"/><text fill="#000000" stroke="none" font-family="Arial" font-size="13px" font-style="normal" font-weight="bold" text-decoration="undefined" x="998" y="454" text-anchor="middle" dominant-baseline="central" transform="matrix(1 0 0 1 -228 -311)">UC13 - Password non</text><text fill="#000000" stroke="none" font-family="Arial" font-size="13px" font-style="normal" font-weight="bold" text-decoration="undefined" x="998" y="467" text-anchor="middle" dominant-baseline="central" transform="matrix(1 0 0 1 -228 -311)">coincidenti</text></g></g><g><path fill="#C0C0C0" stroke="none" paint-order="stroke fill markers" d=" M 609 227.5 C 609 212.86445279999998 673.4709888 201 753 201 C 832.5290112 201 897 212.86445279999998 897 227.5 C 897 242.13554720000002 832.5290112 254 753 254 C 673.4709888 254 609 242.13554720000002 609 227.5 Z" fill-opacity="0.2"/></g><g><path fill="#ffffff" stroke="none" paint-order="stroke fill markers" d=" M 602 220.5 C 602 205.86445279999998 666.4709888 194 746 194 C 825.5290112 194 890 205.86445279999998 890 220.5 C 890 235.13554720000002 825.5290112 247 746 247 C 666.4709888 247 602 235.13554720000002 602 220.5 Z"/></g><g><path fill="none" stroke="#000000" paint-order="fill stroke markers" d=" M 602 220.5 C 602 205.86445279999998 666.4709888 194 746 194 C 825.5290112 194 890 205.86445279999998 890 220.5 C 890 235.13554720000002 825.5290112 247 746 247 C 666.4709888 247 602 235.13554720000002 602 220.5 Z" stroke-miterlimit="10" stroke-dasharray=""/></g><g><g><path fill="none" stroke="none"/><text fill="#000000" stroke="none" font-family="Arial" font-size="13px" font-style="normal" font-weight="bold" text-decoration="undefined" x="974" y="526" text-anchor="middle" dominant-baseline="central" transform="matrix(1 0 0 1 -228 -311)">UC15 - Link di impostazione</text><text fill="#000000" stroke="none" font-family="Arial" font-size="13px" font-style="normal" font-weight="bold" text-decoration="undefined" x="974" y="539" text-anchor="middle" dominant-baseline="central" transform="matrix(1 0 0 1 -228 -311)">password scaduto</text></g></g><g><path fill="#C0C0C0" stroke="none" paint-order="stroke fill markers" d=" M 585 331.5 C 585 316.8644528 645.8892672 305 721 305 C 796.1107328 305 857 316.8644528 857 331.5 C 857 346.1355472 796.1107328 358 721 358 C 645.8892672 358 585 346.1355472 585 331.5 Z" fill-opacity="0.2"/></g><g><path fill="#ffffff" stroke="none" paint-order="stroke fill markers" d=" M 578 324.5 C 578 309.8644528 638.8892672 298 714 298 C 789.1107328 298 850 309.8644528 850 324.5 C 850 339.1355472 789.1107328 351 714 351 C 638.8892672 351 578 339.1355472 578 324.5 Z"/></g><g><path fill="none" stroke="#000000" paint-order="fill stroke markers" d=" M 578 324.5 C 578 309.8644528 638.8892672 298 714 298 C 789.1107328 298 850 309.8644528 850 324.5 C 850 339.1355472 789.1107328 351 714 351 C 638.8892672 351 578 339.1355472 578 324.5 Z" stroke-miterlimit="10" stroke-dasharray=""/></g><g><g><path fill="none" stroke="none"/><text fill="#000000" stroke="none" font-family="Arial" font-size="13px" font-style="normal" font-weight="bold" text-decoration="undefined" x="942" y="630" text-anchor="middle" dominant-baseline="central" transform="matrix(1 0 0 1 -228 -311)">UC12.1 - Inserimento nuova</text><text fill="#000000" stroke="none" font-family="Arial" font-size="13px" font-style="normal" font-weight="bold" text-decoration="undefined" x="942" y="643" text-anchor="middle" dominant-baseline="central" transform="matrix(1 0 0 1 -228 -311)">password</text></g></g><g><path fill="#C0C0C0" stroke="none" paint-order="stroke fill markers" d=" M 265 339.5 C 265 324.8644528 318.725824 313 385 313 C 451.274176 313 505 324.8644528 505 339.5 C 505 354.1355472 451.274176 366 385 366 C 318.725824 366 265 354.1355472 265 339.5 Z" fill-opacity="0.2"/></g><g><path fill="#ffffff" stroke="none" paint-order="stroke fill markers" d=" M 258 332.5 C 258 317.8644528 311.725824 306 378 306 C 444.274176 306 498 317.8644528 498 332.5 C 498 347.1355472 444.274176 359 378 359 C 311.725824 359 258 347.1355472 258 332.5 Z"/></g><g><path fill="none" stroke="#000000" paint-order="fill stroke markers" d=" M 258 332.5 C 258 317.8644528 311.725824 306 378 306 C 444.274176 306 498 317.8644528 498 332.5 C 498 347.1355472 444.274176 359 378 359 C 311.725824 359 258 347.1355472 258 332.5 Z" stroke-miterlimit="10" stroke-dasharray=""/></g><g><g><path fill="none" stroke="none"/><text fill="#000000" stroke="none" font-family="Arial" font-size="13px" font-style="normal" font-weight="bold" text-decoration="undefined" x="606" y="638" text-anchor="middle" dominant-baseline="central" transform="matrix(1 0 0 1 -228 -311)">UC12.2 - Conferma nuova</text><text fill="#000000" stroke="none" font-family="Arial" font-size="13px" font-style="normal" font-weight="bold" text-decoration="undefined" x="606" y="651" text-anchor="middle" dominant-baseline="central" transform="matrix(1 0 0 1 -228 -311)">password</text></g></g><g><path fill="none" stroke="#000000" paint-order="fill stroke markers" d=" M 388 114 L 378 185" stroke-miterlimit="10" stroke-dasharray="3"/></g><g><path fill="none" stroke="#000000" paint-order="fill stroke markers" d=" M 375.2489971846726 174.34955477409227 L 378 185 L 383.58574929611393 175.52374521232343" stroke-miterlimit="10" stroke-dasharray=""/></g><g><rect fill="#ffffff" stroke="none" x="614" y="458" width="53.49169921875" height="13" transform="matrix(1 0 0 1 -228 -311)"/></g><g><g><path fill="none" stroke="none"/><text fill="#000000" stroke="none" font-family="Arial" font-size="13px" font-style="normal" font-weight="normal" text-decoration="undefined" x="640.745849609375" y="464.5" text-anchor="middle" dominant-baseline="central" transform="matrix(1 0 0 1 -228 -311)">«extend»</text></g></g><g><path fill="none" stroke="#000000" paint-order="fill stroke markers" d=" M 649 168 L 483 194" stroke-miterlimit="10" stroke-dasharray="3"/></g><g><path fill="none" stroke="#000000" paint-order="fill stroke markers" d=" M 492.38888711676407 188.26861284603268 L 483 194 L 493.69164847023467 196.58624302588316" stroke-miterlimit="10" stroke-dasharray=""/></g><g><rect fill="#ffffff" stroke="none" x="760" y="470" width="53.49169921875" height="13" transform="matrix(1 0 0 1 -228 -311)"/></g><g><g><path fill="none" stroke="none"/><text fill="#000000" stroke="none" font-family="Arial" font-size="13px" font-style="normal" font-weight="normal" text-decoration="undefined" x="786.745849609375" y="476.5" text-anchor="middle" dominant-baseline="central" transform="matrix(1 0 0 1 -228 -311)">«extend»</text></g></g><g><path fill="none" stroke="#000000" paint-order="fill stroke markers" d=" M 601 217 L 483 214" stroke-miterlimit="10" stroke-dasharray="3"/></g><g><path fill="none" stroke="#000000" paint-order="fill stroke markers" d=" M 493.26637911233047 210.05013165764922 L 483 214 L 493.05240497823115 218.46644759889045" stroke-miterlimit="10" stroke-dasharray=""/></g><g><rect fill="#ffffff" stroke="none" x="752" y="533" width="53.49169921875" height="13" transform="matrix(1 0 0 1 -228 -311)"/></g><g><g><path fill="none" stroke="none"/><text fill="#000000" stroke="none" font-family="Arial" font-size="13px" font-style="normal" font-weight="normal" text-decoration="undefined" x="778.745849609375" y="539.5" text-anchor="middle" dominant-baseline="central" transform="matrix(1 0 0 1 -228 -311)">«extend»</text></g></g><g><path fill="none" stroke="#000000" paint-order="fill stroke markers" d=" M 375 240 L 377 305" stroke-miterlimit="10" stroke-dasharray="3"/></g><g><path fill="none" stroke="#000000" paint-order="fill stroke markers" d=" M 372.47992373093746 294.97159481662925 L 377 305 L 380.8949767283133 294.7126701090177" stroke-miterlimit="10" stroke-dasharray=""/></g><g><rect fill="#ffffff" stroke="none" x="606" y="576" width="55.65625" height="13" transform="matrix(1 0 0 1 -228 -311)"/></g><g><g><path fill="none" stroke="none"/><text fill="#000000" stroke="none" font-family="Arial" font-size="13px" font-style="normal" font-weight="normal" text-decoration="undefined" x="633.828125" y="582.5" text-anchor="middle" dominant-baseline="central" transform="matrix(1 0 0 1 -228 -311)">«include»</text></g></g><g><path fill="none" stroke="#000000" paint-order="fill stroke markers" d=" M 459 240 L 632 297" stroke-miterlimit="10" stroke-dasharray="3"/></g><g><path fill="none" stroke="#000000" paint-order="fill stroke markers" d=" M 621.0304473958587 297.81787264593993 L 632 297 L 623.665031672938 289.82167826112027" stroke-miterlimit="10" stroke-dasharray=""/></g><g><rect fill="#ffffff" stroke="none" x="729" y="579" width="55.65625" height="13" transform="matrix(1 0 0 1 -228 -311)"/></g><g><g><path fill="none" stroke="none"/><text fill="#000000" stroke="none" font-family="Arial" font-size="13px" font-style="normal" font-weight="normal" text-decoration="undefined" x="756.828125" y="585.5" text-anchor="middle" dominant-baseline="central" transform="matrix(1 0 0 1 -228 -311)">«include»</text></g></g><g><path fill="none" stroke="#000000" paint-order="fill stroke markers" d=" M 265 215 L 162 218" stroke-miterlimit="10" stroke-dasharray=""/></g></g></svg>