<svg version="1.1" xmlns="http://www.w3.org/2000/svg" xmlns:xlink="http://www.w3.org/1999/xlink" width="1060" height="402"><defs/><g><g><path fill="#ffffff" stroke="none" paint-order="stroke fill markers" d=" M 76.577724609375 163.85000000000002 C 76.577724609375 158.96227952000004 80.53552697737499 155 85.417724609375 155 C 90.29992224137501 155 94.257724609375 158.96227952000004 94.257724609375 163.85000000000002 C 94.257724609375 168.73772048 90.29992224137501 172.70000000000005 85.417724609375 172.70000000000005 C 80.53552697737499 172.70000000000005 76.577724609375 168.73772048 76.577724609375 163.85000000000002 Z"/></g><g><path fill="none" stroke="#000000" paint-order="fill stroke markers" d=" M 76.577724609375 163.85000000000002 C 76.577724609375 158.96227952000004 80.53552697737499 155 85.417724609375 155 C 90.29992224137501 155 94.257724609375 158.96227952000004 94.257724609375 163.85000000000002 C 94.257724609375 168.73772048 90.29992224137501 172.70000000000005 85.417724609375 172.70000000000005 C 80.53552697737499 172.70000000000005 76.577724609375 168.73772048 76.577724609375 163.85000000000002 Z" stroke-miterlimit="10" stroke-dasharray=""/></g><g><path fill="none" stroke="#000000" paint-order="fill stroke markers" d=" M 85.417724609375 172.70000000000005 L 85.417724609375 190.29999999999995" stroke-miterlimit="10" stroke-dasharray=""/></g><g><path fill="none" stroke="#000000" paint-order="fill stroke markers" d=" M 76.05772460937499 179.29999999999995 L 94.77772460937501 179.29999999999995" stroke-miterlimit="10" stroke-dasharray=""/></g><g><path fill="none" stroke="#000000" paint-order="fill stroke markers" d=" M 85.417724609375 190.29999999999995 L 72.417724609375 208" stroke-miterlimit="10" stroke-dasharray=""/></g><g><path fill="none" stroke="#000000" paint-order="fill stroke markers" d=" M 85.417724609375 190.29999999999995 L 98.417724609375 208" stroke-miterlimit="10" stroke-dasharray=""/></g><g><g><path fill="none" stroke="none"/><text fill="#000000" stroke="none" font-family="Arial" font-size="13px" font-style="normal" font-weight="bold" text-decoration="undefined" x="204.917724609375" y="628.5" text-anchor="middle" dominant-baseline="central" transform="matrix(1 0 0 1 -119 -406)">Utente non autenticato</text></g></g><g><path fill="#C0C0C0" stroke="none" paint-order="stroke fill markers" d=" M 257 211.5 C 257 196.86445279999998 318.56084 185 394.5 185 C 470.43916 185 532 196.86445279999998 532 211.5 C 532 226.13554720000002 470.43916 238 394.5 238 C 318.56084 238 257 226.13554720000002 257 211.5 Z" fill-opacity="0.2"/></g><g><path fill="#ffffff" stroke="none" paint-order="stroke fill markers" d=" M 250 204.5 C 250 189.86445279999998 311.56084 178 387.5 178 C 463.43916 178 525 189.86445279999998 525 204.5 C 525 219.13554720000002 463.43916 231 387.5 231 C 311.56084 231 250 219.13554720000002 250 204.5 Z"/></g><g><path fill="none" stroke="#000000" paint-order="fill stroke markers" d=" M 250 204.5 C 250 189.86445279999998 311.56084 178 387.5 178 C 463.43916 178 525 189.86445279999998 525 204.5 C 525 219.13554720000002 463.43916 231 387.5 231 C 311.56084 231 250 219.13554720000002 250 204.5 Z" stroke-miterlimit="10" stroke-dasharray=""/></g><g><g><path fill="none" stroke="none"/><text fill="#000000" stroke="none" font-family="Arial" font-size="13px" font-style="normal" font-weight="bold" text-decoration="undefined" x="506.5" y="605" text-anchor="middle" dominant-baseline="central" transform="matrix(1 0 0 1 -119 -406)">UC9 - Impostazione</text><text fill="#000000" stroke="none" font-family="Arial" font-size="13px" font-style="normal" font-weight="bold" text-decoration="undefined" x="506.5" y="618" text-anchor="middle" dominant-baseline="central" transform="matrix(1 0 0 1 -119 -406)">password</text></g></g><g><path fill="#C0C0C0" stroke="none" paint-order="stroke fill markers" d=" M 209 51.5 C 209 36.86445279999998 293.17045759999996 25 397 25 C 500.82954240000004 25 585 36.86445279999998 585 51.5 C 585 66.13554720000002 500.82954240000004 78 397 78 C 293.17045759999996 78 209 66.13554720000002 209 51.5 Z" fill-opacity="0.2"/></g><g><path fill="#ffffff" stroke="none" paint-order="stroke fill markers" d=" M 202 44.5 C 202 29.86445279999998 286.17045759999996 18 390 18 C 493.82954240000004 18 578 29.86445279999998 578 44.5 C 578 59.13554720000002 493.82954240000004 71 390 71 C 286.17045759999996 71 202 59.13554720000002 202 44.5 Z"/></g><g><path fill="none" stroke="#000000" paint-order="fill stroke markers" d=" M 202 44.5 C 202 29.86445279999998 286.17045759999996 18 390 18 C 493.82954240000004 18 578 29.86445279999998 578 44.5 C 578 59.13554720000002 493.82954240000004 71 390 71 C 286.17045759999996 71 202 59.13554720000002 202 44.5 Z" stroke-miterlimit="10" stroke-dasharray=""/></g><g><g><path fill="none" stroke="none"/><text fill="#000000" stroke="none" font-family="Arial" font-size="13px" font-style="normal" font-weight="bold" text-decoration="undefined" x="509" y="445" text-anchor="middle" dominant-baseline="central" transform="matrix(1 0 0 1 -119 -406)">UC14 - Password non conforme ai criteri</text><text fill="#000000" stroke="none" font-family="Arial" font-size="13px" font-style="normal" font-weight="bold" text-decoration="undefined" x="509" y="458" text-anchor="middle" dominant-baseline="central" transform="matrix(1 0 0 1 -119 -406)">di sicurezza</text></g></g><g><path fill="#C0C0C0" stroke="none" paint-order="stroke fill markers" d=" M 841 147.5 C 841 132.86445279999998 885.77152 121 941 121 C 996.22848 121 1041 132.86445279999998 1041 147.5 C 1041 162.13554720000002 996.22848 174 941 174 C 885.77152 174 841 162.13554720000002 841 147.5 Z" fill-opacity="0.2"/></g><g><path fill="#ffffff" stroke="none" paint-order="stroke fill markers" d=" M 834 140.5 C 834 125.86445279999998 878.77152 114 934 114 C 989.22848 114 1034 125.86445279999998 1034 140.5 C 1034 155.13554720000002 989.22848 167 934 167 C 878.77152 167 834 155.13554720000002 834 140.5 Z"/></g><g><path fill="none" stroke="#000000" paint-order="fill stroke markers" d=" M 834 140.5 C 834 125.86445279999998 878.77152 114 934 114 C 989.22848 114 1034 125.86445279999998 1034 140.5 C 1034 155.13554720000002 989.22848 167 934 167 C 878.77152 167 834 155.13554720000002 834 140.5 Z" stroke-miterlimit="10" stroke-dasharray=""/></g><g><g><path fill="none" stroke="none"/><text fill="#000000" stroke="none" font-family="Arial" font-size="13px" font-style="normal" font-weight="bold" text-decoration="undefined" x="1053" y="541" text-anchor="middle" dominant-baseline="central" transform="matrix(1 0 0 1 -119 -406)">UC13 - Password</text><text fill="#000000" stroke="none" font-family="Arial" font-size="13px" font-style="normal" font-weight="bold" text-decoration="undefined" x="1053" y="554" text-anchor="middle" dominant-baseline="central" transform="matrix(1 0 0 1 -119 -406)">non coincidenti</text></g></g><g><path fill="#C0C0C0" stroke="none" paint-order="stroke fill markers" d=" M 825 245 C 825 225.11774720000005 876.9349632 209 941 209 C 1005.0650367999999 209 1057 225.11774720000005 1057 245 C 1057 264.88225279999995 1005.0650367999999 281 941 281 C 876.9349632 281 825 264.88225279999995 825 245 Z" fill-opacity="0.2"/></g><g><path fill="#ffffff" stroke="none" paint-order="stroke fill markers" d=" M 818 238 C 818 218.11774720000005 869.9349632 202 934 202 C 998.0650367999999 202 1050 218.11774720000005 1050 238 C 1050 257.88225279999995 998.0650367999999 274 934 274 C 869.9349632 274 818 257.88225279999995 818 238 Z"/></g><g><path fill="none" stroke="#000000" paint-order="fill stroke markers" d=" M 818 238 C 818 218.11774720000005 869.9349632 202 934 202 C 998.0650367999999 202 1050 218.11774720000005 1050 238 C 1050 257.88225279999995 998.0650367999999 274 934 274 C 869.9349632 274 818 257.88225279999995 818 238 Z" stroke-miterlimit="10" stroke-dasharray=""/></g><g><g><path fill="none" stroke="none"/><text fill="#000000" stroke="none" font-family="Arial" font-size="13px" font-style="normal" font-weight="bold" text-decoration="undefined" x="1053" y="632" text-anchor="middle" dominant-baseline="central" transform="matrix(1 0 0 1 -119 -406)">UC15 - Link di</text><text fill="#000000" stroke="none" font-family="Arial" font-size="13px" font-style="normal" font-weight="bold" text-decoration="undefined" x="1053" y="645" text-anchor="middle" dominant-baseline="central" transform="matrix(1 0 0 1 -119 -406)">impostazione password</text><text fill="#000000" stroke="none" font-family="Arial" font-size="13px" font-style="normal" font-weight="bold" text-decoration="undefined" x="1053" y="658" text-anchor="middle" dominant-baseline="central" transform="matrix(1 0 0 1 -119 -406)">scaduto</text></g></g><g><path fill="#C0C0C0" stroke="none" paint-order="stroke fill markers" d=" M 465 339.5 C 465 324.8644528 518.725824 313 585 313 C 651.274176 313 705 324.8644528 705 339.5 C 705 354.1355472 651.274176 366 585 366 C 518.725824 366 465 354.1355472 465 339.5 Z" fill-opacity="0.2"/></g><g><path fill="#ffffff" stroke="none" paint-order="stroke fill markers" d=" M 458 332.5 C 458 317.8644528 511.725824 306 578 306 C 644.274176 306 698 317.8644528 698 332.5 C 698 347.1355472 644.274176 359 578 359 C 511.725824 359 458 347.1355472 458 332.5 Z"/></g><g><path fill="none" stroke="#000000" paint-order="fill stroke markers" d=" M 458 332.5 C 458 317.8644528 511.725824 306 578 306 C 644.274176 306 698 317.8644528 698 332.5 C 698 347.1355472 644.274176 359 578 359 C 511.725824 359 458 347.1355472 458 332.5 Z" stroke-miterlimit="10" stroke-dasharray=""/></g><g><g><path fill="none" stroke="none"/><text fill="#000000" stroke="none" font-family="Arial" font-size="13px" font-style="normal" font-weight="bold" text-decoration="undefined" x="697" y="733" text-anchor="middle" dominant-baseline="central" transform="matrix(1 0 0 1 -119 -406)">UC12.1 - Inserimento</text><text fill="#000000" stroke="none" font-family="Arial" font-size="13px" font-style="normal" font-weight="bold" text-decoration="undefined" x="697" y="746" text-anchor="middle" dominant-baseline="central" transform="matrix(1 0 0 1 -119 -406)">nuova password</text></g></g><g><path fill="#C0C0C0" stroke="none" paint-order="stroke fill markers" d=" M 201 339.5 C 201 324.8644528 256.5166848 313 325 313 C 393.4833152 313 449 324.8644528 449 339.5 C 449 354.1355472 393.4833152 366 325 366 C 256.5166848 366 201 354.1355472 201 339.5 Z" fill-opacity="0.2"/></g><g><path fill="#ffffff" stroke="none" paint-order="stroke fill markers" d=" M 194 332.5 C 194 317.8644528 249.5166848 306 318 306 C 386.4833152 306 442 317.8644528 442 332.5 C 442 347.1355472 386.4833152 359 318 359 C 249.5166848 359 194 347.1355472 194 332.5 Z"/></g><g><path fill="none" stroke="#000000" paint-order="fill stroke markers" d=" M 194 332.5 C 194 317.8644528 249.5166848 306 318 306 C 386.4833152 306 442 317.8644528 442 332.5 C 442 347.1355472 386.4833152 359 318 359 C 249.5166848 359 194 347.1355472 194 332.5 Z" stroke-miterlimit="10" stroke-dasharray=""/></g><g><g><path fill="none" stroke="none"/><text fill="#000000" stroke="none" font-family="Arial" font-size="13px" font-style="normal" font-weight="bold" text-decoration="undefined" x="437" y="733" text-anchor="middle" dominant-baseline="central" transform="matrix(1 0 0 1 -119 -406)">UC12.2 - Conferma nuova</text><text fill="#000000" stroke="none" font-family="Arial" font-size="13px" font-style="normal" font-weight="bold" text-decoration="undefined" x="437" y="746" text-anchor="middle" dominant-baseline="central" transform="matrix(1 0 0 1 -119 -406)">password</text></g></g><g><path fill="none" stroke="#000000" paint-order="fill stroke markers" d=" M 389 72 L 388 177" stroke-miterlimit="10" stroke-dasharray="3"/></g><g><path fill="none" stroke="#000000" paint-order="fill stroke markers" d=" M 383.8874561292775 166.79769717605961 L 388 177 L 392.3061098516119 166.87787483055797" stroke-miterlimit="10" stroke-dasharray=""/></g><g><rect fill="#ffffff" stroke="none" x="510" y="523" width="53.49169921875" height="13" transform="matrix(1 0 0 1 -119 -406)"/></g><g><g><path fill="none" stroke="none"/><text fill="#000000" stroke="none" font-family="Arial" font-size="13px" font-style="normal" font-weight="normal" text-decoration="undefined" x="536.745849609375" y="529.5" text-anchor="middle" dominant-baseline="central" transform="matrix(1 0 0 1 -119 -406)">«extend»</text></g></g><g><path fill="none" stroke="#000000" paint-order="fill stroke markers" d=" M 833 152 L 526 188" stroke-miterlimit="10" stroke-dasharray="3"/></g><g><path fill="none" stroke="#000000" paint-order="fill stroke markers" d=" M 535.6032498296499 182.63552493627492 L 526 188 L 536.5837797710402 190.99726638090794" stroke-miterlimit="10" stroke-dasharray=""/></g><g><rect fill="#ffffff" stroke="none" x="764" y="554" width="53.49169921875" height="13" transform="matrix(1 0 0 1 -119 -406)"/></g><g><g><path fill="none" stroke="none"/><text fill="#000000" stroke="none" font-family="Arial" font-size="13px" font-style="normal" font-weight="normal" text-decoration="undefined" x="790.745849609375" y="560.5" text-anchor="middle" dominant-baseline="central" transform="matrix(1 0 0 1 -119 -406)">«extend»</text></g></g><g><path fill="none" stroke="#000000" paint-order="fill stroke markers" d=" M 817 231 L 526 213" stroke-miterlimit="10" stroke-dasharray="3"/></g><g><path fill="none" stroke="#000000" paint-order="fill stroke markers" d=" M 536.4031744823166 209.4259321927981 L 526 213 L 535.883402805206 217.82890763941987" stroke-miterlimit="10" stroke-dasharray=""/></g><g><rect fill="#ffffff" stroke="none" x="772" y="635" width="53.49169921875" height="13" transform="matrix(1 0 0 1 -119 -406)"/></g><g><g><path fill="none" stroke="none"/><text fill="#000000" stroke="none" font-family="Arial" font-size="13px" font-style="normal" font-weight="normal" text-decoration="undefined" x="798.745849609375" y="641.5" text-anchor="middle" dominant-baseline="central" transform="matrix(1 0 0 1 -119 -406)">«extend»</text></g></g><g><path fill="none" stroke="#000000" paint-order="fill stroke markers" d=" M 372 232 L 333 305" stroke-miterlimit="10" stroke-dasharray="3"/></g><g><path fill="none" stroke="#000000" paint-order="fill stroke markers" d=" M 334.07593568801565 294.0527463537536 L 333 305 L 341.50167870974644 298.0199241324865" stroke-miterlimit="10" stroke-dasharray=""/></g><g><rect fill="#ffffff" stroke="none" x="470" y="681" width="55.65625" height="13" transform="matrix(1 0 0 1 -119 -406)"/></g><g><g><path fill="none" stroke="none"/><text fill="#000000" stroke="none" font-family="Arial" font-size="13px" font-style="normal" font-weight="normal" text-decoration="undefined" x="497.828125" y="687.5" text-anchor="middle" dominant-baseline="central" transform="matrix(1 0 0 1 -119 -406)">«include»</text></g></g><g><path fill="none" stroke="#000000" paint-order="fill stroke markers" d=" M 429 232 L 538 305" stroke-miterlimit="10" stroke-dasharray="3"/></g><g><path fill="none" stroke="#000000" paint-order="fill stroke markers" d=" M 527.2136602971159 302.84248387862647 L 538 305 L 531.8985003318516 295.8473117719665" stroke-miterlimit="10" stroke-dasharray=""/></g><g><rect fill="#ffffff" stroke="none" x="557" y="670" width="55.65625" height="13" transform="matrix(1 0 0 1 -119 -406)"/></g><g><g><path fill="none" stroke="none"/><text fill="#000000" stroke="none" font-family="Arial" font-size="13px" font-style="normal" font-weight="normal" text-decoration="undefined" x="584.828125" y="676.5" text-anchor="middle" dominant-baseline="central" transform="matrix(1 0 0 1 -119 -406)">«include»</text></g></g><g><path fill="none" stroke="#000000" paint-order="fill stroke markers" d=" M 249 199 L 162 197" stroke-miterlimit="10" stroke-dasharray=""/></g><g><path fill="#ffffff" stroke="none" paint-order="stroke fill markers" d=" M 154 82 L 279 82 L 289 92 L 289 186 L 154 186 L 154 82"/></g><g><path fill="none" stroke="#000000" paint-order="fill stroke markers" d=" M 154 82 L 279 82 L 289 92 L 289 186 L 154 186 L 154 82 L 154 82" stroke-miterlimit="10" stroke-dasharray=""/></g><g><path fill="none" stroke="#000000" paint-order="fill stroke markers" d=" M 279 82 L 279 92 L 289 92 L 279 82" stroke-miterlimit="10" stroke-dasharray=""/></g><g><g><path fill="none" stroke="none"/><text fill="#000000" stroke="none" font-family="Arial" font-size="13px" font-style="normal" font-weight="normal" text-decoration="undefined" x="341" y="493" text-anchor="middle" dominant-baseline="text-before-edge" transform="matrix(1 0 0 1 -119 -406)">Condizione:</text></g></g><g><g><path fill="none" stroke="none"/><text fill="#000000" stroke="none" font-family="Arial" font-size="13px" font-style="normal" font-weight="normal" text-decoration="undefined" x="341" y="508" text-anchor="middle" dominant-baseline="text-before-edge" transform="matrix(1 0 0 1 -119 -406)">L'utente ha inserito</text><text fill="#000000" stroke="none" font-family="Arial" font-size="13px" font-style="normal" font-weight="normal" text-decoration="undefined" x="341" y="521" text-anchor="middle" dominant-baseline="text-before-edge" transform="matrix(1 0 0 1 -119 -406)">una nuova password</text><text fill="#000000" stroke="none" font-family="Arial" font-size="13px" font-style="normal" font-weight="normal" text-decoration="undefined" x="341" y="534" text-anchor="middle" dominant-baseline="text-before-edge" transform="matrix(1 0 0 1 -119 -406)">che non corrisponde</text><text fill="#000000" stroke="none" font-family="Arial" font-size="13px" font-style="normal" font-weight="normal" text-decoration="undefined" x="341" y="547" text-anchor="middle" dominant-baseline="text-before-edge" transform="matrix(1 0 0 1 -119 -406)">ai criteri di sicurezza</text><text fill="#000000" stroke="none" font-family="Arial" font-size="13px" font-style="normal" font-weight="normal" text-decoration="undefined" x="341" y="560" text-anchor="middle" dominant-baseline="text-before-edge" transform="matrix(1 0 0 1 -119 -406)">stabiliti</text></g></g><g><path fill="none" stroke="#000000" paint-order="fill stroke markers" d=" M 291 130 L 388 124" stroke-miterlimit="10" stroke-dasharray="3"/></g><g><path fill="#ffffff" stroke="none" paint-order="stroke fill markers" d=" M 626 10 L 751 10 L 761 20 L 761 127 L 626 127 L 626 10"/></g><g><path fill="none" stroke="#000000" paint-order="fill stroke markers" d=" M 626 10 L 751 10 L 761 20 L 761 127 L 626 127 L 626 10 L 626 10" stroke-miterlimit="10" stroke-dasharray=""/></g><g><path fill="none" stroke="#000000" paint-order="fill stroke markers" d=" M 751 10 L 751 20 L 761 20 L 751 10" stroke-miterlimit="10" stroke-dasharray=""/></g><g><g><path fill="none" stroke="none"/><text fill="#000000" stroke="none" font-family="Arial" font-size="13px" font-style="normal" font-weight="normal" text-decoration="undefined" x="813" y="421" text-anchor="middle" dominant-baseline="text-before-edge" transform="matrix(1 0 0 1 -119 -406)">Condizione:</text></g></g><g><g><path fill="none" stroke="none"/><text fill="#000000" stroke="none" font-family="Arial" font-size="13px" font-style="normal" font-weight="normal" text-decoration="undefined" x="813" y="436" text-anchor="middle" dominant-baseline="text-before-edge" transform="matrix(1 0 0 1 -119 -406)">L'utente ha inserito</text><text fill="#000000" stroke="none" font-family="Arial" font-size="13px" font-style="normal" font-weight="normal" text-decoration="undefined" x="813" y="449" text-anchor="middle" dominant-baseline="text-before-edge" transform="matrix(1 0 0 1 -119 -406)">una nuova password</text><text fill="#000000" stroke="none" font-family="Arial" font-size="13px" font-style="normal" font-weight="normal" text-decoration="undefined" x="813" y="462" text-anchor="middle" dominant-baseline="text-before-edge" transform="matrix(1 0 0 1 -119 -406)">che non corrisponde</text><text fill="#000000" stroke="none" font-family="Arial" font-size="13px" font-style="normal" font-weight="normal" text-decoration="undefined" x="813" y="475" text-anchor="middle" dominant-baseline="text-before-edge" transform="matrix(1 0 0 1 -119 -406)">al campo in cui deve</text><text fill="#000000" stroke="none" font-family="Arial" font-size="13px" font-style="normal" font-weight="normal" text-decoration="undefined" x="813" y="488" text-anchor="middle" dominant-baseline="text-before-edge" transform="matrix(1 0 0 1 -119 -406)">confermare la stessa</text></g></g><g><path fill="none" stroke="#000000" paint-order="fill stroke markers" d=" M 685 129 L 679 170" stroke-miterlimit="10" stroke-dasharray="3"/></g><g><path fill="#ffffff" stroke="none" paint-order="stroke fill markers" d=" M 730 274 L 855 274 L 865 284 L 865 391 L 730 391 L 730 274"/></g><g><path fill="none" stroke="#000000" paint-order="fill stroke markers" d=" M 730 274 L 855 274 L 865 284 L 865 391 L 730 391 L 730 274 L 730 274" stroke-miterlimit="10" stroke-dasharray=""/></g><g><path fill="none" stroke="#000000" paint-order="fill stroke markers" d=" M 855 274 L 855 284 L 865 284 L 855 274" stroke-miterlimit="10" stroke-dasharray=""/></g><g><g><path fill="none" stroke="none"/><text fill="#000000" stroke="none" font-family="Arial" font-size="13px" font-style="normal" font-weight="normal" text-decoration="undefined" x="917" y="705" text-anchor="middle" dominant-baseline="text-before-edge" transform="matrix(1 0 0 1 -119 -406)">Condizione:</text></g></g><g><g><path fill="none" stroke="none"/><text fill="#000000" stroke="none" font-family="Arial" font-size="13px" font-style="normal" font-weight="normal" text-decoration="undefined" x="917" y="720" text-anchor="middle" dominant-baseline="text-before-edge" transform="matrix(1 0 0 1 -119 -406)">L'utente è acceduto</text><text fill="#000000" stroke="none" font-family="Arial" font-size="13px" font-style="normal" font-weight="normal" text-decoration="undefined" x="917" y="733" text-anchor="middle" dominant-baseline="text-before-edge" transform="matrix(1 0 0 1 -119 -406)">tramite un link di</text><text fill="#000000" stroke="none" font-family="Arial" font-size="13px" font-style="normal" font-weight="normal" text-decoration="undefined" x="917" y="746" text-anchor="middle" dominant-baseline="text-before-edge" transform="matrix(1 0 0 1 -119 -406)">impostazione</text><text fill="#000000" stroke="none" font-family="Arial" font-size="13px" font-style="normal" font-weight="normal" text-decoration="undefined" x="917" y="759" text-anchor="middle" dominant-baseline="text-before-edge" transform="matrix(1 0 0 1 -119 -406)">password scaduto</text></g></g><g><path fill="none" stroke="#000000" paint-order="fill stroke markers" d=" M 729 273 L 671 222" stroke-miterlimit="10" stroke-dasharray="3"/></g></g></svg>