<svg version="1.1" xmlns="http://www.w3.org/2000/svg" xmlns:xlink="http://www.w3.org/1999/xlink" width="805" height="332"><defs/><g><g><rect fill="#C0C0C0" stroke="none" x="351" y="407" width="616" height="312" transform="matrix(1 0 0 1 -166 -390)" fill-opacity="0.2"/></g><g><rect fill="#ffffff" stroke="none" x="344" y="400" width="616" height="312" transform="matrix(1 0 0 1 -166 -390)"/></g><g><path fill="none" stroke="#000000" paint-order="fill stroke markers" d=" M 178 10 L 794 10 L 794 322 L 178 322 L 178 10 Z Z" stroke-miterlimit="10" stroke-dasharray=""/></g><g><g><path fill="none" stroke="none"/><text fill="#000000" stroke="none" font-family="Arial" font-size="13px" font-style="normal" font-weight="bold" text-decoration="undefined" x="652.5" y="413.5" text-anchor="middle" dominant-baseline="central" transform="matrix(1 0 0 1 -166 -390)">Sistema cloud</text></g></g><g><path fill="#ffffff" stroke="none" paint-order="stroke fill markers" d=" M 76.577724609375 180.85000000000002 C 76.577724609375 175.96227952000004 80.53552697737501 172 85.417724609375 172 C 90.29992224137499 172 94.25772460937497 175.96227952000004 94.25772460937497 180.85000000000002 C 94.25772460937497 185.73772048 90.29992224137499 189.70000000000005 85.417724609375 189.70000000000005 C 80.53552697737501 189.70000000000005 76.577724609375 185.73772048 76.577724609375 180.85000000000002 Z"/></g><g><path fill="none" stroke="#000000" paint-order="fill stroke markers" d=" M 76.577724609375 180.85000000000002 C 76.577724609375 175.96227952000004 80.53552697737501 172 85.417724609375 172 C 90.29992224137499 172 94.25772460937497 175.96227952000004 94.25772460937497 180.85000000000002 C 94.25772460937497 185.73772048 90.29992224137499 189.70000000000005 85.417724609375 189.70000000000005 C 80.53552697737501 189.70000000000005 76.577724609375 185.73772048 76.577724609375 180.85000000000002 Z" stroke-miterlimit="10" stroke-dasharray=""/></g><g><path fill="none" stroke="#000000" paint-order="fill stroke markers" d=" M 85.417724609375 189.70000000000005 L 85.417724609375 207.29999999999995" stroke-miterlimit="10" stroke-dasharray=""/></g><g><path fill="none" stroke="#000000" paint-order="fill stroke markers" d=" M 76.05772460937499 196.29999999999995 L 94.77772460937501 196.29999999999995" stroke-miterlimit="10" stroke-dasharray=""/></g><g><path fill="none" stroke="#000000" paint-order="fill stroke markers" d=" M 85.417724609375 207.29999999999995 L 72.417724609375 225" stroke-miterlimit="10" stroke-dasharray=""/></g><g><path fill="none" stroke="#000000" paint-order="fill stroke markers" d=" M 85.417724609375 207.29999999999995 L 98.417724609375 225" stroke-miterlimit="10" stroke-dasharray=""/></g><g><g><path fill="none" stroke="none"/><text fill="#000000" stroke="none" font-family="Arial" font-size="13px" font-style="normal" font-weight="bold" text-decoration="undefined" x="251.917724609375" y="629.5" text-anchor="middle" dominant-baseline="central" transform="matrix(1 0 0 1 -166 -390)">Utente non autenticato</text></g></g><g><path fill="#C0C0C0" stroke="none" paint-order="stroke fill markers" d=" M 258 228.5 C 258 213.86445279999998 311.5019664 202 377.5 202 C 443.4980336 202 497 213.86445279999998 497 228.5 C 497 243.13554720000002 443.4980336 255 377.5 255 C 311.5019664 255 258 243.13554720000002 258 228.5 Z" fill-opacity="0.2"/></g><g><path fill="#ffffff" stroke="none" paint-order="stroke fill markers" d=" M 251 221.5 C 251 206.86445279999998 304.5019664 195 370.5 195 C 436.4980336 195 490 206.86445279999998 490 221.5 C 490 236.13554720000002 436.4980336 248 370.5 248 C 304.5019664 248 251 236.13554720000002 251 221.5 Z"/></g><g><path fill="none" stroke="#000000" paint-order="fill stroke markers" d=" M 251 221.5 C 251 206.86445279999998 304.5019664 195 370.5 195 C 436.4980336 195 490 206.86445279999998 490 221.5 C 490 236.13554720000002 436.4980336 248 370.5 248 C 304.5019664 248 251 236.13554720000002 251 221.5 Z" stroke-miterlimit="10" stroke-dasharray=""/></g><g><g><path fill="none" stroke="none"/><text fill="#000000" stroke="none" font-family="Arial" font-size="13px" font-style="normal" font-weight="bold" text-decoration="undefined" x="536.5" y="606" text-anchor="middle" dominant-baseline="central" transform="matrix(1 0 0 1 -166 -390)">UC9 - Password</text><text fill="#000000" stroke="none" font-family="Arial" font-size="13px" font-style="normal" font-weight="bold" text-decoration="undefined" x="536.5" y="619" text-anchor="middle" dominant-baseline="central" transform="matrix(1 0 0 1 -166 -390)">dimenticata</text></g></g><g><path fill="#C0C0C0" stroke="none" paint-order="stroke fill markers" d=" M 234 100.5 C 234 85.86445279999998 296.4562704 74 373.5 74 C 450.5437296 74 513 85.86445279999998 513 100.5 C 513 115.13554720000002 450.5437296 127 373.5 127 C 296.4562704 127 234 115.13554720000002 234 100.5 Z" fill-opacity="0.2"/></g><g><path fill="#ffffff" stroke="none" paint-order="stroke fill markers" d=" M 227 93.5 C 227 78.86445279999998 289.4562704 67 366.5 67 C 443.5437296 67 506 78.86445279999998 506 93.5 C 506 108.13554720000002 443.5437296 120 366.5 120 C 289.4562704 120 227 108.13554720000002 227 93.5 Z"/></g><g><path fill="none" stroke="#000000" paint-order="fill stroke markers" d=" M 227 93.5 C 227 78.86445279999998 289.4562704 67 366.5 67 C 443.5437296 67 506 78.86445279999998 506 93.5 C 506 108.13554720000002 443.5437296 120 366.5 120 C 289.4562704 120 227 108.13554720000002 227 93.5 Z" stroke-miterlimit="10" stroke-dasharray=""/></g><g><g><path fill="none" stroke="none"/><text fill="#000000" stroke="none" font-family="Arial" font-size="13px" font-style="normal" font-weight="bold" text-decoration="undefined" x="532.5" y="478" text-anchor="middle" dominant-baseline="central" transform="matrix(1 0 0 1 -166 -390)">UC10 - Indirizzo email non</text><text fill="#000000" stroke="none" font-family="Arial" font-size="13px" font-style="normal" font-weight="bold" text-decoration="undefined" x="532.5" y="491" text-anchor="middle" dominant-baseline="central" transform="matrix(1 0 0 1 -166 -390)">associato a nessun account</text></g></g><g><path fill="#C0C0C0" stroke="none" paint-order="stroke fill markers" d=" M 602 246 C 602 226.11774720000005 641.17508 210 689.5 210 C 737.82492 210 777 226.11774720000005 777 246 C 777 265.88225279999995 737.82492 282 689.5 282 C 641.17508 282 602 265.88225279999995 602 246 Z" fill-opacity="0.2"/></g><g><path fill="#ffffff" stroke="none" paint-order="stroke fill markers" d=" M 595 239 C 595 219.11774720000005 634.17508 203 682.5 203 C 730.82492 203 770 219.11774720000005 770 239 C 770 258.88225279999995 730.82492 275 682.5 275 C 634.17508 275 595 258.88225279999995 595 239 Z"/></g><g><path fill="none" stroke="#000000" paint-order="fill stroke markers" d=" M 595 239 C 595 219.11774720000005 634.17508 203 682.5 203 C 730.82492 203 770 219.11774720000005 770 239 C 770 258.88225279999995 730.82492 275 682.5 275 C 634.17508 275 595 258.88225279999995 595 239 Z" stroke-miterlimit="10" stroke-dasharray=""/></g><g><g><path fill="none" stroke="none"/><text fill="#000000" stroke="none" font-family="Arial" font-size="13px" font-style="normal" font-weight="bold" text-decoration="undefined" x="848.5" y="617" text-anchor="middle" dominant-baseline="central" transform="matrix(1 0 0 1 -166 -390)">UC9.1 -</text><text fill="#000000" stroke="none" font-family="Arial" font-size="13px" font-style="normal" font-weight="bold" text-decoration="undefined" x="848.5" y="630" text-anchor="middle" dominant-baseline="central" transform="matrix(1 0 0 1 -166 -390)">Inserimento</text><text fill="#000000" stroke="none" font-family="Arial" font-size="13px" font-style="normal" font-weight="bold" text-decoration="undefined" x="848.5" y="643" text-anchor="middle" dominant-baseline="central" transform="matrix(1 0 0 1 -166 -390)">indirizzo email</text></g></g><g><path fill="none" stroke="#000000" paint-order="fill stroke markers" d=" M 367 121 L 369 194" stroke-miterlimit="10" stroke-dasharray="3"/></g><g><path fill="none" stroke="#000000" paint-order="fill stroke markers" d=" M 364.51373619694095 183.9564230928736 L 369 194 L 372.9296137810629 183.72585110426758" stroke-miterlimit="10" stroke-dasharray=""/></g><g><rect fill="#ffffff" stroke="none" x="600" y="540" width="53.49169921875" height="13" transform="matrix(1 0 0 1 -166 -390)"/></g><g><g><path fill="none" stroke="none"/><text fill="#000000" stroke="none" font-family="Arial" font-size="13px" font-style="normal" font-weight="normal" text-decoration="undefined" x="626.745849609375" y="546.5" text-anchor="middle" dominant-baseline="central" transform="matrix(1 0 0 1 -166 -390)">«extend»</text></g></g><g><path fill="none" stroke="#000000" paint-order="fill stroke markers" d=" M 491 228 L 594 234" stroke-miterlimit="10" stroke-dasharray="3"/></g><g><path fill="none" stroke="#000000" paint-order="fill stroke markers" d=" M 583.6097244820558 237.61139511286274 L 594 234 L 584.0993237490159 229.2066076967143" stroke-miterlimit="10" stroke-dasharray=""/></g><g><rect fill="#ffffff" stroke="none" x="673" y="600" width="55.65625" height="13" transform="matrix(1 0 0 1 -166 -390)"/></g><g><g><path fill="none" stroke="none"/><text fill="#000000" stroke="none" font-family="Arial" font-size="13px" font-style="normal" font-weight="normal" text-decoration="undefined" x="700.828125" y="606.5" text-anchor="middle" dominant-baseline="central" transform="matrix(1 0 0 1 -166 -390)">«include»</text></g></g><g><path fill="none" stroke="#000000" paint-order="fill stroke markers" d=" M 250 217 L 162 214" stroke-miterlimit="10" stroke-dasharray=""/></g><g><path fill="#ffffff" stroke="none" paint-order="stroke fill markers" d=" M 587 67 L 712 67 L 722 77 L 722 184 L 587 184 L 587 67"/></g><g><path fill="none" stroke="#000000" paint-order="fill stroke markers" d=" M 587 67 L 712 67 L 722 77 L 722 184 L 587 184 L 587 67 L 587 67" stroke-miterlimit="10" stroke-dasharray=""/></g><g><path fill="none" stroke="#000000" paint-order="fill stroke markers" d=" M 712 67 L 712 77 L 722 77 L 712 67" stroke-miterlimit="10" stroke-dasharray=""/></g><g><g><path fill="none" stroke="none"/><text fill="#000000" stroke="none" font-family="Arial" font-size="13px" font-style="normal" font-weight="normal" text-decoration="undefined" x="821" y="462" text-anchor="middle" dominant-baseline="text-before-edge" transform="matrix(1 0 0 1 -166 -390)">Condizione:</text></g></g><g><g><path fill="none" stroke="none"/><text fill="#000000" stroke="none" font-family="Arial" font-size="13px" font-style="normal" font-weight="normal" text-decoration="undefined" x="821" y="477" text-anchor="middle" dominant-baseline="text-before-edge" transform="matrix(1 0 0 1 -166 -390)">L'utente ha inserito</text><text fill="#000000" stroke="none" font-family="Arial" font-size="13px" font-style="normal" font-weight="normal" text-decoration="undefined" x="821" y="490" text-anchor="middle" dominant-baseline="text-before-edge" transform="matrix(1 0 0 1 -166 -390)">un'email, per la</text><text fill="#000000" stroke="none" font-family="Arial" font-size="13px" font-style="normal" font-weight="normal" text-decoration="undefined" x="821" y="503" text-anchor="middle" dominant-baseline="text-before-edge" transform="matrix(1 0 0 1 -166 -390)">reimpostazione</text><text fill="#000000" stroke="none" font-family="Arial" font-size="13px" font-style="normal" font-weight="normal" text-decoration="undefined" x="821" y="516" text-anchor="middle" dominant-baseline="text-before-edge" transform="matrix(1 0 0 1 -166 -390)">password, che non è</text><text fill="#000000" stroke="none" font-family="Arial" font-size="13px" font-style="normal" font-weight="normal" text-decoration="undefined" x="821" y="529" text-anchor="middle" dominant-baseline="text-before-edge" transform="matrix(1 0 0 1 -166 -390)">associato a nessun</text><text fill="#000000" stroke="none" font-family="Arial" font-size="13px" font-style="normal" font-weight="normal" text-decoration="undefined" x="821" y="542" text-anchor="middle" dominant-baseline="text-before-edge" transform="matrix(1 0 0 1 -166 -390)">account nel Sistema</text></g></g><g><path fill="none" stroke="#000000" paint-order="fill stroke markers" d=" M 586 133 L 368 157" stroke-miterlimit="10" stroke-dasharray="3"/></g></g></svg>