<svg version="1.1" xmlns="http://www.w3.org/2000/svg" xmlns:xlink="http://www.w3.org/1999/xlink" width="748.47265625" height="284"><defs/><g><g><rect fill="#C0C0C0" stroke="none" x="155" y="28" width="512" height="264" transform="matrix(1 0 0 1 -18 -11)" fill-opacity="0.2"/></g><g><rect fill="#ffffff" stroke="none" x="148" y="21" width="512" height="264" transform="matrix(1 0 0 1 -18 -11)"/></g><g><path fill="none" stroke="#000000" paint-order="fill stroke markers" d=" M 130 10 L 642 10 L 642 274 L 130 274 L 130 10 Z Z" stroke-miterlimit="10" stroke-dasharray=""/></g><g><g><path fill="none" stroke="none"/><text fill="#000000" stroke="none" font-family="Arial" font-size="13px" font-style="normal" font-weight="bold" text-decoration="undefined" x="404.5" y="34.5" text-anchor="middle" dominant-baseline="central" transform="matrix(1 0 0 1 -18 -11)">Sistema cloud</text></g></g><g><path fill="#C0C0C0" stroke="none" paint-order="stroke fill markers" d=" M 305 91.5 C 305 76.8644528 358.725824 65 425 65 C 491.274176 65 545 76.8644528 545 91.5 C 545 106.1355472 491.274176 118 425 118 C 358.725824 118 305 106.1355472 305 91.5 Z" fill-opacity="0.2"/></g><g><path fill="#ffffff" stroke="none" paint-order="stroke fill markers" d=" M 298 84.5 C 298 69.8644528 351.725824 58 418 58 C 484.274176 58 538 69.8644528 538 84.5 C 538 99.1355472 484.274176 111 418 111 C 351.725824 111 298 99.1355472 298 84.5 Z"/></g><g><path fill="none" stroke="#000000" paint-order="fill stroke markers" d=" M 298 84.5 C 298 69.8644528 351.725824 58 418 58 C 484.274176 58 538 69.8644528 538 84.5 C 538 99.1355472 484.274176 111 418 111 C 351.725824 111 298 99.1355472 298 84.5 Z" stroke-miterlimit="10" stroke-dasharray=""/></g><g><g><path fill="none" stroke="none"/><text fill="#000000" stroke="none" font-family="Arial" font-size="13px" font-style="normal" font-weight="bold" text-decoration="undefined" x="436" y="90" text-anchor="middle" dominant-baseline="central" transform="matrix(1 0 0 1 -18 -11)">UC90 - Sospensione</text><text fill="#000000" stroke="none" font-family="Arial" font-size="13px" font-style="normal" font-weight="bold" text-decoration="undefined" x="436" y="103" text-anchor="middle" dominant-baseline="central" transform="matrix(1 0 0 1 -18 -11)">sensore</text></g></g><g><path fill="#ffffff" stroke="none" paint-order="stroke fill markers" d=" M 47.930751953125 57.849999999999994 C 47.930751953125 52.962279519999996 51.888554321125 49 56.770751953125 49 C 61.652949585125 49 65.610751953125 52.962279519999996 65.610751953125 57.849999999999994 C 65.610751953125 62.73772047999999 61.652949585125 66.7 56.770751953125 66.7 C 51.888554321125 66.7 47.930751953125 62.73772047999999 47.930751953125 57.849999999999994 Z"/></g><g><path fill="none" stroke="#000000" paint-order="fill stroke markers" d=" M 47.930751953125 57.849999999999994 C 47.930751953125 52.962279519999996 51.888554321125 49 56.770751953125 49 C 61.652949585125 49 65.610751953125 52.962279519999996 65.610751953125 57.849999999999994 C 65.610751953125 62.73772047999999 61.652949585125 66.7 56.770751953125 66.7 C 51.888554321125 66.7 47.930751953125 62.73772047999999 47.930751953125 57.849999999999994 Z" stroke-miterlimit="10" stroke-dasharray=""/></g><g><path fill="none" stroke="#000000" paint-order="fill stroke markers" d=" M 56.770751953125 66.7 L 56.770751953125 84.3" stroke-miterlimit="10" stroke-dasharray=""/></g><g><path fill="none" stroke="#000000" paint-order="fill stroke markers" d=" M 47.410751953125 73.3 L 66.130751953125 73.3" stroke-miterlimit="10" stroke-dasharray=""/></g><g><path fill="none" stroke="#000000" paint-order="fill stroke markers" d=" M 56.770751953125 84.3 L 43.770751953125 102" stroke-miterlimit="10" stroke-dasharray=""/></g><g><path fill="none" stroke="#000000" paint-order="fill stroke markers" d=" M 56.770751953125 84.3 L 69.770751953125 102" stroke-miterlimit="10" stroke-dasharray=""/></g><g><g><path fill="none" stroke="none"/><text fill="#000000" stroke="none" font-family="Arial" font-size="13px" font-style="normal" font-weight="bold" text-decoration="undefined" x="75.270751953125" y="127.5" text-anchor="middle" dominant-baseline="central" transform="matrix(1 0 0 1 -18 -11)">Tenant admin</text></g></g><g><path fill="#ffffff" stroke="none" paint-order="stroke fill markers" d=" M 696.896328125 51.85 C 696.896328125 46.96227952 700.854130493 43 705.736328125 43 C 710.618525757 43 714.576328125 46.96227952 714.576328125 51.85 C 714.576328125 56.73772048000001 710.618525757 60.7 705.736328125 60.7 C 700.854130493 60.7 696.896328125 56.73772048000001 696.896328125 51.85 Z"/></g><g><path fill="none" stroke="#000000" paint-order="fill stroke markers" d=" M 696.896328125 51.85 C 696.896328125 46.96227952 700.854130493 43 705.736328125 43 C 710.618525757 43 714.576328125 46.96227952 714.576328125 51.85 C 714.576328125 56.73772048000001 710.618525757 60.7 705.736328125 60.7 C 700.854130493 60.7 696.896328125 56.73772048000001 696.896328125 51.85 Z" stroke-miterlimit="10" stroke-dasharray=""/></g><g><path fill="none" stroke="#000000" paint-order="fill stroke markers" d=" M 705.736328125 60.7 L 705.736328125 78.3" stroke-miterlimit="10" stroke-dasharray=""/></g><g><path fill="none" stroke="#000000" paint-order="fill stroke markers" d=" M 696.376328125 67.3 L 715.096328125 67.3" stroke-miterlimit="10" stroke-dasharray=""/></g><g><path fill="none" stroke="#000000" paint-order="fill stroke markers" d=" M 705.736328125 78.3 L 692.736328125 96" stroke-miterlimit="10" stroke-dasharray=""/></g><g><path fill="none" stroke="#000000" paint-order="fill stroke markers" d=" M 705.736328125 78.3 L 718.736328125 96" stroke-miterlimit="10" stroke-dasharray=""/></g><g><g><path fill="none" stroke="none"/><text fill="#000000" stroke="none" font-family="Arial" font-size="13px" font-style="normal" font-weight="bold" text-decoration="undefined" x="724.236328125" y="121.5" text-anchor="middle" dominant-baseline="central" transform="matrix(1 0 0 1 -18 -11)">Gateway</text></g></g><g><path fill="none" stroke="#000000" paint-order="fill stroke markers" d=" M 105 87 L 297 85" stroke-miterlimit="10" stroke-dasharray=""/></g><g><path fill="none" stroke="#000000" paint-order="fill stroke markers" d=" M 673 82 L 539 83" stroke-miterlimit="10" stroke-dasharray=""/></g><g><path fill="#C0C0C0" stroke="none" paint-order="stroke fill markers" d=" M 261 224 C 261 204.1177472 295.0263552 188 337 188 C 378.9736448 188 413 204.1177472 413 224 C 413 243.8822528 378.9736448 260 337 260 C 295.0263552 260 261 243.8822528 261 224 Z" fill-opacity="0.2"/></g><g><path fill="#ffffff" stroke="none" paint-order="stroke fill markers" d=" M 254 217 C 254 197.1177472 288.0263552 181 330 181 C 371.9736448 181 406 197.1177472 406 217 C 406 236.8822528 371.9736448 253 330 253 C 288.0263552 253 254 236.8822528 254 217 Z"/></g><g><path fill="none" stroke="#000000" paint-order="fill stroke markers" d=" M 254 217 C 254 197.1177472 288.0263552 181 330 181 C 371.9736448 181 406 197.1177472 406 217 C 406 236.8822528 371.9736448 253 330 253 C 288.0263552 253 254 236.8822528 254 217 Z" stroke-miterlimit="10" stroke-dasharray=""/></g><g><g><path fill="none" stroke="none"/><text fill="#000000" stroke="none" font-family="Arial" font-size="13px" font-style="normal" font-weight="bold" text-decoration="undefined" x="348" y="216" text-anchor="middle" dominant-baseline="central" transform="matrix(1 0 0 1 -18 -11)">UC32 -</text><text fill="#000000" stroke="none" font-family="Arial" font-size="13px" font-style="normal" font-weight="bold" text-decoration="undefined" x="348" y="229" text-anchor="middle" dominant-baseline="central" transform="matrix(1 0 0 1 -18 -11)">Gateway non</text><text fill="#000000" stroke="none" font-family="Arial" font-size="13px" font-style="normal" font-weight="bold" text-decoration="undefined" x="348" y="242" text-anchor="middle" dominant-baseline="central" transform="matrix(1 0 0 1 -18 -11)">raggiungibile</text></g></g><g><path fill="none" stroke="#000000" paint-order="fill stroke markers" d=" M 354 180 L 399 112" stroke-miterlimit="10" stroke-dasharray="3"/></g><g><path fill="none" stroke="#000000" paint-order="fill stroke markers" d=" M 396.902008549312 122.79807537817919 L 399 112 L 389.8811036946731 118.15188834202112" stroke-miterlimit="10" stroke-dasharray=""/></g><g><rect fill="#ffffff" stroke="none" x="391" y="163" width="53.49169921875" height="13" transform="matrix(1 0 0 1 -18 -11)"/></g><g><g><path fill="none" stroke="none"/><text fill="#000000" stroke="none" font-family="Arial" font-size="13px" font-style="normal" font-weight="normal" text-decoration="undefined" x="417.745849609375" y="169.5" text-anchor="middle" dominant-baseline="central" transform="matrix(1 0 0 1 -18 -11)">«extend»</text></g></g><g><path fill="#ffffff" stroke="none" paint-order="stroke fill markers" d=" M 150 125 L 259 125 L 269 135 L 269 175 L 150 175 L 150 125"/></g><g><path fill="none" stroke="#000000" paint-order="fill stroke markers" d=" M 150 125 L 259 125 L 269 135 L 269 175 L 150 175 L 150 125 L 150 125" stroke-miterlimit="10" stroke-dasharray=""/></g><g><path fill="none" stroke="#000000" paint-order="fill stroke markers" d=" M 259 125 L 259 135 L 269 135 L 259 125" stroke-miterlimit="10" stroke-dasharray=""/></g><g><g><path fill="none" stroke="none"/><text fill="#000000" stroke="none" font-family="Arial" font-size="13px" font-style="normal" font-weight="normal" text-decoration="undefined" x="173" y="141" text-anchor="start" dominant-baseline="text-before-edge" transform="matrix(1 0 0 1 -18 -11)">Condizione: il</text><text fill="#000000" stroke="none" font-family="Arial" font-size="13px" font-style="normal" font-weight="normal" text-decoration="undefined" x="173" y="154" text-anchor="start" dominant-baseline="text-before-edge" transform="matrix(1 0 0 1 -18 -11)">gateway non è</text><text fill="#000000" stroke="none" font-family="Arial" font-size="13px" font-style="normal" font-weight="normal" text-decoration="undefined" x="173" y="167" text-anchor="start" dominant-baseline="text-before-edge" transform="matrix(1 0 0 1 -18 -11)">raggiungibile</text></g></g><g><path fill="none" stroke="#000000" paint-order="fill stroke markers" d=" M 271 149 L 376 146" stroke-miterlimit="10" stroke-dasharray="3"/></g><g><path fill="#C0C0C0" stroke="none" paint-order="stroke fill markers" d=" M 437 225 C 437 200.147184 483.5623808 180 541 180 C 598.4376192 180 645 200.147184 645 225 C 645 249.85281600000002 598.4376192 270 541 270 C 483.5623808 270 437 249.85281600000002 437 225 Z" fill-opacity="0.2"/></g><g><path fill="#ffffff" stroke="none" paint-order="stroke fill markers" d=" M 430 218 C 430 193.147184 476.5623808 173 534 173 C 591.4376192 173 638 193.147184 638 218 C 638 242.852816 591.4376192 263 534 263 C 476.5623808 263 430 242.852816 430 218 Z"/></g><g><path fill="none" stroke="#000000" paint-order="fill stroke markers" d=" M 430 218 C 430 193.147184 476.5623808 173 534 173 C 591.4376192 173 638 193.147184 638 218 C 638 242.852816 591.4376192 263 534 263 C 476.5623808 263 430 242.852816 430 218 Z" stroke-miterlimit="10" stroke-dasharray=""/></g><g><g><path fill="none" stroke="none"/><text fill="#000000" stroke="none" font-family="Arial" font-size="13px" font-style="normal" font-weight="bold" text-decoration="undefined" x="552" y="210.5" text-anchor="middle" dominant-baseline="central" transform="matrix(1 0 0 1 -18 -11)">UC93 - Selezione</text><text fill="#000000" stroke="none" font-family="Arial" font-size="13px" font-style="normal" font-weight="bold" text-decoration="undefined" x="552" y="223.5" text-anchor="middle" dominant-baseline="central" transform="matrix(1 0 0 1 -18 -11)">sensore per invio</text><text fill="#000000" stroke="none" font-family="Arial" font-size="13px" font-style="normal" font-weight="bold" text-decoration="undefined" x="552" y="236.5" text-anchor="middle" dominant-baseline="central" transform="matrix(1 0 0 1 -18 -11)">comando da Super</text><text fill="#000000" stroke="none" font-family="Arial" font-size="13px" font-style="normal" font-weight="bold" text-decoration="undefined" x="552" y="249.5" text-anchor="middle" dominant-baseline="central" transform="matrix(1 0 0 1 -18 -11)">Admin</text></g></g><g><path fill="none" stroke="#000000" paint-order="fill stroke markers" d=" M 442 112 L 494 172" stroke-miterlimit="10" stroke-dasharray="3"/></g><g><path fill="none" stroke="#000000" paint-order="fill stroke markers" d=" M 484.16306727169956 167.07711928857788 L 494 172 L 490.5252404957619 161.56323582772384" stroke-miterlimit="10" stroke-dasharray=""/></g><g><rect fill="#ffffff" stroke="none" x="472" y="136" width="55.65625" height="13" transform="matrix(1 0 0 1 -18 -11)"/></g><g><g><path fill="none" stroke="none"/><text fill="#000000" stroke="none" font-family="Arial" font-size="13px" font-style="normal" font-weight="normal" text-decoration="undefined" x="499.828125" y="142.5" text-anchor="middle" dominant-baseline="central" transform="matrix(1 0 0 1 -18 -11)">«include»</text></g></g></g></svg>