<svg version="1.1" xmlns="http://www.w3.org/2000/svg" xmlns:xlink="http://www.w3.org/1999/xlink" width="756.47265625" height="300"><defs/><g><g><rect fill="#C0C0C0" stroke="none" x="167" y="28" width="488" height="280" transform="matrix(1 0 0 1 -14 -11)" fill-opacity="0.2"/></g><g><rect fill="#ffffff" stroke="none" x="160" y="21" width="488" height="280" transform="matrix(1 0 0 1 -14 -11)"/></g><g><path fill="none" stroke="#000000" paint-order="fill stroke markers" d=" M 146 10 L 634 10 L 634 290 L 146 290 L 146 10 Z Z" stroke-miterlimit="10" stroke-dasharray=""/></g><g><g><path fill="none" stroke="none"/><text fill="#000000" stroke="none" font-family="Arial" font-size="13px" font-style="normal" font-weight="bold" text-decoration="undefined" x="404.5" y="34.5" text-anchor="middle" dominant-baseline="central" transform="matrix(1 0 0 1 -14 -11)">Sistema cloud</text></g></g><g><path fill="#C0C0C0" stroke="none" paint-order="stroke fill markers" d=" M 249 109 C 249 89.1177472 304.5166848 73 373 73 C 441.4833152 73 497 89.1177472 497 109 C 497 128.8822528 441.4833152 145 373 145 C 304.5166848 145 249 128.8822528 249 109 Z" fill-opacity="0.2"/></g><g><path fill="#ffffff" stroke="none" paint-order="stroke fill markers" d=" M 242 102 C 242 82.1177472 297.5166848 66 366 66 C 434.4833152 66 490 82.1177472 490 102 C 490 121.8822528 434.4833152 138 366 138 C 297.5166848 138 242 121.8822528 242 102 Z"/></g><g><path fill="none" stroke="#000000" paint-order="fill stroke markers" d=" M 242 102 C 242 82.1177472 297.5166848 66 366 66 C 434.4833152 66 490 82.1177472 490 102 C 490 121.8822528 434.4833152 138 366 138 C 297.5166848 138 242 121.8822528 242 102 Z" stroke-miterlimit="10" stroke-dasharray=""/></g><g><g><path fill="none" stroke="none"/><text fill="#000000" stroke="none" font-family="Arial" font-size="13px" font-style="normal" font-weight="bold" text-decoration="undefined" x="380" y="107.5" text-anchor="middle" dominant-baseline="central" transform="matrix(1 0 0 1 -14 -11)">UC90 - Modifica parametro</text><text fill="#000000" stroke="none" font-family="Arial" font-size="13px" font-style="normal" font-weight="bold" text-decoration="undefined" x="380" y="120.5" text-anchor="middle" dominant-baseline="central" transform="matrix(1 0 0 1 -14 -11)">di rolling average</text></g></g><g><path fill="#C0C0C0" stroke="none" paint-order="stroke fill markers" d=" M 433 214 C 433 189.147184 474.1897984 169 525 169 C 575.8102016 169 617 189.147184 617 214 C 617 238.852816 575.8102016 259 525 259 C 474.1897984 259 433 238.852816 433 214 Z" fill-opacity="0.2"/></g><g><path fill="#ffffff" stroke="none" paint-order="stroke fill markers" d=" M 426 207 C 426 182.147184 467.1897984 162 518 162 C 568.8102016 162 610 182.147184 610 207 C 610 231.852816 568.8102016 252 518 252 C 467.1897984 252 426 231.852816 426 207 Z"/></g><g><path fill="none" stroke="#000000" paint-order="fill stroke markers" d=" M 426 207 C 426 182.147184 467.1897984 162 518 162 C 568.8102016 162 610 182.147184 610 207 C 610 231.852816 568.8102016 252 518 252 C 467.1897984 252 426 231.852816 426 207 Z" stroke-miterlimit="10" stroke-dasharray=""/></g><g><g><path fill="none" stroke="none"/><text fill="#000000" stroke="none" font-family="Arial" font-size="13px" font-style="normal" font-weight="bold" text-decoration="undefined" x="532" y="199.5" text-anchor="middle" dominant-baseline="central" transform="matrix(1 0 0 1 -14 -11)">UC93 - Selezione</text><text fill="#000000" stroke="none" font-family="Arial" font-size="13px" font-style="normal" font-weight="bold" text-decoration="undefined" x="532" y="212.5" text-anchor="middle" dominant-baseline="central" transform="matrix(1 0 0 1 -14 -11)">Gateway per invio</text><text fill="#000000" stroke="none" font-family="Arial" font-size="13px" font-style="normal" font-weight="bold" text-decoration="undefined" x="532" y="225.5" text-anchor="middle" dominant-baseline="central" transform="matrix(1 0 0 1 -14 -11)">comando da Super</text><text fill="#000000" stroke="none" font-family="Arial" font-size="13px" font-style="normal" font-weight="bold" text-decoration="undefined" x="532" y="238.5" text-anchor="middle" dominant-baseline="central" transform="matrix(1 0 0 1 -14 -11)">Admin</text></g></g><g><path fill="none" stroke="#000000" paint-order="fill stroke markers" d=" M 420 139 L 451 161" stroke-miterlimit="10" stroke-dasharray="3"/></g><g><path fill="none" stroke="#000000" paint-order="fill stroke markers" d=" M 440.27602024623627 158.5512741597177 L 451 161 L 445.14851184173676 151.6854905478761" stroke-miterlimit="10" stroke-dasharray=""/></g><g><rect fill="#ffffff" stroke="none" x="487" y="157" width="55.65625" height="13" transform="matrix(1 0 0 1 -14 -11)"/></g><g><g><path fill="none" stroke="none"/><text fill="#000000" stroke="none" font-family="Arial" font-size="13px" font-style="normal" font-weight="normal" text-decoration="undefined" x="514.828125" y="163.5" text-anchor="middle" dominant-baseline="central" transform="matrix(1 0 0 1 -14 -11)">«include»</text></g></g><g><path fill="#ffffff" stroke="none" paint-order="stroke fill markers" d=" M 47.930751953125 71.85 C 47.930751953125 66.96227952 51.888554321125 63 56.770751953125 63 C 61.652949585125 63 65.610751953125 66.96227952 65.610751953125 71.85 C 65.610751953125 76.73772048 61.652949585125 80.7 56.770751953125 80.7 C 51.888554321125 80.7 47.930751953125 76.73772048 47.930751953125 71.85 Z"/></g><g><path fill="none" stroke="#000000" paint-order="fill stroke markers" d=" M 47.930751953125 71.85 C 47.930751953125 66.96227952 51.888554321125 63 56.770751953125 63 C 61.652949585125 63 65.610751953125 66.96227952 65.610751953125 71.85 C 65.610751953125 76.73772048 61.652949585125 80.7 56.770751953125 80.7 C 51.888554321125 80.7 47.930751953125 76.73772048 47.930751953125 71.85 Z" stroke-miterlimit="10" stroke-dasharray=""/></g><g><path fill="none" stroke="#000000" paint-order="fill stroke markers" d=" M 56.770751953125 80.7 L 56.770751953125 98.3" stroke-miterlimit="10" stroke-dasharray=""/></g><g><path fill="none" stroke="#000000" paint-order="fill stroke markers" d=" M 47.410751953125 87.3 L 66.130751953125 87.3" stroke-miterlimit="10" stroke-dasharray=""/></g><g><path fill="none" stroke="#000000" paint-order="fill stroke markers" d=" M 56.770751953125 98.3 L 43.770751953125 116" stroke-miterlimit="10" stroke-dasharray=""/></g><g><path fill="none" stroke="#000000" paint-order="fill stroke markers" d=" M 56.770751953125 98.3 L 69.770751953125 116" stroke-miterlimit="10" stroke-dasharray=""/></g><g><g><path fill="none" stroke="none"/><text fill="#000000" stroke="none" font-family="Arial" font-size="13px" font-style="normal" font-weight="bold" text-decoration="undefined" x="71.270751953125" y="141.5" text-anchor="middle" dominant-baseline="central" transform="matrix(1 0 0 1 -14 -11)">Super Admin</text></g></g><g><path fill="#ffffff" stroke="none" paint-order="stroke fill markers" d=" M 704.896328125 67.85 C 704.896328125 62.962279519999996 708.854130493 59 713.736328125 59 C 718.618525757 59 722.576328125 62.962279519999996 722.576328125 67.85 C 722.576328125 72.73772048 718.618525757 76.7 713.736328125 76.7 C 708.854130493 76.7 704.896328125 72.73772048 704.896328125 67.85 Z"/></g><g><path fill="none" stroke="#000000" paint-order="fill stroke markers" d=" M 704.896328125 67.85 C 704.896328125 62.962279519999996 708.854130493 59 713.736328125 59 C 718.618525757 59 722.576328125 62.962279519999996 722.576328125 67.85 C 722.576328125 72.73772048 718.618525757 76.7 713.736328125 76.7 C 708.854130493 76.7 704.896328125 72.73772048 704.896328125 67.85 Z" stroke-miterlimit="10" stroke-dasharray=""/></g><g><path fill="none" stroke="#000000" paint-order="fill stroke markers" d=" M 713.736328125 76.7 L 713.736328125 94.3" stroke-miterlimit="10" stroke-dasharray=""/></g><g><path fill="none" stroke="#000000" paint-order="fill stroke markers" d=" M 704.376328125 83.3 L 723.096328125 83.3" stroke-miterlimit="10" stroke-dasharray=""/></g><g><path fill="none" stroke="#000000" paint-order="fill stroke markers" d=" M 713.736328125 94.3 L 700.736328125 112" stroke-miterlimit="10" stroke-dasharray=""/></g><g><path fill="none" stroke="#000000" paint-order="fill stroke markers" d=" M 713.736328125 94.3 L 726.736328125 112" stroke-miterlimit="10" stroke-dasharray=""/></g><g><g><path fill="none" stroke="none"/><text fill="#000000" stroke="none" font-family="Arial" font-size="13px" font-style="normal" font-weight="bold" text-decoration="undefined" x="728.236328125" y="137.5" text-anchor="middle" dominant-baseline="central" transform="matrix(1 0 0 1 -14 -11)">Gateway</text></g></g><g><path fill="none" stroke="#000000" paint-order="fill stroke markers" d=" M 105 102 L 241 102" stroke-miterlimit="10" stroke-dasharray=""/></g><g><path fill="none" stroke="#000000" paint-order="fill stroke markers" d=" M 681 98 L 491 101" stroke-miterlimit="10" stroke-dasharray=""/></g><g><path fill="#C0C0C0" stroke="none" paint-order="stroke fill markers" d=" M 273 248 C 273 228.1177472 308.81721600000003 212 353 212 C 397.18278399999997 212 433 228.1177472 433 248 C 433 267.8822528 397.18278399999997 284 353 284 C 308.81721600000003 284 273 267.8822528 273 248 Z" fill-opacity="0.2"/></g><g><path fill="#ffffff" stroke="none" paint-order="stroke fill markers" d=" M 266 241 C 266 221.1177472 301.81721600000003 205 346 205 C 390.18278399999997 205 426 221.1177472 426 241 C 426 260.8822528 390.18278399999997 277 346 277 C 301.81721600000003 277 266 260.8822528 266 241 Z"/></g><g><path fill="none" stroke="#000000" paint-order="fill stroke markers" d=" M 266 241 C 266 221.1177472 301.81721600000003 205 346 205 C 390.18278399999997 205 426 221.1177472 426 241 C 426 260.8822528 390.18278399999997 277 346 277 C 301.81721600000003 277 266 260.8822528 266 241 Z" stroke-miterlimit="10" stroke-dasharray=""/></g><g><g><path fill="none" stroke="none"/><text fill="#000000" stroke="none" font-family="Arial" font-size="13px" font-style="normal" font-weight="bold" text-decoration="undefined" x="360" y="240" text-anchor="middle" dominant-baseline="central" transform="matrix(1 0 0 1 -14 -11)">UC32 - Gateway</text><text fill="#000000" stroke="none" font-family="Arial" font-size="13px" font-style="normal" font-weight="bold" text-decoration="undefined" x="360" y="253" text-anchor="middle" dominant-baseline="central" transform="matrix(1 0 0 1 -14 -11)">non</text><text fill="#000000" stroke="none" font-family="Arial" font-size="13px" font-style="normal" font-weight="bold" text-decoration="undefined" x="360" y="266" text-anchor="middle" dominant-baseline="central" transform="matrix(1 0 0 1 -14 -11)">raggiungibile</text></g></g><g><path fill="none" stroke="#000000" paint-order="fill stroke markers" d=" M 351 204 L 361 139" stroke-miterlimit="10" stroke-dasharray="3"/></g><g><path fill="none" stroke="#000000" paint-order="fill stroke markers" d=" M 363.61526048746526 149.684587618748 L 361 139 L 355.29412406585743 148.40441278465448" stroke-miterlimit="10" stroke-dasharray=""/></g><g><rect fill="#ffffff" stroke="none" x="372" y="181" width="53.49169921875" height="13" transform="matrix(1 0 0 1 -14 -11)"/></g><g><g><path fill="none" stroke="none"/><text fill="#000000" stroke="none" font-family="Arial" font-size="13px" font-style="normal" font-weight="normal" text-decoration="undefined" x="398.745849609375" y="187.5" text-anchor="middle" dominant-baseline="central" transform="matrix(1 0 0 1 -14 -11)">«extend»</text></g></g><g><path fill="#ffffff" stroke="none" paint-order="stroke fill markers" d=" M 162 141 L 263 141 L 273 151 L 273 191 L 162 191 L 162 141"/></g><g><path fill="none" stroke="#000000" paint-order="fill stroke markers" d=" M 162 141 L 263 141 L 273 151 L 273 191 L 162 191 L 162 141 L 162 141" stroke-miterlimit="10" stroke-dasharray=""/></g><g><path fill="none" stroke="#000000" paint-order="fill stroke markers" d=" M 263 141 L 263 151 L 273 151 L 263 141" stroke-miterlimit="10" stroke-dasharray=""/></g><g><g><path fill="none" stroke="none"/><text fill="#000000" stroke="none" font-family="Arial" font-size="13px" font-style="normal" font-weight="normal" text-decoration="undefined" x="181" y="157" text-anchor="start" dominant-baseline="text-before-edge" transform="matrix(1 0 0 1 -14 -11)">Condizione: il</text><text fill="#000000" stroke="none" font-family="Arial" font-size="13px" font-style="normal" font-weight="normal" text-decoration="undefined" x="181" y="170" text-anchor="start" dominant-baseline="text-before-edge" transform="matrix(1 0 0 1 -14 -11)">gateway non è</text><text fill="#000000" stroke="none" font-family="Arial" font-size="13px" font-style="normal" font-weight="normal" text-decoration="undefined" x="181" y="183" text-anchor="start" dominant-baseline="text-before-edge" transform="matrix(1 0 0 1 -14 -11)">raggiungibile</text></g></g><g><path fill="none" stroke="#000000" paint-order="fill stroke markers" d=" M 275 168 L 356 171" stroke-miterlimit="10" stroke-dasharray="3"/></g></g></svg>