<svg version="1.1" xmlns="http://www.w3.org/2000/svg" xmlns:xlink="http://www.w3.org/1999/xlink" width="724.47265625" height="332"><defs/><g><g><rect fill="#C0C0C0" stroke="none" x="207" y="36" width="432" height="312" transform="matrix(1 0 0 1 -22 -19)" fill-opacity="0.2"/></g><g><rect fill="#ffffff" stroke="none" x="200" y="29" width="432" height="312" transform="matrix(1 0 0 1 -22 -19)"/></g><g><path fill="none" stroke="#000000" paint-order="fill stroke markers" d=" M 178 10 L 610 10 L 610 322 L 178 322 L 178 10 Z Z" stroke-miterlimit="10" stroke-dasharray=""/></g><g><g><path fill="none" stroke="none"/><text fill="#000000" stroke="none" font-family="Arial" font-size="13px" font-style="normal" font-weight="bold" text-decoration="undefined" x="416.5" y="42.5" text-anchor="middle" dominant-baseline="central" transform="matrix(1 0 0 1 -22 -19)">Sistema cloud</text></g></g><g><path fill="#C0C0C0" stroke="none" paint-order="stroke fill markers" d=" M 273 109.5 C 273 94.8644528 328.5166848 83 397 83 C 465.4833152 83 521 94.8644528 521 109.5 C 521 124.13554719999999 465.4833152 136 397 136 C 328.5166848 136 273 124.13554719999999 273 109.5 Z" fill-opacity="0.2"/></g><g><path fill="#ffffff" stroke="none" paint-order="stroke fill markers" d=" M 266 102.5 C 266 87.8644528 321.5166848 76 390 76 C 458.4833152 76 514 87.8644528 514 102.5 C 514 117.13554719999999 458.4833152 129 390 129 C 321.5166848 129 266 117.13554719999999 266 102.5 Z"/></g><g><path fill="none" stroke="#000000" paint-order="fill stroke markers" d=" M 266 102.5 C 266 87.8644528 321.5166848 76 390 76 C 458.4833152 76 514 87.8644528 514 102.5 C 514 117.13554719999999 458.4833152 129 390 129 C 321.5166848 129 266 117.13554719999999 266 102.5 Z" stroke-miterlimit="10" stroke-dasharray=""/></g><g><g><path fill="none" stroke="none"/><text fill="#000000" stroke="none" font-family="Arial" font-size="13px" font-style="normal" font-weight="bold" text-decoration="undefined" x="412" y="116" text-anchor="middle" dominant-baseline="central" transform="matrix(1 0 0 1 -22 -19)">UC90 - Sospensione</text><text fill="#000000" stroke="none" font-family="Arial" font-size="13px" font-style="normal" font-weight="bold" text-decoration="undefined" x="412" y="129" text-anchor="middle" dominant-baseline="central" transform="matrix(1 0 0 1 -22 -19)">Gateway</text></g></g><g><path fill="#C0C0C0" stroke="none" paint-order="stroke fill markers" d=" M 209 213 C 209 193.1177472 239.44463359999997 177 277 177 C 314.5553664 177 345 193.1177472 345 213 C 345 232.8822528 314.5553664 249 277 249 C 239.44463359999997 249 209 232.8822528 209 213 Z" fill-opacity="0.2"/></g><g><path fill="#ffffff" stroke="none" paint-order="stroke fill markers" d=" M 202 206 C 202 186.1177472 232.4446336 170 270 170 C 307.5553664 170 338 186.1177472 338 206 C 338 225.8822528 307.5553664 242 270 242 C 232.4446336 242 202 225.8822528 202 206 Z"/></g><g><path fill="none" stroke="#000000" paint-order="fill stroke markers" d=" M 202 206 C 202 186.1177472 232.4446336 170 270 170 C 307.5553664 170 338 186.1177472 338 206 C 338 225.8822528 307.5553664 242 270 242 C 232.4446336 242 202 225.8822528 202 206 Z" stroke-miterlimit="10" stroke-dasharray=""/></g><g><g><path fill="none" stroke="none"/><text fill="#000000" stroke="none" font-family="Arial" font-size="13px" font-style="normal" font-weight="bold" text-decoration="undefined" x="292" y="213" text-anchor="middle" dominant-baseline="central" transform="matrix(1 0 0 1 -22 -19)">UC34 -</text><text fill="#000000" stroke="none" font-family="Arial" font-size="13px" font-style="normal" font-weight="bold" text-decoration="undefined" x="292" y="226" text-anchor="middle" dominant-baseline="central" transform="matrix(1 0 0 1 -22 -19)">Gateway non</text><text fill="#000000" stroke="none" font-family="Arial" font-size="13px" font-style="normal" font-weight="bold" text-decoration="undefined" x="292" y="239" text-anchor="middle" dominant-baseline="central" transform="matrix(1 0 0 1 -22 -19)">raggiungibile</text></g></g><g><path fill="#C0C0C0" stroke="none" paint-order="stroke fill markers" d=" M 409 241.5 C 409 201.459352 448.3989376 169 497 169 C 545.6010624 169 585 201.459352 585 241.5 C 585 281.54064800000003 545.6010624 314 497 314 C 448.3989376 314 409 281.54064800000003 409 241.5 Z" fill-opacity="0.2"/></g><g><path fill="#ffffff" stroke="none" paint-order="stroke fill markers" d=" M 402 234.5 C 402 194.459352 441.3989376 162 490 162 C 538.6010624 162 578 194.459352 578 234.5 C 578 274.54064800000003 538.6010624 307 490 307 C 441.3989376 307 402 274.54064800000003 402 234.5 Z"/></g><g><path fill="none" stroke="#000000" paint-order="fill stroke markers" d=" M 402 234.5 C 402 194.459352 441.3989376 162 490 162 C 538.6010624 162 578 194.459352 578 234.5 C 578 274.54064800000003 538.6010624 307 490 307 C 441.3989376 307 402 274.54064800000003 402 234.5 Z" stroke-miterlimit="10" stroke-dasharray=""/></g><g><g><path fill="none" stroke="none"/><text fill="#000000" stroke="none" font-family="Arial" font-size="13px" font-style="normal" font-weight="bold" text-decoration="undefined" x="512" y="235" text-anchor="middle" dominant-baseline="central" transform="matrix(1 0 0 1 -22 -19)">UC95 - Selezione</text><text fill="#000000" stroke="none" font-family="Arial" font-size="13px" font-style="normal" font-weight="bold" text-decoration="undefined" x="512" y="248" text-anchor="middle" dominant-baseline="central" transform="matrix(1 0 0 1 -22 -19)">Gateway per invio</text><text fill="#000000" stroke="none" font-family="Arial" font-size="13px" font-style="normal" font-weight="bold" text-decoration="undefined" x="512" y="261" text-anchor="middle" dominant-baseline="central" transform="matrix(1 0 0 1 -22 -19)">comando da</text><text fill="#000000" stroke="none" font-family="Arial" font-size="13px" font-style="normal" font-weight="bold" text-decoration="undefined" x="512" y="274" text-anchor="middle" dominant-baseline="central" transform="matrix(1 0 0 1 -22 -19)">Super Admin</text></g></g><g><path fill="#ffffff" stroke="none" paint-order="stroke fill markers" d=" M 47.930751953125 67.85 C 47.930751953125 62.962279519999996 51.888554321125 59 56.770751953125 59 C 61.652949585125 59 65.610751953125 62.962279519999996 65.610751953125 67.85 C 65.610751953125 72.73772048 61.652949585125 76.7 56.770751953125 76.7 C 51.888554321125 76.7 47.930751953125 72.73772048 47.930751953125 67.85 Z"/></g><g><path fill="none" stroke="#000000" paint-order="fill stroke markers" d=" M 47.930751953125 67.85 C 47.930751953125 62.962279519999996 51.888554321125 59 56.770751953125 59 C 61.652949585125 59 65.610751953125 62.962279519999996 65.610751953125 67.85 C 65.610751953125 72.73772048 61.652949585125 76.7 56.770751953125 76.7 C 51.888554321125 76.7 47.930751953125 72.73772048 47.930751953125 67.85 Z" stroke-miterlimit="10" stroke-dasharray=""/></g><g><path fill="none" stroke="#000000" paint-order="fill stroke markers" d=" M 56.770751953125 76.7 L 56.770751953125 94.3" stroke-miterlimit="10" stroke-dasharray=""/></g><g><path fill="none" stroke="#000000" paint-order="fill stroke markers" d=" M 47.410751953125 83.3 L 66.130751953125 83.3" stroke-miterlimit="10" stroke-dasharray=""/></g><g><path fill="none" stroke="#000000" paint-order="fill stroke markers" d=" M 56.770751953125 94.3 L 43.770751953125 112" stroke-miterlimit="10" stroke-dasharray=""/></g><g><path fill="none" stroke="#000000" paint-order="fill stroke markers" d=" M 56.770751953125 94.3 L 69.770751953125 112" stroke-miterlimit="10" stroke-dasharray=""/></g><g><g><path fill="none" stroke="none"/><text fill="#000000" stroke="none" font-family="Arial" font-size="13px" font-style="normal" font-weight="bold" text-decoration="undefined" x="79.270751953125" y="145.5" text-anchor="middle" dominant-baseline="central" transform="matrix(1 0 0 1 -22 -19)">Tenant admin</text></g></g><g><path fill="#ffffff" stroke="none" paint-order="stroke fill markers" d=" M 672.896328125 75.85 C 672.896328125 70.96227952 676.854130493 67 681.736328125 67 C 686.618525757 67 690.576328125 70.96227952 690.576328125 75.85 C 690.576328125 80.73772048 686.618525757 84.7 681.736328125 84.7 C 676.854130493 84.7 672.896328125 80.73772048 672.896328125 75.85 Z"/></g><g><path fill="none" stroke="#000000" paint-order="fill stroke markers" d=" M 672.896328125 75.85 C 672.896328125 70.96227952 676.854130493 67 681.736328125 67 C 686.618525757 67 690.576328125 70.96227952 690.576328125 75.85 C 690.576328125 80.73772048 686.618525757 84.7 681.736328125 84.7 C 676.854130493 84.7 672.896328125 80.73772048 672.896328125 75.85 Z" stroke-miterlimit="10" stroke-dasharray=""/></g><g><path fill="none" stroke="#000000" paint-order="fill stroke markers" d=" M 681.736328125 84.7 L 681.736328125 102.3" stroke-miterlimit="10" stroke-dasharray=""/></g><g><path fill="none" stroke="#000000" paint-order="fill stroke markers" d=" M 672.376328125 91.3 L 691.096328125 91.3" stroke-miterlimit="10" stroke-dasharray=""/></g><g><path fill="none" stroke="#000000" paint-order="fill stroke markers" d=" M 681.736328125 102.3 L 668.736328125 120" stroke-miterlimit="10" stroke-dasharray=""/></g><g><path fill="none" stroke="#000000" paint-order="fill stroke markers" d=" M 681.736328125 102.3 L 694.736328125 120" stroke-miterlimit="10" stroke-dasharray=""/></g><g><g><path fill="none" stroke="none"/><text fill="#000000" stroke="none" font-family="Arial" font-size="13px" font-style="normal" font-weight="bold" text-decoration="undefined" x="704.236328125" y="153.5" text-anchor="middle" dominant-baseline="central" transform="matrix(1 0 0 1 -22 -19)">Gateway</text></g></g><g><path fill="none" stroke="#000000" paint-order="fill stroke markers" d=" M 105 99 L 265 101" stroke-miterlimit="10" stroke-dasharray=""/></g><g><path fill="none" stroke="#000000" paint-order="fill stroke markers" d=" M 649 106 L 515 104" stroke-miterlimit="10" stroke-dasharray=""/></g><g><path fill="none" stroke="#000000" paint-order="fill stroke markers" d=" M 358 130 L 313 169" stroke-miterlimit="10" stroke-dasharray="3"/></g><g><path fill="none" stroke="#000000" paint-order="fill stroke markers" d=" M 317.9228807114221 159.1630672716996 L 313 169 L 323.4367641722761 165.52524049576192" stroke-miterlimit="10" stroke-dasharray=""/></g><g><rect fill="#ffffff" stroke="none" x="351" y="184" width="53.49169921875" height="13" transform="matrix(1 0 0 1 -22 -19)"/></g><g><g><path fill="none" stroke="none"/><text fill="#000000" stroke="none" font-family="Arial" font-size="13px" font-style="normal" font-weight="normal" text-decoration="undefined" x="377.745849609375" y="190.5" text-anchor="middle" dominant-baseline="central" transform="matrix(1 0 0 1 -22 -19)">«extend»</text></g></g><g><path fill="none" stroke="#000000" paint-order="fill stroke markers" d=" M 411 130 L 435 161" stroke-miterlimit="10" stroke-dasharray="3"/></g><g><path fill="none" stroke="#000000" paint-order="fill stroke markers" d=" M 425.4501173957711 155.5410859829591 L 435 161 L 432.10724837037816 150.38717813165036" stroke-miterlimit="10" stroke-dasharray=""/></g><g><rect fill="#ffffff" stroke="none" x="464" y="166" width="55.65625" height="13" transform="matrix(1 0 0 1 -22 -19)"/></g><g><g><path fill="none" stroke="none"/><text fill="#000000" stroke="none" font-family="Arial" font-size="13px" font-style="normal" font-weight="normal" text-decoration="undefined" x="491.828125" y="172.5" text-anchor="middle" dominant-baseline="central" transform="matrix(1 0 0 1 -22 -19)">«include»</text></g></g></g></svg>