<svg version="1.1" xmlns="http://www.w3.org/2000/svg" xmlns:xlink="http://www.w3.org/1999/xlink" width="764.47265625" height="260"><defs/><g><g><rect fill="#C0C0C0" stroke="none" x="139" y="32" width="552" height="240" transform="matrix(1 0 0 1 -18 -15)" fill-opacity="0.2"/></g><g><rect fill="#ffffff" stroke="none" x="132" y="25" width="552" height="240" transform="matrix(1 0 0 1 -18 -15)"/></g><g><path fill="none" stroke="#000000" paint-order="fill stroke markers" d=" M 114 10 L 666 10 L 666 250 L 114 250 L 114 10 Z Z" stroke-miterlimit="10" stroke-dasharray=""/></g><g><g><path fill="none" stroke="none"/><text fill="#000000" stroke="none" font-family="Arial" font-size="13px" font-style="normal" font-weight="bold" text-decoration="undefined" x="408.5" y="38.5" text-anchor="middle" dominant-baseline="central" transform="matrix(1 0 0 1 -18 -15)">Sistema cloud</text></g></g><g><path fill="#ffffff" stroke="none" paint-order="stroke fill markers" d=" M 47.930751953125 46.85 C 47.930751953125 41.96227952 51.888554321125 38 56.770751953125 38 C 61.652949585125 38 65.610751953125 41.96227952 65.610751953125 46.85 C 65.610751953125 51.73772048000001 61.652949585125 55.7 56.770751953125 55.7 C 51.888554321125 55.7 47.930751953125 51.73772048000001 47.930751953125 46.85 Z"/></g><g><path fill="none" stroke="#000000" paint-order="fill stroke markers" d=" M 47.930751953125 46.85 C 47.930751953125 41.96227952 51.888554321125 38 56.770751953125 38 C 61.652949585125 38 65.610751953125 41.96227952 65.610751953125 46.85 C 65.610751953125 51.73772048000001 61.652949585125 55.7 56.770751953125 55.7 C 51.888554321125 55.7 47.930751953125 51.73772048000001 47.930751953125 46.85 Z" stroke-miterlimit="10" stroke-dasharray=""/></g><g><path fill="none" stroke="#000000" paint-order="fill stroke markers" d=" M 56.770751953125 55.7 L 56.770751953125 73.3" stroke-miterlimit="10" stroke-dasharray=""/></g><g><path fill="none" stroke="#000000" paint-order="fill stroke markers" d=" M 47.410751953125 62.3 L 66.130751953125 62.3" stroke-miterlimit="10" stroke-dasharray=""/></g><g><path fill="none" stroke="#000000" paint-order="fill stroke markers" d=" M 56.770751953125 73.3 L 43.770751953125 91" stroke-miterlimit="10" stroke-dasharray=""/></g><g><path fill="none" stroke="#000000" paint-order="fill stroke markers" d=" M 56.770751953125 73.3 L 69.770751953125 91" stroke-miterlimit="10" stroke-dasharray=""/></g><g><g><path fill="none" stroke="none"/><text fill="#000000" stroke="none" font-family="Arial" font-size="13px" font-style="normal" font-weight="bold" text-decoration="undefined" x="75.270751953125" y="120.5" text-anchor="middle" dominant-baseline="central" transform="matrix(1 0 0 1 -18 -15)">Tenant admin</text></g></g><g><path fill="#C0C0C0" stroke="none" paint-order="stroke fill markers" d=" M 265 83.5 C 265 68.8644528 320.5166848 57 389 57 C 457.4833152 57 513 68.8644528 513 83.5 C 513 98.1355472 457.4833152 110 389 110 C 320.5166848 110 265 98.1355472 265 83.5 Z" fill-opacity="0.2"/></g><g><path fill="#ffffff" stroke="none" paint-order="stroke fill markers" d=" M 258 76.5 C 258 61.864452799999995 313.5166848 50 382 50 C 450.4833152 50 506 61.864452799999995 506 76.5 C 506 91.1355472 450.4833152 103 382 103 C 313.5166848 103 258 91.1355472 258 76.5 Z"/></g><g><path fill="none" stroke="#000000" paint-order="fill stroke markers" d=" M 258 76.5 C 258 61.864452799999995 313.5166848 50 382 50 C 450.4833152 50 506 61.864452799999995 506 76.5 C 506 91.1355472 450.4833152 103 382 103 C 313.5166848 103 258 91.1355472 258 76.5 Z" stroke-miterlimit="10" stroke-dasharray=""/></g><g><g><path fill="none" stroke="none"/><text fill="#000000" stroke="none" font-family="Arial" font-size="13px" font-style="normal" font-weight="bold" text-decoration="undefined" x="400" y="86" text-anchor="middle" dominant-baseline="central" transform="matrix(1 0 0 1 -18 -15)">UC91 - Riattivazione</text><text fill="#000000" stroke="none" font-family="Arial" font-size="13px" font-style="normal" font-weight="bold" text-decoration="undefined" x="400" y="99" text-anchor="middle" dominant-baseline="central" transform="matrix(1 0 0 1 -18 -15)">Gateway</text></g></g><g><path fill="#ffffff" stroke="none" paint-order="stroke fill markers" d=" M 712.896328125 43.85 C 712.896328125 38.96227952 716.854130493 35 721.736328125 35 C 726.618525757 35 730.576328125 38.96227952 730.576328125 43.85 C 730.576328125 48.73772048 726.618525757 52.7 721.736328125 52.7 C 716.854130493 52.7 712.896328125 48.73772048 712.896328125 43.85 Z"/></g><g><path fill="none" stroke="#000000" paint-order="fill stroke markers" d=" M 712.896328125 43.85 C 712.896328125 38.96227952 716.854130493 35 721.736328125 35 C 726.618525757 35 730.576328125 38.96227952 730.576328125 43.85 C 730.576328125 48.73772048 726.618525757 52.7 721.736328125 52.7 C 716.854130493 52.7 712.896328125 48.73772048 712.896328125 43.85 Z" stroke-miterlimit="10" stroke-dasharray=""/></g><g><path fill="none" stroke="#000000" paint-order="fill stroke markers" d=" M 721.736328125 52.7 L 721.736328125 70.3" stroke-miterlimit="10" stroke-dasharray=""/></g><g><path fill="none" stroke="#000000" paint-order="fill stroke markers" d=" M 712.376328125 59.3 L 731.096328125 59.3" stroke-miterlimit="10" stroke-dasharray=""/></g><g><path fill="none" stroke="#000000" paint-order="fill stroke markers" d=" M 721.736328125 70.3 L 708.736328125 88" stroke-miterlimit="10" stroke-dasharray=""/></g><g><path fill="none" stroke="#000000" paint-order="fill stroke markers" d=" M 721.736328125 70.3 L 734.736328125 88" stroke-miterlimit="10" stroke-dasharray=""/></g><g><g><path fill="none" stroke="none"/><text fill="#000000" stroke="none" font-family="Arial" font-size="13px" font-style="normal" font-weight="bold" text-decoration="undefined" x="740.236328125" y="117.5" text-anchor="middle" dominant-baseline="central" transform="matrix(1 0 0 1 -18 -15)">Gateway</text></g></g><g><path fill="#C0C0C0" stroke="none" paint-order="stroke fill markers" d=" M 129 179.5 C 129 164.8644528 173.77152 153 229 153 C 284.22848 153 329 164.8644528 329 179.5 C 329 194.1355472 284.22848 206 229 206 C 173.77152 206 129 194.1355472 129 179.5 Z" fill-opacity="0.2"/></g><g><path fill="#ffffff" stroke="none" paint-order="stroke fill markers" d=" M 122 172.5 C 122 157.8644528 166.77152 146 222 146 C 277.22848 146 322 157.8644528 322 172.5 C 322 187.1355472 277.22848 199 222 199 C 166.77152 199 122 187.1355472 122 172.5 Z"/></g><g><path fill="none" stroke="#000000" paint-order="fill stroke markers" d=" M 122 172.5 C 122 157.8644528 166.77152 146 222 146 C 277.22848 146 322 157.8644528 322 172.5 C 322 187.1355472 277.22848 199 222 199 C 166.77152 199 122 187.1355472 122 172.5 Z" stroke-miterlimit="10" stroke-dasharray=""/></g><g><g><path fill="none" stroke="none"/><text fill="#000000" stroke="none" font-family="Arial" font-size="13px" font-style="normal" font-weight="bold" text-decoration="undefined" x="240" y="182" text-anchor="middle" dominant-baseline="central" transform="matrix(1 0 0 1 -18 -15)">UC34 - Gateway non</text><text fill="#000000" stroke="none" font-family="Arial" font-size="13px" font-style="normal" font-weight="bold" text-decoration="undefined" x="240" y="195" text-anchor="middle" dominant-baseline="central" transform="matrix(1 0 0 1 -18 -15)">raggiungibile</text></g></g><g><path fill="#C0C0C0" stroke="none" paint-order="stroke fill markers" d=" M 449 190 C 449 165.147184 490.1897984 145 541 145 C 591.8102016 145 633 165.147184 633 190 C 633 214.852816 591.8102016 235 541 235 C 490.1897984 235 449 214.852816 449 190 Z" fill-opacity="0.2"/></g><g><path fill="#ffffff" stroke="none" paint-order="stroke fill markers" d=" M 442 183 C 442 158.147184 483.1897984 138 534 138 C 584.8102016 138 626 158.147184 626 183 C 626 207.852816 584.8102016 228 534 228 C 483.1897984 228 442 207.852816 442 183 Z"/></g><g><path fill="none" stroke="#000000" paint-order="fill stroke markers" d=" M 442 183 C 442 158.147184 483.1897984 138 534 138 C 584.8102016 138 626 158.147184 626 183 C 626 207.852816 584.8102016 228 534 228 C 483.1897984 228 442 207.852816 442 183 Z" stroke-miterlimit="10" stroke-dasharray=""/></g><g><g><path fill="none" stroke="none"/><text fill="#000000" stroke="none" font-family="Arial" font-size="13px" font-style="normal" font-weight="bold" text-decoration="undefined" x="552" y="179.5" text-anchor="middle" dominant-baseline="central" transform="matrix(1 0 0 1 -18 -15)">UC95 - Selezione</text><text fill="#000000" stroke="none" font-family="Arial" font-size="13px" font-style="normal" font-weight="bold" text-decoration="undefined" x="552" y="192.5" text-anchor="middle" dominant-baseline="central" transform="matrix(1 0 0 1 -18 -15)">Gateway per invio</text><text fill="#000000" stroke="none" font-family="Arial" font-size="13px" font-style="normal" font-weight="bold" text-decoration="undefined" x="552" y="205.5" text-anchor="middle" dominant-baseline="central" transform="matrix(1 0 0 1 -18 -15)">comando da Super</text><text fill="#000000" stroke="none" font-family="Arial" font-size="13px" font-style="normal" font-weight="bold" text-decoration="undefined" x="552" y="218.5" text-anchor="middle" dominant-baseline="central" transform="matrix(1 0 0 1 -18 -15)">Admin</text></g></g><g><path fill="none" stroke="#000000" paint-order="fill stroke markers" d=" M 335 104 L 267 145" stroke-miterlimit="10" stroke-dasharray="3"/></g><g><path fill="none" stroke="#000000" paint-order="fill stroke markers" d=" M 273.52953838123045 136.1475919361996 L 267 145 L 277.87667863912964 143.35748309564212" stroke-miterlimit="10" stroke-dasharray=""/></g><g><rect fill="#ffffff" stroke="none" x="331" y="137" width="53.49169921875" height="13" transform="matrix(1 0 0 1 -18 -15)"/></g><g><g><path fill="none" stroke="none"/><text fill="#000000" stroke="none" font-family="Arial" font-size="13px" font-style="normal" font-weight="normal" text-decoration="undefined" x="357.745849609375" y="143.5" text-anchor="middle" dominant-baseline="central" transform="matrix(1 0 0 1 -18 -15)">«extend»</text></g></g><g><path fill="none" stroke="#000000" paint-order="fill stroke markers" d=" M 422 104 L 469 137" stroke-miterlimit="10" stroke-dasharray="3"/></g><g><path fill="none" stroke="#000000" paint-order="fill stroke markers" d=" M 458.26381757014394 134.60534202173884 L 469 137 L 463.10165149484385 127.71509370474197" stroke-miterlimit="10" stroke-dasharray=""/></g><g><rect fill="#ffffff" stroke="none" x="476" y="121" width="55.65625" height="13" transform="matrix(1 0 0 1 -18 -15)"/></g><g><g><path fill="none" stroke="none"/><text fill="#000000" stroke="none" font-family="Arial" font-size="13px" font-style="normal" font-weight="normal" text-decoration="undefined" x="503.828125" y="127.5" text-anchor="middle" dominant-baseline="central" transform="matrix(1 0 0 1 -18 -15)">«include»</text></g></g><g><path fill="none" stroke="#000000" paint-order="fill stroke markers" d=" M 105 77 L 257 76" stroke-miterlimit="10" stroke-dasharray=""/></g><g><path fill="none" stroke="#000000" paint-order="fill stroke markers" d=" M 689 74 L 507 75" stroke-miterlimit="10" stroke-dasharray=""/></g></g></svg>