<svg version="1.1" xmlns="http://www.w3.org/2000/svg" xmlns:xlink="http://www.w3.org/1999/xlink" width="748.47265625" height="284"><defs/><g><g><rect fill="#C0C0C0" stroke="none" x="155" y="28" width="512" height="264" transform="matrix(1 0 0 1 -18 -11)" fill-opacity="0.2"/></g><g><rect fill="#ffffff" stroke="none" x="148" y="21" width="512" height="264" transform="matrix(1 0 0 1 -18 -11)"/></g><g><path fill="none" stroke="#000000" paint-order="fill stroke markers" d=" M 130 10 L 642 10 L 642 274 L 130 274 L 130 10 Z Z" stroke-miterlimit="10" stroke-dasharray=""/></g><g><g><path fill="none" stroke="none"/><text fill="#000000" stroke="none" font-family="Arial" font-size="13px" font-style="normal" font-weight="bold" text-decoration="undefined" x="404.5" y="34.5" text-anchor="middle" dominant-baseline="central" transform="matrix(1 0 0 1 -18 -11)">Sistema cloud</text></g></g><g><path fill="#C0C0C0" stroke="none" paint-order="stroke fill markers" d=" M 305 91.5 C 305 76.8644528 358.725824 65 425 65 C 491.274176 65 545 76.8644528 545 91.5 C 545 106.1355472 491.274176 118 425 118 C 358.725824 118 305 106.1355472 305 91.5 Z" fill-opacity="0.2"/></g><g><path fill="#ffffff" stroke="none" paint-order="stroke fill markers" d=" M 298 84.5 C 298 69.8644528 351.725824 58 418 58 C 484.274176 58 538 69.8644528 538 84.5 C 538 99.1355472 484.274176 111 418 111 C 351.725824 111 298 99.1355472 298 84.5 Z"/></g><g><path fill="none" stroke="#000000" paint-order="fill stroke markers" d=" M 298 84.5 C 298 69.8644528 351.725824 58 418 58 C 484.274176 58 538 69.8644528 538 84.5 C 538 99.1355472 484.274176 111 418 111 C 351.725824 111 298 99.1355472 298 84.5 Z" stroke-miterlimit="10" stroke-dasharray=""/></g><g><g><path fill="none" stroke="none"/><text fill="#000000" stroke="none" font-family="Arial" font-size="13px" font-style="normal" font-weight="bold" text-decoration="undefined" x="436" y="90" text-anchor="middle" dominant-baseline="central" transform="matrix(1 0 0 1 -18 -11)">UC93 - Sospensione</text><text fill="#000000" stroke="none" font-family="Arial" font-size="13px" font-style="normal" font-weight="bold" text-decoration="undefined" x="436" y="103" text-anchor="middle" dominant-baseline="central" transform="matrix(1 0 0 1 -18 -11)">sensore</text></g></g><g><path fill="#C0C0C0" stroke="none" paint-order="stroke fill markers" d=" M 401 206 C 401 181.147184 443.9806592 161 497 161 C 550.0193408 161 593 181.147184 593 206 C 593 230.852816 550.0193408 251 497 251 C 443.9806592 251 401 230.852816 401 206 Z" fill-opacity="0.2"/></g><g><path fill="#ffffff" stroke="none" paint-order="stroke fill markers" d=" M 394 199 C 394 174.147184 436.9806592 154 490 154 C 543.0193408 154 586 174.147184 586 199 C 586 223.852816 543.0193408 244 490 244 C 436.9806592 244 394 223.852816 394 199 Z"/></g><g><path fill="none" stroke="#000000" paint-order="fill stroke markers" d=" M 394 199 C 394 174.147184 436.9806592 154 490 154 C 543.0193408 154 586 174.147184 586 199 C 586 223.852816 543.0193408 244 490 244 C 436.9806592 244 394 223.852816 394 199 Z" stroke-miterlimit="10" stroke-dasharray=""/></g><g><g><path fill="none" stroke="none"/><text fill="#000000" stroke="none" font-family="Arial" font-size="13px" font-style="normal" font-weight="bold" text-decoration="undefined" x="508" y="191.5" text-anchor="middle" dominant-baseline="central" transform="matrix(1 0 0 1 -18 -11)">UC95 - Selezione</text><text fill="#000000" stroke="none" font-family="Arial" font-size="13px" font-style="normal" font-weight="bold" text-decoration="undefined" x="508" y="204.5" text-anchor="middle" dominant-baseline="central" transform="matrix(1 0 0 1 -18 -11)">Gateway per invio</text><text fill="#000000" stroke="none" font-family="Arial" font-size="13px" font-style="normal" font-weight="bold" text-decoration="undefined" x="508" y="217.5" text-anchor="middle" dominant-baseline="central" transform="matrix(1 0 0 1 -18 -11)">comando da Super</text><text fill="#000000" stroke="none" font-family="Arial" font-size="13px" font-style="normal" font-weight="bold" text-decoration="undefined" x="508" y="230.5" text-anchor="middle" dominant-baseline="central" transform="matrix(1 0 0 1 -18 -11)">Admin</text></g></g><g><path fill="none" stroke="#000000" paint-order="fill stroke markers" d=" M 436 112 L 461 153" stroke-miterlimit="10" stroke-dasharray="3"/></g><g><path fill="none" stroke="#000000" paint-order="fill stroke markers" d=" M 452.11516585670955 146.51465326707813 L 461 153 L 459.30330618075664 142.13164087436647" stroke-miterlimit="10" stroke-dasharray=""/></g><g><rect fill="#ffffff" stroke="none" x="484" y="140" width="55.65625" height="13" transform="matrix(1 0 0 1 -18 -11)"/></g><g><g><path fill="none" stroke="none"/><text fill="#000000" stroke="none" font-family="Arial" font-size="13px" font-style="normal" font-weight="normal" text-decoration="undefined" x="511.828125" y="146.5" text-anchor="middle" dominant-baseline="central" transform="matrix(1 0 0 1 -18 -11)">«include»</text></g></g><g><path fill="#C0C0C0" stroke="none" paint-order="stroke fill markers" d=" M 161 173 C 161 153.1177472 195.0263552 137 237 137 C 278.9736448 137 313 153.1177472 313 173 C 313 192.8822528 278.9736448 209 237 209 C 195.0263552 209 161 192.8822528 161 173 Z" fill-opacity="0.2"/></g><g><path fill="#ffffff" stroke="none" paint-order="stroke fill markers" d=" M 154 166 C 154 146.1177472 188.0263552 130 230 130 C 271.9736448 130 306 146.1177472 306 166 C 306 185.8822528 271.9736448 202 230 202 C 188.0263552 202 154 185.8822528 154 166 Z"/></g><g><path fill="none" stroke="#000000" paint-order="fill stroke markers" d=" M 154 166 C 154 146.1177472 188.0263552 130 230 130 C 271.9736448 130 306 146.1177472 306 166 C 306 185.8822528 271.9736448 202 230 202 C 188.0263552 202 154 185.8822528 154 166 Z" stroke-miterlimit="10" stroke-dasharray=""/></g><g><g><path fill="none" stroke="none"/><text fill="#000000" stroke="none" font-family="Arial" font-size="13px" font-style="normal" font-weight="bold" text-decoration="undefined" x="248" y="165" text-anchor="middle" dominant-baseline="central" transform="matrix(1 0 0 1 -18 -11)">UC34 -</text><text fill="#000000" stroke="none" font-family="Arial" font-size="13px" font-style="normal" font-weight="bold" text-decoration="undefined" x="248" y="178" text-anchor="middle" dominant-baseline="central" transform="matrix(1 0 0 1 -18 -11)">Gateway non</text><text fill="#000000" stroke="none" font-family="Arial" font-size="13px" font-style="normal" font-weight="bold" text-decoration="undefined" x="248" y="191" text-anchor="middle" dominant-baseline="central" transform="matrix(1 0 0 1 -18 -11)">raggiungibile</text></g></g><g><path fill="none" stroke="#000000" paint-order="fill stroke markers" d=" M 354 112 L 307 132" stroke-miterlimit="10" stroke-dasharray="3"/></g><g><path fill="none" stroke="#000000" paint-order="fill stroke markers" d=" M 314.7029739649017 124.14734490149687 L 307 132 L 317.9994907963561 131.89415945541472" stroke-miterlimit="10" stroke-dasharray=""/></g><g><rect fill="#ffffff" stroke="none" x="333" y="154" width="53.49169921875" height="13" transform="matrix(1 0 0 1 -18 -11)"/></g><g><g><path fill="none" stroke="none"/><text fill="#000000" stroke="none" font-family="Arial" font-size="13px" font-style="normal" font-weight="normal" text-decoration="undefined" x="359.745849609375" y="160.5" text-anchor="middle" dominant-baseline="central" transform="matrix(1 0 0 1 -18 -11)">«extend»</text></g></g><g><path fill="#ffffff" stroke="none" paint-order="stroke fill markers" d=" M 47.930751953125 57.849999999999994 C 47.930751953125 52.962279519999996 51.888554321125 49 56.770751953125 49 C 61.652949585125 49 65.610751953125 52.962279519999996 65.610751953125 57.849999999999994 C 65.610751953125 62.73772047999999 61.652949585125 66.7 56.770751953125 66.7 C 51.888554321125 66.7 47.930751953125 62.73772047999999 47.930751953125 57.849999999999994 Z"/></g><g><path fill="none" stroke="#000000" paint-order="fill stroke markers" d=" M 47.930751953125 57.849999999999994 C 47.930751953125 52.962279519999996 51.888554321125 49 56.770751953125 49 C 61.652949585125 49 65.610751953125 52.962279519999996 65.610751953125 57.849999999999994 C 65.610751953125 62.73772047999999 61.652949585125 66.7 56.770751953125 66.7 C 51.888554321125 66.7 47.930751953125 62.73772047999999 47.930751953125 57.849999999999994 Z" stroke-miterlimit="10" stroke-dasharray=""/></g><g><path fill="none" stroke="#000000" paint-order="fill stroke markers" d=" M 56.770751953125 66.7 L 56.770751953125 84.3" stroke-miterlimit="10" stroke-dasharray=""/></g><g><path fill="none" stroke="#000000" paint-order="fill stroke markers" d=" M 47.410751953125 73.3 L 66.130751953125 73.3" stroke-miterlimit="10" stroke-dasharray=""/></g><g><path fill="none" stroke="#000000" paint-order="fill stroke markers" d=" M 56.770751953125 84.3 L 43.770751953125 102" stroke-miterlimit="10" stroke-dasharray=""/></g><g><path fill="none" stroke="#000000" paint-order="fill stroke markers" d=" M 56.770751953125 84.3 L 69.770751953125 102" stroke-miterlimit="10" stroke-dasharray=""/></g><g><g><path fill="none" stroke="none"/><text fill="#000000" stroke="none" font-family="Arial" font-size="13px" font-style="normal" font-weight="bold" text-decoration="undefined" x="75.270751953125" y="127.5" text-anchor="middle" dominant-baseline="central" transform="matrix(1 0 0 1 -18 -11)">Tenant admin</text></g></g><g><path fill="#ffffff" stroke="none" paint-order="stroke fill markers" d=" M 696.896328125 51.85 C 696.896328125 46.96227952 700.854130493 43 705.736328125 43 C 710.618525757 43 714.576328125 46.96227952 714.576328125 51.85 C 714.576328125 56.73772048000001 710.618525757 60.7 705.736328125 60.7 C 700.854130493 60.7 696.896328125 56.73772048000001 696.896328125 51.85 Z"/></g><g><path fill="none" stroke="#000000" paint-order="fill stroke markers" d=" M 696.896328125 51.85 C 696.896328125 46.96227952 700.854130493 43 705.736328125 43 C 710.618525757 43 714.576328125 46.96227952 714.576328125 51.85 C 714.576328125 56.73772048000001 710.618525757 60.7 705.736328125 60.7 C 700.854130493 60.7 696.896328125 56.73772048000001 696.896328125 51.85 Z" stroke-miterlimit="10" stroke-dasharray=""/></g><g><path fill="none" stroke="#000000" paint-order="fill stroke markers" d=" M 705.736328125 60.7 L 705.736328125 78.3" stroke-miterlimit="10" stroke-dasharray=""/></g><g><path fill="none" stroke="#000000" paint-order="fill stroke markers" d=" M 696.376328125 67.3 L 715.096328125 67.3" stroke-miterlimit="10" stroke-dasharray=""/></g><g><path fill="none" stroke="#000000" paint-order="fill stroke markers" d=" M 705.736328125 78.3 L 692.736328125 96" stroke-miterlimit="10" stroke-dasharray=""/></g><g><path fill="none" stroke="#000000" paint-order="fill stroke markers" d=" M 705.736328125 78.3 L 718.736328125 96" stroke-miterlimit="10" stroke-dasharray=""/></g><g><g><path fill="none" stroke="none"/><text fill="#000000" stroke="none" font-family="Arial" font-size="13px" font-style="normal" font-weight="bold" text-decoration="undefined" x="724.236328125" y="121.5" text-anchor="middle" dominant-baseline="central" transform="matrix(1 0 0 1 -18 -11)">Gateway</text></g></g><g><path fill="none" stroke="#000000" paint-order="fill stroke markers" d=" M 105 87 L 297 85" stroke-miterlimit="10" stroke-dasharray=""/></g><g><path fill="none" stroke="#000000" paint-order="fill stroke markers" d=" M 673 82 L 539 83" stroke-miterlimit="10" stroke-dasharray=""/></g></g></svg>