<svg version="1.1" xmlns="http://www.w3.org/2000/svg" xmlns:xlink="http://www.w3.org/1999/xlink" width="752.47265625" height="284"><defs/><g><g><rect fill="#C0C0C0" stroke="none" x="155" y="28" width="512" height="264" transform="matrix(1 0 0 1 -14 -11)" fill-opacity="0.2"/></g><g><rect fill="#ffffff" stroke="none" x="148" y="21" width="512" height="264" transform="matrix(1 0 0 1 -14 -11)"/></g><g><path fill="none" stroke="#000000" paint-order="fill stroke markers" d=" M 134 10 L 646 10 L 646 274 L 134 274 L 134 10 Z Z" stroke-miterlimit="10" stroke-dasharray=""/></g><g><g><path fill="none" stroke="none"/><text fill="#000000" stroke="none" font-family="Arial" font-size="13px" font-style="normal" font-weight="bold" text-decoration="undefined" x="404.5" y="34.5" text-anchor="middle" dominant-baseline="central" transform="matrix(1 0 0 1 -14 -11)">Sistema cloud</text></g></g><g><path fill="#C0C0C0" stroke="none" paint-order="stroke fill markers" d=" M 309 91.5 C 309 76.8644528 362.725824 65 429 65 C 495.274176 65 549 76.8644528 549 91.5 C 549 106.1355472 495.274176 118 429 118 C 362.725824 118 309 106.1355472 309 91.5 Z" fill-opacity="0.2"/></g><g><path fill="#ffffff" stroke="none" paint-order="stroke fill markers" d=" M 302 84.5 C 302 69.8644528 355.725824 58 422 58 C 488.274176 58 542 69.8644528 542 84.5 C 542 99.1355472 488.274176 111 422 111 C 355.725824 111 302 99.1355472 302 84.5 Z"/></g><g><path fill="none" stroke="#000000" paint-order="fill stroke markers" d=" M 302 84.5 C 302 69.8644528 355.725824 58 422 58 C 488.274176 58 542 69.8644528 542 84.5 C 542 99.1355472 488.274176 111 422 111 C 355.725824 111 302 99.1355472 302 84.5 Z" stroke-miterlimit="10" stroke-dasharray=""/></g><g><g><path fill="none" stroke="none"/><text fill="#000000" stroke="none" font-family="Arial" font-size="13px" font-style="normal" font-weight="bold" text-decoration="undefined" x="436" y="90" text-anchor="middle" dominant-baseline="central" transform="matrix(1 0 0 1 -14 -11)">UC93 - Sospensione</text><text fill="#000000" stroke="none" font-family="Arial" font-size="13px" font-style="normal" font-weight="bold" text-decoration="undefined" x="436" y="103" text-anchor="middle" dominant-baseline="central" transform="matrix(1 0 0 1 -14 -11)">sensore</text></g></g><g><path fill="#C0C0C0" stroke="none" paint-order="stroke fill markers" d=" M 457 185 C 457 160.147184 499.9806592 140 553 140 C 606.0193408 140 649 160.147184 649 185 C 649 209.852816 606.0193408 230 553 230 C 499.9806592 230 457 209.852816 457 185 Z" fill-opacity="0.2"/></g><g><path fill="#ffffff" stroke="none" paint-order="stroke fill markers" d=" M 450 178 C 450 153.147184 492.9806592 133 546 133 C 599.0193408 133 642 153.147184 642 178 C 642 202.852816 599.0193408 223 546 223 C 492.9806592 223 450 202.852816 450 178 Z"/></g><g><path fill="none" stroke="#000000" paint-order="fill stroke markers" d=" M 450 178 C 450 153.147184 492.9806592 133 546 133 C 599.0193408 133 642 153.147184 642 178 C 642 202.852816 599.0193408 223 546 223 C 492.9806592 223 450 202.852816 450 178 Z" stroke-miterlimit="10" stroke-dasharray=""/></g><g><g><path fill="none" stroke="none"/><text fill="#000000" stroke="none" font-family="Arial" font-size="13px" font-style="normal" font-weight="bold" text-decoration="undefined" x="560" y="170.5" text-anchor="middle" dominant-baseline="central" transform="matrix(1 0 0 1 -14 -11)">UC95 - Selezione</text><text fill="#000000" stroke="none" font-family="Arial" font-size="13px" font-style="normal" font-weight="bold" text-decoration="undefined" x="560" y="183.5" text-anchor="middle" dominant-baseline="central" transform="matrix(1 0 0 1 -14 -11)">Gateway per invio</text><text fill="#000000" stroke="none" font-family="Arial" font-size="13px" font-style="normal" font-weight="bold" text-decoration="undefined" x="560" y="196.5" text-anchor="middle" dominant-baseline="central" transform="matrix(1 0 0 1 -14 -11)">comando da Super</text><text fill="#000000" stroke="none" font-family="Arial" font-size="13px" font-style="normal" font-weight="bold" text-decoration="undefined" x="560" y="209.5" text-anchor="middle" dominant-baseline="central" transform="matrix(1 0 0 1 -14 -11)">Admin</text></g></g><g><path fill="none" stroke="#000000" paint-order="fill stroke markers" d=" M 459 112 L 485 132" stroke-miterlimit="10" stroke-dasharray="3"/></g><g><path fill="none" stroke="#000000" paint-order="fill stroke markers" d=" M 474.3782318405461 129.14027253626998 L 485 132 L 479.5114083882077 122.4671430243099" stroke-miterlimit="10" stroke-dasharray=""/></g><g><rect fill="#ffffff" stroke="none" x="503" y="113" width="55.65625" height="13" transform="matrix(1 0 0 1 -14 -11)"/></g><g><g><path fill="none" stroke="none"/><text fill="#000000" stroke="none" font-family="Arial" font-size="13px" font-style="normal" font-weight="normal" text-decoration="undefined" x="530.828125" y="119.5" text-anchor="middle" dominant-baseline="central" transform="matrix(1 0 0 1 -14 -11)">«include»</text></g></g><g><path fill="#ffffff" stroke="none" paint-order="stroke fill markers" d=" M 47.930751953125 57.849999999999994 C 47.930751953125 52.962279519999996 51.888554321125 49 56.770751953125 49 C 61.652949585125 49 65.610751953125 52.962279519999996 65.610751953125 57.849999999999994 C 65.610751953125 62.73772047999999 61.652949585125 66.7 56.770751953125 66.7 C 51.888554321125 66.7 47.930751953125 62.73772047999999 47.930751953125 57.849999999999994 Z"/></g><g><path fill="none" stroke="#000000" paint-order="fill stroke markers" d=" M 47.930751953125 57.849999999999994 C 47.930751953125 52.962279519999996 51.888554321125 49 56.770751953125 49 C 61.652949585125 49 65.610751953125 52.962279519999996 65.610751953125 57.849999999999994 C 65.610751953125 62.73772047999999 61.652949585125 66.7 56.770751953125 66.7 C 51.888554321125 66.7 47.930751953125 62.73772047999999 47.930751953125 57.849999999999994 Z" stroke-miterlimit="10" stroke-dasharray=""/></g><g><path fill="none" stroke="#000000" paint-order="fill stroke markers" d=" M 56.770751953125 66.7 L 56.770751953125 84.3" stroke-miterlimit="10" stroke-dasharray=""/></g><g><path fill="none" stroke="#000000" paint-order="fill stroke markers" d=" M 47.410751953125 73.3 L 66.130751953125 73.3" stroke-miterlimit="10" stroke-dasharray=""/></g><g><path fill="none" stroke="#000000" paint-order="fill stroke markers" d=" M 56.770751953125 84.3 L 43.770751953125 102" stroke-miterlimit="10" stroke-dasharray=""/></g><g><path fill="none" stroke="#000000" paint-order="fill stroke markers" d=" M 56.770751953125 84.3 L 69.770751953125 102" stroke-miterlimit="10" stroke-dasharray=""/></g><g><g><path fill="none" stroke="none"/><text fill="#000000" stroke="none" font-family="Arial" font-size="13px" font-style="normal" font-weight="bold" text-decoration="undefined" x="71.270751953125" y="127.5" text-anchor="middle" dominant-baseline="central" transform="matrix(1 0 0 1 -14 -11)">Super Admin</text></g></g><g><path fill="#ffffff" stroke="none" paint-order="stroke fill markers" d=" M 700.896328125 51.85 C 700.896328125 46.96227952 704.854130493 43 709.736328125 43 C 714.618525757 43 718.576328125 46.96227952 718.576328125 51.85 C 718.576328125 56.73772048000001 714.618525757 60.7 709.736328125 60.7 C 704.854130493 60.7 700.896328125 56.73772048000001 700.896328125 51.85 Z"/></g><g><path fill="none" stroke="#000000" paint-order="fill stroke markers" d=" M 700.896328125 51.85 C 700.896328125 46.96227952 704.854130493 43 709.736328125 43 C 714.618525757 43 718.576328125 46.96227952 718.576328125 51.85 C 718.576328125 56.73772048000001 714.618525757 60.7 709.736328125 60.7 C 704.854130493 60.7 700.896328125 56.73772048000001 700.896328125 51.85 Z" stroke-miterlimit="10" stroke-dasharray=""/></g><g><path fill="none" stroke="#000000" paint-order="fill stroke markers" d=" M 709.736328125 60.7 L 709.736328125 78.3" stroke-miterlimit="10" stroke-dasharray=""/></g><g><path fill="none" stroke="#000000" paint-order="fill stroke markers" d=" M 700.376328125 67.3 L 719.096328125 67.3" stroke-miterlimit="10" stroke-dasharray=""/></g><g><path fill="none" stroke="#000000" paint-order="fill stroke markers" d=" M 709.736328125 78.3 L 696.736328125 96" stroke-miterlimit="10" stroke-dasharray=""/></g><g><path fill="none" stroke="#000000" paint-order="fill stroke markers" d=" M 709.736328125 78.3 L 722.736328125 96" stroke-miterlimit="10" stroke-dasharray=""/></g><g><g><path fill="none" stroke="none"/><text fill="#000000" stroke="none" font-family="Arial" font-size="13px" font-style="normal" font-weight="bold" text-decoration="undefined" x="724.236328125" y="121.5" text-anchor="middle" dominant-baseline="central" transform="matrix(1 0 0 1 -14 -11)">Gateway</text></g></g><g><path fill="none" stroke="#000000" paint-order="fill stroke markers" d=" M 105 87 L 301 85" stroke-miterlimit="10" stroke-dasharray=""/></g><g><path fill="none" stroke="#000000" paint-order="fill stroke markers" d=" M 677 82 L 543 83" stroke-miterlimit="10" stroke-dasharray=""/></g><g><path fill="#C0C0C0" stroke="none" paint-order="stroke fill markers" d=" M 265 224 C 265 204.1177472 299.0263552 188 341 188 C 382.9736448 188 417 204.1177472 417 224 C 417 243.8822528 382.9736448 260 341 260 C 299.0263552 260 265 243.8822528 265 224 Z" fill-opacity="0.2"/></g><g><path fill="#ffffff" stroke="none" paint-order="stroke fill markers" d=" M 258 217 C 258 197.1177472 292.0263552 181 334 181 C 375.9736448 181 410 197.1177472 410 217 C 410 236.8822528 375.9736448 253 334 253 C 292.0263552 253 258 236.8822528 258 217 Z"/></g><g><path fill="none" stroke="#000000" paint-order="fill stroke markers" d=" M 258 217 C 258 197.1177472 292.0263552 181 334 181 C 375.9736448 181 410 197.1177472 410 217 C 410 236.8822528 375.9736448 253 334 253 C 292.0263552 253 258 236.8822528 258 217 Z" stroke-miterlimit="10" stroke-dasharray=""/></g><g><g><path fill="none" stroke="none"/><text fill="#000000" stroke="none" font-family="Arial" font-size="13px" font-style="normal" font-weight="bold" text-decoration="undefined" x="348" y="216" text-anchor="middle" dominant-baseline="central" transform="matrix(1 0 0 1 -14 -11)">UC34 -</text><text fill="#000000" stroke="none" font-family="Arial" font-size="13px" font-style="normal" font-weight="bold" text-decoration="undefined" x="348" y="229" text-anchor="middle" dominant-baseline="central" transform="matrix(1 0 0 1 -14 -11)">Gateway non</text><text fill="#000000" stroke="none" font-family="Arial" font-size="13px" font-style="normal" font-weight="bold" text-decoration="undefined" x="348" y="242" text-anchor="middle" dominant-baseline="central" transform="matrix(1 0 0 1 -14 -11)">raggiungibile</text></g></g><g><path fill="none" stroke="#000000" paint-order="fill stroke markers" d=" M 358 180 L 403 112" stroke-miterlimit="10" stroke-dasharray="3"/></g><g><path fill="none" stroke="#000000" paint-order="fill stroke markers" d=" M 400.902008549312 122.79807537817919 L 403 112 L 393.8811036946731 118.15188834202112" stroke-miterlimit="10" stroke-dasharray=""/></g><g><rect fill="#ffffff" stroke="none" x="391" y="163" width="53.49169921875" height="13" transform="matrix(1 0 0 1 -14 -11)"/></g><g><g><path fill="none" stroke="none"/><text fill="#000000" stroke="none" font-family="Arial" font-size="13px" font-style="normal" font-weight="normal" text-decoration="undefined" x="417.745849609375" y="169.5" text-anchor="middle" dominant-baseline="central" transform="matrix(1 0 0 1 -14 -11)">«extend»</text></g></g><g><path fill="#ffffff" stroke="none" paint-order="stroke fill markers" d=" M 154 125 L 263 125 L 273 135 L 273 175 L 154 175 L 154 125"/></g><g><path fill="none" stroke="#000000" paint-order="fill stroke markers" d=" M 154 125 L 263 125 L 273 135 L 273 175 L 154 175 L 154 125 L 154 125" stroke-miterlimit="10" stroke-dasharray=""/></g><g><path fill="none" stroke="#000000" paint-order="fill stroke markers" d=" M 263 125 L 263 135 L 273 135 L 263 125" stroke-miterlimit="10" stroke-dasharray=""/></g><g><g><path fill="none" stroke="none"/><text fill="#000000" stroke="none" font-family="Arial" font-size="13px" font-style="normal" font-weight="normal" text-decoration="undefined" x="173" y="141" text-anchor="start" dominant-baseline="text-before-edge" transform="matrix(1 0 0 1 -14 -11)">Condizione: il</text><text fill="#000000" stroke="none" font-family="Arial" font-size="13px" font-style="normal" font-weight="normal" text-decoration="undefined" x="173" y="154" text-anchor="start" dominant-baseline="text-before-edge" transform="matrix(1 0 0 1 -14 -11)">gateway non è</text><text fill="#000000" stroke="none" font-family="Arial" font-size="13px" font-style="normal" font-weight="normal" text-decoration="undefined" x="173" y="167" text-anchor="start" dominant-baseline="text-before-edge" transform="matrix(1 0 0 1 -14 -11)">raggiungibile</text></g></g><g><path fill="none" stroke="#000000" paint-order="fill stroke markers" d=" M 275 149 L 380 146" stroke-miterlimit="10" stroke-dasharray="3"/></g></g></svg>