<svg version="1.1" xmlns="http://www.w3.org/2000/svg" xmlns:xlink="http://www.w3.org/1999/xlink" width="734.47265625" height="316"><defs/><g><g><rect fill="#C0C0C0" stroke="none" x="175" y="31" width="474" height="296" transform="matrix(1 0 0 1 -12 -14)" fill-opacity="0.2"/></g><g><rect fill="#ffffff" stroke="none" x="168" y="24" width="474" height="296" transform="matrix(1 0 0 1 -12 -14)"/></g><g><path fill="none" stroke="#000000" paint-order="fill stroke markers" d=" M 156 10 L 630 10 L 630 306 L 156 306 L 156 10 Z Z" stroke-miterlimit="10" stroke-dasharray=""/></g><g><g><path fill="none" stroke="none"/><text fill="#000000" stroke="none" font-family="Arial" font-size="13px" font-style="normal" font-weight="bold" text-decoration="undefined" x="405.5" y="37.5" text-anchor="middle" dominant-baseline="central" transform="matrix(1 0 0 1 -12 -14)">Sistema cloud</text></g></g><g><path fill="#C0C0C0" stroke="none" paint-order="stroke fill markers" d=" M 281 80.5 C 281 65.8644528 336.5166848 54 405 54 C 473.4833152 54 529 65.8644528 529 80.5 C 529 95.1355472 473.4833152 107 405 107 C 336.5166848 107 281 95.1355472 281 80.5 Z" fill-opacity="0.2"/></g><g><path fill="#ffffff" stroke="none" paint-order="stroke fill markers" d=" M 274 73.5 C 274 58.864452799999995 329.5166848 47 398 47 C 466.4833152 47 522 58.864452799999995 522 73.5 C 522 88.1355472 466.4833152 100 398 100 C 329.5166848 100 274 88.1355472 274 73.5 Z"/></g><g><path fill="none" stroke="#000000" paint-order="fill stroke markers" d=" M 274 73.5 C 274 58.864452799999995 329.5166848 47 398 47 C 466.4833152 47 522 58.864452799999995 522 73.5 C 522 88.1355472 466.4833152 100 398 100 C 329.5166848 100 274 88.1355472 274 73.5 Z" stroke-miterlimit="10" stroke-dasharray=""/></g><g><g><path fill="none" stroke="none"/><text fill="#000000" stroke="none" font-family="Arial" font-size="13px" font-style="normal" font-weight="bold" text-decoration="undefined" x="410" y="82" text-anchor="middle" dominant-baseline="central" transform="matrix(1 0 0 1 -12 -14)">UC94 - Riattivazione</text><text fill="#000000" stroke="none" font-family="Arial" font-size="13px" font-style="normal" font-weight="bold" text-decoration="undefined" x="410" y="95" text-anchor="middle" dominant-baseline="central" transform="matrix(1 0 0 1 -12 -14)">sensore</text></g></g><g><path fill="#C0C0C0" stroke="none" paint-order="stroke fill markers" d=" M 419 198 C 419 173.147184 466.010096 153 524 153 C 581.989904 153 629 173.147184 629 198 C 629 222.852816 581.989904 243 524 243 C 466.010096 243 419 222.852816 419 198 Z" fill-opacity="0.2"/></g><g><path fill="#ffffff" stroke="none" paint-order="stroke fill markers" d=" M 412 191 C 412 166.147184 459.010096 146 517 146 C 574.989904 146 622 166.147184 622 191 C 622 215.852816 574.989904 236 517 236 C 459.010096 236 412 215.852816 412 191 Z"/></g><g><path fill="none" stroke="#000000" paint-order="fill stroke markers" d=" M 412 191 C 412 166.147184 459.010096 146 517 146 C 574.989904 146 622 166.147184 622 191 C 622 215.852816 574.989904 236 517 236 C 459.010096 236 412 215.852816 412 191 Z" stroke-miterlimit="10" stroke-dasharray=""/></g><g><g><path fill="none" stroke="none"/><text fill="#000000" stroke="none" font-family="Arial" font-size="13px" font-style="normal" font-weight="bold" text-decoration="undefined" x="529" y="186.5" text-anchor="middle" dominant-baseline="central" transform="matrix(1 0 0 1 -12 -14)">UC95 - Selezione</text><text fill="#000000" stroke="none" font-family="Arial" font-size="13px" font-style="normal" font-weight="bold" text-decoration="undefined" x="529" y="199.5" text-anchor="middle" dominant-baseline="central" transform="matrix(1 0 0 1 -12 -14)">Gateway per invio</text><text fill="#000000" stroke="none" font-family="Arial" font-size="13px" font-style="normal" font-weight="bold" text-decoration="undefined" x="529" y="212.5" text-anchor="middle" dominant-baseline="central" transform="matrix(1 0 0 1 -12 -14)">comando da Super</text><text fill="#000000" stroke="none" font-family="Arial" font-size="13px" font-style="normal" font-weight="bold" text-decoration="undefined" x="529" y="225.5" text-anchor="middle" dominant-baseline="central" transform="matrix(1 0 0 1 -12 -14)">Admin</text></g></g><g><path fill="none" stroke="#000000" paint-order="fill stroke markers" d=" M 426 101 L 471 145" stroke-miterlimit="10" stroke-dasharray="3"/></g><g><path fill="none" stroke="#000000" paint-order="fill stroke markers" d=" M 460.79067161666 140.90492808840577 L 471 145 L 466.6765677869148 134.88526155064514" stroke-miterlimit="10" stroke-dasharray=""/></g><g><rect fill="#ffffff" stroke="none" x="488" y="140" width="55.65625" height="13" transform="matrix(1 0 0 1 -12 -14)"/></g><g><g><path fill="none" stroke="none"/><text fill="#000000" stroke="none" font-family="Arial" font-size="13px" font-style="normal" font-weight="normal" text-decoration="undefined" x="515.828125" y="146.5" text-anchor="middle" dominant-baseline="central" transform="matrix(1 0 0 1 -12 -14)">«include»</text></g></g><g><path fill="#ffffff" stroke="none" paint-order="stroke fill markers" d=" M 47.930751953125 42.85 C 47.930751953125 37.96227952 51.888554321125 34 56.770751953125 34 C 61.652949585125 34 65.610751953125 37.96227952 65.610751953125 42.85 C 65.610751953125 47.73772048 61.652949585125 51.7 56.770751953125 51.7 C 51.888554321125 51.7 47.930751953125 47.73772048 47.930751953125 42.85 Z"/></g><g><path fill="none" stroke="#000000" paint-order="fill stroke markers" d=" M 47.930751953125 42.85 C 47.930751953125 37.96227952 51.888554321125 34 56.770751953125 34 C 61.652949585125 34 65.610751953125 37.96227952 65.610751953125 42.85 C 65.610751953125 47.73772048 61.652949585125 51.7 56.770751953125 51.7 C 51.888554321125 51.7 47.930751953125 47.73772048 47.930751953125 42.85 Z" stroke-miterlimit="10" stroke-dasharray=""/></g><g><path fill="none" stroke="#000000" paint-order="fill stroke markers" d=" M 56.770751953125 51.7 L 56.770751953125 69.3" stroke-miterlimit="10" stroke-dasharray=""/></g><g><path fill="none" stroke="#000000" paint-order="fill stroke markers" d=" M 47.410751953125 58.3 L 66.130751953125 58.3" stroke-miterlimit="10" stroke-dasharray=""/></g><g><path fill="none" stroke="#000000" paint-order="fill stroke markers" d=" M 56.770751953125 69.3 L 43.770751953125 87" stroke-miterlimit="10" stroke-dasharray=""/></g><g><path fill="none" stroke="#000000" paint-order="fill stroke markers" d=" M 56.770751953125 69.3 L 69.770751953125 87" stroke-miterlimit="10" stroke-dasharray=""/></g><g><g><path fill="none" stroke="none"/><text fill="#000000" stroke="none" font-family="Arial" font-size="13px" font-style="normal" font-weight="bold" text-decoration="undefined" x="69.270751953125" y="115.5" text-anchor="middle" dominant-baseline="central" transform="matrix(1 0 0 1 -12 -14)">Super Admin</text></g></g><g><path fill="#ffffff" stroke="none" paint-order="stroke fill markers" d=" M 682.896328125 43.85 C 682.896328125 38.96227952 686.854130493 35 691.736328125 35 C 696.618525757 35 700.576328125 38.96227952 700.576328125 43.85 C 700.576328125 48.73772048 696.618525757 52.7 691.736328125 52.7 C 686.854130493 52.7 682.896328125 48.73772048 682.896328125 43.85 Z"/></g><g><path fill="none" stroke="#000000" paint-order="fill stroke markers" d=" M 682.896328125 43.85 C 682.896328125 38.96227952 686.854130493 35 691.736328125 35 C 696.618525757 35 700.576328125 38.96227952 700.576328125 43.85 C 700.576328125 48.73772048 696.618525757 52.7 691.736328125 52.7 C 686.854130493 52.7 682.896328125 48.73772048 682.896328125 43.85 Z" stroke-miterlimit="10" stroke-dasharray=""/></g><g><path fill="none" stroke="#000000" paint-order="fill stroke markers" d=" M 691.736328125 52.7 L 691.736328125 70.3" stroke-miterlimit="10" stroke-dasharray=""/></g><g><path fill="none" stroke="#000000" paint-order="fill stroke markers" d=" M 682.376328125 59.3 L 701.096328125 59.3" stroke-miterlimit="10" stroke-dasharray=""/></g><g><path fill="none" stroke="#000000" paint-order="fill stroke markers" d=" M 691.736328125 70.3 L 678.736328125 88" stroke-miterlimit="10" stroke-dasharray=""/></g><g><path fill="none" stroke="#000000" paint-order="fill stroke markers" d=" M 691.736328125 70.3 L 704.736328125 88" stroke-miterlimit="10" stroke-dasharray=""/></g><g><g><path fill="none" stroke="none"/><text fill="#000000" stroke="none" font-family="Arial" font-size="13px" font-style="normal" font-weight="bold" text-decoration="undefined" x="704.236328125" y="116.5" text-anchor="middle" dominant-baseline="central" transform="matrix(1 0 0 1 -12 -14)">Gateway</text></g></g><g><path fill="none" stroke="#000000" paint-order="fill stroke markers" d=" M 105 73 L 273 73" stroke-miterlimit="10" stroke-dasharray=""/></g><g><path fill="none" stroke="#000000" paint-order="fill stroke markers" d=" M 659 74 L 523 73" stroke-miterlimit="10" stroke-dasharray=""/></g><g><path fill="#C0C0C0" stroke="none" paint-order="stroke fill markers" d=" M 253 240 C 253 220.1177472 288.81721600000003 204 333 204 C 377.18278399999997 204 413 220.1177472 413 240 C 413 259.8822528 377.18278399999997 276 333 276 C 288.81721600000003 276 253 259.8822528 253 240 Z" fill-opacity="0.2"/></g><g><path fill="#ffffff" stroke="none" paint-order="stroke fill markers" d=" M 246 233 C 246 213.1177472 281.81721600000003 197 326 197 C 370.18278399999997 197 406 213.1177472 406 233 C 406 252.8822528 370.18278399999997 269 326 269 C 281.81721600000003 269 246 252.8822528 246 233 Z"/></g><g><path fill="none" stroke="#000000" paint-order="fill stroke markers" d=" M 246 233 C 246 213.1177472 281.81721600000003 197 326 197 C 370.18278399999997 197 406 213.1177472 406 233 C 406 252.8822528 370.18278399999997 269 326 269 C 281.81721600000003 269 246 252.8822528 246 233 Z" stroke-miterlimit="10" stroke-dasharray=""/></g><g><g><path fill="none" stroke="none"/><text fill="#000000" stroke="none" font-family="Arial" font-size="13px" font-style="normal" font-weight="bold" text-decoration="undefined" x="338" y="235" text-anchor="middle" dominant-baseline="central" transform="matrix(1 0 0 1 -12 -14)">UC34 - Gateway</text><text fill="#000000" stroke="none" font-family="Arial" font-size="13px" font-style="normal" font-weight="bold" text-decoration="undefined" x="338" y="248" text-anchor="middle" dominant-baseline="central" transform="matrix(1 0 0 1 -12 -14)">non</text><text fill="#000000" stroke="none" font-family="Arial" font-size="13px" font-style="normal" font-weight="bold" text-decoration="undefined" x="338" y="261" text-anchor="middle" dominant-baseline="central" transform="matrix(1 0 0 1 -12 -14)">raggiungibile</text></g></g><g><path fill="none" stroke="#000000" paint-order="fill stroke markers" d=" M 343 196 L 385 101" stroke-miterlimit="10" stroke-dasharray="3"/></g><g><path fill="none" stroke="#000000" paint-order="fill stroke markers" d=" M 384.74075162827427 111.99694458846446 L 385 101 L 377.0406696275053 108.5926978091771" stroke-miterlimit="10" stroke-dasharray=""/></g><g><rect fill="#ffffff" stroke="none" x="383" y="151" width="53.49169921875" height="13" transform="matrix(1 0 0 1 -12 -14)"/></g><g><g><path fill="none" stroke="none"/><text fill="#000000" stroke="none" font-family="Arial" font-size="13px" font-style="normal" font-weight="normal" text-decoration="undefined" x="409.745849609375" y="157.5" text-anchor="middle" dominant-baseline="central" transform="matrix(1 0 0 1 -12 -14)">«extend»</text></g></g><g><path fill="#ffffff" stroke="none" paint-order="stroke fill markers" d=" M 172 106 L 281 106 L 291 116 L 291 156 L 172 156 L 172 106"/></g><g><path fill="none" stroke="#000000" paint-order="fill stroke markers" d=" M 172 106 L 281 106 L 291 116 L 291 156 L 172 156 L 172 106 L 172 106" stroke-miterlimit="10" stroke-dasharray=""/></g><g><path fill="none" stroke="#000000" paint-order="fill stroke markers" d=" M 281 106 L 281 116 L 291 116 L 281 106" stroke-miterlimit="10" stroke-dasharray=""/></g><g><g><path fill="none" stroke="none"/><text fill="#000000" stroke="none" font-family="Arial" font-size="13px" font-style="normal" font-weight="normal" text-decoration="undefined" x="189" y="125" text-anchor="start" dominant-baseline="text-before-edge" transform="matrix(1 0 0 1 -12 -14)">Condizione: il</text><text fill="#000000" stroke="none" font-family="Arial" font-size="13px" font-style="normal" font-weight="normal" text-decoration="undefined" x="189" y="138" text-anchor="start" dominant-baseline="text-before-edge" transform="matrix(1 0 0 1 -12 -14)">gateway non è</text><text fill="#000000" stroke="none" font-family="Arial" font-size="13px" font-style="normal" font-weight="normal" text-decoration="undefined" x="189" y="151" text-anchor="start" dominant-baseline="text-before-edge" transform="matrix(1 0 0 1 -12 -14)">raggiungibile</text></g></g><g><path fill="none" stroke="#000000" paint-order="fill stroke markers" d=" M 293 139 L 364 148" stroke-miterlimit="10" stroke-dasharray="3"/></g></g></svg>