<svg version="1.1" xmlns="http://www.w3.org/2000/svg" xmlns:xlink="http://www.w3.org/1999/xlink" width="695.47265625" height="316"><defs/><g><g><rect fill="#C0C0C0" stroke="none" x="173" y="28" width="424" height="296" transform="matrix(1 0 0 1 -12 -11)" fill-opacity="0.2"/></g><g><rect fill="#ffffff" stroke="none" x="166" y="21" width="424" height="296" transform="matrix(1 0 0 1 -12 -11)"/></g><g><path fill="none" stroke="#000000" paint-order="fill stroke markers" d=" M 154 10 L 578 10 L 578 306 L 154 306 L 154 10 Z Z" stroke-miterlimit="10" stroke-dasharray=""/></g><g><g><path fill="none" stroke="none"/><text fill="#000000" stroke="none" font-family="Arial" font-size="13px" font-style="normal" font-weight="bold" text-decoration="undefined" x="378.5" y="34.5" text-anchor="middle" dominant-baseline="central" transform="matrix(1 0 0 1 -12 -11)">Sistema cloud</text></g></g><g><path fill="#C0C0C0" stroke="none" paint-order="stroke fill markers" d=" M 281 83.5 C 281 68.8644528 336.5166848 57 405 57 C 473.4833152 57 529 68.8644528 529 83.5 C 529 98.1355472 473.4833152 110 405 110 C 336.5166848 110 281 98.1355472 281 83.5 Z" fill-opacity="0.2"/></g><g><path fill="#ffffff" stroke="none" paint-order="stroke fill markers" d=" M 274 76.5 C 274 61.864452799999995 329.5166848 50 398 50 C 466.4833152 50 522 61.864452799999995 522 76.5 C 522 91.1355472 466.4833152 103 398 103 C 329.5166848 103 274 91.1355472 274 76.5 Z"/></g><g><path fill="none" stroke="#000000" paint-order="fill stroke markers" d=" M 274 76.5 C 274 61.864452799999995 329.5166848 50 398 50 C 466.4833152 50 522 61.864452799999995 522 76.5 C 522 91.1355472 466.4833152 103 398 103 C 329.5166848 103 274 91.1355472 274 76.5 Z" stroke-miterlimit="10" stroke-dasharray=""/></g><g><g><path fill="none" stroke="none"/><text fill="#000000" stroke="none" font-family="Arial" font-size="13px" font-style="normal" font-weight="bold" text-decoration="undefined" x="410" y="82" text-anchor="middle" dominant-baseline="central" transform="matrix(1 0 0 1 -12 -11)">UC94 - Riattivazione</text><text fill="#000000" stroke="none" font-family="Arial" font-size="13px" font-style="normal" font-weight="bold" text-decoration="undefined" x="410" y="95" text-anchor="middle" dominant-baseline="central" transform="matrix(1 0 0 1 -12 -11)">sensore</text></g></g><g><path fill="#C0C0C0" stroke="none" paint-order="stroke fill markers" d=" M 185 173 C 185 153.1177472 220.817216 137 265 137 C 309.18278399999997 137 345 153.1177472 345 173 C 345 192.8822528 309.18278399999997 209 265 209 C 220.817216 209 185 192.8822528 185 173 Z" fill-opacity="0.2"/></g><g><path fill="#ffffff" stroke="none" paint-order="stroke fill markers" d=" M 178 166 C 178 146.1177472 213.817216 130 258 130 C 302.18278399999997 130 338 146.1177472 338 166 C 338 185.8822528 302.18278399999997 202 258 202 C 213.817216 202 178 185.8822528 178 166 Z"/></g><g><path fill="none" stroke="#000000" paint-order="fill stroke markers" d=" M 178 166 C 178 146.1177472 213.817216 130 258 130 C 302.18278399999997 130 338 146.1177472 338 166 C 338 185.8822528 302.18278399999997 202 258 202 C 213.817216 202 178 185.8822528 178 166 Z" stroke-miterlimit="10" stroke-dasharray=""/></g><g><g><path fill="none" stroke="none"/><text fill="#000000" stroke="none" font-family="Arial" font-size="13px" font-style="normal" font-weight="bold" text-decoration="undefined" x="270" y="165" text-anchor="middle" dominant-baseline="central" transform="matrix(1 0 0 1 -12 -11)">UC34 - Gateway</text><text fill="#000000" stroke="none" font-family="Arial" font-size="13px" font-style="normal" font-weight="bold" text-decoration="undefined" x="270" y="178" text-anchor="middle" dominant-baseline="central" transform="matrix(1 0 0 1 -12 -11)">non</text><text fill="#000000" stroke="none" font-family="Arial" font-size="13px" font-style="normal" font-weight="bold" text-decoration="undefined" x="270" y="191" text-anchor="middle" dominant-baseline="central" transform="matrix(1 0 0 1 -12 -11)">raggiungibile</text></g></g><g><path fill="#C0C0C0" stroke="none" paint-order="stroke fill markers" d=" M 417 216.5 C 417 181.42991519999998 451.0263552 153 493 153 C 534.9736448 153 569 181.42991519999998 569 216.5 C 569 251.57008480000002 534.9736448 280 493 280 C 451.0263552 280 417 251.57008480000002 417 216.5 Z" fill-opacity="0.2"/></g><g><path fill="#ffffff" stroke="none" paint-order="stroke fill markers" d=" M 410 209.5 C 410 174.42991519999998 444.0263552 146 486 146 C 527.9736448 146 562 174.42991519999998 562 209.5 C 562 244.57008480000002 527.9736448 273 486 273 C 444.0263552 273 410 244.57008480000002 410 209.5 Z"/></g><g><path fill="none" stroke="#000000" paint-order="fill stroke markers" d=" M 410 209.5 C 410 174.42991519999998 444.0263552 146 486 146 C 527.9736448 146 562 174.42991519999998 562 209.5 C 562 244.57008480000002 527.9736448 273 486 273 C 444.0263552 273 410 244.57008480000002 410 209.5 Z" stroke-miterlimit="10" stroke-dasharray=""/></g><g><g><path fill="none" stroke="none"/><text fill="#000000" stroke="none" font-family="Arial" font-size="13px" font-style="normal" font-weight="bold" text-decoration="undefined" x="498" y="189" text-anchor="middle" dominant-baseline="central" transform="matrix(1 0 0 1 -12 -11)">UC95 -</text><text fill="#000000" stroke="none" font-family="Arial" font-size="13px" font-style="normal" font-weight="bold" text-decoration="undefined" x="498" y="202" text-anchor="middle" dominant-baseline="central" transform="matrix(1 0 0 1 -12 -11)">Selezione</text><text fill="#000000" stroke="none" font-family="Arial" font-size="13px" font-style="normal" font-weight="bold" text-decoration="undefined" x="498" y="215" text-anchor="middle" dominant-baseline="central" transform="matrix(1 0 0 1 -12 -11)">Gateway per</text><text fill="#000000" stroke="none" font-family="Arial" font-size="13px" font-style="normal" font-weight="bold" text-decoration="undefined" x="498" y="228" text-anchor="middle" dominant-baseline="central" transform="matrix(1 0 0 1 -12 -11)">invio comando</text><text fill="#000000" stroke="none" font-family="Arial" font-size="13px" font-style="normal" font-weight="bold" text-decoration="undefined" x="498" y="241" text-anchor="middle" dominant-baseline="central" transform="matrix(1 0 0 1 -12 -11)">da Super</text><text fill="#000000" stroke="none" font-family="Arial" font-size="13px" font-style="normal" font-weight="bold" text-decoration="undefined" x="498" y="254" text-anchor="middle" dominant-baseline="central" transform="matrix(1 0 0 1 -12 -11)">Admin</text></g></g><g><path fill="none" stroke="#000000" paint-order="fill stroke markers" d=" M 417 104 L 444 145" stroke-miterlimit="10" stroke-dasharray="3"/></g><g><path fill="none" stroke="#000000" paint-order="fill stroke markers" d=" M 434.8949580824876 138.82762511829176 L 444 145 L 441.92629125202063 134.19723498225784" stroke-miterlimit="10" stroke-dasharray=""/></g><g><rect fill="#ffffff" stroke="none" x="467" y="150" width="55.65625" height="13" transform="matrix(1 0 0 1 -12 -11)"/></g><g><g><path fill="none" stroke="none"/><text fill="#000000" stroke="none" font-family="Arial" font-size="13px" font-style="normal" font-weight="normal" text-decoration="undefined" x="494.828125" y="156.5" text-anchor="middle" dominant-baseline="central" transform="matrix(1 0 0 1 -12 -11)">«include»</text></g></g><g><path fill="none" stroke="#000000" paint-order="fill stroke markers" d=" M 354 104 L 316 129" stroke-miterlimit="10" stroke-dasharray="3"/></g><g><path fill="none" stroke="#000000" paint-order="fill stroke markers" d=" M 322.17645175538644 119.89772315772677 L 316 129 L 326.803692599314 126.93112924049663" stroke-miterlimit="10" stroke-dasharray=""/></g><g><rect fill="#ffffff" stroke="none" x="337" y="145" width="53.49169921875" height="13" transform="matrix(1 0 0 1 -12 -11)"/></g><g><g><path fill="none" stroke="none"/><text fill="#000000" stroke="none" font-family="Arial" font-size="13px" font-style="normal" font-weight="normal" text-decoration="undefined" x="363.745849609375" y="151.5" text-anchor="middle" dominant-baseline="central" transform="matrix(1 0 0 1 -12 -11)">«extend»</text></g></g><g><path fill="#ffffff" stroke="none" paint-order="stroke fill markers" d=" M 47.930751953125 45.85 C 47.930751953125 40.96227952 51.888554321125 37 56.770751953125 37 C 61.652949585125 37 65.610751953125 40.96227952 65.610751953125 45.85 C 65.610751953125 50.73772048 61.652949585125 54.7 56.770751953125 54.7 C 51.888554321125 54.7 47.930751953125 50.73772048 47.930751953125 45.85 Z"/></g><g><path fill="none" stroke="#000000" paint-order="fill stroke markers" d=" M 47.930751953125 45.85 C 47.930751953125 40.96227952 51.888554321125 37 56.770751953125 37 C 61.652949585125 37 65.610751953125 40.96227952 65.610751953125 45.85 C 65.610751953125 50.73772048 61.652949585125 54.7 56.770751953125 54.7 C 51.888554321125 54.7 47.930751953125 50.73772048 47.930751953125 45.85 Z" stroke-miterlimit="10" stroke-dasharray=""/></g><g><path fill="none" stroke="#000000" paint-order="fill stroke markers" d=" M 56.770751953125 54.7 L 56.770751953125 72.3" stroke-miterlimit="10" stroke-dasharray=""/></g><g><path fill="none" stroke="#000000" paint-order="fill stroke markers" d=" M 47.410751953125 61.3 L 66.130751953125 61.3" stroke-miterlimit="10" stroke-dasharray=""/></g><g><path fill="none" stroke="#000000" paint-order="fill stroke markers" d=" M 56.770751953125 72.3 L 43.770751953125 90" stroke-miterlimit="10" stroke-dasharray=""/></g><g><path fill="none" stroke="#000000" paint-order="fill stroke markers" d=" M 56.770751953125 72.3 L 69.770751953125 90" stroke-miterlimit="10" stroke-dasharray=""/></g><g><g><path fill="none" stroke="none"/><text fill="#000000" stroke="none" font-family="Arial" font-size="13px" font-style="normal" font-weight="bold" text-decoration="undefined" x="69.270751953125" y="115.5" text-anchor="middle" dominant-baseline="central" transform="matrix(1 0 0 1 -12 -11)">Tenant admin</text></g></g><g><path fill="#ffffff" stroke="none" paint-order="stroke fill markers" d=" M 643.896328125 42.85 C 643.896328125 37.96227952 647.854130493 34 652.736328125 34 C 657.618525757 34 661.576328125 37.96227952 661.576328125 42.85 C 661.576328125 47.73772048 657.618525757 51.7 652.736328125 51.7 C 647.854130493 51.7 643.896328125 47.73772048 643.896328125 42.85 Z"/></g><g><path fill="none" stroke="#000000" paint-order="fill stroke markers" d=" M 643.896328125 42.85 C 643.896328125 37.96227952 647.854130493 34 652.736328125 34 C 657.618525757 34 661.576328125 37.96227952 661.576328125 42.85 C 661.576328125 47.73772048 657.618525757 51.7 652.736328125 51.7 C 647.854130493 51.7 643.896328125 47.73772048 643.896328125 42.85 Z" stroke-miterlimit="10" stroke-dasharray=""/></g><g><path fill="none" stroke="#000000" paint-order="fill stroke markers" d=" M 652.736328125 51.7 L 652.736328125 69.3" stroke-miterlimit="10" stroke-dasharray=""/></g><g><path fill="none" stroke="#000000" paint-order="fill stroke markers" d=" M 643.376328125 58.3 L 662.096328125 58.3" stroke-miterlimit="10" stroke-dasharray=""/></g><g><path fill="none" stroke="#000000" paint-order="fill stroke markers" d=" M 652.736328125 69.3 L 639.736328125 87" stroke-miterlimit="10" stroke-dasharray=""/></g><g><path fill="none" stroke="#000000" paint-order="fill stroke markers" d=" M 652.736328125 69.3 L 665.736328125 87" stroke-miterlimit="10" stroke-dasharray=""/></g><g><g><path fill="none" stroke="none"/><text fill="#000000" stroke="none" font-family="Arial" font-size="13px" font-style="normal" font-weight="bold" text-decoration="undefined" x="665.236328125" y="112.5" text-anchor="middle" dominant-baseline="central" transform="matrix(1 0 0 1 -12 -11)">Gateway</text></g></g><g><path fill="none" stroke="#000000" paint-order="fill stroke markers" d=" M 105 76 L 273 76" stroke-miterlimit="10" stroke-dasharray=""/></g><g><path fill="none" stroke="#000000" paint-order="fill stroke markers" d=" M 620 73 L 523 75" stroke-miterlimit="10" stroke-dasharray=""/></g></g></svg>