<svg version="1.1" xmlns="http://www.w3.org/2000/svg" xmlns:xlink="http://www.w3.org/1999/xlink" width="773" height="252"><defs/><g><g><rect fill="#C0C0C0" stroke="none" x="190" y="28" width="592" height="232" transform="matrix(1 0 0 1 -13 -11)" fill-opacity="0.2"/></g><g><rect fill="#ffffff" stroke="none" x="183" y="21" width="592" height="232" transform="matrix(1 0 0 1 -13 -11)"/></g><g><path fill="none" stroke="#000000" paint-order="fill stroke markers" d=" M 170 10 L 762 10 L 762 242 L 170 242 L 170 10 Z Z" stroke-miterlimit="10" stroke-dasharray=""/></g><g><g><path fill="none" stroke="none"/><text fill="#000000" stroke="none" font-family="Arial" font-size="13px" font-style="normal" font-weight="bold" text-decoration="undefined" x="479.5" y="34.5" text-anchor="middle" dominant-baseline="central" transform="matrix(1 0 0 1 -13 -11)">Sistema cloud</text></g></g><g><path fill="#C0C0C0" stroke="none" paint-order="stroke fill markers" d=" M 209 91.5 C 209 76.8644528 264.5166848 65 333 65 C 401.4833152 65 457 76.8644528 457 91.5 C 457 106.1355472 401.4833152 118 333 118 C 264.5166848 118 209 106.1355472 209 91.5 Z" fill-opacity="0.2"/></g><g><path fill="#ffffff" stroke="none" paint-order="stroke fill markers" d=" M 202 84.5 C 202 69.8644528 257.5166848 58 326 58 C 394.4833152 58 450 69.8644528 450 84.5 C 450 99.1355472 394.4833152 111 326 111 C 257.5166848 111 202 99.1355472 202 84.5 Z"/></g><g><path fill="none" stroke="#000000" paint-order="fill stroke markers" d=" M 202 84.5 C 202 69.8644528 257.5166848 58 326 58 C 394.4833152 58 450 69.8644528 450 84.5 C 450 99.1355472 394.4833152 111 326 111 C 257.5166848 111 202 99.1355472 202 84.5 Z" stroke-miterlimit="10" stroke-dasharray=""/></g><g><g><path fill="none" stroke="none"/><text fill="#000000" stroke="none" font-family="Arial" font-size="13px" font-style="normal" font-weight="bold" text-decoration="undefined" x="339" y="90" text-anchor="middle" dominant-baseline="central" transform="matrix(1 0 0 1 -13 -11)">UC97 - Visualizzazione</text><text fill="#000000" stroke="none" font-family="Arial" font-size="13px" font-style="normal" font-weight="bold" text-decoration="undefined" x="339" y="103" text-anchor="middle" dominant-baseline="central" transform="matrix(1 0 0 1 -13 -11)">lista tenant</text></g></g><g><path fill="#C0C0C0" stroke="none" paint-order="stroke fill markers" d=" M 209 187.5 C 209 172.8644528 264.5166848 161 333 161 C 401.4833152 161 457 172.8644528 457 187.5 C 457 202.1355472 401.4833152 214 333 214 C 264.5166848 214 209 202.1355472 209 187.5 Z" fill-opacity="0.2"/></g><g><path fill="#ffffff" stroke="none" paint-order="stroke fill markers" d=" M 202 180.5 C 202 165.8644528 257.5166848 154 326 154 C 394.4833152 154 450 165.8644528 450 180.5 C 450 195.1355472 394.4833152 207 326 207 C 257.5166848 207 202 195.1355472 202 180.5 Z"/></g><g><path fill="none" stroke="#000000" paint-order="fill stroke markers" d=" M 202 180.5 C 202 165.8644528 257.5166848 154 326 154 C 394.4833152 154 450 165.8644528 450 180.5 C 450 195.1355472 394.4833152 207 326 207 C 257.5166848 207 202 195.1355472 202 180.5 Z" stroke-miterlimit="10" stroke-dasharray=""/></g><g><g><path fill="none" stroke="none"/><text fill="#000000" stroke="none" font-family="Arial" font-size="13px" font-style="normal" font-weight="bold" text-decoration="undefined" x="339" y="186" text-anchor="middle" dominant-baseline="central" transform="matrix(1 0 0 1 -13 -11)">UC98 - Visualizzazione</text><text fill="#000000" stroke="none" font-family="Arial" font-size="13px" font-style="normal" font-weight="bold" text-decoration="undefined" x="339" y="199" text-anchor="middle" dominant-baseline="central" transform="matrix(1 0 0 1 -13 -11)">singolo tenat in lista</text></g></g><g><path fill="none" stroke="#000000" paint-order="fill stroke markers" d=" M 326 112 L 326 153" stroke-miterlimit="10" stroke-dasharray="3"/></g><g><path fill="none" stroke="#000000" paint-order="fill stroke markers" d=" M 321.790482243984 142.83732514237585 L 326 153 L 330.209517756016 142.83732514237585" stroke-miterlimit="10" stroke-dasharray=""/></g><g><rect fill="#ffffff" stroke="none" x="341" y="136" width="55.65625" height="13" transform="matrix(1 0 0 1 -13 -11)"/></g><g><g><path fill="none" stroke="none"/><text fill="#000000" stroke="none" font-family="Arial" font-size="13px" font-style="normal" font-weight="normal" text-decoration="undefined" x="368.828125" y="142.5" text-anchor="middle" dominant-baseline="central" transform="matrix(1 0 0 1 -13 -11)">«include»</text></g></g><g><path fill="#ffffff" stroke="none" paint-order="stroke fill markers" d=" M 47.930751953125 52.85 C 47.930751953125 47.96227952 51.888554321125 44 56.770751953125 44 C 61.652949585125 44 65.610751953125 47.96227952 65.610751953125 52.85 C 65.610751953125 57.73772048000001 61.652949585125 61.7 56.770751953125 61.7 C 51.888554321125 61.7 47.930751953125 57.73772048000001 47.930751953125 52.85 Z"/></g><g><path fill="none" stroke="#000000" paint-order="fill stroke markers" d=" M 47.930751953125 52.85 C 47.930751953125 47.96227952 51.888554321125 44 56.770751953125 44 C 61.652949585125 44 65.610751953125 47.96227952 65.610751953125 52.85 C 65.610751953125 57.73772048000001 61.652949585125 61.7 56.770751953125 61.7 C 51.888554321125 61.7 47.930751953125 57.73772048000001 47.930751953125 52.85 Z" stroke-miterlimit="10" stroke-dasharray=""/></g><g><path fill="none" stroke="#000000" paint-order="fill stroke markers" d=" M 56.770751953125 61.7 L 56.770751953125 79.3" stroke-miterlimit="10" stroke-dasharray=""/></g><g><path fill="none" stroke="#000000" paint-order="fill stroke markers" d=" M 47.410751953125 68.3 L 66.130751953125 68.3" stroke-miterlimit="10" stroke-dasharray=""/></g><g><path fill="none" stroke="#000000" paint-order="fill stroke markers" d=" M 56.770751953125 79.3 L 43.770751953125 97" stroke-miterlimit="10" stroke-dasharray=""/></g><g><path fill="none" stroke="#000000" paint-order="fill stroke markers" d=" M 56.770751953125 79.3 L 69.770751953125 97" stroke-miterlimit="10" stroke-dasharray=""/></g><g><g><path fill="none" stroke="none"/><text fill="#000000" stroke="none" font-family="Arial" font-size="13px" font-style="normal" font-weight="bold" text-decoration="undefined" x="70.270751953125" y="122.5" text-anchor="middle" dominant-baseline="central" transform="matrix(1 0 0 1 -13 -11)">Super Admin</text></g></g><g><path fill="none" stroke="#000000" paint-order="fill stroke markers" d=" M 105 83 L 201 84" stroke-miterlimit="10" stroke-dasharray=""/></g><g><path fill="none" stroke="#000000" paint-order="fill stroke markers" d=" M 451 181 L 497 181" stroke-miterlimit="10" stroke-dasharray="3"/></g><g><path fill="none" stroke="#000000" paint-order="fill stroke markers" d=" M 486.83732514237585 185.209517756016 L 497 181 L 486.83732514237585 176.790482243984" stroke-miterlimit="10" stroke-dasharray=""/></g><g><rect fill="#ffffff" stroke="none" x="460" y="156" width="55.65625" height="13" transform="matrix(1 0 0 1 -13 -11)"/></g><g><g><path fill="none" stroke="none"/><text fill="#000000" stroke="none" font-family="Arial" font-size="13px" font-style="normal" font-weight="normal" text-decoration="undefined" x="487.828125" y="162.5" text-anchor="middle" dominant-baseline="central" transform="matrix(1 0 0 1 -13 -11)">«include»</text></g></g><g><path fill="#C0C0C0" stroke="none" paint-order="stroke fill markers" d=" M 505 189 C 505 169.1177472 560.5166848 153 629 153 C 697.4833152 153 753 169.1177472 753 189 C 753 208.8822528 697.4833152 225 629 225 C 560.5166848 225 505 208.8822528 505 189 Z" fill-opacity="0.2"/></g><g><path fill="#ffffff" stroke="none" paint-order="stroke fill markers" d=" M 498 182 C 498 162.1177472 553.5166848 146 622 146 C 690.4833152 146 746 162.1177472 746 182 C 746 201.8822528 690.4833152 218 622 218 C 553.5166848 218 498 201.8822528 498 182 Z"/></g><g><path fill="none" stroke="#000000" paint-order="fill stroke markers" d=" M 498 182 C 498 162.1177472 553.5166848 146 622 146 C 690.4833152 146 746 162.1177472 746 182 C 746 201.8822528 690.4833152 218 622 218 C 553.5166848 218 498 201.8822528 498 182 Z" stroke-miterlimit="10" stroke-dasharray=""/></g><g><g><path fill="none" stroke="none"/><text fill="#000000" stroke="none" font-family="Arial" font-size="13px" font-style="normal" font-weight="bold" text-decoration="undefined" x="635" y="187.5" text-anchor="middle" dominant-baseline="central" transform="matrix(1 0 0 1 -13 -11)">UC100.1 Visualizzazione</text><text fill="#000000" stroke="none" font-family="Arial" font-size="13px" font-style="normal" font-weight="bold" text-decoration="undefined" x="635" y="200.5" text-anchor="middle" dominant-baseline="central" transform="matrix(1 0 0 1 -13 -11)">identificativo del tenant</text></g></g></g></svg>