<svg width="3286" height="1788" xmlns="http://www.w3.org/2000/svg" xmlns:xlink="http://www.w3.org/1999/xlink" xml:space="preserve" overflow="hidden"><defs><clipPath id="clip0"><rect x="884" y="499" width="3286" height="1788"/></clipPath><clipPath id="clip1"><rect x="884" y="499" width="3286" height="1788"/></clipPath></defs><g clip-path="url(#clip0)" transform="translate(-884 -499)"><g clip-path="url(#clip1)"><rect x="889" y="502" width="3277" height="1780" fill="#FFFFFF" fill-opacity="1"/><g><path d="M1158.5 1871.56 4115.5 1871.56M1158.5 1671.56 4115.5 1671.56M1158.5 1471.55 4115.5 1471.55M1158.5 1271.54 4115.5 1271.54M1158.5 1071.54 4115.5 1071.54M1158.5 871.529 4115.5 871.529M1158.5 671.5 4115.5 671.5" stroke="#D9D9D9" stroke-width="3.4375" stroke-linecap="butt" stroke-linejoin="round" stroke-miterlimit="10" stroke-opacity="1" fill="none" fill-rule="nonzero"/></g><g><path d="M1158.5 2071.5 4115.5 2071.5" stroke="#D9D9D9" stroke-width="3.4375" stroke-linecap="butt" stroke-linejoin="round" stroke-miterlimit="10" stroke-opacity="1" fill="none" fill-rule="evenodd"/></g><g><path d="M1246 2047C1303.98 2039 1361.96 2029.51 1419.94 2023.01 1477.92 2016.51 1535.9 2015.35 1593.88 2008.02 1651.85 2000.69 1709.83 1987.69 1767.81 1979.03 1825.79 1970.37 1883.77 1965.95 1941.75 1956.04 1999.73 1946.13 2057.71 1929.97 2115.69 1919.56 2173.67 1909.15 2231.65 1906.56 2289.62 1893.57 2347.6 1880.58 2405.58 1864.08 2463.56 1841.59 2521.54 1819.1 2579.52 1778.87 2637.5 1758.63 2695.48 1738.39 2753.46 1752.38 2811.44 1720.15 2869.42 1687.91 2927.4 1615.2 2985.38 1565.22 3043.35 1515.24 3101.33 1458.6 3159.31 1420.29 3217.29 1381.97 3275.27 1371.23 3333.25 1335.33 3391.23 1299.43 3449.21 1245.28 3507.19 1204.89 3565.17 1164.49 3623.15 1124.17 3681.12 1092.94 3739.1 1061.7 3797.08 1040.13 3855.06 1017.47 3913.04 994.816 3971.02 977.157 4029 957" stroke="#FFC000" stroke-width="10.3125" stroke-linecap="round" stroke-linejoin="round" stroke-miterlimit="10" stroke-opacity="1" fill="none" fill-rule="nonzero"/></g><g><path d="M1245.82 781.873 1266.44 781.162 1266.44 781.162C1269.28 781.064 1271.67 783.292 1271.77 786.138 1271.86 788.984 1269.64 791.37 1266.79 791.468L1246.18 792.179C1243.33 792.277 1240.95 790.049 1240.85 787.203 1240.75 784.357 1242.98 781.971 1245.82 781.873ZM1287.05 780.451 1307.66 779.741 1307.66 779.741C1310.51 779.643 1312.89 781.87 1312.99 784.716 1313.09 787.562 1310.86 789.949 1308.02 790.047L1308.02 790.047 1287.4 790.758C1284.56 790.856 1282.17 788.628 1282.07 785.782 1281.97 782.936 1284.2 780.549 1287.05 780.451ZM1328.27 779.03 1348.89 778.32C1351.73 778.221 1354.12 780.449 1354.22 783.295 1354.32 786.141 1352.09 788.528 1349.24 788.626L1349.24 788.626 1328.63 789.336C1325.78 789.435 1323.4 787.207 1323.3 784.361 1323.2 781.515 1325.43 779.128 1328.27 779.03ZM1369.5 777.609 1390.11 776.898C1392.96 776.8 1395.34 779.028 1395.44 781.874 1395.54 784.72 1393.31 787.107 1390.47 787.205L1390.47 787.205 1369.85 787.915C1367.01 788.013 1364.62 785.786 1364.52 782.94 1364.43 780.094 1366.65 777.707 1369.5 777.609ZM1410.72 776.188 1419.87 775.872 1431.07 774.964C1433.91 774.735 1436.4 776.851 1436.62 779.689 1436.85 782.528 1434.74 785.014 1431.9 785.243L1431.9 785.243 1420.22 786.179 1411.08 786.494 1411.08 786.494C1408.23 786.592 1405.85 784.365 1405.75 781.518 1405.65 778.672 1407.88 776.286 1410.72 776.188ZM1451.63 773.307 1472.19 771.65C1475.03 771.421 1477.51 773.537 1477.74 776.375 1477.97 779.214 1475.85 781.7 1473.02 781.929L1452.46 783.586 1452.46 783.586C1449.62 783.815 1447.13 781.699 1446.9 778.861 1446.67 776.022 1448.79 773.536 1451.63 773.307ZM1492.75 769.993 1513.3 768.336C1516.14 768.107 1518.63 770.222 1518.86 773.061 1519.09 775.899 1516.97 778.386 1514.13 778.615L1493.57 780.272C1490.74 780.501 1488.25 778.385 1488.02 775.547 1487.79 772.708 1489.91 770.222 1492.75 769.993ZM1533.86 766.679 1554.42 765.021C1557.26 764.793 1559.75 766.908 1559.97 769.747 1560.2 772.585 1558.09 775.072 1555.25 775.301L1534.69 776.958C1531.85 777.187 1529.37 775.071 1529.14 772.232 1528.91 769.394 1531.02 766.907 1533.86 766.679ZM1574.98 763.364 1593.64 761.86 1596.02 761.866 1596.02 761.866C1598.86 761.899 1601.15 764.235 1601.11 767.082 1601.08 769.93 1598.74 772.211 1595.9 772.178L1594.47 772.139 1575.81 773.643 1575.81 773.643C1572.97 773.872 1570.48 771.757 1570.25 768.918 1570.02 766.08 1572.14 763.593 1574.98 763.364ZM1616.64 762.106 1637.26 762.346C1640.11 762.379 1642.39 764.715 1642.36 767.562 1642.33 770.41 1639.99 772.691 1637.14 772.658L1616.52 772.418C1613.67 772.385 1611.39 770.05 1611.42 767.202 1611.46 764.355 1613.79 762.073 1616.64 762.106ZM1657.89 762.586 1678.51 762.826 1678.51 762.826C1681.36 762.859 1683.64 765.195 1683.61 768.042 1683.57 770.89 1681.24 773.171 1678.39 773.138L1657.77 772.898 1657.77 772.898C1654.92 772.865 1652.64 770.53 1652.67 767.682 1652.71 764.835 1655.04 762.553 1657.89 762.586ZM1699.14 763.066 1719.76 763.306C1722.61 763.34 1724.89 765.675 1724.85 768.522 1724.82 771.37 1722.49 773.651 1719.64 773.618L1699.02 773.378C1696.17 773.345 1693.89 771.01 1693.92 768.162 1693.95 765.315 1696.29 763.033 1699.14 763.066ZM1740.38 763.547 1761.01 763.786C1763.85 763.82 1766.14 766.155 1766.1 769.002 1766.07 771.85 1763.73 774.131 1760.89 774.098L1740.26 773.858C1737.41 773.825 1735.13 771.49 1735.17 768.642 1735.2 765.795 1737.53 763.513 1740.38 763.547ZM1782.13 765.684 1802.58 768.387C1805.4 768.76 1807.39 771.351 1807.01 774.174 1806.64 776.998 1804.05 778.984 1801.23 778.611L1801.23 778.611 1780.78 775.908C1777.96 775.535 1775.97 772.943 1776.34 770.12 1776.72 767.297 1779.31 765.311 1782.13 765.684ZM1823.02 771.09 1843.47 773.792C1846.29 774.166 1848.28 776.757 1847.91 779.58 1847.53 782.403 1844.94 784.389 1842.12 784.016L1821.67 781.313C1818.85 780.94 1816.86 778.349 1817.24 775.526 1817.61 772.703 1820.2 770.717 1823.02 771.09ZM1863.92 776.495 1884.37 779.198C1887.19 779.571 1889.17 782.162 1888.8 784.986 1888.43 787.809 1885.84 789.795 1883.01 789.422L1862.57 786.719C1859.74 786.346 1857.76 783.755 1858.13 780.931 1858.5 778.108 1861.1 776.122 1863.92 776.495ZM1904.81 781.901 1925.26 784.604C1928.08 784.977 1930.07 787.568 1929.7 790.391 1929.32 793.214 1926.73 795.2 1923.91 794.827L1923.91 794.827 1903.46 792.124C1900.64 791.751 1898.65 789.16 1899.03 786.337 1899.4 783.514 1901.99 781.528 1904.81 781.901ZM1944.97 786.819 1965.59 786.461C1968.44 786.412 1970.78 788.68 1970.83 791.527 1970.88 794.374 1968.62 796.723 1965.77 796.772L1945.15 797.13C1942.3 797.179 1939.95 794.911 1939.9 792.063 1939.85 789.216 1942.12 786.868 1944.97 786.819ZM1986.21 786.103 2006.83 785.746C2009.68 785.696 2012.03 787.965 2012.08 790.812 2012.13 793.659 2009.86 796.007 2007.01 796.057L1986.39 796.414C1983.54 796.464 1981.19 794.196 1981.14 791.348 1981.1 788.501 1983.36 786.153 1986.21 786.103ZM2027.45 785.388 2048.08 785.031C2050.92 784.981 2053.27 787.249 2053.32 790.097 2053.37 792.944 2051.1 795.292 2048.26 795.341L2027.63 795.699C2024.79 795.748 2022.44 793.48 2022.39 790.633 2022.34 787.786 2024.61 785.438 2027.45 785.388ZM2068.7 784.673 2089.32 784.315C2092.17 784.266 2094.52 786.534 2094.57 789.381 2094.61 792.229 2092.35 794.577 2089.5 794.626L2068.88 794.984C2066.03 795.033 2063.68 792.765 2063.63 789.918 2063.58 787.071 2065.85 784.722 2068.7 784.673ZM2109.94 783.958 2114.98 783.87 2130.6 783.691C2133.44 783.658 2135.78 785.94 2135.81 788.787 2135.84 791.635 2133.56 793.97 2130.71 794.003L2115.16 794.181 2110.12 794.269C2107.27 794.318 2104.93 792.05 2104.88 789.203 2104.83 786.355 2107.09 784.007 2109.94 783.958ZM2151.22 783.454 2171.84 783.217 2171.84 783.217C2174.69 783.184 2177.03 785.466 2177.06 788.313 2177.09 791.161 2174.81 793.496 2171.96 793.529L2151.34 793.766C2148.49 793.798 2146.16 791.516 2146.12 788.669 2146.09 785.821 2148.37 783.487 2151.22 783.454ZM2192.47 782.98 2213.09 782.743C2215.94 782.71 2218.27 784.992 2218.31 787.839 2218.34 790.687 2216.06 793.022 2213.21 793.054L2192.59 793.291C2189.74 793.324 2187.4 791.042 2187.37 788.195 2187.34 785.347 2189.62 783.012 2192.47 782.98ZM2233.71 782.506 2254.34 782.268 2254.34 782.268C2257.19 782.236 2259.52 784.518 2259.55 787.365 2259.59 790.213 2257.3 792.548 2254.46 792.58L2233.83 792.817C2230.98 792.85 2228.65 790.568 2228.62 787.721 2228.58 784.873 2230.87 782.538 2233.71 782.506ZM2274.96 782.031 2289.02 781.87 2295.55 781.757C2298.4 781.708 2300.75 783.976 2300.8 786.824 2300.85 789.671 2298.58 792.019 2295.73 792.068L2289.13 792.182 2275.08 792.343C2272.23 792.376 2269.9 790.094 2269.86 787.247 2269.83 784.399 2272.11 782.064 2274.96 782.031ZM2316.18 781.401 2336.8 781.046C2339.65 780.997 2341.99 783.265 2342.04 786.113 2342.09 788.96 2339.82 791.308 2336.98 791.357L2316.35 791.712C2313.51 791.762 2311.16 789.493 2311.11 786.646 2311.06 783.799 2313.33 781.451 2316.18 781.401ZM2357.42 780.69 2378.04 780.335C2380.89 780.286 2383.24 782.554 2383.29 785.401 2383.34 788.249 2381.07 790.597 2378.22 790.646L2357.6 791.001C2354.75 791.05 2352.4 788.782 2352.35 785.935 2352.3 783.087 2354.57 780.74 2357.42 780.69ZM2398.66 779.979 2419.29 779.624 2419.29 779.624C2422.13 779.575 2424.48 781.843 2424.53 784.69 2424.58 787.538 2422.31 789.886 2419.46 789.935L2419.46 789.935 2398.84 790.29 2398.84 790.29C2395.99 790.339 2393.65 788.071 2393.6 785.224 2393.55 782.376 2395.82 780.028 2398.66 779.979ZM2439.91 779.268 2460.53 778.913C2463.38 778.864 2465.73 781.132 2465.77 783.979 2465.82 786.827 2463.56 789.175 2460.71 789.224L2440.09 789.579C2437.24 789.628 2434.89 787.36 2434.84 784.513 2434.79 781.665 2437.06 779.317 2439.91 779.268ZM2481.3 779.079 2501.93 779.316C2504.77 779.348 2507.05 781.683 2507.02 784.531 2506.99 787.378 2504.65 789.66 2501.81 789.627L2481.18 789.39C2478.34 789.358 2476.05 787.023 2476.09 784.175 2476.12 781.328 2478.45 779.046 2481.3 779.079ZM2522.55 779.553 2543.17 779.79 2543.17 779.79C2546.02 779.822 2548.3 782.157 2548.27 785.005 2548.24 787.852 2545.9 790.134 2543.05 790.102L2543.05 790.102 2522.43 789.864 2522.43 789.864C2519.58 789.832 2517.3 787.497 2517.33 784.649 2517.37 781.802 2519.7 779.52 2522.55 779.553ZM2563.8 780.027 2584.42 780.264C2587.27 780.297 2589.55 782.631 2589.52 785.479 2589.48 788.327 2587.15 790.608 2584.3 790.576L2563.68 790.339C2560.83 790.306 2558.55 787.971 2558.58 785.123 2558.61 782.276 2560.95 779.994 2563.8 780.027ZM2605.04 780.501 2625.67 780.738C2628.51 780.771 2630.8 783.106 2630.76 785.953 2630.73 788.801 2628.4 791.082 2625.55 791.05L2604.93 790.813C2602.08 790.78 2599.8 788.445 2599.83 785.598 2599.86 782.75 2602.2 780.468 2605.04 780.501ZM2646.26 780.922 2666.89 781.041C2669.73 781.057 2672.03 783.379 2672.01 786.227 2672 789.074 2669.67 791.369 2666.83 791.353L2646.2 791.234C2643.35 791.218 2641.06 788.896 2641.08 786.049 2641.09 783.201 2643.41 780.906 2646.26 780.922ZM2687.51 781.159 2708.14 781.278C2710.98 781.294 2713.28 783.616 2713.26 786.464 2713.25 789.311 2710.92 791.606 2708.08 791.59L2687.45 791.472C2684.6 791.455 2682.31 789.133 2682.33 786.286 2682.34 783.438 2684.66 781.143 2687.51 781.159ZM2728.76 781.396 2749.38 781.515 2749.38 781.515C2752.23 781.531 2754.53 783.853 2754.51 786.701 2754.5 789.548 2752.17 791.844 2749.33 791.827L2728.7 791.709C2725.85 791.692 2723.56 789.37 2723.57 786.523 2723.59 783.675 2725.91 781.38 2728.76 781.396ZM2770.01 781.633 2790.63 781.752C2793.48 781.768 2795.78 784.09 2795.76 786.938 2795.74 789.785 2793.42 792.081 2790.57 792.064L2769.95 791.946C2767.1 791.929 2764.81 789.608 2764.82 786.76 2764.84 783.912 2767.16 781.617 2770.01 781.633ZM2811.17 781.868 2831.79 781.631C2834.64 781.599 2836.98 783.88 2837.01 786.728 2837.04 789.575 2834.76 791.91 2831.91 791.943L2811.29 792.18C2808.44 792.213 2806.11 789.931 2806.07 787.083 2806.04 784.236 2808.32 781.901 2811.17 781.868ZM2852.42 781.394 2873.04 781.157C2875.89 781.124 2878.22 783.406 2878.26 786.254 2878.29 789.101 2876.01 791.436 2873.16 791.469L2852.54 791.706C2849.69 791.739 2847.35 789.457 2847.32 786.609 2847.29 783.762 2849.57 781.427 2852.42 781.394ZM2893.66 780.92 2914.29 780.683C2917.14 780.65 2919.47 782.932 2919.5 785.78 2919.54 788.627 2917.25 790.962 2914.41 790.995L2893.78 791.232C2890.94 791.265 2888.6 788.983 2888.57 786.135 2888.54 783.288 2890.82 780.953 2893.66 780.92ZM2934.91 780.446 2955.54 780.209C2958.38 780.176 2960.72 782.458 2960.75 785.306 2960.78 788.153 2958.5 790.488 2955.65 790.521L2935.03 790.758C2932.18 790.791 2929.85 788.509 2929.82 785.661 2929.78 782.814 2932.06 780.479 2934.91 780.446ZM2976.16 779.972 2985.04 779.87 2996.9 780.005C2999.75 780.038 3002.03 782.372 3002 785.22 3001.97 788.068 2999.63 790.349 2996.78 790.317L2985.16 790.182 2976.28 790.284C2973.43 790.316 2971.1 788.035 2971.06 785.187 2971.03 782.34 2973.31 780.005 2976.16 779.972ZM3017.52 780.242 3038.15 780.479C3041 780.512 3043.28 782.847 3043.25 785.694 3043.21 788.542 3040.88 790.823 3038.03 790.791L3017.41 790.554C3014.56 790.521 3012.28 788.186 3012.31 785.339 3012.34 782.491 3014.68 780.209 3017.52 780.242ZM3058.77 780.716 3079.4 780.953C3082.24 780.986 3084.53 783.321 3084.49 786.168 3084.46 789.016 3082.12 791.298 3079.28 791.265L3058.65 791.028C3055.81 790.995 3053.52 788.66 3053.56 785.813 3053.59 782.965 3055.92 780.683 3058.77 780.716ZM3100.02 781.19 3120.64 781.427C3123.49 781.46 3125.77 783.795 3125.74 786.642 3125.71 789.49 3123.37 791.772 3120.52 791.739L3099.9 791.502C3097.05 791.469 3094.77 789.134 3094.8 786.287 3094.84 783.439 3097.17 781.157 3100.02 781.19ZM3141.27 781.664 3159.16 781.87 3162.12 782.035 3162.12 782.035C3164.97 782.198 3167.14 784.635 3166.97 787.478 3166.81 790.321 3164.37 792.493 3161.53 792.33L3159.04 792.182 3141.15 791.976C3138.3 791.943 3136.02 789.608 3136.05 786.761 3136.08 783.913 3138.42 781.631 3141.27 781.664ZM3182.71 783.218 3203.3 784.401 3203.3 784.401C3206.15 784.565 3208.32 787.002 3208.16 789.845 3207.99 792.688 3205.56 794.86 3202.71 794.697L3182.12 793.513C3179.28 793.35 3177.11 790.913 3177.27 788.07 3177.43 785.227 3179.87 783.055 3182.71 783.218ZM3223.9 785.585 3244.49 786.768C3247.33 786.932 3249.5 789.369 3249.34 792.212 3249.18 795.055 3246.74 797.227 3243.9 797.064L3223.3 795.88C3220.46 795.717 3218.29 793.28 3218.45 790.437 3218.62 787.594 3221.05 785.421 3223.9 785.585ZM3265.08 787.951 3285.67 789.135C3288.51 789.298 3290.68 791.735 3290.52 794.578 3290.36 797.422 3287.92 799.594 3285.08 799.43L3264.49 798.247C3261.64 798.084 3259.47 795.646 3259.63 792.803 3259.8 789.96 3262.23 787.788 3265.08 787.951ZM3306.26 790.318 3326.85 791.502C3329.69 791.665 3331.87 794.102 3331.7 796.945 3331.54 799.788 3329.1 801.961 3326.26 801.797L3305.67 800.614C3302.83 800.45 3300.65 798.013 3300.82 795.17 3300.98 792.327 3303.42 790.155 3306.26 790.318ZM3347.2 791.951 3367.82 792.069C3370.67 792.086 3372.97 794.407 3372.95 797.255 3372.93 800.103 3370.61 802.398 3367.76 802.382L3347.14 802.263C3344.29 802.247 3342 799.925 3342.01 797.077 3342.03 794.23 3344.35 791.934 3347.2 791.951ZM3388.45 792.188 3409.07 792.306C3411.92 792.323 3414.22 794.644 3414.2 797.492 3414.18 800.34 3411.86 802.635 3409.01 802.619L3388.39 802.5C3385.54 802.484 3383.25 800.162 3383.26 797.314 3383.28 794.467 3385.6 792.171 3388.45 792.188ZM3429.7 792.425 3450.32 792.543C3453.17 792.56 3455.46 794.882 3455.45 797.729 3455.43 800.577 3453.11 802.872 3450.26 802.856L3429.64 802.737C3426.79 802.721 3424.49 800.399 3424.51 797.551 3424.53 794.704 3426.85 792.409 3429.7 792.425ZM3470.95 792.662 3491.57 792.781C3494.42 792.797 3496.71 795.119 3496.7 797.966 3496.68 800.814 3494.36 803.109 3491.51 803.093L3470.89 802.974C3468.04 802.958 3465.74 800.636 3465.76 797.789 3465.78 794.941 3468.1 792.646 3470.95 792.662ZM3512.22 792.928 3532.85 793.161C3535.7 793.194 3537.98 795.528 3537.95 798.376 3537.91 801.223 3535.58 803.506 3532.73 803.473L3512.11 803.239C3509.26 803.207 3506.98 800.872 3507.01 798.025 3507.04 795.177 3509.38 792.895 3512.22 792.928ZM3553.47 793.395 3574.1 793.629C3576.94 793.662 3579.23 795.996 3579.19 798.844 3579.16 801.691 3576.83 803.973 3573.98 803.941L3553.35 803.707C3550.51 803.675 3548.23 801.34 3548.26 798.493 3548.29 795.645 3550.62 793.363 3553.47 793.395ZM3594.72 793.863 3615.34 794.097C3618.19 794.13 3620.47 796.464 3620.44 799.312 3620.41 802.159 3618.07 804.441 3615.23 804.409L3594.6 804.175C3591.75 804.143 3589.47 801.808 3589.5 798.961 3589.54 796.113 3591.87 793.831 3594.72 793.863ZM3635.97 794.331 3656.59 794.565C3659.44 794.597 3661.72 796.932 3661.69 799.779 3661.66 802.627 3659.32 804.909 3656.47 804.877L3635.85 804.643C3633 804.611 3630.72 802.276 3630.75 799.429 3630.78 796.581 3633.12 794.299 3635.97 794.331ZM3677.21 794.799 3681.18 794.844 3697.56 794.181C3700.41 794.067 3702.8 796.281 3702.92 799.126 3703.03 801.972 3700.82 804.371 3697.97 804.485L3681.06 805.156 3677.1 805.111C3674.25 805.078 3671.97 802.744 3672 799.896 3672.03 797.049 3674.37 794.767 3677.21 794.799ZM3718.17 793.355 3738.78 792.529C3741.62 792.415 3744.02 794.629 3744.14 797.474 3744.25 800.32 3742.04 802.719 3739.19 802.833L3718.58 803.659C3715.74 803.773 3713.34 801.559 3713.22 798.713 3713.11 795.868 3715.32 793.469 3718.17 793.355ZM3759.39 791.703 3779.99 790.877C3782.84 790.763 3785.24 792.977 3785.35 795.822 3785.47 798.668 3783.25 801.067 3780.41 801.181L3759.8 802.007C3756.95 802.121 3754.55 799.907 3754.44 797.061 3754.33 794.216 3756.54 791.817 3759.39 791.703ZM3800.6 790.051 3821.21 789.225C3824.06 789.111 3826.46 791.325 3826.57 794.171 3826.68 797.016 3824.47 799.415 3821.62 799.529L3801.02 800.355C3798.17 800.469 3795.77 798.255 3795.66 795.409 3795.54 792.564 3797.76 790.165 3800.6 790.051ZM3841.82 788.399 3854.92 787.874 3862.67 787.913C3865.52 787.929 3867.81 790.251 3867.8 793.099 3867.78 795.947 3865.46 798.242 3862.61 798.225L3855.33 798.178 3842.23 798.703C3839.39 798.817 3836.99 796.603 3836.87 793.758 3836.76 790.912 3838.97 788.513 3841.82 788.399ZM3883.29 788.032 3903.92 788.15 3903.92 788.15C3906.77 788.167 3909.06 790.488 3909.05 793.336 3909.03 796.184 3906.71 798.479 3903.86 798.463L3883.24 798.344C3880.39 798.328 3878.09 796.006 3878.11 793.158 3878.12 790.31 3880.45 788.015 3883.29 788.032ZM3924.54 788.269 3945.17 788.388 3945.17 788.388C3948.02 788.404 3950.31 790.726 3950.3 793.573 3950.28 796.421 3947.96 798.716 3945.11 798.7L3924.48 798.581C3921.64 798.565 3919.34 796.243 3919.36 793.395 3919.37 790.548 3921.7 788.253 3924.54 788.269ZM3965.79 788.506 3986.42 788.625 3986.42 788.625C3989.27 788.641 3991.56 790.963 3991.54 793.811 3991.53 796.658 3989.21 798.953 3986.36 798.937L3965.73 798.818C3962.89 798.802 3960.59 796.48 3960.61 793.633 3960.62 790.785 3962.95 788.49 3965.79 788.506ZM4007.04 788.743 4027.67 788.862 4027.67 788.862C4030.51 788.878 4032.81 791.2 4032.79 794.048 4032.78 796.896 4030.46 799.191 4027.61 799.174L4006.98 799.056C4004.14 799.039 4001.84 796.718 4001.86 793.87 4001.87 791.022 4004.19 788.727 4007.04 788.743Z" fill="#9BBB59" fill-rule="nonzero" fill-opacity="1"/></g><g><path d="M1246 811C1303.98 816.946 1361.96 825.674 1419.94 828.838 1477.92 832.001 1535.9 824.557 1593.88 829.98 1651.85 835.403 1709.83 848.423 1767.81 861.379 1825.79 874.334 1883.77 894.416 1941.75 907.715 1999.73 921.015 2057.71 931.634 2115.69 941.176 2173.67 950.717 2231.65 952.902 2289.62 964.966 2347.6 977.029 2405.58 991.216 2463.56 1013.56 2521.54 1035.9 2579.52 1061.87 2637.5 1099.03 2695.48 1136.18 2753.46 1189.75 2811.44 1236.5 2869.42 1283.26 2927.4 1336.24 2985.38 1379.57 3043.35 1422.9 3101.33 1462.9 3159.31 1496.49 3217.29 1530.08 3275.27 1546.72 3333.25 1581.1 3391.23 1615.49 3449.21 1664.07 3507.19 1702.8 3565.17 1741.54 3623.15 1776.43 3681.12 1813.52 3739.1 1850.61 3797.08 1891.44 3855.06 1925.36 3913.04 1959.27 3971.02 1986.45 4029 2017" stroke="#1F497D" stroke-width="10.3125" stroke-linecap="round" stroke-linejoin="round" stroke-miterlimit="10" stroke-opacity="1" fill="none" fill-rule="nonzero"/></g><g><text fill="#595959" fill-opacity="1" font-family="Calibri,Calibri_MSFontService,sans-serif" font-style="normal" font-variant="normal" font-weight="400" font-stretch="normal" font-size="41" text-anchor="start" direction="ltr" writing-mode="lr-tb" unicode-bidi="normal" text-decoration="none" transform="matrix(1 0 0 1 1099.75 2081)">0</text></g><g><text fill="#595959" fill-opacity="1" font-family="Calibri,Calibri_MSFontService,sans-serif" font-style="normal" font-variant="normal" font-weight="400" font-stretch="normal" font-size="41" text-anchor="start" direction="ltr" writing-mode="lr-tb" unicode-bidi="normal" text-decoration="none" transform="matrix(1 0 0 1 1037.05 1881)">2000</text></g><g><text fill="#595959" fill-opacity="1" font-family="Calibri,Calibri_MSFontService,sans-serif" font-style="normal" font-variant="normal" font-weight="400" font-stretch="normal" font-size="41" text-anchor="start" direction="ltr" writing-mode="lr-tb" unicode-bidi="normal" text-decoration="none" transform="matrix(1 0 0 1 1037.05 1682)">4000</text></g><g><text fill="#595959" fill-opacity="1" font-family="Calibri,Calibri_MSFontService,sans-serif" font-style="normal" font-variant="normal" font-weight="400" font-stretch="normal" font-size="41" text-anchor="start" direction="ltr" writing-mode="lr-tb" unicode-bidi="normal" text-decoration="none" transform="matrix(1 0 0 1 1037.05 1482)">6000</text></g><g><text fill="#595959" fill-opacity="1" font-family="Calibri,Calibri_MSFontService,sans-serif" font-style="normal" font-variant="normal" font-weight="400" font-stretch="normal" font-size="41" text-anchor="start" direction="ltr" writing-mode="lr-tb" unicode-bidi="normal" text-decoration="none" transform="matrix(1 0 0 1 1037.05 1282)">8000</text></g><g><text fill="#595959" fill-opacity="1" font-family="Calibri,Calibri_MSFontService,sans-serif" font-style="normal" font-variant="normal" font-weight="400" font-stretch="normal" font-size="41" text-anchor="start" direction="ltr" writing-mode="lr-tb" unicode-bidi="normal" text-decoration="none" transform="matrix(1 0 0 1 1016.15 1082)">10000</text></g><g><text fill="#595959" fill-opacity="1" font-family="Calibri,Calibri_MSFontService,sans-serif" font-style="normal" font-variant="normal" font-weight="400" font-stretch="normal" font-size="41" text-anchor="start" direction="ltr" writing-mode="lr-tb" unicode-bidi="normal" text-decoration="none" transform="matrix(1 0 0 1 1016.15 882)">12000</text></g><g><text fill="#595959" fill-opacity="1" font-family="Calibri,Calibri_MSFontService,sans-serif" font-style="normal" font-variant="normal" font-weight="400" font-stretch="normal" font-size="41" text-anchor="start" direction="ltr" writing-mode="lr-tb" unicode-bidi="normal" text-decoration="none" transform="matrix(1 0 0 1 1016.15 682)">14000</text></g><g><text fill="#595959" fill-opacity="1" font-family="Calibri,Calibri_MSFontService,sans-serif" font-style="normal" font-variant="normal" font-weight="400" font-stretch="normal" font-size="41" text-anchor="start" direction="ltr" writing-mode="lr-tb" unicode-bidi="normal" text-decoration="none" transform="matrix(1 0 0 1 1227.37 2137)">s1</text></g><g><text fill="#595959" fill-opacity="1" font-family="Calibri,Calibri_MSFontService,sans-serif" font-style="normal" font-variant="normal" font-weight="400" font-stretch="normal" font-size="41" text-anchor="start" direction="ltr" writing-mode="lr-tb" unicode-bidi="normal" text-decoration="none" transform="matrix(1 0 0 1 1401.3 2137)">s2</text></g><g><text fill="#595959" fill-opacity="1" font-family="Calibri,Calibri_MSFontService,sans-serif" font-style="normal" font-variant="normal" font-weight="400" font-stretch="normal" font-size="41" text-anchor="start" direction="ltr" writing-mode="lr-tb" unicode-bidi="normal" text-decoration="none" transform="matrix(1 0 0 1 1575.24 2137)">s3</text></g><g><text fill="#595959" fill-opacity="1" font-family="Calibri,Calibri_MSFontService,sans-serif" font-style="normal" font-variant="normal" font-weight="400" font-stretch="normal" font-size="41" text-anchor="start" direction="ltr" writing-mode="lr-tb" unicode-bidi="normal" text-decoration="none" transform="matrix(1 0 0 1 1749.18 2137)">s4</text></g><g><text fill="#595959" fill-opacity="1" font-family="Calibri,Calibri_MSFontService,sans-serif" font-style="normal" font-variant="normal" font-weight="400" font-stretch="normal" font-size="41" text-anchor="start" direction="ltr" writing-mode="lr-tb" unicode-bidi="normal" text-decoration="none" transform="matrix(1 0 0 1 1923.11 2137)">s5</text></g><g><text fill="#595959" fill-opacity="1" font-family="Calibri,Calibri_MSFontService,sans-serif" font-style="normal" font-variant="normal" font-weight="400" font-stretch="normal" font-size="41" text-anchor="start" direction="ltr" writing-mode="lr-tb" unicode-bidi="normal" text-decoration="none" transform="matrix(1 0 0 1 2097.05 2137)">s6</text></g><g><text fill="#595959" fill-opacity="1" font-family="Calibri,Calibri_MSFontService,sans-serif" font-style="normal" font-variant="normal" font-weight="400" font-stretch="normal" font-size="41" text-anchor="start" direction="ltr" writing-mode="lr-tb" unicode-bidi="normal" text-decoration="none" transform="matrix(1 0 0 1 2270.98 2137)">s7</text></g><g><text fill="#595959" fill-opacity="1" font-family="Calibri,Calibri_MSFontService,sans-serif" font-style="normal" font-variant="normal" font-weight="400" font-stretch="normal" font-size="41" text-anchor="start" direction="ltr" writing-mode="lr-tb" unicode-bidi="normal" text-decoration="none" transform="matrix(1 0 0 1 2444.92 2137)">s8</text></g><g><text fill="#595959" fill-opacity="1" font-family="Calibri,Calibri_MSFontService,sans-serif" font-style="normal" font-variant="normal" font-weight="400" font-stretch="normal" font-size="41" text-anchor="start" direction="ltr" writing-mode="lr-tb" unicode-bidi="normal" text-decoration="none" transform="matrix(1 0 0 1 2618.86 2137)">s9</text></g><g><text fill="#595959" fill-opacity="1" font-family="Calibri,Calibri_MSFontService,sans-serif" font-style="normal" font-variant="normal" font-weight="400" font-stretch="normal" font-size="41" text-anchor="start" direction="ltr" writing-mode="lr-tb" unicode-bidi="normal" text-decoration="none" transform="matrix(1 0 0 1 2782.34 2137)">s10</text></g><g><text fill="#595959" fill-opacity="1" font-family="Calibri,Calibri_MSFontService,sans-serif" font-style="normal" font-variant="normal" font-weight="400" font-stretch="normal" font-size="41" text-anchor="start" direction="ltr" writing-mode="lr-tb" unicode-bidi="normal" text-decoration="none" transform="matrix(1 0 0 1 2956.28 2137)">s11</text></g><g><text fill="#595959" fill-opacity="1" font-family="Calibri,Calibri_MSFontService,sans-serif" font-style="normal" font-variant="normal" font-weight="400" font-stretch="normal" font-size="41" text-anchor="start" direction="ltr" writing-mode="lr-tb" unicode-bidi="normal" text-decoration="none" transform="matrix(1 0 0 1 3130.22 2137)">s12</text></g><g><text fill="#595959" fill-opacity="1" font-family="Calibri,Calibri_MSFontService,sans-serif" font-style="normal" font-variant="normal" font-weight="400" font-stretch="normal" font-size="41" text-anchor="start" direction="ltr" writing-mode="lr-tb" unicode-bidi="normal" text-decoration="none" transform="matrix(1 0 0 1 3304.15 2137)">s13</text></g><g><text fill="#595959" fill-opacity="1" font-family="Calibri,Calibri_MSFontService,sans-serif" font-style="normal" font-variant="normal" font-weight="400" font-stretch="normal" font-size="41" text-anchor="start" direction="ltr" writing-mode="lr-tb" unicode-bidi="normal" text-decoration="none" transform="matrix(1 0 0 1 3478.09 2137)">s14</text></g><g><text fill="#595959" fill-opacity="1" font-family="Calibri,Calibri_MSFontService,sans-serif" font-style="normal" font-variant="normal" font-weight="400" font-stretch="normal" font-size="41" text-anchor="start" direction="ltr" writing-mode="lr-tb" unicode-bidi="normal" text-decoration="none" transform="matrix(1 0 0 1 3652.03 2137)">s15</text></g><g><text fill="#595959" fill-opacity="1" font-family="Calibri,Calibri_MSFontService,sans-serif" font-style="normal" font-variant="normal" font-weight="400" font-stretch="normal" font-size="41" text-anchor="start" direction="ltr" writing-mode="lr-tb" unicode-bidi="normal" text-decoration="none" transform="matrix(1 0 0 1 3825.96 2137)">s16</text></g><g><text fill="#595959" fill-opacity="1" font-family="Calibri,Calibri_MSFontService,sans-serif" font-style="normal" font-variant="normal" font-weight="400" font-stretch="normal" font-size="41" text-anchor="start" direction="ltr" writing-mode="lr-tb" unicode-bidi="normal" text-decoration="none" transform="matrix(1 0 0 1 3999.9 2137)">s17</text></g><g><text fill="#595959" fill-opacity="1" font-family="Calibri,Calibri_MSFontService,sans-serif" font-style="normal" font-variant="normal" font-weight="400" font-stretch="normal" font-size="46" text-anchor="start" direction="ltr" writing-mode="lr-tb" unicode-bidi="normal" text-decoration="none" transform="matrix(6.12323e-17 -1 1 6.12323e-17 990.458 1446)">Euro (€)</text></g><g><text fill="#595959" fill-opacity="1" font-family="Calibri,Calibri_MSFontService,sans-serif" font-style="normal" font-variant="normal" font-weight="400" font-stretch="normal" font-size="64" text-anchor="start" direction="ltr" writing-mode="lr-tb" unicode-bidi="normal" text-decoration="none" transform="matrix(1 0 0 1 2414.06 597)">AC e ETC</text></g><g><path d="M1623 2216 1738 2216" stroke="#FFC000" stroke-width="10.3125" stroke-linecap="round" stroke-linejoin="round" stroke-miterlimit="10" stroke-opacity="1" fill="none" fill-rule="evenodd"/></g><g><text fill="#595959" fill-opacity="1" font-family="Calibri,Calibri_MSFontService,sans-serif" font-style="normal" font-variant="normal" font-weight="400" font-stretch="normal" font-size="41" text-anchor="start" direction="ltr" writing-mode="lr-tb" unicode-bidi="normal" text-decoration="none" transform="matrix(1 0 0 1 1750.97 2226)">AC acc. (€)</text></g><g><path d="M2027 2210.84 2047.63 2210.84C2050.47 2210.84 2052.78 2213.15 2052.78 2216 2052.78 2218.85 2050.47 2221.16 2047.63 2221.16L2027 2221.16C2024.15 2221.16 2021.84 2218.85 2021.84 2216 2021.84 2213.15 2024.15 2210.84 2027 2210.84ZM2068.25 2210.84 2088.88 2210.84C2091.72 2210.84 2094.03 2213.15 2094.03 2216 2094.03 2218.85 2091.72 2221.16 2088.88 2221.16L2068.25 2221.16C2065.4 2221.16 2063.09 2218.85 2063.09 2216 2063.09 2213.15 2065.4 2210.84 2068.25 2210.84ZM2109.5 2210.84 2130.13 2210.84C2132.97 2210.84 2135.28 2213.15 2135.28 2216 2135.28 2218.85 2132.97 2221.16 2130.12 2221.16L2109.5 2221.16C2106.65 2221.16 2104.34 2218.85 2104.34 2216 2104.34 2213.15 2106.65 2210.84 2109.5 2210.84Z" fill="#9BBB59" fill-rule="nonzero" fill-opacity="1"/></g><g><text fill="#595959" fill-opacity="1" font-family="Calibri,Calibri_MSFontService,sans-serif" font-style="normal" font-variant="normal" font-weight="400" font-stretch="normal" font-size="41" text-anchor="start" direction="ltr" writing-mode="lr-tb" unicode-bidi="normal" text-decoration="none" transform="matrix(1 0 0 1 2154.74 2226)">EAC </text></g><g><text fill="#595959" fill-opacity="1" font-family="Calibri,Calibri_MSFontService,sans-serif" font-style="normal" font-variant="normal" font-weight="400" font-stretch="normal" font-size="41" text-anchor="start" direction="ltr" writing-mode="lr-tb" unicode-bidi="normal" text-decoration="none" transform="matrix(1 0 0 1 2230.09 2226)">-</text></g><g><text fill="#595959" fill-opacity="1" font-family="Calibri,Calibri_MSFontService,sans-serif" font-style="normal" font-variant="normal" font-weight="400" font-stretch="normal" font-size="41" text-anchor="start" direction="ltr" writing-mode="lr-tb" unicode-bidi="normal" text-decoration="none" transform="matrix(1 0 0 1 2252.04 2226)">Estimate At Completion (€)</text></g><g><path d="M2805 2216 2921 2216" stroke="#1F497D" stroke-width="10.3125" stroke-linecap="round" stroke-linejoin="round" stroke-miterlimit="10" stroke-opacity="1" fill="none" fill-rule="evenodd"/></g><g><text fill="#595959" fill-opacity="1" font-family="Calibri,Calibri_MSFontService,sans-serif" font-style="normal" font-variant="normal" font-weight="400" font-stretch="normal" font-size="41" text-anchor="start" direction="ltr" writing-mode="lr-tb" unicode-bidi="normal" text-decoration="none" transform="matrix(1 0 0 1 2933.63 2226)">ETC </text></g><g><text fill="#595959" fill-opacity="1" font-family="Calibri,Calibri_MSFontService,sans-serif" font-style="normal" font-variant="normal" font-weight="400" font-stretch="normal" font-size="41" text-anchor="start" direction="ltr" writing-mode="lr-tb" unicode-bidi="normal" text-decoration="none" transform="matrix(1 0 0 1 3005.19 2226)">-</text></g><g><text fill="#595959" fill-opacity="1" font-family="Calibri,Calibri_MSFontService,sans-serif" font-style="normal" font-variant="normal" font-weight="400" font-stretch="normal" font-size="41" text-anchor="start" direction="ltr" writing-mode="lr-tb" unicode-bidi="normal" text-decoration="none" transform="matrix(1 0 0 1 3027.15 2226)">Estimate To Complete (€)</text></g><rect x="889.5" y="502.5" width="3277" height="1780" stroke="#D9D9D9" stroke-width="3.4375" stroke-linecap="butt" stroke-linejoin="round" stroke-miterlimit="10" stroke-opacity="1" fill="none"/></g></g></svg>