<svg width="3287" height="1797" xmlns="http://www.w3.org/2000/svg" xmlns:xlink="http://www.w3.org/1999/xlink" xml:space="preserve" overflow="hidden"><defs><clipPath id="clip0"><rect x="893" y="554" width="3287" height="1797"/></clipPath><clipPath id="clip1"><rect x="893" y="554" width="3287" height="1797"/></clipPath></defs><g clip-path="url(#clip0)" transform="translate(-893 -554)"><g clip-path="url(#clip1)"><rect x="895" y="556" width="3282" height="1791" fill="#FFFFFF" fill-opacity="1"/><g><path d="M1164.5 1934.56 4126.5 1934.56M1164.5 1733.56 4126.5 1733.56M1164.5 1531.55 4126.5 1531.55M1164.5 1330.54 4126.5 1330.54M1164.5 1128.54 4126.5 1128.54M1164.5 927.531 4126.5 927.531M1164.5 725.5 4126.5 725.5" stroke="#D9D9D9" stroke-width="3.4375" stroke-linecap="butt" stroke-linejoin="round" stroke-miterlimit="10" stroke-opacity="1" fill="none" fill-rule="nonzero"/></g><g><path d="M1164.5 2136.5 4126.5 2136.5" stroke="#D9D9D9" stroke-width="3.4375" stroke-linecap="butt" stroke-linejoin="round" stroke-miterlimit="10" stroke-opacity="1" fill="none" fill-rule="evenodd"/></g><g><path d="M1252 2107C1310.06 2097.26 1368.12 2085.17 1426.19 2077.78 1484.25 2070.4 1542.31 2073 1600.37 2062.67 1658.44 2052.35 1716.5 2029.01 1774.56 2015.83 1832.62 2002.64 1890.69 1995.93 1948.75 1983.59 2006.81 1971.25 2064.87 1955.04 2122.94 1941.78 2181 1928.51 2239.06 1918.61 2297.12 1904 2355.19 1889.39 2413.25 1876.38 2471.31 1854.13 2529.37 1831.88 2587.44 1791.42 2645.5 1770.51 2703.56 1749.61 2761.62 1763.21 2819.69 1728.7 2877.75 1694.2 2935.81 1615.87 2993.88 1563.48 3051.94 1511.09 3110 1453.75 3168.06 1414.38 3226.12 1375 3284.19 1363.17 3342.25 1327.23 3400.31 1291.3 3458.37 1242.27 3516.44 1198.78 3574.5 1155.29 3632.56 1104.92 3690.62 1066.3 3748.69 1027.68 3806.75 996.454 3864.81 967.07 3922.88 937.686 3980.94 915.69 4039 890" stroke="#FFC000" stroke-width="10.3125" stroke-linecap="round" stroke-linejoin="round" stroke-miterlimit="10" stroke-opacity="1" fill="none" fill-rule="nonzero"/></g><g><path d="M1251.82 835.874 1272.43 835.164C1275.28 835.066 1277.67 837.293 1277.77 840.139 1277.86 842.985 1275.64 845.372 1272.79 845.47L1252.18 846.181C1249.33 846.279 1246.94 844.051 1246.85 841.205 1246.75 838.359 1248.98 835.973 1251.82 835.874ZM1293.05 834.453 1313.66 833.743C1316.51 833.644 1318.89 835.872 1318.99 838.718 1319.09 841.564 1316.86 843.951 1314.02 844.049L1293.4 844.76C1290.56 844.858 1288.17 842.63 1288.07 839.784 1287.97 836.938 1290.2 834.551 1293.05 834.453ZM1334.27 833.032 1354.89 832.321C1357.73 832.223 1360.12 834.451 1360.22 837.297 1360.31 840.143 1358.09 842.53 1355.24 842.628L1334.63 843.338C1331.78 843.436 1329.4 841.209 1329.3 838.363 1329.2 835.517 1331.43 833.13 1334.27 833.032ZM1375.5 831.611 1396.11 830.9C1398.96 830.802 1401.34 833.03 1401.44 835.876 1401.54 838.722 1399.31 841.108 1396.47 841.206L1396.47 841.206 1375.85 841.917C1373.01 842.015 1370.62 839.788 1370.52 836.942 1370.43 834.096 1372.65 831.709 1375.5 831.611ZM1416.72 830.189 1425.87 829.874 1437.07 828.966C1439.91 828.737 1442.4 830.853 1442.62 833.691 1442.85 836.53 1440.74 839.016 1437.9 839.245L1437.9 839.245 1426.22 840.181 1417.08 840.496C1414.23 840.594 1411.85 838.366 1411.75 835.52 1411.65 832.674 1413.88 830.288 1416.72 830.189ZM1457.63 827.308 1478.19 825.651C1481.03 825.422 1483.51 827.538 1483.74 830.376 1483.97 833.215 1481.85 835.701 1479.02 835.93L1458.46 837.588C1455.62 837.816 1453.13 835.701 1452.9 832.862 1452.67 830.024 1454.79 827.537 1457.63 827.308ZM1498.74 823.994 1519.3 822.337C1522.14 822.108 1524.63 824.223 1524.86 827.062 1525.09 829.9 1522.97 832.387 1520.13 832.616L1499.57 834.273C1496.74 834.502 1494.25 832.386 1494.02 829.548 1493.79 826.709 1495.91 824.223 1498.74 823.994ZM1539.86 820.679 1560.42 819.022C1563.26 818.793 1565.74 820.909 1565.97 823.747 1566.2 826.586 1564.09 829.072 1561.25 829.301L1540.69 830.958C1537.85 831.187 1535.37 829.072 1535.14 826.233 1534.91 823.395 1537.02 820.908 1539.86 820.679ZM1580.98 817.365 1599.64 815.86 1602.05 815.878C1604.89 815.927 1607.16 818.275 1607.11 821.123 1607.06 823.97 1604.71 826.238 1601.87 826.188L1600.47 826.139 1581.81 827.644C1578.97 827.873 1576.48 825.757 1576.25 822.918 1576.02 820.08 1578.14 817.593 1580.98 817.365ZM1622.67 816.236 1643.29 816.595C1646.14 816.645 1648.41 818.993 1648.36 821.84 1648.31 824.688 1645.96 826.956 1643.11 826.906L1622.49 826.547C1619.64 826.498 1617.37 824.149 1617.42 821.302 1617.47 818.455 1619.82 816.187 1622.67 816.236ZM1663.91 816.954 1684.53 817.313C1687.38 817.362 1689.65 819.71 1689.6 822.558 1689.55 825.405 1687.2 827.673 1684.35 827.624L1663.73 827.265 1663.73 827.265C1660.89 827.215 1658.62 824.867 1658.67 822.02 1658.72 819.172 1661.06 816.904 1663.91 816.954ZM1705.16 817.671 1725.78 818.03C1728.62 818.08 1730.89 820.428 1730.84 823.275 1730.79 826.122 1728.45 828.391 1725.6 828.341L1704.98 827.982C1702.13 827.933 1699.86 825.584 1699.91 822.737 1699.96 819.89 1702.31 817.622 1705.16 817.671ZM1746.4 818.389 1767.02 818.748C1769.87 818.797 1772.14 821.145 1772.09 823.993 1772.04 826.84 1769.69 829.108 1766.84 829.059L1746.22 828.7C1743.37 828.65 1741.1 826.302 1741.15 823.455 1741.2 820.607 1743.55 818.339 1746.4 818.389ZM1788.11 820.674 1808.56 823.361C1811.39 823.732 1813.37 826.322 1813 829.145 1812.63 831.969 1810.04 833.957 1807.22 833.586L1786.77 830.898 1786.77 830.898C1783.95 830.527 1781.96 827.937 1782.33 825.114 1782.7 822.291 1785.29 820.302 1788.11 820.674ZM1829.01 826.049 1849.46 828.736 1849.46 828.736C1852.28 829.107 1854.27 831.697 1853.9 834.521 1853.53 837.344 1850.94 839.332 1848.12 838.961L1827.67 836.273C1824.84 835.902 1822.86 833.313 1823.23 830.489 1823.6 827.666 1826.19 825.678 1829.01 826.049ZM1869.91 831.424 1890.36 834.112 1890.36 834.112C1893.18 834.483 1895.17 837.072 1894.8 839.896 1894.43 842.719 1891.84 844.707 1889.01 844.336L1889.01 844.336 1868.57 841.649 1868.57 841.649C1865.74 841.277 1863.75 838.688 1864.12 835.864 1864.5 833.041 1867.09 831.053 1869.91 831.424ZM1910.81 836.799 1931.26 839.487C1934.08 839.858 1936.07 842.448 1935.7 845.271 1935.33 848.094 1932.74 850.082 1929.91 849.711L1909.46 847.024C1906.64 846.653 1904.65 844.063 1905.02 841.24 1905.39 838.416 1907.98 836.428 1910.81 836.799ZM1950.96 841.838 1971.58 841.483 1971.58 841.483C1974.43 841.433 1976.78 843.702 1976.83 846.549 1976.88 849.396 1974.61 851.744 1971.76 851.793L1951.14 852.149C1948.29 852.198 1945.94 849.93 1945.89 847.082 1945.85 844.235 1948.11 841.887 1950.96 841.838ZM1992.21 841.127 2012.83 840.771 2012.83 840.771C2015.67 840.722 2018.02 842.991 2018.07 845.838 2018.12 848.685 2015.85 851.033 2013.01 851.082L1992.38 851.438C1989.54 851.487 1987.19 849.219 1987.14 846.371 1987.09 843.524 1989.36 841.176 1992.21 841.127ZM2033.45 840.416 2054.07 840.06 2054.07 840.06C2056.92 840.011 2059.27 842.28 2059.32 845.127 2059.36 847.974 2057.1 850.322 2054.25 850.371L2033.63 850.727C2030.78 850.776 2028.43 848.508 2028.38 845.66 2028.33 842.813 2030.6 840.465 2033.45 840.416ZM2074.69 839.705 2095.31 839.349C2098.16 839.3 2100.51 841.568 2100.56 844.416 2100.61 847.263 2098.34 849.611 2095.49 849.66L2074.87 850.016C2072.02 850.065 2069.68 847.796 2069.63 844.949 2069.58 842.102 2071.85 839.754 2074.69 839.705ZM2115.94 838.994 2122.98 838.872 2136.59 838.716C2139.44 838.683 2141.77 840.965 2141.8 843.812 2141.84 846.66 2139.56 848.995 2136.71 849.028L2123.16 849.183 2116.11 849.305C2113.27 849.354 2110.92 847.085 2110.87 844.238 2110.82 841.391 2113.09 839.043 2115.94 838.994ZM2157.21 838.479 2177.84 838.242 2177.84 838.242C2180.68 838.209 2183.02 840.491 2183.05 843.338 2183.08 846.186 2180.8 848.521 2177.96 848.553L2157.33 848.79C2154.48 848.823 2152.15 846.541 2152.12 843.694 2152.08 840.846 2154.37 838.511 2157.21 838.479ZM2198.46 838.005 2219.08 837.768C2221.93 837.735 2224.27 840.017 2224.3 842.864 2224.33 845.712 2222.05 848.047 2219.2 848.079L2198.58 848.316C2195.73 848.349 2193.4 846.067 2193.36 843.22 2193.33 840.372 2195.61 838.037 2198.46 838.005ZM2239.71 837.53 2260.33 837.293 2260.33 837.293C2263.18 837.261 2265.51 839.542 2265.55 842.39 2265.58 845.238 2263.3 847.572 2260.45 847.605L2239.83 847.842C2236.98 847.875 2234.64 845.593 2234.61 842.746 2234.58 839.898 2236.86 837.563 2239.71 837.53ZM2280.96 837.056 2297.02 836.872 2301.55 836.794 2301.55 836.794C2304.4 836.744 2306.74 839.013 2306.79 841.86 2306.84 844.707 2304.57 847.055 2301.73 847.104L2297.13 847.184 2281.07 847.368C2278.23 847.401 2275.89 845.119 2275.86 842.271 2275.83 839.424 2278.11 837.089 2280.96 837.056ZM2322.17 836.438 2342.79 836.082 2342.79 836.082C2345.64 836.033 2347.99 838.302 2348.04 841.149 2348.09 843.996 2345.82 846.344 2342.97 846.393L2322.35 846.749C2319.5 846.798 2317.15 844.53 2317.1 841.682 2317.05 838.835 2319.32 836.487 2322.17 836.438ZM2363.41 835.727 2384.04 835.371 2384.04 835.371C2386.88 835.322 2389.23 837.591 2389.28 840.438 2389.33 843.285 2387.06 845.633 2384.21 845.682L2363.59 846.038C2360.75 846.087 2358.4 843.818 2358.35 840.971 2358.3 838.124 2360.57 835.776 2363.41 835.727ZM2404.66 835.016 2425.28 834.66C2428.13 834.611 2430.48 836.88 2430.52 839.727 2430.57 842.574 2428.31 844.922 2425.46 844.971L2404.84 845.327C2401.99 845.376 2399.64 843.107 2399.59 840.26 2399.54 837.413 2401.81 835.065 2404.66 835.016ZM2445.9 834.305 2466.52 833.949 2466.52 833.949C2469.37 833.9 2471.72 836.168 2471.77 839.016 2471.82 841.863 2469.55 844.211 2466.7 844.26L2466.7 844.26 2446.08 844.616 2446.08 844.616C2443.23 844.665 2440.88 842.396 2440.84 839.549 2440.79 836.702 2443.05 834.354 2445.9 834.305ZM2487.48 834.708 2508.08 835.767C2510.92 835.913 2513.11 838.338 2512.96 841.181 2512.82 844.025 2510.39 846.212 2507.55 846.066L2486.95 845.007C2484.11 844.861 2481.92 842.436 2482.07 839.593 2482.21 836.749 2484.64 834.562 2487.48 834.708ZM2528.68 836.827 2549.27 837.886 2549.27 837.886C2552.12 838.032 2554.31 840.456 2554.16 843.3 2554.01 846.144 2551.59 848.331 2548.74 848.185L2528.15 847.125C2525.3 846.979 2523.12 844.555 2523.26 841.711 2523.41 838.867 2525.83 836.68 2528.68 836.827ZM2569.87 838.945 2590.47 840.004C2593.31 840.151 2595.5 842.575 2595.35 845.419 2595.21 848.263 2592.78 850.45 2589.94 850.303L2569.34 849.244C2566.5 849.098 2564.31 846.674 2564.46 843.83 2564.6 840.986 2567.03 838.799 2569.87 838.945ZM2611.07 841.064 2631.67 842.123C2634.51 842.269 2636.7 844.693 2636.55 847.537 2636.4 850.381 2633.98 852.568 2631.14 852.422L2610.54 851.363C2607.69 851.216 2605.51 848.792 2605.65 845.948 2605.8 843.104 2608.22 840.918 2611.07 841.064ZM2652.43 843.399 2672.98 845.17C2675.81 845.415 2677.91 847.913 2677.67 850.751 2677.43 853.588 2674.93 855.689 2672.09 855.445L2651.54 853.673C2648.7 853.429 2646.6 850.931 2646.85 848.093 2647.09 845.256 2649.59 843.154 2652.43 843.399ZM2693.52 846.942 2714.07 848.713C2716.91 848.958 2719.01 851.456 2718.77 854.293 2718.52 857.131 2716.02 859.232 2713.19 858.988L2692.64 857.216C2689.8 856.972 2687.7 854.473 2687.94 851.636 2688.19 848.799 2690.69 846.697 2693.52 846.942ZM2734.62 850.485 2755.17 852.256C2758.01 852.501 2760.11 854.999 2759.87 857.836 2759.62 860.674 2757.12 862.775 2754.29 862.531L2733.74 860.759C2730.9 860.515 2728.8 858.016 2729.04 855.179 2729.29 852.342 2731.78 850.24 2734.62 850.485ZM2775.72 854.028 2796.27 855.799C2799.11 856.044 2801.21 858.542 2800.96 861.379 2800.72 864.216 2798.22 866.318 2795.38 866.074L2774.83 864.302C2772 864.058 2769.9 861.559 2770.14 858.722 2770.38 855.885 2772.88 853.783 2775.72 854.028ZM2816.82 857.571 2820.54 857.891 2836.93 857.678C2839.77 857.646 2842.11 859.927 2842.14 862.775 2842.17 865.622 2839.89 867.957 2837.04 867.99L2819.65 868.166 2815.93 867.845C2813.09 867.6 2810.99 865.102 2811.24 862.265 2811.48 859.428 2813.98 857.326 2816.82 857.571ZM2857.55 857.441 2878.17 857.204C2881.02 857.171 2883.35 859.453 2883.39 862.301 2883.42 865.148 2881.14 867.483 2878.29 867.516L2857.67 867.753C2854.82 867.786 2852.49 865.504 2852.45 862.656 2852.42 859.809 2854.7 857.474 2857.55 857.441ZM2898.8 856.967 2919.42 856.73C2922.27 856.697 2924.6 858.979 2924.64 861.827 2924.67 864.674 2922.39 867.009 2919.54 867.042L2898.91 867.279C2896.07 867.312 2893.73 865.03 2893.7 862.182 2893.67 859.335 2895.95 857 2898.8 856.967ZM2940.04 856.493 2960.67 856.256C2963.51 856.223 2965.85 858.505 2965.88 861.353 2965.92 864.2 2963.63 866.535 2960.79 866.568L2940.16 866.805C2937.31 866.838 2934.98 864.556 2934.95 861.708 2934.91 858.861 2937.2 856.526 2940.04 856.493ZM2981.29 856.019 2994.04 855.872 3002.31 856.426 3002.31 856.426C3005.15 856.622 3007.3 859.084 3007.1 861.925 3006.9 864.766 3004.44 866.91 3001.6 866.714L3001.6 866.714 2994.16 866.184 2981.41 866.331C2978.56 866.363 2976.23 864.082 2976.19 861.234 2976.16 858.387 2978.44 856.052 2981.29 856.019ZM3022.89 857.845 3043.46 859.264C3046.3 859.46 3048.45 861.922 3048.25 864.763 3048.06 867.604 3045.59 869.748 3042.75 869.552L3022.18 868.133C3019.34 867.937 3017.19 865.475 3017.39 862.634 3017.58 859.793 3020.05 857.649 3022.89 857.845ZM3064.04 860.683 3084.61 862.102C3087.46 862.298 3089.6 864.76 3089.4 867.601 3089.21 870.442 3086.75 872.586 3083.91 872.39L3063.33 870.971C3060.49 870.775 3058.34 868.313 3058.54 865.473 3058.74 862.632 3061.2 860.487 3064.04 860.683ZM3105.19 863.521 3125.77 864.94C3128.61 865.136 3130.75 867.598 3130.56 870.439 3130.36 873.28 3127.9 875.424 3125.06 875.228L3104.48 873.809C3101.64 873.613 3099.5 871.152 3099.69 868.311 3099.89 865.47 3102.35 863.325 3105.19 863.521ZM3146.34 866.359 3166.92 867.778C3169.76 867.974 3171.9 870.436 3171.71 873.277 3171.51 876.118 3169.05 878.262 3166.21 878.067L3145.63 876.647C3142.79 876.452 3140.65 873.99 3140.84 871.149 3141.04 868.308 3143.5 866.164 3146.34 866.359ZM3187.19 867.869 3207.81 867.866C3210.66 867.865 3212.97 870.174 3212.97 873.021 3212.97 875.869 3210.66 878.178 3207.81 878.178L3187.19 878.182C3184.34 878.182 3182.03 875.874 3182.03 873.026 3182.03 870.179 3184.34 867.87 3187.19 867.869ZM3228.44 867.863 3249.06 867.859C3251.91 867.859 3254.22 870.167 3254.22 873.015 3254.22 875.862 3251.91 878.171 3249.06 878.172L3228.44 878.175C3225.59 878.175 3223.28 875.867 3223.28 873.02 3223.28 870.172 3225.59 867.863 3228.44 867.863ZM3269.69 867.856 3290.31 867.852C3293.16 867.852 3295.47 870.16 3295.47 873.008 3295.47 875.856 3293.16 878.164 3290.31 878.165L3269.69 878.168C3266.84 878.169 3264.53 875.861 3264.53 873.013 3264.53 870.165 3266.84 867.856 3269.69 867.856ZM3310.94 867.849 3331.56 867.846C3334.41 867.845 3336.72 870.153 3336.72 873.001 3336.72 875.849 3334.41 878.158 3331.56 878.158L3310.94 878.161C3308.09 878.162 3305.78 875.854 3305.78 873.006 3305.78 870.158 3308.09 867.849 3310.94 867.849ZM3351.88 867.279 3372.47 866.106C3375.31 865.944 3377.75 868.117 3377.91 870.96 3378.07 873.803 3375.9 876.24 3373.05 876.401L3352.46 877.575C3349.62 877.737 3347.18 875.563 3347.02 872.72 3346.86 869.877 3349.03 867.441 3351.88 867.279ZM3393.06 864.932 3413.65 863.759C3416.49 863.597 3418.93 865.771 3419.09 868.614 3419.25 871.457 3417.08 873.893 3414.24 874.055L3393.65 875.228C3390.8 875.39 3388.37 873.217 3388.2 870.374 3388.04 867.531 3390.22 865.094 3393.06 864.932ZM3434.24 862.586 3454.83 861.412C3457.68 861.25 3460.11 863.424 3460.28 866.267 3460.44 869.11 3458.26 871.546 3455.42 871.708L3434.83 872.882C3431.99 873.044 3429.55 870.87 3429.39 868.027 3429.23 865.184 3431.4 862.748 3434.24 862.586ZM3475.43 860.239 3496.02 859.066C3498.86 858.904 3501.3 861.077 3501.46 863.92 3501.62 866.764 3499.45 869.2 3496.6 869.362L3476.01 870.535C3473.17 870.697 3470.73 868.523 3470.57 865.68 3470.41 862.837 3472.58 860.401 3475.43 860.239ZM3516.61 857.893 3516.82 857.88 3537.53 857.872C3540.37 857.872 3542.68 860.181 3542.68 863.028 3542.68 865.876 3540.37 868.185 3537.53 868.185L3517.41 868.176 3517.2 868.188C3514.35 868.35 3511.92 866.177 3511.75 863.334 3511.59 860.491 3513.77 858.055 3516.61 857.893ZM3558.15 857.872 3578.78 857.872C3581.62 857.872 3583.93 860.181 3583.93 863.028 3583.93 865.876 3581.62 868.185 3578.78 868.185L3558.15 868.185C3555.3 868.185 3553 865.876 3553 863.028 3553 860.181 3555.3 857.872 3558.15 857.872ZM3599.4 857.872 3620.03 857.872C3622.87 857.872 3625.18 860.181 3625.18 863.028 3625.18 865.876 3622.87 868.185 3620.03 868.185L3599.4 868.185C3596.55 868.185 3594.25 865.876 3594.25 863.028 3594.25 860.181 3596.55 857.872 3599.4 857.872ZM3640.65 857.872 3661.28 857.872C3664.12 857.872 3666.43 860.181 3666.43 863.028 3666.43 865.876 3664.12 868.185 3661.28 868.185L3640.65 868.185C3637.8 868.185 3635.5 865.876 3635.5 863.028 3635.5 860.181 3637.8 857.872 3640.65 857.872ZM3681.9 857.872 3691.12 857.872 3702.37 857.547C3705.22 857.465 3707.59 859.706 3707.68 862.553 3707.76 865.399 3705.52 867.773 3702.67 867.855L3691.12 868.185 3681.9 868.185C3679.05 868.185 3676.75 865.876 3676.75 863.028 3676.75 860.181 3679.05 857.872 3681.9 857.872ZM3722.99 856.954 3743.61 856.362C3746.45 856.28 3748.83 858.521 3748.91 861.368 3748.99 864.214 3746.75 866.588 3743.9 866.67L3723.29 867.262C3720.44 867.344 3718.07 865.103 3717.98 862.256 3717.9 859.41 3720.14 857.036 3722.99 856.954ZM3764.22 855.769 3784.84 855.177C3787.69 855.095 3790.06 857.336 3790.14 860.183 3790.22 863.029 3787.98 865.403 3785.14 865.485L3764.52 866.078C3761.67 866.159 3759.3 863.918 3759.22 861.072 3759.14 858.225 3761.38 855.851 3764.22 855.769ZM3805.46 854.584 3826.07 853.992C3828.92 853.91 3831.29 856.151 3831.38 858.998 3831.46 861.845 3829.22 864.218 3826.37 864.3L3805.75 864.893C3802.91 864.974 3800.53 862.733 3800.45 859.887 3800.37 857.04 3802.61 854.666 3805.46 854.584ZM3846.69 853.4 3864.98 852.874 3867.51 852.899C3870.36 852.932 3872.64 855.267 3872.61 858.114 3872.58 860.962 3870.24 863.244 3867.4 863.211L3865.27 863.182 3846.99 863.708 3846.99 863.708C3844.14 863.79 3841.77 861.548 3841.68 858.702 3841.6 855.855 3843.84 853.481 3846.69 853.4ZM3888.14 853.136 3908.76 853.373C3911.61 853.406 3913.89 855.741 3913.86 858.589 3913.83 861.436 3911.49 863.718 3908.64 863.685L3888.02 863.448C3885.17 863.415 3882.89 861.08 3882.92 858.233 3882.96 855.385 3885.29 853.104 3888.14 853.136ZM3929.39 853.611 3950.01 853.848C3952.86 853.881 3955.14 856.216 3955.11 859.063 3955.07 861.911 3952.74 864.193 3949.89 864.16L3929.27 863.923C3926.42 863.89 3924.14 861.555 3924.17 858.707 3924.2 855.86 3926.54 853.578 3929.39 853.611ZM3970.63 854.085 3991.26 854.322C3994.1 854.355 3996.39 856.69 3996.35 859.538 3996.32 862.385 3993.99 864.667 3991.14 864.634L3970.51 864.397C3967.67 864.364 3965.38 862.029 3965.42 859.182 3965.45 856.334 3967.78 854.052 3970.63 854.085ZM4011.88 854.56 4032.5 854.797C4035.35 854.83 4037.63 857.165 4037.6 860.012 4037.57 862.86 4035.23 865.141 4032.38 865.109L4011.76 864.871C4008.91 864.839 4006.63 862.504 4006.66 859.656 4006.7 856.809 4009.03 854.527 4011.88 854.56Z" fill="#9BBB59" fill-rule="nonzero" fill-opacity="1"/></g><g><path d="M1252 869.018C1310.06 875.032 1368.12 890.613 1426.19 887.061 1484.25 883.51 1542.31 833 1600.37 847.708 1658.44 862.417 1716.5 951.171 1774.56 975.312 1832.62 999.453 1890.69 1000.37 1948.75 992.554 2006.81 984.738 2064.87 920.568 2122.94 928.418 2181 936.267 2239.06 1017.91 2297.12 1039.65 2355.19 1061.4 2413.25 1029.9 2471.31 1058.87 2529.37 1087.85 2587.44 1171.53 2645.5 1213.5 2703.56 1255.46 2761.62 1272.36 2819.69 1310.65 2877.75 1348.94 2935.81 1404.31 2993.88 1443.24 3051.94 1482.18 3110 1517.9 3168.06 1544.27 3226.12 1570.64 3284.19 1558.9 3342.25 1601.47 3400.31 1644.03 3458.37 1744.57 3516.44 1799.68 3574.5 1854.78 3632.56 1899.27 3690.62 1932.11 3748.69 1964.94 3806.75 1977.86 3864.81 1996.67 3922.88 2015.49 3980.94 2028.89 4039 2045" stroke="#1F497D" stroke-width="10.3125" stroke-linecap="round" stroke-linejoin="round" stroke-miterlimit="10" stroke-opacity="1" fill="none" fill-rule="nonzero"/></g><g><text fill="#595959" fill-opacity="1" font-family="Calibri,Calibri_MSFontService,sans-serif" font-style="normal" font-variant="normal" font-weight="400" font-stretch="normal" font-size="41" text-anchor="start" direction="ltr" writing-mode="lr-tb" unicode-bidi="normal" text-decoration="none" transform="matrix(1 0 0 1 1105.63 2146)">0</text></g><g><text fill="#595959" fill-opacity="1" font-family="Calibri,Calibri_MSFontService,sans-serif" font-style="normal" font-variant="normal" font-weight="400" font-stretch="normal" font-size="41" text-anchor="start" direction="ltr" writing-mode="lr-tb" unicode-bidi="normal" text-decoration="none" transform="matrix(1 0 0 1 1042.93 1945)">2000</text></g><g><text fill="#595959" fill-opacity="1" font-family="Calibri,Calibri_MSFontService,sans-serif" font-style="normal" font-variant="normal" font-weight="400" font-stretch="normal" font-size="41" text-anchor="start" direction="ltr" writing-mode="lr-tb" unicode-bidi="normal" text-decoration="none" transform="matrix(1 0 0 1 1042.93 1743)">4000</text></g><g><text fill="#595959" fill-opacity="1" font-family="Calibri,Calibri_MSFontService,sans-serif" font-style="normal" font-variant="normal" font-weight="400" font-stretch="normal" font-size="41" text-anchor="start" direction="ltr" writing-mode="lr-tb" unicode-bidi="normal" text-decoration="none" transform="matrix(1 0 0 1 1042.93 1542)">6000</text></g><g><text fill="#595959" fill-opacity="1" font-family="Calibri,Calibri_MSFontService,sans-serif" font-style="normal" font-variant="normal" font-weight="400" font-stretch="normal" font-size="41" text-anchor="start" direction="ltr" writing-mode="lr-tb" unicode-bidi="normal" text-decoration="none" transform="matrix(1 0 0 1 1042.93 1340)">8000</text></g><g><text fill="#595959" fill-opacity="1" font-family="Calibri,Calibri_MSFontService,sans-serif" font-style="normal" font-variant="normal" font-weight="400" font-stretch="normal" font-size="41" text-anchor="start" direction="ltr" writing-mode="lr-tb" unicode-bidi="normal" text-decoration="none" transform="matrix(1 0 0 1 1022.03 1139)">10000</text></g><g><text fill="#595959" fill-opacity="1" font-family="Calibri,Calibri_MSFontService,sans-serif" font-style="normal" font-variant="normal" font-weight="400" font-stretch="normal" font-size="41" text-anchor="start" direction="ltr" writing-mode="lr-tb" unicode-bidi="normal" text-decoration="none" transform="matrix(1 0 0 1 1022.03 937)">12000</text></g><g><text fill="#595959" fill-opacity="1" font-family="Calibri,Calibri_MSFontService,sans-serif" font-style="normal" font-variant="normal" font-weight="400" font-stretch="normal" font-size="41" text-anchor="start" direction="ltr" writing-mode="lr-tb" unicode-bidi="normal" text-decoration="none" transform="matrix(1 0 0 1 1022.03 736)">14000</text></g><g><text fill="#595959" fill-opacity="1" font-family="Calibri,Calibri_MSFontService,sans-serif" font-style="normal" font-variant="normal" font-weight="400" font-stretch="normal" font-size="41" text-anchor="start" direction="ltr" writing-mode="lr-tb" unicode-bidi="normal" text-decoration="none" transform="matrix(1 0 0 1 1233.39 2201)">s1</text></g><g><text fill="#595959" fill-opacity="1" font-family="Calibri,Calibri_MSFontService,sans-serif" font-style="normal" font-variant="normal" font-weight="400" font-stretch="normal" font-size="41" text-anchor="start" direction="ltr" writing-mode="lr-tb" unicode-bidi="normal" text-decoration="none" transform="matrix(1 0 0 1 1407.6 2201)">s2</text></g><g><text fill="#595959" fill-opacity="1" font-family="Calibri,Calibri_MSFontService,sans-serif" font-style="normal" font-variant="normal" font-weight="400" font-stretch="normal" font-size="41" text-anchor="start" direction="ltr" writing-mode="lr-tb" unicode-bidi="normal" text-decoration="none" transform="matrix(1 0 0 1 1581.82 2201)">s3</text></g><g><text fill="#595959" fill-opacity="1" font-family="Calibri,Calibri_MSFontService,sans-serif" font-style="normal" font-variant="normal" font-weight="400" font-stretch="normal" font-size="41" text-anchor="start" direction="ltr" writing-mode="lr-tb" unicode-bidi="normal" text-decoration="none" transform="matrix(1 0 0 1 1756.04 2201)">s4</text></g><g><text fill="#595959" fill-opacity="1" font-family="Calibri,Calibri_MSFontService,sans-serif" font-style="normal" font-variant="normal" font-weight="400" font-stretch="normal" font-size="41" text-anchor="start" direction="ltr" writing-mode="lr-tb" unicode-bidi="normal" text-decoration="none" transform="matrix(1 0 0 1 1930.25 2201)">s5</text></g><g><text fill="#595959" fill-opacity="1" font-family="Calibri,Calibri_MSFontService,sans-serif" font-style="normal" font-variant="normal" font-weight="400" font-stretch="normal" font-size="41" text-anchor="start" direction="ltr" writing-mode="lr-tb" unicode-bidi="normal" text-decoration="none" transform="matrix(1 0 0 1 2104.47 2201)">s6</text></g><g><text fill="#595959" fill-opacity="1" font-family="Calibri,Calibri_MSFontService,sans-serif" font-style="normal" font-variant="normal" font-weight="400" font-stretch="normal" font-size="41" text-anchor="start" direction="ltr" writing-mode="lr-tb" unicode-bidi="normal" text-decoration="none" transform="matrix(1 0 0 1 2278.68 2201)">s7</text></g><g><text fill="#595959" fill-opacity="1" font-family="Calibri,Calibri_MSFontService,sans-serif" font-style="normal" font-variant="normal" font-weight="400" font-stretch="normal" font-size="41" text-anchor="start" direction="ltr" writing-mode="lr-tb" unicode-bidi="normal" text-decoration="none" transform="matrix(1 0 0 1 2452.9 2201)">s8</text></g><g><text fill="#595959" fill-opacity="1" font-family="Calibri,Calibri_MSFontService,sans-serif" font-style="normal" font-variant="normal" font-weight="400" font-stretch="normal" font-size="41" text-anchor="start" direction="ltr" writing-mode="lr-tb" unicode-bidi="normal" text-decoration="none" transform="matrix(1 0 0 1 2627.12 2201)">s9</text></g><g><text fill="#595959" fill-opacity="1" font-family="Calibri,Calibri_MSFontService,sans-serif" font-style="normal" font-variant="normal" font-weight="400" font-stretch="normal" font-size="41" text-anchor="start" direction="ltr" writing-mode="lr-tb" unicode-bidi="normal" text-decoration="none" transform="matrix(1 0 0 1 2790.88 2201)">s10</text></g><g><text fill="#595959" fill-opacity="1" font-family="Calibri,Calibri_MSFontService,sans-serif" font-style="normal" font-variant="normal" font-weight="400" font-stretch="normal" font-size="41" text-anchor="start" direction="ltr" writing-mode="lr-tb" unicode-bidi="normal" text-decoration="none" transform="matrix(1 0 0 1 2965.1 2201)">s11</text></g><g><text fill="#595959" fill-opacity="1" font-family="Calibri,Calibri_MSFontService,sans-serif" font-style="normal" font-variant="normal" font-weight="400" font-stretch="normal" font-size="41" text-anchor="start" direction="ltr" writing-mode="lr-tb" unicode-bidi="normal" text-decoration="none" transform="matrix(1 0 0 1 3139.31 2201)">s12</text></g><g><text fill="#595959" fill-opacity="1" font-family="Calibri,Calibri_MSFontService,sans-serif" font-style="normal" font-variant="normal" font-weight="400" font-stretch="normal" font-size="41" text-anchor="start" direction="ltr" writing-mode="lr-tb" unicode-bidi="normal" text-decoration="none" transform="matrix(1 0 0 1 3313.53 2201)">s13</text></g><g><text fill="#595959" fill-opacity="1" font-family="Calibri,Calibri_MSFontService,sans-serif" font-style="normal" font-variant="normal" font-weight="400" font-stretch="normal" font-size="41" text-anchor="start" direction="ltr" writing-mode="lr-tb" unicode-bidi="normal" text-decoration="none" transform="matrix(1 0 0 1 3487.75 2201)">s14</text></g><g><text fill="#595959" fill-opacity="1" font-family="Calibri,Calibri_MSFontService,sans-serif" font-style="normal" font-variant="normal" font-weight="400" font-stretch="normal" font-size="41" text-anchor="start" direction="ltr" writing-mode="lr-tb" unicode-bidi="normal" text-decoration="none" transform="matrix(1 0 0 1 3661.96 2201)">s15</text></g><g><text fill="#595959" fill-opacity="1" font-family="Calibri,Calibri_MSFontService,sans-serif" font-style="normal" font-variant="normal" font-weight="400" font-stretch="normal" font-size="41" text-anchor="start" direction="ltr" writing-mode="lr-tb" unicode-bidi="normal" text-decoration="none" transform="matrix(1 0 0 1 3836.18 2201)">s16</text></g><g><text fill="#595959" fill-opacity="1" font-family="Calibri,Calibri_MSFontService,sans-serif" font-style="normal" font-variant="normal" font-weight="400" font-stretch="normal" font-size="41" text-anchor="start" direction="ltr" writing-mode="lr-tb" unicode-bidi="normal" text-decoration="none" transform="matrix(1 0 0 1 4010.4 2201)">s17</text></g><g><text fill="#595959" fill-opacity="1" font-family="Calibri,Calibri_MSFontService,sans-serif" font-style="normal" font-variant="normal" font-weight="400" font-stretch="normal" font-size="46" text-anchor="start" direction="ltr" writing-mode="lr-tb" unicode-bidi="normal" text-decoration="none" transform="matrix(6.12323e-17 -1 1 6.12323e-17 996.339 1505)">Euro (€)</text></g><g><text fill="#595959" fill-opacity="1" font-family="Calibri,Calibri_MSFontService,sans-serif" font-style="normal" font-variant="normal" font-weight="400" font-stretch="normal" font-size="64" text-anchor="start" direction="ltr" writing-mode="lr-tb" unicode-bidi="normal" text-decoration="none" transform="matrix(1 0 0 1 2422.32 651)">AC e ETC</text></g><g><path d="M1631 2281 1747 2281" stroke="#FFC000" stroke-width="10.3125" stroke-linecap="round" stroke-linejoin="round" stroke-miterlimit="10" stroke-opacity="1" fill="none" fill-rule="evenodd"/></g><g><text fill="#595959" fill-opacity="1" font-family="Calibri,Calibri_MSFontService,sans-serif" font-style="normal" font-variant="normal" font-weight="400" font-stretch="normal" font-size="41" text-anchor="start" direction="ltr" writing-mode="lr-tb" unicode-bidi="normal" text-decoration="none" transform="matrix(1 0 0 1 1759.23 2291)">AC acc. (€)</text></g><g><path d="M2035 2275.84 2055.62 2275.84C2058.47 2275.84 2060.78 2278.15 2060.78 2281 2060.78 2283.85 2058.47 2286.16 2055.62 2286.16L2035 2286.16C2032.15 2286.16 2029.84 2283.85 2029.84 2281 2029.84 2278.15 2032.15 2275.84 2035 2275.84ZM2076.25 2275.84 2096.88 2275.84C2099.72 2275.84 2102.03 2278.15 2102.03 2281 2102.03 2283.85 2099.72 2286.16 2096.88 2286.16L2076.25 2286.16C2073.4 2286.16 2071.09 2283.85 2071.09 2281 2071.09 2278.15 2073.4 2275.84 2076.25 2275.84ZM2117.5 2275.84 2138.12 2275.84C2140.97 2275.84 2143.28 2278.15 2143.28 2281 2143.28 2283.85 2140.97 2286.16 2138.12 2286.16L2117.5 2286.16C2114.65 2286.16 2112.34 2283.85 2112.34 2281 2112.34 2278.15 2114.65 2275.84 2117.5 2275.84Z" fill="#9BBB59" fill-rule="nonzero" fill-opacity="1"/></g><g><text fill="#595959" fill-opacity="1" font-family="Calibri,Calibri_MSFontService,sans-serif" font-style="normal" font-variant="normal" font-weight="400" font-stretch="normal" font-size="41" text-anchor="start" direction="ltr" writing-mode="lr-tb" unicode-bidi="normal" text-decoration="none" transform="matrix(1 0 0 1 2163 2291)">EAC </text></g><g><text fill="#595959" fill-opacity="1" font-family="Calibri,Calibri_MSFontService,sans-serif" font-style="normal" font-variant="normal" font-weight="400" font-stretch="normal" font-size="41" text-anchor="start" direction="ltr" writing-mode="lr-tb" unicode-bidi="normal" text-decoration="none" transform="matrix(1 0 0 1 2238.35 2291)">-</text></g><g><text fill="#595959" fill-opacity="1" font-family="Calibri,Calibri_MSFontService,sans-serif" font-style="normal" font-variant="normal" font-weight="400" font-stretch="normal" font-size="41" text-anchor="start" direction="ltr" writing-mode="lr-tb" unicode-bidi="normal" text-decoration="none" transform="matrix(1 0 0 1 2260.3 2291)">Estimate At Completion (€)</text></g><g><path d="M2814 2281 2929 2281" stroke="#1F497D" stroke-width="10.3125" stroke-linecap="round" stroke-linejoin="round" stroke-miterlimit="10" stroke-opacity="1" fill="none" fill-rule="evenodd"/></g><g><text fill="#595959" fill-opacity="1" font-family="Calibri,Calibri_MSFontService,sans-serif" font-style="normal" font-variant="normal" font-weight="400" font-stretch="normal" font-size="41" text-anchor="start" direction="ltr" writing-mode="lr-tb" unicode-bidi="normal" text-decoration="none" transform="matrix(1 0 0 1 2941.88 2291)">ETC </text></g><g><text fill="#595959" fill-opacity="1" font-family="Calibri,Calibri_MSFontService,sans-serif" font-style="normal" font-variant="normal" font-weight="400" font-stretch="normal" font-size="41" text-anchor="start" direction="ltr" writing-mode="lr-tb" unicode-bidi="normal" text-decoration="none" transform="matrix(1 0 0 1 3013.45 2291)">-</text></g><g><text fill="#595959" fill-opacity="1" font-family="Calibri,Calibri_MSFontService,sans-serif" font-style="normal" font-variant="normal" font-weight="400" font-stretch="normal" font-size="41" text-anchor="start" direction="ltr" writing-mode="lr-tb" unicode-bidi="normal" text-decoration="none" transform="matrix(1 0 0 1 3035.41 2291)">Estimate To Complete (€)</text></g><rect x="895.5" y="556.5" width="3282" height="1791" stroke="#D9D9D9" stroke-width="3.4375" stroke-linecap="butt" stroke-linejoin="round" stroke-miterlimit="10" stroke-opacity="1" fill="none"/></g></g></svg>