<svg width="3028" height="1784" xmlns="http://www.w3.org/2000/svg" xmlns:xlink="http://www.w3.org/1999/xlink" xml:space="preserve" overflow="hidden"><defs><clipPath id="clip0"><rect x="824" y="551" width="3028" height="1784"/></clipPath></defs><g clip-path="url(#clip0)" transform="translate(-824 -551)"><rect x="825" y="552" width="3025" height="1781" fill="#FFFFFF"/><g><path d="M1094.5 1921.56 3799.5 1921.56M1094.5 1721.56 3799.5 1721.56M1094.5 1521.55 3799.5 1521.55M1094.5 1322.54 3799.5 1322.54M1094.5 1122.54 3799.5 1122.54M1094.5 922.53 3799.5 922.53M1094.5 722.5 3799.5 722.5" stroke="#D9D9D9" stroke-width="3.4375" stroke-linejoin="round" stroke-miterlimit="10" fill="none"/></g><g><path d="M1094.5 2121.5 3799.5 2121.5" stroke="#D9D9D9" stroke-width="3.4375" stroke-linejoin="round" stroke-miterlimit="10" fill="none" fill-rule="evenodd"/></g><g><path d="M1174 2093C1227.04 2083.33 1280.08 2071.33 1333.12 2064 1386.17 2056.67 1439.21 2059.25 1492.25 2049 1545.29 2038.75 1598.33 2015.58 1651.38 2002.5 1704.42 1989.42 1757.46 1982.75 1810.5 1970.5 1863.54 1958.25 1916.58 1942.17 1969.62 1929 2022.67 1915.83 2075.71 1906 2128.75 1891.5 2181.79 1877 2234.83 1864.08 2287.88 1842 2340.92 1819.92 2393.96 1779.75 2447 1759 2500.04 1738.25 2553.08 1751.75 2606.12 1717.5 2659.17 1683.25 2712.21 1605.5 2765.25 1553.5 2818.29 1501.5 2871.33 1444.58 2924.38 1405.5 2977.42 1366.42 3030.46 1354.67 3083.5 1319 3136.54 1283.33 3189.58 1234.67 3242.62 1191.5 3295.67 1148.33 3348.71 1098.33 3401.75 1060 3454.79 1021.67 3507.83 990.667 3560.88 961.5 3613.92 932.334 3666.96 910.5 3720 885" stroke="#FFC000" stroke-width="10.3125" stroke-linecap="round" stroke-linejoin="round" stroke-miterlimit="10" fill="none"/></g><g><path d="M1174 837.027 1333.04 831.027 1492.05 817 1652.05 820.027 1811.06 843.028 1970.06 840.028 2129.07 838.028 2288.08 834.027 2447.08 844.028 2606.09 859.028 2765.09 856.028 2924.1 869.029 3083.1 869 3243.11 858.028 3402.11 858.028 3561.12 854.028 3720 855.028" stroke="#9BBB59" stroke-width="10.3125" stroke-linecap="round" stroke-linejoin="round" stroke-miterlimit="10" stroke-dasharray="20.625 20.625" fill="none"/></g><g><path d="M1174 866C1227.04 873.636 1280.08 884.919 1333.12 888.91 1386.17 892.901 1439.21 881.615 1492.25 889.948 1545.29 898.281 1598.33 921.53 1651.38 938.909 1704.42 956.289 1757.46 978.582 1810.5 994.224 1863.54 1009.87 1916.58 1020.45 1969.62 1032.76 2022.67 1045.07 2075.71 1054.51 2128.75 1068.08 2181.79 1081.64 2234.83 1091.06 2287.88 1114.15 2340.92 1137.25 2393.96 1181.82 2447 1206.64 2500.04 1231.46 2553.08 1226.73 2606.12 1263.08 2659.17 1299.42 2712.21 1371.04 2765.25 1424.69 2818.29 1478.34 2871.33 1543.79 2924.38 1584.97 2977.42 1626.14 3030.46 1637.82 3083.5 1671.74 3136.54 1705.66 3189.58 1747.12 3242.62 1788.49 3295.67 1829.85 3348.71 1882.35 3401.75 1919.94 3454.79 1957.53 3507.83 1985.35 3560.88 2014.03 3613.92 2042.7 3666.96 2066.01 3720 2092" stroke="#1F497D" stroke-width="10.3125" stroke-linecap="round" stroke-linejoin="round" stroke-miterlimit="10" fill="none"/></g><g><text fill="#595959" font-family="Calibri,Calibri_MSFontService,sans-serif" font-weight="400" font-size="41" transform="matrix(1 0 0 1 1035.58 2133)">0</text></g><g><text fill="#595959" font-family="Calibri,Calibri_MSFontService,sans-serif" font-weight="400" font-size="41" transform="matrix(1 0 0 1 972.881 1933)">2000</text></g><g><text fill="#595959" font-family="Calibri,Calibri_MSFontService,sans-serif" font-weight="400" font-size="41" transform="matrix(1 0 0 1 972.881 1733)">4000</text></g><g><text fill="#595959" font-family="Calibri,Calibri_MSFontService,sans-serif" font-weight="400" font-size="41" transform="matrix(1 0 0 1 972.881 1534)">6000</text></g><g><text fill="#595959" font-family="Calibri,Calibri_MSFontService,sans-serif" font-weight="400" font-size="41" transform="matrix(1 0 0 1 972.881 1334)">8000</text></g><g><text fill="#595959" font-family="Calibri,Calibri_MSFontService,sans-serif" font-weight="400" font-size="41" transform="matrix(1 0 0 1 951.981 1134)">10000</text></g><g><text fill="#595959" font-family="Calibri,Calibri_MSFontService,sans-serif" font-weight="400" font-size="41" transform="matrix(1 0 0 1 951.981 934)">12000</text></g><g><text fill="#595959" font-family="Calibri,Calibri_MSFontService,sans-serif" font-weight="400" font-size="41" transform="matrix(1 0 0 1 951.981 734)">14000</text></g><g><text fill="#595959" font-family="Calibri,Calibri_MSFontService,sans-serif" font-weight="400" font-size="41" transform="matrix(1 0 0 1 1155.79 2187)">s1</text></g><g><text fill="#595959" font-family="Calibri,Calibri_MSFontService,sans-serif" font-weight="400" font-size="41" transform="matrix(1 0 0 1 1314.89 2187)">s2</text></g><g><text fill="#595959" font-family="Calibri,Calibri_MSFontService,sans-serif" font-weight="400" font-size="41" transform="matrix(1 0 0 1 1474 2187)">s3</text></g><g><text fill="#595959" font-family="Calibri,Calibri_MSFontService,sans-serif" font-weight="400" font-size="41" transform="matrix(1 0 0 1 1633.11 2187)">s4</text></g><g><text fill="#595959" font-family="Calibri,Calibri_MSFontService,sans-serif" font-weight="400" font-size="41" transform="matrix(1 0 0 1 1792.22 2187)">s5</text></g><g><text fill="#595959" font-family="Calibri,Calibri_MSFontService,sans-serif" font-weight="400" font-size="41" transform="matrix(1 0 0 1 1951.33 2187)">s6</text></g><g><text fill="#595959" font-family="Calibri,Calibri_MSFontService,sans-serif" font-weight="400" font-size="41" transform="matrix(1 0 0 1 2110.43 2187)">s7</text></g><g><text fill="#595959" font-family="Calibri,Calibri_MSFontService,sans-serif" font-weight="400" font-size="41" transform="matrix(1 0 0 1 2269.54 2187)">s8</text></g><g><text fill="#595959" font-family="Calibri,Calibri_MSFontService,sans-serif" font-weight="400" font-size="41" transform="matrix(1 0 0 1 2428.65 2187)">s9</text></g><g><text fill="#595959" font-family="Calibri,Calibri_MSFontService,sans-serif" font-weight="400" font-size="41" transform="matrix(1 0 0 1 2577.31 2187)">s10</text></g><g><text fill="#595959" font-family="Calibri,Calibri_MSFontService,sans-serif" font-weight="400" font-size="41" transform="matrix(1 0 0 1 2736.41 2187)">s11</text></g><g><text fill="#595959" font-family="Calibri,Calibri_MSFontService,sans-serif" font-weight="400" font-size="41" transform="matrix(1 0 0 1 2895.52 2187)">s12</text></g><g><text fill="#595959" font-family="Calibri,Calibri_MSFontService,sans-serif" font-weight="400" font-size="41" transform="matrix(1 0 0 1 3054.63 2187)">s13</text></g><g><text fill="#595959" font-family="Calibri,Calibri_MSFontService,sans-serif" font-weight="400" font-size="41" transform="matrix(1 0 0 1 3213.74 2187)">s14</text></g><g><text fill="#595959" font-family="Calibri,Calibri_MSFontService,sans-serif" font-weight="400" font-size="41" transform="matrix(1 0 0 1 3372.85 2187)">s15</text></g><g><text fill="#595959" font-family="Calibri,Calibri_MSFontService,sans-serif" font-weight="400" font-size="41" transform="matrix(1 0 0 1 3531.95 2187)">s16</text></g><g><text fill="#595959" font-family="Calibri,Calibri_MSFontService,sans-serif" font-weight="400" font-size="41" transform="matrix(1 0 0 1 3691.06 2187)">s17</text></g><g><text fill="#595959" font-family="Calibri,Calibri_MSFontService,sans-serif" font-weight="400" font-size="46" transform="matrix(6.12323e-17 -1 1 6.12323e-17 926.292 1496)">Euro (€)</text></g><g><text fill="#595959" font-family="Calibri,Calibri_MSFontService,sans-serif" font-weight="400" font-size="64" transform="matrix(1 0 0 1 2223.86 648)">AC e ETC</text></g><g><path d="M1433 2267 1548 2267" stroke="#FFC000" stroke-width="10.3125" stroke-linecap="round" stroke-linejoin="round" stroke-miterlimit="10" fill="none" fill-rule="evenodd"/></g><g><text fill="#595959" font-family="Calibri,Calibri_MSFontService,sans-serif" font-weight="400" font-size="41" transform="matrix(1 0 0 1 1560.77 2278)">AC acc. (€)</text></g><g><path d="M1836 2267 1952 2267" stroke="#9BBB59" stroke-width="10.3125" stroke-linecap="round" stroke-linejoin="round" stroke-miterlimit="10" stroke-dasharray="20.625 20.625" fill="none" fill-rule="evenodd"/></g><g><text fill="#595959" font-family="Calibri,Calibri_MSFontService,sans-serif" font-weight="400" font-size="41" transform="matrix(1 0 0 1 1964.53 2278)">EAC </text></g><g><text fill="#595959" font-family="Calibri,Calibri_MSFontService,sans-serif" font-weight="400" font-size="41" transform="matrix(1 0 0 1 2039.88 2278)">-</text></g><g><text fill="#595959" font-family="Calibri,Calibri_MSFontService,sans-serif" font-weight="400" font-size="41" transform="matrix(1 0 0 1 2061.83 2278)">Estimate At Completion (€)</text></g><g><path d="M2615 2267 2731 2267" stroke="#1F497D" stroke-width="10.3125" stroke-linecap="round" stroke-linejoin="round" stroke-miterlimit="10" fill="none" fill-rule="evenodd"/></g><g><text fill="#595959" font-family="Calibri,Calibri_MSFontService,sans-serif" font-weight="400" font-size="41" transform="matrix(1 0 0 1 2743.42 2278)">ETC </text></g><g><text fill="#595959" font-family="Calibri,Calibri_MSFontService,sans-serif" font-weight="400" font-size="41" transform="matrix(1 0 0 1 2814.99 2278)">-</text></g><g><text fill="#595959" font-family="Calibri,Calibri_MSFontService,sans-serif" font-weight="400" font-size="41" transform="matrix(1 0 0 1 2836.94 2278)">Estimate To Complete (€)</text></g><rect x="825.5" y="552.5" width="3025" height="1781" stroke="#D9D9D9" stroke-width="3.4375" stroke-linejoin="round" stroke-miterlimit="10" fill="none"/></g></svg>