<svg width="3287" height="1797" xmlns="http://www.w3.org/2000/svg" xmlns:xlink="http://www.w3.org/1999/xlink" xml:space="preserve" overflow="hidden"><defs><clipPath id="clip0"><rect x="893" y="554" width="3287" height="1797"/></clipPath><clipPath id="clip1"><rect x="893" y="554" width="3287" height="1797"/></clipPath></defs><g clip-path="url(#clip0)" transform="translate(-893 -554)"><g clip-path="url(#clip1)"><rect x="895" y="556" width="3282" height="1791" fill="#FFFFFF" fill-opacity="1"/><g><path d="M1164.5 1959.56 4126.5 1959.56M1164.5 1783.56 4126.5 1783.56M1164.5 1607.55 4126.5 1607.55M1164.5 1430.55 4126.5 1430.55M1164.5 1254.54 4126.5 1254.54M1164.5 1078.54 4126.5 1078.54M1164.5 902.53 4126.5 902.53M1164.5 725.5 4126.5 725.5" stroke="#D9D9D9" stroke-width="3.4375" stroke-linecap="butt" stroke-linejoin="round" stroke-miterlimit="10" stroke-opacity="1" fill="none" fill-rule="nonzero"/></g><g><path d="M1164.5 2136.5 4126.5 2136.5" stroke="#D9D9D9" stroke-width="3.4375" stroke-linecap="butt" stroke-linejoin="round" stroke-miterlimit="10" stroke-opacity="1" fill="none" fill-rule="evenodd"/></g><g><path d="M1252 2110C1310.06 2101.49 1368.12 2090.92 1426.19 2084.46 1484.25 2078 1542.31 2080.27 1600.37 2071.25 1658.44 2062.22 1716.5 2041.81 1774.56 2030.29 1832.62 2018.76 1890.69 2012.89 1948.75 2002.1 2006.81 1991.31 2064.87 1977.15 2122.94 1965.55 2181 1953.95 2239.06 1945.29 2297.12 1932.52 2355.19 1919.75 2413.25 1908.37 2471.31 1888.92 2529.37 1869.47 2587.44 1834.09 2645.5 1815.81 2703.56 1797.54 2761.62 1809.43 2819.69 1779.26 2877.75 1749.09 2935.81 1680.61 2993.88 1634.81 3051.94 1589.01 3110 1538.88 3168.06 1504.45 3226.12 1470.03 3284.19 1459.68 3342.25 1428.26 3400.31 1396.85 3458.37 1353.98 3516.44 1315.96 3574.5 1277.94 3632.56 1233.9 3690.62 1200.14 3748.69 1166.38 3806.75 1139.07 3864.81 1113.38 3922.88 1087.69 3980.94 1068.46 4039 1046" stroke="#FFC000" stroke-width="10.3125" stroke-linecap="round" stroke-linejoin="round" stroke-miterlimit="10" stroke-opacity="1" fill="none" fill-rule="nonzero"/></g><g><path d="M1251.7 996.885 1272.3 995.702C1275.14 995.539 1277.58 997.711 1277.74 1000.55 1277.9 1003.4 1275.73 1005.83 1272.89 1006L1252.3 1007.18C1249.45 1007.34 1247.02 1005.17 1246.85 1002.33 1246.69 999.486 1248.86 997.048 1251.7 996.885ZM1292.89 994.519 1313.48 993.336C1316.32 993.172 1318.76 995.345 1318.92 998.188 1319.08 1001.03 1316.91 1003.47 1314.07 1003.63L1293.48 1004.81C1290.63 1004.98 1288.2 1002.81 1288.03 999.962 1287.87 997.119 1290.04 994.682 1292.89 994.519ZM1334.07 992.153 1354.66 990.97C1357.5 990.806 1359.94 992.978 1360.1 995.822 1360.27 998.665 1358.09 1001.1 1355.25 1001.27L1334.66 1002.45C1331.82 1002.61 1329.38 1000.44 1329.22 997.596 1329.05 994.753 1331.23 992.316 1334.07 992.153ZM1375.25 989.786 1395.84 988.603C1398.68 988.44 1401.12 990.612 1401.28 993.455 1401.45 996.298 1399.28 998.735 1396.43 998.899L1375.84 1000.08C1373 1000.25 1370.56 998.073 1370.4 995.23 1370.23 992.387 1372.41 989.95 1375.25 989.786ZM1416.43 987.42 1425.75 986.885 1424.7 987.055 1435.6 984.109C1438.35 983.366 1441.18 984.992 1441.92 987.741 1442.67 990.49 1441.04 993.321 1438.29 994.064L1427.39 997.01C1427.05 997.103 1426.7 997.16 1426.34 997.18L1417.02 997.716C1414.18 997.879 1411.74 995.707 1411.58 992.864 1411.42 990.021 1413.59 987.584 1416.43 987.42ZM1455.51 978.727 1475.42 973.345C1478.17 972.602 1481 974.229 1481.75 976.978 1482.49 979.727 1480.86 982.558 1478.11 983.301L1458.2 988.682C1455.45 989.425 1452.62 987.799 1451.88 985.05 1451.14 982.301 1452.76 979.47 1455.51 978.727ZM1495.33 967.964 1515.24 962.582 1515.24 962.582C1517.99 961.839 1520.82 963.465 1521.57 966.214 1522.31 968.963 1520.68 971.794 1517.93 972.537L1498.02 977.919C1495.27 978.662 1492.44 977.036 1491.7 974.287 1490.96 971.538 1492.58 968.707 1495.33 967.964ZM1535.15 957.2 1555.06 951.819C1557.81 951.076 1560.64 952.702 1561.39 955.451 1562.13 958.2 1560.5 961.031 1557.76 961.774L1557.76 961.774 1537.84 967.156C1535.1 967.899 1532.26 966.272 1531.52 963.523 1530.78 960.774 1532.4 957.943 1535.15 957.2ZM1574.97 946.437 1594.89 941.055C1597.63 940.312 1600.47 941.938 1601.21 944.688 1601.95 947.437 1600.33 950.268 1597.58 951.011L1577.67 956.392C1574.92 957.135 1572.09 955.509 1571.34 952.76 1570.6 950.011 1572.23 947.18 1574.97 946.437ZM1617.44 946.439 1636.57 954.14 1636.57 954.14C1639.21 955.203 1640.49 958.207 1639.43 960.849 1638.37 963.49 1635.36 964.77 1632.72 963.707L1613.59 956.006C1610.95 954.943 1609.67 951.939 1610.73 949.297 1611.79 946.656 1614.8 945.376 1617.44 946.439ZM1655.71 961.841 1674.84 969.542C1677.48 970.605 1678.76 973.608 1677.7 976.25 1676.63 978.892 1673.63 980.172 1670.99 979.108L1651.85 971.407C1649.21 970.344 1647.93 967.341 1649 964.699 1650.06 962.057 1653.06 960.778 1655.71 961.841ZM1693.97 977.242 1713.11 984.943C1715.75 986.006 1717.03 989.01 1715.96 991.652 1714.9 994.293 1711.9 995.573 1709.26 994.51L1690.12 986.809C1687.48 985.746 1686.2 982.742 1687.26 980.101 1688.33 977.459 1691.33 976.179 1693.97 977.242ZM1732.24 992.644 1751.37 1000.34C1754.01 1001.41 1755.29 1004.41 1754.23 1007.05 1753.17 1009.7 1750.16 1010.97 1747.52 1009.91L1728.39 1002.21C1725.75 1001.15 1724.47 998.144 1725.53 995.502 1726.59 992.86 1729.6 991.581 1732.24 992.644ZM1770.51 1008.05 1775.98 1010.25 1789.62 1016.09C1792.24 1017.21 1793.45 1020.25 1792.33 1022.86 1791.21 1025.48 1788.17 1026.69 1785.56 1025.57L1772.13 1019.82 1766.66 1017.61C1764.01 1016.55 1762.73 1013.55 1763.8 1010.9 1764.86 1008.26 1767.86 1006.98 1770.51 1008.05ZM1808.58 1024.22 1827.53 1032.34C1830.15 1033.46 1831.36 1036.49 1830.24 1039.11 1829.12 1041.73 1826.09 1042.94 1823.47 1041.82L1804.51 1033.7C1801.9 1032.57 1800.68 1029.54 1801.81 1026.93 1802.93 1024.31 1805.96 1023.1 1808.58 1024.22ZM1846.49 1040.47 1865.45 1048.59C1868.07 1049.71 1869.28 1052.74 1868.16 1055.36 1867.04 1057.98 1864 1059.19 1861.39 1058.07L1842.43 1049.95C1839.81 1048.82 1838.6 1045.79 1839.72 1043.17 1840.84 1040.56 1843.87 1039.34 1846.49 1040.47ZM1884.41 1056.72 1903.36 1064.84C1905.98 1065.96 1907.19 1068.99 1906.07 1071.61 1904.95 1074.23 1901.92 1075.44 1899.3 1074.32L1880.34 1066.19C1877.73 1065.07 1876.51 1062.04 1877.64 1059.42 1878.76 1056.81 1881.79 1055.59 1884.41 1056.72ZM1922.32 1072.96 1941.28 1081.09C1943.9 1082.21 1945.11 1085.24 1943.99 1087.86 1942.87 1090.48 1939.83 1091.69 1937.22 1090.57L1918.26 1082.44C1915.64 1081.32 1914.43 1078.29 1915.55 1075.67 1916.67 1073.06 1919.7 1071.84 1922.32 1072.96ZM1955.45 1080.83 1973.68 1071.19C1976.2 1069.86 1979.32 1070.82 1980.65 1073.34 1981.98 1075.85 1981.02 1078.97 1978.5 1080.3L1960.27 1089.95C1957.75 1091.28 1954.63 1090.31 1953.3 1087.8 1951.97 1085.28 1952.93 1082.16 1955.45 1080.83ZM1991.91 1061.55 2010.15 1051.91C2012.66 1050.58 2015.78 1051.54 2017.11 1054.06 2018.44 1056.57 2017.48 1059.69 2014.97 1061.02L1996.73 1070.66C1994.21 1072 1991.09 1071.03 1989.76 1068.52 1988.43 1066 1989.39 1062.88 1991.91 1061.55ZM2028.38 1042.27 2046.61 1032.63C2049.13 1031.3 2052.25 1032.26 2053.58 1034.77 2054.91 1037.29 2053.95 1040.41 2051.43 1041.74L2033.2 1051.38C2030.68 1052.71 2027.56 1051.75 2026.23 1049.24 2024.9 1046.72 2025.86 1043.6 2028.38 1042.27ZM2064.84 1022.99 2083.08 1013.34C2085.6 1012.01 2088.72 1012.98 2090.05 1015.49 2091.38 1018.01 2090.42 1021.13 2087.9 1022.46L2069.67 1032.1C2067.15 1033.43 2064.03 1032.47 2062.7 1029.95 2061.37 1027.44 2062.33 1024.32 2064.84 1022.99ZM2101.31 1003.7 2119.54 994.064C2122.06 992.733 2125.18 993.695 2126.51 996.212 2127.84 998.729 2126.88 1001.85 2124.36 1003.18L2106.13 1012.82C2103.61 1014.15 2100.49 1013.19 2099.16 1010.67 2097.83 1008.16 2098.79 1005.04 2101.31 1003.7ZM2141.05 1006.89 2156.58 1020.45C2158.73 1022.33 2158.95 1025.58 2157.07 1027.73 2155.2 1029.87 2151.94 1030.09 2149.8 1028.22L2134.26 1014.65C2132.12 1012.78 2131.9 1009.52 2133.77 1007.38 2135.64 1005.23 2138.9 1005.01 2141.05 1006.89ZM2172.12 1034.02 2187.65 1047.59C2189.79 1049.46 2190.02 1052.72 2188.14 1054.86 2186.27 1057.01 2183.01 1057.23 2180.87 1055.36L2165.33 1041.79C2163.19 1039.91 2162.97 1036.66 2164.84 1034.51 2166.71 1032.37 2169.97 1032.15 2172.12 1034.02ZM2203.18 1061.16 2218.72 1074.72C2220.86 1076.6 2221.08 1079.85 2219.21 1082 2217.34 1084.14 2214.08 1084.36 2211.94 1082.49L2196.4 1068.92C2194.26 1067.05 2194.04 1063.79 2195.91 1061.65 2197.78 1059.5 2201.04 1059.28 2203.18 1061.16ZM2234.25 1088.29 2249.79 1101.86C2251.93 1103.73 2252.15 1106.99 2250.28 1109.13 2248.41 1111.28 2245.15 1111.5 2243 1109.62L2227.47 1096.06C2225.33 1094.18 2225.11 1090.93 2226.98 1088.78 2228.85 1086.64 2232.11 1086.42 2234.25 1088.29ZM2265.32 1115.42 2280.86 1128.99C2283 1130.86 2283.22 1134.12 2281.35 1136.27 2279.48 1138.41 2276.22 1138.63 2274.07 1136.76L2258.54 1123.19C2256.39 1121.32 2256.17 1118.06 2258.05 1115.92 2259.92 1113.77 2263.18 1113.55 2265.32 1115.42ZM2296.39 1142.56 2300.47 1146.12 2293.6 1146.19 2304.83 1135.93C2306.93 1134.01 2310.19 1134.16 2312.12 1136.26 2314.04 1138.36 2313.89 1141.62 2311.79 1143.54L2300.55 1153.81C2298.62 1155.58 2295.66 1155.61 2293.68 1153.88L2289.61 1150.32C2287.46 1148.45 2287.24 1145.19 2289.12 1143.05 2290.99 1140.9 2294.25 1140.68 2296.39 1142.56ZM2320.06 1122.02 2335.29 1108.11C2337.39 1106.19 2340.65 1106.33 2342.57 1108.44 2344.49 1110.54 2344.34 1113.8 2342.24 1115.72L2327.01 1129.63C2324.91 1131.55 2321.65 1131.41 2319.73 1129.3 2317.81 1127.2 2317.96 1123.94 2320.06 1122.02ZM2350.51 1094.2 2365.74 1080.29C2367.84 1078.36 2371.1 1078.51 2373.02 1080.61 2374.94 1082.72 2374.8 1085.98 2372.7 1087.9L2357.47 1101.81C2355.37 1103.73 2352.1 1103.58 2350.18 1101.48 2348.26 1099.38 2348.41 1096.12 2350.51 1094.2ZM2380.97 1066.37 2396.19 1052.46C2398.3 1050.54 2401.56 1050.69 2403.48 1052.79 2405.4 1054.89 2405.25 1058.16 2403.15 1060.08L2387.92 1073.99C2385.82 1075.91 2382.56 1075.76 2380.64 1073.66 2378.72 1071.56 2378.86 1068.3 2380.97 1066.37ZM2411.42 1038.55 2426.65 1024.64C2428.75 1022.72 2432.01 1022.87 2433.93 1024.97 2435.85 1027.07 2435.71 1030.33 2433.6 1032.25L2418.38 1046.17C2416.27 1048.09 2413.01 1047.94 2411.09 1045.84 2409.17 1043.73 2409.32 1040.47 2411.42 1038.55ZM2441.88 1010.73 2457.1 996.818C2459.21 994.898 2462.47 995.045 2464.39 997.147 2466.31 999.25 2466.16 1002.51 2464.06 1004.43L2448.83 1018.34C2446.73 1020.26 2443.47 1020.12 2441.55 1018.01 2439.63 1015.91 2439.77 1012.65 2441.88 1010.73ZM2477.98 986.558 2498.49 988.669C2501.33 988.96 2503.39 991.493 2503.1 994.325 2502.8 997.158 2500.27 999.218 2497.44 998.927L2476.92 996.817C2474.09 996.525 2472.03 993.993 2472.32 991.16 2472.61 988.327 2475.14 986.267 2477.98 986.558ZM2519.01 990.779 2539.53 992.889C2542.36 993.181 2544.42 995.713 2544.13 998.546 2543.84 1001.38 2541.31 1003.44 2538.47 1003.15L2517.96 1001.04C2515.12 1000.75 2513.06 998.213 2513.35 995.381 2513.65 992.548 2516.18 990.488 2519.01 990.779ZM2560.04 995 2580.56 997.11C2583.39 997.401 2585.45 999.934 2585.16 1002.77 2584.87 1005.6 2582.34 1007.66 2579.51 1007.37L2558.99 1005.26C2556.16 1004.97 2554.1 1002.43 2554.39 999.601 2554.68 996.768 2557.21 994.708 2560.04 995ZM2601.08 999.22 2621.59 1001.33C2624.43 1001.62 2626.49 1004.15 2626.2 1006.99 2625.91 1009.82 2623.37 1011.88 2620.54 1011.59L2600.02 1009.48C2597.19 1009.19 2595.13 1006.65 2595.42 1003.82 2595.71 1000.99 2598.25 998.929 2601.08 999.22ZM2642.11 1003.44 2646.61 1003.9C2646.91 1003.93 2647.2 1003.99 2647.48 1004.07L2662.98 1008.43C2665.72 1009.21 2667.32 1012.05 2666.55 1014.79 2665.77 1017.54 2662.93 1019.13 2660.19 1018.36L2644.69 1014 2645.56 1014.16 2641.06 1013.7C2638.22 1013.41 2636.16 1010.88 2636.45 1008.04 2636.75 1005.21 2639.28 1003.15 2642.11 1003.44ZM2682.83 1014.02 2702.69 1019.62C2705.43 1020.39 2707.02 1023.23 2706.25 1025.98 2705.48 1028.72 2702.63 1030.31 2699.89 1029.54L2680.04 1023.95C2677.3 1023.18 2675.7 1020.33 2676.47 1017.59 2677.24 1014.85 2680.09 1013.25 2682.83 1014.02ZM2722.54 1025.21 2742.39 1030.8C2745.13 1031.57 2746.73 1034.42 2745.96 1037.16 2745.19 1039.9 2742.34 1041.49 2739.6 1040.72L2719.74 1035.13C2717 1034.36 2715.41 1031.51 2716.18 1028.77 2716.95 1026.03 2719.8 1024.43 2722.54 1025.21ZM2762.24 1036.39 2782.1 1041.98C2784.84 1042.75 2786.43 1045.6 2785.66 1048.34 2784.89 1051.08 2782.04 1052.68 2779.3 1051.9L2759.45 1046.31C2756.71 1045.54 2755.11 1042.69 2755.88 1039.95 2756.66 1037.21 2759.5 1035.62 2762.24 1036.39ZM2801.95 1047.57 2821.49 1053.07 2820 1052.88 2820.33 1052.87C2823.18 1052.82 2825.52 1055.09 2825.57 1057.94 2825.62 1060.79 2823.35 1063.14 2820.51 1063.18L2820.18 1063.19C2819.68 1063.2 2819.18 1063.13 2818.69 1063L2799.15 1057.5C2796.41 1056.72 2794.82 1053.88 2795.59 1051.13 2796.36 1048.39 2799.21 1046.8 2801.95 1047.57ZM2840.95 1052.52 2861.57 1052.16C2864.42 1052.11 2866.77 1054.38 2866.82 1057.23 2866.87 1060.08 2864.6 1062.42 2861.75 1062.47L2841.13 1062.83C2838.28 1062.88 2835.93 1060.61 2835.88 1057.76 2835.83 1054.92 2838.1 1052.57 2840.95 1052.52ZM2882.19 1051.81 2902.82 1051.45C2905.66 1051.4 2908.01 1053.67 2908.06 1056.52 2908.11 1059.37 2905.84 1061.71 2902.99 1061.76L2882.37 1062.12C2879.52 1062.17 2877.18 1059.9 2877.13 1057.05 2877.08 1054.2 2879.35 1051.86 2882.19 1051.81ZM2923.44 1051.1 2944.06 1050.74C2946.91 1050.69 2949.26 1052.96 2949.3 1055.81 2949.35 1058.65 2947.08 1061 2944.24 1061.05L2923.62 1061.41C2920.77 1061.46 2918.42 1059.19 2918.37 1056.34 2918.32 1053.49 2920.59 1051.14 2923.44 1051.1ZM2964.68 1050.38 2985.3 1050.03C2988.15 1049.98 2990.5 1052.25 2990.55 1055.1 2990.6 1057.94 2988.33 1060.29 2985.48 1060.34L2964.86 1060.7C2962.01 1060.74 2959.66 1058.48 2959.62 1055.63 2959.57 1052.78 2961.83 1050.43 2964.68 1050.38ZM3005.53 1048.87 3026.08 1047.1C3028.92 1046.86 3031.41 1048.96 3031.66 1051.8 3031.9 1054.63 3029.8 1057.13 3026.96 1057.38L3006.42 1059.15C3003.58 1059.39 3001.08 1057.29 3000.84 1054.45 3000.59 1051.62 3002.69 1049.12 3005.53 1048.87ZM3046.63 1045.33 3067.18 1043.56C3070.01 1043.31 3072.51 1045.42 3072.76 1048.25 3073 1051.09 3070.9 1053.59 3068.06 1053.83L3047.51 1055.61C3044.68 1055.85 3042.18 1053.75 3041.93 1050.91 3041.69 1048.07 3043.79 1045.58 3046.63 1045.33ZM3087.72 1041.79 3108.27 1040.02C3111.11 1039.77 3113.61 1041.87 3113.85 1044.71 3114.1 1047.55 3112 1050.05 3109.16 1050.29L3088.61 1052.06C3085.77 1052.31 3083.28 1050.21 3083.03 1047.37 3082.79 1044.53 3084.89 1042.03 3087.72 1041.79ZM3128.82 1038.25 3149.37 1036.47C3152.21 1036.23 3154.71 1038.33 3154.95 1041.17 3155.2 1044.01 3153.09 1046.5 3150.26 1046.75L3129.71 1048.52C3126.87 1048.76 3124.37 1046.66 3124.13 1043.83 3123.88 1040.99 3125.99 1038.49 3128.82 1038.25ZM3170.63 1035 3191.23 1036.07C3194.08 1036.21 3196.26 1038.64 3196.11 1041.48 3195.97 1044.33 3193.54 1046.51 3190.7 1046.37L3170.1 1045.3C3167.26 1045.15 3165.07 1042.73 3165.22 1039.88 3165.37 1037.04 3167.79 1034.85 3170.63 1035ZM3211.83 1037.13 3232.43 1038.2C3235.27 1038.35 3237.46 1040.77 3237.31 1043.61 3237.16 1046.46 3234.74 1048.64 3231.89 1048.5L3211.3 1047.43C3208.45 1047.28 3206.27 1044.86 3206.41 1042.02 3206.56 1039.17 3208.99 1036.99 3211.83 1037.13ZM3253.02 1039.26 3273.62 1040.33C3276.47 1040.48 3278.65 1042.9 3278.5 1045.74 3278.36 1048.59 3275.93 1050.77 3273.09 1050.63L3252.49 1049.56C3249.65 1049.42 3247.46 1046.99 3247.61 1044.15 3247.76 1041.3 3250.18 1039.12 3253.02 1039.26ZM3294.22 1041.39 3314.82 1042.46C3317.66 1042.61 3319.85 1045.03 3319.7 1047.88 3319.55 1050.72 3317.13 1052.91 3314.28 1052.76L3293.69 1051.69C3290.84 1051.55 3288.66 1049.12 3288.8 1046.28 3288.95 1043.43 3291.38 1041.25 3294.22 1041.39ZM3335.41 1043.52 3342.38 1043.89 3341.32 1043.94 3354.82 1041.86C3357.63 1041.42 3360.27 1043.35 3360.7 1046.17 3361.13 1048.98 3359.2 1051.61 3356.39 1052.05L3342.9 1054.13C3342.55 1054.18 3342.19 1054.2 3341.84 1054.18L3334.88 1053.82C3332.04 1053.68 3329.85 1051.25 3330 1048.41 3330.15 1045.56 3332.57 1043.38 3335.41 1043.52ZM3375.2 1038.71 3395.59 1035.57C3398.4 1035.13 3401.03 1037.06 3401.47 1039.88 3401.9 1042.69 3399.97 1045.32 3397.16 1045.76L3376.77 1048.9C3373.96 1049.34 3371.33 1047.41 3370.89 1044.59 3370.46 1041.78 3372.39 1039.15 3375.2 1038.71ZM3415.97 1032.42 3436.35 1029.28C3439.17 1028.84 3441.8 1030.77 3442.24 1033.59 3442.67 1036.4 3440.74 1039.03 3437.93 1039.47L3417.54 1042.61C3414.73 1043.05 3412.09 1041.12 3411.66 1038.3 3411.23 1035.49 3413.15 1032.86 3415.97 1032.42ZM3456.74 1026.13 3477.12 1022.99C3479.93 1022.55 3482.57 1024.48 3483 1027.3 3483.44 1030.11 3481.51 1032.74 3478.69 1033.18L3458.31 1036.32C3455.49 1036.76 3452.86 1034.83 3452.43 1032.01 3451.99 1029.2 3453.92 1026.57 3456.74 1026.13ZM3497.5 1019.84 3516.33 1016.94C3516.59 1016.9 3516.85 1016.88 3517.12 1016.88L3518.69 1016.88C3521.54 1016.88 3523.85 1019.19 3523.85 1022.03 3523.85 1024.88 3521.54 1027.19 3518.69 1027.19L3517.12 1027.19 3517.9 1027.13 3499.08 1030.03C3496.26 1030.47 3493.63 1028.54 3493.19 1025.72 3492.76 1022.91 3494.69 1020.28 3497.5 1019.84ZM3539.32 1016.88 3559.94 1016.88C3562.79 1016.88 3565.1 1019.19 3565.1 1022.03 3565.1 1024.88 3562.79 1027.19 3559.94 1027.19L3539.32 1027.19C3536.47 1027.19 3534.16 1024.88 3534.16 1022.03 3534.16 1019.19 3536.47 1016.88 3539.32 1016.88ZM3580.57 1016.88 3601.19 1016.88C3604.04 1016.88 3606.35 1019.19 3606.35 1022.03 3606.35 1024.88 3604.04 1027.19 3601.19 1027.19L3580.57 1027.19C3577.72 1027.19 3575.41 1024.88 3575.41 1022.03 3575.41 1019.19 3577.72 1016.88 3580.57 1016.88ZM3621.82 1016.88 3642.44 1016.88C3645.29 1016.88 3647.6 1019.19 3647.6 1022.03 3647.6 1024.88 3645.29 1027.19 3642.44 1027.19L3621.82 1027.19C3618.97 1027.19 3616.66 1024.88 3616.66 1022.03 3616.66 1019.19 3618.97 1016.88 3621.82 1016.88ZM3663.07 1016.88 3683.69 1016.88C3686.54 1016.88 3688.85 1019.19 3688.85 1022.03 3688.85 1024.88 3686.54 1027.19 3683.69 1027.19L3663.07 1027.19C3660.22 1027.19 3657.91 1024.88 3657.91 1022.03 3657.91 1019.19 3660.22 1016.88 3663.07 1016.88ZM3704.2 1016.58 3724.82 1016.1C3727.66 1016.04 3730.02 1018.29 3730.09 1021.14 3730.15 1023.98 3727.9 1026.35 3725.05 1026.41L3704.43 1026.89C3701.59 1026.95 3699.22 1024.7 3699.16 1021.85 3699.09 1019 3701.35 1016.64 3704.2 1016.58ZM3745.44 1015.63 3766.05 1015.15 3766.05 1015.15C3768.9 1015.09 3771.26 1017.34 3771.33 1020.19 3771.39 1023.04 3769.14 1025.4 3766.29 1025.46L3766.29 1025.46 3745.67 1025.94 3745.67 1025.94C3742.82 1026 3740.46 1023.75 3740.4 1020.9 3740.33 1018.05 3742.59 1015.69 3745.44 1015.63ZM3786.67 1014.68 3807.29 1014.21C3810.14 1014.14 3812.5 1016.39 3812.57 1019.24 3812.63 1022.09 3810.38 1024.45 3807.53 1024.52L3786.91 1024.99C3784.06 1025.05 3781.7 1022.8 3781.64 1019.95 3781.57 1017.11 3783.83 1014.74 3786.67 1014.68ZM3827.91 1013.73 3848.53 1013.26 3848.53 1013.26C3851.38 1013.19 3853.74 1015.45 3853.81 1018.29 3853.87 1021.14 3851.62 1023.5 3848.77 1023.57L3848.77 1023.57 3828.15 1024.04 3828.15 1024.04C3825.3 1024.11 3822.94 1021.85 3822.88 1019 3822.81 1016.16 3825.07 1013.8 3827.91 1013.73ZM3870.04 1013.6 3890.4 1016.88C3893.21 1017.33 3895.13 1019.98 3894.67 1022.79 3894.22 1025.6 3891.57 1027.52 3888.76 1027.06L3868.4 1023.78C3865.59 1023.33 3863.68 1020.68 3864.13 1017.87 3864.58 1015.06 3867.23 1013.15 3870.04 1013.6ZM3910.76 1020.16 3931.13 1023.44C3933.94 1023.89 3935.85 1026.54 3935.4 1029.35 3934.94 1032.16 3932.3 1034.07 3929.49 1033.62L3909.12 1030.34C3906.31 1029.89 3904.4 1027.24 3904.85 1024.43 3905.31 1021.62 3907.95 1019.71 3910.76 1020.16ZM3951.49 1026.72 3971.85 1030C3974.66 1030.45 3976.58 1033.1 3976.12 1035.91 3975.67 1038.72 3973.02 1040.63 3970.21 1040.18L3949.85 1036.9C3947.04 1036.45 3945.13 1033.8 3945.58 1030.99 3946.03 1028.18 3948.68 1026.27 3951.49 1026.72ZM3992.21 1033.28 4012.58 1036.56C4015.39 1037.01 4017.3 1039.66 4016.85 1042.47 4016.4 1045.28 4013.75 1047.19 4010.94 1046.74L3990.58 1043.46C3987.76 1043.01 3985.85 1040.36 3986.3 1037.55 3986.76 1034.74 3989.4 1032.82 3992.21 1033.28ZM4032.94 1039.84 4039.82 1040.94C4042.63 1041.4 4044.54 1044.04 4044.09 1046.85 4043.64 1049.67 4040.99 1051.58 4038.18 1051.12L4031.3 1050.02C4028.49 1049.56 4026.58 1046.92 4027.03 1044.11 4027.48 1041.3 4030.13 1039.38 4032.94 1039.84Z" fill="#9BBB59" fill-rule="nonzero" fill-opacity="1"/></g><g><path d="M1252 1027.53C1310.06 1032.8 1368.12 1046.44 1426.19 1043.33 1484.25 1040.22 1542.31 996 1600.37 1008.88 1658.44 1021.75 1716.5 1099.45 1774.56 1120.58 1832.62 1141.72 1890.69 1142.52 1948.75 1135.68 2006.81 1128.83 2064.87 1072.66 2122.94 1079.53 2181 1086.4 2239.06 1157.87 2297.12 1176.91 2355.19 1195.94 2413.25 1168.37 2471.31 1193.73 2529.37 1219.1 2587.44 1292.36 2645.5 1329.09 2703.56 1365.83 2761.62 1380.62 2819.69 1414.14 2877.75 1447.66 2935.81 1496.13 2993.88 1530.22 3051.94 1564.3 3110 1595.57 3168.06 1618.66 3226.12 1641.74 3284.19 1631.46 3342.25 1668.73 3400.31 1705.99 3458.37 1794 3516.44 1842.24 3574.5 1890.48 3632.56 1929.43 3690.62 1958.17 3748.69 1986.91 3806.75 1998.22 3864.81 2014.69 3922.88 2031.16 3980.94 2042.9 4039 2057" stroke="#1F497D" stroke-width="10.3125" stroke-linecap="round" stroke-linejoin="round" stroke-miterlimit="10" stroke-opacity="1" fill="none" fill-rule="nonzero"/></g><g><text fill="#595959" fill-opacity="1" font-family="Calibri,Calibri_MSFontService,sans-serif" font-style="normal" font-variant="normal" font-weight="400" font-stretch="normal" font-size="41" text-anchor="start" direction="ltr" writing-mode="lr-tb" unicode-bidi="normal" text-decoration="none" transform="matrix(1 0 0 1 1105.63 2146)">0</text></g><g><text fill="#595959" fill-opacity="1" font-family="Calibri,Calibri_MSFontService,sans-serif" font-style="normal" font-variant="normal" font-weight="400" font-stretch="normal" font-size="41" text-anchor="start" direction="ltr" writing-mode="lr-tb" unicode-bidi="normal" text-decoration="none" transform="matrix(1 0 0 1 1042.93 1970)">2000</text></g><g><text fill="#595959" fill-opacity="1" font-family="Calibri,Calibri_MSFontService,sans-serif" font-style="normal" font-variant="normal" font-weight="400" font-stretch="normal" font-size="41" text-anchor="start" direction="ltr" writing-mode="lr-tb" unicode-bidi="normal" text-decoration="none" transform="matrix(1 0 0 1 1042.93 1794)">4000</text></g><g><text fill="#595959" fill-opacity="1" font-family="Calibri,Calibri_MSFontService,sans-serif" font-style="normal" font-variant="normal" font-weight="400" font-stretch="normal" font-size="41" text-anchor="start" direction="ltr" writing-mode="lr-tb" unicode-bidi="normal" text-decoration="none" transform="matrix(1 0 0 1 1042.93 1617)">6000</text></g><g><text fill="#595959" fill-opacity="1" font-family="Calibri,Calibri_MSFontService,sans-serif" font-style="normal" font-variant="normal" font-weight="400" font-stretch="normal" font-size="41" text-anchor="start" direction="ltr" writing-mode="lr-tb" unicode-bidi="normal" text-decoration="none" transform="matrix(1 0 0 1 1042.93 1441)">8000</text></g><g><text fill="#595959" fill-opacity="1" font-family="Calibri,Calibri_MSFontService,sans-serif" font-style="normal" font-variant="normal" font-weight="400" font-stretch="normal" font-size="41" text-anchor="start" direction="ltr" writing-mode="lr-tb" unicode-bidi="normal" text-decoration="none" transform="matrix(1 0 0 1 1022.03 1265)">10000</text></g><g><text fill="#595959" fill-opacity="1" font-family="Calibri,Calibri_MSFontService,sans-serif" font-style="normal" font-variant="normal" font-weight="400" font-stretch="normal" font-size="41" text-anchor="start" direction="ltr" writing-mode="lr-tb" unicode-bidi="normal" text-decoration="none" transform="matrix(1 0 0 1 1022.03 1088)">12000</text></g><g><text fill="#595959" fill-opacity="1" font-family="Calibri,Calibri_MSFontService,sans-serif" font-style="normal" font-variant="normal" font-weight="400" font-stretch="normal" font-size="41" text-anchor="start" direction="ltr" writing-mode="lr-tb" unicode-bidi="normal" text-decoration="none" transform="matrix(1 0 0 1 1022.03 912)">14000</text></g><g><text fill="#595959" fill-opacity="1" font-family="Calibri,Calibri_MSFontService,sans-serif" font-style="normal" font-variant="normal" font-weight="400" font-stretch="normal" font-size="41" text-anchor="start" direction="ltr" writing-mode="lr-tb" unicode-bidi="normal" text-decoration="none" transform="matrix(1 0 0 1 1022.03 736)">16000</text></g><g><text fill="#595959" fill-opacity="1" font-family="Calibri,Calibri_MSFontService,sans-serif" font-style="normal" font-variant="normal" font-weight="400" font-stretch="normal" font-size="41" text-anchor="start" direction="ltr" writing-mode="lr-tb" unicode-bidi="normal" text-decoration="none" transform="matrix(1 0 0 1 1233.39 2201)">s1</text></g><g><text fill="#595959" fill-opacity="1" font-family="Calibri,Calibri_MSFontService,sans-serif" font-style="normal" font-variant="normal" font-weight="400" font-stretch="normal" font-size="41" text-anchor="start" direction="ltr" writing-mode="lr-tb" unicode-bidi="normal" text-decoration="none" transform="matrix(1 0 0 1 1407.6 2201)">s2</text></g><g><text fill="#595959" fill-opacity="1" font-family="Calibri,Calibri_MSFontService,sans-serif" font-style="normal" font-variant="normal" font-weight="400" font-stretch="normal" font-size="41" text-anchor="start" direction="ltr" writing-mode="lr-tb" unicode-bidi="normal" text-decoration="none" transform="matrix(1 0 0 1 1581.82 2201)">s3</text></g><g><text fill="#595959" fill-opacity="1" font-family="Calibri,Calibri_MSFontService,sans-serif" font-style="normal" font-variant="normal" font-weight="400" font-stretch="normal" font-size="41" text-anchor="start" direction="ltr" writing-mode="lr-tb" unicode-bidi="normal" text-decoration="none" transform="matrix(1 0 0 1 1756.04 2201)">s4</text></g><g><text fill="#595959" fill-opacity="1" font-family="Calibri,Calibri_MSFontService,sans-serif" font-style="normal" font-variant="normal" font-weight="400" font-stretch="normal" font-size="41" text-anchor="start" direction="ltr" writing-mode="lr-tb" unicode-bidi="normal" text-decoration="none" transform="matrix(1 0 0 1 1930.25 2201)">s5</text></g><g><text fill="#595959" fill-opacity="1" font-family="Calibri,Calibri_MSFontService,sans-serif" font-style="normal" font-variant="normal" font-weight="400" font-stretch="normal" font-size="41" text-anchor="start" direction="ltr" writing-mode="lr-tb" unicode-bidi="normal" text-decoration="none" transform="matrix(1 0 0 1 2104.47 2201)">s6</text></g><g><text fill="#595959" fill-opacity="1" font-family="Calibri,Calibri_MSFontService,sans-serif" font-style="normal" font-variant="normal" font-weight="400" font-stretch="normal" font-size="41" text-anchor="start" direction="ltr" writing-mode="lr-tb" unicode-bidi="normal" text-decoration="none" transform="matrix(1 0 0 1 2278.68 2201)">s7</text></g><g><text fill="#595959" fill-opacity="1" font-family="Calibri,Calibri_MSFontService,sans-serif" font-style="normal" font-variant="normal" font-weight="400" font-stretch="normal" font-size="41" text-anchor="start" direction="ltr" writing-mode="lr-tb" unicode-bidi="normal" text-decoration="none" transform="matrix(1 0 0 1 2452.9 2201)">s8</text></g><g><text fill="#595959" fill-opacity="1" font-family="Calibri,Calibri_MSFontService,sans-serif" font-style="normal" font-variant="normal" font-weight="400" font-stretch="normal" font-size="41" text-anchor="start" direction="ltr" writing-mode="lr-tb" unicode-bidi="normal" text-decoration="none" transform="matrix(1 0 0 1 2627.12 2201)">s9</text></g><g><text fill="#595959" fill-opacity="1" font-family="Calibri,Calibri_MSFontService,sans-serif" font-style="normal" font-variant="normal" font-weight="400" font-stretch="normal" font-size="41" text-anchor="start" direction="ltr" writing-mode="lr-tb" unicode-bidi="normal" text-decoration="none" transform="matrix(1 0 0 1 2790.88 2201)">s10</text></g><g><text fill="#595959" fill-opacity="1" font-family="Calibri,Calibri_MSFontService,sans-serif" font-style="normal" font-variant="normal" font-weight="400" font-stretch="normal" font-size="41" text-anchor="start" direction="ltr" writing-mode="lr-tb" unicode-bidi="normal" text-decoration="none" transform="matrix(1 0 0 1 2965.1 2201)">s11</text></g><g><text fill="#595959" fill-opacity="1" font-family="Calibri,Calibri_MSFontService,sans-serif" font-style="normal" font-variant="normal" font-weight="400" font-stretch="normal" font-size="41" text-anchor="start" direction="ltr" writing-mode="lr-tb" unicode-bidi="normal" text-decoration="none" transform="matrix(1 0 0 1 3139.31 2201)">s12</text></g><g><text fill="#595959" fill-opacity="1" font-family="Calibri,Calibri_MSFontService,sans-serif" font-style="normal" font-variant="normal" font-weight="400" font-stretch="normal" font-size="41" text-anchor="start" direction="ltr" writing-mode="lr-tb" unicode-bidi="normal" text-decoration="none" transform="matrix(1 0 0 1 3313.53 2201)">s13</text></g><g><text fill="#595959" fill-opacity="1" font-family="Calibri,Calibri_MSFontService,sans-serif" font-style="normal" font-variant="normal" font-weight="400" font-stretch="normal" font-size="41" text-anchor="start" direction="ltr" writing-mode="lr-tb" unicode-bidi="normal" text-decoration="none" transform="matrix(1 0 0 1 3487.75 2201)">s14</text></g><g><text fill="#595959" fill-opacity="1" font-family="Calibri,Calibri_MSFontService,sans-serif" font-style="normal" font-variant="normal" font-weight="400" font-stretch="normal" font-size="41" text-anchor="start" direction="ltr" writing-mode="lr-tb" unicode-bidi="normal" text-decoration="none" transform="matrix(1 0 0 1 3661.96 2201)">s15</text></g><g><text fill="#595959" fill-opacity="1" font-family="Calibri,Calibri_MSFontService,sans-serif" font-style="normal" font-variant="normal" font-weight="400" font-stretch="normal" font-size="41" text-anchor="start" direction="ltr" writing-mode="lr-tb" unicode-bidi="normal" text-decoration="none" transform="matrix(1 0 0 1 3836.18 2201)">s16</text></g><g><text fill="#595959" fill-opacity="1" font-family="Calibri,Calibri_MSFontService,sans-serif" font-style="normal" font-variant="normal" font-weight="400" font-stretch="normal" font-size="41" text-anchor="start" direction="ltr" writing-mode="lr-tb" unicode-bidi="normal" text-decoration="none" transform="matrix(1 0 0 1 4010.4 2201)">s17</text></g><g><text fill="#595959" fill-opacity="1" font-family="Calibri,Calibri_MSFontService,sans-serif" font-style="normal" font-variant="normal" font-weight="400" font-stretch="normal" font-size="46" text-anchor="start" direction="ltr" writing-mode="lr-tb" unicode-bidi="normal" text-decoration="none" transform="matrix(6.12323e-17 -1 1 6.12323e-17 996.339 1505)">Euro (€)</text></g><g><text fill="#595959" fill-opacity="1" font-family="Calibri,Calibri_MSFontService,sans-serif" font-style="normal" font-variant="normal" font-weight="400" font-stretch="normal" font-size="64" text-anchor="start" direction="ltr" writing-mode="lr-tb" unicode-bidi="normal" text-decoration="none" transform="matrix(1 0 0 1 2422.32 651)">AC e ETC</text></g><g><path d="M1631 2281 1747 2281" stroke="#FFC000" stroke-width="10.3125" stroke-linecap="round" stroke-linejoin="round" stroke-miterlimit="10" stroke-opacity="1" fill="none" fill-rule="evenodd"/></g><g><text fill="#595959" fill-opacity="1" font-family="Calibri,Calibri_MSFontService,sans-serif" font-style="normal" font-variant="normal" font-weight="400" font-stretch="normal" font-size="41" text-anchor="start" direction="ltr" writing-mode="lr-tb" unicode-bidi="normal" text-decoration="none" transform="matrix(1 0 0 1 1759.23 2291)">AC acc. (€)</text></g><g><path d="M2035 2275.84 2055.62 2275.84C2058.47 2275.84 2060.78 2278.15 2060.78 2281 2060.78 2283.85 2058.47 2286.16 2055.62 2286.16L2035 2286.16C2032.15 2286.16 2029.84 2283.85 2029.84 2281 2029.84 2278.15 2032.15 2275.84 2035 2275.84ZM2076.25 2275.84 2096.88 2275.84C2099.72 2275.84 2102.03 2278.15 2102.03 2281 2102.03 2283.85 2099.72 2286.16 2096.88 2286.16L2076.25 2286.16C2073.4 2286.16 2071.09 2283.85 2071.09 2281 2071.09 2278.15 2073.4 2275.84 2076.25 2275.84ZM2117.5 2275.84 2138.12 2275.84C2140.97 2275.84 2143.28 2278.15 2143.28 2281 2143.28 2283.85 2140.97 2286.16 2138.12 2286.16L2117.5 2286.16C2114.65 2286.16 2112.34 2283.85 2112.34 2281 2112.34 2278.15 2114.65 2275.84 2117.5 2275.84Z" fill="#9BBB59" fill-rule="nonzero" fill-opacity="1"/></g><g><text fill="#595959" fill-opacity="1" font-family="Calibri,Calibri_MSFontService,sans-serif" font-style="normal" font-variant="normal" font-weight="400" font-stretch="normal" font-size="41" text-anchor="start" direction="ltr" writing-mode="lr-tb" unicode-bidi="normal" text-decoration="none" transform="matrix(1 0 0 1 2163 2291)">EAC </text></g><g><text fill="#595959" fill-opacity="1" font-family="Calibri,Calibri_MSFontService,sans-serif" font-style="normal" font-variant="normal" font-weight="400" font-stretch="normal" font-size="41" text-anchor="start" direction="ltr" writing-mode="lr-tb" unicode-bidi="normal" text-decoration="none" transform="matrix(1 0 0 1 2238.35 2291)">-</text></g><g><text fill="#595959" fill-opacity="1" font-family="Calibri,Calibri_MSFontService,sans-serif" font-style="normal" font-variant="normal" font-weight="400" font-stretch="normal" font-size="41" text-anchor="start" direction="ltr" writing-mode="lr-tb" unicode-bidi="normal" text-decoration="none" transform="matrix(1 0 0 1 2260.3 2291)">Estimate At Completion (€)</text></g><g><path d="M2814 2281 2929 2281" stroke="#1F497D" stroke-width="10.3125" stroke-linecap="round" stroke-linejoin="round" stroke-miterlimit="10" stroke-opacity="1" fill="none" fill-rule="evenodd"/></g><g><text fill="#595959" fill-opacity="1" font-family="Calibri,Calibri_MSFontService,sans-serif" font-style="normal" font-variant="normal" font-weight="400" font-stretch="normal" font-size="41" text-anchor="start" direction="ltr" writing-mode="lr-tb" unicode-bidi="normal" text-decoration="none" transform="matrix(1 0 0 1 2941.88 2291)">ETC </text></g><g><text fill="#595959" fill-opacity="1" font-family="Calibri,Calibri_MSFontService,sans-serif" font-style="normal" font-variant="normal" font-weight="400" font-stretch="normal" font-size="41" text-anchor="start" direction="ltr" writing-mode="lr-tb" unicode-bidi="normal" text-decoration="none" transform="matrix(1 0 0 1 3013.45 2291)">-</text></g><g><text fill="#595959" fill-opacity="1" font-family="Calibri,Calibri_MSFontService,sans-serif" font-style="normal" font-variant="normal" font-weight="400" font-stretch="normal" font-size="41" text-anchor="start" direction="ltr" writing-mode="lr-tb" unicode-bidi="normal" text-decoration="none" transform="matrix(1 0 0 1 3035.41 2291)">Estimate To Complete (€)</text></g><rect x="895.5" y="556.5" width="3282" height="1791" stroke="#D9D9D9" stroke-width="3.4375" stroke-linecap="butt" stroke-linejoin="round" stroke-miterlimit="10" stroke-opacity="1" fill="none"/></g></g></svg>