<svg width="3763" height="1834" xmlns="http://www.w3.org/2000/svg" xmlns:xlink="http://www.w3.org/1999/xlink" xml:space="preserve" overflow="hidden"><defs><clipPath id="clip0"><rect x="788" y="870" width="3763" height="1834"/></clipPath><clipPath id="clip1"><rect x="788" y="870" width="3763" height="1834"/></clipPath><clipPath id="clip2"><rect x="984" y="1043" width="3515" height="1448"/></clipPath><clipPath id="clip3"><rect x="984" y="1043" width="3515" height="1448"/></clipPath></defs><g clip-path="url(#clip0)" transform="translate(-788 -870)"><g clip-path="url(#clip1)"><rect x="793" y="873" width="3754" height="1827" fill="#FFFFFF" fill-opacity="1"/><g><path d="M984.5 2281.57 4496.5 2281.57M984.5 2075.57 4496.5 2075.57M984.5 1868.56 4496.5 1868.56M984.5 1662.55 4496.5 1662.55M984.5 1456.55 4496.5 1456.55M984.5 1249.54 4496.5 1249.54M984.5 1043.5 4496.5 1043.5" stroke="#D9D9D9" stroke-width="3.4375" stroke-linecap="butt" stroke-linejoin="round" stroke-miterlimit="10" stroke-opacity="1" fill="none" fill-rule="nonzero"/></g><g><path d="M984.5 2488.5 4496.5 2488.5" stroke="#D9D9D9" stroke-width="3.4375" stroke-linecap="butt" stroke-linejoin="round" stroke-miterlimit="10" stroke-opacity="1" fill="none" fill-rule="evenodd"/></g><g clip-path="url(#clip2)"><path d="M1204 2179 1643.05 1869.06 2082.07 1621.05 2521.08 1394.05 2960.1 1250.04 3399.11 1146.04 3838.13 1084.04 4277 1043" stroke="#4F81BD" stroke-width="10.3125" stroke-linecap="round" stroke-linejoin="round" stroke-miterlimit="10" stroke-opacity="1" fill="none" fill-rule="nonzero"/></g><g><path d="M1204 1244.84 1224.63 1244.84C1227.47 1244.84 1229.78 1247.15 1229.78 1250 1229.78 1252.85 1227.47 1255.16 1224.63 1255.16L1204 1255.16C1201.15 1255.16 1198.84 1252.85 1198.84 1250 1198.84 1247.15 1201.15 1244.84 1204 1244.84ZM1245.25 1244.84 1265.88 1244.84C1268.72 1244.84 1271.03 1247.15 1271.03 1250 1271.03 1252.85 1268.72 1255.16 1265.88 1255.16L1245.25 1255.16C1242.4 1255.16 1240.09 1252.85 1240.09 1250 1240.09 1247.15 1242.4 1244.84 1245.25 1244.84ZM1286.5 1244.84 1307.13 1244.84C1309.97 1244.84 1312.28 1247.15 1312.28 1250 1312.28 1252.85 1309.97 1255.16 1307.13 1255.16L1286.5 1255.16C1283.65 1255.16 1281.34 1252.85 1281.34 1250 1281.34 1247.15 1283.65 1244.84 1286.5 1244.84ZM1327.75 1244.84 1348.38 1244.84C1351.22 1244.84 1353.53 1247.15 1353.53 1250 1353.53 1252.85 1351.22 1255.16 1348.38 1255.16L1327.75 1255.16C1324.9 1255.16 1322.59 1252.85 1322.59 1250 1322.59 1247.15 1324.9 1244.84 1327.75 1244.84ZM1369 1244.84 1389.63 1244.84C1392.47 1244.84 1394.78 1247.15 1394.78 1250 1394.78 1252.85 1392.47 1255.16 1389.63 1255.16L1369 1255.16C1366.15 1255.16 1363.84 1252.85 1363.84 1250 1363.84 1247.15 1366.15 1244.84 1369 1244.84ZM1410.25 1244.84 1430.88 1244.84C1433.72 1244.84 1436.03 1247.15 1436.03 1250 1436.03 1252.85 1433.72 1255.16 1430.88 1255.16L1410.25 1255.16C1407.4 1255.16 1405.09 1252.85 1405.09 1250 1405.09 1247.15 1407.4 1244.84 1410.25 1244.84ZM1451.5 1244.84 1472.13 1244.84C1474.97 1244.84 1477.28 1247.15 1477.28 1250 1477.28 1252.85 1474.97 1255.16 1472.13 1255.16L1451.5 1255.16C1448.65 1255.16 1446.34 1252.85 1446.34 1250 1446.34 1247.15 1448.65 1244.84 1451.5 1244.84ZM1492.75 1244.84 1513.38 1244.84C1516.22 1244.84 1518.53 1247.15 1518.53 1250 1518.53 1252.85 1516.22 1255.16 1513.38 1255.16L1492.75 1255.16C1489.9 1255.16 1487.59 1252.85 1487.59 1250 1487.59 1247.15 1489.9 1244.84 1492.75 1244.84ZM1534 1244.84 1554.63 1244.84C1557.47 1244.84 1559.78 1247.15 1559.78 1250 1559.78 1252.85 1557.47 1255.16 1554.63 1255.16L1534 1255.16C1531.15 1255.16 1528.84 1252.85 1528.84 1250 1528.84 1247.15 1531.15 1244.84 1534 1244.84ZM1575.25 1244.84 1595.88 1244.84C1598.72 1244.84 1601.03 1247.15 1601.03 1250 1601.03 1252.85 1598.72 1255.16 1595.88 1255.16L1575.25 1255.16C1572.4 1255.16 1570.09 1252.85 1570.09 1250 1570.09 1247.15 1572.4 1244.84 1575.25 1244.84ZM1616.5 1244.84 1637.13 1244.84C1639.97 1244.84 1642.28 1247.15 1642.28 1250 1642.28 1252.85 1639.97 1255.16 1637.13 1255.16L1616.5 1255.16C1613.65 1255.16 1611.34 1252.85 1611.34 1250 1611.34 1247.15 1613.65 1244.84 1616.5 1244.84ZM1657.75 1244.84 1678.38 1244.84C1681.22 1244.84 1683.53 1247.15 1683.53 1250 1683.53 1252.85 1681.22 1255.16 1678.38 1255.16L1657.75 1255.16C1654.9 1255.16 1652.59 1252.85 1652.59 1250 1652.59 1247.15 1654.9 1244.84 1657.75 1244.84ZM1699 1244.84 1719.63 1244.84C1722.47 1244.84 1724.78 1247.15 1724.78 1250 1724.78 1252.85 1722.47 1255.16 1719.63 1255.16L1699 1255.16C1696.15 1255.16 1693.84 1252.85 1693.84 1250 1693.84 1247.15 1696.15 1244.84 1699 1244.84ZM1740.25 1244.84 1760.88 1244.84C1763.72 1244.84 1766.03 1247.15 1766.03 1250 1766.03 1252.85 1763.72 1255.16 1760.88 1255.16L1740.25 1255.16C1737.4 1255.16 1735.09 1252.85 1735.09 1250 1735.09 1247.15 1737.4 1244.84 1740.25 1244.84ZM1781.5 1244.84 1802.13 1244.84C1804.97 1244.84 1807.28 1247.15 1807.28 1250 1807.28 1252.85 1804.97 1255.16 1802.13 1255.16L1781.5 1255.16C1778.65 1255.16 1776.34 1252.85 1776.34 1250 1776.34 1247.15 1778.65 1244.84 1781.5 1244.84ZM1822.75 1244.84 1843.38 1244.84C1846.22 1244.84 1848.53 1247.15 1848.53 1250 1848.53 1252.85 1846.22 1255.16 1843.38 1255.16L1822.75 1255.16C1819.9 1255.16 1817.59 1252.85 1817.59 1250 1817.59 1247.15 1819.9 1244.84 1822.75 1244.84ZM1864 1244.84 1884.63 1244.84C1887.47 1244.84 1889.78 1247.15 1889.78 1250 1889.78 1252.85 1887.47 1255.16 1884.63 1255.16L1864 1255.16C1861.15 1255.16 1858.84 1252.85 1858.84 1250 1858.84 1247.15 1861.15 1244.84 1864 1244.84ZM1905.25 1244.84 1925.88 1244.84C1928.72 1244.84 1931.03 1247.15 1931.03 1250 1931.03 1252.85 1928.72 1255.16 1925.88 1255.16L1905.25 1255.16C1902.4 1255.16 1900.09 1252.85 1900.09 1250 1900.09 1247.15 1902.4 1244.84 1905.25 1244.84ZM1946.5 1244.84 1967.13 1244.84C1969.97 1244.84 1972.28 1247.15 1972.28 1250 1972.28 1252.85 1969.97 1255.16 1967.13 1255.16L1946.5 1255.16C1943.65 1255.16 1941.34 1252.85 1941.34 1250 1941.34 1247.15 1943.65 1244.84 1946.5 1244.84ZM1987.75 1244.84 2008.38 1244.84C2011.22 1244.84 2013.53 1247.15 2013.53 1250 2013.53 1252.85 2011.22 1255.16 2008.38 1255.16L1987.75 1255.16C1984.9 1255.16 1982.59 1252.85 1982.59 1250 1982.59 1247.15 1984.9 1244.84 1987.75 1244.84ZM2029 1244.84 2049.62 1244.84C2052.47 1244.84 2054.78 1247.15 2054.78 1250 2054.78 1252.85 2052.47 1255.16 2049.62 1255.16L2029 1255.16C2026.15 1255.16 2023.84 1252.85 2023.84 1250 2023.84 1247.15 2026.15 1244.84 2029 1244.84ZM2070.25 1244.84 2082.07 1244.84 2090.88 1244.84C2093.72 1244.84 2096.03 1247.15 2096.03 1250 2096.03 1252.85 2093.72 1255.16 2090.88 1255.16L2082.07 1255.16 2070.25 1255.16C2067.4 1255.16 2065.09 1252.85 2065.09 1250 2065.09 1247.15 2067.4 1244.84 2070.25 1244.84ZM2111.5 1244.84 2132.12 1244.84C2134.97 1244.84 2137.28 1247.15 2137.28 1250 2137.28 1252.85 2134.97 1255.16 2132.12 1255.16L2111.5 1255.16C2108.65 1255.16 2106.34 1252.85 2106.34 1250 2106.34 1247.15 2108.65 1244.84 2111.5 1244.84ZM2152.75 1244.84 2173.38 1244.84C2176.22 1244.84 2178.53 1247.15 2178.53 1250 2178.53 1252.85 2176.22 1255.16 2173.38 1255.16L2152.75 1255.16C2149.9 1255.16 2147.59 1252.85 2147.59 1250 2147.59 1247.15 2149.9 1244.84 2152.75 1244.84ZM2194 1244.84 2214.62 1244.84C2217.47 1244.84 2219.78 1247.15 2219.78 1250 2219.78 1252.85 2217.47 1255.16 2214.62 1255.16L2194 1255.16C2191.15 1255.16 2188.84 1252.85 2188.84 1250 2188.84 1247.15 2191.15 1244.84 2194 1244.84ZM2235.25 1244.84 2255.88 1244.84C2258.72 1244.84 2261.03 1247.15 2261.03 1250 2261.03 1252.85 2258.72 1255.16 2255.88 1255.16L2235.25 1255.16C2232.4 1255.16 2230.09 1252.85 2230.09 1250 2230.09 1247.15 2232.4 1244.84 2235.25 1244.84ZM2276.5 1244.84 2297.12 1244.84C2299.97 1244.84 2302.28 1247.15 2302.28 1250 2302.28 1252.85 2299.97 1255.16 2297.12 1255.16L2276.5 1255.16C2273.65 1255.16 2271.34 1252.85 2271.34 1250 2271.34 1247.15 2273.65 1244.84 2276.5 1244.84ZM2317.75 1244.84 2338.38 1244.84C2341.22 1244.84 2343.53 1247.15 2343.53 1250 2343.53 1252.85 2341.22 1255.16 2338.38 1255.16L2317.75 1255.16C2314.9 1255.16 2312.59 1252.85 2312.59 1250 2312.59 1247.15 2314.9 1244.84 2317.75 1244.84ZM2359 1244.84 2379.62 1244.84C2382.47 1244.84 2384.78 1247.15 2384.78 1250 2384.78 1252.85 2382.47 1255.16 2379.62 1255.16L2359 1255.16C2356.15 1255.16 2353.84 1252.85 2353.84 1250 2353.84 1247.15 2356.15 1244.84 2359 1244.84ZM2400.25 1244.84 2420.88 1244.84C2423.72 1244.84 2426.03 1247.15 2426.03 1250 2426.03 1252.85 2423.72 1255.16 2420.88 1255.16L2400.25 1255.16C2397.4 1255.16 2395.09 1252.85 2395.09 1250 2395.09 1247.15 2397.4 1244.84 2400.25 1244.84ZM2441.5 1244.84 2462.12 1244.84C2464.97 1244.84 2467.28 1247.15 2467.28 1250 2467.28 1252.85 2464.97 1255.16 2462.12 1255.16L2441.5 1255.16C2438.65 1255.16 2436.34 1252.85 2436.34 1250 2436.34 1247.15 2438.65 1244.84 2441.5 1244.84ZM2482.75 1244.84 2503.38 1244.84C2506.22 1244.84 2508.53 1247.15 2508.53 1250 2508.53 1252.85 2506.22 1255.16 2503.38 1255.16L2482.75 1255.16C2479.9 1255.16 2477.59 1252.85 2477.59 1250 2477.59 1247.15 2479.9 1244.84 2482.75 1244.84ZM2524 1244.84 2544.62 1244.84C2547.47 1244.84 2549.78 1247.15 2549.78 1250 2549.78 1252.85 2547.47 1255.16 2544.62 1255.16L2524 1255.16C2521.15 1255.16 2518.84 1252.85 2518.84 1250 2518.84 1247.15 2521.15 1244.84 2524 1244.84ZM2565.25 1244.84 2585.88 1244.84C2588.72 1244.84 2591.03 1247.15 2591.03 1250 2591.03 1252.85 2588.72 1255.16 2585.88 1255.16L2565.25 1255.16C2562.4 1255.16 2560.09 1252.85 2560.09 1250 2560.09 1247.15 2562.4 1244.84 2565.25 1244.84ZM2606.5 1244.84 2627.12 1244.84C2629.97 1244.84 2632.28 1247.15 2632.28 1250 2632.28 1252.85 2629.97 1255.16 2627.12 1255.16L2606.5 1255.16C2603.65 1255.16 2601.34 1252.85 2601.34 1250 2601.34 1247.15 2603.65 1244.84 2606.5 1244.84ZM2647.75 1244.84 2668.38 1244.84C2671.22 1244.84 2673.53 1247.15 2673.53 1250 2673.53 1252.85 2671.22 1255.16 2668.38 1255.16L2647.75 1255.16C2644.9 1255.16 2642.59 1252.85 2642.59 1250 2642.59 1247.15 2644.9 1244.84 2647.75 1244.84ZM2689 1244.84 2709.62 1244.84C2712.47 1244.84 2714.78 1247.15 2714.78 1250 2714.78 1252.85 2712.47 1255.16 2709.62 1255.16L2689 1255.16C2686.15 1255.16 2683.84 1252.85 2683.84 1250 2683.84 1247.15 2686.15 1244.84 2689 1244.84ZM2730.25 1244.84 2750.88 1244.84C2753.72 1244.84 2756.03 1247.15 2756.03 1250 2756.03 1252.85 2753.72 1255.16 2750.88 1255.16L2730.25 1255.16C2727.4 1255.16 2725.09 1252.85 2725.09 1250 2725.09 1247.15 2727.4 1244.84 2730.25 1244.84ZM2771.5 1244.84 2792.12 1244.84C2794.97 1244.84 2797.28 1247.15 2797.28 1250 2797.28 1252.85 2794.97 1255.16 2792.12 1255.16L2771.5 1255.16C2768.65 1255.16 2766.34 1252.85 2766.34 1250 2766.34 1247.15 2768.65 1244.84 2771.5 1244.84ZM2812.75 1244.84 2833.38 1244.84C2836.22 1244.84 2838.53 1247.15 2838.53 1250 2838.53 1252.85 2836.22 1255.16 2833.38 1255.16L2812.75 1255.16C2809.9 1255.16 2807.59 1252.85 2807.59 1250 2807.59 1247.15 2809.9 1244.84 2812.75 1244.84ZM2854 1244.84 2874.62 1244.84C2877.47 1244.84 2879.78 1247.15 2879.78 1250 2879.78 1252.85 2877.47 1255.16 2874.62 1255.16L2854 1255.16C2851.15 1255.16 2848.84 1252.85 2848.84 1250 2848.84 1247.15 2851.15 1244.84 2854 1244.84ZM2895.25 1244.84 2915.88 1244.84C2918.72 1244.84 2921.03 1247.15 2921.03 1250 2921.03 1252.85 2918.72 1255.16 2915.88 1255.16L2895.25 1255.16C2892.4 1255.16 2890.09 1252.85 2890.09 1250 2890.09 1247.15 2892.4 1244.84 2895.25 1244.84ZM2936.5 1244.84 2957.12 1244.84C2959.97 1244.84 2962.28 1247.15 2962.28 1250 2962.28 1252.85 2959.97 1255.16 2957.12 1255.16L2936.5 1255.16C2933.65 1255.16 2931.34 1252.85 2931.34 1250 2931.34 1247.15 2933.65 1244.84 2936.5 1244.84ZM2977.75 1244.84 2998.38 1244.84C3001.22 1244.84 3003.53 1247.15 3003.53 1250 3003.53 1252.85 3001.22 1255.16 2998.38 1255.16L2977.75 1255.16C2974.9 1255.16 2972.59 1252.85 2972.59 1250 2972.59 1247.15 2974.9 1244.84 2977.75 1244.84ZM3019 1244.84 3039.62 1244.84C3042.47 1244.84 3044.78 1247.15 3044.78 1250 3044.78 1252.85 3042.47 1255.16 3039.62 1255.16L3019 1255.16C3016.15 1255.16 3013.84 1252.85 3013.84 1250 3013.84 1247.15 3016.15 1244.84 3019 1244.84ZM3060.25 1244.84 3080.88 1244.84C3083.72 1244.84 3086.03 1247.15 3086.03 1250 3086.03 1252.85 3083.72 1255.16 3080.88 1255.16L3060.25 1255.16C3057.4 1255.16 3055.09 1252.85 3055.09 1250 3055.09 1247.15 3057.4 1244.84 3060.25 1244.84ZM3101.5 1244.84 3122.12 1244.84C3124.97 1244.84 3127.28 1247.15 3127.28 1250 3127.28 1252.85 3124.97 1255.16 3122.12 1255.16L3101.5 1255.16C3098.65 1255.16 3096.34 1252.85 3096.34 1250 3096.34 1247.15 3098.65 1244.84 3101.5 1244.84ZM3142.75 1244.84 3163.38 1244.84C3166.22 1244.84 3168.53 1247.15 3168.53 1250 3168.53 1252.85 3166.22 1255.16 3163.38 1255.16L3142.75 1255.16C3139.9 1255.16 3137.59 1252.85 3137.59 1250 3137.59 1247.15 3139.9 1244.84 3142.75 1244.84ZM3184 1244.84 3204.62 1244.84C3207.47 1244.84 3209.78 1247.15 3209.78 1250 3209.78 1252.85 3207.47 1255.16 3204.62 1255.16L3184 1255.16C3181.15 1255.16 3178.84 1252.85 3178.84 1250 3178.84 1247.15 3181.15 1244.84 3184 1244.84ZM3225.25 1244.84 3245.88 1244.84C3248.72 1244.84 3251.03 1247.15 3251.03 1250 3251.03 1252.85 3248.72 1255.16 3245.88 1255.16L3225.25 1255.16C3222.4 1255.16 3220.09 1252.85 3220.09 1250 3220.09 1247.15 3222.4 1244.84 3225.25 1244.84ZM3266.5 1244.84 3287.12 1244.84C3289.97 1244.84 3292.28 1247.15 3292.28 1250 3292.28 1252.85 3289.97 1255.16 3287.12 1255.16L3266.5 1255.16C3263.65 1255.16 3261.34 1252.85 3261.34 1250 3261.34 1247.15 3263.65 1244.84 3266.5 1244.84ZM3307.75 1244.84 3328.38 1244.84C3331.22 1244.84 3333.53 1247.15 3333.53 1250 3333.53 1252.85 3331.22 1255.16 3328.38 1255.16L3307.75 1255.16C3304.9 1255.16 3302.59 1252.85 3302.59 1250 3302.59 1247.15 3304.9 1244.84 3307.75 1244.84ZM3349 1244.84 3369.62 1244.84C3372.47 1244.84 3374.78 1247.15 3374.78 1250 3374.78 1252.85 3372.47 1255.16 3369.62 1255.16L3349 1255.16C3346.15 1255.16 3343.84 1252.85 3343.84 1250 3343.84 1247.15 3346.15 1244.84 3349 1244.84ZM3390.25 1244.84 3399.11 1244.84 3410.88 1244.84C3413.72 1244.84 3416.03 1247.15 3416.03 1250 3416.03 1252.85 3413.72 1255.16 3410.88 1255.16L3399.11 1255.16 3390.25 1255.16C3387.4 1255.16 3385.09 1252.85 3385.09 1250 3385.09 1247.15 3387.4 1244.84 3390.25 1244.84ZM3431.5 1244.84 3452.12 1244.84C3454.97 1244.84 3457.28 1247.15 3457.28 1250 3457.28 1252.85 3454.97 1255.16 3452.12 1255.16L3431.5 1255.16C3428.65 1255.16 3426.34 1252.85 3426.34 1250 3426.34 1247.15 3428.65 1244.84 3431.5 1244.84ZM3472.75 1244.84 3493.38 1244.84C3496.22 1244.84 3498.53 1247.15 3498.53 1250 3498.53 1252.85 3496.22 1255.16 3493.38 1255.16L3472.75 1255.16C3469.9 1255.16 3467.59 1252.85 3467.59 1250 3467.59 1247.15 3469.9 1244.84 3472.75 1244.84ZM3514 1244.84 3534.62 1244.84C3537.47 1244.84 3539.78 1247.15 3539.78 1250 3539.78 1252.85 3537.47 1255.16 3534.62 1255.16L3514 1255.16C3511.15 1255.16 3508.84 1252.85 3508.84 1250 3508.84 1247.15 3511.15 1244.84 3514 1244.84ZM3555.25 1244.84 3575.88 1244.84C3578.72 1244.84 3581.03 1247.15 3581.03 1250 3581.03 1252.85 3578.72 1255.16 3575.88 1255.16L3555.25 1255.16C3552.4 1255.16 3550.09 1252.85 3550.09 1250 3550.09 1247.15 3552.4 1244.84 3555.25 1244.84ZM3596.5 1244.84 3617.12 1244.84C3619.97 1244.84 3622.28 1247.15 3622.28 1250 3622.28 1252.85 3619.97 1255.16 3617.12 1255.16L3596.5 1255.16C3593.65 1255.16 3591.34 1252.85 3591.34 1250 3591.34 1247.15 3593.65 1244.84 3596.5 1244.84ZM3637.75 1244.84 3658.38 1244.84C3661.22 1244.84 3663.53 1247.15 3663.53 1250 3663.53 1252.85 3661.22 1255.16 3658.38 1255.16L3637.75 1255.16C3634.9 1255.16 3632.59 1252.85 3632.59 1250 3632.59 1247.15 3634.9 1244.84 3637.75 1244.84ZM3679 1244.84 3699.62 1244.84C3702.47 1244.84 3704.78 1247.15 3704.78 1250 3704.78 1252.85 3702.47 1255.16 3699.62 1255.16L3679 1255.16C3676.15 1255.16 3673.84 1252.85 3673.84 1250 3673.84 1247.15 3676.15 1244.84 3679 1244.84ZM3720.25 1244.84 3740.88 1244.84C3743.72 1244.84 3746.03 1247.15 3746.03 1250 3746.03 1252.85 3743.72 1255.16 3740.88 1255.16L3720.25 1255.16C3717.4 1255.16 3715.09 1252.85 3715.09 1250 3715.09 1247.15 3717.4 1244.84 3720.25 1244.84ZM3761.5 1244.84 3782.12 1244.84C3784.97 1244.84 3787.28 1247.15 3787.28 1250 3787.28 1252.85 3784.97 1255.16 3782.12 1255.16L3761.5 1255.16C3758.65 1255.16 3756.34 1252.85 3756.34 1250 3756.34 1247.15 3758.65 1244.84 3761.5 1244.84ZM3802.75 1244.84 3823.38 1244.84C3826.22 1244.84 3828.53 1247.15 3828.53 1250 3828.53 1252.85 3826.22 1255.16 3823.38 1255.16L3802.75 1255.16C3799.9 1255.16 3797.59 1252.85 3797.59 1250 3797.59 1247.15 3799.9 1244.84 3802.75 1244.84ZM3844 1244.84 3864.62 1244.84C3867.47 1244.84 3869.78 1247.15 3869.78 1250 3869.78 1252.85 3867.47 1255.16 3864.62 1255.16L3844 1255.16C3841.15 1255.16 3838.84 1252.85 3838.84 1250 3838.84 1247.15 3841.15 1244.84 3844 1244.84ZM3885.25 1244.84 3905.88 1244.84C3908.72 1244.84 3911.03 1247.15 3911.03 1250 3911.03 1252.85 3908.72 1255.16 3905.88 1255.16L3885.25 1255.16C3882.4 1255.16 3880.09 1252.85 3880.09 1250 3880.09 1247.15 3882.4 1244.84 3885.25 1244.84ZM3926.5 1244.84 3947.12 1244.84C3949.97 1244.84 3952.28 1247.15 3952.28 1250 3952.28 1252.85 3949.97 1255.16 3947.12 1255.16L3926.5 1255.16C3923.65 1255.16 3921.34 1252.85 3921.34 1250 3921.34 1247.15 3923.65 1244.84 3926.5 1244.84ZM3967.75 1244.84 3988.38 1244.84C3991.22 1244.84 3993.53 1247.15 3993.53 1250 3993.53 1252.85 3991.22 1255.16 3988.38 1255.16L3967.75 1255.16C3964.9 1255.16 3962.59 1252.85 3962.59 1250 3962.59 1247.15 3964.9 1244.84 3967.75 1244.84ZM4009 1244.84 4029.62 1244.84C4032.47 1244.84 4034.78 1247.15 4034.78 1250 4034.78 1252.85 4032.47 1255.16 4029.62 1255.16L4009 1255.16C4006.15 1255.16 4003.84 1252.85 4003.84 1250 4003.84 1247.15 4006.15 1244.84 4009 1244.84ZM4050.25 1244.84 4070.88 1244.84C4073.72 1244.84 4076.03 1247.15 4076.03 1250 4076.03 1252.85 4073.72 1255.16 4070.88 1255.16L4050.25 1255.16C4047.4 1255.16 4045.09 1252.85 4045.09 1250 4045.09 1247.15 4047.4 1244.84 4050.25 1244.84ZM4091.5 1244.84 4112.12 1244.84C4114.97 1244.84 4117.28 1247.15 4117.28 1250 4117.28 1252.85 4114.97 1255.16 4112.12 1255.16L4091.5 1255.16C4088.65 1255.16 4086.34 1252.85 4086.34 1250 4086.34 1247.15 4088.65 1244.84 4091.5 1244.84ZM4132.75 1244.84 4153.38 1244.84C4156.22 1244.84 4158.53 1247.15 4158.53 1250 4158.53 1252.85 4156.22 1255.16 4153.38 1255.16L4132.75 1255.16C4129.9 1255.16 4127.59 1252.85 4127.59 1250 4127.59 1247.15 4129.9 1244.84 4132.75 1244.84ZM4174 1244.84 4194.62 1244.84C4197.47 1244.84 4199.78 1247.15 4199.78 1250 4199.78 1252.85 4197.47 1255.16 4194.62 1255.16L4174 1255.16C4171.15 1255.16 4168.84 1252.85 4168.84 1250 4168.84 1247.15 4171.15 1244.84 4174 1244.84ZM4215.25 1244.84 4235.88 1244.84C4238.72 1244.84 4241.03 1247.15 4241.03 1250 4241.03 1252.85 4238.72 1255.16 4235.88 1255.16L4215.25 1255.16C4212.4 1255.16 4210.09 1252.85 4210.09 1250 4210.09 1247.15 4212.4 1244.84 4215.25 1244.84ZM4256.5 1244.84 4277 1244.84C4279.85 1244.84 4282.16 1247.15 4282.16 1250 4282.16 1252.85 4279.85 1255.16 4277 1255.16L4256.5 1255.16C4253.65 1255.16 4251.34 1252.85 4251.34 1250 4251.34 1247.15 4253.65 1244.84 4256.5 1244.84Z" fill="#FF0000" fill-rule="nonzero" fill-opacity="1"/></g><g clip-path="url(#clip3)"><path d="M1204 1037.84 1224.63 1037.84C1227.47 1037.84 1229.78 1040.15 1229.78 1043 1229.78 1045.85 1227.47 1048.16 1224.63 1048.16L1204 1048.16C1201.15 1048.16 1198.84 1045.85 1198.84 1043 1198.84 1040.15 1201.15 1037.84 1204 1037.84ZM1245.25 1037.84 1265.88 1037.84C1268.72 1037.84 1271.03 1040.15 1271.03 1043 1271.03 1045.85 1268.72 1048.16 1265.88 1048.16L1245.25 1048.16C1242.4 1048.16 1240.09 1045.85 1240.09 1043 1240.09 1040.15 1242.4 1037.84 1245.25 1037.84ZM1286.5 1037.84 1307.13 1037.84C1309.97 1037.84 1312.28 1040.15 1312.28 1043 1312.28 1045.85 1309.97 1048.16 1307.13 1048.16L1286.5 1048.16C1283.65 1048.16 1281.34 1045.85 1281.34 1043 1281.34 1040.15 1283.65 1037.84 1286.5 1037.84ZM1327.75 1037.84 1348.38 1037.84C1351.22 1037.84 1353.53 1040.15 1353.53 1043 1353.53 1045.85 1351.22 1048.16 1348.38 1048.16L1327.75 1048.16C1324.9 1048.16 1322.59 1045.85 1322.59 1043 1322.59 1040.15 1324.9 1037.84 1327.75 1037.84ZM1369 1037.84 1389.63 1037.84C1392.47 1037.84 1394.78 1040.15 1394.78 1043 1394.78 1045.85 1392.47 1048.16 1389.63 1048.16L1369 1048.16C1366.15 1048.16 1363.84 1045.85 1363.84 1043 1363.84 1040.15 1366.15 1037.84 1369 1037.84ZM1410.25 1037.84 1430.88 1037.84C1433.72 1037.84 1436.03 1040.15 1436.03 1043 1436.03 1045.85 1433.72 1048.16 1430.88 1048.16L1410.25 1048.16C1407.4 1048.16 1405.09 1045.85 1405.09 1043 1405.09 1040.15 1407.4 1037.84 1410.25 1037.84ZM1451.5 1037.84 1472.13 1037.84C1474.97 1037.84 1477.28 1040.15 1477.28 1043 1477.28 1045.85 1474.97 1048.16 1472.13 1048.16L1451.5 1048.16C1448.65 1048.16 1446.34 1045.85 1446.34 1043 1446.34 1040.15 1448.65 1037.84 1451.5 1037.84ZM1492.75 1037.84 1513.38 1037.84C1516.22 1037.84 1518.53 1040.15 1518.53 1043 1518.53 1045.85 1516.22 1048.16 1513.38 1048.16L1492.75 1048.16C1489.9 1048.16 1487.59 1045.85 1487.59 1043 1487.59 1040.15 1489.9 1037.84 1492.75 1037.84ZM1534 1037.84 1554.63 1037.84C1557.47 1037.84 1559.78 1040.15 1559.78 1043 1559.78 1045.85 1557.47 1048.16 1554.63 1048.16L1534 1048.16C1531.15 1048.16 1528.84 1045.85 1528.84 1043 1528.84 1040.15 1531.15 1037.84 1534 1037.84ZM1575.25 1037.84 1595.88 1037.84C1598.72 1037.84 1601.03 1040.15 1601.03 1043 1601.03 1045.85 1598.72 1048.16 1595.88 1048.16L1575.25 1048.16C1572.4 1048.16 1570.09 1045.85 1570.09 1043 1570.09 1040.15 1572.4 1037.84 1575.25 1037.84ZM1616.5 1037.84 1637.13 1037.84C1639.97 1037.84 1642.28 1040.15 1642.28 1043 1642.28 1045.85 1639.97 1048.16 1637.13 1048.16L1616.5 1048.16C1613.65 1048.16 1611.34 1045.85 1611.34 1043 1611.34 1040.15 1613.65 1037.84 1616.5 1037.84ZM1657.75 1037.84 1678.38 1037.84C1681.22 1037.84 1683.53 1040.15 1683.53 1043 1683.53 1045.85 1681.22 1048.16 1678.38 1048.16L1657.75 1048.16C1654.9 1048.16 1652.59 1045.85 1652.59 1043 1652.59 1040.15 1654.9 1037.84 1657.75 1037.84ZM1699 1037.84 1719.63 1037.84C1722.47 1037.84 1724.78 1040.15 1724.78 1043 1724.78 1045.85 1722.47 1048.16 1719.63 1048.16L1699 1048.16C1696.15 1048.16 1693.84 1045.85 1693.84 1043 1693.84 1040.15 1696.15 1037.84 1699 1037.84ZM1740.25 1037.84 1760.88 1037.84C1763.72 1037.84 1766.03 1040.15 1766.03 1043 1766.03 1045.85 1763.72 1048.16 1760.88 1048.16L1740.25 1048.16C1737.4 1048.16 1735.09 1045.85 1735.09 1043 1735.09 1040.15 1737.4 1037.84 1740.25 1037.84ZM1781.5 1037.84 1802.13 1037.84C1804.97 1037.84 1807.28 1040.15 1807.28 1043 1807.28 1045.85 1804.97 1048.16 1802.13 1048.16L1781.5 1048.16C1778.65 1048.16 1776.34 1045.85 1776.34 1043 1776.34 1040.15 1778.65 1037.84 1781.5 1037.84ZM1822.75 1037.84 1843.38 1037.84C1846.22 1037.84 1848.53 1040.15 1848.53 1043 1848.53 1045.85 1846.22 1048.16 1843.38 1048.16L1822.75 1048.16C1819.9 1048.16 1817.59 1045.85 1817.59 1043 1817.59 1040.15 1819.9 1037.84 1822.75 1037.84ZM1864 1037.84 1884.63 1037.84C1887.47 1037.84 1889.78 1040.15 1889.78 1043 1889.78 1045.85 1887.47 1048.16 1884.63 1048.16L1864 1048.16C1861.15 1048.16 1858.84 1045.85 1858.84 1043 1858.84 1040.15 1861.15 1037.84 1864 1037.84ZM1905.25 1037.84 1925.88 1037.84C1928.72 1037.84 1931.03 1040.15 1931.03 1043 1931.03 1045.85 1928.72 1048.16 1925.88 1048.16L1905.25 1048.16C1902.4 1048.16 1900.09 1045.85 1900.09 1043 1900.09 1040.15 1902.4 1037.84 1905.25 1037.84ZM1946.5 1037.84 1967.13 1037.84C1969.97 1037.84 1972.28 1040.15 1972.28 1043 1972.28 1045.85 1969.97 1048.16 1967.13 1048.16L1946.5 1048.16C1943.65 1048.16 1941.34 1045.85 1941.34 1043 1941.34 1040.15 1943.65 1037.84 1946.5 1037.84ZM1987.75 1037.84 2008.38 1037.84C2011.22 1037.84 2013.53 1040.15 2013.53 1043 2013.53 1045.85 2011.22 1048.16 2008.38 1048.16L1987.75 1048.16C1984.9 1048.16 1982.59 1045.85 1982.59 1043 1982.59 1040.15 1984.9 1037.84 1987.75 1037.84ZM2029 1037.84 2049.62 1037.84C2052.47 1037.84 2054.78 1040.15 2054.78 1043 2054.78 1045.85 2052.47 1048.16 2049.62 1048.16L2029 1048.16C2026.15 1048.16 2023.84 1045.85 2023.84 1043 2023.84 1040.15 2026.15 1037.84 2029 1037.84ZM2070.25 1037.84 2082.07 1037.84 2090.88 1037.84C2093.72 1037.84 2096.03 1040.15 2096.03 1043 2096.03 1045.85 2093.72 1048.16 2090.88 1048.16L2082.07 1048.16 2070.25 1048.16C2067.4 1048.16 2065.09 1045.85 2065.09 1043 2065.09 1040.15 2067.4 1037.84 2070.25 1037.84ZM2111.5 1037.84 2132.12 1037.84C2134.97 1037.84 2137.28 1040.15 2137.28 1043 2137.28 1045.85 2134.97 1048.16 2132.12 1048.16L2111.5 1048.16C2108.65 1048.16 2106.34 1045.85 2106.34 1043 2106.34 1040.15 2108.65 1037.84 2111.5 1037.84ZM2152.75 1037.84 2173.38 1037.84C2176.22 1037.84 2178.53 1040.15 2178.53 1043 2178.53 1045.85 2176.22 1048.16 2173.38 1048.16L2152.75 1048.16C2149.9 1048.16 2147.59 1045.85 2147.59 1043 2147.59 1040.15 2149.9 1037.84 2152.75 1037.84ZM2194 1037.84 2214.62 1037.84C2217.47 1037.84 2219.78 1040.15 2219.78 1043 2219.78 1045.85 2217.47 1048.16 2214.62 1048.16L2194 1048.16C2191.15 1048.16 2188.84 1045.85 2188.84 1043 2188.84 1040.15 2191.15 1037.84 2194 1037.84ZM2235.25 1037.84 2255.88 1037.84C2258.72 1037.84 2261.03 1040.15 2261.03 1043 2261.03 1045.85 2258.72 1048.16 2255.88 1048.16L2235.25 1048.16C2232.4 1048.16 2230.09 1045.85 2230.09 1043 2230.09 1040.15 2232.4 1037.84 2235.25 1037.84ZM2276.5 1037.84 2297.12 1037.84C2299.97 1037.84 2302.28 1040.15 2302.28 1043 2302.28 1045.85 2299.97 1048.16 2297.12 1048.16L2276.5 1048.16C2273.65 1048.16 2271.34 1045.85 2271.34 1043 2271.34 1040.15 2273.65 1037.84 2276.5 1037.84ZM2317.75 1037.84 2338.38 1037.84C2341.22 1037.84 2343.53 1040.15 2343.53 1043 2343.53 1045.85 2341.22 1048.16 2338.38 1048.16L2317.75 1048.16C2314.9 1048.16 2312.59 1045.85 2312.59 1043 2312.59 1040.15 2314.9 1037.84 2317.75 1037.84ZM2359 1037.84 2379.62 1037.84C2382.47 1037.84 2384.78 1040.15 2384.78 1043 2384.78 1045.85 2382.47 1048.16 2379.62 1048.16L2359 1048.16C2356.15 1048.16 2353.84 1045.85 2353.84 1043 2353.84 1040.15 2356.15 1037.84 2359 1037.84ZM2400.25 1037.84 2420.88 1037.84C2423.72 1037.84 2426.03 1040.15 2426.03 1043 2426.03 1045.85 2423.72 1048.16 2420.88 1048.16L2400.25 1048.16C2397.4 1048.16 2395.09 1045.85 2395.09 1043 2395.09 1040.15 2397.4 1037.84 2400.25 1037.84ZM2441.5 1037.84 2462.12 1037.84C2464.97 1037.84 2467.28 1040.15 2467.28 1043 2467.28 1045.85 2464.97 1048.16 2462.12 1048.16L2441.5 1048.16C2438.65 1048.16 2436.34 1045.85 2436.34 1043 2436.34 1040.15 2438.65 1037.84 2441.5 1037.84ZM2482.75 1037.84 2503.38 1037.84C2506.22 1037.84 2508.53 1040.15 2508.53 1043 2508.53 1045.85 2506.22 1048.16 2503.38 1048.16L2482.75 1048.16C2479.9 1048.16 2477.59 1045.85 2477.59 1043 2477.59 1040.15 2479.9 1037.84 2482.75 1037.84ZM2524 1037.84 2544.62 1037.84C2547.47 1037.84 2549.78 1040.15 2549.78 1043 2549.78 1045.85 2547.47 1048.16 2544.62 1048.16L2524 1048.16C2521.15 1048.16 2518.84 1045.85 2518.84 1043 2518.84 1040.15 2521.15 1037.84 2524 1037.84ZM2565.25 1037.84 2585.88 1037.84C2588.72 1037.84 2591.03 1040.15 2591.03 1043 2591.03 1045.85 2588.72 1048.16 2585.88 1048.16L2565.25 1048.16C2562.4 1048.16 2560.09 1045.85 2560.09 1043 2560.09 1040.15 2562.4 1037.84 2565.25 1037.84ZM2606.5 1037.84 2627.12 1037.84C2629.97 1037.84 2632.28 1040.15 2632.28 1043 2632.28 1045.85 2629.97 1048.16 2627.12 1048.16L2606.5 1048.16C2603.65 1048.16 2601.34 1045.85 2601.34 1043 2601.34 1040.15 2603.65 1037.84 2606.5 1037.84ZM2647.75 1037.84 2668.38 1037.84C2671.22 1037.84 2673.53 1040.15 2673.53 1043 2673.53 1045.85 2671.22 1048.16 2668.38 1048.16L2647.75 1048.16C2644.9 1048.16 2642.59 1045.85 2642.59 1043 2642.59 1040.15 2644.9 1037.84 2647.75 1037.84ZM2689 1037.84 2709.62 1037.84C2712.47 1037.84 2714.78 1040.15 2714.78 1043 2714.78 1045.85 2712.47 1048.16 2709.62 1048.16L2689 1048.16C2686.15 1048.16 2683.84 1045.85 2683.84 1043 2683.84 1040.15 2686.15 1037.84 2689 1037.84ZM2730.25 1037.84 2750.88 1037.84C2753.72 1037.84 2756.03 1040.15 2756.03 1043 2756.03 1045.85 2753.72 1048.16 2750.88 1048.16L2730.25 1048.16C2727.4 1048.16 2725.09 1045.85 2725.09 1043 2725.09 1040.15 2727.4 1037.84 2730.25 1037.84ZM2771.5 1037.84 2792.12 1037.84C2794.97 1037.84 2797.28 1040.15 2797.28 1043 2797.28 1045.85 2794.97 1048.16 2792.12 1048.16L2771.5 1048.16C2768.65 1048.16 2766.34 1045.85 2766.34 1043 2766.34 1040.15 2768.65 1037.84 2771.5 1037.84ZM2812.75 1037.84 2833.38 1037.84C2836.22 1037.84 2838.53 1040.15 2838.53 1043 2838.53 1045.85 2836.22 1048.16 2833.38 1048.16L2812.75 1048.16C2809.9 1048.16 2807.59 1045.85 2807.59 1043 2807.59 1040.15 2809.9 1037.84 2812.75 1037.84ZM2854 1037.84 2874.62 1037.84C2877.47 1037.84 2879.78 1040.15 2879.78 1043 2879.78 1045.85 2877.47 1048.16 2874.62 1048.16L2854 1048.16C2851.15 1048.16 2848.84 1045.85 2848.84 1043 2848.84 1040.15 2851.15 1037.84 2854 1037.84ZM2895.25 1037.84 2915.88 1037.84C2918.72 1037.84 2921.03 1040.15 2921.03 1043 2921.03 1045.85 2918.72 1048.16 2915.88 1048.16L2895.25 1048.16C2892.4 1048.16 2890.09 1045.85 2890.09 1043 2890.09 1040.15 2892.4 1037.84 2895.25 1037.84ZM2936.5 1037.84 2957.12 1037.84C2959.97 1037.84 2962.28 1040.15 2962.28 1043 2962.28 1045.85 2959.97 1048.16 2957.12 1048.16L2936.5 1048.16C2933.65 1048.16 2931.34 1045.85 2931.34 1043 2931.34 1040.15 2933.65 1037.84 2936.5 1037.84ZM2977.75 1037.84 2998.38 1037.84C3001.22 1037.84 3003.53 1040.15 3003.53 1043 3003.53 1045.85 3001.22 1048.16 2998.38 1048.16L2977.75 1048.16C2974.9 1048.16 2972.59 1045.85 2972.59 1043 2972.59 1040.15 2974.9 1037.84 2977.75 1037.84ZM3019 1037.84 3039.62 1037.84C3042.47 1037.84 3044.78 1040.15 3044.78 1043 3044.78 1045.85 3042.47 1048.16 3039.62 1048.16L3019 1048.16C3016.15 1048.16 3013.84 1045.85 3013.84 1043 3013.84 1040.15 3016.15 1037.84 3019 1037.84ZM3060.25 1037.84 3080.88 1037.84C3083.72 1037.84 3086.03 1040.15 3086.03 1043 3086.03 1045.85 3083.72 1048.16 3080.88 1048.16L3060.25 1048.16C3057.4 1048.16 3055.09 1045.85 3055.09 1043 3055.09 1040.15 3057.4 1037.84 3060.25 1037.84ZM3101.5 1037.84 3122.12 1037.84C3124.97 1037.84 3127.28 1040.15 3127.28 1043 3127.28 1045.85 3124.97 1048.16 3122.12 1048.16L3101.5 1048.16C3098.65 1048.16 3096.34 1045.85 3096.34 1043 3096.34 1040.15 3098.65 1037.84 3101.5 1037.84ZM3142.75 1037.84 3163.38 1037.84C3166.22 1037.84 3168.53 1040.15 3168.53 1043 3168.53 1045.85 3166.22 1048.16 3163.38 1048.16L3142.75 1048.16C3139.9 1048.16 3137.59 1045.85 3137.59 1043 3137.59 1040.15 3139.9 1037.84 3142.75 1037.84ZM3184 1037.84 3204.62 1037.84C3207.47 1037.84 3209.78 1040.15 3209.78 1043 3209.78 1045.85 3207.47 1048.16 3204.62 1048.16L3184 1048.16C3181.15 1048.16 3178.84 1045.85 3178.84 1043 3178.84 1040.15 3181.15 1037.84 3184 1037.84ZM3225.25 1037.84 3245.88 1037.84C3248.72 1037.84 3251.03 1040.15 3251.03 1043 3251.03 1045.85 3248.72 1048.16 3245.88 1048.16L3225.25 1048.16C3222.4 1048.16 3220.09 1045.85 3220.09 1043 3220.09 1040.15 3222.4 1037.84 3225.25 1037.84ZM3266.5 1037.84 3287.12 1037.84C3289.97 1037.84 3292.28 1040.15 3292.28 1043 3292.28 1045.85 3289.97 1048.16 3287.12 1048.16L3266.5 1048.16C3263.65 1048.16 3261.34 1045.85 3261.34 1043 3261.34 1040.15 3263.65 1037.84 3266.5 1037.84ZM3307.75 1037.84 3328.38 1037.84C3331.22 1037.84 3333.53 1040.15 3333.53 1043 3333.53 1045.85 3331.22 1048.16 3328.38 1048.16L3307.75 1048.16C3304.9 1048.16 3302.59 1045.85 3302.59 1043 3302.59 1040.15 3304.9 1037.84 3307.75 1037.84ZM3349 1037.84 3369.62 1037.84C3372.47 1037.84 3374.78 1040.15 3374.78 1043 3374.78 1045.85 3372.47 1048.16 3369.62 1048.16L3349 1048.16C3346.15 1048.16 3343.84 1045.85 3343.84 1043 3343.84 1040.15 3346.15 1037.84 3349 1037.84ZM3390.25 1037.84 3399.11 1037.84 3410.88 1037.84C3413.72 1037.84 3416.03 1040.15 3416.03 1043 3416.03 1045.85 3413.72 1048.16 3410.88 1048.16L3399.11 1048.16 3390.25 1048.16C3387.4 1048.16 3385.09 1045.85 3385.09 1043 3385.09 1040.15 3387.4 1037.84 3390.25 1037.84ZM3431.5 1037.84 3452.12 1037.84C3454.97 1037.84 3457.28 1040.15 3457.28 1043 3457.28 1045.85 3454.97 1048.16 3452.12 1048.16L3431.5 1048.16C3428.65 1048.16 3426.34 1045.85 3426.34 1043 3426.34 1040.15 3428.65 1037.84 3431.5 1037.84ZM3472.75 1037.84 3493.38 1037.84C3496.22 1037.84 3498.53 1040.15 3498.53 1043 3498.53 1045.85 3496.22 1048.16 3493.38 1048.16L3472.75 1048.16C3469.9 1048.16 3467.59 1045.85 3467.59 1043 3467.59 1040.15 3469.9 1037.84 3472.75 1037.84ZM3514 1037.84 3534.62 1037.84C3537.47 1037.84 3539.78 1040.15 3539.78 1043 3539.78 1045.85 3537.47 1048.16 3534.62 1048.16L3514 1048.16C3511.15 1048.16 3508.84 1045.85 3508.84 1043 3508.84 1040.15 3511.15 1037.84 3514 1037.84ZM3555.25 1037.84 3575.88 1037.84C3578.72 1037.84 3581.03 1040.15 3581.03 1043 3581.03 1045.85 3578.72 1048.16 3575.88 1048.16L3555.25 1048.16C3552.4 1048.16 3550.09 1045.85 3550.09 1043 3550.09 1040.15 3552.4 1037.84 3555.25 1037.84ZM3596.5 1037.84 3617.12 1037.84C3619.97 1037.84 3622.28 1040.15 3622.28 1043 3622.28 1045.85 3619.97 1048.16 3617.12 1048.16L3596.5 1048.16C3593.65 1048.16 3591.34 1045.85 3591.34 1043 3591.34 1040.15 3593.65 1037.84 3596.5 1037.84ZM3637.75 1037.84 3658.38 1037.84C3661.22 1037.84 3663.53 1040.15 3663.53 1043 3663.53 1045.85 3661.22 1048.16 3658.38 1048.16L3637.75 1048.16C3634.9 1048.16 3632.59 1045.85 3632.59 1043 3632.59 1040.15 3634.9 1037.84 3637.75 1037.84ZM3679 1037.84 3699.62 1037.84C3702.47 1037.84 3704.78 1040.15 3704.78 1043 3704.78 1045.85 3702.47 1048.16 3699.62 1048.16L3679 1048.16C3676.15 1048.16 3673.84 1045.85 3673.84 1043 3673.84 1040.15 3676.15 1037.84 3679 1037.84ZM3720.25 1037.84 3740.88 1037.84C3743.72 1037.84 3746.03 1040.15 3746.03 1043 3746.03 1045.85 3743.72 1048.16 3740.88 1048.16L3720.25 1048.16C3717.4 1048.16 3715.09 1045.85 3715.09 1043 3715.09 1040.15 3717.4 1037.84 3720.25 1037.84ZM3761.5 1037.84 3782.12 1037.84C3784.97 1037.84 3787.28 1040.15 3787.28 1043 3787.28 1045.85 3784.97 1048.16 3782.12 1048.16L3761.5 1048.16C3758.65 1048.16 3756.34 1045.85 3756.34 1043 3756.34 1040.15 3758.65 1037.84 3761.5 1037.84ZM3802.75 1037.84 3823.38 1037.84C3826.22 1037.84 3828.53 1040.15 3828.53 1043 3828.53 1045.85 3826.22 1048.16 3823.38 1048.16L3802.75 1048.16C3799.9 1048.16 3797.59 1045.85 3797.59 1043 3797.59 1040.15 3799.9 1037.84 3802.75 1037.84ZM3844 1037.84 3864.62 1037.84C3867.47 1037.84 3869.78 1040.15 3869.78 1043 3869.78 1045.85 3867.47 1048.16 3864.62 1048.16L3844 1048.16C3841.15 1048.16 3838.84 1045.85 3838.84 1043 3838.84 1040.15 3841.15 1037.84 3844 1037.84ZM3885.25 1037.84 3905.88 1037.84C3908.72 1037.84 3911.03 1040.15 3911.03 1043 3911.03 1045.85 3908.72 1048.16 3905.88 1048.16L3885.25 1048.16C3882.4 1048.16 3880.09 1045.85 3880.09 1043 3880.09 1040.15 3882.4 1037.84 3885.25 1037.84ZM3926.5 1037.84 3947.12 1037.84C3949.97 1037.84 3952.28 1040.15 3952.28 1043 3952.28 1045.85 3949.97 1048.16 3947.12 1048.16L3926.5 1048.16C3923.65 1048.16 3921.34 1045.85 3921.34 1043 3921.34 1040.15 3923.65 1037.84 3926.5 1037.84ZM3967.75 1037.84 3988.38 1037.84C3991.22 1037.84 3993.53 1040.15 3993.53 1043 3993.53 1045.85 3991.22 1048.16 3988.38 1048.16L3967.75 1048.16C3964.9 1048.16 3962.59 1045.85 3962.59 1043 3962.59 1040.15 3964.9 1037.84 3967.75 1037.84ZM4009 1037.84 4029.62 1037.84C4032.47 1037.84 4034.78 1040.15 4034.78 1043 4034.78 1045.85 4032.47 1048.16 4029.62 1048.16L4009 1048.16C4006.15 1048.16 4003.84 1045.85 4003.84 1043 4003.84 1040.15 4006.15 1037.84 4009 1037.84ZM4050.25 1037.84 4070.88 1037.84C4073.72 1037.84 4076.03 1040.15 4076.03 1043 4076.03 1045.85 4073.72 1048.16 4070.88 1048.16L4050.25 1048.16C4047.4 1048.16 4045.09 1045.85 4045.09 1043 4045.09 1040.15 4047.4 1037.84 4050.25 1037.84ZM4091.5 1037.84 4112.12 1037.84C4114.97 1037.84 4117.28 1040.15 4117.28 1043 4117.28 1045.85 4114.97 1048.16 4112.12 1048.16L4091.5 1048.16C4088.65 1048.16 4086.34 1045.85 4086.34 1043 4086.34 1040.15 4088.65 1037.84 4091.5 1037.84ZM4132.75 1037.84 4153.38 1037.84C4156.22 1037.84 4158.53 1040.15 4158.53 1043 4158.53 1045.85 4156.22 1048.16 4153.38 1048.16L4132.75 1048.16C4129.9 1048.16 4127.59 1045.85 4127.59 1043 4127.59 1040.15 4129.9 1037.84 4132.75 1037.84ZM4174 1037.84 4194.62 1037.84C4197.47 1037.84 4199.78 1040.15 4199.78 1043 4199.78 1045.85 4197.47 1048.16 4194.62 1048.16L4174 1048.16C4171.15 1048.16 4168.84 1045.85 4168.84 1043 4168.84 1040.15 4171.15 1037.84 4174 1037.84ZM4215.25 1037.84 4235.88 1037.84C4238.72 1037.84 4241.03 1040.15 4241.03 1043 4241.03 1045.85 4238.72 1048.16 4235.88 1048.16L4215.25 1048.16C4212.4 1048.16 4210.09 1045.85 4210.09 1043 4210.09 1040.15 4212.4 1037.84 4215.25 1037.84ZM4256.5 1037.84 4277 1037.84C4279.85 1037.84 4282.16 1040.15 4282.16 1043 4282.16 1045.85 4279.85 1048.16 4277 1048.16L4256.5 1048.16C4253.65 1048.16 4251.34 1045.85 4251.34 1043 4251.34 1040.15 4253.65 1037.84 4256.5 1037.84Z" fill="#00B050" fill-rule="nonzero" fill-opacity="1"/></g><g><text fill="#595959" fill-opacity="1" font-family="Calibri,Calibri_MSFontService,sans-serif" font-style="normal" font-variant="normal" font-weight="400" font-stretch="normal" font-size="41" text-anchor="start" direction="ltr" writing-mode="lr-tb" unicode-bidi="normal" text-decoration="none" transform="matrix(1 0 0 1 843.608 2499)">30.0%</text></g><g><text fill="#595959" fill-opacity="1" font-family="Calibri,Calibri_MSFontService,sans-serif" font-style="normal" font-variant="normal" font-weight="400" font-stretch="normal" font-size="41" text-anchor="start" direction="ltr" writing-mode="lr-tb" unicode-bidi="normal" text-decoration="none" transform="matrix(1 0 0 1 843.608 2293)">40.0%</text></g><g><text fill="#595959" fill-opacity="1" font-family="Calibri,Calibri_MSFontService,sans-serif" font-style="normal" font-variant="normal" font-weight="400" font-stretch="normal" font-size="41" text-anchor="start" direction="ltr" writing-mode="lr-tb" unicode-bidi="normal" text-decoration="none" transform="matrix(1 0 0 1 843.608 2086)">50.0%</text></g><g><text fill="#595959" fill-opacity="1" font-family="Calibri,Calibri_MSFontService,sans-serif" font-style="normal" font-variant="normal" font-weight="400" font-stretch="normal" font-size="41" text-anchor="start" direction="ltr" writing-mode="lr-tb" unicode-bidi="normal" text-decoration="none" transform="matrix(1 0 0 1 843.608 1880)">60.0%</text></g><g><text fill="#595959" fill-opacity="1" font-family="Calibri,Calibri_MSFontService,sans-serif" font-style="normal" font-variant="normal" font-weight="400" font-stretch="normal" font-size="41" text-anchor="start" direction="ltr" writing-mode="lr-tb" unicode-bidi="normal" text-decoration="none" transform="matrix(1 0 0 1 843.608 1673)">70.0%</text></g><g><text fill="#595959" fill-opacity="1" font-family="Calibri,Calibri_MSFontService,sans-serif" font-style="normal" font-variant="normal" font-weight="400" font-stretch="normal" font-size="41" text-anchor="start" direction="ltr" writing-mode="lr-tb" unicode-bidi="normal" text-decoration="none" transform="matrix(1 0 0 1 843.608 1467)">80.0%</text></g><g><text fill="#595959" fill-opacity="1" font-family="Calibri,Calibri_MSFontService,sans-serif" font-style="normal" font-variant="normal" font-weight="400" font-stretch="normal" font-size="41" text-anchor="start" direction="ltr" writing-mode="lr-tb" unicode-bidi="normal" text-decoration="none" transform="matrix(1 0 0 1 843.608 1260)">90.0%</text></g><g><text fill="#595959" fill-opacity="1" font-family="Calibri,Calibri_MSFontService,sans-serif" font-style="normal" font-variant="normal" font-weight="400" font-stretch="normal" font-size="41" text-anchor="start" direction="ltr" writing-mode="lr-tb" unicode-bidi="normal" text-decoration="none" transform="matrix(1 0 0 1 822.708 1054)">100.0%</text></g><g><text fill="#595959" fill-opacity="1" font-family="Calibri,Calibri_MSFontService,sans-serif" font-style="normal" font-variant="normal" font-weight="400" font-stretch="normal" font-size="41" text-anchor="start" direction="ltr" writing-mode="lr-tb" unicode-bidi="normal" text-decoration="none" transform="matrix(1 0 0 1 1128.38 2554)">Sprint 10</text></g><g><text fill="#595959" fill-opacity="1" font-family="Calibri,Calibri_MSFontService,sans-serif" font-style="normal" font-variant="normal" font-weight="400" font-stretch="normal" font-size="41" text-anchor="start" direction="ltr" writing-mode="lr-tb" unicode-bidi="normal" text-decoration="none" transform="matrix(1 0 0 1 1567.36 2554)">Sprint 11</text></g><g><text fill="#595959" fill-opacity="1" font-family="Calibri,Calibri_MSFontService,sans-serif" font-style="normal" font-variant="normal" font-weight="400" font-stretch="normal" font-size="41" text-anchor="start" direction="ltr" writing-mode="lr-tb" unicode-bidi="normal" text-decoration="none" transform="matrix(1 0 0 1 2006.33 2554)">Sprint 12</text></g><g><text fill="#595959" fill-opacity="1" font-family="Calibri,Calibri_MSFontService,sans-serif" font-style="normal" font-variant="normal" font-weight="400" font-stretch="normal" font-size="41" text-anchor="start" direction="ltr" writing-mode="lr-tb" unicode-bidi="normal" text-decoration="none" transform="matrix(1 0 0 1 2445.31 2554)">Sprint 13</text></g><g><text fill="#595959" fill-opacity="1" font-family="Calibri,Calibri_MSFontService,sans-serif" font-style="normal" font-variant="normal" font-weight="400" font-stretch="normal" font-size="41" text-anchor="start" direction="ltr" writing-mode="lr-tb" unicode-bidi="normal" text-decoration="none" transform="matrix(1 0 0 1 2884.28 2554)">Sprint 14</text></g><g><text fill="#595959" fill-opacity="1" font-family="Calibri,Calibri_MSFontService,sans-serif" font-style="normal" font-variant="normal" font-weight="400" font-stretch="normal" font-size="41" text-anchor="start" direction="ltr" writing-mode="lr-tb" unicode-bidi="normal" text-decoration="none" transform="matrix(1 0 0 1 3323.26 2554)">Sprint 15</text></g><g><text fill="#595959" fill-opacity="1" font-family="Calibri,Calibri_MSFontService,sans-serif" font-style="normal" font-variant="normal" font-weight="400" font-stretch="normal" font-size="41" text-anchor="start" direction="ltr" writing-mode="lr-tb" unicode-bidi="normal" text-decoration="none" transform="matrix(1 0 0 1 3762.23 2554)">Sprint 16</text></g><g><text fill="#595959" fill-opacity="1" font-family="Calibri,Calibri_MSFontService,sans-serif" font-style="normal" font-variant="normal" font-weight="400" font-stretch="normal" font-size="41" text-anchor="start" direction="ltr" writing-mode="lr-tb" unicode-bidi="normal" text-decoration="none" transform="matrix(1 0 0 1 4201.21 2554)">Sprint 17</text></g><g><text fill="#595959" fill-opacity="1" font-family="Calibri,Calibri_MSFontService,sans-serif" font-style="normal" font-variant="normal" font-weight="400" font-stretch="normal" font-size="64" text-anchor="start" direction="ltr" writing-mode="lr-tb" unicode-bidi="normal" text-decoration="none" transform="matrix(1 0 0 1 2631.49 969)">AD</text></g><g><path d="M2084 2633 2200 2633" stroke="#4F81BD" stroke-width="10.3125" stroke-linecap="round" stroke-linejoin="round" stroke-miterlimit="10" stroke-opacity="1" fill="none" fill-rule="evenodd"/></g><g><text fill="#595959" fill-opacity="1" font-family="Calibri,Calibri_MSFontService,sans-serif" font-style="normal" font-variant="normal" font-weight="400" font-stretch="normal" font-size="41" text-anchor="start" direction="ltr" writing-mode="lr-tb" unicode-bidi="normal" text-decoration="none" transform="matrix(1 0 0 1 2212.7 2644)">AD</text></g><g><path d="M2333 2627.84 2353.62 2627.84C2356.47 2627.84 2358.78 2630.15 2358.78 2633 2358.78 2635.85 2356.47 2638.16 2353.62 2638.16L2333 2638.16C2330.15 2638.16 2327.84 2635.85 2327.84 2633 2327.84 2630.15 2330.15 2627.84 2333 2627.84ZM2374.25 2627.84 2394.88 2627.84C2397.72 2627.84 2400.03 2630.15 2400.03 2633 2400.03 2635.85 2397.72 2638.16 2394.88 2638.16L2374.25 2638.16C2371.4 2638.16 2369.09 2635.85 2369.09 2633 2369.09 2630.15 2371.4 2627.84 2374.25 2627.84ZM2415.5 2627.84 2436.12 2627.84C2438.97 2627.84 2441.28 2630.15 2441.28 2633 2441.28 2635.85 2438.97 2638.16 2436.12 2638.16L2415.5 2638.16C2412.65 2638.16 2410.34 2635.85 2410.34 2633 2410.34 2630.15 2412.65 2627.84 2415.5 2627.84Z" fill="#FF0000" fill-rule="nonzero" fill-opacity="1"/></g><g><text fill="#595959" fill-opacity="1" font-family="Calibri,Calibri_MSFontService,sans-serif" font-style="normal" font-variant="normal" font-weight="400" font-stretch="normal" font-size="41" text-anchor="start" direction="ltr" writing-mode="lr-tb" unicode-bidi="normal" text-decoration="none" transform="matrix(1 0 0 1 2461.16 2644)">Soglia acc. (≥90%)</text></g><g><path d="M2831 2627.84 2851.63 2627.84C2854.47 2627.84 2856.78 2630.15 2856.78 2633 2856.78 2635.85 2854.47 2638.16 2851.63 2638.16L2831 2638.16C2828.15 2638.16 2825.84 2635.85 2825.84 2633 2825.84 2630.15 2828.15 2627.84 2831 2627.84ZM2872.25 2627.84 2892.88 2627.84C2895.72 2627.84 2898.03 2630.15 2898.03 2633 2898.03 2635.85 2895.72 2638.16 2892.88 2638.16L2872.25 2638.16C2869.4 2638.16 2867.09 2635.85 2867.09 2633 2867.09 2630.15 2869.4 2627.84 2872.25 2627.84ZM2913.5 2627.84 2934.13 2627.84C2936.97 2627.84 2939.28 2630.15 2939.28 2633 2939.28 2635.85 2936.97 2638.16 2934.13 2638.16L2913.5 2638.16C2910.65 2638.16 2908.34 2635.85 2908.34 2633 2908.34 2630.15 2910.65 2627.84 2913.5 2627.84Z" fill="#00B050" fill-rule="nonzero" fill-opacity="1"/></g><g><text fill="#595959" fill-opacity="1" font-family="Calibri,Calibri_MSFontService,sans-serif" font-style="normal" font-variant="normal" font-weight="400" font-stretch="normal" font-size="41" text-anchor="start" direction="ltr" writing-mode="lr-tb" unicode-bidi="normal" text-decoration="none" transform="matrix(1 0 0 1 2959.7 2644)">Soglia ott. (=100%)</text></g><rect x="793.5" y="873.5" width="3754" height="1827" stroke="#D9D9D9" stroke-width="3.4375" stroke-linecap="butt" stroke-linejoin="round" stroke-miterlimit="10" stroke-opacity="1" fill="none"/></g></g></svg>