<svg width="3598" height="1714" xmlns="http://www.w3.org/2000/svg" xmlns:xlink="http://www.w3.org/1999/xlink" xml:space="preserve" overflow="hidden"><defs><clipPath id="clip0"><rect x="1012" y="852" width="3598" height="1714"/></clipPath><clipPath id="clip1"><rect x="1012" y="852" width="3598" height="1714"/></clipPath></defs><g clip-path="url(#clip0)" transform="translate(-1012 -852)"><g clip-path="url(#clip1)"><rect x="1018" y="855" width="3588" height="1707" fill="#FFFFFF" fill-opacity="1"/><g><path d="M1137.5 2218.57 4555.5 2218.57M1137.5 2085.57 4555.5 2085.57M1137.5 1953.56 4555.5 1953.56M1137.5 1820.56 4555.5 1820.56M1137.5 1687.56 4555.5 1687.56M1137.5 1555.55 4555.5 1555.55M1137.5 1422.55 4555.5 1422.55M1137.5 1289.54 4555.5 1289.54M1137.5 1157.54 4555.5 1157.54M1137.5 1024.5 4555.5 1024.5" stroke="#D9D9D9" stroke-width="3.4375" stroke-linecap="butt" stroke-linejoin="round" stroke-miterlimit="10" stroke-opacity="1" fill="none" fill-rule="nonzero"/></g><g><path d="M1137.5 2350.5 4555.5 2350.5" stroke="#D9D9D9" stroke-width="3.4375" stroke-linecap="butt" stroke-linejoin="round" stroke-miterlimit="10" stroke-opacity="1" fill="none" fill-rule="evenodd"/></g><g><path d="M1328 2351 1707.06 2112.07 2087.07 1847.06 2467.08 1661.05 2847.09 1542.05 3226.11 1423.05 3606.12 1316.04 3986 1263" stroke="#4F81BD" stroke-width="10.3125" stroke-linecap="round" stroke-linejoin="round" stroke-miterlimit="10" stroke-opacity="1" fill="none" fill-rule="nonzero"/></g><g><path d="M1328 2351 1707.06 2019.07 2087.07 1714.06 2467.08 1529.05 2847.09 1396.05 3226.11 1290.04 3606.12 1184.04 3986 1144" stroke="#9BBB59" stroke-width="10.3125" stroke-linecap="round" stroke-linejoin="round" stroke-miterlimit="10" stroke-opacity="1" fill="none" fill-rule="nonzero"/></g><g><path d="M1328 1549.84 1400.19 1549.84C1403.04 1549.84 1405.34 1552.15 1405.34 1555 1405.34 1557.85 1403.04 1560.16 1400.19 1560.16L1328 1560.16C1325.15 1560.16 1322.84 1557.85 1322.84 1555 1322.84 1552.15 1325.15 1549.84 1328 1549.84ZM1441.44 1549.84 1513.62 1549.84C1516.47 1549.84 1518.78 1552.15 1518.78 1555 1518.78 1557.85 1516.47 1560.16 1513.62 1560.16L1441.44 1560.16C1438.59 1560.16 1436.28 1557.85 1436.28 1555 1436.28 1552.15 1438.59 1549.84 1441.44 1549.84ZM1554.87 1549.84 1627.06 1549.84C1629.91 1549.84 1632.22 1552.15 1632.22 1555 1632.22 1557.85 1629.91 1560.16 1627.06 1560.16L1554.87 1560.16C1552.03 1560.16 1549.72 1557.85 1549.72 1555 1549.72 1552.15 1552.03 1549.84 1554.87 1549.84ZM1668.31 1549.84 1707.06 1549.84 1740.5 1549.84C1743.35 1549.84 1745.66 1552.15 1745.66 1555 1745.66 1557.85 1743.35 1560.16 1740.5 1560.16L1707.06 1560.16 1668.31 1560.16C1665.46 1560.16 1663.16 1557.85 1663.16 1555 1663.16 1552.15 1665.46 1549.84 1668.31 1549.84ZM1781.75 1549.84 1853.94 1549.84C1856.79 1549.84 1859.09 1552.15 1859.09 1555 1859.09 1557.85 1856.79 1560.16 1853.94 1560.16L1781.75 1560.16C1778.9 1560.16 1776.59 1557.85 1776.59 1555 1776.59 1552.15 1778.9 1549.84 1781.75 1549.84ZM1895.19 1549.84 1967.37 1549.84C1970.22 1549.84 1972.53 1552.15 1972.53 1555 1972.53 1557.85 1970.22 1560.16 1967.37 1560.16L1895.19 1560.16C1892.34 1560.16 1890.03 1557.85 1890.03 1555 1890.03 1552.15 1892.34 1549.84 1895.19 1549.84ZM2008.62 1549.84 2080.81 1549.84C2083.66 1549.84 2085.97 1552.15 2085.97 1555 2085.97 1557.85 2083.66 1560.16 2080.81 1560.16L2008.62 1560.16C2005.78 1560.16 2003.47 1557.85 2003.47 1555 2003.47 1552.15 2005.78 1549.84 2008.62 1549.84ZM2122.06 1549.84 2194.25 1549.84C2197.1 1549.84 2199.41 1552.15 2199.41 1555 2199.41 1557.85 2197.1 1560.16 2194.25 1560.16L2122.06 1560.16C2119.21 1560.16 2116.91 1557.85 2116.91 1555 2116.91 1552.15 2119.21 1549.84 2122.06 1549.84ZM2235.5 1549.84 2307.69 1549.84C2310.54 1549.84 2312.84 1552.15 2312.84 1555 2312.84 1557.85 2310.54 1560.16 2307.69 1560.16L2235.5 1560.16C2232.65 1560.16 2230.34 1557.85 2230.34 1555 2230.34 1552.15 2232.65 1549.84 2235.5 1549.84ZM2348.94 1549.84 2421.12 1549.84C2423.97 1549.84 2426.28 1552.15 2426.28 1555 2426.28 1557.85 2423.97 1560.16 2421.12 1560.16L2348.94 1560.16C2346.09 1560.16 2343.78 1557.85 2343.78 1555 2343.78 1552.15 2346.09 1549.84 2348.94 1549.84ZM2462.37 1549.84 2467.08 1549.84 2534.56 1549.84C2537.41 1549.84 2539.72 1552.15 2539.72 1555 2539.72 1557.85 2537.41 1560.16 2534.56 1560.16L2467.08 1560.16 2462.37 1560.16C2459.53 1560.16 2457.22 1557.85 2457.22 1555 2457.22 1552.15 2459.53 1549.84 2462.37 1549.84ZM2575.81 1549.84 2648 1549.84C2650.85 1549.84 2653.16 1552.15 2653.16 1555 2653.16 1557.85 2650.85 1560.16 2648 1560.16L2575.81 1560.16C2572.96 1560.16 2570.66 1557.85 2570.66 1555 2570.66 1552.15 2572.96 1549.84 2575.81 1549.84ZM2689.25 1549.84 2761.44 1549.84C2764.29 1549.84 2766.59 1552.15 2766.59 1555 2766.59 1557.85 2764.29 1560.16 2761.44 1560.16L2689.25 1560.16C2686.4 1560.16 2684.09 1557.85 2684.09 1555 2684.09 1552.15 2686.4 1549.84 2689.25 1549.84ZM2802.69 1549.84 2847.09 1549.84 2874.87 1549.84C2877.72 1549.84 2880.03 1552.15 2880.03 1555 2880.03 1557.85 2877.72 1560.16 2874.87 1560.16L2847.09 1560.16 2802.69 1560.16C2799.84 1560.16 2797.53 1557.85 2797.53 1555 2797.53 1552.15 2799.84 1549.84 2802.69 1549.84ZM2916.12 1549.84 2988.31 1549.84C2991.16 1549.84 2993.47 1552.15 2993.47 1555 2993.47 1557.85 2991.16 1560.16 2988.31 1560.16L2916.12 1560.16C2913.28 1560.16 2910.97 1557.85 2910.97 1555 2910.97 1552.15 2913.28 1549.84 2916.12 1549.84ZM3029.56 1549.84 3101.75 1549.84C3104.6 1549.84 3106.91 1552.15 3106.91 1555 3106.91 1557.85 3104.6 1560.16 3101.75 1560.16L3029.56 1560.16C3026.71 1560.16 3024.41 1557.85 3024.41 1555 3024.41 1552.15 3026.71 1549.84 3029.56 1549.84ZM3143 1549.84 3215.19 1549.84C3218.04 1549.84 3220.34 1552.15 3220.34 1555 3220.34 1557.85 3218.04 1560.16 3215.19 1560.16L3143 1560.16C3140.15 1560.16 3137.84 1557.85 3137.84 1555 3137.84 1552.15 3140.15 1549.84 3143 1549.84ZM3256.44 1549.84 3328.62 1549.84C3331.47 1549.84 3333.78 1552.15 3333.78 1555 3333.78 1557.85 3331.47 1560.16 3328.62 1560.16L3256.44 1560.16C3253.59 1560.16 3251.28 1557.85 3251.28 1555 3251.28 1552.15 3253.59 1549.84 3256.44 1549.84ZM3369.87 1549.84 3442.06 1549.84C3444.91 1549.84 3447.22 1552.15 3447.22 1555 3447.22 1557.85 3444.91 1560.16 3442.06 1560.16L3369.87 1560.16C3367.03 1560.16 3364.72 1557.85 3364.72 1555 3364.72 1552.15 3367.03 1549.84 3369.87 1549.84ZM3483.31 1549.84 3555.5 1549.84C3558.35 1549.84 3560.66 1552.15 3560.66 1555 3560.66 1557.85 3558.35 1560.16 3555.5 1560.16L3483.31 1560.16C3480.46 1560.16 3478.16 1557.85 3478.16 1555 3478.16 1552.15 3480.46 1549.84 3483.31 1549.84ZM3596.75 1549.84 3606.12 1549.84 3668.94 1549.84C3671.79 1549.84 3674.09 1552.15 3674.09 1555 3674.09 1557.85 3671.79 1560.16 3668.94 1560.16L3606.12 1560.16 3596.75 1560.16C3593.9 1560.16 3591.59 1557.85 3591.59 1555 3591.59 1552.15 3593.9 1549.84 3596.75 1549.84ZM3710.19 1549.84 3782.37 1549.84C3785.22 1549.84 3787.53 1552.15 3787.53 1555 3787.53 1557.85 3785.22 1560.16 3782.37 1560.16L3710.19 1560.16C3707.34 1560.16 3705.03 1557.85 3705.03 1555 3705.03 1552.15 3707.34 1549.84 3710.19 1549.84ZM3823.62 1549.84 3895.81 1549.84C3898.66 1549.84 3900.97 1552.15 3900.97 1555 3900.97 1557.85 3898.66 1560.16 3895.81 1560.16L3823.62 1560.16C3820.78 1560.16 3818.47 1557.85 3818.47 1555 3818.47 1552.15 3820.78 1549.84 3823.62 1549.84ZM3937.06 1549.84 3986 1549.84C3988.85 1549.84 3991.16 1552.15 3991.16 1555 3991.16 1557.85 3988.85 1560.16 3986 1560.16L3937.06 1560.16C3934.21 1560.16 3931.91 1557.85 3931.91 1555 3931.91 1552.15 3934.21 1549.84 3937.06 1549.84Z" fill="#FF0000" fill-rule="nonzero" fill-opacity="1"/></g><g><path d="M1328 1284.84 1400.19 1284.84C1403.04 1284.84 1405.34 1287.15 1405.34 1290 1405.34 1292.85 1403.04 1295.16 1400.19 1295.16L1328 1295.16C1325.15 1295.16 1322.84 1292.85 1322.84 1290 1322.84 1287.15 1325.15 1284.84 1328 1284.84ZM1441.44 1284.84 1513.62 1284.84C1516.47 1284.84 1518.78 1287.15 1518.78 1290 1518.78 1292.85 1516.47 1295.16 1513.62 1295.16L1441.44 1295.16C1438.59 1295.16 1436.28 1292.85 1436.28 1290 1436.28 1287.15 1438.59 1284.84 1441.44 1284.84ZM1554.87 1284.84 1627.06 1284.84C1629.91 1284.84 1632.22 1287.15 1632.22 1290 1632.22 1292.85 1629.91 1295.16 1627.06 1295.16L1554.87 1295.16C1552.03 1295.16 1549.72 1292.85 1549.72 1290 1549.72 1287.15 1552.03 1284.84 1554.87 1284.84ZM1668.31 1284.84 1707.06 1284.84 1740.5 1284.84C1743.35 1284.84 1745.66 1287.15 1745.66 1290 1745.66 1292.85 1743.35 1295.16 1740.5 1295.16L1707.06 1295.16 1668.31 1295.16C1665.46 1295.16 1663.16 1292.85 1663.16 1290 1663.16 1287.15 1665.46 1284.84 1668.31 1284.84ZM1781.75 1284.84 1853.94 1284.84C1856.79 1284.84 1859.09 1287.15 1859.09 1290 1859.09 1292.85 1856.79 1295.16 1853.94 1295.16L1781.75 1295.16C1778.9 1295.16 1776.59 1292.85 1776.59 1290 1776.59 1287.15 1778.9 1284.84 1781.75 1284.84ZM1895.19 1284.84 1967.37 1284.84C1970.22 1284.84 1972.53 1287.15 1972.53 1290 1972.53 1292.85 1970.22 1295.16 1967.37 1295.16L1895.19 1295.16C1892.34 1295.16 1890.03 1292.85 1890.03 1290 1890.03 1287.15 1892.34 1284.84 1895.19 1284.84ZM2008.62 1284.84 2080.81 1284.84C2083.66 1284.84 2085.97 1287.15 2085.97 1290 2085.97 1292.85 2083.66 1295.16 2080.81 1295.16L2008.62 1295.16C2005.78 1295.16 2003.47 1292.85 2003.47 1290 2003.47 1287.15 2005.78 1284.84 2008.62 1284.84ZM2122.06 1284.84 2194.25 1284.84C2197.1 1284.84 2199.41 1287.15 2199.41 1290 2199.41 1292.85 2197.1 1295.16 2194.25 1295.16L2122.06 1295.16C2119.21 1295.16 2116.91 1292.85 2116.91 1290 2116.91 1287.15 2119.21 1284.84 2122.06 1284.84ZM2235.5 1284.84 2307.69 1284.84C2310.54 1284.84 2312.84 1287.15 2312.84 1290 2312.84 1292.85 2310.54 1295.16 2307.69 1295.16L2235.5 1295.16C2232.65 1295.16 2230.34 1292.85 2230.34 1290 2230.34 1287.15 2232.65 1284.84 2235.5 1284.84ZM2348.94 1284.84 2421.12 1284.84C2423.97 1284.84 2426.28 1287.15 2426.28 1290 2426.28 1292.85 2423.97 1295.16 2421.12 1295.16L2348.94 1295.16C2346.09 1295.16 2343.78 1292.85 2343.78 1290 2343.78 1287.15 2346.09 1284.84 2348.94 1284.84ZM2462.37 1284.84 2467.08 1284.84 2534.56 1284.84C2537.41 1284.84 2539.72 1287.15 2539.72 1290 2539.72 1292.85 2537.41 1295.16 2534.56 1295.16L2467.08 1295.16 2462.37 1295.16C2459.53 1295.16 2457.22 1292.85 2457.22 1290 2457.22 1287.15 2459.53 1284.84 2462.37 1284.84ZM2575.81 1284.84 2648 1284.84C2650.85 1284.84 2653.16 1287.15 2653.16 1290 2653.16 1292.85 2650.85 1295.16 2648 1295.16L2575.81 1295.16C2572.96 1295.16 2570.66 1292.85 2570.66 1290 2570.66 1287.15 2572.96 1284.84 2575.81 1284.84ZM2689.25 1284.84 2761.44 1284.84C2764.29 1284.84 2766.59 1287.15 2766.59 1290 2766.59 1292.85 2764.29 1295.16 2761.44 1295.16L2689.25 1295.16C2686.4 1295.16 2684.09 1292.85 2684.09 1290 2684.09 1287.15 2686.4 1284.84 2689.25 1284.84ZM2802.69 1284.84 2847.09 1284.84 2874.87 1284.84C2877.72 1284.84 2880.03 1287.15 2880.03 1290 2880.03 1292.85 2877.72 1295.16 2874.87 1295.16L2847.09 1295.16 2802.69 1295.16C2799.84 1295.16 2797.53 1292.85 2797.53 1290 2797.53 1287.15 2799.84 1284.84 2802.69 1284.84ZM2916.12 1284.84 2988.31 1284.84C2991.16 1284.84 2993.47 1287.15 2993.47 1290 2993.47 1292.85 2991.16 1295.16 2988.31 1295.16L2916.12 1295.16C2913.28 1295.16 2910.97 1292.85 2910.97 1290 2910.97 1287.15 2913.28 1284.84 2916.12 1284.84ZM3029.56 1284.84 3101.75 1284.84C3104.6 1284.84 3106.91 1287.15 3106.91 1290 3106.91 1292.85 3104.6 1295.16 3101.75 1295.16L3029.56 1295.16C3026.71 1295.16 3024.41 1292.85 3024.41 1290 3024.41 1287.15 3026.71 1284.84 3029.56 1284.84ZM3143 1284.84 3215.19 1284.84C3218.04 1284.84 3220.34 1287.15 3220.34 1290 3220.34 1292.85 3218.04 1295.16 3215.19 1295.16L3143 1295.16C3140.15 1295.16 3137.84 1292.85 3137.84 1290 3137.84 1287.15 3140.15 1284.84 3143 1284.84ZM3256.44 1284.84 3328.62 1284.84C3331.47 1284.84 3333.78 1287.15 3333.78 1290 3333.78 1292.85 3331.47 1295.16 3328.62 1295.16L3256.44 1295.16C3253.59 1295.16 3251.28 1292.85 3251.28 1290 3251.28 1287.15 3253.59 1284.84 3256.44 1284.84ZM3369.87 1284.84 3442.06 1284.84C3444.91 1284.84 3447.22 1287.15 3447.22 1290 3447.22 1292.85 3444.91 1295.16 3442.06 1295.16L3369.87 1295.16C3367.03 1295.16 3364.72 1292.85 3364.72 1290 3364.72 1287.15 3367.03 1284.84 3369.87 1284.84ZM3483.31 1284.84 3555.5 1284.84C3558.35 1284.84 3560.66 1287.15 3560.66 1290 3560.66 1292.85 3558.35 1295.16 3555.5 1295.16L3483.31 1295.16C3480.46 1295.16 3478.16 1292.85 3478.16 1290 3478.16 1287.15 3480.46 1284.84 3483.31 1284.84ZM3596.75 1284.84 3606.12 1284.84 3668.94 1284.84C3671.79 1284.84 3674.09 1287.15 3674.09 1290 3674.09 1292.85 3671.79 1295.16 3668.94 1295.16L3606.12 1295.16 3596.75 1295.16C3593.9 1295.16 3591.59 1292.85 3591.59 1290 3591.59 1287.15 3593.9 1284.84 3596.75 1284.84ZM3710.19 1284.84 3782.37 1284.84C3785.22 1284.84 3787.53 1287.15 3787.53 1290 3787.53 1292.85 3785.22 1295.16 3782.37 1295.16L3710.19 1295.16C3707.34 1295.16 3705.03 1292.85 3705.03 1290 3705.03 1287.15 3707.34 1284.84 3710.19 1284.84ZM3823.62 1284.84 3895.81 1284.84C3898.66 1284.84 3900.97 1287.15 3900.97 1290 3900.97 1292.85 3898.66 1295.16 3895.81 1295.16L3823.62 1295.16C3820.78 1295.16 3818.47 1292.85 3818.47 1290 3818.47 1287.15 3820.78 1284.84 3823.62 1284.84ZM3937.06 1284.84 3986 1284.84C3988.85 1284.84 3991.16 1287.15 3991.16 1290 3991.16 1292.85 3988.85 1295.16 3986 1295.16L3937.06 1295.16C3934.21 1295.16 3931.91 1292.85 3931.91 1290 3931.91 1287.15 3934.21 1284.84 3937.06 1284.84Z" fill="#00B050" fill-rule="nonzero" fill-opacity="1"/></g><g><path d="M1328 1417.84 1348.62 1417.84C1351.47 1417.84 1353.78 1420.15 1353.78 1423 1353.78 1425.85 1351.47 1428.16 1348.62 1428.16L1328 1428.16C1325.15 1428.16 1322.84 1425.85 1322.84 1423 1322.84 1420.15 1325.15 1417.84 1328 1417.84ZM1369.25 1417.84 1389.87 1417.84C1392.72 1417.84 1395.03 1420.15 1395.03 1423 1395.03 1425.85 1392.72 1428.16 1389.87 1428.16L1369.25 1428.16C1366.4 1428.16 1364.09 1425.85 1364.09 1423 1364.09 1420.15 1366.4 1417.84 1369.25 1417.84ZM1410.5 1417.84 1431.12 1417.84C1433.97 1417.84 1436.28 1420.15 1436.28 1423 1436.28 1425.85 1433.97 1428.16 1431.12 1428.16L1410.5 1428.16C1407.65 1428.16 1405.34 1425.85 1405.34 1423 1405.34 1420.15 1407.65 1417.84 1410.5 1417.84ZM1451.75 1417.84 1472.37 1417.84C1475.22 1417.84 1477.53 1420.15 1477.53 1423 1477.53 1425.85 1475.22 1428.16 1472.37 1428.16L1451.75 1428.16C1448.9 1428.16 1446.59 1425.85 1446.59 1423 1446.59 1420.15 1448.9 1417.84 1451.75 1417.84ZM1493 1417.84 1513.62 1417.84C1516.47 1417.84 1518.78 1420.15 1518.78 1423 1518.78 1425.85 1516.47 1428.16 1513.62 1428.16L1493 1428.16C1490.15 1428.16 1487.84 1425.85 1487.84 1423 1487.84 1420.15 1490.15 1417.84 1493 1417.84ZM1534.25 1417.84 1554.87 1417.84C1557.72 1417.84 1560.03 1420.15 1560.03 1423 1560.03 1425.85 1557.72 1428.16 1554.87 1428.16L1534.25 1428.16C1531.4 1428.16 1529.09 1425.85 1529.09 1423 1529.09 1420.15 1531.4 1417.84 1534.25 1417.84ZM1575.5 1417.84 1596.12 1417.84C1598.97 1417.84 1601.28 1420.15 1601.28 1423 1601.28 1425.85 1598.97 1428.16 1596.12 1428.16L1575.5 1428.16C1572.65 1428.16 1570.34 1425.85 1570.34 1423 1570.34 1420.15 1572.65 1417.84 1575.5 1417.84ZM1616.75 1417.84 1637.37 1417.84C1640.22 1417.84 1642.53 1420.15 1642.53 1423 1642.53 1425.85 1640.22 1428.16 1637.37 1428.16L1616.75 1428.16C1613.9 1428.16 1611.59 1425.85 1611.59 1423 1611.59 1420.15 1613.9 1417.84 1616.75 1417.84ZM1658 1417.84 1678.62 1417.84C1681.47 1417.84 1683.78 1420.15 1683.78 1423 1683.78 1425.85 1681.47 1428.16 1678.62 1428.16L1658 1428.16C1655.15 1428.16 1652.84 1425.85 1652.84 1423 1652.84 1420.15 1655.15 1417.84 1658 1417.84ZM1699.25 1417.84 1707.06 1417.84 1719.87 1417.84C1722.72 1417.84 1725.03 1420.15 1725.03 1423 1725.03 1425.85 1722.72 1428.16 1719.87 1428.16L1707.06 1428.16 1699.25 1428.16C1696.4 1428.16 1694.09 1425.85 1694.09 1423 1694.09 1420.15 1696.4 1417.84 1699.25 1417.84ZM1740.5 1417.84 1761.12 1417.84C1763.97 1417.84 1766.28 1420.15 1766.28 1423 1766.28 1425.85 1763.97 1428.16 1761.12 1428.16L1740.5 1428.16C1737.65 1428.16 1735.34 1425.85 1735.34 1423 1735.34 1420.15 1737.65 1417.84 1740.5 1417.84ZM1781.75 1417.84 1802.37 1417.84C1805.22 1417.84 1807.53 1420.15 1807.53 1423 1807.53 1425.85 1805.22 1428.16 1802.37 1428.16L1781.75 1428.16C1778.9 1428.16 1776.59 1425.85 1776.59 1423 1776.59 1420.15 1778.9 1417.84 1781.75 1417.84ZM1823 1417.84 1843.62 1417.84C1846.47 1417.84 1848.78 1420.15 1848.78 1423 1848.78 1425.85 1846.47 1428.16 1843.62 1428.16L1823 1428.16C1820.15 1428.16 1817.84 1425.85 1817.84 1423 1817.84 1420.15 1820.15 1417.84 1823 1417.84ZM1864.25 1417.84 1884.87 1417.84C1887.72 1417.84 1890.03 1420.15 1890.03 1423 1890.03 1425.85 1887.72 1428.16 1884.87 1428.16L1864.25 1428.16C1861.4 1428.16 1859.09 1425.85 1859.09 1423 1859.09 1420.15 1861.4 1417.84 1864.25 1417.84ZM1905.5 1417.84 1926.12 1417.84C1928.97 1417.84 1931.28 1420.15 1931.28 1423 1931.28 1425.85 1928.97 1428.16 1926.12 1428.16L1905.5 1428.16C1902.65 1428.16 1900.34 1425.85 1900.34 1423 1900.34 1420.15 1902.65 1417.84 1905.5 1417.84ZM1946.75 1417.84 1967.37 1417.84C1970.22 1417.84 1972.53 1420.15 1972.53 1423 1972.53 1425.85 1970.22 1428.16 1967.37 1428.16L1946.75 1428.16C1943.9 1428.16 1941.59 1425.85 1941.59 1423 1941.59 1420.15 1943.9 1417.84 1946.75 1417.84ZM1988 1417.84 2008.62 1417.84C2011.47 1417.84 2013.78 1420.15 2013.78 1423 2013.78 1425.85 2011.47 1428.16 2008.62 1428.16L1988 1428.16C1985.15 1428.16 1982.84 1425.85 1982.84 1423 1982.84 1420.15 1985.15 1417.84 1988 1417.84ZM2029.25 1417.84 2049.87 1417.84C2052.72 1417.84 2055.03 1420.15 2055.03 1423 2055.03 1425.85 2052.72 1428.16 2049.87 1428.16L2029.25 1428.16C2026.4 1428.16 2024.09 1425.85 2024.09 1423 2024.09 1420.15 2026.4 1417.84 2029.25 1417.84ZM2070.5 1417.84 2087.07 1417.84 2091.12 1417.84C2093.97 1417.84 2096.28 1420.15 2096.28 1423 2096.28 1425.85 2093.97 1428.16 2091.12 1428.16L2087.07 1428.16 2070.5 1428.16C2067.65 1428.16 2065.34 1425.85 2065.34 1423 2065.34 1420.15 2067.65 1417.84 2070.5 1417.84ZM2111.75 1417.84 2132.37 1417.84C2135.22 1417.84 2137.53 1420.15 2137.53 1423 2137.53 1425.85 2135.22 1428.16 2132.37 1428.16L2111.75 1428.16C2108.9 1428.16 2106.59 1425.85 2106.59 1423 2106.59 1420.15 2108.9 1417.84 2111.75 1417.84ZM2153 1417.84 2173.62 1417.84C2176.47 1417.84 2178.78 1420.15 2178.78 1423 2178.78 1425.85 2176.47 1428.16 2173.62 1428.16L2153 1428.16C2150.15 1428.16 2147.84 1425.85 2147.84 1423 2147.84 1420.15 2150.15 1417.84 2153 1417.84ZM2194.25 1417.84 2214.87 1417.84C2217.72 1417.84 2220.03 1420.15 2220.03 1423 2220.03 1425.85 2217.72 1428.16 2214.87 1428.16L2194.25 1428.16C2191.4 1428.16 2189.09 1425.85 2189.09 1423 2189.09 1420.15 2191.4 1417.84 2194.25 1417.84ZM2235.5 1417.84 2256.12 1417.84C2258.97 1417.84 2261.28 1420.15 2261.28 1423 2261.28 1425.85 2258.97 1428.16 2256.12 1428.16L2235.5 1428.16C2232.65 1428.16 2230.34 1425.85 2230.34 1423 2230.34 1420.15 2232.65 1417.84 2235.5 1417.84ZM2276.75 1417.84 2297.37 1417.84C2300.22 1417.84 2302.53 1420.15 2302.53 1423 2302.53 1425.85 2300.22 1428.16 2297.37 1428.16L2276.75 1428.16C2273.9 1428.16 2271.59 1425.85 2271.59 1423 2271.59 1420.15 2273.9 1417.84 2276.75 1417.84ZM2318 1417.84 2338.62 1417.84C2341.47 1417.84 2343.78 1420.15 2343.78 1423 2343.78 1425.85 2341.47 1428.16 2338.62 1428.16L2318 1428.16C2315.15 1428.16 2312.84 1425.85 2312.84 1423 2312.84 1420.15 2315.15 1417.84 2318 1417.84ZM2359.25 1417.84 2379.87 1417.84C2382.72 1417.84 2385.03 1420.15 2385.03 1423 2385.03 1425.85 2382.72 1428.16 2379.87 1428.16L2359.25 1428.16C2356.4 1428.16 2354.09 1425.85 2354.09 1423 2354.09 1420.15 2356.4 1417.84 2359.25 1417.84ZM2400.5 1417.84 2421.12 1417.84C2423.97 1417.84 2426.28 1420.15 2426.28 1423 2426.28 1425.85 2423.97 1428.16 2421.12 1428.16L2400.5 1428.16C2397.65 1428.16 2395.34 1425.85 2395.34 1423 2395.34 1420.15 2397.65 1417.84 2400.5 1417.84ZM2441.75 1417.84 2462.37 1417.84C2465.22 1417.84 2467.53 1420.15 2467.53 1423 2467.53 1425.85 2465.22 1428.16 2462.37 1428.16L2441.75 1428.16C2438.9 1428.16 2436.59 1425.85 2436.59 1423 2436.59 1420.15 2438.9 1417.84 2441.75 1417.84ZM2483 1417.84 2503.62 1417.84C2506.47 1417.84 2508.78 1420.15 2508.78 1423 2508.78 1425.85 2506.47 1428.16 2503.62 1428.16L2483 1428.16C2480.15 1428.16 2477.84 1425.85 2477.84 1423 2477.84 1420.15 2480.15 1417.84 2483 1417.84ZM2524.25 1417.84 2544.87 1417.84C2547.72 1417.84 2550.03 1420.15 2550.03 1423 2550.03 1425.85 2547.72 1428.16 2544.87 1428.16L2524.25 1428.16C2521.4 1428.16 2519.09 1425.85 2519.09 1423 2519.09 1420.15 2521.4 1417.84 2524.25 1417.84ZM2565.5 1417.84 2586.12 1417.84C2588.97 1417.84 2591.28 1420.15 2591.28 1423 2591.28 1425.85 2588.97 1428.16 2586.12 1428.16L2565.5 1428.16C2562.65 1428.16 2560.34 1425.85 2560.34 1423 2560.34 1420.15 2562.65 1417.84 2565.5 1417.84ZM2606.75 1417.84 2627.37 1417.84C2630.22 1417.84 2632.53 1420.15 2632.53 1423 2632.53 1425.85 2630.22 1428.16 2627.37 1428.16L2606.75 1428.16C2603.9 1428.16 2601.59 1425.85 2601.59 1423 2601.59 1420.15 2603.9 1417.84 2606.75 1417.84ZM2648 1417.84 2668.62 1417.84C2671.47 1417.84 2673.78 1420.15 2673.78 1423 2673.78 1425.85 2671.47 1428.16 2668.62 1428.16L2648 1428.16C2645.15 1428.16 2642.84 1425.85 2642.84 1423 2642.84 1420.15 2645.15 1417.84 2648 1417.84ZM2689.25 1417.84 2709.87 1417.84C2712.72 1417.84 2715.03 1420.15 2715.03 1423 2715.03 1425.85 2712.72 1428.16 2709.87 1428.16L2689.25 1428.16C2686.4 1428.16 2684.09 1425.85 2684.09 1423 2684.09 1420.15 2686.4 1417.84 2689.25 1417.84ZM2730.5 1417.84 2751.12 1417.84C2753.97 1417.84 2756.28 1420.15 2756.28 1423 2756.28 1425.85 2753.97 1428.16 2751.12 1428.16L2730.5 1428.16C2727.65 1428.16 2725.34 1425.85 2725.34 1423 2725.34 1420.15 2727.65 1417.84 2730.5 1417.84ZM2771.75 1417.84 2792.37 1417.84C2795.22 1417.84 2797.53 1420.15 2797.53 1423 2797.53 1425.85 2795.22 1428.16 2792.37 1428.16L2771.75 1428.16C2768.9 1428.16 2766.59 1425.85 2766.59 1423 2766.59 1420.15 2768.9 1417.84 2771.75 1417.84ZM2813 1417.84 2833.62 1417.84C2836.47 1417.84 2838.78 1420.15 2838.78 1423 2838.78 1425.85 2836.47 1428.16 2833.62 1428.16L2813 1428.16C2810.15 1428.16 2807.84 1425.85 2807.84 1423 2807.84 1420.15 2810.15 1417.84 2813 1417.84ZM2854.25 1417.84 2874.87 1417.84C2877.72 1417.84 2880.03 1420.15 2880.03 1423 2880.03 1425.85 2877.72 1428.16 2874.87 1428.16L2854.25 1428.16C2851.4 1428.16 2849.09 1425.85 2849.09 1423 2849.09 1420.15 2851.4 1417.84 2854.25 1417.84ZM2895.5 1417.84 2916.12 1417.84C2918.97 1417.84 2921.28 1420.15 2921.28 1423 2921.28 1425.85 2918.97 1428.16 2916.12 1428.16L2895.5 1428.16C2892.65 1428.16 2890.34 1425.85 2890.34 1423 2890.34 1420.15 2892.65 1417.84 2895.5 1417.84ZM2936.75 1417.84 2957.37 1417.84C2960.22 1417.84 2962.53 1420.15 2962.53 1423 2962.53 1425.85 2960.22 1428.16 2957.37 1428.16L2936.75 1428.16C2933.9 1428.16 2931.59 1425.85 2931.59 1423 2931.59 1420.15 2933.9 1417.84 2936.75 1417.84ZM2978 1417.84 2998.62 1417.84C3001.47 1417.84 3003.78 1420.15 3003.78 1423 3003.78 1425.85 3001.47 1428.16 2998.62 1428.16L2978 1428.16C2975.15 1428.16 2972.84 1425.85 2972.84 1423 2972.84 1420.15 2975.15 1417.84 2978 1417.84ZM3019.25 1417.84 3039.87 1417.84C3042.72 1417.84 3045.03 1420.15 3045.03 1423 3045.03 1425.85 3042.72 1428.16 3039.87 1428.16L3019.25 1428.16C3016.4 1428.16 3014.09 1425.85 3014.09 1423 3014.09 1420.15 3016.4 1417.84 3019.25 1417.84ZM3060.5 1417.84 3081.12 1417.84C3083.97 1417.84 3086.28 1420.15 3086.28 1423 3086.28 1425.85 3083.97 1428.16 3081.12 1428.16L3060.5 1428.16C3057.65 1428.16 3055.34 1425.85 3055.34 1423 3055.34 1420.15 3057.65 1417.84 3060.5 1417.84ZM3101.75 1417.84 3122.37 1417.84C3125.22 1417.84 3127.53 1420.15 3127.53 1423 3127.53 1425.85 3125.22 1428.16 3122.37 1428.16L3101.75 1428.16C3098.9 1428.16 3096.59 1425.85 3096.59 1423 3096.59 1420.15 3098.9 1417.84 3101.75 1417.84ZM3143 1417.84 3163.62 1417.84C3166.47 1417.84 3168.78 1420.15 3168.78 1423 3168.78 1425.85 3166.47 1428.16 3163.62 1428.16L3143 1428.16C3140.15 1428.16 3137.84 1425.85 3137.84 1423 3137.84 1420.15 3140.15 1417.84 3143 1417.84ZM3184.25 1417.84 3204.87 1417.84C3207.72 1417.84 3210.03 1420.15 3210.03 1423 3210.03 1425.85 3207.72 1428.16 3204.87 1428.16L3184.25 1428.16C3181.4 1428.16 3179.09 1425.85 3179.09 1423 3179.09 1420.15 3181.4 1417.84 3184.25 1417.84ZM3225.5 1417.84 3226.11 1417.84 3246.12 1417.84C3248.97 1417.84 3251.28 1420.15 3251.28 1423 3251.28 1425.85 3248.97 1428.16 3246.12 1428.16L3226.11 1428.16 3225.5 1428.16C3222.65 1428.16 3220.34 1425.85 3220.34 1423 3220.34 1420.15 3222.65 1417.84 3225.5 1417.84ZM3266.75 1417.84 3287.37 1417.84C3290.22 1417.84 3292.53 1420.15 3292.53 1423 3292.53 1425.85 3290.22 1428.16 3287.37 1428.16L3266.75 1428.16C3263.9 1428.16 3261.59 1425.85 3261.59 1423 3261.59 1420.15 3263.9 1417.84 3266.75 1417.84ZM3308 1417.84 3328.62 1417.84C3331.47 1417.84 3333.78 1420.15 3333.78 1423 3333.78 1425.85 3331.47 1428.16 3328.62 1428.16L3308 1428.16C3305.15 1428.16 3302.84 1425.85 3302.84 1423 3302.84 1420.15 3305.15 1417.84 3308 1417.84ZM3349.25 1417.84 3369.87 1417.84C3372.72 1417.84 3375.03 1420.15 3375.03 1423 3375.03 1425.85 3372.72 1428.16 3369.87 1428.16L3349.25 1428.16C3346.4 1428.16 3344.09 1425.85 3344.09 1423 3344.09 1420.15 3346.4 1417.84 3349.25 1417.84ZM3390.5 1417.84 3411.12 1417.84C3413.97 1417.84 3416.28 1420.15 3416.28 1423 3416.28 1425.85 3413.97 1428.16 3411.12 1428.16L3390.5 1428.16C3387.65 1428.16 3385.34 1425.85 3385.34 1423 3385.34 1420.15 3387.65 1417.84 3390.5 1417.84ZM3431.75 1417.84 3452.37 1417.84C3455.22 1417.84 3457.53 1420.15 3457.53 1423 3457.53 1425.85 3455.22 1428.16 3452.37 1428.16L3431.75 1428.16C3428.9 1428.16 3426.59 1425.85 3426.59 1423 3426.59 1420.15 3428.9 1417.84 3431.75 1417.84ZM3473 1417.84 3493.62 1417.84C3496.47 1417.84 3498.78 1420.15 3498.78 1423 3498.78 1425.85 3496.47 1428.16 3493.62 1428.16L3473 1428.16C3470.15 1428.16 3467.84 1425.85 3467.84 1423 3467.84 1420.15 3470.15 1417.84 3473 1417.84ZM3514.25 1417.84 3534.87 1417.84C3537.72 1417.84 3540.03 1420.15 3540.03 1423 3540.03 1425.85 3537.72 1428.16 3534.87 1428.16L3514.25 1428.16C3511.4 1428.16 3509.09 1425.85 3509.09 1423 3509.09 1420.15 3511.4 1417.84 3514.25 1417.84ZM3555.5 1417.84 3576.12 1417.84C3578.97 1417.84 3581.28 1420.15 3581.28 1423 3581.28 1425.85 3578.97 1428.16 3576.12 1428.16L3555.5 1428.16C3552.65 1428.16 3550.34 1425.85 3550.34 1423 3550.34 1420.15 3552.65 1417.84 3555.5 1417.84ZM3596.75 1417.84 3606.12 1417.84 3617.37 1417.84C3620.22 1417.84 3622.53 1420.15 3622.53 1423 3622.53 1425.85 3620.22 1428.16 3617.37 1428.16L3606.12 1428.16 3596.75 1428.16C3593.9 1428.16 3591.59 1425.85 3591.59 1423 3591.59 1420.15 3593.9 1417.84 3596.75 1417.84ZM3638 1417.84 3658.62 1417.84C3661.47 1417.84 3663.78 1420.15 3663.78 1423 3663.78 1425.85 3661.47 1428.16 3658.62 1428.16L3638 1428.16C3635.15 1428.16 3632.84 1425.85 3632.84 1423 3632.84 1420.15 3635.15 1417.84 3638 1417.84ZM3679.25 1417.84 3699.87 1417.84C3702.72 1417.84 3705.03 1420.15 3705.03 1423 3705.03 1425.85 3702.72 1428.16 3699.87 1428.16L3679.25 1428.16C3676.4 1428.16 3674.09 1425.85 3674.09 1423 3674.09 1420.15 3676.4 1417.84 3679.25 1417.84ZM3720.5 1417.84 3741.12 1417.84C3743.97 1417.84 3746.28 1420.15 3746.28 1423 3746.28 1425.85 3743.97 1428.16 3741.12 1428.16L3720.5 1428.16C3717.65 1428.16 3715.34 1425.85 3715.34 1423 3715.34 1420.15 3717.65 1417.84 3720.5 1417.84ZM3761.75 1417.84 3782.37 1417.84C3785.22 1417.84 3787.53 1420.15 3787.53 1423 3787.53 1425.85 3785.22 1428.16 3782.37 1428.16L3761.75 1428.16C3758.9 1428.16 3756.59 1425.85 3756.59 1423 3756.59 1420.15 3758.9 1417.84 3761.75 1417.84ZM3803 1417.84 3823.62 1417.84C3826.47 1417.84 3828.78 1420.15 3828.78 1423 3828.78 1425.85 3826.47 1428.16 3823.62 1428.16L3803 1428.16C3800.15 1428.16 3797.84 1425.85 3797.84 1423 3797.84 1420.15 3800.15 1417.84 3803 1417.84ZM3844.25 1417.84 3864.87 1417.84C3867.72 1417.84 3870.03 1420.15 3870.03 1423 3870.03 1425.85 3867.72 1428.16 3864.87 1428.16L3844.25 1428.16C3841.4 1428.16 3839.09 1425.85 3839.09 1423 3839.09 1420.15 3841.4 1417.84 3844.25 1417.84ZM3885.5 1417.84 3906.12 1417.84C3908.97 1417.84 3911.28 1420.15 3911.28 1423 3911.28 1425.85 3908.97 1428.16 3906.12 1428.16L3885.5 1428.16C3882.65 1428.16 3880.34 1425.85 3880.34 1423 3880.34 1420.15 3882.65 1417.84 3885.5 1417.84ZM3926.75 1417.84 3947.37 1417.84C3950.22 1417.84 3952.53 1420.15 3952.53 1423 3952.53 1425.85 3950.22 1428.16 3947.37 1428.16L3926.75 1428.16C3923.9 1428.16 3921.59 1425.85 3921.59 1423 3921.59 1420.15 3923.9 1417.84 3926.75 1417.84ZM3968 1417.84 3986 1417.84C3988.85 1417.84 3991.16 1420.15 3991.16 1423 3991.16 1425.85 3988.85 1428.16 3986 1428.16L3968 1428.16C3965.15 1428.16 3962.84 1425.85 3962.84 1423 3962.84 1420.15 3965.15 1417.84 3968 1417.84Z" fill="#FF0000" fill-rule="nonzero" fill-opacity="1"/></g><g><path d="M1328 1151.84 1348.62 1151.84C1351.47 1151.84 1353.78 1154.15 1353.78 1157 1353.78 1159.85 1351.47 1162.16 1348.62 1162.16L1328 1162.16C1325.15 1162.16 1322.84 1159.85 1322.84 1157 1322.84 1154.15 1325.15 1151.84 1328 1151.84ZM1369.25 1151.84 1389.87 1151.84C1392.72 1151.84 1395.03 1154.15 1395.03 1157 1395.03 1159.85 1392.72 1162.16 1389.87 1162.16L1369.25 1162.16C1366.4 1162.16 1364.09 1159.85 1364.09 1157 1364.09 1154.15 1366.4 1151.84 1369.25 1151.84ZM1410.5 1151.84 1431.12 1151.84C1433.97 1151.84 1436.28 1154.15 1436.28 1157 1436.28 1159.85 1433.97 1162.16 1431.12 1162.16L1410.5 1162.16C1407.65 1162.16 1405.34 1159.85 1405.34 1157 1405.34 1154.15 1407.65 1151.84 1410.5 1151.84ZM1451.75 1151.84 1472.37 1151.84C1475.22 1151.84 1477.53 1154.15 1477.53 1157 1477.53 1159.85 1475.22 1162.16 1472.37 1162.16L1451.75 1162.16C1448.9 1162.16 1446.59 1159.85 1446.59 1157 1446.59 1154.15 1448.9 1151.84 1451.75 1151.84ZM1493 1151.84 1513.62 1151.84C1516.47 1151.84 1518.78 1154.15 1518.78 1157 1518.78 1159.85 1516.47 1162.16 1513.62 1162.16L1493 1162.16C1490.15 1162.16 1487.84 1159.85 1487.84 1157 1487.84 1154.15 1490.15 1151.84 1493 1151.84ZM1534.25 1151.84 1554.87 1151.84C1557.72 1151.84 1560.03 1154.15 1560.03 1157 1560.03 1159.85 1557.72 1162.16 1554.87 1162.16L1534.25 1162.16C1531.4 1162.16 1529.09 1159.85 1529.09 1157 1529.09 1154.15 1531.4 1151.84 1534.25 1151.84ZM1575.5 1151.84 1596.12 1151.84C1598.97 1151.84 1601.28 1154.15 1601.28 1157 1601.28 1159.85 1598.97 1162.16 1596.12 1162.16L1575.5 1162.16C1572.65 1162.16 1570.34 1159.85 1570.34 1157 1570.34 1154.15 1572.65 1151.84 1575.5 1151.84ZM1616.75 1151.84 1637.37 1151.84C1640.22 1151.84 1642.53 1154.15 1642.53 1157 1642.53 1159.85 1640.22 1162.16 1637.37 1162.16L1616.75 1162.16C1613.9 1162.16 1611.59 1159.85 1611.59 1157 1611.59 1154.15 1613.9 1151.84 1616.75 1151.84ZM1658 1151.84 1678.62 1151.84C1681.47 1151.84 1683.78 1154.15 1683.78 1157 1683.78 1159.85 1681.47 1162.16 1678.62 1162.16L1658 1162.16C1655.15 1162.16 1652.84 1159.85 1652.84 1157 1652.84 1154.15 1655.15 1151.84 1658 1151.84ZM1699.25 1151.84 1707.06 1151.84 1719.87 1151.84C1722.72 1151.84 1725.03 1154.15 1725.03 1157 1725.03 1159.85 1722.72 1162.16 1719.87 1162.16L1707.06 1162.16 1699.25 1162.16C1696.4 1162.16 1694.09 1159.85 1694.09 1157 1694.09 1154.15 1696.4 1151.84 1699.25 1151.84ZM1740.5 1151.84 1761.12 1151.84C1763.97 1151.84 1766.28 1154.15 1766.28 1157 1766.28 1159.85 1763.97 1162.16 1761.12 1162.16L1740.5 1162.16C1737.65 1162.16 1735.34 1159.85 1735.34 1157 1735.34 1154.15 1737.65 1151.84 1740.5 1151.84ZM1781.75 1151.84 1802.37 1151.84C1805.22 1151.84 1807.53 1154.15 1807.53 1157 1807.53 1159.85 1805.22 1162.16 1802.37 1162.16L1781.75 1162.16C1778.9 1162.16 1776.59 1159.85 1776.59 1157 1776.59 1154.15 1778.9 1151.84 1781.75 1151.84ZM1823 1151.84 1843.62 1151.84C1846.47 1151.84 1848.78 1154.15 1848.78 1157 1848.78 1159.85 1846.47 1162.16 1843.62 1162.16L1823 1162.16C1820.15 1162.16 1817.84 1159.85 1817.84 1157 1817.84 1154.15 1820.15 1151.84 1823 1151.84ZM1864.25 1151.84 1884.87 1151.84C1887.72 1151.84 1890.03 1154.15 1890.03 1157 1890.03 1159.85 1887.72 1162.16 1884.87 1162.16L1864.25 1162.16C1861.4 1162.16 1859.09 1159.85 1859.09 1157 1859.09 1154.15 1861.4 1151.84 1864.25 1151.84ZM1905.5 1151.84 1926.12 1151.84C1928.97 1151.84 1931.28 1154.15 1931.28 1157 1931.28 1159.85 1928.97 1162.16 1926.12 1162.16L1905.5 1162.16C1902.65 1162.16 1900.34 1159.85 1900.34 1157 1900.34 1154.15 1902.65 1151.84 1905.5 1151.84ZM1946.75 1151.84 1967.37 1151.84C1970.22 1151.84 1972.53 1154.15 1972.53 1157 1972.53 1159.85 1970.22 1162.16 1967.37 1162.16L1946.75 1162.16C1943.9 1162.16 1941.59 1159.85 1941.59 1157 1941.59 1154.15 1943.9 1151.84 1946.75 1151.84ZM1988 1151.84 2008.62 1151.84C2011.47 1151.84 2013.78 1154.15 2013.78 1157 2013.78 1159.85 2011.47 1162.16 2008.62 1162.16L1988 1162.16C1985.15 1162.16 1982.84 1159.85 1982.84 1157 1982.84 1154.15 1985.15 1151.84 1988 1151.84ZM2029.25 1151.84 2049.87 1151.84C2052.72 1151.84 2055.03 1154.15 2055.03 1157 2055.03 1159.85 2052.72 1162.16 2049.87 1162.16L2029.25 1162.16C2026.4 1162.16 2024.09 1159.85 2024.09 1157 2024.09 1154.15 2026.4 1151.84 2029.25 1151.84ZM2070.5 1151.84 2087.07 1151.84 2091.12 1151.84C2093.97 1151.84 2096.28 1154.15 2096.28 1157 2096.28 1159.85 2093.97 1162.16 2091.12 1162.16L2087.07 1162.16 2070.5 1162.16C2067.65 1162.16 2065.34 1159.85 2065.34 1157 2065.34 1154.15 2067.65 1151.84 2070.5 1151.84ZM2111.75 1151.84 2132.37 1151.84C2135.22 1151.84 2137.53 1154.15 2137.53 1157 2137.53 1159.85 2135.22 1162.16 2132.37 1162.16L2111.75 1162.16C2108.9 1162.16 2106.59 1159.85 2106.59 1157 2106.59 1154.15 2108.9 1151.84 2111.75 1151.84ZM2153 1151.84 2173.62 1151.84C2176.47 1151.84 2178.78 1154.15 2178.78 1157 2178.78 1159.85 2176.47 1162.16 2173.62 1162.16L2153 1162.16C2150.15 1162.16 2147.84 1159.85 2147.84 1157 2147.84 1154.15 2150.15 1151.84 2153 1151.84ZM2194.25 1151.84 2214.87 1151.84C2217.72 1151.84 2220.03 1154.15 2220.03 1157 2220.03 1159.85 2217.72 1162.16 2214.87 1162.16L2194.25 1162.16C2191.4 1162.16 2189.09 1159.85 2189.09 1157 2189.09 1154.15 2191.4 1151.84 2194.25 1151.84ZM2235.5 1151.84 2256.12 1151.84C2258.97 1151.84 2261.28 1154.15 2261.28 1157 2261.28 1159.85 2258.97 1162.16 2256.12 1162.16L2235.5 1162.16C2232.65 1162.16 2230.34 1159.85 2230.34 1157 2230.34 1154.15 2232.65 1151.84 2235.5 1151.84ZM2276.75 1151.84 2297.37 1151.84C2300.22 1151.84 2302.53 1154.15 2302.53 1157 2302.53 1159.85 2300.22 1162.16 2297.37 1162.16L2276.75 1162.16C2273.9 1162.16 2271.59 1159.85 2271.59 1157 2271.59 1154.15 2273.9 1151.84 2276.75 1151.84ZM2318 1151.84 2338.62 1151.84C2341.47 1151.84 2343.78 1154.15 2343.78 1157 2343.78 1159.85 2341.47 1162.16 2338.62 1162.16L2318 1162.16C2315.15 1162.16 2312.84 1159.85 2312.84 1157 2312.84 1154.15 2315.15 1151.84 2318 1151.84ZM2359.25 1151.84 2379.87 1151.84C2382.72 1151.84 2385.03 1154.15 2385.03 1157 2385.03 1159.85 2382.72 1162.16 2379.87 1162.16L2359.25 1162.16C2356.4 1162.16 2354.09 1159.85 2354.09 1157 2354.09 1154.15 2356.4 1151.84 2359.25 1151.84ZM2400.5 1151.84 2421.12 1151.84C2423.97 1151.84 2426.28 1154.15 2426.28 1157 2426.28 1159.85 2423.97 1162.16 2421.12 1162.16L2400.5 1162.16C2397.65 1162.16 2395.34 1159.85 2395.34 1157 2395.34 1154.15 2397.65 1151.84 2400.5 1151.84ZM2441.75 1151.84 2462.37 1151.84C2465.22 1151.84 2467.53 1154.15 2467.53 1157 2467.53 1159.85 2465.22 1162.16 2462.37 1162.16L2441.75 1162.16C2438.9 1162.16 2436.59 1159.85 2436.59 1157 2436.59 1154.15 2438.9 1151.84 2441.75 1151.84ZM2483 1151.84 2503.62 1151.84C2506.47 1151.84 2508.78 1154.15 2508.78 1157 2508.78 1159.85 2506.47 1162.16 2503.62 1162.16L2483 1162.16C2480.15 1162.16 2477.84 1159.85 2477.84 1157 2477.84 1154.15 2480.15 1151.84 2483 1151.84ZM2524.25 1151.84 2544.87 1151.84C2547.72 1151.84 2550.03 1154.15 2550.03 1157 2550.03 1159.85 2547.72 1162.16 2544.87 1162.16L2524.25 1162.16C2521.4 1162.16 2519.09 1159.85 2519.09 1157 2519.09 1154.15 2521.4 1151.84 2524.25 1151.84ZM2565.5 1151.84 2586.12 1151.84C2588.97 1151.84 2591.28 1154.15 2591.28 1157 2591.28 1159.85 2588.97 1162.16 2586.12 1162.16L2565.5 1162.16C2562.65 1162.16 2560.34 1159.85 2560.34 1157 2560.34 1154.15 2562.65 1151.84 2565.5 1151.84ZM2606.75 1151.84 2627.37 1151.84C2630.22 1151.84 2632.53 1154.15 2632.53 1157 2632.53 1159.85 2630.22 1162.16 2627.37 1162.16L2606.75 1162.16C2603.9 1162.16 2601.59 1159.85 2601.59 1157 2601.59 1154.15 2603.9 1151.84 2606.75 1151.84ZM2648 1151.84 2668.62 1151.84C2671.47 1151.84 2673.78 1154.15 2673.78 1157 2673.78 1159.85 2671.47 1162.16 2668.62 1162.16L2648 1162.16C2645.15 1162.16 2642.84 1159.85 2642.84 1157 2642.84 1154.15 2645.15 1151.84 2648 1151.84ZM2689.25 1151.84 2709.87 1151.84C2712.72 1151.84 2715.03 1154.15 2715.03 1157 2715.03 1159.85 2712.72 1162.16 2709.87 1162.16L2689.25 1162.16C2686.4 1162.16 2684.09 1159.85 2684.09 1157 2684.09 1154.15 2686.4 1151.84 2689.25 1151.84ZM2730.5 1151.84 2751.12 1151.84C2753.97 1151.84 2756.28 1154.15 2756.28 1157 2756.28 1159.85 2753.97 1162.16 2751.12 1162.16L2730.5 1162.16C2727.65 1162.16 2725.34 1159.85 2725.34 1157 2725.34 1154.15 2727.65 1151.84 2730.5 1151.84ZM2771.75 1151.84 2792.37 1151.84C2795.22 1151.84 2797.53 1154.15 2797.53 1157 2797.53 1159.85 2795.22 1162.16 2792.37 1162.16L2771.75 1162.16C2768.9 1162.16 2766.59 1159.85 2766.59 1157 2766.59 1154.15 2768.9 1151.84 2771.75 1151.84ZM2813 1151.84 2833.62 1151.84C2836.47 1151.84 2838.78 1154.15 2838.78 1157 2838.78 1159.85 2836.47 1162.16 2833.62 1162.16L2813 1162.16C2810.15 1162.16 2807.84 1159.85 2807.84 1157 2807.84 1154.15 2810.15 1151.84 2813 1151.84ZM2854.25 1151.84 2874.87 1151.84C2877.72 1151.84 2880.03 1154.15 2880.03 1157 2880.03 1159.85 2877.72 1162.16 2874.87 1162.16L2854.25 1162.16C2851.4 1162.16 2849.09 1159.85 2849.09 1157 2849.09 1154.15 2851.4 1151.84 2854.25 1151.84ZM2895.5 1151.84 2916.12 1151.84C2918.97 1151.84 2921.28 1154.15 2921.28 1157 2921.28 1159.85 2918.97 1162.16 2916.12 1162.16L2895.5 1162.16C2892.65 1162.16 2890.34 1159.85 2890.34 1157 2890.34 1154.15 2892.65 1151.84 2895.5 1151.84ZM2936.75 1151.84 2957.37 1151.84C2960.22 1151.84 2962.53 1154.15 2962.53 1157 2962.53 1159.85 2960.22 1162.16 2957.37 1162.16L2936.75 1162.16C2933.9 1162.16 2931.59 1159.85 2931.59 1157 2931.59 1154.15 2933.9 1151.84 2936.75 1151.84ZM2978 1151.84 2998.62 1151.84C3001.47 1151.84 3003.78 1154.15 3003.78 1157 3003.78 1159.85 3001.47 1162.16 2998.62 1162.16L2978 1162.16C2975.15 1162.16 2972.84 1159.85 2972.84 1157 2972.84 1154.15 2975.15 1151.84 2978 1151.84ZM3019.25 1151.84 3039.87 1151.84C3042.72 1151.84 3045.03 1154.15 3045.03 1157 3045.03 1159.85 3042.72 1162.16 3039.87 1162.16L3019.25 1162.16C3016.4 1162.16 3014.09 1159.85 3014.09 1157 3014.09 1154.15 3016.4 1151.84 3019.25 1151.84ZM3060.5 1151.84 3081.12 1151.84C3083.97 1151.84 3086.28 1154.15 3086.28 1157 3086.28 1159.85 3083.97 1162.16 3081.12 1162.16L3060.5 1162.16C3057.65 1162.16 3055.34 1159.85 3055.34 1157 3055.34 1154.15 3057.65 1151.84 3060.5 1151.84ZM3101.75 1151.84 3122.37 1151.84C3125.22 1151.84 3127.53 1154.15 3127.53 1157 3127.53 1159.85 3125.22 1162.16 3122.37 1162.16L3101.75 1162.16C3098.9 1162.16 3096.59 1159.85 3096.59 1157 3096.59 1154.15 3098.9 1151.84 3101.75 1151.84ZM3143 1151.84 3163.62 1151.84C3166.47 1151.84 3168.78 1154.15 3168.78 1157 3168.78 1159.85 3166.47 1162.16 3163.62 1162.16L3143 1162.16C3140.15 1162.16 3137.84 1159.85 3137.84 1157 3137.84 1154.15 3140.15 1151.84 3143 1151.84ZM3184.25 1151.84 3204.87 1151.84C3207.72 1151.84 3210.03 1154.15 3210.03 1157 3210.03 1159.85 3207.72 1162.16 3204.87 1162.16L3184.25 1162.16C3181.4 1162.16 3179.09 1159.85 3179.09 1157 3179.09 1154.15 3181.4 1151.84 3184.25 1151.84ZM3225.5 1151.84 3226.11 1151.84 3246.12 1151.84C3248.97 1151.84 3251.28 1154.15 3251.28 1157 3251.28 1159.85 3248.97 1162.16 3246.12 1162.16L3226.11 1162.16 3225.5 1162.16C3222.65 1162.16 3220.34 1159.85 3220.34 1157 3220.34 1154.15 3222.65 1151.84 3225.5 1151.84ZM3266.75 1151.84 3287.37 1151.84C3290.22 1151.84 3292.53 1154.15 3292.53 1157 3292.53 1159.85 3290.22 1162.16 3287.37 1162.16L3266.75 1162.16C3263.9 1162.16 3261.59 1159.85 3261.59 1157 3261.59 1154.15 3263.9 1151.84 3266.75 1151.84ZM3308 1151.84 3328.62 1151.84C3331.47 1151.84 3333.78 1154.15 3333.78 1157 3333.78 1159.85 3331.47 1162.16 3328.62 1162.16L3308 1162.16C3305.15 1162.16 3302.84 1159.85 3302.84 1157 3302.84 1154.15 3305.15 1151.84 3308 1151.84ZM3349.25 1151.84 3369.87 1151.84C3372.72 1151.84 3375.03 1154.15 3375.03 1157 3375.03 1159.85 3372.72 1162.16 3369.87 1162.16L3349.25 1162.16C3346.4 1162.16 3344.09 1159.85 3344.09 1157 3344.09 1154.15 3346.4 1151.84 3349.25 1151.84ZM3390.5 1151.84 3411.12 1151.84C3413.97 1151.84 3416.28 1154.15 3416.28 1157 3416.28 1159.85 3413.97 1162.16 3411.12 1162.16L3390.5 1162.16C3387.65 1162.16 3385.34 1159.85 3385.34 1157 3385.34 1154.15 3387.65 1151.84 3390.5 1151.84ZM3431.75 1151.84 3452.37 1151.84C3455.22 1151.84 3457.53 1154.15 3457.53 1157 3457.53 1159.85 3455.22 1162.16 3452.37 1162.16L3431.75 1162.16C3428.9 1162.16 3426.59 1159.85 3426.59 1157 3426.59 1154.15 3428.9 1151.84 3431.75 1151.84ZM3473 1151.84 3493.62 1151.84C3496.47 1151.84 3498.78 1154.15 3498.78 1157 3498.78 1159.85 3496.47 1162.16 3493.62 1162.16L3473 1162.16C3470.15 1162.16 3467.84 1159.85 3467.84 1157 3467.84 1154.15 3470.15 1151.84 3473 1151.84ZM3514.25 1151.84 3534.87 1151.84C3537.72 1151.84 3540.03 1154.15 3540.03 1157 3540.03 1159.85 3537.72 1162.16 3534.87 1162.16L3514.25 1162.16C3511.4 1162.16 3509.09 1159.85 3509.09 1157 3509.09 1154.15 3511.4 1151.84 3514.25 1151.84ZM3555.5 1151.84 3576.12 1151.84C3578.97 1151.84 3581.28 1154.15 3581.28 1157 3581.28 1159.85 3578.97 1162.16 3576.12 1162.16L3555.5 1162.16C3552.65 1162.16 3550.34 1159.85 3550.34 1157 3550.34 1154.15 3552.65 1151.84 3555.5 1151.84ZM3596.75 1151.84 3606.12 1151.84 3617.37 1151.84C3620.22 1151.84 3622.53 1154.15 3622.53 1157 3622.53 1159.85 3620.22 1162.16 3617.37 1162.16L3606.12 1162.16 3596.75 1162.16C3593.9 1162.16 3591.59 1159.85 3591.59 1157 3591.59 1154.15 3593.9 1151.84 3596.75 1151.84ZM3638 1151.84 3658.62 1151.84C3661.47 1151.84 3663.78 1154.15 3663.78 1157 3663.78 1159.85 3661.47 1162.16 3658.62 1162.16L3638 1162.16C3635.15 1162.16 3632.84 1159.85 3632.84 1157 3632.84 1154.15 3635.15 1151.84 3638 1151.84ZM3679.25 1151.84 3699.87 1151.84C3702.72 1151.84 3705.03 1154.15 3705.03 1157 3705.03 1159.85 3702.72 1162.16 3699.87 1162.16L3679.25 1162.16C3676.4 1162.16 3674.09 1159.85 3674.09 1157 3674.09 1154.15 3676.4 1151.84 3679.25 1151.84ZM3720.5 1151.84 3741.12 1151.84C3743.97 1151.84 3746.28 1154.15 3746.28 1157 3746.28 1159.85 3743.97 1162.16 3741.12 1162.16L3720.5 1162.16C3717.65 1162.16 3715.34 1159.85 3715.34 1157 3715.34 1154.15 3717.65 1151.84 3720.5 1151.84ZM3761.75 1151.84 3782.37 1151.84C3785.22 1151.84 3787.53 1154.15 3787.53 1157 3787.53 1159.85 3785.22 1162.16 3782.37 1162.16L3761.75 1162.16C3758.9 1162.16 3756.59 1159.85 3756.59 1157 3756.59 1154.15 3758.9 1151.84 3761.75 1151.84ZM3803 1151.84 3823.62 1151.84C3826.47 1151.84 3828.78 1154.15 3828.78 1157 3828.78 1159.85 3826.47 1162.16 3823.62 1162.16L3803 1162.16C3800.15 1162.16 3797.84 1159.85 3797.84 1157 3797.84 1154.15 3800.15 1151.84 3803 1151.84ZM3844.25 1151.84 3864.87 1151.84C3867.72 1151.84 3870.03 1154.15 3870.03 1157 3870.03 1159.85 3867.72 1162.16 3864.87 1162.16L3844.25 1162.16C3841.4 1162.16 3839.09 1159.85 3839.09 1157 3839.09 1154.15 3841.4 1151.84 3844.25 1151.84ZM3885.5 1151.84 3906.12 1151.84C3908.97 1151.84 3911.28 1154.15 3911.28 1157 3911.28 1159.85 3908.97 1162.16 3906.12 1162.16L3885.5 1162.16C3882.65 1162.16 3880.34 1159.85 3880.34 1157 3880.34 1154.15 3882.65 1151.84 3885.5 1151.84ZM3926.75 1151.84 3947.37 1151.84C3950.22 1151.84 3952.53 1154.15 3952.53 1157 3952.53 1159.85 3950.22 1162.16 3947.37 1162.16L3926.75 1162.16C3923.9 1162.16 3921.59 1159.85 3921.59 1157 3921.59 1154.15 3923.9 1151.84 3926.75 1151.84ZM3968 1151.84 3986 1151.84C3988.85 1151.84 3991.16 1154.15 3991.16 1157 3991.16 1159.85 3988.85 1162.16 3986 1162.16L3968 1162.16C3965.15 1162.16 3962.84 1159.85 3962.84 1157 3962.84 1154.15 3965.15 1151.84 3968 1151.84Z" fill="#00B050" fill-rule="nonzero" fill-opacity="1"/></g><g><text fill="#595959" fill-opacity="1" font-family="Calibri,Calibri_MSFontService,sans-serif" font-style="normal" font-variant="normal" font-weight="400" font-stretch="normal" font-size="41" text-anchor="start" direction="ltr" writing-mode="lr-tb" unicode-bidi="normal" text-decoration="none" transform="matrix(1 0 0 1 1078.6 2362)">0</text></g><g><text fill="#595959" fill-opacity="1" font-family="Calibri,Calibri_MSFontService,sans-serif" font-style="normal" font-variant="normal" font-weight="400" font-stretch="normal" font-size="41" text-anchor="start" direction="ltr" writing-mode="lr-tb" unicode-bidi="normal" text-decoration="none" transform="matrix(1 0 0 1 1047.29 2229)">0.1</text></g><g><text fill="#595959" fill-opacity="1" font-family="Calibri,Calibri_MSFontService,sans-serif" font-style="normal" font-variant="normal" font-weight="400" font-stretch="normal" font-size="41" text-anchor="start" direction="ltr" writing-mode="lr-tb" unicode-bidi="normal" text-decoration="none" transform="matrix(1 0 0 1 1047.29 2096)">0.2</text></g><g><text fill="#595959" fill-opacity="1" font-family="Calibri,Calibri_MSFontService,sans-serif" font-style="normal" font-variant="normal" font-weight="400" font-stretch="normal" font-size="41" text-anchor="start" direction="ltr" writing-mode="lr-tb" unicode-bidi="normal" text-decoration="none" transform="matrix(1 0 0 1 1047.29 1964)">0.3</text></g><g><text fill="#595959" fill-opacity="1" font-family="Calibri,Calibri_MSFontService,sans-serif" font-style="normal" font-variant="normal" font-weight="400" font-stretch="normal" font-size="41" text-anchor="start" direction="ltr" writing-mode="lr-tb" unicode-bidi="normal" text-decoration="none" transform="matrix(1 0 0 1 1047.29 1831)">0.4</text></g><g><text fill="#595959" fill-opacity="1" font-family="Calibri,Calibri_MSFontService,sans-serif" font-style="normal" font-variant="normal" font-weight="400" font-stretch="normal" font-size="41" text-anchor="start" direction="ltr" writing-mode="lr-tb" unicode-bidi="normal" text-decoration="none" transform="matrix(1 0 0 1 1047.29 1698)">0.5</text></g><g><text fill="#595959" fill-opacity="1" font-family="Calibri,Calibri_MSFontService,sans-serif" font-style="normal" font-variant="normal" font-weight="400" font-stretch="normal" font-size="41" text-anchor="start" direction="ltr" writing-mode="lr-tb" unicode-bidi="normal" text-decoration="none" transform="matrix(1 0 0 1 1047.29 1566)">0.6</text></g><g><text fill="#595959" fill-opacity="1" font-family="Calibri,Calibri_MSFontService,sans-serif" font-style="normal" font-variant="normal" font-weight="400" font-stretch="normal" font-size="41" text-anchor="start" direction="ltr" writing-mode="lr-tb" unicode-bidi="normal" text-decoration="none" transform="matrix(1 0 0 1 1047.29 1433)">0.7</text></g><g><text fill="#595959" fill-opacity="1" font-family="Calibri,Calibri_MSFontService,sans-serif" font-style="normal" font-variant="normal" font-weight="400" font-stretch="normal" font-size="41" text-anchor="start" direction="ltr" writing-mode="lr-tb" unicode-bidi="normal" text-decoration="none" transform="matrix(1 0 0 1 1047.29 1301)">0.8</text></g><g><text fill="#595959" fill-opacity="1" font-family="Calibri,Calibri_MSFontService,sans-serif" font-style="normal" font-variant="normal" font-weight="400" font-stretch="normal" font-size="41" text-anchor="start" direction="ltr" writing-mode="lr-tb" unicode-bidi="normal" text-decoration="none" transform="matrix(1 0 0 1 1047.29 1168)">0.9</text></g><g><text fill="#595959" fill-opacity="1" font-family="Calibri,Calibri_MSFontService,sans-serif" font-style="normal" font-variant="normal" font-weight="400" font-stretch="normal" font-size="41" text-anchor="start" direction="ltr" writing-mode="lr-tb" unicode-bidi="normal" text-decoration="none" transform="matrix(1 0 0 1 1078.6 1035)">1</text></g><g><text fill="#595959" fill-opacity="1" font-family="Calibri,Calibri_MSFontService,sans-serif" font-style="normal" font-variant="normal" font-weight="400" font-stretch="normal" font-size="41" text-anchor="start" direction="ltr" writing-mode="lr-tb" unicode-bidi="normal" text-decoration="none" transform="matrix(1 0 0 1 1252.08 2416)">Sprint 10</text></g><g><text fill="#595959" fill-opacity="1" font-family="Calibri,Calibri_MSFontService,sans-serif" font-style="normal" font-variant="normal" font-weight="400" font-stretch="normal" font-size="41" text-anchor="start" direction="ltr" writing-mode="lr-tb" unicode-bidi="normal" text-decoration="none" transform="matrix(1 0 0 1 1631.87 2416)">Sprint 11</text></g><g><text fill="#595959" fill-opacity="1" font-family="Calibri,Calibri_MSFontService,sans-serif" font-style="normal" font-variant="normal" font-weight="400" font-stretch="normal" font-size="41" text-anchor="start" direction="ltr" writing-mode="lr-tb" unicode-bidi="normal" text-decoration="none" transform="matrix(1 0 0 1 2011.66 2416)">Sprint 12</text></g><g><text fill="#595959" fill-opacity="1" font-family="Calibri,Calibri_MSFontService,sans-serif" font-style="normal" font-variant="normal" font-weight="400" font-stretch="normal" font-size="41" text-anchor="start" direction="ltr" writing-mode="lr-tb" unicode-bidi="normal" text-decoration="none" transform="matrix(1 0 0 1 2391.44 2416)">Sprint 13</text></g><g><text fill="#595959" fill-opacity="1" font-family="Calibri,Calibri_MSFontService,sans-serif" font-style="normal" font-variant="normal" font-weight="400" font-stretch="normal" font-size="41" text-anchor="start" direction="ltr" writing-mode="lr-tb" unicode-bidi="normal" text-decoration="none" transform="matrix(1 0 0 1 2771.23 2416)">Sprint 14</text></g><g><text fill="#595959" fill-opacity="1" font-family="Calibri,Calibri_MSFontService,sans-serif" font-style="normal" font-variant="normal" font-weight="400" font-stretch="normal" font-size="41" text-anchor="start" direction="ltr" writing-mode="lr-tb" unicode-bidi="normal" text-decoration="none" transform="matrix(1 0 0 1 3151.02 2416)">Sprint 15</text></g><g><text fill="#595959" fill-opacity="1" font-family="Calibri,Calibri_MSFontService,sans-serif" font-style="normal" font-variant="normal" font-weight="400" font-stretch="normal" font-size="41" text-anchor="start" direction="ltr" writing-mode="lr-tb" unicode-bidi="normal" text-decoration="none" transform="matrix(1 0 0 1 3530.81 2416)">Sprint 16</text></g><g><text fill="#595959" fill-opacity="1" font-family="Calibri,Calibri_MSFontService,sans-serif" font-style="normal" font-variant="normal" font-weight="400" font-stretch="normal" font-size="41" text-anchor="start" direction="ltr" writing-mode="lr-tb" unicode-bidi="normal" text-decoration="none" transform="matrix(1 0 0 1 3910.59 2416)">Sprint 17</text></g><g><text fill="#595959" fill-opacity="1" font-family="Calibri,Calibri_MSFontService,sans-serif" font-style="normal" font-variant="normal" font-weight="400" font-stretch="normal" font-size="64" text-anchor="start" direction="ltr" writing-mode="lr-tb" unicode-bidi="normal" text-decoration="none" transform="matrix(1 0 0 1 2738.21 950)">BC SC</text></g><g><path d="M1489 2496 1604 2496" stroke="#4F81BD" stroke-width="10.3125" stroke-linecap="round" stroke-linejoin="round" stroke-miterlimit="10" stroke-opacity="1" fill="none" fill-rule="evenodd"/></g><g><text fill="#595959" fill-opacity="1" font-family="Calibri,Calibri_MSFontService,sans-serif" font-style="normal" font-variant="normal" font-weight="400" font-stretch="normal" font-size="41" text-anchor="start" direction="ltr" writing-mode="lr-tb" unicode-bidi="normal" text-decoration="none" transform="matrix(1 0 0 1 1617.07 2506)">BC</text></g><g><path d="M1745 2496 1860 2496" stroke="#9BBB59" stroke-width="10.3125" stroke-linecap="round" stroke-linejoin="round" stroke-miterlimit="10" stroke-opacity="1" fill="none" fill-rule="evenodd"/></g><g><text fill="#595959" fill-opacity="1" font-family="Calibri,Calibri_MSFontService,sans-serif" font-style="normal" font-variant="normal" font-weight="400" font-stretch="normal" font-size="41" text-anchor="start" direction="ltr" writing-mode="lr-tb" unicode-bidi="normal" text-decoration="none" transform="matrix(1 0 0 1 1872.92 2506)">SC</text></g><g><path d="M1997 2490.84 2069.19 2490.84C2072.04 2490.84 2074.34 2493.15 2074.34 2496 2074.34 2498.85 2072.04 2501.16 2069.19 2501.16L1997 2501.16C1994.15 2501.16 1991.84 2498.85 1991.84 2496 1991.84 2493.15 1994.15 2490.84 1997 2490.84ZM2110.44 2490.84 2113 2490.84C2115.85 2490.84 2118.16 2493.15 2118.16 2496 2118.16 2498.85 2115.85 2501.16 2113 2501.16L2110.44 2501.16C2107.59 2501.16 2105.28 2498.85 2105.28 2496 2105.28 2493.15 2107.59 2490.84 2110.44 2490.84Z" fill="#FF0000" fill-rule="nonzero" fill-opacity="1"/></g><g><text fill="#595959" fill-opacity="1" font-family="Calibri,Calibri_MSFontService,sans-serif" font-style="normal" font-variant="normal" font-weight="400" font-stretch="normal" font-size="41" text-anchor="start" direction="ltr" writing-mode="lr-tb" unicode-bidi="normal" text-decoration="none" transform="matrix(1 0 0 1 2125.29 2506)">Soglia acc. BC (≥60%)</text></g><g><path d="M2562 2490.84 2634.19 2490.84C2637.04 2490.84 2639.34 2493.15 2639.34 2496 2639.34 2498.85 2637.04 2501.16 2634.19 2501.16L2562 2501.16C2559.15 2501.16 2556.84 2498.85 2556.84 2496 2556.84 2493.15 2559.15 2490.84 2562 2490.84ZM2675.44 2490.84 2677 2490.84C2679.85 2490.84 2682.16 2493.15 2682.16 2496 2682.16 2498.85 2679.85 2501.16 2677 2501.16L2675.44 2501.16C2672.59 2501.16 2670.28 2498.85 2670.28 2496 2670.28 2493.15 2672.59 2490.84 2675.44 2490.84Z" fill="#00B050" fill-rule="nonzero" fill-opacity="1"/></g><g><text fill="#595959" fill-opacity="1" font-family="Calibri,Calibri_MSFontService,sans-serif" font-style="normal" font-variant="normal" font-weight="400" font-stretch="normal" font-size="41" text-anchor="start" direction="ltr" writing-mode="lr-tb" unicode-bidi="normal" text-decoration="none" transform="matrix(1 0 0 1 2689.81 2506)">Soglia ott. BC (≥80%)</text></g><g><path d="M3121 2490.84 3141.62 2490.84C3144.47 2490.84 3146.78 2493.15 3146.78 2496 3146.78 2498.85 3144.47 2501.16 3141.62 2501.16L3121 2501.16C3118.15 2501.16 3115.84 2498.85 3115.84 2496 3115.84 2493.15 3118.15 2490.84 3121 2490.84ZM3162.25 2490.84 3182.88 2490.84C3185.72 2490.84 3188.03 2493.15 3188.03 2496 3188.03 2498.85 3185.72 2501.16 3182.88 2501.16L3162.25 2501.16C3159.4 2501.16 3157.09 2498.85 3157.09 2496 3157.09 2493.15 3159.4 2490.84 3162.25 2490.84ZM3203.5 2490.84 3224.12 2490.84C3226.97 2490.84 3229.28 2493.15 3229.28 2496 3229.28 2498.85 3226.97 2501.16 3224.12 2501.16L3203.5 2501.16C3200.65 2501.16 3198.34 2498.85 3198.34 2496 3198.34 2493.15 3200.65 2490.84 3203.5 2490.84Z" fill="#FF0000" fill-rule="nonzero" fill-opacity="1"/></g><g><text fill="#595959" fill-opacity="1" font-family="Calibri,Calibri_MSFontService,sans-serif" font-style="normal" font-variant="normal" font-weight="400" font-stretch="normal" font-size="41" text-anchor="start" direction="ltr" writing-mode="lr-tb" unicode-bidi="normal" text-decoration="none" transform="matrix(1 0 0 1 3249.09 2506)">Soglia acc. SC (≥70%)</text></g><g><path d="M3682 2490.84 3702.62 2490.84C3705.47 2490.84 3707.78 2493.15 3707.78 2496 3707.78 2498.85 3705.47 2501.16 3702.62 2501.16L3682 2501.16C3679.15 2501.16 3676.84 2498.85 3676.84 2496 3676.84 2493.15 3679.15 2490.84 3682 2490.84ZM3723.25 2490.84 3743.88 2490.84C3746.72 2490.84 3749.03 2493.15 3749.03 2496 3749.03 2498.85 3746.72 2501.16 3743.88 2501.16L3723.25 2501.16C3720.4 2501.16 3718.09 2498.85 3718.09 2496 3718.09 2493.15 3720.4 2490.84 3723.25 2490.84ZM3764.5 2490.84 3785.12 2490.84C3787.97 2490.84 3790.28 2493.15 3790.28 2496 3790.28 2498.85 3787.97 2501.16 3785.12 2501.16L3764.5 2501.16C3761.65 2501.16 3759.34 2498.85 3759.34 2496 3759.34 2493.15 3761.65 2490.84 3764.5 2490.84Z" fill="#00B050" fill-rule="nonzero" fill-opacity="1"/></g><g><text fill="#595959" fill-opacity="1" font-family="Calibri,Calibri_MSFontService,sans-serif" font-style="normal" font-variant="normal" font-weight="400" font-stretch="normal" font-size="41" text-anchor="start" direction="ltr" writing-mode="lr-tb" unicode-bidi="normal" text-decoration="none" transform="matrix(1 0 0 1 3810.12 2506)">Soglia ott. SC (≥90%)</text></g><rect x="1018.5" y="855.5" width="3588" height="1707" stroke="#D9D9D9" stroke-width="3.4375" stroke-linecap="butt" stroke-linejoin="round" stroke-miterlimit="10" stroke-opacity="1" fill="none"/></g></g></svg>