<svg width="3607" height="2100" xmlns="http://www.w3.org/2000/svg" xmlns:xlink="http://www.w3.org/1999/xlink" xml:space="preserve" overflow="hidden"><defs><clipPath id="clip0"><rect x="1164" y="540" width="3607" height="2100"/></clipPath><clipPath id="clip1"><rect x="1164" y="540" width="3607" height="2100"/></clipPath></defs><g clip-path="url(#clip0)" transform="translate(-1164 -540)"><g clip-path="url(#clip1)"><rect x="1168" y="542" width="3599" height="2095" fill="#FFFFFF" fill-opacity="1"/><g><path d="M1408.5 2481.5 4716.5 2481.5M1408.5 2186.57 4716.5 2186.57M1408.5 1596.55 4716.5 1596.55M1408.5 1301.54 4716.5 1301.54M1408.5 1006.53 4716.5 1006.53M1408.5 711.5 4716.5 711.5" stroke="#D9D9D9" stroke-width="3.4375" stroke-linecap="butt" stroke-linejoin="round" stroke-miterlimit="10" stroke-opacity="1" fill="none" fill-rule="nonzero"/></g><g><path d="M1456.05 2320.08 1500.05 2320.08 1500.05 1892.06 1456.05 1892.06ZM1845.06 1750.06 1889.06 1750.06 1889.06 1892.06 1845.06 1892.06ZM2234.07 1597.05 2278.07 1597.05 2278.07 1892.06 2234.07 1892.06ZM2429.08 1764.06 2473.08 1764.06 2473.08 1892.06 2429.08 1892.06ZM2818.09 1454.05 2862.09 1454.05 2862.09 1892.06 2818.09 1892.06ZM3013.1 2202.07 3056.1 2202.07 3056.1 1892.06 3013.1 1892.06ZM3207.11 2227.07 3251.11 2227.07 3251.11 1892.06 3207.11 1892.06ZM3402.11 1343.04 3445.11 1343.04 3445.11 1892.06 3402.11 1892.06ZM3596.12 1026.03 3640.12 1026.03 3640.12 1892.06 3596.12 1892.06ZM3791.12 1597.05 3835.13 1597.05 3835.13 1892.06 3791.12 1892.06ZM3986.13 1266.04 4029.13 1266.04 4029.13 1892.06 3986.13 1892.06ZM4180.14 953.031 4224.14 953.031 4224.14 1892.06 4180.14 1892.06ZM4375.14 1553.05 4418.15 1553.05 4418.15 1892.06 4375.14 1892.06ZM4569.15 2099.07 4613.15 2099.07 4613.15 1892.06 4569.15 1892.06Z" fill="#4F81BD" fill-rule="nonzero" fill-opacity="1"/></g><g><path d="M1511.05 1878.06 1555.05 1878.06 1555.05 1892.06 1511.05 1892.06ZM1901.06 1927.06 1944.06 1927.06 1944.06 1892.06 1901.06 1892.06ZM2290.08 1774.06 2333.08 1774.06 2333.08 1892.06 2290.08 1892.06ZM2484.08 1882.06 2528.08 1882.06 2528.08 1892.06 2484.08 1892.06ZM2873.09 1897.06 2917.1 1897.06 2917.1 1892.06 2873.09 1892.06ZM3068.1 1819.06 3112.1 1819.06 3112.1 1892.06 3068.1 1892.06ZM3263.11 1814.06 3306.11 1814.06 3306.11 1892.06 3263.11 1892.06ZM3457.11 1844.06 3501.11 1844.06 3501.11 1892.06 3457.11 1892.06ZM3652.12 2058.07 3695.12 2058.07 3695.12 1892.06 3652.12 1892.06ZM4041.13 1826.06 4085.13 1826.06 4085.13 1892.06 4041.13 1892.06ZM4236.14 1926.06 4279.14 1926.06 4279.14 1892.06 4236.14 1892.06ZM4430.15 2054.07 4474.15 2054.07 4474.15 1892.06 4430.15 1892.06ZM4625.15 1833.06 4668.15 1833.06 4668.15 1892.06 4625.15 1892.06Z" fill="#C0504D" fill-rule="nonzero" fill-opacity="1"/></g><g><path d="M1408.5 1891.5 4716.5 1891.5" stroke="#D9D9D9" stroke-width="3.4375" stroke-linecap="butt" stroke-linejoin="round" stroke-miterlimit="10" stroke-opacity="1" fill="none" fill-rule="evenodd"/></g><g><path d="M1506 1886.84 1526.62 1886.84C1529.47 1886.84 1531.78 1889.15 1531.78 1892 1531.78 1894.85 1529.47 1897.16 1526.62 1897.16L1506 1897.16C1503.15 1897.16 1500.84 1894.85 1500.84 1892 1500.84 1889.15 1503.15 1886.84 1506 1886.84ZM1547.25 1886.84 1567.88 1886.84C1570.72 1886.84 1573.03 1889.15 1573.03 1892 1573.03 1894.85 1570.72 1897.16 1567.88 1897.16L1547.25 1897.16C1544.4 1897.16 1542.09 1894.85 1542.09 1892 1542.09 1889.15 1544.4 1886.84 1547.25 1886.84ZM1588.5 1886.84 1609.12 1886.84C1611.97 1886.84 1614.28 1889.15 1614.28 1892 1614.28 1894.85 1611.97 1897.16 1609.12 1897.16L1588.5 1897.16C1585.65 1897.16 1583.34 1894.85 1583.34 1892 1583.34 1889.15 1585.65 1886.84 1588.5 1886.84ZM1629.75 1886.84 1650.38 1886.84C1653.22 1886.84 1655.53 1889.15 1655.53 1892 1655.53 1894.85 1653.22 1897.16 1650.38 1897.16L1629.75 1897.16C1626.9 1897.16 1624.59 1894.85 1624.59 1892 1624.59 1889.15 1626.9 1886.84 1629.75 1886.84ZM1671 1886.84 1691.62 1886.84C1694.47 1886.84 1696.78 1889.15 1696.78 1892 1696.78 1894.85 1694.47 1897.16 1691.62 1897.16L1671 1897.16C1668.15 1897.16 1665.84 1894.85 1665.84 1892 1665.84 1889.15 1668.15 1886.84 1671 1886.84ZM1712.25 1886.84 1732.88 1886.84C1735.72 1886.84 1738.03 1889.15 1738.03 1892 1738.03 1894.85 1735.72 1897.16 1732.88 1897.16L1712.25 1897.16C1709.4 1897.16 1707.09 1894.85 1707.09 1892 1707.09 1889.15 1709.4 1886.84 1712.25 1886.84ZM1753.5 1886.84 1774.12 1886.84C1776.97 1886.84 1779.28 1889.15 1779.28 1892 1779.28 1894.85 1776.97 1897.16 1774.12 1897.16L1753.5 1897.16C1750.65 1897.16 1748.34 1894.85 1748.34 1892 1748.34 1889.15 1750.65 1886.84 1753.5 1886.84ZM1794.75 1886.84 1815.38 1886.84C1818.22 1886.84 1820.53 1889.15 1820.53 1892 1820.53 1894.85 1818.22 1897.16 1815.38 1897.16L1794.75 1897.16C1791.9 1897.16 1789.59 1894.85 1789.59 1892 1789.59 1889.15 1791.9 1886.84 1794.75 1886.84ZM1836 1886.84 1856.62 1886.84C1859.47 1886.84 1861.78 1889.15 1861.78 1892 1861.78 1894.85 1859.47 1897.16 1856.62 1897.16L1836 1897.16C1833.15 1897.16 1830.84 1894.85 1830.84 1892 1830.84 1889.15 1833.15 1886.84 1836 1886.84ZM1877.25 1886.84 1895.06 1886.84 1897.88 1886.84C1900.72 1886.84 1903.03 1889.15 1903.03 1892 1903.03 1894.85 1900.72 1897.16 1897.88 1897.16L1895.06 1897.16 1877.25 1897.16C1874.4 1897.16 1872.09 1894.85 1872.09 1892 1872.09 1889.15 1874.4 1886.84 1877.25 1886.84ZM1918.5 1886.84 1939.12 1886.84C1941.97 1886.84 1944.28 1889.15 1944.28 1892 1944.28 1894.85 1941.97 1897.16 1939.12 1897.16L1918.5 1897.16C1915.65 1897.16 1913.34 1894.85 1913.34 1892 1913.34 1889.15 1915.65 1886.84 1918.5 1886.84ZM1959.75 1886.84 1980.38 1886.84C1983.22 1886.84 1985.53 1889.15 1985.53 1892 1985.53 1894.85 1983.22 1897.16 1980.38 1897.16L1959.75 1897.16C1956.9 1897.16 1954.59 1894.85 1954.59 1892 1954.59 1889.15 1956.9 1886.84 1959.75 1886.84ZM2001 1886.84 2021.62 1886.84C2024.47 1886.84 2026.78 1889.15 2026.78 1892 2026.78 1894.85 2024.47 1897.16 2021.62 1897.16L2001 1897.16C1998.15 1897.16 1995.84 1894.85 1995.84 1892 1995.84 1889.15 1998.15 1886.84 2001 1886.84ZM2042.25 1886.84 2062.88 1886.84C2065.72 1886.84 2068.03 1889.15 2068.03 1892 2068.03 1894.85 2065.72 1897.16 2062.88 1897.16L2042.25 1897.16C2039.4 1897.16 2037.09 1894.85 2037.09 1892 2037.09 1889.15 2039.4 1886.84 2042.25 1886.84ZM2083.5 1886.84 2089.07 1886.84 2104.12 1886.84C2106.97 1886.84 2109.28 1889.15 2109.28 1892 2109.28 1894.85 2106.97 1897.16 2104.12 1897.16L2089.07 1897.16 2083.5 1897.16C2080.65 1897.16 2078.34 1894.85 2078.34 1892 2078.34 1889.15 2080.65 1886.84 2083.5 1886.84ZM2124.75 1886.84 2145.38 1886.84C2148.22 1886.84 2150.53 1889.15 2150.53 1892 2150.53 1894.85 2148.22 1897.16 2145.38 1897.16L2124.75 1897.16C2121.9 1897.16 2119.59 1894.85 2119.59 1892 2119.59 1889.15 2121.9 1886.84 2124.75 1886.84ZM2166 1886.84 2186.62 1886.84C2189.47 1886.84 2191.78 1889.15 2191.78 1892 2191.78 1894.85 2189.47 1897.16 2186.62 1897.16L2166 1897.16C2163.15 1897.16 2160.84 1894.85 2160.84 1892 2160.84 1889.15 2163.15 1886.84 2166 1886.84ZM2207.25 1886.84 2227.88 1886.84C2230.72 1886.84 2233.03 1889.15 2233.03 1892 2233.03 1894.85 2230.72 1897.16 2227.88 1897.16L2207.25 1897.16C2204.4 1897.16 2202.09 1894.85 2202.09 1892 2202.09 1889.15 2204.4 1886.84 2207.25 1886.84ZM2248.5 1886.84 2269.12 1886.84C2271.97 1886.84 2274.28 1889.15 2274.28 1892 2274.28 1894.85 2271.97 1897.16 2269.12 1897.16L2248.5 1897.16C2245.65 1897.16 2243.34 1894.85 2243.34 1892 2243.34 1889.15 2245.65 1886.84 2248.5 1886.84ZM2289.75 1886.84 2310.38 1886.84C2313.22 1886.84 2315.53 1889.15 2315.53 1892 2315.53 1894.85 2313.22 1897.16 2310.38 1897.16L2289.75 1897.16C2286.9 1897.16 2284.59 1894.85 2284.59 1892 2284.59 1889.15 2286.9 1886.84 2289.75 1886.84ZM2331 1886.84 2351.62 1886.84C2354.47 1886.84 2356.78 1889.15 2356.78 1892 2356.78 1894.85 2354.47 1897.16 2351.62 1897.16L2331 1897.16C2328.15 1897.16 2325.84 1894.85 2325.84 1892 2325.84 1889.15 2328.15 1886.84 2331 1886.84ZM2372.25 1886.84 2392.88 1886.84C2395.72 1886.84 2398.03 1889.15 2398.03 1892 2398.03 1894.85 2395.72 1897.16 2392.88 1897.16L2372.25 1897.16C2369.4 1897.16 2367.09 1894.85 2367.09 1892 2367.09 1889.15 2369.4 1886.84 2372.25 1886.84ZM2413.5 1886.84 2434.12 1886.84C2436.97 1886.84 2439.28 1889.15 2439.28 1892 2439.28 1894.85 2436.97 1897.16 2434.12 1897.16L2413.5 1897.16C2410.65 1897.16 2408.34 1894.85 2408.34 1892 2408.34 1889.15 2410.65 1886.84 2413.5 1886.84ZM2454.75 1886.84 2475.38 1886.84C2478.22 1886.84 2480.53 1889.15 2480.53 1892 2480.53 1894.85 2478.22 1897.16 2475.38 1897.16L2454.75 1897.16C2451.9 1897.16 2449.59 1894.85 2449.59 1892 2449.59 1889.15 2451.9 1886.84 2454.75 1886.84ZM2496 1886.84 2516.62 1886.84C2519.47 1886.84 2521.78 1889.15 2521.78 1892 2521.78 1894.85 2519.47 1897.16 2516.62 1897.16L2496 1897.16C2493.15 1897.16 2490.84 1894.85 2490.84 1892 2490.84 1889.15 2493.15 1886.84 2496 1886.84ZM2537.25 1886.84 2557.88 1886.84C2560.72 1886.84 2563.03 1889.15 2563.03 1892 2563.03 1894.85 2560.72 1897.16 2557.88 1897.16L2537.25 1897.16C2534.4 1897.16 2532.09 1894.85 2532.09 1892 2532.09 1889.15 2534.4 1886.84 2537.25 1886.84ZM2578.5 1886.84 2599.12 1886.84C2601.97 1886.84 2604.28 1889.15 2604.28 1892 2604.28 1894.85 2601.97 1897.16 2599.12 1897.16L2578.5 1897.16C2575.65 1897.16 2573.34 1894.85 2573.34 1892 2573.34 1889.15 2575.65 1886.84 2578.5 1886.84ZM2619.75 1886.84 2640.38 1886.84C2643.22 1886.84 2645.53 1889.15 2645.53 1892 2645.53 1894.85 2643.22 1897.16 2640.38 1897.16L2619.75 1897.16C2616.9 1897.16 2614.59 1894.85 2614.59 1892 2614.59 1889.15 2616.9 1886.84 2619.75 1886.84ZM2661 1886.84 2673.09 1886.84 2681.62 1886.84C2684.47 1886.84 2686.78 1889.15 2686.78 1892 2686.78 1894.85 2684.47 1897.16 2681.62 1897.16L2673.09 1897.16 2661 1897.16C2658.15 1897.16 2655.84 1894.85 2655.84 1892 2655.84 1889.15 2658.15 1886.84 2661 1886.84ZM2702.25 1886.84 2722.88 1886.84C2725.72 1886.84 2728.03 1889.15 2728.03 1892 2728.03 1894.85 2725.72 1897.16 2722.88 1897.16L2702.25 1897.16C2699.4 1897.16 2697.09 1894.85 2697.09 1892 2697.09 1889.15 2699.4 1886.84 2702.25 1886.84ZM2743.5 1886.84 2764.12 1886.84C2766.97 1886.84 2769.28 1889.15 2769.28 1892 2769.28 1894.85 2766.97 1897.16 2764.12 1897.16L2743.5 1897.16C2740.65 1897.16 2738.34 1894.85 2738.34 1892 2738.34 1889.15 2740.65 1886.84 2743.5 1886.84ZM2784.75 1886.84 2805.38 1886.84C2808.22 1886.84 2810.53 1889.15 2810.53 1892 2810.53 1894.85 2808.22 1897.16 2805.38 1897.16L2784.75 1897.16C2781.9 1897.16 2779.59 1894.85 2779.59 1892 2779.59 1889.15 2781.9 1886.84 2784.75 1886.84ZM2826 1886.84 2846.62 1886.84C2849.47 1886.84 2851.78 1889.15 2851.78 1892 2851.78 1894.85 2849.47 1897.16 2846.62 1897.16L2826 1897.16C2823.15 1897.16 2820.84 1894.85 2820.84 1892 2820.84 1889.15 2823.15 1886.84 2826 1886.84ZM2867.25 1886.84 2868.09 1886.84 2887.88 1886.84C2890.72 1886.84 2893.03 1889.15 2893.03 1892 2893.03 1894.85 2890.72 1897.16 2887.88 1897.16L2868.09 1897.16 2867.25 1897.16C2864.4 1897.16 2862.09 1894.85 2862.09 1892 2862.09 1889.15 2864.4 1886.84 2867.25 1886.84ZM2908.5 1886.84 2929.12 1886.84C2931.97 1886.84 2934.28 1889.15 2934.28 1892 2934.28 1894.85 2931.97 1897.16 2929.12 1897.16L2908.5 1897.16C2905.65 1897.16 2903.34 1894.85 2903.34 1892 2903.34 1889.15 2905.65 1886.84 2908.5 1886.84ZM2949.75 1886.84 2970.38 1886.84C2973.22 1886.84 2975.53 1889.15 2975.53 1892 2975.53 1894.85 2973.22 1897.16 2970.38 1897.16L2949.75 1897.16C2946.9 1897.16 2944.59 1894.85 2944.59 1892 2944.59 1889.15 2946.9 1886.84 2949.75 1886.84ZM2991 1886.84 3011.62 1886.84C3014.47 1886.84 3016.78 1889.15 3016.78 1892 3016.78 1894.85 3014.47 1897.16 3011.62 1897.16L2991 1897.16C2988.15 1897.16 2985.84 1894.85 2985.84 1892 2985.84 1889.15 2988.15 1886.84 2991 1886.84ZM3032.25 1886.84 3052.88 1886.84C3055.72 1886.84 3058.03 1889.15 3058.03 1892 3058.03 1894.85 3055.72 1897.16 3052.88 1897.16L3032.25 1897.16C3029.4 1897.16 3027.09 1894.85 3027.09 1892 3027.09 1889.15 3029.4 1886.84 3032.25 1886.84ZM3073.5 1886.84 3094.12 1886.84C3096.97 1886.84 3099.28 1889.15 3099.28 1892 3099.28 1894.85 3096.97 1897.16 3094.12 1897.16L3073.5 1897.16C3070.65 1897.16 3068.34 1894.85 3068.34 1892 3068.34 1889.15 3070.65 1886.84 3073.5 1886.84ZM3114.75 1886.84 3135.38 1886.84C3138.22 1886.84 3140.53 1889.15 3140.53 1892 3140.53 1894.85 3138.22 1897.16 3135.38 1897.16L3114.75 1897.16C3111.9 1897.16 3109.59 1894.85 3109.59 1892 3109.59 1889.15 3111.9 1886.84 3114.75 1886.84ZM3156 1886.84 3176.62 1886.84C3179.47 1886.84 3181.78 1889.15 3181.78 1892 3181.78 1894.85 3179.47 1897.16 3176.62 1897.16L3156 1897.16C3153.15 1897.16 3150.84 1894.85 3150.84 1892 3150.84 1889.15 3153.15 1886.84 3156 1886.84ZM3197.25 1886.84 3217.88 1886.84C3220.72 1886.84 3223.03 1889.15 3223.03 1892 3223.03 1894.85 3220.72 1897.16 3217.88 1897.16L3197.25 1897.16C3194.4 1897.16 3192.09 1894.85 3192.09 1892 3192.09 1889.15 3194.4 1886.84 3197.25 1886.84ZM3238.5 1886.84 3257.11 1886.84 3259.12 1886.84C3261.97 1886.84 3264.28 1889.15 3264.28 1892 3264.28 1894.85 3261.97 1897.16 3259.12 1897.16L3257.11 1897.16 3238.5 1897.16C3235.65 1897.16 3233.34 1894.85 3233.34 1892 3233.34 1889.15 3235.65 1886.84 3238.5 1886.84ZM3279.75 1886.84 3300.38 1886.84C3303.22 1886.84 3305.53 1889.15 3305.53 1892 3305.53 1894.85 3303.22 1897.16 3300.38 1897.16L3279.75 1897.16C3276.9 1897.16 3274.59 1894.85 3274.59 1892 3274.59 1889.15 3276.9 1886.84 3279.75 1886.84ZM3321 1886.84 3341.62 1886.84C3344.47 1886.84 3346.78 1889.15 3346.78 1892 3346.78 1894.85 3344.47 1897.16 3341.62 1897.16L3321 1897.16C3318.15 1897.16 3315.84 1894.85 3315.84 1892 3315.84 1889.15 3318.15 1886.84 3321 1886.84ZM3362.25 1886.84 3382.88 1886.84C3385.72 1886.84 3388.03 1889.15 3388.03 1892 3388.03 1894.85 3385.72 1897.16 3382.88 1897.16L3362.25 1897.16C3359.4 1897.16 3357.09 1894.85 3357.09 1892 3357.09 1889.15 3359.4 1886.84 3362.25 1886.84ZM3403.5 1886.84 3424.12 1886.84C3426.97 1886.84 3429.28 1889.15 3429.28 1892 3429.28 1894.85 3426.97 1897.16 3424.12 1897.16L3403.5 1897.16C3400.65 1897.16 3398.34 1894.85 3398.34 1892 3398.34 1889.15 3400.65 1886.84 3403.5 1886.84ZM3444.75 1886.84 3451.11 1886.84 3465.38 1886.84C3468.22 1886.84 3470.53 1889.15 3470.53 1892 3470.53 1894.85 3468.22 1897.16 3465.38 1897.16L3451.11 1897.16 3444.75 1897.16C3441.9 1897.16 3439.59 1894.85 3439.59 1892 3439.59 1889.15 3441.9 1886.84 3444.75 1886.84ZM3486 1886.84 3506.62 1886.84C3509.47 1886.84 3511.78 1889.15 3511.78 1892 3511.78 1894.85 3509.47 1897.16 3506.62 1897.16L3486 1897.16C3483.15 1897.16 3480.84 1894.85 3480.84 1892 3480.84 1889.15 3483.15 1886.84 3486 1886.84ZM3527.25 1886.84 3547.88 1886.84C3550.72 1886.84 3553.03 1889.15 3553.03 1892 3553.03 1894.85 3550.72 1897.16 3547.88 1897.16L3527.25 1897.16C3524.4 1897.16 3522.09 1894.85 3522.09 1892 3522.09 1889.15 3524.4 1886.84 3527.25 1886.84ZM3568.5 1886.84 3589.12 1886.84C3591.97 1886.84 3594.28 1889.15 3594.28 1892 3594.28 1894.85 3591.97 1897.16 3589.12 1897.16L3568.5 1897.16C3565.65 1897.16 3563.34 1894.85 3563.34 1892 3563.34 1889.15 3565.65 1886.84 3568.5 1886.84ZM3609.75 1886.84 3630.38 1886.84C3633.22 1886.84 3635.53 1889.15 3635.53 1892 3635.53 1894.85 3633.22 1897.16 3630.38 1897.16L3609.75 1897.16C3606.9 1897.16 3604.59 1894.85 3604.59 1892 3604.59 1889.15 3606.9 1886.84 3609.75 1886.84ZM3651 1886.84 3671.62 1886.84C3674.47 1886.84 3676.78 1889.15 3676.78 1892 3676.78 1894.85 3674.47 1897.16 3671.62 1897.16L3651 1897.16C3648.15 1897.16 3645.84 1894.85 3645.84 1892 3645.84 1889.15 3648.15 1886.84 3651 1886.84ZM3692.25 1886.84 3712.88 1886.84C3715.72 1886.84 3718.03 1889.15 3718.03 1892 3718.03 1894.85 3715.72 1897.16 3712.88 1897.16L3692.25 1897.16C3689.4 1897.16 3687.09 1894.85 3687.09 1892 3687.09 1889.15 3689.4 1886.84 3692.25 1886.84ZM3733.5 1886.84 3754.12 1886.84C3756.97 1886.84 3759.28 1889.15 3759.28 1892 3759.28 1894.85 3756.97 1897.16 3754.12 1897.16L3733.5 1897.16C3730.65 1897.16 3728.34 1894.85 3728.34 1892 3728.34 1889.15 3730.65 1886.84 3733.5 1886.84ZM3774.75 1886.84 3795.38 1886.84C3798.22 1886.84 3800.53 1889.15 3800.53 1892 3800.53 1894.85 3798.22 1897.16 3795.38 1897.16L3774.75 1897.16C3771.9 1897.16 3769.59 1894.85 3769.59 1892 3769.59 1889.15 3771.9 1886.84 3774.75 1886.84ZM3816 1886.84 3836.62 1886.84C3839.47 1886.84 3841.78 1889.15 3841.78 1892 3841.78 1894.85 3839.47 1897.16 3836.62 1897.16L3816 1897.16C3813.15 1897.16 3810.84 1894.85 3810.84 1892 3810.84 1889.15 3813.15 1886.84 3816 1886.84ZM3857.25 1886.84 3877.88 1886.84C3880.72 1886.84 3883.03 1889.15 3883.03 1892 3883.03 1894.85 3880.72 1897.16 3877.88 1897.16L3857.25 1897.16C3854.4 1897.16 3852.09 1894.85 3852.09 1892 3852.09 1889.15 3854.4 1886.84 3857.25 1886.84ZM3898.5 1886.84 3919.12 1886.84C3921.97 1886.84 3924.28 1889.15 3924.28 1892 3924.28 1894.85 3921.97 1897.16 3919.12 1897.16L3898.5 1897.16C3895.65 1897.16 3893.34 1894.85 3893.34 1892 3893.34 1889.15 3895.65 1886.84 3898.5 1886.84ZM3939.75 1886.84 3960.38 1886.84C3963.22 1886.84 3965.53 1889.15 3965.53 1892 3965.53 1894.85 3963.22 1897.16 3960.38 1897.16L3939.75 1897.16C3936.9 1897.16 3934.59 1894.85 3934.59 1892 3934.59 1889.15 3936.9 1886.84 3939.75 1886.84ZM3981 1886.84 4001.62 1886.84C4004.47 1886.84 4006.78 1889.15 4006.78 1892 4006.78 1894.85 4004.47 1897.16 4001.62 1897.16L3981 1897.16C3978.15 1897.16 3975.84 1894.85 3975.84 1892 3975.84 1889.15 3978.15 1886.84 3981 1886.84ZM4022.25 1886.84 4035.13 1886.84 4042.88 1886.84C4045.72 1886.84 4048.03 1889.15 4048.03 1892 4048.03 1894.85 4045.72 1897.16 4042.88 1897.16L4035.13 1897.16 4022.25 1897.16C4019.4 1897.16 4017.09 1894.85 4017.09 1892 4017.09 1889.15 4019.4 1886.84 4022.25 1886.84ZM4063.5 1886.84 4084.12 1886.84C4086.97 1886.84 4089.28 1889.15 4089.28 1892 4089.28 1894.85 4086.97 1897.16 4084.12 1897.16L4063.5 1897.16C4060.65 1897.16 4058.34 1894.85 4058.34 1892 4058.34 1889.15 4060.65 1886.84 4063.5 1886.84ZM4104.75 1886.84 4125.38 1886.84C4128.22 1886.84 4130.53 1889.15 4130.53 1892 4130.53 1894.85 4128.22 1897.16 4125.38 1897.16L4104.75 1897.16C4101.9 1897.16 4099.59 1894.85 4099.59 1892 4099.59 1889.15 4101.9 1886.84 4104.75 1886.84ZM4146 1886.84 4166.62 1886.84C4169.47 1886.84 4171.78 1889.15 4171.78 1892 4171.78 1894.85 4169.47 1897.16 4166.62 1897.16L4146 1897.16C4143.15 1897.16 4140.84 1894.85 4140.84 1892 4140.84 1889.15 4143.15 1886.84 4146 1886.84ZM4187.25 1886.84 4207.88 1886.84C4210.72 1886.84 4213.03 1889.15 4213.03 1892 4213.03 1894.85 4210.72 1897.16 4207.88 1897.16L4187.25 1897.16C4184.4 1897.16 4182.09 1894.85 4182.09 1892 4182.09 1889.15 4184.4 1886.84 4187.25 1886.84ZM4228.5 1886.84 4230.14 1886.84 4249.12 1886.84C4251.97 1886.84 4254.28 1889.15 4254.28 1892 4254.28 1894.85 4251.97 1897.16 4249.12 1897.16L4230.14 1897.16 4228.5 1897.16C4225.65 1897.16 4223.34 1894.85 4223.34 1892 4223.34 1889.15 4225.65 1886.84 4228.5 1886.84ZM4269.75 1886.84 4290.38 1886.84C4293.22 1886.84 4295.53 1889.15 4295.53 1892 4295.53 1894.85 4293.22 1897.16 4290.38 1897.16L4269.75 1897.16C4266.9 1897.16 4264.59 1894.85 4264.59 1892 4264.59 1889.15 4266.9 1886.84 4269.75 1886.84ZM4311 1886.84 4331.62 1886.84C4334.47 1886.84 4336.78 1889.15 4336.78 1892 4336.78 1894.85 4334.47 1897.16 4331.62 1897.16L4311 1897.16C4308.15 1897.16 4305.84 1894.85 4305.84 1892 4305.84 1889.15 4308.15 1886.84 4311 1886.84ZM4352.25 1886.84 4372.88 1886.84C4375.72 1886.84 4378.03 1889.15 4378.03 1892 4378.03 1894.85 4375.72 1897.16 4372.88 1897.16L4352.25 1897.16C4349.4 1897.16 4347.09 1894.85 4347.09 1892 4347.09 1889.15 4349.4 1886.84 4352.25 1886.84ZM4393.5 1886.84 4414.12 1886.84C4416.97 1886.84 4419.28 1889.15 4419.28 1892 4419.28 1894.85 4416.97 1897.16 4414.12 1897.16L4393.5 1897.16C4390.65 1897.16 4388.34 1894.85 4388.34 1892 4388.34 1889.15 4390.65 1886.84 4393.5 1886.84ZM4434.75 1886.84 4455.38 1886.84C4458.22 1886.84 4460.53 1889.15 4460.53 1892 4460.53 1894.85 4458.22 1897.16 4455.38 1897.16L4434.75 1897.16C4431.9 1897.16 4429.59 1894.85 4429.59 1892 4429.59 1889.15 4431.9 1886.84 4434.75 1886.84ZM4476 1886.84 4496.62 1886.84C4499.47 1886.84 4501.78 1889.15 4501.78 1892 4501.78 1894.85 4499.47 1897.16 4496.62 1897.16L4476 1897.16C4473.15 1897.16 4470.84 1894.85 4470.84 1892 4470.84 1889.15 4473.15 1886.84 4476 1886.84ZM4517.25 1886.84 4537.88 1886.84C4540.72 1886.84 4543.03 1889.15 4543.03 1892 4543.03 1894.85 4540.72 1897.16 4537.88 1897.16L4517.25 1897.16C4514.4 1897.16 4512.09 1894.85 4512.09 1892 4512.09 1889.15 4514.4 1886.84 4517.25 1886.84ZM4558.5 1886.84 4579.12 1886.84C4581.97 1886.84 4584.28 1889.15 4584.28 1892 4584.28 1894.85 4581.97 1897.16 4579.12 1897.16L4558.5 1897.16C4555.65 1897.16 4553.34 1894.85 4553.34 1892 4553.34 1889.15 4555.65 1886.84 4558.5 1886.84ZM4599.75 1886.84 4619 1886.84C4621.85 1886.84 4624.16 1889.15 4624.16 1892 4624.16 1894.85 4621.85 1897.16 4619 1897.16L4599.75 1897.16C4596.9 1897.16 4594.59 1894.85 4594.59 1892 4594.59 1889.15 4596.9 1886.84 4599.75 1886.84Z" fill="#9BBB59" fill-rule="nonzero" fill-opacity="1"/></g><g><text fill="#595959" fill-opacity="1" font-family="Calibri,Calibri_MSFontService,sans-serif" font-style="normal" font-variant="normal" font-weight="400" font-stretch="normal" font-size="41" text-anchor="start" direction="ltr" writing-mode="lr-tb" unicode-bidi="normal" text-decoration="none" transform="matrix(1 0 0 1 1294.71 2492)">-100</text></g><g><text fill="#595959" fill-opacity="1" font-family="Calibri,Calibri_MSFontService,sans-serif" font-style="normal" font-variant="normal" font-weight="400" font-stretch="normal" font-size="41" text-anchor="start" direction="ltr" writing-mode="lr-tb" unicode-bidi="normal" text-decoration="none" transform="matrix(1 0 0 1 1315.61 2197)">-50</text></g><g><text fill="#595959" fill-opacity="1" font-family="Calibri,Calibri_MSFontService,sans-serif" font-style="normal" font-variant="normal" font-weight="400" font-stretch="normal" font-size="41" text-anchor="start" direction="ltr" writing-mode="lr-tb" unicode-bidi="normal" text-decoration="none" transform="matrix(1 0 0 1 1349.14 1902)">0</text></g><g><text fill="#595959" fill-opacity="1" font-family="Calibri,Calibri_MSFontService,sans-serif" font-style="normal" font-variant="normal" font-weight="400" font-stretch="normal" font-size="41" text-anchor="start" direction="ltr" writing-mode="lr-tb" unicode-bidi="normal" text-decoration="none" transform="matrix(1 0 0 1 1328.24 1607)">50</text></g><g><text fill="#595959" fill-opacity="1" font-family="Calibri,Calibri_MSFontService,sans-serif" font-style="normal" font-variant="normal" font-weight="400" font-stretch="normal" font-size="41" text-anchor="start" direction="ltr" writing-mode="lr-tb" unicode-bidi="normal" text-decoration="none" transform="matrix(1 0 0 1 1307.34 1312)">100</text></g><g><text fill="#595959" fill-opacity="1" font-family="Calibri,Calibri_MSFontService,sans-serif" font-style="normal" font-variant="normal" font-weight="400" font-stretch="normal" font-size="41" text-anchor="start" direction="ltr" writing-mode="lr-tb" unicode-bidi="normal" text-decoration="none" transform="matrix(1 0 0 1 1307.34 1017)">150</text></g><g><text fill="#595959" fill-opacity="1" font-family="Calibri,Calibri_MSFontService,sans-serif" font-style="normal" font-variant="normal" font-weight="400" font-stretch="normal" font-size="41" text-anchor="start" direction="ltr" writing-mode="lr-tb" unicode-bidi="normal" text-decoration="none" transform="matrix(1 0 0 1 1307.34 722)">200</text></g><g><text fill="#595959" fill-opacity="1" font-family="Calibri,Calibri_MSFontService,sans-serif" font-style="normal" font-variant="normal" font-weight="400" font-stretch="normal" font-size="41" text-anchor="start" direction="ltr" writing-mode="lr-tb" unicode-bidi="normal" text-decoration="none" transform="matrix(1 0 0 1 1487.08 1957)">s1</text></g><g><text fill="#595959" fill-opacity="1" font-family="Calibri,Calibri_MSFontService,sans-serif" font-style="normal" font-variant="normal" font-weight="400" font-stretch="normal" font-size="41" text-anchor="start" direction="ltr" writing-mode="lr-tb" unicode-bidi="normal" text-decoration="none" transform="matrix(1 0 0 1 1681.67 1957)">s2</text></g><g><text fill="#595959" fill-opacity="1" font-family="Calibri,Calibri_MSFontService,sans-serif" font-style="normal" font-variant="normal" font-weight="400" font-stretch="normal" font-size="41" text-anchor="start" direction="ltr" writing-mode="lr-tb" unicode-bidi="normal" text-decoration="none" transform="matrix(1 0 0 1 1876.25 1957)">s3</text></g><g><text fill="#595959" fill-opacity="1" font-family="Calibri,Calibri_MSFontService,sans-serif" font-style="normal" font-variant="normal" font-weight="400" font-stretch="normal" font-size="41" text-anchor="start" direction="ltr" writing-mode="lr-tb" unicode-bidi="normal" text-decoration="none" transform="matrix(1 0 0 1 2070.84 1957)">s4</text></g><g><text fill="#595959" fill-opacity="1" font-family="Calibri,Calibri_MSFontService,sans-serif" font-style="normal" font-variant="normal" font-weight="400" font-stretch="normal" font-size="41" text-anchor="start" direction="ltr" writing-mode="lr-tb" unicode-bidi="normal" text-decoration="none" transform="matrix(1 0 0 1 2265.42 1957)">s5</text></g><g><text fill="#595959" fill-opacity="1" font-family="Calibri,Calibri_MSFontService,sans-serif" font-style="normal" font-variant="normal" font-weight="400" font-stretch="normal" font-size="41" text-anchor="start" direction="ltr" writing-mode="lr-tb" unicode-bidi="normal" text-decoration="none" transform="matrix(1 0 0 1 2460.01 1957)">s6</text></g><g><text fill="#595959" fill-opacity="1" font-family="Calibri,Calibri_MSFontService,sans-serif" font-style="normal" font-variant="normal" font-weight="400" font-stretch="normal" font-size="41" text-anchor="start" direction="ltr" writing-mode="lr-tb" unicode-bidi="normal" text-decoration="none" transform="matrix(1 0 0 1 2654.59 1957)">s7</text></g><g><text fill="#595959" fill-opacity="1" font-family="Calibri,Calibri_MSFontService,sans-serif" font-style="normal" font-variant="normal" font-weight="400" font-stretch="normal" font-size="41" text-anchor="start" direction="ltr" writing-mode="lr-tb" unicode-bidi="normal" text-decoration="none" transform="matrix(1 0 0 1 2849.18 1957)">s8</text></g><g><text fill="#595959" fill-opacity="1" font-family="Calibri,Calibri_MSFontService,sans-serif" font-style="normal" font-variant="normal" font-weight="400" font-stretch="normal" font-size="41" text-anchor="start" direction="ltr" writing-mode="lr-tb" unicode-bidi="normal" text-decoration="none" transform="matrix(1 0 0 1 3043.76 1957)">s9</text></g><g><text fill="#595959" fill-opacity="1" font-family="Calibri,Calibri_MSFontService,sans-serif" font-style="normal" font-variant="normal" font-weight="400" font-stretch="normal" font-size="41" text-anchor="start" direction="ltr" writing-mode="lr-tb" unicode-bidi="normal" text-decoration="none" transform="matrix(1 0 0 1 3227.9 1957)">s10</text></g><g><text fill="#595959" fill-opacity="1" font-family="Calibri,Calibri_MSFontService,sans-serif" font-style="normal" font-variant="normal" font-weight="400" font-stretch="normal" font-size="41" text-anchor="start" direction="ltr" writing-mode="lr-tb" unicode-bidi="normal" text-decoration="none" transform="matrix(1 0 0 1 3422.48 1957)">s11</text></g><g><text fill="#595959" fill-opacity="1" font-family="Calibri,Calibri_MSFontService,sans-serif" font-style="normal" font-variant="normal" font-weight="400" font-stretch="normal" font-size="41" text-anchor="start" direction="ltr" writing-mode="lr-tb" unicode-bidi="normal" text-decoration="none" transform="matrix(1 0 0 1 3617.07 1957)">s12</text></g><g><text fill="#595959" fill-opacity="1" font-family="Calibri,Calibri_MSFontService,sans-serif" font-style="normal" font-variant="normal" font-weight="400" font-stretch="normal" font-size="41" text-anchor="start" direction="ltr" writing-mode="lr-tb" unicode-bidi="normal" text-decoration="none" transform="matrix(1 0 0 1 3811.65 1957)">s13</text></g><g><text fill="#595959" fill-opacity="1" font-family="Calibri,Calibri_MSFontService,sans-serif" font-style="normal" font-variant="normal" font-weight="400" font-stretch="normal" font-size="41" text-anchor="start" direction="ltr" writing-mode="lr-tb" unicode-bidi="normal" text-decoration="none" transform="matrix(1 0 0 1 4006.24 1957)">s14</text></g><g><text fill="#595959" fill-opacity="1" font-family="Calibri,Calibri_MSFontService,sans-serif" font-style="normal" font-variant="normal" font-weight="400" font-stretch="normal" font-size="41" text-anchor="start" direction="ltr" writing-mode="lr-tb" unicode-bidi="normal" text-decoration="none" transform="matrix(1 0 0 1 4200.82 1957)">s15</text></g><g><text fill="#595959" fill-opacity="1" font-family="Calibri,Calibri_MSFontService,sans-serif" font-style="normal" font-variant="normal" font-weight="400" font-stretch="normal" font-size="41" text-anchor="start" direction="ltr" writing-mode="lr-tb" unicode-bidi="normal" text-decoration="none" transform="matrix(1 0 0 1 4395.41 1957)">s16</text></g><g><text fill="#595959" fill-opacity="1" font-family="Calibri,Calibri_MSFontService,sans-serif" font-style="normal" font-variant="normal" font-weight="400" font-stretch="normal" font-size="41" text-anchor="start" direction="ltr" writing-mode="lr-tb" unicode-bidi="normal" text-decoration="none" transform="matrix(1 0 0 1 4589.99 1957)">s17</text></g><g><text fill="#595959" fill-opacity="1" font-family="Calibri,Calibri_MSFontService,sans-serif" font-style="normal" font-variant="normal" font-weight="400" font-stretch="normal" font-size="46" text-anchor="start" direction="ltr" writing-mode="lr-tb" unicode-bidi="normal" text-decoration="none" transform="matrix(6.12323e-17 -1 1 6.12323e-17 1269.02 1671)">Euro (€)</text></g><g><text fill="#595959" fill-opacity="1" font-family="Calibri,Calibri_MSFontService,sans-serif" font-style="normal" font-variant="normal" font-weight="400" font-stretch="normal" font-size="64" text-anchor="start" direction="ltr" writing-mode="lr-tb" unicode-bidi="normal" text-decoration="none" transform="matrix(1 0 0 1 2868.68 637)">SV e CV</text></g><g><rect x="2147" y="2559" width="115" height="23" fill="#4F81BD" fill-opacity="1"/></g><g><text fill="#595959" fill-opacity="1" font-family="Calibri,Calibri_MSFontService,sans-serif" font-style="normal" font-variant="normal" font-weight="400" font-stretch="normal" font-size="41" text-anchor="start" direction="ltr" writing-mode="lr-tb" unicode-bidi="normal" text-decoration="none" transform="matrix(1 0 0 1 2274.9 2581)">SV </text></g><g><text fill="#595959" fill-opacity="1" font-family="Calibri,Calibri_MSFontService,sans-serif" font-style="normal" font-variant="normal" font-weight="400" font-stretch="normal" font-size="41" text-anchor="start" direction="ltr" writing-mode="lr-tb" unicode-bidi="normal" text-decoration="none" transform="matrix(1 0 0 1 2326.58 2581)">-</text></g><g><text fill="#595959" fill-opacity="1" font-family="Calibri,Calibri_MSFontService,sans-serif" font-style="normal" font-variant="normal" font-weight="400" font-stretch="normal" font-size="41" text-anchor="start" direction="ltr" writing-mode="lr-tb" unicode-bidi="normal" text-decoration="none" transform="matrix(1 0 0 1 2348.53 2581)">Schedule Variance (€)</text></g><g><rect x="2804" y="2559" width="115" height="23" fill="#C0504D" fill-opacity="1"/></g><g><text fill="#595959" fill-opacity="1" font-family="Calibri,Calibri_MSFontService,sans-serif" font-style="normal" font-variant="normal" font-weight="400" font-stretch="normal" font-size="41" text-anchor="start" direction="ltr" writing-mode="lr-tb" unicode-bidi="normal" text-decoration="none" transform="matrix(1 0 0 1 2932.08 2581)">CV </text></g><g><text fill="#595959" fill-opacity="1" font-family="Calibri,Calibri_MSFontService,sans-serif" font-style="normal" font-variant="normal" font-weight="400" font-stretch="normal" font-size="41" text-anchor="start" direction="ltr" writing-mode="lr-tb" unicode-bidi="normal" text-decoration="none" transform="matrix(1 0 0 1 2986.8 2581)">-</text></g><g><text fill="#595959" fill-opacity="1" font-family="Calibri,Calibri_MSFontService,sans-serif" font-style="normal" font-variant="normal" font-weight="400" font-stretch="normal" font-size="41" text-anchor="start" direction="ltr" writing-mode="lr-tb" unicode-bidi="normal" text-decoration="none" transform="matrix(1 0 0 1 3008.76 2581)">Cost Variance (€)</text></g><g><path d="M3386 2565.84 3406.62 2565.84C3409.47 2565.84 3411.78 2568.15 3411.78 2571 3411.78 2573.85 3409.47 2576.16 3406.62 2576.16L3386 2576.16C3383.15 2576.16 3380.84 2573.85 3380.84 2571 3380.84 2568.15 3383.15 2565.84 3386 2565.84ZM3427.25 2565.84 3447.88 2565.84C3450.72 2565.84 3453.03 2568.15 3453.03 2571 3453.03 2573.85 3450.72 2576.16 3447.88 2576.16L3427.25 2576.16C3424.4 2576.16 3422.09 2573.85 3422.09 2571 3422.09 2568.15 3424.4 2565.84 3427.25 2565.84ZM3468.5 2565.84 3489.12 2565.84C3491.97 2565.84 3494.28 2568.15 3494.28 2571 3494.28 2573.85 3491.97 2576.16 3489.12 2576.16L3468.5 2576.16C3465.65 2576.16 3463.34 2573.85 3463.34 2571 3463.34 2568.15 3465.65 2565.84 3468.5 2565.84Z" fill="#9BBB59" fill-rule="nonzero" fill-opacity="1"/></g><g><text fill="#595959" fill-opacity="1" font-family="Calibri,Calibri_MSFontService,sans-serif" font-style="normal" font-variant="normal" font-weight="400" font-stretch="normal" font-size="41" text-anchor="start" direction="ltr" writing-mode="lr-tb" unicode-bidi="normal" text-decoration="none" transform="matrix(1 0 0 1 3514.04 2581)">Soglia acc CV (&gt;0)</text></g><rect x="1168.5" y="542.5" width="3599" height="2095" stroke="#D9D9D9" stroke-width="3.4375" stroke-linecap="butt" stroke-linejoin="round" stroke-miterlimit="10" stroke-opacity="1" fill="none"/></g></g></svg>