<svg width="3617" height="2136" xmlns="http://www.w3.org/2000/svg" xmlns:xlink="http://www.w3.org/1999/xlink" xml:space="preserve" overflow="hidden"><defs><clipPath id="clip0"><rect x="1168" y="545" width="3617" height="2136"/></clipPath><clipPath id="clip1"><rect x="1168" y="545" width="3617" height="2136"/></clipPath></defs><g clip-path="url(#clip0)" transform="translate(-1168 -545)"><g clip-path="url(#clip1)"><rect x="1171" y="549" width="3612" height="2126" fill="#FFFFFF" fill-opacity="1"/><g><path d="M1411.5 2519.5 4732.5 2519.5M1411.5 2355.58 4732.5 2355.58M1411.5 2192.57 4732.5 2192.57M1411.5 2028.57 4732.5 2028.57M1411.5 1864.56 4732.5 1864.56M1411.5 1700.56 4732.5 1700.56M1411.5 1373.55 4732.5 1373.55M1411.5 1209.54 4732.5 1209.54M1411.5 1046.53 4732.5 1046.53M1411.5 882.529 4732.5 882.529M1411.5 718.5 4732.5 718.5" stroke="#D9D9D9" stroke-width="3.4375" stroke-linecap="butt" stroke-linejoin="round" stroke-miterlimit="10" stroke-opacity="1" fill="none" fill-rule="nonzero"/></g><g><path d="M1459.05 2335.08 1503.05 2335.08 1503.05 1537.05 1459.05 1537.05ZM1850.06 1341.04 1894.06 1341.04 1894.06 1537.05 1850.06 1537.05ZM2045.07 1418.05 2089.07 1418.05 2089.07 1537.05 2045.07 1537.05ZM2241.07 923.03 2284.07 923.03 2284.07 1537.05 2241.07 1537.05ZM2436.08 1358.04 2480.08 1358.04 2480.08 1537.05 2436.08 1537.05ZM2827.09 1133.04 2870.09 1133.04 2870.09 1537.05 2827.09 1537.05ZM3022.1 1968.06 3066.1 1968.06 3066.1 1537.05 3022.1 1537.05ZM3413.11 1417.05 3456.11 1417.05 3456.11 1537.05 3413.11 1537.05ZM3608.12 1079.04 3652.12 1079.04 3652.12 1537.05 3608.12 1537.05ZM3803.12 1226.04 3847.13 1226.04 3847.13 1537.05 3803.12 1537.05ZM3999.13 1386.05 4042.13 1386.05 4042.13 1537.05 3999.13 1537.05ZM4194.14 1303.04 4238.14 1303.04 4238.14 1537.05 4194.14 1537.05ZM4389.14 1208.04 4433.15 1208.04 4433.15 1537.05 4389.14 1537.05ZM4585.15 1484.05 4628.15 1484.05 4628.15 1537.05 4585.15 1537.05Z" fill="#4F81BD" fill-rule="nonzero" fill-opacity="1"/></g><g><path d="M1515.05 1371.04 1559.05 1371.04 1559.05 1537.05 1515.05 1537.05ZM1906.06 1668.05 1949.06 1668.05 1949.06 1537.05 1906.06 1537.05ZM2101.07 1701.06 2145.07 1701.06 2145.07 1537.05 2101.07 1537.05ZM2296.08 1601.05 2340.08 1601.05 2340.08 1537.05 2296.08 1537.05ZM2492.08 1525.05 2535.08 1525.05 2535.08 1537.05 2492.08 1537.05ZM2882.09 1398.05 2926.1 1398.05 2926.1 1537.05 2882.09 1537.05ZM3078.1 1495.05 3121.1 1495.05 3121.1 1537.05 3078.1 1537.05ZM3273.11 1430.05 3317.11 1430.05 3317.11 1537.05 3273.11 1537.05ZM3468.11 1472.05 3512.12 1472.05 3512.12 1537.05 3468.11 1537.05ZM3664.12 1521.05 3707.12 1521.05 3707.12 1537.05 3664.12 1537.05ZM4054.13 1446.05 4098.13 1446.05 4098.13 1537.05 4054.13 1537.05ZM4250.14 1521.05 4293.14 1521.05 4293.14 1537.05 4250.14 1537.05ZM4445.15 1529.05 4489.15 1529.05 4489.15 1537.05 4445.15 1537.05ZM4640.15 1456.05 4684.15 1456.05 4684.15 1537.05 4640.15 1537.05Z" fill="#C0504D" fill-rule="nonzero" fill-opacity="1"/></g><g><path d="M1411.5 1537.5 4732.5 1537.5" stroke="#D9D9D9" stroke-width="3.4375" stroke-linecap="butt" stroke-linejoin="round" stroke-miterlimit="10" stroke-opacity="1" fill="none" fill-rule="evenodd"/></g><g><path d="M1509 1531.84 1529.63 1531.84C1532.47 1531.84 1534.78 1534.15 1534.78 1537 1534.78 1539.85 1532.47 1542.16 1529.63 1542.16L1509 1542.16C1506.15 1542.16 1503.84 1539.85 1503.84 1537 1503.84 1534.15 1506.15 1531.84 1509 1531.84ZM1550.25 1531.84 1570.88 1531.84C1573.72 1531.84 1576.03 1534.15 1576.03 1537 1576.03 1539.85 1573.72 1542.16 1570.88 1542.16L1550.25 1542.16C1547.4 1542.16 1545.09 1539.85 1545.09 1537 1545.09 1534.15 1547.4 1531.84 1550.25 1531.84ZM1591.5 1531.84 1612.13 1531.84C1614.97 1531.84 1617.28 1534.15 1617.28 1537 1617.28 1539.85 1614.97 1542.16 1612.13 1542.16L1591.5 1542.16C1588.65 1542.16 1586.34 1539.85 1586.34 1537 1586.34 1534.15 1588.65 1531.84 1591.5 1531.84ZM1632.75 1531.84 1653.38 1531.84C1656.22 1531.84 1658.53 1534.15 1658.53 1537 1658.53 1539.85 1656.22 1542.16 1653.38 1542.16L1632.75 1542.16C1629.9 1542.16 1627.59 1539.85 1627.59 1537 1627.59 1534.15 1629.9 1531.84 1632.75 1531.84ZM1674 1531.84 1694.63 1531.84C1697.47 1531.84 1699.78 1534.15 1699.78 1537 1699.78 1539.85 1697.47 1542.16 1694.63 1542.16L1674 1542.16C1671.15 1542.16 1668.84 1539.85 1668.84 1537 1668.84 1534.15 1671.15 1531.84 1674 1531.84ZM1715.25 1531.84 1735.88 1531.84C1738.72 1531.84 1741.03 1534.15 1741.03 1537 1741.03 1539.85 1738.72 1542.16 1735.88 1542.16L1715.25 1542.16C1712.4 1542.16 1710.09 1539.85 1710.09 1537 1710.09 1534.15 1712.4 1531.84 1715.25 1531.84ZM1756.5 1531.84 1777.13 1531.84C1779.97 1531.84 1782.28 1534.15 1782.28 1537 1782.28 1539.85 1779.97 1542.16 1777.13 1542.16L1756.5 1542.16C1753.65 1542.16 1751.34 1539.85 1751.34 1537 1751.34 1534.15 1753.65 1531.84 1756.5 1531.84ZM1797.75 1531.84 1818.38 1531.84C1821.22 1531.84 1823.53 1534.15 1823.53 1537 1823.53 1539.85 1821.22 1542.16 1818.38 1542.16L1797.75 1542.16C1794.9 1542.16 1792.59 1539.85 1792.59 1537 1792.59 1534.15 1794.9 1531.84 1797.75 1531.84ZM1839 1531.84 1859.63 1531.84C1862.47 1531.84 1864.78 1534.15 1864.78 1537 1864.78 1539.85 1862.47 1542.16 1859.63 1542.16L1839 1542.16C1836.15 1542.16 1833.84 1539.85 1833.84 1537 1833.84 1534.15 1836.15 1531.84 1839 1531.84ZM1880.25 1531.84 1900.06 1531.84 1900.88 1531.84C1903.72 1531.84 1906.03 1534.15 1906.03 1537 1906.03 1539.85 1903.72 1542.16 1900.88 1542.16L1900.06 1542.16 1880.25 1542.16C1877.4 1542.16 1875.09 1539.85 1875.09 1537 1875.09 1534.15 1877.4 1531.84 1880.25 1531.84ZM1921.5 1531.84 1942.13 1531.84C1944.97 1531.84 1947.28 1534.15 1947.28 1537 1947.28 1539.85 1944.97 1542.16 1942.13 1542.16L1921.5 1542.16C1918.65 1542.16 1916.34 1539.85 1916.34 1537 1916.34 1534.15 1918.65 1531.84 1921.5 1531.84ZM1962.75 1531.84 1983.38 1531.84C1986.22 1531.84 1988.53 1534.15 1988.53 1537 1988.53 1539.85 1986.22 1542.16 1983.38 1542.16L1962.75 1542.16C1959.9 1542.16 1957.59 1539.85 1957.59 1537 1957.59 1534.15 1959.9 1531.84 1962.75 1531.84ZM2004 1531.84 2024.63 1531.84C2027.47 1531.84 2029.78 1534.15 2029.78 1537 2029.78 1539.85 2027.47 1542.16 2024.63 1542.16L2004 1542.16C2001.15 1542.16 1998.84 1539.85 1998.84 1537 1998.84 1534.15 2001.15 1531.84 2004 1531.84ZM2045.25 1531.84 2065.88 1531.84C2068.72 1531.84 2071.03 1534.15 2071.03 1537 2071.03 1539.85 2068.72 1542.16 2065.88 1542.16L2045.25 1542.16C2042.4 1542.16 2040.09 1539.85 2040.09 1537 2040.09 1534.15 2042.4 1531.84 2045.25 1531.84ZM2086.5 1531.84 2095.07 1531.84 2107.12 1531.84C2109.97 1531.84 2112.28 1534.15 2112.28 1537 2112.28 1539.85 2109.97 1542.16 2107.12 1542.16L2095.07 1542.16 2086.5 1542.16C2083.65 1542.16 2081.34 1539.85 2081.34 1537 2081.34 1534.15 2083.65 1531.84 2086.5 1531.84ZM2127.75 1531.84 2148.38 1531.84C2151.22 1531.84 2153.53 1534.15 2153.53 1537 2153.53 1539.85 2151.22 1542.16 2148.38 1542.16L2127.75 1542.16C2124.9 1542.16 2122.59 1539.85 2122.59 1537 2122.59 1534.15 2124.9 1531.84 2127.75 1531.84ZM2169 1531.84 2189.62 1531.84C2192.47 1531.84 2194.78 1534.15 2194.78 1537 2194.78 1539.85 2192.47 1542.16 2189.62 1542.16L2169 1542.16C2166.15 1542.16 2163.84 1539.85 2163.84 1537 2163.84 1534.15 2166.15 1531.84 2169 1531.84ZM2210.25 1531.84 2230.88 1531.84C2233.72 1531.84 2236.03 1534.15 2236.03 1537 2236.03 1539.85 2233.72 1542.16 2230.88 1542.16L2210.25 1542.16C2207.4 1542.16 2205.09 1539.85 2205.09 1537 2205.09 1534.15 2207.4 1531.84 2210.25 1531.84ZM2251.5 1531.84 2272.12 1531.84C2274.97 1531.84 2277.28 1534.15 2277.28 1537 2277.28 1539.85 2274.97 1542.16 2272.12 1542.16L2251.5 1542.16C2248.65 1542.16 2246.34 1539.85 2246.34 1537 2246.34 1534.15 2248.65 1531.84 2251.5 1531.84ZM2292.75 1531.84 2313.38 1531.84C2316.22 1531.84 2318.53 1534.15 2318.53 1537 2318.53 1539.85 2316.22 1542.16 2313.38 1542.16L2292.75 1542.16C2289.9 1542.16 2287.59 1539.85 2287.59 1537 2287.59 1534.15 2289.9 1531.84 2292.75 1531.84ZM2334 1531.84 2354.62 1531.84C2357.47 1531.84 2359.78 1534.15 2359.78 1537 2359.78 1539.85 2357.47 1542.16 2354.62 1542.16L2334 1542.16C2331.15 1542.16 2328.84 1539.85 2328.84 1537 2328.84 1534.15 2331.15 1531.84 2334 1531.84ZM2375.25 1531.84 2395.88 1531.84C2398.72 1531.84 2401.03 1534.15 2401.03 1537 2401.03 1539.85 2398.72 1542.16 2395.88 1542.16L2375.25 1542.16C2372.4 1542.16 2370.09 1539.85 2370.09 1537 2370.09 1534.15 2372.4 1531.84 2375.25 1531.84ZM2416.5 1531.84 2437.12 1531.84C2439.97 1531.84 2442.28 1534.15 2442.28 1537 2442.28 1539.85 2439.97 1542.16 2437.12 1542.16L2416.5 1542.16C2413.65 1542.16 2411.34 1539.85 2411.34 1537 2411.34 1534.15 2413.65 1531.84 2416.5 1531.84ZM2457.75 1531.84 2478.38 1531.84C2481.22 1531.84 2483.53 1534.15 2483.53 1537 2483.53 1539.85 2481.22 1542.16 2478.38 1542.16L2457.75 1542.16C2454.9 1542.16 2452.59 1539.85 2452.59 1537 2452.59 1534.15 2454.9 1531.84 2457.75 1531.84ZM2499 1531.84 2519.62 1531.84C2522.47 1531.84 2524.78 1534.15 2524.78 1537 2524.78 1539.85 2522.47 1542.16 2519.62 1542.16L2499 1542.16C2496.15 1542.16 2493.84 1539.85 2493.84 1537 2493.84 1534.15 2496.15 1531.84 2499 1531.84ZM2540.25 1531.84 2560.88 1531.84C2563.72 1531.84 2566.03 1534.15 2566.03 1537 2566.03 1539.85 2563.72 1542.16 2560.88 1542.16L2540.25 1542.16C2537.4 1542.16 2535.09 1539.85 2535.09 1537 2535.09 1534.15 2537.4 1531.84 2540.25 1531.84ZM2581.5 1531.84 2602.12 1531.84C2604.97 1531.84 2607.28 1534.15 2607.28 1537 2607.28 1539.85 2604.97 1542.16 2602.12 1542.16L2581.5 1542.16C2578.65 1542.16 2576.34 1539.85 2576.34 1537 2576.34 1534.15 2578.65 1531.84 2581.5 1531.84ZM2622.75 1531.84 2643.38 1531.84C2646.22 1531.84 2648.53 1534.15 2648.53 1537 2648.53 1539.85 2646.22 1542.16 2643.38 1542.16L2622.75 1542.16C2619.9 1542.16 2617.59 1539.85 2617.59 1537 2617.59 1534.15 2619.9 1531.84 2622.75 1531.84ZM2664 1531.84 2681.09 1531.84 2684.62 1531.84C2687.47 1531.84 2689.78 1534.15 2689.78 1537 2689.78 1539.85 2687.47 1542.16 2684.62 1542.16L2681.09 1542.16 2664 1542.16C2661.15 1542.16 2658.84 1539.85 2658.84 1537 2658.84 1534.15 2661.15 1531.84 2664 1531.84ZM2705.25 1531.84 2725.88 1531.84C2728.72 1531.84 2731.03 1534.15 2731.03 1537 2731.03 1539.85 2728.72 1542.16 2725.88 1542.16L2705.25 1542.16C2702.4 1542.16 2700.09 1539.85 2700.09 1537 2700.09 1534.15 2702.4 1531.84 2705.25 1531.84ZM2746.5 1531.84 2767.12 1531.84C2769.97 1531.84 2772.28 1534.15 2772.28 1537 2772.28 1539.85 2769.97 1542.16 2767.12 1542.16L2746.5 1542.16C2743.65 1542.16 2741.34 1539.85 2741.34 1537 2741.34 1534.15 2743.65 1531.84 2746.5 1531.84ZM2787.75 1531.84 2808.38 1531.84C2811.22 1531.84 2813.53 1534.15 2813.53 1537 2813.53 1539.85 2811.22 1542.16 2808.38 1542.16L2787.75 1542.16C2784.9 1542.16 2782.59 1539.85 2782.59 1537 2782.59 1534.15 2784.9 1531.84 2787.75 1531.84ZM2829 1531.84 2849.62 1531.84C2852.47 1531.84 2854.78 1534.15 2854.78 1537 2854.78 1539.85 2852.47 1542.16 2849.62 1542.16L2829 1542.16C2826.15 1542.16 2823.84 1539.85 2823.84 1537 2823.84 1534.15 2826.15 1531.84 2829 1531.84ZM2870.25 1531.84 2876.09 1531.84 2890.88 1531.84C2893.72 1531.84 2896.03 1534.15 2896.03 1537 2896.03 1539.85 2893.72 1542.16 2890.88 1542.16L2876.09 1542.16 2870.25 1542.16C2867.4 1542.16 2865.09 1539.85 2865.09 1537 2865.09 1534.15 2867.4 1531.84 2870.25 1531.84ZM2911.5 1531.84 2932.12 1531.84C2934.97 1531.84 2937.28 1534.15 2937.28 1537 2937.28 1539.85 2934.97 1542.16 2932.12 1542.16L2911.5 1542.16C2908.65 1542.16 2906.34 1539.85 2906.34 1537 2906.34 1534.15 2908.65 1531.84 2911.5 1531.84ZM2952.75 1531.84 2973.38 1531.84C2976.22 1531.84 2978.53 1534.15 2978.53 1537 2978.53 1539.85 2976.22 1542.16 2973.38 1542.16L2952.75 1542.16C2949.9 1542.16 2947.59 1539.85 2947.59 1537 2947.59 1534.15 2949.9 1531.84 2952.75 1531.84ZM2994 1531.84 3014.62 1531.84C3017.47 1531.84 3019.78 1534.15 3019.78 1537 3019.78 1539.85 3017.47 1542.16 3014.62 1542.16L2994 1542.16C2991.15 1542.16 2988.84 1539.85 2988.84 1537 2988.84 1534.15 2991.15 1531.84 2994 1531.84ZM3035.25 1531.84 3055.88 1531.84C3058.72 1531.84 3061.03 1534.15 3061.03 1537 3061.03 1539.85 3058.72 1542.16 3055.88 1542.16L3035.25 1542.16C3032.4 1542.16 3030.09 1539.85 3030.09 1537 3030.09 1534.15 3032.4 1531.84 3035.25 1531.84ZM3076.5 1531.84 3097.12 1531.84C3099.97 1531.84 3102.28 1534.15 3102.28 1537 3102.28 1539.85 3099.97 1542.16 3097.12 1542.16L3076.5 1542.16C3073.65 1542.16 3071.34 1539.85 3071.34 1537 3071.34 1534.15 3073.65 1531.84 3076.5 1531.84ZM3117.75 1531.84 3138.38 1531.84C3141.22 1531.84 3143.53 1534.15 3143.53 1537 3143.53 1539.85 3141.22 1542.16 3138.38 1542.16L3117.75 1542.16C3114.9 1542.16 3112.59 1539.85 3112.59 1537 3112.59 1534.15 3114.9 1531.84 3117.75 1531.84ZM3159 1531.84 3179.62 1531.84C3182.47 1531.84 3184.78 1534.15 3184.78 1537 3184.78 1539.85 3182.47 1542.16 3179.62 1542.16L3159 1542.16C3156.15 1542.16 3153.84 1539.85 3153.84 1537 3153.84 1534.15 3156.15 1531.84 3159 1531.84ZM3200.25 1531.84 3220.88 1531.84C3223.72 1531.84 3226.03 1534.15 3226.03 1537 3226.03 1539.85 3223.72 1542.16 3220.88 1542.16L3200.25 1542.16C3197.4 1542.16 3195.09 1539.85 3195.09 1537 3195.09 1534.15 3197.4 1531.84 3200.25 1531.84ZM3241.5 1531.84 3262.12 1531.84C3264.97 1531.84 3267.28 1534.15 3267.28 1537 3267.28 1539.85 3264.97 1542.16 3262.12 1542.16L3241.5 1542.16C3238.65 1542.16 3236.34 1539.85 3236.34 1537 3236.34 1534.15 3238.65 1531.84 3241.5 1531.84ZM3282.75 1531.84 3303.38 1531.84C3306.22 1531.84 3308.53 1534.15 3308.53 1537 3308.53 1539.85 3306.22 1542.16 3303.38 1542.16L3282.75 1542.16C3279.9 1542.16 3277.59 1539.85 3277.59 1537 3277.59 1534.15 3279.9 1531.84 3282.75 1531.84ZM3324 1531.84 3344.62 1531.84C3347.47 1531.84 3349.78 1534.15 3349.78 1537 3349.78 1539.85 3347.47 1542.16 3344.62 1542.16L3324 1542.16C3321.15 1542.16 3318.84 1539.85 3318.84 1537 3318.84 1534.15 3321.15 1531.84 3324 1531.84ZM3365.25 1531.84 3385.88 1531.84C3388.72 1531.84 3391.03 1534.15 3391.03 1537 3391.03 1539.85 3388.72 1542.16 3385.88 1542.16L3365.25 1542.16C3362.4 1542.16 3360.09 1539.85 3360.09 1537 3360.09 1534.15 3362.4 1531.84 3365.25 1531.84ZM3406.5 1531.84 3427.12 1531.84C3429.97 1531.84 3432.28 1534.15 3432.28 1537 3432.28 1539.85 3429.97 1542.16 3427.12 1542.16L3406.5 1542.16C3403.65 1542.16 3401.34 1539.85 3401.34 1537 3401.34 1534.15 3403.65 1531.84 3406.5 1531.84ZM3447.75 1531.84 3462.11 1531.84 3468.38 1531.84C3471.22 1531.84 3473.53 1534.15 3473.53 1537 3473.53 1539.85 3471.22 1542.16 3468.38 1542.16L3462.11 1542.16 3447.75 1542.16C3444.9 1542.16 3442.59 1539.85 3442.59 1537 3442.59 1534.15 3444.9 1531.84 3447.75 1531.84ZM3489 1531.84 3509.62 1531.84C3512.47 1531.84 3514.78 1534.15 3514.78 1537 3514.78 1539.85 3512.47 1542.16 3509.62 1542.16L3489 1542.16C3486.15 1542.16 3483.84 1539.85 3483.84 1537 3483.84 1534.15 3486.15 1531.84 3489 1531.84ZM3530.25 1531.84 3550.88 1531.84C3553.72 1531.84 3556.03 1534.15 3556.03 1537 3556.03 1539.85 3553.72 1542.16 3550.88 1542.16L3530.25 1542.16C3527.4 1542.16 3525.09 1539.85 3525.09 1537 3525.09 1534.15 3527.4 1531.84 3530.25 1531.84ZM3571.5 1531.84 3592.12 1531.84C3594.97 1531.84 3597.28 1534.15 3597.28 1537 3597.28 1539.85 3594.97 1542.16 3592.12 1542.16L3571.5 1542.16C3568.65 1542.16 3566.34 1539.85 3566.34 1537 3566.34 1534.15 3568.65 1531.84 3571.5 1531.84ZM3612.75 1531.84 3633.38 1531.84C3636.22 1531.84 3638.53 1534.15 3638.53 1537 3638.53 1539.85 3636.22 1542.16 3633.38 1542.16L3612.75 1542.16C3609.9 1542.16 3607.59 1539.85 3607.59 1537 3607.59 1534.15 3609.9 1531.84 3612.75 1531.84ZM3654 1531.84 3658.12 1531.84 3674.62 1531.84C3677.47 1531.84 3679.78 1534.15 3679.78 1537 3679.78 1539.85 3677.47 1542.16 3674.62 1542.16L3658.12 1542.16 3654 1542.16C3651.15 1542.16 3648.84 1539.85 3648.84 1537 3648.84 1534.15 3651.15 1531.84 3654 1531.84ZM3695.25 1531.84 3715.88 1531.84C3718.72 1531.84 3721.03 1534.15 3721.03 1537 3721.03 1539.85 3718.72 1542.16 3715.88 1542.16L3695.25 1542.16C3692.4 1542.16 3690.09 1539.85 3690.09 1537 3690.09 1534.15 3692.4 1531.84 3695.25 1531.84ZM3736.5 1531.84 3757.12 1531.84C3759.97 1531.84 3762.28 1534.15 3762.28 1537 3762.28 1539.85 3759.97 1542.16 3757.12 1542.16L3736.5 1542.16C3733.65 1542.16 3731.34 1539.85 3731.34 1537 3731.34 1534.15 3733.65 1531.84 3736.5 1531.84ZM3777.75 1531.84 3798.38 1531.84C3801.22 1531.84 3803.53 1534.15 3803.53 1537 3803.53 1539.85 3801.22 1542.16 3798.38 1542.16L3777.75 1542.16C3774.9 1542.16 3772.59 1539.85 3772.59 1537 3772.59 1534.15 3774.9 1531.84 3777.75 1531.84ZM3819 1531.84 3839.62 1531.84C3842.47 1531.84 3844.78 1534.15 3844.78 1537 3844.78 1539.85 3842.47 1542.16 3839.62 1542.16L3819 1542.16C3816.15 1542.16 3813.84 1539.85 3813.84 1537 3813.84 1534.15 3816.15 1531.84 3819 1531.84ZM3860.25 1531.84 3880.88 1531.84C3883.72 1531.84 3886.03 1534.15 3886.03 1537 3886.03 1539.85 3883.72 1542.16 3880.88 1542.16L3860.25 1542.16C3857.4 1542.16 3855.09 1539.85 3855.09 1537 3855.09 1534.15 3857.4 1531.84 3860.25 1531.84ZM3901.5 1531.84 3922.12 1531.84C3924.97 1531.84 3927.28 1534.15 3927.28 1537 3927.28 1539.85 3924.97 1542.16 3922.12 1542.16L3901.5 1542.16C3898.65 1542.16 3896.34 1539.85 3896.34 1537 3896.34 1534.15 3898.65 1531.84 3901.5 1531.84ZM3942.75 1531.84 3963.38 1531.84C3966.22 1531.84 3968.53 1534.15 3968.53 1537 3968.53 1539.85 3966.22 1542.16 3963.38 1542.16L3942.75 1542.16C3939.9 1542.16 3937.59 1539.85 3937.59 1537 3937.59 1534.15 3939.9 1531.84 3942.75 1531.84ZM3984 1531.84 4004.62 1531.84C4007.47 1531.84 4009.78 1534.15 4009.78 1537 4009.78 1539.85 4007.47 1542.16 4004.62 1542.16L3984 1542.16C3981.15 1542.16 3978.84 1539.85 3978.84 1537 3978.84 1534.15 3981.15 1531.84 3984 1531.84ZM4025.25 1531.84 4045.88 1531.84C4048.72 1531.84 4051.03 1534.15 4051.03 1537 4051.03 1539.85 4048.72 1542.16 4045.88 1542.16L4025.25 1542.16C4022.4 1542.16 4020.09 1539.85 4020.09 1537 4020.09 1534.15 4022.4 1531.84 4025.25 1531.84ZM4066.5 1531.84 4087.12 1531.84C4089.97 1531.84 4092.28 1534.15 4092.28 1537 4092.28 1539.85 4089.97 1542.16 4087.12 1542.16L4066.5 1542.16C4063.65 1542.16 4061.34 1539.85 4061.34 1537 4061.34 1534.15 4063.65 1531.84 4066.5 1531.84ZM4107.75 1531.84 4128.38 1531.84C4131.22 1531.84 4133.53 1534.15 4133.53 1537 4133.53 1539.85 4131.22 1542.16 4128.38 1542.16L4107.75 1542.16C4104.9 1542.16 4102.59 1539.85 4102.59 1537 4102.59 1534.15 4104.9 1531.84 4107.75 1531.84ZM4149 1531.84 4169.62 1531.84C4172.47 1531.84 4174.78 1534.15 4174.78 1537 4174.78 1539.85 4172.47 1542.16 4169.62 1542.16L4149 1542.16C4146.15 1542.16 4143.84 1539.85 4143.84 1537 4143.84 1534.15 4146.15 1531.84 4149 1531.84ZM4190.25 1531.84 4210.88 1531.84C4213.72 1531.84 4216.03 1534.15 4216.03 1537 4216.03 1539.85 4213.72 1542.16 4210.88 1542.16L4190.25 1542.16C4187.4 1542.16 4185.09 1539.85 4185.09 1537 4185.09 1534.15 4187.4 1531.84 4190.25 1531.84ZM4231.5 1531.84 4244.14 1531.84 4252.12 1531.84C4254.97 1531.84 4257.28 1534.15 4257.28 1537 4257.28 1539.85 4254.97 1542.16 4252.12 1542.16L4244.14 1542.16 4231.5 1542.16C4228.65 1542.16 4226.34 1539.85 4226.34 1537 4226.34 1534.15 4228.65 1531.84 4231.5 1531.84ZM4272.75 1531.84 4293.38 1531.84C4296.22 1531.84 4298.53 1534.15 4298.53 1537 4298.53 1539.85 4296.22 1542.16 4293.38 1542.16L4272.75 1542.16C4269.9 1542.16 4267.59 1539.85 4267.59 1537 4267.59 1534.15 4269.9 1531.84 4272.75 1531.84ZM4314 1531.84 4334.62 1531.84C4337.47 1531.84 4339.78 1534.15 4339.78 1537 4339.78 1539.85 4337.47 1542.16 4334.62 1542.16L4314 1542.16C4311.15 1542.16 4308.84 1539.85 4308.84 1537 4308.84 1534.15 4311.15 1531.84 4314 1531.84ZM4355.25 1531.84 4375.88 1531.84C4378.72 1531.84 4381.03 1534.15 4381.03 1537 4381.03 1539.85 4378.72 1542.16 4375.88 1542.16L4355.25 1542.16C4352.4 1542.16 4350.09 1539.85 4350.09 1537 4350.09 1534.15 4352.4 1531.84 4355.25 1531.84ZM4396.5 1531.84 4417.12 1531.84C4419.97 1531.84 4422.28 1534.15 4422.28 1537 4422.28 1539.85 4419.97 1542.16 4417.12 1542.16L4396.5 1542.16C4393.65 1542.16 4391.34 1539.85 4391.34 1537 4391.34 1534.15 4393.65 1531.84 4396.5 1531.84ZM4437.75 1531.84 4439.15 1531.84 4458.38 1531.84C4461.22 1531.84 4463.53 1534.15 4463.53 1537 4463.53 1539.85 4461.22 1542.16 4458.38 1542.16L4439.15 1542.16 4437.75 1542.16C4434.9 1542.16 4432.59 1539.85 4432.59 1537 4432.59 1534.15 4434.9 1531.84 4437.75 1531.84ZM4479 1531.84 4499.62 1531.84C4502.47 1531.84 4504.78 1534.15 4504.78 1537 4504.78 1539.85 4502.47 1542.16 4499.62 1542.16L4479 1542.16C4476.15 1542.16 4473.84 1539.85 4473.84 1537 4473.84 1534.15 4476.15 1531.84 4479 1531.84ZM4520.25 1531.84 4540.88 1531.84C4543.72 1531.84 4546.03 1534.15 4546.03 1537 4546.03 1539.85 4543.72 1542.16 4540.88 1542.16L4520.25 1542.16C4517.4 1542.16 4515.09 1539.85 4515.09 1537 4515.09 1534.15 4517.4 1531.84 4520.25 1531.84ZM4561.5 1531.84 4582.12 1531.84C4584.97 1531.84 4587.28 1534.15 4587.28 1537 4587.28 1539.85 4584.97 1542.16 4582.12 1542.16L4561.5 1542.16C4558.65 1542.16 4556.34 1539.85 4556.34 1537 4556.34 1534.15 4558.65 1531.84 4561.5 1531.84ZM4602.75 1531.84 4623.38 1531.84C4626.22 1531.84 4628.53 1534.15 4628.53 1537 4628.53 1539.85 4626.22 1542.16 4623.38 1542.16L4602.75 1542.16C4599.9 1542.16 4597.59 1539.85 4597.59 1537 4597.59 1534.15 4599.9 1531.84 4602.75 1531.84Z" fill="#9BBB59" fill-rule="nonzero" fill-opacity="1"/></g><g><text fill="#595959" fill-opacity="1" font-family="Calibri,Calibri_MSFontService,sans-serif" font-style="normal" font-variant="normal" font-weight="400" font-stretch="normal" font-size="41" text-anchor="start" direction="ltr" writing-mode="lr-tb" unicode-bidi="normal" text-decoration="none" transform="matrix(1 0 0 1 1297.7 2530)">-120</text></g><g><text fill="#595959" fill-opacity="1" font-family="Calibri,Calibri_MSFontService,sans-serif" font-style="normal" font-variant="normal" font-weight="400" font-stretch="normal" font-size="41" text-anchor="start" direction="ltr" writing-mode="lr-tb" unicode-bidi="normal" text-decoration="none" transform="matrix(1 0 0 1 1297.7 2366)">-100</text></g><g><text fill="#595959" fill-opacity="1" font-family="Calibri,Calibri_MSFontService,sans-serif" font-style="normal" font-variant="normal" font-weight="400" font-stretch="normal" font-size="41" text-anchor="start" direction="ltr" writing-mode="lr-tb" unicode-bidi="normal" text-decoration="none" transform="matrix(1 0 0 1 1318.6 2202)">-80</text></g><g><text fill="#595959" fill-opacity="1" font-family="Calibri,Calibri_MSFontService,sans-serif" font-style="normal" font-variant="normal" font-weight="400" font-stretch="normal" font-size="41" text-anchor="start" direction="ltr" writing-mode="lr-tb" unicode-bidi="normal" text-decoration="none" transform="matrix(1 0 0 1 1318.6 2039)">-60</text></g><g><text fill="#595959" fill-opacity="1" font-family="Calibri,Calibri_MSFontService,sans-serif" font-style="normal" font-variant="normal" font-weight="400" font-stretch="normal" font-size="41" text-anchor="start" direction="ltr" writing-mode="lr-tb" unicode-bidi="normal" text-decoration="none" transform="matrix(1 0 0 1 1318.6 1875)">-40</text></g><g><text fill="#595959" fill-opacity="1" font-family="Calibri,Calibri_MSFontService,sans-serif" font-style="normal" font-variant="normal" font-weight="400" font-stretch="normal" font-size="41" text-anchor="start" direction="ltr" writing-mode="lr-tb" unicode-bidi="normal" text-decoration="none" transform="matrix(1 0 0 1 1318.6 1711)">-20</text></g><g><text fill="#595959" fill-opacity="1" font-family="Calibri,Calibri_MSFontService,sans-serif" font-style="normal" font-variant="normal" font-weight="400" font-stretch="normal" font-size="41" text-anchor="start" direction="ltr" writing-mode="lr-tb" unicode-bidi="normal" text-decoration="none" transform="matrix(1 0 0 1 1352.13 1547)">0</text></g><g><text fill="#595959" fill-opacity="1" font-family="Calibri,Calibri_MSFontService,sans-serif" font-style="normal" font-variant="normal" font-weight="400" font-stretch="normal" font-size="41" text-anchor="start" direction="ltr" writing-mode="lr-tb" unicode-bidi="normal" text-decoration="none" transform="matrix(1 0 0 1 1331.23 1384)">20</text></g><g><text fill="#595959" fill-opacity="1" font-family="Calibri,Calibri_MSFontService,sans-serif" font-style="normal" font-variant="normal" font-weight="400" font-stretch="normal" font-size="41" text-anchor="start" direction="ltr" writing-mode="lr-tb" unicode-bidi="normal" text-decoration="none" transform="matrix(1 0 0 1 1331.23 1220)">40</text></g><g><text fill="#595959" fill-opacity="1" font-family="Calibri,Calibri_MSFontService,sans-serif" font-style="normal" font-variant="normal" font-weight="400" font-stretch="normal" font-size="41" text-anchor="start" direction="ltr" writing-mode="lr-tb" unicode-bidi="normal" text-decoration="none" transform="matrix(1 0 0 1 1331.23 1056)">60</text></g><g><text fill="#595959" fill-opacity="1" font-family="Calibri,Calibri_MSFontService,sans-serif" font-style="normal" font-variant="normal" font-weight="400" font-stretch="normal" font-size="41" text-anchor="start" direction="ltr" writing-mode="lr-tb" unicode-bidi="normal" text-decoration="none" transform="matrix(1 0 0 1 1331.23 893)">80</text></g><g><text fill="#595959" fill-opacity="1" font-family="Calibri,Calibri_MSFontService,sans-serif" font-style="normal" font-variant="normal" font-weight="400" font-stretch="normal" font-size="41" text-anchor="start" direction="ltr" writing-mode="lr-tb" unicode-bidi="normal" text-decoration="none" transform="matrix(1 0 0 1 1310.33 729)">100</text></g><g><text fill="#595959" fill-opacity="1" font-family="Calibri,Calibri_MSFontService,sans-serif" font-style="normal" font-variant="normal" font-weight="400" font-stretch="normal" font-size="41" text-anchor="start" direction="ltr" writing-mode="lr-tb" unicode-bidi="normal" text-decoration="none" transform="matrix(1 0 0 1 1490.45 1603)">s1</text></g><g><text fill="#595959" fill-opacity="1" font-family="Calibri,Calibri_MSFontService,sans-serif" font-style="normal" font-variant="normal" font-weight="400" font-stretch="normal" font-size="41" text-anchor="start" direction="ltr" writing-mode="lr-tb" unicode-bidi="normal" text-decoration="none" transform="matrix(1 0 0 1 1685.8 1603)">s2</text></g><g><text fill="#595959" fill-opacity="1" font-family="Calibri,Calibri_MSFontService,sans-serif" font-style="normal" font-variant="normal" font-weight="400" font-stretch="normal" font-size="41" text-anchor="start" direction="ltr" writing-mode="lr-tb" unicode-bidi="normal" text-decoration="none" transform="matrix(1 0 0 1 1881.15 1603)">s3</text></g><g><text fill="#595959" fill-opacity="1" font-family="Calibri,Calibri_MSFontService,sans-serif" font-style="normal" font-variant="normal" font-weight="400" font-stretch="normal" font-size="41" text-anchor="start" direction="ltr" writing-mode="lr-tb" unicode-bidi="normal" text-decoration="none" transform="matrix(1 0 0 1 2076.49 1603)">s4</text></g><g><text fill="#595959" fill-opacity="1" font-family="Calibri,Calibri_MSFontService,sans-serif" font-style="normal" font-variant="normal" font-weight="400" font-stretch="normal" font-size="41" text-anchor="start" direction="ltr" writing-mode="lr-tb" unicode-bidi="normal" text-decoration="none" transform="matrix(1 0 0 1 2271.84 1603)">s5</text></g><g><text fill="#595959" fill-opacity="1" font-family="Calibri,Calibri_MSFontService,sans-serif" font-style="normal" font-variant="normal" font-weight="400" font-stretch="normal" font-size="41" text-anchor="start" direction="ltr" writing-mode="lr-tb" unicode-bidi="normal" text-decoration="none" transform="matrix(1 0 0 1 2467.19 1603)">s6</text></g><g><text fill="#595959" fill-opacity="1" font-family="Calibri,Calibri_MSFontService,sans-serif" font-style="normal" font-variant="normal" font-weight="400" font-stretch="normal" font-size="41" text-anchor="start" direction="ltr" writing-mode="lr-tb" unicode-bidi="normal" text-decoration="none" transform="matrix(1 0 0 1 2662.53 1603)">s7</text></g><g><text fill="#595959" fill-opacity="1" font-family="Calibri,Calibri_MSFontService,sans-serif" font-style="normal" font-variant="normal" font-weight="400" font-stretch="normal" font-size="41" text-anchor="start" direction="ltr" writing-mode="lr-tb" unicode-bidi="normal" text-decoration="none" transform="matrix(1 0 0 1 2857.88 1603)">s8</text></g><g><text fill="#595959" fill-opacity="1" font-family="Calibri,Calibri_MSFontService,sans-serif" font-style="normal" font-variant="normal" font-weight="400" font-stretch="normal" font-size="41" text-anchor="start" direction="ltr" writing-mode="lr-tb" unicode-bidi="normal" text-decoration="none" transform="matrix(1 0 0 1 3053.23 1603)">s9</text></g><g><text fill="#595959" fill-opacity="1" font-family="Calibri,Calibri_MSFontService,sans-serif" font-style="normal" font-variant="normal" font-weight="400" font-stretch="normal" font-size="41" text-anchor="start" direction="ltr" writing-mode="lr-tb" unicode-bidi="normal" text-decoration="none" transform="matrix(1 0 0 1 3238.12 1603)">s10</text></g><g><text fill="#595959" fill-opacity="1" font-family="Calibri,Calibri_MSFontService,sans-serif" font-style="normal" font-variant="normal" font-weight="400" font-stretch="normal" font-size="41" text-anchor="start" direction="ltr" writing-mode="lr-tb" unicode-bidi="normal" text-decoration="none" transform="matrix(1 0 0 1 3433.47 1603)">s11</text></g><g><text fill="#595959" fill-opacity="1" font-family="Calibri,Calibri_MSFontService,sans-serif" font-style="normal" font-variant="normal" font-weight="400" font-stretch="normal" font-size="41" text-anchor="start" direction="ltr" writing-mode="lr-tb" unicode-bidi="normal" text-decoration="none" transform="matrix(1 0 0 1 3628.82 1603)">s12</text></g><g><text fill="#595959" fill-opacity="1" font-family="Calibri,Calibri_MSFontService,sans-serif" font-style="normal" font-variant="normal" font-weight="400" font-stretch="normal" font-size="41" text-anchor="start" direction="ltr" writing-mode="lr-tb" unicode-bidi="normal" text-decoration="none" transform="matrix(1 0 0 1 3824.16 1603)">s13</text></g><g><text fill="#595959" fill-opacity="1" font-family="Calibri,Calibri_MSFontService,sans-serif" font-style="normal" font-variant="normal" font-weight="400" font-stretch="normal" font-size="41" text-anchor="start" direction="ltr" writing-mode="lr-tb" unicode-bidi="normal" text-decoration="none" transform="matrix(1 0 0 1 4019.51 1603)">s14</text></g><g><text fill="#595959" fill-opacity="1" font-family="Calibri,Calibri_MSFontService,sans-serif" font-style="normal" font-variant="normal" font-weight="400" font-stretch="normal" font-size="41" text-anchor="start" direction="ltr" writing-mode="lr-tb" unicode-bidi="normal" text-decoration="none" transform="matrix(1 0 0 1 4214.86 1603)">s15</text></g><g><text fill="#595959" fill-opacity="1" font-family="Calibri,Calibri_MSFontService,sans-serif" font-style="normal" font-variant="normal" font-weight="400" font-stretch="normal" font-size="41" text-anchor="start" direction="ltr" writing-mode="lr-tb" unicode-bidi="normal" text-decoration="none" transform="matrix(1 0 0 1 4410.21 1603)">s16</text></g><g><text fill="#595959" fill-opacity="1" font-family="Calibri,Calibri_MSFontService,sans-serif" font-style="normal" font-variant="normal" font-weight="400" font-stretch="normal" font-size="41" text-anchor="start" direction="ltr" writing-mode="lr-tb" unicode-bidi="normal" text-decoration="none" transform="matrix(1 0 0 1 4605.55 1603)">s17</text></g><g><text fill="#595959" fill-opacity="1" font-family="Calibri,Calibri_MSFontService,sans-serif" font-style="normal" font-variant="normal" font-weight="400" font-stretch="normal" font-size="46" text-anchor="start" direction="ltr" writing-mode="lr-tb" unicode-bidi="normal" text-decoration="none" transform="matrix(6.12323e-17 -1 1 6.12323e-17 1272.01 1693)">Euro (€)</text></g><g><text fill="#595959" fill-opacity="1" font-family="Calibri,Calibri_MSFontService,sans-serif" font-style="normal" font-variant="normal" font-weight="400" font-stretch="normal" font-size="64" text-anchor="start" direction="ltr" writing-mode="lr-tb" unicode-bidi="normal" text-decoration="none" transform="matrix(1 0 0 1 2878.15 644)">SV e CV</text></g><g><rect x="2156" y="2597" width="116" height="23" fill="#4F81BD" fill-opacity="1"/></g><g><text fill="#595959" fill-opacity="1" font-family="Calibri,Calibri_MSFontService,sans-serif" font-style="normal" font-variant="normal" font-weight="400" font-stretch="normal" font-size="41" text-anchor="start" direction="ltr" writing-mode="lr-tb" unicode-bidi="normal" text-decoration="none" transform="matrix(1 0 0 1 2284.37 2619)">SV </text></g><g><text fill="#595959" fill-opacity="1" font-family="Calibri,Calibri_MSFontService,sans-serif" font-style="normal" font-variant="normal" font-weight="400" font-stretch="normal" font-size="41" text-anchor="start" direction="ltr" writing-mode="lr-tb" unicode-bidi="normal" text-decoration="none" transform="matrix(1 0 0 1 2336.04 2619)">-</text></g><g><text fill="#595959" fill-opacity="1" font-family="Calibri,Calibri_MSFontService,sans-serif" font-style="normal" font-variant="normal" font-weight="400" font-stretch="normal" font-size="41" text-anchor="start" direction="ltr" writing-mode="lr-tb" unicode-bidi="normal" text-decoration="none" transform="matrix(1 0 0 1 2358 2619)">Schedule Variance (€)</text></g><g><rect x="2813" y="2597" width="116" height="23" fill="#C0504D" fill-opacity="1"/></g><g><text fill="#595959" fill-opacity="1" font-family="Calibri,Calibri_MSFontService,sans-serif" font-style="normal" font-variant="normal" font-weight="400" font-stretch="normal" font-size="41" text-anchor="start" direction="ltr" writing-mode="lr-tb" unicode-bidi="normal" text-decoration="none" transform="matrix(1 0 0 1 2941.54 2619)">CV </text></g><g><text fill="#595959" fill-opacity="1" font-family="Calibri,Calibri_MSFontService,sans-serif" font-style="normal" font-variant="normal" font-weight="400" font-stretch="normal" font-size="41" text-anchor="start" direction="ltr" writing-mode="lr-tb" unicode-bidi="normal" text-decoration="none" transform="matrix(1 0 0 1 2996.27 2619)">-</text></g><g><text fill="#595959" fill-opacity="1" font-family="Calibri,Calibri_MSFontService,sans-serif" font-style="normal" font-variant="normal" font-weight="400" font-stretch="normal" font-size="41" text-anchor="start" direction="ltr" writing-mode="lr-tb" unicode-bidi="normal" text-decoration="none" transform="matrix(1 0 0 1 3018.22 2619)">Cost Variance (€)</text></g><g><path d="M3395 2603.84 3415.62 2603.84C3418.47 2603.84 3420.78 2606.15 3420.78 2609 3420.78 2611.85 3418.47 2614.16 3415.62 2614.16L3395 2614.16C3392.15 2614.16 3389.84 2611.85 3389.84 2609 3389.84 2606.15 3392.15 2603.84 3395 2603.84ZM3436.25 2603.84 3456.87 2603.84C3459.72 2603.84 3462.03 2606.15 3462.03 2609 3462.03 2611.85 3459.72 2614.16 3456.87 2614.16L3436.25 2614.16C3433.4 2614.16 3431.09 2611.85 3431.09 2609 3431.09 2606.15 3433.4 2603.84 3436.25 2603.84ZM3477.5 2603.84 3498.12 2603.84C3500.97 2603.84 3503.28 2606.15 3503.28 2609 3503.28 2611.85 3500.97 2614.16 3498.12 2614.16L3477.5 2614.16C3474.65 2614.16 3472.34 2611.85 3472.34 2609 3472.34 2606.15 3474.65 2603.84 3477.5 2603.84Z" fill="#9BBB59" fill-rule="nonzero" fill-opacity="1"/></g><g><text fill="#595959" fill-opacity="1" font-family="Calibri,Calibri_MSFontService,sans-serif" font-style="normal" font-variant="normal" font-weight="400" font-stretch="normal" font-size="41" text-anchor="start" direction="ltr" writing-mode="lr-tb" unicode-bidi="normal" text-decoration="none" transform="matrix(1 0 0 1 3523.51 2619)">Soglia acc CV (&gt;0)</text></g><rect x="1171.5" y="549.5" width="3612" height="2126" stroke="#D9D9D9" stroke-width="3.4375" stroke-linecap="butt" stroke-linejoin="round" stroke-miterlimit="10" stroke-opacity="1" fill="none"/></g></g></svg>