<svg width="3287" height="1595" xmlns="http://www.w3.org/2000/svg" xmlns:xlink="http://www.w3.org/1999/xlink" xml:space="preserve" overflow="hidden"><defs><clipPath id="clip0"><rect x="1113" y="866" width="3287" height="1595"/></clipPath><clipPath id="clip1"><rect x="1113" y="866" width="3287" height="1595"/></clipPath></defs><g clip-path="url(#clip0)" transform="translate(-1113 -866)"><g clip-path="url(#clip1)"><rect x="1118" y="869" width="3277" height="1588" fill="#FFFFFF" fill-opacity="1"/><g><path d="M1377.5 2004.57 4224.5 2004.57M1377.5 1762.56 4224.5 1762.56M1377.5 1521.55 4224.5 1521.55M1377.5 1279.54 4224.5 1279.54M1377.5 1038.5 4224.5 1038.5" stroke="#D9D9D9" stroke-width="3.4375" stroke-linecap="butt" stroke-linejoin="round" stroke-miterlimit="10" stroke-opacity="1" fill="none" fill-rule="nonzero"/></g><g><path d="M1802.06 1135.04 1902.06 1135.04 1902.06 2246 1802.06 2246ZM2119.07 1521.05 2218.07 1521.05 2218.07 2246 2119.07 2246ZM2435.08 1859.06 2534.08 1859.06 2534.08 2246 2435.08 2246ZM2751.09 2052.07 2851.09 2052.07 2851.09 2246 2751.09 2246ZM3068.1 2173.07 3167.1 2173.07 3167.1 2246 3068.1 2246ZM3384.11 2236.07 3483.11 2236.07 3483.11 2246 3384.11 2246ZM3701.12 2241.07 3800.12 2241.07 3800.12 2246 3701.12 2246Z" fill="#4F81BD" fill-rule="nonzero" fill-opacity="1"/></g><g><path d="M1377.5 2245.5 4224.5 2245.5" stroke="#D9D9D9" stroke-width="3.4375" stroke-linecap="butt" stroke-linejoin="round" stroke-miterlimit="10" stroke-opacity="1" fill="none" fill-rule="evenodd"/></g><g><path d="M1536 1757.84 1556.62 1757.84C1559.47 1757.84 1561.78 1760.15 1561.78 1763 1561.78 1765.85 1559.47 1768.16 1556.62 1768.16L1536 1768.16C1533.15 1768.16 1530.84 1765.85 1530.84 1763 1530.84 1760.15 1533.15 1757.84 1536 1757.84ZM1577.25 1757.84 1597.87 1757.84C1600.72 1757.84 1603.03 1760.15 1603.03 1763 1603.03 1765.85 1600.72 1768.16 1597.87 1768.16L1577.25 1768.16C1574.4 1768.16 1572.09 1765.85 1572.09 1763 1572.09 1760.15 1574.4 1757.84 1577.25 1757.84ZM1618.5 1757.84 1639.12 1757.84C1641.97 1757.84 1644.28 1760.15 1644.28 1763 1644.28 1765.85 1641.97 1768.16 1639.12 1768.16L1618.5 1768.16C1615.65 1768.16 1613.34 1765.85 1613.34 1763 1613.34 1760.15 1615.65 1757.84 1618.5 1757.84ZM1659.75 1757.84 1680.37 1757.84C1683.22 1757.84 1685.53 1760.15 1685.53 1763 1685.53 1765.85 1683.22 1768.16 1680.37 1768.16L1659.75 1768.16C1656.9 1768.16 1654.59 1765.85 1654.59 1763 1654.59 1760.15 1656.9 1757.84 1659.75 1757.84ZM1701 1757.84 1721.62 1757.84C1724.47 1757.84 1726.78 1760.15 1726.78 1763 1726.78 1765.85 1724.47 1768.16 1721.62 1768.16L1701 1768.16C1698.15 1768.16 1695.84 1765.85 1695.84 1763 1695.84 1760.15 1698.15 1757.84 1701 1757.84ZM1742.25 1757.84 1762.87 1757.84C1765.72 1757.84 1768.03 1760.15 1768.03 1763 1768.03 1765.85 1765.72 1768.16 1762.87 1768.16L1742.25 1768.16C1739.4 1768.16 1737.09 1765.85 1737.09 1763 1737.09 1760.15 1739.4 1757.84 1742.25 1757.84ZM1783.5 1757.84 1804.12 1757.84C1806.97 1757.84 1809.28 1760.15 1809.28 1763 1809.28 1765.85 1806.97 1768.16 1804.12 1768.16L1783.5 1768.16C1780.65 1768.16 1778.34 1765.85 1778.34 1763 1778.34 1760.15 1780.65 1757.84 1783.5 1757.84ZM1824.75 1757.84 1845.37 1757.84C1848.22 1757.84 1850.53 1760.15 1850.53 1763 1850.53 1765.85 1848.22 1768.16 1845.37 1768.16L1824.75 1768.16C1821.9 1768.16 1819.59 1765.85 1819.59 1763 1819.59 1760.15 1821.9 1757.84 1824.75 1757.84ZM1866 1757.84 1886.62 1757.84C1889.47 1757.84 1891.78 1760.15 1891.78 1763 1891.78 1765.85 1889.47 1768.16 1886.62 1768.16L1866 1768.16C1863.15 1768.16 1860.84 1765.85 1860.84 1763 1860.84 1760.15 1863.15 1757.84 1866 1757.84ZM1907.25 1757.84 1927.87 1757.84C1930.72 1757.84 1933.03 1760.15 1933.03 1763 1933.03 1765.85 1930.72 1768.16 1927.87 1768.16L1907.25 1768.16C1904.4 1768.16 1902.09 1765.85 1902.09 1763 1902.09 1760.15 1904.4 1757.84 1907.25 1757.84ZM1948.5 1757.84 1969.12 1757.84C1971.97 1757.84 1974.28 1760.15 1974.28 1763 1974.28 1765.85 1971.97 1768.16 1969.12 1768.16L1948.5 1768.16C1945.65 1768.16 1943.34 1765.85 1943.34 1763 1943.34 1760.15 1945.65 1757.84 1948.5 1757.84ZM1989.75 1757.84 2010.37 1757.84C2013.22 1757.84 2015.53 1760.15 2015.53 1763 2015.53 1765.85 2013.22 1768.16 2010.37 1768.16L1989.75 1768.16C1986.9 1768.16 1984.59 1765.85 1984.59 1763 1984.59 1760.15 1986.9 1757.84 1989.75 1757.84ZM2031 1757.84 2051.62 1757.84C2054.47 1757.84 2056.78 1760.15 2056.78 1763 2056.78 1765.85 2054.47 1768.16 2051.62 1768.16L2031 1768.16C2028.15 1768.16 2025.84 1765.85 2025.84 1763 2025.84 1760.15 2028.15 1757.84 2031 1757.84ZM2072.25 1757.84 2092.87 1757.84C2095.72 1757.84 2098.03 1760.15 2098.03 1763 2098.03 1765.85 2095.72 1768.16 2092.87 1768.16L2072.25 1768.16C2069.4 1768.16 2067.09 1765.85 2067.09 1763 2067.09 1760.15 2069.4 1757.84 2072.25 1757.84ZM2113.5 1757.84 2134.12 1757.84C2136.97 1757.84 2139.28 1760.15 2139.28 1763 2139.28 1765.85 2136.97 1768.16 2134.12 1768.16L2113.5 1768.16C2110.65 1768.16 2108.34 1765.85 2108.34 1763 2108.34 1760.15 2110.65 1757.84 2113.5 1757.84ZM2154.75 1757.84 2168.07 1757.84 2175.37 1757.84C2178.22 1757.84 2180.53 1760.15 2180.53 1763 2180.53 1765.85 2178.22 1768.16 2175.37 1768.16L2168.07 1768.16 2154.75 1768.16C2151.9 1768.16 2149.59 1765.85 2149.59 1763 2149.59 1760.15 2151.9 1757.84 2154.75 1757.84ZM2196 1757.84 2216.62 1757.84C2219.47 1757.84 2221.78 1760.15 2221.78 1763 2221.78 1765.85 2219.47 1768.16 2216.62 1768.16L2196 1768.16C2193.15 1768.16 2190.84 1765.85 2190.84 1763 2190.84 1760.15 2193.15 1757.84 2196 1757.84ZM2237.25 1757.84 2257.87 1757.84C2260.72 1757.84 2263.03 1760.15 2263.03 1763 2263.03 1765.85 2260.72 1768.16 2257.87 1768.16L2237.25 1768.16C2234.4 1768.16 2232.09 1765.85 2232.09 1763 2232.09 1760.15 2234.4 1757.84 2237.25 1757.84ZM2278.5 1757.84 2299.12 1757.84C2301.97 1757.84 2304.28 1760.15 2304.28 1763 2304.28 1765.85 2301.97 1768.16 2299.12 1768.16L2278.5 1768.16C2275.65 1768.16 2273.34 1765.85 2273.34 1763 2273.34 1760.15 2275.65 1757.84 2278.5 1757.84ZM2319.75 1757.84 2340.37 1757.84C2343.22 1757.84 2345.53 1760.15 2345.53 1763 2345.53 1765.85 2343.22 1768.16 2340.37 1768.16L2319.75 1768.16C2316.9 1768.16 2314.59 1765.85 2314.59 1763 2314.59 1760.15 2316.9 1757.84 2319.75 1757.84ZM2361 1757.84 2381.62 1757.84C2384.47 1757.84 2386.78 1760.15 2386.78 1763 2386.78 1765.85 2384.47 1768.16 2381.62 1768.16L2361 1768.16C2358.15 1768.16 2355.84 1765.85 2355.84 1763 2355.84 1760.15 2358.15 1757.84 2361 1757.84ZM2402.25 1757.84 2422.87 1757.84C2425.72 1757.84 2428.03 1760.15 2428.03 1763 2428.03 1765.85 2425.72 1768.16 2422.87 1768.16L2402.25 1768.16C2399.4 1768.16 2397.09 1765.85 2397.09 1763 2397.09 1760.15 2399.4 1757.84 2402.25 1757.84ZM2443.5 1757.84 2464.12 1757.84C2466.97 1757.84 2469.28 1760.15 2469.28 1763 2469.28 1765.85 2466.97 1768.16 2464.12 1768.16L2443.5 1768.16C2440.65 1768.16 2438.34 1765.85 2438.34 1763 2438.34 1760.15 2440.65 1757.84 2443.5 1757.84ZM2484.75 1757.84 2485.08 1757.84 2505.37 1757.84C2508.22 1757.84 2510.53 1760.15 2510.53 1763 2510.53 1765.85 2508.22 1768.16 2505.37 1768.16L2485.08 1768.16 2484.75 1768.16C2481.9 1768.16 2479.59 1765.85 2479.59 1763 2479.59 1760.15 2481.9 1757.84 2484.75 1757.84ZM2526 1757.84 2546.62 1757.84C2549.47 1757.84 2551.78 1760.15 2551.78 1763 2551.78 1765.85 2549.47 1768.16 2546.62 1768.16L2526 1768.16C2523.15 1768.16 2520.84 1765.85 2520.84 1763 2520.84 1760.15 2523.15 1757.84 2526 1757.84ZM2567.25 1757.84 2587.87 1757.84C2590.72 1757.84 2593.03 1760.15 2593.03 1763 2593.03 1765.85 2590.72 1768.16 2587.87 1768.16L2567.25 1768.16C2564.4 1768.16 2562.09 1765.85 2562.09 1763 2562.09 1760.15 2564.4 1757.84 2567.25 1757.84ZM2608.5 1757.84 2629.12 1757.84C2631.97 1757.84 2634.28 1760.15 2634.28 1763 2634.28 1765.85 2631.97 1768.16 2629.12 1768.16L2608.5 1768.16C2605.65 1768.16 2603.34 1765.85 2603.34 1763 2603.34 1760.15 2605.65 1757.84 2608.5 1757.84ZM2649.75 1757.84 2670.37 1757.84C2673.22 1757.84 2675.53 1760.15 2675.53 1763 2675.53 1765.85 2673.22 1768.16 2670.37 1768.16L2649.75 1768.16C2646.9 1768.16 2644.59 1765.85 2644.59 1763 2644.59 1760.15 2646.9 1757.84 2649.75 1757.84ZM2691 1757.84 2711.62 1757.84C2714.47 1757.84 2716.78 1760.15 2716.78 1763 2716.78 1765.85 2714.47 1768.16 2711.62 1768.16L2691 1768.16C2688.15 1768.16 2685.84 1765.85 2685.84 1763 2685.84 1760.15 2688.15 1757.84 2691 1757.84ZM2732.25 1757.84 2752.87 1757.84C2755.72 1757.84 2758.03 1760.15 2758.03 1763 2758.03 1765.85 2755.72 1768.16 2752.87 1768.16L2732.25 1768.16C2729.4 1768.16 2727.09 1765.85 2727.09 1763 2727.09 1760.15 2729.4 1757.84 2732.25 1757.84ZM2773.5 1757.84 2794.12 1757.84C2796.97 1757.84 2799.28 1760.15 2799.28 1763 2799.28 1765.85 2796.97 1768.16 2794.12 1768.16L2773.5 1768.16C2770.65 1768.16 2768.34 1765.85 2768.34 1763 2768.34 1760.15 2770.65 1757.84 2773.5 1757.84ZM2814.75 1757.84 2835.37 1757.84C2838.22 1757.84 2840.53 1760.15 2840.53 1763 2840.53 1765.85 2838.22 1768.16 2835.37 1768.16L2814.75 1768.16C2811.9 1768.16 2809.59 1765.85 2809.59 1763 2809.59 1760.15 2811.9 1757.84 2814.75 1757.84ZM2856 1757.84 2876.62 1757.84C2879.47 1757.84 2881.78 1760.15 2881.78 1763 2881.78 1765.85 2879.47 1768.16 2876.62 1768.16L2856 1768.16C2853.15 1768.16 2850.84 1765.85 2850.84 1763 2850.84 1760.15 2853.15 1757.84 2856 1757.84ZM2897.25 1757.84 2917.87 1757.84C2920.72 1757.84 2923.03 1760.15 2923.03 1763 2923.03 1765.85 2920.72 1768.16 2917.87 1768.16L2897.25 1768.16C2894.4 1768.16 2892.09 1765.85 2892.09 1763 2892.09 1760.15 2894.4 1757.84 2897.25 1757.84ZM2938.5 1757.84 2959.12 1757.84C2961.97 1757.84 2964.28 1760.15 2964.28 1763 2964.28 1765.85 2961.97 1768.16 2959.12 1768.16L2938.5 1768.16C2935.65 1768.16 2933.34 1765.85 2933.34 1763 2933.34 1760.15 2935.65 1757.84 2938.5 1757.84ZM2979.75 1757.84 3000.37 1757.84C3003.22 1757.84 3005.53 1760.15 3005.53 1763 3005.53 1765.85 3003.22 1768.16 3000.37 1768.16L2979.75 1768.16C2976.9 1768.16 2974.59 1765.85 2974.59 1763 2974.59 1760.15 2976.9 1757.84 2979.75 1757.84ZM3021 1757.84 3041.62 1757.84C3044.47 1757.84 3046.78 1760.15 3046.78 1763 3046.78 1765.85 3044.47 1768.16 3041.62 1768.16L3021 1768.16C3018.15 1768.16 3015.84 1765.85 3015.84 1763 3015.84 1760.15 3018.15 1757.84 3021 1757.84ZM3062.25 1757.84 3082.87 1757.84C3085.72 1757.84 3088.03 1760.15 3088.03 1763 3088.03 1765.85 3085.72 1768.16 3082.87 1768.16L3062.25 1768.16C3059.4 1768.16 3057.09 1765.85 3057.09 1763 3057.09 1760.15 3059.4 1757.84 3062.25 1757.84ZM3103.5 1757.84 3117.1 1757.84 3124.12 1757.84C3126.97 1757.84 3129.28 1760.15 3129.28 1763 3129.28 1765.85 3126.97 1768.16 3124.12 1768.16L3117.1 1768.16 3103.5 1768.16C3100.65 1768.16 3098.34 1765.85 3098.34 1763 3098.34 1760.15 3100.65 1757.84 3103.5 1757.84ZM3144.75 1757.84 3165.37 1757.84C3168.22 1757.84 3170.53 1760.15 3170.53 1763 3170.53 1765.85 3168.22 1768.16 3165.37 1768.16L3144.75 1768.16C3141.9 1768.16 3139.59 1765.85 3139.59 1763 3139.59 1760.15 3141.9 1757.84 3144.75 1757.84ZM3186 1757.84 3206.62 1757.84C3209.47 1757.84 3211.78 1760.15 3211.78 1763 3211.78 1765.85 3209.47 1768.16 3206.62 1768.16L3186 1768.16C3183.15 1768.16 3180.84 1765.85 3180.84 1763 3180.84 1760.15 3183.15 1757.84 3186 1757.84ZM3227.25 1757.84 3247.87 1757.84C3250.72 1757.84 3253.03 1760.15 3253.03 1763 3253.03 1765.85 3250.72 1768.16 3247.87 1768.16L3227.25 1768.16C3224.4 1768.16 3222.09 1765.85 3222.09 1763 3222.09 1760.15 3224.4 1757.84 3227.25 1757.84ZM3268.5 1757.84 3289.12 1757.84C3291.97 1757.84 3294.28 1760.15 3294.28 1763 3294.28 1765.85 3291.97 1768.16 3289.12 1768.16L3268.5 1768.16C3265.65 1768.16 3263.34 1765.85 3263.34 1763 3263.34 1760.15 3265.65 1757.84 3268.5 1757.84ZM3309.75 1757.84 3330.37 1757.84C3333.22 1757.84 3335.53 1760.15 3335.53 1763 3335.53 1765.85 3333.22 1768.16 3330.37 1768.16L3309.75 1768.16C3306.9 1768.16 3304.59 1765.85 3304.59 1763 3304.59 1760.15 3306.9 1757.84 3309.75 1757.84ZM3351 1757.84 3371.62 1757.84C3374.47 1757.84 3376.78 1760.15 3376.78 1763 3376.78 1765.85 3374.47 1768.16 3371.62 1768.16L3351 1768.16C3348.15 1768.16 3345.84 1765.85 3345.84 1763 3345.84 1760.15 3348.15 1757.84 3351 1757.84ZM3392.25 1757.84 3412.87 1757.84C3415.72 1757.84 3418.03 1760.15 3418.03 1763 3418.03 1765.85 3415.72 1768.16 3412.87 1768.16L3392.25 1768.16C3389.4 1768.16 3387.09 1765.85 3387.09 1763 3387.09 1760.15 3389.4 1757.84 3392.25 1757.84ZM3433.5 1757.84 3434.11 1757.84 3454.12 1757.84C3456.97 1757.84 3459.28 1760.15 3459.28 1763 3459.28 1765.85 3456.97 1768.16 3454.12 1768.16L3434.11 1768.16 3433.5 1768.16C3430.65 1768.16 3428.34 1765.85 3428.34 1763 3428.34 1760.15 3430.65 1757.84 3433.5 1757.84ZM3474.75 1757.84 3495.37 1757.84C3498.22 1757.84 3500.53 1760.15 3500.53 1763 3500.53 1765.85 3498.22 1768.16 3495.37 1768.16L3474.75 1768.16C3471.9 1768.16 3469.59 1765.85 3469.59 1763 3469.59 1760.15 3471.9 1757.84 3474.75 1757.84ZM3516 1757.84 3536.62 1757.84C3539.47 1757.84 3541.78 1760.15 3541.78 1763 3541.78 1765.85 3539.47 1768.16 3536.62 1768.16L3516 1768.16C3513.15 1768.16 3510.84 1765.85 3510.84 1763 3510.84 1760.15 3513.15 1757.84 3516 1757.84ZM3557.25 1757.84 3577.87 1757.84C3580.72 1757.84 3583.03 1760.15 3583.03 1763 3583.03 1765.85 3580.72 1768.16 3577.87 1768.16L3557.25 1768.16C3554.4 1768.16 3552.09 1765.85 3552.09 1763 3552.09 1760.15 3554.4 1757.84 3557.25 1757.84ZM3598.5 1757.84 3619.12 1757.84C3621.97 1757.84 3624.28 1760.15 3624.28 1763 3624.28 1765.85 3621.97 1768.16 3619.12 1768.16L3598.5 1768.16C3595.65 1768.16 3593.34 1765.85 3593.34 1763 3593.34 1760.15 3595.65 1757.84 3598.5 1757.84ZM3639.75 1757.84 3660.37 1757.84C3663.22 1757.84 3665.53 1760.15 3665.53 1763 3665.53 1765.85 3663.22 1768.16 3660.37 1768.16L3639.75 1768.16C3636.9 1768.16 3634.59 1765.85 3634.59 1763 3634.59 1760.15 3636.9 1757.84 3639.75 1757.84ZM3681 1757.84 3701.62 1757.84C3704.47 1757.84 3706.78 1760.15 3706.78 1763 3706.78 1765.85 3704.47 1768.16 3701.62 1768.16L3681 1768.16C3678.15 1768.16 3675.84 1765.85 3675.84 1763 3675.84 1760.15 3678.15 1757.84 3681 1757.84ZM3722.25 1757.84 3742.87 1757.84C3745.72 1757.84 3748.03 1760.15 3748.03 1763 3748.03 1765.85 3745.72 1768.16 3742.87 1768.16L3722.25 1768.16C3719.4 1768.16 3717.09 1765.85 3717.09 1763 3717.09 1760.15 3719.4 1757.84 3722.25 1757.84Z" fill="#9BBB59" fill-rule="nonzero" fill-opacity="1"/></g><g><path d="M1536 1234.84 1556.62 1234.84C1559.47 1234.84 1561.78 1237.15 1561.78 1240 1561.78 1242.85 1559.47 1245.16 1556.62 1245.16L1536 1245.16C1533.15 1245.16 1530.84 1242.85 1530.84 1240 1530.84 1237.15 1533.15 1234.84 1536 1234.84ZM1577.25 1234.84 1597.87 1234.84C1600.72 1234.84 1603.03 1237.15 1603.03 1240 1603.03 1242.85 1600.72 1245.16 1597.87 1245.16L1577.25 1245.16C1574.4 1245.16 1572.09 1242.85 1572.09 1240 1572.09 1237.15 1574.4 1234.84 1577.25 1234.84ZM1618.5 1234.84 1639.12 1234.84C1641.97 1234.84 1644.28 1237.15 1644.28 1240 1644.28 1242.85 1641.97 1245.16 1639.12 1245.16L1618.5 1245.16C1615.65 1245.16 1613.34 1242.85 1613.34 1240 1613.34 1237.15 1615.65 1234.84 1618.5 1234.84ZM1659.75 1234.84 1680.37 1234.84C1683.22 1234.84 1685.53 1237.15 1685.53 1240 1685.53 1242.85 1683.22 1245.16 1680.37 1245.16L1659.75 1245.16C1656.9 1245.16 1654.59 1242.85 1654.59 1240 1654.59 1237.15 1656.9 1234.84 1659.75 1234.84ZM1701 1234.84 1721.62 1234.84C1724.47 1234.84 1726.78 1237.15 1726.78 1240 1726.78 1242.85 1724.47 1245.16 1721.62 1245.16L1701 1245.16C1698.15 1245.16 1695.84 1242.85 1695.84 1240 1695.84 1237.15 1698.15 1234.84 1701 1234.84ZM1742.25 1234.84 1762.87 1234.84C1765.72 1234.84 1768.03 1237.15 1768.03 1240 1768.03 1242.85 1765.72 1245.16 1762.87 1245.16L1742.25 1245.16C1739.4 1245.16 1737.09 1242.85 1737.09 1240 1737.09 1237.15 1739.4 1234.84 1742.25 1234.84ZM1783.5 1234.84 1804.12 1234.84C1806.97 1234.84 1809.28 1237.15 1809.28 1240 1809.28 1242.85 1806.97 1245.16 1804.12 1245.16L1783.5 1245.16C1780.65 1245.16 1778.34 1242.85 1778.34 1240 1778.34 1237.15 1780.65 1234.84 1783.5 1234.84ZM1824.75 1234.84 1845.37 1234.84C1848.22 1234.84 1850.53 1237.15 1850.53 1240 1850.53 1242.85 1848.22 1245.16 1845.37 1245.16L1824.75 1245.16C1821.9 1245.16 1819.59 1242.85 1819.59 1240 1819.59 1237.15 1821.9 1234.84 1824.75 1234.84ZM1866 1234.84 1886.62 1234.84C1889.47 1234.84 1891.78 1237.15 1891.78 1240 1891.78 1242.85 1889.47 1245.16 1886.62 1245.16L1866 1245.16C1863.15 1245.16 1860.84 1242.85 1860.84 1240 1860.84 1237.15 1863.15 1234.84 1866 1234.84ZM1907.25 1234.84 1927.87 1234.84C1930.72 1234.84 1933.03 1237.15 1933.03 1240 1933.03 1242.85 1930.72 1245.16 1927.87 1245.16L1907.25 1245.16C1904.4 1245.16 1902.09 1242.85 1902.09 1240 1902.09 1237.15 1904.4 1234.84 1907.25 1234.84ZM1948.5 1234.84 1969.12 1234.84C1971.97 1234.84 1974.28 1237.15 1974.28 1240 1974.28 1242.85 1971.97 1245.16 1969.12 1245.16L1948.5 1245.16C1945.65 1245.16 1943.34 1242.85 1943.34 1240 1943.34 1237.15 1945.65 1234.84 1948.5 1234.84ZM1989.75 1234.84 2010.37 1234.84C2013.22 1234.84 2015.53 1237.15 2015.53 1240 2015.53 1242.85 2013.22 1245.16 2010.37 1245.16L1989.75 1245.16C1986.9 1245.16 1984.59 1242.85 1984.59 1240 1984.59 1237.15 1986.9 1234.84 1989.75 1234.84ZM2031 1234.84 2051.62 1234.84C2054.47 1234.84 2056.78 1237.15 2056.78 1240 2056.78 1242.85 2054.47 1245.16 2051.62 1245.16L2031 1245.16C2028.15 1245.16 2025.84 1242.85 2025.84 1240 2025.84 1237.15 2028.15 1234.84 2031 1234.84ZM2072.25 1234.84 2092.87 1234.84C2095.72 1234.84 2098.03 1237.15 2098.03 1240 2098.03 1242.85 2095.72 1245.16 2092.87 1245.16L2072.25 1245.16C2069.4 1245.16 2067.09 1242.85 2067.09 1240 2067.09 1237.15 2069.4 1234.84 2072.25 1234.84ZM2113.5 1234.84 2134.12 1234.84C2136.97 1234.84 2139.28 1237.15 2139.28 1240 2139.28 1242.85 2136.97 1245.16 2134.12 1245.16L2113.5 1245.16C2110.65 1245.16 2108.34 1242.85 2108.34 1240 2108.34 1237.15 2110.65 1234.84 2113.5 1234.84ZM2154.75 1234.84 2168.07 1234.84 2175.37 1234.84C2178.22 1234.84 2180.53 1237.15 2180.53 1240 2180.53 1242.85 2178.22 1245.16 2175.37 1245.16L2168.07 1245.16 2154.75 1245.16C2151.9 1245.16 2149.59 1242.85 2149.59 1240 2149.59 1237.15 2151.9 1234.84 2154.75 1234.84ZM2196 1234.84 2216.62 1234.84C2219.47 1234.84 2221.78 1237.15 2221.78 1240 2221.78 1242.85 2219.47 1245.16 2216.62 1245.16L2196 1245.16C2193.15 1245.16 2190.84 1242.85 2190.84 1240 2190.84 1237.15 2193.15 1234.84 2196 1234.84ZM2237.25 1234.84 2257.87 1234.84C2260.72 1234.84 2263.03 1237.15 2263.03 1240 2263.03 1242.85 2260.72 1245.16 2257.87 1245.16L2237.25 1245.16C2234.4 1245.16 2232.09 1242.85 2232.09 1240 2232.09 1237.15 2234.4 1234.84 2237.25 1234.84ZM2278.5 1234.84 2299.12 1234.84C2301.97 1234.84 2304.28 1237.15 2304.28 1240 2304.28 1242.85 2301.97 1245.16 2299.12 1245.16L2278.5 1245.16C2275.65 1245.16 2273.34 1242.85 2273.34 1240 2273.34 1237.15 2275.65 1234.84 2278.5 1234.84ZM2319.75 1234.84 2340.37 1234.84C2343.22 1234.84 2345.53 1237.15 2345.53 1240 2345.53 1242.85 2343.22 1245.16 2340.37 1245.16L2319.75 1245.16C2316.9 1245.16 2314.59 1242.85 2314.59 1240 2314.59 1237.15 2316.9 1234.84 2319.75 1234.84ZM2361 1234.84 2381.62 1234.84C2384.47 1234.84 2386.78 1237.15 2386.78 1240 2386.78 1242.85 2384.47 1245.16 2381.62 1245.16L2361 1245.16C2358.15 1245.16 2355.84 1242.85 2355.84 1240 2355.84 1237.15 2358.15 1234.84 2361 1234.84ZM2402.25 1234.84 2422.87 1234.84C2425.72 1234.84 2428.03 1237.15 2428.03 1240 2428.03 1242.85 2425.72 1245.16 2422.87 1245.16L2402.25 1245.16C2399.4 1245.16 2397.09 1242.85 2397.09 1240 2397.09 1237.15 2399.4 1234.84 2402.25 1234.84ZM2443.5 1234.84 2464.12 1234.84C2466.97 1234.84 2469.28 1237.15 2469.28 1240 2469.28 1242.85 2466.97 1245.16 2464.12 1245.16L2443.5 1245.16C2440.65 1245.16 2438.34 1242.85 2438.34 1240 2438.34 1237.15 2440.65 1234.84 2443.5 1234.84ZM2484.75 1234.84 2485.08 1234.84 2505.37 1234.84C2508.22 1234.84 2510.53 1237.15 2510.53 1240 2510.53 1242.85 2508.22 1245.16 2505.37 1245.16L2485.08 1245.16 2484.75 1245.16C2481.9 1245.16 2479.59 1242.85 2479.59 1240 2479.59 1237.15 2481.9 1234.84 2484.75 1234.84ZM2526 1234.84 2546.62 1234.84C2549.47 1234.84 2551.78 1237.15 2551.78 1240 2551.78 1242.85 2549.47 1245.16 2546.62 1245.16L2526 1245.16C2523.15 1245.16 2520.84 1242.85 2520.84 1240 2520.84 1237.15 2523.15 1234.84 2526 1234.84ZM2567.25 1234.84 2587.87 1234.84C2590.72 1234.84 2593.03 1237.15 2593.03 1240 2593.03 1242.85 2590.72 1245.16 2587.87 1245.16L2567.25 1245.16C2564.4 1245.16 2562.09 1242.85 2562.09 1240 2562.09 1237.15 2564.4 1234.84 2567.25 1234.84ZM2608.5 1234.84 2629.12 1234.84C2631.97 1234.84 2634.28 1237.15 2634.28 1240 2634.28 1242.85 2631.97 1245.16 2629.12 1245.16L2608.5 1245.16C2605.65 1245.16 2603.34 1242.85 2603.34 1240 2603.34 1237.15 2605.65 1234.84 2608.5 1234.84ZM2649.75 1234.84 2670.37 1234.84C2673.22 1234.84 2675.53 1237.15 2675.53 1240 2675.53 1242.85 2673.22 1245.16 2670.37 1245.16L2649.75 1245.16C2646.9 1245.16 2644.59 1242.85 2644.59 1240 2644.59 1237.15 2646.9 1234.84 2649.75 1234.84ZM2691 1234.84 2711.62 1234.84C2714.47 1234.84 2716.78 1237.15 2716.78 1240 2716.78 1242.85 2714.47 1245.16 2711.62 1245.16L2691 1245.16C2688.15 1245.16 2685.84 1242.85 2685.84 1240 2685.84 1237.15 2688.15 1234.84 2691 1234.84ZM2732.25 1234.84 2752.87 1234.84C2755.72 1234.84 2758.03 1237.15 2758.03 1240 2758.03 1242.85 2755.72 1245.16 2752.87 1245.16L2732.25 1245.16C2729.4 1245.16 2727.09 1242.85 2727.09 1240 2727.09 1237.15 2729.4 1234.84 2732.25 1234.84ZM2773.5 1234.84 2794.12 1234.84C2796.97 1234.84 2799.28 1237.15 2799.28 1240 2799.28 1242.85 2796.97 1245.16 2794.12 1245.16L2773.5 1245.16C2770.65 1245.16 2768.34 1242.85 2768.34 1240 2768.34 1237.15 2770.65 1234.84 2773.5 1234.84ZM2814.75 1234.84 2835.37 1234.84C2838.22 1234.84 2840.53 1237.15 2840.53 1240 2840.53 1242.85 2838.22 1245.16 2835.37 1245.16L2814.75 1245.16C2811.9 1245.16 2809.59 1242.85 2809.59 1240 2809.59 1237.15 2811.9 1234.84 2814.75 1234.84ZM2856 1234.84 2876.62 1234.84C2879.47 1234.84 2881.78 1237.15 2881.78 1240 2881.78 1242.85 2879.47 1245.16 2876.62 1245.16L2856 1245.16C2853.15 1245.16 2850.84 1242.85 2850.84 1240 2850.84 1237.15 2853.15 1234.84 2856 1234.84ZM2897.25 1234.84 2917.87 1234.84C2920.72 1234.84 2923.03 1237.15 2923.03 1240 2923.03 1242.85 2920.72 1245.16 2917.87 1245.16L2897.25 1245.16C2894.4 1245.16 2892.09 1242.85 2892.09 1240 2892.09 1237.15 2894.4 1234.84 2897.25 1234.84ZM2938.5 1234.84 2959.12 1234.84C2961.97 1234.84 2964.28 1237.15 2964.28 1240 2964.28 1242.85 2961.97 1245.16 2959.12 1245.16L2938.5 1245.16C2935.65 1245.16 2933.34 1242.85 2933.34 1240 2933.34 1237.15 2935.65 1234.84 2938.5 1234.84ZM2979.75 1234.84 3000.37 1234.84C3003.22 1234.84 3005.53 1237.15 3005.53 1240 3005.53 1242.85 3003.22 1245.16 3000.37 1245.16L2979.75 1245.16C2976.9 1245.16 2974.59 1242.85 2974.59 1240 2974.59 1237.15 2976.9 1234.84 2979.75 1234.84ZM3021 1234.84 3041.62 1234.84C3044.47 1234.84 3046.78 1237.15 3046.78 1240 3046.78 1242.85 3044.47 1245.16 3041.62 1245.16L3021 1245.16C3018.15 1245.16 3015.84 1242.85 3015.84 1240 3015.84 1237.15 3018.15 1234.84 3021 1234.84ZM3062.25 1234.84 3082.87 1234.84C3085.72 1234.84 3088.03 1237.15 3088.03 1240 3088.03 1242.85 3085.72 1245.16 3082.87 1245.16L3062.25 1245.16C3059.4 1245.16 3057.09 1242.85 3057.09 1240 3057.09 1237.15 3059.4 1234.84 3062.25 1234.84ZM3103.5 1234.84 3117.1 1234.84 3124.12 1234.84C3126.97 1234.84 3129.28 1237.15 3129.28 1240 3129.28 1242.85 3126.97 1245.16 3124.12 1245.16L3117.1 1245.16 3103.5 1245.16C3100.65 1245.16 3098.34 1242.85 3098.34 1240 3098.34 1237.15 3100.65 1234.84 3103.5 1234.84ZM3144.75 1234.84 3165.37 1234.84C3168.22 1234.84 3170.53 1237.15 3170.53 1240 3170.53 1242.85 3168.22 1245.16 3165.37 1245.16L3144.75 1245.16C3141.9 1245.16 3139.59 1242.85 3139.59 1240 3139.59 1237.15 3141.9 1234.84 3144.75 1234.84ZM3186 1234.84 3206.62 1234.84C3209.47 1234.84 3211.78 1237.15 3211.78 1240 3211.78 1242.85 3209.47 1245.16 3206.62 1245.16L3186 1245.16C3183.15 1245.16 3180.84 1242.85 3180.84 1240 3180.84 1237.15 3183.15 1234.84 3186 1234.84ZM3227.25 1234.84 3247.87 1234.84C3250.72 1234.84 3253.03 1237.15 3253.03 1240 3253.03 1242.85 3250.72 1245.16 3247.87 1245.16L3227.25 1245.16C3224.4 1245.16 3222.09 1242.85 3222.09 1240 3222.09 1237.15 3224.4 1234.84 3227.25 1234.84ZM3268.5 1234.84 3289.12 1234.84C3291.97 1234.84 3294.28 1237.15 3294.28 1240 3294.28 1242.85 3291.97 1245.16 3289.12 1245.16L3268.5 1245.16C3265.65 1245.16 3263.34 1242.85 3263.34 1240 3263.34 1237.15 3265.65 1234.84 3268.5 1234.84ZM3309.75 1234.84 3330.37 1234.84C3333.22 1234.84 3335.53 1237.15 3335.53 1240 3335.53 1242.85 3333.22 1245.16 3330.37 1245.16L3309.75 1245.16C3306.9 1245.16 3304.59 1242.85 3304.59 1240 3304.59 1237.15 3306.9 1234.84 3309.75 1234.84ZM3351 1234.84 3371.62 1234.84C3374.47 1234.84 3376.78 1237.15 3376.78 1240 3376.78 1242.85 3374.47 1245.16 3371.62 1245.16L3351 1245.16C3348.15 1245.16 3345.84 1242.85 3345.84 1240 3345.84 1237.15 3348.15 1234.84 3351 1234.84ZM3392.25 1234.84 3412.87 1234.84C3415.72 1234.84 3418.03 1237.15 3418.03 1240 3418.03 1242.85 3415.72 1245.16 3412.87 1245.16L3392.25 1245.16C3389.4 1245.16 3387.09 1242.85 3387.09 1240 3387.09 1237.15 3389.4 1234.84 3392.25 1234.84ZM3433.5 1234.84 3434.11 1234.84 3454.12 1234.84C3456.97 1234.84 3459.28 1237.15 3459.28 1240 3459.28 1242.85 3456.97 1245.16 3454.12 1245.16L3434.11 1245.16 3433.5 1245.16C3430.65 1245.16 3428.34 1242.85 3428.34 1240 3428.34 1237.15 3430.65 1234.84 3433.5 1234.84ZM3474.75 1234.84 3495.37 1234.84C3498.22 1234.84 3500.53 1237.15 3500.53 1240 3500.53 1242.85 3498.22 1245.16 3495.37 1245.16L3474.75 1245.16C3471.9 1245.16 3469.59 1242.85 3469.59 1240 3469.59 1237.15 3471.9 1234.84 3474.75 1234.84ZM3516 1234.84 3536.62 1234.84C3539.47 1234.84 3541.78 1237.15 3541.78 1240 3541.78 1242.85 3539.47 1245.16 3536.62 1245.16L3516 1245.16C3513.15 1245.16 3510.84 1242.85 3510.84 1240 3510.84 1237.15 3513.15 1234.84 3516 1234.84ZM3557.25 1234.84 3577.87 1234.84C3580.72 1234.84 3583.03 1237.15 3583.03 1240 3583.03 1242.85 3580.72 1245.16 3577.87 1245.16L3557.25 1245.16C3554.4 1245.16 3552.09 1242.85 3552.09 1240 3552.09 1237.15 3554.4 1234.84 3557.25 1234.84ZM3598.5 1234.84 3619.12 1234.84C3621.97 1234.84 3624.28 1237.15 3624.28 1240 3624.28 1242.85 3621.97 1245.16 3619.12 1245.16L3598.5 1245.16C3595.65 1245.16 3593.34 1242.85 3593.34 1240 3593.34 1237.15 3595.65 1234.84 3598.5 1234.84ZM3639.75 1234.84 3660.37 1234.84C3663.22 1234.84 3665.53 1237.15 3665.53 1240 3665.53 1242.85 3663.22 1245.16 3660.37 1245.16L3639.75 1245.16C3636.9 1245.16 3634.59 1242.85 3634.59 1240 3634.59 1237.15 3636.9 1234.84 3639.75 1234.84ZM3681 1234.84 3701.62 1234.84C3704.47 1234.84 3706.78 1237.15 3706.78 1240 3706.78 1242.85 3704.47 1245.16 3701.62 1245.16L3681 1245.16C3678.15 1245.16 3675.84 1242.85 3675.84 1240 3675.84 1237.15 3678.15 1234.84 3681 1234.84ZM3722.25 1234.84 3742.87 1234.84C3745.72 1234.84 3748.03 1237.15 3748.03 1240 3748.03 1242.85 3745.72 1245.16 3742.87 1245.16L3722.25 1245.16C3719.4 1245.16 3717.09 1242.85 3717.09 1240 3717.09 1237.15 3719.4 1234.84 3722.25 1234.84Z" fill="#C00000" fill-rule="nonzero" fill-opacity="1"/></g><g><text fill="#595959" fill-opacity="1" font-family="Calibri,Calibri_MSFontService,sans-serif" font-style="normal" font-variant="normal" font-weight="400" font-stretch="normal" font-size="41" text-anchor="start" direction="ltr" writing-mode="lr-tb" unicode-bidi="normal" text-decoration="none" transform="matrix(1 0 0 1 4263.03 2256)">0.00%</text></g><g><text fill="#595959" fill-opacity="1" font-family="Calibri,Calibri_MSFontService,sans-serif" font-style="normal" font-variant="normal" font-weight="400" font-stretch="normal" font-size="41" text-anchor="start" direction="ltr" writing-mode="lr-tb" unicode-bidi="normal" text-decoration="none" transform="matrix(1 0 0 1 4263.03 2055)">0.00%</text></g><g><text fill="#595959" fill-opacity="1" font-family="Calibri,Calibri_MSFontService,sans-serif" font-style="normal" font-variant="normal" font-weight="400" font-stretch="normal" font-size="41" text-anchor="start" direction="ltr" writing-mode="lr-tb" unicode-bidi="normal" text-decoration="none" transform="matrix(1 0 0 1 4263.03 1854)">0.00%</text></g><g><text fill="#595959" fill-opacity="1" font-family="Calibri,Calibri_MSFontService,sans-serif" font-style="normal" font-variant="normal" font-weight="400" font-stretch="normal" font-size="41" text-anchor="start" direction="ltr" writing-mode="lr-tb" unicode-bidi="normal" text-decoration="none" transform="matrix(1 0 0 1 4263.03 1653)">0.01%</text></g><g><text fill="#595959" fill-opacity="1" font-family="Calibri,Calibri_MSFontService,sans-serif" font-style="normal" font-variant="normal" font-weight="400" font-stretch="normal" font-size="41" text-anchor="start" direction="ltr" writing-mode="lr-tb" unicode-bidi="normal" text-decoration="none" transform="matrix(1 0 0 1 4263.03 1451)">0.01%</text></g><g><text fill="#595959" fill-opacity="1" font-family="Calibri,Calibri_MSFontService,sans-serif" font-style="normal" font-variant="normal" font-weight="400" font-stretch="normal" font-size="41" text-anchor="start" direction="ltr" writing-mode="lr-tb" unicode-bidi="normal" text-decoration="none" transform="matrix(1 0 0 1 4263.03 1250)">0.01%</text></g><g><text fill="#595959" fill-opacity="1" font-family="Calibri,Calibri_MSFontService,sans-serif" font-style="normal" font-variant="normal" font-weight="400" font-stretch="normal" font-size="41" text-anchor="start" direction="ltr" writing-mode="lr-tb" unicode-bidi="normal" text-decoration="none" transform="matrix(1 0 0 1 4263.03 1049)">0.01%</text></g><g><text fill="#595959" fill-opacity="1" font-family="Calibri,Calibri_MSFontService,sans-serif" font-style="normal" font-variant="normal" font-weight="400" font-stretch="normal" font-size="41" text-anchor="start" direction="ltr" writing-mode="lr-tb" unicode-bidi="normal" text-decoration="none" transform="matrix(1 0 0 1 1318.42 2256)">0</text></g><g><text fill="#595959" fill-opacity="1" font-family="Calibri,Calibri_MSFontService,sans-serif" font-style="normal" font-variant="normal" font-weight="400" font-stretch="normal" font-size="41" text-anchor="start" direction="ltr" writing-mode="lr-tb" unicode-bidi="normal" text-decoration="none" transform="matrix(1 0 0 1 1245.31 2015)">0.005</text></g><g><text fill="#595959" fill-opacity="1" font-family="Calibri,Calibri_MSFontService,sans-serif" font-style="normal" font-variant="normal" font-weight="400" font-stretch="normal" font-size="41" text-anchor="start" direction="ltr" writing-mode="lr-tb" unicode-bidi="normal" text-decoration="none" transform="matrix(1 0 0 1 1266.21 1773)">0.01</text></g><g><text fill="#595959" fill-opacity="1" font-family="Calibri,Calibri_MSFontService,sans-serif" font-style="normal" font-variant="normal" font-weight="400" font-stretch="normal" font-size="41" text-anchor="start" direction="ltr" writing-mode="lr-tb" unicode-bidi="normal" text-decoration="none" transform="matrix(1 0 0 1 1245.31 1532)">0.015</text></g><g><text fill="#595959" fill-opacity="1" font-family="Calibri,Calibri_MSFontService,sans-serif" font-style="normal" font-variant="normal" font-weight="400" font-stretch="normal" font-size="41" text-anchor="start" direction="ltr" writing-mode="lr-tb" unicode-bidi="normal" text-decoration="none" transform="matrix(1 0 0 1 1266.21 1290)">0.02</text></g><g><text fill="#595959" fill-opacity="1" font-family="Calibri,Calibri_MSFontService,sans-serif" font-style="normal" font-variant="normal" font-weight="400" font-stretch="normal" font-size="41" text-anchor="start" direction="ltr" writing-mode="lr-tb" unicode-bidi="normal" text-decoration="none" transform="matrix(1 0 0 1 1245.31 1049)">0.025</text></g><g><text fill="#595959" fill-opacity="1" font-family="Calibri,Calibri_MSFontService,sans-serif" font-style="normal" font-variant="normal" font-weight="400" font-stretch="normal" font-size="41" text-anchor="start" direction="ltr" writing-mode="lr-tb" unicode-bidi="normal" text-decoration="none" transform="matrix(1 0 0 1 1460.19 2311)">Sprint 10</text></g><g><text fill="#595959" fill-opacity="1" font-family="Calibri,Calibri_MSFontService,sans-serif" font-style="normal" font-variant="normal" font-weight="400" font-stretch="normal" font-size="41" text-anchor="start" direction="ltr" writing-mode="lr-tb" unicode-bidi="normal" text-decoration="none" transform="matrix(1 0 0 1 1776.55 2311)">Sprint 11</text></g><g><text fill="#595959" fill-opacity="1" font-family="Calibri,Calibri_MSFontService,sans-serif" font-style="normal" font-variant="normal" font-weight="400" font-stretch="normal" font-size="41" text-anchor="start" direction="ltr" writing-mode="lr-tb" unicode-bidi="normal" text-decoration="none" transform="matrix(1 0 0 1 2092.9 2311)">Sprint 12</text></g><g><text fill="#595959" fill-opacity="1" font-family="Calibri,Calibri_MSFontService,sans-serif" font-style="normal" font-variant="normal" font-weight="400" font-stretch="normal" font-size="41" text-anchor="start" direction="ltr" writing-mode="lr-tb" unicode-bidi="normal" text-decoration="none" transform="matrix(1 0 0 1 2409.26 2311)">Sprint 13</text></g><g><text fill="#595959" fill-opacity="1" font-family="Calibri,Calibri_MSFontService,sans-serif" font-style="normal" font-variant="normal" font-weight="400" font-stretch="normal" font-size="41" text-anchor="start" direction="ltr" writing-mode="lr-tb" unicode-bidi="normal" text-decoration="none" transform="matrix(1 0 0 1 2725.62 2311)">Sprint 14</text></g><g><text fill="#595959" fill-opacity="1" font-family="Calibri,Calibri_MSFontService,sans-serif" font-style="normal" font-variant="normal" font-weight="400" font-stretch="normal" font-size="41" text-anchor="start" direction="ltr" writing-mode="lr-tb" unicode-bidi="normal" text-decoration="none" transform="matrix(1 0 0 1 3041.97 2311)">Sprint 15</text></g><g><text fill="#595959" fill-opacity="1" font-family="Calibri,Calibri_MSFontService,sans-serif" font-style="normal" font-variant="normal" font-weight="400" font-stretch="normal" font-size="41" text-anchor="start" direction="ltr" writing-mode="lr-tb" unicode-bidi="normal" text-decoration="none" transform="matrix(1 0 0 1 3358.33 2311)">Sprint 16</text></g><g><text fill="#595959" fill-opacity="1" font-family="Calibri,Calibri_MSFontService,sans-serif" font-style="normal" font-variant="normal" font-weight="400" font-stretch="normal" font-size="41" text-anchor="start" direction="ltr" writing-mode="lr-tb" unicode-bidi="normal" text-decoration="none" transform="matrix(1 0 0 1 3674.69 2311)">Sprint 17</text></g><g><text fill="#595959" fill-opacity="1" font-family="Calibri,Calibri_MSFontService,sans-serif" font-style="normal" font-variant="normal" font-weight="400" font-stretch="normal" font-size="46" text-anchor="start" direction="ltr" writing-mode="lr-tb" unicode-bidi="normal" text-decoration="none" transform="matrix(6.12323e-17 -1 1 6.12323e-17 1219.62 1789)">Percentuale (%)</text></g><g><text fill="#595959" fill-opacity="1" font-family="Calibri,Calibri_MSFontService,sans-serif" font-style="normal" font-variant="normal" font-weight="400" font-stretch="normal" font-size="64" text-anchor="start" direction="ltr" writing-mode="lr-tb" unicode-bidi="normal" text-decoration="none" transform="matrix(1 0 0 1 2723.65 964)">DL</text></g><g><rect x="2181" y="2379" width="115" height="23" fill="#4F81BD" fill-opacity="1"/></g><g><text fill="#595959" fill-opacity="1" font-family="Calibri,Calibri_MSFontService,sans-serif" font-style="normal" font-variant="normal" font-weight="400" font-stretch="normal" font-size="41" text-anchor="start" direction="ltr" writing-mode="lr-tb" unicode-bidi="normal" text-decoration="none" transform="matrix(1 0 0 1 2309.21 2401)">DL</text></g><g><path d="M2422 2385.84 2442.62 2385.84C2445.47 2385.84 2447.78 2388.15 2447.78 2391 2447.78 2393.85 2445.47 2396.16 2442.62 2396.16L2422 2396.16C2419.15 2396.16 2416.84 2393.85 2416.84 2391 2416.84 2388.15 2419.15 2385.84 2422 2385.84ZM2463.25 2385.84 2483.88 2385.84C2486.72 2385.84 2489.03 2388.15 2489.03 2391 2489.03 2393.85 2486.72 2396.16 2483.88 2396.16L2463.25 2396.16C2460.4 2396.16 2458.09 2393.85 2458.09 2391 2458.09 2388.15 2460.4 2385.84 2463.25 2385.84ZM2504.5 2385.84 2525.12 2385.84C2527.97 2385.84 2530.28 2388.15 2530.28 2391 2530.28 2393.85 2527.97 2396.16 2525.12 2396.16L2504.5 2396.16C2501.65 2396.16 2499.34 2393.85 2499.34 2391 2499.34 2388.15 2501.65 2385.84 2504.5 2385.84Z" fill="#9BBB59" fill-rule="nonzero" fill-opacity="1"/></g><g><text fill="#595959" fill-opacity="1" font-family="Calibri,Calibri_MSFontService,sans-serif" font-style="normal" font-variant="normal" font-weight="400" font-stretch="normal" font-size="41" text-anchor="start" direction="ltr" writing-mode="lr-tb" unicode-bidi="normal" text-decoration="none" transform="matrix(1 0 0 1 2550.28 2401)">Soglia acc. (≤1%)</text></g><g><path d="M2899 2385.84 2919.62 2385.84C2922.47 2385.84 2924.78 2388.15 2924.78 2391 2924.78 2393.85 2922.47 2396.16 2919.62 2396.16L2899 2396.16C2896.15 2396.16 2893.84 2393.85 2893.84 2391 2893.84 2388.15 2896.15 2385.84 2899 2385.84ZM2940.25 2385.84 2960.87 2385.84C2963.72 2385.84 2966.03 2388.15 2966.03 2391 2966.03 2393.85 2963.72 2396.16 2960.87 2396.16L2940.25 2396.16C2937.4 2396.16 2935.09 2393.85 2935.09 2391 2935.09 2388.15 2937.4 2385.84 2940.25 2385.84ZM2981.5 2385.84 3002.12 2385.84C3004.97 2385.84 3007.28 2388.15 3007.28 2391 3007.28 2393.85 3004.97 2396.16 3002.12 2396.16L2981.5 2396.16C2978.65 2396.16 2976.34 2393.85 2976.34 2391 2976.34 2388.15 2978.65 2385.84 2981.5 2385.84Z" fill="#C00000" fill-rule="nonzero" fill-opacity="1"/></g><g><text fill="#595959" fill-opacity="1" font-family="Calibri,Calibri_MSFontService,sans-serif" font-style="normal" font-variant="normal" font-weight="400" font-stretch="normal" font-size="41" text-anchor="start" direction="ltr" writing-mode="lr-tb" unicode-bidi="normal" text-decoration="none" transform="matrix(1 0 0 1 3027.07 2401)">Soglia ott. (≤0,01%)</text></g><rect x="1118.5" y="869.5" width="3277" height="1588" stroke="#D9D9D9" stroke-width="3.4375" stroke-linecap="butt" stroke-linejoin="round" stroke-miterlimit="10" stroke-opacity="1" fill="none"/></g></g></svg>