<svg width="2757" height="1437" xmlns="http://www.w3.org/2000/svg" xmlns:xlink="http://www.w3.org/1999/xlink" xml:space="preserve" overflow="hidden"><defs><clipPath id="clip0"><rect x="1099" y="621" width="2757" height="1437"/></clipPath></defs><g clip-path="url(#clip0)" transform="translate(-1099 -621)"><rect x="1100" y="622" width="2754" height="1434" fill="#FFFFFF"/><g><path d="M1369.5 1713.56 3803.5 1713.56M1369.5 1581.55 3803.5 1581.55M1369.5 1450.55 3803.5 1450.55M1369.5 1318.54 3803.5 1318.54M1369.5 1186.54 3803.5 1186.54M1369.5 1055.53 3803.5 1055.53M1369.5 923.531 3803.5 923.531M1369.5 791.5 3803.5 791.5" stroke="#D9D9D9" stroke-width="3.4375" stroke-linejoin="round" stroke-miterlimit="10" fill="none"/></g><g><path d="M1369.5 1844.5 3803.5 1844.5" stroke="#D9D9D9" stroke-width="3.4375" stroke-linejoin="round" stroke-miterlimit="10" fill="none" fill-rule="evenodd"/></g><g><path d="M1441 940 1584.05 940 1728.06 940 1871.06 940 2014.07 940 2157.07 940 2300.08 940 2443.08 940 2586.08 940 2730.09 1006.03 2873.09 1006.03 3016.1 1006.03 3159.1 1006.03 3302.11 1105 3445.11 1105 3588.12 1105 3732 1105" stroke="#4F81BD" stroke-width="10.3125" stroke-linecap="round" stroke-linejoin="round" stroke-miterlimit="10" fill="none"/></g><g><path d="M1441 1021.4C1488.73 1008.06 1536.46 1003.34 1584.19 981.372 1631.92 959.405 1679.65 902.198 1727.37 889.599 1775.1 877 1822.83 877.541 1870.56 905.779 1918.29 934.017 1966.02 1036.73 2013.75 1059.03 2061.48 1081.32 2109.21 1045.19 2156.94 1039.55 2204.67 1033.91 2252.4 1031.33 2300.12 1025.18 2347.85 1019.04 2395.58 996.041 2443.31 1002.68 2491.04 1009.32 2538.77 1038.27 2586.5 1065.03 2634.23 1091.78 2681.96 1149.46 2729.69 1163.21 2777.42 1176.96 2825.15 1136.68 2872.88 1147.52 2920.6 1158.36 2968.33 1214.5 3016.06 1228.25 3063.79 1242 3111.52 1241.52 3159.25 1230.03 3206.98 1218.55 3254.71 1171.19 3302.44 1159.36 3350.17 1147.52 3397.9 1163.93 3445.63 1159.05 3493.35 1154.16 3541.08 1133.27 3588.81 1130.05 3636.54 1126.83 3684.27 1136.49 3732 1139.72" stroke="#C0504D" stroke-width="10.3125" stroke-linecap="round" stroke-linejoin="round" stroke-miterlimit="10" fill="none"/></g><g><path d="M1441 1367 1584.05 1367 1728.06 1367 1871.06 1367 2014.07 1367 2157.07 1367 2300.08 1367 2443.08 1367 2586.08 1367 2730.09 1429.05 2873.09 1429.05 3016.1 1429.05 3159.1 1429.05 3302.11 1523 3445.11 1523 3588.12 1523 3732 1523" stroke="#92D050" stroke-width="10.3125" stroke-linecap="round" stroke-linejoin="round" stroke-miterlimit="10" stroke-dasharray="20.625 20.625" fill="none"/></g><g><text fill="#595959" font-family="Calibri,Calibri_MSFontService,sans-serif" font-weight="400" font-size="41" transform="matrix(1 0 0 1 1226.98 1856)">11600</text></g><g><text fill="#595959" font-family="Calibri,Calibri_MSFontService,sans-serif" font-weight="400" font-size="41" transform="matrix(1 0 0 1 1226.98 1725)">11800</text></g><g><text fill="#595959" font-family="Calibri,Calibri_MSFontService,sans-serif" font-weight="400" font-size="41" transform="matrix(1 0 0 1 1226.98 1593)">12000</text></g><g><text fill="#595959" font-family="Calibri,Calibri_MSFontService,sans-serif" font-weight="400" font-size="41" transform="matrix(1 0 0 1 1226.98 1462)">12200</text></g><g><text fill="#595959" font-family="Calibri,Calibri_MSFontService,sans-serif" font-weight="400" font-size="41" transform="matrix(1 0 0 1 1226.98 1330)">12400</text></g><g><text fill="#595959" font-family="Calibri,Calibri_MSFontService,sans-serif" font-weight="400" font-size="41" transform="matrix(1 0 0 1 1226.98 1198)">12600</text></g><g><text fill="#595959" font-family="Calibri,Calibri_MSFontService,sans-serif" font-weight="400" font-size="41" transform="matrix(1 0 0 1 1226.98 1067)">12800</text></g><g><text fill="#595959" font-family="Calibri,Calibri_MSFontService,sans-serif" font-weight="400" font-size="41" transform="matrix(1 0 0 1 1226.98 935)">13000</text></g><g><text fill="#595959" font-family="Calibri,Calibri_MSFontService,sans-serif" font-weight="400" font-size="41" transform="matrix(1 0 0 1 1226.98 804)">13200</text></g><g><text fill="#595959" font-family="Calibri,Calibri_MSFontService,sans-serif" font-weight="400" font-size="41" transform="matrix(1 0 0 1 1422.81 1910)">s1</text></g><g><text fill="#595959" font-family="Calibri,Calibri_MSFontService,sans-serif" font-weight="400" font-size="41" transform="matrix(1 0 0 1 1565.95 1910)">s2</text></g><g><text fill="#595959" font-family="Calibri,Calibri_MSFontService,sans-serif" font-weight="400" font-size="41" transform="matrix(1 0 0 1 1709.1 1910)">s3</text></g><g><text fill="#595959" font-family="Calibri,Calibri_MSFontService,sans-serif" font-weight="400" font-size="41" transform="matrix(1 0 0 1 1852.25 1910)">s4</text></g><g><text fill="#595959" font-family="Calibri,Calibri_MSFontService,sans-serif" font-weight="400" font-size="41" transform="matrix(1 0 0 1 1995.39 1910)">s5</text></g><g><text fill="#595959" font-family="Calibri,Calibri_MSFontService,sans-serif" font-weight="400" font-size="41" transform="matrix(1 0 0 1 2138.54 1910)">s6</text></g><g><text fill="#595959" font-family="Calibri,Calibri_MSFontService,sans-serif" font-weight="400" font-size="41" transform="matrix(1 0 0 1 2281.69 1910)">s7</text></g><g><text fill="#595959" font-family="Calibri,Calibri_MSFontService,sans-serif" font-weight="400" font-size="41" transform="matrix(1 0 0 1 2424.84 1910)">s8</text></g><g><text fill="#595959" font-family="Calibri,Calibri_MSFontService,sans-serif" font-weight="400" font-size="41" transform="matrix(1 0 0 1 2567.98 1910)">s9</text></g><g><text fill="#595959" font-family="Calibri,Calibri_MSFontService,sans-serif" font-weight="400" font-size="41" transform="matrix(1 0 0 1 2700.68 1910)">s10</text></g><g><text fill="#595959" font-family="Calibri,Calibri_MSFontService,sans-serif" font-weight="400" font-size="41" transform="matrix(1 0 0 1 2843.83 1910)">s11</text></g><g><text fill="#595959" font-family="Calibri,Calibri_MSFontService,sans-serif" font-weight="400" font-size="41" transform="matrix(1 0 0 1 2986.97 1910)">s12</text></g><g><text fill="#595959" font-family="Calibri,Calibri_MSFontService,sans-serif" font-weight="400" font-size="41" transform="matrix(1 0 0 1 3130.12 1910)">s13</text></g><g><text fill="#595959" font-family="Calibri,Calibri_MSFontService,sans-serif" font-weight="400" font-size="41" transform="matrix(1 0 0 1 3273.27 1910)">s14</text></g><g><text fill="#595959" font-family="Calibri,Calibri_MSFontService,sans-serif" font-weight="400" font-size="41" transform="matrix(1 0 0 1 3416.42 1910)">s15</text></g><g><text fill="#595959" font-family="Calibri,Calibri_MSFontService,sans-serif" font-weight="400" font-size="41" transform="matrix(1 0 0 1 3559.56 1910)">s16</text></g><g><text fill="#595959" font-family="Calibri,Calibri_MSFontService,sans-serif" font-weight="400" font-size="41" transform="matrix(1 0 0 1 3702.71 1910)">s17</text></g><g><text fill="#595959" font-family="Calibri,Calibri_MSFontService,sans-serif" font-weight="400" font-size="46" transform="matrix(6.12323e-17 -1 1 6.12323e-17 1201.29 1387)">Euro(€)</text></g><g><text fill="#595959" font-family="Calibri,Calibri_MSFontService,sans-serif" font-weight="400" font-size="64" transform="matrix(1 0 0 1 2326.19 717)">BAC ed EAC</text></g><g><path d="M1378 1990 1493 1990" stroke="#4F81BD" stroke-width="10.3125" stroke-linecap="round" stroke-linejoin="round" stroke-miterlimit="10" fill="none" fill-rule="evenodd"/></g><g><text fill="#595959" font-family="Calibri,Calibri_MSFontService,sans-serif" font-weight="400" font-size="41" transform="matrix(1 0 0 1 1505.9 2001)">BAC </text></g><g><text fill="#595959" font-family="Calibri,Calibri_MSFontService,sans-serif" font-weight="400" font-size="41" transform="matrix(1 0 0 1 1583.54 2001)">-</text></g><g><text fill="#595959" font-family="Calibri,Calibri_MSFontService,sans-serif" font-weight="400" font-size="41" transform="matrix(1 0 0 1 1605.49 2001)">Budget at Completion (€)</text></g><g><path d="M2145 1990 2261 1990" stroke="#C0504D" stroke-width="10.3125" stroke-linecap="round" stroke-linejoin="round" stroke-miterlimit="10" fill="none" fill-rule="evenodd"/></g><g><text fill="#595959" font-family="Calibri,Calibri_MSFontService,sans-serif" font-weight="400" font-size="41" transform="matrix(1 0 0 1 2273.54 2001)">EAC </text></g><g><text fill="#595959" font-family="Calibri,Calibri_MSFontService,sans-serif" font-weight="400" font-size="41" transform="matrix(1 0 0 1 2348.89 2001)">-</text></g><g><text fill="#595959" font-family="Calibri,Calibri_MSFontService,sans-serif" font-weight="400" font-size="41" transform="matrix(1 0 0 1 2370.84 2001)">Estimate At Completion (€)</text></g><g><path d="M2942 1990 3057 1990" stroke="#92D050" stroke-width="10.3125" stroke-linecap="round" stroke-linejoin="round" stroke-miterlimit="10" stroke-dasharray="20.625 20.625" fill="none" fill-rule="evenodd"/></g><g><text fill="#595959" font-family="Calibri,Calibri_MSFontService,sans-serif" font-weight="400" font-size="41" transform="matrix(1 0 0 1 3070.08 2001)">Soglia accettabile (≥95% </text></g><g><text fill="#595959" font-family="Calibri,Calibri_MSFontService,sans-serif" font-weight="400" font-size="41" transform="matrix(1 0 0 1 3484.9 2001)">×</text></g><g><text fill="#595959" font-family="Calibri,Calibri_MSFontService,sans-serif" font-weight="400" font-size="41" transform="matrix(1 0 0 1 3514.76 2001)">BAC)</text></g><rect x="1100.5" y="622.5" width="2754" height="1434" stroke="#D9D9D9" stroke-width="3.4375" stroke-linejoin="round" stroke-miterlimit="10" fill="none"/></g></svg>