<svg width="3879" height="2219" xmlns="http://www.w3.org/2000/svg" xmlns:xlink="http://www.w3.org/1999/xlink" xml:space="preserve" overflow="hidden"><defs><clipPath id="clip0"><rect x="1100" y="1450" width="3879" height="2219"/></clipPath></defs><g clip-path="url(#clip0)" transform="translate(-1100 -1450)"><rect x="1101" y="1451" width="3876" height="2216" fill="#FFFFFF"/><g><path d="M1339.5 3511.5 4927.5 3511.5M1339.5 3091.6 4927.5 3091.6M1339.5 2881.59 4927.5 2881.59M1339.5 2670.59 4927.5 2670.59M1339.5 2460.58 4927.5 2460.58M1339.5 2250.57 4927.5 2250.57M1339.5 2040.57 4927.5 2040.57M1339.5 1830.56 4927.5 1830.56M1339.5 1620.5 4927.5 1620.5" stroke="#D9D9D9" stroke-width="3.4375" stroke-linejoin="round" stroke-miterlimit="10" fill="none"/></g><g><path d="M1339.5 3301.5 4927.5 3301.5" stroke="#D9D9D9" stroke-width="3.4375" stroke-linejoin="round" stroke-miterlimit="10" fill="none" fill-rule="evenodd"/></g><g><path d="M1439 3301.05C1465.78 3301.05 1611.53 3397 1638.31 3301.05 1704.75 3063.04 1771.19 2097.01 1837.62 1873.01 1866.69 1775 2007.87 1852.88 2036.94 1957.01 2103.37 2195.02 2169.81 3077.04 2236.25 3301.05 2264.58 3396.56 2407.24 3301.05 2435.56 3301.05 2502 3301.05 2568.44 3301.05 2634.88 3301.05 2701.31 3301.05 2767.75 3308.05 2834.19 3301.05 2900.62 3294.05 2967.06 3259.05 3033.5 3259.05 3099.94 3259.05 3166.37 3294.05 3232.81 3301.05 3299.25 3308.05 3365.69 3301.05 3432.12 3301.05 3498.56 3301.05 3565 3301.05 3631.44 3301.05 3697.87 3301.05 3764.31 3308.05 3830.75 3301.05 3897.19 3294.05 3963.62 3259.05 4030.06 3259.05 4096.5 3259.05 4162.94 3294.05 4229.37 3301.05 4295.81 3308.05 4362.25 3301.05 4428.69 3301.05 4495.12 3301.05 4594.78 3301.05 4628 3301.05" stroke="#4F81BD" stroke-width="10.3125" stroke-linecap="round" stroke-linejoin="round" stroke-miterlimit="10" fill="none"/></g><g><path d="M1439 2713C1505.44 2797.07 1571.87 2923.17 1638.31 2965.2 1704.75 3007.23 1771.19 2968.7 1837.62 2965.2 1904.06 2961.7 1970.5 2888.14 2036.94 2944.18 2103.37 3000.23 2169.81 3255.93 2236.25 3301.46 2302.69 3347 2369.12 3224.4 2435.56 3217.4 2502 3210.39 2568.44 3245.42 2634.88 3259.43 2701.31 3273.44 2767.75 3294.46 2834.19 3301.46 2900.62 3308.47 2967.06 3301.46 3033.5 3301.46 3099.94 3301.46 3166.37 3301.46 3232.81 3301.46 3299.25 3301.46 3365.69 3301.46 3432.12 3301.46 3498.56 3301.46 3565 3301.46 3631.44 3301.46 3697.87 3301.46 3764.31 3301.46 3830.75 3301.46 3897.19 3301.46 3963.62 3301.46 4030.06 3301.46 4096.5 3301.46 4162.94 3301.46 4229.37 3301.46 4295.81 3301.46 4362.25 3301.46 4428.69 3301.46 4495.12 3301.46 4594.78 3301.46 4628 3301.46" stroke="#C0504D" stroke-width="10.3125" stroke-linecap="round" stroke-linejoin="round" stroke-miterlimit="10" fill="none"/></g><g><path d="M1439 2376.75C1505.44 2306.72 1571.87 2201.67 1638.31 2166.65 1704.75 2131.63 1771.19 2180.66 1837.62 2166.65 1874.7 2158.83 1999.86 1981 2036.94 2082.61 2103.37 2264.7 2169.81 3056.09 2236.25 3259.19 2267.92 3356 2403.89 3297.87 2435.56 3301.21 2502 3308.22 2568.44 3315.22 2634.88 3301.21 2701.31 3287.21 2767.75 3217.17 2834.19 3217.17 2900.62 3217.17 2967.06 3287.21 3033.5 3301.21 3099.94 3315.22 3166.37 3301.21 3232.81 3301.21 3299.25 3301.21 3365.69 3301.21 3432.12 3301.21 3498.56 3301.21 3565 3301.21 3631.44 3301.21 3697.87 3301.21 3764.31 3301.21 3830.75 3301.21 3897.19 3301.21 3963.62 3301.21 4030.06 3301.21 4096.5 3301.21 4162.94 3301.21 4229.37 3301.21 4295.81 3301.21 4362.25 3301.21 4428.69 3301.21 4495.12 3301.21 4594.78 3301.21 4628 3301.21" stroke="#9BBB59" stroke-width="10.3125" stroke-linecap="round" stroke-linejoin="round" stroke-miterlimit="10" fill="none"/></g><g><path d="M1439 2713C1505.44 2755.01 1571.87 2818.02 1638.31 2839.03 1704.75 2860.03 1771.19 2842.53 1837.62 2839.03 1903.07 2835.58 1971.49 2742.15 2036.94 2818.02 2103.37 2895.04 2169.81 3220.62 2236.25 3301.14 2299.67 3378 2372.14 3301.14 2435.56 3301.14 2502 3301.14 2568.44 3301.14 2634.88 3301.14 2701.31 3301.14 2767.75 3301.14 2834.19 3301.14 2900.62 3301.14 2967.06 3301.14 3033.5 3301.14 3099.94 3301.14 3166.37 3301.14 3232.81 3301.14 3299.25 3301.14 3365.69 3301.14 3432.12 3301.14 3498.56 3301.14 3565 3301.14 3631.44 3301.14 3697.87 3301.14 3764.31 3301.14 3830.75 3301.14 3897.19 3301.14 3963.62 3301.14 4030.06 3301.14 4096.5 3301.14 4162.94 3301.14 4229.37 3301.14 4295.81 3301.14 4362.25 3301.14 4428.69 3301.14 4495.12 3301.14 4594.78 3301.14 4628 3301.14" stroke="#8064A2" stroke-width="10.3125" stroke-linecap="round" stroke-linejoin="round" stroke-miterlimit="10" fill="none"/></g><g><path d="M1439 3007C1505.44 3007 1571.87 3021 1638.31 3007 1704.75 2993 1771.19 2937 1837.62 2923 1904.06 2909 1970.5 2860 2036.94 2923 2103.37 2986 2169.81 3238 2236.25 3301 2302.69 3364 2369.12 3301 2435.56 3301 2502 3301 2568.44 3301 2634.88 3301 2701.31 3301 2767.75 3301 2834.19 3301 2900.62 3301 2967.06 3301 3033.5 3301 3099.94 3301 3166.37 3301 3232.81 3301 3299.25 3301 3365.69 3301 3432.12 3301 3498.56 3301 3565 3301 3631.44 3301 3697.87 3301 3764.31 3301 3830.75 3301 3897.19 3301 3963.62 3301 4030.06 3301 4096.5 3301 4162.94 3301 4229.37 3301 4295.81 3301 4362.25 3301 4428.69 3301 4495.12 3301 4594.78 3301 4628 3301" stroke="#4BACC6" stroke-width="10.3125" stroke-linecap="round" stroke-linejoin="round" stroke-miterlimit="10" fill="none"/></g><g><path d="M1439 3301.2C1505.44 3301.2 1571.87 3301.2 1638.31 3301.2 1704.75 3301.2 1771.19 3301.2 1837.62 3301.2 1904.06 3301.2 1970.5 3301.2 2036.94 3301.2 2103.37 3301.2 2169.81 3301.2 2236.25 3301.2 2302.69 3301.2 2369.12 3301.2 2435.56 3301.2 2502 3301.2 2568.44 3301.2 2634.88 3301.2 2701.31 3301.2 2767.75 3301.2 2834.19 3301.2 2895.99 3301.2 2971.69 3379.36 3033.5 3301.2 3099.94 3217.18 3166.37 2902.12 3232.81 2797.1 3295.84 2697.46 3369.1 2691 3432.12 2671.07 3498.56 2650.07 3565 2671.07 3631.44 2671.07 3697.87 2671.07 3764.31 2671.07 3830.75 2671.07 3897.19 2671.07 3963.62 2713.08 4030.06 2671.07 4096.5 2629.06 4162.94 2314 4229.37 2419.02 4295.81 2524.04 4362.25 3154.17 4428.69 3301.2 4469.72 3392 4607.48 3301.2 4628 3301.2" stroke="#F79646" stroke-width="10.3125" stroke-linecap="round" stroke-linejoin="round" stroke-miterlimit="10" fill="none"/></g><g><path d="M1439 3301.71C1505.44 3301.71 1571.87 3301.71 1638.31 3301.71 1704.75 3301.71 1771.19 3301.71 1837.62 3301.71 1904.06 3301.71 1970.5 3301.71 2036.94 3301.71 2103.37 3301.71 2169.81 3301.71 2236.25 3301.71 2302.69 3301.71 2369.12 3301.71 2435.56 3301.71 2502 3301.71 2568.44 3301.71 2634.88 3301.71 2701.31 3301.71 2767.75 3301.71 2834.19 3301.71 2900.62 3301.71 2967.06 3301.71 3033.5 3301.71 3099.94 3301.71 3166.37 3301.71 3232.81 3301.71 3299.25 3301.71 3365.69 3301.71 3432.12 3301.71 3498.56 3301.71 3565 3301.71 3631.44 3301.71 3697.87 3301.71 3764.31 3301.71 3830.75 3301.71 3897.19 3301.71 3963.62 3301.71 4030.06 3301.71 4083.33 3301.71 4176.1 3386 4229.37 3301.71 4295.81 3196.59 4362.25 2671 4428.69 2671 4495.12 2671 4594.78 3196.59 4628 3301.71" stroke="#2C4D75" stroke-width="10.3125" stroke-linecap="round" stroke-linejoin="round" stroke-miterlimit="10" fill="none"/></g><g><path d="M1439 3301 1638.05 3301 1838.06 3301 2037.07 3301 2236.07 3301 2436.08 3301 2635.09 3301 2834.09 3301 3033.1 3301 3233.11 3301 3432.11 3301 3631.12 3301 3831.13 3301 4030.13 3301 4229.14 3301 4429.15 3301 4628 3301" stroke="#772C2A" stroke-width="10.3125" stroke-linecap="round" stroke-linejoin="round" stroke-miterlimit="10" fill="none"/></g><g><text fill="#595959" font-family="Calibri,Calibri_MSFontService,sans-serif" font-weight="400" font-size="41" transform="matrix(1 0 0 1 1236.4 3523)">-5,0</text></g><g><text fill="#595959" font-family="Calibri,Calibri_MSFontService,sans-serif" font-weight="400" font-size="41" transform="matrix(1 0 0 1 1249.03 3313)">0,0</text></g><g><text fill="#595959" font-family="Calibri,Calibri_MSFontService,sans-serif" font-weight="400" font-size="41" transform="matrix(1 0 0 1 1249.03 3103)">5,0</text></g><g><text fill="#595959" font-family="Calibri,Calibri_MSFontService,sans-serif" font-weight="400" font-size="41" transform="matrix(1 0 0 1 1228.13 2893)">10,0</text></g><g><text fill="#595959" font-family="Calibri,Calibri_MSFontService,sans-serif" font-weight="400" font-size="41" transform="matrix(1 0 0 1 1228.13 2683)">15,0</text></g><g><text fill="#595959" font-family="Calibri,Calibri_MSFontService,sans-serif" font-weight="400" font-size="41" transform="matrix(1 0 0 1 1228.13 2473)">20,0</text></g><g><text fill="#595959" font-family="Calibri,Calibri_MSFontService,sans-serif" font-weight="400" font-size="41" transform="matrix(1 0 0 1 1228.13 2262)">25,0</text></g><g><text fill="#595959" font-family="Calibri,Calibri_MSFontService,sans-serif" font-weight="400" font-size="41" transform="matrix(1 0 0 1 1228.13 2052)">30,0</text></g><g><text fill="#595959" font-family="Calibri,Calibri_MSFontService,sans-serif" font-weight="400" font-size="41" transform="matrix(1 0 0 1 1228.13 1842)">35,0</text></g><g><text fill="#595959" font-family="Calibri,Calibri_MSFontService,sans-serif" font-weight="400" font-size="41" transform="matrix(1 0 0 1 1228.13 1632)">40,0</text></g><g><text fill="#595959" font-family="Calibri,Calibri_MSFontService,sans-serif" font-weight="400" font-size="41" transform="matrix(1 0 0 1 1419.12 3367)">S1</text></g><g><text fill="#595959" font-family="Calibri,Calibri_MSFontService,sans-serif" font-weight="400" font-size="41" transform="matrix(1 0 0 1 1618.43 3367)">S2</text></g><g><text fill="#595959" font-family="Calibri,Calibri_MSFontService,sans-serif" font-weight="400" font-size="41" transform="matrix(1 0 0 1 1817.75 3367)">S3</text></g><g><text fill="#595959" font-family="Calibri,Calibri_MSFontService,sans-serif" font-weight="400" font-size="41" transform="matrix(1 0 0 1 2017.07 3367)">S4</text></g><g><text fill="#595959" font-family="Calibri,Calibri_MSFontService,sans-serif" font-weight="400" font-size="41" transform="matrix(1 0 0 1 2216.38 3367)">S5</text></g><g><text fill="#595959" font-family="Calibri,Calibri_MSFontService,sans-serif" font-weight="400" font-size="41" transform="matrix(1 0 0 1 2415.7 3367)">S6</text></g><g><text fill="#595959" font-family="Calibri,Calibri_MSFontService,sans-serif" font-weight="400" font-size="41" transform="matrix(1 0 0 1 2615.02 3367)">S7</text></g><g><text fill="#595959" font-family="Calibri,Calibri_MSFontService,sans-serif" font-weight="400" font-size="41" transform="matrix(1 0 0 1 2814.33 3367)">S8</text></g><g><text fill="#595959" font-family="Calibri,Calibri_MSFontService,sans-serif" font-weight="400" font-size="41" transform="matrix(1 0 0 1 3013.65 3367)">S9</text></g><g><text fill="#595959" font-family="Calibri,Calibri_MSFontService,sans-serif" font-weight="400" font-size="41" transform="matrix(1 0 0 1 3202.52 3367)">S10</text></g><g><text fill="#595959" font-family="Calibri,Calibri_MSFontService,sans-serif" font-weight="400" font-size="41" transform="matrix(1 0 0 1 3401.83 3367)">S11</text></g><g><text fill="#595959" font-family="Calibri,Calibri_MSFontService,sans-serif" font-weight="400" font-size="41" transform="matrix(1 0 0 1 3601.15 3367)">S12</text></g><g><text fill="#595959" font-family="Calibri,Calibri_MSFontService,sans-serif" font-weight="400" font-size="41" transform="matrix(1 0 0 1 3800.47 3367)">S13</text></g><g><text fill="#595959" font-family="Calibri,Calibri_MSFontService,sans-serif" font-weight="400" font-size="41" transform="matrix(1 0 0 1 3999.78 3367)">S14</text></g><g><text fill="#595959" font-family="Calibri,Calibri_MSFontService,sans-serif" font-weight="400" font-size="41" transform="matrix(1 0 0 1 4199.1 3367)">S15</text></g><g><text fill="#595959" font-family="Calibri,Calibri_MSFontService,sans-serif" font-weight="400" font-size="41" transform="matrix(1 0 0 1 4398.42 3367)">S16</text></g><g><text fill="#595959" font-family="Calibri,Calibri_MSFontService,sans-serif" font-weight="400" font-size="41" transform="matrix(1 0 0 1 4597.73 3367)">S17</text></g><g><text fill="#595959" font-family="Calibri,Calibri_MSFontService,sans-serif" font-weight="400" font-size="46" transform="matrix(6.12323e-17 -1 1 6.12323e-17 1202.44 2619)">Errori</text></g><g><text fill="#595959" font-family="Calibri,Calibri_MSFontService,sans-serif" font-weight="400" font-size="64" transform="matrix(1 0 0 1 2930.33 1546)">MPC</text></g><g><text fill="#595959" font-family="Calibri,Calibri_MSFontService,sans-serif" font-weight="400" font-size="64" transform="matrix(1 0 0 1 3052.55 1546)">-</text></g><g><text fill="#595959" font-family="Calibri,Calibri_MSFontService,sans-serif" font-weight="400" font-size="64" transform="matrix(1 0 0 1 3072.19 1546)">CO</text></g><g><path d="M2028 3600 2116 3600" stroke="#4F81BD" stroke-width="10.3125" stroke-linecap="round" stroke-linejoin="round" stroke-miterlimit="10" fill="none" fill-rule="evenodd"/></g><g><text fill="#595959" font-family="Calibri,Calibri_MSFontService,sans-serif" font-weight="400" font-size="41" transform="matrix(1 0 0 1 2125.54 3612)">AdR</text></g><g><path d="M2246 3600 2334 3600" stroke="#C0504D" stroke-width="10.3125" stroke-linecap="round" stroke-linejoin="round" stroke-miterlimit="10" fill="none" fill-rule="evenodd"/></g><g><text fill="#595959" font-family="Calibri,Calibri_MSFontService,sans-serif" font-weight="400" font-size="41" transform="matrix(1 0 0 1 2342.93 3612)">PdQ</text></g><g><path d="M2466 3600 2554 3600" stroke="#9BBB59" stroke-width="10.3125" stroke-linecap="round" stroke-linejoin="round" stroke-miterlimit="10" fill="none" fill-rule="evenodd"/></g><g><text fill="#595959" font-family="Calibri,Calibri_MSFontService,sans-serif" font-weight="400" font-size="41" transform="matrix(1 0 0 1 2563.12 3612)">NdP</text></g><g><path d="M2685 3600 2773 3600" stroke="#8064A2" stroke-width="10.3125" stroke-linecap="round" stroke-linejoin="round" stroke-miterlimit="10" fill="none" fill-rule="evenodd"/></g><g><text fill="#595959" font-family="Calibri,Calibri_MSFontService,sans-serif" font-weight="400" font-size="41" transform="matrix(1 0 0 1 2782.18 3612)">PdP</text></g><g><path d="M2899 3600 2987 3600" stroke="#4BACC6" stroke-width="10.3125" stroke-linecap="round" stroke-linejoin="round" stroke-miterlimit="10" fill="none" fill-rule="evenodd"/></g><g><text fill="#595959" font-family="Calibri,Calibri_MSFontService,sans-serif" font-weight="400" font-size="41" transform="matrix(1 0 0 1 2995.93 3612)">Glossario</text></g><g><path d="M3203 3600 3291 3600" stroke="#F79646" stroke-width="10.3125" stroke-linecap="round" stroke-linejoin="round" stroke-miterlimit="10" fill="none" fill-rule="evenodd"/></g><g><text fill="#595959" font-family="Calibri,Calibri_MSFontService,sans-serif" font-weight="400" font-size="41" transform="matrix(1 0 0 1 3300.24 3612)">ST</text></g><g><path d="M3391 3600 3479 3600" stroke="#2C4D75" stroke-width="10.3125" stroke-linecap="round" stroke-linejoin="round" stroke-miterlimit="10" fill="none" fill-rule="evenodd"/></g><g><text fill="#595959" font-family="Calibri,Calibri_MSFontService,sans-serif" font-weight="400" font-size="41" transform="matrix(1 0 0 1 3488.73 3612)">Manuale Utente</text></g><g><path d="M3815 3600 3903 3600" stroke="#772C2A" stroke-width="10.3125" stroke-linecap="round" stroke-linejoin="round" stroke-miterlimit="10" fill="none" fill-rule="evenodd"/></g><g><text fill="#595959" font-family="Calibri,Calibri_MSFontService,sans-serif" font-weight="400" font-size="41" transform="matrix(1 0 0 1 3912.49 3612)">Soglia (0)</text></g><rect x="1101.5" y="1451.5" width="3876" height="2216" stroke="#D9D9D9" stroke-width="3.4375" stroke-linejoin="round" stroke-miterlimit="10" fill="none"/></g></svg>