<svg width="4212" height="2223" xmlns="http://www.w3.org/2000/svg" xmlns:xlink="http://www.w3.org/1999/xlink" xml:space="preserve" overflow="hidden"><defs><clipPath id="clip0"><rect x="1182" y="1448" width="4212" height="2223"/></clipPath><clipPath id="clip1"><rect x="1182" y="1448" width="4212" height="2223"/></clipPath></defs><g clip-path="url(#clip0)" transform="translate(-1182 -1448)"><g clip-path="url(#clip1)"><rect x="1187" y="1451" width="4203" height="2216" fill="#FFFFFF" fill-opacity="1"/><g><path d="M1425.5 3511.5 5339.5 3511.5M1425.5 3091.6 5339.5 3091.6M1425.5 2881.59 5339.5 2881.59M1425.5 2670.59 5339.5 2670.59M1425.5 2460.58 5339.5 2460.58M1425.5 2250.57 5339.5 2250.57M1425.5 2040.57 5339.5 2040.57M1425.5 1830.56 5339.5 1830.56M1425.5 1620.5 5339.5 1620.5" stroke="#D9D9D9" stroke-width="3.4375" stroke-linecap="butt" stroke-linejoin="round" stroke-miterlimit="10" stroke-opacity="1" fill="none" fill-rule="nonzero"/></g><g><path d="M1425.5 3301.5 5339.5 3301.5" stroke="#D9D9D9" stroke-width="3.4375" stroke-linecap="butt" stroke-linejoin="round" stroke-miterlimit="10" stroke-opacity="1" fill="none" fill-rule="evenodd"/></g><g><path d="M1534 3301.02C1565.66 3301.02 1719.77 3405 1751.44 3301.02 1823.92 3063 1896.4 2096.93 1968.88 1872.91 2002.82 1768 2152.37 1845.45 2186.31 1956.92 2258.79 2194.94 2331.27 3077.01 2403.75 3301.02 2437.21 3404.44 2587.73 3301.02 2621.19 3301.02 2693.67 3301.02 2766.15 3301.02 2838.62 3301.02 2911.1 3301.02 2983.58 3308.02 3056.06 3301.02 3128.54 3294.02 3201.02 3259.02 3273.5 3259.02 3345.98 3259.02 3418.46 3294.02 3490.94 3301.02 3563.42 3308.02 3635.9 3301.02 3708.38 3301.02 3780.85 3301.02 3853.33 3301.02 3925.81 3301.02 3998.29 3301.02 4070.77 3308.02 4143.25 3301.02 4215.73 3294.02 4288.21 3259.02 4360.69 3259.02 4433.17 3259.02 4505.65 3294.02 4578.12 3301.02 4650.6 3308.02 4723.08 3301.02 4795.56 3301.02 4868.04 3301.02 4976.76 3301.02 5013 3301.02" stroke="#4F81BD" stroke-width="10.3125" stroke-linecap="round" stroke-linejoin="round" stroke-miterlimit="10" stroke-opacity="1" fill="none" fill-rule="nonzero"/></g><g><path d="M1534 2713C1606.48 2797.07 1678.96 2923.17 1751.44 2965.2 1823.92 3007.23 1896.4 2968.7 1968.88 2965.2 2041.35 2961.7 2113.83 2888.14 2186.31 2944.18 2258.79 3000.23 2331.27 3255.93 2403.75 3301.46 2476.23 3347 2548.71 3224.4 2621.19 3217.4 2693.67 3210.39 2766.15 3245.42 2838.62 3259.43 2911.1 3273.44 2983.58 3294.46 3056.06 3301.46 3128.54 3308.47 3201.02 3301.46 3273.5 3301.46 3345.98 3301.46 3418.46 3301.46 3490.94 3301.46 3563.42 3301.46 3635.9 3301.46 3708.38 3301.46 3780.85 3301.46 3853.33 3301.46 3925.81 3301.46 3998.29 3301.46 4070.77 3301.46 4143.25 3301.46 4215.73 3301.46 4288.21 3301.46 4360.69 3301.46 4433.17 3301.46 4505.65 3301.46 4578.12 3301.46 4650.6 3301.46 4723.08 3301.46 4795.56 3301.46 4868.04 3301.46 4976.76 3301.46 5013 3301.46" stroke="#C0504D" stroke-width="10.3125" stroke-linecap="round" stroke-linejoin="round" stroke-miterlimit="10" stroke-opacity="1" fill="none" fill-rule="nonzero"/></g><g><path d="M1534 2377.4C1606.48 2307.37 1678.96 2202.33 1751.44 2167.32 1823.92 2132.31 1896.4 2181.33 1968.88 2167.32 2011.98 2158.99 2143.2 1975 2186.31 2083.29 2258.79 2265.36 2331.27 3056.64 2403.75 3259.71 2440.97 3364 2583.97 3298.13 2621.19 3301.73 2693.67 3308.73 2766.15 3315.73 2838.62 3301.73 2911.1 3287.72 2983.58 3217.7 3056.06 3217.7 3128.54 3217.7 3201.02 3287.72 3273.5 3301.73 3345.98 3315.73 3418.46 3301.73 3490.94 3301.73 3563.42 3301.73 3635.9 3301.73 3708.38 3301.73 3780.85 3301.73 3853.33 3301.73 3925.81 3301.73 3998.29 3301.73 4070.77 3301.73 4143.25 3301.73 4215.73 3301.73 4288.21 3301.73 4360.69 3301.73 4433.17 3301.73 4505.65 3301.73 4578.12 3301.73 4650.6 3301.73 4723.08 3301.73 4795.56 3301.73 4868.04 3301.73 4976.76 3301.73 5013 3301.73" stroke="#9BBB59" stroke-width="10.3125" stroke-linecap="round" stroke-linejoin="round" stroke-miterlimit="10" stroke-opacity="1" fill="none" fill-rule="nonzero"/></g><g><path d="M1534 2713C1606.48 2755.03 1678.96 2818.08 1751.44 2839.09 1823.92 2860.11 1896.4 2842.6 1968.88 2839.09 2041.35 2835.59 2113.83 2741.02 2186.31 2818.08 2258.79 2895.14 2331.27 3220.88 2403.75 3301.44 2476.23 3382 2548.71 3301.44 2621.19 3301.44 2693.67 3301.44 2766.15 3301.44 2838.62 3301.44 2911.1 3301.44 2983.58 3301.44 3056.06 3301.44 3128.54 3301.44 3201.02 3301.44 3273.5 3301.44 3345.98 3301.44 3418.46 3301.44 3490.94 3301.44 3563.42 3301.44 3635.9 3301.44 3708.38 3301.44 3780.85 3301.44 3853.33 3301.44 3925.81 3301.44 3998.29 3301.44 4070.77 3301.44 4143.25 3301.44 4215.73 3301.44 4288.21 3301.44 4360.69 3301.44 4433.17 3301.44 4505.65 3301.44 4578.12 3301.44 4650.6 3301.44 4723.08 3301.44 4795.56 3301.44 4868.04 3301.44 4976.76 3301.44 5013 3301.44" stroke="#8064A2" stroke-width="10.3125" stroke-linecap="round" stroke-linejoin="round" stroke-miterlimit="10" stroke-opacity="1" fill="none" fill-rule="nonzero"/></g><g><path d="M1534 3007C1606.48 3007 1678.96 3021 1751.44 3007 1823.92 2993 1896.4 2937 1968.88 2923 2041.35 2909 2113.83 2860 2186.31 2923 2258.79 2986 2331.27 3238 2403.75 3301 2476.23 3364 2548.71 3301 2621.19 3301 2693.67 3301 2766.15 3301 2838.62 3301 2911.1 3301 2983.58 3301 3056.06 3301 3128.54 3301 3201.02 3301 3273.5 3301 3345.98 3301 3418.46 3301 3490.94 3301 3563.42 3301 3635.9 3301 3708.38 3301 3780.85 3301 3853.33 3301 3925.81 3301 3998.29 3301 4070.77 3301 4143.25 3301 4215.73 3301 4288.21 3301 4360.69 3301 4433.17 3301 4505.65 3301 4578.12 3301 4650.6 3301 4723.08 3301 4795.56 3301 4868.04 3301 4976.76 3301 5013 3301" stroke="#4BACC6" stroke-width="10.3125" stroke-linecap="round" stroke-linejoin="round" stroke-miterlimit="10" stroke-opacity="1" fill="none" fill-rule="nonzero"/></g><g><path d="M1534 3301.47C1606.48 3301.47 1678.96 3301.47 1751.44 3301.47 1823.92 3301.47 1896.4 3301.47 1968.88 3301.47 2041.35 3301.47 2113.83 3301.47 2186.31 3301.47 2258.79 3301.47 2331.27 3301.47 2403.75 3301.47 2476.23 3301.47 2548.71 3301.47 2621.19 3301.47 2693.67 3301.47 2766.15 3301.47 2838.62 3301.47 2911.1 3301.47 2983.58 3301.47 3056.06 3301.47 3127.07 3301.47 3202.49 3383.81 3273.5 3301.47 3345.98 3217.43 3418.46 2902.28 3490.94 2797.23 3562.31 2693.79 3637 2691.86 3708.38 2671.17 3780.85 2650.16 3853.33 2671.17 3925.81 2671.17 3998.29 2671.17 4070.77 2671.17 4143.25 2671.17 4215.73 2671.17 4288.21 2713.19 4360.69 2671.17 4433.17 2629.15 4505.65 2314 4578.12 2419.05 4650.6 2524.1 4723.08 3154.4 4795.56 3301.47 4843.63 3399 4988.97 3301.47 5013 3301.47" stroke="#F79646" stroke-width="10.3125" stroke-linecap="round" stroke-linejoin="round" stroke-miterlimit="10" stroke-opacity="1" fill="none" fill-rule="nonzero"/></g><g><path d="M1534 3301C1606.48 3301 1678.96 3301 1751.44 3301 1823.92 3301 1896.4 3301 1968.88 3301 2041.35 3301 2113.83 3301 2186.31 3301 2258.79 3301 2331.27 3301 2403.75 3301 2476.23 3301 2548.71 3301 2621.19 3301 2693.67 3301 2766.15 3301 2838.62 3301 2911.1 3301 2983.58 3301 3056.06 3301 3128.54 3301 3201.02 3357 3273.5 3301 3345.98 3245 3418.46 3021 3490.94 2965 3563.42 2909 3635.9 2965 3708.38 2965 3780.85 2965 3853.33 2965 3925.81 2965 3998.29 2965 4070.77 2965 4143.25 2965 4215.73 2965 4288.21 2972 4360.69 2965 4433.17 2958 4505.65 2867 4578.12 2923 4650.6 2979 4723.08 3238 4795.56 3301 4868.04 3364 4976.76 3301 5013 3301" stroke="#2C4D75" stroke-width="10.3125" stroke-linecap="round" stroke-linejoin="round" stroke-miterlimit="10" stroke-opacity="1" fill="none" fill-rule="nonzero"/></g><g><path d="M1534 3301 1752.06 3301 1969.06 3301 2186.07 3301 2404.08 3301 2621.09 3301 2839.09 3301 3056.1 3301 3274.11 3301 3491.11 3301 3709.12 3301 3926.13 3301 4143.14 3301 4361.14 3301 4578.15 3301 4796.16 3301 5013 3301" stroke="#772C2A" stroke-width="10.3125" stroke-linecap="round" stroke-linejoin="round" stroke-miterlimit="10" stroke-opacity="1" fill="none" fill-rule="nonzero"/></g><g><text fill="#595959" fill-opacity="1" font-family="Calibri,Calibri_MSFontService,sans-serif" font-style="normal" font-variant="normal" font-weight="400" font-stretch="normal" font-size="41" text-anchor="start" direction="ltr" writing-mode="lr-tb" unicode-bidi="normal" text-decoration="none" transform="matrix(1 0 0 1 1322.34 3521)">-5.0</text></g><g><text fill="#595959" fill-opacity="1" font-family="Calibri,Calibri_MSFontService,sans-serif" font-style="normal" font-variant="normal" font-weight="400" font-stretch="normal" font-size="41" text-anchor="start" direction="ltr" writing-mode="lr-tb" unicode-bidi="normal" text-decoration="none" transform="matrix(1 0 0 1 1334.96 3311)">0.0</text></g><g><text fill="#595959" fill-opacity="1" font-family="Calibri,Calibri_MSFontService,sans-serif" font-style="normal" font-variant="normal" font-weight="400" font-stretch="normal" font-size="41" text-anchor="start" direction="ltr" writing-mode="lr-tb" unicode-bidi="normal" text-decoration="none" transform="matrix(1 0 0 1 1334.96 3101)">5.0</text></g><g><text fill="#595959" fill-opacity="1" font-family="Calibri,Calibri_MSFontService,sans-serif" font-style="normal" font-variant="normal" font-weight="400" font-stretch="normal" font-size="41" text-anchor="start" direction="ltr" writing-mode="lr-tb" unicode-bidi="normal" text-decoration="none" transform="matrix(1 0 0 1 1314.06 2891)">10.0</text></g><g><text fill="#595959" fill-opacity="1" font-family="Calibri,Calibri_MSFontService,sans-serif" font-style="normal" font-variant="normal" font-weight="400" font-stretch="normal" font-size="41" text-anchor="start" direction="ltr" writing-mode="lr-tb" unicode-bidi="normal" text-decoration="none" transform="matrix(1 0 0 1 1314.06 2681)">15.0</text></g><g><text fill="#595959" fill-opacity="1" font-family="Calibri,Calibri_MSFontService,sans-serif" font-style="normal" font-variant="normal" font-weight="400" font-stretch="normal" font-size="41" text-anchor="start" direction="ltr" writing-mode="lr-tb" unicode-bidi="normal" text-decoration="none" transform="matrix(1 0 0 1 1314.06 2471)">20.0</text></g><g><text fill="#595959" fill-opacity="1" font-family="Calibri,Calibri_MSFontService,sans-serif" font-style="normal" font-variant="normal" font-weight="400" font-stretch="normal" font-size="41" text-anchor="start" direction="ltr" writing-mode="lr-tb" unicode-bidi="normal" text-decoration="none" transform="matrix(1 0 0 1 1314.06 2261)">25.0</text></g><g><text fill="#595959" fill-opacity="1" font-family="Calibri,Calibri_MSFontService,sans-serif" font-style="normal" font-variant="normal" font-weight="400" font-stretch="normal" font-size="41" text-anchor="start" direction="ltr" writing-mode="lr-tb" unicode-bidi="normal" text-decoration="none" transform="matrix(1 0 0 1 1314.06 2051)">30.0</text></g><g><text fill="#595959" fill-opacity="1" font-family="Calibri,Calibri_MSFontService,sans-serif" font-style="normal" font-variant="normal" font-weight="400" font-stretch="normal" font-size="41" text-anchor="start" direction="ltr" writing-mode="lr-tb" unicode-bidi="normal" text-decoration="none" transform="matrix(1 0 0 1 1314.06 1841)">35.0</text></g><g><text fill="#595959" fill-opacity="1" font-family="Calibri,Calibri_MSFontService,sans-serif" font-style="normal" font-variant="normal" font-weight="400" font-stretch="normal" font-size="41" text-anchor="start" direction="ltr" writing-mode="lr-tb" unicode-bidi="normal" text-decoration="none" transform="matrix(1 0 0 1 1314.06 1631)">40.0</text></g><g><text fill="#595959" fill-opacity="1" font-family="Calibri,Calibri_MSFontService,sans-serif" font-style="normal" font-variant="normal" font-weight="400" font-stretch="normal" font-size="41" text-anchor="start" direction="ltr" writing-mode="lr-tb" unicode-bidi="normal" text-decoration="none" transform="matrix(1 0 0 1 1514.24 3367)">S1</text></g><g><text fill="#595959" fill-opacity="1" font-family="Calibri,Calibri_MSFontService,sans-serif" font-style="normal" font-variant="normal" font-weight="400" font-stretch="normal" font-size="41" text-anchor="start" direction="ltr" writing-mode="lr-tb" unicode-bidi="normal" text-decoration="none" transform="matrix(1 0 0 1 1731.69 3367)">S2</text></g><g><text fill="#595959" fill-opacity="1" font-family="Calibri,Calibri_MSFontService,sans-serif" font-style="normal" font-variant="normal" font-weight="400" font-stretch="normal" font-size="41" text-anchor="start" direction="ltr" writing-mode="lr-tb" unicode-bidi="normal" text-decoration="none" transform="matrix(1 0 0 1 1949.14 3367)">S3</text></g><g><text fill="#595959" fill-opacity="1" font-family="Calibri,Calibri_MSFontService,sans-serif" font-style="normal" font-variant="normal" font-weight="400" font-stretch="normal" font-size="41" text-anchor="start" direction="ltr" writing-mode="lr-tb" unicode-bidi="normal" text-decoration="none" transform="matrix(1 0 0 1 2166.59 3367)">S4</text></g><g><text fill="#595959" fill-opacity="1" font-family="Calibri,Calibri_MSFontService,sans-serif" font-style="normal" font-variant="normal" font-weight="400" font-stretch="normal" font-size="41" text-anchor="start" direction="ltr" writing-mode="lr-tb" unicode-bidi="normal" text-decoration="none" transform="matrix(1 0 0 1 2384.05 3367)">S5</text></g><g><text fill="#595959" fill-opacity="1" font-family="Calibri,Calibri_MSFontService,sans-serif" font-style="normal" font-variant="normal" font-weight="400" font-stretch="normal" font-size="41" text-anchor="start" direction="ltr" writing-mode="lr-tb" unicode-bidi="normal" text-decoration="none" transform="matrix(1 0 0 1 2601.5 3367)">S6</text></g><g><text fill="#595959" fill-opacity="1" font-family="Calibri,Calibri_MSFontService,sans-serif" font-style="normal" font-variant="normal" font-weight="400" font-stretch="normal" font-size="41" text-anchor="start" direction="ltr" writing-mode="lr-tb" unicode-bidi="normal" text-decoration="none" transform="matrix(1 0 0 1 2818.95 3367)">S7</text></g><g><text fill="#595959" fill-opacity="1" font-family="Calibri,Calibri_MSFontService,sans-serif" font-style="normal" font-variant="normal" font-weight="400" font-stretch="normal" font-size="41" text-anchor="start" direction="ltr" writing-mode="lr-tb" unicode-bidi="normal" text-decoration="none" transform="matrix(1 0 0 1 3036.4 3367)">S8</text></g><g><text fill="#595959" fill-opacity="1" font-family="Calibri,Calibri_MSFontService,sans-serif" font-style="normal" font-variant="normal" font-weight="400" font-stretch="normal" font-size="41" text-anchor="start" direction="ltr" writing-mode="lr-tb" unicode-bidi="normal" text-decoration="none" transform="matrix(1 0 0 1 3253.86 3367)">S9</text></g><g><text fill="#595959" fill-opacity="1" font-family="Calibri,Calibri_MSFontService,sans-serif" font-style="normal" font-variant="normal" font-weight="400" font-stretch="normal" font-size="41" text-anchor="start" direction="ltr" writing-mode="lr-tb" unicode-bidi="normal" text-decoration="none" transform="matrix(1 0 0 1 3460.86 3367)">S10</text></g><g><text fill="#595959" fill-opacity="1" font-family="Calibri,Calibri_MSFontService,sans-serif" font-style="normal" font-variant="normal" font-weight="400" font-stretch="normal" font-size="41" text-anchor="start" direction="ltr" writing-mode="lr-tb" unicode-bidi="normal" text-decoration="none" transform="matrix(1 0 0 1 3678.31 3367)">S11</text></g><g><text fill="#595959" fill-opacity="1" font-family="Calibri,Calibri_MSFontService,sans-serif" font-style="normal" font-variant="normal" font-weight="400" font-stretch="normal" font-size="41" text-anchor="start" direction="ltr" writing-mode="lr-tb" unicode-bidi="normal" text-decoration="none" transform="matrix(1 0 0 1 3895.76 3367)">S12</text></g><g><text fill="#595959" fill-opacity="1" font-family="Calibri,Calibri_MSFontService,sans-serif" font-style="normal" font-variant="normal" font-weight="400" font-stretch="normal" font-size="41" text-anchor="start" direction="ltr" writing-mode="lr-tb" unicode-bidi="normal" text-decoration="none" transform="matrix(1 0 0 1 4113.22 3367)">S13</text></g><g><text fill="#595959" fill-opacity="1" font-family="Calibri,Calibri_MSFontService,sans-serif" font-style="normal" font-variant="normal" font-weight="400" font-stretch="normal" font-size="41" text-anchor="start" direction="ltr" writing-mode="lr-tb" unicode-bidi="normal" text-decoration="none" transform="matrix(1 0 0 1 4330.67 3367)">S14</text></g><g><text fill="#595959" fill-opacity="1" font-family="Calibri,Calibri_MSFontService,sans-serif" font-style="normal" font-variant="normal" font-weight="400" font-stretch="normal" font-size="41" text-anchor="start" direction="ltr" writing-mode="lr-tb" unicode-bidi="normal" text-decoration="none" transform="matrix(1 0 0 1 4548.12 3367)">S15</text></g><g><text fill="#595959" fill-opacity="1" font-family="Calibri,Calibri_MSFontService,sans-serif" font-style="normal" font-variant="normal" font-weight="400" font-stretch="normal" font-size="41" text-anchor="start" direction="ltr" writing-mode="lr-tb" unicode-bidi="normal" text-decoration="none" transform="matrix(1 0 0 1 4765.58 3367)">S16</text></g><g><text fill="#595959" fill-opacity="1" font-family="Calibri,Calibri_MSFontService,sans-serif" font-style="normal" font-variant="normal" font-weight="400" font-stretch="normal" font-size="41" text-anchor="start" direction="ltr" writing-mode="lr-tb" unicode-bidi="normal" text-decoration="none" transform="matrix(1 0 0 1 4983.03 3367)">S17</text></g><g><text fill="#595959" fill-opacity="1" font-family="Calibri,Calibri_MSFontService,sans-serif" font-style="normal" font-variant="normal" font-weight="400" font-stretch="normal" font-size="46" text-anchor="start" direction="ltr" writing-mode="lr-tb" unicode-bidi="normal" text-decoration="none" transform="matrix(6.12323e-17 -1 1 6.12323e-17 1288.37 2619)">Errori</text></g><g><text fill="#595959" fill-opacity="1" font-family="Calibri,Calibri_MSFontService,sans-serif" font-style="normal" font-variant="normal" font-weight="400" font-stretch="normal" font-size="64" text-anchor="start" direction="ltr" writing-mode="lr-tb" unicode-bidi="normal" text-decoration="none" transform="matrix(1 0 0 1 3073.93 1546)">Errori ortografici</text></g><g><path d="M2277 3600 2365 3600" stroke="#4F81BD" stroke-width="10.3125" stroke-linecap="round" stroke-linejoin="round" stroke-miterlimit="10" stroke-opacity="1" fill="none" fill-rule="evenodd"/></g><g><text fill="#595959" fill-opacity="1" font-family="Calibri,Calibri_MSFontService,sans-serif" font-style="normal" font-variant="normal" font-weight="400" font-stretch="normal" font-size="41" text-anchor="start" direction="ltr" writing-mode="lr-tb" unicode-bidi="normal" text-decoration="none" transform="matrix(1 0 0 1 2374.76 3611)">AdR</text></g><g><path d="M2495 3600 2583 3600" stroke="#C0504D" stroke-width="10.3125" stroke-linecap="round" stroke-linejoin="round" stroke-miterlimit="10" stroke-opacity="1" fill="none" fill-rule="evenodd"/></g><g><text fill="#595959" fill-opacity="1" font-family="Calibri,Calibri_MSFontService,sans-serif" font-style="normal" font-variant="normal" font-weight="400" font-stretch="normal" font-size="41" text-anchor="start" direction="ltr" writing-mode="lr-tb" unicode-bidi="normal" text-decoration="none" transform="matrix(1 0 0 1 2592.15 3611)">PdQ</text></g><g><path d="M2715 3600 2803 3600" stroke="#9BBB59" stroke-width="10.3125" stroke-linecap="round" stroke-linejoin="round" stroke-miterlimit="10" stroke-opacity="1" fill="none" fill-rule="evenodd"/></g><g><text fill="#595959" fill-opacity="1" font-family="Calibri,Calibri_MSFontService,sans-serif" font-style="normal" font-variant="normal" font-weight="400" font-stretch="normal" font-size="41" text-anchor="start" direction="ltr" writing-mode="lr-tb" unicode-bidi="normal" text-decoration="none" transform="matrix(1 0 0 1 2812.34 3611)">NdP</text></g><g><path d="M2934 3600 3022 3600" stroke="#8064A2" stroke-width="10.3125" stroke-linecap="round" stroke-linejoin="round" stroke-miterlimit="10" stroke-opacity="1" fill="none" fill-rule="evenodd"/></g><g><text fill="#595959" fill-opacity="1" font-family="Calibri,Calibri_MSFontService,sans-serif" font-style="normal" font-variant="normal" font-weight="400" font-stretch="normal" font-size="41" text-anchor="start" direction="ltr" writing-mode="lr-tb" unicode-bidi="normal" text-decoration="none" transform="matrix(1 0 0 1 3031.4 3611)">PdP</text></g><g><path d="M3148 3600 3236 3600" stroke="#4BACC6" stroke-width="10.3125" stroke-linecap="round" stroke-linejoin="round" stroke-miterlimit="10" stroke-opacity="1" fill="none" fill-rule="evenodd"/></g><g><text fill="#595959" fill-opacity="1" font-family="Calibri,Calibri_MSFontService,sans-serif" font-style="normal" font-variant="normal" font-weight="400" font-stretch="normal" font-size="41" text-anchor="start" direction="ltr" writing-mode="lr-tb" unicode-bidi="normal" text-decoration="none" transform="matrix(1 0 0 1 3245.15 3611)">Glossario</text></g><g><path d="M3452 3600 3540 3600" stroke="#F79646" stroke-width="10.3125" stroke-linecap="round" stroke-linejoin="round" stroke-miterlimit="10" stroke-opacity="1" fill="none" fill-rule="evenodd"/></g><g><text fill="#595959" fill-opacity="1" font-family="Calibri,Calibri_MSFontService,sans-serif" font-style="normal" font-variant="normal" font-weight="400" font-stretch="normal" font-size="41" text-anchor="start" direction="ltr" writing-mode="lr-tb" unicode-bidi="normal" text-decoration="none" transform="matrix(1 0 0 1 3549.46 3611)">ST</text></g><g><path d="M3641 3600 3729 3600" stroke="#2C4D75" stroke-width="10.3125" stroke-linecap="round" stroke-linejoin="round" stroke-miterlimit="10" stroke-opacity="1" fill="none" fill-rule="evenodd"/></g><g><text fill="#595959" fill-opacity="1" font-family="Calibri,Calibri_MSFontService,sans-serif" font-style="normal" font-variant="normal" font-weight="400" font-stretch="normal" font-size="41" text-anchor="start" direction="ltr" writing-mode="lr-tb" unicode-bidi="normal" text-decoration="none" transform="matrix(1 0 0 1 3737.95 3611)">Manuale Utente</text></g><g><path d="M4064 3600 4152 3600" stroke="#772C2A" stroke-width="10.3125" stroke-linecap="round" stroke-linejoin="round" stroke-miterlimit="10" stroke-opacity="1" fill="none" fill-rule="evenodd"/></g><g><text fill="#595959" fill-opacity="1" font-family="Calibri,Calibri_MSFontService,sans-serif" font-style="normal" font-variant="normal" font-weight="400" font-stretch="normal" font-size="41" text-anchor="start" direction="ltr" writing-mode="lr-tb" unicode-bidi="normal" text-decoration="none" transform="matrix(1 0 0 1 4161.71 3611)">Soglia (0)</text></g><rect x="1187.5" y="1451.5" width="4203" height="2216" stroke="#D9D9D9" stroke-width="3.4375" stroke-linecap="butt" stroke-linejoin="round" stroke-miterlimit="10" stroke-opacity="1" fill="none"/></g></g></svg>