<svg width="3592" height="1857" xmlns="http://www.w3.org/2000/svg" xmlns:xlink="http://www.w3.org/1999/xlink" xml:space="preserve" overflow="hidden"><defs><clipPath id="clip0"><rect x="274" y="1361" width="3592" height="1857"/></clipPath></defs><g clip-path="url(#clip0)" transform="translate(-274 -1361)"><rect x="275" y="1362" width="3589" height="1854" fill="#FFFFFF"/><g><path d="M437.5 2845.59 3813.5 2845.59M437.5 2700.59 3813.5 2700.59M437.5 2554.58 3813.5 2554.58M437.5 2408.58 3813.5 2408.58M437.5 2262.57 3813.5 2262.57M437.5 2117.57 3813.5 2117.57M437.5 1971.56 3813.5 1971.56M437.5 1825.56 3813.5 1825.56M437.5 1680.56 3813.5 1680.56M437.5 1534.5 3813.5 1534.5" stroke="#D9D9D9" stroke-width="3.4375" stroke-linejoin="round" stroke-miterlimit="10" fill="none"/></g><g><path d="M437.5 2991.5 3813.5 2991.5" stroke="#D9D9D9" stroke-width="3.4375" stroke-linejoin="round" stroke-miterlimit="10" fill="none" fill-rule="evenodd"/></g><g><path d="M537 1680.06 736.024 1658 934.031 2052 1133.04 2030.07 1331.04 2001.07 1530.05 2001.07 1728.06 1972.06 1927.06 1957.06 2125.07 1935.06 2324.08 1899.06 2522.08 1899.06 2721.09 1899.06 2920.1 1899.06 3118.1 1899.06 3317.11 1899.06 3515.12 1899.06 3714 1899.06" stroke="#4F81BD" stroke-width="5.72917" stroke-linecap="round" stroke-linejoin="round" stroke-miterlimit="10" fill="none"/></g><g><path d="M537.5 2117.5 735.524 1942.5 934.531 1942.5 1132.54 1942.5 1331.54 1978.57 1529.55 2000.57 1728.56 2029.57 1926.56 2073.57 2125.57 2073.57 2323.58 2073.57 2522.58 2073.57 2721.59 2058.57 2919.6 2073.57 3118.6 2102.57 3316.61 2015.57 3515.62 2000.57 3713.5 1986.57" stroke="#C0504D" stroke-width="6.875" stroke-linecap="round" stroke-linejoin="round" stroke-miterlimit="10" fill="none"/></g><g><path d="M537.5 1825.5 735.524 1905.56 934.531 1942.56 1132.54 1957.5 1331.54 1957.5 1529.55 1957.5 1728.56 1957.5 1926.56 1927.56 2125.57 1927.56 2323.58 1927.56 2522.58 1942.56 2721.59 1942.56 2919.6 1942.56 3118.6 1942.56 3316.61 1957.5 3515.62 1957.5 3713.5 1957.5" stroke="#9BBB59" stroke-width="6.875" stroke-linecap="round" stroke-linejoin="round" stroke-miterlimit="10" fill="none"/></g><g><path d="M537.5 1927.56 735.524 1935.56 934.531 1927.56 1132.54 1927.56 1331.54 1971.5 1529.55 1927.56 1728.56 1927.56 1926.56 1927.56 2125.57 1920.56 2323.58 1920.56 2522.58 1920.56 2721.59 1920.56 2919.6 1920.56 3118.6 1898.5 3316.61 1898.5 3515.62 1898.5 3713.5 1898.5" stroke="#8064A2" stroke-width="6.875" stroke-linecap="round" stroke-linejoin="round" stroke-miterlimit="10" fill="none"/></g><g><path d="M537.5 1753.5 735.524 1753.5 934.531 1767.56 1132.54 1782.56 1331.54 1796.56 1529.55 1796.56 1728.56 1796.56 1926.56 1782.56 2125.57 1782.56 2323.58 1782.56 2522.58 1811.56 2721.59 1811.56 2919.6 1825.5 3118.6 1811.56 3316.61 1796.56 3515.62 1796.56 3713.5 1811.56" stroke="#4BACC6" stroke-width="6.875" stroke-linecap="round" stroke-linejoin="round" stroke-miterlimit="10" fill="none"/></g><g><path d="M537.5 2991.5 735.524 2991.5 934.531 2991.5 1132.54 2991.5 1331.54 2991.5 1529.55 2991.5 1728.56 2991.5 1926.56 2991.5 2125.57 2991.5 2323.58 1680.56 2522.58 1658.5 2721.59 1752.56 2919.6 1840.56 3118.6 1854.56 3316.61 1898.56 3515.62 1942.56 3713.5 1869.56" stroke="#F79646" stroke-width="6.875" stroke-linecap="round" stroke-linejoin="round" stroke-miterlimit="10" fill="none"/></g><g><path d="M537.5 2991.5 735.524 2991.5 934.531 2991.5 1132.54 2991.5 1331.54 2991.5 1529.55 2991.5 1728.56 2991.5 1926.56 2991.5 2125.57 2991.5 2323.58 2991.5 2522.58 2991.5 2721.59 2991.5 2919.6 2991.5 3118.6 2991.5 3316.61 2991.5 3515.62 1753.5 3713.5 1811.56" stroke="#2C4D75" stroke-width="6.875" stroke-linecap="round" stroke-linejoin="round" stroke-miterlimit="10" fill="none"/></g><g><path d="M537 2117 736.024 2117 934.031 2117 1133.04 2117 1331.04 2117 1530.05 2117 1728.06 2117 1927.06 2117 2125.07 2117 2324.08 2117 2522.08 2117 2721.09 2117 2920.1 2117 3118.1 2117 3317.11 2117 3515.12 2117 3714 2117" stroke="#FF0000" stroke-width="10.3125" stroke-linecap="round" stroke-linejoin="round" stroke-miterlimit="10" stroke-dasharray="20.625 20.625" fill="none"/></g><g><path d="M537 1826 736.024 1826 934.031 1826 1133.04 1826 1331.04 1826 1530.05 1826 1728.06 1826 1927.06 1826 2125.07 1826 2324.08 1826 2522.08 1826 2721.09 1826 2920.1 1826 3118.1 1826 3317.11 1826 3515.12 1826 3714 1826" stroke="#00B050" stroke-width="10.3125" stroke-linecap="round" stroke-linejoin="round" stroke-miterlimit="10" stroke-dasharray="20.625 20.625" fill="none"/></g><g><text fill="#595959" font-family="Calibri,Calibri_MSFontService,sans-serif" font-weight="400" font-size="41" transform="matrix(1 0 0 1 347.519 3003)">0,0</text></g><g><text fill="#595959" font-family="Calibri,Calibri_MSFontService,sans-serif" font-weight="400" font-size="41" transform="matrix(1 0 0 1 326.619 2857)">10,0</text></g><g><text fill="#595959" font-family="Calibri,Calibri_MSFontService,sans-serif" font-weight="400" font-size="41" transform="matrix(1 0 0 1 326.619 2712)">20,0</text></g><g><text fill="#595959" font-family="Calibri,Calibri_MSFontService,sans-serif" font-weight="400" font-size="41" transform="matrix(1 0 0 1 326.619 2566)">30,0</text></g><g><text fill="#595959" font-family="Calibri,Calibri_MSFontService,sans-serif" font-weight="400" font-size="41" transform="matrix(1 0 0 1 326.619 2420)">40,0</text></g><g><text fill="#595959" font-family="Calibri,Calibri_MSFontService,sans-serif" font-weight="400" font-size="41" transform="matrix(1 0 0 1 326.619 2275)">50,0</text></g><g><text fill="#595959" font-family="Calibri,Calibri_MSFontService,sans-serif" font-weight="400" font-size="41" transform="matrix(1 0 0 1 326.619 2129)">60,0</text></g><g><text fill="#595959" font-family="Calibri,Calibri_MSFontService,sans-serif" font-weight="400" font-size="41" transform="matrix(1 0 0 1 326.619 1983)">70,0</text></g><g><text fill="#595959" font-family="Calibri,Calibri_MSFontService,sans-serif" font-weight="400" font-size="41" transform="matrix(1 0 0 1 326.619 1837)">80,0</text></g><g><text fill="#595959" font-family="Calibri,Calibri_MSFontService,sans-serif" font-weight="400" font-size="41" transform="matrix(1 0 0 1 326.619 1692)">90,0</text></g><g><text fill="#595959" font-family="Calibri,Calibri_MSFontService,sans-serif" font-weight="400" font-size="41" transform="matrix(1 0 0 1 305.719 1546)">100,0</text></g><g><text fill="#595959" font-family="Calibri,Calibri_MSFontService,sans-serif" font-weight="400" font-size="41" transform="matrix(1 0 0 1 517.22 3057)">S1</text></g><g><text fill="#595959" font-family="Calibri,Calibri_MSFontService,sans-serif" font-weight="400" font-size="41" transform="matrix(1 0 0 1 715.761 3057)">S2</text></g><g><text fill="#595959" font-family="Calibri,Calibri_MSFontService,sans-serif" font-weight="400" font-size="41" transform="matrix(1 0 0 1 914.302 3057)">S3</text></g><g><text fill="#595959" font-family="Calibri,Calibri_MSFontService,sans-serif" font-weight="400" font-size="41" transform="matrix(1 0 0 1 1112.84 3057)">S4</text></g><g><text fill="#595959" font-family="Calibri,Calibri_MSFontService,sans-serif" font-weight="400" font-size="41" transform="matrix(1 0 0 1 1311.38 3057)">S5</text></g><g><text fill="#595959" font-family="Calibri,Calibri_MSFontService,sans-serif" font-weight="400" font-size="41" transform="matrix(1 0 0 1 1509.93 3057)">S6</text></g><g><text fill="#595959" font-family="Calibri,Calibri_MSFontService,sans-serif" font-weight="400" font-size="41" transform="matrix(1 0 0 1 1708.47 3057)">S7</text></g><g><text fill="#595959" font-family="Calibri,Calibri_MSFontService,sans-serif" font-weight="400" font-size="41" transform="matrix(1 0 0 1 1907.01 3057)">S8</text></g><g><text fill="#595959" font-family="Calibri,Calibri_MSFontService,sans-serif" font-weight="400" font-size="41" transform="matrix(1 0 0 1 2105.55 3057)">S9</text></g><g><text fill="#595959" font-family="Calibri,Calibri_MSFontService,sans-serif" font-weight="400" font-size="41" transform="matrix(1 0 0 1 2293.64 3057)">S10</text></g><g><text fill="#595959" font-family="Calibri,Calibri_MSFontService,sans-serif" font-weight="400" font-size="41" transform="matrix(1 0 0 1 2492.18 3057)">S11</text></g><g><text fill="#595959" font-family="Calibri,Calibri_MSFontService,sans-serif" font-weight="400" font-size="41" transform="matrix(1 0 0 1 2690.72 3057)">S12</text></g><g><text fill="#595959" font-family="Calibri,Calibri_MSFontService,sans-serif" font-weight="400" font-size="41" transform="matrix(1 0 0 1 2889.26 3057)">S13</text></g><g><text fill="#595959" font-family="Calibri,Calibri_MSFontService,sans-serif" font-weight="400" font-size="41" transform="matrix(1 0 0 1 3087.8 3057)">S14</text></g><g><text fill="#595959" font-family="Calibri,Calibri_MSFontService,sans-serif" font-weight="400" font-size="41" transform="matrix(1 0 0 1 3286.35 3057)">S15</text></g><g><text fill="#595959" font-family="Calibri,Calibri_MSFontService,sans-serif" font-weight="400" font-size="41" transform="matrix(1 0 0 1 3484.89 3057)">S16</text></g><g><text fill="#595959" font-family="Calibri,Calibri_MSFontService,sans-serif" font-weight="400" font-size="41" transform="matrix(1 0 0 1 3683.43 3057)">S17</text></g><g><text fill="#595959" font-family="Calibri,Calibri_MSFontService,sans-serif" font-weight="400" font-size="64" transform="matrix(1 0 0 1 1970.13 1458)">MPC</text></g><g><text fill="#595959" font-family="Calibri,Calibri_MSFontService,sans-serif" font-weight="400" font-size="64" transform="matrix(1 0 0 1 2092.35 1458)">-</text></g><g><text fill="#595959" font-family="Calibri,Calibri_MSFontService,sans-serif" font-weight="400" font-size="64" transform="matrix(1 0 0 1 2111.99 1458)">IG</text></g><g><path d="M560 3150 675 3150" stroke="#4F81BD" stroke-width="5.72917" stroke-linecap="round" stroke-linejoin="round" stroke-miterlimit="10" fill="none" fill-rule="evenodd"/></g><g><text fill="#595959" font-family="Calibri,Calibri_MSFontService,sans-serif" font-weight="400" font-size="41" transform="matrix(1 0 0 1 687.949 3162)">AdR</text></g><g><path d="M824.5 3150.5 940.5 3150.5" stroke="#C0504D" stroke-width="6.875" stroke-linecap="round" stroke-linejoin="round" stroke-miterlimit="10" fill="none" fill-rule="evenodd"/></g><g><text fill="#595959" font-family="Calibri,Calibri_MSFontService,sans-serif" font-weight="400" font-size="41" transform="matrix(1 0 0 1 952.945 3162)">PdQ</text></g><g><path d="M1092.5 3150.5 1208.5 3150.5" stroke="#9BBB59" stroke-width="6.875" stroke-linecap="round" stroke-linejoin="round" stroke-miterlimit="10" fill="none" fill-rule="evenodd"/></g><g><text fill="#595959" font-family="Calibri,Calibri_MSFontService,sans-serif" font-weight="400" font-size="41" transform="matrix(1 0 0 1 1220.74 3162)">NdP</text></g><g><path d="M1359.5 3150.5 1474.5 3150.5" stroke="#8064A2" stroke-width="6.875" stroke-linecap="round" stroke-linejoin="round" stroke-miterlimit="10" fill="none" fill-rule="evenodd"/></g><g><text fill="#595959" font-family="Calibri,Calibri_MSFontService,sans-serif" font-weight="400" font-size="41" transform="matrix(1 0 0 1 1487.41 3162)">PdP</text></g><g><path d="M1620.5 3150.5 1736.5 3150.5" stroke="#4BACC6" stroke-width="6.875" stroke-linecap="round" stroke-linejoin="round" stroke-miterlimit="10" fill="none" fill-rule="evenodd"/></g><g><text fill="#595959" font-family="Calibri,Calibri_MSFontService,sans-serif" font-weight="400" font-size="41" transform="matrix(1 0 0 1 1748.76 3162)">Glossario</text></g><g><path d="M1972.5 3150.5 2087.5 3150.5" stroke="#F79646" stroke-width="6.875" stroke-linecap="round" stroke-linejoin="round" stroke-miterlimit="10" fill="none" fill-rule="evenodd"/></g><g><text fill="#595959" font-family="Calibri,Calibri_MSFontService,sans-serif" font-weight="400" font-size="41" transform="matrix(1 0 0 1 2100.68 3162)">ST</text></g><g><path d="M2208.5 3150.5 2324.5 3150.5" stroke="#2C4D75" stroke-width="6.875" stroke-linecap="round" stroke-linejoin="round" stroke-miterlimit="10" fill="none" fill-rule="evenodd"/></g><g><text fill="#595959" font-family="Calibri,Calibri_MSFontService,sans-serif" font-weight="400" font-size="41" transform="matrix(1 0 0 1 2336.78 3162)">Manuale Utente</text></g><g><path d="M2680 3150 2795 3150" stroke="#FF0000" stroke-width="10.3125" stroke-linecap="round" stroke-linejoin="round" stroke-miterlimit="10" stroke-dasharray="20.625 20.625" fill="none" fill-rule="evenodd"/></g><g><text fill="#595959" font-family="Calibri,Calibri_MSFontService,sans-serif" font-weight="400" font-size="41" transform="matrix(1 0 0 1 2808.14 3162)">Soglia acc. (≥60%)</text></g><g><path d="M3176 3150 3292 3150" stroke="#00B050" stroke-width="10.3125" stroke-linecap="round" stroke-linejoin="round" stroke-miterlimit="10" stroke-dasharray="20.625 20.625" fill="none" fill-rule="evenodd"/></g><g><text fill="#595959" font-family="Calibri,Calibri_MSFontService,sans-serif" font-weight="400" font-size="41" transform="matrix(1 0 0 1 3304.52 3162)">Soglia ott. (≥80%)</text></g><rect x="275.5" y="1362.5" width="3589" height="1854" stroke="#D9D9D9" stroke-width="3.4375" stroke-linejoin="round" stroke-miterlimit="10" fill="none"/></g></svg>