<svg width="3910" height="1801" xmlns="http://www.w3.org/2000/svg" xmlns:xlink="http://www.w3.org/1999/xlink" xml:space="preserve" overflow="hidden"><defs><clipPath id="clip0"><rect x="279" y="1306" width="3910" height="1801"/></clipPath><clipPath id="clip1"><rect x="279" y="1306" width="3910" height="1801"/></clipPath></defs><g clip-path="url(#clip0)" transform="translate(-279 -1306)"><g clip-path="url(#clip1)"><rect x="284" y="1311" width="3901" height="1791" fill="#FFFFFF" fill-opacity="1"/><g><path d="M461.5 2885.5 4129.5 2885.5M461.5 2482.58 4129.5 2482.58M461.5 2281.57 4129.5 2281.57M461.5 2080.57 4129.5 2080.57M461.5 1879.56 4129.5 1879.56M461.5 1678.56 4129.5 1678.56M461.5 1477.5 4129.5 1477.5" stroke="#D9D9D9" stroke-width="3.4375" stroke-linecap="butt" stroke-linejoin="round" stroke-miterlimit="10" stroke-opacity="1" fill="none" fill-rule="nonzero"/></g><g><path d="M461.5 2683.5 4129.5 2683.5" stroke="#D9D9D9" stroke-width="3.4375" stroke-linecap="butt" stroke-linejoin="round" stroke-miterlimit="10" stroke-opacity="1" fill="none" fill-rule="evenodd"/></g><g><path d="M569 1778.82C640.937 1773.8 712.875 1721 784.812 1763.74 856.75 1806.48 928.687 1992.52 1000.62 2035.26 1072.56 2078 1144.5 2026.04 1216.44 2020.18 1288.37 2014.31 1360.31 2003.42 1432.25 2000.06 1504.19 1996.71 1576.12 2003.42 1648.06 2000.06 1720 1996.71 1791.94 1984.98 1863.87 1979.95 1935.81 1974.92 2007.75 1974.08 2079.69 1969.89 2151.62 1965.7 2223.56 1961.51 2295.5 1954.81 2367.44 1948.11 2439.37 1933.86 2511.31 1929.67 2583.25 1925.48 2655.19 1929.67 2727.12 1929.67 2799.06 1929.67 2871 1929.67 2942.94 1929.67 3014.87 1929.67 3086.81 1929.67 3158.75 1929.67 3230.69 1929.67 3302.62 1929.67 3374.56 1929.67 3446.5 1929.67 3518.44 1929.67 3590.38 1929.67 3662.31 1929.67 3734.25 1929.67 3806.19 1929.67 3878.12 1929.67 3950.06 1929.67 4022 1929.67" stroke="#4F81BD" stroke-width="5.72917" stroke-linecap="round" stroke-linejoin="round" stroke-miterlimit="10" stroke-opacity="1" fill="none" fill-rule="nonzero"/></g><g><path d="M569.5 2080.77C641.417 2040.41 713.333 1979.86 785.25 1959.68 857.167 1939.5 929.083 1959.68 1001 1959.68 1072.92 1959.68 1144.83 1955.48 1216.75 1959.68 1288.67 1963.89 1360.58 1978.18 1432.5 1984.91 1504.42 1991.64 1576.33 1994.16 1648.25 2000.05 1720.17 2005.93 1792.08 2011.82 1864 2020.23 1935.92 2028.64 2007.83 2045.45 2079.75 2050.5 2151.67 2055.55 2223.58 2048.82 2295.5 2050.5 2367.42 2052.18 2439.33 2062.27 2511.25 2060.59 2583.17 2058.91 2655.08 2045.45 2727 2040.41 2798.92 2035.36 2870.83 2026.95 2942.75 2030.32 3014.67 2033.68 3086.58 2055.55 3158.5 2060.59 3230.42 2065.64 3302.33 2057.23 3374.25 2060.59 3446.17 2063.95 3518.08 2087.5 3590 2080.77 3661.92 2074.05 3733.83 2025.27 3805.75 2020.23 3877.67 2015.18 3949.58 2040.41 4021.5 2050.5" stroke="#C0504D" stroke-width="6.875" stroke-linecap="round" stroke-linejoin="round" stroke-miterlimit="10" stroke-opacity="1" fill="none" fill-rule="nonzero"/></g><g><path d="M569.5 1879.5C641.417 1897.96 713.333 1921.46 785.25 1934.89 857.167 1948.32 929.083 1954.2 1001 1960.07 1072.92 1965.95 1144.83 1968.46 1216.75 1970.14 1288.67 1971.82 1360.58 1970.14 1432.5 1970.14 1504.42 1970.14 1576.33 1970.14 1648.25 1970.14 1720.17 1970.14 1792.08 1973.5 1864 1970.14 1935.92 1966.79 2007.83 1953.36 2079.75 1950 2151.67 1946.64 2223.58 1951.68 2295.5 1950 2367.42 1948.32 2439.33 1941.61 2511.25 1939.93 2583.17 1938.25 2655.08 1939.93 2727 1939.93 2798.92 1939.93 2870.83 1939.93 2942.75 1939.93 3014.67 1939.93 3086.58 1939.93 3158.5 1939.93 3230.42 1939.93 3302.33 1939.93 3374.25 1939.93 3446.17 1939.93 3518.08 1939.93 3590 1939.93 3661.92 1939.93 3733.83 1939.93 3805.75 1939.93 3877.67 1939.93 3949.58 1939.93 4021.5 1939.93" stroke="#9BBB59" stroke-width="6.875" stroke-linecap="round" stroke-linejoin="round" stroke-miterlimit="10" stroke-opacity="1" fill="none" fill-rule="nonzero"/></g><g><path d="M569.5 1950.17C641.417 1951.83 713.333 1955.17 785.25 1955.17 857.167 1955.17 929.083 1951 1001 1950.17 1072.92 1949.33 1144.83 1945.17 1216.75 1950.17 1288.67 1955.17 1360.58 1980.17 1432.5 1980.17 1504.42 1980.17 1576.33 1955.17 1648.25 1950.17 1720.17 1945.17 1792.08 1950.17 1864 1950.17 1935.92 1950.17 2007.83 1951 2079.75 1950.17 2151.67 1949.33 2223.58 1943.5 2295.5 1945.17 2367.42 1946.83 2439.33 1956 2511.25 1960.17 2583.17 1964.33 2655.08 1971.83 2727 1970.17 2798.92 1968.5 2870.83 1953.5 2942.75 1950.17 3014.67 1946.83 3086.58 1945.17 3158.5 1950.17 3230.42 1955.17 3302.33 1976.83 3374.25 1980.17 3446.17 1983.5 3518.08 1970.17 3590 1970.17 3661.92 1970.17 3733.83 1978.5 3805.75 1980.17 3877.67 1981.83 3949.58 1980.17 4021.5 1980.17" stroke="#8064A2" stroke-width="6.875" stroke-linecap="round" stroke-linejoin="round" stroke-miterlimit="10" stroke-opacity="1" fill="none" fill-rule="nonzero"/></g><g><path d="M569.5 1829.17C641.417 1829.17 713.333 1827.5 785.25 1829.17 857.167 1830.83 929.083 1835.83 1001 1839.17 1072.92 1842.5 1144.83 1845.83 1216.75 1849.17 1288.67 1852.5 1360.58 1857.5 1432.5 1859.17 1504.42 1860.83 1576.33 1859.17 1648.25 1859.17 1720.17 1859.17 1792.08 1860.83 1864 1859.17 1935.92 1857.5 2007.83 1850.83 2079.75 1849.17 2151.67 1847.5 2223.58 1849.17 2295.5 1849.17 2367.42 1849.17 2439.33 1845.83 2511.25 1849.17 2583.17 1852.5 2655.08 1865.83 2727 1869.17 2798.92 1872.5 2870.83 1869.17 2942.75 1869.17 3014.67 1869.17 3086.58 1869.17 3158.5 1869.17 3230.42 1869.17 3302.33 1869.17 3374.25 1869.17 3446.17 1869.17 3518.08 1869.17 3590 1869.17 3661.92 1869.17 3733.83 1869.17 3805.75 1869.17 3877.67 1869.17 3949.58 1869.17 4021.5 1869.17" stroke="#4BACC6" stroke-width="6.875" stroke-linecap="round" stroke-linejoin="round" stroke-miterlimit="10" stroke-opacity="1" fill="none" fill-rule="nonzero"/></g><g><path d="M569.5 2684.05C641.417 2684.05 713.333 2684.05 785.25 2684.05 857.167 2684.05 929.083 2684.05 1001 2684.05 1072.92 2684.05 1144.83 2684.05 1216.75 2684.05 1288.67 2684.05 1360.58 2684.05 1432.5 2684.05 1504.42 2684.05 1576.33 2684.05 1648.25 2684.05 1720.17 2684.05 1792.08 2684.05 1864 2684.05 1935.92 2684.05 2007.83 2684.05 2079.75 2684.05 2126.18 2684.05 2249.07 2781.5 2295.5 2684.05 2367.42 2533.12 2439.33 1931.93 2511.25 1778.48 2557.17 1680.5 2681.08 1737.69 2727 1763.39 2798.92 1803.64 2870.83 1980.56 2942.75 2019.97 3014.67 2059.38 3086.58 2009.9 3158.5 1999.84 3230.42 1989.78 3302.33 1967.98 3374.25 1959.6 3446.17 1951.21 3518.08 1944.5 3590 1949.53 3661.92 1954.56 3733.83 1979.72 3805.75 1989.78 3877.67 1999.84 3949.58 2003.2 4021.5 2009.91" stroke="#F79646" stroke-width="6.875" stroke-linecap="round" stroke-linejoin="round" stroke-miterlimit="10" stroke-opacity="1" fill="none" fill-rule="nonzero"/></g><g><path d="M569.5 2684.13C641.417 2684.13 713.333 2684.13 785.25 2684.13 857.167 2684.13 929.083 2684.13 1001 2684.13 1072.92 2684.13 1144.83 2684.13 1216.75 2684.13 1288.67 2684.13 1360.58 2684.13 1432.5 2684.13 1504.42 2684.13 1576.33 2684.13 1648.25 2684.13 1720.17 2684.13 1792.08 2684.13 1864 2684.13 1935.92 2684.13 2007.83 2684.13 2079.75 2684.13 2128.37 2684.13 2246.88 2780.5 2295.5 2684.13 2367.42 2541.59 2439.33 1971.41 2511.25 1828.87 2559.87 1732.5 2678.38 1823.2 2727 1828.87 2798.92 1837.26 2870.83 1880.86 2942.75 1879.18 3014.67 1877.5 3086.58 1817.13 3158.5 1818.81 3230.42 1820.49 3302.33 1887.57 3374.25 1889.24 3446.17 1890.92 3518.08 1837.26 3590 1828.87 3661.92 1820.49 3733.83 1840.61 3805.75 1838.93 3877.67 1837.26 3949.58 1825.52 4021.5 1818.81" stroke="#2C4D75" stroke-width="6.875" stroke-linecap="round" stroke-linejoin="round" stroke-miterlimit="10" stroke-opacity="1" fill="none" fill-rule="nonzero"/></g><g><path d="M569 2075.84 589.625 2075.84C592.473 2075.84 594.781 2078.15 594.781 2081 594.781 2083.85 592.473 2086.16 589.625 2086.16L569 2086.16C566.152 2086.16 563.844 2083.85 563.844 2081 563.844 2078.15 566.152 2075.84 569 2075.84ZM610.25 2075.84 630.875 2075.84C633.723 2075.84 636.031 2078.15 636.031 2081 636.031 2083.85 633.723 2086.16 630.875 2086.16L610.25 2086.16C607.402 2086.16 605.094 2083.85 605.094 2081 605.094 2078.15 607.402 2075.84 610.25 2075.84ZM651.5 2075.84 672.125 2075.84C674.973 2075.84 677.281 2078.15 677.281 2081 677.281 2083.85 674.973 2086.16 672.125 2086.16L651.5 2086.16C648.652 2086.16 646.344 2083.85 646.344 2081 646.344 2078.15 648.652 2075.84 651.5 2075.84ZM692.75 2075.84 713.375 2075.84C716.223 2075.84 718.531 2078.15 718.531 2081 718.531 2083.85 716.223 2086.16 713.375 2086.16L692.75 2086.16C689.902 2086.16 687.594 2083.85 687.594 2081 687.594 2078.15 689.902 2075.84 692.75 2075.84ZM734 2075.84 754.625 2075.84C757.473 2075.84 759.781 2078.15 759.781 2081 759.781 2083.85 757.473 2086.16 754.625 2086.16L734 2086.16C731.152 2086.16 728.844 2083.85 728.844 2081 728.844 2078.15 731.152 2075.84 734 2075.84ZM775.25 2075.84 785.026 2075.84 795.875 2075.84C798.723 2075.84 801.031 2078.15 801.031 2081 801.031 2083.85 798.723 2086.16 795.875 2086.16L785.026 2086.16 775.25 2086.16C772.402 2086.16 770.094 2083.85 770.094 2081 770.094 2078.15 772.402 2075.84 775.25 2075.84ZM816.5 2075.84 837.125 2075.84C839.973 2075.84 842.281 2078.15 842.281 2081 842.281 2083.85 839.973 2086.16 837.125 2086.16L816.5 2086.16C813.652 2086.16 811.344 2083.85 811.344 2081 811.344 2078.15 813.652 2075.84 816.5 2075.84ZM857.75 2075.84 878.375 2075.84C881.223 2075.84 883.531 2078.15 883.531 2081 883.531 2083.85 881.223 2086.16 878.375 2086.16L857.75 2086.16C854.902 2086.16 852.594 2083.85 852.594 2081 852.594 2078.15 854.902 2075.84 857.75 2075.84ZM899 2075.84 919.625 2075.84C922.473 2075.84 924.781 2078.15 924.781 2081 924.781 2083.85 922.473 2086.16 919.625 2086.16L899 2086.16C896.152 2086.16 893.844 2083.85 893.844 2081 893.844 2078.15 896.152 2075.84 899 2075.84ZM940.25 2075.84 960.875 2075.84C963.723 2075.84 966.031 2078.15 966.031 2081 966.031 2083.85 963.723 2086.16 960.875 2086.16L940.25 2086.16C937.402 2086.16 935.094 2083.85 935.094 2081 935.094 2078.15 937.402 2075.84 940.25 2075.84ZM981.5 2075.84 1001.03 2075.84 1002.12 2075.84C1004.97 2075.84 1007.28 2078.15 1007.28 2081 1007.28 2083.85 1004.97 2086.16 1002.12 2086.16L1001.03 2086.16 981.5 2086.16C978.652 2086.16 976.344 2083.85 976.344 2081 976.344 2078.15 978.652 2075.84 981.5 2075.84ZM1022.75 2075.84 1043.37 2075.84C1046.22 2075.84 1048.53 2078.15 1048.53 2081 1048.53 2083.85 1046.22 2086.16 1043.37 2086.16L1022.75 2086.16C1019.9 2086.16 1017.59 2083.85 1017.59 2081 1017.59 2078.15 1019.9 2075.84 1022.75 2075.84ZM1064 2075.84 1084.62 2075.84C1087.47 2075.84 1089.78 2078.15 1089.78 2081 1089.78 2083.85 1087.47 2086.16 1084.62 2086.16L1064 2086.16C1061.15 2086.16 1058.84 2083.85 1058.84 2081 1058.84 2078.15 1061.15 2075.84 1064 2075.84ZM1105.25 2075.84 1125.87 2075.84C1128.72 2075.84 1131.03 2078.15 1131.03 2081 1131.03 2083.85 1128.72 2086.16 1125.87 2086.16L1105.25 2086.16C1102.4 2086.16 1100.09 2083.85 1100.09 2081 1100.09 2078.15 1102.4 2075.84 1105.25 2075.84ZM1146.5 2075.84 1167.12 2075.84C1169.97 2075.84 1172.28 2078.15 1172.28 2081 1172.28 2083.85 1169.97 2086.16 1167.12 2086.16L1146.5 2086.16C1143.65 2086.16 1141.34 2083.85 1141.34 2081 1141.34 2078.15 1143.65 2075.84 1146.5 2075.84ZM1187.75 2075.84 1208.37 2075.84C1211.22 2075.84 1213.53 2078.15 1213.53 2081 1213.53 2083.85 1211.22 2086.16 1208.37 2086.16L1187.75 2086.16C1184.9 2086.16 1182.59 2083.85 1182.59 2081 1182.59 2078.15 1184.9 2075.84 1187.75 2075.84ZM1229 2075.84 1249.62 2075.84C1252.47 2075.84 1254.78 2078.15 1254.78 2081 1254.78 2083.85 1252.47 2086.16 1249.62 2086.16L1229 2086.16C1226.15 2086.16 1223.84 2083.85 1223.84 2081 1223.84 2078.15 1226.15 2075.84 1229 2075.84ZM1270.25 2075.84 1290.87 2075.84C1293.72 2075.84 1296.03 2078.15 1296.03 2081 1296.03 2083.85 1293.72 2086.16 1290.87 2086.16L1270.25 2086.16C1267.4 2086.16 1265.09 2083.85 1265.09 2081 1265.09 2078.15 1267.4 2075.84 1270.25 2075.84ZM1311.5 2075.84 1332.12 2075.84C1334.97 2075.84 1337.28 2078.15 1337.28 2081 1337.28 2083.85 1334.97 2086.16 1332.12 2086.16L1311.5 2086.16C1308.65 2086.16 1306.34 2083.85 1306.34 2081 1306.34 2078.15 1308.65 2075.84 1311.5 2075.84ZM1352.75 2075.84 1373.37 2075.84C1376.22 2075.84 1378.53 2078.15 1378.53 2081 1378.53 2083.85 1376.22 2086.16 1373.37 2086.16L1352.75 2086.16C1349.9 2086.16 1347.59 2083.85 1347.59 2081 1347.59 2078.15 1349.9 2075.84 1352.75 2075.84ZM1394 2075.84 1414.62 2075.84C1417.47 2075.84 1419.78 2078.15 1419.78 2081 1419.78 2083.85 1417.47 2086.16 1414.62 2086.16L1394 2086.16C1391.15 2086.16 1388.84 2083.85 1388.84 2081 1388.84 2078.15 1391.15 2075.84 1394 2075.84ZM1435.25 2075.84 1455.87 2075.84C1458.72 2075.84 1461.03 2078.15 1461.03 2081 1461.03 2083.85 1458.72 2086.16 1455.87 2086.16L1435.25 2086.16C1432.4 2086.16 1430.09 2083.85 1430.09 2081 1430.09 2078.15 1432.4 2075.84 1435.25 2075.84ZM1476.5 2075.84 1497.12 2075.84C1499.97 2075.84 1502.28 2078.15 1502.28 2081 1502.28 2083.85 1499.97 2086.16 1497.12 2086.16L1476.5 2086.16C1473.65 2086.16 1471.34 2083.85 1471.34 2081 1471.34 2078.15 1473.65 2075.84 1476.5 2075.84ZM1517.75 2075.84 1538.37 2075.84C1541.22 2075.84 1543.53 2078.15 1543.53 2081 1543.53 2083.85 1541.22 2086.16 1538.37 2086.16L1517.75 2086.16C1514.9 2086.16 1512.59 2083.85 1512.59 2081 1512.59 2078.15 1514.9 2075.84 1517.75 2075.84ZM1559 2075.84 1579.62 2075.84C1582.47 2075.84 1584.78 2078.15 1584.78 2081 1584.78 2083.85 1582.47 2086.16 1579.62 2086.16L1559 2086.16C1556.15 2086.16 1553.84 2083.85 1553.84 2081 1553.84 2078.15 1556.15 2075.84 1559 2075.84ZM1600.25 2075.84 1620.87 2075.84C1623.72 2075.84 1626.03 2078.15 1626.03 2081 1626.03 2083.85 1623.72 2086.16 1620.87 2086.16L1600.25 2086.16C1597.4 2086.16 1595.09 2083.85 1595.09 2081 1595.09 2078.15 1597.4 2075.84 1600.25 2075.84ZM1641.5 2075.84 1648.05 2075.84 1662.12 2075.84C1664.97 2075.84 1667.28 2078.15 1667.28 2081 1667.28 2083.85 1664.97 2086.16 1662.12 2086.16L1648.05 2086.16 1641.5 2086.16C1638.65 2086.16 1636.34 2083.85 1636.34 2081 1636.34 2078.15 1638.65 2075.84 1641.5 2075.84ZM1682.75 2075.84 1703.37 2075.84C1706.22 2075.84 1708.53 2078.15 1708.53 2081 1708.53 2083.85 1706.22 2086.16 1703.37 2086.16L1682.75 2086.16C1679.9 2086.16 1677.59 2083.85 1677.59 2081 1677.59 2078.15 1679.9 2075.84 1682.75 2075.84ZM1724 2075.84 1744.62 2075.84C1747.47 2075.84 1749.78 2078.15 1749.78 2081 1749.78 2083.85 1747.47 2086.16 1744.62 2086.16L1724 2086.16C1721.15 2086.16 1718.84 2083.85 1718.84 2081 1718.84 2078.15 1721.15 2075.84 1724 2075.84ZM1765.25 2075.84 1785.87 2075.84C1788.72 2075.84 1791.03 2078.15 1791.03 2081 1791.03 2083.85 1788.72 2086.16 1785.87 2086.16L1765.25 2086.16C1762.4 2086.16 1760.09 2083.85 1760.09 2081 1760.09 2078.15 1762.4 2075.84 1765.25 2075.84ZM1806.5 2075.84 1827.12 2075.84C1829.97 2075.84 1832.28 2078.15 1832.28 2081 1832.28 2083.85 1829.97 2086.16 1827.12 2086.16L1806.5 2086.16C1803.65 2086.16 1801.34 2083.85 1801.34 2081 1801.34 2078.15 1803.65 2075.84 1806.5 2075.84ZM1847.75 2075.84 1864.06 2075.84 1868.37 2075.84C1871.22 2075.84 1873.53 2078.15 1873.53 2081 1873.53 2083.85 1871.22 2086.16 1868.37 2086.16L1864.06 2086.16 1847.75 2086.16C1844.9 2086.16 1842.59 2083.85 1842.59 2081 1842.59 2078.15 1844.9 2075.84 1847.75 2075.84ZM1889 2075.84 1909.62 2075.84C1912.47 2075.84 1914.78 2078.15 1914.78 2081 1914.78 2083.85 1912.47 2086.16 1909.62 2086.16L1889 2086.16C1886.15 2086.16 1883.84 2083.85 1883.84 2081 1883.84 2078.15 1886.15 2075.84 1889 2075.84ZM1930.25 2075.84 1950.87 2075.84C1953.72 2075.84 1956.03 2078.15 1956.03 2081 1956.03 2083.85 1953.72 2086.16 1950.87 2086.16L1930.25 2086.16C1927.4 2086.16 1925.09 2083.85 1925.09 2081 1925.09 2078.15 1927.4 2075.84 1930.25 2075.84ZM1971.5 2075.84 1992.12 2075.84C1994.97 2075.84 1997.28 2078.15 1997.28 2081 1997.28 2083.85 1994.97 2086.16 1992.12 2086.16L1971.5 2086.16C1968.65 2086.16 1966.34 2083.85 1966.34 2081 1966.34 2078.15 1968.65 2075.84 1971.5 2075.84ZM2012.75 2075.84 2033.37 2075.84C2036.22 2075.84 2038.53 2078.15 2038.53 2081 2038.53 2083.85 2036.22 2086.16 2033.37 2086.16L2012.75 2086.16C2009.9 2086.16 2007.59 2083.85 2007.59 2081 2007.59 2078.15 2009.9 2075.84 2012.75 2075.84ZM2054 2075.84 2074.62 2075.84C2077.47 2075.84 2079.78 2078.15 2079.78 2081 2079.78 2083.85 2077.47 2086.16 2074.62 2086.16L2054 2086.16C2051.15 2086.16 2048.84 2083.85 2048.84 2081 2048.84 2078.15 2051.15 2075.84 2054 2075.84ZM2095.25 2075.84 2115.87 2075.84C2118.72 2075.84 2121.03 2078.15 2121.03 2081 2121.03 2083.85 2118.72 2086.16 2115.87 2086.16L2095.25 2086.16C2092.4 2086.16 2090.09 2083.85 2090.09 2081 2090.09 2078.15 2092.4 2075.84 2095.25 2075.84ZM2136.5 2075.84 2157.12 2075.84C2159.97 2075.84 2162.28 2078.15 2162.28 2081 2162.28 2083.85 2159.97 2086.16 2157.12 2086.16L2136.5 2086.16C2133.65 2086.16 2131.34 2083.85 2131.34 2081 2131.34 2078.15 2133.65 2075.84 2136.5 2075.84ZM2177.75 2075.84 2198.37 2075.84C2201.22 2075.84 2203.53 2078.15 2203.53 2081 2203.53 2083.85 2201.22 2086.16 2198.37 2086.16L2177.75 2086.16C2174.9 2086.16 2172.59 2083.85 2172.59 2081 2172.59 2078.15 2174.9 2075.84 2177.75 2075.84ZM2219 2075.84 2239.62 2075.84C2242.47 2075.84 2244.78 2078.15 2244.78 2081 2244.78 2083.85 2242.47 2086.16 2239.62 2086.16L2219 2086.16C2216.15 2086.16 2213.84 2083.85 2213.84 2081 2213.84 2078.15 2216.15 2075.84 2219 2075.84ZM2260.25 2075.84 2280.87 2075.84C2283.72 2075.84 2286.03 2078.15 2286.03 2081 2286.03 2083.85 2283.72 2086.16 2280.87 2086.16L2260.25 2086.16C2257.4 2086.16 2255.09 2083.85 2255.09 2081 2255.09 2078.15 2257.4 2075.84 2260.25 2075.84ZM2301.5 2075.84 2322.12 2075.84C2324.97 2075.84 2327.28 2078.15 2327.28 2081 2327.28 2083.85 2324.97 2086.16 2322.12 2086.16L2301.5 2086.16C2298.65 2086.16 2296.34 2083.85 2296.34 2081 2296.34 2078.15 2298.65 2075.84 2301.5 2075.84ZM2342.75 2075.84 2363.37 2075.84C2366.22 2075.84 2368.53 2078.15 2368.53 2081 2368.53 2083.85 2366.22 2086.16 2363.37 2086.16L2342.75 2086.16C2339.9 2086.16 2337.59 2083.85 2337.59 2081 2337.59 2078.15 2339.9 2075.84 2342.75 2075.84ZM2384 2075.84 2404.62 2075.84C2407.47 2075.84 2409.78 2078.15 2409.78 2081 2409.78 2083.85 2407.47 2086.16 2404.62 2086.16L2384 2086.16C2381.15 2086.16 2378.84 2083.85 2378.84 2081 2378.84 2078.15 2381.15 2075.84 2384 2075.84ZM2425.25 2075.84 2445.87 2075.84C2448.72 2075.84 2451.03 2078.15 2451.03 2081 2451.03 2083.85 2448.72 2086.16 2445.87 2086.16L2425.25 2086.16C2422.4 2086.16 2420.09 2083.85 2420.09 2081 2420.09 2078.15 2422.4 2075.84 2425.25 2075.84ZM2466.5 2075.84 2487.12 2075.84C2489.97 2075.84 2492.28 2078.15 2492.28 2081 2492.28 2083.85 2489.97 2086.16 2487.12 2086.16L2466.5 2086.16C2463.65 2086.16 2461.34 2083.85 2461.34 2081 2461.34 2078.15 2463.65 2075.84 2466.5 2075.84ZM2507.75 2075.84 2511.08 2075.84 2528.37 2075.84C2531.22 2075.84 2533.53 2078.15 2533.53 2081 2533.53 2083.85 2531.22 2086.16 2528.37 2086.16L2511.08 2086.16 2507.75 2086.16C2504.9 2086.16 2502.59 2083.85 2502.59 2081 2502.59 2078.15 2504.9 2075.84 2507.75 2075.84ZM2549 2075.84 2569.62 2075.84C2572.47 2075.84 2574.78 2078.15 2574.78 2081 2574.78 2083.85 2572.47 2086.16 2569.62 2086.16L2549 2086.16C2546.15 2086.16 2543.84 2083.85 2543.84 2081 2543.84 2078.15 2546.15 2075.84 2549 2075.84ZM2590.25 2075.84 2610.87 2075.84C2613.72 2075.84 2616.03 2078.15 2616.03 2081 2616.03 2083.85 2613.72 2086.16 2610.87 2086.16L2590.25 2086.16C2587.4 2086.16 2585.09 2083.85 2585.09 2081 2585.09 2078.15 2587.4 2075.84 2590.25 2075.84ZM2631.5 2075.84 2652.12 2075.84C2654.97 2075.84 2657.28 2078.15 2657.28 2081 2657.28 2083.85 2654.97 2086.16 2652.12 2086.16L2631.5 2086.16C2628.65 2086.16 2626.34 2083.85 2626.34 2081 2626.34 2078.15 2628.65 2075.84 2631.5 2075.84ZM2672.75 2075.84 2693.37 2075.84C2696.22 2075.84 2698.53 2078.15 2698.53 2081 2698.53 2083.85 2696.22 2086.16 2693.37 2086.16L2672.75 2086.16C2669.9 2086.16 2667.59 2083.85 2667.59 2081 2667.59 2078.15 2669.9 2075.84 2672.75 2075.84ZM2714 2075.84 2727.09 2075.84 2734.62 2075.84C2737.47 2075.84 2739.78 2078.15 2739.78 2081 2739.78 2083.85 2737.47 2086.16 2734.62 2086.16L2727.09 2086.16 2714 2086.16C2711.15 2086.16 2708.84 2083.85 2708.84 2081 2708.84 2078.15 2711.15 2075.84 2714 2075.84ZM2755.25 2075.84 2775.87 2075.84C2778.72 2075.84 2781.03 2078.15 2781.03 2081 2781.03 2083.85 2778.72 2086.16 2775.87 2086.16L2755.25 2086.16C2752.4 2086.16 2750.09 2083.85 2750.09 2081 2750.09 2078.15 2752.4 2075.84 2755.25 2075.84ZM2796.5 2075.84 2817.12 2075.84C2819.97 2075.84 2822.28 2078.15 2822.28 2081 2822.28 2083.85 2819.97 2086.16 2817.12 2086.16L2796.5 2086.16C2793.65 2086.16 2791.34 2083.85 2791.34 2081 2791.34 2078.15 2793.65 2075.84 2796.5 2075.84ZM2837.75 2075.84 2858.37 2075.84C2861.22 2075.84 2863.53 2078.15 2863.53 2081 2863.53 2083.85 2861.22 2086.16 2858.37 2086.16L2837.75 2086.16C2834.9 2086.16 2832.59 2083.85 2832.59 2081 2832.59 2078.15 2834.9 2075.84 2837.75 2075.84ZM2879 2075.84 2899.62 2075.84C2902.47 2075.84 2904.78 2078.15 2904.78 2081 2904.78 2083.85 2902.47 2086.16 2899.62 2086.16L2879 2086.16C2876.15 2086.16 2873.84 2083.85 2873.84 2081 2873.84 2078.15 2876.15 2075.84 2879 2075.84ZM2920.25 2075.84 2940.87 2075.84C2943.72 2075.84 2946.03 2078.15 2946.03 2081 2946.03 2083.85 2943.72 2086.16 2940.87 2086.16L2920.25 2086.16C2917.4 2086.16 2915.09 2083.85 2915.09 2081 2915.09 2078.15 2917.4 2075.84 2920.25 2075.84ZM2961.5 2075.84 2982.12 2075.84C2984.97 2075.84 2987.28 2078.15 2987.28 2081 2987.28 2083.85 2984.97 2086.16 2982.12 2086.16L2961.5 2086.16C2958.65 2086.16 2956.34 2083.85 2956.34 2081 2956.34 2078.15 2958.65 2075.84 2961.5 2075.84ZM3002.75 2075.84 3023.37 2075.84C3026.22 2075.84 3028.53 2078.15 3028.53 2081 3028.53 2083.85 3026.22 2086.16 3023.37 2086.16L3002.75 2086.16C2999.9 2086.16 2997.59 2083.85 2997.59 2081 2997.59 2078.15 2999.9 2075.84 3002.75 2075.84ZM3044 2075.84 3064.62 2075.84C3067.47 2075.84 3069.78 2078.15 3069.78 2081 3069.78 2083.85 3067.47 2086.16 3064.62 2086.16L3044 2086.16C3041.15 2086.16 3038.84 2083.85 3038.84 2081 3038.84 2078.15 3041.15 2075.84 3044 2075.84ZM3085.25 2075.84 3105.87 2075.84C3108.72 2075.84 3111.03 2078.15 3111.03 2081 3111.03 2083.85 3108.72 2086.16 3105.87 2086.16L3085.25 2086.16C3082.4 2086.16 3080.09 2083.85 3080.09 2081 3080.09 2078.15 3082.4 2075.84 3085.25 2075.84ZM3126.5 2075.84 3147.12 2075.84C3149.97 2075.84 3152.28 2078.15 3152.28 2081 3152.28 2083.85 3149.97 2086.16 3147.12 2086.16L3126.5 2086.16C3123.65 2086.16 3121.34 2083.85 3121.34 2081 3121.34 2078.15 3123.65 2075.84 3126.5 2075.84ZM3167.75 2075.84 3188.37 2075.84C3191.22 2075.84 3193.53 2078.15 3193.53 2081 3193.53 2083.85 3191.22 2086.16 3188.37 2086.16L3167.75 2086.16C3164.9 2086.16 3162.59 2083.85 3162.59 2081 3162.59 2078.15 3164.9 2075.84 3167.75 2075.84ZM3209 2075.84 3229.62 2075.84C3232.47 2075.84 3234.78 2078.15 3234.78 2081 3234.78 2083.85 3232.47 2086.16 3229.62 2086.16L3209 2086.16C3206.15 2086.16 3203.84 2083.85 3203.84 2081 3203.84 2078.15 3206.15 2075.84 3209 2075.84ZM3250.25 2075.84 3270.87 2075.84C3273.72 2075.84 3276.03 2078.15 3276.03 2081 3276.03 2083.85 3273.72 2086.16 3270.87 2086.16L3250.25 2086.16C3247.4 2086.16 3245.09 2083.85 3245.09 2081 3245.09 2078.15 3247.4 2075.84 3250.25 2075.84ZM3291.5 2075.84 3312.12 2075.84C3314.97 2075.84 3317.28 2078.15 3317.28 2081 3317.28 2083.85 3314.97 2086.16 3312.12 2086.16L3291.5 2086.16C3288.65 2086.16 3286.34 2083.85 3286.34 2081 3286.34 2078.15 3288.65 2075.84 3291.5 2075.84ZM3332.75 2075.84 3353.37 2075.84C3356.22 2075.84 3358.53 2078.15 3358.53 2081 3358.53 2083.85 3356.22 2086.16 3353.37 2086.16L3332.75 2086.16C3329.9 2086.16 3327.59 2083.85 3327.59 2081 3327.59 2078.15 3329.9 2075.84 3332.75 2075.84ZM3374 2075.84 3374.11 2075.84 3394.62 2075.84C3397.47 2075.84 3399.78 2078.15 3399.78 2081 3399.78 2083.85 3397.47 2086.16 3394.62 2086.16L3374.11 2086.16 3374 2086.16C3371.15 2086.16 3368.84 2083.85 3368.84 2081 3368.84 2078.15 3371.15 2075.84 3374 2075.84ZM3415.25 2075.84 3435.87 2075.84C3438.72 2075.84 3441.03 2078.15 3441.03 2081 3441.03 2083.85 3438.72 2086.16 3435.87 2086.16L3415.25 2086.16C3412.4 2086.16 3410.09 2083.85 3410.09 2081 3410.09 2078.15 3412.4 2075.84 3415.25 2075.84ZM3456.5 2075.84 3477.12 2075.84C3479.97 2075.84 3482.28 2078.15 3482.28 2081 3482.28 2083.85 3479.97 2086.16 3477.12 2086.16L3456.5 2086.16C3453.65 2086.16 3451.34 2083.85 3451.34 2081 3451.34 2078.15 3453.65 2075.84 3456.5 2075.84ZM3497.75 2075.84 3518.37 2075.84C3521.22 2075.84 3523.53 2078.15 3523.53 2081 3523.53 2083.85 3521.22 2086.16 3518.37 2086.16L3497.75 2086.16C3494.9 2086.16 3492.59 2083.85 3492.59 2081 3492.59 2078.15 3494.9 2075.84 3497.75 2075.84ZM3539 2075.84 3559.62 2075.84C3562.47 2075.84 3564.78 2078.15 3564.78 2081 3564.78 2083.85 3562.47 2086.16 3559.62 2086.16L3539 2086.16C3536.15 2086.16 3533.84 2083.85 3533.84 2081 3533.84 2078.15 3536.15 2075.84 3539 2075.84ZM3580.25 2075.84 3590.12 2075.84 3600.87 2075.84C3603.72 2075.84 3606.03 2078.15 3606.03 2081 3606.03 2083.85 3603.72 2086.16 3600.87 2086.16L3590.12 2086.16 3580.25 2086.16C3577.4 2086.16 3575.09 2083.85 3575.09 2081 3575.09 2078.15 3577.4 2075.84 3580.25 2075.84ZM3621.5 2075.84 3642.12 2075.84C3644.97 2075.84 3647.28 2078.15 3647.28 2081 3647.28 2083.85 3644.97 2086.16 3642.12 2086.16L3621.5 2086.16C3618.65 2086.16 3616.34 2083.85 3616.34 2081 3616.34 2078.15 3618.65 2075.84 3621.5 2075.84ZM3662.75 2075.84 3683.37 2075.84C3686.22 2075.84 3688.53 2078.15 3688.53 2081 3688.53 2083.85 3686.22 2086.16 3683.37 2086.16L3662.75 2086.16C3659.9 2086.16 3657.59 2083.85 3657.59 2081 3657.59 2078.15 3659.9 2075.84 3662.75 2075.84ZM3704 2075.84 3724.62 2075.84C3727.47 2075.84 3729.78 2078.15 3729.78 2081 3729.78 2083.85 3727.47 2086.16 3724.62 2086.16L3704 2086.16C3701.15 2086.16 3698.84 2083.85 3698.84 2081 3698.84 2078.15 3701.15 2075.84 3704 2075.84ZM3745.25 2075.84 3765.87 2075.84C3768.72 2075.84 3771.03 2078.15 3771.03 2081 3771.03 2083.85 3768.72 2086.16 3765.87 2086.16L3745.25 2086.16C3742.4 2086.16 3740.09 2083.85 3740.09 2081 3740.09 2078.15 3742.4 2075.84 3745.25 2075.84ZM3786.5 2075.84 3806.12 2075.84 3807.12 2075.84C3809.97 2075.84 3812.28 2078.15 3812.28 2081 3812.28 2083.85 3809.97 2086.16 3807.12 2086.16L3806.12 2086.16 3786.5 2086.16C3783.65 2086.16 3781.34 2083.85 3781.34 2081 3781.34 2078.15 3783.65 2075.84 3786.5 2075.84ZM3827.75 2075.84 3848.37 2075.84C3851.22 2075.84 3853.53 2078.15 3853.53 2081 3853.53 2083.85 3851.22 2086.16 3848.37 2086.16L3827.75 2086.16C3824.9 2086.16 3822.59 2083.85 3822.59 2081 3822.59 2078.15 3824.9 2075.84 3827.75 2075.84ZM3869 2075.84 3889.62 2075.84C3892.47 2075.84 3894.78 2078.15 3894.78 2081 3894.78 2083.85 3892.47 2086.16 3889.62 2086.16L3869 2086.16C3866.15 2086.16 3863.84 2083.85 3863.84 2081 3863.84 2078.15 3866.15 2075.84 3869 2075.84ZM3910.25 2075.84 3930.87 2075.84C3933.72 2075.84 3936.03 2078.15 3936.03 2081 3936.03 2083.85 3933.72 2086.16 3930.87 2086.16L3910.25 2086.16C3907.4 2086.16 3905.09 2083.85 3905.09 2081 3905.09 2078.15 3907.4 2075.84 3910.25 2075.84ZM3951.5 2075.84 3972.12 2075.84C3974.97 2075.84 3977.28 2078.15 3977.28 2081 3977.28 2083.85 3974.97 2086.16 3972.12 2086.16L3951.5 2086.16C3948.65 2086.16 3946.34 2083.85 3946.34 2081 3946.34 2078.15 3948.65 2075.84 3951.5 2075.84ZM3992.75 2075.84 4013.37 2075.84C4016.22 2075.84 4018.53 2078.15 4018.53 2081 4018.53 2083.85 4016.22 2086.16 4013.37 2086.16L3992.75 2086.16C3989.9 2086.16 3987.59 2083.85 3987.59 2081 3987.59 2078.15 3989.9 2075.84 3992.75 2075.84Z" fill="#FF0000" fill-rule="nonzero" fill-opacity="1"/></g><g><path d="M569 1873.84 589.625 1873.84C592.473 1873.84 594.781 1876.15 594.781 1879 594.781 1881.85 592.473 1884.16 589.625 1884.16L569 1884.16C566.152 1884.16 563.844 1881.85 563.844 1879 563.844 1876.15 566.152 1873.84 569 1873.84ZM610.25 1873.84 630.875 1873.84C633.723 1873.84 636.031 1876.15 636.031 1879 636.031 1881.85 633.723 1884.16 630.875 1884.16L610.25 1884.16C607.402 1884.16 605.094 1881.85 605.094 1879 605.094 1876.15 607.402 1873.84 610.25 1873.84ZM651.5 1873.84 672.125 1873.84C674.973 1873.84 677.281 1876.15 677.281 1879 677.281 1881.85 674.973 1884.16 672.125 1884.16L651.5 1884.16C648.652 1884.16 646.344 1881.85 646.344 1879 646.344 1876.15 648.652 1873.84 651.5 1873.84ZM692.75 1873.84 713.375 1873.84C716.223 1873.84 718.531 1876.15 718.531 1879 718.531 1881.85 716.223 1884.16 713.375 1884.16L692.75 1884.16C689.902 1884.16 687.594 1881.85 687.594 1879 687.594 1876.15 689.902 1873.84 692.75 1873.84ZM734 1873.84 754.625 1873.84C757.473 1873.84 759.781 1876.15 759.781 1879 759.781 1881.85 757.473 1884.16 754.625 1884.16L734 1884.16C731.152 1884.16 728.844 1881.85 728.844 1879 728.844 1876.15 731.152 1873.84 734 1873.84ZM775.25 1873.84 785.026 1873.84 795.875 1873.84C798.723 1873.84 801.031 1876.15 801.031 1879 801.031 1881.85 798.723 1884.16 795.875 1884.16L785.026 1884.16 775.25 1884.16C772.402 1884.16 770.094 1881.85 770.094 1879 770.094 1876.15 772.402 1873.84 775.25 1873.84ZM816.5 1873.84 837.125 1873.84C839.973 1873.84 842.281 1876.15 842.281 1879 842.281 1881.85 839.973 1884.16 837.125 1884.16L816.5 1884.16C813.652 1884.16 811.344 1881.85 811.344 1879 811.344 1876.15 813.652 1873.84 816.5 1873.84ZM857.75 1873.84 878.375 1873.84C881.223 1873.84 883.531 1876.15 883.531 1879 883.531 1881.85 881.223 1884.16 878.375 1884.16L857.75 1884.16C854.902 1884.16 852.594 1881.85 852.594 1879 852.594 1876.15 854.902 1873.84 857.75 1873.84ZM899 1873.84 919.625 1873.84C922.473 1873.84 924.781 1876.15 924.781 1879 924.781 1881.85 922.473 1884.16 919.625 1884.16L899 1884.16C896.152 1884.16 893.844 1881.85 893.844 1879 893.844 1876.15 896.152 1873.84 899 1873.84ZM940.25 1873.84 960.875 1873.84C963.723 1873.84 966.031 1876.15 966.031 1879 966.031 1881.85 963.723 1884.16 960.875 1884.16L940.25 1884.16C937.402 1884.16 935.094 1881.85 935.094 1879 935.094 1876.15 937.402 1873.84 940.25 1873.84ZM981.5 1873.84 1001.03 1873.84 1002.12 1873.84C1004.97 1873.84 1007.28 1876.15 1007.28 1879 1007.28 1881.85 1004.97 1884.16 1002.12 1884.16L1001.03 1884.16 981.5 1884.16C978.652 1884.16 976.344 1881.85 976.344 1879 976.344 1876.15 978.652 1873.84 981.5 1873.84ZM1022.75 1873.84 1043.37 1873.84C1046.22 1873.84 1048.53 1876.15 1048.53 1879 1048.53 1881.85 1046.22 1884.16 1043.37 1884.16L1022.75 1884.16C1019.9 1884.16 1017.59 1881.85 1017.59 1879 1017.59 1876.15 1019.9 1873.84 1022.75 1873.84ZM1064 1873.84 1084.62 1873.84C1087.47 1873.84 1089.78 1876.15 1089.78 1879 1089.78 1881.85 1087.47 1884.16 1084.62 1884.16L1064 1884.16C1061.15 1884.16 1058.84 1881.85 1058.84 1879 1058.84 1876.15 1061.15 1873.84 1064 1873.84ZM1105.25 1873.84 1125.87 1873.84C1128.72 1873.84 1131.03 1876.15 1131.03 1879 1131.03 1881.85 1128.72 1884.16 1125.87 1884.16L1105.25 1884.16C1102.4 1884.16 1100.09 1881.85 1100.09 1879 1100.09 1876.15 1102.4 1873.84 1105.25 1873.84ZM1146.5 1873.84 1167.12 1873.84C1169.97 1873.84 1172.28 1876.15 1172.28 1879 1172.28 1881.85 1169.97 1884.16 1167.12 1884.16L1146.5 1884.16C1143.65 1884.16 1141.34 1881.85 1141.34 1879 1141.34 1876.15 1143.65 1873.84 1146.5 1873.84ZM1187.75 1873.84 1208.37 1873.84C1211.22 1873.84 1213.53 1876.15 1213.53 1879 1213.53 1881.85 1211.22 1884.16 1208.37 1884.16L1187.75 1884.16C1184.9 1884.16 1182.59 1881.85 1182.59 1879 1182.59 1876.15 1184.9 1873.84 1187.75 1873.84ZM1229 1873.84 1249.62 1873.84C1252.47 1873.84 1254.78 1876.15 1254.78 1879 1254.78 1881.85 1252.47 1884.16 1249.62 1884.16L1229 1884.16C1226.15 1884.16 1223.84 1881.85 1223.84 1879 1223.84 1876.15 1226.15 1873.84 1229 1873.84ZM1270.25 1873.84 1290.87 1873.84C1293.72 1873.84 1296.03 1876.15 1296.03 1879 1296.03 1881.85 1293.72 1884.16 1290.87 1884.16L1270.25 1884.16C1267.4 1884.16 1265.09 1881.85 1265.09 1879 1265.09 1876.15 1267.4 1873.84 1270.25 1873.84ZM1311.5 1873.84 1332.12 1873.84C1334.97 1873.84 1337.28 1876.15 1337.28 1879 1337.28 1881.85 1334.97 1884.16 1332.12 1884.16L1311.5 1884.16C1308.65 1884.16 1306.34 1881.85 1306.34 1879 1306.34 1876.15 1308.65 1873.84 1311.5 1873.84ZM1352.75 1873.84 1373.37 1873.84C1376.22 1873.84 1378.53 1876.15 1378.53 1879 1378.53 1881.85 1376.22 1884.16 1373.37 1884.16L1352.75 1884.16C1349.9 1884.16 1347.59 1881.85 1347.59 1879 1347.59 1876.15 1349.9 1873.84 1352.75 1873.84ZM1394 1873.84 1414.62 1873.84C1417.47 1873.84 1419.78 1876.15 1419.78 1879 1419.78 1881.85 1417.47 1884.16 1414.62 1884.16L1394 1884.16C1391.15 1884.16 1388.84 1881.85 1388.84 1879 1388.84 1876.15 1391.15 1873.84 1394 1873.84ZM1435.25 1873.84 1455.87 1873.84C1458.72 1873.84 1461.03 1876.15 1461.03 1879 1461.03 1881.85 1458.72 1884.16 1455.87 1884.16L1435.25 1884.16C1432.4 1884.16 1430.09 1881.85 1430.09 1879 1430.09 1876.15 1432.4 1873.84 1435.25 1873.84ZM1476.5 1873.84 1497.12 1873.84C1499.97 1873.84 1502.28 1876.15 1502.28 1879 1502.28 1881.85 1499.97 1884.16 1497.12 1884.16L1476.5 1884.16C1473.65 1884.16 1471.34 1881.85 1471.34 1879 1471.34 1876.15 1473.65 1873.84 1476.5 1873.84ZM1517.75 1873.84 1538.37 1873.84C1541.22 1873.84 1543.53 1876.15 1543.53 1879 1543.53 1881.85 1541.22 1884.16 1538.37 1884.16L1517.75 1884.16C1514.9 1884.16 1512.59 1881.85 1512.59 1879 1512.59 1876.15 1514.9 1873.84 1517.75 1873.84ZM1559 1873.84 1579.62 1873.84C1582.47 1873.84 1584.78 1876.15 1584.78 1879 1584.78 1881.85 1582.47 1884.16 1579.62 1884.16L1559 1884.16C1556.15 1884.16 1553.84 1881.85 1553.84 1879 1553.84 1876.15 1556.15 1873.84 1559 1873.84ZM1600.25 1873.84 1620.87 1873.84C1623.72 1873.84 1626.03 1876.15 1626.03 1879 1626.03 1881.85 1623.72 1884.16 1620.87 1884.16L1600.25 1884.16C1597.4 1884.16 1595.09 1881.85 1595.09 1879 1595.09 1876.15 1597.4 1873.84 1600.25 1873.84ZM1641.5 1873.84 1648.05 1873.84 1662.12 1873.84C1664.97 1873.84 1667.28 1876.15 1667.28 1879 1667.28 1881.85 1664.97 1884.16 1662.12 1884.16L1648.05 1884.16 1641.5 1884.16C1638.65 1884.16 1636.34 1881.85 1636.34 1879 1636.34 1876.15 1638.65 1873.84 1641.5 1873.84ZM1682.75 1873.84 1703.37 1873.84C1706.22 1873.84 1708.53 1876.15 1708.53 1879 1708.53 1881.85 1706.22 1884.16 1703.37 1884.16L1682.75 1884.16C1679.9 1884.16 1677.59 1881.85 1677.59 1879 1677.59 1876.15 1679.9 1873.84 1682.75 1873.84ZM1724 1873.84 1744.62 1873.84C1747.47 1873.84 1749.78 1876.15 1749.78 1879 1749.78 1881.85 1747.47 1884.16 1744.62 1884.16L1724 1884.16C1721.15 1884.16 1718.84 1881.85 1718.84 1879 1718.84 1876.15 1721.15 1873.84 1724 1873.84ZM1765.25 1873.84 1785.87 1873.84C1788.72 1873.84 1791.03 1876.15 1791.03 1879 1791.03 1881.85 1788.72 1884.16 1785.87 1884.16L1765.25 1884.16C1762.4 1884.16 1760.09 1881.85 1760.09 1879 1760.09 1876.15 1762.4 1873.84 1765.25 1873.84ZM1806.5 1873.84 1827.12 1873.84C1829.97 1873.84 1832.28 1876.15 1832.28 1879 1832.28 1881.85 1829.97 1884.16 1827.12 1884.16L1806.5 1884.16C1803.65 1884.16 1801.34 1881.85 1801.34 1879 1801.34 1876.15 1803.65 1873.84 1806.5 1873.84ZM1847.75 1873.84 1864.06 1873.84 1868.37 1873.84C1871.22 1873.84 1873.53 1876.15 1873.53 1879 1873.53 1881.85 1871.22 1884.16 1868.37 1884.16L1864.06 1884.16 1847.75 1884.16C1844.9 1884.16 1842.59 1881.85 1842.59 1879 1842.59 1876.15 1844.9 1873.84 1847.75 1873.84ZM1889 1873.84 1909.62 1873.84C1912.47 1873.84 1914.78 1876.15 1914.78 1879 1914.78 1881.85 1912.47 1884.16 1909.62 1884.16L1889 1884.16C1886.15 1884.16 1883.84 1881.85 1883.84 1879 1883.84 1876.15 1886.15 1873.84 1889 1873.84ZM1930.25 1873.84 1950.87 1873.84C1953.72 1873.84 1956.03 1876.15 1956.03 1879 1956.03 1881.85 1953.72 1884.16 1950.87 1884.16L1930.25 1884.16C1927.4 1884.16 1925.09 1881.85 1925.09 1879 1925.09 1876.15 1927.4 1873.84 1930.25 1873.84ZM1971.5 1873.84 1992.12 1873.84C1994.97 1873.84 1997.28 1876.15 1997.28 1879 1997.28 1881.85 1994.97 1884.16 1992.12 1884.16L1971.5 1884.16C1968.65 1884.16 1966.34 1881.85 1966.34 1879 1966.34 1876.15 1968.65 1873.84 1971.5 1873.84ZM2012.75 1873.84 2033.37 1873.84C2036.22 1873.84 2038.53 1876.15 2038.53 1879 2038.53 1881.85 2036.22 1884.16 2033.37 1884.16L2012.75 1884.16C2009.9 1884.16 2007.59 1881.85 2007.59 1879 2007.59 1876.15 2009.9 1873.84 2012.75 1873.84ZM2054 1873.84 2074.62 1873.84C2077.47 1873.84 2079.78 1876.15 2079.78 1879 2079.78 1881.85 2077.47 1884.16 2074.62 1884.16L2054 1884.16C2051.15 1884.16 2048.84 1881.85 2048.84 1879 2048.84 1876.15 2051.15 1873.84 2054 1873.84ZM2095.25 1873.84 2115.87 1873.84C2118.72 1873.84 2121.03 1876.15 2121.03 1879 2121.03 1881.85 2118.72 1884.16 2115.87 1884.16L2095.25 1884.16C2092.4 1884.16 2090.09 1881.85 2090.09 1879 2090.09 1876.15 2092.4 1873.84 2095.25 1873.84ZM2136.5 1873.84 2157.12 1873.84C2159.97 1873.84 2162.28 1876.15 2162.28 1879 2162.28 1881.85 2159.97 1884.16 2157.12 1884.16L2136.5 1884.16C2133.65 1884.16 2131.34 1881.85 2131.34 1879 2131.34 1876.15 2133.65 1873.84 2136.5 1873.84ZM2177.75 1873.84 2198.37 1873.84C2201.22 1873.84 2203.53 1876.15 2203.53 1879 2203.53 1881.85 2201.22 1884.16 2198.37 1884.16L2177.75 1884.16C2174.9 1884.16 2172.59 1881.85 2172.59 1879 2172.59 1876.15 2174.9 1873.84 2177.75 1873.84ZM2219 1873.84 2239.62 1873.84C2242.47 1873.84 2244.78 1876.15 2244.78 1879 2244.78 1881.85 2242.47 1884.16 2239.62 1884.16L2219 1884.16C2216.15 1884.16 2213.84 1881.85 2213.84 1879 2213.84 1876.15 2216.15 1873.84 2219 1873.84ZM2260.25 1873.84 2280.87 1873.84C2283.72 1873.84 2286.03 1876.15 2286.03 1879 2286.03 1881.85 2283.72 1884.16 2280.87 1884.16L2260.25 1884.16C2257.4 1884.16 2255.09 1881.85 2255.09 1879 2255.09 1876.15 2257.4 1873.84 2260.25 1873.84ZM2301.5 1873.84 2322.12 1873.84C2324.97 1873.84 2327.28 1876.15 2327.28 1879 2327.28 1881.85 2324.97 1884.16 2322.12 1884.16L2301.5 1884.16C2298.65 1884.16 2296.34 1881.85 2296.34 1879 2296.34 1876.15 2298.65 1873.84 2301.5 1873.84ZM2342.75 1873.84 2363.37 1873.84C2366.22 1873.84 2368.53 1876.15 2368.53 1879 2368.53 1881.85 2366.22 1884.16 2363.37 1884.16L2342.75 1884.16C2339.9 1884.16 2337.59 1881.85 2337.59 1879 2337.59 1876.15 2339.9 1873.84 2342.75 1873.84ZM2384 1873.84 2404.62 1873.84C2407.47 1873.84 2409.78 1876.15 2409.78 1879 2409.78 1881.85 2407.47 1884.16 2404.62 1884.16L2384 1884.16C2381.15 1884.16 2378.84 1881.85 2378.84 1879 2378.84 1876.15 2381.15 1873.84 2384 1873.84ZM2425.25 1873.84 2445.87 1873.84C2448.72 1873.84 2451.03 1876.15 2451.03 1879 2451.03 1881.85 2448.72 1884.16 2445.87 1884.16L2425.25 1884.16C2422.4 1884.16 2420.09 1881.85 2420.09 1879 2420.09 1876.15 2422.4 1873.84 2425.25 1873.84ZM2466.5 1873.84 2487.12 1873.84C2489.97 1873.84 2492.28 1876.15 2492.28 1879 2492.28 1881.85 2489.97 1884.16 2487.12 1884.16L2466.5 1884.16C2463.65 1884.16 2461.34 1881.85 2461.34 1879 2461.34 1876.15 2463.65 1873.84 2466.5 1873.84ZM2507.75 1873.84 2511.08 1873.84 2528.37 1873.84C2531.22 1873.84 2533.53 1876.15 2533.53 1879 2533.53 1881.85 2531.22 1884.16 2528.37 1884.16L2511.08 1884.16 2507.75 1884.16C2504.9 1884.16 2502.59 1881.85 2502.59 1879 2502.59 1876.15 2504.9 1873.84 2507.75 1873.84ZM2549 1873.84 2569.62 1873.84C2572.47 1873.84 2574.78 1876.15 2574.78 1879 2574.78 1881.85 2572.47 1884.16 2569.62 1884.16L2549 1884.16C2546.15 1884.16 2543.84 1881.85 2543.84 1879 2543.84 1876.15 2546.15 1873.84 2549 1873.84ZM2590.25 1873.84 2610.87 1873.84C2613.72 1873.84 2616.03 1876.15 2616.03 1879 2616.03 1881.85 2613.72 1884.16 2610.87 1884.16L2590.25 1884.16C2587.4 1884.16 2585.09 1881.85 2585.09 1879 2585.09 1876.15 2587.4 1873.84 2590.25 1873.84ZM2631.5 1873.84 2652.12 1873.84C2654.97 1873.84 2657.28 1876.15 2657.28 1879 2657.28 1881.85 2654.97 1884.16 2652.12 1884.16L2631.5 1884.16C2628.65 1884.16 2626.34 1881.85 2626.34 1879 2626.34 1876.15 2628.65 1873.84 2631.5 1873.84ZM2672.75 1873.84 2693.37 1873.84C2696.22 1873.84 2698.53 1876.15 2698.53 1879 2698.53 1881.85 2696.22 1884.16 2693.37 1884.16L2672.75 1884.16C2669.9 1884.16 2667.59 1881.85 2667.59 1879 2667.59 1876.15 2669.9 1873.84 2672.75 1873.84ZM2714 1873.84 2727.09 1873.84 2734.62 1873.84C2737.47 1873.84 2739.78 1876.15 2739.78 1879 2739.78 1881.85 2737.47 1884.16 2734.62 1884.16L2727.09 1884.16 2714 1884.16C2711.15 1884.16 2708.84 1881.85 2708.84 1879 2708.84 1876.15 2711.15 1873.84 2714 1873.84ZM2755.25 1873.84 2775.87 1873.84C2778.72 1873.84 2781.03 1876.15 2781.03 1879 2781.03 1881.85 2778.72 1884.16 2775.87 1884.16L2755.25 1884.16C2752.4 1884.16 2750.09 1881.85 2750.09 1879 2750.09 1876.15 2752.4 1873.84 2755.25 1873.84ZM2796.5 1873.84 2817.12 1873.84C2819.97 1873.84 2822.28 1876.15 2822.28 1879 2822.28 1881.85 2819.97 1884.16 2817.12 1884.16L2796.5 1884.16C2793.65 1884.16 2791.34 1881.85 2791.34 1879 2791.34 1876.15 2793.65 1873.84 2796.5 1873.84ZM2837.75 1873.84 2858.37 1873.84C2861.22 1873.84 2863.53 1876.15 2863.53 1879 2863.53 1881.85 2861.22 1884.16 2858.37 1884.16L2837.75 1884.16C2834.9 1884.16 2832.59 1881.85 2832.59 1879 2832.59 1876.15 2834.9 1873.84 2837.75 1873.84ZM2879 1873.84 2899.62 1873.84C2902.47 1873.84 2904.78 1876.15 2904.78 1879 2904.78 1881.85 2902.47 1884.16 2899.62 1884.16L2879 1884.16C2876.15 1884.16 2873.84 1881.85 2873.84 1879 2873.84 1876.15 2876.15 1873.84 2879 1873.84ZM2920.25 1873.84 2940.87 1873.84C2943.72 1873.84 2946.03 1876.15 2946.03 1879 2946.03 1881.85 2943.72 1884.16 2940.87 1884.16L2920.25 1884.16C2917.4 1884.16 2915.09 1881.85 2915.09 1879 2915.09 1876.15 2917.4 1873.84 2920.25 1873.84ZM2961.5 1873.84 2982.12 1873.84C2984.97 1873.84 2987.28 1876.15 2987.28 1879 2987.28 1881.85 2984.97 1884.16 2982.12 1884.16L2961.5 1884.16C2958.65 1884.16 2956.34 1881.85 2956.34 1879 2956.34 1876.15 2958.65 1873.84 2961.5 1873.84ZM3002.75 1873.84 3023.37 1873.84C3026.22 1873.84 3028.53 1876.15 3028.53 1879 3028.53 1881.85 3026.22 1884.16 3023.37 1884.16L3002.75 1884.16C2999.9 1884.16 2997.59 1881.85 2997.59 1879 2997.59 1876.15 2999.9 1873.84 3002.75 1873.84ZM3044 1873.84 3064.62 1873.84C3067.47 1873.84 3069.78 1876.15 3069.78 1879 3069.78 1881.85 3067.47 1884.16 3064.62 1884.16L3044 1884.16C3041.15 1884.16 3038.84 1881.85 3038.84 1879 3038.84 1876.15 3041.15 1873.84 3044 1873.84ZM3085.25 1873.84 3105.87 1873.84C3108.72 1873.84 3111.03 1876.15 3111.03 1879 3111.03 1881.85 3108.72 1884.16 3105.87 1884.16L3085.25 1884.16C3082.4 1884.16 3080.09 1881.85 3080.09 1879 3080.09 1876.15 3082.4 1873.84 3085.25 1873.84ZM3126.5 1873.84 3147.12 1873.84C3149.97 1873.84 3152.28 1876.15 3152.28 1879 3152.28 1881.85 3149.97 1884.16 3147.12 1884.16L3126.5 1884.16C3123.65 1884.16 3121.34 1881.85 3121.34 1879 3121.34 1876.15 3123.65 1873.84 3126.5 1873.84ZM3167.75 1873.84 3188.37 1873.84C3191.22 1873.84 3193.53 1876.15 3193.53 1879 3193.53 1881.85 3191.22 1884.16 3188.37 1884.16L3167.75 1884.16C3164.9 1884.16 3162.59 1881.85 3162.59 1879 3162.59 1876.15 3164.9 1873.84 3167.75 1873.84ZM3209 1873.84 3229.62 1873.84C3232.47 1873.84 3234.78 1876.15 3234.78 1879 3234.78 1881.85 3232.47 1884.16 3229.62 1884.16L3209 1884.16C3206.15 1884.16 3203.84 1881.85 3203.84 1879 3203.84 1876.15 3206.15 1873.84 3209 1873.84ZM3250.25 1873.84 3270.87 1873.84C3273.72 1873.84 3276.03 1876.15 3276.03 1879 3276.03 1881.85 3273.72 1884.16 3270.87 1884.16L3250.25 1884.16C3247.4 1884.16 3245.09 1881.85 3245.09 1879 3245.09 1876.15 3247.4 1873.84 3250.25 1873.84ZM3291.5 1873.84 3312.12 1873.84C3314.97 1873.84 3317.28 1876.15 3317.28 1879 3317.28 1881.85 3314.97 1884.16 3312.12 1884.16L3291.5 1884.16C3288.65 1884.16 3286.34 1881.85 3286.34 1879 3286.34 1876.15 3288.65 1873.84 3291.5 1873.84ZM3332.75 1873.84 3353.37 1873.84C3356.22 1873.84 3358.53 1876.15 3358.53 1879 3358.53 1881.85 3356.22 1884.16 3353.37 1884.16L3332.75 1884.16C3329.9 1884.16 3327.59 1881.85 3327.59 1879 3327.59 1876.15 3329.9 1873.84 3332.75 1873.84ZM3374 1873.84 3374.11 1873.84 3394.62 1873.84C3397.47 1873.84 3399.78 1876.15 3399.78 1879 3399.78 1881.85 3397.47 1884.16 3394.62 1884.16L3374.11 1884.16 3374 1884.16C3371.15 1884.16 3368.84 1881.85 3368.84 1879 3368.84 1876.15 3371.15 1873.84 3374 1873.84ZM3415.25 1873.84 3435.87 1873.84C3438.72 1873.84 3441.03 1876.15 3441.03 1879 3441.03 1881.85 3438.72 1884.16 3435.87 1884.16L3415.25 1884.16C3412.4 1884.16 3410.09 1881.85 3410.09 1879 3410.09 1876.15 3412.4 1873.84 3415.25 1873.84ZM3456.5 1873.84 3477.12 1873.84C3479.97 1873.84 3482.28 1876.15 3482.28 1879 3482.28 1881.85 3479.97 1884.16 3477.12 1884.16L3456.5 1884.16C3453.65 1884.16 3451.34 1881.85 3451.34 1879 3451.34 1876.15 3453.65 1873.84 3456.5 1873.84ZM3497.75 1873.84 3518.37 1873.84C3521.22 1873.84 3523.53 1876.15 3523.53 1879 3523.53 1881.85 3521.22 1884.16 3518.37 1884.16L3497.75 1884.16C3494.9 1884.16 3492.59 1881.85 3492.59 1879 3492.59 1876.15 3494.9 1873.84 3497.75 1873.84ZM3539 1873.84 3559.62 1873.84C3562.47 1873.84 3564.78 1876.15 3564.78 1879 3564.78 1881.85 3562.47 1884.16 3559.62 1884.16L3539 1884.16C3536.15 1884.16 3533.84 1881.85 3533.84 1879 3533.84 1876.15 3536.15 1873.84 3539 1873.84ZM3580.25 1873.84 3590.12 1873.84 3600.87 1873.84C3603.72 1873.84 3606.03 1876.15 3606.03 1879 3606.03 1881.85 3603.72 1884.16 3600.87 1884.16L3590.12 1884.16 3580.25 1884.16C3577.4 1884.16 3575.09 1881.85 3575.09 1879 3575.09 1876.15 3577.4 1873.84 3580.25 1873.84ZM3621.5 1873.84 3642.12 1873.84C3644.97 1873.84 3647.28 1876.15 3647.28 1879 3647.28 1881.85 3644.97 1884.16 3642.12 1884.16L3621.5 1884.16C3618.65 1884.16 3616.34 1881.85 3616.34 1879 3616.34 1876.15 3618.65 1873.84 3621.5 1873.84ZM3662.75 1873.84 3683.37 1873.84C3686.22 1873.84 3688.53 1876.15 3688.53 1879 3688.53 1881.85 3686.22 1884.16 3683.37 1884.16L3662.75 1884.16C3659.9 1884.16 3657.59 1881.85 3657.59 1879 3657.59 1876.15 3659.9 1873.84 3662.75 1873.84ZM3704 1873.84 3724.62 1873.84C3727.47 1873.84 3729.78 1876.15 3729.78 1879 3729.78 1881.85 3727.47 1884.16 3724.62 1884.16L3704 1884.16C3701.15 1884.16 3698.84 1881.85 3698.84 1879 3698.84 1876.15 3701.15 1873.84 3704 1873.84ZM3745.25 1873.84 3765.87 1873.84C3768.72 1873.84 3771.03 1876.15 3771.03 1879 3771.03 1881.85 3768.72 1884.16 3765.87 1884.16L3745.25 1884.16C3742.4 1884.16 3740.09 1881.85 3740.09 1879 3740.09 1876.15 3742.4 1873.84 3745.25 1873.84ZM3786.5 1873.84 3806.12 1873.84 3807.12 1873.84C3809.97 1873.84 3812.28 1876.15 3812.28 1879 3812.28 1881.85 3809.97 1884.16 3807.12 1884.16L3806.12 1884.16 3786.5 1884.16C3783.65 1884.16 3781.34 1881.85 3781.34 1879 3781.34 1876.15 3783.65 1873.84 3786.5 1873.84ZM3827.75 1873.84 3848.37 1873.84C3851.22 1873.84 3853.53 1876.15 3853.53 1879 3853.53 1881.85 3851.22 1884.16 3848.37 1884.16L3827.75 1884.16C3824.9 1884.16 3822.59 1881.85 3822.59 1879 3822.59 1876.15 3824.9 1873.84 3827.75 1873.84ZM3869 1873.84 3889.62 1873.84C3892.47 1873.84 3894.78 1876.15 3894.78 1879 3894.78 1881.85 3892.47 1884.16 3889.62 1884.16L3869 1884.16C3866.15 1884.16 3863.84 1881.85 3863.84 1879 3863.84 1876.15 3866.15 1873.84 3869 1873.84ZM3910.25 1873.84 3930.87 1873.84C3933.72 1873.84 3936.03 1876.15 3936.03 1879 3936.03 1881.85 3933.72 1884.16 3930.87 1884.16L3910.25 1884.16C3907.4 1884.16 3905.09 1881.85 3905.09 1879 3905.09 1876.15 3907.4 1873.84 3910.25 1873.84ZM3951.5 1873.84 3972.12 1873.84C3974.97 1873.84 3977.28 1876.15 3977.28 1879 3977.28 1881.85 3974.97 1884.16 3972.12 1884.16L3951.5 1884.16C3948.65 1884.16 3946.34 1881.85 3946.34 1879 3946.34 1876.15 3948.65 1873.84 3951.5 1873.84ZM3992.75 1873.84 4013.37 1873.84C4016.22 1873.84 4018.53 1876.15 4018.53 1879 4018.53 1881.85 4016.22 1884.16 4013.37 1884.16L3992.75 1884.16C3989.9 1884.16 3987.59 1881.85 3987.59 1879 3987.59 1876.15 3989.9 1873.84 3992.75 1873.84Z" fill="#00B050" fill-rule="nonzero" fill-opacity="1"/></g><g><text fill="#595959" fill-opacity="1" font-family="Calibri,Calibri_MSFontService,sans-serif" font-style="normal" font-variant="normal" font-weight="400" font-stretch="normal" font-size="41" text-anchor="start" direction="ltr" writing-mode="lr-tb" unicode-bidi="normal" text-decoration="none" transform="matrix(1 0 0 1 337.198 2895)">-20.0</text></g><g><text fill="#595959" fill-opacity="1" font-family="Calibri,Calibri_MSFontService,sans-serif" font-style="normal" font-variant="normal" font-weight="400" font-stretch="normal" font-size="41" text-anchor="start" direction="ltr" writing-mode="lr-tb" unicode-bidi="normal" text-decoration="none" transform="matrix(1 0 0 1 370.725 2694)">0.0</text></g><g><text fill="#595959" fill-opacity="1" font-family="Calibri,Calibri_MSFontService,sans-serif" font-style="normal" font-variant="normal" font-weight="400" font-stretch="normal" font-size="41" text-anchor="start" direction="ltr" writing-mode="lr-tb" unicode-bidi="normal" text-decoration="none" transform="matrix(1 0 0 1 349.825 2493)">20.0</text></g><g><text fill="#595959" fill-opacity="1" font-family="Calibri,Calibri_MSFontService,sans-serif" font-style="normal" font-variant="normal" font-weight="400" font-stretch="normal" font-size="41" text-anchor="start" direction="ltr" writing-mode="lr-tb" unicode-bidi="normal" text-decoration="none" transform="matrix(1 0 0 1 349.825 2292)">40.0</text></g><g><text fill="#595959" fill-opacity="1" font-family="Calibri,Calibri_MSFontService,sans-serif" font-style="normal" font-variant="normal" font-weight="400" font-stretch="normal" font-size="41" text-anchor="start" direction="ltr" writing-mode="lr-tb" unicode-bidi="normal" text-decoration="none" transform="matrix(1 0 0 1 349.825 2091)">60.0</text></g><g><text fill="#595959" fill-opacity="1" font-family="Calibri,Calibri_MSFontService,sans-serif" font-style="normal" font-variant="normal" font-weight="400" font-stretch="normal" font-size="41" text-anchor="start" direction="ltr" writing-mode="lr-tb" unicode-bidi="normal" text-decoration="none" transform="matrix(1 0 0 1 349.825 1890)">80.0</text></g><g><text fill="#595959" fill-opacity="1" font-family="Calibri,Calibri_MSFontService,sans-serif" font-style="normal" font-variant="normal" font-weight="400" font-stretch="normal" font-size="41" text-anchor="start" direction="ltr" writing-mode="lr-tb" unicode-bidi="normal" text-decoration="none" transform="matrix(1 0 0 1 328.925 1688)">100.0</text></g><g><text fill="#595959" fill-opacity="1" font-family="Calibri,Calibri_MSFontService,sans-serif" font-style="normal" font-variant="normal" font-weight="400" font-stretch="normal" font-size="41" text-anchor="start" direction="ltr" writing-mode="lr-tb" unicode-bidi="normal" text-decoration="none" transform="matrix(1 0 0 1 328.925 1487)">120.0</text></g><g><text fill="#595959" fill-opacity="1" font-family="Calibri,Calibri_MSFontService,sans-serif" font-style="normal" font-variant="normal" font-weight="400" font-stretch="normal" font-size="41" text-anchor="start" direction="ltr" writing-mode="lr-tb" unicode-bidi="normal" text-decoration="none" transform="matrix(1 0 0 1 549.168 2749)">S1</text></g><g><text fill="#595959" fill-opacity="1" font-family="Calibri,Calibri_MSFontService,sans-serif" font-style="normal" font-variant="normal" font-weight="400" font-stretch="normal" font-size="41" text-anchor="start" direction="ltr" writing-mode="lr-tb" unicode-bidi="normal" text-decoration="none" transform="matrix(1 0 0 1 764.962 2749)">S2</text></g><g><text fill="#595959" fill-opacity="1" font-family="Calibri,Calibri_MSFontService,sans-serif" font-style="normal" font-variant="normal" font-weight="400" font-stretch="normal" font-size="41" text-anchor="start" direction="ltr" writing-mode="lr-tb" unicode-bidi="normal" text-decoration="none" transform="matrix(1 0 0 1 980.757 2749)">S3</text></g><g><text fill="#595959" fill-opacity="1" font-family="Calibri,Calibri_MSFontService,sans-serif" font-style="normal" font-variant="normal" font-weight="400" font-stretch="normal" font-size="41" text-anchor="start" direction="ltr" writing-mode="lr-tb" unicode-bidi="normal" text-decoration="none" transform="matrix(1 0 0 1 1196.55 2749)">S4</text></g><g><text fill="#595959" fill-opacity="1" font-family="Calibri,Calibri_MSFontService,sans-serif" font-style="normal" font-variant="normal" font-weight="400" font-stretch="normal" font-size="41" text-anchor="start" direction="ltr" writing-mode="lr-tb" unicode-bidi="normal" text-decoration="none" transform="matrix(1 0 0 1 1412.35 2749)">S5</text></g><g><text fill="#595959" fill-opacity="1" font-family="Calibri,Calibri_MSFontService,sans-serif" font-style="normal" font-variant="normal" font-weight="400" font-stretch="normal" font-size="41" text-anchor="start" direction="ltr" writing-mode="lr-tb" unicode-bidi="normal" text-decoration="none" transform="matrix(1 0 0 1 1628.14 2749)">S6</text></g><g><text fill="#595959" fill-opacity="1" font-family="Calibri,Calibri_MSFontService,sans-serif" font-style="normal" font-variant="normal" font-weight="400" font-stretch="normal" font-size="41" text-anchor="start" direction="ltr" writing-mode="lr-tb" unicode-bidi="normal" text-decoration="none" transform="matrix(1 0 0 1 1843.93 2749)">S7</text></g><g><text fill="#595959" fill-opacity="1" font-family="Calibri,Calibri_MSFontService,sans-serif" font-style="normal" font-variant="normal" font-weight="400" font-stretch="normal" font-size="41" text-anchor="start" direction="ltr" writing-mode="lr-tb" unicode-bidi="normal" text-decoration="none" transform="matrix(1 0 0 1 2059.73 2749)">S8</text></g><g><text fill="#595959" fill-opacity="1" font-family="Calibri,Calibri_MSFontService,sans-serif" font-style="normal" font-variant="normal" font-weight="400" font-stretch="normal" font-size="41" text-anchor="start" direction="ltr" writing-mode="lr-tb" unicode-bidi="normal" text-decoration="none" transform="matrix(1 0 0 1 2275.52 2749)">S9</text></g><g><text fill="#595959" fill-opacity="1" font-family="Calibri,Calibri_MSFontService,sans-serif" font-style="normal" font-variant="normal" font-weight="400" font-stretch="normal" font-size="41" text-anchor="start" direction="ltr" writing-mode="lr-tb" unicode-bidi="normal" text-decoration="none" transform="matrix(1 0 0 1 2480.87 2749)">S10</text></g><g><text fill="#595959" fill-opacity="1" font-family="Calibri,Calibri_MSFontService,sans-serif" font-style="normal" font-variant="normal" font-weight="400" font-stretch="normal" font-size="41" text-anchor="start" direction="ltr" writing-mode="lr-tb" unicode-bidi="normal" text-decoration="none" transform="matrix(1 0 0 1 2696.66 2749)">S11</text></g><g><text fill="#595959" fill-opacity="1" font-family="Calibri,Calibri_MSFontService,sans-serif" font-style="normal" font-variant="normal" font-weight="400" font-stretch="normal" font-size="41" text-anchor="start" direction="ltr" writing-mode="lr-tb" unicode-bidi="normal" text-decoration="none" transform="matrix(1 0 0 1 2912.46 2749)">S12</text></g><g><text fill="#595959" fill-opacity="1" font-family="Calibri,Calibri_MSFontService,sans-serif" font-style="normal" font-variant="normal" font-weight="400" font-stretch="normal" font-size="41" text-anchor="start" direction="ltr" writing-mode="lr-tb" unicode-bidi="normal" text-decoration="none" transform="matrix(1 0 0 1 3128.25 2749)">S13</text></g><g><text fill="#595959" fill-opacity="1" font-family="Calibri,Calibri_MSFontService,sans-serif" font-style="normal" font-variant="normal" font-weight="400" font-stretch="normal" font-size="41" text-anchor="start" direction="ltr" writing-mode="lr-tb" unicode-bidi="normal" text-decoration="none" transform="matrix(1 0 0 1 3344.05 2749)">S14</text></g><g><text fill="#595959" fill-opacity="1" font-family="Calibri,Calibri_MSFontService,sans-serif" font-style="normal" font-variant="normal" font-weight="400" font-stretch="normal" font-size="41" text-anchor="start" direction="ltr" writing-mode="lr-tb" unicode-bidi="normal" text-decoration="none" transform="matrix(1 0 0 1 3559.84 2749)">S15</text></g><g><text fill="#595959" fill-opacity="1" font-family="Calibri,Calibri_MSFontService,sans-serif" font-style="normal" font-variant="normal" font-weight="400" font-stretch="normal" font-size="41" text-anchor="start" direction="ltr" writing-mode="lr-tb" unicode-bidi="normal" text-decoration="none" transform="matrix(1 0 0 1 3775.64 2749)">S16</text></g><g><text fill="#595959" fill-opacity="1" font-family="Calibri,Calibri_MSFontService,sans-serif" font-style="normal" font-variant="normal" font-weight="400" font-stretch="normal" font-size="41" text-anchor="start" direction="ltr" writing-mode="lr-tb" unicode-bidi="normal" text-decoration="none" transform="matrix(1 0 0 1 3991.43 2749)">S17</text></g><g><text fill="#595959" fill-opacity="1" font-family="Calibri,Calibri_MSFontService,sans-serif" font-style="normal" font-variant="normal" font-weight="400" font-stretch="normal" font-size="64" text-anchor="start" direction="ltr" writing-mode="lr-tb" unicode-bidi="normal" text-decoration="none" transform="matrix(1 0 0 1 2098.89 1406)">MPC-IG</text></g><g><path d="M725 3036 840 3036" stroke="#4F81BD" stroke-width="5.72917" stroke-linecap="round" stroke-linejoin="round" stroke-miterlimit="10" stroke-opacity="1" fill="none" fill-rule="evenodd"/></g><g><text fill="#595959" fill-opacity="1" font-family="Calibri,Calibri_MSFontService,sans-serif" font-style="normal" font-variant="normal" font-weight="400" font-stretch="normal" font-size="41" text-anchor="start" direction="ltr" writing-mode="lr-tb" unicode-bidi="normal" text-decoration="none" transform="matrix(1 0 0 1 853.048 3046)">AdR</text></g><g><path d="M989.5 3035.5 1105.5 3035.5" stroke="#C0504D" stroke-width="6.875" stroke-linecap="round" stroke-linejoin="round" stroke-miterlimit="10" stroke-opacity="1" fill="none" fill-rule="evenodd"/></g><g><text fill="#595959" fill-opacity="1" font-family="Calibri,Calibri_MSFontService,sans-serif" font-style="normal" font-variant="normal" font-weight="400" font-stretch="normal" font-size="41" text-anchor="start" direction="ltr" writing-mode="lr-tb" unicode-bidi="normal" text-decoration="none" transform="matrix(1 0 0 1 1118.04 3046)">PdQ</text></g><g><path d="M1257.5 3035.5 1373.5 3035.5" stroke="#9BBB59" stroke-width="6.875" stroke-linecap="round" stroke-linejoin="round" stroke-miterlimit="10" stroke-opacity="1" fill="none" fill-rule="evenodd"/></g><g><text fill="#595959" fill-opacity="1" font-family="Calibri,Calibri_MSFontService,sans-serif" font-style="normal" font-variant="normal" font-weight="400" font-stretch="normal" font-size="41" text-anchor="start" direction="ltr" writing-mode="lr-tb" unicode-bidi="normal" text-decoration="none" transform="matrix(1 0 0 1 1385.84 3046)">NdP</text></g><g><path d="M1524.5 3035.5 1639.5 3035.5" stroke="#8064A2" stroke-width="6.875" stroke-linecap="round" stroke-linejoin="round" stroke-miterlimit="10" stroke-opacity="1" fill="none" fill-rule="evenodd"/></g><g><text fill="#595959" fill-opacity="1" font-family="Calibri,Calibri_MSFontService,sans-serif" font-style="normal" font-variant="normal" font-weight="400" font-stretch="normal" font-size="41" text-anchor="start" direction="ltr" writing-mode="lr-tb" unicode-bidi="normal" text-decoration="none" transform="matrix(1 0 0 1 1652.5 3046)">PdP</text></g><g><path d="M1785.5 3035.5 1901.5 3035.5" stroke="#4BACC6" stroke-width="6.875" stroke-linecap="round" stroke-linejoin="round" stroke-miterlimit="10" stroke-opacity="1" fill="none" fill-rule="evenodd"/></g><g><text fill="#595959" fill-opacity="1" font-family="Calibri,Calibri_MSFontService,sans-serif" font-style="normal" font-variant="normal" font-weight="400" font-stretch="normal" font-size="41" text-anchor="start" direction="ltr" writing-mode="lr-tb" unicode-bidi="normal" text-decoration="none" transform="matrix(1 0 0 1 1913.86 3046)">Glossario</text></g><g><path d="M2137.5 3035.5 2253.5 3035.5" stroke="#F79646" stroke-width="6.875" stroke-linecap="round" stroke-linejoin="round" stroke-miterlimit="10" stroke-opacity="1" fill="none" fill-rule="evenodd"/></g><g><text fill="#595959" fill-opacity="1" font-family="Calibri,Calibri_MSFontService,sans-serif" font-style="normal" font-variant="normal" font-weight="400" font-stretch="normal" font-size="41" text-anchor="start" direction="ltr" writing-mode="lr-tb" unicode-bidi="normal" text-decoration="none" transform="matrix(1 0 0 1 2265.78 3046)">ST</text></g><g><path d="M2373.5 3035.5 2489.5 3035.5" stroke="#2C4D75" stroke-width="6.875" stroke-linecap="round" stroke-linejoin="round" stroke-miterlimit="10" stroke-opacity="1" fill="none" fill-rule="evenodd"/></g><g><text fill="#595959" fill-opacity="1" font-family="Calibri,Calibri_MSFontService,sans-serif" font-style="normal" font-variant="normal" font-weight="400" font-stretch="normal" font-size="41" text-anchor="start" direction="ltr" writing-mode="lr-tb" unicode-bidi="normal" text-decoration="none" transform="matrix(1 0 0 1 2501.87 3046)">Manuale Utente</text></g><g><path d="M2845 3030.84 2865.62 3030.84C2868.47 3030.84 2870.78 3033.15 2870.78 3036 2870.78 3038.85 2868.47 3041.16 2865.62 3041.16L2845 3041.16C2842.15 3041.16 2839.84 3038.85 2839.84 3036 2839.84 3033.15 2842.15 3030.84 2845 3030.84ZM2886.25 3030.84 2906.87 3030.84C2909.72 3030.84 2912.03 3033.15 2912.03 3036 2912.03 3038.85 2909.72 3041.16 2906.87 3041.16L2886.25 3041.16C2883.4 3041.16 2881.09 3038.85 2881.09 3036 2881.09 3033.15 2883.4 3030.84 2886.25 3030.84ZM2927.5 3030.84 2948.12 3030.84C2950.97 3030.84 2953.28 3033.15 2953.28 3036 2953.28 3038.85 2950.97 3041.16 2948.12 3041.16L2927.5 3041.16C2924.65 3041.16 2922.34 3038.85 2922.34 3036 2922.34 3033.15 2924.65 3030.84 2927.5 3030.84Z" fill="#FF0000" fill-rule="nonzero" fill-opacity="1"/></g><g><text fill="#595959" fill-opacity="1" font-family="Calibri,Calibri_MSFontService,sans-serif" font-style="normal" font-variant="normal" font-weight="400" font-stretch="normal" font-size="41" text-anchor="start" direction="ltr" writing-mode="lr-tb" unicode-bidi="normal" text-decoration="none" transform="matrix(1 0 0 1 2973.24 3046)">Soglia acc. (≥60%)</text></g><g><path d="M3341 3030.84 3361.62 3030.84C3364.47 3030.84 3366.78 3033.15 3366.78 3036 3366.78 3038.85 3364.47 3041.16 3361.62 3041.16L3341 3041.16C3338.15 3041.16 3335.84 3038.85 3335.84 3036 3335.84 3033.15 3338.15 3030.84 3341 3030.84ZM3382.25 3030.84 3402.88 3030.84C3405.72 3030.84 3408.03 3033.15 3408.03 3036 3408.03 3038.85 3405.72 3041.16 3402.88 3041.16L3382.25 3041.16C3379.4 3041.16 3377.09 3038.85 3377.09 3036 3377.09 3033.15 3379.4 3030.84 3382.25 3030.84ZM3423.5 3030.84 3444.12 3030.84C3446.97 3030.84 3449.28 3033.15 3449.28 3036 3449.28 3038.85 3446.97 3041.16 3444.12 3041.16L3423.5 3041.16C3420.65 3041.16 3418.34 3038.85 3418.34 3036 3418.34 3033.15 3420.65 3030.84 3423.5 3030.84Z" fill="#00B050" fill-rule="nonzero" fill-opacity="1"/></g><g><text fill="#595959" fill-opacity="1" font-family="Calibri,Calibri_MSFontService,sans-serif" font-style="normal" font-variant="normal" font-weight="400" font-stretch="normal" font-size="41" text-anchor="start" direction="ltr" writing-mode="lr-tb" unicode-bidi="normal" text-decoration="none" transform="matrix(1 0 0 1 3469.62 3046)">Soglia ott. (≥80%)</text></g><rect x="284.5" y="1311.5" width="3901" height="1791" stroke="#D9D9D9" stroke-width="3.4375" stroke-linecap="butt" stroke-linejoin="round" stroke-miterlimit="10" stroke-opacity="1" fill="none"/></g></g></svg>