<svg width="3318" height="1764" xmlns="http://www.w3.org/2000/svg" xmlns:xlink="http://www.w3.org/1999/xlink" xml:space="preserve" overflow="hidden"><defs><clipPath id="clip0"><rect x="1315" y="843" width="3318" height="1764"/></clipPath><clipPath id="clip1"><rect x="1315" y="843" width="3318" height="1764"/></clipPath><clipPath id="clip2"><rect x="1511" y="1015" width="3071" height="1380"/></clipPath></defs><g clip-path="url(#clip0)" transform="translate(-1315 -843)"><g clip-path="url(#clip1)"><rect x="1320" y="846" width="3309" height="1757" fill="#FFFFFF" fill-opacity="1"/><g><path d="M1511.5 2254.57 4578.5 2254.57M1511.5 2116.57 4578.5 2116.57M1511.5 1979.57 4578.5 1979.57M1511.5 1841.56 4578.5 1841.56M1511.5 1703.56 4578.5 1703.56M1511.5 1566.55 4578.5 1566.55M1511.5 1428.55 4578.5 1428.55M1511.5 1290.54 4578.5 1290.54M1511.5 1153.54 4578.5 1153.54M1511.5 1015.5 4578.5 1015.5" stroke="#D9D9D9" stroke-width="3.4375" stroke-linecap="butt" stroke-linejoin="round" stroke-miterlimit="10" stroke-opacity="1" fill="none" fill-rule="nonzero"/></g><g><path d="M1585.05 2048.07 1652.05 2048.07 1652.05 2392 1585.05 2392ZM1968.06 1773.06 2035.07 1773.06 2035.07 2392 1968.06 2392ZM2352.08 1566.05 2418.08 1566.05 2418.08 2392 2352.08 2392ZM2735.09 1360.04 2802.09 1360.04 2802.09 2392 2735.09 2392ZM3118.1 1222.04 3185.1 1222.04 3185.1 2392 3118.1 2392ZM3502.11 1126.04 3569.12 1126.04 3569.12 2392 3502.11 2392ZM3885.13 1043.03 3952.13 1043.03 3952.13 2392 3885.13 2392ZM4268.14 1016 4335.14 1016 4335.14 2392 4268.14 2392Z" fill="#4F81BD" fill-rule="nonzero" fill-opacity="1"/></g><g><path d="M2437.08 2186.07 2503.08 2186.07 2503.08 2392 2437.08 2392ZM2820.09 1979.06 2887.09 1979.06 2887.09 2392 2820.09 2392ZM3203.1 1773.06 3270.11 1773.06 3270.11 2392 3203.1 2392ZM3587.12 1635.05 3654.12 1635.05 3654.12 2392 3587.12 2392ZM3970.13 1456.05 4037.13 1456.05 4037.13 2392 3970.13 2392ZM4353.14 1401.05 4420.15 1401.05 4420.15 2392 4353.14 2392Z" fill="#9BBB59" fill-rule="nonzero" fill-opacity="1"/></g><g><path d="M2905.1 2254.07 2972.1 2254.07 2972.1 2392 2905.1 2392ZM3288.11 2117.07 3355.11 2117.07 3355.11 2392 3288.11 2392ZM3672.12 1979.06 3739.12 1979.06 3739.12 2392 3672.12 2392ZM4055.13 1773.06 4122.14 1773.06 4122.14 2392 4055.13 2392ZM4438.15 1635.05 4505.15 1635.05 4505.15 2392 4438.15 2392Z" fill="#4BACC6" fill-rule="nonzero" fill-opacity="1"/></g><g><path d="M1511.5 2392.5 4578.5 2392.5" stroke="#D9D9D9" stroke-width="3.4375" stroke-linecap="butt" stroke-linejoin="round" stroke-miterlimit="10" stroke-opacity="1" fill="none" fill-rule="evenodd"/></g><g clip-path="url(#clip2)"><path d="M1703 1010.84 1723.62 1010.84C1726.47 1010.84 1728.78 1013.15 1728.78 1016 1728.78 1018.85 1726.47 1021.16 1723.62 1021.16L1703 1021.16C1700.15 1021.16 1697.84 1018.85 1697.84 1016 1697.84 1013.15 1700.15 1010.84 1703 1010.84ZM1744.25 1010.84 1764.87 1010.84C1767.72 1010.84 1770.03 1013.15 1770.03 1016 1770.03 1018.85 1767.72 1021.16 1764.87 1021.16L1744.25 1021.16C1741.4 1021.16 1739.09 1018.85 1739.09 1016 1739.09 1013.15 1741.4 1010.84 1744.25 1010.84ZM1785.5 1010.84 1806.12 1010.84C1808.97 1010.84 1811.28 1013.15 1811.28 1016 1811.28 1018.85 1808.97 1021.16 1806.12 1021.16L1785.5 1021.16C1782.65 1021.16 1780.34 1018.85 1780.34 1016 1780.34 1013.15 1782.65 1010.84 1785.5 1010.84ZM1826.75 1010.84 1847.37 1010.84C1850.22 1010.84 1852.53 1013.15 1852.53 1016 1852.53 1018.85 1850.22 1021.16 1847.37 1021.16L1826.75 1021.16C1823.9 1021.16 1821.59 1018.85 1821.59 1016 1821.59 1013.15 1823.9 1010.84 1826.75 1010.84ZM1868 1010.84 1888.62 1010.84C1891.47 1010.84 1893.78 1013.15 1893.78 1016 1893.78 1018.85 1891.47 1021.16 1888.62 1021.16L1868 1021.16C1865.15 1021.16 1862.84 1018.85 1862.84 1016 1862.84 1013.15 1865.15 1010.84 1868 1010.84ZM1909.25 1010.84 1929.87 1010.84C1932.72 1010.84 1935.03 1013.15 1935.03 1016 1935.03 1018.85 1932.72 1021.16 1929.87 1021.16L1909.25 1021.16C1906.4 1021.16 1904.09 1018.85 1904.09 1016 1904.09 1013.15 1906.4 1010.84 1909.25 1010.84ZM1950.5 1010.84 1971.12 1010.84C1973.97 1010.84 1976.28 1013.15 1976.28 1016 1976.28 1018.85 1973.97 1021.16 1971.12 1021.16L1950.5 1021.16C1947.65 1021.16 1945.34 1018.85 1945.34 1016 1945.34 1013.15 1947.65 1010.84 1950.5 1010.84ZM1991.75 1010.84 2012.37 1010.84C2015.22 1010.84 2017.53 1013.15 2017.53 1016 2017.53 1018.85 2015.22 1021.16 2012.37 1021.16L1991.75 1021.16C1988.9 1021.16 1986.59 1018.85 1986.59 1016 1986.59 1013.15 1988.9 1010.84 1991.75 1010.84ZM2033 1010.84 2053.62 1010.84C2056.47 1010.84 2058.78 1013.15 2058.78 1016 2058.78 1018.85 2056.47 1021.16 2053.62 1021.16L2033 1021.16C2030.15 1021.16 2027.84 1018.85 2027.84 1016 2027.84 1013.15 2030.15 1010.84 2033 1010.84ZM2074.25 1010.84 2087.07 1010.84 2094.87 1010.84C2097.72 1010.84 2100.03 1013.15 2100.03 1016 2100.03 1018.85 2097.72 1021.16 2094.87 1021.16L2087.07 1021.16 2074.25 1021.16C2071.4 1021.16 2069.09 1018.85 2069.09 1016 2069.09 1013.15 2071.4 1010.84 2074.25 1010.84ZM2115.5 1010.84 2136.12 1010.84C2138.97 1010.84 2141.28 1013.15 2141.28 1016 2141.28 1018.85 2138.97 1021.16 2136.12 1021.16L2115.5 1021.16C2112.65 1021.16 2110.34 1018.85 2110.34 1016 2110.34 1013.15 2112.65 1010.84 2115.5 1010.84ZM2156.75 1010.84 2177.37 1010.84C2180.22 1010.84 2182.53 1013.15 2182.53 1016 2182.53 1018.85 2180.22 1021.16 2177.37 1021.16L2156.75 1021.16C2153.9 1021.16 2151.59 1018.85 2151.59 1016 2151.59 1013.15 2153.9 1010.84 2156.75 1010.84ZM2198 1010.84 2218.62 1010.84C2221.47 1010.84 2223.78 1013.15 2223.78 1016 2223.78 1018.85 2221.47 1021.16 2218.62 1021.16L2198 1021.16C2195.15 1021.16 2192.84 1018.85 2192.84 1016 2192.84 1013.15 2195.15 1010.84 2198 1010.84ZM2239.25 1010.84 2259.87 1010.84C2262.72 1010.84 2265.03 1013.15 2265.03 1016 2265.03 1018.85 2262.72 1021.16 2259.87 1021.16L2239.25 1021.16C2236.4 1021.16 2234.09 1018.85 2234.09 1016 2234.09 1013.15 2236.4 1010.84 2239.25 1010.84ZM2280.5 1010.84 2301.12 1010.84C2303.97 1010.84 2306.28 1013.15 2306.28 1016 2306.28 1018.85 2303.97 1021.16 2301.12 1021.16L2280.5 1021.16C2277.65 1021.16 2275.34 1018.85 2275.34 1016 2275.34 1013.15 2277.65 1010.84 2280.5 1010.84ZM2321.75 1010.84 2342.37 1010.84C2345.22 1010.84 2347.53 1013.15 2347.53 1016 2347.53 1018.85 2345.22 1021.16 2342.37 1021.16L2321.75 1021.16C2318.9 1021.16 2316.59 1018.85 2316.59 1016 2316.59 1013.15 2318.9 1010.84 2321.75 1010.84ZM2363 1010.84 2383.62 1010.84C2386.47 1010.84 2388.78 1013.15 2388.78 1016 2388.78 1018.85 2386.47 1021.16 2383.62 1021.16L2363 1021.16C2360.15 1021.16 2357.84 1018.85 2357.84 1016 2357.84 1013.15 2360.15 1010.84 2363 1010.84ZM2404.25 1010.84 2424.87 1010.84C2427.72 1010.84 2430.03 1013.15 2430.03 1016 2430.03 1018.85 2427.72 1021.16 2424.87 1021.16L2404.25 1021.16C2401.4 1021.16 2399.09 1018.85 2399.09 1016 2399.09 1013.15 2401.4 1010.84 2404.25 1010.84ZM2445.5 1010.84 2466.12 1010.84C2468.97 1010.84 2471.28 1013.15 2471.28 1016 2471.28 1018.85 2468.97 1021.16 2466.12 1021.16L2445.5 1021.16C2442.65 1021.16 2440.34 1018.85 2440.34 1016 2440.34 1013.15 2442.65 1010.84 2445.5 1010.84ZM2486.75 1010.84 2507.37 1010.84C2510.22 1010.84 2512.53 1013.15 2512.53 1016 2512.53 1018.85 2510.22 1021.16 2507.37 1021.16L2486.75 1021.16C2483.9 1021.16 2481.59 1018.85 2481.59 1016 2481.59 1013.15 2483.9 1010.84 2486.75 1010.84ZM2528 1010.84 2548.62 1010.84C2551.47 1010.84 2553.78 1013.15 2553.78 1016 2553.78 1018.85 2551.47 1021.16 2548.62 1021.16L2528 1021.16C2525.15 1021.16 2522.84 1018.85 2522.84 1016 2522.84 1013.15 2525.15 1010.84 2528 1010.84ZM2569.25 1010.84 2589.87 1010.84C2592.72 1010.84 2595.03 1013.15 2595.03 1016 2595.03 1018.85 2592.72 1021.16 2589.87 1021.16L2569.25 1021.16C2566.4 1021.16 2564.09 1018.85 2564.09 1016 2564.09 1013.15 2566.4 1010.84 2569.25 1010.84ZM2610.5 1010.84 2631.12 1010.84C2633.97 1010.84 2636.28 1013.15 2636.28 1016 2636.28 1018.85 2633.97 1021.16 2631.12 1021.16L2610.5 1021.16C2607.65 1021.16 2605.34 1018.85 2605.34 1016 2605.34 1013.15 2607.65 1010.84 2610.5 1010.84ZM2651.75 1010.84 2672.37 1010.84C2675.22 1010.84 2677.53 1013.15 2677.53 1016 2677.53 1018.85 2675.22 1021.16 2672.37 1021.16L2651.75 1021.16C2648.9 1021.16 2646.59 1018.85 2646.59 1016 2646.59 1013.15 2648.9 1010.84 2651.75 1010.84ZM2693 1010.84 2713.62 1010.84C2716.47 1010.84 2718.78 1013.15 2718.78 1016 2718.78 1018.85 2716.47 1021.16 2713.62 1021.16L2693 1021.16C2690.15 1021.16 2687.84 1018.85 2687.84 1016 2687.84 1013.15 2690.15 1010.84 2693 1010.84ZM2734.25 1010.84 2754.87 1010.84C2757.72 1010.84 2760.03 1013.15 2760.03 1016 2760.03 1018.85 2757.72 1021.16 2754.87 1021.16L2734.25 1021.16C2731.4 1021.16 2729.09 1018.85 2729.09 1016 2729.09 1013.15 2731.4 1010.84 2734.25 1010.84ZM2775.5 1010.84 2796.12 1010.84C2798.97 1010.84 2801.28 1013.15 2801.28 1016 2801.28 1018.85 2798.97 1021.16 2796.12 1021.16L2775.5 1021.16C2772.65 1021.16 2770.34 1018.85 2770.34 1016 2770.34 1013.15 2772.65 1010.84 2775.5 1010.84ZM2816.75 1010.84 2837.37 1010.84C2840.22 1010.84 2842.53 1013.15 2842.53 1016 2842.53 1018.85 2840.22 1021.16 2837.37 1021.16L2816.75 1021.16C2813.9 1021.16 2811.59 1018.85 2811.59 1016 2811.59 1013.15 2813.9 1010.84 2816.75 1010.84ZM2858 1010.84 2878.62 1010.84C2881.47 1010.84 2883.78 1013.15 2883.78 1016 2883.78 1018.85 2881.47 1021.16 2878.62 1021.16L2858 1021.16C2855.15 1021.16 2852.84 1018.85 2852.84 1016 2852.84 1013.15 2855.15 1010.84 2858 1010.84ZM2899.25 1010.84 2919.87 1010.84C2922.72 1010.84 2925.03 1013.15 2925.03 1016 2925.03 1018.85 2922.72 1021.16 2919.87 1021.16L2899.25 1021.16C2896.4 1021.16 2894.09 1018.85 2894.09 1016 2894.09 1013.15 2896.4 1010.84 2899.25 1010.84ZM2940.5 1010.84 2961.12 1010.84C2963.97 1010.84 2966.28 1013.15 2966.28 1016 2966.28 1018.85 2963.97 1021.16 2961.12 1021.16L2940.5 1021.16C2937.65 1021.16 2935.34 1018.85 2935.34 1016 2935.34 1013.15 2937.65 1010.84 2940.5 1010.84ZM2981.75 1010.84 3002.37 1010.84C3005.22 1010.84 3007.53 1013.15 3007.53 1016 3007.53 1018.85 3005.22 1021.16 3002.37 1021.16L2981.75 1021.16C2978.9 1021.16 2976.59 1018.85 2976.59 1016 2976.59 1013.15 2978.9 1010.84 2981.75 1010.84ZM3023 1010.84 3043.62 1010.84C3046.47 1010.84 3048.78 1013.15 3048.78 1016 3048.78 1018.85 3046.47 1021.16 3043.62 1021.16L3023 1021.16C3020.15 1021.16 3017.84 1018.85 3017.84 1016 3017.84 1013.15 3020.15 1010.84 3023 1010.84ZM3064.25 1010.84 3084.87 1010.84C3087.72 1010.84 3090.03 1013.15 3090.03 1016 3090.03 1018.85 3087.72 1021.16 3084.87 1021.16L3064.25 1021.16C3061.4 1021.16 3059.09 1018.85 3059.09 1016 3059.09 1013.15 3061.4 1010.84 3064.25 1010.84ZM3105.5 1010.84 3126.12 1010.84C3128.97 1010.84 3131.28 1013.15 3131.28 1016 3131.28 1018.85 3128.97 1021.16 3126.12 1021.16L3105.5 1021.16C3102.65 1021.16 3100.34 1018.85 3100.34 1016 3100.34 1013.15 3102.65 1010.84 3105.5 1010.84ZM3146.75 1010.84 3167.37 1010.84C3170.22 1010.84 3172.53 1013.15 3172.53 1016 3172.53 1018.85 3170.22 1021.16 3167.37 1021.16L3146.75 1021.16C3143.9 1021.16 3141.59 1018.85 3141.59 1016 3141.59 1013.15 3143.9 1010.84 3146.75 1010.84ZM3188 1010.84 3208.62 1010.84C3211.47 1010.84 3213.78 1013.15 3213.78 1016 3213.78 1018.85 3211.47 1021.16 3208.62 1021.16L3188 1021.16C3185.15 1021.16 3182.84 1018.85 3182.84 1016 3182.84 1013.15 3185.15 1010.84 3188 1010.84ZM3229.25 1010.84 3237.11 1010.84 3249.87 1010.84C3252.72 1010.84 3255.03 1013.15 3255.03 1016 3255.03 1018.85 3252.72 1021.16 3249.87 1021.16L3237.11 1021.16 3229.25 1021.16C3226.4 1021.16 3224.09 1018.85 3224.09 1016 3224.09 1013.15 3226.4 1010.84 3229.25 1010.84ZM3270.5 1010.84 3291.12 1010.84C3293.97 1010.84 3296.28 1013.15 3296.28 1016 3296.28 1018.85 3293.97 1021.16 3291.12 1021.16L3270.5 1021.16C3267.65 1021.16 3265.34 1018.85 3265.34 1016 3265.34 1013.15 3267.65 1010.84 3270.5 1010.84ZM3311.75 1010.84 3332.37 1010.84C3335.22 1010.84 3337.53 1013.15 3337.53 1016 3337.53 1018.85 3335.22 1021.16 3332.37 1021.16L3311.75 1021.16C3308.9 1021.16 3306.59 1018.85 3306.59 1016 3306.59 1013.15 3308.9 1010.84 3311.75 1010.84ZM3353 1010.84 3373.62 1010.84C3376.47 1010.84 3378.78 1013.15 3378.78 1016 3378.78 1018.85 3376.47 1021.16 3373.62 1021.16L3353 1021.16C3350.15 1021.16 3347.84 1018.85 3347.84 1016 3347.84 1013.15 3350.15 1010.84 3353 1010.84ZM3394.25 1010.84 3414.87 1010.84C3417.72 1010.84 3420.03 1013.15 3420.03 1016 3420.03 1018.85 3417.72 1021.16 3414.87 1021.16L3394.25 1021.16C3391.4 1021.16 3389.09 1018.85 3389.09 1016 3389.09 1013.15 3391.4 1010.84 3394.25 1010.84ZM3435.5 1010.84 3456.12 1010.84C3458.97 1010.84 3461.28 1013.15 3461.28 1016 3461.28 1018.85 3458.97 1021.16 3456.12 1021.16L3435.5 1021.16C3432.65 1021.16 3430.34 1018.85 3430.34 1016 3430.34 1013.15 3432.65 1010.84 3435.5 1010.84ZM3476.75 1010.84 3497.37 1010.84C3500.22 1010.84 3502.53 1013.15 3502.53 1016 3502.53 1018.85 3500.22 1021.16 3497.37 1021.16L3476.75 1021.16C3473.9 1021.16 3471.59 1018.85 3471.59 1016 3471.59 1013.15 3473.9 1010.84 3476.75 1010.84ZM3518 1010.84 3538.62 1010.84C3541.47 1010.84 3543.78 1013.15 3543.78 1016 3543.78 1018.85 3541.47 1021.16 3538.62 1021.16L3518 1021.16C3515.15 1021.16 3512.84 1018.85 3512.84 1016 3512.84 1013.15 3515.15 1010.84 3518 1010.84ZM3559.25 1010.84 3579.87 1010.84C3582.72 1010.84 3585.03 1013.15 3585.03 1016 3585.03 1018.85 3582.72 1021.16 3579.87 1021.16L3559.25 1021.16C3556.4 1021.16 3554.09 1018.85 3554.09 1016 3554.09 1013.15 3556.4 1010.84 3559.25 1010.84ZM3600.5 1010.84 3620.12 1010.84 3621.12 1010.84C3623.97 1010.84 3626.28 1013.15 3626.28 1016 3626.28 1018.85 3623.97 1021.16 3621.12 1021.16L3620.12 1021.16 3600.5 1021.16C3597.65 1021.16 3595.34 1018.85 3595.34 1016 3595.34 1013.15 3597.65 1010.84 3600.5 1010.84ZM3641.75 1010.84 3662.37 1010.84C3665.22 1010.84 3667.53 1013.15 3667.53 1016 3667.53 1018.85 3665.22 1021.16 3662.37 1021.16L3641.75 1021.16C3638.9 1021.16 3636.59 1018.85 3636.59 1016 3636.59 1013.15 3638.9 1010.84 3641.75 1010.84ZM3683 1010.84 3703.62 1010.84C3706.47 1010.84 3708.78 1013.15 3708.78 1016 3708.78 1018.85 3706.47 1021.16 3703.62 1021.16L3683 1021.16C3680.15 1021.16 3677.84 1018.85 3677.84 1016 3677.84 1013.15 3680.15 1010.84 3683 1010.84ZM3724.25 1010.84 3744.87 1010.84C3747.72 1010.84 3750.03 1013.15 3750.03 1016 3750.03 1018.85 3747.72 1021.16 3744.87 1021.16L3724.25 1021.16C3721.4 1021.16 3719.09 1018.85 3719.09 1016 3719.09 1013.15 3721.4 1010.84 3724.25 1010.84ZM3765.5 1010.84 3786.12 1010.84C3788.97 1010.84 3791.28 1013.15 3791.28 1016 3791.28 1018.85 3788.97 1021.16 3786.12 1021.16L3765.5 1021.16C3762.65 1021.16 3760.34 1018.85 3760.34 1016 3760.34 1013.15 3762.65 1010.84 3765.5 1010.84ZM3806.75 1010.84 3827.37 1010.84C3830.22 1010.84 3832.53 1013.15 3832.53 1016 3832.53 1018.85 3830.22 1021.16 3827.37 1021.16L3806.75 1021.16C3803.9 1021.16 3801.59 1018.85 3801.59 1016 3801.59 1013.15 3803.9 1010.84 3806.75 1010.84ZM3848 1010.84 3868.62 1010.84C3871.47 1010.84 3873.78 1013.15 3873.78 1016 3873.78 1018.85 3871.47 1021.16 3868.62 1021.16L3848 1021.16C3845.15 1021.16 3842.84 1018.85 3842.84 1016 3842.84 1013.15 3845.15 1010.84 3848 1010.84ZM3889.25 1010.84 3909.87 1010.84C3912.72 1010.84 3915.03 1013.15 3915.03 1016 3915.03 1018.85 3912.72 1021.16 3909.87 1021.16L3889.25 1021.16C3886.4 1021.16 3884.09 1018.85 3884.09 1016 3884.09 1013.15 3886.4 1010.84 3889.25 1010.84ZM3930.5 1010.84 3951.12 1010.84C3953.97 1010.84 3956.28 1013.15 3956.28 1016 3956.28 1018.85 3953.97 1021.16 3951.12 1021.16L3930.5 1021.16C3927.65 1021.16 3925.34 1018.85 3925.34 1016 3925.34 1013.15 3927.65 1010.84 3930.5 1010.84ZM3971.75 1010.84 3992.37 1010.84C3995.22 1010.84 3997.53 1013.15 3997.53 1016 3997.53 1018.85 3995.22 1021.16 3992.37 1021.16L3971.75 1021.16C3968.9 1021.16 3966.59 1018.85 3966.59 1016 3966.59 1013.15 3968.9 1010.84 3971.75 1010.84ZM4013 1010.84 4033.62 1010.84C4036.47 1010.84 4038.78 1013.15 4038.78 1016 4038.78 1018.85 4036.47 1021.16 4033.62 1021.16L4013 1021.16C4010.15 1021.16 4007.84 1018.85 4007.84 1016 4007.84 1013.15 4010.15 1010.84 4013 1010.84ZM4054.25 1010.84 4074.87 1010.84C4077.72 1010.84 4080.03 1013.15 4080.03 1016 4080.03 1018.85 4077.72 1021.16 4074.87 1021.16L4054.25 1021.16C4051.4 1021.16 4049.09 1018.85 4049.09 1016 4049.09 1013.15 4051.4 1010.84 4054.25 1010.84ZM4095.5 1010.84 4116.12 1010.84C4118.97 1010.84 4121.28 1013.15 4121.28 1016 4121.28 1018.85 4118.97 1021.16 4116.12 1021.16L4095.5 1021.16C4092.65 1021.16 4090.34 1018.85 4090.34 1016 4090.34 1013.15 4092.65 1010.84 4095.5 1010.84ZM4136.75 1010.84 4157.38 1010.84C4160.22 1010.84 4162.53 1013.15 4162.53 1016 4162.53 1018.85 4160.22 1021.16 4157.38 1021.16L4136.75 1021.16C4133.9 1021.16 4131.59 1018.85 4131.59 1016 4131.59 1013.15 4133.9 1010.84 4136.75 1010.84ZM4178 1010.84 4198.62 1010.84C4201.47 1010.84 4203.78 1013.15 4203.78 1016 4203.78 1018.85 4201.47 1021.16 4198.62 1021.16L4178 1021.16C4175.15 1021.16 4172.84 1018.85 4172.84 1016 4172.84 1013.15 4175.15 1010.84 4178 1010.84ZM4219.25 1010.84 4239.88 1010.84C4242.72 1010.84 4245.03 1013.15 4245.03 1016 4245.03 1018.85 4242.72 1021.16 4239.88 1021.16L4219.25 1021.16C4216.4 1021.16 4214.09 1018.85 4214.09 1016 4214.09 1013.15 4216.4 1010.84 4219.25 1010.84ZM4260.5 1010.84 4281.12 1010.84C4283.97 1010.84 4286.28 1013.15 4286.28 1016 4286.28 1018.85 4283.97 1021.16 4281.12 1021.16L4260.5 1021.16C4257.65 1021.16 4255.34 1018.85 4255.34 1016 4255.34 1013.15 4257.65 1010.84 4260.5 1010.84ZM4301.75 1010.84 4322.38 1010.84C4325.22 1010.84 4327.53 1013.15 4327.53 1016 4327.53 1018.85 4325.22 1021.16 4322.38 1021.16L4301.75 1021.16C4298.9 1021.16 4296.59 1018.85 4296.59 1016 4296.59 1013.15 4298.9 1010.84 4301.75 1010.84ZM4343 1010.84 4363.62 1010.84C4366.47 1010.84 4368.78 1013.15 4368.78 1016 4368.78 1018.85 4366.47 1021.16 4363.62 1021.16L4343 1021.16C4340.15 1021.16 4337.84 1018.85 4337.84 1016 4337.84 1013.15 4340.15 1010.84 4343 1010.84ZM4384.25 1010.84 4387 1010.84C4389.85 1010.84 4392.16 1013.15 4392.16 1016 4392.16 1018.85 4389.85 1021.16 4387 1021.16L4384.25 1021.16C4381.4 1021.16 4379.09 1018.85 4379.09 1016 4379.09 1013.15 4381.4 1010.84 4384.25 1010.84Z" fill="#0070C0" fill-rule="nonzero" fill-opacity="1"/></g><g><path d="M1703 1423.84 1723.62 1423.84C1726.47 1423.84 1728.78 1426.15 1728.78 1429 1728.78 1431.85 1726.47 1434.16 1723.62 1434.16L1703 1434.16C1700.15 1434.16 1697.84 1431.85 1697.84 1429 1697.84 1426.15 1700.15 1423.84 1703 1423.84ZM1744.25 1423.84 1764.87 1423.84C1767.72 1423.84 1770.03 1426.15 1770.03 1429 1770.03 1431.85 1767.72 1434.16 1764.87 1434.16L1744.25 1434.16C1741.4 1434.16 1739.09 1431.85 1739.09 1429 1739.09 1426.15 1741.4 1423.84 1744.25 1423.84ZM1785.5 1423.84 1806.12 1423.84C1808.97 1423.84 1811.28 1426.15 1811.28 1429 1811.28 1431.85 1808.97 1434.16 1806.12 1434.16L1785.5 1434.16C1782.65 1434.16 1780.34 1431.85 1780.34 1429 1780.34 1426.15 1782.65 1423.84 1785.5 1423.84ZM1826.75 1423.84 1847.37 1423.84C1850.22 1423.84 1852.53 1426.15 1852.53 1429 1852.53 1431.85 1850.22 1434.16 1847.37 1434.16L1826.75 1434.16C1823.9 1434.16 1821.59 1431.85 1821.59 1429 1821.59 1426.15 1823.9 1423.84 1826.75 1423.84ZM1868 1423.84 1888.62 1423.84C1891.47 1423.84 1893.78 1426.15 1893.78 1429 1893.78 1431.85 1891.47 1434.16 1888.62 1434.16L1868 1434.16C1865.15 1434.16 1862.84 1431.85 1862.84 1429 1862.84 1426.15 1865.15 1423.84 1868 1423.84ZM1909.25 1423.84 1929.87 1423.84C1932.72 1423.84 1935.03 1426.15 1935.03 1429 1935.03 1431.85 1932.72 1434.16 1929.87 1434.16L1909.25 1434.16C1906.4 1434.16 1904.09 1431.85 1904.09 1429 1904.09 1426.15 1906.4 1423.84 1909.25 1423.84ZM1950.5 1423.84 1971.12 1423.84C1973.97 1423.84 1976.28 1426.15 1976.28 1429 1976.28 1431.85 1973.97 1434.16 1971.12 1434.16L1950.5 1434.16C1947.65 1434.16 1945.34 1431.85 1945.34 1429 1945.34 1426.15 1947.65 1423.84 1950.5 1423.84ZM1991.75 1423.84 2012.37 1423.84C2015.22 1423.84 2017.53 1426.15 2017.53 1429 2017.53 1431.85 2015.22 1434.16 2012.37 1434.16L1991.75 1434.16C1988.9 1434.16 1986.59 1431.85 1986.59 1429 1986.59 1426.15 1988.9 1423.84 1991.75 1423.84ZM2033 1423.84 2053.62 1423.84C2056.47 1423.84 2058.78 1426.15 2058.78 1429 2058.78 1431.85 2056.47 1434.16 2053.62 1434.16L2033 1434.16C2030.15 1434.16 2027.84 1431.85 2027.84 1429 2027.84 1426.15 2030.15 1423.84 2033 1423.84ZM2074.25 1423.84 2087.07 1423.84 2094.87 1423.84C2097.72 1423.84 2100.03 1426.15 2100.03 1429 2100.03 1431.85 2097.72 1434.16 2094.87 1434.16L2087.07 1434.16 2074.25 1434.16C2071.4 1434.16 2069.09 1431.85 2069.09 1429 2069.09 1426.15 2071.4 1423.84 2074.25 1423.84ZM2115.5 1423.84 2136.12 1423.84C2138.97 1423.84 2141.28 1426.15 2141.28 1429 2141.28 1431.85 2138.97 1434.16 2136.12 1434.16L2115.5 1434.16C2112.65 1434.16 2110.34 1431.85 2110.34 1429 2110.34 1426.15 2112.65 1423.84 2115.5 1423.84ZM2156.75 1423.84 2177.37 1423.84C2180.22 1423.84 2182.53 1426.15 2182.53 1429 2182.53 1431.85 2180.22 1434.16 2177.37 1434.16L2156.75 1434.16C2153.9 1434.16 2151.59 1431.85 2151.59 1429 2151.59 1426.15 2153.9 1423.84 2156.75 1423.84ZM2198 1423.84 2218.62 1423.84C2221.47 1423.84 2223.78 1426.15 2223.78 1429 2223.78 1431.85 2221.47 1434.16 2218.62 1434.16L2198 1434.16C2195.15 1434.16 2192.84 1431.85 2192.84 1429 2192.84 1426.15 2195.15 1423.84 2198 1423.84ZM2239.25 1423.84 2259.87 1423.84C2262.72 1423.84 2265.03 1426.15 2265.03 1429 2265.03 1431.85 2262.72 1434.16 2259.87 1434.16L2239.25 1434.16C2236.4 1434.16 2234.09 1431.85 2234.09 1429 2234.09 1426.15 2236.4 1423.84 2239.25 1423.84ZM2280.5 1423.84 2301.12 1423.84C2303.97 1423.84 2306.28 1426.15 2306.28 1429 2306.28 1431.85 2303.97 1434.16 2301.12 1434.16L2280.5 1434.16C2277.65 1434.16 2275.34 1431.85 2275.34 1429 2275.34 1426.15 2277.65 1423.84 2280.5 1423.84ZM2321.75 1423.84 2342.37 1423.84C2345.22 1423.84 2347.53 1426.15 2347.53 1429 2347.53 1431.85 2345.22 1434.16 2342.37 1434.16L2321.75 1434.16C2318.9 1434.16 2316.59 1431.85 2316.59 1429 2316.59 1426.15 2318.9 1423.84 2321.75 1423.84ZM2363 1423.84 2383.62 1423.84C2386.47 1423.84 2388.78 1426.15 2388.78 1429 2388.78 1431.85 2386.47 1434.16 2383.62 1434.16L2363 1434.16C2360.15 1434.16 2357.84 1431.85 2357.84 1429 2357.84 1426.15 2360.15 1423.84 2363 1423.84ZM2404.25 1423.84 2424.87 1423.84C2427.72 1423.84 2430.03 1426.15 2430.03 1429 2430.03 1431.85 2427.72 1434.16 2424.87 1434.16L2404.25 1434.16C2401.4 1434.16 2399.09 1431.85 2399.09 1429 2399.09 1426.15 2401.4 1423.84 2404.25 1423.84ZM2445.5 1423.84 2466.12 1423.84C2468.97 1423.84 2471.28 1426.15 2471.28 1429 2471.28 1431.85 2468.97 1434.16 2466.12 1434.16L2445.5 1434.16C2442.65 1434.16 2440.34 1431.85 2440.34 1429 2440.34 1426.15 2442.65 1423.84 2445.5 1423.84ZM2486.75 1423.84 2507.37 1423.84C2510.22 1423.84 2512.53 1426.15 2512.53 1429 2512.53 1431.85 2510.22 1434.16 2507.37 1434.16L2486.75 1434.16C2483.9 1434.16 2481.59 1431.85 2481.59 1429 2481.59 1426.15 2483.9 1423.84 2486.75 1423.84ZM2528 1423.84 2548.62 1423.84C2551.47 1423.84 2553.78 1426.15 2553.78 1429 2553.78 1431.85 2551.47 1434.16 2548.62 1434.16L2528 1434.16C2525.15 1434.16 2522.84 1431.85 2522.84 1429 2522.84 1426.15 2525.15 1423.84 2528 1423.84ZM2569.25 1423.84 2589.87 1423.84C2592.72 1423.84 2595.03 1426.15 2595.03 1429 2595.03 1431.85 2592.72 1434.16 2589.87 1434.16L2569.25 1434.16C2566.4 1434.16 2564.09 1431.85 2564.09 1429 2564.09 1426.15 2566.4 1423.84 2569.25 1423.84ZM2610.5 1423.84 2631.12 1423.84C2633.97 1423.84 2636.28 1426.15 2636.28 1429 2636.28 1431.85 2633.97 1434.16 2631.12 1434.16L2610.5 1434.16C2607.65 1434.16 2605.34 1431.85 2605.34 1429 2605.34 1426.15 2607.65 1423.84 2610.5 1423.84ZM2651.75 1423.84 2672.37 1423.84C2675.22 1423.84 2677.53 1426.15 2677.53 1429 2677.53 1431.85 2675.22 1434.16 2672.37 1434.16L2651.75 1434.16C2648.9 1434.16 2646.59 1431.85 2646.59 1429 2646.59 1426.15 2648.9 1423.84 2651.75 1423.84ZM2693 1423.84 2713.62 1423.84C2716.47 1423.84 2718.78 1426.15 2718.78 1429 2718.78 1431.85 2716.47 1434.16 2713.62 1434.16L2693 1434.16C2690.15 1434.16 2687.84 1431.85 2687.84 1429 2687.84 1426.15 2690.15 1423.84 2693 1423.84ZM2734.25 1423.84 2754.87 1423.84C2757.72 1423.84 2760.03 1426.15 2760.03 1429 2760.03 1431.85 2757.72 1434.16 2754.87 1434.16L2734.25 1434.16C2731.4 1434.16 2729.09 1431.85 2729.09 1429 2729.09 1426.15 2731.4 1423.84 2734.25 1423.84ZM2775.5 1423.84 2796.12 1423.84C2798.97 1423.84 2801.28 1426.15 2801.28 1429 2801.28 1431.85 2798.97 1434.16 2796.12 1434.16L2775.5 1434.16C2772.65 1434.16 2770.34 1431.85 2770.34 1429 2770.34 1426.15 2772.65 1423.84 2775.5 1423.84ZM2816.75 1423.84 2837.37 1423.84C2840.22 1423.84 2842.53 1426.15 2842.53 1429 2842.53 1431.85 2840.22 1434.16 2837.37 1434.16L2816.75 1434.16C2813.9 1434.16 2811.59 1431.85 2811.59 1429 2811.59 1426.15 2813.9 1423.84 2816.75 1423.84ZM2858 1423.84 2878.62 1423.84C2881.47 1423.84 2883.78 1426.15 2883.78 1429 2883.78 1431.85 2881.47 1434.16 2878.62 1434.16L2858 1434.16C2855.15 1434.16 2852.84 1431.85 2852.84 1429 2852.84 1426.15 2855.15 1423.84 2858 1423.84ZM2899.25 1423.84 2919.87 1423.84C2922.72 1423.84 2925.03 1426.15 2925.03 1429 2925.03 1431.85 2922.72 1434.16 2919.87 1434.16L2899.25 1434.16C2896.4 1434.16 2894.09 1431.85 2894.09 1429 2894.09 1426.15 2896.4 1423.84 2899.25 1423.84ZM2940.5 1423.84 2961.12 1423.84C2963.97 1423.84 2966.28 1426.15 2966.28 1429 2966.28 1431.85 2963.97 1434.16 2961.12 1434.16L2940.5 1434.16C2937.65 1434.16 2935.34 1431.85 2935.34 1429 2935.34 1426.15 2937.65 1423.84 2940.5 1423.84ZM2981.75 1423.84 3002.37 1423.84C3005.22 1423.84 3007.53 1426.15 3007.53 1429 3007.53 1431.85 3005.22 1434.16 3002.37 1434.16L2981.75 1434.16C2978.9 1434.16 2976.59 1431.85 2976.59 1429 2976.59 1426.15 2978.9 1423.84 2981.75 1423.84ZM3023 1423.84 3043.62 1423.84C3046.47 1423.84 3048.78 1426.15 3048.78 1429 3048.78 1431.85 3046.47 1434.16 3043.62 1434.16L3023 1434.16C3020.15 1434.16 3017.84 1431.85 3017.84 1429 3017.84 1426.15 3020.15 1423.84 3023 1423.84ZM3064.25 1423.84 3084.87 1423.84C3087.72 1423.84 3090.03 1426.15 3090.03 1429 3090.03 1431.85 3087.72 1434.16 3084.87 1434.16L3064.25 1434.16C3061.4 1434.16 3059.09 1431.85 3059.09 1429 3059.09 1426.15 3061.4 1423.84 3064.25 1423.84ZM3105.5 1423.84 3126.12 1423.84C3128.97 1423.84 3131.28 1426.15 3131.28 1429 3131.28 1431.85 3128.97 1434.16 3126.12 1434.16L3105.5 1434.16C3102.65 1434.16 3100.34 1431.85 3100.34 1429 3100.34 1426.15 3102.65 1423.84 3105.5 1423.84ZM3146.75 1423.84 3167.37 1423.84C3170.22 1423.84 3172.53 1426.15 3172.53 1429 3172.53 1431.85 3170.22 1434.16 3167.37 1434.16L3146.75 1434.16C3143.9 1434.16 3141.59 1431.85 3141.59 1429 3141.59 1426.15 3143.9 1423.84 3146.75 1423.84ZM3188 1423.84 3208.62 1423.84C3211.47 1423.84 3213.78 1426.15 3213.78 1429 3213.78 1431.85 3211.47 1434.16 3208.62 1434.16L3188 1434.16C3185.15 1434.16 3182.84 1431.85 3182.84 1429 3182.84 1426.15 3185.15 1423.84 3188 1423.84ZM3229.25 1423.84 3237.11 1423.84 3249.87 1423.84C3252.72 1423.84 3255.03 1426.15 3255.03 1429 3255.03 1431.85 3252.72 1434.16 3249.87 1434.16L3237.11 1434.16 3229.25 1434.16C3226.4 1434.16 3224.09 1431.85 3224.09 1429 3224.09 1426.15 3226.4 1423.84 3229.25 1423.84ZM3270.5 1423.84 3291.12 1423.84C3293.97 1423.84 3296.28 1426.15 3296.28 1429 3296.28 1431.85 3293.97 1434.16 3291.12 1434.16L3270.5 1434.16C3267.65 1434.16 3265.34 1431.85 3265.34 1429 3265.34 1426.15 3267.65 1423.84 3270.5 1423.84ZM3311.75 1423.84 3332.37 1423.84C3335.22 1423.84 3337.53 1426.15 3337.53 1429 3337.53 1431.85 3335.22 1434.16 3332.37 1434.16L3311.75 1434.16C3308.9 1434.16 3306.59 1431.85 3306.59 1429 3306.59 1426.15 3308.9 1423.84 3311.75 1423.84ZM3353 1423.84 3373.62 1423.84C3376.47 1423.84 3378.78 1426.15 3378.78 1429 3378.78 1431.85 3376.47 1434.16 3373.62 1434.16L3353 1434.16C3350.15 1434.16 3347.84 1431.85 3347.84 1429 3347.84 1426.15 3350.15 1423.84 3353 1423.84ZM3394.25 1423.84 3414.87 1423.84C3417.72 1423.84 3420.03 1426.15 3420.03 1429 3420.03 1431.85 3417.72 1434.16 3414.87 1434.16L3394.25 1434.16C3391.4 1434.16 3389.09 1431.85 3389.09 1429 3389.09 1426.15 3391.4 1423.84 3394.25 1423.84ZM3435.5 1423.84 3456.12 1423.84C3458.97 1423.84 3461.28 1426.15 3461.28 1429 3461.28 1431.85 3458.97 1434.16 3456.12 1434.16L3435.5 1434.16C3432.65 1434.16 3430.34 1431.85 3430.34 1429 3430.34 1426.15 3432.65 1423.84 3435.5 1423.84ZM3476.75 1423.84 3497.37 1423.84C3500.22 1423.84 3502.53 1426.15 3502.53 1429 3502.53 1431.85 3500.22 1434.16 3497.37 1434.16L3476.75 1434.16C3473.9 1434.16 3471.59 1431.85 3471.59 1429 3471.59 1426.15 3473.9 1423.84 3476.75 1423.84ZM3518 1423.84 3538.62 1423.84C3541.47 1423.84 3543.78 1426.15 3543.78 1429 3543.78 1431.85 3541.47 1434.16 3538.62 1434.16L3518 1434.16C3515.15 1434.16 3512.84 1431.85 3512.84 1429 3512.84 1426.15 3515.15 1423.84 3518 1423.84ZM3559.25 1423.84 3579.87 1423.84C3582.72 1423.84 3585.03 1426.15 3585.03 1429 3585.03 1431.85 3582.72 1434.16 3579.87 1434.16L3559.25 1434.16C3556.4 1434.16 3554.09 1431.85 3554.09 1429 3554.09 1426.15 3556.4 1423.84 3559.25 1423.84ZM3600.5 1423.84 3620.12 1423.84 3621.12 1423.84C3623.97 1423.84 3626.28 1426.15 3626.28 1429 3626.28 1431.85 3623.97 1434.16 3621.12 1434.16L3620.12 1434.16 3600.5 1434.16C3597.65 1434.16 3595.34 1431.85 3595.34 1429 3595.34 1426.15 3597.65 1423.84 3600.5 1423.84ZM3641.75 1423.84 3662.37 1423.84C3665.22 1423.84 3667.53 1426.15 3667.53 1429 3667.53 1431.85 3665.22 1434.16 3662.37 1434.16L3641.75 1434.16C3638.9 1434.16 3636.59 1431.85 3636.59 1429 3636.59 1426.15 3638.9 1423.84 3641.75 1423.84ZM3683 1423.84 3703.62 1423.84C3706.47 1423.84 3708.78 1426.15 3708.78 1429 3708.78 1431.85 3706.47 1434.16 3703.62 1434.16L3683 1434.16C3680.15 1434.16 3677.84 1431.85 3677.84 1429 3677.84 1426.15 3680.15 1423.84 3683 1423.84ZM3724.25 1423.84 3744.87 1423.84C3747.72 1423.84 3750.03 1426.15 3750.03 1429 3750.03 1431.85 3747.72 1434.16 3744.87 1434.16L3724.25 1434.16C3721.4 1434.16 3719.09 1431.85 3719.09 1429 3719.09 1426.15 3721.4 1423.84 3724.25 1423.84ZM3765.5 1423.84 3786.12 1423.84C3788.97 1423.84 3791.28 1426.15 3791.28 1429 3791.28 1431.85 3788.97 1434.16 3786.12 1434.16L3765.5 1434.16C3762.65 1434.16 3760.34 1431.85 3760.34 1429 3760.34 1426.15 3762.65 1423.84 3765.5 1423.84ZM3806.75 1423.84 3827.37 1423.84C3830.22 1423.84 3832.53 1426.15 3832.53 1429 3832.53 1431.85 3830.22 1434.16 3827.37 1434.16L3806.75 1434.16C3803.9 1434.16 3801.59 1431.85 3801.59 1429 3801.59 1426.15 3803.9 1423.84 3806.75 1423.84ZM3848 1423.84 3868.62 1423.84C3871.47 1423.84 3873.78 1426.15 3873.78 1429 3873.78 1431.85 3871.47 1434.16 3868.62 1434.16L3848 1434.16C3845.15 1434.16 3842.84 1431.85 3842.84 1429 3842.84 1426.15 3845.15 1423.84 3848 1423.84ZM3889.25 1423.84 3909.87 1423.84C3912.72 1423.84 3915.03 1426.15 3915.03 1429 3915.03 1431.85 3912.72 1434.16 3909.87 1434.16L3889.25 1434.16C3886.4 1434.16 3884.09 1431.85 3884.09 1429 3884.09 1426.15 3886.4 1423.84 3889.25 1423.84ZM3930.5 1423.84 3951.12 1423.84C3953.97 1423.84 3956.28 1426.15 3956.28 1429 3956.28 1431.85 3953.97 1434.16 3951.12 1434.16L3930.5 1434.16C3927.65 1434.16 3925.34 1431.85 3925.34 1429 3925.34 1426.15 3927.65 1423.84 3930.5 1423.84ZM3971.75 1423.84 3992.37 1423.84C3995.22 1423.84 3997.53 1426.15 3997.53 1429 3997.53 1431.85 3995.22 1434.16 3992.37 1434.16L3971.75 1434.16C3968.9 1434.16 3966.59 1431.85 3966.59 1429 3966.59 1426.15 3968.9 1423.84 3971.75 1423.84ZM4013 1423.84 4033.62 1423.84C4036.47 1423.84 4038.78 1426.15 4038.78 1429 4038.78 1431.85 4036.47 1434.16 4033.62 1434.16L4013 1434.16C4010.15 1434.16 4007.84 1431.85 4007.84 1429 4007.84 1426.15 4010.15 1423.84 4013 1423.84ZM4054.25 1423.84 4074.87 1423.84C4077.72 1423.84 4080.03 1426.15 4080.03 1429 4080.03 1431.85 4077.72 1434.16 4074.87 1434.16L4054.25 1434.16C4051.4 1434.16 4049.09 1431.85 4049.09 1429 4049.09 1426.15 4051.4 1423.84 4054.25 1423.84ZM4095.5 1423.84 4116.12 1423.84C4118.97 1423.84 4121.28 1426.15 4121.28 1429 4121.28 1431.85 4118.97 1434.16 4116.12 1434.16L4095.5 1434.16C4092.65 1434.16 4090.34 1431.85 4090.34 1429 4090.34 1426.15 4092.65 1423.84 4095.5 1423.84ZM4136.75 1423.84 4157.38 1423.84C4160.22 1423.84 4162.53 1426.15 4162.53 1429 4162.53 1431.85 4160.22 1434.16 4157.38 1434.16L4136.75 1434.16C4133.9 1434.16 4131.59 1431.85 4131.59 1429 4131.59 1426.15 4133.9 1423.84 4136.75 1423.84ZM4178 1423.84 4198.62 1423.84C4201.47 1423.84 4203.78 1426.15 4203.78 1429 4203.78 1431.85 4201.47 1434.16 4198.62 1434.16L4178 1434.16C4175.15 1434.16 4172.84 1431.85 4172.84 1429 4172.84 1426.15 4175.15 1423.84 4178 1423.84ZM4219.25 1423.84 4239.88 1423.84C4242.72 1423.84 4245.03 1426.15 4245.03 1429 4245.03 1431.85 4242.72 1434.16 4239.88 1434.16L4219.25 1434.16C4216.4 1434.16 4214.09 1431.85 4214.09 1429 4214.09 1426.15 4216.4 1423.84 4219.25 1423.84ZM4260.5 1423.84 4281.12 1423.84C4283.97 1423.84 4286.28 1426.15 4286.28 1429 4286.28 1431.85 4283.97 1434.16 4281.12 1434.16L4260.5 1434.16C4257.65 1434.16 4255.34 1431.85 4255.34 1429 4255.34 1426.15 4257.65 1423.84 4260.5 1423.84ZM4301.75 1423.84 4322.38 1423.84C4325.22 1423.84 4327.53 1426.15 4327.53 1429 4327.53 1431.85 4325.22 1434.16 4322.38 1434.16L4301.75 1434.16C4298.9 1434.16 4296.59 1431.85 4296.59 1429 4296.59 1426.15 4298.9 1423.84 4301.75 1423.84ZM4343 1423.84 4363.62 1423.84C4366.47 1423.84 4368.78 1426.15 4368.78 1429 4368.78 1431.85 4366.47 1434.16 4363.62 1434.16L4343 1434.16C4340.15 1434.16 4337.84 1431.85 4337.84 1429 4337.84 1426.15 4340.15 1423.84 4343 1423.84ZM4384.25 1423.84 4387 1423.84C4389.85 1423.84 4392.16 1426.15 4392.16 1429 4392.16 1431.85 4389.85 1434.16 4387 1434.16L4384.25 1434.16C4381.4 1434.16 4379.09 1431.85 4379.09 1429 4379.09 1426.15 4381.4 1423.84 4384.25 1423.84Z" fill="#00B050" fill-rule="nonzero" fill-opacity="1"/></g><g><text fill="#595959" fill-opacity="1" font-family="Calibri,Calibri_MSFontService,sans-serif" font-style="normal" font-variant="normal" font-weight="400" font-stretch="normal" font-size="41" text-anchor="start" direction="ltr" writing-mode="lr-tb" unicode-bidi="normal" text-decoration="none" transform="matrix(1 0 0 1 1391.59 2403)">0.0%</text></g><g><text fill="#595959" fill-opacity="1" font-family="Calibri,Calibri_MSFontService,sans-serif" font-style="normal" font-variant="normal" font-weight="400" font-stretch="normal" font-size="41" text-anchor="start" direction="ltr" writing-mode="lr-tb" unicode-bidi="normal" text-decoration="none" transform="matrix(1 0 0 1 1370.69 2265)">10.0%</text></g><g><text fill="#595959" fill-opacity="1" font-family="Calibri,Calibri_MSFontService,sans-serif" font-style="normal" font-variant="normal" font-weight="400" font-stretch="normal" font-size="41" text-anchor="start" direction="ltr" writing-mode="lr-tb" unicode-bidi="normal" text-decoration="none" transform="matrix(1 0 0 1 1370.69 2127)">20.0%</text></g><g><text fill="#595959" fill-opacity="1" font-family="Calibri,Calibri_MSFontService,sans-serif" font-style="normal" font-variant="normal" font-weight="400" font-stretch="normal" font-size="41" text-anchor="start" direction="ltr" writing-mode="lr-tb" unicode-bidi="normal" text-decoration="none" transform="matrix(1 0 0 1 1370.69 1990)">30.0%</text></g><g><text fill="#595959" fill-opacity="1" font-family="Calibri,Calibri_MSFontService,sans-serif" font-style="normal" font-variant="normal" font-weight="400" font-stretch="normal" font-size="41" text-anchor="start" direction="ltr" writing-mode="lr-tb" unicode-bidi="normal" text-decoration="none" transform="matrix(1 0 0 1 1370.69 1852)">40.0%</text></g><g><text fill="#595959" fill-opacity="1" font-family="Calibri,Calibri_MSFontService,sans-serif" font-style="normal" font-variant="normal" font-weight="400" font-stretch="normal" font-size="41" text-anchor="start" direction="ltr" writing-mode="lr-tb" unicode-bidi="normal" text-decoration="none" transform="matrix(1 0 0 1 1370.69 1714)">50.0%</text></g><g><text fill="#595959" fill-opacity="1" font-family="Calibri,Calibri_MSFontService,sans-serif" font-style="normal" font-variant="normal" font-weight="400" font-stretch="normal" font-size="41" text-anchor="start" direction="ltr" writing-mode="lr-tb" unicode-bidi="normal" text-decoration="none" transform="matrix(1 0 0 1 1370.69 1577)">60.0%</text></g><g><text fill="#595959" fill-opacity="1" font-family="Calibri,Calibri_MSFontService,sans-serif" font-style="normal" font-variant="normal" font-weight="400" font-stretch="normal" font-size="41" text-anchor="start" direction="ltr" writing-mode="lr-tb" unicode-bidi="normal" text-decoration="none" transform="matrix(1 0 0 1 1370.69 1439)">70.0%</text></g><g><text fill="#595959" fill-opacity="1" font-family="Calibri,Calibri_MSFontService,sans-serif" font-style="normal" font-variant="normal" font-weight="400" font-stretch="normal" font-size="41" text-anchor="start" direction="ltr" writing-mode="lr-tb" unicode-bidi="normal" text-decoration="none" transform="matrix(1 0 0 1 1370.69 1301)">80.0%</text></g><g><text fill="#595959" fill-opacity="1" font-family="Calibri,Calibri_MSFontService,sans-serif" font-style="normal" font-variant="normal" font-weight="400" font-stretch="normal" font-size="41" text-anchor="start" direction="ltr" writing-mode="lr-tb" unicode-bidi="normal" text-decoration="none" transform="matrix(1 0 0 1 1370.69 1164)">90.0%</text></g><g><text fill="#595959" fill-opacity="1" font-family="Calibri,Calibri_MSFontService,sans-serif" font-style="normal" font-variant="normal" font-weight="400" font-stretch="normal" font-size="41" text-anchor="start" direction="ltr" writing-mode="lr-tb" unicode-bidi="normal" text-decoration="none" transform="matrix(1 0 0 1 1349.79 1026)">100.0%</text></g><g><text fill="#595959" fill-opacity="1" font-family="Calibri,Calibri_MSFontService,sans-serif" font-style="normal" font-variant="normal" font-weight="400" font-stretch="normal" font-size="41" text-anchor="start" direction="ltr" writing-mode="lr-tb" unicode-bidi="normal" text-decoration="none" transform="matrix(1 0 0 1 1627.68 2457)">Sprint 10</text></g><g><text fill="#595959" fill-opacity="1" font-family="Calibri,Calibri_MSFontService,sans-serif" font-style="normal" font-variant="normal" font-weight="400" font-stretch="normal" font-size="41" text-anchor="start" direction="ltr" writing-mode="lr-tb" unicode-bidi="normal" text-decoration="none" transform="matrix(1 0 0 1 2011.08 2457)">Sprint 11</text></g><g><text fill="#595959" fill-opacity="1" font-family="Calibri,Calibri_MSFontService,sans-serif" font-style="normal" font-variant="normal" font-weight="400" font-stretch="normal" font-size="41" text-anchor="start" direction="ltr" writing-mode="lr-tb" unicode-bidi="normal" text-decoration="none" transform="matrix(1 0 0 1 2394.48 2457)">Sprint 12</text></g><g><text fill="#595959" fill-opacity="1" font-family="Calibri,Calibri_MSFontService,sans-serif" font-style="normal" font-variant="normal" font-weight="400" font-stretch="normal" font-size="41" text-anchor="start" direction="ltr" writing-mode="lr-tb" unicode-bidi="normal" text-decoration="none" transform="matrix(1 0 0 1 2777.89 2457)">Sprint 13</text></g><g><text fill="#595959" fill-opacity="1" font-family="Calibri,Calibri_MSFontService,sans-serif" font-style="normal" font-variant="normal" font-weight="400" font-stretch="normal" font-size="41" text-anchor="start" direction="ltr" writing-mode="lr-tb" unicode-bidi="normal" text-decoration="none" transform="matrix(1 0 0 1 3161.29 2457)">Sprint 14</text></g><g><text fill="#595959" fill-opacity="1" font-family="Calibri,Calibri_MSFontService,sans-serif" font-style="normal" font-variant="normal" font-weight="400" font-stretch="normal" font-size="41" text-anchor="start" direction="ltr" writing-mode="lr-tb" unicode-bidi="normal" text-decoration="none" transform="matrix(1 0 0 1 3544.69 2457)">Sprint 15</text></g><g><text fill="#595959" fill-opacity="1" font-family="Calibri,Calibri_MSFontService,sans-serif" font-style="normal" font-variant="normal" font-weight="400" font-stretch="normal" font-size="41" text-anchor="start" direction="ltr" writing-mode="lr-tb" unicode-bidi="normal" text-decoration="none" transform="matrix(1 0 0 1 3928.09 2457)">Sprint 16</text></g><g><text fill="#595959" fill-opacity="1" font-family="Calibri,Calibri_MSFontService,sans-serif" font-style="normal" font-variant="normal" font-weight="400" font-stretch="normal" font-size="41" text-anchor="start" direction="ltr" writing-mode="lr-tb" unicode-bidi="normal" text-decoration="none" transform="matrix(1 0 0 1 4311.49 2457)">Sprint 17</text></g><g><text fill="#595959" fill-opacity="1" font-family="Calibri,Calibri_MSFontService,sans-serif" font-style="normal" font-variant="normal" font-weight="400" font-stretch="normal" font-size="64" text-anchor="start" direction="ltr" writing-mode="lr-tb" unicode-bidi="normal" text-decoration="none" transform="matrix(1 0 0 1 2729.97 941)">Copertura requisiti</text></g><g><rect x="2117" y="2526" width="116" height="22" fill="#4F81BD" fill-opacity="1"/></g><g><text fill="#595959" fill-opacity="1" font-family="Calibri,Calibri_MSFontService,sans-serif" font-style="normal" font-variant="normal" font-weight="400" font-stretch="normal" font-size="41" text-anchor="start" direction="ltr" writing-mode="lr-tb" unicode-bidi="normal" text-decoration="none" transform="matrix(1 0 0 1 2245.37 2548)">R obb.</text></g><g><rect x="2420" y="2526" width="116" height="22" fill="#9BBB59" fill-opacity="1"/></g><g><text fill="#595959" fill-opacity="1" font-family="Calibri,Calibri_MSFontService,sans-serif" font-style="normal" font-variant="normal" font-weight="400" font-stretch="normal" font-size="41" text-anchor="start" direction="ltr" writing-mode="lr-tb" unicode-bidi="normal" text-decoration="none" transform="matrix(1 0 0 1 2548.46 2548)">R des.</text></g><g><rect x="2717" y="2526" width="115" height="22" fill="#4BACC6" fill-opacity="1"/></g><g><text fill="#595959" fill-opacity="1" font-family="Calibri,Calibri_MSFontService,sans-serif" font-style="normal" font-variant="normal" font-weight="400" font-stretch="normal" font-size="41" text-anchor="start" direction="ltr" writing-mode="lr-tb" unicode-bidi="normal" text-decoration="none" transform="matrix(1 0 0 1 2844.79 2548)">R opz.</text></g><g><path d="M3014 2531.84 3034.62 2531.84C3037.47 2531.84 3039.78 2534.15 3039.78 2537 3039.78 2539.85 3037.47 2542.16 3034.62 2542.16L3014 2542.16C3011.15 2542.16 3008.84 2539.85 3008.84 2537 3008.84 2534.15 3011.15 2531.84 3014 2531.84ZM3055.25 2531.84 3075.88 2531.84C3078.72 2531.84 3081.03 2534.15 3081.03 2537 3081.03 2539.85 3078.72 2542.16 3075.88 2542.16L3055.25 2542.16C3052.4 2542.16 3050.09 2539.85 3050.09 2537 3050.09 2534.15 3052.4 2531.84 3055.25 2531.84ZM3096.5 2531.84 3117.12 2531.84C3119.97 2531.84 3122.28 2534.15 3122.28 2537 3122.28 2539.85 3119.97 2542.16 3117.12 2542.16L3096.5 2542.16C3093.65 2542.16 3091.34 2539.85 3091.34 2537 3091.34 2534.15 3093.65 2531.84 3096.5 2531.84Z" fill="#0070C0" fill-rule="nonzero" fill-opacity="1"/></g><g><text fill="#595959" fill-opacity="1" font-family="Calibri,Calibri_MSFontService,sans-serif" font-style="normal" font-variant="normal" font-weight="400" font-stretch="normal" font-size="41" text-anchor="start" direction="ltr" writing-mode="lr-tb" unicode-bidi="normal" text-decoration="none" transform="matrix(1 0 0 1 3142.5 2548)">Soglia acc. Obb.</text></g><g><path d="M3474 2531.84 3494.62 2531.84C3497.47 2531.84 3499.78 2534.15 3499.78 2537 3499.78 2539.85 3497.47 2542.16 3494.62 2542.16L3474 2542.16C3471.15 2542.16 3468.84 2539.85 3468.84 2537 3468.84 2534.15 3471.15 2531.84 3474 2531.84ZM3515.25 2531.84 3535.88 2531.84C3538.72 2531.84 3541.03 2534.15 3541.03 2537 3541.03 2539.85 3538.72 2542.16 3535.88 2542.16L3515.25 2542.16C3512.4 2542.16 3510.09 2539.85 3510.09 2537 3510.09 2534.15 3512.4 2531.84 3515.25 2531.84ZM3556.5 2531.84 3577.12 2531.84C3579.97 2531.84 3582.28 2534.15 3582.28 2537 3582.28 2539.85 3579.97 2542.16 3577.12 2542.16L3556.5 2542.16C3553.65 2542.16 3551.34 2539.85 3551.34 2537 3551.34 2534.15 3553.65 2531.84 3556.5 2531.84Z" fill="#00B050" fill-rule="nonzero" fill-opacity="1"/></g><g><text fill="#595959" fill-opacity="1" font-family="Calibri,Calibri_MSFontService,sans-serif" font-style="normal" font-variant="normal" font-weight="400" font-stretch="normal" font-size="41" text-anchor="start" direction="ltr" writing-mode="lr-tb" unicode-bidi="normal" text-decoration="none" transform="matrix(1 0 0 1 3601.93 2548)">Soglia ott. Des.</text></g><rect x="1320.5" y="846.5" width="3309" height="1757" stroke="#D9D9D9" stroke-width="3.4375" stroke-linecap="square" stroke-linejoin="round" stroke-miterlimit="10" stroke-dasharray="10.3125 3.4375" stroke-opacity="1" fill="none"/></g></g></svg>