<svg width="3369" height="1797" xmlns="http://www.w3.org/2000/svg" xmlns:xlink="http://www.w3.org/1999/xlink" xml:space="preserve" overflow="hidden"><defs><clipPath id="clip0"><rect x="1805" y="1397" width="3369" height="1797"/></clipPath><clipPath id="clip1"><rect x="1805" y="1397" width="3369" height="1797"/></clipPath></defs><g clip-path="url(#clip0)" transform="translate(-1805 -1397)"><g clip-path="url(#clip1)"><rect x="1810" y="1400" width="3360" height="1790" fill="#FFFFFF" fill-opacity="1"/><g><path d="M2017.5 2777.59 5119.5 2777.59M2017.5 2576.58 5119.5 2576.58M2017.5 2375.58 5119.5 2375.58M2017.5 2173.57 5119.5 2173.57M2017.5 1972.56 5119.5 1972.56M2017.5 1771.56 5119.5 1771.56M2017.5 1570.5 5119.5 1570.5" stroke="#D9D9D9" stroke-width="3.4375" stroke-linecap="butt" stroke-linejoin="round" stroke-miterlimit="10" stroke-opacity="1" fill="none" fill-rule="nonzero"/></g><g><path d="M2072.07 2604.09 2145.07 2604.09 2145.07 2979 2072.07 2979ZM2437.08 2717.09 2510.08 2717.09 2510.08 2979 2437.08 2979ZM2802.09 2945.1 2875.09 2945.1 2875.09 2979 2802.09 2979ZM2984.1 2657.09 3057.1 2657.09 3057.1 2979 2984.1 2979ZM3349.11 2164.07 3422.11 2164.07 3422.11 2979 3349.11 2979ZM3532.12 2584.08 3605.12 2584.08 3605.12 2979 3532.12 2979ZM3714.12 2747.09 3787.12 2747.09 3787.12 2979 3714.12 2979ZM3897.13 2818.09 3970.13 2818.09 3970.13 2979 3897.13 2979ZM4079.13 2361.08 4152.14 2361.08 4152.14 2979 4079.13 2979ZM4262.14 2689.09 4335.14 2689.09 4335.14 2979 4262.14 2979ZM4444.15 1699.06 4517.15 1699.06 4517.15 2979 4444.15 2979ZM4627.15 2468.08 4700.15 2468.08 4700.15 2979 4627.15 2979ZM4809.16 2007.07 4882.16 2007.07 4882.16 2979 4809.16 2979ZM4992.16 2685.09 5065.17 2685.09 5065.17 2979 4992.16 2979Z" fill="#4F81BD" fill-rule="nonzero" fill-opacity="1"/></g><g><path d="M2017.5 2978.5 5119.5 2978.5" stroke="#D9D9D9" stroke-width="3.4375" stroke-linecap="butt" stroke-linejoin="round" stroke-miterlimit="10" stroke-opacity="1" fill="none" fill-rule="evenodd"/></g><g><path d="M2109 2007.84 2129.62 2007.84C2132.47 2007.84 2134.78 2010.15 2134.78 2013 2134.78 2015.85 2132.47 2018.16 2129.62 2018.16L2109 2018.16C2106.15 2018.16 2103.84 2015.85 2103.84 2013 2103.84 2010.15 2106.15 2007.84 2109 2007.84ZM2150.25 2007.84 2170.88 2007.84C2173.72 2007.84 2176.03 2010.15 2176.03 2013 2176.03 2015.85 2173.72 2018.16 2170.88 2018.16L2150.25 2018.16C2147.4 2018.16 2145.09 2015.85 2145.09 2013 2145.09 2010.15 2147.4 2007.84 2150.25 2007.84ZM2191.5 2007.84 2212.12 2007.84C2214.97 2007.84 2217.28 2010.15 2217.28 2013 2217.28 2015.85 2214.97 2018.16 2212.12 2018.16L2191.5 2018.16C2188.65 2018.16 2186.34 2015.85 2186.34 2013 2186.34 2010.15 2188.65 2007.84 2191.5 2007.84ZM2232.75 2007.84 2253.38 2007.84C2256.22 2007.84 2258.53 2010.15 2258.53 2013 2258.53 2015.85 2256.22 2018.16 2253.38 2018.16L2232.75 2018.16C2229.9 2018.16 2227.59 2015.85 2227.59 2013 2227.59 2010.15 2229.9 2007.84 2232.75 2007.84ZM2274 2007.84 2291.08 2007.84 2294.62 2007.84C2297.47 2007.84 2299.78 2010.15 2299.78 2013 2299.78 2015.85 2297.47 2018.16 2294.62 2018.16L2291.08 2018.16 2274 2018.16C2271.15 2018.16 2268.84 2015.85 2268.84 2013 2268.84 2010.15 2271.15 2007.84 2274 2007.84ZM2315.25 2007.84 2335.88 2007.84C2338.72 2007.84 2341.03 2010.15 2341.03 2013 2341.03 2015.85 2338.72 2018.16 2335.88 2018.16L2315.25 2018.16C2312.4 2018.16 2310.09 2015.85 2310.09 2013 2310.09 2010.15 2312.4 2007.84 2315.25 2007.84ZM2356.5 2007.84 2377.12 2007.84C2379.97 2007.84 2382.28 2010.15 2382.28 2013 2382.28 2015.85 2379.97 2018.16 2377.12 2018.16L2356.5 2018.16C2353.65 2018.16 2351.34 2015.85 2351.34 2013 2351.34 2010.15 2353.65 2007.84 2356.5 2007.84ZM2397.75 2007.84 2418.38 2007.84C2421.22 2007.84 2423.53 2010.15 2423.53 2013 2423.53 2015.85 2421.22 2018.16 2418.38 2018.16L2397.75 2018.16C2394.9 2018.16 2392.59 2015.85 2392.59 2013 2392.59 2010.15 2394.9 2007.84 2397.75 2007.84ZM2439 2007.84 2459.62 2007.84C2462.47 2007.84 2464.78 2010.15 2464.78 2013 2464.78 2015.85 2462.47 2018.16 2459.62 2018.16L2439 2018.16C2436.15 2018.16 2433.84 2015.85 2433.84 2013 2433.84 2010.15 2436.15 2007.84 2439 2007.84ZM2480.25 2007.84 2500.88 2007.84C2503.72 2007.84 2506.03 2010.15 2506.03 2013 2506.03 2015.85 2503.72 2018.16 2500.88 2018.16L2480.25 2018.16C2477.4 2018.16 2475.09 2015.85 2475.09 2013 2475.09 2010.15 2477.4 2007.84 2480.25 2007.84ZM2521.5 2007.84 2542.12 2007.84C2544.97 2007.84 2547.28 2010.15 2547.28 2013 2547.28 2015.85 2544.97 2018.16 2542.12 2018.16L2521.5 2018.16C2518.65 2018.16 2516.34 2015.85 2516.34 2013 2516.34 2010.15 2518.65 2007.84 2521.5 2007.84ZM2562.75 2007.84 2583.38 2007.84C2586.22 2007.84 2588.53 2010.15 2588.53 2013 2588.53 2015.85 2586.22 2018.16 2583.38 2018.16L2562.75 2018.16C2559.9 2018.16 2557.59 2015.85 2557.59 2013 2557.59 2010.15 2559.9 2007.84 2562.75 2007.84ZM2604 2007.84 2624.62 2007.84C2627.47 2007.84 2629.78 2010.15 2629.78 2013 2629.78 2015.85 2627.47 2018.16 2624.62 2018.16L2604 2018.16C2601.15 2018.16 2598.84 2015.85 2598.84 2013 2598.84 2010.15 2601.15 2007.84 2604 2007.84ZM2645.25 2007.84 2656.09 2007.84 2665.88 2007.84C2668.72 2007.84 2671.03 2010.15 2671.03 2013 2671.03 2015.85 2668.72 2018.16 2665.88 2018.16L2656.09 2018.16 2645.25 2018.16C2642.4 2018.16 2640.09 2015.85 2640.09 2013 2640.09 2010.15 2642.4 2007.84 2645.25 2007.84ZM2686.5 2007.84 2707.12 2007.84C2709.97 2007.84 2712.28 2010.15 2712.28 2013 2712.28 2015.85 2709.97 2018.16 2707.12 2018.16L2686.5 2018.16C2683.65 2018.16 2681.34 2015.85 2681.34 2013 2681.34 2010.15 2683.65 2007.84 2686.5 2007.84ZM2727.75 2007.84 2748.38 2007.84C2751.22 2007.84 2753.53 2010.15 2753.53 2013 2753.53 2015.85 2751.22 2018.16 2748.38 2018.16L2727.75 2018.16C2724.9 2018.16 2722.59 2015.85 2722.59 2013 2722.59 2010.15 2724.9 2007.84 2727.75 2007.84ZM2769 2007.84 2789.62 2007.84C2792.47 2007.84 2794.78 2010.15 2794.78 2013 2794.78 2015.85 2792.47 2018.16 2789.62 2018.16L2769 2018.16C2766.15 2018.16 2763.84 2015.85 2763.84 2013 2763.84 2010.15 2766.15 2007.84 2769 2007.84ZM2810.25 2007.84 2830.88 2007.84C2833.72 2007.84 2836.03 2010.15 2836.03 2013 2836.03 2015.85 2833.72 2018.16 2830.88 2018.16L2810.25 2018.16C2807.4 2018.16 2805.09 2015.85 2805.09 2013 2805.09 2010.15 2807.4 2007.84 2810.25 2007.84ZM2851.5 2007.84 2872.12 2007.84C2874.97 2007.84 2877.28 2010.15 2877.28 2013 2877.28 2015.85 2874.97 2018.16 2872.12 2018.16L2851.5 2018.16C2848.65 2018.16 2846.34 2015.85 2846.34 2013 2846.34 2010.15 2848.65 2007.84 2851.5 2007.84ZM2892.75 2007.84 2913.38 2007.84C2916.22 2007.84 2918.53 2010.15 2918.53 2013 2918.53 2015.85 2916.22 2018.16 2913.38 2018.16L2892.75 2018.16C2889.9 2018.16 2887.59 2015.85 2887.59 2013 2887.59 2010.15 2889.9 2007.84 2892.75 2007.84ZM2934 2007.84 2954.62 2007.84C2957.47 2007.84 2959.78 2010.15 2959.78 2013 2959.78 2015.85 2957.47 2018.16 2954.62 2018.16L2934 2018.16C2931.15 2018.16 2928.84 2015.85 2928.84 2013 2928.84 2010.15 2931.15 2007.84 2934 2007.84ZM2975.25 2007.84 2995.88 2007.84C2998.72 2007.84 3001.03 2010.15 3001.03 2013 3001.03 2015.85 2998.72 2018.16 2995.88 2018.16L2975.25 2018.16C2972.4 2018.16 2970.09 2015.85 2970.09 2013 2970.09 2010.15 2972.4 2007.84 2975.25 2007.84ZM3016.5 2007.84 3021.1 2007.84 3037.12 2007.84C3039.97 2007.84 3042.28 2010.15 3042.28 2013 3042.28 2015.85 3039.97 2018.16 3037.12 2018.16L3021.1 2018.16 3016.5 2018.16C3013.65 2018.16 3011.34 2015.85 3011.34 2013 3011.34 2010.15 3013.65 2007.84 3016.5 2007.84ZM3057.75 2007.84 3078.38 2007.84C3081.22 2007.84 3083.53 2010.15 3083.53 2013 3083.53 2015.85 3081.22 2018.16 3078.38 2018.16L3057.75 2018.16C3054.9 2018.16 3052.59 2015.85 3052.59 2013 3052.59 2010.15 3054.9 2007.84 3057.75 2007.84ZM3099 2007.84 3119.62 2007.84C3122.47 2007.84 3124.78 2010.15 3124.78 2013 3124.78 2015.85 3122.47 2018.16 3119.62 2018.16L3099 2018.16C3096.15 2018.16 3093.84 2015.85 3093.84 2013 3093.84 2010.15 3096.15 2007.84 3099 2007.84ZM3140.25 2007.84 3160.88 2007.84C3163.72 2007.84 3166.03 2010.15 3166.03 2013 3166.03 2015.85 3163.72 2018.16 3160.88 2018.16L3140.25 2018.16C3137.4 2018.16 3135.09 2015.85 3135.09 2013 3135.09 2010.15 3137.4 2007.84 3140.25 2007.84ZM3181.5 2007.84 3202.12 2007.84C3204.97 2007.84 3207.28 2010.15 3207.28 2013 3207.28 2015.85 3204.97 2018.16 3202.12 2018.16L3181.5 2018.16C3178.65 2018.16 3176.34 2015.85 3176.34 2013 3176.34 2010.15 3178.65 2007.84 3181.5 2007.84ZM3222.75 2007.84 3243.38 2007.84C3246.22 2007.84 3248.53 2010.15 3248.53 2013 3248.53 2015.85 3246.22 2018.16 3243.38 2018.16L3222.75 2018.16C3219.9 2018.16 3217.59 2015.85 3217.59 2013 3217.59 2010.15 3219.9 2007.84 3222.75 2007.84ZM3264 2007.84 3284.62 2007.84C3287.47 2007.84 3289.78 2010.15 3289.78 2013 3289.78 2015.85 3287.47 2018.16 3284.62 2018.16L3264 2018.16C3261.15 2018.16 3258.84 2015.85 3258.84 2013 3258.84 2010.15 3261.15 2007.84 3264 2007.84ZM3305.25 2007.84 3325.88 2007.84C3328.72 2007.84 3331.03 2010.15 3331.03 2013 3331.03 2015.85 3328.72 2018.16 3325.88 2018.16L3305.25 2018.16C3302.4 2018.16 3300.09 2015.85 3300.09 2013 3300.09 2010.15 3302.4 2007.84 3305.25 2007.84ZM3346.5 2007.84 3367.12 2007.84C3369.97 2007.84 3372.28 2010.15 3372.28 2013 3372.28 2015.85 3369.97 2018.16 3367.12 2018.16L3346.5 2018.16C3343.65 2018.16 3341.34 2015.85 3341.34 2013 3341.34 2010.15 3343.65 2007.84 3346.5 2007.84ZM3387.75 2007.84 3408.38 2007.84C3411.22 2007.84 3413.53 2010.15 3413.53 2013 3413.53 2015.85 3411.22 2018.16 3408.38 2018.16L3387.75 2018.16C3384.9 2018.16 3382.59 2015.85 3382.59 2013 3382.59 2010.15 3384.9 2007.84 3387.75 2007.84ZM3429 2007.84 3449.62 2007.84C3452.47 2007.84 3454.78 2010.15 3454.78 2013 3454.78 2015.85 3452.47 2018.16 3449.62 2018.16L3429 2018.16C3426.15 2018.16 3423.84 2015.85 3423.84 2013 3423.84 2010.15 3426.15 2007.84 3429 2007.84ZM3470.25 2007.84 3490.88 2007.84C3493.72 2007.84 3496.03 2010.15 3496.03 2013 3496.03 2015.85 3493.72 2018.16 3490.88 2018.16L3470.25 2018.16C3467.4 2018.16 3465.09 2015.85 3465.09 2013 3465.09 2010.15 3467.4 2007.84 3470.25 2007.84ZM3511.5 2007.84 3532.12 2007.84C3534.97 2007.84 3537.28 2010.15 3537.28 2013 3537.28 2015.85 3534.97 2018.16 3532.12 2018.16L3511.5 2018.16C3508.65 2018.16 3506.34 2015.85 3506.34 2013 3506.34 2010.15 3508.65 2007.84 3511.5 2007.84ZM3552.75 2007.84 3568.12 2007.84 3573.38 2007.84C3576.22 2007.84 3578.53 2010.15 3578.53 2013 3578.53 2015.85 3576.22 2018.16 3573.38 2018.16L3568.12 2018.16 3552.75 2018.16C3549.9 2018.16 3547.59 2015.85 3547.59 2013 3547.59 2010.15 3549.9 2007.84 3552.75 2007.84ZM3594 2007.84 3614.62 2007.84C3617.47 2007.84 3619.78 2010.15 3619.78 2013 3619.78 2015.85 3617.47 2018.16 3614.62 2018.16L3594 2018.16C3591.15 2018.16 3588.84 2015.85 3588.84 2013 3588.84 2010.15 3591.15 2007.84 3594 2007.84ZM3635.25 2007.84 3655.88 2007.84C3658.72 2007.84 3661.03 2010.15 3661.03 2013 3661.03 2015.85 3658.72 2018.16 3655.88 2018.16L3635.25 2018.16C3632.4 2018.16 3630.09 2015.85 3630.09 2013 3630.09 2010.15 3632.4 2007.84 3635.25 2007.84ZM3676.5 2007.84 3697.12 2007.84C3699.97 2007.84 3702.28 2010.15 3702.28 2013 3702.28 2015.85 3699.97 2018.16 3697.12 2018.16L3676.5 2018.16C3673.65 2018.16 3671.34 2015.85 3671.34 2013 3671.34 2010.15 3673.65 2007.84 3676.5 2007.84ZM3717.75 2007.84 3738.38 2007.84C3741.22 2007.84 3743.53 2010.15 3743.53 2013 3743.53 2015.85 3741.22 2018.16 3738.38 2018.16L3717.75 2018.16C3714.9 2018.16 3712.59 2015.85 3712.59 2013 3712.59 2010.15 3714.9 2007.84 3717.75 2007.84ZM3759 2007.84 3779.62 2007.84C3782.47 2007.84 3784.78 2010.15 3784.78 2013 3784.78 2015.85 3782.47 2018.16 3779.62 2018.16L3759 2018.16C3756.15 2018.16 3753.84 2015.85 3753.84 2013 3753.84 2010.15 3756.15 2007.84 3759 2007.84ZM3800.25 2007.84 3820.88 2007.84C3823.72 2007.84 3826.03 2010.15 3826.03 2013 3826.03 2015.85 3823.72 2018.16 3820.88 2018.16L3800.25 2018.16C3797.4 2018.16 3795.09 2015.85 3795.09 2013 3795.09 2010.15 3797.4 2007.84 3800.25 2007.84ZM3841.5 2007.84 3862.12 2007.84C3864.97 2007.84 3867.28 2010.15 3867.28 2013 3867.28 2015.85 3864.97 2018.16 3862.12 2018.16L3841.5 2018.16C3838.65 2018.16 3836.34 2015.85 3836.34 2013 3836.34 2010.15 3838.65 2007.84 3841.5 2007.84ZM3882.75 2007.84 3903.38 2007.84C3906.22 2007.84 3908.53 2010.15 3908.53 2013 3908.53 2015.85 3906.22 2018.16 3903.38 2018.16L3882.75 2018.16C3879.9 2018.16 3877.59 2015.85 3877.59 2013 3877.59 2010.15 3879.9 2007.84 3882.75 2007.84ZM3924 2007.84 3933.13 2007.84 3944.62 2007.84C3947.47 2007.84 3949.78 2010.15 3949.78 2013 3949.78 2015.85 3947.47 2018.16 3944.62 2018.16L3933.13 2018.16 3924 2018.16C3921.15 2018.16 3918.84 2015.85 3918.84 2013 3918.84 2010.15 3921.15 2007.84 3924 2007.84ZM3965.25 2007.84 3985.88 2007.84C3988.72 2007.84 3991.03 2010.15 3991.03 2013 3991.03 2015.85 3988.72 2018.16 3985.88 2018.16L3965.25 2018.16C3962.4 2018.16 3960.09 2015.85 3960.09 2013 3960.09 2010.15 3962.4 2007.84 3965.25 2007.84ZM4006.5 2007.84 4027.12 2007.84C4029.97 2007.84 4032.28 2010.15 4032.28 2013 4032.28 2015.85 4029.97 2018.16 4027.12 2018.16L4006.5 2018.16C4003.65 2018.16 4001.34 2015.85 4001.34 2013 4001.34 2010.15 4003.65 2007.84 4006.5 2007.84ZM4047.75 2007.84 4068.38 2007.84C4071.22 2007.84 4073.53 2010.15 4073.53 2013 4073.53 2015.85 4071.22 2018.16 4068.38 2018.16L4047.75 2018.16C4044.9 2018.16 4042.59 2015.85 4042.59 2013 4042.59 2010.15 4044.9 2007.84 4047.75 2007.84ZM4089 2007.84 4109.62 2007.84C4112.47 2007.84 4114.78 2010.15 4114.78 2013 4114.78 2015.85 4112.47 2018.16 4109.62 2018.16L4089 2018.16C4086.15 2018.16 4083.84 2015.85 4083.84 2013 4083.84 2010.15 4086.15 2007.84 4089 2007.84ZM4130.25 2007.84 4150.88 2007.84C4153.72 2007.84 4156.03 2010.15 4156.03 2013 4156.03 2015.85 4153.72 2018.16 4150.88 2018.16L4130.25 2018.16C4127.4 2018.16 4125.09 2015.85 4125.09 2013 4125.09 2010.15 4127.4 2007.84 4130.25 2007.84ZM4171.5 2007.84 4192.12 2007.84C4194.97 2007.84 4197.28 2010.15 4197.28 2013 4197.28 2015.85 4194.97 2018.16 4192.12 2018.16L4171.5 2018.16C4168.65 2018.16 4166.34 2015.85 4166.34 2013 4166.34 2010.15 4168.65 2007.84 4171.5 2007.84ZM4212.75 2007.84 4233.38 2007.84C4236.22 2007.84 4238.53 2010.15 4238.53 2013 4238.53 2015.85 4236.22 2018.16 4233.38 2018.16L4212.75 2018.16C4209.9 2018.16 4207.59 2015.85 4207.59 2013 4207.59 2010.15 4209.9 2007.84 4212.75 2007.84ZM4254 2007.84 4274.62 2007.84C4277.47 2007.84 4279.78 2010.15 4279.78 2013 4279.78 2015.85 4277.47 2018.16 4274.62 2018.16L4254 2018.16C4251.15 2018.16 4248.84 2015.85 4248.84 2013 4248.84 2010.15 4251.15 2007.84 4254 2007.84ZM4295.25 2007.84 4298.14 2007.84 4315.88 2007.84C4318.72 2007.84 4321.03 2010.15 4321.03 2013 4321.03 2015.85 4318.72 2018.16 4315.88 2018.16L4298.14 2018.16 4295.25 2018.16C4292.4 2018.16 4290.09 2015.85 4290.09 2013 4290.09 2010.15 4292.4 2007.84 4295.25 2007.84ZM4336.5 2007.84 4357.12 2007.84C4359.97 2007.84 4362.28 2010.15 4362.28 2013 4362.28 2015.85 4359.97 2018.16 4357.12 2018.16L4336.5 2018.16C4333.65 2018.16 4331.34 2015.85 4331.34 2013 4331.34 2010.15 4333.65 2007.84 4336.5 2007.84ZM4377.75 2007.84 4398.38 2007.84C4401.22 2007.84 4403.53 2010.15 4403.53 2013 4403.53 2015.85 4401.22 2018.16 4398.38 2018.16L4377.75 2018.16C4374.9 2018.16 4372.59 2015.85 4372.59 2013 4372.59 2010.15 4374.9 2007.84 4377.75 2007.84ZM4419 2007.84 4439.62 2007.84C4442.47 2007.84 4444.78 2010.15 4444.78 2013 4444.78 2015.85 4442.47 2018.16 4439.62 2018.16L4419 2018.16C4416.15 2018.16 4413.84 2015.85 4413.84 2013 4413.84 2010.15 4416.15 2007.84 4419 2007.84ZM4460.25 2007.84 4480.88 2007.84C4483.72 2007.84 4486.03 2010.15 4486.03 2013 4486.03 2015.85 4483.72 2018.16 4480.88 2018.16L4460.25 2018.16C4457.4 2018.16 4455.09 2015.85 4455.09 2013 4455.09 2010.15 4457.4 2007.84 4460.25 2007.84ZM4501.5 2007.84 4522.12 2007.84C4524.97 2007.84 4527.28 2010.15 4527.28 2013 4527.28 2015.85 4524.97 2018.16 4522.12 2018.16L4501.5 2018.16C4498.65 2018.16 4496.34 2015.85 4496.34 2013 4496.34 2010.15 4498.65 2007.84 4501.5 2007.84ZM4542.75 2007.84 4563.38 2007.84C4566.22 2007.84 4568.53 2010.15 4568.53 2013 4568.53 2015.85 4566.22 2018.16 4563.38 2018.16L4542.75 2018.16C4539.9 2018.16 4537.59 2015.85 4537.59 2013 4537.59 2010.15 4539.9 2007.84 4542.75 2007.84ZM4584 2007.84 4604.62 2007.84C4607.47 2007.84 4609.78 2010.15 4609.78 2013 4609.78 2015.85 4607.47 2018.16 4604.62 2018.16L4584 2018.16C4581.15 2018.16 4578.84 2015.85 4578.84 2013 4578.84 2010.15 4581.15 2007.84 4584 2007.84ZM4625.25 2007.84 4645.88 2007.84C4648.72 2007.84 4651.03 2010.15 4651.03 2013 4651.03 2015.85 4648.72 2018.16 4645.88 2018.16L4625.25 2018.16C4622.4 2018.16 4620.09 2015.85 4620.09 2013 4620.09 2010.15 4622.4 2007.84 4625.25 2007.84ZM4666.5 2007.84 4687.12 2007.84C4689.97 2007.84 4692.28 2010.15 4692.28 2013 4692.28 2015.85 4689.97 2018.16 4687.12 2018.16L4666.5 2018.16C4663.65 2018.16 4661.34 2015.85 4661.34 2013 4661.34 2010.15 4663.65 2007.84 4666.5 2007.84ZM4707.75 2007.84 4728.38 2007.84C4731.22 2007.84 4733.53 2010.15 4733.53 2013 4733.53 2015.85 4731.22 2018.16 4728.38 2018.16L4707.75 2018.16C4704.9 2018.16 4702.59 2015.85 4702.59 2013 4702.59 2010.15 4704.9 2007.84 4707.75 2007.84ZM4749 2007.84 4769.62 2007.84C4772.47 2007.84 4774.78 2010.15 4774.78 2013 4774.78 2015.85 4772.47 2018.16 4769.62 2018.16L4749 2018.16C4746.15 2018.16 4743.84 2015.85 4743.84 2013 4743.84 2010.15 4746.15 2007.84 4749 2007.84ZM4790.25 2007.84 4810.88 2007.84C4813.72 2007.84 4816.03 2010.15 4816.03 2013 4816.03 2015.85 4813.72 2018.16 4810.88 2018.16L4790.25 2018.16C4787.4 2018.16 4785.09 2015.85 4785.09 2013 4785.09 2010.15 4787.4 2007.84 4790.25 2007.84ZM4831.5 2007.84 4846.16 2007.84 4852.12 2007.84C4854.97 2007.84 4857.28 2010.15 4857.28 2013 4857.28 2015.85 4854.97 2018.16 4852.12 2018.16L4846.16 2018.16 4831.5 2018.16C4828.65 2018.16 4826.34 2015.85 4826.34 2013 4826.34 2010.15 4828.65 2007.84 4831.5 2007.84ZM4872.75 2007.84 4893.38 2007.84C4896.22 2007.84 4898.53 2010.15 4898.53 2013 4898.53 2015.85 4896.22 2018.16 4893.38 2018.16L4872.75 2018.16C4869.9 2018.16 4867.59 2015.85 4867.59 2013 4867.59 2010.15 4869.9 2007.84 4872.75 2007.84ZM4914 2007.84 4934.62 2007.84C4937.47 2007.84 4939.78 2010.15 4939.78 2013 4939.78 2015.85 4937.47 2018.16 4934.62 2018.16L4914 2018.16C4911.15 2018.16 4908.84 2015.85 4908.84 2013 4908.84 2010.15 4911.15 2007.84 4914 2007.84ZM4955.25 2007.84 4975.88 2007.84C4978.72 2007.84 4981.03 2010.15 4981.03 2013 4981.03 2015.85 4978.72 2018.16 4975.88 2018.16L4955.25 2018.16C4952.4 2018.16 4950.09 2015.85 4950.09 2013 4950.09 2010.15 4952.4 2007.84 4955.25 2007.84ZM4996.5 2007.84 5017.12 2007.84C5019.97 2007.84 5022.28 2010.15 5022.28 2013 5022.28 2015.85 5019.97 2018.16 5017.12 2018.16L4996.5 2018.16C4993.65 2018.16 4991.34 2015.85 4991.34 2013 4991.34 2010.15 4993.65 2007.84 4996.5 2007.84Z" fill="#FF0000" fill-rule="nonzero" fill-opacity="1"/></g><g><path d="M2109 2490.84 2129.62 2490.84C2132.47 2490.84 2134.78 2493.15 2134.78 2496 2134.78 2498.85 2132.47 2501.16 2129.62 2501.16L2109 2501.16C2106.15 2501.16 2103.84 2498.85 2103.84 2496 2103.84 2493.15 2106.15 2490.84 2109 2490.84ZM2150.25 2490.84 2170.88 2490.84C2173.72 2490.84 2176.03 2493.15 2176.03 2496 2176.03 2498.85 2173.72 2501.16 2170.88 2501.16L2150.25 2501.16C2147.4 2501.16 2145.09 2498.85 2145.09 2496 2145.09 2493.15 2147.4 2490.84 2150.25 2490.84ZM2191.5 2490.84 2212.12 2490.84C2214.97 2490.84 2217.28 2493.15 2217.28 2496 2217.28 2498.85 2214.97 2501.16 2212.12 2501.16L2191.5 2501.16C2188.65 2501.16 2186.34 2498.85 2186.34 2496 2186.34 2493.15 2188.65 2490.84 2191.5 2490.84ZM2232.75 2490.84 2253.38 2490.84C2256.22 2490.84 2258.53 2493.15 2258.53 2496 2258.53 2498.85 2256.22 2501.16 2253.38 2501.16L2232.75 2501.16C2229.9 2501.16 2227.59 2498.85 2227.59 2496 2227.59 2493.15 2229.9 2490.84 2232.75 2490.84ZM2274 2490.84 2291.08 2490.84 2294.62 2490.84C2297.47 2490.84 2299.78 2493.15 2299.78 2496 2299.78 2498.85 2297.47 2501.16 2294.62 2501.16L2291.08 2501.16 2274 2501.16C2271.15 2501.16 2268.84 2498.85 2268.84 2496 2268.84 2493.15 2271.15 2490.84 2274 2490.84ZM2315.25 2490.84 2335.88 2490.84C2338.72 2490.84 2341.03 2493.15 2341.03 2496 2341.03 2498.85 2338.72 2501.16 2335.88 2501.16L2315.25 2501.16C2312.4 2501.16 2310.09 2498.85 2310.09 2496 2310.09 2493.15 2312.4 2490.84 2315.25 2490.84ZM2356.5 2490.84 2377.12 2490.84C2379.97 2490.84 2382.28 2493.15 2382.28 2496 2382.28 2498.85 2379.97 2501.16 2377.12 2501.16L2356.5 2501.16C2353.65 2501.16 2351.34 2498.85 2351.34 2496 2351.34 2493.15 2353.65 2490.84 2356.5 2490.84ZM2397.75 2490.84 2418.38 2490.84C2421.22 2490.84 2423.53 2493.15 2423.53 2496 2423.53 2498.85 2421.22 2501.16 2418.38 2501.16L2397.75 2501.16C2394.9 2501.16 2392.59 2498.85 2392.59 2496 2392.59 2493.15 2394.9 2490.84 2397.75 2490.84ZM2439 2490.84 2459.62 2490.84C2462.47 2490.84 2464.78 2493.15 2464.78 2496 2464.78 2498.85 2462.47 2501.16 2459.62 2501.16L2439 2501.16C2436.15 2501.16 2433.84 2498.85 2433.84 2496 2433.84 2493.15 2436.15 2490.84 2439 2490.84ZM2480.25 2490.84 2500.88 2490.84C2503.72 2490.84 2506.03 2493.15 2506.03 2496 2506.03 2498.85 2503.72 2501.16 2500.88 2501.16L2480.25 2501.16C2477.4 2501.16 2475.09 2498.85 2475.09 2496 2475.09 2493.15 2477.4 2490.84 2480.25 2490.84ZM2521.5 2490.84 2542.12 2490.84C2544.97 2490.84 2547.28 2493.15 2547.28 2496 2547.28 2498.85 2544.97 2501.16 2542.12 2501.16L2521.5 2501.16C2518.65 2501.16 2516.34 2498.85 2516.34 2496 2516.34 2493.15 2518.65 2490.84 2521.5 2490.84ZM2562.75 2490.84 2583.38 2490.84C2586.22 2490.84 2588.53 2493.15 2588.53 2496 2588.53 2498.85 2586.22 2501.16 2583.38 2501.16L2562.75 2501.16C2559.9 2501.16 2557.59 2498.85 2557.59 2496 2557.59 2493.15 2559.9 2490.84 2562.75 2490.84ZM2604 2490.84 2624.62 2490.84C2627.47 2490.84 2629.78 2493.15 2629.78 2496 2629.78 2498.85 2627.47 2501.16 2624.62 2501.16L2604 2501.16C2601.15 2501.16 2598.84 2498.85 2598.84 2496 2598.84 2493.15 2601.15 2490.84 2604 2490.84ZM2645.25 2490.84 2656.09 2490.84 2665.88 2490.84C2668.72 2490.84 2671.03 2493.15 2671.03 2496 2671.03 2498.85 2668.72 2501.16 2665.88 2501.16L2656.09 2501.16 2645.25 2501.16C2642.4 2501.16 2640.09 2498.85 2640.09 2496 2640.09 2493.15 2642.4 2490.84 2645.25 2490.84ZM2686.5 2490.84 2707.12 2490.84C2709.97 2490.84 2712.28 2493.15 2712.28 2496 2712.28 2498.85 2709.97 2501.16 2707.12 2501.16L2686.5 2501.16C2683.65 2501.16 2681.34 2498.85 2681.34 2496 2681.34 2493.15 2683.65 2490.84 2686.5 2490.84ZM2727.75 2490.84 2748.38 2490.84C2751.22 2490.84 2753.53 2493.15 2753.53 2496 2753.53 2498.85 2751.22 2501.16 2748.38 2501.16L2727.75 2501.16C2724.9 2501.16 2722.59 2498.85 2722.59 2496 2722.59 2493.15 2724.9 2490.84 2727.75 2490.84ZM2769 2490.84 2789.62 2490.84C2792.47 2490.84 2794.78 2493.15 2794.78 2496 2794.78 2498.85 2792.47 2501.16 2789.62 2501.16L2769 2501.16C2766.15 2501.16 2763.84 2498.85 2763.84 2496 2763.84 2493.15 2766.15 2490.84 2769 2490.84ZM2810.25 2490.84 2830.88 2490.84C2833.72 2490.84 2836.03 2493.15 2836.03 2496 2836.03 2498.85 2833.72 2501.16 2830.88 2501.16L2810.25 2501.16C2807.4 2501.16 2805.09 2498.85 2805.09 2496 2805.09 2493.15 2807.4 2490.84 2810.25 2490.84ZM2851.5 2490.84 2872.12 2490.84C2874.97 2490.84 2877.28 2493.15 2877.28 2496 2877.28 2498.85 2874.97 2501.16 2872.12 2501.16L2851.5 2501.16C2848.65 2501.16 2846.34 2498.85 2846.34 2496 2846.34 2493.15 2848.65 2490.84 2851.5 2490.84ZM2892.75 2490.84 2913.38 2490.84C2916.22 2490.84 2918.53 2493.15 2918.53 2496 2918.53 2498.85 2916.22 2501.16 2913.38 2501.16L2892.75 2501.16C2889.9 2501.16 2887.59 2498.85 2887.59 2496 2887.59 2493.15 2889.9 2490.84 2892.75 2490.84ZM2934 2490.84 2954.62 2490.84C2957.47 2490.84 2959.78 2493.15 2959.78 2496 2959.78 2498.85 2957.47 2501.16 2954.62 2501.16L2934 2501.16C2931.15 2501.16 2928.84 2498.85 2928.84 2496 2928.84 2493.15 2931.15 2490.84 2934 2490.84ZM2975.25 2490.84 2995.88 2490.84C2998.72 2490.84 3001.03 2493.15 3001.03 2496 3001.03 2498.85 2998.72 2501.16 2995.88 2501.16L2975.25 2501.16C2972.4 2501.16 2970.09 2498.85 2970.09 2496 2970.09 2493.15 2972.4 2490.84 2975.25 2490.84ZM3016.5 2490.84 3021.1 2490.84 3037.12 2490.84C3039.97 2490.84 3042.28 2493.15 3042.28 2496 3042.28 2498.85 3039.97 2501.16 3037.12 2501.16L3021.1 2501.16 3016.5 2501.16C3013.65 2501.16 3011.34 2498.85 3011.34 2496 3011.34 2493.15 3013.65 2490.84 3016.5 2490.84ZM3057.75 2490.84 3078.38 2490.84C3081.22 2490.84 3083.53 2493.15 3083.53 2496 3083.53 2498.85 3081.22 2501.16 3078.38 2501.16L3057.75 2501.16C3054.9 2501.16 3052.59 2498.85 3052.59 2496 3052.59 2493.15 3054.9 2490.84 3057.75 2490.84ZM3099 2490.84 3119.62 2490.84C3122.47 2490.84 3124.78 2493.15 3124.78 2496 3124.78 2498.85 3122.47 2501.16 3119.62 2501.16L3099 2501.16C3096.15 2501.16 3093.84 2498.85 3093.84 2496 3093.84 2493.15 3096.15 2490.84 3099 2490.84ZM3140.25 2490.84 3160.88 2490.84C3163.72 2490.84 3166.03 2493.15 3166.03 2496 3166.03 2498.85 3163.72 2501.16 3160.88 2501.16L3140.25 2501.16C3137.4 2501.16 3135.09 2498.85 3135.09 2496 3135.09 2493.15 3137.4 2490.84 3140.25 2490.84ZM3181.5 2490.84 3202.12 2490.84C3204.97 2490.84 3207.28 2493.15 3207.28 2496 3207.28 2498.85 3204.97 2501.16 3202.12 2501.16L3181.5 2501.16C3178.65 2501.16 3176.34 2498.85 3176.34 2496 3176.34 2493.15 3178.65 2490.84 3181.5 2490.84ZM3222.75 2490.84 3243.38 2490.84C3246.22 2490.84 3248.53 2493.15 3248.53 2496 3248.53 2498.85 3246.22 2501.16 3243.38 2501.16L3222.75 2501.16C3219.9 2501.16 3217.59 2498.85 3217.59 2496 3217.59 2493.15 3219.9 2490.84 3222.75 2490.84ZM3264 2490.84 3284.62 2490.84C3287.47 2490.84 3289.78 2493.15 3289.78 2496 3289.78 2498.85 3287.47 2501.16 3284.62 2501.16L3264 2501.16C3261.15 2501.16 3258.84 2498.85 3258.84 2496 3258.84 2493.15 3261.15 2490.84 3264 2490.84ZM3305.25 2490.84 3325.88 2490.84C3328.72 2490.84 3331.03 2493.15 3331.03 2496 3331.03 2498.85 3328.72 2501.16 3325.88 2501.16L3305.25 2501.16C3302.4 2501.16 3300.09 2498.85 3300.09 2496 3300.09 2493.15 3302.4 2490.84 3305.25 2490.84ZM3346.5 2490.84 3367.12 2490.84C3369.97 2490.84 3372.28 2493.15 3372.28 2496 3372.28 2498.85 3369.97 2501.16 3367.12 2501.16L3346.5 2501.16C3343.65 2501.16 3341.34 2498.85 3341.34 2496 3341.34 2493.15 3343.65 2490.84 3346.5 2490.84ZM3387.75 2490.84 3408.38 2490.84C3411.22 2490.84 3413.53 2493.15 3413.53 2496 3413.53 2498.85 3411.22 2501.16 3408.38 2501.16L3387.75 2501.16C3384.9 2501.16 3382.59 2498.85 3382.59 2496 3382.59 2493.15 3384.9 2490.84 3387.75 2490.84ZM3429 2490.84 3449.62 2490.84C3452.47 2490.84 3454.78 2493.15 3454.78 2496 3454.78 2498.85 3452.47 2501.16 3449.62 2501.16L3429 2501.16C3426.15 2501.16 3423.84 2498.85 3423.84 2496 3423.84 2493.15 3426.15 2490.84 3429 2490.84ZM3470.25 2490.84 3490.88 2490.84C3493.72 2490.84 3496.03 2493.15 3496.03 2496 3496.03 2498.85 3493.72 2501.16 3490.88 2501.16L3470.25 2501.16C3467.4 2501.16 3465.09 2498.85 3465.09 2496 3465.09 2493.15 3467.4 2490.84 3470.25 2490.84ZM3511.5 2490.84 3532.12 2490.84C3534.97 2490.84 3537.28 2493.15 3537.28 2496 3537.28 2498.85 3534.97 2501.16 3532.12 2501.16L3511.5 2501.16C3508.65 2501.16 3506.34 2498.85 3506.34 2496 3506.34 2493.15 3508.65 2490.84 3511.5 2490.84ZM3552.75 2490.84 3568.12 2490.84 3573.38 2490.84C3576.22 2490.84 3578.53 2493.15 3578.53 2496 3578.53 2498.85 3576.22 2501.16 3573.38 2501.16L3568.12 2501.16 3552.75 2501.16C3549.9 2501.16 3547.59 2498.85 3547.59 2496 3547.59 2493.15 3549.9 2490.84 3552.75 2490.84ZM3594 2490.84 3614.62 2490.84C3617.47 2490.84 3619.78 2493.15 3619.78 2496 3619.78 2498.85 3617.47 2501.16 3614.62 2501.16L3594 2501.16C3591.15 2501.16 3588.84 2498.85 3588.84 2496 3588.84 2493.15 3591.15 2490.84 3594 2490.84ZM3635.25 2490.84 3655.88 2490.84C3658.72 2490.84 3661.03 2493.15 3661.03 2496 3661.03 2498.85 3658.72 2501.16 3655.88 2501.16L3635.25 2501.16C3632.4 2501.16 3630.09 2498.85 3630.09 2496 3630.09 2493.15 3632.4 2490.84 3635.25 2490.84ZM3676.5 2490.84 3697.12 2490.84C3699.97 2490.84 3702.28 2493.15 3702.28 2496 3702.28 2498.85 3699.97 2501.16 3697.12 2501.16L3676.5 2501.16C3673.65 2501.16 3671.34 2498.85 3671.34 2496 3671.34 2493.15 3673.65 2490.84 3676.5 2490.84ZM3717.75 2490.84 3738.38 2490.84C3741.22 2490.84 3743.53 2493.15 3743.53 2496 3743.53 2498.85 3741.22 2501.16 3738.38 2501.16L3717.75 2501.16C3714.9 2501.16 3712.59 2498.85 3712.59 2496 3712.59 2493.15 3714.9 2490.84 3717.75 2490.84ZM3759 2490.84 3779.62 2490.84C3782.47 2490.84 3784.78 2493.15 3784.78 2496 3784.78 2498.85 3782.47 2501.16 3779.62 2501.16L3759 2501.16C3756.15 2501.16 3753.84 2498.85 3753.84 2496 3753.84 2493.15 3756.15 2490.84 3759 2490.84ZM3800.25 2490.84 3820.88 2490.84C3823.72 2490.84 3826.03 2493.15 3826.03 2496 3826.03 2498.85 3823.72 2501.16 3820.88 2501.16L3800.25 2501.16C3797.4 2501.16 3795.09 2498.85 3795.09 2496 3795.09 2493.15 3797.4 2490.84 3800.25 2490.84ZM3841.5 2490.84 3862.12 2490.84C3864.97 2490.84 3867.28 2493.15 3867.28 2496 3867.28 2498.85 3864.97 2501.16 3862.12 2501.16L3841.5 2501.16C3838.65 2501.16 3836.34 2498.85 3836.34 2496 3836.34 2493.15 3838.65 2490.84 3841.5 2490.84ZM3882.75 2490.84 3903.38 2490.84C3906.22 2490.84 3908.53 2493.15 3908.53 2496 3908.53 2498.85 3906.22 2501.16 3903.38 2501.16L3882.75 2501.16C3879.9 2501.16 3877.59 2498.85 3877.59 2496 3877.59 2493.15 3879.9 2490.84 3882.75 2490.84ZM3924 2490.84 3933.13 2490.84 3944.62 2490.84C3947.47 2490.84 3949.78 2493.15 3949.78 2496 3949.78 2498.85 3947.47 2501.16 3944.62 2501.16L3933.13 2501.16 3924 2501.16C3921.15 2501.16 3918.84 2498.85 3918.84 2496 3918.84 2493.15 3921.15 2490.84 3924 2490.84ZM3965.25 2490.84 3985.88 2490.84C3988.72 2490.84 3991.03 2493.15 3991.03 2496 3991.03 2498.85 3988.72 2501.16 3985.88 2501.16L3965.25 2501.16C3962.4 2501.16 3960.09 2498.85 3960.09 2496 3960.09 2493.15 3962.4 2490.84 3965.25 2490.84ZM4006.5 2490.84 4027.12 2490.84C4029.97 2490.84 4032.28 2493.15 4032.28 2496 4032.28 2498.85 4029.97 2501.16 4027.12 2501.16L4006.5 2501.16C4003.65 2501.16 4001.34 2498.85 4001.34 2496 4001.34 2493.15 4003.65 2490.84 4006.5 2490.84ZM4047.75 2490.84 4068.38 2490.84C4071.22 2490.84 4073.53 2493.15 4073.53 2496 4073.53 2498.85 4071.22 2501.16 4068.38 2501.16L4047.75 2501.16C4044.9 2501.16 4042.59 2498.85 4042.59 2496 4042.59 2493.15 4044.9 2490.84 4047.75 2490.84ZM4089 2490.84 4109.62 2490.84C4112.47 2490.84 4114.78 2493.15 4114.78 2496 4114.78 2498.85 4112.47 2501.16 4109.62 2501.16L4089 2501.16C4086.15 2501.16 4083.84 2498.85 4083.84 2496 4083.84 2493.15 4086.15 2490.84 4089 2490.84ZM4130.25 2490.84 4150.88 2490.84C4153.72 2490.84 4156.03 2493.15 4156.03 2496 4156.03 2498.85 4153.72 2501.16 4150.88 2501.16L4130.25 2501.16C4127.4 2501.16 4125.09 2498.85 4125.09 2496 4125.09 2493.15 4127.4 2490.84 4130.25 2490.84ZM4171.5 2490.84 4192.12 2490.84C4194.97 2490.84 4197.28 2493.15 4197.28 2496 4197.28 2498.85 4194.97 2501.16 4192.12 2501.16L4171.5 2501.16C4168.65 2501.16 4166.34 2498.85 4166.34 2496 4166.34 2493.15 4168.65 2490.84 4171.5 2490.84ZM4212.75 2490.84 4233.38 2490.84C4236.22 2490.84 4238.53 2493.15 4238.53 2496 4238.53 2498.85 4236.22 2501.16 4233.38 2501.16L4212.75 2501.16C4209.9 2501.16 4207.59 2498.85 4207.59 2496 4207.59 2493.15 4209.9 2490.84 4212.75 2490.84ZM4254 2490.84 4274.62 2490.84C4277.47 2490.84 4279.78 2493.15 4279.78 2496 4279.78 2498.85 4277.47 2501.16 4274.62 2501.16L4254 2501.16C4251.15 2501.16 4248.84 2498.85 4248.84 2496 4248.84 2493.15 4251.15 2490.84 4254 2490.84ZM4295.25 2490.84 4298.14 2490.84 4315.88 2490.84C4318.72 2490.84 4321.03 2493.15 4321.03 2496 4321.03 2498.85 4318.72 2501.16 4315.88 2501.16L4298.14 2501.16 4295.25 2501.16C4292.4 2501.16 4290.09 2498.85 4290.09 2496 4290.09 2493.15 4292.4 2490.84 4295.25 2490.84ZM4336.5 2490.84 4357.12 2490.84C4359.97 2490.84 4362.28 2493.15 4362.28 2496 4362.28 2498.85 4359.97 2501.16 4357.12 2501.16L4336.5 2501.16C4333.65 2501.16 4331.34 2498.85 4331.34 2496 4331.34 2493.15 4333.65 2490.84 4336.5 2490.84ZM4377.75 2490.84 4398.38 2490.84C4401.22 2490.84 4403.53 2493.15 4403.53 2496 4403.53 2498.85 4401.22 2501.16 4398.38 2501.16L4377.75 2501.16C4374.9 2501.16 4372.59 2498.85 4372.59 2496 4372.59 2493.15 4374.9 2490.84 4377.75 2490.84ZM4419 2490.84 4439.62 2490.84C4442.47 2490.84 4444.78 2493.15 4444.78 2496 4444.78 2498.85 4442.47 2501.16 4439.62 2501.16L4419 2501.16C4416.15 2501.16 4413.84 2498.85 4413.84 2496 4413.84 2493.15 4416.15 2490.84 4419 2490.84ZM4460.25 2490.84 4480.88 2490.84C4483.72 2490.84 4486.03 2493.15 4486.03 2496 4486.03 2498.85 4483.72 2501.16 4480.88 2501.16L4460.25 2501.16C4457.4 2501.16 4455.09 2498.85 4455.09 2496 4455.09 2493.15 4457.4 2490.84 4460.25 2490.84ZM4501.5 2490.84 4522.12 2490.84C4524.97 2490.84 4527.28 2493.15 4527.28 2496 4527.28 2498.85 4524.97 2501.16 4522.12 2501.16L4501.5 2501.16C4498.65 2501.16 4496.34 2498.85 4496.34 2496 4496.34 2493.15 4498.65 2490.84 4501.5 2490.84ZM4542.75 2490.84 4563.38 2490.84C4566.22 2490.84 4568.53 2493.15 4568.53 2496 4568.53 2498.85 4566.22 2501.16 4563.38 2501.16L4542.75 2501.16C4539.9 2501.16 4537.59 2498.85 4537.59 2496 4537.59 2493.15 4539.9 2490.84 4542.75 2490.84ZM4584 2490.84 4604.62 2490.84C4607.47 2490.84 4609.78 2493.15 4609.78 2496 4609.78 2498.85 4607.47 2501.16 4604.62 2501.16L4584 2501.16C4581.15 2501.16 4578.84 2498.85 4578.84 2496 4578.84 2493.15 4581.15 2490.84 4584 2490.84ZM4625.25 2490.84 4645.88 2490.84C4648.72 2490.84 4651.03 2493.15 4651.03 2496 4651.03 2498.85 4648.72 2501.16 4645.88 2501.16L4625.25 2501.16C4622.4 2501.16 4620.09 2498.85 4620.09 2496 4620.09 2493.15 4622.4 2490.84 4625.25 2490.84ZM4666.5 2490.84 4687.12 2490.84C4689.97 2490.84 4692.28 2493.15 4692.28 2496 4692.28 2498.85 4689.97 2501.16 4687.12 2501.16L4666.5 2501.16C4663.65 2501.16 4661.34 2498.85 4661.34 2496 4661.34 2493.15 4663.65 2490.84 4666.5 2490.84ZM4707.75 2490.84 4728.38 2490.84C4731.22 2490.84 4733.53 2493.15 4733.53 2496 4733.53 2498.85 4731.22 2501.16 4728.38 2501.16L4707.75 2501.16C4704.9 2501.16 4702.59 2498.85 4702.59 2496 4702.59 2493.15 4704.9 2490.84 4707.75 2490.84ZM4749 2490.84 4769.62 2490.84C4772.47 2490.84 4774.78 2493.15 4774.78 2496 4774.78 2498.85 4772.47 2501.16 4769.62 2501.16L4749 2501.16C4746.15 2501.16 4743.84 2498.85 4743.84 2496 4743.84 2493.15 4746.15 2490.84 4749 2490.84ZM4790.25 2490.84 4810.88 2490.84C4813.72 2490.84 4816.03 2493.15 4816.03 2496 4816.03 2498.85 4813.72 2501.16 4810.88 2501.16L4790.25 2501.16C4787.4 2501.16 4785.09 2498.85 4785.09 2496 4785.09 2493.15 4787.4 2490.84 4790.25 2490.84ZM4831.5 2490.84 4846.16 2490.84 4852.12 2490.84C4854.97 2490.84 4857.28 2493.15 4857.28 2496 4857.28 2498.85 4854.97 2501.16 4852.12 2501.16L4846.16 2501.16 4831.5 2501.16C4828.65 2501.16 4826.34 2498.85 4826.34 2496 4826.34 2493.15 4828.65 2490.84 4831.5 2490.84ZM4872.75 2490.84 4893.38 2490.84C4896.22 2490.84 4898.53 2493.15 4898.53 2496 4898.53 2498.85 4896.22 2501.16 4893.38 2501.16L4872.75 2501.16C4869.9 2501.16 4867.59 2498.85 4867.59 2496 4867.59 2493.15 4869.9 2490.84 4872.75 2490.84ZM4914 2490.84 4934.62 2490.84C4937.47 2490.84 4939.78 2493.15 4939.78 2496 4939.78 2498.85 4937.47 2501.16 4934.62 2501.16L4914 2501.16C4911.15 2501.16 4908.84 2498.85 4908.84 2496 4908.84 2493.15 4911.15 2490.84 4914 2490.84ZM4955.25 2490.84 4975.88 2490.84C4978.72 2490.84 4981.03 2493.15 4981.03 2496 4981.03 2498.85 4978.72 2501.16 4975.88 2501.16L4955.25 2501.16C4952.4 2501.16 4950.09 2498.85 4950.09 2496 4950.09 2493.15 4952.4 2490.84 4955.25 2490.84ZM4996.5 2490.84 5017.12 2490.84C5019.97 2490.84 5022.28 2493.15 5022.28 2496 5022.28 2498.85 5019.97 2501.16 5017.12 2501.16L4996.5 2501.16C4993.65 2501.16 4991.34 2498.85 4991.34 2496 4991.34 2493.15 4993.65 2490.84 4996.5 2490.84Z" fill="#00B050" fill-rule="nonzero" fill-opacity="1"/></g><g><text fill="#595959" fill-opacity="1" font-family="Calibri,Calibri_MSFontService,sans-serif" font-style="normal" font-variant="normal" font-weight="400" font-stretch="normal" font-size="41" text-anchor="start" direction="ltr" writing-mode="lr-tb" unicode-bidi="normal" text-decoration="none" transform="matrix(1 0 0 1 1958.3 2989)">0</text></g><g><text fill="#595959" fill-opacity="1" font-family="Calibri,Calibri_MSFontService,sans-serif" font-style="normal" font-variant="normal" font-weight="400" font-stretch="normal" font-size="41" text-anchor="start" direction="ltr" writing-mode="lr-tb" unicode-bidi="normal" text-decoration="none" transform="matrix(1 0 0 1 1937.4 2788)">10</text></g><g><text fill="#595959" fill-opacity="1" font-family="Calibri,Calibri_MSFontService,sans-serif" font-style="normal" font-variant="normal" font-weight="400" font-stretch="normal" font-size="41" text-anchor="start" direction="ltr" writing-mode="lr-tb" unicode-bidi="normal" text-decoration="none" transform="matrix(1 0 0 1 1937.4 2586)">20</text></g><g><text fill="#595959" fill-opacity="1" font-family="Calibri,Calibri_MSFontService,sans-serif" font-style="normal" font-variant="normal" font-weight="400" font-stretch="normal" font-size="41" text-anchor="start" direction="ltr" writing-mode="lr-tb" unicode-bidi="normal" text-decoration="none" transform="matrix(1 0 0 1 1937.4 2385)">30</text></g><g><text fill="#595959" fill-opacity="1" font-family="Calibri,Calibri_MSFontService,sans-serif" font-style="normal" font-variant="normal" font-weight="400" font-stretch="normal" font-size="41" text-anchor="start" direction="ltr" writing-mode="lr-tb" unicode-bidi="normal" text-decoration="none" transform="matrix(1 0 0 1 1937.4 2184)">40</text></g><g><text fill="#595959" fill-opacity="1" font-family="Calibri,Calibri_MSFontService,sans-serif" font-style="normal" font-variant="normal" font-weight="400" font-stretch="normal" font-size="41" text-anchor="start" direction="ltr" writing-mode="lr-tb" unicode-bidi="normal" text-decoration="none" transform="matrix(1 0 0 1 1937.4 1983)">50</text></g><g><text fill="#595959" fill-opacity="1" font-family="Calibri,Calibri_MSFontService,sans-serif" font-style="normal" font-variant="normal" font-weight="400" font-stretch="normal" font-size="41" text-anchor="start" direction="ltr" writing-mode="lr-tb" unicode-bidi="normal" text-decoration="none" transform="matrix(1 0 0 1 1937.4 1782)">60</text></g><g><text fill="#595959" fill-opacity="1" font-family="Calibri,Calibri_MSFontService,sans-serif" font-style="normal" font-variant="normal" font-weight="400" font-stretch="normal" font-size="41" text-anchor="start" direction="ltr" writing-mode="lr-tb" unicode-bidi="normal" text-decoration="none" transform="matrix(1 0 0 1 1937.4 1580)">70</text></g><g><text fill="#595959" fill-opacity="1" font-family="Calibri,Calibri_MSFontService,sans-serif" font-style="normal" font-variant="normal" font-weight="400" font-stretch="normal" font-size="41" text-anchor="start" direction="ltr" writing-mode="lr-tb" unicode-bidi="normal" text-decoration="none" transform="matrix(1 0 0 1 2043.6 3044)">Sprint 1</text></g><g><text fill="#595959" fill-opacity="1" font-family="Calibri,Calibri_MSFontService,sans-serif" font-style="normal" font-variant="normal" font-weight="400" font-stretch="normal" font-size="41" text-anchor="start" direction="ltr" writing-mode="lr-tb" unicode-bidi="normal" text-decoration="none" transform="matrix(1 0 0 1 2226.07 3044)">Sprint 2</text></g><g><text fill="#595959" fill-opacity="1" font-family="Calibri,Calibri_MSFontService,sans-serif" font-style="normal" font-variant="normal" font-weight="400" font-stretch="normal" font-size="41" text-anchor="start" direction="ltr" writing-mode="lr-tb" unicode-bidi="normal" text-decoration="none" transform="matrix(1 0 0 1 2408.55 3044)">Sprint 3</text></g><g><text fill="#595959" fill-opacity="1" font-family="Calibri,Calibri_MSFontService,sans-serif" font-style="normal" font-variant="normal" font-weight="400" font-stretch="normal" font-size="41" text-anchor="start" direction="ltr" writing-mode="lr-tb" unicode-bidi="normal" text-decoration="none" transform="matrix(1 0 0 1 2591.03 3044)">Sprint 4</text></g><g><text fill="#595959" fill-opacity="1" font-family="Calibri,Calibri_MSFontService,sans-serif" font-style="normal" font-variant="normal" font-weight="400" font-stretch="normal" font-size="41" text-anchor="start" direction="ltr" writing-mode="lr-tb" unicode-bidi="normal" text-decoration="none" transform="matrix(1 0 0 1 2773.51 3044)">Sprint 5</text></g><g><text fill="#595959" fill-opacity="1" font-family="Calibri,Calibri_MSFontService,sans-serif" font-style="normal" font-variant="normal" font-weight="400" font-stretch="normal" font-size="41" text-anchor="start" direction="ltr" writing-mode="lr-tb" unicode-bidi="normal" text-decoration="none" transform="matrix(1 0 0 1 2955.98 3044)">Sprint 6</text></g><g><text fill="#595959" fill-opacity="1" font-family="Calibri,Calibri_MSFontService,sans-serif" font-style="normal" font-variant="normal" font-weight="400" font-stretch="normal" font-size="41" text-anchor="start" direction="ltr" writing-mode="lr-tb" unicode-bidi="normal" text-decoration="none" transform="matrix(1 0 0 1 3138.46 3044)">Sprint 7</text></g><g><text fill="#595959" fill-opacity="1" font-family="Calibri,Calibri_MSFontService,sans-serif" font-style="normal" font-variant="normal" font-weight="400" font-stretch="normal" font-size="41" text-anchor="start" direction="ltr" writing-mode="lr-tb" unicode-bidi="normal" text-decoration="none" transform="matrix(1 0 0 1 3320.94 3044)">Sprint 8</text></g><g><text fill="#595959" fill-opacity="1" font-family="Calibri,Calibri_MSFontService,sans-serif" font-style="normal" font-variant="normal" font-weight="400" font-stretch="normal" font-size="41" text-anchor="start" direction="ltr" writing-mode="lr-tb" unicode-bidi="normal" text-decoration="none" transform="matrix(1 0 0 1 3503.42 3044)">Sprint 9</text></g><g><text fill="#595959" fill-opacity="1" font-family="Calibri,Calibri_MSFontService,sans-serif" font-style="normal" font-variant="normal" font-weight="400" font-stretch="normal" font-size="41" text-anchor="start" direction="ltr" writing-mode="lr-tb" unicode-bidi="normal" text-decoration="none" transform="matrix(1 0 0 1 3675.45 3044)">Sprint 10</text></g><g><text fill="#595959" fill-opacity="1" font-family="Calibri,Calibri_MSFontService,sans-serif" font-style="normal" font-variant="normal" font-weight="400" font-stretch="normal" font-size="41" text-anchor="start" direction="ltr" writing-mode="lr-tb" unicode-bidi="normal" text-decoration="none" transform="matrix(1 0 0 1 3857.92 3044)">Sprint 11</text></g><g><text fill="#595959" fill-opacity="1" font-family="Calibri,Calibri_MSFontService,sans-serif" font-style="normal" font-variant="normal" font-weight="400" font-stretch="normal" font-size="41" text-anchor="start" direction="ltr" writing-mode="lr-tb" unicode-bidi="normal" text-decoration="none" transform="matrix(1 0 0 1 4040.4 3044)">Sprint 12</text></g><g><text fill="#595959" fill-opacity="1" font-family="Calibri,Calibri_MSFontService,sans-serif" font-style="normal" font-variant="normal" font-weight="400" font-stretch="normal" font-size="41" text-anchor="start" direction="ltr" writing-mode="lr-tb" unicode-bidi="normal" text-decoration="none" transform="matrix(1 0 0 1 4222.88 3044)">Sprint 13</text></g><g><text fill="#595959" fill-opacity="1" font-family="Calibri,Calibri_MSFontService,sans-serif" font-style="normal" font-variant="normal" font-weight="400" font-stretch="normal" font-size="41" text-anchor="start" direction="ltr" writing-mode="lr-tb" unicode-bidi="normal" text-decoration="none" transform="matrix(1 0 0 1 4405.36 3044)">Sprint 14</text></g><g><text fill="#595959" fill-opacity="1" font-family="Calibri,Calibri_MSFontService,sans-serif" font-style="normal" font-variant="normal" font-weight="400" font-stretch="normal" font-size="41" text-anchor="start" direction="ltr" writing-mode="lr-tb" unicode-bidi="normal" text-decoration="none" transform="matrix(1 0 0 1 4587.83 3044)">Sprint 15</text></g><g><text fill="#595959" fill-opacity="1" font-family="Calibri,Calibri_MSFontService,sans-serif" font-style="normal" font-variant="normal" font-weight="400" font-stretch="normal" font-size="41" text-anchor="start" direction="ltr" writing-mode="lr-tb" unicode-bidi="normal" text-decoration="none" transform="matrix(1 0 0 1 4770.31 3044)">Sprint 16</text></g><g><text fill="#595959" fill-opacity="1" font-family="Calibri,Calibri_MSFontService,sans-serif" font-style="normal" font-variant="normal" font-weight="400" font-stretch="normal" font-size="41" text-anchor="start" direction="ltr" writing-mode="lr-tb" unicode-bidi="normal" text-decoration="none" transform="matrix(1 0 0 1 4952.79 3044)">Sprint 17</text></g><g><text fill="#595959" fill-opacity="1" font-family="Calibri,Calibri_MSFontService,sans-serif" font-style="normal" font-variant="normal" font-weight="400" font-stretch="normal" font-size="46" text-anchor="start" direction="ltr" writing-mode="lr-tb" unicode-bidi="normal" text-decoration="none" transform="matrix(6.12323e-17 -1 1 6.12323e-17 1911.71 2309)">Ore</text></g><g><text fill="#595959" fill-opacity="1" font-family="Calibri,Calibri_MSFontService,sans-serif" font-style="normal" font-variant="normal" font-weight="400" font-stretch="normal" font-size="64" text-anchor="start" direction="ltr" writing-mode="lr-tb" unicode-bidi="normal" text-decoration="none" transform="matrix(1 0 0 1 3423.61 1496)">MPC-PRCT</text></g><g><rect x="2741" y="3112" width="116" height="23" fill="#4F81BD" fill-opacity="1"/></g><g><text fill="#595959" fill-opacity="1" font-family="Calibri,Calibri_MSFontService,sans-serif" font-style="normal" font-variant="normal" font-weight="400" font-stretch="normal" font-size="41" text-anchor="start" direction="ltr" writing-mode="lr-tb" unicode-bidi="normal" text-decoration="none" transform="matrix(1 0 0 1 2869.38 3134)">PRCT Medio (ore)</text></g><g><path d="M3250 3118.84 3270.63 3118.84C3273.47 3118.84 3275.78 3121.15 3275.78 3124 3275.78 3126.85 3273.47 3129.16 3270.63 3129.16L3250 3129.16C3247.15 3129.16 3244.84 3126.85 3244.84 3124 3244.84 3121.15 3247.15 3118.84 3250 3118.84ZM3291.25 3118.84 3311.88 3118.84C3314.72 3118.84 3317.03 3121.15 3317.03 3124 3317.03 3126.85 3314.72 3129.16 3311.88 3129.16L3291.25 3129.16C3288.4 3129.16 3286.09 3126.85 3286.09 3124 3286.09 3121.15 3288.4 3118.84 3291.25 3118.84ZM3332.5 3118.84 3353.13 3118.84C3355.97 3118.84 3358.28 3121.15 3358.28 3124 3358.28 3126.85 3355.97 3129.16 3353.13 3129.16L3332.5 3129.16C3329.65 3129.16 3327.34 3126.85 3327.34 3124 3327.34 3121.15 3329.65 3118.84 3332.5 3118.84Z" fill="#FF0000" fill-rule="nonzero" fill-opacity="1"/></g><g><text fill="#595959" fill-opacity="1" font-family="Calibri,Calibri_MSFontService,sans-serif" font-style="normal" font-variant="normal" font-weight="400" font-stretch="normal" font-size="41" text-anchor="start" direction="ltr" writing-mode="lr-tb" unicode-bidi="normal" text-decoration="none" transform="matrix(1 0 0 1 3378.32 3134)">Solgia acc. (≤48 ore)</text></g><g><path d="M3800 3118.84 3820.63 3118.84C3823.47 3118.84 3825.78 3121.15 3825.78 3124 3825.78 3126.85 3823.47 3129.16 3820.63 3129.16L3800 3129.16C3797.15 3129.16 3794.84 3126.85 3794.84 3124 3794.84 3121.15 3797.15 3118.84 3800 3118.84ZM3841.25 3118.84 3861.88 3118.84C3864.72 3118.84 3867.03 3121.15 3867.03 3124 3867.03 3126.85 3864.72 3129.16 3861.88 3129.16L3841.25 3129.16C3838.4 3129.16 3836.09 3126.85 3836.09 3124 3836.09 3121.15 3838.4 3118.84 3841.25 3118.84ZM3882.5 3118.84 3903.13 3118.84C3905.97 3118.84 3908.28 3121.15 3908.28 3124 3908.28 3126.85 3905.97 3129.16 3903.13 3129.16L3882.5 3129.16C3879.65 3129.16 3877.34 3126.85 3877.34 3124 3877.34 3121.15 3879.65 3118.84 3882.5 3118.84Z" fill="#00B050" fill-rule="nonzero" fill-opacity="1"/></g><g><text fill="#595959" fill-opacity="1" font-family="Calibri,Calibri_MSFontService,sans-serif" font-style="normal" font-variant="normal" font-weight="400" font-stretch="normal" font-size="41" text-anchor="start" direction="ltr" writing-mode="lr-tb" unicode-bidi="normal" text-decoration="none" transform="matrix(1 0 0 1 3928.26 3134)">Solgia ott. (≤24 ore)</text></g><rect x="1810.5" y="1400.5" width="3360" height="1790" stroke="#D9D9D9" stroke-width="3.4375" stroke-linecap="butt" stroke-linejoin="round" stroke-miterlimit="10" stroke-opacity="1" fill="none"/></g></g></svg>