<svg width="3579" height="1870" xmlns="http://www.w3.org/2000/svg" xmlns:xlink="http://www.w3.org/1999/xlink" xml:space="preserve" overflow="hidden"><defs><clipPath id="clip0"><rect x="898" y="618" width="3579" height="1870"/></clipPath><clipPath id="clip1"><rect x="898" y="618" width="3579" height="1870"/></clipPath></defs><g clip-path="url(#clip0)" transform="translate(-898 -618)"><g clip-path="url(#clip1)"><rect x="901" y="623" width="3572" height="1861" fill="#FFFFFF" fill-opacity="1"/><g><path d="M1084.5 2039.57 4425.5 2039.57M1084.5 1832.56 4425.5 1832.56M1084.5 1625.55 4425.5 1625.55M1084.5 1418.55 4425.5 1418.55M1084.5 1211.54 4425.5 1211.54M1084.5 1003.53 4425.5 1003.53M1084.5 796.5 4425.5 796.5" stroke="#D9D9D9" stroke-width="3.4375" stroke-linecap="butt" stroke-linejoin="round" stroke-miterlimit="10" stroke-opacity="1" fill="none" fill-rule="nonzero"/></g><g><path d="M1084.5 2246.5 4425.5 2246.5" stroke="#D9D9D9" stroke-width="3.4375" stroke-linecap="butt" stroke-linejoin="round" stroke-miterlimit="10" stroke-opacity="1" fill="none" fill-rule="evenodd"/></g><g><path d="M1183 2206 1380.05 2176.07 1576.05 2163.07 1773.06 2133.07 1969.06 2105.07 2166.07 2064.07 2362.08 2019.07 2559.08 1973.06 2755.09 1880.06 2952.1 1835.06 3148.1 1674.05 3345.11 1539.05 3541.12 1415.05 3738.12 1299.04 3934.13 1190.04 4131.14 1095.04 4327 966" stroke="#1F497D" stroke-width="10.3125" stroke-linecap="round" stroke-linejoin="round" stroke-miterlimit="10" stroke-opacity="1" fill="none" fill-rule="nonzero"/></g><g><path d="M1182.66 2210.85 1203.24 2209.5C1206.08 2209.32 1208.54 2211.47 1208.73 2214.31 1208.91 2217.15 1206.76 2219.61 1203.92 2219.79L1183.34 2221.15C1180.5 2221.33 1178.04 2219.18 1177.85 2216.34 1177.67 2213.5 1179.82 2211.04 1182.66 2210.85ZM1223.82 2208.15 1244.4 2206.8C1247.25 2206.62 1249.7 2208.77 1249.89 2211.61 1250.07 2214.45 1247.92 2216.91 1245.08 2217.09L1224.5 2218.44C1221.66 2218.63 1219.2 2216.48 1219.02 2213.64 1218.83 2210.8 1220.98 2208.34 1223.82 2208.15ZM1264.99 2205.45 1285.57 2204.1C1288.41 2203.92 1290.86 2206.07 1291.05 2208.91 1291.24 2211.75 1289.08 2214.21 1286.24 2214.39L1265.66 2215.74C1262.82 2215.93 1260.36 2213.78 1260.18 2210.94 1259.99 2208.09 1262.14 2205.64 1264.99 2205.45ZM1306.15 2202.75 1326.73 2201.4C1329.57 2201.22 1332.02 2203.37 1332.21 2206.21 1332.4 2209.05 1330.24 2211.51 1327.4 2211.69L1306.82 2213.04C1303.98 2213.23 1301.53 2211.08 1301.34 2208.24 1301.15 2205.39 1303.31 2202.94 1306.15 2202.75ZM1347.31 2200.05 1367.89 2198.7C1370.73 2198.52 1373.19 2200.67 1373.37 2203.51 1373.56 2206.35 1371.41 2208.81 1368.56 2208.99L1347.98 2210.34C1345.14 2210.53 1342.69 2208.38 1342.5 2205.54 1342.31 2202.69 1344.47 2200.24 1347.31 2200.05ZM1388.04 2196.77 1408.47 2193.95C1411.29 2193.56 1413.9 2195.53 1414.28 2198.36 1414.67 2201.18 1412.7 2203.78 1409.88 2204.17L1389.45 2206.98C1386.63 2207.37 1384.02 2205.4 1383.64 2202.58 1383.25 2199.76 1385.22 2197.15 1388.04 2196.77ZM1428.9 2191.14 1449.34 2188.32C1452.16 2187.93 1454.76 2189.91 1455.15 2192.73 1455.54 2195.55 1453.56 2198.15 1450.74 2198.54L1430.31 2201.35C1427.49 2201.74 1424.89 2199.77 1424.5 2196.95 1424.11 2194.13 1426.08 2191.53 1428.9 2191.14ZM1469.77 2185.51 1490.2 2182.69C1493.02 2182.3 1495.62 2184.28 1496.01 2187.1 1496.4 2189.92 1494.43 2192.52 1491.61 2192.91L1471.18 2195.72C1468.35 2196.11 1465.75 2194.14 1465.36 2191.32 1464.98 2188.5 1466.95 2185.9 1469.77 2185.51ZM1510.63 2179.88 1531.06 2177.06C1533.89 2176.68 1536.49 2178.65 1536.88 2181.47 1537.27 2184.29 1535.29 2186.89 1532.47 2187.28L1512.04 2190.09C1509.22 2190.48 1506.62 2188.51 1506.23 2185.69 1505.84 2182.87 1507.81 2180.27 1510.63 2179.88ZM1551.5 2174.25 1571.93 2171.43C1574.75 2171.05 1577.35 2173.02 1577.74 2175.84 1578.13 2178.66 1576.16 2181.26 1573.34 2181.65L1552.9 2184.47C1550.08 2184.85 1547.48 2182.88 1547.09 2180.06 1546.7 2177.24 1548.68 2174.64 1551.5 2174.25ZM1592.25 2168.39 1612.64 2165.28C1615.46 2164.85 1618.09 2166.79 1618.52 2169.6 1618.95 2172.42 1617.01 2175.05 1614.2 2175.48L1593.81 2178.58C1590.99 2179.01 1588.36 2177.08 1587.93 2174.26 1587.5 2171.45 1589.44 2168.82 1592.25 2168.39ZM1633.03 2162.18 1653.42 2159.07C1656.24 2158.64 1658.87 2160.58 1659.3 2163.39 1659.73 2166.21 1657.79 2168.84 1654.98 2169.27L1634.59 2172.37C1631.77 2172.8 1629.14 2170.87 1628.71 2168.05 1628.28 2165.24 1630.22 2162.61 1633.03 2162.18ZM1673.81 2155.97 1694.2 2152.86C1697.02 2152.43 1699.65 2154.37 1700.08 2157.18 1700.51 2160 1698.57 2162.63 1695.76 2163.06L1675.37 2166.16C1672.55 2166.59 1669.92 2164.66 1669.49 2161.84 1669.06 2159.03 1671 2156.4 1673.81 2155.97ZM1714.59 2149.76 1734.98 2146.65C1737.8 2146.22 1740.43 2148.16 1740.86 2150.97 1741.29 2153.79 1739.35 2156.42 1736.54 2156.85L1716.15 2159.95C1713.33 2160.38 1710.7 2158.45 1710.27 2155.63 1709.84 2152.82 1711.78 2150.19 1714.59 2149.76ZM1755.37 2143.55 1772.28 2140.97 1775.31 2140.25C1778.08 2139.6 1780.85 2141.32 1781.51 2144.09 1782.16 2146.86 1780.44 2149.64 1777.66 2150.29L1773.83 2151.17 1756.93 2153.74C1754.11 2154.17 1751.48 2152.24 1751.05 2149.42 1750.62 2146.61 1752.56 2143.98 1755.37 2143.55ZM1795.39 2135.53 1815.47 2130.82C1818.24 2130.17 1821.01 2131.89 1821.66 2134.66 1822.32 2137.44 1820.6 2140.21 1817.82 2140.86L1797.74 2145.57C1794.97 2146.22 1792.2 2144.5 1791.55 2141.73 1790.89 2138.96 1792.61 2136.18 1795.39 2135.53ZM1835.55 2126.11 1855.63 2121.4C1858.4 2120.75 1861.17 2122.47 1861.82 2125.24 1862.47 2128.01 1860.75 2130.78 1857.98 2131.44L1837.9 2136.15C1835.13 2136.8 1832.35 2135.08 1831.7 2132.31 1831.05 2129.53 1832.77 2126.76 1835.55 2126.11ZM1875.7 2116.68 1895.78 2111.97C1898.56 2111.32 1901.33 2113.04 1901.98 2115.81 1902.63 2118.58 1900.91 2121.36 1898.14 2122.01L1878.06 2126.72C1875.29 2127.37 1872.51 2125.65 1871.86 2122.88 1871.21 2120.11 1872.93 2117.33 1875.7 2116.68ZM1915.86 2107.26 1935.94 2102.55C1938.72 2101.9 1941.49 2103.62 1942.14 2106.39 1942.79 2109.16 1941.07 2111.94 1938.3 2112.59L1918.22 2117.3C1915.45 2117.95 1912.67 2116.23 1912.02 2113.46 1911.37 2110.68 1913.09 2107.91 1915.86 2107.26ZM1956.02 2097.83 1967.89 2095.05 1976.34 2093.37C1979.13 2092.82 1981.85 2094.64 1982.4 2097.43 1982.95 2100.22 1981.14 2102.94 1978.34 2103.49L1970.24 2105.09 1958.38 2107.87C1955.61 2108.52 1952.83 2106.8 1952.18 2104.03 1951.53 2101.26 1953.25 2098.48 1956.02 2097.83ZM1996.57 2089.37 2016.81 2085.36C2019.6 2084.81 2022.31 2086.62 2022.87 2089.42 2023.42 2092.21 2021.6 2094.92 2018.81 2095.48L1998.58 2099.48C1995.78 2100.04 1993.07 2098.22 1992.52 2095.43 1991.96 2092.63 1993.78 2089.92 1996.57 2089.37ZM2037.04 2081.36 2057.27 2077.35C2060.06 2076.8 2062.78 2078.61 2063.33 2081.41 2063.88 2084.2 2062.07 2086.91 2059.27 2087.47L2039.04 2091.47C2036.25 2092.03 2033.53 2090.21 2032.98 2087.42 2032.43 2084.62 2034.24 2081.91 2037.04 2081.36ZM2077.5 2073.35 2097.74 2069.34C2100.53 2068.79 2103.24 2070.6 2103.79 2073.4 2104.35 2076.19 2102.53 2078.9 2099.74 2079.46L2079.51 2083.46C2076.71 2084.01 2074 2082.2 2073.45 2079.4 2072.89 2076.61 2074.71 2073.9 2077.5 2073.35ZM2117.97 2065.33 2138.2 2061.33C2140.99 2060.78 2143.71 2062.59 2144.26 2065.39 2144.81 2068.18 2143 2070.89 2140.2 2071.45L2119.97 2075.45C2117.18 2076 2114.46 2074.19 2113.91 2071.39 2113.36 2068.6 2115.17 2065.89 2117.97 2065.33ZM2158.43 2057.32 2165.07 2056.01 2178.31 2052.76C2181.07 2052.09 2183.86 2053.78 2184.54 2056.54 2185.22 2059.31 2183.52 2062.1 2180.76 2062.78L2167.07 2066.13 2160.43 2067.44C2157.64 2067.99 2154.93 2066.18 2154.38 2063.38 2153.82 2060.59 2155.64 2057.88 2158.43 2057.32ZM2198.34 2047.86 2218.37 2042.95C2221.14 2042.27 2223.93 2043.97 2224.61 2046.73 2225.28 2049.5 2223.59 2052.29 2220.82 2052.97L2200.79 2057.87C2198.03 2058.55 2195.23 2056.86 2194.56 2054.09 2193.88 2051.33 2195.57 2048.53 2198.34 2047.86ZM2238.4 2038.04 2258.44 2033.14C2261.2 2032.46 2263.99 2034.15 2264.67 2036.92 2265.35 2039.69 2263.66 2042.48 2260.89 2043.16L2240.86 2048.06C2238.09 2048.74 2235.3 2047.05 2234.62 2044.28 2233.95 2041.51 2235.64 2038.72 2238.4 2038.04ZM2278.47 2028.23 2298.5 2023.33C2301.27 2022.65 2304.06 2024.34 2304.74 2027.11 2305.42 2029.87 2303.72 2032.67 2300.96 2033.34L2280.92 2038.25C2278.16 2038.93 2275.37 2037.23 2274.69 2034.47 2274.01 2031.7 2275.7 2028.91 2278.47 2028.23ZM2318.54 2018.42 2338.57 2013.51C2341.34 2012.84 2344.13 2014.53 2344.8 2017.3 2345.48 2020.06 2343.79 2022.85 2341.02 2023.53L2320.99 2028.44C2318.22 2029.11 2315.43 2027.42 2314.75 2024.66 2314.08 2021.89 2315.77 2019.1 2318.54 2018.42ZM2358.6 2008.61 2360.85 2008.06 2359.24 2008.76 2374.52 1998.68C2376.9 1997.11 2380.1 1997.76 2381.66 2000.14 2383.23 2002.52 2382.58 2005.72 2380.2 2007.28L2364.92 2017.37C2364.42 2017.7 2363.88 2017.93 2363.3 2018.07L2361.06 2018.62C2358.29 2019.3 2355.5 2017.61 2354.82 2014.84 2354.14 2012.08 2355.84 2009.29 2358.6 2008.61ZM2391.73 1987.32 2408.95 1975.96C2411.33 1974.39 2414.52 1975.04 2416.09 1977.42 2417.66 1979.8 2417.01 1983 2414.63 1984.57L2397.41 1995.92C2395.04 1997.49 2391.84 1996.84 2390.27 1994.46 2388.7 1992.08 2389.36 1988.89 2391.73 1987.32ZM2426.16 1964.6 2443.38 1953.24C2445.76 1951.67 2448.95 1952.32 2450.52 1954.7 2452.09 1957.08 2451.44 1960.28 2449.06 1961.85L2431.84 1973.21C2429.47 1974.77 2426.27 1974.12 2424.7 1971.74 2423.13 1969.36 2423.79 1966.17 2426.16 1964.6ZM2460.59 1941.88 2477.81 1930.52C2480.18 1928.95 2483.38 1929.6 2484.95 1931.98 2486.52 1934.36 2485.86 1937.56 2483.49 1939.13L2466.27 1950.49C2463.9 1952.05 2460.7 1951.4 2459.13 1949.02 2457.56 1946.64 2458.22 1943.45 2460.59 1941.88ZM2495.02 1919.16 2512.24 1907.8C2514.61 1906.23 2517.81 1906.89 2519.38 1909.26 2520.95 1911.64 2520.29 1914.84 2517.92 1916.41L2500.7 1927.77C2498.33 1929.33 2495.13 1928.68 2493.56 1926.3 2491.99 1923.93 2492.65 1920.73 2495.02 1919.16ZM2529.45 1896.44 2546.67 1885.08C2549.04 1883.51 2552.24 1884.17 2553.81 1886.54 2555.38 1888.92 2554.72 1892.12 2552.35 1893.69L2535.13 1905.05C2532.75 1906.61 2529.56 1905.96 2527.99 1903.58 2526.42 1901.21 2527.07 1898.01 2529.45 1896.44ZM2567.02 1876.18 2587.23 1872.06C2590.02 1871.49 2592.74 1873.29 2593.31 1876.08 2593.88 1878.87 2592.08 1881.59 2589.29 1882.16L2569.08 1886.28C2566.29 1886.85 2563.57 1885.05 2563 1882.26 2562.43 1879.47 2564.23 1876.75 2567.02 1876.18ZM2607.43 1867.93 2627.64 1863.81C2630.43 1863.24 2633.16 1865.04 2633.73 1867.83 2634.3 1870.62 2632.5 1873.34 2629.71 1873.91L2609.5 1878.04C2606.71 1878.61 2603.98 1876.81 2603.41 1874.01 2602.84 1871.22 2604.64 1868.5 2607.43 1867.93ZM2647.85 1859.68 2668.06 1855.56C2670.85 1854.99 2673.57 1856.79 2674.14 1859.58 2674.71 1862.37 2672.91 1865.09 2670.12 1865.66L2649.91 1869.79C2647.12 1870.36 2644.4 1868.56 2643.83 1865.77 2643.26 1862.98 2645.06 1860.25 2647.85 1859.68ZM2688.27 1851.43 2708.48 1847.31C2711.27 1846.74 2713.99 1848.54 2714.56 1851.33 2715.13 1854.12 2713.33 1856.85 2710.54 1857.42L2690.33 1861.54C2687.54 1862.11 2684.82 1860.31 2684.25 1857.52 2683.68 1854.73 2685.48 1852 2688.27 1851.43ZM2728.69 1843.19 2748.89 1839.06C2751.68 1838.49 2754.41 1840.29 2754.98 1843.08 2755.55 1845.87 2753.75 1848.6 2750.96 1849.17L2730.75 1853.29C2727.96 1853.86 2725.23 1852.06 2724.66 1849.27 2724.09 1846.48 2725.9 1843.76 2728.69 1843.19ZM2764.66 1830 2781.51 1818.11C2783.84 1816.46 2787.06 1817.02 2788.7 1819.35 2790.34 1821.67 2789.79 1824.89 2787.46 1826.53L2770.61 1838.42C2768.28 1840.06 2765.06 1839.51 2763.42 1837.18 2761.78 1834.85 2762.34 1831.64 2764.66 1830ZM2798.37 1806.21 2815.22 1794.32C2817.55 1792.68 2820.76 1793.24 2822.41 1795.56 2824.05 1797.89 2823.49 1801.11 2821.17 1802.75L2804.31 1814.64C2801.99 1816.28 2798.77 1815.73 2797.13 1813.4 2795.49 1811.07 2796.04 1807.86 2798.37 1806.21ZM2832.07 1782.43 2848.92 1770.54C2851.25 1768.9 2854.47 1769.46 2856.11 1771.78 2857.75 1774.11 2857.2 1777.33 2854.87 1778.97L2838.02 1790.86C2835.69 1792.5 2832.47 1791.95 2830.83 1789.62 2829.19 1787.29 2829.75 1784.07 2832.07 1782.43ZM2865.78 1758.65 2882.63 1746.76C2884.96 1745.12 2888.17 1745.67 2889.81 1748 2891.46 1750.33 2890.9 1753.55 2888.57 1755.19L2871.72 1767.08C2869.4 1768.72 2866.18 1768.16 2864.54 1765.84 2862.89 1763.51 2863.45 1760.29 2865.78 1758.65ZM2899.48 1734.87 2916.33 1722.98C2918.66 1721.34 2921.88 1721.89 2923.52 1724.22 2925.16 1726.55 2924.61 1729.76 2922.28 1731.41L2905.43 1743.3C2903.1 1744.94 2899.88 1744.38 2898.24 1742.06 2896.6 1739.73 2897.15 1736.51 2899.48 1734.87ZM2933.19 1711.09 2949.12 1699.84 2949.45 1699.49C2951.55 1697.57 2954.81 1697.72 2956.73 1699.82 2958.65 1701.93 2958.5 1705.19 2956.4 1707.11L2955.07 1708.27 2939.13 1719.51C2936.8 1721.16 2933.59 1720.6 2931.95 1718.27 2930.3 1715.95 2930.86 1712.73 2933.19 1711.09ZM2964.68 1685.59 2979.91 1671.68C2982.01 1669.76 2985.27 1669.9 2987.19 1672.01 2989.11 1674.11 2988.96 1677.37 2986.86 1679.29L2971.63 1693.2C2969.53 1695.12 2966.27 1694.97 2964.35 1692.87 2962.42 1690.77 2962.57 1687.51 2964.68 1685.59ZM2995.13 1657.77 3010.36 1643.86C3012.47 1641.94 3015.73 1642.09 3017.65 1644.19 3019.57 1646.29 3019.42 1649.55 3017.32 1651.47L3002.09 1665.38C2999.99 1667.3 2996.72 1667.16 2994.8 1665.05 2992.88 1662.95 2993.03 1659.69 2995.13 1657.77ZM3025.59 1629.95 3040.82 1616.04C3042.93 1614.12 3046.19 1614.27 3048.11 1616.37 3050.03 1618.48 3049.88 1621.74 3047.78 1623.66L3032.55 1637.57C3030.45 1639.49 3027.18 1639.34 3025.26 1637.24 3023.34 1635.13 3023.49 1631.87 3025.59 1629.95ZM3056.05 1602.13 3071.28 1588.22C3073.39 1586.3 3076.65 1586.45 3078.57 1588.56 3080.49 1590.66 3080.34 1593.92 3078.24 1595.84L3063.01 1609.75C3060.9 1611.67 3057.64 1611.52 3055.72 1609.42 3053.8 1607.32 3053.95 1604.05 3056.05 1602.13ZM3086.51 1574.32 3101.74 1560.41C3103.84 1558.49 3107.11 1558.64 3109.03 1560.74 3110.95 1562.84 3110.8 1566.1 3108.7 1568.02L3093.47 1581.93C3091.36 1583.85 3088.1 1583.7 3086.18 1581.6 3084.26 1579.5 3084.41 1576.24 3086.51 1574.32ZM3116.97 1546.5 3132.2 1532.59C3134.3 1530.67 3137.57 1530.82 3139.49 1532.92 3141.41 1535.02 3141.26 1538.28 3139.16 1540.21L3123.93 1554.11C3121.82 1556.03 3118.56 1555.89 3116.64 1553.78 3114.72 1551.68 3114.87 1548.42 3116.97 1546.5ZM3148.34 1518.65 3165.4 1507.05C3167.75 1505.45 3170.96 1506.06 3172.56 1508.41 3174.16 1510.77 3173.55 1513.98 3171.2 1515.58L3154.14 1527.18C3151.79 1528.78 3148.58 1528.17 3146.98 1525.81 3145.38 1523.46 3145.99 1520.25 3148.34 1518.65ZM3182.45 1495.45 3199.5 1483.85C3201.86 1482.25 3205.07 1482.86 3206.67 1485.21 3208.27 1487.57 3207.66 1490.78 3205.3 1492.38L3188.25 1503.98C3185.9 1505.58 3182.69 1504.97 3181.09 1502.61 3179.49 1500.26 3180.1 1497.05 3182.45 1495.45ZM3216.56 1472.25 3233.61 1460.65C3235.97 1459.05 3239.17 1459.66 3240.78 1462.01 3242.38 1464.37 3241.77 1467.58 3239.41 1469.18L3222.36 1480.78C3220 1482.38 3216.8 1481.77 3215.2 1479.41 3213.59 1477.06 3214.2 1473.85 3216.56 1472.25ZM3250.67 1449.05 3267.72 1437.45C3270.07 1435.85 3273.28 1436.46 3274.88 1438.81 3276.48 1441.17 3275.87 1444.38 3273.52 1445.98L3256.47 1457.58C3254.11 1459.18 3250.9 1458.57 3249.3 1456.21 3247.7 1453.86 3248.31 1450.65 3250.67 1449.05ZM3284.77 1425.85 3301.83 1414.25C3304.18 1412.65 3307.39 1413.26 3308.99 1415.61 3310.59 1417.97 3309.98 1421.18 3307.63 1422.78L3290.57 1434.38C3288.22 1435.98 3285.01 1435.37 3283.41 1433.01 3281.81 1430.66 3282.42 1427.45 3284.77 1425.85ZM3318.88 1402.65 3335.93 1391.05C3338.29 1389.45 3341.5 1390.06 3343.1 1392.41 3344.7 1394.77 3344.09 1397.98 3341.73 1399.58L3324.68 1411.18C3322.33 1412.78 3319.12 1412.17 3317.52 1409.81 3315.92 1407.46 3316.53 1404.25 3318.88 1402.65ZM3353.62 1379.9 3371.29 1369.27C3373.73 1367.8 3376.9 1368.58 3378.36 1371.02 3379.83 1373.46 3379.05 1376.63 3376.61 1378.1L3358.94 1388.74C3356.5 1390.21 3353.33 1389.42 3351.86 1386.98 3350.39 1384.54 3351.18 1381.37 3353.62 1379.9ZM3388.96 1358.63 3406.63 1347.99C3409.07 1346.52 3412.24 1347.31 3413.7 1349.75 3415.17 1352.19 3414.39 1355.36 3411.95 1356.83L3394.28 1367.46C3391.84 1368.93 3388.67 1368.15 3387.2 1365.71 3385.73 1363.27 3386.52 1360.1 3388.96 1358.63ZM3424.3 1337.35 3441.97 1326.71C3444.41 1325.25 3447.58 1326.03 3449.04 1328.47 3450.51 1330.91 3449.73 1334.08 3447.29 1335.55L3429.62 1346.19C3427.18 1347.66 3424.01 1346.87 3422.54 1344.43 3421.07 1341.99 3421.86 1338.82 3424.3 1337.35ZM3459.64 1316.08 3477.31 1305.44C3479.75 1303.97 3482.92 1304.76 3484.38 1307.2 3485.85 1309.64 3485.07 1312.8 3482.63 1314.27L3464.96 1324.91C3462.52 1326.38 3459.35 1325.59 3457.88 1323.15 3456.41 1320.71 3457.2 1317.55 3459.64 1316.08ZM3494.98 1294.8 3512.65 1284.16C3515.09 1282.69 3518.26 1283.48 3519.72 1285.92 3521.19 1288.36 3520.41 1291.53 3517.97 1293L3500.3 1303.64C3497.86 1305.1 3494.69 1304.32 3493.22 1301.88 3491.75 1299.44 3492.54 1296.27 3494.98 1294.8ZM3530.32 1273.52 3538.46 1268.62 3548.78 1263.47C3551.33 1262.2 3554.42 1263.24 3555.69 1265.79 3556.96 1268.34 3555.92 1271.44 3553.37 1272.7L3543.78 1277.46 3535.64 1282.36C3533.2 1283.83 3530.03 1283.04 3528.56 1280.6 3527.09 1278.16 3527.88 1274.99 3530.32 1273.52ZM3567.25 1254.28 3585.71 1245.1C3588.26 1243.83 3591.36 1244.87 3592.62 1247.42 3593.89 1249.97 3592.85 1253.06 3590.3 1254.33L3571.84 1263.52C3569.29 1264.79 3566.19 1263.75 3564.93 1261.2 3563.66 1258.65 3564.7 1255.55 3567.25 1254.28ZM3604.18 1235.91 3622.64 1226.73C3625.19 1225.46 3628.29 1226.5 3629.56 1229.05 3630.83 1231.6 3629.79 1234.69 3627.24 1235.96L3608.77 1245.15C3606.22 1246.41 3603.13 1245.37 3601.86 1242.83 3600.59 1240.28 3601.63 1237.18 3604.18 1235.91ZM3641.11 1217.54 3659.58 1208.35C3662.13 1207.08 3665.22 1208.12 3666.49 1210.67 3667.76 1213.22 3666.72 1216.32 3664.17 1217.59L3645.7 1226.77C3643.15 1228.04 3640.06 1227 3638.79 1224.45 3637.52 1221.9 3638.56 1218.81 3641.11 1217.54ZM3678.04 1199.17 3696.51 1189.98C3699.06 1188.71 3702.15 1189.75 3703.42 1192.3 3704.69 1194.85 3703.65 1197.95 3701.1 1199.21L3682.64 1208.4C3680.09 1209.67 3676.99 1208.63 3675.72 1206.08 3674.45 1203.53 3675.49 1200.44 3678.04 1199.17ZM3714.98 1180.79 3733.44 1171.61C3735.99 1170.34 3739.09 1171.38 3740.35 1173.93 3741.62 1176.48 3740.58 1179.57 3738.03 1180.84L3719.57 1190.03C3717.02 1191.3 3713.92 1190.26 3712.66 1187.71 3711.39 1185.16 3712.43 1182.06 3714.98 1180.79ZM3752.65 1163.29 3771.64 1155.24C3774.27 1154.13 3777.29 1155.36 3778.4 1157.98 3779.51 1160.6 3778.29 1163.63 3775.67 1164.74L3756.67 1172.78C3754.05 1173.89 3751.03 1172.67 3749.91 1170.04 3748.8 1167.42 3750.03 1164.4 3752.65 1163.29ZM3790.64 1147.2 3809.63 1139.16C3812.25 1138.05 3815.28 1139.27 3816.39 1141.9 3817.5 1144.52 3816.27 1147.54 3813.65 1148.65L3794.66 1156.7C3792.04 1157.81 3789.01 1156.58 3787.9 1153.96 3786.79 1151.34 3788.01 1148.31 3790.64 1147.2ZM3828.62 1131.12 3847.61 1123.07C3850.24 1121.96 3853.26 1123.19 3854.37 1125.81 3855.48 1128.43 3854.26 1131.46 3851.64 1132.57L3832.64 1140.61C3830.02 1141.72 3826.99 1140.5 3825.88 1137.87 3824.77 1135.25 3826 1132.23 3828.62 1131.12ZM3866.61 1115.03 3885.6 1106.99C3888.22 1105.88 3891.25 1107.1 3892.36 1109.73 3893.47 1112.35 3892.24 1115.37 3889.62 1116.48L3870.63 1124.53C3868.01 1125.64 3864.98 1124.41 3863.87 1121.79 3862.76 1119.17 3863.98 1116.14 3866.61 1115.03ZM3904.59 1098.95 3923.58 1090.9C3926.2 1089.79 3929.23 1091.02 3930.34 1093.64 3931.45 1096.26 3930.23 1099.29 3927.6 1100.4L3908.61 1108.44C3905.99 1109.55 3902.96 1108.33 3901.85 1105.7 3900.74 1103.08 3901.97 1100.06 3904.59 1098.95ZM3940.11 1081.09 3956.6 1068.7C3958.88 1066.99 3962.11 1067.45 3963.82 1069.73 3965.53 1072.01 3965.07 1075.24 3962.79 1076.95L3946.31 1089.34C3944.03 1091.05 3940.8 1090.59 3939.09 1088.31 3937.38 1086.04 3937.83 1082.8 3940.11 1081.09ZM3973.09 1056.32 3989.58 1043.93C3991.86 1042.22 3995.09 1042.68 3996.8 1044.95 3998.51 1047.23 3998.05 1050.46 3995.77 1052.17L3979.28 1064.56C3977.01 1066.27 3973.78 1065.81 3972.07 1063.54 3970.35 1061.26 3970.81 1058.03 3973.09 1056.32ZM4006.07 1031.54 4022.56 1019.15C4024.84 1017.44 4028.07 1017.9 4029.78 1020.18 4031.49 1022.45 4031.03 1025.69 4028.75 1027.4L4012.26 1039.78C4009.99 1041.49 4006.76 1041.04 4005.04 1038.76 4003.33 1036.48 4003.79 1033.25 4006.07 1031.54ZM4039.05 1006.76 4055.54 994.374C4057.82 992.664 4061.05 993.123 4062.76 995.399 4064.47 997.676 4064.01 1000.91 4061.73 1002.62L4045.24 1015.01 4045.24 1015.01C4042.97 1016.72 4039.74 1016.26 4038.02 1013.98 4036.31 1011.71 4036.77 1008.47 4039.05 1006.76ZM4072.03 981.986 4088.52 969.597C4090.8 967.887 4094.03 968.346 4095.74 970.623 4097.45 972.899 4096.99 976.132 4094.71 977.842L4078.22 990.231C4075.95 991.941 4072.72 991.482 4071 989.205 4069.29 986.928 4069.75 983.696 4072.03 981.986ZM4105.01 957.209 4121.5 944.82C4123.78 943.11 4127.01 943.569 4128.72 945.846 4130.43 948.123 4129.97 951.355 4127.69 953.065L4111.2 965.454C4108.93 967.164 4105.7 966.705 4103.98 964.428 4102.27 962.152 4102.73 958.919 4105.01 957.209ZM4142.93 937.516 4163.42 935.21 4163.42 935.21C4166.25 934.892 4168.81 936.928 4169.12 939.758 4169.44 942.588 4167.41 945.14 4164.58 945.458L4164.58 945.458 4144.08 947.764C4141.25 948.082 4138.7 946.046 4138.38 943.216 4138.06 940.386 4140.1 937.834 4142.93 937.516ZM4183.92 932.905 4204.42 930.6C4207.25 930.281 4209.8 932.317 4210.12 935.147 4210.43 937.977 4208.4 940.529 4205.57 940.847L4205.57 940.847 4185.07 943.153C4182.24 943.471 4179.69 941.435 4179.37 938.605 4179.05 935.775 4181.09 933.223 4183.92 932.905ZM4224.91 928.294 4245.41 925.989C4248.24 925.671 4250.79 927.707 4251.11 930.536 4251.43 933.366 4249.39 935.918 4246.56 936.237L4226.06 938.542C4223.23 938.86 4220.68 936.824 4220.36 933.995 4220.05 931.165 4222.08 928.612 4224.91 928.294ZM4265.9 923.683 4286.4 921.378C4289.23 921.06 4291.78 923.096 4292.1 925.926 4292.42 928.756 4290.38 931.308 4287.55 931.626L4267.06 933.931C4264.23 934.25 4261.67 932.214 4261.36 929.384 4261.04 926.554 4263.07 924.002 4265.9 923.683ZM4306.89 919.073 4326.42 916.876C4329.25 916.558 4331.81 918.594 4332.12 921.424 4332.44 924.253 4330.41 926.806 4327.58 927.124L4308.05 929.321C4305.22 929.639 4302.67 927.603 4302.35 924.773 4302.03 921.943 4304.06 919.391 4306.89 919.073Z" fill="#FFC000" fill-rule="nonzero" fill-opacity="1"/></g><g><text fill="#595959" fill-opacity="1" font-family="Calibri,Calibri_MSFontService,sans-serif" font-style="normal" font-variant="normal" font-weight="400" font-stretch="normal" font-size="41" text-anchor="start" direction="ltr" writing-mode="lr-tb" unicode-bidi="normal" text-decoration="none" transform="matrix(1 0 0 1 1025.67 2256)">0</text></g><g><text fill="#595959" fill-opacity="1" font-family="Calibri,Calibri_MSFontService,sans-serif" font-style="normal" font-variant="normal" font-weight="400" font-stretch="normal" font-size="41" text-anchor="start" direction="ltr" writing-mode="lr-tb" unicode-bidi="normal" text-decoration="none" transform="matrix(1 0 0 1 962.971 2049)">2000</text></g><g><text fill="#595959" fill-opacity="1" font-family="Calibri,Calibri_MSFontService,sans-serif" font-style="normal" font-variant="normal" font-weight="400" font-stretch="normal" font-size="41" text-anchor="start" direction="ltr" writing-mode="lr-tb" unicode-bidi="normal" text-decoration="none" transform="matrix(1 0 0 1 962.971 1842)">4000</text></g><g><text fill="#595959" fill-opacity="1" font-family="Calibri,Calibri_MSFontService,sans-serif" font-style="normal" font-variant="normal" font-weight="400" font-stretch="normal" font-size="41" text-anchor="start" direction="ltr" writing-mode="lr-tb" unicode-bidi="normal" text-decoration="none" transform="matrix(1 0 0 1 962.971 1635)">6000</text></g><g><text fill="#595959" fill-opacity="1" font-family="Calibri,Calibri_MSFontService,sans-serif" font-style="normal" font-variant="normal" font-weight="400" font-stretch="normal" font-size="41" text-anchor="start" direction="ltr" writing-mode="lr-tb" unicode-bidi="normal" text-decoration="none" transform="matrix(1 0 0 1 962.971 1428)">8000</text></g><g><text fill="#595959" fill-opacity="1" font-family="Calibri,Calibri_MSFontService,sans-serif" font-style="normal" font-variant="normal" font-weight="400" font-stretch="normal" font-size="41" text-anchor="start" direction="ltr" writing-mode="lr-tb" unicode-bidi="normal" text-decoration="none" transform="matrix(1 0 0 1 942.071 1221)">10000</text></g><g><text fill="#595959" fill-opacity="1" font-family="Calibri,Calibri_MSFontService,sans-serif" font-style="normal" font-variant="normal" font-weight="400" font-stretch="normal" font-size="41" text-anchor="start" direction="ltr" writing-mode="lr-tb" unicode-bidi="normal" text-decoration="none" transform="matrix(1 0 0 1 942.071 1014)">12000</text></g><g><text fill="#595959" fill-opacity="1" font-family="Calibri,Calibri_MSFontService,sans-serif" font-style="normal" font-variant="normal" font-weight="400" font-stretch="normal" font-size="41" text-anchor="start" direction="ltr" writing-mode="lr-tb" unicode-bidi="normal" text-decoration="none" transform="matrix(1 0 0 1 942.071 807)">14000</text></g><g><text fill="#595959" fill-opacity="1" font-family="Calibri,Calibri_MSFontService,sans-serif" font-style="normal" font-variant="normal" font-weight="400" font-stretch="normal" font-size="41" text-anchor="start" direction="ltr" writing-mode="lr-tb" unicode-bidi="normal" text-decoration="none" transform="matrix(1 0 0 1 1164.58 2312)">s1</text></g><g><text fill="#595959" fill-opacity="1" font-family="Calibri,Calibri_MSFontService,sans-serif" font-style="normal" font-variant="normal" font-weight="400" font-stretch="normal" font-size="41" text-anchor="start" direction="ltr" writing-mode="lr-tb" unicode-bidi="normal" text-decoration="none" transform="matrix(1 0 0 1 1361.1 2312)">s2</text></g><g><text fill="#595959" fill-opacity="1" font-family="Calibri,Calibri_MSFontService,sans-serif" font-style="normal" font-variant="normal" font-weight="400" font-stretch="normal" font-size="41" text-anchor="start" direction="ltr" writing-mode="lr-tb" unicode-bidi="normal" text-decoration="none" transform="matrix(1 0 0 1 1557.62 2312)">s3</text></g><g><text fill="#595959" fill-opacity="1" font-family="Calibri,Calibri_MSFontService,sans-serif" font-style="normal" font-variant="normal" font-weight="400" font-stretch="normal" font-size="41" text-anchor="start" direction="ltr" writing-mode="lr-tb" unicode-bidi="normal" text-decoration="none" transform="matrix(1 0 0 1 1754.14 2312)">s4</text></g><g><text fill="#595959" fill-opacity="1" font-family="Calibri,Calibri_MSFontService,sans-serif" font-style="normal" font-variant="normal" font-weight="400" font-stretch="normal" font-size="41" text-anchor="start" direction="ltr" writing-mode="lr-tb" unicode-bidi="normal" text-decoration="none" transform="matrix(1 0 0 1 1950.66 2312)">s5</text></g><g><text fill="#595959" fill-opacity="1" font-family="Calibri,Calibri_MSFontService,sans-serif" font-style="normal" font-variant="normal" font-weight="400" font-stretch="normal" font-size="41" text-anchor="start" direction="ltr" writing-mode="lr-tb" unicode-bidi="normal" text-decoration="none" transform="matrix(1 0 0 1 2147.18 2312)">s6</text></g><g><text fill="#595959" fill-opacity="1" font-family="Calibri,Calibri_MSFontService,sans-serif" font-style="normal" font-variant="normal" font-weight="400" font-stretch="normal" font-size="41" text-anchor="start" direction="ltr" writing-mode="lr-tb" unicode-bidi="normal" text-decoration="none" transform="matrix(1 0 0 1 2343.7 2312)">s7</text></g><g><text fill="#595959" fill-opacity="1" font-family="Calibri,Calibri_MSFontService,sans-serif" font-style="normal" font-variant="normal" font-weight="400" font-stretch="normal" font-size="41" text-anchor="start" direction="ltr" writing-mode="lr-tb" unicode-bidi="normal" text-decoration="none" transform="matrix(1 0 0 1 2540.22 2312)">s8</text></g><g><text fill="#595959" fill-opacity="1" font-family="Calibri,Calibri_MSFontService,sans-serif" font-style="normal" font-variant="normal" font-weight="400" font-stretch="normal" font-size="41" text-anchor="start" direction="ltr" writing-mode="lr-tb" unicode-bidi="normal" text-decoration="none" transform="matrix(1 0 0 1 2736.73 2312)">s9</text></g><g><text fill="#595959" fill-opacity="1" font-family="Calibri,Calibri_MSFontService,sans-serif" font-style="normal" font-variant="normal" font-weight="400" font-stretch="normal" font-size="41" text-anchor="start" direction="ltr" writing-mode="lr-tb" unicode-bidi="normal" text-decoration="none" transform="matrix(1 0 0 1 2922.8 2312)">s10</text></g><g><text fill="#595959" fill-opacity="1" font-family="Calibri,Calibri_MSFontService,sans-serif" font-style="normal" font-variant="normal" font-weight="400" font-stretch="normal" font-size="41" text-anchor="start" direction="ltr" writing-mode="lr-tb" unicode-bidi="normal" text-decoration="none" transform="matrix(1 0 0 1 3119.32 2312)">s11</text></g><g><text fill="#595959" fill-opacity="1" font-family="Calibri,Calibri_MSFontService,sans-serif" font-style="normal" font-variant="normal" font-weight="400" font-stretch="normal" font-size="41" text-anchor="start" direction="ltr" writing-mode="lr-tb" unicode-bidi="normal" text-decoration="none" transform="matrix(1 0 0 1 3315.84 2312)">s12</text></g><g><text fill="#595959" fill-opacity="1" font-family="Calibri,Calibri_MSFontService,sans-serif" font-style="normal" font-variant="normal" font-weight="400" font-stretch="normal" font-size="41" text-anchor="start" direction="ltr" writing-mode="lr-tb" unicode-bidi="normal" text-decoration="none" transform="matrix(1 0 0 1 3512.36 2312)">s13</text></g><g><text fill="#595959" fill-opacity="1" font-family="Calibri,Calibri_MSFontService,sans-serif" font-style="normal" font-variant="normal" font-weight="400" font-stretch="normal" font-size="41" text-anchor="start" direction="ltr" writing-mode="lr-tb" unicode-bidi="normal" text-decoration="none" transform="matrix(1 0 0 1 3708.88 2312)">s14</text></g><g><text fill="#595959" fill-opacity="1" font-family="Calibri,Calibri_MSFontService,sans-serif" font-style="normal" font-variant="normal" font-weight="400" font-stretch="normal" font-size="41" text-anchor="start" direction="ltr" writing-mode="lr-tb" unicode-bidi="normal" text-decoration="none" transform="matrix(1 0 0 1 3905.4 2312)">s15</text></g><g><text fill="#595959" fill-opacity="1" font-family="Calibri,Calibri_MSFontService,sans-serif" font-style="normal" font-variant="normal" font-weight="400" font-stretch="normal" font-size="41" text-anchor="start" direction="ltr" writing-mode="lr-tb" unicode-bidi="normal" text-decoration="none" transform="matrix(1 0 0 1 4101.92 2312)">s16</text></g><g><text fill="#595959" fill-opacity="1" font-family="Calibri,Calibri_MSFontService,sans-serif" font-style="normal" font-variant="normal" font-weight="400" font-stretch="normal" font-size="41" text-anchor="start" direction="ltr" writing-mode="lr-tb" unicode-bidi="normal" text-decoration="none" transform="matrix(1 0 0 1 4298.44 2312)">s17</text></g><g><text fill="#595959" fill-opacity="1" font-family="Calibri,Calibri_MSFontService,sans-serif" font-style="normal" font-variant="normal" font-weight="400" font-stretch="normal" font-size="37" text-anchor="start" direction="ltr" writing-mode="lr-tb" unicode-bidi="normal" text-decoration="none" transform="matrix(6.12323e-17 -1 1 6.12323e-17 942.494 1581)">Euro (€)</text></g><g><text fill="#595959" fill-opacity="1" font-family="Calibri,Calibri_MSFontService,sans-serif" font-style="normal" font-variant="normal" font-weight="400" font-stretch="normal" font-size="64" text-anchor="start" direction="ltr" writing-mode="lr-tb" unicode-bidi="normal" text-decoration="none" transform="matrix(1 0 0 1 2435.18 719)">PV e EV Accumulati</text></g><g><path d="M2366 2418 2481 2418" stroke="#1F497D" stroke-width="10.3125" stroke-linecap="round" stroke-linejoin="round" stroke-miterlimit="10" stroke-opacity="1" fill="none" fill-rule="evenodd"/></g><g><text fill="#595959" fill-opacity="1" font-family="Calibri,Calibri_MSFontService,sans-serif" font-style="normal" font-variant="normal" font-weight="400" font-stretch="normal" font-size="41" text-anchor="start" direction="ltr" writing-mode="lr-tb" unicode-bidi="normal" text-decoration="none" transform="matrix(1 0 0 1 2493.75 2428)">PV acc. (€)</text></g><g><path d="M2727 2412.84 2747.62 2412.84C2750.47 2412.84 2752.78 2415.15 2752.78 2418 2752.78 2420.85 2750.47 2423.16 2747.62 2423.16L2727 2423.16C2724.15 2423.16 2721.84 2420.85 2721.84 2418 2721.84 2415.15 2724.15 2412.84 2727 2412.84ZM2768.25 2412.84 2788.88 2412.84C2791.72 2412.84 2794.03 2415.15 2794.03 2418 2794.03 2420.85 2791.72 2423.16 2788.88 2423.16L2768.25 2423.16C2765.4 2423.16 2763.09 2420.85 2763.09 2418 2763.09 2415.15 2765.4 2412.84 2768.25 2412.84ZM2809.5 2412.84 2830.12 2412.84C2832.97 2412.84 2835.28 2415.15 2835.28 2418 2835.28 2420.85 2832.97 2423.16 2830.12 2423.16L2809.5 2423.16C2806.65 2423.16 2804.34 2420.85 2804.34 2418 2804.34 2415.15 2806.65 2412.84 2809.5 2412.84Z" fill="#FFC000" fill-rule="nonzero" fill-opacity="1"/></g><g><text fill="#595959" fill-opacity="1" font-family="Calibri,Calibri_MSFontService,sans-serif" font-style="normal" font-variant="normal" font-weight="400" font-stretch="normal" font-size="41" text-anchor="start" direction="ltr" writing-mode="lr-tb" unicode-bidi="normal" text-decoration="none" transform="matrix(1 0 0 1 2854.86 2428)">EV acc. (€)</text></g><rect x="901.5" y="623.5" width="3572" height="1861" stroke="#D9D9D9" stroke-width="3.4375" stroke-linecap="butt" stroke-linejoin="round" stroke-miterlimit="10" stroke-opacity="1" fill="none"/></g></g></svg>