<svg width="3579" height="1870" xmlns="http://www.w3.org/2000/svg" xmlns:xlink="http://www.w3.org/1999/xlink" xml:space="preserve" overflow="hidden"><defs><clipPath id="clip0"><rect x="898" y="618" width="3579" height="1870"/></clipPath><clipPath id="clip1"><rect x="898" y="618" width="3579" height="1870"/></clipPath></defs><g clip-path="url(#clip0)" transform="translate(-898 -618)"><g clip-path="url(#clip1)"><rect x="901" y="623" width="3572" height="1861" fill="#FFFFFF" fill-opacity="1"/><g><path d="M1084.5 2039.57 4425.5 2039.57M1084.5 1832.56 4425.5 1832.56M1084.5 1625.55 4425.5 1625.55M1084.5 1418.55 4425.5 1418.55M1084.5 1211.54 4425.5 1211.54M1084.5 1003.53 4425.5 1003.53M1084.5 796.5 4425.5 796.5" stroke="#D9D9D9" stroke-width="3.4375" stroke-linecap="butt" stroke-linejoin="round" stroke-miterlimit="10" stroke-opacity="1" fill="none" fill-rule="nonzero"/></g><g><path d="M1084.5 2246.5 4425.5 2246.5" stroke="#D9D9D9" stroke-width="3.4375" stroke-linecap="butt" stroke-linejoin="round" stroke-miterlimit="10" stroke-opacity="1" fill="none" fill-rule="evenodd"/></g><g><path d="M1183 2214 1380.05 2189.07 1576.05 2166.07 1773.06 2136.07 1969.06 2095.07 2166.07 2059.07 2362.08 2011.07 2559.08 1965.06 2755.09 1873.06 2952.1 1774.06 3148.1 1622.05 3345.11 1511.05 3541.12 1345.04 3738.12 1230.04 3934.13 1131.04 4131.14 1031.03 4327 933" stroke="#1F497D" stroke-width="10.3125" stroke-linecap="round" stroke-linejoin="round" stroke-miterlimit="10" stroke-opacity="1" fill="none" fill-rule="nonzero"/></g><g><path d="M1182.35 2215.88 1202.81 2213.3C1205.64 2212.94 1208.22 2214.94 1208.58 2217.76 1208.93 2220.59 1206.93 2223.17 1204.11 2223.53L1183.65 2226.12C1180.82 2226.47 1178.24 2224.47 1177.88 2221.65 1177.53 2218.82 1179.53 2216.24 1182.35 2215.88ZM1223.28 2210.71 1243.74 2208.12C1246.56 2207.76 1249.14 2209.76 1249.5 2212.59 1249.86 2215.41 1247.86 2217.99 1245.03 2218.35L1224.57 2220.94C1221.75 2221.3 1219.17 2219.3 1218.81 2216.47 1218.45 2213.64 1220.45 2211.06 1223.28 2210.71ZM1264.2 2205.53 1284.66 2202.94C1287.49 2202.58 1290.07 2204.58 1290.42 2207.41 1290.78 2210.24 1288.78 2212.82 1285.96 2213.17L1265.49 2215.76C1262.67 2216.12 1260.09 2214.12 1259.73 2211.29 1259.37 2208.47 1261.38 2205.89 1264.2 2205.53ZM1305.12 2200.35 1325.59 2197.76C1328.41 2197.41 1330.99 2199.41 1331.35 2202.23 1331.71 2205.06 1329.71 2207.64 1326.88 2208L1306.42 2210.58C1303.59 2210.94 1301.01 2208.94 1300.66 2206.12 1300.3 2203.29 1302.3 2200.71 1305.12 2200.35ZM1346.05 2195.18 1366.51 2192.59C1369.34 2192.23 1371.92 2194.23 1372.27 2197.06 1372.63 2199.88 1370.63 2202.46 1367.8 2202.82L1347.34 2205.41C1344.52 2205.76 1341.94 2203.76 1341.58 2200.94 1341.22 2198.11 1343.22 2195.53 1346.05 2195.18ZM1386.97 2189.99 1407.42 2187.38C1410.25 2187.02 1412.83 2189.02 1413.19 2191.84 1413.55 2194.67 1411.55 2197.25 1408.73 2197.61L1388.27 2200.22C1385.45 2200.58 1382.86 2198.58 1382.5 2195.76 1382.14 2192.93 1384.14 2190.35 1386.97 2189.99ZM1427.88 2184.77 1448.34 2182.16C1451.17 2181.8 1453.75 2183.8 1454.11 2186.62 1454.47 2189.45 1452.47 2192.03 1449.65 2192.39L1429.19 2195C1426.36 2195.36 1423.78 2193.36 1423.42 2190.54 1423.06 2187.71 1425.06 2185.13 1427.88 2184.77ZM1468.8 2179.55 1489.26 2176.94C1492.09 2176.58 1494.67 2178.58 1495.03 2181.41 1495.39 2184.23 1493.39 2186.81 1490.57 2187.17L1470.11 2189.78C1467.28 2190.14 1464.7 2188.14 1464.34 2185.32 1463.98 2182.5 1465.98 2179.91 1468.8 2179.55ZM1509.72 2174.33 1530.18 2171.72C1533.01 2171.36 1535.59 2173.36 1535.95 2176.19 1536.31 2179.01 1534.31 2181.59 1531.48 2181.95L1511.03 2184.56C1508.2 2184.92 1505.62 2182.93 1505.26 2180.1 1504.9 2177.28 1506.9 2174.69 1509.72 2174.33ZM1550.64 2169.11 1571.1 2166.5C1573.92 2166.14 1576.51 2168.14 1576.87 2170.97 1577.23 2173.79 1575.23 2176.37 1572.4 2176.73L1551.94 2179.34C1549.12 2179.7 1546.54 2177.71 1546.18 2174.88 1545.82 2172.06 1547.81 2169.47 1550.64 2169.11ZM1591.38 2163.52 1611.77 2160.42C1614.58 2159.99 1617.21 2161.92 1617.64 2164.74 1618.07 2167.55 1616.14 2170.18 1613.32 2170.61L1592.93 2173.72C1590.12 2174.15 1587.49 2172.21 1587.06 2169.4 1586.63 2166.58 1588.56 2163.95 1591.38 2163.52ZM1632.16 2157.31 1652.55 2154.21C1655.36 2153.78 1657.99 2155.71 1658.42 2158.53 1658.85 2161.34 1656.92 2163.97 1654.1 2164.4L1633.71 2167.51C1630.9 2167.94 1628.27 2166 1627.84 2163.19 1627.41 2160.37 1629.34 2157.74 1632.16 2157.31ZM1672.94 2151.1 1693.33 2148C1696.14 2147.57 1698.77 2149.5 1699.2 2152.32 1699.63 2155.13 1697.7 2157.76 1694.88 2158.19L1674.49 2161.3C1671.68 2161.72 1669.05 2159.79 1668.62 2156.97 1668.19 2154.16 1670.12 2151.53 1672.94 2151.1ZM1713.72 2144.89 1734.11 2141.79C1736.92 2141.36 1739.55 2143.29 1739.98 2146.11 1740.41 2148.92 1738.48 2151.55 1735.66 2151.98L1715.27 2155.09C1712.46 2155.51 1709.83 2153.58 1709.4 2150.76 1708.97 2147.95 1710.9 2145.32 1713.72 2144.89ZM1754.5 2138.68 1772.28 2135.97 1774.42 2135.44C1777.19 2134.78 1779.97 2136.48 1780.64 2139.25 1781.3 2142.02 1779.59 2144.81 1776.82 2145.47L1773.83 2146.17 1756.05 2148.88C1753.24 2149.3 1750.61 2147.37 1750.18 2144.55 1749.75 2141.74 1751.68 2139.11 1754.5 2138.68ZM1794.48 2130.63 1814.53 2125.82C1817.3 2125.16 1820.09 2126.86 1820.75 2129.63 1821.41 2132.4 1819.71 2135.19 1816.94 2135.85L1796.88 2140.66C1794.11 2141.32 1791.33 2139.62 1790.66 2136.85 1790 2134.08 1791.71 2131.3 1794.48 2130.63ZM1834.59 2121.01 1854.65 2116.2C1857.41 2115.54 1860.2 2117.25 1860.86 2120.02 1861.53 2122.78 1859.82 2125.57 1857.05 2126.23L1836.99 2131.04C1834.22 2131.71 1831.44 2130 1830.78 2127.23 1830.11 2124.46 1831.82 2121.68 1834.59 2121.01ZM1874.7 2111.39 1894.76 2106.58C1897.53 2105.92 1900.31 2107.63 1900.97 2110.4 1901.64 2113.17 1899.93 2115.95 1897.16 2116.61L1877.11 2121.42C1874.34 2122.09 1871.55 2120.38 1870.89 2117.61 1870.23 2114.84 1871.93 2112.06 1874.7 2111.39ZM1914.81 2101.78 1934.87 2096.97C1937.64 2096.3 1940.42 2098.01 1941.09 2100.78 1941.75 2103.55 1940.05 2106.33 1937.28 2106.99L1917.22 2111.8C1914.45 2112.47 1911.67 2110.76 1911 2107.99 1910.34 2105.22 1912.05 2102.44 1914.81 2101.78ZM1954.93 2092.16 1967.86 2089.05 1975.31 2087.65C1978.11 2087.12 1980.8 2088.97 1981.33 2091.77 1981.86 2094.56 1980.01 2097.26 1977.21 2097.78L1970.27 2099.08 1957.33 2102.18C1954.56 2102.85 1951.78 2101.14 1951.12 2098.37 1950.45 2095.6 1952.16 2092.82 1954.93 2092.16ZM1995.58 2083.84 2015.85 2080.03C2018.65 2079.51 2021.35 2081.35 2021.87 2084.15 2022.4 2086.95 2020.55 2089.64 2017.76 2090.17L1997.48 2093.98C1994.69 2094.5 1991.99 2092.66 1991.47 2089.86 1990.94 2087.06 1992.78 2084.37 1995.58 2083.84ZM2036.12 2076.23 2056.39 2072.42C2059.19 2071.9 2061.89 2073.74 2062.41 2076.54 2062.94 2079.34 2061.1 2082.03 2058.3 2082.56L2038.03 2086.36C2035.23 2086.89 2032.53 2085.05 2032.01 2082.25 2031.48 2079.45 2033.32 2076.75 2036.12 2076.23ZM2076.66 2068.61 2096.93 2064.81C2099.73 2064.28 2102.43 2066.12 2102.95 2068.92 2103.48 2071.72 2101.64 2074.42 2098.84 2074.94L2078.57 2078.75C2075.77 2079.27 2073.07 2077.43 2072.55 2074.63 2072.02 2071.83 2073.86 2069.14 2076.66 2068.61ZM2117.2 2061 2137.48 2057.19C2140.27 2056.67 2142.97 2058.51 2143.49 2061.31 2144.02 2064.11 2142.18 2066.8 2139.38 2067.33L2119.11 2071.13C2116.31 2071.66 2113.61 2069.82 2113.09 2067.02 2112.56 2064.22 2114.41 2061.52 2117.2 2061ZM2157.75 2053.38 2165.12 2052 2177.59 2048.94C2180.36 2048.26 2183.15 2049.95 2183.83 2052.72 2184.5 2055.49 2182.81 2058.28 2180.04 2058.95L2167.02 2062.14 2159.65 2063.52C2156.85 2064.05 2154.16 2062.2 2153.63 2059.4 2153.1 2056.61 2154.95 2053.91 2157.75 2053.38ZM2197.62 2044.03 2217.66 2039.13C2220.42 2038.45 2223.21 2040.14 2223.89 2042.91 2224.57 2045.67 2222.88 2048.46 2220.11 2049.14L2200.08 2054.05C2197.31 2054.73 2194.52 2053.03 2193.84 2050.27 2193.16 2047.5 2194.86 2044.71 2197.62 2044.03ZM2237.69 2034.22 2257.72 2029.31C2260.49 2028.64 2263.28 2030.33 2263.96 2033.1 2264.63 2035.86 2262.94 2038.65 2260.18 2039.33L2240.14 2044.24C2237.38 2044.91 2234.59 2043.22 2233.91 2040.45 2233.23 2037.69 2234.92 2034.9 2237.69 2034.22ZM2277.76 2024.41 2297.79 2019.5C2300.55 2018.82 2303.35 2020.52 2304.02 2023.28 2304.7 2026.05 2303.01 2028.84 2300.24 2029.52L2280.21 2034.42C2277.44 2035.1 2274.65 2033.41 2273.97 2030.64 2273.3 2027.88 2274.99 2025.08 2277.76 2024.41ZM2317.82 2014.6 2337.85 2009.69C2340.62 2009.01 2343.41 2010.71 2344.09 2013.47 2344.77 2016.24 2343.07 2019.03 2340.31 2019.71L2320.27 2024.61C2317.51 2025.29 2314.72 2023.6 2314.04 2020.83 2313.36 2018.06 2315.06 2015.27 2317.82 2014.6ZM2357.89 2004.78 2360.85 2004.06 2377.66 1999.45C2380.41 1998.69 2383.25 2000.31 2384 2003.06 2384.75 2005.8 2383.14 2008.64 2380.39 2009.39L2363.3 2014.07 2360.34 2014.8C2357.57 2015.48 2354.78 2013.78 2354.11 2011.02 2353.43 2008.25 2355.12 2005.46 2357.89 2004.78ZM2397.55 1993.99 2417.45 1988.54C2420.19 1987.79 2423.03 1989.41 2423.78 1992.15 2424.53 1994.9 2422.92 1997.74 2420.17 1998.49L2400.28 2003.94C2397.53 2004.69 2394.7 2003.08 2393.94 2000.33 2393.19 1997.58 2394.81 1994.75 2397.55 1993.99ZM2437.34 1983.09 2457.23 1977.64C2459.97 1976.88 2462.81 1978.5 2463.56 1981.25 2464.32 1983.99 2462.7 1986.83 2459.95 1987.58L2440.06 1993.04C2437.32 1993.79 2434.48 1992.17 2433.73 1989.43 2432.97 1986.68 2434.59 1983.84 2437.34 1983.09ZM2477.12 1972.19 2497.01 1966.73C2499.76 1965.98 2502.59 1967.6 2503.35 1970.34 2504.1 1973.09 2502.48 1975.93 2499.74 1976.68L2479.85 1982.13C2477.1 1982.88 2474.26 1981.27 2473.51 1978.52 2472.76 1975.77 2474.37 1972.94 2477.12 1972.19ZM2516.9 1961.28 2536.79 1955.83C2539.54 1955.07 2542.38 1956.69 2543.13 1959.44 2543.88 1962.18 2542.27 1965.02 2539.52 1965.77L2519.63 1971.23C2516.88 1971.98 2514.05 1970.36 2513.29 1967.62 2512.54 1964.87 2514.16 1962.03 2516.9 1961.28ZM2556.68 1950.38 2557.72 1950.09 2556.99 1950.35 2574.86 1942.42C2577.46 1941.26 2580.51 1942.44 2581.67 1945.04 2582.82 1947.64 2581.65 1950.69 2579.04 1951.85L2561.18 1959.78C2560.94 1959.88 2560.7 1959.97 2560.45 1960.04L2559.41 1960.32C2556.66 1961.07 2553.83 1959.46 2553.07 1956.71 2552.32 1953.97 2553.94 1951.13 2556.68 1950.38ZM2593.71 1934.05 2612.56 1925.68C2615.17 1924.53 2618.21 1925.7 2619.37 1928.31 2620.52 1930.91 2619.35 1933.95 2616.75 1935.11L2597.9 1943.48C2595.29 1944.63 2592.25 1943.46 2591.09 1940.86 2589.94 1938.25 2591.11 1935.21 2593.71 1934.05ZM2631.42 1917.32 2650.27 1908.95C2652.87 1907.79 2655.92 1908.97 2657.07 1911.57 2658.23 1914.17 2657.05 1917.22 2654.45 1918.37L2635.6 1926.74C2633 1927.9 2629.95 1926.72 2628.79 1924.12 2627.64 1921.52 2628.81 1918.47 2631.42 1917.32ZM2669.12 1900.58 2687.97 1892.21C2690.57 1891.06 2693.62 1892.23 2694.77 1894.83 2695.93 1897.44 2694.76 1900.48 2692.15 1901.64L2673.3 1910.01C2670.7 1911.16 2667.65 1909.99 2666.5 1907.39 2665.34 1904.78 2666.51 1901.74 2669.12 1900.58ZM2706.82 1883.85 2725.67 1875.48C2728.27 1874.32 2731.32 1875.5 2732.48 1878.1 2733.63 1880.7 2732.46 1883.75 2729.86 1884.9L2711 1893.27C2708.4 1894.43 2705.35 1893.25 2704.2 1890.65 2703.04 1888.05 2704.22 1885 2706.82 1883.85ZM2744.52 1867.11 2753 1863.35 2763.55 1858.9C2766.17 1857.8 2769.2 1859.03 2770.3 1861.65 2771.41 1864.28 2770.18 1867.3 2767.55 1868.41L2757.18 1872.77 2748.71 1876.54C2746.1 1877.69 2743.06 1876.52 2741.9 1873.92 2740.75 1871.31 2741.92 1868.27 2744.52 1867.11ZM2782.56 1850.89 2801.56 1842.89C2804.19 1841.78 2807.21 1843.01 2808.32 1845.64 2809.42 1848.26 2808.19 1851.28 2805.57 1852.39L2786.56 1860.4C2783.94 1861.5 2780.91 1860.27 2779.81 1857.65 2778.7 1855.02 2779.93 1852 2782.56 1850.89ZM2820.57 1834.88 2839.58 1826.87C2842.2 1825.76 2845.23 1827 2846.33 1829.62 2847.44 1832.24 2846.21 1835.27 2843.58 1836.37L2824.57 1844.38C2821.95 1845.49 2818.93 1844.26 2817.82 1841.63 2816.72 1839.01 2817.95 1835.98 2820.57 1834.88ZM2858.58 1818.86 2877.59 1810.85C2880.22 1809.75 2883.24 1810.98 2884.35 1813.6 2885.45 1816.23 2884.22 1819.25 2881.6 1820.36L2862.59 1828.37C2859.96 1829.47 2856.94 1828.24 2855.83 1825.62 2854.73 1822.99 2855.96 1819.97 2858.58 1818.86ZM2896.6 1802.85 2915.61 1794.84C2918.23 1793.73 2921.25 1794.96 2922.36 1797.59 2923.46 1800.21 2922.23 1803.24 2919.61 1804.34L2900.6 1812.35C2897.98 1813.46 2894.95 1812.22 2893.85 1809.6 2892.74 1806.98 2893.97 1803.95 2896.6 1802.85ZM2934.61 1786.83 2950.09 1780.31 2948.82 1781.07 2951.78 1778.65C2953.98 1776.84 2957.23 1777.16 2959.04 1779.36 2960.84 1781.56 2960.53 1784.81 2958.32 1786.62L2955.37 1789.04C2954.99 1789.36 2954.56 1789.62 2954.1 1789.81L2938.62 1796.33C2935.99 1797.44 2932.97 1796.21 2931.86 1793.58 2930.76 1790.96 2931.99 1787.94 2934.61 1786.83ZM2967.72 1765.56 2983.65 1752.46C2985.85 1750.66 2989.1 1750.97 2990.91 1753.18 2992.72 1755.38 2992.4 1758.62 2990.2 1760.43L2974.26 1773.52C2972.06 1775.33 2968.81 1775.01 2967.01 1772.81 2965.2 1770.61 2965.52 1767.36 2967.72 1765.56ZM2999.59 1739.37 3015.53 1726.28C3017.73 1724.47 3020.98 1724.79 3022.79 1726.99 3024.59 1729.19 3024.28 1732.44 3022.07 1734.25L3006.14 1747.34C3003.94 1749.15 3000.69 1748.83 2998.88 1746.63 2997.07 1744.43 2997.39 1741.18 2999.59 1739.37ZM3031.47 1713.19 3047.4 1700.1C3049.6 1698.29 3052.85 1698.61 3054.66 1700.81 3056.47 1703.01 3056.15 1706.26 3053.95 1708.07L3038.01 1721.16C3035.81 1722.97 3032.56 1722.65 3030.76 1720.45 3028.95 1718.25 3029.27 1715 3031.47 1713.19ZM3063.34 1687.01 3079.28 1673.91C3081.48 1672.11 3084.73 1672.43 3086.54 1674.63 3088.34 1676.83 3088.03 1680.08 3085.82 1681.88L3069.89 1694.98C3067.69 1696.78 3064.44 1696.46 3062.63 1694.26 3060.82 1692.06 3061.14 1688.81 3063.34 1687.01ZM3095.22 1660.82 3111.15 1647.73C3113.35 1645.92 3116.6 1646.24 3118.41 1648.44 3120.22 1650.64 3119.9 1653.89 3117.7 1655.7L3101.76 1668.79C3099.56 1670.6 3096.31 1670.28 3094.51 1668.08 3092.7 1665.88 3093.02 1662.63 3095.22 1660.82ZM3127.09 1634.64 3143.03 1621.55C3145.23 1619.74 3148.48 1620.06 3150.29 1622.26 3152.09 1624.46 3151.78 1627.71 3149.57 1629.52L3133.64 1642.61C3131.44 1644.42 3128.19 1644.1 3126.38 1641.9 3124.57 1639.7 3124.89 1636.45 3127.09 1634.64ZM3159.68 1608.98 3176.21 1596.65C3178.49 1594.94 3181.72 1595.41 3183.43 1597.69 3185.13 1599.98 3184.66 1603.21 3182.38 1604.91L3165.85 1617.25C3163.57 1618.95 3160.34 1618.48 3158.63 1616.2 3156.93 1613.91 3157.4 1610.68 3159.68 1608.98ZM3192.74 1584.31 3209.27 1571.98C3211.55 1570.27 3214.78 1570.74 3216.49 1573.03 3218.19 1575.31 3217.72 1578.54 3215.44 1580.24L3198.91 1592.58C3196.63 1594.28 3193.4 1593.81 3191.69 1591.53 3189.99 1589.24 3190.46 1586.01 3192.74 1584.31ZM3225.8 1559.64 3242.33 1547.31C3244.61 1545.6 3247.85 1546.07 3249.55 1548.36 3251.25 1550.64 3250.78 1553.87 3248.5 1555.57L3231.97 1567.91C3229.69 1569.61 3226.46 1569.14 3224.75 1566.86 3223.05 1564.58 3223.52 1561.34 3225.8 1559.64ZM3258.86 1534.97 3275.39 1522.64C3277.67 1520.93 3280.91 1521.4 3282.61 1523.69 3284.31 1525.97 3283.84 1529.2 3281.56 1530.9L3265.03 1543.24C3262.75 1544.94 3259.52 1544.47 3257.81 1542.19 3256.11 1539.91 3256.58 1536.68 3258.86 1534.97ZM3291.92 1510.3 3308.45 1497.97C3310.73 1496.27 3313.97 1496.73 3315.67 1499.02 3317.37 1501.3 3316.9 1504.53 3314.62 1506.23L3298.09 1518.57C3295.81 1520.27 3292.58 1519.8 3290.87 1517.52 3289.17 1515.24 3289.64 1512.01 3291.92 1510.3ZM3324.98 1485.63 3341.51 1473.3C3343.8 1471.6 3347.03 1472.07 3348.73 1474.35 3350.43 1476.63 3349.96 1479.86 3347.68 1481.56L3331.15 1493.9C3328.87 1495.6 3325.64 1495.13 3323.93 1492.85 3322.23 1490.57 3322.7 1487.34 3324.98 1485.63ZM3358.38 1461.24 3375.16 1449.25C3377.48 1447.59 3380.7 1448.13 3382.35 1450.45 3384.01 1452.76 3383.47 1455.99 3381.15 1457.64L3364.37 1469.63C3362.05 1471.28 3358.83 1470.75 3357.18 1468.43 3355.52 1466.11 3356.06 1462.89 3358.38 1461.24ZM3391.94 1437.26 3408.73 1425.27C3411.04 1423.62 3414.26 1424.15 3415.92 1426.47 3417.57 1428.79 3417.04 1432.01 3414.72 1433.66L3397.94 1445.65C3395.62 1447.31 3392.4 1446.77 3390.74 1444.45 3389.09 1442.14 3389.62 1438.92 3391.94 1437.26ZM3425.51 1413.28 3442.29 1401.3C3444.61 1399.64 3447.83 1400.18 3449.48 1402.5 3451.14 1404.81 3450.6 1408.03 3448.29 1409.69L3431.5 1421.68C3429.19 1423.33 3425.96 1422.79 3424.31 1420.48 3422.65 1418.16 3423.19 1414.94 3425.51 1413.28ZM3459.07 1389.31 3475.86 1377.32C3478.18 1375.67 3481.4 1376.2 3483.05 1378.52 3484.71 1380.84 3484.17 1384.06 3481.85 1385.71L3465.07 1397.7C3462.75 1399.36 3459.53 1398.82 3457.88 1396.5 3456.22 1394.18 3456.76 1390.96 3459.07 1389.31ZM3492.64 1365.33 3509.42 1353.34C3511.74 1351.69 3514.96 1352.23 3516.62 1354.54 3518.27 1356.86 3517.74 1360.08 3515.42 1361.74L3498.64 1373.72C3496.32 1375.38 3493.1 1374.84 3491.44 1372.53 3489.79 1370.21 3490.32 1366.99 3492.64 1365.33ZM3526.21 1341.36 3538.12 1332.85 3543.69 1329.57C3546.15 1328.14 3549.3 1328.97 3550.74 1331.43 3552.18 1333.89 3551.35 1337.04 3548.89 1338.48L3544.11 1341.24 3532.2 1349.75C3529.88 1351.4 3526.66 1350.87 3525.01 1348.55 3523.35 1346.23 3523.89 1343.01 3526.21 1341.36ZM3561.5 1319.17 3579.31 1308.78C3581.77 1307.34 3584.93 1308.17 3586.36 1310.63 3587.8 1313.09 3586.97 1316.25 3584.51 1317.68L3566.7 1328.08C3564.24 1329.52 3561.08 1328.69 3559.65 1326.23 3558.21 1323.77 3559.04 1320.61 3561.5 1319.17ZM3597.12 1298.38 3614.94 1287.98C3617.4 1286.55 3620.55 1287.38 3621.99 1289.83 3623.42 1292.29 3622.59 1295.45 3620.13 1296.89L3602.32 1307.28C3599.86 1308.72 3596.71 1307.89 3595.27 1305.43 3593.83 1302.97 3594.66 1299.81 3597.12 1298.38ZM3632.75 1277.58 3650.56 1267.18C3653.02 1265.75 3656.18 1266.58 3657.61 1269.04 3659.05 1271.5 3658.22 1274.66 3655.76 1276.09L3637.95 1286.49C3635.49 1287.92 3632.33 1287.09 3630.89 1284.64 3629.46 1282.18 3630.29 1279.02 3632.75 1277.58ZM3668.37 1256.79 3686.18 1246.39C3688.64 1244.95 3691.8 1245.78 3693.24 1248.24 3694.67 1250.7 3693.84 1253.86 3691.38 1255.3L3673.57 1265.69C3671.11 1267.13 3667.95 1266.3 3666.52 1263.84 3665.08 1261.38 3665.91 1258.22 3668.37 1256.79ZM3704 1235.99 3721.81 1225.59C3724.27 1224.16 3727.43 1224.99 3728.86 1227.45 3730.3 1229.91 3729.47 1233.06 3727.01 1234.5L3709.2 1244.9C3706.74 1246.33 3703.58 1245.5 3702.14 1243.04 3700.71 1240.58 3701.54 1237.43 3704 1235.99ZM3739.58 1215.19 3757.33 1204.68C3759.78 1203.23 3762.94 1204.04 3764.39 1206.49 3765.84 1208.94 3765.03 1212.11 3762.58 1213.56L3744.83 1224.06C3742.38 1225.51 3739.22 1224.7 3737.77 1222.25 3736.32 1219.8 3737.13 1216.64 3739.58 1215.19ZM3775.08 1194.18 3792.83 1183.67C3795.28 1182.22 3798.44 1183.03 3799.89 1185.48 3801.34 1187.93 3800.53 1191.1 3798.08 1192.55L3780.33 1203.05C3777.88 1204.5 3774.72 1203.69 3773.27 1201.24 3771.82 1198.79 3772.63 1195.63 3775.08 1194.18ZM3810.58 1173.17 3828.33 1162.66C3830.78 1161.21 3833.94 1162.02 3835.39 1164.47 3836.84 1166.92 3836.03 1170.09 3833.58 1171.54L3815.83 1182.04C3813.38 1183.49 3810.22 1182.68 3808.77 1180.23 3807.32 1177.78 3808.13 1174.62 3810.58 1173.17ZM3846.08 1152.16 3863.83 1141.65C3866.28 1140.2 3869.44 1141.01 3870.89 1143.46 3872.34 1145.91 3871.53 1149.08 3869.08 1150.53L3851.33 1161.03C3848.88 1162.48 3845.72 1161.67 3844.26 1159.22 3842.81 1156.77 3843.63 1153.61 3846.08 1152.16ZM3881.57 1131.15 3899.32 1120.64C3901.77 1119.19 3904.94 1120 3906.39 1122.45 3907.84 1124.91 3907.03 1128.07 3904.58 1129.52L3886.83 1140.02C3884.38 1141.47 3881.21 1140.66 3879.76 1138.21 3878.31 1135.76 3879.12 1132.6 3881.57 1131.15ZM3917.07 1110.14 3931.5 1101.6C3931.76 1101.45 3932.02 1101.32 3932.29 1101.22L3935.9 1099.84C3938.56 1098.83 3941.54 1100.17 3942.55 1102.83 3943.57 1105.49 3942.23 1108.47 3939.57 1109.48L3935.96 1110.86 3936.76 1110.47 3922.33 1119.01C3919.88 1120.46 3916.71 1119.65 3915.26 1117.2 3913.81 1114.75 3914.62 1111.59 3917.07 1110.14ZM3955.18 1092.51 3974.45 1085.17C3977.11 1084.15 3980.09 1085.49 3981.1 1088.15 3982.12 1090.81 3980.78 1093.79 3978.12 1094.81L3958.84 1102.14C3956.18 1103.16 3953.2 1101.82 3952.19 1099.16 3951.18 1096.5 3952.51 1093.52 3955.18 1092.51ZM3993.73 1077.83 4013 1070.49C4015.66 1069.48 4018.64 1070.81 4019.66 1073.48 4020.67 1076.14 4019.33 1079.12 4016.67 1080.13L3997.4 1087.47C3994.73 1088.48 3991.76 1087.14 3990.74 1084.48 3989.73 1081.82 3991.06 1078.84 3993.73 1077.83ZM4032.28 1063.15 4051.55 1055.81C4054.21 1054.8 4057.19 1056.14 4058.21 1058.8 4059.22 1061.46 4057.88 1064.44 4055.22 1065.45L4035.95 1072.79C4033.28 1073.8 4030.31 1072.47 4029.29 1069.81 4028.28 1067.15 4029.62 1064.17 4032.28 1063.15ZM4070.83 1048.48 4090.1 1041.14C4092.76 1040.12 4095.74 1041.46 4096.76 1044.12 4097.77 1046.78 4096.43 1049.76 4093.77 1050.78L4074.5 1058.11C4071.84 1059.13 4068.86 1057.79 4067.84 1055.13 4066.83 1052.47 4068.17 1049.49 4070.83 1048.48ZM4109.38 1033.8 4128.65 1026.46C4131.31 1025.45 4134.29 1026.78 4135.31 1029.45 4136.32 1032.11 4134.98 1035.09 4132.32 1036.1L4113.05 1043.44C4110.39 1044.45 4107.41 1043.11 4106.39 1040.45 4105.38 1037.79 4106.72 1034.81 4109.38 1033.8ZM4146.82 1017.69 4165.37 1008.69C4167.94 1007.45 4171.02 1008.52 4172.26 1011.08 4173.51 1013.64 4172.44 1016.73 4169.88 1017.97L4151.32 1026.97C4148.76 1028.21 4145.67 1027.15 4144.43 1024.58 4143.19 1022.02 4144.26 1018.94 4146.82 1017.69ZM4183.93 999.687 4202.49 990.683C4205.05 989.44 4208.13 990.51 4209.38 993.072 4210.62 995.634 4209.55 998.718 4206.99 999.961L4188.43 1008.96C4185.87 1010.21 4182.78 1009.14 4181.54 1006.58 4180.3 1004.01 4181.37 1000.93 4183.93 999.687ZM4221.04 981.68 4239.6 972.677C4242.16 971.433 4245.24 972.503 4246.49 975.065 4247.73 977.627 4246.66 980.711 4244.1 981.955L4225.54 990.958C4222.98 992.201 4219.9 991.132 4218.65 988.57 4217.41 986.008 4218.48 982.923 4221.04 981.68ZM4258.15 963.673 4276.71 954.67C4279.27 953.427 4282.36 954.496 4283.6 957.058 4284.84 959.62 4283.77 962.705 4281.21 963.948L4262.66 972.951 4262.66 972.951C4260.09 974.194 4257.01 973.125 4255.77 970.563 4254.52 968.001 4255.59 964.916 4258.15 963.673ZM4295.27 945.666 4313.82 936.663C4316.38 935.42 4319.47 936.489 4320.71 939.051 4321.96 941.613 4320.89 944.698 4318.32 945.941L4299.77 954.944C4297.21 956.187 4294.12 955.118 4292.88 952.556 4291.63 949.994 4292.7 946.909 4295.27 945.666Z" fill="#FFC000" fill-rule="nonzero" fill-opacity="1"/></g><g><text fill="#595959" fill-opacity="1" font-family="Calibri,Calibri_MSFontService,sans-serif" font-style="normal" font-variant="normal" font-weight="400" font-stretch="normal" font-size="41" text-anchor="start" direction="ltr" writing-mode="lr-tb" unicode-bidi="normal" text-decoration="none" transform="matrix(1 0 0 1 1025.67 2256)">0</text></g><g><text fill="#595959" fill-opacity="1" font-family="Calibri,Calibri_MSFontService,sans-serif" font-style="normal" font-variant="normal" font-weight="400" font-stretch="normal" font-size="41" text-anchor="start" direction="ltr" writing-mode="lr-tb" unicode-bidi="normal" text-decoration="none" transform="matrix(1 0 0 1 962.971 2049)">2000</text></g><g><text fill="#595959" fill-opacity="1" font-family="Calibri,Calibri_MSFontService,sans-serif" font-style="normal" font-variant="normal" font-weight="400" font-stretch="normal" font-size="41" text-anchor="start" direction="ltr" writing-mode="lr-tb" unicode-bidi="normal" text-decoration="none" transform="matrix(1 0 0 1 962.971 1842)">4000</text></g><g><text fill="#595959" fill-opacity="1" font-family="Calibri,Calibri_MSFontService,sans-serif" font-style="normal" font-variant="normal" font-weight="400" font-stretch="normal" font-size="41" text-anchor="start" direction="ltr" writing-mode="lr-tb" unicode-bidi="normal" text-decoration="none" transform="matrix(1 0 0 1 962.971 1635)">6000</text></g><g><text fill="#595959" fill-opacity="1" font-family="Calibri,Calibri_MSFontService,sans-serif" font-style="normal" font-variant="normal" font-weight="400" font-stretch="normal" font-size="41" text-anchor="start" direction="ltr" writing-mode="lr-tb" unicode-bidi="normal" text-decoration="none" transform="matrix(1 0 0 1 962.971 1428)">8000</text></g><g><text fill="#595959" fill-opacity="1" font-family="Calibri,Calibri_MSFontService,sans-serif" font-style="normal" font-variant="normal" font-weight="400" font-stretch="normal" font-size="41" text-anchor="start" direction="ltr" writing-mode="lr-tb" unicode-bidi="normal" text-decoration="none" transform="matrix(1 0 0 1 942.071 1221)">10000</text></g><g><text fill="#595959" fill-opacity="1" font-family="Calibri,Calibri_MSFontService,sans-serif" font-style="normal" font-variant="normal" font-weight="400" font-stretch="normal" font-size="41" text-anchor="start" direction="ltr" writing-mode="lr-tb" unicode-bidi="normal" text-decoration="none" transform="matrix(1 0 0 1 942.071 1014)">12000</text></g><g><text fill="#595959" fill-opacity="1" font-family="Calibri,Calibri_MSFontService,sans-serif" font-style="normal" font-variant="normal" font-weight="400" font-stretch="normal" font-size="41" text-anchor="start" direction="ltr" writing-mode="lr-tb" unicode-bidi="normal" text-decoration="none" transform="matrix(1 0 0 1 942.071 807)">14000</text></g><g><text fill="#595959" fill-opacity="1" font-family="Calibri,Calibri_MSFontService,sans-serif" font-style="normal" font-variant="normal" font-weight="400" font-stretch="normal" font-size="41" text-anchor="start" direction="ltr" writing-mode="lr-tb" unicode-bidi="normal" text-decoration="none" transform="matrix(1 0 0 1 1164.58 2312)">s1</text></g><g><text fill="#595959" fill-opacity="1" font-family="Calibri,Calibri_MSFontService,sans-serif" font-style="normal" font-variant="normal" font-weight="400" font-stretch="normal" font-size="41" text-anchor="start" direction="ltr" writing-mode="lr-tb" unicode-bidi="normal" text-decoration="none" transform="matrix(1 0 0 1 1361.1 2312)">s2</text></g><g><text fill="#595959" fill-opacity="1" font-family="Calibri,Calibri_MSFontService,sans-serif" font-style="normal" font-variant="normal" font-weight="400" font-stretch="normal" font-size="41" text-anchor="start" direction="ltr" writing-mode="lr-tb" unicode-bidi="normal" text-decoration="none" transform="matrix(1 0 0 1 1557.62 2312)">s3</text></g><g><text fill="#595959" fill-opacity="1" font-family="Calibri,Calibri_MSFontService,sans-serif" font-style="normal" font-variant="normal" font-weight="400" font-stretch="normal" font-size="41" text-anchor="start" direction="ltr" writing-mode="lr-tb" unicode-bidi="normal" text-decoration="none" transform="matrix(1 0 0 1 1754.14 2312)">s4</text></g><g><text fill="#595959" fill-opacity="1" font-family="Calibri,Calibri_MSFontService,sans-serif" font-style="normal" font-variant="normal" font-weight="400" font-stretch="normal" font-size="41" text-anchor="start" direction="ltr" writing-mode="lr-tb" unicode-bidi="normal" text-decoration="none" transform="matrix(1 0 0 1 1950.66 2312)">s5</text></g><g><text fill="#595959" fill-opacity="1" font-family="Calibri,Calibri_MSFontService,sans-serif" font-style="normal" font-variant="normal" font-weight="400" font-stretch="normal" font-size="41" text-anchor="start" direction="ltr" writing-mode="lr-tb" unicode-bidi="normal" text-decoration="none" transform="matrix(1 0 0 1 2147.18 2312)">s6</text></g><g><text fill="#595959" fill-opacity="1" font-family="Calibri,Calibri_MSFontService,sans-serif" font-style="normal" font-variant="normal" font-weight="400" font-stretch="normal" font-size="41" text-anchor="start" direction="ltr" writing-mode="lr-tb" unicode-bidi="normal" text-decoration="none" transform="matrix(1 0 0 1 2343.7 2312)">s7</text></g><g><text fill="#595959" fill-opacity="1" font-family="Calibri,Calibri_MSFontService,sans-serif" font-style="normal" font-variant="normal" font-weight="400" font-stretch="normal" font-size="41" text-anchor="start" direction="ltr" writing-mode="lr-tb" unicode-bidi="normal" text-decoration="none" transform="matrix(1 0 0 1 2540.22 2312)">s8</text></g><g><text fill="#595959" fill-opacity="1" font-family="Calibri,Calibri_MSFontService,sans-serif" font-style="normal" font-variant="normal" font-weight="400" font-stretch="normal" font-size="41" text-anchor="start" direction="ltr" writing-mode="lr-tb" unicode-bidi="normal" text-decoration="none" transform="matrix(1 0 0 1 2736.73 2312)">s9</text></g><g><text fill="#595959" fill-opacity="1" font-family="Calibri,Calibri_MSFontService,sans-serif" font-style="normal" font-variant="normal" font-weight="400" font-stretch="normal" font-size="41" text-anchor="start" direction="ltr" writing-mode="lr-tb" unicode-bidi="normal" text-decoration="none" transform="matrix(1 0 0 1 2922.8 2312)">s10</text></g><g><text fill="#595959" fill-opacity="1" font-family="Calibri,Calibri_MSFontService,sans-serif" font-style="normal" font-variant="normal" font-weight="400" font-stretch="normal" font-size="41" text-anchor="start" direction="ltr" writing-mode="lr-tb" unicode-bidi="normal" text-decoration="none" transform="matrix(1 0 0 1 3119.32 2312)">s11</text></g><g><text fill="#595959" fill-opacity="1" font-family="Calibri,Calibri_MSFontService,sans-serif" font-style="normal" font-variant="normal" font-weight="400" font-stretch="normal" font-size="41" text-anchor="start" direction="ltr" writing-mode="lr-tb" unicode-bidi="normal" text-decoration="none" transform="matrix(1 0 0 1 3315.84 2312)">s12</text></g><g><text fill="#595959" fill-opacity="1" font-family="Calibri,Calibri_MSFontService,sans-serif" font-style="normal" font-variant="normal" font-weight="400" font-stretch="normal" font-size="41" text-anchor="start" direction="ltr" writing-mode="lr-tb" unicode-bidi="normal" text-decoration="none" transform="matrix(1 0 0 1 3512.36 2312)">s13</text></g><g><text fill="#595959" fill-opacity="1" font-family="Calibri,Calibri_MSFontService,sans-serif" font-style="normal" font-variant="normal" font-weight="400" font-stretch="normal" font-size="41" text-anchor="start" direction="ltr" writing-mode="lr-tb" unicode-bidi="normal" text-decoration="none" transform="matrix(1 0 0 1 3708.88 2312)">s14</text></g><g><text fill="#595959" fill-opacity="1" font-family="Calibri,Calibri_MSFontService,sans-serif" font-style="normal" font-variant="normal" font-weight="400" font-stretch="normal" font-size="41" text-anchor="start" direction="ltr" writing-mode="lr-tb" unicode-bidi="normal" text-decoration="none" transform="matrix(1 0 0 1 3905.4 2312)">s15</text></g><g><text fill="#595959" fill-opacity="1" font-family="Calibri,Calibri_MSFontService,sans-serif" font-style="normal" font-variant="normal" font-weight="400" font-stretch="normal" font-size="41" text-anchor="start" direction="ltr" writing-mode="lr-tb" unicode-bidi="normal" text-decoration="none" transform="matrix(1 0 0 1 4101.92 2312)">s16</text></g><g><text fill="#595959" fill-opacity="1" font-family="Calibri,Calibri_MSFontService,sans-serif" font-style="normal" font-variant="normal" font-weight="400" font-stretch="normal" font-size="41" text-anchor="start" direction="ltr" writing-mode="lr-tb" unicode-bidi="normal" text-decoration="none" transform="matrix(1 0 0 1 4298.44 2312)">s17</text></g><g><text fill="#595959" fill-opacity="1" font-family="Calibri,Calibri_MSFontService,sans-serif" font-style="normal" font-variant="normal" font-weight="400" font-stretch="normal" font-size="37" text-anchor="start" direction="ltr" writing-mode="lr-tb" unicode-bidi="normal" text-decoration="none" transform="matrix(6.12323e-17 -1 1 6.12323e-17 942.494 1581)">Euro (€)</text></g><g><text fill="#595959" fill-opacity="1" font-family="Calibri,Calibri_MSFontService,sans-serif" font-style="normal" font-variant="normal" font-weight="400" font-stretch="normal" font-size="64" text-anchor="start" direction="ltr" writing-mode="lr-tb" unicode-bidi="normal" text-decoration="none" transform="matrix(1 0 0 1 2435.18 719)">PV e EV Accumulati</text></g><g><path d="M2366 2418 2481 2418" stroke="#1F497D" stroke-width="10.3125" stroke-linecap="round" stroke-linejoin="round" stroke-miterlimit="10" stroke-opacity="1" fill="none" fill-rule="evenodd"/></g><g><text fill="#595959" fill-opacity="1" font-family="Calibri,Calibri_MSFontService,sans-serif" font-style="normal" font-variant="normal" font-weight="400" font-stretch="normal" font-size="41" text-anchor="start" direction="ltr" writing-mode="lr-tb" unicode-bidi="normal" text-decoration="none" transform="matrix(1 0 0 1 2493.75 2428)">PV acc. (€)</text></g><g><path d="M2727 2412.84 2747.62 2412.84C2750.47 2412.84 2752.78 2415.15 2752.78 2418 2752.78 2420.85 2750.47 2423.16 2747.62 2423.16L2727 2423.16C2724.15 2423.16 2721.84 2420.85 2721.84 2418 2721.84 2415.15 2724.15 2412.84 2727 2412.84ZM2768.25 2412.84 2788.88 2412.84C2791.72 2412.84 2794.03 2415.15 2794.03 2418 2794.03 2420.85 2791.72 2423.16 2788.88 2423.16L2768.25 2423.16C2765.4 2423.16 2763.09 2420.85 2763.09 2418 2763.09 2415.15 2765.4 2412.84 2768.25 2412.84ZM2809.5 2412.84 2830.12 2412.84C2832.97 2412.84 2835.28 2415.15 2835.28 2418 2835.28 2420.85 2832.97 2423.16 2830.12 2423.16L2809.5 2423.16C2806.65 2423.16 2804.34 2420.85 2804.34 2418 2804.34 2415.15 2806.65 2412.84 2809.5 2412.84Z" fill="#FFC000" fill-rule="nonzero" fill-opacity="1"/></g><g><text fill="#595959" fill-opacity="1" font-family="Calibri,Calibri_MSFontService,sans-serif" font-style="normal" font-variant="normal" font-weight="400" font-stretch="normal" font-size="41" text-anchor="start" direction="ltr" writing-mode="lr-tb" unicode-bidi="normal" text-decoration="none" transform="matrix(1 0 0 1 2854.86 2428)">EV acc. (€)</text></g><rect x="901.5" y="623.5" width="3572" height="1861" stroke="#D9D9D9" stroke-width="3.4375" stroke-linecap="butt" stroke-linejoin="round" stroke-miterlimit="10" stroke-opacity="1" fill="none"/></g></g></svg>