<svg width="3268" height="2053" xmlns="http://www.w3.org/2000/svg" xmlns:xlink="http://www.w3.org/1999/xlink" xml:space="preserve" overflow="hidden"><defs><clipPath id="clip0"><rect x="1805" y="279" width="3268" height="2053"/></clipPath><clipPath id="clip1"><rect x="1805" y="279" width="3268" height="2053"/></clipPath><clipPath id="clip2"><rect x="1998" y="454" width="3024" height="1665"/></clipPath></defs><g clip-path="url(#clip0)" transform="translate(-1805 -279)"><g clip-path="url(#clip1)"><rect x="1807" y="284" width="3263" height="2044" fill="#FFFFFF" fill-opacity="1"/><g><path d="M1998.5 1908.56 5019.5 1908.56M1998.5 1700.56 5019.5 1700.56M1998.5 1493.55 5019.5 1493.55M1998.5 1285.54 5019.5 1285.54M1998.5 1077.54 5019.5 1077.54M1998.5 869.529 5019.5 869.529M1998.5 661.522 5019.5 661.522M1998.5 454.5 5019.5 454.5" stroke="#D9D9D9" stroke-width="3.4375" stroke-linecap="butt" stroke-linejoin="round" stroke-miterlimit="10" stroke-opacity="1" fill="none" fill-rule="nonzero"/></g><g><rect x="1998.5" y="454.5" width="3021" height="1662" stroke="#C0504D" stroke-width="3.4375" stroke-linecap="square" stroke-linejoin="round" stroke-miterlimit="10" stroke-dasharray="10.3125 3.4375" stroke-opacity="1" fill="none"/></g><g><path d="M2056.07 1210.04 2108.07 1210.04 2108.07 2116 2056.07 2116ZM2224.07 454 2276.07 454 2276.07 2116 2224.07 2116ZM2391.08 832.027 2444.08 832.027 2444.08 2116 2391.08 2116ZM2559.08 799.026 2612.09 799.026 2612.09 2116 2559.08 2116ZM2727.09 774.025 2780.09 774.025 2780.09 2116 2727.09 2116ZM2895.09 1285.04 2948.1 1285.04 2948.1 2116 2895.09 2116ZM3063.1 861.028 3115.1 861.028 3115.1 2116 3063.1 2116ZM3231.11 1094.04 3283.11 1094.04 3283.11 2116 3231.11 2116ZM3398.11 1414.05 3451.11 1414.05 3451.11 2116 3398.11 2116ZM3566.12 454 3619.12 454 3619.12 2116 3566.12 2116ZM3734.12 774.025 3787.12 774.025 3787.12 2116 3734.12 2116ZM3902.13 999.033 3954.13 999.033 3954.13 2116 3902.13 2116ZM4070.13 999.033 4122.14 999.033 4122.14 2116 4070.13 2116ZM4237.14 999.033 4290.14 999.033 4290.14 2116 4237.14 2116ZM4405.14 1319.04 4458.15 1319.04 4458.15 2116 4405.14 2116ZM4573.15 903.03 4626.15 903.03 4626.15 2116 4573.15 2116ZM4741.16 799.026 4794.16 799.026 4794.16 2116 4741.16 2116Z" fill="#4F81BD" fill-rule="nonzero" fill-opacity="1"/></g><g><path d="M1998.5 2116.5 5019.5 2116.5" stroke="#D9D9D9" stroke-width="3.4375" stroke-linecap="butt" stroke-linejoin="round" stroke-miterlimit="10" stroke-opacity="1" fill="none" fill-rule="evenodd"/></g><g><path d="M2082 1279.84 2102.62 1279.84C2105.47 1279.84 2107.78 1282.15 2107.78 1285 2107.78 1287.85 2105.47 1290.16 2102.62 1290.16L2082 1290.16C2079.15 1290.16 2076.84 1287.85 2076.84 1285 2076.84 1282.15 2079.15 1279.84 2082 1279.84ZM2123.25 1279.84 2143.88 1279.84C2146.72 1279.84 2149.03 1282.15 2149.03 1285 2149.03 1287.85 2146.72 1290.16 2143.88 1290.16L2123.25 1290.16C2120.4 1290.16 2118.09 1287.85 2118.09 1285 2118.09 1282.15 2120.4 1279.84 2123.25 1279.84ZM2164.5 1279.84 2185.12 1279.84C2187.97 1279.84 2190.28 1282.15 2190.28 1285 2190.28 1287.85 2187.97 1290.16 2185.12 1290.16L2164.5 1290.16C2161.65 1290.16 2159.34 1287.85 2159.34 1285 2159.34 1282.15 2161.65 1279.84 2164.5 1279.84ZM2205.75 1279.84 2226.38 1279.84C2229.22 1279.84 2231.53 1282.15 2231.53 1285 2231.53 1287.85 2229.22 1290.16 2226.38 1290.16L2205.75 1290.16C2202.9 1290.16 2200.59 1287.85 2200.59 1285 2200.59 1282.15 2202.9 1279.84 2205.75 1279.84ZM2247 1279.84 2250.07 1279.84 2267.62 1279.84C2270.47 1279.84 2272.78 1282.15 2272.78 1285 2272.78 1287.85 2270.47 1290.16 2267.62 1290.16L2250.07 1290.16 2247 1290.16C2244.15 1290.16 2241.84 1287.85 2241.84 1285 2241.84 1282.15 2244.15 1279.84 2247 1279.84ZM2288.25 1279.84 2308.88 1279.84C2311.72 1279.84 2314.03 1282.15 2314.03 1285 2314.03 1287.85 2311.72 1290.16 2308.88 1290.16L2288.25 1290.16C2285.4 1290.16 2283.09 1287.85 2283.09 1285 2283.09 1282.15 2285.4 1279.84 2288.25 1279.84ZM2329.5 1279.84 2350.12 1279.84C2352.97 1279.84 2355.28 1282.15 2355.28 1285 2355.28 1287.85 2352.97 1290.16 2350.12 1290.16L2329.5 1290.16C2326.65 1290.16 2324.34 1287.85 2324.34 1285 2324.34 1282.15 2326.65 1279.84 2329.5 1279.84ZM2370.75 1279.84 2391.38 1279.84C2394.22 1279.84 2396.53 1282.15 2396.53 1285 2396.53 1287.85 2394.22 1290.16 2391.38 1290.16L2370.75 1290.16C2367.9 1290.16 2365.59 1287.85 2365.59 1285 2365.59 1282.15 2367.9 1279.84 2370.75 1279.84ZM2412 1279.84 2418.08 1279.84 2432.62 1279.84C2435.47 1279.84 2437.78 1282.15 2437.78 1285 2437.78 1287.85 2435.47 1290.16 2432.62 1290.16L2418.08 1290.16 2412 1290.16C2409.15 1290.16 2406.84 1287.85 2406.84 1285 2406.84 1282.15 2409.15 1279.84 2412 1279.84ZM2453.25 1279.84 2473.88 1279.84C2476.72 1279.84 2479.03 1282.15 2479.03 1285 2479.03 1287.85 2476.72 1290.16 2473.88 1290.16L2453.25 1290.16C2450.4 1290.16 2448.09 1287.85 2448.09 1285 2448.09 1282.15 2450.4 1279.84 2453.25 1279.84ZM2494.5 1279.84 2515.12 1279.84C2517.97 1279.84 2520.28 1282.15 2520.28 1285 2520.28 1287.85 2517.97 1290.16 2515.12 1290.16L2494.5 1290.16C2491.65 1290.16 2489.34 1287.85 2489.34 1285 2489.34 1282.15 2491.65 1279.84 2494.5 1279.84ZM2535.75 1279.84 2556.38 1279.84C2559.22 1279.84 2561.53 1282.15 2561.53 1285 2561.53 1287.85 2559.22 1290.16 2556.38 1290.16L2535.75 1290.16C2532.9 1290.16 2530.59 1287.85 2530.59 1285 2530.59 1282.15 2532.9 1279.84 2535.75 1279.84ZM2577 1279.84 2586.08 1279.84 2597.62 1279.84C2600.47 1279.84 2602.78 1282.15 2602.78 1285 2602.78 1287.85 2600.47 1290.16 2597.62 1290.16L2586.08 1290.16 2577 1290.16C2574.15 1290.16 2571.84 1287.85 2571.84 1285 2571.84 1282.15 2574.15 1279.84 2577 1279.84ZM2618.25 1279.84 2638.88 1279.84C2641.72 1279.84 2644.03 1282.15 2644.03 1285 2644.03 1287.85 2641.72 1290.16 2638.88 1290.16L2618.25 1290.16C2615.4 1290.16 2613.09 1287.85 2613.09 1285 2613.09 1282.15 2615.4 1279.84 2618.25 1279.84ZM2659.5 1279.84 2680.12 1279.84C2682.97 1279.84 2685.28 1282.15 2685.28 1285 2685.28 1287.85 2682.97 1290.16 2680.12 1290.16L2659.5 1290.16C2656.65 1290.16 2654.34 1287.85 2654.34 1285 2654.34 1282.15 2656.65 1279.84 2659.5 1279.84ZM2700.75 1279.84 2721.38 1279.84C2724.22 1279.84 2726.53 1282.15 2726.53 1285 2726.53 1287.85 2724.22 1290.16 2721.38 1290.16L2700.75 1290.16C2697.9 1290.16 2695.59 1287.85 2695.59 1285 2695.59 1282.15 2697.9 1279.84 2700.75 1279.84ZM2742 1279.84 2753.09 1279.84 2762.62 1279.84C2765.47 1279.84 2767.78 1282.15 2767.78 1285 2767.78 1287.85 2765.47 1290.16 2762.62 1290.16L2753.09 1290.16 2742 1290.16C2739.15 1290.16 2736.84 1287.85 2736.84 1285 2736.84 1282.15 2739.15 1279.84 2742 1279.84ZM2783.25 1279.84 2803.88 1279.84C2806.72 1279.84 2809.03 1282.15 2809.03 1285 2809.03 1287.85 2806.72 1290.16 2803.88 1290.16L2783.25 1290.16C2780.4 1290.16 2778.09 1287.85 2778.09 1285 2778.09 1282.15 2780.4 1279.84 2783.25 1279.84ZM2824.5 1279.84 2845.12 1279.84C2847.97 1279.84 2850.28 1282.15 2850.28 1285 2850.28 1287.85 2847.97 1290.16 2845.12 1290.16L2824.5 1290.16C2821.65 1290.16 2819.34 1287.85 2819.34 1285 2819.34 1282.15 2821.65 1279.84 2824.5 1279.84ZM2865.75 1279.84 2886.38 1279.84C2889.22 1279.84 2891.53 1282.15 2891.53 1285 2891.53 1287.85 2889.22 1290.16 2886.38 1290.16L2865.75 1290.16C2862.9 1290.16 2860.59 1287.85 2860.59 1285 2860.59 1282.15 2862.9 1279.84 2865.75 1279.84ZM2907 1279.84 2921.1 1279.84 2927.62 1279.84C2930.47 1279.84 2932.78 1282.15 2932.78 1285 2932.78 1287.85 2930.47 1290.16 2927.62 1290.16L2921.1 1290.16 2907 1290.16C2904.15 1290.16 2901.84 1287.85 2901.84 1285 2901.84 1282.15 2904.15 1279.84 2907 1279.84ZM2948.25 1279.84 2968.88 1279.84C2971.72 1279.84 2974.03 1282.15 2974.03 1285 2974.03 1287.85 2971.72 1290.16 2968.88 1290.16L2948.25 1290.16C2945.4 1290.16 2943.09 1287.85 2943.09 1285 2943.09 1282.15 2945.4 1279.84 2948.25 1279.84ZM2989.5 1279.84 3010.12 1279.84C3012.97 1279.84 3015.28 1282.15 3015.28 1285 3015.28 1287.85 3012.97 1290.16 3010.12 1290.16L2989.5 1290.16C2986.65 1290.16 2984.34 1287.85 2984.34 1285 2984.34 1282.15 2986.65 1279.84 2989.5 1279.84ZM3030.75 1279.84 3051.38 1279.84C3054.22 1279.84 3056.53 1282.15 3056.53 1285 3056.53 1287.85 3054.22 1290.16 3051.38 1290.16L3030.75 1290.16C3027.9 1290.16 3025.59 1287.85 3025.59 1285 3025.59 1282.15 3027.9 1279.84 3030.75 1279.84ZM3072 1279.84 3089.1 1279.84 3092.62 1279.84C3095.47 1279.84 3097.78 1282.15 3097.78 1285 3097.78 1287.85 3095.47 1290.16 3092.62 1290.16L3089.1 1290.16 3072 1290.16C3069.15 1290.16 3066.84 1287.85 3066.84 1285 3066.84 1282.15 3069.15 1279.84 3072 1279.84ZM3113.25 1279.84 3133.88 1279.84C3136.72 1279.84 3139.03 1282.15 3139.03 1285 3139.03 1287.85 3136.72 1290.16 3133.88 1290.16L3113.25 1290.16C3110.4 1290.16 3108.09 1287.85 3108.09 1285 3108.09 1282.15 3110.4 1279.84 3113.25 1279.84ZM3154.5 1279.84 3175.12 1279.84C3177.97 1279.84 3180.28 1282.15 3180.28 1285 3180.28 1287.85 3177.97 1290.16 3175.12 1290.16L3154.5 1290.16C3151.65 1290.16 3149.34 1287.85 3149.34 1285 3149.34 1282.15 3151.65 1279.84 3154.5 1279.84ZM3195.75 1279.84 3216.38 1279.84C3219.22 1279.84 3221.53 1282.15 3221.53 1285 3221.53 1287.85 3219.22 1290.16 3216.38 1290.16L3195.75 1290.16C3192.9 1290.16 3190.59 1287.85 3190.59 1285 3190.59 1282.15 3192.9 1279.84 3195.75 1279.84ZM3237 1279.84 3257.11 1279.84 3257.62 1279.84C3260.47 1279.84 3262.78 1282.15 3262.78 1285 3262.78 1287.85 3260.47 1290.16 3257.62 1290.16L3257.11 1290.16 3237 1290.16C3234.15 1290.16 3231.84 1287.85 3231.84 1285 3231.84 1282.15 3234.15 1279.84 3237 1279.84ZM3278.25 1279.84 3298.88 1279.84C3301.72 1279.84 3304.03 1282.15 3304.03 1285 3304.03 1287.85 3301.72 1290.16 3298.88 1290.16L3278.25 1290.16C3275.4 1290.16 3273.09 1287.85 3273.09 1285 3273.09 1282.15 3275.4 1279.84 3278.25 1279.84ZM3319.5 1279.84 3340.12 1279.84C3342.97 1279.84 3345.28 1282.15 3345.28 1285 3345.28 1287.85 3342.97 1290.16 3340.12 1290.16L3319.5 1290.16C3316.65 1290.16 3314.34 1287.85 3314.34 1285 3314.34 1282.15 3316.65 1279.84 3319.5 1279.84ZM3360.75 1279.84 3381.38 1279.84C3384.22 1279.84 3386.53 1282.15 3386.53 1285 3386.53 1287.85 3384.22 1290.16 3381.38 1290.16L3360.75 1290.16C3357.9 1290.16 3355.59 1287.85 3355.59 1285 3355.59 1282.15 3357.9 1279.84 3360.75 1279.84ZM3402 1279.84 3422.62 1279.84C3425.47 1279.84 3427.78 1282.15 3427.78 1285 3427.78 1287.85 3425.47 1290.16 3422.62 1290.16L3402 1290.16C3399.15 1290.16 3396.84 1287.85 3396.84 1285 3396.84 1282.15 3399.15 1279.84 3402 1279.84ZM3443.25 1279.84 3463.88 1279.84C3466.72 1279.84 3469.03 1282.15 3469.03 1285 3469.03 1287.85 3466.72 1290.16 3463.88 1290.16L3443.25 1290.16C3440.4 1290.16 3438.09 1287.85 3438.09 1285 3438.09 1282.15 3440.4 1279.84 3443.25 1279.84ZM3484.5 1279.84 3505.12 1279.84C3507.97 1279.84 3510.28 1282.15 3510.28 1285 3510.28 1287.85 3507.97 1290.16 3505.12 1290.16L3484.5 1290.16C3481.65 1290.16 3479.34 1287.85 3479.34 1285 3479.34 1282.15 3481.65 1279.84 3484.5 1279.84ZM3525.75 1279.84 3546.38 1279.84C3549.22 1279.84 3551.53 1282.15 3551.53 1285 3551.53 1287.85 3549.22 1290.16 3546.38 1290.16L3525.75 1290.16C3522.9 1290.16 3520.59 1287.85 3520.59 1285 3520.59 1282.15 3522.9 1279.84 3525.75 1279.84ZM3567 1279.84 3587.62 1279.84C3590.47 1279.84 3592.78 1282.15 3592.78 1285 3592.78 1287.85 3590.47 1290.16 3587.62 1290.16L3567 1290.16C3564.15 1290.16 3561.84 1287.85 3561.84 1285 3561.84 1282.15 3564.15 1279.84 3567 1279.84ZM3608.25 1279.84 3628.88 1279.84C3631.72 1279.84 3634.03 1282.15 3634.03 1285 3634.03 1287.85 3631.72 1290.16 3628.88 1290.16L3608.25 1290.16C3605.4 1290.16 3603.09 1287.85 3603.09 1285 3603.09 1282.15 3605.4 1279.84 3608.25 1279.84ZM3649.5 1279.84 3670.12 1279.84C3672.97 1279.84 3675.28 1282.15 3675.28 1285 3675.28 1287.85 3672.97 1290.16 3670.12 1290.16L3649.5 1290.16C3646.65 1290.16 3644.34 1287.85 3644.34 1285 3644.34 1282.15 3646.65 1279.84 3649.5 1279.84ZM3690.75 1279.84 3711.38 1279.84C3714.22 1279.84 3716.53 1282.15 3716.53 1285 3716.53 1287.85 3714.22 1290.16 3711.38 1290.16L3690.75 1290.16C3687.9 1290.16 3685.59 1287.85 3685.59 1285 3685.59 1282.15 3687.9 1279.84 3690.75 1279.84ZM3732 1279.84 3752.62 1279.84C3755.47 1279.84 3757.78 1282.15 3757.78 1285 3757.78 1287.85 3755.47 1290.16 3752.62 1290.16L3732 1290.16C3729.15 1290.16 3726.84 1287.85 3726.84 1285 3726.84 1282.15 3729.15 1279.84 3732 1279.84ZM3773.25 1279.84 3793.88 1279.84C3796.72 1279.84 3799.03 1282.15 3799.03 1285 3799.03 1287.85 3796.72 1290.16 3793.88 1290.16L3773.25 1290.16C3770.4 1290.16 3768.09 1287.85 3768.09 1285 3768.09 1282.15 3770.4 1279.84 3773.25 1279.84ZM3814.5 1279.84 3835.12 1279.84C3837.97 1279.84 3840.28 1282.15 3840.28 1285 3840.28 1287.85 3837.97 1290.16 3835.12 1290.16L3814.5 1290.16C3811.65 1290.16 3809.34 1287.85 3809.34 1285 3809.34 1282.15 3811.65 1279.84 3814.5 1279.84ZM3855.75 1279.84 3876.38 1279.84C3879.22 1279.84 3881.53 1282.15 3881.53 1285 3881.53 1287.85 3879.22 1290.16 3876.38 1290.16L3855.75 1290.16C3852.9 1290.16 3850.59 1287.85 3850.59 1285 3850.59 1282.15 3852.9 1279.84 3855.75 1279.84ZM3897 1279.84 3917.62 1279.84C3920.47 1279.84 3922.78 1282.15 3922.78 1285 3922.78 1287.85 3920.47 1290.16 3917.62 1290.16L3897 1290.16C3894.15 1290.16 3891.84 1287.85 3891.84 1285 3891.84 1282.15 3894.15 1279.84 3897 1279.84ZM3938.25 1279.84 3958.88 1279.84C3961.72 1279.84 3964.03 1282.15 3964.03 1285 3964.03 1287.85 3961.72 1290.16 3958.88 1290.16L3938.25 1290.16C3935.4 1290.16 3933.09 1287.85 3933.09 1285 3933.09 1282.15 3935.4 1279.84 3938.25 1279.84ZM3979.5 1279.84 4000.12 1279.84C4002.97 1279.84 4005.28 1282.15 4005.28 1285 4005.28 1287.85 4002.97 1290.16 4000.12 1290.16L3979.5 1290.16C3976.65 1290.16 3974.34 1287.85 3974.34 1285 3974.34 1282.15 3976.65 1279.84 3979.5 1279.84ZM4020.75 1279.84 4041.38 1279.84C4044.22 1279.84 4046.53 1282.15 4046.53 1285 4046.53 1287.85 4044.22 1290.16 4041.38 1290.16L4020.75 1290.16C4017.9 1290.16 4015.59 1287.85 4015.59 1285 4015.59 1282.15 4017.9 1279.84 4020.75 1279.84ZM4062 1279.84 4082.62 1279.84C4085.47 1279.84 4087.78 1282.15 4087.78 1285 4087.78 1287.85 4085.47 1290.16 4082.62 1290.16L4062 1290.16C4059.15 1290.16 4056.84 1287.85 4056.84 1285 4056.84 1282.15 4059.15 1279.84 4062 1279.84ZM4103.25 1279.84 4123.88 1279.84C4126.72 1279.84 4129.03 1282.15 4129.03 1285 4129.03 1287.85 4126.72 1290.16 4123.88 1290.16L4103.25 1290.16C4100.4 1290.16 4098.09 1287.85 4098.09 1285 4098.09 1282.15 4100.4 1279.84 4103.25 1279.84ZM4144.5 1279.84 4165.12 1279.84C4167.97 1279.84 4170.28 1282.15 4170.28 1285 4170.28 1287.85 4167.97 1290.16 4165.12 1290.16L4144.5 1290.16C4141.65 1290.16 4139.34 1287.85 4139.34 1285 4139.34 1282.15 4141.65 1279.84 4144.5 1279.84ZM4185.75 1279.84 4206.38 1279.84C4209.22 1279.84 4211.53 1282.15 4211.53 1285 4211.53 1287.85 4209.22 1290.16 4206.38 1290.16L4185.75 1290.16C4182.9 1290.16 4180.59 1287.85 4180.59 1285 4180.59 1282.15 4182.9 1279.84 4185.75 1279.84ZM4227 1279.84 4247.62 1279.84C4250.47 1279.84 4252.78 1282.15 4252.78 1285 4252.78 1287.85 4250.47 1290.16 4247.62 1290.16L4227 1290.16C4224.15 1290.16 4221.84 1287.85 4221.84 1285 4221.84 1282.15 4224.15 1279.84 4227 1279.84ZM4268.25 1279.84 4288.88 1279.84C4291.72 1279.84 4294.03 1282.15 4294.03 1285 4294.03 1287.85 4291.72 1290.16 4288.88 1290.16L4268.25 1290.16C4265.4 1290.16 4263.09 1287.85 4263.09 1285 4263.09 1282.15 4265.4 1279.84 4268.25 1279.84ZM4309.5 1279.84 4330.12 1279.84C4332.97 1279.84 4335.28 1282.15 4335.28 1285 4335.28 1287.85 4332.97 1290.16 4330.12 1290.16L4309.5 1290.16C4306.65 1290.16 4304.34 1287.85 4304.34 1285 4304.34 1282.15 4306.65 1279.84 4309.5 1279.84ZM4350.75 1279.84 4371.38 1279.84C4374.22 1279.84 4376.53 1282.15 4376.53 1285 4376.53 1287.85 4374.22 1290.16 4371.38 1290.16L4350.75 1290.16C4347.9 1290.16 4345.59 1287.85 4345.59 1285 4345.59 1282.15 4347.9 1279.84 4350.75 1279.84ZM4392 1279.84 4412.62 1279.84C4415.47 1279.84 4417.78 1282.15 4417.78 1285 4417.78 1287.85 4415.47 1290.16 4412.62 1290.16L4392 1290.16C4389.15 1290.16 4386.84 1287.85 4386.84 1285 4386.84 1282.15 4389.15 1279.84 4392 1279.84ZM4433.25 1279.84 4453.88 1279.84C4456.72 1279.84 4459.03 1282.15 4459.03 1285 4459.03 1287.85 4456.72 1290.16 4453.88 1290.16L4433.25 1290.16C4430.4 1290.16 4428.09 1287.85 4428.09 1285 4428.09 1282.15 4430.4 1279.84 4433.25 1279.84ZM4474.5 1279.84 4495.12 1279.84C4497.97 1279.84 4500.28 1282.15 4500.28 1285 4500.28 1287.85 4497.97 1290.16 4495.12 1290.16L4474.5 1290.16C4471.65 1290.16 4469.34 1287.85 4469.34 1285 4469.34 1282.15 4471.65 1279.84 4474.5 1279.84ZM4515.75 1279.84 4536.38 1279.84C4539.22 1279.84 4541.53 1282.15 4541.53 1285 4541.53 1287.85 4539.22 1290.16 4536.38 1290.16L4515.75 1290.16C4512.9 1290.16 4510.59 1287.85 4510.59 1285 4510.59 1282.15 4512.9 1279.84 4515.75 1279.84ZM4557 1279.84 4577.62 1279.84C4580.47 1279.84 4582.78 1282.15 4582.78 1285 4582.78 1287.85 4580.47 1290.16 4577.62 1290.16L4557 1290.16C4554.15 1290.16 4551.84 1287.85 4551.84 1285 4551.84 1282.15 4554.15 1279.84 4557 1279.84ZM4598.25 1279.84 4599.15 1279.84 4618.88 1279.84C4621.72 1279.84 4624.03 1282.15 4624.03 1285 4624.03 1287.85 4621.72 1290.16 4618.88 1290.16L4599.15 1290.16 4598.25 1290.16C4595.4 1290.16 4593.09 1287.85 4593.09 1285 4593.09 1282.15 4595.4 1279.84 4598.25 1279.84ZM4639.5 1279.84 4660.12 1279.84C4662.97 1279.84 4665.28 1282.15 4665.28 1285 4665.28 1287.85 4662.97 1290.16 4660.12 1290.16L4639.5 1290.16C4636.65 1290.16 4634.34 1287.85 4634.34 1285 4634.34 1282.15 4636.65 1279.84 4639.5 1279.84ZM4680.75 1279.84 4701.38 1279.84C4704.22 1279.84 4706.53 1282.15 4706.53 1285 4706.53 1287.85 4704.22 1290.16 4701.38 1290.16L4680.75 1290.16C4677.9 1290.16 4675.59 1287.85 4675.59 1285 4675.59 1282.15 4677.9 1279.84 4680.75 1279.84ZM4722 1279.84 4742.62 1279.84C4745.47 1279.84 4747.78 1282.15 4747.78 1285 4747.78 1287.85 4745.47 1290.16 4742.62 1290.16L4722 1290.16C4719.15 1290.16 4716.84 1287.85 4716.84 1285 4716.84 1282.15 4719.15 1279.84 4722 1279.84ZM4763.25 1279.84 4767 1279.84C4769.85 1279.84 4772.16 1282.15 4772.16 1285 4772.16 1287.85 4769.85 1290.16 4767 1290.16L4763.25 1290.16C4760.4 1290.16 4758.09 1287.85 4758.09 1285 4758.09 1282.15 4760.4 1279.84 4763.25 1279.84Z" fill="#C0504D" fill-rule="nonzero" fill-opacity="1"/></g><g clip-path="url(#clip2)"><path d="M2082 448.844 2102.62 448.844C2105.47 448.844 2107.78 451.152 2107.78 454 2107.78 456.848 2105.47 459.156 2102.62 459.156L2082 459.156C2079.15 459.156 2076.84 456.848 2076.84 454 2076.84 451.152 2079.15 448.844 2082 448.844ZM2123.25 448.844 2143.88 448.844C2146.72 448.844 2149.03 451.152 2149.03 454 2149.03 456.848 2146.72 459.156 2143.88 459.156L2123.25 459.156C2120.4 459.156 2118.09 456.848 2118.09 454 2118.09 451.152 2120.4 448.844 2123.25 448.844ZM2164.5 448.844 2185.12 448.844C2187.97 448.844 2190.28 451.152 2190.28 454 2190.28 456.848 2187.97 459.156 2185.12 459.156L2164.5 459.156C2161.65 459.156 2159.34 456.848 2159.34 454 2159.34 451.152 2161.65 448.844 2164.5 448.844ZM2205.75 448.844 2226.38 448.844C2229.22 448.844 2231.53 451.152 2231.53 454 2231.53 456.848 2229.22 459.156 2226.38 459.156L2205.75 459.156C2202.9 459.156 2200.59 456.848 2200.59 454 2200.59 451.152 2202.9 448.844 2205.75 448.844ZM2247 448.844 2250.07 448.844 2267.62 448.844C2270.47 448.844 2272.78 451.152 2272.78 454 2272.78 456.848 2270.47 459.156 2267.62 459.156L2250.07 459.156 2247 459.156C2244.15 459.156 2241.84 456.848 2241.84 454 2241.84 451.152 2244.15 448.844 2247 448.844ZM2288.25 448.844 2308.88 448.844C2311.72 448.844 2314.03 451.152 2314.03 454 2314.03 456.848 2311.72 459.156 2308.88 459.156L2288.25 459.156C2285.4 459.156 2283.09 456.848 2283.09 454 2283.09 451.152 2285.4 448.844 2288.25 448.844ZM2329.5 448.844 2350.12 448.844C2352.97 448.844 2355.28 451.152 2355.28 454 2355.28 456.848 2352.97 459.156 2350.12 459.156L2329.5 459.156C2326.65 459.156 2324.34 456.848 2324.34 454 2324.34 451.152 2326.65 448.844 2329.5 448.844ZM2370.75 448.844 2391.38 448.844C2394.22 448.844 2396.53 451.152 2396.53 454 2396.53 456.848 2394.22 459.156 2391.38 459.156L2370.75 459.156C2367.9 459.156 2365.59 456.848 2365.59 454 2365.59 451.152 2367.9 448.844 2370.75 448.844ZM2412 448.844 2418.08 448.844 2432.62 448.844C2435.47 448.844 2437.78 451.152 2437.78 454 2437.78 456.848 2435.47 459.156 2432.62 459.156L2418.08 459.156 2412 459.156C2409.15 459.156 2406.84 456.848 2406.84 454 2406.84 451.152 2409.15 448.844 2412 448.844ZM2453.25 448.844 2473.88 448.844C2476.72 448.844 2479.03 451.152 2479.03 454 2479.03 456.848 2476.72 459.156 2473.88 459.156L2453.25 459.156C2450.4 459.156 2448.09 456.848 2448.09 454 2448.09 451.152 2450.4 448.844 2453.25 448.844ZM2494.5 448.844 2515.12 448.844C2517.97 448.844 2520.28 451.152 2520.28 454 2520.28 456.848 2517.97 459.156 2515.12 459.156L2494.5 459.156C2491.65 459.156 2489.34 456.848 2489.34 454 2489.34 451.152 2491.65 448.844 2494.5 448.844ZM2535.75 448.844 2556.38 448.844C2559.22 448.844 2561.53 451.152 2561.53 454 2561.53 456.848 2559.22 459.156 2556.38 459.156L2535.75 459.156C2532.9 459.156 2530.59 456.848 2530.59 454 2530.59 451.152 2532.9 448.844 2535.75 448.844ZM2577 448.844 2586.08 448.844 2597.62 448.844C2600.47 448.844 2602.78 451.152 2602.78 454 2602.78 456.848 2600.47 459.156 2597.62 459.156L2586.08 459.156 2577 459.156C2574.15 459.156 2571.84 456.848 2571.84 454 2571.84 451.152 2574.15 448.844 2577 448.844ZM2618.25 448.844 2638.88 448.844C2641.72 448.844 2644.03 451.152 2644.03 454 2644.03 456.848 2641.72 459.156 2638.88 459.156L2618.25 459.156C2615.4 459.156 2613.09 456.848 2613.09 454 2613.09 451.152 2615.4 448.844 2618.25 448.844ZM2659.5 448.844 2680.12 448.844C2682.97 448.844 2685.28 451.152 2685.28 454 2685.28 456.848 2682.97 459.156 2680.12 459.156L2659.5 459.156C2656.65 459.156 2654.34 456.848 2654.34 454 2654.34 451.152 2656.65 448.844 2659.5 448.844ZM2700.75 448.844 2721.38 448.844C2724.22 448.844 2726.53 451.152 2726.53 454 2726.53 456.848 2724.22 459.156 2721.38 459.156L2700.75 459.156C2697.9 459.156 2695.59 456.848 2695.59 454 2695.59 451.152 2697.9 448.844 2700.75 448.844ZM2742 448.844 2753.09 448.844 2762.62 448.844C2765.47 448.844 2767.78 451.152 2767.78 454 2767.78 456.848 2765.47 459.156 2762.62 459.156L2753.09 459.156 2742 459.156C2739.15 459.156 2736.84 456.848 2736.84 454 2736.84 451.152 2739.15 448.844 2742 448.844ZM2783.25 448.844 2803.88 448.844C2806.72 448.844 2809.03 451.152 2809.03 454 2809.03 456.848 2806.72 459.156 2803.88 459.156L2783.25 459.156C2780.4 459.156 2778.09 456.848 2778.09 454 2778.09 451.152 2780.4 448.844 2783.25 448.844ZM2824.5 448.844 2845.12 448.844C2847.97 448.844 2850.28 451.152 2850.28 454 2850.28 456.848 2847.97 459.156 2845.12 459.156L2824.5 459.156C2821.65 459.156 2819.34 456.848 2819.34 454 2819.34 451.152 2821.65 448.844 2824.5 448.844ZM2865.75 448.844 2886.38 448.844C2889.22 448.844 2891.53 451.152 2891.53 454 2891.53 456.848 2889.22 459.156 2886.38 459.156L2865.75 459.156C2862.9 459.156 2860.59 456.848 2860.59 454 2860.59 451.152 2862.9 448.844 2865.75 448.844ZM2907 448.844 2921.1 448.844 2927.62 448.844C2930.47 448.844 2932.78 451.152 2932.78 454 2932.78 456.848 2930.47 459.156 2927.62 459.156L2921.1 459.156 2907 459.156C2904.15 459.156 2901.84 456.848 2901.84 454 2901.84 451.152 2904.15 448.844 2907 448.844ZM2948.25 448.844 2968.88 448.844C2971.72 448.844 2974.03 451.152 2974.03 454 2974.03 456.848 2971.72 459.156 2968.88 459.156L2948.25 459.156C2945.4 459.156 2943.09 456.848 2943.09 454 2943.09 451.152 2945.4 448.844 2948.25 448.844ZM2989.5 448.844 3010.12 448.844C3012.97 448.844 3015.28 451.152 3015.28 454 3015.28 456.848 3012.97 459.156 3010.12 459.156L2989.5 459.156C2986.65 459.156 2984.34 456.848 2984.34 454 2984.34 451.152 2986.65 448.844 2989.5 448.844ZM3030.75 448.844 3051.38 448.844C3054.22 448.844 3056.53 451.152 3056.53 454 3056.53 456.848 3054.22 459.156 3051.38 459.156L3030.75 459.156C3027.9 459.156 3025.59 456.848 3025.59 454 3025.59 451.152 3027.9 448.844 3030.75 448.844ZM3072 448.844 3089.1 448.844 3092.62 448.844C3095.47 448.844 3097.78 451.152 3097.78 454 3097.78 456.848 3095.47 459.156 3092.62 459.156L3089.1 459.156 3072 459.156C3069.15 459.156 3066.84 456.848 3066.84 454 3066.84 451.152 3069.15 448.844 3072 448.844ZM3113.25 448.844 3133.88 448.844C3136.72 448.844 3139.03 451.152 3139.03 454 3139.03 456.848 3136.72 459.156 3133.88 459.156L3113.25 459.156C3110.4 459.156 3108.09 456.848 3108.09 454 3108.09 451.152 3110.4 448.844 3113.25 448.844ZM3154.5 448.844 3175.12 448.844C3177.97 448.844 3180.28 451.152 3180.28 454 3180.28 456.848 3177.97 459.156 3175.12 459.156L3154.5 459.156C3151.65 459.156 3149.34 456.848 3149.34 454 3149.34 451.152 3151.65 448.844 3154.5 448.844ZM3195.75 448.844 3216.38 448.844C3219.22 448.844 3221.53 451.152 3221.53 454 3221.53 456.848 3219.22 459.156 3216.38 459.156L3195.75 459.156C3192.9 459.156 3190.59 456.848 3190.59 454 3190.59 451.152 3192.9 448.844 3195.75 448.844ZM3237 448.844 3257.11 448.844 3257.62 448.844C3260.47 448.844 3262.78 451.152 3262.78 454 3262.78 456.848 3260.47 459.156 3257.62 459.156L3257.11 459.156 3237 459.156C3234.15 459.156 3231.84 456.848 3231.84 454 3231.84 451.152 3234.15 448.844 3237 448.844ZM3278.25 448.844 3298.88 448.844C3301.72 448.844 3304.03 451.152 3304.03 454 3304.03 456.848 3301.72 459.156 3298.88 459.156L3278.25 459.156C3275.4 459.156 3273.09 456.848 3273.09 454 3273.09 451.152 3275.4 448.844 3278.25 448.844ZM3319.5 448.844 3340.12 448.844C3342.97 448.844 3345.28 451.152 3345.28 454 3345.28 456.848 3342.97 459.156 3340.12 459.156L3319.5 459.156C3316.65 459.156 3314.34 456.848 3314.34 454 3314.34 451.152 3316.65 448.844 3319.5 448.844ZM3360.75 448.844 3381.38 448.844C3384.22 448.844 3386.53 451.152 3386.53 454 3386.53 456.848 3384.22 459.156 3381.38 459.156L3360.75 459.156C3357.9 459.156 3355.59 456.848 3355.59 454 3355.59 451.152 3357.9 448.844 3360.75 448.844ZM3402 448.844 3422.62 448.844C3425.47 448.844 3427.78 451.152 3427.78 454 3427.78 456.848 3425.47 459.156 3422.62 459.156L3402 459.156C3399.15 459.156 3396.84 456.848 3396.84 454 3396.84 451.152 3399.15 448.844 3402 448.844ZM3443.25 448.844 3463.88 448.844C3466.72 448.844 3469.03 451.152 3469.03 454 3469.03 456.848 3466.72 459.156 3463.88 459.156L3443.25 459.156C3440.4 459.156 3438.09 456.848 3438.09 454 3438.09 451.152 3440.4 448.844 3443.25 448.844ZM3484.5 448.844 3505.12 448.844C3507.97 448.844 3510.28 451.152 3510.28 454 3510.28 456.848 3507.97 459.156 3505.12 459.156L3484.5 459.156C3481.65 459.156 3479.34 456.848 3479.34 454 3479.34 451.152 3481.65 448.844 3484.5 448.844ZM3525.75 448.844 3546.38 448.844C3549.22 448.844 3551.53 451.152 3551.53 454 3551.53 456.848 3549.22 459.156 3546.38 459.156L3525.75 459.156C3522.9 459.156 3520.59 456.848 3520.59 454 3520.59 451.152 3522.9 448.844 3525.75 448.844ZM3567 448.844 3587.62 448.844C3590.47 448.844 3592.78 451.152 3592.78 454 3592.78 456.848 3590.47 459.156 3587.62 459.156L3567 459.156C3564.15 459.156 3561.84 456.848 3561.84 454 3561.84 451.152 3564.15 448.844 3567 448.844ZM3608.25 448.844 3628.88 448.844C3631.72 448.844 3634.03 451.152 3634.03 454 3634.03 456.848 3631.72 459.156 3628.88 459.156L3608.25 459.156C3605.4 459.156 3603.09 456.848 3603.09 454 3603.09 451.152 3605.4 448.844 3608.25 448.844ZM3649.5 448.844 3670.12 448.844C3672.97 448.844 3675.28 451.152 3675.28 454 3675.28 456.848 3672.97 459.156 3670.12 459.156L3649.5 459.156C3646.65 459.156 3644.34 456.848 3644.34 454 3644.34 451.152 3646.65 448.844 3649.5 448.844ZM3690.75 448.844 3711.38 448.844C3714.22 448.844 3716.53 451.152 3716.53 454 3716.53 456.848 3714.22 459.156 3711.38 459.156L3690.75 459.156C3687.9 459.156 3685.59 456.848 3685.59 454 3685.59 451.152 3687.9 448.844 3690.75 448.844ZM3732 448.844 3752.62 448.844C3755.47 448.844 3757.78 451.152 3757.78 454 3757.78 456.848 3755.47 459.156 3752.62 459.156L3732 459.156C3729.15 459.156 3726.84 456.848 3726.84 454 3726.84 451.152 3729.15 448.844 3732 448.844ZM3773.25 448.844 3793.88 448.844C3796.72 448.844 3799.03 451.152 3799.03 454 3799.03 456.848 3796.72 459.156 3793.88 459.156L3773.25 459.156C3770.4 459.156 3768.09 456.848 3768.09 454 3768.09 451.152 3770.4 448.844 3773.25 448.844ZM3814.5 448.844 3835.12 448.844C3837.97 448.844 3840.28 451.152 3840.28 454 3840.28 456.848 3837.97 459.156 3835.12 459.156L3814.5 459.156C3811.65 459.156 3809.34 456.848 3809.34 454 3809.34 451.152 3811.65 448.844 3814.5 448.844ZM3855.75 448.844 3876.38 448.844C3879.22 448.844 3881.53 451.152 3881.53 454 3881.53 456.848 3879.22 459.156 3876.38 459.156L3855.75 459.156C3852.9 459.156 3850.59 456.848 3850.59 454 3850.59 451.152 3852.9 448.844 3855.75 448.844ZM3897 448.844 3917.62 448.844C3920.47 448.844 3922.78 451.152 3922.78 454 3922.78 456.848 3920.47 459.156 3917.62 459.156L3897 459.156C3894.15 459.156 3891.84 456.848 3891.84 454 3891.84 451.152 3894.15 448.844 3897 448.844ZM3938.25 448.844 3958.88 448.844C3961.72 448.844 3964.03 451.152 3964.03 454 3964.03 456.848 3961.72 459.156 3958.88 459.156L3938.25 459.156C3935.4 459.156 3933.09 456.848 3933.09 454 3933.09 451.152 3935.4 448.844 3938.25 448.844ZM3979.5 448.844 4000.12 448.844C4002.97 448.844 4005.28 451.152 4005.28 454 4005.28 456.848 4002.97 459.156 4000.12 459.156L3979.5 459.156C3976.65 459.156 3974.34 456.848 3974.34 454 3974.34 451.152 3976.65 448.844 3979.5 448.844ZM4020.75 448.844 4041.38 448.844C4044.22 448.844 4046.53 451.152 4046.53 454 4046.53 456.848 4044.22 459.156 4041.38 459.156L4020.75 459.156C4017.9 459.156 4015.59 456.848 4015.59 454 4015.59 451.152 4017.9 448.844 4020.75 448.844ZM4062 448.844 4082.62 448.844C4085.47 448.844 4087.78 451.152 4087.78 454 4087.78 456.848 4085.47 459.156 4082.62 459.156L4062 459.156C4059.15 459.156 4056.84 456.848 4056.84 454 4056.84 451.152 4059.15 448.844 4062 448.844ZM4103.25 448.844 4123.88 448.844C4126.72 448.844 4129.03 451.152 4129.03 454 4129.03 456.848 4126.72 459.156 4123.88 459.156L4103.25 459.156C4100.4 459.156 4098.09 456.848 4098.09 454 4098.09 451.152 4100.4 448.844 4103.25 448.844ZM4144.5 448.844 4165.12 448.844C4167.97 448.844 4170.28 451.152 4170.28 454 4170.28 456.848 4167.97 459.156 4165.12 459.156L4144.5 459.156C4141.65 459.156 4139.34 456.848 4139.34 454 4139.34 451.152 4141.65 448.844 4144.5 448.844ZM4185.75 448.844 4206.38 448.844C4209.22 448.844 4211.53 451.152 4211.53 454 4211.53 456.848 4209.22 459.156 4206.38 459.156L4185.75 459.156C4182.9 459.156 4180.59 456.848 4180.59 454 4180.59 451.152 4182.9 448.844 4185.75 448.844ZM4227 448.844 4247.62 448.844C4250.47 448.844 4252.78 451.152 4252.78 454 4252.78 456.848 4250.47 459.156 4247.62 459.156L4227 459.156C4224.15 459.156 4221.84 456.848 4221.84 454 4221.84 451.152 4224.15 448.844 4227 448.844ZM4268.25 448.844 4288.88 448.844C4291.72 448.844 4294.03 451.152 4294.03 454 4294.03 456.848 4291.72 459.156 4288.88 459.156L4268.25 459.156C4265.4 459.156 4263.09 456.848 4263.09 454 4263.09 451.152 4265.4 448.844 4268.25 448.844ZM4309.5 448.844 4330.12 448.844C4332.97 448.844 4335.28 451.152 4335.28 454 4335.28 456.848 4332.97 459.156 4330.12 459.156L4309.5 459.156C4306.65 459.156 4304.34 456.848 4304.34 454 4304.34 451.152 4306.65 448.844 4309.5 448.844ZM4350.75 448.844 4371.38 448.844C4374.22 448.844 4376.53 451.152 4376.53 454 4376.53 456.848 4374.22 459.156 4371.38 459.156L4350.75 459.156C4347.9 459.156 4345.59 456.848 4345.59 454 4345.59 451.152 4347.9 448.844 4350.75 448.844ZM4392 448.844 4412.62 448.844C4415.47 448.844 4417.78 451.152 4417.78 454 4417.78 456.848 4415.47 459.156 4412.62 459.156L4392 459.156C4389.15 459.156 4386.84 456.848 4386.84 454 4386.84 451.152 4389.15 448.844 4392 448.844ZM4433.25 448.844 4453.88 448.844C4456.72 448.844 4459.03 451.152 4459.03 454 4459.03 456.848 4456.72 459.156 4453.88 459.156L4433.25 459.156C4430.4 459.156 4428.09 456.848 4428.09 454 4428.09 451.152 4430.4 448.844 4433.25 448.844ZM4474.5 448.844 4495.12 448.844C4497.97 448.844 4500.28 451.152 4500.28 454 4500.28 456.848 4497.97 459.156 4495.12 459.156L4474.5 459.156C4471.65 459.156 4469.34 456.848 4469.34 454 4469.34 451.152 4471.65 448.844 4474.5 448.844ZM4515.75 448.844 4536.38 448.844C4539.22 448.844 4541.53 451.152 4541.53 454 4541.53 456.848 4539.22 459.156 4536.38 459.156L4515.75 459.156C4512.9 459.156 4510.59 456.848 4510.59 454 4510.59 451.152 4512.9 448.844 4515.75 448.844ZM4557 448.844 4577.62 448.844C4580.47 448.844 4582.78 451.152 4582.78 454 4582.78 456.848 4580.47 459.156 4577.62 459.156L4557 459.156C4554.15 459.156 4551.84 456.848 4551.84 454 4551.84 451.152 4554.15 448.844 4557 448.844ZM4598.25 448.844 4599.15 448.844 4618.88 448.844C4621.72 448.844 4624.03 451.152 4624.03 454 4624.03 456.848 4621.72 459.156 4618.88 459.156L4599.15 459.156 4598.25 459.156C4595.4 459.156 4593.09 456.848 4593.09 454 4593.09 451.152 4595.4 448.844 4598.25 448.844ZM4639.5 448.844 4660.12 448.844C4662.97 448.844 4665.28 451.152 4665.28 454 4665.28 456.848 4662.97 459.156 4660.12 459.156L4639.5 459.156C4636.65 459.156 4634.34 456.848 4634.34 454 4634.34 451.152 4636.65 448.844 4639.5 448.844ZM4680.75 448.844 4701.38 448.844C4704.22 448.844 4706.53 451.152 4706.53 454 4706.53 456.848 4704.22 459.156 4701.38 459.156L4680.75 459.156C4677.9 459.156 4675.59 456.848 4675.59 454 4675.59 451.152 4677.9 448.844 4680.75 448.844ZM4722 448.844 4742.62 448.844C4745.47 448.844 4747.78 451.152 4747.78 454 4747.78 456.848 4745.47 459.156 4742.62 459.156L4722 459.156C4719.15 459.156 4716.84 456.848 4716.84 454 4716.84 451.152 4719.15 448.844 4722 448.844ZM4763.25 448.844 4767 448.844C4769.85 448.844 4772.16 451.152 4772.16 454 4772.16 456.848 4769.85 459.156 4767 459.156L4763.25 459.156C4760.4 459.156 4758.09 456.848 4758.09 454 4758.09 451.152 4760.4 448.844 4763.25 448.844Z" fill="#9BBB59" fill-rule="nonzero" fill-opacity="1"/></g><g><text fill="#595959" fill-opacity="1" font-family="Calibri,Calibri_MSFontService,sans-serif" font-style="normal" font-variant="normal" font-weight="400" font-stretch="normal" font-size="41" text-anchor="start" direction="ltr" writing-mode="lr-tb" unicode-bidi="normal" text-decoration="none" transform="matrix(1 0 0 1 1857.42 2127)">60.0%</text></g><g><text fill="#595959" fill-opacity="1" font-family="Calibri,Calibri_MSFontService,sans-serif" font-style="normal" font-variant="normal" font-weight="400" font-stretch="normal" font-size="41" text-anchor="start" direction="ltr" writing-mode="lr-tb" unicode-bidi="normal" text-decoration="none" transform="matrix(1 0 0 1 1857.42 1919)">65.0%</text></g><g><text fill="#595959" fill-opacity="1" font-family="Calibri,Calibri_MSFontService,sans-serif" font-style="normal" font-variant="normal" font-weight="400" font-stretch="normal" font-size="41" text-anchor="start" direction="ltr" writing-mode="lr-tb" unicode-bidi="normal" text-decoration="none" transform="matrix(1 0 0 1 1857.42 1711)">70.0%</text></g><g><text fill="#595959" fill-opacity="1" font-family="Calibri,Calibri_MSFontService,sans-serif" font-style="normal" font-variant="normal" font-weight="400" font-stretch="normal" font-size="41" text-anchor="start" direction="ltr" writing-mode="lr-tb" unicode-bidi="normal" text-decoration="none" transform="matrix(1 0 0 1 1857.42 1504)">75.0%</text></g><g><text fill="#595959" fill-opacity="1" font-family="Calibri,Calibri_MSFontService,sans-serif" font-style="normal" font-variant="normal" font-weight="400" font-stretch="normal" font-size="41" text-anchor="start" direction="ltr" writing-mode="lr-tb" unicode-bidi="normal" text-decoration="none" transform="matrix(1 0 0 1 1857.42 1296)">80.0%</text></g><g><text fill="#595959" fill-opacity="1" font-family="Calibri,Calibri_MSFontService,sans-serif" font-style="normal" font-variant="normal" font-weight="400" font-stretch="normal" font-size="41" text-anchor="start" direction="ltr" writing-mode="lr-tb" unicode-bidi="normal" text-decoration="none" transform="matrix(1 0 0 1 1857.42 1088)">85.0%</text></g><g><text fill="#595959" fill-opacity="1" font-family="Calibri,Calibri_MSFontService,sans-serif" font-style="normal" font-variant="normal" font-weight="400" font-stretch="normal" font-size="41" text-anchor="start" direction="ltr" writing-mode="lr-tb" unicode-bidi="normal" text-decoration="none" transform="matrix(1 0 0 1 1857.42 880)">90.0%</text></g><g><text fill="#595959" fill-opacity="1" font-family="Calibri,Calibri_MSFontService,sans-serif" font-style="normal" font-variant="normal" font-weight="400" font-stretch="normal" font-size="41" text-anchor="start" direction="ltr" writing-mode="lr-tb" unicode-bidi="normal" text-decoration="none" transform="matrix(1 0 0 1 1857.42 673)">95.0%</text></g><g><text fill="#595959" fill-opacity="1" font-family="Calibri,Calibri_MSFontService,sans-serif" font-style="normal" font-variant="normal" font-weight="400" font-stretch="normal" font-size="41" text-anchor="start" direction="ltr" writing-mode="lr-tb" unicode-bidi="normal" text-decoration="none" transform="matrix(1 0 0 1 1836.52 465)">100.0%</text></g><g><text fill="#595959" fill-opacity="1" font-family="Calibri,Calibri_MSFontService,sans-serif" font-style="normal" font-variant="normal" font-weight="400" font-stretch="normal" font-size="41" text-anchor="start" direction="ltr" writing-mode="lr-tb" unicode-bidi="normal" text-decoration="none" transform="matrix(1 0 0 1 2017.07 2182)">Sprint 1</text></g><g><text fill="#595959" fill-opacity="1" font-family="Calibri,Calibri_MSFontService,sans-serif" font-style="normal" font-variant="normal" font-weight="400" font-stretch="normal" font-size="41" text-anchor="start" direction="ltr" writing-mode="lr-tb" unicode-bidi="normal" text-decoration="none" transform="matrix(1 0 0 1 2184.9 2182)">Sprint 2</text></g><g><text fill="#595959" fill-opacity="1" font-family="Calibri,Calibri_MSFontService,sans-serif" font-style="normal" font-variant="normal" font-weight="400" font-stretch="normal" font-size="41" text-anchor="start" direction="ltr" writing-mode="lr-tb" unicode-bidi="normal" text-decoration="none" transform="matrix(1 0 0 1 2352.73 2182)">Sprint 3</text></g><g><text fill="#595959" fill-opacity="1" font-family="Calibri,Calibri_MSFontService,sans-serif" font-style="normal" font-variant="normal" font-weight="400" font-stretch="normal" font-size="41" text-anchor="start" direction="ltr" writing-mode="lr-tb" unicode-bidi="normal" text-decoration="none" transform="matrix(1 0 0 1 2520.55 2182)">Sprint 4</text></g><g><text fill="#595959" fill-opacity="1" font-family="Calibri,Calibri_MSFontService,sans-serif" font-style="normal" font-variant="normal" font-weight="400" font-stretch="normal" font-size="41" text-anchor="start" direction="ltr" writing-mode="lr-tb" unicode-bidi="normal" text-decoration="none" transform="matrix(1 0 0 1 2688.38 2182)">Sprint 5</text></g><g><text fill="#595959" fill-opacity="1" font-family="Calibri,Calibri_MSFontService,sans-serif" font-style="normal" font-variant="normal" font-weight="400" font-stretch="normal" font-size="41" text-anchor="start" direction="ltr" writing-mode="lr-tb" unicode-bidi="normal" text-decoration="none" transform="matrix(1 0 0 1 2856.21 2182)">Sprint 6</text></g><g><text fill="#595959" fill-opacity="1" font-family="Calibri,Calibri_MSFontService,sans-serif" font-style="normal" font-variant="normal" font-weight="400" font-stretch="normal" font-size="41" text-anchor="start" direction="ltr" writing-mode="lr-tb" unicode-bidi="normal" text-decoration="none" transform="matrix(1 0 0 1 3024.03 2182)">Sprint 7</text></g><g><text fill="#595959" fill-opacity="1" font-family="Calibri,Calibri_MSFontService,sans-serif" font-style="normal" font-variant="normal" font-weight="400" font-stretch="normal" font-size="41" text-anchor="start" direction="ltr" writing-mode="lr-tb" unicode-bidi="normal" text-decoration="none" transform="matrix(1 0 0 1 3191.86 2182)">Sprint 8</text></g><g><text fill="#595959" fill-opacity="1" font-family="Calibri,Calibri_MSFontService,sans-serif" font-style="normal" font-variant="normal" font-weight="400" font-stretch="normal" font-size="41" text-anchor="start" direction="ltr" writing-mode="lr-tb" unicode-bidi="normal" text-decoration="none" transform="matrix(1 0 0 1 3359.69 2182)">Sprint 9</text></g><g><text fill="#595959" fill-opacity="1" font-family="Calibri,Calibri_MSFontService,sans-serif" font-style="normal" font-variant="normal" font-weight="400" font-stretch="normal" font-size="41" text-anchor="start" direction="ltr" writing-mode="lr-tb" unicode-bidi="normal" text-decoration="none" transform="matrix(1 0 0 1 3517.06 2182)">Sprint 10</text></g><g><text fill="#595959" fill-opacity="1" font-family="Calibri,Calibri_MSFontService,sans-serif" font-style="normal" font-variant="normal" font-weight="400" font-stretch="normal" font-size="41" text-anchor="start" direction="ltr" writing-mode="lr-tb" unicode-bidi="normal" text-decoration="none" transform="matrix(1 0 0 1 3684.89 2182)">Sprint 11</text></g><g><text fill="#595959" fill-opacity="1" font-family="Calibri,Calibri_MSFontService,sans-serif" font-style="normal" font-variant="normal" font-weight="400" font-stretch="normal" font-size="41" text-anchor="start" direction="ltr" writing-mode="lr-tb" unicode-bidi="normal" text-decoration="none" transform="matrix(1 0 0 1 3852.72 2182)">Sprint 12</text></g><g><text fill="#595959" fill-opacity="1" font-family="Calibri,Calibri_MSFontService,sans-serif" font-style="normal" font-variant="normal" font-weight="400" font-stretch="normal" font-size="41" text-anchor="start" direction="ltr" writing-mode="lr-tb" unicode-bidi="normal" text-decoration="none" transform="matrix(1 0 0 1 4020.54 2182)">Sprint 13</text></g><g><text fill="#595959" fill-opacity="1" font-family="Calibri,Calibri_MSFontService,sans-serif" font-style="normal" font-variant="normal" font-weight="400" font-stretch="normal" font-size="41" text-anchor="start" direction="ltr" writing-mode="lr-tb" unicode-bidi="normal" text-decoration="none" transform="matrix(1 0 0 1 4188.37 2182)">Sprint 14</text></g><g><text fill="#595959" fill-opacity="1" font-family="Calibri,Calibri_MSFontService,sans-serif" font-style="normal" font-variant="normal" font-weight="400" font-stretch="normal" font-size="41" text-anchor="start" direction="ltr" writing-mode="lr-tb" unicode-bidi="normal" text-decoration="none" transform="matrix(1 0 0 1 4356.2 2182)">Sprint 15</text></g><g><text fill="#595959" fill-opacity="1" font-family="Calibri,Calibri_MSFontService,sans-serif" font-style="normal" font-variant="normal" font-weight="400" font-stretch="normal" font-size="41" text-anchor="start" direction="ltr" writing-mode="lr-tb" unicode-bidi="normal" text-decoration="none" transform="matrix(1 0 0 1 4524.02 2182)">Sprint 16</text></g><g><text fill="#595959" fill-opacity="1" font-family="Calibri,Calibri_MSFontService,sans-serif" font-style="normal" font-variant="normal" font-weight="400" font-stretch="normal" font-size="41" text-anchor="start" direction="ltr" writing-mode="lr-tb" unicode-bidi="normal" text-decoration="none" transform="matrix(1 0 0 1 4691.85 2182)">Sprint 17</text></g><g><text fill="#595959" fill-opacity="1" font-family="Calibri,Calibri_MSFontService,sans-serif" font-style="normal" font-variant="normal" font-weight="400" font-stretch="normal" font-size="64" text-anchor="start" direction="ltr" writing-mode="lr-tb" unicode-bidi="normal" text-decoration="none" transform="matrix(1 0 0 1 3374.38 380)">QMS</text></g><g><rect x="2785" y="2250" width="115" height="23" fill="#4F81BD" fill-opacity="1"/></g><g><text fill="#595959" fill-opacity="1" font-family="Calibri,Calibri_MSFontService,sans-serif" font-style="normal" font-variant="normal" font-weight="400" font-stretch="normal" font-size="41" text-anchor="start" direction="ltr" writing-mode="lr-tb" unicode-bidi="normal" text-decoration="none" transform="matrix(1 0 0 1 2912.89 2272)">MPC-QMS</text></g><g><path d="M3163 2255.84 3183.62 2255.84C3186.47 2255.84 3188.78 2258.15 3188.78 2261 3188.78 2263.85 3186.47 2266.16 3183.62 2266.16L3163 2266.16C3160.15 2266.16 3157.84 2263.85 3157.84 2261 3157.84 2258.15 3160.15 2255.84 3163 2255.84ZM3204.25 2255.84 3224.87 2255.84C3227.72 2255.84 3230.03 2258.15 3230.03 2261 3230.03 2263.85 3227.72 2266.16 3224.87 2266.16L3204.25 2266.16C3201.4 2266.16 3199.09 2263.85 3199.09 2261 3199.09 2258.15 3201.4 2255.84 3204.25 2255.84ZM3245.5 2255.84 3266.12 2255.84C3268.97 2255.84 3271.28 2258.15 3271.28 2261 3271.28 2263.85 3268.97 2266.16 3266.12 2266.16L3245.5 2266.16C3242.65 2266.16 3240.34 2263.85 3240.34 2261 3240.34 2258.15 3242.65 2255.84 3245.5 2255.84Z" fill="#C0504D" fill-rule="nonzero" fill-opacity="1"/></g><g><text fill="#595959" fill-opacity="1" font-family="Calibri,Calibri_MSFontService,sans-serif" font-style="normal" font-variant="normal" font-weight="400" font-stretch="normal" font-size="41" text-anchor="start" direction="ltr" writing-mode="lr-tb" unicode-bidi="normal" text-decoration="none" transform="matrix(1 0 0 1 3291.48 2272)">Soglia acc. (≥80%)</text></g><g><path d="M3668 2255.84 3688.63 2255.84C3691.47 2255.84 3693.78 2258.15 3693.78 2261 3693.78 2263.85 3691.47 2266.16 3688.63 2266.16L3668 2266.16C3665.15 2266.16 3662.84 2263.85 3662.84 2261 3662.84 2258.15 3665.15 2255.84 3668 2255.84ZM3709.25 2255.84 3729.88 2255.84C3732.72 2255.84 3735.03 2258.15 3735.03 2261 3735.03 2263.85 3732.72 2266.16 3729.88 2266.16L3709.25 2266.16C3706.4 2266.16 3704.09 2263.85 3704.09 2261 3704.09 2258.15 3706.4 2255.84 3709.25 2255.84ZM3750.5 2255.84 3771.13 2255.84C3773.97 2255.84 3776.28 2258.15 3776.28 2261 3776.28 2263.85 3773.97 2266.16 3771.13 2266.16L3750.5 2266.16C3747.65 2266.16 3745.34 2263.85 3745.34 2261 3745.34 2258.15 3747.65 2255.84 3750.5 2255.84Z" fill="#9BBB59" fill-rule="nonzero" fill-opacity="1"/></g><g><text fill="#595959" fill-opacity="1" font-family="Calibri,Calibri_MSFontService,sans-serif" font-style="normal" font-variant="normal" font-weight="400" font-stretch="normal" font-size="41" text-anchor="start" direction="ltr" writing-mode="lr-tb" unicode-bidi="normal" text-decoration="none" transform="matrix(1 0 0 1 3796.22 2272)">Soglia ott. (=100%)</text></g><rect x="1807.5" y="284.5" width="3263" height="2044" stroke="#D9D9D9" stroke-width="3.4375" stroke-linecap="butt" stroke-linejoin="round" stroke-miterlimit="10" stroke-opacity="1" fill="none"/></g></g></svg>