<svg width="3878" height="2022" xmlns="http://www.w3.org/2000/svg" xmlns:xlink="http://www.w3.org/1999/xlink" xml:space="preserve" overflow="hidden"><defs><clipPath id="clip0"><rect x="1177" y="595" width="3878" height="2022"/></clipPath><clipPath id="clip1"><rect x="1177" y="595" width="3878" height="2022"/></clipPath><clipPath id="clip2"><rect x="1395" y="768" width="3611" height="1638"/></clipPath><clipPath id="clip3"><rect x="1395" y="768" width="3611" height="1638"/></clipPath></defs><g clip-path="url(#clip0)" transform="translate(-1177 -595)"><g clip-path="url(#clip1)"><rect x="1183" y="598" width="3870" height="2017" fill="#FFFFFF" fill-opacity="1"/><g><path d="M1395.5 2239.57 5002.5 2239.57M1395.5 2076.57 5002.5 2076.57M1395.5 1912.56 5002.5 1912.56M1395.5 1749.56 5002.5 1749.56M1395.5 1585.55 5002.5 1585.55M1395.5 1422.55 5002.5 1422.55M1395.5 1258.54 5002.5 1258.54M1395.5 1095.54 5002.5 1095.54M1395.5 931.531 5002.5 931.531M1395.5 768.5 5002.5 768.5" stroke="#D9D9D9" stroke-width="3.4375" stroke-linecap="butt" stroke-linejoin="round" stroke-miterlimit="10" stroke-opacity="1" fill="none" fill-rule="nonzero"/></g><g clip-path="url(#clip2)"><path d="M1468.05 1364.04 1535.05 1364.04 1535.05 2403 1468.05 2403ZM1681.06 768 1747.06 768 1747.06 2403 1681.06 2403ZM1893.06 1066.04 1959.06 1066.04 1959.06 2403 1893.06 2403ZM2105.07 1040.03 2171.07 1040.03 2171.07 2403 2105.07 2403ZM2317.08 1020.03 2384.08 1020.03 2384.08 2403 2317.08 2403ZM2529.08 1020.03 2596.09 1020.03 2596.09 2403 2529.08 2403ZM2741.09 1422.05 2808.09 1422.05 2808.09 2403 2741.09 2403ZM2954.1 1089.04 3020.1 1089.04 3020.1 2403 2954.1 2403ZM3166.1 1272.04 3232.11 1272.04 3232.11 2403 3166.1 2403ZM3378.11 1524.05 3445.11 1524.05 3445.11 2403 3378.11 2403ZM3590.12 768 3657.12 768 3657.12 2403 3590.12 2403ZM3802.12 1020.03 3869.13 1020.03 3869.13 2403 3802.12 2403ZM4015.13 1197.04 4081.13 1197.04 4081.13 2403 4015.13 2403ZM4227.14 1197.04 4293.14 1197.04 4293.14 2403 4227.14 2403ZM4439.15 1197.04 4505.15 1197.04 4505.15 2403 4439.15 2403ZM4651.15 1449.05 4718.15 1449.05 4718.15 2403 4651.15 2403ZM4863.16 1122.04 4930.16 1122.04 4930.16 2403 4863.16 2403Z" fill="#4F81BD" fill-rule="nonzero" fill-opacity="1"/></g><g><path d="M1395.5 2403.5 5002.5 2403.5" stroke="#D9D9D9" stroke-width="3.4375" stroke-linecap="butt" stroke-linejoin="round" stroke-miterlimit="10" stroke-opacity="1" fill="none" fill-rule="evenodd"/></g><g clip-path="url(#clip3)"><path d="M1502 762.844 1522.62 762.844C1525.47 762.844 1527.78 765.152 1527.78 768 1527.78 770.848 1525.47 773.156 1522.62 773.156L1502 773.156C1499.15 773.156 1496.84 770.848 1496.84 768 1496.84 765.152 1499.15 762.844 1502 762.844ZM1543.25 762.844 1563.87 762.844C1566.72 762.844 1569.03 765.152 1569.03 768 1569.03 770.848 1566.72 773.156 1563.87 773.156L1543.25 773.156C1540.4 773.156 1538.09 770.848 1538.09 768 1538.09 765.152 1540.4 762.844 1543.25 762.844ZM1584.5 762.844 1605.12 762.844C1607.97 762.844 1610.28 765.152 1610.28 768 1610.28 770.848 1607.97 773.156 1605.12 773.156L1584.5 773.156C1581.65 773.156 1579.34 770.848 1579.34 768 1579.34 765.152 1581.65 762.844 1584.5 762.844ZM1625.75 762.844 1646.37 762.844C1649.22 762.844 1651.53 765.152 1651.53 768 1651.53 770.848 1649.22 773.156 1646.37 773.156L1625.75 773.156C1622.9 773.156 1620.59 770.848 1620.59 768 1620.59 765.152 1622.9 762.844 1625.75 762.844ZM1667 762.844 1687.62 762.844C1690.47 762.844 1692.78 765.152 1692.78 768 1692.78 770.848 1690.47 773.156 1687.62 773.156L1667 773.156C1664.15 773.156 1661.84 770.848 1661.84 768 1661.84 765.152 1664.15 762.844 1667 762.844ZM1708.25 762.844 1714.06 762.844 1728.87 762.844C1731.72 762.844 1734.03 765.152 1734.03 768 1734.03 770.848 1731.72 773.156 1728.87 773.156L1714.06 773.156 1708.25 773.156C1705.4 773.156 1703.09 770.848 1703.09 768 1703.09 765.152 1705.4 762.844 1708.25 762.844ZM1749.5 762.844 1770.12 762.844C1772.97 762.844 1775.28 765.152 1775.28 768 1775.28 770.848 1772.97 773.156 1770.12 773.156L1749.5 773.156C1746.65 773.156 1744.34 770.848 1744.34 768 1744.34 765.152 1746.65 762.844 1749.5 762.844ZM1790.75 762.844 1811.37 762.844C1814.22 762.844 1816.53 765.152 1816.53 768 1816.53 770.848 1814.22 773.156 1811.37 773.156L1790.75 773.156C1787.9 773.156 1785.59 770.848 1785.59 768 1785.59 765.152 1787.9 762.844 1790.75 762.844ZM1832 762.844 1852.62 762.844C1855.47 762.844 1857.78 765.152 1857.78 768 1857.78 770.848 1855.47 773.156 1852.62 773.156L1832 773.156C1829.15 773.156 1826.84 770.848 1826.84 768 1826.84 765.152 1829.15 762.844 1832 762.844ZM1873.25 762.844 1893.87 762.844C1896.72 762.844 1899.03 765.152 1899.03 768 1899.03 770.848 1896.72 773.156 1893.87 773.156L1873.25 773.156C1870.4 773.156 1868.09 770.848 1868.09 768 1868.09 765.152 1870.4 762.844 1873.25 762.844ZM1914.5 762.844 1926.06 762.844 1935.12 762.844C1937.97 762.844 1940.28 765.152 1940.28 768 1940.28 770.848 1937.97 773.156 1935.12 773.156L1926.06 773.156 1914.5 773.156C1911.65 773.156 1909.34 770.848 1909.34 768 1909.34 765.152 1911.65 762.844 1914.5 762.844ZM1955.75 762.844 1976.37 762.844C1979.22 762.844 1981.53 765.152 1981.53 768 1981.53 770.848 1979.22 773.156 1976.37 773.156L1955.75 773.156C1952.9 773.156 1950.59 770.848 1950.59 768 1950.59 765.152 1952.9 762.844 1955.75 762.844ZM1997 762.844 2017.62 762.844C2020.47 762.844 2022.78 765.152 2022.78 768 2022.78 770.848 2020.47 773.156 2017.62 773.156L1997 773.156C1994.15 773.156 1991.84 770.848 1991.84 768 1991.84 765.152 1994.15 762.844 1997 762.844ZM2038.25 762.844 2058.87 762.844C2061.72 762.844 2064.03 765.152 2064.03 768 2064.03 770.848 2061.72 773.156 2058.87 773.156L2038.25 773.156C2035.4 773.156 2033.09 770.848 2033.09 768 2033.09 765.152 2035.4 762.844 2038.25 762.844ZM2079.5 762.844 2100.12 762.844C2102.97 762.844 2105.28 765.152 2105.28 768 2105.28 770.848 2102.97 773.156 2100.12 773.156L2079.5 773.156C2076.65 773.156 2074.34 770.848 2074.34 768 2074.34 765.152 2076.65 762.844 2079.5 762.844ZM2120.75 762.844 2138.07 762.844 2141.37 762.844C2144.22 762.844 2146.53 765.152 2146.53 768 2146.53 770.848 2144.22 773.156 2141.37 773.156L2138.07 773.156 2120.75 773.156C2117.9 773.156 2115.59 770.848 2115.59 768 2115.59 765.152 2117.9 762.844 2120.75 762.844ZM2162 762.844 2182.62 762.844C2185.47 762.844 2187.78 765.152 2187.78 768 2187.78 770.848 2185.47 773.156 2182.62 773.156L2162 773.156C2159.15 773.156 2156.84 770.848 2156.84 768 2156.84 765.152 2159.15 762.844 2162 762.844ZM2203.25 762.844 2223.87 762.844C2226.72 762.844 2229.03 765.152 2229.03 768 2229.03 770.848 2226.72 773.156 2223.87 773.156L2203.25 773.156C2200.4 773.156 2198.09 770.848 2198.09 768 2198.09 765.152 2200.4 762.844 2203.25 762.844ZM2244.5 762.844 2265.12 762.844C2267.97 762.844 2270.28 765.152 2270.28 768 2270.28 770.848 2267.97 773.156 2265.12 773.156L2244.5 773.156C2241.65 773.156 2239.34 770.848 2239.34 768 2239.34 765.152 2241.65 762.844 2244.5 762.844ZM2285.75 762.844 2306.37 762.844C2309.22 762.844 2311.53 765.152 2311.53 768 2311.53 770.848 2309.22 773.156 2306.37 773.156L2285.75 773.156C2282.9 773.156 2280.59 770.848 2280.59 768 2280.59 765.152 2282.9 762.844 2285.75 762.844ZM2327 762.844 2347.62 762.844C2350.47 762.844 2352.78 765.152 2352.78 768 2352.78 770.848 2350.47 773.156 2347.62 773.156L2327 773.156C2324.15 773.156 2321.84 770.848 2321.84 768 2321.84 765.152 2324.15 762.844 2327 762.844ZM2368.25 762.844 2388.87 762.844C2391.72 762.844 2394.03 765.152 2394.03 768 2394.03 770.848 2391.72 773.156 2388.87 773.156L2368.25 773.156C2365.4 773.156 2363.09 770.848 2363.09 768 2363.09 765.152 2365.4 762.844 2368.25 762.844ZM2409.5 762.844 2430.12 762.844C2432.97 762.844 2435.28 765.152 2435.28 768 2435.28 770.848 2432.97 773.156 2430.12 773.156L2409.5 773.156C2406.65 773.156 2404.34 770.848 2404.34 768 2404.34 765.152 2406.65 762.844 2409.5 762.844ZM2450.75 762.844 2471.37 762.844C2474.22 762.844 2476.53 765.152 2476.53 768 2476.53 770.848 2474.22 773.156 2471.37 773.156L2450.75 773.156C2447.9 773.156 2445.59 770.848 2445.59 768 2445.59 765.152 2447.9 762.844 2450.75 762.844ZM2492 762.844 2512.62 762.844C2515.47 762.844 2517.78 765.152 2517.78 768 2517.78 770.848 2515.47 773.156 2512.62 773.156L2492 773.156C2489.15 773.156 2486.84 770.848 2486.84 768 2486.84 765.152 2489.15 762.844 2492 762.844ZM2533.25 762.844 2553.87 762.844C2556.72 762.844 2559.03 765.152 2559.03 768 2559.03 770.848 2556.72 773.156 2553.87 773.156L2533.25 773.156C2530.4 773.156 2528.09 770.848 2528.09 768 2528.09 765.152 2530.4 762.844 2533.25 762.844ZM2574.5 762.844 2595.12 762.844C2597.97 762.844 2600.28 765.152 2600.28 768 2600.28 770.848 2597.97 773.156 2595.12 773.156L2574.5 773.156C2571.65 773.156 2569.34 770.848 2569.34 768 2569.34 765.152 2571.65 762.844 2574.5 762.844ZM2615.75 762.844 2636.37 762.844C2639.22 762.844 2641.53 765.152 2641.53 768 2641.53 770.848 2639.22 773.156 2636.37 773.156L2615.75 773.156C2612.9 773.156 2610.59 770.848 2610.59 768 2610.59 765.152 2612.9 762.844 2615.75 762.844ZM2657 762.844 2677.62 762.844C2680.47 762.844 2682.78 765.152 2682.78 768 2682.78 770.848 2680.47 773.156 2677.62 773.156L2657 773.156C2654.15 773.156 2651.84 770.848 2651.84 768 2651.84 765.152 2654.15 762.844 2657 762.844ZM2698.25 762.844 2718.87 762.844C2721.72 762.844 2724.03 765.152 2724.03 768 2724.03 770.848 2721.72 773.156 2718.87 773.156L2698.25 773.156C2695.4 773.156 2693.09 770.848 2693.09 768 2693.09 765.152 2695.4 762.844 2698.25 762.844ZM2739.5 762.844 2760.12 762.844C2762.97 762.844 2765.28 765.152 2765.28 768 2765.28 770.848 2762.97 773.156 2760.12 773.156L2739.5 773.156C2736.65 773.156 2734.34 770.848 2734.34 768 2734.34 765.152 2736.65 762.844 2739.5 762.844ZM2780.75 762.844 2801.37 762.844C2804.22 762.844 2806.53 765.152 2806.53 768 2806.53 770.848 2804.22 773.156 2801.37 773.156L2780.75 773.156C2777.9 773.156 2775.59 770.848 2775.59 768 2775.59 765.152 2777.9 762.844 2780.75 762.844ZM2822 762.844 2842.62 762.844C2845.47 762.844 2847.78 765.152 2847.78 768 2847.78 770.848 2845.47 773.156 2842.62 773.156L2822 773.156C2819.15 773.156 2816.84 770.848 2816.84 768 2816.84 765.152 2819.15 762.844 2822 762.844ZM2863.25 762.844 2883.87 762.844C2886.72 762.844 2889.03 765.152 2889.03 768 2889.03 770.848 2886.72 773.156 2883.87 773.156L2863.25 773.156C2860.4 773.156 2858.09 770.848 2858.09 768 2858.09 765.152 2860.4 762.844 2863.25 762.844ZM2904.5 762.844 2925.12 762.844C2927.97 762.844 2930.28 765.152 2930.28 768 2930.28 770.848 2927.97 773.156 2925.12 773.156L2904.5 773.156C2901.65 773.156 2899.34 770.848 2899.34 768 2899.34 765.152 2901.65 762.844 2904.5 762.844ZM2945.75 762.844 2966.37 762.844C2969.22 762.844 2971.53 765.152 2971.53 768 2971.53 770.848 2969.22 773.156 2966.37 773.156L2945.75 773.156C2942.9 773.156 2940.59 770.848 2940.59 768 2940.59 765.152 2942.9 762.844 2945.75 762.844ZM2987 762.844 2987.1 762.844 3007.62 762.844C3010.47 762.844 3012.78 765.152 3012.78 768 3012.78 770.848 3010.47 773.156 3007.62 773.156L2987.1 773.156 2987 773.156C2984.15 773.156 2981.84 770.848 2981.84 768 2981.84 765.152 2984.15 762.844 2987 762.844ZM3028.25 762.844 3048.87 762.844C3051.72 762.844 3054.03 765.152 3054.03 768 3054.03 770.848 3051.72 773.156 3048.87 773.156L3028.25 773.156C3025.4 773.156 3023.09 770.848 3023.09 768 3023.09 765.152 3025.4 762.844 3028.25 762.844ZM3069.5 762.844 3090.12 762.844C3092.97 762.844 3095.28 765.152 3095.28 768 3095.28 770.848 3092.97 773.156 3090.12 773.156L3069.5 773.156C3066.65 773.156 3064.34 770.848 3064.34 768 3064.34 765.152 3066.65 762.844 3069.5 762.844ZM3110.75 762.844 3131.37 762.844C3134.22 762.844 3136.53 765.152 3136.53 768 3136.53 770.848 3134.22 773.156 3131.37 773.156L3110.75 773.156C3107.9 773.156 3105.59 770.848 3105.59 768 3105.59 765.152 3107.9 762.844 3110.75 762.844ZM3152 762.844 3172.62 762.844C3175.47 762.844 3177.78 765.152 3177.78 768 3177.78 770.848 3175.47 773.156 3172.62 773.156L3152 773.156C3149.15 773.156 3146.84 770.848 3146.84 768 3146.84 765.152 3149.15 762.844 3152 762.844ZM3193.25 762.844 3199.1 762.844 3213.87 762.844C3216.72 762.844 3219.03 765.152 3219.03 768 3219.03 770.848 3216.72 773.156 3213.87 773.156L3199.1 773.156 3193.25 773.156C3190.4 773.156 3188.09 770.848 3188.09 768 3188.09 765.152 3190.4 762.844 3193.25 762.844ZM3234.5 762.844 3255.12 762.844C3257.97 762.844 3260.28 765.152 3260.28 768 3260.28 770.848 3257.97 773.156 3255.12 773.156L3234.5 773.156C3231.65 773.156 3229.34 770.848 3229.34 768 3229.34 765.152 3231.65 762.844 3234.5 762.844ZM3275.75 762.844 3296.37 762.844C3299.22 762.844 3301.53 765.152 3301.53 768 3301.53 770.848 3299.22 773.156 3296.37 773.156L3275.75 773.156C3272.9 773.156 3270.59 770.848 3270.59 768 3270.59 765.152 3272.9 762.844 3275.75 762.844ZM3317 762.844 3337.62 762.844C3340.47 762.844 3342.78 765.152 3342.78 768 3342.78 770.848 3340.47 773.156 3337.62 773.156L3317 773.156C3314.15 773.156 3311.84 770.848 3311.84 768 3311.84 765.152 3314.15 762.844 3317 762.844ZM3358.25 762.844 3378.87 762.844C3381.72 762.844 3384.03 765.152 3384.03 768 3384.03 770.848 3381.72 773.156 3378.87 773.156L3358.25 773.156C3355.4 773.156 3353.09 770.848 3353.09 768 3353.09 765.152 3355.4 762.844 3358.25 762.844ZM3399.5 762.844 3411.11 762.844 3420.12 762.844C3422.97 762.844 3425.28 765.152 3425.28 768 3425.28 770.848 3422.97 773.156 3420.12 773.156L3411.11 773.156 3399.5 773.156C3396.65 773.156 3394.34 770.848 3394.34 768 3394.34 765.152 3396.65 762.844 3399.5 762.844ZM3440.75 762.844 3461.37 762.844C3464.22 762.844 3466.53 765.152 3466.53 768 3466.53 770.848 3464.22 773.156 3461.37 773.156L3440.75 773.156C3437.9 773.156 3435.59 770.848 3435.59 768 3435.59 765.152 3437.9 762.844 3440.75 762.844ZM3482 762.844 3502.62 762.844C3505.47 762.844 3507.78 765.152 3507.78 768 3507.78 770.848 3505.47 773.156 3502.62 773.156L3482 773.156C3479.15 773.156 3476.84 770.848 3476.84 768 3476.84 765.152 3479.15 762.844 3482 762.844ZM3523.25 762.844 3543.87 762.844C3546.72 762.844 3549.03 765.152 3549.03 768 3549.03 770.848 3546.72 773.156 3543.87 773.156L3523.25 773.156C3520.4 773.156 3518.09 770.848 3518.09 768 3518.09 765.152 3520.4 762.844 3523.25 762.844ZM3564.5 762.844 3585.12 762.844C3587.97 762.844 3590.28 765.152 3590.28 768 3590.28 770.848 3587.97 773.156 3585.12 773.156L3564.5 773.156C3561.65 773.156 3559.34 770.848 3559.34 768 3559.34 765.152 3561.65 762.844 3564.5 762.844ZM3605.75 762.844 3623.12 762.844 3626.37 762.844C3629.22 762.844 3631.53 765.152 3631.53 768 3631.53 770.848 3629.22 773.156 3626.37 773.156L3623.12 773.156 3605.75 773.156C3602.9 773.156 3600.59 770.848 3600.59 768 3600.59 765.152 3602.9 762.844 3605.75 762.844ZM3647 762.844 3667.62 762.844C3670.47 762.844 3672.78 765.152 3672.78 768 3672.78 770.848 3670.47 773.156 3667.62 773.156L3647 773.156C3644.15 773.156 3641.84 770.848 3641.84 768 3641.84 765.152 3644.15 762.844 3647 762.844ZM3688.25 762.844 3708.87 762.844C3711.72 762.844 3714.03 765.152 3714.03 768 3714.03 770.848 3711.72 773.156 3708.87 773.156L3688.25 773.156C3685.4 773.156 3683.09 770.848 3683.09 768 3683.09 765.152 3685.4 762.844 3688.25 762.844ZM3729.5 762.844 3750.12 762.844C3752.97 762.844 3755.28 765.152 3755.28 768 3755.28 770.848 3752.97 773.156 3750.12 773.156L3729.5 773.156C3726.65 773.156 3724.34 770.848 3724.34 768 3724.34 765.152 3726.65 762.844 3729.5 762.844ZM3770.75 762.844 3791.37 762.844C3794.22 762.844 3796.53 765.152 3796.53 768 3796.53 770.848 3794.22 773.156 3791.37 773.156L3770.75 773.156C3767.9 773.156 3765.59 770.848 3765.59 768 3765.59 765.152 3767.9 762.844 3770.75 762.844ZM3812 762.844 3832.62 762.844C3835.47 762.844 3837.78 765.152 3837.78 768 3837.78 770.848 3835.47 773.156 3832.62 773.156L3812 773.156C3809.15 773.156 3806.84 770.848 3806.84 768 3806.84 765.152 3809.15 762.844 3812 762.844ZM3853.25 762.844 3873.87 762.844C3876.72 762.844 3879.03 765.152 3879.03 768 3879.03 770.848 3876.72 773.156 3873.87 773.156L3853.25 773.156C3850.4 773.156 3848.09 770.848 3848.09 768 3848.09 765.152 3850.4 762.844 3853.25 762.844ZM3894.5 762.844 3915.12 762.844C3917.97 762.844 3920.28 765.152 3920.28 768 3920.28 770.848 3917.97 773.156 3915.12 773.156L3894.5 773.156C3891.65 773.156 3889.34 770.848 3889.34 768 3889.34 765.152 3891.65 762.844 3894.5 762.844ZM3935.75 762.844 3956.37 762.844C3959.22 762.844 3961.53 765.152 3961.53 768 3961.53 770.848 3959.22 773.156 3956.37 773.156L3935.75 773.156C3932.9 773.156 3930.59 770.848 3930.59 768 3930.59 765.152 3932.9 762.844 3935.75 762.844ZM3977 762.844 3997.62 762.844C4000.47 762.844 4002.78 765.152 4002.78 768 4002.78 770.848 4000.47 773.156 3997.62 773.156L3977 773.156C3974.15 773.156 3971.84 770.848 3971.84 768 3971.84 765.152 3974.15 762.844 3977 762.844ZM4018.25 762.844 4038.87 762.844C4041.72 762.844 4044.03 765.152 4044.03 768 4044.03 770.848 4041.72 773.156 4038.87 773.156L4018.25 773.156C4015.4 773.156 4013.09 770.848 4013.09 768 4013.09 765.152 4015.4 762.844 4018.25 762.844ZM4059.5 762.844 4080.12 762.844C4082.97 762.844 4085.28 765.152 4085.28 768 4085.28 770.848 4082.97 773.156 4080.12 773.156L4059.5 773.156C4056.65 773.156 4054.34 770.848 4054.34 768 4054.34 765.152 4056.65 762.844 4059.5 762.844ZM4100.75 762.844 4121.38 762.844C4124.22 762.844 4126.53 765.152 4126.53 768 4126.53 770.848 4124.22 773.156 4121.38 773.156L4100.75 773.156C4097.9 773.156 4095.59 770.848 4095.59 768 4095.59 765.152 4097.9 762.844 4100.75 762.844ZM4142 762.844 4162.62 762.844C4165.47 762.844 4167.78 765.152 4167.78 768 4167.78 770.848 4165.47 773.156 4162.62 773.156L4142 773.156C4139.15 773.156 4136.84 770.848 4136.84 768 4136.84 765.152 4139.15 762.844 4142 762.844ZM4183.25 762.844 4203.88 762.844C4206.72 762.844 4209.03 765.152 4209.03 768 4209.03 770.848 4206.72 773.156 4203.88 773.156L4183.25 773.156C4180.4 773.156 4178.09 770.848 4178.09 768 4178.09 765.152 4180.4 762.844 4183.25 762.844ZM4224.5 762.844 4245.12 762.844C4247.97 762.844 4250.28 765.152 4250.28 768 4250.28 770.848 4247.97 773.156 4245.12 773.156L4224.5 773.156C4221.65 773.156 4219.34 770.848 4219.34 768 4219.34 765.152 4221.65 762.844 4224.5 762.844ZM4265.75 762.844 4286.38 762.844C4289.22 762.844 4291.53 765.152 4291.53 768 4291.53 770.848 4289.22 773.156 4286.38 773.156L4265.75 773.156C4262.9 773.156 4260.59 770.848 4260.59 768 4260.59 765.152 4262.9 762.844 4265.75 762.844ZM4307 762.844 4327.62 762.844C4330.47 762.844 4332.78 765.152 4332.78 768 4332.78 770.848 4330.47 773.156 4327.62 773.156L4307 773.156C4304.15 773.156 4301.84 770.848 4301.84 768 4301.84 765.152 4304.15 762.844 4307 762.844ZM4348.25 762.844 4368.88 762.844C4371.72 762.844 4374.03 765.152 4374.03 768 4374.03 770.848 4371.72 773.156 4368.88 773.156L4348.25 773.156C4345.4 773.156 4343.09 770.848 4343.09 768 4343.09 765.152 4345.4 762.844 4348.25 762.844ZM4389.5 762.844 4410.12 762.844C4412.97 762.844 4415.28 765.152 4415.28 768 4415.28 770.848 4412.97 773.156 4410.12 773.156L4389.5 773.156C4386.65 773.156 4384.34 770.848 4384.34 768 4384.34 765.152 4386.65 762.844 4389.5 762.844ZM4430.75 762.844 4451.38 762.844C4454.22 762.844 4456.53 765.152 4456.53 768 4456.53 770.848 4454.22 773.156 4451.38 773.156L4430.75 773.156C4427.9 773.156 4425.59 770.848 4425.59 768 4425.59 765.152 4427.9 762.844 4430.75 762.844ZM4472 762.844 4472.15 762.844 4492.62 762.844C4495.47 762.844 4497.78 765.152 4497.78 768 4497.78 770.848 4495.47 773.156 4492.62 773.156L4472.15 773.156 4472 773.156C4469.15 773.156 4466.84 770.848 4466.84 768 4466.84 765.152 4469.15 762.844 4472 762.844ZM4513.25 762.844 4533.88 762.844C4536.72 762.844 4539.03 765.152 4539.03 768 4539.03 770.848 4536.72 773.156 4533.88 773.156L4513.25 773.156C4510.4 773.156 4508.09 770.848 4508.09 768 4508.09 765.152 4510.4 762.844 4513.25 762.844ZM4554.5 762.844 4575.12 762.844C4577.97 762.844 4580.28 765.152 4580.28 768 4580.28 770.848 4577.97 773.156 4575.12 773.156L4554.5 773.156C4551.65 773.156 4549.34 770.848 4549.34 768 4549.34 765.152 4551.65 762.844 4554.5 762.844ZM4595.75 762.844 4616.38 762.844C4619.22 762.844 4621.53 765.152 4621.53 768 4621.53 770.848 4619.22 773.156 4616.38 773.156L4595.75 773.156C4592.9 773.156 4590.59 770.848 4590.59 768 4590.59 765.152 4592.9 762.844 4595.75 762.844ZM4637 762.844 4657.62 762.844C4660.47 762.844 4662.78 765.152 4662.78 768 4662.78 770.848 4660.47 773.156 4657.62 773.156L4637 773.156C4634.15 773.156 4631.84 770.848 4631.84 768 4631.84 765.152 4634.15 762.844 4637 762.844ZM4678.25 762.844 4684.15 762.844 4698.88 762.844C4701.72 762.844 4704.03 765.152 4704.03 768 4704.03 770.848 4701.72 773.156 4698.88 773.156L4684.15 773.156 4678.25 773.156C4675.4 773.156 4673.09 770.848 4673.09 768 4673.09 765.152 4675.4 762.844 4678.25 762.844ZM4719.5 762.844 4740.12 762.844C4742.97 762.844 4745.28 765.152 4745.28 768 4745.28 770.848 4742.97 773.156 4740.12 773.156L4719.5 773.156C4716.65 773.156 4714.34 770.848 4714.34 768 4714.34 765.152 4716.65 762.844 4719.5 762.844ZM4760.75 762.844 4781.38 762.844C4784.22 762.844 4786.53 765.152 4786.53 768 4786.53 770.848 4784.22 773.156 4781.38 773.156L4760.75 773.156C4757.9 773.156 4755.59 770.848 4755.59 768 4755.59 765.152 4757.9 762.844 4760.75 762.844ZM4802 762.844 4822.62 762.844C4825.47 762.844 4827.78 765.152 4827.78 768 4827.78 770.848 4825.47 773.156 4822.62 773.156L4802 773.156C4799.15 773.156 4796.84 770.848 4796.84 768 4796.84 765.152 4799.15 762.844 4802 762.844ZM4843.25 762.844 4863.88 762.844C4866.72 762.844 4869.03 765.152 4869.03 768 4869.03 770.848 4866.72 773.156 4863.88 773.156L4843.25 773.156C4840.4 773.156 4838.09 770.848 4838.09 768 4838.09 765.152 4840.4 762.844 4843.25 762.844ZM4884.5 762.844 4897 762.844C4899.85 762.844 4902.16 765.152 4902.16 768 4902.16 770.848 4899.85 773.156 4897 773.156L4884.5 773.156C4881.65 773.156 4879.34 770.848 4879.34 768 4879.34 765.152 4881.65 762.844 4884.5 762.844Z" fill="#00B050" fill-rule="nonzero" fill-opacity="1"/></g><g><path d="M1502 1416.84 1522.62 1416.84C1525.47 1416.84 1527.78 1419.15 1527.78 1422 1527.78 1424.85 1525.47 1427.16 1522.62 1427.16L1502 1427.16C1499.15 1427.16 1496.84 1424.85 1496.84 1422 1496.84 1419.15 1499.15 1416.84 1502 1416.84ZM1543.25 1416.84 1563.87 1416.84C1566.72 1416.84 1569.03 1419.15 1569.03 1422 1569.03 1424.85 1566.72 1427.16 1563.87 1427.16L1543.25 1427.16C1540.4 1427.16 1538.09 1424.85 1538.09 1422 1538.09 1419.15 1540.4 1416.84 1543.25 1416.84ZM1584.5 1416.84 1605.12 1416.84C1607.97 1416.84 1610.28 1419.15 1610.28 1422 1610.28 1424.85 1607.97 1427.16 1605.12 1427.16L1584.5 1427.16C1581.65 1427.16 1579.34 1424.85 1579.34 1422 1579.34 1419.15 1581.65 1416.84 1584.5 1416.84ZM1625.75 1416.84 1646.37 1416.84C1649.22 1416.84 1651.53 1419.15 1651.53 1422 1651.53 1424.85 1649.22 1427.16 1646.37 1427.16L1625.75 1427.16C1622.9 1427.16 1620.59 1424.85 1620.59 1422 1620.59 1419.15 1622.9 1416.84 1625.75 1416.84ZM1667 1416.84 1687.62 1416.84C1690.47 1416.84 1692.78 1419.15 1692.78 1422 1692.78 1424.85 1690.47 1427.16 1687.62 1427.16L1667 1427.16C1664.15 1427.16 1661.84 1424.85 1661.84 1422 1661.84 1419.15 1664.15 1416.84 1667 1416.84ZM1708.25 1416.84 1714.06 1416.84 1728.87 1416.84C1731.72 1416.84 1734.03 1419.15 1734.03 1422 1734.03 1424.85 1731.72 1427.16 1728.87 1427.16L1714.06 1427.16 1708.25 1427.16C1705.4 1427.16 1703.09 1424.85 1703.09 1422 1703.09 1419.15 1705.4 1416.84 1708.25 1416.84ZM1749.5 1416.84 1770.12 1416.84C1772.97 1416.84 1775.28 1419.15 1775.28 1422 1775.28 1424.85 1772.97 1427.16 1770.12 1427.16L1749.5 1427.16C1746.65 1427.16 1744.34 1424.85 1744.34 1422 1744.34 1419.15 1746.65 1416.84 1749.5 1416.84ZM1790.75 1416.84 1811.37 1416.84C1814.22 1416.84 1816.53 1419.15 1816.53 1422 1816.53 1424.85 1814.22 1427.16 1811.37 1427.16L1790.75 1427.16C1787.9 1427.16 1785.59 1424.85 1785.59 1422 1785.59 1419.15 1787.9 1416.84 1790.75 1416.84ZM1832 1416.84 1852.62 1416.84C1855.47 1416.84 1857.78 1419.15 1857.78 1422 1857.78 1424.85 1855.47 1427.16 1852.62 1427.16L1832 1427.16C1829.15 1427.16 1826.84 1424.85 1826.84 1422 1826.84 1419.15 1829.15 1416.84 1832 1416.84ZM1873.25 1416.84 1893.87 1416.84C1896.72 1416.84 1899.03 1419.15 1899.03 1422 1899.03 1424.85 1896.72 1427.16 1893.87 1427.16L1873.25 1427.16C1870.4 1427.16 1868.09 1424.85 1868.09 1422 1868.09 1419.15 1870.4 1416.84 1873.25 1416.84ZM1914.5 1416.84 1926.06 1416.84 1935.12 1416.84C1937.97 1416.84 1940.28 1419.15 1940.28 1422 1940.28 1424.85 1937.97 1427.16 1935.12 1427.16L1926.06 1427.16 1914.5 1427.16C1911.65 1427.16 1909.34 1424.85 1909.34 1422 1909.34 1419.15 1911.65 1416.84 1914.5 1416.84ZM1955.75 1416.84 1976.37 1416.84C1979.22 1416.84 1981.53 1419.15 1981.53 1422 1981.53 1424.85 1979.22 1427.16 1976.37 1427.16L1955.75 1427.16C1952.9 1427.16 1950.59 1424.85 1950.59 1422 1950.59 1419.15 1952.9 1416.84 1955.75 1416.84ZM1997 1416.84 2017.62 1416.84C2020.47 1416.84 2022.78 1419.15 2022.78 1422 2022.78 1424.85 2020.47 1427.16 2017.62 1427.16L1997 1427.16C1994.15 1427.16 1991.84 1424.85 1991.84 1422 1991.84 1419.15 1994.15 1416.84 1997 1416.84ZM2038.25 1416.84 2058.87 1416.84C2061.72 1416.84 2064.03 1419.15 2064.03 1422 2064.03 1424.85 2061.72 1427.16 2058.87 1427.16L2038.25 1427.16C2035.4 1427.16 2033.09 1424.85 2033.09 1422 2033.09 1419.15 2035.4 1416.84 2038.25 1416.84ZM2079.5 1416.84 2100.12 1416.84C2102.97 1416.84 2105.28 1419.15 2105.28 1422 2105.28 1424.85 2102.97 1427.16 2100.12 1427.16L2079.5 1427.16C2076.65 1427.16 2074.34 1424.85 2074.34 1422 2074.34 1419.15 2076.65 1416.84 2079.5 1416.84ZM2120.75 1416.84 2138.07 1416.84 2141.37 1416.84C2144.22 1416.84 2146.53 1419.15 2146.53 1422 2146.53 1424.85 2144.22 1427.16 2141.37 1427.16L2138.07 1427.16 2120.75 1427.16C2117.9 1427.16 2115.59 1424.85 2115.59 1422 2115.59 1419.15 2117.9 1416.84 2120.75 1416.84ZM2162 1416.84 2182.62 1416.84C2185.47 1416.84 2187.78 1419.15 2187.78 1422 2187.78 1424.85 2185.47 1427.16 2182.62 1427.16L2162 1427.16C2159.15 1427.16 2156.84 1424.85 2156.84 1422 2156.84 1419.15 2159.15 1416.84 2162 1416.84ZM2203.25 1416.84 2223.87 1416.84C2226.72 1416.84 2229.03 1419.15 2229.03 1422 2229.03 1424.85 2226.72 1427.16 2223.87 1427.16L2203.25 1427.16C2200.4 1427.16 2198.09 1424.85 2198.09 1422 2198.09 1419.15 2200.4 1416.84 2203.25 1416.84ZM2244.5 1416.84 2265.12 1416.84C2267.97 1416.84 2270.28 1419.15 2270.28 1422 2270.28 1424.85 2267.97 1427.16 2265.12 1427.16L2244.5 1427.16C2241.65 1427.16 2239.34 1424.85 2239.34 1422 2239.34 1419.15 2241.65 1416.84 2244.5 1416.84ZM2285.75 1416.84 2306.37 1416.84C2309.22 1416.84 2311.53 1419.15 2311.53 1422 2311.53 1424.85 2309.22 1427.16 2306.37 1427.16L2285.75 1427.16C2282.9 1427.16 2280.59 1424.85 2280.59 1422 2280.59 1419.15 2282.9 1416.84 2285.75 1416.84ZM2327 1416.84 2347.62 1416.84C2350.47 1416.84 2352.78 1419.15 2352.78 1422 2352.78 1424.85 2350.47 1427.16 2347.62 1427.16L2327 1427.16C2324.15 1427.16 2321.84 1424.85 2321.84 1422 2321.84 1419.15 2324.15 1416.84 2327 1416.84ZM2368.25 1416.84 2388.87 1416.84C2391.72 1416.84 2394.03 1419.15 2394.03 1422 2394.03 1424.85 2391.72 1427.16 2388.87 1427.16L2368.25 1427.16C2365.4 1427.16 2363.09 1424.85 2363.09 1422 2363.09 1419.15 2365.4 1416.84 2368.25 1416.84ZM2409.5 1416.84 2430.12 1416.84C2432.97 1416.84 2435.28 1419.15 2435.28 1422 2435.28 1424.85 2432.97 1427.16 2430.12 1427.16L2409.5 1427.16C2406.65 1427.16 2404.34 1424.85 2404.34 1422 2404.34 1419.15 2406.65 1416.84 2409.5 1416.84ZM2450.75 1416.84 2471.37 1416.84C2474.22 1416.84 2476.53 1419.15 2476.53 1422 2476.53 1424.85 2474.22 1427.16 2471.37 1427.16L2450.75 1427.16C2447.9 1427.16 2445.59 1424.85 2445.59 1422 2445.59 1419.15 2447.9 1416.84 2450.75 1416.84ZM2492 1416.84 2512.62 1416.84C2515.47 1416.84 2517.78 1419.15 2517.78 1422 2517.78 1424.85 2515.47 1427.16 2512.62 1427.16L2492 1427.16C2489.15 1427.16 2486.84 1424.85 2486.84 1422 2486.84 1419.15 2489.15 1416.84 2492 1416.84ZM2533.25 1416.84 2553.87 1416.84C2556.72 1416.84 2559.03 1419.15 2559.03 1422 2559.03 1424.85 2556.72 1427.16 2553.87 1427.16L2533.25 1427.16C2530.4 1427.16 2528.09 1424.85 2528.09 1422 2528.09 1419.15 2530.4 1416.84 2533.25 1416.84ZM2574.5 1416.84 2595.12 1416.84C2597.97 1416.84 2600.28 1419.15 2600.28 1422 2600.28 1424.85 2597.97 1427.16 2595.12 1427.16L2574.5 1427.16C2571.65 1427.16 2569.34 1424.85 2569.34 1422 2569.34 1419.15 2571.65 1416.84 2574.5 1416.84ZM2615.75 1416.84 2636.37 1416.84C2639.22 1416.84 2641.53 1419.15 2641.53 1422 2641.53 1424.85 2639.22 1427.16 2636.37 1427.16L2615.75 1427.16C2612.9 1427.16 2610.59 1424.85 2610.59 1422 2610.59 1419.15 2612.9 1416.84 2615.75 1416.84ZM2657 1416.84 2677.62 1416.84C2680.47 1416.84 2682.78 1419.15 2682.78 1422 2682.78 1424.85 2680.47 1427.16 2677.62 1427.16L2657 1427.16C2654.15 1427.16 2651.84 1424.85 2651.84 1422 2651.84 1419.15 2654.15 1416.84 2657 1416.84ZM2698.25 1416.84 2718.87 1416.84C2721.72 1416.84 2724.03 1419.15 2724.03 1422 2724.03 1424.85 2721.72 1427.16 2718.87 1427.16L2698.25 1427.16C2695.4 1427.16 2693.09 1424.85 2693.09 1422 2693.09 1419.15 2695.4 1416.84 2698.25 1416.84ZM2739.5 1416.84 2760.12 1416.84C2762.97 1416.84 2765.28 1419.15 2765.28 1422 2765.28 1424.85 2762.97 1427.16 2760.12 1427.16L2739.5 1427.16C2736.65 1427.16 2734.34 1424.85 2734.34 1422 2734.34 1419.15 2736.65 1416.84 2739.5 1416.84ZM2780.75 1416.84 2801.37 1416.84C2804.22 1416.84 2806.53 1419.15 2806.53 1422 2806.53 1424.85 2804.22 1427.16 2801.37 1427.16L2780.75 1427.16C2777.9 1427.16 2775.59 1424.85 2775.59 1422 2775.59 1419.15 2777.9 1416.84 2780.75 1416.84ZM2822 1416.84 2842.62 1416.84C2845.47 1416.84 2847.78 1419.15 2847.78 1422 2847.78 1424.85 2845.47 1427.16 2842.62 1427.16L2822 1427.16C2819.15 1427.16 2816.84 1424.85 2816.84 1422 2816.84 1419.15 2819.15 1416.84 2822 1416.84ZM2863.25 1416.84 2883.87 1416.84C2886.72 1416.84 2889.03 1419.15 2889.03 1422 2889.03 1424.85 2886.72 1427.16 2883.87 1427.16L2863.25 1427.16C2860.4 1427.16 2858.09 1424.85 2858.09 1422 2858.09 1419.15 2860.4 1416.84 2863.25 1416.84ZM2904.5 1416.84 2925.12 1416.84C2927.97 1416.84 2930.28 1419.15 2930.28 1422 2930.28 1424.85 2927.97 1427.16 2925.12 1427.16L2904.5 1427.16C2901.65 1427.16 2899.34 1424.85 2899.34 1422 2899.34 1419.15 2901.65 1416.84 2904.5 1416.84ZM2945.75 1416.84 2966.37 1416.84C2969.22 1416.84 2971.53 1419.15 2971.53 1422 2971.53 1424.85 2969.22 1427.16 2966.37 1427.16L2945.75 1427.16C2942.9 1427.16 2940.59 1424.85 2940.59 1422 2940.59 1419.15 2942.9 1416.84 2945.75 1416.84ZM2987 1416.84 2987.1 1416.84 3007.62 1416.84C3010.47 1416.84 3012.78 1419.15 3012.78 1422 3012.78 1424.85 3010.47 1427.16 3007.62 1427.16L2987.1 1427.16 2987 1427.16C2984.15 1427.16 2981.84 1424.85 2981.84 1422 2981.84 1419.15 2984.15 1416.84 2987 1416.84ZM3028.25 1416.84 3048.87 1416.84C3051.72 1416.84 3054.03 1419.15 3054.03 1422 3054.03 1424.85 3051.72 1427.16 3048.87 1427.16L3028.25 1427.16C3025.4 1427.16 3023.09 1424.85 3023.09 1422 3023.09 1419.15 3025.4 1416.84 3028.25 1416.84ZM3069.5 1416.84 3090.12 1416.84C3092.97 1416.84 3095.28 1419.15 3095.28 1422 3095.28 1424.85 3092.97 1427.16 3090.12 1427.16L3069.5 1427.16C3066.65 1427.16 3064.34 1424.85 3064.34 1422 3064.34 1419.15 3066.65 1416.84 3069.5 1416.84ZM3110.75 1416.84 3131.37 1416.84C3134.22 1416.84 3136.53 1419.15 3136.53 1422 3136.53 1424.85 3134.22 1427.16 3131.37 1427.16L3110.75 1427.16C3107.9 1427.16 3105.59 1424.85 3105.59 1422 3105.59 1419.15 3107.9 1416.84 3110.75 1416.84ZM3152 1416.84 3172.62 1416.84C3175.47 1416.84 3177.78 1419.15 3177.78 1422 3177.78 1424.85 3175.47 1427.16 3172.62 1427.16L3152 1427.16C3149.15 1427.16 3146.84 1424.85 3146.84 1422 3146.84 1419.15 3149.15 1416.84 3152 1416.84ZM3193.25 1416.84 3199.1 1416.84 3213.87 1416.84C3216.72 1416.84 3219.03 1419.15 3219.03 1422 3219.03 1424.85 3216.72 1427.16 3213.87 1427.16L3199.1 1427.16 3193.25 1427.16C3190.4 1427.16 3188.09 1424.85 3188.09 1422 3188.09 1419.15 3190.4 1416.84 3193.25 1416.84ZM3234.5 1416.84 3255.12 1416.84C3257.97 1416.84 3260.28 1419.15 3260.28 1422 3260.28 1424.85 3257.97 1427.16 3255.12 1427.16L3234.5 1427.16C3231.65 1427.16 3229.34 1424.85 3229.34 1422 3229.34 1419.15 3231.65 1416.84 3234.5 1416.84ZM3275.75 1416.84 3296.37 1416.84C3299.22 1416.84 3301.53 1419.15 3301.53 1422 3301.53 1424.85 3299.22 1427.16 3296.37 1427.16L3275.75 1427.16C3272.9 1427.16 3270.59 1424.85 3270.59 1422 3270.59 1419.15 3272.9 1416.84 3275.75 1416.84ZM3317 1416.84 3337.62 1416.84C3340.47 1416.84 3342.78 1419.15 3342.78 1422 3342.78 1424.85 3340.47 1427.16 3337.62 1427.16L3317 1427.16C3314.15 1427.16 3311.84 1424.85 3311.84 1422 3311.84 1419.15 3314.15 1416.84 3317 1416.84ZM3358.25 1416.84 3378.87 1416.84C3381.72 1416.84 3384.03 1419.15 3384.03 1422 3384.03 1424.85 3381.72 1427.16 3378.87 1427.16L3358.25 1427.16C3355.4 1427.16 3353.09 1424.85 3353.09 1422 3353.09 1419.15 3355.4 1416.84 3358.25 1416.84ZM3399.5 1416.84 3411.11 1416.84 3420.12 1416.84C3422.97 1416.84 3425.28 1419.15 3425.28 1422 3425.28 1424.85 3422.97 1427.16 3420.12 1427.16L3411.11 1427.16 3399.5 1427.16C3396.65 1427.16 3394.34 1424.85 3394.34 1422 3394.34 1419.15 3396.65 1416.84 3399.5 1416.84ZM3440.75 1416.84 3461.37 1416.84C3464.22 1416.84 3466.53 1419.15 3466.53 1422 3466.53 1424.85 3464.22 1427.16 3461.37 1427.16L3440.75 1427.16C3437.9 1427.16 3435.59 1424.85 3435.59 1422 3435.59 1419.15 3437.9 1416.84 3440.75 1416.84ZM3482 1416.84 3502.62 1416.84C3505.47 1416.84 3507.78 1419.15 3507.78 1422 3507.78 1424.85 3505.47 1427.16 3502.62 1427.16L3482 1427.16C3479.15 1427.16 3476.84 1424.85 3476.84 1422 3476.84 1419.15 3479.15 1416.84 3482 1416.84ZM3523.25 1416.84 3543.87 1416.84C3546.72 1416.84 3549.03 1419.15 3549.03 1422 3549.03 1424.85 3546.72 1427.16 3543.87 1427.16L3523.25 1427.16C3520.4 1427.16 3518.09 1424.85 3518.09 1422 3518.09 1419.15 3520.4 1416.84 3523.25 1416.84ZM3564.5 1416.84 3585.12 1416.84C3587.97 1416.84 3590.28 1419.15 3590.28 1422 3590.28 1424.85 3587.97 1427.16 3585.12 1427.16L3564.5 1427.16C3561.65 1427.16 3559.34 1424.85 3559.34 1422 3559.34 1419.15 3561.65 1416.84 3564.5 1416.84ZM3605.75 1416.84 3623.12 1416.84 3626.37 1416.84C3629.22 1416.84 3631.53 1419.15 3631.53 1422 3631.53 1424.85 3629.22 1427.16 3626.37 1427.16L3623.12 1427.16 3605.75 1427.16C3602.9 1427.16 3600.59 1424.85 3600.59 1422 3600.59 1419.15 3602.9 1416.84 3605.75 1416.84ZM3647 1416.84 3667.62 1416.84C3670.47 1416.84 3672.78 1419.15 3672.78 1422 3672.78 1424.85 3670.47 1427.16 3667.62 1427.16L3647 1427.16C3644.15 1427.16 3641.84 1424.85 3641.84 1422 3641.84 1419.15 3644.15 1416.84 3647 1416.84ZM3688.25 1416.84 3708.87 1416.84C3711.72 1416.84 3714.03 1419.15 3714.03 1422 3714.03 1424.85 3711.72 1427.16 3708.87 1427.16L3688.25 1427.16C3685.4 1427.16 3683.09 1424.85 3683.09 1422 3683.09 1419.15 3685.4 1416.84 3688.25 1416.84ZM3729.5 1416.84 3750.12 1416.84C3752.97 1416.84 3755.28 1419.15 3755.28 1422 3755.28 1424.85 3752.97 1427.16 3750.12 1427.16L3729.5 1427.16C3726.65 1427.16 3724.34 1424.85 3724.34 1422 3724.34 1419.15 3726.65 1416.84 3729.5 1416.84ZM3770.75 1416.84 3791.37 1416.84C3794.22 1416.84 3796.53 1419.15 3796.53 1422 3796.53 1424.85 3794.22 1427.16 3791.37 1427.16L3770.75 1427.16C3767.9 1427.16 3765.59 1424.85 3765.59 1422 3765.59 1419.15 3767.9 1416.84 3770.75 1416.84ZM3812 1416.84 3832.62 1416.84C3835.47 1416.84 3837.78 1419.15 3837.78 1422 3837.78 1424.85 3835.47 1427.16 3832.62 1427.16L3812 1427.16C3809.15 1427.16 3806.84 1424.85 3806.84 1422 3806.84 1419.15 3809.15 1416.84 3812 1416.84ZM3853.25 1416.84 3873.87 1416.84C3876.72 1416.84 3879.03 1419.15 3879.03 1422 3879.03 1424.85 3876.72 1427.16 3873.87 1427.16L3853.25 1427.16C3850.4 1427.16 3848.09 1424.85 3848.09 1422 3848.09 1419.15 3850.4 1416.84 3853.25 1416.84ZM3894.5 1416.84 3915.12 1416.84C3917.97 1416.84 3920.28 1419.15 3920.28 1422 3920.28 1424.85 3917.97 1427.16 3915.12 1427.16L3894.5 1427.16C3891.65 1427.16 3889.34 1424.85 3889.34 1422 3889.34 1419.15 3891.65 1416.84 3894.5 1416.84ZM3935.75 1416.84 3956.37 1416.84C3959.22 1416.84 3961.53 1419.15 3961.53 1422 3961.53 1424.85 3959.22 1427.16 3956.37 1427.16L3935.75 1427.16C3932.9 1427.16 3930.59 1424.85 3930.59 1422 3930.59 1419.15 3932.9 1416.84 3935.75 1416.84ZM3977 1416.84 3997.62 1416.84C4000.47 1416.84 4002.78 1419.15 4002.78 1422 4002.78 1424.85 4000.47 1427.16 3997.62 1427.16L3977 1427.16C3974.15 1427.16 3971.84 1424.85 3971.84 1422 3971.84 1419.15 3974.15 1416.84 3977 1416.84ZM4018.25 1416.84 4038.87 1416.84C4041.72 1416.84 4044.03 1419.15 4044.03 1422 4044.03 1424.85 4041.72 1427.16 4038.87 1427.16L4018.25 1427.16C4015.4 1427.16 4013.09 1424.85 4013.09 1422 4013.09 1419.15 4015.4 1416.84 4018.25 1416.84ZM4059.5 1416.84 4080.12 1416.84C4082.97 1416.84 4085.28 1419.15 4085.28 1422 4085.28 1424.85 4082.97 1427.16 4080.12 1427.16L4059.5 1427.16C4056.65 1427.16 4054.34 1424.85 4054.34 1422 4054.34 1419.15 4056.65 1416.84 4059.5 1416.84ZM4100.75 1416.84 4121.38 1416.84C4124.22 1416.84 4126.53 1419.15 4126.53 1422 4126.53 1424.85 4124.22 1427.16 4121.38 1427.16L4100.75 1427.16C4097.9 1427.16 4095.59 1424.85 4095.59 1422 4095.59 1419.15 4097.9 1416.84 4100.75 1416.84ZM4142 1416.84 4162.62 1416.84C4165.47 1416.84 4167.78 1419.15 4167.78 1422 4167.78 1424.85 4165.47 1427.16 4162.62 1427.16L4142 1427.16C4139.15 1427.16 4136.84 1424.85 4136.84 1422 4136.84 1419.15 4139.15 1416.84 4142 1416.84ZM4183.25 1416.84 4203.88 1416.84C4206.72 1416.84 4209.03 1419.15 4209.03 1422 4209.03 1424.85 4206.72 1427.16 4203.88 1427.16L4183.25 1427.16C4180.4 1427.16 4178.09 1424.85 4178.09 1422 4178.09 1419.15 4180.4 1416.84 4183.25 1416.84ZM4224.5 1416.84 4245.12 1416.84C4247.97 1416.84 4250.28 1419.15 4250.28 1422 4250.28 1424.85 4247.97 1427.16 4245.12 1427.16L4224.5 1427.16C4221.65 1427.16 4219.34 1424.85 4219.34 1422 4219.34 1419.15 4221.65 1416.84 4224.5 1416.84ZM4265.75 1416.84 4286.38 1416.84C4289.22 1416.84 4291.53 1419.15 4291.53 1422 4291.53 1424.85 4289.22 1427.16 4286.38 1427.16L4265.75 1427.16C4262.9 1427.16 4260.59 1424.85 4260.59 1422 4260.59 1419.15 4262.9 1416.84 4265.75 1416.84ZM4307 1416.84 4327.62 1416.84C4330.47 1416.84 4332.78 1419.15 4332.78 1422 4332.78 1424.85 4330.47 1427.16 4327.62 1427.16L4307 1427.16C4304.15 1427.16 4301.84 1424.85 4301.84 1422 4301.84 1419.15 4304.15 1416.84 4307 1416.84ZM4348.25 1416.84 4368.88 1416.84C4371.72 1416.84 4374.03 1419.15 4374.03 1422 4374.03 1424.85 4371.72 1427.16 4368.88 1427.16L4348.25 1427.16C4345.4 1427.16 4343.09 1424.85 4343.09 1422 4343.09 1419.15 4345.4 1416.84 4348.25 1416.84ZM4389.5 1416.84 4410.12 1416.84C4412.97 1416.84 4415.28 1419.15 4415.28 1422 4415.28 1424.85 4412.97 1427.16 4410.12 1427.16L4389.5 1427.16C4386.65 1427.16 4384.34 1424.85 4384.34 1422 4384.34 1419.15 4386.65 1416.84 4389.5 1416.84ZM4430.75 1416.84 4451.38 1416.84C4454.22 1416.84 4456.53 1419.15 4456.53 1422 4456.53 1424.85 4454.22 1427.16 4451.38 1427.16L4430.75 1427.16C4427.9 1427.16 4425.59 1424.85 4425.59 1422 4425.59 1419.15 4427.9 1416.84 4430.75 1416.84ZM4472 1416.84 4472.15 1416.84 4492.62 1416.84C4495.47 1416.84 4497.78 1419.15 4497.78 1422 4497.78 1424.85 4495.47 1427.16 4492.62 1427.16L4472.15 1427.16 4472 1427.16C4469.15 1427.16 4466.84 1424.85 4466.84 1422 4466.84 1419.15 4469.15 1416.84 4472 1416.84ZM4513.25 1416.84 4533.88 1416.84C4536.72 1416.84 4539.03 1419.15 4539.03 1422 4539.03 1424.85 4536.72 1427.16 4533.88 1427.16L4513.25 1427.16C4510.4 1427.16 4508.09 1424.85 4508.09 1422 4508.09 1419.15 4510.4 1416.84 4513.25 1416.84ZM4554.5 1416.84 4575.12 1416.84C4577.97 1416.84 4580.28 1419.15 4580.28 1422 4580.28 1424.85 4577.97 1427.16 4575.12 1427.16L4554.5 1427.16C4551.65 1427.16 4549.34 1424.85 4549.34 1422 4549.34 1419.15 4551.65 1416.84 4554.5 1416.84ZM4595.75 1416.84 4616.38 1416.84C4619.22 1416.84 4621.53 1419.15 4621.53 1422 4621.53 1424.85 4619.22 1427.16 4616.38 1427.16L4595.75 1427.16C4592.9 1427.16 4590.59 1424.85 4590.59 1422 4590.59 1419.15 4592.9 1416.84 4595.75 1416.84ZM4637 1416.84 4657.62 1416.84C4660.47 1416.84 4662.78 1419.15 4662.78 1422 4662.78 1424.85 4660.47 1427.16 4657.62 1427.16L4637 1427.16C4634.15 1427.16 4631.84 1424.85 4631.84 1422 4631.84 1419.15 4634.15 1416.84 4637 1416.84ZM4678.25 1416.84 4684.15 1416.84 4698.88 1416.84C4701.72 1416.84 4704.03 1419.15 4704.03 1422 4704.03 1424.85 4701.72 1427.16 4698.88 1427.16L4684.15 1427.16 4678.25 1427.16C4675.4 1427.16 4673.09 1424.85 4673.09 1422 4673.09 1419.15 4675.4 1416.84 4678.25 1416.84ZM4719.5 1416.84 4740.12 1416.84C4742.97 1416.84 4745.28 1419.15 4745.28 1422 4745.28 1424.85 4742.97 1427.16 4740.12 1427.16L4719.5 1427.16C4716.65 1427.16 4714.34 1424.85 4714.34 1422 4714.34 1419.15 4716.65 1416.84 4719.5 1416.84ZM4760.75 1416.84 4781.38 1416.84C4784.22 1416.84 4786.53 1419.15 4786.53 1422 4786.53 1424.85 4784.22 1427.16 4781.38 1427.16L4760.75 1427.16C4757.9 1427.16 4755.59 1424.85 4755.59 1422 4755.59 1419.15 4757.9 1416.84 4760.75 1416.84ZM4802 1416.84 4822.62 1416.84C4825.47 1416.84 4827.78 1419.15 4827.78 1422 4827.78 1424.85 4825.47 1427.16 4822.62 1427.16L4802 1427.16C4799.15 1427.16 4796.84 1424.85 4796.84 1422 4796.84 1419.15 4799.15 1416.84 4802 1416.84ZM4843.25 1416.84 4863.88 1416.84C4866.72 1416.84 4869.03 1419.15 4869.03 1422 4869.03 1424.85 4866.72 1427.16 4863.88 1427.16L4843.25 1427.16C4840.4 1427.16 4838.09 1424.85 4838.09 1422 4838.09 1419.15 4840.4 1416.84 4843.25 1416.84ZM4884.5 1416.84 4897 1416.84C4899.85 1416.84 4902.16 1419.15 4902.16 1422 4902.16 1424.85 4899.85 1427.16 4897 1427.16L4884.5 1427.16C4881.65 1427.16 4879.34 1424.85 4879.34 1422 4879.34 1419.15 4881.65 1416.84 4884.5 1416.84Z" fill="#FF0000" fill-rule="nonzero" fill-opacity="1"/></g><g><text fill="#595959" fill-opacity="1" font-family="Calibri,Calibri_MSFontService,sans-serif" font-style="normal" font-variant="normal" font-weight="400" font-stretch="normal" font-size="41" text-anchor="start" direction="ltr" writing-mode="lr-tb" unicode-bidi="normal" text-decoration="none" transform="matrix(1 0 0 1 1233.83 2413)">50.00%</text></g><g><text fill="#595959" fill-opacity="1" font-family="Calibri,Calibri_MSFontService,sans-serif" font-style="normal" font-variant="normal" font-weight="400" font-stretch="normal" font-size="41" text-anchor="start" direction="ltr" writing-mode="lr-tb" unicode-bidi="normal" text-decoration="none" transform="matrix(1 0 0 1 1233.83 2250)">55.00%</text></g><g><text fill="#595959" fill-opacity="1" font-family="Calibri,Calibri_MSFontService,sans-serif" font-style="normal" font-variant="normal" font-weight="400" font-stretch="normal" font-size="41" text-anchor="start" direction="ltr" writing-mode="lr-tb" unicode-bidi="normal" text-decoration="none" transform="matrix(1 0 0 1 1233.83 2086)">60.00%</text></g><g><text fill="#595959" fill-opacity="1" font-family="Calibri,Calibri_MSFontService,sans-serif" font-style="normal" font-variant="normal" font-weight="400" font-stretch="normal" font-size="41" text-anchor="start" direction="ltr" writing-mode="lr-tb" unicode-bidi="normal" text-decoration="none" transform="matrix(1 0 0 1 1233.83 1923)">65.00%</text></g><g><text fill="#595959" fill-opacity="1" font-family="Calibri,Calibri_MSFontService,sans-serif" font-style="normal" font-variant="normal" font-weight="400" font-stretch="normal" font-size="41" text-anchor="start" direction="ltr" writing-mode="lr-tb" unicode-bidi="normal" text-decoration="none" transform="matrix(1 0 0 1 1233.83 1759)">70.00%</text></g><g><text fill="#595959" fill-opacity="1" font-family="Calibri,Calibri_MSFontService,sans-serif" font-style="normal" font-variant="normal" font-weight="400" font-stretch="normal" font-size="41" text-anchor="start" direction="ltr" writing-mode="lr-tb" unicode-bidi="normal" text-decoration="none" transform="matrix(1 0 0 1 1233.83 1596)">75.00%</text></g><g><text fill="#595959" fill-opacity="1" font-family="Calibri,Calibri_MSFontService,sans-serif" font-style="normal" font-variant="normal" font-weight="400" font-stretch="normal" font-size="41" text-anchor="start" direction="ltr" writing-mode="lr-tb" unicode-bidi="normal" text-decoration="none" transform="matrix(1 0 0 1 1233.83 1432)">80.00%</text></g><g><text fill="#595959" fill-opacity="1" font-family="Calibri,Calibri_MSFontService,sans-serif" font-style="normal" font-variant="normal" font-weight="400" font-stretch="normal" font-size="41" text-anchor="start" direction="ltr" writing-mode="lr-tb" unicode-bidi="normal" text-decoration="none" transform="matrix(1 0 0 1 1233.83 1269)">85.00%</text></g><g><text fill="#595959" fill-opacity="1" font-family="Calibri,Calibri_MSFontService,sans-serif" font-style="normal" font-variant="normal" font-weight="400" font-stretch="normal" font-size="41" text-anchor="start" direction="ltr" writing-mode="lr-tb" unicode-bidi="normal" text-decoration="none" transform="matrix(1 0 0 1 1233.83 1105)">90.00%</text></g><g><text fill="#595959" fill-opacity="1" font-family="Calibri,Calibri_MSFontService,sans-serif" font-style="normal" font-variant="normal" font-weight="400" font-stretch="normal" font-size="41" text-anchor="start" direction="ltr" writing-mode="lr-tb" unicode-bidi="normal" text-decoration="none" transform="matrix(1 0 0 1 1233.83 942)">95.00%</text></g><g><text fill="#595959" fill-opacity="1" font-family="Calibri,Calibri_MSFontService,sans-serif" font-style="normal" font-variant="normal" font-weight="400" font-stretch="normal" font-size="41" text-anchor="start" direction="ltr" writing-mode="lr-tb" unicode-bidi="normal" text-decoration="none" transform="matrix(1 0 0 1 1212.93 779)">100.00%</text></g><g><text fill="#595959" fill-opacity="1" font-family="Calibri,Calibri_MSFontService,sans-serif" font-style="normal" font-variant="normal" font-weight="400" font-stretch="normal" font-size="41" text-anchor="start" direction="ltr" writing-mode="lr-tb" unicode-bidi="normal" text-decoration="none" transform="matrix(1 0 0 1 1481.77 2469)">S1</text></g><g><text fill="#595959" fill-opacity="1" font-family="Calibri,Calibri_MSFontService,sans-serif" font-style="normal" font-variant="normal" font-weight="400" font-stretch="normal" font-size="41" text-anchor="start" direction="ltr" writing-mode="lr-tb" unicode-bidi="normal" text-decoration="none" transform="matrix(1 0 0 1 1693.96 2469)">S2</text></g><g><text fill="#595959" fill-opacity="1" font-family="Calibri,Calibri_MSFontService,sans-serif" font-style="normal" font-variant="normal" font-weight="400" font-stretch="normal" font-size="41" text-anchor="start" direction="ltr" writing-mode="lr-tb" unicode-bidi="normal" text-decoration="none" transform="matrix(1 0 0 1 1906.15 2469)">S3</text></g><g><text fill="#595959" fill-opacity="1" font-family="Calibri,Calibri_MSFontService,sans-serif" font-style="normal" font-variant="normal" font-weight="400" font-stretch="normal" font-size="41" text-anchor="start" direction="ltr" writing-mode="lr-tb" unicode-bidi="normal" text-decoration="none" transform="matrix(1 0 0 1 2118.34 2469)">S4</text></g><g><text fill="#595959" fill-opacity="1" font-family="Calibri,Calibri_MSFontService,sans-serif" font-style="normal" font-variant="normal" font-weight="400" font-stretch="normal" font-size="41" text-anchor="start" direction="ltr" writing-mode="lr-tb" unicode-bidi="normal" text-decoration="none" transform="matrix(1 0 0 1 2330.54 2469)">S5</text></g><g><text fill="#595959" fill-opacity="1" font-family="Calibri,Calibri_MSFontService,sans-serif" font-style="normal" font-variant="normal" font-weight="400" font-stretch="normal" font-size="41" text-anchor="start" direction="ltr" writing-mode="lr-tb" unicode-bidi="normal" text-decoration="none" transform="matrix(1 0 0 1 2542.73 2469)">S6</text></g><g><text fill="#595959" fill-opacity="1" font-family="Calibri,Calibri_MSFontService,sans-serif" font-style="normal" font-variant="normal" font-weight="400" font-stretch="normal" font-size="41" text-anchor="start" direction="ltr" writing-mode="lr-tb" unicode-bidi="normal" text-decoration="none" transform="matrix(1 0 0 1 2754.92 2469)">S7</text></g><g><text fill="#595959" fill-opacity="1" font-family="Calibri,Calibri_MSFontService,sans-serif" font-style="normal" font-variant="normal" font-weight="400" font-stretch="normal" font-size="41" text-anchor="start" direction="ltr" writing-mode="lr-tb" unicode-bidi="normal" text-decoration="none" transform="matrix(1 0 0 1 2967.11 2469)">S8</text></g><g><text fill="#595959" fill-opacity="1" font-family="Calibri,Calibri_MSFontService,sans-serif" font-style="normal" font-variant="normal" font-weight="400" font-stretch="normal" font-size="41" text-anchor="start" direction="ltr" writing-mode="lr-tb" unicode-bidi="normal" text-decoration="none" transform="matrix(1 0 0 1 3179.31 2469)">S9</text></g><g><text fill="#595959" fill-opacity="1" font-family="Calibri,Calibri_MSFontService,sans-serif" font-style="normal" font-variant="normal" font-weight="400" font-stretch="normal" font-size="41" text-anchor="start" direction="ltr" writing-mode="lr-tb" unicode-bidi="normal" text-decoration="none" transform="matrix(1 0 0 1 3381.05 2469)">S10</text></g><g><text fill="#595959" fill-opacity="1" font-family="Calibri,Calibri_MSFontService,sans-serif" font-style="normal" font-variant="normal" font-weight="400" font-stretch="normal" font-size="41" text-anchor="start" direction="ltr" writing-mode="lr-tb" unicode-bidi="normal" text-decoration="none" transform="matrix(1 0 0 1 3593.24 2469)">S11</text></g><g><text fill="#595959" fill-opacity="1" font-family="Calibri,Calibri_MSFontService,sans-serif" font-style="normal" font-variant="normal" font-weight="400" font-stretch="normal" font-size="41" text-anchor="start" direction="ltr" writing-mode="lr-tb" unicode-bidi="normal" text-decoration="none" transform="matrix(1 0 0 1 3805.43 2469)">S12</text></g><g><text fill="#595959" fill-opacity="1" font-family="Calibri,Calibri_MSFontService,sans-serif" font-style="normal" font-variant="normal" font-weight="400" font-stretch="normal" font-size="41" text-anchor="start" direction="ltr" writing-mode="lr-tb" unicode-bidi="normal" text-decoration="none" transform="matrix(1 0 0 1 4017.63 2469)">S13</text></g><g><text fill="#595959" fill-opacity="1" font-family="Calibri,Calibri_MSFontService,sans-serif" font-style="normal" font-variant="normal" font-weight="400" font-stretch="normal" font-size="41" text-anchor="start" direction="ltr" writing-mode="lr-tb" unicode-bidi="normal" text-decoration="none" transform="matrix(1 0 0 1 4229.82 2469)">S14</text></g><g><text fill="#595959" fill-opacity="1" font-family="Calibri,Calibri_MSFontService,sans-serif" font-style="normal" font-variant="normal" font-weight="400" font-stretch="normal" font-size="41" text-anchor="start" direction="ltr" writing-mode="lr-tb" unicode-bidi="normal" text-decoration="none" transform="matrix(1 0 0 1 4442.01 2469)">S15</text></g><g><text fill="#595959" fill-opacity="1" font-family="Calibri,Calibri_MSFontService,sans-serif" font-style="normal" font-variant="normal" font-weight="400" font-stretch="normal" font-size="41" text-anchor="start" direction="ltr" writing-mode="lr-tb" unicode-bidi="normal" text-decoration="none" transform="matrix(1 0 0 1 4654.2 2469)">S16</text></g><g><text fill="#595959" fill-opacity="1" font-family="Calibri,Calibri_MSFontService,sans-serif" font-style="normal" font-variant="normal" font-weight="400" font-stretch="normal" font-size="41" text-anchor="start" direction="ltr" writing-mode="lr-tb" unicode-bidi="normal" text-decoration="none" transform="matrix(1 0 0 1 4866.4 2469)">S17</text></g><g><text fill="#595959" fill-opacity="1" font-family="Calibri,Calibri_MSFontService,sans-serif" font-style="normal" font-variant="normal" font-weight="400" font-stretch="normal" font-size="64" text-anchor="start" direction="ltr" writing-mode="lr-tb" unicode-bidi="normal" text-decoration="none" transform="matrix(1 0 0 1 3069.19 694)">QM</text></g><g><rect x="2526" y="2537" width="116" height="23" fill="#4F81BD" fill-opacity="1"/></g><g><text fill="#595959" fill-opacity="1" font-family="Calibri,Calibri_MSFontService,sans-serif" font-style="normal" font-variant="normal" font-weight="400" font-stretch="normal" font-size="41" text-anchor="start" direction="ltr" writing-mode="lr-tb" unicode-bidi="normal" text-decoration="none" transform="matrix(1 0 0 1 2654.41 2558)">QMS</text></g><g><path d="M2808 2542.84 2828.62 2542.84C2831.47 2542.84 2833.78 2545.15 2833.78 2548 2833.78 2550.85 2831.47 2553.16 2828.62 2553.16L2808 2553.16C2805.15 2553.16 2802.84 2550.85 2802.84 2548 2802.84 2545.15 2805.15 2542.84 2808 2542.84ZM2849.25 2542.84 2869.88 2542.84C2872.72 2542.84 2875.03 2545.15 2875.03 2548 2875.03 2550.85 2872.72 2553.16 2869.88 2553.16L2849.25 2553.16C2846.4 2553.16 2844.09 2550.85 2844.09 2548 2844.09 2545.15 2846.4 2542.84 2849.25 2542.84ZM2890.5 2542.84 2911.12 2542.84C2913.97 2542.84 2916.28 2545.15 2916.28 2548 2916.28 2550.85 2913.97 2553.16 2911.12 2553.16L2890.5 2553.16C2887.65 2553.16 2885.34 2550.85 2885.34 2548 2885.34 2545.15 2887.65 2542.84 2890.5 2542.84Z" fill="#00B050" fill-rule="nonzero" fill-opacity="1"/></g><g><text fill="#595959" fill-opacity="1" font-family="Calibri,Calibri_MSFontService,sans-serif" font-style="normal" font-variant="normal" font-weight="400" font-stretch="normal" font-size="41" text-anchor="start" direction="ltr" writing-mode="lr-tb" unicode-bidi="normal" text-decoration="none" transform="matrix(1 0 0 1 2936.21 2558)">Soglia ott. (100%)</text></g><g><path d="M3302 2542.84 3322.62 2542.84C3325.47 2542.84 3327.78 2545.15 3327.78 2548 3327.78 2550.85 3325.47 2553.16 3322.62 2553.16L3302 2553.16C3299.15 2553.16 3296.84 2550.85 3296.84 2548 3296.84 2545.15 3299.15 2542.84 3302 2542.84ZM3343.25 2542.84 3363.88 2542.84C3366.72 2542.84 3369.03 2545.15 3369.03 2548 3369.03 2550.85 3366.72 2553.16 3363.88 2553.16L3343.25 2553.16C3340.4 2553.16 3338.09 2550.85 3338.09 2548 3338.09 2545.15 3340.4 2542.84 3343.25 2542.84ZM3384.5 2542.84 3405.12 2542.84C3407.97 2542.84 3410.28 2545.15 3410.28 2548 3410.28 2550.85 3407.97 2553.16 3405.12 2553.16L3384.5 2553.16C3381.65 2553.16 3379.34 2550.85 3379.34 2548 3379.34 2545.15 3381.65 2542.84 3384.5 2542.84Z" fill="#FF0000" fill-rule="nonzero" fill-opacity="1"/></g><g><text fill="#595959" fill-opacity="1" font-family="Calibri,Calibri_MSFontService,sans-serif" font-style="normal" font-variant="normal" font-weight="400" font-stretch="normal" font-size="41" text-anchor="start" direction="ltr" writing-mode="lr-tb" unicode-bidi="normal" text-decoration="none" transform="matrix(1 0 0 1 3430.48 2558)">Soglia acc. (≥80%)</text></g><rect x="1183.5" y="598.5" width="3870" height="2017" stroke="#D9D9D9" stroke-width="3.4375" stroke-linecap="butt" stroke-linejoin="round" stroke-miterlimit="10" stroke-opacity="1" fill="none"/></g></g></svg>