<svg width="2732" height="1467" xmlns="http://www.w3.org/2000/svg" xmlns:xlink="http://www.w3.org/1999/xlink" xml:space="preserve" overflow="hidden"><defs><clipPath id="clip0"><rect x="1530" y="852" width="2732" height="1467"/></clipPath><clipPath id="clip1"><rect x="1530" y="852" width="2732" height="1467"/></clipPath></defs><g clip-path="url(#clip0)" transform="translate(-1530 -852)"><g clip-path="url(#clip1)"><rect x="1535" y="855" width="2723" height="1460" fill="#FFFFFF" fill-opacity="1"/><g><path d="M1752.5 1949.56 4207.5 1949.56M1752.5 1795.56 4207.5 1795.56M1752.5 1641.55 4207.5 1641.55M1752.5 1487.55 4207.5 1487.55M1752.5 1332.54 4207.5 1332.54M1752.5 1178.54 4207.5 1178.54M1752.5 1024.5 4207.5 1024.5" stroke="#D9D9D9" stroke-width="3.4375" stroke-linecap="butt" stroke-linejoin="round" stroke-miterlimit="10" stroke-opacity="1" fill="none" fill-rule="nonzero"/></g><g><path d="M1752.5 2103.5 4207.5 2103.5" stroke="#D9D9D9" stroke-width="3.4375" stroke-linecap="butt" stroke-linejoin="round" stroke-miterlimit="10" stroke-opacity="1" fill="none" fill-rule="evenodd"/></g><g><path d="M1906 2103 2213.07 2103 2520.08 1117 2827.09 1549.05 3133.1 1672.05 3440.11 1826.06 3747.12 1918.06 4054 1980.06" stroke="#4F81BD" stroke-width="10.3125" stroke-linecap="round" stroke-linejoin="round" stroke-miterlimit="10" stroke-opacity="1" fill="none" fill-rule="nonzero"/></g><g><path d="M1906 1481.84 1926.63 1481.84C1929.47 1481.84 1931.78 1484.15 1931.78 1487 1931.78 1489.85 1929.47 1492.16 1926.63 1492.16L1906 1492.16C1903.15 1492.16 1900.84 1489.85 1900.84 1487 1900.84 1484.15 1903.15 1481.84 1906 1481.84ZM1947.25 1481.84 1967.88 1481.84C1970.72 1481.84 1973.03 1484.15 1973.03 1487 1973.03 1489.85 1970.72 1492.16 1967.88 1492.16L1947.25 1492.16C1944.4 1492.16 1942.09 1489.85 1942.09 1487 1942.09 1484.15 1944.4 1481.84 1947.25 1481.84ZM1988.5 1481.84 2009.13 1481.84C2011.97 1481.84 2014.28 1484.15 2014.28 1487 2014.28 1489.85 2011.97 1492.16 2009.13 1492.16L1988.5 1492.16C1985.65 1492.16 1983.34 1489.85 1983.34 1487 1983.34 1484.15 1985.65 1481.84 1988.5 1481.84ZM2029.75 1481.84 2050.38 1481.84C2053.22 1481.84 2055.53 1484.15 2055.53 1487 2055.53 1489.85 2053.22 1492.16 2050.38 1492.16L2029.75 1492.16C2026.9 1492.16 2024.59 1489.85 2024.59 1487 2024.59 1484.15 2026.9 1481.84 2029.75 1481.84ZM2071 1481.84 2091.62 1481.84C2094.47 1481.84 2096.78 1484.15 2096.78 1487 2096.78 1489.85 2094.47 1492.16 2091.62 1492.16L2071 1492.16C2068.15 1492.16 2065.84 1489.85 2065.84 1487 2065.84 1484.15 2068.15 1481.84 2071 1481.84ZM2112.25 1481.84 2132.88 1481.84C2135.72 1481.84 2138.03 1484.15 2138.03 1487 2138.03 1489.85 2135.72 1492.16 2132.88 1492.16L2112.25 1492.16C2109.4 1492.16 2107.09 1489.85 2107.09 1487 2107.09 1484.15 2109.4 1481.84 2112.25 1481.84ZM2153.5 1481.84 2174.12 1481.84C2176.97 1481.84 2179.28 1484.15 2179.28 1487 2179.28 1489.85 2176.97 1492.16 2174.12 1492.16L2153.5 1492.16C2150.65 1492.16 2148.34 1489.85 2148.34 1487 2148.34 1484.15 2150.65 1481.84 2153.5 1481.84ZM2194.75 1481.84 2213.07 1481.84 2215.38 1481.84C2218.22 1481.84 2220.53 1484.15 2220.53 1487 2220.53 1489.85 2218.22 1492.16 2215.38 1492.16L2213.07 1492.16 2194.75 1492.16C2191.9 1492.16 2189.59 1489.85 2189.59 1487 2189.59 1484.15 2191.9 1481.84 2194.75 1481.84ZM2236 1481.84 2256.62 1481.84C2259.47 1481.84 2261.78 1484.15 2261.78 1487 2261.78 1489.85 2259.47 1492.16 2256.62 1492.16L2236 1492.16C2233.15 1492.16 2230.84 1489.85 2230.84 1487 2230.84 1484.15 2233.15 1481.84 2236 1481.84ZM2277.25 1481.84 2297.88 1481.84C2300.72 1481.84 2303.03 1484.15 2303.03 1487 2303.03 1489.85 2300.72 1492.16 2297.88 1492.16L2277.25 1492.16C2274.4 1492.16 2272.09 1489.85 2272.09 1487 2272.09 1484.15 2274.4 1481.84 2277.25 1481.84ZM2318.5 1481.84 2339.12 1481.84C2341.97 1481.84 2344.28 1484.15 2344.28 1487 2344.28 1489.85 2341.97 1492.16 2339.12 1492.16L2318.5 1492.16C2315.65 1492.16 2313.34 1489.85 2313.34 1487 2313.34 1484.15 2315.65 1481.84 2318.5 1481.84ZM2359.75 1481.84 2380.38 1481.84C2383.22 1481.84 2385.53 1484.15 2385.53 1487 2385.53 1489.85 2383.22 1492.16 2380.38 1492.16L2359.75 1492.16C2356.9 1492.16 2354.59 1489.85 2354.59 1487 2354.59 1484.15 2356.9 1481.84 2359.75 1481.84ZM2401 1481.84 2421.62 1481.84C2424.47 1481.84 2426.78 1484.15 2426.78 1487 2426.78 1489.85 2424.47 1492.16 2421.62 1492.16L2401 1492.16C2398.15 1492.16 2395.84 1489.85 2395.84 1487 2395.84 1484.15 2398.15 1481.84 2401 1481.84ZM2442.25 1481.84 2462.88 1481.84C2465.72 1481.84 2468.03 1484.15 2468.03 1487 2468.03 1489.85 2465.72 1492.16 2462.88 1492.16L2442.25 1492.16C2439.4 1492.16 2437.09 1489.85 2437.09 1487 2437.09 1484.15 2439.4 1481.84 2442.25 1481.84ZM2483.5 1481.84 2504.12 1481.84C2506.97 1481.84 2509.28 1484.15 2509.28 1487 2509.28 1489.85 2506.97 1492.16 2504.12 1492.16L2483.5 1492.16C2480.65 1492.16 2478.34 1489.85 2478.34 1487 2478.34 1484.15 2480.65 1481.84 2483.5 1481.84ZM2524.75 1481.84 2545.38 1481.84C2548.22 1481.84 2550.53 1484.15 2550.53 1487 2550.53 1489.85 2548.22 1492.16 2545.38 1492.16L2524.75 1492.16C2521.9 1492.16 2519.59 1489.85 2519.59 1487 2519.59 1484.15 2521.9 1481.84 2524.75 1481.84ZM2566 1481.84 2586.62 1481.84C2589.47 1481.84 2591.78 1484.15 2591.78 1487 2591.78 1489.85 2589.47 1492.16 2586.62 1492.16L2566 1492.16C2563.15 1492.16 2560.84 1489.85 2560.84 1487 2560.84 1484.15 2563.15 1481.84 2566 1481.84ZM2607.25 1481.84 2627.88 1481.84C2630.72 1481.84 2633.03 1484.15 2633.03 1487 2633.03 1489.85 2630.72 1492.16 2627.88 1492.16L2607.25 1492.16C2604.4 1492.16 2602.09 1489.85 2602.09 1487 2602.09 1484.15 2604.4 1481.84 2607.25 1481.84ZM2648.5 1481.84 2669.12 1481.84C2671.97 1481.84 2674.28 1484.15 2674.28 1487 2674.28 1489.85 2671.97 1492.16 2669.12 1492.16L2648.5 1492.16C2645.65 1492.16 2643.34 1489.85 2643.34 1487 2643.34 1484.15 2645.65 1481.84 2648.5 1481.84ZM2689.75 1481.84 2710.38 1481.84C2713.22 1481.84 2715.53 1484.15 2715.53 1487 2715.53 1489.85 2713.22 1492.16 2710.38 1492.16L2689.75 1492.16C2686.9 1492.16 2684.59 1489.85 2684.59 1487 2684.59 1484.15 2686.9 1481.84 2689.75 1481.84ZM2731 1481.84 2751.62 1481.84C2754.47 1481.84 2756.78 1484.15 2756.78 1487 2756.78 1489.85 2754.47 1492.16 2751.62 1492.16L2731 1492.16C2728.15 1492.16 2725.84 1489.85 2725.84 1487 2725.84 1484.15 2728.15 1481.84 2731 1481.84ZM2772.25 1481.84 2792.88 1481.84C2795.72 1481.84 2798.03 1484.15 2798.03 1487 2798.03 1489.85 2795.72 1492.16 2792.88 1492.16L2772.25 1492.16C2769.4 1492.16 2767.09 1489.85 2767.09 1487 2767.09 1484.15 2769.4 1481.84 2772.25 1481.84ZM2813.5 1481.84 2827.09 1481.84 2834.12 1481.84C2836.97 1481.84 2839.28 1484.15 2839.28 1487 2839.28 1489.85 2836.97 1492.16 2834.12 1492.16L2827.09 1492.16 2813.5 1492.16C2810.65 1492.16 2808.34 1489.85 2808.34 1487 2808.34 1484.15 2810.65 1481.84 2813.5 1481.84ZM2854.75 1481.84 2875.38 1481.84C2878.22 1481.84 2880.53 1484.15 2880.53 1487 2880.53 1489.85 2878.22 1492.16 2875.38 1492.16L2854.75 1492.16C2851.9 1492.16 2849.59 1489.85 2849.59 1487 2849.59 1484.15 2851.9 1481.84 2854.75 1481.84ZM2896 1481.84 2916.62 1481.84C2919.47 1481.84 2921.78 1484.15 2921.78 1487 2921.78 1489.85 2919.47 1492.16 2916.62 1492.16L2896 1492.16C2893.15 1492.16 2890.84 1489.85 2890.84 1487 2890.84 1484.15 2893.15 1481.84 2896 1481.84ZM2937.25 1481.84 2957.88 1481.84C2960.72 1481.84 2963.03 1484.15 2963.03 1487 2963.03 1489.85 2960.72 1492.16 2957.88 1492.16L2937.25 1492.16C2934.4 1492.16 2932.09 1489.85 2932.09 1487 2932.09 1484.15 2934.4 1481.84 2937.25 1481.84ZM2978.5 1481.84 2999.12 1481.84C3001.97 1481.84 3004.28 1484.15 3004.28 1487 3004.28 1489.85 3001.97 1492.16 2999.12 1492.16L2978.5 1492.16C2975.65 1492.16 2973.34 1489.85 2973.34 1487 2973.34 1484.15 2975.65 1481.84 2978.5 1481.84ZM3019.75 1481.84 3040.38 1481.84C3043.22 1481.84 3045.53 1484.15 3045.53 1487 3045.53 1489.85 3043.22 1492.16 3040.38 1492.16L3019.75 1492.16C3016.9 1492.16 3014.59 1489.85 3014.59 1487 3014.59 1484.15 3016.9 1481.84 3019.75 1481.84ZM3061 1481.84 3081.62 1481.84C3084.47 1481.84 3086.78 1484.15 3086.78 1487 3086.78 1489.85 3084.47 1492.16 3081.62 1492.16L3061 1492.16C3058.15 1492.16 3055.84 1489.85 3055.84 1487 3055.84 1484.15 3058.15 1481.84 3061 1481.84ZM3102.25 1481.84 3122.88 1481.84C3125.72 1481.84 3128.03 1484.15 3128.03 1487 3128.03 1489.85 3125.72 1492.16 3122.88 1492.16L3102.25 1492.16C3099.4 1492.16 3097.09 1489.85 3097.09 1487 3097.09 1484.15 3099.4 1481.84 3102.25 1481.84ZM3143.5 1481.84 3164.12 1481.84C3166.97 1481.84 3169.28 1484.15 3169.28 1487 3169.28 1489.85 3166.97 1492.16 3164.12 1492.16L3143.5 1492.16C3140.65 1492.16 3138.34 1489.85 3138.34 1487 3138.34 1484.15 3140.65 1481.84 3143.5 1481.84ZM3184.75 1481.84 3205.38 1481.84C3208.22 1481.84 3210.53 1484.15 3210.53 1487 3210.53 1489.85 3208.22 1492.16 3205.38 1492.16L3184.75 1492.16C3181.9 1492.16 3179.59 1489.85 3179.59 1487 3179.59 1484.15 3181.9 1481.84 3184.75 1481.84ZM3226 1481.84 3246.62 1481.84C3249.47 1481.84 3251.78 1484.15 3251.78 1487 3251.78 1489.85 3249.47 1492.16 3246.62 1492.16L3226 1492.16C3223.15 1492.16 3220.84 1489.85 3220.84 1487 3220.84 1484.15 3223.15 1481.84 3226 1481.84ZM3267.25 1481.84 3287.88 1481.84C3290.72 1481.84 3293.03 1484.15 3293.03 1487 3293.03 1489.85 3290.72 1492.16 3287.88 1492.16L3267.25 1492.16C3264.4 1492.16 3262.09 1489.85 3262.09 1487 3262.09 1484.15 3264.4 1481.84 3267.25 1481.84ZM3308.5 1481.84 3329.12 1481.84C3331.97 1481.84 3334.28 1484.15 3334.28 1487 3334.28 1489.85 3331.97 1492.16 3329.12 1492.16L3308.5 1492.16C3305.65 1492.16 3303.34 1489.85 3303.34 1487 3303.34 1484.15 3305.65 1481.84 3308.5 1481.84ZM3349.75 1481.84 3370.38 1481.84C3373.22 1481.84 3375.53 1484.15 3375.53 1487 3375.53 1489.85 3373.22 1492.16 3370.38 1492.16L3349.75 1492.16C3346.9 1492.16 3344.59 1489.85 3344.59 1487 3344.59 1484.15 3346.9 1481.84 3349.75 1481.84ZM3391 1481.84 3411.62 1481.84C3414.47 1481.84 3416.78 1484.15 3416.78 1487 3416.78 1489.85 3414.47 1492.16 3411.62 1492.16L3391 1492.16C3388.15 1492.16 3385.84 1489.85 3385.84 1487 3385.84 1484.15 3388.15 1481.84 3391 1481.84ZM3432.25 1481.84 3440.11 1481.84 3452.88 1481.84C3455.72 1481.84 3458.03 1484.15 3458.03 1487 3458.03 1489.85 3455.72 1492.16 3452.88 1492.16L3440.11 1492.16 3432.25 1492.16C3429.4 1492.16 3427.09 1489.85 3427.09 1487 3427.09 1484.15 3429.4 1481.84 3432.25 1481.84ZM3473.5 1481.84 3494.12 1481.84C3496.97 1481.84 3499.28 1484.15 3499.28 1487 3499.28 1489.85 3496.97 1492.16 3494.12 1492.16L3473.5 1492.16C3470.65 1492.16 3468.34 1489.85 3468.34 1487 3468.34 1484.15 3470.65 1481.84 3473.5 1481.84ZM3514.75 1481.84 3535.38 1481.84C3538.22 1481.84 3540.53 1484.15 3540.53 1487 3540.53 1489.85 3538.22 1492.16 3535.38 1492.16L3514.75 1492.16C3511.9 1492.16 3509.59 1489.85 3509.59 1487 3509.59 1484.15 3511.9 1481.84 3514.75 1481.84ZM3556 1481.84 3576.62 1481.84C3579.47 1481.84 3581.78 1484.15 3581.78 1487 3581.78 1489.85 3579.47 1492.16 3576.62 1492.16L3556 1492.16C3553.15 1492.16 3550.84 1489.85 3550.84 1487 3550.84 1484.15 3553.15 1481.84 3556 1481.84ZM3597.25 1481.84 3617.88 1481.84C3620.72 1481.84 3623.03 1484.15 3623.03 1487 3623.03 1489.85 3620.72 1492.16 3617.88 1492.16L3597.25 1492.16C3594.4 1492.16 3592.09 1489.85 3592.09 1487 3592.09 1484.15 3594.4 1481.84 3597.25 1481.84ZM3638.5 1481.84 3659.12 1481.84C3661.97 1481.84 3664.28 1484.15 3664.28 1487 3664.28 1489.85 3661.97 1492.16 3659.12 1492.16L3638.5 1492.16C3635.65 1492.16 3633.34 1489.85 3633.34 1487 3633.34 1484.15 3635.65 1481.84 3638.5 1481.84ZM3679.75 1481.84 3700.38 1481.84C3703.22 1481.84 3705.53 1484.15 3705.53 1487 3705.53 1489.85 3703.22 1492.16 3700.38 1492.16L3679.75 1492.16C3676.9 1492.16 3674.59 1489.85 3674.59 1487 3674.59 1484.15 3676.9 1481.84 3679.75 1481.84ZM3721 1481.84 3741.62 1481.84C3744.47 1481.84 3746.78 1484.15 3746.78 1487 3746.78 1489.85 3744.47 1492.16 3741.62 1492.16L3721 1492.16C3718.15 1492.16 3715.84 1489.85 3715.84 1487 3715.84 1484.15 3718.15 1481.84 3721 1481.84ZM3762.25 1481.84 3782.88 1481.84C3785.72 1481.84 3788.03 1484.15 3788.03 1487 3788.03 1489.85 3785.72 1492.16 3782.88 1492.16L3762.25 1492.16C3759.4 1492.16 3757.09 1489.85 3757.09 1487 3757.09 1484.15 3759.4 1481.84 3762.25 1481.84ZM3803.5 1481.84 3824.12 1481.84C3826.97 1481.84 3829.28 1484.15 3829.28 1487 3829.28 1489.85 3826.97 1492.16 3824.12 1492.16L3803.5 1492.16C3800.65 1492.16 3798.34 1489.85 3798.34 1487 3798.34 1484.15 3800.65 1481.84 3803.5 1481.84ZM3844.75 1481.84 3865.38 1481.84C3868.22 1481.84 3870.53 1484.15 3870.53 1487 3870.53 1489.85 3868.22 1492.16 3865.38 1492.16L3844.75 1492.16C3841.9 1492.16 3839.59 1489.85 3839.59 1487 3839.59 1484.15 3841.9 1481.84 3844.75 1481.84ZM3886 1481.84 3906.62 1481.84C3909.47 1481.84 3911.78 1484.15 3911.78 1487 3911.78 1489.85 3909.47 1492.16 3906.62 1492.16L3886 1492.16C3883.15 1492.16 3880.84 1489.85 3880.84 1487 3880.84 1484.15 3883.15 1481.84 3886 1481.84ZM3927.25 1481.84 3947.88 1481.84C3950.72 1481.84 3953.03 1484.15 3953.03 1487 3953.03 1489.85 3950.72 1492.16 3947.88 1492.16L3927.25 1492.16C3924.4 1492.16 3922.09 1489.85 3922.09 1487 3922.09 1484.15 3924.4 1481.84 3927.25 1481.84ZM3968.5 1481.84 3989.12 1481.84C3991.97 1481.84 3994.28 1484.15 3994.28 1487 3994.28 1489.85 3991.97 1492.16 3989.12 1492.16L3968.5 1492.16C3965.65 1492.16 3963.34 1489.85 3963.34 1487 3963.34 1484.15 3965.65 1481.84 3968.5 1481.84ZM4009.75 1481.84 4030.38 1481.84C4033.22 1481.84 4035.53 1484.15 4035.53 1487 4035.53 1489.85 4033.22 1492.16 4030.38 1492.16L4009.75 1492.16C4006.9 1492.16 4004.59 1489.85 4004.59 1487 4004.59 1484.15 4006.9 1481.84 4009.75 1481.84ZM4051 1481.84 4054 1481.84C4056.85 1481.84 4059.16 1484.15 4059.16 1487 4059.16 1489.85 4056.85 1492.16 4054 1492.16L4051 1492.16C4048.15 1492.16 4045.84 1489.85 4045.84 1487 4045.84 1484.15 4048.15 1481.84 4051 1481.84Z" fill="#FF0000" fill-rule="nonzero" fill-opacity="1"/></g><g><path d="M1906 1943.84 1926.63 1943.84C1929.47 1943.84 1931.78 1946.15 1931.78 1949 1931.78 1951.85 1929.47 1954.16 1926.63 1954.16L1906 1954.16C1903.15 1954.16 1900.84 1951.85 1900.84 1949 1900.84 1946.15 1903.15 1943.84 1906 1943.84ZM1947.25 1943.84 1967.88 1943.84C1970.72 1943.84 1973.03 1946.15 1973.03 1949 1973.03 1951.85 1970.72 1954.16 1967.88 1954.16L1947.25 1954.16C1944.4 1954.16 1942.09 1951.85 1942.09 1949 1942.09 1946.15 1944.4 1943.84 1947.25 1943.84ZM1988.5 1943.84 2009.13 1943.84C2011.97 1943.84 2014.28 1946.15 2014.28 1949 2014.28 1951.85 2011.97 1954.16 2009.13 1954.16L1988.5 1954.16C1985.65 1954.16 1983.34 1951.85 1983.34 1949 1983.34 1946.15 1985.65 1943.84 1988.5 1943.84ZM2029.75 1943.84 2050.38 1943.84C2053.22 1943.84 2055.53 1946.15 2055.53 1949 2055.53 1951.85 2053.22 1954.16 2050.38 1954.16L2029.75 1954.16C2026.9 1954.16 2024.59 1951.85 2024.59 1949 2024.59 1946.15 2026.9 1943.84 2029.75 1943.84ZM2071 1943.84 2091.62 1943.84C2094.47 1943.84 2096.78 1946.15 2096.78 1949 2096.78 1951.85 2094.47 1954.16 2091.62 1954.16L2071 1954.16C2068.15 1954.16 2065.84 1951.85 2065.84 1949 2065.84 1946.15 2068.15 1943.84 2071 1943.84ZM2112.25 1943.84 2132.88 1943.84C2135.72 1943.84 2138.03 1946.15 2138.03 1949 2138.03 1951.85 2135.72 1954.16 2132.88 1954.16L2112.25 1954.16C2109.4 1954.16 2107.09 1951.85 2107.09 1949 2107.09 1946.15 2109.4 1943.84 2112.25 1943.84ZM2153.5 1943.84 2174.12 1943.84C2176.97 1943.84 2179.28 1946.15 2179.28 1949 2179.28 1951.85 2176.97 1954.16 2174.12 1954.16L2153.5 1954.16C2150.65 1954.16 2148.34 1951.85 2148.34 1949 2148.34 1946.15 2150.65 1943.84 2153.5 1943.84ZM2194.75 1943.84 2213.07 1943.84 2215.38 1943.84C2218.22 1943.84 2220.53 1946.15 2220.53 1949 2220.53 1951.85 2218.22 1954.16 2215.38 1954.16L2213.07 1954.16 2194.75 1954.16C2191.9 1954.16 2189.59 1951.85 2189.59 1949 2189.59 1946.15 2191.9 1943.84 2194.75 1943.84ZM2236 1943.84 2256.62 1943.84C2259.47 1943.84 2261.78 1946.15 2261.78 1949 2261.78 1951.85 2259.47 1954.16 2256.62 1954.16L2236 1954.16C2233.15 1954.16 2230.84 1951.85 2230.84 1949 2230.84 1946.15 2233.15 1943.84 2236 1943.84ZM2277.25 1943.84 2297.88 1943.84C2300.72 1943.84 2303.03 1946.15 2303.03 1949 2303.03 1951.85 2300.72 1954.16 2297.88 1954.16L2277.25 1954.16C2274.4 1954.16 2272.09 1951.85 2272.09 1949 2272.09 1946.15 2274.4 1943.84 2277.25 1943.84ZM2318.5 1943.84 2339.12 1943.84C2341.97 1943.84 2344.28 1946.15 2344.28 1949 2344.28 1951.85 2341.97 1954.16 2339.12 1954.16L2318.5 1954.16C2315.65 1954.16 2313.34 1951.85 2313.34 1949 2313.34 1946.15 2315.65 1943.84 2318.5 1943.84ZM2359.75 1943.84 2380.38 1943.84C2383.22 1943.84 2385.53 1946.15 2385.53 1949 2385.53 1951.85 2383.22 1954.16 2380.38 1954.16L2359.75 1954.16C2356.9 1954.16 2354.59 1951.85 2354.59 1949 2354.59 1946.15 2356.9 1943.84 2359.75 1943.84ZM2401 1943.84 2421.62 1943.84C2424.47 1943.84 2426.78 1946.15 2426.78 1949 2426.78 1951.85 2424.47 1954.16 2421.62 1954.16L2401 1954.16C2398.15 1954.16 2395.84 1951.85 2395.84 1949 2395.84 1946.15 2398.15 1943.84 2401 1943.84ZM2442.25 1943.84 2462.88 1943.84C2465.72 1943.84 2468.03 1946.15 2468.03 1949 2468.03 1951.85 2465.72 1954.16 2462.88 1954.16L2442.25 1954.16C2439.4 1954.16 2437.09 1951.85 2437.09 1949 2437.09 1946.15 2439.4 1943.84 2442.25 1943.84ZM2483.5 1943.84 2504.12 1943.84C2506.97 1943.84 2509.28 1946.15 2509.28 1949 2509.28 1951.85 2506.97 1954.16 2504.12 1954.16L2483.5 1954.16C2480.65 1954.16 2478.34 1951.85 2478.34 1949 2478.34 1946.15 2480.65 1943.84 2483.5 1943.84ZM2524.75 1943.84 2545.38 1943.84C2548.22 1943.84 2550.53 1946.15 2550.53 1949 2550.53 1951.85 2548.22 1954.16 2545.38 1954.16L2524.75 1954.16C2521.9 1954.16 2519.59 1951.85 2519.59 1949 2519.59 1946.15 2521.9 1943.84 2524.75 1943.84ZM2566 1943.84 2586.62 1943.84C2589.47 1943.84 2591.78 1946.15 2591.78 1949 2591.78 1951.85 2589.47 1954.16 2586.62 1954.16L2566 1954.16C2563.15 1954.16 2560.84 1951.85 2560.84 1949 2560.84 1946.15 2563.15 1943.84 2566 1943.84ZM2607.25 1943.84 2627.88 1943.84C2630.72 1943.84 2633.03 1946.15 2633.03 1949 2633.03 1951.85 2630.72 1954.16 2627.88 1954.16L2607.25 1954.16C2604.4 1954.16 2602.09 1951.85 2602.09 1949 2602.09 1946.15 2604.4 1943.84 2607.25 1943.84ZM2648.5 1943.84 2669.12 1943.84C2671.97 1943.84 2674.28 1946.15 2674.28 1949 2674.28 1951.85 2671.97 1954.16 2669.12 1954.16L2648.5 1954.16C2645.65 1954.16 2643.34 1951.85 2643.34 1949 2643.34 1946.15 2645.65 1943.84 2648.5 1943.84ZM2689.75 1943.84 2710.38 1943.84C2713.22 1943.84 2715.53 1946.15 2715.53 1949 2715.53 1951.85 2713.22 1954.16 2710.38 1954.16L2689.75 1954.16C2686.9 1954.16 2684.59 1951.85 2684.59 1949 2684.59 1946.15 2686.9 1943.84 2689.75 1943.84ZM2731 1943.84 2751.62 1943.84C2754.47 1943.84 2756.78 1946.15 2756.78 1949 2756.78 1951.85 2754.47 1954.16 2751.62 1954.16L2731 1954.16C2728.15 1954.16 2725.84 1951.85 2725.84 1949 2725.84 1946.15 2728.15 1943.84 2731 1943.84ZM2772.25 1943.84 2792.88 1943.84C2795.72 1943.84 2798.03 1946.15 2798.03 1949 2798.03 1951.85 2795.72 1954.16 2792.88 1954.16L2772.25 1954.16C2769.4 1954.16 2767.09 1951.85 2767.09 1949 2767.09 1946.15 2769.4 1943.84 2772.25 1943.84ZM2813.5 1943.84 2827.09 1943.84 2834.12 1943.84C2836.97 1943.84 2839.28 1946.15 2839.28 1949 2839.28 1951.85 2836.97 1954.16 2834.12 1954.16L2827.09 1954.16 2813.5 1954.16C2810.65 1954.16 2808.34 1951.85 2808.34 1949 2808.34 1946.15 2810.65 1943.84 2813.5 1943.84ZM2854.75 1943.84 2875.38 1943.84C2878.22 1943.84 2880.53 1946.15 2880.53 1949 2880.53 1951.85 2878.22 1954.16 2875.38 1954.16L2854.75 1954.16C2851.9 1954.16 2849.59 1951.85 2849.59 1949 2849.59 1946.15 2851.9 1943.84 2854.75 1943.84ZM2896 1943.84 2916.62 1943.84C2919.47 1943.84 2921.78 1946.15 2921.78 1949 2921.78 1951.85 2919.47 1954.16 2916.62 1954.16L2896 1954.16C2893.15 1954.16 2890.84 1951.85 2890.84 1949 2890.84 1946.15 2893.15 1943.84 2896 1943.84ZM2937.25 1943.84 2957.88 1943.84C2960.72 1943.84 2963.03 1946.15 2963.03 1949 2963.03 1951.85 2960.72 1954.16 2957.88 1954.16L2937.25 1954.16C2934.4 1954.16 2932.09 1951.85 2932.09 1949 2932.09 1946.15 2934.4 1943.84 2937.25 1943.84ZM2978.5 1943.84 2999.12 1943.84C3001.97 1943.84 3004.28 1946.15 3004.28 1949 3004.28 1951.85 3001.97 1954.16 2999.12 1954.16L2978.5 1954.16C2975.65 1954.16 2973.34 1951.85 2973.34 1949 2973.34 1946.15 2975.65 1943.84 2978.5 1943.84ZM3019.75 1943.84 3040.38 1943.84C3043.22 1943.84 3045.53 1946.15 3045.53 1949 3045.53 1951.85 3043.22 1954.16 3040.38 1954.16L3019.75 1954.16C3016.9 1954.16 3014.59 1951.85 3014.59 1949 3014.59 1946.15 3016.9 1943.84 3019.75 1943.84ZM3061 1943.84 3081.62 1943.84C3084.47 1943.84 3086.78 1946.15 3086.78 1949 3086.78 1951.85 3084.47 1954.16 3081.62 1954.16L3061 1954.16C3058.15 1954.16 3055.84 1951.85 3055.84 1949 3055.84 1946.15 3058.15 1943.84 3061 1943.84ZM3102.25 1943.84 3122.88 1943.84C3125.72 1943.84 3128.03 1946.15 3128.03 1949 3128.03 1951.85 3125.72 1954.16 3122.88 1954.16L3102.25 1954.16C3099.4 1954.16 3097.09 1951.85 3097.09 1949 3097.09 1946.15 3099.4 1943.84 3102.25 1943.84ZM3143.5 1943.84 3164.12 1943.84C3166.97 1943.84 3169.28 1946.15 3169.28 1949 3169.28 1951.85 3166.97 1954.16 3164.12 1954.16L3143.5 1954.16C3140.65 1954.16 3138.34 1951.85 3138.34 1949 3138.34 1946.15 3140.65 1943.84 3143.5 1943.84ZM3184.75 1943.84 3205.38 1943.84C3208.22 1943.84 3210.53 1946.15 3210.53 1949 3210.53 1951.85 3208.22 1954.16 3205.38 1954.16L3184.75 1954.16C3181.9 1954.16 3179.59 1951.85 3179.59 1949 3179.59 1946.15 3181.9 1943.84 3184.75 1943.84ZM3226 1943.84 3246.62 1943.84C3249.47 1943.84 3251.78 1946.15 3251.78 1949 3251.78 1951.85 3249.47 1954.16 3246.62 1954.16L3226 1954.16C3223.15 1954.16 3220.84 1951.85 3220.84 1949 3220.84 1946.15 3223.15 1943.84 3226 1943.84ZM3267.25 1943.84 3287.88 1943.84C3290.72 1943.84 3293.03 1946.15 3293.03 1949 3293.03 1951.85 3290.72 1954.16 3287.88 1954.16L3267.25 1954.16C3264.4 1954.16 3262.09 1951.85 3262.09 1949 3262.09 1946.15 3264.4 1943.84 3267.25 1943.84ZM3308.5 1943.84 3329.12 1943.84C3331.97 1943.84 3334.28 1946.15 3334.28 1949 3334.28 1951.85 3331.97 1954.16 3329.12 1954.16L3308.5 1954.16C3305.65 1954.16 3303.34 1951.85 3303.34 1949 3303.34 1946.15 3305.65 1943.84 3308.5 1943.84ZM3349.75 1943.84 3370.38 1943.84C3373.22 1943.84 3375.53 1946.15 3375.53 1949 3375.53 1951.85 3373.22 1954.16 3370.38 1954.16L3349.75 1954.16C3346.9 1954.16 3344.59 1951.85 3344.59 1949 3344.59 1946.15 3346.9 1943.84 3349.75 1943.84ZM3391 1943.84 3411.62 1943.84C3414.47 1943.84 3416.78 1946.15 3416.78 1949 3416.78 1951.85 3414.47 1954.16 3411.62 1954.16L3391 1954.16C3388.15 1954.16 3385.84 1951.85 3385.84 1949 3385.84 1946.15 3388.15 1943.84 3391 1943.84ZM3432.25 1943.84 3440.11 1943.84 3452.88 1943.84C3455.72 1943.84 3458.03 1946.15 3458.03 1949 3458.03 1951.85 3455.72 1954.16 3452.88 1954.16L3440.11 1954.16 3432.25 1954.16C3429.4 1954.16 3427.09 1951.85 3427.09 1949 3427.09 1946.15 3429.4 1943.84 3432.25 1943.84ZM3473.5 1943.84 3494.12 1943.84C3496.97 1943.84 3499.28 1946.15 3499.28 1949 3499.28 1951.85 3496.97 1954.16 3494.12 1954.16L3473.5 1954.16C3470.65 1954.16 3468.34 1951.85 3468.34 1949 3468.34 1946.15 3470.65 1943.84 3473.5 1943.84ZM3514.75 1943.84 3535.38 1943.84C3538.22 1943.84 3540.53 1946.15 3540.53 1949 3540.53 1951.85 3538.22 1954.16 3535.38 1954.16L3514.75 1954.16C3511.9 1954.16 3509.59 1951.85 3509.59 1949 3509.59 1946.15 3511.9 1943.84 3514.75 1943.84ZM3556 1943.84 3576.62 1943.84C3579.47 1943.84 3581.78 1946.15 3581.78 1949 3581.78 1951.85 3579.47 1954.16 3576.62 1954.16L3556 1954.16C3553.15 1954.16 3550.84 1951.85 3550.84 1949 3550.84 1946.15 3553.15 1943.84 3556 1943.84ZM3597.25 1943.84 3617.88 1943.84C3620.72 1943.84 3623.03 1946.15 3623.03 1949 3623.03 1951.85 3620.72 1954.16 3617.88 1954.16L3597.25 1954.16C3594.4 1954.16 3592.09 1951.85 3592.09 1949 3592.09 1946.15 3594.4 1943.84 3597.25 1943.84ZM3638.5 1943.84 3659.12 1943.84C3661.97 1943.84 3664.28 1946.15 3664.28 1949 3664.28 1951.85 3661.97 1954.16 3659.12 1954.16L3638.5 1954.16C3635.65 1954.16 3633.34 1951.85 3633.34 1949 3633.34 1946.15 3635.65 1943.84 3638.5 1943.84ZM3679.75 1943.84 3700.38 1943.84C3703.22 1943.84 3705.53 1946.15 3705.53 1949 3705.53 1951.85 3703.22 1954.16 3700.38 1954.16L3679.75 1954.16C3676.9 1954.16 3674.59 1951.85 3674.59 1949 3674.59 1946.15 3676.9 1943.84 3679.75 1943.84ZM3721 1943.84 3741.62 1943.84C3744.47 1943.84 3746.78 1946.15 3746.78 1949 3746.78 1951.85 3744.47 1954.16 3741.62 1954.16L3721 1954.16C3718.15 1954.16 3715.84 1951.85 3715.84 1949 3715.84 1946.15 3718.15 1943.84 3721 1943.84ZM3762.25 1943.84 3782.88 1943.84C3785.72 1943.84 3788.03 1946.15 3788.03 1949 3788.03 1951.85 3785.72 1954.16 3782.88 1954.16L3762.25 1954.16C3759.4 1954.16 3757.09 1951.85 3757.09 1949 3757.09 1946.15 3759.4 1943.84 3762.25 1943.84ZM3803.5 1943.84 3824.12 1943.84C3826.97 1943.84 3829.28 1946.15 3829.28 1949 3829.28 1951.85 3826.97 1954.16 3824.12 1954.16L3803.5 1954.16C3800.65 1954.16 3798.34 1951.85 3798.34 1949 3798.34 1946.15 3800.65 1943.84 3803.5 1943.84ZM3844.75 1943.84 3865.38 1943.84C3868.22 1943.84 3870.53 1946.15 3870.53 1949 3870.53 1951.85 3868.22 1954.16 3865.38 1954.16L3844.75 1954.16C3841.9 1954.16 3839.59 1951.85 3839.59 1949 3839.59 1946.15 3841.9 1943.84 3844.75 1943.84ZM3886 1943.84 3906.62 1943.84C3909.47 1943.84 3911.78 1946.15 3911.78 1949 3911.78 1951.85 3909.47 1954.16 3906.62 1954.16L3886 1954.16C3883.15 1954.16 3880.84 1951.85 3880.84 1949 3880.84 1946.15 3883.15 1943.84 3886 1943.84ZM3927.25 1943.84 3947.88 1943.84C3950.72 1943.84 3953.03 1946.15 3953.03 1949 3953.03 1951.85 3950.72 1954.16 3947.88 1954.16L3927.25 1954.16C3924.4 1954.16 3922.09 1951.85 3922.09 1949 3922.09 1946.15 3924.4 1943.84 3927.25 1943.84ZM3968.5 1943.84 3989.12 1943.84C3991.97 1943.84 3994.28 1946.15 3994.28 1949 3994.28 1951.85 3991.97 1954.16 3989.12 1954.16L3968.5 1954.16C3965.65 1954.16 3963.34 1951.85 3963.34 1949 3963.34 1946.15 3965.65 1943.84 3968.5 1943.84ZM4009.75 1943.84 4030.38 1943.84C4033.22 1943.84 4035.53 1946.15 4035.53 1949 4035.53 1951.85 4033.22 1954.16 4030.38 1954.16L4009.75 1954.16C4006.9 1954.16 4004.59 1951.85 4004.59 1949 4004.59 1946.15 4006.9 1943.84 4009.75 1943.84ZM4051 1943.84 4054 1943.84C4056.85 1943.84 4059.16 1946.15 4059.16 1949 4059.16 1951.85 4056.85 1954.16 4054 1954.16L4051 1954.16C4048.15 1954.16 4045.84 1951.85 4045.84 1949 4045.84 1946.15 4048.15 1943.84 4051 1943.84Z" fill="#00B050" fill-rule="nonzero" fill-opacity="1"/></g><g><text fill="#595959" fill-opacity="1" font-family="Calibri,Calibri_MSFontService,sans-serif" font-style="normal" font-variant="normal" font-weight="400" font-stretch="normal" font-size="41" text-anchor="start" direction="ltr" writing-mode="lr-tb" unicode-bidi="normal" text-decoration="none" transform="matrix(1 0 0 1 1693.7 2114)">0</text></g><g><text fill="#595959" fill-opacity="1" font-family="Calibri,Calibri_MSFontService,sans-serif" font-style="normal" font-variant="normal" font-weight="400" font-stretch="normal" font-size="41" text-anchor="start" direction="ltr" writing-mode="lr-tb" unicode-bidi="normal" text-decoration="none" transform="matrix(1 0 0 1 1662.4 1960)">0.5</text></g><g><text fill="#595959" fill-opacity="1" font-family="Calibri,Calibri_MSFontService,sans-serif" font-style="normal" font-variant="normal" font-weight="400" font-stretch="normal" font-size="41" text-anchor="start" direction="ltr" writing-mode="lr-tb" unicode-bidi="normal" text-decoration="none" transform="matrix(1 0 0 1 1693.7 1806)">1</text></g><g><text fill="#595959" fill-opacity="1" font-family="Calibri,Calibri_MSFontService,sans-serif" font-style="normal" font-variant="normal" font-weight="400" font-stretch="normal" font-size="41" text-anchor="start" direction="ltr" writing-mode="lr-tb" unicode-bidi="normal" text-decoration="none" transform="matrix(1 0 0 1 1662.4 1652)">1.5</text></g><g><text fill="#595959" fill-opacity="1" font-family="Calibri,Calibri_MSFontService,sans-serif" font-style="normal" font-variant="normal" font-weight="400" font-stretch="normal" font-size="41" text-anchor="start" direction="ltr" writing-mode="lr-tb" unicode-bidi="normal" text-decoration="none" transform="matrix(1 0 0 1 1693.7 1498)">2</text></g><g><text fill="#595959" fill-opacity="1" font-family="Calibri,Calibri_MSFontService,sans-serif" font-style="normal" font-variant="normal" font-weight="400" font-stretch="normal" font-size="41" text-anchor="start" direction="ltr" writing-mode="lr-tb" unicode-bidi="normal" text-decoration="none" transform="matrix(1 0 0 1 1662.4 1344)">2.5</text></g><g><text fill="#595959" fill-opacity="1" font-family="Calibri,Calibri_MSFontService,sans-serif" font-style="normal" font-variant="normal" font-weight="400" font-stretch="normal" font-size="41" text-anchor="start" direction="ltr" writing-mode="lr-tb" unicode-bidi="normal" text-decoration="none" transform="matrix(1 0 0 1 1693.7 1189)">3</text></g><g><text fill="#595959" fill-opacity="1" font-family="Calibri,Calibri_MSFontService,sans-serif" font-style="normal" font-variant="normal" font-weight="400" font-stretch="normal" font-size="41" text-anchor="start" direction="ltr" writing-mode="lr-tb" unicode-bidi="normal" text-decoration="none" transform="matrix(1 0 0 1 1662.4 1035)">3.5</text></g><g><text fill="#595959" fill-opacity="1" font-family="Calibri,Calibri_MSFontService,sans-serif" font-style="normal" font-variant="normal" font-weight="400" font-stretch="normal" font-size="41" text-anchor="start" direction="ltr" writing-mode="lr-tb" unicode-bidi="normal" text-decoration="none" transform="matrix(1 0 0 1 1830.71 2169)">Sprint 10</text></g><g><text fill="#595959" fill-opacity="1" font-family="Calibri,Calibri_MSFontService,sans-serif" font-style="normal" font-variant="normal" font-weight="400" font-stretch="normal" font-size="41" text-anchor="start" direction="ltr" writing-mode="lr-tb" unicode-bidi="normal" text-decoration="none" transform="matrix(1 0 0 1 2137.54 2169)">Sprint 11</text></g><g><text fill="#595959" fill-opacity="1" font-family="Calibri,Calibri_MSFontService,sans-serif" font-style="normal" font-variant="normal" font-weight="400" font-stretch="normal" font-size="41" text-anchor="start" direction="ltr" writing-mode="lr-tb" unicode-bidi="normal" text-decoration="none" transform="matrix(1 0 0 1 2444.37 2169)">Sprint 12</text></g><g><text fill="#595959" fill-opacity="1" font-family="Calibri,Calibri_MSFontService,sans-serif" font-style="normal" font-variant="normal" font-weight="400" font-stretch="normal" font-size="41" text-anchor="start" direction="ltr" writing-mode="lr-tb" unicode-bidi="normal" text-decoration="none" transform="matrix(1 0 0 1 2751.2 2169)">Sprint 13</text></g><g><text fill="#595959" fill-opacity="1" font-family="Calibri,Calibri_MSFontService,sans-serif" font-style="normal" font-variant="normal" font-weight="400" font-stretch="normal" font-size="41" text-anchor="start" direction="ltr" writing-mode="lr-tb" unicode-bidi="normal" text-decoration="none" transform="matrix(1 0 0 1 3058.03 2169)">Sprint 14</text></g><g><text fill="#595959" fill-opacity="1" font-family="Calibri,Calibri_MSFontService,sans-serif" font-style="normal" font-variant="normal" font-weight="400" font-stretch="normal" font-size="41" text-anchor="start" direction="ltr" writing-mode="lr-tb" unicode-bidi="normal" text-decoration="none" transform="matrix(1 0 0 1 3364.87 2169)">Sprint 15</text></g><g><text fill="#595959" fill-opacity="1" font-family="Calibri,Calibri_MSFontService,sans-serif" font-style="normal" font-variant="normal" font-weight="400" font-stretch="normal" font-size="41" text-anchor="start" direction="ltr" writing-mode="lr-tb" unicode-bidi="normal" text-decoration="none" transform="matrix(1 0 0 1 3671.7 2169)">Sprint 16</text></g><g><text fill="#595959" fill-opacity="1" font-family="Calibri,Calibri_MSFontService,sans-serif" font-style="normal" font-variant="normal" font-weight="400" font-stretch="normal" font-size="41" text-anchor="start" direction="ltr" writing-mode="lr-tb" unicode-bidi="normal" text-decoration="none" transform="matrix(1 0 0 1 3978.53 2169)">Sprint 17</text></g><g><text fill="#595959" fill-opacity="1" font-family="Calibri,Calibri_MSFontService,sans-serif" font-style="normal" font-variant="normal" font-weight="400" font-stretch="normal" font-size="46" text-anchor="start" direction="ltr" writing-mode="lr-tb" unicode-bidi="normal" text-decoration="none" transform="matrix(6.12323e-17 -1 1 6.12323e-17 1636.71 1637)">Secondi</text></g><g><text fill="#595959" fill-opacity="1" font-family="Calibri,Calibri_MSFontService,sans-serif" font-style="normal" font-variant="normal" font-weight="400" font-stretch="normal" font-size="64" text-anchor="start" direction="ltr" writing-mode="lr-tb" unicode-bidi="normal" text-decoration="none" transform="matrix(1 0 0 1 2863.93 950)">RT</text></g><g><path d="M2309 2248 2425 2248" stroke="#4F81BD" stroke-width="10.3125" stroke-linecap="round" stroke-linejoin="round" stroke-miterlimit="10" stroke-opacity="1" fill="none" fill-rule="evenodd"/></g><g><text fill="#595959" fill-opacity="1" font-family="Calibri,Calibri_MSFontService,sans-serif" font-style="normal" font-variant="normal" font-weight="400" font-stretch="normal" font-size="41" text-anchor="start" direction="ltr" writing-mode="lr-tb" unicode-bidi="normal" text-decoration="none" transform="matrix(1 0 0 1 2437.29 2259)">RT (s)</text></g><g><path d="M2601 2242.84 2621.63 2242.84C2624.47 2242.84 2626.78 2245.15 2626.78 2248 2626.78 2250.85 2624.47 2253.16 2621.63 2253.16L2601 2253.16C2598.15 2253.16 2595.84 2250.85 2595.84 2248 2595.84 2245.15 2598.15 2242.84 2601 2242.84ZM2642.25 2242.84 2662.88 2242.84C2665.72 2242.84 2668.03 2245.15 2668.03 2248 2668.03 2250.85 2665.72 2253.16 2662.88 2253.16L2642.25 2253.16C2639.4 2253.16 2637.09 2250.85 2637.09 2248 2637.09 2245.15 2639.4 2242.84 2642.25 2242.84ZM2683.5 2242.84 2704.13 2242.84C2706.97 2242.84 2709.28 2245.15 2709.28 2248 2709.28 2250.85 2706.97 2253.16 2704.13 2253.16L2683.5 2253.16C2680.65 2253.16 2678.34 2250.85 2678.34 2248 2678.34 2245.15 2680.65 2242.84 2683.5 2242.84Z" fill="#FF0000" fill-rule="nonzero" fill-opacity="1"/></g><g><text fill="#595959" fill-opacity="1" font-family="Calibri,Calibri_MSFontService,sans-serif" font-style="normal" font-variant="normal" font-weight="400" font-stretch="normal" font-size="41" text-anchor="start" direction="ltr" writing-mode="lr-tb" unicode-bidi="normal" text-decoration="none" transform="matrix(1 0 0 1 2729.68 2259)">Soglia acc. (≤2 s)</text></g><g><path d="M3075 2242.84 3095.62 2242.84C3098.47 2242.84 3100.78 2245.15 3100.78 2248 3100.78 2250.85 3098.47 2253.16 3095.62 2253.16L3075 2253.16C3072.15 2253.16 3069.84 2250.85 3069.84 2248 3069.84 2245.15 3072.15 2242.84 3075 2242.84ZM3116.25 2242.84 3136.87 2242.84C3139.72 2242.84 3142.03 2245.15 3142.03 2248 3142.03 2250.85 3139.72 2253.16 3136.87 2253.16L3116.25 2253.16C3113.4 2253.16 3111.09 2250.85 3111.09 2248 3111.09 2245.15 3113.4 2242.84 3116.25 2242.84ZM3157.5 2242.84 3178.12 2242.84C3180.97 2242.84 3183.28 2245.15 3183.28 2248 3183.28 2250.85 3180.97 2253.16 3178.12 2253.16L3157.5 2253.16C3154.65 2253.16 3152.34 2250.85 3152.34 2248 3152.34 2245.15 3154.65 2242.84 3157.5 2242.84Z" fill="#00B050" fill-rule="nonzero" fill-opacity="1"/></g><g><text fill="#595959" fill-opacity="1" font-family="Calibri,Calibri_MSFontService,sans-serif" font-style="normal" font-variant="normal" font-weight="400" font-stretch="normal" font-size="41" text-anchor="start" direction="ltr" writing-mode="lr-tb" unicode-bidi="normal" text-decoration="none" transform="matrix(1 0 0 1 3203.5 2259)">Soglia ott. (≤0,5 s)</text></g><rect x="1535.5" y="855.5" width="2723" height="1460" stroke="#D9D9D9" stroke-width="3.4375" stroke-linecap="butt" stroke-linejoin="round" stroke-miterlimit="10" stroke-opacity="1" fill="none"/></g></g></svg>