<svg width="3841" height="1787" xmlns="http://www.w3.org/2000/svg" xmlns:xlink="http://www.w3.org/1999/xlink" xml:space="preserve" overflow="hidden"><defs><clipPath id="clip0"><rect x="902" y="1315" width="3841" height="1787"/></clipPath><clipPath id="clip1"><rect x="902" y="1315" width="3841" height="1787"/></clipPath><clipPath id="clip2"><rect x="1166" y="1487" width="3526" height="1403"/></clipPath><clipPath id="clip3"><rect x="1166" y="1487" width="3526" height="1403"/></clipPath></defs><g clip-path="url(#clip0)" transform="translate(-902 -1315)"><g clip-path="url(#clip1)"><rect x="908" y="1318" width="3831" height="1780" fill="#FFFFFF" fill-opacity="1"/><g><path d="M1166.5 2712.59 4688.5 2712.59M1166.5 2537.58 4688.5 2537.58M1166.5 2362.58 4688.5 2362.58M1166.5 2187.57 4688.5 2187.57M1166.5 2012.57 4688.5 2012.57M1166.5 1837.56 4688.5 1837.56M1166.5 1662.55 4688.5 1662.55M1166.5 1487.5 4688.5 1487.5" stroke="#D9D9D9" stroke-width="3.4375" stroke-linecap="butt" stroke-linejoin="round" stroke-miterlimit="10" stroke-opacity="1" fill="none" fill-rule="nonzero"/></g><g><path d="M1166.5 2887.5 4688.5 2887.5" stroke="#D9D9D9" stroke-width="3.4375" stroke-linecap="butt" stroke-linejoin="round" stroke-miterlimit="10" stroke-opacity="1" fill="none" fill-rule="evenodd"/></g><g clip-path="url(#clip2)"><path d="M1270 1487.36C1339.06 1487.36 1408.12 1429 1477.19 1487.36 1546.25 1545.72 1615.31 1837.53 1684.38 1837.53 1753.44 1837.53 1822.5 1545.72 1891.56 1487.36 1960.62 1429 2029.69 1434.31 2098.75 1487.36 2167.81 1540.42 2236.87 1659.79 2305.94 1805.7 2375 1951.6 2444.06 2318.57 2513.12 2362.79 2582.19 2407 2651.25 2193.54 2720.31 2070.98 2789.38 1948.42 2858.44 1724.7 2927.5 1627.43 2996.56 1530.16 3065.62 1510.71 3134.69 1487.36 3203.75 1464.02 3272.81 1487.36 3341.87 1487.36 3392.67 1487.36 3498.27 1397 3549.06 1487.36 3618.12 1610.23 3687.19 2154.53 3756.25 2224.56 3825.31 2294.6 3894.37 1931.22 3963.44 1907.57 4032.5 1883.91 4101.56 2070.98 4170.62 2082.65 4239.69 2094.32 4308.75 1965.93 4377.81 1977.6 4446.87 1989.27 4515.94 2094.32 4585 2152.68" stroke="#1F497D" stroke-width="10.3125" stroke-linecap="round" stroke-linejoin="round" stroke-miterlimit="10" stroke-opacity="1" fill="none" fill-rule="nonzero"/></g><g><path d="M1270 2007.84 1290.63 2007.84C1293.47 2007.84 1295.78 2010.15 1295.78 2013 1295.78 2015.85 1293.47 2018.16 1290.63 2018.16L1270 2018.16C1267.15 2018.16 1264.84 2015.85 1264.84 2013 1264.84 2010.15 1267.15 2007.84 1270 2007.84ZM1311.25 2007.84 1331.88 2007.84C1334.72 2007.84 1337.03 2010.15 1337.03 2013 1337.03 2015.85 1334.72 2018.16 1331.88 2018.16L1311.25 2018.16C1308.4 2018.16 1306.09 2015.85 1306.09 2013 1306.09 2010.15 1308.4 2007.84 1311.25 2007.84ZM1352.5 2007.84 1373.13 2007.84C1375.97 2007.84 1378.28 2010.15 1378.28 2013 1378.28 2015.85 1375.97 2018.16 1373.13 2018.16L1352.5 2018.16C1349.65 2018.16 1347.34 2015.85 1347.34 2013 1347.34 2010.15 1349.65 2007.84 1352.5 2007.84ZM1393.75 2007.84 1414.38 2007.84C1417.22 2007.84 1419.53 2010.15 1419.53 2013 1419.53 2015.85 1417.22 2018.16 1414.38 2018.16L1393.75 2018.16C1390.9 2018.16 1388.59 2015.85 1388.59 2013 1388.59 2010.15 1390.9 2007.84 1393.75 2007.84ZM1435 2007.84 1455.63 2007.84C1458.47 2007.84 1460.78 2010.15 1460.78 2013 1460.78 2015.85 1458.47 2018.16 1455.63 2018.16L1435 2018.16C1432.15 2018.16 1429.84 2015.85 1429.84 2013 1429.84 2010.15 1432.15 2007.84 1435 2007.84ZM1476.25 2007.84 1477.05 2007.84 1496.88 2007.84C1499.72 2007.84 1502.03 2010.15 1502.03 2013 1502.03 2015.85 1499.72 2018.16 1496.88 2018.16L1477.05 2018.16 1476.25 2018.16C1473.4 2018.16 1471.09 2015.85 1471.09 2013 1471.09 2010.15 1473.4 2007.84 1476.25 2007.84ZM1517.5 2007.84 1538.13 2007.84C1540.97 2007.84 1543.28 2010.15 1543.28 2013 1543.28 2015.85 1540.97 2018.16 1538.13 2018.16L1517.5 2018.16C1514.65 2018.16 1512.34 2015.85 1512.34 2013 1512.34 2010.15 1514.65 2007.84 1517.5 2007.84ZM1558.75 2007.84 1579.38 2007.84C1582.22 2007.84 1584.53 2010.15 1584.53 2013 1584.53 2015.85 1582.22 2018.16 1579.38 2018.16L1558.75 2018.16C1555.9 2018.16 1553.59 2015.85 1553.59 2013 1553.59 2010.15 1555.9 2007.84 1558.75 2007.84ZM1600 2007.84 1620.63 2007.84C1623.47 2007.84 1625.78 2010.15 1625.78 2013 1625.78 2015.85 1623.47 2018.16 1620.63 2018.16L1600 2018.16C1597.15 2018.16 1594.84 2015.85 1594.84 2013 1594.84 2010.15 1597.15 2007.84 1600 2007.84ZM1641.25 2007.84 1661.88 2007.84C1664.72 2007.84 1667.03 2010.15 1667.03 2013 1667.03 2015.85 1664.72 2018.16 1661.88 2018.16L1641.25 2018.16C1638.4 2018.16 1636.09 2015.85 1636.09 2013 1636.09 2010.15 1638.4 2007.84 1641.25 2007.84ZM1682.5 2007.84 1685.06 2007.84 1703.13 2007.84C1705.97 2007.84 1708.28 2010.15 1708.28 2013 1708.28 2015.85 1705.97 2018.16 1703.13 2018.16L1685.06 2018.16 1682.5 2018.16C1679.65 2018.16 1677.34 2015.85 1677.34 2013 1677.34 2010.15 1679.65 2007.84 1682.5 2007.84ZM1723.75 2007.84 1744.38 2007.84C1747.22 2007.84 1749.53 2010.15 1749.53 2013 1749.53 2015.85 1747.22 2018.16 1744.38 2018.16L1723.75 2018.16C1720.9 2018.16 1718.59 2015.85 1718.59 2013 1718.59 2010.15 1720.9 2007.84 1723.75 2007.84ZM1765 2007.84 1785.63 2007.84C1788.47 2007.84 1790.78 2010.15 1790.78 2013 1790.78 2015.85 1788.47 2018.16 1785.63 2018.16L1765 2018.16C1762.15 2018.16 1759.84 2015.85 1759.84 2013 1759.84 2010.15 1762.15 2007.84 1765 2007.84ZM1806.25 2007.84 1826.88 2007.84C1829.72 2007.84 1832.03 2010.15 1832.03 2013 1832.03 2015.85 1829.72 2018.16 1826.88 2018.16L1806.25 2018.16C1803.4 2018.16 1801.09 2015.85 1801.09 2013 1801.09 2010.15 1803.4 2007.84 1806.25 2007.84ZM1847.5 2007.84 1868.13 2007.84C1870.97 2007.84 1873.28 2010.15 1873.28 2013 1873.28 2015.85 1870.97 2018.16 1868.13 2018.16L1847.5 2018.16C1844.65 2018.16 1842.34 2015.85 1842.34 2013 1842.34 2010.15 1844.65 2007.84 1847.5 2007.84ZM1888.75 2007.84 1892.06 2007.84 1909.38 2007.84C1912.22 2007.84 1914.53 2010.15 1914.53 2013 1914.53 2015.85 1912.22 2018.16 1909.38 2018.16L1892.06 2018.16 1888.75 2018.16C1885.9 2018.16 1883.59 2015.85 1883.59 2013 1883.59 2010.15 1885.9 2007.84 1888.75 2007.84ZM1930 2007.84 1950.63 2007.84C1953.47 2007.84 1955.78 2010.15 1955.78 2013 1955.78 2015.85 1953.47 2018.16 1950.63 2018.16L1930 2018.16C1927.15 2018.16 1924.84 2015.85 1924.84 2013 1924.84 2010.15 1927.15 2007.84 1930 2007.84ZM1971.25 2007.84 1991.88 2007.84C1994.72 2007.84 1997.03 2010.15 1997.03 2013 1997.03 2015.85 1994.72 2018.16 1991.88 2018.16L1971.25 2018.16C1968.4 2018.16 1966.09 2015.85 1966.09 2013 1966.09 2010.15 1968.4 2007.84 1971.25 2007.84ZM2012.5 2007.84 2033.13 2007.84C2035.97 2007.84 2038.28 2010.15 2038.28 2013 2038.28 2015.85 2035.97 2018.16 2033.13 2018.16L2012.5 2018.16C2009.65 2018.16 2007.34 2015.85 2007.34 2013 2007.34 2010.15 2009.65 2007.84 2012.5 2007.84ZM2053.75 2007.84 2074.38 2007.84C2077.22 2007.84 2079.53 2010.15 2079.53 2013 2079.53 2015.85 2077.22 2018.16 2074.38 2018.16L2053.75 2018.16C2050.9 2018.16 2048.59 2015.85 2048.59 2013 2048.59 2010.15 2050.9 2007.84 2053.75 2007.84ZM2095 2007.84 2099.07 2007.84 2115.62 2007.84C2118.47 2007.84 2120.78 2010.15 2120.78 2013 2120.78 2015.85 2118.47 2018.16 2115.62 2018.16L2099.07 2018.16 2095 2018.16C2092.15 2018.16 2089.84 2015.85 2089.84 2013 2089.84 2010.15 2092.15 2007.84 2095 2007.84ZM2136.25 2007.84 2156.88 2007.84C2159.72 2007.84 2162.03 2010.15 2162.03 2013 2162.03 2015.85 2159.72 2018.16 2156.88 2018.16L2136.25 2018.16C2133.4 2018.16 2131.09 2015.85 2131.09 2013 2131.09 2010.15 2133.4 2007.84 2136.25 2007.84ZM2177.5 2007.84 2198.12 2007.84C2200.97 2007.84 2203.28 2010.15 2203.28 2013 2203.28 2015.85 2200.97 2018.16 2198.12 2018.16L2177.5 2018.16C2174.65 2018.16 2172.34 2015.85 2172.34 2013 2172.34 2010.15 2174.65 2007.84 2177.5 2007.84ZM2218.75 2007.84 2239.38 2007.84C2242.22 2007.84 2244.53 2010.15 2244.53 2013 2244.53 2015.85 2242.22 2018.16 2239.38 2018.16L2218.75 2018.16C2215.9 2018.16 2213.59 2015.85 2213.59 2013 2213.59 2010.15 2215.9 2007.84 2218.75 2007.84ZM2260 2007.84 2280.62 2007.84C2283.47 2007.84 2285.78 2010.15 2285.78 2013 2285.78 2015.85 2283.47 2018.16 2280.62 2018.16L2260 2018.16C2257.15 2018.16 2254.84 2015.85 2254.84 2013 2254.84 2010.15 2257.15 2007.84 2260 2007.84ZM2301.25 2007.84 2306.08 2007.84 2321.88 2007.84C2324.72 2007.84 2327.03 2010.15 2327.03 2013 2327.03 2015.85 2324.72 2018.16 2321.88 2018.16L2306.08 2018.16 2301.25 2018.16C2298.4 2018.16 2296.09 2015.85 2296.09 2013 2296.09 2010.15 2298.4 2007.84 2301.25 2007.84ZM2342.5 2007.84 2363.12 2007.84C2365.97 2007.84 2368.28 2010.15 2368.28 2013 2368.28 2015.85 2365.97 2018.16 2363.12 2018.16L2342.5 2018.16C2339.65 2018.16 2337.34 2015.85 2337.34 2013 2337.34 2010.15 2339.65 2007.84 2342.5 2007.84ZM2383.75 2007.84 2404.38 2007.84C2407.22 2007.84 2409.53 2010.15 2409.53 2013 2409.53 2015.85 2407.22 2018.16 2404.38 2018.16L2383.75 2018.16C2380.9 2018.16 2378.59 2015.85 2378.59 2013 2378.59 2010.15 2380.9 2007.84 2383.75 2007.84ZM2425 2007.84 2445.62 2007.84C2448.47 2007.84 2450.78 2010.15 2450.78 2013 2450.78 2015.85 2448.47 2018.16 2445.62 2018.16L2425 2018.16C2422.15 2018.16 2419.84 2015.85 2419.84 2013 2419.84 2010.15 2422.15 2007.84 2425 2007.84ZM2466.25 2007.84 2486.88 2007.84C2489.72 2007.84 2492.03 2010.15 2492.03 2013 2492.03 2015.85 2489.72 2018.16 2486.88 2018.16L2466.25 2018.16C2463.4 2018.16 2461.09 2015.85 2461.09 2013 2461.09 2010.15 2463.4 2007.84 2466.25 2007.84ZM2507.5 2007.84 2513.08 2007.84 2528.12 2007.84C2530.97 2007.84 2533.28 2010.15 2533.28 2013 2533.28 2015.85 2530.97 2018.16 2528.12 2018.16L2513.08 2018.16 2507.5 2018.16C2504.65 2018.16 2502.34 2015.85 2502.34 2013 2502.34 2010.15 2504.65 2007.84 2507.5 2007.84ZM2548.75 2007.84 2569.38 2007.84C2572.22 2007.84 2574.53 2010.15 2574.53 2013 2574.53 2015.85 2572.22 2018.16 2569.38 2018.16L2548.75 2018.16C2545.9 2018.16 2543.59 2015.85 2543.59 2013 2543.59 2010.15 2545.9 2007.84 2548.75 2007.84ZM2590 2007.84 2610.62 2007.84C2613.47 2007.84 2615.78 2010.15 2615.78 2013 2615.78 2015.85 2613.47 2018.16 2610.62 2018.16L2590 2018.16C2587.15 2018.16 2584.84 2015.85 2584.84 2013 2584.84 2010.15 2587.15 2007.84 2590 2007.84ZM2631.25 2007.84 2651.88 2007.84C2654.72 2007.84 2657.03 2010.15 2657.03 2013 2657.03 2015.85 2654.72 2018.16 2651.88 2018.16L2631.25 2018.16C2628.4 2018.16 2626.09 2015.85 2626.09 2013 2626.09 2010.15 2628.4 2007.84 2631.25 2007.84ZM2672.5 2007.84 2693.12 2007.84C2695.97 2007.84 2698.28 2010.15 2698.28 2013 2698.28 2015.85 2695.97 2018.16 2693.12 2018.16L2672.5 2018.16C2669.65 2018.16 2667.34 2015.85 2667.34 2013 2667.34 2010.15 2669.65 2007.84 2672.5 2007.84ZM2713.75 2007.84 2720.09 2007.84 2734.38 2007.84C2737.22 2007.84 2739.53 2010.15 2739.53 2013 2739.53 2015.85 2737.22 2018.16 2734.38 2018.16L2720.09 2018.16 2713.75 2018.16C2710.9 2018.16 2708.59 2015.85 2708.59 2013 2708.59 2010.15 2710.9 2007.84 2713.75 2007.84ZM2755 2007.84 2775.62 2007.84C2778.47 2007.84 2780.78 2010.15 2780.78 2013 2780.78 2015.85 2778.47 2018.16 2775.62 2018.16L2755 2018.16C2752.15 2018.16 2749.84 2015.85 2749.84 2013 2749.84 2010.15 2752.15 2007.84 2755 2007.84ZM2796.25 2007.84 2816.88 2007.84C2819.72 2007.84 2822.03 2010.15 2822.03 2013 2822.03 2015.85 2819.72 2018.16 2816.88 2018.16L2796.25 2018.16C2793.4 2018.16 2791.09 2015.85 2791.09 2013 2791.09 2010.15 2793.4 2007.84 2796.25 2007.84ZM2837.5 2007.84 2858.12 2007.84C2860.97 2007.84 2863.28 2010.15 2863.28 2013 2863.28 2015.85 2860.97 2018.16 2858.12 2018.16L2837.5 2018.16C2834.65 2018.16 2832.34 2015.85 2832.34 2013 2832.34 2010.15 2834.65 2007.84 2837.5 2007.84ZM2878.75 2007.84 2899.38 2007.84C2902.22 2007.84 2904.53 2010.15 2904.53 2013 2904.53 2015.85 2902.22 2018.16 2899.38 2018.16L2878.75 2018.16C2875.9 2018.16 2873.59 2015.85 2873.59 2013 2873.59 2010.15 2875.9 2007.84 2878.75 2007.84ZM2920 2007.84 2928.1 2007.84 2940.62 2007.84C2943.47 2007.84 2945.78 2010.15 2945.78 2013 2945.78 2015.85 2943.47 2018.16 2940.62 2018.16L2928.1 2018.16 2920 2018.16C2917.15 2018.16 2914.84 2015.85 2914.84 2013 2914.84 2010.15 2917.15 2007.84 2920 2007.84ZM2961.25 2007.84 2981.88 2007.84C2984.72 2007.84 2987.03 2010.15 2987.03 2013 2987.03 2015.85 2984.72 2018.16 2981.88 2018.16L2961.25 2018.16C2958.4 2018.16 2956.09 2015.85 2956.09 2013 2956.09 2010.15 2958.4 2007.84 2961.25 2007.84ZM3002.5 2007.84 3023.12 2007.84C3025.97 2007.84 3028.28 2010.15 3028.28 2013 3028.28 2015.85 3025.97 2018.16 3023.12 2018.16L3002.5 2018.16C2999.65 2018.16 2997.34 2015.85 2997.34 2013 2997.34 2010.15 2999.65 2007.84 3002.5 2007.84ZM3043.75 2007.84 3064.38 2007.84C3067.22 2007.84 3069.53 2010.15 3069.53 2013 3069.53 2015.85 3067.22 2018.16 3064.38 2018.16L3043.75 2018.16C3040.9 2018.16 3038.59 2015.85 3038.59 2013 3038.59 2010.15 3040.9 2007.84 3043.75 2007.84ZM3085 2007.84 3105.62 2007.84C3108.47 2007.84 3110.78 2010.15 3110.78 2013 3110.78 2015.85 3108.47 2018.16 3105.62 2018.16L3085 2018.16C3082.15 2018.16 3079.84 2015.85 3079.84 2013 3079.84 2010.15 3082.15 2007.84 3085 2007.84ZM3126.25 2007.84 3135.1 2007.84 3146.88 2007.84C3149.72 2007.84 3152.03 2010.15 3152.03 2013 3152.03 2015.85 3149.72 2018.16 3146.88 2018.16L3135.1 2018.16 3126.25 2018.16C3123.4 2018.16 3121.09 2015.85 3121.09 2013 3121.09 2010.15 3123.4 2007.84 3126.25 2007.84ZM3167.5 2007.84 3188.12 2007.84C3190.97 2007.84 3193.28 2010.15 3193.28 2013 3193.28 2015.85 3190.97 2018.16 3188.12 2018.16L3167.5 2018.16C3164.65 2018.16 3162.34 2015.85 3162.34 2013 3162.34 2010.15 3164.65 2007.84 3167.5 2007.84ZM3208.75 2007.84 3229.38 2007.84C3232.22 2007.84 3234.53 2010.15 3234.53 2013 3234.53 2015.85 3232.22 2018.16 3229.38 2018.16L3208.75 2018.16C3205.9 2018.16 3203.59 2015.85 3203.59 2013 3203.59 2010.15 3205.9 2007.84 3208.75 2007.84ZM3250 2007.84 3270.62 2007.84C3273.47 2007.84 3275.78 2010.15 3275.78 2013 3275.78 2015.85 3273.47 2018.16 3270.62 2018.16L3250 2018.16C3247.15 2018.16 3244.84 2015.85 3244.84 2013 3244.84 2010.15 3247.15 2007.84 3250 2007.84ZM3291.25 2007.84 3311.88 2007.84C3314.72 2007.84 3317.03 2010.15 3317.03 2013 3317.03 2015.85 3314.72 2018.16 3311.88 2018.16L3291.25 2018.16C3288.4 2018.16 3286.09 2015.85 3286.09 2013 3286.09 2010.15 3288.4 2007.84 3291.25 2007.84ZM3332.5 2007.84 3342.11 2007.84 3353.12 2007.84C3355.97 2007.84 3358.28 2010.15 3358.28 2013 3358.28 2015.85 3355.97 2018.16 3353.12 2018.16L3342.11 2018.16 3332.5 2018.16C3329.65 2018.16 3327.34 2015.85 3327.34 2013 3327.34 2010.15 3329.65 2007.84 3332.5 2007.84ZM3373.75 2007.84 3394.38 2007.84C3397.22 2007.84 3399.53 2010.15 3399.53 2013 3399.53 2015.85 3397.22 2018.16 3394.38 2018.16L3373.75 2018.16C3370.9 2018.16 3368.59 2015.85 3368.59 2013 3368.59 2010.15 3370.9 2007.84 3373.75 2007.84ZM3415 2007.84 3435.62 2007.84C3438.47 2007.84 3440.78 2010.15 3440.78 2013 3440.78 2015.85 3438.47 2018.16 3435.62 2018.16L3415 2018.16C3412.15 2018.16 3409.84 2015.85 3409.84 2013 3409.84 2010.15 3412.15 2007.84 3415 2007.84ZM3456.25 2007.84 3476.88 2007.84C3479.72 2007.84 3482.03 2010.15 3482.03 2013 3482.03 2015.85 3479.72 2018.16 3476.88 2018.16L3456.25 2018.16C3453.4 2018.16 3451.09 2015.85 3451.09 2013 3451.09 2010.15 3453.4 2007.84 3456.25 2007.84ZM3497.5 2007.84 3518.12 2007.84C3520.97 2007.84 3523.28 2010.15 3523.28 2013 3523.28 2015.85 3520.97 2018.16 3518.12 2018.16L3497.5 2018.16C3494.65 2018.16 3492.34 2015.85 3492.34 2013 3492.34 2010.15 3494.65 2007.84 3497.5 2007.84ZM3538.75 2007.84 3549.12 2007.84 3559.38 2007.84C3562.22 2007.84 3564.53 2010.15 3564.53 2013 3564.53 2015.85 3562.22 2018.16 3559.38 2018.16L3549.12 2018.16 3538.75 2018.16C3535.9 2018.16 3533.59 2015.85 3533.59 2013 3533.59 2010.15 3535.9 2007.84 3538.75 2007.84ZM3580 2007.84 3600.62 2007.84C3603.47 2007.84 3605.78 2010.15 3605.78 2013 3605.78 2015.85 3603.47 2018.16 3600.62 2018.16L3580 2018.16C3577.15 2018.16 3574.84 2015.85 3574.84 2013 3574.84 2010.15 3577.15 2007.84 3580 2007.84ZM3621.25 2007.84 3641.88 2007.84C3644.72 2007.84 3647.03 2010.15 3647.03 2013 3647.03 2015.85 3644.72 2018.16 3641.88 2018.16L3621.25 2018.16C3618.4 2018.16 3616.09 2015.85 3616.09 2013 3616.09 2010.15 3618.4 2007.84 3621.25 2007.84ZM3662.5 2007.84 3683.12 2007.84C3685.97 2007.84 3688.28 2010.15 3688.28 2013 3688.28 2015.85 3685.97 2018.16 3683.12 2018.16L3662.5 2018.16C3659.65 2018.16 3657.34 2015.85 3657.34 2013 3657.34 2010.15 3659.65 2007.84 3662.5 2007.84ZM3703.75 2007.84 3724.38 2007.84C3727.22 2007.84 3729.53 2010.15 3729.53 2013 3729.53 2015.85 3727.22 2018.16 3724.38 2018.16L3703.75 2018.16C3700.9 2018.16 3698.59 2015.85 3698.59 2013 3698.59 2010.15 3700.9 2007.84 3703.75 2007.84ZM3745 2007.84 3756.12 2007.84 3765.62 2007.84C3768.47 2007.84 3770.78 2010.15 3770.78 2013 3770.78 2015.85 3768.47 2018.16 3765.62 2018.16L3756.12 2018.16 3745 2018.16C3742.15 2018.16 3739.84 2015.85 3739.84 2013 3739.84 2010.15 3742.15 2007.84 3745 2007.84ZM3786.25 2007.84 3806.88 2007.84C3809.72 2007.84 3812.03 2010.15 3812.03 2013 3812.03 2015.85 3809.72 2018.16 3806.88 2018.16L3786.25 2018.16C3783.4 2018.16 3781.09 2015.85 3781.09 2013 3781.09 2010.15 3783.4 2007.84 3786.25 2007.84ZM3827.5 2007.84 3848.12 2007.84C3850.97 2007.84 3853.28 2010.15 3853.28 2013 3853.28 2015.85 3850.97 2018.16 3848.12 2018.16L3827.5 2018.16C3824.65 2018.16 3822.34 2015.85 3822.34 2013 3822.34 2010.15 3824.65 2007.84 3827.5 2007.84ZM3868.75 2007.84 3889.38 2007.84C3892.22 2007.84 3894.53 2010.15 3894.53 2013 3894.53 2015.85 3892.22 2018.16 3889.38 2018.16L3868.75 2018.16C3865.9 2018.16 3863.59 2015.85 3863.59 2013 3863.59 2010.15 3865.9 2007.84 3868.75 2007.84ZM3910 2007.84 3930.62 2007.84C3933.47 2007.84 3935.78 2010.15 3935.78 2013 3935.78 2015.85 3933.47 2018.16 3930.62 2018.16L3910 2018.16C3907.15 2018.16 3904.84 2015.85 3904.84 2013 3904.84 2010.15 3907.15 2007.84 3910 2007.84ZM3951.25 2007.84 3964.13 2007.84 3971.88 2007.84C3974.72 2007.84 3977.03 2010.15 3977.03 2013 3977.03 2015.85 3974.72 2018.16 3971.88 2018.16L3964.13 2018.16 3951.25 2018.16C3948.4 2018.16 3946.09 2015.85 3946.09 2013 3946.09 2010.15 3948.4 2007.84 3951.25 2007.84ZM3992.5 2007.84 4013.12 2007.84C4015.97 2007.84 4018.28 2010.15 4018.28 2013 4018.28 2015.85 4015.97 2018.16 4013.12 2018.16L3992.5 2018.16C3989.65 2018.16 3987.34 2015.85 3987.34 2013 3987.34 2010.15 3989.65 2007.84 3992.5 2007.84ZM4033.75 2007.84 4054.38 2007.84C4057.22 2007.84 4059.53 2010.15 4059.53 2013 4059.53 2015.85 4057.22 2018.16 4054.38 2018.16L4033.75 2018.16C4030.9 2018.16 4028.59 2015.85 4028.59 2013 4028.59 2010.15 4030.9 2007.84 4033.75 2007.84ZM4075 2007.84 4095.62 2007.84C4098.47 2007.84 4100.78 2010.15 4100.78 2013 4100.78 2015.85 4098.47 2018.16 4095.62 2018.16L4075 2018.16C4072.15 2018.16 4069.84 2015.85 4069.84 2013 4069.84 2010.15 4072.15 2007.84 4075 2007.84ZM4116.25 2007.84 4136.88 2007.84C4139.72 2007.84 4142.03 2010.15 4142.03 2013 4142.03 2015.85 4139.72 2018.16 4136.88 2018.16L4116.25 2018.16C4113.4 2018.16 4111.09 2015.85 4111.09 2013 4111.09 2010.15 4113.4 2007.84 4116.25 2007.84ZM4157.5 2007.84 4171.14 2007.84 4178.12 2007.84C4180.97 2007.84 4183.28 2010.15 4183.28 2013 4183.28 2015.85 4180.97 2018.16 4178.12 2018.16L4171.14 2018.16 4157.5 2018.16C4154.65 2018.16 4152.34 2015.85 4152.34 2013 4152.34 2010.15 4154.65 2007.84 4157.5 2007.84ZM4198.75 2007.84 4219.38 2007.84C4222.22 2007.84 4224.53 2010.15 4224.53 2013 4224.53 2015.85 4222.22 2018.16 4219.38 2018.16L4198.75 2018.16C4195.9 2018.16 4193.59 2015.85 4193.59 2013 4193.59 2010.15 4195.9 2007.84 4198.75 2007.84ZM4240 2007.84 4260.62 2007.84C4263.47 2007.84 4265.78 2010.15 4265.78 2013 4265.78 2015.85 4263.47 2018.16 4260.62 2018.16L4240 2018.16C4237.15 2018.16 4234.84 2015.85 4234.84 2013 4234.84 2010.15 4237.15 2007.84 4240 2007.84ZM4281.25 2007.84 4301.88 2007.84C4304.72 2007.84 4307.03 2010.15 4307.03 2013 4307.03 2015.85 4304.72 2018.16 4301.88 2018.16L4281.25 2018.16C4278.4 2018.16 4276.09 2015.85 4276.09 2013 4276.09 2010.15 4278.4 2007.84 4281.25 2007.84ZM4322.5 2007.84 4343.12 2007.84C4345.97 2007.84 4348.28 2010.15 4348.28 2013 4348.28 2015.85 4345.97 2018.16 4343.12 2018.16L4322.5 2018.16C4319.65 2018.16 4317.34 2015.85 4317.34 2013 4317.34 2010.15 4319.65 2007.84 4322.5 2007.84ZM4363.75 2007.84 4378.14 2007.84 4384.38 2007.84C4387.22 2007.84 4389.53 2010.15 4389.53 2013 4389.53 2015.85 4387.22 2018.16 4384.38 2018.16L4378.14 2018.16 4363.75 2018.16C4360.9 2018.16 4358.59 2015.85 4358.59 2013 4358.59 2010.15 4360.9 2007.84 4363.75 2007.84ZM4405 2007.84 4425.62 2007.84C4428.47 2007.84 4430.78 2010.15 4430.78 2013 4430.78 2015.85 4428.47 2018.16 4425.62 2018.16L4405 2018.16C4402.15 2018.16 4399.84 2015.85 4399.84 2013 4399.84 2010.15 4402.15 2007.84 4405 2007.84ZM4446.25 2007.84 4466.88 2007.84C4469.72 2007.84 4472.03 2010.15 4472.03 2013 4472.03 2015.85 4469.72 2018.16 4466.88 2018.16L4446.25 2018.16C4443.4 2018.16 4441.09 2015.85 4441.09 2013 4441.09 2010.15 4443.4 2007.84 4446.25 2007.84ZM4487.5 2007.84 4508.12 2007.84C4510.97 2007.84 4513.28 2010.15 4513.28 2013 4513.28 2015.85 4510.97 2018.16 4508.12 2018.16L4487.5 2018.16C4484.65 2018.16 4482.34 2015.85 4482.34 2013 4482.34 2010.15 4484.65 2007.84 4487.5 2007.84ZM4528.75 2007.84 4549.38 2007.84C4552.22 2007.84 4554.53 2010.15 4554.53 2013 4554.53 2015.85 4552.22 2018.16 4549.38 2018.16L4528.75 2018.16C4525.9 2018.16 4523.59 2015.85 4523.59 2013 4523.59 2010.15 4525.9 2007.84 4528.75 2007.84ZM4570 2007.84 4585 2007.84C4587.85 2007.84 4590.16 2010.15 4590.16 2013 4590.16 2015.85 4587.85 2018.16 4585 2018.16L4570 2018.16C4567.15 2018.16 4564.84 2015.85 4564.84 2013 4564.84 2010.15 4567.15 2007.84 4570 2007.84Z" fill="#FF0000" fill-rule="nonzero" fill-opacity="1"/></g><g clip-path="url(#clip3)"><path d="M1270 1482.84 1290.63 1482.84C1293.47 1482.84 1295.78 1485.15 1295.78 1488 1295.78 1490.85 1293.47 1493.16 1290.63 1493.16L1270 1493.16C1267.15 1493.16 1264.84 1490.85 1264.84 1488 1264.84 1485.15 1267.15 1482.84 1270 1482.84ZM1311.25 1482.84 1331.88 1482.84C1334.72 1482.84 1337.03 1485.15 1337.03 1488 1337.03 1490.85 1334.72 1493.16 1331.88 1493.16L1311.25 1493.16C1308.4 1493.16 1306.09 1490.85 1306.09 1488 1306.09 1485.15 1308.4 1482.84 1311.25 1482.84ZM1352.5 1482.84 1373.13 1482.84C1375.97 1482.84 1378.28 1485.15 1378.28 1488 1378.28 1490.85 1375.97 1493.16 1373.13 1493.16L1352.5 1493.16C1349.65 1493.16 1347.34 1490.85 1347.34 1488 1347.34 1485.15 1349.65 1482.84 1352.5 1482.84ZM1393.75 1482.84 1414.38 1482.84C1417.22 1482.84 1419.53 1485.15 1419.53 1488 1419.53 1490.85 1417.22 1493.16 1414.38 1493.16L1393.75 1493.16C1390.9 1493.16 1388.59 1490.85 1388.59 1488 1388.59 1485.15 1390.9 1482.84 1393.75 1482.84ZM1435 1482.84 1455.63 1482.84C1458.47 1482.84 1460.78 1485.15 1460.78 1488 1460.78 1490.85 1458.47 1493.16 1455.63 1493.16L1435 1493.16C1432.15 1493.16 1429.84 1490.85 1429.84 1488 1429.84 1485.15 1432.15 1482.84 1435 1482.84ZM1476.25 1482.84 1477.05 1482.84 1496.88 1482.84C1499.72 1482.84 1502.03 1485.15 1502.03 1488 1502.03 1490.85 1499.72 1493.16 1496.88 1493.16L1477.05 1493.16 1476.25 1493.16C1473.4 1493.16 1471.09 1490.85 1471.09 1488 1471.09 1485.15 1473.4 1482.84 1476.25 1482.84ZM1517.5 1482.84 1538.13 1482.84C1540.97 1482.84 1543.28 1485.15 1543.28 1488 1543.28 1490.85 1540.97 1493.16 1538.13 1493.16L1517.5 1493.16C1514.65 1493.16 1512.34 1490.85 1512.34 1488 1512.34 1485.15 1514.65 1482.84 1517.5 1482.84ZM1558.75 1482.84 1579.38 1482.84C1582.22 1482.84 1584.53 1485.15 1584.53 1488 1584.53 1490.85 1582.22 1493.16 1579.38 1493.16L1558.75 1493.16C1555.9 1493.16 1553.59 1490.85 1553.59 1488 1553.59 1485.15 1555.9 1482.84 1558.75 1482.84ZM1600 1482.84 1620.63 1482.84C1623.47 1482.84 1625.78 1485.15 1625.78 1488 1625.78 1490.85 1623.47 1493.16 1620.63 1493.16L1600 1493.16C1597.15 1493.16 1594.84 1490.85 1594.84 1488 1594.84 1485.15 1597.15 1482.84 1600 1482.84ZM1641.25 1482.84 1661.88 1482.84C1664.72 1482.84 1667.03 1485.15 1667.03 1488 1667.03 1490.85 1664.72 1493.16 1661.88 1493.16L1641.25 1493.16C1638.4 1493.16 1636.09 1490.85 1636.09 1488 1636.09 1485.15 1638.4 1482.84 1641.25 1482.84ZM1682.5 1482.84 1685.06 1482.84 1703.13 1482.84C1705.97 1482.84 1708.28 1485.15 1708.28 1488 1708.28 1490.85 1705.97 1493.16 1703.13 1493.16L1685.06 1493.16 1682.5 1493.16C1679.65 1493.16 1677.34 1490.85 1677.34 1488 1677.34 1485.15 1679.65 1482.84 1682.5 1482.84ZM1723.75 1482.84 1744.38 1482.84C1747.22 1482.84 1749.53 1485.15 1749.53 1488 1749.53 1490.85 1747.22 1493.16 1744.38 1493.16L1723.75 1493.16C1720.9 1493.16 1718.59 1490.85 1718.59 1488 1718.59 1485.15 1720.9 1482.84 1723.75 1482.84ZM1765 1482.84 1785.63 1482.84C1788.47 1482.84 1790.78 1485.15 1790.78 1488 1790.78 1490.85 1788.47 1493.16 1785.63 1493.16L1765 1493.16C1762.15 1493.16 1759.84 1490.85 1759.84 1488 1759.84 1485.15 1762.15 1482.84 1765 1482.84ZM1806.25 1482.84 1826.88 1482.84C1829.72 1482.84 1832.03 1485.15 1832.03 1488 1832.03 1490.85 1829.72 1493.16 1826.88 1493.16L1806.25 1493.16C1803.4 1493.16 1801.09 1490.85 1801.09 1488 1801.09 1485.15 1803.4 1482.84 1806.25 1482.84ZM1847.5 1482.84 1868.13 1482.84C1870.97 1482.84 1873.28 1485.15 1873.28 1488 1873.28 1490.85 1870.97 1493.16 1868.13 1493.16L1847.5 1493.16C1844.65 1493.16 1842.34 1490.85 1842.34 1488 1842.34 1485.15 1844.65 1482.84 1847.5 1482.84ZM1888.75 1482.84 1892.06 1482.84 1909.38 1482.84C1912.22 1482.84 1914.53 1485.15 1914.53 1488 1914.53 1490.85 1912.22 1493.16 1909.38 1493.16L1892.06 1493.16 1888.75 1493.16C1885.9 1493.16 1883.59 1490.85 1883.59 1488 1883.59 1485.15 1885.9 1482.84 1888.75 1482.84ZM1930 1482.84 1950.63 1482.84C1953.47 1482.84 1955.78 1485.15 1955.78 1488 1955.78 1490.85 1953.47 1493.16 1950.63 1493.16L1930 1493.16C1927.15 1493.16 1924.84 1490.85 1924.84 1488 1924.84 1485.15 1927.15 1482.84 1930 1482.84ZM1971.25 1482.84 1991.88 1482.84C1994.72 1482.84 1997.03 1485.15 1997.03 1488 1997.03 1490.85 1994.72 1493.16 1991.88 1493.16L1971.25 1493.16C1968.4 1493.16 1966.09 1490.85 1966.09 1488 1966.09 1485.15 1968.4 1482.84 1971.25 1482.84ZM2012.5 1482.84 2033.13 1482.84C2035.97 1482.84 2038.28 1485.15 2038.28 1488 2038.28 1490.85 2035.97 1493.16 2033.13 1493.16L2012.5 1493.16C2009.65 1493.16 2007.34 1490.85 2007.34 1488 2007.34 1485.15 2009.65 1482.84 2012.5 1482.84ZM2053.75 1482.84 2074.38 1482.84C2077.22 1482.84 2079.53 1485.15 2079.53 1488 2079.53 1490.85 2077.22 1493.16 2074.38 1493.16L2053.75 1493.16C2050.9 1493.16 2048.59 1490.85 2048.59 1488 2048.59 1485.15 2050.9 1482.84 2053.75 1482.84ZM2095 1482.84 2099.07 1482.84 2115.62 1482.84C2118.47 1482.84 2120.78 1485.15 2120.78 1488 2120.78 1490.85 2118.47 1493.16 2115.62 1493.16L2099.07 1493.16 2095 1493.16C2092.15 1493.16 2089.84 1490.85 2089.84 1488 2089.84 1485.15 2092.15 1482.84 2095 1482.84ZM2136.25 1482.84 2156.88 1482.84C2159.72 1482.84 2162.03 1485.15 2162.03 1488 2162.03 1490.85 2159.72 1493.16 2156.88 1493.16L2136.25 1493.16C2133.4 1493.16 2131.09 1490.85 2131.09 1488 2131.09 1485.15 2133.4 1482.84 2136.25 1482.84ZM2177.5 1482.84 2198.12 1482.84C2200.97 1482.84 2203.28 1485.15 2203.28 1488 2203.28 1490.85 2200.97 1493.16 2198.12 1493.16L2177.5 1493.16C2174.65 1493.16 2172.34 1490.85 2172.34 1488 2172.34 1485.15 2174.65 1482.84 2177.5 1482.84ZM2218.75 1482.84 2239.38 1482.84C2242.22 1482.84 2244.53 1485.15 2244.53 1488 2244.53 1490.85 2242.22 1493.16 2239.38 1493.16L2218.75 1493.16C2215.9 1493.16 2213.59 1490.85 2213.59 1488 2213.59 1485.15 2215.9 1482.84 2218.75 1482.84ZM2260 1482.84 2280.62 1482.84C2283.47 1482.84 2285.78 1485.15 2285.78 1488 2285.78 1490.85 2283.47 1493.16 2280.62 1493.16L2260 1493.16C2257.15 1493.16 2254.84 1490.85 2254.84 1488 2254.84 1485.15 2257.15 1482.84 2260 1482.84ZM2301.25 1482.84 2306.08 1482.84 2321.88 1482.84C2324.72 1482.84 2327.03 1485.15 2327.03 1488 2327.03 1490.85 2324.72 1493.16 2321.88 1493.16L2306.08 1493.16 2301.25 1493.16C2298.4 1493.16 2296.09 1490.85 2296.09 1488 2296.09 1485.15 2298.4 1482.84 2301.25 1482.84ZM2342.5 1482.84 2363.12 1482.84C2365.97 1482.84 2368.28 1485.15 2368.28 1488 2368.28 1490.85 2365.97 1493.16 2363.12 1493.16L2342.5 1493.16C2339.65 1493.16 2337.34 1490.85 2337.34 1488 2337.34 1485.15 2339.65 1482.84 2342.5 1482.84ZM2383.75 1482.84 2404.38 1482.84C2407.22 1482.84 2409.53 1485.15 2409.53 1488 2409.53 1490.85 2407.22 1493.16 2404.38 1493.16L2383.75 1493.16C2380.9 1493.16 2378.59 1490.85 2378.59 1488 2378.59 1485.15 2380.9 1482.84 2383.75 1482.84ZM2425 1482.84 2445.62 1482.84C2448.47 1482.84 2450.78 1485.15 2450.78 1488 2450.78 1490.85 2448.47 1493.16 2445.62 1493.16L2425 1493.16C2422.15 1493.16 2419.84 1490.85 2419.84 1488 2419.84 1485.15 2422.15 1482.84 2425 1482.84ZM2466.25 1482.84 2486.88 1482.84C2489.72 1482.84 2492.03 1485.15 2492.03 1488 2492.03 1490.85 2489.72 1493.16 2486.88 1493.16L2466.25 1493.16C2463.4 1493.16 2461.09 1490.85 2461.09 1488 2461.09 1485.15 2463.4 1482.84 2466.25 1482.84ZM2507.5 1482.84 2513.08 1482.84 2528.12 1482.84C2530.97 1482.84 2533.28 1485.15 2533.28 1488 2533.28 1490.85 2530.97 1493.16 2528.12 1493.16L2513.08 1493.16 2507.5 1493.16C2504.65 1493.16 2502.34 1490.85 2502.34 1488 2502.34 1485.15 2504.65 1482.84 2507.5 1482.84ZM2548.75 1482.84 2569.38 1482.84C2572.22 1482.84 2574.53 1485.15 2574.53 1488 2574.53 1490.85 2572.22 1493.16 2569.38 1493.16L2548.75 1493.16C2545.9 1493.16 2543.59 1490.85 2543.59 1488 2543.59 1485.15 2545.9 1482.84 2548.75 1482.84ZM2590 1482.84 2610.62 1482.84C2613.47 1482.84 2615.78 1485.15 2615.78 1488 2615.78 1490.85 2613.47 1493.16 2610.62 1493.16L2590 1493.16C2587.15 1493.16 2584.84 1490.85 2584.84 1488 2584.84 1485.15 2587.15 1482.84 2590 1482.84ZM2631.25 1482.84 2651.88 1482.84C2654.72 1482.84 2657.03 1485.15 2657.03 1488 2657.03 1490.85 2654.72 1493.16 2651.88 1493.16L2631.25 1493.16C2628.4 1493.16 2626.09 1490.85 2626.09 1488 2626.09 1485.15 2628.4 1482.84 2631.25 1482.84ZM2672.5 1482.84 2693.12 1482.84C2695.97 1482.84 2698.28 1485.15 2698.28 1488 2698.28 1490.85 2695.97 1493.16 2693.12 1493.16L2672.5 1493.16C2669.65 1493.16 2667.34 1490.85 2667.34 1488 2667.34 1485.15 2669.65 1482.84 2672.5 1482.84ZM2713.75 1482.84 2720.09 1482.84 2734.38 1482.84C2737.22 1482.84 2739.53 1485.15 2739.53 1488 2739.53 1490.85 2737.22 1493.16 2734.38 1493.16L2720.09 1493.16 2713.75 1493.16C2710.9 1493.16 2708.59 1490.85 2708.59 1488 2708.59 1485.15 2710.9 1482.84 2713.75 1482.84ZM2755 1482.84 2775.62 1482.84C2778.47 1482.84 2780.78 1485.15 2780.78 1488 2780.78 1490.85 2778.47 1493.16 2775.62 1493.16L2755 1493.16C2752.15 1493.16 2749.84 1490.85 2749.84 1488 2749.84 1485.15 2752.15 1482.84 2755 1482.84ZM2796.25 1482.84 2816.88 1482.84C2819.72 1482.84 2822.03 1485.15 2822.03 1488 2822.03 1490.85 2819.72 1493.16 2816.88 1493.16L2796.25 1493.16C2793.4 1493.16 2791.09 1490.85 2791.09 1488 2791.09 1485.15 2793.4 1482.84 2796.25 1482.84ZM2837.5 1482.84 2858.12 1482.84C2860.97 1482.84 2863.28 1485.15 2863.28 1488 2863.28 1490.85 2860.97 1493.16 2858.12 1493.16L2837.5 1493.16C2834.65 1493.16 2832.34 1490.85 2832.34 1488 2832.34 1485.15 2834.65 1482.84 2837.5 1482.84ZM2878.75 1482.84 2899.38 1482.84C2902.22 1482.84 2904.53 1485.15 2904.53 1488 2904.53 1490.85 2902.22 1493.16 2899.38 1493.16L2878.75 1493.16C2875.9 1493.16 2873.59 1490.85 2873.59 1488 2873.59 1485.15 2875.9 1482.84 2878.75 1482.84ZM2920 1482.84 2928.1 1482.84 2940.62 1482.84C2943.47 1482.84 2945.78 1485.15 2945.78 1488 2945.78 1490.85 2943.47 1493.16 2940.62 1493.16L2928.1 1493.16 2920 1493.16C2917.15 1493.16 2914.84 1490.85 2914.84 1488 2914.84 1485.15 2917.15 1482.84 2920 1482.84ZM2961.25 1482.84 2981.88 1482.84C2984.72 1482.84 2987.03 1485.15 2987.03 1488 2987.03 1490.85 2984.72 1493.16 2981.88 1493.16L2961.25 1493.16C2958.4 1493.16 2956.09 1490.85 2956.09 1488 2956.09 1485.15 2958.4 1482.84 2961.25 1482.84ZM3002.5 1482.84 3023.12 1482.84C3025.97 1482.84 3028.28 1485.15 3028.28 1488 3028.28 1490.85 3025.97 1493.16 3023.12 1493.16L3002.5 1493.16C2999.65 1493.16 2997.34 1490.85 2997.34 1488 2997.34 1485.15 2999.65 1482.84 3002.5 1482.84ZM3043.75 1482.84 3064.38 1482.84C3067.22 1482.84 3069.53 1485.15 3069.53 1488 3069.53 1490.85 3067.22 1493.16 3064.38 1493.16L3043.75 1493.16C3040.9 1493.16 3038.59 1490.85 3038.59 1488 3038.59 1485.15 3040.9 1482.84 3043.75 1482.84ZM3085 1482.84 3105.62 1482.84C3108.47 1482.84 3110.78 1485.15 3110.78 1488 3110.78 1490.85 3108.47 1493.16 3105.62 1493.16L3085 1493.16C3082.15 1493.16 3079.84 1490.85 3079.84 1488 3079.84 1485.15 3082.15 1482.84 3085 1482.84ZM3126.25 1482.84 3135.1 1482.84 3146.88 1482.84C3149.72 1482.84 3152.03 1485.15 3152.03 1488 3152.03 1490.85 3149.72 1493.16 3146.88 1493.16L3135.1 1493.16 3126.25 1493.16C3123.4 1493.16 3121.09 1490.85 3121.09 1488 3121.09 1485.15 3123.4 1482.84 3126.25 1482.84ZM3167.5 1482.84 3188.12 1482.84C3190.97 1482.84 3193.28 1485.15 3193.28 1488 3193.28 1490.85 3190.97 1493.16 3188.12 1493.16L3167.5 1493.16C3164.65 1493.16 3162.34 1490.85 3162.34 1488 3162.34 1485.15 3164.65 1482.84 3167.5 1482.84ZM3208.75 1482.84 3229.38 1482.84C3232.22 1482.84 3234.53 1485.15 3234.53 1488 3234.53 1490.85 3232.22 1493.16 3229.38 1493.16L3208.75 1493.16C3205.9 1493.16 3203.59 1490.85 3203.59 1488 3203.59 1485.15 3205.9 1482.84 3208.75 1482.84ZM3250 1482.84 3270.62 1482.84C3273.47 1482.84 3275.78 1485.15 3275.78 1488 3275.78 1490.85 3273.47 1493.16 3270.62 1493.16L3250 1493.16C3247.15 1493.16 3244.84 1490.85 3244.84 1488 3244.84 1485.15 3247.15 1482.84 3250 1482.84ZM3291.25 1482.84 3311.88 1482.84C3314.72 1482.84 3317.03 1485.15 3317.03 1488 3317.03 1490.85 3314.72 1493.16 3311.88 1493.16L3291.25 1493.16C3288.4 1493.16 3286.09 1490.85 3286.09 1488 3286.09 1485.15 3288.4 1482.84 3291.25 1482.84ZM3332.5 1482.84 3342.11 1482.84 3353.12 1482.84C3355.97 1482.84 3358.28 1485.15 3358.28 1488 3358.28 1490.85 3355.97 1493.16 3353.12 1493.16L3342.11 1493.16 3332.5 1493.16C3329.65 1493.16 3327.34 1490.85 3327.34 1488 3327.34 1485.15 3329.65 1482.84 3332.5 1482.84ZM3373.75 1482.84 3394.38 1482.84C3397.22 1482.84 3399.53 1485.15 3399.53 1488 3399.53 1490.85 3397.22 1493.16 3394.38 1493.16L3373.75 1493.16C3370.9 1493.16 3368.59 1490.85 3368.59 1488 3368.59 1485.15 3370.9 1482.84 3373.75 1482.84ZM3415 1482.84 3435.62 1482.84C3438.47 1482.84 3440.78 1485.15 3440.78 1488 3440.78 1490.85 3438.47 1493.16 3435.62 1493.16L3415 1493.16C3412.15 1493.16 3409.84 1490.85 3409.84 1488 3409.84 1485.15 3412.15 1482.84 3415 1482.84ZM3456.25 1482.84 3476.88 1482.84C3479.72 1482.84 3482.03 1485.15 3482.03 1488 3482.03 1490.85 3479.72 1493.16 3476.88 1493.16L3456.25 1493.16C3453.4 1493.16 3451.09 1490.85 3451.09 1488 3451.09 1485.15 3453.4 1482.84 3456.25 1482.84ZM3497.5 1482.84 3518.12 1482.84C3520.97 1482.84 3523.28 1485.15 3523.28 1488 3523.28 1490.85 3520.97 1493.16 3518.12 1493.16L3497.5 1493.16C3494.65 1493.16 3492.34 1490.85 3492.34 1488 3492.34 1485.15 3494.65 1482.84 3497.5 1482.84ZM3538.75 1482.84 3549.12 1482.84 3559.38 1482.84C3562.22 1482.84 3564.53 1485.15 3564.53 1488 3564.53 1490.85 3562.22 1493.16 3559.38 1493.16L3549.12 1493.16 3538.75 1493.16C3535.9 1493.16 3533.59 1490.85 3533.59 1488 3533.59 1485.15 3535.9 1482.84 3538.75 1482.84ZM3580 1482.84 3600.62 1482.84C3603.47 1482.84 3605.78 1485.15 3605.78 1488 3605.78 1490.85 3603.47 1493.16 3600.62 1493.16L3580 1493.16C3577.15 1493.16 3574.84 1490.85 3574.84 1488 3574.84 1485.15 3577.15 1482.84 3580 1482.84ZM3621.25 1482.84 3641.88 1482.84C3644.72 1482.84 3647.03 1485.15 3647.03 1488 3647.03 1490.85 3644.72 1493.16 3641.88 1493.16L3621.25 1493.16C3618.4 1493.16 3616.09 1490.85 3616.09 1488 3616.09 1485.15 3618.4 1482.84 3621.25 1482.84ZM3662.5 1482.84 3683.12 1482.84C3685.97 1482.84 3688.28 1485.15 3688.28 1488 3688.28 1490.85 3685.97 1493.16 3683.12 1493.16L3662.5 1493.16C3659.65 1493.16 3657.34 1490.85 3657.34 1488 3657.34 1485.15 3659.65 1482.84 3662.5 1482.84ZM3703.75 1482.84 3724.38 1482.84C3727.22 1482.84 3729.53 1485.15 3729.53 1488 3729.53 1490.85 3727.22 1493.16 3724.38 1493.16L3703.75 1493.16C3700.9 1493.16 3698.59 1490.85 3698.59 1488 3698.59 1485.15 3700.9 1482.84 3703.75 1482.84ZM3745 1482.84 3756.12 1482.84 3765.62 1482.84C3768.47 1482.84 3770.78 1485.15 3770.78 1488 3770.78 1490.85 3768.47 1493.16 3765.62 1493.16L3756.12 1493.16 3745 1493.16C3742.15 1493.16 3739.84 1490.85 3739.84 1488 3739.84 1485.15 3742.15 1482.84 3745 1482.84ZM3786.25 1482.84 3806.88 1482.84C3809.72 1482.84 3812.03 1485.15 3812.03 1488 3812.03 1490.85 3809.72 1493.16 3806.88 1493.16L3786.25 1493.16C3783.4 1493.16 3781.09 1490.85 3781.09 1488 3781.09 1485.15 3783.4 1482.84 3786.25 1482.84ZM3827.5 1482.84 3848.12 1482.84C3850.97 1482.84 3853.28 1485.15 3853.28 1488 3853.28 1490.85 3850.97 1493.16 3848.12 1493.16L3827.5 1493.16C3824.65 1493.16 3822.34 1490.85 3822.34 1488 3822.34 1485.15 3824.65 1482.84 3827.5 1482.84ZM3868.75 1482.84 3889.38 1482.84C3892.22 1482.84 3894.53 1485.15 3894.53 1488 3894.53 1490.85 3892.22 1493.16 3889.38 1493.16L3868.75 1493.16C3865.9 1493.16 3863.59 1490.85 3863.59 1488 3863.59 1485.15 3865.9 1482.84 3868.75 1482.84ZM3910 1482.84 3930.62 1482.84C3933.47 1482.84 3935.78 1485.15 3935.78 1488 3935.78 1490.85 3933.47 1493.16 3930.62 1493.16L3910 1493.16C3907.15 1493.16 3904.84 1490.85 3904.84 1488 3904.84 1485.15 3907.15 1482.84 3910 1482.84ZM3951.25 1482.84 3964.13 1482.84 3971.88 1482.84C3974.72 1482.84 3977.03 1485.15 3977.03 1488 3977.03 1490.85 3974.72 1493.16 3971.88 1493.16L3964.13 1493.16 3951.25 1493.16C3948.4 1493.16 3946.09 1490.85 3946.09 1488 3946.09 1485.15 3948.4 1482.84 3951.25 1482.84ZM3992.5 1482.84 4013.12 1482.84C4015.97 1482.84 4018.28 1485.15 4018.28 1488 4018.28 1490.85 4015.97 1493.16 4013.12 1493.16L3992.5 1493.16C3989.65 1493.16 3987.34 1490.85 3987.34 1488 3987.34 1485.15 3989.65 1482.84 3992.5 1482.84ZM4033.75 1482.84 4054.38 1482.84C4057.22 1482.84 4059.53 1485.15 4059.53 1488 4059.53 1490.85 4057.22 1493.16 4054.38 1493.16L4033.75 1493.16C4030.9 1493.16 4028.59 1490.85 4028.59 1488 4028.59 1485.15 4030.9 1482.84 4033.75 1482.84ZM4075 1482.84 4095.62 1482.84C4098.47 1482.84 4100.78 1485.15 4100.78 1488 4100.78 1490.85 4098.47 1493.16 4095.62 1493.16L4075 1493.16C4072.15 1493.16 4069.84 1490.85 4069.84 1488 4069.84 1485.15 4072.15 1482.84 4075 1482.84ZM4116.25 1482.84 4136.88 1482.84C4139.72 1482.84 4142.03 1485.15 4142.03 1488 4142.03 1490.85 4139.72 1493.16 4136.88 1493.16L4116.25 1493.16C4113.4 1493.16 4111.09 1490.85 4111.09 1488 4111.09 1485.15 4113.4 1482.84 4116.25 1482.84ZM4157.5 1482.84 4171.14 1482.84 4178.12 1482.84C4180.97 1482.84 4183.28 1485.15 4183.28 1488 4183.28 1490.85 4180.97 1493.16 4178.12 1493.16L4171.14 1493.16 4157.5 1493.16C4154.65 1493.16 4152.34 1490.85 4152.34 1488 4152.34 1485.15 4154.65 1482.84 4157.5 1482.84ZM4198.75 1482.84 4219.38 1482.84C4222.22 1482.84 4224.53 1485.15 4224.53 1488 4224.53 1490.85 4222.22 1493.16 4219.38 1493.16L4198.75 1493.16C4195.9 1493.16 4193.59 1490.85 4193.59 1488 4193.59 1485.15 4195.9 1482.84 4198.75 1482.84ZM4240 1482.84 4260.62 1482.84C4263.47 1482.84 4265.78 1485.15 4265.78 1488 4265.78 1490.85 4263.47 1493.16 4260.62 1493.16L4240 1493.16C4237.15 1493.16 4234.84 1490.85 4234.84 1488 4234.84 1485.15 4237.15 1482.84 4240 1482.84ZM4281.25 1482.84 4301.88 1482.84C4304.72 1482.84 4307.03 1485.15 4307.03 1488 4307.03 1490.85 4304.72 1493.16 4301.88 1493.16L4281.25 1493.16C4278.4 1493.16 4276.09 1490.85 4276.09 1488 4276.09 1485.15 4278.4 1482.84 4281.25 1482.84ZM4322.5 1482.84 4343.12 1482.84C4345.97 1482.84 4348.28 1485.15 4348.28 1488 4348.28 1490.85 4345.97 1493.16 4343.12 1493.16L4322.5 1493.16C4319.65 1493.16 4317.34 1490.85 4317.34 1488 4317.34 1485.15 4319.65 1482.84 4322.5 1482.84ZM4363.75 1482.84 4378.14 1482.84 4384.38 1482.84C4387.22 1482.84 4389.53 1485.15 4389.53 1488 4389.53 1490.85 4387.22 1493.16 4384.38 1493.16L4378.14 1493.16 4363.75 1493.16C4360.9 1493.16 4358.59 1490.85 4358.59 1488 4358.59 1485.15 4360.9 1482.84 4363.75 1482.84ZM4405 1482.84 4425.62 1482.84C4428.47 1482.84 4430.78 1485.15 4430.78 1488 4430.78 1490.85 4428.47 1493.16 4425.62 1493.16L4405 1493.16C4402.15 1493.16 4399.84 1490.85 4399.84 1488 4399.84 1485.15 4402.15 1482.84 4405 1482.84ZM4446.25 1482.84 4466.88 1482.84C4469.72 1482.84 4472.03 1485.15 4472.03 1488 4472.03 1490.85 4469.72 1493.16 4466.88 1493.16L4446.25 1493.16C4443.4 1493.16 4441.09 1490.85 4441.09 1488 4441.09 1485.15 4443.4 1482.84 4446.25 1482.84ZM4487.5 1482.84 4508.12 1482.84C4510.97 1482.84 4513.28 1485.15 4513.28 1488 4513.28 1490.85 4510.97 1493.16 4508.12 1493.16L4487.5 1493.16C4484.65 1493.16 4482.34 1490.85 4482.34 1488 4482.34 1485.15 4484.65 1482.84 4487.5 1482.84ZM4528.75 1482.84 4549.38 1482.84C4552.22 1482.84 4554.53 1485.15 4554.53 1488 4554.53 1490.85 4552.22 1493.16 4549.38 1493.16L4528.75 1493.16C4525.9 1493.16 4523.59 1490.85 4523.59 1488 4523.59 1485.15 4525.9 1482.84 4528.75 1482.84ZM4570 1482.84 4585 1482.84C4587.85 1482.84 4590.16 1485.15 4590.16 1488 4590.16 1490.85 4587.85 1493.16 4585 1493.16L4570 1493.16C4567.15 1493.16 4564.84 1490.85 4564.84 1488 4564.84 1485.15 4567.15 1482.84 4570 1482.84Z" fill="#00B050" fill-rule="nonzero" fill-opacity="1"/></g><g><text fill="#595959" fill-opacity="1" font-family="Calibri,Calibri_MSFontService,sans-serif" font-style="normal" font-variant="normal" font-weight="400" font-stretch="normal" font-size="41" text-anchor="start" direction="ltr" writing-mode="lr-tb" unicode-bidi="normal" text-decoration="none" transform="matrix(1 0 0 1 1055.38 2897)">60.0</text></g><g><text fill="#595959" fill-opacity="1" font-family="Calibri,Calibri_MSFontService,sans-serif" font-style="normal" font-variant="normal" font-weight="400" font-stretch="normal" font-size="41" text-anchor="start" direction="ltr" writing-mode="lr-tb" unicode-bidi="normal" text-decoration="none" transform="matrix(1 0 0 1 1055.38 2722)">65.0</text></g><g><text fill="#595959" fill-opacity="1" font-family="Calibri,Calibri_MSFontService,sans-serif" font-style="normal" font-variant="normal" font-weight="400" font-stretch="normal" font-size="41" text-anchor="start" direction="ltr" writing-mode="lr-tb" unicode-bidi="normal" text-decoration="none" transform="matrix(1 0 0 1 1055.38 2547)">70.0</text></g><g><text fill="#595959" fill-opacity="1" font-family="Calibri,Calibri_MSFontService,sans-serif" font-style="normal" font-variant="normal" font-weight="400" font-stretch="normal" font-size="41" text-anchor="start" direction="ltr" writing-mode="lr-tb" unicode-bidi="normal" text-decoration="none" transform="matrix(1 0 0 1 1055.38 2372)">75.0</text></g><g><text fill="#595959" fill-opacity="1" font-family="Calibri,Calibri_MSFontService,sans-serif" font-style="normal" font-variant="normal" font-weight="400" font-stretch="normal" font-size="41" text-anchor="start" direction="ltr" writing-mode="lr-tb" unicode-bidi="normal" text-decoration="none" transform="matrix(1 0 0 1 1055.38 2198)">80.0</text></g><g><text fill="#595959" fill-opacity="1" font-family="Calibri,Calibri_MSFontService,sans-serif" font-style="normal" font-variant="normal" font-weight="400" font-stretch="normal" font-size="41" text-anchor="start" direction="ltr" writing-mode="lr-tb" unicode-bidi="normal" text-decoration="none" transform="matrix(1 0 0 1 1055.38 2023)">85.0</text></g><g><text fill="#595959" fill-opacity="1" font-family="Calibri,Calibri_MSFontService,sans-serif" font-style="normal" font-variant="normal" font-weight="400" font-stretch="normal" font-size="41" text-anchor="start" direction="ltr" writing-mode="lr-tb" unicode-bidi="normal" text-decoration="none" transform="matrix(1 0 0 1 1055.38 1848)">90.0</text></g><g><text fill="#595959" fill-opacity="1" font-family="Calibri,Calibri_MSFontService,sans-serif" font-style="normal" font-variant="normal" font-weight="400" font-stretch="normal" font-size="41" text-anchor="start" direction="ltr" writing-mode="lr-tb" unicode-bidi="normal" text-decoration="none" transform="matrix(1 0 0 1 1055.38 1673)">95.0</text></g><g><text fill="#595959" fill-opacity="1" font-family="Calibri,Calibri_MSFontService,sans-serif" font-style="normal" font-variant="normal" font-weight="400" font-stretch="normal" font-size="41" text-anchor="start" direction="ltr" writing-mode="lr-tb" unicode-bidi="normal" text-decoration="none" transform="matrix(1 0 0 1 1034.48 1498)">100.0</text></g><g><text fill="#595959" fill-opacity="1" font-family="Calibri,Calibri_MSFontService,sans-serif" font-style="normal" font-variant="normal" font-weight="400" font-stretch="normal" font-size="41" text-anchor="start" direction="ltr" writing-mode="lr-tb" unicode-bidi="normal" text-decoration="none" transform="matrix(1 0 0 1 1205.23 2952)">Sprint 1</text></g><g><text fill="#595959" fill-opacity="1" font-family="Calibri,Calibri_MSFontService,sans-serif" font-style="normal" font-variant="normal" font-weight="400" font-stretch="normal" font-size="41" text-anchor="start" direction="ltr" writing-mode="lr-tb" unicode-bidi="normal" text-decoration="none" transform="matrix(1 0 0 1 1412.41 2952)">Sprint 2</text></g><g><text fill="#595959" fill-opacity="1" font-family="Calibri,Calibri_MSFontService,sans-serif" font-style="normal" font-variant="normal" font-weight="400" font-stretch="normal" font-size="41" text-anchor="start" direction="ltr" writing-mode="lr-tb" unicode-bidi="normal" text-decoration="none" transform="matrix(1 0 0 1 1619.59 2952)">Sprint 3</text></g><g><text fill="#595959" fill-opacity="1" font-family="Calibri,Calibri_MSFontService,sans-serif" font-style="normal" font-variant="normal" font-weight="400" font-stretch="normal" font-size="41" text-anchor="start" direction="ltr" writing-mode="lr-tb" unicode-bidi="normal" text-decoration="none" transform="matrix(1 0 0 1 1826.76 2952)">Sprint 4</text></g><g><text fill="#595959" fill-opacity="1" font-family="Calibri,Calibri_MSFontService,sans-serif" font-style="normal" font-variant="normal" font-weight="400" font-stretch="normal" font-size="41" text-anchor="start" direction="ltr" writing-mode="lr-tb" unicode-bidi="normal" text-decoration="none" transform="matrix(1 0 0 1 2033.94 2952)">Sprint 5</text></g><g><text fill="#595959" fill-opacity="1" font-family="Calibri,Calibri_MSFontService,sans-serif" font-style="normal" font-variant="normal" font-weight="400" font-stretch="normal" font-size="41" text-anchor="start" direction="ltr" writing-mode="lr-tb" unicode-bidi="normal" text-decoration="none" transform="matrix(1 0 0 1 2241.12 2952)">Sprint 6</text></g><g><text fill="#595959" fill-opacity="1" font-family="Calibri,Calibri_MSFontService,sans-serif" font-style="normal" font-variant="normal" font-weight="400" font-stretch="normal" font-size="41" text-anchor="start" direction="ltr" writing-mode="lr-tb" unicode-bidi="normal" text-decoration="none" transform="matrix(1 0 0 1 2448.29 2952)">Sprint 7</text></g><g><text fill="#595959" fill-opacity="1" font-family="Calibri,Calibri_MSFontService,sans-serif" font-style="normal" font-variant="normal" font-weight="400" font-stretch="normal" font-size="41" text-anchor="start" direction="ltr" writing-mode="lr-tb" unicode-bidi="normal" text-decoration="none" transform="matrix(1 0 0 1 2655.47 2952)">Sprint 8</text></g><g><text fill="#595959" fill-opacity="1" font-family="Calibri,Calibri_MSFontService,sans-serif" font-style="normal" font-variant="normal" font-weight="400" font-stretch="normal" font-size="41" text-anchor="start" direction="ltr" writing-mode="lr-tb" unicode-bidi="normal" text-decoration="none" transform="matrix(1 0 0 1 2862.64 2952)">Sprint 9</text></g><g><text fill="#595959" fill-opacity="1" font-family="Calibri,Calibri_MSFontService,sans-serif" font-style="normal" font-variant="normal" font-weight="400" font-stretch="normal" font-size="41" text-anchor="start" direction="ltr" writing-mode="lr-tb" unicode-bidi="normal" text-decoration="none" transform="matrix(1 0 0 1 3059.37 2952)">Sprint 10</text></g><g><text fill="#595959" fill-opacity="1" font-family="Calibri,Calibri_MSFontService,sans-serif" font-style="normal" font-variant="normal" font-weight="400" font-stretch="normal" font-size="41" text-anchor="start" direction="ltr" writing-mode="lr-tb" unicode-bidi="normal" text-decoration="none" transform="matrix(1 0 0 1 3266.55 2952)">Sprint 11</text></g><g><text fill="#595959" fill-opacity="1" font-family="Calibri,Calibri_MSFontService,sans-serif" font-style="normal" font-variant="normal" font-weight="400" font-stretch="normal" font-size="41" text-anchor="start" direction="ltr" writing-mode="lr-tb" unicode-bidi="normal" text-decoration="none" transform="matrix(1 0 0 1 3473.72 2952)">Sprint 12</text></g><g><text fill="#595959" fill-opacity="1" font-family="Calibri,Calibri_MSFontService,sans-serif" font-style="normal" font-variant="normal" font-weight="400" font-stretch="normal" font-size="41" text-anchor="start" direction="ltr" writing-mode="lr-tb" unicode-bidi="normal" text-decoration="none" transform="matrix(1 0 0 1 3680.9 2952)">Sprint 13</text></g><g><text fill="#595959" fill-opacity="1" font-family="Calibri,Calibri_MSFontService,sans-serif" font-style="normal" font-variant="normal" font-weight="400" font-stretch="normal" font-size="41" text-anchor="start" direction="ltr" writing-mode="lr-tb" unicode-bidi="normal" text-decoration="none" transform="matrix(1 0 0 1 3888.08 2952)">Sprint 14</text></g><g><text fill="#595959" fill-opacity="1" font-family="Calibri,Calibri_MSFontService,sans-serif" font-style="normal" font-variant="normal" font-weight="400" font-stretch="normal" font-size="41" text-anchor="start" direction="ltr" writing-mode="lr-tb" unicode-bidi="normal" text-decoration="none" transform="matrix(1 0 0 1 4095.25 2952)">Sprint 15</text></g><g><text fill="#595959" fill-opacity="1" font-family="Calibri,Calibri_MSFontService,sans-serif" font-style="normal" font-variant="normal" font-weight="400" font-stretch="normal" font-size="41" text-anchor="start" direction="ltr" writing-mode="lr-tb" unicode-bidi="normal" text-decoration="none" transform="matrix(1 0 0 1 4302.43 2952)">Sprint 16</text></g><g><text fill="#595959" fill-opacity="1" font-family="Calibri,Calibri_MSFontService,sans-serif" font-style="normal" font-variant="normal" font-weight="400" font-stretch="normal" font-size="41" text-anchor="start" direction="ltr" writing-mode="lr-tb" unicode-bidi="normal" text-decoration="none" transform="matrix(1 0 0 1 4509.61 2952)">Sprint 17</text></g><g><text fill="#595959" fill-opacity="1" font-family="Calibri,Calibri_MSFontService,sans-serif" font-style="normal" font-variant="normal" font-weight="400" font-stretch="normal" font-size="46" text-anchor="start" direction="ltr" writing-mode="lr-tb" unicode-bidi="normal" text-decoration="none" transform="matrix(6.12323e-17 -1 1 6.12323e-17 1008.79 2259)">TCR (%)</text></g><g><text fill="#595959" fill-opacity="1" font-family="Calibri,Calibri_MSFontService,sans-serif" font-style="normal" font-variant="normal" font-weight="400" font-stretch="normal" font-size="64" text-anchor="start" direction="ltr" writing-mode="lr-tb" unicode-bidi="normal" text-decoration="none" transform="matrix(1 0 0 1 2773.83 1413)">TCR</text></g><g><path d="M2216 3032 2332 3032" stroke="#1F497D" stroke-width="10.3125" stroke-linecap="round" stroke-linejoin="round" stroke-miterlimit="10" stroke-opacity="1" fill="none" fill-rule="evenodd"/></g><g><text fill="#595959" fill-opacity="1" font-family="Calibri,Calibri_MSFontService,sans-serif" font-style="normal" font-variant="normal" font-weight="400" font-stretch="normal" font-size="41" text-anchor="start" direction="ltr" writing-mode="lr-tb" unicode-bidi="normal" text-decoration="none" transform="matrix(1 0 0 1 2344.3 3042)">TCR (%)</text></g><g><path d="M2546 3026.84 2566.63 3026.84C2569.47 3026.84 2571.78 3029.15 2571.78 3032 2571.78 3034.85 2569.47 3037.16 2566.63 3037.16L2546 3037.16C2543.15 3037.16 2540.84 3034.85 2540.84 3032 2540.84 3029.15 2543.15 3026.84 2546 3026.84ZM2587.25 3026.84 2607.88 3026.84C2610.72 3026.84 2613.03 3029.15 2613.03 3032 2613.03 3034.85 2610.72 3037.16 2607.88 3037.16L2587.25 3037.16C2584.4 3037.16 2582.09 3034.85 2582.09 3032 2582.09 3029.15 2584.4 3026.84 2587.25 3026.84ZM2628.5 3026.84 2649.13 3026.84C2651.97 3026.84 2654.28 3029.15 2654.28 3032 2654.28 3034.85 2651.97 3037.16 2649.13 3037.16L2628.5 3037.16C2625.65 3037.16 2623.34 3034.85 2623.34 3032 2623.34 3029.15 2625.65 3026.84 2628.5 3026.84Z" fill="#FF0000" fill-rule="nonzero" fill-opacity="1"/></g><g><text fill="#595959" fill-opacity="1" font-family="Calibri,Calibri_MSFontService,sans-serif" font-style="normal" font-variant="normal" font-weight="400" font-stretch="normal" font-size="41" text-anchor="start" direction="ltr" writing-mode="lr-tb" unicode-bidi="normal" text-decoration="none" transform="matrix(1 0 0 1 2673.84 3042)">Soglia acc.(≥85%)</text></g><g><path d="M3037 3026.84 3057.62 3026.84C3060.47 3026.84 3062.78 3029.15 3062.78 3032 3062.78 3034.85 3060.47 3037.16 3057.62 3037.16L3037 3037.16C3034.15 3037.16 3031.84 3034.85 3031.84 3032 3031.84 3029.15 3034.15 3026.84 3037 3026.84ZM3078.25 3026.84 3098.88 3026.84C3101.72 3026.84 3104.03 3029.15 3104.03 3032 3104.03 3034.85 3101.72 3037.16 3098.88 3037.16L3078.25 3037.16C3075.4 3037.16 3073.09 3034.85 3073.09 3032 3073.09 3029.15 3075.4 3026.84 3078.25 3026.84ZM3119.5 3026.84 3140.12 3026.84C3142.97 3026.84 3145.28 3029.15 3145.28 3032 3145.28 3034.85 3142.97 3037.16 3140.12 3037.16L3119.5 3037.16C3116.65 3037.16 3114.34 3034.85 3114.34 3032 3114.34 3029.15 3116.65 3026.84 3119.5 3026.84Z" fill="#00B050" fill-rule="nonzero" fill-opacity="1"/></g><g><text fill="#595959" fill-opacity="1" font-family="Calibri,Calibri_MSFontService,sans-serif" font-style="normal" font-variant="normal" font-weight="400" font-stretch="normal" font-size="41" text-anchor="start" direction="ltr" writing-mode="lr-tb" unicode-bidi="normal" text-decoration="none" transform="matrix(1 0 0 1 3165.05 3042)">Soglia ott.(100%)</text></g><rect x="908.5" y="1318.5" width="3831" height="1780" stroke="#D9D9D9" stroke-width="3.4375" stroke-linecap="butt" stroke-linejoin="round" stroke-miterlimit="10" stroke-opacity="1" fill="none"/></g></g></svg>