<svg width="3485" height="1783" xmlns="http://www.w3.org/2000/svg" xmlns:xlink="http://www.w3.org/1999/xlink" xml:space="preserve" overflow="hidden"><defs><clipPath id="clip0"><rect x="838" y="1317" width="3485" height="1783"/></clipPath><clipPath id="clip1"><rect x="1097" y="1487" width="3177" height="1403"/></clipPath></defs><g clip-path="url(#clip0)" transform="translate(-838 -1317)"><rect x="839" y="1318" width="3482" height="1780" fill="#FFFFFF"/><g><path d="M1097.5 2712.59 4271.5 2712.59M1097.5 2537.58 4271.5 2537.58M1097.5 2362.58 4271.5 2362.58M1097.5 2187.57 4271.5 2187.57M1097.5 2012.57 4271.5 2012.57M1097.5 1837.56 4271.5 1837.56M1097.5 1662.55 4271.5 1662.55M1097.5 1487.5 4271.5 1487.5" stroke="#D9D9D9" stroke-width="3.4375" stroke-linejoin="round" stroke-miterlimit="10" fill="none"/></g><g><path d="M1097.5 2887.5 4271.5 2887.5" stroke="#D9D9D9" stroke-width="3.4375" stroke-linejoin="round" stroke-miterlimit="10" fill="none" fill-rule="evenodd"/></g><g clip-path="url(#clip1)"><path d="M1191.5 1488.02C1253.71 1488.02 1315.92 1429.74 1378.12 1488.02 1440.33 1546.3 1502.54 1837.69 1564.75 1837.69 1626.96 1837.69 1689.17 1546.3 1751.38 1488.02 1813.58 1429.74 1875.79 1434.98 1938 1488.02 2000.21 1541.05 2062.42 1660.52 2124.62 1806.22 2186.83 1951.92 2249.04 2317.92 2311.25 2362.21 2373.46 2406.5 2435.67 2194.36 2497.88 2071.98 2560.08 1949.59 2622.29 1725.21 2684.5 1627.89 2746.71 1530.56 2808.92 1511.33 2871.12 1488.02 2933.33 1464.7 2995.54 1488.02 3057.75 1488.02 3106.53 1488.02 3195.59 1408.5 3244.38 1488.02 3306.58 1589.42 3368.79 2026.52 3431 2096.45 3493.21 2166.39 3555.42 1929.77 3617.62 1907.63 3679.83 1885.48 3742.04 1951.92 3804.25 1963.58 3866.46 1975.23 3928.67 1953.67 3990.88 1977.56 4053.08 2001.46 4115.29 2063.82 4177.5 2106.94" stroke="#1F497D" stroke-width="11.4583" stroke-linecap="round" stroke-linejoin="round" stroke-miterlimit="10" fill="none"/></g><g><path d="M1191 2013 1378.05 2013 1564.05 2013 1751.06 2013 1938.06 2013 2124.07 2013 2311.08 2013 2498.08 2013 2684.09 2013 2871.09 2013 3058.1 2013 3244.11 2013 3431.11 2013 3618.12 2013 3804.12 2013 3991.13 2013 4178 2013" stroke="#FF0000" stroke-width="10.3125" stroke-linecap="round" stroke-linejoin="round" stroke-miterlimit="10" stroke-dasharray="20.625 20.625" fill="none"/></g><g><path d="M1191 1488 1378.05 1488 1564.05 1488 1751.06 1488 1938.06 1488 2124.07 1488 2311.08 1488 2498.08 1488 2684.09 1488 2871.09 1488 3058.1 1488 3244.11 1488 3431.11 1488 3618.12 1488 3804.12 1488 3991.13 1488 4178 1488" stroke="#00B050" stroke-width="10.3125" stroke-linecap="round" stroke-linejoin="round" stroke-miterlimit="10" stroke-dasharray="20.625 20.625" fill="none"/></g><g><text fill="#595959" font-family="Calibri,Calibri_MSFontService,sans-serif" font-weight="400" font-size="41" transform="matrix(1 0 0 1 986.631 2899)">60,0</text></g><g><text fill="#595959" font-family="Calibri,Calibri_MSFontService,sans-serif" font-weight="400" font-size="41" transform="matrix(1 0 0 1 986.631 2724)">65,0</text></g><g><text fill="#595959" font-family="Calibri,Calibri_MSFontService,sans-serif" font-weight="400" font-size="41" transform="matrix(1 0 0 1 986.631 2549)">70,0</text></g><g><text fill="#595959" font-family="Calibri,Calibri_MSFontService,sans-serif" font-weight="400" font-size="41" transform="matrix(1 0 0 1 986.631 2374)">75,0</text></g><g><text fill="#595959" font-family="Calibri,Calibri_MSFontService,sans-serif" font-weight="400" font-size="41" transform="matrix(1 0 0 1 986.631 2199)">80,0</text></g><g><text fill="#595959" font-family="Calibri,Calibri_MSFontService,sans-serif" font-weight="400" font-size="41" transform="matrix(1 0 0 1 986.631 2024)">85,0</text></g><g><text fill="#595959" font-family="Calibri,Calibri_MSFontService,sans-serif" font-weight="400" font-size="41" transform="matrix(1 0 0 1 986.631 1849)">90,0</text></g><g><text fill="#595959" font-family="Calibri,Calibri_MSFontService,sans-serif" font-weight="400" font-size="41" transform="matrix(1 0 0 1 986.631 1674)">95,0</text></g><g><text fill="#595959" font-family="Calibri,Calibri_MSFontService,sans-serif" font-weight="400" font-size="41" transform="matrix(1 0 0 1 965.731 1499)">100,0</text></g><g><text fill="#595959" font-family="Calibri,Calibri_MSFontService,sans-serif" font-weight="400" font-size="41" transform="matrix(1 0 0 1 1126.11 2952)">Sprint 1</text></g><g><text fill="#595959" font-family="Calibri,Calibri_MSFontService,sans-serif" font-weight="400" font-size="41" transform="matrix(1 0 0 1 1312.76 2952)">Sprint 2</text></g><g><text fill="#595959" font-family="Calibri,Calibri_MSFontService,sans-serif" font-weight="400" font-size="41" transform="matrix(1 0 0 1 1499.42 2952)">Sprint 3</text></g><g><text fill="#595959" font-family="Calibri,Calibri_MSFontService,sans-serif" font-weight="400" font-size="41" transform="matrix(1 0 0 1 1686.07 2952)">Sprint 4</text></g><g><text fill="#595959" font-family="Calibri,Calibri_MSFontService,sans-serif" font-weight="400" font-size="41" transform="matrix(1 0 0 1 1872.73 2952)">Sprint 5</text></g><g><text fill="#595959" font-family="Calibri,Calibri_MSFontService,sans-serif" font-weight="400" font-size="41" transform="matrix(1 0 0 1 2059.38 2952)">Sprint 6</text></g><g><text fill="#595959" font-family="Calibri,Calibri_MSFontService,sans-serif" font-weight="400" font-size="41" transform="matrix(1 0 0 1 2246.03 2952)">Sprint 7</text></g><g><text fill="#595959" font-family="Calibri,Calibri_MSFontService,sans-serif" font-weight="400" font-size="41" transform="matrix(1 0 0 1 2432.69 2952)">Sprint 8</text></g><g><text fill="#595959" font-family="Calibri,Calibri_MSFontService,sans-serif" font-weight="400" font-size="41" transform="matrix(1 0 0 1 2619.34 2952)">Sprint 9</text></g><g><text fill="#595959" font-family="Calibri,Calibri_MSFontService,sans-serif" font-weight="400" font-size="41" transform="matrix(1 0 0 1 2795.55 2952)">Sprint 10</text></g><g><text fill="#595959" font-family="Calibri,Calibri_MSFontService,sans-serif" font-weight="400" font-size="41" transform="matrix(1 0 0 1 2982.2 2952)">Sprint 11</text></g><g><text fill="#595959" font-family="Calibri,Calibri_MSFontService,sans-serif" font-weight="400" font-size="41" transform="matrix(1 0 0 1 3168.86 2952)">Sprint 12</text></g><g><text fill="#595959" font-family="Calibri,Calibri_MSFontService,sans-serif" font-weight="400" font-size="41" transform="matrix(1 0 0 1 3355.51 2952)">Sprint 13</text></g><g><text fill="#595959" font-family="Calibri,Calibri_MSFontService,sans-serif" font-weight="400" font-size="41" transform="matrix(1 0 0 1 3542.17 2952)">Sprint 14</text></g><g><text fill="#595959" font-family="Calibri,Calibri_MSFontService,sans-serif" font-weight="400" font-size="41" transform="matrix(1 0 0 1 3728.82 2952)">Sprint 15</text></g><g><text fill="#595959" font-family="Calibri,Calibri_MSFontService,sans-serif" font-weight="400" font-size="41" transform="matrix(1 0 0 1 3915.47 2952)">Sprint 16</text></g><g><text fill="#595959" font-family="Calibri,Calibri_MSFontService,sans-serif" font-weight="400" font-size="41" transform="matrix(1 0 0 1 4102.13 2952)">Sprint 17</text></g><g><text fill="#595959" font-family="Calibri,Calibri_MSFontService,sans-serif" font-weight="400" font-size="46" transform="matrix(6.12323e-17 -1 1 6.12323e-17 940.042 2259)">TCR (%)</text></g><g><text fill="#595959" font-family="Calibri,Calibri_MSFontService,sans-serif" font-weight="400" font-size="64" transform="matrix(1 0 0 1 2530.59 1413)">TCR</text></g><g><path d="M1972.5 3032.5 2088.5 3032.5" stroke="#1F497D" stroke-width="11.4583" stroke-linecap="round" stroke-linejoin="round" stroke-miterlimit="10" fill="none" fill-rule="evenodd"/></g><g><text fill="#595959" font-family="Calibri,Calibri_MSFontService,sans-serif" font-weight="400" font-size="41" transform="matrix(1 0 0 1 2101.05 3044)">TCR (%)</text></g><g><path d="M2302 3032 2418 3032" stroke="#FF0000" stroke-width="10.3125" stroke-linecap="round" stroke-linejoin="round" stroke-miterlimit="10" stroke-dasharray="20.625 20.625" fill="none" fill-rule="evenodd"/></g><g><text fill="#595959" font-family="Calibri,Calibri_MSFontService,sans-serif" font-weight="400" font-size="41" transform="matrix(1 0 0 1 2430.59 3044)">Soglia acc.(≥85%)</text></g><g><path d="M2794 3032 2909 3032" stroke="#00B050" stroke-width="10.3125" stroke-linecap="round" stroke-linejoin="round" stroke-miterlimit="10" stroke-dasharray="20.625 20.625" fill="none" fill-rule="evenodd"/></g><g><text fill="#595959" font-family="Calibri,Calibri_MSFontService,sans-serif" font-weight="400" font-size="41" transform="matrix(1 0 0 1 2921.81 3044)">Soglia ott.(100%)</text></g><rect x="839.5" y="1318.5" width="3482" height="1780" stroke="#D9D9D9" stroke-width="3.4375" stroke-linejoin="round" stroke-miterlimit="10" fill="none"/></g></svg>