<svg width="3317" height="1611" xmlns="http://www.w3.org/2000/svg" xmlns:xlink="http://www.w3.org/1999/xlink" xml:space="preserve" overflow="hidden"><defs><clipPath id="clip0"><rect x="549" y="1303" width="3317" height="1611"/></clipPath></defs><g clip-path="url(#clip0)" transform="translate(-549 -1303)"><rect x="550" y="1304" width="3314" height="1608" fill="#FFFFFF"/><g><path d="M976.5 2609.59 3762.5 2609.59M976.5 2481.58 3762.5 2481.58M976.5 2353.58 3762.5 2353.58M976.5 2225.57 3762.5 2225.57M976.5 2097.57 3762.5 2097.57M976.5 1969.56 3762.5 1969.56M976.5 1841.56 3762.5 1841.56M976.5 1713.56 3762.5 1713.56M976.5 1585.55 3762.5 1585.55M976.5 1457.5 3762.5 1457.5" stroke="#D9D9D9" stroke-width="3.4375" stroke-linejoin="round" stroke-miterlimit="10" fill="none"/></g><g><path d="M976.5 2737.5 3762.5 2737.5" stroke="#D9D9D9" stroke-width="3.4375" stroke-linejoin="round" stroke-miterlimit="10" fill="none" fill-rule="evenodd"/></g><g><path d="M1059 2213C1113.62 2183.12 1168.25 2146.83 1222.88 2123.35 1277.5 2099.88 1332.12 2076.4 1386.75 2072.13 1441.37 2067.86 1496 2138.29 1550.62 2097.74 1605.25 2057.19 1659.88 1922.72 1714.5 1828.8 1769.12 1734.89 1823.75 1560.51 1878.37 1534.25 1933 1508 1987.62 1582.92 2042.25 1671.28 2096.87 1759.65 2151.5 2005.11 2206.12 2064.44 2260.75 2123.78 2315.38 2019.19 2370 2027.31 2424.62 2035.42 2479.25 2124.21 2533.88 2113.11 2588.5 2102.01 2643.12 1988.89 2697.75 1960.71 2752.38 1932.54 2807 1939.37 2861.62 1944.06 2916.25 1948.76 2970.87 2008.52 3025.5 1988.89 3080.12 1969.25 3134.75 1879.18 3189.38 1826.24 3244 1773.31 3298.62 1712.48 3353.25 1671.28 3407.88 1630.09 3462.5 1601.91 3517.12 1579.08 3571.75 1556.24 3626.37 1549.19 3681 1534.25" stroke="#4F81BD" stroke-width="10.3125" stroke-linecap="round" stroke-linejoin="round" stroke-miterlimit="10" fill="none"/></g><g><path d="M1059 1585 1222.04 1585 1386.05 1585 1550.05 1585 1714.06 1585 1878.06 1585 2042.07 1585 2206.07 1585 2370.08 1585 2534.08 1585 2697.09 1585 2861.09 1585 3025.1 1585 3189.1 1585 3353.11 1585 3517.12 1585 3681 1585" stroke="#00B050" stroke-width="10.3125" stroke-linecap="round" stroke-linejoin="round" stroke-miterlimit="10" stroke-dasharray="20.625 20.625" fill="none"/></g><g><path d="M1059 2097 1222.04 2097 1386.05 2097 1550.05 2097 1714.06 2097 1878.06 2097 2042.07 2097 2206.07 2097 2370.08 2097 2534.08 2097 2697.09 2097 2861.09 2097 3025.1 2097 3189.1 2097 3353.11 2097 3517.12 2097 3681 2097" stroke="#FF0000" stroke-width="10.3125" stroke-linecap="round" stroke-linejoin="round" stroke-miterlimit="10" stroke-dasharray="20.625 20.625" fill="none"/></g><g><text fill="#595959" font-family="Calibri,Calibri_MSFontService,sans-serif" font-weight="400" font-size="41" transform="matrix(1 0 0 1 835.937 2749)">0,00%</text></g><g><text fill="#595959" font-family="Calibri,Calibri_MSFontService,sans-serif" font-weight="400" font-size="41" transform="matrix(1 0 0 1 815.037 2621)">10,00%</text></g><g><text fill="#595959" font-family="Calibri,Calibri_MSFontService,sans-serif" font-weight="400" font-size="41" transform="matrix(1 0 0 1 815.037 2493)">20,00%</text></g><g><text fill="#595959" font-family="Calibri,Calibri_MSFontService,sans-serif" font-weight="400" font-size="41" transform="matrix(1 0 0 1 815.037 2365)">30,00%</text></g><g><text fill="#595959" font-family="Calibri,Calibri_MSFontService,sans-serif" font-weight="400" font-size="41" transform="matrix(1 0 0 1 815.037 2237)">40,00%</text></g><g><text fill="#595959" font-family="Calibri,Calibri_MSFontService,sans-serif" font-weight="400" font-size="41" transform="matrix(1 0 0 1 815.037 2109)">50,00%</text></g><g><text fill="#595959" font-family="Calibri,Calibri_MSFontService,sans-serif" font-weight="400" font-size="41" transform="matrix(1 0 0 1 815.037 1981)">60,00%</text></g><g><text fill="#595959" font-family="Calibri,Calibri_MSFontService,sans-serif" font-weight="400" font-size="41" transform="matrix(1 0 0 1 815.037 1853)">70,00%</text></g><g><text fill="#595959" font-family="Calibri,Calibri_MSFontService,sans-serif" font-weight="400" font-size="41" transform="matrix(1 0 0 1 815.037 1725)">80,00%</text></g><g><text fill="#595959" font-family="Calibri,Calibri_MSFontService,sans-serif" font-weight="400" font-size="41" transform="matrix(1 0 0 1 815.037 1597)">90,00%</text></g><g><text fill="#595959" font-family="Calibri,Calibri_MSFontService,sans-serif" font-weight="400" font-size="41" transform="matrix(1 0 0 1 794.137 1469)">100,00%</text></g><g><text fill="#595959" font-family="Calibri,Calibri_MSFontService,sans-serif" font-weight="400" font-size="41" transform="matrix(1 0 0 1 993.526 2803)">Sprint 1</text></g><g><text fill="#595959" font-family="Calibri,Calibri_MSFontService,sans-serif" font-weight="400" font-size="41" transform="matrix(1 0 0 1 1157.42 2803)">Sprint 2</text></g><g><text fill="#595959" font-family="Calibri,Calibri_MSFontService,sans-serif" font-weight="400" font-size="41" transform="matrix(1 0 0 1 1321.31 2803)">Sprint 3</text></g><g><text fill="#595959" font-family="Calibri,Calibri_MSFontService,sans-serif" font-weight="400" font-size="41" transform="matrix(1 0 0 1 1485.2 2803)">Sprint 4</text></g><g><text fill="#595959" font-family="Calibri,Calibri_MSFontService,sans-serif" font-weight="400" font-size="41" transform="matrix(1 0 0 1 1649.09 2803)">Sprint 5</text></g><g><text fill="#595959" font-family="Calibri,Calibri_MSFontService,sans-serif" font-weight="400" font-size="41" transform="matrix(1 0 0 1 1812.97 2803)">Sprint 6</text></g><g><text fill="#595959" font-family="Calibri,Calibri_MSFontService,sans-serif" font-weight="400" font-size="41" transform="matrix(1 0 0 1 1976.86 2803)">Sprint 7</text></g><g><text fill="#595959" font-family="Calibri,Calibri_MSFontService,sans-serif" font-weight="400" font-size="41" transform="matrix(1 0 0 1 2140.75 2803)">Sprint 8</text></g><g><text fill="#595959" font-family="Calibri,Calibri_MSFontService,sans-serif" font-weight="400" font-size="41" transform="matrix(1 0 0 1 2304.64 2803)">Sprint 9</text></g><g><text fill="#595959" font-family="Calibri,Calibri_MSFontService,sans-serif" font-weight="400" font-size="41" transform="matrix(1 0 0 1 2458.08 2803)">Sprint 10</text></g><g><text fill="#595959" font-family="Calibri,Calibri_MSFontService,sans-serif" font-weight="400" font-size="41" transform="matrix(1 0 0 1 2621.97 2803)">Sprint 11</text></g><g><text fill="#595959" font-family="Calibri,Calibri_MSFontService,sans-serif" font-weight="400" font-size="41" transform="matrix(1 0 0 1 2785.86 2803)">Sprint 12</text></g><g><text fill="#595959" font-family="Calibri,Calibri_MSFontService,sans-serif" font-weight="400" font-size="41" transform="matrix(1 0 0 1 2949.75 2803)">Sprint 13</text></g><g><text fill="#595959" font-family="Calibri,Calibri_MSFontService,sans-serif" font-weight="400" font-size="41" transform="matrix(1 0 0 1 3113.64 2803)">Sprint 14</text></g><g><text fill="#595959" font-family="Calibri,Calibri_MSFontService,sans-serif" font-weight="400" font-size="41" transform="matrix(1 0 0 1 3277.53 2803)">Sprint 15</text></g><g><text fill="#595959" font-family="Calibri,Calibri_MSFontService,sans-serif" font-weight="400" font-size="41" transform="matrix(1 0 0 1 3441.42 2803)">Sprint 16</text></g><g><text fill="#595959" font-family="Calibri,Calibri_MSFontService,sans-serif" font-weight="400" font-size="41" transform="matrix(1 0 0 1 3605.31 2803)">Sprint 17</text></g><g><text fill="#595959" font-family="Calibri,Calibri_MSFontService,sans-serif" font-weight="400" font-size="64" transform="matrix(1 0 0 1 2175.75 1399)">TE</text></g><g><path d="M1606 2871 1722 2871" stroke="#4F81BD" stroke-width="10.3125" stroke-linecap="round" stroke-linejoin="round" stroke-miterlimit="10" fill="none" fill-rule="evenodd"/></g><g><text fill="#595959" font-family="Calibri,Calibri_MSFontService,sans-serif" font-weight="400" font-size="41" transform="matrix(1 0 0 1 1734.57 2882)">TE (%)</text></g><g><path d="M1911 2871 2027 2871" stroke="#00B050" stroke-width="10.3125" stroke-linecap="round" stroke-linejoin="round" stroke-miterlimit="10" stroke-dasharray="20.625 20.625" fill="none" fill-rule="evenodd"/></g><g><g><text fill="#595959" font-family="Calibri,Calibri_MSFontService,sans-serif" font-weight="400" font-size="41" transform="matrix(1 0 0 1 2039.71 2882)">Soglia ott. (≥90%)</text></g></g><g><path d="M2407 2871 2522 2871" stroke="#FF0000" stroke-width="10.3125" stroke-linecap="round" stroke-linejoin="round" stroke-miterlimit="10" stroke-dasharray="20.625 20.625" fill="none" fill-rule="evenodd"/></g><g><g><text fill="#595959" font-family="Calibri,Calibri_MSFontService,sans-serif" font-weight="400" font-size="41" transform="matrix(1 0 0 1 2534.86 2882)">Soglia acc. (≥50%)</text></g></g><rect x="550.5" y="1304.5" width="3314" height="1608" stroke="#D9D9D9" stroke-width="3.4375" stroke-linejoin="round" stroke-miterlimit="10" fill="none"/></g></svg>