<svg width="3676" height="2214" xmlns="http://www.w3.org/2000/svg" xmlns:xlink="http://www.w3.org/1999/xlink" xml:space="preserve" overflow="hidden"><defs><clipPath id="clip0"><rect x="591" y="1301" width="3676" height="2214"/></clipPath><clipPath id="clip1"><rect x="591" y="1301" width="3676" height="2214"/></clipPath></defs><g clip-path="url(#clip0)" transform="translate(-591 -1301)"><g clip-path="url(#clip1)"><rect x="596" y="1304" width="3666" height="2207" fill="#FFFFFF" fill-opacity="1"/><g><path d="M1067.5 2729.59 4150.5 2729.59M1067.5 2614.59 4150.5 2614.59M1067.5 2499.58 4150.5 2499.58M1067.5 2384.58 4150.5 2384.58M1067.5 2269.57 4150.5 2269.57M1067.5 2153.57 4150.5 2153.57M1067.5 2038.57 4150.5 2038.57M1067.5 1923.56 4150.5 1923.56M1067.5 1808.56 4150.5 1808.56M1067.5 1693.5 4150.5 1693.5" stroke="#D9D9D9" stroke-width="3.4375" stroke-linecap="butt" stroke-linejoin="round" stroke-miterlimit="10" stroke-opacity="1" fill="none" fill-rule="nonzero"/></g><g><path d="M1067.5 2845.5 4150.5 2845.5" stroke="#D9D9D9" stroke-width="3.4375" stroke-linecap="butt" stroke-linejoin="round" stroke-miterlimit="10" stroke-opacity="1" fill="none" fill-rule="evenodd"/></g><g><path d="M1159 2373C1219.44 2346.13 1279.88 2313.5 1340.31 2292.38 1400.75 2271.27 1461.19 2250.15 1521.62 2246.31 1582.06 2242.48 1642.5 2305.82 1702.94 2269.35 1763.38 2232.88 1823.81 2111.95 1884.25 2027.5 1944.69 1943.04 2005.12 1786.22 2065.56 1762.61 2126 1739 2186.44 1806.37 2246.88 1885.84 2307.31 1965.31 2367.75 2186.04 2428.19 2239.41 2488.62 2292.77 2549.06 2198.71 2609.5 2206.01 2669.94 2213.3 2730.38 2293.15 2790.81 2283.17 2851.25 2273.19 2911.69 2171.46 2972.12 2146.12 3032.56 2120.78 3093 2126.92 3153.44 2131.15 3213.87 2135.37 3274.31 2189.11 3334.75 2171.46 3395.19 2153.8 3455.62 2072.8 3516.06 2025.19 3576.5 1977.59 3636.94 1922.89 3697.38 1885.84 3757.81 1848.79 3818.25 1823.46 3878.69 1802.92 3939.12 1782.38 3999.56 1776.05 4060 1762.61" stroke="#4F81BD" stroke-width="10.3125" stroke-linecap="round" stroke-linejoin="round" stroke-miterlimit="10" stroke-opacity="1" fill="none" fill-rule="nonzero"/></g><g><path d="M1159 1802.84 1179.63 1802.84C1182.47 1802.84 1184.78 1805.15 1184.78 1808 1184.78 1810.85 1182.47 1813.16 1179.63 1813.16L1159 1813.16C1156.15 1813.16 1153.84 1810.85 1153.84 1808 1153.84 1805.15 1156.15 1802.84 1159 1802.84ZM1200.25 1802.84 1220.88 1802.84C1223.72 1802.84 1226.03 1805.15 1226.03 1808 1226.03 1810.85 1223.72 1813.16 1220.88 1813.16L1200.25 1813.16C1197.4 1813.16 1195.09 1810.85 1195.09 1808 1195.09 1805.15 1197.4 1802.84 1200.25 1802.84ZM1241.5 1802.84 1262.13 1802.84C1264.97 1802.84 1267.28 1805.15 1267.28 1808 1267.28 1810.85 1264.97 1813.16 1262.13 1813.16L1241.5 1813.16C1238.65 1813.16 1236.34 1810.85 1236.34 1808 1236.34 1805.15 1238.65 1802.84 1241.5 1802.84ZM1282.75 1802.84 1303.38 1802.84C1306.22 1802.84 1308.53 1805.15 1308.53 1808 1308.53 1810.85 1306.22 1813.16 1303.38 1813.16L1282.75 1813.16C1279.9 1813.16 1277.59 1810.85 1277.59 1808 1277.59 1805.15 1279.9 1802.84 1282.75 1802.84ZM1324 1802.84 1340.04 1802.84 1344.63 1802.84C1347.47 1802.84 1349.78 1805.15 1349.78 1808 1349.78 1810.85 1347.47 1813.16 1344.63 1813.16L1340.04 1813.16 1324 1813.16C1321.15 1813.16 1318.84 1810.85 1318.84 1808 1318.84 1805.15 1321.15 1802.84 1324 1802.84ZM1365.25 1802.84 1385.88 1802.84C1388.72 1802.84 1391.03 1805.15 1391.03 1808 1391.03 1810.85 1388.72 1813.16 1385.88 1813.16L1365.25 1813.16C1362.4 1813.16 1360.09 1810.85 1360.09 1808 1360.09 1805.15 1362.4 1802.84 1365.25 1802.84ZM1406.5 1802.84 1427.13 1802.84C1429.97 1802.84 1432.28 1805.15 1432.28 1808 1432.28 1810.85 1429.97 1813.16 1427.13 1813.16L1406.5 1813.16C1403.65 1813.16 1401.34 1810.85 1401.34 1808 1401.34 1805.15 1403.65 1802.84 1406.5 1802.84ZM1447.75 1802.84 1468.38 1802.84C1471.22 1802.84 1473.53 1805.15 1473.53 1808 1473.53 1810.85 1471.22 1813.16 1468.38 1813.16L1447.75 1813.16C1444.9 1813.16 1442.59 1810.85 1442.59 1808 1442.59 1805.15 1444.9 1802.84 1447.75 1802.84ZM1489 1802.84 1509.63 1802.84C1512.47 1802.84 1514.78 1805.15 1514.78 1808 1514.78 1810.85 1512.47 1813.16 1509.63 1813.16L1489 1813.16C1486.15 1813.16 1483.84 1810.85 1483.84 1808 1483.84 1805.15 1486.15 1802.84 1489 1802.84ZM1530.25 1802.84 1550.88 1802.84C1553.72 1802.84 1556.03 1805.15 1556.03 1808 1556.03 1810.85 1553.72 1813.16 1550.88 1813.16L1530.25 1813.16C1527.4 1813.16 1525.09 1810.85 1525.09 1808 1525.09 1805.15 1527.4 1802.84 1530.25 1802.84ZM1571.5 1802.84 1592.13 1802.84C1594.97 1802.84 1597.28 1805.15 1597.28 1808 1597.28 1810.85 1594.97 1813.16 1592.13 1813.16L1571.5 1813.16C1568.65 1813.16 1566.34 1810.85 1566.34 1808 1566.34 1805.15 1568.65 1802.84 1571.5 1802.84ZM1612.75 1802.84 1633.38 1802.84C1636.22 1802.84 1638.53 1805.15 1638.53 1808 1638.53 1810.85 1636.22 1813.16 1633.38 1813.16L1612.75 1813.16C1609.9 1813.16 1607.59 1810.85 1607.59 1808 1607.59 1805.15 1609.9 1802.84 1612.75 1802.84ZM1654 1802.84 1674.63 1802.84C1677.47 1802.84 1679.78 1805.15 1679.78 1808 1679.78 1810.85 1677.47 1813.16 1674.63 1813.16L1654 1813.16C1651.15 1813.16 1648.84 1810.85 1648.84 1808 1648.84 1805.15 1651.15 1802.84 1654 1802.84ZM1695.25 1802.84 1703.06 1802.84 1715.88 1802.84C1718.72 1802.84 1721.03 1805.15 1721.03 1808 1721.03 1810.85 1718.72 1813.16 1715.88 1813.16L1703.06 1813.16 1695.25 1813.16C1692.4 1813.16 1690.09 1810.85 1690.09 1808 1690.09 1805.15 1692.4 1802.84 1695.25 1802.84ZM1736.5 1802.84 1757.13 1802.84C1759.97 1802.84 1762.28 1805.15 1762.28 1808 1762.28 1810.85 1759.97 1813.16 1757.13 1813.16L1736.5 1813.16C1733.65 1813.16 1731.34 1810.85 1731.34 1808 1731.34 1805.15 1733.65 1802.84 1736.5 1802.84ZM1777.75 1802.84 1798.38 1802.84C1801.22 1802.84 1803.53 1805.15 1803.53 1808 1803.53 1810.85 1801.22 1813.16 1798.38 1813.16L1777.75 1813.16C1774.9 1813.16 1772.59 1810.85 1772.59 1808 1772.59 1805.15 1774.9 1802.84 1777.75 1802.84ZM1819 1802.84 1839.63 1802.84C1842.47 1802.84 1844.78 1805.15 1844.78 1808 1844.78 1810.85 1842.47 1813.16 1839.63 1813.16L1819 1813.16C1816.15 1813.16 1813.84 1810.85 1813.84 1808 1813.84 1805.15 1816.15 1802.84 1819 1802.84ZM1860.25 1802.84 1880.88 1802.84C1883.72 1802.84 1886.03 1805.15 1886.03 1808 1886.03 1810.85 1883.72 1813.16 1880.88 1813.16L1860.25 1813.16C1857.4 1813.16 1855.09 1810.85 1855.09 1808 1855.09 1805.15 1857.4 1802.84 1860.25 1802.84ZM1901.5 1802.84 1922.13 1802.84C1924.97 1802.84 1927.28 1805.15 1927.28 1808 1927.28 1810.85 1924.97 1813.16 1922.13 1813.16L1901.5 1813.16C1898.65 1813.16 1896.34 1810.85 1896.34 1808 1896.34 1805.15 1898.65 1802.84 1901.5 1802.84ZM1942.75 1802.84 1963.38 1802.84C1966.22 1802.84 1968.53 1805.15 1968.53 1808 1968.53 1810.85 1966.22 1813.16 1963.38 1813.16L1942.75 1813.16C1939.9 1813.16 1937.59 1810.85 1937.59 1808 1937.59 1805.15 1939.9 1802.84 1942.75 1802.84ZM1984 1802.84 2004.63 1802.84C2007.47 1802.84 2009.78 1805.15 2009.78 1808 2009.78 1810.85 2007.47 1813.16 2004.63 1813.16L1984 1813.16C1981.15 1813.16 1978.84 1810.85 1978.84 1808 1978.84 1805.15 1981.15 1802.84 1984 1802.84ZM2025.25 1802.84 2045.88 1802.84C2048.72 1802.84 2051.03 1805.15 2051.03 1808 2051.03 1810.85 2048.72 1813.16 2045.88 1813.16L2025.25 1813.16C2022.4 1813.16 2020.09 1810.85 2020.09 1808 2020.09 1805.15 2022.4 1802.84 2025.25 1802.84ZM2066.5 1802.84 2087.12 1802.84C2089.97 1802.84 2092.28 1805.15 2092.28 1808 2092.28 1810.85 2089.97 1813.16 2087.12 1813.16L2066.5 1813.16C2063.65 1813.16 2061.34 1810.85 2061.34 1808 2061.34 1805.15 2063.65 1802.84 2066.5 1802.84ZM2107.75 1802.84 2128.38 1802.84C2131.22 1802.84 2133.53 1805.15 2133.53 1808 2133.53 1810.85 2131.22 1813.16 2128.38 1813.16L2107.75 1813.16C2104.9 1813.16 2102.59 1810.85 2102.59 1808 2102.59 1805.15 2104.9 1802.84 2107.75 1802.84ZM2149 1802.84 2169.62 1802.84C2172.47 1802.84 2174.78 1805.15 2174.78 1808 2174.78 1810.85 2172.47 1813.16 2169.62 1813.16L2149 1813.16C2146.15 1813.16 2143.84 1810.85 2143.84 1808 2143.84 1805.15 2146.15 1802.84 2149 1802.84ZM2190.25 1802.84 2210.88 1802.84C2213.72 1802.84 2216.03 1805.15 2216.03 1808 2216.03 1810.85 2213.72 1813.16 2210.88 1813.16L2190.25 1813.16C2187.4 1813.16 2185.09 1810.85 2185.09 1808 2185.09 1805.15 2187.4 1802.84 2190.25 1802.84ZM2231.5 1802.84 2246.07 1802.84 2252.12 1802.84C2254.97 1802.84 2257.28 1805.15 2257.28 1808 2257.28 1810.85 2254.97 1813.16 2252.12 1813.16L2246.07 1813.16 2231.5 1813.16C2228.65 1813.16 2226.34 1810.85 2226.34 1808 2226.34 1805.15 2228.65 1802.84 2231.5 1802.84ZM2272.75 1802.84 2293.38 1802.84C2296.22 1802.84 2298.53 1805.15 2298.53 1808 2298.53 1810.85 2296.22 1813.16 2293.38 1813.16L2272.75 1813.16C2269.9 1813.16 2267.59 1810.85 2267.59 1808 2267.59 1805.15 2269.9 1802.84 2272.75 1802.84ZM2314 1802.84 2334.62 1802.84C2337.47 1802.84 2339.78 1805.15 2339.78 1808 2339.78 1810.85 2337.47 1813.16 2334.62 1813.16L2314 1813.16C2311.15 1813.16 2308.84 1810.85 2308.84 1808 2308.84 1805.15 2311.15 1802.84 2314 1802.84ZM2355.25 1802.84 2375.88 1802.84C2378.72 1802.84 2381.03 1805.15 2381.03 1808 2381.03 1810.85 2378.72 1813.16 2375.88 1813.16L2355.25 1813.16C2352.4 1813.16 2350.09 1810.85 2350.09 1808 2350.09 1805.15 2352.4 1802.84 2355.25 1802.84ZM2396.5 1802.84 2417.12 1802.84C2419.97 1802.84 2422.28 1805.15 2422.28 1808 2422.28 1810.85 2419.97 1813.16 2417.12 1813.16L2396.5 1813.16C2393.65 1813.16 2391.34 1810.85 2391.34 1808 2391.34 1805.15 2393.65 1802.84 2396.5 1802.84ZM2437.75 1802.84 2458.38 1802.84C2461.22 1802.84 2463.53 1805.15 2463.53 1808 2463.53 1810.85 2461.22 1813.16 2458.38 1813.16L2437.75 1813.16C2434.9 1813.16 2432.59 1810.85 2432.59 1808 2432.59 1805.15 2434.9 1802.84 2437.75 1802.84ZM2479 1802.84 2499.62 1802.84C2502.47 1802.84 2504.78 1805.15 2504.78 1808 2504.78 1810.85 2502.47 1813.16 2499.62 1813.16L2479 1813.16C2476.15 1813.16 2473.84 1810.85 2473.84 1808 2473.84 1805.15 2476.15 1802.84 2479 1802.84ZM2520.25 1802.84 2540.88 1802.84C2543.72 1802.84 2546.03 1805.15 2546.03 1808 2546.03 1810.85 2543.72 1813.16 2540.88 1813.16L2520.25 1813.16C2517.4 1813.16 2515.09 1810.85 2515.09 1808 2515.09 1805.15 2517.4 1802.84 2520.25 1802.84ZM2561.5 1802.84 2582.12 1802.84C2584.97 1802.84 2587.28 1805.15 2587.28 1808 2587.28 1810.85 2584.97 1813.16 2582.12 1813.16L2561.5 1813.16C2558.65 1813.16 2556.34 1810.85 2556.34 1808 2556.34 1805.15 2558.65 1802.84 2561.5 1802.84ZM2602.75 1802.84 2609.09 1802.84 2623.38 1802.84C2626.22 1802.84 2628.53 1805.15 2628.53 1808 2628.53 1810.85 2626.22 1813.16 2623.38 1813.16L2609.09 1813.16 2602.75 1813.16C2599.9 1813.16 2597.59 1810.85 2597.59 1808 2597.59 1805.15 2599.9 1802.84 2602.75 1802.84ZM2644 1802.84 2664.62 1802.84C2667.47 1802.84 2669.78 1805.15 2669.78 1808 2669.78 1810.85 2667.47 1813.16 2664.62 1813.16L2644 1813.16C2641.15 1813.16 2638.84 1810.85 2638.84 1808 2638.84 1805.15 2641.15 1802.84 2644 1802.84ZM2685.25 1802.84 2705.88 1802.84C2708.72 1802.84 2711.03 1805.15 2711.03 1808 2711.03 1810.85 2708.72 1813.16 2705.88 1813.16L2685.25 1813.16C2682.4 1813.16 2680.09 1810.85 2680.09 1808 2680.09 1805.15 2682.4 1802.84 2685.25 1802.84ZM2726.5 1802.84 2747.12 1802.84C2749.97 1802.84 2752.28 1805.15 2752.28 1808 2752.28 1810.85 2749.97 1813.16 2747.12 1813.16L2726.5 1813.16C2723.65 1813.16 2721.34 1810.85 2721.34 1808 2721.34 1805.15 2723.65 1802.84 2726.5 1802.84ZM2767.75 1802.84 2788.38 1802.84C2791.22 1802.84 2793.53 1805.15 2793.53 1808 2793.53 1810.85 2791.22 1813.16 2788.38 1813.16L2767.75 1813.16C2764.9 1813.16 2762.59 1810.85 2762.59 1808 2762.59 1805.15 2764.9 1802.84 2767.75 1802.84ZM2809 1802.84 2829.62 1802.84C2832.47 1802.84 2834.78 1805.15 2834.78 1808 2834.78 1810.85 2832.47 1813.16 2829.62 1813.16L2809 1813.16C2806.15 1813.16 2803.84 1810.85 2803.84 1808 2803.84 1805.15 2806.15 1802.84 2809 1802.84ZM2850.25 1802.84 2870.88 1802.84C2873.72 1802.84 2876.03 1805.15 2876.03 1808 2876.03 1810.85 2873.72 1813.16 2870.88 1813.16L2850.25 1813.16C2847.4 1813.16 2845.09 1810.85 2845.09 1808 2845.09 1805.15 2847.4 1802.84 2850.25 1802.84ZM2891.5 1802.84 2912.12 1802.84C2914.97 1802.84 2917.28 1805.15 2917.28 1808 2917.28 1810.85 2914.97 1813.16 2912.12 1813.16L2891.5 1813.16C2888.65 1813.16 2886.34 1810.85 2886.34 1808 2886.34 1805.15 2888.65 1802.84 2891.5 1802.84ZM2932.75 1802.84 2953.38 1802.84C2956.22 1802.84 2958.53 1805.15 2958.53 1808 2958.53 1810.85 2956.22 1813.16 2953.38 1813.16L2932.75 1813.16C2929.9 1813.16 2927.59 1810.85 2927.59 1808 2927.59 1805.15 2929.9 1802.84 2932.75 1802.84ZM2974 1802.84 2994.62 1802.84C2997.47 1802.84 2999.78 1805.15 2999.78 1808 2999.78 1810.85 2997.47 1813.16 2994.62 1813.16L2974 1813.16C2971.15 1813.16 2968.84 1810.85 2968.84 1808 2968.84 1805.15 2971.15 1802.84 2974 1802.84ZM3015.25 1802.84 3035.88 1802.84C3038.72 1802.84 3041.03 1805.15 3041.03 1808 3041.03 1810.85 3038.72 1813.16 3035.88 1813.16L3015.25 1813.16C3012.4 1813.16 3010.09 1810.85 3010.09 1808 3010.09 1805.15 3012.4 1802.84 3015.25 1802.84ZM3056.5 1802.84 3077.12 1802.84C3079.97 1802.84 3082.28 1805.15 3082.28 1808 3082.28 1810.85 3079.97 1813.16 3077.12 1813.16L3056.5 1813.16C3053.65 1813.16 3051.34 1810.85 3051.34 1808 3051.34 1805.15 3053.65 1802.84 3056.5 1802.84ZM3097.75 1802.84 3118.38 1802.84C3121.22 1802.84 3123.53 1805.15 3123.53 1808 3123.53 1810.85 3121.22 1813.16 3118.38 1813.16L3097.75 1813.16C3094.9 1813.16 3092.59 1810.85 3092.59 1808 3092.59 1805.15 3094.9 1802.84 3097.75 1802.84ZM3139 1802.84 3153.1 1802.84 3159.62 1802.84C3162.47 1802.84 3164.78 1805.15 3164.78 1808 3164.78 1810.85 3162.47 1813.16 3159.62 1813.16L3153.1 1813.16 3139 1813.16C3136.15 1813.16 3133.84 1810.85 3133.84 1808 3133.84 1805.15 3136.15 1802.84 3139 1802.84ZM3180.25 1802.84 3200.88 1802.84C3203.72 1802.84 3206.03 1805.15 3206.03 1808 3206.03 1810.85 3203.72 1813.16 3200.88 1813.16L3180.25 1813.16C3177.4 1813.16 3175.09 1810.85 3175.09 1808 3175.09 1805.15 3177.4 1802.84 3180.25 1802.84ZM3221.5 1802.84 3242.12 1802.84C3244.97 1802.84 3247.28 1805.15 3247.28 1808 3247.28 1810.85 3244.97 1813.16 3242.12 1813.16L3221.5 1813.16C3218.65 1813.16 3216.34 1810.85 3216.34 1808 3216.34 1805.15 3218.65 1802.84 3221.5 1802.84ZM3262.75 1802.84 3283.38 1802.84C3286.22 1802.84 3288.53 1805.15 3288.53 1808 3288.53 1810.85 3286.22 1813.16 3283.38 1813.16L3262.75 1813.16C3259.9 1813.16 3257.59 1810.85 3257.59 1808 3257.59 1805.15 3259.9 1802.84 3262.75 1802.84ZM3304 1802.84 3324.62 1802.84C3327.47 1802.84 3329.78 1805.15 3329.78 1808 3329.78 1810.85 3327.47 1813.16 3324.62 1813.16L3304 1813.16C3301.15 1813.16 3298.84 1810.85 3298.84 1808 3298.84 1805.15 3301.15 1802.84 3304 1802.84ZM3345.25 1802.84 3365.88 1802.84C3368.72 1802.84 3371.03 1805.15 3371.03 1808 3371.03 1810.85 3368.72 1813.16 3365.88 1813.16L3345.25 1813.16C3342.4 1813.16 3340.09 1810.85 3340.09 1808 3340.09 1805.15 3342.4 1802.84 3345.25 1802.84ZM3386.5 1802.84 3407.12 1802.84C3409.97 1802.84 3412.28 1805.15 3412.28 1808 3412.28 1810.85 3409.97 1813.16 3407.12 1813.16L3386.5 1813.16C3383.65 1813.16 3381.34 1810.85 3381.34 1808 3381.34 1805.15 3383.65 1802.84 3386.5 1802.84ZM3427.75 1802.84 3448.38 1802.84C3451.22 1802.84 3453.53 1805.15 3453.53 1808 3453.53 1810.85 3451.22 1813.16 3448.38 1813.16L3427.75 1813.16C3424.9 1813.16 3422.59 1810.85 3422.59 1808 3422.59 1805.15 3424.9 1802.84 3427.75 1802.84ZM3469 1802.84 3489.62 1802.84C3492.47 1802.84 3494.78 1805.15 3494.78 1808 3494.78 1810.85 3492.47 1813.16 3489.62 1813.16L3469 1813.16C3466.15 1813.16 3463.84 1810.85 3463.84 1808 3463.84 1805.15 3466.15 1802.84 3469 1802.84ZM3510.25 1802.84 3516.12 1802.84 3530.88 1802.84C3533.72 1802.84 3536.03 1805.15 3536.03 1808 3536.03 1810.85 3533.72 1813.16 3530.88 1813.16L3516.12 1813.16 3510.25 1813.16C3507.4 1813.16 3505.09 1810.85 3505.09 1808 3505.09 1805.15 3507.4 1802.84 3510.25 1802.84ZM3551.5 1802.84 3572.12 1802.84C3574.97 1802.84 3577.28 1805.15 3577.28 1808 3577.28 1810.85 3574.97 1813.16 3572.12 1813.16L3551.5 1813.16C3548.65 1813.16 3546.34 1810.85 3546.34 1808 3546.34 1805.15 3548.65 1802.84 3551.5 1802.84ZM3592.75 1802.84 3613.38 1802.84C3616.22 1802.84 3618.53 1805.15 3618.53 1808 3618.53 1810.85 3616.22 1813.16 3613.38 1813.16L3592.75 1813.16C3589.9 1813.16 3587.59 1810.85 3587.59 1808 3587.59 1805.15 3589.9 1802.84 3592.75 1802.84ZM3634 1802.84 3654.62 1802.84C3657.47 1802.84 3659.78 1805.15 3659.78 1808 3659.78 1810.85 3657.47 1813.16 3654.62 1813.16L3634 1813.16C3631.15 1813.16 3628.84 1810.85 3628.84 1808 3628.84 1805.15 3631.15 1802.84 3634 1802.84ZM3675.25 1802.84 3695.88 1802.84C3698.72 1802.84 3701.03 1805.15 3701.03 1808 3701.03 1810.85 3698.72 1813.16 3695.88 1813.16L3675.25 1813.16C3672.4 1813.16 3670.09 1810.85 3670.09 1808 3670.09 1805.15 3672.4 1802.84 3675.25 1802.84ZM3716.5 1802.84 3737.12 1802.84C3739.97 1802.84 3742.28 1805.15 3742.28 1808 3742.28 1810.85 3739.97 1813.16 3737.12 1813.16L3716.5 1813.16C3713.65 1813.16 3711.34 1810.85 3711.34 1808 3711.34 1805.15 3713.65 1802.84 3716.5 1802.84ZM3757.75 1802.84 3778.38 1802.84C3781.22 1802.84 3783.53 1805.15 3783.53 1808 3783.53 1810.85 3781.22 1813.16 3778.38 1813.16L3757.75 1813.16C3754.9 1813.16 3752.59 1810.85 3752.59 1808 3752.59 1805.15 3754.9 1802.84 3757.75 1802.84ZM3799 1802.84 3819.62 1802.84C3822.47 1802.84 3824.78 1805.15 3824.78 1808 3824.78 1810.85 3822.47 1813.16 3819.62 1813.16L3799 1813.16C3796.15 1813.16 3793.84 1810.85 3793.84 1808 3793.84 1805.15 3796.15 1802.84 3799 1802.84ZM3840.25 1802.84 3860.88 1802.84C3863.72 1802.84 3866.03 1805.15 3866.03 1808 3866.03 1810.85 3863.72 1813.16 3860.88 1813.16L3840.25 1813.16C3837.4 1813.16 3835.09 1810.85 3835.09 1808 3835.09 1805.15 3837.4 1802.84 3840.25 1802.84ZM3881.5 1802.84 3902.12 1802.84C3904.97 1802.84 3907.28 1805.15 3907.28 1808 3907.28 1810.85 3904.97 1813.16 3902.12 1813.16L3881.5 1813.16C3878.65 1813.16 3876.34 1810.85 3876.34 1808 3876.34 1805.15 3878.65 1802.84 3881.5 1802.84ZM3922.75 1802.84 3943.38 1802.84C3946.22 1802.84 3948.53 1805.15 3948.53 1808 3948.53 1810.85 3946.22 1813.16 3943.38 1813.16L3922.75 1813.16C3919.9 1813.16 3917.59 1810.85 3917.59 1808 3917.59 1805.15 3919.9 1802.84 3922.75 1802.84ZM3964 1802.84 3984.62 1802.84C3987.47 1802.84 3989.78 1805.15 3989.78 1808 3989.78 1810.85 3987.47 1813.16 3984.62 1813.16L3964 1813.16C3961.15 1813.16 3958.84 1810.85 3958.84 1808 3958.84 1805.15 3961.15 1802.84 3964 1802.84ZM4005.25 1802.84 4025.88 1802.84C4028.72 1802.84 4031.03 1805.15 4031.03 1808 4031.03 1810.85 4028.72 1813.16 4025.88 1813.16L4005.25 1813.16C4002.4 1813.16 4000.09 1810.85 4000.09 1808 4000.09 1805.15 4002.4 1802.84 4005.25 1802.84ZM4046.5 1802.84 4060 1802.84C4062.85 1802.84 4065.16 1805.15 4065.16 1808 4065.16 1810.85 4062.85 1813.16 4060 1813.16L4046.5 1813.16C4043.65 1813.16 4041.34 1810.85 4041.34 1808 4041.34 1805.15 4043.65 1802.84 4046.5 1802.84Z" fill="#00B050" fill-rule="nonzero" fill-opacity="1"/></g><g><path d="M1159 2263.84 1179.63 2263.84C1182.47 2263.84 1184.78 2266.15 1184.78 2269 1184.78 2271.85 1182.47 2274.16 1179.63 2274.16L1159 2274.16C1156.15 2274.16 1153.84 2271.85 1153.84 2269 1153.84 2266.15 1156.15 2263.84 1159 2263.84ZM1200.25 2263.84 1220.88 2263.84C1223.72 2263.84 1226.03 2266.15 1226.03 2269 1226.03 2271.85 1223.72 2274.16 1220.88 2274.16L1200.25 2274.16C1197.4 2274.16 1195.09 2271.85 1195.09 2269 1195.09 2266.15 1197.4 2263.84 1200.25 2263.84ZM1241.5 2263.84 1262.13 2263.84C1264.97 2263.84 1267.28 2266.15 1267.28 2269 1267.28 2271.85 1264.97 2274.16 1262.13 2274.16L1241.5 2274.16C1238.65 2274.16 1236.34 2271.85 1236.34 2269 1236.34 2266.15 1238.65 2263.84 1241.5 2263.84ZM1282.75 2263.84 1303.38 2263.84C1306.22 2263.84 1308.53 2266.15 1308.53 2269 1308.53 2271.85 1306.22 2274.16 1303.38 2274.16L1282.75 2274.16C1279.9 2274.16 1277.59 2271.85 1277.59 2269 1277.59 2266.15 1279.9 2263.84 1282.75 2263.84ZM1324 2263.84 1340.04 2263.84 1344.63 2263.84C1347.47 2263.84 1349.78 2266.15 1349.78 2269 1349.78 2271.85 1347.47 2274.16 1344.63 2274.16L1340.04 2274.16 1324 2274.16C1321.15 2274.16 1318.84 2271.85 1318.84 2269 1318.84 2266.15 1321.15 2263.84 1324 2263.84ZM1365.25 2263.84 1385.88 2263.84C1388.72 2263.84 1391.03 2266.15 1391.03 2269 1391.03 2271.85 1388.72 2274.16 1385.88 2274.16L1365.25 2274.16C1362.4 2274.16 1360.09 2271.85 1360.09 2269 1360.09 2266.15 1362.4 2263.84 1365.25 2263.84ZM1406.5 2263.84 1427.13 2263.84C1429.97 2263.84 1432.28 2266.15 1432.28 2269 1432.28 2271.85 1429.97 2274.16 1427.13 2274.16L1406.5 2274.16C1403.65 2274.16 1401.34 2271.85 1401.34 2269 1401.34 2266.15 1403.65 2263.84 1406.5 2263.84ZM1447.75 2263.84 1468.38 2263.84C1471.22 2263.84 1473.53 2266.15 1473.53 2269 1473.53 2271.85 1471.22 2274.16 1468.38 2274.16L1447.75 2274.16C1444.9 2274.16 1442.59 2271.85 1442.59 2269 1442.59 2266.15 1444.9 2263.84 1447.75 2263.84ZM1489 2263.84 1509.63 2263.84C1512.47 2263.84 1514.78 2266.15 1514.78 2269 1514.78 2271.85 1512.47 2274.16 1509.63 2274.16L1489 2274.16C1486.15 2274.16 1483.84 2271.85 1483.84 2269 1483.84 2266.15 1486.15 2263.84 1489 2263.84ZM1530.25 2263.84 1550.88 2263.84C1553.72 2263.84 1556.03 2266.15 1556.03 2269 1556.03 2271.85 1553.72 2274.16 1550.88 2274.16L1530.25 2274.16C1527.4 2274.16 1525.09 2271.85 1525.09 2269 1525.09 2266.15 1527.4 2263.84 1530.25 2263.84ZM1571.5 2263.84 1592.13 2263.84C1594.97 2263.84 1597.28 2266.15 1597.28 2269 1597.28 2271.85 1594.97 2274.16 1592.13 2274.16L1571.5 2274.16C1568.65 2274.16 1566.34 2271.85 1566.34 2269 1566.34 2266.15 1568.65 2263.84 1571.5 2263.84ZM1612.75 2263.84 1633.38 2263.84C1636.22 2263.84 1638.53 2266.15 1638.53 2269 1638.53 2271.85 1636.22 2274.16 1633.38 2274.16L1612.75 2274.16C1609.9 2274.16 1607.59 2271.85 1607.59 2269 1607.59 2266.15 1609.9 2263.84 1612.75 2263.84ZM1654 2263.84 1674.63 2263.84C1677.47 2263.84 1679.78 2266.15 1679.78 2269 1679.78 2271.85 1677.47 2274.16 1674.63 2274.16L1654 2274.16C1651.15 2274.16 1648.84 2271.85 1648.84 2269 1648.84 2266.15 1651.15 2263.84 1654 2263.84ZM1695.25 2263.84 1703.06 2263.84 1715.88 2263.84C1718.72 2263.84 1721.03 2266.15 1721.03 2269 1721.03 2271.85 1718.72 2274.16 1715.88 2274.16L1703.06 2274.16 1695.25 2274.16C1692.4 2274.16 1690.09 2271.85 1690.09 2269 1690.09 2266.15 1692.4 2263.84 1695.25 2263.84ZM1736.5 2263.84 1757.13 2263.84C1759.97 2263.84 1762.28 2266.15 1762.28 2269 1762.28 2271.85 1759.97 2274.16 1757.13 2274.16L1736.5 2274.16C1733.65 2274.16 1731.34 2271.85 1731.34 2269 1731.34 2266.15 1733.65 2263.84 1736.5 2263.84ZM1777.75 2263.84 1798.38 2263.84C1801.22 2263.84 1803.53 2266.15 1803.53 2269 1803.53 2271.85 1801.22 2274.16 1798.38 2274.16L1777.75 2274.16C1774.9 2274.16 1772.59 2271.85 1772.59 2269 1772.59 2266.15 1774.9 2263.84 1777.75 2263.84ZM1819 2263.84 1839.63 2263.84C1842.47 2263.84 1844.78 2266.15 1844.78 2269 1844.78 2271.85 1842.47 2274.16 1839.63 2274.16L1819 2274.16C1816.15 2274.16 1813.84 2271.85 1813.84 2269 1813.84 2266.15 1816.15 2263.84 1819 2263.84ZM1860.25 2263.84 1880.88 2263.84C1883.72 2263.84 1886.03 2266.15 1886.03 2269 1886.03 2271.85 1883.72 2274.16 1880.88 2274.16L1860.25 2274.16C1857.4 2274.16 1855.09 2271.85 1855.09 2269 1855.09 2266.15 1857.4 2263.84 1860.25 2263.84ZM1901.5 2263.84 1922.13 2263.84C1924.97 2263.84 1927.28 2266.15 1927.28 2269 1927.28 2271.85 1924.97 2274.16 1922.13 2274.16L1901.5 2274.16C1898.65 2274.16 1896.34 2271.85 1896.34 2269 1896.34 2266.15 1898.65 2263.84 1901.5 2263.84ZM1942.75 2263.84 1963.38 2263.84C1966.22 2263.84 1968.53 2266.15 1968.53 2269 1968.53 2271.85 1966.22 2274.16 1963.38 2274.16L1942.75 2274.16C1939.9 2274.16 1937.59 2271.85 1937.59 2269 1937.59 2266.15 1939.9 2263.84 1942.75 2263.84ZM1984 2263.84 2004.63 2263.84C2007.47 2263.84 2009.78 2266.15 2009.78 2269 2009.78 2271.85 2007.47 2274.16 2004.63 2274.16L1984 2274.16C1981.15 2274.16 1978.84 2271.85 1978.84 2269 1978.84 2266.15 1981.15 2263.84 1984 2263.84ZM2025.25 2263.84 2045.88 2263.84C2048.72 2263.84 2051.03 2266.15 2051.03 2269 2051.03 2271.85 2048.72 2274.16 2045.88 2274.16L2025.25 2274.16C2022.4 2274.16 2020.09 2271.85 2020.09 2269 2020.09 2266.15 2022.4 2263.84 2025.25 2263.84ZM2066.5 2263.84 2087.12 2263.84C2089.97 2263.84 2092.28 2266.15 2092.28 2269 2092.28 2271.85 2089.97 2274.16 2087.12 2274.16L2066.5 2274.16C2063.65 2274.16 2061.34 2271.85 2061.34 2269 2061.34 2266.15 2063.65 2263.84 2066.5 2263.84ZM2107.75 2263.84 2128.38 2263.84C2131.22 2263.84 2133.53 2266.15 2133.53 2269 2133.53 2271.85 2131.22 2274.16 2128.38 2274.16L2107.75 2274.16C2104.9 2274.16 2102.59 2271.85 2102.59 2269 2102.59 2266.15 2104.9 2263.84 2107.75 2263.84ZM2149 2263.84 2169.62 2263.84C2172.47 2263.84 2174.78 2266.15 2174.78 2269 2174.78 2271.85 2172.47 2274.16 2169.62 2274.16L2149 2274.16C2146.15 2274.16 2143.84 2271.85 2143.84 2269 2143.84 2266.15 2146.15 2263.84 2149 2263.84ZM2190.25 2263.84 2210.88 2263.84C2213.72 2263.84 2216.03 2266.15 2216.03 2269 2216.03 2271.85 2213.72 2274.16 2210.88 2274.16L2190.25 2274.16C2187.4 2274.16 2185.09 2271.85 2185.09 2269 2185.09 2266.15 2187.4 2263.84 2190.25 2263.84ZM2231.5 2263.84 2246.07 2263.84 2252.12 2263.84C2254.97 2263.84 2257.28 2266.15 2257.28 2269 2257.28 2271.85 2254.97 2274.16 2252.12 2274.16L2246.07 2274.16 2231.5 2274.16C2228.65 2274.16 2226.34 2271.85 2226.34 2269 2226.34 2266.15 2228.65 2263.84 2231.5 2263.84ZM2272.75 2263.84 2293.38 2263.84C2296.22 2263.84 2298.53 2266.15 2298.53 2269 2298.53 2271.85 2296.22 2274.16 2293.38 2274.16L2272.75 2274.16C2269.9 2274.16 2267.59 2271.85 2267.59 2269 2267.59 2266.15 2269.9 2263.84 2272.75 2263.84ZM2314 2263.84 2334.62 2263.84C2337.47 2263.84 2339.78 2266.15 2339.78 2269 2339.78 2271.85 2337.47 2274.16 2334.62 2274.16L2314 2274.16C2311.15 2274.16 2308.84 2271.85 2308.84 2269 2308.84 2266.15 2311.15 2263.84 2314 2263.84ZM2355.25 2263.84 2375.88 2263.84C2378.72 2263.84 2381.03 2266.15 2381.03 2269 2381.03 2271.85 2378.72 2274.16 2375.88 2274.16L2355.25 2274.16C2352.4 2274.16 2350.09 2271.85 2350.09 2269 2350.09 2266.15 2352.4 2263.84 2355.25 2263.84ZM2396.5 2263.84 2417.12 2263.84C2419.97 2263.84 2422.28 2266.15 2422.28 2269 2422.28 2271.85 2419.97 2274.16 2417.12 2274.16L2396.5 2274.16C2393.65 2274.16 2391.34 2271.85 2391.34 2269 2391.34 2266.15 2393.65 2263.84 2396.5 2263.84ZM2437.75 2263.84 2458.38 2263.84C2461.22 2263.84 2463.53 2266.15 2463.53 2269 2463.53 2271.85 2461.22 2274.16 2458.38 2274.16L2437.75 2274.16C2434.9 2274.16 2432.59 2271.85 2432.59 2269 2432.59 2266.15 2434.9 2263.84 2437.75 2263.84ZM2479 2263.84 2499.62 2263.84C2502.47 2263.84 2504.78 2266.15 2504.78 2269 2504.78 2271.85 2502.47 2274.16 2499.62 2274.16L2479 2274.16C2476.15 2274.16 2473.84 2271.85 2473.84 2269 2473.84 2266.15 2476.15 2263.84 2479 2263.84ZM2520.25 2263.84 2540.88 2263.84C2543.72 2263.84 2546.03 2266.15 2546.03 2269 2546.03 2271.85 2543.72 2274.16 2540.88 2274.16L2520.25 2274.16C2517.4 2274.16 2515.09 2271.85 2515.09 2269 2515.09 2266.15 2517.4 2263.84 2520.25 2263.84ZM2561.5 2263.84 2582.12 2263.84C2584.97 2263.84 2587.28 2266.15 2587.28 2269 2587.28 2271.85 2584.97 2274.16 2582.12 2274.16L2561.5 2274.16C2558.65 2274.16 2556.34 2271.85 2556.34 2269 2556.34 2266.15 2558.65 2263.84 2561.5 2263.84ZM2602.75 2263.84 2609.09 2263.84 2623.38 2263.84C2626.22 2263.84 2628.53 2266.15 2628.53 2269 2628.53 2271.85 2626.22 2274.16 2623.38 2274.16L2609.09 2274.16 2602.75 2274.16C2599.9 2274.16 2597.59 2271.85 2597.59 2269 2597.59 2266.15 2599.9 2263.84 2602.75 2263.84ZM2644 2263.84 2664.62 2263.84C2667.47 2263.84 2669.78 2266.15 2669.78 2269 2669.78 2271.85 2667.47 2274.16 2664.62 2274.16L2644 2274.16C2641.15 2274.16 2638.84 2271.85 2638.84 2269 2638.84 2266.15 2641.15 2263.84 2644 2263.84ZM2685.25 2263.84 2705.88 2263.84C2708.72 2263.84 2711.03 2266.15 2711.03 2269 2711.03 2271.85 2708.72 2274.16 2705.88 2274.16L2685.25 2274.16C2682.4 2274.16 2680.09 2271.85 2680.09 2269 2680.09 2266.15 2682.4 2263.84 2685.25 2263.84ZM2726.5 2263.84 2747.12 2263.84C2749.97 2263.84 2752.28 2266.15 2752.28 2269 2752.28 2271.85 2749.97 2274.16 2747.12 2274.16L2726.5 2274.16C2723.65 2274.16 2721.34 2271.85 2721.34 2269 2721.34 2266.15 2723.65 2263.84 2726.5 2263.84ZM2767.75 2263.84 2788.38 2263.84C2791.22 2263.84 2793.53 2266.15 2793.53 2269 2793.53 2271.85 2791.22 2274.16 2788.38 2274.16L2767.75 2274.16C2764.9 2274.16 2762.59 2271.85 2762.59 2269 2762.59 2266.15 2764.9 2263.84 2767.75 2263.84ZM2809 2263.84 2829.62 2263.84C2832.47 2263.84 2834.78 2266.15 2834.78 2269 2834.78 2271.85 2832.47 2274.16 2829.62 2274.16L2809 2274.16C2806.15 2274.16 2803.84 2271.85 2803.84 2269 2803.84 2266.15 2806.15 2263.84 2809 2263.84ZM2850.25 2263.84 2870.88 2263.84C2873.72 2263.84 2876.03 2266.15 2876.03 2269 2876.03 2271.85 2873.72 2274.16 2870.88 2274.16L2850.25 2274.16C2847.4 2274.16 2845.09 2271.85 2845.09 2269 2845.09 2266.15 2847.4 2263.84 2850.25 2263.84ZM2891.5 2263.84 2912.12 2263.84C2914.97 2263.84 2917.28 2266.15 2917.28 2269 2917.28 2271.85 2914.97 2274.16 2912.12 2274.16L2891.5 2274.16C2888.65 2274.16 2886.34 2271.85 2886.34 2269 2886.34 2266.15 2888.65 2263.84 2891.5 2263.84ZM2932.75 2263.84 2953.38 2263.84C2956.22 2263.84 2958.53 2266.15 2958.53 2269 2958.53 2271.85 2956.22 2274.16 2953.38 2274.16L2932.75 2274.16C2929.9 2274.16 2927.59 2271.85 2927.59 2269 2927.59 2266.15 2929.9 2263.84 2932.75 2263.84ZM2974 2263.84 2994.62 2263.84C2997.47 2263.84 2999.78 2266.15 2999.78 2269 2999.78 2271.85 2997.47 2274.16 2994.62 2274.16L2974 2274.16C2971.15 2274.16 2968.84 2271.85 2968.84 2269 2968.84 2266.15 2971.15 2263.84 2974 2263.84ZM3015.25 2263.84 3035.88 2263.84C3038.72 2263.84 3041.03 2266.15 3041.03 2269 3041.03 2271.85 3038.72 2274.16 3035.88 2274.16L3015.25 2274.16C3012.4 2274.16 3010.09 2271.85 3010.09 2269 3010.09 2266.15 3012.4 2263.84 3015.25 2263.84ZM3056.5 2263.84 3077.12 2263.84C3079.97 2263.84 3082.28 2266.15 3082.28 2269 3082.28 2271.85 3079.97 2274.16 3077.12 2274.16L3056.5 2274.16C3053.65 2274.16 3051.34 2271.85 3051.34 2269 3051.34 2266.15 3053.65 2263.84 3056.5 2263.84ZM3097.75 2263.84 3118.38 2263.84C3121.22 2263.84 3123.53 2266.15 3123.53 2269 3123.53 2271.85 3121.22 2274.16 3118.38 2274.16L3097.75 2274.16C3094.9 2274.16 3092.59 2271.85 3092.59 2269 3092.59 2266.15 3094.9 2263.84 3097.75 2263.84ZM3139 2263.84 3153.1 2263.84 3159.62 2263.84C3162.47 2263.84 3164.78 2266.15 3164.78 2269 3164.78 2271.85 3162.47 2274.16 3159.62 2274.16L3153.1 2274.16 3139 2274.16C3136.15 2274.16 3133.84 2271.85 3133.84 2269 3133.84 2266.15 3136.15 2263.84 3139 2263.84ZM3180.25 2263.84 3200.88 2263.84C3203.72 2263.84 3206.03 2266.15 3206.03 2269 3206.03 2271.85 3203.72 2274.16 3200.88 2274.16L3180.25 2274.16C3177.4 2274.16 3175.09 2271.85 3175.09 2269 3175.09 2266.15 3177.4 2263.84 3180.25 2263.84ZM3221.5 2263.84 3242.12 2263.84C3244.97 2263.84 3247.28 2266.15 3247.28 2269 3247.28 2271.85 3244.97 2274.16 3242.12 2274.16L3221.5 2274.16C3218.65 2274.16 3216.34 2271.85 3216.34 2269 3216.34 2266.15 3218.65 2263.84 3221.5 2263.84ZM3262.75 2263.84 3283.38 2263.84C3286.22 2263.84 3288.53 2266.15 3288.53 2269 3288.53 2271.85 3286.22 2274.16 3283.38 2274.16L3262.75 2274.16C3259.9 2274.16 3257.59 2271.85 3257.59 2269 3257.59 2266.15 3259.9 2263.84 3262.75 2263.84ZM3304 2263.84 3324.62 2263.84C3327.47 2263.84 3329.78 2266.15 3329.78 2269 3329.78 2271.85 3327.47 2274.16 3324.62 2274.16L3304 2274.16C3301.15 2274.16 3298.84 2271.85 3298.84 2269 3298.84 2266.15 3301.15 2263.84 3304 2263.84ZM3345.25 2263.84 3365.88 2263.84C3368.72 2263.84 3371.03 2266.15 3371.03 2269 3371.03 2271.85 3368.72 2274.16 3365.88 2274.16L3345.25 2274.16C3342.4 2274.16 3340.09 2271.85 3340.09 2269 3340.09 2266.15 3342.4 2263.84 3345.25 2263.84ZM3386.5 2263.84 3407.12 2263.84C3409.97 2263.84 3412.28 2266.15 3412.28 2269 3412.28 2271.85 3409.97 2274.16 3407.12 2274.16L3386.5 2274.16C3383.65 2274.16 3381.34 2271.85 3381.34 2269 3381.34 2266.15 3383.65 2263.84 3386.5 2263.84ZM3427.75 2263.84 3448.38 2263.84C3451.22 2263.84 3453.53 2266.15 3453.53 2269 3453.53 2271.85 3451.22 2274.16 3448.38 2274.16L3427.75 2274.16C3424.9 2274.16 3422.59 2271.85 3422.59 2269 3422.59 2266.15 3424.9 2263.84 3427.75 2263.84ZM3469 2263.84 3489.62 2263.84C3492.47 2263.84 3494.78 2266.15 3494.78 2269 3494.78 2271.85 3492.47 2274.16 3489.62 2274.16L3469 2274.16C3466.15 2274.16 3463.84 2271.85 3463.84 2269 3463.84 2266.15 3466.15 2263.84 3469 2263.84ZM3510.25 2263.84 3516.12 2263.84 3530.88 2263.84C3533.72 2263.84 3536.03 2266.15 3536.03 2269 3536.03 2271.85 3533.72 2274.16 3530.88 2274.16L3516.12 2274.16 3510.25 2274.16C3507.4 2274.16 3505.09 2271.85 3505.09 2269 3505.09 2266.15 3507.4 2263.84 3510.25 2263.84ZM3551.5 2263.84 3572.12 2263.84C3574.97 2263.84 3577.28 2266.15 3577.28 2269 3577.28 2271.85 3574.97 2274.16 3572.12 2274.16L3551.5 2274.16C3548.65 2274.16 3546.34 2271.85 3546.34 2269 3546.34 2266.15 3548.65 2263.84 3551.5 2263.84ZM3592.75 2263.84 3613.38 2263.84C3616.22 2263.84 3618.53 2266.15 3618.53 2269 3618.53 2271.85 3616.22 2274.16 3613.38 2274.16L3592.75 2274.16C3589.9 2274.16 3587.59 2271.85 3587.59 2269 3587.59 2266.15 3589.9 2263.84 3592.75 2263.84ZM3634 2263.84 3654.62 2263.84C3657.47 2263.84 3659.78 2266.15 3659.78 2269 3659.78 2271.85 3657.47 2274.16 3654.62 2274.16L3634 2274.16C3631.15 2274.16 3628.84 2271.85 3628.84 2269 3628.84 2266.15 3631.15 2263.84 3634 2263.84ZM3675.25 2263.84 3695.88 2263.84C3698.72 2263.84 3701.03 2266.15 3701.03 2269 3701.03 2271.85 3698.72 2274.16 3695.88 2274.16L3675.25 2274.16C3672.4 2274.16 3670.09 2271.85 3670.09 2269 3670.09 2266.15 3672.4 2263.84 3675.25 2263.84ZM3716.5 2263.84 3737.12 2263.84C3739.97 2263.84 3742.28 2266.15 3742.28 2269 3742.28 2271.85 3739.97 2274.16 3737.12 2274.16L3716.5 2274.16C3713.65 2274.16 3711.34 2271.85 3711.34 2269 3711.34 2266.15 3713.65 2263.84 3716.5 2263.84ZM3757.75 2263.84 3778.38 2263.84C3781.22 2263.84 3783.53 2266.15 3783.53 2269 3783.53 2271.85 3781.22 2274.16 3778.38 2274.16L3757.75 2274.16C3754.9 2274.16 3752.59 2271.85 3752.59 2269 3752.59 2266.15 3754.9 2263.84 3757.75 2263.84ZM3799 2263.84 3819.62 2263.84C3822.47 2263.84 3824.78 2266.15 3824.78 2269 3824.78 2271.85 3822.47 2274.16 3819.62 2274.16L3799 2274.16C3796.15 2274.16 3793.84 2271.85 3793.84 2269 3793.84 2266.15 3796.15 2263.84 3799 2263.84ZM3840.25 2263.84 3860.88 2263.84C3863.72 2263.84 3866.03 2266.15 3866.03 2269 3866.03 2271.85 3863.72 2274.16 3860.88 2274.16L3840.25 2274.16C3837.4 2274.16 3835.09 2271.85 3835.09 2269 3835.09 2266.15 3837.4 2263.84 3840.25 2263.84ZM3881.5 2263.84 3902.12 2263.84C3904.97 2263.84 3907.28 2266.15 3907.28 2269 3907.28 2271.85 3904.97 2274.16 3902.12 2274.16L3881.5 2274.16C3878.65 2274.16 3876.34 2271.85 3876.34 2269 3876.34 2266.15 3878.65 2263.84 3881.5 2263.84ZM3922.75 2263.84 3943.38 2263.84C3946.22 2263.84 3948.53 2266.15 3948.53 2269 3948.53 2271.85 3946.22 2274.16 3943.38 2274.16L3922.75 2274.16C3919.9 2274.16 3917.59 2271.85 3917.59 2269 3917.59 2266.15 3919.9 2263.84 3922.75 2263.84ZM3964 2263.84 3984.62 2263.84C3987.47 2263.84 3989.78 2266.15 3989.78 2269 3989.78 2271.85 3987.47 2274.16 3984.62 2274.16L3964 2274.16C3961.15 2274.16 3958.84 2271.85 3958.84 2269 3958.84 2266.15 3961.15 2263.84 3964 2263.84ZM4005.25 2263.84 4025.88 2263.84C4028.72 2263.84 4031.03 2266.15 4031.03 2269 4031.03 2271.85 4028.72 2274.16 4025.88 2274.16L4005.25 2274.16C4002.4 2274.16 4000.09 2271.85 4000.09 2269 4000.09 2266.15 4002.4 2263.84 4005.25 2263.84ZM4046.5 2263.84 4060 2263.84C4062.85 2263.84 4065.16 2266.15 4065.16 2269 4065.16 2271.85 4062.85 2274.16 4060 2274.16L4046.5 2274.16C4043.65 2274.16 4041.34 2271.85 4041.34 2269 4041.34 2266.15 4043.65 2263.84 4046.5 2263.84Z" fill="#FF0000" fill-rule="nonzero" fill-opacity="1"/></g><g><text fill="#595959" fill-opacity="1" font-family="Calibri,Calibri_MSFontService,sans-serif" font-style="normal" font-variant="normal" font-weight="400" font-stretch="normal" font-size="41" text-anchor="start" direction="ltr" writing-mode="lr-tb" unicode-bidi="normal" text-decoration="none" transform="matrix(1 0 0 1 927.052 2855)">0.00%</text></g><g><text fill="#595959" fill-opacity="1" font-family="Calibri,Calibri_MSFontService,sans-serif" font-style="normal" font-variant="normal" font-weight="400" font-stretch="normal" font-size="41" text-anchor="start" direction="ltr" writing-mode="lr-tb" unicode-bidi="normal" text-decoration="none" transform="matrix(1 0 0 1 906.152 2740)">10.00%</text></g><g><text fill="#595959" fill-opacity="1" font-family="Calibri,Calibri_MSFontService,sans-serif" font-style="normal" font-variant="normal" font-weight="400" font-stretch="normal" font-size="41" text-anchor="start" direction="ltr" writing-mode="lr-tb" unicode-bidi="normal" text-decoration="none" transform="matrix(1 0 0 1 906.152 2625)">20.00%</text></g><g><text fill="#595959" fill-opacity="1" font-family="Calibri,Calibri_MSFontService,sans-serif" font-style="normal" font-variant="normal" font-weight="400" font-stretch="normal" font-size="41" text-anchor="start" direction="ltr" writing-mode="lr-tb" unicode-bidi="normal" text-decoration="none" transform="matrix(1 0 0 1 906.152 2510)">30.00%</text></g><g><text fill="#595959" fill-opacity="1" font-family="Calibri,Calibri_MSFontService,sans-serif" font-style="normal" font-variant="normal" font-weight="400" font-stretch="normal" font-size="41" text-anchor="start" direction="ltr" writing-mode="lr-tb" unicode-bidi="normal" text-decoration="none" transform="matrix(1 0 0 1 906.152 2394)">40.00%</text></g><g><text fill="#595959" fill-opacity="1" font-family="Calibri,Calibri_MSFontService,sans-serif" font-style="normal" font-variant="normal" font-weight="400" font-stretch="normal" font-size="41" text-anchor="start" direction="ltr" writing-mode="lr-tb" unicode-bidi="normal" text-decoration="none" transform="matrix(1 0 0 1 906.152 2279)">50.00%</text></g><g><text fill="#595959" fill-opacity="1" font-family="Calibri,Calibri_MSFontService,sans-serif" font-style="normal" font-variant="normal" font-weight="400" font-stretch="normal" font-size="41" text-anchor="start" direction="ltr" writing-mode="lr-tb" unicode-bidi="normal" text-decoration="none" transform="matrix(1 0 0 1 906.152 2164)">60.00%</text></g><g><text fill="#595959" fill-opacity="1" font-family="Calibri,Calibri_MSFontService,sans-serif" font-style="normal" font-variant="normal" font-weight="400" font-stretch="normal" font-size="41" text-anchor="start" direction="ltr" writing-mode="lr-tb" unicode-bidi="normal" text-decoration="none" transform="matrix(1 0 0 1 906.152 2049)">70.00%</text></g><g><text fill="#595959" fill-opacity="1" font-family="Calibri,Calibri_MSFontService,sans-serif" font-style="normal" font-variant="normal" font-weight="400" font-stretch="normal" font-size="41" text-anchor="start" direction="ltr" writing-mode="lr-tb" unicode-bidi="normal" text-decoration="none" transform="matrix(1 0 0 1 906.152 1934)">80.00%</text></g><g><text fill="#595959" fill-opacity="1" font-family="Calibri,Calibri_MSFontService,sans-serif" font-style="normal" font-variant="normal" font-weight="400" font-stretch="normal" font-size="41" text-anchor="start" direction="ltr" writing-mode="lr-tb" unicode-bidi="normal" text-decoration="none" transform="matrix(1 0 0 1 906.152 1818)">90.00%</text></g><g><text fill="#595959" fill-opacity="1" font-family="Calibri,Calibri_MSFontService,sans-serif" font-style="normal" font-variant="normal" font-weight="400" font-stretch="normal" font-size="41" text-anchor="start" direction="ltr" writing-mode="lr-tb" unicode-bidi="normal" text-decoration="none" transform="matrix(1 0 0 1 885.252 1703)">100.00%</text></g><g><text fill="#595959" fill-opacity="1" font-family="Calibri,Calibri_MSFontService,sans-serif" font-style="normal" font-variant="normal" font-weight="400" font-stretch="normal" font-size="41" text-anchor="start" direction="ltr" writing-mode="lr-tb" unicode-bidi="normal" text-decoration="none" transform="matrix(1 0 0 1 1093.47 2910)">Sprint 1</text></g><g><text fill="#595959" fill-opacity="1" font-family="Calibri,Calibri_MSFontService,sans-serif" font-style="normal" font-variant="normal" font-weight="400" font-stretch="normal" font-size="41" text-anchor="start" direction="ltr" writing-mode="lr-tb" unicode-bidi="normal" text-decoration="none" transform="matrix(1 0 0 1 1274.8 2910)">Sprint 2</text></g><g><text fill="#595959" fill-opacity="1" font-family="Calibri,Calibri_MSFontService,sans-serif" font-style="normal" font-variant="normal" font-weight="400" font-stretch="normal" font-size="41" text-anchor="start" direction="ltr" writing-mode="lr-tb" unicode-bidi="normal" text-decoration="none" transform="matrix(1 0 0 1 1456.13 2910)">Sprint 3</text></g><g><text fill="#595959" fill-opacity="1" font-family="Calibri,Calibri_MSFontService,sans-serif" font-style="normal" font-variant="normal" font-weight="400" font-stretch="normal" font-size="41" text-anchor="start" direction="ltr" writing-mode="lr-tb" unicode-bidi="normal" text-decoration="none" transform="matrix(1 0 0 1 1637.45 2910)">Sprint 4</text></g><g><text fill="#595959" fill-opacity="1" font-family="Calibri,Calibri_MSFontService,sans-serif" font-style="normal" font-variant="normal" font-weight="400" font-stretch="normal" font-size="41" text-anchor="start" direction="ltr" writing-mode="lr-tb" unicode-bidi="normal" text-decoration="none" transform="matrix(1 0 0 1 1818.78 2910)">Sprint 5</text></g><g><text fill="#595959" fill-opacity="1" font-family="Calibri,Calibri_MSFontService,sans-serif" font-style="normal" font-variant="normal" font-weight="400" font-stretch="normal" font-size="41" text-anchor="start" direction="ltr" writing-mode="lr-tb" unicode-bidi="normal" text-decoration="none" transform="matrix(1 0 0 1 2000.1 2910)">Sprint 6</text></g><g><text fill="#595959" fill-opacity="1" font-family="Calibri,Calibri_MSFontService,sans-serif" font-style="normal" font-variant="normal" font-weight="400" font-stretch="normal" font-size="41" text-anchor="start" direction="ltr" writing-mode="lr-tb" unicode-bidi="normal" text-decoration="none" transform="matrix(1 0 0 1 2181.43 2910)">Sprint 7</text></g><g><text fill="#595959" fill-opacity="1" font-family="Calibri,Calibri_MSFontService,sans-serif" font-style="normal" font-variant="normal" font-weight="400" font-stretch="normal" font-size="41" text-anchor="start" direction="ltr" writing-mode="lr-tb" unicode-bidi="normal" text-decoration="none" transform="matrix(1 0 0 1 2362.76 2910)">Sprint 8</text></g><g><text fill="#595959" fill-opacity="1" font-family="Calibri,Calibri_MSFontService,sans-serif" font-style="normal" font-variant="normal" font-weight="400" font-stretch="normal" font-size="41" text-anchor="start" direction="ltr" writing-mode="lr-tb" unicode-bidi="normal" text-decoration="none" transform="matrix(1 0 0 1 2544.08 2910)">Sprint 9</text></g><g><text fill="#595959" fill-opacity="1" font-family="Calibri,Calibri_MSFontService,sans-serif" font-style="normal" font-variant="normal" font-weight="400" font-stretch="normal" font-size="41" text-anchor="start" direction="ltr" writing-mode="lr-tb" unicode-bidi="normal" text-decoration="none" transform="matrix(1 0 0 1 2714.96 2910)">Sprint 10</text></g><g><text fill="#595959" fill-opacity="1" font-family="Calibri,Calibri_MSFontService,sans-serif" font-style="normal" font-variant="normal" font-weight="400" font-stretch="normal" font-size="41" text-anchor="start" direction="ltr" writing-mode="lr-tb" unicode-bidi="normal" text-decoration="none" transform="matrix(1 0 0 1 2896.29 2910)">Sprint 11</text></g><g><text fill="#595959" fill-opacity="1" font-family="Calibri,Calibri_MSFontService,sans-serif" font-style="normal" font-variant="normal" font-weight="400" font-stretch="normal" font-size="41" text-anchor="start" direction="ltr" writing-mode="lr-tb" unicode-bidi="normal" text-decoration="none" transform="matrix(1 0 0 1 3077.61 2910)">Sprint 12</text></g><g><text fill="#595959" fill-opacity="1" font-family="Calibri,Calibri_MSFontService,sans-serif" font-style="normal" font-variant="normal" font-weight="400" font-stretch="normal" font-size="41" text-anchor="start" direction="ltr" writing-mode="lr-tb" unicode-bidi="normal" text-decoration="none" transform="matrix(1 0 0 1 3258.94 2910)">Sprint 13</text></g><g><text fill="#595959" fill-opacity="1" font-family="Calibri,Calibri_MSFontService,sans-serif" font-style="normal" font-variant="normal" font-weight="400" font-stretch="normal" font-size="41" text-anchor="start" direction="ltr" writing-mode="lr-tb" unicode-bidi="normal" text-decoration="none" transform="matrix(1 0 0 1 3440.26 2910)">Sprint 14</text></g><g><text fill="#595959" fill-opacity="1" font-family="Calibri,Calibri_MSFontService,sans-serif" font-style="normal" font-variant="normal" font-weight="400" font-stretch="normal" font-size="41" text-anchor="start" direction="ltr" writing-mode="lr-tb" unicode-bidi="normal" text-decoration="none" transform="matrix(1 0 0 1 3621.59 2910)">Sprint 15</text></g><g><text fill="#595959" fill-opacity="1" font-family="Calibri,Calibri_MSFontService,sans-serif" font-style="normal" font-variant="normal" font-weight="400" font-stretch="normal" font-size="41" text-anchor="start" direction="ltr" writing-mode="lr-tb" unicode-bidi="normal" text-decoration="none" transform="matrix(1 0 0 1 3802.92 2910)">Sprint 16</text></g><g><text fill="#595959" fill-opacity="1" font-family="Calibri,Calibri_MSFontService,sans-serif" font-style="normal" font-variant="normal" font-weight="400" font-stretch="normal" font-size="41" text-anchor="start" direction="ltr" writing-mode="lr-tb" unicode-bidi="normal" text-decoration="none" transform="matrix(1 0 0 1 3984.24 2910)">Sprint 17</text></g><g><text fill="#595959" fill-opacity="1" font-family="Calibri,Calibri_MSFontService,sans-serif" font-style="normal" font-variant="normal" font-weight="400" font-stretch="normal" font-size="64" text-anchor="start" direction="ltr" writing-mode="lr-tb" unicode-bidi="normal" text-decoration="none" transform="matrix(1 0 0 1 2397.87 1399)">TE</text></g><g><path d="M1825 3445 1941 3445" stroke="#4F81BD" stroke-width="10.3125" stroke-linecap="round" stroke-linejoin="round" stroke-miterlimit="10" stroke-opacity="1" fill="none" fill-rule="evenodd"/></g><g><text fill="#595959" fill-opacity="1" font-family="Calibri,Calibri_MSFontService,sans-serif" font-style="normal" font-variant="normal" font-weight="400" font-stretch="normal" font-size="41" text-anchor="start" direction="ltr" writing-mode="lr-tb" unicode-bidi="normal" text-decoration="none" transform="matrix(1 0 0 1 1953.41 3455)">TE (%)</text></g><g><path d="M2130 3439.84 2150.62 3439.84C2153.47 3439.84 2155.78 3442.15 2155.78 3445 2155.78 3447.85 2153.47 3450.16 2150.62 3450.16L2130 3450.16C2127.15 3450.16 2124.84 3447.85 2124.84 3445 2124.84 3442.15 2127.15 3439.84 2130 3439.84ZM2171.25 3439.84 2191.87 3439.84C2194.72 3439.84 2197.03 3442.15 2197.03 3445 2197.03 3447.85 2194.72 3450.16 2191.87 3450.16L2171.25 3450.16C2168.4 3450.16 2166.09 3447.85 2166.09 3445 2166.09 3442.15 2168.4 3439.84 2171.25 3439.84ZM2212.5 3439.84 2233.12 3439.84C2235.97 3439.84 2238.28 3442.15 2238.28 3445 2238.28 3447.85 2235.97 3450.16 2233.12 3450.16L2212.5 3450.16C2209.65 3450.16 2207.34 3447.85 2207.34 3445 2207.34 3442.15 2209.65 3439.84 2212.5 3439.84Z" fill="#00B050" fill-rule="nonzero" fill-opacity="1"/></g><g><text fill="#595959" fill-opacity="1" font-family="Calibri,Calibri_MSFontService,sans-serif" font-style="normal" font-variant="normal" font-weight="400" font-stretch="normal" font-size="41" text-anchor="start" direction="ltr" writing-mode="lr-tb" unicode-bidi="normal" text-decoration="none" transform="matrix(1 0 0 1 2258.4 3455)">Soglia ott. (≥90%)</text></g><g><path d="M2625 3439.84 2645.62 3439.84C2648.47 3439.84 2650.78 3442.15 2650.78 3445 2650.78 3447.85 2648.47 3450.16 2645.62 3450.16L2625 3450.16C2622.15 3450.16 2619.84 3447.85 2619.84 3445 2619.84 3442.15 2622.15 3439.84 2625 3439.84ZM2666.25 3439.84 2686.87 3439.84C2689.72 3439.84 2692.03 3442.15 2692.03 3445 2692.03 3447.85 2689.72 3450.16 2686.87 3450.16L2666.25 3450.16C2663.4 3450.16 2661.09 3447.85 2661.09 3445 2661.09 3442.15 2663.4 3439.84 2666.25 3439.84ZM2707.5 3439.84 2728.12 3439.84C2730.97 3439.84 2733.28 3442.15 2733.28 3445 2733.28 3447.85 2730.97 3450.16 2728.12 3450.16L2707.5 3450.16C2704.65 3450.16 2702.34 3447.85 2702.34 3445 2702.34 3442.15 2704.65 3439.84 2707.5 3439.84Z" fill="#FF0000" fill-rule="nonzero" fill-opacity="1"/></g><g><text fill="#595959" fill-opacity="1" font-family="Calibri,Calibri_MSFontService,sans-serif" font-style="normal" font-variant="normal" font-weight="400" font-stretch="normal" font-size="41" text-anchor="start" direction="ltr" writing-mode="lr-tb" unicode-bidi="normal" text-decoration="none" transform="matrix(1 0 0 1 2753.4 3455)">Soglia acc. (≥50%)</text></g><rect x="596.5" y="1304.5" width="3666" height="2207" stroke="#D9D9D9" stroke-width="3.4375" stroke-linecap="butt" stroke-linejoin="round" stroke-miterlimit="10" stroke-opacity="1" fill="none"/></g></g></svg>