<svg width="2984" height="1595" xmlns="http://www.w3.org/2000/svg" xmlns:xlink="http://www.w3.org/1999/xlink" xml:space="preserve" overflow="hidden"><defs><clipPath id="clip0"><rect x="2337" y="472" width="2984" height="1595"/></clipPath><clipPath id="clip1"><rect x="2337" y="472" width="2984" height="1595"/></clipPath></defs><g clip-path="url(#clip0)" transform="translate(-2337 -472)"><g clip-path="url(#clip1)"><rect x="2342" y="474" width="2975" height="1588" fill="#FFFFFF" fill-opacity="1"/><g><path d="M2549.5 1907.5 5266.5 1907.5M2549.5 1792.56 5266.5 1792.56M2549.5 1562.55 5266.5 1562.55M2549.5 1447.55 5266.5 1447.55M2549.5 1333.54 5266.5 1333.54M2549.5 1218.54 5266.5 1218.54M2549.5 1103.54 5266.5 1103.54M2549.5 988.533 5266.5 988.533M2549.5 873.529 5266.5 873.529M2549.5 759.525 5266.5 759.525M2549.5 644.5 5266.5 644.5" stroke="#D9D9D9" stroke-width="3.4375" stroke-linecap="butt" stroke-linejoin="round" stroke-miterlimit="10" stroke-opacity="1" fill="none" fill-rule="nonzero"/></g><g><path d="M2549.5 1677.5 5266.5 1677.5" stroke="#D9D9D9" stroke-width="3.4375" stroke-linecap="butt" stroke-linejoin="round" stroke-miterlimit="10" stroke-opacity="1" fill="none" fill-rule="evenodd"/></g><g><path d="M2629 1677.66C2667.88 1677.66 2749.94 1747.46 2788.81 1677.66 2842.08 1582.03 2895.35 1103.84 2948.62 1103.84 3001.9 1103.84 3055.17 1582.03 3108.44 1677.66 3147.31 1747.46 3229.37 1741.11 3268.25 1677.66 3321.52 1590.72 3374.79 1275.55 3428.06 1156.01 3479.47 1040.65 3536.47 1030.3 3587.88 960.384 3641.15 887.932 3694.42 640 3747.69 721.292 3800.96 802.583 3854.23 1288.74 3907.5 1448.13 3951.82 1580.76 4022.99 1645.83 4067.31 1677.66 4120.58 1715.92 4173.85 1677.66 4227.13 1677.66 4253.7 1677.66 4360.36 1753 4386.94 1677.66 4440.21 1526.66 4493.48 908.252 4546.75 771.627 4579.73 687.035 4673.58 826.751 4706.56 857.916 4759.83 908.252 4813.1 968.893 4866.38 1073.64 4919.65 1178.38 4972.92 1385.72 5026.19 1486.39 5079.46 1587.06 5132.73 1613.9 5186 1677.66" stroke="#1F497D" stroke-width="10.3125" stroke-linecap="round" stroke-linejoin="round" stroke-miterlimit="10" stroke-opacity="1" fill="none" fill-rule="nonzero"/></g><g><path d="M2629 811.844 2649.62 811.844C2652.47 811.844 2654.78 814.152 2654.78 817 2654.78 819.848 2652.47 822.156 2649.62 822.156L2629 822.156C2626.15 822.156 2623.84 819.848 2623.84 817 2623.84 814.152 2626.15 811.844 2629 811.844ZM2670.25 811.844 2690.88 811.844C2693.72 811.844 2696.03 814.152 2696.03 817 2696.03 819.848 2693.72 822.156 2690.88 822.156L2670.25 822.156C2667.4 822.156 2665.09 819.848 2665.09 817 2665.09 814.152 2667.4 811.844 2670.25 811.844ZM2711.5 811.844 2732.12 811.844C2734.97 811.844 2737.28 814.152 2737.28 817 2737.28 819.848 2734.97 822.156 2732.12 822.156L2711.5 822.156C2708.65 822.156 2706.34 819.848 2706.34 817 2706.34 814.152 2708.65 811.844 2711.5 811.844ZM2752.75 811.844 2773.38 811.844C2776.22 811.844 2778.53 814.152 2778.53 817 2778.53 819.848 2776.22 822.156 2773.38 822.156L2752.75 822.156C2749.9 822.156 2747.59 819.848 2747.59 817 2747.59 814.152 2749.9 811.844 2752.75 811.844ZM2794 811.844 2814.62 811.844C2817.47 811.844 2819.78 814.152 2819.78 817 2819.78 819.848 2817.47 822.156 2814.62 822.156L2794 822.156C2791.15 822.156 2788.84 819.848 2788.84 817 2788.84 814.152 2791.15 811.844 2794 811.844ZM2835.25 811.844 2855.88 811.844C2858.72 811.844 2861.03 814.152 2861.03 817 2861.03 819.848 2858.72 822.156 2855.88 822.156L2835.25 822.156C2832.4 822.156 2830.09 819.848 2830.09 817 2830.09 814.152 2832.4 811.844 2835.25 811.844ZM2876.5 811.844 2897.12 811.844C2899.97 811.844 2902.28 814.152 2902.28 817 2902.28 819.848 2899.97 822.156 2897.12 822.156L2876.5 822.156C2873.65 822.156 2871.34 819.848 2871.34 817 2871.34 814.152 2873.65 811.844 2876.5 811.844ZM2917.75 811.844 2938.38 811.844C2941.22 811.844 2943.53 814.152 2943.53 817 2943.53 819.848 2941.22 822.156 2938.38 822.156L2917.75 822.156C2914.9 822.156 2912.59 819.848 2912.59 817 2912.59 814.152 2914.9 811.844 2917.75 811.844ZM2959 811.844 2979.62 811.844C2982.47 811.844 2984.78 814.152 2984.78 817 2984.78 819.848 2982.47 822.156 2979.62 822.156L2959 822.156C2956.15 822.156 2953.84 819.848 2953.84 817 2953.84 814.152 2956.15 811.844 2959 811.844ZM3000.25 811.844 3020.88 811.844C3023.72 811.844 3026.03 814.152 3026.03 817 3026.03 819.848 3023.72 822.156 3020.88 822.156L3000.25 822.156C2997.4 822.156 2995.09 819.848 2995.09 817 2995.09 814.152 2997.4 811.844 3000.25 811.844ZM3041.5 811.844 3062.12 811.844C3064.97 811.844 3067.28 814.152 3067.28 817 3067.28 819.848 3064.97 822.156 3062.12 822.156L3041.5 822.156C3038.65 822.156 3036.34 819.848 3036.34 817 3036.34 814.152 3038.65 811.844 3041.5 811.844ZM3082.75 811.844 3103.38 811.844C3106.22 811.844 3108.53 814.152 3108.53 817 3108.53 819.848 3106.22 822.156 3103.38 822.156L3082.75 822.156C3079.9 822.156 3077.59 819.848 3077.59 817 3077.59 814.152 3079.9 811.844 3082.75 811.844ZM3124 811.844 3144.62 811.844C3147.47 811.844 3149.78 814.152 3149.78 817 3149.78 819.848 3147.47 822.156 3144.62 822.156L3124 822.156C3121.15 822.156 3118.84 819.848 3118.84 817 3118.84 814.152 3121.15 811.844 3124 811.844ZM3165.25 811.844 3185.88 811.844C3188.72 811.844 3191.03 814.152 3191.03 817 3191.03 819.848 3188.72 822.156 3185.88 822.156L3165.25 822.156C3162.4 822.156 3160.09 819.848 3160.09 817 3160.09 814.152 3162.4 811.844 3165.25 811.844ZM3206.5 811.844 3227.12 811.844C3229.97 811.844 3232.28 814.152 3232.28 817 3232.28 819.848 3229.97 822.156 3227.12 822.156L3206.5 822.156C3203.65 822.156 3201.34 819.848 3201.34 817 3201.34 814.152 3203.65 811.844 3206.5 811.844ZM3247.75 811.844 3268.11 811.844 3268.38 811.844C3271.22 811.844 3273.53 814.152 3273.53 817 3273.53 819.848 3271.22 822.156 3268.38 822.156L3268.11 822.156 3247.75 822.156C3244.9 822.156 3242.59 819.848 3242.59 817 3242.59 814.152 3244.9 811.844 3247.75 811.844ZM3289 811.844 3309.62 811.844C3312.47 811.844 3314.78 814.152 3314.78 817 3314.78 819.848 3312.47 822.156 3309.62 822.156L3289 822.156C3286.15 822.156 3283.84 819.848 3283.84 817 3283.84 814.152 3286.15 811.844 3289 811.844ZM3330.25 811.844 3350.88 811.844C3353.72 811.844 3356.03 814.152 3356.03 817 3356.03 819.848 3353.72 822.156 3350.88 822.156L3330.25 822.156C3327.4 822.156 3325.09 819.848 3325.09 817 3325.09 814.152 3327.4 811.844 3330.25 811.844ZM3371.5 811.844 3392.12 811.844C3394.97 811.844 3397.28 814.152 3397.28 817 3397.28 819.848 3394.97 822.156 3392.12 822.156L3371.5 822.156C3368.65 822.156 3366.34 819.848 3366.34 817 3366.34 814.152 3368.65 811.844 3371.5 811.844ZM3412.75 811.844 3428.11 811.844 3433.38 811.844C3436.22 811.844 3438.53 814.152 3438.53 817 3438.53 819.848 3436.22 822.156 3433.38 822.156L3428.11 822.156 3412.75 822.156C3409.9 822.156 3407.59 819.848 3407.59 817 3407.59 814.152 3409.9 811.844 3412.75 811.844ZM3454 811.844 3474.62 811.844C3477.47 811.844 3479.78 814.152 3479.78 817 3479.78 819.848 3477.47 822.156 3474.62 822.156L3454 822.156C3451.15 822.156 3448.84 819.848 3448.84 817 3448.84 814.152 3451.15 811.844 3454 811.844ZM3495.25 811.844 3515.88 811.844C3518.72 811.844 3521.03 814.152 3521.03 817 3521.03 819.848 3518.72 822.156 3515.88 822.156L3495.25 822.156C3492.4 822.156 3490.09 819.848 3490.09 817 3490.09 814.152 3492.4 811.844 3495.25 811.844ZM3536.5 811.844 3557.12 811.844C3559.97 811.844 3562.28 814.152 3562.28 817 3562.28 819.848 3559.97 822.156 3557.12 822.156L3536.5 822.156C3533.65 822.156 3531.34 819.848 3531.34 817 3531.34 814.152 3533.65 811.844 3536.5 811.844ZM3577.75 811.844 3588.12 811.844 3598.38 811.844C3601.22 811.844 3603.53 814.152 3603.53 817 3603.53 819.848 3601.22 822.156 3598.38 822.156L3588.12 822.156 3577.75 822.156C3574.9 822.156 3572.59 819.848 3572.59 817 3572.59 814.152 3574.9 811.844 3577.75 811.844ZM3619 811.844 3639.62 811.844C3642.47 811.844 3644.78 814.152 3644.78 817 3644.78 819.848 3642.47 822.156 3639.62 822.156L3619 822.156C3616.15 822.156 3613.84 819.848 3613.84 817 3613.84 814.152 3616.15 811.844 3619 811.844ZM3660.25 811.844 3680.88 811.844C3683.72 811.844 3686.03 814.152 3686.03 817 3686.03 819.848 3683.72 822.156 3680.88 822.156L3660.25 822.156C3657.4 822.156 3655.09 819.848 3655.09 817 3655.09 814.152 3657.4 811.844 3660.25 811.844ZM3701.5 811.844 3722.12 811.844C3724.97 811.844 3727.28 814.152 3727.28 817 3727.28 819.848 3724.97 822.156 3722.12 822.156L3701.5 822.156C3698.65 822.156 3696.34 819.848 3696.34 817 3696.34 814.152 3698.65 811.844 3701.5 811.844ZM3742.75 811.844 3748.12 811.844 3763.38 811.844C3766.22 811.844 3768.53 814.152 3768.53 817 3768.53 819.848 3766.22 822.156 3763.38 822.156L3748.12 822.156 3742.75 822.156C3739.9 822.156 3737.59 819.848 3737.59 817 3737.59 814.152 3739.9 811.844 3742.75 811.844ZM3784 811.844 3804.62 811.844C3807.47 811.844 3809.78 814.152 3809.78 817 3809.78 819.848 3807.47 822.156 3804.62 822.156L3784 822.156C3781.15 822.156 3778.84 819.848 3778.84 817 3778.84 814.152 3781.15 811.844 3784 811.844ZM3825.25 811.844 3845.88 811.844C3848.72 811.844 3851.03 814.152 3851.03 817 3851.03 819.848 3848.72 822.156 3845.88 822.156L3825.25 822.156C3822.4 822.156 3820.09 819.848 3820.09 817 3820.09 814.152 3822.4 811.844 3825.25 811.844ZM3866.5 811.844 3887.12 811.844C3889.97 811.844 3892.28 814.152 3892.28 817 3892.28 819.848 3889.97 822.156 3887.12 822.156L3866.5 822.156C3863.65 822.156 3861.34 819.848 3861.34 817 3861.34 814.152 3863.65 811.844 3866.5 811.844ZM3907.75 811.844 3908.13 811.844 3928.38 811.844C3931.22 811.844 3933.53 814.152 3933.53 817 3933.53 819.848 3931.22 822.156 3928.38 822.156L3908.13 822.156 3907.75 822.156C3904.9 822.156 3902.59 819.848 3902.59 817 3902.59 814.152 3904.9 811.844 3907.75 811.844ZM3949 811.844 3969.62 811.844C3972.47 811.844 3974.78 814.152 3974.78 817 3974.78 819.848 3972.47 822.156 3969.62 822.156L3949 822.156C3946.15 822.156 3943.84 819.848 3943.84 817 3943.84 814.152 3946.15 811.844 3949 811.844ZM3990.25 811.844 4010.88 811.844C4013.72 811.844 4016.03 814.152 4016.03 817 4016.03 819.848 4013.72 822.156 4010.88 822.156L3990.25 822.156C3987.4 822.156 3985.09 819.848 3985.09 817 3985.09 814.152 3987.4 811.844 3990.25 811.844ZM4031.5 811.844 4052.12 811.844C4054.97 811.844 4057.28 814.152 4057.28 817 4057.28 819.848 4054.97 822.156 4052.12 822.156L4031.5 822.156C4028.65 822.156 4026.34 819.848 4026.34 817 4026.34 814.152 4028.65 811.844 4031.5 811.844ZM4072.75 811.844 4093.38 811.844C4096.22 811.844 4098.53 814.152 4098.53 817 4098.53 819.848 4096.22 822.156 4093.38 822.156L4072.75 822.156C4069.9 822.156 4067.59 819.848 4067.59 817 4067.59 814.152 4069.9 811.844 4072.75 811.844ZM4114 811.844 4134.62 811.844C4137.47 811.844 4139.78 814.152 4139.78 817 4139.78 819.848 4137.47 822.156 4134.62 822.156L4114 822.156C4111.15 822.156 4108.84 819.848 4108.84 817 4108.84 814.152 4111.15 811.844 4114 811.844ZM4155.25 811.844 4175.88 811.844C4178.72 811.844 4181.03 814.152 4181.03 817 4181.03 819.848 4178.72 822.156 4175.88 822.156L4155.25 822.156C4152.4 822.156 4150.09 819.848 4150.09 817 4150.09 814.152 4152.4 811.844 4155.25 811.844ZM4196.5 811.844 4217.12 811.844C4219.97 811.844 4222.28 814.152 4222.28 817 4222.28 819.848 4219.97 822.156 4217.12 822.156L4196.5 822.156C4193.65 822.156 4191.34 819.848 4191.34 817 4191.34 814.152 4193.65 811.844 4196.5 811.844ZM4237.75 811.844 4258.38 811.844C4261.22 811.844 4263.53 814.152 4263.53 817 4263.53 819.848 4261.22 822.156 4258.38 822.156L4237.75 822.156C4234.9 822.156 4232.59 819.848 4232.59 817 4232.59 814.152 4234.9 811.844 4237.75 811.844ZM4279 811.844 4299.62 811.844C4302.47 811.844 4304.78 814.152 4304.78 817 4304.78 819.848 4302.47 822.156 4299.62 822.156L4279 822.156C4276.15 822.156 4273.84 819.848 4273.84 817 4273.84 814.152 4276.15 811.844 4279 811.844ZM4320.25 811.844 4340.88 811.844C4343.72 811.844 4346.03 814.152 4346.03 817 4346.03 819.848 4343.72 822.156 4340.88 822.156L4320.25 822.156C4317.4 822.156 4315.09 819.848 4315.09 817 4315.09 814.152 4317.4 811.844 4320.25 811.844ZM4361.5 811.844 4382.12 811.844C4384.97 811.844 4387.28 814.152 4387.28 817 4387.28 819.848 4384.97 822.156 4382.12 822.156L4361.5 822.156C4358.65 822.156 4356.34 819.848 4356.34 817 4356.34 814.152 4358.65 811.844 4361.5 811.844ZM4402.75 811.844 4423.38 811.844C4426.22 811.844 4428.53 814.152 4428.53 817 4428.53 819.848 4426.22 822.156 4423.38 822.156L4402.75 822.156C4399.9 822.156 4397.59 819.848 4397.59 817 4397.59 814.152 4399.9 811.844 4402.75 811.844ZM4444 811.844 4464.62 811.844C4467.47 811.844 4469.78 814.152 4469.78 817 4469.78 819.848 4467.47 822.156 4464.62 822.156L4444 822.156C4441.15 822.156 4438.84 819.848 4438.84 817 4438.84 814.152 4441.15 811.844 4444 811.844ZM4485.25 811.844 4505.88 811.844C4508.72 811.844 4511.03 814.152 4511.03 817 4511.03 819.848 4508.72 822.156 4505.88 822.156L4485.25 822.156C4482.4 822.156 4480.09 819.848 4480.09 817 4480.09 814.152 4482.4 811.844 4485.25 811.844ZM4526.5 811.844 4547.12 811.844C4549.97 811.844 4552.28 814.152 4552.28 817 4552.28 819.848 4549.97 822.156 4547.12 822.156L4526.5 822.156C4523.65 822.156 4521.34 819.848 4521.34 817 4521.34 814.152 4523.65 811.844 4526.5 811.844ZM4567.75 811.844 4588.38 811.844C4591.22 811.844 4593.53 814.152 4593.53 817 4593.53 819.848 4591.22 822.156 4588.38 822.156L4567.75 822.156C4564.9 822.156 4562.59 819.848 4562.59 817 4562.59 814.152 4564.9 811.844 4567.75 811.844ZM4609 811.844 4629.62 811.844C4632.47 811.844 4634.78 814.152 4634.78 817 4634.78 819.848 4632.47 822.156 4629.62 822.156L4609 822.156C4606.15 822.156 4603.84 819.848 4603.84 817 4603.84 814.152 4606.15 811.844 4609 811.844ZM4650.25 811.844 4670.88 811.844C4673.72 811.844 4676.03 814.152 4676.03 817 4676.03 819.848 4673.72 822.156 4670.88 822.156L4650.25 822.156C4647.4 822.156 4645.09 819.848 4645.09 817 4645.09 814.152 4647.4 811.844 4650.25 811.844ZM4691.5 811.844 4707.15 811.844 4712.12 811.844C4714.97 811.844 4717.28 814.152 4717.28 817 4717.28 819.848 4714.97 822.156 4712.12 822.156L4707.15 822.156 4691.5 822.156C4688.65 822.156 4686.34 819.848 4686.34 817 4686.34 814.152 4688.65 811.844 4691.5 811.844ZM4732.75 811.844 4753.38 811.844C4756.22 811.844 4758.53 814.152 4758.53 817 4758.53 819.848 4756.22 822.156 4753.38 822.156L4732.75 822.156C4729.9 822.156 4727.59 819.848 4727.59 817 4727.59 814.152 4729.9 811.844 4732.75 811.844ZM4774 811.844 4794.62 811.844C4797.47 811.844 4799.78 814.152 4799.78 817 4799.78 819.848 4797.47 822.156 4794.62 822.156L4774 822.156C4771.15 822.156 4768.84 819.848 4768.84 817 4768.84 814.152 4771.15 811.844 4774 811.844ZM4815.25 811.844 4835.88 811.844C4838.72 811.844 4841.03 814.152 4841.03 817 4841.03 819.848 4838.72 822.156 4835.88 822.156L4815.25 822.156C4812.4 822.156 4810.09 819.848 4810.09 817 4810.09 814.152 4812.4 811.844 4815.25 811.844ZM4856.5 811.844 4867.16 811.844 4877.12 811.844C4879.97 811.844 4882.28 814.152 4882.28 817 4882.28 819.848 4879.97 822.156 4877.12 822.156L4867.16 822.156 4856.5 822.156C4853.65 822.156 4851.34 819.848 4851.34 817 4851.34 814.152 4853.65 811.844 4856.5 811.844ZM4897.75 811.844 4918.38 811.844C4921.22 811.844 4923.53 814.152 4923.53 817 4923.53 819.848 4921.22 822.156 4918.38 822.156L4897.75 822.156C4894.9 822.156 4892.59 819.848 4892.59 817 4892.59 814.152 4894.9 811.844 4897.75 811.844ZM4939 811.844 4959.62 811.844C4962.47 811.844 4964.78 814.152 4964.78 817 4964.78 819.848 4962.47 822.156 4959.62 822.156L4939 822.156C4936.15 822.156 4933.84 819.848 4933.84 817 4933.84 814.152 4936.15 811.844 4939 811.844ZM4980.25 811.844 5000.88 811.844C5003.72 811.844 5006.03 814.152 5006.03 817 5006.03 819.848 5003.72 822.156 5000.88 822.156L4980.25 822.156C4977.4 822.156 4975.09 819.848 4975.09 817 4975.09 814.152 4977.4 811.844 4980.25 811.844ZM5021.5 811.844 5026.17 811.844 5042.12 811.844C5044.97 811.844 5047.28 814.152 5047.28 817 5047.28 819.848 5044.97 822.156 5042.12 822.156L5026.17 822.156 5021.5 822.156C5018.65 822.156 5016.34 819.848 5016.34 817 5016.34 814.152 5018.65 811.844 5021.5 811.844ZM5062.75 811.844 5083.38 811.844C5086.22 811.844 5088.53 814.152 5088.53 817 5088.53 819.848 5086.22 822.156 5083.38 822.156L5062.75 822.156C5059.9 822.156 5057.59 819.848 5057.59 817 5057.59 814.152 5059.9 811.844 5062.75 811.844ZM5104 811.844 5124.62 811.844C5127.47 811.844 5129.78 814.152 5129.78 817 5129.78 819.848 5127.47 822.156 5124.62 822.156L5104 822.156C5101.15 822.156 5098.84 819.848 5098.84 817 5098.84 814.152 5101.15 811.844 5104 811.844ZM5145.25 811.844 5165.88 811.844C5168.72 811.844 5171.03 814.152 5171.03 817 5171.03 819.848 5168.72 822.156 5165.88 822.156L5145.25 822.156C5142.4 822.156 5140.09 819.848 5140.09 817 5140.09 814.152 5142.4 811.844 5145.25 811.844Z" fill="#FF0000" fill-rule="nonzero" fill-opacity="1"/></g><g><path d="M2629 1672.84 2649.62 1672.84C2652.47 1672.84 2654.78 1675.15 2654.78 1678 2654.78 1680.85 2652.47 1683.16 2649.62 1683.16L2629 1683.16C2626.15 1683.16 2623.84 1680.85 2623.84 1678 2623.84 1675.15 2626.15 1672.84 2629 1672.84ZM2670.25 1672.84 2690.88 1672.84C2693.72 1672.84 2696.03 1675.15 2696.03 1678 2696.03 1680.85 2693.72 1683.16 2690.88 1683.16L2670.25 1683.16C2667.4 1683.16 2665.09 1680.85 2665.09 1678 2665.09 1675.15 2667.4 1672.84 2670.25 1672.84ZM2711.5 1672.84 2732.12 1672.84C2734.97 1672.84 2737.28 1675.15 2737.28 1678 2737.28 1680.85 2734.97 1683.16 2732.12 1683.16L2711.5 1683.16C2708.65 1683.16 2706.34 1680.85 2706.34 1678 2706.34 1675.15 2708.65 1672.84 2711.5 1672.84ZM2752.75 1672.84 2773.38 1672.84C2776.22 1672.84 2778.53 1675.15 2778.53 1678 2778.53 1680.85 2776.22 1683.16 2773.38 1683.16L2752.75 1683.16C2749.9 1683.16 2747.59 1680.85 2747.59 1678 2747.59 1675.15 2749.9 1672.84 2752.75 1672.84ZM2794 1672.84 2814.62 1672.84C2817.47 1672.84 2819.78 1675.15 2819.78 1678 2819.78 1680.85 2817.47 1683.16 2814.62 1683.16L2794 1683.16C2791.15 1683.16 2788.84 1680.85 2788.84 1678 2788.84 1675.15 2791.15 1672.84 2794 1672.84ZM2835.25 1672.84 2855.88 1672.84C2858.72 1672.84 2861.03 1675.15 2861.03 1678 2861.03 1680.85 2858.72 1683.16 2855.88 1683.16L2835.25 1683.16C2832.4 1683.16 2830.09 1680.85 2830.09 1678 2830.09 1675.15 2832.4 1672.84 2835.25 1672.84ZM2876.5 1672.84 2897.12 1672.84C2899.97 1672.84 2902.28 1675.15 2902.28 1678 2902.28 1680.85 2899.97 1683.16 2897.12 1683.16L2876.5 1683.16C2873.65 1683.16 2871.34 1680.85 2871.34 1678 2871.34 1675.15 2873.65 1672.84 2876.5 1672.84ZM2917.75 1672.84 2938.38 1672.84C2941.22 1672.84 2943.53 1675.15 2943.53 1678 2943.53 1680.85 2941.22 1683.16 2938.38 1683.16L2917.75 1683.16C2914.9 1683.16 2912.59 1680.85 2912.59 1678 2912.59 1675.15 2914.9 1672.84 2917.75 1672.84ZM2959 1672.84 2979.62 1672.84C2982.47 1672.84 2984.78 1675.15 2984.78 1678 2984.78 1680.85 2982.47 1683.16 2979.62 1683.16L2959 1683.16C2956.15 1683.16 2953.84 1680.85 2953.84 1678 2953.84 1675.15 2956.15 1672.84 2959 1672.84ZM3000.25 1672.84 3020.88 1672.84C3023.72 1672.84 3026.03 1675.15 3026.03 1678 3026.03 1680.85 3023.72 1683.16 3020.88 1683.16L3000.25 1683.16C2997.4 1683.16 2995.09 1680.85 2995.09 1678 2995.09 1675.15 2997.4 1672.84 3000.25 1672.84ZM3041.5 1672.84 3062.12 1672.84C3064.97 1672.84 3067.28 1675.15 3067.28 1678 3067.28 1680.85 3064.97 1683.16 3062.12 1683.16L3041.5 1683.16C3038.65 1683.16 3036.34 1680.85 3036.34 1678 3036.34 1675.15 3038.65 1672.84 3041.5 1672.84ZM3082.75 1672.84 3103.38 1672.84C3106.22 1672.84 3108.53 1675.15 3108.53 1678 3108.53 1680.85 3106.22 1683.16 3103.38 1683.16L3082.75 1683.16C3079.9 1683.16 3077.59 1680.85 3077.59 1678 3077.59 1675.15 3079.9 1672.84 3082.75 1672.84ZM3124 1672.84 3144.62 1672.84C3147.47 1672.84 3149.78 1675.15 3149.78 1678 3149.78 1680.85 3147.47 1683.16 3144.62 1683.16L3124 1683.16C3121.15 1683.16 3118.84 1680.85 3118.84 1678 3118.84 1675.15 3121.15 1672.84 3124 1672.84ZM3165.25 1672.84 3185.88 1672.84C3188.72 1672.84 3191.03 1675.15 3191.03 1678 3191.03 1680.85 3188.72 1683.16 3185.88 1683.16L3165.25 1683.16C3162.4 1683.16 3160.09 1680.85 3160.09 1678 3160.09 1675.15 3162.4 1672.84 3165.25 1672.84ZM3206.5 1672.84 3227.12 1672.84C3229.97 1672.84 3232.28 1675.15 3232.28 1678 3232.28 1680.85 3229.97 1683.16 3227.12 1683.16L3206.5 1683.16C3203.65 1683.16 3201.34 1680.85 3201.34 1678 3201.34 1675.15 3203.65 1672.84 3206.5 1672.84ZM3247.75 1672.84 3268.11 1672.84 3268.38 1672.84C3271.22 1672.84 3273.53 1675.15 3273.53 1678 3273.53 1680.85 3271.22 1683.16 3268.38 1683.16L3268.11 1683.16 3247.75 1683.16C3244.9 1683.16 3242.59 1680.85 3242.59 1678 3242.59 1675.15 3244.9 1672.84 3247.75 1672.84ZM3289 1672.84 3309.62 1672.84C3312.47 1672.84 3314.78 1675.15 3314.78 1678 3314.78 1680.85 3312.47 1683.16 3309.62 1683.16L3289 1683.16C3286.15 1683.16 3283.84 1680.85 3283.84 1678 3283.84 1675.15 3286.15 1672.84 3289 1672.84ZM3330.25 1672.84 3350.88 1672.84C3353.72 1672.84 3356.03 1675.15 3356.03 1678 3356.03 1680.85 3353.72 1683.16 3350.88 1683.16L3330.25 1683.16C3327.4 1683.16 3325.09 1680.85 3325.09 1678 3325.09 1675.15 3327.4 1672.84 3330.25 1672.84ZM3371.5 1672.84 3392.12 1672.84C3394.97 1672.84 3397.28 1675.15 3397.28 1678 3397.28 1680.85 3394.97 1683.16 3392.12 1683.16L3371.5 1683.16C3368.65 1683.16 3366.34 1680.85 3366.34 1678 3366.34 1675.15 3368.65 1672.84 3371.5 1672.84ZM3412.75 1672.84 3428.11 1672.84 3433.38 1672.84C3436.22 1672.84 3438.53 1675.15 3438.53 1678 3438.53 1680.85 3436.22 1683.16 3433.38 1683.16L3428.11 1683.16 3412.75 1683.16C3409.9 1683.16 3407.59 1680.85 3407.59 1678 3407.59 1675.15 3409.9 1672.84 3412.75 1672.84ZM3454 1672.84 3474.62 1672.84C3477.47 1672.84 3479.78 1675.15 3479.78 1678 3479.78 1680.85 3477.47 1683.16 3474.62 1683.16L3454 1683.16C3451.15 1683.16 3448.84 1680.85 3448.84 1678 3448.84 1675.15 3451.15 1672.84 3454 1672.84ZM3495.25 1672.84 3515.88 1672.84C3518.72 1672.84 3521.03 1675.15 3521.03 1678 3521.03 1680.85 3518.72 1683.16 3515.88 1683.16L3495.25 1683.16C3492.4 1683.16 3490.09 1680.85 3490.09 1678 3490.09 1675.15 3492.4 1672.84 3495.25 1672.84ZM3536.5 1672.84 3557.12 1672.84C3559.97 1672.84 3562.28 1675.15 3562.28 1678 3562.28 1680.85 3559.97 1683.16 3557.12 1683.16L3536.5 1683.16C3533.65 1683.16 3531.34 1680.85 3531.34 1678 3531.34 1675.15 3533.65 1672.84 3536.5 1672.84ZM3577.75 1672.84 3588.12 1672.84 3598.38 1672.84C3601.22 1672.84 3603.53 1675.15 3603.53 1678 3603.53 1680.85 3601.22 1683.16 3598.38 1683.16L3588.12 1683.16 3577.75 1683.16C3574.9 1683.16 3572.59 1680.85 3572.59 1678 3572.59 1675.15 3574.9 1672.84 3577.75 1672.84ZM3619 1672.84 3639.62 1672.84C3642.47 1672.84 3644.78 1675.15 3644.78 1678 3644.78 1680.85 3642.47 1683.16 3639.62 1683.16L3619 1683.16C3616.15 1683.16 3613.84 1680.85 3613.84 1678 3613.84 1675.15 3616.15 1672.84 3619 1672.84ZM3660.25 1672.84 3680.88 1672.84C3683.72 1672.84 3686.03 1675.15 3686.03 1678 3686.03 1680.85 3683.72 1683.16 3680.88 1683.16L3660.25 1683.16C3657.4 1683.16 3655.09 1680.85 3655.09 1678 3655.09 1675.15 3657.4 1672.84 3660.25 1672.84ZM3701.5 1672.84 3722.12 1672.84C3724.97 1672.84 3727.28 1675.15 3727.28 1678 3727.28 1680.85 3724.97 1683.16 3722.12 1683.16L3701.5 1683.16C3698.65 1683.16 3696.34 1680.85 3696.34 1678 3696.34 1675.15 3698.65 1672.84 3701.5 1672.84ZM3742.75 1672.84 3748.12 1672.84 3763.38 1672.84C3766.22 1672.84 3768.53 1675.15 3768.53 1678 3768.53 1680.85 3766.22 1683.16 3763.38 1683.16L3748.12 1683.16 3742.75 1683.16C3739.9 1683.16 3737.59 1680.85 3737.59 1678 3737.59 1675.15 3739.9 1672.84 3742.75 1672.84ZM3784 1672.84 3804.62 1672.84C3807.47 1672.84 3809.78 1675.15 3809.78 1678 3809.78 1680.85 3807.47 1683.16 3804.62 1683.16L3784 1683.16C3781.15 1683.16 3778.84 1680.85 3778.84 1678 3778.84 1675.15 3781.15 1672.84 3784 1672.84ZM3825.25 1672.84 3845.88 1672.84C3848.72 1672.84 3851.03 1675.15 3851.03 1678 3851.03 1680.85 3848.72 1683.16 3845.88 1683.16L3825.25 1683.16C3822.4 1683.16 3820.09 1680.85 3820.09 1678 3820.09 1675.15 3822.4 1672.84 3825.25 1672.84ZM3866.5 1672.84 3887.12 1672.84C3889.97 1672.84 3892.28 1675.15 3892.28 1678 3892.28 1680.85 3889.97 1683.16 3887.12 1683.16L3866.5 1683.16C3863.65 1683.16 3861.34 1680.85 3861.34 1678 3861.34 1675.15 3863.65 1672.84 3866.5 1672.84ZM3907.75 1672.84 3908.13 1672.84 3928.38 1672.84C3931.22 1672.84 3933.53 1675.15 3933.53 1678 3933.53 1680.85 3931.22 1683.16 3928.38 1683.16L3908.13 1683.16 3907.75 1683.16C3904.9 1683.16 3902.59 1680.85 3902.59 1678 3902.59 1675.15 3904.9 1672.84 3907.75 1672.84ZM3949 1672.84 3969.62 1672.84C3972.47 1672.84 3974.78 1675.15 3974.78 1678 3974.78 1680.85 3972.47 1683.16 3969.62 1683.16L3949 1683.16C3946.15 1683.16 3943.84 1680.85 3943.84 1678 3943.84 1675.15 3946.15 1672.84 3949 1672.84ZM3990.25 1672.84 4010.88 1672.84C4013.72 1672.84 4016.03 1675.15 4016.03 1678 4016.03 1680.85 4013.72 1683.16 4010.88 1683.16L3990.25 1683.16C3987.4 1683.16 3985.09 1680.85 3985.09 1678 3985.09 1675.15 3987.4 1672.84 3990.25 1672.84ZM4031.5 1672.84 4052.12 1672.84C4054.97 1672.84 4057.28 1675.15 4057.28 1678 4057.28 1680.85 4054.97 1683.16 4052.12 1683.16L4031.5 1683.16C4028.65 1683.16 4026.34 1680.85 4026.34 1678 4026.34 1675.15 4028.65 1672.84 4031.5 1672.84ZM4072.75 1672.84 4093.38 1672.84C4096.22 1672.84 4098.53 1675.15 4098.53 1678 4098.53 1680.85 4096.22 1683.16 4093.38 1683.16L4072.75 1683.16C4069.9 1683.16 4067.59 1680.85 4067.59 1678 4067.59 1675.15 4069.9 1672.84 4072.75 1672.84ZM4114 1672.84 4134.62 1672.84C4137.47 1672.84 4139.78 1675.15 4139.78 1678 4139.78 1680.85 4137.47 1683.16 4134.62 1683.16L4114 1683.16C4111.15 1683.16 4108.84 1680.85 4108.84 1678 4108.84 1675.15 4111.15 1672.84 4114 1672.84ZM4155.25 1672.84 4175.88 1672.84C4178.72 1672.84 4181.03 1675.15 4181.03 1678 4181.03 1680.85 4178.72 1683.16 4175.88 1683.16L4155.25 1683.16C4152.4 1683.16 4150.09 1680.85 4150.09 1678 4150.09 1675.15 4152.4 1672.84 4155.25 1672.84ZM4196.5 1672.84 4217.12 1672.84C4219.97 1672.84 4222.28 1675.15 4222.28 1678 4222.28 1680.85 4219.97 1683.16 4217.12 1683.16L4196.5 1683.16C4193.65 1683.16 4191.34 1680.85 4191.34 1678 4191.34 1675.15 4193.65 1672.84 4196.5 1672.84ZM4237.75 1672.84 4258.38 1672.84C4261.22 1672.84 4263.53 1675.15 4263.53 1678 4263.53 1680.85 4261.22 1683.16 4258.38 1683.16L4237.75 1683.16C4234.9 1683.16 4232.59 1680.85 4232.59 1678 4232.59 1675.15 4234.9 1672.84 4237.75 1672.84ZM4279 1672.84 4299.62 1672.84C4302.47 1672.84 4304.78 1675.15 4304.78 1678 4304.78 1680.85 4302.47 1683.16 4299.62 1683.16L4279 1683.16C4276.15 1683.16 4273.84 1680.85 4273.84 1678 4273.84 1675.15 4276.15 1672.84 4279 1672.84ZM4320.25 1672.84 4340.88 1672.84C4343.72 1672.84 4346.03 1675.15 4346.03 1678 4346.03 1680.85 4343.72 1683.16 4340.88 1683.16L4320.25 1683.16C4317.4 1683.16 4315.09 1680.85 4315.09 1678 4315.09 1675.15 4317.4 1672.84 4320.25 1672.84ZM4361.5 1672.84 4382.12 1672.84C4384.97 1672.84 4387.28 1675.15 4387.28 1678 4387.28 1680.85 4384.97 1683.16 4382.12 1683.16L4361.5 1683.16C4358.65 1683.16 4356.34 1680.85 4356.34 1678 4356.34 1675.15 4358.65 1672.84 4361.5 1672.84ZM4402.75 1672.84 4423.38 1672.84C4426.22 1672.84 4428.53 1675.15 4428.53 1678 4428.53 1680.85 4426.22 1683.16 4423.38 1683.16L4402.75 1683.16C4399.9 1683.16 4397.59 1680.85 4397.59 1678 4397.59 1675.15 4399.9 1672.84 4402.75 1672.84ZM4444 1672.84 4464.62 1672.84C4467.47 1672.84 4469.78 1675.15 4469.78 1678 4469.78 1680.85 4467.47 1683.16 4464.62 1683.16L4444 1683.16C4441.15 1683.16 4438.84 1680.85 4438.84 1678 4438.84 1675.15 4441.15 1672.84 4444 1672.84ZM4485.25 1672.84 4505.88 1672.84C4508.72 1672.84 4511.03 1675.15 4511.03 1678 4511.03 1680.85 4508.72 1683.16 4505.88 1683.16L4485.25 1683.16C4482.4 1683.16 4480.09 1680.85 4480.09 1678 4480.09 1675.15 4482.4 1672.84 4485.25 1672.84ZM4526.5 1672.84 4547.12 1672.84C4549.97 1672.84 4552.28 1675.15 4552.28 1678 4552.28 1680.85 4549.97 1683.16 4547.12 1683.16L4526.5 1683.16C4523.65 1683.16 4521.34 1680.85 4521.34 1678 4521.34 1675.15 4523.65 1672.84 4526.5 1672.84ZM4567.75 1672.84 4588.38 1672.84C4591.22 1672.84 4593.53 1675.15 4593.53 1678 4593.53 1680.85 4591.22 1683.16 4588.38 1683.16L4567.75 1683.16C4564.9 1683.16 4562.59 1680.85 4562.59 1678 4562.59 1675.15 4564.9 1672.84 4567.75 1672.84ZM4609 1672.84 4629.62 1672.84C4632.47 1672.84 4634.78 1675.15 4634.78 1678 4634.78 1680.85 4632.47 1683.16 4629.62 1683.16L4609 1683.16C4606.15 1683.16 4603.84 1680.85 4603.84 1678 4603.84 1675.15 4606.15 1672.84 4609 1672.84ZM4650.25 1672.84 4670.88 1672.84C4673.72 1672.84 4676.03 1675.15 4676.03 1678 4676.03 1680.85 4673.72 1683.16 4670.88 1683.16L4650.25 1683.16C4647.4 1683.16 4645.09 1680.85 4645.09 1678 4645.09 1675.15 4647.4 1672.84 4650.25 1672.84ZM4691.5 1672.84 4707.15 1672.84 4712.12 1672.84C4714.97 1672.84 4717.28 1675.15 4717.28 1678 4717.28 1680.85 4714.97 1683.16 4712.12 1683.16L4707.15 1683.16 4691.5 1683.16C4688.65 1683.16 4686.34 1680.85 4686.34 1678 4686.34 1675.15 4688.65 1672.84 4691.5 1672.84ZM4732.75 1672.84 4753.38 1672.84C4756.22 1672.84 4758.53 1675.15 4758.53 1678 4758.53 1680.85 4756.22 1683.16 4753.38 1683.16L4732.75 1683.16C4729.9 1683.16 4727.59 1680.85 4727.59 1678 4727.59 1675.15 4729.9 1672.84 4732.75 1672.84ZM4774 1672.84 4794.62 1672.84C4797.47 1672.84 4799.78 1675.15 4799.78 1678 4799.78 1680.85 4797.47 1683.16 4794.62 1683.16L4774 1683.16C4771.15 1683.16 4768.84 1680.85 4768.84 1678 4768.84 1675.15 4771.15 1672.84 4774 1672.84ZM4815.25 1672.84 4835.88 1672.84C4838.72 1672.84 4841.03 1675.15 4841.03 1678 4841.03 1680.85 4838.72 1683.16 4835.88 1683.16L4815.25 1683.16C4812.4 1683.16 4810.09 1680.85 4810.09 1678 4810.09 1675.15 4812.4 1672.84 4815.25 1672.84ZM4856.5 1672.84 4867.16 1672.84 4877.12 1672.84C4879.97 1672.84 4882.28 1675.15 4882.28 1678 4882.28 1680.85 4879.97 1683.16 4877.12 1683.16L4867.16 1683.16 4856.5 1683.16C4853.65 1683.16 4851.34 1680.85 4851.34 1678 4851.34 1675.15 4853.65 1672.84 4856.5 1672.84ZM4897.75 1672.84 4918.38 1672.84C4921.22 1672.84 4923.53 1675.15 4923.53 1678 4923.53 1680.85 4921.22 1683.16 4918.38 1683.16L4897.75 1683.16C4894.9 1683.16 4892.59 1680.85 4892.59 1678 4892.59 1675.15 4894.9 1672.84 4897.75 1672.84ZM4939 1672.84 4959.62 1672.84C4962.47 1672.84 4964.78 1675.15 4964.78 1678 4964.78 1680.85 4962.47 1683.16 4959.62 1683.16L4939 1683.16C4936.15 1683.16 4933.84 1680.85 4933.84 1678 4933.84 1675.15 4936.15 1672.84 4939 1672.84ZM4980.25 1672.84 5000.88 1672.84C5003.72 1672.84 5006.03 1675.15 5006.03 1678 5006.03 1680.85 5003.72 1683.16 5000.88 1683.16L4980.25 1683.16C4977.4 1683.16 4975.09 1680.85 4975.09 1678 4975.09 1675.15 4977.4 1672.84 4980.25 1672.84ZM5021.5 1672.84 5026.17 1672.84 5042.12 1672.84C5044.97 1672.84 5047.28 1675.15 5047.28 1678 5047.28 1680.85 5044.97 1683.16 5042.12 1683.16L5026.17 1683.16 5021.5 1683.16C5018.65 1683.16 5016.34 1680.85 5016.34 1678 5016.34 1675.15 5018.65 1672.84 5021.5 1672.84ZM5062.75 1672.84 5083.38 1672.84C5086.22 1672.84 5088.53 1675.15 5088.53 1678 5088.53 1680.85 5086.22 1683.16 5083.38 1683.16L5062.75 1683.16C5059.9 1683.16 5057.59 1680.85 5057.59 1678 5057.59 1675.15 5059.9 1672.84 5062.75 1672.84ZM5104 1672.84 5124.62 1672.84C5127.47 1672.84 5129.78 1675.15 5129.78 1678 5129.78 1680.85 5127.47 1683.16 5124.62 1683.16L5104 1683.16C5101.15 1683.16 5098.84 1680.85 5098.84 1678 5098.84 1675.15 5101.15 1672.84 5104 1672.84ZM5145.25 1672.84 5165.88 1672.84C5168.72 1672.84 5171.03 1675.15 5171.03 1678 5171.03 1680.85 5168.72 1683.16 5165.88 1683.16L5145.25 1683.16C5142.4 1683.16 5140.09 1680.85 5140.09 1678 5140.09 1675.15 5142.4 1672.84 5145.25 1672.84Z" fill="#00B050" fill-rule="nonzero" fill-opacity="1"/></g><g><text fill="#595959" fill-opacity="1" font-family="Calibri,Calibri_MSFontService,sans-serif" font-style="normal" font-variant="normal" font-weight="400" font-stretch="normal" font-size="41" text-anchor="start" direction="ltr" writing-mode="lr-tb" unicode-bidi="normal" text-decoration="none" transform="matrix(1 0 0 1 2477.34 1917)">-4</text></g><g><text fill="#595959" fill-opacity="1" font-family="Calibri,Calibri_MSFontService,sans-serif" font-style="normal" font-variant="normal" font-weight="400" font-stretch="normal" font-size="41" text-anchor="start" direction="ltr" writing-mode="lr-tb" unicode-bidi="normal" text-decoration="none" transform="matrix(1 0 0 1 2477.34 1803)">-2</text></g><g><text fill="#595959" fill-opacity="1" font-family="Calibri,Calibri_MSFontService,sans-serif" font-style="normal" font-variant="normal" font-weight="400" font-stretch="normal" font-size="41" text-anchor="start" direction="ltr" writing-mode="lr-tb" unicode-bidi="normal" text-decoration="none" transform="matrix(1 0 0 1 2489.96 1688)">0</text></g><g><text fill="#595959" fill-opacity="1" font-family="Calibri,Calibri_MSFontService,sans-serif" font-style="normal" font-variant="normal" font-weight="400" font-stretch="normal" font-size="41" text-anchor="start" direction="ltr" writing-mode="lr-tb" unicode-bidi="normal" text-decoration="none" transform="matrix(1 0 0 1 2489.96 1573)">2</text></g><g><text fill="#595959" fill-opacity="1" font-family="Calibri,Calibri_MSFontService,sans-serif" font-style="normal" font-variant="normal" font-weight="400" font-stretch="normal" font-size="41" text-anchor="start" direction="ltr" writing-mode="lr-tb" unicode-bidi="normal" text-decoration="none" transform="matrix(1 0 0 1 2489.96 1458)">4</text></g><g><text fill="#595959" fill-opacity="1" font-family="Calibri,Calibri_MSFontService,sans-serif" font-style="normal" font-variant="normal" font-weight="400" font-stretch="normal" font-size="41" text-anchor="start" direction="ltr" writing-mode="lr-tb" unicode-bidi="normal" text-decoration="none" transform="matrix(1 0 0 1 2489.96 1343)">6</text></g><g><text fill="#595959" fill-opacity="1" font-family="Calibri,Calibri_MSFontService,sans-serif" font-style="normal" font-variant="normal" font-weight="400" font-stretch="normal" font-size="41" text-anchor="start" direction="ltr" writing-mode="lr-tb" unicode-bidi="normal" text-decoration="none" transform="matrix(1 0 0 1 2489.96 1228)">8</text></g><g><text fill="#595959" fill-opacity="1" font-family="Calibri,Calibri_MSFontService,sans-serif" font-style="normal" font-variant="normal" font-weight="400" font-stretch="normal" font-size="41" text-anchor="start" direction="ltr" writing-mode="lr-tb" unicode-bidi="normal" text-decoration="none" transform="matrix(1 0 0 1 2469.06 1114)">10</text></g><g><text fill="#595959" fill-opacity="1" font-family="Calibri,Calibri_MSFontService,sans-serif" font-style="normal" font-variant="normal" font-weight="400" font-stretch="normal" font-size="41" text-anchor="start" direction="ltr" writing-mode="lr-tb" unicode-bidi="normal" text-decoration="none" transform="matrix(1 0 0 1 2469.06 999)">12</text></g><g><text fill="#595959" fill-opacity="1" font-family="Calibri,Calibri_MSFontService,sans-serif" font-style="normal" font-variant="normal" font-weight="400" font-stretch="normal" font-size="41" text-anchor="start" direction="ltr" writing-mode="lr-tb" unicode-bidi="normal" text-decoration="none" transform="matrix(1 0 0 1 2469.06 884)">14</text></g><g><text fill="#595959" fill-opacity="1" font-family="Calibri,Calibri_MSFontService,sans-serif" font-style="normal" font-variant="normal" font-weight="400" font-stretch="normal" font-size="41" text-anchor="start" direction="ltr" writing-mode="lr-tb" unicode-bidi="normal" text-decoration="none" transform="matrix(1 0 0 1 2469.06 769)">16</text></g><g><text fill="#595959" fill-opacity="1" font-family="Calibri,Calibri_MSFontService,sans-serif" font-style="normal" font-variant="normal" font-weight="400" font-stretch="normal" font-size="41" text-anchor="start" direction="ltr" writing-mode="lr-tb" unicode-bidi="normal" text-decoration="none" transform="matrix(1 0 0 1 2469.06 654)">18</text></g><g><text fill="#595959" fill-opacity="1" font-family="Calibri,Calibri_MSFontService,sans-serif" font-style="normal" font-variant="normal" font-weight="400" font-stretch="normal" font-size="41" text-anchor="start" direction="ltr" writing-mode="lr-tb" unicode-bidi="normal" text-decoration="none" transform="matrix(1 0 0 1 2563.94 1743)">Sprint 1</text></g><g><text fill="#595959" fill-opacity="1" font-family="Calibri,Calibri_MSFontService,sans-serif" font-style="normal" font-variant="normal" font-weight="400" font-stretch="normal" font-size="41" text-anchor="start" direction="ltr" writing-mode="lr-tb" unicode-bidi="normal" text-decoration="none" transform="matrix(1 0 0 1 2723.77 1743)">Sprint 2</text></g><g><text fill="#595959" fill-opacity="1" font-family="Calibri,Calibri_MSFontService,sans-serif" font-style="normal" font-variant="normal" font-weight="400" font-stretch="normal" font-size="41" text-anchor="start" direction="ltr" writing-mode="lr-tb" unicode-bidi="normal" text-decoration="none" transform="matrix(1 0 0 1 2883.6 1743)">Sprint 3</text></g><g><text fill="#595959" fill-opacity="1" font-family="Calibri,Calibri_MSFontService,sans-serif" font-style="normal" font-variant="normal" font-weight="400" font-stretch="normal" font-size="41" text-anchor="start" direction="ltr" writing-mode="lr-tb" unicode-bidi="normal" text-decoration="none" transform="matrix(1 0 0 1 3043.43 1743)">Sprint 4</text></g><g><text fill="#595959" fill-opacity="1" font-family="Calibri,Calibri_MSFontService,sans-serif" font-style="normal" font-variant="normal" font-weight="400" font-stretch="normal" font-size="41" text-anchor="start" direction="ltr" writing-mode="lr-tb" unicode-bidi="normal" text-decoration="none" transform="matrix(1 0 0 1 3203.26 1743)">Sprint 5</text></g><g><text fill="#595959" fill-opacity="1" font-family="Calibri,Calibri_MSFontService,sans-serif" font-style="normal" font-variant="normal" font-weight="400" font-stretch="normal" font-size="41" text-anchor="start" direction="ltr" writing-mode="lr-tb" unicode-bidi="normal" text-decoration="none" transform="matrix(1 0 0 1 3363.09 1743)">Sprint 6</text></g><g><text fill="#595959" fill-opacity="1" font-family="Calibri,Calibri_MSFontService,sans-serif" font-style="normal" font-variant="normal" font-weight="400" font-stretch="normal" font-size="41" text-anchor="start" direction="ltr" writing-mode="lr-tb" unicode-bidi="normal" text-decoration="none" transform="matrix(1 0 0 1 3522.92 1743)">Sprint 7</text></g><g><text fill="#595959" fill-opacity="1" font-family="Calibri,Calibri_MSFontService,sans-serif" font-style="normal" font-variant="normal" font-weight="400" font-stretch="normal" font-size="41" text-anchor="start" direction="ltr" writing-mode="lr-tb" unicode-bidi="normal" text-decoration="none" transform="matrix(1 0 0 1 3682.75 1743)">Sprint 8</text></g><g><text fill="#595959" fill-opacity="1" font-family="Calibri,Calibri_MSFontService,sans-serif" font-style="normal" font-variant="normal" font-weight="400" font-stretch="normal" font-size="41" text-anchor="start" direction="ltr" writing-mode="lr-tb" unicode-bidi="normal" text-decoration="none" transform="matrix(1 0 0 1 3842.58 1743)">Sprint 9</text></g><g><text fill="#595959" fill-opacity="1" font-family="Calibri,Calibri_MSFontService,sans-serif" font-style="normal" font-variant="normal" font-weight="400" font-stretch="normal" font-size="41" text-anchor="start" direction="ltr" writing-mode="lr-tb" unicode-bidi="normal" text-decoration="none" transform="matrix(1 0 0 1 3991.96 1743)">Sprint 10</text></g><g><text fill="#595959" fill-opacity="1" font-family="Calibri,Calibri_MSFontService,sans-serif" font-style="normal" font-variant="normal" font-weight="400" font-stretch="normal" font-size="41" text-anchor="start" direction="ltr" writing-mode="lr-tb" unicode-bidi="normal" text-decoration="none" transform="matrix(1 0 0 1 4151.8 1743)">Sprint 11</text></g><g><text fill="#595959" fill-opacity="1" font-family="Calibri,Calibri_MSFontService,sans-serif" font-style="normal" font-variant="normal" font-weight="400" font-stretch="normal" font-size="41" text-anchor="start" direction="ltr" writing-mode="lr-tb" unicode-bidi="normal" text-decoration="none" transform="matrix(1 0 0 1 4311.63 1743)">Sprint 12</text></g><g><text fill="#595959" fill-opacity="1" font-family="Calibri,Calibri_MSFontService,sans-serif" font-style="normal" font-variant="normal" font-weight="400" font-stretch="normal" font-size="41" text-anchor="start" direction="ltr" writing-mode="lr-tb" unicode-bidi="normal" text-decoration="none" transform="matrix(1 0 0 1 4471.46 1743)">Sprint 13</text></g><g><text fill="#595959" fill-opacity="1" font-family="Calibri,Calibri_MSFontService,sans-serif" font-style="normal" font-variant="normal" font-weight="400" font-stretch="normal" font-size="41" text-anchor="start" direction="ltr" writing-mode="lr-tb" unicode-bidi="normal" text-decoration="none" transform="matrix(1 0 0 1 4631.29 1743)">Sprint 14</text></g><g><text fill="#595959" fill-opacity="1" font-family="Calibri,Calibri_MSFontService,sans-serif" font-style="normal" font-variant="normal" font-weight="400" font-stretch="normal" font-size="41" text-anchor="start" direction="ltr" writing-mode="lr-tb" unicode-bidi="normal" text-decoration="none" transform="matrix(1 0 0 1 4791.12 1743)">Sprint 15</text></g><g><text fill="#595959" fill-opacity="1" font-family="Calibri,Calibri_MSFontService,sans-serif" font-style="normal" font-variant="normal" font-weight="400" font-stretch="normal" font-size="41" text-anchor="start" direction="ltr" writing-mode="lr-tb" unicode-bidi="normal" text-decoration="none" transform="matrix(1 0 0 1 4950.95 1743)">Sprint 16</text></g><g><text fill="#595959" fill-opacity="1" font-family="Calibri,Calibri_MSFontService,sans-serif" font-style="normal" font-variant="normal" font-weight="400" font-stretch="normal" font-size="41" text-anchor="start" direction="ltr" writing-mode="lr-tb" unicode-bidi="normal" text-decoration="none" transform="matrix(1 0 0 1 5110.78 1743)">Sprint 17</text></g><g><text fill="#595959" fill-opacity="1" font-family="Calibri,Calibri_MSFontService,sans-serif" font-style="normal" font-variant="normal" font-weight="400" font-stretch="normal" font-size="46" text-anchor="start" direction="ltr" writing-mode="lr-tb" unicode-bidi="normal" text-decoration="none" transform="matrix(6.12323e-17 -1 1 6.12323e-17 2443.37 1333)">TS (%)</text></g><g><text fill="#595959" fill-opacity="1" font-family="Calibri,Calibri_MSFontService,sans-serif" font-style="normal" font-variant="normal" font-weight="400" font-stretch="normal" font-size="64" text-anchor="start" direction="ltr" writing-mode="lr-tb" unicode-bidi="normal" text-decoration="none" transform="matrix(1 0 0 1 3799.16 570)">TS</text></g><g><path d="M3284 1996 3399 1996" stroke="#1F497D" stroke-width="10.3125" stroke-linecap="round" stroke-linejoin="round" stroke-miterlimit="10" stroke-opacity="1" fill="none" fill-rule="evenodd"/></g><g><text fill="#595959" fill-opacity="1" font-family="Calibri,Calibri_MSFontService,sans-serif" font-style="normal" font-variant="normal" font-weight="400" font-stretch="normal" font-size="41" text-anchor="start" direction="ltr" writing-mode="lr-tb" unicode-bidi="normal" text-decoration="none" transform="matrix(1 0 0 1 3412.17 2006)">TS</text></g><g><path d="M3519 1990.84 3539.62 1990.84C3542.47 1990.84 3544.78 1993.15 3544.78 1996 3544.78 1998.85 3542.47 2001.16 3539.62 2001.16L3519 2001.16C3516.15 2001.16 3513.84 1998.85 3513.84 1996 3513.84 1993.15 3516.15 1990.84 3519 1990.84ZM3560.25 1990.84 3580.88 1990.84C3583.72 1990.84 3586.03 1993.15 3586.03 1996 3586.03 1998.85 3583.72 2001.16 3580.88 2001.16L3560.25 2001.16C3557.4 2001.16 3555.09 1998.85 3555.09 1996 3555.09 1993.15 3557.4 1990.84 3560.25 1990.84ZM3601.5 1990.84 3622.12 1990.84C3624.97 1990.84 3627.28 1993.15 3627.28 1996 3627.28 1998.85 3624.97 2001.16 3622.12 2001.16L3601.5 2001.16C3598.65 2001.16 3596.34 1998.85 3596.34 1996 3596.34 1993.15 3598.65 1990.84 3601.5 1990.84Z" fill="#FF0000" fill-rule="nonzero" fill-opacity="1"/></g><g><text fill="#595959" fill-opacity="1" font-family="Calibri,Calibri_MSFontService,sans-serif" font-style="normal" font-variant="normal" font-weight="400" font-stretch="normal" font-size="41" text-anchor="start" direction="ltr" writing-mode="lr-tb" unicode-bidi="normal" text-decoration="none" transform="matrix(1 0 0 1 3646.81 2006)">Solgia acc. (≤15%)</text></g><g><path d="M4014 1990.84 4034.62 1990.84C4037.47 1990.84 4039.78 1993.15 4039.78 1996 4039.78 1998.85 4037.47 2001.16 4034.62 2001.16L4014 2001.16C4011.15 2001.16 4008.84 1998.85 4008.84 1996 4008.84 1993.15 4011.15 1990.84 4014 1990.84ZM4055.25 1990.84 4075.88 1990.84C4078.72 1990.84 4081.03 1993.15 4081.03 1996 4081.03 1998.85 4078.72 2001.16 4075.88 2001.16L4055.25 2001.16C4052.4 2001.16 4050.09 1998.85 4050.09 1996 4050.09 1993.15 4052.4 1990.84 4055.25 1990.84ZM4096.5 1990.84 4117.12 1990.84C4119.97 1990.84 4122.28 1993.15 4122.28 1996 4122.28 1998.85 4119.97 2001.16 4117.12 2001.16L4096.5 2001.16C4093.65 2001.16 4091.34 1998.85 4091.34 1996 4091.34 1993.15 4093.65 1990.84 4096.5 1990.84Z" fill="#00B050" fill-rule="nonzero" fill-opacity="1"/></g><g><text fill="#595959" fill-opacity="1" font-family="Calibri,Calibri_MSFontService,sans-serif" font-style="normal" font-variant="normal" font-weight="400" font-stretch="normal" font-size="41" text-anchor="start" direction="ltr" writing-mode="lr-tb" unicode-bidi="normal" text-decoration="none" transform="matrix(1 0 0 1 4141.73 2006)">Solgia ott. (0%)</text></g><rect x="2342.5" y="474.5" width="2975" height="1588" stroke="#D9D9D9" stroke-width="3.4375" stroke-linecap="butt" stroke-linejoin="round" stroke-miterlimit="10" stroke-opacity="1" fill="none"/></g></g></svg>