<svg width="3167" height="1595" xmlns="http://www.w3.org/2000/svg" xmlns:xlink="http://www.w3.org/1999/xlink" xml:space="preserve" overflow="hidden"><defs><clipPath id="clip0"><rect x="2232" y="68" width="3167" height="1595"/></clipPath><clipPath id="clip1"><rect x="2232" y="68" width="3167" height="1595"/></clipPath><clipPath id="clip2"><rect x="2475" y="241" width="2872" height="1210"/></clipPath></defs><g clip-path="url(#clip0)" transform="translate(-2232 -68)"><g clip-path="url(#clip1)"><rect x="2237" y="71.0002" width="3158" height="1588" fill="#FFFFFF" fill-opacity="1"/><g><path d="M2475.5 1313.54 5344.5 1313.54M2475.5 1179.54 5344.5 1179.54M2475.5 1045.53 5344.5 1045.53M2475.5 911.53 5344.5 911.53M2475.5 777.526 5344.5 777.526M2475.5 643.521 5344.5 643.521M2475.5 509.517 5344.5 509.517M2475.5 375.513 5344.5 375.513M2475.5 241.5 5344.5 241.5" stroke="#D9D9D9" stroke-width="3.4375" stroke-linecap="butt" stroke-linejoin="round" stroke-miterlimit="10" stroke-opacity="1" fill="none" fill-rule="nonzero"/></g><g><path d="M2475.5 1447.5 5344.5 1447.5" stroke="#D9D9D9" stroke-width="3.4375" stroke-linecap="butt" stroke-linejoin="round" stroke-miterlimit="10" stroke-opacity="1" fill="none" fill-rule="evenodd"/></g><g><path d="M2559 1448 2728.09 1448 2897.09 777.026 3066.1 1448 3234.11 1448 3403.11 838.027 3572.12 610.02 3741.12 330 3909.13 1180.04 4078.13 1448 4247.14 1448 4416.14 1448 4585.15 389.013 4753.16 490.016 4922.16 742.024 5091.17 1224.04 5260 1448" stroke="#1F497D" stroke-width="10.3125" stroke-linecap="round" stroke-linejoin="round" stroke-miterlimit="10" stroke-opacity="1" fill="none" fill-rule="nonzero"/></g><g><path d="M2559 436.844 2579.62 436.844C2582.47 436.844 2584.78 439.152 2584.78 442 2584.78 444.848 2582.47 447.156 2579.62 447.156L2559 447.156C2556.15 447.156 2553.84 444.848 2553.84 442 2553.84 439.152 2556.15 436.844 2559 436.844ZM2600.25 436.844 2620.87 436.844C2623.72 436.844 2626.03 439.152 2626.03 442 2626.03 444.848 2623.72 447.156 2620.87 447.156L2600.25 447.156C2597.4 447.156 2595.09 444.848 2595.09 442 2595.09 439.152 2597.4 436.844 2600.25 436.844ZM2641.5 436.844 2662.12 436.844C2664.97 436.844 2667.28 439.152 2667.28 442 2667.28 444.848 2664.97 447.156 2662.12 447.156L2641.5 447.156C2638.65 447.156 2636.34 444.848 2636.34 442 2636.34 439.152 2638.65 436.844 2641.5 436.844ZM2682.75 436.844 2703.37 436.844C2706.22 436.844 2708.53 439.152 2708.53 442 2708.53 444.848 2706.22 447.156 2703.37 447.156L2682.75 447.156C2679.9 447.156 2677.59 444.848 2677.59 442 2677.59 439.152 2679.9 436.844 2682.75 436.844ZM2724 436.844 2728.09 436.844 2744.62 436.844C2747.47 436.844 2749.78 439.152 2749.78 442 2749.78 444.848 2747.47 447.156 2744.62 447.156L2728.09 447.156 2724 447.156C2721.15 447.156 2718.84 444.848 2718.84 442 2718.84 439.152 2721.15 436.844 2724 436.844ZM2765.25 436.844 2785.87 436.844C2788.72 436.844 2791.03 439.152 2791.03 442 2791.03 444.848 2788.72 447.156 2785.87 447.156L2765.25 447.156C2762.4 447.156 2760.09 444.848 2760.09 442 2760.09 439.152 2762.4 436.844 2765.25 436.844ZM2806.5 436.844 2827.12 436.844C2829.97 436.844 2832.28 439.152 2832.28 442 2832.28 444.848 2829.97 447.156 2827.12 447.156L2806.5 447.156C2803.65 447.156 2801.34 444.848 2801.34 442 2801.34 439.152 2803.65 436.844 2806.5 436.844ZM2847.75 436.844 2868.37 436.844C2871.22 436.844 2873.53 439.152 2873.53 442 2873.53 444.848 2871.22 447.156 2868.37 447.156L2847.75 447.156C2844.9 447.156 2842.59 444.848 2842.59 442 2842.59 439.152 2844.9 436.844 2847.75 436.844ZM2889 436.844 2897.09 436.844 2909.62 436.844C2912.47 436.844 2914.78 439.152 2914.78 442 2914.78 444.848 2912.47 447.156 2909.62 447.156L2897.09 447.156 2889 447.156C2886.15 447.156 2883.84 444.848 2883.84 442 2883.84 439.152 2886.15 436.844 2889 436.844ZM2930.25 436.844 2950.87 436.844C2953.72 436.844 2956.03 439.152 2956.03 442 2956.03 444.848 2953.72 447.156 2950.87 447.156L2930.25 447.156C2927.4 447.156 2925.09 444.848 2925.09 442 2925.09 439.152 2927.4 436.844 2930.25 436.844ZM2971.5 436.844 2992.12 436.844C2994.97 436.844 2997.28 439.152 2997.28 442 2997.28 444.848 2994.97 447.156 2992.12 447.156L2971.5 447.156C2968.65 447.156 2966.34 444.848 2966.34 442 2966.34 439.152 2968.65 436.844 2971.5 436.844ZM3012.75 436.844 3033.37 436.844C3036.22 436.844 3038.53 439.152 3038.53 442 3038.53 444.848 3036.22 447.156 3033.37 447.156L3012.75 447.156C3009.9 447.156 3007.59 444.848 3007.59 442 3007.59 439.152 3009.9 436.844 3012.75 436.844ZM3054 436.844 3066.1 436.844 3074.62 436.844C3077.47 436.844 3079.78 439.152 3079.78 442 3079.78 444.848 3077.47 447.156 3074.62 447.156L3066.1 447.156 3054 447.156C3051.15 447.156 3048.84 444.848 3048.84 442 3048.84 439.152 3051.15 436.844 3054 436.844ZM3095.25 436.844 3115.87 436.844C3118.72 436.844 3121.03 439.152 3121.03 442 3121.03 444.848 3118.72 447.156 3115.87 447.156L3095.25 447.156C3092.4 447.156 3090.09 444.848 3090.09 442 3090.09 439.152 3092.4 436.844 3095.25 436.844ZM3136.5 436.844 3157.12 436.844C3159.97 436.844 3162.28 439.152 3162.28 442 3162.28 444.848 3159.97 447.156 3157.12 447.156L3136.5 447.156C3133.65 447.156 3131.34 444.848 3131.34 442 3131.34 439.152 3133.65 436.844 3136.5 436.844ZM3177.75 436.844 3198.37 436.844C3201.22 436.844 3203.53 439.152 3203.53 442 3203.53 444.848 3201.22 447.156 3198.37 447.156L3177.75 447.156C3174.9 447.156 3172.59 444.848 3172.59 442 3172.59 439.152 3174.9 436.844 3177.75 436.844ZM3219 436.844 3234.11 436.844 3239.62 436.844C3242.47 436.844 3244.78 439.152 3244.78 442 3244.78 444.848 3242.47 447.156 3239.62 447.156L3234.11 447.156 3219 447.156C3216.15 447.156 3213.84 444.848 3213.84 442 3213.84 439.152 3216.15 436.844 3219 436.844ZM3260.25 436.844 3280.87 436.844C3283.72 436.844 3286.03 439.152 3286.03 442 3286.03 444.848 3283.72 447.156 3280.87 447.156L3260.25 447.156C3257.4 447.156 3255.09 444.848 3255.09 442 3255.09 439.152 3257.4 436.844 3260.25 436.844ZM3301.5 436.844 3322.12 436.844C3324.97 436.844 3327.28 439.152 3327.28 442 3327.28 444.848 3324.97 447.156 3322.12 447.156L3301.5 447.156C3298.65 447.156 3296.34 444.848 3296.34 442 3296.34 439.152 3298.65 436.844 3301.5 436.844ZM3342.75 436.844 3363.37 436.844C3366.22 436.844 3368.53 439.152 3368.53 442 3368.53 444.848 3366.22 447.156 3363.37 447.156L3342.75 447.156C3339.9 447.156 3337.59 444.848 3337.59 442 3337.59 439.152 3339.9 436.844 3342.75 436.844ZM3384 436.844 3403.11 436.844 3404.62 436.844C3407.47 436.844 3409.78 439.152 3409.78 442 3409.78 444.848 3407.47 447.156 3404.62 447.156L3403.11 447.156 3384 447.156C3381.15 447.156 3378.84 444.848 3378.84 442 3378.84 439.152 3381.15 436.844 3384 436.844ZM3425.25 436.844 3445.87 436.844C3448.72 436.844 3451.03 439.152 3451.03 442 3451.03 444.848 3448.72 447.156 3445.87 447.156L3425.25 447.156C3422.4 447.156 3420.09 444.848 3420.09 442 3420.09 439.152 3422.4 436.844 3425.25 436.844ZM3466.5 436.844 3487.12 436.844C3489.97 436.844 3492.28 439.152 3492.28 442 3492.28 444.848 3489.97 447.156 3487.12 447.156L3466.5 447.156C3463.65 447.156 3461.34 444.848 3461.34 442 3461.34 439.152 3463.65 436.844 3466.5 436.844ZM3507.75 436.844 3528.37 436.844C3531.22 436.844 3533.53 439.152 3533.53 442 3533.53 444.848 3531.22 447.156 3528.37 447.156L3507.75 447.156C3504.9 447.156 3502.59 444.848 3502.59 442 3502.59 439.152 3504.9 436.844 3507.75 436.844ZM3549 436.844 3569.62 436.844C3572.47 436.844 3574.78 439.152 3574.78 442 3574.78 444.848 3572.47 447.156 3569.62 447.156L3549 447.156C3546.15 447.156 3543.84 444.848 3543.84 442 3543.84 439.152 3546.15 436.844 3549 436.844ZM3590.25 436.844 3610.87 436.844C3613.72 436.844 3616.03 439.152 3616.03 442 3616.03 444.848 3613.72 447.156 3610.87 447.156L3590.25 447.156C3587.4 447.156 3585.09 444.848 3585.09 442 3585.09 439.152 3587.4 436.844 3590.25 436.844ZM3631.5 436.844 3652.12 436.844C3654.97 436.844 3657.28 439.152 3657.28 442 3657.28 444.848 3654.97 447.156 3652.12 447.156L3631.5 447.156C3628.65 447.156 3626.34 444.848 3626.34 442 3626.34 439.152 3628.65 436.844 3631.5 436.844ZM3672.75 436.844 3693.37 436.844C3696.22 436.844 3698.53 439.152 3698.53 442 3698.53 444.848 3696.22 447.156 3693.37 447.156L3672.75 447.156C3669.9 447.156 3667.59 444.848 3667.59 442 3667.59 439.152 3669.9 436.844 3672.75 436.844ZM3714 436.844 3734.62 436.844C3737.47 436.844 3739.78 439.152 3739.78 442 3739.78 444.848 3737.47 447.156 3734.62 447.156L3714 447.156C3711.15 447.156 3708.84 444.848 3708.84 442 3708.84 439.152 3711.15 436.844 3714 436.844ZM3755.25 436.844 3775.87 436.844C3778.72 436.844 3781.03 439.152 3781.03 442 3781.03 444.848 3778.72 447.156 3775.87 447.156L3755.25 447.156C3752.4 447.156 3750.09 444.848 3750.09 442 3750.09 439.152 3752.4 436.844 3755.25 436.844ZM3796.5 436.844 3817.12 436.844C3819.97 436.844 3822.28 439.152 3822.28 442 3822.28 444.848 3819.97 447.156 3817.12 447.156L3796.5 447.156C3793.65 447.156 3791.34 444.848 3791.34 442 3791.34 439.152 3793.65 436.844 3796.5 436.844ZM3837.75 436.844 3858.37 436.844C3861.22 436.844 3863.53 439.152 3863.53 442 3863.53 444.848 3861.22 447.156 3858.37 447.156L3837.75 447.156C3834.9 447.156 3832.59 444.848 3832.59 442 3832.59 439.152 3834.9 436.844 3837.75 436.844ZM3879 436.844 3899.62 436.844C3902.47 436.844 3904.78 439.152 3904.78 442 3904.78 444.848 3902.47 447.156 3899.62 447.156L3879 447.156C3876.15 447.156 3873.84 444.848 3873.84 442 3873.84 439.152 3876.15 436.844 3879 436.844ZM3920.25 436.844 3940.87 436.844C3943.72 436.844 3946.03 439.152 3946.03 442 3946.03 444.848 3943.72 447.156 3940.87 447.156L3920.25 447.156C3917.4 447.156 3915.09 444.848 3915.09 442 3915.09 439.152 3917.4 436.844 3920.25 436.844ZM3961.5 436.844 3982.12 436.844C3984.97 436.844 3987.28 439.152 3987.28 442 3987.28 444.848 3984.97 447.156 3982.12 447.156L3961.5 447.156C3958.65 447.156 3956.34 444.848 3956.34 442 3956.34 439.152 3958.65 436.844 3961.5 436.844ZM4002.75 436.844 4023.37 436.844C4026.22 436.844 4028.53 439.152 4028.53 442 4028.53 444.848 4026.22 447.156 4023.37 447.156L4002.75 447.156C3999.9 447.156 3997.59 444.848 3997.59 442 3997.59 439.152 3999.9 436.844 4002.75 436.844ZM4044 436.844 4064.62 436.844C4067.47 436.844 4069.78 439.152 4069.78 442 4069.78 444.848 4067.47 447.156 4064.62 447.156L4044 447.156C4041.15 447.156 4038.84 444.848 4038.84 442 4038.84 439.152 4041.15 436.844 4044 436.844ZM4085.25 436.844 4105.87 436.844C4108.72 436.844 4111.03 439.152 4111.03 442 4111.03 444.848 4108.72 447.156 4105.87 447.156L4085.25 447.156C4082.4 447.156 4080.09 444.848 4080.09 442 4080.09 439.152 4082.4 436.844 4085.25 436.844ZM4126.5 436.844 4147.12 436.844C4149.97 436.844 4152.28 439.152 4152.28 442 4152.28 444.848 4149.97 447.156 4147.12 447.156L4126.5 447.156C4123.65 447.156 4121.34 444.848 4121.34 442 4121.34 439.152 4123.65 436.844 4126.5 436.844ZM4167.75 436.844 4188.37 436.844C4191.22 436.844 4193.53 439.152 4193.53 442 4193.53 444.848 4191.22 447.156 4188.37 447.156L4167.75 447.156C4164.9 447.156 4162.59 444.848 4162.59 442 4162.59 439.152 4164.9 436.844 4167.75 436.844ZM4209 436.844 4229.62 436.844C4232.47 436.844 4234.78 439.152 4234.78 442 4234.78 444.848 4232.47 447.156 4229.62 447.156L4209 447.156C4206.15 447.156 4203.84 444.848 4203.84 442 4203.84 439.152 4206.15 436.844 4209 436.844ZM4250.25 436.844 4270.87 436.844C4273.72 436.844 4276.03 439.152 4276.03 442 4276.03 444.848 4273.72 447.156 4270.87 447.156L4250.25 447.156C4247.4 447.156 4245.09 444.848 4245.09 442 4245.09 439.152 4247.4 436.844 4250.25 436.844ZM4291.5 436.844 4312.12 436.844C4314.97 436.844 4317.28 439.152 4317.28 442 4317.28 444.848 4314.97 447.156 4312.12 447.156L4291.5 447.156C4288.65 447.156 4286.34 444.848 4286.34 442 4286.34 439.152 4288.65 436.844 4291.5 436.844ZM4332.75 436.844 4353.37 436.844C4356.22 436.844 4358.53 439.152 4358.53 442 4358.53 444.848 4356.22 447.156 4353.37 447.156L4332.75 447.156C4329.9 447.156 4327.59 444.848 4327.59 442 4327.59 439.152 4329.9 436.844 4332.75 436.844ZM4374 436.844 4394.62 436.844C4397.47 436.844 4399.78 439.152 4399.78 442 4399.78 444.848 4397.47 447.156 4394.62 447.156L4374 447.156C4371.15 447.156 4368.84 444.848 4368.84 442 4368.84 439.152 4371.15 436.844 4374 436.844ZM4415.25 436.844 4416.14 436.844 4435.87 436.844C4438.72 436.844 4441.03 439.152 4441.03 442 4441.03 444.848 4438.72 447.156 4435.87 447.156L4416.14 447.156 4415.25 447.156C4412.4 447.156 4410.09 444.848 4410.09 442 4410.09 439.152 4412.4 436.844 4415.25 436.844ZM4456.5 436.844 4477.12 436.844C4479.97 436.844 4482.28 439.152 4482.28 442 4482.28 444.848 4479.97 447.156 4477.12 447.156L4456.5 447.156C4453.65 447.156 4451.34 444.848 4451.34 442 4451.34 439.152 4453.65 436.844 4456.5 436.844ZM4497.75 436.844 4518.37 436.844C4521.22 436.844 4523.53 439.152 4523.53 442 4523.53 444.848 4521.22 447.156 4518.37 447.156L4497.75 447.156C4494.9 447.156 4492.59 444.848 4492.59 442 4492.59 439.152 4494.9 436.844 4497.75 436.844ZM4539 436.844 4559.62 436.844C4562.47 436.844 4564.78 439.152 4564.78 442 4564.78 444.848 4562.47 447.156 4559.62 447.156L4539 447.156C4536.15 447.156 4533.84 444.848 4533.84 442 4533.84 439.152 4536.15 436.844 4539 436.844ZM4580.25 436.844 4585.15 436.844 4600.87 436.844C4603.72 436.844 4606.03 439.152 4606.03 442 4606.03 444.848 4603.72 447.156 4600.87 447.156L4585.15 447.156 4580.25 447.156C4577.4 447.156 4575.09 444.848 4575.09 442 4575.09 439.152 4577.4 436.844 4580.25 436.844ZM4621.5 436.844 4642.12 436.844C4644.97 436.844 4647.28 439.152 4647.28 442 4647.28 444.848 4644.97 447.156 4642.12 447.156L4621.5 447.156C4618.65 447.156 4616.34 444.848 4616.34 442 4616.34 439.152 4618.65 436.844 4621.5 436.844ZM4662.75 436.844 4683.37 436.844C4686.22 436.844 4688.53 439.152 4688.53 442 4688.53 444.848 4686.22 447.156 4683.37 447.156L4662.75 447.156C4659.9 447.156 4657.59 444.848 4657.59 442 4657.59 439.152 4659.9 436.844 4662.75 436.844ZM4704 436.844 4724.62 436.844C4727.47 436.844 4729.78 439.152 4729.78 442 4729.78 444.848 4727.47 447.156 4724.62 447.156L4704 447.156C4701.15 447.156 4698.84 444.848 4698.84 442 4698.84 439.152 4701.15 436.844 4704 436.844ZM4745.25 436.844 4753.16 436.844 4765.87 436.844C4768.72 436.844 4771.03 439.152 4771.03 442 4771.03 444.848 4768.72 447.156 4765.87 447.156L4753.16 447.156 4745.25 447.156C4742.4 447.156 4740.09 444.848 4740.09 442 4740.09 439.152 4742.4 436.844 4745.25 436.844ZM4786.5 436.844 4807.12 436.844C4809.97 436.844 4812.28 439.152 4812.28 442 4812.28 444.848 4809.97 447.156 4807.12 447.156L4786.5 447.156C4783.65 447.156 4781.34 444.848 4781.34 442 4781.34 439.152 4783.65 436.844 4786.5 436.844ZM4827.75 436.844 4848.37 436.844C4851.22 436.844 4853.53 439.152 4853.53 442 4853.53 444.848 4851.22 447.156 4848.37 447.156L4827.75 447.156C4824.9 447.156 4822.59 444.848 4822.59 442 4822.59 439.152 4824.9 436.844 4827.75 436.844ZM4869 436.844 4889.62 436.844C4892.47 436.844 4894.78 439.152 4894.78 442 4894.78 444.848 4892.47 447.156 4889.62 447.156L4869 447.156C4866.15 447.156 4863.84 444.848 4863.84 442 4863.84 439.152 4866.15 436.844 4869 436.844ZM4910.25 436.844 4922.16 436.844 4930.87 436.844C4933.72 436.844 4936.03 439.152 4936.03 442 4936.03 444.848 4933.72 447.156 4930.87 447.156L4922.16 447.156 4910.25 447.156C4907.4 447.156 4905.09 444.848 4905.09 442 4905.09 439.152 4907.4 436.844 4910.25 436.844ZM4951.5 436.844 4972.12 436.844C4974.97 436.844 4977.28 439.152 4977.28 442 4977.28 444.848 4974.97 447.156 4972.12 447.156L4951.5 447.156C4948.65 447.156 4946.34 444.848 4946.34 442 4946.34 439.152 4948.65 436.844 4951.5 436.844ZM4992.75 436.844 5013.37 436.844C5016.22 436.844 5018.53 439.152 5018.53 442 5018.53 444.848 5016.22 447.156 5013.37 447.156L4992.75 447.156C4989.9 447.156 4987.59 444.848 4987.59 442 4987.59 439.152 4989.9 436.844 4992.75 436.844ZM5034 436.844 5054.62 436.844C5057.47 436.844 5059.78 439.152 5059.78 442 5059.78 444.848 5057.47 447.156 5054.62 447.156L5034 447.156C5031.15 447.156 5028.84 444.848 5028.84 442 5028.84 439.152 5031.15 436.844 5034 436.844ZM5075.25 436.844 5091.17 436.844 5095.87 436.844C5098.72 436.844 5101.03 439.152 5101.03 442 5101.03 444.848 5098.72 447.156 5095.87 447.156L5091.17 447.156 5075.25 447.156C5072.4 447.156 5070.09 444.848 5070.09 442 5070.09 439.152 5072.4 436.844 5075.25 436.844ZM5116.5 436.844 5137.12 436.844C5139.97 436.844 5142.28 439.152 5142.28 442 5142.28 444.848 5139.97 447.156 5137.12 447.156L5116.5 447.156C5113.65 447.156 5111.34 444.848 5111.34 442 5111.34 439.152 5113.65 436.844 5116.5 436.844ZM5157.75 436.844 5178.37 436.844C5181.22 436.844 5183.53 439.152 5183.53 442 5183.53 444.848 5181.22 447.156 5178.37 447.156L5157.75 447.156C5154.9 447.156 5152.59 444.848 5152.59 442 5152.59 439.152 5154.9 436.844 5157.75 436.844ZM5199 436.844 5219.62 436.844C5222.47 436.844 5224.78 439.152 5224.78 442 5224.78 444.848 5222.47 447.156 5219.62 447.156L5199 447.156C5196.15 447.156 5193.84 444.848 5193.84 442 5193.84 439.152 5196.15 436.844 5199 436.844ZM5240.25 436.844 5260 436.844C5262.85 436.844 5265.16 439.152 5265.16 442 5265.16 444.848 5262.85 447.156 5260 447.156L5240.25 447.156C5237.4 447.156 5235.09 444.848 5235.09 442 5235.09 439.152 5237.4 436.844 5240.25 436.844Z" fill="#FF0000" fill-rule="nonzero" fill-opacity="1"/></g><g clip-path="url(#clip2)"><path d="M2559 1442.84 2579.62 1442.84C2582.47 1442.84 2584.78 1445.15 2584.78 1448 2584.78 1450.85 2582.47 1453.16 2579.62 1453.16L2559 1453.16C2556.15 1453.16 2553.84 1450.85 2553.84 1448 2553.84 1445.15 2556.15 1442.84 2559 1442.84ZM2600.25 1442.84 2620.87 1442.84C2623.72 1442.84 2626.03 1445.15 2626.03 1448 2626.03 1450.85 2623.72 1453.16 2620.87 1453.16L2600.25 1453.16C2597.4 1453.16 2595.09 1450.85 2595.09 1448 2595.09 1445.15 2597.4 1442.84 2600.25 1442.84ZM2641.5 1442.84 2662.12 1442.84C2664.97 1442.84 2667.28 1445.15 2667.28 1448 2667.28 1450.85 2664.97 1453.16 2662.12 1453.16L2641.5 1453.16C2638.65 1453.16 2636.34 1450.85 2636.34 1448 2636.34 1445.15 2638.65 1442.84 2641.5 1442.84ZM2682.75 1442.84 2703.37 1442.84C2706.22 1442.84 2708.53 1445.15 2708.53 1448 2708.53 1450.85 2706.22 1453.16 2703.37 1453.16L2682.75 1453.16C2679.9 1453.16 2677.59 1450.85 2677.59 1448 2677.59 1445.15 2679.9 1442.84 2682.75 1442.84ZM2724 1442.84 2728.09 1442.84 2744.62 1442.84C2747.47 1442.84 2749.78 1445.15 2749.78 1448 2749.78 1450.85 2747.47 1453.16 2744.62 1453.16L2728.09 1453.16 2724 1453.16C2721.15 1453.16 2718.84 1450.85 2718.84 1448 2718.84 1445.15 2721.15 1442.84 2724 1442.84ZM2765.25 1442.84 2785.87 1442.84C2788.72 1442.84 2791.03 1445.15 2791.03 1448 2791.03 1450.85 2788.72 1453.16 2785.87 1453.16L2765.25 1453.16C2762.4 1453.16 2760.09 1450.85 2760.09 1448 2760.09 1445.15 2762.4 1442.84 2765.25 1442.84ZM2806.5 1442.84 2827.12 1442.84C2829.97 1442.84 2832.28 1445.15 2832.28 1448 2832.28 1450.85 2829.97 1453.16 2827.12 1453.16L2806.5 1453.16C2803.65 1453.16 2801.34 1450.85 2801.34 1448 2801.34 1445.15 2803.65 1442.84 2806.5 1442.84ZM2847.75 1442.84 2868.37 1442.84C2871.22 1442.84 2873.53 1445.15 2873.53 1448 2873.53 1450.85 2871.22 1453.16 2868.37 1453.16L2847.75 1453.16C2844.9 1453.16 2842.59 1450.85 2842.59 1448 2842.59 1445.15 2844.9 1442.84 2847.75 1442.84ZM2889 1442.84 2897.09 1442.84 2909.62 1442.84C2912.47 1442.84 2914.78 1445.15 2914.78 1448 2914.78 1450.85 2912.47 1453.16 2909.62 1453.16L2897.09 1453.16 2889 1453.16C2886.15 1453.16 2883.84 1450.85 2883.84 1448 2883.84 1445.15 2886.15 1442.84 2889 1442.84ZM2930.25 1442.84 2950.87 1442.84C2953.72 1442.84 2956.03 1445.15 2956.03 1448 2956.03 1450.85 2953.72 1453.16 2950.87 1453.16L2930.25 1453.16C2927.4 1453.16 2925.09 1450.85 2925.09 1448 2925.09 1445.15 2927.4 1442.84 2930.25 1442.84ZM2971.5 1442.84 2992.12 1442.84C2994.97 1442.84 2997.28 1445.15 2997.28 1448 2997.28 1450.85 2994.97 1453.16 2992.12 1453.16L2971.5 1453.16C2968.65 1453.16 2966.34 1450.85 2966.34 1448 2966.34 1445.15 2968.65 1442.84 2971.5 1442.84ZM3012.75 1442.84 3033.37 1442.84C3036.22 1442.84 3038.53 1445.15 3038.53 1448 3038.53 1450.85 3036.22 1453.16 3033.37 1453.16L3012.75 1453.16C3009.9 1453.16 3007.59 1450.85 3007.59 1448 3007.59 1445.15 3009.9 1442.84 3012.75 1442.84ZM3054 1442.84 3066.1 1442.84 3074.62 1442.84C3077.47 1442.84 3079.78 1445.15 3079.78 1448 3079.78 1450.85 3077.47 1453.16 3074.62 1453.16L3066.1 1453.16 3054 1453.16C3051.15 1453.16 3048.84 1450.85 3048.84 1448 3048.84 1445.15 3051.15 1442.84 3054 1442.84ZM3095.25 1442.84 3115.87 1442.84C3118.72 1442.84 3121.03 1445.15 3121.03 1448 3121.03 1450.85 3118.72 1453.16 3115.87 1453.16L3095.25 1453.16C3092.4 1453.16 3090.09 1450.85 3090.09 1448 3090.09 1445.15 3092.4 1442.84 3095.25 1442.84ZM3136.5 1442.84 3157.12 1442.84C3159.97 1442.84 3162.28 1445.15 3162.28 1448 3162.28 1450.85 3159.97 1453.16 3157.12 1453.16L3136.5 1453.16C3133.65 1453.16 3131.34 1450.85 3131.34 1448 3131.34 1445.15 3133.65 1442.84 3136.5 1442.84ZM3177.75 1442.84 3198.37 1442.84C3201.22 1442.84 3203.53 1445.15 3203.53 1448 3203.53 1450.85 3201.22 1453.16 3198.37 1453.16L3177.75 1453.16C3174.9 1453.16 3172.59 1450.85 3172.59 1448 3172.59 1445.15 3174.9 1442.84 3177.75 1442.84ZM3219 1442.84 3234.11 1442.84 3239.62 1442.84C3242.47 1442.84 3244.78 1445.15 3244.78 1448 3244.78 1450.85 3242.47 1453.16 3239.62 1453.16L3234.11 1453.16 3219 1453.16C3216.15 1453.16 3213.84 1450.85 3213.84 1448 3213.84 1445.15 3216.15 1442.84 3219 1442.84ZM3260.25 1442.84 3280.87 1442.84C3283.72 1442.84 3286.03 1445.15 3286.03 1448 3286.03 1450.85 3283.72 1453.16 3280.87 1453.16L3260.25 1453.16C3257.4 1453.16 3255.09 1450.85 3255.09 1448 3255.09 1445.15 3257.4 1442.84 3260.25 1442.84ZM3301.5 1442.84 3322.12 1442.84C3324.97 1442.84 3327.28 1445.15 3327.28 1448 3327.28 1450.85 3324.97 1453.16 3322.12 1453.16L3301.5 1453.16C3298.65 1453.16 3296.34 1450.85 3296.34 1448 3296.34 1445.15 3298.65 1442.84 3301.5 1442.84ZM3342.75 1442.84 3363.37 1442.84C3366.22 1442.84 3368.53 1445.15 3368.53 1448 3368.53 1450.85 3366.22 1453.16 3363.37 1453.16L3342.75 1453.16C3339.9 1453.16 3337.59 1450.85 3337.59 1448 3337.59 1445.15 3339.9 1442.84 3342.75 1442.84ZM3384 1442.84 3403.11 1442.84 3404.62 1442.84C3407.47 1442.84 3409.78 1445.15 3409.78 1448 3409.78 1450.85 3407.47 1453.16 3404.62 1453.16L3403.11 1453.16 3384 1453.16C3381.15 1453.16 3378.84 1450.85 3378.84 1448 3378.84 1445.15 3381.15 1442.84 3384 1442.84ZM3425.25 1442.84 3445.87 1442.84C3448.72 1442.84 3451.03 1445.15 3451.03 1448 3451.03 1450.85 3448.72 1453.16 3445.87 1453.16L3425.25 1453.16C3422.4 1453.16 3420.09 1450.85 3420.09 1448 3420.09 1445.15 3422.4 1442.84 3425.25 1442.84ZM3466.5 1442.84 3487.12 1442.84C3489.97 1442.84 3492.28 1445.15 3492.28 1448 3492.28 1450.85 3489.97 1453.16 3487.12 1453.16L3466.5 1453.16C3463.65 1453.16 3461.34 1450.85 3461.34 1448 3461.34 1445.15 3463.65 1442.84 3466.5 1442.84ZM3507.75 1442.84 3528.37 1442.84C3531.22 1442.84 3533.53 1445.15 3533.53 1448 3533.53 1450.85 3531.22 1453.16 3528.37 1453.16L3507.75 1453.16C3504.9 1453.16 3502.59 1450.85 3502.59 1448 3502.59 1445.15 3504.9 1442.84 3507.75 1442.84ZM3549 1442.84 3569.62 1442.84C3572.47 1442.84 3574.78 1445.15 3574.78 1448 3574.78 1450.85 3572.47 1453.16 3569.62 1453.16L3549 1453.16C3546.15 1453.16 3543.84 1450.85 3543.84 1448 3543.84 1445.15 3546.15 1442.84 3549 1442.84ZM3590.25 1442.84 3610.87 1442.84C3613.72 1442.84 3616.03 1445.15 3616.03 1448 3616.03 1450.85 3613.72 1453.16 3610.87 1453.16L3590.25 1453.16C3587.4 1453.16 3585.09 1450.85 3585.09 1448 3585.09 1445.15 3587.4 1442.84 3590.25 1442.84ZM3631.5 1442.84 3652.12 1442.84C3654.97 1442.84 3657.28 1445.15 3657.28 1448 3657.28 1450.85 3654.97 1453.16 3652.12 1453.16L3631.5 1453.16C3628.65 1453.16 3626.34 1450.85 3626.34 1448 3626.34 1445.15 3628.65 1442.84 3631.5 1442.84ZM3672.75 1442.84 3693.37 1442.84C3696.22 1442.84 3698.53 1445.15 3698.53 1448 3698.53 1450.85 3696.22 1453.16 3693.37 1453.16L3672.75 1453.16C3669.9 1453.16 3667.59 1450.85 3667.59 1448 3667.59 1445.15 3669.9 1442.84 3672.75 1442.84ZM3714 1442.84 3734.62 1442.84C3737.47 1442.84 3739.78 1445.15 3739.78 1448 3739.78 1450.85 3737.47 1453.16 3734.62 1453.16L3714 1453.16C3711.15 1453.16 3708.84 1450.85 3708.84 1448 3708.84 1445.15 3711.15 1442.84 3714 1442.84ZM3755.25 1442.84 3775.87 1442.84C3778.72 1442.84 3781.03 1445.15 3781.03 1448 3781.03 1450.85 3778.72 1453.16 3775.87 1453.16L3755.25 1453.16C3752.4 1453.16 3750.09 1450.85 3750.09 1448 3750.09 1445.15 3752.4 1442.84 3755.25 1442.84ZM3796.5 1442.84 3817.12 1442.84C3819.97 1442.84 3822.28 1445.15 3822.28 1448 3822.28 1450.85 3819.97 1453.16 3817.12 1453.16L3796.5 1453.16C3793.65 1453.16 3791.34 1450.85 3791.34 1448 3791.34 1445.15 3793.65 1442.84 3796.5 1442.84ZM3837.75 1442.84 3858.37 1442.84C3861.22 1442.84 3863.53 1445.15 3863.53 1448 3863.53 1450.85 3861.22 1453.16 3858.37 1453.16L3837.75 1453.16C3834.9 1453.16 3832.59 1450.85 3832.59 1448 3832.59 1445.15 3834.9 1442.84 3837.75 1442.84ZM3879 1442.84 3899.62 1442.84C3902.47 1442.84 3904.78 1445.15 3904.78 1448 3904.78 1450.85 3902.47 1453.16 3899.62 1453.16L3879 1453.16C3876.15 1453.16 3873.84 1450.85 3873.84 1448 3873.84 1445.15 3876.15 1442.84 3879 1442.84ZM3920.25 1442.84 3940.87 1442.84C3943.72 1442.84 3946.03 1445.15 3946.03 1448 3946.03 1450.85 3943.72 1453.16 3940.87 1453.16L3920.25 1453.16C3917.4 1453.16 3915.09 1450.85 3915.09 1448 3915.09 1445.15 3917.4 1442.84 3920.25 1442.84ZM3961.5 1442.84 3982.12 1442.84C3984.97 1442.84 3987.28 1445.15 3987.28 1448 3987.28 1450.85 3984.97 1453.16 3982.12 1453.16L3961.5 1453.16C3958.65 1453.16 3956.34 1450.85 3956.34 1448 3956.34 1445.15 3958.65 1442.84 3961.5 1442.84ZM4002.75 1442.84 4023.37 1442.84C4026.22 1442.84 4028.53 1445.15 4028.53 1448 4028.53 1450.85 4026.22 1453.16 4023.37 1453.16L4002.75 1453.16C3999.9 1453.16 3997.59 1450.85 3997.59 1448 3997.59 1445.15 3999.9 1442.84 4002.75 1442.84ZM4044 1442.84 4064.62 1442.84C4067.47 1442.84 4069.78 1445.15 4069.78 1448 4069.78 1450.85 4067.47 1453.16 4064.62 1453.16L4044 1453.16C4041.15 1453.16 4038.84 1450.85 4038.84 1448 4038.84 1445.15 4041.15 1442.84 4044 1442.84ZM4085.25 1442.84 4105.87 1442.84C4108.72 1442.84 4111.03 1445.15 4111.03 1448 4111.03 1450.85 4108.72 1453.16 4105.87 1453.16L4085.25 1453.16C4082.4 1453.16 4080.09 1450.85 4080.09 1448 4080.09 1445.15 4082.4 1442.84 4085.25 1442.84ZM4126.5 1442.84 4147.12 1442.84C4149.97 1442.84 4152.28 1445.15 4152.28 1448 4152.28 1450.85 4149.97 1453.16 4147.12 1453.16L4126.5 1453.16C4123.65 1453.16 4121.34 1450.85 4121.34 1448 4121.34 1445.15 4123.65 1442.84 4126.5 1442.84ZM4167.75 1442.84 4188.37 1442.84C4191.22 1442.84 4193.53 1445.15 4193.53 1448 4193.53 1450.85 4191.22 1453.16 4188.37 1453.16L4167.75 1453.16C4164.9 1453.16 4162.59 1450.85 4162.59 1448 4162.59 1445.15 4164.9 1442.84 4167.75 1442.84ZM4209 1442.84 4229.62 1442.84C4232.47 1442.84 4234.78 1445.15 4234.78 1448 4234.78 1450.85 4232.47 1453.16 4229.62 1453.16L4209 1453.16C4206.15 1453.16 4203.84 1450.85 4203.84 1448 4203.84 1445.15 4206.15 1442.84 4209 1442.84ZM4250.25 1442.84 4270.87 1442.84C4273.72 1442.84 4276.03 1445.15 4276.03 1448 4276.03 1450.85 4273.72 1453.16 4270.87 1453.16L4250.25 1453.16C4247.4 1453.16 4245.09 1450.85 4245.09 1448 4245.09 1445.15 4247.4 1442.84 4250.25 1442.84ZM4291.5 1442.84 4312.12 1442.84C4314.97 1442.84 4317.28 1445.15 4317.28 1448 4317.28 1450.85 4314.97 1453.16 4312.12 1453.16L4291.5 1453.16C4288.65 1453.16 4286.34 1450.85 4286.34 1448 4286.34 1445.15 4288.65 1442.84 4291.5 1442.84ZM4332.75 1442.84 4353.37 1442.84C4356.22 1442.84 4358.53 1445.15 4358.53 1448 4358.53 1450.85 4356.22 1453.16 4353.37 1453.16L4332.75 1453.16C4329.9 1453.16 4327.59 1450.85 4327.59 1448 4327.59 1445.15 4329.9 1442.84 4332.75 1442.84ZM4374 1442.84 4394.62 1442.84C4397.47 1442.84 4399.78 1445.15 4399.78 1448 4399.78 1450.85 4397.47 1453.16 4394.62 1453.16L4374 1453.16C4371.15 1453.16 4368.84 1450.85 4368.84 1448 4368.84 1445.15 4371.15 1442.84 4374 1442.84ZM4415.25 1442.84 4416.14 1442.84 4435.87 1442.84C4438.72 1442.84 4441.03 1445.15 4441.03 1448 4441.03 1450.85 4438.72 1453.16 4435.87 1453.16L4416.14 1453.16 4415.25 1453.16C4412.4 1453.16 4410.09 1450.85 4410.09 1448 4410.09 1445.15 4412.4 1442.84 4415.25 1442.84ZM4456.5 1442.84 4477.12 1442.84C4479.97 1442.84 4482.28 1445.15 4482.28 1448 4482.28 1450.85 4479.97 1453.16 4477.12 1453.16L4456.5 1453.16C4453.65 1453.16 4451.34 1450.85 4451.34 1448 4451.34 1445.15 4453.65 1442.84 4456.5 1442.84ZM4497.75 1442.84 4518.37 1442.84C4521.22 1442.84 4523.53 1445.15 4523.53 1448 4523.53 1450.85 4521.22 1453.16 4518.37 1453.16L4497.75 1453.16C4494.9 1453.16 4492.59 1450.85 4492.59 1448 4492.59 1445.15 4494.9 1442.84 4497.75 1442.84ZM4539 1442.84 4559.62 1442.84C4562.47 1442.84 4564.78 1445.15 4564.78 1448 4564.78 1450.85 4562.47 1453.16 4559.62 1453.16L4539 1453.16C4536.15 1453.16 4533.84 1450.85 4533.84 1448 4533.84 1445.15 4536.15 1442.84 4539 1442.84ZM4580.25 1442.84 4585.15 1442.84 4600.87 1442.84C4603.72 1442.84 4606.03 1445.15 4606.03 1448 4606.03 1450.85 4603.72 1453.16 4600.87 1453.16L4585.15 1453.16 4580.25 1453.16C4577.4 1453.16 4575.09 1450.85 4575.09 1448 4575.09 1445.15 4577.4 1442.84 4580.25 1442.84ZM4621.5 1442.84 4642.12 1442.84C4644.97 1442.84 4647.28 1445.15 4647.28 1448 4647.28 1450.85 4644.97 1453.16 4642.12 1453.16L4621.5 1453.16C4618.65 1453.16 4616.34 1450.85 4616.34 1448 4616.34 1445.15 4618.65 1442.84 4621.5 1442.84ZM4662.75 1442.84 4683.37 1442.84C4686.22 1442.84 4688.53 1445.15 4688.53 1448 4688.53 1450.85 4686.22 1453.16 4683.37 1453.16L4662.75 1453.16C4659.9 1453.16 4657.59 1450.85 4657.59 1448 4657.59 1445.15 4659.9 1442.84 4662.75 1442.84ZM4704 1442.84 4724.62 1442.84C4727.47 1442.84 4729.78 1445.15 4729.78 1448 4729.78 1450.85 4727.47 1453.16 4724.62 1453.16L4704 1453.16C4701.15 1453.16 4698.84 1450.85 4698.84 1448 4698.84 1445.15 4701.15 1442.84 4704 1442.84ZM4745.25 1442.84 4753.16 1442.84 4765.87 1442.84C4768.72 1442.84 4771.03 1445.15 4771.03 1448 4771.03 1450.85 4768.72 1453.16 4765.87 1453.16L4753.16 1453.16 4745.25 1453.16C4742.4 1453.16 4740.09 1450.85 4740.09 1448 4740.09 1445.15 4742.4 1442.84 4745.25 1442.84ZM4786.5 1442.84 4807.12 1442.84C4809.97 1442.84 4812.28 1445.15 4812.28 1448 4812.28 1450.85 4809.97 1453.16 4807.12 1453.16L4786.5 1453.16C4783.65 1453.16 4781.34 1450.85 4781.34 1448 4781.34 1445.15 4783.65 1442.84 4786.5 1442.84ZM4827.75 1442.84 4848.37 1442.84C4851.22 1442.84 4853.53 1445.15 4853.53 1448 4853.53 1450.85 4851.22 1453.16 4848.37 1453.16L4827.75 1453.16C4824.9 1453.16 4822.59 1450.85 4822.59 1448 4822.59 1445.15 4824.9 1442.84 4827.75 1442.84ZM4869 1442.84 4889.62 1442.84C4892.47 1442.84 4894.78 1445.15 4894.78 1448 4894.78 1450.85 4892.47 1453.16 4889.62 1453.16L4869 1453.16C4866.15 1453.16 4863.84 1450.85 4863.84 1448 4863.84 1445.15 4866.15 1442.84 4869 1442.84ZM4910.25 1442.84 4922.16 1442.84 4930.87 1442.84C4933.72 1442.84 4936.03 1445.15 4936.03 1448 4936.03 1450.85 4933.72 1453.16 4930.87 1453.16L4922.16 1453.16 4910.25 1453.16C4907.4 1453.16 4905.09 1450.85 4905.09 1448 4905.09 1445.15 4907.4 1442.84 4910.25 1442.84ZM4951.5 1442.84 4972.12 1442.84C4974.97 1442.84 4977.28 1445.15 4977.28 1448 4977.28 1450.85 4974.97 1453.16 4972.12 1453.16L4951.5 1453.16C4948.65 1453.16 4946.34 1450.85 4946.34 1448 4946.34 1445.15 4948.65 1442.84 4951.5 1442.84ZM4992.75 1442.84 5013.37 1442.84C5016.22 1442.84 5018.53 1445.15 5018.53 1448 5018.53 1450.85 5016.22 1453.16 5013.37 1453.16L4992.75 1453.16C4989.9 1453.16 4987.59 1450.85 4987.59 1448 4987.59 1445.15 4989.9 1442.84 4992.75 1442.84ZM5034 1442.84 5054.62 1442.84C5057.47 1442.84 5059.78 1445.15 5059.78 1448 5059.78 1450.85 5057.47 1453.16 5054.62 1453.16L5034 1453.16C5031.15 1453.16 5028.84 1450.85 5028.84 1448 5028.84 1445.15 5031.15 1442.84 5034 1442.84ZM5075.25 1442.84 5091.17 1442.84 5095.87 1442.84C5098.72 1442.84 5101.03 1445.15 5101.03 1448 5101.03 1450.85 5098.72 1453.16 5095.87 1453.16L5091.17 1453.16 5075.25 1453.16C5072.4 1453.16 5070.09 1450.85 5070.09 1448 5070.09 1445.15 5072.4 1442.84 5075.25 1442.84ZM5116.5 1442.84 5137.12 1442.84C5139.97 1442.84 5142.28 1445.15 5142.28 1448 5142.28 1450.85 5139.97 1453.16 5137.12 1453.16L5116.5 1453.16C5113.65 1453.16 5111.34 1450.85 5111.34 1448 5111.34 1445.15 5113.65 1442.84 5116.5 1442.84ZM5157.75 1442.84 5178.37 1442.84C5181.22 1442.84 5183.53 1445.15 5183.53 1448 5183.53 1450.85 5181.22 1453.16 5178.37 1453.16L5157.75 1453.16C5154.9 1453.16 5152.59 1450.85 5152.59 1448 5152.59 1445.15 5154.9 1442.84 5157.75 1442.84ZM5199 1442.84 5219.62 1442.84C5222.47 1442.84 5224.78 1445.15 5224.78 1448 5224.78 1450.85 5222.47 1453.16 5219.62 1453.16L5199 1453.16C5196.15 1453.16 5193.84 1450.85 5193.84 1448 5193.84 1445.15 5196.15 1442.84 5199 1442.84ZM5240.25 1442.84 5260 1442.84C5262.85 1442.84 5265.16 1445.15 5265.16 1448 5265.16 1450.85 5262.85 1453.16 5260 1453.16L5240.25 1453.16C5237.4 1453.16 5235.09 1450.85 5235.09 1448 5235.09 1445.15 5237.4 1442.84 5240.25 1442.84Z" fill="#00B050" fill-rule="nonzero" fill-opacity="1"/></g><g><text fill="#595959" fill-opacity="1" font-family="Calibri,Calibri_MSFontService,sans-serif" font-style="normal" font-variant="normal" font-weight="400" font-stretch="normal" font-size="41" text-anchor="start" direction="ltr" writing-mode="lr-tb" unicode-bidi="normal" text-decoration="none" transform="matrix(1 0 0 1 2384.55 1458)">0.0</text></g><g><text fill="#595959" fill-opacity="1" font-family="Calibri,Calibri_MSFontService,sans-serif" font-style="normal" font-variant="normal" font-weight="400" font-stretch="normal" font-size="41" text-anchor="start" direction="ltr" writing-mode="lr-tb" unicode-bidi="normal" text-decoration="none" transform="matrix(1 0 0 1 2384.55 1324)">2.0</text></g><g><text fill="#595959" fill-opacity="1" font-family="Calibri,Calibri_MSFontService,sans-serif" font-style="normal" font-variant="normal" font-weight="400" font-stretch="normal" font-size="41" text-anchor="start" direction="ltr" writing-mode="lr-tb" unicode-bidi="normal" text-decoration="none" transform="matrix(1 0 0 1 2384.55 1190)">4.0</text></g><g><text fill="#595959" fill-opacity="1" font-family="Calibri,Calibri_MSFontService,sans-serif" font-style="normal" font-variant="normal" font-weight="400" font-stretch="normal" font-size="41" text-anchor="start" direction="ltr" writing-mode="lr-tb" unicode-bidi="normal" text-decoration="none" transform="matrix(1 0 0 1 2384.55 1056)">6.0</text></g><g><text fill="#595959" fill-opacity="1" font-family="Calibri,Calibri_MSFontService,sans-serif" font-style="normal" font-variant="normal" font-weight="400" font-stretch="normal" font-size="41" text-anchor="start" direction="ltr" writing-mode="lr-tb" unicode-bidi="normal" text-decoration="none" transform="matrix(1 0 0 1 2384.55 922)">8.0</text></g><g><text fill="#595959" fill-opacity="1" font-family="Calibri,Calibri_MSFontService,sans-serif" font-style="normal" font-variant="normal" font-weight="400" font-stretch="normal" font-size="41" text-anchor="start" direction="ltr" writing-mode="lr-tb" unicode-bidi="normal" text-decoration="none" transform="matrix(1 0 0 1 2363.65 788)">10.0</text></g><g><text fill="#595959" fill-opacity="1" font-family="Calibri,Calibri_MSFontService,sans-serif" font-style="normal" font-variant="normal" font-weight="400" font-stretch="normal" font-size="41" text-anchor="start" direction="ltr" writing-mode="lr-tb" unicode-bidi="normal" text-decoration="none" transform="matrix(1 0 0 1 2363.65 653)">12.0</text></g><g><text fill="#595959" fill-opacity="1" font-family="Calibri,Calibri_MSFontService,sans-serif" font-style="normal" font-variant="normal" font-weight="400" font-stretch="normal" font-size="41" text-anchor="start" direction="ltr" writing-mode="lr-tb" unicode-bidi="normal" text-decoration="none" transform="matrix(1 0 0 1 2363.65 519)">14.0</text></g><g><text fill="#595959" fill-opacity="1" font-family="Calibri,Calibri_MSFontService,sans-serif" font-style="normal" font-variant="normal" font-weight="400" font-stretch="normal" font-size="41" text-anchor="start" direction="ltr" writing-mode="lr-tb" unicode-bidi="normal" text-decoration="none" transform="matrix(1 0 0 1 2363.65 385)">16.0</text></g><g><text fill="#595959" fill-opacity="1" font-family="Calibri,Calibri_MSFontService,sans-serif" font-style="normal" font-variant="normal" font-weight="400" font-stretch="normal" font-size="41" text-anchor="start" direction="ltr" writing-mode="lr-tb" unicode-bidi="normal" text-decoration="none" transform="matrix(1 0 0 1 2363.65 251)">18.0</text></g><g><text fill="#595959" fill-opacity="1" font-family="Calibri,Calibri_MSFontService,sans-serif" font-style="normal" font-variant="normal" font-weight="400" font-stretch="normal" font-size="41" text-anchor="start" direction="ltr" writing-mode="lr-tb" unicode-bidi="normal" text-decoration="none" transform="matrix(1 0 0 1 2494.3 1513)">Sprint 1</text></g><g><text fill="#595959" fill-opacity="1" font-family="Calibri,Calibri_MSFontService,sans-serif" font-style="normal" font-variant="normal" font-weight="400" font-stretch="normal" font-size="41" text-anchor="start" direction="ltr" writing-mode="lr-tb" unicode-bidi="normal" text-decoration="none" transform="matrix(1 0 0 1 2663.07 1513)">Sprint 2</text></g><g><text fill="#595959" fill-opacity="1" font-family="Calibri,Calibri_MSFontService,sans-serif" font-style="normal" font-variant="normal" font-weight="400" font-stretch="normal" font-size="41" text-anchor="start" direction="ltr" writing-mode="lr-tb" unicode-bidi="normal" text-decoration="none" transform="matrix(1 0 0 1 2831.85 1513)">Sprint 3</text></g><g><text fill="#595959" fill-opacity="1" font-family="Calibri,Calibri_MSFontService,sans-serif" font-style="normal" font-variant="normal" font-weight="400" font-stretch="normal" font-size="41" text-anchor="start" direction="ltr" writing-mode="lr-tb" unicode-bidi="normal" text-decoration="none" transform="matrix(1 0 0 1 3000.62 1513)">Sprint 4</text></g><g><text fill="#595959" fill-opacity="1" font-family="Calibri,Calibri_MSFontService,sans-serif" font-style="normal" font-variant="normal" font-weight="400" font-stretch="normal" font-size="41" text-anchor="start" direction="ltr" writing-mode="lr-tb" unicode-bidi="normal" text-decoration="none" transform="matrix(1 0 0 1 3169.39 1513)">Sprint 5</text></g><g><text fill="#595959" fill-opacity="1" font-family="Calibri,Calibri_MSFontService,sans-serif" font-style="normal" font-variant="normal" font-weight="400" font-stretch="normal" font-size="41" text-anchor="start" direction="ltr" writing-mode="lr-tb" unicode-bidi="normal" text-decoration="none" transform="matrix(1 0 0 1 3338.17 1513)">Sprint 6</text></g><g><text fill="#595959" fill-opacity="1" font-family="Calibri,Calibri_MSFontService,sans-serif" font-style="normal" font-variant="normal" font-weight="400" font-stretch="normal" font-size="41" text-anchor="start" direction="ltr" writing-mode="lr-tb" unicode-bidi="normal" text-decoration="none" transform="matrix(1 0 0 1 3506.94 1513)">Sprint 7</text></g><g><text fill="#595959" fill-opacity="1" font-family="Calibri,Calibri_MSFontService,sans-serif" font-style="normal" font-variant="normal" font-weight="400" font-stretch="normal" font-size="41" text-anchor="start" direction="ltr" writing-mode="lr-tb" unicode-bidi="normal" text-decoration="none" transform="matrix(1 0 0 1 3675.71 1513)">Sprint 8</text></g><g><text fill="#595959" fill-opacity="1" font-family="Calibri,Calibri_MSFontService,sans-serif" font-style="normal" font-variant="normal" font-weight="400" font-stretch="normal" font-size="41" text-anchor="start" direction="ltr" writing-mode="lr-tb" unicode-bidi="normal" text-decoration="none" transform="matrix(1 0 0 1 3844.49 1513)">Sprint 9</text></g><g><text fill="#595959" fill-opacity="1" font-family="Calibri,Calibri_MSFontService,sans-serif" font-style="normal" font-variant="normal" font-weight="400" font-stretch="normal" font-size="41" text-anchor="start" direction="ltr" writing-mode="lr-tb" unicode-bidi="normal" text-decoration="none" transform="matrix(1 0 0 1 4002.81 1513)">Sprint 10</text></g><g><text fill="#595959" fill-opacity="1" font-family="Calibri,Calibri_MSFontService,sans-serif" font-style="normal" font-variant="normal" font-weight="400" font-stretch="normal" font-size="41" text-anchor="start" direction="ltr" writing-mode="lr-tb" unicode-bidi="normal" text-decoration="none" transform="matrix(1 0 0 1 4171.58 1513)">Sprint 11</text></g><g><text fill="#595959" fill-opacity="1" font-family="Calibri,Calibri_MSFontService,sans-serif" font-style="normal" font-variant="normal" font-weight="400" font-stretch="normal" font-size="41" text-anchor="start" direction="ltr" writing-mode="lr-tb" unicode-bidi="normal" text-decoration="none" transform="matrix(1 0 0 1 4340.36 1513)">Sprint 12</text></g><g><text fill="#595959" fill-opacity="1" font-family="Calibri,Calibri_MSFontService,sans-serif" font-style="normal" font-variant="normal" font-weight="400" font-stretch="normal" font-size="41" text-anchor="start" direction="ltr" writing-mode="lr-tb" unicode-bidi="normal" text-decoration="none" transform="matrix(1 0 0 1 4509.13 1513)">Sprint 13</text></g><g><text fill="#595959" fill-opacity="1" font-family="Calibri,Calibri_MSFontService,sans-serif" font-style="normal" font-variant="normal" font-weight="400" font-stretch="normal" font-size="41" text-anchor="start" direction="ltr" writing-mode="lr-tb" unicode-bidi="normal" text-decoration="none" transform="matrix(1 0 0 1 4677.9 1513)">Sprint 14</text></g><g><text fill="#595959" fill-opacity="1" font-family="Calibri,Calibri_MSFontService,sans-serif" font-style="normal" font-variant="normal" font-weight="400" font-stretch="normal" font-size="41" text-anchor="start" direction="ltr" writing-mode="lr-tb" unicode-bidi="normal" text-decoration="none" transform="matrix(1 0 0 1 4846.68 1513)">Sprint 15</text></g><g><text fill="#595959" fill-opacity="1" font-family="Calibri,Calibri_MSFontService,sans-serif" font-style="normal" font-variant="normal" font-weight="400" font-stretch="normal" font-size="41" text-anchor="start" direction="ltr" writing-mode="lr-tb" unicode-bidi="normal" text-decoration="none" transform="matrix(1 0 0 1 5015.45 1513)">Sprint 16</text></g><g><text fill="#595959" fill-opacity="1" font-family="Calibri,Calibri_MSFontService,sans-serif" font-style="normal" font-variant="normal" font-weight="400" font-stretch="normal" font-size="41" text-anchor="start" direction="ltr" writing-mode="lr-tb" unicode-bidi="normal" text-decoration="none" transform="matrix(1 0 0 1 5184.22 1513)">Sprint 17</text></g><g><text fill="#595959" fill-opacity="1" font-family="Calibri,Calibri_MSFontService,sans-serif" font-style="normal" font-variant="normal" font-weight="400" font-stretch="normal" font-size="46" text-anchor="start" direction="ltr" writing-mode="lr-tb" unicode-bidi="normal" text-decoration="none" transform="matrix(6.12323e-17 -1 1 6.12323e-17 2337.96 992)">percentuale (%)</text></g><g><text fill="#595959" fill-opacity="1" font-family="Calibri,Calibri_MSFontService,sans-serif" font-style="normal" font-variant="normal" font-weight="400" font-stretch="normal" font-size="64" text-anchor="start" direction="ltr" writing-mode="lr-tb" unicode-bidi="normal" text-decoration="none" transform="matrix(1 0 0 1 3785.41 166)">TS</text></g><g><path d="M3270 1593 3386 1593" stroke="#1F497D" stroke-width="10.3125" stroke-linecap="round" stroke-linejoin="round" stroke-miterlimit="10" stroke-opacity="1" fill="none" fill-rule="evenodd"/></g><g><text fill="#595959" fill-opacity="1" font-family="Calibri,Calibri_MSFontService,sans-serif" font-style="normal" font-variant="normal" font-weight="400" font-stretch="normal" font-size="41" text-anchor="start" direction="ltr" writing-mode="lr-tb" unicode-bidi="normal" text-decoration="none" transform="matrix(1 0 0 1 3398.42 1603)">TS</text></g><g><path d="M3505 1587.84 3525.62 1587.84C3528.47 1587.84 3530.78 1590.15 3530.78 1593 3530.78 1595.85 3528.47 1598.16 3525.62 1598.16L3505 1598.16C3502.15 1598.16 3499.84 1595.85 3499.84 1593 3499.84 1590.15 3502.15 1587.84 3505 1587.84ZM3546.25 1587.84 3566.87 1587.84C3569.72 1587.84 3572.03 1590.15 3572.03 1593 3572.03 1595.85 3569.72 1598.16 3566.87 1598.16L3546.25 1598.16C3543.4 1598.16 3541.09 1595.85 3541.09 1593 3541.09 1590.15 3543.4 1587.84 3546.25 1587.84ZM3587.5 1587.84 3608.12 1587.84C3610.97 1587.84 3613.28 1590.15 3613.28 1593 3613.28 1595.85 3610.97 1598.16 3608.12 1598.16L3587.5 1598.16C3584.65 1598.16 3582.34 1595.85 3582.34 1593 3582.34 1590.15 3584.65 1587.84 3587.5 1587.84Z" fill="#FF0000" fill-rule="nonzero" fill-opacity="1"/></g><g><text fill="#595959" fill-opacity="1" font-family="Calibri,Calibri_MSFontService,sans-serif" font-style="normal" font-variant="normal" font-weight="400" font-stretch="normal" font-size="41" text-anchor="start" direction="ltr" writing-mode="lr-tb" unicode-bidi="normal" text-decoration="none" transform="matrix(1 0 0 1 3633.06 1603)">Soglia acc. (≤15%)</text></g><g><path d="M4000 1587.84 4020.62 1587.84C4023.47 1587.84 4025.78 1590.15 4025.78 1593 4025.78 1595.85 4023.47 1598.16 4020.62 1598.16L4000 1598.16C3997.15 1598.16 3994.84 1595.85 3994.84 1593 3994.84 1590.15 3997.15 1587.84 4000 1587.84ZM4041.25 1587.84 4061.87 1587.84C4064.72 1587.84 4067.03 1590.15 4067.03 1593 4067.03 1595.85 4064.72 1598.16 4061.87 1598.16L4041.25 1598.16C4038.4 1598.16 4036.09 1595.85 4036.09 1593 4036.09 1590.15 4038.4 1587.84 4041.25 1587.84ZM4082.5 1587.84 4103.12 1587.84C4105.97 1587.84 4108.28 1590.15 4108.28 1593 4108.28 1595.85 4105.97 1598.16 4103.12 1598.16L4082.5 1598.16C4079.65 1598.16 4077.34 1595.85 4077.34 1593 4077.34 1590.15 4079.65 1587.84 4082.5 1587.84Z" fill="#00B050" fill-rule="nonzero" fill-opacity="1"/></g><g><text fill="#595959" fill-opacity="1" font-family="Calibri,Calibri_MSFontService,sans-serif" font-style="normal" font-variant="normal" font-weight="400" font-stretch="normal" font-size="41" text-anchor="start" direction="ltr" writing-mode="lr-tb" unicode-bidi="normal" text-decoration="none" transform="matrix(1 0 0 1 4127.98 1603)">Soglia ott. (0%)</text></g><rect x="2237.5" y="71.5" width="3158" height="1588" stroke="#D9D9D9" stroke-width="3.4375" stroke-linecap="butt" stroke-linejoin="round" stroke-miterlimit="10" stroke-opacity="1" fill="none"/></g></g></svg>