<svg width="3030" height="1673" xmlns="http://www.w3.org/2000/svg" xmlns:xlink="http://www.w3.org/1999/xlink" xml:space="preserve" overflow="hidden"><defs><clipPath id="clip0"><rect x="1095" y="783" width="3030" height="1673"/></clipPath><clipPath id="clip1"><rect x="1095" y="783" width="3030" height="1673"/></clipPath></defs><g clip-path="url(#clip0)" transform="translate(-1095 -783)"><g clip-path="url(#clip1)"><rect x="1100" y="786" width="3020" height="1666" fill="#FFFFFF" fill-opacity="1"/><g><path d="M1307.5 2057.57 4070.5 2057.57M1307.5 1873.56 4070.5 1873.56M1307.5 1690.56 4070.5 1690.56M1307.5 1506.55 4070.5 1506.55M1307.5 1323.54 4070.5 1323.54M1307.5 1139.54 4070.5 1139.54M1307.5 956.5 4070.5 956.5" stroke="#D9D9D9" stroke-width="3.4375" stroke-linecap="butt" stroke-linejoin="round" stroke-miterlimit="10" stroke-opacity="1" fill="none" fill-rule="nonzero"/></g><g><path d="M1307.5 2240.5 4070.5 2240.5" stroke="#D9D9D9" stroke-width="3.4375" stroke-linecap="butt" stroke-linejoin="round" stroke-miterlimit="10" stroke-opacity="1" fill="none" fill-rule="evenodd"/></g><g><path d="M1461 2241 1767.06 2241 2074.07 2241 2381.08 1213 2688.09 1433.05 2995.1 1617.05 3302.11 1800.06 3610 1910.06" stroke="#4F81BD" stroke-width="10.3125" stroke-linecap="round" stroke-linejoin="round" stroke-miterlimit="10" stroke-opacity="1" fill="none" fill-rule="nonzero"/></g><g><path d="M1461 1134.84 1481.62 1134.84C1484.47 1134.84 1486.78 1137.15 1486.78 1140 1486.78 1142.85 1484.47 1145.16 1481.62 1145.16L1461 1145.16C1458.15 1145.16 1455.84 1142.85 1455.84 1140 1455.84 1137.15 1458.15 1134.84 1461 1134.84ZM1502.25 1134.84 1522.87 1134.84C1525.72 1134.84 1528.03 1137.15 1528.03 1140 1528.03 1142.85 1525.72 1145.16 1522.87 1145.16L1502.25 1145.16C1499.4 1145.16 1497.09 1142.85 1497.09 1140 1497.09 1137.15 1499.4 1134.84 1502.25 1134.84ZM1543.5 1134.84 1564.12 1134.84C1566.97 1134.84 1569.28 1137.15 1569.28 1140 1569.28 1142.85 1566.97 1145.16 1564.12 1145.16L1543.5 1145.16C1540.65 1145.16 1538.34 1142.85 1538.34 1140 1538.34 1137.15 1540.65 1134.84 1543.5 1134.84ZM1584.75 1134.84 1605.37 1134.84C1608.22 1134.84 1610.53 1137.15 1610.53 1140 1610.53 1142.85 1608.22 1145.16 1605.37 1145.16L1584.75 1145.16C1581.9 1145.16 1579.59 1142.85 1579.59 1140 1579.59 1137.15 1581.9 1134.84 1584.75 1134.84ZM1626 1134.84 1646.62 1134.84C1649.47 1134.84 1651.78 1137.15 1651.78 1140 1651.78 1142.85 1649.47 1145.16 1646.62 1145.16L1626 1145.16C1623.15 1145.16 1620.84 1142.85 1620.84 1140 1620.84 1137.15 1623.15 1134.84 1626 1134.84ZM1667.25 1134.84 1687.87 1134.84C1690.72 1134.84 1693.03 1137.15 1693.03 1140 1693.03 1142.85 1690.72 1145.16 1687.87 1145.16L1667.25 1145.16C1664.4 1145.16 1662.09 1142.85 1662.09 1140 1662.09 1137.15 1664.4 1134.84 1667.25 1134.84ZM1708.5 1134.84 1729.12 1134.84C1731.97 1134.84 1734.28 1137.15 1734.28 1140 1734.28 1142.85 1731.97 1145.16 1729.12 1145.16L1708.5 1145.16C1705.65 1145.16 1703.34 1142.85 1703.34 1140 1703.34 1137.15 1705.65 1134.84 1708.5 1134.84ZM1749.75 1134.84 1767.06 1134.84 1770.37 1134.84C1773.22 1134.84 1775.53 1137.15 1775.53 1140 1775.53 1142.85 1773.22 1145.16 1770.37 1145.16L1767.06 1145.16 1749.75 1145.16C1746.9 1145.16 1744.59 1142.85 1744.59 1140 1744.59 1137.15 1746.9 1134.84 1749.75 1134.84ZM1791 1134.84 1811.62 1134.84C1814.47 1134.84 1816.78 1137.15 1816.78 1140 1816.78 1142.85 1814.47 1145.16 1811.62 1145.16L1791 1145.16C1788.15 1145.16 1785.84 1142.85 1785.84 1140 1785.84 1137.15 1788.15 1134.84 1791 1134.84ZM1832.25 1134.84 1852.87 1134.84C1855.72 1134.84 1858.03 1137.15 1858.03 1140 1858.03 1142.85 1855.72 1145.16 1852.87 1145.16L1832.25 1145.16C1829.4 1145.16 1827.09 1142.85 1827.09 1140 1827.09 1137.15 1829.4 1134.84 1832.25 1134.84ZM1873.5 1134.84 1894.12 1134.84C1896.97 1134.84 1899.28 1137.15 1899.28 1140 1899.28 1142.85 1896.97 1145.16 1894.12 1145.16L1873.5 1145.16C1870.65 1145.16 1868.34 1142.85 1868.34 1140 1868.34 1137.15 1870.65 1134.84 1873.5 1134.84ZM1914.75 1134.84 1935.37 1134.84C1938.22 1134.84 1940.53 1137.15 1940.53 1140 1940.53 1142.85 1938.22 1145.16 1935.37 1145.16L1914.75 1145.16C1911.9 1145.16 1909.59 1142.85 1909.59 1140 1909.59 1137.15 1911.9 1134.84 1914.75 1134.84ZM1956 1134.84 1976.62 1134.84C1979.47 1134.84 1981.78 1137.15 1981.78 1140 1981.78 1142.85 1979.47 1145.16 1976.62 1145.16L1956 1145.16C1953.15 1145.16 1950.84 1142.85 1950.84 1140 1950.84 1137.15 1953.15 1134.84 1956 1134.84ZM1997.25 1134.84 2017.87 1134.84C2020.72 1134.84 2023.03 1137.15 2023.03 1140 2023.03 1142.85 2020.72 1145.16 2017.87 1145.16L1997.25 1145.16C1994.4 1145.16 1992.09 1142.85 1992.09 1140 1992.09 1137.15 1994.4 1134.84 1997.25 1134.84ZM2038.5 1134.84 2059.12 1134.84C2061.97 1134.84 2064.28 1137.15 2064.28 1140 2064.28 1142.85 2061.97 1145.16 2059.12 1145.16L2038.5 1145.16C2035.65 1145.16 2033.34 1142.85 2033.34 1140 2033.34 1137.15 2035.65 1134.84 2038.5 1134.84ZM2079.75 1134.84 2100.37 1134.84C2103.22 1134.84 2105.53 1137.15 2105.53 1140 2105.53 1142.85 2103.22 1145.16 2100.37 1145.16L2079.75 1145.16C2076.9 1145.16 2074.59 1142.85 2074.59 1140 2074.59 1137.15 2076.9 1134.84 2079.75 1134.84ZM2121 1134.84 2141.62 1134.84C2144.47 1134.84 2146.78 1137.15 2146.78 1140 2146.78 1142.85 2144.47 1145.16 2141.62 1145.16L2121 1145.16C2118.15 1145.16 2115.84 1142.85 2115.84 1140 2115.84 1137.15 2118.15 1134.84 2121 1134.84ZM2162.25 1134.84 2182.87 1134.84C2185.72 1134.84 2188.03 1137.15 2188.03 1140 2188.03 1142.85 2185.72 1145.16 2182.87 1145.16L2162.25 1145.16C2159.4 1145.16 2157.09 1142.85 2157.09 1140 2157.09 1137.15 2159.4 1134.84 2162.25 1134.84ZM2203.5 1134.84 2224.12 1134.84C2226.97 1134.84 2229.28 1137.15 2229.28 1140 2229.28 1142.85 2226.97 1145.16 2224.12 1145.16L2203.5 1145.16C2200.65 1145.16 2198.34 1142.85 2198.34 1140 2198.34 1137.15 2200.65 1134.84 2203.5 1134.84ZM2244.75 1134.84 2265.37 1134.84C2268.22 1134.84 2270.53 1137.15 2270.53 1140 2270.53 1142.85 2268.22 1145.16 2265.37 1145.16L2244.75 1145.16C2241.9 1145.16 2239.59 1142.85 2239.59 1140 2239.59 1137.15 2241.9 1134.84 2244.75 1134.84ZM2286 1134.84 2306.62 1134.84C2309.47 1134.84 2311.78 1137.15 2311.78 1140 2311.78 1142.85 2309.47 1145.16 2306.62 1145.16L2286 1145.16C2283.15 1145.16 2280.84 1142.85 2280.84 1140 2280.84 1137.15 2283.15 1134.84 2286 1134.84ZM2327.25 1134.84 2347.87 1134.84C2350.72 1134.84 2353.03 1137.15 2353.03 1140 2353.03 1142.85 2350.72 1145.16 2347.87 1145.16L2327.25 1145.16C2324.4 1145.16 2322.09 1142.85 2322.09 1140 2322.09 1137.15 2324.4 1134.84 2327.25 1134.84ZM2368.5 1134.84 2381.08 1134.84 2389.12 1134.84C2391.97 1134.84 2394.28 1137.15 2394.28 1140 2394.28 1142.85 2391.97 1145.16 2389.12 1145.16L2381.08 1145.16 2368.5 1145.16C2365.65 1145.16 2363.34 1142.85 2363.34 1140 2363.34 1137.15 2365.65 1134.84 2368.5 1134.84ZM2409.75 1134.84 2430.37 1134.84C2433.22 1134.84 2435.53 1137.15 2435.53 1140 2435.53 1142.85 2433.22 1145.16 2430.37 1145.16L2409.75 1145.16C2406.9 1145.16 2404.59 1142.85 2404.59 1140 2404.59 1137.15 2406.9 1134.84 2409.75 1134.84ZM2451 1134.84 2471.62 1134.84C2474.47 1134.84 2476.78 1137.15 2476.78 1140 2476.78 1142.85 2474.47 1145.16 2471.62 1145.16L2451 1145.16C2448.15 1145.16 2445.84 1142.85 2445.84 1140 2445.84 1137.15 2448.15 1134.84 2451 1134.84ZM2492.25 1134.84 2512.87 1134.84C2515.72 1134.84 2518.03 1137.15 2518.03 1140 2518.03 1142.85 2515.72 1145.16 2512.87 1145.16L2492.25 1145.16C2489.4 1145.16 2487.09 1142.85 2487.09 1140 2487.09 1137.15 2489.4 1134.84 2492.25 1134.84ZM2533.5 1134.84 2554.12 1134.84C2556.97 1134.84 2559.28 1137.15 2559.28 1140 2559.28 1142.85 2556.97 1145.16 2554.12 1145.16L2533.5 1145.16C2530.65 1145.16 2528.34 1142.85 2528.34 1140 2528.34 1137.15 2530.65 1134.84 2533.5 1134.84ZM2574.75 1134.84 2595.37 1134.84C2598.22 1134.84 2600.53 1137.15 2600.53 1140 2600.53 1142.85 2598.22 1145.16 2595.37 1145.16L2574.75 1145.16C2571.9 1145.16 2569.59 1142.85 2569.59 1140 2569.59 1137.15 2571.9 1134.84 2574.75 1134.84ZM2616 1134.84 2636.62 1134.84C2639.47 1134.84 2641.78 1137.15 2641.78 1140 2641.78 1142.85 2639.47 1145.16 2636.62 1145.16L2616 1145.16C2613.15 1145.16 2610.84 1142.85 2610.84 1140 2610.84 1137.15 2613.15 1134.84 2616 1134.84ZM2657.25 1134.84 2677.87 1134.84C2680.72 1134.84 2683.03 1137.15 2683.03 1140 2683.03 1142.85 2680.72 1145.16 2677.87 1145.16L2657.25 1145.16C2654.4 1145.16 2652.09 1142.85 2652.09 1140 2652.09 1137.15 2654.4 1134.84 2657.25 1134.84ZM2698.5 1134.84 2719.12 1134.84C2721.97 1134.84 2724.28 1137.15 2724.28 1140 2724.28 1142.85 2721.97 1145.16 2719.12 1145.16L2698.5 1145.16C2695.65 1145.16 2693.34 1142.85 2693.34 1140 2693.34 1137.15 2695.65 1134.84 2698.5 1134.84ZM2739.75 1134.84 2760.37 1134.84C2763.22 1134.84 2765.53 1137.15 2765.53 1140 2765.53 1142.85 2763.22 1145.16 2760.37 1145.16L2739.75 1145.16C2736.9 1145.16 2734.59 1142.85 2734.59 1140 2734.59 1137.15 2736.9 1134.84 2739.75 1134.84ZM2781 1134.84 2801.62 1134.84C2804.47 1134.84 2806.78 1137.15 2806.78 1140 2806.78 1142.85 2804.47 1145.16 2801.62 1145.16L2781 1145.16C2778.15 1145.16 2775.84 1142.85 2775.84 1140 2775.84 1137.15 2778.15 1134.84 2781 1134.84ZM2822.25 1134.84 2842.87 1134.84C2845.72 1134.84 2848.03 1137.15 2848.03 1140 2848.03 1142.85 2845.72 1145.16 2842.87 1145.16L2822.25 1145.16C2819.4 1145.16 2817.09 1142.85 2817.09 1140 2817.09 1137.15 2819.4 1134.84 2822.25 1134.84ZM2863.5 1134.84 2884.12 1134.84C2886.97 1134.84 2889.28 1137.15 2889.28 1140 2889.28 1142.85 2886.97 1145.16 2884.12 1145.16L2863.5 1145.16C2860.65 1145.16 2858.34 1142.85 2858.34 1140 2858.34 1137.15 2860.65 1134.84 2863.5 1134.84ZM2904.75 1134.84 2925.37 1134.84C2928.22 1134.84 2930.53 1137.15 2930.53 1140 2930.53 1142.85 2928.22 1145.16 2925.37 1145.16L2904.75 1145.16C2901.9 1145.16 2899.59 1142.85 2899.59 1140 2899.59 1137.15 2901.9 1134.84 2904.75 1134.84ZM2946 1134.84 2966.62 1134.84C2969.47 1134.84 2971.78 1137.15 2971.78 1140 2971.78 1142.85 2969.47 1145.16 2966.62 1145.16L2946 1145.16C2943.15 1145.16 2940.84 1142.85 2940.84 1140 2940.84 1137.15 2943.15 1134.84 2946 1134.84ZM2987.25 1134.84 2995.1 1134.84 3007.87 1134.84C3010.72 1134.84 3013.03 1137.15 3013.03 1140 3013.03 1142.85 3010.72 1145.16 3007.87 1145.16L2995.1 1145.16 2987.25 1145.16C2984.4 1145.16 2982.09 1142.85 2982.09 1140 2982.09 1137.15 2984.4 1134.84 2987.25 1134.84ZM3028.5 1134.84 3049.12 1134.84C3051.97 1134.84 3054.28 1137.15 3054.28 1140 3054.28 1142.85 3051.97 1145.16 3049.12 1145.16L3028.5 1145.16C3025.65 1145.16 3023.34 1142.85 3023.34 1140 3023.34 1137.15 3025.65 1134.84 3028.5 1134.84ZM3069.75 1134.84 3090.37 1134.84C3093.22 1134.84 3095.53 1137.15 3095.53 1140 3095.53 1142.85 3093.22 1145.16 3090.37 1145.16L3069.75 1145.16C3066.9 1145.16 3064.59 1142.85 3064.59 1140 3064.59 1137.15 3066.9 1134.84 3069.75 1134.84ZM3111 1134.84 3131.62 1134.84C3134.47 1134.84 3136.78 1137.15 3136.78 1140 3136.78 1142.85 3134.47 1145.16 3131.62 1145.16L3111 1145.16C3108.15 1145.16 3105.84 1142.85 3105.84 1140 3105.84 1137.15 3108.15 1134.84 3111 1134.84ZM3152.25 1134.84 3172.87 1134.84C3175.72 1134.84 3178.03 1137.15 3178.03 1140 3178.03 1142.85 3175.72 1145.16 3172.87 1145.16L3152.25 1145.16C3149.4 1145.16 3147.09 1142.85 3147.09 1140 3147.09 1137.15 3149.4 1134.84 3152.25 1134.84ZM3193.5 1134.84 3214.12 1134.84C3216.97 1134.84 3219.28 1137.15 3219.28 1140 3219.28 1142.85 3216.97 1145.16 3214.12 1145.16L3193.5 1145.16C3190.65 1145.16 3188.34 1142.85 3188.34 1140 3188.34 1137.15 3190.65 1134.84 3193.5 1134.84ZM3234.75 1134.84 3255.37 1134.84C3258.22 1134.84 3260.53 1137.15 3260.53 1140 3260.53 1142.85 3258.22 1145.16 3255.37 1145.16L3234.75 1145.16C3231.9 1145.16 3229.59 1142.85 3229.59 1140 3229.59 1137.15 3231.9 1134.84 3234.75 1134.84ZM3276 1134.84 3296.62 1134.84C3299.47 1134.84 3301.78 1137.15 3301.78 1140 3301.78 1142.85 3299.47 1145.16 3296.62 1145.16L3276 1145.16C3273.15 1145.16 3270.84 1142.85 3270.84 1140 3270.84 1137.15 3273.15 1134.84 3276 1134.84ZM3317.25 1134.84 3337.87 1134.84C3340.72 1134.84 3343.03 1137.15 3343.03 1140 3343.03 1142.85 3340.72 1145.16 3337.87 1145.16L3317.25 1145.16C3314.4 1145.16 3312.09 1142.85 3312.09 1140 3312.09 1137.15 3314.4 1134.84 3317.25 1134.84ZM3358.5 1134.84 3379.12 1134.84C3381.97 1134.84 3384.28 1137.15 3384.28 1140 3384.28 1142.85 3381.97 1145.16 3379.12 1145.16L3358.5 1145.16C3355.65 1145.16 3353.34 1142.85 3353.34 1140 3353.34 1137.15 3355.65 1134.84 3358.5 1134.84ZM3399.75 1134.84 3420.37 1134.84C3423.22 1134.84 3425.53 1137.15 3425.53 1140 3425.53 1142.85 3423.22 1145.16 3420.37 1145.16L3399.75 1145.16C3396.9 1145.16 3394.59 1142.85 3394.59 1140 3394.59 1137.15 3396.9 1134.84 3399.75 1134.84ZM3441 1134.84 3461.62 1134.84C3464.47 1134.84 3466.78 1137.15 3466.78 1140 3466.78 1142.85 3464.47 1145.16 3461.62 1145.16L3441 1145.16C3438.15 1145.16 3435.84 1142.85 3435.84 1140 3435.84 1137.15 3438.15 1134.84 3441 1134.84ZM3482.25 1134.84 3502.87 1134.84C3505.72 1134.84 3508.03 1137.15 3508.03 1140 3508.03 1142.85 3505.72 1145.16 3502.87 1145.16L3482.25 1145.16C3479.4 1145.16 3477.09 1142.85 3477.09 1140 3477.09 1137.15 3479.4 1134.84 3482.25 1134.84ZM3523.5 1134.84 3544.12 1134.84C3546.97 1134.84 3549.28 1137.15 3549.28 1140 3549.28 1142.85 3546.97 1145.16 3544.12 1145.16L3523.5 1145.16C3520.65 1145.16 3518.34 1142.85 3518.34 1140 3518.34 1137.15 3520.65 1134.84 3523.5 1134.84ZM3564.75 1134.84 3585.37 1134.84C3588.22 1134.84 3590.53 1137.15 3590.53 1140 3590.53 1142.85 3588.22 1145.16 3585.37 1145.16L3564.75 1145.16C3561.9 1145.16 3559.59 1142.85 3559.59 1140 3559.59 1137.15 3561.9 1134.84 3564.75 1134.84ZM3606 1134.84 3610 1134.84C3612.85 1134.84 3615.16 1137.15 3615.16 1140 3615.16 1142.85 3612.85 1145.16 3610 1145.16L3606 1145.16C3603.15 1145.16 3600.84 1142.85 3600.84 1140 3600.84 1137.15 3603.15 1134.84 3606 1134.84Z" fill="#FF0000" fill-rule="nonzero" fill-opacity="1"/></g><g><path d="M1461 1868.84 1481.62 1868.84C1484.47 1868.84 1486.78 1871.15 1486.78 1874 1486.78 1876.85 1484.47 1879.16 1481.62 1879.16L1461 1879.16C1458.15 1879.16 1455.84 1876.85 1455.84 1874 1455.84 1871.15 1458.15 1868.84 1461 1868.84ZM1502.25 1868.84 1522.87 1868.84C1525.72 1868.84 1528.03 1871.15 1528.03 1874 1528.03 1876.85 1525.72 1879.16 1522.87 1879.16L1502.25 1879.16C1499.4 1879.16 1497.09 1876.85 1497.09 1874 1497.09 1871.15 1499.4 1868.84 1502.25 1868.84ZM1543.5 1868.84 1564.12 1868.84C1566.97 1868.84 1569.28 1871.15 1569.28 1874 1569.28 1876.85 1566.97 1879.16 1564.12 1879.16L1543.5 1879.16C1540.65 1879.16 1538.34 1876.85 1538.34 1874 1538.34 1871.15 1540.65 1868.84 1543.5 1868.84ZM1584.75 1868.84 1605.37 1868.84C1608.22 1868.84 1610.53 1871.15 1610.53 1874 1610.53 1876.85 1608.22 1879.16 1605.37 1879.16L1584.75 1879.16C1581.9 1879.16 1579.59 1876.85 1579.59 1874 1579.59 1871.15 1581.9 1868.84 1584.75 1868.84ZM1626 1868.84 1646.62 1868.84C1649.47 1868.84 1651.78 1871.15 1651.78 1874 1651.78 1876.85 1649.47 1879.16 1646.62 1879.16L1626 1879.16C1623.15 1879.16 1620.84 1876.85 1620.84 1874 1620.84 1871.15 1623.15 1868.84 1626 1868.84ZM1667.25 1868.84 1687.87 1868.84C1690.72 1868.84 1693.03 1871.15 1693.03 1874 1693.03 1876.85 1690.72 1879.16 1687.87 1879.16L1667.25 1879.16C1664.4 1879.16 1662.09 1876.85 1662.09 1874 1662.09 1871.15 1664.4 1868.84 1667.25 1868.84ZM1708.5 1868.84 1729.12 1868.84C1731.97 1868.84 1734.28 1871.15 1734.28 1874 1734.28 1876.85 1731.97 1879.16 1729.12 1879.16L1708.5 1879.16C1705.65 1879.16 1703.34 1876.85 1703.34 1874 1703.34 1871.15 1705.65 1868.84 1708.5 1868.84ZM1749.75 1868.84 1767.06 1868.84 1770.37 1868.84C1773.22 1868.84 1775.53 1871.15 1775.53 1874 1775.53 1876.85 1773.22 1879.16 1770.37 1879.16L1767.06 1879.16 1749.75 1879.16C1746.9 1879.16 1744.59 1876.85 1744.59 1874 1744.59 1871.15 1746.9 1868.84 1749.75 1868.84ZM1791 1868.84 1811.62 1868.84C1814.47 1868.84 1816.78 1871.15 1816.78 1874 1816.78 1876.85 1814.47 1879.16 1811.62 1879.16L1791 1879.16C1788.15 1879.16 1785.84 1876.85 1785.84 1874 1785.84 1871.15 1788.15 1868.84 1791 1868.84ZM1832.25 1868.84 1852.87 1868.84C1855.72 1868.84 1858.03 1871.15 1858.03 1874 1858.03 1876.85 1855.72 1879.16 1852.87 1879.16L1832.25 1879.16C1829.4 1879.16 1827.09 1876.85 1827.09 1874 1827.09 1871.15 1829.4 1868.84 1832.25 1868.84ZM1873.5 1868.84 1894.12 1868.84C1896.97 1868.84 1899.28 1871.15 1899.28 1874 1899.28 1876.85 1896.97 1879.16 1894.12 1879.16L1873.5 1879.16C1870.65 1879.16 1868.34 1876.85 1868.34 1874 1868.34 1871.15 1870.65 1868.84 1873.5 1868.84ZM1914.75 1868.84 1935.37 1868.84C1938.22 1868.84 1940.53 1871.15 1940.53 1874 1940.53 1876.85 1938.22 1879.16 1935.37 1879.16L1914.75 1879.16C1911.9 1879.16 1909.59 1876.85 1909.59 1874 1909.59 1871.15 1911.9 1868.84 1914.75 1868.84ZM1956 1868.84 1976.62 1868.84C1979.47 1868.84 1981.78 1871.15 1981.78 1874 1981.78 1876.85 1979.47 1879.16 1976.62 1879.16L1956 1879.16C1953.15 1879.16 1950.84 1876.85 1950.84 1874 1950.84 1871.15 1953.15 1868.84 1956 1868.84ZM1997.25 1868.84 2017.87 1868.84C2020.72 1868.84 2023.03 1871.15 2023.03 1874 2023.03 1876.85 2020.72 1879.16 2017.87 1879.16L1997.25 1879.16C1994.4 1879.16 1992.09 1876.85 1992.09 1874 1992.09 1871.15 1994.4 1868.84 1997.25 1868.84ZM2038.5 1868.84 2059.12 1868.84C2061.97 1868.84 2064.28 1871.15 2064.28 1874 2064.28 1876.85 2061.97 1879.16 2059.12 1879.16L2038.5 1879.16C2035.65 1879.16 2033.34 1876.85 2033.34 1874 2033.34 1871.15 2035.65 1868.84 2038.5 1868.84ZM2079.75 1868.84 2100.37 1868.84C2103.22 1868.84 2105.53 1871.15 2105.53 1874 2105.53 1876.85 2103.22 1879.16 2100.37 1879.16L2079.75 1879.16C2076.9 1879.16 2074.59 1876.85 2074.59 1874 2074.59 1871.15 2076.9 1868.84 2079.75 1868.84ZM2121 1868.84 2141.62 1868.84C2144.47 1868.84 2146.78 1871.15 2146.78 1874 2146.78 1876.85 2144.47 1879.16 2141.62 1879.16L2121 1879.16C2118.15 1879.16 2115.84 1876.85 2115.84 1874 2115.84 1871.15 2118.15 1868.84 2121 1868.84ZM2162.25 1868.84 2182.87 1868.84C2185.72 1868.84 2188.03 1871.15 2188.03 1874 2188.03 1876.85 2185.72 1879.16 2182.87 1879.16L2162.25 1879.16C2159.4 1879.16 2157.09 1876.85 2157.09 1874 2157.09 1871.15 2159.4 1868.84 2162.25 1868.84ZM2203.5 1868.84 2224.12 1868.84C2226.97 1868.84 2229.28 1871.15 2229.28 1874 2229.28 1876.85 2226.97 1879.16 2224.12 1879.16L2203.5 1879.16C2200.65 1879.16 2198.34 1876.85 2198.34 1874 2198.34 1871.15 2200.65 1868.84 2203.5 1868.84ZM2244.75 1868.84 2265.37 1868.84C2268.22 1868.84 2270.53 1871.15 2270.53 1874 2270.53 1876.85 2268.22 1879.16 2265.37 1879.16L2244.75 1879.16C2241.9 1879.16 2239.59 1876.85 2239.59 1874 2239.59 1871.15 2241.9 1868.84 2244.75 1868.84ZM2286 1868.84 2306.62 1868.84C2309.47 1868.84 2311.78 1871.15 2311.78 1874 2311.78 1876.85 2309.47 1879.16 2306.62 1879.16L2286 1879.16C2283.15 1879.16 2280.84 1876.85 2280.84 1874 2280.84 1871.15 2283.15 1868.84 2286 1868.84ZM2327.25 1868.84 2347.87 1868.84C2350.72 1868.84 2353.03 1871.15 2353.03 1874 2353.03 1876.85 2350.72 1879.16 2347.87 1879.16L2327.25 1879.16C2324.4 1879.16 2322.09 1876.85 2322.09 1874 2322.09 1871.15 2324.4 1868.84 2327.25 1868.84ZM2368.5 1868.84 2381.08 1868.84 2389.12 1868.84C2391.97 1868.84 2394.28 1871.15 2394.28 1874 2394.28 1876.85 2391.97 1879.16 2389.12 1879.16L2381.08 1879.16 2368.5 1879.16C2365.65 1879.16 2363.34 1876.85 2363.34 1874 2363.34 1871.15 2365.65 1868.84 2368.5 1868.84ZM2409.75 1868.84 2430.37 1868.84C2433.22 1868.84 2435.53 1871.15 2435.53 1874 2435.53 1876.85 2433.22 1879.16 2430.37 1879.16L2409.75 1879.16C2406.9 1879.16 2404.59 1876.85 2404.59 1874 2404.59 1871.15 2406.9 1868.84 2409.75 1868.84ZM2451 1868.84 2471.62 1868.84C2474.47 1868.84 2476.78 1871.15 2476.78 1874 2476.78 1876.85 2474.47 1879.16 2471.62 1879.16L2451 1879.16C2448.15 1879.16 2445.84 1876.85 2445.84 1874 2445.84 1871.15 2448.15 1868.84 2451 1868.84ZM2492.25 1868.84 2512.87 1868.84C2515.72 1868.84 2518.03 1871.15 2518.03 1874 2518.03 1876.85 2515.72 1879.16 2512.87 1879.16L2492.25 1879.16C2489.4 1879.16 2487.09 1876.85 2487.09 1874 2487.09 1871.15 2489.4 1868.84 2492.25 1868.84ZM2533.5 1868.84 2554.12 1868.84C2556.97 1868.84 2559.28 1871.15 2559.28 1874 2559.28 1876.85 2556.97 1879.16 2554.12 1879.16L2533.5 1879.16C2530.65 1879.16 2528.34 1876.85 2528.34 1874 2528.34 1871.15 2530.65 1868.84 2533.5 1868.84ZM2574.75 1868.84 2595.37 1868.84C2598.22 1868.84 2600.53 1871.15 2600.53 1874 2600.53 1876.85 2598.22 1879.16 2595.37 1879.16L2574.75 1879.16C2571.9 1879.16 2569.59 1876.85 2569.59 1874 2569.59 1871.15 2571.9 1868.84 2574.75 1868.84ZM2616 1868.84 2636.62 1868.84C2639.47 1868.84 2641.78 1871.15 2641.78 1874 2641.78 1876.85 2639.47 1879.16 2636.62 1879.16L2616 1879.16C2613.15 1879.16 2610.84 1876.85 2610.84 1874 2610.84 1871.15 2613.15 1868.84 2616 1868.84ZM2657.25 1868.84 2677.87 1868.84C2680.72 1868.84 2683.03 1871.15 2683.03 1874 2683.03 1876.85 2680.72 1879.16 2677.87 1879.16L2657.25 1879.16C2654.4 1879.16 2652.09 1876.85 2652.09 1874 2652.09 1871.15 2654.4 1868.84 2657.25 1868.84ZM2698.5 1868.84 2719.12 1868.84C2721.97 1868.84 2724.28 1871.15 2724.28 1874 2724.28 1876.85 2721.97 1879.16 2719.12 1879.16L2698.5 1879.16C2695.65 1879.16 2693.34 1876.85 2693.34 1874 2693.34 1871.15 2695.65 1868.84 2698.5 1868.84ZM2739.75 1868.84 2760.37 1868.84C2763.22 1868.84 2765.53 1871.15 2765.53 1874 2765.53 1876.85 2763.22 1879.16 2760.37 1879.16L2739.75 1879.16C2736.9 1879.16 2734.59 1876.85 2734.59 1874 2734.59 1871.15 2736.9 1868.84 2739.75 1868.84ZM2781 1868.84 2801.62 1868.84C2804.47 1868.84 2806.78 1871.15 2806.78 1874 2806.78 1876.85 2804.47 1879.16 2801.62 1879.16L2781 1879.16C2778.15 1879.16 2775.84 1876.85 2775.84 1874 2775.84 1871.15 2778.15 1868.84 2781 1868.84ZM2822.25 1868.84 2842.87 1868.84C2845.72 1868.84 2848.03 1871.15 2848.03 1874 2848.03 1876.85 2845.72 1879.16 2842.87 1879.16L2822.25 1879.16C2819.4 1879.16 2817.09 1876.85 2817.09 1874 2817.09 1871.15 2819.4 1868.84 2822.25 1868.84ZM2863.5 1868.84 2884.12 1868.84C2886.97 1868.84 2889.28 1871.15 2889.28 1874 2889.28 1876.85 2886.97 1879.16 2884.12 1879.16L2863.5 1879.16C2860.65 1879.16 2858.34 1876.85 2858.34 1874 2858.34 1871.15 2860.65 1868.84 2863.5 1868.84ZM2904.75 1868.84 2925.37 1868.84C2928.22 1868.84 2930.53 1871.15 2930.53 1874 2930.53 1876.85 2928.22 1879.16 2925.37 1879.16L2904.75 1879.16C2901.9 1879.16 2899.59 1876.85 2899.59 1874 2899.59 1871.15 2901.9 1868.84 2904.75 1868.84ZM2946 1868.84 2966.62 1868.84C2969.47 1868.84 2971.78 1871.15 2971.78 1874 2971.78 1876.85 2969.47 1879.16 2966.62 1879.16L2946 1879.16C2943.15 1879.16 2940.84 1876.85 2940.84 1874 2940.84 1871.15 2943.15 1868.84 2946 1868.84ZM2987.25 1868.84 2995.1 1868.84 3007.87 1868.84C3010.72 1868.84 3013.03 1871.15 3013.03 1874 3013.03 1876.85 3010.72 1879.16 3007.87 1879.16L2995.1 1879.16 2987.25 1879.16C2984.4 1879.16 2982.09 1876.85 2982.09 1874 2982.09 1871.15 2984.4 1868.84 2987.25 1868.84ZM3028.5 1868.84 3049.12 1868.84C3051.97 1868.84 3054.28 1871.15 3054.28 1874 3054.28 1876.85 3051.97 1879.16 3049.12 1879.16L3028.5 1879.16C3025.65 1879.16 3023.34 1876.85 3023.34 1874 3023.34 1871.15 3025.65 1868.84 3028.5 1868.84ZM3069.75 1868.84 3090.37 1868.84C3093.22 1868.84 3095.53 1871.15 3095.53 1874 3095.53 1876.85 3093.22 1879.16 3090.37 1879.16L3069.75 1879.16C3066.9 1879.16 3064.59 1876.85 3064.59 1874 3064.59 1871.15 3066.9 1868.84 3069.75 1868.84ZM3111 1868.84 3131.62 1868.84C3134.47 1868.84 3136.78 1871.15 3136.78 1874 3136.78 1876.85 3134.47 1879.16 3131.62 1879.16L3111 1879.16C3108.15 1879.16 3105.84 1876.85 3105.84 1874 3105.84 1871.15 3108.15 1868.84 3111 1868.84ZM3152.25 1868.84 3172.87 1868.84C3175.72 1868.84 3178.03 1871.15 3178.03 1874 3178.03 1876.85 3175.72 1879.16 3172.87 1879.16L3152.25 1879.16C3149.4 1879.16 3147.09 1876.85 3147.09 1874 3147.09 1871.15 3149.4 1868.84 3152.25 1868.84ZM3193.5 1868.84 3214.12 1868.84C3216.97 1868.84 3219.28 1871.15 3219.28 1874 3219.28 1876.85 3216.97 1879.16 3214.12 1879.16L3193.5 1879.16C3190.65 1879.16 3188.34 1876.85 3188.34 1874 3188.34 1871.15 3190.65 1868.84 3193.5 1868.84ZM3234.75 1868.84 3255.37 1868.84C3258.22 1868.84 3260.53 1871.15 3260.53 1874 3260.53 1876.85 3258.22 1879.16 3255.37 1879.16L3234.75 1879.16C3231.9 1879.16 3229.59 1876.85 3229.59 1874 3229.59 1871.15 3231.9 1868.84 3234.75 1868.84ZM3276 1868.84 3296.62 1868.84C3299.47 1868.84 3301.78 1871.15 3301.78 1874 3301.78 1876.85 3299.47 1879.16 3296.62 1879.16L3276 1879.16C3273.15 1879.16 3270.84 1876.85 3270.84 1874 3270.84 1871.15 3273.15 1868.84 3276 1868.84ZM3317.25 1868.84 3337.87 1868.84C3340.72 1868.84 3343.03 1871.15 3343.03 1874 3343.03 1876.85 3340.72 1879.16 3337.87 1879.16L3317.25 1879.16C3314.4 1879.16 3312.09 1876.85 3312.09 1874 3312.09 1871.15 3314.4 1868.84 3317.25 1868.84ZM3358.5 1868.84 3379.12 1868.84C3381.97 1868.84 3384.28 1871.15 3384.28 1874 3384.28 1876.85 3381.97 1879.16 3379.12 1879.16L3358.5 1879.16C3355.65 1879.16 3353.34 1876.85 3353.34 1874 3353.34 1871.15 3355.65 1868.84 3358.5 1868.84ZM3399.75 1868.84 3420.37 1868.84C3423.22 1868.84 3425.53 1871.15 3425.53 1874 3425.53 1876.85 3423.22 1879.16 3420.37 1879.16L3399.75 1879.16C3396.9 1879.16 3394.59 1876.85 3394.59 1874 3394.59 1871.15 3396.9 1868.84 3399.75 1868.84ZM3441 1868.84 3461.62 1868.84C3464.47 1868.84 3466.78 1871.15 3466.78 1874 3466.78 1876.85 3464.47 1879.16 3461.62 1879.16L3441 1879.16C3438.15 1879.16 3435.84 1876.85 3435.84 1874 3435.84 1871.15 3438.15 1868.84 3441 1868.84ZM3482.25 1868.84 3502.87 1868.84C3505.72 1868.84 3508.03 1871.15 3508.03 1874 3508.03 1876.85 3505.72 1879.16 3502.87 1879.16L3482.25 1879.16C3479.4 1879.16 3477.09 1876.85 3477.09 1874 3477.09 1871.15 3479.4 1868.84 3482.25 1868.84ZM3523.5 1868.84 3544.12 1868.84C3546.97 1868.84 3549.28 1871.15 3549.28 1874 3549.28 1876.85 3546.97 1879.16 3544.12 1879.16L3523.5 1879.16C3520.65 1879.16 3518.34 1876.85 3518.34 1874 3518.34 1871.15 3520.65 1868.84 3523.5 1868.84ZM3564.75 1868.84 3585.37 1868.84C3588.22 1868.84 3590.53 1871.15 3590.53 1874 3590.53 1876.85 3588.22 1879.16 3585.37 1879.16L3564.75 1879.16C3561.9 1879.16 3559.59 1876.85 3559.59 1874 3559.59 1871.15 3561.9 1868.84 3564.75 1868.84ZM3606 1868.84 3610 1868.84C3612.85 1868.84 3615.16 1871.15 3615.16 1874 3615.16 1876.85 3612.85 1879.16 3610 1879.16L3606 1879.16C3603.15 1879.16 3600.84 1876.85 3600.84 1874 3600.84 1871.15 3603.15 1868.84 3606 1868.84Z" fill="#00B050" fill-rule="nonzero" fill-opacity="1"/></g><g><text fill="#595959" fill-opacity="1" font-family="Calibri,Calibri_MSFontService,sans-serif" font-style="normal" font-variant="normal" font-weight="400" font-stretch="normal" font-size="41" text-anchor="start" direction="ltr" writing-mode="lr-tb" unicode-bidi="normal" text-decoration="none" transform="matrix(1 0 0 1 1247.88 2252)">0</text></g><g><text fill="#595959" fill-opacity="1" font-family="Calibri,Calibri_MSFontService,sans-serif" font-style="normal" font-variant="normal" font-weight="400" font-stretch="normal" font-size="41" text-anchor="start" direction="ltr" writing-mode="lr-tb" unicode-bidi="normal" text-decoration="none" transform="matrix(1 0 0 1 1247.88 2068)">5</text></g><g><text fill="#595959" fill-opacity="1" font-family="Calibri,Calibri_MSFontService,sans-serif" font-style="normal" font-variant="normal" font-weight="400" font-stretch="normal" font-size="41" text-anchor="start" direction="ltr" writing-mode="lr-tb" unicode-bidi="normal" text-decoration="none" transform="matrix(1 0 0 1 1226.98 1884)">10</text></g><g><text fill="#595959" fill-opacity="1" font-family="Calibri,Calibri_MSFontService,sans-serif" font-style="normal" font-variant="normal" font-weight="400" font-stretch="normal" font-size="41" text-anchor="start" direction="ltr" writing-mode="lr-tb" unicode-bidi="normal" text-decoration="none" transform="matrix(1 0 0 1 1226.98 1701)">15</text></g><g><text fill="#595959" fill-opacity="1" font-family="Calibri,Calibri_MSFontService,sans-serif" font-style="normal" font-variant="normal" font-weight="400" font-stretch="normal" font-size="41" text-anchor="start" direction="ltr" writing-mode="lr-tb" unicode-bidi="normal" text-decoration="none" transform="matrix(1 0 0 1 1226.98 1517)">20</text></g><g><text fill="#595959" fill-opacity="1" font-family="Calibri,Calibri_MSFontService,sans-serif" font-style="normal" font-variant="normal" font-weight="400" font-stretch="normal" font-size="41" text-anchor="start" direction="ltr" writing-mode="lr-tb" unicode-bidi="normal" text-decoration="none" transform="matrix(1 0 0 1 1226.98 1334)">25</text></g><g><text fill="#595959" fill-opacity="1" font-family="Calibri,Calibri_MSFontService,sans-serif" font-style="normal" font-variant="normal" font-weight="400" font-stretch="normal" font-size="41" text-anchor="start" direction="ltr" writing-mode="lr-tb" unicode-bidi="normal" text-decoration="none" transform="matrix(1 0 0 1 1226.98 1150)">30</text></g><g><text fill="#595959" fill-opacity="1" font-family="Calibri,Calibri_MSFontService,sans-serif" font-style="normal" font-variant="normal" font-weight="400" font-stretch="normal" font-size="41" text-anchor="start" direction="ltr" writing-mode="lr-tb" unicode-bidi="normal" text-decoration="none" transform="matrix(1 0 0 1 1226.98 967)">35</text></g><g><text fill="#595959" fill-opacity="1" font-family="Calibri,Calibri_MSFontService,sans-serif" font-style="normal" font-variant="normal" font-weight="400" font-stretch="normal" font-size="41" text-anchor="start" direction="ltr" writing-mode="lr-tb" unicode-bidi="normal" text-decoration="none" transform="matrix(1 0 0 1 1384.97 2306)">Sprint 10</text></g><g><text fill="#595959" fill-opacity="1" font-family="Calibri,Calibri_MSFontService,sans-serif" font-style="normal" font-variant="normal" font-weight="400" font-stretch="normal" font-size="41" text-anchor="start" direction="ltr" writing-mode="lr-tb" unicode-bidi="normal" text-decoration="none" transform="matrix(1 0 0 1 1691.97 2306)">Sprint 11</text></g><g><text fill="#595959" fill-opacity="1" font-family="Calibri,Calibri_MSFontService,sans-serif" font-style="normal" font-variant="normal" font-weight="400" font-stretch="normal" font-size="41" text-anchor="start" direction="ltr" writing-mode="lr-tb" unicode-bidi="normal" text-decoration="none" transform="matrix(1 0 0 1 1998.96 2306)">Sprint 12</text></g><g><text fill="#595959" fill-opacity="1" font-family="Calibri,Calibri_MSFontService,sans-serif" font-style="normal" font-variant="normal" font-weight="400" font-stretch="normal" font-size="41" text-anchor="start" direction="ltr" writing-mode="lr-tb" unicode-bidi="normal" text-decoration="none" transform="matrix(1 0 0 1 2305.96 2306)">Sprint 13</text></g><g><text fill="#595959" fill-opacity="1" font-family="Calibri,Calibri_MSFontService,sans-serif" font-style="normal" font-variant="normal" font-weight="400" font-stretch="normal" font-size="41" text-anchor="start" direction="ltr" writing-mode="lr-tb" unicode-bidi="normal" text-decoration="none" transform="matrix(1 0 0 1 2612.96 2306)">Sprint 14</text></g><g><text fill="#595959" fill-opacity="1" font-family="Calibri,Calibri_MSFontService,sans-serif" font-style="normal" font-variant="normal" font-weight="400" font-stretch="normal" font-size="41" text-anchor="start" direction="ltr" writing-mode="lr-tb" unicode-bidi="normal" text-decoration="none" transform="matrix(1 0 0 1 2919.95 2306)">Sprint 15</text></g><g><text fill="#595959" fill-opacity="1" font-family="Calibri,Calibri_MSFontService,sans-serif" font-style="normal" font-variant="normal" font-weight="400" font-stretch="normal" font-size="41" text-anchor="start" direction="ltr" writing-mode="lr-tb" unicode-bidi="normal" text-decoration="none" transform="matrix(1 0 0 1 3226.95 2306)">Sprint 16</text></g><g><text fill="#595959" fill-opacity="1" font-family="Calibri,Calibri_MSFontService,sans-serif" font-style="normal" font-variant="normal" font-weight="400" font-stretch="normal" font-size="41" text-anchor="start" direction="ltr" writing-mode="lr-tb" unicode-bidi="normal" text-decoration="none" transform="matrix(1 0 0 1 3533.95 2306)">Sprint 17</text></g><g><text fill="#595959" fill-opacity="1" font-family="Calibri,Calibri_MSFontService,sans-serif" font-style="normal" font-variant="normal" font-weight="400" font-stretch="normal" font-size="46" text-anchor="start" direction="ltr" writing-mode="lr-tb" unicode-bidi="normal" text-decoration="none" transform="matrix(6.12323e-17 -1 1 6.12323e-17 1201.29 1660)">Minuti</text></g><g><text fill="#595959" fill-opacity="1" font-family="Calibri,Calibri_MSFontService,sans-serif" font-style="normal" font-variant="normal" font-weight="400" font-stretch="normal" font-size="64" text-anchor="start" direction="ltr" writing-mode="lr-tb" unicode-bidi="normal" text-decoration="none" transform="matrix(1 0 0 1 2578.51 881)">TT</text></g><g><path d="M1939 2386 2054 2386" stroke="#4F81BD" stroke-width="10.3125" stroke-linecap="round" stroke-linejoin="round" stroke-miterlimit="10" stroke-opacity="1" fill="none" fill-rule="evenodd"/></g><g><text fill="#595959" fill-opacity="1" font-family="Calibri,Calibri_MSFontService,sans-serif" font-style="normal" font-variant="normal" font-weight="400" font-stretch="normal" font-size="41" text-anchor="start" direction="ltr" writing-mode="lr-tb" unicode-bidi="normal" text-decoration="none" transform="matrix(1 0 0 1 2067.12 2396)">TT (min)</text></g><g><path d="M2285 2380.84 2305.62 2380.84C2308.47 2380.84 2310.78 2383.15 2310.78 2386 2310.78 2388.85 2308.47 2391.16 2305.62 2391.16L2285 2391.16C2282.15 2391.16 2279.84 2388.85 2279.84 2386 2279.84 2383.15 2282.15 2380.84 2285 2380.84ZM2326.25 2380.84 2346.88 2380.84C2349.72 2380.84 2352.03 2383.15 2352.03 2386 2352.03 2388.85 2349.72 2391.16 2346.88 2391.16L2326.25 2391.16C2323.4 2391.16 2321.09 2388.85 2321.09 2386 2321.09 2383.15 2323.4 2380.84 2326.25 2380.84ZM2367.5 2380.84 2388.12 2380.84C2390.97 2380.84 2393.28 2383.15 2393.28 2386 2393.28 2388.85 2390.97 2391.16 2388.12 2391.16L2367.5 2391.16C2364.65 2391.16 2362.34 2388.85 2362.34 2386 2362.34 2383.15 2364.65 2380.84 2367.5 2380.84Z" fill="#FF0000" fill-rule="nonzero" fill-opacity="1"/></g><g><text fill="#595959" fill-opacity="1" font-family="Calibri,Calibri_MSFontService,sans-serif" font-style="normal" font-variant="normal" font-weight="400" font-stretch="normal" font-size="41" text-anchor="start" direction="ltr" writing-mode="lr-tb" unicode-bidi="normal" text-decoration="none" transform="matrix(1 0 0 1 2412.79 2396)">Soglia acc. (≤30 min)</text></g><g><path d="M2835 2380.84 2855.62 2380.84C2858.47 2380.84 2860.78 2383.15 2860.78 2386 2860.78 2388.85 2858.47 2391.16 2855.62 2391.16L2835 2391.16C2832.15 2391.16 2829.84 2388.85 2829.84 2386 2829.84 2383.15 2832.15 2380.84 2835 2380.84ZM2876.25 2380.84 2896.88 2380.84C2899.72 2380.84 2902.03 2383.15 2902.03 2386 2902.03 2388.85 2899.72 2391.16 2896.88 2391.16L2876.25 2391.16C2873.4 2391.16 2871.09 2388.85 2871.09 2386 2871.09 2383.15 2873.4 2380.84 2876.25 2380.84ZM2917.5 2380.84 2938.12 2380.84C2940.97 2380.84 2943.28 2383.15 2943.28 2386 2943.28 2388.85 2940.97 2391.16 2938.12 2391.16L2917.5 2391.16C2914.65 2391.16 2912.34 2388.85 2912.34 2386 2912.34 2383.15 2914.65 2380.84 2917.5 2380.84Z" fill="#00B050" fill-rule="nonzero" fill-opacity="1"/></g><g><text fill="#595959" fill-opacity="1" font-family="Calibri,Calibri_MSFontService,sans-serif" font-style="normal" font-variant="normal" font-weight="400" font-stretch="normal" font-size="41" text-anchor="start" direction="ltr" writing-mode="lr-tb" unicode-bidi="normal" text-decoration="none" transform="matrix(1 0 0 1 2963.09 2396)">Soglia ott. (≤10 min)</text></g><rect x="1100.5" y="786.5" width="3020" height="1666" stroke="#D9D9D9" stroke-width="3.4375" stroke-linecap="butt" stroke-linejoin="round" stroke-miterlimit="10" stroke-opacity="1" fill="none"/></g></g></svg>