<svg width="3159" height="1614" xmlns="http://www.w3.org/2000/svg" xmlns:xlink="http://www.w3.org/1999/xlink" xml:space="preserve" overflow="hidden"><defs><clipPath id="clip0"><rect x="733" y="611" width="3159" height="1614"/></clipPath></defs><g clip-path="url(#clip0)" transform="translate(-733 -611)"><rect x="734" y="612" width="3156" height="1611" fill="#FFFFFF"/><g><path d="M909.5 1840.56 3843.5 1840.56M909.5 1664.55 3843.5 1664.55M909.5 1489.55 3843.5 1489.55M909.5 1313.54 3843.5 1313.54M909.5 1137.54 3843.5 1137.54M909.5 962.532 3843.5 962.532M909.5 786.5 3843.5 786.5" stroke="#D9D9D9" stroke-width="3.4375" stroke-linejoin="round" stroke-miterlimit="10" fill="none"/></g><g><path d="M909.5 2016.5 3843.5 2016.5" stroke="#D9D9D9" stroke-width="3.4375" stroke-linejoin="round" stroke-miterlimit="10" fill="none" fill-rule="evenodd"/></g><g><path d="M996 1463 1169.04 1463 1341.04 1463 1514.05 1463 1686.06 1463 1859.06 1463 2032.07 1463 2204.07 1463 2377.08 1463 2549.08 1463 2722.09 1463 2894.09 1463 3067.1 1463 3239.11 1463 3412.11 1463 3585.12 1463 3757 1463" stroke="#00B050" stroke-width="10.3125" stroke-linecap="round" stroke-linejoin="round" stroke-miterlimit="10" stroke-dasharray="20.625 20.625" fill="none"/></g><g><path d="M996 1138 1169.04 1138 1341.04 1138 1514.05 1138 1686.06 1138 1859.06 1138 2032.07 1138 2204.07 1138 2377.08 1138 2549.08 1138 2722.09 1138 2894.09 1138 3067.1 1138 3239.11 1138 3412.11 1138 3585.12 1138 3757 1138" stroke="#FF0000" stroke-width="10.3125" stroke-linecap="round" stroke-linejoin="round" stroke-miterlimit="10" stroke-dasharray="20.625 20.625" fill="none"/></g><g><path d="M996 1546.36C1040.98 1546.36 1123.58 1619.99 1168.56 1546.36 1226.08 1452.19 1283.6 1062.36 1341.12 981.382 1396.09 904 1458.72 1026.74 1513.69 1060.46 1571.21 1095.75 1628.73 1152.87 1686.25 1193.14 1743.77 1233.41 1801.29 1268.26 1858.81 1302.09 1916.33 1335.92 1973.85 1380.44 2031.38 1396.11 2088.9 1411.78 2146.42 1413.97 2203.94 1396.11 2261.46 1378.24 2318.98 1285.25 2376.5 1288.91 2434.02 1292.57 2491.54 1410.31 2549.06 1418.07 2606.58 1425.83 2664.1 1287.01 2721.62 1335.48 2779.15 1383.95 2836.67 1646.82 2894.19 1708.91 2951.71 1771 3009.23 1748.15 3066.75 1708.03 3124.27 1667.9 3181.79 1499.2 3239.31 1468.16 3296.83 1437.11 3354.35 1546.5 3411.87 1521.75 3469.4 1497.01 3526.92 1386.15 3584.44 1319.66 3641.96 1253.18 3699.48 1188.45 3757 1122.85" stroke="#1F497D" stroke-width="10.3125" stroke-linecap="round" stroke-linejoin="round" stroke-miterlimit="10" fill="none"/></g><g><text fill="#595959" font-family="Calibri,Calibri_MSFontService,sans-serif" font-weight="400" font-size="41" transform="matrix(1 0 0 1 769.192 2028)">0,00%</text></g><g><text fill="#595959" font-family="Calibri,Calibri_MSFontService,sans-serif" font-weight="400" font-size="41" transform="matrix(1 0 0 1 769.192 1852)">2,00%</text></g><g><text fill="#595959" font-family="Calibri,Calibri_MSFontService,sans-serif" font-weight="400" font-size="41" transform="matrix(1 0 0 1 769.192 1677)">4,00%</text></g><g><text fill="#595959" font-family="Calibri,Calibri_MSFontService,sans-serif" font-weight="400" font-size="41" transform="matrix(1 0 0 1 769.192 1501)">6,00%</text></g><g><text fill="#595959" font-family="Calibri,Calibri_MSFontService,sans-serif" font-weight="400" font-size="41" transform="matrix(1 0 0 1 769.192 1325)">8,00%</text></g><g><text fill="#595959" font-family="Calibri,Calibri_MSFontService,sans-serif" font-weight="400" font-size="41" transform="matrix(1 0 0 1 748.292 1149)">10,00%</text></g><g><text fill="#595959" font-family="Calibri,Calibri_MSFontService,sans-serif" font-weight="400" font-size="41" transform="matrix(1 0 0 1 748.292 974)">12,00%</text></g><g><text fill="#595959" font-family="Calibri,Calibri_MSFontService,sans-serif" font-weight="400" font-size="41" transform="matrix(1 0 0 1 748.292 798)">14,00%</text></g><g><text fill="#595959" font-family="Calibri,Calibri_MSFontService,sans-serif" font-weight="400" font-size="41" transform="matrix(1 0 0 1 985.773 2082)">1</text></g><g><text fill="#595959" font-family="Calibri,Calibri_MSFontService,sans-serif" font-weight="400" font-size="41" transform="matrix(1 0 0 1 1158.33 2082)">2</text></g><g><text fill="#595959" font-family="Calibri,Calibri_MSFontService,sans-serif" font-weight="400" font-size="41" transform="matrix(1 0 0 1 1330.9 2082)">3</text></g><g><text fill="#595959" font-family="Calibri,Calibri_MSFontService,sans-serif" font-weight="400" font-size="41" transform="matrix(1 0 0 1 1503.46 2082)">4</text></g><g><text fill="#595959" font-family="Calibri,Calibri_MSFontService,sans-serif" font-weight="400" font-size="41" transform="matrix(1 0 0 1 1676.02 2082)">5</text></g><g><text fill="#595959" font-family="Calibri,Calibri_MSFontService,sans-serif" font-weight="400" font-size="41" transform="matrix(1 0 0 1 1848.58 2082)">6</text></g><g><text fill="#595959" font-family="Calibri,Calibri_MSFontService,sans-serif" font-weight="400" font-size="41" transform="matrix(1 0 0 1 2021.14 2082)">7</text></g><g><text fill="#595959" font-family="Calibri,Calibri_MSFontService,sans-serif" font-weight="400" font-size="41" transform="matrix(1 0 0 1 2193.7 2082)">8</text></g><g><text fill="#595959" font-family="Calibri,Calibri_MSFontService,sans-serif" font-weight="400" font-size="41" transform="matrix(1 0 0 1 2366.26 2082)">9</text></g><g><text fill="#595959" font-family="Calibri,Calibri_MSFontService,sans-serif" font-weight="400" font-size="41" transform="matrix(1 0 0 1 2528.38 2082)">10</text></g><g><text fill="#595959" font-family="Calibri,Calibri_MSFontService,sans-serif" font-weight="400" font-size="41" transform="matrix(1 0 0 1 2700.94 2082)">11</text></g><g><text fill="#595959" font-family="Calibri,Calibri_MSFontService,sans-serif" font-weight="400" font-size="41" transform="matrix(1 0 0 1 2873.5 2082)">12</text></g><g><text fill="#595959" font-family="Calibri,Calibri_MSFontService,sans-serif" font-weight="400" font-size="41" transform="matrix(1 0 0 1 3046.06 2082)">13</text></g><g><text fill="#595959" font-family="Calibri,Calibri_MSFontService,sans-serif" font-weight="400" font-size="41" transform="matrix(1 0 0 1 3218.62 2082)">14</text></g><g><text fill="#595959" font-family="Calibri,Calibri_MSFontService,sans-serif" font-weight="400" font-size="41" transform="matrix(1 0 0 1 3391.18 2082)">15</text></g><g><text fill="#595959" font-family="Calibri,Calibri_MSFontService,sans-serif" font-weight="400" font-size="41" transform="matrix(1 0 0 1 3563.74 2082)">16</text></g><g><text fill="#595959" font-family="Calibri,Calibri_MSFontService,sans-serif" font-weight="400" font-size="41" transform="matrix(1 0 0 1 3736.3 2082)">17</text></g><g><text fill="#595959" font-family="Calibri,Calibri_MSFontService,sans-serif" font-weight="400" font-size="64" transform="matrix(1 0 0 1 2263.47 707)">WD</text></g><g><path d="M1681 2157 1796 2157" stroke="#00B050" stroke-width="10.3125" stroke-linecap="round" stroke-linejoin="round" stroke-miterlimit="10" stroke-dasharray="20.625 20.625" fill="none" fill-rule="evenodd"/></g><g><text fill="#595959" font-family="Calibri,Calibri_MSFontService,sans-serif" font-weight="400" font-size="41" transform="matrix(1 0 0 1 1809.06 2168)">Solgia ott. (≤6.3%)</text></g><g><path d="M2189 2157 2304 2157" stroke="#FF0000" stroke-width="10.3125" stroke-linecap="round" stroke-linejoin="round" stroke-miterlimit="10" stroke-dasharray="20.625 20.625" fill="none" fill-rule="evenodd"/></g><g><text fill="#595959" font-family="Calibri,Calibri_MSFontService,sans-serif" font-weight="400" font-size="41" transform="matrix(1 0 0 1 2316.91 2168)">Solgia acc. (≤10%)</text></g><g><path d="M2691 2157 2807 2157" stroke="#1F497D" stroke-width="10.3125" stroke-linecap="round" stroke-linejoin="round" stroke-miterlimit="10" fill="none" fill-rule="evenodd"/></g><g><text fill="#595959" font-family="Calibri,Calibri_MSFontService,sans-serif" font-weight="400" font-size="41" transform="matrix(1 0 0 1 2819.6 2168)">STD DEV</text></g><rect x="734.5" y="612.5" width="3156" height="1611" stroke="#D9D9D9" stroke-width="3.4375" stroke-linejoin="round" stroke-miterlimit="10" fill="none"/></g></svg>