<svg width="3438" height="1618" xmlns="http://www.w3.org/2000/svg" xmlns:xlink="http://www.w3.org/1999/xlink" xml:space="preserve" overflow="hidden"><defs><clipPath id="clip0"><rect x="815" y="609" width="3438" height="1618"/></clipPath><clipPath id="clip1"><rect x="815" y="609" width="3438" height="1618"/></clipPath></defs><g clip-path="url(#clip0)" transform="translate(-815 -609)"><g clip-path="url(#clip1)"><rect x="820" y="612" width="3429" height="1611" fill="#FFFFFF" fill-opacity="1"/><g><path d="M1011.5 1840.56 4198.5 1840.56M1011.5 1664.55 4198.5 1664.55M1011.5 1489.55 4198.5 1489.55M1011.5 1313.54 4198.5 1313.54M1011.5 1137.54 4198.5 1137.54M1011.5 962.532 4198.5 962.532M1011.5 786.5 4198.5 786.5" stroke="#D9D9D9" stroke-width="3.4375" stroke-linecap="butt" stroke-linejoin="round" stroke-miterlimit="10" stroke-opacity="1" fill="none" fill-rule="nonzero"/></g><g><path d="M1011.5 2016.5 4198.5 2016.5" stroke="#D9D9D9" stroke-width="3.4375" stroke-linecap="butt" stroke-linejoin="round" stroke-miterlimit="10" stroke-opacity="1" fill="none" fill-rule="evenodd"/></g><g><path d="M1106 1457.84 1126.62 1457.84C1129.47 1457.84 1131.78 1460.15 1131.78 1463 1131.78 1465.85 1129.47 1468.16 1126.62 1468.16L1106 1468.16C1103.15 1468.16 1100.84 1465.85 1100.84 1463 1100.84 1460.15 1103.15 1457.84 1106 1457.84ZM1147.25 1457.84 1167.87 1457.84C1170.72 1457.84 1173.03 1460.15 1173.03 1463 1173.03 1465.85 1170.72 1468.16 1167.87 1468.16L1147.25 1468.16C1144.4 1468.16 1142.09 1465.85 1142.09 1463 1142.09 1460.15 1144.4 1457.84 1147.25 1457.84ZM1188.5 1457.84 1209.12 1457.84C1211.97 1457.84 1214.28 1460.15 1214.28 1463 1214.28 1465.85 1211.97 1468.16 1209.12 1468.16L1188.5 1468.16C1185.65 1468.16 1183.34 1465.85 1183.34 1463 1183.34 1460.15 1185.65 1457.84 1188.5 1457.84ZM1229.75 1457.84 1250.37 1457.84C1253.22 1457.84 1255.53 1460.15 1255.53 1463 1255.53 1465.85 1253.22 1468.16 1250.37 1468.16L1229.75 1468.16C1226.9 1468.16 1224.59 1465.85 1224.59 1463 1224.59 1460.15 1226.9 1457.84 1229.75 1457.84ZM1271 1457.84 1291.62 1457.84C1294.47 1457.84 1296.78 1460.15 1296.78 1463 1296.78 1465.85 1294.47 1468.16 1291.62 1468.16L1271 1468.16C1268.15 1468.16 1265.84 1465.85 1265.84 1463 1265.84 1460.15 1268.15 1457.84 1271 1457.84ZM1312.25 1457.84 1332.87 1457.84C1335.72 1457.84 1338.03 1460.15 1338.03 1463 1338.03 1465.85 1335.72 1468.16 1332.87 1468.16L1312.25 1468.16C1309.4 1468.16 1307.09 1465.85 1307.09 1463 1307.09 1460.15 1309.4 1457.84 1312.25 1457.84ZM1353.5 1457.84 1374.12 1457.84C1376.97 1457.84 1379.28 1460.15 1379.28 1463 1379.28 1465.85 1376.97 1468.16 1374.12 1468.16L1353.5 1468.16C1350.65 1468.16 1348.34 1465.85 1348.34 1463 1348.34 1460.15 1350.65 1457.84 1353.5 1457.84ZM1394.75 1457.84 1415.37 1457.84C1418.22 1457.84 1420.53 1460.15 1420.53 1463 1420.53 1465.85 1418.22 1468.16 1415.37 1468.16L1394.75 1468.16C1391.9 1468.16 1389.59 1465.85 1389.59 1463 1389.59 1460.15 1391.9 1457.84 1394.75 1457.84ZM1436 1457.84 1456.62 1457.84C1459.47 1457.84 1461.78 1460.15 1461.78 1463 1461.78 1465.85 1459.47 1468.16 1456.62 1468.16L1436 1468.16C1433.15 1468.16 1430.84 1465.85 1430.84 1463 1430.84 1460.15 1433.15 1457.84 1436 1457.84ZM1477.25 1457.84 1480.05 1457.84 1497.87 1457.84C1500.72 1457.84 1503.03 1460.15 1503.03 1463 1503.03 1465.85 1500.72 1468.16 1497.87 1468.16L1480.05 1468.16 1477.25 1468.16C1474.4 1468.16 1472.09 1465.85 1472.09 1463 1472.09 1460.15 1474.4 1457.84 1477.25 1457.84ZM1518.5 1457.84 1539.12 1457.84C1541.97 1457.84 1544.28 1460.15 1544.28 1463 1544.28 1465.85 1541.97 1468.16 1539.12 1468.16L1518.5 1468.16C1515.65 1468.16 1513.34 1465.85 1513.34 1463 1513.34 1460.15 1515.65 1457.84 1518.5 1457.84ZM1559.75 1457.84 1580.37 1457.84C1583.22 1457.84 1585.53 1460.15 1585.53 1463 1585.53 1465.85 1583.22 1468.16 1580.37 1468.16L1559.75 1468.16C1556.9 1468.16 1554.59 1465.85 1554.59 1463 1554.59 1460.15 1556.9 1457.84 1559.75 1457.84ZM1601 1457.84 1621.62 1457.84C1624.47 1457.84 1626.78 1460.15 1626.78 1463 1626.78 1465.85 1624.47 1468.16 1621.62 1468.16L1601 1468.16C1598.15 1468.16 1595.84 1465.85 1595.84 1463 1595.84 1460.15 1598.15 1457.84 1601 1457.84ZM1642.25 1457.84 1662.87 1457.84C1665.72 1457.84 1668.03 1460.15 1668.03 1463 1668.03 1465.85 1665.72 1468.16 1662.87 1468.16L1642.25 1468.16C1639.4 1468.16 1637.09 1465.85 1637.09 1463 1637.09 1460.15 1639.4 1457.84 1642.25 1457.84ZM1683.5 1457.84 1704.12 1457.84C1706.97 1457.84 1709.28 1460.15 1709.28 1463 1709.28 1465.85 1706.97 1468.16 1704.12 1468.16L1683.5 1468.16C1680.65 1468.16 1678.34 1465.85 1678.34 1463 1678.34 1460.15 1680.65 1457.84 1683.5 1457.84ZM1724.75 1457.84 1745.37 1457.84C1748.22 1457.84 1750.53 1460.15 1750.53 1463 1750.53 1465.85 1748.22 1468.16 1745.37 1468.16L1724.75 1468.16C1721.9 1468.16 1719.59 1465.85 1719.59 1463 1719.59 1460.15 1721.9 1457.84 1724.75 1457.84ZM1766 1457.84 1786.62 1457.84C1789.47 1457.84 1791.78 1460.15 1791.78 1463 1791.78 1465.85 1789.47 1468.16 1786.62 1468.16L1766 1468.16C1763.15 1468.16 1760.84 1465.85 1760.84 1463 1760.84 1460.15 1763.15 1457.84 1766 1457.84ZM1807.25 1457.84 1827.87 1457.84C1830.72 1457.84 1833.03 1460.15 1833.03 1463 1833.03 1465.85 1830.72 1468.16 1827.87 1468.16L1807.25 1468.16C1804.4 1468.16 1802.09 1465.85 1802.09 1463 1802.09 1460.15 1804.4 1457.84 1807.25 1457.84ZM1848.5 1457.84 1855.06 1457.84 1869.12 1457.84C1871.97 1457.84 1874.28 1460.15 1874.28 1463 1874.28 1465.85 1871.97 1468.16 1869.12 1468.16L1855.06 1468.16 1848.5 1468.16C1845.65 1468.16 1843.34 1465.85 1843.34 1463 1843.34 1460.15 1845.65 1457.84 1848.5 1457.84ZM1889.75 1457.84 1910.37 1457.84C1913.22 1457.84 1915.53 1460.15 1915.53 1463 1915.53 1465.85 1913.22 1468.16 1910.37 1468.16L1889.75 1468.16C1886.9 1468.16 1884.59 1465.85 1884.59 1463 1884.59 1460.15 1886.9 1457.84 1889.75 1457.84ZM1931 1457.84 1951.62 1457.84C1954.47 1457.84 1956.78 1460.15 1956.78 1463 1956.78 1465.85 1954.47 1468.16 1951.62 1468.16L1931 1468.16C1928.15 1468.16 1925.84 1465.85 1925.84 1463 1925.84 1460.15 1928.15 1457.84 1931 1457.84ZM1972.25 1457.84 1992.87 1457.84C1995.72 1457.84 1998.03 1460.15 1998.03 1463 1998.03 1465.85 1995.72 1468.16 1992.87 1468.16L1972.25 1468.16C1969.4 1468.16 1967.09 1465.85 1967.09 1463 1967.09 1460.15 1969.4 1457.84 1972.25 1457.84ZM2013.5 1457.84 2034.12 1457.84C2036.97 1457.84 2039.28 1460.15 2039.28 1463 2039.28 1465.85 2036.97 1468.16 2034.12 1468.16L2013.5 1468.16C2010.65 1468.16 2008.34 1465.85 2008.34 1463 2008.34 1460.15 2010.65 1457.84 2013.5 1457.84ZM2054.75 1457.84 2075.37 1457.84C2078.22 1457.84 2080.53 1460.15 2080.53 1463 2080.53 1465.85 2078.22 1468.16 2075.37 1468.16L2054.75 1468.16C2051.9 1468.16 2049.59 1465.85 2049.59 1463 2049.59 1460.15 2051.9 1457.84 2054.75 1457.84ZM2096 1457.84 2116.62 1457.84C2119.47 1457.84 2121.78 1460.15 2121.78 1463 2121.78 1465.85 2119.47 1468.16 2116.62 1468.16L2096 1468.16C2093.15 1468.16 2090.84 1465.85 2090.84 1463 2090.84 1460.15 2093.15 1457.84 2096 1457.84ZM2137.25 1457.84 2157.87 1457.84C2160.72 1457.84 2163.03 1460.15 2163.03 1463 2163.03 1465.85 2160.72 1468.16 2157.87 1468.16L2137.25 1468.16C2134.4 1468.16 2132.09 1465.85 2132.09 1463 2132.09 1460.15 2134.4 1457.84 2137.25 1457.84ZM2178.5 1457.84 2199.12 1457.84C2201.97 1457.84 2204.28 1460.15 2204.28 1463 2204.28 1465.85 2201.97 1468.16 2199.12 1468.16L2178.5 1468.16C2175.65 1468.16 2173.34 1465.85 2173.34 1463 2173.34 1460.15 2175.65 1457.84 2178.5 1457.84ZM2219.75 1457.84 2230.07 1457.84 2240.37 1457.84C2243.22 1457.84 2245.53 1460.15 2245.53 1463 2245.53 1465.85 2243.22 1468.16 2240.37 1468.16L2230.07 1468.16 2219.75 1468.16C2216.9 1468.16 2214.59 1465.85 2214.59 1463 2214.59 1460.15 2216.9 1457.84 2219.75 1457.84ZM2261 1457.84 2281.62 1457.84C2284.47 1457.84 2286.78 1460.15 2286.78 1463 2286.78 1465.85 2284.47 1468.16 2281.62 1468.16L2261 1468.16C2258.15 1468.16 2255.84 1465.85 2255.84 1463 2255.84 1460.15 2258.15 1457.84 2261 1457.84ZM2302.25 1457.84 2322.87 1457.84C2325.72 1457.84 2328.03 1460.15 2328.03 1463 2328.03 1465.85 2325.72 1468.16 2322.87 1468.16L2302.25 1468.16C2299.4 1468.16 2297.09 1465.85 2297.09 1463 2297.09 1460.15 2299.4 1457.84 2302.25 1457.84ZM2343.5 1457.84 2364.12 1457.84C2366.97 1457.84 2369.28 1460.15 2369.28 1463 2369.28 1465.85 2366.97 1468.16 2364.12 1468.16L2343.5 1468.16C2340.65 1468.16 2338.34 1465.85 2338.34 1463 2338.34 1460.15 2340.65 1457.84 2343.5 1457.84ZM2384.75 1457.84 2405.37 1457.84C2408.22 1457.84 2410.53 1460.15 2410.53 1463 2410.53 1465.85 2408.22 1468.16 2405.37 1468.16L2384.75 1468.16C2381.9 1468.16 2379.59 1465.85 2379.59 1463 2379.59 1460.15 2381.9 1457.84 2384.75 1457.84ZM2426 1457.84 2446.62 1457.84C2449.47 1457.84 2451.78 1460.15 2451.78 1463 2451.78 1465.85 2449.47 1468.16 2446.62 1468.16L2426 1468.16C2423.15 1468.16 2420.84 1465.85 2420.84 1463 2420.84 1460.15 2423.15 1457.84 2426 1457.84ZM2467.25 1457.84 2487.87 1457.84C2490.72 1457.84 2493.03 1460.15 2493.03 1463 2493.03 1465.85 2490.72 1468.16 2487.87 1468.16L2467.25 1468.16C2464.4 1468.16 2462.09 1465.85 2462.09 1463 2462.09 1460.15 2464.4 1457.84 2467.25 1457.84ZM2508.5 1457.84 2529.12 1457.84C2531.97 1457.84 2534.28 1460.15 2534.28 1463 2534.28 1465.85 2531.97 1468.16 2529.12 1468.16L2508.5 1468.16C2505.65 1468.16 2503.34 1465.85 2503.34 1463 2503.34 1460.15 2505.65 1457.84 2508.5 1457.84ZM2549.75 1457.84 2570.37 1457.84C2573.22 1457.84 2575.53 1460.15 2575.53 1463 2575.53 1465.85 2573.22 1468.16 2570.37 1468.16L2549.75 1468.16C2546.9 1468.16 2544.59 1465.85 2544.59 1463 2544.59 1460.15 2546.9 1457.84 2549.75 1457.84ZM2591 1457.84 2605.09 1457.84 2611.62 1457.84C2614.47 1457.84 2616.78 1460.15 2616.78 1463 2616.78 1465.85 2614.47 1468.16 2611.62 1468.16L2605.09 1468.16 2591 1468.16C2588.15 1468.16 2585.84 1465.85 2585.84 1463 2585.84 1460.15 2588.15 1457.84 2591 1457.84ZM2632.25 1457.84 2652.87 1457.84C2655.72 1457.84 2658.03 1460.15 2658.03 1463 2658.03 1465.85 2655.72 1468.16 2652.87 1468.16L2632.25 1468.16C2629.4 1468.16 2627.09 1465.85 2627.09 1463 2627.09 1460.15 2629.4 1457.84 2632.25 1457.84ZM2673.5 1457.84 2694.12 1457.84C2696.97 1457.84 2699.28 1460.15 2699.28 1463 2699.28 1465.85 2696.97 1468.16 2694.12 1468.16L2673.5 1468.16C2670.65 1468.16 2668.34 1465.85 2668.34 1463 2668.34 1460.15 2670.65 1457.84 2673.5 1457.84ZM2714.75 1457.84 2735.37 1457.84C2738.22 1457.84 2740.53 1460.15 2740.53 1463 2740.53 1465.85 2738.22 1468.16 2735.37 1468.16L2714.75 1468.16C2711.9 1468.16 2709.59 1465.85 2709.59 1463 2709.59 1460.15 2711.9 1457.84 2714.75 1457.84ZM2756 1457.84 2776.62 1457.84C2779.47 1457.84 2781.78 1460.15 2781.78 1463 2781.78 1465.85 2779.47 1468.16 2776.62 1468.16L2756 1468.16C2753.15 1468.16 2750.84 1465.85 2750.84 1463 2750.84 1460.15 2753.15 1457.84 2756 1457.84ZM2797.25 1457.84 2817.87 1457.84C2820.72 1457.84 2823.03 1460.15 2823.03 1463 2823.03 1465.85 2820.72 1468.16 2817.87 1468.16L2797.25 1468.16C2794.4 1468.16 2792.09 1465.85 2792.09 1463 2792.09 1460.15 2794.4 1457.84 2797.25 1457.84ZM2838.5 1457.84 2859.12 1457.84C2861.97 1457.84 2864.28 1460.15 2864.28 1463 2864.28 1465.85 2861.97 1468.16 2859.12 1468.16L2838.5 1468.16C2835.65 1468.16 2833.34 1465.85 2833.34 1463 2833.34 1460.15 2835.65 1457.84 2838.5 1457.84ZM2879.75 1457.84 2900.37 1457.84C2903.22 1457.84 2905.53 1460.15 2905.53 1463 2905.53 1465.85 2903.22 1468.16 2900.37 1468.16L2879.75 1468.16C2876.9 1468.16 2874.59 1465.85 2874.59 1463 2874.59 1460.15 2876.9 1457.84 2879.75 1457.84ZM2921 1457.84 2941.62 1457.84C2944.47 1457.84 2946.78 1460.15 2946.78 1463 2946.78 1465.85 2944.47 1468.16 2941.62 1468.16L2921 1468.16C2918.15 1468.16 2915.84 1465.85 2915.84 1463 2915.84 1460.15 2918.15 1457.84 2921 1457.84ZM2962.25 1457.84 2980.1 1457.84 2982.87 1457.84C2985.72 1457.84 2988.03 1460.15 2988.03 1463 2988.03 1465.85 2985.72 1468.16 2982.87 1468.16L2980.1 1468.16 2962.25 1468.16C2959.4 1468.16 2957.09 1465.85 2957.09 1463 2957.09 1460.15 2959.4 1457.84 2962.25 1457.84ZM3003.5 1457.84 3024.12 1457.84C3026.97 1457.84 3029.28 1460.15 3029.28 1463 3029.28 1465.85 3026.97 1468.16 3024.12 1468.16L3003.5 1468.16C3000.65 1468.16 2998.34 1465.85 2998.34 1463 2998.34 1460.15 3000.65 1457.84 3003.5 1457.84ZM3044.75 1457.84 3065.37 1457.84C3068.22 1457.84 3070.53 1460.15 3070.53 1463 3070.53 1465.85 3068.22 1468.16 3065.37 1468.16L3044.75 1468.16C3041.9 1468.16 3039.59 1465.85 3039.59 1463 3039.59 1460.15 3041.9 1457.84 3044.75 1457.84ZM3086 1457.84 3106.62 1457.84C3109.47 1457.84 3111.78 1460.15 3111.78 1463 3111.78 1465.85 3109.47 1468.16 3106.62 1468.16L3086 1468.16C3083.15 1468.16 3080.84 1465.85 3080.84 1463 3080.84 1460.15 3083.15 1457.84 3086 1457.84ZM3127.25 1457.84 3147.87 1457.84C3150.72 1457.84 3153.03 1460.15 3153.03 1463 3153.03 1465.85 3150.72 1468.16 3147.87 1468.16L3127.25 1468.16C3124.4 1468.16 3122.09 1465.85 3122.09 1463 3122.09 1460.15 3124.4 1457.84 3127.25 1457.84ZM3168.5 1457.84 3189.12 1457.84C3191.97 1457.84 3194.28 1460.15 3194.28 1463 3194.28 1465.85 3191.97 1468.16 3189.12 1468.16L3168.5 1468.16C3165.65 1468.16 3163.34 1465.85 3163.34 1463 3163.34 1460.15 3165.65 1457.84 3168.5 1457.84ZM3209.75 1457.84 3230.37 1457.84C3233.22 1457.84 3235.53 1460.15 3235.53 1463 3235.53 1465.85 3233.22 1468.16 3230.37 1468.16L3209.75 1468.16C3206.9 1468.16 3204.59 1465.85 3204.59 1463 3204.59 1460.15 3206.9 1457.84 3209.75 1457.84ZM3251 1457.84 3271.62 1457.84C3274.47 1457.84 3276.78 1460.15 3276.78 1463 3276.78 1465.85 3274.47 1468.16 3271.62 1468.16L3251 1468.16C3248.15 1468.16 3245.84 1465.85 3245.84 1463 3245.84 1460.15 3248.15 1457.84 3251 1457.84ZM3292.25 1457.84 3312.87 1457.84C3315.72 1457.84 3318.03 1460.15 3318.03 1463 3318.03 1465.85 3315.72 1468.16 3312.87 1468.16L3292.25 1468.16C3289.4 1468.16 3287.09 1465.85 3287.09 1463 3287.09 1460.15 3289.4 1457.84 3292.25 1457.84ZM3333.5 1457.84 3354.12 1457.84C3356.97 1457.84 3359.28 1460.15 3359.28 1463 3359.28 1465.85 3356.97 1468.16 3354.12 1468.16L3333.5 1468.16C3330.65 1468.16 3328.34 1465.85 3328.34 1463 3328.34 1460.15 3330.65 1457.84 3333.5 1457.84ZM3374.75 1457.84 3395.37 1457.84C3398.22 1457.84 3400.53 1460.15 3400.53 1463 3400.53 1465.85 3398.22 1468.16 3395.37 1468.16L3374.75 1468.16C3371.9 1468.16 3369.59 1465.85 3369.59 1463 3369.59 1460.15 3371.9 1457.84 3374.75 1457.84ZM3416 1457.84 3436.62 1457.84C3439.47 1457.84 3441.78 1460.15 3441.78 1463 3441.78 1465.85 3439.47 1468.16 3436.62 1468.16L3416 1468.16C3413.15 1468.16 3410.84 1465.85 3410.84 1463 3410.84 1460.15 3413.15 1457.84 3416 1457.84ZM3457.25 1457.84 3477.87 1457.84C3480.72 1457.84 3483.03 1460.15 3483.03 1463 3483.03 1465.85 3480.72 1468.16 3477.87 1468.16L3457.25 1468.16C3454.4 1468.16 3452.09 1465.85 3452.09 1463 3452.09 1460.15 3454.4 1457.84 3457.25 1457.84ZM3498.5 1457.84 3519.12 1457.84C3521.97 1457.84 3524.28 1460.15 3524.28 1463 3524.28 1465.85 3521.97 1468.16 3519.12 1468.16L3498.5 1468.16C3495.65 1468.16 3493.34 1465.85 3493.34 1463 3493.34 1460.15 3495.65 1457.84 3498.5 1457.84ZM3539.75 1457.84 3542.12 1457.84 3560.37 1457.84C3563.22 1457.84 3565.53 1460.15 3565.53 1463 3565.53 1465.85 3563.22 1468.16 3560.37 1468.16L3542.12 1468.16 3539.75 1468.16C3536.9 1468.16 3534.59 1465.85 3534.59 1463 3534.59 1460.15 3536.9 1457.84 3539.75 1457.84ZM3581 1457.84 3601.62 1457.84C3604.47 1457.84 3606.78 1460.15 3606.78 1463 3606.78 1465.85 3604.47 1468.16 3601.62 1468.16L3581 1468.16C3578.15 1468.16 3575.84 1465.85 3575.84 1463 3575.84 1460.15 3578.15 1457.84 3581 1457.84ZM3622.25 1457.84 3642.87 1457.84C3645.72 1457.84 3648.03 1460.15 3648.03 1463 3648.03 1465.85 3645.72 1468.16 3642.87 1468.16L3622.25 1468.16C3619.4 1468.16 3617.09 1465.85 3617.09 1463 3617.09 1460.15 3619.4 1457.84 3622.25 1457.84ZM3663.5 1457.84 3684.12 1457.84C3686.97 1457.84 3689.28 1460.15 3689.28 1463 3689.28 1465.85 3686.97 1468.16 3684.12 1468.16L3663.5 1468.16C3660.65 1468.16 3658.34 1465.85 3658.34 1463 3658.34 1460.15 3660.65 1457.84 3663.5 1457.84ZM3704.75 1457.84 3725.37 1457.84C3728.22 1457.84 3730.53 1460.15 3730.53 1463 3730.53 1465.85 3728.22 1468.16 3725.37 1468.16L3704.75 1468.16C3701.9 1468.16 3699.59 1465.85 3699.59 1463 3699.59 1460.15 3701.9 1457.84 3704.75 1457.84ZM3746 1457.84 3766.62 1457.84C3769.47 1457.84 3771.78 1460.15 3771.78 1463 3771.78 1465.85 3769.47 1468.16 3766.62 1468.16L3746 1468.16C3743.15 1468.16 3740.84 1465.85 3740.84 1463 3740.84 1460.15 3743.15 1457.84 3746 1457.84ZM3787.25 1457.84 3807.87 1457.84C3810.72 1457.84 3813.03 1460.15 3813.03 1463 3813.03 1465.85 3810.72 1468.16 3807.87 1468.16L3787.25 1468.16C3784.4 1468.16 3782.09 1465.85 3782.09 1463 3782.09 1460.15 3784.4 1457.84 3787.25 1457.84ZM3828.5 1457.84 3849.12 1457.84C3851.97 1457.84 3854.28 1460.15 3854.28 1463 3854.28 1465.85 3851.97 1468.16 3849.12 1468.16L3828.5 1468.16C3825.65 1468.16 3823.34 1465.85 3823.34 1463 3823.34 1460.15 3825.65 1457.84 3828.5 1457.84ZM3869.75 1457.84 3890.37 1457.84C3893.22 1457.84 3895.53 1460.15 3895.53 1463 3895.53 1465.85 3893.22 1468.16 3890.37 1468.16L3869.75 1468.16C3866.9 1468.16 3864.59 1465.85 3864.59 1463 3864.59 1460.15 3866.9 1457.84 3869.75 1457.84ZM3911 1457.84 3917.13 1457.84 3931.62 1457.84C3934.47 1457.84 3936.78 1460.15 3936.78 1463 3936.78 1465.85 3934.47 1468.16 3931.62 1468.16L3917.13 1468.16 3911 1468.16C3908.15 1468.16 3905.84 1465.85 3905.84 1463 3905.84 1460.15 3908.15 1457.84 3911 1457.84ZM3952.25 1457.84 3972.87 1457.84C3975.72 1457.84 3978.03 1460.15 3978.03 1463 3978.03 1465.85 3975.72 1468.16 3972.87 1468.16L3952.25 1468.16C3949.4 1468.16 3947.09 1465.85 3947.09 1463 3947.09 1460.15 3949.4 1457.84 3952.25 1457.84ZM3993.5 1457.84 4014.12 1457.84C4016.97 1457.84 4019.28 1460.15 4019.28 1463 4019.28 1465.85 4016.97 1468.16 4014.12 1468.16L3993.5 1468.16C3990.65 1468.16 3988.34 1465.85 3988.34 1463 3988.34 1460.15 3990.65 1457.84 3993.5 1457.84ZM4034.75 1457.84 4055.37 1457.84C4058.22 1457.84 4060.53 1460.15 4060.53 1463 4060.53 1465.85 4058.22 1468.16 4055.37 1468.16L4034.75 1468.16C4031.9 1468.16 4029.59 1465.85 4029.59 1463 4029.59 1460.15 4031.9 1457.84 4034.75 1457.84ZM4076 1457.84 4096.62 1457.84C4099.47 1457.84 4101.78 1460.15 4101.78 1463 4101.78 1465.85 4099.47 1468.16 4096.62 1468.16L4076 1468.16C4073.15 1468.16 4070.84 1465.85 4070.84 1463 4070.84 1460.15 4073.15 1457.84 4076 1457.84Z" fill="#00B050" fill-rule="nonzero" fill-opacity="1"/></g><g><path d="M1106 1132.84 1126.62 1132.84C1129.47 1132.84 1131.78 1135.15 1131.78 1138 1131.78 1140.85 1129.47 1143.16 1126.62 1143.16L1106 1143.16C1103.15 1143.16 1100.84 1140.85 1100.84 1138 1100.84 1135.15 1103.15 1132.84 1106 1132.84ZM1147.25 1132.84 1167.87 1132.84C1170.72 1132.84 1173.03 1135.15 1173.03 1138 1173.03 1140.85 1170.72 1143.16 1167.87 1143.16L1147.25 1143.16C1144.4 1143.16 1142.09 1140.85 1142.09 1138 1142.09 1135.15 1144.4 1132.84 1147.25 1132.84ZM1188.5 1132.84 1209.12 1132.84C1211.97 1132.84 1214.28 1135.15 1214.28 1138 1214.28 1140.85 1211.97 1143.16 1209.12 1143.16L1188.5 1143.16C1185.65 1143.16 1183.34 1140.85 1183.34 1138 1183.34 1135.15 1185.65 1132.84 1188.5 1132.84ZM1229.75 1132.84 1250.37 1132.84C1253.22 1132.84 1255.53 1135.15 1255.53 1138 1255.53 1140.85 1253.22 1143.16 1250.37 1143.16L1229.75 1143.16C1226.9 1143.16 1224.59 1140.85 1224.59 1138 1224.59 1135.15 1226.9 1132.84 1229.75 1132.84ZM1271 1132.84 1291.62 1132.84C1294.47 1132.84 1296.78 1135.15 1296.78 1138 1296.78 1140.85 1294.47 1143.16 1291.62 1143.16L1271 1143.16C1268.15 1143.16 1265.84 1140.85 1265.84 1138 1265.84 1135.15 1268.15 1132.84 1271 1132.84ZM1312.25 1132.84 1332.87 1132.84C1335.72 1132.84 1338.03 1135.15 1338.03 1138 1338.03 1140.85 1335.72 1143.16 1332.87 1143.16L1312.25 1143.16C1309.4 1143.16 1307.09 1140.85 1307.09 1138 1307.09 1135.15 1309.4 1132.84 1312.25 1132.84ZM1353.5 1132.84 1374.12 1132.84C1376.97 1132.84 1379.28 1135.15 1379.28 1138 1379.28 1140.85 1376.97 1143.16 1374.12 1143.16L1353.5 1143.16C1350.65 1143.16 1348.34 1140.85 1348.34 1138 1348.34 1135.15 1350.65 1132.84 1353.5 1132.84ZM1394.75 1132.84 1415.37 1132.84C1418.22 1132.84 1420.53 1135.15 1420.53 1138 1420.53 1140.85 1418.22 1143.16 1415.37 1143.16L1394.75 1143.16C1391.9 1143.16 1389.59 1140.85 1389.59 1138 1389.59 1135.15 1391.9 1132.84 1394.75 1132.84ZM1436 1132.84 1456.62 1132.84C1459.47 1132.84 1461.78 1135.15 1461.78 1138 1461.78 1140.85 1459.47 1143.16 1456.62 1143.16L1436 1143.16C1433.15 1143.16 1430.84 1140.85 1430.84 1138 1430.84 1135.15 1433.15 1132.84 1436 1132.84ZM1477.25 1132.84 1480.05 1132.84 1497.87 1132.84C1500.72 1132.84 1503.03 1135.15 1503.03 1138 1503.03 1140.85 1500.72 1143.16 1497.87 1143.16L1480.05 1143.16 1477.25 1143.16C1474.4 1143.16 1472.09 1140.85 1472.09 1138 1472.09 1135.15 1474.4 1132.84 1477.25 1132.84ZM1518.5 1132.84 1539.12 1132.84C1541.97 1132.84 1544.28 1135.15 1544.28 1138 1544.28 1140.85 1541.97 1143.16 1539.12 1143.16L1518.5 1143.16C1515.65 1143.16 1513.34 1140.85 1513.34 1138 1513.34 1135.15 1515.65 1132.84 1518.5 1132.84ZM1559.75 1132.84 1580.37 1132.84C1583.22 1132.84 1585.53 1135.15 1585.53 1138 1585.53 1140.85 1583.22 1143.16 1580.37 1143.16L1559.75 1143.16C1556.9 1143.16 1554.59 1140.85 1554.59 1138 1554.59 1135.15 1556.9 1132.84 1559.75 1132.84ZM1601 1132.84 1621.62 1132.84C1624.47 1132.84 1626.78 1135.15 1626.78 1138 1626.78 1140.85 1624.47 1143.16 1621.62 1143.16L1601 1143.16C1598.15 1143.16 1595.84 1140.85 1595.84 1138 1595.84 1135.15 1598.15 1132.84 1601 1132.84ZM1642.25 1132.84 1662.87 1132.84C1665.72 1132.84 1668.03 1135.15 1668.03 1138 1668.03 1140.85 1665.72 1143.16 1662.87 1143.16L1642.25 1143.16C1639.4 1143.16 1637.09 1140.85 1637.09 1138 1637.09 1135.15 1639.4 1132.84 1642.25 1132.84ZM1683.5 1132.84 1704.12 1132.84C1706.97 1132.84 1709.28 1135.15 1709.28 1138 1709.28 1140.85 1706.97 1143.16 1704.12 1143.16L1683.5 1143.16C1680.65 1143.16 1678.34 1140.85 1678.34 1138 1678.34 1135.15 1680.65 1132.84 1683.5 1132.84ZM1724.75 1132.84 1745.37 1132.84C1748.22 1132.84 1750.53 1135.15 1750.53 1138 1750.53 1140.85 1748.22 1143.16 1745.37 1143.16L1724.75 1143.16C1721.9 1143.16 1719.59 1140.85 1719.59 1138 1719.59 1135.15 1721.9 1132.84 1724.75 1132.84ZM1766 1132.84 1786.62 1132.84C1789.47 1132.84 1791.78 1135.15 1791.78 1138 1791.78 1140.85 1789.47 1143.16 1786.62 1143.16L1766 1143.16C1763.15 1143.16 1760.84 1140.85 1760.84 1138 1760.84 1135.15 1763.15 1132.84 1766 1132.84ZM1807.25 1132.84 1827.87 1132.84C1830.72 1132.84 1833.03 1135.15 1833.03 1138 1833.03 1140.85 1830.72 1143.16 1827.87 1143.16L1807.25 1143.16C1804.4 1143.16 1802.09 1140.85 1802.09 1138 1802.09 1135.15 1804.4 1132.84 1807.25 1132.84ZM1848.5 1132.84 1855.06 1132.84 1869.12 1132.84C1871.97 1132.84 1874.28 1135.15 1874.28 1138 1874.28 1140.85 1871.97 1143.16 1869.12 1143.16L1855.06 1143.16 1848.5 1143.16C1845.65 1143.16 1843.34 1140.85 1843.34 1138 1843.34 1135.15 1845.65 1132.84 1848.5 1132.84ZM1889.75 1132.84 1910.37 1132.84C1913.22 1132.84 1915.53 1135.15 1915.53 1138 1915.53 1140.85 1913.22 1143.16 1910.37 1143.16L1889.75 1143.16C1886.9 1143.16 1884.59 1140.85 1884.59 1138 1884.59 1135.15 1886.9 1132.84 1889.75 1132.84ZM1931 1132.84 1951.62 1132.84C1954.47 1132.84 1956.78 1135.15 1956.78 1138 1956.78 1140.85 1954.47 1143.16 1951.62 1143.16L1931 1143.16C1928.15 1143.16 1925.84 1140.85 1925.84 1138 1925.84 1135.15 1928.15 1132.84 1931 1132.84ZM1972.25 1132.84 1992.87 1132.84C1995.72 1132.84 1998.03 1135.15 1998.03 1138 1998.03 1140.85 1995.72 1143.16 1992.87 1143.16L1972.25 1143.16C1969.4 1143.16 1967.09 1140.85 1967.09 1138 1967.09 1135.15 1969.4 1132.84 1972.25 1132.84ZM2013.5 1132.84 2034.12 1132.84C2036.97 1132.84 2039.28 1135.15 2039.28 1138 2039.28 1140.85 2036.97 1143.16 2034.12 1143.16L2013.5 1143.16C2010.65 1143.16 2008.34 1140.85 2008.34 1138 2008.34 1135.15 2010.65 1132.84 2013.5 1132.84ZM2054.75 1132.84 2075.37 1132.84C2078.22 1132.84 2080.53 1135.15 2080.53 1138 2080.53 1140.85 2078.22 1143.16 2075.37 1143.16L2054.75 1143.16C2051.9 1143.16 2049.59 1140.85 2049.59 1138 2049.59 1135.15 2051.9 1132.84 2054.75 1132.84ZM2096 1132.84 2116.62 1132.84C2119.47 1132.84 2121.78 1135.15 2121.78 1138 2121.78 1140.85 2119.47 1143.16 2116.62 1143.16L2096 1143.16C2093.15 1143.16 2090.84 1140.85 2090.84 1138 2090.84 1135.15 2093.15 1132.84 2096 1132.84ZM2137.25 1132.84 2157.87 1132.84C2160.72 1132.84 2163.03 1135.15 2163.03 1138 2163.03 1140.85 2160.72 1143.16 2157.87 1143.16L2137.25 1143.16C2134.4 1143.16 2132.09 1140.85 2132.09 1138 2132.09 1135.15 2134.4 1132.84 2137.25 1132.84ZM2178.5 1132.84 2199.12 1132.84C2201.97 1132.84 2204.28 1135.15 2204.28 1138 2204.28 1140.85 2201.97 1143.16 2199.12 1143.16L2178.5 1143.16C2175.65 1143.16 2173.34 1140.85 2173.34 1138 2173.34 1135.15 2175.65 1132.84 2178.5 1132.84ZM2219.75 1132.84 2230.07 1132.84 2240.37 1132.84C2243.22 1132.84 2245.53 1135.15 2245.53 1138 2245.53 1140.85 2243.22 1143.16 2240.37 1143.16L2230.07 1143.16 2219.75 1143.16C2216.9 1143.16 2214.59 1140.85 2214.59 1138 2214.59 1135.15 2216.9 1132.84 2219.75 1132.84ZM2261 1132.84 2281.62 1132.84C2284.47 1132.84 2286.78 1135.15 2286.78 1138 2286.78 1140.85 2284.47 1143.16 2281.62 1143.16L2261 1143.16C2258.15 1143.16 2255.84 1140.85 2255.84 1138 2255.84 1135.15 2258.15 1132.84 2261 1132.84ZM2302.25 1132.84 2322.87 1132.84C2325.72 1132.84 2328.03 1135.15 2328.03 1138 2328.03 1140.85 2325.72 1143.16 2322.87 1143.16L2302.25 1143.16C2299.4 1143.16 2297.09 1140.85 2297.09 1138 2297.09 1135.15 2299.4 1132.84 2302.25 1132.84ZM2343.5 1132.84 2364.12 1132.84C2366.97 1132.84 2369.28 1135.15 2369.28 1138 2369.28 1140.85 2366.97 1143.16 2364.12 1143.16L2343.5 1143.16C2340.65 1143.16 2338.34 1140.85 2338.34 1138 2338.34 1135.15 2340.65 1132.84 2343.5 1132.84ZM2384.75 1132.84 2405.37 1132.84C2408.22 1132.84 2410.53 1135.15 2410.53 1138 2410.53 1140.85 2408.22 1143.16 2405.37 1143.16L2384.75 1143.16C2381.9 1143.16 2379.59 1140.85 2379.59 1138 2379.59 1135.15 2381.9 1132.84 2384.75 1132.84ZM2426 1132.84 2446.62 1132.84C2449.47 1132.84 2451.78 1135.15 2451.78 1138 2451.78 1140.85 2449.47 1143.16 2446.62 1143.16L2426 1143.16C2423.15 1143.16 2420.84 1140.85 2420.84 1138 2420.84 1135.15 2423.15 1132.84 2426 1132.84ZM2467.25 1132.84 2487.87 1132.84C2490.72 1132.84 2493.03 1135.15 2493.03 1138 2493.03 1140.85 2490.72 1143.16 2487.87 1143.16L2467.25 1143.16C2464.4 1143.16 2462.09 1140.85 2462.09 1138 2462.09 1135.15 2464.4 1132.84 2467.25 1132.84ZM2508.5 1132.84 2529.12 1132.84C2531.97 1132.84 2534.28 1135.15 2534.28 1138 2534.28 1140.85 2531.97 1143.16 2529.12 1143.16L2508.5 1143.16C2505.65 1143.16 2503.34 1140.85 2503.34 1138 2503.34 1135.15 2505.65 1132.84 2508.5 1132.84ZM2549.75 1132.84 2570.37 1132.84C2573.22 1132.84 2575.53 1135.15 2575.53 1138 2575.53 1140.85 2573.22 1143.16 2570.37 1143.16L2549.75 1143.16C2546.9 1143.16 2544.59 1140.85 2544.59 1138 2544.59 1135.15 2546.9 1132.84 2549.75 1132.84ZM2591 1132.84 2605.09 1132.84 2611.62 1132.84C2614.47 1132.84 2616.78 1135.15 2616.78 1138 2616.78 1140.85 2614.47 1143.16 2611.62 1143.16L2605.09 1143.16 2591 1143.16C2588.15 1143.16 2585.84 1140.85 2585.84 1138 2585.84 1135.15 2588.15 1132.84 2591 1132.84ZM2632.25 1132.84 2652.87 1132.84C2655.72 1132.84 2658.03 1135.15 2658.03 1138 2658.03 1140.85 2655.72 1143.16 2652.87 1143.16L2632.25 1143.16C2629.4 1143.16 2627.09 1140.85 2627.09 1138 2627.09 1135.15 2629.4 1132.84 2632.25 1132.84ZM2673.5 1132.84 2694.12 1132.84C2696.97 1132.84 2699.28 1135.15 2699.28 1138 2699.28 1140.85 2696.97 1143.16 2694.12 1143.16L2673.5 1143.16C2670.65 1143.16 2668.34 1140.85 2668.34 1138 2668.34 1135.15 2670.65 1132.84 2673.5 1132.84ZM2714.75 1132.84 2735.37 1132.84C2738.22 1132.84 2740.53 1135.15 2740.53 1138 2740.53 1140.85 2738.22 1143.16 2735.37 1143.16L2714.75 1143.16C2711.9 1143.16 2709.59 1140.85 2709.59 1138 2709.59 1135.15 2711.9 1132.84 2714.75 1132.84ZM2756 1132.84 2776.62 1132.84C2779.47 1132.84 2781.78 1135.15 2781.78 1138 2781.78 1140.85 2779.47 1143.16 2776.62 1143.16L2756 1143.16C2753.15 1143.16 2750.84 1140.85 2750.84 1138 2750.84 1135.15 2753.15 1132.84 2756 1132.84ZM2797.25 1132.84 2817.87 1132.84C2820.72 1132.84 2823.03 1135.15 2823.03 1138 2823.03 1140.85 2820.72 1143.16 2817.87 1143.16L2797.25 1143.16C2794.4 1143.16 2792.09 1140.85 2792.09 1138 2792.09 1135.15 2794.4 1132.84 2797.25 1132.84ZM2838.5 1132.84 2859.12 1132.84C2861.97 1132.84 2864.28 1135.15 2864.28 1138 2864.28 1140.85 2861.97 1143.16 2859.12 1143.16L2838.5 1143.16C2835.65 1143.16 2833.34 1140.85 2833.34 1138 2833.34 1135.15 2835.65 1132.84 2838.5 1132.84ZM2879.75 1132.84 2900.37 1132.84C2903.22 1132.84 2905.53 1135.15 2905.53 1138 2905.53 1140.85 2903.22 1143.16 2900.37 1143.16L2879.75 1143.16C2876.9 1143.16 2874.59 1140.85 2874.59 1138 2874.59 1135.15 2876.9 1132.84 2879.75 1132.84ZM2921 1132.84 2941.62 1132.84C2944.47 1132.84 2946.78 1135.15 2946.78 1138 2946.78 1140.85 2944.47 1143.16 2941.62 1143.16L2921 1143.16C2918.15 1143.16 2915.84 1140.85 2915.84 1138 2915.84 1135.15 2918.15 1132.84 2921 1132.84ZM2962.25 1132.84 2980.1 1132.84 2982.87 1132.84C2985.72 1132.84 2988.03 1135.15 2988.03 1138 2988.03 1140.85 2985.72 1143.16 2982.87 1143.16L2980.1 1143.16 2962.25 1143.16C2959.4 1143.16 2957.09 1140.85 2957.09 1138 2957.09 1135.15 2959.4 1132.84 2962.25 1132.84ZM3003.5 1132.84 3024.12 1132.84C3026.97 1132.84 3029.28 1135.15 3029.28 1138 3029.28 1140.85 3026.97 1143.16 3024.12 1143.16L3003.5 1143.16C3000.65 1143.16 2998.34 1140.85 2998.34 1138 2998.34 1135.15 3000.65 1132.84 3003.5 1132.84ZM3044.75 1132.84 3065.37 1132.84C3068.22 1132.84 3070.53 1135.15 3070.53 1138 3070.53 1140.85 3068.22 1143.16 3065.37 1143.16L3044.75 1143.16C3041.9 1143.16 3039.59 1140.85 3039.59 1138 3039.59 1135.15 3041.9 1132.84 3044.75 1132.84ZM3086 1132.84 3106.62 1132.84C3109.47 1132.84 3111.78 1135.15 3111.78 1138 3111.78 1140.85 3109.47 1143.16 3106.62 1143.16L3086 1143.16C3083.15 1143.16 3080.84 1140.85 3080.84 1138 3080.84 1135.15 3083.15 1132.84 3086 1132.84ZM3127.25 1132.84 3147.87 1132.84C3150.72 1132.84 3153.03 1135.15 3153.03 1138 3153.03 1140.85 3150.72 1143.16 3147.87 1143.16L3127.25 1143.16C3124.4 1143.16 3122.09 1140.85 3122.09 1138 3122.09 1135.15 3124.4 1132.84 3127.25 1132.84ZM3168.5 1132.84 3189.12 1132.84C3191.97 1132.84 3194.28 1135.15 3194.28 1138 3194.28 1140.85 3191.97 1143.16 3189.12 1143.16L3168.5 1143.16C3165.65 1143.16 3163.34 1140.85 3163.34 1138 3163.34 1135.15 3165.65 1132.84 3168.5 1132.84ZM3209.75 1132.84 3230.37 1132.84C3233.22 1132.84 3235.53 1135.15 3235.53 1138 3235.53 1140.85 3233.22 1143.16 3230.37 1143.16L3209.75 1143.16C3206.9 1143.16 3204.59 1140.85 3204.59 1138 3204.59 1135.15 3206.9 1132.84 3209.75 1132.84ZM3251 1132.84 3271.62 1132.84C3274.47 1132.84 3276.78 1135.15 3276.78 1138 3276.78 1140.85 3274.47 1143.16 3271.62 1143.16L3251 1143.16C3248.15 1143.16 3245.84 1140.85 3245.84 1138 3245.84 1135.15 3248.15 1132.84 3251 1132.84ZM3292.25 1132.84 3312.87 1132.84C3315.72 1132.84 3318.03 1135.15 3318.03 1138 3318.03 1140.85 3315.72 1143.16 3312.87 1143.16L3292.25 1143.16C3289.4 1143.16 3287.09 1140.85 3287.09 1138 3287.09 1135.15 3289.4 1132.84 3292.25 1132.84ZM3333.5 1132.84 3354.12 1132.84C3356.97 1132.84 3359.28 1135.15 3359.28 1138 3359.28 1140.85 3356.97 1143.16 3354.12 1143.16L3333.5 1143.16C3330.65 1143.16 3328.34 1140.85 3328.34 1138 3328.34 1135.15 3330.65 1132.84 3333.5 1132.84ZM3374.75 1132.84 3395.37 1132.84C3398.22 1132.84 3400.53 1135.15 3400.53 1138 3400.53 1140.85 3398.22 1143.16 3395.37 1143.16L3374.75 1143.16C3371.9 1143.16 3369.59 1140.85 3369.59 1138 3369.59 1135.15 3371.9 1132.84 3374.75 1132.84ZM3416 1132.84 3436.62 1132.84C3439.47 1132.84 3441.78 1135.15 3441.78 1138 3441.78 1140.85 3439.47 1143.16 3436.62 1143.16L3416 1143.16C3413.15 1143.16 3410.84 1140.85 3410.84 1138 3410.84 1135.15 3413.15 1132.84 3416 1132.84ZM3457.25 1132.84 3477.87 1132.84C3480.72 1132.84 3483.03 1135.15 3483.03 1138 3483.03 1140.85 3480.72 1143.16 3477.87 1143.16L3457.25 1143.16C3454.4 1143.16 3452.09 1140.85 3452.09 1138 3452.09 1135.15 3454.4 1132.84 3457.25 1132.84ZM3498.5 1132.84 3519.12 1132.84C3521.97 1132.84 3524.28 1135.15 3524.28 1138 3524.28 1140.85 3521.97 1143.16 3519.12 1143.16L3498.5 1143.16C3495.65 1143.16 3493.34 1140.85 3493.34 1138 3493.34 1135.15 3495.65 1132.84 3498.5 1132.84ZM3539.75 1132.84 3542.12 1132.84 3560.37 1132.84C3563.22 1132.84 3565.53 1135.15 3565.53 1138 3565.53 1140.85 3563.22 1143.16 3560.37 1143.16L3542.12 1143.16 3539.75 1143.16C3536.9 1143.16 3534.59 1140.85 3534.59 1138 3534.59 1135.15 3536.9 1132.84 3539.75 1132.84ZM3581 1132.84 3601.62 1132.84C3604.47 1132.84 3606.78 1135.15 3606.78 1138 3606.78 1140.85 3604.47 1143.16 3601.62 1143.16L3581 1143.16C3578.15 1143.16 3575.84 1140.85 3575.84 1138 3575.84 1135.15 3578.15 1132.84 3581 1132.84ZM3622.25 1132.84 3642.87 1132.84C3645.72 1132.84 3648.03 1135.15 3648.03 1138 3648.03 1140.85 3645.72 1143.16 3642.87 1143.16L3622.25 1143.16C3619.4 1143.16 3617.09 1140.85 3617.09 1138 3617.09 1135.15 3619.4 1132.84 3622.25 1132.84ZM3663.5 1132.84 3684.12 1132.84C3686.97 1132.84 3689.28 1135.15 3689.28 1138 3689.28 1140.85 3686.97 1143.16 3684.12 1143.16L3663.5 1143.16C3660.65 1143.16 3658.34 1140.85 3658.34 1138 3658.34 1135.15 3660.65 1132.84 3663.5 1132.84ZM3704.75 1132.84 3725.37 1132.84C3728.22 1132.84 3730.53 1135.15 3730.53 1138 3730.53 1140.85 3728.22 1143.16 3725.37 1143.16L3704.75 1143.16C3701.9 1143.16 3699.59 1140.85 3699.59 1138 3699.59 1135.15 3701.9 1132.84 3704.75 1132.84ZM3746 1132.84 3766.62 1132.84C3769.47 1132.84 3771.78 1135.15 3771.78 1138 3771.78 1140.85 3769.47 1143.16 3766.62 1143.16L3746 1143.16C3743.15 1143.16 3740.84 1140.85 3740.84 1138 3740.84 1135.15 3743.15 1132.84 3746 1132.84ZM3787.25 1132.84 3807.87 1132.84C3810.72 1132.84 3813.03 1135.15 3813.03 1138 3813.03 1140.85 3810.72 1143.16 3807.87 1143.16L3787.25 1143.16C3784.4 1143.16 3782.09 1140.85 3782.09 1138 3782.09 1135.15 3784.4 1132.84 3787.25 1132.84ZM3828.5 1132.84 3849.12 1132.84C3851.97 1132.84 3854.28 1135.15 3854.28 1138 3854.28 1140.85 3851.97 1143.16 3849.12 1143.16L3828.5 1143.16C3825.65 1143.16 3823.34 1140.85 3823.34 1138 3823.34 1135.15 3825.65 1132.84 3828.5 1132.84ZM3869.75 1132.84 3890.37 1132.84C3893.22 1132.84 3895.53 1135.15 3895.53 1138 3895.53 1140.85 3893.22 1143.16 3890.37 1143.16L3869.75 1143.16C3866.9 1143.16 3864.59 1140.85 3864.59 1138 3864.59 1135.15 3866.9 1132.84 3869.75 1132.84ZM3911 1132.84 3917.13 1132.84 3931.62 1132.84C3934.47 1132.84 3936.78 1135.15 3936.78 1138 3936.78 1140.85 3934.47 1143.16 3931.62 1143.16L3917.13 1143.16 3911 1143.16C3908.15 1143.16 3905.84 1140.85 3905.84 1138 3905.84 1135.15 3908.15 1132.84 3911 1132.84ZM3952.25 1132.84 3972.87 1132.84C3975.72 1132.84 3978.03 1135.15 3978.03 1138 3978.03 1140.85 3975.72 1143.16 3972.87 1143.16L3952.25 1143.16C3949.4 1143.16 3947.09 1140.85 3947.09 1138 3947.09 1135.15 3949.4 1132.84 3952.25 1132.84ZM3993.5 1132.84 4014.12 1132.84C4016.97 1132.84 4019.28 1135.15 4019.28 1138 4019.28 1140.85 4016.97 1143.16 4014.12 1143.16L3993.5 1143.16C3990.65 1143.16 3988.34 1140.85 3988.34 1138 3988.34 1135.15 3990.65 1132.84 3993.5 1132.84ZM4034.75 1132.84 4055.37 1132.84C4058.22 1132.84 4060.53 1135.15 4060.53 1138 4060.53 1140.85 4058.22 1143.16 4055.37 1143.16L4034.75 1143.16C4031.9 1143.16 4029.59 1140.85 4029.59 1138 4029.59 1135.15 4031.9 1132.84 4034.75 1132.84ZM4076 1132.84 4096.62 1132.84C4099.47 1132.84 4101.78 1135.15 4101.78 1138 4101.78 1140.85 4099.47 1143.16 4096.62 1143.16L4076 1143.16C4073.15 1143.16 4070.84 1140.85 4070.84 1138 4070.84 1135.15 4073.15 1132.84 4076 1132.84Z" fill="#FF0000" fill-rule="nonzero" fill-opacity="1"/></g><g><path d="M1106 1546.4C1157.82 1546.4 1241.62 1624.48 1293.44 1546.4 1355.92 1452.25 1418.4 1062.49 1480.88 981.525 1543.01 901 1606.18 1025.5 1668.31 1060.59 1730.79 1095.88 1793.27 1152.98 1855.75 1193.24 1918.23 1233.51 1980.71 1268.35 2043.19 1302.18 2105.67 1336 2168.15 1380.51 2230.62 1396.18 2293.1 1411.84 2355.58 1414.04 2418.06 1396.18 2480.54 1378.31 2543.02 1285.34 2605.5 1289 2667.98 1292.66 2730.46 1410.38 2792.94 1418.14 2855.42 1425.9 2917.9 1287.09 2980.38 1335.56 3042.85 1384.02 3105.33 1646.84 3167.81 1708.92 3230.29 1771 3292.77 1748.16 3355.25 1708.04 3417.73 1667.92 3480.21 1499.25 3542.69 1468.21 3605.17 1437.17 3667.65 1546.54 3730.12 1521.8 3792.6 1497.06 3855.08 1386.22 3917.56 1319.75 3980.04 1253.27 4042.52 1188.56 4105 1122.96" stroke="#1F497D" stroke-width="10.3125" stroke-linecap="round" stroke-linejoin="round" stroke-miterlimit="10" stroke-opacity="1" fill="none" fill-rule="nonzero"/></g><g><text fill="#595959" fill-opacity="1" font-family="Calibri,Calibri_MSFontService,sans-serif" font-style="normal" font-variant="normal" font-weight="400" font-stretch="normal" font-size="41" text-anchor="start" direction="ltr" writing-mode="lr-tb" unicode-bidi="normal" text-decoration="none" transform="matrix(1 0 0 1 871.089 2026)">0.00%</text></g><g><text fill="#595959" fill-opacity="1" font-family="Calibri,Calibri_MSFontService,sans-serif" font-style="normal" font-variant="normal" font-weight="400" font-stretch="normal" font-size="41" text-anchor="start" direction="ltr" writing-mode="lr-tb" unicode-bidi="normal" text-decoration="none" transform="matrix(1 0 0 1 871.089 1851)">2.00%</text></g><g><text fill="#595959" fill-opacity="1" font-family="Calibri,Calibri_MSFontService,sans-serif" font-style="normal" font-variant="normal" font-weight="400" font-stretch="normal" font-size="41" text-anchor="start" direction="ltr" writing-mode="lr-tb" unicode-bidi="normal" text-decoration="none" transform="matrix(1 0 0 1 871.089 1675)">4.00%</text></g><g><text fill="#595959" fill-opacity="1" font-family="Calibri,Calibri_MSFontService,sans-serif" font-style="normal" font-variant="normal" font-weight="400" font-stretch="normal" font-size="41" text-anchor="start" direction="ltr" writing-mode="lr-tb" unicode-bidi="normal" text-decoration="none" transform="matrix(1 0 0 1 871.089 1499)">6.00%</text></g><g><text fill="#595959" fill-opacity="1" font-family="Calibri,Calibri_MSFontService,sans-serif" font-style="normal" font-variant="normal" font-weight="400" font-stretch="normal" font-size="41" text-anchor="start" direction="ltr" writing-mode="lr-tb" unicode-bidi="normal" text-decoration="none" transform="matrix(1 0 0 1 871.089 1324)">8.00%</text></g><g><text fill="#595959" fill-opacity="1" font-family="Calibri,Calibri_MSFontService,sans-serif" font-style="normal" font-variant="normal" font-weight="400" font-stretch="normal" font-size="41" text-anchor="start" direction="ltr" writing-mode="lr-tb" unicode-bidi="normal" text-decoration="none" transform="matrix(1 0 0 1 850.189 1148)">10.00%</text></g><g><text fill="#595959" fill-opacity="1" font-family="Calibri,Calibri_MSFontService,sans-serif" font-style="normal" font-variant="normal" font-weight="400" font-stretch="normal" font-size="41" text-anchor="start" direction="ltr" writing-mode="lr-tb" unicode-bidi="normal" text-decoration="none" transform="matrix(1 0 0 1 850.189 972)">12.00%</text></g><g><text fill="#595959" fill-opacity="1" font-family="Calibri,Calibri_MSFontService,sans-serif" font-style="normal" font-variant="normal" font-weight="400" font-stretch="normal" font-size="41" text-anchor="start" direction="ltr" writing-mode="lr-tb" unicode-bidi="normal" text-decoration="none" transform="matrix(1 0 0 1 850.189 796)">14.00%</text></g><g><text fill="#595959" fill-opacity="1" font-family="Calibri,Calibri_MSFontService,sans-serif" font-style="normal" font-variant="normal" font-weight="400" font-stretch="normal" font-size="41" text-anchor="start" direction="ltr" writing-mode="lr-tb" unicode-bidi="normal" text-decoration="none" transform="matrix(1 0 0 1 1095.22 2082)">1</text></g><g><text fill="#595959" fill-opacity="1" font-family="Calibri,Calibri_MSFontService,sans-serif" font-style="normal" font-variant="normal" font-weight="400" font-stretch="normal" font-size="41" text-anchor="start" direction="ltr" writing-mode="lr-tb" unicode-bidi="normal" text-decoration="none" transform="matrix(1 0 0 1 1282.66 2082)">2</text></g><g><text fill="#595959" fill-opacity="1" font-family="Calibri,Calibri_MSFontService,sans-serif" font-style="normal" font-variant="normal" font-weight="400" font-stretch="normal" font-size="41" text-anchor="start" direction="ltr" writing-mode="lr-tb" unicode-bidi="normal" text-decoration="none" transform="matrix(1 0 0 1 1470.09 2082)">3</text></g><g><text fill="#595959" fill-opacity="1" font-family="Calibri,Calibri_MSFontService,sans-serif" font-style="normal" font-variant="normal" font-weight="400" font-stretch="normal" font-size="41" text-anchor="start" direction="ltr" writing-mode="lr-tb" unicode-bidi="normal" text-decoration="none" transform="matrix(1 0 0 1 1657.52 2082)">4</text></g><g><text fill="#595959" fill-opacity="1" font-family="Calibri,Calibri_MSFontService,sans-serif" font-style="normal" font-variant="normal" font-weight="400" font-stretch="normal" font-size="41" text-anchor="start" direction="ltr" writing-mode="lr-tb" unicode-bidi="normal" text-decoration="none" transform="matrix(1 0 0 1 1844.96 2082)">5</text></g><g><text fill="#595959" fill-opacity="1" font-family="Calibri,Calibri_MSFontService,sans-serif" font-style="normal" font-variant="normal" font-weight="400" font-stretch="normal" font-size="41" text-anchor="start" direction="ltr" writing-mode="lr-tb" unicode-bidi="normal" text-decoration="none" transform="matrix(1 0 0 1 2032.39 2082)">6</text></g><g><text fill="#595959" fill-opacity="1" font-family="Calibri,Calibri_MSFontService,sans-serif" font-style="normal" font-variant="normal" font-weight="400" font-stretch="normal" font-size="41" text-anchor="start" direction="ltr" writing-mode="lr-tb" unicode-bidi="normal" text-decoration="none" transform="matrix(1 0 0 1 2219.83 2082)">7</text></g><g><text fill="#595959" fill-opacity="1" font-family="Calibri,Calibri_MSFontService,sans-serif" font-style="normal" font-variant="normal" font-weight="400" font-stretch="normal" font-size="41" text-anchor="start" direction="ltr" writing-mode="lr-tb" unicode-bidi="normal" text-decoration="none" transform="matrix(1 0 0 1 2407.26 2082)">8</text></g><g><text fill="#595959" fill-opacity="1" font-family="Calibri,Calibri_MSFontService,sans-serif" font-style="normal" font-variant="normal" font-weight="400" font-stretch="normal" font-size="41" text-anchor="start" direction="ltr" writing-mode="lr-tb" unicode-bidi="normal" text-decoration="none" transform="matrix(1 0 0 1 2594.69 2082)">9</text></g><g><text fill="#595959" fill-opacity="1" font-family="Calibri,Calibri_MSFontService,sans-serif" font-style="normal" font-variant="normal" font-weight="400" font-stretch="normal" font-size="41" text-anchor="start" direction="ltr" writing-mode="lr-tb" unicode-bidi="normal" text-decoration="none" transform="matrix(1 0 0 1 2771.68 2082)">10</text></g><g><text fill="#595959" fill-opacity="1" font-family="Calibri,Calibri_MSFontService,sans-serif" font-style="normal" font-variant="normal" font-weight="400" font-stretch="normal" font-size="41" text-anchor="start" direction="ltr" writing-mode="lr-tb" unicode-bidi="normal" text-decoration="none" transform="matrix(1 0 0 1 2959.11 2082)">11</text></g><g><text fill="#595959" fill-opacity="1" font-family="Calibri,Calibri_MSFontService,sans-serif" font-style="normal" font-variant="normal" font-weight="400" font-stretch="normal" font-size="41" text-anchor="start" direction="ltr" writing-mode="lr-tb" unicode-bidi="normal" text-decoration="none" transform="matrix(1 0 0 1 3146.55 2082)">12</text></g><g><text fill="#595959" fill-opacity="1" font-family="Calibri,Calibri_MSFontService,sans-serif" font-style="normal" font-variant="normal" font-weight="400" font-stretch="normal" font-size="41" text-anchor="start" direction="ltr" writing-mode="lr-tb" unicode-bidi="normal" text-decoration="none" transform="matrix(1 0 0 1 3333.98 2082)">13</text></g><g><text fill="#595959" fill-opacity="1" font-family="Calibri,Calibri_MSFontService,sans-serif" font-style="normal" font-variant="normal" font-weight="400" font-stretch="normal" font-size="41" text-anchor="start" direction="ltr" writing-mode="lr-tb" unicode-bidi="normal" text-decoration="none" transform="matrix(1 0 0 1 3521.41 2082)">14</text></g><g><text fill="#595959" fill-opacity="1" font-family="Calibri,Calibri_MSFontService,sans-serif" font-style="normal" font-variant="normal" font-weight="400" font-stretch="normal" font-size="41" text-anchor="start" direction="ltr" writing-mode="lr-tb" unicode-bidi="normal" text-decoration="none" transform="matrix(1 0 0 1 3708.85 2082)">15</text></g><g><text fill="#595959" fill-opacity="1" font-family="Calibri,Calibri_MSFontService,sans-serif" font-style="normal" font-variant="normal" font-weight="400" font-stretch="normal" font-size="41" text-anchor="start" direction="ltr" writing-mode="lr-tb" unicode-bidi="normal" text-decoration="none" transform="matrix(1 0 0 1 3896.28 2082)">16</text></g><g><text fill="#595959" fill-opacity="1" font-family="Calibri,Calibri_MSFontService,sans-serif" font-style="normal" font-variant="normal" font-weight="400" font-stretch="normal" font-size="41" text-anchor="start" direction="ltr" writing-mode="lr-tb" unicode-bidi="normal" text-decoration="none" transform="matrix(1 0 0 1 4083.72 2082)">17</text></g><g><text fill="#595959" fill-opacity="1" font-family="Calibri,Calibri_MSFontService,sans-serif" font-style="normal" font-variant="normal" font-weight="400" font-stretch="normal" font-size="64" text-anchor="start" direction="ltr" writing-mode="lr-tb" unicode-bidi="normal" text-decoration="none" transform="matrix(1 0 0 1 2471.71 707)">WSD</text></g><g><path d="M1904 2151.84 1924.62 2151.84C1927.47 2151.84 1929.78 2154.15 1929.78 2157 1929.78 2159.85 1927.47 2162.16 1924.62 2162.16L1904 2162.16C1901.15 2162.16 1898.84 2159.85 1898.84 2157 1898.84 2154.15 1901.15 2151.84 1904 2151.84ZM1945.25 2151.84 1965.88 2151.84C1968.72 2151.84 1971.03 2154.15 1971.03 2157 1971.03 2159.85 1968.72 2162.16 1965.88 2162.16L1945.25 2162.16C1942.4 2162.16 1940.09 2159.85 1940.09 2157 1940.09 2154.15 1942.4 2151.84 1945.25 2151.84ZM1986.5 2151.84 2007.12 2151.84C2009.97 2151.84 2012.28 2154.15 2012.28 2157 2012.28 2159.85 2009.97 2162.16 2007.12 2162.16L1986.5 2162.16C1983.65 2162.16 1981.34 2159.85 1981.34 2157 1981.34 2154.15 1983.65 2151.84 1986.5 2151.84Z" fill="#00B050" fill-rule="nonzero" fill-opacity="1"/></g><g><text fill="#595959" fill-opacity="1" font-family="Calibri,Calibri_MSFontService,sans-serif" font-style="normal" font-variant="normal" font-weight="400" font-stretch="normal" font-size="41" text-anchor="start" direction="ltr" writing-mode="lr-tb" unicode-bidi="normal" text-decoration="none" transform="matrix(1 0 0 1 2031.89 2167)">Solgia ott. (≤6.3%)</text></g><g><path d="M2412 2151.84 2432.62 2151.84C2435.47 2151.84 2437.78 2154.15 2437.78 2157 2437.78 2159.85 2435.47 2162.16 2432.62 2162.16L2412 2162.16C2409.15 2162.16 2406.84 2159.85 2406.84 2157 2406.84 2154.15 2409.15 2151.84 2412 2151.84ZM2453.25 2151.84 2473.88 2151.84C2476.72 2151.84 2479.03 2154.15 2479.03 2157 2479.03 2159.85 2476.72 2162.16 2473.88 2162.16L2453.25 2162.16C2450.4 2162.16 2448.09 2159.85 2448.09 2157 2448.09 2154.15 2450.4 2151.84 2453.25 2151.84ZM2494.5 2151.84 2515.12 2151.84C2517.97 2151.84 2520.28 2154.15 2520.28 2157 2520.28 2159.85 2517.97 2162.16 2515.12 2162.16L2494.5 2162.16C2491.65 2162.16 2489.34 2159.85 2489.34 2157 2489.34 2154.15 2491.65 2151.84 2494.5 2151.84Z" fill="#FF0000" fill-rule="nonzero" fill-opacity="1"/></g><g><text fill="#595959" fill-opacity="1" font-family="Calibri,Calibri_MSFontService,sans-serif" font-style="normal" font-variant="normal" font-weight="400" font-stretch="normal" font-size="41" text-anchor="start" direction="ltr" writing-mode="lr-tb" unicode-bidi="normal" text-decoration="none" transform="matrix(1 0 0 1 2539.74 2167)">Solgia acc. (≤10%)</text></g><g><path d="M2914 2157 3030 2157" stroke="#1F497D" stroke-width="10.3125" stroke-linecap="round" stroke-linejoin="round" stroke-miterlimit="10" stroke-opacity="1" fill="none" fill-rule="evenodd"/></g><g><text fill="#595959" fill-opacity="1" font-family="Calibri,Calibri_MSFontService,sans-serif" font-style="normal" font-variant="normal" font-weight="400" font-stretch="normal" font-size="41" text-anchor="start" direction="ltr" writing-mode="lr-tb" unicode-bidi="normal" text-decoration="none" transform="matrix(1 0 0 1 3042.43 2167)">STD DEV</text></g><rect x="820.5" y="612.5" width="3429" height="1611" stroke="#D9D9D9" stroke-width="3.4375" stroke-linecap="butt" stroke-linejoin="round" stroke-miterlimit="10" stroke-opacity="1" fill="none"/></g></g></svg>