<svg width="3643" height="2076" xmlns="http://www.w3.org/2000/svg" xmlns:xlink="http://www.w3.org/1999/xlink" xml:space="preserve" overflow="hidden"><defs><clipPath id="clip0"><rect x="2750" y="444" width="3643" height="2076"/></clipPath><clipPath id="clip1"><rect x="2750" y="444" width="3643" height="2076"/></clipPath></defs><g clip-path="url(#clip0)" transform="translate(-2750 -444)"><g clip-path="url(#clip1)"><rect x="2755" y="447" width="3634" height="2069" fill="#FFFFFF" fill-opacity="1"/><g><path d="M3109.5 2054.57 6338.5 2054.57M3109.5 1818.56 6338.5 1818.56M3109.5 1583.55 6338.5 1583.55M3109.5 1347.54 6338.5 1347.54M3109.5 1111.54 6338.5 1111.54M3109.5 875.529 6338.5 875.529M3109.5 639.5 6338.5 639.5" stroke="#878787" stroke-width="3.37795" stroke-linecap="butt" stroke-linejoin="round" stroke-miterlimit="10" stroke-opacity="1" fill="none" fill-rule="nonzero"/></g><g><path d="M0 0 0.000360892 1651" stroke="#878787" stroke-width="3.37795" stroke-linecap="butt" stroke-linejoin="round" stroke-miterlimit="10" stroke-opacity="1" fill="none" fill-rule="evenodd" transform="matrix(1 0 0 -1 3109.5 2290.5)"/></g><g><path d="M3109.5 2290.5 6338.5 2290.5" stroke="#878787" stroke-width="3.37795" stroke-linecap="butt" stroke-linejoin="round" stroke-miterlimit="10" stroke-opacity="1" fill="none" fill-rule="evenodd"/></g><g><path d="M3288.5 2262.5C3408.08 2253.07 3527.67 2241.88 3647.25 2234.22 3766.83 2226.56 3886.42 2225.18 4006 2216.54 4125.58 2207.9 4245.17 2192.57 4364.75 2182.36 4484.33 2172.15 4603.92 2166.94 4723.5 2155.26 4843.08 2143.57 4962.67 2124.52 5082.25 2112.24 5201.83 2099.96 5321.42 2096.92 5441 2081.6 5560.58 2066.28 5680.17 2046.83 5799.75 2020.32 5919.33 1993.8 6038.92 1955.11 6158.5 1922.5" stroke="#4472C4" stroke-width="8.96457" stroke-linecap="round" stroke-linejoin="round" stroke-miterlimit="10" stroke-opacity="1" fill="none" fill-rule="nonzero"/></g><g><path d="M3288.5 803.5C3408.08 810.519 3527.67 820.823 3647.25 824.557 3766.83 828.291 3886.42 819.503 4006 825.905 4125.58 832.307 4245.17 847.676 4364.75 862.97 4484.33 878.263 4603.92 901.968 4723.5 917.668 4843.08 933.367 4962.67 945.902 5082.25 957.166 5201.83 968.429 5321.42 971.008 5441 985.249 5560.58 999.49 5680.17 1016.24 5799.75 1042.61 5919.33 1068.99 6038.92 1109.87 6158.5 1143.5" stroke="#E74C3C" stroke-width="8.96457" stroke-linecap="round" stroke-linejoin="round" stroke-miterlimit="10" stroke-opacity="1" fill="none" fill-rule="nonzero"/></g><g><path d="M3288.44 771.236 3288.44 771.236C3290.45 771.201 3292.11 772.801 3292.14 774.81 3292.18 776.818 3290.58 778.475 3288.57 778.51L3288.56 778.51C3286.55 778.545 3284.9 776.945 3284.86 774.937 3284.83 772.928 3286.43 771.271 3288.44 771.236ZM3302.99 770.981 3303 770.981C3305.01 770.946 3306.67 772.546 3306.7 774.555 3306.74 776.563 3305.14 778.22 3303.13 778.255L3303.12 778.255C3301.11 778.291 3299.45 776.69 3299.42 774.682 3299.38 772.673 3300.98 771.016 3302.99 770.981ZM3317.55 770.726 3317.56 770.726C3319.57 770.691 3321.22 772.291 3321.26 774.3 3321.29 776.309 3319.69 777.965 3317.68 778L3317.68 778.001C3315.67 778.036 3314.01 776.435 3313.98 774.427 3313.94 772.418 3315.54 770.761 3317.55 770.726ZM3332.11 770.471 3332.11 770.471C3334.12 770.436 3335.78 772.036 3335.81 774.045 3335.85 776.054 3334.25 777.71 3332.24 777.745L3332.23 777.746C3330.22 777.781 3328.57 776.181 3328.53 774.172 3328.5 772.163 3330.1 770.506 3332.11 770.471ZM3346.66 770.216 3346.67 770.216C3348.68 770.181 3350.33 771.781 3350.37 773.79 3350.4 775.799 3348.8 777.455 3346.8 777.49L3346.79 777.491C3344.78 777.526 3343.12 775.926 3343.09 773.917 3343.05 771.908 3344.65 770.251 3346.66 770.216ZM3361.22 769.961 3361.23 769.961C3363.23 769.926 3364.89 771.526 3364.93 773.535 3364.96 775.544 3363.36 777.201 3361.35 777.236L3361.34 777.236C3359.34 777.271 3357.68 775.671 3357.64 773.662 3357.61 771.653 3359.21 769.996 3361.22 769.961ZM3375.77 769.706 3375.78 769.706C3377.79 769.671 3379.45 771.271 3379.48 773.28 3379.52 775.289 3377.92 776.945 3375.91 776.981L3375.9 776.981C3373.89 777.016 3372.24 775.416 3372.2 773.407 3372.17 771.398 3373.77 769.741 3375.77 769.706ZM3390.34 769.47 3390.34 769.47C3392.35 769.438 3394.01 771.041 3394.04 773.05 3394.07 775.058 3392.47 776.713 3390.46 776.745L3390.45 776.745C3388.44 776.777 3386.79 775.174 3386.76 773.165 3386.72 771.156 3388.33 769.502 3390.34 769.47ZM3404.89 769.238 3404.9 769.238C3406.91 769.206 3408.56 770.808 3408.6 772.817 3408.63 774.826 3407.02 776.48 3405.02 776.512L3405.01 776.512C3403 776.544 3401.35 774.942 3401.31 772.933 3401.28 770.924 3402.88 769.27 3404.89 769.238ZM3419.45 769.005 3419.46 769.005C3421.47 768.973 3423.12 770.576 3423.15 772.585 3423.18 774.594 3421.58 776.248 3419.57 776.28L3419.57 776.28C3417.56 776.312 3415.9 774.709 3415.87 772.701 3415.84 770.692 3417.44 769.037 3419.45 769.005ZM3434.01 768.773 3434.01 768.773C3436.02 768.741 3437.68 770.344 3437.71 772.353 3437.74 774.361 3436.14 776.016 3434.13 776.048L3434.12 776.048C3432.11 776.08 3430.46 774.477 3430.43 772.468 3430.39 770.459 3432 768.805 3434.01 768.773ZM3448.56 768.541 3448.57 768.541C3450.58 768.509 3452.23 770.111 3452.27 772.12 3452.3 774.129 3450.69 775.783 3448.69 775.815L3448.68 775.815C3446.67 775.847 3445.02 774.245 3444.98 772.236 3444.95 770.227 3446.55 768.573 3448.56 768.541ZM3463.12 768.308 3463.13 768.308C3465.14 768.276 3466.79 769.879 3466.82 771.888 3466.85 773.897 3465.25 775.551 3463.24 775.583L3463.23 775.583C3461.23 775.615 3459.57 774.012 3459.54 772.004 3459.51 769.995 3461.11 768.34 3463.12 768.308ZM3477.66 768.046 3477.67 768.046C3479.68 768.007 3481.34 769.605 3481.38 771.614 3481.42 773.622 3479.82 775.282 3477.81 775.32L3477.8 775.32C3475.79 775.358 3474.13 773.76 3474.1 771.752 3474.06 769.743 3475.66 768.084 3477.66 768.046ZM3492.22 767.768 3492.23 767.768C3494.24 767.73 3495.9 769.327 3495.93 771.336 3495.97 773.345 3494.37 775.004 3492.37 775.042L3492.36 775.042 3492.36 775.042C3490.35 775.08 3488.69 773.483 3488.65 771.474 3488.61 769.465 3490.21 767.806 3492.22 767.768ZM3506.78 767.49 3506.78 767.49C3508.79 767.452 3510.45 769.05 3510.49 771.059 3510.53 773.067 3508.93 774.727 3506.92 774.765L3506.91 774.765C3504.91 774.803 3503.25 773.205 3503.21 771.197 3503.17 769.188 3504.77 767.529 3506.78 767.49ZM3521.33 767.213 3521.34 767.213C3523.35 767.175 3525.01 768.772 3525.05 770.781 3525.08 772.79 3523.49 774.449 3521.48 774.487L3521.48 774.487 3521.47 774.487C3519.46 774.525 3517.8 772.928 3517.76 770.919 3517.73 768.91 3519.32 767.251 3521.33 767.213ZM3535.89 766.935 3535.89 766.935C3537.9 766.897 3539.56 768.495 3539.6 770.503 3539.64 772.512 3538.04 774.171 3536.03 774.209L3536.03 774.209 3536.03 774.21C3534.02 774.248 3532.36 772.65 3532.32 770.641 3532.28 768.633 3533.88 766.973 3535.89 766.935ZM3550.44 766.658 3550.45 766.658C3552.46 766.62 3554.12 768.217 3554.16 770.226 3554.19 772.234 3552.6 773.894 3550.59 773.932L3550.59 773.932 3550.58 773.932C3548.57 773.97 3546.91 772.373 3546.88 770.364 3546.84 768.355 3548.43 766.696 3550.44 766.658ZM3564.97 766.323 3564.98 766.322C3566.98 766.269 3568.66 767.853 3568.71 769.861 3568.76 771.87 3567.18 773.542 3565.17 773.595L3565.16 773.596C3563.16 773.649 3561.48 772.065 3561.43 770.056 3561.38 768.048 3562.96 766.376 3564.97 766.323ZM3579.52 765.932 3579.53 765.932C3581.54 765.878 3583.21 767.462 3583.26 769.471 3583.32 771.479 3581.73 773.151 3579.72 773.205L3579.72 773.205C3577.71 773.259 3576.04 771.674 3575.98 769.666 3575.93 767.657 3577.51 765.986 3579.52 765.932ZM3594.08 765.541 3594.08 765.541C3596.09 765.487 3597.76 767.072 3597.82 769.08 3597.87 771.088 3596.29 772.76 3594.28 772.814L3594.27 772.814C3592.26 772.868 3590.59 771.283 3590.54 769.275 3590.48 767.267 3592.07 765.595 3594.08 765.541ZM3608.63 765.151 3608.64 765.15C3610.64 765.097 3612.32 766.681 3612.37 768.689 3612.42 770.698 3610.84 772.37 3608.83 772.423L3608.82 772.424C3606.82 772.477 3605.14 770.893 3605.09 768.884 3605.04 766.876 3606.62 765.204 3608.63 765.151ZM3623.18 764.76 3623.19 764.76C3625.2 764.706 3626.87 766.29 3626.92 768.299 3626.98 770.307 3625.39 771.979 3623.38 772.033L3623.38 772.033C3621.37 772.087 3619.7 770.502 3619.64 768.494 3619.59 766.485 3621.17 764.814 3623.18 764.76ZM3637.74 764.369 3637.74 764.369C3639.75 764.315 3641.42 765.9 3641.48 767.908 3641.53 769.917 3639.95 771.588 3637.94 771.642L3637.93 771.642C3635.92 771.696 3634.25 770.112 3634.2 768.103 3634.14 766.095 3635.73 764.423 3637.74 764.369ZM3652.25 763.922 3652.25 763.922 3652.25 763.922C3654.26 763.846 3655.95 765.411 3656.03 767.419 3656.1 769.427 3654.54 771.116 3652.53 771.192L3652.53 771.192 3652.52 771.193 3652.52 771.193C3650.51 771.269 3648.83 769.703 3648.75 767.696 3648.67 765.688 3650.24 763.999 3652.25 763.922ZM3666.79 763.368 3666.8 763.368C3668.81 763.292 3670.5 764.857 3670.57 766.865 3670.65 768.873 3669.09 770.562 3667.08 770.638L3667.07 770.639C3665.06 770.715 3663.37 769.149 3663.3 767.142 3663.22 765.134 3664.79 763.445 3666.79 763.368ZM3681.34 762.814 3681.35 762.814 3681.35 762.814C3683.36 762.738 3685.05 764.303 3685.12 766.311 3685.2 768.319 3683.63 770.008 3681.63 770.084L3681.63 770.084 3681.62 770.085 3681.62 770.085C3679.61 770.161 3677.92 768.595 3677.84 766.588 3677.77 764.58 3679.33 762.891 3681.34 762.814ZM3695.85 762.226 3695.86 762.226C3697.87 762.131 3699.57 763.68 3699.67 765.687 3699.76 767.694 3698.21 769.398 3696.21 769.493L3696.2 769.493C3694.19 769.588 3692.49 768.039 3692.39 766.032 3692.3 764.025 3693.85 762.321 3695.85 762.226ZM3710.4 761.539 3710.4 761.539C3712.41 761.444 3714.11 762.993 3714.21 765 3714.3 767.007 3712.75 768.711 3710.75 768.806L3710.74 768.806C3708.73 768.901 3707.03 767.352 3706.93 765.345 3706.84 763.338 3708.39 761.634 3710.4 761.539ZM3724.94 760.852 3724.95 760.852 3724.95 760.852C3726.95 760.757 3728.66 762.307 3728.75 764.313 3728.85 766.32 3727.3 768.024 3725.29 768.119L3725.28 768.12C3723.28 768.215 3721.57 766.665 3721.48 764.658 3721.38 762.651 3722.93 760.947 3724.94 760.852ZM3739.46 760.149 3739.46 760.148C3741.47 760.041 3743.18 761.579 3743.29 763.586 3743.4 765.592 3741.86 767.306 3739.85 767.414L3739.85 767.414 3739.85 767.414C3737.84 767.522 3736.13 765.983 3736.02 763.977 3735.91 761.97 3737.45 760.257 3739.46 760.149ZM3753.99 759.368 3754 759.368C3756.01 759.26 3757.72 760.799 3757.83 762.805 3757.94 764.811 3756.4 766.525 3754.39 766.633L3754.39 766.633 3754.39 766.633C3752.38 766.741 3750.67 765.202 3750.56 763.196 3750.45 761.19 3751.99 759.476 3753.99 759.368ZM3768.53 758.587 3768.54 758.587C3770.55 758.479 3772.26 760.018 3772.37 762.024 3772.47 764.03 3770.94 765.744 3768.93 765.852L3768.92 765.852 3768.92 765.852C3766.92 765.96 3765.2 764.421 3765.09 762.415 3764.99 760.409 3766.53 758.695 3768.53 758.587ZM3783.07 757.806 3783.08 757.806C3785.08 757.698 3786.8 759.237 3786.9 761.243 3787.01 763.249 3785.47 764.963 3783.47 765.071L3783.47 765.071 3783.46 765.071C3781.45 765.179 3779.74 763.64 3779.63 761.634 3779.52 759.628 3781.06 757.914 3783.07 757.806ZM3797.61 757.025 3797.61 757.025C3799.62 756.917 3801.33 758.456 3801.44 760.462 3801.55 762.468 3800.01 764.182 3798 764.29L3798 764.29C3795.99 764.398 3794.28 762.859 3794.17 760.853 3794.06 758.847 3795.6 757.133 3797.61 757.025ZM3812.14 756.244 3812.15 756.244C3814.16 756.136 3815.87 757.675 3815.98 759.681 3816.09 761.688 3814.55 763.401 3812.54 763.509L3812.53 763.51 3812.53 763.51C3810.53 763.617 3808.81 762.079 3808.71 760.072 3808.6 758.066 3810.14 756.352 3812.14 756.244ZM3826.68 755.464 3826.69 755.463C3828.7 755.357 3830.41 756.897 3830.52 758.903 3830.62 760.91 3829.08 762.622 3827.08 762.729L3827.07 762.729C3825.06 762.835 3823.35 761.295 3823.24 759.289 3823.14 757.283 3824.68 755.57 3826.68 755.464ZM3841.22 754.694 3841.23 754.694C3843.24 754.587 3844.95 756.128 3845.06 758.134 3845.16 760.14 3843.62 761.853 3841.61 761.959L3841.61 761.959C3839.6 762.066 3837.89 760.526 3837.78 758.519 3837.68 756.513 3839.22 754.8 3841.22 754.694ZM3855.76 753.924 3855.77 753.924C3857.77 753.818 3859.49 755.358 3859.59 757.364 3859.7 759.371 3858.16 761.083 3856.15 761.19L3856.15 761.19 3856.15 761.19 3856.15 761.19C3854.14 761.296 3852.43 759.756 3852.32 757.75 3852.21 755.743 3853.75 754.031 3855.76 753.924ZM3870.3 753.155 3870.31 753.155C3872.31 753.048 3874.03 754.588 3874.13 756.595 3874.24 758.601 3872.7 760.314 3870.69 760.42L3870.69 760.42 3870.68 760.42 3870.68 760.42C3868.68 760.527 3866.97 758.986 3866.86 756.98 3866.75 754.974 3868.29 753.261 3870.3 753.155ZM3884.86 752.457 3884.87 752.457C3886.87 752.361 3888.58 753.91 3888.67 755.917 3888.77 757.924 3887.22 759.628 3885.21 759.724L3885.21 759.724 3885.21 759.724C3883.2 759.82 3881.5 758.271 3881.4 756.264 3881.3 754.257 3882.85 752.552 3884.86 752.457ZM3899.4 751.765 3899.41 751.765C3901.42 751.669 3903.12 753.219 3903.22 755.225 3903.31 757.232 3901.76 758.936 3899.76 759.032L3899.75 759.032C3897.74 759.128 3896.04 757.578 3895.94 755.572 3895.85 753.565 3897.4 751.861 3899.4 751.765ZM3913.94 751.073 3913.95 751.073C3915.96 750.977 3917.66 752.527 3917.76 754.534 3917.85 756.54 3916.3 758.245 3914.3 758.34L3914.29 758.341C3912.28 758.436 3910.58 756.887 3910.48 754.88 3910.39 752.873 3911.94 751.169 3913.94 751.073ZM3928.52 750.491 3928.53 750.49C3930.54 750.413 3932.23 751.977 3932.31 753.985 3932.38 755.993 3930.82 757.683 3928.81 757.761L3928.8 757.761C3926.8 757.838 3925.11 756.274 3925.03 754.266 3924.95 752.259 3926.52 750.568 3928.52 750.491ZM3943.07 749.929 3943.08 749.929C3945.09 749.851 3946.78 751.416 3946.85 753.424 3946.93 755.431 3945.37 757.122 3943.36 757.199L3943.36 757.199 3943.35 757.199 3943.35 757.199C3941.34 757.277 3939.65 755.712 3939.58 753.705 3939.5 751.697 3941.06 750.007 3943.07 749.929ZM3957.62 749.368 3957.63 749.368C3959.63 749.29 3961.32 750.855 3961.4 752.862 3961.48 754.87 3959.91 756.56 3957.91 756.638L3957.9 756.638C3955.89 756.716 3954.2 755.151 3954.12 753.143 3954.05 751.136 3955.61 749.445 3957.62 749.368ZM3972.22 748.946 3972.22 748.945C3974.23 748.893 3975.9 750.479 3975.96 752.487 3976.01 754.496 3974.42 756.166 3972.41 756.219L3972.41 756.219C3970.4 756.271 3968.73 754.685 3968.67 752.677 3968.62 750.668 3970.21 748.998 3972.22 748.946ZM3986.77 748.568 3986.78 748.567C3988.79 748.515 3990.46 750.101 3990.51 752.109 3990.56 754.118 3988.98 755.788 3986.97 755.841L3986.96 755.841C3984.95 755.893 3983.28 754.307 3983.23 752.299 3983.18 750.29 3984.76 748.62 3986.77 748.568ZM4001.32 748.19 4001.33 748.189C4003.34 748.137 4005.01 749.723 4005.06 751.731 4005.11 753.74 4003.53 755.41 4001.52 755.463L4001.51 755.463C3999.5 755.515 3997.83 753.929 3997.78 751.921 3997.73 749.912 3999.32 748.242 4001.32 748.19ZM4015.93 747.937 4015.93 747.937C4017.94 747.91 4019.59 749.517 4019.62 751.526 4019.65 753.535 4018.04 755.185 4016.03 755.212L4016.03 755.212 4016.02 755.212C4014.01 755.239 4012.36 753.632 4012.34 751.623 4012.31 749.614 4013.92 747.964 4015.93 747.937ZM4030.48 747.743 4030.49 747.743C4032.5 747.716 4034.15 749.323 4034.18 751.332 4034.2 753.341 4032.6 754.991 4030.59 755.018L4030.59 755.018 4030.58 755.018C4028.57 755.045 4026.92 753.438 4026.89 751.429 4026.87 749.42 4028.47 747.77 4030.48 747.743ZM4045.04 747.55 4045.05 747.55C4047.06 747.523 4048.71 749.13 4048.73 751.139 4048.76 753.148 4047.15 754.798 4045.14 754.825L4045.14 754.825 4045.14 754.825C4043.13 754.851 4041.48 753.245 4041.45 751.236 4041.42 749.227 4043.03 747.576 4045.04 747.55ZM4059.6 747.356 4059.61 747.356C4061.61 747.329 4063.26 748.936 4063.29 750.945 4063.32 752.954 4061.71 754.604 4059.7 754.631L4059.69 754.631C4057.69 754.658 4056.04 753.051 4056.01 751.042 4055.98 749.033 4057.59 747.383 4059.6 747.356ZM4074.16 747.162 4074.16 747.162C4076.17 747.136 4077.82 748.743 4077.85 750.752 4077.87 752.76 4076.27 754.411 4074.26 754.437L4074.26 754.437 4074.25 754.437C4072.24 754.464 4070.59 752.857 4070.57 750.848 4070.54 748.839 4072.15 747.189 4074.16 747.162ZM4088.71 746.969 4088.72 746.969C4090.73 746.942 4092.38 748.549 4092.41 750.558 4092.43 752.567 4090.82 754.217 4088.82 754.244L4088.81 754.244 4088.81 754.244C4086.8 754.27 4085.15 752.663 4085.12 750.654 4085.1 748.645 4086.7 746.995 4088.71 746.969ZM4103.31 746.868 4103.32 746.868C4105.33 746.865 4106.96 748.492 4106.96 750.501 4106.97 752.511 4105.34 754.141 4103.33 754.143L4103.32 754.143C4101.31 754.146 4099.68 752.519 4099.68 750.51 4099.68 748.5 4101.31 746.87 4103.31 746.868ZM4117.87 746.852 4117.88 746.852C4119.89 746.849 4121.52 748.476 4121.52 750.485 4121.52 752.494 4119.9 754.125 4117.89 754.127L4117.88 754.127C4115.87 754.129 4114.24 752.503 4114.24 750.493 4114.24 748.484 4115.86 746.854 4117.87 746.852ZM4132.43 746.835 4132.44 746.835C4134.45 746.833 4136.08 748.46 4136.08 750.469 4136.08 752.478 4134.46 754.109 4132.45 754.111L4132.44 754.111C4130.43 754.113 4128.8 752.486 4128.8 750.477 4128.79 748.468 4130.42 746.838 4132.43 746.835ZM4146.99 746.819 4147 746.819C4149.01 746.817 4150.64 748.444 4150.64 750.453 4150.64 752.462 4149.01 754.093 4147 754.095L4147 754.095C4144.99 754.097 4143.36 752.47 4143.36 750.461 4143.35 748.452 4144.98 746.821 4146.99 746.819ZM4161.55 746.803 4161.56 746.803C4163.56 746.801 4165.19 748.428 4165.2 750.437 4165.2 752.446 4163.57 754.076 4161.56 754.079L4161.56 754.079C4159.55 754.081 4157.92 752.454 4157.91 750.445 4157.91 748.436 4159.54 746.805 4161.55 746.803ZM4176.11 746.787 4176.11 746.787C4178.12 746.785 4179.75 748.412 4179.76 750.421 4179.76 752.43 4178.13 754.06 4176.12 754.062L4176.11 754.062C4174.11 754.065 4172.48 752.438 4172.47 750.429 4172.47 748.42 4174.1 746.789 4176.11 746.787ZM4190.7 746.829 4190.71 746.829C4192.72 746.848 4194.33 748.493 4194.31 750.502 4194.29 752.511 4192.65 754.124 4190.64 754.104L4190.63 754.104C4188.62 754.084 4187.01 752.44 4187.03 750.431 4187.05 748.422 4188.7 746.809 4190.7 746.829ZM4205.26 746.971 4205.27 746.971C4207.28 746.991 4208.89 748.636 4208.87 750.645 4208.85 752.654 4207.21 754.266 4205.2 754.247L4205.2 754.247 4205.19 754.247C4203.18 754.227 4201.57 752.583 4201.59 750.574 4201.61 748.565 4203.25 746.952 4205.26 746.971ZM4219.82 747.114 4219.83 747.114C4221.84 747.134 4223.45 748.778 4223.43 750.787 4223.41 752.796 4221.77 754.409 4219.76 754.389L4219.75 754.389C4217.74 754.37 4216.13 752.725 4216.15 750.716 4216.17 748.707 4217.81 747.095 4219.82 747.114ZM4234.41 747.291 4234.41 747.291C4236.42 747.327 4238.02 748.985 4237.99 750.994 4237.95 753.002 4236.29 754.602 4234.28 754.566L4234.28 754.565C4232.27 754.529 4230.67 752.872 4230.7 750.863 4230.74 748.854 4232.4 747.255 4234.41 747.291ZM4248.96 747.553 4248.97 747.554C4250.98 747.59 4252.58 749.247 4252.54 751.256 4252.51 753.265 4250.85 754.864 4248.84 754.828L4248.83 754.828C4246.82 754.792 4245.22 753.134 4245.26 751.125 4245.3 749.117 4246.95 747.517 4248.96 747.553ZM4263.52 747.816 4263.53 747.816C4265.54 747.852 4267.13 749.509 4267.1 751.518 4267.06 753.527 4265.4 755.126 4263.4 755.09L4263.39 755.09C4261.38 755.054 4259.78 753.396 4259.82 751.388 4259.85 749.379 4261.51 747.78 4263.52 747.816ZM4278.11 748.105 4278.11 748.105C4280.12 748.159 4281.71 749.831 4281.65 751.839 4281.6 753.848 4279.93 755.432 4277.92 755.378L4277.91 755.378C4275.9 755.324 4274.32 753.652 4274.37 751.644 4274.43 749.636 4276.1 748.051 4278.11 748.105ZM4292.66 748.497 4292.67 748.497C4294.68 748.551 4296.26 750.223 4296.21 752.231 4296.15 754.24 4294.48 755.824 4292.47 755.77L4292.47 755.77 4292.46 755.77 4292.46 755.77C4290.46 755.716 4288.87 754.044 4288.93 752.036 4288.98 750.028 4290.65 748.443 4292.66 748.497ZM4307.21 748.889 4307.22 748.889C4309.23 748.943 4310.81 750.615 4310.76 752.623 4310.71 754.632 4309.03 756.216 4307.03 756.162L4307.03 756.162 4307.02 756.162 4307.02 756.162C4305.01 756.108 4303.43 754.437 4303.48 752.428 4303.53 750.42 4305.2 748.835 4307.21 748.889ZM4321.8 749.299 4321.81 749.3C4323.82 749.373 4325.38 751.06 4325.31 753.067 4325.24 755.075 4323.55 756.643 4321.54 756.57L4321.54 756.57C4319.53 756.497 4317.96 754.81 4318.03 752.802 4318.11 750.795 4319.79 749.226 4321.8 749.299ZM4336.35 749.831 4336.36 749.832C4338.36 749.905 4339.93 751.592 4339.86 753.599 4339.79 755.607 4338.1 757.176 4336.09 757.102L4336.08 757.102C4334.08 757.029 4332.51 755.342 4332.58 753.334 4332.65 751.327 4334.34 749.758 4336.35 749.831ZM4350.9 750.363 4350.91 750.364C4352.91 750.437 4354.48 752.124 4354.41 754.132 4354.33 756.139 4352.65 757.708 4350.64 757.635L4350.63 757.634 4350.63 757.634C4348.63 757.561 4347.06 755.874 4347.13 753.867 4347.2 751.859 4348.89 750.29 4350.9 750.363ZM4365.51 750.908 4365.52 750.909C4367.52 751.017 4369.06 752.731 4368.95 754.737 4368.85 756.743 4367.13 758.282 4365.13 758.174L4365.12 758.173C4363.11 758.065 4361.57 756.351 4361.68 754.345 4361.79 752.339 4363.5 750.8 4365.51 750.908ZM4380.05 751.696 4380.05 751.697C4382.06 751.805 4383.6 753.519 4383.49 755.525 4383.38 757.531 4381.67 759.07 4379.66 758.962L4379.66 758.962 4379.66 758.961C4377.65 758.853 4376.11 757.139 4376.22 755.133 4376.33 753.127 4378.04 751.588 4380.05 751.696ZM4394.58 752.484 4394.59 752.485C4396.6 752.593 4398.14 754.307 4398.03 756.313 4397.92 758.319 4396.21 759.858 4394.2 759.75L4394.19 759.749C4392.19 759.641 4390.65 757.927 4390.76 755.921 4390.86 753.915 4392.58 752.376 4394.58 752.484ZM4409.12 753.272 4409.13 753.273C4411.13 753.381 4412.67 755.095 4412.56 757.101 4412.46 759.107 4410.74 760.646 4408.74 760.538L4408.73 760.537C4406.72 760.429 4405.18 758.715 4405.29 756.709 4405.4 754.703 4407.11 753.164 4409.12 753.272ZM4423.72 754.346 4423.72 754.347C4425.73 754.497 4427.23 756.243 4427.08 758.247 4426.93 760.25 4425.18 761.753 4423.18 761.602L4423.17 761.602C4421.17 761.451 4419.67 759.706 4419.82 757.702 4419.97 755.699 4421.71 754.196 4423.72 754.346ZM4438.23 755.429 4438.24 755.43C4440.25 755.58 4441.75 757.326 4441.6 759.33 4441.45 761.333 4439.7 762.836 4437.7 762.685L4437.69 762.685C4435.69 762.534 4434.18 760.788 4434.33 758.785 4434.48 756.782 4436.23 755.279 4438.23 755.429ZM4452.75 756.512 4452.76 756.513C4454.76 756.663 4456.27 758.409 4456.12 760.413 4455.96 762.416 4454.22 763.918 4452.22 763.768L4452.21 763.768C4450.21 763.617 4448.7 761.871 4448.85 759.868 4449 757.865 4450.75 756.362 4452.75 756.512ZM4467.3 757.764 4467.31 757.765C4469.31 757.941 4470.79 759.706 4470.62 761.708 4470.44 763.709 4468.67 765.189 4466.67 765.012L4466.67 765.012C4464.66 764.835 4463.19 763.07 4463.36 761.069 4463.54 759.067 4465.3 757.588 4467.3 757.764ZM4481.81 759.038 4481.81 759.038C4483.82 759.215 4485.29 760.98 4485.12 762.981 4484.94 764.983 4483.18 766.462 4481.18 766.286L4481.17 766.285C4479.17 766.109 4477.69 764.344 4477.86 762.342 4478.04 760.341 4479.81 758.862 4481.81 759.038ZM4496.31 760.311 4496.32 760.312C4498.32 760.488 4499.8 762.254 4499.62 764.255 4499.45 766.256 4497.68 767.736 4495.68 767.56L4495.67 767.559C4493.67 767.383 4492.19 765.617 4492.37 763.616 4492.54 761.615 4494.31 760.135 4496.31 760.311ZM4510.83 761.654 4510.83 761.655C4512.84 761.843 4514.3 763.618 4514.12 765.618 4513.93 767.618 4512.15 769.087 4510.15 768.899L4510.15 768.898C4508.15 768.71 4506.68 766.936 4506.87 764.935 4507.05 762.935 4508.83 761.466 4510.83 761.654ZM4525.32 763.015 4525.33 763.016C4527.33 763.204 4528.8 764.978 4528.61 766.979 4528.42 768.979 4526.65 770.448 4524.65 770.26L4524.64 770.259C4522.64 770.071 4521.17 768.296 4521.36 766.296 4521.55 764.296 4523.32 762.827 4525.32 763.015ZM4539.82 764.376 4539.82 764.377C4541.82 764.565 4543.29 766.339 4543.11 768.34 4542.92 770.34 4541.14 771.809 4539.14 771.62L4539.14 771.62C4537.14 771.431 4535.67 769.657 4535.85 767.657 4536.04 765.657 4537.82 764.188 4539.82 764.376ZM4554.31 765.726 4554.32 765.727C4556.32 765.913 4557.79 767.686 4557.6 769.686 4557.42 771.687 4555.64 773.157 4553.64 772.971L4553.63 772.97C4551.63 772.784 4550.16 771.011 4550.35 769.011 4550.54 767.01 4552.31 765.54 4554.31 765.726ZM4568.81 767.071 4568.81 767.072C4570.81 767.258 4572.28 769.031 4572.1 771.031 4571.91 773.032 4570.14 774.502 4568.14 774.316L4568.13 774.315C4566.13 774.129 4564.66 772.356 4564.85 770.356 4565.03 768.355 4566.81 766.885 4568.81 767.071ZM4583.3 768.416 4583.31 768.417C4585.31 768.603 4586.78 770.376 4586.59 772.376 4586.41 774.377 4584.63 775.847 4582.63 775.661L4582.63 775.66C4580.63 775.474 4579.16 773.701 4579.34 771.701 4579.53 769.7 4581.3 768.23 4583.3 768.416ZM4597.77 769.689 4597.78 769.69C4599.78 769.859 4601.27 771.62 4601.1 773.622 4600.93 775.624 4599.17 777.109 4597.17 776.939L4597.16 776.939 4597.16 776.939C4595.16 776.769 4593.67 775.008 4593.84 773.006 4594.01 771.005 4595.77 769.519 4597.77 769.689ZM4612.28 770.915 4612.29 770.916C4614.29 771.086 4615.78 772.846 4615.61 774.848 4615.44 776.85 4613.68 778.335 4611.67 778.165L4611.67 778.165 4611.67 778.165C4609.66 777.995 4608.18 776.235 4608.35 774.233 4608.52 772.231 4610.28 770.746 4612.28 770.915ZM4626.79 772.141 4626.79 772.142C4628.8 772.312 4630.28 774.072 4630.11 776.074 4629.94 778.076 4628.18 779.561 4626.18 779.392L4626.17 779.391 4626.17 779.391C4624.17 779.221 4622.69 777.461 4622.86 775.459 4623.03 773.457 4624.79 771.972 4626.79 772.141ZM4641.25 773.253 4641.25 773.254C4643.26 773.393 4644.77 775.131 4644.63 777.135 4644.49 779.14 4642.75 780.651 4640.75 780.512L4640.74 780.512C4638.74 780.372 4637.23 778.634 4637.37 776.63 4637.51 774.626 4639.24 773.114 4641.25 773.253ZM4655.77 774.257 4655.78 774.258C4657.78 774.397 4659.29 776.135 4659.16 778.139 4659.02 780.143 4657.28 781.655 4655.27 781.516L4655.27 781.515C4653.26 781.376 4651.75 779.638 4651.89 777.634 4652.03 775.63 4653.77 774.118 4655.77 774.257ZM4670.3 775.261 4670.3 775.262C4672.31 775.401 4673.82 777.139 4673.68 779.143 4673.54 781.147 4671.8 782.659 4669.8 782.52L4669.79 782.519C4667.79 782.38 4666.27 780.642 4666.41 778.638 4666.55 776.633 4668.29 775.122 4670.3 775.261ZM4684.74 776.127 4684.75 776.127 4684.75 776.127C4686.76 776.22 4688.31 777.922 4688.22 779.929 4688.12 781.936 4686.42 783.488 4684.41 783.395L4684.41 783.395 4684.41 783.395 4684.41 783.395C4682.4 783.302 4680.85 781.599 4680.94 779.592 4681.03 777.586 4682.74 776.034 4684.74 776.127ZM4699.29 776.803 4699.29 776.804C4701.3 776.897 4702.85 778.599 4702.76 780.606 4702.67 782.613 4700.96 784.164 4698.96 784.072L4698.95 784.071C4696.94 783.978 4695.39 782.276 4695.48 780.269 4695.58 778.262 4697.28 776.711 4699.29 776.803ZM4713.83 777.48 4713.84 777.48C4715.84 777.573 4717.39 779.276 4717.3 781.283 4717.21 783.29 4715.51 784.841 4713.5 784.748L4713.49 784.748C4711.48 784.655 4709.93 782.953 4710.03 780.946 4710.12 778.939 4711.82 777.387 4713.83 777.48ZM4728.29 778.042 4728.3 778.042C4730.31 778.088 4731.9 779.753 4731.85 781.762 4731.81 783.77 4730.14 785.362 4728.13 785.316L4728.12 785.316C4726.12 785.27 4724.52 783.605 4724.57 781.596 4724.62 779.587 4726.28 777.996 4728.29 778.042ZM4742.84 778.373 4742.85 778.373C4744.86 778.419 4746.45 780.084 4746.41 782.092 4746.36 784.101 4744.69 785.692 4742.69 785.647L4742.68 785.646C4740.67 785.601 4739.08 783.935 4739.12 781.927 4739.17 779.918 4740.84 778.327 4742.84 778.373ZM4757.4 778.703 4757.41 778.704C4759.41 778.749 4761.01 780.415 4760.96 782.423 4760.91 784.432 4759.25 786.023 4757.24 785.977L4757.23 785.977C4755.22 785.931 4753.63 784.266 4753.68 782.258 4753.73 780.249 4755.39 778.658 4757.4 778.703ZM4771.89 778.971 4771.9 778.972C4773.91 778.982 4775.53 780.618 4775.52 782.628 4775.51 784.637 4773.87 786.257 4771.86 786.247L4771.85 786.247C4769.84 786.237 4768.22 784.6 4768.23 782.591 4768.24 780.582 4769.88 778.961 4771.89 778.971ZM4786.45 779.047 4786.46 779.047C4788.46 779.058 4790.08 780.694 4790.07 782.703 4790.06 784.713 4788.43 786.333 4786.42 786.323L4786.41 786.323C4784.4 786.313 4782.78 784.676 4782.79 782.667 4782.8 780.658 4784.44 779.037 4786.45 779.047ZM4801.01 779.123 4801.01 779.123C4803.02 779.133 4804.64 780.77 4804.63 782.779 4804.62 784.788 4802.99 786.409 4800.98 786.399L4800.97 786.399C4798.96 786.389 4797.34 784.752 4797.35 782.743 4797.36 780.734 4799 779.113 4801.01 779.123ZM4815.52 779.168 4815.52 779.168C4817.53 779.151 4819.17 780.767 4819.19 782.776 4819.21 784.785 4817.59 786.427 4815.58 786.443L4815.58 786.443 4815.58 786.443C4813.57 786.46 4811.93 784.844 4811.91 782.835 4811.89 780.826 4813.51 779.184 4815.52 779.168ZM4830.07 779.049 4830.08 779.049 4830.08 779.049C4832.09 779.032 4833.73 780.648 4833.75 782.657 4833.77 784.666 4832.15 786.308 4830.14 786.324L4830.14 786.324 4830.13 786.324C4828.12 786.341 4826.48 784.725 4826.47 782.716 4826.45 780.707 4828.07 779.065 4830.07 779.049ZM4844.63 778.93 4844.64 778.93 4844.64 778.93C4846.65 778.913 4848.29 780.529 4848.31 782.538 4848.32 784.547 4846.71 786.189 4844.7 786.205L4844.7 786.205 4844.69 786.205C4842.68 786.222 4841.04 784.606 4841.02 782.597 4841.01 780.588 4842.62 778.946 4844.63 778.93ZM4859.16 778.8 4859.16 778.8C4861.17 778.765 4862.83 780.365 4862.86 782.373 4862.9 784.382 4861.3 786.039 4859.29 786.075L4859.28 786.075C4857.28 786.11 4855.62 784.51 4855.58 782.501 4855.55 780.493 4857.15 778.835 4859.16 778.8ZM4873.71 778.546 4873.72 778.546C4875.73 778.511 4877.39 780.111 4877.42 782.119 4877.46 784.128 4875.86 785.785 4873.85 785.821L4873.84 785.821C4871.83 785.856 4870.17 784.256 4870.14 782.247 4870.1 780.239 4871.7 778.581 4873.71 778.546ZM4888.27 778.292 4888.28 778.292C4890.28 778.257 4891.94 779.857 4891.98 781.865 4892.01 783.874 4890.41 785.531 4888.4 785.567L4888.4 785.567C4886.39 785.602 4884.73 784.002 4884.7 781.993 4884.66 779.985 4886.26 778.328 4888.27 778.292ZM4902.8 778.039 4902.81 778.038C4904.82 777.991 4906.49 779.581 4906.53 781.59 4906.58 783.599 4904.99 785.265 4902.98 785.312L4902.97 785.312C4900.97 785.359 4899.3 783.769 4899.25 781.761 4899.21 779.752 4900.79 778.086 4902.8 778.039ZM4917.36 777.702 4917.37 777.702C4919.37 777.655 4921.04 779.245 4921.09 781.253 4921.13 783.262 4919.54 784.928 4917.54 784.975L4917.53 784.976C4915.52 785.023 4913.85 783.433 4913.81 781.424 4913.76 779.416 4915.35 777.749 4917.36 777.702ZM4931.91 777.365 4931.92 777.365C4933.93 777.318 4935.59 778.908 4935.64 780.917 4935.69 782.925 4934.1 784.592 4932.09 784.639L4932.08 784.639C4930.07 784.686 4928.41 783.096 4928.36 781.087 4928.31 779.079 4929.9 777.413 4931.91 777.365ZM4946.47 777.029 4946.47 777.029C4948.48 776.982 4950.15 778.572 4950.2 780.58 4950.24 782.589 4948.65 784.255 4946.65 784.302L4946.64 784.302C4944.63 784.35 4942.96 782.759 4942.92 780.751 4942.87 778.742 4944.46 777.076 4946.47 777.029ZM4961.02 776.692 4961.03 776.692C4963.04 776.645 4964.7 778.235 4964.75 780.244 4964.8 782.252 4963.21 783.919 4961.2 783.966L4961.19 783.966C4959.18 784.013 4957.52 782.423 4957.47 780.414 4957.42 778.406 4959.01 776.739 4961.02 776.692ZM4975.58 776.356 4975.58 776.356C4977.59 776.308 4979.26 777.899 4979.31 779.907 4979.35 781.916 4977.76 783.582 4975.75 783.629L4975.75 783.629C4973.74 783.676 4972.07 782.086 4972.02 780.078 4971.98 778.069 4973.57 776.403 4975.58 776.356ZM4990.13 776.019 4990.14 776.019C4992.15 775.972 4993.81 777.562 4993.86 779.571 4993.91 781.579 4992.32 783.245 4990.31 783.293L4990.3 783.293C4988.29 783.34 4986.63 781.75 4986.58 779.741 4986.53 777.733 4988.12 776.066 4990.13 776.019ZM5004.7 775.714 5004.7 775.713C5006.71 775.672 5008.37 777.266 5008.42 779.275 5008.46 781.284 5006.86 782.946 5004.85 782.987L5004.85 782.988C5002.84 783.029 5001.18 781.435 5001.13 779.426 5001.09 777.417 5002.69 775.755 5004.7 775.714ZM5019.25 775.414 5019.26 775.414C5021.27 775.372 5022.93 776.967 5022.97 778.976 5023.01 780.984 5021.42 782.646 5019.41 782.688L5019.4 782.688C5017.39 782.73 5015.73 781.135 5015.69 779.127 5015.65 777.118 5017.24 775.456 5019.25 775.414ZM5033.81 775.115 5033.81 775.115C5035.82 775.073 5037.48 776.668 5037.53 778.676 5037.57 780.685 5035.97 782.347 5033.96 782.389L5033.96 782.389C5031.95 782.43 5030.29 780.836 5030.25 778.827 5030.2 776.818 5031.8 775.156 5033.81 775.115ZM5048.39 774.894 5048.4 774.894C5050.41 774.867 5052.06 776.473 5052.08 778.482 5052.11 780.491 5050.5 782.142 5048.5 782.169L5048.49 782.169C5046.48 782.197 5044.83 780.59 5044.8 778.582 5044.77 776.573 5046.38 774.922 5048.39 774.894ZM5062.95 774.7 5062.95 774.7C5064.96 774.672 5066.61 776.278 5066.64 778.287 5066.67 780.296 5065.06 781.947 5063.05 781.974L5063.05 781.975C5061.04 782.002 5059.39 780.396 5059.36 778.387 5059.33 776.378 5060.94 774.727 5062.95 774.7ZM5077.5 774.505 5077.51 774.505C5079.52 774.477 5081.17 776.084 5081.2 778.093 5081.23 780.102 5079.62 781.752 5077.61 781.78L5077.6 781.78C5075.59 781.807 5073.94 780.201 5073.92 778.192 5073.89 776.183 5075.49 774.532 5077.5 774.505ZM5092.09 774.373 5092.09 774.373C5094.1 774.359 5095.74 775.977 5095.76 777.986 5095.77 779.995 5094.15 781.635 5092.14 781.649L5092.14 781.649C5090.13 781.663 5088.49 780.046 5088.47 778.037 5088.46 776.028 5090.08 774.388 5092.09 774.373ZM5106.64 774.273 5106.65 774.272C5108.66 774.258 5110.3 775.876 5110.31 777.885 5110.33 779.894 5108.71 781.534 5106.7 781.548L5106.69 781.548C5104.69 781.562 5103.05 779.945 5103.03 777.936 5103.02 775.927 5104.63 774.287 5106.64 774.273ZM5121.2 774.172 5121.21 774.172C5123.22 774.157 5124.86 775.775 5124.87 777.784 5124.89 779.793 5123.27 781.433 5121.26 781.447L5121.25 781.447C5119.24 781.461 5117.6 779.844 5117.59 777.835 5117.58 775.826 5119.19 774.186 5121.2 774.172ZM5135.76 774.071 5135.77 774.07C5137.78 774.056 5139.42 775.674 5139.43 777.683 5139.44 779.692 5137.83 781.332 5135.82 781.346L5135.81 781.346C5133.8 781.36 5132.16 779.743 5132.15 777.734 5132.13 775.725 5133.75 774.085 5135.76 774.071ZM5150.32 773.97 5150.32 773.97C5152.33 773.955 5153.97 775.573 5153.99 777.582 5154 779.591 5152.39 781.231 5150.38 781.245L5150.37 781.245C5148.36 781.259 5146.72 779.642 5146.71 777.633 5146.69 775.624 5148.31 773.984 5150.32 773.97ZM5164.88 773.869 5164.88 773.869C5166.89 773.854 5168.53 775.472 5168.55 777.481 5168.56 779.49 5166.94 781.13 5164.93 781.144L5164.93 781.144C5162.92 781.158 5161.28 779.541 5161.26 777.532 5161.25 775.523 5162.87 773.883 5164.88 773.869ZM5179.43 773.768 5179.44 773.768C5181.45 773.753 5183.09 775.371 5183.1 777.38 5183.12 779.389 5181.5 781.029 5179.49 781.043L5179.48 781.043C5177.48 781.057 5175.84 779.44 5175.82 777.431 5175.81 775.422 5177.42 773.782 5179.43 773.768ZM5193.99 773.667 5194 773.667C5196.01 773.652 5197.65 775.27 5197.66 777.279 5197.68 779.288 5196.06 780.928 5194.05 780.942L5194.04 780.942C5192.03 780.956 5190.39 779.339 5190.38 777.33 5190.37 775.321 5191.98 773.681 5193.99 773.667ZM5208.55 773.566 5208.56 773.566C5210.57 773.552 5212.21 775.169 5212.22 777.178 5212.23 779.187 5210.62 780.827 5208.61 780.841L5208.6 780.841C5206.59 780.855 5204.95 779.238 5204.94 777.229 5204.92 775.22 5206.54 773.58 5208.55 773.566ZM5223.11 773.465 5223.12 773.465C5225.12 773.451 5226.76 775.068 5226.78 777.077 5226.79 779.086 5225.18 780.726 5223.17 780.74L5223.16 780.74C5221.15 780.754 5219.51 779.137 5219.5 777.128 5219.48 775.119 5221.1 773.479 5223.11 773.465ZM5237.67 773.364 5237.67 773.364C5239.68 773.35 5241.32 774.967 5241.34 776.976 5241.35 778.985 5239.73 780.625 5237.72 780.639L5237.72 780.639C5235.71 780.653 5234.07 779.036 5234.05 777.027 5234.04 775.018 5235.66 773.378 5237.67 773.364ZM5252.22 773.263 5252.23 773.263C5254.24 773.249 5255.88 774.866 5255.9 776.875 5255.91 778.884 5254.29 780.524 5252.28 780.538L5252.28 780.538C5250.27 780.552 5248.63 778.935 5248.61 776.926 5248.6 774.917 5250.22 773.277 5252.22 773.263ZM5266.78 773.16 5266.79 773.16 5266.79 773.16C5268.8 773.145 5270.44 774.762 5270.45 776.771 5270.47 778.78 5268.85 780.421 5266.84 780.436L5266.84 780.436 5266.84 780.436C5264.83 780.451 5263.19 778.834 5263.17 776.825 5263.16 774.816 5264.77 773.175 5266.78 773.16ZM5281.34 773.055 5281.35 773.055C5283.36 773.04 5285 774.657 5285.01 776.666 5285.03 778.675 5283.41 780.316 5281.4 780.331L5281.4 780.331 5281.39 780.331C5279.38 780.345 5277.74 778.729 5277.73 776.72 5277.71 774.711 5279.33 773.07 5281.34 773.055ZM5295.9 772.95 5295.9 772.95C5297.91 772.935 5299.55 774.552 5299.57 776.561 5299.58 778.57 5297.97 780.21 5295.96 780.225L5295.96 780.225 5295.95 780.225C5293.94 780.24 5292.3 778.624 5292.29 776.615 5292.27 774.606 5293.89 772.965 5295.9 772.95ZM5310.46 772.845 5310.46 772.845C5312.47 772.83 5314.11 774.446 5314.13 776.456 5314.14 778.465 5312.53 780.105 5310.52 780.12L5310.52 780.12 5310.51 780.12C5308.5 780.135 5306.86 778.519 5306.84 776.51 5306.83 774.501 5308.45 772.86 5310.46 772.845ZM5325.01 772.74 5325.02 772.74C5327.03 772.725 5328.67 774.341 5328.69 776.35 5328.7 778.359 5327.08 780 5325.07 780.015L5325.07 780.015 5325.07 780.015C5323.06 780.03 5321.42 778.413 5321.4 776.404 5321.39 774.395 5323 772.755 5325.01 772.74ZM5339.57 772.635 5339.58 772.635C5341.59 772.62 5343.23 774.236 5343.24 776.245 5343.26 778.254 5341.64 779.895 5339.63 779.91L5339.63 779.91 5339.63 779.91C5337.62 779.925 5335.98 778.308 5335.96 776.299 5335.95 774.29 5337.56 772.65 5339.57 772.635ZM5354.13 772.529 5354.14 772.529C5356.15 772.515 5357.79 774.131 5357.8 776.14 5357.82 778.149 5356.2 779.79 5354.19 779.805L5354.19 779.805 5354.18 779.805C5352.17 779.82 5350.53 778.203 5350.52 776.194 5350.5 774.185 5352.12 772.544 5354.13 772.529ZM5368.69 772.424 5368.69 772.424C5370.7 772.409 5372.34 774.026 5372.36 776.035 5372.37 778.044 5370.76 779.685 5368.75 779.7L5368.75 779.7 5368.74 779.7C5366.73 779.715 5365.09 778.098 5365.08 776.089 5365.06 774.08 5366.68 772.439 5368.69 772.424ZM5383.25 772.319 5383.25 772.319C5385.26 772.304 5386.9 773.921 5386.92 775.93 5386.93 777.939 5385.32 779.58 5383.31 779.595L5383.31 779.595 5383.3 779.595C5381.29 779.609 5379.65 777.993 5379.63 775.984 5379.62 773.975 5381.24 772.334 5383.25 772.319ZM5397.8 772.214 5397.81 772.214C5399.82 772.199 5401.46 773.816 5401.48 775.825 5401.49 777.834 5399.87 779.474 5397.86 779.489L5397.86 779.489 5397.86 779.489C5395.85 779.504 5394.21 777.888 5394.19 775.879 5394.18 773.87 5395.79 772.229 5397.8 772.214ZM5412.36 772.109 5412.37 772.109C5414.38 772.094 5416.02 773.711 5416.03 775.72 5416.05 777.729 5414.43 779.369 5412.42 779.384L5412.42 779.384 5412.42 779.384C5410.41 779.399 5408.77 777.783 5408.75 775.774 5408.74 773.765 5410.35 772.124 5412.36 772.109ZM5426.92 772.004 5426.93 772.004C5428.94 771.989 5430.58 773.605 5430.59 775.614 5430.61 777.623 5428.99 779.264 5426.98 779.279L5426.98 779.279 5426.97 779.279C5424.96 779.294 5423.32 777.677 5423.31 775.668 5423.29 773.659 5424.91 772.019 5426.92 772.004ZM5441.46 771.897 5441.47 771.896C5443.48 771.873 5445.13 773.482 5445.15 775.491 5445.17 777.5 5443.56 779.148 5441.56 779.172L5441.55 779.172C5439.54 779.195 5437.89 777.586 5437.87 775.577 5437.84 773.568 5439.45 771.92 5441.46 771.897ZM5456.02 771.728 5456.03 771.728C5458.04 771.704 5459.68 773.314 5459.71 775.323 5459.73 777.331 5458.12 778.979 5456.11 779.003L5456.11 779.003C5454.1 779.026 5452.45 777.417 5452.43 775.408 5452.4 773.399 5454.01 771.751 5456.02 771.728ZM5470.58 771.559 5470.58 771.559C5472.59 771.535 5474.24 773.145 5474.27 775.154 5474.29 777.163 5472.68 778.81 5470.67 778.834L5470.66 778.834C5468.65 778.857 5467.01 777.248 5466.98 775.239 5466.96 773.23 5468.57 771.582 5470.58 771.559ZM5485.14 771.39 5485.14 771.39C5487.15 771.366 5488.8 772.976 5488.82 774.985 5488.85 776.994 5487.24 778.641 5485.23 778.665L5485.22 778.665C5483.21 778.689 5481.56 777.079 5481.54 775.07 5481.52 773.061 5483.13 771.414 5485.14 771.39ZM5499.69 771.221 5499.7 771.221C5501.71 771.198 5503.36 772.807 5503.38 774.816 5503.4 776.825 5501.79 778.473 5499.78 778.496L5499.78 778.496C5497.77 778.52 5496.12 776.91 5496.1 774.901 5496.07 772.892 5497.68 771.245 5499.69 771.221ZM5514.25 771.052 5514.26 771.052C5516.27 771.029 5517.91 772.638 5517.94 774.647 5517.96 776.656 5516.35 778.304 5514.34 778.327L5514.33 778.327C5512.33 778.351 5510.68 776.741 5510.65 774.732 5510.63 772.723 5512.24 771.076 5514.25 771.052ZM5528.81 770.883 5528.81 770.883C5530.82 770.86 5532.47 772.469 5532.49 774.478 5532.52 776.487 5530.91 778.135 5528.9 778.158L5528.89 778.158C5526.88 778.182 5525.24 776.573 5525.21 774.564 5525.19 772.555 5526.8 770.907 5528.81 770.883ZM5543.36 770.684 5543.36 770.684C5545.37 770.656 5547.02 772.262 5547.05 774.271 5547.08 776.279 5545.47 777.931 5543.47 777.959L5543.46 777.959C5541.45 777.987 5539.8 776.382 5539.77 774.373 5539.74 772.364 5541.35 770.713 5543.36 770.684ZM5557.91 770.481 5557.92 770.481C5559.93 770.453 5561.58 772.058 5561.61 774.067 5561.64 776.076 5560.03 777.727 5558.02 777.756L5558.02 777.756C5556.01 777.784 5554.35 776.178 5554.33 774.169 5554.3 772.161 5555.9 770.509 5557.91 770.481ZM5572.47 770.277 5572.48 770.277C5574.49 770.249 5576.14 771.855 5576.17 773.864 5576.19 775.872 5574.59 777.524 5572.58 777.552L5572.57 777.552C5570.56 777.581 5568.91 775.975 5568.88 773.966 5568.86 771.957 5570.46 770.306 5572.47 770.277ZM5587.03 770.074 5587.03 770.074C5589.04 770.046 5590.69 771.651 5590.72 773.66 5590.75 775.669 5589.15 777.32 5587.14 777.349L5587.13 777.349C5585.12 777.377 5583.47 775.771 5583.44 773.763 5583.41 771.754 5585.02 770.102 5587.03 770.074ZM5601.58 769.87 5601.59 769.87C5603.6 769.842 5605.25 771.448 5605.28 773.457 5605.31 775.466 5603.7 777.117 5601.69 777.145L5601.69 777.145C5599.68 777.174 5598.03 775.568 5598 773.559 5597.97 771.55 5599.58 769.899 5601.58 769.87ZM5616.14 769.667 5616.15 769.667C5618.16 769.639 5619.81 771.244 5619.84 773.253 5619.87 775.262 5618.26 776.914 5616.25 776.942L5616.24 776.942C5614.23 776.97 5612.58 775.365 5612.55 773.356 5612.53 771.347 5614.13 769.695 5616.14 769.667ZM5630.71 769.483 5630.71 769.483C5632.72 769.459 5634.37 771.068 5634.39 773.077 5634.42 775.086 5632.81 776.734 5630.8 776.758L5630.79 776.758C5628.78 776.783 5627.14 775.174 5627.11 773.165 5627.09 771.156 5628.7 769.508 5630.71 769.483ZM5645.26 769.307 5645.27 769.307C5647.28 769.283 5648.93 770.892 5648.95 772.901 5648.98 774.91 5647.37 776.558 5645.36 776.582L5645.35 776.583C5643.34 776.607 5641.69 774.998 5641.67 772.989 5641.65 770.98 5643.25 769.332 5645.26 769.307ZM5659.82 769.132 5659.83 769.132C5661.84 769.107 5663.48 770.716 5663.51 772.725 5663.53 774.734 5661.92 776.382 5659.92 776.407L5659.91 776.407C5657.9 776.431 5656.25 774.822 5656.23 772.813 5656.2 770.804 5657.81 769.156 5659.82 769.132ZM5674.38 768.956 5674.38 768.956C5676.39 768.932 5678.04 770.54 5678.07 772.549 5678.09 774.558 5676.48 776.207 5674.47 776.231L5674.47 776.231C5672.46 776.255 5670.81 774.646 5670.78 772.638 5670.76 770.629 5672.37 768.98 5674.38 768.956ZM5688.94 768.78 5688.94 768.78C5690.95 768.756 5692.6 770.365 5692.62 772.374 5692.65 774.383 5691.04 776.031 5689.03 776.055L5689.02 776.055C5687.01 776.08 5685.37 774.471 5685.34 772.462 5685.32 770.453 5686.93 768.805 5688.94 768.78ZM5703.49 768.604 5703.5 768.604C5705.51 768.58 5707.16 770.189 5707.18 772.198 5707.21 774.207 5705.6 775.855 5703.59 775.879L5703.58 775.88C5701.57 775.904 5699.92 774.295 5699.9 772.286 5699.87 770.277 5701.48 768.629 5703.49 768.604ZM5718.07 768.478 5718.08 768.478C5720.09 768.466 5721.73 770.086 5721.74 772.095 5721.75 774.104 5720.13 775.742 5718.12 775.754L5718.12 775.754C5716.11 775.766 5714.47 774.146 5714.46 772.137 5714.44 770.128 5716.06 768.49 5718.07 768.478ZM5732.63 768.393 5732.64 768.393C5734.65 768.381 5736.29 770 5736.3 772.009 5736.31 774.018 5734.69 775.656 5732.68 775.668L5732.67 775.668C5730.67 775.68 5729.03 774.061 5729.01 772.052 5729 770.043 5730.62 768.404 5732.63 768.393ZM5747.19 768.307 5747.2 768.307C5749.21 768.295 5750.84 769.914 5750.86 771.923 5750.87 773.932 5749.25 775.571 5747.24 775.582L5747.23 775.582C5745.22 775.594 5743.58 773.975 5743.57 771.966 5743.56 769.957 5745.18 768.319 5747.19 768.307ZM5761.75 768.221 5761.75 768.221C5763.76 768.21 5765.4 769.829 5765.41 771.838 5765.43 773.847 5763.81 775.485 5761.8 775.497L5761.79 775.497C5759.78 775.509 5758.14 773.889 5758.13 771.88 5758.12 769.871 5759.74 768.233 5761.75 768.221ZM5776.31 768.136 5776.31 768.136C5778.32 768.124 5779.96 769.743 5779.97 771.752 5779.98 773.761 5778.36 775.399 5776.36 775.411L5776.35 775.411C5774.34 775.423 5772.7 773.804 5772.69 771.795 5772.68 769.786 5774.3 768.147 5776.31 768.136ZM5790.86 768.05 5790.87 768.05C5792.88 768.038 5794.52 769.657 5794.53 771.666 5794.54 773.675 5792.92 775.314 5790.91 775.326L5790.91 775.326C5788.9 775.337 5787.26 773.718 5787.25 771.709 5787.24 769.7 5788.85 768.062 5790.86 768.05ZM5805.45 768.014 5805.46 768.014C5807.47 768.019 5809.09 769.652 5809.09 771.662 5809.08 773.671 5807.45 775.295 5805.44 775.289L5805.43 775.289C5803.42 775.284 5801.8 773.651 5801.81 771.642 5801.81 769.633 5803.44 768.008 5805.45 768.014ZM5820.01 768.055 5820.02 768.055C5822.03 768.06 5823.65 769.693 5823.65 771.702 5823.64 773.711 5822.01 775.336 5820 775.33L5819.99 775.33C5817.98 775.325 5816.36 773.692 5816.36 771.682 5816.37 769.673 5818 768.049 5820.01 768.055ZM5834.57 768.095 5834.58 768.095C5836.59 768.101 5838.21 769.734 5838.21 771.743 5838.2 773.752 5836.57 775.377 5834.56 775.371L5834.55 775.371C5832.54 775.365 5830.92 773.732 5830.92 771.723 5830.93 769.714 5832.56 768.09 5834.57 768.095ZM5849.13 768.136 5849.14 768.136C5851.15 768.142 5852.77 769.775 5852.76 771.784 5852.76 773.793 5851.13 775.417 5849.12 775.412L5849.11 775.412C5847.1 775.406 5845.48 773.773 5845.48 771.764 5845.49 769.755 5847.12 768.131 5849.13 768.136ZM5863.69 768.177 5863.69 768.177C5865.7 768.183 5867.33 769.816 5867.32 771.825 5867.32 773.834 5865.68 775.458 5863.67 775.453L5863.67 775.453C5861.66 775.447 5860.03 773.814 5860.04 771.805 5860.04 769.796 5861.68 768.172 5863.69 768.177ZM5878.25 768.218 5878.25 768.218C5880.26 768.223 5881.89 769.857 5881.88 771.866 5881.88 773.875 5880.24 775.499 5878.23 775.493L5878.23 775.493C5876.22 775.488 5874.59 773.855 5874.6 771.846 5874.6 769.837 5876.24 768.212 5878.25 768.218ZM5892.83 768.279 5892.83 768.279C5894.84 768.297 5896.46 769.939 5896.44 771.948 5896.42 773.957 5894.78 775.572 5892.77 775.554L5892.76 775.554C5890.75 775.536 5889.14 773.893 5889.16 771.884 5889.17 769.875 5890.82 768.261 5892.83 768.279ZM5907.38 768.406 5907.39 768.406C5909.4 768.424 5911.01 770.067 5911 772.076 5910.98 774.085 5909.34 775.699 5907.33 775.682L5907.32 775.682C5905.31 775.664 5903.7 774.021 5903.71 772.012 5903.73 770.003 5905.38 768.389 5907.38 768.406ZM5921.94 768.534 5921.95 768.534C5923.96 768.551 5925.57 770.194 5925.55 772.203 5925.54 774.212 5923.89 775.827 5921.88 775.809L5921.88 775.809C5919.87 775.791 5918.25 774.148 5918.27 772.139 5918.29 770.13 5919.93 768.516 5921.94 768.534ZM5936.5 768.661 5936.51 768.661C5938.52 768.679 5940.13 770.322 5940.11 772.331 5940.09 774.34 5938.45 775.954 5936.44 775.936L5936.44 775.936C5934.43 775.919 5932.81 774.276 5932.83 772.267 5932.85 770.258 5934.49 768.643 5936.5 768.661ZM5951.06 768.789 5951.06 768.789C5953.07 768.806 5954.69 770.449 5954.67 772.458 5954.65 774.467 5953.01 776.082 5951 776.064L5950.99 776.064C5948.98 776.046 5947.37 774.403 5947.39 772.394 5947.41 770.385 5949.05 768.771 5951.06 768.789ZM5965.62 768.916 5965.62 768.916C5967.63 768.934 5969.25 770.577 5969.23 772.586 5969.21 774.595 5967.57 776.209 5965.56 776.191L5965.55 776.191C5963.54 776.174 5961.93 774.531 5961.95 772.522 5961.96 770.513 5963.61 768.898 5965.62 768.916ZM5980.18 769.046 5980.19 769.046C5982.2 769.068 5983.81 770.715 5983.79 772.724 5983.76 774.733 5982.12 776.344 5980.11 776.321L5980.1 776.321 5980.1 776.321C5978.09 776.299 5976.48 774.652 5976.5 772.643 5976.53 770.634 5978.17 769.024 5980.18 769.046ZM5994.74 769.208 5994.75 769.208C5996.76 769.231 5998.37 770.877 5998.34 772.886 5998.32 774.895 5996.67 776.506 5994.67 776.483L5994.66 776.483C5992.65 776.461 5991.04 774.814 5991.06 772.805 5991.08 770.796 5992.73 769.186 5994.74 769.208ZM6009.3 769.37 6009.3 769.37C6011.31 769.393 6012.92 771.039 6012.9 773.048 6012.88 775.057 6011.23 776.668 6009.22 776.645L6009.22 776.645 6009.22 776.645C6007.21 776.623 6005.6 774.976 6005.62 772.967 6005.64 770.958 6007.29 769.348 6009.3 769.37ZM6023.85 769.532 6023.86 769.532C6025.87 769.555 6027.48 771.202 6027.46 773.211 6027.44 775.22 6025.79 776.83 6023.78 776.807L6023.77 776.807C6021.76 776.785 6020.15 775.138 6020.18 773.129 6020.2 771.12 6021.85 769.51 6023.85 769.532ZM6038.41 769.694 6038.42 769.694C6040.43 769.717 6042.04 771.364 6042.02 773.373 6041.99 775.382 6040.35 776.992 6038.34 776.97L6038.33 776.969C6036.32 776.947 6034.71 775.3 6034.73 773.291 6034.76 771.282 6036.4 769.672 6038.41 769.694ZM6052.97 769.856 6052.98 769.857C6054.99 769.879 6056.6 771.526 6056.57 773.535 6056.55 775.544 6054.9 777.154 6052.9 777.132L6052.89 777.132C6050.88 777.109 6049.27 775.462 6049.29 773.453 6049.31 771.444 6050.96 769.834 6052.97 769.856ZM6067.53 770.019 6067.54 770.019C6069.54 770.041 6071.15 771.688 6071.13 773.697 6071.11 775.706 6069.46 777.317 6067.45 777.294L6067.45 777.294C6065.44 777.271 6063.83 775.624 6063.85 773.615 6063.87 771.606 6065.52 769.996 6067.53 770.019ZM6082.08 770.165 6082.09 770.165C6084.1 770.185 6085.71 771.831 6085.69 773.839 6085.67 775.849 6084.02 777.461 6082.01 777.44L6082.01 777.44C6080 777.42 6078.39 775.775 6078.41 773.766 6078.43 771.757 6080.07 770.144 6082.08 770.165ZM6096.64 770.31 6096.65 770.31C6098.66 770.33 6100.27 771.975 6100.25 773.984 6100.23 775.993 6098.58 777.605 6096.57 777.585L6096.56 777.585C6094.56 777.564 6092.94 775.919 6092.96 773.91 6092.98 771.901 6094.63 770.289 6096.64 770.31ZM6111.2 770.454 6111.2 770.455C6113.21 770.475 6114.83 772.12 6114.8 774.129 6114.78 776.138 6113.14 777.75 6111.13 777.73L6111.12 777.73C6109.11 777.709 6107.5 776.064 6107.52 774.055 6107.54 772.046 6109.19 770.434 6111.2 770.454ZM6125.75 770.599 6125.76 770.599C6127.77 770.62 6129.38 772.265 6129.36 774.274 6129.34 776.283 6127.7 777.895 6125.69 777.875L6125.68 777.874C6123.67 777.854 6122.06 776.209 6122.08 774.2 6122.1 772.191 6123.75 770.579 6125.75 770.599ZM6140.31 770.744 6140.32 770.744C6142.33 770.764 6143.94 772.41 6143.92 774.419 6143.9 776.428 6142.25 778.04 6140.25 778.019L6140.24 778.019C6138.23 777.999 6136.62 776.354 6136.64 774.345 6136.66 772.336 6138.3 770.724 6140.31 770.744ZM6154.87 770.889 6154.88 770.889C6156.89 770.909 6158.5 772.554 6158.48 774.563 6158.46 776.572 6156.81 778.184 6154.8 778.164L6154.8 778.164C6152.79 778.144 6151.17 776.498 6151.2 774.489 6151.22 772.48 6152.86 770.868 6154.87 770.889Z" fill="#FFC000" fill-rule="nonzero" fill-opacity="1"/></g><g><text fill="#000000" fill-opacity="1" font-family="Calibri,Calibri_MSFontService,sans-serif" font-style="normal" font-variant="normal" font-weight="400" font-stretch="normal" font-size="46" text-anchor="start" direction="ltr" writing-mode="lr-tb" unicode-bidi="normal" text-decoration="none" transform="matrix(1 0 0 1 2985.72 2303)">0.00</text></g><g><text fill="#000000" fill-opacity="1" font-family="Calibri,Calibri_MSFontService,sans-serif" font-style="normal" font-variant="normal" font-weight="400" font-stretch="normal" font-size="46" text-anchor="start" direction="ltr" writing-mode="lr-tb" unicode-bidi="normal" text-decoration="none" transform="matrix(1 0 0 1 2904.76 2067)">2,000.00</text></g><g><text fill="#000000" fill-opacity="1" font-family="Calibri,Calibri_MSFontService,sans-serif" font-style="normal" font-variant="normal" font-weight="400" font-stretch="normal" font-size="46" text-anchor="start" direction="ltr" writing-mode="lr-tb" unicode-bidi="normal" text-decoration="none" transform="matrix(1 0 0 1 2904.76 1831)">4,000.00</text></g><g><text fill="#000000" fill-opacity="1" font-family="Calibri,Calibri_MSFontService,sans-serif" font-style="normal" font-variant="normal" font-weight="400" font-stretch="normal" font-size="46" text-anchor="start" direction="ltr" writing-mode="lr-tb" unicode-bidi="normal" text-decoration="none" transform="matrix(1 0 0 1 2904.76 1595)">6,000.00</text></g><g><text fill="#000000" fill-opacity="1" font-family="Calibri,Calibri_MSFontService,sans-serif" font-style="normal" font-variant="normal" font-weight="400" font-stretch="normal" font-size="46" text-anchor="start" direction="ltr" writing-mode="lr-tb" unicode-bidi="normal" text-decoration="none" transform="matrix(1 0 0 1 2904.76 1359)">8,000.00</text></g><g><text fill="#000000" fill-opacity="1" font-family="Calibri,Calibri_MSFontService,sans-serif" font-style="normal" font-variant="normal" font-weight="400" font-stretch="normal" font-size="46" text-anchor="start" direction="ltr" writing-mode="lr-tb" unicode-bidi="normal" text-decoration="none" transform="matrix(1 0 0 1 2881.56 1124)">10,000.00</text></g><g><text fill="#000000" fill-opacity="1" font-family="Calibri,Calibri_MSFontService,sans-serif" font-style="normal" font-variant="normal" font-weight="400" font-stretch="normal" font-size="46" text-anchor="start" direction="ltr" writing-mode="lr-tb" unicode-bidi="normal" text-decoration="none" transform="matrix(1 0 0 1 2881.56 888)">12,000.00</text></g><g><text fill="#000000" fill-opacity="1" font-family="Calibri,Calibri_MSFontService,sans-serif" font-style="normal" font-variant="normal" font-weight="400" font-stretch="normal" font-size="46" text-anchor="start" direction="ltr" writing-mode="lr-tb" unicode-bidi="normal" text-decoration="none" transform="matrix(1 0 0 1 2881.56 652)">14,000.00</text></g><g><text fill="#000000" fill-opacity="1" font-family="Calibri,Calibri_MSFontService,sans-serif" font-style="normal" font-variant="normal" font-weight="400" font-stretch="normal" font-size="46" text-anchor="start" direction="ltr" writing-mode="lr-tb" unicode-bidi="normal" text-decoration="none" transform="matrix(1 0 0 1 3266.61 2364)">S1</text></g><g><text fill="#000000" fill-opacity="1" font-family="Calibri,Calibri_MSFontService,sans-serif" font-style="normal" font-variant="normal" font-weight="400" font-stretch="normal" font-size="46" text-anchor="start" direction="ltr" writing-mode="lr-tb" unicode-bidi="normal" text-decoration="none" transform="matrix(1 0 0 1 3625.37 2364)">S2</text></g><g><text fill="#000000" fill-opacity="1" font-family="Calibri,Calibri_MSFontService,sans-serif" font-style="normal" font-variant="normal" font-weight="400" font-stretch="normal" font-size="46" text-anchor="start" direction="ltr" writing-mode="lr-tb" unicode-bidi="normal" text-decoration="none" transform="matrix(1 0 0 1 3984.13 2364)">S3</text></g><g><text fill="#000000" fill-opacity="1" font-family="Calibri,Calibri_MSFontService,sans-serif" font-style="normal" font-variant="normal" font-weight="400" font-stretch="normal" font-size="46" text-anchor="start" direction="ltr" writing-mode="lr-tb" unicode-bidi="normal" text-decoration="none" transform="matrix(1 0 0 1 4342.89 2364)">S4</text></g><g><text fill="#000000" fill-opacity="1" font-family="Calibri,Calibri_MSFontService,sans-serif" font-style="normal" font-variant="normal" font-weight="400" font-stretch="normal" font-size="46" text-anchor="start" direction="ltr" writing-mode="lr-tb" unicode-bidi="normal" text-decoration="none" transform="matrix(1 0 0 1 4701.65 2364)">S5</text></g><g><text fill="#000000" fill-opacity="1" font-family="Calibri,Calibri_MSFontService,sans-serif" font-style="normal" font-variant="normal" font-weight="400" font-stretch="normal" font-size="46" text-anchor="start" direction="ltr" writing-mode="lr-tb" unicode-bidi="normal" text-decoration="none" transform="matrix(1 0 0 1 5060.41 2364)">S6</text></g><g><text fill="#000000" fill-opacity="1" font-family="Calibri,Calibri_MSFontService,sans-serif" font-style="normal" font-variant="normal" font-weight="400" font-stretch="normal" font-size="46" text-anchor="start" direction="ltr" writing-mode="lr-tb" unicode-bidi="normal" text-decoration="none" transform="matrix(1 0 0 1 5419.17 2364)">S7</text></g><g><text fill="#000000" fill-opacity="1" font-family="Calibri,Calibri_MSFontService,sans-serif" font-style="normal" font-variant="normal" font-weight="400" font-stretch="normal" font-size="46" text-anchor="start" direction="ltr" writing-mode="lr-tb" unicode-bidi="normal" text-decoration="none" transform="matrix(1 0 0 1 5777.92 2364)">S8</text></g><g><text fill="#000000" fill-opacity="1" font-family="Calibri,Calibri_MSFontService,sans-serif" font-style="normal" font-variant="normal" font-weight="400" font-stretch="normal" font-size="46" text-anchor="start" direction="ltr" writing-mode="lr-tb" unicode-bidi="normal" text-decoration="none" transform="matrix(1 0 0 1 6136.68 2364)">S9</text></g><g><text fill="#000000" fill-opacity="1" font-family="Calibri,Calibri_MSFontService,sans-serif" font-style="normal" font-variant="normal" font-weight="700" font-stretch="normal" font-size="46" text-anchor="start" direction="ltr" writing-mode="lr-tb" unicode-bidi="normal" text-decoration="none" transform="matrix(6.12323e-17 -1 1 6.12323e-17 2855.87 1540)">Euro ()</text></g><g><text fill="#000000" fill-opacity="1" font-family="Calibri,Calibri_MSFontService,sans-serif" font-style="normal" font-variant="normal" font-weight="700" font-stretch="normal" font-size="83" text-anchor="start" direction="ltr" writing-mode="lr-tb" unicode-bidi="normal" text-decoration="none" transform="matrix(1 0 0 1 4521.19 578)">AC e ETC </text></g><g><path d="M4098.5 2447.5 4214.5 2447.5" stroke="#4472C4" stroke-width="8.96457" stroke-linecap="round" stroke-linejoin="round" stroke-miterlimit="10" stroke-opacity="1" fill="none" fill-rule="evenodd"/></g><g><text fill="#000000" fill-opacity="1" font-family="Calibri,Calibri_MSFontService,sans-serif" font-style="normal" font-variant="normal" font-weight="400" font-stretch="normal" font-size="46" text-anchor="start" direction="ltr" writing-mode="lr-tb" unicode-bidi="normal" text-decoration="none" transform="matrix(1 0 0 1 4226.97 2459)">AC acc. ()</text></g><g><path d="M4482.5 2447.5 4597.5 2447.5" stroke="#E74C3C" stroke-width="8.96457" stroke-linecap="round" stroke-linejoin="round" stroke-miterlimit="10" stroke-opacity="1" fill="none" fill-rule="evenodd"/></g><g><text fill="#000000" fill-opacity="1" font-family="Calibri,Calibri_MSFontService,sans-serif" font-style="normal" font-variant="normal" font-weight="400" font-stretch="normal" font-size="46" text-anchor="start" direction="ltr" writing-mode="lr-tb" unicode-bidi="normal" text-decoration="none" transform="matrix(1 0 0 1 4610.43 2459)">ETC ()</text></g><g><path d="M4801.5 2443.86 4801.51 2443.86C4803.52 2443.86 4805.15 2445.49 4805.15 2447.5 4805.15 2449.51 4803.52 2451.14 4801.51 2451.14L4801.5 2451.14C4799.49 2451.14 4797.86 2449.51 4797.86 2447.5 4797.86 2445.49 4799.49 2443.86 4801.5 2443.86ZM4816.06 2443.86 4816.07 2443.86C4818.07 2443.86 4819.7 2445.49 4819.7 2447.5 4819.7 2449.51 4818.07 2451.14 4816.07 2451.14L4816.06 2451.14C4814.05 2451.14 4812.42 2449.51 4812.42 2447.5 4812.42 2445.49 4814.05 2443.86 4816.06 2443.86ZM4830.62 2443.86 4830.62 2443.86C4832.63 2443.86 4834.26 2445.49 4834.26 2447.5 4834.26 2449.51 4832.63 2451.14 4830.62 2451.14L4830.62 2451.14C4828.61 2451.14 4826.98 2449.51 4826.98 2447.5 4826.98 2445.49 4828.61 2443.86 4830.62 2443.86ZM4845.18 2443.86 4845.18 2443.86C4847.19 2443.86 4848.82 2445.49 4848.82 2447.5 4848.82 2449.51 4847.19 2451.14 4845.18 2451.14L4845.18 2451.14C4843.17 2451.14 4841.54 2449.51 4841.54 2447.5 4841.54 2445.49 4843.17 2443.86 4845.18 2443.86ZM4859.73 2443.86 4859.74 2443.86C4861.75 2443.86 4863.38 2445.49 4863.38 2447.5 4863.38 2449.51 4861.75 2451.14 4859.74 2451.14L4859.73 2451.14C4857.72 2451.14 4856.1 2449.51 4856.1 2447.5 4856.1 2445.49 4857.72 2443.86 4859.73 2443.86ZM4874.29 2443.86 4874.3 2443.86C4876.31 2443.86 4877.94 2445.49 4877.94 2447.5 4877.94 2449.51 4876.31 2451.14 4874.3 2451.14L4874.29 2451.14C4872.28 2451.14 4870.65 2449.51 4870.65 2447.5 4870.65 2445.49 4872.28 2443.86 4874.29 2443.86ZM4888.85 2443.86 4888.86 2443.86C4890.87 2443.86 4892.5 2445.49 4892.5 2447.5 4892.5 2449.51 4890.87 2451.14 4888.86 2451.14L4888.85 2451.14C4886.84 2451.14 4885.21 2449.51 4885.21 2447.5 4885.21 2445.49 4886.84 2443.86 4888.85 2443.86ZM4903.41 2443.86 4903.42 2443.86C4905.43 2443.86 4907.05 2445.49 4907.05 2447.5 4907.05 2449.51 4905.43 2451.14 4903.42 2451.14L4903.41 2451.14C4901.4 2451.14 4899.77 2449.51 4899.77 2447.5 4899.77 2445.49 4901.4 2443.86 4903.41 2443.86Z" fill="#FFC000" fill-rule="nonzero" fill-opacity="1"/></g><g><text fill="#000000" fill-opacity="1" font-family="Calibri,Calibri_MSFontService,sans-serif" font-style="normal" font-variant="normal" font-weight="400" font-stretch="normal" font-size="46" text-anchor="start" direction="ltr" writing-mode="lr-tb" unicode-bidi="normal" text-decoration="none" transform="matrix(1 0 0 1 4929.62 2459)">EAC ()</text></g><rect x="2755.5" y="447.5" width="3634" height="2069" stroke="#D9D9D9" stroke-width="3.37795" stroke-linecap="butt" stroke-linejoin="round" stroke-miterlimit="10" stroke-opacity="1" fill="none"/></g></g></svg>