<svg width="3644" height="2072" xmlns="http://www.w3.org/2000/svg" xmlns:xlink="http://www.w3.org/1999/xlink" xml:space="preserve" overflow="hidden"><defs><clipPath id="clip0"><rect x="3125" y="238" width="3644" height="2072"/></clipPath><clipPath id="clip1"><rect x="3125" y="238" width="3644" height="2072"/></clipPath></defs><g clip-path="url(#clip0)" transform="translate(-3125 -238)"><g clip-path="url(#clip1)"><rect x="3130" y="240" width="3636" height="2067" fill="#FFFFFF" fill-opacity="1"/><g><path d="M3441.5 2145.5 6715.5 2145.5M3441.5 1974.56 6715.5 1974.56M3441.5 1802.56 6715.5 1802.56M3441.5 1631.55 6715.5 1631.55M3441.5 1460.55 6715.5 1460.55M3441.5 1117.54 6715.5 1117.54M3441.5 946.531 6715.5 946.531M3441.5 775.526 6715.5 775.526M3441.5 603.52 6715.5 603.52M3441.5 432.5 6715.5 432.5" stroke="#878787" stroke-width="3.37795" stroke-linecap="butt" stroke-linejoin="round" stroke-miterlimit="10" stroke-opacity="1" fill="none" fill-rule="nonzero"/></g><g><path d="M3519.62 1269.54 3623.62 1269.54 3623.62 1288.54 3519.62 1288.54ZM4246.64 1340.54 4350.64 1340.54 4350.64 1288.54 4246.64 1288.54ZM4974.66 1117.54 5078.67 1117.54 5078.67 1288.54 4974.66 1288.54ZM5338.68 1275.54 5442.68 1275.54 5442.68 1288.54 5338.68 1288.54ZM6065.7 1296.54 6169.7 1296.54 6169.7 1288.54 6065.7 1288.54ZM6429.71 1183.54 6533.71 1183.54 6533.71 1288.54 6429.71 1288.54Z" stroke="#F9F9F9" stroke-width="3.37795" stroke-linecap="butt" stroke-linejoin="round" stroke-miterlimit="10" stroke-opacity="1" fill="#70AD47" fill-rule="nonzero" fill-opacity="1"/></g><g><path d="M3623.62 1911.56 3727.62 1911.56 3727.62 1288.54 3623.62 1288.54ZM4350.64 1083.54 4454.65 1083.54 4454.65 1288.54 4350.64 1288.54ZM5078.67 860.528 5182.67 860.528 5182.67 1288.54 5078.67 1288.54ZM5442.68 1104.54 5546.68 1104.54 5546.68 1288.54 5442.68 1288.54ZM6169.7 653.522 6273.71 653.522 6273.71 1288.54 6169.7 1288.54ZM6533.71 1739.56 6637.72 1739.56 6637.72 1288.54 6533.71 1288.54Z" stroke="#F9F9F9" stroke-width="3.37795" stroke-linecap="butt" stroke-linejoin="round" stroke-miterlimit="10" stroke-opacity="1" fill="#9B59B6" fill-rule="nonzero" fill-opacity="1"/></g><g><path d="M0 0 0.000360892 1713" stroke="#878787" stroke-width="3.37795" stroke-linecap="butt" stroke-linejoin="round" stroke-miterlimit="10" stroke-opacity="1" fill="none" fill-rule="evenodd" transform="matrix(1 0 0 -1 3441.5 2145.5)"/></g><g><path d="M3441.5 1289.5 6715.5 1289.5" stroke="#878787" stroke-width="3.37795" stroke-linecap="butt" stroke-linejoin="round" stroke-miterlimit="10" stroke-opacity="1" fill="none" fill-rule="evenodd"/></g><g><path d="M3623 1285.75 3642.49 1285.75C3644.28 1285.75 3645.74 1287.21 3645.74 1289 3645.74 1290.79 3644.28 1292.25 3642.49 1292.25L3623 1292.25C3621.21 1292.25 3619.75 1290.79 3619.75 1289 3619.75 1287.21 3621.21 1285.75 3623 1285.75ZM3668.47 1285.75 3687.96 1285.75C3689.75 1285.75 3691.21 1287.21 3691.21 1289 3691.21 1290.79 3689.75 1292.25 3687.96 1292.25L3668.47 1292.25C3666.68 1292.25 3665.22 1290.79 3665.22 1289 3665.22 1287.21 3666.68 1285.75 3668.47 1285.75ZM3713.95 1285.75 3733.43 1285.75C3735.23 1285.75 3736.68 1287.21 3736.68 1289 3736.68 1290.79 3735.23 1292.25 3733.43 1292.25L3713.95 1292.25C3712.15 1292.25 3710.7 1290.79 3710.7 1289 3710.7 1287.21 3712.15 1285.75 3713.95 1285.75ZM3759.42 1285.75 3778.91 1285.75C3780.7 1285.75 3782.15 1287.21 3782.15 1289 3782.15 1290.79 3780.7 1292.25 3778.91 1292.25L3759.42 1292.25C3757.62 1292.25 3756.17 1290.79 3756.17 1289 3756.17 1287.21 3757.62 1285.75 3759.42 1285.75ZM3804.89 1285.75 3824.38 1285.75C3826.17 1285.75 3827.63 1287.21 3827.63 1289 3827.63 1290.79 3826.17 1292.25 3824.38 1292.25L3804.89 1292.25C3803.1 1292.25 3801.64 1290.79 3801.64 1289 3801.64 1287.21 3803.1 1285.75 3804.89 1285.75ZM3850.36 1285.75 3869.85 1285.75C3871.64 1285.75 3873.1 1287.21 3873.1 1289 3873.1 1290.79 3871.64 1292.25 3869.85 1292.25L3850.36 1292.25C3848.57 1292.25 3847.11 1290.79 3847.11 1289 3847.11 1287.21 3848.57 1285.75 3850.36 1285.75ZM3895.83 1285.75 3915.32 1285.75C3917.12 1285.75 3918.57 1287.21 3918.57 1289 3918.57 1290.79 3917.12 1292.25 3915.32 1292.25L3895.83 1292.25C3894.04 1292.25 3892.59 1290.79 3892.59 1289 3892.59 1287.21 3894.04 1285.75 3895.83 1285.75ZM3941.31 1285.75 3960.8 1285.75C3962.59 1285.75 3964.04 1287.21 3964.04 1289 3964.04 1290.79 3962.59 1292.25 3960.8 1292.25L3941.31 1292.25C3939.51 1292.25 3938.06 1290.79 3938.06 1289 3938.06 1287.21 3939.51 1285.75 3941.31 1285.75ZM3986.78 1285.75 3986.88 1285.75 4006.27 1285.75C4008.06 1285.75 4009.52 1287.21 4009.52 1289 4009.52 1290.79 4008.06 1292.25 4006.27 1292.25L3986.88 1292.25 3986.78 1292.25C3984.99 1292.25 3983.53 1290.79 3983.53 1289 3983.53 1287.21 3984.99 1285.75 3986.78 1285.75ZM4032.25 1285.75 4051.74 1285.75C4053.53 1285.75 4054.99 1287.21 4054.99 1289 4054.99 1290.79 4053.53 1292.25 4051.74 1292.25L4032.25 1292.25C4030.46 1292.25 4029 1290.79 4029 1289 4029 1287.21 4030.46 1285.75 4032.25 1285.75ZM4077.72 1285.75 4097.21 1285.75C4099.01 1285.75 4100.46 1287.21 4100.46 1289 4100.46 1290.79 4099.01 1292.25 4097.21 1292.25L4077.72 1292.25C4075.93 1292.25 4074.48 1290.79 4074.48 1289 4074.48 1287.21 4075.93 1285.75 4077.72 1285.75ZM4123.2 1285.75 4142.69 1285.75C4144.48 1285.75 4145.93 1287.21 4145.93 1289 4145.93 1290.79 4144.48 1292.25 4142.69 1292.25L4123.2 1292.25C4121.4 1292.25 4119.95 1290.79 4119.95 1289 4119.95 1287.21 4121.4 1285.75 4123.2 1285.75ZM4168.67 1285.75 4188.16 1285.75C4189.95 1285.75 4191.41 1287.21 4191.41 1289 4191.41 1290.79 4189.95 1292.25 4188.16 1292.25L4168.67 1292.25C4166.88 1292.25 4165.42 1290.79 4165.42 1289 4165.42 1287.21 4166.88 1285.75 4168.67 1285.75ZM4214.14 1285.75 4233.63 1285.75C4235.42 1285.75 4236.88 1287.21 4236.88 1289 4236.88 1290.79 4235.42 1292.25 4233.63 1292.25L4214.14 1292.25C4212.35 1292.25 4210.89 1290.79 4210.89 1289 4210.89 1287.21 4212.35 1285.75 4214.14 1285.75ZM4259.61 1285.75 4279.1 1285.75C4280.9 1285.75 4282.35 1287.21 4282.35 1289 4282.35 1290.79 4280.9 1292.25 4279.1 1292.25L4259.61 1292.25C4257.82 1292.25 4256.37 1290.79 4256.37 1289 4256.37 1287.21 4257.82 1285.75 4259.61 1285.75ZM4305.09 1285.75 4324.58 1285.75C4326.37 1285.75 4327.82 1287.21 4327.82 1289 4327.82 1290.79 4326.37 1292.25 4324.58 1292.25L4305.09 1292.25C4303.29 1292.25 4301.84 1290.79 4301.84 1289 4301.84 1287.21 4303.29 1285.75 4305.09 1285.75ZM4350.56 1285.75 4350.75 1285.75 4370.05 1285.75C4371.84 1285.75 4373.3 1287.21 4373.3 1289 4373.3 1290.79 4371.84 1292.25 4370.05 1292.25L4350.75 1292.25 4350.56 1292.25C4348.77 1292.25 4347.31 1290.79 4347.31 1289 4347.31 1287.21 4348.77 1285.75 4350.56 1285.75ZM4396.03 1285.75 4415.52 1285.75C4417.31 1285.75 4418.77 1287.21 4418.77 1289 4418.77 1290.79 4417.31 1292.25 4415.52 1292.25L4396.03 1292.25C4394.24 1292.25 4392.78 1290.79 4392.78 1289 4392.78 1287.21 4394.24 1285.75 4396.03 1285.75ZM4441.5 1285.75 4460.99 1285.75C4462.79 1285.75 4464.24 1287.21 4464.24 1289 4464.24 1290.79 4462.79 1292.25 4460.99 1292.25L4441.5 1292.25C4439.71 1292.25 4438.26 1290.79 4438.26 1289 4438.26 1287.21 4439.71 1285.75 4441.5 1285.75ZM4486.98 1285.75 4506.46 1285.75C4508.26 1285.75 4509.71 1287.21 4509.71 1289 4509.71 1290.79 4508.26 1292.25 4506.46 1292.25L4486.98 1292.25C4485.18 1292.25 4483.73 1290.79 4483.73 1289 4483.73 1287.21 4485.18 1285.75 4486.98 1285.75ZM4532.45 1285.75 4551.94 1285.75C4553.73 1285.75 4555.19 1287.21 4555.19 1289 4555.19 1290.79 4553.73 1292.25 4551.94 1292.25L4532.45 1292.25C4530.66 1292.25 4529.2 1290.79 4529.2 1289 4529.2 1287.21 4530.66 1285.75 4532.45 1285.75ZM4577.92 1285.75 4597.41 1285.75C4599.2 1285.75 4600.66 1287.21 4600.66 1289 4600.66 1290.79 4599.2 1292.25 4597.41 1292.25L4577.92 1292.25C4576.13 1292.25 4574.67 1290.79 4574.67 1289 4574.67 1287.21 4576.13 1285.75 4577.92 1285.75ZM4623.39 1285.75 4642.88 1285.75C4644.68 1285.75 4646.13 1287.21 4646.13 1289 4646.13 1290.79 4644.68 1292.25 4642.88 1292.25L4623.39 1292.25C4621.6 1292.25 4620.15 1290.79 4620.15 1289 4620.15 1287.21 4621.6 1285.75 4623.39 1285.75ZM4668.87 1285.75 4688.35 1285.75C4690.15 1285.75 4691.6 1287.21 4691.6 1289 4691.6 1290.79 4690.15 1292.25 4688.35 1292.25L4668.87 1292.25C4667.07 1292.25 4665.62 1290.79 4665.62 1289 4665.62 1287.21 4667.07 1285.75 4668.87 1285.75ZM4714.34 1285.75 4714.62 1285.75 4733.83 1285.75C4735.62 1285.75 4737.08 1287.21 4737.08 1289 4737.08 1290.79 4735.62 1292.25 4733.83 1292.25L4714.62 1292.25 4714.34 1292.25C4712.54 1292.25 4711.09 1290.79 4711.09 1289 4711.09 1287.21 4712.54 1285.75 4714.34 1285.75ZM4759.81 1285.75 4779.3 1285.75C4781.09 1285.75 4782.55 1287.21 4782.55 1289 4782.55 1290.79 4781.09 1292.25 4779.3 1292.25L4759.81 1292.25C4758.02 1292.25 4756.56 1290.79 4756.56 1289 4756.56 1287.21 4758.02 1285.75 4759.81 1285.75ZM4805.28 1285.75 4824.77 1285.75C4826.57 1285.75 4828.02 1287.21 4828.02 1289 4828.02 1290.79 4826.57 1292.25 4824.77 1292.25L4805.28 1292.25C4803.49 1292.25 4802.04 1290.79 4802.04 1289 4802.04 1287.21 4803.49 1285.75 4805.28 1285.75ZM4850.76 1285.75 4870.24 1285.75C4872.04 1285.75 4873.49 1287.21 4873.49 1289 4873.49 1290.79 4872.04 1292.25 4870.24 1292.25L4850.76 1292.25C4848.96 1292.25 4847.51 1290.79 4847.51 1289 4847.51 1287.21 4848.96 1285.75 4850.76 1285.75ZM4896.23 1285.75 4915.72 1285.75C4917.51 1285.75 4918.96 1287.21 4918.96 1289 4918.96 1290.79 4917.51 1292.25 4915.72 1292.25L4896.23 1292.25C4894.43 1292.25 4892.98 1290.79 4892.98 1289 4892.98 1287.21 4894.43 1285.75 4896.23 1285.75ZM4941.7 1285.75 4961.19 1285.75C4962.98 1285.75 4964.44 1287.21 4964.44 1289 4964.44 1290.79 4962.98 1292.25 4961.19 1292.25L4941.7 1292.25C4939.91 1292.25 4938.45 1290.79 4938.45 1289 4938.45 1287.21 4939.91 1285.75 4941.7 1285.75ZM4987.17 1285.75 5006.66 1285.75C5008.46 1285.75 5009.91 1287.21 5009.91 1289 5009.91 1290.79 5008.46 1292.25 5006.66 1292.25L4987.17 1292.25C4985.38 1292.25 4983.93 1290.79 4983.93 1289 4983.93 1287.21 4985.38 1285.75 4987.17 1285.75ZM5032.65 1285.75 5052.13 1285.75C5053.93 1285.75 5055.38 1287.21 5055.38 1289 5055.38 1290.79 5053.93 1292.25 5052.13 1292.25L5032.65 1292.25C5030.85 1292.25 5029.4 1290.79 5029.4 1289 5029.4 1287.21 5030.85 1285.75 5032.65 1285.75ZM5078.12 1285.75 5078.5 1285.75 5097.61 1285.75C5099.4 1285.75 5100.85 1287.21 5100.85 1289 5100.85 1290.79 5099.4 1292.25 5097.61 1292.25L5078.5 1292.25 5078.12 1292.25C5076.32 1292.25 5074.87 1290.79 5074.87 1289 5074.87 1287.21 5076.32 1285.75 5078.12 1285.75ZM5123.59 1285.75 5143.08 1285.75C5144.87 1285.75 5146.33 1287.21 5146.33 1289 5146.33 1290.79 5144.87 1292.25 5143.08 1292.25L5123.59 1292.25C5121.8 1292.25 5120.34 1290.79 5120.34 1289 5120.34 1287.21 5121.8 1285.75 5123.59 1285.75ZM5169.06 1285.75 5188.55 1285.75C5190.35 1285.75 5191.8 1287.21 5191.8 1289 5191.8 1290.79 5190.35 1292.25 5188.55 1292.25L5169.06 1292.25C5167.27 1292.25 5165.82 1290.79 5165.82 1289 5165.82 1287.21 5167.27 1285.75 5169.06 1285.75ZM5214.54 1285.75 5234.02 1285.75C5235.82 1285.75 5237.27 1287.21 5237.27 1289 5237.27 1290.79 5235.82 1292.25 5234.02 1292.25L5214.54 1292.25C5212.74 1292.25 5211.29 1290.79 5211.29 1289 5211.29 1287.21 5212.74 1285.75 5214.54 1285.75ZM5260.01 1285.75 5279.5 1285.75C5281.29 1285.75 5282.74 1287.21 5282.74 1289 5282.74 1290.79 5281.29 1292.25 5279.5 1292.25L5260.01 1292.25C5258.21 1292.25 5256.76 1290.79 5256.76 1289 5256.76 1287.21 5258.21 1285.75 5260.01 1285.75ZM5305.48 1285.75 5324.97 1285.75C5326.76 1285.75 5328.22 1287.21 5328.22 1289 5328.22 1290.79 5326.76 1292.25 5324.97 1292.25L5305.48 1292.25C5303.69 1292.25 5302.23 1290.79 5302.23 1289 5302.23 1287.21 5303.69 1285.75 5305.48 1285.75ZM5350.95 1285.75 5370.44 1285.75C5372.23 1285.75 5373.69 1287.21 5373.69 1289 5373.69 1290.79 5372.23 1292.25 5370.44 1292.25L5350.95 1292.25C5349.16 1292.25 5347.71 1290.79 5347.71 1289 5347.71 1287.21 5349.16 1285.75 5350.95 1285.75ZM5396.43 1285.75 5415.91 1285.75C5417.71 1285.75 5419.16 1287.21 5419.16 1289 5419.16 1290.79 5417.71 1292.25 5415.91 1292.25L5396.43 1292.25C5394.63 1292.25 5393.18 1290.79 5393.18 1289 5393.18 1287.21 5394.63 1285.75 5396.43 1285.75ZM5441.9 1285.75 5442.38 1285.75 5461.39 1285.75C5463.18 1285.75 5464.63 1287.21 5464.63 1289 5464.63 1290.79 5463.18 1292.25 5461.39 1292.25L5442.38 1292.25 5441.9 1292.25C5440.1 1292.25 5438.65 1290.79 5438.65 1289 5438.65 1287.21 5440.1 1285.75 5441.9 1285.75ZM5487.37 1285.75 5506.86 1285.75C5508.65 1285.75 5510.11 1287.21 5510.11 1289 5510.11 1290.79 5508.65 1292.25 5506.86 1292.25L5487.37 1292.25C5485.58 1292.25 5484.12 1290.79 5484.12 1289 5484.12 1287.21 5485.58 1285.75 5487.37 1285.75ZM5532.84 1285.75 5552.33 1285.75C5554.12 1285.75 5555.58 1287.21 5555.58 1289 5555.58 1290.79 5554.12 1292.25 5552.33 1292.25L5532.84 1292.25C5531.05 1292.25 5529.59 1290.79 5529.59 1289 5529.59 1287.21 5531.05 1285.75 5532.84 1285.75ZM5578.32 1285.75 5597.8 1285.75C5599.6 1285.75 5601.05 1287.21 5601.05 1289 5601.05 1290.79 5599.6 1292.25 5597.8 1292.25L5578.32 1292.25C5576.52 1292.25 5575.07 1290.79 5575.07 1289 5575.07 1287.21 5576.52 1285.75 5578.32 1285.75ZM5623.79 1285.75 5643.28 1285.75C5645.07 1285.75 5646.52 1287.21 5646.52 1289 5646.52 1290.79 5645.07 1292.25 5643.28 1292.25L5623.79 1292.25C5621.99 1292.25 5620.54 1290.79 5620.54 1289 5620.54 1287.21 5621.99 1285.75 5623.79 1285.75ZM5669.26 1285.75 5688.75 1285.75C5690.54 1285.75 5692 1287.21 5692 1289 5692 1290.79 5690.54 1292.25 5688.75 1292.25L5669.26 1292.25C5667.47 1292.25 5666.01 1290.79 5666.01 1289 5666.01 1287.21 5667.47 1285.75 5669.26 1285.75ZM5714.73 1285.75 5734.22 1285.75C5736.01 1285.75 5737.47 1287.21 5737.47 1289 5737.47 1290.79 5736.01 1292.25 5734.22 1292.25L5714.73 1292.25C5712.94 1292.25 5711.48 1290.79 5711.48 1289 5711.48 1287.21 5712.94 1285.75 5714.73 1285.75ZM5760.21 1285.75 5779.69 1285.75C5781.49 1285.75 5782.94 1287.21 5782.94 1289 5782.94 1290.79 5781.49 1292.25 5779.69 1292.25L5760.21 1292.25C5758.41 1292.25 5756.96 1290.79 5756.96 1289 5756.96 1287.21 5758.41 1285.75 5760.21 1285.75ZM5805.68 1285.75 5806.25 1285.75 5825.17 1285.75C5826.96 1285.75 5828.41 1287.21 5828.41 1289 5828.41 1290.79 5826.96 1292.25 5825.17 1292.25L5806.25 1292.25 5805.68 1292.25C5803.88 1292.25 5802.43 1290.79 5802.43 1289 5802.43 1287.21 5803.88 1285.75 5805.68 1285.75ZM5851.15 1285.75 5870.64 1285.75C5872.43 1285.75 5873.89 1287.21 5873.89 1289 5873.89 1290.79 5872.43 1292.25 5870.64 1292.25L5851.15 1292.25C5849.36 1292.25 5847.9 1290.79 5847.9 1289 5847.9 1287.21 5849.36 1285.75 5851.15 1285.75ZM5896.62 1285.75 5916.11 1285.75C5917.9 1285.75 5919.36 1287.21 5919.36 1289 5919.36 1290.79 5917.9 1292.25 5916.11 1292.25L5896.62 1292.25C5894.83 1292.25 5893.37 1290.79 5893.37 1289 5893.37 1287.21 5894.83 1285.75 5896.62 1285.75ZM5942.09 1285.75 5961.58 1285.75C5963.38 1285.75 5964.83 1287.21 5964.83 1289 5964.83 1290.79 5963.38 1292.25 5961.58 1292.25L5942.09 1292.25C5940.3 1292.25 5938.85 1290.79 5938.85 1289 5938.85 1287.21 5940.3 1285.75 5942.09 1285.75ZM5987.57 1285.75 6007.06 1285.75C6008.85 1285.75 6010.3 1287.21 6010.3 1289 6010.3 1290.79 6008.85 1292.25 6007.06 1292.25L5987.57 1292.25C5985.77 1292.25 5984.32 1290.79 5984.32 1289 5984.32 1287.21 5985.77 1285.75 5987.57 1285.75ZM6033.04 1285.75 6052.53 1285.75C6054.32 1285.75 6055.78 1287.21 6055.78 1289 6055.78 1290.79 6054.32 1292.25 6052.53 1292.25L6033.04 1292.25C6031.25 1292.25 6029.79 1290.79 6029.79 1289 6029.79 1287.21 6031.25 1285.75 6033.04 1285.75ZM6078.51 1285.75 6098 1285.75C6099.79 1285.75 6101.25 1287.21 6101.25 1289 6101.25 1290.79 6099.79 1292.25 6098 1292.25L6078.51 1292.25C6076.72 1292.25 6075.26 1290.79 6075.26 1289 6075.26 1287.21 6076.72 1285.75 6078.51 1285.75ZM6123.98 1285.75 6143.47 1285.75C6145.27 1285.75 6146.72 1287.21 6146.72 1289 6146.72 1290.79 6145.27 1292.25 6143.47 1292.25L6123.98 1292.25C6122.19 1292.25 6120.74 1290.79 6120.74 1289 6120.74 1287.21 6122.19 1285.75 6123.98 1285.75ZM6169.46 1285.75 6170.12 1285.75 6188.95 1285.75C6190.74 1285.75 6192.19 1287.21 6192.19 1289 6192.19 1290.79 6190.74 1292.25 6188.95 1292.25L6170.12 1292.25 6169.46 1292.25C6167.66 1292.25 6166.21 1290.79 6166.21 1289 6166.21 1287.21 6167.66 1285.75 6169.46 1285.75ZM6214.93 1285.75 6234.42 1285.75C6236.21 1285.75 6237.67 1287.21 6237.67 1289 6237.67 1290.79 6236.21 1292.25 6234.42 1292.25L6214.93 1292.25C6213.14 1292.25 6211.68 1290.79 6211.68 1289 6211.68 1287.21 6213.14 1285.75 6214.93 1285.75ZM6260.4 1285.75 6279.89 1285.75C6281.68 1285.75 6283.14 1287.21 6283.14 1289 6283.14 1290.79 6281.68 1292.25 6279.89 1292.25L6260.4 1292.25C6258.61 1292.25 6257.15 1290.79 6257.15 1289 6257.15 1287.21 6258.61 1285.75 6260.4 1285.75ZM6305.87 1285.75 6325.36 1285.75C6327.16 1285.75 6328.61 1287.21 6328.61 1289 6328.61 1290.79 6327.16 1292.25 6325.36 1292.25L6305.87 1292.25C6304.08 1292.25 6302.63 1290.79 6302.63 1289 6302.63 1287.21 6304.08 1285.75 6305.87 1285.75ZM6351.35 1285.75 6370.83 1285.75C6372.63 1285.75 6374.08 1287.21 6374.08 1289 6374.08 1290.79 6372.63 1292.25 6370.83 1292.25L6351.35 1292.25C6349.55 1292.25 6348.1 1290.79 6348.1 1289 6348.1 1287.21 6349.55 1285.75 6351.35 1285.75ZM6396.82 1285.75 6416.31 1285.75C6418.1 1285.75 6419.56 1287.21 6419.56 1289 6419.56 1290.79 6418.1 1292.25 6416.31 1292.25L6396.82 1292.25C6395.03 1292.25 6393.57 1290.79 6393.57 1289 6393.57 1287.21 6395.03 1285.75 6396.82 1285.75ZM6442.29 1285.75 6461.78 1285.75C6463.57 1285.75 6465.03 1287.21 6465.03 1289 6465.03 1290.79 6463.57 1292.25 6461.78 1292.25L6442.29 1292.25C6440.5 1292.25 6439.04 1290.79 6439.04 1289 6439.04 1287.21 6440.5 1285.75 6442.29 1285.75ZM6487.76 1285.75 6507.25 1285.75C6509.05 1285.75 6510.5 1287.21 6510.5 1289 6510.5 1290.79 6509.05 1292.25 6507.25 1292.25L6487.76 1292.25C6485.97 1292.25 6484.52 1290.79 6484.52 1289 6484.52 1287.21 6485.97 1285.75 6487.76 1285.75ZM6533.24 1285.75 6534 1285.75C6535.79 1285.75 6537.25 1287.21 6537.25 1289 6537.25 1290.79 6535.79 1292.25 6534 1292.25L6533.24 1292.25C6531.44 1292.25 6529.99 1290.79 6529.99 1289 6529.99 1287.21 6531.44 1285.75 6533.24 1285.75Z" fill="#FF0000" fill-rule="nonzero" fill-opacity="1"/></g><g><text fill="#000000" fill-opacity="1" font-family="Calibri,Calibri_MSFontService,sans-serif" font-style="normal" font-variant="normal" font-weight="400" font-stretch="normal" font-size="46" text-anchor="start" direction="ltr" writing-mode="lr-tb" unicode-bidi="normal" text-decoration="none" transform="matrix(1 0 0 1 3257.4 2158)">-</text></g><g><text fill="#000000" fill-opacity="1" font-family="Calibri,Calibri_MSFontService,sans-serif" font-style="normal" font-variant="normal" font-weight="400" font-stretch="normal" font-size="46" text-anchor="start" direction="ltr" writing-mode="lr-tb" unicode-bidi="normal" text-decoration="none" transform="matrix(1 0 0 1 3271.38 2158)">100.00</text></g><g><text fill="#000000" fill-opacity="1" font-family="Calibri,Calibri_MSFontService,sans-serif" font-style="normal" font-variant="normal" font-weight="400" font-stretch="normal" font-size="46" text-anchor="start" direction="ltr" writing-mode="lr-tb" unicode-bidi="normal" text-decoration="none" transform="matrix(1 0 0 1 3280.59 1986)">-</text></g><g><text fill="#000000" fill-opacity="1" font-family="Calibri,Calibri_MSFontService,sans-serif" font-style="normal" font-variant="normal" font-weight="400" font-stretch="normal" font-size="46" text-anchor="start" direction="ltr" writing-mode="lr-tb" unicode-bidi="normal" text-decoration="none" transform="matrix(1 0 0 1 3294.57 1986)">80.00</text></g><g><text fill="#000000" fill-opacity="1" font-family="Calibri,Calibri_MSFontService,sans-serif" font-style="normal" font-variant="normal" font-weight="400" font-stretch="normal" font-size="46" text-anchor="start" direction="ltr" writing-mode="lr-tb" unicode-bidi="normal" text-decoration="none" transform="matrix(1 0 0 1 3280.59 1815)">-</text></g><g><text fill="#000000" fill-opacity="1" font-family="Calibri,Calibri_MSFontService,sans-serif" font-style="normal" font-variant="normal" font-weight="400" font-stretch="normal" font-size="46" text-anchor="start" direction="ltr" writing-mode="lr-tb" unicode-bidi="normal" text-decoration="none" transform="matrix(1 0 0 1 3294.57 1815)">60.00</text></g><g><text fill="#000000" fill-opacity="1" font-family="Calibri,Calibri_MSFontService,sans-serif" font-style="normal" font-variant="normal" font-weight="400" font-stretch="normal" font-size="46" text-anchor="start" direction="ltr" writing-mode="lr-tb" unicode-bidi="normal" text-decoration="none" transform="matrix(1 0 0 1 3280.59 1644)">-</text></g><g><text fill="#000000" fill-opacity="1" font-family="Calibri,Calibri_MSFontService,sans-serif" font-style="normal" font-variant="normal" font-weight="400" font-stretch="normal" font-size="46" text-anchor="start" direction="ltr" writing-mode="lr-tb" unicode-bidi="normal" text-decoration="none" transform="matrix(1 0 0 1 3294.57 1644)">40.00</text></g><g><text fill="#000000" fill-opacity="1" font-family="Calibri,Calibri_MSFontService,sans-serif" font-style="normal" font-variant="normal" font-weight="400" font-stretch="normal" font-size="46" text-anchor="start" direction="ltr" writing-mode="lr-tb" unicode-bidi="normal" text-decoration="none" transform="matrix(1 0 0 1 3280.59 1473)">-</text></g><g><text fill="#000000" fill-opacity="1" font-family="Calibri,Calibri_MSFontService,sans-serif" font-style="normal" font-variant="normal" font-weight="400" font-stretch="normal" font-size="46" text-anchor="start" direction="ltr" writing-mode="lr-tb" unicode-bidi="normal" text-decoration="none" transform="matrix(1 0 0 1 3294.57 1473)">20.00</text></g><g><text fill="#000000" fill-opacity="1" font-family="Calibri,Calibri_MSFontService,sans-serif" font-style="normal" font-variant="normal" font-weight="400" font-stretch="normal" font-size="46" text-anchor="start" direction="ltr" writing-mode="lr-tb" unicode-bidi="normal" text-decoration="none" transform="matrix(1 0 0 1 3317.76 1301)">0.00</text></g><g><text fill="#000000" fill-opacity="1" font-family="Calibri,Calibri_MSFontService,sans-serif" font-style="normal" font-variant="normal" font-weight="400" font-stretch="normal" font-size="46" text-anchor="start" direction="ltr" writing-mode="lr-tb" unicode-bidi="normal" text-decoration="none" transform="matrix(1 0 0 1 3294.57 1130)">20.00</text></g><g><text fill="#000000" fill-opacity="1" font-family="Calibri,Calibri_MSFontService,sans-serif" font-style="normal" font-variant="normal" font-weight="400" font-stretch="normal" font-size="46" text-anchor="start" direction="ltr" writing-mode="lr-tb" unicode-bidi="normal" text-decoration="none" transform="matrix(1 0 0 1 3294.57 959)">40.00</text></g><g><text fill="#000000" fill-opacity="1" font-family="Calibri,Calibri_MSFontService,sans-serif" font-style="normal" font-variant="normal" font-weight="400" font-stretch="normal" font-size="46" text-anchor="start" direction="ltr" writing-mode="lr-tb" unicode-bidi="normal" text-decoration="none" transform="matrix(1 0 0 1 3294.57 787)">60.00</text></g><g><text fill="#000000" fill-opacity="1" font-family="Calibri,Calibri_MSFontService,sans-serif" font-style="normal" font-variant="normal" font-weight="400" font-stretch="normal" font-size="46" text-anchor="start" direction="ltr" writing-mode="lr-tb" unicode-bidi="normal" text-decoration="none" transform="matrix(1 0 0 1 3294.57 616)">80.00</text></g><g><text fill="#000000" fill-opacity="1" font-family="Calibri,Calibri_MSFontService,sans-serif" font-style="normal" font-variant="normal" font-weight="400" font-stretch="normal" font-size="46" text-anchor="start" direction="ltr" writing-mode="lr-tb" unicode-bidi="normal" text-decoration="none" transform="matrix(1 0 0 1 3271.38 445)">100.00</text></g><g><text fill="#000000" fill-opacity="1" font-family="Calibri,Calibri_MSFontService,sans-serif" font-style="normal" font-variant="normal" font-weight="400" font-stretch="normal" font-size="46" text-anchor="start" direction="ltr" writing-mode="lr-tb" unicode-bidi="normal" text-decoration="none" transform="matrix(1 0 0 1 3601.19 1362)">S1</text></g><g><text fill="#000000" fill-opacity="1" font-family="Calibri,Calibri_MSFontService,sans-serif" font-style="normal" font-variant="normal" font-weight="400" font-stretch="normal" font-size="46" text-anchor="start" direction="ltr" writing-mode="lr-tb" unicode-bidi="normal" text-decoration="none" transform="matrix(1 0 0 1 3965.02 1362)">S2</text></g><g><text fill="#000000" fill-opacity="1" font-family="Calibri,Calibri_MSFontService,sans-serif" font-style="normal" font-variant="normal" font-weight="400" font-stretch="normal" font-size="46" text-anchor="start" direction="ltr" writing-mode="lr-tb" unicode-bidi="normal" text-decoration="none" transform="matrix(1 0 0 1 4328.84 1362)">S3</text></g><g><text fill="#000000" fill-opacity="1" font-family="Calibri,Calibri_MSFontService,sans-serif" font-style="normal" font-variant="normal" font-weight="400" font-stretch="normal" font-size="46" text-anchor="start" direction="ltr" writing-mode="lr-tb" unicode-bidi="normal" text-decoration="none" transform="matrix(1 0 0 1 4692.67 1362)">S4</text></g><g><text fill="#000000" fill-opacity="1" font-family="Calibri,Calibri_MSFontService,sans-serif" font-style="normal" font-variant="normal" font-weight="400" font-stretch="normal" font-size="46" text-anchor="start" direction="ltr" writing-mode="lr-tb" unicode-bidi="normal" text-decoration="none" transform="matrix(1 0 0 1 5056.5 1362)">S5</text></g><g><text fill="#000000" fill-opacity="1" font-family="Calibri,Calibri_MSFontService,sans-serif" font-style="normal" font-variant="normal" font-weight="400" font-stretch="normal" font-size="46" text-anchor="start" direction="ltr" writing-mode="lr-tb" unicode-bidi="normal" text-decoration="none" transform="matrix(1 0 0 1 5420.33 1362)">S6</text></g><g><text fill="#000000" fill-opacity="1" font-family="Calibri,Calibri_MSFontService,sans-serif" font-style="normal" font-variant="normal" font-weight="400" font-stretch="normal" font-size="46" text-anchor="start" direction="ltr" writing-mode="lr-tb" unicode-bidi="normal" text-decoration="none" transform="matrix(1 0 0 1 5784.16 1362)">S7</text></g><g><text fill="#000000" fill-opacity="1" font-family="Calibri,Calibri_MSFontService,sans-serif" font-style="normal" font-variant="normal" font-weight="400" font-stretch="normal" font-size="46" text-anchor="start" direction="ltr" writing-mode="lr-tb" unicode-bidi="normal" text-decoration="none" transform="matrix(1 0 0 1 6147.99 1362)">S8</text></g><g><text fill="#000000" fill-opacity="1" font-family="Calibri,Calibri_MSFontService,sans-serif" font-style="normal" font-variant="normal" font-weight="400" font-stretch="normal" font-size="46" text-anchor="start" direction="ltr" writing-mode="lr-tb" unicode-bidi="normal" text-decoration="none" transform="matrix(1 0 0 1 6511.81 1362)">S9</text></g><g><text fill="#000000" fill-opacity="1" font-family="Calibri,Calibri_MSFontService,sans-serif" font-style="normal" font-variant="normal" font-weight="700" font-stretch="normal" font-size="46" text-anchor="start" direction="ltr" writing-mode="lr-tb" unicode-bidi="normal" text-decoration="none" transform="matrix(6.12323e-17 -1 1 6.12323e-17 3231.71 1364)">Euro (€)</text></g><g><text fill="#000000" fill-opacity="1" font-family="Calibri,Calibri_MSFontService,sans-serif" font-style="normal" font-variant="normal" font-weight="700" font-stretch="normal" font-size="83" text-anchor="start" direction="ltr" writing-mode="lr-tb" unicode-bidi="normal" text-decoration="none" transform="matrix(1 0 0 1 4819.38 353)">CV e SV </text></g><g><rect x="4422.5" y="2225.5" width="115" height="25" stroke="#F9F9F9" stroke-width="3.37795" stroke-linecap="butt" stroke-linejoin="round" stroke-miterlimit="10" stroke-opacity="1" fill="#70AD47" fill-opacity="1"/></g><g><text fill="#000000" fill-opacity="1" font-family="Calibri,Calibri_MSFontService,sans-serif" font-style="normal" font-variant="normal" font-weight="400" font-stretch="normal" font-size="46" text-anchor="start" direction="ltr" writing-mode="lr-tb" unicode-bidi="normal" text-decoration="none" transform="matrix(1 0 0 1 4550.25 2250)">CV (€)</text></g><g><rect x="4727.5" y="2225.5" width="115" height="25" stroke="#F9F9F9" stroke-width="3.37795" stroke-linecap="butt" stroke-linejoin="round" stroke-miterlimit="10" stroke-opacity="1" fill="#9B59B6" fill-opacity="1"/></g><g><text fill="#000000" fill-opacity="1" font-family="Calibri,Calibri_MSFontService,sans-serif" font-style="normal" font-variant="normal" font-weight="400" font-stretch="normal" font-size="46" text-anchor="start" direction="ltr" writing-mode="lr-tb" unicode-bidi="normal" text-decoration="none" transform="matrix(1 0 0 1 4855.63 2250)">SV (€)</text></g><g><path d="M5029 2234.75 5048.49 2234.75C5050.28 2234.75 5051.74 2236.21 5051.74 2238 5051.74 2239.79 5050.28 2241.25 5048.49 2241.25L5029 2241.25C5027.21 2241.25 5025.75 2239.79 5025.75 2238 5025.75 2236.21 5027.21 2234.75 5029 2234.75ZM5074.47 2234.75 5093.96 2234.75C5095.75 2234.75 5097.21 2236.21 5097.21 2238 5097.21 2239.79 5095.75 2241.25 5093.96 2241.25L5074.47 2241.25C5072.68 2241.25 5071.22 2239.79 5071.22 2238 5071.22 2236.21 5072.68 2234.75 5074.47 2234.75ZM5119.94 2234.75 5139.43 2234.75C5141.23 2234.75 5142.68 2236.21 5142.68 2238 5142.68 2239.79 5141.23 2241.25 5139.43 2241.25L5119.94 2241.25C5118.15 2241.25 5116.7 2239.79 5116.7 2238 5116.7 2236.21 5118.15 2234.75 5119.94 2234.75Z" fill="#FF0000" fill-rule="nonzero" fill-opacity="1"/></g><g><text fill="#000000" fill-opacity="1" font-family="Calibri,Calibri_MSFontService,sans-serif" font-style="normal" font-variant="normal" font-weight="400" font-stretch="normal" font-size="46" text-anchor="start" direction="ltr" writing-mode="lr-tb" unicode-bidi="normal" text-decoration="none" transform="matrix(1 0 0 1 5157.65 2250)">Soglia acc. CV (&gt;0)</text></g><rect x="3130.5" y="240.5" width="3636" height="2067" stroke="#D9D9D9" stroke-width="3.37795" stroke-linecap="butt" stroke-linejoin="round" stroke-miterlimit="10" stroke-opacity="1" fill="none"/></g></g></svg>