<svg width="3643" height="2076" xmlns="http://www.w3.org/2000/svg" xmlns:xlink="http://www.w3.org/1999/xlink" xml:space="preserve" overflow="hidden"><defs><clipPath id="clip0"><rect x="2970" y="160" width="3643" height="2076"/></clipPath><clipPath id="clip1"><rect x="2970" y="160" width="3643" height="2076"/></clipPath></defs><g clip-path="url(#clip0)" transform="translate(-2970 -160)"><g clip-path="url(#clip1)"><rect x="2975" y="162" width="3635" height="2070" fill="#FFFFFF" fill-opacity="1"/><g><path d="M3329.5 1841.56 6559.5 1841.56M3329.5 1676.56 6559.5 1676.56M3329.5 1511.55 6559.5 1511.55M3329.5 1346.54 6559.5 1346.54M3329.5 1180.54 6559.5 1180.54M3329.5 1015.53 6559.5 1015.53M3329.5 850.528 6559.5 850.528M3329.5 685.523 6559.5 685.523M3329.5 520.517 6559.5 520.517M3329.5 355.5 6559.5 355.5" stroke="#878787" stroke-width="3.37795" stroke-linecap="butt" stroke-linejoin="round" stroke-miterlimit="10" stroke-opacity="1" fill="none" fill-rule="nonzero"/></g><g><path d="M0 0 0.000360892 1651" stroke="#878787" stroke-width="3.37795" stroke-linecap="butt" stroke-linejoin="round" stroke-miterlimit="10" stroke-opacity="1" fill="none" fill-rule="evenodd" transform="matrix(1 0 0 -1 3329.5 2006.5)"/></g><g><path d="M3329.5 2006.5 6559.5 2006.5" stroke="#878787" stroke-width="3.37795" stroke-linecap="butt" stroke-linejoin="round" stroke-miterlimit="10" stroke-opacity="1" fill="none" fill-rule="evenodd"/></g><g><path d="M3509 930.567C3628.67 896.745 3748.33 884.122 3868 829.103 3987.67 774.083 4107.33 631.901 4227 600.451 4346.67 569 4466.33 569.47 4586 640.399 4705.67 711.328 4825.33 970.048 4945 1026.02 5064.67 1082 5184.33 990.583 5304 976.258 5423.67 961.932 5543.33 955.375 5663 940.071 5782.67 924.766 5902.33 886.751 6022 884.43 6141.67 882.109 6261.33 912.24 6381 926.144" stroke="#4472C4" stroke-width="10.1339" stroke-linecap="round" stroke-linejoin="round" stroke-miterlimit="10" stroke-opacity="1" fill="none" fill-rule="nonzero"/></g><g><path d="M3509 723.752 3528.49 723.752C3530.28 723.752 3531.74 725.206 3531.74 727 3531.74 728.794 3530.28 730.248 3528.49 730.248L3509 730.248C3507.21 730.248 3505.75 728.794 3505.75 727 3505.75 725.206 3507.21 723.752 3509 723.752ZM3554.47 723.752 3573.96 723.752C3575.75 723.752 3577.21 725.206 3577.21 727 3577.21 728.794 3575.75 730.248 3573.96 730.248L3554.47 730.248C3552.68 730.248 3551.22 728.794 3551.22 727 3551.22 725.206 3552.68 723.752 3554.47 723.752ZM3599.94 723.752 3619.43 723.752C3621.23 723.752 3622.68 725.206 3622.68 727 3622.68 728.794 3621.23 730.248 3619.43 730.248L3599.94 730.248C3598.15 730.248 3596.7 728.794 3596.7 727 3596.7 725.206 3598.15 723.752 3599.94 723.752ZM3645.42 723.752 3664.91 723.752C3666.7 723.752 3668.15 725.206 3668.15 727 3668.15 728.794 3666.7 730.248 3664.91 730.248L3645.42 730.248C3643.62 730.248 3642.17 728.794 3642.17 727 3642.17 725.206 3643.62 723.752 3645.42 723.752ZM3690.89 723.752 3710.38 723.752C3712.17 723.752 3713.63 725.206 3713.63 727 3713.63 728.794 3712.17 730.248 3710.38 730.248L3690.89 730.248C3689.1 730.248 3687.64 728.794 3687.64 727 3687.64 725.206 3689.1 723.752 3690.89 723.752ZM3736.36 723.752 3755.85 723.752C3757.64 723.752 3759.1 725.206 3759.1 727 3759.1 728.794 3757.64 730.248 3755.85 730.248L3736.36 730.248C3734.57 730.248 3733.11 728.794 3733.11 727 3733.11 725.206 3734.57 723.752 3736.36 723.752ZM3781.83 723.752 3801.32 723.752C3803.12 723.752 3804.57 725.206 3804.57 727 3804.57 728.794 3803.12 730.248 3801.32 730.248L3781.83 730.248C3780.04 730.248 3778.59 728.794 3778.59 727 3778.59 725.206 3780.04 723.752 3781.83 723.752ZM3827.31 723.752 3846.8 723.752C3848.59 723.752 3850.04 725.206 3850.04 727 3850.04 728.794 3848.59 730.248 3846.8 730.248L3827.31 730.248C3825.51 730.248 3824.06 728.794 3824.06 727 3824.06 725.206 3825.51 723.752 3827.31 723.752ZM3872.78 723.752 3892.27 723.752C3894.06 723.752 3895.52 725.206 3895.52 727 3895.52 728.794 3894.06 730.248 3892.27 730.248L3872.78 730.248C3870.99 730.248 3869.53 728.794 3869.53 727 3869.53 725.206 3870.99 723.752 3872.78 723.752ZM3918.25 723.752 3937.74 723.752C3939.53 723.752 3940.99 725.206 3940.99 727 3940.99 728.794 3939.53 730.248 3937.74 730.248L3918.25 730.248C3916.46 730.248 3915 728.794 3915 727 3915 725.206 3916.46 723.752 3918.25 723.752ZM3963.72 723.752 3983.21 723.752C3985.01 723.752 3986.46 725.206 3986.46 727 3986.46 728.794 3985.01 730.248 3983.21 730.248L3963.72 730.248C3961.93 730.248 3960.48 728.794 3960.48 727 3960.48 725.206 3961.93 723.752 3963.72 723.752ZM4009.2 723.752 4028.69 723.752C4030.48 723.752 4031.93 725.206 4031.93 727 4031.93 728.794 4030.48 730.248 4028.69 730.248L4009.2 730.248C4007.4 730.248 4005.95 728.794 4005.95 727 4005.95 725.206 4007.4 723.752 4009.2 723.752ZM4054.67 723.752 4074.16 723.752C4075.95 723.752 4077.41 725.206 4077.41 727 4077.41 728.794 4075.95 730.248 4074.16 730.248L4054.67 730.248C4052.88 730.248 4051.42 728.794 4051.42 727 4051.42 725.206 4052.88 723.752 4054.67 723.752ZM4100.14 723.752 4119.63 723.752C4121.42 723.752 4122.88 725.206 4122.88 727 4122.88 728.794 4121.42 730.248 4119.63 730.248L4100.14 730.248C4098.35 730.248 4096.89 728.794 4096.89 727 4096.89 725.206 4098.35 723.752 4100.14 723.752ZM4145.61 723.752 4165.1 723.752C4166.9 723.752 4168.35 725.206 4168.35 727 4168.35 728.794 4166.9 730.248 4165.1 730.248L4145.61 730.248C4143.82 730.248 4142.37 728.794 4142.37 727 4142.37 725.206 4143.82 723.752 4145.61 723.752ZM4191.09 723.752 4210.57 723.752C4212.37 723.752 4213.82 725.206 4213.82 727 4213.82 728.794 4212.37 730.248 4210.57 730.248L4191.09 730.248C4189.29 730.248 4187.84 728.794 4187.84 727 4187.84 725.206 4189.29 723.752 4191.09 723.752ZM4236.56 723.752 4256.05 723.752C4257.84 723.752 4259.3 725.206 4259.3 727 4259.3 728.794 4257.84 730.248 4256.05 730.248L4236.56 730.248C4234.77 730.248 4233.31 728.794 4233.31 727 4233.31 725.206 4234.77 723.752 4236.56 723.752ZM4282.03 723.752 4301.52 723.752C4303.31 723.752 4304.77 725.206 4304.77 727 4304.77 728.794 4303.31 730.248 4301.52 730.248L4282.03 730.248C4280.24 730.248 4278.78 728.794 4278.78 727 4278.78 725.206 4280.24 723.752 4282.03 723.752ZM4327.5 723.752 4346.99 723.752C4348.79 723.752 4350.24 725.206 4350.24 727 4350.24 728.794 4348.79 730.248 4346.99 730.248L4327.5 730.248C4325.71 730.248 4324.26 728.794 4324.26 727 4324.26 725.206 4325.71 723.752 4327.5 723.752ZM4372.98 723.752 4392.46 723.752C4394.26 723.752 4395.71 725.206 4395.71 727 4395.71 728.794 4394.26 730.248 4392.46 730.248L4372.98 730.248C4371.18 730.248 4369.73 728.794 4369.73 727 4369.73 725.206 4371.18 723.752 4372.98 723.752ZM4418.45 723.752 4437.94 723.752C4439.73 723.752 4441.19 725.206 4441.19 727 4441.19 728.794 4439.73 730.248 4437.94 730.248L4418.45 730.248C4416.65 730.248 4415.2 728.794 4415.2 727 4415.2 725.206 4416.65 723.752 4418.45 723.752ZM4463.92 723.752 4483.41 723.752C4485.2 723.752 4486.66 725.206 4486.66 727 4486.66 728.794 4485.2 730.248 4483.41 730.248L4463.92 730.248C4462.13 730.248 4460.67 728.794 4460.67 727 4460.67 725.206 4462.13 723.752 4463.92 723.752ZM4509.39 723.752 4528.88 723.752C4530.68 723.752 4532.13 725.206 4532.13 727 4532.13 728.794 4530.68 730.248 4528.88 730.248L4509.39 730.248C4507.6 730.248 4506.15 728.794 4506.15 727 4506.15 725.206 4507.6 723.752 4509.39 723.752ZM4554.87 723.752 4574.35 723.752C4576.15 723.752 4577.6 725.206 4577.6 727 4577.6 728.794 4576.15 730.248 4574.35 730.248L4554.87 730.248C4553.07 730.248 4551.62 728.794 4551.62 727 4551.62 725.206 4553.07 723.752 4554.87 723.752ZM4600.34 723.752 4619.83 723.752C4621.62 723.752 4623.07 725.206 4623.07 727 4623.07 728.794 4621.62 730.248 4619.83 730.248L4600.34 730.248C4598.54 730.248 4597.09 728.794 4597.09 727 4597.09 725.206 4598.54 723.752 4600.34 723.752ZM4645.81 723.752 4665.3 723.752C4667.09 723.752 4668.55 725.206 4668.55 727 4668.55 728.794 4667.09 730.248 4665.3 730.248L4645.81 730.248C4644.02 730.248 4642.56 728.794 4642.56 727 4642.56 725.206 4644.02 723.752 4645.81 723.752ZM4691.28 723.752 4710.77 723.752C4712.57 723.752 4714.02 725.206 4714.02 727 4714.02 728.794 4712.57 730.248 4710.77 730.248L4691.28 730.248C4689.49 730.248 4688.04 728.794 4688.04 727 4688.04 725.206 4689.49 723.752 4691.28 723.752ZM4736.76 723.752 4756.24 723.752C4758.04 723.752 4759.49 725.206 4759.49 727 4759.49 728.794 4758.04 730.248 4756.24 730.248L4736.76 730.248C4734.96 730.248 4733.51 728.794 4733.51 727 4733.51 725.206 4734.96 723.752 4736.76 723.752ZM4782.23 723.752 4801.72 723.752C4803.51 723.752 4804.96 725.206 4804.96 727 4804.96 728.794 4803.51 730.248 4801.72 730.248L4782.23 730.248C4780.43 730.248 4778.98 728.794 4778.98 727 4778.98 725.206 4780.43 723.752 4782.23 723.752ZM4827.7 723.752 4847.19 723.752C4848.98 723.752 4850.44 725.206 4850.44 727 4850.44 728.794 4848.98 730.248 4847.19 730.248L4827.7 730.248C4825.91 730.248 4824.45 728.794 4824.45 727 4824.45 725.206 4825.91 723.752 4827.7 723.752ZM4873.17 723.752 4892.66 723.752C4894.46 723.752 4895.91 725.206 4895.91 727 4895.91 728.794 4894.46 730.248 4892.66 730.248L4873.17 730.248C4871.38 730.248 4869.93 728.794 4869.93 727 4869.93 725.206 4871.38 723.752 4873.17 723.752ZM4918.65 723.752 4938.13 723.752C4939.93 723.752 4941.38 725.206 4941.38 727 4941.38 728.794 4939.93 730.248 4938.13 730.248L4918.65 730.248C4916.85 730.248 4915.4 728.794 4915.4 727 4915.4 725.206 4916.85 723.752 4918.65 723.752ZM4964.12 723.752 4983.61 723.752C4985.4 723.752 4986.85 725.206 4986.85 727 4986.85 728.794 4985.4 730.248 4983.61 730.248L4964.12 730.248C4962.32 730.248 4960.87 728.794 4960.87 727 4960.87 725.206 4962.32 723.752 4964.12 723.752ZM5009.59 723.752 5029.08 723.752C5030.87 723.752 5032.33 725.206 5032.33 727 5032.33 728.794 5030.87 730.248 5029.08 730.248L5009.59 730.248C5007.8 730.248 5006.34 728.794 5006.34 727 5006.34 725.206 5007.8 723.752 5009.59 723.752ZM5055.06 723.752 5074.55 723.752C5076.35 723.752 5077.8 725.206 5077.8 727 5077.8 728.794 5076.35 730.248 5074.55 730.248L5055.06 730.248C5053.27 730.248 5051.81 728.794 5051.81 727 5051.81 725.206 5053.27 723.752 5055.06 723.752ZM5100.54 723.752 5120.02 723.752C5121.82 723.752 5123.27 725.206 5123.27 727 5123.27 728.794 5121.82 730.248 5120.02 730.248L5100.54 730.248C5098.74 730.248 5097.29 728.794 5097.29 727 5097.29 725.206 5098.74 723.752 5100.54 723.752ZM5146.01 723.752 5165.5 723.752C5167.29 723.752 5168.74 725.206 5168.74 727 5168.74 728.794 5167.29 730.248 5165.5 730.248L5146.01 730.248C5144.21 730.248 5142.76 728.794 5142.76 727 5142.76 725.206 5144.21 723.752 5146.01 723.752ZM5191.48 723.752 5210.97 723.752C5212.76 723.752 5214.22 725.206 5214.22 727 5214.22 728.794 5212.76 730.248 5210.97 730.248L5191.48 730.248C5189.69 730.248 5188.23 728.794 5188.23 727 5188.23 725.206 5189.69 723.752 5191.48 723.752ZM5236.95 723.752 5256.44 723.752C5258.23 723.752 5259.69 725.206 5259.69 727 5259.69 728.794 5258.23 730.248 5256.44 730.248L5236.95 730.248C5235.16 730.248 5233.7 728.794 5233.7 727 5233.7 725.206 5235.16 723.752 5236.95 723.752ZM5282.43 723.752 5301.91 723.752C5303.71 723.752 5305.16 725.206 5305.16 727 5305.16 728.794 5303.71 730.248 5301.91 730.248L5282.43 730.248C5280.63 730.248 5279.18 728.794 5279.18 727 5279.18 725.206 5280.63 723.752 5282.43 723.752ZM5327.9 723.752 5347.39 723.752C5349.18 723.752 5350.63 725.206 5350.63 727 5350.63 728.794 5349.18 730.248 5347.39 730.248L5327.9 730.248C5326.1 730.248 5324.65 728.794 5324.65 727 5324.65 725.206 5326.1 723.752 5327.9 723.752ZM5373.37 723.752 5392.86 723.752C5394.65 723.752 5396.11 725.206 5396.11 727 5396.11 728.794 5394.65 730.248 5392.86 730.248L5373.37 730.248C5371.58 730.248 5370.12 728.794 5370.12 727 5370.12 725.206 5371.58 723.752 5373.37 723.752ZM5418.84 723.752 5438.33 723.752C5440.12 723.752 5441.58 725.206 5441.58 727 5441.58 728.794 5440.12 730.248 5438.33 730.248L5418.84 730.248C5417.05 730.248 5415.59 728.794 5415.59 727 5415.59 725.206 5417.05 723.752 5418.84 723.752ZM5464.31 723.752 5483.8 723.752C5485.6 723.752 5487.05 725.206 5487.05 727 5487.05 728.794 5485.6 730.248 5483.8 730.248L5464.31 730.248C5462.52 730.248 5461.07 728.794 5461.07 727 5461.07 725.206 5462.52 723.752 5464.31 723.752ZM5509.79 723.752 5529.28 723.752C5531.07 723.752 5532.52 725.206 5532.52 727 5532.52 728.794 5531.07 730.248 5529.28 730.248L5509.79 730.248C5507.99 730.248 5506.54 728.794 5506.54 727 5506.54 725.206 5507.99 723.752 5509.79 723.752ZM5555.26 723.752 5574.75 723.752C5576.54 723.752 5578 725.206 5578 727 5578 728.794 5576.54 730.248 5574.75 730.248L5555.26 730.248C5553.47 730.248 5552.01 728.794 5552.01 727 5552.01 725.206 5553.47 723.752 5555.26 723.752ZM5600.73 723.752 5620.22 723.752C5622.01 723.752 5623.47 725.206 5623.47 727 5623.47 728.794 5622.01 730.248 5620.22 730.248L5600.73 730.248C5598.94 730.248 5597.48 728.794 5597.48 727 5597.48 725.206 5598.94 723.752 5600.73 723.752ZM5646.2 723.752 5663 723.752 5665.69 723.752C5667.49 723.752 5668.94 725.206 5668.94 727 5668.94 728.794 5667.49 730.248 5665.69 730.248L5663 730.248 5646.2 730.248C5644.41 730.248 5642.96 728.794 5642.96 727 5642.96 725.206 5644.41 723.752 5646.2 723.752ZM5691.68 723.752 5711.17 723.752C5712.96 723.752 5714.41 725.206 5714.41 727 5714.41 728.794 5712.96 730.248 5711.17 730.248L5691.68 730.248C5689.88 730.248 5688.43 728.794 5688.43 727 5688.43 725.206 5689.88 723.752 5691.68 723.752ZM5737.15 723.752 5756.64 723.752C5758.43 723.752 5759.89 725.206 5759.89 727 5759.89 728.794 5758.43 730.248 5756.64 730.248L5737.15 730.248C5735.36 730.248 5733.9 728.794 5733.9 727 5733.9 725.206 5735.36 723.752 5737.15 723.752ZM5782.62 723.752 5802.11 723.752C5803.9 723.752 5805.36 725.206 5805.36 727 5805.36 728.794 5803.9 730.248 5802.11 730.248L5782.62 730.248C5780.83 730.248 5779.37 728.794 5779.37 727 5779.37 725.206 5780.83 723.752 5782.62 723.752ZM5828.09 723.752 5847.58 723.752C5849.38 723.752 5850.83 725.206 5850.83 727 5850.83 728.794 5849.38 730.248 5847.58 730.248L5828.09 730.248C5826.3 730.248 5824.85 728.794 5824.85 727 5824.85 725.206 5826.3 723.752 5828.09 723.752ZM5873.57 723.752 5893.06 723.752C5894.85 723.752 5896.3 725.206 5896.3 727 5896.3 728.794 5894.85 730.248 5893.06 730.248L5873.57 730.248C5871.77 730.248 5870.32 728.794 5870.32 727 5870.32 725.206 5871.77 723.752 5873.57 723.752ZM5919.04 723.752 5938.53 723.752C5940.32 723.752 5941.78 725.206 5941.78 727 5941.78 728.794 5940.32 730.248 5938.53 730.248L5919.04 730.248C5917.25 730.248 5915.79 728.794 5915.79 727 5915.79 725.206 5917.25 723.752 5919.04 723.752ZM5964.51 723.752 5984 723.752C5985.79 723.752 5987.25 725.206 5987.25 727 5987.25 728.794 5985.79 730.248 5984 730.248L5964.51 730.248C5962.72 730.248 5961.26 728.794 5961.26 727 5961.26 725.206 5962.72 723.752 5964.51 723.752ZM6009.98 723.752 6022 723.752 6029.47 723.752C6031.27 723.752 6032.72 725.206 6032.72 727 6032.72 728.794 6031.27 730.248 6029.47 730.248L6022 730.248 6009.98 730.248C6008.19 730.248 6006.74 728.794 6006.74 727 6006.74 725.206 6008.19 723.752 6009.98 723.752ZM6055.46 723.752 6074.94 723.752C6076.74 723.752 6078.19 725.206 6078.19 727 6078.19 728.794 6076.74 730.248 6074.94 730.248L6055.46 730.248C6053.66 730.248 6052.21 728.794 6052.21 727 6052.21 725.206 6053.66 723.752 6055.46 723.752ZM6100.93 723.752 6120.42 723.752C6122.21 723.752 6123.67 725.206 6123.67 727 6123.67 728.794 6122.21 730.248 6120.42 730.248L6100.93 730.248C6099.14 730.248 6097.68 728.794 6097.68 727 6097.68 725.206 6099.14 723.752 6100.93 723.752ZM6146.4 723.752 6165.89 723.752C6167.68 723.752 6169.14 725.206 6169.14 727 6169.14 728.794 6167.68 730.248 6165.89 730.248L6146.4 730.248C6144.61 730.248 6143.15 728.794 6143.15 727 6143.15 725.206 6144.61 723.752 6146.4 723.752ZM6191.87 723.752 6211.36 723.752C6213.16 723.752 6214.61 725.206 6214.61 727 6214.61 728.794 6213.16 730.248 6211.36 730.248L6191.87 730.248C6190.08 730.248 6188.63 728.794 6188.63 727 6188.63 725.206 6190.08 723.752 6191.87 723.752ZM6237.35 723.752 6256.83 723.752C6258.63 723.752 6260.08 725.206 6260.08 727 6260.08 728.794 6258.63 730.248 6256.83 730.248L6237.35 730.248C6235.55 730.248 6234.1 728.794 6234.1 727 6234.1 725.206 6235.55 723.752 6237.35 723.752ZM6282.82 723.752 6302.31 723.752C6304.1 723.752 6305.56 725.206 6305.56 727 6305.56 728.794 6304.1 730.248 6302.31 730.248L6282.82 730.248C6281.02 730.248 6279.57 728.794 6279.57 727 6279.57 725.206 6281.02 723.752 6282.82 723.752ZM6328.29 723.752 6347.78 723.752C6349.57 723.752 6351.03 725.206 6351.03 727 6351.03 728.794 6349.57 730.248 6347.78 730.248L6328.29 730.248C6326.5 730.248 6325.04 728.794 6325.04 727 6325.04 725.206 6326.5 723.752 6328.29 723.752ZM6373.76 723.752 6381 723.752C6382.79 723.752 6384.25 725.206 6384.25 727 6384.25 728.794 6382.79 730.248 6381 730.248L6373.76 730.248C6371.97 730.248 6370.52 728.794 6370.52 727 6370.52 725.206 6371.97 723.752 6373.76 723.752Z" fill="#FF0000" fill-rule="nonzero" fill-opacity="1"/></g><g><path d="M3508.5 1795.77 3519.41 1795.77C3520.92 1795.77 3522.14 1796.99 3522.14 1798.5 3522.14 1800.01 3520.92 1801.23 3519.41 1801.23L3508.5 1801.23C3506.99 1801.23 3505.77 1800.01 3505.77 1798.5 3505.77 1796.99 3506.99 1795.77 3508.5 1795.77ZM3530.33 1795.77 3541.24 1795.77C3542.75 1795.77 3543.97 1796.99 3543.97 1798.5 3543.97 1800.01 3542.75 1801.23 3541.24 1801.23L3530.33 1801.23C3528.82 1801.23 3527.6 1800.01 3527.6 1798.5 3527.6 1796.99 3528.82 1795.77 3530.33 1795.77ZM3552.15 1795.77 3563.07 1795.77C3564.57 1795.77 3565.8 1796.99 3565.8 1798.5 3565.8 1800.01 3564.57 1801.23 3563.07 1801.23L3552.15 1801.23C3550.65 1801.23 3549.43 1800.01 3549.43 1798.5 3549.43 1796.99 3550.65 1795.77 3552.15 1795.77ZM3573.98 1795.77 3584.89 1795.77C3586.4 1795.77 3587.62 1796.99 3587.62 1798.5 3587.62 1800.01 3586.4 1801.23 3584.89 1801.23L3573.98 1801.23C3572.47 1801.23 3571.25 1800.01 3571.25 1798.5 3571.25 1796.99 3572.47 1795.77 3573.98 1795.77ZM3595.81 1795.77 3606.72 1795.77C3608.23 1795.77 3609.45 1796.99 3609.45 1798.5 3609.45 1800.01 3608.23 1801.23 3606.72 1801.23L3595.81 1801.23C3594.3 1801.23 3593.08 1800.01 3593.08 1798.5 3593.08 1796.99 3594.3 1795.77 3595.81 1795.77ZM3617.63 1795.77 3628.55 1795.77C3630.05 1795.77 3631.28 1796.99 3631.28 1798.5 3631.28 1800.01 3630.05 1801.23 3628.55 1801.23L3617.63 1801.23C3616.13 1801.23 3614.91 1800.01 3614.91 1798.5 3614.91 1796.99 3616.13 1795.77 3617.63 1795.77ZM3639.46 1795.77 3650.37 1795.77C3651.88 1795.77 3653.1 1796.99 3653.1 1798.5 3653.1 1800.01 3651.88 1801.23 3650.37 1801.23L3639.46 1801.23C3637.95 1801.23 3636.73 1800.01 3636.73 1798.5 3636.73 1796.99 3637.95 1795.77 3639.46 1795.77ZM3661.29 1795.77 3672.2 1795.77C3673.71 1795.77 3674.93 1796.99 3674.93 1798.5 3674.93 1800.01 3673.71 1801.23 3672.2 1801.23L3661.29 1801.23C3659.78 1801.23 3658.56 1800.01 3658.56 1798.5 3658.56 1796.99 3659.78 1795.77 3661.29 1795.77ZM3683.11 1795.77 3694.03 1795.77C3695.53 1795.77 3696.76 1796.99 3696.76 1798.5 3696.76 1800.01 3695.53 1801.23 3694.03 1801.23L3683.11 1801.23C3681.61 1801.23 3680.39 1800.01 3680.39 1798.5 3680.39 1796.99 3681.61 1795.77 3683.11 1795.77ZM3704.94 1795.77 3715.85 1795.77C3717.36 1795.77 3718.58 1796.99 3718.58 1798.5 3718.58 1800.01 3717.36 1801.23 3715.85 1801.23L3704.94 1801.23C3703.43 1801.23 3702.21 1800.01 3702.21 1798.5 3702.21 1796.99 3703.43 1795.77 3704.94 1795.77ZM3726.77 1795.77 3737.68 1795.77C3739.19 1795.77 3740.41 1796.99 3740.41 1798.5 3740.41 1800.01 3739.19 1801.23 3737.68 1801.23L3726.77 1801.23C3725.26 1801.23 3724.04 1800.01 3724.04 1798.5 3724.04 1796.99 3725.26 1795.77 3726.77 1795.77ZM3748.59 1795.77 3759.51 1795.77C3761.01 1795.77 3762.24 1796.99 3762.24 1798.5 3762.24 1800.01 3761.01 1801.23 3759.51 1801.23L3748.59 1801.23C3747.09 1801.23 3745.87 1800.01 3745.87 1798.5 3745.87 1796.99 3747.09 1795.77 3748.59 1795.77ZM3770.42 1795.77 3781.33 1795.77C3782.84 1795.77 3784.06 1796.99 3784.06 1798.5 3784.06 1800.01 3782.84 1801.23 3781.33 1801.23L3770.42 1801.23C3768.91 1801.23 3767.69 1800.01 3767.69 1798.5 3767.69 1796.99 3768.91 1795.77 3770.42 1795.77ZM3792.25 1795.77 3803.16 1795.77C3804.67 1795.77 3805.89 1796.99 3805.89 1798.5 3805.89 1800.01 3804.67 1801.23 3803.16 1801.23L3792.25 1801.23C3790.74 1801.23 3789.52 1800.01 3789.52 1798.5 3789.52 1796.99 3790.74 1795.77 3792.25 1795.77ZM3814.07 1795.77 3824.99 1795.77C3826.5 1795.77 3827.72 1796.99 3827.72 1798.5 3827.72 1800.01 3826.5 1801.23 3824.99 1801.23L3814.07 1801.23C3812.57 1801.23 3811.35 1800.01 3811.35 1798.5 3811.35 1796.99 3812.57 1795.77 3814.07 1795.77ZM3835.9 1795.77 3846.82 1795.77C3848.32 1795.77 3849.54 1796.99 3849.54 1798.5 3849.54 1800.01 3848.32 1801.23 3846.82 1801.23L3835.9 1801.23C3834.4 1801.23 3833.17 1800.01 3833.17 1798.5 3833.17 1796.99 3834.4 1795.77 3835.9 1795.77ZM3857.73 1795.77 3867.5 1795.77 3868.64 1795.77C3870.15 1795.77 3871.37 1796.99 3871.37 1798.5 3871.37 1800.01 3870.15 1801.23 3868.64 1801.23L3867.5 1801.23 3857.73 1801.23C3856.22 1801.23 3855 1800.01 3855 1798.5 3855 1796.99 3856.22 1795.77 3857.73 1795.77ZM3879.56 1795.77 3890.47 1795.77C3891.98 1795.77 3893.2 1796.99 3893.2 1798.5 3893.2 1800.01 3891.98 1801.23 3890.47 1801.23L3879.56 1801.23C3878.05 1801.23 3876.83 1800.01 3876.83 1798.5 3876.83 1796.99 3878.05 1795.77 3879.56 1795.77ZM3901.38 1795.77 3912.3 1795.77C3913.8 1795.77 3915.02 1796.99 3915.02 1798.5 3915.02 1800.01 3913.8 1801.23 3912.3 1801.23L3901.38 1801.23C3899.88 1801.23 3898.65 1800.01 3898.65 1798.5 3898.65 1796.99 3899.88 1795.77 3901.38 1795.77ZM3923.21 1795.77 3934.12 1795.77C3935.63 1795.77 3936.85 1796.99 3936.85 1798.5 3936.85 1800.01 3935.63 1801.23 3934.12 1801.23L3923.21 1801.23C3921.7 1801.23 3920.48 1800.01 3920.48 1798.5 3920.48 1796.99 3921.7 1795.77 3923.21 1795.77ZM3945.04 1795.77 3955.95 1795.77C3957.46 1795.77 3958.68 1796.99 3958.68 1798.5 3958.68 1800.01 3957.46 1801.23 3955.95 1801.23L3945.04 1801.23C3943.53 1801.23 3942.31 1800.01 3942.31 1798.5 3942.31 1796.99 3943.53 1795.77 3945.04 1795.77ZM3966.86 1795.77 3977.78 1795.77C3979.28 1795.77 3980.5 1796.99 3980.5 1798.5 3980.5 1800.01 3979.28 1801.23 3977.78 1801.23L3966.86 1801.23C3965.36 1801.23 3964.13 1800.01 3964.13 1798.5 3964.13 1796.99 3965.36 1795.77 3966.86 1795.77ZM3988.69 1795.77 3999.6 1795.77C4001.11 1795.77 4002.33 1796.99 4002.33 1798.5 4002.33 1800.01 4001.11 1801.23 3999.6 1801.23L3988.69 1801.23C3987.18 1801.23 3985.96 1800.01 3985.96 1798.5 3985.96 1796.99 3987.18 1795.77 3988.69 1795.77ZM4010.52 1795.77 4021.43 1795.77C4022.94 1795.77 4024.16 1796.99 4024.16 1798.5 4024.16 1800.01 4022.94 1801.23 4021.43 1801.23L4010.52 1801.23C4009.01 1801.23 4007.79 1800.01 4007.79 1798.5 4007.79 1796.99 4009.01 1795.77 4010.52 1795.77ZM4032.34 1795.77 4043.26 1795.77C4044.76 1795.77 4045.98 1796.99 4045.98 1798.5 4045.98 1800.01 4044.76 1801.23 4043.26 1801.23L4032.34 1801.23C4030.84 1801.23 4029.61 1800.01 4029.61 1798.5 4029.61 1796.99 4030.84 1795.77 4032.34 1795.77ZM4054.17 1795.77 4065.08 1795.77C4066.59 1795.77 4067.81 1796.99 4067.81 1798.5 4067.81 1800.01 4066.59 1801.23 4065.08 1801.23L4054.17 1801.23C4052.66 1801.23 4051.44 1800.01 4051.44 1798.5 4051.44 1796.99 4052.66 1795.77 4054.17 1795.77ZM4076 1795.77 4086.91 1795.77C4088.42 1795.77 4089.64 1796.99 4089.64 1798.5 4089.64 1800.01 4088.42 1801.23 4086.91 1801.23L4076 1801.23C4074.49 1801.23 4073.27 1800.01 4073.27 1798.5 4073.27 1796.99 4074.49 1795.77 4076 1795.77ZM4097.82 1795.77 4108.74 1795.77C4110.24 1795.77 4111.46 1796.99 4111.46 1798.5 4111.46 1800.01 4110.24 1801.23 4108.74 1801.23L4097.82 1801.23C4096.32 1801.23 4095.09 1800.01 4095.09 1798.5 4095.09 1796.99 4096.32 1795.77 4097.82 1795.77ZM4119.65 1795.77 4130.56 1795.77C4132.07 1795.77 4133.29 1796.99 4133.29 1798.5 4133.29 1800.01 4132.07 1801.23 4130.56 1801.23L4119.65 1801.23C4118.14 1801.23 4116.92 1800.01 4116.92 1798.5 4116.92 1796.99 4118.14 1795.77 4119.65 1795.77ZM4141.48 1795.77 4152.39 1795.77C4153.9 1795.77 4155.12 1796.99 4155.12 1798.5 4155.12 1800.01 4153.9 1801.23 4152.39 1801.23L4141.48 1801.23C4139.97 1801.23 4138.75 1800.01 4138.75 1798.5 4138.75 1796.99 4139.97 1795.77 4141.48 1795.77ZM4163.3 1795.77 4174.22 1795.77C4175.72 1795.77 4176.95 1796.99 4176.95 1798.5 4176.95 1800.01 4175.72 1801.23 4174.22 1801.23L4163.3 1801.23C4161.8 1801.23 4160.58 1800.01 4160.58 1798.5 4160.58 1796.99 4161.8 1795.77 4163.3 1795.77ZM4185.13 1795.77 4196.04 1795.77C4197.55 1795.77 4198.77 1796.99 4198.77 1798.5 4198.77 1800.01 4197.55 1801.23 4196.04 1801.23L4185.13 1801.23C4183.62 1801.23 4182.4 1800.01 4182.4 1798.5 4182.4 1796.99 4183.62 1795.77 4185.13 1795.77ZM4206.96 1795.77 4217.87 1795.77C4219.38 1795.77 4220.6 1796.99 4220.6 1798.5 4220.6 1800.01 4219.38 1801.23 4217.87 1801.23L4206.96 1801.23C4205.45 1801.23 4204.23 1800.01 4204.23 1798.5 4204.23 1796.99 4205.45 1795.77 4206.96 1795.77ZM4228.78 1795.77 4239.7 1795.77C4241.2 1795.77 4242.43 1796.99 4242.43 1798.5 4242.43 1800.01 4241.2 1801.23 4239.7 1801.23L4228.78 1801.23C4227.28 1801.23 4226.06 1800.01 4226.06 1798.5 4226.06 1796.99 4227.28 1795.77 4228.78 1795.77ZM4250.61 1795.77 4261.52 1795.77C4263.03 1795.77 4264.25 1796.99 4264.25 1798.5 4264.25 1800.01 4263.03 1801.23 4261.52 1801.23L4250.61 1801.23C4249.1 1801.23 4247.88 1800.01 4247.88 1798.5 4247.88 1796.99 4249.1 1795.77 4250.61 1795.77ZM4272.44 1795.77 4283.35 1795.77C4284.86 1795.77 4286.08 1796.99 4286.08 1798.5 4286.08 1800.01 4284.86 1801.23 4283.35 1801.23L4272.44 1801.23C4270.93 1801.23 4269.71 1800.01 4269.71 1798.5 4269.71 1796.99 4270.93 1795.77 4272.44 1795.77ZM4294.26 1795.77 4305.18 1795.77C4306.68 1795.77 4307.91 1796.99 4307.91 1798.5 4307.91 1800.01 4306.68 1801.23 4305.18 1801.23L4294.26 1801.23C4292.76 1801.23 4291.54 1800.01 4291.54 1798.5 4291.54 1796.99 4292.76 1795.77 4294.26 1795.77ZM4316.09 1795.77 4327 1795.77C4328.51 1795.77 4329.73 1796.99 4329.73 1798.5 4329.73 1800.01 4328.51 1801.23 4327 1801.23L4316.09 1801.23C4314.58 1801.23 4313.36 1800.01 4313.36 1798.5 4313.36 1796.99 4314.58 1795.77 4316.09 1795.77ZM4337.92 1795.77 4348.83 1795.77C4350.34 1795.77 4351.56 1796.99 4351.56 1798.5 4351.56 1800.01 4350.34 1801.23 4348.83 1801.23L4337.92 1801.23C4336.41 1801.23 4335.19 1800.01 4335.19 1798.5 4335.19 1796.99 4336.41 1795.77 4337.92 1795.77ZM4359.74 1795.77 4370.66 1795.77C4372.16 1795.77 4373.39 1796.99 4373.39 1798.5 4373.39 1800.01 4372.16 1801.23 4370.66 1801.23L4359.74 1801.23C4358.24 1801.23 4357.02 1800.01 4357.02 1798.5 4357.02 1796.99 4358.24 1795.77 4359.74 1795.77ZM4381.57 1795.77 4392.48 1795.77C4393.99 1795.77 4395.21 1796.99 4395.21 1798.5 4395.21 1800.01 4393.99 1801.23 4392.48 1801.23L4381.57 1801.23C4380.06 1801.23 4378.84 1800.01 4378.84 1798.5 4378.84 1796.99 4380.06 1795.77 4381.57 1795.77ZM4403.4 1795.77 4414.31 1795.77C4415.82 1795.77 4417.04 1796.99 4417.04 1798.5 4417.04 1800.01 4415.82 1801.23 4414.31 1801.23L4403.4 1801.23C4401.89 1801.23 4400.67 1800.01 4400.67 1798.5 4400.67 1796.99 4401.89 1795.77 4403.4 1795.77ZM4425.22 1795.77 4436.14 1795.77C4437.65 1795.77 4438.87 1796.99 4438.87 1798.5 4438.87 1800.01 4437.65 1801.23 4436.14 1801.23L4425.22 1801.23C4423.72 1801.23 4422.5 1800.01 4422.5 1798.5 4422.5 1796.99 4423.72 1795.77 4425.22 1795.77ZM4447.05 1795.77 4457.96 1795.77C4459.47 1795.77 4460.69 1796.99 4460.69 1798.5 4460.69 1800.01 4459.47 1801.23 4457.96 1801.23L4447.05 1801.23C4445.54 1801.23 4444.32 1800.01 4444.32 1798.5 4444.32 1796.99 4445.54 1795.77 4447.05 1795.77ZM4468.88 1795.77 4479.79 1795.77C4481.3 1795.77 4482.52 1796.99 4482.52 1798.5 4482.52 1800.01 4481.3 1801.23 4479.79 1801.23L4468.88 1801.23C4467.37 1801.23 4466.15 1800.01 4466.15 1798.5 4466.15 1796.99 4467.37 1795.77 4468.88 1795.77ZM4490.71 1795.77 4501.62 1795.77C4503.12 1795.77 4504.35 1796.99 4504.35 1798.5 4504.35 1800.01 4503.12 1801.23 4501.62 1801.23L4490.71 1801.23C4489.2 1801.23 4487.98 1800.01 4487.98 1798.5 4487.98 1796.99 4489.2 1795.77 4490.71 1795.77ZM4512.53 1795.77 4523.45 1795.77C4524.95 1795.77 4526.17 1796.99 4526.17 1798.5 4526.17 1800.01 4524.95 1801.23 4523.45 1801.23L4512.53 1801.23C4511.02 1801.23 4509.8 1800.01 4509.8 1798.5 4509.8 1796.99 4511.02 1795.77 4512.53 1795.77ZM4534.36 1795.77 4545.27 1795.77C4546.78 1795.77 4548 1796.99 4548 1798.5 4548 1800.01 4546.78 1801.23 4545.27 1801.23L4534.36 1801.23C4532.85 1801.23 4531.63 1800.01 4531.63 1798.5 4531.63 1796.99 4532.85 1795.77 4534.36 1795.77ZM4556.19 1795.77 4567.1 1795.77C4568.61 1795.77 4569.83 1796.99 4569.83 1798.5 4569.83 1800.01 4568.61 1801.23 4567.1 1801.23L4556.19 1801.23C4554.68 1801.23 4553.46 1800.01 4553.46 1798.5 4553.46 1796.99 4554.68 1795.77 4556.19 1795.77ZM4578.01 1795.77 4585.5 1795.77 4588.93 1795.77C4590.43 1795.77 4591.65 1796.99 4591.65 1798.5 4591.65 1800.01 4590.43 1801.23 4588.93 1801.23L4585.5 1801.23 4578.01 1801.23C4576.51 1801.23 4575.28 1800.01 4575.28 1798.5 4575.28 1796.99 4576.51 1795.77 4578.01 1795.77ZM4599.84 1795.77 4610.75 1795.77C4612.26 1795.77 4613.48 1796.99 4613.48 1798.5 4613.48 1800.01 4612.26 1801.23 4610.75 1801.23L4599.84 1801.23C4598.33 1801.23 4597.11 1800.01 4597.11 1798.5 4597.11 1796.99 4598.33 1795.77 4599.84 1795.77ZM4621.67 1795.77 4632.58 1795.77C4634.09 1795.77 4635.31 1796.99 4635.31 1798.5 4635.31 1800.01 4634.09 1801.23 4632.58 1801.23L4621.67 1801.23C4620.16 1801.23 4618.94 1800.01 4618.94 1798.5 4618.94 1796.99 4620.16 1795.77 4621.67 1795.77ZM4643.49 1795.77 4654.41 1795.77C4655.91 1795.77 4657.13 1796.99 4657.13 1798.5 4657.13 1800.01 4655.91 1801.23 4654.41 1801.23L4643.49 1801.23C4641.99 1801.23 4640.76 1800.01 4640.76 1798.5 4640.76 1796.99 4641.99 1795.77 4643.49 1795.77ZM4665.32 1795.77 4676.23 1795.77C4677.74 1795.77 4678.96 1796.99 4678.96 1798.5 4678.96 1800.01 4677.74 1801.23 4676.23 1801.23L4665.32 1801.23C4663.81 1801.23 4662.59 1800.01 4662.59 1798.5 4662.59 1796.99 4663.81 1795.77 4665.32 1795.77ZM4687.15 1795.77 4698.06 1795.77C4699.57 1795.77 4700.79 1796.99 4700.79 1798.5 4700.79 1800.01 4699.57 1801.23 4698.06 1801.23L4687.15 1801.23C4685.64 1801.23 4684.42 1800.01 4684.42 1798.5 4684.42 1796.99 4685.64 1795.77 4687.15 1795.77ZM4708.97 1795.77 4719.89 1795.77C4721.39 1795.77 4722.61 1796.99 4722.61 1798.5 4722.61 1800.01 4721.39 1801.23 4719.89 1801.23L4708.97 1801.23C4707.47 1801.23 4706.24 1800.01 4706.24 1798.5 4706.24 1796.99 4707.47 1795.77 4708.97 1795.77ZM4730.8 1795.77 4741.71 1795.77C4743.22 1795.77 4744.44 1796.99 4744.44 1798.5 4744.44 1800.01 4743.22 1801.23 4741.71 1801.23L4730.8 1801.23C4729.29 1801.23 4728.07 1800.01 4728.07 1798.5 4728.07 1796.99 4729.29 1795.77 4730.8 1795.77ZM4752.63 1795.77 4763.54 1795.77C4765.05 1795.77 4766.27 1796.99 4766.27 1798.5 4766.27 1800.01 4765.05 1801.23 4763.54 1801.23L4752.63 1801.23C4751.12 1801.23 4749.9 1800.01 4749.9 1798.5 4749.9 1796.99 4751.12 1795.77 4752.63 1795.77ZM4774.45 1795.77 4785.37 1795.77C4786.87 1795.77 4788.09 1796.99 4788.09 1798.5 4788.09 1800.01 4786.87 1801.23 4785.37 1801.23L4774.45 1801.23C4772.95 1801.23 4771.72 1800.01 4771.72 1798.5 4771.72 1796.99 4772.95 1795.77 4774.45 1795.77ZM4796.28 1795.77 4807.19 1795.77C4808.7 1795.77 4809.92 1796.99 4809.92 1798.5 4809.92 1800.01 4808.7 1801.23 4807.19 1801.23L4796.28 1801.23C4794.77 1801.23 4793.55 1800.01 4793.55 1798.5 4793.55 1796.99 4794.77 1795.77 4796.28 1795.77ZM4818.11 1795.77 4829.02 1795.77C4830.53 1795.77 4831.75 1796.99 4831.75 1798.5 4831.75 1800.01 4830.53 1801.23 4829.02 1801.23L4818.11 1801.23C4816.6 1801.23 4815.38 1800.01 4815.38 1798.5 4815.38 1796.99 4816.6 1795.77 4818.11 1795.77ZM4839.93 1795.77 4850.85 1795.77C4852.35 1795.77 4853.58 1796.99 4853.58 1798.5 4853.58 1800.01 4852.35 1801.23 4850.85 1801.23L4839.93 1801.23C4838.43 1801.23 4837.21 1800.01 4837.21 1798.5 4837.21 1796.99 4838.43 1795.77 4839.93 1795.77ZM4861.76 1795.77 4872.67 1795.77C4874.18 1795.77 4875.4 1796.99 4875.4 1798.5 4875.4 1800.01 4874.18 1801.23 4872.67 1801.23L4861.76 1801.23C4860.25 1801.23 4859.03 1800.01 4859.03 1798.5 4859.03 1796.99 4860.25 1795.77 4861.76 1795.77ZM4883.59 1795.77 4894.5 1795.77C4896.01 1795.77 4897.23 1796.99 4897.23 1798.5 4897.23 1800.01 4896.01 1801.23 4894.5 1801.23L4883.59 1801.23C4882.08 1801.23 4880.86 1800.01 4880.86 1798.5 4880.86 1796.99 4882.08 1795.77 4883.59 1795.77ZM4905.41 1795.77 4916.33 1795.77C4917.83 1795.77 4919.06 1796.99 4919.06 1798.5 4919.06 1800.01 4917.83 1801.23 4916.33 1801.23L4905.41 1801.23C4903.91 1801.23 4902.69 1800.01 4902.69 1798.5 4902.69 1796.99 4903.91 1795.77 4905.41 1795.77ZM4927.24 1795.77 4938.15 1795.77C4939.66 1795.77 4940.88 1796.99 4940.88 1798.5 4940.88 1800.01 4939.66 1801.23 4938.15 1801.23L4927.24 1801.23C4925.73 1801.23 4924.51 1800.01 4924.51 1798.5 4924.51 1796.99 4925.73 1795.77 4927.24 1795.77ZM4949.07 1795.77 4959.98 1795.77C4961.49 1795.77 4962.71 1796.99 4962.71 1798.5 4962.71 1800.01 4961.49 1801.23 4959.98 1801.23L4949.07 1801.23C4947.56 1801.23 4946.34 1800.01 4946.34 1798.5 4946.34 1796.99 4947.56 1795.77 4949.07 1795.77ZM4970.89 1795.77 4981.81 1795.77C4983.31 1795.77 4984.54 1796.99 4984.54 1798.5 4984.54 1800.01 4983.31 1801.23 4981.81 1801.23L4970.89 1801.23C4969.39 1801.23 4968.17 1800.01 4968.17 1798.5 4968.17 1796.99 4969.39 1795.77 4970.89 1795.77ZM4992.72 1795.77 5003.63 1795.77C5005.14 1795.77 5006.36 1796.99 5006.36 1798.5 5006.36 1800.01 5005.14 1801.23 5003.63 1801.23L4992.72 1801.23C4991.21 1801.23 4989.99 1800.01 4989.99 1798.5 4989.99 1796.99 4991.21 1795.77 4992.72 1795.77ZM5014.55 1795.77 5025.46 1795.77C5026.97 1795.77 5028.19 1796.99 5028.19 1798.5 5028.19 1800.01 5026.97 1801.23 5025.46 1801.23L5014.55 1801.23C5013.04 1801.23 5011.82 1800.01 5011.82 1798.5 5011.82 1796.99 5013.04 1795.77 5014.55 1795.77ZM5036.37 1795.77 5047.29 1795.77C5048.79 1795.77 5050.02 1796.99 5050.02 1798.5 5050.02 1800.01 5048.79 1801.23 5047.29 1801.23L5036.37 1801.23C5034.87 1801.23 5033.65 1800.01 5033.65 1798.5 5033.65 1796.99 5034.87 1795.77 5036.37 1795.77ZM5058.2 1795.77 5069.11 1795.77C5070.62 1795.77 5071.84 1796.99 5071.84 1798.5 5071.84 1800.01 5070.62 1801.23 5069.11 1801.23L5058.2 1801.23C5056.69 1801.23 5055.47 1800.01 5055.47 1798.5 5055.47 1796.99 5056.69 1795.77 5058.2 1795.77ZM5080.03 1795.77 5090.94 1795.77C5092.45 1795.77 5093.67 1796.99 5093.67 1798.5 5093.67 1800.01 5092.45 1801.23 5090.94 1801.23L5080.03 1801.23C5078.52 1801.23 5077.3 1800.01 5077.3 1798.5 5077.3 1796.99 5078.52 1795.77 5080.03 1795.77ZM5101.85 1795.77 5112.77 1795.77C5114.27 1795.77 5115.5 1796.99 5115.5 1798.5 5115.5 1800.01 5114.27 1801.23 5112.77 1801.23L5101.85 1801.23C5100.35 1801.23 5099.13 1800.01 5099.13 1798.5 5099.13 1796.99 5100.35 1795.77 5101.85 1795.77ZM5123.68 1795.77 5134.59 1795.77C5136.1 1795.77 5137.32 1796.99 5137.32 1798.5 5137.32 1800.01 5136.1 1801.23 5134.59 1801.23L5123.68 1801.23C5122.17 1801.23 5120.95 1800.01 5120.95 1798.5 5120.95 1796.99 5122.17 1795.77 5123.68 1795.77ZM5145.51 1795.77 5156.42 1795.77C5157.93 1795.77 5159.15 1796.99 5159.15 1798.5 5159.15 1800.01 5157.93 1801.23 5156.42 1801.23L5145.51 1801.23C5144 1801.23 5142.78 1800.01 5142.78 1798.5 5142.78 1796.99 5144 1795.77 5145.51 1795.77ZM5167.33 1795.77 5178.25 1795.77C5179.76 1795.77 5180.98 1796.99 5180.98 1798.5 5180.98 1800.01 5179.76 1801.23 5178.25 1801.23L5167.33 1801.23C5165.83 1801.23 5164.61 1800.01 5164.61 1798.5 5164.61 1796.99 5165.83 1795.77 5167.33 1795.77ZM5189.16 1795.77 5200.08 1795.77C5201.58 1795.77 5202.8 1796.99 5202.8 1798.5 5202.8 1800.01 5201.58 1801.23 5200.08 1801.23L5189.16 1801.23C5187.65 1801.23 5186.43 1800.01 5186.43 1798.5 5186.43 1796.99 5187.65 1795.77 5189.16 1795.77ZM5210.99 1795.77 5221.9 1795.77C5223.41 1795.77 5224.63 1796.99 5224.63 1798.5 5224.63 1800.01 5223.41 1801.23 5221.9 1801.23L5210.99 1801.23C5209.48 1801.23 5208.26 1800.01 5208.26 1798.5 5208.26 1796.99 5209.48 1795.77 5210.99 1795.77ZM5232.82 1795.77 5243.73 1795.77C5245.24 1795.77 5246.46 1796.99 5246.46 1798.5 5246.46 1800.01 5245.24 1801.23 5243.73 1801.23L5232.82 1801.23C5231.31 1801.23 5230.09 1800.01 5230.09 1798.5 5230.09 1796.99 5231.31 1795.77 5232.82 1795.77ZM5254.64 1795.77 5265.56 1795.77C5267.06 1795.77 5268.28 1796.99 5268.28 1798.5 5268.28 1800.01 5267.06 1801.23 5265.56 1801.23L5254.64 1801.23C5253.14 1801.23 5251.91 1800.01 5251.91 1798.5 5251.91 1796.99 5253.14 1795.77 5254.64 1795.77ZM5276.47 1795.77 5287.38 1795.77C5288.89 1795.77 5290.11 1796.99 5290.11 1798.5 5290.11 1800.01 5288.89 1801.23 5287.38 1801.23L5276.47 1801.23C5274.96 1801.23 5273.74 1800.01 5273.74 1798.5 5273.74 1796.99 5274.96 1795.77 5276.47 1795.77ZM5298.3 1795.77 5303.5 1795.77 5309.21 1795.77C5310.72 1795.77 5311.94 1796.99 5311.94 1798.5 5311.94 1800.01 5310.72 1801.23 5309.21 1801.23L5303.5 1801.23 5298.3 1801.23C5296.79 1801.23 5295.57 1800.01 5295.57 1798.5 5295.57 1796.99 5296.79 1795.77 5298.3 1795.77ZM5320.12 1795.77 5331.04 1795.77C5332.54 1795.77 5333.76 1796.99 5333.76 1798.5 5333.76 1800.01 5332.54 1801.23 5331.04 1801.23L5320.12 1801.23C5318.62 1801.23 5317.39 1800.01 5317.39 1798.5 5317.39 1796.99 5318.62 1795.77 5320.12 1795.77ZM5341.95 1795.77 5352.86 1795.77C5354.37 1795.77 5355.59 1796.99 5355.59 1798.5 5355.59 1800.01 5354.37 1801.23 5352.86 1801.23L5341.95 1801.23C5340.44 1801.23 5339.22 1800.01 5339.22 1798.5 5339.22 1796.99 5340.44 1795.77 5341.95 1795.77ZM5363.78 1795.77 5374.69 1795.77C5376.2 1795.77 5377.42 1796.99 5377.42 1798.5 5377.42 1800.01 5376.2 1801.23 5374.69 1801.23L5363.78 1801.23C5362.27 1801.23 5361.05 1800.01 5361.05 1798.5 5361.05 1796.99 5362.27 1795.77 5363.78 1795.77ZM5385.6 1795.77 5396.52 1795.77C5398.02 1795.77 5399.24 1796.99 5399.24 1798.5 5399.24 1800.01 5398.02 1801.23 5396.52 1801.23L5385.6 1801.23C5384.1 1801.23 5382.87 1800.01 5382.87 1798.5 5382.87 1796.99 5384.1 1795.77 5385.6 1795.77ZM5407.43 1795.77 5418.34 1795.77C5419.85 1795.77 5421.07 1796.99 5421.07 1798.5 5421.07 1800.01 5419.85 1801.23 5418.34 1801.23L5407.43 1801.23C5405.92 1801.23 5404.7 1800.01 5404.7 1798.5 5404.7 1796.99 5405.92 1795.77 5407.43 1795.77ZM5429.26 1795.77 5440.17 1795.77C5441.68 1795.77 5442.9 1796.99 5442.9 1798.5 5442.9 1800.01 5441.68 1801.23 5440.17 1801.23L5429.26 1801.23C5427.75 1801.23 5426.53 1800.01 5426.53 1798.5 5426.53 1796.99 5427.75 1795.77 5429.26 1795.77ZM5451.08 1795.77 5462 1795.77C5463.5 1795.77 5464.72 1796.99 5464.72 1798.5 5464.72 1800.01 5463.5 1801.23 5462 1801.23L5451.08 1801.23C5449.58 1801.23 5448.35 1800.01 5448.35 1798.5 5448.35 1796.99 5449.58 1795.77 5451.08 1795.77ZM5472.91 1795.77 5483.82 1795.77C5485.33 1795.77 5486.55 1796.99 5486.55 1798.5 5486.55 1800.01 5485.33 1801.23 5483.82 1801.23L5472.91 1801.23C5471.4 1801.23 5470.18 1800.01 5470.18 1798.5 5470.18 1796.99 5471.4 1795.77 5472.91 1795.77ZM5494.74 1795.77 5505.65 1795.77C5507.16 1795.77 5508.38 1796.99 5508.38 1798.5 5508.38 1800.01 5507.16 1801.23 5505.65 1801.23L5494.74 1801.23C5493.23 1801.23 5492.01 1800.01 5492.01 1798.5 5492.01 1796.99 5493.23 1795.77 5494.74 1795.77ZM5516.56 1795.77 5527.48 1795.77C5528.98 1795.77 5530.21 1796.99 5530.21 1798.5 5530.21 1800.01 5528.98 1801.23 5527.48 1801.23L5516.56 1801.23C5515.06 1801.23 5513.83 1800.01 5513.83 1798.5 5513.83 1796.99 5515.06 1795.77 5516.56 1795.77ZM5538.39 1795.77 5549.3 1795.77C5550.81 1795.77 5552.03 1796.99 5552.03 1798.5 5552.03 1800.01 5550.81 1801.23 5549.3 1801.23L5538.39 1801.23C5536.88 1801.23 5535.66 1800.01 5535.66 1798.5 5535.66 1796.99 5536.88 1795.77 5538.39 1795.77ZM5560.22 1795.77 5571.13 1795.77C5572.64 1795.77 5573.86 1796.99 5573.86 1798.5 5573.86 1800.01 5572.64 1801.23 5571.13 1801.23L5560.22 1801.23C5558.71 1801.23 5557.49 1800.01 5557.49 1798.5 5557.49 1796.99 5558.71 1795.77 5560.22 1795.77ZM5582.04 1795.77 5592.96 1795.77C5594.46 1795.77 5595.69 1796.99 5595.69 1798.5 5595.69 1800.01 5594.46 1801.23 5592.96 1801.23L5582.04 1801.23C5580.54 1801.23 5579.32 1800.01 5579.32 1798.5 5579.32 1796.99 5580.54 1795.77 5582.04 1795.77ZM5603.87 1795.77 5614.78 1795.77C5616.29 1795.77 5617.51 1796.99 5617.51 1798.5 5617.51 1800.01 5616.29 1801.23 5614.78 1801.23L5603.87 1801.23C5602.36 1801.23 5601.14 1800.01 5601.14 1798.5 5601.14 1796.99 5602.36 1795.77 5603.87 1795.77ZM5625.7 1795.77 5636.61 1795.77C5638.12 1795.77 5639.34 1796.99 5639.34 1798.5 5639.34 1800.01 5638.12 1801.23 5636.61 1801.23L5625.7 1801.23C5624.19 1801.23 5622.97 1800.01 5622.97 1798.5 5622.97 1796.99 5624.19 1795.77 5625.7 1795.77ZM5647.52 1795.77 5658.44 1795.77C5659.94 1795.77 5661.17 1796.99 5661.17 1798.5 5661.17 1800.01 5659.94 1801.23 5658.44 1801.23L5647.52 1801.23C5646.02 1801.23 5644.8 1800.01 5644.8 1798.5 5644.8 1796.99 5646.02 1795.77 5647.52 1795.77ZM5669.35 1795.77 5680.26 1795.77C5681.77 1795.77 5682.99 1796.99 5682.99 1798.5 5682.99 1800.01 5681.77 1801.23 5680.26 1801.23L5669.35 1801.23C5667.84 1801.23 5666.62 1800.01 5666.62 1798.5 5666.62 1796.99 5667.84 1795.77 5669.35 1795.77ZM5691.18 1795.77 5702.09 1795.77C5703.6 1795.77 5704.82 1796.99 5704.82 1798.5 5704.82 1800.01 5703.6 1801.23 5702.09 1801.23L5691.18 1801.23C5689.67 1801.23 5688.45 1800.01 5688.45 1798.5 5688.45 1796.99 5689.67 1795.77 5691.18 1795.77ZM5713 1795.77 5723.92 1795.77C5725.42 1795.77 5726.65 1796.99 5726.65 1798.5 5726.65 1800.01 5725.42 1801.23 5723.92 1801.23L5713 1801.23C5711.5 1801.23 5710.28 1800.01 5710.28 1798.5 5710.28 1796.99 5711.5 1795.77 5713 1795.77ZM5734.83 1795.77 5745.74 1795.77C5747.25 1795.77 5748.47 1796.99 5748.47 1798.5 5748.47 1800.01 5747.25 1801.23 5745.74 1801.23L5734.83 1801.23C5733.32 1801.23 5732.1 1800.01 5732.1 1798.5 5732.1 1796.99 5733.32 1795.77 5734.83 1795.77ZM5756.66 1795.77 5767.57 1795.77C5769.08 1795.77 5770.3 1796.99 5770.3 1798.5 5770.3 1800.01 5769.08 1801.23 5767.57 1801.23L5756.66 1801.23C5755.15 1801.23 5753.93 1800.01 5753.93 1798.5 5753.93 1796.99 5755.15 1795.77 5756.66 1795.77ZM5778.48 1795.77 5789.4 1795.77C5790.9 1795.77 5792.13 1796.99 5792.13 1798.5 5792.13 1800.01 5790.9 1801.23 5789.4 1801.23L5778.48 1801.23C5776.98 1801.23 5775.76 1800.01 5775.76 1798.5 5775.76 1796.99 5776.98 1795.77 5778.48 1795.77ZM5800.31 1795.77 5811.22 1795.77C5812.73 1795.77 5813.95 1796.99 5813.95 1798.5 5813.95 1800.01 5812.73 1801.23 5811.22 1801.23L5800.31 1801.23C5798.8 1801.23 5797.58 1800.01 5797.58 1798.5 5797.58 1796.99 5798.8 1795.77 5800.31 1795.77ZM5822.14 1795.77 5833.05 1795.77C5834.56 1795.77 5835.78 1796.99 5835.78 1798.5 5835.78 1800.01 5834.56 1801.23 5833.05 1801.23L5822.14 1801.23C5820.63 1801.23 5819.41 1800.01 5819.41 1798.5 5819.41 1796.99 5820.63 1795.77 5822.14 1795.77ZM5843.96 1795.77 5854.88 1795.77C5856.39 1795.77 5857.61 1796.99 5857.61 1798.5 5857.61 1800.01 5856.39 1801.23 5854.88 1801.23L5843.96 1801.23C5842.46 1801.23 5841.24 1800.01 5841.24 1798.5 5841.24 1796.99 5842.46 1795.77 5843.96 1795.77ZM5865.79 1795.77 5876.71 1795.77C5878.21 1795.77 5879.43 1796.99 5879.43 1798.5 5879.43 1800.01 5878.21 1801.23 5876.71 1801.23L5865.79 1801.23C5864.28 1801.23 5863.06 1800.01 5863.06 1798.5 5863.06 1796.99 5864.28 1795.77 5865.79 1795.77ZM5887.62 1795.77 5898.53 1795.77C5900.04 1795.77 5901.26 1796.99 5901.26 1798.5 5901.26 1800.01 5900.04 1801.23 5898.53 1801.23L5887.62 1801.23C5886.11 1801.23 5884.89 1800.01 5884.89 1798.5 5884.89 1796.99 5886.11 1795.77 5887.62 1795.77ZM5909.45 1795.77 5920.36 1795.77C5921.87 1795.77 5923.09 1796.99 5923.09 1798.5 5923.09 1800.01 5921.87 1801.23 5920.36 1801.23L5909.45 1801.23C5907.94 1801.23 5906.72 1800.01 5906.72 1798.5 5906.72 1796.99 5907.94 1795.77 5909.45 1795.77ZM5931.27 1795.77 5942.19 1795.77C5943.69 1795.77 5944.91 1796.99 5944.91 1798.5 5944.91 1800.01 5943.69 1801.23 5942.19 1801.23L5931.27 1801.23C5929.77 1801.23 5928.54 1800.01 5928.54 1798.5 5928.54 1796.99 5929.77 1795.77 5931.27 1795.77ZM5953.1 1795.77 5964.01 1795.77C5965.52 1795.77 5966.74 1796.99 5966.74 1798.5 5966.74 1800.01 5965.52 1801.23 5964.01 1801.23L5953.1 1801.23C5951.59 1801.23 5950.37 1800.01 5950.37 1798.5 5950.37 1796.99 5951.59 1795.77 5953.1 1795.77ZM5974.93 1795.77 5985.84 1795.77C5987.35 1795.77 5988.57 1796.99 5988.57 1798.5 5988.57 1800.01 5987.35 1801.23 5985.84 1801.23L5974.93 1801.23C5973.42 1801.23 5972.2 1800.01 5972.2 1798.5 5972.2 1796.99 5973.42 1795.77 5974.93 1795.77ZM5996.75 1795.77 6007.67 1795.77C6009.17 1795.77 6010.39 1796.99 6010.39 1798.5 6010.39 1800.01 6009.17 1801.23 6007.67 1801.23L5996.75 1801.23C5995.25 1801.23 5994.02 1800.01 5994.02 1798.5 5994.02 1796.99 5995.25 1795.77 5996.75 1795.77ZM6018.58 1795.77 6021.5 1795.77 6029.49 1795.77C6031 1795.77 6032.22 1796.99 6032.22 1798.5 6032.22 1800.01 6031 1801.23 6029.49 1801.23L6021.5 1801.23 6018.58 1801.23C6017.07 1801.23 6015.85 1800.01 6015.85 1798.5 6015.85 1796.99 6017.07 1795.77 6018.58 1795.77ZM6040.41 1795.77 6051.32 1795.77C6052.83 1795.77 6054.05 1796.99 6054.05 1798.5 6054.05 1800.01 6052.83 1801.23 6051.32 1801.23L6040.41 1801.23C6038.9 1801.23 6037.68 1800.01 6037.68 1798.5 6037.68 1796.99 6038.9 1795.77 6040.41 1795.77ZM6062.23 1795.77 6073.15 1795.77C6074.65 1795.77 6075.87 1796.99 6075.87 1798.5 6075.87 1800.01 6074.65 1801.23 6073.15 1801.23L6062.23 1801.23C6060.73 1801.23 6059.5 1800.01 6059.5 1798.5 6059.5 1796.99 6060.73 1795.77 6062.23 1795.77ZM6084.06 1795.77 6094.97 1795.77C6096.48 1795.77 6097.7 1796.99 6097.7 1798.5 6097.7 1800.01 6096.48 1801.23 6094.97 1801.23L6084.06 1801.23C6082.55 1801.23 6081.33 1800.01 6081.33 1798.5 6081.33 1796.99 6082.55 1795.77 6084.06 1795.77ZM6105.89 1795.77 6116.8 1795.77C6118.31 1795.77 6119.53 1796.99 6119.53 1798.5 6119.53 1800.01 6118.31 1801.23 6116.8 1801.23L6105.89 1801.23C6104.38 1801.23 6103.16 1800.01 6103.16 1798.5 6103.16 1796.99 6104.38 1795.77 6105.89 1795.77ZM6127.71 1795.77 6138.63 1795.77C6140.13 1795.77 6141.35 1796.99 6141.35 1798.5 6141.35 1800.01 6140.13 1801.23 6138.63 1801.23L6127.71 1801.23C6126.21 1801.23 6124.98 1800.01 6124.98 1798.5 6124.98 1796.99 6126.21 1795.77 6127.71 1795.77ZM6149.54 1795.77 6160.45 1795.77C6161.96 1795.77 6163.18 1796.99 6163.18 1798.5 6163.18 1800.01 6161.96 1801.23 6160.45 1801.23L6149.54 1801.23C6148.03 1801.23 6146.81 1800.01 6146.81 1798.5 6146.81 1796.99 6148.03 1795.77 6149.54 1795.77ZM6171.37 1795.77 6182.28 1795.77C6183.79 1795.77 6185.01 1796.99 6185.01 1798.5 6185.01 1800.01 6183.79 1801.23 6182.28 1801.23L6171.37 1801.23C6169.86 1801.23 6168.64 1800.01 6168.64 1798.5 6168.64 1796.99 6169.86 1795.77 6171.37 1795.77ZM6193.19 1795.77 6204.11 1795.77C6205.61 1795.77 6206.83 1796.99 6206.83 1798.5 6206.83 1800.01 6205.61 1801.23 6204.11 1801.23L6193.19 1801.23C6191.69 1801.23 6190.46 1800.01 6190.46 1798.5 6190.46 1796.99 6191.69 1795.77 6193.19 1795.77ZM6215.02 1795.77 6225.93 1795.77C6227.44 1795.77 6228.66 1796.99 6228.66 1798.5 6228.66 1800.01 6227.44 1801.23 6225.93 1801.23L6215.02 1801.23C6213.51 1801.23 6212.29 1800.01 6212.29 1798.5 6212.29 1796.99 6213.51 1795.77 6215.02 1795.77ZM6236.85 1795.77 6247.76 1795.77C6249.27 1795.77 6250.49 1796.99 6250.49 1798.5 6250.49 1800.01 6249.27 1801.23 6247.76 1801.23L6236.85 1801.23C6235.34 1801.23 6234.12 1800.01 6234.12 1798.5 6234.12 1796.99 6235.34 1795.77 6236.85 1795.77ZM6258.67 1795.77 6269.59 1795.77C6271.09 1795.77 6272.32 1796.99 6272.32 1798.5 6272.32 1800.01 6271.09 1801.23 6269.59 1801.23L6258.67 1801.23C6257.17 1801.23 6255.95 1800.01 6255.95 1798.5 6255.95 1796.99 6257.17 1795.77 6258.67 1795.77ZM6280.5 1795.77 6291.41 1795.77C6292.92 1795.77 6294.14 1796.99 6294.14 1798.5 6294.14 1800.01 6292.92 1801.23 6291.41 1801.23L6280.5 1801.23C6278.99 1801.23 6277.77 1800.01 6277.77 1798.5 6277.77 1796.99 6278.99 1795.77 6280.5 1795.77ZM6302.33 1795.77 6313.24 1795.77C6314.75 1795.77 6315.97 1796.99 6315.97 1798.5 6315.97 1800.01 6314.75 1801.23 6313.24 1801.23L6302.33 1801.23C6300.82 1801.23 6299.6 1800.01 6299.6 1798.5 6299.6 1796.99 6300.82 1795.77 6302.33 1795.77ZM6324.15 1795.77 6335.07 1795.77C6336.57 1795.77 6337.8 1796.99 6337.8 1798.5 6337.8 1800.01 6336.57 1801.23 6335.07 1801.23L6324.15 1801.23C6322.65 1801.23 6321.43 1800.01 6321.43 1798.5 6321.43 1796.99 6322.65 1795.77 6324.15 1795.77ZM6345.98 1795.77 6356.89 1795.77C6358.4 1795.77 6359.62 1796.99 6359.62 1798.5 6359.62 1800.01 6358.4 1801.23 6356.89 1801.23L6345.98 1801.23C6344.47 1801.23 6343.25 1800.01 6343.25 1798.5 6343.25 1796.99 6344.47 1795.77 6345.98 1795.77ZM6367.81 1795.77 6378.72 1795.77C6380.23 1795.77 6381.45 1796.99 6381.45 1798.5 6381.45 1800.01 6380.23 1801.23 6378.72 1801.23L6367.81 1801.23C6366.3 1801.23 6365.08 1800.01 6365.08 1798.5 6365.08 1796.99 6366.3 1795.77 6367.81 1795.77Z" fill="#70AD47" fill-rule="nonzero" fill-opacity="1"/></g><g><text fill="#000000" fill-opacity="1" font-family="Calibri,Calibri_MSFontService,sans-serif" font-style="normal" font-variant="normal" font-weight="400" font-stretch="normal" font-size="46" text-anchor="start" direction="ltr" writing-mode="lr-tb" unicode-bidi="normal" text-decoration="none" transform="matrix(1 0 0 1 3101.56 2019)">12,200.00</text></g><g><text fill="#000000" fill-opacity="1" font-family="Calibri,Calibri_MSFontService,sans-serif" font-style="normal" font-variant="normal" font-weight="400" font-stretch="normal" font-size="46" text-anchor="start" direction="ltr" writing-mode="lr-tb" unicode-bidi="normal" text-decoration="none" transform="matrix(1 0 0 1 3101.56 1854)">12,300.00</text></g><g><text fill="#000000" fill-opacity="1" font-family="Calibri,Calibri_MSFontService,sans-serif" font-style="normal" font-variant="normal" font-weight="400" font-stretch="normal" font-size="46" text-anchor="start" direction="ltr" writing-mode="lr-tb" unicode-bidi="normal" text-decoration="none" transform="matrix(1 0 0 1 3101.56 1689)">12,400.00</text></g><g><text fill="#000000" fill-opacity="1" font-family="Calibri,Calibri_MSFontService,sans-serif" font-style="normal" font-variant="normal" font-weight="400" font-stretch="normal" font-size="46" text-anchor="start" direction="ltr" writing-mode="lr-tb" unicode-bidi="normal" text-decoration="none" transform="matrix(1 0 0 1 3101.56 1523)">12,500.00</text></g><g><text fill="#000000" fill-opacity="1" font-family="Calibri,Calibri_MSFontService,sans-serif" font-style="normal" font-variant="normal" font-weight="400" font-stretch="normal" font-size="46" text-anchor="start" direction="ltr" writing-mode="lr-tb" unicode-bidi="normal" text-decoration="none" transform="matrix(1 0 0 1 3101.56 1358)">12,600.00</text></g><g><text fill="#000000" fill-opacity="1" font-family="Calibri,Calibri_MSFontService,sans-serif" font-style="normal" font-variant="normal" font-weight="400" font-stretch="normal" font-size="46" text-anchor="start" direction="ltr" writing-mode="lr-tb" unicode-bidi="normal" text-decoration="none" transform="matrix(1 0 0 1 3101.56 1193)">12,700.00</text></g><g><text fill="#000000" fill-opacity="1" font-family="Calibri,Calibri_MSFontService,sans-serif" font-style="normal" font-variant="normal" font-weight="400" font-stretch="normal" font-size="46" text-anchor="start" direction="ltr" writing-mode="lr-tb" unicode-bidi="normal" text-decoration="none" transform="matrix(1 0 0 1 3101.56 1028)">12,800.00</text></g><g><text fill="#000000" fill-opacity="1" font-family="Calibri,Calibri_MSFontService,sans-serif" font-style="normal" font-variant="normal" font-weight="400" font-stretch="normal" font-size="46" text-anchor="start" direction="ltr" writing-mode="lr-tb" unicode-bidi="normal" text-decoration="none" transform="matrix(1 0 0 1 3101.56 863)">12,900.00</text></g><g><text fill="#000000" fill-opacity="1" font-family="Calibri,Calibri_MSFontService,sans-serif" font-style="normal" font-variant="normal" font-weight="400" font-stretch="normal" font-size="46" text-anchor="start" direction="ltr" writing-mode="lr-tb" unicode-bidi="normal" text-decoration="none" transform="matrix(1 0 0 1 3101.56 698)">13,000.00</text></g><g><text fill="#000000" fill-opacity="1" font-family="Calibri,Calibri_MSFontService,sans-serif" font-style="normal" font-variant="normal" font-weight="400" font-stretch="normal" font-size="46" text-anchor="start" direction="ltr" writing-mode="lr-tb" unicode-bidi="normal" text-decoration="none" transform="matrix(1 0 0 1 3101.56 533)">13,100.00</text></g><g><text fill="#000000" fill-opacity="1" font-family="Calibri,Calibri_MSFontService,sans-serif" font-style="normal" font-variant="normal" font-weight="400" font-stretch="normal" font-size="46" text-anchor="start" direction="ltr" writing-mode="lr-tb" unicode-bidi="normal" text-decoration="none" transform="matrix(1 0 0 1 3101.56 368)">13,200.00</text></g><g><text fill="#000000" fill-opacity="1" font-family="Calibri,Calibri_MSFontService,sans-serif" font-style="normal" font-variant="normal" font-weight="400" font-stretch="normal" font-size="46" text-anchor="start" direction="ltr" writing-mode="lr-tb" unicode-bidi="normal" text-decoration="none" transform="matrix(1 0 0 1 3486.72 2080)">S1</text></g><g><text fill="#000000" fill-opacity="1" font-family="Calibri,Calibri_MSFontService,sans-serif" font-style="normal" font-variant="normal" font-weight="400" font-stretch="normal" font-size="46" text-anchor="start" direction="ltr" writing-mode="lr-tb" unicode-bidi="normal" text-decoration="none" transform="matrix(1 0 0 1 3845.68 2080)">S2</text></g><g><text fill="#000000" fill-opacity="1" font-family="Calibri,Calibri_MSFontService,sans-serif" font-style="normal" font-variant="normal" font-weight="400" font-stretch="normal" font-size="46" text-anchor="start" direction="ltr" writing-mode="lr-tb" unicode-bidi="normal" text-decoration="none" transform="matrix(1 0 0 1 4204.64 2080)">S3</text></g><g><text fill="#000000" fill-opacity="1" font-family="Calibri,Calibri_MSFontService,sans-serif" font-style="normal" font-variant="normal" font-weight="400" font-stretch="normal" font-size="46" text-anchor="start" direction="ltr" writing-mode="lr-tb" unicode-bidi="normal" text-decoration="none" transform="matrix(1 0 0 1 4563.6 2080)">S4</text></g><g><text fill="#000000" fill-opacity="1" font-family="Calibri,Calibri_MSFontService,sans-serif" font-style="normal" font-variant="normal" font-weight="400" font-stretch="normal" font-size="46" text-anchor="start" direction="ltr" writing-mode="lr-tb" unicode-bidi="normal" text-decoration="none" transform="matrix(1 0 0 1 4922.56 2080)">S5</text></g><g><text fill="#000000" fill-opacity="1" font-family="Calibri,Calibri_MSFontService,sans-serif" font-style="normal" font-variant="normal" font-weight="400" font-stretch="normal" font-size="46" text-anchor="start" direction="ltr" writing-mode="lr-tb" unicode-bidi="normal" text-decoration="none" transform="matrix(1 0 0 1 5281.53 2080)">S6</text></g><g><text fill="#000000" fill-opacity="1" font-family="Calibri,Calibri_MSFontService,sans-serif" font-style="normal" font-variant="normal" font-weight="400" font-stretch="normal" font-size="46" text-anchor="start" direction="ltr" writing-mode="lr-tb" unicode-bidi="normal" text-decoration="none" transform="matrix(1 0 0 1 5640.49 2080)">S7</text></g><g><text fill="#000000" fill-opacity="1" font-family="Calibri,Calibri_MSFontService,sans-serif" font-style="normal" font-variant="normal" font-weight="400" font-stretch="normal" font-size="46" text-anchor="start" direction="ltr" writing-mode="lr-tb" unicode-bidi="normal" text-decoration="none" transform="matrix(1 0 0 1 5999.45 2080)">S8</text></g><g><text fill="#000000" fill-opacity="1" font-family="Calibri,Calibri_MSFontService,sans-serif" font-style="normal" font-variant="normal" font-weight="400" font-stretch="normal" font-size="46" text-anchor="start" direction="ltr" writing-mode="lr-tb" unicode-bidi="normal" text-decoration="none" transform="matrix(1 0 0 1 6358.41 2080)">S9</text></g><g><text fill="#000000" fill-opacity="1" font-family="Calibri,Calibri_MSFontService,sans-serif" font-style="normal" font-variant="normal" font-weight="700" font-stretch="normal" font-size="46" text-anchor="start" direction="ltr" writing-mode="lr-tb" unicode-bidi="normal" text-decoration="none" transform="matrix(6.12323e-17 -1 1 6.12323e-17 3075.87 1256)">Euro ()</text></g><g><text fill="#000000" fill-opacity="1" font-family="Calibri,Calibri_MSFontService,sans-serif" font-style="normal" font-variant="normal" font-weight="700" font-stretch="normal" font-size="83" text-anchor="start" direction="ltr" writing-mode="lr-tb" unicode-bidi="normal" text-decoration="none" transform="matrix(1 0 0 1 4603.22 276)">EAC vs BAC </text></g><g><path d="M4185 2163 4301 2163" stroke="#4472C4" stroke-width="10.1339" stroke-linecap="round" stroke-linejoin="round" stroke-miterlimit="10" stroke-opacity="1" fill="none" fill-rule="evenodd"/></g><g><text fill="#000000" fill-opacity="1" font-family="Calibri,Calibri_MSFontService,sans-serif" font-style="normal" font-variant="normal" font-weight="400" font-stretch="normal" font-size="46" text-anchor="start" direction="ltr" writing-mode="lr-tb" unicode-bidi="normal" text-decoration="none" transform="matrix(1 0 0 1 4313.36 2175)">EAC ()</text></g><g><path d="M4521 2159.75 4540.49 2159.75C4542.28 2159.75 4543.74 2161.21 4543.74 2163 4543.74 2164.79 4542.28 2166.25 4540.49 2166.25L4521 2166.25C4519.21 2166.25 4517.75 2164.79 4517.75 2163 4517.75 2161.21 4519.21 2159.75 4521 2159.75ZM4566.47 2159.75 4585.96 2159.75C4587.75 2159.75 4589.21 2161.21 4589.21 2163 4589.21 2164.79 4587.75 2166.25 4585.96 2166.25L4566.47 2166.25C4564.68 2166.25 4563.22 2164.79 4563.22 2163 4563.22 2161.21 4564.68 2159.75 4566.47 2159.75ZM4611.94 2159.75 4631.43 2159.75C4633.23 2159.75 4634.68 2161.21 4634.68 2163 4634.68 2164.79 4633.23 2166.25 4631.43 2166.25L4611.94 2166.25C4610.15 2166.25 4608.7 2164.79 4608.7 2163 4608.7 2161.21 4610.15 2159.75 4611.94 2159.75Z" fill="#FF0000" fill-rule="nonzero" fill-opacity="1"/></g><g><text fill="#000000" fill-opacity="1" font-family="Calibri,Calibri_MSFontService,sans-serif" font-style="normal" font-variant="normal" font-weight="400" font-stretch="normal" font-size="46" text-anchor="start" direction="ltr" writing-mode="lr-tb" unicode-bidi="normal" text-decoration="none" transform="matrix(1 0 0 1 4648.96 2175)">BAC ()</text></g><g><path d="M4858.5 2159.77 4869.41 2159.77C4870.92 2159.77 4872.14 2160.99 4872.14 2162.5 4872.14 2164.01 4870.92 2165.23 4869.41 2165.23L4858.5 2165.23C4856.99 2165.23 4855.77 2164.01 4855.77 2162.5 4855.77 2160.99 4856.99 2159.77 4858.5 2159.77ZM4880.33 2159.77 4891.24 2159.77C4892.75 2159.77 4893.97 2160.99 4893.97 2162.5 4893.97 2164.01 4892.75 2165.23 4891.24 2165.23L4880.33 2165.23C4878.82 2165.23 4877.6 2164.01 4877.6 2162.5 4877.6 2160.99 4878.82 2159.77 4880.33 2159.77ZM4902.15 2159.77 4913.07 2159.77C4914.57 2159.77 4915.8 2160.99 4915.8 2162.5 4915.8 2164.01 4914.57 2165.23 4913.07 2165.23L4902.15 2165.23C4900.65 2165.23 4899.43 2164.01 4899.43 2162.5 4899.43 2160.99 4900.65 2159.77 4902.15 2159.77ZM4923.98 2159.77 4934.89 2159.77C4936.4 2159.77 4937.62 2160.99 4937.62 2162.5 4937.62 2164.01 4936.4 2165.23 4934.89 2165.23L4923.98 2165.23C4922.47 2165.23 4921.25 2164.01 4921.25 2162.5 4921.25 2160.99 4922.47 2159.77 4923.98 2159.77ZM4945.81 2159.77 4956.72 2159.77C4958.23 2159.77 4959.45 2160.99 4959.45 2162.5 4959.45 2164.01 4958.23 2165.23 4956.72 2165.23L4945.81 2165.23C4944.3 2165.23 4943.08 2164.01 4943.08 2162.5 4943.08 2160.99 4944.3 2159.77 4945.81 2159.77ZM4967.63 2159.77 4974.5 2159.77C4976.01 2159.77 4977.23 2160.99 4977.23 2162.5 4977.23 2164.01 4976.01 2165.23 4974.5 2165.23L4967.63 2165.23C4966.13 2165.23 4964.91 2164.01 4964.91 2162.5 4964.91 2160.99 4966.13 2159.77 4967.63 2159.77Z" fill="#70AD47" fill-rule="nonzero" fill-opacity="1"/></g><g><text fill="#000000" fill-opacity="1" font-family="Calibri,Calibri_MSFontService,sans-serif" font-style="normal" font-variant="normal" font-weight="400" font-stretch="normal" font-size="46" text-anchor="start" direction="ltr" writing-mode="lr-tb" unicode-bidi="normal" text-decoration="none" transform="matrix(1 0 0 1 4987.1 2175)">Soglia acc. (BAC</text></g><g><text fill="#000000" fill-opacity="1" font-family="Calibri,Calibri_MSFontService,sans-serif" font-style="normal" font-variant="normal" font-weight="400" font-stretch="normal" font-size="46" text-anchor="start" direction="ltr" writing-mode="lr-tb" unicode-bidi="normal" text-decoration="none" transform="matrix(1 0 0 1 5301.72 2175)"></text></g><g><text fill="#000000" fill-opacity="1" font-family="Calibri,Calibri_MSFontService,sans-serif" font-style="normal" font-variant="normal" font-weight="400" font-stretch="normal" font-size="46" text-anchor="start" direction="ltr" writing-mode="lr-tb" unicode-bidi="normal" text-decoration="none" transform="matrix(1 0 0 1 5324.5 2175)">0.95)</text></g><rect x="2975.5" y="162.5" width="3635" height="2070" stroke="#D9D9D9" stroke-width="3.37795" stroke-linecap="butt" stroke-linejoin="round" stroke-miterlimit="10" stroke-opacity="1" fill="none"/></g></g></svg>