<svg width="3617" height="2085" xmlns="http://www.w3.org/2000/svg" xmlns:xlink="http://www.w3.org/1999/xlink" xml:space="preserve" overflow="hidden"><defs><clipPath id="clip0"><rect x="2960" y="160" width="3617" height="2085"/></clipPath><clipPath id="clip1"><rect x="2960" y="160" width="3617" height="2085"/></clipPath></defs><g clip-path="url(#clip0)" transform="translate(-2960 -160)"><g clip-path="url(#clip1)"><rect x="2962" y="165" width="3609" height="2076" fill="#FFFFFF" fill-opacity="1"/><g><path d="M3316.5 1849.56 6520.5 1849.56M3316.5 1683.56 6520.5 1683.56M3316.5 1518.55 6520.5 1518.55M3316.5 1352.54 6520.5 1352.54M3316.5 1186.54 6520.5 1186.54M3316.5 1020.53 6520.5 1020.53M3316.5 854.528 6520.5 854.528M3316.5 689.523 6520.5 689.523M3316.5 523.517 6520.5 523.517M3316.5 357.5 6520.5 357.5" stroke="#878787" stroke-width="3.37795" stroke-linecap="butt" stroke-linejoin="round" stroke-miterlimit="10" stroke-opacity="1" fill="none" fill-rule="nonzero"/></g><g><path d="M0 0 0.000360892 1658" stroke="#878787" stroke-width="3.37795" stroke-linecap="butt" stroke-linejoin="round" stroke-miterlimit="10" stroke-opacity="1" fill="none" fill-rule="evenodd" transform="matrix(1 0 0 -1 3316.5 2015.5)"/></g><g><path d="M3316.5 2015.5 6520.5 2015.5" stroke="#878787" stroke-width="3.37795" stroke-linecap="butt" stroke-linejoin="round" stroke-miterlimit="10" stroke-opacity="1" fill="none" fill-rule="evenodd"/></g><g><path d="M3494 935.681C3612.67 901.662 3731.33 888.965 3850 833.624 3968.67 778.283 4087.33 635.269 4206 603.635 4324.67 572 4443.33 572.473 4562 643.817 4680.67 715.16 4799.33 975.393 4918 1031.7 5036.67 1088 5155.33 996.048 5274 981.639 5392.67 967.229 5511.33 960.635 5630 945.241 5748.67 929.847 5867.33 891.609 5986 889.275 6104.67 886.94 6223.33 917.247 6342 931.233" stroke="#4472C4" stroke-width="10.1339" stroke-linecap="round" stroke-linejoin="round" stroke-miterlimit="10" stroke-opacity="1" fill="none" fill-rule="nonzero"/></g><g><path d="M3494 727.752 3513.49 727.752C3515.28 727.752 3516.74 729.206 3516.74 731 3516.74 732.794 3515.28 734.248 3513.49 734.248L3494 734.248C3492.21 734.248 3490.75 732.794 3490.75 731 3490.75 729.206 3492.21 727.752 3494 727.752ZM3539.47 727.752 3558.96 727.752C3560.75 727.752 3562.21 729.206 3562.21 731 3562.21 732.794 3560.75 734.248 3558.96 734.248L3539.47 734.248C3537.68 734.248 3536.22 732.794 3536.22 731 3536.22 729.206 3537.68 727.752 3539.47 727.752ZM3584.94 727.752 3604.43 727.752C3606.23 727.752 3607.68 729.206 3607.68 731 3607.68 732.794 3606.23 734.248 3604.43 734.248L3584.94 734.248C3583.15 734.248 3581.7 732.794 3581.7 731 3581.7 729.206 3583.15 727.752 3584.94 727.752ZM3630.42 727.752 3649.91 727.752C3651.7 727.752 3653.15 729.206 3653.15 731 3653.15 732.794 3651.7 734.248 3649.91 734.248L3630.42 734.248C3628.62 734.248 3627.17 732.794 3627.17 731 3627.17 729.206 3628.62 727.752 3630.42 727.752ZM3675.89 727.752 3695.38 727.752C3697.17 727.752 3698.63 729.206 3698.63 731 3698.63 732.794 3697.17 734.248 3695.38 734.248L3675.89 734.248C3674.1 734.248 3672.64 732.794 3672.64 731 3672.64 729.206 3674.1 727.752 3675.89 727.752ZM3721.36 727.752 3740.85 727.752C3742.64 727.752 3744.1 729.206 3744.1 731 3744.1 732.794 3742.64 734.248 3740.85 734.248L3721.36 734.248C3719.57 734.248 3718.11 732.794 3718.11 731 3718.11 729.206 3719.57 727.752 3721.36 727.752ZM3766.83 727.752 3786.32 727.752C3788.12 727.752 3789.57 729.206 3789.57 731 3789.57 732.794 3788.12 734.248 3786.32 734.248L3766.83 734.248C3765.04 734.248 3763.59 732.794 3763.59 731 3763.59 729.206 3765.04 727.752 3766.83 727.752ZM3812.31 727.752 3831.79 727.752C3833.59 727.752 3835.04 729.206 3835.04 731 3835.04 732.794 3833.59 734.248 3831.79 734.248L3812.31 734.248C3810.51 734.248 3809.06 732.794 3809.06 731 3809.06 729.206 3810.51 727.752 3812.31 727.752ZM3857.78 727.752 3877.27 727.752C3879.06 727.752 3880.52 729.206 3880.52 731 3880.52 732.794 3879.06 734.248 3877.27 734.248L3857.78 734.248C3855.99 734.248 3854.53 732.794 3854.53 731 3854.53 729.206 3855.99 727.752 3857.78 727.752ZM3903.25 727.752 3922.74 727.752C3924.53 727.752 3925.99 729.206 3925.99 731 3925.99 732.794 3924.53 734.248 3922.74 734.248L3903.25 734.248C3901.46 734.248 3900 732.794 3900 731 3900 729.206 3901.46 727.752 3903.25 727.752ZM3948.72 727.752 3968.21 727.752C3970.01 727.752 3971.46 729.206 3971.46 731 3971.46 732.794 3970.01 734.248 3968.21 734.248L3948.72 734.248C3946.93 734.248 3945.48 732.794 3945.48 731 3945.48 729.206 3946.93 727.752 3948.72 727.752ZM3994.2 727.752 4013.68 727.752C4015.48 727.752 4016.93 729.206 4016.93 731 4016.93 732.794 4015.48 734.248 4013.68 734.248L3994.2 734.248C3992.4 734.248 3990.95 732.794 3990.95 731 3990.95 729.206 3992.4 727.752 3994.2 727.752ZM4039.67 727.752 4059.16 727.752C4060.95 727.752 4062.41 729.206 4062.41 731 4062.41 732.794 4060.95 734.248 4059.16 734.248L4039.67 734.248C4037.88 734.248 4036.42 732.794 4036.42 731 4036.42 729.206 4037.88 727.752 4039.67 727.752ZM4085.14 727.752 4104.63 727.752C4106.42 727.752 4107.88 729.206 4107.88 731 4107.88 732.794 4106.42 734.248 4104.63 734.248L4085.14 734.248C4083.35 734.248 4081.89 732.794 4081.89 731 4081.89 729.206 4083.35 727.752 4085.14 727.752ZM4130.61 727.752 4150.1 727.752C4151.9 727.752 4153.35 729.206 4153.35 731 4153.35 732.794 4151.9 734.248 4150.1 734.248L4130.61 734.248C4128.82 734.248 4127.37 732.794 4127.37 731 4127.37 729.206 4128.82 727.752 4130.61 727.752ZM4176.09 727.752 4195.57 727.752C4197.37 727.752 4198.82 729.206 4198.82 731 4198.82 732.794 4197.37 734.248 4195.57 734.248L4176.09 734.248C4174.29 734.248 4172.84 732.794 4172.84 731 4172.84 729.206 4174.29 727.752 4176.09 727.752ZM4221.56 727.752 4241.05 727.752C4242.84 727.752 4244.29 729.206 4244.29 731 4244.29 732.794 4242.84 734.248 4241.05 734.248L4221.56 734.248C4219.77 734.248 4218.31 732.794 4218.31 731 4218.31 729.206 4219.77 727.752 4221.56 727.752ZM4267.03 727.752 4286.52 727.752C4288.31 727.752 4289.77 729.206 4289.77 731 4289.77 732.794 4288.31 734.248 4286.52 734.248L4267.03 734.248C4265.24 734.248 4263.78 732.794 4263.78 731 4263.78 729.206 4265.24 727.752 4267.03 727.752ZM4312.5 727.752 4331.99 727.752C4333.79 727.752 4335.24 729.206 4335.24 731 4335.24 732.794 4333.79 734.248 4331.99 734.248L4312.5 734.248C4310.71 734.248 4309.26 732.794 4309.26 731 4309.26 729.206 4310.71 727.752 4312.5 727.752ZM4357.98 727.752 4377.46 727.752C4379.26 727.752 4380.71 729.206 4380.71 731 4380.71 732.794 4379.26 734.248 4377.46 734.248L4357.98 734.248C4356.18 734.248 4354.73 732.794 4354.73 731 4354.73 729.206 4356.18 727.752 4357.98 727.752ZM4403.45 727.752 4422.94 727.752C4424.73 727.752 4426.18 729.206 4426.18 731 4426.18 732.794 4424.73 734.248 4422.94 734.248L4403.45 734.248C4401.65 734.248 4400.2 732.794 4400.2 731 4400.2 729.206 4401.65 727.752 4403.45 727.752ZM4448.92 727.752 4468.41 727.752C4470.2 727.752 4471.66 729.206 4471.66 731 4471.66 732.794 4470.2 734.248 4468.41 734.248L4448.92 734.248C4447.13 734.248 4445.67 732.794 4445.67 731 4445.67 729.206 4447.13 727.752 4448.92 727.752ZM4494.39 727.752 4513.88 727.752C4515.68 727.752 4517.13 729.206 4517.13 731 4517.13 732.794 4515.68 734.248 4513.88 734.248L4494.39 734.248C4492.6 734.248 4491.15 732.794 4491.15 731 4491.15 729.206 4492.6 727.752 4494.39 727.752ZM4539.87 727.752 4559.35 727.752C4561.15 727.752 4562.6 729.206 4562.6 731 4562.6 732.794 4561.15 734.248 4559.35 734.248L4539.87 734.248C4538.07 734.248 4536.62 732.794 4536.62 731 4536.62 729.206 4538.07 727.752 4539.87 727.752ZM4585.34 727.752 4604.83 727.752C4606.62 727.752 4608.07 729.206 4608.07 731 4608.07 732.794 4606.62 734.248 4604.83 734.248L4585.34 734.248C4583.54 734.248 4582.09 732.794 4582.09 731 4582.09 729.206 4583.54 727.752 4585.34 727.752ZM4630.81 727.752 4650.3 727.752C4652.09 727.752 4653.55 729.206 4653.55 731 4653.55 732.794 4652.09 734.248 4650.3 734.248L4630.81 734.248C4629.02 734.248 4627.56 732.794 4627.56 731 4627.56 729.206 4629.02 727.752 4630.81 727.752ZM4676.28 727.752 4695.77 727.752C4697.57 727.752 4699.02 729.206 4699.02 731 4699.02 732.794 4697.57 734.248 4695.77 734.248L4676.28 734.248C4674.49 734.248 4673.04 732.794 4673.04 731 4673.04 729.206 4674.49 727.752 4676.28 727.752ZM4721.76 727.752 4741.24 727.752C4743.04 727.752 4744.49 729.206 4744.49 731 4744.49 732.794 4743.04 734.248 4741.24 734.248L4721.76 734.248C4719.96 734.248 4718.51 732.794 4718.51 731 4718.51 729.206 4719.96 727.752 4721.76 727.752ZM4767.23 727.752 4786.72 727.752C4788.51 727.752 4789.96 729.206 4789.96 731 4789.96 732.794 4788.51 734.248 4786.72 734.248L4767.23 734.248C4765.43 734.248 4763.98 732.794 4763.98 731 4763.98 729.206 4765.43 727.752 4767.23 727.752ZM4812.7 727.752 4832.19 727.752C4833.98 727.752 4835.44 729.206 4835.44 731 4835.44 732.794 4833.98 734.248 4832.19 734.248L4812.7 734.248C4810.91 734.248 4809.45 732.794 4809.45 731 4809.45 729.206 4810.91 727.752 4812.7 727.752ZM4858.17 727.752 4877.66 727.752C4879.46 727.752 4880.91 729.206 4880.91 731 4880.91 732.794 4879.46 734.248 4877.66 734.248L4858.17 734.248C4856.38 734.248 4854.92 732.794 4854.92 731 4854.92 729.206 4856.38 727.752 4858.17 727.752ZM4903.65 727.752 4918 727.752 4923.13 727.752C4924.93 727.752 4926.38 729.206 4926.38 731 4926.38 732.794 4924.93 734.248 4923.13 734.248L4918 734.248 4903.65 734.248C4901.85 734.248 4900.4 732.794 4900.4 731 4900.4 729.206 4901.85 727.752 4903.65 727.752ZM4949.12 727.752 4968.61 727.752C4970.4 727.752 4971.85 729.206 4971.85 731 4971.85 732.794 4970.4 734.248 4968.61 734.248L4949.12 734.248C4947.32 734.248 4945.87 732.794 4945.87 731 4945.87 729.206 4947.32 727.752 4949.12 727.752ZM4994.59 727.752 5014.08 727.752C5015.87 727.752 5017.33 729.206 5017.33 731 5017.33 732.794 5015.87 734.248 5014.08 734.248L4994.59 734.248C4992.8 734.248 4991.34 732.794 4991.34 731 4991.34 729.206 4992.8 727.752 4994.59 727.752ZM5040.06 727.752 5059.55 727.752C5061.34 727.752 5062.8 729.206 5062.8 731 5062.8 732.794 5061.34 734.248 5059.55 734.248L5040.06 734.248C5038.27 734.248 5036.81 732.794 5036.81 731 5036.81 729.206 5038.27 727.752 5040.06 727.752ZM5085.54 727.752 5105.02 727.752C5106.82 727.752 5108.27 729.206 5108.27 731 5108.27 732.794 5106.82 734.248 5105.02 734.248L5085.54 734.248C5083.74 734.248 5082.29 732.794 5082.29 731 5082.29 729.206 5083.74 727.752 5085.54 727.752ZM5131.01 727.752 5150.5 727.752C5152.29 727.752 5153.74 729.206 5153.74 731 5153.74 732.794 5152.29 734.248 5150.5 734.248L5131.01 734.248C5129.21 734.248 5127.76 732.794 5127.76 731 5127.76 729.206 5129.21 727.752 5131.01 727.752ZM5176.48 727.752 5195.97 727.752C5197.76 727.752 5199.22 729.206 5199.22 731 5199.22 732.794 5197.76 734.248 5195.97 734.248L5176.48 734.248C5174.69 734.248 5173.23 732.794 5173.23 731 5173.23 729.206 5174.69 727.752 5176.48 727.752ZM5221.95 727.752 5241.44 727.752C5243.23 727.752 5244.69 729.206 5244.69 731 5244.69 732.794 5243.23 734.248 5241.44 734.248L5221.95 734.248C5220.16 734.248 5218.7 732.794 5218.7 731 5218.7 729.206 5220.16 727.752 5221.95 727.752ZM5267.42 727.752 5274 727.752 5286.91 727.752C5288.71 727.752 5290.16 729.206 5290.16 731 5290.16 732.794 5288.71 734.248 5286.91 734.248L5274 734.248 5267.42 734.248C5265.63 734.248 5264.18 732.794 5264.18 731 5264.18 729.206 5265.63 727.752 5267.42 727.752ZM5312.9 727.752 5332.39 727.752C5334.18 727.752 5335.63 729.206 5335.63 731 5335.63 732.794 5334.18 734.248 5332.39 734.248L5312.9 734.248C5311.1 734.248 5309.65 732.794 5309.65 731 5309.65 729.206 5311.1 727.752 5312.9 727.752ZM5358.37 727.752 5377.86 727.752C5379.65 727.752 5381.11 729.206 5381.11 731 5381.11 732.794 5379.65 734.248 5377.86 734.248L5358.37 734.248C5356.58 734.248 5355.12 732.794 5355.12 731 5355.12 729.206 5356.58 727.752 5358.37 727.752ZM5403.84 727.752 5423.33 727.752C5425.12 727.752 5426.58 729.206 5426.58 731 5426.58 732.794 5425.12 734.248 5423.33 734.248L5403.84 734.248C5402.05 734.248 5400.59 732.794 5400.59 731 5400.59 729.206 5402.05 727.752 5403.84 727.752ZM5449.31 727.752 5468.8 727.752C5470.6 727.752 5472.05 729.206 5472.05 731 5472.05 732.794 5470.6 734.248 5468.8 734.248L5449.31 734.248C5447.52 734.248 5446.07 732.794 5446.07 731 5446.07 729.206 5447.52 727.752 5449.31 727.752ZM5494.79 727.752 5514.28 727.752C5516.07 727.752 5517.52 729.206 5517.52 731 5517.52 732.794 5516.07 734.248 5514.28 734.248L5494.79 734.248C5492.99 734.248 5491.54 732.794 5491.54 731 5491.54 729.206 5492.99 727.752 5494.79 727.752ZM5540.26 727.752 5559.75 727.752C5561.54 727.752 5563 729.206 5563 731 5563 732.794 5561.54 734.248 5559.75 734.248L5540.26 734.248C5538.47 734.248 5537.01 732.794 5537.01 731 5537.01 729.206 5538.47 727.752 5540.26 727.752ZM5585.73 727.752 5605.22 727.752C5607.01 727.752 5608.47 729.206 5608.47 731 5608.47 732.794 5607.01 734.248 5605.22 734.248L5585.73 734.248C5583.94 734.248 5582.48 732.794 5582.48 731 5582.48 729.206 5583.94 727.752 5585.73 727.752ZM5631.2 727.752 5650.69 727.752C5652.49 727.752 5653.94 729.206 5653.94 731 5653.94 732.794 5652.49 734.248 5650.69 734.248L5631.2 734.248C5629.41 734.248 5627.96 732.794 5627.96 731 5627.96 729.206 5629.41 727.752 5631.2 727.752ZM5676.68 727.752 5696.17 727.752C5697.96 727.752 5699.41 729.206 5699.41 731 5699.41 732.794 5697.96 734.248 5696.17 734.248L5676.68 734.248C5674.88 734.248 5673.43 732.794 5673.43 731 5673.43 729.206 5674.88 727.752 5676.68 727.752ZM5722.15 727.752 5741.64 727.752C5743.43 727.752 5744.89 729.206 5744.89 731 5744.89 732.794 5743.43 734.248 5741.64 734.248L5722.15 734.248C5720.36 734.248 5718.9 732.794 5718.9 731 5718.9 729.206 5720.36 727.752 5722.15 727.752ZM5767.62 727.752 5787.11 727.752C5788.9 727.752 5790.36 729.206 5790.36 731 5790.36 732.794 5788.9 734.248 5787.11 734.248L5767.62 734.248C5765.83 734.248 5764.37 732.794 5764.37 731 5764.37 729.206 5765.83 727.752 5767.62 727.752ZM5813.09 727.752 5832.58 727.752C5834.38 727.752 5835.83 729.206 5835.83 731 5835.83 732.794 5834.38 734.248 5832.58 734.248L5813.09 734.248C5811.3 734.248 5809.85 732.794 5809.85 731 5809.85 729.206 5811.3 727.752 5813.09 727.752ZM5858.57 727.752 5878.05 727.752C5879.85 727.752 5881.3 729.206 5881.3 731 5881.3 732.794 5879.85 734.248 5878.05 734.248L5858.57 734.248C5856.77 734.248 5855.32 732.794 5855.32 731 5855.32 729.206 5856.77 727.752 5858.57 727.752ZM5904.04 727.752 5923.53 727.752C5925.32 727.752 5926.78 729.206 5926.78 731 5926.78 732.794 5925.32 734.248 5923.53 734.248L5904.04 734.248C5902.25 734.248 5900.79 732.794 5900.79 731 5900.79 729.206 5902.25 727.752 5904.04 727.752ZM5949.51 727.752 5969 727.752C5970.79 727.752 5972.25 729.206 5972.25 731 5972.25 732.794 5970.79 734.248 5969 734.248L5949.51 734.248C5947.72 734.248 5946.26 732.794 5946.26 731 5946.26 729.206 5947.72 727.752 5949.51 727.752ZM5994.98 727.752 6014.47 727.752C6016.27 727.752 6017.72 729.206 6017.72 731 6017.72 732.794 6016.27 734.248 6014.47 734.248L5994.98 734.248C5993.19 734.248 5991.74 732.794 5991.74 731 5991.74 729.206 5993.19 727.752 5994.98 727.752ZM6040.46 727.752 6059.94 727.752C6061.74 727.752 6063.19 729.206 6063.19 731 6063.19 732.794 6061.74 734.248 6059.94 734.248L6040.46 734.248C6038.66 734.248 6037.21 732.794 6037.21 731 6037.21 729.206 6038.66 727.752 6040.46 727.752ZM6085.93 727.752 6105.42 727.752C6107.21 727.752 6108.67 729.206 6108.67 731 6108.67 732.794 6107.21 734.248 6105.42 734.248L6085.93 734.248C6084.14 734.248 6082.68 732.794 6082.68 731 6082.68 729.206 6084.14 727.752 6085.93 727.752ZM6131.4 727.752 6150.89 727.752C6152.68 727.752 6154.14 729.206 6154.14 731 6154.14 732.794 6152.68 734.248 6150.89 734.248L6131.4 734.248C6129.61 734.248 6128.15 732.794 6128.15 731 6128.15 729.206 6129.61 727.752 6131.4 727.752ZM6176.87 727.752 6196.36 727.752C6198.16 727.752 6199.61 729.206 6199.61 731 6199.61 732.794 6198.16 734.248 6196.36 734.248L6176.87 734.248C6175.08 734.248 6173.63 732.794 6173.63 731 6173.63 729.206 6175.08 727.752 6176.87 727.752ZM6222.35 727.752 6241.83 727.752C6243.63 727.752 6245.08 729.206 6245.08 731 6245.08 732.794 6243.63 734.248 6241.83 734.248L6222.35 734.248C6220.55 734.248 6219.1 732.794 6219.1 731 6219.1 729.206 6220.55 727.752 6222.35 727.752ZM6267.82 727.752 6287.31 727.752C6289.1 727.752 6290.55 729.206 6290.55 731 6290.55 732.794 6289.1 734.248 6287.31 734.248L6267.82 734.248C6266.02 734.248 6264.57 732.794 6264.57 731 6264.57 729.206 6266.02 727.752 6267.82 727.752ZM6313.29 727.752 6332.78 727.752C6334.57 727.752 6336.03 729.206 6336.03 731 6336.03 732.794 6334.57 734.248 6332.78 734.248L6313.29 734.248C6311.5 734.248 6310.04 732.794 6310.04 731 6310.04 729.206 6311.5 727.752 6313.29 727.752Z" fill="#FF0000" fill-rule="nonzero" fill-opacity="1"/></g><g><path d="M3494.5 1803.77 3505.41 1803.77C3506.92 1803.77 3508.14 1804.99 3508.14 1806.5 3508.14 1808.01 3506.92 1809.23 3505.41 1809.23L3494.5 1809.23C3492.99 1809.23 3491.77 1808.01 3491.77 1806.5 3491.77 1804.99 3492.99 1803.77 3494.5 1803.77ZM3516.33 1803.77 3527.24 1803.77C3528.75 1803.77 3529.97 1804.99 3529.97 1806.5 3529.97 1808.01 3528.75 1809.23 3527.24 1809.23L3516.33 1809.23C3514.82 1809.23 3513.6 1808.01 3513.6 1806.5 3513.6 1804.99 3514.82 1803.77 3516.33 1803.77ZM3538.15 1803.77 3549.07 1803.77C3550.57 1803.77 3551.8 1804.99 3551.8 1806.5 3551.8 1808.01 3550.57 1809.23 3549.07 1809.23L3538.15 1809.23C3536.65 1809.23 3535.43 1808.01 3535.43 1806.5 3535.43 1804.99 3536.65 1803.77 3538.15 1803.77ZM3559.98 1803.77 3570.89 1803.77C3572.4 1803.77 3573.62 1804.99 3573.62 1806.5 3573.62 1808.01 3572.4 1809.23 3570.89 1809.23L3559.98 1809.23C3558.47 1809.23 3557.25 1808.01 3557.25 1806.5 3557.25 1804.99 3558.47 1803.77 3559.98 1803.77ZM3581.81 1803.77 3592.72 1803.77C3594.23 1803.77 3595.45 1804.99 3595.45 1806.5 3595.45 1808.01 3594.23 1809.23 3592.72 1809.23L3581.81 1809.23C3580.3 1809.23 3579.08 1808.01 3579.08 1806.5 3579.08 1804.99 3580.3 1803.77 3581.81 1803.77ZM3603.63 1803.77 3614.55 1803.77C3616.05 1803.77 3617.28 1804.99 3617.28 1806.5 3617.28 1808.01 3616.05 1809.23 3614.55 1809.23L3603.63 1809.23C3602.13 1809.23 3600.91 1808.01 3600.91 1806.5 3600.91 1804.99 3602.13 1803.77 3603.63 1803.77ZM3625.46 1803.77 3636.37 1803.77C3637.88 1803.77 3639.1 1804.99 3639.1 1806.5 3639.1 1808.01 3637.88 1809.23 3636.37 1809.23L3625.46 1809.23C3623.95 1809.23 3622.73 1808.01 3622.73 1806.5 3622.73 1804.99 3623.95 1803.77 3625.46 1803.77ZM3647.29 1803.77 3658.2 1803.77C3659.71 1803.77 3660.93 1804.99 3660.93 1806.5 3660.93 1808.01 3659.71 1809.23 3658.2 1809.23L3647.29 1809.23C3645.78 1809.23 3644.56 1808.01 3644.56 1806.5 3644.56 1804.99 3645.78 1803.77 3647.29 1803.77ZM3669.11 1803.77 3680.03 1803.77C3681.53 1803.77 3682.76 1804.99 3682.76 1806.5 3682.76 1808.01 3681.53 1809.23 3680.03 1809.23L3669.11 1809.23C3667.61 1809.23 3666.39 1808.01 3666.39 1806.5 3666.39 1804.99 3667.61 1803.77 3669.11 1803.77ZM3690.94 1803.77 3701.85 1803.77C3703.36 1803.77 3704.58 1804.99 3704.58 1806.5 3704.58 1808.01 3703.36 1809.23 3701.85 1809.23L3690.94 1809.23C3689.43 1809.23 3688.21 1808.01 3688.21 1806.5 3688.21 1804.99 3689.43 1803.77 3690.94 1803.77ZM3712.77 1803.77 3723.68 1803.77C3725.19 1803.77 3726.41 1804.99 3726.41 1806.5 3726.41 1808.01 3725.19 1809.23 3723.68 1809.23L3712.77 1809.23C3711.26 1809.23 3710.04 1808.01 3710.04 1806.5 3710.04 1804.99 3711.26 1803.77 3712.77 1803.77ZM3734.59 1803.77 3745.51 1803.77C3747.01 1803.77 3748.24 1804.99 3748.24 1806.5 3748.24 1808.01 3747.01 1809.23 3745.51 1809.23L3734.59 1809.23C3733.09 1809.23 3731.87 1808.01 3731.87 1806.5 3731.87 1804.99 3733.09 1803.77 3734.59 1803.77ZM3756.42 1803.77 3767.33 1803.77C3768.84 1803.77 3770.06 1804.99 3770.06 1806.5 3770.06 1808.01 3768.84 1809.23 3767.33 1809.23L3756.42 1809.23C3754.91 1809.23 3753.69 1808.01 3753.69 1806.5 3753.69 1804.99 3754.91 1803.77 3756.42 1803.77ZM3778.25 1803.77 3789.16 1803.77C3790.67 1803.77 3791.89 1804.99 3791.89 1806.5 3791.89 1808.01 3790.67 1809.23 3789.16 1809.23L3778.25 1809.23C3776.74 1809.23 3775.52 1808.01 3775.52 1806.5 3775.52 1804.99 3776.74 1803.77 3778.25 1803.77ZM3800.07 1803.77 3810.99 1803.77C3812.5 1803.77 3813.72 1804.99 3813.72 1806.5 3813.72 1808.01 3812.5 1809.23 3810.99 1809.23L3800.07 1809.23C3798.57 1809.23 3797.35 1808.01 3797.35 1806.5 3797.35 1804.99 3798.57 1803.77 3800.07 1803.77ZM3821.9 1803.77 3832.81 1803.77C3834.32 1803.77 3835.54 1804.99 3835.54 1806.5 3835.54 1808.01 3834.32 1809.23 3832.81 1809.23L3821.9 1809.23C3820.39 1809.23 3819.17 1808.01 3819.17 1806.5 3819.17 1804.99 3820.39 1803.77 3821.9 1803.77ZM3843.73 1803.77 3850.5 1803.77 3854.64 1803.77C3856.15 1803.77 3857.37 1804.99 3857.37 1806.5 3857.37 1808.01 3856.15 1809.23 3854.64 1809.23L3850.5 1809.23 3843.73 1809.23C3842.22 1809.23 3841 1808.01 3841 1806.5 3841 1804.99 3842.22 1803.77 3843.73 1803.77ZM3865.56 1803.77 3876.47 1803.77C3877.98 1803.77 3879.2 1804.99 3879.2 1806.5 3879.2 1808.01 3877.98 1809.23 3876.47 1809.23L3865.56 1809.23C3864.05 1809.23 3862.83 1808.01 3862.83 1806.5 3862.83 1804.99 3864.05 1803.77 3865.56 1803.77ZM3887.38 1803.77 3898.3 1803.77C3899.8 1803.77 3901.02 1804.99 3901.02 1806.5 3901.02 1808.01 3899.8 1809.23 3898.3 1809.23L3887.38 1809.23C3885.88 1809.23 3884.65 1808.01 3884.65 1806.5 3884.65 1804.99 3885.88 1803.77 3887.38 1803.77ZM3909.21 1803.77 3920.12 1803.77C3921.63 1803.77 3922.85 1804.99 3922.85 1806.5 3922.85 1808.01 3921.63 1809.23 3920.12 1809.23L3909.21 1809.23C3907.7 1809.23 3906.48 1808.01 3906.48 1806.5 3906.48 1804.99 3907.7 1803.77 3909.21 1803.77ZM3931.04 1803.77 3941.95 1803.77C3943.46 1803.77 3944.68 1804.99 3944.68 1806.5 3944.68 1808.01 3943.46 1809.23 3941.95 1809.23L3931.04 1809.23C3929.53 1809.23 3928.31 1808.01 3928.31 1806.5 3928.31 1804.99 3929.53 1803.77 3931.04 1803.77ZM3952.86 1803.77 3963.78 1803.77C3965.28 1803.77 3966.5 1804.99 3966.5 1806.5 3966.5 1808.01 3965.28 1809.23 3963.78 1809.23L3952.86 1809.23C3951.36 1809.23 3950.13 1808.01 3950.13 1806.5 3950.13 1804.99 3951.36 1803.77 3952.86 1803.77ZM3974.69 1803.77 3985.6 1803.77C3987.11 1803.77 3988.33 1804.99 3988.33 1806.5 3988.33 1808.01 3987.11 1809.23 3985.6 1809.23L3974.69 1809.23C3973.18 1809.23 3971.96 1808.01 3971.96 1806.5 3971.96 1804.99 3973.18 1803.77 3974.69 1803.77ZM3996.52 1803.77 4007.43 1803.77C4008.94 1803.77 4010.16 1804.99 4010.16 1806.5 4010.16 1808.01 4008.94 1809.23 4007.43 1809.23L3996.52 1809.23C3995.01 1809.23 3993.79 1808.01 3993.79 1806.5 3993.79 1804.99 3995.01 1803.77 3996.52 1803.77ZM4018.34 1803.77 4029.26 1803.77C4030.76 1803.77 4031.98 1804.99 4031.98 1806.5 4031.98 1808.01 4030.76 1809.23 4029.26 1809.23L4018.34 1809.23C4016.84 1809.23 4015.61 1808.01 4015.61 1806.5 4015.61 1804.99 4016.84 1803.77 4018.34 1803.77ZM4040.17 1803.77 4051.08 1803.77C4052.59 1803.77 4053.81 1804.99 4053.81 1806.5 4053.81 1808.01 4052.59 1809.23 4051.08 1809.23L4040.17 1809.23C4038.66 1809.23 4037.44 1808.01 4037.44 1806.5 4037.44 1804.99 4038.66 1803.77 4040.17 1803.77ZM4062 1803.77 4072.91 1803.77C4074.42 1803.77 4075.64 1804.99 4075.64 1806.5 4075.64 1808.01 4074.42 1809.23 4072.91 1809.23L4062 1809.23C4060.49 1809.23 4059.27 1808.01 4059.27 1806.5 4059.27 1804.99 4060.49 1803.77 4062 1803.77ZM4083.82 1803.77 4094.74 1803.77C4096.24 1803.77 4097.46 1804.99 4097.46 1806.5 4097.46 1808.01 4096.24 1809.23 4094.74 1809.23L4083.82 1809.23C4082.32 1809.23 4081.09 1808.01 4081.09 1806.5 4081.09 1804.99 4082.32 1803.77 4083.82 1803.77ZM4105.65 1803.77 4116.56 1803.77C4118.07 1803.77 4119.29 1804.99 4119.29 1806.5 4119.29 1808.01 4118.07 1809.23 4116.56 1809.23L4105.65 1809.23C4104.14 1809.23 4102.92 1808.01 4102.92 1806.5 4102.92 1804.99 4104.14 1803.77 4105.65 1803.77ZM4127.48 1803.77 4138.39 1803.77C4139.9 1803.77 4141.12 1804.99 4141.12 1806.5 4141.12 1808.01 4139.9 1809.23 4138.39 1809.23L4127.48 1809.23C4125.97 1809.23 4124.75 1808.01 4124.75 1806.5 4124.75 1804.99 4125.97 1803.77 4127.48 1803.77ZM4149.3 1803.77 4160.22 1803.77C4161.72 1803.77 4162.94 1804.99 4162.94 1806.5 4162.94 1808.01 4161.72 1809.23 4160.22 1809.23L4149.3 1809.23C4147.8 1809.23 4146.57 1808.01 4146.57 1806.5 4146.57 1804.99 4147.8 1803.77 4149.3 1803.77ZM4171.13 1803.77 4182.04 1803.77C4183.55 1803.77 4184.77 1804.99 4184.77 1806.5 4184.77 1808.01 4183.55 1809.23 4182.04 1809.23L4171.13 1809.23C4169.62 1809.23 4168.4 1808.01 4168.4 1806.5 4168.4 1804.99 4169.62 1803.77 4171.13 1803.77ZM4192.96 1803.77 4203.87 1803.77C4205.38 1803.77 4206.6 1804.99 4206.6 1806.5 4206.6 1808.01 4205.38 1809.23 4203.87 1809.23L4192.96 1809.23C4191.45 1809.23 4190.23 1808.01 4190.23 1806.5 4190.23 1804.99 4191.45 1803.77 4192.96 1803.77ZM4214.78 1803.77 4225.7 1803.77C4227.2 1803.77 4228.43 1804.99 4228.43 1806.5 4228.43 1808.01 4227.2 1809.23 4225.7 1809.23L4214.78 1809.23C4213.28 1809.23 4212.06 1808.01 4212.06 1806.5 4212.06 1804.99 4213.28 1803.77 4214.78 1803.77ZM4236.61 1803.77 4247.52 1803.77C4249.03 1803.77 4250.25 1804.99 4250.25 1806.5 4250.25 1808.01 4249.03 1809.23 4247.52 1809.23L4236.61 1809.23C4235.1 1809.23 4233.88 1808.01 4233.88 1806.5 4233.88 1804.99 4235.1 1803.77 4236.61 1803.77ZM4258.44 1803.77 4269.35 1803.77C4270.86 1803.77 4272.08 1804.99 4272.08 1806.5 4272.08 1808.01 4270.86 1809.23 4269.35 1809.23L4258.44 1809.23C4256.93 1809.23 4255.71 1808.01 4255.71 1806.5 4255.71 1804.99 4256.93 1803.77 4258.44 1803.77ZM4280.26 1803.77 4291.18 1803.77C4292.68 1803.77 4293.91 1804.99 4293.91 1806.5 4293.91 1808.01 4292.68 1809.23 4291.18 1809.23L4280.26 1809.23C4278.76 1809.23 4277.54 1808.01 4277.54 1806.5 4277.54 1804.99 4278.76 1803.77 4280.26 1803.77ZM4302.09 1803.77 4313 1803.77C4314.51 1803.77 4315.73 1804.99 4315.73 1806.5 4315.73 1808.01 4314.51 1809.23 4313 1809.23L4302.09 1809.23C4300.58 1809.23 4299.36 1808.01 4299.36 1806.5 4299.36 1804.99 4300.58 1803.77 4302.09 1803.77ZM4323.92 1803.77 4334.83 1803.77C4336.34 1803.77 4337.56 1804.99 4337.56 1806.5 4337.56 1808.01 4336.34 1809.23 4334.83 1809.23L4323.92 1809.23C4322.41 1809.23 4321.19 1808.01 4321.19 1806.5 4321.19 1804.99 4322.41 1803.77 4323.92 1803.77ZM4345.74 1803.77 4356.66 1803.77C4358.16 1803.77 4359.39 1804.99 4359.39 1806.5 4359.39 1808.01 4358.16 1809.23 4356.66 1809.23L4345.74 1809.23C4344.24 1809.23 4343.02 1808.01 4343.02 1806.5 4343.02 1804.99 4344.24 1803.77 4345.74 1803.77ZM4367.57 1803.77 4378.48 1803.77C4379.99 1803.77 4381.21 1804.99 4381.21 1806.5 4381.21 1808.01 4379.99 1809.23 4378.48 1809.23L4367.57 1809.23C4366.06 1809.23 4364.84 1808.01 4364.84 1806.5 4364.84 1804.99 4366.06 1803.77 4367.57 1803.77ZM4389.4 1803.77 4400.31 1803.77C4401.82 1803.77 4403.04 1804.99 4403.04 1806.5 4403.04 1808.01 4401.82 1809.23 4400.31 1809.23L4389.4 1809.23C4387.89 1809.23 4386.67 1808.01 4386.67 1806.5 4386.67 1804.99 4387.89 1803.77 4389.4 1803.77ZM4411.22 1803.77 4422.14 1803.77C4423.64 1803.77 4424.87 1804.99 4424.87 1806.5 4424.87 1808.01 4423.64 1809.23 4422.14 1809.23L4411.22 1809.23C4409.72 1809.23 4408.5 1808.01 4408.5 1806.5 4408.5 1804.99 4409.72 1803.77 4411.22 1803.77ZM4433.05 1803.77 4443.96 1803.77C4445.47 1803.77 4446.69 1804.99 4446.69 1806.5 4446.69 1808.01 4445.47 1809.23 4443.96 1809.23L4433.05 1809.23C4431.54 1809.23 4430.32 1808.01 4430.32 1806.5 4430.32 1804.99 4431.54 1803.77 4433.05 1803.77ZM4454.88 1803.77 4465.79 1803.77C4467.3 1803.77 4468.52 1804.99 4468.52 1806.5 4468.52 1808.01 4467.3 1809.23 4465.79 1809.23L4454.88 1809.23C4453.37 1809.23 4452.15 1808.01 4452.15 1806.5 4452.15 1804.99 4453.37 1803.77 4454.88 1803.77ZM4476.7 1803.77 4487.62 1803.77C4489.12 1803.77 4490.35 1804.99 4490.35 1806.5 4490.35 1808.01 4489.12 1809.23 4487.62 1809.23L4476.7 1809.23C4475.2 1809.23 4473.98 1808.01 4473.98 1806.5 4473.98 1804.99 4475.2 1803.77 4476.7 1803.77ZM4498.53 1803.77 4509.44 1803.77C4510.95 1803.77 4512.17 1804.99 4512.17 1806.5 4512.17 1808.01 4510.95 1809.23 4509.44 1809.23L4498.53 1809.23C4497.02 1809.23 4495.8 1808.01 4495.8 1806.5 4495.8 1804.99 4497.02 1803.77 4498.53 1803.77ZM4520.36 1803.77 4531.27 1803.77C4532.78 1803.77 4534 1804.99 4534 1806.5 4534 1808.01 4532.78 1809.23 4531.27 1809.23L4520.36 1809.23C4518.85 1809.23 4517.63 1808.01 4517.63 1806.5 4517.63 1804.99 4518.85 1803.77 4520.36 1803.77ZM4542.19 1803.77 4553.1 1803.77C4554.61 1803.77 4555.83 1804.99 4555.83 1806.5 4555.83 1808.01 4554.61 1809.23 4553.1 1809.23L4542.19 1809.23C4540.68 1809.23 4539.46 1808.01 4539.46 1806.5 4539.46 1804.99 4540.68 1803.77 4542.19 1803.77ZM4564.01 1803.77 4574.93 1803.77C4576.43 1803.77 4577.65 1804.99 4577.65 1806.5 4577.65 1808.01 4576.43 1809.23 4574.93 1809.23L4564.01 1809.23C4562.5 1809.23 4561.28 1808.01 4561.28 1806.5 4561.28 1804.99 4562.5 1803.77 4564.01 1803.77ZM4585.84 1803.77 4596.75 1803.77C4598.26 1803.77 4599.48 1804.99 4599.48 1806.5 4599.48 1808.01 4598.26 1809.23 4596.75 1809.23L4585.84 1809.23C4584.33 1809.23 4583.11 1808.01 4583.11 1806.5 4583.11 1804.99 4584.33 1803.77 4585.84 1803.77ZM4607.67 1803.77 4618.58 1803.77C4620.09 1803.77 4621.31 1804.99 4621.31 1806.5 4621.31 1808.01 4620.09 1809.23 4618.58 1809.23L4607.67 1809.23C4606.16 1809.23 4604.94 1808.01 4604.94 1806.5 4604.94 1804.99 4606.16 1803.77 4607.67 1803.77ZM4629.49 1803.77 4640.41 1803.77C4641.91 1803.77 4643.13 1804.99 4643.13 1806.5 4643.13 1808.01 4641.91 1809.23 4640.41 1809.23L4629.49 1809.23C4627.99 1809.23 4626.76 1808.01 4626.76 1806.5 4626.76 1804.99 4627.99 1803.77 4629.49 1803.77ZM4651.32 1803.77 4662.23 1803.77C4663.74 1803.77 4664.96 1804.99 4664.96 1806.5 4664.96 1808.01 4663.74 1809.23 4662.23 1809.23L4651.32 1809.23C4649.81 1809.23 4648.59 1808.01 4648.59 1806.5 4648.59 1804.99 4649.81 1803.77 4651.32 1803.77ZM4673.15 1803.77 4684.06 1803.77C4685.57 1803.77 4686.79 1804.99 4686.79 1806.5 4686.79 1808.01 4685.57 1809.23 4684.06 1809.23L4673.15 1809.23C4671.64 1809.23 4670.42 1808.01 4670.42 1806.5 4670.42 1804.99 4671.64 1803.77 4673.15 1803.77ZM4694.97 1803.77 4705.89 1803.77C4707.39 1803.77 4708.61 1804.99 4708.61 1806.5 4708.61 1808.01 4707.39 1809.23 4705.89 1809.23L4694.97 1809.23C4693.47 1809.23 4692.24 1808.01 4692.24 1806.5 4692.24 1804.99 4693.47 1803.77 4694.97 1803.77ZM4716.8 1803.77 4727.71 1803.77C4729.22 1803.77 4730.44 1804.99 4730.44 1806.5 4730.44 1808.01 4729.22 1809.23 4727.71 1809.23L4716.8 1809.23C4715.29 1809.23 4714.07 1808.01 4714.07 1806.5 4714.07 1804.99 4715.29 1803.77 4716.8 1803.77ZM4738.63 1803.77 4749.54 1803.77C4751.05 1803.77 4752.27 1804.99 4752.27 1806.5 4752.27 1808.01 4751.05 1809.23 4749.54 1809.23L4738.63 1809.23C4737.12 1809.23 4735.9 1808.01 4735.9 1806.5 4735.9 1804.99 4737.12 1803.77 4738.63 1803.77ZM4760.45 1803.77 4771.37 1803.77C4772.87 1803.77 4774.09 1804.99 4774.09 1806.5 4774.09 1808.01 4772.87 1809.23 4771.37 1809.23L4760.45 1809.23C4758.95 1809.23 4757.72 1808.01 4757.72 1806.5 4757.72 1804.99 4758.95 1803.77 4760.45 1803.77ZM4782.28 1803.77 4793.19 1803.77C4794.7 1803.77 4795.92 1804.99 4795.92 1806.5 4795.92 1808.01 4794.7 1809.23 4793.19 1809.23L4782.28 1809.23C4780.77 1809.23 4779.55 1808.01 4779.55 1806.5 4779.55 1804.99 4780.77 1803.77 4782.28 1803.77ZM4804.11 1803.77 4815.02 1803.77C4816.53 1803.77 4817.75 1804.99 4817.75 1806.5 4817.75 1808.01 4816.53 1809.23 4815.02 1809.23L4804.11 1809.23C4802.6 1809.23 4801.38 1808.01 4801.38 1806.5 4801.38 1804.99 4802.6 1803.77 4804.11 1803.77ZM4825.93 1803.77 4836.85 1803.77C4838.35 1803.77 4839.57 1804.99 4839.57 1806.5 4839.57 1808.01 4838.35 1809.23 4836.85 1809.23L4825.93 1809.23C4824.43 1809.23 4823.2 1808.01 4823.2 1806.5 4823.2 1804.99 4824.43 1803.77 4825.93 1803.77ZM4847.76 1803.77 4858.67 1803.77C4860.18 1803.77 4861.4 1804.99 4861.4 1806.5 4861.4 1808.01 4860.18 1809.23 4858.67 1809.23L4847.76 1809.23C4846.25 1809.23 4845.03 1808.01 4845.03 1806.5 4845.03 1804.99 4846.25 1803.77 4847.76 1803.77ZM4869.59 1803.77 4880.5 1803.77C4882.01 1803.77 4883.23 1804.99 4883.23 1806.5 4883.23 1808.01 4882.01 1809.23 4880.5 1809.23L4869.59 1809.23C4868.08 1809.23 4866.86 1808.01 4866.86 1806.5 4866.86 1804.99 4868.08 1803.77 4869.59 1803.77ZM4891.41 1803.77 4902.33 1803.77C4903.83 1803.77 4905.06 1804.99 4905.06 1806.5 4905.06 1808.01 4903.83 1809.23 4902.33 1809.23L4891.41 1809.23C4889.91 1809.23 4888.69 1808.01 4888.69 1806.5 4888.69 1804.99 4889.91 1803.77 4891.41 1803.77ZM4913.24 1803.77 4918.5 1803.77 4924.15 1803.77C4925.66 1803.77 4926.88 1804.99 4926.88 1806.5 4926.88 1808.01 4925.66 1809.23 4924.15 1809.23L4918.5 1809.23 4913.24 1809.23C4911.73 1809.23 4910.51 1808.01 4910.51 1806.5 4910.51 1804.99 4911.73 1803.77 4913.24 1803.77ZM4935.07 1803.77 4945.98 1803.77C4947.49 1803.77 4948.71 1804.99 4948.71 1806.5 4948.71 1808.01 4947.49 1809.23 4945.98 1809.23L4935.07 1809.23C4933.56 1809.23 4932.34 1808.01 4932.34 1806.5 4932.34 1804.99 4933.56 1803.77 4935.07 1803.77ZM4956.89 1803.77 4967.81 1803.77C4969.31 1803.77 4970.54 1804.99 4970.54 1806.5 4970.54 1808.01 4969.31 1809.23 4967.81 1809.23L4956.89 1809.23C4955.39 1809.23 4954.17 1808.01 4954.17 1806.5 4954.17 1804.99 4955.39 1803.77 4956.89 1803.77ZM4978.72 1803.77 4989.63 1803.77C4991.14 1803.77 4992.36 1804.99 4992.36 1806.5 4992.36 1808.01 4991.14 1809.23 4989.63 1809.23L4978.72 1809.23C4977.21 1809.23 4975.99 1808.01 4975.99 1806.5 4975.99 1804.99 4977.21 1803.77 4978.72 1803.77ZM5000.55 1803.77 5011.46 1803.77C5012.97 1803.77 5014.19 1804.99 5014.19 1806.5 5014.19 1808.01 5012.97 1809.23 5011.46 1809.23L5000.55 1809.23C4999.04 1809.23 4997.82 1808.01 4997.82 1806.5 4997.82 1804.99 4999.04 1803.77 5000.55 1803.77ZM5022.37 1803.77 5033.29 1803.77C5034.79 1803.77 5036.02 1804.99 5036.02 1806.5 5036.02 1808.01 5034.79 1809.23 5033.29 1809.23L5022.37 1809.23C5020.87 1809.23 5019.65 1808.01 5019.65 1806.5 5019.65 1804.99 5020.87 1803.77 5022.37 1803.77ZM5044.2 1803.77 5055.11 1803.77C5056.62 1803.77 5057.84 1804.99 5057.84 1806.5 5057.84 1808.01 5056.62 1809.23 5055.11 1809.23L5044.2 1809.23C5042.69 1809.23 5041.47 1808.01 5041.47 1806.5 5041.47 1804.99 5042.69 1803.77 5044.2 1803.77ZM5066.03 1803.77 5076.94 1803.77C5078.45 1803.77 5079.67 1804.99 5079.67 1806.5 5079.67 1808.01 5078.45 1809.23 5076.94 1809.23L5066.03 1809.23C5064.52 1809.23 5063.3 1808.01 5063.3 1806.5 5063.3 1804.99 5064.52 1803.77 5066.03 1803.77ZM5087.85 1803.77 5098.77 1803.77C5100.27 1803.77 5101.5 1804.99 5101.5 1806.5 5101.5 1808.01 5100.27 1809.23 5098.77 1809.23L5087.85 1809.23C5086.35 1809.23 5085.13 1808.01 5085.13 1806.5 5085.13 1804.99 5086.35 1803.77 5087.85 1803.77ZM5109.68 1803.77 5120.59 1803.77C5122.1 1803.77 5123.32 1804.99 5123.32 1806.5 5123.32 1808.01 5122.1 1809.23 5120.59 1809.23L5109.68 1809.23C5108.17 1809.23 5106.95 1808.01 5106.95 1806.5 5106.95 1804.99 5108.17 1803.77 5109.68 1803.77ZM5131.51 1803.77 5142.42 1803.77C5143.93 1803.77 5145.15 1804.99 5145.15 1806.5 5145.15 1808.01 5143.93 1809.23 5142.42 1809.23L5131.51 1809.23C5130 1809.23 5128.78 1808.01 5128.78 1806.5 5128.78 1804.99 5130 1803.77 5131.51 1803.77ZM5153.33 1803.77 5164.25 1803.77C5165.75 1803.77 5166.98 1804.99 5166.98 1806.5 5166.98 1808.01 5165.75 1809.23 5164.25 1809.23L5153.33 1809.23C5151.83 1809.23 5150.61 1808.01 5150.61 1806.5 5150.61 1804.99 5151.83 1803.77 5153.33 1803.77ZM5175.16 1803.77 5186.07 1803.77C5187.58 1803.77 5188.8 1804.99 5188.8 1806.5 5188.8 1808.01 5187.58 1809.23 5186.07 1809.23L5175.16 1809.23C5173.65 1809.23 5172.43 1808.01 5172.43 1806.5 5172.43 1804.99 5173.65 1803.77 5175.16 1803.77ZM5196.99 1803.77 5207.9 1803.77C5209.41 1803.77 5210.63 1804.99 5210.63 1806.5 5210.63 1808.01 5209.41 1809.23 5207.9 1809.23L5196.99 1809.23C5195.48 1809.23 5194.26 1808.01 5194.26 1806.5 5194.26 1804.99 5195.48 1803.77 5196.99 1803.77ZM5218.81 1803.77 5229.73 1803.77C5231.24 1803.77 5232.46 1804.99 5232.46 1806.5 5232.46 1808.01 5231.24 1809.23 5229.73 1809.23L5218.81 1809.23C5217.31 1809.23 5216.09 1808.01 5216.09 1806.5 5216.09 1804.99 5217.31 1803.77 5218.81 1803.77ZM5240.64 1803.77 5251.56 1803.77C5253.06 1803.77 5254.28 1804.99 5254.28 1806.5 5254.28 1808.01 5253.06 1809.23 5251.56 1809.23L5240.64 1809.23C5239.13 1809.23 5237.91 1808.01 5237.91 1806.5 5237.91 1804.99 5239.13 1803.77 5240.64 1803.77ZM5262.47 1803.77 5273.38 1803.77C5274.89 1803.77 5276.11 1804.99 5276.11 1806.5 5276.11 1808.01 5274.89 1809.23 5273.38 1809.23L5262.47 1809.23C5260.96 1809.23 5259.74 1808.01 5259.74 1806.5 5259.74 1804.99 5260.96 1803.77 5262.47 1803.77ZM5284.3 1803.77 5295.21 1803.77C5296.72 1803.77 5297.94 1804.99 5297.94 1806.5 5297.94 1808.01 5296.72 1809.23 5295.21 1809.23L5284.3 1809.23C5282.79 1809.23 5281.57 1808.01 5281.57 1806.5 5281.57 1804.99 5282.79 1803.77 5284.3 1803.77ZM5306.12 1803.77 5317.04 1803.77C5318.54 1803.77 5319.76 1804.99 5319.76 1806.5 5319.76 1808.01 5318.54 1809.23 5317.04 1809.23L5306.12 1809.23C5304.62 1809.23 5303.39 1808.01 5303.39 1806.5 5303.39 1804.99 5304.62 1803.77 5306.12 1803.77ZM5327.95 1803.77 5338.86 1803.77C5340.37 1803.77 5341.59 1804.99 5341.59 1806.5 5341.59 1808.01 5340.37 1809.23 5338.86 1809.23L5327.95 1809.23C5326.44 1809.23 5325.22 1808.01 5325.22 1806.5 5325.22 1804.99 5326.44 1803.77 5327.95 1803.77ZM5349.78 1803.77 5360.69 1803.77C5362.2 1803.77 5363.42 1804.99 5363.42 1806.5 5363.42 1808.01 5362.2 1809.23 5360.69 1809.23L5349.78 1809.23C5348.27 1809.23 5347.05 1808.01 5347.05 1806.5 5347.05 1804.99 5348.27 1803.77 5349.78 1803.77ZM5371.6 1803.77 5382.52 1803.77C5384.02 1803.77 5385.24 1804.99 5385.24 1806.5 5385.24 1808.01 5384.02 1809.23 5382.52 1809.23L5371.6 1809.23C5370.1 1809.23 5368.87 1808.01 5368.87 1806.5 5368.87 1804.99 5370.1 1803.77 5371.6 1803.77ZM5393.43 1803.77 5404.34 1803.77C5405.85 1803.77 5407.07 1804.99 5407.07 1806.5 5407.07 1808.01 5405.85 1809.23 5404.34 1809.23L5393.43 1809.23C5391.92 1809.23 5390.7 1808.01 5390.7 1806.5 5390.7 1804.99 5391.92 1803.77 5393.43 1803.77ZM5415.26 1803.77 5426.17 1803.77C5427.68 1803.77 5428.9 1804.99 5428.9 1806.5 5428.9 1808.01 5427.68 1809.23 5426.17 1809.23L5415.26 1809.23C5413.75 1809.23 5412.53 1808.01 5412.53 1806.5 5412.53 1804.99 5413.75 1803.77 5415.26 1803.77ZM5437.08 1803.77 5448 1803.77C5449.5 1803.77 5450.72 1804.99 5450.72 1806.5 5450.72 1808.01 5449.5 1809.23 5448 1809.23L5437.08 1809.23C5435.58 1809.23 5434.35 1808.01 5434.35 1806.5 5434.35 1804.99 5435.58 1803.77 5437.08 1803.77ZM5458.91 1803.77 5469.82 1803.77C5471.33 1803.77 5472.55 1804.99 5472.55 1806.5 5472.55 1808.01 5471.33 1809.23 5469.82 1809.23L5458.91 1809.23C5457.4 1809.23 5456.18 1808.01 5456.18 1806.5 5456.18 1804.99 5457.4 1803.77 5458.91 1803.77ZM5480.74 1803.77 5491.65 1803.77C5493.16 1803.77 5494.38 1804.99 5494.38 1806.5 5494.38 1808.01 5493.16 1809.23 5491.65 1809.23L5480.74 1809.23C5479.23 1809.23 5478.01 1808.01 5478.01 1806.5 5478.01 1804.99 5479.23 1803.77 5480.74 1803.77ZM5502.56 1803.77 5513.48 1803.77C5514.98 1803.77 5516.2 1804.99 5516.2 1806.5 5516.2 1808.01 5514.98 1809.23 5513.48 1809.23L5502.56 1809.23C5501.06 1809.23 5499.83 1808.01 5499.83 1806.5 5499.83 1804.99 5501.06 1803.77 5502.56 1803.77ZM5524.39 1803.77 5535.3 1803.77C5536.81 1803.77 5538.03 1804.99 5538.03 1806.5 5538.03 1808.01 5536.81 1809.23 5535.3 1809.23L5524.39 1809.23C5522.88 1809.23 5521.66 1808.01 5521.66 1806.5 5521.66 1804.99 5522.88 1803.77 5524.39 1803.77ZM5546.22 1803.77 5557.13 1803.77C5558.64 1803.77 5559.86 1804.99 5559.86 1806.5 5559.86 1808.01 5558.64 1809.23 5557.13 1809.23L5546.22 1809.23C5544.71 1809.23 5543.49 1808.01 5543.49 1806.5 5543.49 1804.99 5544.71 1803.77 5546.22 1803.77ZM5568.04 1803.77 5578.96 1803.77C5580.46 1803.77 5581.69 1804.99 5581.69 1806.5 5581.69 1808.01 5580.46 1809.23 5578.96 1809.23L5568.04 1809.23C5566.54 1809.23 5565.31 1808.01 5565.31 1806.5 5565.31 1804.99 5566.54 1803.77 5568.04 1803.77ZM5589.87 1803.77 5600.78 1803.77C5602.29 1803.77 5603.51 1804.99 5603.51 1806.5 5603.51 1808.01 5602.29 1809.23 5600.78 1809.23L5589.87 1809.23C5588.36 1809.23 5587.14 1808.01 5587.14 1806.5 5587.14 1804.99 5588.36 1803.77 5589.87 1803.77ZM5611.7 1803.77 5622.61 1803.77C5624.12 1803.77 5625.34 1804.99 5625.34 1806.5 5625.34 1808.01 5624.12 1809.23 5622.61 1809.23L5611.7 1809.23C5610.19 1809.23 5608.97 1808.01 5608.97 1806.5 5608.97 1804.99 5610.19 1803.77 5611.7 1803.77ZM5633.52 1803.77 5644.44 1803.77C5645.94 1803.77 5647.17 1804.99 5647.17 1806.5 5647.17 1808.01 5645.94 1809.23 5644.44 1809.23L5633.52 1809.23C5632.02 1809.23 5630.8 1808.01 5630.8 1806.5 5630.8 1804.99 5632.02 1803.77 5633.52 1803.77ZM5655.35 1803.77 5666.26 1803.77C5667.77 1803.77 5668.99 1804.99 5668.99 1806.5 5668.99 1808.01 5667.77 1809.23 5666.26 1809.23L5655.35 1809.23C5653.84 1809.23 5652.62 1808.01 5652.62 1806.5 5652.62 1804.99 5653.84 1803.77 5655.35 1803.77ZM5677.18 1803.77 5688.09 1803.77C5689.6 1803.77 5690.82 1804.99 5690.82 1806.5 5690.82 1808.01 5689.6 1809.23 5688.09 1809.23L5677.18 1809.23C5675.67 1809.23 5674.45 1808.01 5674.45 1806.5 5674.45 1804.99 5675.67 1803.77 5677.18 1803.77ZM5699 1803.77 5709.92 1803.77C5711.42 1803.77 5712.65 1804.99 5712.65 1806.5 5712.65 1808.01 5711.42 1809.23 5709.92 1809.23L5699 1809.23C5697.5 1809.23 5696.28 1808.01 5696.28 1806.5 5696.28 1804.99 5697.5 1803.77 5699 1803.77ZM5720.83 1803.77 5731.74 1803.77C5733.25 1803.77 5734.47 1804.99 5734.47 1806.5 5734.47 1808.01 5733.25 1809.23 5731.74 1809.23L5720.83 1809.23C5719.32 1809.23 5718.1 1808.01 5718.1 1806.5 5718.1 1804.99 5719.32 1803.77 5720.83 1803.77ZM5742.66 1803.77 5753.57 1803.77C5755.08 1803.77 5756.3 1804.99 5756.3 1806.5 5756.3 1808.01 5755.08 1809.23 5753.57 1809.23L5742.66 1809.23C5741.15 1809.23 5739.93 1808.01 5739.93 1806.5 5739.93 1804.99 5741.15 1803.77 5742.66 1803.77ZM5764.48 1803.77 5775.4 1803.77C5776.9 1803.77 5778.13 1804.99 5778.13 1806.5 5778.13 1808.01 5776.9 1809.23 5775.4 1809.23L5764.48 1809.23C5762.98 1809.23 5761.76 1808.01 5761.76 1806.5 5761.76 1804.99 5762.98 1803.77 5764.48 1803.77ZM5786.31 1803.77 5797.22 1803.77C5798.73 1803.77 5799.95 1804.99 5799.95 1806.5 5799.95 1808.01 5798.73 1809.23 5797.22 1809.23L5786.31 1809.23C5784.8 1809.23 5783.58 1808.01 5783.58 1806.5 5783.58 1804.99 5784.8 1803.77 5786.31 1803.77ZM5808.14 1803.77 5819.05 1803.77C5820.56 1803.77 5821.78 1804.99 5821.78 1806.5 5821.78 1808.01 5820.56 1809.23 5819.05 1809.23L5808.14 1809.23C5806.63 1809.23 5805.41 1808.01 5805.41 1806.5 5805.41 1804.99 5806.63 1803.77 5808.14 1803.77ZM5829.96 1803.77 5840.88 1803.77C5842.38 1803.77 5843.61 1804.99 5843.61 1806.5 5843.61 1808.01 5842.38 1809.23 5840.88 1809.23L5829.96 1809.23C5828.46 1809.23 5827.24 1808.01 5827.24 1806.5 5827.24 1804.99 5828.46 1803.77 5829.96 1803.77ZM5851.79 1803.77 5862.7 1803.77C5864.21 1803.77 5865.43 1804.99 5865.43 1806.5 5865.43 1808.01 5864.21 1809.23 5862.7 1809.23L5851.79 1809.23C5850.28 1809.23 5849.06 1808.01 5849.06 1806.5 5849.06 1804.99 5850.28 1803.77 5851.79 1803.77ZM5873.62 1803.77 5884.53 1803.77C5886.04 1803.77 5887.26 1804.99 5887.26 1806.5 5887.26 1808.01 5886.04 1809.23 5884.53 1809.23L5873.62 1809.23C5872.11 1809.23 5870.89 1808.01 5870.89 1806.5 5870.89 1804.99 5872.11 1803.77 5873.62 1803.77ZM5895.44 1803.77 5906.36 1803.77C5907.87 1803.77 5909.09 1804.99 5909.09 1806.5 5909.09 1808.01 5907.87 1809.23 5906.36 1809.23L5895.44 1809.23C5893.94 1809.23 5892.72 1808.01 5892.72 1806.5 5892.72 1804.99 5893.94 1803.77 5895.44 1803.77ZM5917.27 1803.77 5928.19 1803.77C5929.69 1803.77 5930.91 1804.99 5930.91 1806.5 5930.91 1808.01 5929.69 1809.23 5928.19 1809.23L5917.27 1809.23C5915.76 1809.23 5914.54 1808.01 5914.54 1806.5 5914.54 1804.99 5915.76 1803.77 5917.27 1803.77ZM5939.1 1803.77 5950.01 1803.77C5951.52 1803.77 5952.74 1804.99 5952.74 1806.5 5952.74 1808.01 5951.52 1809.23 5950.01 1809.23L5939.1 1809.23C5937.59 1809.23 5936.37 1808.01 5936.37 1806.5 5936.37 1804.99 5937.59 1803.77 5939.1 1803.77ZM5960.93 1803.77 5971.84 1803.77C5973.35 1803.77 5974.57 1804.99 5974.57 1806.5 5974.57 1808.01 5973.35 1809.23 5971.84 1809.23L5960.93 1809.23C5959.42 1809.23 5958.2 1808.01 5958.2 1806.5 5958.2 1804.99 5959.42 1803.77 5960.93 1803.77ZM5982.75 1803.77 5986.5 1803.77 5993.67 1803.77C5995.17 1803.77 5996.39 1804.99 5996.39 1806.5 5996.39 1808.01 5995.17 1809.23 5993.67 1809.23L5986.5 1809.23 5982.75 1809.23C5981.25 1809.23 5980.02 1808.01 5980.02 1806.5 5980.02 1804.99 5981.25 1803.77 5982.75 1803.77ZM6004.58 1803.77 6015.49 1803.77C6017 1803.77 6018.22 1804.99 6018.22 1806.5 6018.22 1808.01 6017 1809.23 6015.49 1809.23L6004.58 1809.23C6003.07 1809.23 6001.85 1808.01 6001.85 1806.5 6001.85 1804.99 6003.07 1803.77 6004.58 1803.77ZM6026.41 1803.77 6037.32 1803.77C6038.83 1803.77 6040.05 1804.99 6040.05 1806.5 6040.05 1808.01 6038.83 1809.23 6037.32 1809.23L6026.41 1809.23C6024.9 1809.23 6023.68 1808.01 6023.68 1806.5 6023.68 1804.99 6024.9 1803.77 6026.41 1803.77ZM6048.23 1803.77 6059.15 1803.77C6060.65 1803.77 6061.87 1804.99 6061.87 1806.5 6061.87 1808.01 6060.65 1809.23 6059.15 1809.23L6048.23 1809.23C6046.73 1809.23 6045.5 1808.01 6045.5 1806.5 6045.5 1804.99 6046.73 1803.77 6048.23 1803.77ZM6070.06 1803.77 6080.97 1803.77C6082.48 1803.77 6083.7 1804.99 6083.7 1806.5 6083.7 1808.01 6082.48 1809.23 6080.97 1809.23L6070.06 1809.23C6068.55 1809.23 6067.33 1808.01 6067.33 1806.5 6067.33 1804.99 6068.55 1803.77 6070.06 1803.77ZM6091.89 1803.77 6102.8 1803.77C6104.31 1803.77 6105.53 1804.99 6105.53 1806.5 6105.53 1808.01 6104.31 1809.23 6102.8 1809.23L6091.89 1809.23C6090.38 1809.23 6089.16 1808.01 6089.16 1806.5 6089.16 1804.99 6090.38 1803.77 6091.89 1803.77ZM6113.71 1803.77 6124.63 1803.77C6126.13 1803.77 6127.35 1804.99 6127.35 1806.5 6127.35 1808.01 6126.13 1809.23 6124.63 1809.23L6113.71 1809.23C6112.21 1809.23 6110.98 1808.01 6110.98 1806.5 6110.98 1804.99 6112.21 1803.77 6113.71 1803.77ZM6135.54 1803.77 6146.45 1803.77C6147.96 1803.77 6149.18 1804.99 6149.18 1806.5 6149.18 1808.01 6147.96 1809.23 6146.45 1809.23L6135.54 1809.23C6134.03 1809.23 6132.81 1808.01 6132.81 1806.5 6132.81 1804.99 6134.03 1803.77 6135.54 1803.77ZM6157.37 1803.77 6168.28 1803.77C6169.79 1803.77 6171.01 1804.99 6171.01 1806.5 6171.01 1808.01 6169.79 1809.23 6168.28 1809.23L6157.37 1809.23C6155.86 1809.23 6154.64 1808.01 6154.64 1806.5 6154.64 1804.99 6155.86 1803.77 6157.37 1803.77ZM6179.19 1803.77 6190.11 1803.77C6191.61 1803.77 6192.83 1804.99 6192.83 1806.5 6192.83 1808.01 6191.61 1809.23 6190.11 1809.23L6179.19 1809.23C6177.69 1809.23 6176.46 1808.01 6176.46 1806.5 6176.46 1804.99 6177.69 1803.77 6179.19 1803.77ZM6201.02 1803.77 6211.93 1803.77C6213.44 1803.77 6214.66 1804.99 6214.66 1806.5 6214.66 1808.01 6213.44 1809.23 6211.93 1809.23L6201.02 1809.23C6199.51 1809.23 6198.29 1808.01 6198.29 1806.5 6198.29 1804.99 6199.51 1803.77 6201.02 1803.77ZM6222.85 1803.77 6233.76 1803.77C6235.27 1803.77 6236.49 1804.99 6236.49 1806.5 6236.49 1808.01 6235.27 1809.23 6233.76 1809.23L6222.85 1809.23C6221.34 1809.23 6220.12 1808.01 6220.12 1806.5 6220.12 1804.99 6221.34 1803.77 6222.85 1803.77ZM6244.67 1803.77 6255.59 1803.77C6257.09 1803.77 6258.31 1804.99 6258.31 1806.5 6258.31 1808.01 6257.09 1809.23 6255.59 1809.23L6244.67 1809.23C6243.17 1809.23 6241.94 1808.01 6241.94 1806.5 6241.94 1804.99 6243.17 1803.77 6244.67 1803.77ZM6266.5 1803.77 6277.41 1803.77C6278.92 1803.77 6280.14 1804.99 6280.14 1806.5 6280.14 1808.01 6278.92 1809.23 6277.41 1809.23L6266.5 1809.23C6264.99 1809.23 6263.77 1808.01 6263.77 1806.5 6263.77 1804.99 6264.99 1803.77 6266.5 1803.77ZM6288.33 1803.77 6299.24 1803.77C6300.75 1803.77 6301.97 1804.99 6301.97 1806.5 6301.97 1808.01 6300.75 1809.23 6299.24 1809.23L6288.33 1809.23C6286.82 1809.23 6285.6 1808.01 6285.6 1806.5 6285.6 1804.99 6286.82 1803.77 6288.33 1803.77ZM6310.15 1803.77 6321.07 1803.77C6322.57 1803.77 6323.8 1804.99 6323.8 1806.5 6323.8 1808.01 6322.57 1809.23 6321.07 1809.23L6310.15 1809.23C6308.65 1809.23 6307.43 1808.01 6307.43 1806.5 6307.43 1804.99 6308.65 1803.77 6310.15 1803.77ZM6331.98 1803.77 6342.5 1803.77C6344.01 1803.77 6345.23 1804.99 6345.23 1806.5 6345.23 1808.01 6344.01 1809.23 6342.5 1809.23L6331.98 1809.23C6330.47 1809.23 6329.25 1808.01 6329.25 1806.5 6329.25 1804.99 6330.47 1803.77 6331.98 1803.77Z" fill="#70AD47" fill-rule="nonzero" fill-opacity="1"/></g><g><text fill="#000000" fill-opacity="1" font-family="Calibri,Calibri_MSFontService,sans-serif" font-style="normal" font-variant="normal" font-weight="400" font-stretch="normal" font-size="46" text-anchor="start" direction="ltr" writing-mode="lr-tb" unicode-bidi="normal" text-decoration="none" transform="matrix(1 0 0 1 3088.55 2028)">12,200.00</text></g><g><text fill="#000000" fill-opacity="1" font-family="Calibri,Calibri_MSFontService,sans-serif" font-style="normal" font-variant="normal" font-weight="400" font-stretch="normal" font-size="46" text-anchor="start" direction="ltr" writing-mode="lr-tb" unicode-bidi="normal" text-decoration="none" transform="matrix(1 0 0 1 3088.55 1862)">12,300.00</text></g><g><text fill="#000000" fill-opacity="1" font-family="Calibri,Calibri_MSFontService,sans-serif" font-style="normal" font-variant="normal" font-weight="400" font-stretch="normal" font-size="46" text-anchor="start" direction="ltr" writing-mode="lr-tb" unicode-bidi="normal" text-decoration="none" transform="matrix(1 0 0 1 3088.55 1696)">12,400.00</text></g><g><text fill="#000000" fill-opacity="1" font-family="Calibri,Calibri_MSFontService,sans-serif" font-style="normal" font-variant="normal" font-weight="400" font-stretch="normal" font-size="46" text-anchor="start" direction="ltr" writing-mode="lr-tb" unicode-bidi="normal" text-decoration="none" transform="matrix(1 0 0 1 3088.55 1530)">12,500.00</text></g><g><text fill="#000000" fill-opacity="1" font-family="Calibri,Calibri_MSFontService,sans-serif" font-style="normal" font-variant="normal" font-weight="400" font-stretch="normal" font-size="46" text-anchor="start" direction="ltr" writing-mode="lr-tb" unicode-bidi="normal" text-decoration="none" transform="matrix(1 0 0 1 3088.55 1365)">12,600.00</text></g><g><text fill="#000000" fill-opacity="1" font-family="Calibri,Calibri_MSFontService,sans-serif" font-style="normal" font-variant="normal" font-weight="400" font-stretch="normal" font-size="46" text-anchor="start" direction="ltr" writing-mode="lr-tb" unicode-bidi="normal" text-decoration="none" transform="matrix(1 0 0 1 3088.55 1199)">12,700.00</text></g><g><text fill="#000000" fill-opacity="1" font-family="Calibri,Calibri_MSFontService,sans-serif" font-style="normal" font-variant="normal" font-weight="400" font-stretch="normal" font-size="46" text-anchor="start" direction="ltr" writing-mode="lr-tb" unicode-bidi="normal" text-decoration="none" transform="matrix(1 0 0 1 3088.55 1033)">12,800.00</text></g><g><text fill="#000000" fill-opacity="1" font-family="Calibri,Calibri_MSFontService,sans-serif" font-style="normal" font-variant="normal" font-weight="400" font-stretch="normal" font-size="46" text-anchor="start" direction="ltr" writing-mode="lr-tb" unicode-bidi="normal" text-decoration="none" transform="matrix(1 0 0 1 3088.55 867)">12,900.00</text></g><g><text fill="#000000" fill-opacity="1" font-family="Calibri,Calibri_MSFontService,sans-serif" font-style="normal" font-variant="normal" font-weight="400" font-stretch="normal" font-size="46" text-anchor="start" direction="ltr" writing-mode="lr-tb" unicode-bidi="normal" text-decoration="none" transform="matrix(1 0 0 1 3088.55 701)">13,000.00</text></g><g><text fill="#000000" fill-opacity="1" font-family="Calibri,Calibri_MSFontService,sans-serif" font-style="normal" font-variant="normal" font-weight="400" font-stretch="normal" font-size="46" text-anchor="start" direction="ltr" writing-mode="lr-tb" unicode-bidi="normal" text-decoration="none" transform="matrix(1 0 0 1 3088.55 536)">13,100.00</text></g><g><text fill="#000000" fill-opacity="1" font-family="Calibri,Calibri_MSFontService,sans-serif" font-style="normal" font-variant="normal" font-weight="400" font-stretch="normal" font-size="46" text-anchor="start" direction="ltr" writing-mode="lr-tb" unicode-bidi="normal" text-decoration="none" transform="matrix(1 0 0 1 3088.55 370)">13,200.00</text></g><g><text fill="#000000" fill-opacity="1" font-family="Calibri,Calibri_MSFontService,sans-serif" font-style="normal" font-variant="normal" font-weight="400" font-stretch="normal" font-size="46" text-anchor="start" direction="ltr" writing-mode="lr-tb" unicode-bidi="normal" text-decoration="none" transform="matrix(1 0 0 1 3472.23 2089)">S1</text></g><g><text fill="#000000" fill-opacity="1" font-family="Calibri,Calibri_MSFontService,sans-serif" font-style="normal" font-variant="normal" font-weight="400" font-stretch="normal" font-size="46" text-anchor="start" direction="ltr" writing-mode="lr-tb" unicode-bidi="normal" text-decoration="none" transform="matrix(1 0 0 1 3828.23 2089)">S2</text></g><g><text fill="#000000" fill-opacity="1" font-family="Calibri,Calibri_MSFontService,sans-serif" font-style="normal" font-variant="normal" font-weight="400" font-stretch="normal" font-size="46" text-anchor="start" direction="ltr" writing-mode="lr-tb" unicode-bidi="normal" text-decoration="none" transform="matrix(1 0 0 1 4184.24 2089)">S3</text></g><g><text fill="#000000" fill-opacity="1" font-family="Calibri,Calibri_MSFontService,sans-serif" font-style="normal" font-variant="normal" font-weight="400" font-stretch="normal" font-size="46" text-anchor="start" direction="ltr" writing-mode="lr-tb" unicode-bidi="normal" text-decoration="none" transform="matrix(1 0 0 1 4540.24 2089)">S4</text></g><g><text fill="#000000" fill-opacity="1" font-family="Calibri,Calibri_MSFontService,sans-serif" font-style="normal" font-variant="normal" font-weight="400" font-stretch="normal" font-size="46" text-anchor="start" direction="ltr" writing-mode="lr-tb" unicode-bidi="normal" text-decoration="none" transform="matrix(1 0 0 1 4896.25 2089)">S5</text></g><g><text fill="#000000" fill-opacity="1" font-family="Calibri,Calibri_MSFontService,sans-serif" font-style="normal" font-variant="normal" font-weight="400" font-stretch="normal" font-size="46" text-anchor="start" direction="ltr" writing-mode="lr-tb" unicode-bidi="normal" text-decoration="none" transform="matrix(1 0 0 1 5252.25 2089)">S6</text></g><g><text fill="#000000" fill-opacity="1" font-family="Calibri,Calibri_MSFontService,sans-serif" font-style="normal" font-variant="normal" font-weight="400" font-stretch="normal" font-size="46" text-anchor="start" direction="ltr" writing-mode="lr-tb" unicode-bidi="normal" text-decoration="none" transform="matrix(1 0 0 1 5608.26 2089)">S7</text></g><g><text fill="#000000" fill-opacity="1" font-family="Calibri,Calibri_MSFontService,sans-serif" font-style="normal" font-variant="normal" font-weight="400" font-stretch="normal" font-size="46" text-anchor="start" direction="ltr" writing-mode="lr-tb" unicode-bidi="normal" text-decoration="none" transform="matrix(1 0 0 1 5964.26 2089)">S8</text></g><g><text fill="#000000" fill-opacity="1" font-family="Calibri,Calibri_MSFontService,sans-serif" font-style="normal" font-variant="normal" font-weight="400" font-stretch="normal" font-size="46" text-anchor="start" direction="ltr" writing-mode="lr-tb" unicode-bidi="normal" text-decoration="none" transform="matrix(1 0 0 1 6320.27 2089)">S9</text></g><g><text fill="#000000" fill-opacity="1" font-family="Calibri,Calibri_MSFontService,sans-serif" font-style="normal" font-variant="normal" font-weight="700" font-stretch="normal" font-size="46" text-anchor="start" direction="ltr" writing-mode="lr-tb" unicode-bidi="normal" text-decoration="none" transform="matrix(6.12323e-17 -1 1 6.12323e-17 3062.86 1261)">Euro ()</text></g><g><text fill="#000000" fill-opacity="1" font-family="Calibri,Calibri_MSFontService,sans-serif" font-style="normal" font-variant="normal" font-weight="700" font-stretch="normal" font-size="83" text-anchor="start" direction="ltr" writing-mode="lr-tb" unicode-bidi="normal" text-decoration="none" transform="matrix(1 0 0 1 4576.9 278)">EAC vs BAC </text></g><g><path d="M3857 2161 3972 2161" stroke="#4472C4" stroke-width="10.1339" stroke-linecap="round" stroke-linejoin="round" stroke-miterlimit="10" stroke-opacity="1" fill="none" fill-rule="evenodd"/></g><g><g><text fill="#000000" fill-opacity="1" font-family="Calibri,Calibri_MSFontService,sans-serif" font-style="normal" font-variant="normal" font-weight="400" font-stretch="normal" font-size="46" text-anchor="start" direction="ltr" writing-mode="lr-tb" unicode-bidi="normal" text-decoration="none" transform="matrix(1 0 0 1 3984.97 2173)">EAC ()</text></g></g><g><path d="M4648 2157.75 4667.49 2157.75C4669.28 2157.75 4670.74 2159.21 4670.74 2161 4670.74 2162.79 4669.28 2164.25 4667.49 2164.25L4648 2164.25C4646.21 2164.25 4644.75 2162.79 4644.75 2161 4644.75 2159.21 4646.21 2157.75 4648 2157.75ZM4693.47 2157.75 4712.96 2157.75C4714.75 2157.75 4716.21 2159.21 4716.21 2161 4716.21 2162.79 4714.75 2164.25 4712.96 2164.25L4693.47 2164.25C4691.68 2164.25 4690.22 2162.79 4690.22 2161 4690.22 2159.21 4691.68 2157.75 4693.47 2157.75ZM4738.94 2157.75 4758.43 2157.75C4760.23 2157.75 4761.68 2159.21 4761.68 2161 4761.68 2162.79 4760.23 2164.25 4758.43 2164.25L4738.94 2164.25C4737.15 2164.25 4735.7 2162.79 4735.7 2161 4735.7 2159.21 4737.15 2157.75 4738.94 2157.75Z" fill="#FF0000" fill-rule="nonzero" fill-opacity="1"/></g><g><g><text fill="#000000" fill-opacity="1" font-family="Calibri,Calibri_MSFontService,sans-serif" font-style="normal" font-variant="normal" font-weight="400" font-stretch="normal" font-size="46" text-anchor="start" direction="ltr" writing-mode="lr-tb" unicode-bidi="normal" text-decoration="none" transform="matrix(1 0 0 1 4776.44 2173)">BAC ()</text></g></g><g><path d="M5442.5 2158.77 5453.41 2158.77C5454.92 2158.77 5456.14 2159.99 5456.14 2161.5 5456.14 2163.01 5454.92 2164.23 5453.41 2164.23L5442.5 2164.23C5440.99 2164.23 5439.77 2163.01 5439.77 2161.5 5439.77 2159.99 5440.99 2158.77 5442.5 2158.77ZM5464.33 2158.77 5475.24 2158.77C5476.75 2158.77 5477.97 2159.99 5477.97 2161.5 5477.97 2163.01 5476.75 2164.23 5475.24 2164.23L5464.33 2164.23C5462.82 2164.23 5461.6 2163.01 5461.6 2161.5 5461.6 2159.99 5462.82 2158.77 5464.33 2158.77ZM5486.15 2158.77 5497.07 2158.77C5498.57 2158.77 5499.8 2159.99 5499.8 2161.5 5499.8 2163.01 5498.57 2164.23 5497.07 2164.23L5486.15 2164.23C5484.65 2164.23 5483.43 2163.01 5483.43 2161.5 5483.43 2159.99 5484.65 2158.77 5486.15 2158.77ZM5507.98 2158.77 5518.89 2158.77C5520.4 2158.77 5521.62 2159.99 5521.62 2161.5 5521.62 2163.01 5520.4 2164.23 5518.89 2164.23L5507.98 2164.23C5506.47 2164.23 5505.25 2163.01 5505.25 2161.5 5505.25 2159.99 5506.47 2158.77 5507.98 2158.77ZM5529.81 2158.77 5540.72 2158.77C5542.23 2158.77 5543.45 2159.99 5543.45 2161.5 5543.45 2163.01 5542.23 2164.23 5540.72 2164.23L5529.81 2164.23C5528.3 2164.23 5527.08 2163.01 5527.08 2161.5 5527.08 2159.99 5528.3 2158.77 5529.81 2158.77ZM5551.63 2158.77 5557.5 2158.77C5559.01 2158.77 5560.23 2159.99 5560.23 2161.5 5560.23 2163.01 5559.01 2164.23 5557.5 2164.23L5551.63 2164.23C5550.13 2164.23 5548.91 2163.01 5548.91 2161.5 5548.91 2159.99 5550.13 2158.77 5551.63 2158.77Z" fill="#70AD47" fill-rule="nonzero" fill-opacity="1"/></g><g><g><text fill="#000000" fill-opacity="1" font-family="Calibri,Calibri_MSFontService,sans-serif" font-style="normal" font-variant="normal" font-weight="400" font-stretch="normal" font-size="46" text-anchor="start" direction="ltr" writing-mode="lr-tb" unicode-bidi="normal" text-decoration="none" transform="matrix(1 0 0 1 5570.47 2173)">Soglia acc. (BAC  </text></g></g><g><g><text fill="#000000" fill-opacity="1" font-family="Calibri,Calibri_MSFontService,sans-serif" font-style="normal" font-variant="normal" font-weight="400" font-stretch="normal" font-size="46" text-anchor="start" direction="ltr" writing-mode="lr-tb" unicode-bidi="normal" text-decoration="none" transform="matrix(1 0 0 1 5905.71 2173)"></text></g></g><g><g><text fill="#000000" fill-opacity="1" font-family="Calibri,Calibri_MSFontService,sans-serif" font-style="normal" font-variant="normal" font-weight="400" font-stretch="normal" font-size="46" text-anchor="start" direction="ltr" writing-mode="lr-tb" unicode-bidi="normal" text-decoration="none" transform="matrix(1 0 0 1 5949.12 2173)">0.95)</text></g></g><rect x="2962.5" y="165.5" width="3609" height="2076" stroke="#D9D9D9" stroke-width="3.37795" stroke-linecap="butt" stroke-linejoin="round" stroke-miterlimit="10" stroke-opacity="1" fill="none"/></g></g></svg>