<svg width="4220" height="2085" xmlns="http://www.w3.org/2000/svg" xmlns:xlink="http://www.w3.org/1999/xlink" xml:space="preserve" overflow="hidden"><defs><clipPath id="clip0"><rect x="-4" y="756" width="4220" height="2085"/></clipPath><clipPath id="clip1"><rect x="-4" y="756" width="4220" height="2085"/></clipPath><clipPath id="clip2"><rect x="215" y="950" width="3949" height="1664"/></clipPath><clipPath id="clip3"><rect x="215" y="950" width="3949" height="1664"/></clipPath><clipPath id="clip4"><rect x="215" y="950" width="3949" height="1664"/></clipPath><clipPath id="clip5"><rect x="215" y="950" width="3949" height="1664"/></clipPath><clipPath id="clip6"><rect x="215" y="950" width="3949" height="1664"/></clipPath><clipPath id="clip7"><rect x="215" y="950" width="3949" height="1664"/></clipPath></defs><g clip-path="url(#clip0)" transform="translate(4 -756)"><g clip-path="url(#clip1)"><rect x="0" y="758" width="4211" height="2078" fill="#FFFFFF" fill-opacity="1"/><g><path d="M215.5 2403.58 4160.5 2403.58M215.5 2195.57 4160.5 2195.57M215.5 1988.57 4160.5 1988.57M215.5 1780.56 4160.5 1780.56M215.5 1573.55 4160.5 1573.55M215.5 1365.54 4160.5 1365.54M215.5 1158.54 4160.5 1158.54M215.5 950.5 4160.5 950.5" stroke="#878787" stroke-width="3.37795" stroke-linecap="butt" stroke-linejoin="round" stroke-miterlimit="10" stroke-opacity="1" fill="none" fill-rule="nonzero"/></g><g><path d="M0 0 0.000360892 1661" stroke="#878787" stroke-width="3.37795" stroke-linecap="butt" stroke-linejoin="round" stroke-miterlimit="10" stroke-opacity="1" fill="none" fill-rule="evenodd" transform="matrix(1 0 0 -1 215.5 2611.5)"/></g><g><path d="M215.5 2611.5 4160.5 2611.5" stroke="#878787" stroke-width="3.37795" stroke-linecap="butt" stroke-linejoin="round" stroke-miterlimit="10" stroke-opacity="1" fill="none" fill-rule="evenodd"/></g><g clip-path="url(#clip2)"><path d="M435 2610.81C550.608 2610.81 757.641 2797 873.25 2610.81 1019.33 2375.54 1165.42 1420.63 1311.5 1199.2 1431.7 1017 1629.54 1094.34 1749.75 1282.24 1895.83 1510.59 2041.92 2347.87 2188 2569.29 2309.23 2753.05 2505.02 2605.07 2626.25 2610.81 2772.33 2617.73 2918.42 2610.81 3064.5 2610.81 3210.58 2610.81 3356.67 2617.73 3502.75 2610.81 3648.83 2603.89 3794.92 2583.13 3941 2569.29" stroke="#4472C4" stroke-width="7.9252" stroke-linecap="round" stroke-linejoin="round" stroke-miterlimit="10" stroke-opacity="1" fill="none" fill-rule="nonzero"/></g><g clip-path="url(#clip3)"><path d="M435 2030C581.083 2113.07 727.167 2237.67 873.25 2279.2 1019.33 2320.73 1165.42 2279.2 1311.5 2279.2 1457.58 2279.2 1603.67 2223.82 1749.75 2279.2 1895.83 2334.58 2041.92 2569.93 2188 2611.47 2334.08 2653 2480.17 2535.32 2626.25 2528.4 2772.33 2521.48 2918.42 2556.09 3064.5 2569.93 3210.58 2583.78 3356.67 2604.54 3502.75 2611.47 3648.83 2618.39 3794.92 2611.47 3941 2611.47" stroke="#70AD47" stroke-width="7.9252" stroke-linecap="round" stroke-linejoin="round" stroke-miterlimit="10" stroke-opacity="1" fill="none" fill-rule="nonzero"/></g><g clip-path="url(#clip4)"><path d="M435 1697.55C581.083 1628.35 727.167 1524.55 873.25 1489.95 1019.33 1455.35 1165.42 1496.87 1311.5 1489.95 1447.1 1483.53 1614.15 1275 1749.75 1448.43 1895.83 1635.27 2041.92 2417.24 2188 2611 2319.94 2786 2494.31 2611 2626.25 2611 2772.33 2611 2918.42 2624.84 3064.5 2611 3210.58 2597.16 3356.67 2527.96 3502.75 2527.96 3648.83 2527.96 3794.92 2583.32 3941 2611" stroke="#ED7D31" stroke-width="7.9252" stroke-linecap="round" stroke-linejoin="round" stroke-miterlimit="10" stroke-opacity="1" fill="none" fill-rule="nonzero"/></g><g clip-path="url(#clip5)"><path d="M435 2030C581.083 2071.53 727.167 2133.82 873.25 2154.58 1019.33 2175.35 1165.42 2154.58 1311.5 2154.58 1457.58 2154.58 1603.67 2085.37 1749.75 2154.58 1895.83 2223.8 2041.92 2493.73 2188 2569.87 2334.08 2646 2480.17 2604.47 2626.25 2611.39 2772.33 2618.31 2918.42 2611.39 3064.5 2611.39 3210.58 2611.39 3356.67 2611.39 3502.75 2611.39 3648.83 2611.39 3794.92 2611.39 3941 2611.39" stroke="#9B59B6" stroke-width="7.9252" stroke-linecap="round" stroke-linejoin="round" stroke-miterlimit="10" stroke-opacity="1" fill="none" fill-rule="nonzero"/></g><g clip-path="url(#clip6)"><path d="M435 2320.46C581.083 2320.46 727.167 2334.31 873.25 2320.46 1019.33 2306.62 1165.42 2251.23 1311.5 2237.39 1457.58 2223.54 1603.67 2182 1749.75 2237.39 1895.83 2292.77 2041.92 2507.39 2188 2569.69 2334.08 2632 2480.17 2604.31 2626.25 2611.23 2772.33 2618.15 2918.42 2611.23 3064.5 2611.23 3210.58 2611.23 3356.67 2611.23 3502.75 2611.23 3648.83 2611.23 3794.92 2611.23 3941 2611.23" stroke="#FFC000" stroke-width="7.9252" stroke-linecap="round" stroke-linejoin="round" stroke-miterlimit="10" stroke-opacity="1" fill="none" fill-rule="nonzero"/></g><g clip-path="url(#clip7)"><path d="M435.5 2608.77 451.87 2608.77C453.377 2608.77 454.598 2609.99 454.598 2611.5 454.598 2613.01 453.377 2614.23 451.87 2614.23L435.5 2614.23C433.993 2614.23 432.772 2613.01 432.772 2611.5 432.772 2609.99 433.993 2608.77 435.5 2608.77ZM473.697 2608.77 490.067 2608.77C491.574 2608.77 492.795 2609.99 492.795 2611.5 492.795 2613.01 491.574 2614.23 490.067 2614.23L473.697 2614.23C472.19 2614.23 470.969 2613.01 470.969 2611.5 470.969 2609.99 472.19 2608.77 473.697 2608.77ZM511.894 2608.77 528.264 2608.77C529.771 2608.77 530.992 2609.99 530.992 2611.5 530.992 2613.01 529.771 2614.23 528.264 2614.23L511.894 2614.23C510.387 2614.23 509.165 2613.01 509.165 2611.5 509.165 2609.99 510.387 2608.77 511.894 2608.77ZM550.091 2608.77 566.461 2608.77C567.967 2608.77 569.189 2609.99 569.189 2611.5 569.189 2613.01 567.967 2614.23 566.461 2614.23L550.091 2614.23C548.584 2614.23 547.362 2613.01 547.362 2611.5 547.362 2609.99 548.584 2608.77 550.091 2608.77ZM588.287 2608.77 604.658 2608.77C606.164 2608.77 607.386 2609.99 607.386 2611.5 607.386 2613.01 606.164 2614.23 604.658 2614.23L588.287 2614.23C586.781 2614.23 585.559 2613.01 585.559 2611.5 585.559 2609.99 586.781 2608.77 588.287 2608.77ZM626.484 2608.77 642.854 2608.77C644.361 2608.77 645.583 2609.99 645.583 2611.5 645.583 2613.01 644.361 2614.23 642.854 2614.23L626.484 2614.23C624.977 2614.23 623.756 2613.01 623.756 2611.5 623.756 2609.99 624.977 2608.77 626.484 2608.77ZM664.681 2608.77 681.051 2608.77C682.558 2608.77 683.78 2609.99 683.78 2611.5 683.78 2613.01 682.558 2614.23 681.051 2614.23L664.681 2614.23C663.174 2614.23 661.953 2613.01 661.953 2611.5 661.953 2609.99 663.174 2608.77 664.681 2608.77ZM702.878 2608.77 719.248 2608.77C720.755 2608.77 721.976 2609.99 721.976 2611.5 721.976 2613.01 720.755 2614.23 719.248 2614.23L702.878 2614.23C701.371 2614.23 700.15 2613.01 700.15 2611.5 700.15 2609.99 701.371 2608.77 702.878 2608.77ZM741.075 2608.77 757.445 2608.77C758.952 2608.77 760.173 2609.99 760.173 2611.5 760.173 2613.01 758.952 2614.23 757.445 2614.23L741.075 2614.23C739.568 2614.23 738.346 2613.01 738.346 2611.5 738.346 2609.99 739.568 2608.77 741.075 2608.77ZM779.272 2608.77 795.642 2608.77C797.149 2608.77 798.37 2609.99 798.37 2611.5 798.37 2613.01 797.149 2614.23 795.642 2614.23L779.272 2614.23C777.765 2614.23 776.543 2613.01 776.543 2611.5 776.543 2609.99 777.765 2608.77 779.272 2608.77ZM817.469 2608.77 833.839 2608.77C835.345 2608.77 836.567 2609.99 836.567 2611.5 836.567 2613.01 835.345 2614.23 833.839 2614.23L817.469 2614.23C815.962 2614.23 814.74 2613.01 814.74 2611.5 814.74 2609.99 815.962 2608.77 817.469 2608.77ZM855.665 2608.77 872.035 2608.77C873.542 2608.77 874.764 2609.99 874.764 2611.5 874.764 2613.01 873.542 2614.23 872.035 2614.23L855.665 2614.23C854.159 2614.23 852.937 2613.01 852.937 2611.5 852.937 2609.99 854.159 2608.77 855.665 2608.77ZM893.862 2608.77 910.232 2608.77C911.739 2608.77 912.961 2609.99 912.961 2611.5 912.961 2613.01 911.739 2614.23 910.232 2614.23L893.862 2614.23C892.355 2614.23 891.134 2613.01 891.134 2611.5 891.134 2609.99 892.355 2608.77 893.862 2608.77ZM932.059 2608.77 948.429 2608.77C949.936 2608.77 951.158 2609.99 951.158 2611.5 951.158 2613.01 949.936 2614.23 948.429 2614.23L932.059 2614.23C930.552 2614.23 929.331 2613.01 929.331 2611.5 929.331 2609.99 930.552 2608.77 932.059 2608.77ZM970.256 2608.77 986.626 2608.77C988.133 2608.77 989.354 2609.99 989.354 2611.5 989.354 2613.01 988.133 2614.23 986.626 2614.23L970.256 2614.23C968.749 2614.23 967.528 2613.01 967.528 2611.5 967.528 2609.99 968.749 2608.77 970.256 2608.77ZM1008.45 2608.77 1024.82 2608.77C1026.33 2608.77 1027.55 2609.99 1027.55 2611.5 1027.55 2613.01 1026.33 2614.23 1024.82 2614.23L1008.45 2614.23C1006.95 2614.23 1005.72 2613.01 1005.72 2611.5 1005.72 2609.99 1006.95 2608.77 1008.45 2608.77ZM1046.65 2608.77 1063.02 2608.77C1064.53 2608.77 1065.75 2609.99 1065.75 2611.5 1065.75 2613.01 1064.53 2614.23 1063.02 2614.23L1046.65 2614.23C1045.14 2614.23 1043.92 2613.01 1043.92 2611.5 1043.92 2609.99 1045.14 2608.77 1046.65 2608.77ZM1084.85 2608.77 1101.22 2608.77C1102.72 2608.77 1103.94 2609.99 1103.94 2611.5 1103.94 2613.01 1102.72 2614.23 1101.22 2614.23L1084.85 2614.23C1083.34 2614.23 1082.12 2613.01 1082.12 2611.5 1082.12 2609.99 1083.34 2608.77 1084.85 2608.77ZM1123.04 2608.77 1139.41 2608.77C1140.92 2608.77 1142.14 2609.99 1142.14 2611.5 1142.14 2613.01 1140.92 2614.23 1139.41 2614.23L1123.04 2614.23C1121.54 2614.23 1120.31 2613.01 1120.31 2611.5 1120.31 2609.99 1121.54 2608.77 1123.04 2608.77ZM1161.24 2608.77 1177.61 2608.77C1179.12 2608.77 1180.34 2609.99 1180.34 2611.5 1180.34 2613.01 1179.12 2614.23 1177.61 2614.23L1161.24 2614.23C1159.73 2614.23 1158.51 2613.01 1158.51 2611.5 1158.51 2609.99 1159.73 2608.77 1161.24 2608.77ZM1199.44 2608.77 1215.81 2608.77C1217.31 2608.77 1218.54 2609.99 1218.54 2611.5 1218.54 2613.01 1217.31 2614.23 1215.81 2614.23L1199.44 2614.23C1197.93 2614.23 1196.71 2613.01 1196.71 2611.5 1196.71 2609.99 1197.93 2608.77 1199.44 2608.77ZM1237.63 2608.77 1254 2608.77C1255.51 2608.77 1256.73 2609.99 1256.73 2611.5 1256.73 2613.01 1255.51 2614.23 1254 2614.23L1237.63 2614.23C1236.13 2614.23 1234.91 2613.01 1234.91 2611.5 1234.91 2609.99 1236.13 2608.77 1237.63 2608.77ZM1275.83 2608.77 1292.2 2608.77C1293.71 2608.77 1294.93 2609.99 1294.93 2611.5 1294.93 2613.01 1293.71 2614.23 1292.2 2614.23L1275.83 2614.23C1274.32 2614.23 1273.1 2613.01 1273.1 2611.5 1273.1 2609.99 1274.32 2608.77 1275.83 2608.77ZM1314.03 2608.77 1330.4 2608.77C1331.9 2608.77 1333.13 2609.99 1333.13 2611.5 1333.13 2613.01 1331.9 2614.23 1330.4 2614.23L1314.03 2614.23C1312.52 2614.23 1311.3 2613.01 1311.3 2611.5 1311.3 2609.99 1312.52 2608.77 1314.03 2608.77ZM1352.22 2608.77 1368.59 2608.77C1370.1 2608.77 1371.32 2609.99 1371.32 2611.5 1371.32 2613.01 1370.1 2614.23 1368.59 2614.23L1352.22 2614.23C1350.72 2614.23 1349.5 2613.01 1349.5 2611.5 1349.5 2609.99 1350.72 2608.77 1352.22 2608.77ZM1390.42 2608.77 1406.79 2608.77C1408.3 2608.77 1409.52 2609.99 1409.52 2611.5 1409.52 2613.01 1408.3 2614.23 1406.79 2614.23L1390.42 2614.23C1388.91 2614.23 1387.69 2613.01 1387.69 2611.5 1387.69 2609.99 1388.91 2608.77 1390.42 2608.77ZM1428.62 2608.77 1444.99 2608.77C1446.49 2608.77 1447.72 2609.99 1447.72 2611.5 1447.72 2613.01 1446.49 2614.23 1444.99 2614.23L1428.62 2614.23C1427.11 2614.23 1425.89 2613.01 1425.89 2611.5 1425.89 2609.99 1427.11 2608.77 1428.62 2608.77ZM1466.81 2608.77 1483.19 2608.77C1484.69 2608.77 1485.91 2609.99 1485.91 2611.5 1485.91 2613.01 1484.69 2614.23 1483.19 2614.23L1466.81 2614.23C1465.31 2614.23 1464.09 2613.01 1464.09 2611.5 1464.09 2609.99 1465.31 2608.77 1466.81 2608.77ZM1505.01 2608.77 1521.38 2608.77C1522.89 2608.77 1524.11 2609.99 1524.11 2611.5 1524.11 2613.01 1522.89 2614.23 1521.38 2614.23L1505.01 2614.23C1503.51 2614.23 1502.28 2613.01 1502.28 2611.5 1502.28 2609.99 1503.51 2608.77 1505.01 2608.77ZM1543.21 2608.77 1559.58 2608.77C1561.09 2608.77 1562.31 2609.99 1562.31 2611.5 1562.31 2613.01 1561.09 2614.23 1559.58 2614.23L1543.21 2614.23C1541.7 2614.23 1540.48 2613.01 1540.48 2611.5 1540.48 2609.99 1541.7 2608.77 1543.21 2608.77ZM1581.41 2608.77 1597.78 2608.77C1599.28 2608.77 1600.5 2609.99 1600.5 2611.5 1600.5 2613.01 1599.28 2614.23 1597.78 2614.23L1581.41 2614.23C1579.9 2614.23 1578.68 2613.01 1578.68 2611.5 1578.68 2609.99 1579.9 2608.77 1581.41 2608.77ZM1619.6 2608.77 1635.97 2608.77C1637.48 2608.77 1638.7 2609.99 1638.7 2611.5 1638.7 2613.01 1637.48 2614.23 1635.97 2614.23L1619.6 2614.23C1618.1 2614.23 1616.87 2613.01 1616.87 2611.5 1616.87 2609.99 1618.1 2608.77 1619.6 2608.77ZM1657.8 2608.77 1674.17 2608.77C1675.68 2608.77 1676.9 2609.99 1676.9 2611.5 1676.9 2613.01 1675.68 2614.23 1674.17 2614.23L1657.8 2614.23C1656.29 2614.23 1655.07 2613.01 1655.07 2611.5 1655.07 2609.99 1656.29 2608.77 1657.8 2608.77ZM1696 2608.77 1712.37 2608.77C1713.87 2608.77 1715.09 2609.99 1715.09 2611.5 1715.09 2613.01 1713.87 2614.23 1712.37 2614.23L1696 2614.23C1694.49 2614.23 1693.27 2613.01 1693.27 2611.5 1693.27 2609.99 1694.49 2608.77 1696 2608.77ZM1734.19 2608.77 1750.25 2608.77 1750.56 2608.77C1752.07 2608.77 1753.29 2609.99 1753.29 2611.5 1753.29 2613.01 1752.07 2614.23 1750.56 2614.23L1750.25 2614.23 1734.19 2614.23C1732.69 2614.23 1731.46 2613.01 1731.46 2611.5 1731.46 2609.99 1732.69 2608.77 1734.19 2608.77ZM1772.39 2608.77 1788.76 2608.77C1790.27 2608.77 1791.49 2609.99 1791.49 2611.5 1791.49 2613.01 1790.27 2614.23 1788.76 2614.23L1772.39 2614.23C1770.88 2614.23 1769.66 2613.01 1769.66 2611.5 1769.66 2609.99 1770.88 2608.77 1772.39 2608.77ZM1810.59 2608.77 1826.96 2608.77C1828.46 2608.77 1829.69 2609.99 1829.69 2611.5 1829.69 2613.01 1828.46 2614.23 1826.96 2614.23L1810.59 2614.23C1809.08 2614.23 1807.86 2613.01 1807.86 2611.5 1807.86 2609.99 1809.08 2608.77 1810.59 2608.77ZM1848.78 2608.77 1865.15 2608.77C1866.66 2608.77 1867.88 2609.99 1867.88 2611.5 1867.88 2613.01 1866.66 2614.23 1865.15 2614.23L1848.78 2614.23C1847.28 2614.23 1846.06 2613.01 1846.06 2611.5 1846.06 2609.99 1847.28 2608.77 1848.78 2608.77ZM1886.98 2608.77 1903.35 2608.77C1904.86 2608.77 1906.08 2609.99 1906.08 2611.5 1906.08 2613.01 1904.86 2614.23 1903.35 2614.23L1886.98 2614.23C1885.47 2614.23 1884.25 2613.01 1884.25 2611.5 1884.25 2609.99 1885.47 2608.77 1886.98 2608.77ZM1925.18 2608.77 1941.55 2608.77C1943.05 2608.77 1944.28 2609.99 1944.28 2611.5 1944.28 2613.01 1943.05 2614.23 1941.55 2614.23L1925.18 2614.23C1923.67 2614.23 1922.45 2613.01 1922.45 2611.5 1922.45 2609.99 1923.67 2608.77 1925.18 2608.77ZM1963.37 2608.77 1979.74 2608.77C1981.25 2608.77 1982.47 2609.99 1982.47 2611.5 1982.47 2613.01 1981.25 2614.23 1979.74 2614.23L1963.37 2614.23C1961.87 2614.23 1960.65 2613.01 1960.65 2611.5 1960.65 2609.99 1961.87 2608.77 1963.37 2608.77ZM2001.57 2608.77 2017.94 2608.77C2019.45 2608.77 2020.67 2609.99 2020.67 2611.5 2020.67 2613.01 2019.45 2614.23 2017.94 2614.23L2001.57 2614.23C2000.06 2614.23 1998.84 2613.01 1998.84 2611.5 1998.84 2609.99 2000.06 2608.77 2001.57 2608.77ZM2039.77 2608.77 2056.14 2608.77C2057.64 2608.77 2058.87 2609.99 2058.87 2611.5 2058.87 2613.01 2057.64 2614.23 2056.14 2614.23L2039.77 2614.23C2038.26 2614.23 2037.04 2613.01 2037.04 2611.5 2037.04 2609.99 2038.26 2608.77 2039.77 2608.77ZM2077.96 2608.77 2094.33 2608.77C2095.84 2608.77 2097.06 2609.99 2097.06 2611.5 2097.06 2613.01 2095.84 2614.23 2094.33 2614.23L2077.96 2614.23C2076.46 2614.23 2075.24 2613.01 2075.24 2611.5 2075.24 2609.99 2076.46 2608.77 2077.96 2608.77ZM2116.16 2608.77 2132.53 2608.77C2134.04 2608.77 2135.26 2609.99 2135.26 2611.5 2135.26 2613.01 2134.04 2614.23 2132.53 2614.23L2116.16 2614.23C2114.65 2614.23 2113.43 2613.01 2113.43 2611.5 2113.43 2609.99 2114.65 2608.77 2116.16 2608.77ZM2154.36 2608.77 2170.73 2608.77C2172.24 2608.77 2173.46 2609.99 2173.46 2611.5 2173.46 2613.01 2172.24 2614.23 2170.73 2614.23L2154.36 2614.23C2152.85 2614.23 2151.63 2613.01 2151.63 2611.5 2151.63 2609.99 2152.85 2608.77 2154.36 2608.77ZM2192.56 2608.77 2208.93 2608.77C2210.43 2608.77 2211.65 2609.99 2211.65 2611.5 2211.65 2613.01 2210.43 2614.23 2208.93 2614.23L2192.56 2614.23C2191.05 2614.23 2189.83 2613.01 2189.83 2611.5 2189.83 2609.99 2191.05 2608.77 2192.56 2608.77ZM2230.75 2608.77 2247.12 2608.77C2248.63 2608.77 2249.85 2609.99 2249.85 2611.5 2249.85 2613.01 2248.63 2614.23 2247.12 2614.23L2230.75 2614.23C2229.25 2614.23 2228.02 2613.01 2228.02 2611.5 2228.02 2609.99 2229.25 2608.77 2230.75 2608.77ZM2268.95 2608.77 2285.32 2608.77C2286.83 2608.77 2288.05 2609.99 2288.05 2611.5 2288.05 2613.01 2286.83 2614.23 2285.32 2614.23L2268.95 2614.23C2267.44 2614.23 2266.22 2613.01 2266.22 2611.5 2266.22 2609.99 2267.44 2608.77 2268.95 2608.77ZM2307.15 2608.77 2323.52 2608.77C2325.02 2608.77 2326.24 2609.99 2326.24 2611.5 2326.24 2613.01 2325.02 2614.23 2323.52 2614.23L2307.15 2614.23C2305.64 2614.23 2304.42 2613.01 2304.42 2611.5 2304.42 2609.99 2305.64 2608.77 2307.15 2608.77ZM2345.34 2608.77 2361.71 2608.77C2363.22 2608.77 2364.44 2609.99 2364.44 2611.5 2364.44 2613.01 2363.22 2614.23 2361.71 2614.23L2345.34 2614.23C2343.84 2614.23 2342.61 2613.01 2342.61 2611.5 2342.61 2609.99 2343.84 2608.77 2345.34 2608.77ZM2383.54 2608.77 2399.91 2608.77C2401.42 2608.77 2402.64 2609.99 2402.64 2611.5 2402.64 2613.01 2401.42 2614.23 2399.91 2614.23L2383.54 2614.23C2382.03 2614.23 2380.81 2613.01 2380.81 2611.5 2380.81 2609.99 2382.03 2608.77 2383.54 2608.77ZM2421.74 2608.77 2438.11 2608.77C2439.61 2608.77 2440.83 2609.99 2440.83 2611.5 2440.83 2613.01 2439.61 2614.23 2438.11 2614.23L2421.74 2614.23C2420.23 2614.23 2419.01 2613.01 2419.01 2611.5 2419.01 2609.99 2420.23 2608.77 2421.74 2608.77ZM2459.93 2608.77 2476.3 2608.77C2477.81 2608.77 2479.03 2609.99 2479.03 2611.5 2479.03 2613.01 2477.81 2614.23 2476.3 2614.23L2459.93 2614.23C2458.43 2614.23 2457.2 2613.01 2457.2 2611.5 2457.2 2609.99 2458.43 2608.77 2459.93 2608.77ZM2498.13 2608.77 2514.5 2608.77C2516.01 2608.77 2517.23 2609.99 2517.23 2611.5 2517.23 2613.01 2516.01 2614.23 2514.5 2614.23L2498.13 2614.23C2496.62 2614.23 2495.4 2613.01 2495.4 2611.5 2495.4 2609.99 2496.62 2608.77 2498.13 2608.77ZM2536.33 2608.77 2552.7 2608.77C2554.2 2608.77 2555.43 2609.99 2555.43 2611.5 2555.43 2613.01 2554.2 2614.23 2552.7 2614.23L2536.33 2614.23C2534.82 2614.23 2533.6 2613.01 2533.6 2611.5 2533.6 2609.99 2534.82 2608.77 2536.33 2608.77ZM2574.52 2608.77 2590.89 2608.77C2592.4 2608.77 2593.62 2609.99 2593.62 2611.5 2593.62 2613.01 2592.4 2614.23 2590.89 2614.23L2574.52 2614.23C2573.02 2614.23 2571.8 2613.01 2571.8 2611.5 2571.8 2609.99 2573.02 2608.77 2574.52 2608.77ZM2612.72 2608.77 2626.75 2608.77 2629.09 2608.77C2630.6 2608.77 2631.82 2609.99 2631.82 2611.5 2631.82 2613.01 2630.6 2614.23 2629.09 2614.23L2626.75 2614.23 2612.72 2614.23C2611.21 2614.23 2609.99 2613.01 2609.99 2611.5 2609.99 2609.99 2611.21 2608.77 2612.72 2608.77ZM2650.92 2608.77 2667.29 2608.77C2668.79 2608.77 2670.02 2609.99 2670.02 2611.5 2670.02 2613.01 2668.79 2614.23 2667.29 2614.23L2650.92 2614.23C2649.41 2614.23 2648.19 2613.01 2648.19 2611.5 2648.19 2609.99 2649.41 2608.77 2650.92 2608.77ZM2689.11 2608.77 2705.48 2608.77C2706.99 2608.77 2708.21 2609.99 2708.21 2611.5 2708.21 2613.01 2706.99 2614.23 2705.48 2614.23L2689.11 2614.23C2687.61 2614.23 2686.39 2613.01 2686.39 2611.5 2686.39 2609.99 2687.61 2608.77 2689.11 2608.77ZM2727.31 2608.77 2743.68 2608.77C2745.19 2608.77 2746.41 2609.99 2746.41 2611.5 2746.41 2613.01 2745.19 2614.23 2743.68 2614.23L2727.31 2614.23C2725.8 2614.23 2724.58 2613.01 2724.58 2611.5 2724.58 2609.99 2725.8 2608.77 2727.31 2608.77ZM2765.51 2608.77 2781.88 2608.77C2783.38 2608.77 2784.61 2609.99 2784.61 2611.5 2784.61 2613.01 2783.38 2614.23 2781.88 2614.23L2765.51 2614.23C2764 2614.23 2762.78 2613.01 2762.78 2611.5 2762.78 2609.99 2764 2608.77 2765.51 2608.77ZM2803.7 2608.77 2820.07 2608.77C2821.58 2608.77 2822.8 2609.99 2822.8 2611.5 2822.8 2613.01 2821.58 2614.23 2820.07 2614.23L2803.7 2614.23C2802.2 2614.23 2800.98 2613.01 2800.98 2611.5 2800.98 2609.99 2802.2 2608.77 2803.7 2608.77ZM2841.9 2608.77 2858.27 2608.77C2859.78 2608.77 2861 2609.99 2861 2611.5 2861 2613.01 2859.78 2614.23 2858.27 2614.23L2841.9 2614.23C2840.39 2614.23 2839.17 2613.01 2839.17 2611.5 2839.17 2609.99 2840.39 2608.77 2841.9 2608.77ZM2880.1 2608.77 2896.47 2608.77C2897.98 2608.77 2899.2 2609.99 2899.2 2611.5 2899.2 2613.01 2897.98 2614.23 2896.47 2614.23L2880.1 2614.23C2878.59 2614.23 2877.37 2613.01 2877.37 2611.5 2877.37 2609.99 2878.59 2608.77 2880.1 2608.77ZM2918.3 2608.77 2934.67 2608.77C2936.17 2608.77 2937.39 2609.99 2937.39 2611.5 2937.39 2613.01 2936.17 2614.23 2934.67 2614.23L2918.3 2614.23C2916.79 2614.23 2915.57 2613.01 2915.57 2611.5 2915.57 2609.99 2916.79 2608.77 2918.3 2608.77ZM2956.49 2608.77 2972.86 2608.77C2974.37 2608.77 2975.59 2609.99 2975.59 2611.5 2975.59 2613.01 2974.37 2614.23 2972.86 2614.23L2956.49 2614.23C2954.99 2614.23 2953.76 2613.01 2953.76 2611.5 2953.76 2609.99 2954.99 2608.77 2956.49 2608.77ZM2994.69 2608.77 3011.06 2608.77C3012.57 2608.77 3013.79 2609.99 3013.79 2611.5 3013.79 2613.01 3012.57 2614.23 3011.06 2614.23L2994.69 2614.23C2993.18 2614.23 2991.96 2613.01 2991.96 2611.5 2991.96 2609.99 2993.18 2608.77 2994.69 2608.77ZM3032.89 2608.77 3049.26 2608.77C3050.76 2608.77 3051.98 2609.99 3051.98 2611.5 3051.98 2613.01 3050.76 2614.23 3049.26 2614.23L3032.89 2614.23C3031.38 2614.23 3030.16 2613.01 3030.16 2611.5 3030.16 2609.99 3031.38 2608.77 3032.89 2608.77ZM3071.08 2608.77 3087.45 2608.77C3088.96 2608.77 3090.18 2609.99 3090.18 2611.5 3090.18 2613.01 3088.96 2614.23 3087.45 2614.23L3071.08 2614.23C3069.58 2614.23 3068.35 2613.01 3068.35 2611.5 3068.35 2609.99 3069.58 2608.77 3071.08 2608.77ZM3109.28 2608.77 3125.65 2608.77C3127.16 2608.77 3128.38 2609.99 3128.38 2611.5 3128.38 2613.01 3127.16 2614.23 3125.65 2614.23L3109.28 2614.23C3107.77 2614.23 3106.55 2613.01 3106.55 2611.5 3106.55 2609.99 3107.77 2608.77 3109.28 2608.77ZM3147.48 2608.77 3163.85 2608.77C3165.35 2608.77 3166.57 2609.99 3166.57 2611.5 3166.57 2613.01 3165.35 2614.23 3163.85 2614.23L3147.48 2614.23C3145.97 2614.23 3144.75 2613.01 3144.75 2611.5 3144.75 2609.99 3145.97 2608.77 3147.48 2608.77ZM3185.67 2608.77 3202.04 2608.77C3203.55 2608.77 3204.77 2609.99 3204.77 2611.5 3204.77 2613.01 3203.55 2614.23 3202.04 2614.23L3185.67 2614.23C3184.17 2614.23 3182.94 2613.01 3182.94 2611.5 3182.94 2609.99 3184.17 2608.77 3185.67 2608.77ZM3223.87 2608.77 3240.24 2608.77C3241.75 2608.77 3242.97 2609.99 3242.97 2611.5 3242.97 2613.01 3241.75 2614.23 3240.24 2614.23L3223.87 2614.23C3222.36 2614.23 3221.14 2613.01 3221.14 2611.5 3221.14 2609.99 3222.36 2608.77 3223.87 2608.77ZM3262.07 2608.77 3278.44 2608.77C3279.94 2608.77 3281.17 2609.99 3281.17 2611.5 3281.17 2613.01 3279.94 2614.23 3278.44 2614.23L3262.07 2614.23C3260.56 2614.23 3259.34 2613.01 3259.34 2611.5 3259.34 2609.99 3260.56 2608.77 3262.07 2608.77ZM3300.26 2608.77 3316.63 2608.77C3318.14 2608.77 3319.36 2609.99 3319.36 2611.5 3319.36 2613.01 3318.14 2614.23 3316.63 2614.23L3300.26 2614.23C3298.76 2614.23 3297.54 2613.01 3297.54 2611.5 3297.54 2609.99 3298.76 2608.77 3300.26 2608.77ZM3338.46 2608.77 3354.83 2608.77C3356.34 2608.77 3357.56 2609.99 3357.56 2611.5 3357.56 2613.01 3356.34 2614.23 3354.83 2614.23L3338.46 2614.23C3336.95 2614.23 3335.73 2613.01 3335.73 2611.5 3335.73 2609.99 3336.95 2608.77 3338.46 2608.77ZM3376.66 2608.77 3393.03 2608.77C3394.53 2608.77 3395.76 2609.99 3395.76 2611.5 3395.76 2613.01 3394.53 2614.23 3393.03 2614.23L3376.66 2614.23C3375.15 2614.23 3373.93 2613.01 3373.93 2611.5 3373.93 2609.99 3375.15 2608.77 3376.66 2608.77ZM3414.85 2608.77 3431.22 2608.77C3432.73 2608.77 3433.95 2609.99 3433.95 2611.5 3433.95 2613.01 3432.73 2614.23 3431.22 2614.23L3414.85 2614.23C3413.35 2614.23 3412.13 2613.01 3412.13 2611.5 3412.13 2609.99 3413.35 2608.77 3414.85 2608.77ZM3453.05 2608.77 3469.42 2608.77C3470.93 2608.77 3472.15 2609.99 3472.15 2611.5 3472.15 2613.01 3470.93 2614.23 3469.42 2614.23L3453.05 2614.23C3451.54 2614.23 3450.32 2613.01 3450.32 2611.5 3450.32 2609.99 3451.54 2608.77 3453.05 2608.77ZM3491.25 2608.77 3503.25 2608.77 3507.62 2608.77C3509.12 2608.77 3510.35 2609.99 3510.35 2611.5 3510.35 2613.01 3509.12 2614.23 3507.62 2614.23L3503.25 2614.23 3491.25 2614.23C3489.74 2614.23 3488.52 2613.01 3488.52 2611.5 3488.52 2609.99 3489.74 2608.77 3491.25 2608.77ZM3529.44 2608.77 3545.81 2608.77C3547.32 2608.77 3548.54 2609.99 3548.54 2611.5 3548.54 2613.01 3547.32 2614.23 3545.81 2614.23L3529.44 2614.23C3527.94 2614.23 3526.72 2613.01 3526.72 2611.5 3526.72 2609.99 3527.94 2608.77 3529.44 2608.77ZM3567.64 2608.77 3584.01 2608.77C3585.52 2608.77 3586.74 2609.99 3586.74 2611.5 3586.74 2613.01 3585.52 2614.23 3584.01 2614.23L3567.64 2614.23C3566.14 2614.23 3564.91 2613.01 3564.91 2611.5 3564.91 2609.99 3566.14 2608.77 3567.64 2608.77ZM3605.84 2608.77 3622.21 2608.77C3623.72 2608.77 3624.94 2609.99 3624.94 2611.5 3624.94 2613.01 3623.72 2614.23 3622.21 2614.23L3605.84 2614.23C3604.33 2614.23 3603.11 2613.01 3603.11 2611.5 3603.11 2609.99 3604.33 2608.77 3605.84 2608.77ZM3644.04 2608.77 3660.41 2608.77C3661.91 2608.77 3663.13 2609.99 3663.13 2611.5 3663.13 2613.01 3661.91 2614.23 3660.41 2614.23L3644.04 2614.23C3642.53 2614.23 3641.31 2613.01 3641.31 2611.5 3641.31 2609.99 3642.53 2608.77 3644.04 2608.77ZM3682.23 2608.77 3698.6 2608.77C3700.11 2608.77 3701.33 2609.99 3701.33 2611.5 3701.33 2613.01 3700.11 2614.23 3698.6 2614.23L3682.23 2614.23C3680.73 2614.23 3679.5 2613.01 3679.5 2611.5 3679.5 2609.99 3680.73 2608.77 3682.23 2608.77ZM3720.43 2608.77 3736.8 2608.77C3738.31 2608.77 3739.53 2609.99 3739.53 2611.5 3739.53 2613.01 3738.31 2614.23 3736.8 2614.23L3720.43 2614.23C3718.92 2614.23 3717.7 2613.01 3717.7 2611.5 3717.7 2609.99 3718.92 2608.77 3720.43 2608.77ZM3758.63 2608.77 3775 2608.77C3776.5 2608.77 3777.72 2609.99 3777.72 2611.5 3777.72 2613.01 3776.5 2614.23 3775 2614.23L3758.63 2614.23C3757.12 2614.23 3755.9 2613.01 3755.9 2611.5 3755.9 2609.99 3757.12 2608.77 3758.63 2608.77ZM3796.82 2608.77 3813.19 2608.77C3814.7 2608.77 3815.92 2609.99 3815.92 2611.5 3815.92 2613.01 3814.7 2614.23 3813.19 2614.23L3796.82 2614.23C3795.32 2614.23 3794.09 2613.01 3794.09 2611.5 3794.09 2609.99 3795.32 2608.77 3796.82 2608.77ZM3835.02 2608.77 3851.39 2608.77C3852.9 2608.77 3854.12 2609.99 3854.12 2611.5 3854.12 2613.01 3852.9 2614.23 3851.39 2614.23L3835.02 2614.23C3833.51 2614.23 3832.29 2613.01 3832.29 2611.5 3832.29 2609.99 3833.51 2608.77 3835.02 2608.77ZM3873.22 2608.77 3889.59 2608.77C3891.09 2608.77 3892.31 2609.99 3892.31 2611.5 3892.31 2613.01 3891.09 2614.23 3889.59 2614.23L3873.22 2614.23C3871.71 2614.23 3870.49 2613.01 3870.49 2611.5 3870.49 2609.99 3871.71 2608.77 3873.22 2608.77ZM3911.41 2608.77 3927.78 2608.77C3929.29 2608.77 3930.51 2609.99 3930.51 2611.5 3930.51 2613.01 3929.29 2614.23 3927.78 2614.23L3911.41 2614.23C3909.91 2614.23 3908.69 2613.01 3908.69 2611.5 3908.69 2609.99 3909.91 2608.77 3911.41 2608.77Z" fill="#27AE60" fill-rule="nonzero" fill-opacity="1"/></g><g><text fill="#000000" fill-opacity="1" font-family="Calibri,Calibri_MSFontService,sans-serif" font-style="normal" font-variant="normal" font-weight="400" font-stretch="normal" font-size="46" text-anchor="start" direction="ltr" writing-mode="lr-tb" unicode-bidi="normal" text-decoration="none" transform="matrix(1 0 0 1 150.173 2623)">0</text></g><g><text fill="#000000" fill-opacity="1" font-family="Calibri,Calibri_MSFontService,sans-serif" font-style="normal" font-variant="normal" font-weight="400" font-stretch="normal" font-size="46" text-anchor="start" direction="ltr" writing-mode="lr-tb" unicode-bidi="normal" text-decoration="none" transform="matrix(1 0 0 1 150.173 2416)">5</text></g><g><text fill="#000000" fill-opacity="1" font-family="Calibri,Calibri_MSFontService,sans-serif" font-style="normal" font-variant="normal" font-weight="400" font-stretch="normal" font-size="46" text-anchor="start" direction="ltr" writing-mode="lr-tb" unicode-bidi="normal" text-decoration="none" transform="matrix(1 0 0 1 126.981 2208)">10</text></g><g><text fill="#000000" fill-opacity="1" font-family="Calibri,Calibri_MSFontService,sans-serif" font-style="normal" font-variant="normal" font-weight="400" font-stretch="normal" font-size="46" text-anchor="start" direction="ltr" writing-mode="lr-tb" unicode-bidi="normal" text-decoration="none" transform="matrix(1 0 0 1 126.981 2001)">15</text></g><g><text fill="#000000" fill-opacity="1" font-family="Calibri,Calibri_MSFontService,sans-serif" font-style="normal" font-variant="normal" font-weight="400" font-stretch="normal" font-size="46" text-anchor="start" direction="ltr" writing-mode="lr-tb" unicode-bidi="normal" text-decoration="none" transform="matrix(1 0 0 1 126.981 1793)">20</text></g><g><text fill="#000000" fill-opacity="1" font-family="Calibri,Calibri_MSFontService,sans-serif" font-style="normal" font-variant="normal" font-weight="400" font-stretch="normal" font-size="46" text-anchor="start" direction="ltr" writing-mode="lr-tb" unicode-bidi="normal" text-decoration="none" transform="matrix(1 0 0 1 126.981 1586)">25</text></g><g><text fill="#000000" fill-opacity="1" font-family="Calibri,Calibri_MSFontService,sans-serif" font-style="normal" font-variant="normal" font-weight="400" font-stretch="normal" font-size="46" text-anchor="start" direction="ltr" writing-mode="lr-tb" unicode-bidi="normal" text-decoration="none" transform="matrix(1 0 0 1 126.981 1378)">30</text></g><g><text fill="#000000" fill-opacity="1" font-family="Calibri,Calibri_MSFontService,sans-serif" font-style="normal" font-variant="normal" font-weight="400" font-stretch="normal" font-size="46" text-anchor="start" direction="ltr" writing-mode="lr-tb" unicode-bidi="normal" text-decoration="none" transform="matrix(1 0 0 1 126.981 1170)">35</text></g><g><text fill="#000000" fill-opacity="1" font-family="Calibri,Calibri_MSFontService,sans-serif" font-style="normal" font-variant="normal" font-weight="400" font-stretch="normal" font-size="46" text-anchor="start" direction="ltr" writing-mode="lr-tb" unicode-bidi="normal" text-decoration="none" transform="matrix(1 0 0 1 126.981 963)">40</text></g><g><text fill="#000000" fill-opacity="1" font-family="Calibri,Calibri_MSFontService,sans-serif" font-style="normal" font-variant="normal" font-weight="400" font-stretch="normal" font-size="46" text-anchor="start" direction="ltr" writing-mode="lr-tb" unicode-bidi="normal" text-decoration="none" transform="matrix(1 0 0 1 412.929 2684)">S1</text></g><g><text fill="#000000" fill-opacity="1" font-family="Calibri,Calibri_MSFontService,sans-serif" font-style="normal" font-variant="normal" font-weight="400" font-stretch="normal" font-size="46" text-anchor="start" direction="ltr" writing-mode="lr-tb" unicode-bidi="normal" text-decoration="none" transform="matrix(1 0 0 1 851.235 2684)">S2</text></g><g><text fill="#000000" fill-opacity="1" font-family="Calibri,Calibri_MSFontService,sans-serif" font-style="normal" font-variant="normal" font-weight="400" font-stretch="normal" font-size="46" text-anchor="start" direction="ltr" writing-mode="lr-tb" unicode-bidi="normal" text-decoration="none" transform="matrix(1 0 0 1 1289.54 2684)">S3</text></g><g><text fill="#000000" fill-opacity="1" font-family="Calibri,Calibri_MSFontService,sans-serif" font-style="normal" font-variant="normal" font-weight="400" font-stretch="normal" font-size="46" text-anchor="start" direction="ltr" writing-mode="lr-tb" unicode-bidi="normal" text-decoration="none" transform="matrix(1 0 0 1 1727.85 2684)">S4</text></g><g><text fill="#000000" fill-opacity="1" font-family="Calibri,Calibri_MSFontService,sans-serif" font-style="normal" font-variant="normal" font-weight="400" font-stretch="normal" font-size="46" text-anchor="start" direction="ltr" writing-mode="lr-tb" unicode-bidi="normal" text-decoration="none" transform="matrix(1 0 0 1 2166.15 2684)">S5</text></g><g><text fill="#000000" fill-opacity="1" font-family="Calibri,Calibri_MSFontService,sans-serif" font-style="normal" font-variant="normal" font-weight="400" font-stretch="normal" font-size="46" text-anchor="start" direction="ltr" writing-mode="lr-tb" unicode-bidi="normal" text-decoration="none" transform="matrix(1 0 0 1 2604.46 2684)">S6</text></g><g><text fill="#000000" fill-opacity="1" font-family="Calibri,Calibri_MSFontService,sans-serif" font-style="normal" font-variant="normal" font-weight="400" font-stretch="normal" font-size="46" text-anchor="start" direction="ltr" writing-mode="lr-tb" unicode-bidi="normal" text-decoration="none" transform="matrix(1 0 0 1 3042.77 2684)">S7</text></g><g><text fill="#000000" fill-opacity="1" font-family="Calibri,Calibri_MSFontService,sans-serif" font-style="normal" font-variant="normal" font-weight="400" font-stretch="normal" font-size="46" text-anchor="start" direction="ltr" writing-mode="lr-tb" unicode-bidi="normal" text-decoration="none" transform="matrix(1 0 0 1 3481.07 2684)">S8</text></g><g><text fill="#000000" fill-opacity="1" font-family="Calibri,Calibri_MSFontService,sans-serif" font-style="normal" font-variant="normal" font-weight="400" font-stretch="normal" font-size="46" text-anchor="start" direction="ltr" writing-mode="lr-tb" unicode-bidi="normal" text-decoration="none" transform="matrix(1 0 0 1 3919.38 2684)">S9</text></g><g><text fill="#000000" fill-opacity="1" font-family="Calibri,Calibri_MSFontService,sans-serif" font-style="normal" font-variant="normal" font-weight="700" font-stretch="normal" font-size="46" text-anchor="start" direction="ltr" writing-mode="lr-tb" unicode-bidi="normal" text-decoration="none" transform="matrix(6.12323e-17 -1 1 6.12323e-17 101.292 1861)">N. Errori</text></g><g><text fill="#000000" fill-opacity="1" font-family="Calibri,Calibri_MSFontService,sans-serif" font-style="normal" font-variant="normal" font-weight="700" font-stretch="normal" font-size="83" text-anchor="start" direction="ltr" writing-mode="lr-tb" unicode-bidi="normal" text-decoration="none" transform="matrix(1 0 0 1 1818.02 871)">Errori Ortografici</text></g><g><path d="M1260 2767 1376 2767" stroke="#4472C4" stroke-width="7.9252" stroke-linecap="round" stroke-linejoin="round" stroke-miterlimit="10" stroke-opacity="1" fill="none" fill-rule="evenodd"/></g><g><text fill="#000000" fill-opacity="1" font-family="Calibri,Calibri_MSFontService,sans-serif" font-style="normal" font-variant="normal" font-weight="400" font-stretch="normal" font-size="46" text-anchor="start" direction="ltr" writing-mode="lr-tb" unicode-bidi="normal" text-decoration="none" transform="matrix(1 0 0 1 1388.22 2780)">AdR</text></g><g><path d="M1523 2767 1638 2767" stroke="#70AD47" stroke-width="7.9252" stroke-linecap="round" stroke-linejoin="round" stroke-miterlimit="10" stroke-opacity="1" fill="none" fill-rule="evenodd"/></g><g><text fill="#000000" fill-opacity="1" font-family="Calibri,Calibri_MSFontService,sans-serif" font-style="normal" font-variant="normal" font-weight="400" font-stretch="normal" font-size="46" text-anchor="start" direction="ltr" writing-mode="lr-tb" unicode-bidi="normal" text-decoration="none" transform="matrix(1 0 0 1 1651.12 2780)">PdQ</text></g><g><path d="M1789 2767 1904 2767" stroke="#ED7D31" stroke-width="7.9252" stroke-linecap="round" stroke-linejoin="round" stroke-miterlimit="10" stroke-opacity="1" fill="none" fill-rule="evenodd"/></g><g><text fill="#000000" fill-opacity="1" font-family="Calibri,Calibri_MSFontService,sans-serif" font-style="normal" font-variant="normal" font-weight="400" font-stretch="normal" font-size="46" text-anchor="start" direction="ltr" writing-mode="lr-tb" unicode-bidi="normal" text-decoration="none" transform="matrix(1 0 0 1 1917.13 2780)">NdP</text></g><g><path d="M2054 2767 2169 2767" stroke="#9B59B6" stroke-width="7.9252" stroke-linecap="round" stroke-linejoin="round" stroke-miterlimit="10" stroke-opacity="1" fill="none" fill-rule="evenodd"/></g><g><text fill="#000000" fill-opacity="1" font-family="Calibri,Calibri_MSFontService,sans-serif" font-style="normal" font-variant="normal" font-weight="400" font-stretch="normal" font-size="46" text-anchor="start" direction="ltr" writing-mode="lr-tb" unicode-bidi="normal" text-decoration="none" transform="matrix(1 0 0 1 2181.88 2780)">PdP</text></g><g><path d="M2312 2767 2428 2767" stroke="#FFC000" stroke-width="7.9252" stroke-linecap="round" stroke-linejoin="round" stroke-miterlimit="10" stroke-opacity="1" fill="none" fill-rule="evenodd"/></g><g><text fill="#000000" fill-opacity="1" font-family="Calibri,Calibri_MSFontService,sans-serif" font-style="normal" font-variant="normal" font-weight="400" font-stretch="normal" font-size="46" text-anchor="start" direction="ltr" writing-mode="lr-tb" unicode-bidi="normal" text-decoration="none" transform="matrix(1 0 0 1 2440.72 2780)">Glossario</text></g><g><path d="M2671.5 2764.77 2687.87 2764.77C2689.38 2764.77 2690.6 2765.99 2690.6 2767.5 2690.6 2769.01 2689.38 2770.23 2687.87 2770.23L2671.5 2770.23C2669.99 2770.23 2668.77 2769.01 2668.77 2767.5 2668.77 2765.99 2669.99 2764.77 2671.5 2764.77ZM2709.7 2764.77 2726.07 2764.77C2727.57 2764.77 2728.8 2765.99 2728.8 2767.5 2728.8 2769.01 2727.57 2770.23 2726.07 2770.23L2709.7 2770.23C2708.19 2770.23 2706.97 2769.01 2706.97 2767.5 2706.97 2765.99 2708.19 2764.77 2709.7 2764.77ZM2747.89 2764.77 2764.26 2764.77C2765.77 2764.77 2766.99 2765.99 2766.99 2767.5 2766.99 2769.01 2765.77 2770.23 2764.26 2770.23L2747.89 2770.23C2746.39 2770.23 2745.17 2769.01 2745.17 2767.5 2745.17 2765.99 2746.39 2764.77 2747.89 2764.77ZM2786.09 2764.77 2787.5 2764.77C2789.01 2764.77 2790.23 2765.99 2790.23 2767.5 2790.23 2769.01 2789.01 2770.23 2787.5 2770.23L2786.09 2770.23C2784.58 2770.23 2783.36 2769.01 2783.36 2767.5 2783.36 2765.99 2784.58 2764.77 2786.09 2764.77Z" fill="#27AE60" fill-rule="nonzero" fill-opacity="1"/></g><g><text fill="#000000" fill-opacity="1" font-family="Calibri,Calibri_MSFontService,sans-serif" font-style="normal" font-variant="normal" font-weight="400" font-stretch="normal" font-size="46" text-anchor="start" direction="ltr" writing-mode="lr-tb" unicode-bidi="normal" text-decoration="none" transform="matrix(1 0 0 1 2799.93 2780)">Soglia (0)</text></g><rect x="0.499836" y="758.5" width="4211" height="2078" stroke="#D9D9D9" stroke-width="3.37795" stroke-linecap="butt" stroke-linejoin="round" stroke-miterlimit="10" stroke-opacity="1" fill="none"/></g></g></svg>