<svg width="4220" height="2085" xmlns="http://www.w3.org/2000/svg" xmlns:xlink="http://www.w3.org/1999/xlink" xml:space="preserve" overflow="hidden"><defs><clipPath id="clip0"><rect x="-4" y="825" width="4220" height="2085"/></clipPath><clipPath id="clip1"><rect x="-4" y="825" width="4220" height="2085"/></clipPath></defs><g clip-path="url(#clip0)" transform="translate(4 -825)"><g clip-path="url(#clip1)"><rect x="0" y="826" width="4211" height="2079" fill="#FFFFFF" fill-opacity="1"/><g><path d="M273.5 2513.58 4160.5 2513.58M273.5 2347.58 4160.5 2347.58M273.5 2181.57 4160.5 2181.57M273.5 2015.57 4160.5 2015.57M273.5 1849.56 4160.5 1849.56M273.5 1683.56 4160.5 1683.56M273.5 1517.55 4160.5 1517.55M273.5 1351.54 4160.5 1351.54M273.5 1185.54 4160.5 1185.54M273.5 1019.5 4160.5 1019.5" stroke="#878787" stroke-width="3.37795" stroke-linecap="butt" stroke-linejoin="round" stroke-miterlimit="10" stroke-opacity="1" fill="none" fill-rule="nonzero"/></g><g><path d="M0 0 0.000360892 1660" stroke="#878787" stroke-width="3.37795" stroke-linecap="butt" stroke-linejoin="round" stroke-miterlimit="10" stroke-opacity="1" fill="none" fill-rule="evenodd" transform="matrix(1 0 0 -1 273.5 2679.5)"/></g><g><path d="M273.5 2679.5 4160.5 2679.5" stroke="#878787" stroke-width="3.37795" stroke-linecap="butt" stroke-linejoin="round" stroke-miterlimit="10" stroke-opacity="1" fill="none" fill-rule="evenodd"/></g><g><path d="M490 1351.32C633.958 1351.32 777.916 1213 921.875 1351.32 1065.83 1489.63 1209.79 2048.43 1353.75 2181.22 1497.71 2314 1641.67 2164.62 1785.62 2148.02 1929.58 2131.42 2073.54 2092.69 2217.5 2081.63 2361.46 2070.56 2505.42 2092.69 2649.38 2081.63 2793.33 2070.56 2937.29 2031.83 3081.25 2015.24 3225.21 1998.64 3369.17 1994.77 3513.12 1982.04 3657.08 1969.32 3801.04 1953.27 3945 1938.89" stroke="#4472C4" stroke-width="7.9252" stroke-linecap="round" stroke-linejoin="round" stroke-miterlimit="10" stroke-opacity="1" fill="none" fill-rule="nonzero"/></g><g><path d="M490 2348C633.958 2215.14 777.916 2015.86 921.875 1949.43 1065.83 1883 1209.79 1949.43 1353.75 1949.43 1497.71 1949.43 1641.67 1938.36 1785.62 1949.43 1929.58 1960.5 2073.54 1993.71 2217.5 2015.86 2361.46 2038 2505.42 2060.14 2649.38 2082.29 2793.33 2104.43 2937.29 2121.04 3081.25 2148.71 3225.21 2176.39 3369.17 2231.75 3513.12 2248.36 3657.08 2264.96 3801.04 2248.36 3945 2248.36" stroke="#70AD47" stroke-width="7.9252" stroke-linecap="round" stroke-linejoin="round" stroke-miterlimit="10" stroke-opacity="1" fill="none" fill-rule="nonzero"/></g><g><path d="M490 1683C633.958 1749.43 777.916 1838 921.875 1882.29 1065.83 1926.57 1209.79 1932.11 1353.75 1948.71 1497.71 1965.32 1641.67 1976.39 1785.62 1981.93 1929.58 1987.46 2073.54 1981.93 2217.5 1981.93 2361.46 1981.93 2505.42 1981.93 2649.38 1981.93 2793.33 1981.93 2937.29 1993 3081.25 1981.93 3225.21 1970.86 3369.17 1926.57 3513.12 1915.5 3657.08 1904.43 3801.04 1915.5 3945 1915.5" stroke="#ED7D31" stroke-width="7.9252" stroke-linecap="round" stroke-linejoin="round" stroke-miterlimit="10" stroke-opacity="1" fill="none" fill-rule="nonzero"/></g><g><path d="M490 1916.25C633.958 1921.79 777.916 1932.86 921.875 1932.86 1065.83 1932.86 1209.79 1919.02 1353.75 1916.25 1497.71 1913.48 1641.67 1899.64 1785.62 1916.25 1929.58 1932.86 2073.54 2017 2217.5 2015.89 2361.46 2014.79 2505.42 1926.21 2649.38 1909.61 2793.33 1893 2937.29 1915.14 3081.25 1916.25 3225.21 1917.36 3369.17 1919.02 3513.12 1916.25 3657.08 1913.48 3801.04 1905.18 3945 1899.64" stroke="#9B59B6" stroke-width="7.9252" stroke-linecap="round" stroke-linejoin="round" stroke-miterlimit="10" stroke-opacity="1" fill="none" fill-rule="nonzero"/></g><g><path d="M490 1517.55C633.958 1517.55 777.916 1512 921.875 1517.55 1065.83 1523.1 1209.79 1539.75 1353.75 1550.85 1497.71 1561.95 1641.67 1573.05 1785.62 1584.15 1929.58 1595.25 2073.54 1611.9 2217.5 1617.45 2361.46 1623 2505.42 1617.45 2649.38 1617.45 2793.33 1617.45 2937.29 1623 3081.25 1617.45 3225.21 1611.9 3369.17 1589.7 3513.12 1584.15 3657.08 1578.6 3801.04 1584.15 3945 1584.15" stroke="#FFC000" stroke-width="7.9252" stroke-linecap="round" stroke-linejoin="round" stroke-miterlimit="10" stroke-opacity="1" fill="none" fill-rule="nonzero"/></g><g><path d="M489.5 2344.77 505.87 2344.77C507.377 2344.77 508.598 2345.99 508.598 2347.5 508.598 2349.01 507.377 2350.23 505.87 2350.23L489.5 2350.23C487.993 2350.23 486.772 2349.01 486.772 2347.5 486.772 2345.99 487.993 2344.77 489.5 2344.77ZM527.697 2344.77 544.067 2344.77C545.574 2344.77 546.795 2345.99 546.795 2347.5 546.795 2349.01 545.574 2350.23 544.067 2350.23L527.697 2350.23C526.19 2350.23 524.969 2349.01 524.969 2347.5 524.969 2345.99 526.19 2344.77 527.697 2344.77ZM565.894 2344.77 582.264 2344.77C583.771 2344.77 584.992 2345.99 584.992 2347.5 584.992 2349.01 583.771 2350.23 582.264 2350.23L565.894 2350.23C564.387 2350.23 563.165 2349.01 563.165 2347.5 563.165 2345.99 564.387 2344.77 565.894 2344.77ZM604.091 2344.77 620.461 2344.77C621.967 2344.77 623.189 2345.99 623.189 2347.5 623.189 2349.01 621.967 2350.23 620.461 2350.23L604.091 2350.23C602.584 2350.23 601.362 2349.01 601.362 2347.5 601.362 2345.99 602.584 2344.77 604.091 2344.77ZM642.287 2344.77 658.657 2344.77C660.164 2344.77 661.386 2345.99 661.386 2347.5 661.386 2349.01 660.164 2350.23 658.657 2350.23L642.287 2350.23C640.781 2350.23 639.559 2349.01 639.559 2347.5 639.559 2345.99 640.781 2344.77 642.287 2344.77ZM680.484 2344.77 696.854 2344.77C698.361 2344.77 699.583 2345.99 699.583 2347.5 699.583 2349.01 698.361 2350.23 696.854 2350.23L680.484 2350.23C678.977 2350.23 677.756 2349.01 677.756 2347.5 677.756 2345.99 678.977 2344.77 680.484 2344.77ZM718.681 2344.77 735.051 2344.77C736.558 2344.77 737.78 2345.99 737.78 2347.5 737.78 2349.01 736.558 2350.23 735.051 2350.23L718.681 2350.23C717.174 2350.23 715.953 2349.01 715.953 2347.5 715.953 2345.99 717.174 2344.77 718.681 2344.77ZM756.878 2344.77 773.248 2344.77C774.755 2344.77 775.976 2345.99 775.976 2347.5 775.976 2349.01 774.755 2350.23 773.248 2350.23L756.878 2350.23C755.371 2350.23 754.15 2349.01 754.15 2347.5 754.15 2345.99 755.371 2344.77 756.878 2344.77ZM795.075 2344.77 811.445 2344.77C812.952 2344.77 814.173 2345.99 814.173 2347.5 814.173 2349.01 812.952 2350.23 811.445 2350.23L795.075 2350.23C793.568 2350.23 792.346 2349.01 792.346 2347.5 792.346 2345.99 793.568 2344.77 795.075 2344.77ZM833.272 2344.77 849.642 2344.77C851.149 2344.77 852.37 2345.99 852.37 2347.5 852.37 2349.01 851.149 2350.23 849.642 2350.23L833.272 2350.23C831.765 2350.23 830.543 2349.01 830.543 2347.5 830.543 2345.99 831.765 2344.77 833.272 2344.77ZM871.469 2344.77 887.839 2344.77C889.345 2344.77 890.567 2345.99 890.567 2347.5 890.567 2349.01 889.345 2350.23 887.839 2350.23L871.469 2350.23C869.962 2350.23 868.74 2349.01 868.74 2347.5 868.74 2345.99 869.962 2344.77 871.469 2344.77ZM909.665 2344.77 921.375 2344.77 926.035 2344.77C927.542 2344.77 928.764 2345.99 928.764 2347.5 928.764 2349.01 927.542 2350.23 926.035 2350.23L921.375 2350.23 909.665 2350.23C908.159 2350.23 906.937 2349.01 906.937 2347.5 906.937 2345.99 908.159 2344.77 909.665 2344.77ZM947.862 2344.77 964.232 2344.77C965.739 2344.77 966.961 2345.99 966.961 2347.5 966.961 2349.01 965.739 2350.23 964.232 2350.23L947.862 2350.23C946.355 2350.23 945.134 2349.01 945.134 2347.5 945.134 2345.99 946.355 2344.77 947.862 2344.77ZM986.059 2344.77 1002.43 2344.77C1003.94 2344.77 1005.16 2345.99 1005.16 2347.5 1005.16 2349.01 1003.94 2350.23 1002.43 2350.23L986.059 2350.23C984.552 2350.23 983.331 2349.01 983.331 2347.5 983.331 2345.99 984.552 2344.77 986.059 2344.77ZM1024.26 2344.77 1040.63 2344.77C1042.13 2344.77 1043.35 2345.99 1043.35 2347.5 1043.35 2349.01 1042.13 2350.23 1040.63 2350.23L1024.26 2350.23C1022.75 2350.23 1021.53 2349.01 1021.53 2347.5 1021.53 2345.99 1022.75 2344.77 1024.26 2344.77ZM1062.45 2344.77 1078.82 2344.77C1080.33 2344.77 1081.55 2345.99 1081.55 2347.5 1081.55 2349.01 1080.33 2350.23 1078.82 2350.23L1062.45 2350.23C1060.95 2350.23 1059.72 2349.01 1059.72 2347.5 1059.72 2345.99 1060.95 2344.77 1062.45 2344.77ZM1100.65 2344.77 1117.02 2344.77C1118.53 2344.77 1119.75 2345.99 1119.75 2347.5 1119.75 2349.01 1118.53 2350.23 1117.02 2350.23L1100.65 2350.23C1099.14 2350.23 1097.92 2349.01 1097.92 2347.5 1097.92 2345.99 1099.14 2344.77 1100.65 2344.77ZM1138.85 2344.77 1155.22 2344.77C1156.72 2344.77 1157.94 2345.99 1157.94 2347.5 1157.94 2349.01 1156.72 2350.23 1155.22 2350.23L1138.85 2350.23C1137.34 2350.23 1136.12 2349.01 1136.12 2347.5 1136.12 2345.99 1137.34 2344.77 1138.85 2344.77ZM1177.04 2344.77 1193.41 2344.77C1194.92 2344.77 1196.14 2345.99 1196.14 2347.5 1196.14 2349.01 1194.92 2350.23 1193.41 2350.23L1177.04 2350.23C1175.54 2350.23 1174.31 2349.01 1174.31 2347.5 1174.31 2345.99 1175.54 2344.77 1177.04 2344.77ZM1215.24 2344.77 1231.61 2344.77C1233.12 2344.77 1234.34 2345.99 1234.34 2347.5 1234.34 2349.01 1233.12 2350.23 1231.61 2350.23L1215.24 2350.23C1213.73 2350.23 1212.51 2349.01 1212.51 2347.5 1212.51 2345.99 1213.73 2344.77 1215.24 2344.77ZM1253.44 2344.77 1269.81 2344.77C1271.31 2344.77 1272.54 2345.99 1272.54 2347.5 1272.54 2349.01 1271.31 2350.23 1269.81 2350.23L1253.44 2350.23C1251.93 2350.23 1250.71 2349.01 1250.71 2347.5 1250.71 2345.99 1251.93 2344.77 1253.44 2344.77ZM1291.63 2344.77 1308 2344.77C1309.51 2344.77 1310.73 2345.99 1310.73 2347.5 1310.73 2349.01 1309.51 2350.23 1308 2350.23L1291.63 2350.23C1290.13 2350.23 1288.91 2349.01 1288.91 2347.5 1288.91 2345.99 1290.13 2344.77 1291.63 2344.77ZM1329.83 2344.77 1346.2 2344.77C1347.71 2344.77 1348.93 2345.99 1348.93 2347.5 1348.93 2349.01 1347.71 2350.23 1346.2 2350.23L1329.83 2350.23C1328.32 2350.23 1327.1 2349.01 1327.1 2347.5 1327.1 2345.99 1328.32 2344.77 1329.83 2344.77ZM1368.03 2344.77 1384.4 2344.77C1385.9 2344.77 1387.13 2345.99 1387.13 2347.5 1387.13 2349.01 1385.9 2350.23 1384.4 2350.23L1368.03 2350.23C1366.52 2350.23 1365.3 2349.01 1365.3 2347.5 1365.3 2345.99 1366.52 2344.77 1368.03 2344.77ZM1406.22 2344.77 1422.59 2344.77C1424.1 2344.77 1425.32 2345.99 1425.32 2347.5 1425.32 2349.01 1424.1 2350.23 1422.59 2350.23L1406.22 2350.23C1404.72 2350.23 1403.5 2349.01 1403.5 2347.5 1403.5 2345.99 1404.72 2344.77 1406.22 2344.77ZM1444.42 2344.77 1460.79 2344.77C1462.3 2344.77 1463.52 2345.99 1463.52 2347.5 1463.52 2349.01 1462.3 2350.23 1460.79 2350.23L1444.42 2350.23C1442.91 2350.23 1441.69 2349.01 1441.69 2347.5 1441.69 2345.99 1442.91 2344.77 1444.42 2344.77ZM1482.62 2344.77 1498.99 2344.77C1500.49 2344.77 1501.72 2345.99 1501.72 2347.5 1501.72 2349.01 1500.49 2350.23 1498.99 2350.23L1482.62 2350.23C1481.11 2350.23 1479.89 2349.01 1479.89 2347.5 1479.89 2345.99 1481.11 2344.77 1482.62 2344.77ZM1520.81 2344.77 1537.19 2344.77C1538.69 2344.77 1539.91 2345.99 1539.91 2347.5 1539.91 2349.01 1538.69 2350.23 1537.19 2350.23L1520.81 2350.23C1519.31 2350.23 1518.09 2349.01 1518.09 2347.5 1518.09 2345.99 1519.31 2344.77 1520.81 2344.77ZM1559.01 2344.77 1575.38 2344.77C1576.89 2344.77 1578.11 2345.99 1578.11 2347.5 1578.11 2349.01 1576.89 2350.23 1575.38 2350.23L1559.01 2350.23C1557.51 2350.23 1556.28 2349.01 1556.28 2347.5 1556.28 2345.99 1557.51 2344.77 1559.01 2344.77ZM1597.21 2344.77 1613.58 2344.77C1615.09 2344.77 1616.31 2345.99 1616.31 2347.5 1616.31 2349.01 1615.09 2350.23 1613.58 2350.23L1597.21 2350.23C1595.7 2350.23 1594.48 2349.01 1594.48 2347.5 1594.48 2345.99 1595.7 2344.77 1597.21 2344.77ZM1635.41 2344.77 1651.78 2344.77C1653.28 2344.77 1654.5 2345.99 1654.5 2347.5 1654.5 2349.01 1653.28 2350.23 1651.78 2350.23L1635.41 2350.23C1633.9 2350.23 1632.68 2349.01 1632.68 2347.5 1632.68 2345.99 1633.9 2344.77 1635.41 2344.77ZM1673.6 2344.77 1689.97 2344.77C1691.48 2344.77 1692.7 2345.99 1692.7 2347.5 1692.7 2349.01 1691.48 2350.23 1689.97 2350.23L1673.6 2350.23C1672.1 2350.23 1670.87 2349.01 1670.87 2347.5 1670.87 2345.99 1672.1 2344.77 1673.6 2344.77ZM1711.8 2344.77 1728.17 2344.77C1729.68 2344.77 1730.9 2345.99 1730.9 2347.5 1730.9 2349.01 1729.68 2350.23 1728.17 2350.23L1711.8 2350.23C1710.29 2350.23 1709.07 2349.01 1709.07 2347.5 1709.07 2345.99 1710.29 2344.77 1711.8 2344.77ZM1750 2344.77 1766.37 2344.77C1767.87 2344.77 1769.09 2345.99 1769.09 2347.5 1769.09 2349.01 1767.87 2350.23 1766.37 2350.23L1750 2350.23C1748.49 2350.23 1747.27 2349.01 1747.27 2347.5 1747.27 2345.99 1748.49 2344.77 1750 2344.77ZM1788.19 2344.77 1804.56 2344.77C1806.07 2344.77 1807.29 2345.99 1807.29 2347.5 1807.29 2349.01 1806.07 2350.23 1804.56 2350.23L1788.19 2350.23C1786.69 2350.23 1785.46 2349.01 1785.46 2347.5 1785.46 2345.99 1786.69 2344.77 1788.19 2344.77ZM1826.39 2344.77 1842.76 2344.77C1844.27 2344.77 1845.49 2345.99 1845.49 2347.5 1845.49 2349.01 1844.27 2350.23 1842.76 2350.23L1826.39 2350.23C1824.88 2350.23 1823.66 2349.01 1823.66 2347.5 1823.66 2345.99 1824.88 2344.77 1826.39 2344.77ZM1864.59 2344.77 1880.96 2344.77C1882.46 2344.77 1883.69 2345.99 1883.69 2347.5 1883.69 2349.01 1882.46 2350.23 1880.96 2350.23L1864.59 2350.23C1863.08 2350.23 1861.86 2349.01 1861.86 2347.5 1861.86 2345.99 1863.08 2344.77 1864.59 2344.77ZM1902.78 2344.77 1919.15 2344.77C1920.66 2344.77 1921.88 2345.99 1921.88 2347.5 1921.88 2349.01 1920.66 2350.23 1919.15 2350.23L1902.78 2350.23C1901.28 2350.23 1900.06 2349.01 1900.06 2347.5 1900.06 2345.99 1901.28 2344.77 1902.78 2344.77ZM1940.98 2344.77 1957.35 2344.77C1958.86 2344.77 1960.08 2345.99 1960.08 2347.5 1960.08 2349.01 1958.86 2350.23 1957.35 2350.23L1940.98 2350.23C1939.47 2350.23 1938.25 2349.01 1938.25 2347.5 1938.25 2345.99 1939.47 2344.77 1940.98 2344.77ZM1979.18 2344.77 1995.55 2344.77C1997.05 2344.77 1998.28 2345.99 1998.28 2347.5 1998.28 2349.01 1997.05 2350.23 1995.55 2350.23L1979.18 2350.23C1977.67 2350.23 1976.45 2349.01 1976.45 2347.5 1976.45 2345.99 1977.67 2344.77 1979.18 2344.77ZM2017.37 2344.77 2033.74 2344.77C2035.25 2344.77 2036.47 2345.99 2036.47 2347.5 2036.47 2349.01 2035.25 2350.23 2033.74 2350.23L2017.37 2350.23C2015.87 2350.23 2014.65 2349.01 2014.65 2347.5 2014.65 2345.99 2015.87 2344.77 2017.37 2344.77ZM2055.57 2344.77 2071.94 2344.77C2073.45 2344.77 2074.67 2345.99 2074.67 2347.5 2074.67 2349.01 2073.45 2350.23 2071.94 2350.23L2055.57 2350.23C2054.06 2350.23 2052.84 2349.01 2052.84 2347.5 2052.84 2345.99 2054.06 2344.77 2055.57 2344.77ZM2093.77 2344.77 2110.14 2344.77C2111.64 2344.77 2112.87 2345.99 2112.87 2347.5 2112.87 2349.01 2111.64 2350.23 2110.14 2350.23L2093.77 2350.23C2092.26 2350.23 2091.04 2349.01 2091.04 2347.5 2091.04 2345.99 2092.26 2344.77 2093.77 2344.77ZM2131.96 2344.77 2148.33 2344.77C2149.84 2344.77 2151.06 2345.99 2151.06 2347.5 2151.06 2349.01 2149.84 2350.23 2148.33 2350.23L2131.96 2350.23C2130.46 2350.23 2129.24 2349.01 2129.24 2347.5 2129.24 2345.99 2130.46 2344.77 2131.96 2344.77ZM2170.16 2344.77 2186.53 2344.77C2188.04 2344.77 2189.26 2345.99 2189.26 2347.5 2189.26 2349.01 2188.04 2350.23 2186.53 2350.23L2170.16 2350.23C2168.65 2350.23 2167.43 2349.01 2167.43 2347.5 2167.43 2345.99 2168.65 2344.77 2170.16 2344.77ZM2208.36 2344.77 2217 2344.77 2224.73 2344.77C2226.24 2344.77 2227.46 2345.99 2227.46 2347.5 2227.46 2349.01 2226.24 2350.23 2224.73 2350.23L2217 2350.23 2208.36 2350.23C2206.85 2350.23 2205.63 2349.01 2205.63 2347.5 2205.63 2345.99 2206.85 2344.77 2208.36 2344.77ZM2246.56 2344.77 2262.93 2344.77C2264.43 2344.77 2265.65 2345.99 2265.65 2347.5 2265.65 2349.01 2264.43 2350.23 2262.93 2350.23L2246.56 2350.23C2245.05 2350.23 2243.83 2349.01 2243.83 2347.5 2243.83 2345.99 2245.05 2344.77 2246.56 2344.77ZM2284.75 2344.77 2301.12 2344.77C2302.63 2344.77 2303.85 2345.99 2303.85 2347.5 2303.85 2349.01 2302.63 2350.23 2301.12 2350.23L2284.75 2350.23C2283.25 2350.23 2282.02 2349.01 2282.02 2347.5 2282.02 2345.99 2283.25 2344.77 2284.75 2344.77ZM2322.95 2344.77 2339.32 2344.77C2340.83 2344.77 2342.05 2345.99 2342.05 2347.5 2342.05 2349.01 2340.83 2350.23 2339.32 2350.23L2322.95 2350.23C2321.44 2350.23 2320.22 2349.01 2320.22 2347.5 2320.22 2345.99 2321.44 2344.77 2322.95 2344.77ZM2361.15 2344.77 2377.52 2344.77C2379.02 2344.77 2380.24 2345.99 2380.24 2347.5 2380.24 2349.01 2379.02 2350.23 2377.52 2350.23L2361.15 2350.23C2359.64 2350.23 2358.42 2349.01 2358.42 2347.5 2358.42 2345.99 2359.64 2344.77 2361.15 2344.77ZM2399.34 2344.77 2415.71 2344.77C2417.22 2344.77 2418.44 2345.99 2418.44 2347.5 2418.44 2349.01 2417.22 2350.23 2415.71 2350.23L2399.34 2350.23C2397.84 2350.23 2396.61 2349.01 2396.61 2347.5 2396.61 2345.99 2397.84 2344.77 2399.34 2344.77ZM2437.54 2344.77 2453.91 2344.77C2455.42 2344.77 2456.64 2345.99 2456.64 2347.5 2456.64 2349.01 2455.42 2350.23 2453.91 2350.23L2437.54 2350.23C2436.03 2350.23 2434.81 2349.01 2434.81 2347.5 2434.81 2345.99 2436.03 2344.77 2437.54 2344.77ZM2475.74 2344.77 2492.11 2344.77C2493.61 2344.77 2494.83 2345.99 2494.83 2347.5 2494.83 2349.01 2493.61 2350.23 2492.11 2350.23L2475.74 2350.23C2474.23 2350.23 2473.01 2349.01 2473.01 2347.5 2473.01 2345.99 2474.23 2344.77 2475.74 2344.77ZM2513.93 2344.77 2530.3 2344.77C2531.81 2344.77 2533.03 2345.99 2533.03 2347.5 2533.03 2349.01 2531.81 2350.23 2530.3 2350.23L2513.93 2350.23C2512.43 2350.23 2511.2 2349.01 2511.2 2347.5 2511.2 2345.99 2512.43 2344.77 2513.93 2344.77ZM2552.13 2344.77 2568.5 2344.77C2570.01 2344.77 2571.23 2345.99 2571.23 2347.5 2571.23 2349.01 2570.01 2350.23 2568.5 2350.23L2552.13 2350.23C2550.62 2350.23 2549.4 2349.01 2549.4 2347.5 2549.4 2345.99 2550.62 2344.77 2552.13 2344.77ZM2590.33 2344.77 2606.7 2344.77C2608.2 2344.77 2609.43 2345.99 2609.43 2347.5 2609.43 2349.01 2608.2 2350.23 2606.7 2350.23L2590.33 2350.23C2588.82 2350.23 2587.6 2349.01 2587.6 2347.5 2587.6 2345.99 2588.82 2344.77 2590.33 2344.77ZM2628.52 2344.77 2644.89 2344.77C2646.4 2344.77 2647.62 2345.99 2647.62 2347.5 2647.62 2349.01 2646.4 2350.23 2644.89 2350.23L2628.52 2350.23C2627.02 2350.23 2625.8 2349.01 2625.8 2347.5 2625.8 2345.99 2627.02 2344.77 2628.52 2344.77ZM2666.72 2344.77 2683.09 2344.77C2684.6 2344.77 2685.82 2345.99 2685.82 2347.5 2685.82 2349.01 2684.6 2350.23 2683.09 2350.23L2666.72 2350.23C2665.21 2350.23 2663.99 2349.01 2663.99 2347.5 2663.99 2345.99 2665.21 2344.77 2666.72 2344.77ZM2704.92 2344.77 2721.29 2344.77C2722.79 2344.77 2724.02 2345.99 2724.02 2347.5 2724.02 2349.01 2722.79 2350.23 2721.29 2350.23L2704.92 2350.23C2703.41 2350.23 2702.19 2349.01 2702.19 2347.5 2702.19 2345.99 2703.41 2344.77 2704.92 2344.77ZM2743.11 2344.77 2759.48 2344.77C2760.99 2344.77 2762.21 2345.99 2762.21 2347.5 2762.21 2349.01 2760.99 2350.23 2759.48 2350.23L2743.11 2350.23C2741.61 2350.23 2740.39 2349.01 2740.39 2347.5 2740.39 2345.99 2741.61 2344.77 2743.11 2344.77ZM2781.31 2344.77 2797.68 2344.77C2799.19 2344.77 2800.41 2345.99 2800.41 2347.5 2800.41 2349.01 2799.19 2350.23 2797.68 2350.23L2781.31 2350.23C2779.8 2350.23 2778.58 2349.01 2778.58 2347.5 2778.58 2345.99 2779.8 2344.77 2781.31 2344.77ZM2819.51 2344.77 2835.88 2344.77C2837.38 2344.77 2838.61 2345.99 2838.61 2347.5 2838.61 2349.01 2837.38 2350.23 2835.88 2350.23L2819.51 2350.23C2818 2350.23 2816.78 2349.01 2816.78 2347.5 2816.78 2345.99 2818 2344.77 2819.51 2344.77ZM2857.7 2344.77 2874.07 2344.77C2875.58 2344.77 2876.8 2345.99 2876.8 2347.5 2876.8 2349.01 2875.58 2350.23 2874.07 2350.23L2857.7 2350.23C2856.2 2350.23 2854.98 2349.01 2854.98 2347.5 2854.98 2345.99 2856.2 2344.77 2857.7 2344.77ZM2895.9 2344.77 2912.27 2344.77C2913.78 2344.77 2915 2345.99 2915 2347.5 2915 2349.01 2913.78 2350.23 2912.27 2350.23L2895.9 2350.23C2894.39 2350.23 2893.17 2349.01 2893.17 2347.5 2893.17 2345.99 2894.39 2344.77 2895.9 2344.77ZM2934.1 2344.77 2950.47 2344.77C2951.98 2344.77 2953.2 2345.99 2953.2 2347.5 2953.2 2349.01 2951.98 2350.23 2950.47 2350.23L2934.1 2350.23C2932.59 2350.23 2931.37 2349.01 2931.37 2347.5 2931.37 2345.99 2932.59 2344.77 2934.1 2344.77ZM2972.3 2344.77 2988.67 2344.77C2990.17 2344.77 2991.39 2345.99 2991.39 2347.5 2991.39 2349.01 2990.17 2350.23 2988.67 2350.23L2972.3 2350.23C2970.79 2350.23 2969.57 2349.01 2969.57 2347.5 2969.57 2345.99 2970.79 2344.77 2972.3 2344.77ZM3010.49 2344.77 3026.86 2344.77C3028.37 2344.77 3029.59 2345.99 3029.59 2347.5 3029.59 2349.01 3028.37 2350.23 3026.86 2350.23L3010.49 2350.23C3008.99 2350.23 3007.76 2349.01 3007.76 2347.5 3007.76 2345.99 3008.99 2344.77 3010.49 2344.77ZM3048.69 2344.77 3065.06 2344.77C3066.57 2344.77 3067.79 2345.99 3067.79 2347.5 3067.79 2349.01 3066.57 2350.23 3065.06 2350.23L3048.69 2350.23C3047.18 2350.23 3045.96 2349.01 3045.96 2347.5 3045.96 2345.99 3047.18 2344.77 3048.69 2344.77ZM3086.89 2344.77 3103.26 2344.77C3104.76 2344.77 3105.98 2345.99 3105.98 2347.5 3105.98 2349.01 3104.76 2350.23 3103.26 2350.23L3086.89 2350.23C3085.38 2350.23 3084.16 2349.01 3084.16 2347.5 3084.16 2345.99 3085.38 2344.77 3086.89 2344.77ZM3125.08 2344.77 3141.45 2344.77C3142.96 2344.77 3144.18 2345.99 3144.18 2347.5 3144.18 2349.01 3142.96 2350.23 3141.45 2350.23L3125.08 2350.23C3123.58 2350.23 3122.35 2349.01 3122.35 2347.5 3122.35 2345.99 3123.58 2344.77 3125.08 2344.77ZM3163.28 2344.77 3179.65 2344.77C3181.16 2344.77 3182.38 2345.99 3182.38 2347.5 3182.38 2349.01 3181.16 2350.23 3179.65 2350.23L3163.28 2350.23C3161.77 2350.23 3160.55 2349.01 3160.55 2347.5 3160.55 2345.99 3161.77 2344.77 3163.28 2344.77ZM3201.48 2344.77 3217.85 2344.77C3219.35 2344.77 3220.57 2345.99 3220.57 2347.5 3220.57 2349.01 3219.35 2350.23 3217.85 2350.23L3201.48 2350.23C3199.97 2350.23 3198.75 2349.01 3198.75 2347.5 3198.75 2345.99 3199.97 2344.77 3201.48 2344.77ZM3239.67 2344.77 3256.04 2344.77C3257.55 2344.77 3258.77 2345.99 3258.77 2347.5 3258.77 2349.01 3257.55 2350.23 3256.04 2350.23L3239.67 2350.23C3238.17 2350.23 3236.94 2349.01 3236.94 2347.5 3236.94 2345.99 3238.17 2344.77 3239.67 2344.77ZM3277.87 2344.77 3294.24 2344.77C3295.75 2344.77 3296.97 2345.99 3296.97 2347.5 3296.97 2349.01 3295.75 2350.23 3294.24 2350.23L3277.87 2350.23C3276.36 2350.23 3275.14 2349.01 3275.14 2347.5 3275.14 2345.99 3276.36 2344.77 3277.87 2344.77ZM3316.07 2344.77 3332.44 2344.77C3333.94 2344.77 3335.17 2345.99 3335.17 2347.5 3335.17 2349.01 3333.94 2350.23 3332.44 2350.23L3316.07 2350.23C3314.56 2350.23 3313.34 2349.01 3313.34 2347.5 3313.34 2345.99 3314.56 2344.77 3316.07 2344.77ZM3354.26 2344.77 3370.63 2344.77C3372.14 2344.77 3373.36 2345.99 3373.36 2347.5 3373.36 2349.01 3372.14 2350.23 3370.63 2350.23L3354.26 2350.23C3352.76 2350.23 3351.54 2349.01 3351.54 2347.5 3351.54 2345.99 3352.76 2344.77 3354.26 2344.77ZM3392.46 2344.77 3408.83 2344.77C3410.34 2344.77 3411.56 2345.99 3411.56 2347.5 3411.56 2349.01 3410.34 2350.23 3408.83 2350.23L3392.46 2350.23C3390.95 2350.23 3389.73 2349.01 3389.73 2347.5 3389.73 2345.99 3390.95 2344.77 3392.46 2344.77ZM3430.66 2344.77 3447.03 2344.77C3448.53 2344.77 3449.76 2345.99 3449.76 2347.5 3449.76 2349.01 3448.53 2350.23 3447.03 2350.23L3430.66 2350.23C3429.15 2350.23 3427.93 2349.01 3427.93 2347.5 3427.93 2345.99 3429.15 2344.77 3430.66 2344.77ZM3468.85 2344.77 3485.22 2344.77C3486.73 2344.77 3487.95 2345.99 3487.95 2347.5 3487.95 2349.01 3486.73 2350.23 3485.22 2350.23L3468.85 2350.23C3467.35 2350.23 3466.13 2349.01 3466.13 2347.5 3466.13 2345.99 3467.35 2344.77 3468.85 2344.77ZM3507.05 2344.77 3512.62 2344.77 3523.42 2344.77C3524.93 2344.77 3526.15 2345.99 3526.15 2347.5 3526.15 2349.01 3524.93 2350.23 3523.42 2350.23L3512.62 2350.23 3507.05 2350.23C3505.54 2350.23 3504.32 2349.01 3504.32 2347.5 3504.32 2345.99 3505.54 2344.77 3507.05 2344.77ZM3545.25 2344.77 3561.62 2344.77C3563.12 2344.77 3564.35 2345.99 3564.35 2347.5 3564.35 2349.01 3563.12 2350.23 3561.62 2350.23L3545.25 2350.23C3543.74 2350.23 3542.52 2349.01 3542.52 2347.5 3542.52 2345.99 3543.74 2344.77 3545.25 2344.77ZM3583.44 2344.77 3599.81 2344.77C3601.32 2344.77 3602.54 2345.99 3602.54 2347.5 3602.54 2349.01 3601.32 2350.23 3599.81 2350.23L3583.44 2350.23C3581.94 2350.23 3580.72 2349.01 3580.72 2347.5 3580.72 2345.99 3581.94 2344.77 3583.44 2344.77ZM3621.64 2344.77 3638.01 2344.77C3639.52 2344.77 3640.74 2345.99 3640.74 2347.5 3640.74 2349.01 3639.52 2350.23 3638.01 2350.23L3621.64 2350.23C3620.14 2350.23 3618.91 2349.01 3618.91 2347.5 3618.91 2345.99 3620.14 2344.77 3621.64 2344.77ZM3659.84 2344.77 3676.21 2344.77C3677.72 2344.77 3678.94 2345.99 3678.94 2347.5 3678.94 2349.01 3677.72 2350.23 3676.21 2350.23L3659.84 2350.23C3658.33 2350.23 3657.11 2349.01 3657.11 2347.5 3657.11 2345.99 3658.33 2344.77 3659.84 2344.77ZM3698.04 2344.77 3714.41 2344.77C3715.91 2344.77 3717.13 2345.99 3717.13 2347.5 3717.13 2349.01 3715.91 2350.23 3714.41 2350.23L3698.04 2350.23C3696.53 2350.23 3695.31 2349.01 3695.31 2347.5 3695.31 2345.99 3696.53 2344.77 3698.04 2344.77ZM3736.23 2344.77 3752.6 2344.77C3754.11 2344.77 3755.33 2345.99 3755.33 2347.5 3755.33 2349.01 3754.11 2350.23 3752.6 2350.23L3736.23 2350.23C3734.73 2350.23 3733.5 2349.01 3733.5 2347.5 3733.5 2345.99 3734.73 2344.77 3736.23 2344.77ZM3774.43 2344.77 3790.8 2344.77C3792.31 2344.77 3793.53 2345.99 3793.53 2347.5 3793.53 2349.01 3792.31 2350.23 3790.8 2350.23L3774.43 2350.23C3772.92 2350.23 3771.7 2349.01 3771.7 2347.5 3771.7 2345.99 3772.92 2344.77 3774.43 2344.77ZM3812.63 2344.77 3829 2344.77C3830.5 2344.77 3831.72 2345.99 3831.72 2347.5 3831.72 2349.01 3830.5 2350.23 3829 2350.23L3812.63 2350.23C3811.12 2350.23 3809.9 2349.01 3809.9 2347.5 3809.9 2345.99 3811.12 2344.77 3812.63 2344.77ZM3850.82 2344.77 3867.19 2344.77C3868.7 2344.77 3869.92 2345.99 3869.92 2347.5 3869.92 2349.01 3868.7 2350.23 3867.19 2350.23L3850.82 2350.23C3849.32 2350.23 3848.09 2349.01 3848.09 2347.5 3848.09 2345.99 3849.32 2344.77 3850.82 2344.77ZM3889.02 2344.77 3905.39 2344.77C3906.9 2344.77 3908.12 2345.99 3908.12 2347.5 3908.12 2349.01 3906.9 2350.23 3905.39 2350.23L3889.02 2350.23C3887.51 2350.23 3886.29 2349.01 3886.29 2347.5 3886.29 2345.99 3887.51 2344.77 3889.02 2344.77ZM3927.22 2344.77 3943.59 2344.77C3945.09 2344.77 3946.31 2345.99 3946.31 2347.5 3946.31 2349.01 3945.09 2350.23 3943.59 2350.23L3927.22 2350.23C3925.71 2350.23 3924.49 2349.01 3924.49 2347.5 3924.49 2345.99 3925.71 2344.77 3927.22 2344.77Z" fill="#FF0000" fill-rule="nonzero" fill-opacity="1"/></g><g><path d="M489.5 1680.77 500.413 1680.77C501.92 1680.77 503.142 1681.99 503.142 1683.5 503.142 1685.01 501.92 1686.23 500.413 1686.23L489.5 1686.23C487.993 1686.23 486.772 1685.01 486.772 1683.5 486.772 1681.99 487.993 1680.77 489.5 1680.77ZM511.327 1680.77 522.24 1680.77C523.747 1680.77 524.969 1681.99 524.969 1683.5 524.969 1685.01 523.747 1686.23 522.24 1686.23L511.327 1686.23C509.82 1686.23 508.598 1685.01 508.598 1683.5 508.598 1681.99 509.82 1680.77 511.327 1680.77ZM533.154 1680.77 544.067 1680.77C545.574 1680.77 546.795 1681.99 546.795 1683.5 546.795 1685.01 545.574 1686.23 544.067 1686.23L533.154 1686.23C531.647 1686.23 530.425 1685.01 530.425 1683.5 530.425 1681.99 531.647 1680.77 533.154 1680.77ZM554.98 1680.77 565.894 1680.77C567.401 1680.77 568.622 1681.99 568.622 1683.5 568.622 1685.01 567.401 1686.23 565.894 1686.23L554.98 1686.23C553.474 1686.23 552.252 1685.01 552.252 1683.5 552.252 1681.99 553.474 1680.77 554.98 1680.77ZM576.807 1680.77 587.72 1680.77C589.227 1680.77 590.449 1681.99 590.449 1683.5 590.449 1685.01 589.227 1686.23 587.72 1686.23L576.807 1686.23C575.3 1686.23 574.079 1685.01 574.079 1683.5 574.079 1681.99 575.3 1680.77 576.807 1680.77ZM598.634 1680.77 609.547 1680.77C611.054 1680.77 612.276 1681.99 612.276 1683.5 612.276 1685.01 611.054 1686.23 609.547 1686.23L598.634 1686.23C597.127 1686.23 595.906 1685.01 595.906 1683.5 595.906 1681.99 597.127 1680.77 598.634 1680.77ZM620.461 1680.77 631.374 1680.77C632.881 1680.77 634.102 1681.99 634.102 1683.5 634.102 1685.01 632.881 1686.23 631.374 1686.23L620.461 1686.23C618.954 1686.23 617.732 1685.01 617.732 1683.5 617.732 1681.99 618.954 1680.77 620.461 1680.77ZM642.287 1680.77 653.201 1680.77C654.708 1680.77 655.929 1681.99 655.929 1683.5 655.929 1685.01 654.708 1686.23 653.201 1686.23L642.287 1686.23C640.781 1686.23 639.559 1685.01 639.559 1683.5 639.559 1681.99 640.781 1680.77 642.287 1680.77ZM664.114 1680.77 675.028 1680.77C676.534 1680.77 677.756 1681.99 677.756 1683.5 677.756 1685.01 676.534 1686.23 675.028 1686.23L664.114 1686.23C662.607 1686.23 661.386 1685.01 661.386 1683.5 661.386 1681.99 662.607 1680.77 664.114 1680.77ZM685.941 1680.77 696.854 1680.77C698.361 1680.77 699.583 1681.99 699.583 1683.5 699.583 1685.01 698.361 1686.23 696.854 1686.23L685.941 1686.23C684.434 1686.23 683.213 1685.01 683.213 1683.5 683.213 1681.99 684.434 1680.77 685.941 1680.77ZM707.768 1680.77 718.681 1680.77C720.188 1680.77 721.409 1681.99 721.409 1683.5 721.409 1685.01 720.188 1686.23 718.681 1686.23L707.768 1686.23C706.261 1686.23 705.039 1685.01 705.039 1683.5 705.039 1681.99 706.261 1680.77 707.768 1680.77ZM729.594 1680.77 740.508 1680.77C742.015 1680.77 743.236 1681.99 743.236 1683.5 743.236 1685.01 742.015 1686.23 740.508 1686.23L729.594 1686.23C728.088 1686.23 726.866 1685.01 726.866 1683.5 726.866 1681.99 728.088 1680.77 729.594 1680.77ZM751.421 1680.77 762.335 1680.77C763.841 1680.77 765.063 1681.99 765.063 1683.5 765.063 1685.01 763.841 1686.23 762.335 1686.23L751.421 1686.23C749.914 1686.23 748.693 1685.01 748.693 1683.5 748.693 1681.99 749.914 1680.77 751.421 1680.77ZM773.248 1680.77 784.161 1680.77C785.668 1680.77 786.89 1681.99 786.89 1683.5 786.89 1685.01 785.668 1686.23 784.161 1686.23L773.248 1686.23C771.741 1686.23 770.52 1685.01 770.52 1683.5 770.52 1681.99 771.741 1680.77 773.248 1680.77ZM795.075 1680.77 805.988 1680.77C807.495 1680.77 808.717 1681.99 808.717 1683.5 808.717 1685.01 807.495 1686.23 805.988 1686.23L795.075 1686.23C793.568 1686.23 792.346 1685.01 792.346 1683.5 792.346 1681.99 793.568 1680.77 795.075 1680.77ZM816.902 1680.77 827.815 1680.77C829.322 1680.77 830.543 1681.99 830.543 1683.5 830.543 1685.01 829.322 1686.23 827.815 1686.23L816.902 1686.23C815.395 1686.23 814.173 1685.01 814.173 1683.5 814.173 1681.99 815.395 1680.77 816.902 1680.77ZM838.728 1680.77 849.642 1680.77C851.149 1680.77 852.37 1681.99 852.37 1683.5 852.37 1685.01 851.149 1686.23 849.642 1686.23L838.728 1686.23C837.222 1686.23 836 1685.01 836 1683.5 836 1681.99 837.222 1680.77 838.728 1680.77ZM860.555 1680.77 871.469 1680.77C872.975 1680.77 874.197 1681.99 874.197 1683.5 874.197 1685.01 872.975 1686.23 871.469 1686.23L860.555 1686.23C859.048 1686.23 857.827 1685.01 857.827 1683.5 857.827 1681.99 859.048 1680.77 860.555 1680.77ZM882.382 1680.77 893.295 1680.77C894.802 1680.77 896.024 1681.99 896.024 1683.5 896.024 1685.01 894.802 1686.23 893.295 1686.23L882.382 1686.23C880.875 1686.23 879.654 1685.01 879.654 1683.5 879.654 1681.99 880.875 1680.77 882.382 1680.77ZM904.209 1680.77 915.122 1680.77C916.629 1680.77 917.85 1681.99 917.85 1683.5 917.85 1685.01 916.629 1686.23 915.122 1686.23L904.209 1686.23C902.702 1686.23 901.48 1685.01 901.48 1683.5 901.48 1681.99 902.702 1680.77 904.209 1680.77ZM926.035 1680.77 936.949 1680.77C938.456 1680.77 939.677 1681.99 939.677 1683.5 939.677 1685.01 938.456 1686.23 936.949 1686.23L926.035 1686.23C924.529 1686.23 923.307 1685.01 923.307 1683.5 923.307 1681.99 924.529 1680.77 926.035 1680.77ZM947.862 1680.77 958.776 1680.77C960.282 1680.77 961.504 1681.99 961.504 1683.5 961.504 1685.01 960.282 1686.23 958.776 1686.23L947.862 1686.23C946.355 1686.23 945.134 1685.01 945.134 1683.5 945.134 1681.99 946.355 1680.77 947.862 1680.77ZM969.689 1680.77 980.602 1680.77C982.109 1680.77 983.331 1681.99 983.331 1683.5 983.331 1685.01 982.109 1686.23 980.602 1686.23L969.689 1686.23C968.182 1686.23 966.961 1685.01 966.961 1683.5 966.961 1681.99 968.182 1680.77 969.689 1680.77ZM991.516 1680.77 1002.43 1680.77C1003.94 1680.77 1005.16 1681.99 1005.16 1683.5 1005.16 1685.01 1003.94 1686.23 1002.43 1686.23L991.516 1686.23C990.009 1686.23 988.787 1685.01 988.787 1683.5 988.787 1681.99 990.009 1680.77 991.516 1680.77ZM1013.34 1680.77 1024.26 1680.77C1025.76 1680.77 1026.98 1681.99 1026.98 1683.5 1026.98 1685.01 1025.76 1686.23 1024.26 1686.23L1013.34 1686.23C1011.84 1686.23 1010.61 1685.01 1010.61 1683.5 1010.61 1681.99 1011.84 1680.77 1013.34 1680.77ZM1035.17 1680.77 1046.08 1680.77C1047.59 1680.77 1048.81 1681.99 1048.81 1683.5 1048.81 1685.01 1047.59 1686.23 1046.08 1686.23L1035.17 1686.23C1033.66 1686.23 1032.44 1685.01 1032.44 1683.5 1032.44 1681.99 1033.66 1680.77 1035.17 1680.77ZM1057 1680.77 1067.91 1680.77C1069.42 1680.77 1070.64 1681.99 1070.64 1683.5 1070.64 1685.01 1069.42 1686.23 1067.91 1686.23L1057 1686.23C1055.49 1686.23 1054.27 1685.01 1054.27 1683.5 1054.27 1681.99 1055.49 1680.77 1057 1680.77ZM1078.82 1680.77 1089.74 1680.77C1091.24 1680.77 1092.46 1681.99 1092.46 1683.5 1092.46 1685.01 1091.24 1686.23 1089.74 1686.23L1078.82 1686.23C1077.32 1686.23 1076.09 1685.01 1076.09 1683.5 1076.09 1681.99 1077.32 1680.77 1078.82 1680.77ZM1100.65 1680.77 1111.56 1680.77C1113.07 1680.77 1114.29 1681.99 1114.29 1683.5 1114.29 1685.01 1113.07 1686.23 1111.56 1686.23L1100.65 1686.23C1099.14 1686.23 1097.92 1685.01 1097.92 1683.5 1097.92 1681.99 1099.14 1680.77 1100.65 1680.77ZM1122.48 1680.77 1133.39 1680.77C1134.9 1680.77 1136.12 1681.99 1136.12 1683.5 1136.12 1685.01 1134.9 1686.23 1133.39 1686.23L1122.48 1686.23C1120.97 1686.23 1119.75 1685.01 1119.75 1683.5 1119.75 1681.99 1120.97 1680.77 1122.48 1680.77ZM1144.3 1680.77 1155.22 1680.77C1156.72 1680.77 1157.94 1681.99 1157.94 1683.5 1157.94 1685.01 1156.72 1686.23 1155.22 1686.23L1144.3 1686.23C1142.8 1686.23 1141.57 1685.01 1141.57 1683.5 1141.57 1681.99 1142.8 1680.77 1144.3 1680.77ZM1166.13 1680.77 1177.04 1680.77C1178.55 1680.77 1179.77 1681.99 1179.77 1683.5 1179.77 1685.01 1178.55 1686.23 1177.04 1686.23L1166.13 1686.23C1164.62 1686.23 1163.4 1685.01 1163.4 1683.5 1163.4 1681.99 1164.62 1680.77 1166.13 1680.77ZM1187.96 1680.77 1198.87 1680.77C1200.38 1680.77 1201.6 1681.99 1201.6 1683.5 1201.6 1685.01 1200.38 1686.23 1198.87 1686.23L1187.96 1686.23C1186.45 1686.23 1185.23 1685.01 1185.23 1683.5 1185.23 1681.99 1186.45 1680.77 1187.96 1680.77ZM1209.78 1680.77 1220.7 1680.77C1222.2 1680.77 1223.43 1681.99 1223.43 1683.5 1223.43 1685.01 1222.2 1686.23 1220.7 1686.23L1209.78 1686.23C1208.28 1686.23 1207.06 1685.01 1207.06 1683.5 1207.06 1681.99 1208.28 1680.77 1209.78 1680.77ZM1231.61 1680.77 1242.52 1680.77C1244.03 1680.77 1245.25 1681.99 1245.25 1683.5 1245.25 1685.01 1244.03 1686.23 1242.52 1686.23L1231.61 1686.23C1230.1 1686.23 1228.88 1685.01 1228.88 1683.5 1228.88 1681.99 1230.1 1680.77 1231.61 1680.77ZM1253.44 1680.77 1264.35 1680.77C1265.86 1680.77 1267.08 1681.99 1267.08 1683.5 1267.08 1685.01 1265.86 1686.23 1264.35 1686.23L1253.44 1686.23C1251.93 1686.23 1250.71 1685.01 1250.71 1683.5 1250.71 1681.99 1251.93 1680.77 1253.44 1680.77ZM1275.26 1680.77 1286.18 1680.77C1287.68 1680.77 1288.91 1681.99 1288.91 1683.5 1288.91 1685.01 1287.68 1686.23 1286.18 1686.23L1275.26 1686.23C1273.76 1686.23 1272.54 1685.01 1272.54 1683.5 1272.54 1681.99 1273.76 1680.77 1275.26 1680.77ZM1297.09 1680.77 1308 1680.77C1309.51 1680.77 1310.73 1681.99 1310.73 1683.5 1310.73 1685.01 1309.51 1686.23 1308 1686.23L1297.09 1686.23C1295.58 1686.23 1294.36 1685.01 1294.36 1683.5 1294.36 1681.99 1295.58 1680.77 1297.09 1680.77ZM1318.92 1680.77 1329.83 1680.77C1331.34 1680.77 1332.56 1681.99 1332.56 1683.5 1332.56 1685.01 1331.34 1686.23 1329.83 1686.23L1318.92 1686.23C1317.41 1686.23 1316.19 1685.01 1316.19 1683.5 1316.19 1681.99 1317.41 1680.77 1318.92 1680.77ZM1340.74 1680.77 1351.66 1680.77C1353.16 1680.77 1354.39 1681.99 1354.39 1683.5 1354.39 1685.01 1353.16 1686.23 1351.66 1686.23L1340.74 1686.23C1339.24 1686.23 1338.02 1685.01 1338.02 1683.5 1338.02 1681.99 1339.24 1680.77 1340.74 1680.77ZM1362.57 1680.77 1373.48 1680.77C1374.99 1680.77 1376.21 1681.99 1376.21 1683.5 1376.21 1685.01 1374.99 1686.23 1373.48 1686.23L1362.57 1686.23C1361.06 1686.23 1359.84 1685.01 1359.84 1683.5 1359.84 1681.99 1361.06 1680.77 1362.57 1680.77ZM1384.4 1680.77 1395.31 1680.77C1396.82 1680.77 1398.04 1681.99 1398.04 1683.5 1398.04 1685.01 1396.82 1686.23 1395.31 1686.23L1384.4 1686.23C1382.89 1686.23 1381.67 1685.01 1381.67 1683.5 1381.67 1681.99 1382.89 1680.77 1384.4 1680.77ZM1406.22 1680.77 1417.14 1680.77C1418.64 1680.77 1419.87 1681.99 1419.87 1683.5 1419.87 1685.01 1418.64 1686.23 1417.14 1686.23L1406.22 1686.23C1404.72 1686.23 1403.5 1685.01 1403.5 1683.5 1403.5 1681.99 1404.72 1680.77 1406.22 1680.77ZM1428.05 1680.77 1438.96 1680.77C1440.47 1680.77 1441.69 1681.99 1441.69 1683.5 1441.69 1685.01 1440.47 1686.23 1438.96 1686.23L1428.05 1686.23C1426.54 1686.23 1425.32 1685.01 1425.32 1683.5 1425.32 1681.99 1426.54 1680.77 1428.05 1680.77ZM1449.88 1680.77 1460.79 1680.77C1462.3 1680.77 1463.52 1681.99 1463.52 1683.5 1463.52 1685.01 1462.3 1686.23 1460.79 1686.23L1449.88 1686.23C1448.37 1686.23 1447.15 1685.01 1447.15 1683.5 1447.15 1681.99 1448.37 1680.77 1449.88 1680.77ZM1471.7 1680.77 1482.62 1680.77C1484.12 1680.77 1485.35 1681.99 1485.35 1683.5 1485.35 1685.01 1484.12 1686.23 1482.62 1686.23L1471.7 1686.23C1470.2 1686.23 1468.98 1685.01 1468.98 1683.5 1468.98 1681.99 1470.2 1680.77 1471.7 1680.77ZM1493.53 1680.77 1504.44 1680.77C1505.95 1680.77 1507.17 1681.99 1507.17 1683.5 1507.17 1685.01 1505.95 1686.23 1504.44 1686.23L1493.53 1686.23C1492.02 1686.23 1490.8 1685.01 1490.8 1683.5 1490.8 1681.99 1492.02 1680.77 1493.53 1680.77ZM1515.36 1680.77 1526.27 1680.77C1527.78 1680.77 1529 1681.99 1529 1683.5 1529 1685.01 1527.78 1686.23 1526.27 1686.23L1515.36 1686.23C1513.85 1686.23 1512.63 1685.01 1512.63 1683.5 1512.63 1681.99 1513.85 1680.77 1515.36 1680.77ZM1537.19 1680.77 1548.1 1680.77C1549.61 1680.77 1550.83 1681.99 1550.83 1683.5 1550.83 1685.01 1549.61 1686.23 1548.1 1686.23L1537.19 1686.23C1535.68 1686.23 1534.46 1685.01 1534.46 1683.5 1534.46 1681.99 1535.68 1680.77 1537.19 1680.77ZM1559.01 1680.77 1569.93 1680.77C1571.43 1680.77 1572.65 1681.99 1572.65 1683.5 1572.65 1685.01 1571.43 1686.23 1569.93 1686.23L1559.01 1686.23C1557.51 1686.23 1556.28 1685.01 1556.28 1683.5 1556.28 1681.99 1557.51 1680.77 1559.01 1680.77ZM1580.84 1680.77 1591.75 1680.77C1593.26 1680.77 1594.48 1681.99 1594.48 1683.5 1594.48 1685.01 1593.26 1686.23 1591.75 1686.23L1580.84 1686.23C1579.33 1686.23 1578.11 1685.01 1578.11 1683.5 1578.11 1681.99 1579.33 1680.77 1580.84 1680.77ZM1602.67 1680.77 1613.58 1680.77C1615.09 1680.77 1616.31 1681.99 1616.31 1683.5 1616.31 1685.01 1615.09 1686.23 1613.58 1686.23L1602.67 1686.23C1601.16 1686.23 1599.94 1685.01 1599.94 1683.5 1599.94 1681.99 1601.16 1680.77 1602.67 1680.77ZM1624.49 1680.77 1635.41 1680.77C1636.91 1680.77 1638.13 1681.99 1638.13 1683.5 1638.13 1685.01 1636.91 1686.23 1635.41 1686.23L1624.49 1686.23C1622.99 1686.23 1621.76 1685.01 1621.76 1683.5 1621.76 1681.99 1622.99 1680.77 1624.49 1680.77ZM1646.32 1680.77 1657.23 1680.77C1658.74 1680.77 1659.96 1681.99 1659.96 1683.5 1659.96 1685.01 1658.74 1686.23 1657.23 1686.23L1646.32 1686.23C1644.81 1686.23 1643.59 1685.01 1643.59 1683.5 1643.59 1681.99 1644.81 1680.77 1646.32 1680.77ZM1668.15 1680.77 1679.06 1680.77C1680.57 1680.77 1681.79 1681.99 1681.79 1683.5 1681.79 1685.01 1680.57 1686.23 1679.06 1686.23L1668.15 1686.23C1666.64 1686.23 1665.42 1685.01 1665.42 1683.5 1665.42 1681.99 1666.64 1680.77 1668.15 1680.77ZM1689.97 1680.77 1700.89 1680.77C1702.39 1680.77 1703.61 1681.99 1703.61 1683.5 1703.61 1685.01 1702.39 1686.23 1700.89 1686.23L1689.97 1686.23C1688.47 1686.23 1687.24 1685.01 1687.24 1683.5 1687.24 1681.99 1688.47 1680.77 1689.97 1680.77ZM1711.8 1680.77 1722.71 1680.77C1724.22 1680.77 1725.44 1681.99 1725.44 1683.5 1725.44 1685.01 1724.22 1686.23 1722.71 1686.23L1711.8 1686.23C1710.29 1686.23 1709.07 1685.01 1709.07 1683.5 1709.07 1681.99 1710.29 1680.77 1711.8 1680.77ZM1733.63 1680.77 1744.54 1680.77C1746.05 1680.77 1747.27 1681.99 1747.27 1683.5 1747.27 1685.01 1746.05 1686.23 1744.54 1686.23L1733.63 1686.23C1732.12 1686.23 1730.9 1685.01 1730.9 1683.5 1730.9 1681.99 1732.12 1680.77 1733.63 1680.77ZM1755.45 1680.77 1766.37 1680.77C1767.87 1680.77 1769.09 1681.99 1769.09 1683.5 1769.09 1685.01 1767.87 1686.23 1766.37 1686.23L1755.45 1686.23C1753.95 1686.23 1752.72 1685.01 1752.72 1683.5 1752.72 1681.99 1753.95 1680.77 1755.45 1680.77ZM1777.28 1680.77 1785.12 1680.77 1788.19 1680.77C1789.7 1680.77 1790.92 1681.99 1790.92 1683.5 1790.92 1685.01 1789.7 1686.23 1788.19 1686.23L1785.12 1686.23 1777.28 1686.23C1775.77 1686.23 1774.55 1685.01 1774.55 1683.5 1774.55 1681.99 1775.77 1680.77 1777.28 1680.77ZM1799.11 1680.77 1810.02 1680.77C1811.53 1680.77 1812.75 1681.99 1812.75 1683.5 1812.75 1685.01 1811.53 1686.23 1810.02 1686.23L1799.11 1686.23C1797.6 1686.23 1796.38 1685.01 1796.38 1683.5 1796.38 1681.99 1797.6 1680.77 1799.11 1680.77ZM1820.93 1680.77 1831.85 1680.77C1833.35 1680.77 1834.57 1681.99 1834.57 1683.5 1834.57 1685.01 1833.35 1686.23 1831.85 1686.23L1820.93 1686.23C1819.43 1686.23 1818.2 1685.01 1818.2 1683.5 1818.2 1681.99 1819.43 1680.77 1820.93 1680.77ZM1842.76 1680.77 1853.67 1680.77C1855.18 1680.77 1856.4 1681.99 1856.4 1683.5 1856.4 1685.01 1855.18 1686.23 1853.67 1686.23L1842.76 1686.23C1841.25 1686.23 1840.03 1685.01 1840.03 1683.5 1840.03 1681.99 1841.25 1680.77 1842.76 1680.77ZM1864.59 1680.77 1875.5 1680.77C1877.01 1680.77 1878.23 1681.99 1878.23 1683.5 1878.23 1685.01 1877.01 1686.23 1875.5 1686.23L1864.59 1686.23C1863.08 1686.23 1861.86 1685.01 1861.86 1683.5 1861.86 1681.99 1863.08 1680.77 1864.59 1680.77ZM1886.41 1680.77 1897.33 1680.77C1898.83 1680.77 1900.06 1681.99 1900.06 1683.5 1900.06 1685.01 1898.83 1686.23 1897.33 1686.23L1886.41 1686.23C1884.91 1686.23 1883.69 1685.01 1883.69 1683.5 1883.69 1681.99 1884.91 1680.77 1886.41 1680.77ZM1908.24 1680.77 1919.15 1680.77C1920.66 1680.77 1921.88 1681.99 1921.88 1683.5 1921.88 1685.01 1920.66 1686.23 1919.15 1686.23L1908.24 1686.23C1906.73 1686.23 1905.51 1685.01 1905.51 1683.5 1905.51 1681.99 1906.73 1680.77 1908.24 1680.77ZM1930.07 1680.77 1940.98 1680.77C1942.49 1680.77 1943.71 1681.99 1943.71 1683.5 1943.71 1685.01 1942.49 1686.23 1940.98 1686.23L1930.07 1686.23C1928.56 1686.23 1927.34 1685.01 1927.34 1683.5 1927.34 1681.99 1928.56 1680.77 1930.07 1680.77ZM1951.89 1680.77 1962.81 1680.77C1964.31 1680.77 1965.54 1681.99 1965.54 1683.5 1965.54 1685.01 1964.31 1686.23 1962.81 1686.23L1951.89 1686.23C1950.39 1686.23 1949.17 1685.01 1949.17 1683.5 1949.17 1681.99 1950.39 1680.77 1951.89 1680.77ZM1973.72 1680.77 1984.63 1680.77C1986.14 1680.77 1987.36 1681.99 1987.36 1683.5 1987.36 1685.01 1986.14 1686.23 1984.63 1686.23L1973.72 1686.23C1972.21 1686.23 1970.99 1685.01 1970.99 1683.5 1970.99 1681.99 1972.21 1680.77 1973.72 1680.77ZM1995.55 1680.77 2006.46 1680.77C2007.97 1680.77 2009.19 1681.99 2009.19 1683.5 2009.19 1685.01 2007.97 1686.23 2006.46 1686.23L1995.55 1686.23C1994.04 1686.23 1992.82 1685.01 1992.82 1683.5 1992.82 1681.99 1994.04 1680.77 1995.55 1680.77ZM2017.37 1680.77 2028.29 1680.77C2029.79 1680.77 2031.02 1681.99 2031.02 1683.5 2031.02 1685.01 2029.79 1686.23 2028.29 1686.23L2017.37 1686.23C2015.87 1686.23 2014.65 1685.01 2014.65 1683.5 2014.65 1681.99 2015.87 1680.77 2017.37 1680.77ZM2039.2 1680.77 2050.11 1680.77C2051.62 1680.77 2052.84 1681.99 2052.84 1683.5 2052.84 1685.01 2051.62 1686.23 2050.11 1686.23L2039.2 1686.23C2037.69 1686.23 2036.47 1685.01 2036.47 1683.5 2036.47 1681.99 2037.69 1680.77 2039.2 1680.77ZM2061.03 1680.77 2071.94 1680.77C2073.45 1680.77 2074.67 1681.99 2074.67 1683.5 2074.67 1685.01 2073.45 1686.23 2071.94 1686.23L2061.03 1686.23C2059.52 1686.23 2058.3 1685.01 2058.3 1683.5 2058.3 1681.99 2059.52 1680.77 2061.03 1680.77ZM2082.85 1680.77 2093.77 1680.77C2095.27 1680.77 2096.5 1681.99 2096.5 1683.5 2096.5 1685.01 2095.27 1686.23 2093.77 1686.23L2082.85 1686.23C2081.35 1686.23 2080.13 1685.01 2080.13 1683.5 2080.13 1681.99 2081.35 1680.77 2082.85 1680.77ZM2104.68 1680.77 2115.59 1680.77C2117.1 1680.77 2118.32 1681.99 2118.32 1683.5 2118.32 1685.01 2117.1 1686.23 2115.59 1686.23L2104.68 1686.23C2103.17 1686.23 2101.95 1685.01 2101.95 1683.5 2101.95 1681.99 2103.17 1680.77 2104.68 1680.77ZM2126.51 1680.77 2137.42 1680.77C2138.93 1680.77 2140.15 1681.99 2140.15 1683.5 2140.15 1685.01 2138.93 1686.23 2137.42 1686.23L2126.51 1686.23C2125 1686.23 2123.78 1685.01 2123.78 1683.5 2123.78 1681.99 2125 1680.77 2126.51 1680.77ZM2148.33 1680.77 2159.25 1680.77C2160.75 1680.77 2161.98 1681.99 2161.98 1683.5 2161.98 1685.01 2160.75 1686.23 2159.25 1686.23L2148.33 1686.23C2146.83 1686.23 2145.61 1685.01 2145.61 1683.5 2145.61 1681.99 2146.83 1680.77 2148.33 1680.77ZM2170.16 1680.77 2181.07 1680.77C2182.58 1680.77 2183.8 1681.99 2183.8 1683.5 2183.8 1685.01 2182.58 1686.23 2181.07 1686.23L2170.16 1686.23C2168.65 1686.23 2167.43 1685.01 2167.43 1683.5 2167.43 1681.99 2168.65 1680.77 2170.16 1680.77ZM2191.99 1680.77 2202.9 1680.77C2204.41 1680.77 2205.63 1681.99 2205.63 1683.5 2205.63 1685.01 2204.41 1686.23 2202.9 1686.23L2191.99 1686.23C2190.48 1686.23 2189.26 1685.01 2189.26 1683.5 2189.26 1681.99 2190.48 1680.77 2191.99 1680.77ZM2213.81 1680.77 2217 1680.77 2224.73 1680.77C2226.24 1680.77 2227.46 1681.99 2227.46 1683.5 2227.46 1685.01 2226.24 1686.23 2224.73 1686.23L2217 1686.23 2213.81 1686.23C2212.31 1686.23 2211.09 1685.01 2211.09 1683.5 2211.09 1681.99 2212.31 1680.77 2213.81 1680.77ZM2235.64 1680.77 2246.56 1680.77C2248.06 1680.77 2249.28 1681.99 2249.28 1683.5 2249.28 1685.01 2248.06 1686.23 2246.56 1686.23L2235.64 1686.23C2234.13 1686.23 2232.91 1685.01 2232.91 1683.5 2232.91 1681.99 2234.13 1680.77 2235.64 1680.77ZM2257.47 1680.77 2268.38 1680.77C2269.89 1680.77 2271.11 1681.99 2271.11 1683.5 2271.11 1685.01 2269.89 1686.23 2268.38 1686.23L2257.47 1686.23C2255.96 1686.23 2254.74 1685.01 2254.74 1683.5 2254.74 1681.99 2255.96 1680.77 2257.47 1680.77ZM2279.3 1680.77 2290.21 1680.77C2291.72 1680.77 2292.94 1681.99 2292.94 1683.5 2292.94 1685.01 2291.72 1686.23 2290.21 1686.23L2279.3 1686.23C2277.79 1686.23 2276.57 1685.01 2276.57 1683.5 2276.57 1681.99 2277.79 1680.77 2279.3 1680.77ZM2301.12 1680.77 2312.04 1680.77C2313.54 1680.77 2314.76 1681.99 2314.76 1683.5 2314.76 1685.01 2313.54 1686.23 2312.04 1686.23L2301.12 1686.23C2299.62 1686.23 2298.39 1685.01 2298.39 1683.5 2298.39 1681.99 2299.62 1680.77 2301.12 1680.77ZM2322.95 1680.77 2333.86 1680.77C2335.37 1680.77 2336.59 1681.99 2336.59 1683.5 2336.59 1685.01 2335.37 1686.23 2333.86 1686.23L2322.95 1686.23C2321.44 1686.23 2320.22 1685.01 2320.22 1683.5 2320.22 1681.99 2321.44 1680.77 2322.95 1680.77ZM2344.78 1680.77 2355.69 1680.77C2357.2 1680.77 2358.42 1681.99 2358.42 1683.5 2358.42 1685.01 2357.2 1686.23 2355.69 1686.23L2344.78 1686.23C2343.27 1686.23 2342.05 1685.01 2342.05 1683.5 2342.05 1681.99 2343.27 1680.77 2344.78 1680.77ZM2366.6 1680.77 2377.52 1680.77C2379.02 1680.77 2380.24 1681.99 2380.24 1683.5 2380.24 1685.01 2379.02 1686.23 2377.52 1686.23L2366.6 1686.23C2365.1 1686.23 2363.87 1685.01 2363.87 1683.5 2363.87 1681.99 2365.1 1680.77 2366.6 1680.77ZM2388.43 1680.77 2399.34 1680.77C2400.85 1680.77 2402.07 1681.99 2402.07 1683.5 2402.07 1685.01 2400.85 1686.23 2399.34 1686.23L2388.43 1686.23C2386.92 1686.23 2385.7 1685.01 2385.7 1683.5 2385.7 1681.99 2386.92 1680.77 2388.43 1680.77ZM2410.26 1680.77 2421.17 1680.77C2422.68 1680.77 2423.9 1681.99 2423.9 1683.5 2423.9 1685.01 2422.68 1686.23 2421.17 1686.23L2410.26 1686.23C2408.75 1686.23 2407.53 1685.01 2407.53 1683.5 2407.53 1681.99 2408.75 1680.77 2410.26 1680.77ZM2432.08 1680.77 2443 1680.77C2444.5 1680.77 2445.72 1681.99 2445.72 1683.5 2445.72 1685.01 2444.5 1686.23 2443 1686.23L2432.08 1686.23C2430.58 1686.23 2429.35 1685.01 2429.35 1683.5 2429.35 1681.99 2430.58 1680.77 2432.08 1680.77ZM2453.91 1680.77 2464.82 1680.77C2466.33 1680.77 2467.55 1681.99 2467.55 1683.5 2467.55 1685.01 2466.33 1686.23 2464.82 1686.23L2453.91 1686.23C2452.4 1686.23 2451.18 1685.01 2451.18 1683.5 2451.18 1681.99 2452.4 1680.77 2453.91 1680.77ZM2475.74 1680.77 2486.65 1680.77C2488.16 1680.77 2489.38 1681.99 2489.38 1683.5 2489.38 1685.01 2488.16 1686.23 2486.65 1686.23L2475.74 1686.23C2474.23 1686.23 2473.01 1685.01 2473.01 1683.5 2473.01 1681.99 2474.23 1680.77 2475.74 1680.77ZM2497.56 1680.77 2508.48 1680.77C2509.98 1680.77 2511.2 1681.99 2511.2 1683.5 2511.2 1685.01 2509.98 1686.23 2508.48 1686.23L2497.56 1686.23C2496.06 1686.23 2494.83 1685.01 2494.83 1683.5 2494.83 1681.99 2496.06 1680.77 2497.56 1680.77ZM2519.39 1680.77 2530.3 1680.77C2531.81 1680.77 2533.03 1681.99 2533.03 1683.5 2533.03 1685.01 2531.81 1686.23 2530.3 1686.23L2519.39 1686.23C2517.88 1686.23 2516.66 1685.01 2516.66 1683.5 2516.66 1681.99 2517.88 1680.77 2519.39 1680.77ZM2541.22 1680.77 2552.13 1680.77C2553.64 1680.77 2554.86 1681.99 2554.86 1683.5 2554.86 1685.01 2553.64 1686.23 2552.13 1686.23L2541.22 1686.23C2539.71 1686.23 2538.49 1685.01 2538.49 1683.5 2538.49 1681.99 2539.71 1680.77 2541.22 1680.77ZM2563.04 1680.77 2573.96 1680.77C2575.46 1680.77 2576.69 1681.99 2576.69 1683.5 2576.69 1685.01 2575.46 1686.23 2573.96 1686.23L2563.04 1686.23C2561.54 1686.23 2560.31 1685.01 2560.31 1683.5 2560.31 1681.99 2561.54 1680.77 2563.04 1680.77ZM2584.87 1680.77 2595.78 1680.77C2597.29 1680.77 2598.51 1681.99 2598.51 1683.5 2598.51 1685.01 2597.29 1686.23 2595.78 1686.23L2584.87 1686.23C2583.36 1686.23 2582.14 1685.01 2582.14 1683.5 2582.14 1681.99 2583.36 1680.77 2584.87 1680.77ZM2606.7 1680.77 2617.61 1680.77C2619.12 1680.77 2620.34 1681.99 2620.34 1683.5 2620.34 1685.01 2619.12 1686.23 2617.61 1686.23L2606.7 1686.23C2605.19 1686.23 2603.97 1685.01 2603.97 1683.5 2603.97 1681.99 2605.19 1680.77 2606.7 1680.77ZM2628.52 1680.77 2639.44 1680.77C2640.94 1680.77 2642.17 1681.99 2642.17 1683.5 2642.17 1685.01 2640.94 1686.23 2639.44 1686.23L2628.52 1686.23C2627.02 1686.23 2625.8 1685.01 2625.8 1683.5 2625.8 1681.99 2627.02 1680.77 2628.52 1680.77ZM2650.35 1680.77 2661.26 1680.77C2662.77 1680.77 2663.99 1681.99 2663.99 1683.5 2663.99 1685.01 2662.77 1686.23 2661.26 1686.23L2650.35 1686.23C2648.84 1686.23 2647.62 1685.01 2647.62 1683.5 2647.62 1681.99 2648.84 1680.77 2650.35 1680.77ZM2672.18 1680.77 2683.09 1680.77C2684.6 1680.77 2685.82 1681.99 2685.82 1683.5 2685.82 1685.01 2684.6 1686.23 2683.09 1686.23L2672.18 1686.23C2670.67 1686.23 2669.45 1685.01 2669.45 1683.5 2669.45 1681.99 2670.67 1680.77 2672.18 1680.77ZM2694 1680.77 2704.92 1680.77C2706.42 1680.77 2707.65 1681.99 2707.65 1683.5 2707.65 1685.01 2706.42 1686.23 2704.92 1686.23L2694 1686.23C2692.5 1686.23 2691.28 1685.01 2691.28 1683.5 2691.28 1681.99 2692.5 1680.77 2694 1680.77ZM2715.83 1680.77 2726.74 1680.77C2728.25 1680.77 2729.47 1681.99 2729.47 1683.5 2729.47 1685.01 2728.25 1686.23 2726.74 1686.23L2715.83 1686.23C2714.32 1686.23 2713.1 1685.01 2713.1 1683.5 2713.1 1681.99 2714.32 1680.77 2715.83 1680.77ZM2737.66 1680.77 2748.57 1680.77C2750.08 1680.77 2751.3 1681.99 2751.3 1683.5 2751.3 1685.01 2750.08 1686.23 2748.57 1686.23L2737.66 1686.23C2736.15 1686.23 2734.93 1685.01 2734.93 1683.5 2734.93 1681.99 2736.15 1680.77 2737.66 1680.77ZM2759.48 1680.77 2770.4 1680.77C2771.9 1680.77 2773.13 1681.99 2773.13 1683.5 2773.13 1685.01 2771.9 1686.23 2770.4 1686.23L2759.48 1686.23C2757.98 1686.23 2756.76 1685.01 2756.76 1683.5 2756.76 1681.99 2757.98 1680.77 2759.48 1680.77ZM2781.31 1680.77 2792.22 1680.77C2793.73 1680.77 2794.95 1681.99 2794.95 1683.5 2794.95 1685.01 2793.73 1686.23 2792.22 1686.23L2781.31 1686.23C2779.8 1686.23 2778.58 1685.01 2778.58 1683.5 2778.58 1681.99 2779.8 1680.77 2781.31 1680.77ZM2803.14 1680.77 2814.05 1680.77C2815.56 1680.77 2816.78 1681.99 2816.78 1683.5 2816.78 1685.01 2815.56 1686.23 2814.05 1686.23L2803.14 1686.23C2801.63 1686.23 2800.41 1685.01 2800.41 1683.5 2800.41 1681.99 2801.63 1680.77 2803.14 1680.77ZM2824.96 1680.77 2835.88 1680.77C2837.38 1680.77 2838.61 1681.99 2838.61 1683.5 2838.61 1685.01 2837.38 1686.23 2835.88 1686.23L2824.96 1686.23C2823.46 1686.23 2822.24 1685.01 2822.24 1683.5 2822.24 1681.99 2823.46 1680.77 2824.96 1680.77ZM2846.79 1680.77 2857.7 1680.77C2859.21 1680.77 2860.43 1681.99 2860.43 1683.5 2860.43 1685.01 2859.21 1686.23 2857.7 1686.23L2846.79 1686.23C2845.28 1686.23 2844.06 1685.01 2844.06 1683.5 2844.06 1681.99 2845.28 1680.77 2846.79 1680.77ZM2868.62 1680.77 2879.53 1680.77C2881.04 1680.77 2882.26 1681.99 2882.26 1683.5 2882.26 1685.01 2881.04 1686.23 2879.53 1686.23L2868.62 1686.23C2867.11 1686.23 2865.89 1685.01 2865.89 1683.5 2865.89 1681.99 2867.11 1680.77 2868.62 1680.77ZM2890.44 1680.77 2901.36 1680.77C2902.87 1680.77 2904.09 1681.99 2904.09 1683.5 2904.09 1685.01 2902.87 1686.23 2901.36 1686.23L2890.44 1686.23C2888.94 1686.23 2887.72 1685.01 2887.72 1683.5 2887.72 1681.99 2888.94 1680.77 2890.44 1680.77ZM2912.27 1680.77 2923.19 1680.77C2924.69 1680.77 2925.91 1681.99 2925.91 1683.5 2925.91 1685.01 2924.69 1686.23 2923.19 1686.23L2912.27 1686.23C2910.76 1686.23 2909.54 1685.01 2909.54 1683.5 2909.54 1681.99 2910.76 1680.77 2912.27 1680.77ZM2934.1 1680.77 2945.01 1680.77C2946.52 1680.77 2947.74 1681.99 2947.74 1683.5 2947.74 1685.01 2946.52 1686.23 2945.01 1686.23L2934.1 1686.23C2932.59 1686.23 2931.37 1685.01 2931.37 1683.5 2931.37 1681.99 2932.59 1680.77 2934.1 1680.77ZM2955.93 1680.77 2966.84 1680.77C2968.35 1680.77 2969.57 1681.99 2969.57 1683.5 2969.57 1685.01 2968.35 1686.23 2966.84 1686.23L2955.93 1686.23C2954.42 1686.23 2953.2 1685.01 2953.2 1683.5 2953.2 1681.99 2954.42 1680.77 2955.93 1680.77ZM2977.75 1680.77 2988.67 1680.77C2990.17 1680.77 2991.39 1681.99 2991.39 1683.5 2991.39 1685.01 2990.17 1686.23 2988.67 1686.23L2977.75 1686.23C2976.25 1686.23 2975.02 1685.01 2975.02 1683.5 2975.02 1681.99 2976.25 1680.77 2977.75 1680.77ZM2999.58 1680.77 3010.49 1680.77C3012 1680.77 3013.22 1681.99 3013.22 1683.5 3013.22 1685.01 3012 1686.23 3010.49 1686.23L2999.58 1686.23C2998.07 1686.23 2996.85 1685.01 2996.85 1683.5 2996.85 1681.99 2998.07 1680.77 2999.58 1680.77ZM3021.41 1680.77 3032.32 1680.77C3033.83 1680.77 3035.05 1681.99 3035.05 1683.5 3035.05 1685.01 3033.83 1686.23 3032.32 1686.23L3021.41 1686.23C3019.9 1686.23 3018.68 1685.01 3018.68 1683.5 3018.68 1681.99 3019.9 1680.77 3021.41 1680.77ZM3043.23 1680.77 3054.15 1680.77C3055.65 1680.77 3056.87 1681.99 3056.87 1683.5 3056.87 1685.01 3055.65 1686.23 3054.15 1686.23L3043.23 1686.23C3041.73 1686.23 3040.5 1685.01 3040.5 1683.5 3040.5 1681.99 3041.73 1680.77 3043.23 1680.77ZM3065.06 1680.77 3075.97 1680.77C3077.48 1680.77 3078.7 1681.99 3078.7 1683.5 3078.7 1685.01 3077.48 1686.23 3075.97 1686.23L3065.06 1686.23C3063.55 1686.23 3062.33 1685.01 3062.33 1683.5 3062.33 1681.99 3063.55 1680.77 3065.06 1680.77ZM3086.89 1680.77 3097.8 1680.77C3099.31 1680.77 3100.53 1681.99 3100.53 1683.5 3100.53 1685.01 3099.31 1686.23 3097.8 1686.23L3086.89 1686.23C3085.38 1686.23 3084.16 1685.01 3084.16 1683.5 3084.16 1681.99 3085.38 1680.77 3086.89 1680.77ZM3108.71 1680.77 3119.63 1680.77C3121.13 1680.77 3122.35 1681.99 3122.35 1683.5 3122.35 1685.01 3121.13 1686.23 3119.63 1686.23L3108.71 1686.23C3107.21 1686.23 3105.98 1685.01 3105.98 1683.5 3105.98 1681.99 3107.21 1680.77 3108.71 1680.77ZM3130.54 1680.77 3141.45 1680.77C3142.96 1680.77 3144.18 1681.99 3144.18 1683.5 3144.18 1685.01 3142.96 1686.23 3141.45 1686.23L3130.54 1686.23C3129.03 1686.23 3127.81 1685.01 3127.81 1683.5 3127.81 1681.99 3129.03 1680.77 3130.54 1680.77ZM3152.37 1680.77 3163.28 1680.77C3164.79 1680.77 3166.01 1681.99 3166.01 1683.5 3166.01 1685.01 3164.79 1686.23 3163.28 1686.23L3152.37 1686.23C3150.86 1686.23 3149.64 1685.01 3149.64 1683.5 3149.64 1681.99 3150.86 1680.77 3152.37 1680.77ZM3174.19 1680.77 3185.11 1680.77C3186.61 1680.77 3187.83 1681.99 3187.83 1683.5 3187.83 1685.01 3186.61 1686.23 3185.11 1686.23L3174.19 1686.23C3172.69 1686.23 3171.46 1685.01 3171.46 1683.5 3171.46 1681.99 3172.69 1680.77 3174.19 1680.77ZM3196.02 1680.77 3206.93 1680.77C3208.44 1680.77 3209.66 1681.99 3209.66 1683.5 3209.66 1685.01 3208.44 1686.23 3206.93 1686.23L3196.02 1686.23C3194.51 1686.23 3193.29 1685.01 3193.29 1683.5 3193.29 1681.99 3194.51 1680.77 3196.02 1680.77ZM3217.85 1680.77 3228.76 1680.77C3230.27 1680.77 3231.49 1681.99 3231.49 1683.5 3231.49 1685.01 3230.27 1686.23 3228.76 1686.23L3217.85 1686.23C3216.34 1686.23 3215.12 1685.01 3215.12 1683.5 3215.12 1681.99 3216.34 1680.77 3217.85 1680.77ZM3239.67 1680.77 3250.59 1680.77C3252.09 1680.77 3253.31 1681.99 3253.31 1683.5 3253.31 1685.01 3252.09 1686.23 3250.59 1686.23L3239.67 1686.23C3238.17 1686.23 3236.94 1685.01 3236.94 1683.5 3236.94 1681.99 3238.17 1680.77 3239.67 1680.77ZM3261.5 1680.77 3272.41 1680.77C3273.92 1680.77 3275.14 1681.99 3275.14 1683.5 3275.14 1685.01 3273.92 1686.23 3272.41 1686.23L3261.5 1686.23C3259.99 1686.23 3258.77 1685.01 3258.77 1683.5 3258.77 1681.99 3259.99 1680.77 3261.5 1680.77ZM3283.33 1680.77 3294.24 1680.77C3295.75 1680.77 3296.97 1681.99 3296.97 1683.5 3296.97 1685.01 3295.75 1686.23 3294.24 1686.23L3283.33 1686.23C3281.82 1686.23 3280.6 1685.01 3280.6 1683.5 3280.6 1681.99 3281.82 1680.77 3283.33 1680.77ZM3305.15 1680.77 3316.07 1680.77C3317.57 1680.77 3318.8 1681.99 3318.8 1683.5 3318.8 1685.01 3317.57 1686.23 3316.07 1686.23L3305.15 1686.23C3303.65 1686.23 3302.43 1685.01 3302.43 1683.5 3302.43 1681.99 3303.65 1680.77 3305.15 1680.77ZM3326.98 1680.77 3337.89 1680.77C3339.4 1680.77 3340.62 1681.99 3340.62 1683.5 3340.62 1685.01 3339.4 1686.23 3337.89 1686.23L3326.98 1686.23C3325.47 1686.23 3324.25 1685.01 3324.25 1683.5 3324.25 1681.99 3325.47 1680.77 3326.98 1680.77ZM3348.81 1680.77 3359.72 1680.77C3361.23 1680.77 3362.45 1681.99 3362.45 1683.5 3362.45 1685.01 3361.23 1686.23 3359.72 1686.23L3348.81 1686.23C3347.3 1686.23 3346.08 1685.01 3346.08 1683.5 3346.08 1681.99 3347.3 1680.77 3348.81 1680.77ZM3370.63 1680.77 3381.55 1680.77C3383.05 1680.77 3384.28 1681.99 3384.28 1683.5 3384.28 1685.01 3383.05 1686.23 3381.55 1686.23L3370.63 1686.23C3369.13 1686.23 3367.91 1685.01 3367.91 1683.5 3367.91 1681.99 3369.13 1680.77 3370.63 1680.77ZM3392.46 1680.77 3403.37 1680.77C3404.88 1680.77 3406.1 1681.99 3406.1 1683.5 3406.1 1685.01 3404.88 1686.23 3403.37 1686.23L3392.46 1686.23C3390.95 1686.23 3389.73 1685.01 3389.73 1683.5 3389.73 1681.99 3390.95 1680.77 3392.46 1680.77ZM3414.29 1680.77 3425.2 1680.77C3426.71 1680.77 3427.93 1681.99 3427.93 1683.5 3427.93 1685.01 3426.71 1686.23 3425.2 1686.23L3414.29 1686.23C3412.78 1686.23 3411.56 1685.01 3411.56 1683.5 3411.56 1681.99 3412.78 1680.77 3414.29 1680.77ZM3436.11 1680.77 3447.03 1680.77C3448.53 1680.77 3449.76 1681.99 3449.76 1683.5 3449.76 1685.01 3448.53 1686.23 3447.03 1686.23L3436.11 1686.23C3434.61 1686.23 3433.39 1685.01 3433.39 1683.5 3433.39 1681.99 3434.61 1680.77 3436.11 1680.77ZM3457.94 1680.77 3468.85 1680.77C3470.36 1680.77 3471.58 1681.99 3471.58 1683.5 3471.58 1685.01 3470.36 1686.23 3468.85 1686.23L3457.94 1686.23C3456.43 1686.23 3455.21 1685.01 3455.21 1683.5 3455.21 1681.99 3456.43 1680.77 3457.94 1680.77ZM3479.77 1680.77 3490.68 1680.77C3492.19 1680.77 3493.41 1681.99 3493.41 1683.5 3493.41 1685.01 3492.19 1686.23 3490.68 1686.23L3479.77 1686.23C3478.26 1686.23 3477.04 1685.01 3477.04 1683.5 3477.04 1681.99 3478.26 1680.77 3479.77 1680.77ZM3501.59 1680.77 3512.51 1680.77C3514.01 1680.77 3515.24 1681.99 3515.24 1683.5 3515.24 1685.01 3514.01 1686.23 3512.51 1686.23L3501.59 1686.23C3500.09 1686.23 3498.87 1685.01 3498.87 1683.5 3498.87 1681.99 3500.09 1680.77 3501.59 1680.77ZM3523.42 1680.77 3534.33 1680.77C3535.84 1680.77 3537.06 1681.99 3537.06 1683.5 3537.06 1685.01 3535.84 1686.23 3534.33 1686.23L3523.42 1686.23C3521.91 1686.23 3520.69 1685.01 3520.69 1683.5 3520.69 1681.99 3521.91 1680.77 3523.42 1680.77ZM3545.25 1680.77 3556.16 1680.77C3557.67 1680.77 3558.89 1681.99 3558.89 1683.5 3558.89 1685.01 3557.67 1686.23 3556.16 1686.23L3545.25 1686.23C3543.74 1686.23 3542.52 1685.01 3542.52 1683.5 3542.52 1681.99 3543.74 1680.77 3545.25 1680.77ZM3567.07 1680.77 3577.99 1680.77C3579.49 1680.77 3580.72 1681.99 3580.72 1683.5 3580.72 1685.01 3579.49 1686.23 3577.99 1686.23L3567.07 1686.23C3565.57 1686.23 3564.35 1685.01 3564.35 1683.5 3564.35 1681.99 3565.57 1680.77 3567.07 1680.77ZM3588.9 1680.77 3599.81 1680.77C3601.32 1680.77 3602.54 1681.99 3602.54 1683.5 3602.54 1685.01 3601.32 1686.23 3599.81 1686.23L3588.9 1686.23C3587.39 1686.23 3586.17 1685.01 3586.17 1683.5 3586.17 1681.99 3587.39 1680.77 3588.9 1680.77ZM3610.73 1680.77 3621.64 1680.77C3623.15 1680.77 3624.37 1681.99 3624.37 1683.5 3624.37 1685.01 3623.15 1686.23 3621.64 1686.23L3610.73 1686.23C3609.22 1686.23 3608 1685.01 3608 1683.5 3608 1681.99 3609.22 1680.77 3610.73 1680.77ZM3632.56 1680.77 3643.47 1680.77C3644.98 1680.77 3646.2 1681.99 3646.2 1683.5 3646.2 1685.01 3644.98 1686.23 3643.47 1686.23L3632.56 1686.23C3631.05 1686.23 3629.83 1685.01 3629.83 1683.5 3629.83 1681.99 3631.05 1680.77 3632.56 1680.77ZM3654.38 1680.77 3665.3 1680.77C3666.8 1680.77 3668.02 1681.99 3668.02 1683.5 3668.02 1685.01 3666.8 1686.23 3665.3 1686.23L3654.38 1686.23C3652.88 1686.23 3651.65 1685.01 3651.65 1683.5 3651.65 1681.99 3652.88 1680.77 3654.38 1680.77ZM3676.21 1680.77 3687.12 1680.77C3688.63 1680.77 3689.85 1681.99 3689.85 1683.5 3689.85 1685.01 3688.63 1686.23 3687.12 1686.23L3676.21 1686.23C3674.7 1686.23 3673.48 1685.01 3673.48 1683.5 3673.48 1681.99 3674.7 1680.77 3676.21 1680.77ZM3698.04 1680.77 3708.95 1680.77C3710.46 1680.77 3711.68 1681.99 3711.68 1683.5 3711.68 1685.01 3710.46 1686.23 3708.95 1686.23L3698.04 1686.23C3696.53 1686.23 3695.31 1685.01 3695.31 1683.5 3695.31 1681.99 3696.53 1680.77 3698.04 1680.77ZM3719.86 1680.77 3730.78 1680.77C3732.28 1680.77 3733.5 1681.99 3733.5 1683.5 3733.5 1685.01 3732.28 1686.23 3730.78 1686.23L3719.86 1686.23C3718.36 1686.23 3717.13 1685.01 3717.13 1683.5 3717.13 1681.99 3718.36 1680.77 3719.86 1680.77ZM3741.69 1680.77 3752.6 1680.77C3754.11 1680.77 3755.33 1681.99 3755.33 1683.5 3755.33 1685.01 3754.11 1686.23 3752.6 1686.23L3741.69 1686.23C3740.18 1686.23 3738.96 1685.01 3738.96 1683.5 3738.96 1681.99 3740.18 1680.77 3741.69 1680.77ZM3763.52 1680.77 3774.43 1680.77C3775.94 1680.77 3777.16 1681.99 3777.16 1683.5 3777.16 1685.01 3775.94 1686.23 3774.43 1686.23L3763.52 1686.23C3762.01 1686.23 3760.79 1685.01 3760.79 1683.5 3760.79 1681.99 3762.01 1680.77 3763.52 1680.77ZM3785.34 1680.77 3796.26 1680.77C3797.76 1680.77 3798.98 1681.99 3798.98 1683.5 3798.98 1685.01 3797.76 1686.23 3796.26 1686.23L3785.34 1686.23C3783.84 1686.23 3782.61 1685.01 3782.61 1683.5 3782.61 1681.99 3783.84 1680.77 3785.34 1680.77ZM3807.17 1680.77 3818.08 1680.77C3819.59 1680.77 3820.81 1681.99 3820.81 1683.5 3820.81 1685.01 3819.59 1686.23 3818.08 1686.23L3807.17 1686.23C3805.66 1686.23 3804.44 1685.01 3804.44 1683.5 3804.44 1681.99 3805.66 1680.77 3807.17 1680.77ZM3829 1680.77 3839.91 1680.77C3841.42 1680.77 3842.64 1681.99 3842.64 1683.5 3842.64 1685.01 3841.42 1686.23 3839.91 1686.23L3829 1686.23C3827.49 1686.23 3826.27 1685.01 3826.27 1683.5 3826.27 1681.99 3827.49 1680.77 3829 1680.77ZM3850.82 1680.77 3861.74 1680.77C3863.24 1680.77 3864.46 1681.99 3864.46 1683.5 3864.46 1685.01 3863.24 1686.23 3861.74 1686.23L3850.82 1686.23C3849.32 1686.23 3848.09 1685.01 3848.09 1683.5 3848.09 1681.99 3849.32 1680.77 3850.82 1680.77ZM3872.65 1680.77 3883.56 1680.77C3885.07 1680.77 3886.29 1681.99 3886.29 1683.5 3886.29 1685.01 3885.07 1686.23 3883.56 1686.23L3872.65 1686.23C3871.14 1686.23 3869.92 1685.01 3869.92 1683.5 3869.92 1681.99 3871.14 1680.77 3872.65 1680.77ZM3894.48 1680.77 3905.39 1680.77C3906.9 1680.77 3908.12 1681.99 3908.12 1683.5 3908.12 1685.01 3906.9 1686.23 3905.39 1686.23L3894.48 1686.23C3892.97 1686.23 3891.75 1685.01 3891.75 1683.5 3891.75 1681.99 3892.97 1680.77 3894.48 1680.77ZM3916.3 1680.77 3927.22 1680.77C3928.72 1680.77 3929.94 1681.99 3929.94 1683.5 3929.94 1685.01 3928.72 1686.23 3927.22 1686.23L3916.3 1686.23C3914.8 1686.23 3913.57 1685.01 3913.57 1683.5 3913.57 1681.99 3914.8 1680.77 3916.3 1680.77ZM3938.13 1680.77 3944.5 1680.77C3946.01 1680.77 3947.23 1681.99 3947.23 1683.5 3947.23 1685.01 3946.01 1686.23 3944.5 1686.23L3938.13 1686.23C3936.62 1686.23 3935.4 1685.01 3935.4 1683.5 3935.4 1681.99 3936.62 1680.77 3938.13 1680.77Z" fill="#FFC000" fill-rule="nonzero" fill-opacity="1"/></g><g><text fill="#000000" fill-opacity="1" font-family="Calibri,Calibri_MSFontService,sans-serif" font-style="normal" font-variant="normal" font-weight="400" font-stretch="normal" font-size="46" text-anchor="start" direction="ltr" writing-mode="lr-tb" unicode-bidi="normal" text-decoration="none" transform="matrix(1 0 0 1 150.173 2692)">50.0</text></g><g><text fill="#000000" fill-opacity="1" font-family="Calibri,Calibri_MSFontService,sans-serif" font-style="normal" font-variant="normal" font-weight="400" font-stretch="normal" font-size="46" text-anchor="start" direction="ltr" writing-mode="lr-tb" unicode-bidi="normal" text-decoration="none" transform="matrix(1 0 0 1 150.173 2526)">55.0</text></g><g><text fill="#000000" fill-opacity="1" font-family="Calibri,Calibri_MSFontService,sans-serif" font-style="normal" font-variant="normal" font-weight="400" font-stretch="normal" font-size="46" text-anchor="start" direction="ltr" writing-mode="lr-tb" unicode-bidi="normal" text-decoration="none" transform="matrix(1 0 0 1 150.173 2360)">60.0</text></g><g><text fill="#000000" fill-opacity="1" font-family="Calibri,Calibri_MSFontService,sans-serif" font-style="normal" font-variant="normal" font-weight="400" font-stretch="normal" font-size="46" text-anchor="start" direction="ltr" writing-mode="lr-tb" unicode-bidi="normal" text-decoration="none" transform="matrix(1 0 0 1 150.173 2194)">65.0</text></g><g><text fill="#000000" fill-opacity="1" font-family="Calibri,Calibri_MSFontService,sans-serif" font-style="normal" font-variant="normal" font-weight="400" font-stretch="normal" font-size="46" text-anchor="start" direction="ltr" writing-mode="lr-tb" unicode-bidi="normal" text-decoration="none" transform="matrix(1 0 0 1 150.173 2028)">70.0</text></g><g><text fill="#000000" fill-opacity="1" font-family="Calibri,Calibri_MSFontService,sans-serif" font-style="normal" font-variant="normal" font-weight="400" font-stretch="normal" font-size="46" text-anchor="start" direction="ltr" writing-mode="lr-tb" unicode-bidi="normal" text-decoration="none" transform="matrix(1 0 0 1 150.173 1862)">75.0</text></g><g><text fill="#000000" fill-opacity="1" font-family="Calibri,Calibri_MSFontService,sans-serif" font-style="normal" font-variant="normal" font-weight="400" font-stretch="normal" font-size="46" text-anchor="start" direction="ltr" writing-mode="lr-tb" unicode-bidi="normal" text-decoration="none" transform="matrix(1 0 0 1 150.173 1696)">80.0</text></g><g><text fill="#000000" fill-opacity="1" font-family="Calibri,Calibri_MSFontService,sans-serif" font-style="normal" font-variant="normal" font-weight="400" font-stretch="normal" font-size="46" text-anchor="start" direction="ltr" writing-mode="lr-tb" unicode-bidi="normal" text-decoration="none" transform="matrix(1 0 0 1 150.173 1530)">85.0</text></g><g><text fill="#000000" fill-opacity="1" font-family="Calibri,Calibri_MSFontService,sans-serif" font-style="normal" font-variant="normal" font-weight="400" font-stretch="normal" font-size="46" text-anchor="start" direction="ltr" writing-mode="lr-tb" unicode-bidi="normal" text-decoration="none" transform="matrix(1 0 0 1 150.173 1364)">90.0</text></g><g><text fill="#000000" fill-opacity="1" font-family="Calibri,Calibri_MSFontService,sans-serif" font-style="normal" font-variant="normal" font-weight="400" font-stretch="normal" font-size="46" text-anchor="start" direction="ltr" writing-mode="lr-tb" unicode-bidi="normal" text-decoration="none" transform="matrix(1 0 0 1 150.173 1198)">95.0</text></g><g><text fill="#000000" fill-opacity="1" font-family="Calibri,Calibri_MSFontService,sans-serif" font-style="normal" font-variant="normal" font-weight="400" font-stretch="normal" font-size="46" text-anchor="start" direction="ltr" writing-mode="lr-tb" unicode-bidi="normal" text-decoration="none" transform="matrix(1 0 0 1 126.982 1031)">100.0</text></g><g><text fill="#000000" fill-opacity="1" font-family="Calibri,Calibri_MSFontService,sans-serif" font-style="normal" font-variant="normal" font-weight="400" font-stretch="normal" font-size="46" text-anchor="start" direction="ltr" writing-mode="lr-tb" unicode-bidi="normal" text-decoration="none" transform="matrix(1 0 0 1 467.622 2753)">S1</text></g><g><text fill="#000000" fill-opacity="1" font-family="Calibri,Calibri_MSFontService,sans-serif" font-style="normal" font-variant="normal" font-weight="400" font-stretch="normal" font-size="46" text-anchor="start" direction="ltr" writing-mode="lr-tb" unicode-bidi="normal" text-decoration="none" transform="matrix(1 0 0 1 899.494 2753)">S2</text></g><g><text fill="#000000" fill-opacity="1" font-family="Calibri,Calibri_MSFontService,sans-serif" font-style="normal" font-variant="normal" font-weight="400" font-stretch="normal" font-size="46" text-anchor="start" direction="ltr" writing-mode="lr-tb" unicode-bidi="normal" text-decoration="none" transform="matrix(1 0 0 1 1331.37 2753)">S3</text></g><g><text fill="#000000" fill-opacity="1" font-family="Calibri,Calibri_MSFontService,sans-serif" font-style="normal" font-variant="normal" font-weight="400" font-stretch="normal" font-size="46" text-anchor="start" direction="ltr" writing-mode="lr-tb" unicode-bidi="normal" text-decoration="none" transform="matrix(1 0 0 1 1763.24 2753)">S4</text></g><g><text fill="#000000" fill-opacity="1" font-family="Calibri,Calibri_MSFontService,sans-serif" font-style="normal" font-variant="normal" font-weight="400" font-stretch="normal" font-size="46" text-anchor="start" direction="ltr" writing-mode="lr-tb" unicode-bidi="normal" text-decoration="none" transform="matrix(1 0 0 1 2195.11 2753)">S5</text></g><g><text fill="#000000" fill-opacity="1" font-family="Calibri,Calibri_MSFontService,sans-serif" font-style="normal" font-variant="normal" font-weight="400" font-stretch="normal" font-size="46" text-anchor="start" direction="ltr" writing-mode="lr-tb" unicode-bidi="normal" text-decoration="none" transform="matrix(1 0 0 1 2626.98 2753)">S6</text></g><g><text fill="#000000" fill-opacity="1" font-family="Calibri,Calibri_MSFontService,sans-serif" font-style="normal" font-variant="normal" font-weight="400" font-stretch="normal" font-size="46" text-anchor="start" direction="ltr" writing-mode="lr-tb" unicode-bidi="normal" text-decoration="none" transform="matrix(1 0 0 1 3058.85 2753)">S7</text></g><g><text fill="#000000" fill-opacity="1" font-family="Calibri,Calibri_MSFontService,sans-serif" font-style="normal" font-variant="normal" font-weight="400" font-stretch="normal" font-size="46" text-anchor="start" direction="ltr" writing-mode="lr-tb" unicode-bidi="normal" text-decoration="none" transform="matrix(1 0 0 1 3490.72 2753)">S8</text></g><g><text fill="#000000" fill-opacity="1" font-family="Calibri,Calibri_MSFontService,sans-serif" font-style="normal" font-variant="normal" font-weight="400" font-stretch="normal" font-size="46" text-anchor="start" direction="ltr" writing-mode="lr-tb" unicode-bidi="normal" text-decoration="none" transform="matrix(1 0 0 1 3922.6 2753)">S9</text></g><g><text fill="#000000" fill-opacity="1" font-family="Calibri,Calibri_MSFontService,sans-serif" font-style="normal" font-variant="normal" font-weight="700" font-stretch="normal" font-size="46" text-anchor="start" direction="ltr" writing-mode="lr-tb" unicode-bidi="normal" text-decoration="none" transform="matrix(6.12323e-17 -1 1 6.12323e-17 101.292 1938)">Gulpease</text></g><g><text fill="#000000" fill-opacity="1" font-family="Calibri,Calibri_MSFontService,sans-serif" font-style="normal" font-variant="normal" font-weight="700" font-stretch="normal" font-size="83" text-anchor="start" direction="ltr" writing-mode="lr-tb" unicode-bidi="normal" text-decoration="none" transform="matrix(1 0 0 1 1792.56 940)">Indice di Gulpease </text></g><g><path d="M918 2836 1033 2836" stroke="#4472C4" stroke-width="7.9252" stroke-linecap="round" stroke-linejoin="round" stroke-miterlimit="10" stroke-opacity="1" fill="none" fill-rule="evenodd"/></g><g><text fill="#000000" fill-opacity="1" font-family="Calibri,Calibri_MSFontService,sans-serif" font-style="normal" font-variant="normal" font-weight="400" font-stretch="normal" font-size="46" text-anchor="start" direction="ltr" writing-mode="lr-tb" unicode-bidi="normal" text-decoration="none" transform="matrix(1 0 0 1 1045.92 2848)">AdR</text></g><g><path d="M1190 2836 1305 2836" stroke="#70AD47" stroke-width="7.9252" stroke-linecap="round" stroke-linejoin="round" stroke-miterlimit="10" stroke-opacity="1" fill="none" fill-rule="evenodd"/></g><g><text fill="#000000" fill-opacity="1" font-family="Calibri,Calibri_MSFontService,sans-serif" font-style="normal" font-variant="normal" font-weight="400" font-stretch="normal" font-size="46" text-anchor="start" direction="ltr" writing-mode="lr-tb" unicode-bidi="normal" text-decoration="none" transform="matrix(1 0 0 1 1318.06 2848)">PdQ</text></g><g><path d="M1465 2836 1581 2836" stroke="#ED7D31" stroke-width="7.9252" stroke-linecap="round" stroke-linejoin="round" stroke-miterlimit="10" stroke-opacity="1" fill="none" fill-rule="evenodd"/></g><g><text fill="#000000" fill-opacity="1" font-family="Calibri,Calibri_MSFontService,sans-serif" font-style="normal" font-variant="normal" font-weight="400" font-stretch="normal" font-size="46" text-anchor="start" direction="ltr" writing-mode="lr-tb" unicode-bidi="normal" text-decoration="none" transform="matrix(1 0 0 1 1593.33 2848)">NdP</text></g><g><path d="M1739 2836 1855 2836" stroke="#9B59B6" stroke-width="7.9252" stroke-linecap="round" stroke-linejoin="round" stroke-miterlimit="10" stroke-opacity="1" fill="none" fill-rule="evenodd"/></g><g><text fill="#000000" fill-opacity="1" font-family="Calibri,Calibri_MSFontService,sans-serif" font-style="normal" font-variant="normal" font-weight="400" font-stretch="normal" font-size="46" text-anchor="start" direction="ltr" writing-mode="lr-tb" unicode-bidi="normal" text-decoration="none" transform="matrix(1 0 0 1 1867.33 2848)">PdP</text></g><g><path d="M2007 2836 2123 2836" stroke="#FFC000" stroke-width="7.9252" stroke-linecap="round" stroke-linejoin="round" stroke-miterlimit="10" stroke-opacity="1" fill="none" fill-rule="evenodd"/></g><g><text fill="#000000" fill-opacity="1" font-family="Calibri,Calibri_MSFontService,sans-serif" font-style="normal" font-variant="normal" font-weight="400" font-stretch="normal" font-size="46" text-anchor="start" direction="ltr" writing-mode="lr-tb" unicode-bidi="normal" text-decoration="none" transform="matrix(1 0 0 1 2135.42 2848)">Glossario</text></g><g><path d="M2375.5 2832.77 2391.87 2832.77C2393.38 2832.77 2394.6 2833.99 2394.6 2835.5 2394.6 2837.01 2393.38 2838.23 2391.87 2838.23L2375.5 2838.23C2373.99 2838.23 2372.77 2837.01 2372.77 2835.5 2372.77 2833.99 2373.99 2832.77 2375.5 2832.77ZM2413.7 2832.77 2430.07 2832.77C2431.57 2832.77 2432.8 2833.99 2432.8 2835.5 2432.8 2837.01 2431.57 2838.23 2430.07 2838.23L2413.7 2838.23C2412.19 2838.23 2410.97 2837.01 2410.97 2835.5 2410.97 2833.99 2412.19 2832.77 2413.7 2832.77ZM2451.89 2832.77 2468.26 2832.77C2469.77 2832.77 2470.99 2833.99 2470.99 2835.5 2470.99 2837.01 2469.77 2838.23 2468.26 2838.23L2451.89 2838.23C2450.39 2838.23 2449.17 2837.01 2449.17 2835.5 2449.17 2833.99 2450.39 2832.77 2451.89 2832.77ZM2490.09 2832.77 2491.5 2832.77C2493.01 2832.77 2494.23 2833.99 2494.23 2835.5 2494.23 2837.01 2493.01 2838.23 2491.5 2838.23L2490.09 2838.23C2488.58 2838.23 2487.36 2837.01 2487.36 2835.5 2487.36 2833.99 2488.58 2832.77 2490.09 2832.77Z" fill="#FF0000" fill-rule="nonzero" fill-opacity="1"/></g><g><text fill="#000000" fill-opacity="1" font-family="Calibri,Calibri_MSFontService,sans-serif" font-style="normal" font-variant="normal" font-weight="400" font-stretch="normal" font-size="46" text-anchor="start" direction="ltr" writing-mode="lr-tb" unicode-bidi="normal" text-decoration="none" transform="matrix(1 0 0 1 2503.89 2848)">Soglia acc. (60%)</text></g><g><path d="M2881.5 2832.77 2892.41 2832.77C2893.92 2832.77 2895.14 2833.99 2895.14 2835.5 2895.14 2837.01 2893.92 2838.23 2892.41 2838.23L2881.5 2838.23C2879.99 2838.23 2878.77 2837.01 2878.77 2835.5 2878.77 2833.99 2879.99 2832.77 2881.5 2832.77ZM2903.33 2832.77 2914.24 2832.77C2915.75 2832.77 2916.97 2833.99 2916.97 2835.5 2916.97 2837.01 2915.75 2838.23 2914.24 2838.23L2903.33 2838.23C2901.82 2838.23 2900.6 2837.01 2900.6 2835.5 2900.6 2833.99 2901.82 2832.77 2903.33 2832.77ZM2925.15 2832.77 2936.07 2832.77C2937.57 2832.77 2938.8 2833.99 2938.8 2835.5 2938.8 2837.01 2937.57 2838.23 2936.07 2838.23L2925.15 2838.23C2923.65 2838.23 2922.43 2837.01 2922.43 2835.5 2922.43 2833.99 2923.65 2832.77 2925.15 2832.77ZM2946.98 2832.77 2957.89 2832.77C2959.4 2832.77 2960.62 2833.99 2960.62 2835.5 2960.62 2837.01 2959.4 2838.23 2957.89 2838.23L2946.98 2838.23C2945.47 2838.23 2944.25 2837.01 2944.25 2835.5 2944.25 2833.99 2945.47 2832.77 2946.98 2832.77ZM2968.81 2832.77 2979.72 2832.77C2981.23 2832.77 2982.45 2833.99 2982.45 2835.5 2982.45 2837.01 2981.23 2838.23 2979.72 2838.23L2968.81 2838.23C2967.3 2838.23 2966.08 2837.01 2966.08 2835.5 2966.08 2833.99 2967.3 2832.77 2968.81 2832.77ZM2990.63 2832.77 2997.5 2832.77C2999.01 2832.77 3000.23 2833.99 3000.23 2835.5 3000.23 2837.01 2999.01 2838.23 2997.5 2838.23L2990.63 2838.23C2989.13 2838.23 2987.91 2837.01 2987.91 2835.5 2987.91 2833.99 2989.13 2832.77 2990.63 2832.77Z" fill="#FFC000" fill-rule="nonzero" fill-opacity="1"/></g><g><text fill="#000000" fill-opacity="1" font-family="Calibri,Calibri_MSFontService,sans-serif" font-style="normal" font-variant="normal" font-weight="400" font-stretch="normal" font-size="46" text-anchor="start" direction="ltr" writing-mode="lr-tb" unicode-bidi="normal" text-decoration="none" transform="matrix(1 0 0 1 3009.74 2848)">Soglia ott. (80%)</text></g><rect x="0.499836" y="826.5" width="4211" height="2079" stroke="#D9D9D9" stroke-width="3.37795" stroke-linecap="butt" stroke-linejoin="round" stroke-miterlimit="10" stroke-opacity="1" fill="none"/></g></g></svg>