<svg width="3648" height="2003" xmlns="http://www.w3.org/2000/svg" xmlns:xlink="http://www.w3.org/1999/xlink" xml:space="preserve" overflow="hidden"><defs><clipPath id="clip0"><rect x="2305" y="155" width="3648" height="2003"/></clipPath><clipPath id="clip1"><rect x="2305" y="155" width="3648" height="2003"/></clipPath></defs><g clip-path="url(#clip0)" transform="translate(-2305 -155)"><g clip-path="url(#clip1)"><rect x="2309" y="161" width="3640" height="1992" fill="#FFFFFF" fill-opacity="1"/><g><path d="M2524.5 1665.55 5899.5 1665.55M2524.5 1403.55 5899.5 1403.55M2524.5 1140.54 5899.5 1140.54M2524.5 878.529 5899.5 878.529M2524.5 615.52 5899.5 615.52M2524.5 353.5 5899.5 353.5" stroke="#000000" stroke-width="3.37795" stroke-linecap="butt" stroke-linejoin="round" stroke-miterlimit="10" stroke-opacity="1" fill="none" fill-rule="nonzero"/></g><g><path d="M2637.59 1439.55 2787.59 1439.55 2787.59 1928.5 2637.59 1928.5ZM3386.61 1586.55 3536.62 1586.55 3536.62 1928.5 3386.61 1928.5ZM4136.64 1883.56 4286.64 1883.56 4286.64 1928.5 4136.64 1928.5ZM4511.65 1508.55 4661.65 1508.55 4661.65 1928.5 4511.65 1928.5ZM5261.67 865.529 5411.68 865.529 5411.68 1928.5 5261.67 1928.5ZM5636.69 1413.55 5786.69 1413.55 5786.69 1928.5 5636.69 1928.5Z" stroke="#1F497D" stroke-width="3.37795" stroke-linecap="butt" stroke-linejoin="round" stroke-miterlimit="10" stroke-opacity="1" fill="#1F497D" fill-rule="nonzero" fill-opacity="1"/></g><g><path d="M0 0 0.000360892 1575" stroke="#878787" stroke-width="3.37795" stroke-linecap="butt" stroke-linejoin="round" stroke-miterlimit="10" stroke-opacity="1" fill="none" fill-rule="evenodd" transform="matrix(1 0 0 -1 2524.5 1928.5)"/></g><g><path d="M2524.5 1928.5 5899.5 1928.5" stroke="#878787" stroke-width="3.37795" stroke-linecap="butt" stroke-linejoin="round" stroke-miterlimit="10" stroke-opacity="1" fill="none" fill-rule="evenodd"/></g><g><path d="M2712 1293.99 2728.04 1293.99C2730.26 1293.99 2732.05 1295.79 2732.05 1298 2732.05 1300.21 2730.26 1302.01 2728.04 1302.01L2712 1302.01C2709.78 1302.01 2707.99 1300.21 2707.99 1298 2707.99 1295.79 2709.78 1293.99 2712 1293.99ZM2744.08 1293.99 2760.12 1293.99C2762.34 1293.99 2764.14 1295.79 2764.14 1298 2764.14 1300.21 2762.34 1302.01 2760.12 1302.01L2744.08 1302.01C2741.87 1302.01 2740.07 1300.21 2740.07 1298 2740.07 1295.79 2741.87 1293.99 2744.08 1293.99ZM2776.17 1293.99 2792.21 1293.99C2794.42 1293.99 2796.22 1295.79 2796.22 1298 2796.22 1300.21 2794.42 1302.01 2792.21 1302.01L2776.17 1302.01C2773.95 1302.01 2772.16 1300.21 2772.16 1298 2772.16 1295.79 2773.95 1293.99 2776.17 1293.99ZM2808.25 1293.99 2824.29 1293.99C2826.51 1293.99 2828.3 1295.79 2828.3 1298 2828.3 1300.21 2826.51 1302.01 2824.29 1302.01L2808.25 1302.01C2806.03 1302.01 2804.24 1300.21 2804.24 1298 2804.24 1295.79 2806.03 1293.99 2808.25 1293.99ZM2840.33 1293.99 2856.37 1293.99C2858.59 1293.99 2860.39 1295.79 2860.39 1298 2860.39 1300.21 2858.59 1302.01 2856.37 1302.01L2840.33 1302.01C2838.12 1302.01 2836.32 1300.21 2836.32 1298 2836.32 1295.79 2838.12 1293.99 2840.33 1293.99ZM2872.42 1293.99 2888.46 1293.99C2890.67 1293.99 2892.47 1295.79 2892.47 1298 2892.47 1300.21 2890.67 1302.01 2888.46 1302.01L2872.42 1302.01C2870.2 1302.01 2868.41 1300.21 2868.41 1298 2868.41 1295.79 2870.2 1293.99 2872.42 1293.99ZM2904.5 1293.99 2920.54 1293.99C2922.76 1293.99 2924.55 1295.79 2924.55 1298 2924.55 1300.21 2922.76 1302.01 2920.54 1302.01L2904.5 1302.01C2902.28 1302.01 2900.49 1300.21 2900.49 1298 2900.49 1295.79 2902.28 1293.99 2904.5 1293.99ZM2936.58 1293.99 2952.62 1293.99C2954.84 1293.99 2956.64 1295.79 2956.64 1298 2956.64 1300.21 2954.84 1302.01 2952.62 1302.01L2936.58 1302.01C2934.37 1302.01 2932.57 1300.21 2932.57 1298 2932.57 1295.79 2934.37 1293.99 2936.58 1293.99ZM2968.67 1293.99 2984.71 1293.99C2986.92 1293.99 2988.72 1295.79 2988.72 1298 2988.72 1300.21 2986.92 1302.01 2984.71 1302.01L2968.67 1302.01C2966.45 1302.01 2964.66 1300.21 2964.66 1298 2964.66 1295.79 2966.45 1293.99 2968.67 1293.99ZM3000.75 1293.99 3016.79 1293.99C3019.01 1293.99 3020.8 1295.79 3020.8 1298 3020.8 1300.21 3019.01 1302.01 3016.79 1302.01L3000.75 1302.01C2998.53 1302.01 2996.74 1300.21 2996.74 1298 2996.74 1295.79 2998.53 1293.99 3000.75 1293.99ZM3032.83 1293.99 3048.87 1293.99C3051.09 1293.99 3052.89 1295.79 3052.89 1298 3052.89 1300.21 3051.09 1302.01 3048.87 1302.01L3032.83 1302.01C3030.62 1302.01 3028.82 1300.21 3028.82 1298 3028.82 1295.79 3030.62 1293.99 3032.83 1293.99ZM3064.92 1293.99 3080.96 1293.99C3083.17 1293.99 3084.97 1295.79 3084.97 1298 3084.97 1300.21 3083.17 1302.01 3080.96 1302.01L3064.92 1302.01C3062.7 1302.01 3060.91 1300.21 3060.91 1298 3060.91 1295.79 3062.7 1293.99 3064.92 1293.99ZM3097 1293.99 3113.04 1293.99C3115.26 1293.99 3117.05 1295.79 3117.05 1298 3117.05 1300.21 3115.26 1302.01 3113.04 1302.01L3097 1302.01C3094.78 1302.01 3092.99 1300.21 3092.99 1298 3092.99 1295.79 3094.78 1293.99 3097 1293.99ZM3129.08 1293.99 3145.12 1293.99C3147.34 1293.99 3149.14 1295.79 3149.14 1298 3149.14 1300.21 3147.34 1302.01 3145.12 1302.01L3129.08 1302.01C3126.87 1302.01 3125.07 1300.21 3125.07 1298 3125.07 1295.79 3126.87 1293.99 3129.08 1293.99ZM3161.17 1293.99 3177.21 1293.99C3179.42 1293.99 3181.22 1295.79 3181.22 1298 3181.22 1300.21 3179.42 1302.01 3177.21 1302.01L3161.17 1302.01C3158.95 1302.01 3157.16 1300.21 3157.16 1298 3157.16 1295.79 3158.95 1293.99 3161.17 1293.99ZM3193.25 1293.99 3209.29 1293.99C3211.51 1293.99 3213.3 1295.79 3213.3 1298 3213.3 1300.21 3211.51 1302.01 3209.29 1302.01L3193.25 1302.01C3191.03 1302.01 3189.24 1300.21 3189.24 1298 3189.24 1295.79 3191.03 1293.99 3193.25 1293.99ZM3225.33 1293.99 3241.37 1293.99C3243.59 1293.99 3245.39 1295.79 3245.39 1298 3245.39 1300.21 3243.59 1302.01 3241.37 1302.01L3225.33 1302.01C3223.12 1302.01 3221.32 1300.21 3221.32 1298 3221.32 1295.79 3223.12 1293.99 3225.33 1293.99ZM3257.42 1293.99 3273.46 1293.99C3275.67 1293.99 3277.47 1295.79 3277.47 1298 3277.47 1300.21 3275.67 1302.01 3273.46 1302.01L3257.42 1302.01C3255.2 1302.01 3253.41 1300.21 3253.41 1298 3253.41 1295.79 3255.2 1293.99 3257.42 1293.99ZM3289.5 1293.99 3305.54 1293.99C3307.76 1293.99 3309.55 1295.79 3309.55 1298 3309.55 1300.21 3307.76 1302.01 3305.54 1302.01L3289.5 1302.01C3287.28 1302.01 3285.49 1300.21 3285.49 1298 3285.49 1295.79 3287.28 1293.99 3289.5 1293.99ZM3321.58 1293.99 3337.62 1293.99C3339.84 1293.99 3341.64 1295.79 3341.64 1298 3341.64 1300.21 3339.84 1302.01 3337.62 1302.01L3321.58 1302.01C3319.37 1302.01 3317.57 1300.21 3317.57 1298 3317.57 1295.79 3319.37 1293.99 3321.58 1293.99ZM3353.67 1293.99 3369.71 1293.99C3371.92 1293.99 3373.72 1295.79 3373.72 1298 3373.72 1300.21 3371.92 1302.01 3369.71 1302.01L3353.67 1302.01C3351.45 1302.01 3349.66 1300.21 3349.66 1298 3349.66 1295.79 3351.45 1293.99 3353.67 1293.99ZM3385.75 1293.99 3401.79 1293.99C3404.01 1293.99 3405.8 1295.79 3405.8 1298 3405.8 1300.21 3404.01 1302.01 3401.79 1302.01L3385.75 1302.01C3383.53 1302.01 3381.74 1300.21 3381.74 1298 3381.74 1295.79 3383.53 1293.99 3385.75 1293.99ZM3417.83 1293.99 3433.87 1293.99C3436.09 1293.99 3437.89 1295.79 3437.89 1298 3437.89 1300.21 3436.09 1302.01 3433.87 1302.01L3417.83 1302.01C3415.62 1302.01 3413.82 1300.21 3413.82 1298 3413.82 1295.79 3415.62 1293.99 3417.83 1293.99ZM3449.92 1293.99 3462.11 1293.99 3465.96 1293.99C3468.17 1293.99 3469.97 1295.79 3469.97 1298 3469.97 1300.21 3468.17 1302.01 3465.96 1302.01L3462.11 1302.01 3449.92 1302.01C3447.7 1302.01 3445.91 1300.21 3445.91 1298 3445.91 1295.79 3447.7 1293.99 3449.92 1293.99ZM3482 1293.99 3498.04 1293.99C3500.26 1293.99 3502.05 1295.79 3502.05 1298 3502.05 1300.21 3500.26 1302.01 3498.04 1302.01L3482 1302.01C3479.78 1302.01 3477.99 1300.21 3477.99 1298 3477.99 1295.79 3479.78 1293.99 3482 1293.99ZM3514.08 1293.99 3530.12 1293.99C3532.34 1293.99 3534.14 1295.79 3534.14 1298 3534.14 1300.21 3532.34 1302.01 3530.12 1302.01L3514.08 1302.01C3511.87 1302.01 3510.07 1300.21 3510.07 1298 3510.07 1295.79 3511.87 1293.99 3514.08 1293.99ZM3546.17 1293.99 3562.21 1293.99C3564.42 1293.99 3566.22 1295.79 3566.22 1298 3566.22 1300.21 3564.42 1302.01 3562.21 1302.01L3546.17 1302.01C3543.95 1302.01 3542.16 1300.21 3542.16 1298 3542.16 1295.79 3543.95 1293.99 3546.17 1293.99ZM3578.25 1293.99 3594.29 1293.99C3596.51 1293.99 3598.3 1295.79 3598.3 1298 3598.3 1300.21 3596.51 1302.01 3594.29 1302.01L3578.25 1302.01C3576.03 1302.01 3574.24 1300.21 3574.24 1298 3574.24 1295.79 3576.03 1293.99 3578.25 1293.99ZM3610.33 1293.99 3626.37 1293.99C3628.59 1293.99 3630.39 1295.79 3630.39 1298 3630.39 1300.21 3628.59 1302.01 3626.37 1302.01L3610.33 1302.01C3608.12 1302.01 3606.32 1300.21 3606.32 1298 3606.32 1295.79 3608.12 1293.99 3610.33 1293.99ZM3642.42 1293.99 3658.46 1293.99C3660.67 1293.99 3662.47 1295.79 3662.47 1298 3662.47 1300.21 3660.67 1302.01 3658.46 1302.01L3642.42 1302.01C3640.2 1302.01 3638.41 1300.21 3638.41 1298 3638.41 1295.79 3640.2 1293.99 3642.42 1293.99ZM3674.5 1293.99 3690.54 1293.99C3692.76 1293.99 3694.55 1295.79 3694.55 1298 3694.55 1300.21 3692.76 1302.01 3690.54 1302.01L3674.5 1302.01C3672.28 1302.01 3670.49 1300.21 3670.49 1298 3670.49 1295.79 3672.28 1293.99 3674.5 1293.99ZM3706.58 1293.99 3722.62 1293.99C3724.84 1293.99 3726.64 1295.79 3726.64 1298 3726.64 1300.21 3724.84 1302.01 3722.62 1302.01L3706.58 1302.01C3704.37 1302.01 3702.57 1300.21 3702.57 1298 3702.57 1295.79 3704.37 1293.99 3706.58 1293.99ZM3738.67 1293.99 3754.71 1293.99C3756.92 1293.99 3758.72 1295.79 3758.72 1298 3758.72 1300.21 3756.92 1302.01 3754.71 1302.01L3738.67 1302.01C3736.45 1302.01 3734.66 1300.21 3734.66 1298 3734.66 1295.79 3736.45 1293.99 3738.67 1293.99ZM3770.75 1293.99 3786.79 1293.99C3789.01 1293.99 3790.8 1295.79 3790.8 1298 3790.8 1300.21 3789.01 1302.01 3786.79 1302.01L3770.75 1302.01C3768.53 1302.01 3766.74 1300.21 3766.74 1298 3766.74 1295.79 3768.53 1293.99 3770.75 1293.99ZM3802.83 1293.99 3818.87 1293.99C3821.09 1293.99 3822.89 1295.79 3822.89 1298 3822.89 1300.21 3821.09 1302.01 3818.87 1302.01L3802.83 1302.01C3800.62 1302.01 3798.82 1300.21 3798.82 1298 3798.82 1295.79 3800.62 1293.99 3802.83 1293.99ZM3834.92 1293.99 3837.13 1293.99 3850.96 1293.99C3853.17 1293.99 3854.97 1295.79 3854.97 1298 3854.97 1300.21 3853.17 1302.01 3850.96 1302.01L3837.13 1302.01 3834.92 1302.01C3832.7 1302.01 3830.91 1300.21 3830.91 1298 3830.91 1295.79 3832.7 1293.99 3834.92 1293.99ZM3867 1293.99 3883.04 1293.99C3885.26 1293.99 3887.05 1295.79 3887.05 1298 3887.05 1300.21 3885.26 1302.01 3883.04 1302.01L3867 1302.01C3864.78 1302.01 3862.99 1300.21 3862.99 1298 3862.99 1295.79 3864.78 1293.99 3867 1293.99ZM3899.08 1293.99 3915.12 1293.99C3917.34 1293.99 3919.14 1295.79 3919.14 1298 3919.14 1300.21 3917.34 1302.01 3915.12 1302.01L3899.08 1302.01C3896.87 1302.01 3895.07 1300.21 3895.07 1298 3895.07 1295.79 3896.87 1293.99 3899.08 1293.99ZM3931.17 1293.99 3947.21 1293.99C3949.42 1293.99 3951.22 1295.79 3951.22 1298 3951.22 1300.21 3949.42 1302.01 3947.21 1302.01L3931.17 1302.01C3928.95 1302.01 3927.16 1300.21 3927.16 1298 3927.16 1295.79 3928.95 1293.99 3931.17 1293.99ZM3963.25 1293.99 3979.29 1293.99C3981.51 1293.99 3983.3 1295.79 3983.3 1298 3983.3 1300.21 3981.51 1302.01 3979.29 1302.01L3963.25 1302.01C3961.03 1302.01 3959.24 1300.21 3959.24 1298 3959.24 1295.79 3961.03 1293.99 3963.25 1293.99ZM3995.33 1293.99 4011.37 1293.99C4013.59 1293.99 4015.39 1295.79 4015.39 1298 4015.39 1300.21 4013.59 1302.01 4011.37 1302.01L3995.33 1302.01C3993.12 1302.01 3991.32 1300.21 3991.32 1298 3991.32 1295.79 3993.12 1293.99 3995.33 1293.99ZM4027.42 1293.99 4043.46 1293.99C4045.67 1293.99 4047.47 1295.79 4047.47 1298 4047.47 1300.21 4045.67 1302.01 4043.46 1302.01L4027.42 1302.01C4025.2 1302.01 4023.41 1300.21 4023.41 1298 4023.41 1295.79 4025.2 1293.99 4027.42 1293.99ZM4059.5 1293.99 4075.54 1293.99C4077.76 1293.99 4079.55 1295.79 4079.55 1298 4079.55 1300.21 4077.76 1302.01 4075.54 1302.01L4059.5 1302.01C4057.28 1302.01 4055.49 1300.21 4055.49 1298 4055.49 1295.79 4057.28 1293.99 4059.5 1293.99ZM4091.58 1293.99 4107.62 1293.99C4109.84 1293.99 4111.64 1295.79 4111.64 1298 4111.64 1300.21 4109.84 1302.01 4107.62 1302.01L4091.58 1302.01C4089.37 1302.01 4087.57 1300.21 4087.57 1298 4087.57 1295.79 4089.37 1293.99 4091.58 1293.99ZM4123.67 1293.99 4139.71 1293.99C4141.92 1293.99 4143.72 1295.79 4143.72 1298 4143.72 1300.21 4141.92 1302.01 4139.71 1302.01L4123.67 1302.01C4121.45 1302.01 4119.66 1300.21 4119.66 1298 4119.66 1295.79 4121.45 1293.99 4123.67 1293.99ZM4155.75 1293.99 4171.79 1293.99C4174.01 1293.99 4175.8 1295.79 4175.8 1298 4175.8 1300.21 4174.01 1302.01 4171.79 1302.01L4155.75 1302.01C4153.53 1302.01 4151.74 1300.21 4151.74 1298 4151.74 1295.79 4153.53 1293.99 4155.75 1293.99ZM4187.83 1293.99 4203.87 1293.99C4206.09 1293.99 4207.89 1295.79 4207.89 1298 4207.89 1300.21 4206.09 1302.01 4203.87 1302.01L4187.83 1302.01C4185.62 1302.01 4183.82 1300.21 4183.82 1298 4183.82 1295.79 4185.62 1293.99 4187.83 1293.99ZM4219.92 1293.99 4235.96 1293.99C4238.17 1293.99 4239.97 1295.79 4239.97 1298 4239.97 1300.21 4238.17 1302.01 4235.96 1302.01L4219.92 1302.01C4217.7 1302.01 4215.91 1300.21 4215.91 1298 4215.91 1295.79 4217.7 1293.99 4219.92 1293.99ZM4252 1293.99 4268.04 1293.99C4270.26 1293.99 4272.05 1295.79 4272.05 1298 4272.05 1300.21 4270.26 1302.01 4268.04 1302.01L4252 1302.01C4249.78 1302.01 4247.99 1300.21 4247.99 1298 4247.99 1295.79 4249.78 1293.99 4252 1293.99ZM4284.08 1293.99 4300.12 1293.99C4302.34 1293.99 4304.14 1295.79 4304.14 1298 4304.14 1300.21 4302.34 1302.01 4300.12 1302.01L4284.08 1302.01C4281.87 1302.01 4280.07 1300.21 4280.07 1298 4280.07 1295.79 4281.87 1293.99 4284.08 1293.99ZM4316.17 1293.99 4332.21 1293.99C4334.42 1293.99 4336.22 1295.79 4336.22 1298 4336.22 1300.21 4334.42 1302.01 4332.21 1302.01L4316.17 1302.01C4313.95 1302.01 4312.16 1300.21 4312.16 1298 4312.16 1295.79 4313.95 1293.99 4316.17 1293.99ZM4348.25 1293.99 4364.29 1293.99C4366.51 1293.99 4368.3 1295.79 4368.3 1298 4368.3 1300.21 4366.51 1302.01 4364.29 1302.01L4348.25 1302.01C4346.03 1302.01 4344.24 1300.21 4344.24 1298 4344.24 1295.79 4346.03 1293.99 4348.25 1293.99ZM4380.33 1293.99 4396.37 1293.99C4398.59 1293.99 4400.39 1295.79 4400.39 1298 4400.39 1300.21 4398.59 1302.01 4396.37 1302.01L4380.33 1302.01C4378.12 1302.01 4376.32 1300.21 4376.32 1298 4376.32 1295.79 4378.12 1293.99 4380.33 1293.99ZM4412.42 1293.99 4428.46 1293.99C4430.67 1293.99 4432.47 1295.79 4432.47 1298 4432.47 1300.21 4430.67 1302.01 4428.46 1302.01L4412.42 1302.01C4410.2 1302.01 4408.41 1300.21 4408.41 1298 4408.41 1295.79 4410.2 1293.99 4412.42 1293.99ZM4444.5 1293.99 4460.54 1293.99C4462.76 1293.99 4464.55 1295.79 4464.55 1298 4464.55 1300.21 4462.76 1302.01 4460.54 1302.01L4444.5 1302.01C4442.28 1302.01 4440.49 1300.21 4440.49 1298 4440.49 1295.79 4442.28 1293.99 4444.5 1293.99ZM4476.58 1293.99 4492.62 1293.99C4494.84 1293.99 4496.64 1295.79 4496.64 1298 4496.64 1300.21 4494.84 1302.01 4492.62 1302.01L4476.58 1302.01C4474.37 1302.01 4472.57 1300.21 4472.57 1298 4472.57 1295.79 4474.37 1293.99 4476.58 1293.99ZM4508.67 1293.99 4524.71 1293.99C4526.92 1293.99 4528.72 1295.79 4528.72 1298 4528.72 1300.21 4526.92 1302.01 4524.71 1302.01L4508.67 1302.01C4506.45 1302.01 4504.66 1300.21 4504.66 1298 4504.66 1295.79 4506.45 1293.99 4508.67 1293.99ZM4540.75 1293.99 4556.79 1293.99C4559.01 1293.99 4560.8 1295.79 4560.8 1298 4560.8 1300.21 4559.01 1302.01 4556.79 1302.01L4540.75 1302.01C4538.53 1302.01 4536.74 1300.21 4536.74 1298 4536.74 1295.79 4538.53 1293.99 4540.75 1293.99ZM4572.83 1293.99 4587.15 1293.99 4588.87 1293.99C4591.09 1293.99 4592.89 1295.79 4592.89 1298 4592.89 1300.21 4591.09 1302.01 4588.87 1302.01L4587.15 1302.01 4572.83 1302.01C4570.62 1302.01 4568.82 1300.21 4568.82 1298 4568.82 1295.79 4570.62 1293.99 4572.83 1293.99ZM4604.92 1293.99 4620.96 1293.99C4623.17 1293.99 4624.97 1295.79 4624.97 1298 4624.97 1300.21 4623.17 1302.01 4620.96 1302.01L4604.92 1302.01C4602.7 1302.01 4600.91 1300.21 4600.91 1298 4600.91 1295.79 4602.7 1293.99 4604.92 1293.99ZM4637 1293.99 4653.04 1293.99C4655.26 1293.99 4657.05 1295.79 4657.05 1298 4657.05 1300.21 4655.26 1302.01 4653.04 1302.01L4637 1302.01C4634.78 1302.01 4632.99 1300.21 4632.99 1298 4632.99 1295.79 4634.78 1293.99 4637 1293.99ZM4669.08 1293.99 4685.12 1293.99C4687.34 1293.99 4689.14 1295.79 4689.14 1298 4689.14 1300.21 4687.34 1302.01 4685.12 1302.01L4669.08 1302.01C4666.87 1302.01 4665.07 1300.21 4665.07 1298 4665.07 1295.79 4666.87 1293.99 4669.08 1293.99ZM4701.17 1293.99 4717.21 1293.99C4719.42 1293.99 4721.22 1295.79 4721.22 1298 4721.22 1300.21 4719.42 1302.01 4717.21 1302.01L4701.17 1302.01C4698.95 1302.01 4697.16 1300.21 4697.16 1298 4697.16 1295.79 4698.95 1293.99 4701.17 1293.99ZM4733.25 1293.99 4749.29 1293.99C4751.51 1293.99 4753.3 1295.79 4753.3 1298 4753.3 1300.21 4751.51 1302.01 4749.29 1302.01L4733.25 1302.01C4731.03 1302.01 4729.24 1300.21 4729.24 1298 4729.24 1295.79 4731.03 1293.99 4733.25 1293.99ZM4765.33 1293.99 4781.37 1293.99C4783.59 1293.99 4785.39 1295.79 4785.39 1298 4785.39 1300.21 4783.59 1302.01 4781.37 1302.01L4765.33 1302.01C4763.12 1302.01 4761.32 1300.21 4761.32 1298 4761.32 1295.79 4763.12 1293.99 4765.33 1293.99ZM4797.42 1293.99 4813.46 1293.99C4815.67 1293.99 4817.47 1295.79 4817.47 1298 4817.47 1300.21 4815.67 1302.01 4813.46 1302.01L4797.42 1302.01C4795.2 1302.01 4793.41 1300.21 4793.41 1298 4793.41 1295.79 4795.2 1293.99 4797.42 1293.99ZM4829.5 1293.99 4845.54 1293.99C4847.76 1293.99 4849.55 1295.79 4849.55 1298 4849.55 1300.21 4847.76 1302.01 4845.54 1302.01L4829.5 1302.01C4827.28 1302.01 4825.49 1300.21 4825.49 1298 4825.49 1295.79 4827.28 1293.99 4829.5 1293.99ZM4861.58 1293.99 4877.62 1293.99C4879.84 1293.99 4881.64 1295.79 4881.64 1298 4881.64 1300.21 4879.84 1302.01 4877.62 1302.01L4861.58 1302.01C4859.37 1302.01 4857.57 1300.21 4857.57 1298 4857.57 1295.79 4859.37 1293.99 4861.58 1293.99ZM4893.67 1293.99 4909.71 1293.99C4911.92 1293.99 4913.72 1295.79 4913.72 1298 4913.72 1300.21 4911.92 1302.01 4909.71 1302.01L4893.67 1302.01C4891.45 1302.01 4889.66 1300.21 4889.66 1298 4889.66 1295.79 4891.45 1293.99 4893.67 1293.99ZM4925.75 1293.99 4941.79 1293.99C4944.01 1293.99 4945.8 1295.79 4945.8 1298 4945.8 1300.21 4944.01 1302.01 4941.79 1302.01L4925.75 1302.01C4923.53 1302.01 4921.74 1300.21 4921.74 1298 4921.74 1295.79 4923.53 1293.99 4925.75 1293.99ZM4957.83 1293.99 4962.16 1293.99 4973.87 1293.99C4976.09 1293.99 4977.89 1295.79 4977.89 1298 4977.89 1300.21 4976.09 1302.01 4973.87 1302.01L4962.16 1302.01 4957.83 1302.01C4955.62 1302.01 4953.82 1300.21 4953.82 1298 4953.82 1295.79 4955.62 1293.99 4957.83 1293.99ZM4989.92 1293.99 5005.96 1293.99C5008.17 1293.99 5009.97 1295.79 5009.97 1298 5009.97 1300.21 5008.17 1302.01 5005.96 1302.01L4989.92 1302.01C4987.7 1302.01 4985.91 1300.21 4985.91 1298 4985.91 1295.79 4987.7 1293.99 4989.92 1293.99ZM5022 1293.99 5038.04 1293.99C5040.26 1293.99 5042.05 1295.79 5042.05 1298 5042.05 1300.21 5040.26 1302.01 5038.04 1302.01L5022 1302.01C5019.78 1302.01 5017.99 1300.21 5017.99 1298 5017.99 1295.79 5019.78 1293.99 5022 1293.99ZM5054.08 1293.99 5070.12 1293.99C5072.34 1293.99 5074.14 1295.79 5074.14 1298 5074.14 1300.21 5072.34 1302.01 5070.12 1302.01L5054.08 1302.01C5051.87 1302.01 5050.07 1300.21 5050.07 1298 5050.07 1295.79 5051.87 1293.99 5054.08 1293.99ZM5086.17 1293.99 5102.21 1293.99C5104.42 1293.99 5106.22 1295.79 5106.22 1298 5106.22 1300.21 5104.42 1302.01 5102.21 1302.01L5086.17 1302.01C5083.95 1302.01 5082.16 1300.21 5082.16 1298 5082.16 1295.79 5083.95 1293.99 5086.17 1293.99ZM5118.25 1293.99 5134.29 1293.99C5136.51 1293.99 5138.3 1295.79 5138.3 1298 5138.3 1300.21 5136.51 1302.01 5134.29 1302.01L5118.25 1302.01C5116.03 1302.01 5114.24 1300.21 5114.24 1298 5114.24 1295.79 5116.03 1293.99 5118.25 1293.99ZM5150.33 1293.99 5166.37 1293.99C5168.59 1293.99 5170.39 1295.79 5170.39 1298 5170.39 1300.21 5168.59 1302.01 5166.37 1302.01L5150.33 1302.01C5148.12 1302.01 5146.32 1300.21 5146.32 1298 5146.32 1295.79 5148.12 1293.99 5150.33 1293.99ZM5182.42 1293.99 5198.46 1293.99C5200.67 1293.99 5202.47 1295.79 5202.47 1298 5202.47 1300.21 5200.67 1302.01 5198.46 1302.01L5182.42 1302.01C5180.2 1302.01 5178.41 1300.21 5178.41 1298 5178.41 1295.79 5180.2 1293.99 5182.42 1293.99ZM5214.5 1293.99 5230.54 1293.99C5232.76 1293.99 5234.55 1295.79 5234.55 1298 5234.55 1300.21 5232.76 1302.01 5230.54 1302.01L5214.5 1302.01C5212.28 1302.01 5210.49 1300.21 5210.49 1298 5210.49 1295.79 5212.28 1293.99 5214.5 1293.99ZM5246.58 1293.99 5262.62 1293.99C5264.84 1293.99 5266.64 1295.79 5266.64 1298 5266.64 1300.21 5264.84 1302.01 5262.62 1302.01L5246.58 1302.01C5244.37 1302.01 5242.57 1300.21 5242.57 1298 5242.57 1295.79 5244.37 1293.99 5246.58 1293.99ZM5278.67 1293.99 5294.71 1293.99C5296.92 1293.99 5298.72 1295.79 5298.72 1298 5298.72 1300.21 5296.92 1302.01 5294.71 1302.01L5278.67 1302.01C5276.45 1302.01 5274.66 1300.21 5274.66 1298 5274.66 1295.79 5276.45 1293.99 5278.67 1293.99ZM5310.75 1293.99 5326.79 1293.99C5329.01 1293.99 5330.8 1295.79 5330.8 1298 5330.8 1300.21 5329.01 1302.01 5326.79 1302.01L5310.75 1302.01C5308.53 1302.01 5306.74 1300.21 5306.74 1298 5306.74 1295.79 5308.53 1293.99 5310.75 1293.99ZM5342.83 1293.99 5358.87 1293.99C5361.09 1293.99 5362.89 1295.79 5362.89 1298 5362.89 1300.21 5361.09 1302.01 5358.87 1302.01L5342.83 1302.01C5340.62 1302.01 5338.82 1300.21 5338.82 1298 5338.82 1295.79 5340.62 1293.99 5342.83 1293.99ZM5374.92 1293.99 5390.96 1293.99C5393.17 1293.99 5394.97 1295.79 5394.97 1298 5394.97 1300.21 5393.17 1302.01 5390.96 1302.01L5374.92 1302.01C5372.7 1302.01 5370.91 1300.21 5370.91 1298 5370.91 1295.79 5372.7 1293.99 5374.92 1293.99ZM5407 1293.99 5423.04 1293.99C5425.26 1293.99 5427.05 1295.79 5427.05 1298 5427.05 1300.21 5425.26 1302.01 5423.04 1302.01L5407 1302.01C5404.78 1302.01 5402.99 1300.21 5402.99 1298 5402.99 1295.79 5404.78 1293.99 5407 1293.99ZM5439.08 1293.99 5455.12 1293.99C5457.34 1293.99 5459.14 1295.79 5459.14 1298 5459.14 1300.21 5457.34 1302.01 5455.12 1302.01L5439.08 1302.01C5436.87 1302.01 5435.07 1300.21 5435.07 1298 5435.07 1295.79 5436.87 1293.99 5439.08 1293.99ZM5471.17 1293.99 5487.21 1293.99C5489.42 1293.99 5491.22 1295.79 5491.22 1298 5491.22 1300.21 5489.42 1302.01 5487.21 1302.01L5471.17 1302.01C5468.95 1302.01 5467.16 1300.21 5467.16 1298 5467.16 1295.79 5468.95 1293.99 5471.17 1293.99ZM5503.25 1293.99 5519.29 1293.99C5521.51 1293.99 5523.3 1295.79 5523.3 1298 5523.3 1300.21 5521.51 1302.01 5519.29 1302.01L5503.25 1302.01C5501.03 1302.01 5499.24 1300.21 5499.24 1298 5499.24 1295.79 5501.03 1293.99 5503.25 1293.99ZM5535.33 1293.99 5551.37 1293.99C5553.59 1293.99 5555.39 1295.79 5555.39 1298 5555.39 1300.21 5553.59 1302.01 5551.37 1302.01L5535.33 1302.01C5533.12 1302.01 5531.32 1300.21 5531.32 1298 5531.32 1295.79 5533.12 1293.99 5535.33 1293.99ZM5567.42 1293.99 5583.46 1293.99C5585.67 1293.99 5587.47 1295.79 5587.47 1298 5587.47 1300.21 5585.67 1302.01 5583.46 1302.01L5567.42 1302.01C5565.2 1302.01 5563.41 1300.21 5563.41 1298 5563.41 1295.79 5565.2 1293.99 5567.42 1293.99ZM5599.5 1293.99 5615.54 1293.99C5617.76 1293.99 5619.55 1295.79 5619.55 1298 5619.55 1300.21 5617.76 1302.01 5615.54 1302.01L5599.5 1302.01C5597.28 1302.01 5595.49 1300.21 5595.49 1298 5595.49 1295.79 5597.28 1293.99 5599.5 1293.99ZM5631.58 1293.99 5647.62 1293.99C5649.84 1293.99 5651.64 1295.79 5651.64 1298 5651.64 1300.21 5649.84 1302.01 5647.62 1302.01L5631.58 1302.01C5629.37 1302.01 5627.57 1300.21 5627.57 1298 5627.57 1295.79 5629.37 1293.99 5631.58 1293.99ZM5663.67 1293.99 5679.71 1293.99C5681.92 1293.99 5683.72 1295.79 5683.72 1298 5683.72 1300.21 5681.92 1302.01 5679.71 1302.01L5663.67 1302.01C5661.45 1302.01 5659.66 1300.21 5659.66 1298 5659.66 1295.79 5661.45 1293.99 5663.67 1293.99ZM5695.75 1293.99 5711.79 1293.99C5714.01 1293.99 5715.8 1295.79 5715.8 1298 5715.8 1300.21 5714.01 1302.01 5711.79 1302.01L5695.75 1302.01C5693.53 1302.01 5691.74 1300.21 5691.74 1298 5691.74 1295.79 5693.53 1293.99 5695.75 1293.99Z" fill="#00B050" fill-rule="nonzero" fill-opacity="1"/></g><g><path d="M2712 664.752 2731.49 664.752C2733.28 664.752 2734.74 666.206 2734.74 668 2734.74 669.794 2733.28 671.248 2731.49 671.248L2712 671.248C2710.21 671.248 2708.75 669.794 2708.75 668 2708.75 666.206 2710.21 664.752 2712 664.752ZM2757.47 664.752 2776.96 664.752C2778.75 664.752 2780.21 666.206 2780.21 668 2780.21 669.794 2778.75 671.248 2776.96 671.248L2757.47 671.248C2755.68 671.248 2754.22 669.794 2754.22 668 2754.22 666.206 2755.68 664.752 2757.47 664.752ZM2802.94 664.752 2822.43 664.752C2824.23 664.752 2825.68 666.206 2825.68 668 2825.68 669.794 2824.23 671.248 2822.43 671.248L2802.94 671.248C2801.15 671.248 2799.7 669.794 2799.7 668 2799.7 666.206 2801.15 664.752 2802.94 664.752ZM2848.42 664.752 2867.91 664.752C2869.7 664.752 2871.15 666.206 2871.15 668 2871.15 669.794 2869.7 671.248 2867.91 671.248L2848.42 671.248C2846.62 671.248 2845.17 669.794 2845.17 668 2845.17 666.206 2846.62 664.752 2848.42 664.752ZM2893.89 664.752 2913.38 664.752C2915.17 664.752 2916.63 666.206 2916.63 668 2916.63 669.794 2915.17 671.248 2913.38 671.248L2893.89 671.248C2892.1 671.248 2890.64 669.794 2890.64 668 2890.64 666.206 2892.1 664.752 2893.89 664.752ZM2939.36 664.752 2958.85 664.752C2960.64 664.752 2962.1 666.206 2962.1 668 2962.1 669.794 2960.64 671.248 2958.85 671.248L2939.36 671.248C2937.57 671.248 2936.11 669.794 2936.11 668 2936.11 666.206 2937.57 664.752 2939.36 664.752ZM2984.83 664.752 3004.32 664.752C3006.12 664.752 3007.57 666.206 3007.57 668 3007.57 669.794 3006.12 671.248 3004.32 671.248L2984.83 671.248C2983.04 671.248 2981.59 669.794 2981.59 668 2981.59 666.206 2983.04 664.752 2984.83 664.752ZM3030.31 664.752 3049.79 664.752C3051.59 664.752 3053.04 666.206 3053.04 668 3053.04 669.794 3051.59 671.248 3049.79 671.248L3030.31 671.248C3028.51 671.248 3027.06 669.794 3027.06 668 3027.06 666.206 3028.51 664.752 3030.31 664.752ZM3075.78 664.752 3087 664.752 3095.27 664.752C3097.06 664.752 3098.52 666.206 3098.52 668 3098.52 669.794 3097.06 671.248 3095.27 671.248L3087 671.248 3075.78 671.248C3073.99 671.248 3072.53 669.794 3072.53 668 3072.53 666.206 3073.99 664.752 3075.78 664.752ZM3121.25 664.752 3140.74 664.752C3142.53 664.752 3143.99 666.206 3143.99 668 3143.99 669.794 3142.53 671.248 3140.74 671.248L3121.25 671.248C3119.46 671.248 3118 669.794 3118 668 3118 666.206 3119.46 664.752 3121.25 664.752ZM3166.72 664.752 3186.21 664.752C3188.01 664.752 3189.46 666.206 3189.46 668 3189.46 669.794 3188.01 671.248 3186.21 671.248L3166.72 671.248C3164.93 671.248 3163.48 669.794 3163.48 668 3163.48 666.206 3164.93 664.752 3166.72 664.752ZM3212.2 664.752 3231.68 664.752C3233.48 664.752 3234.93 666.206 3234.93 668 3234.93 669.794 3233.48 671.248 3231.68 671.248L3212.2 671.248C3210.4 671.248 3208.95 669.794 3208.95 668 3208.95 666.206 3210.4 664.752 3212.2 664.752ZM3257.67 664.752 3277.16 664.752C3278.95 664.752 3280.41 666.206 3280.41 668 3280.41 669.794 3278.95 671.248 3277.16 671.248L3257.67 671.248C3255.88 671.248 3254.42 669.794 3254.42 668 3254.42 666.206 3255.88 664.752 3257.67 664.752ZM3303.14 664.752 3322.63 664.752C3324.42 664.752 3325.88 666.206 3325.88 668 3325.88 669.794 3324.42 671.248 3322.63 671.248L3303.14 671.248C3301.35 671.248 3299.89 669.794 3299.89 668 3299.89 666.206 3301.35 664.752 3303.14 664.752ZM3348.61 664.752 3368.1 664.752C3369.9 664.752 3371.35 666.206 3371.35 668 3371.35 669.794 3369.9 671.248 3368.1 671.248L3348.61 671.248C3346.82 671.248 3345.37 669.794 3345.37 668 3345.37 666.206 3346.82 664.752 3348.61 664.752ZM3394.09 664.752 3413.57 664.752C3415.37 664.752 3416.82 666.206 3416.82 668 3416.82 669.794 3415.37 671.248 3413.57 671.248L3394.09 671.248C3392.29 671.248 3390.84 669.794 3390.84 668 3390.84 666.206 3392.29 664.752 3394.09 664.752ZM3439.56 664.752 3459.05 664.752C3460.84 664.752 3462.29 666.206 3462.29 668 3462.29 669.794 3460.84 671.248 3459.05 671.248L3439.56 671.248C3437.76 671.248 3436.31 669.794 3436.31 668 3436.31 666.206 3437.76 664.752 3439.56 664.752ZM3485.03 664.752 3504.52 664.752C3506.31 664.752 3507.77 666.206 3507.77 668 3507.77 669.794 3506.31 671.248 3504.52 671.248L3485.03 671.248C3483.24 671.248 3481.78 669.794 3481.78 668 3481.78 666.206 3483.24 664.752 3485.03 664.752ZM3530.5 664.752 3549.99 664.752C3551.79 664.752 3553.24 666.206 3553.24 668 3553.24 669.794 3551.79 671.248 3549.99 671.248L3530.5 671.248C3528.71 671.248 3527.26 669.794 3527.26 668 3527.26 666.206 3528.71 664.752 3530.5 664.752ZM3575.98 664.752 3595.46 664.752C3597.26 664.752 3598.71 666.206 3598.71 668 3598.71 669.794 3597.26 671.248 3595.46 671.248L3575.98 671.248C3574.18 671.248 3572.73 669.794 3572.73 668 3572.73 666.206 3574.18 664.752 3575.98 664.752ZM3621.45 664.752 3640.94 664.752C3642.73 664.752 3644.18 666.206 3644.18 668 3644.18 669.794 3642.73 671.248 3640.94 671.248L3621.45 671.248C3619.65 671.248 3618.2 669.794 3618.2 668 3618.2 666.206 3619.65 664.752 3621.45 664.752ZM3666.92 664.752 3686.41 664.752C3688.2 664.752 3689.66 666.206 3689.66 668 3689.66 669.794 3688.2 671.248 3686.41 671.248L3666.92 671.248C3665.13 671.248 3663.67 669.794 3663.67 668 3663.67 666.206 3665.13 664.752 3666.92 664.752ZM3712.39 664.752 3731.88 664.752C3733.68 664.752 3735.13 666.206 3735.13 668 3735.13 669.794 3733.68 671.248 3731.88 671.248L3712.39 671.248C3710.6 671.248 3709.15 669.794 3709.15 668 3709.15 666.206 3710.6 664.752 3712.39 664.752ZM3757.87 664.752 3777.35 664.752C3779.15 664.752 3780.6 666.206 3780.6 668 3780.6 669.794 3779.15 671.248 3777.35 671.248L3757.87 671.248C3756.07 671.248 3754.62 669.794 3754.62 668 3754.62 666.206 3756.07 664.752 3757.87 664.752ZM3803.34 664.752 3822.83 664.752C3824.62 664.752 3826.07 666.206 3826.07 668 3826.07 669.794 3824.62 671.248 3822.83 671.248L3803.34 671.248C3801.54 671.248 3800.09 669.794 3800.09 668 3800.09 666.206 3801.54 664.752 3803.34 664.752ZM3848.81 664.752 3868.3 664.752C3870.09 664.752 3871.55 666.206 3871.55 668 3871.55 669.794 3870.09 671.248 3868.3 671.248L3848.81 671.248C3847.02 671.248 3845.56 669.794 3845.56 668 3845.56 666.206 3847.02 664.752 3848.81 664.752ZM3894.28 664.752 3913.77 664.752C3915.57 664.752 3917.02 666.206 3917.02 668 3917.02 669.794 3915.57 671.248 3913.77 671.248L3894.28 671.248C3892.49 671.248 3891.04 669.794 3891.04 668 3891.04 666.206 3892.49 664.752 3894.28 664.752ZM3939.76 664.752 3959.24 664.752C3961.04 664.752 3962.49 666.206 3962.49 668 3962.49 669.794 3961.04 671.248 3959.24 671.248L3939.76 671.248C3937.96 671.248 3936.51 669.794 3936.51 668 3936.51 666.206 3937.96 664.752 3939.76 664.752ZM3985.23 664.752 4004.72 664.752C4006.51 664.752 4007.96 666.206 4007.96 668 4007.96 669.794 4006.51 671.248 4004.72 671.248L3985.23 671.248C3983.43 671.248 3981.98 669.794 3981.98 668 3981.98 666.206 3983.43 664.752 3985.23 664.752ZM4030.7 664.752 4050.19 664.752C4051.98 664.752 4053.44 666.206 4053.44 668 4053.44 669.794 4051.98 671.248 4050.19 671.248L4030.7 671.248C4028.91 671.248 4027.45 669.794 4027.45 668 4027.45 666.206 4028.91 664.752 4030.7 664.752ZM4076.17 664.752 4095.66 664.752C4097.46 664.752 4098.91 666.206 4098.91 668 4098.91 669.794 4097.46 671.248 4095.66 671.248L4076.17 671.248C4074.38 671.248 4072.93 669.794 4072.93 668 4072.93 666.206 4074.38 664.752 4076.17 664.752ZM4121.65 664.752 4141.13 664.752C4142.93 664.752 4144.38 666.206 4144.38 668 4144.38 669.794 4142.93 671.248 4141.13 671.248L4121.65 671.248C4119.85 671.248 4118.4 669.794 4118.4 668 4118.4 666.206 4119.85 664.752 4121.65 664.752ZM4167.12 664.752 4186.61 664.752C4188.4 664.752 4189.85 666.206 4189.85 668 4189.85 669.794 4188.4 671.248 4186.61 671.248L4167.12 671.248C4165.32 671.248 4163.87 669.794 4163.87 668 4163.87 666.206 4165.32 664.752 4167.12 664.752ZM4212.59 664.752 4232.08 664.752C4233.87 664.752 4235.33 666.206 4235.33 668 4235.33 669.794 4233.87 671.248 4232.08 671.248L4212.59 671.248C4210.8 671.248 4209.34 669.794 4209.34 668 4209.34 666.206 4210.8 664.752 4212.59 664.752ZM4258.06 664.752 4277.55 664.752C4279.34 664.752 4280.8 666.206 4280.8 668 4280.8 669.794 4279.34 671.248 4277.55 671.248L4258.06 671.248C4256.27 671.248 4254.81 669.794 4254.81 668 4254.81 666.206 4256.27 664.752 4258.06 664.752ZM4303.54 664.752 4323.02 664.752C4324.82 664.752 4326.27 666.206 4326.27 668 4326.27 669.794 4324.82 671.248 4323.02 671.248L4303.54 671.248C4301.74 671.248 4300.29 669.794 4300.29 668 4300.29 666.206 4301.74 664.752 4303.54 664.752ZM4349.01 664.752 4368.5 664.752C4370.29 664.752 4371.74 666.206 4371.74 668 4371.74 669.794 4370.29 671.248 4368.5 671.248L4349.01 671.248C4347.21 671.248 4345.76 669.794 4345.76 668 4345.76 666.206 4347.21 664.752 4349.01 664.752ZM4394.48 664.752 4413.97 664.752C4415.76 664.752 4417.22 666.206 4417.22 668 4417.22 669.794 4415.76 671.248 4413.97 671.248L4394.48 671.248C4392.69 671.248 4391.23 669.794 4391.23 668 4391.23 666.206 4392.69 664.752 4394.48 664.752ZM4439.95 664.752 4459.44 664.752C4461.23 664.752 4462.69 666.206 4462.69 668 4462.69 669.794 4461.23 671.248 4459.44 671.248L4439.95 671.248C4438.16 671.248 4436.7 669.794 4436.7 668 4436.7 666.206 4438.16 664.752 4439.95 664.752ZM4485.42 664.752 4504.91 664.752C4506.71 664.752 4508.16 666.206 4508.16 668 4508.16 669.794 4506.71 671.248 4504.91 671.248L4485.42 671.248C4483.63 671.248 4482.18 669.794 4482.18 668 4482.18 666.206 4483.63 664.752 4485.42 664.752ZM4530.9 664.752 4550.39 664.752C4552.18 664.752 4553.63 666.206 4553.63 668 4553.63 669.794 4552.18 671.248 4550.39 671.248L4530.9 671.248C4529.1 671.248 4527.65 669.794 4527.65 668 4527.65 666.206 4529.1 664.752 4530.9 664.752ZM4576.37 664.752 4587 664.752 4595.86 664.752C4597.65 664.752 4599.11 666.206 4599.11 668 4599.11 669.794 4597.65 671.248 4595.86 671.248L4587 671.248 4576.37 671.248C4574.58 671.248 4573.12 669.794 4573.12 668 4573.12 666.206 4574.58 664.752 4576.37 664.752ZM4621.84 664.752 4641.33 664.752C4643.12 664.752 4644.58 666.206 4644.58 668 4644.58 669.794 4643.12 671.248 4641.33 671.248L4621.84 671.248C4620.05 671.248 4618.59 669.794 4618.59 668 4618.59 666.206 4620.05 664.752 4621.84 664.752ZM4667.31 664.752 4686.8 664.752C4688.6 664.752 4690.05 666.206 4690.05 668 4690.05 669.794 4688.6 671.248 4686.8 671.248L4667.31 671.248C4665.52 671.248 4664.07 669.794 4664.07 668 4664.07 666.206 4665.52 664.752 4667.31 664.752ZM4712.79 664.752 4732.28 664.752C4734.07 664.752 4735.52 666.206 4735.52 668 4735.52 669.794 4734.07 671.248 4732.28 671.248L4712.79 671.248C4710.99 671.248 4709.54 669.794 4709.54 668 4709.54 666.206 4710.99 664.752 4712.79 664.752ZM4758.26 664.752 4777.75 664.752C4779.54 664.752 4781 666.206 4781 668 4781 669.794 4779.54 671.248 4777.75 671.248L4758.26 671.248C4756.47 671.248 4755.01 669.794 4755.01 668 4755.01 666.206 4756.47 664.752 4758.26 664.752ZM4803.73 664.752 4823.22 664.752C4825.01 664.752 4826.47 666.206 4826.47 668 4826.47 669.794 4825.01 671.248 4823.22 671.248L4803.73 671.248C4801.94 671.248 4800.48 669.794 4800.48 668 4800.48 666.206 4801.94 664.752 4803.73 664.752ZM4849.2 664.752 4868.69 664.752C4870.49 664.752 4871.94 666.206 4871.94 668 4871.94 669.794 4870.49 671.248 4868.69 671.248L4849.2 671.248C4847.41 671.248 4845.96 669.794 4845.96 668 4845.96 666.206 4847.41 664.752 4849.2 664.752ZM4894.68 664.752 4914.17 664.752C4915.96 664.752 4917.41 666.206 4917.41 668 4917.41 669.794 4915.96 671.248 4914.17 671.248L4894.68 671.248C4892.88 671.248 4891.43 669.794 4891.43 668 4891.43 666.206 4892.88 664.752 4894.68 664.752ZM4940.15 664.752 4959.64 664.752C4961.43 664.752 4962.89 666.206 4962.89 668 4962.89 669.794 4961.43 671.248 4959.64 671.248L4940.15 671.248C4938.36 671.248 4936.9 669.794 4936.9 668 4936.9 666.206 4938.36 664.752 4940.15 664.752ZM4985.62 664.752 5005.11 664.752C5006.9 664.752 5008.36 666.206 5008.36 668 5008.36 669.794 5006.9 671.248 5005.11 671.248L4985.62 671.248C4983.83 671.248 4982.37 669.794 4982.37 668 4982.37 666.206 4983.83 664.752 4985.62 664.752ZM5031.09 664.752 5050.58 664.752C5052.38 664.752 5053.83 666.206 5053.83 668 5053.83 669.794 5052.38 671.248 5050.58 671.248L5031.09 671.248C5029.3 671.248 5027.85 669.794 5027.85 668 5027.85 666.206 5029.3 664.752 5031.09 664.752ZM5076.57 664.752 5096.05 664.752C5097.85 664.752 5099.3 666.206 5099.3 668 5099.3 669.794 5097.85 671.248 5096.05 671.248L5076.57 671.248C5074.77 671.248 5073.32 669.794 5073.32 668 5073.32 666.206 5074.77 664.752 5076.57 664.752ZM5122.04 664.752 5141.53 664.752C5143.32 664.752 5144.78 666.206 5144.78 668 5144.78 669.794 5143.32 671.248 5141.53 671.248L5122.04 671.248C5120.25 671.248 5118.79 669.794 5118.79 668 5118.79 666.206 5120.25 664.752 5122.04 664.752ZM5167.51 664.752 5187 664.752C5188.79 664.752 5190.25 666.206 5190.25 668 5190.25 669.794 5188.79 671.248 5187 671.248L5167.51 671.248C5165.72 671.248 5164.26 669.794 5164.26 668 5164.26 666.206 5165.72 664.752 5167.51 664.752ZM5212.98 664.752 5232.47 664.752C5234.27 664.752 5235.72 666.206 5235.72 668 5235.72 669.794 5234.27 671.248 5232.47 671.248L5212.98 671.248C5211.19 671.248 5209.74 669.794 5209.74 668 5209.74 666.206 5211.19 664.752 5212.98 664.752ZM5258.46 664.752 5277.94 664.752C5279.74 664.752 5281.19 666.206 5281.19 668 5281.19 669.794 5279.74 671.248 5277.94 671.248L5258.46 671.248C5256.66 671.248 5255.21 669.794 5255.21 668 5255.21 666.206 5256.66 664.752 5258.46 664.752ZM5303.93 664.752 5323.42 664.752C5325.21 664.752 5326.67 666.206 5326.67 668 5326.67 669.794 5325.21 671.248 5323.42 671.248L5303.93 671.248C5302.14 671.248 5300.68 669.794 5300.68 668 5300.68 666.206 5302.14 664.752 5303.93 664.752ZM5349.4 664.752 5368.89 664.752C5370.68 664.752 5372.14 666.206 5372.14 668 5372.14 669.794 5370.68 671.248 5368.89 671.248L5349.4 671.248C5347.61 671.248 5346.15 669.794 5346.15 668 5346.15 666.206 5347.61 664.752 5349.4 664.752ZM5394.87 664.752 5414.36 664.752C5416.16 664.752 5417.61 666.206 5417.61 668 5417.61 669.794 5416.16 671.248 5414.36 671.248L5394.87 671.248C5393.08 671.248 5391.63 669.794 5391.63 668 5391.63 666.206 5393.08 664.752 5394.87 664.752ZM5440.35 664.752 5459.83 664.752C5461.63 664.752 5463.08 666.206 5463.08 668 5463.08 669.794 5461.63 671.248 5459.83 671.248L5440.35 671.248C5438.55 671.248 5437.1 669.794 5437.1 668 5437.1 666.206 5438.55 664.752 5440.35 664.752ZM5485.82 664.752 5505.31 664.752C5507.1 664.752 5508.55 666.206 5508.55 668 5508.55 669.794 5507.1 671.248 5505.31 671.248L5485.82 671.248C5484.02 671.248 5482.57 669.794 5482.57 668 5482.57 666.206 5484.02 664.752 5485.82 664.752ZM5531.29 664.752 5550.78 664.752C5552.57 664.752 5554.03 666.206 5554.03 668 5554.03 669.794 5552.57 671.248 5550.78 671.248L5531.29 671.248C5529.5 671.248 5528.04 669.794 5528.04 668 5528.04 666.206 5529.5 664.752 5531.29 664.752ZM5576.76 664.752 5596.25 664.752C5598.05 664.752 5599.5 666.206 5599.5 668 5599.5 669.794 5598.05 671.248 5596.25 671.248L5576.76 671.248C5574.97 671.248 5573.52 669.794 5573.52 668 5573.52 666.206 5574.97 664.752 5576.76 664.752ZM5622.24 664.752 5641.72 664.752C5643.52 664.752 5644.97 666.206 5644.97 668 5644.97 669.794 5643.52 671.248 5641.72 671.248L5622.24 671.248C5620.44 671.248 5618.99 669.794 5618.99 668 5618.99 666.206 5620.44 664.752 5622.24 664.752ZM5667.71 664.752 5687.2 664.752C5688.99 664.752 5690.44 666.206 5690.44 668 5690.44 669.794 5688.99 671.248 5687.2 671.248L5667.71 671.248C5665.91 671.248 5664.46 669.794 5664.46 668 5664.46 666.206 5665.91 664.752 5667.71 664.752Z" fill="#FF0000" fill-rule="nonzero" fill-opacity="1"/></g><g><text fill="#000000" fill-opacity="1" font-family="Calibri,Calibri_MSFontService,sans-serif" font-style="normal" font-variant="normal" font-weight="400" font-stretch="normal" font-size="46" text-anchor="start" direction="ltr" writing-mode="lr-tb" unicode-bidi="normal" text-decoration="none" transform="matrix(1 0 0 1 2458.99 1940)">0</text></g><g><text fill="#000000" fill-opacity="1" font-family="Calibri,Calibri_MSFontService,sans-serif" font-style="normal" font-variant="normal" font-weight="400" font-stretch="normal" font-size="46" text-anchor="start" direction="ltr" writing-mode="lr-tb" unicode-bidi="normal" text-decoration="none" transform="matrix(1 0 0 1 2435.8 1678)">10</text></g><g><text fill="#000000" fill-opacity="1" font-family="Calibri,Calibri_MSFontService,sans-serif" font-style="normal" font-variant="normal" font-weight="400" font-stretch="normal" font-size="46" text-anchor="start" direction="ltr" writing-mode="lr-tb" unicode-bidi="normal" text-decoration="none" transform="matrix(1 0 0 1 2435.8 1416)">20</text></g><g><text fill="#000000" fill-opacity="1" font-family="Calibri,Calibri_MSFontService,sans-serif" font-style="normal" font-variant="normal" font-weight="400" font-stretch="normal" font-size="46" text-anchor="start" direction="ltr" writing-mode="lr-tb" unicode-bidi="normal" text-decoration="none" transform="matrix(1 0 0 1 2435.8 1153)">30</text></g><g><text fill="#000000" fill-opacity="1" font-family="Calibri,Calibri_MSFontService,sans-serif" font-style="normal" font-variant="normal" font-weight="400" font-stretch="normal" font-size="46" text-anchor="start" direction="ltr" writing-mode="lr-tb" unicode-bidi="normal" text-decoration="none" transform="matrix(1 0 0 1 2435.8 891)">40</text></g><g><text fill="#000000" fill-opacity="1" font-family="Calibri,Calibri_MSFontService,sans-serif" font-style="normal" font-variant="normal" font-weight="400" font-stretch="normal" font-size="46" text-anchor="start" direction="ltr" writing-mode="lr-tb" unicode-bidi="normal" text-decoration="none" transform="matrix(1 0 0 1 2435.8 628)">50</text></g><g><text fill="#000000" fill-opacity="1" font-family="Calibri,Calibri_MSFontService,sans-serif" font-style="normal" font-variant="normal" font-weight="400" font-stretch="normal" font-size="46" text-anchor="start" direction="ltr" writing-mode="lr-tb" unicode-bidi="normal" text-decoration="none" transform="matrix(1 0 0 1 2435.8 366)">60</text></g><g><text fill="#000000" fill-opacity="1" font-family="Calibri,Calibri_MSFontService,sans-serif" font-style="normal" font-variant="normal" font-weight="400" font-stretch="normal" font-size="46" text-anchor="start" direction="ltr" writing-mode="lr-tb" unicode-bidi="normal" text-decoration="none" transform="matrix(1 0 0 1 2690.06 2001)">S1</text></g><g><text fill="#000000" fill-opacity="1" font-family="Calibri,Calibri_MSFontService,sans-serif" font-style="normal" font-variant="normal" font-weight="400" font-stretch="normal" font-size="46" text-anchor="start" direction="ltr" writing-mode="lr-tb" unicode-bidi="normal" text-decoration="none" transform="matrix(1 0 0 1 3064.99 2001)">S2</text></g><g><text fill="#000000" fill-opacity="1" font-family="Calibri,Calibri_MSFontService,sans-serif" font-style="normal" font-variant="normal" font-weight="400" font-stretch="normal" font-size="46" text-anchor="start" direction="ltr" writing-mode="lr-tb" unicode-bidi="normal" text-decoration="none" transform="matrix(1 0 0 1 3439.92 2001)">S3</text></g><g><text fill="#000000" fill-opacity="1" font-family="Calibri,Calibri_MSFontService,sans-serif" font-style="normal" font-variant="normal" font-weight="400" font-stretch="normal" font-size="46" text-anchor="start" direction="ltr" writing-mode="lr-tb" unicode-bidi="normal" text-decoration="none" transform="matrix(1 0 0 1 3814.86 2001)">S4</text></g><g><text fill="#000000" fill-opacity="1" font-family="Calibri,Calibri_MSFontService,sans-serif" font-style="normal" font-variant="normal" font-weight="400" font-stretch="normal" font-size="46" text-anchor="start" direction="ltr" writing-mode="lr-tb" unicode-bidi="normal" text-decoration="none" transform="matrix(1 0 0 1 4189.79 2001)">S5</text></g><g><text fill="#000000" fill-opacity="1" font-family="Calibri,Calibri_MSFontService,sans-serif" font-style="normal" font-variant="normal" font-weight="400" font-stretch="normal" font-size="46" text-anchor="start" direction="ltr" writing-mode="lr-tb" unicode-bidi="normal" text-decoration="none" transform="matrix(1 0 0 1 4564.72 2001)">S6</text></g><g><text fill="#000000" fill-opacity="1" font-family="Calibri,Calibri_MSFontService,sans-serif" font-style="normal" font-variant="normal" font-weight="400" font-stretch="normal" font-size="46" text-anchor="start" direction="ltr" writing-mode="lr-tb" unicode-bidi="normal" text-decoration="none" transform="matrix(1 0 0 1 4939.65 2001)">S7</text></g><g><text fill="#000000" fill-opacity="1" font-family="Calibri,Calibri_MSFontService,sans-serif" font-style="normal" font-variant="normal" font-weight="400" font-stretch="normal" font-size="46" text-anchor="start" direction="ltr" writing-mode="lr-tb" unicode-bidi="normal" text-decoration="none" transform="matrix(1 0 0 1 5314.58 2001)">S8</text></g><g><text fill="#000000" fill-opacity="1" font-family="Calibri,Calibri_MSFontService,sans-serif" font-style="normal" font-variant="normal" font-weight="400" font-stretch="normal" font-size="46" text-anchor="start" direction="ltr" writing-mode="lr-tb" unicode-bidi="normal" text-decoration="none" transform="matrix(1 0 0 1 5689.51 2001)">S9</text></g><g><text fill="#000000" fill-opacity="1" font-family="Calibri,Calibri_MSFontService,sans-serif" font-style="normal" font-variant="normal" font-weight="700" font-stretch="normal" font-size="46" text-anchor="start" direction="ltr" writing-mode="lr-tb" unicode-bidi="normal" text-decoration="none" transform="matrix(6.12323e-17 -1 1 6.12323e-17 2410.11 1176)">Ore</text></g><g><text fill="#000000" fill-opacity="1" font-family="Calibri,Calibri_MSFontService,sans-serif" font-style="normal" font-variant="normal" font-weight="700" font-stretch="normal" font-size="83" text-anchor="start" direction="ltr" writing-mode="lr-tb" unicode-bidi="normal" text-decoration="none" transform="matrix(1 0 0 1 4041.91 274)">PRCT</text></g><g><rect x="3317.5" y="2071.5" width="115" height="25" stroke="#1F497D" stroke-width="3.37795" stroke-linecap="butt" stroke-linejoin="round" stroke-miterlimit="10" stroke-opacity="1" fill="#1F497D" fill-opacity="1"/></g><g><text fill="#000000" fill-opacity="1" font-family="Calibri,Calibri_MSFontService,sans-serif" font-style="normal" font-variant="normal" font-weight="400" font-stretch="normal" font-size="46" text-anchor="start" direction="ltr" writing-mode="lr-tb" unicode-bidi="normal" text-decoration="none" transform="matrix(1 0 0 1 3445.37 2097)">PRCT Medio (ore)</text></g><g><path d="M3864 2079.99 3880.04 2079.99C3882.26 2079.99 3884.05 2081.79 3884.05 2084 3884.05 2086.22 3882.26 2088.01 3880.04 2088.01L3864 2088.01C3861.79 2088.01 3859.99 2086.22 3859.99 2084 3859.99 2081.79 3861.79 2079.99 3864 2079.99ZM3896.08 2079.99 3912.12 2079.99C3914.34 2079.99 3916.14 2081.79 3916.14 2084 3916.14 2086.22 3914.34 2088.01 3912.12 2088.01L3896.08 2088.01C3893.87 2088.01 3892.07 2086.22 3892.07 2084 3892.07 2081.79 3893.87 2079.99 3896.08 2079.99ZM3928.17 2079.99 3944.21 2079.99C3946.42 2079.99 3948.22 2081.79 3948.22 2084 3948.22 2086.22 3946.42 2088.01 3944.21 2088.01L3928.17 2088.01C3925.95 2088.01 3924.16 2086.22 3924.16 2084 3924.16 2081.79 3925.95 2079.99 3928.17 2079.99ZM3960.25 2079.99 3976.29 2079.99C3978.51 2079.99 3980.3 2081.79 3980.3 2084 3980.3 2086.22 3978.51 2088.01 3976.29 2088.01L3960.25 2088.01C3958.04 2088.01 3956.24 2086.22 3956.24 2084 3956.24 2081.79 3958.04 2079.99 3960.25 2079.99Z" fill="#00B050" fill-rule="nonzero" fill-opacity="1"/></g><g><text fill="#000000" fill-opacity="1" font-family="Calibri,Calibri_MSFontService,sans-serif" font-style="normal" font-variant="normal" font-weight="400" font-stretch="normal" font-size="46" text-anchor="start" direction="ltr" writing-mode="lr-tb" unicode-bidi="normal" text-decoration="none" transform="matrix(1 0 0 1 3992 2097)">Soglia ott. (≤ 24 ore)</text></g><g><path d="M4460 2080.75 4479.49 2080.75C4481.28 2080.75 4482.74 2082.21 4482.74 2084 4482.74 2085.79 4481.28 2087.25 4479.49 2087.25L4460 2087.25C4458.21 2087.25 4456.75 2085.79 4456.75 2084 4456.75 2082.21 4458.21 2080.75 4460 2080.75ZM4505.47 2080.75 4524.96 2080.75C4526.75 2080.75 4528.21 2082.21 4528.21 2084 4528.21 2085.79 4526.75 2087.25 4524.96 2087.25L4505.47 2087.25C4503.68 2087.25 4502.22 2085.79 4502.22 2084 4502.22 2082.21 4503.68 2080.75 4505.47 2080.75ZM4550.94 2080.75 4570.43 2080.75C4572.23 2080.75 4573.68 2082.21 4573.68 2084 4573.68 2085.79 4572.23 2087.25 4570.43 2087.25L4550.94 2087.25C4549.15 2087.25 4547.7 2085.79 4547.7 2084 4547.7 2082.21 4549.15 2080.75 4550.94 2080.75Z" fill="#FF0000" fill-rule="nonzero" fill-opacity="1"/></g><g><text fill="#000000" fill-opacity="1" font-family="Calibri,Calibri_MSFontService,sans-serif" font-style="normal" font-variant="normal" font-weight="400" font-stretch="normal" font-size="46" text-anchor="start" direction="ltr" writing-mode="lr-tb" unicode-bidi="normal" text-decoration="none" transform="matrix(1 0 0 1 4588.52 2097)">Soglia acc. (≤48 ore)</text></g><rect x="2309.5" y="161.5" width="3640" height="1992" stroke="#D9D9D9" stroke-width="3.37795" stroke-linecap="butt" stroke-linejoin="round" stroke-miterlimit="10" stroke-opacity="1" fill="none"/></g></g></svg>