<svg width="3736" height="2488" xmlns="http://www.w3.org/2000/svg" xmlns:xlink="http://www.w3.org/1999/xlink" xml:space="preserve" overflow="hidden"><defs><clipPath id="clip0"><rect x="2708" y="385" width="3736" height="2488"/></clipPath><clipPath id="clip1"><rect x="2708" y="385" width="3736" height="2488"/></clipPath></defs><g clip-path="url(#clip0)" transform="translate(-2708 -385)"><g clip-path="url(#clip1)"><rect x="2713" y="386" width="3727" height="2483" fill="#FFFFFF" fill-opacity="1"/><g><path d="M3076.5 2250.57 6329.5 2250.57M3076.5 1979.57 6329.5 1979.57M3076.5 1709.56 6329.5 1709.56M3076.5 1439.55 6329.5 1439.55M3076.5 1169.54 6329.5 1169.54M3076.5 898.53 6329.5 898.53M3076.5 628.5 6329.5 628.5" stroke="#878787" stroke-width="3.37795" stroke-linecap="butt" stroke-linejoin="round" stroke-miterlimit="10" stroke-opacity="1" fill="none" fill-rule="nonzero"/></g><g><path d="M0 0 0.000360892 1892" stroke="#878787" stroke-width="3.37795" stroke-linecap="butt" stroke-linejoin="round" stroke-miterlimit="10" stroke-opacity="1" fill="none" fill-rule="evenodd" transform="matrix(1 0 0 -1 3076.5 2520.5)"/></g><g><path d="M3076.5 2520.5 6329.5 2520.5" stroke="#878787" stroke-width="3.37795" stroke-linecap="butt" stroke-linejoin="round" stroke-miterlimit="10" stroke-opacity="1" fill="none" fill-rule="evenodd"/></g><g><path d="M3257.5 2350.5C3377.96 2307.25 3498.42 2253.19 3618.87 2220.75 3739.33 2188.32 3859.79 2192.82 3980.25 2155.88 4100.71 2118.94 4221.17 2043.25 4341.62 1999.1 4462.08 1954.95 4582.54 1940.09 4703 1890.98 4823.46 1841.88 4943.92 1758.98 5064.38 1704.47 5184.83 1649.96 5305.29 1627.44 5425.75 1563.91 5546.21 1500.39 5666.67 1444.08 5787.12 1323.34 5907.58 1202.61 6028.04 1000.78 6148.5 839.5" stroke="#ED7D31" stroke-width="8.96457" stroke-linecap="round" stroke-linejoin="round" stroke-miterlimit="10" stroke-opacity="1" fill="none" fill-rule="nonzero"/></g><g><path d="M3255.96 2385.29 3281.2 2376.03C3283.53 2375.18 3286.1 2376.37 3286.96 2378.69 3287.81 2381.02 3286.62 2383.59 3284.29 2384.45L3259.04 2393.71C3256.72 2394.56 3254.14 2393.37 3253.29 2391.04 3252.44 2388.72 3253.63 2386.14 3255.96 2385.29ZM3314.78 2363.56 3339.93 2354.05C3342.25 2353.18 3344.84 2354.34 3345.71 2356.66 3346.59 2358.97 3345.42 2361.56 3343.1 2362.44L3317.95 2371.95C3315.63 2372.82 3313.05 2371.65 3312.17 2369.34 3311.29 2367.02 3312.46 2364.44 3314.78 2363.56ZM3373.42 2341.27 3391.41 2334.39 3398.55 2331.67C3400.86 2330.79 3403.45 2331.96 3404.33 2334.27 3405.21 2336.58 3404.05 2339.17 3401.74 2340.05L3394.62 2342.76 3376.62 2349.64C3374.31 2350.53 3371.72 2349.37 3370.83 2347.06 3369.95 2344.75 3371.11 2342.16 3373.42 2341.27ZM3432.07 2318.93 3436.59 2317.21 3457.3 2309.52C3459.62 2308.66 3462.2 2309.84 3463.06 2312.16 3463.92 2314.48 3462.74 2317.06 3460.42 2317.92L3439.78 2325.59 3435.25 2327.31C3432.94 2328.19 3430.35 2327.02 3429.47 2324.71 3428.59 2322.4 3429.75 2319.81 3432.07 2318.93ZM3491.02 2297.14 3516.36 2288.13C3518.69 2287.3 3521.25 2288.52 3522.08 2290.85 3522.91 2293.19 3521.69 2295.75 3519.36 2296.58L3494.02 2305.59C3491.69 2306.42 3489.13 2305.2 3488.3 2302.87 3487.47 2300.53 3488.69 2297.97 3491.02 2297.14ZM3550.39 2276.55 3572.29 2269.26 3576.01 2268.1C3578.37 2267.36 3580.88 2268.68 3581.62 2271.04 3582.36 2273.4 3581.04 2275.92 3578.68 2276.65L3575.12 2277.76 3553.22 2285.06C3550.87 2285.84 3548.34 2284.57 3547.55 2282.22 3546.77 2279.87 3548.04 2277.34 3550.39 2276.55ZM3610.37 2257.62 3617.6 2255.48 3636.37 2250.37C3638.76 2249.72 3641.22 2251.13 3641.87 2253.52 3642.52 2255.91 3641.11 2258.37 3638.72 2259.02L3620.15 2264.08 3612.91 2266.22C3610.54 2266.92 3608.05 2265.56 3607.34 2263.19 3606.64 2260.82 3608 2258.32 3610.37 2257.62ZM3671.42 2241.88 3685.66 2238.72 3697.81 2236.26C3700.23 2235.77 3702.6 2237.34 3703.09 2239.76 3703.58 2242.19 3702.01 2244.56 3699.59 2245.05L3687.6 2247.48 3673.36 2250.63C3670.95 2251.17 3668.55 2249.64 3668.02 2247.23 3667.48 2244.81 3669.01 2242.42 3671.42 2241.88ZM3733.12 2229.59 3753.58 2225.85 3759.64 2224.81C3762.08 2224.4 3764.4 2226.04 3764.82 2228.48 3765.23 2230.92 3763.59 2233.24 3761.15 2233.65L3755.2 2234.67 3734.74 2238.41C3732.3 2238.86 3729.97 2237.24 3729.52 2234.81 3729.08 2232.37 3730.69 2230.04 3733.12 2229.59ZM3794.99 2218.78 3798.81 2218.13 3821.46 2214.16C3823.9 2213.73 3826.23 2215.36 3826.65 2217.8 3827.08 2220.24 3825.45 2222.56 3823.01 2222.99L3800.32 2226.97 3796.5 2227.62C3794.06 2228.04 3791.74 2226.4 3791.33 2223.96 3790.91 2221.52 3792.55 2219.2 3794.99 2218.78ZM3856.69 2207.81 3866.49 2205.95 3883.01 2202.57C3885.43 2202.08 3887.8 2203.64 3888.29 2206.07 3888.79 2208.49 3887.23 2210.86 3884.8 2211.35L3868.15 2214.76 3858.36 2216.61C3855.93 2217.07 3853.58 2215.48 3853.12 2213.04 3852.66 2210.61 3854.26 2208.27 3856.69 2207.81ZM3917.81 2194.75 3934 2190.74 3943.74 2188.06C3946.12 2187.41 3948.59 2188.81 3949.25 2191.2 3949.9 2193.58 3948.5 2196.05 3946.11 2196.71L3936.15 2199.45 3919.96 2203.45C3917.56 2204.05 3915.13 2202.58 3914.53 2200.18 3913.94 2197.77 3915.41 2195.34 3917.81 2194.75ZM3978 2177.95 3978.93 2177.66 4001.39 2170.03 4003.22 2169.36C4005.55 2168.5 4008.12 2169.7 4008.98 2172.02 4009.83 2174.34 4008.64 2176.92 4006.32 2177.77L4004.28 2178.52 3981.57 2186.23 3980.63 2186.52C3978.26 2187.24 3975.75 2185.92 3975.03 2183.55 3974.3 2181.18 3975.63 2178.68 3978 2177.95ZM4036.69 2156.75 4046.37 2152.96 4061.54 2146.69C4063.83 2145.75 4066.45 2146.83 4067.39 2149.12 4068.34 2151.41 4067.25 2154.03 4064.96 2154.98L4049.64 2161.3 4039.96 2165.1C4037.65 2166 4035.05 2164.86 4034.15 2162.56 4033.25 2160.25 4034.38 2157.65 4036.69 2156.75ZM4094.39 2132.62 4113.94 2123.9 4118.87 2121.63C4121.12 2120.59 4123.78 2121.57 4124.82 2123.82 4125.85 2126.07 4124.87 2128.73 4122.62 2129.77L4117.59 2132.09 4098.04 2140.81C4095.78 2141.81 4093.13 2140.8 4092.12 2138.54 4091.11 2136.28 4092.13 2133.63 4094.39 2132.62ZM4151.43 2106.6 4159.06 2103.08 4175.75 2095.22C4177.99 2094.16 4180.66 2095.12 4181.72 2097.36 4182.77 2099.6 4181.81 2102.27 4179.57 2103.32L4162.82 2111.22 4155.18 2114.74C4152.94 2115.78 4150.27 2114.8 4149.23 2112.55 4148.2 2110.3 4149.18 2107.64 4151.43 2106.6ZM4208.2 2079.93 4232.56 2068.53C4234.8 2067.48 4237.47 2068.45 4238.52 2070.69 4239.57 2072.93 4238.6 2075.6 4236.36 2076.65L4212 2088.05C4209.76 2089.1 4207.09 2088.14 4206.04 2085.89 4204.99 2083.65 4205.96 2080.98 4208.2 2079.93ZM4265.18 2053.51 4289.69 2042.43C4291.95 2041.41 4294.6 2042.42 4295.62 2044.67 4296.64 2046.93 4295.64 2049.58 4293.38 2050.6L4268.88 2061.68C4266.62 2062.7 4263.97 2061.7 4262.95 2059.44 4261.93 2057.19 4262.93 2054.53 4265.18 2053.51ZM4322.74 2028.16 4339.91 2021.06 4347.71 2017.97C4350.01 2017.07 4352.61 2018.19 4353.52 2020.5 4354.43 2022.8 4353.31 2025.4 4351 2026.31L4343.34 2029.34 4326.17 2036.45C4323.88 2037.39 4321.26 2036.31 4320.31 2034.02 4319.37 2031.73 4320.45 2029.11 4322.74 2028.16ZM4381.21 2005.03 4385.21 2003.51 4406.55 1995.8C4408.88 1994.96 4411.44 1996.16 4412.29 1998.49 4413.13 2000.82 4411.92 2003.39 4409.59 2004.23L4388.39 2011.89 4384.39 2013.41C4382.08 2014.29 4379.49 2013.12 4378.61 2010.81 4377.73 2008.49 4378.9 2005.91 4381.21 2005.03ZM4440.37 1983.72 4465.78 1974.91C4468.12 1974.09 4470.67 1975.33 4471.48 1977.67 4472.29 1980.01 4471.06 1982.56 4468.72 1983.38L4443.31 1992.19C4440.97 1993 4438.42 1991.76 4437.6 1989.42 4436.79 1987.08 4438.03 1984.53 4440.37 1983.72ZM4499.7 1963.24 4520.86 1955.98 4525.11 1954.49C4527.44 1953.68 4530 1954.91 4530.82 1957.24 4531.64 1959.58 4530.4 1962.14 4528.07 1962.96L4523.77 1964.46 4502.61 1971.72C4500.27 1972.52 4497.72 1971.27 4496.92 1968.93 4496.11 1966.59 4497.36 1964.04 4499.7 1963.24ZM4558.95 1942.65 4566 1940.18 4584.16 1933.49C4586.48 1932.64 4589.06 1933.83 4589.92 1936.15 4590.77 1938.47 4589.58 1941.05 4587.26 1941.9L4568.97 1948.64 4561.91 1951.11C4559.58 1951.93 4557.02 1950.69 4556.2 1948.36 4555.38 1946.02 4556.61 1943.46 4558.95 1942.65ZM4617.69 1921.01 4633.62 1914.82 4642.64 1911.16C4644.93 1910.23 4647.55 1911.33 4648.48 1913.62 4649.41 1915.92 4648.31 1918.53 4646.01 1919.46L4636.87 1923.18 4620.94 1929.37C4618.63 1930.26 4616.03 1929.12 4615.14 1926.81 4614.24 1924.51 4615.38 1921.91 4617.69 1921.01ZM4675.66 1897.36 4678.66 1896.08 4700.14 1886.44C4702.4 1885.43 4705.05 1886.44 4706.06 1888.7 4707.08 1890.96 4706.07 1893.61 4703.81 1894.62L4682.17 1904.33 4679.17 1905.61C4676.89 1906.58 4674.26 1905.52 4673.29 1903.24 4672.32 1900.97 4673.38 1898.33 4675.66 1897.36ZM4732.24 1870.94 4746.15 1863.92 4756.08 1858.68C4758.27 1857.52 4760.99 1858.36 4762.14 1860.55 4763.3 1862.74 4762.46 1865.45 4760.27 1866.61L4750.19 1871.93 4736.28 1878.94C4734.07 1880.06 4731.37 1879.17 4730.26 1876.96 4729.14 1874.75 4730.03 1872.05 4732.24 1870.94ZM4787.57 1841.67 4791.19 1839.69 4810.9 1828.45C4813.05 1827.22 4815.79 1827.97 4817.02 1830.12 4818.24 1832.27 4817.49 1835.01 4815.34 1836.23L4795.5 1847.55 4791.88 1849.53C4789.71 1850.72 4786.99 1849.93 4785.8 1847.76 4784.61 1845.59 4785.4 1842.86 4787.57 1841.67ZM4841.96 1810.64 4865.15 1797.02C4867.29 1795.77 4870.04 1796.49 4871.29 1798.62 4872.54 1800.76 4871.83 1803.5 4869.69 1804.76L4846.5 1818.37C4844.36 1819.62 4841.62 1818.91 4840.36 1816.77 4839.11 1814.64 4839.83 1811.89 4841.96 1810.64ZM4896.07 1778.87 4919.26 1765.24C4921.39 1763.98 4924.14 1764.7 4925.39 1766.83 4926.65 1768.96 4925.93 1771.71 4923.8 1772.97L4900.61 1786.59C4898.48 1787.85 4895.73 1787.14 4894.48 1785 4893.22 1782.87 4893.94 1780.12 4896.07 1778.87ZM4950.36 1747.3 4971.8 1735.01 4973.77 1733.92C4975.94 1732.73 4978.67 1733.51 4979.87 1735.68 4981.06 1737.85 4980.28 1740.57 4978.11 1741.77L4976.26 1742.79 4954.82 1755.08C4952.67 1756.31 4949.93 1755.57 4948.7 1753.42 4947.47 1751.27 4948.21 1748.53 4950.36 1747.3ZM5005.31 1716.71 5017.09 1710.43 5029.22 1704.24C5031.43 1703.11 5034.13 1703.99 5035.25 1706.19 5036.38 1708.4 5035.5 1711.1 5033.3 1712.22L5021.31 1718.34 5009.53 1724.62C5007.34 1725.79 5004.63 1724.96 5003.46 1722.78 5002.3 1720.59 5003.12 1717.88 5005.31 1716.71ZM5061.48 1688.36 5062.42 1687.91 5085.13 1677.74 5086.28 1677.27C5088.57 1676.33 5091.19 1677.43 5092.13 1679.72 5093.07 1682.01 5091.97 1684.63 5089.68 1685.56L5088.79 1685.93 5066.33 1695.98 5065.38 1696.43C5063.15 1697.51 5060.47 1696.58 5059.4 1694.35 5058.32 1692.12 5059.25 1689.44 5061.48 1688.36ZM5119.7 1663.94 5130.55 1659.84 5145.06 1654.7C5147.39 1653.88 5149.95 1655.1 5150.78 1657.44 5151.6 1659.77 5150.38 1662.33 5148.05 1663.16L5133.72 1668.22 5122.87 1672.33C5120.56 1673.2 5117.97 1672.04 5117.09 1669.72 5116.22 1667.41 5117.38 1664.82 5119.7 1663.94ZM5179.14 1643.17 5198.51 1636.92 5204.76 1634.93C5207.12 1634.18 5209.64 1635.49 5210.39 1637.85 5211.14 1640.2 5209.84 1642.72 5207.48 1643.47L5201.27 1645.45 5181.9 1651.7C5179.54 1652.46 5177.01 1651.17 5176.25 1648.82 5175.49 1646.46 5176.78 1643.93 5179.14 1643.17ZM5238.94 1624.07 5243.71 1622.56 5264.5 1615.8C5266.85 1615.04 5269.38 1616.32 5270.14 1618.68 5270.91 1621.03 5269.62 1623.56 5267.27 1624.33L5246.42 1631.1 5241.65 1632.62C5239.29 1633.37 5236.77 1632.06 5236.02 1629.7 5235.27 1627.34 5236.58 1624.82 5238.94 1624.07ZM5298.28 1604.19 5311.31 1599.52 5323.39 1594.87C5325.7 1593.98 5328.3 1595.13 5329.18 1597.44 5330.07 1599.75 5328.92 1602.34 5326.61 1603.23L5314.33 1607.96 5301.31 1612.63C5298.98 1613.47 5296.41 1612.25 5295.57 1609.92 5294.74 1607.59 5295.95 1605.03 5298.28 1604.19ZM5356.34 1581.43 5378.72 1571.21 5380.61 1570.25C5382.83 1569.14 5385.52 1570.03 5386.63 1572.24 5387.74 1574.46 5386.85 1577.15 5384.64 1578.26L5382.44 1579.36 5360.07 1589.59C5357.81 1590.62 5355.15 1589.63 5354.13 1587.37 5353.1 1585.12 5354.09 1582.46 5356.34 1581.43ZM5412.25 1553.77 5423.58 1547.49 5435.46 1540.45C5437.59 1539.19 5440.34 1539.9 5441.6 1542.03 5442.86 1544.16 5442.16 1546.91 5440.03 1548.17L5427.92 1555.33 5416.6 1561.61C5414.43 1562.81 5411.7 1562.03 5410.5 1559.87 5409.3 1557.7 5410.08 1554.97 5412.25 1553.77ZM5466.09 1521.93 5468.58 1520.41 5488.79 1507.64C5490.89 1506.31 5493.66 1506.94 5494.98 1509.03 5496.3 1511.12 5495.68 1513.89 5493.58 1515.22L5473.26 1528.06 5470.77 1529.58C5468.66 1530.87 5465.9 1530.21 5464.61 1528.09 5463.31 1525.98 5463.98 1523.22 5466.09 1521.93ZM5518.66 1488.05 5536.17 1476.22 5540.83 1472.95C5542.86 1471.53 5545.65 1472.03 5547.07 1474.05 5548.49 1476.08 5548 1478.88 5545.97 1480.3L5541.19 1483.64 5523.69 1495.48C5521.63 1496.86 5518.85 1496.33 5517.46 1494.28 5516.07 1492.23 5516.61 1489.44 5518.66 1488.05ZM5570.01 1452.24 5581.22 1444.11 5591.59 1436.32C5593.57 1434.84 5596.38 1435.23 5597.87 1437.21 5599.35 1439.19 5598.95 1442 5596.97 1443.49L5586.48 1451.37 5575.27 1459.5C5573.27 1460.95 5570.46 1460.5 5569.01 1458.5 5567.56 1456.5 5568.01 1453.69 5570.01 1452.24ZM5619.99 1414.55 5626.27 1409.66 5640.94 1397.82C5642.87 1396.27 5645.69 1396.57 5647.25 1398.5 5648.8 1400.42 5648.5 1403.25 5646.57 1404.8L5631.78 1416.73 5625.49 1421.63C5623.54 1423.15 5620.72 1422.8 5619.2 1420.84 5617.68 1418.89 5618.03 1416.07 5619.99 1414.55ZM5668.5 1375.01 5671.32 1372.65 5688.81 1357.5C5690.68 1355.87 5693.51 1356.08 5695.13 1357.95 5696.75 1359.82 5696.55 1362.65 5694.68 1364.27L5677.07 1379.53 5674.25 1381.89C5672.35 1383.47 5669.53 1383.22 5667.94 1381.32 5666.35 1379.42 5666.6 1376.6 5668.5 1375.01ZM5715.5 1333.67 5716.37 1332.89 5735.14 1315.41C5736.95 1313.73 5739.78 1313.83 5741.47 1315.64 5743.16 1317.45 5743.06 1320.29 5741.25 1321.97L5722.36 1339.56 5721.49 1340.34C5719.65 1342 5716.82 1341.84 5715.16 1340 5713.51 1338.16 5713.66 1335.33 5715.5 1333.67ZM5760.94 1290.63 5761.43 1290.16 5779.91 1271.68C5781.66 1269.93 5784.49 1269.93 5786.25 1271.68 5788 1273.43 5788 1276.26 5786.25 1278.02L5767.65 1296.61 5767.17 1297.08C5765.39 1298.8 5762.55 1298.75 5760.83 1296.97 5759.11 1295.19 5759.16 1292.35 5760.94 1290.63ZM5804.69 1245.91 5806.47 1244.04 5822.73 1226.12C5824.39 1224.28 5827.23 1224.15 5829.06 1225.81 5830.9 1227.47 5831.03 1230.31 5829.37 1232.14L5812.95 1250.23 5811.17 1252.1C5809.46 1253.89 5806.63 1253.95 5804.84 1252.24 5803.05 1250.53 5802.98 1247.7 5804.69 1245.91ZM5846.33 1199.25 5851.5 1193.3 5863.65 1178.78C5865.24 1176.88 5868.06 1176.63 5869.96 1178.22 5871.86 1179.81 5872.11 1182.64 5870.52 1184.54L5858.27 1199.18 5853.1 1205.13C5851.48 1207 5848.64 1207.2 5846.78 1205.57 5844.91 1203.95 5844.71 1201.12 5846.33 1199.25ZM5886.39 1151.15 5896.57 1138.59 5903.19 1130.22C5904.73 1128.28 5907.55 1127.95 5909.49 1129.49 5911.43 1131.02 5911.76 1133.84 5910.22 1135.78L5903.54 1144.24 5893.35 1156.8C5891.79 1158.72 5888.97 1159.01 5887.04 1157.45 5885.12 1155.89 5884.83 1153.07 5886.39 1151.15ZM5925.33 1102.07 5941.68 1080.95 5941.77 1080.83C5943.27 1078.86 5946.08 1078.48 5948.05 1079.99 5950.02 1081.49 5950.4 1084.3 5948.9 1086.27L5948.77 1086.44 5932.41 1107.56C5930.9 1109.51 5928.08 1109.87 5926.12 1108.36 5924.17 1106.84 5923.81 1104.03 5925.33 1102.07ZM5963.51 1052.32 5964.25 1051.35 5979.65 1030.84C5981.13 1028.86 5983.94 1028.46 5985.92 1029.95 5987.9 1031.44 5988.3 1034.24 5986.82 1036.22L5971.38 1056.78 5970.64 1057.75C5969.14 1059.72 5966.33 1060.1 5964.36 1058.6 5962.39 1057.1 5962.01 1054.28 5963.51 1052.32ZM6001.18 1002.17 6009.4 991.221 6017.29 980.651C6018.77 978.667 6021.58 978.26 6023.57 979.741 6025.55 981.222 6025.96 984.031 6024.48 986.014L6016.57 996.604 6008.35 1007.55C6006.86 1009.53 6004.05 1009.93 6002.07 1008.44 6000.09 1006.96 5999.69 1004.15 6001.18 1002.17ZM6038.75 951.919 6054.56 930.736 6054.85 930.359C6056.34 928.381 6059.15 927.982 6061.12 929.47 6063.1 930.957 6063.5 933.767 6062.01 935.746L6061.75 936.1 6045.93 957.283C6044.45 959.266 6041.64 959.673 6039.66 958.192 6037.67 956.711 6037.27 953.902 6038.75 951.919ZM6076.39 901.694 6077.16 900.67 6092.66 880.251C6094.15 878.279 6096.97 877.894 6098.94 879.391 6100.91 880.887 6101.29 883.699 6099.8 885.671L6084.33 906.055 6083.56 907.079C6082.07 909.058 6079.26 909.457 6077.28 907.97 6075.3 906.483 6074.9 903.673 6076.39 901.694ZM6114.49 851.766 6122.36 841.541 6131.03 830.504C6132.55 828.557 6135.37 828.217 6137.32 829.746 6139.27 831.274 6139.61 834.092 6138.08 836.039L6129.47 847.01 6121.59 857.235C6120.08 859.196 6117.27 859.562 6115.31 858.052 6113.34 856.541 6112.98 853.727 6114.49 851.766Z" fill="#4472C4" fill-rule="nonzero" fill-opacity="1"/></g><g><text fill="#000000" fill-opacity="1" font-family="Calibri,Calibri_MSFontService,sans-serif" font-style="normal" font-variant="normal" font-weight="400" font-stretch="normal" font-size="46" text-anchor="start" direction="ltr" writing-mode="lr-tb" unicode-bidi="normal" text-decoration="none" transform="matrix(1 0 0 1 2952.74 2533)">0.00</text></g><g><text fill="#000000" fill-opacity="1" font-family="Calibri,Calibri_MSFontService,sans-serif" font-style="normal" font-variant="normal" font-weight="400" font-stretch="normal" font-size="46" text-anchor="start" direction="ltr" writing-mode="lr-tb" unicode-bidi="normal" text-decoration="none" transform="matrix(1 0 0 1 2906.35 2263)">500.00</text></g><g><text fill="#000000" fill-opacity="1" font-family="Calibri,Calibri_MSFontService,sans-serif" font-style="normal" font-variant="normal" font-weight="400" font-stretch="normal" font-size="46" text-anchor="start" direction="ltr" writing-mode="lr-tb" unicode-bidi="normal" text-decoration="none" transform="matrix(1 0 0 1 2871.77 1992)">1,000.00</text></g><g><text fill="#000000" fill-opacity="1" font-family="Calibri,Calibri_MSFontService,sans-serif" font-style="normal" font-variant="normal" font-weight="400" font-stretch="normal" font-size="46" text-anchor="start" direction="ltr" writing-mode="lr-tb" unicode-bidi="normal" text-decoration="none" transform="matrix(1 0 0 1 2871.77 1722)">1,500.00</text></g><g><text fill="#000000" fill-opacity="1" font-family="Calibri,Calibri_MSFontService,sans-serif" font-style="normal" font-variant="normal" font-weight="400" font-stretch="normal" font-size="46" text-anchor="start" direction="ltr" writing-mode="lr-tb" unicode-bidi="normal" text-decoration="none" transform="matrix(1 0 0 1 2871.77 1452)">2,000.00</text></g><g><text fill="#000000" fill-opacity="1" font-family="Calibri,Calibri_MSFontService,sans-serif" font-style="normal" font-variant="normal" font-weight="400" font-stretch="normal" font-size="46" text-anchor="start" direction="ltr" writing-mode="lr-tb" unicode-bidi="normal" text-decoration="none" transform="matrix(1 0 0 1 2871.77 1182)">2,500.00</text></g><g><text fill="#000000" fill-opacity="1" font-family="Calibri,Calibri_MSFontService,sans-serif" font-style="normal" font-variant="normal" font-weight="400" font-stretch="normal" font-size="46" text-anchor="start" direction="ltr" writing-mode="lr-tb" unicode-bidi="normal" text-decoration="none" transform="matrix(1 0 0 1 2871.77 911)">3,000.00</text></g><g><text fill="#000000" fill-opacity="1" font-family="Calibri,Calibri_MSFontService,sans-serif" font-style="normal" font-variant="normal" font-weight="400" font-stretch="normal" font-size="46" text-anchor="start" direction="ltr" writing-mode="lr-tb" unicode-bidi="normal" text-decoration="none" transform="matrix(1 0 0 1 2871.77 641)">3,500.00</text></g><g><text fill="#000000" fill-opacity="1" font-family="Calibri,Calibri_MSFontService,sans-serif" font-style="normal" font-variant="normal" font-weight="400" font-stretch="normal" font-size="46" text-anchor="start" direction="ltr" writing-mode="lr-tb" unicode-bidi="normal" text-decoration="none" transform="matrix(1 0 0 1 3234.98 2594)">S1</text></g><g><text fill="#000000" fill-opacity="1" font-family="Calibri,Calibri_MSFontService,sans-serif" font-style="normal" font-variant="normal" font-weight="400" font-stretch="normal" font-size="46" text-anchor="start" direction="ltr" writing-mode="lr-tb" unicode-bidi="normal" text-decoration="none" transform="matrix(1 0 0 1 3596.45 2594)">S2</text></g><g><text fill="#000000" fill-opacity="1" font-family="Calibri,Calibri_MSFontService,sans-serif" font-style="normal" font-variant="normal" font-weight="400" font-stretch="normal" font-size="46" text-anchor="start" direction="ltr" writing-mode="lr-tb" unicode-bidi="normal" text-decoration="none" transform="matrix(1 0 0 1 3957.92 2594)">S3</text></g><g><text fill="#000000" fill-opacity="1" font-family="Calibri,Calibri_MSFontService,sans-serif" font-style="normal" font-variant="normal" font-weight="400" font-stretch="normal" font-size="46" text-anchor="start" direction="ltr" writing-mode="lr-tb" unicode-bidi="normal" text-decoration="none" transform="matrix(1 0 0 1 4319.39 2594)">S4</text></g><g><text fill="#000000" fill-opacity="1" font-family="Calibri,Calibri_MSFontService,sans-serif" font-style="normal" font-variant="normal" font-weight="400" font-stretch="normal" font-size="46" text-anchor="start" direction="ltr" writing-mode="lr-tb" unicode-bidi="normal" text-decoration="none" transform="matrix(1 0 0 1 4680.86 2594)">S5</text></g><g><text fill="#000000" fill-opacity="1" font-family="Calibri,Calibri_MSFontService,sans-serif" font-style="normal" font-variant="normal" font-weight="400" font-stretch="normal" font-size="46" text-anchor="start" direction="ltr" writing-mode="lr-tb" unicode-bidi="normal" text-decoration="none" transform="matrix(1 0 0 1 5042.33 2594)">S6</text></g><g><text fill="#000000" fill-opacity="1" font-family="Calibri,Calibri_MSFontService,sans-serif" font-style="normal" font-variant="normal" font-weight="400" font-stretch="normal" font-size="46" text-anchor="start" direction="ltr" writing-mode="lr-tb" unicode-bidi="normal" text-decoration="none" transform="matrix(1 0 0 1 5403.8 2594)">S7</text></g><g><text fill="#000000" fill-opacity="1" font-family="Calibri,Calibri_MSFontService,sans-serif" font-style="normal" font-variant="normal" font-weight="400" font-stretch="normal" font-size="46" text-anchor="start" direction="ltr" writing-mode="lr-tb" unicode-bidi="normal" text-decoration="none" transform="matrix(1 0 0 1 5765.27 2594)">S8</text></g><g><text fill="#000000" fill-opacity="1" font-family="Calibri,Calibri_MSFontService,sans-serif" font-style="normal" font-variant="normal" font-weight="400" font-stretch="normal" font-size="46" text-anchor="start" direction="ltr" writing-mode="lr-tb" unicode-bidi="normal" text-decoration="none" transform="matrix(1 0 0 1 6126.75 2594)">S9</text></g><g><text fill="#000000" fill-opacity="1" font-family="Calibri,Calibri_MSFontService,sans-serif" font-style="normal" font-variant="normal" font-weight="700" font-stretch="normal" font-size="46" text-anchor="start" direction="ltr" writing-mode="lr-tb" unicode-bidi="normal" text-decoration="none" transform="matrix(6.12323e-17 -1 1 6.12323e-17 2846.08 1649)">Euro (€)</text></g><g><text fill="#000000" fill-opacity="1" font-family="Calibri,Calibri_MSFontService,sans-serif" font-style="normal" font-variant="normal" font-weight="700" font-stretch="normal" font-size="83" text-anchor="start" direction="ltr" writing-mode="lr-tb" unicode-bidi="normal" text-decoration="none" transform="matrix(1 0 0 1 4245.59 500)">PV e EV Accumulati</text></g><g><path d="M4235.5 2789.5 4350.5 2789.5" stroke="#ED7D31" stroke-width="8.96457" stroke-linecap="round" stroke-linejoin="round" stroke-miterlimit="10" stroke-opacity="1" fill="none" fill-rule="evenodd"/></g><g><g><text fill="#000000" fill-opacity="1" font-family="Calibri,Calibri_MSFontService,sans-serif" font-style="normal" font-variant="normal" font-weight="400" font-stretch="normal" font-size="46" text-anchor="start" direction="ltr" writing-mode="lr-tb" unicode-bidi="normal" text-decoration="none" transform="matrix(1 0 0 1 4363.44 2801)">PV acc. (€)</text></g></g><g><path d="M4624.5 2785.02 4651.39 2785.02C4653.87 2785.02 4655.88 2787.02 4655.88 2789.5 4655.88 2791.98 4653.87 2793.98 4651.39 2793.98L4624.5 2793.98C4622.02 2793.98 4620.02 2791.98 4620.02 2789.5 4620.02 2787.02 4622.02 2785.02 4624.5 2785.02ZM4687.25 2785.02 4714.15 2785.02C4716.62 2785.02 4718.63 2787.02 4718.63 2789.5 4718.63 2791.98 4716.62 2793.98 4714.15 2793.98L4687.25 2793.98C4684.78 2793.98 4682.77 2791.98 4682.77 2789.5 4682.77 2787.02 4684.78 2785.02 4687.25 2785.02Z" fill="#4472C4" fill-rule="nonzero" fill-opacity="1"/></g><g><g><text fill="#000000" fill-opacity="1" font-family="Calibri,Calibri_MSFontService,sans-serif" font-style="normal" font-variant="normal" font-weight="400" font-stretch="normal" font-size="46" text-anchor="start" direction="ltr" writing-mode="lr-tb" unicode-bidi="normal" text-decoration="none" transform="matrix(1 0 0 1 4752.23 2801)">EV acc. (€)</text></g></g><rect x="2713.5" y="386.5" width="3727" height="2483" stroke="#D9D9D9" stroke-width="3.37795" stroke-linecap="butt" stroke-linejoin="round" stroke-miterlimit="10" stroke-opacity="1" fill="none"/></g></g></svg>