<svg width="3832" height="2562" xmlns="http://www.w3.org/2000/svg" xmlns:xlink="http://www.w3.org/1999/xlink" xml:space="preserve" overflow="hidden"><defs><clipPath id="clip0"><rect x="595" y="1695" width="3832" height="2562"/></clipPath><clipPath id="clip1"><rect x="595" y="1695" width="3832" height="2562"/></clipPath><clipPath id="clip2"><rect x="969" y="1948" width="3346" height="1951"/></clipPath></defs><g clip-path="url(#clip0)" transform="translate(-595 -1695)"><g clip-path="url(#clip1)"><rect x="597" y="1700" width="3828" height="2554" fill="#FFFFFF" fill-opacity="1"/><g><path d="M969.5 3700.62 4312.5 3700.62M969.5 3506.62 4312.5 3506.62M969.5 3311.61 4312.5 3311.61M969.5 3116.6 4312.5 3116.6M969.5 2922.6 4312.5 2922.6M969.5 2727.59 4312.5 2727.59M969.5 2532.58 4312.5 2532.58M969.5 2338.58 4312.5 2338.58M969.5 2143.57 4312.5 2143.57M969.5 1948.5 4312.5 1948.5" stroke="#878787" stroke-width="3.37795" stroke-linecap="butt" stroke-linejoin="round" stroke-miterlimit="10" stroke-opacity="1" fill="none" fill-rule="nonzero"/></g><g><path d="M1081.04 2303.08 1229.04 2303.08 1229.04 3896 1081.04 3896ZM1452.05 1949 1601.05 1949 1601.05 3896 1452.05 3896ZM1824.06 2126.07 1972.06 2126.07 1972.06 3896 1824.06 3896ZM2195.07 1949 2344.08 1949 2344.08 3896 2195.07 3896ZM2567.08 1949 2715.09 1949 2715.09 3896 2567.08 3896ZM2938.1 1949 3086.1 1949 3086.1 3896 2938.1 3896ZM3309.11 2338.08 3458.11 2338.08 3458.11 3896 3309.11 3896ZM3681.12 2126.07 3829.13 2126.07 3829.13 3896 3681.12 3896ZM4052.13 2126.07 4201.14 2126.07 4201.14 3896 4052.13 3896Z" fill="#4F81BD" fill-rule="nonzero" fill-opacity="1"/></g><g><path d="M0 0 0.000360892 1947" stroke="#878787" stroke-width="3.37795" stroke-linecap="butt" stroke-linejoin="round" stroke-miterlimit="10" stroke-opacity="1" fill="none" fill-rule="evenodd" transform="matrix(1 0 0 -1 969.5 3895.5)"/></g><g><path d="M969.5 3895.5 4312.5 3895.5" stroke="#878787" stroke-width="3.37795" stroke-linecap="butt" stroke-linejoin="round" stroke-miterlimit="10" stroke-opacity="1" fill="none" fill-rule="evenodd"/></g><g clip-path="url(#clip2)"><path d="M1155 1944.99 1171.04 1944.99C1173.26 1944.99 1175.05 1946.79 1175.05 1949 1175.05 1951.21 1173.26 1953.01 1171.04 1953.01L1155 1953.01C1152.79 1953.01 1150.99 1951.21 1150.99 1949 1150.99 1946.79 1152.79 1944.99 1155 1944.99ZM1187.08 1944.99 1203.12 1944.99C1205.34 1944.99 1207.14 1946.79 1207.14 1949 1207.14 1951.21 1205.34 1953.01 1203.12 1953.01L1187.08 1953.01C1184.87 1953.01 1183.07 1951.21 1183.07 1949 1183.07 1946.79 1184.87 1944.99 1187.08 1944.99ZM1219.17 1944.99 1235.21 1944.99C1237.42 1944.99 1239.22 1946.79 1239.22 1949 1239.22 1951.21 1237.42 1953.01 1235.21 1953.01L1219.17 1953.01C1216.95 1953.01 1215.16 1951.21 1215.16 1949 1215.16 1946.79 1216.95 1944.99 1219.17 1944.99ZM1251.25 1944.99 1267.29 1944.99C1269.51 1944.99 1271.3 1946.79 1271.3 1949 1271.3 1951.21 1269.51 1953.01 1267.29 1953.01L1251.25 1953.01C1249.04 1953.01 1247.24 1951.21 1247.24 1949 1247.24 1946.79 1249.04 1944.99 1251.25 1944.99ZM1283.33 1944.99 1299.38 1944.99C1301.59 1944.99 1303.39 1946.79 1303.39 1949 1303.39 1951.21 1301.59 1953.01 1299.38 1953.01L1283.33 1953.01C1281.12 1953.01 1279.32 1951.21 1279.32 1949 1279.32 1946.79 1281.12 1944.99 1283.33 1944.99ZM1315.42 1944.99 1331.46 1944.99C1333.67 1944.99 1335.47 1946.79 1335.47 1949 1335.47 1951.21 1333.67 1953.01 1331.46 1953.01L1315.42 1953.01C1313.2 1953.01 1311.41 1951.21 1311.41 1949 1311.41 1946.79 1313.2 1944.99 1315.42 1944.99ZM1347.5 1944.99 1363.54 1944.99C1365.76 1944.99 1367.55 1946.79 1367.55 1949 1367.55 1951.21 1365.76 1953.01 1363.54 1953.01L1347.5 1953.01C1345.29 1953.01 1343.49 1951.21 1343.49 1949 1343.49 1946.79 1345.29 1944.99 1347.5 1944.99ZM1379.58 1944.99 1395.62 1944.99C1397.84 1944.99 1399.64 1946.79 1399.64 1949 1399.64 1951.21 1397.84 1953.01 1395.62 1953.01L1379.58 1953.01C1377.37 1953.01 1375.57 1951.21 1375.57 1949 1375.57 1946.79 1377.37 1944.99 1379.58 1944.99ZM1411.67 1944.99 1427.71 1944.99C1429.92 1944.99 1431.72 1946.79 1431.72 1949 1431.72 1951.21 1429.92 1953.01 1427.71 1953.01L1411.67 1953.01C1409.45 1953.01 1407.66 1951.21 1407.66 1949 1407.66 1946.79 1409.45 1944.99 1411.67 1944.99ZM1443.75 1944.99 1459.79 1944.99C1462.01 1944.99 1463.8 1946.79 1463.8 1949 1463.8 1951.21 1462.01 1953.01 1459.79 1953.01L1443.75 1953.01C1441.54 1953.01 1439.74 1951.21 1439.74 1949 1439.74 1946.79 1441.54 1944.99 1443.75 1944.99ZM1475.83 1944.99 1491.88 1944.99C1494.09 1944.99 1495.89 1946.79 1495.89 1949 1495.89 1951.21 1494.09 1953.01 1491.88 1953.01L1475.83 1953.01C1473.62 1953.01 1471.82 1951.21 1471.82 1949 1471.82 1946.79 1473.62 1944.99 1475.83 1944.99ZM1507.92 1944.99 1523.96 1944.99C1526.17 1944.99 1527.97 1946.79 1527.97 1949 1527.97 1951.21 1526.17 1953.01 1523.96 1953.01L1507.92 1953.01C1505.7 1953.01 1503.91 1951.21 1503.91 1949 1503.91 1946.79 1505.7 1944.99 1507.92 1944.99ZM1540 1944.99 1556.04 1944.99C1558.26 1944.99 1560.05 1946.79 1560.05 1949 1560.05 1951.21 1558.26 1953.01 1556.04 1953.01L1540 1953.01C1537.79 1953.01 1535.99 1951.21 1535.99 1949 1535.99 1946.79 1537.79 1944.99 1540 1944.99ZM1572.08 1944.99 1588.12 1944.99C1590.34 1944.99 1592.14 1946.79 1592.14 1949 1592.14 1951.21 1590.34 1953.01 1588.12 1953.01L1572.08 1953.01C1569.87 1953.01 1568.07 1951.21 1568.07 1949 1568.07 1946.79 1569.87 1944.99 1572.08 1944.99ZM1604.17 1944.99 1620.21 1944.99C1622.42 1944.99 1624.22 1946.79 1624.22 1949 1624.22 1951.21 1622.42 1953.01 1620.21 1953.01L1604.17 1953.01C1601.95 1953.01 1600.16 1951.21 1600.16 1949 1600.16 1946.79 1601.95 1944.99 1604.17 1944.99ZM1636.25 1944.99 1652.29 1944.99C1654.51 1944.99 1656.3 1946.79 1656.3 1949 1656.3 1951.21 1654.51 1953.01 1652.29 1953.01L1636.25 1953.01C1634.04 1953.01 1632.24 1951.21 1632.24 1949 1632.24 1946.79 1634.04 1944.99 1636.25 1944.99ZM1668.33 1944.99 1684.38 1944.99C1686.59 1944.99 1688.39 1946.79 1688.39 1949 1688.39 1951.21 1686.59 1953.01 1684.38 1953.01L1668.33 1953.01C1666.12 1953.01 1664.32 1951.21 1664.32 1949 1664.32 1946.79 1666.12 1944.99 1668.33 1944.99ZM1700.42 1944.99 1716.46 1944.99C1718.67 1944.99 1720.47 1946.79 1720.47 1949 1720.47 1951.21 1718.67 1953.01 1716.46 1953.01L1700.42 1953.01C1698.2 1953.01 1696.41 1951.21 1696.41 1949 1696.41 1946.79 1698.2 1944.99 1700.42 1944.99ZM1732.5 1944.99 1748.54 1944.99C1750.76 1944.99 1752.55 1946.79 1752.55 1949 1752.55 1951.21 1750.76 1953.01 1748.54 1953.01L1732.5 1953.01C1730.29 1953.01 1728.49 1951.21 1728.49 1949 1728.49 1946.79 1730.29 1944.99 1732.5 1944.99ZM1764.58 1944.99 1780.62 1944.99C1782.84 1944.99 1784.64 1946.79 1784.64 1949 1784.64 1951.21 1782.84 1953.01 1780.62 1953.01L1764.58 1953.01C1762.37 1953.01 1760.57 1951.21 1760.57 1949 1760.57 1946.79 1762.37 1944.99 1764.58 1944.99ZM1796.67 1944.99 1812.71 1944.99C1814.92 1944.99 1816.72 1946.79 1816.72 1949 1816.72 1951.21 1814.92 1953.01 1812.71 1953.01L1796.67 1953.01C1794.45 1953.01 1792.66 1951.21 1792.66 1949 1792.66 1946.79 1794.45 1944.99 1796.67 1944.99ZM1828.75 1944.99 1844.79 1944.99C1847.01 1944.99 1848.8 1946.79 1848.8 1949 1848.8 1951.21 1847.01 1953.01 1844.79 1953.01L1828.75 1953.01C1826.54 1953.01 1824.74 1951.21 1824.74 1949 1824.74 1946.79 1826.54 1944.99 1828.75 1944.99ZM1860.83 1944.99 1876.88 1944.99C1879.09 1944.99 1880.89 1946.79 1880.89 1949 1880.89 1951.21 1879.09 1953.01 1876.88 1953.01L1860.83 1953.01C1858.62 1953.01 1856.82 1951.21 1856.82 1949 1856.82 1946.79 1858.62 1944.99 1860.83 1944.99ZM1892.92 1944.99 1898.06 1944.99 1908.96 1944.99C1911.17 1944.99 1912.97 1946.79 1912.97 1949 1912.97 1951.21 1911.17 1953.01 1908.96 1953.01L1898.06 1953.01 1892.92 1953.01C1890.7 1953.01 1888.91 1951.21 1888.91 1949 1888.91 1946.79 1890.7 1944.99 1892.92 1944.99ZM1925 1944.99 1941.04 1944.99C1943.26 1944.99 1945.05 1946.79 1945.05 1949 1945.05 1951.21 1943.26 1953.01 1941.04 1953.01L1925 1953.01C1922.79 1953.01 1920.99 1951.21 1920.99 1949 1920.99 1946.79 1922.79 1944.99 1925 1944.99ZM1957.08 1944.99 1973.12 1944.99C1975.34 1944.99 1977.14 1946.79 1977.14 1949 1977.14 1951.21 1975.34 1953.01 1973.12 1953.01L1957.08 1953.01C1954.87 1953.01 1953.07 1951.21 1953.07 1949 1953.07 1946.79 1954.87 1944.99 1957.08 1944.99ZM1989.17 1944.99 2005.21 1944.99C2007.42 1944.99 2009.22 1946.79 2009.22 1949 2009.22 1951.21 2007.42 1953.01 2005.21 1953.01L1989.17 1953.01C1986.95 1953.01 1985.16 1951.21 1985.16 1949 1985.16 1946.79 1986.95 1944.99 1989.17 1944.99ZM2021.25 1944.99 2037.29 1944.99C2039.51 1944.99 2041.3 1946.79 2041.3 1949 2041.3 1951.21 2039.51 1953.01 2037.29 1953.01L2021.25 1953.01C2019.04 1953.01 2017.24 1951.21 2017.24 1949 2017.24 1946.79 2019.04 1944.99 2021.25 1944.99ZM2053.33 1944.99 2069.38 1944.99C2071.59 1944.99 2073.39 1946.79 2073.39 1949 2073.39 1951.21 2071.59 1953.01 2069.38 1953.01L2053.33 1953.01C2051.12 1953.01 2049.32 1951.21 2049.32 1949 2049.32 1946.79 2051.12 1944.99 2053.33 1944.99ZM2085.42 1944.99 2101.46 1944.99C2103.67 1944.99 2105.47 1946.79 2105.47 1949 2105.47 1951.21 2103.67 1953.01 2101.46 1953.01L2085.42 1953.01C2083.2 1953.01 2081.41 1951.21 2081.41 1949 2081.41 1946.79 2083.2 1944.99 2085.42 1944.99ZM2117.5 1944.99 2133.54 1944.99C2135.76 1944.99 2137.55 1946.79 2137.55 1949 2137.55 1951.21 2135.76 1953.01 2133.54 1953.01L2117.5 1953.01C2115.29 1953.01 2113.49 1951.21 2113.49 1949 2113.49 1946.79 2115.29 1944.99 2117.5 1944.99ZM2149.58 1944.99 2165.62 1944.99C2167.84 1944.99 2169.64 1946.79 2169.64 1949 2169.64 1951.21 2167.84 1953.01 2165.62 1953.01L2149.58 1953.01C2147.37 1953.01 2145.57 1951.21 2145.57 1949 2145.57 1946.79 2147.37 1944.99 2149.58 1944.99ZM2181.67 1944.99 2197.71 1944.99C2199.92 1944.99 2201.72 1946.79 2201.72 1949 2201.72 1951.21 2199.92 1953.01 2197.71 1953.01L2181.67 1953.01C2179.45 1953.01 2177.66 1951.21 2177.66 1949 2177.66 1946.79 2179.45 1944.99 2181.67 1944.99ZM2213.75 1944.99 2229.79 1944.99C2232.01 1944.99 2233.8 1946.79 2233.8 1949 2233.8 1951.21 2232.01 1953.01 2229.79 1953.01L2213.75 1953.01C2211.54 1953.01 2209.74 1951.21 2209.74 1949 2209.74 1946.79 2211.54 1944.99 2213.75 1944.99ZM2245.83 1944.99 2261.88 1944.99C2264.09 1944.99 2265.89 1946.79 2265.89 1949 2265.89 1951.21 2264.09 1953.01 2261.88 1953.01L2245.83 1953.01C2243.62 1953.01 2241.82 1951.21 2241.82 1949 2241.82 1946.79 2243.62 1944.99 2245.83 1944.99ZM2277.92 1944.99 2293.96 1944.99C2296.17 1944.99 2297.97 1946.79 2297.97 1949 2297.97 1951.21 2296.17 1953.01 2293.96 1953.01L2277.92 1953.01C2275.7 1953.01 2273.91 1951.21 2273.91 1949 2273.91 1946.79 2275.7 1944.99 2277.92 1944.99ZM2310 1944.99 2326.04 1944.99C2328.26 1944.99 2330.05 1946.79 2330.05 1949 2330.05 1951.21 2328.26 1953.01 2326.04 1953.01L2310 1953.01C2307.79 1953.01 2305.99 1951.21 2305.99 1949 2305.99 1946.79 2307.79 1944.99 2310 1944.99ZM2342.08 1944.99 2358.12 1944.99C2360.34 1944.99 2362.14 1946.79 2362.14 1949 2362.14 1951.21 2360.34 1953.01 2358.12 1953.01L2342.08 1953.01C2339.87 1953.01 2338.07 1951.21 2338.07 1949 2338.07 1946.79 2339.87 1944.99 2342.08 1944.99ZM2374.17 1944.99 2390.21 1944.99C2392.42 1944.99 2394.22 1946.79 2394.22 1949 2394.22 1951.21 2392.42 1953.01 2390.21 1953.01L2374.17 1953.01C2371.95 1953.01 2370.16 1951.21 2370.16 1949 2370.16 1946.79 2371.95 1944.99 2374.17 1944.99ZM2406.25 1944.99 2422.29 1944.99C2424.51 1944.99 2426.3 1946.79 2426.3 1949 2426.3 1951.21 2424.51 1953.01 2422.29 1953.01L2406.25 1953.01C2404.04 1953.01 2402.24 1951.21 2402.24 1949 2402.24 1946.79 2404.04 1944.99 2406.25 1944.99ZM2438.33 1944.99 2454.38 1944.99C2456.59 1944.99 2458.39 1946.79 2458.39 1949 2458.39 1951.21 2456.59 1953.01 2454.38 1953.01L2438.33 1953.01C2436.12 1953.01 2434.32 1951.21 2434.32 1949 2434.32 1946.79 2436.12 1944.99 2438.33 1944.99ZM2470.42 1944.99 2486.46 1944.99C2488.67 1944.99 2490.47 1946.79 2490.47 1949 2490.47 1951.21 2488.67 1953.01 2486.46 1953.01L2470.42 1953.01C2468.2 1953.01 2466.41 1951.21 2466.41 1949 2466.41 1946.79 2468.2 1944.99 2470.42 1944.99ZM2502.5 1944.99 2518.54 1944.99C2520.76 1944.99 2522.55 1946.79 2522.55 1949 2522.55 1951.21 2520.76 1953.01 2518.54 1953.01L2502.5 1953.01C2500.29 1953.01 2498.49 1951.21 2498.49 1949 2498.49 1946.79 2500.29 1944.99 2502.5 1944.99ZM2534.58 1944.99 2550.62 1944.99C2552.84 1944.99 2554.64 1946.79 2554.64 1949 2554.64 1951.21 2552.84 1953.01 2550.62 1953.01L2534.58 1953.01C2532.37 1953.01 2530.57 1951.21 2530.57 1949 2530.57 1946.79 2532.37 1944.99 2534.58 1944.99ZM2566.67 1944.99 2582.71 1944.99C2584.92 1944.99 2586.72 1946.79 2586.72 1949 2586.72 1951.21 2584.92 1953.01 2582.71 1953.01L2566.67 1953.01C2564.45 1953.01 2562.66 1951.21 2562.66 1949 2562.66 1946.79 2564.45 1944.99 2566.67 1944.99ZM2598.75 1944.99 2614.79 1944.99C2617.01 1944.99 2618.8 1946.79 2618.8 1949 2618.8 1951.21 2617.01 1953.01 2614.79 1953.01L2598.75 1953.01C2596.54 1953.01 2594.74 1951.21 2594.74 1949 2594.74 1946.79 2596.54 1944.99 2598.75 1944.99ZM2630.83 1944.99 2641.09 1944.99 2646.88 1944.99C2649.09 1944.99 2650.89 1946.79 2650.89 1949 2650.89 1951.21 2649.09 1953.01 2646.88 1953.01L2641.09 1953.01 2630.83 1953.01C2628.62 1953.01 2626.82 1951.21 2626.82 1949 2626.82 1946.79 2628.62 1944.99 2630.83 1944.99ZM2662.92 1944.99 2678.96 1944.99C2681.17 1944.99 2682.97 1946.79 2682.97 1949 2682.97 1951.21 2681.17 1953.01 2678.96 1953.01L2662.92 1953.01C2660.7 1953.01 2658.91 1951.21 2658.91 1949 2658.91 1946.79 2660.7 1944.99 2662.92 1944.99ZM2695 1944.99 2711.04 1944.99C2713.26 1944.99 2715.05 1946.79 2715.05 1949 2715.05 1951.21 2713.26 1953.01 2711.04 1953.01L2695 1953.01C2692.78 1953.01 2690.99 1951.21 2690.99 1949 2690.99 1946.79 2692.78 1944.99 2695 1944.99ZM2727.08 1944.99 2743.12 1944.99C2745.34 1944.99 2747.14 1946.79 2747.14 1949 2747.14 1951.21 2745.34 1953.01 2743.12 1953.01L2727.08 1953.01C2724.87 1953.01 2723.07 1951.21 2723.07 1949 2723.07 1946.79 2724.87 1944.99 2727.08 1944.99ZM2759.17 1944.99 2775.21 1944.99C2777.42 1944.99 2779.22 1946.79 2779.22 1949 2779.22 1951.21 2777.42 1953.01 2775.21 1953.01L2759.17 1953.01C2756.95 1953.01 2755.16 1951.21 2755.16 1949 2755.16 1946.79 2756.95 1944.99 2759.17 1944.99ZM2791.25 1944.99 2807.29 1944.99C2809.51 1944.99 2811.3 1946.79 2811.3 1949 2811.3 1951.21 2809.51 1953.01 2807.29 1953.01L2791.25 1953.01C2789.03 1953.01 2787.24 1951.21 2787.24 1949 2787.24 1946.79 2789.03 1944.99 2791.25 1944.99ZM2823.33 1944.99 2839.38 1944.99C2841.59 1944.99 2843.39 1946.79 2843.39 1949 2843.39 1951.21 2841.59 1953.01 2839.38 1953.01L2823.33 1953.01C2821.12 1953.01 2819.32 1951.21 2819.32 1949 2819.32 1946.79 2821.12 1944.99 2823.33 1944.99ZM2855.42 1944.99 2871.46 1944.99C2873.67 1944.99 2875.47 1946.79 2875.47 1949 2875.47 1951.21 2873.67 1953.01 2871.46 1953.01L2855.42 1953.01C2853.2 1953.01 2851.41 1951.21 2851.41 1949 2851.41 1946.79 2853.2 1944.99 2855.42 1944.99ZM2887.5 1944.99 2903.54 1944.99C2905.76 1944.99 2907.55 1946.79 2907.55 1949 2907.55 1951.21 2905.76 1953.01 2903.54 1953.01L2887.5 1953.01C2885.28 1953.01 2883.49 1951.21 2883.49 1949 2883.49 1946.79 2885.28 1944.99 2887.5 1944.99ZM2919.58 1944.99 2935.62 1944.99C2937.84 1944.99 2939.64 1946.79 2939.64 1949 2939.64 1951.21 2937.84 1953.01 2935.62 1953.01L2919.58 1953.01C2917.37 1953.01 2915.57 1951.21 2915.57 1949 2915.57 1946.79 2917.37 1944.99 2919.58 1944.99ZM2951.67 1944.99 2967.71 1944.99C2969.92 1944.99 2971.72 1946.79 2971.72 1949 2971.72 1951.21 2969.92 1953.01 2967.71 1953.01L2951.67 1953.01C2949.45 1953.01 2947.66 1951.21 2947.66 1949 2947.66 1946.79 2949.45 1944.99 2951.67 1944.99ZM2983.75 1944.99 2999.79 1944.99C3002.01 1944.99 3003.8 1946.79 3003.8 1949 3003.8 1951.21 3002.01 1953.01 2999.79 1953.01L2983.75 1953.01C2981.53 1953.01 2979.74 1951.21 2979.74 1949 2979.74 1946.79 2981.53 1944.99 2983.75 1944.99ZM3015.83 1944.99 3031.88 1944.99C3034.09 1944.99 3035.89 1946.79 3035.89 1949 3035.89 1951.21 3034.09 1953.01 3031.88 1953.01L3015.83 1953.01C3013.62 1953.01 3011.82 1951.21 3011.82 1949 3011.82 1946.79 3013.62 1944.99 3015.83 1944.99ZM3047.92 1944.99 3063.96 1944.99C3066.17 1944.99 3067.97 1946.79 3067.97 1949 3067.97 1951.21 3066.17 1953.01 3063.96 1953.01L3047.92 1953.01C3045.7 1953.01 3043.91 1951.21 3043.91 1949 3043.91 1946.79 3045.7 1944.99 3047.92 1944.99ZM3080 1944.99 3096.04 1944.99C3098.26 1944.99 3100.05 1946.79 3100.05 1949 3100.05 1951.21 3098.26 1953.01 3096.04 1953.01L3080 1953.01C3077.78 1953.01 3075.99 1951.21 3075.99 1949 3075.99 1946.79 3077.78 1944.99 3080 1944.99ZM3112.08 1944.99 3128.12 1944.99C3130.34 1944.99 3132.14 1946.79 3132.14 1949 3132.14 1951.21 3130.34 1953.01 3128.12 1953.01L3112.08 1953.01C3109.87 1953.01 3108.07 1951.21 3108.07 1949 3108.07 1946.79 3109.87 1944.99 3112.08 1944.99ZM3144.17 1944.99 3160.21 1944.99C3162.42 1944.99 3164.22 1946.79 3164.22 1949 3164.22 1951.21 3162.42 1953.01 3160.21 1953.01L3144.17 1953.01C3141.95 1953.01 3140.16 1951.21 3140.16 1949 3140.16 1946.79 3141.95 1944.99 3144.17 1944.99ZM3176.25 1944.99 3192.29 1944.99C3194.51 1944.99 3196.3 1946.79 3196.3 1949 3196.3 1951.21 3194.51 1953.01 3192.29 1953.01L3176.25 1953.01C3174.03 1953.01 3172.24 1951.21 3172.24 1949 3172.24 1946.79 3174.03 1944.99 3176.25 1944.99ZM3208.33 1944.99 3224.38 1944.99C3226.59 1944.99 3228.39 1946.79 3228.39 1949 3228.39 1951.21 3226.59 1953.01 3224.38 1953.01L3208.33 1953.01C3206.12 1953.01 3204.32 1951.21 3204.32 1949 3204.32 1946.79 3206.12 1944.99 3208.33 1944.99ZM3240.42 1944.99 3256.46 1944.99C3258.67 1944.99 3260.47 1946.79 3260.47 1949 3260.47 1951.21 3258.67 1953.01 3256.46 1953.01L3240.42 1953.01C3238.2 1953.01 3236.41 1951.21 3236.41 1949 3236.41 1946.79 3238.2 1944.99 3240.42 1944.99ZM3272.5 1944.99 3288.54 1944.99C3290.76 1944.99 3292.55 1946.79 3292.55 1949 3292.55 1951.21 3290.76 1953.01 3288.54 1953.01L3272.5 1953.01C3270.28 1953.01 3268.49 1951.21 3268.49 1949 3268.49 1946.79 3270.28 1944.99 3272.5 1944.99ZM3304.58 1944.99 3320.62 1944.99C3322.84 1944.99 3324.64 1946.79 3324.64 1949 3324.64 1951.21 3322.84 1953.01 3320.62 1953.01L3304.58 1953.01C3302.37 1953.01 3300.57 1951.21 3300.57 1949 3300.57 1946.79 3302.37 1944.99 3304.58 1944.99ZM3336.67 1944.99 3352.71 1944.99C3354.92 1944.99 3356.72 1946.79 3356.72 1949 3356.72 1951.21 3354.92 1953.01 3352.71 1953.01L3336.67 1953.01C3334.45 1953.01 3332.66 1951.21 3332.66 1949 3332.66 1946.79 3334.45 1944.99 3336.67 1944.99ZM3368.75 1944.99 3384.11 1944.99 3384.79 1944.99C3387.01 1944.99 3388.8 1946.79 3388.8 1949 3388.8 1951.21 3387.01 1953.01 3384.79 1953.01L3384.11 1953.01 3368.75 1953.01C3366.53 1953.01 3364.74 1951.21 3364.74 1949 3364.74 1946.79 3366.53 1944.99 3368.75 1944.99ZM3400.83 1944.99 3416.88 1944.99C3419.09 1944.99 3420.89 1946.79 3420.89 1949 3420.89 1951.21 3419.09 1953.01 3416.88 1953.01L3400.83 1953.01C3398.62 1953.01 3396.82 1951.21 3396.82 1949 3396.82 1946.79 3398.62 1944.99 3400.83 1944.99ZM3432.92 1944.99 3448.96 1944.99C3451.17 1944.99 3452.97 1946.79 3452.97 1949 3452.97 1951.21 3451.17 1953.01 3448.96 1953.01L3432.92 1953.01C3430.7 1953.01 3428.91 1951.21 3428.91 1949 3428.91 1946.79 3430.7 1944.99 3432.92 1944.99ZM3465 1944.99 3481.04 1944.99C3483.26 1944.99 3485.05 1946.79 3485.05 1949 3485.05 1951.21 3483.26 1953.01 3481.04 1953.01L3465 1953.01C3462.78 1953.01 3460.99 1951.21 3460.99 1949 3460.99 1946.79 3462.78 1944.99 3465 1944.99ZM3497.08 1944.99 3513.12 1944.99C3515.34 1944.99 3517.14 1946.79 3517.14 1949 3517.14 1951.21 3515.34 1953.01 3513.12 1953.01L3497.08 1953.01C3494.87 1953.01 3493.07 1951.21 3493.07 1949 3493.07 1946.79 3494.87 1944.99 3497.08 1944.99ZM3529.17 1944.99 3545.21 1944.99C3547.42 1944.99 3549.22 1946.79 3549.22 1949 3549.22 1951.21 3547.42 1953.01 3545.21 1953.01L3529.17 1953.01C3526.95 1953.01 3525.16 1951.21 3525.16 1949 3525.16 1946.79 3526.95 1944.99 3529.17 1944.99ZM3561.25 1944.99 3577.29 1944.99C3579.51 1944.99 3581.3 1946.79 3581.3 1949 3581.3 1951.21 3579.51 1953.01 3577.29 1953.01L3561.25 1953.01C3559.03 1953.01 3557.24 1951.21 3557.24 1949 3557.24 1946.79 3559.03 1944.99 3561.25 1944.99ZM3593.33 1944.99 3609.38 1944.99C3611.59 1944.99 3613.39 1946.79 3613.39 1949 3613.39 1951.21 3611.59 1953.01 3609.38 1953.01L3593.33 1953.01C3591.12 1953.01 3589.32 1951.21 3589.32 1949 3589.32 1946.79 3591.12 1944.99 3593.33 1944.99ZM3625.42 1944.99 3641.46 1944.99C3643.67 1944.99 3645.47 1946.79 3645.47 1949 3645.47 1951.21 3643.67 1953.01 3641.46 1953.01L3625.42 1953.01C3623.2 1953.01 3621.41 1951.21 3621.41 1949 3621.41 1946.79 3623.2 1944.99 3625.42 1944.99ZM3657.5 1944.99 3673.54 1944.99C3675.76 1944.99 3677.55 1946.79 3677.55 1949 3677.55 1951.21 3675.76 1953.01 3673.54 1953.01L3657.5 1953.01C3655.28 1953.01 3653.49 1951.21 3653.49 1949 3653.49 1946.79 3655.28 1944.99 3657.5 1944.99ZM3689.58 1944.99 3705.62 1944.99C3707.84 1944.99 3709.64 1946.79 3709.64 1949 3709.64 1951.21 3707.84 1953.01 3705.62 1953.01L3689.58 1953.01C3687.37 1953.01 3685.57 1951.21 3685.57 1949 3685.57 1946.79 3687.37 1944.99 3689.58 1944.99ZM3721.67 1944.99 3737.71 1944.99C3739.92 1944.99 3741.72 1946.79 3741.72 1949 3741.72 1951.21 3739.92 1953.01 3737.71 1953.01L3721.67 1953.01C3719.45 1953.01 3717.66 1951.21 3717.66 1949 3717.66 1946.79 3719.45 1944.99 3721.67 1944.99ZM3753.75 1944.99 3755.12 1944.99 3769.79 1944.99C3772.01 1944.99 3773.8 1946.79 3773.8 1949 3773.8 1951.21 3772.01 1953.01 3769.79 1953.01L3755.12 1953.01 3753.75 1953.01C3751.53 1953.01 3749.74 1951.21 3749.74 1949 3749.74 1946.79 3751.53 1944.99 3753.75 1944.99ZM3785.83 1944.99 3801.88 1944.99C3804.09 1944.99 3805.89 1946.79 3805.89 1949 3805.89 1951.21 3804.09 1953.01 3801.88 1953.01L3785.83 1953.01C3783.62 1953.01 3781.82 1951.21 3781.82 1949 3781.82 1946.79 3783.62 1944.99 3785.83 1944.99ZM3817.92 1944.99 3833.96 1944.99C3836.17 1944.99 3837.97 1946.79 3837.97 1949 3837.97 1951.21 3836.17 1953.01 3833.96 1953.01L3817.92 1953.01C3815.7 1953.01 3813.91 1951.21 3813.91 1949 3813.91 1946.79 3815.7 1944.99 3817.92 1944.99ZM3850 1944.99 3866.04 1944.99C3868.26 1944.99 3870.05 1946.79 3870.05 1949 3870.05 1951.21 3868.26 1953.01 3866.04 1953.01L3850 1953.01C3847.78 1953.01 3845.99 1951.21 3845.99 1949 3845.99 1946.79 3847.78 1944.99 3850 1944.99ZM3882.08 1944.99 3898.12 1944.99C3900.34 1944.99 3902.14 1946.79 3902.14 1949 3902.14 1951.21 3900.34 1953.01 3898.12 1953.01L3882.08 1953.01C3879.87 1953.01 3878.07 1951.21 3878.07 1949 3878.07 1946.79 3879.87 1944.99 3882.08 1944.99ZM3914.17 1944.99 3930.21 1944.99C3932.42 1944.99 3934.22 1946.79 3934.22 1949 3934.22 1951.21 3932.42 1953.01 3930.21 1953.01L3914.17 1953.01C3911.95 1953.01 3910.16 1951.21 3910.16 1949 3910.16 1946.79 3911.95 1944.99 3914.17 1944.99ZM3946.25 1944.99 3962.29 1944.99C3964.51 1944.99 3966.3 1946.79 3966.3 1949 3966.3 1951.21 3964.51 1953.01 3962.29 1953.01L3946.25 1953.01C3944.03 1953.01 3942.24 1951.21 3942.24 1949 3942.24 1946.79 3944.03 1944.99 3946.25 1944.99ZM3978.33 1944.99 3994.38 1944.99C3996.59 1944.99 3998.39 1946.79 3998.39 1949 3998.39 1951.21 3996.59 1953.01 3994.38 1953.01L3978.33 1953.01C3976.12 1953.01 3974.32 1951.21 3974.32 1949 3974.32 1946.79 3976.12 1944.99 3978.33 1944.99ZM4010.42 1944.99 4026.46 1944.99C4028.67 1944.99 4030.47 1946.79 4030.47 1949 4030.47 1951.21 4028.67 1953.01 4026.46 1953.01L4010.42 1953.01C4008.2 1953.01 4006.41 1951.21 4006.41 1949 4006.41 1946.79 4008.2 1944.99 4010.42 1944.99ZM4042.5 1944.99 4058.54 1944.99C4060.76 1944.99 4062.55 1946.79 4062.55 1949 4062.55 1951.21 4060.76 1953.01 4058.54 1953.01L4042.5 1953.01C4040.28 1953.01 4038.49 1951.21 4038.49 1949 4038.49 1946.79 4040.28 1944.99 4042.5 1944.99ZM4074.58 1944.99 4090.62 1944.99C4092.84 1944.99 4094.64 1946.79 4094.64 1949 4094.64 1951.21 4092.84 1953.01 4090.62 1953.01L4074.58 1953.01C4072.37 1953.01 4070.57 1951.21 4070.57 1949 4070.57 1946.79 4072.37 1944.99 4074.58 1944.99ZM4106.67 1944.99 4122.71 1944.99C4124.92 1944.99 4126.72 1946.79 4126.72 1949 4126.72 1951.21 4124.92 1953.01 4122.71 1953.01L4106.67 1953.01C4104.45 1953.01 4102.66 1951.21 4102.66 1949 4102.66 1946.79 4104.45 1944.99 4106.67 1944.99Z" fill="#00B050" fill-rule="nonzero" fill-opacity="1"/></g><g><path d="M1155 2333.99 1171.04 2333.99C1173.26 2333.99 1175.05 2335.78 1175.05 2338 1175.05 2340.21 1173.26 2342.01 1171.04 2342.01L1155 2342.01C1152.79 2342.01 1150.99 2340.21 1150.99 2338 1150.99 2335.78 1152.79 2333.99 1155 2333.99ZM1187.08 2333.99 1203.12 2333.99C1205.34 2333.99 1207.14 2335.78 1207.14 2338 1207.14 2340.21 1205.34 2342.01 1203.12 2342.01L1187.08 2342.01C1184.87 2342.01 1183.07 2340.21 1183.07 2338 1183.07 2335.78 1184.87 2333.99 1187.08 2333.99ZM1219.17 2333.99 1235.21 2333.99C1237.42 2333.99 1239.22 2335.78 1239.22 2338 1239.22 2340.21 1237.42 2342.01 1235.21 2342.01L1219.17 2342.01C1216.95 2342.01 1215.16 2340.21 1215.16 2338 1215.16 2335.78 1216.95 2333.99 1219.17 2333.99ZM1251.25 2333.99 1267.29 2333.99C1269.51 2333.99 1271.3 2335.78 1271.3 2338 1271.3 2340.21 1269.51 2342.01 1267.29 2342.01L1251.25 2342.01C1249.04 2342.01 1247.24 2340.21 1247.24 2338 1247.24 2335.78 1249.04 2333.99 1251.25 2333.99ZM1283.33 2333.99 1299.38 2333.99C1301.59 2333.99 1303.39 2335.78 1303.39 2338 1303.39 2340.21 1301.59 2342.01 1299.38 2342.01L1283.33 2342.01C1281.12 2342.01 1279.32 2340.21 1279.32 2338 1279.32 2335.78 1281.12 2333.99 1283.33 2333.99ZM1315.42 2333.99 1331.46 2333.99C1333.67 2333.99 1335.47 2335.78 1335.47 2338 1335.47 2340.21 1333.67 2342.01 1331.46 2342.01L1315.42 2342.01C1313.2 2342.01 1311.41 2340.21 1311.41 2338 1311.41 2335.78 1313.2 2333.99 1315.42 2333.99ZM1347.5 2333.99 1363.54 2333.99C1365.76 2333.99 1367.55 2335.78 1367.55 2338 1367.55 2340.21 1365.76 2342.01 1363.54 2342.01L1347.5 2342.01C1345.29 2342.01 1343.49 2340.21 1343.49 2338 1343.49 2335.78 1345.29 2333.99 1347.5 2333.99ZM1379.58 2333.99 1395.62 2333.99C1397.84 2333.99 1399.64 2335.78 1399.64 2338 1399.64 2340.21 1397.84 2342.01 1395.62 2342.01L1379.58 2342.01C1377.37 2342.01 1375.57 2340.21 1375.57 2338 1375.57 2335.78 1377.37 2333.99 1379.58 2333.99ZM1411.67 2333.99 1427.71 2333.99C1429.92 2333.99 1431.72 2335.78 1431.72 2338 1431.72 2340.21 1429.92 2342.01 1427.71 2342.01L1411.67 2342.01C1409.45 2342.01 1407.66 2340.21 1407.66 2338 1407.66 2335.78 1409.45 2333.99 1411.67 2333.99ZM1443.75 2333.99 1459.79 2333.99C1462.01 2333.99 1463.8 2335.78 1463.8 2338 1463.8 2340.21 1462.01 2342.01 1459.79 2342.01L1443.75 2342.01C1441.54 2342.01 1439.74 2340.21 1439.74 2338 1439.74 2335.78 1441.54 2333.99 1443.75 2333.99ZM1475.83 2333.99 1491.88 2333.99C1494.09 2333.99 1495.89 2335.78 1495.89 2338 1495.89 2340.21 1494.09 2342.01 1491.88 2342.01L1475.83 2342.01C1473.62 2342.01 1471.82 2340.21 1471.82 2338 1471.82 2335.78 1473.62 2333.99 1475.83 2333.99ZM1507.92 2333.99 1523.96 2333.99C1526.17 2333.99 1527.97 2335.78 1527.97 2338 1527.97 2340.21 1526.17 2342.01 1523.96 2342.01L1507.92 2342.01C1505.7 2342.01 1503.91 2340.21 1503.91 2338 1503.91 2335.78 1505.7 2333.99 1507.92 2333.99ZM1540 2333.99 1556.04 2333.99C1558.26 2333.99 1560.05 2335.78 1560.05 2338 1560.05 2340.21 1558.26 2342.01 1556.04 2342.01L1540 2342.01C1537.79 2342.01 1535.99 2340.21 1535.99 2338 1535.99 2335.78 1537.79 2333.99 1540 2333.99ZM1572.08 2333.99 1588.12 2333.99C1590.34 2333.99 1592.14 2335.78 1592.14 2338 1592.14 2340.21 1590.34 2342.01 1588.12 2342.01L1572.08 2342.01C1569.87 2342.01 1568.07 2340.21 1568.07 2338 1568.07 2335.78 1569.87 2333.99 1572.08 2333.99ZM1604.17 2333.99 1620.21 2333.99C1622.42 2333.99 1624.22 2335.78 1624.22 2338 1624.22 2340.21 1622.42 2342.01 1620.21 2342.01L1604.17 2342.01C1601.95 2342.01 1600.16 2340.21 1600.16 2338 1600.16 2335.78 1601.95 2333.99 1604.17 2333.99ZM1636.25 2333.99 1652.29 2333.99C1654.51 2333.99 1656.3 2335.78 1656.3 2338 1656.3 2340.21 1654.51 2342.01 1652.29 2342.01L1636.25 2342.01C1634.04 2342.01 1632.24 2340.21 1632.24 2338 1632.24 2335.78 1634.04 2333.99 1636.25 2333.99ZM1668.33 2333.99 1684.38 2333.99C1686.59 2333.99 1688.39 2335.78 1688.39 2338 1688.39 2340.21 1686.59 2342.01 1684.38 2342.01L1668.33 2342.01C1666.12 2342.01 1664.32 2340.21 1664.32 2338 1664.32 2335.78 1666.12 2333.99 1668.33 2333.99ZM1700.42 2333.99 1716.46 2333.99C1718.67 2333.99 1720.47 2335.78 1720.47 2338 1720.47 2340.21 1718.67 2342.01 1716.46 2342.01L1700.42 2342.01C1698.2 2342.01 1696.41 2340.21 1696.41 2338 1696.41 2335.78 1698.2 2333.99 1700.42 2333.99ZM1732.5 2333.99 1748.54 2333.99C1750.76 2333.99 1752.55 2335.78 1752.55 2338 1752.55 2340.21 1750.76 2342.01 1748.54 2342.01L1732.5 2342.01C1730.29 2342.01 1728.49 2340.21 1728.49 2338 1728.49 2335.78 1730.29 2333.99 1732.5 2333.99ZM1764.58 2333.99 1780.62 2333.99C1782.84 2333.99 1784.64 2335.78 1784.64 2338 1784.64 2340.21 1782.84 2342.01 1780.62 2342.01L1764.58 2342.01C1762.37 2342.01 1760.57 2340.21 1760.57 2338 1760.57 2335.78 1762.37 2333.99 1764.58 2333.99ZM1796.67 2333.99 1812.71 2333.99C1814.92 2333.99 1816.72 2335.78 1816.72 2338 1816.72 2340.21 1814.92 2342.01 1812.71 2342.01L1796.67 2342.01C1794.45 2342.01 1792.66 2340.21 1792.66 2338 1792.66 2335.78 1794.45 2333.99 1796.67 2333.99ZM1828.75 2333.99 1844.79 2333.99C1847.01 2333.99 1848.8 2335.78 1848.8 2338 1848.8 2340.21 1847.01 2342.01 1844.79 2342.01L1828.75 2342.01C1826.54 2342.01 1824.74 2340.21 1824.74 2338 1824.74 2335.78 1826.54 2333.99 1828.75 2333.99ZM1860.83 2333.99 1876.88 2333.99C1879.09 2333.99 1880.89 2335.78 1880.89 2338 1880.89 2340.21 1879.09 2342.01 1876.88 2342.01L1860.83 2342.01C1858.62 2342.01 1856.82 2340.21 1856.82 2338 1856.82 2335.78 1858.62 2333.99 1860.83 2333.99ZM1892.92 2333.99 1898.06 2333.99 1908.96 2333.99C1911.17 2333.99 1912.97 2335.78 1912.97 2338 1912.97 2340.21 1911.17 2342.01 1908.96 2342.01L1898.06 2342.01 1892.92 2342.01C1890.7 2342.01 1888.91 2340.21 1888.91 2338 1888.91 2335.78 1890.7 2333.99 1892.92 2333.99ZM1925 2333.99 1941.04 2333.99C1943.26 2333.99 1945.05 2335.78 1945.05 2338 1945.05 2340.21 1943.26 2342.01 1941.04 2342.01L1925 2342.01C1922.79 2342.01 1920.99 2340.21 1920.99 2338 1920.99 2335.78 1922.79 2333.99 1925 2333.99ZM1957.08 2333.99 1973.12 2333.99C1975.34 2333.99 1977.14 2335.78 1977.14 2338 1977.14 2340.21 1975.34 2342.01 1973.12 2342.01L1957.08 2342.01C1954.87 2342.01 1953.07 2340.21 1953.07 2338 1953.07 2335.78 1954.87 2333.99 1957.08 2333.99ZM1989.17 2333.99 2005.21 2333.99C2007.42 2333.99 2009.22 2335.78 2009.22 2338 2009.22 2340.21 2007.42 2342.01 2005.21 2342.01L1989.17 2342.01C1986.95 2342.01 1985.16 2340.21 1985.16 2338 1985.16 2335.78 1986.95 2333.99 1989.17 2333.99ZM2021.25 2333.99 2037.29 2333.99C2039.51 2333.99 2041.3 2335.78 2041.3 2338 2041.3 2340.21 2039.51 2342.01 2037.29 2342.01L2021.25 2342.01C2019.04 2342.01 2017.24 2340.21 2017.24 2338 2017.24 2335.78 2019.04 2333.99 2021.25 2333.99ZM2053.33 2333.99 2069.38 2333.99C2071.59 2333.99 2073.39 2335.78 2073.39 2338 2073.39 2340.21 2071.59 2342.01 2069.38 2342.01L2053.33 2342.01C2051.12 2342.01 2049.32 2340.21 2049.32 2338 2049.32 2335.78 2051.12 2333.99 2053.33 2333.99ZM2085.42 2333.99 2101.46 2333.99C2103.67 2333.99 2105.47 2335.78 2105.47 2338 2105.47 2340.21 2103.67 2342.01 2101.46 2342.01L2085.42 2342.01C2083.2 2342.01 2081.41 2340.21 2081.41 2338 2081.41 2335.78 2083.2 2333.99 2085.42 2333.99ZM2117.5 2333.99 2133.54 2333.99C2135.76 2333.99 2137.55 2335.78 2137.55 2338 2137.55 2340.21 2135.76 2342.01 2133.54 2342.01L2117.5 2342.01C2115.29 2342.01 2113.49 2340.21 2113.49 2338 2113.49 2335.78 2115.29 2333.99 2117.5 2333.99ZM2149.58 2333.99 2165.62 2333.99C2167.84 2333.99 2169.64 2335.78 2169.64 2338 2169.64 2340.21 2167.84 2342.01 2165.62 2342.01L2149.58 2342.01C2147.37 2342.01 2145.57 2340.21 2145.57 2338 2145.57 2335.78 2147.37 2333.99 2149.58 2333.99ZM2181.67 2333.99 2197.71 2333.99C2199.92 2333.99 2201.72 2335.78 2201.72 2338 2201.72 2340.21 2199.92 2342.01 2197.71 2342.01L2181.67 2342.01C2179.45 2342.01 2177.66 2340.21 2177.66 2338 2177.66 2335.78 2179.45 2333.99 2181.67 2333.99ZM2213.75 2333.99 2229.79 2333.99C2232.01 2333.99 2233.8 2335.78 2233.8 2338 2233.8 2340.21 2232.01 2342.01 2229.79 2342.01L2213.75 2342.01C2211.54 2342.01 2209.74 2340.21 2209.74 2338 2209.74 2335.78 2211.54 2333.99 2213.75 2333.99ZM2245.83 2333.99 2261.88 2333.99C2264.09 2333.99 2265.89 2335.78 2265.89 2338 2265.89 2340.21 2264.09 2342.01 2261.88 2342.01L2245.83 2342.01C2243.62 2342.01 2241.82 2340.21 2241.82 2338 2241.82 2335.78 2243.62 2333.99 2245.83 2333.99ZM2277.92 2333.99 2293.96 2333.99C2296.17 2333.99 2297.97 2335.78 2297.97 2338 2297.97 2340.21 2296.17 2342.01 2293.96 2342.01L2277.92 2342.01C2275.7 2342.01 2273.91 2340.21 2273.91 2338 2273.91 2335.78 2275.7 2333.99 2277.92 2333.99ZM2310 2333.99 2326.04 2333.99C2328.26 2333.99 2330.05 2335.78 2330.05 2338 2330.05 2340.21 2328.26 2342.01 2326.04 2342.01L2310 2342.01C2307.79 2342.01 2305.99 2340.21 2305.99 2338 2305.99 2335.78 2307.79 2333.99 2310 2333.99ZM2342.08 2333.99 2358.12 2333.99C2360.34 2333.99 2362.14 2335.78 2362.14 2338 2362.14 2340.21 2360.34 2342.01 2358.12 2342.01L2342.08 2342.01C2339.87 2342.01 2338.07 2340.21 2338.07 2338 2338.07 2335.78 2339.87 2333.99 2342.08 2333.99ZM2374.17 2333.99 2390.21 2333.99C2392.42 2333.99 2394.22 2335.78 2394.22 2338 2394.22 2340.21 2392.42 2342.01 2390.21 2342.01L2374.17 2342.01C2371.95 2342.01 2370.16 2340.21 2370.16 2338 2370.16 2335.78 2371.95 2333.99 2374.17 2333.99ZM2406.25 2333.99 2422.29 2333.99C2424.51 2333.99 2426.3 2335.78 2426.3 2338 2426.3 2340.21 2424.51 2342.01 2422.29 2342.01L2406.25 2342.01C2404.04 2342.01 2402.24 2340.21 2402.24 2338 2402.24 2335.78 2404.04 2333.99 2406.25 2333.99ZM2438.33 2333.99 2454.38 2333.99C2456.59 2333.99 2458.39 2335.78 2458.39 2338 2458.39 2340.21 2456.59 2342.01 2454.38 2342.01L2438.33 2342.01C2436.12 2342.01 2434.32 2340.21 2434.32 2338 2434.32 2335.78 2436.12 2333.99 2438.33 2333.99ZM2470.42 2333.99 2486.46 2333.99C2488.67 2333.99 2490.47 2335.78 2490.47 2338 2490.47 2340.21 2488.67 2342.01 2486.46 2342.01L2470.42 2342.01C2468.2 2342.01 2466.41 2340.21 2466.41 2338 2466.41 2335.78 2468.2 2333.99 2470.42 2333.99ZM2502.5 2333.99 2518.54 2333.99C2520.76 2333.99 2522.55 2335.78 2522.55 2338 2522.55 2340.21 2520.76 2342.01 2518.54 2342.01L2502.5 2342.01C2500.29 2342.01 2498.49 2340.21 2498.49 2338 2498.49 2335.78 2500.29 2333.99 2502.5 2333.99ZM2534.58 2333.99 2550.62 2333.99C2552.84 2333.99 2554.64 2335.78 2554.64 2338 2554.64 2340.21 2552.84 2342.01 2550.62 2342.01L2534.58 2342.01C2532.37 2342.01 2530.57 2340.21 2530.57 2338 2530.57 2335.78 2532.37 2333.99 2534.58 2333.99ZM2566.67 2333.99 2582.71 2333.99C2584.92 2333.99 2586.72 2335.78 2586.72 2338 2586.72 2340.21 2584.92 2342.01 2582.71 2342.01L2566.67 2342.01C2564.45 2342.01 2562.66 2340.21 2562.66 2338 2562.66 2335.78 2564.45 2333.99 2566.67 2333.99ZM2598.75 2333.99 2614.79 2333.99C2617.01 2333.99 2618.8 2335.78 2618.8 2338 2618.8 2340.21 2617.01 2342.01 2614.79 2342.01L2598.75 2342.01C2596.54 2342.01 2594.74 2340.21 2594.74 2338 2594.74 2335.78 2596.54 2333.99 2598.75 2333.99ZM2630.83 2333.99 2641.09 2333.99 2646.88 2333.99C2649.09 2333.99 2650.89 2335.78 2650.89 2338 2650.89 2340.21 2649.09 2342.01 2646.88 2342.01L2641.09 2342.01 2630.83 2342.01C2628.62 2342.01 2626.82 2340.21 2626.82 2338 2626.82 2335.78 2628.62 2333.99 2630.83 2333.99ZM2662.92 2333.99 2678.96 2333.99C2681.17 2333.99 2682.97 2335.78 2682.97 2338 2682.97 2340.21 2681.17 2342.01 2678.96 2342.01L2662.92 2342.01C2660.7 2342.01 2658.91 2340.21 2658.91 2338 2658.91 2335.78 2660.7 2333.99 2662.92 2333.99ZM2695 2333.99 2711.04 2333.99C2713.26 2333.99 2715.05 2335.78 2715.05 2338 2715.05 2340.21 2713.26 2342.01 2711.04 2342.01L2695 2342.01C2692.78 2342.01 2690.99 2340.21 2690.99 2338 2690.99 2335.78 2692.78 2333.99 2695 2333.99ZM2727.08 2333.99 2743.12 2333.99C2745.34 2333.99 2747.14 2335.78 2747.14 2338 2747.14 2340.21 2745.34 2342.01 2743.12 2342.01L2727.08 2342.01C2724.87 2342.01 2723.07 2340.21 2723.07 2338 2723.07 2335.78 2724.87 2333.99 2727.08 2333.99ZM2759.17 2333.99 2775.21 2333.99C2777.42 2333.99 2779.22 2335.78 2779.22 2338 2779.22 2340.21 2777.42 2342.01 2775.21 2342.01L2759.17 2342.01C2756.95 2342.01 2755.16 2340.21 2755.16 2338 2755.16 2335.78 2756.95 2333.99 2759.17 2333.99ZM2791.25 2333.99 2807.29 2333.99C2809.51 2333.99 2811.3 2335.78 2811.3 2338 2811.3 2340.21 2809.51 2342.01 2807.29 2342.01L2791.25 2342.01C2789.03 2342.01 2787.24 2340.21 2787.24 2338 2787.24 2335.78 2789.03 2333.99 2791.25 2333.99ZM2823.33 2333.99 2839.38 2333.99C2841.59 2333.99 2843.39 2335.78 2843.39 2338 2843.39 2340.21 2841.59 2342.01 2839.38 2342.01L2823.33 2342.01C2821.12 2342.01 2819.32 2340.21 2819.32 2338 2819.32 2335.78 2821.12 2333.99 2823.33 2333.99ZM2855.42 2333.99 2871.46 2333.99C2873.67 2333.99 2875.47 2335.78 2875.47 2338 2875.47 2340.21 2873.67 2342.01 2871.46 2342.01L2855.42 2342.01C2853.2 2342.01 2851.41 2340.21 2851.41 2338 2851.41 2335.78 2853.2 2333.99 2855.42 2333.99ZM2887.5 2333.99 2903.54 2333.99C2905.76 2333.99 2907.55 2335.78 2907.55 2338 2907.55 2340.21 2905.76 2342.01 2903.54 2342.01L2887.5 2342.01C2885.28 2342.01 2883.49 2340.21 2883.49 2338 2883.49 2335.78 2885.28 2333.99 2887.5 2333.99ZM2919.58 2333.99 2935.62 2333.99C2937.84 2333.99 2939.64 2335.78 2939.64 2338 2939.64 2340.21 2937.84 2342.01 2935.62 2342.01L2919.58 2342.01C2917.37 2342.01 2915.57 2340.21 2915.57 2338 2915.57 2335.78 2917.37 2333.99 2919.58 2333.99ZM2951.67 2333.99 2967.71 2333.99C2969.92 2333.99 2971.72 2335.78 2971.72 2338 2971.72 2340.21 2969.92 2342.01 2967.71 2342.01L2951.67 2342.01C2949.45 2342.01 2947.66 2340.21 2947.66 2338 2947.66 2335.78 2949.45 2333.99 2951.67 2333.99ZM2983.75 2333.99 2999.79 2333.99C3002.01 2333.99 3003.8 2335.78 3003.8 2338 3003.8 2340.21 3002.01 2342.01 2999.79 2342.01L2983.75 2342.01C2981.53 2342.01 2979.74 2340.21 2979.74 2338 2979.74 2335.78 2981.53 2333.99 2983.75 2333.99ZM3015.83 2333.99 3031.88 2333.99C3034.09 2333.99 3035.89 2335.78 3035.89 2338 3035.89 2340.21 3034.09 2342.01 3031.88 2342.01L3015.83 2342.01C3013.62 2342.01 3011.82 2340.21 3011.82 2338 3011.82 2335.78 3013.62 2333.99 3015.83 2333.99ZM3047.92 2333.99 3063.96 2333.99C3066.17 2333.99 3067.97 2335.78 3067.97 2338 3067.97 2340.21 3066.17 2342.01 3063.96 2342.01L3047.92 2342.01C3045.7 2342.01 3043.91 2340.21 3043.91 2338 3043.91 2335.78 3045.7 2333.99 3047.92 2333.99ZM3080 2333.99 3096.04 2333.99C3098.26 2333.99 3100.05 2335.78 3100.05 2338 3100.05 2340.21 3098.26 2342.01 3096.04 2342.01L3080 2342.01C3077.78 2342.01 3075.99 2340.21 3075.99 2338 3075.99 2335.78 3077.78 2333.99 3080 2333.99ZM3112.08 2333.99 3128.12 2333.99C3130.34 2333.99 3132.14 2335.78 3132.14 2338 3132.14 2340.21 3130.34 2342.01 3128.12 2342.01L3112.08 2342.01C3109.87 2342.01 3108.07 2340.21 3108.07 2338 3108.07 2335.78 3109.87 2333.99 3112.08 2333.99ZM3144.17 2333.99 3160.21 2333.99C3162.42 2333.99 3164.22 2335.78 3164.22 2338 3164.22 2340.21 3162.42 2342.01 3160.21 2342.01L3144.17 2342.01C3141.95 2342.01 3140.16 2340.21 3140.16 2338 3140.16 2335.78 3141.95 2333.99 3144.17 2333.99ZM3176.25 2333.99 3192.29 2333.99C3194.51 2333.99 3196.3 2335.78 3196.3 2338 3196.3 2340.21 3194.51 2342.01 3192.29 2342.01L3176.25 2342.01C3174.03 2342.01 3172.24 2340.21 3172.24 2338 3172.24 2335.78 3174.03 2333.99 3176.25 2333.99ZM3208.33 2333.99 3224.38 2333.99C3226.59 2333.99 3228.39 2335.78 3228.39 2338 3228.39 2340.21 3226.59 2342.01 3224.38 2342.01L3208.33 2342.01C3206.12 2342.01 3204.32 2340.21 3204.32 2338 3204.32 2335.78 3206.12 2333.99 3208.33 2333.99ZM3240.42 2333.99 3256.46 2333.99C3258.67 2333.99 3260.47 2335.78 3260.47 2338 3260.47 2340.21 3258.67 2342.01 3256.46 2342.01L3240.42 2342.01C3238.2 2342.01 3236.41 2340.21 3236.41 2338 3236.41 2335.78 3238.2 2333.99 3240.42 2333.99ZM3272.5 2333.99 3288.54 2333.99C3290.76 2333.99 3292.55 2335.78 3292.55 2338 3292.55 2340.21 3290.76 2342.01 3288.54 2342.01L3272.5 2342.01C3270.28 2342.01 3268.49 2340.21 3268.49 2338 3268.49 2335.78 3270.28 2333.99 3272.5 2333.99ZM3304.58 2333.99 3320.62 2333.99C3322.84 2333.99 3324.64 2335.78 3324.64 2338 3324.64 2340.21 3322.84 2342.01 3320.62 2342.01L3304.58 2342.01C3302.37 2342.01 3300.57 2340.21 3300.57 2338 3300.57 2335.78 3302.37 2333.99 3304.58 2333.99ZM3336.67 2333.99 3352.71 2333.99C3354.92 2333.99 3356.72 2335.78 3356.72 2338 3356.72 2340.21 3354.92 2342.01 3352.71 2342.01L3336.67 2342.01C3334.45 2342.01 3332.66 2340.21 3332.66 2338 3332.66 2335.78 3334.45 2333.99 3336.67 2333.99ZM3368.75 2333.99 3384.11 2333.99 3384.79 2333.99C3387.01 2333.99 3388.8 2335.78 3388.8 2338 3388.8 2340.21 3387.01 2342.01 3384.79 2342.01L3384.11 2342.01 3368.75 2342.01C3366.53 2342.01 3364.74 2340.21 3364.74 2338 3364.74 2335.78 3366.53 2333.99 3368.75 2333.99ZM3400.83 2333.99 3416.88 2333.99C3419.09 2333.99 3420.89 2335.78 3420.89 2338 3420.89 2340.21 3419.09 2342.01 3416.88 2342.01L3400.83 2342.01C3398.62 2342.01 3396.82 2340.21 3396.82 2338 3396.82 2335.78 3398.62 2333.99 3400.83 2333.99ZM3432.92 2333.99 3448.96 2333.99C3451.17 2333.99 3452.97 2335.78 3452.97 2338 3452.97 2340.21 3451.17 2342.01 3448.96 2342.01L3432.92 2342.01C3430.7 2342.01 3428.91 2340.21 3428.91 2338 3428.91 2335.78 3430.7 2333.99 3432.92 2333.99ZM3465 2333.99 3481.04 2333.99C3483.26 2333.99 3485.05 2335.78 3485.05 2338 3485.05 2340.21 3483.26 2342.01 3481.04 2342.01L3465 2342.01C3462.78 2342.01 3460.99 2340.21 3460.99 2338 3460.99 2335.78 3462.78 2333.99 3465 2333.99ZM3497.08 2333.99 3513.12 2333.99C3515.34 2333.99 3517.14 2335.78 3517.14 2338 3517.14 2340.21 3515.34 2342.01 3513.12 2342.01L3497.08 2342.01C3494.87 2342.01 3493.07 2340.21 3493.07 2338 3493.07 2335.78 3494.87 2333.99 3497.08 2333.99ZM3529.17 2333.99 3545.21 2333.99C3547.42 2333.99 3549.22 2335.78 3549.22 2338 3549.22 2340.21 3547.42 2342.01 3545.21 2342.01L3529.17 2342.01C3526.95 2342.01 3525.16 2340.21 3525.16 2338 3525.16 2335.78 3526.95 2333.99 3529.17 2333.99ZM3561.25 2333.99 3577.29 2333.99C3579.51 2333.99 3581.3 2335.78 3581.3 2338 3581.3 2340.21 3579.51 2342.01 3577.29 2342.01L3561.25 2342.01C3559.03 2342.01 3557.24 2340.21 3557.24 2338 3557.24 2335.78 3559.03 2333.99 3561.25 2333.99ZM3593.33 2333.99 3609.38 2333.99C3611.59 2333.99 3613.39 2335.78 3613.39 2338 3613.39 2340.21 3611.59 2342.01 3609.38 2342.01L3593.33 2342.01C3591.12 2342.01 3589.32 2340.21 3589.32 2338 3589.32 2335.78 3591.12 2333.99 3593.33 2333.99ZM3625.42 2333.99 3641.46 2333.99C3643.67 2333.99 3645.47 2335.78 3645.47 2338 3645.47 2340.21 3643.67 2342.01 3641.46 2342.01L3625.42 2342.01C3623.2 2342.01 3621.41 2340.21 3621.41 2338 3621.41 2335.78 3623.2 2333.99 3625.42 2333.99ZM3657.5 2333.99 3673.54 2333.99C3675.76 2333.99 3677.55 2335.78 3677.55 2338 3677.55 2340.21 3675.76 2342.01 3673.54 2342.01L3657.5 2342.01C3655.28 2342.01 3653.49 2340.21 3653.49 2338 3653.49 2335.78 3655.28 2333.99 3657.5 2333.99ZM3689.58 2333.99 3705.62 2333.99C3707.84 2333.99 3709.64 2335.78 3709.64 2338 3709.64 2340.21 3707.84 2342.01 3705.62 2342.01L3689.58 2342.01C3687.37 2342.01 3685.57 2340.21 3685.57 2338 3685.57 2335.78 3687.37 2333.99 3689.58 2333.99ZM3721.67 2333.99 3737.71 2333.99C3739.92 2333.99 3741.72 2335.78 3741.72 2338 3741.72 2340.21 3739.92 2342.01 3737.71 2342.01L3721.67 2342.01C3719.45 2342.01 3717.66 2340.21 3717.66 2338 3717.66 2335.78 3719.45 2333.99 3721.67 2333.99ZM3753.75 2333.99 3755.12 2333.99 3769.79 2333.99C3772.01 2333.99 3773.8 2335.78 3773.8 2338 3773.8 2340.21 3772.01 2342.01 3769.79 2342.01L3755.12 2342.01 3753.75 2342.01C3751.53 2342.01 3749.74 2340.21 3749.74 2338 3749.74 2335.78 3751.53 2333.99 3753.75 2333.99ZM3785.83 2333.99 3801.88 2333.99C3804.09 2333.99 3805.89 2335.78 3805.89 2338 3805.89 2340.21 3804.09 2342.01 3801.88 2342.01L3785.83 2342.01C3783.62 2342.01 3781.82 2340.21 3781.82 2338 3781.82 2335.78 3783.62 2333.99 3785.83 2333.99ZM3817.92 2333.99 3833.96 2333.99C3836.17 2333.99 3837.97 2335.78 3837.97 2338 3837.97 2340.21 3836.17 2342.01 3833.96 2342.01L3817.92 2342.01C3815.7 2342.01 3813.91 2340.21 3813.91 2338 3813.91 2335.78 3815.7 2333.99 3817.92 2333.99ZM3850 2333.99 3866.04 2333.99C3868.26 2333.99 3870.05 2335.78 3870.05 2338 3870.05 2340.21 3868.26 2342.01 3866.04 2342.01L3850 2342.01C3847.78 2342.01 3845.99 2340.21 3845.99 2338 3845.99 2335.78 3847.78 2333.99 3850 2333.99ZM3882.08 2333.99 3898.12 2333.99C3900.34 2333.99 3902.14 2335.78 3902.14 2338 3902.14 2340.21 3900.34 2342.01 3898.12 2342.01L3882.08 2342.01C3879.87 2342.01 3878.07 2340.21 3878.07 2338 3878.07 2335.78 3879.87 2333.99 3882.08 2333.99ZM3914.17 2333.99 3930.21 2333.99C3932.42 2333.99 3934.22 2335.78 3934.22 2338 3934.22 2340.21 3932.42 2342.01 3930.21 2342.01L3914.17 2342.01C3911.95 2342.01 3910.16 2340.21 3910.16 2338 3910.16 2335.78 3911.95 2333.99 3914.17 2333.99ZM3946.25 2333.99 3962.29 2333.99C3964.51 2333.99 3966.3 2335.78 3966.3 2338 3966.3 2340.21 3964.51 2342.01 3962.29 2342.01L3946.25 2342.01C3944.03 2342.01 3942.24 2340.21 3942.24 2338 3942.24 2335.78 3944.03 2333.99 3946.25 2333.99ZM3978.33 2333.99 3994.38 2333.99C3996.59 2333.99 3998.39 2335.78 3998.39 2338 3998.39 2340.21 3996.59 2342.01 3994.38 2342.01L3978.33 2342.01C3976.12 2342.01 3974.32 2340.21 3974.32 2338 3974.32 2335.78 3976.12 2333.99 3978.33 2333.99ZM4010.42 2333.99 4026.46 2333.99C4028.67 2333.99 4030.47 2335.78 4030.47 2338 4030.47 2340.21 4028.67 2342.01 4026.46 2342.01L4010.42 2342.01C4008.2 2342.01 4006.41 2340.21 4006.41 2338 4006.41 2335.78 4008.2 2333.99 4010.42 2333.99ZM4042.5 2333.99 4058.54 2333.99C4060.76 2333.99 4062.55 2335.78 4062.55 2338 4062.55 2340.21 4060.76 2342.01 4058.54 2342.01L4042.5 2342.01C4040.28 2342.01 4038.49 2340.21 4038.49 2338 4038.49 2335.78 4040.28 2333.99 4042.5 2333.99ZM4074.58 2333.99 4090.62 2333.99C4092.84 2333.99 4094.64 2335.78 4094.64 2338 4094.64 2340.21 4092.84 2342.01 4090.62 2342.01L4074.58 2342.01C4072.37 2342.01 4070.57 2340.21 4070.57 2338 4070.57 2335.78 4072.37 2333.99 4074.58 2333.99ZM4106.67 2333.99 4122.71 2333.99C4124.92 2333.99 4126.72 2335.78 4126.72 2338 4126.72 2340.21 4124.92 2342.01 4122.71 2342.01L4106.67 2342.01C4104.45 2342.01 4102.66 2340.21 4102.66 2338 4102.66 2335.78 4104.45 2333.99 4106.67 2333.99Z" fill="#FF0000" fill-rule="nonzero" fill-opacity="1"/></g><g><text fill="#000000" fill-opacity="1" font-family="Calibri,Calibri_MSFontService,sans-serif" font-style="normal" font-variant="normal" font-weight="400" font-stretch="normal" font-size="46" text-anchor="start" direction="ltr" writing-mode="lr-tb" unicode-bidi="normal" text-decoration="none" transform="matrix(1 0 0 1 903.833 3908)">0</text></g><g><text fill="#000000" fill-opacity="1" font-family="Calibri,Calibri_MSFontService,sans-serif" font-style="normal" font-variant="normal" font-weight="400" font-stretch="normal" font-size="46" text-anchor="start" direction="ltr" writing-mode="lr-tb" unicode-bidi="normal" text-decoration="none" transform="matrix(1 0 0 1 880.641 3713)">10</text></g><g><text fill="#000000" fill-opacity="1" font-family="Calibri,Calibri_MSFontService,sans-serif" font-style="normal" font-variant="normal" font-weight="400" font-stretch="normal" font-size="46" text-anchor="start" direction="ltr" writing-mode="lr-tb" unicode-bidi="normal" text-decoration="none" transform="matrix(1 0 0 1 880.641 3519)">20</text></g><g><text fill="#000000" fill-opacity="1" font-family="Calibri,Calibri_MSFontService,sans-serif" font-style="normal" font-variant="normal" font-weight="400" font-stretch="normal" font-size="46" text-anchor="start" direction="ltr" writing-mode="lr-tb" unicode-bidi="normal" text-decoration="none" transform="matrix(1 0 0 1 880.641 3324)">30</text></g><g><text fill="#000000" fill-opacity="1" font-family="Calibri,Calibri_MSFontService,sans-serif" font-style="normal" font-variant="normal" font-weight="400" font-stretch="normal" font-size="46" text-anchor="start" direction="ltr" writing-mode="lr-tb" unicode-bidi="normal" text-decoration="none" transform="matrix(1 0 0 1 880.641 3129)">40</text></g><g><text fill="#000000" fill-opacity="1" font-family="Calibri,Calibri_MSFontService,sans-serif" font-style="normal" font-variant="normal" font-weight="400" font-stretch="normal" font-size="46" text-anchor="start" direction="ltr" writing-mode="lr-tb" unicode-bidi="normal" text-decoration="none" transform="matrix(1 0 0 1 880.641 2935)">50</text></g><g><text fill="#000000" fill-opacity="1" font-family="Calibri,Calibri_MSFontService,sans-serif" font-style="normal" font-variant="normal" font-weight="400" font-stretch="normal" font-size="46" text-anchor="start" direction="ltr" writing-mode="lr-tb" unicode-bidi="normal" text-decoration="none" transform="matrix(1 0 0 1 880.641 2740)">60</text></g><g><text fill="#000000" fill-opacity="1" font-family="Calibri,Calibri_MSFontService,sans-serif" font-style="normal" font-variant="normal" font-weight="400" font-stretch="normal" font-size="46" text-anchor="start" direction="ltr" writing-mode="lr-tb" unicode-bidi="normal" text-decoration="none" transform="matrix(1 0 0 1 880.641 2545)">70</text></g><g><text fill="#000000" fill-opacity="1" font-family="Calibri,Calibri_MSFontService,sans-serif" font-style="normal" font-variant="normal" font-weight="400" font-stretch="normal" font-size="46" text-anchor="start" direction="ltr" writing-mode="lr-tb" unicode-bidi="normal" text-decoration="none" transform="matrix(1 0 0 1 880.641 2351)">80</text></g><g><text fill="#000000" fill-opacity="1" font-family="Calibri,Calibri_MSFontService,sans-serif" font-style="normal" font-variant="normal" font-weight="400" font-stretch="normal" font-size="46" text-anchor="start" direction="ltr" writing-mode="lr-tb" unicode-bidi="normal" text-decoration="none" transform="matrix(1 0 0 1 880.641 2156)">90</text></g><g><text fill="#000000" fill-opacity="1" font-family="Calibri,Calibri_MSFontService,sans-serif" font-style="normal" font-variant="normal" font-weight="400" font-stretch="normal" font-size="46" text-anchor="start" direction="ltr" writing-mode="lr-tb" unicode-bidi="normal" text-decoration="none" transform="matrix(1 0 0 1 857.45 1961)">100</text></g><g><text fill="#000000" fill-opacity="1" font-family="Calibri,Calibri_MSFontService,sans-serif" font-style="normal" font-variant="normal" font-weight="400" font-stretch="normal" font-size="46" text-anchor="start" direction="ltr" writing-mode="lr-tb" unicode-bidi="normal" text-decoration="none" transform="matrix(1 0 0 1 1133.14 3969)">S1</text></g><g><text fill="#000000" fill-opacity="1" font-family="Calibri,Calibri_MSFontService,sans-serif" font-style="normal" font-variant="normal" font-weight="400" font-stretch="normal" font-size="46" text-anchor="start" direction="ltr" writing-mode="lr-tb" unicode-bidi="normal" text-decoration="none" transform="matrix(1 0 0 1 1504.55 3969)">S2</text></g><g><text fill="#000000" fill-opacity="1" font-family="Calibri,Calibri_MSFontService,sans-serif" font-style="normal" font-variant="normal" font-weight="400" font-stretch="normal" font-size="46" text-anchor="start" direction="ltr" writing-mode="lr-tb" unicode-bidi="normal" text-decoration="none" transform="matrix(1 0 0 1 1875.96 3969)">S3</text></g><g><text fill="#000000" fill-opacity="1" font-family="Calibri,Calibri_MSFontService,sans-serif" font-style="normal" font-variant="normal" font-weight="400" font-stretch="normal" font-size="46" text-anchor="start" direction="ltr" writing-mode="lr-tb" unicode-bidi="normal" text-decoration="none" transform="matrix(1 0 0 1 2247.36 3969)">S4</text></g><g><text fill="#000000" fill-opacity="1" font-family="Calibri,Calibri_MSFontService,sans-serif" font-style="normal" font-variant="normal" font-weight="400" font-stretch="normal" font-size="46" text-anchor="start" direction="ltr" writing-mode="lr-tb" unicode-bidi="normal" text-decoration="none" transform="matrix(1 0 0 1 2618.77 3969)">S5</text></g><g><text fill="#000000" fill-opacity="1" font-family="Calibri,Calibri_MSFontService,sans-serif" font-style="normal" font-variant="normal" font-weight="400" font-stretch="normal" font-size="46" text-anchor="start" direction="ltr" writing-mode="lr-tb" unicode-bidi="normal" text-decoration="none" transform="matrix(1 0 0 1 2990.18 3969)">S6</text></g><g><text fill="#000000" fill-opacity="1" font-family="Calibri,Calibri_MSFontService,sans-serif" font-style="normal" font-variant="normal" font-weight="400" font-stretch="normal" font-size="46" text-anchor="start" direction="ltr" writing-mode="lr-tb" unicode-bidi="normal" text-decoration="none" transform="matrix(1 0 0 1 3361.59 3969)">S7</text></g><g><text fill="#000000" fill-opacity="1" font-family="Calibri,Calibri_MSFontService,sans-serif" font-style="normal" font-variant="normal" font-weight="400" font-stretch="normal" font-size="46" text-anchor="start" direction="ltr" writing-mode="lr-tb" unicode-bidi="normal" text-decoration="none" transform="matrix(1 0 0 1 3732.99 3969)">S8</text></g><g><text fill="#000000" fill-opacity="1" font-family="Calibri,Calibri_MSFontService,sans-serif" font-style="normal" font-variant="normal" font-weight="400" font-stretch="normal" font-size="46" text-anchor="start" direction="ltr" writing-mode="lr-tb" unicode-bidi="normal" text-decoration="none" transform="matrix(1 0 0 1 4104.4 3969)">S9</text></g><g><text fill="#000000" fill-opacity="1" font-family="Calibri,Calibri_MSFontService,sans-serif" font-style="normal" font-variant="normal" font-weight="700" font-stretch="normal" font-size="46" text-anchor="start" direction="ltr" writing-mode="lr-tb" unicode-bidi="normal" text-decoration="none" transform="matrix(6.12323e-17 -1 1 6.12323e-17 831.76 3072)">Percentuale (%)</text></g><g><text fill="#000000" fill-opacity="1" font-family="Calibri,Calibri_MSFontService,sans-serif" font-style="normal" font-variant="normal" font-weight="700" font-stretch="normal" font-size="83" text-anchor="start" direction="ltr" writing-mode="lr-tb" unicode-bidi="normal" text-decoration="none" transform="matrix(1 0 0 1 2446.58 1813)">QM</text></g><g><rect x="2089" y="4121" width="1878" height="83" fill="#FFFFFF" fill-opacity="1"/></g><g><rect x="2185" y="4150" width="116" height="24.9995" fill="#4F81BD" fill-opacity="1"/></g><g><g><text fill="#000000" fill-opacity="1" font-family="Calibri,Calibri_MSFontService,sans-serif" font-style="normal" font-variant="normal" font-weight="400" font-stretch="normal" font-size="46" text-anchor="start" direction="ltr" writing-mode="lr-tb" unicode-bidi="normal" text-decoration="none" transform="matrix(1 0 0 1 2313.54 4175)">Quality Metrics Satisfied</text></g></g><g><path d="M2861 4158.99 2877.04 4158.99C2879.26 4158.99 2881.05 4160.79 2881.05 4163 2881.05 4165.21 2879.26 4167.01 2877.04 4167.01L2861 4167.01C2858.79 4167.01 2856.99 4165.21 2856.99 4163 2856.99 4160.79 2858.79 4158.99 2861 4158.99ZM2893.08 4158.99 2909.12 4158.99C2911.34 4158.99 2913.14 4160.79 2913.14 4163 2913.14 4165.21 2911.34 4167.01 2909.12 4167.01L2893.08 4167.01C2890.87 4167.01 2889.07 4165.21 2889.07 4163 2889.07 4160.79 2890.87 4158.99 2893.08 4158.99ZM2925.17 4158.99 2941.21 4158.99C2943.42 4158.99 2945.22 4160.79 2945.22 4163 2945.22 4165.22 2943.42 4167.01 2941.21 4167.01L2925.17 4167.01C2922.95 4167.01 2921.16 4165.21 2921.16 4163 2921.16 4160.79 2922.95 4158.99 2925.17 4158.99ZM2957.25 4158.99 2973.29 4158.99C2975.51 4158.99 2977.3 4160.79 2977.3 4163 2977.3 4165.22 2975.51 4167.01 2973.29 4167.01L2957.25 4167.01C2955.04 4167.01 2953.24 4165.22 2953.24 4163 2953.24 4160.79 2955.04 4158.99 2957.25 4158.99Z" fill="#00B050" fill-rule="nonzero" fill-opacity="1"/></g><g><g><text fill="#000000" fill-opacity="1" font-family="Calibri,Calibri_MSFontService,sans-serif" font-style="normal" font-variant="normal" font-weight="400" font-stretch="normal" font-size="46" text-anchor="start" direction="ltr" writing-mode="lr-tb" unicode-bidi="normal" text-decoration="none" transform="matrix(1 0 0 1 2989.08 4175)">Soglia ott. (100%)</text></g></g><g><path d="M3410 4158.99 3426.04 4158.99C3428.26 4158.99 3430.05 4160.79 3430.05 4163 3430.05 4165.21 3428.26 4167.01 3426.04 4167.01L3410 4167.01C3407.79 4167.01 3405.99 4165.21 3405.99 4163 3405.99 4160.79 3407.79 4158.99 3410 4158.99ZM3442.08 4158.99 3458.12 4158.99C3460.34 4158.99 3462.14 4160.79 3462.14 4163 3462.14 4165.21 3460.34 4167.01 3458.12 4167.01L3442.08 4167.01C3439.87 4167.01 3438.07 4165.21 3438.07 4163 3438.07 4160.79 3439.87 4158.99 3442.08 4158.99ZM3474.17 4158.99 3490.21 4158.99C3492.42 4158.99 3494.22 4160.79 3494.22 4163 3494.22 4165.22 3492.42 4167.01 3490.21 4167.01L3474.17 4167.01C3471.95 4167.01 3470.16 4165.21 3470.16 4163 3470.16 4160.79 3471.95 4158.99 3474.17 4158.99ZM3506.25 4158.99 3522.29 4158.99C3524.51 4158.99 3526.3 4160.79 3526.3 4163 3526.3 4165.22 3524.51 4167.01 3522.29 4167.01L3506.25 4167.01C3504.04 4167.01 3502.24 4165.22 3502.24 4163 3502.24 4160.79 3504.04 4158.99 3506.25 4158.99Z" fill="#FF0000" fill-rule="nonzero" fill-opacity="1"/></g><g><g><text fill="#000000" fill-opacity="1" font-family="Calibri,Calibri_MSFontService,sans-serif" font-style="normal" font-variant="normal" font-weight="400" font-stretch="normal" font-size="46" text-anchor="start" direction="ltr" writing-mode="lr-tb" unicode-bidi="normal" text-decoration="none" transform="matrix(1 0 0 1 3538.1 4175)">Soglia acc. (  80%)</text></g></g><rect x="597.5" y="1700.5" width="3828" height="2554" stroke="#D9D9D9" stroke-width="3.37795" stroke-linecap="butt" stroke-linejoin="round" stroke-miterlimit="10" stroke-opacity="1" fill="none"/></g></g></svg>