<svg width="3653" height="2076" xmlns="http://www.w3.org/2000/svg" xmlns:xlink="http://www.w3.org/1999/xlink" xml:space="preserve" overflow="hidden"><defs><clipPath id="clip0"><rect x="2878" y="426" width="3653" height="2076"/></clipPath><clipPath id="clip1"><rect x="2878" y="426" width="3653" height="2076"/></clipPath></defs><g clip-path="url(#clip0)" transform="translate(-2878 -426)"><g clip-path="url(#clip1)"><rect x="2883" y="428" width="3646" height="2070" fill="#FFFFFF" fill-opacity="1"/><g><path d="M3156.5 2088.57 6478.5 2088.57M3156.5 1905.56 6478.5 1905.56M3156.5 1721.56 6478.5 1721.56M3156.5 1538.55 6478.5 1538.55M3156.5 1355.54 6478.5 1355.54M3156.5 1171.54 6478.5 1171.54M3156.5 988.533 6478.5 988.533M3156.5 804.527 6478.5 804.527M3156.5 621.5 6478.5 621.5" stroke="#878787" stroke-width="3.37795" stroke-linecap="butt" stroke-linejoin="round" stroke-miterlimit="10" stroke-opacity="1" fill="none" fill-rule="nonzero"/></g><g><path d="M0 0 0.000360892 1651" stroke="#878787" stroke-width="3.37795" stroke-linecap="butt" stroke-linejoin="round" stroke-miterlimit="10" stroke-opacity="1" fill="none" fill-rule="evenodd" transform="matrix(1 0 0 -1 3156.5 2272.5)"/></g><g><path d="M3156.5 2272.5 6478.5 2272.5" stroke="#878787" stroke-width="3.37795" stroke-linecap="butt" stroke-linejoin="round" stroke-miterlimit="10" stroke-opacity="1" fill="none" fill-rule="evenodd"/></g><g><path d="M3341 804.637C3464.04 804.637 3587.08 749 3710.12 804.637 3833.17 860.275 3956.21 1138.46 4079.25 1138.46 4202.29 1138.46 4325.33 860.275 4448.38 804.637 4571.42 749 4694.46 753.891 4817.5 804.637 4940.54 855.383 5063.58 986.834 5186.62 1109.11 5309.67 1231.39 5432.71 1501.63 5555.75 1538.32 5678.79 1575 5801.83 1451.5 5924.88 1329.22 6047.92 1206.94 6170.96 979.497 6294 804.637" stroke="#4472C4" stroke-width="10.1339" stroke-linecap="round" stroke-linejoin="round" stroke-miterlimit="10" stroke-opacity="1" fill="none" fill-rule="nonzero"/></g><g><path d="M3341.5 1352.77 3357.87 1352.77C3359.38 1352.77 3360.6 1353.99 3360.6 1355.5 3360.6 1357.01 3359.38 1358.23 3357.87 1358.23L3341.5 1358.23C3339.99 1358.23 3338.77 1357.01 3338.77 1355.5 3338.77 1353.99 3339.99 1352.77 3341.5 1352.77ZM3379.7 1352.77 3396.07 1352.77C3397.57 1352.77 3398.8 1353.99 3398.8 1355.5 3398.8 1357.01 3397.57 1358.23 3396.07 1358.23L3379.7 1358.23C3378.19 1358.23 3376.97 1357.01 3376.97 1355.5 3376.97 1353.99 3378.19 1352.77 3379.7 1352.77ZM3417.89 1352.77 3434.26 1352.77C3435.77 1352.77 3436.99 1353.99 3436.99 1355.5 3436.99 1357.01 3435.77 1358.23 3434.26 1358.23L3417.89 1358.23C3416.39 1358.23 3415.17 1357.01 3415.17 1355.5 3415.17 1353.99 3416.39 1352.77 3417.89 1352.77ZM3456.09 1352.77 3472.46 1352.77C3473.97 1352.77 3475.19 1353.99 3475.19 1355.5 3475.19 1357.01 3473.97 1358.23 3472.46 1358.23L3456.09 1358.23C3454.58 1358.23 3453.36 1357.01 3453.36 1355.5 3453.36 1353.99 3454.58 1352.77 3456.09 1352.77ZM3494.29 1352.77 3510.66 1352.77C3512.16 1352.77 3513.39 1353.99 3513.39 1355.5 3513.39 1357.01 3512.16 1358.23 3510.66 1358.23L3494.29 1358.23C3492.78 1358.23 3491.56 1357.01 3491.56 1355.5 3491.56 1353.99 3492.78 1352.77 3494.29 1352.77ZM3532.48 1352.77 3548.85 1352.77C3550.36 1352.77 3551.58 1353.99 3551.58 1355.5 3551.58 1357.01 3550.36 1358.23 3548.85 1358.23L3532.48 1358.23C3530.98 1358.23 3529.76 1357.01 3529.76 1355.5 3529.76 1353.99 3530.98 1352.77 3532.48 1352.77ZM3570.68 1352.77 3587.05 1352.77C3588.56 1352.77 3589.78 1353.99 3589.78 1355.5 3589.78 1357.01 3588.56 1358.23 3587.05 1358.23L3570.68 1358.23C3569.17 1358.23 3567.95 1357.01 3567.95 1355.5 3567.95 1353.99 3569.17 1352.77 3570.68 1352.77ZM3608.88 1352.77 3625.25 1352.77C3626.75 1352.77 3627.98 1353.99 3627.98 1355.5 3627.98 1357.01 3626.75 1358.23 3625.25 1358.23L3608.88 1358.23C3607.37 1358.23 3606.15 1357.01 3606.15 1355.5 3606.15 1353.99 3607.37 1352.77 3608.88 1352.77ZM3647.07 1352.77 3663.44 1352.77C3664.95 1352.77 3666.17 1353.99 3666.17 1355.5 3666.17 1357.01 3664.95 1358.23 3663.44 1358.23L3647.07 1358.23C3645.57 1358.23 3644.35 1357.01 3644.35 1355.5 3644.35 1353.99 3645.57 1352.77 3647.07 1352.77ZM3685.27 1352.77 3701.64 1352.77C3703.15 1352.77 3704.37 1353.99 3704.37 1355.5 3704.37 1357.01 3703.15 1358.23 3701.64 1358.23L3685.27 1358.23C3683.76 1358.23 3682.54 1357.01 3682.54 1355.5 3682.54 1353.99 3683.76 1352.77 3685.27 1352.77ZM3723.47 1352.77 3739.84 1352.77C3741.35 1352.77 3742.57 1353.99 3742.57 1355.5 3742.57 1357.01 3741.35 1358.23 3739.84 1358.23L3723.47 1358.23C3721.96 1358.23 3720.74 1357.01 3720.74 1355.5 3720.74 1353.99 3721.96 1352.77 3723.47 1352.77ZM3761.67 1352.77 3778.04 1352.77C3779.54 1352.77 3780.76 1353.99 3780.76 1355.5 3780.76 1357.01 3779.54 1358.23 3778.04 1358.23L3761.67 1358.23C3760.16 1358.23 3758.94 1357.01 3758.94 1355.5 3758.94 1353.99 3760.16 1352.77 3761.67 1352.77ZM3799.86 1352.77 3816.23 1352.77C3817.74 1352.77 3818.96 1353.99 3818.96 1355.5 3818.96 1357.01 3817.74 1358.23 3816.23 1358.23L3799.86 1358.23C3798.36 1358.23 3797.13 1357.01 3797.13 1355.5 3797.13 1353.99 3798.36 1352.77 3799.86 1352.77ZM3838.06 1352.77 3854.43 1352.77C3855.94 1352.77 3857.16 1353.99 3857.16 1355.5 3857.16 1357.01 3855.94 1358.23 3854.43 1358.23L3838.06 1358.23C3836.55 1358.23 3835.33 1357.01 3835.33 1355.5 3835.33 1353.99 3836.55 1352.77 3838.06 1352.77ZM3876.26 1352.77 3892.63 1352.77C3894.13 1352.77 3895.35 1353.99 3895.35 1355.5 3895.35 1357.01 3894.13 1358.23 3892.63 1358.23L3876.26 1358.23C3874.75 1358.23 3873.53 1357.01 3873.53 1355.5 3873.53 1353.99 3874.75 1352.77 3876.26 1352.77ZM3914.45 1352.77 3930.82 1352.77C3932.33 1352.77 3933.55 1353.99 3933.55 1355.5 3933.55 1357.01 3932.33 1358.23 3930.82 1358.23L3914.45 1358.23C3912.95 1358.23 3911.72 1357.01 3911.72 1355.5 3911.72 1353.99 3912.95 1352.77 3914.45 1352.77ZM3952.65 1352.77 3969.02 1352.77C3970.53 1352.77 3971.75 1353.99 3971.75 1355.5 3971.75 1357.01 3970.53 1358.23 3969.02 1358.23L3952.65 1358.23C3951.14 1358.23 3949.92 1357.01 3949.92 1355.5 3949.92 1353.99 3951.14 1352.77 3952.65 1352.77ZM3990.85 1352.77 4007.22 1352.77C4008.72 1352.77 4009.94 1353.99 4009.94 1355.5 4009.94 1357.01 4008.72 1358.23 4007.22 1358.23L3990.85 1358.23C3989.34 1358.23 3988.12 1357.01 3988.12 1355.5 3988.12 1353.99 3989.34 1352.77 3990.85 1352.77ZM4029.04 1352.77 4045.41 1352.77C4046.92 1352.77 4048.14 1353.99 4048.14 1355.5 4048.14 1357.01 4046.92 1358.23 4045.41 1358.23L4029.04 1358.23C4027.54 1358.23 4026.31 1357.01 4026.31 1355.5 4026.31 1353.99 4027.54 1352.77 4029.04 1352.77ZM4067.24 1352.77 4079.75 1352.77 4083.61 1352.77C4085.12 1352.77 4086.34 1353.99 4086.34 1355.5 4086.34 1357.01 4085.12 1358.23 4083.61 1358.23L4079.75 1358.23 4067.24 1358.23C4065.73 1358.23 4064.51 1357.01 4064.51 1355.5 4064.51 1353.99 4065.73 1352.77 4067.24 1352.77ZM4105.44 1352.77 4121.81 1352.77C4123.31 1352.77 4124.54 1353.99 4124.54 1355.5 4124.54 1357.01 4123.31 1358.23 4121.81 1358.23L4105.44 1358.23C4103.93 1358.23 4102.71 1357.01 4102.71 1355.5 4102.71 1353.99 4103.93 1352.77 4105.44 1352.77ZM4143.63 1352.77 4160 1352.77C4161.51 1352.77 4162.73 1353.99 4162.73 1355.5 4162.73 1357.01 4161.51 1358.23 4160 1358.23L4143.63 1358.23C4142.13 1358.23 4140.91 1357.01 4140.91 1355.5 4140.91 1353.99 4142.13 1352.77 4143.63 1352.77ZM4181.83 1352.77 4198.2 1352.77C4199.71 1352.77 4200.93 1353.99 4200.93 1355.5 4200.93 1357.01 4199.71 1358.23 4198.2 1358.23L4181.83 1358.23C4180.32 1358.23 4179.1 1357.01 4179.1 1355.5 4179.1 1353.99 4180.32 1352.77 4181.83 1352.77ZM4220.03 1352.77 4236.4 1352.77C4237.9 1352.77 4239.13 1353.99 4239.13 1355.5 4239.13 1357.01 4237.9 1358.23 4236.4 1358.23L4220.03 1358.23C4218.52 1358.23 4217.3 1357.01 4217.3 1355.5 4217.3 1353.99 4218.52 1352.77 4220.03 1352.77ZM4258.22 1352.77 4274.59 1352.77C4276.1 1352.77 4277.32 1353.99 4277.32 1355.5 4277.32 1357.01 4276.1 1358.23 4274.59 1358.23L4258.22 1358.23C4256.72 1358.23 4255.5 1357.01 4255.5 1355.5 4255.5 1353.99 4256.72 1352.77 4258.22 1352.77ZM4296.42 1352.77 4312.79 1352.77C4314.3 1352.77 4315.52 1353.99 4315.52 1355.5 4315.52 1357.01 4314.3 1358.23 4312.79 1358.23L4296.42 1358.23C4294.91 1358.23 4293.69 1357.01 4293.69 1355.5 4293.69 1353.99 4294.91 1352.77 4296.42 1352.77ZM4334.62 1352.77 4350.99 1352.77C4352.5 1352.77 4353.72 1353.99 4353.72 1355.5 4353.72 1357.01 4352.5 1358.23 4350.99 1358.23L4334.62 1358.23C4333.11 1358.23 4331.89 1357.01 4331.89 1355.5 4331.89 1353.99 4333.11 1352.77 4334.62 1352.77ZM4372.81 1352.77 4389.19 1352.77C4390.69 1352.77 4391.91 1353.99 4391.91 1355.5 4391.91 1357.01 4390.69 1358.23 4389.19 1358.23L4372.81 1358.23C4371.31 1358.23 4370.09 1357.01 4370.09 1355.5 4370.09 1353.99 4371.31 1352.77 4372.81 1352.77ZM4411.01 1352.77 4427.38 1352.77C4428.89 1352.77 4430.11 1353.99 4430.11 1355.5 4430.11 1357.01 4428.89 1358.23 4427.38 1358.23L4411.01 1358.23C4409.5 1358.23 4408.28 1357.01 4408.28 1355.5 4408.28 1353.99 4409.5 1352.77 4411.01 1352.77ZM4449.21 1352.77 4465.58 1352.77C4467.09 1352.77 4468.31 1353.99 4468.31 1355.5 4468.31 1357.01 4467.09 1358.23 4465.58 1358.23L4449.21 1358.23C4447.7 1358.23 4446.48 1357.01 4446.48 1355.5 4446.48 1353.99 4447.7 1352.77 4449.21 1352.77ZM4487.41 1352.77 4503.78 1352.77C4505.28 1352.77 4506.5 1353.99 4506.5 1355.5 4506.5 1357.01 4505.28 1358.23 4503.78 1358.23L4487.41 1358.23C4485.9 1358.23 4484.68 1357.01 4484.68 1355.5 4484.68 1353.99 4485.9 1352.77 4487.41 1352.77ZM4525.6 1352.77 4541.97 1352.77C4543.48 1352.77 4544.7 1353.99 4544.7 1355.5 4544.7 1357.01 4543.48 1358.23 4541.97 1358.23L4525.6 1358.23C4524.1 1358.23 4522.87 1357.01 4522.87 1355.5 4522.87 1353.99 4524.1 1352.77 4525.6 1352.77ZM4563.8 1352.77 4580.17 1352.77C4581.68 1352.77 4582.9 1353.99 4582.9 1355.5 4582.9 1357.01 4581.68 1358.23 4580.17 1358.23L4563.8 1358.23C4562.29 1358.23 4561.07 1357.01 4561.07 1355.5 4561.07 1353.99 4562.29 1352.77 4563.8 1352.77ZM4602 1352.77 4618.37 1352.77C4619.87 1352.77 4621.09 1353.99 4621.09 1355.5 4621.09 1357.01 4619.87 1358.23 4618.37 1358.23L4602 1358.23C4600.49 1358.23 4599.27 1357.01 4599.27 1355.5 4599.27 1353.99 4600.49 1352.77 4602 1352.77ZM4640.19 1352.77 4656.56 1352.77C4658.07 1352.77 4659.29 1353.99 4659.29 1355.5 4659.29 1357.01 4658.07 1358.23 4656.56 1358.23L4640.19 1358.23C4638.69 1358.23 4637.46 1357.01 4637.46 1355.5 4637.46 1353.99 4638.69 1352.77 4640.19 1352.77ZM4678.39 1352.77 4694.76 1352.77C4696.27 1352.77 4697.49 1353.99 4697.49 1355.5 4697.49 1357.01 4696.27 1358.23 4694.76 1358.23L4678.39 1358.23C4676.88 1358.23 4675.66 1357.01 4675.66 1355.5 4675.66 1353.99 4676.88 1352.77 4678.39 1352.77ZM4716.59 1352.77 4732.96 1352.77C4734.46 1352.77 4735.69 1353.99 4735.69 1355.5 4735.69 1357.01 4734.46 1358.23 4732.96 1358.23L4716.59 1358.23C4715.08 1358.23 4713.86 1357.01 4713.86 1355.5 4713.86 1353.99 4715.08 1352.77 4716.59 1352.77ZM4754.78 1352.77 4771.15 1352.77C4772.66 1352.77 4773.88 1353.99 4773.88 1355.5 4773.88 1357.01 4772.66 1358.23 4771.15 1358.23L4754.78 1358.23C4753.28 1358.23 4752.06 1357.01 4752.06 1355.5 4752.06 1353.99 4753.28 1352.77 4754.78 1352.77ZM4792.98 1352.77 4809.35 1352.77C4810.86 1352.77 4812.08 1353.99 4812.08 1355.5 4812.08 1357.01 4810.86 1358.23 4809.35 1358.23L4792.98 1358.23C4791.47 1358.23 4790.25 1357.01 4790.25 1355.5 4790.25 1353.99 4791.47 1352.77 4792.98 1352.77ZM4831.18 1352.77 4847.55 1352.77C4849.05 1352.77 4850.28 1353.99 4850.28 1355.5 4850.28 1357.01 4849.05 1358.23 4847.55 1358.23L4831.18 1358.23C4829.67 1358.23 4828.45 1357.01 4828.45 1355.5 4828.45 1353.99 4829.67 1352.77 4831.18 1352.77ZM4869.37 1352.77 4885.74 1352.77C4887.25 1352.77 4888.47 1353.99 4888.47 1355.5 4888.47 1357.01 4887.25 1358.23 4885.74 1358.23L4869.37 1358.23C4867.87 1358.23 4866.65 1357.01 4866.65 1355.5 4866.65 1353.99 4867.87 1352.77 4869.37 1352.77ZM4907.57 1352.77 4923.94 1352.77C4925.45 1352.77 4926.67 1353.99 4926.67 1355.5 4926.67 1357.01 4925.45 1358.23 4923.94 1358.23L4907.57 1358.23C4906.06 1358.23 4904.84 1357.01 4904.84 1355.5 4904.84 1353.99 4906.06 1352.77 4907.57 1352.77ZM4945.77 1352.77 4962.14 1352.77C4963.64 1352.77 4964.87 1353.99 4964.87 1355.5 4964.87 1357.01 4963.64 1358.23 4962.14 1358.23L4945.77 1358.23C4944.26 1358.23 4943.04 1357.01 4943.04 1355.5 4943.04 1353.99 4944.26 1352.77 4945.77 1352.77ZM4983.96 1352.77 5000.33 1352.77C5001.84 1352.77 5003.06 1353.99 5003.06 1355.5 5003.06 1357.01 5001.84 1358.23 5000.33 1358.23L4983.96 1358.23C4982.46 1358.23 4981.24 1357.01 4981.24 1355.5 4981.24 1353.99 4982.46 1352.77 4983.96 1352.77ZM5022.16 1352.77 5038.53 1352.77C5040.04 1352.77 5041.26 1353.99 5041.26 1355.5 5041.26 1357.01 5040.04 1358.23 5038.53 1358.23L5022.16 1358.23C5020.65 1358.23 5019.43 1357.01 5019.43 1355.5 5019.43 1353.99 5020.65 1352.77 5022.16 1352.77ZM5060.36 1352.77 5076.73 1352.77C5078.24 1352.77 5079.46 1353.99 5079.46 1355.5 5079.46 1357.01 5078.24 1358.23 5076.73 1358.23L5060.36 1358.23C5058.85 1358.23 5057.63 1357.01 5057.63 1355.5 5057.63 1353.99 5058.85 1352.77 5060.36 1352.77ZM5098.56 1352.77 5114.93 1352.77C5116.43 1352.77 5117.65 1353.99 5117.65 1355.5 5117.65 1357.01 5116.43 1358.23 5114.93 1358.23L5098.56 1358.23C5097.05 1358.23 5095.83 1357.01 5095.83 1355.5 5095.83 1353.99 5097.05 1352.77 5098.56 1352.77ZM5136.75 1352.77 5153.12 1352.77C5154.63 1352.77 5155.85 1353.99 5155.85 1355.5 5155.85 1357.01 5154.63 1358.23 5153.12 1358.23L5136.75 1358.23C5135.25 1358.23 5134.02 1357.01 5134.02 1355.5 5134.02 1353.99 5135.25 1352.77 5136.75 1352.77ZM5174.95 1352.77 5187.12 1352.77 5191.32 1352.77C5192.83 1352.77 5194.05 1353.99 5194.05 1355.5 5194.05 1357.01 5192.83 1358.23 5191.32 1358.23L5187.12 1358.23 5174.95 1358.23C5173.44 1358.23 5172.22 1357.01 5172.22 1355.5 5172.22 1353.99 5173.44 1352.77 5174.95 1352.77ZM5213.15 1352.77 5229.52 1352.77C5231.02 1352.77 5232.24 1353.99 5232.24 1355.5 5232.24 1357.01 5231.02 1358.23 5229.52 1358.23L5213.15 1358.23C5211.64 1358.23 5210.42 1357.01 5210.42 1355.5 5210.42 1353.99 5211.64 1352.77 5213.15 1352.77ZM5251.34 1352.77 5267.71 1352.77C5269.22 1352.77 5270.44 1353.99 5270.44 1355.5 5270.44 1357.01 5269.22 1358.23 5267.71 1358.23L5251.34 1358.23C5249.84 1358.23 5248.61 1357.01 5248.61 1355.5 5248.61 1353.99 5249.84 1352.77 5251.34 1352.77ZM5289.54 1352.77 5305.91 1352.77C5307.42 1352.77 5308.64 1353.99 5308.64 1355.5 5308.64 1357.01 5307.42 1358.23 5305.91 1358.23L5289.54 1358.23C5288.03 1358.23 5286.81 1357.01 5286.81 1355.5 5286.81 1353.99 5288.03 1352.77 5289.54 1352.77ZM5327.74 1352.77 5344.11 1352.77C5345.61 1352.77 5346.83 1353.99 5346.83 1355.5 5346.83 1357.01 5345.61 1358.23 5344.11 1358.23L5327.74 1358.23C5326.23 1358.23 5325.01 1357.01 5325.01 1355.5 5325.01 1353.99 5326.23 1352.77 5327.74 1352.77ZM5365.93 1352.77 5382.3 1352.77C5383.81 1352.77 5385.03 1353.99 5385.03 1355.5 5385.03 1357.01 5383.81 1358.23 5382.3 1358.23L5365.93 1358.23C5364.43 1358.23 5363.2 1357.01 5363.2 1355.5 5363.2 1353.99 5364.43 1352.77 5365.93 1352.77ZM5404.13 1352.77 5420.5 1352.77C5422.01 1352.77 5423.23 1353.99 5423.23 1355.5 5423.23 1357.01 5422.01 1358.23 5420.5 1358.23L5404.13 1358.23C5402.62 1358.23 5401.4 1357.01 5401.4 1355.5 5401.4 1353.99 5402.62 1352.77 5404.13 1352.77ZM5442.33 1352.77 5458.7 1352.77C5460.2 1352.77 5461.43 1353.99 5461.43 1355.5 5461.43 1357.01 5460.2 1358.23 5458.7 1358.23L5442.33 1358.23C5440.82 1358.23 5439.6 1357.01 5439.6 1355.5 5439.6 1353.99 5440.82 1352.77 5442.33 1352.77ZM5480.52 1352.77 5496.89 1352.77C5498.4 1352.77 5499.62 1353.99 5499.62 1355.5 5499.62 1357.01 5498.4 1358.23 5496.89 1358.23L5480.52 1358.23C5479.02 1358.23 5477.8 1357.01 5477.8 1355.5 5477.8 1353.99 5479.02 1352.77 5480.52 1352.77ZM5518.72 1352.77 5535.09 1352.77C5536.6 1352.77 5537.82 1353.99 5537.82 1355.5 5537.82 1357.01 5536.6 1358.23 5535.09 1358.23L5518.72 1358.23C5517.21 1358.23 5515.99 1357.01 5515.99 1355.5 5515.99 1353.99 5517.21 1352.77 5518.72 1352.77ZM5556.92 1352.77 5573.29 1352.77C5574.79 1352.77 5576.02 1353.99 5576.02 1355.5 5576.02 1357.01 5574.79 1358.23 5573.29 1358.23L5556.92 1358.23C5555.41 1358.23 5554.19 1357.01 5554.19 1355.5 5554.19 1353.99 5555.41 1352.77 5556.92 1352.77ZM5595.11 1352.77 5611.48 1352.77C5612.99 1352.77 5614.21 1353.99 5614.21 1355.5 5614.21 1357.01 5612.99 1358.23 5611.48 1358.23L5595.11 1358.23C5593.61 1358.23 5592.39 1357.01 5592.39 1355.5 5592.39 1353.99 5593.61 1352.77 5595.11 1352.77ZM5633.31 1352.77 5649.68 1352.77C5651.19 1352.77 5652.41 1353.99 5652.41 1355.5 5652.41 1357.01 5651.19 1358.23 5649.68 1358.23L5633.31 1358.23C5631.8 1358.23 5630.58 1357.01 5630.58 1355.5 5630.58 1353.99 5631.8 1352.77 5633.31 1352.77ZM5671.51 1352.77 5687.88 1352.77C5689.38 1352.77 5690.61 1353.99 5690.61 1355.5 5690.61 1357.01 5689.38 1358.23 5687.88 1358.23L5671.51 1358.23C5670 1358.23 5668.78 1357.01 5668.78 1355.5 5668.78 1353.99 5670 1352.77 5671.51 1352.77ZM5709.7 1352.77 5726.07 1352.77C5727.58 1352.77 5728.8 1353.99 5728.8 1355.5 5728.8 1357.01 5727.58 1358.23 5726.07 1358.23L5709.7 1358.23C5708.2 1358.23 5706.98 1357.01 5706.98 1355.5 5706.98 1353.99 5708.2 1352.77 5709.7 1352.77ZM5747.9 1352.77 5764.27 1352.77C5765.78 1352.77 5767 1353.99 5767 1355.5 5767 1357.01 5765.78 1358.23 5764.27 1358.23L5747.9 1358.23C5746.39 1358.23 5745.17 1357.01 5745.17 1355.5 5745.17 1353.99 5746.39 1352.77 5747.9 1352.77ZM5786.1 1352.77 5802.47 1352.77C5803.98 1352.77 5805.2 1353.99 5805.2 1355.5 5805.2 1357.01 5803.98 1358.23 5802.47 1358.23L5786.1 1358.23C5784.59 1358.23 5783.37 1357.01 5783.37 1355.5 5783.37 1353.99 5784.59 1352.77 5786.1 1352.77ZM5824.3 1352.77 5840.67 1352.77C5842.17 1352.77 5843.39 1353.99 5843.39 1355.5 5843.39 1357.01 5842.17 1358.23 5840.67 1358.23L5824.3 1358.23C5822.79 1358.23 5821.57 1357.01 5821.57 1355.5 5821.57 1353.99 5822.79 1352.77 5824.3 1352.77ZM5862.49 1352.77 5878.86 1352.77C5880.37 1352.77 5881.59 1353.99 5881.59 1355.5 5881.59 1357.01 5880.37 1358.23 5878.86 1358.23L5862.49 1358.23C5860.99 1358.23 5859.76 1357.01 5859.76 1355.5 5859.76 1353.99 5860.99 1352.77 5862.49 1352.77ZM5900.69 1352.77 5917.06 1352.77C5918.57 1352.77 5919.79 1353.99 5919.79 1355.5 5919.79 1357.01 5918.57 1358.23 5917.06 1358.23L5900.69 1358.23C5899.18 1358.23 5897.96 1357.01 5897.96 1355.5 5897.96 1353.99 5899.18 1352.77 5900.69 1352.77ZM5938.89 1352.77 5955.26 1352.77C5956.76 1352.77 5957.98 1353.99 5957.98 1355.5 5957.98 1357.01 5956.76 1358.23 5955.26 1358.23L5938.89 1358.23C5937.38 1358.23 5936.16 1357.01 5936.16 1355.5 5936.16 1353.99 5937.38 1352.77 5938.89 1352.77ZM5977.08 1352.77 5993.45 1352.77C5994.96 1352.77 5996.18 1353.99 5996.18 1355.5 5996.18 1357.01 5994.96 1358.23 5993.45 1358.23L5977.08 1358.23C5975.58 1358.23 5974.35 1357.01 5974.35 1355.5 5974.35 1353.99 5975.58 1352.77 5977.08 1352.77ZM6015.28 1352.77 6031.65 1352.77C6033.16 1352.77 6034.38 1353.99 6034.38 1355.5 6034.38 1357.01 6033.16 1358.23 6031.65 1358.23L6015.28 1358.23C6013.77 1358.23 6012.55 1357.01 6012.55 1355.5 6012.55 1353.99 6013.77 1352.77 6015.28 1352.77ZM6053.48 1352.77 6069.85 1352.77C6071.35 1352.77 6072.57 1353.99 6072.57 1355.5 6072.57 1357.01 6071.35 1358.23 6069.85 1358.23L6053.48 1358.23C6051.97 1358.23 6050.75 1357.01 6050.75 1355.5 6050.75 1353.99 6051.97 1352.77 6053.48 1352.77ZM6091.67 1352.77 6108.04 1352.77C6109.55 1352.77 6110.77 1353.99 6110.77 1355.5 6110.77 1357.01 6109.55 1358.23 6108.04 1358.23L6091.67 1358.23C6090.17 1358.23 6088.94 1357.01 6088.94 1355.5 6088.94 1353.99 6090.17 1352.77 6091.67 1352.77ZM6129.87 1352.77 6146.24 1352.77C6147.75 1352.77 6148.97 1353.99 6148.97 1355.5 6148.97 1357.01 6147.75 1358.23 6146.24 1358.23L6129.87 1358.23C6128.36 1358.23 6127.14 1357.01 6127.14 1355.5 6127.14 1353.99 6128.36 1352.77 6129.87 1352.77ZM6168.07 1352.77 6184.44 1352.77C6185.94 1352.77 6187.17 1353.99 6187.17 1355.5 6187.17 1357.01 6185.94 1358.23 6184.44 1358.23L6168.07 1358.23C6166.56 1358.23 6165.34 1357.01 6165.34 1355.5 6165.34 1353.99 6166.56 1352.77 6168.07 1352.77ZM6206.26 1352.77 6222.63 1352.77C6224.14 1352.77 6225.36 1353.99 6225.36 1355.5 6225.36 1357.01 6224.14 1358.23 6222.63 1358.23L6206.26 1358.23C6204.76 1358.23 6203.54 1357.01 6203.54 1355.5 6203.54 1353.99 6204.76 1352.77 6206.26 1352.77ZM6244.46 1352.77 6260.83 1352.77C6262.34 1352.77 6263.56 1353.99 6263.56 1355.5 6263.56 1357.01 6262.34 1358.23 6260.83 1358.23L6244.46 1358.23C6242.95 1358.23 6241.73 1357.01 6241.73 1355.5 6241.73 1353.99 6242.95 1352.77 6244.46 1352.77ZM6282.66 1352.77 6294.5 1352.77C6296.01 1352.77 6297.23 1353.99 6297.23 1355.5 6297.23 1357.01 6296.01 1358.23 6294.5 1358.23L6282.66 1358.23C6281.15 1358.23 6279.93 1357.01 6279.93 1355.5 6279.93 1353.99 6281.15 1352.77 6282.66 1352.77Z" fill="#FF0000" fill-rule="nonzero" fill-opacity="1"/></g><g><path d="M3341.5 801.772 3352.41 801.772C3353.92 801.772 3355.14 802.993 3355.14 804.5 3355.14 806.007 3353.92 807.228 3352.41 807.228L3341.5 807.228C3339.99 807.228 3338.77 806.007 3338.77 804.5 3338.77 802.993 3339.99 801.772 3341.5 801.772ZM3363.33 801.772 3374.24 801.772C3375.75 801.772 3376.97 802.993 3376.97 804.5 3376.97 806.007 3375.75 807.228 3374.24 807.228L3363.33 807.228C3361.82 807.228 3360.6 806.007 3360.6 804.5 3360.6 802.993 3361.82 801.772 3363.33 801.772ZM3385.15 801.772 3396.07 801.772C3397.57 801.772 3398.8 802.993 3398.8 804.5 3398.8 806.007 3397.57 807.228 3396.07 807.228L3385.15 807.228C3383.65 807.228 3382.43 806.007 3382.43 804.5 3382.43 802.993 3383.65 801.772 3385.15 801.772ZM3406.98 801.772 3417.89 801.772C3419.4 801.772 3420.62 802.993 3420.62 804.5 3420.62 806.007 3419.4 807.228 3417.89 807.228L3406.98 807.228C3405.47 807.228 3404.25 806.007 3404.25 804.5 3404.25 802.993 3405.47 801.772 3406.98 801.772ZM3428.81 801.772 3439.72 801.772C3441.23 801.772 3442.45 802.993 3442.45 804.5 3442.45 806.007 3441.23 807.228 3439.72 807.228L3428.81 807.228C3427.3 807.228 3426.08 806.007 3426.08 804.5 3426.08 802.993 3427.3 801.772 3428.81 801.772ZM3450.63 801.772 3461.55 801.772C3463.05 801.772 3464.28 802.993 3464.28 804.5 3464.28 806.007 3463.05 807.228 3461.55 807.228L3450.63 807.228C3449.13 807.228 3447.91 806.007 3447.91 804.5 3447.91 802.993 3449.13 801.772 3450.63 801.772ZM3472.46 801.772 3483.37 801.772C3484.88 801.772 3486.1 802.993 3486.1 804.5 3486.1 806.007 3484.88 807.228 3483.37 807.228L3472.46 807.228C3470.95 807.228 3469.73 806.007 3469.73 804.5 3469.73 802.993 3470.95 801.772 3472.46 801.772ZM3494.29 801.772 3505.2 801.772C3506.71 801.772 3507.93 802.993 3507.93 804.5 3507.93 806.007 3506.71 807.228 3505.2 807.228L3494.29 807.228C3492.78 807.228 3491.56 806.007 3491.56 804.5 3491.56 802.993 3492.78 801.772 3494.29 801.772ZM3516.11 801.772 3527.03 801.772C3528.53 801.772 3529.76 802.993 3529.76 804.5 3529.76 806.007 3528.53 807.228 3527.03 807.228L3516.11 807.228C3514.61 807.228 3513.39 806.007 3513.39 804.5 3513.39 802.993 3514.61 801.772 3516.11 801.772ZM3537.94 801.772 3548.85 801.772C3550.36 801.772 3551.58 802.993 3551.58 804.5 3551.58 806.007 3550.36 807.228 3548.85 807.228L3537.94 807.228C3536.43 807.228 3535.21 806.007 3535.21 804.5 3535.21 802.993 3536.43 801.772 3537.94 801.772ZM3559.77 801.772 3570.68 801.772C3572.19 801.772 3573.41 802.993 3573.41 804.5 3573.41 806.007 3572.19 807.228 3570.68 807.228L3559.77 807.228C3558.26 807.228 3557.04 806.007 3557.04 804.5 3557.04 802.993 3558.26 801.772 3559.77 801.772ZM3581.59 801.772 3592.51 801.772C3594.01 801.772 3595.24 802.993 3595.24 804.5 3595.24 806.007 3594.01 807.228 3592.51 807.228L3581.59 807.228C3580.09 807.228 3578.87 806.007 3578.87 804.5 3578.87 802.993 3580.09 801.772 3581.59 801.772ZM3603.42 801.772 3614.33 801.772C3615.84 801.772 3617.06 802.993 3617.06 804.5 3617.06 806.007 3615.84 807.228 3614.33 807.228L3603.42 807.228C3601.91 807.228 3600.69 806.007 3600.69 804.5 3600.69 802.993 3601.91 801.772 3603.42 801.772ZM3625.25 801.772 3636.16 801.772C3637.67 801.772 3638.89 802.993 3638.89 804.5 3638.89 806.007 3637.67 807.228 3636.16 807.228L3625.25 807.228C3623.74 807.228 3622.52 806.007 3622.52 804.5 3622.52 802.993 3623.74 801.772 3625.25 801.772ZM3647.07 801.772 3657.99 801.772C3659.5 801.772 3660.72 802.993 3660.72 804.5 3660.72 806.007 3659.5 807.228 3657.99 807.228L3647.07 807.228C3645.57 807.228 3644.35 806.007 3644.35 804.5 3644.35 802.993 3645.57 801.772 3647.07 801.772ZM3668.9 801.772 3679.81 801.772C3681.32 801.772 3682.54 802.993 3682.54 804.5 3682.54 806.007 3681.32 807.228 3679.81 807.228L3668.9 807.228C3667.39 807.228 3666.17 806.007 3666.17 804.5 3666.17 802.993 3667.39 801.772 3668.9 801.772ZM3690.73 801.772 3701.64 801.772C3703.15 801.772 3704.37 802.993 3704.37 804.5 3704.37 806.007 3703.15 807.228 3701.64 807.228L3690.73 807.228C3689.22 807.228 3688 806.007 3688 804.5 3688 802.993 3689.22 801.772 3690.73 801.772ZM3712.56 801.772 3723.47 801.772C3724.98 801.772 3726.2 802.993 3726.2 804.5 3726.2 806.007 3724.98 807.228 3723.47 807.228L3712.56 807.228C3711.05 807.228 3709.83 806.007 3709.83 804.5 3709.83 802.993 3711.05 801.772 3712.56 801.772ZM3734.38 801.772 3745.3 801.772C3746.8 801.772 3748.02 802.993 3748.02 804.5 3748.02 806.007 3746.8 807.228 3745.3 807.228L3734.38 807.228C3732.88 807.228 3731.65 806.007 3731.65 804.5 3731.65 802.993 3732.88 801.772 3734.38 801.772ZM3756.21 801.772 3767.12 801.772C3768.63 801.772 3769.85 802.993 3769.85 804.5 3769.85 806.007 3768.63 807.228 3767.12 807.228L3756.21 807.228C3754.7 807.228 3753.48 806.007 3753.48 804.5 3753.48 802.993 3754.7 801.772 3756.21 801.772ZM3778.04 801.772 3788.95 801.772C3790.46 801.772 3791.68 802.993 3791.68 804.5 3791.68 806.007 3790.46 807.228 3788.95 807.228L3778.04 807.228C3776.53 807.228 3775.31 806.007 3775.31 804.5 3775.31 802.993 3776.53 801.772 3778.04 801.772ZM3799.86 801.772 3810.78 801.772C3812.28 801.772 3813.5 802.993 3813.5 804.5 3813.5 806.007 3812.28 807.228 3810.78 807.228L3799.86 807.228C3798.36 807.228 3797.13 806.007 3797.13 804.5 3797.13 802.993 3798.36 801.772 3799.86 801.772ZM3821.69 801.772 3832.6 801.772C3834.11 801.772 3835.33 802.993 3835.33 804.5 3835.33 806.007 3834.11 807.228 3832.6 807.228L3821.69 807.228C3820.18 807.228 3818.96 806.007 3818.96 804.5 3818.96 802.993 3820.18 801.772 3821.69 801.772ZM3843.52 801.772 3854.43 801.772C3855.94 801.772 3857.16 802.993 3857.16 804.5 3857.16 806.007 3855.94 807.228 3854.43 807.228L3843.52 807.228C3842.01 807.228 3840.79 806.007 3840.79 804.5 3840.79 802.993 3842.01 801.772 3843.52 801.772ZM3865.34 801.772 3876.26 801.772C3877.76 801.772 3878.98 802.993 3878.98 804.5 3878.98 806.007 3877.76 807.228 3876.26 807.228L3865.34 807.228C3863.84 807.228 3862.61 806.007 3862.61 804.5 3862.61 802.993 3863.84 801.772 3865.34 801.772ZM3887.17 801.772 3898.08 801.772C3899.59 801.772 3900.81 802.993 3900.81 804.5 3900.81 806.007 3899.59 807.228 3898.08 807.228L3887.17 807.228C3885.66 807.228 3884.44 806.007 3884.44 804.5 3884.44 802.993 3885.66 801.772 3887.17 801.772ZM3909 801.772 3919.91 801.772C3921.42 801.772 3922.64 802.993 3922.64 804.5 3922.64 806.007 3921.42 807.228 3919.91 807.228L3909 807.228C3907.49 807.228 3906.27 806.007 3906.27 804.5 3906.27 802.993 3907.49 801.772 3909 801.772ZM3930.82 801.772 3941.74 801.772C3943.24 801.772 3944.46 802.993 3944.46 804.5 3944.46 806.007 3943.24 807.228 3941.74 807.228L3930.82 807.228C3929.32 807.228 3928.09 806.007 3928.09 804.5 3928.09 802.993 3929.32 801.772 3930.82 801.772ZM3952.65 801.772 3963.56 801.772C3965.07 801.772 3966.29 802.993 3966.29 804.5 3966.29 806.007 3965.07 807.228 3963.56 807.228L3952.65 807.228C3951.14 807.228 3949.92 806.007 3949.92 804.5 3949.92 802.993 3951.14 801.772 3952.65 801.772ZM3974.48 801.772 3985.39 801.772C3986.9 801.772 3988.12 802.993 3988.12 804.5 3988.12 806.007 3986.9 807.228 3985.39 807.228L3974.48 807.228C3972.97 807.228 3971.75 806.007 3971.75 804.5 3971.75 802.993 3972.97 801.772 3974.48 801.772ZM3996.3 801.772 4007.22 801.772C4008.72 801.772 4009.94 802.993 4009.94 804.5 4009.94 806.007 4008.72 807.228 4007.22 807.228L3996.3 807.228C3994.8 807.228 3993.57 806.007 3993.57 804.5 3993.57 802.993 3994.8 801.772 3996.3 801.772ZM4018.13 801.772 4029.04 801.772C4030.55 801.772 4031.77 802.993 4031.77 804.5 4031.77 806.007 4030.55 807.228 4029.04 807.228L4018.13 807.228C4016.62 807.228 4015.4 806.007 4015.4 804.5 4015.4 802.993 4016.62 801.772 4018.13 801.772ZM4039.96 801.772 4050.87 801.772C4052.38 801.772 4053.6 802.993 4053.6 804.5 4053.6 806.007 4052.38 807.228 4050.87 807.228L4039.96 807.228C4038.45 807.228 4037.23 806.007 4037.23 804.5 4037.23 802.993 4038.45 801.772 4039.96 801.772ZM4061.78 801.772 4072.7 801.772C4074.2 801.772 4075.43 802.993 4075.43 804.5 4075.43 806.007 4074.2 807.228 4072.7 807.228L4061.78 807.228C4060.28 807.228 4059.06 806.007 4059.06 804.5 4059.06 802.993 4060.28 801.772 4061.78 801.772ZM4083.61 801.772 4094.52 801.772C4096.03 801.772 4097.25 802.993 4097.25 804.5 4097.25 806.007 4096.03 807.228 4094.52 807.228L4083.61 807.228C4082.1 807.228 4080.88 806.007 4080.88 804.5 4080.88 802.993 4082.1 801.772 4083.61 801.772ZM4105.44 801.772 4116.35 801.772C4117.86 801.772 4119.08 802.993 4119.08 804.5 4119.08 806.007 4117.86 807.228 4116.35 807.228L4105.44 807.228C4103.93 807.228 4102.71 806.007 4102.71 804.5 4102.71 802.993 4103.93 801.772 4105.44 801.772ZM4127.26 801.772 4138.18 801.772C4139.68 801.772 4140.91 802.993 4140.91 804.5 4140.91 806.007 4139.68 807.228 4138.18 807.228L4127.26 807.228C4125.76 807.228 4124.54 806.007 4124.54 804.5 4124.54 802.993 4125.76 801.772 4127.26 801.772ZM4149.09 801.772 4160 801.772C4161.51 801.772 4162.73 802.993 4162.73 804.5 4162.73 806.007 4161.51 807.228 4160 807.228L4149.09 807.228C4147.58 807.228 4146.36 806.007 4146.36 804.5 4146.36 802.993 4147.58 801.772 4149.09 801.772ZM4170.92 801.772 4181.83 801.772C4183.34 801.772 4184.56 802.993 4184.56 804.5 4184.56 806.007 4183.34 807.228 4181.83 807.228L4170.92 807.228C4169.41 807.228 4168.19 806.007 4168.19 804.5 4168.19 802.993 4169.41 801.772 4170.92 801.772ZM4192.74 801.772 4203.66 801.772C4205.16 801.772 4206.39 802.993 4206.39 804.5 4206.39 806.007 4205.16 807.228 4203.66 807.228L4192.74 807.228C4191.24 807.228 4190.02 806.007 4190.02 804.5 4190.02 802.993 4191.24 801.772 4192.74 801.772ZM4214.57 801.772 4225.48 801.772C4226.99 801.772 4228.21 802.993 4228.21 804.5 4228.21 806.007 4226.99 807.228 4225.48 807.228L4214.57 807.228C4213.06 807.228 4211.84 806.007 4211.84 804.5 4211.84 802.993 4213.06 801.772 4214.57 801.772ZM4236.4 801.772 4247.31 801.772C4248.82 801.772 4250.04 802.993 4250.04 804.5 4250.04 806.007 4248.82 807.228 4247.31 807.228L4236.4 807.228C4234.89 807.228 4233.67 806.007 4233.67 804.5 4233.67 802.993 4234.89 801.772 4236.4 801.772ZM4258.22 801.772 4269.14 801.772C4270.64 801.772 4271.87 802.993 4271.87 804.5 4271.87 806.007 4270.64 807.228 4269.14 807.228L4258.22 807.228C4256.72 807.228 4255.5 806.007 4255.5 804.5 4255.5 802.993 4256.72 801.772 4258.22 801.772ZM4280.05 801.772 4290.96 801.772C4292.47 801.772 4293.69 802.993 4293.69 804.5 4293.69 806.007 4292.47 807.228 4290.96 807.228L4280.05 807.228C4278.54 807.228 4277.32 806.007 4277.32 804.5 4277.32 802.993 4278.54 801.772 4280.05 801.772ZM4301.88 801.772 4312.79 801.772C4314.3 801.772 4315.52 802.993 4315.52 804.5 4315.52 806.007 4314.3 807.228 4312.79 807.228L4301.88 807.228C4300.37 807.228 4299.15 806.007 4299.15 804.5 4299.15 802.993 4300.37 801.772 4301.88 801.772ZM4323.7 801.772 4334.62 801.772C4336.12 801.772 4337.35 802.993 4337.35 804.5 4337.35 806.007 4336.12 807.228 4334.62 807.228L4323.7 807.228C4322.2 807.228 4320.98 806.007 4320.98 804.5 4320.98 802.993 4322.2 801.772 4323.7 801.772ZM4345.53 801.772 4356.44 801.772C4357.95 801.772 4359.17 802.993 4359.17 804.5 4359.17 806.007 4357.95 807.228 4356.44 807.228L4345.53 807.228C4344.02 807.228 4342.8 806.007 4342.8 804.5 4342.8 802.993 4344.02 801.772 4345.53 801.772ZM4367.36 801.772 4378.27 801.772C4379.78 801.772 4381 802.993 4381 804.5 4381 806.007 4379.78 807.228 4378.27 807.228L4367.36 807.228C4365.85 807.228 4364.63 806.007 4364.63 804.5 4364.63 802.993 4365.85 801.772 4367.36 801.772ZM4389.19 801.772 4400.1 801.772C4401.61 801.772 4402.83 802.993 4402.83 804.5 4402.83 806.007 4401.61 807.228 4400.1 807.228L4389.19 807.228C4387.68 807.228 4386.46 806.007 4386.46 804.5 4386.46 802.993 4387.68 801.772 4389.19 801.772ZM4411.01 801.772 4421.93 801.772C4423.43 801.772 4424.65 802.993 4424.65 804.5 4424.65 806.007 4423.43 807.228 4421.93 807.228L4411.01 807.228C4409.5 807.228 4408.28 806.007 4408.28 804.5 4408.28 802.993 4409.5 801.772 4411.01 801.772ZM4432.84 801.772 4443.75 801.772C4445.26 801.772 4446.48 802.993 4446.48 804.5 4446.48 806.007 4445.26 807.228 4443.75 807.228L4432.84 807.228C4431.33 807.228 4430.11 806.007 4430.11 804.5 4430.11 802.993 4431.33 801.772 4432.84 801.772ZM4454.67 801.772 4465.58 801.772C4467.09 801.772 4468.31 802.993 4468.31 804.5 4468.31 806.007 4467.09 807.228 4465.58 807.228L4454.67 807.228C4453.16 807.228 4451.94 806.007 4451.94 804.5 4451.94 802.993 4453.16 801.772 4454.67 801.772ZM4476.49 801.772 4487.41 801.772C4488.91 801.772 4490.13 802.993 4490.13 804.5 4490.13 806.007 4488.91 807.228 4487.41 807.228L4476.49 807.228C4474.99 807.228 4473.76 806.007 4473.76 804.5 4473.76 802.993 4474.99 801.772 4476.49 801.772ZM4498.32 801.772 4509.23 801.772C4510.74 801.772 4511.96 802.993 4511.96 804.5 4511.96 806.007 4510.74 807.228 4509.23 807.228L4498.32 807.228C4496.81 807.228 4495.59 806.007 4495.59 804.5 4495.59 802.993 4496.81 801.772 4498.32 801.772ZM4520.15 801.772 4531.06 801.772C4532.57 801.772 4533.79 802.993 4533.79 804.5 4533.79 806.007 4532.57 807.228 4531.06 807.228L4520.15 807.228C4518.64 807.228 4517.42 806.007 4517.42 804.5 4517.42 802.993 4518.64 801.772 4520.15 801.772ZM4541.97 801.772 4552.89 801.772C4554.39 801.772 4555.61 802.993 4555.61 804.5 4555.61 806.007 4554.39 807.228 4552.89 807.228L4541.97 807.228C4540.47 807.228 4539.24 806.007 4539.24 804.5 4539.24 802.993 4540.47 801.772 4541.97 801.772ZM4563.8 801.772 4574.71 801.772C4576.22 801.772 4577.44 802.993 4577.44 804.5 4577.44 806.007 4576.22 807.228 4574.71 807.228L4563.8 807.228C4562.29 807.228 4561.07 806.007 4561.07 804.5 4561.07 802.993 4562.29 801.772 4563.8 801.772ZM4585.63 801.772 4596.54 801.772C4598.05 801.772 4599.27 802.993 4599.27 804.5 4599.27 806.007 4598.05 807.228 4596.54 807.228L4585.63 807.228C4584.12 807.228 4582.9 806.007 4582.9 804.5 4582.9 802.993 4584.12 801.772 4585.63 801.772ZM4607.45 801.772 4618.37 801.772C4619.87 801.772 4621.09 802.993 4621.09 804.5 4621.09 806.007 4619.87 807.228 4618.37 807.228L4607.45 807.228C4605.95 807.228 4604.72 806.007 4604.72 804.5 4604.72 802.993 4605.95 801.772 4607.45 801.772ZM4629.28 801.772 4640.19 801.772C4641.7 801.772 4642.92 802.993 4642.92 804.5 4642.92 806.007 4641.7 807.228 4640.19 807.228L4629.28 807.228C4627.77 807.228 4626.55 806.007 4626.55 804.5 4626.55 802.993 4627.77 801.772 4629.28 801.772ZM4651.11 801.772 4662.02 801.772C4663.53 801.772 4664.75 802.993 4664.75 804.5 4664.75 806.007 4663.53 807.228 4662.02 807.228L4651.11 807.228C4649.6 807.228 4648.38 806.007 4648.38 804.5 4648.38 802.993 4649.6 801.772 4651.11 801.772ZM4672.93 801.772 4683.85 801.772C4685.35 801.772 4686.57 802.993 4686.57 804.5 4686.57 806.007 4685.35 807.228 4683.85 807.228L4672.93 807.228C4671.43 807.228 4670.2 806.007 4670.2 804.5 4670.2 802.993 4671.43 801.772 4672.93 801.772ZM4694.76 801.772 4705.67 801.772C4707.18 801.772 4708.4 802.993 4708.4 804.5 4708.4 806.007 4707.18 807.228 4705.67 807.228L4694.76 807.228C4693.25 807.228 4692.03 806.007 4692.03 804.5 4692.03 802.993 4693.25 801.772 4694.76 801.772ZM4716.59 801.772 4727.5 801.772C4729.01 801.772 4730.23 802.993 4730.23 804.5 4730.23 806.007 4729.01 807.228 4727.5 807.228L4716.59 807.228C4715.08 807.228 4713.86 806.007 4713.86 804.5 4713.86 802.993 4715.08 801.772 4716.59 801.772ZM4738.41 801.772 4749.33 801.772C4750.83 801.772 4752.06 802.993 4752.06 804.5 4752.06 806.007 4750.83 807.228 4749.33 807.228L4738.41 807.228C4736.91 807.228 4735.69 806.007 4735.69 804.5 4735.69 802.993 4736.91 801.772 4738.41 801.772ZM4760.24 801.772 4771.15 801.772C4772.66 801.772 4773.88 802.993 4773.88 804.5 4773.88 806.007 4772.66 807.228 4771.15 807.228L4760.24 807.228C4758.73 807.228 4757.51 806.007 4757.51 804.5 4757.51 802.993 4758.73 801.772 4760.24 801.772ZM4782.07 801.772 4792.98 801.772C4794.49 801.772 4795.71 802.993 4795.71 804.5 4795.71 806.007 4794.49 807.228 4792.98 807.228L4782.07 807.228C4780.56 807.228 4779.34 806.007 4779.34 804.5 4779.34 802.993 4780.56 801.772 4782.07 801.772ZM4803.89 801.772 4814.81 801.772C4816.31 801.772 4817.54 802.993 4817.54 804.5 4817.54 806.007 4816.31 807.228 4814.81 807.228L4803.89 807.228C4802.39 807.228 4801.17 806.007 4801.17 804.5 4801.17 802.993 4802.39 801.772 4803.89 801.772ZM4825.72 801.772 4836.63 801.772C4838.14 801.772 4839.36 802.993 4839.36 804.5 4839.36 806.007 4838.14 807.228 4836.63 807.228L4825.72 807.228C4824.21 807.228 4822.99 806.007 4822.99 804.5 4822.99 802.993 4824.21 801.772 4825.72 801.772ZM4847.55 801.772 4858.46 801.772C4859.97 801.772 4861.19 802.993 4861.19 804.5 4861.19 806.007 4859.97 807.228 4858.46 807.228L4847.55 807.228C4846.04 807.228 4844.82 806.007 4844.82 804.5 4844.82 802.993 4846.04 801.772 4847.55 801.772ZM4869.37 801.772 4880.29 801.772C4881.79 801.772 4883.02 802.993 4883.02 804.5 4883.02 806.007 4881.79 807.228 4880.29 807.228L4869.37 807.228C4867.87 807.228 4866.65 806.007 4866.65 804.5 4866.65 802.993 4867.87 801.772 4869.37 801.772ZM4891.2 801.772 4902.11 801.772C4903.62 801.772 4904.84 802.993 4904.84 804.5 4904.84 806.007 4903.62 807.228 4902.11 807.228L4891.2 807.228C4889.69 807.228 4888.47 806.007 4888.47 804.5 4888.47 802.993 4889.69 801.772 4891.2 801.772ZM4913.03 801.772 4923.94 801.772C4925.45 801.772 4926.67 802.993 4926.67 804.5 4926.67 806.007 4925.45 807.228 4923.94 807.228L4913.03 807.228C4911.52 807.228 4910.3 806.007 4910.3 804.5 4910.3 802.993 4911.52 801.772 4913.03 801.772ZM4934.85 801.772 4945.77 801.772C4947.27 801.772 4948.5 802.993 4948.5 804.5 4948.5 806.007 4947.27 807.228 4945.77 807.228L4934.85 807.228C4933.35 807.228 4932.13 806.007 4932.13 804.5 4932.13 802.993 4933.35 801.772 4934.85 801.772ZM4956.68 801.772 4967.59 801.772C4969.1 801.772 4970.32 802.993 4970.32 804.5 4970.32 806.007 4969.1 807.228 4967.59 807.228L4956.68 807.228C4955.17 807.228 4953.95 806.007 4953.95 804.5 4953.95 802.993 4955.17 801.772 4956.68 801.772ZM4978.51 801.772 4989.42 801.772C4990.93 801.772 4992.15 802.993 4992.15 804.5 4992.15 806.007 4990.93 807.228 4989.42 807.228L4978.51 807.228C4977 807.228 4975.78 806.007 4975.78 804.5 4975.78 802.993 4977 801.772 4978.51 801.772ZM5000.33 801.772 5011.25 801.772C5012.75 801.772 5013.98 802.993 5013.98 804.5 5013.98 806.007 5012.75 807.228 5011.25 807.228L5000.33 807.228C4998.83 807.228 4997.61 806.007 4997.61 804.5 4997.61 802.993 4998.83 801.772 5000.33 801.772ZM5022.16 801.772 5033.07 801.772C5034.58 801.772 5035.8 802.993 5035.8 804.5 5035.8 806.007 5034.58 807.228 5033.07 807.228L5022.16 807.228C5020.65 807.228 5019.43 806.007 5019.43 804.5 5019.43 802.993 5020.65 801.772 5022.16 801.772ZM5043.99 801.772 5054.9 801.772C5056.41 801.772 5057.63 802.993 5057.63 804.5 5057.63 806.007 5056.41 807.228 5054.9 807.228L5043.99 807.228C5042.48 807.228 5041.26 806.007 5041.26 804.5 5041.26 802.993 5042.48 801.772 5043.99 801.772ZM5065.81 801.772 5076.73 801.772C5078.24 801.772 5079.46 802.993 5079.46 804.5 5079.46 806.007 5078.24 807.228 5076.73 807.228L5065.81 807.228C5064.31 807.228 5063.09 806.007 5063.09 804.5 5063.09 802.993 5064.31 801.772 5065.81 801.772ZM5087.64 801.772 5098.56 801.772C5100.06 801.772 5101.28 802.993 5101.28 804.5 5101.28 806.007 5100.06 807.228 5098.56 807.228L5087.64 807.228C5086.13 807.228 5084.91 806.007 5084.91 804.5 5084.91 802.993 5086.13 801.772 5087.64 801.772ZM5109.47 801.772 5120.38 801.772C5121.89 801.772 5123.11 802.993 5123.11 804.5 5123.11 806.007 5121.89 807.228 5120.38 807.228L5109.47 807.228C5107.96 807.228 5106.74 806.007 5106.74 804.5 5106.74 802.993 5107.96 801.772 5109.47 801.772ZM5131.3 801.772 5142.21 801.772C5143.72 801.772 5144.94 802.993 5144.94 804.5 5144.94 806.007 5143.72 807.228 5142.21 807.228L5131.3 807.228C5129.79 807.228 5128.57 806.007 5128.57 804.5 5128.57 802.993 5129.79 801.772 5131.3 801.772ZM5153.12 801.772 5164.04 801.772C5165.54 801.772 5166.76 802.993 5166.76 804.5 5166.76 806.007 5165.54 807.228 5164.04 807.228L5153.12 807.228C5151.62 807.228 5150.39 806.007 5150.39 804.5 5150.39 802.993 5151.62 801.772 5153.12 801.772ZM5174.95 801.772 5185.86 801.772C5187.37 801.772 5188.59 802.993 5188.59 804.5 5188.59 806.007 5187.37 807.228 5185.86 807.228L5174.95 807.228C5173.44 807.228 5172.22 806.007 5172.22 804.5 5172.22 802.993 5173.44 801.772 5174.95 801.772ZM5196.78 801.772 5207.69 801.772C5209.2 801.772 5210.42 802.993 5210.42 804.5 5210.42 806.007 5209.2 807.228 5207.69 807.228L5196.78 807.228C5195.27 807.228 5194.05 806.007 5194.05 804.5 5194.05 802.993 5195.27 801.772 5196.78 801.772ZM5218.6 801.772 5229.52 801.772C5231.02 801.772 5232.24 802.993 5232.24 804.5 5232.24 806.007 5231.02 807.228 5229.52 807.228L5218.6 807.228C5217.1 807.228 5215.87 806.007 5215.87 804.5 5215.87 802.993 5217.1 801.772 5218.6 801.772ZM5240.43 801.772 5251.34 801.772C5252.85 801.772 5254.07 802.993 5254.07 804.5 5254.07 806.007 5252.85 807.228 5251.34 807.228L5240.43 807.228C5238.92 807.228 5237.7 806.007 5237.7 804.5 5237.7 802.993 5238.92 801.772 5240.43 801.772ZM5262.26 801.772 5273.17 801.772C5274.68 801.772 5275.9 802.993 5275.9 804.5 5275.9 806.007 5274.68 807.228 5273.17 807.228L5262.26 807.228C5260.75 807.228 5259.53 806.007 5259.53 804.5 5259.53 802.993 5260.75 801.772 5262.26 801.772ZM5284.08 801.772 5295 801.772C5296.5 801.772 5297.72 802.993 5297.72 804.5 5297.72 806.007 5296.5 807.228 5295 807.228L5284.08 807.228C5282.58 807.228 5281.35 806.007 5281.35 804.5 5281.35 802.993 5282.58 801.772 5284.08 801.772ZM5305.91 801.772 5316.82 801.772C5318.33 801.772 5319.55 802.993 5319.55 804.5 5319.55 806.007 5318.33 807.228 5316.82 807.228L5305.91 807.228C5304.4 807.228 5303.18 806.007 5303.18 804.5 5303.18 802.993 5304.4 801.772 5305.91 801.772ZM5327.74 801.772 5338.65 801.772C5340.16 801.772 5341.38 802.993 5341.38 804.5 5341.38 806.007 5340.16 807.228 5338.65 807.228L5327.74 807.228C5326.23 807.228 5325.01 806.007 5325.01 804.5 5325.01 802.993 5326.23 801.772 5327.74 801.772ZM5349.56 801.772 5360.48 801.772C5361.98 801.772 5363.2 802.993 5363.2 804.5 5363.2 806.007 5361.98 807.228 5360.48 807.228L5349.56 807.228C5348.06 807.228 5346.83 806.007 5346.83 804.5 5346.83 802.993 5348.06 801.772 5349.56 801.772ZM5371.39 801.772 5382.3 801.772C5383.81 801.772 5385.03 802.993 5385.03 804.5 5385.03 806.007 5383.81 807.228 5382.3 807.228L5371.39 807.228C5369.88 807.228 5368.66 806.007 5368.66 804.5 5368.66 802.993 5369.88 801.772 5371.39 801.772ZM5393.22 801.772 5404.13 801.772C5405.64 801.772 5406.86 802.993 5406.86 804.5 5406.86 806.007 5405.64 807.228 5404.13 807.228L5393.22 807.228C5391.71 807.228 5390.49 806.007 5390.49 804.5 5390.49 802.993 5391.71 801.772 5393.22 801.772ZM5415.04 801.772 5425.96 801.772C5427.46 801.772 5428.69 802.993 5428.69 804.5 5428.69 806.007 5427.46 807.228 5425.96 807.228L5415.04 807.228C5413.54 807.228 5412.31 806.007 5412.31 804.5 5412.31 802.993 5413.54 801.772 5415.04 801.772ZM5436.87 801.772 5447.78 801.772C5449.29 801.772 5450.51 802.993 5450.51 804.5 5450.51 806.007 5449.29 807.228 5447.78 807.228L5436.87 807.228C5435.36 807.228 5434.14 806.007 5434.14 804.5 5434.14 802.993 5435.36 801.772 5436.87 801.772ZM5458.7 801.772 5469.61 801.772C5471.12 801.772 5472.34 802.993 5472.34 804.5 5472.34 806.007 5471.12 807.228 5469.61 807.228L5458.7 807.228C5457.19 807.228 5455.97 806.007 5455.97 804.5 5455.97 802.993 5457.19 801.772 5458.7 801.772ZM5480.52 801.772 5491.44 801.772C5492.94 801.772 5494.17 802.993 5494.17 804.5 5494.17 806.007 5492.94 807.228 5491.44 807.228L5480.52 807.228C5479.02 807.228 5477.8 806.007 5477.8 804.5 5477.8 802.993 5479.02 801.772 5480.52 801.772ZM5502.35 801.772 5513.26 801.772C5514.77 801.772 5515.99 802.993 5515.99 804.5 5515.99 806.007 5514.77 807.228 5513.26 807.228L5502.35 807.228C5500.84 807.228 5499.62 806.007 5499.62 804.5 5499.62 802.993 5500.84 801.772 5502.35 801.772ZM5524.18 801.772 5535.09 801.772C5536.6 801.772 5537.82 802.993 5537.82 804.5 5537.82 806.007 5536.6 807.228 5535.09 807.228L5524.18 807.228C5522.67 807.228 5521.45 806.007 5521.45 804.5 5521.45 802.993 5522.67 801.772 5524.18 801.772ZM5546 801.772 5556.25 801.772 5556.92 801.772C5558.42 801.772 5559.65 802.993 5559.65 804.5 5559.65 806.007 5558.42 807.228 5556.92 807.228L5556.25 807.228 5546 807.228C5544.5 807.228 5543.28 806.007 5543.28 804.5 5543.28 802.993 5544.5 801.772 5546 801.772ZM5567.83 801.772 5578.74 801.772C5580.25 801.772 5581.47 802.993 5581.47 804.5 5581.47 806.007 5580.25 807.228 5578.74 807.228L5567.83 807.228C5566.32 807.228 5565.1 806.007 5565.1 804.5 5565.1 802.993 5566.32 801.772 5567.83 801.772ZM5589.66 801.772 5600.57 801.772C5602.08 801.772 5603.3 802.993 5603.3 804.5 5603.3 806.007 5602.08 807.228 5600.57 807.228L5589.66 807.228C5588.15 807.228 5586.93 806.007 5586.93 804.5 5586.93 802.993 5588.15 801.772 5589.66 801.772ZM5611.48 801.772 5622.4 801.772C5623.9 801.772 5625.13 802.993 5625.13 804.5 5625.13 806.007 5623.9 807.228 5622.4 807.228L5611.48 807.228C5609.98 807.228 5608.76 806.007 5608.76 804.5 5608.76 802.993 5609.98 801.772 5611.48 801.772ZM5633.31 801.772 5644.22 801.772C5645.73 801.772 5646.95 802.993 5646.95 804.5 5646.95 806.007 5645.73 807.228 5644.22 807.228L5633.31 807.228C5631.8 807.228 5630.58 806.007 5630.58 804.5 5630.58 802.993 5631.8 801.772 5633.31 801.772ZM5655.14 801.772 5666.05 801.772C5667.56 801.772 5668.78 802.993 5668.78 804.5 5668.78 806.007 5667.56 807.228 5666.05 807.228L5655.14 807.228C5653.63 807.228 5652.41 806.007 5652.41 804.5 5652.41 802.993 5653.63 801.772 5655.14 801.772ZM5676.96 801.772 5687.88 801.772C5689.38 801.772 5690.61 802.993 5690.61 804.5 5690.61 806.007 5689.38 807.228 5687.88 807.228L5676.96 807.228C5675.46 807.228 5674.24 806.007 5674.24 804.5 5674.24 802.993 5675.46 801.772 5676.96 801.772ZM5698.79 801.772 5709.7 801.772C5711.21 801.772 5712.43 802.993 5712.43 804.5 5712.43 806.007 5711.21 807.228 5709.7 807.228L5698.79 807.228C5697.28 807.228 5696.06 806.007 5696.06 804.5 5696.06 802.993 5697.28 801.772 5698.79 801.772ZM5720.62 801.772 5731.53 801.772C5733.04 801.772 5734.26 802.993 5734.26 804.5 5734.26 806.007 5733.04 807.228 5731.53 807.228L5720.62 807.228C5719.11 807.228 5717.89 806.007 5717.89 804.5 5717.89 802.993 5719.11 801.772 5720.62 801.772ZM5742.44 801.772 5753.36 801.772C5754.87 801.772 5756.09 802.993 5756.09 804.5 5756.09 806.007 5754.87 807.228 5753.36 807.228L5742.44 807.228C5740.94 807.228 5739.72 806.007 5739.72 804.5 5739.72 802.993 5740.94 801.772 5742.44 801.772ZM5764.27 801.772 5775.19 801.772C5776.69 801.772 5777.91 802.993 5777.91 804.5 5777.91 806.007 5776.69 807.228 5775.19 807.228L5764.27 807.228C5762.76 807.228 5761.54 806.007 5761.54 804.5 5761.54 802.993 5762.76 801.772 5764.27 801.772ZM5786.1 801.772 5797.01 801.772C5798.52 801.772 5799.74 802.993 5799.74 804.5 5799.74 806.007 5798.52 807.228 5797.01 807.228L5786.1 807.228C5784.59 807.228 5783.37 806.007 5783.37 804.5 5783.37 802.993 5784.59 801.772 5786.1 801.772ZM5807.93 801.772 5818.84 801.772C5820.35 801.772 5821.57 802.993 5821.57 804.5 5821.57 806.007 5820.35 807.228 5818.84 807.228L5807.93 807.228C5806.42 807.228 5805.2 806.007 5805.2 804.5 5805.2 802.993 5806.42 801.772 5807.93 801.772ZM5829.75 801.772 5840.67 801.772C5842.17 801.772 5843.39 802.993 5843.39 804.5 5843.39 806.007 5842.17 807.228 5840.67 807.228L5829.75 807.228C5828.25 807.228 5827.02 806.007 5827.02 804.5 5827.02 802.993 5828.25 801.772 5829.75 801.772ZM5851.58 801.772 5862.49 801.772C5864 801.772 5865.22 802.993 5865.22 804.5 5865.22 806.007 5864 807.228 5862.49 807.228L5851.58 807.228C5850.07 807.228 5848.85 806.007 5848.85 804.5 5848.85 802.993 5850.07 801.772 5851.58 801.772ZM5873.41 801.772 5884.32 801.772C5885.83 801.772 5887.05 802.993 5887.05 804.5 5887.05 806.007 5885.83 807.228 5884.32 807.228L5873.41 807.228C5871.9 807.228 5870.68 806.007 5870.68 804.5 5870.68 802.993 5871.9 801.772 5873.41 801.772ZM5895.23 801.772 5906.15 801.772C5907.65 801.772 5908.87 802.993 5908.87 804.5 5908.87 806.007 5907.65 807.228 5906.15 807.228L5895.23 807.228C5893.73 807.228 5892.5 806.007 5892.5 804.5 5892.5 802.993 5893.73 801.772 5895.23 801.772ZM5917.06 801.772 5925.37 801.772 5927.97 801.772C5929.48 801.772 5930.7 802.993 5930.7 804.5 5930.7 806.007 5929.48 807.228 5927.97 807.228L5925.37 807.228 5917.06 807.228C5915.55 807.228 5914.33 806.007 5914.33 804.5 5914.33 802.993 5915.55 801.772 5917.06 801.772ZM5938.89 801.772 5949.8 801.772C5951.31 801.772 5952.53 802.993 5952.53 804.5 5952.53 806.007 5951.31 807.228 5949.8 807.228L5938.89 807.228C5937.38 807.228 5936.16 806.007 5936.16 804.5 5936.16 802.993 5937.38 801.772 5938.89 801.772ZM5960.71 801.772 5971.63 801.772C5973.13 801.772 5974.35 802.993 5974.35 804.5 5974.35 806.007 5973.13 807.228 5971.63 807.228L5960.71 807.228C5959.21 807.228 5957.98 806.007 5957.98 804.5 5957.98 802.993 5959.21 801.772 5960.71 801.772ZM5982.54 801.772 5993.45 801.772C5994.96 801.772 5996.18 802.993 5996.18 804.5 5996.18 806.007 5994.96 807.228 5993.45 807.228L5982.54 807.228C5981.03 807.228 5979.81 806.007 5979.81 804.5 5979.81 802.993 5981.03 801.772 5982.54 801.772ZM6004.37 801.772 6015.28 801.772C6016.79 801.772 6018.01 802.993 6018.01 804.5 6018.01 806.007 6016.79 807.228 6015.28 807.228L6004.37 807.228C6002.86 807.228 6001.64 806.007 6001.64 804.5 6001.64 802.993 6002.86 801.772 6004.37 801.772ZM6026.19 801.772 6037.11 801.772C6038.61 801.772 6039.83 802.993 6039.83 804.5 6039.83 806.007 6038.61 807.228 6037.11 807.228L6026.19 807.228C6024.69 807.228 6023.46 806.007 6023.46 804.5 6023.46 802.993 6024.69 801.772 6026.19 801.772ZM6048.02 801.772 6058.93 801.772C6060.44 801.772 6061.66 802.993 6061.66 804.5 6061.66 806.007 6060.44 807.228 6058.93 807.228L6048.02 807.228C6046.51 807.228 6045.29 806.007 6045.29 804.5 6045.29 802.993 6046.51 801.772 6048.02 801.772ZM6069.85 801.772 6080.76 801.772C6082.27 801.772 6083.49 802.993 6083.49 804.5 6083.49 806.007 6082.27 807.228 6080.76 807.228L6069.85 807.228C6068.34 807.228 6067.12 806.007 6067.12 804.5 6067.12 802.993 6068.34 801.772 6069.85 801.772ZM6091.67 801.772 6102.59 801.772C6104.09 801.772 6105.31 802.993 6105.31 804.5 6105.31 806.007 6104.09 807.228 6102.59 807.228L6091.67 807.228C6090.17 807.228 6088.94 806.007 6088.94 804.5 6088.94 802.993 6090.17 801.772 6091.67 801.772ZM6113.5 801.772 6124.41 801.772C6125.92 801.772 6127.14 802.993 6127.14 804.5 6127.14 806.007 6125.92 807.228 6124.41 807.228L6113.5 807.228C6111.99 807.228 6110.77 806.007 6110.77 804.5 6110.77 802.993 6111.99 801.772 6113.5 801.772ZM6135.33 801.772 6146.24 801.772C6147.75 801.772 6148.97 802.993 6148.97 804.5 6148.97 806.007 6147.75 807.228 6146.24 807.228L6135.33 807.228C6133.82 807.228 6132.6 806.007 6132.6 804.5 6132.6 802.993 6133.82 801.772 6135.33 801.772ZM6157.15 801.772 6168.07 801.772C6169.57 801.772 6170.8 802.993 6170.8 804.5 6170.8 806.007 6169.57 807.228 6168.07 807.228L6157.15 807.228C6155.65 807.228 6154.43 806.007 6154.43 804.5 6154.43 802.993 6155.65 801.772 6157.15 801.772ZM6178.98 801.772 6189.89 801.772C6191.4 801.772 6192.62 802.993 6192.62 804.5 6192.62 806.007 6191.4 807.228 6189.89 807.228L6178.98 807.228C6177.47 807.228 6176.25 806.007 6176.25 804.5 6176.25 802.993 6177.47 801.772 6178.98 801.772ZM6200.81 801.772 6211.72 801.772C6213.23 801.772 6214.45 802.993 6214.45 804.5 6214.45 806.007 6213.23 807.228 6211.72 807.228L6200.81 807.228C6199.3 807.228 6198.08 806.007 6198.08 804.5 6198.08 802.993 6199.3 801.772 6200.81 801.772ZM6222.63 801.772 6233.55 801.772C6235.05 801.772 6236.28 802.993 6236.28 804.5 6236.28 806.007 6235.05 807.228 6233.55 807.228L6222.63 807.228C6221.13 807.228 6219.91 806.007 6219.91 804.5 6219.91 802.993 6221.13 801.772 6222.63 801.772ZM6244.46 801.772 6255.37 801.772C6256.88 801.772 6258.1 802.993 6258.1 804.5 6258.1 806.007 6256.88 807.228 6255.37 807.228L6244.46 807.228C6242.95 807.228 6241.73 806.007 6241.73 804.5 6241.73 802.993 6242.95 801.772 6244.46 801.772ZM6266.29 801.772 6277.2 801.772C6278.71 801.772 6279.93 802.993 6279.93 804.5 6279.93 806.007 6278.71 807.228 6277.2 807.228L6266.29 807.228C6264.78 807.228 6263.56 806.007 6263.56 804.5 6263.56 802.993 6264.78 801.772 6266.29 801.772ZM6288.11 801.772 6294.5 801.772C6296.01 801.772 6297.23 802.993 6297.23 804.5 6297.23 806.007 6296.01 807.228 6294.5 807.228L6288.11 807.228C6286.61 807.228 6285.39 806.007 6285.39 804.5 6285.39 802.993 6286.61 801.772 6288.11 801.772Z" fill="#FFC000" fill-rule="nonzero" fill-opacity="1"/></g><g><text fill="#000000" fill-opacity="1" font-family="Calibri,Calibri_MSFontService,sans-serif" font-style="normal" font-variant="normal" font-weight="400" font-stretch="normal" font-size="46" text-anchor="start" direction="ltr" writing-mode="lr-tb" unicode-bidi="normal" text-decoration="none" transform="matrix(1 0 0 1 3033.09 2285)">60.0</text></g><g><text fill="#000000" fill-opacity="1" font-family="Calibri,Calibri_MSFontService,sans-serif" font-style="normal" font-variant="normal" font-weight="400" font-stretch="normal" font-size="46" text-anchor="start" direction="ltr" writing-mode="lr-tb" unicode-bidi="normal" text-decoration="none" transform="matrix(1 0 0 1 3033.09 2101)">65.0</text></g><g><text fill="#000000" fill-opacity="1" font-family="Calibri,Calibri_MSFontService,sans-serif" font-style="normal" font-variant="normal" font-weight="400" font-stretch="normal" font-size="46" text-anchor="start" direction="ltr" writing-mode="lr-tb" unicode-bidi="normal" text-decoration="none" transform="matrix(1 0 0 1 3033.09 1918)">70.0</text></g><g><text fill="#000000" fill-opacity="1" font-family="Calibri,Calibri_MSFontService,sans-serif" font-style="normal" font-variant="normal" font-weight="400" font-stretch="normal" font-size="46" text-anchor="start" direction="ltr" writing-mode="lr-tb" unicode-bidi="normal" text-decoration="none" transform="matrix(1 0 0 1 3033.09 1734)">75.0</text></g><g><text fill="#000000" fill-opacity="1" font-family="Calibri,Calibri_MSFontService,sans-serif" font-style="normal" font-variant="normal" font-weight="400" font-stretch="normal" font-size="46" text-anchor="start" direction="ltr" writing-mode="lr-tb" unicode-bidi="normal" text-decoration="none" transform="matrix(1 0 0 1 3033.09 1551)">80.0</text></g><g><text fill="#000000" fill-opacity="1" font-family="Calibri,Calibri_MSFontService,sans-serif" font-style="normal" font-variant="normal" font-weight="400" font-stretch="normal" font-size="46" text-anchor="start" direction="ltr" writing-mode="lr-tb" unicode-bidi="normal" text-decoration="none" transform="matrix(1 0 0 1 3033.09 1367)">85.0</text></g><g><text fill="#000000" fill-opacity="1" font-family="Calibri,Calibri_MSFontService,sans-serif" font-style="normal" font-variant="normal" font-weight="400" font-stretch="normal" font-size="46" text-anchor="start" direction="ltr" writing-mode="lr-tb" unicode-bidi="normal" text-decoration="none" transform="matrix(1 0 0 1 3033.09 1184)">90.0</text></g><g><text fill="#000000" fill-opacity="1" font-family="Calibri,Calibri_MSFontService,sans-serif" font-style="normal" font-variant="normal" font-weight="400" font-stretch="normal" font-size="46" text-anchor="start" direction="ltr" writing-mode="lr-tb" unicode-bidi="normal" text-decoration="none" transform="matrix(1 0 0 1 3033.09 1000)">95.0</text></g><g><text fill="#000000" fill-opacity="1" font-family="Calibri,Calibri_MSFontService,sans-serif" font-style="normal" font-variant="normal" font-weight="400" font-stretch="normal" font-size="46" text-anchor="start" direction="ltr" writing-mode="lr-tb" unicode-bidi="normal" text-decoration="none" transform="matrix(1 0 0 1 3009.9 817)">100.0</text></g><g><text fill="#000000" fill-opacity="1" font-family="Calibri,Calibri_MSFontService,sans-serif" font-style="normal" font-variant="normal" font-weight="400" font-stretch="normal" font-size="46" text-anchor="start" direction="ltr" writing-mode="lr-tb" unicode-bidi="normal" text-decoration="none" transform="matrix(1 0 0 1 3009.9 633)">105.0</text></g><g><text fill="#000000" fill-opacity="1" font-family="Calibri,Calibri_MSFontService,sans-serif" font-style="normal" font-variant="normal" font-weight="400" font-stretch="normal" font-size="46" text-anchor="start" direction="ltr" writing-mode="lr-tb" unicode-bidi="normal" text-decoration="none" transform="matrix(1 0 0 1 3319.17 2346)">S1</text></g><g><text fill="#000000" fill-opacity="1" font-family="Calibri,Calibri_MSFontService,sans-serif" font-style="normal" font-variant="normal" font-weight="400" font-stretch="normal" font-size="46" text-anchor="start" direction="ltr" writing-mode="lr-tb" unicode-bidi="normal" text-decoration="none" transform="matrix(1 0 0 1 3688.29 2346)">S2</text></g><g><text fill="#000000" fill-opacity="1" font-family="Calibri,Calibri_MSFontService,sans-serif" font-style="normal" font-variant="normal" font-weight="400" font-stretch="normal" font-size="46" text-anchor="start" direction="ltr" writing-mode="lr-tb" unicode-bidi="normal" text-decoration="none" transform="matrix(1 0 0 1 4057.42 2346)">S3</text></g><g><text fill="#000000" fill-opacity="1" font-family="Calibri,Calibri_MSFontService,sans-serif" font-style="normal" font-variant="normal" font-weight="400" font-stretch="normal" font-size="46" text-anchor="start" direction="ltr" writing-mode="lr-tb" unicode-bidi="normal" text-decoration="none" transform="matrix(1 0 0 1 4426.54 2346)">S4</text></g><g><text fill="#000000" fill-opacity="1" font-family="Calibri,Calibri_MSFontService,sans-serif" font-style="normal" font-variant="normal" font-weight="400" font-stretch="normal" font-size="46" text-anchor="start" direction="ltr" writing-mode="lr-tb" unicode-bidi="normal" text-decoration="none" transform="matrix(1 0 0 1 4795.67 2346)">S5</text></g><g><text fill="#000000" fill-opacity="1" font-family="Calibri,Calibri_MSFontService,sans-serif" font-style="normal" font-variant="normal" font-weight="400" font-stretch="normal" font-size="46" text-anchor="start" direction="ltr" writing-mode="lr-tb" unicode-bidi="normal" text-decoration="none" transform="matrix(1 0 0 1 5164.8 2346)">S6</text></g><g><text fill="#000000" fill-opacity="1" font-family="Calibri,Calibri_MSFontService,sans-serif" font-style="normal" font-variant="normal" font-weight="400" font-stretch="normal" font-size="46" text-anchor="start" direction="ltr" writing-mode="lr-tb" unicode-bidi="normal" text-decoration="none" transform="matrix(1 0 0 1 5533.92 2346)">S7</text></g><g><text fill="#000000" fill-opacity="1" font-family="Calibri,Calibri_MSFontService,sans-serif" font-style="normal" font-variant="normal" font-weight="400" font-stretch="normal" font-size="46" text-anchor="start" direction="ltr" writing-mode="lr-tb" unicode-bidi="normal" text-decoration="none" transform="matrix(1 0 0 1 5903.05 2346)">S8</text></g><g><text fill="#000000" fill-opacity="1" font-family="Calibri,Calibri_MSFontService,sans-serif" font-style="normal" font-variant="normal" font-weight="400" font-stretch="normal" font-size="46" text-anchor="start" direction="ltr" writing-mode="lr-tb" unicode-bidi="normal" text-decoration="none" transform="matrix(1 0 0 1 6272.17 2346)">S9</text></g><g><text fill="#000000" fill-opacity="1" font-family="Calibri,Calibri_MSFontService,sans-serif" font-style="normal" font-variant="normal" font-weight="700" font-stretch="normal" font-size="46" text-anchor="start" direction="ltr" writing-mode="lr-tb" unicode-bidi="normal" text-decoration="none" transform="matrix(6.12323e-17 -1 1 6.12323e-17 2984.21 1519)">TCR (%)</text></g><g><text fill="#000000" fill-opacity="1" font-family="Calibri,Calibri_MSFontService,sans-serif" font-style="normal" font-variant="normal" font-weight="700" font-stretch="normal" font-size="83" text-anchor="start" direction="ltr" writing-mode="lr-tb" unicode-bidi="normal" text-decoration="none" transform="matrix(1 0 0 1 4641.59 542)">TCR </text></g><g><path d="M4045 2429 4161 2429" stroke="#4472C4" stroke-width="10.1339" stroke-linecap="round" stroke-linejoin="round" stroke-miterlimit="10" stroke-opacity="1" fill="none" fill-rule="evenodd"/></g><g><text fill="#000000" fill-opacity="1" font-family="Calibri,Calibri_MSFontService,sans-serif" font-style="normal" font-variant="normal" font-weight="400" font-stretch="normal" font-size="46" text-anchor="start" direction="ltr" writing-mode="lr-tb" unicode-bidi="normal" text-decoration="none" transform="matrix(1 0 0 1 4173.7 2441)">TCR (%)</text></g><g><path d="M4393.5 2425.77 4409.87 2425.77C4411.38 2425.77 4412.6 2426.99 4412.6 2428.5 4412.6 2430.01 4411.38 2431.23 4409.87 2431.23L4393.5 2431.23C4391.99 2431.23 4390.77 2430.01 4390.77 2428.5 4390.77 2426.99 4391.99 2425.77 4393.5 2425.77ZM4431.7 2425.77 4448.07 2425.77C4449.57 2425.77 4450.8 2426.99 4450.8 2428.5 4450.8 2430.01 4449.57 2431.23 4448.07 2431.23L4431.7 2431.23C4430.19 2431.23 4428.97 2430.01 4428.97 2428.5 4428.97 2426.99 4430.19 2425.77 4431.7 2425.77ZM4469.89 2425.77 4486.26 2425.77C4487.77 2425.77 4488.99 2426.99 4488.99 2428.5 4488.99 2430.01 4487.77 2431.23 4486.26 2431.23L4469.89 2431.23C4468.39 2431.23 4467.17 2430.01 4467.17 2428.5 4467.17 2426.99 4468.39 2425.77 4469.89 2425.77ZM4508.09 2425.77 4509.5 2425.77C4511.01 2425.77 4512.23 2426.99 4512.23 2428.5 4512.23 2430.01 4511.01 2431.23 4509.5 2431.23L4508.09 2431.23C4506.58 2431.23 4505.36 2430.01 4505.36 2428.5 4505.36 2426.99 4506.58 2425.77 4508.09 2425.77Z" fill="#FF0000" fill-rule="nonzero" fill-opacity="1"/></g><g><text fill="#000000" fill-opacity="1" font-family="Calibri,Calibri_MSFontService,sans-serif" font-style="normal" font-variant="normal" font-weight="400" font-stretch="normal" font-size="46" text-anchor="start" direction="ltr" writing-mode="lr-tb" unicode-bidi="normal" text-decoration="none" transform="matrix(1 0 0 1 4522 2441)">Soglia acc. (85%)</text></g><g><path d="M4931.5 2425.77 4942.41 2425.77C4943.92 2425.77 4945.14 2426.99 4945.14 2428.5 4945.14 2430.01 4943.92 2431.23 4942.41 2431.23L4931.5 2431.23C4929.99 2431.23 4928.77 2430.01 4928.77 2428.5 4928.77 2426.99 4929.99 2425.77 4931.5 2425.77ZM4953.33 2425.77 4964.24 2425.77C4965.75 2425.77 4966.97 2426.99 4966.97 2428.5 4966.97 2430.01 4965.75 2431.23 4964.24 2431.23L4953.33 2431.23C4951.82 2431.23 4950.6 2430.01 4950.6 2428.5 4950.6 2426.99 4951.82 2425.77 4953.33 2425.77ZM4975.15 2425.77 4986.07 2425.77C4987.57 2425.77 4988.8 2426.99 4988.8 2428.5 4988.8 2430.01 4987.57 2431.23 4986.07 2431.23L4975.15 2431.23C4973.65 2431.23 4972.43 2430.01 4972.43 2428.5 4972.43 2426.99 4973.65 2425.77 4975.15 2425.77ZM4996.98 2425.77 5007.89 2425.77C5009.4 2425.77 5010.62 2426.99 5010.62 2428.5 5010.62 2430.01 5009.4 2431.23 5007.89 2431.23L4996.98 2431.23C4995.47 2431.23 4994.25 2430.01 4994.25 2428.5 4994.25 2426.99 4995.47 2425.77 4996.98 2425.77ZM5018.81 2425.77 5029.72 2425.77C5031.23 2425.77 5032.45 2426.99 5032.45 2428.5 5032.45 2430.01 5031.23 2431.23 5029.72 2431.23L5018.81 2431.23C5017.3 2431.23 5016.08 2430.01 5016.08 2428.5 5016.08 2426.99 5017.3 2425.77 5018.81 2425.77ZM5040.63 2425.77 5047.5 2425.77C5049.01 2425.77 5050.23 2426.99 5050.23 2428.5 5050.23 2430.01 5049.01 2431.23 5047.5 2431.23L5040.63 2431.23C5039.13 2431.23 5037.91 2430.01 5037.91 2428.5 5037.91 2426.99 5039.13 2425.77 5040.63 2425.77Z" fill="#FFC000" fill-rule="nonzero" fill-opacity="1"/></g><g><text fill="#000000" fill-opacity="1" font-family="Calibri,Calibri_MSFontService,sans-serif" font-style="normal" font-variant="normal" font-weight="400" font-stretch="normal" font-size="46" text-anchor="start" direction="ltr" writing-mode="lr-tb" unicode-bidi="normal" text-decoration="none" transform="matrix(1 0 0 1 5059.89 2441)">Soglia ott. (100%)</text></g><rect x="2883.5" y="428.5" width="3646" height="2070" stroke="#D9D9D9" stroke-width="3.37795" stroke-linecap="butt" stroke-linejoin="round" stroke-miterlimit="10" stroke-opacity="1" fill="none"/></g></g></svg>