<svg width="3758" height="2383" xmlns="http://www.w3.org/2000/svg" xmlns:xlink="http://www.w3.org/1999/xlink" xml:space="preserve" overflow="hidden"><defs><clipPath id="clip0"><rect x="1503" y="215" width="3758" height="2383"/></clipPath><clipPath id="clip1"><rect x="1503" y="215" width="3758" height="2383"/></clipPath></defs><g clip-path="url(#clip0)" transform="translate(-1503 -215)"><g clip-path="url(#clip1)"><rect x="1510" y="223" width="3744" height="2369" fill="#FFFFFF" fill-opacity="1"/><g><path d="M1874.5 2078.57 5143.5 2078.57M1874.5 1898.56 5143.5 1898.56M1874.5 1717.56 5143.5 1717.56M1874.5 1537.55 5143.5 1537.55M1874.5 1356.54 5143.5 1356.54M1874.5 1176.54 5143.5 1176.54M1874.5 995.533 5143.5 995.533M1874.5 815.527 5143.5 815.527M1874.5 634.521 5143.5 634.521M1874.5 454.5 5143.5 454.5" stroke="#878787" stroke-width="3.37795" stroke-linecap="butt" stroke-linejoin="round" stroke-miterlimit="10" stroke-opacity="1" fill="none" fill-rule="nonzero"/></g><g><rect x="1874.5" y="454.5" width="3269" height="1805" stroke="#000000" stroke-width="0" stroke-linecap="butt" stroke-linejoin="round" stroke-miterlimit="10" stroke-opacity="1" fill="none"/></g><g><path d="M0 0 0.000360892 1805" stroke="#878787" stroke-width="3.37795" stroke-linecap="butt" stroke-linejoin="round" stroke-miterlimit="10" stroke-opacity="1" fill="none" fill-rule="evenodd" transform="matrix(1 0 0 -1 1874.5 2259.5)"/></g><g><path d="M1874.5 2259.5 5143.5 2259.5" stroke="#878787" stroke-width="3.37795" stroke-linecap="butt" stroke-linejoin="round" stroke-miterlimit="10" stroke-opacity="1" fill="none" fill-rule="evenodd"/></g><g><path d="M2056.5 1519.5C2177.58 1477.37 2298.67 1426.22 2419.75 1393.12 2540.83 1360.02 2661.92 1326.92 2783 1320.9 2904.08 1314.88 3025.17 1414.18 3146.25 1357.01 3267.33 1299.84 3388.42 1111.47 3509.5 977.865 3630.58 844.262 3751.67 615.271 3872.75 555.39 3993.83 495.509 4114.92 492.5 4236 618.581 4357.08 744.661 4478.17 1204.45 4599.25 1311.87 4720.33 1419.3 4841.42 1279.38 4962.5 1263.13" stroke="#ED7D31" stroke-width="8.96457" stroke-linecap="round" stroke-linejoin="round" stroke-miterlimit="10" stroke-opacity="1" fill="none" fill-rule="nonzero"/></g><g><path d="M2056 1352.99 2072.04 1352.99C2074.26 1352.99 2076.05 1354.79 2076.05 1357 2076.05 1359.21 2074.26 1361.01 2072.04 1361.01L2056 1361.01C2053.79 1361.01 2051.99 1359.21 2051.99 1357 2051.99 1354.79 2053.79 1352.99 2056 1352.99ZM2088.08 1352.99 2104.12 1352.99C2106.34 1352.99 2108.14 1354.79 2108.14 1357 2108.14 1359.21 2106.34 1361.01 2104.12 1361.01L2088.08 1361.01C2085.87 1361.01 2084.07 1359.21 2084.07 1357 2084.07 1354.79 2085.87 1352.99 2088.08 1352.99ZM2120.17 1352.99 2136.21 1352.99C2138.42 1352.99 2140.22 1354.79 2140.22 1357 2140.22 1359.21 2138.42 1361.01 2136.21 1361.01L2120.17 1361.01C2117.95 1361.01 2116.16 1359.21 2116.16 1357 2116.16 1354.79 2117.95 1352.99 2120.17 1352.99ZM2152.25 1352.99 2168.29 1352.99C2170.51 1352.99 2172.3 1354.79 2172.3 1357 2172.3 1359.21 2170.51 1361.01 2168.29 1361.01L2152.25 1361.01C2150.04 1361.01 2148.24 1359.21 2148.24 1357 2148.24 1354.79 2150.04 1352.99 2152.25 1352.99ZM2184.33 1352.99 2200.38 1352.99C2202.59 1352.99 2204.39 1354.79 2204.39 1357 2204.39 1359.21 2202.59 1361.01 2200.38 1361.01L2184.33 1361.01C2182.12 1361.01 2180.32 1359.21 2180.32 1357 2180.32 1354.79 2182.12 1352.99 2184.33 1352.99ZM2216.42 1352.99 2232.46 1352.99C2234.67 1352.99 2236.47 1354.79 2236.47 1357 2236.47 1359.21 2234.67 1361.01 2232.46 1361.01L2216.42 1361.01C2214.2 1361.01 2212.41 1359.21 2212.41 1357 2212.41 1354.79 2214.2 1352.99 2216.42 1352.99ZM2248.5 1352.99 2264.54 1352.99C2266.76 1352.99 2268.55 1354.79 2268.55 1357 2268.55 1359.21 2266.76 1361.01 2264.54 1361.01L2248.5 1361.01C2246.29 1361.01 2244.49 1359.21 2244.49 1357 2244.49 1354.79 2246.29 1352.99 2248.5 1352.99ZM2280.58 1352.99 2296.62 1352.99C2298.84 1352.99 2300.64 1354.79 2300.64 1357 2300.64 1359.21 2298.84 1361.01 2296.62 1361.01L2280.58 1361.01C2278.37 1361.01 2276.57 1359.21 2276.57 1357 2276.57 1354.79 2278.37 1352.99 2280.58 1352.99ZM2312.67 1352.99 2328.71 1352.99C2330.92 1352.99 2332.72 1354.79 2332.72 1357 2332.72 1359.21 2330.92 1361.01 2328.71 1361.01L2312.67 1361.01C2310.45 1361.01 2308.66 1359.21 2308.66 1357 2308.66 1354.79 2310.45 1352.99 2312.67 1352.99ZM2344.75 1352.99 2360.79 1352.99C2363.01 1352.99 2364.8 1354.79 2364.8 1357 2364.8 1359.21 2363.01 1361.01 2360.79 1361.01L2344.75 1361.01C2342.54 1361.01 2340.74 1359.21 2340.74 1357 2340.74 1354.79 2342.54 1352.99 2344.75 1352.99ZM2376.83 1352.99 2392.88 1352.99C2395.09 1352.99 2396.89 1354.79 2396.89 1357 2396.89 1359.21 2395.09 1361.01 2392.88 1361.01L2376.83 1361.01C2374.62 1361.01 2372.82 1359.21 2372.82 1357 2372.82 1354.79 2374.62 1352.99 2376.83 1352.99ZM2408.92 1352.99 2419.25 1352.99 2424.96 1352.99C2427.17 1352.99 2428.97 1354.79 2428.97 1357 2428.97 1359.21 2427.17 1361.01 2424.96 1361.01L2419.25 1361.01 2408.92 1361.01C2406.7 1361.01 2404.91 1359.21 2404.91 1357 2404.91 1354.79 2406.7 1352.99 2408.92 1352.99ZM2441 1352.99 2457.04 1352.99C2459.26 1352.99 2461.05 1354.79 2461.05 1357 2461.05 1359.21 2459.26 1361.01 2457.04 1361.01L2441 1361.01C2438.79 1361.01 2436.99 1359.21 2436.99 1357 2436.99 1354.79 2438.79 1352.99 2441 1352.99ZM2473.08 1352.99 2489.12 1352.99C2491.34 1352.99 2493.14 1354.79 2493.14 1357 2493.14 1359.21 2491.34 1361.01 2489.12 1361.01L2473.08 1361.01C2470.87 1361.01 2469.07 1359.21 2469.07 1357 2469.07 1354.79 2470.87 1352.99 2473.08 1352.99ZM2505.17 1352.99 2521.21 1352.99C2523.42 1352.99 2525.22 1354.79 2525.22 1357 2525.22 1359.21 2523.42 1361.01 2521.21 1361.01L2505.17 1361.01C2502.95 1361.01 2501.16 1359.21 2501.16 1357 2501.16 1354.79 2502.95 1352.99 2505.17 1352.99ZM2537.25 1352.99 2553.29 1352.99C2555.51 1352.99 2557.3 1354.79 2557.3 1357 2557.3 1359.21 2555.51 1361.01 2553.29 1361.01L2537.25 1361.01C2535.04 1361.01 2533.24 1359.21 2533.24 1357 2533.24 1354.79 2535.04 1352.99 2537.25 1352.99ZM2569.33 1352.99 2585.38 1352.99C2587.59 1352.99 2589.39 1354.79 2589.39 1357 2589.39 1359.21 2587.59 1361.01 2585.38 1361.01L2569.33 1361.01C2567.12 1361.01 2565.32 1359.21 2565.32 1357 2565.32 1354.79 2567.12 1352.99 2569.33 1352.99ZM2601.42 1352.99 2617.46 1352.99C2619.67 1352.99 2621.47 1354.79 2621.47 1357 2621.47 1359.21 2619.67 1361.01 2617.46 1361.01L2601.42 1361.01C2599.2 1361.01 2597.41 1359.21 2597.41 1357 2597.41 1354.79 2599.2 1352.99 2601.42 1352.99ZM2633.5 1352.99 2649.54 1352.99C2651.76 1352.99 2653.55 1354.79 2653.55 1357 2653.55 1359.21 2651.76 1361.01 2649.54 1361.01L2633.5 1361.01C2631.29 1361.01 2629.49 1359.21 2629.49 1357 2629.49 1354.79 2631.29 1352.99 2633.5 1352.99ZM2665.58 1352.99 2681.62 1352.99C2683.84 1352.99 2685.64 1354.79 2685.64 1357 2685.64 1359.21 2683.84 1361.01 2681.62 1361.01L2665.58 1361.01C2663.37 1361.01 2661.57 1359.21 2661.57 1357 2661.57 1354.79 2663.37 1352.99 2665.58 1352.99ZM2697.67 1352.99 2713.71 1352.99C2715.92 1352.99 2717.72 1354.79 2717.72 1357 2717.72 1359.21 2715.92 1361.01 2713.71 1361.01L2697.67 1361.01C2695.45 1361.01 2693.66 1359.21 2693.66 1357 2693.66 1354.79 2695.45 1352.99 2697.67 1352.99ZM2729.75 1352.99 2745.79 1352.99C2748.01 1352.99 2749.8 1354.79 2749.8 1357 2749.8 1359.21 2748.01 1361.01 2745.79 1361.01L2729.75 1361.01C2727.54 1361.01 2725.74 1359.21 2725.74 1357 2725.74 1354.79 2727.54 1352.99 2729.75 1352.99ZM2761.83 1352.99 2777.88 1352.99C2780.09 1352.99 2781.89 1354.79 2781.89 1357 2781.89 1359.21 2780.09 1361.01 2777.88 1361.01L2761.83 1361.01C2759.62 1361.01 2757.82 1359.21 2757.82 1357 2757.82 1354.79 2759.62 1352.99 2761.83 1352.99ZM2793.92 1352.99 2809.96 1352.99C2812.17 1352.99 2813.97 1354.79 2813.97 1357 2813.97 1359.21 2812.17 1361.01 2809.96 1361.01L2793.92 1361.01C2791.7 1361.01 2789.91 1359.21 2789.91 1357 2789.91 1354.79 2791.7 1352.99 2793.92 1352.99ZM2826 1352.99 2842.04 1352.99C2844.26 1352.99 2846.05 1354.79 2846.05 1357 2846.05 1359.21 2844.26 1361.01 2842.04 1361.01L2826 1361.01C2823.79 1361.01 2821.99 1359.21 2821.99 1357 2821.99 1354.79 2823.79 1352.99 2826 1352.99ZM2858.08 1352.99 2874.12 1352.99C2876.34 1352.99 2878.14 1354.79 2878.14 1357 2878.14 1359.21 2876.34 1361.01 2874.12 1361.01L2858.08 1361.01C2855.87 1361.01 2854.07 1359.21 2854.07 1357 2854.07 1354.79 2855.87 1352.99 2858.08 1352.99ZM2890.17 1352.99 2906.21 1352.99C2908.42 1352.99 2910.22 1354.79 2910.22 1357 2910.22 1359.21 2908.42 1361.01 2906.21 1361.01L2890.17 1361.01C2887.95 1361.01 2886.16 1359.21 2886.16 1357 2886.16 1354.79 2887.95 1352.99 2890.17 1352.99ZM2922.25 1352.99 2938.29 1352.99C2940.51 1352.99 2942.3 1354.79 2942.3 1357 2942.3 1359.21 2940.51 1361.01 2938.29 1361.01L2922.25 1361.01C2920.04 1361.01 2918.24 1359.21 2918.24 1357 2918.24 1354.79 2920.04 1352.99 2922.25 1352.99ZM2954.33 1352.99 2970.38 1352.99C2972.59 1352.99 2974.39 1354.79 2974.39 1357 2974.39 1359.21 2972.59 1361.01 2970.38 1361.01L2954.33 1361.01C2952.12 1361.01 2950.32 1359.21 2950.32 1357 2950.32 1354.79 2952.12 1352.99 2954.33 1352.99ZM2986.42 1352.99 3002.46 1352.99C3004.67 1352.99 3006.47 1354.79 3006.47 1357 3006.47 1359.21 3004.67 1361.01 3002.46 1361.01L2986.42 1361.01C2984.2 1361.01 2982.41 1359.21 2982.41 1357 2982.41 1354.79 2984.2 1352.99 2986.42 1352.99ZM3018.5 1352.99 3034.54 1352.99C3036.76 1352.99 3038.55 1354.79 3038.55 1357 3038.55 1359.21 3036.76 1361.01 3034.54 1361.01L3018.5 1361.01C3016.29 1361.01 3014.49 1359.21 3014.49 1357 3014.49 1354.79 3016.29 1352.99 3018.5 1352.99ZM3050.58 1352.99 3066.62 1352.99C3068.84 1352.99 3070.64 1354.79 3070.64 1357 3070.64 1359.21 3068.84 1361.01 3066.62 1361.01L3050.58 1361.01C3048.37 1361.01 3046.57 1359.21 3046.57 1357 3046.57 1354.79 3048.37 1352.99 3050.58 1352.99ZM3082.67 1352.99 3098.71 1352.99C3100.92 1352.99 3102.72 1354.79 3102.72 1357 3102.72 1359.21 3100.92 1361.01 3098.71 1361.01L3082.67 1361.01C3080.45 1361.01 3078.66 1359.21 3078.66 1357 3078.66 1354.79 3080.45 1352.99 3082.67 1352.99ZM3114.75 1352.99 3130.79 1352.99C3133.01 1352.99 3134.8 1354.79 3134.8 1357 3134.8 1359.21 3133.01 1361.01 3130.79 1361.01L3114.75 1361.01C3112.54 1361.01 3110.74 1359.21 3110.74 1357 3110.74 1354.79 3112.54 1352.99 3114.75 1352.99ZM3146.83 1352.99 3162.88 1352.99C3165.09 1352.99 3166.89 1354.79 3166.89 1357 3166.89 1359.21 3165.09 1361.01 3162.88 1361.01L3146.83 1361.01C3144.62 1361.01 3142.82 1359.21 3142.82 1357 3142.82 1354.79 3144.62 1352.99 3146.83 1352.99ZM3178.92 1352.99 3194.96 1352.99C3197.17 1352.99 3198.97 1354.79 3198.97 1357 3198.97 1359.21 3197.17 1361.01 3194.96 1361.01L3178.92 1361.01C3176.7 1361.01 3174.91 1359.21 3174.91 1357 3174.91 1354.79 3176.7 1352.99 3178.92 1352.99ZM3211 1352.99 3227.04 1352.99C3229.26 1352.99 3231.05 1354.79 3231.05 1357 3231.05 1359.21 3229.26 1361.01 3227.04 1361.01L3211 1361.01C3208.79 1361.01 3206.99 1359.21 3206.99 1357 3206.99 1354.79 3208.79 1352.99 3211 1352.99ZM3243.08 1352.99 3259.12 1352.99C3261.34 1352.99 3263.14 1354.79 3263.14 1357 3263.14 1359.21 3261.34 1361.01 3259.12 1361.01L3243.08 1361.01C3240.87 1361.01 3239.07 1359.21 3239.07 1357 3239.07 1354.79 3240.87 1352.99 3243.08 1352.99ZM3275.17 1352.99 3291.21 1352.99C3293.42 1352.99 3295.22 1354.79 3295.22 1357 3295.22 1359.21 3293.42 1361.01 3291.21 1361.01L3275.17 1361.01C3272.95 1361.01 3271.16 1359.21 3271.16 1357 3271.16 1354.79 3272.95 1352.99 3275.17 1352.99ZM3307.25 1352.99 3323.29 1352.99C3325.51 1352.99 3327.3 1354.79 3327.3 1357 3327.3 1359.21 3325.51 1361.01 3323.29 1361.01L3307.25 1361.01C3305.04 1361.01 3303.24 1359.21 3303.24 1357 3303.24 1354.79 3305.04 1352.99 3307.25 1352.99ZM3339.33 1352.99 3355.38 1352.99C3357.59 1352.99 3359.39 1354.79 3359.39 1357 3359.39 1359.21 3357.59 1361.01 3355.38 1361.01L3339.33 1361.01C3337.12 1361.01 3335.32 1359.21 3335.32 1357 3335.32 1354.79 3337.12 1352.99 3339.33 1352.99ZM3371.42 1352.99 3387.46 1352.99C3389.67 1352.99 3391.47 1354.79 3391.47 1357 3391.47 1359.21 3389.67 1361.01 3387.46 1361.01L3371.42 1361.01C3369.2 1361.01 3367.41 1359.21 3367.41 1357 3367.41 1354.79 3369.2 1352.99 3371.42 1352.99ZM3403.5 1352.99 3419.54 1352.99C3421.76 1352.99 3423.55 1354.79 3423.55 1357 3423.55 1359.21 3421.76 1361.01 3419.54 1361.01L3403.5 1361.01C3401.29 1361.01 3399.49 1359.21 3399.49 1357 3399.49 1354.79 3401.29 1352.99 3403.5 1352.99ZM3435.58 1352.99 3451.62 1352.99C3453.84 1352.99 3455.64 1354.79 3455.64 1357 3455.64 1359.21 3453.84 1361.01 3451.62 1361.01L3435.58 1361.01C3433.37 1361.01 3431.57 1359.21 3431.57 1357 3431.57 1354.79 3433.37 1352.99 3435.58 1352.99ZM3467.67 1352.99 3483.71 1352.99C3485.92 1352.99 3487.72 1354.79 3487.72 1357 3487.72 1359.21 3485.92 1361.01 3483.71 1361.01L3467.67 1361.01C3465.45 1361.01 3463.66 1359.21 3463.66 1357 3463.66 1354.79 3465.45 1352.99 3467.67 1352.99ZM3499.75 1352.99 3509 1352.99 3515.79 1352.99C3518.01 1352.99 3519.8 1354.79 3519.8 1357 3519.8 1359.21 3518.01 1361.01 3515.79 1361.01L3509 1361.01 3499.75 1361.01C3497.54 1361.01 3495.74 1359.21 3495.74 1357 3495.74 1354.79 3497.54 1352.99 3499.75 1352.99ZM3531.83 1352.99 3547.88 1352.99C3550.09 1352.99 3551.89 1354.79 3551.89 1357 3551.89 1359.21 3550.09 1361.01 3547.88 1361.01L3531.83 1361.01C3529.62 1361.01 3527.82 1359.21 3527.82 1357 3527.82 1354.79 3529.62 1352.99 3531.83 1352.99ZM3563.92 1352.99 3579.96 1352.99C3582.17 1352.99 3583.97 1354.79 3583.97 1357 3583.97 1359.21 3582.17 1361.01 3579.96 1361.01L3563.92 1361.01C3561.7 1361.01 3559.91 1359.21 3559.91 1357 3559.91 1354.79 3561.7 1352.99 3563.92 1352.99ZM3596 1352.99 3612.04 1352.99C3614.26 1352.99 3616.05 1354.79 3616.05 1357 3616.05 1359.21 3614.26 1361.01 3612.04 1361.01L3596 1361.01C3593.78 1361.01 3591.99 1359.21 3591.99 1357 3591.99 1354.79 3593.78 1352.99 3596 1352.99ZM3628.08 1352.99 3644.12 1352.99C3646.34 1352.99 3648.14 1354.79 3648.14 1357 3648.14 1359.21 3646.34 1361.01 3644.12 1361.01L3628.08 1361.01C3625.87 1361.01 3624.07 1359.21 3624.07 1357 3624.07 1354.79 3625.87 1352.99 3628.08 1352.99ZM3660.17 1352.99 3676.21 1352.99C3678.42 1352.99 3680.22 1354.79 3680.22 1357 3680.22 1359.21 3678.42 1361.01 3676.21 1361.01L3660.17 1361.01C3657.95 1361.01 3656.16 1359.21 3656.16 1357 3656.16 1354.79 3657.95 1352.99 3660.17 1352.99ZM3692.25 1352.99 3708.29 1352.99C3710.51 1352.99 3712.3 1354.79 3712.3 1357 3712.3 1359.21 3710.51 1361.01 3708.29 1361.01L3692.25 1361.01C3690.03 1361.01 3688.24 1359.21 3688.24 1357 3688.24 1354.79 3690.03 1352.99 3692.25 1352.99ZM3724.33 1352.99 3740.38 1352.99C3742.59 1352.99 3744.39 1354.79 3744.39 1357 3744.39 1359.21 3742.59 1361.01 3740.38 1361.01L3724.33 1361.01C3722.12 1361.01 3720.32 1359.21 3720.32 1357 3720.32 1354.79 3722.12 1352.99 3724.33 1352.99ZM3756.42 1352.99 3772.46 1352.99C3774.67 1352.99 3776.47 1354.79 3776.47 1357 3776.47 1359.21 3774.67 1361.01 3772.46 1361.01L3756.42 1361.01C3754.2 1361.01 3752.41 1359.21 3752.41 1357 3752.41 1354.79 3754.2 1352.99 3756.42 1352.99ZM3788.5 1352.99 3804.54 1352.99C3806.76 1352.99 3808.55 1354.79 3808.55 1357 3808.55 1359.21 3806.76 1361.01 3804.54 1361.01L3788.5 1361.01C3786.28 1361.01 3784.49 1359.21 3784.49 1357 3784.49 1354.79 3786.28 1352.99 3788.5 1352.99ZM3820.58 1352.99 3836.62 1352.99C3838.84 1352.99 3840.64 1354.79 3840.64 1357 3840.64 1359.21 3838.84 1361.01 3836.62 1361.01L3820.58 1361.01C3818.37 1361.01 3816.57 1359.21 3816.57 1357 3816.57 1354.79 3818.37 1352.99 3820.58 1352.99ZM3852.67 1352.99 3868.71 1352.99C3870.92 1352.99 3872.72 1354.79 3872.72 1357 3872.72 1359.21 3870.92 1361.01 3868.71 1361.01L3852.67 1361.01C3850.45 1361.01 3848.66 1359.21 3848.66 1357 3848.66 1354.79 3850.45 1352.99 3852.67 1352.99ZM3884.75 1352.99 3900.79 1352.99C3903.01 1352.99 3904.8 1354.79 3904.8 1357 3904.8 1359.21 3903.01 1361.01 3900.79 1361.01L3884.75 1361.01C3882.53 1361.01 3880.74 1359.21 3880.74 1357 3880.74 1354.79 3882.53 1352.99 3884.75 1352.99ZM3916.83 1352.99 3932.88 1352.99C3935.09 1352.99 3936.89 1354.79 3936.89 1357 3936.89 1359.21 3935.09 1361.01 3932.88 1361.01L3916.83 1361.01C3914.62 1361.01 3912.82 1359.21 3912.82 1357 3912.82 1354.79 3914.62 1352.99 3916.83 1352.99ZM3948.92 1352.99 3964.96 1352.99C3967.17 1352.99 3968.97 1354.79 3968.97 1357 3968.97 1359.21 3967.17 1361.01 3964.96 1361.01L3948.92 1361.01C3946.7 1361.01 3944.91 1359.21 3944.91 1357 3944.91 1354.79 3946.7 1352.99 3948.92 1352.99ZM3981 1352.99 3997.04 1352.99C3999.26 1352.99 4001.05 1354.79 4001.05 1357 4001.05 1359.21 3999.26 1361.01 3997.04 1361.01L3981 1361.01C3978.78 1361.01 3976.99 1359.21 3976.99 1357 3976.99 1354.79 3978.78 1352.99 3981 1352.99ZM4013.08 1352.99 4029.12 1352.99C4031.34 1352.99 4033.14 1354.79 4033.14 1357 4033.14 1359.21 4031.34 1361.01 4029.12 1361.01L4013.08 1361.01C4010.87 1361.01 4009.07 1359.21 4009.07 1357 4009.07 1354.79 4010.87 1352.99 4013.08 1352.99ZM4045.17 1352.99 4061.21 1352.99C4063.42 1352.99 4065.22 1354.79 4065.22 1357 4065.22 1359.21 4063.42 1361.01 4061.21 1361.01L4045.17 1361.01C4042.95 1361.01 4041.16 1359.21 4041.16 1357 4041.16 1354.79 4042.95 1352.99 4045.17 1352.99ZM4077.25 1352.99 4093.29 1352.99C4095.51 1352.99 4097.3 1354.79 4097.3 1357 4097.3 1359.21 4095.51 1361.01 4093.29 1361.01L4077.25 1361.01C4075.03 1361.01 4073.24 1359.21 4073.24 1357 4073.24 1354.79 4075.03 1352.99 4077.25 1352.99ZM4109.33 1352.99 4125.38 1352.99C4127.59 1352.99 4129.39 1354.79 4129.39 1357 4129.39 1359.21 4127.59 1361.01 4125.38 1361.01L4109.33 1361.01C4107.12 1361.01 4105.32 1359.21 4105.32 1357 4105.32 1354.79 4107.12 1352.99 4109.33 1352.99ZM4141.42 1352.99 4157.46 1352.99C4159.67 1352.99 4161.47 1354.79 4161.47 1357 4161.47 1359.21 4159.67 1361.01 4157.46 1361.01L4141.42 1361.01C4139.2 1361.01 4137.41 1359.21 4137.41 1357 4137.41 1354.79 4139.2 1352.99 4141.42 1352.99ZM4173.5 1352.99 4189.54 1352.99C4191.76 1352.99 4193.55 1354.79 4193.55 1357 4193.55 1359.21 4191.76 1361.01 4189.54 1361.01L4173.5 1361.01C4171.29 1361.01 4169.49 1359.21 4169.49 1357 4169.49 1354.79 4171.29 1352.99 4173.5 1352.99ZM4205.58 1352.99 4221.62 1352.99C4223.84 1352.99 4225.64 1354.79 4225.64 1357 4225.64 1359.21 4223.84 1361.01 4221.62 1361.01L4205.58 1361.01C4203.37 1361.01 4201.57 1359.21 4201.57 1357 4201.57 1354.79 4203.37 1352.99 4205.58 1352.99ZM4237.67 1352.99 4253.71 1352.99C4255.92 1352.99 4257.72 1354.79 4257.72 1357 4257.72 1359.21 4255.92 1361.01 4253.71 1361.01L4237.67 1361.01C4235.45 1361.01 4233.66 1359.21 4233.66 1357 4233.66 1354.79 4235.45 1352.99 4237.67 1352.99ZM4269.75 1352.99 4285.79 1352.99C4288.01 1352.99 4289.8 1354.79 4289.8 1357 4289.8 1359.21 4288.01 1361.01 4285.79 1361.01L4269.75 1361.01C4267.54 1361.01 4265.74 1359.21 4265.74 1357 4265.74 1354.79 4267.54 1352.99 4269.75 1352.99ZM4301.83 1352.99 4317.88 1352.99C4320.09 1352.99 4321.89 1354.79 4321.89 1357 4321.89 1359.21 4320.09 1361.01 4317.88 1361.01L4301.83 1361.01C4299.62 1361.01 4297.82 1359.21 4297.82 1357 4297.82 1354.79 4299.62 1352.99 4301.83 1352.99ZM4333.92 1352.99 4349.96 1352.99C4352.17 1352.99 4353.97 1354.79 4353.97 1357 4353.97 1359.21 4352.17 1361.01 4349.96 1361.01L4333.92 1361.01C4331.7 1361.01 4329.91 1359.21 4329.91 1357 4329.91 1354.79 4331.7 1352.99 4333.92 1352.99ZM4366 1352.99 4382.04 1352.99C4384.26 1352.99 4386.05 1354.79 4386.05 1357 4386.05 1359.21 4384.26 1361.01 4382.04 1361.01L4366 1361.01C4363.79 1361.01 4361.99 1359.21 4361.99 1357 4361.99 1354.79 4363.79 1352.99 4366 1352.99ZM4398.08 1352.99 4414.12 1352.99C4416.34 1352.99 4418.14 1354.79 4418.14 1357 4418.14 1359.21 4416.34 1361.01 4414.12 1361.01L4398.08 1361.01C4395.87 1361.01 4394.07 1359.21 4394.07 1357 4394.07 1354.79 4395.87 1352.99 4398.08 1352.99ZM4430.17 1352.99 4446.21 1352.99C4448.42 1352.99 4450.22 1354.79 4450.22 1357 4450.22 1359.21 4448.42 1361.01 4446.21 1361.01L4430.17 1361.01C4427.95 1361.01 4426.16 1359.21 4426.16 1357 4426.16 1354.79 4427.95 1352.99 4430.17 1352.99ZM4462.25 1352.99 4478.29 1352.99C4480.51 1352.99 4482.3 1354.79 4482.3 1357 4482.3 1359.21 4480.51 1361.01 4478.29 1361.01L4462.25 1361.01C4460.04 1361.01 4458.24 1359.21 4458.24 1357 4458.24 1354.79 4460.04 1352.99 4462.25 1352.99ZM4494.33 1352.99 4510.38 1352.99C4512.59 1352.99 4514.39 1354.79 4514.39 1357 4514.39 1359.21 4512.59 1361.01 4510.38 1361.01L4494.33 1361.01C4492.12 1361.01 4490.32 1359.21 4490.32 1357 4490.32 1354.79 4492.12 1352.99 4494.33 1352.99ZM4526.42 1352.99 4542.46 1352.99C4544.67 1352.99 4546.47 1354.79 4546.47 1357 4546.47 1359.21 4544.67 1361.01 4542.46 1361.01L4526.42 1361.01C4524.2 1361.01 4522.41 1359.21 4522.41 1357 4522.41 1354.79 4524.2 1352.99 4526.42 1352.99ZM4558.5 1352.99 4574.54 1352.99C4576.76 1352.99 4578.55 1354.79 4578.55 1357 4578.55 1359.21 4576.76 1361.01 4574.54 1361.01L4558.5 1361.01C4556.29 1361.01 4554.49 1359.21 4554.49 1357 4554.49 1354.79 4556.29 1352.99 4558.5 1352.99ZM4590.58 1352.99 4598.75 1352.99 4606.62 1352.99C4608.84 1352.99 4610.64 1354.79 4610.64 1357 4610.64 1359.21 4608.84 1361.01 4606.62 1361.01L4598.75 1361.01 4590.58 1361.01C4588.37 1361.01 4586.57 1359.21 4586.57 1357 4586.57 1354.79 4588.37 1352.99 4590.58 1352.99ZM4622.67 1352.99 4638.71 1352.99C4640.92 1352.99 4642.72 1354.79 4642.72 1357 4642.72 1359.21 4640.92 1361.01 4638.71 1361.01L4622.67 1361.01C4620.45 1361.01 4618.66 1359.21 4618.66 1357 4618.66 1354.79 4620.45 1352.99 4622.67 1352.99ZM4654.75 1352.99 4670.79 1352.99C4673.01 1352.99 4674.8 1354.79 4674.8 1357 4674.8 1359.21 4673.01 1361.01 4670.79 1361.01L4654.75 1361.01C4652.54 1361.01 4650.74 1359.21 4650.74 1357 4650.74 1354.79 4652.54 1352.99 4654.75 1352.99ZM4686.83 1352.99 4702.88 1352.99C4705.09 1352.99 4706.89 1354.79 4706.89 1357 4706.89 1359.21 4705.09 1361.01 4702.88 1361.01L4686.83 1361.01C4684.62 1361.01 4682.82 1359.21 4682.82 1357 4682.82 1354.79 4684.62 1352.99 4686.83 1352.99ZM4718.92 1352.99 4734.96 1352.99C4737.17 1352.99 4738.97 1354.79 4738.97 1357 4738.97 1359.21 4737.17 1361.01 4734.96 1361.01L4718.92 1361.01C4716.7 1361.01 4714.91 1359.21 4714.91 1357 4714.91 1354.79 4716.7 1352.99 4718.92 1352.99ZM4751 1352.99 4767.04 1352.99C4769.26 1352.99 4771.05 1354.79 4771.05 1357 4771.05 1359.21 4769.26 1361.01 4767.04 1361.01L4751 1361.01C4748.79 1361.01 4746.99 1359.21 4746.99 1357 4746.99 1354.79 4748.79 1352.99 4751 1352.99ZM4783.08 1352.99 4799.12 1352.99C4801.34 1352.99 4803.14 1354.79 4803.14 1357 4803.14 1359.21 4801.34 1361.01 4799.12 1361.01L4783.08 1361.01C4780.87 1361.01 4779.07 1359.21 4779.07 1357 4779.07 1354.79 4780.87 1352.99 4783.08 1352.99ZM4815.17 1352.99 4831.21 1352.99C4833.42 1352.99 4835.22 1354.79 4835.22 1357 4835.22 1359.21 4833.42 1361.01 4831.21 1361.01L4815.17 1361.01C4812.95 1361.01 4811.16 1359.21 4811.16 1357 4811.16 1354.79 4812.95 1352.99 4815.17 1352.99ZM4847.25 1352.99 4863.29 1352.99C4865.51 1352.99 4867.3 1354.79 4867.3 1357 4867.3 1359.21 4865.51 1361.01 4863.29 1361.01L4847.25 1361.01C4845.04 1361.01 4843.24 1359.21 4843.24 1357 4843.24 1354.79 4845.04 1352.99 4847.25 1352.99ZM4879.33 1352.99 4895.38 1352.99C4897.59 1352.99 4899.39 1354.79 4899.39 1357 4899.39 1359.21 4897.59 1361.01 4895.38 1361.01L4879.33 1361.01C4877.12 1361.01 4875.32 1359.21 4875.32 1357 4875.32 1354.79 4877.12 1352.99 4879.33 1352.99ZM4911.42 1352.99 4927.46 1352.99C4929.67 1352.99 4931.47 1354.79 4931.47 1357 4931.47 1359.21 4929.67 1361.01 4927.46 1361.01L4911.42 1361.01C4909.2 1361.01 4907.41 1359.21 4907.41 1357 4907.41 1354.79 4909.2 1352.99 4911.42 1352.99ZM4943.5 1352.99 4959.54 1352.99C4961.76 1352.99 4963.55 1354.79 4963.55 1357 4963.55 1359.21 4961.76 1361.01 4959.54 1361.01L4943.5 1361.01C4941.29 1361.01 4939.49 1359.21 4939.49 1357 4939.49 1354.79 4941.29 1352.99 4943.5 1352.99Z" fill="#FF0000" fill-rule="nonzero" fill-opacity="1"/></g><g><path d="M2056 630.989 2072.04 630.989C2074.26 630.989 2076.05 632.785 2076.05 635 2076.05 637.215 2074.26 639.01 2072.04 639.01L2056 639.01C2053.79 639.01 2051.99 637.215 2051.99 635 2051.99 632.785 2053.79 630.989 2056 630.989ZM2088.08 630.989 2104.12 630.989C2106.34 630.989 2108.14 632.785 2108.14 635 2108.14 637.215 2106.34 639.01 2104.12 639.01L2088.08 639.01C2085.87 639.01 2084.07 637.215 2084.07 635 2084.07 632.785 2085.87 630.989 2088.08 630.989ZM2120.17 630.989 2136.21 630.989C2138.42 630.989 2140.22 632.785 2140.22 635 2140.22 637.215 2138.42 639.01 2136.21 639.01L2120.17 639.01C2117.95 639.01 2116.16 637.215 2116.16 635 2116.16 632.785 2117.95 630.989 2120.17 630.989ZM2152.25 630.989 2168.29 630.989C2170.51 630.989 2172.3 632.785 2172.3 635 2172.3 637.215 2170.51 639.01 2168.29 639.01L2152.25 639.01C2150.04 639.01 2148.24 637.215 2148.24 635 2148.24 632.785 2150.04 630.989 2152.25 630.989ZM2184.33 630.989 2200.38 630.989C2202.59 630.989 2204.39 632.785 2204.39 635 2204.39 637.215 2202.59 639.01 2200.38 639.01L2184.33 639.01C2182.12 639.01 2180.32 637.215 2180.32 635 2180.32 632.785 2182.12 630.989 2184.33 630.989ZM2216.42 630.989 2232.46 630.989C2234.67 630.989 2236.47 632.785 2236.47 635 2236.47 637.215 2234.67 639.01 2232.46 639.01L2216.42 639.01C2214.2 639.01 2212.41 637.215 2212.41 635 2212.41 632.785 2214.2 630.989 2216.42 630.989ZM2248.5 630.989 2264.54 630.989C2266.76 630.989 2268.55 632.785 2268.55 635 2268.55 637.215 2266.76 639.01 2264.54 639.01L2248.5 639.01C2246.29 639.01 2244.49 637.215 2244.49 635 2244.49 632.785 2246.29 630.989 2248.5 630.989ZM2280.58 630.989 2296.62 630.989C2298.84 630.989 2300.64 632.785 2300.64 635 2300.64 637.215 2298.84 639.01 2296.62 639.01L2280.58 639.01C2278.37 639.01 2276.57 637.215 2276.57 635 2276.57 632.785 2278.37 630.989 2280.58 630.989ZM2312.67 630.989 2328.71 630.989C2330.92 630.989 2332.72 632.785 2332.72 635 2332.72 637.215 2330.92 639.01 2328.71 639.01L2312.67 639.01C2310.45 639.01 2308.66 637.215 2308.66 635 2308.66 632.785 2310.45 630.989 2312.67 630.989ZM2344.75 630.989 2360.79 630.989C2363.01 630.989 2364.8 632.785 2364.8 635 2364.8 637.215 2363.01 639.01 2360.79 639.01L2344.75 639.01C2342.54 639.01 2340.74 637.215 2340.74 635 2340.74 632.785 2342.54 630.989 2344.75 630.989ZM2376.83 630.989 2392.88 630.989C2395.09 630.989 2396.89 632.785 2396.89 635 2396.89 637.215 2395.09 639.01 2392.88 639.01L2376.83 639.01C2374.62 639.01 2372.82 637.215 2372.82 635 2372.82 632.785 2374.62 630.989 2376.83 630.989ZM2408.92 630.989 2419.08 630.989 2424.96 630.989C2427.17 630.989 2428.97 632.785 2428.97 635 2428.97 637.215 2427.17 639.01 2424.96 639.01L2419.08 639.01 2408.92 639.01C2406.7 639.01 2404.91 637.215 2404.91 635 2404.91 632.785 2406.7 630.989 2408.92 630.989ZM2441 630.989 2457.04 630.989C2459.26 630.989 2461.05 632.785 2461.05 635 2461.05 637.215 2459.26 639.01 2457.04 639.01L2441 639.01C2438.79 639.01 2436.99 637.215 2436.99 635 2436.99 632.785 2438.79 630.989 2441 630.989ZM2473.08 630.989 2489.12 630.989C2491.34 630.989 2493.14 632.785 2493.14 635 2493.14 637.215 2491.34 639.01 2489.12 639.01L2473.08 639.01C2470.87 639.01 2469.07 637.215 2469.07 635 2469.07 632.785 2470.87 630.989 2473.08 630.989ZM2505.17 630.989 2521.21 630.989C2523.42 630.989 2525.22 632.785 2525.22 635 2525.22 637.215 2523.42 639.01 2521.21 639.01L2505.17 639.01C2502.95 639.01 2501.16 637.215 2501.16 635 2501.16 632.785 2502.95 630.989 2505.17 630.989ZM2537.25 630.989 2553.29 630.989C2555.51 630.989 2557.3 632.785 2557.3 635 2557.3 637.215 2555.51 639.01 2553.29 639.01L2537.25 639.01C2535.04 639.01 2533.24 637.215 2533.24 635 2533.24 632.785 2535.04 630.989 2537.25 630.989ZM2569.33 630.989 2585.38 630.989C2587.59 630.989 2589.39 632.785 2589.39 635 2589.39 637.215 2587.59 639.01 2585.38 639.01L2569.33 639.01C2567.12 639.01 2565.32 637.215 2565.32 635 2565.32 632.785 2567.12 630.989 2569.33 630.989ZM2601.42 630.989 2617.46 630.989C2619.67 630.989 2621.47 632.785 2621.47 635 2621.47 637.215 2619.67 639.01 2617.46 639.01L2601.42 639.01C2599.2 639.01 2597.41 637.215 2597.41 635 2597.41 632.785 2599.2 630.989 2601.42 630.989ZM2633.5 630.989 2649.54 630.989C2651.76 630.989 2653.55 632.785 2653.55 635 2653.55 637.215 2651.76 639.01 2649.54 639.01L2633.5 639.01C2631.29 639.01 2629.49 637.215 2629.49 635 2629.49 632.785 2631.29 630.989 2633.5 630.989ZM2665.58 630.989 2681.62 630.989C2683.84 630.989 2685.64 632.785 2685.64 635 2685.64 637.215 2683.84 639.01 2681.62 639.01L2665.58 639.01C2663.37 639.01 2661.57 637.215 2661.57 635 2661.57 632.785 2663.37 630.989 2665.58 630.989ZM2697.67 630.989 2713.71 630.989C2715.92 630.989 2717.72 632.785 2717.72 635 2717.72 637.215 2715.92 639.01 2713.71 639.01L2697.67 639.01C2695.45 639.01 2693.66 637.215 2693.66 635 2693.66 632.785 2695.45 630.989 2697.67 630.989ZM2729.75 630.989 2745.79 630.989C2748.01 630.989 2749.8 632.785 2749.8 635 2749.8 637.215 2748.01 639.01 2745.79 639.01L2729.75 639.01C2727.54 639.01 2725.74 637.215 2725.74 635 2725.74 632.785 2727.54 630.989 2729.75 630.989ZM2761.83 630.989 2777.88 630.989C2780.09 630.989 2781.89 632.785 2781.89 635 2781.89 637.215 2780.09 639.01 2777.88 639.01L2761.83 639.01C2759.62 639.01 2757.82 637.215 2757.82 635 2757.82 632.785 2759.62 630.989 2761.83 630.989ZM2793.92 630.989 2809.96 630.989C2812.17 630.989 2813.97 632.785 2813.97 635 2813.97 637.215 2812.17 639.01 2809.96 639.01L2793.92 639.01C2791.7 639.01 2789.91 637.215 2789.91 635 2789.91 632.785 2791.7 630.989 2793.92 630.989ZM2826 630.989 2842.04 630.989C2844.26 630.989 2846.05 632.785 2846.05 635 2846.05 637.215 2844.26 639.01 2842.04 639.01L2826 639.01C2823.79 639.01 2821.99 637.215 2821.99 635 2821.99 632.785 2823.79 630.989 2826 630.989ZM2858.08 630.989 2874.12 630.989C2876.34 630.989 2878.14 632.785 2878.14 635 2878.14 637.215 2876.34 639.01 2874.12 639.01L2858.08 639.01C2855.87 639.01 2854.07 637.215 2854.07 635 2854.07 632.785 2855.87 630.989 2858.08 630.989ZM2890.17 630.989 2906.21 630.989C2908.42 630.989 2910.22 632.785 2910.22 635 2910.22 637.215 2908.42 639.01 2906.21 639.01L2890.17 639.01C2887.95 639.01 2886.16 637.215 2886.16 635 2886.16 632.785 2887.95 630.989 2890.17 630.989ZM2922.25 630.989 2938.29 630.989C2940.51 630.989 2942.3 632.785 2942.3 635 2942.3 637.215 2940.51 639.01 2938.29 639.01L2922.25 639.01C2920.04 639.01 2918.24 637.215 2918.24 635 2918.24 632.785 2920.04 630.989 2922.25 630.989ZM2954.33 630.989 2970.38 630.989C2972.59 630.989 2974.39 632.785 2974.39 635 2974.39 637.215 2972.59 639.01 2970.38 639.01L2954.33 639.01C2952.12 639.01 2950.32 637.215 2950.32 635 2950.32 632.785 2952.12 630.989 2954.33 630.989ZM2986.42 630.989 3002.46 630.989C3004.67 630.989 3006.47 632.785 3006.47 635 3006.47 637.215 3004.67 639.01 3002.46 639.01L2986.42 639.01C2984.2 639.01 2982.41 637.215 2982.41 635 2982.41 632.785 2984.2 630.989 2986.42 630.989ZM3018.5 630.989 3034.54 630.989C3036.76 630.989 3038.55 632.785 3038.55 635 3038.55 637.215 3036.76 639.01 3034.54 639.01L3018.5 639.01C3016.29 639.01 3014.49 637.215 3014.49 635 3014.49 632.785 3016.29 630.989 3018.5 630.989ZM3050.58 630.989 3066.62 630.989C3068.84 630.989 3070.64 632.785 3070.64 635 3070.64 637.215 3068.84 639.01 3066.62 639.01L3050.58 639.01C3048.37 639.01 3046.57 637.215 3046.57 635 3046.57 632.785 3048.37 630.989 3050.58 630.989ZM3082.67 630.989 3098.71 630.989C3100.92 630.989 3102.72 632.785 3102.72 635 3102.72 637.215 3100.92 639.01 3098.71 639.01L3082.67 639.01C3080.45 639.01 3078.66 637.215 3078.66 635 3078.66 632.785 3080.45 630.989 3082.67 630.989ZM3114.75 630.989 3130.79 630.989C3133.01 630.989 3134.8 632.785 3134.8 635 3134.8 637.215 3133.01 639.01 3130.79 639.01L3114.75 639.01C3112.54 639.01 3110.74 637.215 3110.74 635 3110.74 632.785 3112.54 630.989 3114.75 630.989ZM3146.83 630.989 3162.88 630.989C3165.09 630.989 3166.89 632.785 3166.89 635 3166.89 637.215 3165.09 639.01 3162.88 639.01L3146.83 639.01C3144.62 639.01 3142.82 637.215 3142.82 635 3142.82 632.785 3144.62 630.989 3146.83 630.989ZM3178.92 630.989 3194.96 630.989C3197.17 630.989 3198.97 632.785 3198.97 635 3198.97 637.215 3197.17 639.01 3194.96 639.01L3178.92 639.01C3176.7 639.01 3174.91 637.215 3174.91 635 3174.91 632.785 3176.7 630.989 3178.92 630.989ZM3211 630.989 3227.04 630.989C3229.26 630.989 3231.05 632.785 3231.05 635 3231.05 637.215 3229.26 639.01 3227.04 639.01L3211 639.01C3208.79 639.01 3206.99 637.215 3206.99 635 3206.99 632.785 3208.79 630.989 3211 630.989ZM3243.08 630.989 3259.12 630.989C3261.34 630.989 3263.14 632.785 3263.14 635 3263.14 637.215 3261.34 639.01 3259.12 639.01L3243.08 639.01C3240.87 639.01 3239.07 637.215 3239.07 635 3239.07 632.785 3240.87 630.989 3243.08 630.989ZM3275.17 630.989 3291.21 630.989C3293.42 630.989 3295.22 632.785 3295.22 635 3295.22 637.215 3293.42 639.01 3291.21 639.01L3275.17 639.01C3272.95 639.01 3271.16 637.215 3271.16 635 3271.16 632.785 3272.95 630.989 3275.17 630.989ZM3307.25 630.989 3323.29 630.989C3325.51 630.989 3327.3 632.785 3327.3 635 3327.3 637.215 3325.51 639.01 3323.29 639.01L3307.25 639.01C3305.04 639.01 3303.24 637.215 3303.24 635 3303.24 632.785 3305.04 630.989 3307.25 630.989ZM3339.33 630.989 3355.38 630.989C3357.59 630.989 3359.39 632.785 3359.39 635 3359.39 637.215 3357.59 639.01 3355.38 639.01L3339.33 639.01C3337.12 639.01 3335.32 637.215 3335.32 635 3335.32 632.785 3337.12 630.989 3339.33 630.989ZM3371.42 630.989 3387.46 630.989C3389.67 630.989 3391.47 632.785 3391.47 635 3391.47 637.215 3389.67 639.01 3387.46 639.01L3371.42 639.01C3369.2 639.01 3367.41 637.215 3367.41 635 3367.41 632.785 3369.2 630.989 3371.42 630.989ZM3403.5 630.989 3419.54 630.989C3421.76 630.989 3423.55 632.785 3423.55 635 3423.55 637.215 3421.76 639.01 3419.54 639.01L3403.5 639.01C3401.29 639.01 3399.49 637.215 3399.49 635 3399.49 632.785 3401.29 630.989 3403.5 630.989ZM3435.58 630.989 3451.62 630.989C3453.84 630.989 3455.64 632.785 3455.64 635 3455.64 637.215 3453.84 639.01 3451.62 639.01L3435.58 639.01C3433.37 639.01 3431.57 637.215 3431.57 635 3431.57 632.785 3433.37 630.989 3435.58 630.989ZM3467.67 630.989 3483.71 630.989C3485.92 630.989 3487.72 632.785 3487.72 635 3487.72 637.215 3485.92 639.01 3483.71 639.01L3467.67 639.01C3465.45 639.01 3463.66 637.215 3463.66 635 3463.66 632.785 3465.45 630.989 3467.67 630.989ZM3499.75 630.989 3509.12 630.989 3515.79 630.989C3518.01 630.989 3519.8 632.785 3519.8 635 3519.8 637.215 3518.01 639.01 3515.79 639.01L3509.12 639.01 3499.75 639.01C3497.54 639.01 3495.74 637.215 3495.74 635 3495.74 632.785 3497.54 630.989 3499.75 630.989ZM3531.83 630.989 3547.88 630.989C3550.09 630.989 3551.89 632.785 3551.89 635 3551.89 637.215 3550.09 639.01 3547.88 639.01L3531.83 639.01C3529.62 639.01 3527.82 637.215 3527.82 635 3527.82 632.785 3529.62 630.989 3531.83 630.989ZM3563.92 630.989 3579.96 630.989C3582.17 630.989 3583.97 632.785 3583.97 635 3583.97 637.215 3582.17 639.01 3579.96 639.01L3563.92 639.01C3561.7 639.01 3559.91 637.215 3559.91 635 3559.91 632.785 3561.7 630.989 3563.92 630.989ZM3596 630.989 3612.04 630.989C3614.26 630.989 3616.05 632.785 3616.05 635 3616.05 637.215 3614.26 639.01 3612.04 639.01L3596 639.01C3593.78 639.01 3591.99 637.215 3591.99 635 3591.99 632.785 3593.78 630.989 3596 630.989ZM3628.08 630.989 3644.12 630.989C3646.34 630.989 3648.14 632.785 3648.14 635 3648.14 637.215 3646.34 639.01 3644.12 639.01L3628.08 639.01C3625.87 639.01 3624.07 637.215 3624.07 635 3624.07 632.785 3625.87 630.989 3628.08 630.989ZM3660.17 630.989 3676.21 630.989C3678.42 630.989 3680.22 632.785 3680.22 635 3680.22 637.215 3678.42 639.01 3676.21 639.01L3660.17 639.01C3657.95 639.01 3656.16 637.215 3656.16 635 3656.16 632.785 3657.95 630.989 3660.17 630.989ZM3692.25 630.989 3708.29 630.989C3710.51 630.989 3712.3 632.785 3712.3 635 3712.3 637.215 3710.51 639.01 3708.29 639.01L3692.25 639.01C3690.03 639.01 3688.24 637.215 3688.24 635 3688.24 632.785 3690.03 630.989 3692.25 630.989ZM3724.33 630.989 3740.38 630.989C3742.59 630.989 3744.39 632.785 3744.39 635 3744.39 637.215 3742.59 639.01 3740.38 639.01L3724.33 639.01C3722.12 639.01 3720.32 637.215 3720.32 635 3720.32 632.785 3722.12 630.989 3724.33 630.989ZM3756.42 630.989 3772.46 630.989C3774.67 630.989 3776.47 632.785 3776.47 635 3776.47 637.215 3774.67 639.01 3772.46 639.01L3756.42 639.01C3754.2 639.01 3752.41 637.215 3752.41 635 3752.41 632.785 3754.2 630.989 3756.42 630.989ZM3788.5 630.989 3804.54 630.989C3806.76 630.989 3808.55 632.785 3808.55 635 3808.55 637.215 3806.76 639.01 3804.54 639.01L3788.5 639.01C3786.28 639.01 3784.49 637.215 3784.49 635 3784.49 632.785 3786.28 630.989 3788.5 630.989ZM3820.58 630.989 3836.62 630.989C3838.84 630.989 3840.64 632.785 3840.64 635 3840.64 637.215 3838.84 639.01 3836.62 639.01L3820.58 639.01C3818.37 639.01 3816.57 637.215 3816.57 635 3816.57 632.785 3818.37 630.989 3820.58 630.989ZM3852.67 630.989 3868.71 630.989C3870.92 630.989 3872.72 632.785 3872.72 635 3872.72 637.215 3870.92 639.01 3868.71 639.01L3852.67 639.01C3850.45 639.01 3848.66 637.215 3848.66 635 3848.66 632.785 3850.45 630.989 3852.67 630.989ZM3884.75 630.989 3900.79 630.989C3903.01 630.989 3904.8 632.785 3904.8 635 3904.8 637.215 3903.01 639.01 3900.79 639.01L3884.75 639.01C3882.53 639.01 3880.74 637.215 3880.74 635 3880.74 632.785 3882.53 630.989 3884.75 630.989ZM3916.83 630.989 3932.88 630.989C3935.09 630.989 3936.89 632.785 3936.89 635 3936.89 637.215 3935.09 639.01 3932.88 639.01L3916.83 639.01C3914.62 639.01 3912.82 637.215 3912.82 635 3912.82 632.785 3914.62 630.989 3916.83 630.989ZM3948.92 630.989 3964.96 630.989C3967.17 630.989 3968.97 632.785 3968.97 635 3968.97 637.215 3967.17 639.01 3964.96 639.01L3948.92 639.01C3946.7 639.01 3944.91 637.215 3944.91 635 3944.91 632.785 3946.7 630.989 3948.92 630.989ZM3981 630.989 3997.04 630.989C3999.26 630.989 4001.05 632.785 4001.05 635 4001.05 637.215 3999.26 639.01 3997.04 639.01L3981 639.01C3978.78 639.01 3976.99 637.215 3976.99 635 3976.99 632.785 3978.78 630.989 3981 630.989ZM4013.08 630.989 4029.12 630.989C4031.34 630.989 4033.14 632.785 4033.14 635 4033.14 637.215 4031.34 639.01 4029.12 639.01L4013.08 639.01C4010.87 639.01 4009.07 637.215 4009.07 635 4009.07 632.785 4010.87 630.989 4013.08 630.989ZM4045.17 630.989 4061.21 630.989C4063.42 630.989 4065.22 632.785 4065.22 635 4065.22 637.215 4063.42 639.01 4061.21 639.01L4045.17 639.01C4042.95 639.01 4041.16 637.215 4041.16 635 4041.16 632.785 4042.95 630.989 4045.17 630.989ZM4077.25 630.989 4093.29 630.989C4095.51 630.989 4097.3 632.785 4097.3 635 4097.3 637.215 4095.51 639.01 4093.29 639.01L4077.25 639.01C4075.03 639.01 4073.24 637.215 4073.24 635 4073.24 632.785 4075.03 630.989 4077.25 630.989ZM4109.33 630.989 4125.38 630.989C4127.59 630.989 4129.39 632.785 4129.39 635 4129.39 637.215 4127.59 639.01 4125.38 639.01L4109.33 639.01C4107.12 639.01 4105.32 637.215 4105.32 635 4105.32 632.785 4107.12 630.989 4109.33 630.989ZM4141.42 630.989 4157.46 630.989C4159.67 630.989 4161.47 632.785 4161.47 635 4161.47 637.215 4159.67 639.01 4157.46 639.01L4141.42 639.01C4139.2 639.01 4137.41 637.215 4137.41 635 4137.41 632.785 4139.2 630.989 4141.42 630.989ZM4173.5 630.989 4189.54 630.989C4191.76 630.989 4193.55 632.785 4193.55 635 4193.55 637.215 4191.76 639.01 4189.54 639.01L4173.5 639.01C4171.29 639.01 4169.49 637.215 4169.49 635 4169.49 632.785 4171.29 630.989 4173.5 630.989ZM4205.58 630.989 4221.62 630.989C4223.84 630.989 4225.64 632.785 4225.64 635 4225.64 637.215 4223.84 639.01 4221.62 639.01L4205.58 639.01C4203.37 639.01 4201.57 637.215 4201.57 635 4201.57 632.785 4203.37 630.989 4205.58 630.989ZM4237.67 630.989 4253.71 630.989C4255.92 630.989 4257.72 632.785 4257.72 635 4257.72 637.215 4255.92 639.01 4253.71 639.01L4237.67 639.01C4235.45 639.01 4233.66 637.215 4233.66 635 4233.66 632.785 4235.45 630.989 4237.67 630.989ZM4269.75 630.989 4285.79 630.989C4288.01 630.989 4289.8 632.785 4289.8 635 4289.8 637.215 4288.01 639.01 4285.79 639.01L4269.75 639.01C4267.54 639.01 4265.74 637.215 4265.74 635 4265.74 632.785 4267.54 630.989 4269.75 630.989ZM4301.83 630.989 4317.88 630.989C4320.09 630.989 4321.89 632.785 4321.89 635 4321.89 637.215 4320.09 639.01 4317.88 639.01L4301.83 639.01C4299.62 639.01 4297.82 637.215 4297.82 635 4297.82 632.785 4299.62 630.989 4301.83 630.989ZM4333.92 630.989 4349.96 630.989C4352.17 630.989 4353.97 632.785 4353.97 635 4353.97 637.215 4352.17 639.01 4349.96 639.01L4333.92 639.01C4331.7 639.01 4329.91 637.215 4329.91 635 4329.91 632.785 4331.7 630.989 4333.92 630.989ZM4366 630.989 4382.04 630.989C4384.26 630.989 4386.05 632.785 4386.05 635 4386.05 637.215 4384.26 639.01 4382.04 639.01L4366 639.01C4363.79 639.01 4361.99 637.215 4361.99 635 4361.99 632.785 4363.79 630.989 4366 630.989ZM4398.08 630.989 4414.12 630.989C4416.34 630.989 4418.14 632.785 4418.14 635 4418.14 637.215 4416.34 639.01 4414.12 639.01L4398.08 639.01C4395.87 639.01 4394.07 637.215 4394.07 635 4394.07 632.785 4395.87 630.989 4398.08 630.989ZM4430.17 630.989 4446.21 630.989C4448.42 630.989 4450.22 632.785 4450.22 635 4450.22 637.215 4448.42 639.01 4446.21 639.01L4430.17 639.01C4427.95 639.01 4426.16 637.215 4426.16 635 4426.16 632.785 4427.95 630.989 4430.17 630.989ZM4462.25 630.989 4478.29 630.989C4480.51 630.989 4482.3 632.785 4482.3 635 4482.3 637.215 4480.51 639.01 4478.29 639.01L4462.25 639.01C4460.04 639.01 4458.24 637.215 4458.24 635 4458.24 632.785 4460.04 630.989 4462.25 630.989ZM4494.33 630.989 4510.38 630.989C4512.59 630.989 4514.39 632.785 4514.39 635 4514.39 637.215 4512.59 639.01 4510.38 639.01L4494.33 639.01C4492.12 639.01 4490.32 637.215 4490.32 635 4490.32 632.785 4492.12 630.989 4494.33 630.989ZM4526.42 630.989 4542.46 630.989C4544.67 630.989 4546.47 632.785 4546.47 635 4546.47 637.215 4544.67 639.01 4542.46 639.01L4526.42 639.01C4524.2 639.01 4522.41 637.215 4522.41 635 4522.41 632.785 4524.2 630.989 4526.42 630.989ZM4558.5 630.989 4574.54 630.989C4576.76 630.989 4578.55 632.785 4578.55 635 4578.55 637.215 4576.76 639.01 4574.54 639.01L4558.5 639.01C4556.29 639.01 4554.49 637.215 4554.49 635 4554.49 632.785 4556.29 630.989 4558.5 630.989ZM4590.58 630.989 4599.15 630.989 4606.62 630.989C4608.84 630.989 4610.64 632.785 4610.64 635 4610.64 637.215 4608.84 639.01 4606.62 639.01L4599.15 639.01 4590.58 639.01C4588.37 639.01 4586.57 637.215 4586.57 635 4586.57 632.785 4588.37 630.989 4590.58 630.989ZM4622.67 630.989 4638.71 630.989C4640.92 630.989 4642.72 632.785 4642.72 635 4642.72 637.215 4640.92 639.01 4638.71 639.01L4622.67 639.01C4620.45 639.01 4618.66 637.215 4618.66 635 4618.66 632.785 4620.45 630.989 4622.67 630.989ZM4654.75 630.989 4670.79 630.989C4673.01 630.989 4674.8 632.785 4674.8 635 4674.8 637.215 4673.01 639.01 4670.79 639.01L4654.75 639.01C4652.54 639.01 4650.74 637.215 4650.74 635 4650.74 632.785 4652.54 630.989 4654.75 630.989ZM4686.83 630.989 4702.88 630.989C4705.09 630.989 4706.89 632.785 4706.89 635 4706.89 637.215 4705.09 639.01 4702.88 639.01L4686.83 639.01C4684.62 639.01 4682.82 637.215 4682.82 635 4682.82 632.785 4684.62 630.989 4686.83 630.989ZM4718.92 630.989 4734.96 630.989C4737.17 630.989 4738.97 632.785 4738.97 635 4738.97 637.215 4737.17 639.01 4734.96 639.01L4718.92 639.01C4716.7 639.01 4714.91 637.215 4714.91 635 4714.91 632.785 4716.7 630.989 4718.92 630.989ZM4751 630.989 4767.04 630.989C4769.26 630.989 4771.05 632.785 4771.05 635 4771.05 637.215 4769.26 639.01 4767.04 639.01L4751 639.01C4748.79 639.01 4746.99 637.215 4746.99 635 4746.99 632.785 4748.79 630.989 4751 630.989ZM4783.08 630.989 4799.12 630.989C4801.34 630.989 4803.14 632.785 4803.14 635 4803.14 637.215 4801.34 639.01 4799.12 639.01L4783.08 639.01C4780.87 639.01 4779.07 637.215 4779.07 635 4779.07 632.785 4780.87 630.989 4783.08 630.989ZM4815.17 630.989 4831.21 630.989C4833.42 630.989 4835.22 632.785 4835.22 635 4835.22 637.215 4833.42 639.01 4831.21 639.01L4815.17 639.01C4812.95 639.01 4811.16 637.215 4811.16 635 4811.16 632.785 4812.95 630.989 4815.17 630.989ZM4847.25 630.989 4863.29 630.989C4865.51 630.989 4867.3 632.785 4867.3 635 4867.3 637.215 4865.51 639.01 4863.29 639.01L4847.25 639.01C4845.04 639.01 4843.24 637.215 4843.24 635 4843.24 632.785 4845.04 630.989 4847.25 630.989ZM4879.33 630.989 4895.38 630.989C4897.59 630.989 4899.39 632.785 4899.39 635 4899.39 637.215 4897.59 639.01 4895.38 639.01L4879.33 639.01C4877.12 639.01 4875.32 637.215 4875.32 635 4875.32 632.785 4877.12 630.989 4879.33 630.989ZM4911.42 630.989 4927.46 630.989C4929.67 630.989 4931.47 632.785 4931.47 635 4931.47 637.215 4929.67 639.01 4927.46 639.01L4911.42 639.01C4909.2 639.01 4907.41 637.215 4907.41 635 4907.41 632.785 4909.2 630.989 4911.42 630.989ZM4943.5 630.989 4959.54 630.989C4961.76 630.989 4963.55 632.785 4963.55 635 4963.55 637.215 4961.76 639.01 4959.54 639.01L4943.5 639.01C4941.29 639.01 4939.49 637.215 4939.49 635 4939.49 632.785 4941.29 630.989 4943.5 630.989Z" fill="#00B050" fill-rule="nonzero" fill-opacity="1"/></g><g><text fill="#000000" fill-opacity="1" font-family="Calibri,Calibri_MSFontService,sans-serif" font-style="normal" font-variant="normal" font-weight="400" font-stretch="normal" font-size="46" text-anchor="start" direction="ltr" writing-mode="lr-tb" unicode-bidi="normal" text-decoration="none" transform="matrix(1 0 0 1 1718.28 2272)">0.00%</text></g><g><text fill="#000000" fill-opacity="1" font-family="Calibri,Calibri_MSFontService,sans-serif" font-style="normal" font-variant="normal" font-weight="400" font-stretch="normal" font-size="46" text-anchor="start" direction="ltr" writing-mode="lr-tb" unicode-bidi="normal" text-decoration="none" transform="matrix(1 0 0 1 1695.09 2091)">10.00%</text></g><g><text fill="#000000" fill-opacity="1" font-family="Calibri,Calibri_MSFontService,sans-serif" font-style="normal" font-variant="normal" font-weight="400" font-stretch="normal" font-size="46" text-anchor="start" direction="ltr" writing-mode="lr-tb" unicode-bidi="normal" text-decoration="none" transform="matrix(1 0 0 1 1695.09 1910)">20.00%</text></g><g><text fill="#000000" fill-opacity="1" font-family="Calibri,Calibri_MSFontService,sans-serif" font-style="normal" font-variant="normal" font-weight="400" font-stretch="normal" font-size="46" text-anchor="start" direction="ltr" writing-mode="lr-tb" unicode-bidi="normal" text-decoration="none" transform="matrix(1 0 0 1 1695.09 1730)">30.00%</text></g><g><text fill="#000000" fill-opacity="1" font-family="Calibri,Calibri_MSFontService,sans-serif" font-style="normal" font-variant="normal" font-weight="400" font-stretch="normal" font-size="46" text-anchor="start" direction="ltr" writing-mode="lr-tb" unicode-bidi="normal" text-decoration="none" transform="matrix(1 0 0 1 1695.09 1549)">40.00%</text></g><g><text fill="#000000" fill-opacity="1" font-family="Calibri,Calibri_MSFontService,sans-serif" font-style="normal" font-variant="normal" font-weight="400" font-stretch="normal" font-size="46" text-anchor="start" direction="ltr" writing-mode="lr-tb" unicode-bidi="normal" text-decoration="none" transform="matrix(1 0 0 1 1695.09 1369)">50.00%</text></g><g><text fill="#000000" fill-opacity="1" font-family="Calibri,Calibri_MSFontService,sans-serif" font-style="normal" font-variant="normal" font-weight="400" font-stretch="normal" font-size="46" text-anchor="start" direction="ltr" writing-mode="lr-tb" unicode-bidi="normal" text-decoration="none" transform="matrix(1 0 0 1 1695.09 1188)">60.00%</text></g><g><text fill="#000000" fill-opacity="1" font-family="Calibri,Calibri_MSFontService,sans-serif" font-style="normal" font-variant="normal" font-weight="400" font-stretch="normal" font-size="46" text-anchor="start" direction="ltr" writing-mode="lr-tb" unicode-bidi="normal" text-decoration="none" transform="matrix(1 0 0 1 1695.09 1008)">70.00%</text></g><g><text fill="#000000" fill-opacity="1" font-family="Calibri,Calibri_MSFontService,sans-serif" font-style="normal" font-variant="normal" font-weight="400" font-stretch="normal" font-size="46" text-anchor="start" direction="ltr" writing-mode="lr-tb" unicode-bidi="normal" text-decoration="none" transform="matrix(1 0 0 1 1695.09 827)">80.00%</text></g><g><text fill="#000000" fill-opacity="1" font-family="Calibri,Calibri_MSFontService,sans-serif" font-style="normal" font-variant="normal" font-weight="400" font-stretch="normal" font-size="46" text-anchor="start" direction="ltr" writing-mode="lr-tb" unicode-bidi="normal" text-decoration="none" transform="matrix(1 0 0 1 1695.09 647)">90.00%</text></g><g><text fill="#000000" fill-opacity="1" font-family="Calibri,Calibri_MSFontService,sans-serif" font-style="normal" font-variant="normal" font-weight="400" font-stretch="normal" font-size="46" text-anchor="start" direction="ltr" writing-mode="lr-tb" unicode-bidi="normal" text-decoration="none" transform="matrix(1 0 0 1 1671.89 466)">100.00%</text></g><g><text fill="#000000" fill-opacity="1" font-family="Calibri,Calibri_MSFontService,sans-serif" font-style="normal" font-variant="normal" font-weight="400" font-stretch="normal" font-size="46" text-anchor="start" direction="ltr" writing-mode="lr-tb" unicode-bidi="normal" text-decoration="none" transform="matrix(1 0 0 1 1984.09 2332)">Sprint 1</text></g><g><text fill="#000000" fill-opacity="1" font-family="Calibri,Calibri_MSFontService,sans-serif" font-style="normal" font-variant="normal" font-weight="400" font-stretch="normal" font-size="46" text-anchor="start" direction="ltr" writing-mode="lr-tb" unicode-bidi="normal" text-decoration="none" transform="matrix(1 0 0 1 2347.34 2332)">Sprint 2</text></g><g><text fill="#000000" fill-opacity="1" font-family="Calibri,Calibri_MSFontService,sans-serif" font-style="normal" font-variant="normal" font-weight="400" font-stretch="normal" font-size="46" text-anchor="start" direction="ltr" writing-mode="lr-tb" unicode-bidi="normal" text-decoration="none" transform="matrix(1 0 0 1 2710.59 2332)">Sprint 3</text></g><g><text fill="#000000" fill-opacity="1" font-family="Calibri,Calibri_MSFontService,sans-serif" font-style="normal" font-variant="normal" font-weight="400" font-stretch="normal" font-size="46" text-anchor="start" direction="ltr" writing-mode="lr-tb" unicode-bidi="normal" text-decoration="none" transform="matrix(1 0 0 1 3073.84 2332)">Sprint 4</text></g><g><text fill="#000000" fill-opacity="1" font-family="Calibri,Calibri_MSFontService,sans-serif" font-style="normal" font-variant="normal" font-weight="400" font-stretch="normal" font-size="46" text-anchor="start" direction="ltr" writing-mode="lr-tb" unicode-bidi="normal" text-decoration="none" transform="matrix(1 0 0 1 3437.09 2332)">Sprint 5</text></g><g><text fill="#000000" fill-opacity="1" font-family="Calibri,Calibri_MSFontService,sans-serif" font-style="normal" font-variant="normal" font-weight="400" font-stretch="normal" font-size="46" text-anchor="start" direction="ltr" writing-mode="lr-tb" unicode-bidi="normal" text-decoration="none" transform="matrix(1 0 0 1 3800.33 2332)">Sprint 6</text></g><g><text fill="#000000" fill-opacity="1" font-family="Calibri,Calibri_MSFontService,sans-serif" font-style="normal" font-variant="normal" font-weight="400" font-stretch="normal" font-size="46" text-anchor="start" direction="ltr" writing-mode="lr-tb" unicode-bidi="normal" text-decoration="none" transform="matrix(1 0 0 1 4163.58 2332)">Sprint 7</text></g><g><text fill="#000000" fill-opacity="1" font-family="Calibri,Calibri_MSFontService,sans-serif" font-style="normal" font-variant="normal" font-weight="400" font-stretch="normal" font-size="46" text-anchor="start" direction="ltr" writing-mode="lr-tb" unicode-bidi="normal" text-decoration="none" transform="matrix(1 0 0 1 4526.83 2332)">Sprint 8</text></g><g><text fill="#000000" fill-opacity="1" font-family="Calibri,Calibri_MSFontService,sans-serif" font-style="normal" font-variant="normal" font-weight="400" font-stretch="normal" font-size="46" text-anchor="start" direction="ltr" writing-mode="lr-tb" unicode-bidi="normal" text-decoration="none" transform="matrix(1 0 0 1 4890.08 2332)">Sprint 9</text></g><g><text fill="#000000" fill-opacity="1" font-family="Calibri,Calibri_MSFontService,sans-serif" font-style="normal" font-variant="normal" font-weight="700" font-stretch="normal" font-size="46" text-anchor="start" direction="ltr" writing-mode="lr-tb" unicode-bidi="normal" text-decoration="none" transform="matrix(6.12323e-17 -1 1 6.12323e-17 1646.2 1506)">Percentuale (%)</text></g><g><text fill="#000000" fill-opacity="1" font-family="Calibri,Calibri_MSFontService,sans-serif" font-style="normal" font-variant="normal" font-weight="700" font-stretch="normal" font-size="83" text-anchor="start" direction="ltr" writing-mode="lr-tb" unicode-bidi="normal" text-decoration="none" transform="matrix(1 0 0 1 3341.61 336)">TE</text></g><g><path d="M3048.5 2509.5 3164.5 2509.5" stroke="#ED7D31" stroke-width="8.96457" stroke-linecap="round" stroke-linejoin="round" stroke-miterlimit="10" stroke-opacity="1" fill="none" fill-rule="evenodd"/></g><g><g><text fill="#000000" fill-opacity="1" font-family="Calibri,Calibri_MSFontService,sans-serif" font-style="normal" font-variant="normal" font-weight="400" font-stretch="normal" font-size="46" text-anchor="start" direction="ltr" writing-mode="lr-tb" unicode-bidi="normal" text-decoration="none" transform="matrix(1 0 0 1 3177.2 2522)">TE (%)</text></g></g><g><path d="M3370 2505.99 3386.04 2505.99C3388.26 2505.99 3390.05 2507.79 3390.05 2510 3390.05 2512.21 3388.26 2514.01 3386.04 2514.01L3370 2514.01C3367.79 2514.01 3365.99 2512.21 3365.99 2510 3365.99 2507.79 3367.79 2505.99 3370 2505.99ZM3402.08 2505.99 3418.13 2505.99C3420.34 2505.99 3422.14 2507.79 3422.14 2510 3422.14 2512.22 3420.34 2514.01 3418.13 2514.01L3402.08 2514.01C3399.87 2514.01 3398.07 2512.22 3398.07 2510 3398.07 2507.79 3399.87 2505.99 3402.08 2505.99ZM3434.17 2505.99 3450.21 2505.99C3452.42 2505.99 3454.22 2507.79 3454.22 2510 3454.22 2512.22 3452.42 2514.01 3450.21 2514.01L3434.17 2514.01C3431.95 2514.01 3430.16 2512.22 3430.16 2510 3430.16 2507.79 3431.95 2505.99 3434.17 2505.99ZM3466.25 2505.99 3482.29 2505.99C3484.51 2505.99 3486.3 2507.79 3486.3 2510 3486.3 2512.22 3484.51 2514.01 3482.29 2514.01L3466.25 2514.01C3464.04 2514.01 3462.24 2512.22 3462.24 2510 3462.24 2507.79 3464.04 2505.99 3466.25 2505.99Z" fill="#FF0000" fill-rule="nonzero" fill-opacity="1"/></g><g><g><text fill="#000000" fill-opacity="1" font-family="Calibri,Calibri_MSFontService,sans-serif" font-style="normal" font-variant="normal" font-weight="400" font-stretch="normal" font-size="46" text-anchor="start" direction="ltr" writing-mode="lr-tb" unicode-bidi="normal" text-decoration="none" transform="matrix(1 0 0 1 3498.28 2522)">Soglia acc. ( 50%)</text></g></g><g><path d="M3918 2505.99 3934.04 2505.99C3936.26 2505.99 3938.05 2507.79 3938.05 2510 3938.05 2512.21 3936.26 2514.01 3934.04 2514.01L3918 2514.01C3915.79 2514.01 3913.99 2512.21 3913.99 2510 3913.99 2507.79 3915.79 2505.99 3918 2505.99ZM3950.08 2505.99 3966.12 2505.99C3968.34 2505.99 3970.14 2507.79 3970.14 2510 3970.14 2512.22 3968.34 2514.01 3966.12 2514.01L3950.08 2514.01C3947.87 2514.01 3946.07 2512.22 3946.07 2510 3946.07 2507.79 3947.87 2505.99 3950.08 2505.99ZM3982.17 2505.99 3998.21 2505.99C4000.42 2505.99 4002.22 2507.79 4002.22 2510 4002.22 2512.22 4000.42 2514.01 3998.21 2514.01L3982.17 2514.01C3979.95 2514.01 3978.16 2512.22 3978.16 2510 3978.16 2507.79 3979.95 2505.99 3982.17 2505.99ZM4014.25 2505.99 4030.29 2505.99C4032.51 2505.99 4034.3 2507.79 4034.3 2510 4034.3 2512.22 4032.51 2514.01 4030.29 2514.01L4014.25 2514.01C4012.04 2514.01 4010.24 2512.22 4010.24 2510 4010.24 2507.79 4012.04 2505.99 4014.25 2505.99Z" fill="#00B050" fill-rule="nonzero" fill-opacity="1"/></g><g><g><text fill="#000000" fill-opacity="1" font-family="Calibri,Calibri_MSFontService,sans-serif" font-style="normal" font-variant="normal" font-weight="400" font-stretch="normal" font-size="46" text-anchor="start" direction="ltr" writing-mode="lr-tb" unicode-bidi="normal" text-decoration="none" transform="matrix(1 0 0 1 4046.15 2522)">Soglia ott. ( 90%)</text></g></g><rect x="1510" y="223" width="3744" height="2369" stroke="#D9D9D9" stroke-width="7.975" stroke-linecap="square" stroke-linejoin="round" stroke-miterlimit="10" stroke-dasharray="23.925 7.975" stroke-opacity="1" fill="none"/></g></g></svg>