<svg width="3658" height="2076" xmlns="http://www.w3.org/2000/svg" xmlns:xlink="http://www.w3.org/1999/xlink" xml:space="preserve" overflow="hidden"><defs><clipPath id="clip0"><rect x="2873" y="165" width="3658" height="2076"/></clipPath><clipPath id="clip1"><rect x="2873" y="165" width="3658" height="2076"/></clipPath><clipPath id="clip2"><rect x="3128" y="359" width="3349" height="1657"/></clipPath><clipPath id="clip3"><rect x="3128" y="359" width="3349" height="1657"/></clipPath></defs><g clip-path="url(#clip0)" transform="translate(-2873 -165)"><g clip-path="url(#clip1)"><rect x="2878" y="167" width="3647" height="2072" fill="#FFFFFF" fill-opacity="1"/><g><path d="M3128.5 1682.56 6474.5 1682.56M3128.5 1352.54 6474.5 1352.54M3128.5 1021.53 6474.5 1021.53M3128.5 690.523 6474.5 690.523M3128.5 359.5 6474.5 359.5" stroke="#878787" stroke-width="3.37795" stroke-linecap="butt" stroke-linejoin="round" stroke-miterlimit="10" stroke-opacity="1" fill="none" fill-rule="nonzero"/></g><g><path d="M0 0 0.000360892 1654" stroke="#878787" stroke-width="3.37795" stroke-linecap="butt" stroke-linejoin="round" stroke-miterlimit="10" stroke-opacity="1" fill="none" fill-rule="evenodd" transform="matrix(1 0 0 -1 3128.5 2013.5)"/></g><g><path d="M3128.5 2013.5 6474.5 2013.5" stroke="#878787" stroke-width="3.37795" stroke-linecap="butt" stroke-linejoin="round" stroke-miterlimit="10" stroke-opacity="1" fill="none" fill-rule="evenodd"/></g><g clip-path="url(#clip2)"><path d="M3315 2013.64C3438.88 2013.64 3562.75 2114 3686.63 2013.64 3810.5 1913.27 3934.37 1411.46 4058.25 1411.46 4182.12 1411.46 4306 1913.27 4429.88 2013.64 4553.75 2114 4677.62 2105.18 4801.5 2013.64 4925.38 1922.1 5049.25 1684.98 5173.13 1464.4 5297 1243.82 5420.88 756.346 5544.75 690.173 5668.62 624 5792.5 846.783 5916.38 1067.36 6040.25 1287.94 6164.12 1698.21 6288 2013.64" stroke="#ED7D31" stroke-width="10.1339" stroke-linecap="round" stroke-linejoin="round" stroke-miterlimit="10" stroke-opacity="1" fill="none" fill-rule="nonzero"/></g><g><path d="M3314.5 1018.77 3330.87 1018.77C3332.38 1018.77 3333.6 1019.99 3333.6 1021.5 3333.6 1023.01 3332.38 1024.23 3330.87 1024.23L3314.5 1024.23C3312.99 1024.23 3311.77 1023.01 3311.77 1021.5 3311.77 1019.99 3312.99 1018.77 3314.5 1018.77ZM3352.7 1018.77 3369.07 1018.77C3370.57 1018.77 3371.8 1019.99 3371.8 1021.5 3371.8 1023.01 3370.57 1024.23 3369.07 1024.23L3352.7 1024.23C3351.19 1024.23 3349.97 1023.01 3349.97 1021.5 3349.97 1019.99 3351.19 1018.77 3352.7 1018.77ZM3390.89 1018.77 3407.26 1018.77C3408.77 1018.77 3409.99 1019.99 3409.99 1021.5 3409.99 1023.01 3408.77 1024.23 3407.26 1024.23L3390.89 1024.23C3389.39 1024.23 3388.17 1023.01 3388.17 1021.5 3388.17 1019.99 3389.39 1018.77 3390.89 1018.77ZM3429.09 1018.77 3445.46 1018.77C3446.97 1018.77 3448.19 1019.99 3448.19 1021.5 3448.19 1023.01 3446.97 1024.23 3445.46 1024.23L3429.09 1024.23C3427.58 1024.23 3426.36 1023.01 3426.36 1021.5 3426.36 1019.99 3427.58 1018.77 3429.09 1018.77ZM3467.29 1018.77 3483.66 1018.77C3485.16 1018.77 3486.39 1019.99 3486.39 1021.5 3486.39 1023.01 3485.16 1024.23 3483.66 1024.23L3467.29 1024.23C3465.78 1024.23 3464.56 1023.01 3464.56 1021.5 3464.56 1019.99 3465.78 1018.77 3467.29 1018.77ZM3505.48 1018.77 3521.85 1018.77C3523.36 1018.77 3524.58 1019.99 3524.58 1021.5 3524.58 1023.01 3523.36 1024.23 3521.85 1024.23L3505.48 1024.23C3503.98 1024.23 3502.76 1023.01 3502.76 1021.5 3502.76 1019.99 3503.98 1018.77 3505.48 1018.77ZM3543.68 1018.77 3560.05 1018.77C3561.56 1018.77 3562.78 1019.99 3562.78 1021.5 3562.78 1023.01 3561.56 1024.23 3560.05 1024.23L3543.68 1024.23C3542.17 1024.23 3540.95 1023.01 3540.95 1021.5 3540.95 1019.99 3542.17 1018.77 3543.68 1018.77ZM3581.88 1018.77 3598.25 1018.77C3599.75 1018.77 3600.98 1019.99 3600.98 1021.5 3600.98 1023.01 3599.75 1024.23 3598.25 1024.23L3581.88 1024.23C3580.37 1024.23 3579.15 1023.01 3579.15 1021.5 3579.15 1019.99 3580.37 1018.77 3581.88 1018.77ZM3620.07 1018.77 3636.44 1018.77C3637.95 1018.77 3639.17 1019.99 3639.17 1021.5 3639.17 1023.01 3637.95 1024.23 3636.44 1024.23L3620.07 1024.23C3618.57 1024.23 3617.35 1023.01 3617.35 1021.5 3617.35 1019.99 3618.57 1018.77 3620.07 1018.77ZM3658.27 1018.77 3674.64 1018.77C3676.15 1018.77 3677.37 1019.99 3677.37 1021.5 3677.37 1023.01 3676.15 1024.23 3674.64 1024.23L3658.27 1024.23C3656.76 1024.23 3655.54 1023.01 3655.54 1021.5 3655.54 1019.99 3656.76 1018.77 3658.27 1018.77ZM3696.47 1018.77 3712.84 1018.77C3714.35 1018.77 3715.57 1019.99 3715.57 1021.5 3715.57 1023.01 3714.35 1024.23 3712.84 1024.23L3696.47 1024.23C3694.96 1024.23 3693.74 1023.01 3693.74 1021.5 3693.74 1019.99 3694.96 1018.77 3696.47 1018.77ZM3734.67 1018.77 3751.04 1018.77C3752.54 1018.77 3753.76 1019.99 3753.76 1021.5 3753.76 1023.01 3752.54 1024.23 3751.04 1024.23L3734.67 1024.23C3733.16 1024.23 3731.94 1023.01 3731.94 1021.5 3731.94 1019.99 3733.16 1018.77 3734.67 1018.77ZM3772.86 1018.77 3789.23 1018.77C3790.74 1018.77 3791.96 1019.99 3791.96 1021.5 3791.96 1023.01 3790.74 1024.23 3789.23 1024.23L3772.86 1024.23C3771.36 1024.23 3770.13 1023.01 3770.13 1021.5 3770.13 1019.99 3771.36 1018.77 3772.86 1018.77ZM3811.06 1018.77 3827.43 1018.77C3828.94 1018.77 3830.16 1019.99 3830.16 1021.5 3830.16 1023.01 3828.94 1024.23 3827.43 1024.23L3811.06 1024.23C3809.55 1024.23 3808.33 1023.01 3808.33 1021.5 3808.33 1019.99 3809.55 1018.77 3811.06 1018.77ZM3849.26 1018.77 3865.63 1018.77C3867.13 1018.77 3868.35 1019.99 3868.35 1021.5 3868.35 1023.01 3867.13 1024.23 3865.63 1024.23L3849.26 1024.23C3847.75 1024.23 3846.53 1023.01 3846.53 1021.5 3846.53 1019.99 3847.75 1018.77 3849.26 1018.77ZM3887.45 1018.77 3903.82 1018.77C3905.33 1018.77 3906.55 1019.99 3906.55 1021.5 3906.55 1023.01 3905.33 1024.23 3903.82 1024.23L3887.45 1024.23C3885.95 1024.23 3884.72 1023.01 3884.72 1021.5 3884.72 1019.99 3885.95 1018.77 3887.45 1018.77ZM3925.65 1018.77 3942.02 1018.77C3943.53 1018.77 3944.75 1019.99 3944.75 1021.5 3944.75 1023.01 3943.53 1024.23 3942.02 1024.23L3925.65 1024.23C3924.14 1024.23 3922.92 1023.01 3922.92 1021.5 3922.92 1019.99 3924.14 1018.77 3925.65 1018.77ZM3963.85 1018.77 3980.22 1018.77C3981.72 1018.77 3982.94 1019.99 3982.94 1021.5 3982.94 1023.01 3981.72 1024.23 3980.22 1024.23L3963.85 1024.23C3962.34 1024.23 3961.12 1023.01 3961.12 1021.5 3961.12 1019.99 3962.34 1018.77 3963.85 1018.77ZM4002.04 1018.77 4018.41 1018.77C4019.92 1018.77 4021.14 1019.99 4021.14 1021.5 4021.14 1023.01 4019.92 1024.23 4018.41 1024.23L4002.04 1024.23C4000.54 1024.23 3999.31 1023.01 3999.31 1021.5 3999.31 1019.99 4000.54 1018.77 4002.04 1018.77ZM4040.24 1018.77 4056.61 1018.77C4058.12 1018.77 4059.34 1019.99 4059.34 1021.5 4059.34 1023.01 4058.12 1024.23 4056.61 1024.23L4040.24 1024.23C4038.73 1024.23 4037.51 1023.01 4037.51 1021.5 4037.51 1019.99 4038.73 1018.77 4040.24 1018.77ZM4078.44 1018.77 4094.81 1018.77C4096.31 1018.77 4097.54 1019.99 4097.54 1021.5 4097.54 1023.01 4096.31 1024.23 4094.81 1024.23L4078.44 1024.23C4076.93 1024.23 4075.71 1023.01 4075.71 1021.5 4075.71 1019.99 4076.93 1018.77 4078.44 1018.77ZM4116.63 1018.77 4133 1018.77C4134.51 1018.77 4135.73 1019.99 4135.73 1021.5 4135.73 1023.01 4134.51 1024.23 4133 1024.23L4116.63 1024.23C4115.13 1024.23 4113.91 1023.01 4113.91 1021.5 4113.91 1019.99 4115.13 1018.77 4116.63 1018.77ZM4154.83 1018.77 4171.2 1018.77C4172.71 1018.77 4173.93 1019.99 4173.93 1021.5 4173.93 1023.01 4172.71 1024.23 4171.2 1024.23L4154.83 1024.23C4153.32 1024.23 4152.1 1023.01 4152.1 1021.5 4152.1 1019.99 4153.32 1018.77 4154.83 1018.77ZM4193.03 1018.77 4209.4 1018.77C4210.9 1018.77 4212.13 1019.99 4212.13 1021.5 4212.13 1023.01 4210.9 1024.23 4209.4 1024.23L4193.03 1024.23C4191.52 1024.23 4190.3 1023.01 4190.3 1021.5 4190.3 1019.99 4191.52 1018.77 4193.03 1018.77ZM4231.22 1018.77 4247.59 1018.77C4249.1 1018.77 4250.32 1019.99 4250.32 1021.5 4250.32 1023.01 4249.1 1024.23 4247.59 1024.23L4231.22 1024.23C4229.72 1024.23 4228.5 1023.01 4228.5 1021.5 4228.5 1019.99 4229.72 1018.77 4231.22 1018.77ZM4269.42 1018.77 4285.79 1018.77C4287.3 1018.77 4288.52 1019.99 4288.52 1021.5 4288.52 1023.01 4287.3 1024.23 4285.79 1024.23L4269.42 1024.23C4267.91 1024.23 4266.69 1023.01 4266.69 1021.5 4266.69 1019.99 4267.91 1018.77 4269.42 1018.77ZM4307.62 1018.77 4323.99 1018.77C4325.5 1018.77 4326.72 1019.99 4326.72 1021.5 4326.72 1023.01 4325.5 1024.23 4323.99 1024.23L4307.62 1024.23C4306.11 1024.23 4304.89 1023.01 4304.89 1021.5 4304.89 1019.99 4306.11 1018.77 4307.62 1018.77ZM4345.81 1018.77 4362.19 1018.77C4363.69 1018.77 4364.91 1019.99 4364.91 1021.5 4364.91 1023.01 4363.69 1024.23 4362.19 1024.23L4345.81 1024.23C4344.31 1024.23 4343.09 1023.01 4343.09 1021.5 4343.09 1019.99 4344.31 1018.77 4345.81 1018.77ZM4384.01 1018.77 4400.38 1018.77C4401.89 1018.77 4403.11 1019.99 4403.11 1021.5 4403.11 1023.01 4401.89 1024.23 4400.38 1024.23L4384.01 1024.23C4382.5 1024.23 4381.28 1023.01 4381.28 1021.5 4381.28 1019.99 4382.5 1018.77 4384.01 1018.77ZM4422.21 1018.77 4429.75 1018.77 4438.58 1018.77C4440.09 1018.77 4441.31 1019.99 4441.31 1021.5 4441.31 1023.01 4440.09 1024.23 4438.58 1024.23L4429.75 1024.23 4422.21 1024.23C4420.7 1024.23 4419.48 1023.01 4419.48 1021.5 4419.48 1019.99 4420.7 1018.77 4422.21 1018.77ZM4460.41 1018.77 4476.78 1018.77C4478.28 1018.77 4479.5 1019.99 4479.5 1021.5 4479.5 1023.01 4478.28 1024.23 4476.78 1024.23L4460.41 1024.23C4458.9 1024.23 4457.68 1023.01 4457.68 1021.5 4457.68 1019.99 4458.9 1018.77 4460.41 1018.77ZM4498.6 1018.77 4514.97 1018.77C4516.48 1018.77 4517.7 1019.99 4517.7 1021.5 4517.7 1023.01 4516.48 1024.23 4514.97 1024.23L4498.6 1024.23C4497.1 1024.23 4495.87 1023.01 4495.87 1021.5 4495.87 1019.99 4497.1 1018.77 4498.6 1018.77ZM4536.8 1018.77 4553.17 1018.77C4554.68 1018.77 4555.9 1019.99 4555.9 1021.5 4555.9 1023.01 4554.68 1024.23 4553.17 1024.23L4536.8 1024.23C4535.29 1024.23 4534.07 1023.01 4534.07 1021.5 4534.07 1019.99 4535.29 1018.77 4536.8 1018.77ZM4575 1018.77 4591.37 1018.77C4592.87 1018.77 4594.09 1019.99 4594.09 1021.5 4594.09 1023.01 4592.87 1024.23 4591.37 1024.23L4575 1024.23C4573.49 1024.23 4572.27 1023.01 4572.27 1021.5 4572.27 1019.99 4573.49 1018.77 4575 1018.77ZM4613.19 1018.77 4629.56 1018.77C4631.07 1018.77 4632.29 1019.99 4632.29 1021.5 4632.29 1023.01 4631.07 1024.23 4629.56 1024.23L4613.19 1024.23C4611.69 1024.23 4610.46 1023.01 4610.46 1021.5 4610.46 1019.99 4611.69 1018.77 4613.19 1018.77ZM4651.39 1018.77 4667.76 1018.77C4669.27 1018.77 4670.49 1019.99 4670.49 1021.5 4670.49 1023.01 4669.27 1024.23 4667.76 1024.23L4651.39 1024.23C4649.88 1024.23 4648.66 1023.01 4648.66 1021.5 4648.66 1019.99 4649.88 1018.77 4651.39 1018.77ZM4689.59 1018.77 4705.96 1018.77C4707.46 1018.77 4708.69 1019.99 4708.69 1021.5 4708.69 1023.01 4707.46 1024.23 4705.96 1024.23L4689.59 1024.23C4688.08 1024.23 4686.86 1023.01 4686.86 1021.5 4686.86 1019.99 4688.08 1018.77 4689.59 1018.77ZM4727.78 1018.77 4744.15 1018.77C4745.66 1018.77 4746.88 1019.99 4746.88 1021.5 4746.88 1023.01 4745.66 1024.23 4744.15 1024.23L4727.78 1024.23C4726.28 1024.23 4725.06 1023.01 4725.06 1021.5 4725.06 1019.99 4726.28 1018.77 4727.78 1018.77ZM4765.98 1018.77 4782.35 1018.77C4783.86 1018.77 4785.08 1019.99 4785.08 1021.5 4785.08 1023.01 4783.86 1024.23 4782.35 1024.23L4765.98 1024.23C4764.47 1024.23 4763.25 1023.01 4763.25 1021.5 4763.25 1019.99 4764.47 1018.77 4765.98 1018.77ZM4804.18 1018.77 4820.55 1018.77C4822.05 1018.77 4823.28 1019.99 4823.28 1021.5 4823.28 1023.01 4822.05 1024.23 4820.55 1024.23L4804.18 1024.23C4802.67 1024.23 4801.45 1023.01 4801.45 1021.5 4801.45 1019.99 4802.67 1018.77 4804.18 1018.77ZM4842.37 1018.77 4858.74 1018.77C4860.25 1018.77 4861.47 1019.99 4861.47 1021.5 4861.47 1023.01 4860.25 1024.23 4858.74 1024.23L4842.37 1024.23C4840.87 1024.23 4839.65 1023.01 4839.65 1021.5 4839.65 1019.99 4840.87 1018.77 4842.37 1018.77ZM4880.57 1018.77 4896.94 1018.77C4898.45 1018.77 4899.67 1019.99 4899.67 1021.5 4899.67 1023.01 4898.45 1024.23 4896.94 1024.23L4880.57 1024.23C4879.06 1024.23 4877.84 1023.01 4877.84 1021.5 4877.84 1019.99 4879.06 1018.77 4880.57 1018.77ZM4918.77 1018.77 4935.14 1018.77C4936.64 1018.77 4937.87 1019.99 4937.87 1021.5 4937.87 1023.01 4936.64 1024.23 4935.14 1024.23L4918.77 1024.23C4917.26 1024.23 4916.04 1023.01 4916.04 1021.5 4916.04 1019.99 4917.26 1018.77 4918.77 1018.77ZM4956.96 1018.77 4973.33 1018.77C4974.84 1018.77 4976.06 1019.99 4976.06 1021.5 4976.06 1023.01 4974.84 1024.23 4973.33 1024.23L4956.96 1024.23C4955.46 1024.23 4954.24 1023.01 4954.24 1021.5 4954.24 1019.99 4955.46 1018.77 4956.96 1018.77ZM4995.16 1018.77 5011.53 1018.77C5013.04 1018.77 5014.26 1019.99 5014.26 1021.5 5014.26 1023.01 5013.04 1024.23 5011.53 1024.23L4995.16 1024.23C4993.65 1024.23 4992.43 1023.01 4992.43 1021.5 4992.43 1019.99 4993.65 1018.77 4995.16 1018.77ZM5033.36 1018.77 5049.73 1018.77C5051.24 1018.77 5052.46 1019.99 5052.46 1021.5 5052.46 1023.01 5051.24 1024.23 5049.73 1024.23L5033.36 1024.23C5031.85 1024.23 5030.63 1023.01 5030.63 1021.5 5030.63 1019.99 5031.85 1018.77 5033.36 1018.77ZM5071.56 1018.77 5087.93 1018.77C5089.43 1018.77 5090.65 1019.99 5090.65 1021.5 5090.65 1023.01 5089.43 1024.23 5087.93 1024.23L5071.56 1024.23C5070.05 1024.23 5068.83 1023.01 5068.83 1021.5 5068.83 1019.99 5070.05 1018.77 5071.56 1018.77ZM5109.75 1018.77 5126.12 1018.77C5127.63 1018.77 5128.85 1019.99 5128.85 1021.5 5128.85 1023.01 5127.63 1024.23 5126.12 1024.23L5109.75 1024.23C5108.25 1024.23 5107.02 1023.01 5107.02 1021.5 5107.02 1019.99 5108.25 1018.77 5109.75 1018.77ZM5147.95 1018.77 5164.32 1018.77C5165.83 1018.77 5167.05 1019.99 5167.05 1021.5 5167.05 1023.01 5165.83 1024.23 5164.32 1024.23L5147.95 1024.23C5146.44 1024.23 5145.22 1023.01 5145.22 1021.5 5145.22 1019.99 5146.44 1018.77 5147.95 1018.77ZM5186.15 1018.77 5202.52 1018.77C5204.02 1018.77 5205.24 1019.99 5205.24 1021.5 5205.24 1023.01 5204.02 1024.23 5202.52 1024.23L5186.15 1024.23C5184.64 1024.23 5183.42 1023.01 5183.42 1021.5 5183.42 1019.99 5184.64 1018.77 5186.15 1018.77ZM5224.34 1018.77 5240.71 1018.77C5242.22 1018.77 5243.44 1019.99 5243.44 1021.5 5243.44 1023.01 5242.22 1024.23 5240.71 1024.23L5224.34 1024.23C5222.84 1024.23 5221.61 1023.01 5221.61 1021.5 5221.61 1019.99 5222.84 1018.77 5224.34 1018.77ZM5262.54 1018.77 5278.91 1018.77C5280.42 1018.77 5281.64 1019.99 5281.64 1021.5 5281.64 1023.01 5280.42 1024.23 5278.91 1024.23L5262.54 1024.23C5261.03 1024.23 5259.81 1023.01 5259.81 1021.5 5259.81 1019.99 5261.03 1018.77 5262.54 1018.77ZM5300.74 1018.77 5317.11 1018.77C5318.61 1018.77 5319.83 1019.99 5319.83 1021.5 5319.83 1023.01 5318.61 1024.23 5317.11 1024.23L5300.74 1024.23C5299.23 1024.23 5298.01 1023.01 5298.01 1021.5 5298.01 1019.99 5299.23 1018.77 5300.74 1018.77ZM5338.93 1018.77 5355.3 1018.77C5356.81 1018.77 5358.03 1019.99 5358.03 1021.5 5358.03 1023.01 5356.81 1024.23 5355.3 1024.23L5338.93 1024.23C5337.43 1024.23 5336.2 1023.01 5336.2 1021.5 5336.2 1019.99 5337.43 1018.77 5338.93 1018.77ZM5377.13 1018.77 5393.5 1018.77C5395.01 1018.77 5396.23 1019.99 5396.23 1021.5 5396.23 1023.01 5395.01 1024.23 5393.5 1024.23L5377.13 1024.23C5375.62 1024.23 5374.4 1023.01 5374.4 1021.5 5374.4 1019.99 5375.62 1018.77 5377.13 1018.77ZM5415.33 1018.77 5431.7 1018.77C5433.2 1018.77 5434.43 1019.99 5434.43 1021.5 5434.43 1023.01 5433.2 1024.23 5431.7 1024.23L5415.33 1024.23C5413.82 1024.23 5412.6 1023.01 5412.6 1021.5 5412.6 1019.99 5413.82 1018.77 5415.33 1018.77ZM5453.52 1018.77 5469.89 1018.77C5471.4 1018.77 5472.62 1019.99 5472.62 1021.5 5472.62 1023.01 5471.4 1024.23 5469.89 1024.23L5453.52 1024.23C5452.02 1024.23 5450.8 1023.01 5450.8 1021.5 5450.8 1019.99 5452.02 1018.77 5453.52 1018.77ZM5491.72 1018.77 5508.09 1018.77C5509.6 1018.77 5510.82 1019.99 5510.82 1021.5 5510.82 1023.01 5509.6 1024.23 5508.09 1024.23L5491.72 1024.23C5490.21 1024.23 5488.99 1023.01 5488.99 1021.5 5488.99 1019.99 5490.21 1018.77 5491.72 1018.77ZM5529.92 1018.77 5545 1018.77 5546.29 1018.77C5547.79 1018.77 5549.02 1019.99 5549.02 1021.5 5549.02 1023.01 5547.79 1024.23 5546.29 1024.23L5545 1024.23 5529.92 1024.23C5528.41 1024.23 5527.19 1023.01 5527.19 1021.5 5527.19 1019.99 5528.41 1018.77 5529.92 1018.77ZM5568.11 1018.77 5584.48 1018.77C5585.99 1018.77 5587.21 1019.99 5587.21 1021.5 5587.21 1023.01 5585.99 1024.23 5584.48 1024.23L5568.11 1024.23C5566.61 1024.23 5565.39 1023.01 5565.39 1021.5 5565.39 1019.99 5566.61 1018.77 5568.11 1018.77ZM5606.31 1018.77 5622.68 1018.77C5624.19 1018.77 5625.41 1019.99 5625.41 1021.5 5625.41 1023.01 5624.19 1024.23 5622.68 1024.23L5606.31 1024.23C5604.8 1024.23 5603.58 1023.01 5603.58 1021.5 5603.58 1019.99 5604.8 1018.77 5606.31 1018.77ZM5644.51 1018.77 5660.88 1018.77C5662.38 1018.77 5663.61 1019.99 5663.61 1021.5 5663.61 1023.01 5662.38 1024.23 5660.88 1024.23L5644.51 1024.23C5643 1024.23 5641.78 1023.01 5641.78 1021.5 5641.78 1019.99 5643 1018.77 5644.51 1018.77ZM5682.7 1018.77 5699.07 1018.77C5700.58 1018.77 5701.8 1019.99 5701.8 1021.5 5701.8 1023.01 5700.58 1024.23 5699.07 1024.23L5682.7 1024.23C5681.2 1024.23 5679.98 1023.01 5679.98 1021.5 5679.98 1019.99 5681.2 1018.77 5682.7 1018.77ZM5720.9 1018.77 5737.27 1018.77C5738.78 1018.77 5740 1019.99 5740 1021.5 5740 1023.01 5738.78 1024.23 5737.27 1024.23L5720.9 1024.23C5719.39 1024.23 5718.17 1023.01 5718.17 1021.5 5718.17 1019.99 5719.39 1018.77 5720.9 1018.77ZM5759.1 1018.77 5775.47 1018.77C5776.98 1018.77 5778.2 1019.99 5778.2 1021.5 5778.2 1023.01 5776.98 1024.23 5775.47 1024.23L5759.1 1024.23C5757.59 1024.23 5756.37 1023.01 5756.37 1021.5 5756.37 1019.99 5757.59 1018.77 5759.1 1018.77ZM5797.3 1018.77 5813.67 1018.77C5815.17 1018.77 5816.39 1019.99 5816.39 1021.5 5816.39 1023.01 5815.17 1024.23 5813.67 1024.23L5797.3 1024.23C5795.79 1024.23 5794.57 1023.01 5794.57 1021.5 5794.57 1019.99 5795.79 1018.77 5797.3 1018.77ZM5835.49 1018.77 5851.86 1018.77C5853.37 1018.77 5854.59 1019.99 5854.59 1021.5 5854.59 1023.01 5853.37 1024.23 5851.86 1024.23L5835.49 1024.23C5833.99 1024.23 5832.76 1023.01 5832.76 1021.5 5832.76 1019.99 5833.99 1018.77 5835.49 1018.77ZM5873.69 1018.77 5890.06 1018.77C5891.57 1018.77 5892.79 1019.99 5892.79 1021.5 5892.79 1023.01 5891.57 1024.23 5890.06 1024.23L5873.69 1024.23C5872.18 1024.23 5870.96 1023.01 5870.96 1021.5 5870.96 1019.99 5872.18 1018.77 5873.69 1018.77ZM5911.89 1018.77 5916.75 1018.77 5928.26 1018.77C5929.76 1018.77 5930.98 1019.99 5930.98 1021.5 5930.98 1023.01 5929.76 1024.23 5928.26 1024.23L5916.75 1024.23 5911.89 1024.23C5910.38 1024.23 5909.16 1023.01 5909.16 1021.5 5909.16 1019.99 5910.38 1018.77 5911.89 1018.77ZM5950.08 1018.77 5966.45 1018.77C5967.96 1018.77 5969.18 1019.99 5969.18 1021.5 5969.18 1023.01 5967.96 1024.23 5966.45 1024.23L5950.08 1024.23C5948.58 1024.23 5947.35 1023.01 5947.35 1021.5 5947.35 1019.99 5948.58 1018.77 5950.08 1018.77ZM5988.28 1018.77 6004.65 1018.77C6006.16 1018.77 6007.38 1019.99 6007.38 1021.5 6007.38 1023.01 6006.16 1024.23 6004.65 1024.23L5988.28 1024.23C5986.77 1024.23 5985.55 1023.01 5985.55 1021.5 5985.55 1019.99 5986.77 1018.77 5988.28 1018.77ZM6026.48 1018.77 6042.85 1018.77C6044.35 1018.77 6045.57 1019.99 6045.57 1021.5 6045.57 1023.01 6044.35 1024.23 6042.85 1024.23L6026.48 1024.23C6024.97 1024.23 6023.75 1023.01 6023.75 1021.5 6023.75 1019.99 6024.97 1018.77 6026.48 1018.77ZM6064.67 1018.77 6081.04 1018.77C6082.55 1018.77 6083.77 1019.99 6083.77 1021.5 6083.77 1023.01 6082.55 1024.23 6081.04 1024.23L6064.67 1024.23C6063.17 1024.23 6061.94 1023.01 6061.94 1021.5 6061.94 1019.99 6063.17 1018.77 6064.67 1018.77ZM6102.87 1018.77 6119.24 1018.77C6120.75 1018.77 6121.97 1019.99 6121.97 1021.5 6121.97 1023.01 6120.75 1024.23 6119.24 1024.23L6102.87 1024.23C6101.36 1024.23 6100.14 1023.01 6100.14 1021.5 6100.14 1019.99 6101.36 1018.77 6102.87 1018.77ZM6141.07 1018.77 6157.44 1018.77C6158.94 1018.77 6160.17 1019.99 6160.17 1021.5 6160.17 1023.01 6158.94 1024.23 6157.44 1024.23L6141.07 1024.23C6139.56 1024.23 6138.34 1023.01 6138.34 1021.5 6138.34 1019.99 6139.56 1018.77 6141.07 1018.77ZM6179.26 1018.77 6195.63 1018.77C6197.14 1018.77 6198.36 1019.99 6198.36 1021.5 6198.36 1023.01 6197.14 1024.23 6195.63 1024.23L6179.26 1024.23C6177.76 1024.23 6176.54 1023.01 6176.54 1021.5 6176.54 1019.99 6177.76 1018.77 6179.26 1018.77ZM6217.46 1018.77 6233.83 1018.77C6235.34 1018.77 6236.56 1019.99 6236.56 1021.5 6236.56 1023.01 6235.34 1024.23 6233.83 1024.23L6217.46 1024.23C6215.95 1024.23 6214.73 1023.01 6214.73 1021.5 6214.73 1019.99 6215.95 1018.77 6217.46 1018.77ZM6255.66 1018.77 6272.03 1018.77C6273.53 1018.77 6274.76 1019.99 6274.76 1021.5 6274.76 1023.01 6273.53 1024.23 6272.03 1024.23L6255.66 1024.23C6254.15 1024.23 6252.93 1023.01 6252.93 1021.5 6252.93 1019.99 6254.15 1018.77 6255.66 1018.77Z" fill="#FF0000" fill-rule="nonzero" fill-opacity="1"/></g><g clip-path="url(#clip3)"><path d="M3314.5 2010.77 3325.41 2010.77C3326.92 2010.77 3328.14 2011.99 3328.14 2013.5 3328.14 2015.01 3326.92 2016.23 3325.41 2016.23L3314.5 2016.23C3312.99 2016.23 3311.77 2015.01 3311.77 2013.5 3311.77 2011.99 3312.99 2010.77 3314.5 2010.77ZM3336.33 2010.77 3347.24 2010.77C3348.75 2010.77 3349.97 2011.99 3349.97 2013.5 3349.97 2015.01 3348.75 2016.23 3347.24 2016.23L3336.33 2016.23C3334.82 2016.23 3333.6 2015.01 3333.6 2013.5 3333.6 2011.99 3334.82 2010.77 3336.33 2010.77ZM3358.15 2010.77 3369.07 2010.77C3370.57 2010.77 3371.8 2011.99 3371.8 2013.5 3371.8 2015.01 3370.57 2016.23 3369.07 2016.23L3358.15 2016.23C3356.65 2016.23 3355.43 2015.01 3355.43 2013.5 3355.43 2011.99 3356.65 2010.77 3358.15 2010.77ZM3379.98 2010.77 3390.89 2010.77C3392.4 2010.77 3393.62 2011.99 3393.62 2013.5 3393.62 2015.01 3392.4 2016.23 3390.89 2016.23L3379.98 2016.23C3378.47 2016.23 3377.25 2015.01 3377.25 2013.5 3377.25 2011.99 3378.47 2010.77 3379.98 2010.77ZM3401.81 2010.77 3412.72 2010.77C3414.23 2010.77 3415.45 2011.99 3415.45 2013.5 3415.45 2015.01 3414.23 2016.23 3412.72 2016.23L3401.81 2016.23C3400.3 2016.23 3399.08 2015.01 3399.08 2013.5 3399.08 2011.99 3400.3 2010.77 3401.81 2010.77ZM3423.63 2010.77 3434.55 2010.77C3436.05 2010.77 3437.28 2011.99 3437.28 2013.5 3437.28 2015.01 3436.05 2016.23 3434.55 2016.23L3423.63 2016.23C3422.13 2016.23 3420.91 2015.01 3420.91 2013.5 3420.91 2011.99 3422.13 2010.77 3423.63 2010.77ZM3445.46 2010.77 3456.37 2010.77C3457.88 2010.77 3459.1 2011.99 3459.1 2013.5 3459.1 2015.01 3457.88 2016.23 3456.37 2016.23L3445.46 2016.23C3443.95 2016.23 3442.73 2015.01 3442.73 2013.5 3442.73 2011.99 3443.95 2010.77 3445.46 2010.77ZM3467.29 2010.77 3478.2 2010.77C3479.71 2010.77 3480.93 2011.99 3480.93 2013.5 3480.93 2015.01 3479.71 2016.23 3478.2 2016.23L3467.29 2016.23C3465.78 2016.23 3464.56 2015.01 3464.56 2013.5 3464.56 2011.99 3465.78 2010.77 3467.29 2010.77ZM3489.11 2010.77 3500.03 2010.77C3501.53 2010.77 3502.76 2011.99 3502.76 2013.5 3502.76 2015.01 3501.53 2016.23 3500.03 2016.23L3489.11 2016.23C3487.61 2016.23 3486.39 2015.01 3486.39 2013.5 3486.39 2011.99 3487.61 2010.77 3489.11 2010.77ZM3510.94 2010.77 3521.85 2010.77C3523.36 2010.77 3524.58 2011.99 3524.58 2013.5 3524.58 2015.01 3523.36 2016.23 3521.85 2016.23L3510.94 2016.23C3509.43 2016.23 3508.21 2015.01 3508.21 2013.5 3508.21 2011.99 3509.43 2010.77 3510.94 2010.77ZM3532.77 2010.77 3543.68 2010.77C3545.19 2010.77 3546.41 2011.99 3546.41 2013.5 3546.41 2015.01 3545.19 2016.23 3543.68 2016.23L3532.77 2016.23C3531.26 2016.23 3530.04 2015.01 3530.04 2013.5 3530.04 2011.99 3531.26 2010.77 3532.77 2010.77ZM3554.59 2010.77 3565.51 2010.77C3567.01 2010.77 3568.24 2011.99 3568.24 2013.5 3568.24 2015.01 3567.01 2016.23 3565.51 2016.23L3554.59 2016.23C3553.09 2016.23 3551.87 2015.01 3551.87 2013.5 3551.87 2011.99 3553.09 2010.77 3554.59 2010.77ZM3576.42 2010.77 3587.33 2010.77C3588.84 2010.77 3590.06 2011.99 3590.06 2013.5 3590.06 2015.01 3588.84 2016.23 3587.33 2016.23L3576.42 2016.23C3574.91 2016.23 3573.69 2015.01 3573.69 2013.5 3573.69 2011.99 3574.91 2010.77 3576.42 2010.77ZM3598.25 2010.77 3609.16 2010.77C3610.67 2010.77 3611.89 2011.99 3611.89 2013.5 3611.89 2015.01 3610.67 2016.23 3609.16 2016.23L3598.25 2016.23C3596.74 2016.23 3595.52 2015.01 3595.52 2013.5 3595.52 2011.99 3596.74 2010.77 3598.25 2010.77ZM3620.07 2010.77 3630.99 2010.77C3632.5 2010.77 3633.72 2011.99 3633.72 2013.5 3633.72 2015.01 3632.5 2016.23 3630.99 2016.23L3620.07 2016.23C3618.57 2016.23 3617.35 2015.01 3617.35 2013.5 3617.35 2011.99 3618.57 2010.77 3620.07 2010.77ZM3641.9 2010.77 3652.81 2010.77C3654.32 2010.77 3655.54 2011.99 3655.54 2013.5 3655.54 2015.01 3654.32 2016.23 3652.81 2016.23L3641.9 2016.23C3640.39 2016.23 3639.17 2015.01 3639.17 2013.5 3639.17 2011.99 3640.39 2010.77 3641.9 2010.77ZM3663.73 2010.77 3674.64 2010.77C3676.15 2010.77 3677.37 2011.99 3677.37 2013.5 3677.37 2015.01 3676.15 2016.23 3674.64 2016.23L3663.73 2016.23C3662.22 2016.23 3661 2015.01 3661 2013.5 3661 2011.99 3662.22 2010.77 3663.73 2010.77ZM3685.56 2010.77 3686.25 2010.77 3696.47 2010.77C3697.98 2010.77 3699.2 2011.99 3699.2 2013.5 3699.2 2015.01 3697.98 2016.23 3696.47 2016.23L3686.25 2016.23 3685.56 2016.23C3684.05 2016.23 3682.83 2015.01 3682.83 2013.5 3682.83 2011.99 3684.05 2010.77 3685.56 2010.77ZM3707.38 2010.77 3718.3 2010.77C3719.8 2010.77 3721.02 2011.99 3721.02 2013.5 3721.02 2015.01 3719.8 2016.23 3718.3 2016.23L3707.38 2016.23C3705.88 2016.23 3704.65 2015.01 3704.65 2013.5 3704.65 2011.99 3705.88 2010.77 3707.38 2010.77ZM3729.21 2010.77 3740.12 2010.77C3741.63 2010.77 3742.85 2011.99 3742.85 2013.5 3742.85 2015.01 3741.63 2016.23 3740.12 2016.23L3729.21 2016.23C3727.7 2016.23 3726.48 2015.01 3726.48 2013.5 3726.48 2011.99 3727.7 2010.77 3729.21 2010.77ZM3751.04 2010.77 3761.95 2010.77C3763.46 2010.77 3764.68 2011.99 3764.68 2013.5 3764.68 2015.01 3763.46 2016.23 3761.95 2016.23L3751.04 2016.23C3749.53 2016.23 3748.31 2015.01 3748.31 2013.5 3748.31 2011.99 3749.53 2010.77 3751.04 2010.77ZM3772.86 2010.77 3783.78 2010.77C3785.28 2010.77 3786.5 2011.99 3786.5 2013.5 3786.5 2015.01 3785.28 2016.23 3783.78 2016.23L3772.86 2016.23C3771.36 2016.23 3770.13 2015.01 3770.13 2013.5 3770.13 2011.99 3771.36 2010.77 3772.86 2010.77ZM3794.69 2010.77 3805.6 2010.77C3807.11 2010.77 3808.33 2011.99 3808.33 2013.5 3808.33 2015.01 3807.11 2016.23 3805.6 2016.23L3794.69 2016.23C3793.18 2016.23 3791.96 2015.01 3791.96 2013.5 3791.96 2011.99 3793.18 2010.77 3794.69 2010.77ZM3816.52 2010.77 3827.43 2010.77C3828.94 2010.77 3830.16 2011.99 3830.16 2013.5 3830.16 2015.01 3828.94 2016.23 3827.43 2016.23L3816.52 2016.23C3815.01 2016.23 3813.79 2015.01 3813.79 2013.5 3813.79 2011.99 3815.01 2010.77 3816.52 2010.77ZM3838.34 2010.77 3849.26 2010.77C3850.76 2010.77 3851.98 2011.99 3851.98 2013.5 3851.98 2015.01 3850.76 2016.23 3849.26 2016.23L3838.34 2016.23C3836.84 2016.23 3835.61 2015.01 3835.61 2013.5 3835.61 2011.99 3836.84 2010.77 3838.34 2010.77ZM3860.17 2010.77 3871.08 2010.77C3872.59 2010.77 3873.81 2011.99 3873.81 2013.5 3873.81 2015.01 3872.59 2016.23 3871.08 2016.23L3860.17 2016.23C3858.66 2016.23 3857.44 2015.01 3857.44 2013.5 3857.44 2011.99 3858.66 2010.77 3860.17 2010.77ZM3882 2010.77 3892.91 2010.77C3894.42 2010.77 3895.64 2011.99 3895.64 2013.5 3895.64 2015.01 3894.42 2016.23 3892.91 2016.23L3882 2016.23C3880.49 2016.23 3879.27 2015.01 3879.27 2013.5 3879.27 2011.99 3880.49 2010.77 3882 2010.77ZM3903.82 2010.77 3914.74 2010.77C3916.24 2010.77 3917.46 2011.99 3917.46 2013.5 3917.46 2015.01 3916.24 2016.23 3914.74 2016.23L3903.82 2016.23C3902.32 2016.23 3901.09 2015.01 3901.09 2013.5 3901.09 2011.99 3902.32 2010.77 3903.82 2010.77ZM3925.65 2010.77 3936.56 2010.77C3938.07 2010.77 3939.29 2011.99 3939.29 2013.5 3939.29 2015.01 3938.07 2016.23 3936.56 2016.23L3925.65 2016.23C3924.14 2016.23 3922.92 2015.01 3922.92 2013.5 3922.92 2011.99 3924.14 2010.77 3925.65 2010.77ZM3947.48 2010.77 3958.39 2010.77C3959.9 2010.77 3961.12 2011.99 3961.12 2013.5 3961.12 2015.01 3959.9 2016.23 3958.39 2016.23L3947.48 2016.23C3945.97 2016.23 3944.75 2015.01 3944.75 2013.5 3944.75 2011.99 3945.97 2010.77 3947.48 2010.77ZM3969.3 2010.77 3980.22 2010.77C3981.72 2010.77 3982.94 2011.99 3982.94 2013.5 3982.94 2015.01 3981.72 2016.23 3980.22 2016.23L3969.3 2016.23C3967.8 2016.23 3966.57 2015.01 3966.57 2013.5 3966.57 2011.99 3967.8 2010.77 3969.3 2010.77ZM3991.13 2010.77 4002.04 2010.77C4003.55 2010.77 4004.77 2011.99 4004.77 2013.5 4004.77 2015.01 4003.55 2016.23 4002.04 2016.23L3991.13 2016.23C3989.62 2016.23 3988.4 2015.01 3988.4 2013.5 3988.4 2011.99 3989.62 2010.77 3991.13 2010.77ZM4012.96 2010.77 4023.87 2010.77C4025.38 2010.77 4026.6 2011.99 4026.6 2013.5 4026.6 2015.01 4025.38 2016.23 4023.87 2016.23L4012.96 2016.23C4011.45 2016.23 4010.23 2015.01 4010.23 2013.5 4010.23 2011.99 4011.45 2010.77 4012.96 2010.77ZM4034.78 2010.77 4045.7 2010.77C4047.2 2010.77 4048.43 2011.99 4048.43 2013.5 4048.43 2015.01 4047.2 2016.23 4045.7 2016.23L4034.78 2016.23C4033.28 2016.23 4032.06 2015.01 4032.06 2013.5 4032.06 2011.99 4033.28 2010.77 4034.78 2010.77ZM4056.61 2010.77 4058 2010.77 4067.52 2010.77C4069.03 2010.77 4070.25 2011.99 4070.25 2013.5 4070.25 2015.01 4069.03 2016.23 4067.52 2016.23L4058 2016.23 4056.61 2016.23C4055.1 2016.23 4053.88 2015.01 4053.88 2013.5 4053.88 2011.99 4055.1 2010.77 4056.61 2010.77ZM4078.44 2010.77 4089.35 2010.77C4090.86 2010.77 4092.08 2011.99 4092.08 2013.5 4092.08 2015.01 4090.86 2016.23 4089.35 2016.23L4078.44 2016.23C4076.93 2016.23 4075.71 2015.01 4075.71 2013.5 4075.71 2011.99 4076.93 2010.77 4078.44 2010.77ZM4100.26 2010.77 4111.18 2010.77C4112.68 2010.77 4113.91 2011.99 4113.91 2013.5 4113.91 2015.01 4112.68 2016.23 4111.18 2016.23L4100.26 2016.23C4098.76 2016.23 4097.54 2015.01 4097.54 2013.5 4097.54 2011.99 4098.76 2010.77 4100.26 2010.77ZM4122.09 2010.77 4133 2010.77C4134.51 2010.77 4135.73 2011.99 4135.73 2013.5 4135.73 2015.01 4134.51 2016.23 4133 2016.23L4122.09 2016.23C4120.58 2016.23 4119.36 2015.01 4119.36 2013.5 4119.36 2011.99 4120.58 2010.77 4122.09 2010.77ZM4143.92 2010.77 4154.83 2010.77C4156.34 2010.77 4157.56 2011.99 4157.56 2013.5 4157.56 2015.01 4156.34 2016.23 4154.83 2016.23L4143.92 2016.23C4142.41 2016.23 4141.19 2015.01 4141.19 2013.5 4141.19 2011.99 4142.41 2010.77 4143.92 2010.77ZM4165.74 2010.77 4176.66 2010.77C4178.16 2010.77 4179.39 2011.99 4179.39 2013.5 4179.39 2015.01 4178.16 2016.23 4176.66 2016.23L4165.74 2016.23C4164.24 2016.23 4163.02 2015.01 4163.02 2013.5 4163.02 2011.99 4164.24 2010.77 4165.74 2010.77ZM4187.57 2010.77 4198.48 2010.77C4199.99 2010.77 4201.21 2011.99 4201.21 2013.5 4201.21 2015.01 4199.99 2016.23 4198.48 2016.23L4187.57 2016.23C4186.06 2016.23 4184.84 2015.01 4184.84 2013.5 4184.84 2011.99 4186.06 2010.77 4187.57 2010.77ZM4209.4 2010.77 4220.31 2010.77C4221.82 2010.77 4223.04 2011.99 4223.04 2013.5 4223.04 2015.01 4221.82 2016.23 4220.31 2016.23L4209.4 2016.23C4207.89 2016.23 4206.67 2015.01 4206.67 2013.5 4206.67 2011.99 4207.89 2010.77 4209.4 2010.77ZM4231.22 2010.77 4242.14 2010.77C4243.64 2010.77 4244.87 2011.99 4244.87 2013.5 4244.87 2015.01 4243.64 2016.23 4242.14 2016.23L4231.22 2016.23C4229.72 2016.23 4228.5 2015.01 4228.5 2013.5 4228.5 2011.99 4229.72 2010.77 4231.22 2010.77ZM4253.05 2010.77 4263.96 2010.77C4265.47 2010.77 4266.69 2011.99 4266.69 2013.5 4266.69 2015.01 4265.47 2016.23 4263.96 2016.23L4253.05 2016.23C4251.54 2016.23 4250.32 2015.01 4250.32 2013.5 4250.32 2011.99 4251.54 2010.77 4253.05 2010.77ZM4274.88 2010.77 4285.79 2010.77C4287.3 2010.77 4288.52 2011.99 4288.52 2013.5 4288.52 2015.01 4287.3 2016.23 4285.79 2016.23L4274.88 2016.23C4273.37 2016.23 4272.15 2015.01 4272.15 2013.5 4272.15 2011.99 4273.37 2010.77 4274.88 2010.77ZM4296.7 2010.77 4307.62 2010.77C4309.12 2010.77 4310.35 2011.99 4310.35 2013.5 4310.35 2015.01 4309.12 2016.23 4307.62 2016.23L4296.7 2016.23C4295.2 2016.23 4293.98 2015.01 4293.98 2013.5 4293.98 2011.99 4295.2 2010.77 4296.7 2010.77ZM4318.53 2010.77 4329.44 2010.77C4330.95 2010.77 4332.17 2011.99 4332.17 2013.5 4332.17 2015.01 4330.95 2016.23 4329.44 2016.23L4318.53 2016.23C4317.02 2016.23 4315.8 2015.01 4315.8 2013.5 4315.8 2011.99 4317.02 2010.77 4318.53 2010.77ZM4340.36 2010.77 4351.27 2010.77C4352.78 2010.77 4354 2011.99 4354 2013.5 4354 2015.01 4352.78 2016.23 4351.27 2016.23L4340.36 2016.23C4338.85 2016.23 4337.63 2015.01 4337.63 2013.5 4337.63 2011.99 4338.85 2010.77 4340.36 2010.77ZM4362.19 2010.77 4373.1 2010.77C4374.61 2010.77 4375.83 2011.99 4375.83 2013.5 4375.83 2015.01 4374.61 2016.23 4373.1 2016.23L4362.19 2016.23C4360.68 2016.23 4359.46 2015.01 4359.46 2013.5 4359.46 2011.99 4360.68 2010.77 4362.19 2010.77ZM4384.01 2010.77 4394.93 2010.77C4396.43 2010.77 4397.65 2011.99 4397.65 2013.5 4397.65 2015.01 4396.43 2016.23 4394.93 2016.23L4384.01 2016.23C4382.5 2016.23 4381.28 2015.01 4381.28 2013.5 4381.28 2011.99 4382.5 2010.77 4384.01 2010.77ZM4405.84 2010.77 4416.75 2010.77C4418.26 2010.77 4419.48 2011.99 4419.48 2013.5 4419.48 2015.01 4418.26 2016.23 4416.75 2016.23L4405.84 2016.23C4404.33 2016.23 4403.11 2015.01 4403.11 2013.5 4403.11 2011.99 4404.33 2010.77 4405.84 2010.77ZM4427.67 2010.77 4429.75 2010.77 4438.58 2010.77C4440.09 2010.77 4441.31 2011.99 4441.31 2013.5 4441.31 2015.01 4440.09 2016.23 4438.58 2016.23L4429.75 2016.23 4427.67 2016.23C4426.16 2016.23 4424.94 2015.01 4424.94 2013.5 4424.94 2011.99 4426.16 2010.77 4427.67 2010.77ZM4449.49 2010.77 4460.41 2010.77C4461.91 2010.77 4463.13 2011.99 4463.13 2013.5 4463.13 2015.01 4461.91 2016.23 4460.41 2016.23L4449.49 2016.23C4447.99 2016.23 4446.76 2015.01 4446.76 2013.5 4446.76 2011.99 4447.99 2010.77 4449.49 2010.77ZM4471.32 2010.77 4482.23 2010.77C4483.74 2010.77 4484.96 2011.99 4484.96 2013.5 4484.96 2015.01 4483.74 2016.23 4482.23 2016.23L4471.32 2016.23C4469.81 2016.23 4468.59 2015.01 4468.59 2013.5 4468.59 2011.99 4469.81 2010.77 4471.32 2010.77ZM4493.15 2010.77 4504.06 2010.77C4505.57 2010.77 4506.79 2011.99 4506.79 2013.5 4506.79 2015.01 4505.57 2016.23 4504.06 2016.23L4493.15 2016.23C4491.64 2016.23 4490.42 2015.01 4490.42 2013.5 4490.42 2011.99 4491.64 2010.77 4493.15 2010.77ZM4514.97 2010.77 4525.89 2010.77C4527.39 2010.77 4528.61 2011.99 4528.61 2013.5 4528.61 2015.01 4527.39 2016.23 4525.89 2016.23L4514.97 2016.23C4513.47 2016.23 4512.24 2015.01 4512.24 2013.5 4512.24 2011.99 4513.47 2010.77 4514.97 2010.77ZM4536.8 2010.77 4547.71 2010.77C4549.22 2010.77 4550.44 2011.99 4550.44 2013.5 4550.44 2015.01 4549.22 2016.23 4547.71 2016.23L4536.8 2016.23C4535.29 2016.23 4534.07 2015.01 4534.07 2013.5 4534.07 2011.99 4535.29 2010.77 4536.8 2010.77ZM4558.63 2010.77 4569.54 2010.77C4571.05 2010.77 4572.27 2011.99 4572.27 2013.5 4572.27 2015.01 4571.05 2016.23 4569.54 2016.23L4558.63 2016.23C4557.12 2016.23 4555.9 2015.01 4555.9 2013.5 4555.9 2011.99 4557.12 2010.77 4558.63 2010.77ZM4580.45 2010.77 4591.37 2010.77C4592.87 2010.77 4594.09 2011.99 4594.09 2013.5 4594.09 2015.01 4592.87 2016.23 4591.37 2016.23L4580.45 2016.23C4578.95 2016.23 4577.72 2015.01 4577.72 2013.5 4577.72 2011.99 4578.95 2010.77 4580.45 2010.77ZM4602.28 2010.77 4613.19 2010.77C4614.7 2010.77 4615.92 2011.99 4615.92 2013.5 4615.92 2015.01 4614.7 2016.23 4613.19 2016.23L4602.28 2016.23C4600.77 2016.23 4599.55 2015.01 4599.55 2013.5 4599.55 2011.99 4600.77 2010.77 4602.28 2010.77ZM4624.11 2010.77 4635.02 2010.77C4636.53 2010.77 4637.75 2011.99 4637.75 2013.5 4637.75 2015.01 4636.53 2016.23 4635.02 2016.23L4624.11 2016.23C4622.6 2016.23 4621.38 2015.01 4621.38 2013.5 4621.38 2011.99 4622.6 2010.77 4624.11 2010.77ZM4645.93 2010.77 4656.85 2010.77C4658.35 2010.77 4659.57 2011.99 4659.57 2013.5 4659.57 2015.01 4658.35 2016.23 4656.85 2016.23L4645.93 2016.23C4644.43 2016.23 4643.2 2015.01 4643.2 2013.5 4643.2 2011.99 4644.43 2010.77 4645.93 2010.77ZM4667.76 2010.77 4678.67 2010.77C4680.18 2010.77 4681.4 2011.99 4681.4 2013.5 4681.4 2015.01 4680.18 2016.23 4678.67 2016.23L4667.76 2016.23C4666.25 2016.23 4665.03 2015.01 4665.03 2013.5 4665.03 2011.99 4666.25 2010.77 4667.76 2010.77ZM4689.59 2010.77 4700.5 2010.77C4702.01 2010.77 4703.23 2011.99 4703.23 2013.5 4703.23 2015.01 4702.01 2016.23 4700.5 2016.23L4689.59 2016.23C4688.08 2016.23 4686.86 2015.01 4686.86 2013.5 4686.86 2011.99 4688.08 2010.77 4689.59 2010.77ZM4711.41 2010.77 4722.33 2010.77C4723.83 2010.77 4725.06 2011.99 4725.06 2013.5 4725.06 2015.01 4723.83 2016.23 4722.33 2016.23L4711.41 2016.23C4709.91 2016.23 4708.69 2015.01 4708.69 2013.5 4708.69 2011.99 4709.91 2010.77 4711.41 2010.77ZM4733.24 2010.77 4744.15 2010.77C4745.66 2010.77 4746.88 2011.99 4746.88 2013.5 4746.88 2015.01 4745.66 2016.23 4744.15 2016.23L4733.24 2016.23C4731.73 2016.23 4730.51 2015.01 4730.51 2013.5 4730.51 2011.99 4731.73 2010.77 4733.24 2010.77ZM4755.07 2010.77 4765.98 2010.77C4767.49 2010.77 4768.71 2011.99 4768.71 2013.5 4768.71 2015.01 4767.49 2016.23 4765.98 2016.23L4755.07 2016.23C4753.56 2016.23 4752.34 2015.01 4752.34 2013.5 4752.34 2011.99 4753.56 2010.77 4755.07 2010.77ZM4776.89 2010.77 4787.81 2010.77C4789.31 2010.77 4790.54 2011.99 4790.54 2013.5 4790.54 2015.01 4789.31 2016.23 4787.81 2016.23L4776.89 2016.23C4775.39 2016.23 4774.17 2015.01 4774.17 2013.5 4774.17 2011.99 4775.39 2010.77 4776.89 2010.77ZM4798.72 2010.77 4801.5 2010.77 4809.63 2010.77C4811.14 2010.77 4812.36 2011.99 4812.36 2013.5 4812.36 2015.01 4811.14 2016.23 4809.63 2016.23L4801.5 2016.23 4798.72 2016.23C4797.21 2016.23 4795.99 2015.01 4795.99 2013.5 4795.99 2011.99 4797.21 2010.77 4798.72 2010.77ZM4820.55 2010.77 4831.46 2010.77C4832.97 2010.77 4834.19 2011.99 4834.19 2013.5 4834.19 2015.01 4832.97 2016.23 4831.46 2016.23L4820.55 2016.23C4819.04 2016.23 4817.82 2015.01 4817.82 2013.5 4817.82 2011.99 4819.04 2010.77 4820.55 2010.77ZM4842.37 2010.77 4853.29 2010.77C4854.79 2010.77 4856.02 2011.99 4856.02 2013.5 4856.02 2015.01 4854.79 2016.23 4853.29 2016.23L4842.37 2016.23C4840.87 2016.23 4839.65 2015.01 4839.65 2013.5 4839.65 2011.99 4840.87 2010.77 4842.37 2010.77ZM4864.2 2010.77 4875.11 2010.77C4876.62 2010.77 4877.84 2011.99 4877.84 2013.5 4877.84 2015.01 4876.62 2016.23 4875.11 2016.23L4864.2 2016.23C4862.69 2016.23 4861.47 2015.01 4861.47 2013.5 4861.47 2011.99 4862.69 2010.77 4864.2 2010.77ZM4886.03 2010.77 4896.94 2010.77C4898.45 2010.77 4899.67 2011.99 4899.67 2013.5 4899.67 2015.01 4898.45 2016.23 4896.94 2016.23L4886.03 2016.23C4884.52 2016.23 4883.3 2015.01 4883.3 2013.5 4883.3 2011.99 4884.52 2010.77 4886.03 2010.77ZM4907.85 2010.77 4918.77 2010.77C4920.27 2010.77 4921.5 2011.99 4921.5 2013.5 4921.5 2015.01 4920.27 2016.23 4918.77 2016.23L4907.85 2016.23C4906.35 2016.23 4905.13 2015.01 4905.13 2013.5 4905.13 2011.99 4906.35 2010.77 4907.85 2010.77ZM4929.68 2010.77 4940.59 2010.77C4942.1 2010.77 4943.32 2011.99 4943.32 2013.5 4943.32 2015.01 4942.1 2016.23 4940.59 2016.23L4929.68 2016.23C4928.17 2016.23 4926.95 2015.01 4926.95 2013.5 4926.95 2011.99 4928.17 2010.77 4929.68 2010.77ZM4951.51 2010.77 4962.42 2010.77C4963.93 2010.77 4965.15 2011.99 4965.15 2013.5 4965.15 2015.01 4963.93 2016.23 4962.42 2016.23L4951.51 2016.23C4950 2016.23 4948.78 2015.01 4948.78 2013.5 4948.78 2011.99 4950 2010.77 4951.51 2010.77ZM4973.33 2010.77 4984.25 2010.77C4985.75 2010.77 4986.98 2011.99 4986.98 2013.5 4986.98 2015.01 4985.75 2016.23 4984.25 2016.23L4973.33 2016.23C4971.83 2016.23 4970.61 2015.01 4970.61 2013.5 4970.61 2011.99 4971.83 2010.77 4973.33 2010.77ZM4995.16 2010.77 5006.07 2010.77C5007.58 2010.77 5008.8 2011.99 5008.8 2013.5 5008.8 2015.01 5007.58 2016.23 5006.07 2016.23L4995.16 2016.23C4993.65 2016.23 4992.43 2015.01 4992.43 2013.5 4992.43 2011.99 4993.65 2010.77 4995.16 2010.77ZM5016.99 2010.77 5027.9 2010.77C5029.41 2010.77 5030.63 2011.99 5030.63 2013.5 5030.63 2015.01 5029.41 2016.23 5027.9 2016.23L5016.99 2016.23C5015.48 2016.23 5014.26 2015.01 5014.26 2013.5 5014.26 2011.99 5015.48 2010.77 5016.99 2010.77ZM5038.81 2010.77 5049.73 2010.77C5051.24 2010.77 5052.46 2011.99 5052.46 2013.5 5052.46 2015.01 5051.24 2016.23 5049.73 2016.23L5038.81 2016.23C5037.31 2016.23 5036.09 2015.01 5036.09 2013.5 5036.09 2011.99 5037.31 2010.77 5038.81 2010.77ZM5060.64 2010.77 5071.56 2010.77C5073.06 2010.77 5074.28 2011.99 5074.28 2013.5 5074.28 2015.01 5073.06 2016.23 5071.56 2016.23L5060.64 2016.23C5059.13 2016.23 5057.91 2015.01 5057.91 2013.5 5057.91 2011.99 5059.13 2010.77 5060.64 2010.77ZM5082.47 2010.77 5093.38 2010.77C5094.89 2010.77 5096.11 2011.99 5096.11 2013.5 5096.11 2015.01 5094.89 2016.23 5093.38 2016.23L5082.47 2016.23C5080.96 2016.23 5079.74 2015.01 5079.74 2013.5 5079.74 2011.99 5080.96 2010.77 5082.47 2010.77ZM5104.3 2010.77 5115.21 2010.77C5116.72 2010.77 5117.94 2011.99 5117.94 2013.5 5117.94 2015.01 5116.72 2016.23 5115.21 2016.23L5104.3 2016.23C5102.79 2016.23 5101.57 2015.01 5101.57 2013.5 5101.57 2011.99 5102.79 2010.77 5104.3 2010.77ZM5126.12 2010.77 5137.04 2010.77C5138.54 2010.77 5139.76 2011.99 5139.76 2013.5 5139.76 2015.01 5138.54 2016.23 5137.04 2016.23L5126.12 2016.23C5124.62 2016.23 5123.39 2015.01 5123.39 2013.5 5123.39 2011.99 5124.62 2010.77 5126.12 2010.77ZM5147.95 2010.77 5158.86 2010.77C5160.37 2010.77 5161.59 2011.99 5161.59 2013.5 5161.59 2015.01 5160.37 2016.23 5158.86 2016.23L5147.95 2016.23C5146.44 2016.23 5145.22 2015.01 5145.22 2013.5 5145.22 2011.99 5146.44 2010.77 5147.95 2010.77ZM5169.78 2010.77 5173.25 2010.77 5180.69 2010.77C5182.2 2010.77 5183.42 2011.99 5183.42 2013.5 5183.42 2015.01 5182.2 2016.23 5180.69 2016.23L5173.25 2016.23 5169.78 2016.23C5168.27 2016.23 5167.05 2015.01 5167.05 2013.5 5167.05 2011.99 5168.27 2010.77 5169.78 2010.77ZM5191.6 2010.77 5202.52 2010.77C5204.02 2010.77 5205.24 2011.99 5205.24 2013.5 5205.24 2015.01 5204.02 2016.23 5202.52 2016.23L5191.6 2016.23C5190.1 2016.23 5188.87 2015.01 5188.87 2013.5 5188.87 2011.99 5190.1 2010.77 5191.6 2010.77ZM5213.43 2010.77 5224.34 2010.77C5225.85 2010.77 5227.07 2011.99 5227.07 2013.5 5227.07 2015.01 5225.85 2016.23 5224.34 2016.23L5213.43 2016.23C5211.92 2016.23 5210.7 2015.01 5210.7 2013.5 5210.7 2011.99 5211.92 2010.77 5213.43 2010.77ZM5235.26 2010.77 5246.17 2010.77C5247.68 2010.77 5248.9 2011.99 5248.9 2013.5 5248.9 2015.01 5247.68 2016.23 5246.17 2016.23L5235.26 2016.23C5233.75 2016.23 5232.53 2015.01 5232.53 2013.5 5232.53 2011.99 5233.75 2010.77 5235.26 2010.77ZM5257.08 2010.77 5268 2010.77C5269.5 2010.77 5270.72 2011.99 5270.72 2013.5 5270.72 2015.01 5269.5 2016.23 5268 2016.23L5257.08 2016.23C5255.58 2016.23 5254.35 2015.01 5254.35 2013.5 5254.35 2011.99 5255.58 2010.77 5257.08 2010.77ZM5278.91 2010.77 5289.82 2010.77C5291.33 2010.77 5292.55 2011.99 5292.55 2013.5 5292.55 2015.01 5291.33 2016.23 5289.82 2016.23L5278.91 2016.23C5277.4 2016.23 5276.18 2015.01 5276.18 2013.5 5276.18 2011.99 5277.4 2010.77 5278.91 2010.77ZM5300.74 2010.77 5311.65 2010.77C5313.16 2010.77 5314.38 2011.99 5314.38 2013.5 5314.38 2015.01 5313.16 2016.23 5311.65 2016.23L5300.74 2016.23C5299.23 2016.23 5298.01 2015.01 5298.01 2013.5 5298.01 2011.99 5299.23 2010.77 5300.74 2010.77ZM5322.56 2010.77 5333.48 2010.77C5334.98 2010.77 5336.2 2011.99 5336.2 2013.5 5336.2 2015.01 5334.98 2016.23 5333.48 2016.23L5322.56 2016.23C5321.06 2016.23 5319.83 2015.01 5319.83 2013.5 5319.83 2011.99 5321.06 2010.77 5322.56 2010.77ZM5344.39 2010.77 5355.3 2010.77C5356.81 2010.77 5358.03 2011.99 5358.03 2013.5 5358.03 2015.01 5356.81 2016.23 5355.3 2016.23L5344.39 2016.23C5342.88 2016.23 5341.66 2015.01 5341.66 2013.5 5341.66 2011.99 5342.88 2010.77 5344.39 2010.77ZM5366.22 2010.77 5377.13 2010.77C5378.64 2010.77 5379.86 2011.99 5379.86 2013.5 5379.86 2015.01 5378.64 2016.23 5377.13 2016.23L5366.22 2016.23C5364.71 2016.23 5363.49 2015.01 5363.49 2013.5 5363.49 2011.99 5364.71 2010.77 5366.22 2010.77ZM5388.04 2010.77 5398.96 2010.77C5400.46 2010.77 5401.69 2011.99 5401.69 2013.5 5401.69 2015.01 5400.46 2016.23 5398.96 2016.23L5388.04 2016.23C5386.54 2016.23 5385.31 2015.01 5385.31 2013.5 5385.31 2011.99 5386.54 2010.77 5388.04 2010.77ZM5409.87 2010.77 5420.78 2010.77C5422.29 2010.77 5423.51 2011.99 5423.51 2013.5 5423.51 2015.01 5422.29 2016.23 5420.78 2016.23L5409.87 2016.23C5408.36 2016.23 5407.14 2015.01 5407.14 2013.5 5407.14 2011.99 5408.36 2010.77 5409.87 2010.77ZM5431.7 2010.77 5442.61 2010.77C5444.12 2010.77 5445.34 2011.99 5445.34 2013.5 5445.34 2015.01 5444.12 2016.23 5442.61 2016.23L5431.7 2016.23C5430.19 2016.23 5428.97 2015.01 5428.97 2013.5 5428.97 2011.99 5430.19 2010.77 5431.7 2010.77ZM5453.52 2010.77 5464.44 2010.77C5465.94 2010.77 5467.17 2011.99 5467.17 2013.5 5467.17 2015.01 5465.94 2016.23 5464.44 2016.23L5453.52 2016.23C5452.02 2016.23 5450.8 2015.01 5450.8 2013.5 5450.8 2011.99 5452.02 2010.77 5453.52 2010.77ZM5475.35 2010.77 5486.26 2010.77C5487.77 2010.77 5488.99 2011.99 5488.99 2013.5 5488.99 2015.01 5487.77 2016.23 5486.26 2016.23L5475.35 2016.23C5473.84 2016.23 5472.62 2015.01 5472.62 2013.5 5472.62 2011.99 5473.84 2010.77 5475.35 2010.77ZM5497.18 2010.77 5508.09 2010.77C5509.6 2010.77 5510.82 2011.99 5510.82 2013.5 5510.82 2015.01 5509.6 2016.23 5508.09 2016.23L5497.18 2016.23C5495.67 2016.23 5494.45 2015.01 5494.45 2013.5 5494.45 2011.99 5495.67 2010.77 5497.18 2010.77ZM5519 2010.77 5529.92 2010.77C5531.42 2010.77 5532.65 2011.99 5532.65 2013.5 5532.65 2015.01 5531.42 2016.23 5529.92 2016.23L5519 2016.23C5517.5 2016.23 5516.28 2015.01 5516.28 2013.5 5516.28 2011.99 5517.5 2010.77 5519 2010.77ZM5540.83 2010.77 5545 2010.77 5551.74 2010.77C5553.25 2010.77 5554.47 2011.99 5554.47 2013.5 5554.47 2015.01 5553.25 2016.23 5551.74 2016.23L5545 2016.23 5540.83 2016.23C5539.32 2016.23 5538.1 2015.01 5538.1 2013.5 5538.1 2011.99 5539.32 2010.77 5540.83 2010.77ZM5562.66 2010.77 5573.57 2010.77C5575.08 2010.77 5576.3 2011.99 5576.3 2013.5 5576.3 2015.01 5575.08 2016.23 5573.57 2016.23L5562.66 2016.23C5561.15 2016.23 5559.93 2015.01 5559.93 2013.5 5559.93 2011.99 5561.15 2010.77 5562.66 2010.77ZM5584.48 2010.77 5595.4 2010.77C5596.9 2010.77 5598.13 2011.99 5598.13 2013.5 5598.13 2015.01 5596.9 2016.23 5595.4 2016.23L5584.48 2016.23C5582.98 2016.23 5581.76 2015.01 5581.76 2013.5 5581.76 2011.99 5582.98 2010.77 5584.48 2010.77ZM5606.31 2010.77 5617.22 2010.77C5618.73 2010.77 5619.95 2011.99 5619.95 2013.5 5619.95 2015.01 5618.73 2016.23 5617.22 2016.23L5606.31 2016.23C5604.8 2016.23 5603.58 2015.01 5603.58 2013.5 5603.58 2011.99 5604.8 2010.77 5606.31 2010.77ZM5628.14 2010.77 5639.05 2010.77C5640.56 2010.77 5641.78 2011.99 5641.78 2013.5 5641.78 2015.01 5640.56 2016.23 5639.05 2016.23L5628.14 2016.23C5626.63 2016.23 5625.41 2015.01 5625.41 2013.5 5625.41 2011.99 5626.63 2010.77 5628.14 2010.77ZM5649.96 2010.77 5660.88 2010.77C5662.38 2010.77 5663.61 2011.99 5663.61 2013.5 5663.61 2015.01 5662.38 2016.23 5660.88 2016.23L5649.96 2016.23C5648.46 2016.23 5647.24 2015.01 5647.24 2013.5 5647.24 2011.99 5648.46 2010.77 5649.96 2010.77ZM5671.79 2010.77 5682.7 2010.77C5684.21 2010.77 5685.43 2011.99 5685.43 2013.5 5685.43 2015.01 5684.21 2016.23 5682.7 2016.23L5671.79 2016.23C5670.28 2016.23 5669.06 2015.01 5669.06 2013.5 5669.06 2011.99 5670.28 2010.77 5671.79 2010.77ZM5693.62 2010.77 5704.53 2010.77C5706.04 2010.77 5707.26 2011.99 5707.26 2013.5 5707.26 2015.01 5706.04 2016.23 5704.53 2016.23L5693.62 2016.23C5692.11 2016.23 5690.89 2015.01 5690.89 2013.5 5690.89 2011.99 5692.11 2010.77 5693.62 2010.77ZM5715.44 2010.77 5726.36 2010.77C5727.87 2010.77 5729.09 2011.99 5729.09 2013.5 5729.09 2015.01 5727.87 2016.23 5726.36 2016.23L5715.44 2016.23C5713.94 2016.23 5712.72 2015.01 5712.72 2013.5 5712.72 2011.99 5713.94 2010.77 5715.44 2010.77ZM5737.27 2010.77 5748.19 2010.77C5749.69 2010.77 5750.91 2011.99 5750.91 2013.5 5750.91 2015.01 5749.69 2016.23 5748.19 2016.23L5737.27 2016.23C5735.76 2016.23 5734.54 2015.01 5734.54 2013.5 5734.54 2011.99 5735.76 2010.77 5737.27 2010.77ZM5759.1 2010.77 5770.01 2010.77C5771.52 2010.77 5772.74 2011.99 5772.74 2013.5 5772.74 2015.01 5771.52 2016.23 5770.01 2016.23L5759.1 2016.23C5757.59 2016.23 5756.37 2015.01 5756.37 2013.5 5756.37 2011.99 5757.59 2010.77 5759.1 2010.77ZM5780.93 2010.77 5791.84 2010.77C5793.35 2010.77 5794.57 2011.99 5794.57 2013.5 5794.57 2015.01 5793.35 2016.23 5791.84 2016.23L5780.93 2016.23C5779.42 2016.23 5778.2 2015.01 5778.2 2013.5 5778.2 2011.99 5779.42 2010.77 5780.93 2010.77ZM5802.75 2010.77 5813.67 2010.77C5815.17 2010.77 5816.39 2011.99 5816.39 2013.5 5816.39 2015.01 5815.17 2016.23 5813.67 2016.23L5802.75 2016.23C5801.25 2016.23 5800.02 2015.01 5800.02 2013.5 5800.02 2011.99 5801.25 2010.77 5802.75 2010.77ZM5824.58 2010.77 5835.49 2010.77C5837 2010.77 5838.22 2011.99 5838.22 2013.5 5838.22 2015.01 5837 2016.23 5835.49 2016.23L5824.58 2016.23C5823.07 2016.23 5821.85 2015.01 5821.85 2013.5 5821.85 2011.99 5823.07 2010.77 5824.58 2010.77ZM5846.41 2010.77 5857.32 2010.77C5858.83 2010.77 5860.05 2011.99 5860.05 2013.5 5860.05 2015.01 5858.83 2016.23 5857.32 2016.23L5846.41 2016.23C5844.9 2016.23 5843.68 2015.01 5843.68 2013.5 5843.68 2011.99 5844.9 2010.77 5846.41 2010.77ZM5868.23 2010.77 5879.15 2010.77C5880.65 2010.77 5881.87 2011.99 5881.87 2013.5 5881.87 2015.01 5880.65 2016.23 5879.15 2016.23L5868.23 2016.23C5866.73 2016.23 5865.5 2015.01 5865.5 2013.5 5865.5 2011.99 5866.73 2010.77 5868.23 2010.77ZM5890.06 2010.77 5900.97 2010.77C5902.48 2010.77 5903.7 2011.99 5903.7 2013.5 5903.7 2015.01 5902.48 2016.23 5900.97 2016.23L5890.06 2016.23C5888.55 2016.23 5887.33 2015.01 5887.33 2013.5 5887.33 2011.99 5888.55 2010.77 5890.06 2010.77ZM5911.89 2010.77 5916.75 2010.77 5922.8 2010.77C5924.31 2010.77 5925.53 2011.99 5925.53 2013.5 5925.53 2015.01 5924.31 2016.23 5922.8 2016.23L5916.75 2016.23 5911.89 2016.23C5910.38 2016.23 5909.16 2015.01 5909.16 2013.5 5909.16 2011.99 5910.38 2010.77 5911.89 2010.77ZM5933.71 2010.77 5944.63 2010.77C5946.13 2010.77 5947.35 2011.99 5947.35 2013.5 5947.35 2015.01 5946.13 2016.23 5944.63 2016.23L5933.71 2016.23C5932.21 2016.23 5930.98 2015.01 5930.98 2013.5 5930.98 2011.99 5932.21 2010.77 5933.71 2010.77ZM5955.54 2010.77 5966.45 2010.77C5967.96 2010.77 5969.18 2011.99 5969.18 2013.5 5969.18 2015.01 5967.96 2016.23 5966.45 2016.23L5955.54 2016.23C5954.03 2016.23 5952.81 2015.01 5952.81 2013.5 5952.81 2011.99 5954.03 2010.77 5955.54 2010.77ZM5977.37 2010.77 5988.28 2010.77C5989.79 2010.77 5991.01 2011.99 5991.01 2013.5 5991.01 2015.01 5989.79 2016.23 5988.28 2016.23L5977.37 2016.23C5975.86 2016.23 5974.64 2015.01 5974.64 2013.5 5974.64 2011.99 5975.86 2010.77 5977.37 2010.77ZM5999.19 2010.77 6010.11 2010.77C6011.61 2010.77 6012.83 2011.99 6012.83 2013.5 6012.83 2015.01 6011.61 2016.23 6010.11 2016.23L5999.19 2016.23C5997.69 2016.23 5996.46 2015.01 5996.46 2013.5 5996.46 2011.99 5997.69 2010.77 5999.19 2010.77ZM6021.02 2010.77 6031.93 2010.77C6033.44 2010.77 6034.66 2011.99 6034.66 2013.5 6034.66 2015.01 6033.44 2016.23 6031.93 2016.23L6021.02 2016.23C6019.51 2016.23 6018.29 2015.01 6018.29 2013.5 6018.29 2011.99 6019.51 2010.77 6021.02 2010.77ZM6042.85 2010.77 6053.76 2010.77C6055.27 2010.77 6056.49 2011.99 6056.49 2013.5 6056.49 2015.01 6055.27 2016.23 6053.76 2016.23L6042.85 2016.23C6041.34 2016.23 6040.12 2015.01 6040.12 2013.5 6040.12 2011.99 6041.34 2010.77 6042.85 2010.77ZM6064.67 2010.77 6075.59 2010.77C6077.09 2010.77 6078.31 2011.99 6078.31 2013.5 6078.31 2015.01 6077.09 2016.23 6075.59 2016.23L6064.67 2016.23C6063.17 2016.23 6061.94 2015.01 6061.94 2013.5 6061.94 2011.99 6063.17 2010.77 6064.67 2010.77ZM6086.5 2010.77 6097.41 2010.77C6098.92 2010.77 6100.14 2011.99 6100.14 2013.5 6100.14 2015.01 6098.92 2016.23 6097.41 2016.23L6086.5 2016.23C6084.99 2016.23 6083.77 2015.01 6083.77 2013.5 6083.77 2011.99 6084.99 2010.77 6086.5 2010.77ZM6108.33 2010.77 6119.24 2010.77C6120.75 2010.77 6121.97 2011.99 6121.97 2013.5 6121.97 2015.01 6120.75 2016.23 6119.24 2016.23L6108.33 2016.23C6106.82 2016.23 6105.6 2015.01 6105.6 2013.5 6105.6 2011.99 6106.82 2010.77 6108.33 2010.77ZM6130.15 2010.77 6141.07 2010.77C6142.57 2010.77 6143.8 2011.99 6143.8 2013.5 6143.8 2015.01 6142.57 2016.23 6141.07 2016.23L6130.15 2016.23C6128.65 2016.23 6127.43 2015.01 6127.43 2013.5 6127.43 2011.99 6128.65 2010.77 6130.15 2010.77ZM6151.98 2010.77 6162.89 2010.77C6164.4 2010.77 6165.62 2011.99 6165.62 2013.5 6165.62 2015.01 6164.4 2016.23 6162.89 2016.23L6151.98 2016.23C6150.47 2016.23 6149.25 2015.01 6149.25 2013.5 6149.25 2011.99 6150.47 2010.77 6151.98 2010.77ZM6173.81 2010.77 6184.72 2010.77C6186.23 2010.77 6187.45 2011.99 6187.45 2013.5 6187.45 2015.01 6186.23 2016.23 6184.72 2016.23L6173.81 2016.23C6172.3 2016.23 6171.08 2015.01 6171.08 2013.5 6171.08 2011.99 6172.3 2010.77 6173.81 2010.77ZM6195.63 2010.77 6206.55 2010.77C6208.05 2010.77 6209.28 2011.99 6209.28 2013.5 6209.28 2015.01 6208.05 2016.23 6206.55 2016.23L6195.63 2016.23C6194.13 2016.23 6192.91 2015.01 6192.91 2013.5 6192.91 2011.99 6194.13 2010.77 6195.63 2010.77ZM6217.46 2010.77 6228.37 2010.77C6229.88 2010.77 6231.1 2011.99 6231.1 2013.5 6231.1 2015.01 6229.88 2016.23 6228.37 2016.23L6217.46 2016.23C6215.95 2016.23 6214.73 2015.01 6214.73 2013.5 6214.73 2011.99 6215.95 2010.77 6217.46 2010.77ZM6239.29 2010.77 6250.2 2010.77C6251.71 2010.77 6252.93 2011.99 6252.93 2013.5 6252.93 2015.01 6251.71 2016.23 6250.2 2016.23L6239.29 2016.23C6237.78 2016.23 6236.56 2015.01 6236.56 2013.5 6236.56 2011.99 6237.78 2010.77 6239.29 2010.77ZM6261.11 2010.77 6272.03 2010.77C6273.53 2010.77 6274.76 2011.99 6274.76 2013.5 6274.76 2015.01 6273.53 2016.23 6272.03 2016.23L6261.11 2016.23C6259.61 2016.23 6258.39 2015.01 6258.39 2013.5 6258.39 2011.99 6259.61 2010.77 6261.11 2010.77ZM6282.94 2010.77 6288.5 2010.77C6290.01 2010.77 6291.23 2011.99 6291.23 2013.5 6291.23 2015.01 6290.01 2016.23 6288.5 2016.23L6282.94 2016.23C6281.43 2016.23 6280.21 2015.01 6280.21 2013.5 6280.21 2011.99 6281.43 2010.77 6282.94 2010.77Z" fill="#70AD47" fill-rule="nonzero" fill-opacity="1"/></g><g><text fill="#000000" fill-opacity="1" font-family="Calibri,Calibri_MSFontService,sans-serif" font-style="normal" font-variant="normal" font-weight="400" font-stretch="normal" font-size="46" text-anchor="start" direction="ltr" writing-mode="lr-tb" unicode-bidi="normal" text-decoration="none" transform="matrix(1 0 0 1 3028.51 2026)">0.0</text></g><g><text fill="#000000" fill-opacity="1" font-family="Calibri,Calibri_MSFontService,sans-serif" font-style="normal" font-variant="normal" font-weight="400" font-stretch="normal" font-size="46" text-anchor="start" direction="ltr" writing-mode="lr-tb" unicode-bidi="normal" text-decoration="none" transform="matrix(1 0 0 1 3028.51 1695)">5.0</text></g><g><text fill="#000000" fill-opacity="1" font-family="Calibri,Calibri_MSFontService,sans-serif" font-style="normal" font-variant="normal" font-weight="400" font-stretch="normal" font-size="46" text-anchor="start" direction="ltr" writing-mode="lr-tb" unicode-bidi="normal" text-decoration="none" transform="matrix(1 0 0 1 3005.31 1364)">10.0</text></g><g><text fill="#000000" fill-opacity="1" font-family="Calibri,Calibri_MSFontService,sans-serif" font-style="normal" font-variant="normal" font-weight="400" font-stretch="normal" font-size="46" text-anchor="start" direction="ltr" writing-mode="lr-tb" unicode-bidi="normal" text-decoration="none" transform="matrix(1 0 0 1 3005.31 1034)">15.0</text></g><g><text fill="#000000" fill-opacity="1" font-family="Calibri,Calibri_MSFontService,sans-serif" font-style="normal" font-variant="normal" font-weight="400" font-stretch="normal" font-size="46" text-anchor="start" direction="ltr" writing-mode="lr-tb" unicode-bidi="normal" text-decoration="none" transform="matrix(1 0 0 1 3005.31 703)">20.0</text></g><g><text fill="#000000" fill-opacity="1" font-family="Calibri,Calibri_MSFontService,sans-serif" font-style="normal" font-variant="normal" font-weight="400" font-stretch="normal" font-size="46" text-anchor="start" direction="ltr" writing-mode="lr-tb" unicode-bidi="normal" text-decoration="none" transform="matrix(1 0 0 1 3005.31 372)">25.0</text></g><g><text fill="#000000" fill-opacity="1" font-family="Calibri,Calibri_MSFontService,sans-serif" font-style="normal" font-variant="normal" font-weight="400" font-stretch="normal" font-size="46" text-anchor="start" direction="ltr" writing-mode="lr-tb" unicode-bidi="normal" text-decoration="none" transform="matrix(1 0 0 1 3292.68 2087)">S1</text></g><g><text fill="#000000" fill-opacity="1" font-family="Calibri,Calibri_MSFontService,sans-serif" font-style="normal" font-variant="normal" font-weight="400" font-stretch="normal" font-size="46" text-anchor="start" direction="ltr" writing-mode="lr-tb" unicode-bidi="normal" text-decoration="none" transform="matrix(1 0 0 1 3664.38 2087)">S2</text></g><g><text fill="#000000" fill-opacity="1" font-family="Calibri,Calibri_MSFontService,sans-serif" font-style="normal" font-variant="normal" font-weight="400" font-stretch="normal" font-size="46" text-anchor="start" direction="ltr" writing-mode="lr-tb" unicode-bidi="normal" text-decoration="none" transform="matrix(1 0 0 1 4036.09 2087)">S3</text></g><g><text fill="#000000" fill-opacity="1" font-family="Calibri,Calibri_MSFontService,sans-serif" font-style="normal" font-variant="normal" font-weight="400" font-stretch="normal" font-size="46" text-anchor="start" direction="ltr" writing-mode="lr-tb" unicode-bidi="normal" text-decoration="none" transform="matrix(1 0 0 1 4407.79 2087)">S4</text></g><g><text fill="#000000" fill-opacity="1" font-family="Calibri,Calibri_MSFontService,sans-serif" font-style="normal" font-variant="normal" font-weight="400" font-stretch="normal" font-size="46" text-anchor="start" direction="ltr" writing-mode="lr-tb" unicode-bidi="normal" text-decoration="none" transform="matrix(1 0 0 1 4779.49 2087)">S5</text></g><g><text fill="#000000" fill-opacity="1" font-family="Calibri,Calibri_MSFontService,sans-serif" font-style="normal" font-variant="normal" font-weight="400" font-stretch="normal" font-size="46" text-anchor="start" direction="ltr" writing-mode="lr-tb" unicode-bidi="normal" text-decoration="none" transform="matrix(1 0 0 1 5151.19 2087)">S6</text></g><g><text fill="#000000" fill-opacity="1" font-family="Calibri,Calibri_MSFontService,sans-serif" font-style="normal" font-variant="normal" font-weight="400" font-stretch="normal" font-size="46" text-anchor="start" direction="ltr" writing-mode="lr-tb" unicode-bidi="normal" text-decoration="none" transform="matrix(1 0 0 1 5522.9 2087)">S7</text></g><g><text fill="#000000" fill-opacity="1" font-family="Calibri,Calibri_MSFontService,sans-serif" font-style="normal" font-variant="normal" font-weight="400" font-stretch="normal" font-size="46" text-anchor="start" direction="ltr" writing-mode="lr-tb" unicode-bidi="normal" text-decoration="none" transform="matrix(1 0 0 1 5894.6 2087)">S8</text></g><g><text fill="#000000" fill-opacity="1" font-family="Calibri,Calibri_MSFontService,sans-serif" font-style="normal" font-variant="normal" font-weight="400" font-stretch="normal" font-size="46" text-anchor="start" direction="ltr" writing-mode="lr-tb" unicode-bidi="normal" text-decoration="none" transform="matrix(1 0 0 1 6266.3 2087)">S9</text></g><g><text fill="#000000" fill-opacity="1" font-family="Calibri,Calibri_MSFontService,sans-serif" font-style="normal" font-variant="normal" font-weight="700" font-stretch="normal" font-size="46" text-anchor="start" direction="ltr" writing-mode="lr-tb" unicode-bidi="normal" text-decoration="none" transform="matrix(6.12323e-17 -1 1 6.12323e-17 2979.62 1245)">TS (%)</text></g><g><text fill="#000000" fill-opacity="1" font-family="Calibri,Calibri_MSFontService,sans-serif" font-style="normal" font-variant="normal" font-weight="700" font-stretch="normal" font-size="83" text-anchor="start" direction="ltr" writing-mode="lr-tb" unicode-bidi="normal" text-decoration="none" transform="matrix(1 0 0 1 4474.28 280)">Task Slippage</text></g><g><path d="M4082 2170 4197 2170" stroke="#ED7D31" stroke-width="10.1339" stroke-linecap="round" stroke-linejoin="round" stroke-miterlimit="10" stroke-opacity="1" fill="none" fill-rule="evenodd"/></g><g><text fill="#000000" fill-opacity="1" font-family="Calibri,Calibri_MSFontService,sans-serif" font-style="normal" font-variant="normal" font-weight="400" font-stretch="normal" font-size="46" text-anchor="start" direction="ltr" writing-mode="lr-tb" unicode-bidi="normal" text-decoration="none" transform="matrix(1 0 0 1 4210.14 2182)">TS (%)</text></g><g><path d="M4398.5 2166.77 4414.87 2166.77C4416.38 2166.77 4417.6 2167.99 4417.6 2169.5 4417.6 2171.01 4416.38 2172.23 4414.87 2172.23L4398.5 2172.23C4396.99 2172.23 4395.77 2171.01 4395.77 2169.5 4395.77 2167.99 4396.99 2166.77 4398.5 2166.77ZM4436.7 2166.77 4453.07 2166.77C4454.57 2166.77 4455.8 2167.99 4455.8 2169.5 4455.8 2171.01 4454.57 2172.23 4453.07 2172.23L4436.7 2172.23C4435.19 2172.23 4433.97 2171.01 4433.97 2169.5 4433.97 2167.99 4435.19 2166.77 4436.7 2166.77ZM4474.89 2166.77 4491.26 2166.77C4492.77 2166.77 4493.99 2167.99 4493.99 2169.5 4493.99 2171.01 4492.77 2172.23 4491.26 2172.23L4474.89 2172.23C4473.39 2172.23 4472.17 2171.01 4472.17 2169.5 4472.17 2167.99 4473.39 2166.77 4474.89 2166.77ZM4513.09 2166.77 4513.5 2166.77C4515.01 2166.77 4516.23 2167.99 4516.23 2169.5 4516.23 2171.01 4515.01 2172.23 4513.5 2172.23L4513.09 2172.23C4511.58 2172.23 4510.36 2171.01 4510.36 2169.5 4510.36 2167.99 4511.58 2166.77 4513.09 2166.77Z" fill="#FF0000" fill-rule="nonzero" fill-opacity="1"/></g><g><text fill="#000000" fill-opacity="1" font-family="Calibri,Calibri_MSFontService,sans-serif" font-style="normal" font-variant="normal" font-weight="400" font-stretch="normal" font-size="46" text-anchor="start" direction="ltr" writing-mode="lr-tb" unicode-bidi="normal" text-decoration="none" transform="matrix(1 0 0 1 4526.5 2182)">Soglia acc. (15%)</text></g><g><path d="M4932.5 2166.77 4943.41 2166.77C4944.92 2166.77 4946.14 2167.99 4946.14 2169.5 4946.14 2171.01 4944.92 2172.23 4943.41 2172.23L4932.5 2172.23C4930.99 2172.23 4929.77 2171.01 4929.77 2169.5 4929.77 2167.99 4930.99 2166.77 4932.5 2166.77ZM4954.33 2166.77 4965.24 2166.77C4966.75 2166.77 4967.97 2167.99 4967.97 2169.5 4967.97 2171.01 4966.75 2172.23 4965.24 2172.23L4954.33 2172.23C4952.82 2172.23 4951.6 2171.01 4951.6 2169.5 4951.6 2167.99 4952.82 2166.77 4954.33 2166.77ZM4976.15 2166.77 4987.07 2166.77C4988.57 2166.77 4989.8 2167.99 4989.8 2169.5 4989.8 2171.01 4988.57 2172.23 4987.07 2172.23L4976.15 2172.23C4974.65 2172.23 4973.43 2171.01 4973.43 2169.5 4973.43 2167.99 4974.65 2166.77 4976.15 2166.77ZM4997.98 2166.77 5008.89 2166.77C5010.4 2166.77 5011.62 2167.99 5011.62 2169.5 5011.62 2171.01 5010.4 2172.23 5008.89 2172.23L4997.98 2172.23C4996.47 2172.23 4995.25 2171.01 4995.25 2169.5 4995.25 2167.99 4996.47 2166.77 4997.98 2166.77ZM5019.81 2166.77 5030.72 2166.77C5032.23 2166.77 5033.45 2167.99 5033.45 2169.5 5033.45 2171.01 5032.23 2172.23 5030.72 2172.23L5019.81 2172.23C5018.3 2172.23 5017.08 2171.01 5017.08 2169.5 5017.08 2167.99 5018.3 2166.77 5019.81 2166.77ZM5041.63 2166.77 5047.5 2166.77C5049.01 2166.77 5050.23 2167.99 5050.23 2169.5 5050.23 2171.01 5049.01 2172.23 5047.5 2172.23L5041.63 2172.23C5040.13 2172.23 5038.91 2171.01 5038.91 2169.5 5038.91 2167.99 5040.13 2166.77 5041.63 2166.77Z" fill="#70AD47" fill-rule="nonzero" fill-opacity="1"/></g><g><text fill="#000000" fill-opacity="1" font-family="Calibri,Calibri_MSFontService,sans-serif" font-style="normal" font-variant="normal" font-weight="400" font-stretch="normal" font-size="46" text-anchor="start" direction="ltr" writing-mode="lr-tb" unicode-bidi="normal" text-decoration="none" transform="matrix(1 0 0 1 5060.66 2182)">Soglia ott. (0%)</text></g><rect x="2878.5" y="167.5" width="3647" height="2072" stroke="#D9D9D9" stroke-width="3.37795" stroke-linecap="butt" stroke-linejoin="round" stroke-miterlimit="10" stroke-opacity="1" fill="none"/></g></g></svg>