<svg width="5243" height="2810" xmlns="http://www.w3.org/2000/svg" xmlns:xlink="http://www.w3.org/1999/xlink" xml:space="preserve" overflow="hidden"><defs><clipPath id="clip0"><rect x="1187" y="1292" width="5243" height="2810"/></clipPath><clipPath id="clip1"><rect x="1187" y="1292" width="5243" height="2810"/></clipPath></defs><g clip-path="url(#clip0)" transform="translate(-1187 -1292)"><g clip-path="url(#clip1)"><rect x="1190" y="1295" width="5235" height="2803" fill="#FFFFFF" fill-opacity="1"/><g><path d="M1699.5 3399.61 6270.5 3399.61M1699.5 3093.6 6270.5 3093.6M1699.5 2788.59 6270.5 2788.59M1699.5 2483.58 6270.5 2483.58M1699.5 2178.57 6270.5 2178.57M1699.5 1873.56 6270.5 1873.56M1699.5 1568.5 6270.5 1568.5" stroke="#878787" stroke-width="3.37795" stroke-linecap="butt" stroke-linejoin="round" stroke-miterlimit="10" stroke-opacity="1" fill="none" fill-rule="nonzero"/></g><g><path d="M0 0 0.000360892 2136" stroke="#878787" stroke-width="3.37795" stroke-linecap="butt" stroke-linejoin="round" stroke-miterlimit="10" stroke-opacity="1" fill="none" fill-rule="evenodd" transform="matrix(1 0 0 -1 1699.5 3704.5)"/></g><g><path d="M1699.5 3704.5 6270.5 3704.5" stroke="#878787" stroke-width="3.37795" stroke-linecap="butt" stroke-linejoin="round" stroke-miterlimit="10" stroke-opacity="1" fill="none" fill-rule="evenodd"/></g><g><path d="M1953 2888.23C2122.29 2888.23 2291.58 3054 2460.88 2888.23 2630.17 2722.46 2799.46 2034.2 2968.75 1893.6 3138.04 1753 3307.33 1981.06 3476.62 2044.63 3645.92 2108.19 3815.21 2205.06 3984.5 2274.98 4153.79 2344.9 4323.08 2454.48 4492.38 2464.14 4661.67 2473.8 4830.96 2305.74 5000.25 2332.95 5169.54 2360.15 5338.83 2609.32 5508.12 2627.37 5677.42 2645.42 5846.71 2503.29 6016 2441.26" stroke="#1F497D" stroke-width="10.3125" stroke-linecap="round" stroke-linejoin="round" stroke-miterlimit="10" stroke-opacity="1" fill="none" fill-rule="nonzero"/></g><g><path d="M1953 2738.99 1969.04 2738.99C1971.26 2738.99 1973.05 2740.79 1973.05 2743 1973.05 2745.22 1971.26 2747.01 1969.04 2747.01L1953 2747.01C1950.79 2747.01 1948.99 2745.22 1948.99 2743 1948.99 2740.79 1950.79 2738.99 1953 2738.99ZM1985.08 2738.99 2001.12 2738.99C2003.34 2738.99 2005.14 2740.79 2005.14 2743 2005.14 2745.22 2003.34 2747.01 2001.12 2747.01L1985.08 2747.01C1982.87 2747.01 1981.07 2745.22 1981.07 2743 1981.07 2740.79 1982.87 2738.99 1985.08 2738.99ZM2017.17 2738.99 2033.21 2738.99C2035.42 2738.99 2037.22 2740.79 2037.22 2743 2037.22 2745.22 2035.42 2747.01 2033.21 2747.01L2017.17 2747.01C2014.95 2747.01 2013.16 2745.22 2013.16 2743 2013.16 2740.79 2014.95 2738.99 2017.17 2738.99ZM2049.25 2738.99 2065.29 2738.99C2067.51 2738.99 2069.3 2740.79 2069.3 2743 2069.3 2745.22 2067.51 2747.01 2065.29 2747.01L2049.25 2747.01C2047.04 2747.01 2045.24 2745.22 2045.24 2743 2045.24 2740.79 2047.04 2738.99 2049.25 2738.99ZM2081.33 2738.99 2097.37 2738.99C2099.59 2738.99 2101.39 2740.79 2101.39 2743 2101.39 2745.22 2099.59 2747.01 2097.37 2747.01L2081.33 2747.01C2079.12 2747.01 2077.32 2745.22 2077.32 2743 2077.32 2740.79 2079.12 2738.99 2081.33 2738.99ZM2113.42 2738.99 2129.46 2738.99C2131.67 2738.99 2133.47 2740.79 2133.47 2743 2133.47 2745.22 2131.67 2747.01 2129.46 2747.01L2113.42 2747.01C2111.2 2747.01 2109.41 2745.22 2109.41 2743 2109.41 2740.79 2111.2 2738.99 2113.42 2738.99ZM2145.5 2738.99 2161.54 2738.99C2163.76 2738.99 2165.55 2740.79 2165.55 2743 2165.55 2745.22 2163.76 2747.01 2161.54 2747.01L2145.5 2747.01C2143.28 2747.01 2141.49 2745.22 2141.49 2743 2141.49 2740.79 2143.28 2738.99 2145.5 2738.99ZM2177.58 2738.99 2193.62 2738.99C2195.84 2738.99 2197.64 2740.79 2197.64 2743 2197.64 2745.22 2195.84 2747.01 2193.62 2747.01L2177.58 2747.01C2175.37 2747.01 2173.57 2745.22 2173.57 2743 2173.57 2740.79 2175.37 2738.99 2177.58 2738.99ZM2209.67 2738.99 2225.71 2738.99C2227.92 2738.99 2229.72 2740.79 2229.72 2743 2229.72 2745.22 2227.92 2747.01 2225.71 2747.01L2209.67 2747.01C2207.45 2747.01 2205.66 2745.22 2205.66 2743 2205.66 2740.79 2207.45 2738.99 2209.67 2738.99ZM2241.75 2738.99 2257.79 2738.99C2260.01 2738.99 2261.8 2740.79 2261.8 2743 2261.8 2745.22 2260.01 2747.01 2257.79 2747.01L2241.75 2747.01C2239.53 2747.01 2237.74 2745.22 2237.74 2743 2237.74 2740.79 2239.53 2738.99 2241.75 2738.99ZM2273.83 2738.99 2289.87 2738.99C2292.09 2738.99 2293.89 2740.79 2293.89 2743 2293.89 2745.22 2292.09 2747.01 2289.87 2747.01L2273.83 2747.01C2271.62 2747.01 2269.82 2745.22 2269.82 2743 2269.82 2740.79 2271.62 2738.99 2273.83 2738.99ZM2305.92 2738.99 2321.96 2738.99C2324.17 2738.99 2325.97 2740.79 2325.97 2743 2325.97 2745.22 2324.17 2747.01 2321.96 2747.01L2305.92 2747.01C2303.7 2747.01 2301.91 2745.22 2301.91 2743 2301.91 2740.79 2303.7 2738.99 2305.92 2738.99ZM2338 2738.99 2354.04 2738.99C2356.26 2738.99 2358.05 2740.79 2358.05 2743 2358.05 2745.22 2356.26 2747.01 2354.04 2747.01L2338 2747.01C2335.78 2747.01 2333.99 2745.22 2333.99 2743 2333.99 2740.79 2335.78 2738.99 2338 2738.99ZM2370.08 2738.99 2386.12 2738.99C2388.34 2738.99 2390.14 2740.79 2390.14 2743 2390.14 2745.22 2388.34 2747.01 2386.12 2747.01L2370.08 2747.01C2367.87 2747.01 2366.07 2745.22 2366.07 2743 2366.07 2740.79 2367.87 2738.99 2370.08 2738.99ZM2402.17 2738.99 2418.21 2738.99C2420.42 2738.99 2422.22 2740.79 2422.22 2743 2422.22 2745.22 2420.42 2747.01 2418.21 2747.01L2402.17 2747.01C2399.95 2747.01 2398.16 2745.22 2398.16 2743 2398.16 2740.79 2399.95 2738.99 2402.17 2738.99ZM2434.25 2738.99 2450.29 2738.99C2452.51 2738.99 2454.3 2740.79 2454.3 2743 2454.3 2745.22 2452.51 2747.01 2450.29 2747.01L2434.25 2747.01C2432.03 2747.01 2430.24 2745.22 2430.24 2743 2430.24 2740.79 2432.03 2738.99 2434.25 2738.99ZM2466.33 2738.99 2482.37 2738.99C2484.59 2738.99 2486.39 2740.79 2486.39 2743 2486.39 2745.22 2484.59 2747.01 2482.37 2747.01L2466.33 2747.01C2464.12 2747.01 2462.32 2745.22 2462.32 2743 2462.32 2740.79 2464.12 2738.99 2466.33 2738.99ZM2498.42 2738.99 2514.46 2738.99C2516.67 2738.99 2518.47 2740.79 2518.47 2743 2518.47 2745.22 2516.67 2747.01 2514.46 2747.01L2498.42 2747.01C2496.2 2747.01 2494.41 2745.22 2494.41 2743 2494.41 2740.79 2496.2 2738.99 2498.42 2738.99ZM2530.5 2738.99 2546.54 2738.99C2548.76 2738.99 2550.55 2740.79 2550.55 2743 2550.55 2745.22 2548.76 2747.01 2546.54 2747.01L2530.5 2747.01C2528.28 2747.01 2526.49 2745.22 2526.49 2743 2526.49 2740.79 2528.28 2738.99 2530.5 2738.99ZM2562.58 2738.99 2578.62 2738.99C2580.84 2738.99 2582.64 2740.79 2582.64 2743 2582.64 2745.22 2580.84 2747.01 2578.62 2747.01L2562.58 2747.01C2560.37 2747.01 2558.57 2745.22 2558.57 2743 2558.57 2740.79 2560.37 2738.99 2562.58 2738.99ZM2594.67 2738.99 2610.71 2738.99C2612.92 2738.99 2614.72 2740.79 2614.72 2743 2614.72 2745.22 2612.92 2747.01 2610.71 2747.01L2594.67 2747.01C2592.45 2747.01 2590.66 2745.22 2590.66 2743 2590.66 2740.79 2592.45 2738.99 2594.67 2738.99ZM2626.75 2738.99 2642.79 2738.99C2645.01 2738.99 2646.8 2740.79 2646.8 2743 2646.8 2745.22 2645.01 2747.01 2642.79 2747.01L2626.75 2747.01C2624.53 2747.01 2622.74 2745.22 2622.74 2743 2622.74 2740.79 2624.53 2738.99 2626.75 2738.99ZM2658.83 2738.99 2674.87 2738.99C2677.09 2738.99 2678.89 2740.79 2678.89 2743 2678.89 2745.22 2677.09 2747.01 2674.87 2747.01L2658.83 2747.01C2656.62 2747.01 2654.82 2745.22 2654.82 2743 2654.82 2740.79 2656.62 2738.99 2658.83 2738.99ZM2690.92 2738.99 2706.96 2738.99C2709.17 2738.99 2710.97 2740.79 2710.97 2743 2710.97 2745.22 2709.17 2747.01 2706.96 2747.01L2690.92 2747.01C2688.7 2747.01 2686.91 2745.22 2686.91 2743 2686.91 2740.79 2688.7 2738.99 2690.92 2738.99ZM2723 2738.99 2739.04 2738.99C2741.26 2738.99 2743.05 2740.79 2743.05 2743 2743.05 2745.22 2741.26 2747.01 2739.04 2747.01L2723 2747.01C2720.78 2747.01 2718.99 2745.22 2718.99 2743 2718.99 2740.79 2720.78 2738.99 2723 2738.99ZM2755.08 2738.99 2771.12 2738.99C2773.34 2738.99 2775.14 2740.79 2775.14 2743 2775.14 2745.22 2773.34 2747.01 2771.12 2747.01L2755.08 2747.01C2752.87 2747.01 2751.07 2745.22 2751.07 2743 2751.07 2740.79 2752.87 2738.99 2755.08 2738.99ZM2787.17 2738.99 2803.21 2738.99C2805.42 2738.99 2807.22 2740.79 2807.22 2743 2807.22 2745.22 2805.42 2747.01 2803.21 2747.01L2787.17 2747.01C2784.95 2747.01 2783.16 2745.22 2783.16 2743 2783.16 2740.79 2784.95 2738.99 2787.17 2738.99ZM2819.25 2738.99 2835.29 2738.99C2837.51 2738.99 2839.3 2740.79 2839.3 2743 2839.3 2745.22 2837.51 2747.01 2835.29 2747.01L2819.25 2747.01C2817.03 2747.01 2815.24 2745.22 2815.24 2743 2815.24 2740.79 2817.03 2738.99 2819.25 2738.99ZM2851.33 2738.99 2867.37 2738.99C2869.59 2738.99 2871.39 2740.79 2871.39 2743 2871.39 2745.22 2869.59 2747.01 2867.37 2747.01L2851.33 2747.01C2849.12 2747.01 2847.32 2745.22 2847.32 2743 2847.32 2740.79 2849.12 2738.99 2851.33 2738.99ZM2883.42 2738.99 2899.46 2738.99C2901.67 2738.99 2903.47 2740.79 2903.47 2743 2903.47 2745.22 2901.67 2747.01 2899.46 2747.01L2883.42 2747.01C2881.2 2747.01 2879.41 2745.22 2879.41 2743 2879.41 2740.79 2881.2 2738.99 2883.42 2738.99ZM2915.5 2738.99 2931.54 2738.99C2933.76 2738.99 2935.55 2740.79 2935.55 2743 2935.55 2745.22 2933.76 2747.01 2931.54 2747.01L2915.5 2747.01C2913.28 2747.01 2911.49 2745.22 2911.49 2743 2911.49 2740.79 2913.28 2738.99 2915.5 2738.99ZM2947.58 2738.99 2963.62 2738.99C2965.84 2738.99 2967.64 2740.79 2967.64 2743 2967.64 2745.22 2965.84 2747.01 2963.62 2747.01L2947.58 2747.01C2945.37 2747.01 2943.57 2745.22 2943.57 2743 2943.57 2740.79 2945.37 2738.99 2947.58 2738.99ZM2979.67 2738.99 2995.71 2738.99C2997.92 2738.99 2999.72 2740.79 2999.72 2743 2999.72 2745.22 2997.92 2747.01 2995.71 2747.01L2979.67 2747.01C2977.45 2747.01 2975.66 2745.22 2975.66 2743 2975.66 2740.79 2977.45 2738.99 2979.67 2738.99ZM3011.75 2738.99 3027.79 2738.99C3030.01 2738.99 3031.8 2740.79 3031.8 2743 3031.8 2745.22 3030.01 2747.01 3027.79 2747.01L3011.75 2747.01C3009.53 2747.01 3007.74 2745.22 3007.74 2743 3007.74 2740.79 3009.53 2738.99 3011.75 2738.99ZM3043.83 2738.99 3059.87 2738.99C3062.09 2738.99 3063.89 2740.79 3063.89 2743 3063.89 2745.22 3062.09 2747.01 3059.87 2747.01L3043.83 2747.01C3041.62 2747.01 3039.82 2745.22 3039.82 2743 3039.82 2740.79 3041.62 2738.99 3043.83 2738.99ZM3075.92 2738.99 3091.96 2738.99C3094.17 2738.99 3095.97 2740.79 3095.97 2743 3095.97 2745.22 3094.17 2747.01 3091.96 2747.01L3075.92 2747.01C3073.7 2747.01 3071.91 2745.22 3071.91 2743 3071.91 2740.79 3073.7 2738.99 3075.92 2738.99ZM3108 2738.99 3124.04 2738.99C3126.26 2738.99 3128.05 2740.79 3128.05 2743 3128.05 2745.22 3126.26 2747.01 3124.04 2747.01L3108 2747.01C3105.78 2747.01 3103.99 2745.22 3103.99 2743 3103.99 2740.79 3105.78 2738.99 3108 2738.99ZM3140.08 2738.99 3156.12 2738.99C3158.34 2738.99 3160.14 2740.79 3160.14 2743 3160.14 2745.22 3158.34 2747.01 3156.12 2747.01L3140.08 2747.01C3137.87 2747.01 3136.07 2745.22 3136.07 2743 3136.07 2740.79 3137.87 2738.99 3140.08 2738.99ZM3172.17 2738.99 3188.21 2738.99C3190.42 2738.99 3192.22 2740.79 3192.22 2743 3192.22 2745.22 3190.42 2747.01 3188.21 2747.01L3172.17 2747.01C3169.95 2747.01 3168.16 2745.22 3168.16 2743 3168.16 2740.79 3169.95 2738.99 3172.17 2738.99ZM3204.25 2738.99 3220.29 2738.99C3222.51 2738.99 3224.3 2740.79 3224.3 2743 3224.3 2745.22 3222.51 2747.01 3220.29 2747.01L3204.25 2747.01C3202.03 2747.01 3200.24 2745.22 3200.24 2743 3200.24 2740.79 3202.03 2738.99 3204.25 2738.99ZM3236.33 2738.99 3252.37 2738.99C3254.59 2738.99 3256.39 2740.79 3256.39 2743 3256.39 2745.22 3254.59 2747.01 3252.37 2747.01L3236.33 2747.01C3234.12 2747.01 3232.32 2745.22 3232.32 2743 3232.32 2740.79 3234.12 2738.99 3236.33 2738.99ZM3268.42 2738.99 3284.46 2738.99C3286.67 2738.99 3288.47 2740.79 3288.47 2743 3288.47 2745.22 3286.67 2747.01 3284.46 2747.01L3268.42 2747.01C3266.2 2747.01 3264.41 2745.22 3264.41 2743 3264.41 2740.79 3266.2 2738.99 3268.42 2738.99ZM3300.5 2738.99 3316.54 2738.99C3318.76 2738.99 3320.55 2740.79 3320.55 2743 3320.55 2745.22 3318.76 2747.01 3316.54 2747.01L3300.5 2747.01C3298.28 2747.01 3296.49 2745.22 3296.49 2743 3296.49 2740.79 3298.28 2738.99 3300.5 2738.99ZM3332.58 2738.99 3348.62 2738.99C3350.84 2738.99 3352.64 2740.79 3352.64 2743 3352.64 2745.22 3350.84 2747.01 3348.62 2747.01L3332.58 2747.01C3330.37 2747.01 3328.57 2745.22 3328.57 2743 3328.57 2740.79 3330.37 2738.99 3332.58 2738.99ZM3364.67 2738.99 3380.71 2738.99C3382.92 2738.99 3384.72 2740.79 3384.72 2743 3384.72 2745.22 3382.92 2747.01 3380.71 2747.01L3364.67 2747.01C3362.45 2747.01 3360.66 2745.22 3360.66 2743 3360.66 2740.79 3362.45 2738.99 3364.67 2738.99ZM3396.75 2738.99 3412.79 2738.99C3415.01 2738.99 3416.8 2740.79 3416.8 2743 3416.8 2745.22 3415.01 2747.01 3412.79 2747.01L3396.75 2747.01C3394.53 2747.01 3392.74 2745.22 3392.74 2743 3392.74 2740.79 3394.53 2738.99 3396.75 2738.99ZM3428.83 2738.99 3444.87 2738.99C3447.09 2738.99 3448.89 2740.79 3448.89 2743 3448.89 2745.22 3447.09 2747.01 3444.87 2747.01L3428.83 2747.01C3426.62 2747.01 3424.82 2745.22 3424.82 2743 3424.82 2740.79 3426.62 2738.99 3428.83 2738.99ZM3460.92 2738.99 3476.96 2738.99C3479.17 2738.99 3480.97 2740.79 3480.97 2743 3480.97 2745.22 3479.17 2747.01 3476.96 2747.01L3460.92 2747.01C3458.7 2747.01 3456.91 2745.22 3456.91 2743 3456.91 2740.79 3458.7 2738.99 3460.92 2738.99ZM3493 2738.99 3509.04 2738.99C3511.26 2738.99 3513.05 2740.79 3513.05 2743 3513.05 2745.22 3511.26 2747.01 3509.04 2747.01L3493 2747.01C3490.78 2747.01 3488.99 2745.22 3488.99 2743 3488.99 2740.79 3490.78 2738.99 3493 2738.99ZM3525.08 2738.99 3541.12 2738.99C3543.34 2738.99 3545.14 2740.79 3545.14 2743 3545.14 2745.22 3543.34 2747.01 3541.12 2747.01L3525.08 2747.01C3522.87 2747.01 3521.07 2745.22 3521.07 2743 3521.07 2740.79 3522.87 2738.99 3525.08 2738.99ZM3557.17 2738.99 3573.21 2738.99C3575.42 2738.99 3577.22 2740.79 3577.22 2743 3577.22 2745.22 3575.42 2747.01 3573.21 2747.01L3557.17 2747.01C3554.95 2747.01 3553.16 2745.22 3553.16 2743 3553.16 2740.79 3554.95 2738.99 3557.17 2738.99ZM3589.25 2738.99 3605.29 2738.99C3607.51 2738.99 3609.3 2740.79 3609.3 2743 3609.3 2745.22 3607.51 2747.01 3605.29 2747.01L3589.25 2747.01C3587.03 2747.01 3585.24 2745.22 3585.24 2743 3585.24 2740.79 3587.03 2738.99 3589.25 2738.99ZM3621.33 2738.99 3637.37 2738.99C3639.59 2738.99 3641.39 2740.79 3641.39 2743 3641.39 2745.22 3639.59 2747.01 3637.37 2747.01L3621.33 2747.01C3619.12 2747.01 3617.32 2745.22 3617.32 2743 3617.32 2740.79 3619.12 2738.99 3621.33 2738.99ZM3653.42 2738.99 3669.46 2738.99C3671.67 2738.99 3673.47 2740.79 3673.47 2743 3673.47 2745.22 3671.67 2747.01 3669.46 2747.01L3653.42 2747.01C3651.2 2747.01 3649.41 2745.22 3649.41 2743 3649.41 2740.79 3651.2 2738.99 3653.42 2738.99ZM3685.5 2738.99 3701.54 2738.99C3703.76 2738.99 3705.55 2740.79 3705.55 2743 3705.55 2745.22 3703.76 2747.01 3701.54 2747.01L3685.5 2747.01C3683.28 2747.01 3681.49 2745.22 3681.49 2743 3681.49 2740.79 3683.28 2738.99 3685.5 2738.99ZM3717.58 2738.99 3733.62 2738.99C3735.84 2738.99 3737.64 2740.79 3737.64 2743 3737.64 2745.22 3735.84 2747.01 3733.62 2747.01L3717.58 2747.01C3715.37 2747.01 3713.57 2745.22 3713.57 2743 3713.57 2740.79 3715.37 2738.99 3717.58 2738.99ZM3749.67 2738.99 3765.71 2738.99C3767.92 2738.99 3769.72 2740.79 3769.72 2743 3769.72 2745.22 3767.92 2747.01 3765.71 2747.01L3749.67 2747.01C3747.45 2747.01 3745.66 2745.22 3745.66 2743 3745.66 2740.79 3747.45 2738.99 3749.67 2738.99ZM3781.75 2738.99 3797.79 2738.99C3800.01 2738.99 3801.8 2740.79 3801.8 2743 3801.8 2745.22 3800.01 2747.01 3797.79 2747.01L3781.75 2747.01C3779.53 2747.01 3777.74 2745.22 3777.74 2743 3777.74 2740.79 3779.53 2738.99 3781.75 2738.99ZM3813.83 2738.99 3829.87 2738.99C3832.09 2738.99 3833.89 2740.79 3833.89 2743 3833.89 2745.22 3832.09 2747.01 3829.87 2747.01L3813.83 2747.01C3811.62 2747.01 3809.82 2745.22 3809.82 2743 3809.82 2740.79 3811.62 2738.99 3813.83 2738.99ZM3845.92 2738.99 3861.96 2738.99C3864.17 2738.99 3865.97 2740.79 3865.97 2743 3865.97 2745.22 3864.17 2747.01 3861.96 2747.01L3845.92 2747.01C3843.7 2747.01 3841.91 2745.22 3841.91 2743 3841.91 2740.79 3843.7 2738.99 3845.92 2738.99ZM3878 2738.99 3894.04 2738.99C3896.26 2738.99 3898.05 2740.79 3898.05 2743 3898.05 2745.22 3896.26 2747.01 3894.04 2747.01L3878 2747.01C3875.78 2747.01 3873.99 2745.22 3873.99 2743 3873.99 2740.79 3875.78 2738.99 3878 2738.99ZM3910.08 2738.99 3926.12 2738.99C3928.34 2738.99 3930.14 2740.79 3930.14 2743 3930.14 2745.22 3928.34 2747.01 3926.12 2747.01L3910.08 2747.01C3907.87 2747.01 3906.07 2745.22 3906.07 2743 3906.07 2740.79 3907.87 2738.99 3910.08 2738.99ZM3942.17 2738.99 3958.21 2738.99C3960.42 2738.99 3962.22 2740.79 3962.22 2743 3962.22 2745.22 3960.42 2747.01 3958.21 2747.01L3942.17 2747.01C3939.95 2747.01 3938.16 2745.22 3938.16 2743 3938.16 2740.79 3939.95 2738.99 3942.17 2738.99ZM3974.25 2738.99 3985.13 2738.99 3990.29 2738.99C3992.51 2738.99 3994.3 2740.79 3994.3 2743 3994.3 2745.22 3992.51 2747.01 3990.29 2747.01L3985.13 2747.01 3974.25 2747.01C3972.03 2747.01 3970.24 2745.22 3970.24 2743 3970.24 2740.79 3972.03 2738.99 3974.25 2738.99ZM4006.33 2738.99 4022.37 2738.99C4024.59 2738.99 4026.39 2740.79 4026.39 2743 4026.39 2745.22 4024.59 2747.01 4022.37 2747.01L4006.33 2747.01C4004.12 2747.01 4002.32 2745.22 4002.32 2743 4002.32 2740.79 4004.12 2738.99 4006.33 2738.99ZM4038.42 2738.99 4054.46 2738.99C4056.67 2738.99 4058.47 2740.79 4058.47 2743 4058.47 2745.22 4056.67 2747.01 4054.46 2747.01L4038.42 2747.01C4036.2 2747.01 4034.41 2745.22 4034.41 2743 4034.41 2740.79 4036.2 2738.99 4038.42 2738.99ZM4070.5 2738.99 4086.54 2738.99C4088.76 2738.99 4090.55 2740.79 4090.55 2743 4090.55 2745.22 4088.76 2747.01 4086.54 2747.01L4070.5 2747.01C4068.28 2747.01 4066.49 2745.22 4066.49 2743 4066.49 2740.79 4068.28 2738.99 4070.5 2738.99ZM4102.58 2738.99 4118.62 2738.99C4120.84 2738.99 4122.64 2740.79 4122.64 2743 4122.64 2745.22 4120.84 2747.01 4118.62 2747.01L4102.58 2747.01C4100.37 2747.01 4098.57 2745.22 4098.57 2743 4098.57 2740.79 4100.37 2738.99 4102.58 2738.99ZM4134.67 2738.99 4150.71 2738.99C4152.92 2738.99 4154.72 2740.79 4154.72 2743 4154.72 2745.22 4152.92 2747.01 4150.71 2747.01L4134.67 2747.01C4132.45 2747.01 4130.66 2745.22 4130.66 2743 4130.66 2740.79 4132.45 2738.99 4134.67 2738.99ZM4166.75 2738.99 4182.79 2738.99C4185.01 2738.99 4186.8 2740.79 4186.8 2743 4186.8 2745.22 4185.01 2747.01 4182.79 2747.01L4166.75 2747.01C4164.53 2747.01 4162.74 2745.22 4162.74 2743 4162.74 2740.79 4164.53 2738.99 4166.75 2738.99ZM4198.83 2738.99 4214.88 2738.99C4217.09 2738.99 4218.89 2740.79 4218.89 2743 4218.89 2745.22 4217.09 2747.01 4214.88 2747.01L4198.83 2747.01C4196.62 2747.01 4194.82 2745.22 4194.82 2743 4194.82 2740.79 4196.62 2738.99 4198.83 2738.99ZM4230.92 2738.99 4246.96 2738.99C4249.17 2738.99 4250.97 2740.79 4250.97 2743 4250.97 2745.22 4249.17 2747.01 4246.96 2747.01L4230.92 2747.01C4228.7 2747.01 4226.91 2745.22 4226.91 2743 4226.91 2740.79 4228.7 2738.99 4230.92 2738.99ZM4263 2738.99 4279.04 2738.99C4281.26 2738.99 4283.05 2740.79 4283.05 2743 4283.05 2745.22 4281.26 2747.01 4279.04 2747.01L4263 2747.01C4260.78 2747.01 4258.99 2745.22 4258.99 2743 4258.99 2740.79 4260.78 2738.99 4263 2738.99ZM4295.08 2738.99 4311.12 2738.99C4313.34 2738.99 4315.14 2740.79 4315.14 2743 4315.14 2745.22 4313.34 2747.01 4311.12 2747.01L4295.08 2747.01C4292.87 2747.01 4291.07 2745.22 4291.07 2743 4291.07 2740.79 4292.87 2738.99 4295.08 2738.99ZM4327.17 2738.99 4343.21 2738.99C4345.42 2738.99 4347.22 2740.79 4347.22 2743 4347.22 2745.22 4345.42 2747.01 4343.21 2747.01L4327.17 2747.01C4324.95 2747.01 4323.16 2745.22 4323.16 2743 4323.16 2740.79 4324.95 2738.99 4327.17 2738.99ZM4359.25 2738.99 4375.29 2738.99C4377.51 2738.99 4379.3 2740.79 4379.3 2743 4379.3 2745.22 4377.51 2747.01 4375.29 2747.01L4359.25 2747.01C4357.03 2747.01 4355.24 2745.22 4355.24 2743 4355.24 2740.79 4357.03 2738.99 4359.25 2738.99ZM4391.33 2738.99 4407.38 2738.99C4409.59 2738.99 4411.39 2740.79 4411.39 2743 4411.39 2745.22 4409.59 2747.01 4407.38 2747.01L4391.33 2747.01C4389.12 2747.01 4387.32 2745.22 4387.32 2743 4387.32 2740.79 4389.12 2738.99 4391.33 2738.99ZM4423.42 2738.99 4439.46 2738.99C4441.67 2738.99 4443.47 2740.79 4443.47 2743 4443.47 2745.22 4441.67 2747.01 4439.46 2747.01L4423.42 2747.01C4421.2 2747.01 4419.41 2745.22 4419.41 2743 4419.41 2740.79 4421.2 2738.99 4423.42 2738.99ZM4455.5 2738.99 4471.54 2738.99C4473.76 2738.99 4475.55 2740.79 4475.55 2743 4475.55 2745.22 4473.76 2747.01 4471.54 2747.01L4455.5 2747.01C4453.28 2747.01 4451.49 2745.22 4451.49 2743 4451.49 2740.79 4453.28 2738.99 4455.5 2738.99ZM4487.58 2738.99 4493.15 2738.99 4503.62 2738.99C4505.84 2738.99 4507.64 2740.79 4507.64 2743 4507.64 2745.22 4505.84 2747.01 4503.62 2747.01L4493.15 2747.01 4487.58 2747.01C4485.37 2747.01 4483.57 2745.22 4483.57 2743 4483.57 2740.79 4485.37 2738.99 4487.58 2738.99ZM4519.67 2738.99 4535.71 2738.99C4537.92 2738.99 4539.72 2740.79 4539.72 2743 4539.72 2745.22 4537.92 2747.01 4535.71 2747.01L4519.67 2747.01C4517.45 2747.01 4515.66 2745.22 4515.66 2743 4515.66 2740.79 4517.45 2738.99 4519.67 2738.99ZM4551.75 2738.99 4567.79 2738.99C4570.01 2738.99 4571.8 2740.79 4571.8 2743 4571.8 2745.22 4570.01 2747.01 4567.79 2747.01L4551.75 2747.01C4549.53 2747.01 4547.74 2745.22 4547.74 2743 4547.74 2740.79 4549.53 2738.99 4551.75 2738.99ZM4583.83 2738.99 4599.88 2738.99C4602.09 2738.99 4603.89 2740.79 4603.89 2743 4603.89 2745.22 4602.09 2747.01 4599.88 2747.01L4583.83 2747.01C4581.62 2747.01 4579.82 2745.22 4579.82 2743 4579.82 2740.79 4581.62 2738.99 4583.83 2738.99ZM4615.92 2738.99 4631.96 2738.99C4634.17 2738.99 4635.97 2740.79 4635.97 2743 4635.97 2745.22 4634.17 2747.01 4631.96 2747.01L4615.92 2747.01C4613.7 2747.01 4611.91 2745.22 4611.91 2743 4611.91 2740.79 4613.7 2738.99 4615.92 2738.99ZM4648 2738.99 4664.04 2738.99C4666.26 2738.99 4668.05 2740.79 4668.05 2743 4668.05 2745.22 4666.26 2747.01 4664.04 2747.01L4648 2747.01C4645.78 2747.01 4643.99 2745.22 4643.99 2743 4643.99 2740.79 4645.78 2738.99 4648 2738.99ZM4680.08 2738.99 4696.12 2738.99C4698.34 2738.99 4700.14 2740.79 4700.14 2743 4700.14 2745.22 4698.34 2747.01 4696.12 2747.01L4680.08 2747.01C4677.87 2747.01 4676.07 2745.22 4676.07 2743 4676.07 2740.79 4677.87 2738.99 4680.08 2738.99ZM4712.17 2738.99 4728.21 2738.99C4730.42 2738.99 4732.22 2740.79 4732.22 2743 4732.22 2745.22 4730.42 2747.01 4728.21 2747.01L4712.17 2747.01C4709.95 2747.01 4708.16 2745.22 4708.16 2743 4708.16 2740.79 4709.95 2738.99 4712.17 2738.99ZM4744.25 2738.99 4760.29 2738.99C4762.51 2738.99 4764.3 2740.79 4764.3 2743 4764.3 2745.22 4762.51 2747.01 4760.29 2747.01L4744.25 2747.01C4742.03 2747.01 4740.24 2745.22 4740.24 2743 4740.24 2740.79 4742.03 2738.99 4744.25 2738.99ZM4776.33 2738.99 4792.38 2738.99C4794.59 2738.99 4796.39 2740.79 4796.39 2743 4796.39 2745.22 4794.59 2747.01 4792.38 2747.01L4776.33 2747.01C4774.12 2747.01 4772.32 2745.22 4772.32 2743 4772.32 2740.79 4774.12 2738.99 4776.33 2738.99ZM4808.42 2738.99 4824.46 2738.99C4826.67 2738.99 4828.47 2740.79 4828.47 2743 4828.47 2745.22 4826.67 2747.01 4824.46 2747.01L4808.42 2747.01C4806.2 2747.01 4804.41 2745.22 4804.41 2743 4804.41 2740.79 4806.2 2738.99 4808.42 2738.99ZM4840.5 2738.99 4856.54 2738.99C4858.76 2738.99 4860.55 2740.79 4860.55 2743 4860.55 2745.22 4858.76 2747.01 4856.54 2747.01L4840.5 2747.01C4838.28 2747.01 4836.49 2745.22 4836.49 2743 4836.49 2740.79 4838.28 2738.99 4840.5 2738.99ZM4872.58 2738.99 4888.62 2738.99C4890.84 2738.99 4892.64 2740.79 4892.64 2743 4892.64 2745.22 4890.84 2747.01 4888.62 2747.01L4872.58 2747.01C4870.37 2747.01 4868.57 2745.22 4868.57 2743 4868.57 2740.79 4870.37 2738.99 4872.58 2738.99ZM4904.67 2738.99 4920.71 2738.99C4922.92 2738.99 4924.72 2740.79 4924.72 2743 4924.72 2745.22 4922.92 2747.01 4920.71 2747.01L4904.67 2747.01C4902.45 2747.01 4900.66 2745.22 4900.66 2743 4900.66 2740.79 4902.45 2738.99 4904.67 2738.99ZM4936.75 2738.99 4952.79 2738.99C4955.01 2738.99 4956.8 2740.79 4956.8 2743 4956.8 2745.22 4955.01 2747.01 4952.79 2747.01L4936.75 2747.01C4934.53 2747.01 4932.74 2745.22 4932.74 2743 4932.74 2740.79 4934.53 2738.99 4936.75 2738.99ZM4968.83 2738.99 4984.88 2738.99C4987.09 2738.99 4988.89 2740.79 4988.89 2743 4988.89 2745.22 4987.09 2747.01 4984.88 2747.01L4968.83 2747.01C4966.62 2747.01 4964.82 2745.22 4964.82 2743 4964.82 2740.79 4966.62 2738.99 4968.83 2738.99ZM5000.92 2738.99 5016.96 2738.99C5019.17 2738.99 5020.97 2740.79 5020.97 2743 5020.97 2745.22 5019.17 2747.01 5016.96 2747.01L5000.92 2747.01C4998.7 2747.01 4996.91 2745.22 4996.91 2743 4996.91 2740.79 4998.7 2738.99 5000.92 2738.99ZM5033 2738.99 5049.04 2738.99C5051.26 2738.99 5053.05 2740.79 5053.05 2743 5053.05 2745.22 5051.26 2747.01 5049.04 2747.01L5033 2747.01C5030.79 2747.01 5028.99 2745.22 5028.99 2743 5028.99 2740.79 5030.79 2738.99 5033 2738.99ZM5065.08 2738.99 5081.12 2738.99C5083.34 2738.99 5085.14 2740.79 5085.14 2743 5085.14 2745.22 5083.34 2747.01 5081.12 2747.01L5065.08 2747.01C5062.87 2747.01 5061.07 2745.22 5061.07 2743 5061.07 2740.79 5062.87 2738.99 5065.08 2738.99ZM5097.17 2738.99 5113.21 2738.99C5115.42 2738.99 5117.22 2740.79 5117.22 2743 5117.22 2745.22 5115.42 2747.01 5113.21 2747.01L5097.17 2747.01C5094.95 2747.01 5093.16 2745.22 5093.16 2743 5093.16 2740.79 5094.95 2738.99 5097.17 2738.99ZM5129.25 2738.99 5145.29 2738.99C5147.51 2738.99 5149.3 2740.79 5149.3 2743 5149.3 2745.22 5147.51 2747.01 5145.29 2747.01L5129.25 2747.01C5127.04 2747.01 5125.24 2745.22 5125.24 2743 5125.24 2740.79 5127.04 2738.99 5129.25 2738.99ZM5161.33 2738.99 5177.38 2738.99C5179.59 2738.99 5181.39 2740.79 5181.39 2743 5181.39 2745.22 5179.59 2747.01 5177.38 2747.01L5161.33 2747.01C5159.12 2747.01 5157.32 2745.22 5157.32 2743 5157.32 2740.79 5159.12 2738.99 5161.33 2738.99ZM5193.42 2738.99 5209.46 2738.99C5211.67 2738.99 5213.47 2740.79 5213.47 2743 5213.47 2745.22 5211.67 2747.01 5209.46 2747.01L5193.42 2747.01C5191.2 2747.01 5189.41 2745.22 5189.41 2743 5189.41 2740.79 5191.2 2738.99 5193.42 2738.99ZM5225.5 2738.99 5241.54 2738.99C5243.76 2738.99 5245.55 2740.79 5245.55 2743 5245.55 2745.22 5243.76 2747.01 5241.54 2747.01L5225.5 2747.01C5223.29 2747.01 5221.49 2745.22 5221.49 2743 5221.49 2740.79 5223.29 2738.99 5225.5 2738.99ZM5257.58 2738.99 5273.62 2738.99C5275.84 2738.99 5277.64 2740.79 5277.64 2743 5277.64 2745.22 5275.84 2747.01 5273.62 2747.01L5257.58 2747.01C5255.37 2747.01 5253.57 2745.22 5253.57 2743 5253.57 2740.79 5255.37 2738.99 5257.58 2738.99ZM5289.67 2738.99 5305.71 2738.99C5307.92 2738.99 5309.72 2740.79 5309.72 2743 5309.72 2745.22 5307.92 2747.01 5305.71 2747.01L5289.67 2747.01C5287.45 2747.01 5285.66 2745.22 5285.66 2743 5285.66 2740.79 5287.45 2738.99 5289.67 2738.99ZM5321.75 2738.99 5337.79 2738.99C5340.01 2738.99 5341.8 2740.79 5341.8 2743 5341.8 2745.22 5340.01 2747.01 5337.79 2747.01L5321.75 2747.01C5319.54 2747.01 5317.74 2745.22 5317.74 2743 5317.74 2740.79 5319.54 2738.99 5321.75 2738.99ZM5353.83 2738.99 5369.88 2738.99C5372.09 2738.99 5373.89 2740.79 5373.89 2743 5373.89 2745.22 5372.09 2747.01 5369.88 2747.01L5353.83 2747.01C5351.62 2747.01 5349.82 2745.22 5349.82 2743 5349.82 2740.79 5351.62 2738.99 5353.83 2738.99ZM5385.92 2738.99 5401.96 2738.99C5404.17 2738.99 5405.97 2740.79 5405.97 2743 5405.97 2745.22 5404.17 2747.01 5401.96 2747.01L5385.92 2747.01C5383.7 2747.01 5381.91 2745.22 5381.91 2743 5381.91 2740.79 5383.7 2738.99 5385.92 2738.99ZM5418 2738.99 5434.04 2738.99C5436.26 2738.99 5438.05 2740.79 5438.05 2743 5438.05 2745.22 5436.26 2747.01 5434.04 2747.01L5418 2747.01C5415.79 2747.01 5413.99 2745.22 5413.99 2743 5413.99 2740.79 5415.79 2738.99 5418 2738.99ZM5450.08 2738.99 5466.12 2738.99C5468.34 2738.99 5470.14 2740.79 5470.14 2743 5470.14 2745.22 5468.34 2747.01 5466.12 2747.01L5450.08 2747.01C5447.87 2747.01 5446.07 2745.22 5446.07 2743 5446.07 2740.79 5447.87 2738.99 5450.08 2738.99ZM5482.17 2738.99 5498.21 2738.99C5500.42 2738.99 5502.22 2740.79 5502.22 2743 5502.22 2745.22 5500.42 2747.01 5498.21 2747.01L5482.17 2747.01C5479.95 2747.01 5478.16 2745.22 5478.16 2743 5478.16 2740.79 5479.95 2738.99 5482.17 2738.99ZM5514.25 2738.99 5530.29 2738.99C5532.51 2738.99 5534.3 2740.79 5534.3 2743 5534.3 2745.22 5532.51 2747.01 5530.29 2747.01L5514.25 2747.01C5512.04 2747.01 5510.24 2745.22 5510.24 2743 5510.24 2740.79 5512.04 2738.99 5514.25 2738.99ZM5546.33 2738.99 5562.38 2738.99C5564.59 2738.99 5566.39 2740.79 5566.39 2743 5566.39 2745.22 5564.59 2747.01 5562.38 2747.01L5546.33 2747.01C5544.12 2747.01 5542.32 2745.22 5542.32 2743 5542.32 2740.79 5544.12 2738.99 5546.33 2738.99ZM5578.42 2738.99 5594.46 2738.99C5596.67 2738.99 5598.47 2740.79 5598.47 2743 5598.47 2745.22 5596.67 2747.01 5594.46 2747.01L5578.42 2747.01C5576.2 2747.01 5574.41 2745.22 5574.41 2743 5574.41 2740.79 5576.2 2738.99 5578.42 2738.99ZM5610.5 2738.99 5626.54 2738.99C5628.76 2738.99 5630.55 2740.79 5630.55 2743 5630.55 2745.22 5628.76 2747.01 5626.54 2747.01L5610.5 2747.01C5608.29 2747.01 5606.49 2745.22 5606.49 2743 5606.49 2740.79 5608.29 2738.99 5610.5 2738.99ZM5642.58 2738.99 5658.62 2738.99C5660.84 2738.99 5662.64 2740.79 5662.64 2743 5662.64 2745.22 5660.84 2747.01 5658.62 2747.01L5642.58 2747.01C5640.37 2747.01 5638.57 2745.22 5638.57 2743 5638.57 2740.79 5640.37 2738.99 5642.58 2738.99ZM5674.67 2738.99 5690.71 2738.99C5692.92 2738.99 5694.72 2740.79 5694.72 2743 5694.72 2745.22 5692.92 2747.01 5690.71 2747.01L5674.67 2747.01C5672.45 2747.01 5670.66 2745.22 5670.66 2743 5670.66 2740.79 5672.45 2738.99 5674.67 2738.99ZM5706.75 2738.99 5722.79 2738.99C5725.01 2738.99 5726.8 2740.79 5726.8 2743 5726.8 2745.22 5725.01 2747.01 5722.79 2747.01L5706.75 2747.01C5704.54 2747.01 5702.74 2745.22 5702.74 2743 5702.74 2740.79 5704.54 2738.99 5706.75 2738.99ZM5738.83 2738.99 5754.88 2738.99C5757.09 2738.99 5758.89 2740.79 5758.89 2743 5758.89 2745.22 5757.09 2747.01 5754.88 2747.01L5738.83 2747.01C5736.62 2747.01 5734.82 2745.22 5734.82 2743 5734.82 2740.79 5736.62 2738.99 5738.83 2738.99ZM5770.92 2738.99 5786.96 2738.99C5789.17 2738.99 5790.97 2740.79 5790.97 2743 5790.97 2745.22 5789.17 2747.01 5786.96 2747.01L5770.92 2747.01C5768.7 2747.01 5766.91 2745.22 5766.91 2743 5766.91 2740.79 5768.7 2738.99 5770.92 2738.99ZM5803 2738.99 5819.04 2738.99C5821.26 2738.99 5823.05 2740.79 5823.05 2743 5823.05 2745.22 5821.26 2747.01 5819.04 2747.01L5803 2747.01C5800.79 2747.01 5798.99 2745.22 5798.99 2743 5798.99 2740.79 5800.79 2738.99 5803 2738.99ZM5835.08 2738.99 5851.12 2738.99C5853.34 2738.99 5855.14 2740.79 5855.14 2743 5855.14 2745.22 5853.34 2747.01 5851.12 2747.01L5835.08 2747.01C5832.87 2747.01 5831.07 2745.22 5831.07 2743 5831.07 2740.79 5832.87 2738.99 5835.08 2738.99ZM5867.17 2738.99 5883.21 2738.99C5885.42 2738.99 5887.22 2740.79 5887.22 2743 5887.22 2745.22 5885.42 2747.01 5883.21 2747.01L5867.17 2747.01C5864.95 2747.01 5863.16 2745.22 5863.16 2743 5863.16 2740.79 5864.95 2738.99 5867.17 2738.99ZM5899.25 2738.99 5915.29 2738.99C5917.51 2738.99 5919.3 2740.79 5919.3 2743 5919.3 2745.22 5917.51 2747.01 5915.29 2747.01L5899.25 2747.01C5897.04 2747.01 5895.24 2745.22 5895.24 2743 5895.24 2740.79 5897.04 2738.99 5899.25 2738.99ZM5931.33 2738.99 5947.38 2738.99C5949.59 2738.99 5951.39 2740.79 5951.39 2743 5951.39 2745.22 5949.59 2747.01 5947.38 2747.01L5931.33 2747.01C5929.12 2747.01 5927.32 2745.22 5927.32 2743 5927.32 2740.79 5929.12 2738.99 5931.33 2738.99ZM5963.42 2738.99 5979.46 2738.99C5981.67 2738.99 5983.47 2740.79 5983.47 2743 5983.47 2745.22 5981.67 2747.01 5979.46 2747.01L5963.42 2747.01C5961.2 2747.01 5959.41 2745.22 5959.41 2743 5959.41 2740.79 5961.2 2738.99 5963.42 2738.99ZM5995.5 2738.99 6011.54 2738.99C6013.76 2738.99 6015.55 2740.79 6015.55 2743 6015.55 2745.22 6013.76 2747.01 6011.54 2747.01L5995.5 2747.01C5993.29 2747.01 5991.49 2745.22 5991.49 2743 5991.49 2740.79 5993.29 2738.99 5995.5 2738.99Z" fill="#92D050" fill-rule="nonzero" fill-opacity="1"/></g><g><path d="M1953 2174.99 1969.04 2174.99C1971.26 2174.99 1973.05 2176.79 1973.05 2179 1973.05 2181.21 1971.26 2183.01 1969.04 2183.01L1953 2183.01C1950.79 2183.01 1948.99 2181.21 1948.99 2179 1948.99 2176.79 1950.79 2174.99 1953 2174.99ZM1985.08 2174.99 2001.12 2174.99C2003.34 2174.99 2005.14 2176.79 2005.14 2179 2005.14 2181.21 2003.34 2183.01 2001.12 2183.01L1985.08 2183.01C1982.87 2183.01 1981.07 2181.21 1981.07 2179 1981.07 2176.79 1982.87 2174.99 1985.08 2174.99ZM2017.17 2174.99 2033.21 2174.99C2035.42 2174.99 2037.22 2176.79 2037.22 2179 2037.22 2181.21 2035.42 2183.01 2033.21 2183.01L2017.17 2183.01C2014.95 2183.01 2013.16 2181.21 2013.16 2179 2013.16 2176.79 2014.95 2174.99 2017.17 2174.99ZM2049.25 2174.99 2065.29 2174.99C2067.51 2174.99 2069.3 2176.79 2069.3 2179 2069.3 2181.21 2067.51 2183.01 2065.29 2183.01L2049.25 2183.01C2047.04 2183.01 2045.24 2181.21 2045.24 2179 2045.24 2176.79 2047.04 2174.99 2049.25 2174.99ZM2081.33 2174.99 2097.37 2174.99C2099.59 2174.99 2101.39 2176.79 2101.39 2179 2101.39 2181.21 2099.59 2183.01 2097.37 2183.01L2081.33 2183.01C2079.12 2183.01 2077.32 2181.21 2077.32 2179 2077.32 2176.79 2079.12 2174.99 2081.33 2174.99ZM2113.42 2174.99 2129.46 2174.99C2131.67 2174.99 2133.47 2176.79 2133.47 2179 2133.47 2181.21 2131.67 2183.01 2129.46 2183.01L2113.42 2183.01C2111.2 2183.01 2109.41 2181.21 2109.41 2179 2109.41 2176.79 2111.2 2174.99 2113.42 2174.99ZM2145.5 2174.99 2161.54 2174.99C2163.76 2174.99 2165.55 2176.79 2165.55 2179 2165.55 2181.21 2163.76 2183.01 2161.54 2183.01L2145.5 2183.01C2143.28 2183.01 2141.49 2181.21 2141.49 2179 2141.49 2176.79 2143.28 2174.99 2145.5 2174.99ZM2177.58 2174.99 2193.62 2174.99C2195.84 2174.99 2197.64 2176.79 2197.64 2179 2197.64 2181.21 2195.84 2183.01 2193.62 2183.01L2177.58 2183.01C2175.37 2183.01 2173.57 2181.21 2173.57 2179 2173.57 2176.79 2175.37 2174.99 2177.58 2174.99ZM2209.67 2174.99 2225.71 2174.99C2227.92 2174.99 2229.72 2176.79 2229.72 2179 2229.72 2181.21 2227.92 2183.01 2225.71 2183.01L2209.67 2183.01C2207.45 2183.01 2205.66 2181.21 2205.66 2179 2205.66 2176.79 2207.45 2174.99 2209.67 2174.99ZM2241.75 2174.99 2257.79 2174.99C2260.01 2174.99 2261.8 2176.79 2261.8 2179 2261.8 2181.21 2260.01 2183.01 2257.79 2183.01L2241.75 2183.01C2239.53 2183.01 2237.74 2181.21 2237.74 2179 2237.74 2176.79 2239.53 2174.99 2241.75 2174.99ZM2273.83 2174.99 2289.87 2174.99C2292.09 2174.99 2293.89 2176.79 2293.89 2179 2293.89 2181.21 2292.09 2183.01 2289.87 2183.01L2273.83 2183.01C2271.62 2183.01 2269.82 2181.21 2269.82 2179 2269.82 2176.79 2271.62 2174.99 2273.83 2174.99ZM2305.92 2174.99 2321.96 2174.99C2324.17 2174.99 2325.97 2176.79 2325.97 2179 2325.97 2181.21 2324.17 2183.01 2321.96 2183.01L2305.92 2183.01C2303.7 2183.01 2301.91 2181.21 2301.91 2179 2301.91 2176.79 2303.7 2174.99 2305.92 2174.99ZM2338 2174.99 2354.04 2174.99C2356.26 2174.99 2358.05 2176.79 2358.05 2179 2358.05 2181.21 2356.26 2183.01 2354.04 2183.01L2338 2183.01C2335.78 2183.01 2333.99 2181.21 2333.99 2179 2333.99 2176.79 2335.78 2174.99 2338 2174.99ZM2370.08 2174.99 2386.12 2174.99C2388.34 2174.99 2390.14 2176.79 2390.14 2179 2390.14 2181.21 2388.34 2183.01 2386.12 2183.01L2370.08 2183.01C2367.87 2183.01 2366.07 2181.21 2366.07 2179 2366.07 2176.79 2367.87 2174.99 2370.08 2174.99ZM2402.17 2174.99 2418.21 2174.99C2420.42 2174.99 2422.22 2176.79 2422.22 2179 2422.22 2181.21 2420.42 2183.01 2418.21 2183.01L2402.17 2183.01C2399.95 2183.01 2398.16 2181.21 2398.16 2179 2398.16 2176.79 2399.95 2174.99 2402.17 2174.99ZM2434.25 2174.99 2450.29 2174.99C2452.51 2174.99 2454.3 2176.79 2454.3 2179 2454.3 2181.21 2452.51 2183.01 2450.29 2183.01L2434.25 2183.01C2432.03 2183.01 2430.24 2181.21 2430.24 2179 2430.24 2176.79 2432.03 2174.99 2434.25 2174.99ZM2466.33 2174.99 2482.37 2174.99C2484.59 2174.99 2486.39 2176.79 2486.39 2179 2486.39 2181.21 2484.59 2183.01 2482.37 2183.01L2466.33 2183.01C2464.12 2183.01 2462.32 2181.21 2462.32 2179 2462.32 2176.79 2464.12 2174.99 2466.33 2174.99ZM2498.42 2174.99 2514.46 2174.99C2516.67 2174.99 2518.47 2176.79 2518.47 2179 2518.47 2181.21 2516.67 2183.01 2514.46 2183.01L2498.42 2183.01C2496.2 2183.01 2494.41 2181.21 2494.41 2179 2494.41 2176.79 2496.2 2174.99 2498.42 2174.99ZM2530.5 2174.99 2546.54 2174.99C2548.76 2174.99 2550.55 2176.79 2550.55 2179 2550.55 2181.21 2548.76 2183.01 2546.54 2183.01L2530.5 2183.01C2528.28 2183.01 2526.49 2181.21 2526.49 2179 2526.49 2176.79 2528.28 2174.99 2530.5 2174.99ZM2562.58 2174.99 2578.62 2174.99C2580.84 2174.99 2582.64 2176.79 2582.64 2179 2582.64 2181.21 2580.84 2183.01 2578.62 2183.01L2562.58 2183.01C2560.37 2183.01 2558.57 2181.21 2558.57 2179 2558.57 2176.79 2560.37 2174.99 2562.58 2174.99ZM2594.67 2174.99 2610.71 2174.99C2612.92 2174.99 2614.72 2176.79 2614.72 2179 2614.72 2181.21 2612.92 2183.01 2610.71 2183.01L2594.67 2183.01C2592.45 2183.01 2590.66 2181.21 2590.66 2179 2590.66 2176.79 2592.45 2174.99 2594.67 2174.99ZM2626.75 2174.99 2642.79 2174.99C2645.01 2174.99 2646.8 2176.79 2646.8 2179 2646.8 2181.21 2645.01 2183.01 2642.79 2183.01L2626.75 2183.01C2624.53 2183.01 2622.74 2181.21 2622.74 2179 2622.74 2176.79 2624.53 2174.99 2626.75 2174.99ZM2658.83 2174.99 2674.87 2174.99C2677.09 2174.99 2678.89 2176.79 2678.89 2179 2678.89 2181.21 2677.09 2183.01 2674.87 2183.01L2658.83 2183.01C2656.62 2183.01 2654.82 2181.21 2654.82 2179 2654.82 2176.79 2656.62 2174.99 2658.83 2174.99ZM2690.92 2174.99 2706.96 2174.99C2709.17 2174.99 2710.97 2176.79 2710.97 2179 2710.97 2181.21 2709.17 2183.01 2706.96 2183.01L2690.92 2183.01C2688.7 2183.01 2686.91 2181.21 2686.91 2179 2686.91 2176.79 2688.7 2174.99 2690.92 2174.99ZM2723 2174.99 2739.04 2174.99C2741.26 2174.99 2743.05 2176.79 2743.05 2179 2743.05 2181.21 2741.26 2183.01 2739.04 2183.01L2723 2183.01C2720.78 2183.01 2718.99 2181.21 2718.99 2179 2718.99 2176.79 2720.78 2174.99 2723 2174.99ZM2755.08 2174.99 2771.12 2174.99C2773.34 2174.99 2775.14 2176.79 2775.14 2179 2775.14 2181.21 2773.34 2183.01 2771.12 2183.01L2755.08 2183.01C2752.87 2183.01 2751.07 2181.21 2751.07 2179 2751.07 2176.79 2752.87 2174.99 2755.08 2174.99ZM2787.17 2174.99 2803.21 2174.99C2805.42 2174.99 2807.22 2176.79 2807.22 2179 2807.22 2181.21 2805.42 2183.01 2803.21 2183.01L2787.17 2183.01C2784.95 2183.01 2783.16 2181.21 2783.16 2179 2783.16 2176.79 2784.95 2174.99 2787.17 2174.99ZM2819.25 2174.99 2835.29 2174.99C2837.51 2174.99 2839.3 2176.79 2839.3 2179 2839.3 2181.21 2837.51 2183.01 2835.29 2183.01L2819.25 2183.01C2817.03 2183.01 2815.24 2181.21 2815.24 2179 2815.24 2176.79 2817.03 2174.99 2819.25 2174.99ZM2851.33 2174.99 2867.37 2174.99C2869.59 2174.99 2871.39 2176.79 2871.39 2179 2871.39 2181.21 2869.59 2183.01 2867.37 2183.01L2851.33 2183.01C2849.12 2183.01 2847.32 2181.21 2847.32 2179 2847.32 2176.79 2849.12 2174.99 2851.33 2174.99ZM2883.42 2174.99 2899.46 2174.99C2901.67 2174.99 2903.47 2176.79 2903.47 2179 2903.47 2181.21 2901.67 2183.01 2899.46 2183.01L2883.42 2183.01C2881.2 2183.01 2879.41 2181.21 2879.41 2179 2879.41 2176.79 2881.2 2174.99 2883.42 2174.99ZM2915.5 2174.99 2931.54 2174.99C2933.76 2174.99 2935.55 2176.79 2935.55 2179 2935.55 2181.21 2933.76 2183.01 2931.54 2183.01L2915.5 2183.01C2913.28 2183.01 2911.49 2181.21 2911.49 2179 2911.49 2176.79 2913.28 2174.99 2915.5 2174.99ZM2947.58 2174.99 2963.62 2174.99C2965.84 2174.99 2967.64 2176.79 2967.64 2179 2967.64 2181.21 2965.84 2183.01 2963.62 2183.01L2947.58 2183.01C2945.37 2183.01 2943.57 2181.21 2943.57 2179 2943.57 2176.79 2945.37 2174.99 2947.58 2174.99ZM2979.67 2174.99 2995.71 2174.99C2997.92 2174.99 2999.72 2176.79 2999.72 2179 2999.72 2181.21 2997.92 2183.01 2995.71 2183.01L2979.67 2183.01C2977.45 2183.01 2975.66 2181.21 2975.66 2179 2975.66 2176.79 2977.45 2174.99 2979.67 2174.99ZM3011.75 2174.99 3027.79 2174.99C3030.01 2174.99 3031.8 2176.79 3031.8 2179 3031.8 2181.21 3030.01 2183.01 3027.79 2183.01L3011.75 2183.01C3009.53 2183.01 3007.74 2181.21 3007.74 2179 3007.74 2176.79 3009.53 2174.99 3011.75 2174.99ZM3043.83 2174.99 3059.87 2174.99C3062.09 2174.99 3063.89 2176.79 3063.89 2179 3063.89 2181.21 3062.09 2183.01 3059.87 2183.01L3043.83 2183.01C3041.62 2183.01 3039.82 2181.21 3039.82 2179 3039.82 2176.79 3041.62 2174.99 3043.83 2174.99ZM3075.92 2174.99 3091.96 2174.99C3094.17 2174.99 3095.97 2176.79 3095.97 2179 3095.97 2181.21 3094.17 2183.01 3091.96 2183.01L3075.92 2183.01C3073.7 2183.01 3071.91 2181.21 3071.91 2179 3071.91 2176.79 3073.7 2174.99 3075.92 2174.99ZM3108 2174.99 3124.04 2174.99C3126.26 2174.99 3128.05 2176.79 3128.05 2179 3128.05 2181.21 3126.26 2183.01 3124.04 2183.01L3108 2183.01C3105.78 2183.01 3103.99 2181.21 3103.99 2179 3103.99 2176.79 3105.78 2174.99 3108 2174.99ZM3140.08 2174.99 3156.12 2174.99C3158.34 2174.99 3160.14 2176.79 3160.14 2179 3160.14 2181.21 3158.34 2183.01 3156.12 2183.01L3140.08 2183.01C3137.87 2183.01 3136.07 2181.21 3136.07 2179 3136.07 2176.79 3137.87 2174.99 3140.08 2174.99ZM3172.17 2174.99 3188.21 2174.99C3190.42 2174.99 3192.22 2176.79 3192.22 2179 3192.22 2181.21 3190.42 2183.01 3188.21 2183.01L3172.17 2183.01C3169.95 2183.01 3168.16 2181.21 3168.16 2179 3168.16 2176.79 3169.95 2174.99 3172.17 2174.99ZM3204.25 2174.99 3220.29 2174.99C3222.51 2174.99 3224.3 2176.79 3224.3 2179 3224.3 2181.21 3222.51 2183.01 3220.29 2183.01L3204.25 2183.01C3202.03 2183.01 3200.24 2181.21 3200.24 2179 3200.24 2176.79 3202.03 2174.99 3204.25 2174.99ZM3236.33 2174.99 3252.37 2174.99C3254.59 2174.99 3256.39 2176.79 3256.39 2179 3256.39 2181.21 3254.59 2183.01 3252.37 2183.01L3236.33 2183.01C3234.12 2183.01 3232.32 2181.21 3232.32 2179 3232.32 2176.79 3234.12 2174.99 3236.33 2174.99ZM3268.42 2174.99 3284.46 2174.99C3286.67 2174.99 3288.47 2176.79 3288.47 2179 3288.47 2181.21 3286.67 2183.01 3284.46 2183.01L3268.42 2183.01C3266.2 2183.01 3264.41 2181.21 3264.41 2179 3264.41 2176.79 3266.2 2174.99 3268.42 2174.99ZM3300.5 2174.99 3316.54 2174.99C3318.76 2174.99 3320.55 2176.79 3320.55 2179 3320.55 2181.21 3318.76 2183.01 3316.54 2183.01L3300.5 2183.01C3298.28 2183.01 3296.49 2181.21 3296.49 2179 3296.49 2176.79 3298.28 2174.99 3300.5 2174.99ZM3332.58 2174.99 3348.62 2174.99C3350.84 2174.99 3352.64 2176.79 3352.64 2179 3352.64 2181.21 3350.84 2183.01 3348.62 2183.01L3332.58 2183.01C3330.37 2183.01 3328.57 2181.21 3328.57 2179 3328.57 2176.79 3330.37 2174.99 3332.58 2174.99ZM3364.67 2174.99 3380.71 2174.99C3382.92 2174.99 3384.72 2176.79 3384.72 2179 3384.72 2181.21 3382.92 2183.01 3380.71 2183.01L3364.67 2183.01C3362.45 2183.01 3360.66 2181.21 3360.66 2179 3360.66 2176.79 3362.45 2174.99 3364.67 2174.99ZM3396.75 2174.99 3412.79 2174.99C3415.01 2174.99 3416.8 2176.79 3416.8 2179 3416.8 2181.21 3415.01 2183.01 3412.79 2183.01L3396.75 2183.01C3394.53 2183.01 3392.74 2181.21 3392.74 2179 3392.74 2176.79 3394.53 2174.99 3396.75 2174.99ZM3428.83 2174.99 3444.87 2174.99C3447.09 2174.99 3448.89 2176.79 3448.89 2179 3448.89 2181.21 3447.09 2183.01 3444.87 2183.01L3428.83 2183.01C3426.62 2183.01 3424.82 2181.21 3424.82 2179 3424.82 2176.79 3426.62 2174.99 3428.83 2174.99ZM3460.92 2174.99 3476.96 2174.99C3479.17 2174.99 3480.97 2176.79 3480.97 2179 3480.97 2181.21 3479.17 2183.01 3476.96 2183.01L3460.92 2183.01C3458.7 2183.01 3456.91 2181.21 3456.91 2179 3456.91 2176.79 3458.7 2174.99 3460.92 2174.99ZM3493 2174.99 3509.04 2174.99C3511.26 2174.99 3513.05 2176.79 3513.05 2179 3513.05 2181.21 3511.26 2183.01 3509.04 2183.01L3493 2183.01C3490.78 2183.01 3488.99 2181.21 3488.99 2179 3488.99 2176.79 3490.78 2174.99 3493 2174.99ZM3525.08 2174.99 3541.12 2174.99C3543.34 2174.99 3545.14 2176.79 3545.14 2179 3545.14 2181.21 3543.34 2183.01 3541.12 2183.01L3525.08 2183.01C3522.87 2183.01 3521.07 2181.21 3521.07 2179 3521.07 2176.79 3522.87 2174.99 3525.08 2174.99ZM3557.17 2174.99 3573.21 2174.99C3575.42 2174.99 3577.22 2176.79 3577.22 2179 3577.22 2181.21 3575.42 2183.01 3573.21 2183.01L3557.17 2183.01C3554.95 2183.01 3553.16 2181.21 3553.16 2179 3553.16 2176.79 3554.95 2174.99 3557.17 2174.99ZM3589.25 2174.99 3605.29 2174.99C3607.51 2174.99 3609.3 2176.79 3609.3 2179 3609.3 2181.21 3607.51 2183.01 3605.29 2183.01L3589.25 2183.01C3587.03 2183.01 3585.24 2181.21 3585.24 2179 3585.24 2176.79 3587.03 2174.99 3589.25 2174.99ZM3621.33 2174.99 3637.37 2174.99C3639.59 2174.99 3641.39 2176.79 3641.39 2179 3641.39 2181.21 3639.59 2183.01 3637.37 2183.01L3621.33 2183.01C3619.12 2183.01 3617.32 2181.21 3617.32 2179 3617.32 2176.79 3619.12 2174.99 3621.33 2174.99ZM3653.42 2174.99 3669.46 2174.99C3671.67 2174.99 3673.47 2176.79 3673.47 2179 3673.47 2181.21 3671.67 2183.01 3669.46 2183.01L3653.42 2183.01C3651.2 2183.01 3649.41 2181.21 3649.41 2179 3649.41 2176.79 3651.2 2174.99 3653.42 2174.99ZM3685.5 2174.99 3701.54 2174.99C3703.76 2174.99 3705.55 2176.79 3705.55 2179 3705.55 2181.21 3703.76 2183.01 3701.54 2183.01L3685.5 2183.01C3683.28 2183.01 3681.49 2181.21 3681.49 2179 3681.49 2176.79 3683.28 2174.99 3685.5 2174.99ZM3717.58 2174.99 3733.62 2174.99C3735.84 2174.99 3737.64 2176.79 3737.64 2179 3737.64 2181.21 3735.84 2183.01 3733.62 2183.01L3717.58 2183.01C3715.37 2183.01 3713.57 2181.21 3713.57 2179 3713.57 2176.79 3715.37 2174.99 3717.58 2174.99ZM3749.67 2174.99 3765.71 2174.99C3767.92 2174.99 3769.72 2176.79 3769.72 2179 3769.72 2181.21 3767.92 2183.01 3765.71 2183.01L3749.67 2183.01C3747.45 2183.01 3745.66 2181.21 3745.66 2179 3745.66 2176.79 3747.45 2174.99 3749.67 2174.99ZM3781.75 2174.99 3797.79 2174.99C3800.01 2174.99 3801.8 2176.79 3801.8 2179 3801.8 2181.21 3800.01 2183.01 3797.79 2183.01L3781.75 2183.01C3779.53 2183.01 3777.74 2181.21 3777.74 2179 3777.74 2176.79 3779.53 2174.99 3781.75 2174.99ZM3813.83 2174.99 3829.87 2174.99C3832.09 2174.99 3833.89 2176.79 3833.89 2179 3833.89 2181.21 3832.09 2183.01 3829.87 2183.01L3813.83 2183.01C3811.62 2183.01 3809.82 2181.21 3809.82 2179 3809.82 2176.79 3811.62 2174.99 3813.83 2174.99ZM3845.92 2174.99 3861.96 2174.99C3864.17 2174.99 3865.97 2176.79 3865.97 2179 3865.97 2181.21 3864.17 2183.01 3861.96 2183.01L3845.92 2183.01C3843.7 2183.01 3841.91 2181.21 3841.91 2179 3841.91 2176.79 3843.7 2174.99 3845.92 2174.99ZM3878 2174.99 3894.04 2174.99C3896.26 2174.99 3898.05 2176.79 3898.05 2179 3898.05 2181.21 3896.26 2183.01 3894.04 2183.01L3878 2183.01C3875.78 2183.01 3873.99 2181.21 3873.99 2179 3873.99 2176.79 3875.78 2174.99 3878 2174.99ZM3910.08 2174.99 3926.12 2174.99C3928.34 2174.99 3930.14 2176.79 3930.14 2179 3930.14 2181.21 3928.34 2183.01 3926.12 2183.01L3910.08 2183.01C3907.87 2183.01 3906.07 2181.21 3906.07 2179 3906.07 2176.79 3907.87 2174.99 3910.08 2174.99ZM3942.17 2174.99 3958.21 2174.99C3960.42 2174.99 3962.22 2176.79 3962.22 2179 3962.22 2181.21 3960.42 2183.01 3958.21 2183.01L3942.17 2183.01C3939.95 2183.01 3938.16 2181.21 3938.16 2179 3938.16 2176.79 3939.95 2174.99 3942.17 2174.99ZM3974.25 2174.99 3985.13 2174.99 3990.29 2174.99C3992.51 2174.99 3994.3 2176.79 3994.3 2179 3994.3 2181.21 3992.51 2183.01 3990.29 2183.01L3985.13 2183.01 3974.25 2183.01C3972.03 2183.01 3970.24 2181.21 3970.24 2179 3970.24 2176.79 3972.03 2174.99 3974.25 2174.99ZM4006.33 2174.99 4022.37 2174.99C4024.59 2174.99 4026.39 2176.79 4026.39 2179 4026.39 2181.21 4024.59 2183.01 4022.37 2183.01L4006.33 2183.01C4004.12 2183.01 4002.32 2181.21 4002.32 2179 4002.32 2176.79 4004.12 2174.99 4006.33 2174.99ZM4038.42 2174.99 4054.46 2174.99C4056.67 2174.99 4058.47 2176.79 4058.47 2179 4058.47 2181.21 4056.67 2183.01 4054.46 2183.01L4038.42 2183.01C4036.2 2183.01 4034.41 2181.21 4034.41 2179 4034.41 2176.79 4036.2 2174.99 4038.42 2174.99ZM4070.5 2174.99 4086.54 2174.99C4088.76 2174.99 4090.55 2176.79 4090.55 2179 4090.55 2181.21 4088.76 2183.01 4086.54 2183.01L4070.5 2183.01C4068.28 2183.01 4066.49 2181.21 4066.49 2179 4066.49 2176.79 4068.28 2174.99 4070.5 2174.99ZM4102.58 2174.99 4118.62 2174.99C4120.84 2174.99 4122.64 2176.79 4122.64 2179 4122.64 2181.21 4120.84 2183.01 4118.62 2183.01L4102.58 2183.01C4100.37 2183.01 4098.57 2181.21 4098.57 2179 4098.57 2176.79 4100.37 2174.99 4102.58 2174.99ZM4134.67 2174.99 4150.71 2174.99C4152.92 2174.99 4154.72 2176.79 4154.72 2179 4154.72 2181.21 4152.92 2183.01 4150.71 2183.01L4134.67 2183.01C4132.45 2183.01 4130.66 2181.21 4130.66 2179 4130.66 2176.79 4132.45 2174.99 4134.67 2174.99ZM4166.75 2174.99 4182.79 2174.99C4185.01 2174.99 4186.8 2176.79 4186.8 2179 4186.8 2181.21 4185.01 2183.01 4182.79 2183.01L4166.75 2183.01C4164.53 2183.01 4162.74 2181.21 4162.74 2179 4162.74 2176.79 4164.53 2174.99 4166.75 2174.99ZM4198.83 2174.99 4214.88 2174.99C4217.09 2174.99 4218.89 2176.79 4218.89 2179 4218.89 2181.21 4217.09 2183.01 4214.88 2183.01L4198.83 2183.01C4196.62 2183.01 4194.82 2181.21 4194.82 2179 4194.82 2176.79 4196.62 2174.99 4198.83 2174.99ZM4230.92 2174.99 4246.96 2174.99C4249.17 2174.99 4250.97 2176.79 4250.97 2179 4250.97 2181.21 4249.17 2183.01 4246.96 2183.01L4230.92 2183.01C4228.7 2183.01 4226.91 2181.21 4226.91 2179 4226.91 2176.79 4228.7 2174.99 4230.92 2174.99ZM4263 2174.99 4279.04 2174.99C4281.26 2174.99 4283.05 2176.79 4283.05 2179 4283.05 2181.21 4281.26 2183.01 4279.04 2183.01L4263 2183.01C4260.78 2183.01 4258.99 2181.21 4258.99 2179 4258.99 2176.79 4260.78 2174.99 4263 2174.99ZM4295.08 2174.99 4311.12 2174.99C4313.34 2174.99 4315.14 2176.79 4315.14 2179 4315.14 2181.21 4313.34 2183.01 4311.12 2183.01L4295.08 2183.01C4292.87 2183.01 4291.07 2181.21 4291.07 2179 4291.07 2176.79 4292.87 2174.99 4295.08 2174.99ZM4327.17 2174.99 4343.21 2174.99C4345.42 2174.99 4347.22 2176.79 4347.22 2179 4347.22 2181.21 4345.42 2183.01 4343.21 2183.01L4327.17 2183.01C4324.95 2183.01 4323.16 2181.21 4323.16 2179 4323.16 2176.79 4324.95 2174.99 4327.17 2174.99ZM4359.25 2174.99 4375.29 2174.99C4377.51 2174.99 4379.3 2176.79 4379.3 2179 4379.3 2181.21 4377.51 2183.01 4375.29 2183.01L4359.25 2183.01C4357.03 2183.01 4355.24 2181.21 4355.24 2179 4355.24 2176.79 4357.03 2174.99 4359.25 2174.99ZM4391.33 2174.99 4407.38 2174.99C4409.59 2174.99 4411.39 2176.79 4411.39 2179 4411.39 2181.21 4409.59 2183.01 4407.38 2183.01L4391.33 2183.01C4389.12 2183.01 4387.32 2181.21 4387.32 2179 4387.32 2176.79 4389.12 2174.99 4391.33 2174.99ZM4423.42 2174.99 4439.46 2174.99C4441.67 2174.99 4443.47 2176.79 4443.47 2179 4443.47 2181.21 4441.67 2183.01 4439.46 2183.01L4423.42 2183.01C4421.2 2183.01 4419.41 2181.21 4419.41 2179 4419.41 2176.79 4421.2 2174.99 4423.42 2174.99ZM4455.5 2174.99 4471.54 2174.99C4473.76 2174.99 4475.55 2176.79 4475.55 2179 4475.55 2181.21 4473.76 2183.01 4471.54 2183.01L4455.5 2183.01C4453.28 2183.01 4451.49 2181.21 4451.49 2179 4451.49 2176.79 4453.28 2174.99 4455.5 2174.99ZM4487.58 2174.99 4493.15 2174.99 4503.62 2174.99C4505.84 2174.99 4507.64 2176.79 4507.64 2179 4507.64 2181.21 4505.84 2183.01 4503.62 2183.01L4493.15 2183.01 4487.58 2183.01C4485.37 2183.01 4483.57 2181.21 4483.57 2179 4483.57 2176.79 4485.37 2174.99 4487.58 2174.99ZM4519.67 2174.99 4535.71 2174.99C4537.92 2174.99 4539.72 2176.79 4539.72 2179 4539.72 2181.21 4537.92 2183.01 4535.71 2183.01L4519.67 2183.01C4517.45 2183.01 4515.66 2181.21 4515.66 2179 4515.66 2176.79 4517.45 2174.99 4519.67 2174.99ZM4551.75 2174.99 4567.79 2174.99C4570.01 2174.99 4571.8 2176.79 4571.8 2179 4571.8 2181.21 4570.01 2183.01 4567.79 2183.01L4551.75 2183.01C4549.53 2183.01 4547.74 2181.21 4547.74 2179 4547.74 2176.79 4549.53 2174.99 4551.75 2174.99ZM4583.83 2174.99 4599.88 2174.99C4602.09 2174.99 4603.89 2176.79 4603.89 2179 4603.89 2181.21 4602.09 2183.01 4599.88 2183.01L4583.83 2183.01C4581.62 2183.01 4579.82 2181.21 4579.82 2179 4579.82 2176.79 4581.62 2174.99 4583.83 2174.99ZM4615.92 2174.99 4631.96 2174.99C4634.17 2174.99 4635.97 2176.79 4635.97 2179 4635.97 2181.21 4634.17 2183.01 4631.96 2183.01L4615.92 2183.01C4613.7 2183.01 4611.91 2181.21 4611.91 2179 4611.91 2176.79 4613.7 2174.99 4615.92 2174.99ZM4648 2174.99 4664.04 2174.99C4666.26 2174.99 4668.05 2176.79 4668.05 2179 4668.05 2181.21 4666.26 2183.01 4664.04 2183.01L4648 2183.01C4645.78 2183.01 4643.99 2181.21 4643.99 2179 4643.99 2176.79 4645.78 2174.99 4648 2174.99ZM4680.08 2174.99 4696.12 2174.99C4698.34 2174.99 4700.14 2176.79 4700.14 2179 4700.14 2181.21 4698.34 2183.01 4696.12 2183.01L4680.08 2183.01C4677.87 2183.01 4676.07 2181.21 4676.07 2179 4676.07 2176.79 4677.87 2174.99 4680.08 2174.99ZM4712.17 2174.99 4728.21 2174.99C4730.42 2174.99 4732.22 2176.79 4732.22 2179 4732.22 2181.21 4730.42 2183.01 4728.21 2183.01L4712.17 2183.01C4709.95 2183.01 4708.16 2181.21 4708.16 2179 4708.16 2176.79 4709.95 2174.99 4712.17 2174.99ZM4744.25 2174.99 4760.29 2174.99C4762.51 2174.99 4764.3 2176.79 4764.3 2179 4764.3 2181.21 4762.51 2183.01 4760.29 2183.01L4744.25 2183.01C4742.03 2183.01 4740.24 2181.21 4740.24 2179 4740.24 2176.79 4742.03 2174.99 4744.25 2174.99ZM4776.33 2174.99 4792.38 2174.99C4794.59 2174.99 4796.39 2176.79 4796.39 2179 4796.39 2181.21 4794.59 2183.01 4792.38 2183.01L4776.33 2183.01C4774.12 2183.01 4772.32 2181.21 4772.32 2179 4772.32 2176.79 4774.12 2174.99 4776.33 2174.99ZM4808.42 2174.99 4824.46 2174.99C4826.67 2174.99 4828.47 2176.79 4828.47 2179 4828.47 2181.21 4826.67 2183.01 4824.46 2183.01L4808.42 2183.01C4806.2 2183.01 4804.41 2181.21 4804.41 2179 4804.41 2176.79 4806.2 2174.99 4808.42 2174.99ZM4840.5 2174.99 4856.54 2174.99C4858.76 2174.99 4860.55 2176.79 4860.55 2179 4860.55 2181.21 4858.76 2183.01 4856.54 2183.01L4840.5 2183.01C4838.28 2183.01 4836.49 2181.21 4836.49 2179 4836.49 2176.79 4838.28 2174.99 4840.5 2174.99ZM4872.58 2174.99 4888.62 2174.99C4890.84 2174.99 4892.64 2176.79 4892.64 2179 4892.64 2181.21 4890.84 2183.01 4888.62 2183.01L4872.58 2183.01C4870.37 2183.01 4868.57 2181.21 4868.57 2179 4868.57 2176.79 4870.37 2174.99 4872.58 2174.99ZM4904.67 2174.99 4920.71 2174.99C4922.92 2174.99 4924.72 2176.79 4924.72 2179 4924.72 2181.21 4922.92 2183.01 4920.71 2183.01L4904.67 2183.01C4902.45 2183.01 4900.66 2181.21 4900.66 2179 4900.66 2176.79 4902.45 2174.99 4904.67 2174.99ZM4936.75 2174.99 4952.79 2174.99C4955.01 2174.99 4956.8 2176.79 4956.8 2179 4956.8 2181.21 4955.01 2183.01 4952.79 2183.01L4936.75 2183.01C4934.53 2183.01 4932.74 2181.21 4932.74 2179 4932.74 2176.79 4934.53 2174.99 4936.75 2174.99ZM4968.83 2174.99 4984.88 2174.99C4987.09 2174.99 4988.89 2176.79 4988.89 2179 4988.89 2181.21 4987.09 2183.01 4984.88 2183.01L4968.83 2183.01C4966.62 2183.01 4964.82 2181.21 4964.82 2179 4964.82 2176.79 4966.62 2174.99 4968.83 2174.99ZM5000.92 2174.99 5016.96 2174.99C5019.17 2174.99 5020.97 2176.79 5020.97 2179 5020.97 2181.21 5019.17 2183.01 5016.96 2183.01L5000.92 2183.01C4998.7 2183.01 4996.91 2181.21 4996.91 2179 4996.91 2176.79 4998.7 2174.99 5000.92 2174.99ZM5033 2174.99 5049.04 2174.99C5051.26 2174.99 5053.05 2176.79 5053.05 2179 5053.05 2181.21 5051.26 2183.01 5049.04 2183.01L5033 2183.01C5030.79 2183.01 5028.99 2181.21 5028.99 2179 5028.99 2176.79 5030.79 2174.99 5033 2174.99ZM5065.08 2174.99 5081.12 2174.99C5083.34 2174.99 5085.14 2176.79 5085.14 2179 5085.14 2181.21 5083.34 2183.01 5081.12 2183.01L5065.08 2183.01C5062.87 2183.01 5061.07 2181.21 5061.07 2179 5061.07 2176.79 5062.87 2174.99 5065.08 2174.99ZM5097.17 2174.99 5113.21 2174.99C5115.42 2174.99 5117.22 2176.79 5117.22 2179 5117.22 2181.21 5115.42 2183.01 5113.21 2183.01L5097.17 2183.01C5094.95 2183.01 5093.16 2181.21 5093.16 2179 5093.16 2176.79 5094.95 2174.99 5097.17 2174.99ZM5129.25 2174.99 5145.29 2174.99C5147.51 2174.99 5149.3 2176.79 5149.3 2179 5149.3 2181.21 5147.51 2183.01 5145.29 2183.01L5129.25 2183.01C5127.04 2183.01 5125.24 2181.21 5125.24 2179 5125.24 2176.79 5127.04 2174.99 5129.25 2174.99ZM5161.33 2174.99 5177.38 2174.99C5179.59 2174.99 5181.39 2176.79 5181.39 2179 5181.39 2181.21 5179.59 2183.01 5177.38 2183.01L5161.33 2183.01C5159.12 2183.01 5157.32 2181.21 5157.32 2179 5157.32 2176.79 5159.12 2174.99 5161.33 2174.99ZM5193.42 2174.99 5209.46 2174.99C5211.67 2174.99 5213.47 2176.79 5213.47 2179 5213.47 2181.21 5211.67 2183.01 5209.46 2183.01L5193.42 2183.01C5191.2 2183.01 5189.41 2181.21 5189.41 2179 5189.41 2176.79 5191.2 2174.99 5193.42 2174.99ZM5225.5 2174.99 5241.54 2174.99C5243.76 2174.99 5245.55 2176.79 5245.55 2179 5245.55 2181.21 5243.76 2183.01 5241.54 2183.01L5225.5 2183.01C5223.29 2183.01 5221.49 2181.21 5221.49 2179 5221.49 2176.79 5223.29 2174.99 5225.5 2174.99ZM5257.58 2174.99 5273.62 2174.99C5275.84 2174.99 5277.64 2176.79 5277.64 2179 5277.64 2181.21 5275.84 2183.01 5273.62 2183.01L5257.58 2183.01C5255.37 2183.01 5253.57 2181.21 5253.57 2179 5253.57 2176.79 5255.37 2174.99 5257.58 2174.99ZM5289.67 2174.99 5305.71 2174.99C5307.92 2174.99 5309.72 2176.79 5309.72 2179 5309.72 2181.21 5307.92 2183.01 5305.71 2183.01L5289.67 2183.01C5287.45 2183.01 5285.66 2181.21 5285.66 2179 5285.66 2176.79 5287.45 2174.99 5289.67 2174.99ZM5321.75 2174.99 5337.79 2174.99C5340.01 2174.99 5341.8 2176.79 5341.8 2179 5341.8 2181.21 5340.01 2183.01 5337.79 2183.01L5321.75 2183.01C5319.54 2183.01 5317.74 2181.21 5317.74 2179 5317.74 2176.79 5319.54 2174.99 5321.75 2174.99ZM5353.83 2174.99 5369.88 2174.99C5372.09 2174.99 5373.89 2176.79 5373.89 2179 5373.89 2181.21 5372.09 2183.01 5369.88 2183.01L5353.83 2183.01C5351.62 2183.01 5349.82 2181.21 5349.82 2179 5349.82 2176.79 5351.62 2174.99 5353.83 2174.99ZM5385.92 2174.99 5401.96 2174.99C5404.17 2174.99 5405.97 2176.79 5405.97 2179 5405.97 2181.21 5404.17 2183.01 5401.96 2183.01L5385.92 2183.01C5383.7 2183.01 5381.91 2181.21 5381.91 2179 5381.91 2176.79 5383.7 2174.99 5385.92 2174.99ZM5418 2174.99 5434.04 2174.99C5436.26 2174.99 5438.05 2176.79 5438.05 2179 5438.05 2181.21 5436.26 2183.01 5434.04 2183.01L5418 2183.01C5415.79 2183.01 5413.99 2181.21 5413.99 2179 5413.99 2176.79 5415.79 2174.99 5418 2174.99ZM5450.08 2174.99 5466.12 2174.99C5468.34 2174.99 5470.14 2176.79 5470.14 2179 5470.14 2181.21 5468.34 2183.01 5466.12 2183.01L5450.08 2183.01C5447.87 2183.01 5446.07 2181.21 5446.07 2179 5446.07 2176.79 5447.87 2174.99 5450.08 2174.99ZM5482.17 2174.99 5498.21 2174.99C5500.42 2174.99 5502.22 2176.79 5502.22 2179 5502.22 2181.21 5500.42 2183.01 5498.21 2183.01L5482.17 2183.01C5479.95 2183.01 5478.16 2181.21 5478.16 2179 5478.16 2176.79 5479.95 2174.99 5482.17 2174.99ZM5514.25 2174.99 5530.29 2174.99C5532.51 2174.99 5534.3 2176.79 5534.3 2179 5534.3 2181.21 5532.51 2183.01 5530.29 2183.01L5514.25 2183.01C5512.04 2183.01 5510.24 2181.21 5510.24 2179 5510.24 2176.79 5512.04 2174.99 5514.25 2174.99ZM5546.33 2174.99 5562.38 2174.99C5564.59 2174.99 5566.39 2176.79 5566.39 2179 5566.39 2181.21 5564.59 2183.01 5562.38 2183.01L5546.33 2183.01C5544.12 2183.01 5542.32 2181.21 5542.32 2179 5542.32 2176.79 5544.12 2174.99 5546.33 2174.99ZM5578.42 2174.99 5594.46 2174.99C5596.67 2174.99 5598.47 2176.79 5598.47 2179 5598.47 2181.21 5596.67 2183.01 5594.46 2183.01L5578.42 2183.01C5576.2 2183.01 5574.41 2181.21 5574.41 2179 5574.41 2176.79 5576.2 2174.99 5578.42 2174.99ZM5610.5 2174.99 5626.54 2174.99C5628.76 2174.99 5630.55 2176.79 5630.55 2179 5630.55 2181.21 5628.76 2183.01 5626.54 2183.01L5610.5 2183.01C5608.29 2183.01 5606.49 2181.21 5606.49 2179 5606.49 2176.79 5608.29 2174.99 5610.5 2174.99ZM5642.58 2174.99 5658.62 2174.99C5660.84 2174.99 5662.64 2176.79 5662.64 2179 5662.64 2181.21 5660.84 2183.01 5658.62 2183.01L5642.58 2183.01C5640.37 2183.01 5638.57 2181.21 5638.57 2179 5638.57 2176.79 5640.37 2174.99 5642.58 2174.99ZM5674.67 2174.99 5690.71 2174.99C5692.92 2174.99 5694.72 2176.79 5694.72 2179 5694.72 2181.21 5692.92 2183.01 5690.71 2183.01L5674.67 2183.01C5672.45 2183.01 5670.66 2181.21 5670.66 2179 5670.66 2176.79 5672.45 2174.99 5674.67 2174.99ZM5706.75 2174.99 5722.79 2174.99C5725.01 2174.99 5726.8 2176.79 5726.8 2179 5726.8 2181.21 5725.01 2183.01 5722.79 2183.01L5706.75 2183.01C5704.54 2183.01 5702.74 2181.21 5702.74 2179 5702.74 2176.79 5704.54 2174.99 5706.75 2174.99ZM5738.83 2174.99 5754.88 2174.99C5757.09 2174.99 5758.89 2176.79 5758.89 2179 5758.89 2181.21 5757.09 2183.01 5754.88 2183.01L5738.83 2183.01C5736.62 2183.01 5734.82 2181.21 5734.82 2179 5734.82 2176.79 5736.62 2174.99 5738.83 2174.99ZM5770.92 2174.99 5786.96 2174.99C5789.17 2174.99 5790.97 2176.79 5790.97 2179 5790.97 2181.21 5789.17 2183.01 5786.96 2183.01L5770.92 2183.01C5768.7 2183.01 5766.91 2181.21 5766.91 2179 5766.91 2176.79 5768.7 2174.99 5770.92 2174.99ZM5803 2174.99 5819.04 2174.99C5821.26 2174.99 5823.05 2176.79 5823.05 2179 5823.05 2181.21 5821.26 2183.01 5819.04 2183.01L5803 2183.01C5800.79 2183.01 5798.99 2181.21 5798.99 2179 5798.99 2176.79 5800.79 2174.99 5803 2174.99ZM5835.08 2174.99 5851.12 2174.99C5853.34 2174.99 5855.14 2176.79 5855.14 2179 5855.14 2181.21 5853.34 2183.01 5851.12 2183.01L5835.08 2183.01C5832.87 2183.01 5831.07 2181.21 5831.07 2179 5831.07 2176.79 5832.87 2174.99 5835.08 2174.99ZM5867.17 2174.99 5883.21 2174.99C5885.42 2174.99 5887.22 2176.79 5887.22 2179 5887.22 2181.21 5885.42 2183.01 5883.21 2183.01L5867.17 2183.01C5864.95 2183.01 5863.16 2181.21 5863.16 2179 5863.16 2176.79 5864.95 2174.99 5867.17 2174.99ZM5899.25 2174.99 5915.29 2174.99C5917.51 2174.99 5919.3 2176.79 5919.3 2179 5919.3 2181.21 5917.51 2183.01 5915.29 2183.01L5899.25 2183.01C5897.04 2183.01 5895.24 2181.21 5895.24 2179 5895.24 2176.79 5897.04 2174.99 5899.25 2174.99ZM5931.33 2174.99 5947.38 2174.99C5949.59 2174.99 5951.39 2176.79 5951.39 2179 5951.39 2181.21 5949.59 2183.01 5947.38 2183.01L5931.33 2183.01C5929.12 2183.01 5927.32 2181.21 5927.32 2179 5927.32 2176.79 5929.12 2174.99 5931.33 2174.99ZM5963.42 2174.99 5979.46 2174.99C5981.67 2174.99 5983.47 2176.79 5983.47 2179 5983.47 2181.21 5981.67 2183.01 5979.46 2183.01L5963.42 2183.01C5961.2 2183.01 5959.41 2181.21 5959.41 2179 5959.41 2176.79 5961.2 2174.99 5963.42 2174.99ZM5995.5 2174.99 6011.54 2174.99C6013.76 2174.99 6015.55 2176.79 6015.55 2179 6015.55 2181.21 6013.76 2183.01 6011.54 2183.01L5995.5 2183.01C5993.29 2183.01 5991.49 2181.21 5991.49 2179 5991.49 2176.79 5993.29 2174.99 5995.5 2174.99Z" fill="#C00000" fill-rule="nonzero" fill-opacity="1"/></g><g><text fill="#000000" fill-opacity="1" font-family="Calibri,Calibri_MSFontService,sans-serif" font-style="normal" font-variant="normal" font-weight="400" font-stretch="normal" font-size="46" text-anchor="start" direction="ltr" writing-mode="lr-tb" unicode-bidi="normal" text-decoration="none" transform="matrix(1 0 0 1 1543.22 3716)">0.00%</text></g><g><text fill="#000000" fill-opacity="1" font-family="Calibri,Calibri_MSFontService,sans-serif" font-style="normal" font-variant="normal" font-weight="400" font-stretch="normal" font-size="46" text-anchor="start" direction="ltr" writing-mode="lr-tb" unicode-bidi="normal" text-decoration="none" transform="matrix(1 0 0 1 1543.22 3411)">2.00%</text></g><g><text fill="#000000" fill-opacity="1" font-family="Calibri,Calibri_MSFontService,sans-serif" font-style="normal" font-variant="normal" font-weight="400" font-stretch="normal" font-size="46" text-anchor="start" direction="ltr" writing-mode="lr-tb" unicode-bidi="normal" text-decoration="none" transform="matrix(1 0 0 1 1543.22 3106)">4.00%</text></g><g><text fill="#000000" fill-opacity="1" font-family="Calibri,Calibri_MSFontService,sans-serif" font-style="normal" font-variant="normal" font-weight="400" font-stretch="normal" font-size="46" text-anchor="start" direction="ltr" writing-mode="lr-tb" unicode-bidi="normal" text-decoration="none" transform="matrix(1 0 0 1 1543.22 2801)">6.00%</text></g><g><text fill="#000000" fill-opacity="1" font-family="Calibri,Calibri_MSFontService,sans-serif" font-style="normal" font-variant="normal" font-weight="400" font-stretch="normal" font-size="46" text-anchor="start" direction="ltr" writing-mode="lr-tb" unicode-bidi="normal" text-decoration="none" transform="matrix(1 0 0 1 1543.22 2496)">8.00%</text></g><g><text fill="#000000" fill-opacity="1" font-family="Calibri,Calibri_MSFontService,sans-serif" font-style="normal" font-variant="normal" font-weight="400" font-stretch="normal" font-size="46" text-anchor="start" direction="ltr" writing-mode="lr-tb" unicode-bidi="normal" text-decoration="none" transform="matrix(1 0 0 1 1520.03 2191)">10.00%</text></g><g><text fill="#000000" fill-opacity="1" font-family="Calibri,Calibri_MSFontService,sans-serif" font-style="normal" font-variant="normal" font-weight="400" font-stretch="normal" font-size="46" text-anchor="start" direction="ltr" writing-mode="lr-tb" unicode-bidi="normal" text-decoration="none" transform="matrix(1 0 0 1 1520.03 1886)">12.00%</text></g><g><text fill="#000000" fill-opacity="1" font-family="Calibri,Calibri_MSFontService,sans-serif" font-style="normal" font-variant="normal" font-weight="400" font-stretch="normal" font-size="46" text-anchor="start" direction="ltr" writing-mode="lr-tb" unicode-bidi="normal" text-decoration="none" transform="matrix(1 0 0 1 1520.03 1581)">14.00%</text></g><g><text fill="#000000" fill-opacity="1" font-family="Calibri,Calibri_MSFontService,sans-serif" font-style="normal" font-variant="normal" font-weight="400" font-stretch="normal" font-size="46" text-anchor="start" direction="ltr" writing-mode="lr-tb" unicode-bidi="normal" text-decoration="none" transform="matrix(1 0 0 1 1931.39 3777)">S1</text></g><g><text fill="#000000" fill-opacity="1" font-family="Calibri,Calibri_MSFontService,sans-serif" font-style="normal" font-variant="normal" font-weight="400" font-stretch="normal" font-size="46" text-anchor="start" direction="ltr" writing-mode="lr-tb" unicode-bidi="normal" text-decoration="none" transform="matrix(1 0 0 1 2439.23 3777)">S2</text></g><g><text fill="#000000" fill-opacity="1" font-family="Calibri,Calibri_MSFontService,sans-serif" font-style="normal" font-variant="normal" font-weight="400" font-stretch="normal" font-size="46" text-anchor="start" direction="ltr" writing-mode="lr-tb" unicode-bidi="normal" text-decoration="none" transform="matrix(1 0 0 1 2947.08 3777)">S3</text></g><g><text fill="#000000" fill-opacity="1" font-family="Calibri,Calibri_MSFontService,sans-serif" font-style="normal" font-variant="normal" font-weight="400" font-stretch="normal" font-size="46" text-anchor="start" direction="ltr" writing-mode="lr-tb" unicode-bidi="normal" text-decoration="none" transform="matrix(1 0 0 1 3454.93 3777)">S4</text></g><g><text fill="#000000" fill-opacity="1" font-family="Calibri,Calibri_MSFontService,sans-serif" font-style="normal" font-variant="normal" font-weight="400" font-stretch="normal" font-size="46" text-anchor="start" direction="ltr" writing-mode="lr-tb" unicode-bidi="normal" text-decoration="none" transform="matrix(1 0 0 1 3962.78 3777)">S5</text></g><g><text fill="#000000" fill-opacity="1" font-family="Calibri,Calibri_MSFontService,sans-serif" font-style="normal" font-variant="normal" font-weight="400" font-stretch="normal" font-size="46" text-anchor="start" direction="ltr" writing-mode="lr-tb" unicode-bidi="normal" text-decoration="none" transform="matrix(1 0 0 1 4470.62 3777)">S6</text></g><g><text fill="#000000" fill-opacity="1" font-family="Calibri,Calibri_MSFontService,sans-serif" font-style="normal" font-variant="normal" font-weight="400" font-stretch="normal" font-size="46" text-anchor="start" direction="ltr" writing-mode="lr-tb" unicode-bidi="normal" text-decoration="none" transform="matrix(1 0 0 1 4978.47 3777)">S7</text></g><g><text fill="#000000" fill-opacity="1" font-family="Calibri,Calibri_MSFontService,sans-serif" font-style="normal" font-variant="normal" font-weight="400" font-stretch="normal" font-size="46" text-anchor="start" direction="ltr" writing-mode="lr-tb" unicode-bidi="normal" text-decoration="none" transform="matrix(1 0 0 1 5486.32 3777)">S8</text></g><g><text fill="#000000" fill-opacity="1" font-family="Calibri,Calibri_MSFontService,sans-serif" font-style="normal" font-variant="normal" font-weight="400" font-stretch="normal" font-size="46" text-anchor="start" direction="ltr" writing-mode="lr-tb" unicode-bidi="normal" text-decoration="none" transform="matrix(1 0 0 1 5994.17 3777)">S9</text></g><g><text fill="#000000" fill-opacity="1" font-family="Calibri,Calibri_MSFontService,sans-serif" font-style="normal" font-variant="normal" font-weight="700" font-stretch="normal" font-size="46" text-anchor="start" direction="ltr" writing-mode="lr-tb" unicode-bidi="normal" text-decoration="none" transform="matrix(6.12323e-17 -1 1 6.12323e-17 1494.34 2786)">Percentuala (%)</text></g><g><text fill="#000000" fill-opacity="1" font-family="Calibri,Calibri_MSFontService,sans-serif" font-style="normal" font-variant="normal" font-weight="700" font-stretch="normal" font-size="83" text-anchor="start" direction="ltr" writing-mode="lr-tb" unicode-bidi="normal" text-decoration="none" transform="matrix(1 0 0 1 3724.53 1409)">WSD</text></g><g><path d="M3312 3993 3427 3993" stroke="#1F497D" stroke-width="10.3125" stroke-linecap="round" stroke-linejoin="round" stroke-miterlimit="10" stroke-opacity="1" fill="none" fill-rule="evenodd"/></g><g><g><text fill="#000000" fill-opacity="1" font-family="Calibri,Calibri_MSFontService,sans-serif" font-style="normal" font-variant="normal" font-weight="400" font-stretch="normal" font-size="46" text-anchor="start" direction="ltr" writing-mode="lr-tb" unicode-bidi="normal" text-decoration="none" transform="matrix(1 0 0 1 3440.08 4005)">STD DEV</text></g></g><g><path d="M3679 3988.99 3695.04 3988.99C3697.26 3988.99 3699.05 3990.79 3699.05 3993 3699.05 3995.21 3697.26 3997.01 3695.04 3997.01L3679 3997.01C3676.79 3997.01 3674.99 3995.21 3674.99 3993 3674.99 3990.79 3676.79 3988.99 3679 3988.99ZM3711.08 3988.99 3727.13 3988.99C3729.34 3988.99 3731.14 3990.79 3731.14 3993 3731.14 3995.22 3729.34 3997.01 3727.13 3997.01L3711.08 3997.01C3708.87 3997.01 3707.07 3995.22 3707.07 3993 3707.07 3990.79 3708.87 3988.99 3711.08 3988.99ZM3743.17 3988.99 3759.21 3988.99C3761.42 3988.99 3763.22 3990.79 3763.22 3993 3763.22 3995.22 3761.42 3997.01 3759.21 3997.01L3743.17 3997.01C3740.95 3997.01 3739.16 3995.22 3739.16 3993 3739.16 3990.79 3740.95 3988.99 3743.17 3988.99ZM3775.25 3988.99 3791.29 3988.99C3793.51 3988.99 3795.3 3990.79 3795.3 3993 3795.3 3995.22 3793.51 3997.01 3791.29 3997.01L3775.25 3997.01C3773.04 3997.01 3771.24 3995.22 3771.24 3993 3771.24 3990.79 3773.04 3988.99 3775.25 3988.99Z" fill="#92D050" fill-rule="nonzero" fill-opacity="1"/></g><g><g><text fill="#000000" fill-opacity="1" font-family="Calibri,Calibri_MSFontService,sans-serif" font-style="normal" font-variant="normal" font-weight="400" font-stretch="normal" font-size="46" text-anchor="start" direction="ltr" writing-mode="lr-tb" unicode-bidi="normal" text-decoration="none" transform="matrix(1 0 0 1 3807.38 4005)">Soglia ott. ( 6.30%)</text></g></g><g><path d="M4259 3988.99 4275.04 3988.99C4277.26 3988.99 4279.05 3990.79 4279.05 3993 4279.05 3995.21 4277.26 3997.01 4275.04 3997.01L4259 3997.01C4256.79 3997.01 4254.99 3995.21 4254.99 3993 4254.99 3990.79 4256.79 3988.99 4259 3988.99ZM4291.08 3988.99 4307.12 3988.99C4309.34 3988.99 4311.14 3990.79 4311.14 3993 4311.14 3995.22 4309.34 3997.01 4307.12 3997.01L4291.08 3997.01C4288.87 3997.01 4287.07 3995.22 4287.07 3993 4287.07 3990.79 4288.87 3988.99 4291.08 3988.99ZM4323.17 3988.99 4339.21 3988.99C4341.42 3988.99 4343.22 3990.79 4343.22 3993 4343.22 3995.22 4341.42 3997.01 4339.21 3997.01L4323.17 3997.01C4320.95 3997.01 4319.16 3995.22 4319.16 3993 4319.16 3990.79 4320.95 3988.99 4323.17 3988.99ZM4355.25 3988.99 4371.29 3988.99C4373.51 3988.99 4375.3 3990.79 4375.3 3993 4375.3 3995.22 4373.51 3997.01 4371.29 3997.01L4355.25 3997.01C4353.04 3997.01 4351.24 3995.22 4351.24 3993 4351.24 3990.79 4353.04 3988.99 4355.25 3988.99Z" fill="#C00000" fill-rule="nonzero" fill-opacity="1"/></g><g><g><text fill="#000000" fill-opacity="1" font-family="Calibri,Calibri_MSFontService,sans-serif" font-style="normal" font-variant="normal" font-weight="400" font-stretch="normal" font-size="46" text-anchor="start" direction="ltr" writing-mode="lr-tb" unicode-bidi="normal" text-decoration="none" transform="matrix(1 0 0 1 4387.49 4005)">Soglia acc.( 10%)</text></g></g><rect x="1190.5" y="1295.5" width="5235" height="2803" stroke="#D9D9D9" stroke-width="3.37795" stroke-linecap="butt" stroke-linejoin="round" stroke-miterlimit="10" stroke-opacity="1" fill="none"/></g></g></svg>